<svg width="480" height="400" viewBox="0 0 480 400" xmlns="http://www.w3.org/2000/svg" style="overflow:display" preserveAspectRatio="xMinYMin meet" overflow="visible">
<defs>
	<style>
	.data-series path.line { fill-opacity: 0; stroke: black; }
	.data-series path.line.dotted { stroke-dasharray: 12 20 }
	.data-series:hover path.line, .data-series.on path.line { stroke-width: 1; }
	.data-series:hover circle, .data-series.on circle { display: inline; }
	.graph-grid { font-family: "Helvetica Neue",Helvetica,Arial,"Lucida Grande",sans-serif; }
	.graph-grid line { stroke: black; stroke-width: 1; stroke-linecap: round; }
	.graph-grid.graph-grid-x text { text-anchor: middle; dominant-baseline: hanging; transform: translateY(10px); }
	.graph-grid.graph-grid-y text { text-anchor: end; dominant-baseline: middle; transform: translateX(-10px); }
	</style>
</defs>
<g class="graph-grid graph-grid-y">
	<line x1="15.00" y1="375.00" x2="470.00" y2="375.00" data-left="15"></line>
	<text x="25" y="375" text-anchor="end">0</text>
	<text x="25" y="274.195462701613" text-anchor="end">5</text>
	<text x="25" y="173.390925403226" text-anchor="end">10</text>
	<text x="25" y="72.5863881048387" text-anchor="end">15</text>
	<text style="text-anchor:middle;dominant-baseline:hanging;font-weight:bold;transform: translateY(192.5px) rotate(-90deg);"></text>
</g>
<g class="graph-grid graph-grid-x">
	<line class="tick" x1="58.24" y1="375.00" x2="58.24" y2="380.00"></line>
	<text x="58.2352941176471" y="375" text-anchor="middle">A</text>
	<line class="tick" x1="120.00" y1="375.00" x2="120.00" y2="380.00"></line>
	<text x="120" y="375" text-anchor="middle">M</text>
	<line class="tick" x1="183.82" y1="375.00" x2="183.82" y2="380.00"></line>
	<text x="183.823529411765" y="375" text-anchor="middle">J</text>
	<line class="tick" x1="245.59" y1="375.00" x2="245.59" y2="380.00"></line>
	<text x="245.588235294118" y="375" text-anchor="middle">J</text>
	<line class="tick" x1="309.41" y1="375.00" x2="309.41" y2="380.00"></line>
	<text x="309.411764705882" y="375" text-anchor="middle">A</text>
	<line class="tick" x1="373.24" y1="375.00" x2="373.24" y2="380.00"></line>
	<text x="373.235294117647" y="375" text-anchor="middle">S</text>
	<line class="tick" x1="435.00" y1="375.00" x2="435.00" y2="380.00"></line>
	<text x="435" y="375" text-anchor="middle">O</text>
	<text style="text-anchor:middle;dominant-baseline:hanging;font-weight:bold;transform: translateY(192.5px) rotate(-90deg);"></text>
</g>
<g data-series="widespread" class="data-series">
	<path d="M 15.00,233.87L 470.00,233.87" id="E06000022-level-0" class="line" stroke-width="1" stroke-linecap="round" stroke-dasharray="3,3" fill-opacity="0.3" opacity="0.3"><title>Widespread</title></path>
</g>
<g data-series="substantial" class="data-series">
	<path d="M 15.00,294.36L 470.00,294.36" id="E06000022-level-1" class="line" stroke-width="1" stroke-linecap="round" stroke-dasharray="3,3" fill-opacity="0.3" opacity="0.3"><title>Substantial</title></path>
</g>
<g data-series="moderate" class="data-series">
	<path d="M 15.00,354.84L 470.00,354.84" id="E06000022-level-2" class="line" stroke-width="1" stroke-linecap="round" stroke-dasharray="3,3" fill-opacity="0.3" opacity="0.3"><title>Moderate</title></path>
</g>
<g data-series="new-cases" class="data-series">
	<path d="M 15.00,364.70L 17.06,366.76L 19.12,366.41L 21.18,367.64L 23.24,361.75L 25.29,360.28L 27.35,357.34L 29.41,355.87L 31.47,352.92L 33.53,348.51L 35.59,344.09L 37.65,345.56L 39.71,342.62L 41.76,341.15L 43.82,339.68L 45.88,333.79L 47.94,332.32L 50.00,336.73L 52.06,335.26L 54.12,336.73L 56.18,336.73L 58.24,338.21L 60.29,339.68L 62.35,330.85L 64.41,320.54L 66.47,316.13L 68.53,305.83L 70.59,288.17L 72.65,274.92L 74.71,279.33L 76.76,286.69L 78.82,283.75L 80.88,283.75L 82.94,292.58L 85.00,307.30L 87.06,314.66L 89.12,302.88L 91.18,305.83L 93.24,311.71L 95.29,310.24L 97.35,308.77L 99.41,305.83L 101.47,308.77L 103.53,313.19L 105.59,313.19L 107.65,316.13L 109.71,317.60L 111.76,311.71L 113.82,314.66L 115.88,307.30L 117.94,311.71L 120.00,313.19L 122.06,311.71L 124.12,319.07L 126.18,330.85L 128.24,336.73L 130.29,348.51L 132.35,348.51L 134.41,342.62L 136.47,345.56L 138.53,348.51L 140.59,349.98L 142.65,352.92L 144.71,348.51L 146.76,349.98L 148.82,360.28L 150.88,363.23L 152.94,355.87L 155.00,349.98L 157.06,347.04L 159.12,349.98L 161.18,354.40L 163.24,352.92L 165.29,352.92L 167.35,358.81L 169.41,364.70L 171.47,366.17L 173.53,364.70L 175.59,360.28L 177.65,360.28L 179.71,360.28L 181.76,361.75L 183.82,363.23L 185.88,364.70L 187.94,367.64L 190.00,370.58L 192.06,372.06L 194.12,372.06L 196.18,373.53L 198.24,373.53L 200.29,373.53L 202.35,370.58L 204.41,372.06L 206.47,367.64L 208.53,367.64L 210.59,367.64L 212.65,367.64L 214.71,367.64L 216.76,370.58L 218.82,370.58L 220.88,375.00L 222.94,375.00L 225.00,375.00L 227.06,375.00L 229.12,375.00L 231.18,375.00L 233.24,375.00L 235.29,375.00L 237.35,375.00L 239.41,375.00L 241.47,375.00L 243.53,375.00L 245.59,375.00L 247.65,375.00L 249.71,375.00L 251.76,375.00L 253.82,373.53L 255.88,372.06L 257.94,372.06L 260.00,372.06L 262.06,372.06L 264.12,372.06L 266.18,372.06L 268.24,373.53L 270.29,372.06L 272.35,370.58L 274.41,370.58L 276.47,369.11L 278.53,367.64L 280.59,366.17L 282.65,366.17L 284.71,366.17L 286.76,366.17L 288.82,364.70L 290.88,366.17L 292.94,367.64L 295.00,369.11L 297.06,364.70L 299.12,366.17L 301.18,363.23L 303.24,364.70L 305.29,364.70L 307.35,363.23L 309.41,361.75L 311.47,366.17L 313.53,367.64L 315.59,370.58L 317.65,370.58L 319.71,370.58L 321.76,372.06L 323.82,370.58L 325.88,369.11L 327.94,367.64L 330.00,360.28L 332.06,360.28L 334.12,360.28L 336.18,358.81L 338.24,357.34L 340.29,348.51L 342.35,335.26L 344.41,333.79L 346.47,330.85L 348.53,330.85L 350.59,326.43L 352.65,329.38L 354.71,333.79L 356.76,341.15L 358.82,351.45L 360.88,354.40L 362.94,352.92L 365.00,354.40L 367.06,347.04L 369.12,345.56L 371.18,344.09L 373.24,341.15L 375.29,335.26L 377.35,324.96L 379.41,327.90L 381.47,330.85L 383.53,330.85L 385.59,339.68L 387.65,338.21L 389.71,342.62L 391.76,354.40L 393.82,348.51L 395.88,348.51L 397.94,349.98L 400.00,345.56L 402.06,345.56L 404.12,339.68L 406.18,333.79L 408.24,329.38L 410.29,322.02L 412.35,316.13L 414.41,304.35L 416.47,288.17L 418.53,280.81L 420.59,269.03L 422.65,261.67L 424.71,258.73L 426.76,246.96L 428.82,236.65L 430.88,216.05L 432.94,191.03L 435.00,182.20L 437.06,167.48L 439.12,154.23L 441.18,115.97L 443.24,82.12L 445.29,58.57L 447.35,45.32L 449.41,33.55L 451.47,27.66L 453.53,10.00L 455.59,20.30L 457.65,52.68L 459.71,95.36" id="New cases" class="line" stroke-width="1" stroke-linecap="round"><title>New cases</title></path>
	<circle cx="15.00" cy="364.70" data-y="0.51" data-x="1583884800" r="1" fill="white"><title>2020-03-11: 1</title></circle>
	<circle cx="17.06" cy="366.76" data-y="0.41" data-x="1583971200" r="1" fill="white"><title>2020-03-12: 0</title></circle>
	<circle cx="19.12" cy="366.41" data-y="0.43" data-x="1584057600" r="1" fill="white"><title>2020-03-13: 0</title></circle>
	<circle cx="21.18" cy="367.64" data-y="0.37" data-x="1584144000" r="1" fill="white"><title>2020-03-14: 0</title></circle>
	<circle cx="23.24" cy="361.75" data-y="0.66" data-x="1584230400" r="1" fill="white"><title>2020-03-15: 1</title></circle>
	<circle cx="25.29" cy="360.28" data-y="0.73" data-x="1584316800" r="1" fill="white"><title>2020-03-16: 1</title></circle>
	<circle cx="27.35" cy="357.34" data-y="0.88" data-x="1584403200" r="1" fill="white"><title>2020-03-17: 1</title></circle>
	<circle cx="29.41" cy="355.87" data-y="0.95" data-x="1584489600" r="1" fill="white"><title>2020-03-18: 1</title></circle>
	<circle cx="31.47" cy="352.92" data-y="1.10" data-x="1584576000" r="1" fill="white"><title>2020-03-19: 1</title></circle>
	<circle cx="33.53" cy="348.51" data-y="1.31" data-x="1584662400" r="1" fill="white"><title>2020-03-20: 1</title></circle>
	<circle cx="35.59" cy="344.09" data-y="1.53" data-x="1584748800" r="1" fill="white"><title>2020-03-21: 2</title></circle>
	<circle cx="37.65" cy="345.56" data-y="1.46" data-x="1584835200" r="1" fill="white"><title>2020-03-22: 1</title></circle>
	<circle cx="39.71" cy="342.62" data-y="1.61" data-x="1584921600" r="1" fill="white"><title>2020-03-23: 2</title></circle>
	<circle cx="41.76" cy="341.15" data-y="1.68" data-x="1585008000" r="1" fill="white"><title>2020-03-24: 2</title></circle>
	<circle cx="43.82" cy="339.68" data-y="1.75" data-x="1585094400" r="1" fill="white"><title>2020-03-25: 2</title></circle>
	<circle cx="45.88" cy="333.79" data-y="2.04" data-x="1585180800" r="1" fill="white"><title>2020-03-26: 2</title></circle>
	<circle cx="47.94" cy="332.32" data-y="2.12" data-x="1585267200" r="1" fill="white"><title>2020-03-27: 2</title></circle>
	<circle cx="50.00" cy="336.73" data-y="1.90" data-x="1585353600" r="1" fill="white"><title>2020-03-28: 2</title></circle>
	<circle cx="52.06" cy="335.26" data-y="1.97" data-x="1585440000" r="1" fill="white"><title>2020-03-29: 2</title></circle>
	<circle cx="54.12" cy="336.73" data-y="1.90" data-x="1585526400" r="1" fill="white"><title>2020-03-30: 2</title></circle>
	<circle cx="56.18" cy="336.73" data-y="1.90" data-x="1585612800" r="1" fill="white"><title>2020-03-31: 2</title></circle>
	<circle cx="58.24" cy="338.21" data-y="1.83" data-x="1585699200" r="1" fill="white"><title>2020-04-01: 2</title></circle>
	<circle cx="60.29" cy="339.68" data-y="1.75" data-x="1585785600" r="1" fill="white"><title>2020-04-02: 2</title></circle>
	<circle cx="62.35" cy="330.85" data-y="2.19" data-x="1585872000" r="1" fill="white"><title>2020-04-03: 2</title></circle>
	<circle cx="64.41" cy="320.54" data-y="2.70" data-x="1585958400" r="1" fill="white"><title>2020-04-04: 3</title></circle>
	<circle cx="66.47" cy="316.13" data-y="2.92" data-x="1586044800" r="1" fill="white"><title>2020-04-05: 3</title></circle>
	<circle cx="68.53" cy="305.83" data-y="3.43" data-x="1586131200" r="1" fill="white"><title>2020-04-06: 3</title></circle>
	<circle cx="70.59" cy="288.17" data-y="4.31" data-x="1586217600" r="1" fill="white"><title>2020-04-07: 4</title></circle>
	<circle cx="72.65" cy="274.92" data-y="4.96" data-x="1586304000" r="1" fill="white"><title>2020-04-08: 5</title></circle>
	<circle cx="74.71" cy="279.33" data-y="4.75" data-x="1586390400" r="1" fill="white"><title>2020-04-09: 5</title></circle>
	<circle cx="76.76" cy="286.69" data-y="4.38" data-x="1586476800" r="1" fill="white"><title>2020-04-10: 4</title></circle>
	<circle cx="78.82" cy="283.75" data-y="4.53" data-x="1586563200" r="1" fill="white"><title>2020-04-11: 5</title></circle>
	<circle cx="80.88" cy="283.75" data-y="4.53" data-x="1586649600" r="1" fill="white"><title>2020-04-12: 5</title></circle>
	<circle cx="82.94" cy="292.58" data-y="4.09" data-x="1586736000" r="1" fill="white"><title>2020-04-13: 4</title></circle>
	<circle cx="85.00" cy="307.30" data-y="3.36" data-x="1586822400" r="1" fill="white"><title>2020-04-14: 3</title></circle>
	<circle cx="87.06" cy="314.66" data-y="2.99" data-x="1586908800" r="1" fill="white"><title>2020-04-15: 3</title></circle>
	<circle cx="89.12" cy="302.88" data-y="3.58" data-x="1586995200" r="1" fill="white"><title>2020-04-16: 4</title></circle>
	<circle cx="91.18" cy="305.83" data-y="3.43" data-x="1587081600" r="1" fill="white"><title>2020-04-17: 3</title></circle>
	<circle cx="93.24" cy="311.71" data-y="3.14" data-x="1587168000" r="1" fill="white"><title>2020-04-18: 3</title></circle>
	<circle cx="95.29" cy="310.24" data-y="3.21" data-x="1587254400" r="1" fill="white"><title>2020-04-19: 3</title></circle>
	<circle cx="97.35" cy="308.77" data-y="3.29" data-x="1587340800" r="1" fill="white"><title>2020-04-20: 3</title></circle>
	<circle cx="99.41" cy="305.83" data-y="3.43" data-x="1587427200" r="1" fill="white"><title>2020-04-21: 3</title></circle>
	<circle cx="101.47" cy="308.77" data-y="3.29" data-x="1587513600" r="1" fill="white"><title>2020-04-22: 3</title></circle>
	<circle cx="103.53" cy="313.19" data-y="3.07" data-x="1587600000" r="1" fill="white"><title>2020-04-23: 3</title></circle>
	<circle cx="105.59" cy="313.19" data-y="3.07" data-x="1587686400" r="1" fill="white"><title>2020-04-24: 3</title></circle>
	<circle cx="107.65" cy="316.13" data-y="2.92" data-x="1587772800" r="1" fill="white"><title>2020-04-25: 3</title></circle>
	<circle cx="109.71" cy="317.60" data-y="2.85" data-x="1587859200" r="1" fill="white"><title>2020-04-26: 3</title></circle>
	<circle cx="111.76" cy="311.71" data-y="3.14" data-x="1587945600" r="1" fill="white"><title>2020-04-27: 3</title></circle>
	<circle cx="113.82" cy="314.66" data-y="2.99" data-x="1588032000" r="1" fill="white"><title>2020-04-28: 3</title></circle>
	<circle cx="115.88" cy="307.30" data-y="3.36" data-x="1588118400" r="1" fill="white"><title>2020-04-29: 3</title></circle>
	<circle cx="117.94" cy="311.71" data-y="3.14" data-x="1588204800" r="1" fill="white"><title>2020-04-30: 3</title></circle>
	<circle cx="120.00" cy="313.19" data-y="3.07" data-x="1588291200" r="1" fill="white"><title>2020-05-01: 3</title></circle>
	<circle cx="122.06" cy="311.71" data-y="3.14" data-x="1588377600" r="1" fill="white"><title>2020-05-02: 3</title></circle>
	<circle cx="124.12" cy="319.07" data-y="2.77" data-x="1588464000" r="1" fill="white"><title>2020-05-03: 3</title></circle>
	<circle cx="126.18" cy="330.85" data-y="2.19" data-x="1588550400" r="1" fill="white"><title>2020-05-04: 2</title></circle>
	<circle cx="128.24" cy="336.73" data-y="1.90" data-x="1588636800" r="1" fill="white"><title>2020-05-05: 2</title></circle>
	<circle cx="130.29" cy="348.51" data-y="1.31" data-x="1588723200" r="1" fill="white"><title>2020-05-06: 1</title></circle>
	<circle cx="132.35" cy="348.51" data-y="1.31" data-x="1588809600" r="1" fill="white"><title>2020-05-07: 1</title></circle>
	<circle cx="134.41" cy="342.62" data-y="1.61" data-x="1588896000" r="1" fill="white"><title>2020-05-08: 2</title></circle>
	<circle cx="136.47" cy="345.56" data-y="1.46" data-x="1588982400" r="1" fill="white"><title>2020-05-09: 1</title></circle>
	<circle cx="138.53" cy="348.51" data-y="1.31" data-x="1589068800" r="1" fill="white"><title>2020-05-10: 1</title></circle>
	<circle cx="140.59" cy="349.98" data-y="1.24" data-x="1589155200" r="1" fill="white"><title>2020-05-11: 1</title></circle>
	<circle cx="142.65" cy="352.92" data-y="1.10" data-x="1589241600" r="1" fill="white"><title>2020-05-12: 1</title></circle>
	<circle cx="144.71" cy="348.51" data-y="1.31" data-x="1589328000" r="1" fill="white"><title>2020-05-13: 1</title></circle>
	<circle cx="146.76" cy="349.98" data-y="1.24" data-x="1589414400" r="1" fill="white"><title>2020-05-14: 1</title></circle>
	<circle cx="148.82" cy="360.28" data-y="0.73" data-x="1589500800" r="1" fill="white"><title>2020-05-15: 1</title></circle>
	<circle cx="150.88" cy="363.23" data-y="0.58" data-x="1589587200" r="1" fill="white"><title>2020-05-16: 1</title></circle>
	<circle cx="152.94" cy="355.87" data-y="0.95" data-x="1589673600" r="1" fill="white"><title>2020-05-17: 1</title></circle>
	<circle cx="155.00" cy="349.98" data-y="1.24" data-x="1589760000" r="1" fill="white"><title>2020-05-18: 1</title></circle>
	<circle cx="157.06" cy="347.04" data-y="1.39" data-x="1589846400" r="1" fill="white"><title>2020-05-19: 1</title></circle>
	<circle cx="159.12" cy="349.98" data-y="1.24" data-x="1589932800" r="1" fill="white"><title>2020-05-20: 1</title></circle>
	<circle cx="161.18" cy="354.40" data-y="1.02" data-x="1590019200" r="1" fill="white"><title>2020-05-21: 1</title></circle>
	<circle cx="163.24" cy="352.92" data-y="1.10" data-x="1590105600" r="1" fill="white"><title>2020-05-22: 1</title></circle>
	<circle cx="165.29" cy="352.92" data-y="1.10" data-x="1590192000" r="1" fill="white"><title>2020-05-23: 1</title></circle>
	<circle cx="167.35" cy="358.81" data-y="0.80" data-x="1590278400" r="1" fill="white"><title>2020-05-24: 1</title></circle>
	<circle cx="169.41" cy="364.70" data-y="0.51" data-x="1590364800" r="1" fill="white"><title>2020-05-25: 1</title></circle>
	<circle cx="171.47" cy="366.17" data-y="0.44" data-x="1590451200" r="1" fill="white"><title>2020-05-26: 0</title></circle>
	<circle cx="173.53" cy="364.70" data-y="0.51" data-x="1590537600" r="1" fill="white"><title>2020-05-27: 1</title></circle>
	<circle cx="175.59" cy="360.28" data-y="0.73" data-x="1590624000" r="1" fill="white"><title>2020-05-28: 1</title></circle>
	<circle cx="177.65" cy="360.28" data-y="0.73" data-x="1590710400" r="1" fill="white"><title>2020-05-29: 1</title></circle>
	<circle cx="179.71" cy="360.28" data-y="0.73" data-x="1590796800" r="1" fill="white"><title>2020-05-30: 1</title></circle>
	<circle cx="181.76" cy="361.75" data-y="0.66" data-x="1590883200" r="1" fill="white"><title>2020-05-31: 1</title></circle>
	<circle cx="183.82" cy="363.23" data-y="0.58" data-x="1590969600" r="1" fill="white"><title>2020-06-01: 1</title></circle>
	<circle cx="185.88" cy="364.70" data-y="0.51" data-x="1591056000" r="1" fill="white"><title>2020-06-02: 1</title></circle>
	<circle cx="187.94" cy="367.64" data-y="0.37" data-x="1591142400" r="1" fill="white"><title>2020-06-03: 0</title></circle>
	<circle cx="190.00" cy="370.58" data-y="0.22" data-x="1591228800" r="1" fill="white"><title>2020-06-04: 0</title></circle>
	<circle cx="192.06" cy="372.06" data-y="0.15" data-x="1591315200" r="1" fill="white"><title>2020-06-05: 0</title></circle>
	<circle cx="194.12" cy="372.06" data-y="0.15" data-x="1591401600" r="1" fill="white"><title>2020-06-06: 0</title></circle>
	<circle cx="196.18" cy="373.53" data-y="0.07" data-x="1591488000" r="1" fill="white"><title>2020-06-07: 0</title></circle>
	<circle cx="198.24" cy="373.53" data-y="0.07" data-x="1591574400" r="1" fill="white"><title>2020-06-08: 0</title></circle>
	<circle cx="200.29" cy="373.53" data-y="0.07" data-x="1591660800" r="1" fill="white"><title>2020-06-09: 0</title></circle>
	<circle cx="202.35" cy="370.58" data-y="0.22" data-x="1591747200" r="1" fill="white"><title>2020-06-10: 0</title></circle>
	<circle cx="204.41" cy="372.06" data-y="0.15" data-x="1591833600" r="1" fill="white"><title>2020-06-11: 0</title></circle>
	<circle cx="206.47" cy="367.64" data-y="0.37" data-x="1591920000" r="1" fill="white"><title>2020-06-12: 0</title></circle>
	<circle cx="208.53" cy="367.64" data-y="0.37" data-x="1592006400" r="1" fill="white"><title>2020-06-13: 0</title></circle>
	<circle cx="210.59" cy="367.64" data-y="0.37" data-x="1592092800" r="1" fill="white"><title>2020-06-14: 0</title></circle>
	<circle cx="212.65" cy="367.64" data-y="0.37" data-x="1592179200" r="1" fill="white"><title>2020-06-15: 0</title></circle>
	<circle cx="214.71" cy="367.64" data-y="0.37" data-x="1592265600" r="1" fill="white"><title>2020-06-16: 0</title></circle>
	<circle cx="216.76" cy="370.58" data-y="0.22" data-x="1592352000" r="1" fill="white"><title>2020-06-17: 0</title></circle>
	<circle cx="218.82" cy="370.58" data-y="0.22" data-x="1592438400" r="1" fill="white"><title>2020-06-18: 0</title></circle>
	<circle cx="220.88" cy="375.00" data-y="0.00" data-x="1592524800" r="1" fill="white"><title>2020-06-19: 0</title></circle>
	<circle cx="222.94" cy="375.00" data-y="0.00" data-x="1592611200" r="1" fill="white"><title>2020-06-20: 0</title></circle>
	<circle cx="225.00" cy="375.00" data-y="0.00" data-x="1592697600" r="1" fill="white"><title>2020-06-21: 0</title></circle>
	<circle cx="227.06" cy="375.00" data-y="0.00" data-x="1592784000" r="1" fill="white"><title>2020-06-22: 0</title></circle>
	<circle cx="229.12" cy="375.00" data-y="0.00" data-x="1592870400" r="1" fill="white"><title>2020-06-23: 0</title></circle>
	<circle cx="231.18" cy="375.00" data-y="0.00" data-x="1592956800" r="1" fill="white"><title>2020-06-24: 0</title></circle>
	<circle cx="233.24" cy="375.00" data-y="0.00" data-x="1593043200" r="1" fill="white"><title>2020-06-25: 0</title></circle>
	<circle cx="235.29" cy="375.00" data-y="0.00" data-x="1593129600" r="1" fill="white"><title>2020-06-26: 0</title></circle>
	<circle cx="237.35" cy="375.00" data-y="0.00" data-x="1593216000" r="1" fill="white"><title>2020-06-27: 0</title></circle>
	<circle cx="239.41" cy="375.00" data-y="0.00" data-x="1593302400" r="1" fill="white"><title>2020-06-28: 0</title></circle>
	<circle cx="241.47" cy="375.00" data-y="0.00" data-x="1593388800" r="1" fill="white"><title>2020-06-29: 0</title></circle>
	<circle cx="243.53" cy="375.00" data-y="0.00" data-x="1593475200" r="1" fill="white"><title>2020-06-30: 0</title></circle>
	<circle cx="245.59" cy="375.00" data-y="0.00" data-x="1593561600" r="1" fill="white"><title>2020-07-01: 0</title></circle>
	<circle cx="247.65" cy="375.00" data-y="0.00" data-x="1593648000" r="1" fill="white"><title>2020-07-02: 0</title></circle>
	<circle cx="249.71" cy="375.00" data-y="0.00" data-x="1593734400" r="1" fill="white"><title>2020-07-03: 0</title></circle>
	<circle cx="251.76" cy="375.00" data-y="0.00" data-x="1593820800" r="1" fill="white"><title>2020-07-04: 0</title></circle>
	<circle cx="253.82" cy="373.53" data-y="0.07" data-x="1593907200" r="1" fill="white"><title>2020-07-05: 0</title></circle>
	<circle cx="255.88" cy="372.06" data-y="0.15" data-x="1593993600" r="1" fill="white"><title>2020-07-06: 0</title></circle>
	<circle cx="257.94" cy="372.06" data-y="0.15" data-x="1594080000" r="1" fill="white"><title>2020-07-07: 0</title></circle>
	<circle cx="260.00" cy="372.06" data-y="0.15" data-x="1594166400" r="1" fill="white"><title>2020-07-08: 0</title></circle>
	<circle cx="262.06" cy="372.06" data-y="0.15" data-x="1594252800" r="1" fill="white"><title>2020-07-09: 0</title></circle>
	<circle cx="264.12" cy="372.06" data-y="0.15" data-x="1594339200" r="1" fill="white"><title>2020-07-10: 0</title></circle>
	<circle cx="266.18" cy="372.06" data-y="0.15" data-x="1594425600" r="1" fill="white"><title>2020-07-11: 0</title></circle>
	<circle cx="268.24" cy="373.53" data-y="0.07" data-x="1594512000" r="1" fill="white"><title>2020-07-12: 0</title></circle>
	<circle cx="270.29" cy="372.06" data-y="0.15" data-x="1594598400" r="1" fill="white"><title>2020-07-13: 0</title></circle>
	<circle cx="272.35" cy="370.58" data-y="0.22" data-x="1594684800" r="1" fill="white"><title>2020-07-14: 0</title></circle>
	<circle cx="274.41" cy="370.58" data-y="0.22" data-x="1594771200" r="1" fill="white"><title>2020-07-15: 0</title></circle>
	<circle cx="276.47" cy="369.11" data-y="0.29" data-x="1594857600" r="1" fill="white"><title>2020-07-16: 0</title></circle>
	<circle cx="278.53" cy="367.64" data-y="0.37" data-x="1594944000" r="1" fill="white"><title>2020-07-17: 0</title></circle>
	<circle cx="280.59" cy="366.17" data-y="0.44" data-x="1595030400" r="1" fill="white"><title>2020-07-18: 0</title></circle>
	<circle cx="282.65" cy="366.17" data-y="0.44" data-x="1595116800" r="1" fill="white"><title>2020-07-19: 0</title></circle>
	<circle cx="284.71" cy="366.17" data-y="0.44" data-x="1595203200" r="1" fill="white"><title>2020-07-20: 0</title></circle>
	<circle cx="286.76" cy="366.17" data-y="0.44" data-x="1595289600" r="1" fill="white"><title>2020-07-21: 0</title></circle>
	<circle cx="288.82" cy="364.70" data-y="0.51" data-x="1595376000" r="1" fill="white"><title>2020-07-22: 1</title></circle>
	<circle cx="290.88" cy="366.17" data-y="0.44" data-x="1595462400" r="1" fill="white"><title>2020-07-23: 0</title></circle>
	<circle cx="292.94" cy="367.64" data-y="0.37" data-x="1595548800" r="1" fill="white"><title>2020-07-24: 0</title></circle>
	<circle cx="295.00" cy="369.11" data-y="0.29" data-x="1595635200" r="1" fill="white"><title>2020-07-25: 0</title></circle>
	<circle cx="297.06" cy="364.70" data-y="0.51" data-x="1595721600" r="1" fill="white"><title>2020-07-26: 1</title></circle>
	<circle cx="299.12" cy="366.17" data-y="0.44" data-x="1595808000" r="1" fill="white"><title>2020-07-27: 0</title></circle>
	<circle cx="301.18" cy="363.23" data-y="0.58" data-x="1595894400" r="1" fill="white"><title>2020-07-28: 1</title></circle>
	<circle cx="303.24" cy="364.70" data-y="0.51" data-x="1595980800" r="1" fill="white"><title>2020-07-29: 1</title></circle>
	<circle cx="305.29" cy="364.70" data-y="0.51" data-x="1596067200" r="1" fill="white"><title>2020-07-30: 1</title></circle>
	<circle cx="307.35" cy="363.23" data-y="0.58" data-x="1596153600" r="1" fill="white"><title>2020-07-31: 1</title></circle>
	<circle cx="309.41" cy="361.75" data-y="0.66" data-x="1596240000" r="1" fill="white"><title>2020-08-01: 1</title></circle>
	<circle cx="311.47" cy="366.17" data-y="0.44" data-x="1596326400" r="1" fill="white"><title>2020-08-02: 0</title></circle>
	<circle cx="313.53" cy="367.64" data-y="0.37" data-x="1596412800" r="1" fill="white"><title>2020-08-03: 0</title></circle>
	<circle cx="315.59" cy="370.58" data-y="0.22" data-x="1596499200" r="1" fill="white"><title>2020-08-04: 0</title></circle>
	<circle cx="317.65" cy="370.58" data-y="0.22" data-x="1596585600" r="1" fill="white"><title>2020-08-05: 0</title></circle>
	<circle cx="319.71" cy="370.58" data-y="0.22" data-x="1596672000" r="1" fill="white"><title>2020-08-06: 0</title></circle>
	<circle cx="321.76" cy="372.06" data-y="0.15" data-x="1596758400" r="1" fill="white"><title>2020-08-07: 0</title></circle>
	<circle cx="323.82" cy="370.58" data-y="0.22" data-x="1596844800" r="1" fill="white"><title>2020-08-08: 0</title></circle>
	<circle cx="325.88" cy="369.11" data-y="0.29" data-x="1596931200" r="1" fill="white"><title>2020-08-09: 0</title></circle>
	<circle cx="327.94" cy="367.64" data-y="0.37" data-x="1597017600" r="1" fill="white"><title>2020-08-10: 0</title></circle>
	<circle cx="330.00" cy="360.28" data-y="0.73" data-x="1597104000" r="1" fill="white"><title>2020-08-11: 1</title></circle>
	<circle cx="332.06" cy="360.28" data-y="0.73" data-x="1597190400" r="1" fill="white"><title>2020-08-12: 1</title></circle>
	<circle cx="334.12" cy="360.28" data-y="0.73" data-x="1597276800" r="1" fill="white"><title>2020-08-13: 1</title></circle>
	<circle cx="336.18" cy="358.81" data-y="0.80" data-x="1597363200" r="1" fill="white"><title>2020-08-14: 1</title></circle>
	<circle cx="338.24" cy="357.34" data-y="0.88" data-x="1597449600" r="1" fill="white"><title>2020-08-15: 1</title></circle>
	<circle cx="340.29" cy="348.51" data-y="1.31" data-x="1597536000" r="1" fill="white"><title>2020-08-16: 1</title></circle>
	<circle cx="342.35" cy="335.26" data-y="1.97" data-x="1597622400" r="1" fill="white"><title>2020-08-17: 2</title></circle>
	<circle cx="344.41" cy="333.79" data-y="2.04" data-x="1597708800" r="1" fill="white"><title>2020-08-18: 2</title></circle>
	<circle cx="346.47" cy="330.85" data-y="2.19" data-x="1597795200" r="1" fill="white"><title>2020-08-19: 2</title></circle>
	<circle cx="348.53" cy="330.85" data-y="2.19" data-x="1597881600" r="1" fill="white"><title>2020-08-20: 2</title></circle>
	<circle cx="350.59" cy="326.43" data-y="2.41" data-x="1597968000" r="1" fill="white"><title>2020-08-21: 2</title></circle>
	<circle cx="352.65" cy="329.38" data-y="2.26" data-x="1598054400" r="1" fill="white"><title>2020-08-22: 2</title></circle>
	<circle cx="354.71" cy="333.79" data-y="2.04" data-x="1598140800" r="1" fill="white"><title>2020-08-23: 2</title></circle>
	<circle cx="356.76" cy="341.15" data-y="1.68" data-x="1598227200" r="1" fill="white"><title>2020-08-24: 2</title></circle>
	<circle cx="358.82" cy="351.45" data-y="1.17" data-x="1598313600" r="1" fill="white"><title>2020-08-25: 1</title></circle>
	<circle cx="360.88" cy="354.40" data-y="1.02" data-x="1598400000" r="1" fill="white"><title>2020-08-26: 1</title></circle>
	<circle cx="362.94" cy="352.92" data-y="1.10" data-x="1598486400" r="1" fill="white"><title>2020-08-27: 1</title></circle>
	<circle cx="365.00" cy="354.40" data-y="1.02" data-x="1598572800" r="1" fill="white"><title>2020-08-28: 1</title></circle>
	<circle cx="367.06" cy="347.04" data-y="1.39" data-x="1598659200" r="1" fill="white"><title>2020-08-29: 1</title></circle>
	<circle cx="369.12" cy="345.56" data-y="1.46" data-x="1598745600" r="1" fill="white"><title>2020-08-30: 1</title></circle>
	<circle cx="371.18" cy="344.09" data-y="1.53" data-x="1598832000" r="1" fill="white"><title>2020-08-31: 2</title></circle>
	<circle cx="373.24" cy="341.15" data-y="1.68" data-x="1598918400" r="1" fill="white"><title>2020-09-01: 2</title></circle>
	<circle cx="375.29" cy="335.26" data-y="1.97" data-x="1599004800" r="1" fill="white"><title>2020-09-02: 2</title></circle>
	<circle cx="377.35" cy="324.96" data-y="2.48" data-x="1599091200" r="1" fill="white"><title>2020-09-03: 2</title></circle>
	<circle cx="379.41" cy="327.90" data-y="2.34" data-x="1599177600" r="1" fill="white"><title>2020-09-04: 2</title></circle>
	<circle cx="381.47" cy="330.85" data-y="2.19" data-x="1599264000" r="1" fill="white"><title>2020-09-05: 2</title></circle>
	<circle cx="383.53" cy="330.85" data-y="2.19" data-x="1599350400" r="1" fill="white"><title>2020-09-06: 2</title></circle>
	<circle cx="385.59" cy="339.68" data-y="1.75" data-x="1599436800" r="1" fill="white"><title>2020-09-07: 2</title></circle>
	<circle cx="387.65" cy="338.21" data-y="1.83" data-x="1599523200" r="1" fill="white"><title>2020-09-08: 2</title></circle>
	<circle cx="389.71" cy="342.62" data-y="1.61" data-x="1599609600" r="1" fill="white"><title>2020-09-09: 2</title></circle>
	<circle cx="391.76" cy="354.40" data-y="1.02" data-x="1599696000" r="1" fill="white"><title>2020-09-10: 1</title></circle>
	<circle cx="393.82" cy="348.51" data-y="1.31" data-x="1599782400" r="1" fill="white"><title>2020-09-11: 1</title></circle>
	<circle cx="395.88" cy="348.51" data-y="1.31" data-x="1599868800" r="1" fill="white"><title>2020-09-12: 1</title></circle>
	<circle cx="397.94" cy="349.98" data-y="1.24" data-x="1599955200" r="1" fill="white"><title>2020-09-13: 1</title></circle>
	<circle cx="400.00" cy="345.56" data-y="1.46" data-x="1600041600" r="1" fill="white"><title>2020-09-14: 1</title></circle>
	<circle cx="402.06" cy="345.56" data-y="1.46" data-x="1600128000" r="1" fill="white"><title>2020-09-15: 1</title></circle>
	<circle cx="404.12" cy="339.68" data-y="1.75" data-x="1600214400" r="1" fill="white"><title>2020-09-16: 2</title></circle>
	<circle cx="406.18" cy="333.79" data-y="2.04" data-x="1600300800" r="1" fill="white"><title>2020-09-17: 2</title></circle>
	<circle cx="408.24" cy="329.38" data-y="2.26" data-x="1600387200" r="1" fill="white"><title>2020-09-18: 2</title></circle>
	<circle cx="410.29" cy="322.02" data-y="2.63" data-x="1600473600" r="1" fill="white"><title>2020-09-19: 3</title></circle>
	<circle cx="412.35" cy="316.13" data-y="2.92" data-x="1600560000" r="1" fill="white"><title>2020-09-20: 3</title></circle>
	<circle cx="414.41" cy="304.35" data-y="3.50" data-x="1600646400" r="1" fill="white"><title>2020-09-21: 4</title></circle>
	<circle cx="416.47" cy="288.17" data-y="4.31" data-x="1600732800" r="1" fill="white"><title>2020-09-22: 4</title></circle>
	<circle cx="418.53" cy="280.81" data-y="4.67" data-x="1600819200" r="1" fill="white"><title>2020-09-23: 5</title></circle>
	<circle cx="420.59" cy="269.03" data-y="5.26" data-x="1600905600" r="1" fill="white"><title>2020-09-24: 5</title></circle>
	<circle cx="422.65" cy="261.67" data-y="5.62" data-x="1600992000" r="1" fill="white"><title>2020-09-25: 6</title></circle>
	<circle cx="424.71" cy="258.73" data-y="5.77" data-x="1601078400" r="1" fill="white"><title>2020-09-26: 6</title></circle>
	<circle cx="426.76" cy="246.96" data-y="6.35" data-x="1601164800" r="1" fill="white"><title>2020-09-27: 6</title></circle>
	<circle cx="428.82" cy="236.65" data-y="6.86" data-x="1601251200" r="1" fill="white"><title>2020-09-28: 7</title></circle>
	<circle cx="430.88" cy="216.05" data-y="7.88" data-x="1601337600" r="1" fill="white"><title>2020-09-29: 8</title></circle>
	<circle cx="432.94" cy="191.03" data-y="9.13" data-x="1601424000" r="1" fill="white"><title>2020-09-30: 9</title></circle>
	<circle cx="435.00" cy="182.20" data-y="9.56" data-x="1601510400" r="1" fill="white"><title>2020-10-01: 10</title></circle>
	<circle cx="437.06" cy="167.48" data-y="10.29" data-x="1601596800" r="1" fill="white"><title>2020-10-02: 10</title></circle>
	<circle cx="439.12" cy="154.23" data-y="10.95" data-x="1601683200" r="1" fill="white"><title>2020-10-03: 11</title></circle>
	<circle cx="441.18" cy="115.97" data-y="12.85" data-x="1601769600" r="1" fill="white"><title>2020-10-04: 13</title></circle>
	<circle cx="443.24" cy="82.12" data-y="14.53" data-x="1601856000" r="1" fill="white"><title>2020-10-05: 15</title></circle>
	<circle cx="445.29" cy="58.57" data-y="15.70" data-x="1601942400" r="1" fill="white"><title>2020-10-06: 16</title></circle>
	<circle cx="447.35" cy="45.32" data-y="16.35" data-x="1602028800" r="1" fill="white"><title>2020-10-07: 16</title></circle>
	<circle cx="449.41" cy="33.55" data-y="16.94" data-x="1602115200" r="1" fill="white"><title>2020-10-08: 17</title></circle>
	<circle cx="451.47" cy="27.66" data-y="17.23" data-x="1602201600" r="1" fill="white"><title>2020-10-09: 17</title></circle>
	<circle cx="453.53" cy="10.00" data-y="18.10" data-x="1602288000" r="1" fill="white"><title>2020-10-10: 18</title></circle>
	<circle cx="455.59" cy="20.30" data-y="17.59" data-x="1602374400" r="1" fill="white"><title>2020-10-11: 18</title></circle>
	<circle cx="457.65" cy="52.68" data-y="15.99" data-x="1602460800" r="1" fill="white"><title>2020-10-12: 16</title></circle>
	<circle cx="459.71" cy="95.36" data-y="13.87" data-x="1602547200" r="1" fill="white"><title>2020-10-13: 14</title></circle>
</g>
<g data-series="recent-cases" class="data-series">
	<path d="M 459.71,95.36L 461.76,143.93L 463.82,182.20L 465.88,196.42L 467.94,226.65L 470.00,279.70" id="Recent cases" class="line" stroke-width="1" stroke-linecap="round" stroke-dasharray="4,6"><title>Recent cases</title></path>
</g>
</svg>
