<svg width="480" height="400" viewBox="0 0 480 400" xmlns="http://www.w3.org/2000/svg" style="overflow:display" preserveAspectRatio="xMinYMin meet" overflow="visible">
<defs>
	<style>
	.data-series path.line { fill-opacity: 0; stroke: black; }
	.data-series path.line.dotted { stroke-dasharray: 12 20 }
	.data-series:hover path.line, .data-series.on path.line { stroke-width: 1; }
	.data-series:hover circle, .data-series.on circle { display: inline; }
	.graph-grid { font-family: "Helvetica Neue",Helvetica,Arial,"Lucida Grande",sans-serif; }
	.graph-grid line { stroke: black; stroke-width: 1; stroke-linecap: round; }
	.graph-grid.graph-grid-x text { text-anchor: middle; dominant-baseline: hanging; transform: translateY(10px); }
	.graph-grid.graph-grid-y text { text-anchor: end; dominant-baseline: middle; transform: translateX(-10px); }
	</style>
</defs>
<g class="graph-grid graph-grid-y">
	<line x1="25.00" y1="375.00" x2="470.00" y2="375.00" data-left="25"></line>
	<text x="35" y="375" text-anchor="end">0</text>
	<text x="35" y="224.211765545362" text-anchor="end">20</text>
	<text x="35" y="73.4235310907238" text-anchor="end">40</text>
	<text style="text-anchor:middle;dominant-baseline:hanging;font-weight:bold;transform: translateY(192.5px) rotate(-90deg);"></text>
</g>
<g class="graph-grid graph-grid-x">
	<line class="tick" x1="67.55" y1="375.00" x2="67.55" y2="380.00"></line>
	<text x="67.5498007968127" y="375" text-anchor="middle">A</text>
	<line class="tick" x1="120.74" y1="375.00" x2="120.74" y2="380.00"></line>
	<text x="120.737051792829" y="375" text-anchor="middle">M</text>
	<line class="tick" x1="175.70" y1="375.00" x2="175.70" y2="380.00"></line>
	<text x="175.697211155378" y="375" text-anchor="middle">J</text>
	<line class="tick" x1="228.88" y1="375.00" x2="228.88" y2="380.00"></line>
	<text x="228.884462151394" y="375" text-anchor="middle">J</text>
	<line class="tick" x1="283.84" y1="375.00" x2="283.84" y2="380.00"></line>
	<text x="283.844621513944" y="375" text-anchor="middle">A</text>
	<line class="tick" x1="338.80" y1="375.00" x2="338.80" y2="380.00"></line>
	<text x="338.804780876494" y="375" text-anchor="middle">S</text>
	<line class="tick" x1="391.99" y1="375.00" x2="391.99" y2="380.00"></line>
	<text x="391.99203187251" y="375" text-anchor="middle">O</text>
	<line class="tick" x1="446.95" y1="375.00" x2="446.95" y2="380.00"></line>
	<text x="446.95219123506" y="375" text-anchor="middle">N</text>
	<text style="text-anchor:middle;dominant-baseline:hanging;font-weight:bold;transform: translateY(192.5px) rotate(-90deg);"></text>
</g>
<g data-series="widespread" class="data-series">
	<path d="M 25.00,322.22L 470.00,322.22" id="E06000025-level-0" class="line" stroke-width="1" stroke-linecap="round" stroke-dasharray="3,3" fill-opacity="0.3" opacity="0.3"><title>Widespread</title></path>
</g>
<g data-series="substantial" class="data-series">
	<path d="M 25.00,344.84L 470.00,344.84" id="E06000025-level-1" class="line" stroke-width="1" stroke-linecap="round" stroke-dasharray="3,3" fill-opacity="0.3" opacity="0.3"><title>Substantial</title></path>
</g>
<g data-series="moderate" class="data-series">
	<path d="M 25.00,367.46L 470.00,367.46" id="E06000025-level-2" class="line" stroke-width="1" stroke-linecap="round" stroke-dasharray="3,3" fill-opacity="0.3" opacity="0.3"><title>Moderate</title></path>
</g>
<g data-series="new-cases" class="data-series">
	<path d="M 25.00,371.09L 26.77,370.31L 28.55,369.79L 30.32,370.54L 32.09,370.54L 33.86,371.28L 35.64,370.91L 37.41,371.28L 39.18,372.02L 40.96,373.14L 42.73,372.02L 44.50,371.28L 46.27,368.30L 48.05,366.81L 49.82,362.72L 51.59,361.61L 53.37,359.37L 55.14,357.51L 56.91,355.28L 58.69,352.68L 60.46,350.82L 62.23,353.42L 64.00,351.56L 65.78,349.70L 67.55,349.33L 69.32,348.96L 71.10,350.82L 72.87,351.19L 74.64,343.00L 76.41,341.51L 78.19,343.37L 79.96,344.49L 81.73,346.72L 83.51,349.70L 85.28,350.07L 87.05,353.42L 88.82,356.02L 90.60,355.65L 92.37,354.54L 94.14,351.93L 95.92,346.35L 97.69,342.26L 99.46,340.77L 101.24,336.30L 103.01,329.98L 104.78,325.89L 106.55,327.00L 108.33,324.77L 110.10,326.26L 111.87,322.54L 113.65,323.28L 115.42,328.49L 117.19,332.96L 118.96,329.24L 120.74,335.93L 122.51,340.03L 124.28,349.33L 126.06,351.93L 127.83,351.56L 129.60,352.30L 131.37,356.40L 133.15,354.91L 134.92,351.56L 136.69,351.56L 138.47,352.68L 140.24,353.42L 142.01,351.56L 143.78,352.68L 145.56,348.21L 147.33,349.70L 149.10,351.19L 150.88,350.44L 152.65,353.42L 154.42,357.14L 156.20,357.88L 157.97,365.33L 159.74,367.93L 161.51,367.93L 163.29,370.54L 165.06,370.16L 166.83,369.79L 168.61,369.79L 170.38,369.42L 172.15,368.30L 173.92,367.56L 175.70,366.44L 177.47,366.44L 179.24,367.19L 181.02,367.93L 182.79,368.30L 184.56,369.42L 186.33,371.65L 188.11,372.77L 189.88,372.02L 191.65,372.02L 193.43,372.02L 195.20,372.40L 196.97,373.14L 198.75,373.14L 200.52,373.14L 202.29,374.63L 204.06,374.63L 205.84,374.63L 207.61,374.26L 209.38,374.26L 211.16,374.26L 212.93,374.63L 214.70,374.26L 216.47,374.26L 218.25,374.26L 220.02,374.63L 221.79,374.26L 223.57,373.88L 225.34,373.88L 227.11,374.26L 228.88,373.88L 230.66,373.14L 232.43,373.14L 234.20,373.51L 235.98,373.51L 237.75,373.51L 239.52,373.51L 241.29,373.88L 243.07,374.63L 244.84,373.88L 246.61,373.51L 248.39,373.51L 250.16,373.51L 251.93,372.77L 253.71,372.77L 255.48,372.77L 257.25,373.14L 259.02,372.40L 260.80,372.77L 262.57,372.77L 264.34,373.14L 266.12,372.77L 267.89,372.40L 269.66,372.77L 271.43,372.40L 273.21,372.40L 274.98,371.65L 276.75,372.02L 278.53,372.02L 280.30,372.02L 282.07,370.91L 283.84,372.02L 285.62,370.91L 287.39,371.65L 289.16,370.91L 290.94,369.79L 292.71,370.16L 294.48,370.91L 296.25,371.28L 298.03,372.02L 299.80,371.28L 301.57,371.28L 303.35,372.40L 305.12,372.40L 306.89,372.02L 308.67,370.54L 310.44,369.79L 312.21,366.81L 313.98,365.70L 315.76,363.84L 317.53,363.47L 319.30,362.35L 321.08,361.98L 322.85,362.35L 324.62,364.58L 326.39,363.84L 328.17,364.95L 329.94,365.33L 331.71,365.70L 333.49,364.95L 335.26,363.47L 337.03,363.09L 338.80,363.09L 340.58,361.98L 342.35,360.86L 344.12,358.63L 345.90,360.49L 347.67,361.23L 349.44,361.61L 351.22,360.12L 352.99,360.86L 354.76,359.37L 356.53,360.12L 358.31,357.51L 360.08,356.40L 361.85,355.65L 363.63,358.63L 365.40,358.63L 367.17,357.51L 368.94,358.63L 370.72,360.12L 372.49,358.26L 374.26,355.65L 376.04,351.93L 377.81,348.58L 379.58,349.33L 381.35,341.14L 383.13,334.44L 384.90,329.24L 386.67,325.14L 388.45,321.05L 390.22,320.68L 391.99,313.24L 393.76,312.49L 395.54,308.77L 397.31,303.56L 399.08,295.75L 400.86,290.91L 402.63,283.10L 404.40,281.24L 406.18,274.54L 407.95,265.24L 409.72,263.38L 411.49,262.64L 413.27,256.31L 415.04,255.57L 416.81,249.61L 418.59,237.33L 420.36,221.71L 422.13,200.87L 423.90,180.78L 425.68,160.32L 427.45,152.50L 429.22,143.20L 431.00,124.23L 432.77,110.09L 434.54,105.99L 436.31,89.25L 438.09,84.79L 439.86,78.09L 441.63,75.48L 443.41,57.62L 445.18,59.86L 446.95,49.81L 448.73,47.58L 450.50,37.53L 452.27,23.02L 454.04,10.00L 455.82,15.58L 457.59,12.60L 459.36,14.09L 461.14,22.28" id="New cases" class="line" stroke-width="1" stroke-linecap="round"><title>New cases</title></path>
	<circle cx="25.00" cy="371.09" data-y="0.52" data-x="1583625600" r="1" fill="white"><title>2020-03-08: 1</title></circle>
	<circle cx="26.77" cy="370.31" data-y="0.62" data-x="1583712000" r="1" fill="white"><title>2020-03-09: 1</title></circle>
	<circle cx="28.55" cy="369.79" data-y="0.69" data-x="1583798400" r="1" fill="white"><title>2020-03-10: 1</title></circle>
	<circle cx="30.32" cy="370.54" data-y="0.59" data-x="1583884800" r="1" fill="white"><title>2020-03-11: 1</title></circle>
	<circle cx="32.09" cy="370.54" data-y="0.59" data-x="1583971200" r="1" fill="white"><title>2020-03-12: 1</title></circle>
	<circle cx="33.86" cy="371.28" data-y="0.49" data-x="1584057600" r="1" fill="white"><title>2020-03-13: 0</title></circle>
	<circle cx="35.64" cy="370.91" data-y="0.54" data-x="1584144000" r="1" fill="white"><title>2020-03-14: 1</title></circle>
	<circle cx="37.41" cy="371.28" data-y="0.49" data-x="1584230400" r="1" fill="white"><title>2020-03-15: 0</title></circle>
	<circle cx="39.18" cy="372.02" data-y="0.39" data-x="1584316800" r="1" fill="white"><title>2020-03-16: 0</title></circle>
	<circle cx="40.96" cy="373.14" data-y="0.25" data-x="1584403200" r="1" fill="white"><title>2020-03-17: 0</title></circle>
	<circle cx="42.73" cy="372.02" data-y="0.39" data-x="1584489600" r="1" fill="white"><title>2020-03-18: 0</title></circle>
	<circle cx="44.50" cy="371.28" data-y="0.49" data-x="1584576000" r="1" fill="white"><title>2020-03-19: 0</title></circle>
	<circle cx="46.27" cy="368.30" data-y="0.89" data-x="1584662400" r="1" fill="white"><title>2020-03-20: 1</title></circle>
	<circle cx="48.05" cy="366.81" data-y="1.09" data-x="1584748800" r="1" fill="white"><title>2020-03-21: 1</title></circle>
	<circle cx="49.82" cy="362.72" data-y="1.63" data-x="1584835200" r="1" fill="white"><title>2020-03-22: 2</title></circle>
	<circle cx="51.59" cy="361.61" data-y="1.78" data-x="1584921600" r="1" fill="white"><title>2020-03-23: 2</title></circle>
	<circle cx="53.37" cy="359.37" data-y="2.07" data-x="1585008000" r="1" fill="white"><title>2020-03-24: 2</title></circle>
	<circle cx="55.14" cy="357.51" data-y="2.32" data-x="1585094400" r="1" fill="white"><title>2020-03-25: 2</title></circle>
	<circle cx="56.91" cy="355.28" data-y="2.62" data-x="1585180800" r="1" fill="white"><title>2020-03-26: 3</title></circle>
	<circle cx="58.69" cy="352.68" data-y="2.96" data-x="1585267200" r="1" fill="white"><title>2020-03-27: 3</title></circle>
	<circle cx="60.46" cy="350.82" data-y="3.21" data-x="1585353600" r="1" fill="white"><title>2020-03-28: 3</title></circle>
	<circle cx="62.23" cy="353.42" data-y="2.86" data-x="1585440000" r="1" fill="white"><title>2020-03-29: 3</title></circle>
	<circle cx="64.00" cy="351.56" data-y="3.11" data-x="1585526400" r="1" fill="white"><title>2020-03-30: 3</title></circle>
	<circle cx="65.78" cy="349.70" data-y="3.36" data-x="1585612800" r="1" fill="white"><title>2020-03-31: 3</title></circle>
	<circle cx="67.55" cy="349.33" data-y="3.41" data-x="1585699200" r="1" fill="white"><title>2020-04-01: 3</title></circle>
	<circle cx="69.32" cy="348.96" data-y="3.45" data-x="1585785600" r="1" fill="white"><title>2020-04-02: 3</title></circle>
	<circle cx="71.10" cy="350.82" data-y="3.21" data-x="1585872000" r="1" fill="white"><title>2020-04-03: 3</title></circle>
	<circle cx="72.87" cy="351.19" data-y="3.16" data-x="1585958400" r="1" fill="white"><title>2020-04-04: 3</title></circle>
	<circle cx="74.64" cy="343.00" data-y="4.24" data-x="1586044800" r="1" fill="white"><title>2020-04-05: 4</title></circle>
	<circle cx="76.41" cy="341.51" data-y="4.44" data-x="1586131200" r="1" fill="white"><title>2020-04-06: 4</title></circle>
	<circle cx="78.19" cy="343.37" data-y="4.19" data-x="1586217600" r="1" fill="white"><title>2020-04-07: 4</title></circle>
	<circle cx="79.96" cy="344.49" data-y="4.05" data-x="1586304000" r="1" fill="white"><title>2020-04-08: 4</title></circle>
	<circle cx="81.73" cy="346.72" data-y="3.75" data-x="1586390400" r="1" fill="white"><title>2020-04-09: 4</title></circle>
	<circle cx="83.51" cy="349.70" data-y="3.36" data-x="1586476800" r="1" fill="white"><title>2020-04-10: 3</title></circle>
	<circle cx="85.28" cy="350.07" data-y="3.31" data-x="1586563200" r="1" fill="white"><title>2020-04-11: 3</title></circle>
	<circle cx="87.05" cy="353.42" data-y="2.86" data-x="1586649600" r="1" fill="white"><title>2020-04-12: 3</title></circle>
	<circle cx="88.82" cy="356.02" data-y="2.52" data-x="1586736000" r="1" fill="white"><title>2020-04-13: 3</title></circle>
	<circle cx="90.60" cy="355.65" data-y="2.57" data-x="1586822400" r="1" fill="white"><title>2020-04-14: 3</title></circle>
	<circle cx="92.37" cy="354.54" data-y="2.71" data-x="1586908800" r="1" fill="white"><title>2020-04-15: 3</title></circle>
	<circle cx="94.14" cy="351.93" data-y="3.06" data-x="1586995200" r="1" fill="white"><title>2020-04-16: 3</title></circle>
	<circle cx="95.92" cy="346.35" data-y="3.80" data-x="1587081600" r="1" fill="white"><title>2020-04-17: 4</title></circle>
	<circle cx="97.69" cy="342.26" data-y="4.34" data-x="1587168000" r="1" fill="white"><title>2020-04-18: 4</title></circle>
	<circle cx="99.46" cy="340.77" data-y="4.54" data-x="1587254400" r="1" fill="white"><title>2020-04-19: 5</title></circle>
	<circle cx="101.24" cy="336.30" data-y="5.13" data-x="1587340800" r="1" fill="white"><title>2020-04-20: 5</title></circle>
	<circle cx="103.01" cy="329.98" data-y="5.97" data-x="1587427200" r="1" fill="white"><title>2020-04-21: 6</title></circle>
	<circle cx="104.78" cy="325.89" data-y="6.51" data-x="1587513600" r="1" fill="white"><title>2020-04-22: 7</title></circle>
	<circle cx="106.55" cy="327.00" data-y="6.37" data-x="1587600000" r="1" fill="white"><title>2020-04-23: 6</title></circle>
	<circle cx="108.33" cy="324.77" data-y="6.66" data-x="1587686400" r="1" fill="white"><title>2020-04-24: 7</title></circle>
	<circle cx="110.10" cy="326.26" data-y="6.46" data-x="1587772800" r="1" fill="white"><title>2020-04-25: 6</title></circle>
	<circle cx="111.87" cy="322.54" data-y="6.96" data-x="1587859200" r="1" fill="white"><title>2020-04-26: 7</title></circle>
	<circle cx="113.65" cy="323.28" data-y="6.86" data-x="1587945600" r="1" fill="white"><title>2020-04-27: 7</title></circle>
	<circle cx="115.42" cy="328.49" data-y="6.17" data-x="1588032000" r="1" fill="white"><title>2020-04-28: 6</title></circle>
	<circle cx="117.19" cy="332.96" data-y="5.58" data-x="1588118400" r="1" fill="white"><title>2020-04-29: 6</title></circle>
	<circle cx="118.96" cy="329.24" data-y="6.07" data-x="1588204800" r="1" fill="white"><title>2020-04-30: 6</title></circle>
	<circle cx="120.74" cy="335.93" data-y="5.18" data-x="1588291200" r="1" fill="white"><title>2020-05-01: 5</title></circle>
	<circle cx="122.51" cy="340.03" data-y="4.64" data-x="1588377600" r="1" fill="white"><title>2020-05-02: 5</title></circle>
	<circle cx="124.28" cy="349.33" data-y="3.41" data-x="1588464000" r="1" fill="white"><title>2020-05-03: 3</title></circle>
	<circle cx="126.06" cy="351.93" data-y="3.06" data-x="1588550400" r="1" fill="white"><title>2020-05-04: 3</title></circle>
	<circle cx="127.83" cy="351.56" data-y="3.11" data-x="1588636800" r="1" fill="white"><title>2020-05-05: 3</title></circle>
	<circle cx="129.60" cy="352.30" data-y="3.01" data-x="1588723200" r="1" fill="white"><title>2020-05-06: 3</title></circle>
	<circle cx="131.37" cy="356.40" data-y="2.47" data-x="1588809600" r="1" fill="white"><title>2020-05-07: 2</title></circle>
	<circle cx="133.15" cy="354.91" data-y="2.66" data-x="1588896000" r="1" fill="white"><title>2020-05-08: 3</title></circle>
	<circle cx="134.92" cy="351.56" data-y="3.11" data-x="1588982400" r="1" fill="white"><title>2020-05-09: 3</title></circle>
	<circle cx="136.69" cy="351.56" data-y="3.11" data-x="1589068800" r="1" fill="white"><title>2020-05-10: 3</title></circle>
	<circle cx="138.47" cy="352.68" data-y="2.96" data-x="1589155200" r="1" fill="white"><title>2020-05-11: 3</title></circle>
	<circle cx="140.24" cy="353.42" data-y="2.86" data-x="1589241600" r="1" fill="white"><title>2020-05-12: 3</title></circle>
	<circle cx="142.01" cy="351.56" data-y="3.11" data-x="1589328000" r="1" fill="white"><title>2020-05-13: 3</title></circle>
	<circle cx="143.78" cy="352.68" data-y="2.96" data-x="1589414400" r="1" fill="white"><title>2020-05-14: 3</title></circle>
	<circle cx="145.56" cy="348.21" data-y="3.55" data-x="1589500800" r="1" fill="white"><title>2020-05-15: 4</title></circle>
	<circle cx="147.33" cy="349.70" data-y="3.36" data-x="1589587200" r="1" fill="white"><title>2020-05-16: 3</title></circle>
	<circle cx="149.10" cy="351.19" data-y="3.16" data-x="1589673600" r="1" fill="white"><title>2020-05-17: 3</title></circle>
	<circle cx="150.88" cy="350.44" data-y="3.26" data-x="1589760000" r="1" fill="white"><title>2020-05-18: 3</title></circle>
	<circle cx="152.65" cy="353.42" data-y="2.86" data-x="1589846400" r="1" fill="white"><title>2020-05-19: 3</title></circle>
	<circle cx="154.42" cy="357.14" data-y="2.37" data-x="1589932800" r="1" fill="white"><title>2020-05-20: 2</title></circle>
	<circle cx="156.20" cy="357.88" data-y="2.27" data-x="1590019200" r="1" fill="white"><title>2020-05-21: 2</title></circle>
	<circle cx="157.97" cy="365.33" data-y="1.28" data-x="1590105600" r="1" fill="white"><title>2020-05-22: 1</title></circle>
	<circle cx="159.74" cy="367.93" data-y="0.94" data-x="1590192000" r="1" fill="white"><title>2020-05-23: 1</title></circle>
	<circle cx="161.51" cy="367.93" data-y="0.94" data-x="1590278400" r="1" fill="white"><title>2020-05-24: 1</title></circle>
	<circle cx="163.29" cy="370.54" data-y="0.59" data-x="1590364800" r="1" fill="white"><title>2020-05-25: 1</title></circle>
	<circle cx="165.06" cy="370.16" data-y="0.64" data-x="1590451200" r="1" fill="white"><title>2020-05-26: 1</title></circle>
	<circle cx="166.83" cy="369.79" data-y="0.69" data-x="1590537600" r="1" fill="white"><title>2020-05-27: 1</title></circle>
	<circle cx="168.61" cy="369.79" data-y="0.69" data-x="1590624000" r="1" fill="white"><title>2020-05-28: 1</title></circle>
	<circle cx="170.38" cy="369.42" data-y="0.74" data-x="1590710400" r="1" fill="white"><title>2020-05-29: 1</title></circle>
	<circle cx="172.15" cy="368.30" data-y="0.89" data-x="1590796800" r="1" fill="white"><title>2020-05-30: 1</title></circle>
	<circle cx="173.92" cy="367.56" data-y="0.99" data-x="1590883200" r="1" fill="white"><title>2020-05-31: 1</title></circle>
	<circle cx="175.70" cy="366.44" data-y="1.14" data-x="1590969600" r="1" fill="white"><title>2020-06-01: 1</title></circle>
	<circle cx="177.47" cy="366.44" data-y="1.14" data-x="1591056000" r="1" fill="white"><title>2020-06-02: 1</title></circle>
	<circle cx="179.24" cy="367.19" data-y="1.04" data-x="1591142400" r="1" fill="white"><title>2020-06-03: 1</title></circle>
	<circle cx="181.02" cy="367.93" data-y="0.94" data-x="1591228800" r="1" fill="white"><title>2020-06-04: 1</title></circle>
	<circle cx="182.79" cy="368.30" data-y="0.89" data-x="1591315200" r="1" fill="white"><title>2020-06-05: 1</title></circle>
	<circle cx="184.56" cy="369.42" data-y="0.74" data-x="1591401600" r="1" fill="white"><title>2020-06-06: 1</title></circle>
	<circle cx="186.33" cy="371.65" data-y="0.44" data-x="1591488000" r="1" fill="white"><title>2020-06-07: 0</title></circle>
	<circle cx="188.11" cy="372.77" data-y="0.30" data-x="1591574400" r="1" fill="white"><title>2020-06-08: 0</title></circle>
	<circle cx="189.88" cy="372.02" data-y="0.39" data-x="1591660800" r="1" fill="white"><title>2020-06-09: 0</title></circle>
	<circle cx="191.65" cy="372.02" data-y="0.39" data-x="1591747200" r="1" fill="white"><title>2020-06-10: 0</title></circle>
	<circle cx="193.43" cy="372.02" data-y="0.39" data-x="1591833600" r="1" fill="white"><title>2020-06-11: 0</title></circle>
	<circle cx="195.20" cy="372.40" data-y="0.35" data-x="1591920000" r="1" fill="white"><title>2020-06-12: 0</title></circle>
	<circle cx="196.97" cy="373.14" data-y="0.25" data-x="1592006400" r="1" fill="white"><title>2020-06-13: 0</title></circle>
	<circle cx="198.75" cy="373.14" data-y="0.25" data-x="1592092800" r="1" fill="white"><title>2020-06-14: 0</title></circle>
	<circle cx="200.52" cy="373.14" data-y="0.25" data-x="1592179200" r="1" fill="white"><title>2020-06-15: 0</title></circle>
	<circle cx="202.29" cy="374.63" data-y="0.05" data-x="1592265600" r="1" fill="white"><title>2020-06-16: 0</title></circle>
	<circle cx="204.06" cy="374.63" data-y="0.05" data-x="1592352000" r="1" fill="white"><title>2020-06-17: 0</title></circle>
	<circle cx="205.84" cy="374.63" data-y="0.05" data-x="1592438400" r="1" fill="white"><title>2020-06-18: 0</title></circle>
	<circle cx="207.61" cy="374.26" data-y="0.10" data-x="1592524800" r="1" fill="white"><title>2020-06-19: 0</title></circle>
	<circle cx="209.38" cy="374.26" data-y="0.10" data-x="1592611200" r="1" fill="white"><title>2020-06-20: 0</title></circle>
	<circle cx="211.16" cy="374.26" data-y="0.10" data-x="1592697600" r="1" fill="white"><title>2020-06-21: 0</title></circle>
	<circle cx="212.93" cy="374.63" data-y="0.05" data-x="1592784000" r="1" fill="white"><title>2020-06-22: 0</title></circle>
	<circle cx="214.70" cy="374.26" data-y="0.10" data-x="1592870400" r="1" fill="white"><title>2020-06-23: 0</title></circle>
	<circle cx="216.47" cy="374.26" data-y="0.10" data-x="1592956800" r="1" fill="white"><title>2020-06-24: 0</title></circle>
	<circle cx="218.25" cy="374.26" data-y="0.10" data-x="1593043200" r="1" fill="white"><title>2020-06-25: 0</title></circle>
	<circle cx="220.02" cy="374.63" data-y="0.05" data-x="1593129600" r="1" fill="white"><title>2020-06-26: 0</title></circle>
	<circle cx="221.79" cy="374.26" data-y="0.10" data-x="1593216000" r="1" fill="white"><title>2020-06-27: 0</title></circle>
	<circle cx="223.57" cy="373.88" data-y="0.15" data-x="1593302400" r="1" fill="white"><title>2020-06-28: 0</title></circle>
	<circle cx="225.34" cy="373.88" data-y="0.15" data-x="1593388800" r="1" fill="white"><title>2020-06-29: 0</title></circle>
	<circle cx="227.11" cy="374.26" data-y="0.10" data-x="1593475200" r="1" fill="white"><title>2020-06-30: 0</title></circle>
	<circle cx="228.88" cy="373.88" data-y="0.15" data-x="1593561600" r="1" fill="white"><title>2020-07-01: 0</title></circle>
	<circle cx="230.66" cy="373.14" data-y="0.25" data-x="1593648000" r="1" fill="white"><title>2020-07-02: 0</title></circle>
	<circle cx="232.43" cy="373.14" data-y="0.25" data-x="1593734400" r="1" fill="white"><title>2020-07-03: 0</title></circle>
	<circle cx="234.20" cy="373.51" data-y="0.20" data-x="1593820800" r="1" fill="white"><title>2020-07-04: 0</title></circle>
	<circle cx="235.98" cy="373.51" data-y="0.20" data-x="1593907200" r="1" fill="white"><title>2020-07-05: 0</title></circle>
	<circle cx="237.75" cy="373.51" data-y="0.20" data-x="1593993600" r="1" fill="white"><title>2020-07-06: 0</title></circle>
	<circle cx="239.52" cy="373.51" data-y="0.20" data-x="1594080000" r="1" fill="white"><title>2020-07-07: 0</title></circle>
	<circle cx="241.29" cy="373.88" data-y="0.15" data-x="1594166400" r="1" fill="white"><title>2020-07-08: 0</title></circle>
	<circle cx="243.07" cy="374.63" data-y="0.05" data-x="1594252800" r="1" fill="white"><title>2020-07-09: 0</title></circle>
	<circle cx="244.84" cy="373.88" data-y="0.15" data-x="1594339200" r="1" fill="white"><title>2020-07-10: 0</title></circle>
	<circle cx="246.61" cy="373.51" data-y="0.20" data-x="1594425600" r="1" fill="white"><title>2020-07-11: 0</title></circle>
	<circle cx="248.39" cy="373.51" data-y="0.20" data-x="1594512000" r="1" fill="white"><title>2020-07-12: 0</title></circle>
	<circle cx="250.16" cy="373.51" data-y="0.20" data-x="1594598400" r="1" fill="white"><title>2020-07-13: 0</title></circle>
	<circle cx="251.93" cy="372.77" data-y="0.30" data-x="1594684800" r="1" fill="white"><title>2020-07-14: 0</title></circle>
	<circle cx="253.71" cy="372.77" data-y="0.30" data-x="1594771200" r="1" fill="white"><title>2020-07-15: 0</title></circle>
	<circle cx="255.48" cy="372.77" data-y="0.30" data-x="1594857600" r="1" fill="white"><title>2020-07-16: 0</title></circle>
	<circle cx="257.25" cy="373.14" data-y="0.25" data-x="1594944000" r="1" fill="white"><title>2020-07-17: 0</title></circle>
	<circle cx="259.02" cy="372.40" data-y="0.35" data-x="1595030400" r="1" fill="white"><title>2020-07-18: 0</title></circle>
	<circle cx="260.80" cy="372.77" data-y="0.30" data-x="1595116800" r="1" fill="white"><title>2020-07-19: 0</title></circle>
	<circle cx="262.57" cy="372.77" data-y="0.30" data-x="1595203200" r="1" fill="white"><title>2020-07-20: 0</title></circle>
	<circle cx="264.34" cy="373.14" data-y="0.25" data-x="1595289600" r="1" fill="white"><title>2020-07-21: 0</title></circle>
	<circle cx="266.12" cy="372.77" data-y="0.30" data-x="1595376000" r="1" fill="white"><title>2020-07-22: 0</title></circle>
	<circle cx="267.89" cy="372.40" data-y="0.35" data-x="1595462400" r="1" fill="white"><title>2020-07-23: 0</title></circle>
	<circle cx="269.66" cy="372.77" data-y="0.30" data-x="1595548800" r="1" fill="white"><title>2020-07-24: 0</title></circle>
	<circle cx="271.43" cy="372.40" data-y="0.35" data-x="1595635200" r="1" fill="white"><title>2020-07-25: 0</title></circle>
	<circle cx="273.21" cy="372.40" data-y="0.35" data-x="1595721600" r="1" fill="white"><title>2020-07-26: 0</title></circle>
	<circle cx="274.98" cy="371.65" data-y="0.44" data-x="1595808000" r="1" fill="white"><title>2020-07-27: 0</title></circle>
	<circle cx="276.75" cy="372.02" data-y="0.39" data-x="1595894400" r="1" fill="white"><title>2020-07-28: 0</title></circle>
	<circle cx="278.53" cy="372.02" data-y="0.39" data-x="1595980800" r="1" fill="white"><title>2020-07-29: 0</title></circle>
	<circle cx="280.30" cy="372.02" data-y="0.39" data-x="1596067200" r="1" fill="white"><title>2020-07-30: 0</title></circle>
	<circle cx="282.07" cy="370.91" data-y="0.54" data-x="1596153600" r="1" fill="white"><title>2020-07-31: 1</title></circle>
	<circle cx="283.84" cy="372.02" data-y="0.39" data-x="1596240000" r="1" fill="white"><title>2020-08-01: 0</title></circle>
	<circle cx="285.62" cy="370.91" data-y="0.54" data-x="1596326400" r="1" fill="white"><title>2020-08-02: 1</title></circle>
	<circle cx="287.39" cy="371.65" data-y="0.44" data-x="1596412800" r="1" fill="white"><title>2020-08-03: 0</title></circle>
	<circle cx="289.16" cy="370.91" data-y="0.54" data-x="1596499200" r="1" fill="white"><title>2020-08-04: 1</title></circle>
	<circle cx="290.94" cy="369.79" data-y="0.69" data-x="1596585600" r="1" fill="white"><title>2020-08-05: 1</title></circle>
	<circle cx="292.71" cy="370.16" data-y="0.64" data-x="1596672000" r="1" fill="white"><title>2020-08-06: 1</title></circle>
	<circle cx="294.48" cy="370.91" data-y="0.54" data-x="1596758400" r="1" fill="white"><title>2020-08-07: 1</title></circle>
	<circle cx="296.25" cy="371.28" data-y="0.49" data-x="1596844800" r="1" fill="white"><title>2020-08-08: 0</title></circle>
	<circle cx="298.03" cy="372.02" data-y="0.39" data-x="1596931200" r="1" fill="white"><title>2020-08-09: 0</title></circle>
	<circle cx="299.80" cy="371.28" data-y="0.49" data-x="1597017600" r="1" fill="white"><title>2020-08-10: 0</title></circle>
	<circle cx="301.57" cy="371.28" data-y="0.49" data-x="1597104000" r="1" fill="white"><title>2020-08-11: 0</title></circle>
	<circle cx="303.35" cy="372.40" data-y="0.35" data-x="1597190400" r="1" fill="white"><title>2020-08-12: 0</title></circle>
	<circle cx="305.12" cy="372.40" data-y="0.35" data-x="1597276800" r="1" fill="white"><title>2020-08-13: 0</title></circle>
	<circle cx="306.89" cy="372.02" data-y="0.39" data-x="1597363200" r="1" fill="white"><title>2020-08-14: 0</title></circle>
	<circle cx="308.67" cy="370.54" data-y="0.59" data-x="1597449600" r="1" fill="white"><title>2020-08-15: 1</title></circle>
	<circle cx="310.44" cy="369.79" data-y="0.69" data-x="1597536000" r="1" fill="white"><title>2020-08-16: 1</title></circle>
	<circle cx="312.21" cy="366.81" data-y="1.09" data-x="1597622400" r="1" fill="white"><title>2020-08-17: 1</title></circle>
	<circle cx="313.98" cy="365.70" data-y="1.23" data-x="1597708800" r="1" fill="white"><title>2020-08-18: 1</title></circle>
	<circle cx="315.76" cy="363.84" data-y="1.48" data-x="1597795200" r="1" fill="white"><title>2020-08-19: 1</title></circle>
	<circle cx="317.53" cy="363.47" data-y="1.53" data-x="1597881600" r="1" fill="white"><title>2020-08-20: 2</title></circle>
	<circle cx="319.30" cy="362.35" data-y="1.68" data-x="1597968000" r="1" fill="white"><title>2020-08-21: 2</title></circle>
	<circle cx="321.08" cy="361.98" data-y="1.73" data-x="1598054400" r="1" fill="white"><title>2020-08-22: 2</title></circle>
	<circle cx="322.85" cy="362.35" data-y="1.68" data-x="1598140800" r="1" fill="white"><title>2020-08-23: 2</title></circle>
	<circle cx="324.62" cy="364.58" data-y="1.38" data-x="1598227200" r="1" fill="white"><title>2020-08-24: 1</title></circle>
	<circle cx="326.39" cy="363.84" data-y="1.48" data-x="1598313600" r="1" fill="white"><title>2020-08-25: 1</title></circle>
	<circle cx="328.17" cy="364.95" data-y="1.33" data-x="1598400000" r="1" fill="white"><title>2020-08-26: 1</title></circle>
	<circle cx="329.94" cy="365.33" data-y="1.28" data-x="1598486400" r="1" fill="white"><title>2020-08-27: 1</title></circle>
	<circle cx="331.71" cy="365.70" data-y="1.23" data-x="1598572800" r="1" fill="white"><title>2020-08-28: 1</title></circle>
	<circle cx="333.49" cy="364.95" data-y="1.33" data-x="1598659200" r="1" fill="white"><title>2020-08-29: 1</title></circle>
	<circle cx="335.26" cy="363.47" data-y="1.53" data-x="1598745600" r="1" fill="white"><title>2020-08-30: 2</title></circle>
	<circle cx="337.03" cy="363.09" data-y="1.58" data-x="1598832000" r="1" fill="white"><title>2020-08-31: 2</title></circle>
	<circle cx="338.80" cy="363.09" data-y="1.58" data-x="1598918400" r="1" fill="white"><title>2020-09-01: 2</title></circle>
	<circle cx="340.58" cy="361.98" data-y="1.73" data-x="1599004800" r="1" fill="white"><title>2020-09-02: 2</title></circle>
	<circle cx="342.35" cy="360.86" data-y="1.88" data-x="1599091200" r="1" fill="white"><title>2020-09-03: 2</title></circle>
	<circle cx="344.12" cy="358.63" data-y="2.17" data-x="1599177600" r="1" fill="white"><title>2020-09-04: 2</title></circle>
	<circle cx="345.90" cy="360.49" data-y="1.92" data-x="1599264000" r="1" fill="white"><title>2020-09-05: 2</title></circle>
	<circle cx="347.67" cy="361.23" data-y="1.83" data-x="1599350400" r="1" fill="white"><title>2020-09-06: 2</title></circle>
	<circle cx="349.44" cy="361.61" data-y="1.78" data-x="1599436800" r="1" fill="white"><title>2020-09-07: 2</title></circle>
	<circle cx="351.22" cy="360.12" data-y="1.97" data-x="1599523200" r="1" fill="white"><title>2020-09-08: 2</title></circle>
	<circle cx="352.99" cy="360.86" data-y="1.88" data-x="1599609600" r="1" fill="white"><title>2020-09-09: 2</title></circle>
	<circle cx="354.76" cy="359.37" data-y="2.07" data-x="1599696000" r="1" fill="white"><title>2020-09-10: 2</title></circle>
	<circle cx="356.53" cy="360.12" data-y="1.97" data-x="1599782400" r="1" fill="white"><title>2020-09-11: 2</title></circle>
	<circle cx="358.31" cy="357.51" data-y="2.32" data-x="1599868800" r="1" fill="white"><title>2020-09-12: 2</title></circle>
	<circle cx="360.08" cy="356.40" data-y="2.47" data-x="1599955200" r="1" fill="white"><title>2020-09-13: 2</title></circle>
	<circle cx="361.85" cy="355.65" data-y="2.57" data-x="1600041600" r="1" fill="white"><title>2020-09-14: 3</title></circle>
	<circle cx="363.63" cy="358.63" data-y="2.17" data-x="1600128000" r="1" fill="white"><title>2020-09-15: 2</title></circle>
	<circle cx="365.40" cy="358.63" data-y="2.17" data-x="1600214400" r="1" fill="white"><title>2020-09-16: 2</title></circle>
	<circle cx="367.17" cy="357.51" data-y="2.32" data-x="1600300800" r="1" fill="white"><title>2020-09-17: 2</title></circle>
	<circle cx="368.94" cy="358.63" data-y="2.17" data-x="1600387200" r="1" fill="white"><title>2020-09-18: 2</title></circle>
	<circle cx="370.72" cy="360.12" data-y="1.97" data-x="1600473600" r="1" fill="white"><title>2020-09-19: 2</title></circle>
	<circle cx="372.49" cy="358.26" data-y="2.22" data-x="1600560000" r="1" fill="white"><title>2020-09-20: 2</title></circle>
	<circle cx="374.26" cy="355.65" data-y="2.57" data-x="1600646400" r="1" fill="white"><title>2020-09-21: 3</title></circle>
	<circle cx="376.04" cy="351.93" data-y="3.06" data-x="1600732800" r="1" fill="white"><title>2020-09-22: 3</title></circle>
	<circle cx="377.81" cy="348.58" data-y="3.50" data-x="1600819200" r="1" fill="white"><title>2020-09-23: 4</title></circle>
	<circle cx="379.58" cy="349.33" data-y="3.41" data-x="1600905600" r="1" fill="white"><title>2020-09-24: 3</title></circle>
	<circle cx="381.35" cy="341.14" data-y="4.49" data-x="1600992000" r="1" fill="white"><title>2020-09-25: 4</title></circle>
	<circle cx="383.13" cy="334.44" data-y="5.38" data-x="1601078400" r="1" fill="white"><title>2020-09-26: 5</title></circle>
	<circle cx="384.90" cy="329.24" data-y="6.07" data-x="1601164800" r="1" fill="white"><title>2020-09-27: 6</title></circle>
	<circle cx="386.67" cy="325.14" data-y="6.61" data-x="1601251200" r="1" fill="white"><title>2020-09-28: 7</title></circle>
	<circle cx="388.45" cy="321.05" data-y="7.16" data-x="1601337600" r="1" fill="white"><title>2020-09-29: 7</title></circle>
	<circle cx="390.22" cy="320.68" data-y="7.21" data-x="1601424000" r="1" fill="white"><title>2020-09-30: 7</title></circle>
	<circle cx="391.99" cy="313.24" data-y="8.19" data-x="1601510400" r="1" fill="white"><title>2020-10-01: 8</title></circle>
	<circle cx="393.76" cy="312.49" data-y="8.29" data-x="1601596800" r="1" fill="white"><title>2020-10-02: 8</title></circle>
	<circle cx="395.54" cy="308.77" data-y="8.78" data-x="1601683200" r="1" fill="white"><title>2020-10-03: 9</title></circle>
	<circle cx="397.31" cy="303.56" data-y="9.48" data-x="1601769600" r="1" fill="white"><title>2020-10-04: 9</title></circle>
	<circle cx="399.08" cy="295.75" data-y="10.51" data-x="1601856000" r="1" fill="white"><title>2020-10-05: 11</title></circle>
	<circle cx="400.86" cy="290.91" data-y="11.15" data-x="1601942400" r="1" fill="white"><title>2020-10-06: 11</title></circle>
	<circle cx="402.63" cy="283.10" data-y="12.19" data-x="1602028800" r="1" fill="white"><title>2020-10-07: 12</title></circle>
	<circle cx="404.40" cy="281.24" data-y="12.44" data-x="1602115200" r="1" fill="white"><title>2020-10-08: 12</title></circle>
	<circle cx="406.18" cy="274.54" data-y="13.32" data-x="1602201600" r="1" fill="white"><title>2020-10-09: 13</title></circle>
	<circle cx="407.95" cy="265.24" data-y="14.56" data-x="1602288000" r="1" fill="white"><title>2020-10-10: 15</title></circle>
	<circle cx="409.72" cy="263.38" data-y="14.80" data-x="1602374400" r="1" fill="white"><title>2020-10-11: 15</title></circle>
	<circle cx="411.49" cy="262.64" data-y="14.90" data-x="1602460800" r="1" fill="white"><title>2020-10-12: 15</title></circle>
	<circle cx="413.27" cy="256.31" data-y="15.74" data-x="1602547200" r="1" fill="white"><title>2020-10-13: 16</title></circle>
	<circle cx="415.04" cy="255.57" data-y="15.84" data-x="1602633600" r="1" fill="white"><title>2020-10-14: 16</title></circle>
	<circle cx="416.81" cy="249.61" data-y="16.63" data-x="1602720000" r="1" fill="white"><title>2020-10-15: 17</title></circle>
	<circle cx="418.59" cy="237.33" data-y="18.26" data-x="1602806400" r="1" fill="white"><title>2020-10-16: 18</title></circle>
	<circle cx="420.36" cy="221.71" data-y="20.33" data-x="1602892800" r="1" fill="white"><title>2020-10-17: 20</title></circle>
	<circle cx="422.13" cy="200.87" data-y="23.10" data-x="1602979200" r="1" fill="white"><title>2020-10-18: 23</title></circle>
	<circle cx="423.90" cy="180.78" data-y="25.76" data-x="1603065600" r="1" fill="white"><title>2020-10-19: 26</title></circle>
	<circle cx="425.68" cy="160.32" data-y="28.47" data-x="1603152000" r="1" fill="white"><title>2020-10-20: 28</title></circle>
	<circle cx="427.45" cy="152.50" data-y="29.51" data-x="1603238400" r="1" fill="white"><title>2020-10-21: 30</title></circle>
	<circle cx="429.22" cy="143.20" data-y="30.74" data-x="1603324800" r="1" fill="white"><title>2020-10-22: 31</title></circle>
	<circle cx="431.00" cy="124.23" data-y="33.26" data-x="1603411200" r="1" fill="white"><title>2020-10-23: 33</title></circle>
	<circle cx="432.77" cy="110.09" data-y="35.14" data-x="1603497600" r="1" fill="white"><title>2020-10-24: 35</title></circle>
	<circle cx="434.54" cy="105.99" data-y="35.68" data-x="1603584000" r="1" fill="white"><title>2020-10-25: 36</title></circle>
	<circle cx="436.31" cy="89.25" data-y="37.90" data-x="1603670400" r="1" fill="white"><title>2020-10-26: 38</title></circle>
	<circle cx="438.09" cy="84.79" data-y="38.49" data-x="1603756800" r="1" fill="white"><title>2020-10-27: 38</title></circle>
	<circle cx="439.86" cy="78.09" data-y="39.38" data-x="1603843200" r="1" fill="white"><title>2020-10-28: 39</title></circle>
	<circle cx="441.63" cy="75.48" data-y="39.73" data-x="1603929600" r="1" fill="white"><title>2020-10-29: 40</title></circle>
	<circle cx="443.41" cy="57.62" data-y="42.10" data-x="1604016000" r="1" fill="white"><title>2020-10-30: 42</title></circle>
	<circle cx="445.18" cy="59.86" data-y="41.80" data-x="1604102400" r="1" fill="white"><title>2020-10-31: 42</title></circle>
	<circle cx="446.95" cy="49.81" data-y="43.13" data-x="1604188800" r="1" fill="white"><title>2020-11-01: 43</title></circle>
	<circle cx="448.73" cy="47.58" data-y="43.43" data-x="1604275200" r="1" fill="white"><title>2020-11-02: 43</title></circle>
	<circle cx="450.50" cy="37.53" data-y="44.76" data-x="1604361600" r="1" fill="white"><title>2020-11-03: 45</title></circle>
	<circle cx="452.27" cy="23.02" data-y="46.69" data-x="1604448000" r="1" fill="white"><title>2020-11-04: 47</title></circle>
	<circle cx="454.04" cy="10.00" data-y="48.41" data-x="1604534400" r="1" fill="white"><title>2020-11-05: 48</title></circle>
	<circle cx="455.82" cy="15.58" data-y="47.67" data-x="1604620800" r="1" fill="white"><title>2020-11-06: 48</title></circle>
	<circle cx="457.59" cy="12.60" data-y="48.07" data-x="1604707200" r="1" fill="white"><title>2020-11-07: 48</title></circle>
	<circle cx="459.36" cy="14.09" data-y="47.87" data-x="1604793600" r="1" fill="white"><title>2020-11-08: 48</title></circle>
	<circle cx="461.14" cy="22.28" data-y="46.78" data-x="1604880000" r="1" fill="white"><title>2020-11-09: 47</title></circle>
</g>
<g data-series="recent-cases" class="data-series">
	<path d="M 461.14,22.28L 462.91,26.37L 464.68,69.16L 466.45,68.54L 468.23,92.67L 470.00,113.25" id="Recent cases" class="line" stroke-width="1" stroke-linecap="round" stroke-dasharray="4,6" stroke-dashoffset="4"><title>Recent cases</title></path>
	<circle cx="461.14" cy="22.28" data-y="46.78" data-x="1604880000" r="2.5" fill="white"><title>2020-11-09: 47</title></circle>
	<circle cx="462.91" cy="26.37" data-y="46.24" data-x="1604966400" r="2.5" fill="white"><title>2020-11-10: 46</title></circle>
	<circle cx="464.68" cy="69.16" data-y="40.57" data-x="1605052800" r="2.5" fill="white"><title>2020-11-11: 41</title></circle>
	<circle cx="466.45" cy="68.54" data-y="40.65" data-x="1605139200" r="2.5" fill="white"><title>2020-11-12: 41</title></circle>
	<circle cx="468.23" cy="92.67" data-y="37.45" data-x="1605225600" r="2.5" fill="white"><title>2020-11-13: 37</title></circle>
	<circle cx="470.00" cy="113.25" data-y="34.72" data-x="1605312000" r="2.5" fill="white"><title>2020-11-14: 35</title></circle>
</g>
</svg>
