<svg width="480" height="400" viewBox="0 0 480 400" xmlns="http://www.w3.org/2000/svg" style="overflow:display" preserveAspectRatio="xMinYMin meet" overflow="visible">
<defs>
	<style>
	.data-series path.line { fill-opacity: 0; stroke: black; }
	.data-series path.line.dotted { stroke-dasharray: 12 20 }
	.data-series:hover path.line, .data-series.on path.line { stroke-width: 1; }
	.data-series:hover circle, .data-series.on circle { display: inline; }
	.graph-grid { font-family: "Helvetica Neue",Helvetica,Arial,"Lucida Grande",sans-serif; }
	.graph-grid line { stroke: black; stroke-width: 1; stroke-linecap: round; }
	.graph-grid.graph-grid-x text { text-anchor: middle; dominant-baseline: hanging; transform: translateY(10px); }
	.graph-grid.graph-grid-y text { text-anchor: end; dominant-baseline: middle; transform: translateX(-10px); }
	</style>
</defs>
<g class="graph-grid graph-grid-y">
	<line x1="25.00" y1="375.00" x2="470.00" y2="375.00" data-left="25"></line>
	<text x="35" y="375" text-anchor="end">0</text>
	<text x="35" y="215.770376237624" text-anchor="end">20</text>
	<text x="35" y="56.5407524752476" text-anchor="end">40</text>
	<text style="text-anchor:middle;dominant-baseline:hanging;font-weight:bold;transform: translateY(192.5px) rotate(-90deg);"></text>
</g>
<g class="graph-grid graph-grid-x">
	<line class="tick" x1="73.72" y1="375.00" x2="73.72" y2="380.00"></line>
	<text x="73.7226277372263" y="375" text-anchor="middle">A</text>
	<line class="tick" x1="122.45" y1="375.00" x2="122.45" y2="380.00"></line>
	<text x="122.445255474453" y="375" text-anchor="middle">M</text>
	<line class="tick" x1="172.79" y1="375.00" x2="172.79" y2="380.00"></line>
	<text x="172.79197080292" y="375" text-anchor="middle">J</text>
	<line class="tick" x1="221.51" y1="375.00" x2="221.51" y2="380.00"></line>
	<text x="221.514598540146" y="375" text-anchor="middle">J</text>
	<line class="tick" x1="271.86" y1="375.00" x2="271.86" y2="380.00"></line>
	<text x="271.861313868613" y="375" text-anchor="middle">A</text>
	<line class="tick" x1="322.21" y1="375.00" x2="322.21" y2="380.00"></line>
	<text x="322.20802919708" y="375" text-anchor="middle">S</text>
	<line class="tick" x1="370.93" y1="375.00" x2="370.93" y2="380.00"></line>
	<text x="370.930656934307" y="375" text-anchor="middle">O</text>
	<line class="tick" x1="421.28" y1="375.00" x2="421.28" y2="380.00"></line>
	<text x="421.277372262774" y="375" text-anchor="middle">N</text>
	<line class="tick" x1="470.00" y1="375.00" x2="470.00" y2="380.00"></line>
	<text x="470" y="375" text-anchor="middle">D</text>
	<text style="text-anchor:middle;dominant-baseline:hanging;font-weight:bold;transform: translateY(192.5px) rotate(-90deg);"></text>
</g>
<g data-series="widespread" class="data-series">
	<path d="M 25.00,319.27L 470.00,319.27" id="E06000050-level-0" class="line" stroke-width="1" stroke-linecap="round" stroke-dasharray="3,3" fill-opacity="0.3" opacity="0.3"><title>Widespread</title></path>
</g>
<g data-series="substantial" class="data-series">
	<path d="M 25.00,343.15L 470.00,343.15" id="E06000050-level-1" class="line" stroke-width="1" stroke-linecap="round" stroke-dasharray="3,3" fill-opacity="0.3" opacity="0.3"><title>Substantial</title></path>
</g>
<g data-series="moderate" class="data-series">
	<path d="M 25.00,367.04L 470.00,367.04" id="E06000050-level-2" class="line" stroke-width="1" stroke-linecap="round" stroke-dasharray="3,3" fill-opacity="0.3" opacity="0.3"><title>Moderate</title></path>
</g>
<g data-series="new-cases" class="data-series">
	<path d="M 25.00,374.43L 26.62,374.54L 28.25,374.62L 29.87,374.67L 31.50,375.00L 33.12,374.34L 34.74,373.69L 36.37,373.36L 37.99,373.36L 39.62,373.36L 41.24,372.70L 42.86,372.04L 44.49,372.37L 46.11,372.37L 47.74,371.39L 49.36,370.40L 50.99,369.74L 52.61,369.41L 54.23,368.43L 55.86,367.44L 57.48,366.46L 59.11,366.13L 60.73,361.53L 62.35,358.57L 63.98,352.00L 65.60,348.39L 67.23,343.79L 68.85,335.90L 70.47,329.01L 72.10,322.76L 73.72,316.19L 75.35,313.24L 76.97,308.31L 78.59,304.37L 80.22,304.69L 81.84,304.37L 83.47,307.98L 85.09,312.91L 86.72,314.55L 88.34,319.81L 89.96,322.43L 91.59,324.41L 93.21,323.75L 94.84,321.78L 96.46,318.82L 98.08,319.81L 99.71,317.51L 101.33,310.28L 102.96,308.31L 104.58,308.31L 106.20,310.61L 107.83,310.94L 109.45,313.24L 111.08,308.31L 112.70,307.32L 114.32,306.01L 115.95,304.69L 117.57,300.42L 119.20,300.09L 120.82,297.14L 122.45,301.74L 124.07,308.31L 125.69,307.65L 127.32,311.92L 128.94,310.61L 130.57,312.91L 132.19,314.55L 133.81,310.61L 135.44,308.64L 137.06,309.29L 138.69,304.69L 140.31,310.28L 141.93,308.64L 143.56,309.29L 145.18,310.61L 146.81,312.25L 148.43,313.24L 150.05,320.46L 151.68,322.11L 153.30,323.09L 154.93,324.08L 156.55,331.63L 158.18,332.29L 159.80,337.22L 161.42,332.95L 163.05,331.96L 164.67,335.90L 166.30,337.22L 167.92,333.28L 169.54,337.22L 171.17,338.20L 172.79,342.15L 174.42,347.73L 176.04,346.75L 177.66,348.72L 179.29,353.32L 180.91,355.95L 182.54,356.93L 184.16,359.23L 185.78,357.92L 187.41,358.57L 189.03,358.57L 190.66,357.92L 192.28,356.60L 193.91,356.60L 195.53,356.93L 197.15,358.24L 198.78,360.87L 200.40,361.86L 202.03,363.83L 203.65,365.47L 205.27,365.80L 206.90,363.83L 208.52,364.49L 210.15,363.83L 211.77,363.50L 213.39,360.54L 215.02,359.89L 216.64,360.54L 218.27,362.84L 219.89,363.50L 221.51,361.53L 223.14,361.20L 224.76,364.82L 226.39,366.13L 228.01,365.14L 229.64,361.86L 231.26,361.20L 232.88,363.50L 234.51,364.16L 236.13,363.83L 237.76,362.52L 239.38,364.16L 241.00,366.79L 242.63,366.79L 244.25,366.79L 245.88,367.44L 247.50,366.46L 249.12,367.77L 250.75,368.76L 252.37,370.07L 254.00,369.09L 255.62,368.76L 257.24,368.10L 258.87,367.44L 260.49,367.77L 262.12,366.79L 263.74,366.46L 265.36,365.80L 266.99,366.13L 268.61,367.12L 270.24,368.10L 271.86,367.44L 273.49,366.79L 275.11,366.13L 276.73,367.77L 278.36,368.43L 279.98,368.43L 281.61,368.10L 283.23,368.43L 284.85,370.07L 286.48,369.41L 288.10,369.09L 289.73,368.10L 291.35,368.10L 292.97,368.43L 294.60,368.43L 296.22,365.80L 297.85,365.80L 299.47,366.46L 301.09,365.80L 302.72,365.14L 304.34,364.82L 305.97,365.47L 307.59,365.47L 309.22,366.79L 310.84,366.46L 312.46,366.46L 314.09,366.13L 315.71,364.82L 317.34,362.19L 318.96,359.89L 320.58,356.60L 322.21,355.62L 323.83,352.33L 325.46,351.02L 327.08,344.45L 328.70,342.15L 330.33,343.46L 331.95,342.80L 333.58,338.53L 335.20,339.52L 336.82,340.18L 338.45,343.79L 340.07,344.77L 341.70,339.19L 343.32,339.52L 344.95,337.55L 346.57,331.31L 348.19,325.72L 349.82,320.14L 351.44,312.25L 353.07,310.94L 354.69,304.69L 356.31,299.77L 357.94,298.45L 359.56,292.87L 361.19,290.24L 362.81,284.00L 364.43,273.48L 366.06,263.63L 367.68,252.13L 369.31,244.90L 370.93,233.40L 372.55,220.59L 374.18,205.48L 375.80,191.02L 377.43,178.21L 379.05,176.24L 380.68,168.35L 382.30,171.31L 383.92,161.45L 385.55,163.10L 387.17,167.04L 388.80,167.37L 390.42,161.45L 392.04,164.41L 393.67,155.87L 395.29,148.31L 396.92,139.44L 398.54,126.30L 400.16,128.93L 401.79,130.57L 403.41,126.63L 405.04,116.77L 406.66,114.47L 408.28,110.86L 409.91,115.79L 411.53,99.36L 413.16,91.48L 414.78,92.79L 416.41,102.65L 418.03,97.72L 419.65,100.35L 421.28,92.13L 422.90,88.52L 424.53,72.75L 426.15,63.22L 427.77,50.08L 429.40,33.98L 431.02,19.20L 432.65,10.00L 434.27,20.18L 435.89,29.38L 437.52,29.38L 439.14,35.63L 440.77,62.24L 442.39,81.62L 444.01,105.60L 445.64,117.10L 447.26,144.04L 448.89,170.65L 450.51,190.36L 452.14,210.41L 453.76,233.73L 455.38,247.53L 457.01,262.31L 458.63,262.97L 460.26,254.76L 461.88,261.66" id="New cases" class="line" stroke-width="1" stroke-linecap="round"><title>New cases</title></path>
	<circle cx="25.00" cy="374.43" data-y="0.07" data-x="1583107200" r="1" fill="white"><title>2020-03-02: 0</title></circle>
	<circle cx="26.62" cy="374.54" data-y="0.06" data-x="1583193600" r="1" fill="white"><title>2020-03-03: 0</title></circle>
	<circle cx="28.25" cy="374.62" data-y="0.05" data-x="1583280000" r="1" fill="white"><title>2020-03-04: 0</title></circle>
	<circle cx="29.87" cy="374.67" data-y="0.04" data-x="1583366400" r="1" fill="white"><title>2020-03-05: 0</title></circle>
	<circle cx="31.50" cy="375.00" data-y="0.00" data-x="1583452800" r="1" fill="white"><title>2020-03-06: 0</title></circle>
	<circle cx="33.12" cy="374.34" data-y="0.08" data-x="1583539200" r="1" fill="white"><title>2020-03-07: 0</title></circle>
	<circle cx="34.74" cy="373.69" data-y="0.17" data-x="1583625600" r="1" fill="white"><title>2020-03-08: 0</title></circle>
	<circle cx="36.37" cy="373.36" data-y="0.21" data-x="1583712000" r="1" fill="white"><title>2020-03-09: 0</title></circle>
	<circle cx="37.99" cy="373.36" data-y="0.21" data-x="1583798400" r="1" fill="white"><title>2020-03-10: 0</title></circle>
	<circle cx="39.62" cy="373.36" data-y="0.21" data-x="1583884800" r="1" fill="white"><title>2020-03-11: 0</title></circle>
	<circle cx="41.24" cy="372.70" data-y="0.29" data-x="1583971200" r="1" fill="white"><title>2020-03-12: 0</title></circle>
	<circle cx="42.86" cy="372.04" data-y="0.37" data-x="1584057600" r="1" fill="white"><title>2020-03-13: 0</title></circle>
	<circle cx="44.49" cy="372.37" data-y="0.33" data-x="1584144000" r="1" fill="white"><title>2020-03-14: 0</title></circle>
	<circle cx="46.11" cy="372.37" data-y="0.33" data-x="1584230400" r="1" fill="white"><title>2020-03-15: 0</title></circle>
	<circle cx="47.74" cy="371.39" data-y="0.45" data-x="1584316800" r="1" fill="white"><title>2020-03-16: 0</title></circle>
	<circle cx="49.36" cy="370.40" data-y="0.58" data-x="1584403200" r="1" fill="white"><title>2020-03-17: 1</title></circle>
	<circle cx="50.99" cy="369.74" data-y="0.66" data-x="1584489600" r="1" fill="white"><title>2020-03-18: 1</title></circle>
	<circle cx="52.61" cy="369.41" data-y="0.70" data-x="1584576000" r="1" fill="white"><title>2020-03-19: 1</title></circle>
	<circle cx="54.23" cy="368.43" data-y="0.83" data-x="1584662400" r="1" fill="white"><title>2020-03-20: 1</title></circle>
	<circle cx="55.86" cy="367.44" data-y="0.95" data-x="1584748800" r="1" fill="white"><title>2020-03-21: 1</title></circle>
	<circle cx="57.48" cy="366.46" data-y="1.07" data-x="1584835200" r="1" fill="white"><title>2020-03-22: 1</title></circle>
	<circle cx="59.11" cy="366.13" data-y="1.11" data-x="1584921600" r="1" fill="white"><title>2020-03-23: 1</title></circle>
	<circle cx="60.73" cy="361.53" data-y="1.69" data-x="1585008000" r="1" fill="white"><title>2020-03-24: 2</title></circle>
	<circle cx="62.35" cy="358.57" data-y="2.06" data-x="1585094400" r="1" fill="white"><title>2020-03-25: 2</title></circle>
	<circle cx="63.98" cy="352.00" data-y="2.89" data-x="1585180800" r="1" fill="white"><title>2020-03-26: 3</title></circle>
	<circle cx="65.60" cy="348.39" data-y="3.34" data-x="1585267200" r="1" fill="white"><title>2020-03-27: 3</title></circle>
	<circle cx="67.23" cy="343.79" data-y="3.92" data-x="1585353600" r="1" fill="white"><title>2020-03-28: 4</title></circle>
	<circle cx="68.85" cy="335.90" data-y="4.91" data-x="1585440000" r="1" fill="white"><title>2020-03-29: 5</title></circle>
	<circle cx="70.47" cy="329.01" data-y="5.78" data-x="1585526400" r="1" fill="white"><title>2020-03-30: 6</title></circle>
	<circle cx="72.10" cy="322.76" data-y="6.56" data-x="1585612800" r="1" fill="white"><title>2020-03-31: 7</title></circle>
	<circle cx="73.72" cy="316.19" data-y="7.39" data-x="1585699200" r="1" fill="white"><title>2020-04-01: 7</title></circle>
	<circle cx="75.35" cy="313.24" data-y="7.76" data-x="1585785600" r="1" fill="white"><title>2020-04-02: 8</title></circle>
	<circle cx="76.97" cy="308.31" data-y="8.38" data-x="1585872000" r="1" fill="white"><title>2020-04-03: 8</title></circle>
	<circle cx="78.59" cy="304.37" data-y="8.87" data-x="1585958400" r="1" fill="white"><title>2020-04-04: 9</title></circle>
	<circle cx="80.22" cy="304.69" data-y="8.83" data-x="1586044800" r="1" fill="white"><title>2020-04-05: 9</title></circle>
	<circle cx="81.84" cy="304.37" data-y="8.87" data-x="1586131200" r="1" fill="white"><title>2020-04-06: 9</title></circle>
	<circle cx="83.47" cy="307.98" data-y="8.42" data-x="1586217600" r="1" fill="white"><title>2020-04-07: 8</title></circle>
	<circle cx="85.09" cy="312.91" data-y="7.80" data-x="1586304000" r="1" fill="white"><title>2020-04-08: 8</title></circle>
	<circle cx="86.72" cy="314.55" data-y="7.59" data-x="1586390400" r="1" fill="white"><title>2020-04-09: 8</title></circle>
	<circle cx="88.34" cy="319.81" data-y="6.93" data-x="1586476800" r="1" fill="white"><title>2020-04-10: 7</title></circle>
	<circle cx="89.96" cy="322.43" data-y="6.60" data-x="1586563200" r="1" fill="white"><title>2020-04-11: 7</title></circle>
	<circle cx="91.59" cy="324.41" data-y="6.35" data-x="1586649600" r="1" fill="white"><title>2020-04-12: 6</title></circle>
	<circle cx="93.21" cy="323.75" data-y="6.44" data-x="1586736000" r="1" fill="white"><title>2020-04-13: 6</title></circle>
	<circle cx="94.84" cy="321.78" data-y="6.68" data-x="1586822400" r="1" fill="white"><title>2020-04-14: 7</title></circle>
	<circle cx="96.46" cy="318.82" data-y="7.06" data-x="1586908800" r="1" fill="white"><title>2020-04-15: 7</title></circle>
	<circle cx="98.08" cy="319.81" data-y="6.93" data-x="1586995200" r="1" fill="white"><title>2020-04-16: 7</title></circle>
	<circle cx="99.71" cy="317.51" data-y="7.22" data-x="1587081600" r="1" fill="white"><title>2020-04-17: 7</title></circle>
	<circle cx="101.33" cy="310.28" data-y="8.13" data-x="1587168000" r="1" fill="white"><title>2020-04-18: 8</title></circle>
	<circle cx="102.96" cy="308.31" data-y="8.38" data-x="1587254400" r="1" fill="white"><title>2020-04-19: 8</title></circle>
	<circle cx="104.58" cy="308.31" data-y="8.38" data-x="1587340800" r="1" fill="white"><title>2020-04-20: 8</title></circle>
	<circle cx="106.20" cy="310.61" data-y="8.09" data-x="1587427200" r="1" fill="white"><title>2020-04-21: 8</title></circle>
	<circle cx="107.83" cy="310.94" data-y="8.05" data-x="1587513600" r="1" fill="white"><title>2020-04-22: 8</title></circle>
	<circle cx="109.45" cy="313.24" data-y="7.76" data-x="1587600000" r="1" fill="white"><title>2020-04-23: 8</title></circle>
	<circle cx="111.08" cy="308.31" data-y="8.38" data-x="1587686400" r="1" fill="white"><title>2020-04-24: 8</title></circle>
	<circle cx="112.70" cy="307.32" data-y="8.50" data-x="1587772800" r="1" fill="white"><title>2020-04-25: 9</title></circle>
	<circle cx="114.32" cy="306.01" data-y="8.67" data-x="1587859200" r="1" fill="white"><title>2020-04-26: 9</title></circle>
	<circle cx="115.95" cy="304.69" data-y="8.83" data-x="1587945600" r="1" fill="white"><title>2020-04-27: 9</title></circle>
	<circle cx="117.57" cy="300.42" data-y="9.37" data-x="1588032000" r="1" fill="white"><title>2020-04-28: 9</title></circle>
	<circle cx="119.20" cy="300.09" data-y="9.41" data-x="1588118400" r="1" fill="white"><title>2020-04-29: 9</title></circle>
	<circle cx="120.82" cy="297.14" data-y="9.78" data-x="1588204800" r="1" fill="white"><title>2020-04-30: 10</title></circle>
	<circle cx="122.45" cy="301.74" data-y="9.20" data-x="1588291200" r="1" fill="white"><title>2020-05-01: 9</title></circle>
	<circle cx="124.07" cy="308.31" data-y="8.38" data-x="1588377600" r="1" fill="white"><title>2020-05-02: 8</title></circle>
	<circle cx="125.69" cy="307.65" data-y="8.46" data-x="1588464000" r="1" fill="white"><title>2020-05-03: 8</title></circle>
	<circle cx="127.32" cy="311.92" data-y="7.92" data-x="1588550400" r="1" fill="white"><title>2020-05-04: 8</title></circle>
	<circle cx="128.94" cy="310.61" data-y="8.09" data-x="1588636800" r="1" fill="white"><title>2020-05-05: 8</title></circle>
	<circle cx="130.57" cy="312.91" data-y="7.80" data-x="1588723200" r="1" fill="white"><title>2020-05-06: 8</title></circle>
	<circle cx="132.19" cy="314.55" data-y="7.59" data-x="1588809600" r="1" fill="white"><title>2020-05-07: 8</title></circle>
	<circle cx="133.81" cy="310.61" data-y="8.09" data-x="1588896000" r="1" fill="white"><title>2020-05-08: 8</title></circle>
	<circle cx="135.44" cy="308.64" data-y="8.34" data-x="1588982400" r="1" fill="white"><title>2020-05-09: 8</title></circle>
	<circle cx="137.06" cy="309.29" data-y="8.25" data-x="1589068800" r="1" fill="white"><title>2020-05-10: 8</title></circle>
	<circle cx="138.69" cy="304.69" data-y="8.83" data-x="1589155200" r="1" fill="white"><title>2020-05-11: 9</title></circle>
	<circle cx="140.31" cy="310.28" data-y="8.13" data-x="1589241600" r="1" fill="white"><title>2020-05-12: 8</title></circle>
	<circle cx="141.93" cy="308.64" data-y="8.34" data-x="1589328000" r="1" fill="white"><title>2020-05-13: 8</title></circle>
	<circle cx="143.56" cy="309.29" data-y="8.25" data-x="1589414400" r="1" fill="white"><title>2020-05-14: 8</title></circle>
	<circle cx="145.18" cy="310.61" data-y="8.09" data-x="1589500800" r="1" fill="white"><title>2020-05-15: 8</title></circle>
	<circle cx="146.81" cy="312.25" data-y="7.88" data-x="1589587200" r="1" fill="white"><title>2020-05-16: 8</title></circle>
	<circle cx="148.43" cy="313.24" data-y="7.76" data-x="1589673600" r="1" fill="white"><title>2020-05-17: 8</title></circle>
	<circle cx="150.05" cy="320.46" data-y="6.85" data-x="1589760000" r="1" fill="white"><title>2020-05-18: 7</title></circle>
	<circle cx="151.68" cy="322.11" data-y="6.64" data-x="1589846400" r="1" fill="white"><title>2020-05-19: 7</title></circle>
	<circle cx="153.30" cy="323.09" data-y="6.52" data-x="1589932800" r="1" fill="white"><title>2020-05-20: 7</title></circle>
	<circle cx="154.93" cy="324.08" data-y="6.40" data-x="1590019200" r="1" fill="white"><title>2020-05-21: 6</title></circle>
	<circle cx="156.55" cy="331.63" data-y="5.45" data-x="1590105600" r="1" fill="white"><title>2020-05-22: 5</title></circle>
	<circle cx="158.18" cy="332.29" data-y="5.36" data-x="1590192000" r="1" fill="white"><title>2020-05-23: 5</title></circle>
	<circle cx="159.80" cy="337.22" data-y="4.75" data-x="1590278400" r="1" fill="white"><title>2020-05-24: 5</title></circle>
	<circle cx="161.42" cy="332.95" data-y="5.28" data-x="1590364800" r="1" fill="white"><title>2020-05-25: 5</title></circle>
	<circle cx="163.05" cy="331.96" data-y="5.41" data-x="1590451200" r="1" fill="white"><title>2020-05-26: 5</title></circle>
	<circle cx="164.67" cy="335.90" data-y="4.91" data-x="1590537600" r="1" fill="white"><title>2020-05-27: 5</title></circle>
	<circle cx="166.30" cy="337.22" data-y="4.75" data-x="1590624000" r="1" fill="white"><title>2020-05-28: 5</title></circle>
	<circle cx="167.92" cy="333.28" data-y="5.24" data-x="1590710400" r="1" fill="white"><title>2020-05-29: 5</title></circle>
	<circle cx="169.54" cy="337.22" data-y="4.75" data-x="1590796800" r="1" fill="white"><title>2020-05-30: 5</title></circle>
	<circle cx="171.17" cy="338.20" data-y="4.62" data-x="1590883200" r="1" fill="white"><title>2020-05-31: 5</title></circle>
	<circle cx="172.79" cy="342.15" data-y="4.13" data-x="1590969600" r="1" fill="white"><title>2020-06-01: 4</title></circle>
	<circle cx="174.42" cy="347.73" data-y="3.43" data-x="1591056000" r="1" fill="white"><title>2020-06-02: 3</title></circle>
	<circle cx="176.04" cy="346.75" data-y="3.55" data-x="1591142400" r="1" fill="white"><title>2020-06-03: 4</title></circle>
	<circle cx="177.66" cy="348.72" data-y="3.30" data-x="1591228800" r="1" fill="white"><title>2020-06-04: 3</title></circle>
	<circle cx="179.29" cy="353.32" data-y="2.72" data-x="1591315200" r="1" fill="white"><title>2020-06-05: 3</title></circle>
	<circle cx="180.91" cy="355.95" data-y="2.39" data-x="1591401600" r="1" fill="white"><title>2020-06-06: 2</title></circle>
	<circle cx="182.54" cy="356.93" data-y="2.27" data-x="1591488000" r="1" fill="white"><title>2020-06-07: 2</title></circle>
	<circle cx="184.16" cy="359.23" data-y="1.98" data-x="1591574400" r="1" fill="white"><title>2020-06-08: 2</title></circle>
	<circle cx="185.78" cy="357.92" data-y="2.15" data-x="1591660800" r="1" fill="white"><title>2020-06-09: 2</title></circle>
	<circle cx="187.41" cy="358.57" data-y="2.06" data-x="1591747200" r="1" fill="white"><title>2020-06-10: 2</title></circle>
	<circle cx="189.03" cy="358.57" data-y="2.06" data-x="1591833600" r="1" fill="white"><title>2020-06-11: 2</title></circle>
	<circle cx="190.66" cy="357.92" data-y="2.15" data-x="1591920000" r="1" fill="white"><title>2020-06-12: 2</title></circle>
	<circle cx="192.28" cy="356.60" data-y="2.31" data-x="1592006400" r="1" fill="white"><title>2020-06-13: 2</title></circle>
	<circle cx="193.91" cy="356.60" data-y="2.31" data-x="1592092800" r="1" fill="white"><title>2020-06-14: 2</title></circle>
	<circle cx="195.53" cy="356.93" data-y="2.27" data-x="1592179200" r="1" fill="white"><title>2020-06-15: 2</title></circle>
	<circle cx="197.15" cy="358.24" data-y="2.10" data-x="1592265600" r="1" fill="white"><title>2020-06-16: 2</title></circle>
	<circle cx="198.78" cy="360.87" data-y="1.77" data-x="1592352000" r="1" fill="white"><title>2020-06-17: 2</title></circle>
	<circle cx="200.40" cy="361.86" data-y="1.65" data-x="1592438400" r="1" fill="white"><title>2020-06-18: 2</title></circle>
	<circle cx="202.03" cy="363.83" data-y="1.40" data-x="1592524800" r="1" fill="white"><title>2020-06-19: 1</title></circle>
	<circle cx="203.65" cy="365.47" data-y="1.20" data-x="1592611200" r="1" fill="white"><title>2020-06-20: 1</title></circle>
	<circle cx="205.27" cy="365.80" data-y="1.16" data-x="1592697600" r="1" fill="white"><title>2020-06-21: 1</title></circle>
	<circle cx="206.90" cy="363.83" data-y="1.40" data-x="1592784000" r="1" fill="white"><title>2020-06-22: 1</title></circle>
	<circle cx="208.52" cy="364.49" data-y="1.32" data-x="1592870400" r="1" fill="white"><title>2020-06-23: 1</title></circle>
	<circle cx="210.15" cy="363.83" data-y="1.40" data-x="1592956800" r="1" fill="white"><title>2020-06-24: 1</title></circle>
	<circle cx="211.77" cy="363.50" data-y="1.44" data-x="1593043200" r="1" fill="white"><title>2020-06-25: 1</title></circle>
	<circle cx="213.39" cy="360.54" data-y="1.82" data-x="1593129600" r="1" fill="white"><title>2020-06-26: 2</title></circle>
	<circle cx="215.02" cy="359.89" data-y="1.90" data-x="1593216000" r="1" fill="white"><title>2020-06-27: 2</title></circle>
	<circle cx="216.64" cy="360.54" data-y="1.82" data-x="1593302400" r="1" fill="white"><title>2020-06-28: 2</title></circle>
	<circle cx="218.27" cy="362.84" data-y="1.53" data-x="1593388800" r="1" fill="white"><title>2020-06-29: 2</title></circle>
	<circle cx="219.89" cy="363.50" data-y="1.44" data-x="1593475200" r="1" fill="white"><title>2020-06-30: 1</title></circle>
	<circle cx="221.51" cy="361.53" data-y="1.69" data-x="1593561600" r="1" fill="white"><title>2020-07-01: 2</title></circle>
	<circle cx="223.14" cy="361.20" data-y="1.73" data-x="1593648000" r="1" fill="white"><title>2020-07-02: 2</title></circle>
	<circle cx="224.76" cy="364.82" data-y="1.28" data-x="1593734400" r="1" fill="white"><title>2020-07-03: 1</title></circle>
	<circle cx="226.39" cy="366.13" data-y="1.11" data-x="1593820800" r="1" fill="white"><title>2020-07-04: 1</title></circle>
	<circle cx="228.01" cy="365.14" data-y="1.24" data-x="1593907200" r="1" fill="white"><title>2020-07-05: 1</title></circle>
	<circle cx="229.64" cy="361.86" data-y="1.65" data-x="1593993600" r="1" fill="white"><title>2020-07-06: 2</title></circle>
	<circle cx="231.26" cy="361.20" data-y="1.73" data-x="1594080000" r="1" fill="white"><title>2020-07-07: 2</title></circle>
	<circle cx="232.88" cy="363.50" data-y="1.44" data-x="1594166400" r="1" fill="white"><title>2020-07-08: 1</title></circle>
	<circle cx="234.51" cy="364.16" data-y="1.36" data-x="1594252800" r="1" fill="white"><title>2020-07-09: 1</title></circle>
	<circle cx="236.13" cy="363.83" data-y="1.40" data-x="1594339200" r="1" fill="white"><title>2020-07-10: 1</title></circle>
	<circle cx="237.76" cy="362.52" data-y="1.57" data-x="1594425600" r="1" fill="white"><title>2020-07-11: 2</title></circle>
	<circle cx="239.38" cy="364.16" data-y="1.36" data-x="1594512000" r="1" fill="white"><title>2020-07-12: 1</title></circle>
	<circle cx="241.00" cy="366.79" data-y="1.03" data-x="1594598400" r="1" fill="white"><title>2020-07-13: 1</title></circle>
	<circle cx="242.63" cy="366.79" data-y="1.03" data-x="1594684800" r="1" fill="white"><title>2020-07-14: 1</title></circle>
	<circle cx="244.25" cy="366.79" data-y="1.03" data-x="1594771200" r="1" fill="white"><title>2020-07-15: 1</title></circle>
	<circle cx="245.88" cy="367.44" data-y="0.95" data-x="1594857600" r="1" fill="white"><title>2020-07-16: 1</title></circle>
	<circle cx="247.50" cy="366.46" data-y="1.07" data-x="1594944000" r="1" fill="white"><title>2020-07-17: 1</title></circle>
	<circle cx="249.12" cy="367.77" data-y="0.91" data-x="1595030400" r="1" fill="white"><title>2020-07-18: 1</title></circle>
	<circle cx="250.75" cy="368.76" data-y="0.78" data-x="1595116800" r="1" fill="white"><title>2020-07-19: 1</title></circle>
	<circle cx="252.37" cy="370.07" data-y="0.62" data-x="1595203200" r="1" fill="white"><title>2020-07-20: 1</title></circle>
	<circle cx="254.00" cy="369.09" data-y="0.74" data-x="1595289600" r="1" fill="white"><title>2020-07-21: 1</title></circle>
	<circle cx="255.62" cy="368.76" data-y="0.78" data-x="1595376000" r="1" fill="white"><title>2020-07-22: 1</title></circle>
	<circle cx="257.24" cy="368.10" data-y="0.87" data-x="1595462400" r="1" fill="white"><title>2020-07-23: 1</title></circle>
	<circle cx="258.87" cy="367.44" data-y="0.95" data-x="1595548800" r="1" fill="white"><title>2020-07-24: 1</title></circle>
	<circle cx="260.49" cy="367.77" data-y="0.91" data-x="1595635200" r="1" fill="white"><title>2020-07-25: 1</title></circle>
	<circle cx="262.12" cy="366.79" data-y="1.03" data-x="1595721600" r="1" fill="white"><title>2020-07-26: 1</title></circle>
	<circle cx="263.74" cy="366.46" data-y="1.07" data-x="1595808000" r="1" fill="white"><title>2020-07-27: 1</title></circle>
	<circle cx="265.36" cy="365.80" data-y="1.16" data-x="1595894400" r="1" fill="white"><title>2020-07-28: 1</title></circle>
	<circle cx="266.99" cy="366.13" data-y="1.11" data-x="1595980800" r="1" fill="white"><title>2020-07-29: 1</title></circle>
	<circle cx="268.61" cy="367.12" data-y="0.99" data-x="1596067200" r="1" fill="white"><title>2020-07-30: 1</title></circle>
	<circle cx="270.24" cy="368.10" data-y="0.87" data-x="1596153600" r="1" fill="white"><title>2020-07-31: 1</title></circle>
	<circle cx="271.86" cy="367.44" data-y="0.95" data-x="1596240000" r="1" fill="white"><title>2020-08-01: 1</title></circle>
	<circle cx="273.49" cy="366.79" data-y="1.03" data-x="1596326400" r="1" fill="white"><title>2020-08-02: 1</title></circle>
	<circle cx="275.11" cy="366.13" data-y="1.11" data-x="1596412800" r="1" fill="white"><title>2020-08-03: 1</title></circle>
	<circle cx="276.73" cy="367.77" data-y="0.91" data-x="1596499200" r="1" fill="white"><title>2020-08-04: 1</title></circle>
	<circle cx="278.36" cy="368.43" data-y="0.83" data-x="1596585600" r="1" fill="white"><title>2020-08-05: 1</title></circle>
	<circle cx="279.98" cy="368.43" data-y="0.83" data-x="1596672000" r="1" fill="white"><title>2020-08-06: 1</title></circle>
	<circle cx="281.61" cy="368.10" data-y="0.87" data-x="1596758400" r="1" fill="white"><title>2020-08-07: 1</title></circle>
	<circle cx="283.23" cy="368.43" data-y="0.83" data-x="1596844800" r="1" fill="white"><title>2020-08-08: 1</title></circle>
	<circle cx="284.85" cy="370.07" data-y="0.62" data-x="1596931200" r="1" fill="white"><title>2020-08-09: 1</title></circle>
	<circle cx="286.48" cy="369.41" data-y="0.70" data-x="1597017600" r="1" fill="white"><title>2020-08-10: 1</title></circle>
	<circle cx="288.10" cy="369.09" data-y="0.74" data-x="1597104000" r="1" fill="white"><title>2020-08-11: 1</title></circle>
	<circle cx="289.73" cy="368.10" data-y="0.87" data-x="1597190400" r="1" fill="white"><title>2020-08-12: 1</title></circle>
	<circle cx="291.35" cy="368.10" data-y="0.87" data-x="1597276800" r="1" fill="white"><title>2020-08-13: 1</title></circle>
	<circle cx="292.97" cy="368.43" data-y="0.83" data-x="1597363200" r="1" fill="white"><title>2020-08-14: 1</title></circle>
	<circle cx="294.60" cy="368.43" data-y="0.83" data-x="1597449600" r="1" fill="white"><title>2020-08-15: 1</title></circle>
	<circle cx="296.22" cy="365.80" data-y="1.16" data-x="1597536000" r="1" fill="white"><title>2020-08-16: 1</title></circle>
	<circle cx="297.85" cy="365.80" data-y="1.16" data-x="1597622400" r="1" fill="white"><title>2020-08-17: 1</title></circle>
	<circle cx="299.47" cy="366.46" data-y="1.07" data-x="1597708800" r="1" fill="white"><title>2020-08-18: 1</title></circle>
	<circle cx="301.09" cy="365.80" data-y="1.16" data-x="1597795200" r="1" fill="white"><title>2020-08-19: 1</title></circle>
	<circle cx="302.72" cy="365.14" data-y="1.24" data-x="1597881600" r="1" fill="white"><title>2020-08-20: 1</title></circle>
	<circle cx="304.34" cy="364.82" data-y="1.28" data-x="1597968000" r="1" fill="white"><title>2020-08-21: 1</title></circle>
	<circle cx="305.97" cy="365.47" data-y="1.20" data-x="1598054400" r="1" fill="white"><title>2020-08-22: 1</title></circle>
	<circle cx="307.59" cy="365.47" data-y="1.20" data-x="1598140800" r="1" fill="white"><title>2020-08-23: 1</title></circle>
	<circle cx="309.22" cy="366.79" data-y="1.03" data-x="1598227200" r="1" fill="white"><title>2020-08-24: 1</title></circle>
	<circle cx="310.84" cy="366.46" data-y="1.07" data-x="1598313600" r="1" fill="white"><title>2020-08-25: 1</title></circle>
	<circle cx="312.46" cy="366.46" data-y="1.07" data-x="1598400000" r="1" fill="white"><title>2020-08-26: 1</title></circle>
	<circle cx="314.09" cy="366.13" data-y="1.11" data-x="1598486400" r="1" fill="white"><title>2020-08-27: 1</title></circle>
	<circle cx="315.71" cy="364.82" data-y="1.28" data-x="1598572800" r="1" fill="white"><title>2020-08-28: 1</title></circle>
	<circle cx="317.34" cy="362.19" data-y="1.61" data-x="1598659200" r="1" fill="white"><title>2020-08-29: 2</title></circle>
	<circle cx="318.96" cy="359.89" data-y="1.90" data-x="1598745600" r="1" fill="white"><title>2020-08-30: 2</title></circle>
	<circle cx="320.58" cy="356.60" data-y="2.31" data-x="1598832000" r="1" fill="white"><title>2020-08-31: 2</title></circle>
	<circle cx="322.21" cy="355.62" data-y="2.43" data-x="1598918400" r="1" fill="white"><title>2020-09-01: 2</title></circle>
	<circle cx="323.83" cy="352.33" data-y="2.85" data-x="1599004800" r="1" fill="white"><title>2020-09-02: 3</title></circle>
	<circle cx="325.46" cy="351.02" data-y="3.01" data-x="1599091200" r="1" fill="white"><title>2020-09-03: 3</title></circle>
	<circle cx="327.08" cy="344.45" data-y="3.84" data-x="1599177600" r="1" fill="white"><title>2020-09-04: 4</title></circle>
	<circle cx="328.70" cy="342.15" data-y="4.13" data-x="1599264000" r="1" fill="white"><title>2020-09-05: 4</title></circle>
	<circle cx="330.33" cy="343.46" data-y="3.96" data-x="1599350400" r="1" fill="white"><title>2020-09-06: 4</title></circle>
	<circle cx="331.95" cy="342.80" data-y="4.04" data-x="1599436800" r="1" fill="white"><title>2020-09-07: 4</title></circle>
	<circle cx="333.58" cy="338.53" data-y="4.58" data-x="1599523200" r="1" fill="white"><title>2020-09-08: 5</title></circle>
	<circle cx="335.20" cy="339.52" data-y="4.46" data-x="1599609600" r="1" fill="white"><title>2020-09-09: 4</title></circle>
	<circle cx="336.82" cy="340.18" data-y="4.37" data-x="1599696000" r="1" fill="white"><title>2020-09-10: 4</title></circle>
	<circle cx="338.45" cy="343.79" data-y="3.92" data-x="1599782400" r="1" fill="white"><title>2020-09-11: 4</title></circle>
	<circle cx="340.07" cy="344.77" data-y="3.80" data-x="1599868800" r="1" fill="white"><title>2020-09-12: 4</title></circle>
	<circle cx="341.70" cy="339.19" data-y="4.50" data-x="1599955200" r="1" fill="white"><title>2020-09-13: 4</title></circle>
	<circle cx="343.32" cy="339.52" data-y="4.46" data-x="1600041600" r="1" fill="white"><title>2020-09-14: 4</title></circle>
	<circle cx="344.95" cy="337.55" data-y="4.70" data-x="1600128000" r="1" fill="white"><title>2020-09-15: 5</title></circle>
	<circle cx="346.57" cy="331.31" data-y="5.49" data-x="1600214400" r="1" fill="white"><title>2020-09-16: 5</title></circle>
	<circle cx="348.19" cy="325.72" data-y="6.19" data-x="1600300800" r="1" fill="white"><title>2020-09-17: 6</title></circle>
	<circle cx="349.82" cy="320.14" data-y="6.89" data-x="1600387200" r="1" fill="white"><title>2020-09-18: 7</title></circle>
	<circle cx="351.44" cy="312.25" data-y="7.88" data-x="1600473600" r="1" fill="white"><title>2020-09-19: 8</title></circle>
	<circle cx="353.07" cy="310.94" data-y="8.05" data-x="1600560000" r="1" fill="white"><title>2020-09-20: 8</title></circle>
	<circle cx="354.69" cy="304.69" data-y="8.83" data-x="1600646400" r="1" fill="white"><title>2020-09-21: 9</title></circle>
	<circle cx="356.31" cy="299.77" data-y="9.45" data-x="1600732800" r="1" fill="white"><title>2020-09-22: 9</title></circle>
	<circle cx="357.94" cy="298.45" data-y="9.61" data-x="1600819200" r="1" fill="white"><title>2020-09-23: 10</title></circle>
	<circle cx="359.56" cy="292.87" data-y="10.32" data-x="1600905600" r="1" fill="white"><title>2020-09-24: 10</title></circle>
	<circle cx="361.19" cy="290.24" data-y="10.65" data-x="1600992000" r="1" fill="white"><title>2020-09-25: 11</title></circle>
	<circle cx="362.81" cy="284.00" data-y="11.43" data-x="1601078400" r="1" fill="white"><title>2020-09-26: 11</title></circle>
	<circle cx="364.43" cy="273.48" data-y="12.75" data-x="1601164800" r="1" fill="white"><title>2020-09-27: 13</title></circle>
	<circle cx="366.06" cy="263.63" data-y="13.99" data-x="1601251200" r="1" fill="white"><title>2020-09-28: 14</title></circle>
	<circle cx="367.68" cy="252.13" data-y="15.43" data-x="1601337600" r="1" fill="white"><title>2020-09-29: 15</title></circle>
	<circle cx="369.31" cy="244.90" data-y="16.34" data-x="1601424000" r="1" fill="white"><title>2020-09-30: 16</title></circle>
	<circle cx="370.93" cy="233.40" data-y="17.79" data-x="1601510400" r="1" fill="white"><title>2020-10-01: 18</title></circle>
	<circle cx="372.55" cy="220.59" data-y="19.39" data-x="1601596800" r="1" fill="white"><title>2020-10-02: 19</title></circle>
	<circle cx="374.18" cy="205.48" data-y="21.29" data-x="1601683200" r="1" fill="white"><title>2020-10-03: 21</title></circle>
	<circle cx="375.80" cy="191.02" data-y="23.11" data-x="1601769600" r="1" fill="white"><title>2020-10-04: 23</title></circle>
	<circle cx="377.43" cy="178.21" data-y="24.72" data-x="1601856000" r="1" fill="white"><title>2020-10-05: 25</title></circle>
	<circle cx="379.05" cy="176.24" data-y="24.97" data-x="1601942400" r="1" fill="white"><title>2020-10-06: 25</title></circle>
	<circle cx="380.68" cy="168.35" data-y="25.96" data-x="1602028800" r="1" fill="white"><title>2020-10-07: 26</title></circle>
	<circle cx="382.30" cy="171.31" data-y="25.58" data-x="1602115200" r="1" fill="white"><title>2020-10-08: 26</title></circle>
	<circle cx="383.92" cy="161.45" data-y="26.82" data-x="1602201600" r="1" fill="white"><title>2020-10-09: 27</title></circle>
	<circle cx="385.55" cy="163.10" data-y="26.62" data-x="1602288000" r="1" fill="white"><title>2020-10-10: 27</title></circle>
	<circle cx="387.17" cy="167.04" data-y="26.12" data-x="1602374400" r="1" fill="white"><title>2020-10-11: 26</title></circle>
	<circle cx="388.80" cy="167.37" data-y="26.08" data-x="1602460800" r="1" fill="white"><title>2020-10-12: 26</title></circle>
	<circle cx="390.42" cy="161.45" data-y="26.82" data-x="1602547200" r="1" fill="white"><title>2020-10-13: 27</title></circle>
	<circle cx="392.04" cy="164.41" data-y="26.45" data-x="1602633600" r="1" fill="white"><title>2020-10-14: 26</title></circle>
	<circle cx="393.67" cy="155.87" data-y="27.52" data-x="1602720000" r="1" fill="white"><title>2020-10-15: 28</title></circle>
	<circle cx="395.29" cy="148.31" data-y="28.47" data-x="1602806400" r="1" fill="white"><title>2020-10-16: 28</title></circle>
	<circle cx="396.92" cy="139.44" data-y="29.59" data-x="1602892800" r="1" fill="white"><title>2020-10-17: 30</title></circle>
	<circle cx="398.54" cy="126.30" data-y="31.24" data-x="1602979200" r="1" fill="white"><title>2020-10-18: 31</title></circle>
	<circle cx="400.16" cy="128.93" data-y="30.91" data-x="1603065600" r="1" fill="white"><title>2020-10-19: 31</title></circle>
	<circle cx="401.79" cy="130.57" data-y="30.70" data-x="1603152000" r="1" fill="white"><title>2020-10-20: 31</title></circle>
	<circle cx="403.41" cy="126.63" data-y="31.20" data-x="1603238400" r="1" fill="white"><title>2020-10-21: 31</title></circle>
	<circle cx="405.04" cy="116.77" data-y="32.43" data-x="1603324800" r="1" fill="white"><title>2020-10-22: 32</title></circle>
	<circle cx="406.66" cy="114.47" data-y="32.72" data-x="1603411200" r="1" fill="white"><title>2020-10-23: 33</title></circle>
	<circle cx="408.28" cy="110.86" data-y="33.18" data-x="1603497600" r="1" fill="white"><title>2020-10-24: 33</title></circle>
	<circle cx="409.91" cy="115.79" data-y="32.56" data-x="1603584000" r="1" fill="white"><title>2020-10-25: 33</title></circle>
	<circle cx="411.53" cy="99.36" data-y="34.62" data-x="1603670400" r="1" fill="white"><title>2020-10-26: 35</title></circle>
	<circle cx="413.16" cy="91.48" data-y="35.61" data-x="1603756800" r="1" fill="white"><title>2020-10-27: 36</title></circle>
	<circle cx="414.78" cy="92.79" data-y="35.45" data-x="1603843200" r="1" fill="white"><title>2020-10-28: 35</title></circle>
	<circle cx="416.41" cy="102.65" data-y="34.21" data-x="1603929600" r="1" fill="white"><title>2020-10-29: 34</title></circle>
	<circle cx="418.03" cy="97.72" data-y="34.83" data-x="1604016000" r="1" fill="white"><title>2020-10-30: 35</title></circle>
	<circle cx="419.65" cy="100.35" data-y="34.50" data-x="1604102400" r="1" fill="white"><title>2020-10-31: 34</title></circle>
	<circle cx="421.28" cy="92.13" data-y="35.53" data-x="1604188800" r="1" fill="white"><title>2020-11-01: 36</title></circle>
	<circle cx="422.90" cy="88.52" data-y="35.98" data-x="1604275200" r="1" fill="white"><title>2020-11-02: 36</title></circle>
	<circle cx="424.53" cy="72.75" data-y="37.96" data-x="1604361600" r="1" fill="white"><title>2020-11-03: 38</title></circle>
	<circle cx="426.15" cy="63.22" data-y="39.16" data-x="1604448000" r="1" fill="white"><title>2020-11-04: 39</title></circle>
	<circle cx="427.77" cy="50.08" data-y="40.81" data-x="1604534400" r="1" fill="white"><title>2020-11-05: 41</title></circle>
	<circle cx="429.40" cy="33.98" data-y="42.83" data-x="1604620800" r="1" fill="white"><title>2020-11-06: 43</title></circle>
	<circle cx="431.02" cy="19.20" data-y="44.69" data-x="1604707200" r="1" fill="white"><title>2020-11-07: 45</title></circle>
	<circle cx="432.65" cy="10.00" data-y="45.85" data-x="1604793600" r="1" fill="white"><title>2020-11-08: 46</title></circle>
	<circle cx="434.27" cy="20.18" data-y="44.57" data-x="1604880000" r="1" fill="white"><title>2020-11-09: 45</title></circle>
	<circle cx="435.89" cy="29.38" data-y="43.41" data-x="1604966400" r="1" fill="white"><title>2020-11-10: 43</title></circle>
	<circle cx="437.52" cy="29.38" data-y="43.41" data-x="1605052800" r="1" fill="white"><title>2020-11-11: 43</title></circle>
	<circle cx="439.14" cy="35.63" data-y="42.63" data-x="1605139200" r="1" fill="white"><title>2020-11-12: 43</title></circle>
	<circle cx="440.77" cy="62.24" data-y="39.28" data-x="1605225600" r="1" fill="white"><title>2020-11-13: 39</title></circle>
	<circle cx="442.39" cy="81.62" data-y="36.85" data-x="1605312000" r="1" fill="white"><title>2020-11-14: 37</title></circle>
	<circle cx="444.01" cy="105.60" data-y="33.84" data-x="1605398400" r="1" fill="white"><title>2020-11-15: 34</title></circle>
	<circle cx="445.64" cy="117.10" data-y="32.39" data-x="1605484800" r="1" fill="white"><title>2020-11-16: 32</title></circle>
	<circle cx="447.26" cy="144.04" data-y="29.01" data-x="1605571200" r="1" fill="white"><title>2020-11-17: 29</title></circle>
	<circle cx="448.89" cy="170.65" data-y="25.67" data-x="1605657600" r="1" fill="white"><title>2020-11-18: 26</title></circle>
	<circle cx="450.51" cy="190.36" data-y="23.19" data-x="1605744000" r="1" fill="white"><title>2020-11-19: 23</title></circle>
	<circle cx="452.14" cy="210.41" data-y="20.67" data-x="1605830400" r="1" fill="white"><title>2020-11-20: 21</title></circle>
	<circle cx="453.76" cy="233.73" data-y="17.74" data-x="1605916800" r="1" fill="white"><title>2020-11-21: 18</title></circle>
	<circle cx="455.38" cy="247.53" data-y="16.01" data-x="1606003200" r="1" fill="white"><title>2020-11-22: 16</title></circle>
	<circle cx="457.01" cy="262.31" data-y="14.15" data-x="1606089600" r="1" fill="white"><title>2020-11-23: 14</title></circle>
	<circle cx="458.63" cy="262.97" data-y="14.07" data-x="1606176000" r="1" fill="white"><title>2020-11-24: 14</title></circle>
	<circle cx="460.26" cy="254.76" data-y="15.10" data-x="1606262400" r="1" fill="white"><title>2020-11-25: 15</title></circle>
	<circle cx="461.88" cy="261.66" data-y="14.24" data-x="1606348800" r="1" fill="white"><title>2020-11-26: 14</title></circle>
</g>
<g data-series="recent-cases" class="data-series">
	<path d="M 461.88,261.66L 463.50,269.87L 465.13,283.67L 466.75,291.06L 468.38,294.05L 470.00,304.86" id="Recent cases" class="line" stroke-width="1" stroke-linecap="round" stroke-dasharray="4,6" stroke-dashoffset="4"><title>Recent cases</title></path>
	<circle cx="461.88" cy="261.66" data-y="14.24" data-x="1606348800" r="2.5" fill="white"><title>2020-11-26: 14</title></circle>
	<circle cx="463.50" cy="269.87" data-y="13.20" data-x="1606435200" r="2.5" fill="white"><title>2020-11-27: 13</title></circle>
	<circle cx="465.13" cy="283.67" data-y="11.47" data-x="1606521600" r="2.5" fill="white"><title>2020-11-28: 11</title></circle>
	<circle cx="466.75" cy="291.06" data-y="10.54" data-x="1606608000" r="2.5" fill="white"><title>2020-11-29: 11</title></circle>
	<circle cx="468.38" cy="294.05" data-y="10.17" data-x="1606694400" r="2.5" fill="white"><title>2020-11-30: 10</title></circle>
	<circle cx="470.00" cy="304.86" data-y="8.81" data-x="1606780800" r="2.5" fill="white"><title>2020-12-01: 9</title></circle>
</g>
</svg>
