<svg width="480" height="400" viewBox="0 0 480 400" xmlns="http://www.w3.org/2000/svg" style="overflow:display" preserveAspectRatio="xMinYMin meet" overflow="visible">
<defs>
	<style>
	.data-series path.line { fill-opacity: 0; stroke: black; }
	.data-series path.line.dotted { stroke-dasharray: 12 20 }
	.data-series:hover path.line, .data-series.on path.line { stroke-width: 1; }
	.data-series:hover circle, .data-series.on circle { display: inline; }
	.graph-grid { font-family: "Helvetica Neue",Helvetica,Arial,"Lucida Grande",sans-serif; }
	.graph-grid line { stroke: black; stroke-width: 1; stroke-linecap: round; }
	.graph-grid.graph-grid-x text { text-anchor: middle; dominant-baseline: hanging; transform: translateY(10px); }
	.graph-grid.graph-grid-y text { text-anchor: end; dominant-baseline: middle; transform: translateX(-10px); }
	</style>
</defs>
<g class="graph-grid graph-grid-y">
	<line x1="25.00" y1="375.00" x2="470.00" y2="375.00" data-left="25"></line>
	<text x="35" y="375" text-anchor="end">0</text>
	<text x="35" y="273.915109038737" text-anchor="end">20</text>
	<text x="35" y="172.830218077475" text-anchor="end">40</text>
	<text x="35" y="71.7453271162124" text-anchor="end">60</text>
	<text style="text-anchor:middle;dominant-baseline:hanging;font-weight:bold;transform: translateY(192.5px) rotate(-90deg);"></text>
</g>
<g class="graph-grid graph-grid-x">
	<line class="tick" x1="56.48" y1="375.00" x2="56.48" y2="380.00"></line>
	<text x="56.4790996784566" y="375" text-anchor="middle">A</text>
	<line class="tick" x1="99.41" y1="375.00" x2="99.41" y2="380.00"></line>
	<text x="99.4051446945338" y="375" text-anchor="middle">M</text>
	<line class="tick" x1="143.76" y1="375.00" x2="143.76" y2="380.00"></line>
	<text x="143.762057877814" y="375" text-anchor="middle">J</text>
	<line class="tick" x1="186.69" y1="375.00" x2="186.69" y2="380.00"></line>
	<text x="186.688102893891" y="375" text-anchor="middle">J</text>
	<line class="tick" x1="231.05" y1="375.00" x2="231.05" y2="380.00"></line>
	<text x="231.04501607717" y="375" text-anchor="middle">A</text>
	<line class="tick" x1="275.40" y1="375.00" x2="275.40" y2="380.00"></line>
	<text x="275.40192926045" y="375" text-anchor="middle">S</text>
	<line class="tick" x1="318.33" y1="375.00" x2="318.33" y2="380.00"></line>
	<text x="318.327974276527" y="375" text-anchor="middle">O</text>
	<line class="tick" x1="362.68" y1="375.00" x2="362.68" y2="380.00"></line>
	<text x="362.684887459807" y="375" text-anchor="middle">N</text>
	<line class="tick" x1="405.61" y1="375.00" x2="405.61" y2="380.00"></line>
	<text x="405.610932475884" y="375" text-anchor="middle">D</text>
	<line class="tick" x1="449.97" y1="375.00" x2="449.97" y2="380.00"></line>
	<text x="449.967845659164" y="375" text-anchor="middle">J</text>
	<text style="text-anchor:middle;dominant-baseline:hanging;font-weight:bold;transform: translateY(192.5px) rotate(-90deg);"></text>
</g>
<g data-series="widespread" class="data-series">
	<path d="M 25.00,339.62L 470.00,339.62" id="E06000003-level-0" class="line" stroke-width="1" stroke-linecap="round" stroke-dasharray="3,3" fill-opacity="0.3" opacity="0.3"><title>Widespread</title></path>
</g>
<g data-series="substantial" class="data-series">
	<path d="M 25.00,354.78L 470.00,354.78" id="E06000003-level-1" class="line" stroke-width="1" stroke-linecap="round" stroke-dasharray="3,3" fill-opacity="0.3" opacity="0.3"><title>Substantial</title></path>
</g>
<g data-series="moderate" class="data-series">
	<path d="M 25.00,369.95L 470.00,369.95" id="E06000003-level-2" class="line" stroke-width="1" stroke-linecap="round" stroke-dasharray="3,3" fill-opacity="0.3" opacity="0.3"><title>Moderate</title></path>
</g>
<g data-series="new-cases" class="data-series">
	<path d="M 25.00,374.08L 26.43,374.27L 27.86,374.39L 29.29,374.48L 30.72,374.48L 32.15,374.48L 33.59,373.95L 35.02,373.95L 36.45,373.43L 37.88,371.86L 39.31,370.81L 40.74,370.29L 42.17,368.72L 43.60,366.10L 45.03,360.86L 46.46,355.62L 47.89,353.53L 49.32,350.91L 50.76,347.77L 52.19,343.58L 53.62,343.06L 55.05,339.91L 56.48,338.87L 57.91,338.34L 59.34,337.30L 60.77,335.20L 62.20,340.96L 63.63,339.91L 65.06,343.58L 66.50,342.01L 67.93,342.01L 69.36,339.39L 70.79,343.58L 72.22,339.39L 73.65,340.96L 75.08,342.01L 76.51,344.63L 77.94,342.53L 79.37,344.63L 80.80,336.77L 82.23,331.54L 83.67,328.39L 85.10,322.11L 86.53,324.20L 87.96,327.87L 89.39,325.77L 90.82,327.35L 92.25,328.39L 93.68,326.82L 95.11,324.20L 96.54,323.16L 97.97,320.01L 99.41,321.59L 100.84,315.30L 102.27,318.44L 103.70,318.97L 105.13,327.87L 106.56,328.39L 107.99,328.92L 109.42,331.01L 110.85,342.53L 112.28,342.01L 113.71,346.20L 115.14,349.34L 116.58,349.86L 118.01,353.01L 119.44,350.91L 120.87,347.25L 122.30,350.91L 123.73,347.25L 125.16,344.63L 126.59,347.25L 128.02,345.67L 129.45,349.34L 130.88,350.39L 132.32,349.34L 133.75,353.01L 135.18,355.10L 136.61,355.62L 138.04,356.67L 139.47,351.96L 140.90,355.10L 142.33,356.15L 143.76,358.24L 145.19,358.77L 146.62,358.77L 148.05,361.38L 149.49,367.67L 150.92,369.76L 152.35,371.86L 153.78,372.38L 155.21,372.91L 156.64,373.43L 158.07,372.38L 159.50,372.91L 160.93,372.91L 162.36,372.91L 163.79,373.43L 165.23,373.43L 166.66,373.43L 168.09,374.48L 169.52,373.43L 170.95,373.43L 172.38,373.43L 173.81,373.43L 175.24,372.91L 176.67,371.33L 178.10,371.33L 179.53,372.38L 180.96,372.91L 182.40,372.91L 183.83,372.91L 185.26,372.91L 186.69,374.48L 188.12,374.48L 189.55,374.48L 190.98,374.48L 192.41,373.43L 193.84,373.43L 195.27,373.95L 196.70,373.95L 198.14,373.95L 199.57,373.95L 201.00,373.43L 202.43,374.48L 203.86,374.48L 205.29,373.43L 206.72,373.43L 208.15,372.91L 209.58,372.91L 211.01,373.43L 212.44,373.43L 213.87,373.43L 215.31,374.48L 216.74,374.48L 218.17,375.00L 219.60,374.48L 221.03,374.48L 222.46,371.86L 223.89,371.86L 225.32,371.86L 226.75,371.86L 228.18,371.86L 229.61,372.38L 231.05,372.38L 232.48,375.00L 233.91,375.00L 235.34,375.00L 236.77,375.00L 238.20,375.00L 239.63,375.00L 241.06,374.48L 242.49,373.43L 243.92,372.38L 245.35,370.81L 246.78,370.81L 248.22,370.81L 249.65,370.29L 251.08,370.29L 252.51,371.33L 253.94,371.33L 255.37,371.33L 256.80,370.81L 258.23,369.76L 259.66,368.19L 261.09,367.67L 262.52,364.00L 263.95,360.34L 265.39,360.86L 266.82,360.86L 268.25,358.77L 269.68,357.20L 271.11,354.58L 272.54,355.62L 273.97,357.72L 275.40,356.67L 276.83,353.01L 278.26,352.48L 279.69,353.01L 281.13,354.58L 282.56,353.53L 283.99,355.10L 285.42,356.15L 286.85,359.29L 288.28,361.91L 289.71,364.00L 291.14,364.00L 292.57,361.91L 294.00,359.29L 295.43,355.62L 296.86,353.01L 298.30,349.34L 299.73,343.06L 301.16,338.87L 302.59,336.25L 304.02,333.63L 305.45,333.63L 306.88,328.39L 308.31,326.30L 309.74,321.06L 311.17,314.25L 312.60,314.25L 314.04,301.16L 315.47,287.02L 316.90,280.74L 318.33,262.93L 319.76,258.22L 321.19,248.79L 322.62,230.99L 324.05,224.71L 325.48,223.66L 326.91,224.71L 328.34,229.94L 329.77,223.66L 331.21,224.71L 332.64,213.71L 334.07,190.67L 335.50,181.24L 336.93,182.81L 338.36,175.48L 339.79,149.30L 341.22,127.83L 342.65,126.26L 344.08,141.97L 345.51,150.87L 346.95,141.44L 348.38,140.92L 349.81,166.05L 351.24,184.38L 352.67,196.95L 354.10,203.76L 355.53,180.19L 356.96,179.67L 358.39,173.91L 359.82,157.68L 361.25,139.35L 362.68,111.07L 364.12,96.41L 365.55,93.26L 366.98,72.84L 368.41,56.61L 369.84,34.09L 371.27,24.66L 372.70,22.04L 374.13,10.00L 375.56,16.28L 376.99,24.14L 378.42,26.23L 379.86,38.80L 381.29,56.08L 382.72,66.03L 384.15,83.84L 385.58,97.45L 387.01,120.49L 388.44,161.34L 389.87,192.24L 391.30,210.04L 392.73,236.75L 394.16,258.74L 395.59,272.36L 397.03,272.36L 398.46,272.36L 399.89,270.27L 401.32,273.41L 402.75,281.26L 404.18,281.79L 405.61,274.45L 407.04,274.45L 408.47,270.27L 409.90,272.88L 411.33,272.36L 412.77,268.17L 414.20,271.31L 415.63,274.98L 417.06,276.03L 418.49,271.84L 419.92,272.88L 421.35,272.88L 422.78,274.98L 424.21,269.74L 425.64,271.84L 427.07,275.50L 428.50,279.69L 429.94,283.36L 431.37,282.31L 432.80,276.55L 434.23,278.12L 435.66,282.83L 437.09,270.79L 438.52,249.84L 439.95,233.08L 441.38,189.62L 442.81,154.53L 444.24,134.11L 445.68,118.40L 447.11,96.41L 448.54,69.70L 449.97,31.47L 451.40,45.09L 452.83,50.85L 454.26,33.04L 455.69,28.85L 457.12,42.99L 458.55,76.51L 459.98,82.79L 461.41,84.89L 462.85,80.17" id="New cases" class="line" stroke-width="1" stroke-linecap="round"><title>New cases</title></path>
	<circle cx="25.00" cy="374.08" data-y="0.18" data-x="1583798400" r="1" fill="white"><title>2020-03-10: 0</title></circle>
	<circle cx="26.43" cy="374.27" data-y="0.15" data-x="1583884800" r="1" fill="white"><title>2020-03-11: 0</title></circle>
	<circle cx="27.86" cy="374.39" data-y="0.12" data-x="1583971200" r="1" fill="white"><title>2020-03-12: 0</title></circle>
	<circle cx="29.29" cy="374.48" data-y="0.10" data-x="1584057600" r="1" fill="white"><title>2020-03-13: 0</title></circle>
	<circle cx="30.72" cy="374.48" data-y="0.10" data-x="1584144000" r="1" fill="white"><title>2020-03-14: 0</title></circle>
	<circle cx="32.15" cy="374.48" data-y="0.10" data-x="1584230400" r="1" fill="white"><title>2020-03-15: 0</title></circle>
	<circle cx="33.59" cy="373.95" data-y="0.21" data-x="1584316800" r="1" fill="white"><title>2020-03-16: 0</title></circle>
	<circle cx="35.02" cy="373.95" data-y="0.21" data-x="1584403200" r="1" fill="white"><title>2020-03-17: 0</title></circle>
	<circle cx="36.45" cy="373.43" data-y="0.31" data-x="1584489600" r="1" fill="white"><title>2020-03-18: 0</title></circle>
	<circle cx="37.88" cy="371.86" data-y="0.62" data-x="1584576000" r="1" fill="white"><title>2020-03-19: 1</title></circle>
	<circle cx="39.31" cy="370.81" data-y="0.83" data-x="1584662400" r="1" fill="white"><title>2020-03-20: 1</title></circle>
	<circle cx="40.74" cy="370.29" data-y="0.93" data-x="1584748800" r="1" fill="white"><title>2020-03-21: 1</title></circle>
	<circle cx="42.17" cy="368.72" data-y="1.24" data-x="1584835200" r="1" fill="white"><title>2020-03-22: 1</title></circle>
	<circle cx="43.60" cy="366.10" data-y="1.76" data-x="1584921600" r="1" fill="white"><title>2020-03-23: 2</title></circle>
	<circle cx="45.03" cy="360.86" data-y="2.80" data-x="1585008000" r="1" fill="white"><title>2020-03-24: 3</title></circle>
	<circle cx="46.46" cy="355.62" data-y="3.83" data-x="1585094400" r="1" fill="white"><title>2020-03-25: 4</title></circle>
	<circle cx="47.89" cy="353.53" data-y="4.25" data-x="1585180800" r="1" fill="white"><title>2020-03-26: 4</title></circle>
	<circle cx="49.32" cy="350.91" data-y="4.77" data-x="1585267200" r="1" fill="white"><title>2020-03-27: 5</title></circle>
	<circle cx="50.76" cy="347.77" data-y="5.39" data-x="1585353600" r="1" fill="white"><title>2020-03-28: 5</title></circle>
	<circle cx="52.19" cy="343.58" data-y="6.22" data-x="1585440000" r="1" fill="white"><title>2020-03-29: 6</title></circle>
	<circle cx="53.62" cy="343.06" data-y="6.32" data-x="1585526400" r="1" fill="white"><title>2020-03-30: 6</title></circle>
	<circle cx="55.05" cy="339.91" data-y="6.94" data-x="1585612800" r="1" fill="white"><title>2020-03-31: 7</title></circle>
	<circle cx="56.48" cy="338.87" data-y="7.15" data-x="1585699200" r="1" fill="white"><title>2020-04-01: 7</title></circle>
	<circle cx="57.91" cy="338.34" data-y="7.25" data-x="1585785600" r="1" fill="white"><title>2020-04-02: 7</title></circle>
	<circle cx="59.34" cy="337.30" data-y="7.46" data-x="1585872000" r="1" fill="white"><title>2020-04-03: 7</title></circle>
	<circle cx="60.77" cy="335.20" data-y="7.87" data-x="1585958400" r="1" fill="white"><title>2020-04-04: 8</title></circle>
	<circle cx="62.20" cy="340.96" data-y="6.73" data-x="1586044800" r="1" fill="white"><title>2020-04-05: 7</title></circle>
	<circle cx="63.63" cy="339.91" data-y="6.94" data-x="1586131200" r="1" fill="white"><title>2020-04-06: 7</title></circle>
	<circle cx="65.06" cy="343.58" data-y="6.22" data-x="1586217600" r="1" fill="white"><title>2020-04-07: 6</title></circle>
	<circle cx="66.50" cy="342.01" data-y="6.53" data-x="1586304000" r="1" fill="white"><title>2020-04-08: 7</title></circle>
	<circle cx="67.93" cy="342.01" data-y="6.53" data-x="1586390400" r="1" fill="white"><title>2020-04-09: 7</title></circle>
	<circle cx="69.36" cy="339.39" data-y="7.05" data-x="1586476800" r="1" fill="white"><title>2020-04-10: 7</title></circle>
	<circle cx="70.79" cy="343.58" data-y="6.22" data-x="1586563200" r="1" fill="white"><title>2020-04-11: 6</title></circle>
	<circle cx="72.22" cy="339.39" data-y="7.05" data-x="1586649600" r="1" fill="white"><title>2020-04-12: 7</title></circle>
	<circle cx="73.65" cy="340.96" data-y="6.73" data-x="1586736000" r="1" fill="white"><title>2020-04-13: 7</title></circle>
	<circle cx="75.08" cy="342.01" data-y="6.53" data-x="1586822400" r="1" fill="white"><title>2020-04-14: 7</title></circle>
	<circle cx="76.51" cy="344.63" data-y="6.01" data-x="1586908800" r="1" fill="white"><title>2020-04-15: 6</title></circle>
	<circle cx="77.94" cy="342.53" data-y="6.42" data-x="1586995200" r="1" fill="white"><title>2020-04-16: 6</title></circle>
	<circle cx="79.37" cy="344.63" data-y="6.01" data-x="1587081600" r="1" fill="white"><title>2020-04-17: 6</title></circle>
	<circle cx="80.80" cy="336.77" data-y="7.56" data-x="1587168000" r="1" fill="white"><title>2020-04-18: 8</title></circle>
	<circle cx="82.23" cy="331.54" data-y="8.60" data-x="1587254400" r="1" fill="white"><title>2020-04-19: 9</title></circle>
	<circle cx="83.67" cy="328.39" data-y="9.22" data-x="1587340800" r="1" fill="white"><title>2020-04-20: 9</title></circle>
	<circle cx="85.10" cy="322.11" data-y="10.46" data-x="1587427200" r="1" fill="white"><title>2020-04-21: 10</title></circle>
	<circle cx="86.53" cy="324.20" data-y="10.05" data-x="1587513600" r="1" fill="white"><title>2020-04-22: 10</title></circle>
	<circle cx="87.96" cy="327.87" data-y="9.32" data-x="1587600000" r="1" fill="white"><title>2020-04-23: 9</title></circle>
	<circle cx="89.39" cy="325.77" data-y="9.74" data-x="1587686400" r="1" fill="white"><title>2020-04-24: 10</title></circle>
	<circle cx="90.82" cy="327.35" data-y="9.43" data-x="1587772800" r="1" fill="white"><title>2020-04-25: 9</title></circle>
	<circle cx="92.25" cy="328.39" data-y="9.22" data-x="1587859200" r="1" fill="white"><title>2020-04-26: 9</title></circle>
	<circle cx="93.68" cy="326.82" data-y="9.53" data-x="1587945600" r="1" fill="white"><title>2020-04-27: 10</title></circle>
	<circle cx="95.11" cy="324.20" data-y="10.05" data-x="1588032000" r="1" fill="white"><title>2020-04-28: 10</title></circle>
	<circle cx="96.54" cy="323.16" data-y="10.26" data-x="1588118400" r="1" fill="white"><title>2020-04-29: 10</title></circle>
	<circle cx="97.97" cy="320.01" data-y="10.88" data-x="1588204800" r="1" fill="white"><title>2020-04-30: 11</title></circle>
	<circle cx="99.41" cy="321.59" data-y="10.57" data-x="1588291200" r="1" fill="white"><title>2020-05-01: 11</title></circle>
	<circle cx="100.84" cy="315.30" data-y="11.81" data-x="1588377600" r="1" fill="white"><title>2020-05-02: 12</title></circle>
	<circle cx="102.27" cy="318.44" data-y="11.19" data-x="1588464000" r="1" fill="white"><title>2020-05-03: 11</title></circle>
	<circle cx="103.70" cy="318.97" data-y="11.09" data-x="1588550400" r="1" fill="white"><title>2020-05-04: 11</title></circle>
	<circle cx="105.13" cy="327.87" data-y="9.32" data-x="1588636800" r="1" fill="white"><title>2020-05-05: 9</title></circle>
	<circle cx="106.56" cy="328.39" data-y="9.22" data-x="1588723200" r="1" fill="white"><title>2020-05-06: 9</title></circle>
	<circle cx="107.99" cy="328.92" data-y="9.12" data-x="1588809600" r="1" fill="white"><title>2020-05-07: 9</title></circle>
	<circle cx="109.42" cy="331.01" data-y="8.70" data-x="1588896000" r="1" fill="white"><title>2020-05-08: 9</title></circle>
	<circle cx="110.85" cy="342.53" data-y="6.42" data-x="1588982400" r="1" fill="white"><title>2020-05-09: 6</title></circle>
	<circle cx="112.28" cy="342.01" data-y="6.53" data-x="1589068800" r="1" fill="white"><title>2020-05-10: 7</title></circle>
	<circle cx="113.71" cy="346.20" data-y="5.70" data-x="1589155200" r="1" fill="white"><title>2020-05-11: 6</title></circle>
	<circle cx="115.14" cy="349.34" data-y="5.08" data-x="1589241600" r="1" fill="white"><title>2020-05-12: 5</title></circle>
	<circle cx="116.58" cy="349.86" data-y="4.97" data-x="1589328000" r="1" fill="white"><title>2020-05-13: 5</title></circle>
	<circle cx="118.01" cy="353.01" data-y="4.35" data-x="1589414400" r="1" fill="white"><title>2020-05-14: 4</title></circle>
	<circle cx="119.44" cy="350.91" data-y="4.77" data-x="1589500800" r="1" fill="white"><title>2020-05-15: 5</title></circle>
	<circle cx="120.87" cy="347.25" data-y="5.49" data-x="1589587200" r="1" fill="white"><title>2020-05-16: 5</title></circle>
	<circle cx="122.30" cy="350.91" data-y="4.77" data-x="1589673600" r="1" fill="white"><title>2020-05-17: 5</title></circle>
	<circle cx="123.73" cy="347.25" data-y="5.49" data-x="1589760000" r="1" fill="white"><title>2020-05-18: 5</title></circle>
	<circle cx="125.16" cy="344.63" data-y="6.01" data-x="1589846400" r="1" fill="white"><title>2020-05-19: 6</title></circle>
	<circle cx="126.59" cy="347.25" data-y="5.49" data-x="1589932800" r="1" fill="white"><title>2020-05-20: 5</title></circle>
	<circle cx="128.02" cy="345.67" data-y="5.80" data-x="1590019200" r="1" fill="white"><title>2020-05-21: 6</title></circle>
	<circle cx="129.45" cy="349.34" data-y="5.08" data-x="1590105600" r="1" fill="white"><title>2020-05-22: 5</title></circle>
	<circle cx="130.88" cy="350.39" data-y="4.87" data-x="1590192000" r="1" fill="white"><title>2020-05-23: 5</title></circle>
	<circle cx="132.32" cy="349.34" data-y="5.08" data-x="1590278400" r="1" fill="white"><title>2020-05-24: 5</title></circle>
	<circle cx="133.75" cy="353.01" data-y="4.35" data-x="1590364800" r="1" fill="white"><title>2020-05-25: 4</title></circle>
	<circle cx="135.18" cy="355.10" data-y="3.94" data-x="1590451200" r="1" fill="white"><title>2020-05-26: 4</title></circle>
	<circle cx="136.61" cy="355.62" data-y="3.83" data-x="1590537600" r="1" fill="white"><title>2020-05-27: 4</title></circle>
	<circle cx="138.04" cy="356.67" data-y="3.63" data-x="1590624000" r="1" fill="white"><title>2020-05-28: 4</title></circle>
	<circle cx="139.47" cy="351.96" data-y="4.56" data-x="1590710400" r="1" fill="white"><title>2020-05-29: 5</title></circle>
	<circle cx="140.90" cy="355.10" data-y="3.94" data-x="1590796800" r="1" fill="white"><title>2020-05-30: 4</title></circle>
	<circle cx="142.33" cy="356.15" data-y="3.73" data-x="1590883200" r="1" fill="white"><title>2020-05-31: 4</title></circle>
	<circle cx="143.76" cy="358.24" data-y="3.32" data-x="1590969600" r="1" fill="white"><title>2020-06-01: 3</title></circle>
	<circle cx="145.19" cy="358.77" data-y="3.21" data-x="1591056000" r="1" fill="white"><title>2020-06-02: 3</title></circle>
	<circle cx="146.62" cy="358.77" data-y="3.21" data-x="1591142400" r="1" fill="white"><title>2020-06-03: 3</title></circle>
	<circle cx="148.05" cy="361.38" data-y="2.69" data-x="1591228800" r="1" fill="white"><title>2020-06-04: 3</title></circle>
	<circle cx="149.49" cy="367.67" data-y="1.45" data-x="1591315200" r="1" fill="white"><title>2020-06-05: 1</title></circle>
	<circle cx="150.92" cy="369.76" data-y="1.04" data-x="1591401600" r="1" fill="white"><title>2020-06-06: 1</title></circle>
	<circle cx="152.35" cy="371.86" data-y="0.62" data-x="1591488000" r="1" fill="white"><title>2020-06-07: 1</title></circle>
	<circle cx="153.78" cy="372.38" data-y="0.52" data-x="1591574400" r="1" fill="white"><title>2020-06-08: 1</title></circle>
	<circle cx="155.21" cy="372.91" data-y="0.41" data-x="1591660800" r="1" fill="white"><title>2020-06-09: 0</title></circle>
	<circle cx="156.64" cy="373.43" data-y="0.31" data-x="1591747200" r="1" fill="white"><title>2020-06-10: 0</title></circle>
	<circle cx="158.07" cy="372.38" data-y="0.52" data-x="1591833600" r="1" fill="white"><title>2020-06-11: 1</title></circle>
	<circle cx="159.50" cy="372.91" data-y="0.41" data-x="1591920000" r="1" fill="white"><title>2020-06-12: 0</title></circle>
	<circle cx="160.93" cy="372.91" data-y="0.41" data-x="1592006400" r="1" fill="white"><title>2020-06-13: 0</title></circle>
	<circle cx="162.36" cy="372.91" data-y="0.41" data-x="1592092800" r="1" fill="white"><title>2020-06-14: 0</title></circle>
	<circle cx="163.79" cy="373.43" data-y="0.31" data-x="1592179200" r="1" fill="white"><title>2020-06-15: 0</title></circle>
	<circle cx="165.23" cy="373.43" data-y="0.31" data-x="1592265600" r="1" fill="white"><title>2020-06-16: 0</title></circle>
	<circle cx="166.66" cy="373.43" data-y="0.31" data-x="1592352000" r="1" fill="white"><title>2020-06-17: 0</title></circle>
	<circle cx="168.09" cy="374.48" data-y="0.10" data-x="1592438400" r="1" fill="white"><title>2020-06-18: 0</title></circle>
	<circle cx="169.52" cy="373.43" data-y="0.31" data-x="1592524800" r="1" fill="white"><title>2020-06-19: 0</title></circle>
	<circle cx="170.95" cy="373.43" data-y="0.31" data-x="1592611200" r="1" fill="white"><title>2020-06-20: 0</title></circle>
	<circle cx="172.38" cy="373.43" data-y="0.31" data-x="1592697600" r="1" fill="white"><title>2020-06-21: 0</title></circle>
	<circle cx="173.81" cy="373.43" data-y="0.31" data-x="1592784000" r="1" fill="white"><title>2020-06-22: 0</title></circle>
	<circle cx="175.24" cy="372.91" data-y="0.41" data-x="1592870400" r="1" fill="white"><title>2020-06-23: 0</title></circle>
	<circle cx="176.67" cy="371.33" data-y="0.73" data-x="1592956800" r="1" fill="white"><title>2020-06-24: 1</title></circle>
	<circle cx="178.10" cy="371.33" data-y="0.73" data-x="1593043200" r="1" fill="white"><title>2020-06-25: 1</title></circle>
	<circle cx="179.53" cy="372.38" data-y="0.52" data-x="1593129600" r="1" fill="white"><title>2020-06-26: 1</title></circle>
	<circle cx="180.96" cy="372.91" data-y="0.41" data-x="1593216000" r="1" fill="white"><title>2020-06-27: 0</title></circle>
	<circle cx="182.40" cy="372.91" data-y="0.41" data-x="1593302400" r="1" fill="white"><title>2020-06-28: 0</title></circle>
	<circle cx="183.83" cy="372.91" data-y="0.41" data-x="1593388800" r="1" fill="white"><title>2020-06-29: 0</title></circle>
	<circle cx="185.26" cy="372.91" data-y="0.41" data-x="1593475200" r="1" fill="white"><title>2020-06-30: 0</title></circle>
	<circle cx="186.69" cy="374.48" data-y="0.10" data-x="1593561600" r="1" fill="white"><title>2020-07-01: 0</title></circle>
	<circle cx="188.12" cy="374.48" data-y="0.10" data-x="1593648000" r="1" fill="white"><title>2020-07-02: 0</title></circle>
	<circle cx="189.55" cy="374.48" data-y="0.10" data-x="1593734400" r="1" fill="white"><title>2020-07-03: 0</title></circle>
	<circle cx="190.98" cy="374.48" data-y="0.10" data-x="1593820800" r="1" fill="white"><title>2020-07-04: 0</title></circle>
	<circle cx="192.41" cy="373.43" data-y="0.31" data-x="1593907200" r="1" fill="white"><title>2020-07-05: 0</title></circle>
	<circle cx="193.84" cy="373.43" data-y="0.31" data-x="1593993600" r="1" fill="white"><title>2020-07-06: 0</title></circle>
	<circle cx="195.27" cy="373.95" data-y="0.21" data-x="1594080000" r="1" fill="white"><title>2020-07-07: 0</title></circle>
	<circle cx="196.70" cy="373.95" data-y="0.21" data-x="1594166400" r="1" fill="white"><title>2020-07-08: 0</title></circle>
	<circle cx="198.14" cy="373.95" data-y="0.21" data-x="1594252800" r="1" fill="white"><title>2020-07-09: 0</title></circle>
	<circle cx="199.57" cy="373.95" data-y="0.21" data-x="1594339200" r="1" fill="white"><title>2020-07-10: 0</title></circle>
	<circle cx="201.00" cy="373.43" data-y="0.31" data-x="1594425600" r="1" fill="white"><title>2020-07-11: 0</title></circle>
	<circle cx="202.43" cy="374.48" data-y="0.10" data-x="1594512000" r="1" fill="white"><title>2020-07-12: 0</title></circle>
	<circle cx="203.86" cy="374.48" data-y="0.10" data-x="1594598400" r="1" fill="white"><title>2020-07-13: 0</title></circle>
	<circle cx="205.29" cy="373.43" data-y="0.31" data-x="1594684800" r="1" fill="white"><title>2020-07-14: 0</title></circle>
	<circle cx="206.72" cy="373.43" data-y="0.31" data-x="1594771200" r="1" fill="white"><title>2020-07-15: 0</title></circle>
	<circle cx="208.15" cy="372.91" data-y="0.41" data-x="1594857600" r="1" fill="white"><title>2020-07-16: 0</title></circle>
	<circle cx="209.58" cy="372.91" data-y="0.41" data-x="1594944000" r="1" fill="white"><title>2020-07-17: 0</title></circle>
	<circle cx="211.01" cy="373.43" data-y="0.31" data-x="1595030400" r="1" fill="white"><title>2020-07-18: 0</title></circle>
	<circle cx="212.44" cy="373.43" data-y="0.31" data-x="1595116800" r="1" fill="white"><title>2020-07-19: 0</title></circle>
	<circle cx="213.87" cy="373.43" data-y="0.31" data-x="1595203200" r="1" fill="white"><title>2020-07-20: 0</title></circle>
	<circle cx="215.31" cy="374.48" data-y="0.10" data-x="1595289600" r="1" fill="white"><title>2020-07-21: 0</title></circle>
	<circle cx="216.74" cy="374.48" data-y="0.10" data-x="1595376000" r="1" fill="white"><title>2020-07-22: 0</title></circle>
	<circle cx="218.17" cy="375.00" data-y="0.00" data-x="1595462400" r="1" fill="white"><title>2020-07-23: 0</title></circle>
	<circle cx="219.60" cy="374.48" data-y="0.10" data-x="1595548800" r="1" fill="white"><title>2020-07-24: 0</title></circle>
	<circle cx="221.03" cy="374.48" data-y="0.10" data-x="1595635200" r="1" fill="white"><title>2020-07-25: 0</title></circle>
	<circle cx="222.46" cy="371.86" data-y="0.62" data-x="1595721600" r="1" fill="white"><title>2020-07-26: 1</title></circle>
	<circle cx="223.89" cy="371.86" data-y="0.62" data-x="1595808000" r="1" fill="white"><title>2020-07-27: 1</title></circle>
	<circle cx="225.32" cy="371.86" data-y="0.62" data-x="1595894400" r="1" fill="white"><title>2020-07-28: 1</title></circle>
	<circle cx="226.75" cy="371.86" data-y="0.62" data-x="1595980800" r="1" fill="white"><title>2020-07-29: 1</title></circle>
	<circle cx="228.18" cy="371.86" data-y="0.62" data-x="1596067200" r="1" fill="white"><title>2020-07-30: 1</title></circle>
	<circle cx="229.61" cy="372.38" data-y="0.52" data-x="1596153600" r="1" fill="white"><title>2020-07-31: 1</title></circle>
	<circle cx="231.05" cy="372.38" data-y="0.52" data-x="1596240000" r="1" fill="white"><title>2020-08-01: 1</title></circle>
	<circle cx="232.48" cy="375.00" data-y="0.00" data-x="1596326400" r="1" fill="white"><title>2020-08-02: 0</title></circle>
	<circle cx="233.91" cy="375.00" data-y="0.00" data-x="1596412800" r="1" fill="white"><title>2020-08-03: 0</title></circle>
	<circle cx="235.34" cy="375.00" data-y="0.00" data-x="1596499200" r="1" fill="white"><title>2020-08-04: 0</title></circle>
	<circle cx="236.77" cy="375.00" data-y="0.00" data-x="1596585600" r="1" fill="white"><title>2020-08-05: 0</title></circle>
	<circle cx="238.20" cy="375.00" data-y="0.00" data-x="1596672000" r="1" fill="white"><title>2020-08-06: 0</title></circle>
	<circle cx="239.63" cy="375.00" data-y="0.00" data-x="1596758400" r="1" fill="white"><title>2020-08-07: 0</title></circle>
	<circle cx="241.06" cy="374.48" data-y="0.10" data-x="1596844800" r="1" fill="white"><title>2020-08-08: 0</title></circle>
	<circle cx="242.49" cy="373.43" data-y="0.31" data-x="1596931200" r="1" fill="white"><title>2020-08-09: 0</title></circle>
	<circle cx="243.92" cy="372.38" data-y="0.52" data-x="1597017600" r="1" fill="white"><title>2020-08-10: 1</title></circle>
	<circle cx="245.35" cy="370.81" data-y="0.83" data-x="1597104000" r="1" fill="white"><title>2020-08-11: 1</title></circle>
	<circle cx="246.78" cy="370.81" data-y="0.83" data-x="1597190400" r="1" fill="white"><title>2020-08-12: 1</title></circle>
	<circle cx="248.22" cy="370.81" data-y="0.83" data-x="1597276800" r="1" fill="white"><title>2020-08-13: 1</title></circle>
	<circle cx="249.65" cy="370.29" data-y="0.93" data-x="1597363200" r="1" fill="white"><title>2020-08-14: 1</title></circle>
	<circle cx="251.08" cy="370.29" data-y="0.93" data-x="1597449600" r="1" fill="white"><title>2020-08-15: 1</title></circle>
	<circle cx="252.51" cy="371.33" data-y="0.73" data-x="1597536000" r="1" fill="white"><title>2020-08-16: 1</title></circle>
	<circle cx="253.94" cy="371.33" data-y="0.73" data-x="1597622400" r="1" fill="white"><title>2020-08-17: 1</title></circle>
	<circle cx="255.37" cy="371.33" data-y="0.73" data-x="1597708800" r="1" fill="white"><title>2020-08-18: 1</title></circle>
	<circle cx="256.80" cy="370.81" data-y="0.83" data-x="1597795200" r="1" fill="white"><title>2020-08-19: 1</title></circle>
	<circle cx="258.23" cy="369.76" data-y="1.04" data-x="1597881600" r="1" fill="white"><title>2020-08-20: 1</title></circle>
	<circle cx="259.66" cy="368.19" data-y="1.35" data-x="1597968000" r="1" fill="white"><title>2020-08-21: 1</title></circle>
	<circle cx="261.09" cy="367.67" data-y="1.45" data-x="1598054400" r="1" fill="white"><title>2020-08-22: 1</title></circle>
	<circle cx="262.52" cy="364.00" data-y="2.18" data-x="1598140800" r="1" fill="white"><title>2020-08-23: 2</title></circle>
	<circle cx="263.95" cy="360.34" data-y="2.90" data-x="1598227200" r="1" fill="white"><title>2020-08-24: 3</title></circle>
	<circle cx="265.39" cy="360.86" data-y="2.80" data-x="1598313600" r="1" fill="white"><title>2020-08-25: 3</title></circle>
	<circle cx="266.82" cy="360.86" data-y="2.80" data-x="1598400000" r="1" fill="white"><title>2020-08-26: 3</title></circle>
	<circle cx="268.25" cy="358.77" data-y="3.21" data-x="1598486400" r="1" fill="white"><title>2020-08-27: 3</title></circle>
	<circle cx="269.68" cy="357.20" data-y="3.52" data-x="1598572800" r="1" fill="white"><title>2020-08-28: 4</title></circle>
	<circle cx="271.11" cy="354.58" data-y="4.04" data-x="1598659200" r="1" fill="white"><title>2020-08-29: 4</title></circle>
	<circle cx="272.54" cy="355.62" data-y="3.83" data-x="1598745600" r="1" fill="white"><title>2020-08-30: 4</title></circle>
	<circle cx="273.97" cy="357.72" data-y="3.42" data-x="1598832000" r="1" fill="white"><title>2020-08-31: 3</title></circle>
	<circle cx="275.40" cy="356.67" data-y="3.63" data-x="1598918400" r="1" fill="white"><title>2020-09-01: 4</title></circle>
	<circle cx="276.83" cy="353.01" data-y="4.35" data-x="1599004800" r="1" fill="white"><title>2020-09-02: 4</title></circle>
	<circle cx="278.26" cy="352.48" data-y="4.46" data-x="1599091200" r="1" fill="white"><title>2020-09-03: 4</title></circle>
	<circle cx="279.69" cy="353.01" data-y="4.35" data-x="1599177600" r="1" fill="white"><title>2020-09-04: 4</title></circle>
	<circle cx="281.13" cy="354.58" data-y="4.04" data-x="1599264000" r="1" fill="white"><title>2020-09-05: 4</title></circle>
	<circle cx="282.56" cy="353.53" data-y="4.25" data-x="1599350400" r="1" fill="white"><title>2020-09-06: 4</title></circle>
	<circle cx="283.99" cy="355.10" data-y="3.94" data-x="1599436800" r="1" fill="white"><title>2020-09-07: 4</title></circle>
	<circle cx="285.42" cy="356.15" data-y="3.73" data-x="1599523200" r="1" fill="white"><title>2020-09-08: 4</title></circle>
	<circle cx="286.85" cy="359.29" data-y="3.11" data-x="1599609600" r="1" fill="white"><title>2020-09-09: 3</title></circle>
	<circle cx="288.28" cy="361.91" data-y="2.59" data-x="1599696000" r="1" fill="white"><title>2020-09-10: 3</title></circle>
	<circle cx="289.71" cy="364.00" data-y="2.18" data-x="1599782400" r="1" fill="white"><title>2020-09-11: 2</title></circle>
	<circle cx="291.14" cy="364.00" data-y="2.18" data-x="1599868800" r="1" fill="white"><title>2020-09-12: 2</title></circle>
	<circle cx="292.57" cy="361.91" data-y="2.59" data-x="1599955200" r="1" fill="white"><title>2020-09-13: 3</title></circle>
	<circle cx="294.00" cy="359.29" data-y="3.11" data-x="1600041600" r="1" fill="white"><title>2020-09-14: 3</title></circle>
	<circle cx="295.43" cy="355.62" data-y="3.83" data-x="1600128000" r="1" fill="white"><title>2020-09-15: 4</title></circle>
	<circle cx="296.86" cy="353.01" data-y="4.35" data-x="1600214400" r="1" fill="white"><title>2020-09-16: 4</title></circle>
	<circle cx="298.30" cy="349.34" data-y="5.08" data-x="1600300800" r="1" fill="white"><title>2020-09-17: 5</title></circle>
	<circle cx="299.73" cy="343.06" data-y="6.32" data-x="1600387200" r="1" fill="white"><title>2020-09-18: 6</title></circle>
	<circle cx="301.16" cy="338.87" data-y="7.15" data-x="1600473600" r="1" fill="white"><title>2020-09-19: 7</title></circle>
	<circle cx="302.59" cy="336.25" data-y="7.67" data-x="1600560000" r="1" fill="white"><title>2020-09-20: 8</title></circle>
	<circle cx="304.02" cy="333.63" data-y="8.19" data-x="1600646400" r="1" fill="white"><title>2020-09-21: 8</title></circle>
	<circle cx="305.45" cy="333.63" data-y="8.19" data-x="1600732800" r="1" fill="white"><title>2020-09-22: 8</title></circle>
	<circle cx="306.88" cy="328.39" data-y="9.22" data-x="1600819200" r="1" fill="white"><title>2020-09-23: 9</title></circle>
	<circle cx="308.31" cy="326.30" data-y="9.64" data-x="1600905600" r="1" fill="white"><title>2020-09-24: 10</title></circle>
	<circle cx="309.74" cy="321.06" data-y="10.67" data-x="1600992000" r="1" fill="white"><title>2020-09-25: 11</title></circle>
	<circle cx="311.17" cy="314.25" data-y="12.02" data-x="1601078400" r="1" fill="white"><title>2020-09-26: 12</title></circle>
	<circle cx="312.60" cy="314.25" data-y="12.02" data-x="1601164800" r="1" fill="white"><title>2020-09-27: 12</title></circle>
	<circle cx="314.04" cy="301.16" data-y="14.61" data-x="1601251200" r="1" fill="white"><title>2020-09-28: 15</title></circle>
	<circle cx="315.47" cy="287.02" data-y="17.41" data-x="1601337600" r="1" fill="white"><title>2020-09-29: 17</title></circle>
	<circle cx="316.90" cy="280.74" data-y="18.65" data-x="1601424000" r="1" fill="white"><title>2020-09-30: 19</title></circle>
	<circle cx="318.33" cy="262.93" data-y="22.17" data-x="1601510400" r="1" fill="white"><title>2020-10-01: 22</title></circle>
	<circle cx="319.76" cy="258.22" data-y="23.11" data-x="1601596800" r="1" fill="white"><title>2020-10-02: 23</title></circle>
	<circle cx="321.19" cy="248.79" data-y="24.97" data-x="1601683200" r="1" fill="white"><title>2020-10-03: 25</title></circle>
	<circle cx="322.62" cy="230.99" data-y="28.49" data-x="1601769600" r="1" fill="white"><title>2020-10-04: 28</title></circle>
	<circle cx="324.05" cy="224.71" data-y="29.74" data-x="1601856000" r="1" fill="white"><title>2020-10-05: 30</title></circle>
	<circle cx="325.48" cy="223.66" data-y="29.94" data-x="1601942400" r="1" fill="white"><title>2020-10-06: 30</title></circle>
	<circle cx="326.91" cy="224.71" data-y="29.74" data-x="1602028800" r="1" fill="white"><title>2020-10-07: 30</title></circle>
	<circle cx="328.34" cy="229.94" data-y="28.70" data-x="1602115200" r="1" fill="white"><title>2020-10-08: 29</title></circle>
	<circle cx="329.77" cy="223.66" data-y="29.94" data-x="1602201600" r="1" fill="white"><title>2020-10-09: 30</title></circle>
	<circle cx="331.21" cy="224.71" data-y="29.74" data-x="1602288000" r="1" fill="white"><title>2020-10-10: 30</title></circle>
	<circle cx="332.64" cy="213.71" data-y="31.91" data-x="1602374400" r="1" fill="white"><title>2020-10-11: 32</title></circle>
	<circle cx="334.07" cy="190.67" data-y="36.47" data-x="1602460800" r="1" fill="white"><title>2020-10-12: 36</title></circle>
	<circle cx="335.50" cy="181.24" data-y="38.34" data-x="1602547200" r="1" fill="white"><title>2020-10-13: 38</title></circle>
	<circle cx="336.93" cy="182.81" data-y="38.03" data-x="1602633600" r="1" fill="white"><title>2020-10-14: 38</title></circle>
	<circle cx="338.36" cy="175.48" data-y="39.48" data-x="1602720000" r="1" fill="white"><title>2020-10-15: 39</title></circle>
	<circle cx="339.79" cy="149.30" data-y="44.66" data-x="1602806400" r="1" fill="white"><title>2020-10-16: 45</title></circle>
	<circle cx="341.22" cy="127.83" data-y="48.90" data-x="1602892800" r="1" fill="white"><title>2020-10-17: 49</title></circle>
	<circle cx="342.65" cy="126.26" data-y="49.21" data-x="1602979200" r="1" fill="white"><title>2020-10-18: 49</title></circle>
	<circle cx="344.08" cy="141.97" data-y="46.11" data-x="1603065600" r="1" fill="white"><title>2020-10-19: 46</title></circle>
	<circle cx="345.51" cy="150.87" data-y="44.35" data-x="1603152000" r="1" fill="white"><title>2020-10-20: 44</title></circle>
	<circle cx="346.95" cy="141.44" data-y="46.21" data-x="1603238400" r="1" fill="white"><title>2020-10-21: 46</title></circle>
	<circle cx="348.38" cy="140.92" data-y="46.31" data-x="1603324800" r="1" fill="white"><title>2020-10-22: 46</title></circle>
	<circle cx="349.81" cy="166.05" data-y="41.34" data-x="1603411200" r="1" fill="white"><title>2020-10-23: 41</title></circle>
	<circle cx="351.24" cy="184.38" data-y="37.71" data-x="1603497600" r="1" fill="white"><title>2020-10-24: 38</title></circle>
	<circle cx="352.67" cy="196.95" data-y="35.23" data-x="1603584000" r="1" fill="white"><title>2020-10-25: 35</title></circle>
	<circle cx="354.10" cy="203.76" data-y="33.88" data-x="1603670400" r="1" fill="white"><title>2020-10-26: 34</title></circle>
	<circle cx="355.53" cy="180.19" data-y="38.54" data-x="1603756800" r="1" fill="white"><title>2020-10-27: 39</title></circle>
	<circle cx="356.96" cy="179.67" data-y="38.65" data-x="1603843200" r="1" fill="white"><title>2020-10-28: 39</title></circle>
	<circle cx="358.39" cy="173.91" data-y="39.79" data-x="1603929600" r="1" fill="white"><title>2020-10-29: 40</title></circle>
	<circle cx="359.82" cy="157.68" data-y="43.00" data-x="1604016000" r="1" fill="white"><title>2020-10-30: 43</title></circle>
	<circle cx="361.25" cy="139.35" data-y="46.62" data-x="1604102400" r="1" fill="white"><title>2020-10-31: 47</title></circle>
	<circle cx="362.68" cy="111.07" data-y="52.22" data-x="1604188800" r="1" fill="white"><title>2020-11-01: 52</title></circle>
	<circle cx="364.12" cy="96.41" data-y="55.12" data-x="1604275200" r="1" fill="white"><title>2020-11-02: 55</title></circle>
	<circle cx="365.55" cy="93.26" data-y="55.74" data-x="1604361600" r="1" fill="white"><title>2020-11-03: 56</title></circle>
	<circle cx="366.98" cy="72.84" data-y="59.78" data-x="1604448000" r="1" fill="white"><title>2020-11-04: 60</title></circle>
	<circle cx="368.41" cy="56.61" data-y="63.00" data-x="1604534400" r="1" fill="white"><title>2020-11-05: 63</title></circle>
	<circle cx="369.84" cy="34.09" data-y="67.45" data-x="1604620800" r="1" fill="white"><title>2020-11-06: 67</title></circle>
	<circle cx="371.27" cy="24.66" data-y="69.32" data-x="1604707200" r="1" fill="white"><title>2020-11-07: 69</title></circle>
	<circle cx="372.70" cy="22.04" data-y="69.83" data-x="1604793600" r="1" fill="white"><title>2020-11-08: 70</title></circle>
	<circle cx="374.13" cy="10.00" data-y="72.22" data-x="1604880000" r="1" fill="white"><title>2020-11-09: 72</title></circle>
	<circle cx="375.56" cy="16.28" data-y="70.97" data-x="1604966400" r="1" fill="white"><title>2020-11-10: 71</title></circle>
	<circle cx="376.99" cy="24.14" data-y="69.42" data-x="1605052800" r="1" fill="white"><title>2020-11-11: 69</title></circle>
	<circle cx="378.42" cy="26.23" data-y="69.00" data-x="1605139200" r="1" fill="white"><title>2020-11-12: 69</title></circle>
	<circle cx="379.86" cy="38.80" data-y="66.52" data-x="1605225600" r="1" fill="white"><title>2020-11-13: 67</title></circle>
	<circle cx="381.29" cy="56.08" data-y="63.10" data-x="1605312000" r="1" fill="white"><title>2020-11-14: 63</title></circle>
	<circle cx="382.72" cy="66.03" data-y="61.13" data-x="1605398400" r="1" fill="white"><title>2020-11-15: 61</title></circle>
	<circle cx="384.15" cy="83.84" data-y="57.61" data-x="1605484800" r="1" fill="white"><title>2020-11-16: 58</title></circle>
	<circle cx="385.58" cy="97.45" data-y="54.91" data-x="1605571200" r="1" fill="white"><title>2020-11-17: 55</title></circle>
	<circle cx="387.01" cy="120.49" data-y="50.35" data-x="1605657600" r="1" fill="white"><title>2020-11-18: 50</title></circle>
	<circle cx="388.44" cy="161.34" data-y="42.27" data-x="1605744000" r="1" fill="white"><title>2020-11-19: 42</title></circle>
	<circle cx="389.87" cy="192.24" data-y="36.16" data-x="1605830400" r="1" fill="white"><title>2020-11-20: 36</title></circle>
	<circle cx="391.30" cy="210.04" data-y="32.64" data-x="1605916800" r="1" fill="white"><title>2020-11-21: 33</title></circle>
	<circle cx="392.73" cy="236.75" data-y="27.35" data-x="1606003200" r="1" fill="white"><title>2020-11-22: 27</title></circle>
	<circle cx="394.16" cy="258.74" data-y="23.00" data-x="1606089600" r="1" fill="white"><title>2020-11-23: 23</title></circle>
	<circle cx="395.59" cy="272.36" data-y="20.31" data-x="1606176000" r="1" fill="white"><title>2020-11-24: 20</title></circle>
	<circle cx="397.03" cy="272.36" data-y="20.31" data-x="1606262400" r="1" fill="white"><title>2020-11-25: 20</title></circle>
	<circle cx="398.46" cy="272.36" data-y="20.31" data-x="1606348800" r="1" fill="white"><title>2020-11-26: 20</title></circle>
	<circle cx="399.89" cy="270.27" data-y="20.72" data-x="1606435200" r="1" fill="white"><title>2020-11-27: 21</title></circle>
	<circle cx="401.32" cy="273.41" data-y="20.10" data-x="1606521600" r="1" fill="white"><title>2020-11-28: 20</title></circle>
	<circle cx="402.75" cy="281.26" data-y="18.55" data-x="1606608000" r="1" fill="white"><title>2020-11-29: 19</title></circle>
	<circle cx="404.18" cy="281.79" data-y="18.44" data-x="1606694400" r="1" fill="white"><title>2020-11-30: 18</title></circle>
	<circle cx="405.61" cy="274.45" data-y="19.89" data-x="1606780800" r="1" fill="white"><title>2020-12-01: 20</title></circle>
	<circle cx="407.04" cy="274.45" data-y="19.89" data-x="1606867200" r="1" fill="white"><title>2020-12-02: 20</title></circle>
	<circle cx="408.47" cy="270.27" data-y="20.72" data-x="1606953600" r="1" fill="white"><title>2020-12-03: 21</title></circle>
	<circle cx="409.90" cy="272.88" data-y="20.20" data-x="1607040000" r="1" fill="white"><title>2020-12-04: 20</title></circle>
	<circle cx="411.33" cy="272.36" data-y="20.31" data-x="1607126400" r="1" fill="white"><title>2020-12-05: 20</title></circle>
	<circle cx="412.77" cy="268.17" data-y="21.14" data-x="1607212800" r="1" fill="white"><title>2020-12-06: 21</title></circle>
	<circle cx="414.20" cy="271.31" data-y="20.51" data-x="1607299200" r="1" fill="white"><title>2020-12-07: 21</title></circle>
	<circle cx="415.63" cy="274.98" data-y="19.79" data-x="1607385600" r="1" fill="white"><title>2020-12-08: 20</title></circle>
	<circle cx="417.06" cy="276.03" data-y="19.58" data-x="1607472000" r="1" fill="white"><title>2020-12-09: 20</title></circle>
	<circle cx="418.49" cy="271.84" data-y="20.41" data-x="1607558400" r="1" fill="white"><title>2020-12-10: 20</title></circle>
	<circle cx="419.92" cy="272.88" data-y="20.20" data-x="1607644800" r="1" fill="white"><title>2020-12-11: 20</title></circle>
	<circle cx="421.35" cy="272.88" data-y="20.20" data-x="1607731200" r="1" fill="white"><title>2020-12-12: 20</title></circle>
	<circle cx="422.78" cy="274.98" data-y="19.79" data-x="1607817600" r="1" fill="white"><title>2020-12-13: 20</title></circle>
	<circle cx="424.21" cy="269.74" data-y="20.83" data-x="1607904000" r="1" fill="white"><title>2020-12-14: 21</title></circle>
	<circle cx="425.64" cy="271.84" data-y="20.41" data-x="1607990400" r="1" fill="white"><title>2020-12-15: 20</title></circle>
	<circle cx="427.07" cy="275.50" data-y="19.69" data-x="1608076800" r="1" fill="white"><title>2020-12-16: 20</title></circle>
	<circle cx="428.50" cy="279.69" data-y="18.86" data-x="1608163200" r="1" fill="white"><title>2020-12-17: 19</title></circle>
	<circle cx="429.94" cy="283.36" data-y="18.13" data-x="1608249600" r="1" fill="white"><title>2020-12-18: 18</title></circle>
	<circle cx="431.37" cy="282.31" data-y="18.34" data-x="1608336000" r="1" fill="white"><title>2020-12-19: 18</title></circle>
	<circle cx="432.80" cy="276.55" data-y="19.48" data-x="1608422400" r="1" fill="white"><title>2020-12-20: 19</title></circle>
	<circle cx="434.23" cy="278.12" data-y="19.17" data-x="1608508800" r="1" fill="white"><title>2020-12-21: 19</title></circle>
	<circle cx="435.66" cy="282.83" data-y="18.24" data-x="1608595200" r="1" fill="white"><title>2020-12-22: 18</title></circle>
	<circle cx="437.09" cy="270.79" data-y="20.62" data-x="1608681600" r="1" fill="white"><title>2020-12-23: 21</title></circle>
	<circle cx="438.52" cy="249.84" data-y="24.76" data-x="1608768000" r="1" fill="white"><title>2020-12-24: 25</title></circle>
	<circle cx="439.95" cy="233.08" data-y="28.08" data-x="1608854400" r="1" fill="white"><title>2020-12-25: 28</title></circle>
	<circle cx="441.38" cy="189.62" data-y="36.68" data-x="1608940800" r="1" fill="white"><title>2020-12-26: 37</title></circle>
	<circle cx="442.81" cy="154.53" data-y="43.62" data-x="1609027200" r="1" fill="white"><title>2020-12-27: 44</title></circle>
	<circle cx="444.24" cy="134.11" data-y="47.66" data-x="1609113600" r="1" fill="white"><title>2020-12-28: 48</title></circle>
	<circle cx="445.68" cy="118.40" data-y="50.77" data-x="1609200000" r="1" fill="white"><title>2020-12-29: 51</title></circle>
	<circle cx="447.11" cy="96.41" data-y="55.12" data-x="1609286400" r="1" fill="white"><title>2020-12-30: 55</title></circle>
	<circle cx="448.54" cy="69.70" data-y="60.40" data-x="1609372800" r="1" fill="white"><title>2020-12-31: 60</title></circle>
	<circle cx="449.97" cy="31.47" data-y="67.97" data-x="1609459200" r="1" fill="white"><title>2021-01-01: 68</title></circle>
	<circle cx="451.40" cy="45.09" data-y="65.27" data-x="1609545600" r="1" fill="white"><title>2021-01-02: 65</title></circle>
	<circle cx="452.83" cy="50.85" data-y="64.13" data-x="1609632000" r="1" fill="white"><title>2021-01-03: 64</title></circle>
	<circle cx="454.26" cy="33.04" data-y="67.66" data-x="1609718400" r="1" fill="white"><title>2021-01-04: 68</title></circle>
	<circle cx="455.69" cy="28.85" data-y="68.49" data-x="1609804800" r="1" fill="white"><title>2021-01-05: 68</title></circle>
	<circle cx="457.12" cy="42.99" data-y="65.69" data-x="1609891200" r="1" fill="white"><title>2021-01-06: 66</title></circle>
	<circle cx="458.55" cy="76.51" data-y="59.06" data-x="1609977600" r="1" fill="white"><title>2021-01-07: 59</title></circle>
	<circle cx="459.98" cy="82.79" data-y="57.81" data-x="1610064000" r="1" fill="white"><title>2021-01-08: 58</title></circle>
	<circle cx="461.41" cy="84.89" data-y="57.40" data-x="1610150400" r="1" fill="white"><title>2021-01-09: 57</title></circle>
	<circle cx="462.85" cy="80.17" data-y="58.33" data-x="1610236800" r="1" fill="white"><title>2021-01-10: 58</title></circle>
</g>
<g data-series="recent-cases" class="data-series">
	<path d="M 462.85,80.17L 464.28,93.79L 465.71,114.21L 467.14,102.52L 468.57,82.48L 470.00,120.23" id="Recent cases" class="line" stroke-width="1" stroke-linecap="round" stroke-dasharray="4,6" stroke-dashoffset="4"><title>Recent cases</title></path>
	<circle cx="462.85" cy="80.17" data-y="58.33" data-x="1610236800" r="2.5" fill="white"><title>2021-01-10: 58</title></circle>
	<circle cx="464.28" cy="93.79" data-y="55.64" data-x="1610323200" r="2.5" fill="white"><title>2021-01-11: 56</title></circle>
	<circle cx="465.71" cy="114.21" data-y="51.60" data-x="1610409600" r="2.5" fill="white"><title>2021-01-12: 52</title></circle>
	<circle cx="467.14" cy="102.52" data-y="53.91" data-x="1610496000" r="2.5" fill="white"><title>2021-01-13: 54</title></circle>
	<circle cx="468.57" cy="82.48" data-y="57.88" data-x="1610582400" r="2.5" fill="white"><title>2021-01-14: 58</title></circle>
	<circle cx="470.00" cy="120.23" data-y="50.41" data-x="1610668800" r="2.5" fill="white"><title>2021-01-15: 50</title></circle>
</g>
</svg>
