<svg width="480" height="400" viewBox="0 0 480 400" xmlns="http://www.w3.org/2000/svg" style="overflow:display" preserveAspectRatio="xMinYMin meet" overflow="visible">
<defs>
	<style>
	.data-series path.line { fill-opacity: 0; stroke: black; }
	.data-series path.line.dotted { stroke-dasharray: 12 20 }
	.data-series:hover path.line, .data-series.on path.line { stroke-width: 1; }
	.data-series:hover circle, .data-series.on circle { display: inline; }
	.graph-grid { font-family: "Helvetica Neue",Helvetica,Arial,"Lucida Grande",sans-serif; }
	.graph-grid line { stroke: black; stroke-width: 1; stroke-linecap: round; }
	.graph-grid.graph-grid-x text { text-anchor: middle; dominant-baseline: hanging; transform: translateY(10px); }
	.graph-grid.graph-grid-y text { text-anchor: end; dominant-baseline: middle; transform: translateX(-10px); }
	</style>
</defs>
<g class="graph-grid graph-grid-y">
	<line x1="25.00" y1="375.00" x2="470.00" y2="375.00" data-left="25"></line>
	<text x="35" y="375" text-anchor="end">0</text>
	<text x="35" y="223.644612844037" text-anchor="end">20</text>
	<text x="35" y="72.2892256880734" text-anchor="end">40</text>
	<text style="text-anchor:middle;dominant-baseline:hanging;font-weight:bold;transform: translateY(192.5px) rotate(-90deg);"></text>
</g>
<g class="graph-grid graph-grid-x">
	<line class="tick" x1="53.66" y1="375.00" x2="53.66" y2="380.00"></line>
	<text x="53.6610169491525" y="375" text-anchor="middle">A</text>
	<line class="tick" x1="98.92" y1="375.00" x2="98.92" y2="380.00"></line>
	<text x="98.9152542372881" y="375" text-anchor="middle">M</text>
	<line class="tick" x1="145.68" y1="375.00" x2="145.68" y2="380.00"></line>
	<text x="145.677966101695" y="375" text-anchor="middle">J</text>
	<line class="tick" x1="190.93" y1="375.00" x2="190.93" y2="380.00"></line>
	<text x="190.932203389831" y="375" text-anchor="middle">J</text>
	<line class="tick" x1="237.69" y1="375.00" x2="237.69" y2="380.00"></line>
	<text x="237.694915254237" y="375" text-anchor="middle">A</text>
	<line class="tick" x1="284.46" y1="375.00" x2="284.46" y2="380.00"></line>
	<text x="284.457627118644" y="375" text-anchor="middle">S</text>
	<line class="tick" x1="329.71" y1="375.00" x2="329.71" y2="380.00"></line>
	<text x="329.71186440678" y="375" text-anchor="middle">O</text>
	<line class="tick" x1="376.47" y1="375.00" x2="376.47" y2="380.00"></line>
	<text x="376.474576271186" y="375" text-anchor="middle">N</text>
	<line class="tick" x1="421.73" y1="375.00" x2="421.73" y2="380.00"></line>
	<text x="421.728813559322" y="375" text-anchor="middle">D</text>
	<line class="tick" x1="468.49" y1="375.00" x2="468.49" y2="380.00"></line>
	<text x="468.491525423729" y="375" text-anchor="middle">J</text>
	<text style="text-anchor:middle;dominant-baseline:hanging;font-weight:bold;transform: translateY(192.5px) rotate(-90deg);"></text>
</g>
<g data-series="widespread" class="data-series">
	<path d="M 25.00,322.03L 470.00,322.03" id="E06000057-level-0" class="line" stroke-width="1" stroke-linecap="round" stroke-dasharray="3,3" fill-opacity="0.3" opacity="0.3"><title>Widespread</title></path>
</g>
<g data-series="substantial" class="data-series">
	<path d="M 25.00,344.73L 470.00,344.73" id="E06000057-level-1" class="line" stroke-width="1" stroke-linecap="round" stroke-dasharray="3,3" fill-opacity="0.3" opacity="0.3"><title>Substantial</title></path>
</g>
<g data-series="moderate" class="data-series">
	<path d="M 25.00,367.43L 470.00,367.43" id="E06000057-level-2" class="line" stroke-width="1" stroke-linecap="round" stroke-dasharray="3,3" fill-opacity="0.3" opacity="0.3"><title>Moderate</title></path>
</g>
<g data-series="new-cases" class="data-series">
	<path d="M 25.00,372.66L 26.51,372.19L 28.02,372.27L 29.53,371.99L 31.03,371.99L 32.54,371.99L 34.05,371.65L 35.56,369.64L 37.07,367.63L 38.58,365.29L 40.08,361.94L 41.59,359.93L 43.10,356.58L 44.61,355.58L 46.12,355.58L 47.63,352.56L 49.14,341.85L 50.64,337.50L 52.15,332.14L 53.66,327.11L 55.17,321.42L 56.68,314.39L 58.19,309.70L 59.69,311.38L 61.20,307.69L 62.71,307.36L 64.22,302.67L 65.73,297.98L 67.24,296.98L 68.75,294.97L 70.25,298.32L 71.76,294.97L 73.27,289.94L 74.78,285.59L 76.29,286.26L 77.80,286.26L 79.31,286.93L 80.81,281.57L 82.32,286.93L 83.83,284.59L 85.34,295.30L 86.85,301.67L 88.36,301.67L 89.86,305.01L 91.37,308.36L 92.88,302.33L 94.39,308.70L 95.90,310.71L 97.41,310.71L 98.92,316.40L 100.42,319.75L 101.93,319.41L 103.44,326.78L 104.95,330.80L 106.46,332.14L 107.97,332.47L 109.47,324.10L 110.98,321.09L 112.49,327.78L 114.00,333.14L 115.51,335.49L 117.02,336.16L 118.53,339.50L 120.03,349.89L 121.54,355.91L 123.05,357.92L 124.56,357.59L 126.07,358.59L 127.58,361.27L 129.08,360.60L 130.59,359.93L 132.10,360.60L 133.61,354.91L 135.12,355.24L 136.63,354.57L 138.14,350.89L 139.64,351.89L 141.15,352.23L 142.66,351.89L 144.17,358.93L 145.68,360.60L 147.19,362.94L 148.69,364.28L 150.20,364.28L 151.71,366.29L 153.22,365.96L 154.73,364.28L 156.24,365.96L 157.75,364.95L 159.25,366.29L 160.76,365.96L 162.27,366.29L 163.78,367.97L 165.29,368.64L 166.80,368.30L 168.31,368.64L 169.81,369.64L 171.32,371.32L 172.83,370.98L 174.34,370.98L 175.85,372.32L 177.36,372.32L 178.86,372.66L 180.37,372.66L 181.88,371.99L 183.39,371.65L 184.90,371.65L 186.41,371.99L 187.92,371.65L 189.42,371.99L 190.93,371.32L 192.44,371.65L 193.95,371.99L 195.46,371.99L 196.97,371.99L 198.47,372.32L 199.98,372.32L 201.49,372.66L 203.00,372.99L 204.51,374.00L 206.02,374.33L 207.53,374.00L 209.03,373.66L 210.54,372.99L 212.05,373.33L 213.56,373.33L 215.07,372.66L 216.58,372.32L 218.08,372.32L 219.59,372.32L 221.10,372.99L 222.61,372.99L 224.12,372.99L 225.63,373.66L 227.14,373.66L 228.64,374.00L 230.15,374.33L 231.66,374.33L 233.17,374.33L 234.68,373.66L 236.19,372.99L 237.69,373.33L 239.20,372.99L 240.71,372.99L 242.22,372.99L 243.73,372.66L 245.24,373.33L 246.75,373.33L 248.25,371.65L 249.76,369.31L 251.27,368.64L 252.78,368.64L 254.29,368.97L 255.80,368.30L 257.31,367.63L 258.81,368.97L 260.32,368.97L 261.83,367.63L 263.34,365.62L 264.85,362.28L 266.36,362.28L 267.86,363.28L 269.37,362.61L 270.88,363.95L 272.39,364.95L 273.90,366.29L 275.41,366.63L 276.92,365.29L 278.42,363.28L 279.93,358.59L 281.44,356.25L 282.95,353.57L 284.46,351.56L 285.97,352.56L 287.47,351.56L 288.98,350.22L 290.49,352.23L 292.00,351.56L 293.51,348.88L 295.02,346.20L 296.53,345.87L 298.03,344.19L 299.54,340.17L 301.05,336.49L 302.56,326.44L 304.07,319.41L 305.58,308.36L 307.08,298.99L 308.59,283.58L 310.10,265.83L 311.61,250.10L 313.12,231.68L 314.63,219.96L 316.14,212.59L 317.64,198.86L 319.15,199.20L 320.66,197.86L 322.17,202.88L 323.68,211.92L 325.19,212.59L 326.69,208.57L 328.20,215.94L 329.71,209.58L 331.22,204.89L 332.73,189.82L 334.24,182.79L 335.75,180.44L 337.25,179.44L 338.76,183.46L 340.27,196.18L 341.78,200.54L 343.29,203.55L 344.80,199.87L 346.31,200.87L 347.81,207.90L 349.32,200.20L 350.83,197.52L 352.34,193.84L 353.85,198.19L 355.36,198.19L 356.86,192.83L 358.37,187.48L 359.88,183.12L 361.39,175.76L 362.90,173.08L 364.41,165.71L 365.92,171.07L 367.42,167.05L 368.93,161.69L 370.44,166.38L 371.95,165.71L 373.46,158.34L 374.97,149.30L 376.47,139.59L 377.98,137.25L 379.49,125.19L 381.00,107.44L 382.51,95.39L 384.02,79.99L 385.53,68.60L 387.03,51.86L 388.54,43.82L 390.05,50.52L 391.56,58.89L 393.07,60.56L 394.58,67.93L 396.08,67.60L 397.59,77.98L 399.10,98.40L 400.61,105.10L 402.12,113.81L 403.63,118.50L 405.14,129.88L 406.64,149.64L 408.15,169.73L 409.66,168.39L 411.17,176.09L 412.68,181.78L 414.19,191.83L 415.69,197.19L 417.20,200.20L 418.71,193.84L 420.22,194.84L 421.73,200.87L 423.24,204.22L 424.75,204.89L 426.25,205.56L 427.76,203.22L 429.27,209.58L 430.78,208.57L 432.29,197.52L 433.80,189.49L 435.31,187.48L 436.81,181.78L 438.32,178.10L 439.83,173.08L 441.34,170.06L 442.85,169.06L 444.36,168.72L 445.86,165.38L 447.37,173.08L 448.88,163.70L 450.39,150.64L 451.90,147.29L 453.41,166.38L 454.92,151.31L 456.42,132.22L 457.93,112.80L 459.44,68.27L 460.95,38.46L 462.46,23.73" id="New cases" class="line" stroke-width="1" stroke-linecap="round"><title>New cases</title></path>
	<circle cx="25.00" cy="372.66" data-y="0.31" data-x="1584057600" r="1" fill="white"><title>2020-03-13: 0</title></circle>
	<circle cx="26.51" cy="372.19" data-y="0.37" data-x="1584144000" r="1" fill="white"><title>2020-03-14: 0</title></circle>
	<circle cx="28.02" cy="372.27" data-y="0.36" data-x="1584230400" r="1" fill="white"><title>2020-03-15: 0</title></circle>
	<circle cx="29.53" cy="371.99" data-y="0.40" data-x="1584316800" r="1" fill="white"><title>2020-03-16: 0</title></circle>
	<circle cx="31.03" cy="371.99" data-y="0.40" data-x="1584403200" r="1" fill="white"><title>2020-03-17: 0</title></circle>
	<circle cx="32.54" cy="371.99" data-y="0.40" data-x="1584489600" r="1" fill="white"><title>2020-03-18: 0</title></circle>
	<circle cx="34.05" cy="371.65" data-y="0.44" data-x="1584576000" r="1" fill="white"><title>2020-03-19: 0</title></circle>
	<circle cx="35.56" cy="369.64" data-y="0.71" data-x="1584662400" r="1" fill="white"><title>2020-03-20: 1</title></circle>
	<circle cx="37.07" cy="367.63" data-y="0.97" data-x="1584748800" r="1" fill="white"><title>2020-03-21: 1</title></circle>
	<circle cx="38.58" cy="365.29" data-y="1.28" data-x="1584835200" r="1" fill="white"><title>2020-03-22: 1</title></circle>
	<circle cx="40.08" cy="361.94" data-y="1.73" data-x="1584921600" r="1" fill="white"><title>2020-03-23: 2</title></circle>
	<circle cx="41.59" cy="359.93" data-y="1.99" data-x="1585008000" r="1" fill="white"><title>2020-03-24: 2</title></circle>
	<circle cx="43.10" cy="356.58" data-y="2.43" data-x="1585094400" r="1" fill="white"><title>2020-03-25: 2</title></circle>
	<circle cx="44.61" cy="355.58" data-y="2.57" data-x="1585180800" r="1" fill="white"><title>2020-03-26: 3</title></circle>
	<circle cx="46.12" cy="355.58" data-y="2.57" data-x="1585267200" r="1" fill="white"><title>2020-03-27: 3</title></circle>
	<circle cx="47.63" cy="352.56" data-y="2.96" data-x="1585353600" r="1" fill="white"><title>2020-03-28: 3</title></circle>
	<circle cx="49.14" cy="341.85" data-y="4.38" data-x="1585440000" r="1" fill="white"><title>2020-03-29: 4</title></circle>
	<circle cx="50.64" cy="337.50" data-y="4.96" data-x="1585526400" r="1" fill="white"><title>2020-03-30: 5</title></circle>
	<circle cx="52.15" cy="332.14" data-y="5.66" data-x="1585612800" r="1" fill="white"><title>2020-03-31: 6</title></circle>
	<circle cx="53.66" cy="327.11" data-y="6.33" data-x="1585699200" r="1" fill="white"><title>2020-04-01: 6</title></circle>
	<circle cx="55.17" cy="321.42" data-y="7.08" data-x="1585785600" r="1" fill="white"><title>2020-04-02: 7</title></circle>
	<circle cx="56.68" cy="314.39" data-y="8.01" data-x="1585872000" r="1" fill="white"><title>2020-04-03: 8</title></circle>
	<circle cx="58.19" cy="309.70" data-y="8.63" data-x="1585958400" r="1" fill="white"><title>2020-04-04: 9</title></circle>
	<circle cx="59.69" cy="311.38" data-y="8.41" data-x="1586044800" r="1" fill="white"><title>2020-04-05: 8</title></circle>
	<circle cx="61.20" cy="307.69" data-y="8.89" data-x="1586131200" r="1" fill="white"><title>2020-04-06: 9</title></circle>
	<circle cx="62.71" cy="307.36" data-y="8.94" data-x="1586217600" r="1" fill="white"><title>2020-04-07: 9</title></circle>
	<circle cx="64.22" cy="302.67" data-y="9.56" data-x="1586304000" r="1" fill="white"><title>2020-04-08: 10</title></circle>
	<circle cx="65.73" cy="297.98" data-y="10.18" data-x="1586390400" r="1" fill="white"><title>2020-04-09: 10</title></circle>
	<circle cx="67.24" cy="296.98" data-y="10.31" data-x="1586476800" r="1" fill="white"><title>2020-04-10: 10</title></circle>
	<circle cx="68.75" cy="294.97" data-y="10.58" data-x="1586563200" r="1" fill="white"><title>2020-04-11: 11</title></circle>
	<circle cx="70.25" cy="298.32" data-y="10.13" data-x="1586649600" r="1" fill="white"><title>2020-04-12: 10</title></circle>
	<circle cx="71.76" cy="294.97" data-y="10.58" data-x="1586736000" r="1" fill="white"><title>2020-04-13: 11</title></circle>
	<circle cx="73.27" cy="289.94" data-y="11.24" data-x="1586822400" r="1" fill="white"><title>2020-04-14: 11</title></circle>
	<circle cx="74.78" cy="285.59" data-y="11.81" data-x="1586908800" r="1" fill="white"><title>2020-04-15: 12</title></circle>
	<circle cx="76.29" cy="286.26" data-y="11.73" data-x="1586995200" r="1" fill="white"><title>2020-04-16: 12</title></circle>
	<circle cx="77.80" cy="286.26" data-y="11.73" data-x="1587081600" r="1" fill="white"><title>2020-04-17: 12</title></circle>
	<circle cx="79.31" cy="286.93" data-y="11.64" data-x="1587168000" r="1" fill="white"><title>2020-04-18: 12</title></circle>
	<circle cx="80.81" cy="281.57" data-y="12.35" data-x="1587254400" r="1" fill="white"><title>2020-04-19: 12</title></circle>
	<circle cx="82.32" cy="286.93" data-y="11.64" data-x="1587340800" r="1" fill="white"><title>2020-04-20: 12</title></circle>
	<circle cx="83.83" cy="284.59" data-y="11.95" data-x="1587427200" r="1" fill="white"><title>2020-04-21: 12</title></circle>
	<circle cx="85.34" cy="295.30" data-y="10.53" data-x="1587513600" r="1" fill="white"><title>2020-04-22: 11</title></circle>
	<circle cx="86.85" cy="301.67" data-y="9.69" data-x="1587600000" r="1" fill="white"><title>2020-04-23: 10</title></circle>
	<circle cx="88.36" cy="301.67" data-y="9.69" data-x="1587686400" r="1" fill="white"><title>2020-04-24: 10</title></circle>
	<circle cx="89.86" cy="305.01" data-y="9.25" data-x="1587772800" r="1" fill="white"><title>2020-04-25: 9</title></circle>
	<circle cx="91.37" cy="308.36" data-y="8.81" data-x="1587859200" r="1" fill="white"><title>2020-04-26: 9</title></circle>
	<circle cx="92.88" cy="302.33" data-y="9.60" data-x="1587945600" r="1" fill="white"><title>2020-04-27: 10</title></circle>
	<circle cx="94.39" cy="308.70" data-y="8.76" data-x="1588032000" r="1" fill="white"><title>2020-04-28: 9</title></circle>
	<circle cx="95.90" cy="310.71" data-y="8.50" data-x="1588118400" r="1" fill="white"><title>2020-04-29: 8</title></circle>
	<circle cx="97.41" cy="310.71" data-y="8.50" data-x="1588204800" r="1" fill="white"><title>2020-04-30: 8</title></circle>
	<circle cx="98.92" cy="316.40" data-y="7.74" data-x="1588291200" r="1" fill="white"><title>2020-05-01: 8</title></circle>
	<circle cx="100.42" cy="319.75" data-y="7.30" data-x="1588377600" r="1" fill="white"><title>2020-05-02: 7</title></circle>
	<circle cx="101.93" cy="319.41" data-y="7.35" data-x="1588464000" r="1" fill="white"><title>2020-05-03: 7</title></circle>
	<circle cx="103.44" cy="326.78" data-y="6.37" data-x="1588550400" r="1" fill="white"><title>2020-05-04: 6</title></circle>
	<circle cx="104.95" cy="330.80" data-y="5.84" data-x="1588636800" r="1" fill="white"><title>2020-05-05: 6</title></circle>
	<circle cx="106.46" cy="332.14" data-y="5.66" data-x="1588723200" r="1" fill="white"><title>2020-05-06: 6</title></circle>
	<circle cx="107.97" cy="332.47" data-y="5.62" data-x="1588809600" r="1" fill="white"><title>2020-05-07: 6</title></circle>
	<circle cx="109.47" cy="324.10" data-y="6.73" data-x="1588896000" r="1" fill="white"><title>2020-05-08: 7</title></circle>
	<circle cx="110.98" cy="321.09" data-y="7.12" data-x="1588982400" r="1" fill="white"><title>2020-05-09: 7</title></circle>
	<circle cx="112.49" cy="327.78" data-y="6.24" data-x="1589068800" r="1" fill="white"><title>2020-05-10: 6</title></circle>
	<circle cx="114.00" cy="333.14" data-y="5.53" data-x="1589155200" r="1" fill="white"><title>2020-05-11: 6</title></circle>
	<circle cx="115.51" cy="335.49" data-y="5.22" data-x="1589241600" r="1" fill="white"><title>2020-05-12: 5</title></circle>
	<circle cx="117.02" cy="336.16" data-y="5.13" data-x="1589328000" r="1" fill="white"><title>2020-05-13: 5</title></circle>
	<circle cx="118.53" cy="339.50" data-y="4.69" data-x="1589414400" r="1" fill="white"><title>2020-05-14: 5</title></circle>
	<circle cx="120.03" cy="349.89" data-y="3.32" data-x="1589500800" r="1" fill="white"><title>2020-05-15: 3</title></circle>
	<circle cx="121.54" cy="355.91" data-y="2.52" data-x="1589587200" r="1" fill="white"><title>2020-05-16: 3</title></circle>
	<circle cx="123.05" cy="357.92" data-y="2.26" data-x="1589673600" r="1" fill="white"><title>2020-05-17: 2</title></circle>
	<circle cx="124.56" cy="357.59" data-y="2.30" data-x="1589760000" r="1" fill="white"><title>2020-05-18: 2</title></circle>
	<circle cx="126.07" cy="358.59" data-y="2.17" data-x="1589846400" r="1" fill="white"><title>2020-05-19: 2</title></circle>
	<circle cx="127.58" cy="361.27" data-y="1.81" data-x="1589932800" r="1" fill="white"><title>2020-05-20: 2</title></circle>
	<circle cx="129.08" cy="360.60" data-y="1.90" data-x="1590019200" r="1" fill="white"><title>2020-05-21: 2</title></circle>
	<circle cx="130.59" cy="359.93" data-y="1.99" data-x="1590105600" r="1" fill="white"><title>2020-05-22: 2</title></circle>
	<circle cx="132.10" cy="360.60" data-y="1.90" data-x="1590192000" r="1" fill="white"><title>2020-05-23: 2</title></circle>
	<circle cx="133.61" cy="354.91" data-y="2.65" data-x="1590278400" r="1" fill="white"><title>2020-05-24: 3</title></circle>
	<circle cx="135.12" cy="355.24" data-y="2.61" data-x="1590364800" r="1" fill="white"><title>2020-05-25: 3</title></circle>
	<circle cx="136.63" cy="354.57" data-y="2.70" data-x="1590451200" r="1" fill="white"><title>2020-05-26: 3</title></circle>
	<circle cx="138.14" cy="350.89" data-y="3.19" data-x="1590537600" r="1" fill="white"><title>2020-05-27: 3</title></circle>
	<circle cx="139.64" cy="351.89" data-y="3.05" data-x="1590624000" r="1" fill="white"><title>2020-05-28: 3</title></circle>
	<circle cx="141.15" cy="352.23" data-y="3.01" data-x="1590710400" r="1" fill="white"><title>2020-05-29: 3</title></circle>
	<circle cx="142.66" cy="351.89" data-y="3.05" data-x="1590796800" r="1" fill="white"><title>2020-05-30: 3</title></circle>
	<circle cx="144.17" cy="358.93" data-y="2.12" data-x="1590883200" r="1" fill="white"><title>2020-05-31: 2</title></circle>
	<circle cx="145.68" cy="360.60" data-y="1.90" data-x="1590969600" r="1" fill="white"><title>2020-06-01: 2</title></circle>
	<circle cx="147.19" cy="362.94" data-y="1.59" data-x="1591056000" r="1" fill="white"><title>2020-06-02: 2</title></circle>
	<circle cx="148.69" cy="364.28" data-y="1.42" data-x="1591142400" r="1" fill="white"><title>2020-06-03: 1</title></circle>
	<circle cx="150.20" cy="364.28" data-y="1.42" data-x="1591228800" r="1" fill="white"><title>2020-06-04: 1</title></circle>
	<circle cx="151.71" cy="366.29" data-y="1.15" data-x="1591315200" r="1" fill="white"><title>2020-06-05: 1</title></circle>
	<circle cx="153.22" cy="365.96" data-y="1.19" data-x="1591401600" r="1" fill="white"><title>2020-06-06: 1</title></circle>
	<circle cx="154.73" cy="364.28" data-y="1.42" data-x="1591488000" r="1" fill="white"><title>2020-06-07: 1</title></circle>
	<circle cx="156.24" cy="365.96" data-y="1.19" data-x="1591574400" r="1" fill="white"><title>2020-06-08: 1</title></circle>
	<circle cx="157.75" cy="364.95" data-y="1.33" data-x="1591660800" r="1" fill="white"><title>2020-06-09: 1</title></circle>
	<circle cx="159.25" cy="366.29" data-y="1.15" data-x="1591747200" r="1" fill="white"><title>2020-06-10: 1</title></circle>
	<circle cx="160.76" cy="365.96" data-y="1.19" data-x="1591833600" r="1" fill="white"><title>2020-06-11: 1</title></circle>
	<circle cx="162.27" cy="366.29" data-y="1.15" data-x="1591920000" r="1" fill="white"><title>2020-06-12: 1</title></circle>
	<circle cx="163.78" cy="367.97" data-y="0.93" data-x="1592006400" r="1" fill="white"><title>2020-06-13: 1</title></circle>
	<circle cx="165.29" cy="368.64" data-y="0.84" data-x="1592092800" r="1" fill="white"><title>2020-06-14: 1</title></circle>
	<circle cx="166.80" cy="368.30" data-y="0.88" data-x="1592179200" r="1" fill="white"><title>2020-06-15: 1</title></circle>
	<circle cx="168.31" cy="368.64" data-y="0.84" data-x="1592265600" r="1" fill="white"><title>2020-06-16: 1</title></circle>
	<circle cx="169.81" cy="369.64" data-y="0.71" data-x="1592352000" r="1" fill="white"><title>2020-06-17: 1</title></circle>
	<circle cx="171.32" cy="371.32" data-y="0.49" data-x="1592438400" r="1" fill="white"><title>2020-06-18: 0</title></circle>
	<circle cx="172.83" cy="370.98" data-y="0.53" data-x="1592524800" r="1" fill="white"><title>2020-06-19: 1</title></circle>
	<circle cx="174.34" cy="370.98" data-y="0.53" data-x="1592611200" r="1" fill="white"><title>2020-06-20: 1</title></circle>
	<circle cx="175.85" cy="372.32" data-y="0.35" data-x="1592697600" r="1" fill="white"><title>2020-06-21: 0</title></circle>
	<circle cx="177.36" cy="372.32" data-y="0.35" data-x="1592784000" r="1" fill="white"><title>2020-06-22: 0</title></circle>
	<circle cx="178.86" cy="372.66" data-y="0.31" data-x="1592870400" r="1" fill="white"><title>2020-06-23: 0</title></circle>
	<circle cx="180.37" cy="372.66" data-y="0.31" data-x="1592956800" r="1" fill="white"><title>2020-06-24: 0</title></circle>
	<circle cx="181.88" cy="371.99" data-y="0.40" data-x="1593043200" r="1" fill="white"><title>2020-06-25: 0</title></circle>
	<circle cx="183.39" cy="371.65" data-y="0.44" data-x="1593129600" r="1" fill="white"><title>2020-06-26: 0</title></circle>
	<circle cx="184.90" cy="371.65" data-y="0.44" data-x="1593216000" r="1" fill="white"><title>2020-06-27: 0</title></circle>
	<circle cx="186.41" cy="371.99" data-y="0.40" data-x="1593302400" r="1" fill="white"><title>2020-06-28: 0</title></circle>
	<circle cx="187.92" cy="371.65" data-y="0.44" data-x="1593388800" r="1" fill="white"><title>2020-06-29: 0</title></circle>
	<circle cx="189.42" cy="371.99" data-y="0.40" data-x="1593475200" r="1" fill="white"><title>2020-06-30: 0</title></circle>
	<circle cx="190.93" cy="371.32" data-y="0.49" data-x="1593561600" r="1" fill="white"><title>2020-07-01: 0</title></circle>
	<circle cx="192.44" cy="371.65" data-y="0.44" data-x="1593648000" r="1" fill="white"><title>2020-07-02: 0</title></circle>
	<circle cx="193.95" cy="371.99" data-y="0.40" data-x="1593734400" r="1" fill="white"><title>2020-07-03: 0</title></circle>
	<circle cx="195.46" cy="371.99" data-y="0.40" data-x="1593820800" r="1" fill="white"><title>2020-07-04: 0</title></circle>
	<circle cx="196.97" cy="371.99" data-y="0.40" data-x="1593907200" r="1" fill="white"><title>2020-07-05: 0</title></circle>
	<circle cx="198.47" cy="372.32" data-y="0.35" data-x="1593993600" r="1" fill="white"><title>2020-07-06: 0</title></circle>
	<circle cx="199.98" cy="372.32" data-y="0.35" data-x="1594080000" r="1" fill="white"><title>2020-07-07: 0</title></circle>
	<circle cx="201.49" cy="372.66" data-y="0.31" data-x="1594166400" r="1" fill="white"><title>2020-07-08: 0</title></circle>
	<circle cx="203.00" cy="372.99" data-y="0.27" data-x="1594252800" r="1" fill="white"><title>2020-07-09: 0</title></circle>
	<circle cx="204.51" cy="374.00" data-y="0.13" data-x="1594339200" r="1" fill="white"><title>2020-07-10: 0</title></circle>
	<circle cx="206.02" cy="374.33" data-y="0.09" data-x="1594425600" r="1" fill="white"><title>2020-07-11: 0</title></circle>
	<circle cx="207.53" cy="374.00" data-y="0.13" data-x="1594512000" r="1" fill="white"><title>2020-07-12: 0</title></circle>
	<circle cx="209.03" cy="373.66" data-y="0.18" data-x="1594598400" r="1" fill="white"><title>2020-07-13: 0</title></circle>
	<circle cx="210.54" cy="372.99" data-y="0.27" data-x="1594684800" r="1" fill="white"><title>2020-07-14: 0</title></circle>
	<circle cx="212.05" cy="373.33" data-y="0.22" data-x="1594771200" r="1" fill="white"><title>2020-07-15: 0</title></circle>
	<circle cx="213.56" cy="373.33" data-y="0.22" data-x="1594857600" r="1" fill="white"><title>2020-07-16: 0</title></circle>
	<circle cx="215.07" cy="372.66" data-y="0.31" data-x="1594944000" r="1" fill="white"><title>2020-07-17: 0</title></circle>
	<circle cx="216.58" cy="372.32" data-y="0.35" data-x="1595030400" r="1" fill="white"><title>2020-07-18: 0</title></circle>
	<circle cx="218.08" cy="372.32" data-y="0.35" data-x="1595116800" r="1" fill="white"><title>2020-07-19: 0</title></circle>
	<circle cx="219.59" cy="372.32" data-y="0.35" data-x="1595203200" r="1" fill="white"><title>2020-07-20: 0</title></circle>
	<circle cx="221.10" cy="372.99" data-y="0.27" data-x="1595289600" r="1" fill="white"><title>2020-07-21: 0</title></circle>
	<circle cx="222.61" cy="372.99" data-y="0.27" data-x="1595376000" r="1" fill="white"><title>2020-07-22: 0</title></circle>
	<circle cx="224.12" cy="372.99" data-y="0.27" data-x="1595462400" r="1" fill="white"><title>2020-07-23: 0</title></circle>
	<circle cx="225.63" cy="373.66" data-y="0.18" data-x="1595548800" r="1" fill="white"><title>2020-07-24: 0</title></circle>
	<circle cx="227.14" cy="373.66" data-y="0.18" data-x="1595635200" r="1" fill="white"><title>2020-07-25: 0</title></circle>
	<circle cx="228.64" cy="374.00" data-y="0.13" data-x="1595721600" r="1" fill="white"><title>2020-07-26: 0</title></circle>
	<circle cx="230.15" cy="374.33" data-y="0.09" data-x="1595808000" r="1" fill="white"><title>2020-07-27: 0</title></circle>
	<circle cx="231.66" cy="374.33" data-y="0.09" data-x="1595894400" r="1" fill="white"><title>2020-07-28: 0</title></circle>
	<circle cx="233.17" cy="374.33" data-y="0.09" data-x="1595980800" r="1" fill="white"><title>2020-07-29: 0</title></circle>
	<circle cx="234.68" cy="373.66" data-y="0.18" data-x="1596067200" r="1" fill="white"><title>2020-07-30: 0</title></circle>
	<circle cx="236.19" cy="372.99" data-y="0.27" data-x="1596153600" r="1" fill="white"><title>2020-07-31: 0</title></circle>
	<circle cx="237.69" cy="373.33" data-y="0.22" data-x="1596240000" r="1" fill="white"><title>2020-08-01: 0</title></circle>
	<circle cx="239.20" cy="372.99" data-y="0.27" data-x="1596326400" r="1" fill="white"><title>2020-08-02: 0</title></circle>
	<circle cx="240.71" cy="372.99" data-y="0.27" data-x="1596412800" r="1" fill="white"><title>2020-08-03: 0</title></circle>
	<circle cx="242.22" cy="372.99" data-y="0.27" data-x="1596499200" r="1" fill="white"><title>2020-08-04: 0</title></circle>
	<circle cx="243.73" cy="372.66" data-y="0.31" data-x="1596585600" r="1" fill="white"><title>2020-08-05: 0</title></circle>
	<circle cx="245.24" cy="373.33" data-y="0.22" data-x="1596672000" r="1" fill="white"><title>2020-08-06: 0</title></circle>
	<circle cx="246.75" cy="373.33" data-y="0.22" data-x="1596758400" r="1" fill="white"><title>2020-08-07: 0</title></circle>
	<circle cx="248.25" cy="371.65" data-y="0.44" data-x="1596844800" r="1" fill="white"><title>2020-08-08: 0</title></circle>
	<circle cx="249.76" cy="369.31" data-y="0.75" data-x="1596931200" r="1" fill="white"><title>2020-08-09: 1</title></circle>
	<circle cx="251.27" cy="368.64" data-y="0.84" data-x="1597017600" r="1" fill="white"><title>2020-08-10: 1</title></circle>
	<circle cx="252.78" cy="368.64" data-y="0.84" data-x="1597104000" r="1" fill="white"><title>2020-08-11: 1</title></circle>
	<circle cx="254.29" cy="368.97" data-y="0.80" data-x="1597190400" r="1" fill="white"><title>2020-08-12: 1</title></circle>
	<circle cx="255.80" cy="368.30" data-y="0.88" data-x="1597276800" r="1" fill="white"><title>2020-08-13: 1</title></circle>
	<circle cx="257.31" cy="367.63" data-y="0.97" data-x="1597363200" r="1" fill="white"><title>2020-08-14: 1</title></circle>
	<circle cx="258.81" cy="368.97" data-y="0.80" data-x="1597449600" r="1" fill="white"><title>2020-08-15: 1</title></circle>
	<circle cx="260.32" cy="368.97" data-y="0.80" data-x="1597536000" r="1" fill="white"><title>2020-08-16: 1</title></circle>
	<circle cx="261.83" cy="367.63" data-y="0.97" data-x="1597622400" r="1" fill="white"><title>2020-08-17: 1</title></circle>
	<circle cx="263.34" cy="365.62" data-y="1.24" data-x="1597708800" r="1" fill="white"><title>2020-08-18: 1</title></circle>
	<circle cx="264.85" cy="362.28" data-y="1.68" data-x="1597795200" r="1" fill="white"><title>2020-08-19: 2</title></circle>
	<circle cx="266.36" cy="362.28" data-y="1.68" data-x="1597881600" r="1" fill="white"><title>2020-08-20: 2</title></circle>
	<circle cx="267.86" cy="363.28" data-y="1.55" data-x="1597968000" r="1" fill="white"><title>2020-08-21: 2</title></circle>
	<circle cx="269.37" cy="362.61" data-y="1.64" data-x="1598054400" r="1" fill="white"><title>2020-08-22: 2</title></circle>
	<circle cx="270.88" cy="363.95" data-y="1.46" data-x="1598140800" r="1" fill="white"><title>2020-08-23: 1</title></circle>
	<circle cx="272.39" cy="364.95" data-y="1.33" data-x="1598227200" r="1" fill="white"><title>2020-08-24: 1</title></circle>
	<circle cx="273.90" cy="366.29" data-y="1.15" data-x="1598313600" r="1" fill="white"><title>2020-08-25: 1</title></circle>
	<circle cx="275.41" cy="366.63" data-y="1.11" data-x="1598400000" r="1" fill="white"><title>2020-08-26: 1</title></circle>
	<circle cx="276.92" cy="365.29" data-y="1.28" data-x="1598486400" r="1" fill="white"><title>2020-08-27: 1</title></circle>
	<circle cx="278.42" cy="363.28" data-y="1.55" data-x="1598572800" r="1" fill="white"><title>2020-08-28: 2</title></circle>
	<circle cx="279.93" cy="358.59" data-y="2.17" data-x="1598659200" r="1" fill="white"><title>2020-08-29: 2</title></circle>
	<circle cx="281.44" cy="356.25" data-y="2.48" data-x="1598745600" r="1" fill="white"><title>2020-08-30: 2</title></circle>
	<circle cx="282.95" cy="353.57" data-y="2.83" data-x="1598832000" r="1" fill="white"><title>2020-08-31: 3</title></circle>
	<circle cx="284.46" cy="351.56" data-y="3.10" data-x="1598918400" r="1" fill="white"><title>2020-09-01: 3</title></circle>
	<circle cx="285.97" cy="352.56" data-y="2.96" data-x="1599004800" r="1" fill="white"><title>2020-09-02: 3</title></circle>
	<circle cx="287.47" cy="351.56" data-y="3.10" data-x="1599091200" r="1" fill="white"><title>2020-09-03: 3</title></circle>
	<circle cx="288.98" cy="350.22" data-y="3.27" data-x="1599177600" r="1" fill="white"><title>2020-09-04: 3</title></circle>
	<circle cx="290.49" cy="352.23" data-y="3.01" data-x="1599264000" r="1" fill="white"><title>2020-09-05: 3</title></circle>
	<circle cx="292.00" cy="351.56" data-y="3.10" data-x="1599350400" r="1" fill="white"><title>2020-09-06: 3</title></circle>
	<circle cx="293.51" cy="348.88" data-y="3.45" data-x="1599436800" r="1" fill="white"><title>2020-09-07: 3</title></circle>
	<circle cx="295.02" cy="346.20" data-y="3.81" data-x="1599523200" r="1" fill="white"><title>2020-09-08: 4</title></circle>
	<circle cx="296.53" cy="345.87" data-y="3.85" data-x="1599609600" r="1" fill="white"><title>2020-09-09: 4</title></circle>
	<circle cx="298.03" cy="344.19" data-y="4.07" data-x="1599696000" r="1" fill="white"><title>2020-09-10: 4</title></circle>
	<circle cx="299.54" cy="340.17" data-y="4.60" data-x="1599782400" r="1" fill="white"><title>2020-09-11: 5</title></circle>
	<circle cx="301.05" cy="336.49" data-y="5.09" data-x="1599868800" r="1" fill="white"><title>2020-09-12: 5</title></circle>
	<circle cx="302.56" cy="326.44" data-y="6.42" data-x="1599955200" r="1" fill="white"><title>2020-09-13: 6</title></circle>
	<circle cx="304.07" cy="319.41" data-y="7.35" data-x="1600041600" r="1" fill="white"><title>2020-09-14: 7</title></circle>
	<circle cx="305.58" cy="308.36" data-y="8.81" data-x="1600128000" r="1" fill="white"><title>2020-09-15: 9</title></circle>
	<circle cx="307.08" cy="298.99" data-y="10.04" data-x="1600214400" r="1" fill="white"><title>2020-09-16: 10</title></circle>
	<circle cx="308.59" cy="283.58" data-y="12.08" data-x="1600300800" r="1" fill="white"><title>2020-09-17: 12</title></circle>
	<circle cx="310.10" cy="265.83" data-y="14.43" data-x="1600387200" r="1" fill="white"><title>2020-09-18: 14</title></circle>
	<circle cx="311.61" cy="250.10" data-y="16.50" data-x="1600473600" r="1" fill="white"><title>2020-09-19: 17</title></circle>
	<circle cx="313.12" cy="231.68" data-y="18.94" data-x="1600560000" r="1" fill="white"><title>2020-09-20: 19</title></circle>
	<circle cx="314.63" cy="219.96" data-y="20.49" data-x="1600646400" r="1" fill="white"><title>2020-09-21: 20</title></circle>
	<circle cx="316.14" cy="212.59" data-y="21.46" data-x="1600732800" r="1" fill="white"><title>2020-09-22: 21</title></circle>
	<circle cx="317.64" cy="198.86" data-y="23.27" data-x="1600819200" r="1" fill="white"><title>2020-09-23: 23</title></circle>
	<circle cx="319.15" cy="199.20" data-y="23.23" data-x="1600905600" r="1" fill="white"><title>2020-09-24: 23</title></circle>
	<circle cx="320.66" cy="197.86" data-y="23.41" data-x="1600992000" r="1" fill="white"><title>2020-09-25: 23</title></circle>
	<circle cx="322.17" cy="202.88" data-y="22.74" data-x="1601078400" r="1" fill="white"><title>2020-09-26: 23</title></circle>
	<circle cx="323.68" cy="211.92" data-y="21.55" data-x="1601164800" r="1" fill="white"><title>2020-09-27: 22</title></circle>
	<circle cx="325.19" cy="212.59" data-y="21.46" data-x="1601251200" r="1" fill="white"><title>2020-09-28: 21</title></circle>
	<circle cx="326.69" cy="208.57" data-y="21.99" data-x="1601337600" r="1" fill="white"><title>2020-09-29: 22</title></circle>
	<circle cx="328.20" cy="215.94" data-y="21.02" data-x="1601424000" r="1" fill="white"><title>2020-09-30: 21</title></circle>
	<circle cx="329.71" cy="209.58" data-y="21.86" data-x="1601510400" r="1" fill="white"><title>2020-10-01: 22</title></circle>
	<circle cx="331.22" cy="204.89" data-y="22.48" data-x="1601596800" r="1" fill="white"><title>2020-10-02: 22</title></circle>
	<circle cx="332.73" cy="189.82" data-y="24.47" data-x="1601683200" r="1" fill="white"><title>2020-10-03: 24</title></circle>
	<circle cx="334.24" cy="182.79" data-y="25.40" data-x="1601769600" r="1" fill="white"><title>2020-10-04: 25</title></circle>
	<circle cx="335.75" cy="180.44" data-y="25.71" data-x="1601856000" r="1" fill="white"><title>2020-10-05: 26</title></circle>
	<circle cx="337.25" cy="179.44" data-y="25.84" data-x="1601942400" r="1" fill="white"><title>2020-10-06: 26</title></circle>
	<circle cx="338.76" cy="183.46" data-y="25.31" data-x="1602028800" r="1" fill="white"><title>2020-10-07: 25</title></circle>
	<circle cx="340.27" cy="196.18" data-y="23.63" data-x="1602115200" r="1" fill="white"><title>2020-10-08: 24</title></circle>
	<circle cx="341.78" cy="200.54" data-y="23.05" data-x="1602201600" r="1" fill="white"><title>2020-10-09: 23</title></circle>
	<circle cx="343.29" cy="203.55" data-y="22.66" data-x="1602288000" r="1" fill="white"><title>2020-10-10: 23</title></circle>
	<circle cx="344.80" cy="199.87" data-y="23.14" data-x="1602374400" r="1" fill="white"><title>2020-10-11: 23</title></circle>
	<circle cx="346.31" cy="200.87" data-y="23.01" data-x="1602460800" r="1" fill="white"><title>2020-10-12: 23</title></circle>
	<circle cx="347.81" cy="207.90" data-y="22.08" data-x="1602547200" r="1" fill="white"><title>2020-10-13: 22</title></circle>
	<circle cx="349.32" cy="200.20" data-y="23.10" data-x="1602633600" r="1" fill="white"><title>2020-10-14: 23</title></circle>
	<circle cx="350.83" cy="197.52" data-y="23.45" data-x="1602720000" r="1" fill="white"><title>2020-10-15: 23</title></circle>
	<circle cx="352.34" cy="193.84" data-y="23.94" data-x="1602806400" r="1" fill="white"><title>2020-10-16: 24</title></circle>
	<circle cx="353.85" cy="198.19" data-y="23.36" data-x="1602892800" r="1" fill="white"><title>2020-10-17: 23</title></circle>
	<circle cx="355.36" cy="198.19" data-y="23.36" data-x="1602979200" r="1" fill="white"><title>2020-10-18: 23</title></circle>
	<circle cx="356.86" cy="192.83" data-y="24.07" data-x="1603065600" r="1" fill="white"><title>2020-10-19: 24</title></circle>
	<circle cx="358.37" cy="187.48" data-y="24.78" data-x="1603152000" r="1" fill="white"><title>2020-10-20: 25</title></circle>
	<circle cx="359.88" cy="183.12" data-y="25.35" data-x="1603238400" r="1" fill="white"><title>2020-10-21: 25</title></circle>
	<circle cx="361.39" cy="175.76" data-y="26.33" data-x="1603324800" r="1" fill="white"><title>2020-10-22: 26</title></circle>
	<circle cx="362.90" cy="173.08" data-y="26.68" data-x="1603411200" r="1" fill="white"><title>2020-10-23: 27</title></circle>
	<circle cx="364.41" cy="165.71" data-y="27.66" data-x="1603497600" r="1" fill="white"><title>2020-10-24: 28</title></circle>
	<circle cx="365.92" cy="171.07" data-y="26.95" data-x="1603584000" r="1" fill="white"><title>2020-10-25: 27</title></circle>
	<circle cx="367.42" cy="167.05" data-y="27.48" data-x="1603670400" r="1" fill="white"><title>2020-10-26: 27</title></circle>
	<circle cx="368.93" cy="161.69" data-y="28.19" data-x="1603756800" r="1" fill="white"><title>2020-10-27: 28</title></circle>
	<circle cx="370.44" cy="166.38" data-y="27.57" data-x="1603843200" r="1" fill="white"><title>2020-10-28: 28</title></circle>
	<circle cx="371.95" cy="165.71" data-y="27.66" data-x="1603929600" r="1" fill="white"><title>2020-10-29: 28</title></circle>
	<circle cx="373.46" cy="158.34" data-y="28.63" data-x="1604016000" r="1" fill="white"><title>2020-10-30: 29</title></circle>
	<circle cx="374.97" cy="149.30" data-y="29.82" data-x="1604102400" r="1" fill="white"><title>2020-10-31: 30</title></circle>
	<circle cx="376.47" cy="139.59" data-y="31.11" data-x="1604188800" r="1" fill="white"><title>2020-11-01: 31</title></circle>
	<circle cx="377.98" cy="137.25" data-y="31.42" data-x="1604275200" r="1" fill="white"><title>2020-11-02: 31</title></circle>
	<circle cx="379.49" cy="125.19" data-y="33.01" data-x="1604361600" r="1" fill="white"><title>2020-11-03: 33</title></circle>
	<circle cx="381.00" cy="107.44" data-y="35.35" data-x="1604448000" r="1" fill="white"><title>2020-11-04: 35</title></circle>
	<circle cx="382.51" cy="95.39" data-y="36.95" data-x="1604534400" r="1" fill="white"><title>2020-11-05: 37</title></circle>
	<circle cx="384.02" cy="79.99" data-y="38.98" data-x="1604620800" r="1" fill="white"><title>2020-11-06: 39</title></circle>
	<circle cx="385.53" cy="68.60" data-y="40.49" data-x="1604707200" r="1" fill="white"><title>2020-11-07: 40</title></circle>
	<circle cx="387.03" cy="51.86" data-y="42.70" data-x="1604793600" r="1" fill="white"><title>2020-11-08: 43</title></circle>
	<circle cx="388.54" cy="43.82" data-y="43.76" data-x="1604880000" r="1" fill="white"><title>2020-11-09: 44</title></circle>
	<circle cx="390.05" cy="50.52" data-y="42.88" data-x="1604966400" r="1" fill="white"><title>2020-11-10: 43</title></circle>
	<circle cx="391.56" cy="58.89" data-y="41.77" data-x="1605052800" r="1" fill="white"><title>2020-11-11: 42</title></circle>
	<circle cx="393.07" cy="60.56" data-y="41.55" data-x="1605139200" r="1" fill="white"><title>2020-11-12: 42</title></circle>
	<circle cx="394.58" cy="67.93" data-y="40.58" data-x="1605225600" r="1" fill="white"><title>2020-11-13: 41</title></circle>
	<circle cx="396.08" cy="67.60" data-y="40.62" data-x="1605312000" r="1" fill="white"><title>2020-11-14: 41</title></circle>
	<circle cx="397.59" cy="77.98" data-y="39.25" data-x="1605398400" r="1" fill="white"><title>2020-11-15: 39</title></circle>
	<circle cx="399.10" cy="98.40" data-y="36.55" data-x="1605484800" r="1" fill="white"><title>2020-11-16: 37</title></circle>
	<circle cx="400.61" cy="105.10" data-y="35.66" data-x="1605571200" r="1" fill="white"><title>2020-11-17: 36</title></circle>
	<circle cx="402.12" cy="113.81" data-y="34.51" data-x="1605657600" r="1" fill="white"><title>2020-11-18: 35</title></circle>
	<circle cx="403.63" cy="118.50" data-y="33.89" data-x="1605744000" r="1" fill="white"><title>2020-11-19: 34</title></circle>
	<circle cx="405.14" cy="129.88" data-y="32.39" data-x="1605830400" r="1" fill="white"><title>2020-11-20: 32</title></circle>
	<circle cx="406.64" cy="149.64" data-y="29.78" data-x="1605916800" r="1" fill="white"><title>2020-11-21: 30</title></circle>
	<circle cx="408.15" cy="169.73" data-y="27.12" data-x="1606003200" r="1" fill="white"><title>2020-11-22: 27</title></circle>
	<circle cx="409.66" cy="168.39" data-y="27.30" data-x="1606089600" r="1" fill="white"><title>2020-11-23: 27</title></circle>
	<circle cx="411.17" cy="176.09" data-y="26.28" data-x="1606176000" r="1" fill="white"><title>2020-11-24: 26</title></circle>
	<circle cx="412.68" cy="181.78" data-y="25.53" data-x="1606262400" r="1" fill="white"><title>2020-11-25: 26</title></circle>
	<circle cx="414.19" cy="191.83" data-y="24.20" data-x="1606348800" r="1" fill="white"><title>2020-11-26: 24</title></circle>
	<circle cx="415.69" cy="197.19" data-y="23.50" data-x="1606435200" r="1" fill="white"><title>2020-11-27: 23</title></circle>
	<circle cx="417.20" cy="200.20" data-y="23.10" data-x="1606521600" r="1" fill="white"><title>2020-11-28: 23</title></circle>
	<circle cx="418.71" cy="193.84" data-y="23.94" data-x="1606608000" r="1" fill="white"><title>2020-11-29: 24</title></circle>
	<circle cx="420.22" cy="194.84" data-y="23.81" data-x="1606694400" r="1" fill="white"><title>2020-11-30: 24</title></circle>
	<circle cx="421.73" cy="200.87" data-y="23.01" data-x="1606780800" r="1" fill="white"><title>2020-12-01: 23</title></circle>
	<circle cx="423.24" cy="204.22" data-y="22.57" data-x="1606867200" r="1" fill="white"><title>2020-12-02: 23</title></circle>
	<circle cx="424.75" cy="204.89" data-y="22.48" data-x="1606953600" r="1" fill="white"><title>2020-12-03: 22</title></circle>
	<circle cx="426.25" cy="205.56" data-y="22.39" data-x="1607040000" r="1" fill="white"><title>2020-12-04: 22</title></circle>
	<circle cx="427.76" cy="203.22" data-y="22.70" data-x="1607126400" r="1" fill="white"><title>2020-12-05: 23</title></circle>
	<circle cx="429.27" cy="209.58" data-y="21.86" data-x="1607212800" r="1" fill="white"><title>2020-12-06: 22</title></circle>
	<circle cx="430.78" cy="208.57" data-y="21.99" data-x="1607299200" r="1" fill="white"><title>2020-12-07: 22</title></circle>
	<circle cx="432.29" cy="197.52" data-y="23.45" data-x="1607385600" r="1" fill="white"><title>2020-12-08: 23</title></circle>
	<circle cx="433.80" cy="189.49" data-y="24.51" data-x="1607472000" r="1" fill="white"><title>2020-12-09: 25</title></circle>
	<circle cx="435.31" cy="187.48" data-y="24.78" data-x="1607558400" r="1" fill="white"><title>2020-12-10: 25</title></circle>
	<circle cx="436.81" cy="181.78" data-y="25.53" data-x="1607644800" r="1" fill="white"><title>2020-12-11: 26</title></circle>
	<circle cx="438.32" cy="178.10" data-y="26.02" data-x="1607731200" r="1" fill="white"><title>2020-12-12: 26</title></circle>
	<circle cx="439.83" cy="173.08" data-y="26.68" data-x="1607817600" r="1" fill="white"><title>2020-12-13: 27</title></circle>
	<circle cx="441.34" cy="170.06" data-y="27.08" data-x="1607904000" r="1" fill="white"><title>2020-12-14: 27</title></circle>
	<circle cx="442.85" cy="169.06" data-y="27.21" data-x="1607990400" r="1" fill="white"><title>2020-12-15: 27</title></circle>
	<circle cx="444.36" cy="168.72" data-y="27.26" data-x="1608076800" r="1" fill="white"><title>2020-12-16: 27</title></circle>
	<circle cx="445.86" cy="165.38" data-y="27.70" data-x="1608163200" r="1" fill="white"><title>2020-12-17: 28</title></circle>
	<circle cx="447.37" cy="173.08" data-y="26.68" data-x="1608249600" r="1" fill="white"><title>2020-12-18: 27</title></circle>
	<circle cx="448.88" cy="163.70" data-y="27.92" data-x="1608336000" r="1" fill="white"><title>2020-12-19: 28</title></circle>
	<circle cx="450.39" cy="150.64" data-y="29.65" data-x="1608422400" r="1" fill="white"><title>2020-12-20: 30</title></circle>
	<circle cx="451.90" cy="147.29" data-y="30.09" data-x="1608508800" r="1" fill="white"><title>2020-12-21: 30</title></circle>
	<circle cx="453.41" cy="166.38" data-y="27.57" data-x="1608595200" r="1" fill="white"><title>2020-12-22: 28</title></circle>
	<circle cx="454.92" cy="151.31" data-y="29.56" data-x="1608681600" r="1" fill="white"><title>2020-12-23: 30</title></circle>
	<circle cx="456.42" cy="132.22" data-y="32.08" data-x="1608768000" r="1" fill="white"><title>2020-12-24: 32</title></circle>
	<circle cx="457.93" cy="112.80" data-y="34.65" data-x="1608854400" r="1" fill="white"><title>2020-12-25: 35</title></circle>
	<circle cx="459.44" cy="68.27" data-y="40.53" data-x="1608940800" r="1" fill="white"><title>2020-12-26: 41</title></circle>
	<circle cx="460.95" cy="38.46" data-y="44.47" data-x="1609027200" r="1" fill="white"><title>2020-12-27: 44</title></circle>
	<circle cx="462.46" cy="23.73" data-y="46.42" data-x="1609113600" r="1" fill="white"><title>2020-12-28: 46</title></circle>
</g>
<g data-series="recent-cases" class="data-series">
	<path d="M 462.46,23.73L 463.97,10.00L 465.47,43.82L 466.98,39.41L 468.49,40.74L 470.00,116.57" id="Recent cases" class="line" stroke-width="1" stroke-linecap="round" stroke-dasharray="4,6" stroke-dashoffset="4"><title>Recent cases</title></path>
	<circle cx="462.46" cy="23.73" data-y="46.42" data-x="1609113600" r="2.5" fill="white"><title>2020-12-28: 46</title></circle>
	<circle cx="463.97" cy="10.00" data-y="48.23" data-x="1609200000" r="2.5" fill="white"><title>2020-12-29: 48</title></circle>
	<circle cx="465.47" cy="43.82" data-y="43.76" data-x="1609286400" r="2.5" fill="white"><title>2020-12-30: 44</title></circle>
	<circle cx="466.98" cy="39.41" data-y="44.34" data-x="1609372800" r="2.5" fill="white"><title>2020-12-31: 44</title></circle>
	<circle cx="468.49" cy="40.74" data-y="44.17" data-x="1609459200" r="2.5" fill="white"><title>2021-01-01: 44</title></circle>
	<circle cx="470.00" cy="116.57" data-y="34.15" data-x="1609545600" r="2.5" fill="white"><title>2021-01-02: 34</title></circle>
</g>
</svg>
