<svg width="480" height="400" viewBox="0 0 480 400" xmlns="http://www.w3.org/2000/svg" style="overflow:display" preserveAspectRatio="xMinYMin meet" overflow="visible">
<defs>
	<style>
	.data-series path.line { fill-opacity: 0; stroke: black; }
	.data-series path.line.dotted { stroke-dasharray: 12 20 }
	.data-series circle { display: none; }
	.data-series:hover path.line, .data-series.on path.line { stroke-width: 1; }
	.data-series:hover circle, .data-series.on circle { display: inline; }
	.data-series circle:hover, .data-series circle.on { r: 1px!important; }
	.graph-grid { font-family: "Helvetica Neue",Helvetica,Arial,"Lucida Grande",sans-serif; }
	.graph-grid line { stroke: black; stroke-width: 1; stroke-linecap: round; }
	.graph-grid.graph-grid-x text { text-anchor: middle; dominant-baseline: hanging; transform: translateY(10px); }
	.graph-grid.graph-grid-y text { text-anchor: end; dominant-baseline: middle; transform: translateX(-10px); }
	</style>
</defs>
<g class="graph-grid graph-grid-y">
	<line x1="15.00" y1="375.00" x2="470.00" y2="375.00" data-left="15"></line>
	<text x="25" y="375" text-anchor="end">0</text>
	<text x="25" y="262.665166666667" text-anchor="end">5</text>
	<text x="25" y="150.330333333333" text-anchor="end">10</text>
	<text x="25" y="37.9955000000001" text-anchor="end">15</text>
	<text style="text-anchor:middle;dominant-baseline:hanging;font-weight:bold;transform: translateY(192.5px) rotate(-90deg);"></text>
</g>
<g class="graph-grid graph-grid-x">
	<line class="tick" x1="53.09" y1="375.00" x2="53.09" y2="380.00"></line>
	<text x="53.093023255814" y="375" text-anchor="middle">A</text>
	<line class="tick" x1="116.58" y1="375.00" x2="116.58" y2="380.00"></line>
	<text x="116.581395348837" y="375" text-anchor="middle">M</text>
	<line class="tick" x1="182.19" y1="375.00" x2="182.19" y2="380.00"></line>
	<text x="182.186046511628" y="375" text-anchor="middle">J</text>
	<line class="tick" x1="245.67" y1="375.00" x2="245.67" y2="380.00"></line>
	<text x="245.674418604651" y="375" text-anchor="middle">J</text>
	<line class="tick" x1="311.28" y1="375.00" x2="311.28" y2="380.00"></line>
	<text x="311.279069767442" y="375" text-anchor="middle">A</text>
	<line class="tick" x1="376.88" y1="375.00" x2="376.88" y2="380.00"></line>
	<text x="376.883720930233" y="375" text-anchor="middle">S</text>
	<line class="tick" x1="440.37" y1="375.00" x2="440.37" y2="380.00"></line>
	<text x="440.372093023256" y="375" text-anchor="middle">O</text>
	<text style="text-anchor:middle;dominant-baseline:hanging;font-weight:bold;transform: translateY(192.5px) rotate(-90deg);"></text>
</g>
<g data-series="widespread" class="data-series">
	<path d="M 15.00,217.73L 470.00,217.73" id="E06000031-level-0" class="line" stroke-width="1" stroke-linecap="round" stroke-dasharray="3,3" fill-opacity="0.3" opacity="0.3"><title>Widespread</title></path>
</g>
<g data-series="substantial" class="data-series">
	<path d="M 15.00,285.13L 470.00,285.13" id="E06000031-level-1" class="line" stroke-width="1" stroke-linecap="round" stroke-dasharray="3,3" fill-opacity="0.3" opacity="0.3"><title>Substantial</title></path>
</g>
<g data-series="moderate" class="data-series">
	<path d="M 15.00,352.53L 470.00,352.53" id="E06000031-level-2" class="line" stroke-width="1" stroke-linecap="round" stroke-dasharray="3,3" fill-opacity="0.3" opacity="0.3"><title>Moderate</title></path>
</g>
<g data-series="new-cases" class="data-series">
	<path d="M 15.00,369.54L 17.12,368.45L 19.23,367.72L 21.35,360.96L 23.47,359.40L 25.58,353.16L 27.70,348.48L 29.81,345.36L 31.93,345.36L 34.05,340.68L 36.16,339.12L 38.28,336.00L 40.40,337.56L 42.51,332.88L 44.63,329.76L 46.74,321.97L 48.86,320.41L 50.98,314.17L 53.09,315.73L 55.21,311.05L 57.33,307.93L 59.44,300.13L 61.56,298.57L 63.67,303.25L 65.79,312.61L 67.91,312.61L 70.02,307.93L 72.14,307.93L 74.26,315.73L 76.37,318.85L 78.49,303.25L 80.60,290.77L 82.72,293.89L 84.84,300.13L 86.95,295.45L 89.07,273.61L 91.19,254.89L 93.30,243.97L 95.42,251.77L 97.53,242.41L 99.65,198.74L 101.77,165.98L 103.88,134.79L 106.00,114.51L 108.12,81.75L 110.23,25.60L 112.35,10.00L 114.47,28.72L 116.58,52.12L 118.70,75.51L 120.81,103.59L 122.93,78.63L 125.05,120.75L 127.16,112.95L 129.28,119.19L 131.40,97.35L 133.51,103.59L 135.63,77.07L 137.74,131.67L 139.86,122.31L 141.98,134.79L 144.09,139.47L 146.21,159.74L 148.33,161.30L 150.44,173.78L 152.56,180.02L 154.67,183.14L 156.79,170.66L 158.91,181.58L 161.02,190.94L 163.14,204.98L 165.26,222.14L 167.37,225.26L 169.49,236.18L 171.60,259.57L 173.72,259.57L 175.84,261.13L 177.95,270.49L 180.07,278.29L 182.19,293.89L 184.30,284.53L 186.42,261.13L 188.53,262.69L 190.65,264.25L 192.77,254.89L 194.88,242.41L 197.00,234.62L 199.12,261.13L 201.23,290.77L 203.35,292.33L 205.47,295.45L 207.58,290.77L 209.70,298.57L 211.81,297.01L 213.93,287.65L 216.05,286.09L 218.16,287.65L 220.28,279.85L 222.40,289.21L 224.51,290.77L 226.63,298.57L 228.74,297.01L 230.86,303.25L 232.98,303.25L 235.09,320.41L 237.21,323.53L 239.33,325.09L 241.44,326.65L 243.56,331.32L 245.67,329.76L 247.79,314.17L 249.91,306.37L 252.02,298.57L 254.14,287.65L 256.26,278.29L 258.37,272.05L 260.49,261.13L 262.60,270.49L 264.72,275.17L 266.84,272.05L 268.95,287.65L 271.07,282.97L 273.19,289.21L 275.30,297.01L 277.42,306.37L 279.53,300.13L 281.65,307.93L 283.77,307.93L 285.88,321.97L 288.00,315.73L 290.12,315.73L 292.23,312.61L 294.35,309.49L 296.47,297.01L 298.58,289.21L 300.70,286.09L 302.81,300.13L 304.93,306.37L 307.05,303.25L 309.16,314.17L 311.28,334.44L 313.40,337.56L 315.51,339.12L 317.63,326.65L 319.74,317.29L 321.86,323.53L 323.98,315.73L 326.09,312.61L 328.21,312.61L 330.33,321.97L 332.44,326.65L 334.56,328.21L 336.67,328.21L 338.79,328.21L 340.91,331.32L 343.02,336.00L 345.14,329.76L 347.26,325.09L 349.37,321.97L 351.49,315.73L 353.60,315.73L 355.72,306.37L 357.84,307.93L 359.95,307.93L 362.07,311.05L 364.19,307.93L 366.30,307.93L 368.42,314.17L 370.53,307.93L 372.65,298.57L 374.77,281.41L 376.88,287.65L 379.00,290.77L 381.12,292.33L 383.23,267.37L 385.35,275.17L 387.47,268.93L 389.58,276.73L 391.70,278.29L 393.81,284.53L 395.93,287.65L 398.05,317.29L 400.16,320.41L 402.28,329.76L 404.40,337.56L 406.51,321.97L 408.63,321.97L 410.74,314.17L 412.86,298.57L 414.98,292.33L 417.09,293.89L 419.21,290.77L 421.33,284.53L 423.44,270.49L 425.56,264.25L 427.67,262.69L 429.79,251.77L 431.91,226.82L 434.02,209.66L 436.14,195.62L 438.26,187.82L 440.37,178.46L 442.49,162.86L 444.60,137.91L 446.72,126.99L 448.84,109.83L 450.95,120.75L 453.07,119.19L 455.19,117.63L 457.30,98.91L 459.42,114.51" id="New cases" class="line" stroke-width="1" stroke-linecap="round"><title>New cases</title></path>
</g>
<g data-series="recent-cases" class="data-series">
	<path d="M 459.42,114.51L 461.53,148.82L 463.65,194.06L 465.77,196.66L 467.88,200.30L 470.00,208.49" id="Recent cases" class="line" stroke-width="1" stroke-linecap="round" stroke-dasharray="5,5"><title>Recent cases</title></path>
</g>
</svg>
