<svg width="480" height="400" viewBox="0 0 480 400" xmlns="http://www.w3.org/2000/svg" style="overflow:display" preserveAspectRatio="xMinYMin meet" overflow="visible">
<defs>
	<style>
	.data-series path.line { fill-opacity: 0; stroke: black; }
	.data-series path.line.dotted { stroke-dasharray: 12 20 }
	.data-series:hover path.line, .data-series.on path.line { stroke-width: 1; }
	.data-series:hover circle, .data-series.on circle { display: inline; }
	.graph-grid { font-family: "Helvetica Neue",Helvetica,Arial,"Lucida Grande",sans-serif; }
	.graph-grid line { stroke: black; stroke-width: 1; stroke-linecap: round; }
	.graph-grid.graph-grid-x text { text-anchor: middle; dominant-baseline: hanging; transform: translateY(10px); }
	.graph-grid.graph-grid-y text { text-anchor: end; dominant-baseline: middle; transform: translateX(-10px); }
	</style>
</defs>
<g class="graph-grid graph-grid-y">
	<line x1="25.00" y1="375.00" x2="470.00" y2="375.00" data-left="25"></line>
	<text x="35" y="375" text-anchor="end">0</text>
	<text x="35" y="225.2322875" text-anchor="end">10</text>
	<text x="35" y="75.464575" text-anchor="end">20</text>
	<text style="text-anchor:middle;dominant-baseline:hanging;font-weight:bold;transform: translateY(192.5px) rotate(-90deg);"></text>
</g>
<g class="graph-grid graph-grid-x">
	<line class="tick" x1="63.98" y1="375.00" x2="63.98" y2="380.00"></line>
	<text x="63.978102189781" y="375" text-anchor="middle">A</text>
	<line class="tick" x1="112.70" y1="375.00" x2="112.70" y2="380.00"></line>
	<text x="112.700729927007" y="375" text-anchor="middle">M</text>
	<line class="tick" x1="163.05" y1="375.00" x2="163.05" y2="380.00"></line>
	<text x="163.047445255474" y="375" text-anchor="middle">J</text>
	<line class="tick" x1="211.77" y1="375.00" x2="211.77" y2="380.00"></line>
	<text x="211.770072992701" y="375" text-anchor="middle">J</text>
	<line class="tick" x1="262.12" y1="375.00" x2="262.12" y2="380.00"></line>
	<text x="262.116788321168" y="375" text-anchor="middle">A</text>
	<line class="tick" x1="312.46" y1="375.00" x2="312.46" y2="380.00"></line>
	<text x="312.463503649635" y="375" text-anchor="middle">S</text>
	<line class="tick" x1="361.19" y1="375.00" x2="361.19" y2="380.00"></line>
	<text x="361.186131386861" y="375" text-anchor="middle">O</text>
	<line class="tick" x1="411.53" y1="375.00" x2="411.53" y2="380.00"></line>
	<text x="411.532846715329" y="375" text-anchor="middle">N</text>
	<line class="tick" x1="460.26" y1="375.00" x2="460.26" y2="380.00"></line>
	<text x="460.255474452555" y="375" text-anchor="middle">D</text>
	<text style="text-anchor:middle;dominant-baseline:hanging;font-weight:bold;transform: translateY(192.5px) rotate(-90deg);"></text>
</g>
<g data-series="widespread" class="data-series">
	<path d="M 25.00,270.16L 470.00,270.16" id="E06000038-level-0" class="line" stroke-width="1" stroke-linecap="round" stroke-dasharray="3,3" fill-opacity="0.3" opacity="0.3"><title>Widespread</title></path>
</g>
<g data-series="substantial" class="data-series">
	<path d="M 25.00,315.09L 470.00,315.09" id="E06000038-level-1" class="line" stroke-width="1" stroke-linecap="round" stroke-dasharray="3,3" fill-opacity="0.3" opacity="0.3"><title>Substantial</title></path>
</g>
<g data-series="moderate" class="data-series">
	<path d="M 25.00,360.02L 470.00,360.02" id="E06000038-level-2" class="line" stroke-width="1" stroke-linecap="round" stroke-dasharray="3,3" fill-opacity="0.3" opacity="0.3"><title>Moderate</title></path>
</g>
<g data-series="new-cases" class="data-series">
	<path d="M 25.00,370.44L 26.62,369.52L 28.25,370.44L 29.87,367.18L 31.50,365.88L 33.12,364.57L 34.74,363.27L 36.37,358.05L 37.99,358.05L 39.62,356.75L 41.24,356.75L 42.86,356.75L 44.49,352.84L 46.11,352.84L 47.74,347.62L 49.36,339.80L 50.99,337.20L 52.61,328.07L 54.23,316.34L 55.86,308.52L 57.48,304.61L 59.11,296.79L 60.73,292.88L 62.35,285.05L 63.98,279.84L 65.60,283.75L 67.23,290.27L 68.85,279.84L 70.47,281.14L 72.10,274.63L 73.72,268.11L 75.35,274.63L 76.97,251.16L 78.59,222.48L 80.22,191.20L 81.84,176.86L 83.47,158.61L 85.09,150.79L 86.72,153.39L 88.34,176.86L 89.96,189.89L 91.59,209.45L 93.21,219.87L 94.84,243.34L 96.46,252.46L 98.08,245.95L 99.71,235.52L 101.33,230.30L 102.96,235.52L 104.58,235.52L 106.20,238.12L 107.83,245.95L 109.45,251.16L 111.08,260.29L 112.70,273.32L 114.32,286.36L 115.95,294.18L 117.57,299.39L 119.20,302.00L 120.82,305.91L 122.45,308.52L 124.07,309.82L 125.69,311.12L 127.32,317.64L 128.94,317.64L 130.57,318.95L 132.19,320.25L 133.81,326.77L 135.44,328.07L 137.06,324.16L 138.69,324.16L 140.31,326.77L 141.93,328.07L 143.56,329.38L 145.18,329.38L 146.81,337.20L 148.43,348.93L 150.05,345.02L 151.68,343.71L 153.30,346.32L 154.93,346.32L 156.55,346.32L 158.18,338.50L 159.80,334.59L 161.42,341.11L 163.05,341.11L 164.67,342.41L 166.30,345.02L 167.92,347.62L 169.54,354.14L 171.17,359.36L 172.79,360.66L 174.42,363.27L 176.04,363.27L 177.66,363.27L 179.29,363.27L 180.91,367.18L 182.54,365.88L 184.16,367.18L 185.78,369.79L 187.41,369.79L 189.03,371.09L 190.66,371.09L 192.28,372.39L 193.91,371.09L 195.53,371.09L 197.15,369.79L 198.78,369.79L 200.40,365.88L 202.03,363.27L 203.65,363.27L 205.27,364.57L 206.90,363.27L 208.52,364.57L 210.15,364.57L 211.77,368.48L 213.39,369.79L 215.02,369.79L 216.64,367.18L 218.27,368.48L 219.89,367.18L 221.51,364.57L 223.14,364.57L 224.76,363.27L 226.39,361.96L 228.01,365.88L 229.64,363.27L 231.26,359.36L 232.88,359.36L 234.51,358.05L 236.13,360.66L 237.76,361.96L 239.38,360.66L 241.00,363.27L 242.63,360.66L 244.25,361.96L 245.88,361.96L 247.50,359.36L 249.12,356.75L 250.75,358.05L 252.37,359.36L 254.00,367.18L 255.62,364.57L 257.24,364.57L 258.87,367.18L 260.49,368.48L 262.12,368.48L 263.74,363.27L 265.36,363.27L 266.99,365.88L 268.61,365.88L 270.24,365.88L 271.86,360.66L 273.49,358.05L 275.11,363.27L 276.73,361.96L 278.36,359.36L 279.98,360.66L 281.61,360.66L 283.23,360.66L 284.85,358.05L 286.48,354.14L 288.10,354.14L 289.73,352.84L 291.35,351.54L 292.97,351.54L 294.60,351.54L 296.22,351.54L 297.85,346.32L 299.47,345.02L 301.09,348.93L 302.72,348.93L 304.34,347.62L 305.97,347.62L 307.59,350.23L 309.22,355.45L 310.84,355.45L 312.46,348.93L 314.09,339.80L 315.71,330.68L 317.34,329.38L 318.96,329.38L 320.58,331.98L 322.21,330.68L 323.83,335.89L 325.46,345.02L 327.08,355.45L 328.70,360.66L 330.33,360.66L 331.95,360.66L 333.58,360.66L 335.20,360.66L 336.82,355.45L 338.45,352.84L 340.07,347.62L 341.70,337.20L 343.32,331.98L 344.95,324.16L 346.57,313.73L 348.19,316.34L 349.82,313.73L 351.44,311.12L 353.07,317.64L 354.69,312.43L 356.31,312.43L 357.94,309.82L 359.56,307.21L 361.19,298.09L 362.81,278.54L 364.43,262.89L 366.06,252.46L 367.68,234.21L 369.31,223.79L 370.93,214.66L 372.55,221.18L 374.18,225.09L 375.80,209.45L 377.43,176.86L 379.05,185.98L 380.68,182.07L 382.30,182.07L 383.92,172.95L 385.55,142.96L 387.17,132.54L 388.80,150.79L 390.42,122.11L 392.04,120.80L 393.67,99.95L 395.29,92.12L 396.92,86.91L 398.54,81.70L 400.16,75.18L 401.79,68.66L 403.41,42.59L 405.04,41.29L 406.66,37.38L 408.28,24.34L 409.91,24.34L 411.53,10.00L 413.16,30.86L 414.78,60.84L 416.41,63.45L 418.03,53.02L 419.65,75.18L 421.28,80.39L 422.90,83.00L 424.53,75.18L 426.15,47.80L 427.77,33.46L 429.40,43.89L 431.02,19.13L 432.65,30.86L 434.27,39.98L 435.89,47.80L 437.52,50.41L 439.14,69.96L 440.77,73.88L 442.39,118.20L 444.01,99.95L 445.64,99.95L 447.26,80.39L 448.89,99.95L 450.51,99.95L 452.14,94.73L 453.76,67.36L 455.38,72.57L 457.01,59.54L 458.63,68.66L 460.26,29.55L 461.88,37.38" id="New cases" class="line" stroke-width="1" stroke-linecap="round"><title>New cases</title></path>
	<circle cx="25.00" cy="370.44" data-y="0.30" data-x="1583625600" r="1" fill="white"><title>2020-03-08: 0</title></circle>
	<circle cx="26.62" cy="369.52" data-y="0.37" data-x="1583712000" r="1" fill="white"><title>2020-03-09: 0</title></circle>
	<circle cx="28.25" cy="370.44" data-y="0.30" data-x="1583798400" r="1" fill="white"><title>2020-03-10: 0</title></circle>
	<circle cx="29.87" cy="367.18" data-y="0.52" data-x="1583884800" r="1" fill="white"><title>2020-03-11: 1</title></circle>
	<circle cx="31.50" cy="365.88" data-y="0.61" data-x="1583971200" r="1" fill="white"><title>2020-03-12: 1</title></circle>
	<circle cx="33.12" cy="364.57" data-y="0.70" data-x="1584057600" r="1" fill="white"><title>2020-03-13: 1</title></circle>
	<circle cx="34.74" cy="363.27" data-y="0.78" data-x="1584144000" r="1" fill="white"><title>2020-03-14: 1</title></circle>
	<circle cx="36.37" cy="358.05" data-y="1.13" data-x="1584230400" r="1" fill="white"><title>2020-03-15: 1</title></circle>
	<circle cx="37.99" cy="358.05" data-y="1.13" data-x="1584316800" r="1" fill="white"><title>2020-03-16: 1</title></circle>
	<circle cx="39.62" cy="356.75" data-y="1.22" data-x="1584403200" r="1" fill="white"><title>2020-03-17: 1</title></circle>
	<circle cx="41.24" cy="356.75" data-y="1.22" data-x="1584489600" r="1" fill="white"><title>2020-03-18: 1</title></circle>
	<circle cx="42.86" cy="356.75" data-y="1.22" data-x="1584576000" r="1" fill="white"><title>2020-03-19: 1</title></circle>
	<circle cx="44.49" cy="352.84" data-y="1.48" data-x="1584662400" r="1" fill="white"><title>2020-03-20: 1</title></circle>
	<circle cx="46.11" cy="352.84" data-y="1.48" data-x="1584748800" r="1" fill="white"><title>2020-03-21: 1</title></circle>
	<circle cx="47.74" cy="347.62" data-y="1.83" data-x="1584835200" r="1" fill="white"><title>2020-03-22: 2</title></circle>
	<circle cx="49.36" cy="339.80" data-y="2.35" data-x="1584921600" r="1" fill="white"><title>2020-03-23: 2</title></circle>
	<circle cx="50.99" cy="337.20" data-y="2.52" data-x="1585008000" r="1" fill="white"><title>2020-03-24: 3</title></circle>
	<circle cx="52.61" cy="328.07" data-y="3.13" data-x="1585094400" r="1" fill="white"><title>2020-03-25: 3</title></circle>
	<circle cx="54.23" cy="316.34" data-y="3.92" data-x="1585180800" r="1" fill="white"><title>2020-03-26: 4</title></circle>
	<circle cx="55.86" cy="308.52" data-y="4.44" data-x="1585267200" r="1" fill="white"><title>2020-03-27: 4</title></circle>
	<circle cx="57.48" cy="304.61" data-y="4.70" data-x="1585353600" r="1" fill="white"><title>2020-03-28: 5</title></circle>
	<circle cx="59.11" cy="296.79" data-y="5.22" data-x="1585440000" r="1" fill="white"><title>2020-03-29: 5</title></circle>
	<circle cx="60.73" cy="292.88" data-y="5.48" data-x="1585526400" r="1" fill="white"><title>2020-03-30: 5</title></circle>
	<circle cx="62.35" cy="285.05" data-y="6.01" data-x="1585612800" r="1" fill="white"><title>2020-03-31: 6</title></circle>
	<circle cx="63.98" cy="279.84" data-y="6.35" data-x="1585699200" r="1" fill="white"><title>2020-04-01: 6</title></circle>
	<circle cx="65.60" cy="283.75" data-y="6.09" data-x="1585785600" r="1" fill="white"><title>2020-04-02: 6</title></circle>
	<circle cx="67.23" cy="290.27" data-y="5.66" data-x="1585872000" r="1" fill="white"><title>2020-04-03: 6</title></circle>
	<circle cx="68.85" cy="279.84" data-y="6.35" data-x="1585958400" r="1" fill="white"><title>2020-04-04: 6</title></circle>
	<circle cx="70.47" cy="281.14" data-y="6.27" data-x="1586044800" r="1" fill="white"><title>2020-04-05: 6</title></circle>
	<circle cx="72.10" cy="274.63" data-y="6.70" data-x="1586131200" r="1" fill="white"><title>2020-04-06: 7</title></circle>
	<circle cx="73.72" cy="268.11" data-y="7.14" data-x="1586217600" r="1" fill="white"><title>2020-04-07: 7</title></circle>
	<circle cx="75.35" cy="274.63" data-y="6.70" data-x="1586304000" r="1" fill="white"><title>2020-04-08: 7</title></circle>
	<circle cx="76.97" cy="251.16" data-y="8.27" data-x="1586390400" r="1" fill="white"><title>2020-04-09: 8</title></circle>
	<circle cx="78.59" cy="222.48" data-y="10.18" data-x="1586476800" r="1" fill="white"><title>2020-04-10: 10</title></circle>
	<circle cx="80.22" cy="191.20" data-y="12.27" data-x="1586563200" r="1" fill="white"><title>2020-04-11: 12</title></circle>
	<circle cx="81.84" cy="176.86" data-y="13.23" data-x="1586649600" r="1" fill="white"><title>2020-04-12: 13</title></circle>
	<circle cx="83.47" cy="158.61" data-y="14.45" data-x="1586736000" r="1" fill="white"><title>2020-04-13: 14</title></circle>
	<circle cx="85.09" cy="150.79" data-y="14.97" data-x="1586822400" r="1" fill="white"><title>2020-04-14: 15</title></circle>
	<circle cx="86.72" cy="153.39" data-y="14.80" data-x="1586908800" r="1" fill="white"><title>2020-04-15: 15</title></circle>
	<circle cx="88.34" cy="176.86" data-y="13.23" data-x="1586995200" r="1" fill="white"><title>2020-04-16: 13</title></circle>
	<circle cx="89.96" cy="189.89" data-y="12.36" data-x="1587081600" r="1" fill="white"><title>2020-04-17: 12</title></circle>
	<circle cx="91.59" cy="209.45" data-y="11.05" data-x="1587168000" r="1" fill="white"><title>2020-04-18: 11</title></circle>
	<circle cx="93.21" cy="219.87" data-y="10.36" data-x="1587254400" r="1" fill="white"><title>2020-04-19: 10</title></circle>
	<circle cx="94.84" cy="243.34" data-y="8.79" data-x="1587340800" r="1" fill="white"><title>2020-04-20: 9</title></circle>
	<circle cx="96.46" cy="252.46" data-y="8.18" data-x="1587427200" r="1" fill="white"><title>2020-04-21: 8</title></circle>
	<circle cx="98.08" cy="245.95" data-y="8.62" data-x="1587513600" r="1" fill="white"><title>2020-04-22: 9</title></circle>
	<circle cx="99.71" cy="235.52" data-y="9.31" data-x="1587600000" r="1" fill="white"><title>2020-04-23: 9</title></circle>
	<circle cx="101.33" cy="230.30" data-y="9.66" data-x="1587686400" r="1" fill="white"><title>2020-04-24: 10</title></circle>
	<circle cx="102.96" cy="235.52" data-y="9.31" data-x="1587772800" r="1" fill="white"><title>2020-04-25: 9</title></circle>
	<circle cx="104.58" cy="235.52" data-y="9.31" data-x="1587859200" r="1" fill="white"><title>2020-04-26: 9</title></circle>
	<circle cx="106.20" cy="238.12" data-y="9.14" data-x="1587945600" r="1" fill="white"><title>2020-04-27: 9</title></circle>
	<circle cx="107.83" cy="245.95" data-y="8.62" data-x="1588032000" r="1" fill="white"><title>2020-04-28: 9</title></circle>
	<circle cx="109.45" cy="251.16" data-y="8.27" data-x="1588118400" r="1" fill="white"><title>2020-04-29: 8</title></circle>
	<circle cx="111.08" cy="260.29" data-y="7.66" data-x="1588204800" r="1" fill="white"><title>2020-04-30: 8</title></circle>
	<circle cx="112.70" cy="273.32" data-y="6.79" data-x="1588291200" r="1" fill="white"><title>2020-05-01: 7</title></circle>
	<circle cx="114.32" cy="286.36" data-y="5.92" data-x="1588377600" r="1" fill="white"><title>2020-05-02: 6</title></circle>
	<circle cx="115.95" cy="294.18" data-y="5.40" data-x="1588464000" r="1" fill="white"><title>2020-05-03: 5</title></circle>
	<circle cx="117.57" cy="299.39" data-y="5.05" data-x="1588550400" r="1" fill="white"><title>2020-05-04: 5</title></circle>
	<circle cx="119.20" cy="302.00" data-y="4.87" data-x="1588636800" r="1" fill="white"><title>2020-05-05: 5</title></circle>
	<circle cx="120.82" cy="305.91" data-y="4.61" data-x="1588723200" r="1" fill="white"><title>2020-05-06: 5</title></circle>
	<circle cx="122.45" cy="308.52" data-y="4.44" data-x="1588809600" r="1" fill="white"><title>2020-05-07: 4</title></circle>
	<circle cx="124.07" cy="309.82" data-y="4.35" data-x="1588896000" r="1" fill="white"><title>2020-05-08: 4</title></circle>
	<circle cx="125.69" cy="311.12" data-y="4.26" data-x="1588982400" r="1" fill="white"><title>2020-05-09: 4</title></circle>
	<circle cx="127.32" cy="317.64" data-y="3.83" data-x="1589068800" r="1" fill="white"><title>2020-05-10: 4</title></circle>
	<circle cx="128.94" cy="317.64" data-y="3.83" data-x="1589155200" r="1" fill="white"><title>2020-05-11: 4</title></circle>
	<circle cx="130.57" cy="318.95" data-y="3.74" data-x="1589241600" r="1" fill="white"><title>2020-05-12: 4</title></circle>
	<circle cx="132.19" cy="320.25" data-y="3.66" data-x="1589328000" r="1" fill="white"><title>2020-05-13: 4</title></circle>
	<circle cx="133.81" cy="326.77" data-y="3.22" data-x="1589414400" r="1" fill="white"><title>2020-05-14: 3</title></circle>
	<circle cx="135.44" cy="328.07" data-y="3.13" data-x="1589500800" r="1" fill="white"><title>2020-05-15: 3</title></circle>
	<circle cx="137.06" cy="324.16" data-y="3.39" data-x="1589587200" r="1" fill="white"><title>2020-05-16: 3</title></circle>
	<circle cx="138.69" cy="324.16" data-y="3.39" data-x="1589673600" r="1" fill="white"><title>2020-05-17: 3</title></circle>
	<circle cx="140.31" cy="326.77" data-y="3.22" data-x="1589760000" r="1" fill="white"><title>2020-05-18: 3</title></circle>
	<circle cx="141.93" cy="328.07" data-y="3.13" data-x="1589846400" r="1" fill="white"><title>2020-05-19: 3</title></circle>
	<circle cx="143.56" cy="329.38" data-y="3.05" data-x="1589932800" r="1" fill="white"><title>2020-05-20: 3</title></circle>
	<circle cx="145.18" cy="329.38" data-y="3.05" data-x="1590019200" r="1" fill="white"><title>2020-05-21: 3</title></circle>
	<circle cx="146.81" cy="337.20" data-y="2.52" data-x="1590105600" r="1" fill="white"><title>2020-05-22: 3</title></circle>
	<circle cx="148.43" cy="348.93" data-y="1.74" data-x="1590192000" r="1" fill="white"><title>2020-05-23: 2</title></circle>
	<circle cx="150.05" cy="345.02" data-y="2.00" data-x="1590278400" r="1" fill="white"><title>2020-05-24: 2</title></circle>
	<circle cx="151.68" cy="343.71" data-y="2.09" data-x="1590364800" r="1" fill="white"><title>2020-05-25: 2</title></circle>
	<circle cx="153.30" cy="346.32" data-y="1.91" data-x="1590451200" r="1" fill="white"><title>2020-05-26: 2</title></circle>
	<circle cx="154.93" cy="346.32" data-y="1.91" data-x="1590537600" r="1" fill="white"><title>2020-05-27: 2</title></circle>
	<circle cx="156.55" cy="346.32" data-y="1.91" data-x="1590624000" r="1" fill="white"><title>2020-05-28: 2</title></circle>
	<circle cx="158.18" cy="338.50" data-y="2.44" data-x="1590710400" r="1" fill="white"><title>2020-05-29: 2</title></circle>
	<circle cx="159.80" cy="334.59" data-y="2.70" data-x="1590796800" r="1" fill="white"><title>2020-05-30: 3</title></circle>
	<circle cx="161.42" cy="341.11" data-y="2.26" data-x="1590883200" r="1" fill="white"><title>2020-05-31: 2</title></circle>
	<circle cx="163.05" cy="341.11" data-y="2.26" data-x="1590969600" r="1" fill="white"><title>2020-06-01: 2</title></circle>
	<circle cx="164.67" cy="342.41" data-y="2.18" data-x="1591056000" r="1" fill="white"><title>2020-06-02: 2</title></circle>
	<circle cx="166.30" cy="345.02" data-y="2.00" data-x="1591142400" r="1" fill="white"><title>2020-06-03: 2</title></circle>
	<circle cx="167.92" cy="347.62" data-y="1.83" data-x="1591228800" r="1" fill="white"><title>2020-06-04: 2</title></circle>
	<circle cx="169.54" cy="354.14" data-y="1.39" data-x="1591315200" r="1" fill="white"><title>2020-06-05: 1</title></circle>
	<circle cx="171.17" cy="359.36" data-y="1.04" data-x="1591401600" r="1" fill="white"><title>2020-06-06: 1</title></circle>
	<circle cx="172.79" cy="360.66" data-y="0.96" data-x="1591488000" r="1" fill="white"><title>2020-06-07: 1</title></circle>
	<circle cx="174.42" cy="363.27" data-y="0.78" data-x="1591574400" r="1" fill="white"><title>2020-06-08: 1</title></circle>
	<circle cx="176.04" cy="363.27" data-y="0.78" data-x="1591660800" r="1" fill="white"><title>2020-06-09: 1</title></circle>
	<circle cx="177.66" cy="363.27" data-y="0.78" data-x="1591747200" r="1" fill="white"><title>2020-06-10: 1</title></circle>
	<circle cx="179.29" cy="363.27" data-y="0.78" data-x="1591833600" r="1" fill="white"><title>2020-06-11: 1</title></circle>
	<circle cx="180.91" cy="367.18" data-y="0.52" data-x="1591920000" r="1" fill="white"><title>2020-06-12: 1</title></circle>
	<circle cx="182.54" cy="365.88" data-y="0.61" data-x="1592006400" r="1" fill="white"><title>2020-06-13: 1</title></circle>
	<circle cx="184.16" cy="367.18" data-y="0.52" data-x="1592092800" r="1" fill="white"><title>2020-06-14: 1</title></circle>
	<circle cx="185.78" cy="369.79" data-y="0.35" data-x="1592179200" r="1" fill="white"><title>2020-06-15: 0</title></circle>
	<circle cx="187.41" cy="369.79" data-y="0.35" data-x="1592265600" r="1" fill="white"><title>2020-06-16: 0</title></circle>
	<circle cx="189.03" cy="371.09" data-y="0.26" data-x="1592352000" r="1" fill="white"><title>2020-06-17: 0</title></circle>
	<circle cx="190.66" cy="371.09" data-y="0.26" data-x="1592438400" r="1" fill="white"><title>2020-06-18: 0</title></circle>
	<circle cx="192.28" cy="372.39" data-y="0.17" data-x="1592524800" r="1" fill="white"><title>2020-06-19: 0</title></circle>
	<circle cx="193.91" cy="371.09" data-y="0.26" data-x="1592611200" r="1" fill="white"><title>2020-06-20: 0</title></circle>
	<circle cx="195.53" cy="371.09" data-y="0.26" data-x="1592697600" r="1" fill="white"><title>2020-06-21: 0</title></circle>
	<circle cx="197.15" cy="369.79" data-y="0.35" data-x="1592784000" r="1" fill="white"><title>2020-06-22: 0</title></circle>
	<circle cx="198.78" cy="369.79" data-y="0.35" data-x="1592870400" r="1" fill="white"><title>2020-06-23: 0</title></circle>
	<circle cx="200.40" cy="365.88" data-y="0.61" data-x="1592956800" r="1" fill="white"><title>2020-06-24: 1</title></circle>
	<circle cx="202.03" cy="363.27" data-y="0.78" data-x="1593043200" r="1" fill="white"><title>2020-06-25: 1</title></circle>
	<circle cx="203.65" cy="363.27" data-y="0.78" data-x="1593129600" r="1" fill="white"><title>2020-06-26: 1</title></circle>
	<circle cx="205.27" cy="364.57" data-y="0.70" data-x="1593216000" r="1" fill="white"><title>2020-06-27: 1</title></circle>
	<circle cx="206.90" cy="363.27" data-y="0.78" data-x="1593302400" r="1" fill="white"><title>2020-06-28: 1</title></circle>
	<circle cx="208.52" cy="364.57" data-y="0.70" data-x="1593388800" r="1" fill="white"><title>2020-06-29: 1</title></circle>
	<circle cx="210.15" cy="364.57" data-y="0.70" data-x="1593475200" r="1" fill="white"><title>2020-06-30: 1</title></circle>
	<circle cx="211.77" cy="368.48" data-y="0.44" data-x="1593561600" r="1" fill="white"><title>2020-07-01: 0</title></circle>
	<circle cx="213.39" cy="369.79" data-y="0.35" data-x="1593648000" r="1" fill="white"><title>2020-07-02: 0</title></circle>
	<circle cx="215.02" cy="369.79" data-y="0.35" data-x="1593734400" r="1" fill="white"><title>2020-07-03: 0</title></circle>
	<circle cx="216.64" cy="367.18" data-y="0.52" data-x="1593820800" r="1" fill="white"><title>2020-07-04: 1</title></circle>
	<circle cx="218.27" cy="368.48" data-y="0.44" data-x="1593907200" r="1" fill="white"><title>2020-07-05: 0</title></circle>
	<circle cx="219.89" cy="367.18" data-y="0.52" data-x="1593993600" r="1" fill="white"><title>2020-07-06: 1</title></circle>
	<circle cx="221.51" cy="364.57" data-y="0.70" data-x="1594080000" r="1" fill="white"><title>2020-07-07: 1</title></circle>
	<circle cx="223.14" cy="364.57" data-y="0.70" data-x="1594166400" r="1" fill="white"><title>2020-07-08: 1</title></circle>
	<circle cx="224.76" cy="363.27" data-y="0.78" data-x="1594252800" r="1" fill="white"><title>2020-07-09: 1</title></circle>
	<circle cx="226.39" cy="361.96" data-y="0.87" data-x="1594339200" r="1" fill="white"><title>2020-07-10: 1</title></circle>
	<circle cx="228.01" cy="365.88" data-y="0.61" data-x="1594425600" r="1" fill="white"><title>2020-07-11: 1</title></circle>
	<circle cx="229.64" cy="363.27" data-y="0.78" data-x="1594512000" r="1" fill="white"><title>2020-07-12: 1</title></circle>
	<circle cx="231.26" cy="359.36" data-y="1.04" data-x="1594598400" r="1" fill="white"><title>2020-07-13: 1</title></circle>
	<circle cx="232.88" cy="359.36" data-y="1.04" data-x="1594684800" r="1" fill="white"><title>2020-07-14: 1</title></circle>
	<circle cx="234.51" cy="358.05" data-y="1.13" data-x="1594771200" r="1" fill="white"><title>2020-07-15: 1</title></circle>
	<circle cx="236.13" cy="360.66" data-y="0.96" data-x="1594857600" r="1" fill="white"><title>2020-07-16: 1</title></circle>
	<circle cx="237.76" cy="361.96" data-y="0.87" data-x="1594944000" r="1" fill="white"><title>2020-07-17: 1</title></circle>
	<circle cx="239.38" cy="360.66" data-y="0.96" data-x="1595030400" r="1" fill="white"><title>2020-07-18: 1</title></circle>
	<circle cx="241.00" cy="363.27" data-y="0.78" data-x="1595116800" r="1" fill="white"><title>2020-07-19: 1</title></circle>
	<circle cx="242.63" cy="360.66" data-y="0.96" data-x="1595203200" r="1" fill="white"><title>2020-07-20: 1</title></circle>
	<circle cx="244.25" cy="361.96" data-y="0.87" data-x="1595289600" r="1" fill="white"><title>2020-07-21: 1</title></circle>
	<circle cx="245.88" cy="361.96" data-y="0.87" data-x="1595376000" r="1" fill="white"><title>2020-07-22: 1</title></circle>
	<circle cx="247.50" cy="359.36" data-y="1.04" data-x="1595462400" r="1" fill="white"><title>2020-07-23: 1</title></circle>
	<circle cx="249.12" cy="356.75" data-y="1.22" data-x="1595548800" r="1" fill="white"><title>2020-07-24: 1</title></circle>
	<circle cx="250.75" cy="358.05" data-y="1.13" data-x="1595635200" r="1" fill="white"><title>2020-07-25: 1</title></circle>
	<circle cx="252.37" cy="359.36" data-y="1.04" data-x="1595721600" r="1" fill="white"><title>2020-07-26: 1</title></circle>
	<circle cx="254.00" cy="367.18" data-y="0.52" data-x="1595808000" r="1" fill="white"><title>2020-07-27: 1</title></circle>
	<circle cx="255.62" cy="364.57" data-y="0.70" data-x="1595894400" r="1" fill="white"><title>2020-07-28: 1</title></circle>
	<circle cx="257.24" cy="364.57" data-y="0.70" data-x="1595980800" r="1" fill="white"><title>2020-07-29: 1</title></circle>
	<circle cx="258.87" cy="367.18" data-y="0.52" data-x="1596067200" r="1" fill="white"><title>2020-07-30: 1</title></circle>
	<circle cx="260.49" cy="368.48" data-y="0.44" data-x="1596153600" r="1" fill="white"><title>2020-07-31: 0</title></circle>
	<circle cx="262.12" cy="368.48" data-y="0.44" data-x="1596240000" r="1" fill="white"><title>2020-08-01: 0</title></circle>
	<circle cx="263.74" cy="363.27" data-y="0.78" data-x="1596326400" r="1" fill="white"><title>2020-08-02: 1</title></circle>
	<circle cx="265.36" cy="363.27" data-y="0.78" data-x="1596412800" r="1" fill="white"><title>2020-08-03: 1</title></circle>
	<circle cx="266.99" cy="365.88" data-y="0.61" data-x="1596499200" r="1" fill="white"><title>2020-08-04: 1</title></circle>
	<circle cx="268.61" cy="365.88" data-y="0.61" data-x="1596585600" r="1" fill="white"><title>2020-08-05: 1</title></circle>
	<circle cx="270.24" cy="365.88" data-y="0.61" data-x="1596672000" r="1" fill="white"><title>2020-08-06: 1</title></circle>
	<circle cx="271.86" cy="360.66" data-y="0.96" data-x="1596758400" r="1" fill="white"><title>2020-08-07: 1</title></circle>
	<circle cx="273.49" cy="358.05" data-y="1.13" data-x="1596844800" r="1" fill="white"><title>2020-08-08: 1</title></circle>
	<circle cx="275.11" cy="363.27" data-y="0.78" data-x="1596931200" r="1" fill="white"><title>2020-08-09: 1</title></circle>
	<circle cx="276.73" cy="361.96" data-y="0.87" data-x="1597017600" r="1" fill="white"><title>2020-08-10: 1</title></circle>
	<circle cx="278.36" cy="359.36" data-y="1.04" data-x="1597104000" r="1" fill="white"><title>2020-08-11: 1</title></circle>
	<circle cx="279.98" cy="360.66" data-y="0.96" data-x="1597190400" r="1" fill="white"><title>2020-08-12: 1</title></circle>
	<circle cx="281.61" cy="360.66" data-y="0.96" data-x="1597276800" r="1" fill="white"><title>2020-08-13: 1</title></circle>
	<circle cx="283.23" cy="360.66" data-y="0.96" data-x="1597363200" r="1" fill="white"><title>2020-08-14: 1</title></circle>
	<circle cx="284.85" cy="358.05" data-y="1.13" data-x="1597449600" r="1" fill="white"><title>2020-08-15: 1</title></circle>
	<circle cx="286.48" cy="354.14" data-y="1.39" data-x="1597536000" r="1" fill="white"><title>2020-08-16: 1</title></circle>
	<circle cx="288.10" cy="354.14" data-y="1.39" data-x="1597622400" r="1" fill="white"><title>2020-08-17: 1</title></circle>
	<circle cx="289.73" cy="352.84" data-y="1.48" data-x="1597708800" r="1" fill="white"><title>2020-08-18: 1</title></circle>
	<circle cx="291.35" cy="351.54" data-y="1.57" data-x="1597795200" r="1" fill="white"><title>2020-08-19: 2</title></circle>
	<circle cx="292.97" cy="351.54" data-y="1.57" data-x="1597881600" r="1" fill="white"><title>2020-08-20: 2</title></circle>
	<circle cx="294.60" cy="351.54" data-y="1.57" data-x="1597968000" r="1" fill="white"><title>2020-08-21: 2</title></circle>
	<circle cx="296.22" cy="351.54" data-y="1.57" data-x="1598054400" r="1" fill="white"><title>2020-08-22: 2</title></circle>
	<circle cx="297.85" cy="346.32" data-y="1.91" data-x="1598140800" r="1" fill="white"><title>2020-08-23: 2</title></circle>
	<circle cx="299.47" cy="345.02" data-y="2.00" data-x="1598227200" r="1" fill="white"><title>2020-08-24: 2</title></circle>
	<circle cx="301.09" cy="348.93" data-y="1.74" data-x="1598313600" r="1" fill="white"><title>2020-08-25: 2</title></circle>
	<circle cx="302.72" cy="348.93" data-y="1.74" data-x="1598400000" r="1" fill="white"><title>2020-08-26: 2</title></circle>
	<circle cx="304.34" cy="347.62" data-y="1.83" data-x="1598486400" r="1" fill="white"><title>2020-08-27: 2</title></circle>
	<circle cx="305.97" cy="347.62" data-y="1.83" data-x="1598572800" r="1" fill="white"><title>2020-08-28: 2</title></circle>
	<circle cx="307.59" cy="350.23" data-y="1.65" data-x="1598659200" r="1" fill="white"><title>2020-08-29: 2</title></circle>
	<circle cx="309.22" cy="355.45" data-y="1.31" data-x="1598745600" r="1" fill="white"><title>2020-08-30: 1</title></circle>
	<circle cx="310.84" cy="355.45" data-y="1.31" data-x="1598832000" r="1" fill="white"><title>2020-08-31: 1</title></circle>
	<circle cx="312.46" cy="348.93" data-y="1.74" data-x="1598918400" r="1" fill="white"><title>2020-09-01: 2</title></circle>
	<circle cx="314.09" cy="339.80" data-y="2.35" data-x="1599004800" r="1" fill="white"><title>2020-09-02: 2</title></circle>
	<circle cx="315.71" cy="330.68" data-y="2.96" data-x="1599091200" r="1" fill="white"><title>2020-09-03: 3</title></circle>
	<circle cx="317.34" cy="329.38" data-y="3.05" data-x="1599177600" r="1" fill="white"><title>2020-09-04: 3</title></circle>
	<circle cx="318.96" cy="329.38" data-y="3.05" data-x="1599264000" r="1" fill="white"><title>2020-09-05: 3</title></circle>
	<circle cx="320.58" cy="331.98" data-y="2.87" data-x="1599350400" r="1" fill="white"><title>2020-09-06: 3</title></circle>
	<circle cx="322.21" cy="330.68" data-y="2.96" data-x="1599436800" r="1" fill="white"><title>2020-09-07: 3</title></circle>
	<circle cx="323.83" cy="335.89" data-y="2.61" data-x="1599523200" r="1" fill="white"><title>2020-09-08: 3</title></circle>
	<circle cx="325.46" cy="345.02" data-y="2.00" data-x="1599609600" r="1" fill="white"><title>2020-09-09: 2</title></circle>
	<circle cx="327.08" cy="355.45" data-y="1.31" data-x="1599696000" r="1" fill="white"><title>2020-09-10: 1</title></circle>
	<circle cx="328.70" cy="360.66" data-y="0.96" data-x="1599782400" r="1" fill="white"><title>2020-09-11: 1</title></circle>
	<circle cx="330.33" cy="360.66" data-y="0.96" data-x="1599868800" r="1" fill="white"><title>2020-09-12: 1</title></circle>
	<circle cx="331.95" cy="360.66" data-y="0.96" data-x="1599955200" r="1" fill="white"><title>2020-09-13: 1</title></circle>
	<circle cx="333.58" cy="360.66" data-y="0.96" data-x="1600041600" r="1" fill="white"><title>2020-09-14: 1</title></circle>
	<circle cx="335.20" cy="360.66" data-y="0.96" data-x="1600128000" r="1" fill="white"><title>2020-09-15: 1</title></circle>
	<circle cx="336.82" cy="355.45" data-y="1.31" data-x="1600214400" r="1" fill="white"><title>2020-09-16: 1</title></circle>
	<circle cx="338.45" cy="352.84" data-y="1.48" data-x="1600300800" r="1" fill="white"><title>2020-09-17: 1</title></circle>
	<circle cx="340.07" cy="347.62" data-y="1.83" data-x="1600387200" r="1" fill="white"><title>2020-09-18: 2</title></circle>
	<circle cx="341.70" cy="337.20" data-y="2.52" data-x="1600473600" r="1" fill="white"><title>2020-09-19: 3</title></circle>
	<circle cx="343.32" cy="331.98" data-y="2.87" data-x="1600560000" r="1" fill="white"><title>2020-09-20: 3</title></circle>
	<circle cx="344.95" cy="324.16" data-y="3.39" data-x="1600646400" r="1" fill="white"><title>2020-09-21: 3</title></circle>
	<circle cx="346.57" cy="313.73" data-y="4.09" data-x="1600732800" r="1" fill="white"><title>2020-09-22: 4</title></circle>
	<circle cx="348.19" cy="316.34" data-y="3.92" data-x="1600819200" r="1" fill="white"><title>2020-09-23: 4</title></circle>
	<circle cx="349.82" cy="313.73" data-y="4.09" data-x="1600905600" r="1" fill="white"><title>2020-09-24: 4</title></circle>
	<circle cx="351.44" cy="311.12" data-y="4.26" data-x="1600992000" r="1" fill="white"><title>2020-09-25: 4</title></circle>
	<circle cx="353.07" cy="317.64" data-y="3.83" data-x="1601078400" r="1" fill="white"><title>2020-09-26: 4</title></circle>
	<circle cx="354.69" cy="312.43" data-y="4.18" data-x="1601164800" r="1" fill="white"><title>2020-09-27: 4</title></circle>
	<circle cx="356.31" cy="312.43" data-y="4.18" data-x="1601251200" r="1" fill="white"><title>2020-09-28: 4</title></circle>
	<circle cx="357.94" cy="309.82" data-y="4.35" data-x="1601337600" r="1" fill="white"><title>2020-09-29: 4</title></circle>
	<circle cx="359.56" cy="307.21" data-y="4.53" data-x="1601424000" r="1" fill="white"><title>2020-09-30: 5</title></circle>
	<circle cx="361.19" cy="298.09" data-y="5.14" data-x="1601510400" r="1" fill="white"><title>2020-10-01: 5</title></circle>
	<circle cx="362.81" cy="278.54" data-y="6.44" data-x="1601596800" r="1" fill="white"><title>2020-10-02: 6</title></circle>
	<circle cx="364.43" cy="262.89" data-y="7.49" data-x="1601683200" r="1" fill="white"><title>2020-10-03: 7</title></circle>
	<circle cx="366.06" cy="252.46" data-y="8.18" data-x="1601769600" r="1" fill="white"><title>2020-10-04: 8</title></circle>
	<circle cx="367.68" cy="234.21" data-y="9.40" data-x="1601856000" r="1" fill="white"><title>2020-10-05: 9</title></circle>
	<circle cx="369.31" cy="223.79" data-y="10.10" data-x="1601942400" r="1" fill="white"><title>2020-10-06: 10</title></circle>
	<circle cx="370.93" cy="214.66" data-y="10.71" data-x="1602028800" r="1" fill="white"><title>2020-10-07: 11</title></circle>
	<circle cx="372.55" cy="221.18" data-y="10.27" data-x="1602115200" r="1" fill="white"><title>2020-10-08: 10</title></circle>
	<circle cx="374.18" cy="225.09" data-y="10.01" data-x="1602201600" r="1" fill="white"><title>2020-10-09: 10</title></circle>
	<circle cx="375.80" cy="209.45" data-y="11.05" data-x="1602288000" r="1" fill="white"><title>2020-10-10: 11</title></circle>
	<circle cx="377.43" cy="176.86" data-y="13.23" data-x="1602374400" r="1" fill="white"><title>2020-10-11: 13</title></circle>
	<circle cx="379.05" cy="185.98" data-y="12.62" data-x="1602460800" r="1" fill="white"><title>2020-10-12: 13</title></circle>
	<circle cx="380.68" cy="182.07" data-y="12.88" data-x="1602547200" r="1" fill="white"><title>2020-10-13: 13</title></circle>
	<circle cx="382.30" cy="182.07" data-y="12.88" data-x="1602633600" r="1" fill="white"><title>2020-10-14: 13</title></circle>
	<circle cx="383.92" cy="172.95" data-y="13.49" data-x="1602720000" r="1" fill="white"><title>2020-10-15: 13</title></circle>
	<circle cx="385.55" cy="142.96" data-y="15.49" data-x="1602806400" r="1" fill="white"><title>2020-10-16: 15</title></circle>
	<circle cx="387.17" cy="132.54" data-y="16.19" data-x="1602892800" r="1" fill="white"><title>2020-10-17: 16</title></circle>
	<circle cx="388.80" cy="150.79" data-y="14.97" data-x="1602979200" r="1" fill="white"><title>2020-10-18: 15</title></circle>
	<circle cx="390.42" cy="122.11" data-y="16.89" data-x="1603065600" r="1" fill="white"><title>2020-10-19: 17</title></circle>
	<circle cx="392.04" cy="120.80" data-y="16.97" data-x="1603152000" r="1" fill="white"><title>2020-10-20: 17</title></circle>
	<circle cx="393.67" cy="99.95" data-y="18.37" data-x="1603238400" r="1" fill="white"><title>2020-10-21: 18</title></circle>
	<circle cx="395.29" cy="92.12" data-y="18.89" data-x="1603324800" r="1" fill="white"><title>2020-10-22: 19</title></circle>
	<circle cx="396.92" cy="86.91" data-y="19.24" data-x="1603411200" r="1" fill="white"><title>2020-10-23: 19</title></circle>
	<circle cx="398.54" cy="81.70" data-y="19.58" data-x="1603497600" r="1" fill="white"><title>2020-10-24: 20</title></circle>
	<circle cx="400.16" cy="75.18" data-y="20.02" data-x="1603584000" r="1" fill="white"><title>2020-10-25: 20</title></circle>
	<circle cx="401.79" cy="68.66" data-y="20.45" data-x="1603670400" r="1" fill="white"><title>2020-10-26: 20</title></circle>
	<circle cx="403.41" cy="42.59" data-y="22.20" data-x="1603756800" r="1" fill="white"><title>2020-10-27: 22</title></circle>
	<circle cx="405.04" cy="41.29" data-y="22.28" data-x="1603843200" r="1" fill="white"><title>2020-10-28: 22</title></circle>
	<circle cx="406.66" cy="37.38" data-y="22.54" data-x="1603929600" r="1" fill="white"><title>2020-10-29: 23</title></circle>
	<circle cx="408.28" cy="24.34" data-y="23.41" data-x="1604016000" r="1" fill="white"><title>2020-10-30: 23</title></circle>
	<circle cx="409.91" cy="24.34" data-y="23.41" data-x="1604102400" r="1" fill="white"><title>2020-10-31: 23</title></circle>
	<circle cx="411.53" cy="10.00" data-y="24.37" data-x="1604188800" r="1" fill="white"><title>2020-11-01: 24</title></circle>
	<circle cx="413.16" cy="30.86" data-y="22.98" data-x="1604275200" r="1" fill="white"><title>2020-11-02: 23</title></circle>
	<circle cx="414.78" cy="60.84" data-y="20.98" data-x="1604361600" r="1" fill="white"><title>2020-11-03: 21</title></circle>
	<circle cx="416.41" cy="63.45" data-y="20.80" data-x="1604448000" r="1" fill="white"><title>2020-11-04: 21</title></circle>
	<circle cx="418.03" cy="53.02" data-y="21.50" data-x="1604534400" r="1" fill="white"><title>2020-11-05: 21</title></circle>
	<circle cx="419.65" cy="75.18" data-y="20.02" data-x="1604620800" r="1" fill="white"><title>2020-11-06: 20</title></circle>
	<circle cx="421.28" cy="80.39" data-y="19.67" data-x="1604707200" r="1" fill="white"><title>2020-11-07: 20</title></circle>
	<circle cx="422.90" cy="83.00" data-y="19.50" data-x="1604793600" r="1" fill="white"><title>2020-11-08: 19</title></circle>
	<circle cx="424.53" cy="75.18" data-y="20.02" data-x="1604880000" r="1" fill="white"><title>2020-11-09: 20</title></circle>
	<circle cx="426.15" cy="47.80" data-y="21.85" data-x="1604966400" r="1" fill="white"><title>2020-11-10: 22</title></circle>
	<circle cx="427.77" cy="33.46" data-y="22.80" data-x="1605052800" r="1" fill="white"><title>2020-11-11: 23</title></circle>
	<circle cx="429.40" cy="43.89" data-y="22.11" data-x="1605139200" r="1" fill="white"><title>2020-11-12: 22</title></circle>
	<circle cx="431.02" cy="19.13" data-y="23.76" data-x="1605225600" r="1" fill="white"><title>2020-11-13: 24</title></circle>
	<circle cx="432.65" cy="30.86" data-y="22.98" data-x="1605312000" r="1" fill="white"><title>2020-11-14: 23</title></circle>
	<circle cx="434.27" cy="39.98" data-y="22.37" data-x="1605398400" r="1" fill="white"><title>2020-11-15: 22</title></circle>
	<circle cx="435.89" cy="47.80" data-y="21.85" data-x="1605484800" r="1" fill="white"><title>2020-11-16: 22</title></circle>
	<circle cx="437.52" cy="50.41" data-y="21.67" data-x="1605571200" r="1" fill="white"><title>2020-11-17: 22</title></circle>
	<circle cx="439.14" cy="69.96" data-y="20.37" data-x="1605657600" r="1" fill="white"><title>2020-11-18: 20</title></circle>
	<circle cx="440.77" cy="73.88" data-y="20.11" data-x="1605744000" r="1" fill="white"><title>2020-11-19: 20</title></circle>
	<circle cx="442.39" cy="118.20" data-y="17.15" data-x="1605830400" r="1" fill="white"><title>2020-11-20: 17</title></circle>
	<circle cx="444.01" cy="99.95" data-y="18.37" data-x="1605916800" r="1" fill="white"><title>2020-11-21: 18</title></circle>
	<circle cx="445.64" cy="99.95" data-y="18.37" data-x="1606003200" r="1" fill="white"><title>2020-11-22: 18</title></circle>
	<circle cx="447.26" cy="80.39" data-y="19.67" data-x="1606089600" r="1" fill="white"><title>2020-11-23: 20</title></circle>
	<circle cx="448.89" cy="99.95" data-y="18.37" data-x="1606176000" r="1" fill="white"><title>2020-11-24: 18</title></circle>
	<circle cx="450.51" cy="99.95" data-y="18.37" data-x="1606262400" r="1" fill="white"><title>2020-11-25: 18</title></circle>
	<circle cx="452.14" cy="94.73" data-y="18.71" data-x="1606348800" r="1" fill="white"><title>2020-11-26: 19</title></circle>
	<circle cx="453.76" cy="67.36" data-y="20.54" data-x="1606435200" r="1" fill="white"><title>2020-11-27: 21</title></circle>
	<circle cx="455.38" cy="72.57" data-y="20.19" data-x="1606521600" r="1" fill="white"><title>2020-11-28: 20</title></circle>
	<circle cx="457.01" cy="59.54" data-y="21.06" data-x="1606608000" r="1" fill="white"><title>2020-11-29: 21</title></circle>
	<circle cx="458.63" cy="68.66" data-y="20.45" data-x="1606694400" r="1" fill="white"><title>2020-11-30: 20</title></circle>
	<circle cx="460.26" cy="29.55" data-y="23.07" data-x="1606780800" r="1" fill="white"><title>2020-12-01: 23</title></circle>
	<circle cx="461.88" cy="37.38" data-y="22.54" data-x="1606867200" r="1" fill="white"><title>2020-12-02: 23</title></circle>
</g>
<g data-series="recent-cases" class="data-series">
	<path d="M 461.88,37.38L 463.50,21.73L 465.13,77.79L 466.75,86.04L 468.38,110.38L 470.00,124.06" id="Recent cases" class="line" stroke-width="1" stroke-linecap="round" stroke-dasharray="4,6" stroke-dashoffset="4"><title>Recent cases</title></path>
	<circle cx="461.88" cy="37.38" data-y="22.54" data-x="1606867200" r="2.5" fill="white"><title>2020-12-02: 23</title></circle>
	<circle cx="463.50" cy="21.73" data-y="23.59" data-x="1606953600" r="2.5" fill="white"><title>2020-12-03: 24</title></circle>
	<circle cx="465.13" cy="77.79" data-y="19.85" data-x="1607040000" r="2.5" fill="white"><title>2020-12-04: 20</title></circle>
	<circle cx="466.75" cy="86.04" data-y="19.29" data-x="1607126400" r="2.5" fill="white"><title>2020-12-05: 19</title></circle>
	<circle cx="468.38" cy="110.38" data-y="17.67" data-x="1607212800" r="2.5" fill="white"><title>2020-12-06: 18</title></circle>
	<circle cx="470.00" cy="124.06" data-y="16.76" data-x="1607299200" r="2.5" fill="white"><title>2020-12-07: 17</title></circle>
</g>
</svg>
