<svg width="480" height="400" viewBox="0 0 480 400" xmlns="http://www.w3.org/2000/svg" style="overflow:display" preserveAspectRatio="xMinYMin meet" overflow="visible">
<defs>
	<style>
	.data-series path.line { fill-opacity: 0; stroke: black; }
	.data-series path.line.dotted { stroke-dasharray: 12 20 }
	.data-series:hover path.line, .data-series.on path.line { stroke-width: 1; }
	.data-series:hover circle, .data-series.on circle { display: inline; }
	.graph-grid { font-family: "Helvetica Neue",Helvetica,Arial,"Lucida Grande",sans-serif; }
	.graph-grid line { stroke: black; stroke-width: 1; stroke-linecap: round; }
	.graph-grid.graph-grid-x text { text-anchor: middle; dominant-baseline: hanging; transform: translateY(10px); }
	.graph-grid.graph-grid-y text { text-anchor: end; dominant-baseline: middle; transform: translateX(-10px); }
	</style>
</defs>
<g class="graph-grid graph-grid-y">
	<line x1="25.00" y1="375.00" x2="470.00" y2="375.00" data-left="25"></line>
	<text x="35" y="375" text-anchor="end">0</text>
	<text x="35" y="280.679836870027" text-anchor="end">20</text>
	<text x="35" y="186.359673740053" text-anchor="end">40</text>
	<text x="35" y="92.0395106100796" text-anchor="end">60</text>
	<text style="text-anchor:middle;dominant-baseline:hanging;font-weight:bold;transform: translateY(192.5px) rotate(-90deg);"></text>
</g>
<g class="graph-grid graph-grid-x">
	<line class="tick" x1="67.02" y1="375.00" x2="67.02" y2="380.00"></line>
	<text x="67.0171673819742" y="375" text-anchor="middle">A</text>
	<line class="tick" x1="124.31" y1="375.00" x2="124.31" y2="380.00"></line>
	<text x="124.31330472103" y="375" text-anchor="middle">M</text>
	<line class="tick" x1="183.52" y1="375.00" x2="183.52" y2="380.00"></line>
	<text x="183.519313304721" y="375" text-anchor="middle">J</text>
	<line class="tick" x1="240.82" y1="375.00" x2="240.82" y2="380.00"></line>
	<text x="240.815450643777" y="375" text-anchor="middle">J</text>
	<line class="tick" x1="300.02" y1="375.00" x2="300.02" y2="380.00"></line>
	<text x="300.021459227468" y="375" text-anchor="middle">A</text>
	<line class="tick" x1="359.23" y1="375.00" x2="359.23" y2="380.00"></line>
	<text x="359.227467811159" y="375" text-anchor="middle">S</text>
	<line class="tick" x1="416.52" y1="375.00" x2="416.52" y2="380.00"></line>
	<text x="416.523605150215" y="375" text-anchor="middle">O</text>
	<text style="text-anchor:middle;dominant-baseline:hanging;font-weight:bold;transform: translateY(192.5px) rotate(-90deg);"></text>
</g>
<g data-series="widespread" class="data-series">
	<path d="M 25.00,341.99L 470.00,341.99" id="E06000009-level-0" class="line" stroke-width="1" stroke-linecap="round" stroke-dasharray="3,3" fill-opacity="0.3" opacity="0.3"><title>Widespread</title></path>
</g>
<g data-series="substantial" class="data-series">
	<path d="M 25.00,356.14L 470.00,356.14" id="E06000009-level-1" class="line" stroke-width="1" stroke-linecap="round" stroke-dasharray="3,3" fill-opacity="0.3" opacity="0.3"><title>Substantial</title></path>
</g>
<g data-series="moderate" class="data-series">
	<path d="M 25.00,370.28L 470.00,370.28" id="E06000009-level-2" class="line" stroke-width="1" stroke-linecap="round" stroke-dasharray="3,3" fill-opacity="0.3" opacity="0.3"><title>Moderate</title></path>
</g>
<g data-series="new-cases" class="data-series">
	<path d="M 25.00,373.31L 26.91,372.97L 28.82,373.31L 30.73,373.06L 32.64,372.58L 34.55,372.58L 36.46,373.06L 38.37,372.58L 40.28,372.58L 42.19,372.58L 44.10,372.58L 46.01,373.06L 47.92,372.58L 49.83,370.64L 51.74,370.16L 53.65,368.22L 55.56,366.29L 57.47,363.87L 59.38,358.54L 61.29,356.60L 63.20,349.83L 65.11,346.92L 67.02,342.57L 68.93,343.05L 70.84,343.05L 72.75,344.02L 74.66,340.15L 76.57,343.53L 78.48,339.18L 80.39,338.69L 82.30,334.82L 84.21,330.46L 86.12,331.43L 88.03,331.43L 89.94,329.01L 91.85,327.56L 93.76,321.75L 95.67,313.04L 97.58,309.65L 99.48,301.90L 101.39,299.00L 103.30,295.61L 105.21,295.13L 107.12,301.42L 109.03,310.13L 110.94,310.13L 112.85,308.20L 114.76,309.16L 116.67,311.10L 118.58,316.43L 120.49,319.33L 122.40,317.39L 124.31,323.69L 126.22,330.95L 128.13,326.59L 130.04,331.43L 131.95,331.43L 133.86,327.56L 135.77,330.95L 137.68,329.50L 139.59,330.95L 141.50,337.73L 143.41,337.73L 145.32,339.66L 147.23,343.05L 149.14,343.05L 151.05,344.02L 152.96,338.21L 154.87,332.88L 156.78,326.11L 158.69,323.20L 160.60,320.30L 162.51,319.81L 164.42,318.85L 166.33,325.14L 168.24,330.46L 170.15,336.76L 172.06,337.24L 173.97,340.63L 175.88,342.08L 177.79,345.47L 179.70,348.38L 181.61,347.89L 183.52,349.83L 185.43,352.25L 187.34,353.22L 189.25,352.25L 191.16,353.22L 193.07,350.31L 194.98,351.28L 196.89,352.73L 198.80,354.18L 200.71,355.64L 202.62,359.03L 204.53,359.03L 206.44,362.41L 208.35,366.77L 210.26,367.25L 212.17,367.25L 214.08,367.25L 215.99,367.74L 217.90,368.22L 219.81,368.22L 221.72,366.77L 223.63,364.83L 225.54,364.83L 227.45,365.80L 229.36,364.83L 231.27,365.80L 233.18,366.77L 235.09,368.71L 237.00,369.68L 238.91,369.68L 240.82,370.16L 242.73,370.64L 244.64,369.68L 246.55,369.68L 248.45,369.19L 250.36,370.16L 252.27,370.16L 254.18,370.16L 256.09,369.68L 258.00,370.64L 259.91,370.16L 261.82,370.64L 263.73,371.61L 265.64,372.58L 267.55,372.10L 269.46,373.06L 271.37,371.13L 273.28,371.61L 275.19,371.13L 277.10,370.16L 279.01,370.16L 280.92,370.16L 282.83,369.68L 284.74,371.13L 286.65,370.16L 288.56,370.16L 290.47,371.13L 292.38,371.13L 294.29,370.64L 296.20,370.16L 298.11,369.68L 300.02,369.19L 301.93,369.68L 303.84,368.71L 305.75,367.25L 307.66,367.74L 309.57,368.71L 311.48,369.19L 313.39,369.19L 315.30,367.74L 317.21,365.80L 319.12,366.77L 321.03,367.25L 322.94,367.25L 324.85,367.25L 326.76,368.71L 328.67,369.19L 330.58,371.13L 332.49,371.13L 334.40,371.13L 336.31,370.16L 338.22,370.16L 340.13,367.74L 342.04,366.77L 343.95,367.74L 345.86,368.71L 347.77,368.71L 349.68,369.68L 351.59,370.16L 353.50,371.13L 355.41,368.71L 357.32,366.77L 359.23,365.32L 361.14,363.38L 363.05,359.51L 364.96,357.09L 366.87,357.57L 368.78,359.51L 370.69,359.03L 372.60,350.31L 374.51,351.28L 376.42,351.28L 378.33,348.38L 380.24,342.08L 382.15,336.76L 384.06,332.88L 385.97,332.40L 387.88,329.01L 389.79,325.62L 391.70,326.11L 393.61,326.59L 395.52,329.01L 397.42,319.81L 399.33,323.69L 401.24,314.49L 403.15,313.04L 405.06,301.42L 406.97,289.80L 408.88,278.18L 410.79,271.41L 412.70,258.34L 414.61,252.53L 416.52,241.88L 418.43,236.55L 420.34,227.35L 422.25,213.80L 424.16,200.73L 426.07,191.53L 427.98,187.66L 429.89,179.43L 431.80,160.55L 433.71,147.48L 435.62,130.05L 437.53,128.12L 439.44,98.10L 441.35,73.90L 443.26,75.84L 445.17,54.54L 447.08,29.85L 448.99,17.26L 450.90,10.00L 452.81,16.78L 454.72,35.66L 456.63,33.24L 458.54,48.24L 460.45,72.93" id="New cases" class="line" stroke-width="1" stroke-linecap="round"><title>New cases</title></path>
	<circle cx="25.00" cy="373.31" data-y="0.36" data-x="1583798400" r="1" fill="white"><title>2020-03-10: 0</title></circle>
	<circle cx="26.91" cy="372.97" data-y="0.43" data-x="1583884800" r="1" fill="white"><title>2020-03-11: 0</title></circle>
	<circle cx="28.82" cy="373.31" data-y="0.36" data-x="1583971200" r="1" fill="white"><title>2020-03-12: 0</title></circle>
	<circle cx="30.73" cy="373.06" data-y="0.41" data-x="1584057600" r="1" fill="white"><title>2020-03-13: 0</title></circle>
	<circle cx="32.64" cy="372.58" data-y="0.51" data-x="1584144000" r="1" fill="white"><title>2020-03-14: 1</title></circle>
	<circle cx="34.55" cy="372.58" data-y="0.51" data-x="1584230400" r="1" fill="white"><title>2020-03-15: 1</title></circle>
	<circle cx="36.46" cy="373.06" data-y="0.41" data-x="1584316800" r="1" fill="white"><title>2020-03-16: 0</title></circle>
	<circle cx="38.37" cy="372.58" data-y="0.51" data-x="1584403200" r="1" fill="white"><title>2020-03-17: 1</title></circle>
	<circle cx="40.28" cy="372.58" data-y="0.51" data-x="1584489600" r="1" fill="white"><title>2020-03-18: 1</title></circle>
	<circle cx="42.19" cy="372.58" data-y="0.51" data-x="1584576000" r="1" fill="white"><title>2020-03-19: 1</title></circle>
	<circle cx="44.10" cy="372.58" data-y="0.51" data-x="1584662400" r="1" fill="white"><title>2020-03-20: 1</title></circle>
	<circle cx="46.01" cy="373.06" data-y="0.41" data-x="1584748800" r="1" fill="white"><title>2020-03-21: 0</title></circle>
	<circle cx="47.92" cy="372.58" data-y="0.51" data-x="1584835200" r="1" fill="white"><title>2020-03-22: 1</title></circle>
	<circle cx="49.83" cy="370.64" data-y="0.92" data-x="1584921600" r="1" fill="white"><title>2020-03-23: 1</title></circle>
	<circle cx="51.74" cy="370.16" data-y="1.03" data-x="1585008000" r="1" fill="white"><title>2020-03-24: 1</title></circle>
	<circle cx="53.65" cy="368.22" data-y="1.44" data-x="1585094400" r="1" fill="white"><title>2020-03-25: 1</title></circle>
	<circle cx="55.56" cy="366.29" data-y="1.85" data-x="1585180800" r="1" fill="white"><title>2020-03-26: 2</title></circle>
	<circle cx="57.47" cy="363.87" data-y="2.36" data-x="1585267200" r="1" fill="white"><title>2020-03-27: 2</title></circle>
	<circle cx="59.38" cy="358.54" data-y="3.49" data-x="1585353600" r="1" fill="white"><title>2020-03-28: 3</title></circle>
	<circle cx="61.29" cy="356.60" data-y="3.90" data-x="1585440000" r="1" fill="white"><title>2020-03-29: 4</title></circle>
	<circle cx="63.20" cy="349.83" data-y="5.34" data-x="1585526400" r="1" fill="white"><title>2020-03-30: 5</title></circle>
	<circle cx="65.11" cy="346.92" data-y="5.95" data-x="1585612800" r="1" fill="white"><title>2020-03-31: 6</title></circle>
	<circle cx="67.02" cy="342.57" data-y="6.88" data-x="1585699200" r="1" fill="white"><title>2020-04-01: 7</title></circle>
	<circle cx="68.93" cy="343.05" data-y="6.77" data-x="1585785600" r="1" fill="white"><title>2020-04-02: 7</title></circle>
	<circle cx="70.84" cy="343.05" data-y="6.77" data-x="1585872000" r="1" fill="white"><title>2020-04-03: 7</title></circle>
	<circle cx="72.75" cy="344.02" data-y="6.57" data-x="1585958400" r="1" fill="white"><title>2020-04-04: 7</title></circle>
	<circle cx="74.66" cy="340.15" data-y="7.39" data-x="1586044800" r="1" fill="white"><title>2020-04-05: 7</title></circle>
	<circle cx="76.57" cy="343.53" data-y="6.67" data-x="1586131200" r="1" fill="white"><title>2020-04-06: 7</title></circle>
	<circle cx="78.48" cy="339.18" data-y="7.60" data-x="1586217600" r="1" fill="white"><title>2020-04-07: 8</title></circle>
	<circle cx="80.39" cy="338.69" data-y="7.70" data-x="1586304000" r="1" fill="white"><title>2020-04-08: 8</title></circle>
	<circle cx="82.30" cy="334.82" data-y="8.52" data-x="1586390400" r="1" fill="white"><title>2020-04-09: 9</title></circle>
	<circle cx="84.21" cy="330.46" data-y="9.44" data-x="1586476800" r="1" fill="white"><title>2020-04-10: 9</title></circle>
	<circle cx="86.12" cy="331.43" data-y="9.24" data-x="1586563200" r="1" fill="white"><title>2020-04-11: 9</title></circle>
	<circle cx="88.03" cy="331.43" data-y="9.24" data-x="1586649600" r="1" fill="white"><title>2020-04-12: 9</title></circle>
	<circle cx="89.94" cy="329.01" data-y="9.75" data-x="1586736000" r="1" fill="white"><title>2020-04-13: 10</title></circle>
	<circle cx="91.85" cy="327.56" data-y="10.06" data-x="1586822400" r="1" fill="white"><title>2020-04-14: 10</title></circle>
	<circle cx="93.76" cy="321.75" data-y="11.29" data-x="1586908800" r="1" fill="white"><title>2020-04-15: 11</title></circle>
	<circle cx="95.67" cy="313.04" data-y="13.14" data-x="1586995200" r="1" fill="white"><title>2020-04-16: 13</title></circle>
	<circle cx="97.58" cy="309.65" data-y="13.86" data-x="1587081600" r="1" fill="white"><title>2020-04-17: 14</title></circle>
	<circle cx="99.48" cy="301.90" data-y="15.50" data-x="1587168000" r="1" fill="white"><title>2020-04-18: 15</title></circle>
	<circle cx="101.39" cy="299.00" data-y="16.12" data-x="1587254400" r="1" fill="white"><title>2020-04-19: 16</title></circle>
	<circle cx="103.30" cy="295.61" data-y="16.83" data-x="1587340800" r="1" fill="white"><title>2020-04-20: 17</title></circle>
	<circle cx="105.21" cy="295.13" data-y="16.94" data-x="1587427200" r="1" fill="white"><title>2020-04-21: 17</title></circle>
	<circle cx="107.12" cy="301.42" data-y="15.60" data-x="1587513600" r="1" fill="white"><title>2020-04-22: 16</title></circle>
	<circle cx="109.03" cy="310.13" data-y="13.75" data-x="1587600000" r="1" fill="white"><title>2020-04-23: 14</title></circle>
	<circle cx="110.94" cy="310.13" data-y="13.75" data-x="1587686400" r="1" fill="white"><title>2020-04-24: 14</title></circle>
	<circle cx="112.85" cy="308.20" data-y="14.17" data-x="1587772800" r="1" fill="white"><title>2020-04-25: 14</title></circle>
	<circle cx="114.76" cy="309.16" data-y="13.96" data-x="1587859200" r="1" fill="white"><title>2020-04-26: 14</title></circle>
	<circle cx="116.67" cy="311.10" data-y="13.55" data-x="1587945600" r="1" fill="white"><title>2020-04-27: 14</title></circle>
	<circle cx="118.58" cy="316.43" data-y="12.42" data-x="1588032000" r="1" fill="white"><title>2020-04-28: 12</title></circle>
	<circle cx="120.49" cy="319.33" data-y="11.80" data-x="1588118400" r="1" fill="white"><title>2020-04-29: 12</title></circle>
	<circle cx="122.40" cy="317.39" data-y="12.22" data-x="1588204800" r="1" fill="white"><title>2020-04-30: 12</title></circle>
	<circle cx="124.31" cy="323.69" data-y="10.88" data-x="1588291200" r="1" fill="white"><title>2020-05-01: 11</title></circle>
	<circle cx="126.22" cy="330.95" data-y="9.34" data-x="1588377600" r="1" fill="white"><title>2020-05-02: 9</title></circle>
	<circle cx="128.13" cy="326.59" data-y="10.26" data-x="1588464000" r="1" fill="white"><title>2020-05-03: 10</title></circle>
	<circle cx="130.04" cy="331.43" data-y="9.24" data-x="1588550400" r="1" fill="white"><title>2020-05-04: 9</title></circle>
	<circle cx="131.95" cy="331.43" data-y="9.24" data-x="1588636800" r="1" fill="white"><title>2020-05-05: 9</title></circle>
	<circle cx="133.86" cy="327.56" data-y="10.06" data-x="1588723200" r="1" fill="white"><title>2020-05-06: 10</title></circle>
	<circle cx="135.77" cy="330.95" data-y="9.34" data-x="1588809600" r="1" fill="white"><title>2020-05-07: 9</title></circle>
	<circle cx="137.68" cy="329.50" data-y="9.65" data-x="1588896000" r="1" fill="white"><title>2020-05-08: 10</title></circle>
	<circle cx="139.59" cy="330.95" data-y="9.34" data-x="1588982400" r="1" fill="white"><title>2020-05-09: 9</title></circle>
	<circle cx="141.50" cy="337.73" data-y="7.90" data-x="1589068800" r="1" fill="white"><title>2020-05-10: 8</title></circle>
	<circle cx="143.41" cy="337.73" data-y="7.90" data-x="1589155200" r="1" fill="white"><title>2020-05-11: 8</title></circle>
	<circle cx="145.32" cy="339.66" data-y="7.49" data-x="1589241600" r="1" fill="white"><title>2020-05-12: 7</title></circle>
	<circle cx="147.23" cy="343.05" data-y="6.77" data-x="1589328000" r="1" fill="white"><title>2020-05-13: 7</title></circle>
	<circle cx="149.14" cy="343.05" data-y="6.77" data-x="1589414400" r="1" fill="white"><title>2020-05-14: 7</title></circle>
	<circle cx="151.05" cy="344.02" data-y="6.57" data-x="1589500800" r="1" fill="white"><title>2020-05-15: 7</title></circle>
	<circle cx="152.96" cy="338.21" data-y="7.80" data-x="1589587200" r="1" fill="white"><title>2020-05-16: 8</title></circle>
	<circle cx="154.87" cy="332.88" data-y="8.93" data-x="1589673600" r="1" fill="white"><title>2020-05-17: 9</title></circle>
	<circle cx="156.78" cy="326.11" data-y="10.37" data-x="1589760000" r="1" fill="white"><title>2020-05-18: 10</title></circle>
	<circle cx="158.69" cy="323.20" data-y="10.98" data-x="1589846400" r="1" fill="white"><title>2020-05-19: 11</title></circle>
	<circle cx="160.60" cy="320.30" data-y="11.60" data-x="1589932800" r="1" fill="white"><title>2020-05-20: 12</title></circle>
	<circle cx="162.51" cy="319.81" data-y="11.70" data-x="1590019200" r="1" fill="white"><title>2020-05-21: 12</title></circle>
	<circle cx="164.42" cy="318.85" data-y="11.91" data-x="1590105600" r="1" fill="white"><title>2020-05-22: 12</title></circle>
	<circle cx="166.33" cy="325.14" data-y="10.57" data-x="1590192000" r="1" fill="white"><title>2020-05-23: 11</title></circle>
	<circle cx="168.24" cy="330.46" data-y="9.44" data-x="1590278400" r="1" fill="white"><title>2020-05-24: 9</title></circle>
	<circle cx="170.15" cy="336.76" data-y="8.11" data-x="1590364800" r="1" fill="white"><title>2020-05-25: 8</title></circle>
	<circle cx="172.06" cy="337.24" data-y="8.01" data-x="1590451200" r="1" fill="white"><title>2020-05-26: 8</title></circle>
	<circle cx="173.97" cy="340.63" data-y="7.29" data-x="1590537600" r="1" fill="white"><title>2020-05-27: 7</title></circle>
	<circle cx="175.88" cy="342.08" data-y="6.98" data-x="1590624000" r="1" fill="white"><title>2020-05-28: 7</title></circle>
	<circle cx="177.79" cy="345.47" data-y="6.26" data-x="1590710400" r="1" fill="white"><title>2020-05-29: 6</title></circle>
	<circle cx="179.70" cy="348.38" data-y="5.65" data-x="1590796800" r="1" fill="white"><title>2020-05-30: 6</title></circle>
	<circle cx="181.61" cy="347.89" data-y="5.75" data-x="1590883200" r="1" fill="white"><title>2020-05-31: 6</title></circle>
	<circle cx="183.52" cy="349.83" data-y="5.34" data-x="1590969600" r="1" fill="white"><title>2020-06-01: 5</title></circle>
	<circle cx="185.43" cy="352.25" data-y="4.82" data-x="1591056000" r="1" fill="white"><title>2020-06-02: 5</title></circle>
	<circle cx="187.34" cy="353.22" data-y="4.62" data-x="1591142400" r="1" fill="white"><title>2020-06-03: 5</title></circle>
	<circle cx="189.25" cy="352.25" data-y="4.82" data-x="1591228800" r="1" fill="white"><title>2020-06-04: 5</title></circle>
	<circle cx="191.16" cy="353.22" data-y="4.62" data-x="1591315200" r="1" fill="white"><title>2020-06-05: 5</title></circle>
	<circle cx="193.07" cy="350.31" data-y="5.24" data-x="1591401600" r="1" fill="white"><title>2020-06-06: 5</title></circle>
	<circle cx="194.98" cy="351.28" data-y="5.03" data-x="1591488000" r="1" fill="white"><title>2020-06-07: 5</title></circle>
	<circle cx="196.89" cy="352.73" data-y="4.72" data-x="1591574400" r="1" fill="white"><title>2020-06-08: 5</title></circle>
	<circle cx="198.80" cy="354.18" data-y="4.41" data-x="1591660800" r="1" fill="white"><title>2020-06-09: 4</title></circle>
	<circle cx="200.71" cy="355.64" data-y="4.11" data-x="1591747200" r="1" fill="white"><title>2020-06-10: 4</title></circle>
	<circle cx="202.62" cy="359.03" data-y="3.39" data-x="1591833600" r="1" fill="white"><title>2020-06-11: 3</title></circle>
	<circle cx="204.53" cy="359.03" data-y="3.39" data-x="1591920000" r="1" fill="white"><title>2020-06-12: 3</title></circle>
	<circle cx="206.44" cy="362.41" data-y="2.67" data-x="1592006400" r="1" fill="white"><title>2020-06-13: 3</title></circle>
	<circle cx="208.35" cy="366.77" data-y="1.75" data-x="1592092800" r="1" fill="white"><title>2020-06-14: 2</title></circle>
	<circle cx="210.26" cy="367.25" data-y="1.64" data-x="1592179200" r="1" fill="white"><title>2020-06-15: 2</title></circle>
	<circle cx="212.17" cy="367.25" data-y="1.64" data-x="1592265600" r="1" fill="white"><title>2020-06-16: 2</title></circle>
	<circle cx="214.08" cy="367.25" data-y="1.64" data-x="1592352000" r="1" fill="white"><title>2020-06-17: 2</title></circle>
	<circle cx="215.99" cy="367.74" data-y="1.54" data-x="1592438400" r="1" fill="white"><title>2020-06-18: 2</title></circle>
	<circle cx="217.90" cy="368.22" data-y="1.44" data-x="1592524800" r="1" fill="white"><title>2020-06-19: 1</title></circle>
	<circle cx="219.81" cy="368.22" data-y="1.44" data-x="1592611200" r="1" fill="white"><title>2020-06-20: 1</title></circle>
	<circle cx="221.72" cy="366.77" data-y="1.75" data-x="1592697600" r="1" fill="white"><title>2020-06-21: 2</title></circle>
	<circle cx="223.63" cy="364.83" data-y="2.16" data-x="1592784000" r="1" fill="white"><title>2020-06-22: 2</title></circle>
	<circle cx="225.54" cy="364.83" data-y="2.16" data-x="1592870400" r="1" fill="white"><title>2020-06-23: 2</title></circle>
	<circle cx="227.45" cy="365.80" data-y="1.95" data-x="1592956800" r="1" fill="white"><title>2020-06-24: 2</title></circle>
	<circle cx="229.36" cy="364.83" data-y="2.16" data-x="1593043200" r="1" fill="white"><title>2020-06-25: 2</title></circle>
	<circle cx="231.27" cy="365.80" data-y="1.95" data-x="1593129600" r="1" fill="white"><title>2020-06-26: 2</title></circle>
	<circle cx="233.18" cy="366.77" data-y="1.75" data-x="1593216000" r="1" fill="white"><title>2020-06-27: 2</title></circle>
	<circle cx="235.09" cy="368.71" data-y="1.33" data-x="1593302400" r="1" fill="white"><title>2020-06-28: 1</title></circle>
	<circle cx="237.00" cy="369.68" data-y="1.13" data-x="1593388800" r="1" fill="white"><title>2020-06-29: 1</title></circle>
	<circle cx="238.91" cy="369.68" data-y="1.13" data-x="1593475200" r="1" fill="white"><title>2020-06-30: 1</title></circle>
	<circle cx="240.82" cy="370.16" data-y="1.03" data-x="1593561600" r="1" fill="white"><title>2020-07-01: 1</title></circle>
	<circle cx="242.73" cy="370.64" data-y="0.92" data-x="1593648000" r="1" fill="white"><title>2020-07-02: 1</title></circle>
	<circle cx="244.64" cy="369.68" data-y="1.13" data-x="1593734400" r="1" fill="white"><title>2020-07-03: 1</title></circle>
	<circle cx="246.55" cy="369.68" data-y="1.13" data-x="1593820800" r="1" fill="white"><title>2020-07-04: 1</title></circle>
	<circle cx="248.45" cy="369.19" data-y="1.23" data-x="1593907200" r="1" fill="white"><title>2020-07-05: 1</title></circle>
	<circle cx="250.36" cy="370.16" data-y="1.03" data-x="1593993600" r="1" fill="white"><title>2020-07-06: 1</title></circle>
	<circle cx="252.27" cy="370.16" data-y="1.03" data-x="1594080000" r="1" fill="white"><title>2020-07-07: 1</title></circle>
	<circle cx="254.18" cy="370.16" data-y="1.03" data-x="1594166400" r="1" fill="white"><title>2020-07-08: 1</title></circle>
	<circle cx="256.09" cy="369.68" data-y="1.13" data-x="1594252800" r="1" fill="white"><title>2020-07-09: 1</title></circle>
	<circle cx="258.00" cy="370.64" data-y="0.92" data-x="1594339200" r="1" fill="white"><title>2020-07-10: 1</title></circle>
	<circle cx="259.91" cy="370.16" data-y="1.03" data-x="1594425600" r="1" fill="white"><title>2020-07-11: 1</title></circle>
	<circle cx="261.82" cy="370.64" data-y="0.92" data-x="1594512000" r="1" fill="white"><title>2020-07-12: 1</title></circle>
	<circle cx="263.73" cy="371.61" data-y="0.72" data-x="1594598400" r="1" fill="white"><title>2020-07-13: 1</title></circle>
	<circle cx="265.64" cy="372.58" data-y="0.51" data-x="1594684800" r="1" fill="white"><title>2020-07-14: 1</title></circle>
	<circle cx="267.55" cy="372.10" data-y="0.62" data-x="1594771200" r="1" fill="white"><title>2020-07-15: 1</title></circle>
	<circle cx="269.46" cy="373.06" data-y="0.41" data-x="1594857600" r="1" fill="white"><title>2020-07-16: 0</title></circle>
	<circle cx="271.37" cy="371.13" data-y="0.82" data-x="1594944000" r="1" fill="white"><title>2020-07-17: 1</title></circle>
	<circle cx="273.28" cy="371.61" data-y="0.72" data-x="1595030400" r="1" fill="white"><title>2020-07-18: 1</title></circle>
	<circle cx="275.19" cy="371.13" data-y="0.82" data-x="1595116800" r="1" fill="white"><title>2020-07-19: 1</title></circle>
	<circle cx="277.10" cy="370.16" data-y="1.03" data-x="1595203200" r="1" fill="white"><title>2020-07-20: 1</title></circle>
	<circle cx="279.01" cy="370.16" data-y="1.03" data-x="1595289600" r="1" fill="white"><title>2020-07-21: 1</title></circle>
	<circle cx="280.92" cy="370.16" data-y="1.03" data-x="1595376000" r="1" fill="white"><title>2020-07-22: 1</title></circle>
	<circle cx="282.83" cy="369.68" data-y="1.13" data-x="1595462400" r="1" fill="white"><title>2020-07-23: 1</title></circle>
	<circle cx="284.74" cy="371.13" data-y="0.82" data-x="1595548800" r="1" fill="white"><title>2020-07-24: 1</title></circle>
	<circle cx="286.65" cy="370.16" data-y="1.03" data-x="1595635200" r="1" fill="white"><title>2020-07-25: 1</title></circle>
	<circle cx="288.56" cy="370.16" data-y="1.03" data-x="1595721600" r="1" fill="white"><title>2020-07-26: 1</title></circle>
	<circle cx="290.47" cy="371.13" data-y="0.82" data-x="1595808000" r="1" fill="white"><title>2020-07-27: 1</title></circle>
	<circle cx="292.38" cy="371.13" data-y="0.82" data-x="1595894400" r="1" fill="white"><title>2020-07-28: 1</title></circle>
	<circle cx="294.29" cy="370.64" data-y="0.92" data-x="1595980800" r="1" fill="white"><title>2020-07-29: 1</title></circle>
	<circle cx="296.20" cy="370.16" data-y="1.03" data-x="1596067200" r="1" fill="white"><title>2020-07-30: 1</title></circle>
	<circle cx="298.11" cy="369.68" data-y="1.13" data-x="1596153600" r="1" fill="white"><title>2020-07-31: 1</title></circle>
	<circle cx="300.02" cy="369.19" data-y="1.23" data-x="1596240000" r="1" fill="white"><title>2020-08-01: 1</title></circle>
	<circle cx="301.93" cy="369.68" data-y="1.13" data-x="1596326400" r="1" fill="white"><title>2020-08-02: 1</title></circle>
	<circle cx="303.84" cy="368.71" data-y="1.33" data-x="1596412800" r="1" fill="white"><title>2020-08-03: 1</title></circle>
	<circle cx="305.75" cy="367.25" data-y="1.64" data-x="1596499200" r="1" fill="white"><title>2020-08-04: 2</title></circle>
	<circle cx="307.66" cy="367.74" data-y="1.54" data-x="1596585600" r="1" fill="white"><title>2020-08-05: 2</title></circle>
	<circle cx="309.57" cy="368.71" data-y="1.33" data-x="1596672000" r="1" fill="white"><title>2020-08-06: 1</title></circle>
	<circle cx="311.48" cy="369.19" data-y="1.23" data-x="1596758400" r="1" fill="white"><title>2020-08-07: 1</title></circle>
	<circle cx="313.39" cy="369.19" data-y="1.23" data-x="1596844800" r="1" fill="white"><title>2020-08-08: 1</title></circle>
	<circle cx="315.30" cy="367.74" data-y="1.54" data-x="1596931200" r="1" fill="white"><title>2020-08-09: 2</title></circle>
	<circle cx="317.21" cy="365.80" data-y="1.95" data-x="1597017600" r="1" fill="white"><title>2020-08-10: 2</title></circle>
	<circle cx="319.12" cy="366.77" data-y="1.75" data-x="1597104000" r="1" fill="white"><title>2020-08-11: 2</title></circle>
	<circle cx="321.03" cy="367.25" data-y="1.64" data-x="1597190400" r="1" fill="white"><title>2020-08-12: 2</title></circle>
	<circle cx="322.94" cy="367.25" data-y="1.64" data-x="1597276800" r="1" fill="white"><title>2020-08-13: 2</title></circle>
	<circle cx="324.85" cy="367.25" data-y="1.64" data-x="1597363200" r="1" fill="white"><title>2020-08-14: 2</title></circle>
	<circle cx="326.76" cy="368.71" data-y="1.33" data-x="1597449600" r="1" fill="white"><title>2020-08-15: 1</title></circle>
	<circle cx="328.67" cy="369.19" data-y="1.23" data-x="1597536000" r="1" fill="white"><title>2020-08-16: 1</title></circle>
	<circle cx="330.58" cy="371.13" data-y="0.82" data-x="1597622400" r="1" fill="white"><title>2020-08-17: 1</title></circle>
	<circle cx="332.49" cy="371.13" data-y="0.82" data-x="1597708800" r="1" fill="white"><title>2020-08-18: 1</title></circle>
	<circle cx="334.40" cy="371.13" data-y="0.82" data-x="1597795200" r="1" fill="white"><title>2020-08-19: 1</title></circle>
	<circle cx="336.31" cy="370.16" data-y="1.03" data-x="1597881600" r="1" fill="white"><title>2020-08-20: 1</title></circle>
	<circle cx="338.22" cy="370.16" data-y="1.03" data-x="1597968000" r="1" fill="white"><title>2020-08-21: 1</title></circle>
	<circle cx="340.13" cy="367.74" data-y="1.54" data-x="1598054400" r="1" fill="white"><title>2020-08-22: 2</title></circle>
	<circle cx="342.04" cy="366.77" data-y="1.75" data-x="1598140800" r="1" fill="white"><title>2020-08-23: 2</title></circle>
	<circle cx="343.95" cy="367.74" data-y="1.54" data-x="1598227200" r="1" fill="white"><title>2020-08-24: 2</title></circle>
	<circle cx="345.86" cy="368.71" data-y="1.33" data-x="1598313600" r="1" fill="white"><title>2020-08-25: 1</title></circle>
	<circle cx="347.77" cy="368.71" data-y="1.33" data-x="1598400000" r="1" fill="white"><title>2020-08-26: 1</title></circle>
	<circle cx="349.68" cy="369.68" data-y="1.13" data-x="1598486400" r="1" fill="white"><title>2020-08-27: 1</title></circle>
	<circle cx="351.59" cy="370.16" data-y="1.03" data-x="1598572800" r="1" fill="white"><title>2020-08-28: 1</title></circle>
	<circle cx="353.50" cy="371.13" data-y="0.82" data-x="1598659200" r="1" fill="white"><title>2020-08-29: 1</title></circle>
	<circle cx="355.41" cy="368.71" data-y="1.33" data-x="1598745600" r="1" fill="white"><title>2020-08-30: 1</title></circle>
	<circle cx="357.32" cy="366.77" data-y="1.75" data-x="1598832000" r="1" fill="white"><title>2020-08-31: 2</title></circle>
	<circle cx="359.23" cy="365.32" data-y="2.05" data-x="1598918400" r="1" fill="white"><title>2020-09-01: 2</title></circle>
	<circle cx="361.14" cy="363.38" data-y="2.46" data-x="1599004800" r="1" fill="white"><title>2020-09-02: 2</title></circle>
	<circle cx="363.05" cy="359.51" data-y="3.28" data-x="1599091200" r="1" fill="white"><title>2020-09-03: 3</title></circle>
	<circle cx="364.96" cy="357.09" data-y="3.80" data-x="1599177600" r="1" fill="white"><title>2020-09-04: 4</title></circle>
	<circle cx="366.87" cy="357.57" data-y="3.70" data-x="1599264000" r="1" fill="white"><title>2020-09-05: 4</title></circle>
	<circle cx="368.78" cy="359.51" data-y="3.28" data-x="1599350400" r="1" fill="white"><title>2020-09-06: 3</title></circle>
	<circle cx="370.69" cy="359.03" data-y="3.39" data-x="1599436800" r="1" fill="white"><title>2020-09-07: 3</title></circle>
	<circle cx="372.60" cy="350.31" data-y="5.24" data-x="1599523200" r="1" fill="white"><title>2020-09-08: 5</title></circle>
	<circle cx="374.51" cy="351.28" data-y="5.03" data-x="1599609600" r="1" fill="white"><title>2020-09-09: 5</title></circle>
	<circle cx="376.42" cy="351.28" data-y="5.03" data-x="1599696000" r="1" fill="white"><title>2020-09-10: 5</title></circle>
	<circle cx="378.33" cy="348.38" data-y="5.65" data-x="1599782400" r="1" fill="white"><title>2020-09-11: 6</title></circle>
	<circle cx="380.24" cy="342.08" data-y="6.98" data-x="1599868800" r="1" fill="white"><title>2020-09-12: 7</title></circle>
	<circle cx="382.15" cy="336.76" data-y="8.11" data-x="1599955200" r="1" fill="white"><title>2020-09-13: 8</title></circle>
	<circle cx="384.06" cy="332.88" data-y="8.93" data-x="1600041600" r="1" fill="white"><title>2020-09-14: 9</title></circle>
	<circle cx="385.97" cy="332.40" data-y="9.03" data-x="1600128000" r="1" fill="white"><title>2020-09-15: 9</title></circle>
	<circle cx="387.88" cy="329.01" data-y="9.75" data-x="1600214400" r="1" fill="white"><title>2020-09-16: 10</title></circle>
	<circle cx="389.79" cy="325.62" data-y="10.47" data-x="1600300800" r="1" fill="white"><title>2020-09-17: 10</title></circle>
	<circle cx="391.70" cy="326.11" data-y="10.37" data-x="1600387200" r="1" fill="white"><title>2020-09-18: 10</title></circle>
	<circle cx="393.61" cy="326.59" data-y="10.26" data-x="1600473600" r="1" fill="white"><title>2020-09-19: 10</title></circle>
	<circle cx="395.52" cy="329.01" data-y="9.75" data-x="1600560000" r="1" fill="white"><title>2020-09-20: 10</title></circle>
	<circle cx="397.42" cy="319.81" data-y="11.70" data-x="1600646400" r="1" fill="white"><title>2020-09-21: 12</title></circle>
	<circle cx="399.33" cy="323.69" data-y="10.88" data-x="1600732800" r="1" fill="white"><title>2020-09-22: 11</title></circle>
	<circle cx="401.24" cy="314.49" data-y="12.83" data-x="1600819200" r="1" fill="white"><title>2020-09-23: 13</title></circle>
	<circle cx="403.15" cy="313.04" data-y="13.14" data-x="1600905600" r="1" fill="white"><title>2020-09-24: 13</title></circle>
	<circle cx="405.06" cy="301.42" data-y="15.60" data-x="1600992000" r="1" fill="white"><title>2020-09-25: 16</title></circle>
	<circle cx="406.97" cy="289.80" data-y="18.07" data-x="1601078400" r="1" fill="white"><title>2020-09-26: 18</title></circle>
	<circle cx="408.88" cy="278.18" data-y="20.53" data-x="1601164800" r="1" fill="white"><title>2020-09-27: 21</title></circle>
	<circle cx="410.79" cy="271.41" data-y="21.97" data-x="1601251200" r="1" fill="white"><title>2020-09-28: 22</title></circle>
	<circle cx="412.70" cy="258.34" data-y="24.74" data-x="1601337600" r="1" fill="white"><title>2020-09-29: 25</title></circle>
	<circle cx="414.61" cy="252.53" data-y="25.97" data-x="1601424000" r="1" fill="white"><title>2020-09-30: 26</title></circle>
	<circle cx="416.52" cy="241.88" data-y="28.23" data-x="1601510400" r="1" fill="white"><title>2020-10-01: 28</title></circle>
	<circle cx="418.43" cy="236.55" data-y="29.36" data-x="1601596800" r="1" fill="white"><title>2020-10-02: 29</title></circle>
	<circle cx="420.34" cy="227.35" data-y="31.31" data-x="1601683200" r="1" fill="white"><title>2020-10-03: 31</title></circle>
	<circle cx="422.25" cy="213.80" data-y="34.18" data-x="1601769600" r="1" fill="white"><title>2020-10-04: 34</title></circle>
	<circle cx="424.16" cy="200.73" data-y="36.95" data-x="1601856000" r="1" fill="white"><title>2020-10-05: 37</title></circle>
	<circle cx="426.07" cy="191.53" data-y="38.90" data-x="1601942400" r="1" fill="white"><title>2020-10-06: 39</title></circle>
	<circle cx="427.98" cy="187.66" data-y="39.72" data-x="1602028800" r="1" fill="white"><title>2020-10-07: 40</title></circle>
	<circle cx="429.89" cy="179.43" data-y="41.47" data-x="1602115200" r="1" fill="white"><title>2020-10-08: 41</title></circle>
	<circle cx="431.80" cy="160.55" data-y="45.47" data-x="1602201600" r="1" fill="white"><title>2020-10-09: 45</title></circle>
	<circle cx="433.71" cy="147.48" data-y="48.24" data-x="1602288000" r="1" fill="white"><title>2020-10-10: 48</title></circle>
	<circle cx="435.62" cy="130.05" data-y="51.94" data-x="1602374400" r="1" fill="white"><title>2020-10-11: 52</title></circle>
	<circle cx="437.53" cy="128.12" data-y="52.35" data-x="1602460800" r="1" fill="white"><title>2020-10-12: 52</title></circle>
	<circle cx="439.44" cy="98.10" data-y="58.71" data-x="1602547200" r="1" fill="white"><title>2020-10-13: 59</title></circle>
	<circle cx="441.35" cy="73.90" data-y="63.85" data-x="1602633600" r="1" fill="white"><title>2020-10-14: 64</title></circle>
	<circle cx="443.26" cy="75.84" data-y="63.44" data-x="1602720000" r="1" fill="white"><title>2020-10-15: 63</title></circle>
	<circle cx="445.17" cy="54.54" data-y="67.95" data-x="1602806400" r="1" fill="white"><title>2020-10-16: 68</title></circle>
	<circle cx="447.08" cy="29.85" data-y="73.19" data-x="1602892800" r="1" fill="white"><title>2020-10-17: 73</title></circle>
	<circle cx="448.99" cy="17.26" data-y="75.86" data-x="1602979200" r="1" fill="white"><title>2020-10-18: 76</title></circle>
	<circle cx="450.90" cy="10.00" data-y="77.40" data-x="1603065600" r="1" fill="white"><title>2020-10-19: 77</title></circle>
	<circle cx="452.81" cy="16.78" data-y="75.96" data-x="1603152000" r="1" fill="white"><title>2020-10-20: 76</title></circle>
	<circle cx="454.72" cy="35.66" data-y="71.96" data-x="1603238400" r="1" fill="white"><title>2020-10-21: 72</title></circle>
	<circle cx="456.63" cy="33.24" data-y="72.47" data-x="1603324800" r="1" fill="white"><title>2020-10-22: 72</title></circle>
	<circle cx="458.54" cy="48.24" data-y="69.29" data-x="1603411200" r="1" fill="white"><title>2020-10-23: 69</title></circle>
	<circle cx="460.45" cy="72.93" data-y="64.05" data-x="1603497600" r="1" fill="white"><title>2020-10-24: 64</title></circle>
</g>
<g data-series="recent-cases" class="data-series">
	<path d="M 460.45,72.93L 462.36,116.98L 464.27,157.65L 466.18,182.41L 468.09,183.88L 470.00,185.24" id="Recent cases" class="line" stroke-width="1" stroke-linecap="round" stroke-dasharray="4,6" stroke-dashoffset="4"><title>Recent cases</title></path>
	<circle cx="460.45" cy="72.93" data-y="64.05" data-x="1603497600" r="2.5" fill="white"><title>2020-10-24: 64</title></circle>
	<circle cx="462.36" cy="116.98" data-y="54.71" data-x="1603584000" r="2.5" fill="white"><title>2020-10-25: 55</title></circle>
	<circle cx="464.27" cy="157.65" data-y="46.09" data-x="1603670400" r="2.5" fill="white"><title>2020-10-26: 46</title></circle>
	<circle cx="466.18" cy="182.41" data-y="40.84" data-x="1603756800" r="2.5" fill="white"><title>2020-10-27: 41</title></circle>
	<circle cx="468.09" cy="183.88" data-y="40.53" data-x="1603843200" r="2.5" fill="white"><title>2020-10-28: 41</title></circle>
	<circle cx="470.00" cy="185.24" data-y="40.24" data-x="1603929600" r="2.5" fill="white"><title>2020-10-29: 40</title></circle>
</g>
</svg>
