<svg width="480" height="400" viewBox="0 0 480 400" xmlns="http://www.w3.org/2000/svg" style="overflow:display" preserveAspectRatio="xMinYMin meet" overflow="visible">
<defs>
	<style>
	.data-series path.line { fill-opacity: 0; stroke: black; }
	.data-series path.line.dotted { stroke-dasharray: 12 20 }
	.data-series:hover path.line, .data-series.on path.line { stroke-width: 1; }
	.data-series:hover circle, .data-series.on circle { display: inline; }
	.graph-grid { font-family: "Helvetica Neue",Helvetica,Arial,"Lucida Grande",sans-serif; }
	.graph-grid line { stroke: black; stroke-width: 1; stroke-linecap: round; }
	.graph-grid.graph-grid-x text { text-anchor: middle; dominant-baseline: hanging; transform: translateY(10px); }
	.graph-grid.graph-grid-y text { text-anchor: end; dominant-baseline: middle; transform: translateX(-10px); }
	</style>
</defs>
<g class="graph-grid graph-grid-y">
	<line x1="25.00" y1="375.00" x2="470.00" y2="375.00" data-left="25"></line>
	<text x="35" y="375" text-anchor="end">0</text>
	<text x="35" y="212.683798076923" text-anchor="end">20</text>
	<text x="35" y="50.3675961538461" text-anchor="end">40</text>
	<text style="text-anchor:middle;dominant-baseline:hanging;font-weight:bold;transform: translateY(192.5px) rotate(-90deg);"></text>
</g>
<g class="graph-grid graph-grid-x">
	<line class="tick" x1="56.38" y1="375.00" x2="56.38" y2="380.00"></line>
	<text x="56.3782051282051" y="375" text-anchor="middle">A</text>
	<line class="tick" x1="99.17" y1="375.00" x2="99.17" y2="380.00"></line>
	<text x="99.1666666666667" y="375" text-anchor="middle">M</text>
	<line class="tick" x1="143.38" y1="375.00" x2="143.38" y2="380.00"></line>
	<text x="143.38141025641" y="375" text-anchor="middle">J</text>
	<line class="tick" x1="186.17" y1="375.00" x2="186.17" y2="380.00"></line>
	<text x="186.169871794872" y="375" text-anchor="middle">J</text>
	<line class="tick" x1="230.38" y1="375.00" x2="230.38" y2="380.00"></line>
	<text x="230.384615384615" y="375" text-anchor="middle">A</text>
	<line class="tick" x1="274.60" y1="375.00" x2="274.60" y2="380.00"></line>
	<text x="274.599358974359" y="375" text-anchor="middle">S</text>
	<line class="tick" x1="317.39" y1="375.00" x2="317.39" y2="380.00"></line>
	<text x="317.38782051282" y="375" text-anchor="middle">O</text>
	<line class="tick" x1="361.60" y1="375.00" x2="361.60" y2="380.00"></line>
	<text x="361.602564102564" y="375" text-anchor="middle">N</text>
	<line class="tick" x1="404.39" y1="375.00" x2="404.39" y2="380.00"></line>
	<text x="404.391025641026" y="375" text-anchor="middle">D</text>
	<line class="tick" x1="448.61" y1="375.00" x2="448.61" y2="380.00"></line>
	<text x="448.605769230769" y="375" text-anchor="middle">J</text>
	<text style="text-anchor:middle;dominant-baseline:hanging;font-weight:bold;transform: translateY(192.5px) rotate(-90deg);"></text>
</g>
<g data-series="widespread" class="data-series">
	<path d="M 25.00,318.19L 470.00,318.19" id="E06000026-level-0" class="line" stroke-width="1" stroke-linecap="round" stroke-dasharray="3,3" fill-opacity="0.3" opacity="0.3"><title>Widespread</title></path>
</g>
<g data-series="substantial" class="data-series">
	<path d="M 25.00,342.54L 470.00,342.54" id="E06000026-level-1" class="line" stroke-width="1" stroke-linecap="round" stroke-dasharray="3,3" fill-opacity="0.3" opacity="0.3"><title>Substantial</title></path>
</g>
<g data-series="moderate" class="data-series">
	<path d="M 25.00,366.88L 470.00,366.88" id="E06000026-level-2" class="line" stroke-width="1" stroke-linecap="round" stroke-dasharray="3,3" fill-opacity="0.3" opacity="0.3"><title>Moderate</title></path>
</g>
<g data-series="new-cases" class="data-series">
	<path d="M 25.00,372.70L 26.43,373.16L 27.85,371.93L 29.28,371.93L 30.71,372.37L 32.13,371.05L 33.56,370.17L 34.98,370.17L 36.41,369.30L 37.84,370.61L 39.26,369.74L 40.69,366.66L 42.12,366.66L 43.54,363.59L 44.97,363.16L 46.39,362.72L 47.82,360.52L 49.25,358.77L 50.67,360.96L 52.10,358.77L 53.53,357.45L 54.95,352.63L 56.38,349.56L 57.80,351.31L 59.23,352.19L 60.66,349.56L 62.08,351.31L 63.51,352.63L 64.94,353.06L 66.36,357.01L 67.79,354.38L 69.21,351.31L 70.64,347.80L 72.07,344.73L 73.49,344.29L 74.92,342.97L 76.35,340.34L 77.77,335.08L 79.20,336.39L 80.62,336.39L 82.05,323.67L 83.48,318.41L 84.90,323.23L 86.33,320.60L 87.76,322.36L 89.18,319.28L 90.61,319.72L 92.04,324.11L 93.46,330.69L 94.89,326.74L 96.31,330.69L 97.74,332.88L 99.17,336.83L 100.59,337.27L 102.02,341.66L 103.45,339.47L 104.87,344.73L 106.30,346.05L 107.72,348.24L 109.15,349.56L 110.58,349.99L 112.00,357.01L 113.43,360.52L 114.86,353.50L 116.28,351.31L 117.71,345.61L 119.13,345.61L 120.56,349.12L 121.99,348.24L 123.41,349.99L 124.84,356.57L 126.27,359.21L 127.69,365.79L 129.12,365.79L 130.54,367.10L 131.97,369.30L 133.40,365.79L 134.82,365.79L 136.25,364.91L 137.68,366.23L 139.10,366.23L 140.53,367.10L 141.96,367.54L 143.38,370.17L 144.81,371.05L 146.23,371.49L 147.66,371.05L 149.09,372.81L 150.51,372.81L 151.94,371.49L 153.37,371.93L 154.79,372.37L 156.22,372.81L 157.64,373.25L 159.07,372.81L 160.50,372.81L 161.92,374.12L 163.35,374.12L 164.78,374.12L 166.20,373.68L 167.63,373.25L 169.05,371.93L 170.48,371.49L 171.91,371.49L 173.33,371.93L 174.76,371.93L 176.19,371.93L 177.61,372.37L 179.04,372.81L 180.46,372.81L 181.89,372.37L 183.32,371.93L 184.74,371.49L 186.17,371.93L 187.60,371.05L 189.02,371.05L 190.45,371.49L 191.88,371.49L 193.30,371.93L 194.73,372.37L 196.15,372.37L 197.58,373.25L 199.01,374.56L 200.43,374.56L 201.86,375.00L 203.29,373.68L 204.71,373.68L 206.14,373.68L 207.56,373.68L 208.99,373.25L 210.42,372.81L 211.84,372.81L 213.27,373.25L 214.70,372.81L 216.12,372.81L 217.55,372.37L 218.97,372.81L 220.40,371.49L 221.83,370.61L 223.25,371.49L 224.68,371.93L 226.11,371.93L 227.53,371.93L 228.96,371.93L 230.38,373.25L 231.81,373.25L 233.24,373.25L 234.66,373.25L 236.09,372.81L 237.52,373.25L 238.94,372.81L 240.37,372.37L 241.79,373.25L 243.22,372.37L 244.65,372.37L 246.07,372.81L 247.50,371.05L 248.93,371.49L 250.35,371.05L 251.78,371.05L 253.21,371.05L 254.63,370.17L 256.06,368.42L 257.48,366.66L 258.91,365.35L 260.34,366.23L 261.76,364.91L 263.19,364.91L 264.62,363.16L 266.04,358.77L 267.47,359.65L 268.89,359.65L 270.32,357.45L 271.75,355.26L 273.17,353.06L 274.60,354.82L 276.03,359.21L 277.45,360.52L 278.88,357.45L 280.30,359.21L 281.73,360.96L 283.16,357.01L 284.58,356.57L 286.01,354.82L 287.44,354.82L 288.86,357.01L 290.29,355.70L 291.71,355.70L 293.14,359.65L 294.57,359.21L 295.99,358.77L 297.42,353.50L 298.85,349.12L 300.27,348.68L 301.70,343.85L 303.12,344.29L 304.55,341.66L 305.98,340.34L 307.40,345.17L 308.83,342.10L 310.26,337.71L 311.68,339.03L 313.11,330.25L 314.54,328.50L 315.96,327.18L 317.39,322.79L 318.81,321.04L 320.24,317.53L 321.67,307.00L 323.09,304.37L 324.52,295.16L 325.95,295.59L 327.37,294.72L 328.80,291.21L 330.22,283.75L 331.65,270.15L 333.08,265.76L 334.50,257.87L 335.93,253.48L 337.36,246.02L 338.78,225.40L 340.21,213.12L 341.63,204.78L 343.06,197.33L 344.49,193.38L 345.91,190.75L 347.34,177.15L 348.77,182.85L 350.19,178.02L 351.62,186.80L 353.04,183.29L 354.47,184.16L 355.90,177.15L 357.32,193.38L 358.75,193.38L 360.18,200.84L 361.60,182.41L 363.03,173.64L 364.46,167.06L 365.88,153.46L 367.31,133.71L 368.73,117.92L 370.16,105.64L 371.59,108.27L 373.01,108.71L 374.44,105.20L 375.87,113.09L 377.29,120.55L 378.72,136.78L 380.14,150.82L 381.57,177.15L 383.00,196.45L 384.42,214.00L 385.85,223.65L 387.28,239.44L 388.70,252.16L 390.13,265.76L 391.55,275.41L 392.98,281.12L 394.41,284.19L 395.83,292.96L 397.26,297.35L 398.69,303.05L 400.11,304.37L 401.54,305.25L 402.96,311.83L 404.39,321.92L 405.82,319.72L 407.24,307.44L 408.67,306.56L 410.10,307.44L 411.52,302.18L 412.95,297.35L 414.38,295.16L 415.80,293.40L 417.23,298.67L 418.65,291.21L 420.08,282.43L 421.51,273.22L 422.93,266.64L 424.36,256.55L 425.79,257.87L 427.21,251.72L 428.64,242.51L 430.06,216.63L 431.49,167.93L 432.92,160.91L 434.34,173.64L 435.77,159.60L 437.20,133.28L 438.62,122.75L 440.05,113.53L 441.47,152.14L 442.90,146.44L 444.33,137.22L 445.75,119.24L 447.18,125.82L 448.61,111.78L 450.03,110.46L 451.46,86.33L 452.88,58.70L 454.31,25.79L 455.74,33.25L 457.16,32.37L 458.59,21.41L 460.02,27.11L 461.44,10.00L 462.87,15.70" id="New cases" class="line" stroke-width="1" stroke-linecap="round"><title>New cases</title></path>
	<circle cx="25.00" cy="372.70" data-y="0.28" data-x="1583798400" r="1" fill="white"><title>2020-03-10: 0</title></circle>
	<circle cx="26.43" cy="373.16" data-y="0.23" data-x="1583884800" r="1" fill="white"><title>2020-03-11: 0</title></circle>
	<circle cx="27.85" cy="371.93" data-y="0.38" data-x="1583971200" r="1" fill="white"><title>2020-03-12: 0</title></circle>
	<circle cx="29.28" cy="371.93" data-y="0.38" data-x="1584057600" r="1" fill="white"><title>2020-03-13: 0</title></circle>
	<circle cx="30.71" cy="372.37" data-y="0.32" data-x="1584144000" r="1" fill="white"><title>2020-03-14: 0</title></circle>
	<circle cx="32.13" cy="371.05" data-y="0.49" data-x="1584230400" r="1" fill="white"><title>2020-03-15: 0</title></circle>
	<circle cx="33.56" cy="370.17" data-y="0.59" data-x="1584316800" r="1" fill="white"><title>2020-03-16: 1</title></circle>
	<circle cx="34.98" cy="370.17" data-y="0.59" data-x="1584403200" r="1" fill="white"><title>2020-03-17: 1</title></circle>
	<circle cx="36.41" cy="369.30" data-y="0.70" data-x="1584489600" r="1" fill="white"><title>2020-03-18: 1</title></circle>
	<circle cx="37.84" cy="370.61" data-y="0.54" data-x="1584576000" r="1" fill="white"><title>2020-03-19: 1</title></circle>
	<circle cx="39.26" cy="369.74" data-y="0.65" data-x="1584662400" r="1" fill="white"><title>2020-03-20: 1</title></circle>
	<circle cx="40.69" cy="366.66" data-y="1.03" data-x="1584748800" r="1" fill="white"><title>2020-03-21: 1</title></circle>
	<circle cx="42.12" cy="366.66" data-y="1.03" data-x="1584835200" r="1" fill="white"><title>2020-03-22: 1</title></circle>
	<circle cx="43.54" cy="363.59" data-y="1.41" data-x="1584921600" r="1" fill="white"><title>2020-03-23: 1</title></circle>
	<circle cx="44.97" cy="363.16" data-y="1.46" data-x="1585008000" r="1" fill="white"><title>2020-03-24: 1</title></circle>
	<circle cx="46.39" cy="362.72" data-y="1.51" data-x="1585094400" r="1" fill="white"><title>2020-03-25: 2</title></circle>
	<circle cx="47.82" cy="360.52" data-y="1.78" data-x="1585180800" r="1" fill="white"><title>2020-03-26: 2</title></circle>
	<circle cx="49.25" cy="358.77" data-y="2.00" data-x="1585267200" r="1" fill="white"><title>2020-03-27: 2</title></circle>
	<circle cx="50.67" cy="360.96" data-y="1.73" data-x="1585353600" r="1" fill="white"><title>2020-03-28: 2</title></circle>
	<circle cx="52.10" cy="358.77" data-y="2.00" data-x="1585440000" r="1" fill="white"><title>2020-03-29: 2</title></circle>
	<circle cx="53.53" cy="357.45" data-y="2.16" data-x="1585526400" r="1" fill="white"><title>2020-03-30: 2</title></circle>
	<circle cx="54.95" cy="352.63" data-y="2.76" data-x="1585612800" r="1" fill="white"><title>2020-03-31: 3</title></circle>
	<circle cx="56.38" cy="349.56" data-y="3.14" data-x="1585699200" r="1" fill="white"><title>2020-04-01: 3</title></circle>
	<circle cx="57.80" cy="351.31" data-y="2.92" data-x="1585785600" r="1" fill="white"><title>2020-04-02: 3</title></circle>
	<circle cx="59.23" cy="352.19" data-y="2.81" data-x="1585872000" r="1" fill="white"><title>2020-04-03: 3</title></circle>
	<circle cx="60.66" cy="349.56" data-y="3.14" data-x="1585958400" r="1" fill="white"><title>2020-04-04: 3</title></circle>
	<circle cx="62.08" cy="351.31" data-y="2.92" data-x="1586044800" r="1" fill="white"><title>2020-04-05: 3</title></circle>
	<circle cx="63.51" cy="352.63" data-y="2.76" data-x="1586131200" r="1" fill="white"><title>2020-04-06: 3</title></circle>
	<circle cx="64.94" cy="353.06" data-y="2.70" data-x="1586217600" r="1" fill="white"><title>2020-04-07: 3</title></circle>
	<circle cx="66.36" cy="357.01" data-y="2.22" data-x="1586304000" r="1" fill="white"><title>2020-04-08: 2</title></circle>
	<circle cx="67.79" cy="354.38" data-y="2.54" data-x="1586390400" r="1" fill="white"><title>2020-04-09: 3</title></circle>
	<circle cx="69.21" cy="351.31" data-y="2.92" data-x="1586476800" r="1" fill="white"><title>2020-04-10: 3</title></circle>
	<circle cx="70.64" cy="347.80" data-y="3.35" data-x="1586563200" r="1" fill="white"><title>2020-04-11: 3</title></circle>
	<circle cx="72.07" cy="344.73" data-y="3.73" data-x="1586649600" r="1" fill="white"><title>2020-04-12: 4</title></circle>
	<circle cx="73.49" cy="344.29" data-y="3.78" data-x="1586736000" r="1" fill="white"><title>2020-04-13: 4</title></circle>
	<circle cx="74.92" cy="342.97" data-y="3.95" data-x="1586822400" r="1" fill="white"><title>2020-04-14: 4</title></circle>
	<circle cx="76.35" cy="340.34" data-y="4.27" data-x="1586908800" r="1" fill="white"><title>2020-04-15: 4</title></circle>
	<circle cx="77.77" cy="335.08" data-y="4.92" data-x="1586995200" r="1" fill="white"><title>2020-04-16: 5</title></circle>
	<circle cx="79.20" cy="336.39" data-y="4.76" data-x="1587081600" r="1" fill="white"><title>2020-04-17: 5</title></circle>
	<circle cx="80.62" cy="336.39" data-y="4.76" data-x="1587168000" r="1" fill="white"><title>2020-04-18: 5</title></circle>
	<circle cx="82.05" cy="323.67" data-y="6.32" data-x="1587254400" r="1" fill="white"><title>2020-04-19: 6</title></circle>
	<circle cx="83.48" cy="318.41" data-y="6.97" data-x="1587340800" r="1" fill="white"><title>2020-04-20: 7</title></circle>
	<circle cx="84.90" cy="323.23" data-y="6.38" data-x="1587427200" r="1" fill="white"><title>2020-04-21: 6</title></circle>
	<circle cx="86.33" cy="320.60" data-y="6.70" data-x="1587513600" r="1" fill="white"><title>2020-04-22: 7</title></circle>
	<circle cx="87.76" cy="322.36" data-y="6.49" data-x="1587600000" r="1" fill="white"><title>2020-04-23: 6</title></circle>
	<circle cx="89.18" cy="319.28" data-y="6.87" data-x="1587686400" r="1" fill="white"><title>2020-04-24: 7</title></circle>
	<circle cx="90.61" cy="319.72" data-y="6.81" data-x="1587772800" r="1" fill="white"><title>2020-04-25: 7</title></circle>
	<circle cx="92.04" cy="324.11" data-y="6.27" data-x="1587859200" r="1" fill="white"><title>2020-04-26: 6</title></circle>
	<circle cx="93.46" cy="330.69" data-y="5.46" data-x="1587945600" r="1" fill="white"><title>2020-04-27: 5</title></circle>
	<circle cx="94.89" cy="326.74" data-y="5.95" data-x="1588032000" r="1" fill="white"><title>2020-04-28: 6</title></circle>
	<circle cx="96.31" cy="330.69" data-y="5.46" data-x="1588118400" r="1" fill="white"><title>2020-04-29: 5</title></circle>
	<circle cx="97.74" cy="332.88" data-y="5.19" data-x="1588204800" r="1" fill="white"><title>2020-04-30: 5</title></circle>
	<circle cx="99.17" cy="336.83" data-y="4.70" data-x="1588291200" r="1" fill="white"><title>2020-05-01: 5</title></circle>
	<circle cx="100.59" cy="337.27" data-y="4.65" data-x="1588377600" r="1" fill="white"><title>2020-05-02: 5</title></circle>
	<circle cx="102.02" cy="341.66" data-y="4.11" data-x="1588464000" r="1" fill="white"><title>2020-05-03: 4</title></circle>
	<circle cx="103.45" cy="339.47" data-y="4.38" data-x="1588550400" r="1" fill="white"><title>2020-05-04: 4</title></circle>
	<circle cx="104.87" cy="344.73" data-y="3.73" data-x="1588636800" r="1" fill="white"><title>2020-05-05: 4</title></circle>
	<circle cx="106.30" cy="346.05" data-y="3.57" data-x="1588723200" r="1" fill="white"><title>2020-05-06: 4</title></circle>
	<circle cx="107.72" cy="348.24" data-y="3.30" data-x="1588809600" r="1" fill="white"><title>2020-05-07: 3</title></circle>
	<circle cx="109.15" cy="349.56" data-y="3.14" data-x="1588896000" r="1" fill="white"><title>2020-05-08: 3</title></circle>
	<circle cx="110.58" cy="349.99" data-y="3.08" data-x="1588982400" r="1" fill="white"><title>2020-05-09: 3</title></circle>
	<circle cx="112.00" cy="357.01" data-y="2.22" data-x="1589068800" r="1" fill="white"><title>2020-05-10: 2</title></circle>
	<circle cx="113.43" cy="360.52" data-y="1.78" data-x="1589155200" r="1" fill="white"><title>2020-05-11: 2</title></circle>
	<circle cx="114.86" cy="353.50" data-y="2.65" data-x="1589241600" r="1" fill="white"><title>2020-05-12: 3</title></circle>
	<circle cx="116.28" cy="351.31" data-y="2.92" data-x="1589328000" r="1" fill="white"><title>2020-05-13: 3</title></circle>
	<circle cx="117.71" cy="345.61" data-y="3.62" data-x="1589414400" r="1" fill="white"><title>2020-05-14: 4</title></circle>
	<circle cx="119.13" cy="345.61" data-y="3.62" data-x="1589500800" r="1" fill="white"><title>2020-05-15: 4</title></circle>
	<circle cx="120.56" cy="349.12" data-y="3.19" data-x="1589587200" r="1" fill="white"><title>2020-05-16: 3</title></circle>
	<circle cx="121.99" cy="348.24" data-y="3.30" data-x="1589673600" r="1" fill="white"><title>2020-05-17: 3</title></circle>
	<circle cx="123.41" cy="349.99" data-y="3.08" data-x="1589760000" r="1" fill="white"><title>2020-05-18: 3</title></circle>
	<circle cx="124.84" cy="356.57" data-y="2.27" data-x="1589846400" r="1" fill="white"><title>2020-05-19: 2</title></circle>
	<circle cx="126.27" cy="359.21" data-y="1.95" data-x="1589932800" r="1" fill="white"><title>2020-05-20: 2</title></circle>
	<circle cx="127.69" cy="365.79" data-y="1.14" data-x="1590019200" r="1" fill="white"><title>2020-05-21: 1</title></circle>
	<circle cx="129.12" cy="365.79" data-y="1.14" data-x="1590105600" r="1" fill="white"><title>2020-05-22: 1</title></circle>
	<circle cx="130.54" cy="367.10" data-y="0.97" data-x="1590192000" r="1" fill="white"><title>2020-05-23: 1</title></circle>
	<circle cx="131.97" cy="369.30" data-y="0.70" data-x="1590278400" r="1" fill="white"><title>2020-05-24: 1</title></circle>
	<circle cx="133.40" cy="365.79" data-y="1.14" data-x="1590364800" r="1" fill="white"><title>2020-05-25: 1</title></circle>
	<circle cx="134.82" cy="365.79" data-y="1.14" data-x="1590451200" r="1" fill="white"><title>2020-05-26: 1</title></circle>
	<circle cx="136.25" cy="364.91" data-y="1.24" data-x="1590537600" r="1" fill="white"><title>2020-05-27: 1</title></circle>
	<circle cx="137.68" cy="366.23" data-y="1.08" data-x="1590624000" r="1" fill="white"><title>2020-05-28: 1</title></circle>
	<circle cx="139.10" cy="366.23" data-y="1.08" data-x="1590710400" r="1" fill="white"><title>2020-05-29: 1</title></circle>
	<circle cx="140.53" cy="367.10" data-y="0.97" data-x="1590796800" r="1" fill="white"><title>2020-05-30: 1</title></circle>
	<circle cx="141.96" cy="367.54" data-y="0.92" data-x="1590883200" r="1" fill="white"><title>2020-05-31: 1</title></circle>
	<circle cx="143.38" cy="370.17" data-y="0.59" data-x="1590969600" r="1" fill="white"><title>2020-06-01: 1</title></circle>
	<circle cx="144.81" cy="371.05" data-y="0.49" data-x="1591056000" r="1" fill="white"><title>2020-06-02: 0</title></circle>
	<circle cx="146.23" cy="371.49" data-y="0.43" data-x="1591142400" r="1" fill="white"><title>2020-06-03: 0</title></circle>
	<circle cx="147.66" cy="371.05" data-y="0.49" data-x="1591228800" r="1" fill="white"><title>2020-06-04: 0</title></circle>
	<circle cx="149.09" cy="372.81" data-y="0.27" data-x="1591315200" r="1" fill="white"><title>2020-06-05: 0</title></circle>
	<circle cx="150.51" cy="372.81" data-y="0.27" data-x="1591401600" r="1" fill="white"><title>2020-06-06: 0</title></circle>
	<circle cx="151.94" cy="371.49" data-y="0.43" data-x="1591488000" r="1" fill="white"><title>2020-06-07: 0</title></circle>
	<circle cx="153.37" cy="371.93" data-y="0.38" data-x="1591574400" r="1" fill="white"><title>2020-06-08: 0</title></circle>
	<circle cx="154.79" cy="372.37" data-y="0.32" data-x="1591660800" r="1" fill="white"><title>2020-06-09: 0</title></circle>
	<circle cx="156.22" cy="372.81" data-y="0.27" data-x="1591747200" r="1" fill="white"><title>2020-06-10: 0</title></circle>
	<circle cx="157.64" cy="373.25" data-y="0.22" data-x="1591833600" r="1" fill="white"><title>2020-06-11: 0</title></circle>
	<circle cx="159.07" cy="372.81" data-y="0.27" data-x="1591920000" r="1" fill="white"><title>2020-06-12: 0</title></circle>
	<circle cx="160.50" cy="372.81" data-y="0.27" data-x="1592006400" r="1" fill="white"><title>2020-06-13: 0</title></circle>
	<circle cx="161.92" cy="374.12" data-y="0.11" data-x="1592092800" r="1" fill="white"><title>2020-06-14: 0</title></circle>
	<circle cx="163.35" cy="374.12" data-y="0.11" data-x="1592179200" r="1" fill="white"><title>2020-06-15: 0</title></circle>
	<circle cx="164.78" cy="374.12" data-y="0.11" data-x="1592265600" r="1" fill="white"><title>2020-06-16: 0</title></circle>
	<circle cx="166.20" cy="373.68" data-y="0.16" data-x="1592352000" r="1" fill="white"><title>2020-06-17: 0</title></circle>
	<circle cx="167.63" cy="373.25" data-y="0.22" data-x="1592438400" r="1" fill="white"><title>2020-06-18: 0</title></circle>
	<circle cx="169.05" cy="371.93" data-y="0.38" data-x="1592524800" r="1" fill="white"><title>2020-06-19: 0</title></circle>
	<circle cx="170.48" cy="371.49" data-y="0.43" data-x="1592611200" r="1" fill="white"><title>2020-06-20: 0</title></circle>
	<circle cx="171.91" cy="371.49" data-y="0.43" data-x="1592697600" r="1" fill="white"><title>2020-06-21: 0</title></circle>
	<circle cx="173.33" cy="371.93" data-y="0.38" data-x="1592784000" r="1" fill="white"><title>2020-06-22: 0</title></circle>
	<circle cx="174.76" cy="371.93" data-y="0.38" data-x="1592870400" r="1" fill="white"><title>2020-06-23: 0</title></circle>
	<circle cx="176.19" cy="371.93" data-y="0.38" data-x="1592956800" r="1" fill="white"><title>2020-06-24: 0</title></circle>
	<circle cx="177.61" cy="372.37" data-y="0.32" data-x="1593043200" r="1" fill="white"><title>2020-06-25: 0</title></circle>
	<circle cx="179.04" cy="372.81" data-y="0.27" data-x="1593129600" r="1" fill="white"><title>2020-06-26: 0</title></circle>
	<circle cx="180.46" cy="372.81" data-y="0.27" data-x="1593216000" r="1" fill="white"><title>2020-06-27: 0</title></circle>
	<circle cx="181.89" cy="372.37" data-y="0.32" data-x="1593302400" r="1" fill="white"><title>2020-06-28: 0</title></circle>
	<circle cx="183.32" cy="371.93" data-y="0.38" data-x="1593388800" r="1" fill="white"><title>2020-06-29: 0</title></circle>
	<circle cx="184.74" cy="371.49" data-y="0.43" data-x="1593475200" r="1" fill="white"><title>2020-06-30: 0</title></circle>
	<circle cx="186.17" cy="371.93" data-y="0.38" data-x="1593561600" r="1" fill="white"><title>2020-07-01: 0</title></circle>
	<circle cx="187.60" cy="371.05" data-y="0.49" data-x="1593648000" r="1" fill="white"><title>2020-07-02: 0</title></circle>
	<circle cx="189.02" cy="371.05" data-y="0.49" data-x="1593734400" r="1" fill="white"><title>2020-07-03: 0</title></circle>
	<circle cx="190.45" cy="371.49" data-y="0.43" data-x="1593820800" r="1" fill="white"><title>2020-07-04: 0</title></circle>
	<circle cx="191.88" cy="371.49" data-y="0.43" data-x="1593907200" r="1" fill="white"><title>2020-07-05: 0</title></circle>
	<circle cx="193.30" cy="371.93" data-y="0.38" data-x="1593993600" r="1" fill="white"><title>2020-07-06: 0</title></circle>
	<circle cx="194.73" cy="372.37" data-y="0.32" data-x="1594080000" r="1" fill="white"><title>2020-07-07: 0</title></circle>
	<circle cx="196.15" cy="372.37" data-y="0.32" data-x="1594166400" r="1" fill="white"><title>2020-07-08: 0</title></circle>
	<circle cx="197.58" cy="373.25" data-y="0.22" data-x="1594252800" r="1" fill="white"><title>2020-07-09: 0</title></circle>
	<circle cx="199.01" cy="374.56" data-y="0.05" data-x="1594339200" r="1" fill="white"><title>2020-07-10: 0</title></circle>
	<circle cx="200.43" cy="374.56" data-y="0.05" data-x="1594425600" r="1" fill="white"><title>2020-07-11: 0</title></circle>
	<circle cx="201.86" cy="375.00" data-y="0.00" data-x="1594512000" r="1" fill="white"><title>2020-07-12: 0</title></circle>
	<circle cx="203.29" cy="373.68" data-y="0.16" data-x="1594598400" r="1" fill="white"><title>2020-07-13: 0</title></circle>
	<circle cx="204.71" cy="373.68" data-y="0.16" data-x="1594684800" r="1" fill="white"><title>2020-07-14: 0</title></circle>
	<circle cx="206.14" cy="373.68" data-y="0.16" data-x="1594771200" r="1" fill="white"><title>2020-07-15: 0</title></circle>
	<circle cx="207.56" cy="373.68" data-y="0.16" data-x="1594857600" r="1" fill="white"><title>2020-07-16: 0</title></circle>
	<circle cx="208.99" cy="373.25" data-y="0.22" data-x="1594944000" r="1" fill="white"><title>2020-07-17: 0</title></circle>
	<circle cx="210.42" cy="372.81" data-y="0.27" data-x="1595030400" r="1" fill="white"><title>2020-07-18: 0</title></circle>
	<circle cx="211.84" cy="372.81" data-y="0.27" data-x="1595116800" r="1" fill="white"><title>2020-07-19: 0</title></circle>
	<circle cx="213.27" cy="373.25" data-y="0.22" data-x="1595203200" r="1" fill="white"><title>2020-07-20: 0</title></circle>
	<circle cx="214.70" cy="372.81" data-y="0.27" data-x="1595289600" r="1" fill="white"><title>2020-07-21: 0</title></circle>
	<circle cx="216.12" cy="372.81" data-y="0.27" data-x="1595376000" r="1" fill="white"><title>2020-07-22: 0</title></circle>
	<circle cx="217.55" cy="372.37" data-y="0.32" data-x="1595462400" r="1" fill="white"><title>2020-07-23: 0</title></circle>
	<circle cx="218.97" cy="372.81" data-y="0.27" data-x="1595548800" r="1" fill="white"><title>2020-07-24: 0</title></circle>
	<circle cx="220.40" cy="371.49" data-y="0.43" data-x="1595635200" r="1" fill="white"><title>2020-07-25: 0</title></circle>
	<circle cx="221.83" cy="370.61" data-y="0.54" data-x="1595721600" r="1" fill="white"><title>2020-07-26: 1</title></circle>
	<circle cx="223.25" cy="371.49" data-y="0.43" data-x="1595808000" r="1" fill="white"><title>2020-07-27: 0</title></circle>
	<circle cx="224.68" cy="371.93" data-y="0.38" data-x="1595894400" r="1" fill="white"><title>2020-07-28: 0</title></circle>
	<circle cx="226.11" cy="371.93" data-y="0.38" data-x="1595980800" r="1" fill="white"><title>2020-07-29: 0</title></circle>
	<circle cx="227.53" cy="371.93" data-y="0.38" data-x="1596067200" r="1" fill="white"><title>2020-07-30: 0</title></circle>
	<circle cx="228.96" cy="371.93" data-y="0.38" data-x="1596153600" r="1" fill="white"><title>2020-07-31: 0</title></circle>
	<circle cx="230.38" cy="373.25" data-y="0.22" data-x="1596240000" r="1" fill="white"><title>2020-08-01: 0</title></circle>
	<circle cx="231.81" cy="373.25" data-y="0.22" data-x="1596326400" r="1" fill="white"><title>2020-08-02: 0</title></circle>
	<circle cx="233.24" cy="373.25" data-y="0.22" data-x="1596412800" r="1" fill="white"><title>2020-08-03: 0</title></circle>
	<circle cx="234.66" cy="373.25" data-y="0.22" data-x="1596499200" r="1" fill="white"><title>2020-08-04: 0</title></circle>
	<circle cx="236.09" cy="372.81" data-y="0.27" data-x="1596585600" r="1" fill="white"><title>2020-08-05: 0</title></circle>
	<circle cx="237.52" cy="373.25" data-y="0.22" data-x="1596672000" r="1" fill="white"><title>2020-08-06: 0</title></circle>
	<circle cx="238.94" cy="372.81" data-y="0.27" data-x="1596758400" r="1" fill="white"><title>2020-08-07: 0</title></circle>
	<circle cx="240.37" cy="372.37" data-y="0.32" data-x="1596844800" r="1" fill="white"><title>2020-08-08: 0</title></circle>
	<circle cx="241.79" cy="373.25" data-y="0.22" data-x="1596931200" r="1" fill="white"><title>2020-08-09: 0</title></circle>
	<circle cx="243.22" cy="372.37" data-y="0.32" data-x="1597017600" r="1" fill="white"><title>2020-08-10: 0</title></circle>
	<circle cx="244.65" cy="372.37" data-y="0.32" data-x="1597104000" r="1" fill="white"><title>2020-08-11: 0</title></circle>
	<circle cx="246.07" cy="372.81" data-y="0.27" data-x="1597190400" r="1" fill="white"><title>2020-08-12: 0</title></circle>
	<circle cx="247.50" cy="371.05" data-y="0.49" data-x="1597276800" r="1" fill="white"><title>2020-08-13: 0</title></circle>
	<circle cx="248.93" cy="371.49" data-y="0.43" data-x="1597363200" r="1" fill="white"><title>2020-08-14: 0</title></circle>
	<circle cx="250.35" cy="371.05" data-y="0.49" data-x="1597449600" r="1" fill="white"><title>2020-08-15: 0</title></circle>
	<circle cx="251.78" cy="371.05" data-y="0.49" data-x="1597536000" r="1" fill="white"><title>2020-08-16: 0</title></circle>
	<circle cx="253.21" cy="371.05" data-y="0.49" data-x="1597622400" r="1" fill="white"><title>2020-08-17: 0</title></circle>
	<circle cx="254.63" cy="370.17" data-y="0.59" data-x="1597708800" r="1" fill="white"><title>2020-08-18: 1</title></circle>
	<circle cx="256.06" cy="368.42" data-y="0.81" data-x="1597795200" r="1" fill="white"><title>2020-08-19: 1</title></circle>
	<circle cx="257.48" cy="366.66" data-y="1.03" data-x="1597881600" r="1" fill="white"><title>2020-08-20: 1</title></circle>
	<circle cx="258.91" cy="365.35" data-y="1.19" data-x="1597968000" r="1" fill="white"><title>2020-08-21: 1</title></circle>
	<circle cx="260.34" cy="366.23" data-y="1.08" data-x="1598054400" r="1" fill="white"><title>2020-08-22: 1</title></circle>
	<circle cx="261.76" cy="364.91" data-y="1.24" data-x="1598140800" r="1" fill="white"><title>2020-08-23: 1</title></circle>
	<circle cx="263.19" cy="364.91" data-y="1.24" data-x="1598227200" r="1" fill="white"><title>2020-08-24: 1</title></circle>
	<circle cx="264.62" cy="363.16" data-y="1.46" data-x="1598313600" r="1" fill="white"><title>2020-08-25: 1</title></circle>
	<circle cx="266.04" cy="358.77" data-y="2.00" data-x="1598400000" r="1" fill="white"><title>2020-08-26: 2</title></circle>
	<circle cx="267.47" cy="359.65" data-y="1.89" data-x="1598486400" r="1" fill="white"><title>2020-08-27: 2</title></circle>
	<circle cx="268.89" cy="359.65" data-y="1.89" data-x="1598572800" r="1" fill="white"><title>2020-08-28: 2</title></circle>
	<circle cx="270.32" cy="357.45" data-y="2.16" data-x="1598659200" r="1" fill="white"><title>2020-08-29: 2</title></circle>
	<circle cx="271.75" cy="355.26" data-y="2.43" data-x="1598745600" r="1" fill="white"><title>2020-08-30: 2</title></circle>
	<circle cx="273.17" cy="353.06" data-y="2.70" data-x="1598832000" r="1" fill="white"><title>2020-08-31: 3</title></circle>
	<circle cx="274.60" cy="354.82" data-y="2.49" data-x="1598918400" r="1" fill="white"><title>2020-09-01: 2</title></circle>
	<circle cx="276.03" cy="359.21" data-y="1.95" data-x="1599004800" r="1" fill="white"><title>2020-09-02: 2</title></circle>
	<circle cx="277.45" cy="360.52" data-y="1.78" data-x="1599091200" r="1" fill="white"><title>2020-09-03: 2</title></circle>
	<circle cx="278.88" cy="357.45" data-y="2.16" data-x="1599177600" r="1" fill="white"><title>2020-09-04: 2</title></circle>
	<circle cx="280.30" cy="359.21" data-y="1.95" data-x="1599264000" r="1" fill="white"><title>2020-09-05: 2</title></circle>
	<circle cx="281.73" cy="360.96" data-y="1.73" data-x="1599350400" r="1" fill="white"><title>2020-09-06: 2</title></circle>
	<circle cx="283.16" cy="357.01" data-y="2.22" data-x="1599436800" r="1" fill="white"><title>2020-09-07: 2</title></circle>
	<circle cx="284.58" cy="356.57" data-y="2.27" data-x="1599523200" r="1" fill="white"><title>2020-09-08: 2</title></circle>
	<circle cx="286.01" cy="354.82" data-y="2.49" data-x="1599609600" r="1" fill="white"><title>2020-09-09: 2</title></circle>
	<circle cx="287.44" cy="354.82" data-y="2.49" data-x="1599696000" r="1" fill="white"><title>2020-09-10: 2</title></circle>
	<circle cx="288.86" cy="357.01" data-y="2.22" data-x="1599782400" r="1" fill="white"><title>2020-09-11: 2</title></circle>
	<circle cx="290.29" cy="355.70" data-y="2.38" data-x="1599868800" r="1" fill="white"><title>2020-09-12: 2</title></circle>
	<circle cx="291.71" cy="355.70" data-y="2.38" data-x="1599955200" r="1" fill="white"><title>2020-09-13: 2</title></circle>
	<circle cx="293.14" cy="359.65" data-y="1.89" data-x="1600041600" r="1" fill="white"><title>2020-09-14: 2</title></circle>
	<circle cx="294.57" cy="359.21" data-y="1.95" data-x="1600128000" r="1" fill="white"><title>2020-09-15: 2</title></circle>
	<circle cx="295.99" cy="358.77" data-y="2.00" data-x="1600214400" r="1" fill="white"><title>2020-09-16: 2</title></circle>
	<circle cx="297.42" cy="353.50" data-y="2.65" data-x="1600300800" r="1" fill="white"><title>2020-09-17: 3</title></circle>
	<circle cx="298.85" cy="349.12" data-y="3.19" data-x="1600387200" r="1" fill="white"><title>2020-09-18: 3</title></circle>
	<circle cx="300.27" cy="348.68" data-y="3.24" data-x="1600473600" r="1" fill="white"><title>2020-09-19: 3</title></circle>
	<circle cx="301.70" cy="343.85" data-y="3.84" data-x="1600560000" r="1" fill="white"><title>2020-09-20: 4</title></circle>
	<circle cx="303.12" cy="344.29" data-y="3.78" data-x="1600646400" r="1" fill="white"><title>2020-09-21: 4</title></circle>
	<circle cx="304.55" cy="341.66" data-y="4.11" data-x="1600732800" r="1" fill="white"><title>2020-09-22: 4</title></circle>
	<circle cx="305.98" cy="340.34" data-y="4.27" data-x="1600819200" r="1" fill="white"><title>2020-09-23: 4</title></circle>
	<circle cx="307.40" cy="345.17" data-y="3.68" data-x="1600905600" r="1" fill="white"><title>2020-09-24: 4</title></circle>
	<circle cx="308.83" cy="342.10" data-y="4.05" data-x="1600992000" r="1" fill="white"><title>2020-09-25: 4</title></circle>
	<circle cx="310.26" cy="337.71" data-y="4.59" data-x="1601078400" r="1" fill="white"><title>2020-09-26: 5</title></circle>
	<circle cx="311.68" cy="339.03" data-y="4.43" data-x="1601164800" r="1" fill="white"><title>2020-09-27: 4</title></circle>
	<circle cx="313.11" cy="330.25" data-y="5.51" data-x="1601251200" r="1" fill="white"><title>2020-09-28: 6</title></circle>
	<circle cx="314.54" cy="328.50" data-y="5.73" data-x="1601337600" r="1" fill="white"><title>2020-09-29: 6</title></circle>
	<circle cx="315.96" cy="327.18" data-y="5.89" data-x="1601424000" r="1" fill="white"><title>2020-09-30: 6</title></circle>
	<circle cx="317.39" cy="322.79" data-y="6.43" data-x="1601510400" r="1" fill="white"><title>2020-10-01: 6</title></circle>
	<circle cx="318.81" cy="321.04" data-y="6.65" data-x="1601596800" r="1" fill="white"><title>2020-10-02: 7</title></circle>
	<circle cx="320.24" cy="317.53" data-y="7.08" data-x="1601683200" r="1" fill="white"><title>2020-10-03: 7</title></circle>
	<circle cx="321.67" cy="307.00" data-y="8.38" data-x="1601769600" r="1" fill="white"><title>2020-10-04: 8</title></circle>
	<circle cx="323.09" cy="304.37" data-y="8.70" data-x="1601856000" r="1" fill="white"><title>2020-10-05: 9</title></circle>
	<circle cx="324.52" cy="295.16" data-y="9.84" data-x="1601942400" r="1" fill="white"><title>2020-10-06: 10</title></circle>
	<circle cx="325.95" cy="295.59" data-y="9.78" data-x="1602028800" r="1" fill="white"><title>2020-10-07: 10</title></circle>
	<circle cx="327.37" cy="294.72" data-y="9.89" data-x="1602115200" r="1" fill="white"><title>2020-10-08: 10</title></circle>
	<circle cx="328.80" cy="291.21" data-y="10.32" data-x="1602201600" r="1" fill="white"><title>2020-10-09: 10</title></circle>
	<circle cx="330.22" cy="283.75" data-y="11.24" data-x="1602288000" r="1" fill="white"><title>2020-10-10: 11</title></circle>
	<circle cx="331.65" cy="270.15" data-y="12.92" data-x="1602374400" r="1" fill="white"><title>2020-10-11: 13</title></circle>
	<circle cx="333.08" cy="265.76" data-y="13.46" data-x="1602460800" r="1" fill="white"><title>2020-10-12: 13</title></circle>
	<circle cx="334.50" cy="257.87" data-y="14.43" data-x="1602547200" r="1" fill="white"><title>2020-10-13: 14</title></circle>
	<circle cx="335.93" cy="253.48" data-y="14.97" data-x="1602633600" r="1" fill="white"><title>2020-10-14: 15</title></circle>
	<circle cx="337.36" cy="246.02" data-y="15.89" data-x="1602720000" r="1" fill="white"><title>2020-10-15: 16</title></circle>
	<circle cx="338.78" cy="225.40" data-y="18.43" data-x="1602806400" r="1" fill="white"><title>2020-10-16: 18</title></circle>
	<circle cx="340.21" cy="213.12" data-y="19.95" data-x="1602892800" r="1" fill="white"><title>2020-10-17: 20</title></circle>
	<circle cx="341.63" cy="204.78" data-y="20.97" data-x="1602979200" r="1" fill="white"><title>2020-10-18: 21</title></circle>
	<circle cx="343.06" cy="197.33" data-y="21.89" data-x="1603065600" r="1" fill="white"><title>2020-10-19: 22</title></circle>
	<circle cx="344.49" cy="193.38" data-y="22.38" data-x="1603152000" r="1" fill="white"><title>2020-10-20: 22</title></circle>
	<circle cx="345.91" cy="190.75" data-y="22.70" data-x="1603238400" r="1" fill="white"><title>2020-10-21: 23</title></circle>
	<circle cx="347.34" cy="177.15" data-y="24.38" data-x="1603324800" r="1" fill="white"><title>2020-10-22: 24</title></circle>
	<circle cx="348.77" cy="182.85" data-y="23.68" data-x="1603411200" r="1" fill="white"><title>2020-10-23: 24</title></circle>
	<circle cx="350.19" cy="178.02" data-y="24.27" data-x="1603497600" r="1" fill="white"><title>2020-10-24: 24</title></circle>
	<circle cx="351.62" cy="186.80" data-y="23.19" data-x="1603584000" r="1" fill="white"><title>2020-10-25: 23</title></circle>
	<circle cx="353.04" cy="183.29" data-y="23.62" data-x="1603670400" r="1" fill="white"><title>2020-10-26: 24</title></circle>
	<circle cx="354.47" cy="184.16" data-y="23.51" data-x="1603756800" r="1" fill="white"><title>2020-10-27: 24</title></circle>
	<circle cx="355.90" cy="177.15" data-y="24.38" data-x="1603843200" r="1" fill="white"><title>2020-10-28: 24</title></circle>
	<circle cx="357.32" cy="193.38" data-y="22.38" data-x="1603929600" r="1" fill="white"><title>2020-10-29: 22</title></circle>
	<circle cx="358.75" cy="193.38" data-y="22.38" data-x="1604016000" r="1" fill="white"><title>2020-10-30: 22</title></circle>
	<circle cx="360.18" cy="200.84" data-y="21.46" data-x="1604102400" r="1" fill="white"><title>2020-10-31: 21</title></circle>
	<circle cx="361.60" cy="182.41" data-y="23.73" data-x="1604188800" r="1" fill="white"><title>2020-11-01: 24</title></circle>
	<circle cx="363.03" cy="173.64" data-y="24.81" data-x="1604275200" r="1" fill="white"><title>2020-11-02: 25</title></circle>
	<circle cx="364.46" cy="167.06" data-y="25.62" data-x="1604361600" r="1" fill="white"><title>2020-11-03: 26</title></circle>
	<circle cx="365.88" cy="153.46" data-y="27.30" data-x="1604448000" r="1" fill="white"><title>2020-11-04: 27</title></circle>
	<circle cx="367.31" cy="133.71" data-y="29.73" data-x="1604534400" r="1" fill="white"><title>2020-11-05: 30</title></circle>
	<circle cx="368.73" cy="117.92" data-y="31.68" data-x="1604620800" r="1" fill="white"><title>2020-11-06: 32</title></circle>
	<circle cx="370.16" cy="105.64" data-y="33.19" data-x="1604707200" r="1" fill="white"><title>2020-11-07: 33</title></circle>
	<circle cx="371.59" cy="108.27" data-y="32.87" data-x="1604793600" r="1" fill="white"><title>2020-11-08: 33</title></circle>
	<circle cx="373.01" cy="108.71" data-y="32.81" data-x="1604880000" r="1" fill="white"><title>2020-11-09: 33</title></circle>
	<circle cx="374.44" cy="105.20" data-y="33.24" data-x="1604966400" r="1" fill="white"><title>2020-11-10: 33</title></circle>
	<circle cx="375.87" cy="113.09" data-y="32.27" data-x="1605052800" r="1" fill="white"><title>2020-11-11: 32</title></circle>
	<circle cx="377.29" cy="120.55" data-y="31.35" data-x="1605139200" r="1" fill="white"><title>2020-11-12: 31</title></circle>
	<circle cx="378.72" cy="136.78" data-y="29.35" data-x="1605225600" r="1" fill="white"><title>2020-11-13: 29</title></circle>
	<circle cx="380.14" cy="150.82" data-y="27.62" data-x="1605312000" r="1" fill="white"><title>2020-11-14: 28</title></circle>
	<circle cx="381.57" cy="177.15" data-y="24.38" data-x="1605398400" r="1" fill="white"><title>2020-11-15: 24</title></circle>
	<circle cx="383.00" cy="196.45" data-y="22.00" data-x="1605484800" r="1" fill="white"><title>2020-11-16: 22</title></circle>
	<circle cx="384.42" cy="214.00" data-y="19.84" data-x="1605571200" r="1" fill="white"><title>2020-11-17: 20</title></circle>
	<circle cx="385.85" cy="223.65" data-y="18.65" data-x="1605657600" r="1" fill="white"><title>2020-11-18: 19</title></circle>
	<circle cx="387.28" cy="239.44" data-y="16.70" data-x="1605744000" r="1" fill="white"><title>2020-11-19: 17</title></circle>
	<circle cx="388.70" cy="252.16" data-y="15.14" data-x="1605830400" r="1" fill="white"><title>2020-11-20: 15</title></circle>
	<circle cx="390.13" cy="265.76" data-y="13.46" data-x="1605916800" r="1" fill="white"><title>2020-11-21: 13</title></circle>
	<circle cx="391.55" cy="275.41" data-y="12.27" data-x="1606003200" r="1" fill="white"><title>2020-11-22: 12</title></circle>
	<circle cx="392.98" cy="281.12" data-y="11.57" data-x="1606089600" r="1" fill="white"><title>2020-11-23: 12</title></circle>
	<circle cx="394.41" cy="284.19" data-y="11.19" data-x="1606176000" r="1" fill="white"><title>2020-11-24: 11</title></circle>
	<circle cx="395.83" cy="292.96" data-y="10.11" data-x="1606262400" r="1" fill="white"><title>2020-11-25: 10</title></circle>
	<circle cx="397.26" cy="297.35" data-y="9.57" data-x="1606348800" r="1" fill="white"><title>2020-11-26: 10</title></circle>
	<circle cx="398.69" cy="303.05" data-y="8.87" data-x="1606435200" r="1" fill="white"><title>2020-11-27: 9</title></circle>
	<circle cx="400.11" cy="304.37" data-y="8.70" data-x="1606521600" r="1" fill="white"><title>2020-11-28: 9</title></circle>
	<circle cx="401.54" cy="305.25" data-y="8.59" data-x="1606608000" r="1" fill="white"><title>2020-11-29: 9</title></circle>
	<circle cx="402.96" cy="311.83" data-y="7.78" data-x="1606694400" r="1" fill="white"><title>2020-11-30: 8</title></circle>
	<circle cx="404.39" cy="321.92" data-y="6.54" data-x="1606780800" r="1" fill="white"><title>2020-12-01: 7</title></circle>
	<circle cx="405.82" cy="319.72" data-y="6.81" data-x="1606867200" r="1" fill="white"><title>2020-12-02: 7</title></circle>
	<circle cx="407.24" cy="307.44" data-y="8.32" data-x="1606953600" r="1" fill="white"><title>2020-12-03: 8</title></circle>
	<circle cx="408.67" cy="306.56" data-y="8.43" data-x="1607040000" r="1" fill="white"><title>2020-12-04: 8</title></circle>
	<circle cx="410.10" cy="307.44" data-y="8.32" data-x="1607126400" r="1" fill="white"><title>2020-12-05: 8</title></circle>
	<circle cx="411.52" cy="302.18" data-y="8.97" data-x="1607212800" r="1" fill="white"><title>2020-12-06: 9</title></circle>
	<circle cx="412.95" cy="297.35" data-y="9.57" data-x="1607299200" r="1" fill="white"><title>2020-12-07: 10</title></circle>
	<circle cx="414.38" cy="295.16" data-y="9.84" data-x="1607385600" r="1" fill="white"><title>2020-12-08: 10</title></circle>
	<circle cx="415.80" cy="293.40" data-y="10.05" data-x="1607472000" r="1" fill="white"><title>2020-12-09: 10</title></circle>
	<circle cx="417.23" cy="298.67" data-y="9.41" data-x="1607558400" r="1" fill="white"><title>2020-12-10: 9</title></circle>
	<circle cx="418.65" cy="291.21" data-y="10.32" data-x="1607644800" r="1" fill="white"><title>2020-12-11: 10</title></circle>
	<circle cx="420.08" cy="282.43" data-y="11.41" data-x="1607731200" r="1" fill="white"><title>2020-12-12: 11</title></circle>
	<circle cx="421.51" cy="273.22" data-y="12.54" data-x="1607817600" r="1" fill="white"><title>2020-12-13: 13</title></circle>
	<circle cx="422.93" cy="266.64" data-y="13.35" data-x="1607904000" r="1" fill="white"><title>2020-12-14: 13</title></circle>
	<circle cx="424.36" cy="256.55" data-y="14.59" data-x="1607990400" r="1" fill="white"><title>2020-12-15: 15</title></circle>
	<circle cx="425.79" cy="257.87" data-y="14.43" data-x="1608076800" r="1" fill="white"><title>2020-12-16: 14</title></circle>
	<circle cx="427.21" cy="251.72" data-y="15.19" data-x="1608163200" r="1" fill="white"><title>2020-12-17: 15</title></circle>
	<circle cx="428.64" cy="242.51" data-y="16.32" data-x="1608249600" r="1" fill="white"><title>2020-12-18: 16</title></circle>
	<circle cx="430.06" cy="216.63" data-y="19.51" data-x="1608336000" r="1" fill="white"><title>2020-12-19: 20</title></circle>
	<circle cx="431.49" cy="167.93" data-y="25.51" data-x="1608422400" r="1" fill="white"><title>2020-12-20: 26</title></circle>
	<circle cx="432.92" cy="160.91" data-y="26.38" data-x="1608508800" r="1" fill="white"><title>2020-12-21: 26</title></circle>
	<circle cx="434.34" cy="173.64" data-y="24.81" data-x="1608595200" r="1" fill="white"><title>2020-12-22: 25</title></circle>
	<circle cx="435.77" cy="159.60" data-y="26.54" data-x="1608681600" r="1" fill="white"><title>2020-12-23: 27</title></circle>
	<circle cx="437.20" cy="133.28" data-y="29.78" data-x="1608768000" r="1" fill="white"><title>2020-12-24: 30</title></circle>
	<circle cx="438.62" cy="122.75" data-y="31.08" data-x="1608854400" r="1" fill="white"><title>2020-12-25: 31</title></circle>
	<circle cx="440.05" cy="113.53" data-y="32.22" data-x="1608940800" r="1" fill="white"><title>2020-12-26: 32</title></circle>
	<circle cx="441.47" cy="152.14" data-y="27.46" data-x="1609027200" r="1" fill="white"><title>2020-12-27: 27</title></circle>
	<circle cx="442.90" cy="146.44" data-y="28.16" data-x="1609113600" r="1" fill="white"><title>2020-12-28: 28</title></circle>
	<circle cx="444.33" cy="137.22" data-y="29.30" data-x="1609200000" r="1" fill="white"><title>2020-12-29: 29</title></circle>
	<circle cx="445.75" cy="119.24" data-y="31.51" data-x="1609286400" r="1" fill="white"><title>2020-12-30: 32</title></circle>
	<circle cx="447.18" cy="125.82" data-y="30.70" data-x="1609372800" r="1" fill="white"><title>2020-12-31: 31</title></circle>
	<circle cx="448.61" cy="111.78" data-y="32.43" data-x="1609459200" r="1" fill="white"><title>2021-01-01: 32</title></circle>
	<circle cx="450.03" cy="110.46" data-y="32.60" data-x="1609545600" r="1" fill="white"><title>2021-01-02: 33</title></circle>
	<circle cx="451.46" cy="86.33" data-y="35.57" data-x="1609632000" r="1" fill="white"><title>2021-01-03: 36</title></circle>
	<circle cx="452.88" cy="58.70" data-y="38.97" data-x="1609718400" r="1" fill="white"><title>2021-01-04: 39</title></circle>
	<circle cx="454.31" cy="25.79" data-y="43.03" data-x="1609804800" r="1" fill="white"><title>2021-01-05: 43</title></circle>
	<circle cx="455.74" cy="33.25" data-y="42.11" data-x="1609891200" r="1" fill="white"><title>2021-01-06: 42</title></circle>
	<circle cx="457.16" cy="32.37" data-y="42.22" data-x="1609977600" r="1" fill="white"><title>2021-01-07: 42</title></circle>
	<circle cx="458.59" cy="21.41" data-y="43.57" data-x="1610064000" r="1" fill="white"><title>2021-01-08: 44</title></circle>
	<circle cx="460.02" cy="27.11" data-y="42.87" data-x="1610150400" r="1" fill="white"><title>2021-01-09: 43</title></circle>
	<circle cx="461.44" cy="10.00" data-y="44.97" data-x="1610236800" r="1" fill="white"><title>2021-01-10: 45</title></circle>
	<circle cx="462.87" cy="15.70" data-y="44.27" data-x="1610323200" r="1" fill="white"><title>2021-01-11: 44</title></circle>
</g>
<g data-series="recent-cases" class="data-series">
	<path d="M 462.87,15.70L 464.29,27.55L 465.72,56.94L 467.15,47.95L 468.57,72.21L 470.00,83.26" id="Recent cases" class="line" stroke-width="1" stroke-linecap="round" stroke-dasharray="4,6" stroke-dashoffset="4"><title>Recent cases</title></path>
	<circle cx="462.87" cy="15.70" data-y="44.27" data-x="1610323200" r="2.5" fill="white"><title>2021-01-11: 44</title></circle>
	<circle cx="464.29" cy="27.55" data-y="42.81" data-x="1610409600" r="2.5" fill="white"><title>2021-01-12: 43</title></circle>
	<circle cx="465.72" cy="56.94" data-y="39.19" data-x="1610496000" r="2.5" fill="white"><title>2021-01-13: 39</title></circle>
	<circle cx="467.15" cy="47.95" data-y="40.30" data-x="1610582400" r="2.5" fill="white"><title>2021-01-14: 40</title></circle>
	<circle cx="468.57" cy="72.21" data-y="37.31" data-x="1610668800" r="2.5" fill="white"><title>2021-01-15: 37</title></circle>
	<circle cx="470.00" cy="83.26" data-y="35.95" data-x="1610755200" r="2.5" fill="white"><title>2021-01-16: 36</title></circle>
</g>
</svg>
