<svg width="480" height="400" viewBox="0 0 480 400" xmlns="http://www.w3.org/2000/svg" style="overflow:display" preserveAspectRatio="xMinYMin meet" overflow="visible">
<defs>
	<style>
	.data-series path.line { fill-opacity: 0; stroke: black; }
	.data-series path.line.dotted { stroke-dasharray: 12 20 }
	.data-series:hover path.line, .data-series.on path.line { stroke-width: 1; }
	.data-series:hover circle, .data-series.on circle { display: inline; }
	.graph-grid { font-family: "Helvetica Neue",Helvetica,Arial,"Lucida Grande",sans-serif; }
	.graph-grid line { stroke: black; stroke-width: 1; stroke-linecap: round; }
	.graph-grid.graph-grid-x text { text-anchor: middle; dominant-baseline: hanging; transform: translateY(10px); }
	.graph-grid.graph-grid-y text { text-anchor: end; dominant-baseline: middle; transform: translateX(-10px); }
	</style>
</defs>
<g class="graph-grid graph-grid-y">
	<line x1="25.00" y1="375.00" x2="470.00" y2="375.00" data-left="25"></line>
	<text x="35" y="375" text-anchor="end">0</text>
	<text x="35" y="240.178108617594" text-anchor="end">10</text>
	<text x="35" y="105.356217235188" text-anchor="end">20</text>
	<text style="text-anchor:middle;dominant-baseline:hanging;font-weight:bold;transform: translateY(192.5px) rotate(-90deg);"></text>
</g>
<g class="graph-grid graph-grid-x">
	<line class="tick" x1="62.84" y1="375.00" x2="62.84" y2="380.00"></line>
	<text x="62.8401360544218" y="375" text-anchor="middle">M</text>
	<line class="tick" x1="109.76" y1="375.00" x2="109.76" y2="380.00"></line>
	<text x="109.761904761905" y="375" text-anchor="middle">A</text>
	<line class="tick" x1="155.17" y1="375.00" x2="155.17" y2="380.00"></line>
	<text x="155.170068027211" y="375" text-anchor="middle">M</text>
	<line class="tick" x1="202.09" y1="375.00" x2="202.09" y2="380.00"></line>
	<text x="202.091836734694" y="375" text-anchor="middle">J</text>
	<line class="tick" x1="247.50" y1="375.00" x2="247.50" y2="380.00"></line>
	<text x="247.5" y="375" text-anchor="middle">J</text>
	<line class="tick" x1="294.42" y1="375.00" x2="294.42" y2="380.00"></line>
	<text x="294.421768707483" y="375" text-anchor="middle">A</text>
	<line class="tick" x1="341.34" y1="375.00" x2="341.34" y2="380.00"></line>
	<text x="341.343537414966" y="375" text-anchor="middle">S</text>
	<line class="tick" x1="386.75" y1="375.00" x2="386.75" y2="380.00"></line>
	<text x="386.751700680272" y="375" text-anchor="middle">O</text>
	<line class="tick" x1="433.67" y1="375.00" x2="433.67" y2="380.00"></line>
	<text x="433.673469387755" y="375" text-anchor="middle">N</text>
	<text style="text-anchor:middle;dominant-baseline:hanging;font-weight:bold;transform: translateY(192.5px) rotate(-90deg);"></text>
</g>
<g data-series="widespread" class="data-series">
	<path d="M 25.00,280.62L 470.00,280.62" id="E06000043-level-0" class="line" stroke-width="1" stroke-linecap="round" stroke-dasharray="3,3" fill-opacity="0.3" opacity="0.3"><title>Widespread</title></path>
</g>
<g data-series="substantial" class="data-series">
	<path d="M 25.00,321.07L 470.00,321.07" id="E06000043-level-1" class="line" stroke-width="1" stroke-linecap="round" stroke-dasharray="3,3" fill-opacity="0.3" opacity="0.3"><title>Substantial</title></path>
</g>
<g data-series="moderate" class="data-series">
	<path d="M 25.00,361.52L 470.00,361.52" id="E06000043-level-2" class="line" stroke-width="1" stroke-linecap="round" stroke-dasharray="3,3" fill-opacity="0.3" opacity="0.3"><title>Moderate</title></path>
</g>
<g data-series="new-cases" class="data-series">
	<path d="M 25.00,370.41L 26.51,370.41L 28.03,371.18L 29.54,371.72L 31.05,372.38L 32.57,372.38L 34.08,372.38L 35.60,374.34L 37.11,375.00L 38.62,375.00L 40.14,375.00L 41.65,375.00L 43.16,375.00L 44.68,375.00L 46.19,375.00L 47.70,375.00L 49.22,375.00L 50.73,375.00L 52.24,375.00L 53.76,375.00L 55.27,375.00L 56.79,375.00L 58.30,375.00L 59.81,375.00L 61.33,375.00L 62.84,374.34L 64.35,374.34L 65.87,374.34L 67.38,373.69L 68.89,373.69L 70.41,373.69L 71.92,372.38L 73.44,373.03L 74.95,373.03L 76.46,371.72L 77.98,372.38L 79.49,371.07L 81.00,369.76L 82.52,371.07L 84.03,368.45L 85.54,367.14L 87.06,366.48L 88.57,364.52L 90.09,363.86L 91.60,362.55L 93.11,357.96L 94.63,356.65L 96.14,352.06L 97.65,346.17L 99.17,342.89L 100.68,338.96L 102.19,337.65L 103.71,338.30L 105.22,329.78L 106.73,327.16L 108.25,327.82L 109.76,324.54L 111.28,323.23L 112.79,320.61L 114.30,314.06L 115.82,313.40L 117.33,317.99L 118.84,316.68L 120.36,319.96L 121.87,319.30L 123.38,318.64L 124.90,317.99L 126.41,319.30L 127.93,314.71L 129.44,313.40L 130.95,308.82L 132.47,309.47L 133.98,310.78L 135.49,314.71L 137.01,315.37L 138.52,316.02L 140.03,321.27L 141.55,323.89L 143.06,323.23L 144.57,325.85L 146.09,321.27L 147.60,319.96L 149.12,323.23L 150.63,322.58L 152.14,327.16L 153.66,327.16L 155.17,326.51L 156.68,331.10L 158.20,338.30L 159.71,340.27L 161.22,340.92L 162.74,342.24L 164.25,347.48L 165.77,346.82L 167.28,350.75L 168.79,352.06L 170.31,352.06L 171.82,352.06L 173.33,352.06L 174.85,352.06L 176.36,355.34L 177.87,354.69L 179.39,355.34L 180.90,354.69L 182.41,356.00L 183.93,355.34L 185.44,354.69L 186.96,352.72L 188.47,348.13L 189.98,343.55L 191.50,342.89L 193.01,343.55L 194.52,338.30L 196.04,337.65L 197.55,335.03L 199.06,337.65L 200.58,338.30L 202.09,338.30L 203.61,336.99L 205.12,340.92L 206.63,342.89L 208.15,346.82L 209.66,350.10L 211.17,355.34L 212.69,354.69L 214.20,356.00L 215.71,358.62L 217.23,358.62L 218.74,360.58L 220.26,361.89L 221.77,363.86L 223.28,367.14L 224.80,367.14L 226.31,365.83L 227.82,365.17L 229.34,364.52L 230.85,364.52L 232.36,363.86L 233.88,364.52L 235.39,366.48L 236.90,367.79L 238.42,369.76L 239.93,369.76L 241.45,370.41L 242.96,368.45L 244.47,368.45L 245.99,369.10L 247.50,369.76L 249.01,370.41L 250.53,371.07L 252.04,371.72L 253.55,373.69L 255.07,373.03L 256.58,370.41L 258.10,370.41L 259.61,369.76L 261.12,367.79L 262.64,366.48L 264.15,366.48L 265.66,367.14L 267.18,368.45L 268.69,367.79L 270.20,367.79L 271.72,369.10L 273.23,368.45L 274.74,366.48L 276.26,365.17L 277.77,363.20L 279.29,361.89L 280.80,361.89L 282.31,361.89L 283.83,361.89L 285.34,362.55L 286.85,364.52L 288.37,367.79L 289.88,369.76L 291.39,369.10L 292.91,369.76L 294.42,369.76L 295.94,370.41L 297.45,369.10L 298.96,367.79L 300.48,367.79L 301.99,369.10L 303.50,368.45L 305.02,369.10L 306.53,369.76L 308.04,369.76L 309.56,368.45L 311.07,367.14L 312.59,367.14L 314.10,365.83L 315.61,365.83L 317.13,366.48L 318.64,365.17L 320.15,365.17L 321.67,363.86L 323.18,359.93L 324.69,361.24L 326.21,361.24L 327.72,358.62L 329.23,357.31L 330.75,354.03L 332.26,355.34L 333.78,356.00L 335.29,355.34L 336.80,354.69L 338.32,355.34L 339.83,353.38L 341.34,356.00L 342.86,352.06L 344.37,352.06L 345.88,347.48L 347.40,344.20L 348.91,344.20L 350.43,335.03L 351.94,332.41L 353.45,329.13L 354.97,330.44L 356.48,331.75L 357.99,334.37L 359.51,331.75L 361.02,346.17L 362.53,349.44L 364.05,357.31L 365.56,357.96L 367.07,361.89L 368.59,361.24L 370.10,361.89L 371.62,359.27L 373.13,357.96L 374.64,356.00L 376.16,350.75L 377.67,344.86L 379.18,336.99L 380.70,323.89L 382.21,313.40L 383.72,297.68L 385.24,266.22L 386.75,249.18L 388.27,234.77L 389.78,221.01L 391.29,215.11L 392.81,198.73L 394.32,180.38L 395.83,190.86L 397.35,200.04L 398.86,192.17L 400.37,179.07L 401.89,166.62L 403.40,177.10L 404.91,183.00L 406.43,181.03L 407.94,163.99L 409.46,138.44L 410.97,113.54L 412.48,87.32L 414.00,55.22L 415.51,34.90L 417.02,21.80L 418.54,18.52L 420.05,10.00L 421.56,22.45L 423.08,43.42L 424.59,51.94L 426.11,80.12L 427.62,93.88L 429.13,109.61L 430.65,128.61L 432.16,128.61L 433.67,131.89L 435.19,141.71L 436.70,129.26L 438.21,107.64L 439.73,78.81L 441.24,57.18L 442.76,56.53L 444.27,36.87L 445.78,33.59L 447.30,28.35L 448.81,45.39L 450.32,78.81L 451.84,97.81L 453.35,126.64L 454.86,156.13L 456.38,177.10L 457.89,202.00L 459.40,220.35L 460.92,217.07L 462.43,243.29" id="New cases" class="line" stroke-width="1" stroke-linecap="round"><title>New cases</title></path>
	<circle cx="25.00" cy="370.41" data-y="0.34" data-x="1580860800" r="1" fill="white"><title>2020-02-05: 0</title></circle>
	<circle cx="26.51" cy="370.41" data-y="0.34" data-x="1580947200" r="1" fill="white"><title>2020-02-06: 0</title></circle>
	<circle cx="28.03" cy="371.18" data-y="0.28" data-x="1581033600" r="1" fill="white"><title>2020-02-07: 0</title></circle>
	<circle cx="29.54" cy="371.72" data-y="0.24" data-x="1581120000" r="1" fill="white"><title>2020-02-08: 0</title></circle>
	<circle cx="31.05" cy="372.38" data-y="0.19" data-x="1581206400" r="1" fill="white"><title>2020-02-09: 0</title></circle>
	<circle cx="32.57" cy="372.38" data-y="0.19" data-x="1581292800" r="1" fill="white"><title>2020-02-10: 0</title></circle>
	<circle cx="34.08" cy="372.38" data-y="0.19" data-x="1581379200" r="1" fill="white"><title>2020-02-11: 0</title></circle>
	<circle cx="35.60" cy="374.34" data-y="0.05" data-x="1581465600" r="1" fill="white"><title>2020-02-12: 0</title></circle>
	<circle cx="37.11" cy="375.00" data-y="0.00" data-x="1581552000" r="1" fill="white"><title>2020-02-13: 0</title></circle>
	<circle cx="38.62" cy="375.00" data-y="0.00" data-x="1581638400" r="1" fill="white"><title>2020-02-14: 0</title></circle>
	<circle cx="40.14" cy="375.00" data-y="0.00" data-x="1581724800" r="1" fill="white"><title>2020-02-15: 0</title></circle>
	<circle cx="41.65" cy="375.00" data-y="0.00" data-x="1581811200" r="1" fill="white"><title>2020-02-16: 0</title></circle>
	<circle cx="43.16" cy="375.00" data-y="0.00" data-x="1581897600" r="1" fill="white"><title>2020-02-17: 0</title></circle>
	<circle cx="44.68" cy="375.00" data-y="0.00" data-x="1581984000" r="1" fill="white"><title>2020-02-18: 0</title></circle>
	<circle cx="46.19" cy="375.00" data-y="0.00" data-x="1582070400" r="1" fill="white"><title>2020-02-19: 0</title></circle>
	<circle cx="47.70" cy="375.00" data-y="0.00" data-x="1582156800" r="1" fill="white"><title>2020-02-20: 0</title></circle>
	<circle cx="49.22" cy="375.00" data-y="0.00" data-x="1582243200" r="1" fill="white"><title>2020-02-21: 0</title></circle>
	<circle cx="50.73" cy="375.00" data-y="0.00" data-x="1582329600" r="1" fill="white"><title>2020-02-22: 0</title></circle>
	<circle cx="52.24" cy="375.00" data-y="0.00" data-x="1582416000" r="1" fill="white"><title>2020-02-23: 0</title></circle>
	<circle cx="53.76" cy="375.00" data-y="0.00" data-x="1582502400" r="1" fill="white"><title>2020-02-24: 0</title></circle>
	<circle cx="55.27" cy="375.00" data-y="0.00" data-x="1582588800" r="1" fill="white"><title>2020-02-25: 0</title></circle>
	<circle cx="56.79" cy="375.00" data-y="0.00" data-x="1582675200" r="1" fill="white"><title>2020-02-26: 0</title></circle>
	<circle cx="58.30" cy="375.00" data-y="0.00" data-x="1582761600" r="1" fill="white"><title>2020-02-27: 0</title></circle>
	<circle cx="59.81" cy="375.00" data-y="0.00" data-x="1582848000" r="1" fill="white"><title>2020-02-28: 0</title></circle>
	<circle cx="61.33" cy="375.00" data-y="0.00" data-x="1582934400" r="1" fill="white"><title>2020-02-29: 0</title></circle>
	<circle cx="62.84" cy="374.34" data-y="0.05" data-x="1583020800" r="1" fill="white"><title>2020-03-01: 0</title></circle>
	<circle cx="64.35" cy="374.34" data-y="0.05" data-x="1583107200" r="1" fill="white"><title>2020-03-02: 0</title></circle>
	<circle cx="65.87" cy="374.34" data-y="0.05" data-x="1583193600" r="1" fill="white"><title>2020-03-03: 0</title></circle>
	<circle cx="67.38" cy="373.69" data-y="0.10" data-x="1583280000" r="1" fill="white"><title>2020-03-04: 0</title></circle>
	<circle cx="68.89" cy="373.69" data-y="0.10" data-x="1583366400" r="1" fill="white"><title>2020-03-05: 0</title></circle>
	<circle cx="70.41" cy="373.69" data-y="0.10" data-x="1583452800" r="1" fill="white"><title>2020-03-06: 0</title></circle>
	<circle cx="71.92" cy="372.38" data-y="0.19" data-x="1583539200" r="1" fill="white"><title>2020-03-07: 0</title></circle>
	<circle cx="73.44" cy="373.03" data-y="0.15" data-x="1583625600" r="1" fill="white"><title>2020-03-08: 0</title></circle>
	<circle cx="74.95" cy="373.03" data-y="0.15" data-x="1583712000" r="1" fill="white"><title>2020-03-09: 0</title></circle>
	<circle cx="76.46" cy="371.72" data-y="0.24" data-x="1583798400" r="1" fill="white"><title>2020-03-10: 0</title></circle>
	<circle cx="77.98" cy="372.38" data-y="0.19" data-x="1583884800" r="1" fill="white"><title>2020-03-11: 0</title></circle>
	<circle cx="79.49" cy="371.07" data-y="0.29" data-x="1583971200" r="1" fill="white"><title>2020-03-12: 0</title></circle>
	<circle cx="81.00" cy="369.76" data-y="0.39" data-x="1584057600" r="1" fill="white"><title>2020-03-13: 0</title></circle>
	<circle cx="82.52" cy="371.07" data-y="0.29" data-x="1584144000" r="1" fill="white"><title>2020-03-14: 0</title></circle>
	<circle cx="84.03" cy="368.45" data-y="0.49" data-x="1584230400" r="1" fill="white"><title>2020-03-15: 0</title></circle>
	<circle cx="85.54" cy="367.14" data-y="0.58" data-x="1584316800" r="1" fill="white"><title>2020-03-16: 1</title></circle>
	<circle cx="87.06" cy="366.48" data-y="0.63" data-x="1584403200" r="1" fill="white"><title>2020-03-17: 1</title></circle>
	<circle cx="88.57" cy="364.52" data-y="0.78" data-x="1584489600" r="1" fill="white"><title>2020-03-18: 1</title></circle>
	<circle cx="90.09" cy="363.86" data-y="0.83" data-x="1584576000" r="1" fill="white"><title>2020-03-19: 1</title></circle>
	<circle cx="91.60" cy="362.55" data-y="0.92" data-x="1584662400" r="1" fill="white"><title>2020-03-20: 1</title></circle>
	<circle cx="93.11" cy="357.96" data-y="1.26" data-x="1584748800" r="1" fill="white"><title>2020-03-21: 1</title></circle>
	<circle cx="94.63" cy="356.65" data-y="1.36" data-x="1584835200" r="1" fill="white"><title>2020-03-22: 1</title></circle>
	<circle cx="96.14" cy="352.06" data-y="1.70" data-x="1584921600" r="1" fill="white"><title>2020-03-23: 2</title></circle>
	<circle cx="97.65" cy="346.17" data-y="2.14" data-x="1585008000" r="1" fill="white"><title>2020-03-24: 2</title></circle>
	<circle cx="99.17" cy="342.89" data-y="2.38" data-x="1585094400" r="1" fill="white"><title>2020-03-25: 2</title></circle>
	<circle cx="100.68" cy="338.96" data-y="2.67" data-x="1585180800" r="1" fill="white"><title>2020-03-26: 3</title></circle>
	<circle cx="102.19" cy="337.65" data-y="2.77" data-x="1585267200" r="1" fill="white"><title>2020-03-27: 3</title></circle>
	<circle cx="103.71" cy="338.30" data-y="2.72" data-x="1585353600" r="1" fill="white"><title>2020-03-28: 3</title></circle>
	<circle cx="105.22" cy="329.78" data-y="3.35" data-x="1585440000" r="1" fill="white"><title>2020-03-29: 3</title></circle>
	<circle cx="106.73" cy="327.16" data-y="3.55" data-x="1585526400" r="1" fill="white"><title>2020-03-30: 4</title></circle>
	<circle cx="108.25" cy="327.82" data-y="3.50" data-x="1585612800" r="1" fill="white"><title>2020-03-31: 3</title></circle>
	<circle cx="109.76" cy="324.54" data-y="3.74" data-x="1585699200" r="1" fill="white"><title>2020-04-01: 4</title></circle>
	<circle cx="111.28" cy="323.23" data-y="3.84" data-x="1585785600" r="1" fill="white"><title>2020-04-02: 4</title></circle>
	<circle cx="112.79" cy="320.61" data-y="4.03" data-x="1585872000" r="1" fill="white"><title>2020-04-03: 4</title></circle>
	<circle cx="114.30" cy="314.06" data-y="4.52" data-x="1585958400" r="1" fill="white"><title>2020-04-04: 5</title></circle>
	<circle cx="115.82" cy="313.40" data-y="4.57" data-x="1586044800" r="1" fill="white"><title>2020-04-05: 5</title></circle>
	<circle cx="117.33" cy="317.99" data-y="4.23" data-x="1586131200" r="1" fill="white"><title>2020-04-06: 4</title></circle>
	<circle cx="118.84" cy="316.68" data-y="4.33" data-x="1586217600" r="1" fill="white"><title>2020-04-07: 4</title></circle>
	<circle cx="120.36" cy="319.96" data-y="4.08" data-x="1586304000" r="1" fill="white"><title>2020-04-08: 4</title></circle>
	<circle cx="121.87" cy="319.30" data-y="4.13" data-x="1586390400" r="1" fill="white"><title>2020-04-09: 4</title></circle>
	<circle cx="123.38" cy="318.64" data-y="4.18" data-x="1586476800" r="1" fill="white"><title>2020-04-10: 4</title></circle>
	<circle cx="124.90" cy="317.99" data-y="4.23" data-x="1586563200" r="1" fill="white"><title>2020-04-11: 4</title></circle>
	<circle cx="126.41" cy="319.30" data-y="4.13" data-x="1586649600" r="1" fill="white"><title>2020-04-12: 4</title></circle>
	<circle cx="127.93" cy="314.71" data-y="4.47" data-x="1586736000" r="1" fill="white"><title>2020-04-13: 4</title></circle>
	<circle cx="129.44" cy="313.40" data-y="4.57" data-x="1586822400" r="1" fill="white"><title>2020-04-14: 5</title></circle>
	<circle cx="130.95" cy="308.82" data-y="4.91" data-x="1586908800" r="1" fill="white"><title>2020-04-15: 5</title></circle>
	<circle cx="132.47" cy="309.47" data-y="4.86" data-x="1586995200" r="1" fill="white"><title>2020-04-16: 5</title></circle>
	<circle cx="133.98" cy="310.78" data-y="4.76" data-x="1587081600" r="1" fill="white"><title>2020-04-17: 5</title></circle>
	<circle cx="135.49" cy="314.71" data-y="4.47" data-x="1587168000" r="1" fill="white"><title>2020-04-18: 4</title></circle>
	<circle cx="137.01" cy="315.37" data-y="4.42" data-x="1587254400" r="1" fill="white"><title>2020-04-19: 4</title></circle>
	<circle cx="138.52" cy="316.02" data-y="4.37" data-x="1587340800" r="1" fill="white"><title>2020-04-20: 4</title></circle>
	<circle cx="140.03" cy="321.27" data-y="3.99" data-x="1587427200" r="1" fill="white"><title>2020-04-21: 4</title></circle>
	<circle cx="141.55" cy="323.89" data-y="3.79" data-x="1587513600" r="1" fill="white"><title>2020-04-22: 4</title></circle>
	<circle cx="143.06" cy="323.23" data-y="3.84" data-x="1587600000" r="1" fill="white"><title>2020-04-23: 4</title></circle>
	<circle cx="144.57" cy="325.85" data-y="3.65" data-x="1587686400" r="1" fill="white"><title>2020-04-24: 4</title></circle>
	<circle cx="146.09" cy="321.27" data-y="3.99" data-x="1587772800" r="1" fill="white"><title>2020-04-25: 4</title></circle>
	<circle cx="147.60" cy="319.96" data-y="4.08" data-x="1587859200" r="1" fill="white"><title>2020-04-26: 4</title></circle>
	<circle cx="149.12" cy="323.23" data-y="3.84" data-x="1587945600" r="1" fill="white"><title>2020-04-27: 4</title></circle>
	<circle cx="150.63" cy="322.58" data-y="3.89" data-x="1588032000" r="1" fill="white"><title>2020-04-28: 4</title></circle>
	<circle cx="152.14" cy="327.16" data-y="3.55" data-x="1588118400" r="1" fill="white"><title>2020-04-29: 4</title></circle>
	<circle cx="153.66" cy="327.16" data-y="3.55" data-x="1588204800" r="1" fill="white"><title>2020-04-30: 4</title></circle>
	<circle cx="155.17" cy="326.51" data-y="3.60" data-x="1588291200" r="1" fill="white"><title>2020-05-01: 4</title></circle>
	<circle cx="156.68" cy="331.10" data-y="3.26" data-x="1588377600" r="1" fill="white"><title>2020-05-02: 3</title></circle>
	<circle cx="158.20" cy="338.30" data-y="2.72" data-x="1588464000" r="1" fill="white"><title>2020-05-03: 3</title></circle>
	<circle cx="159.71" cy="340.27" data-y="2.58" data-x="1588550400" r="1" fill="white"><title>2020-05-04: 3</title></circle>
	<circle cx="161.22" cy="340.92" data-y="2.53" data-x="1588636800" r="1" fill="white"><title>2020-05-05: 3</title></circle>
	<circle cx="162.74" cy="342.24" data-y="2.43" data-x="1588723200" r="1" fill="white"><title>2020-05-06: 2</title></circle>
	<circle cx="164.25" cy="347.48" data-y="2.04" data-x="1588809600" r="1" fill="white"><title>2020-05-07: 2</title></circle>
	<circle cx="165.77" cy="346.82" data-y="2.09" data-x="1588896000" r="1" fill="white"><title>2020-05-08: 2</title></circle>
	<circle cx="167.28" cy="350.75" data-y="1.80" data-x="1588982400" r="1" fill="white"><title>2020-05-09: 2</title></circle>
	<circle cx="168.79" cy="352.06" data-y="1.70" data-x="1589068800" r="1" fill="white"><title>2020-05-10: 2</title></circle>
	<circle cx="170.31" cy="352.06" data-y="1.70" data-x="1589155200" r="1" fill="white"><title>2020-05-11: 2</title></circle>
	<circle cx="171.82" cy="352.06" data-y="1.70" data-x="1589241600" r="1" fill="white"><title>2020-05-12: 2</title></circle>
	<circle cx="173.33" cy="352.06" data-y="1.70" data-x="1589328000" r="1" fill="white"><title>2020-05-13: 2</title></circle>
	<circle cx="174.85" cy="352.06" data-y="1.70" data-x="1589414400" r="1" fill="white"><title>2020-05-14: 2</title></circle>
	<circle cx="176.36" cy="355.34" data-y="1.46" data-x="1589500800" r="1" fill="white"><title>2020-05-15: 1</title></circle>
	<circle cx="177.87" cy="354.69" data-y="1.51" data-x="1589587200" r="1" fill="white"><title>2020-05-16: 2</title></circle>
	<circle cx="179.39" cy="355.34" data-y="1.46" data-x="1589673600" r="1" fill="white"><title>2020-05-17: 1</title></circle>
	<circle cx="180.90" cy="354.69" data-y="1.51" data-x="1589760000" r="1" fill="white"><title>2020-05-18: 2</title></circle>
	<circle cx="182.41" cy="356.00" data-y="1.41" data-x="1589846400" r="1" fill="white"><title>2020-05-19: 1</title></circle>
	<circle cx="183.93" cy="355.34" data-y="1.46" data-x="1589932800" r="1" fill="white"><title>2020-05-20: 1</title></circle>
	<circle cx="185.44" cy="354.69" data-y="1.51" data-x="1590019200" r="1" fill="white"><title>2020-05-21: 2</title></circle>
	<circle cx="186.96" cy="352.72" data-y="1.65" data-x="1590105600" r="1" fill="white"><title>2020-05-22: 2</title></circle>
	<circle cx="188.47" cy="348.13" data-y="1.99" data-x="1590192000" r="1" fill="white"><title>2020-05-23: 2</title></circle>
	<circle cx="189.98" cy="343.55" data-y="2.33" data-x="1590278400" r="1" fill="white"><title>2020-05-24: 2</title></circle>
	<circle cx="191.50" cy="342.89" data-y="2.38" data-x="1590364800" r="1" fill="white"><title>2020-05-25: 2</title></circle>
	<circle cx="193.01" cy="343.55" data-y="2.33" data-x="1590451200" r="1" fill="white"><title>2020-05-26: 2</title></circle>
	<circle cx="194.52" cy="338.30" data-y="2.72" data-x="1590537600" r="1" fill="white"><title>2020-05-27: 3</title></circle>
	<circle cx="196.04" cy="337.65" data-y="2.77" data-x="1590624000" r="1" fill="white"><title>2020-05-28: 3</title></circle>
	<circle cx="197.55" cy="335.03" data-y="2.96" data-x="1590710400" r="1" fill="white"><title>2020-05-29: 3</title></circle>
	<circle cx="199.06" cy="337.65" data-y="2.77" data-x="1590796800" r="1" fill="white"><title>2020-05-30: 3</title></circle>
	<circle cx="200.58" cy="338.30" data-y="2.72" data-x="1590883200" r="1" fill="white"><title>2020-05-31: 3</title></circle>
	<circle cx="202.09" cy="338.30" data-y="2.72" data-x="1590969600" r="1" fill="white"><title>2020-06-01: 3</title></circle>
	<circle cx="203.61" cy="336.99" data-y="2.82" data-x="1591056000" r="1" fill="white"><title>2020-06-02: 3</title></circle>
	<circle cx="205.12" cy="340.92" data-y="2.53" data-x="1591142400" r="1" fill="white"><title>2020-06-03: 3</title></circle>
	<circle cx="206.63" cy="342.89" data-y="2.38" data-x="1591228800" r="1" fill="white"><title>2020-06-04: 2</title></circle>
	<circle cx="208.15" cy="346.82" data-y="2.09" data-x="1591315200" r="1" fill="white"><title>2020-06-05: 2</title></circle>
	<circle cx="209.66" cy="350.10" data-y="1.85" data-x="1591401600" r="1" fill="white"><title>2020-06-06: 2</title></circle>
	<circle cx="211.17" cy="355.34" data-y="1.46" data-x="1591488000" r="1" fill="white"><title>2020-06-07: 1</title></circle>
	<circle cx="212.69" cy="354.69" data-y="1.51" data-x="1591574400" r="1" fill="white"><title>2020-06-08: 2</title></circle>
	<circle cx="214.20" cy="356.00" data-y="1.41" data-x="1591660800" r="1" fill="white"><title>2020-06-09: 1</title></circle>
	<circle cx="215.71" cy="358.62" data-y="1.22" data-x="1591747200" r="1" fill="white"><title>2020-06-10: 1</title></circle>
	<circle cx="217.23" cy="358.62" data-y="1.22" data-x="1591833600" r="1" fill="white"><title>2020-06-11: 1</title></circle>
	<circle cx="218.74" cy="360.58" data-y="1.07" data-x="1591920000" r="1" fill="white"><title>2020-06-12: 1</title></circle>
	<circle cx="220.26" cy="361.89" data-y="0.97" data-x="1592006400" r="1" fill="white"><title>2020-06-13: 1</title></circle>
	<circle cx="221.77" cy="363.86" data-y="0.83" data-x="1592092800" r="1" fill="white"><title>2020-06-14: 1</title></circle>
	<circle cx="223.28" cy="367.14" data-y="0.58" data-x="1592179200" r="1" fill="white"><title>2020-06-15: 1</title></circle>
	<circle cx="224.80" cy="367.14" data-y="0.58" data-x="1592265600" r="1" fill="white"><title>2020-06-16: 1</title></circle>
	<circle cx="226.31" cy="365.83" data-y="0.68" data-x="1592352000" r="1" fill="white"><title>2020-06-17: 1</title></circle>
	<circle cx="227.82" cy="365.17" data-y="0.73" data-x="1592438400" r="1" fill="white"><title>2020-06-18: 1</title></circle>
	<circle cx="229.34" cy="364.52" data-y="0.78" data-x="1592524800" r="1" fill="white"><title>2020-06-19: 1</title></circle>
	<circle cx="230.85" cy="364.52" data-y="0.78" data-x="1592611200" r="1" fill="white"><title>2020-06-20: 1</title></circle>
	<circle cx="232.36" cy="363.86" data-y="0.83" data-x="1592697600" r="1" fill="white"><title>2020-06-21: 1</title></circle>
	<circle cx="233.88" cy="364.52" data-y="0.78" data-x="1592784000" r="1" fill="white"><title>2020-06-22: 1</title></circle>
	<circle cx="235.39" cy="366.48" data-y="0.63" data-x="1592870400" r="1" fill="white"><title>2020-06-23: 1</title></circle>
	<circle cx="236.90" cy="367.79" data-y="0.53" data-x="1592956800" r="1" fill="white"><title>2020-06-24: 1</title></circle>
	<circle cx="238.42" cy="369.76" data-y="0.39" data-x="1593043200" r="1" fill="white"><title>2020-06-25: 0</title></circle>
	<circle cx="239.93" cy="369.76" data-y="0.39" data-x="1593129600" r="1" fill="white"><title>2020-06-26: 0</title></circle>
	<circle cx="241.45" cy="370.41" data-y="0.34" data-x="1593216000" r="1" fill="white"><title>2020-06-27: 0</title></circle>
	<circle cx="242.96" cy="368.45" data-y="0.49" data-x="1593302400" r="1" fill="white"><title>2020-06-28: 0</title></circle>
	<circle cx="244.47" cy="368.45" data-y="0.49" data-x="1593388800" r="1" fill="white"><title>2020-06-29: 0</title></circle>
	<circle cx="245.99" cy="369.10" data-y="0.44" data-x="1593475200" r="1" fill="white"><title>2020-06-30: 0</title></circle>
	<circle cx="247.50" cy="369.76" data-y="0.39" data-x="1593561600" r="1" fill="white"><title>2020-07-01: 0</title></circle>
	<circle cx="249.01" cy="370.41" data-y="0.34" data-x="1593648000" r="1" fill="white"><title>2020-07-02: 0</title></circle>
	<circle cx="250.53" cy="371.07" data-y="0.29" data-x="1593734400" r="1" fill="white"><title>2020-07-03: 0</title></circle>
	<circle cx="252.04" cy="371.72" data-y="0.24" data-x="1593820800" r="1" fill="white"><title>2020-07-04: 0</title></circle>
	<circle cx="253.55" cy="373.69" data-y="0.10" data-x="1593907200" r="1" fill="white"><title>2020-07-05: 0</title></circle>
	<circle cx="255.07" cy="373.03" data-y="0.15" data-x="1593993600" r="1" fill="white"><title>2020-07-06: 0</title></circle>
	<circle cx="256.58" cy="370.41" data-y="0.34" data-x="1594080000" r="1" fill="white"><title>2020-07-07: 0</title></circle>
	<circle cx="258.10" cy="370.41" data-y="0.34" data-x="1594166400" r="1" fill="white"><title>2020-07-08: 0</title></circle>
	<circle cx="259.61" cy="369.76" data-y="0.39" data-x="1594252800" r="1" fill="white"><title>2020-07-09: 0</title></circle>
	<circle cx="261.12" cy="367.79" data-y="0.53" data-x="1594339200" r="1" fill="white"><title>2020-07-10: 1</title></circle>
	<circle cx="262.64" cy="366.48" data-y="0.63" data-x="1594425600" r="1" fill="white"><title>2020-07-11: 1</title></circle>
	<circle cx="264.15" cy="366.48" data-y="0.63" data-x="1594512000" r="1" fill="white"><title>2020-07-12: 1</title></circle>
	<circle cx="265.66" cy="367.14" data-y="0.58" data-x="1594598400" r="1" fill="white"><title>2020-07-13: 1</title></circle>
	<circle cx="267.18" cy="368.45" data-y="0.49" data-x="1594684800" r="1" fill="white"><title>2020-07-14: 0</title></circle>
	<circle cx="268.69" cy="367.79" data-y="0.53" data-x="1594771200" r="1" fill="white"><title>2020-07-15: 1</title></circle>
	<circle cx="270.20" cy="367.79" data-y="0.53" data-x="1594857600" r="1" fill="white"><title>2020-07-16: 1</title></circle>
	<circle cx="271.72" cy="369.10" data-y="0.44" data-x="1594944000" r="1" fill="white"><title>2020-07-17: 0</title></circle>
	<circle cx="273.23" cy="368.45" data-y="0.49" data-x="1595030400" r="1" fill="white"><title>2020-07-18: 0</title></circle>
	<circle cx="274.74" cy="366.48" data-y="0.63" data-x="1595116800" r="1" fill="white"><title>2020-07-19: 1</title></circle>
	<circle cx="276.26" cy="365.17" data-y="0.73" data-x="1595203200" r="1" fill="white"><title>2020-07-20: 1</title></circle>
	<circle cx="277.77" cy="363.20" data-y="0.87" data-x="1595289600" r="1" fill="white"><title>2020-07-21: 1</title></circle>
	<circle cx="279.29" cy="361.89" data-y="0.97" data-x="1595376000" r="1" fill="white"><title>2020-07-22: 1</title></circle>
	<circle cx="280.80" cy="361.89" data-y="0.97" data-x="1595462400" r="1" fill="white"><title>2020-07-23: 1</title></circle>
	<circle cx="282.31" cy="361.89" data-y="0.97" data-x="1595548800" r="1" fill="white"><title>2020-07-24: 1</title></circle>
	<circle cx="283.83" cy="361.89" data-y="0.97" data-x="1595635200" r="1" fill="white"><title>2020-07-25: 1</title></circle>
	<circle cx="285.34" cy="362.55" data-y="0.92" data-x="1595721600" r="1" fill="white"><title>2020-07-26: 1</title></circle>
	<circle cx="286.85" cy="364.52" data-y="0.78" data-x="1595808000" r="1" fill="white"><title>2020-07-27: 1</title></circle>
	<circle cx="288.37" cy="367.79" data-y="0.53" data-x="1595894400" r="1" fill="white"><title>2020-07-28: 1</title></circle>
	<circle cx="289.88" cy="369.76" data-y="0.39" data-x="1595980800" r="1" fill="white"><title>2020-07-29: 0</title></circle>
	<circle cx="291.39" cy="369.10" data-y="0.44" data-x="1596067200" r="1" fill="white"><title>2020-07-30: 0</title></circle>
	<circle cx="292.91" cy="369.76" data-y="0.39" data-x="1596153600" r="1" fill="white"><title>2020-07-31: 0</title></circle>
	<circle cx="294.42" cy="369.76" data-y="0.39" data-x="1596240000" r="1" fill="white"><title>2020-08-01: 0</title></circle>
	<circle cx="295.94" cy="370.41" data-y="0.34" data-x="1596326400" r="1" fill="white"><title>2020-08-02: 0</title></circle>
	<circle cx="297.45" cy="369.10" data-y="0.44" data-x="1596412800" r="1" fill="white"><title>2020-08-03: 0</title></circle>
	<circle cx="298.96" cy="367.79" data-y="0.53" data-x="1596499200" r="1" fill="white"><title>2020-08-04: 1</title></circle>
	<circle cx="300.48" cy="367.79" data-y="0.53" data-x="1596585600" r="1" fill="white"><title>2020-08-05: 1</title></circle>
	<circle cx="301.99" cy="369.10" data-y="0.44" data-x="1596672000" r="1" fill="white"><title>2020-08-06: 0</title></circle>
	<circle cx="303.50" cy="368.45" data-y="0.49" data-x="1596758400" r="1" fill="white"><title>2020-08-07: 0</title></circle>
	<circle cx="305.02" cy="369.10" data-y="0.44" data-x="1596844800" r="1" fill="white"><title>2020-08-08: 0</title></circle>
	<circle cx="306.53" cy="369.76" data-y="0.39" data-x="1596931200" r="1" fill="white"><title>2020-08-09: 0</title></circle>
	<circle cx="308.04" cy="369.76" data-y="0.39" data-x="1597017600" r="1" fill="white"><title>2020-08-10: 0</title></circle>
	<circle cx="309.56" cy="368.45" data-y="0.49" data-x="1597104000" r="1" fill="white"><title>2020-08-11: 0</title></circle>
	<circle cx="311.07" cy="367.14" data-y="0.58" data-x="1597190400" r="1" fill="white"><title>2020-08-12: 1</title></circle>
	<circle cx="312.59" cy="367.14" data-y="0.58" data-x="1597276800" r="1" fill="white"><title>2020-08-13: 1</title></circle>
	<circle cx="314.10" cy="365.83" data-y="0.68" data-x="1597363200" r="1" fill="white"><title>2020-08-14: 1</title></circle>
	<circle cx="315.61" cy="365.83" data-y="0.68" data-x="1597449600" r="1" fill="white"><title>2020-08-15: 1</title></circle>
	<circle cx="317.13" cy="366.48" data-y="0.63" data-x="1597536000" r="1" fill="white"><title>2020-08-16: 1</title></circle>
	<circle cx="318.64" cy="365.17" data-y="0.73" data-x="1597622400" r="1" fill="white"><title>2020-08-17: 1</title></circle>
	<circle cx="320.15" cy="365.17" data-y="0.73" data-x="1597708800" r="1" fill="white"><title>2020-08-18: 1</title></circle>
	<circle cx="321.67" cy="363.86" data-y="0.83" data-x="1597795200" r="1" fill="white"><title>2020-08-19: 1</title></circle>
	<circle cx="323.18" cy="359.93" data-y="1.12" data-x="1597881600" r="1" fill="white"><title>2020-08-20: 1</title></circle>
	<circle cx="324.69" cy="361.24" data-y="1.02" data-x="1597968000" r="1" fill="white"><title>2020-08-21: 1</title></circle>
	<circle cx="326.21" cy="361.24" data-y="1.02" data-x="1598054400" r="1" fill="white"><title>2020-08-22: 1</title></circle>
	<circle cx="327.72" cy="358.62" data-y="1.22" data-x="1598140800" r="1" fill="white"><title>2020-08-23: 1</title></circle>
	<circle cx="329.23" cy="357.31" data-y="1.31" data-x="1598227200" r="1" fill="white"><title>2020-08-24: 1</title></circle>
	<circle cx="330.75" cy="354.03" data-y="1.56" data-x="1598313600" r="1" fill="white"><title>2020-08-25: 2</title></circle>
	<circle cx="332.26" cy="355.34" data-y="1.46" data-x="1598400000" r="1" fill="white"><title>2020-08-26: 1</title></circle>
	<circle cx="333.78" cy="356.00" data-y="1.41" data-x="1598486400" r="1" fill="white"><title>2020-08-27: 1</title></circle>
	<circle cx="335.29" cy="355.34" data-y="1.46" data-x="1598572800" r="1" fill="white"><title>2020-08-28: 1</title></circle>
	<circle cx="336.80" cy="354.69" data-y="1.51" data-x="1598659200" r="1" fill="white"><title>2020-08-29: 2</title></circle>
	<circle cx="338.32" cy="355.34" data-y="1.46" data-x="1598745600" r="1" fill="white"><title>2020-08-30: 1</title></circle>
	<circle cx="339.83" cy="353.38" data-y="1.60" data-x="1598832000" r="1" fill="white"><title>2020-08-31: 2</title></circle>
	<circle cx="341.34" cy="356.00" data-y="1.41" data-x="1598918400" r="1" fill="white"><title>2020-09-01: 1</title></circle>
	<circle cx="342.86" cy="352.06" data-y="1.70" data-x="1599004800" r="1" fill="white"><title>2020-09-02: 2</title></circle>
	<circle cx="344.37" cy="352.06" data-y="1.70" data-x="1599091200" r="1" fill="white"><title>2020-09-03: 2</title></circle>
	<circle cx="345.88" cy="347.48" data-y="2.04" data-x="1599177600" r="1" fill="white"><title>2020-09-04: 2</title></circle>
	<circle cx="347.40" cy="344.20" data-y="2.28" data-x="1599264000" r="1" fill="white"><title>2020-09-05: 2</title></circle>
	<circle cx="348.91" cy="344.20" data-y="2.28" data-x="1599350400" r="1" fill="white"><title>2020-09-06: 2</title></circle>
	<circle cx="350.43" cy="335.03" data-y="2.96" data-x="1599436800" r="1" fill="white"><title>2020-09-07: 3</title></circle>
	<circle cx="351.94" cy="332.41" data-y="3.16" data-x="1599523200" r="1" fill="white"><title>2020-09-08: 3</title></circle>
	<circle cx="353.45" cy="329.13" data-y="3.40" data-x="1599609600" r="1" fill="white"><title>2020-09-09: 3</title></circle>
	<circle cx="354.97" cy="330.44" data-y="3.31" data-x="1599696000" r="1" fill="white"><title>2020-09-10: 3</title></circle>
	<circle cx="356.48" cy="331.75" data-y="3.21" data-x="1599782400" r="1" fill="white"><title>2020-09-11: 3</title></circle>
	<circle cx="357.99" cy="334.37" data-y="3.01" data-x="1599868800" r="1" fill="white"><title>2020-09-12: 3</title></circle>
	<circle cx="359.51" cy="331.75" data-y="3.21" data-x="1599955200" r="1" fill="white"><title>2020-09-13: 3</title></circle>
	<circle cx="361.02" cy="346.17" data-y="2.14" data-x="1600041600" r="1" fill="white"><title>2020-09-14: 2</title></circle>
	<circle cx="362.53" cy="349.44" data-y="1.90" data-x="1600128000" r="1" fill="white"><title>2020-09-15: 2</title></circle>
	<circle cx="364.05" cy="357.31" data-y="1.31" data-x="1600214400" r="1" fill="white"><title>2020-09-16: 1</title></circle>
	<circle cx="365.56" cy="357.96" data-y="1.26" data-x="1600300800" r="1" fill="white"><title>2020-09-17: 1</title></circle>
	<circle cx="367.07" cy="361.89" data-y="0.97" data-x="1600387200" r="1" fill="white"><title>2020-09-18: 1</title></circle>
	<circle cx="368.59" cy="361.24" data-y="1.02" data-x="1600473600" r="1" fill="white"><title>2020-09-19: 1</title></circle>
	<circle cx="370.10" cy="361.89" data-y="0.97" data-x="1600560000" r="1" fill="white"><title>2020-09-20: 1</title></circle>
	<circle cx="371.62" cy="359.27" data-y="1.17" data-x="1600646400" r="1" fill="white"><title>2020-09-21: 1</title></circle>
	<circle cx="373.13" cy="357.96" data-y="1.26" data-x="1600732800" r="1" fill="white"><title>2020-09-22: 1</title></circle>
	<circle cx="374.64" cy="356.00" data-y="1.41" data-x="1600819200" r="1" fill="white"><title>2020-09-23: 1</title></circle>
	<circle cx="376.16" cy="350.75" data-y="1.80" data-x="1600905600" r="1" fill="white"><title>2020-09-24: 2</title></circle>
	<circle cx="377.67" cy="344.86" data-y="2.24" data-x="1600992000" r="1" fill="white"><title>2020-09-25: 2</title></circle>
	<circle cx="379.18" cy="336.99" data-y="2.82" data-x="1601078400" r="1" fill="white"><title>2020-09-26: 3</title></circle>
	<circle cx="380.70" cy="323.89" data-y="3.79" data-x="1601164800" r="1" fill="white"><title>2020-09-27: 4</title></circle>
	<circle cx="382.21" cy="313.40" data-y="4.57" data-x="1601251200" r="1" fill="white"><title>2020-09-28: 5</title></circle>
	<circle cx="383.72" cy="297.68" data-y="5.74" data-x="1601337600" r="1" fill="white"><title>2020-09-29: 6</title></circle>
	<circle cx="385.24" cy="266.22" data-y="8.07" data-x="1601424000" r="1" fill="white"><title>2020-09-30: 8</title></circle>
	<circle cx="386.75" cy="249.18" data-y="9.33" data-x="1601510400" r="1" fill="white"><title>2020-10-01: 9</title></circle>
	<circle cx="388.27" cy="234.77" data-y="10.40" data-x="1601596800" r="1" fill="white"><title>2020-10-02: 10</title></circle>
	<circle cx="389.78" cy="221.01" data-y="11.42" data-x="1601683200" r="1" fill="white"><title>2020-10-03: 11</title></circle>
	<circle cx="391.29" cy="215.11" data-y="11.86" data-x="1601769600" r="1" fill="white"><title>2020-10-04: 12</title></circle>
	<circle cx="392.81" cy="198.73" data-y="13.07" data-x="1601856000" r="1" fill="white"><title>2020-10-05: 13</title></circle>
	<circle cx="394.32" cy="180.38" data-y="14.44" data-x="1601942400" r="1" fill="white"><title>2020-10-06: 14</title></circle>
	<circle cx="395.83" cy="190.86" data-y="13.66" data-x="1602028800" r="1" fill="white"><title>2020-10-07: 14</title></circle>
	<circle cx="397.35" cy="200.04" data-y="12.98" data-x="1602115200" r="1" fill="white"><title>2020-10-08: 13</title></circle>
	<circle cx="398.86" cy="192.17" data-y="13.56" data-x="1602201600" r="1" fill="white"><title>2020-10-09: 14</title></circle>
	<circle cx="400.37" cy="179.07" data-y="14.53" data-x="1602288000" r="1" fill="white"><title>2020-10-10: 15</title></circle>
	<circle cx="401.89" cy="166.62" data-y="15.46" data-x="1602374400" r="1" fill="white"><title>2020-10-11: 15</title></circle>
	<circle cx="403.40" cy="177.10" data-y="14.68" data-x="1602460800" r="1" fill="white"><title>2020-10-12: 15</title></circle>
	<circle cx="404.91" cy="183.00" data-y="14.24" data-x="1602547200" r="1" fill="white"><title>2020-10-13: 14</title></circle>
	<circle cx="406.43" cy="181.03" data-y="14.39" data-x="1602633600" r="1" fill="white"><title>2020-10-14: 14</title></circle>
	<circle cx="407.94" cy="163.99" data-y="15.65" data-x="1602720000" r="1" fill="white"><title>2020-10-15: 16</title></circle>
	<circle cx="409.46" cy="138.44" data-y="17.55" data-x="1602806400" r="1" fill="white"><title>2020-10-16: 18</title></circle>
	<circle cx="410.97" cy="113.54" data-y="19.39" data-x="1602892800" r="1" fill="white"><title>2020-10-17: 19</title></circle>
	<circle cx="412.48" cy="87.32" data-y="21.34" data-x="1602979200" r="1" fill="white"><title>2020-10-18: 21</title></circle>
	<circle cx="414.00" cy="55.22" data-y="23.72" data-x="1603065600" r="1" fill="white"><title>2020-10-19: 24</title></circle>
	<circle cx="415.51" cy="34.90" data-y="25.23" data-x="1603152000" r="1" fill="white"><title>2020-10-20: 25</title></circle>
	<circle cx="417.02" cy="21.80" data-y="26.20" data-x="1603238400" r="1" fill="white"><title>2020-10-21: 26</title></circle>
	<circle cx="418.54" cy="18.52" data-y="26.44" data-x="1603324800" r="1" fill="white"><title>2020-10-22: 26</title></circle>
	<circle cx="420.05" cy="10.00" data-y="27.07" data-x="1603411200" r="1" fill="white"><title>2020-10-23: 27</title></circle>
	<circle cx="421.56" cy="22.45" data-y="26.15" data-x="1603497600" r="1" fill="white"><title>2020-10-24: 26</title></circle>
	<circle cx="423.08" cy="43.42" data-y="24.59" data-x="1603584000" r="1" fill="white"><title>2020-10-25: 25</title></circle>
	<circle cx="424.59" cy="51.94" data-y="23.96" data-x="1603670400" r="1" fill="white"><title>2020-10-26: 24</title></circle>
	<circle cx="426.11" cy="80.12" data-y="21.87" data-x="1603756800" r="1" fill="white"><title>2020-10-27: 22</title></circle>
	<circle cx="427.62" cy="93.88" data-y="20.85" data-x="1603843200" r="1" fill="white"><title>2020-10-28: 21</title></circle>
	<circle cx="429.13" cy="109.61" data-y="19.68" data-x="1603929600" r="1" fill="white"><title>2020-10-29: 20</title></circle>
	<circle cx="430.65" cy="128.61" data-y="18.28" data-x="1604016000" r="1" fill="white"><title>2020-10-30: 18</title></circle>
	<circle cx="432.16" cy="128.61" data-y="18.28" data-x="1604102400" r="1" fill="white"><title>2020-10-31: 18</title></circle>
	<circle cx="433.67" cy="131.89" data-y="18.03" data-x="1604188800" r="1" fill="white"><title>2020-11-01: 18</title></circle>
	<circle cx="435.19" cy="141.71" data-y="17.30" data-x="1604275200" r="1" fill="white"><title>2020-11-02: 17</title></circle>
	<circle cx="436.70" cy="129.26" data-y="18.23" data-x="1604361600" r="1" fill="white"><title>2020-11-03: 18</title></circle>
	<circle cx="438.21" cy="107.64" data-y="19.83" data-x="1604448000" r="1" fill="white"><title>2020-11-04: 20</title></circle>
	<circle cx="439.73" cy="78.81" data-y="21.97" data-x="1604534400" r="1" fill="white"><title>2020-11-05: 22</title></circle>
	<circle cx="441.24" cy="57.18" data-y="23.57" data-x="1604620800" r="1" fill="white"><title>2020-11-06: 24</title></circle>
	<circle cx="442.76" cy="56.53" data-y="23.62" data-x="1604707200" r="1" fill="white"><title>2020-11-07: 24</title></circle>
	<circle cx="444.27" cy="36.87" data-y="25.08" data-x="1604793600" r="1" fill="white"><title>2020-11-08: 25</title></circle>
	<circle cx="445.78" cy="33.59" data-y="25.32" data-x="1604880000" r="1" fill="white"><title>2020-11-09: 25</title></circle>
	<circle cx="447.30" cy="28.35" data-y="25.71" data-x="1604966400" r="1" fill="white"><title>2020-11-10: 26</title></circle>
	<circle cx="448.81" cy="45.39" data-y="24.45" data-x="1605052800" r="1" fill="white"><title>2020-11-11: 24</title></circle>
	<circle cx="450.32" cy="78.81" data-y="21.97" data-x="1605139200" r="1" fill="white"><title>2020-11-12: 22</title></circle>
	<circle cx="451.84" cy="97.81" data-y="20.56" data-x="1605225600" r="1" fill="white"><title>2020-11-13: 21</title></circle>
	<circle cx="453.35" cy="126.64" data-y="18.42" data-x="1605312000" r="1" fill="white"><title>2020-11-14: 18</title></circle>
	<circle cx="454.86" cy="156.13" data-y="16.23" data-x="1605398400" r="1" fill="white"><title>2020-11-15: 16</title></circle>
	<circle cx="456.38" cy="177.10" data-y="14.68" data-x="1605484800" r="1" fill="white"><title>2020-11-16: 15</title></circle>
	<circle cx="457.89" cy="202.00" data-y="12.83" data-x="1605571200" r="1" fill="white"><title>2020-11-17: 13</title></circle>
	<circle cx="459.40" cy="220.35" data-y="11.47" data-x="1605657600" r="1" fill="white"><title>2020-11-18: 11</title></circle>
	<circle cx="460.92" cy="217.07" data-y="11.71" data-x="1605744000" r="1" fill="white"><title>2020-11-19: 12</title></circle>
	<circle cx="462.43" cy="243.29" data-y="9.77" data-x="1605830400" r="1" fill="white"><title>2020-11-20: 10</title></circle>
</g>
<g data-series="recent-cases" class="data-series">
	<path d="M 462.43,243.29L 463.95,254.43L 465.46,281.29L 466.97,284.02L 468.49,289.68L 470.00,287.85" id="Recent cases" class="line" stroke-width="1" stroke-linecap="round" stroke-dasharray="4,6" stroke-dashoffset="4"><title>Recent cases</title></path>
	<circle cx="462.43" cy="243.29" data-y="9.77" data-x="1605830400" r="2.5" fill="white"><title>2020-11-20: 10</title></circle>
	<circle cx="463.95" cy="254.43" data-y="8.94" data-x="1605916800" r="2.5" fill="white"><title>2020-11-21: 9</title></circle>
	<circle cx="465.46" cy="281.29" data-y="6.95" data-x="1606003200" r="2.5" fill="white"><title>2020-11-22: 7</title></circle>
	<circle cx="466.97" cy="284.02" data-y="6.75" data-x="1606089600" r="2.5" fill="white"><title>2020-11-23: 7</title></circle>
	<circle cx="468.49" cy="289.68" data-y="6.33" data-x="1606176000" r="2.5" fill="white"><title>2020-11-24: 6</title></circle>
	<circle cx="470.00" cy="287.85" data-y="6.46" data-x="1606262400" r="2.5" fill="white"><title>2020-11-25: 6</title></circle>
</g>
</svg>
