<svg width="480" height="400" viewBox="0 0 480 400" xmlns="http://www.w3.org/2000/svg" style="overflow:display" preserveAspectRatio="xMinYMin meet" overflow="visible">
<defs>
	<style>
	.data-series path.line { fill-opacity: 0; stroke: black; }
	.data-series path.line.dotted { stroke-dasharray: 12 20 }
	.data-series:hover path.line, .data-series.on path.line { stroke-width: 1; }
	.data-series:hover circle, .data-series.on circle { display: inline; }
	.graph-grid { font-family: "Helvetica Neue",Helvetica,Arial,"Lucida Grande",sans-serif; }
	.graph-grid line { stroke: black; stroke-width: 1; stroke-linecap: round; }
	.graph-grid.graph-grid-x text { text-anchor: middle; dominant-baseline: hanging; transform: translateY(10px); }
	.graph-grid.graph-grid-y text { text-anchor: end; dominant-baseline: middle; transform: translateX(-10px); }
	</style>
</defs>
<g class="graph-grid graph-grid-y">
	<line x1="25.00" y1="375.00" x2="470.00" y2="375.00" data-left="25"></line>
	<text x="35" y="375" text-anchor="end">0</text>
	<text x="35" y="286.468841853035" text-anchor="end">10</text>
	<text x="35" y="197.93768370607" text-anchor="end">20</text>
	<text x="35" y="109.406525559105" text-anchor="end">30</text>
	<text x="35" y="20.8753674121406" text-anchor="end">40</text>
	<text style="text-anchor:middle;dominant-baseline:hanging;font-weight:bold;transform: translateY(192.5px) rotate(-90deg);"></text>
</g>
<g class="graph-grid graph-grid-x">
	<line class="tick" x1="65.94" y1="375.00" x2="65.94" y2="380.00"></line>
	<text x="65.94" y="375" text-anchor="middle">A</text>
	<line class="tick" x1="119.34" y1="375.00" x2="119.34" y2="380.00"></line>
	<text x="119.34" y="375" text-anchor="middle">M</text>
	<line class="tick" x1="174.52" y1="375.00" x2="174.52" y2="380.00"></line>
	<text x="174.52" y="375" text-anchor="middle">J</text>
	<line class="tick" x1="227.92" y1="375.00" x2="227.92" y2="380.00"></line>
	<text x="227.92" y="375" text-anchor="middle">J</text>
	<line class="tick" x1="283.10" y1="375.00" x2="283.10" y2="380.00"></line>
	<text x="283.1" y="375" text-anchor="middle">A</text>
	<line class="tick" x1="338.28" y1="375.00" x2="338.28" y2="380.00"></line>
	<text x="338.28" y="375" text-anchor="middle">S</text>
	<line class="tick" x1="391.68" y1="375.00" x2="391.68" y2="380.00"></line>
	<text x="391.68" y="375" text-anchor="middle">O</text>
	<line class="tick" x1="446.86" y1="375.00" x2="446.86" y2="380.00"></line>
	<text x="446.86" y="375" text-anchor="middle">N</text>
	<text style="text-anchor:middle;dominant-baseline:hanging;font-weight:bold;transform: translateY(192.5px) rotate(-90deg);"></text>
</g>
<g data-series="widespread" class="data-series">
	<path d="M 25.00,313.03L 470.00,313.03" id="E06000044-level-0" class="line" stroke-width="1" stroke-linecap="round" stroke-dasharray="3,3" fill-opacity="0.3" opacity="0.3"><title>Widespread</title></path>
</g>
<g data-series="substantial" class="data-series">
	<path d="M 25.00,339.59L 470.00,339.59" id="E06000044-level-1" class="line" stroke-width="1" stroke-linecap="round" stroke-dasharray="3,3" fill-opacity="0.3" opacity="0.3"><title>Substantial</title></path>
</g>
<g data-series="moderate" class="data-series">
	<path d="M 25.00,366.15L 470.00,366.15" id="E06000044-level-2" class="line" stroke-width="1" stroke-linecap="round" stroke-dasharray="3,3" fill-opacity="0.3" opacity="0.3"><title>Moderate</title></path>
</g>
<g data-series="new-cases" class="data-series">
	<path d="M 25.00,372.96L 26.78,372.55L 28.56,370.92L 30.34,369.75L 32.12,367.42L 33.90,365.67L 35.68,363.92L 37.46,362.17L 39.24,361.01L 41.02,362.17L 42.80,359.26L 44.58,356.92L 46.36,355.18L 48.14,348.76L 49.92,348.18L 51.70,348.18L 53.48,345.85L 55.26,349.35L 57.04,352.26L 58.82,355.18L 60.60,359.84L 62.38,359.84L 64.16,355.76L 65.94,355.18L 67.72,350.51L 69.50,347.01L 71.28,342.93L 73.06,339.43L 74.84,336.52L 76.62,337.10L 78.40,333.02L 80.18,334.77L 81.96,338.27L 83.74,336.52L 85.52,336.52L 87.30,338.85L 89.08,338.85L 90.86,343.51L 92.64,345.85L 94.42,347.60L 96.20,345.85L 97.98,337.10L 99.76,333.02L 101.54,331.27L 103.32,330.69L 105.10,323.11L 106.88,318.44L 108.66,320.19L 110.44,329.52L 112.22,331.85L 114.00,331.27L 115.78,330.10L 117.56,338.27L 119.34,340.02L 121.12,341.18L 122.90,339.43L 124.68,340.60L 126.46,345.26L 128.24,349.93L 130.02,349.35L 131.80,352.26L 133.58,357.51L 135.36,361.59L 137.14,365.09L 138.92,366.84L 140.70,365.67L 142.48,365.67L 144.26,363.34L 146.04,361.59L 147.82,364.50L 149.60,365.09L 151.38,365.09L 153.16,365.67L 154.94,367.42L 156.72,369.75L 158.50,369.75L 160.28,369.75L 162.06,367.42L 163.84,368.00L 165.62,368.00L 167.40,368.00L 169.18,368.59L 170.96,369.75L 172.74,370.92L 174.52,373.25L 176.30,372.67L 178.08,372.08L 179.86,371.50L 181.64,369.75L 183.42,369.75L 185.20,369.17L 186.98,369.17L 188.76,370.34L 190.54,371.50L 192.32,372.08L 194.10,373.83L 195.88,374.42L 197.66,375.00L 199.44,375.00L 201.22,374.42L 203.00,373.83L 204.78,373.83L 206.56,373.83L 208.34,373.83L 210.12,373.83L 211.90,373.83L 213.68,374.42L 215.46,375.00L 217.24,375.00L 219.02,373.83L 220.80,373.83L 222.58,373.25L 224.36,373.25L 226.14,373.25L 227.92,373.25L 229.70,372.67L 231.48,373.25L 233.26,372.67L 235.04,370.92L 236.82,370.92L 238.60,370.92L 240.38,370.92L 242.16,371.50L 243.94,371.50L 245.72,371.50L 247.50,373.83L 249.28,373.25L 251.06,373.25L 252.84,372.67L 254.62,372.67L 256.40,372.67L 258.18,372.67L 259.96,372.08L 261.74,372.08L 263.52,372.08L 265.30,372.67L 267.08,372.67L 268.86,373.25L 270.64,373.83L 272.42,372.67L 274.20,372.67L 275.98,372.67L 277.76,372.67L 279.54,372.08L 281.32,372.08L 283.10,371.50L 284.88,371.50L 286.66,370.92L 288.44,370.92L 290.22,370.92L 292.00,371.50L 293.78,371.50L 295.56,371.50L 297.34,370.34L 299.12,371.50L 300.90,371.50L 302.68,371.50L 304.46,371.50L 306.24,370.92L 308.02,370.34L 309.80,371.50L 311.58,369.75L 313.36,369.17L 315.14,369.17L 316.92,368.59L 318.70,366.84L 320.48,367.42L 322.26,369.17L 324.04,366.84L 325.82,365.67L 327.60,364.50L 329.38,365.09L 331.16,365.67L 332.94,364.50L 334.72,362.76L 336.50,364.50L 338.28,365.67L 340.06,365.09L 341.84,361.59L 343.62,360.42L 345.40,356.92L 347.18,355.76L 348.96,356.34L 350.74,356.92L 352.52,357.51L 354.30,359.84L 356.08,361.01L 357.86,363.92L 359.64,365.67L 361.42,363.34L 363.20,360.42L 364.98,356.34L 366.76,353.43L 368.54,353.43L 370.32,349.93L 372.10,341.77L 373.88,339.43L 375.66,331.85L 377.44,334.19L 379.22,334.77L 381.00,331.85L 382.78,329.52L 384.56,334.77L 386.34,328.35L 388.12,329.52L 389.90,320.77L 391.68,310.86L 393.46,305.03L 395.24,300.95L 397.02,288.71L 398.80,277.04L 400.58,263.63L 402.36,253.72L 404.14,244.39L 405.92,235.65L 407.70,221.07L 409.48,208.24L 411.26,201.25L 413.04,187.84L 414.82,189.00L 416.60,194.25L 418.38,178.51L 420.16,166.85L 421.94,155.77L 423.72,148.77L 425.50,154.60L 427.28,154.60L 429.06,147.02L 430.84,131.28L 432.62,122.53L 434.40,116.70L 436.18,121.95L 437.96,116.70L 439.74,115.54L 441.52,126.61L 443.30,107.96L 445.08,107.96L 446.86,115.54L 448.64,101.54L 450.42,99.79L 452.20,84.05L 453.98,52.56L 455.76,54.31L 457.54,42.65L 459.32,28.08L 461.10,21.66" id="New cases" class="line" stroke-width="1" stroke-linecap="round"><title>New cases</title></path>
	<circle cx="25.00" cy="372.96" data-y="0.23" data-x="1583712000" r="1" fill="white"><title>2020-03-09: 0</title></circle>
	<circle cx="26.78" cy="372.55" data-y="0.28" data-x="1583798400" r="1" fill="white"><title>2020-03-10: 0</title></circle>
	<circle cx="28.56" cy="370.92" data-y="0.46" data-x="1583884800" r="1" fill="white"><title>2020-03-11: 0</title></circle>
	<circle cx="30.34" cy="369.75" data-y="0.59" data-x="1583971200" r="1" fill="white"><title>2020-03-12: 1</title></circle>
	<circle cx="32.12" cy="367.42" data-y="0.86" data-x="1584057600" r="1" fill="white"><title>2020-03-13: 1</title></circle>
	<circle cx="33.90" cy="365.67" data-y="1.05" data-x="1584144000" r="1" fill="white"><title>2020-03-14: 1</title></circle>
	<circle cx="35.68" cy="363.92" data-y="1.25" data-x="1584230400" r="1" fill="white"><title>2020-03-15: 1</title></circle>
	<circle cx="37.46" cy="362.17" data-y="1.45" data-x="1584316800" r="1" fill="white"><title>2020-03-16: 1</title></circle>
	<circle cx="39.24" cy="361.01" data-y="1.58" data-x="1584403200" r="1" fill="white"><title>2020-03-17: 2</title></circle>
	<circle cx="41.02" cy="362.17" data-y="1.45" data-x="1584489600" r="1" fill="white"><title>2020-03-18: 1</title></circle>
	<circle cx="42.80" cy="359.26" data-y="1.78" data-x="1584576000" r="1" fill="white"><title>2020-03-19: 2</title></circle>
	<circle cx="44.58" cy="356.92" data-y="2.04" data-x="1584662400" r="1" fill="white"><title>2020-03-20: 2</title></circle>
	<circle cx="46.36" cy="355.18" data-y="2.24" data-x="1584748800" r="1" fill="white"><title>2020-03-21: 2</title></circle>
	<circle cx="48.14" cy="348.76" data-y="2.96" data-x="1584835200" r="1" fill="white"><title>2020-03-22: 3</title></circle>
	<circle cx="49.92" cy="348.18" data-y="3.03" data-x="1584921600" r="1" fill="white"><title>2020-03-23: 3</title></circle>
	<circle cx="51.70" cy="348.18" data-y="3.03" data-x="1585008000" r="1" fill="white"><title>2020-03-24: 3</title></circle>
	<circle cx="53.48" cy="345.85" data-y="3.29" data-x="1585094400" r="1" fill="white"><title>2020-03-25: 3</title></circle>
	<circle cx="55.26" cy="349.35" data-y="2.90" data-x="1585180800" r="1" fill="white"><title>2020-03-26: 3</title></circle>
	<circle cx="57.04" cy="352.26" data-y="2.57" data-x="1585267200" r="1" fill="white"><title>2020-03-27: 3</title></circle>
	<circle cx="58.82" cy="355.18" data-y="2.24" data-x="1585353600" r="1" fill="white"><title>2020-03-28: 2</title></circle>
	<circle cx="60.60" cy="359.84" data-y="1.71" data-x="1585440000" r="1" fill="white"><title>2020-03-29: 2</title></circle>
	<circle cx="62.38" cy="359.84" data-y="1.71" data-x="1585526400" r="1" fill="white"><title>2020-03-30: 2</title></circle>
	<circle cx="64.16" cy="355.76" data-y="2.17" data-x="1585612800" r="1" fill="white"><title>2020-03-31: 2</title></circle>
	<circle cx="65.94" cy="355.18" data-y="2.24" data-x="1585699200" r="1" fill="white"><title>2020-04-01: 2</title></circle>
	<circle cx="67.72" cy="350.51" data-y="2.77" data-x="1585785600" r="1" fill="white"><title>2020-04-02: 3</title></circle>
	<circle cx="69.50" cy="347.01" data-y="3.16" data-x="1585872000" r="1" fill="white"><title>2020-04-03: 3</title></circle>
	<circle cx="71.28" cy="342.93" data-y="3.62" data-x="1585958400" r="1" fill="white"><title>2020-04-04: 4</title></circle>
	<circle cx="73.06" cy="339.43" data-y="4.02" data-x="1586044800" r="1" fill="white"><title>2020-04-05: 4</title></circle>
	<circle cx="74.84" cy="336.52" data-y="4.35" data-x="1586131200" r="1" fill="white"><title>2020-04-06: 4</title></circle>
	<circle cx="76.62" cy="337.10" data-y="4.28" data-x="1586217600" r="1" fill="white"><title>2020-04-07: 4</title></circle>
	<circle cx="78.40" cy="333.02" data-y="4.74" data-x="1586304000" r="1" fill="white"><title>2020-04-08: 5</title></circle>
	<circle cx="80.18" cy="334.77" data-y="4.54" data-x="1586390400" r="1" fill="white"><title>2020-04-09: 5</title></circle>
	<circle cx="81.96" cy="338.27" data-y="4.15" data-x="1586476800" r="1" fill="white"><title>2020-04-10: 4</title></circle>
	<circle cx="83.74" cy="336.52" data-y="4.35" data-x="1586563200" r="1" fill="white"><title>2020-04-11: 4</title></circle>
	<circle cx="85.52" cy="336.52" data-y="4.35" data-x="1586649600" r="1" fill="white"><title>2020-04-12: 4</title></circle>
	<circle cx="87.30" cy="338.85" data-y="4.08" data-x="1586736000" r="1" fill="white"><title>2020-04-13: 4</title></circle>
	<circle cx="89.08" cy="338.85" data-y="4.08" data-x="1586822400" r="1" fill="white"><title>2020-04-14: 4</title></circle>
	<circle cx="90.86" cy="343.51" data-y="3.56" data-x="1586908800" r="1" fill="white"><title>2020-04-15: 4</title></circle>
	<circle cx="92.64" cy="345.85" data-y="3.29" data-x="1586995200" r="1" fill="white"><title>2020-04-16: 3</title></circle>
	<circle cx="94.42" cy="347.60" data-y="3.10" data-x="1587081600" r="1" fill="white"><title>2020-04-17: 3</title></circle>
	<circle cx="96.20" cy="345.85" data-y="3.29" data-x="1587168000" r="1" fill="white"><title>2020-04-18: 3</title></circle>
	<circle cx="97.98" cy="337.10" data-y="4.28" data-x="1587254400" r="1" fill="white"><title>2020-04-19: 4</title></circle>
	<circle cx="99.76" cy="333.02" data-y="4.74" data-x="1587340800" r="1" fill="white"><title>2020-04-20: 5</title></circle>
	<circle cx="101.54" cy="331.27" data-y="4.94" data-x="1587427200" r="1" fill="white"><title>2020-04-21: 5</title></circle>
	<circle cx="103.32" cy="330.69" data-y="5.01" data-x="1587513600" r="1" fill="white"><title>2020-04-22: 5</title></circle>
	<circle cx="105.10" cy="323.11" data-y="5.86" data-x="1587600000" r="1" fill="white"><title>2020-04-23: 6</title></circle>
	<circle cx="106.88" cy="318.44" data-y="6.39" data-x="1587686400" r="1" fill="white"><title>2020-04-24: 6</title></circle>
	<circle cx="108.66" cy="320.19" data-y="6.19" data-x="1587772800" r="1" fill="white"><title>2020-04-25: 6</title></circle>
	<circle cx="110.44" cy="329.52" data-y="5.14" data-x="1587859200" r="1" fill="white"><title>2020-04-26: 5</title></circle>
	<circle cx="112.22" cy="331.85" data-y="4.87" data-x="1587945600" r="1" fill="white"><title>2020-04-27: 5</title></circle>
	<circle cx="114.00" cy="331.27" data-y="4.94" data-x="1588032000" r="1" fill="white"><title>2020-04-28: 5</title></circle>
	<circle cx="115.78" cy="330.10" data-y="5.07" data-x="1588118400" r="1" fill="white"><title>2020-04-29: 5</title></circle>
	<circle cx="117.56" cy="338.27" data-y="4.15" data-x="1588204800" r="1" fill="white"><title>2020-04-30: 4</title></circle>
	<circle cx="119.34" cy="340.02" data-y="3.95" data-x="1588291200" r="1" fill="white"><title>2020-05-01: 4</title></circle>
	<circle cx="121.12" cy="341.18" data-y="3.82" data-x="1588377600" r="1" fill="white"><title>2020-05-02: 4</title></circle>
	<circle cx="122.90" cy="339.43" data-y="4.02" data-x="1588464000" r="1" fill="white"><title>2020-05-03: 4</title></circle>
	<circle cx="124.68" cy="340.60" data-y="3.89" data-x="1588550400" r="1" fill="white"><title>2020-05-04: 4</title></circle>
	<circle cx="126.46" cy="345.26" data-y="3.36" data-x="1588636800" r="1" fill="white"><title>2020-05-05: 3</title></circle>
	<circle cx="128.24" cy="349.93" data-y="2.83" data-x="1588723200" r="1" fill="white"><title>2020-05-06: 3</title></circle>
	<circle cx="130.02" cy="349.35" data-y="2.90" data-x="1588809600" r="1" fill="white"><title>2020-05-07: 3</title></circle>
	<circle cx="131.80" cy="352.26" data-y="2.57" data-x="1588896000" r="1" fill="white"><title>2020-05-08: 3</title></circle>
	<circle cx="133.58" cy="357.51" data-y="1.98" data-x="1588982400" r="1" fill="white"><title>2020-05-09: 2</title></circle>
	<circle cx="135.36" cy="361.59" data-y="1.51" data-x="1589068800" r="1" fill="white"><title>2020-05-10: 2</title></circle>
	<circle cx="137.14" cy="365.09" data-y="1.12" data-x="1589155200" r="1" fill="white"><title>2020-05-11: 1</title></circle>
	<circle cx="138.92" cy="366.84" data-y="0.92" data-x="1589241600" r="1" fill="white"><title>2020-05-12: 1</title></circle>
	<circle cx="140.70" cy="365.67" data-y="1.05" data-x="1589328000" r="1" fill="white"><title>2020-05-13: 1</title></circle>
	<circle cx="142.48" cy="365.67" data-y="1.05" data-x="1589414400" r="1" fill="white"><title>2020-05-14: 1</title></circle>
	<circle cx="144.26" cy="363.34" data-y="1.32" data-x="1589500800" r="1" fill="white"><title>2020-05-15: 1</title></circle>
	<circle cx="146.04" cy="361.59" data-y="1.51" data-x="1589587200" r="1" fill="white"><title>2020-05-16: 2</title></circle>
	<circle cx="147.82" cy="364.50" data-y="1.19" data-x="1589673600" r="1" fill="white"><title>2020-05-17: 1</title></circle>
	<circle cx="149.60" cy="365.09" data-y="1.12" data-x="1589760000" r="1" fill="white"><title>2020-05-18: 1</title></circle>
	<circle cx="151.38" cy="365.09" data-y="1.12" data-x="1589846400" r="1" fill="white"><title>2020-05-19: 1</title></circle>
	<circle cx="153.16" cy="365.67" data-y="1.05" data-x="1589932800" r="1" fill="white"><title>2020-05-20: 1</title></circle>
	<circle cx="154.94" cy="367.42" data-y="0.86" data-x="1590019200" r="1" fill="white"><title>2020-05-21: 1</title></circle>
	<circle cx="156.72" cy="369.75" data-y="0.59" data-x="1590105600" r="1" fill="white"><title>2020-05-22: 1</title></circle>
	<circle cx="158.50" cy="369.75" data-y="0.59" data-x="1590192000" r="1" fill="white"><title>2020-05-23: 1</title></circle>
	<circle cx="160.28" cy="369.75" data-y="0.59" data-x="1590278400" r="1" fill="white"><title>2020-05-24: 1</title></circle>
	<circle cx="162.06" cy="367.42" data-y="0.86" data-x="1590364800" r="1" fill="white"><title>2020-05-25: 1</title></circle>
	<circle cx="163.84" cy="368.00" data-y="0.79" data-x="1590451200" r="1" fill="white"><title>2020-05-26: 1</title></circle>
	<circle cx="165.62" cy="368.00" data-y="0.79" data-x="1590537600" r="1" fill="white"><title>2020-05-27: 1</title></circle>
	<circle cx="167.40" cy="368.00" data-y="0.79" data-x="1590624000" r="1" fill="white"><title>2020-05-28: 1</title></circle>
	<circle cx="169.18" cy="368.59" data-y="0.72" data-x="1590710400" r="1" fill="white"><title>2020-05-29: 1</title></circle>
	<circle cx="170.96" cy="369.75" data-y="0.59" data-x="1590796800" r="1" fill="white"><title>2020-05-30: 1</title></circle>
	<circle cx="172.74" cy="370.92" data-y="0.46" data-x="1590883200" r="1" fill="white"><title>2020-05-31: 0</title></circle>
	<circle cx="174.52" cy="373.25" data-y="0.20" data-x="1590969600" r="1" fill="white"><title>2020-06-01: 0</title></circle>
	<circle cx="176.30" cy="372.67" data-y="0.26" data-x="1591056000" r="1" fill="white"><title>2020-06-02: 0</title></circle>
	<circle cx="178.08" cy="372.08" data-y="0.33" data-x="1591142400" r="1" fill="white"><title>2020-06-03: 0</title></circle>
	<circle cx="179.86" cy="371.50" data-y="0.40" data-x="1591228800" r="1" fill="white"><title>2020-06-04: 0</title></circle>
	<circle cx="181.64" cy="369.75" data-y="0.59" data-x="1591315200" r="1" fill="white"><title>2020-06-05: 1</title></circle>
	<circle cx="183.42" cy="369.75" data-y="0.59" data-x="1591401600" r="1" fill="white"><title>2020-06-06: 1</title></circle>
	<circle cx="185.20" cy="369.17" data-y="0.66" data-x="1591488000" r="1" fill="white"><title>2020-06-07: 1</title></circle>
	<circle cx="186.98" cy="369.17" data-y="0.66" data-x="1591574400" r="1" fill="white"><title>2020-06-08: 1</title></circle>
	<circle cx="188.76" cy="370.34" data-y="0.53" data-x="1591660800" r="1" fill="white"><title>2020-06-09: 1</title></circle>
	<circle cx="190.54" cy="371.50" data-y="0.40" data-x="1591747200" r="1" fill="white"><title>2020-06-10: 0</title></circle>
	<circle cx="192.32" cy="372.08" data-y="0.33" data-x="1591833600" r="1" fill="white"><title>2020-06-11: 0</title></circle>
	<circle cx="194.10" cy="373.83" data-y="0.13" data-x="1591920000" r="1" fill="white"><title>2020-06-12: 0</title></circle>
	<circle cx="195.88" cy="374.42" data-y="0.07" data-x="1592006400" r="1" fill="white"><title>2020-06-13: 0</title></circle>
	<circle cx="197.66" cy="375.00" data-y="0.00" data-x="1592092800" r="1" fill="white"><title>2020-06-14: 0</title></circle>
	<circle cx="199.44" cy="375.00" data-y="0.00" data-x="1592179200" r="1" fill="white"><title>2020-06-15: 0</title></circle>
	<circle cx="201.22" cy="374.42" data-y="0.07" data-x="1592265600" r="1" fill="white"><title>2020-06-16: 0</title></circle>
	<circle cx="203.00" cy="373.83" data-y="0.13" data-x="1592352000" r="1" fill="white"><title>2020-06-17: 0</title></circle>
	<circle cx="204.78" cy="373.83" data-y="0.13" data-x="1592438400" r="1" fill="white"><title>2020-06-18: 0</title></circle>
	<circle cx="206.56" cy="373.83" data-y="0.13" data-x="1592524800" r="1" fill="white"><title>2020-06-19: 0</title></circle>
	<circle cx="208.34" cy="373.83" data-y="0.13" data-x="1592611200" r="1" fill="white"><title>2020-06-20: 0</title></circle>
	<circle cx="210.12" cy="373.83" data-y="0.13" data-x="1592697600" r="1" fill="white"><title>2020-06-21: 0</title></circle>
	<circle cx="211.90" cy="373.83" data-y="0.13" data-x="1592784000" r="1" fill="white"><title>2020-06-22: 0</title></circle>
	<circle cx="213.68" cy="374.42" data-y="0.07" data-x="1592870400" r="1" fill="white"><title>2020-06-23: 0</title></circle>
	<circle cx="215.46" cy="375.00" data-y="0.00" data-x="1592956800" r="1" fill="white"><title>2020-06-24: 0</title></circle>
	<circle cx="217.24" cy="375.00" data-y="0.00" data-x="1593043200" r="1" fill="white"><title>2020-06-25: 0</title></circle>
	<circle cx="219.02" cy="373.83" data-y="0.13" data-x="1593129600" r="1" fill="white"><title>2020-06-26: 0</title></circle>
	<circle cx="220.80" cy="373.83" data-y="0.13" data-x="1593216000" r="1" fill="white"><title>2020-06-27: 0</title></circle>
	<circle cx="222.58" cy="373.25" data-y="0.20" data-x="1593302400" r="1" fill="white"><title>2020-06-28: 0</title></circle>
	<circle cx="224.36" cy="373.25" data-y="0.20" data-x="1593388800" r="1" fill="white"><title>2020-06-29: 0</title></circle>
	<circle cx="226.14" cy="373.25" data-y="0.20" data-x="1593475200" r="1" fill="white"><title>2020-06-30: 0</title></circle>
	<circle cx="227.92" cy="373.25" data-y="0.20" data-x="1593561600" r="1" fill="white"><title>2020-07-01: 0</title></circle>
	<circle cx="229.70" cy="372.67" data-y="0.26" data-x="1593648000" r="1" fill="white"><title>2020-07-02: 0</title></circle>
	<circle cx="231.48" cy="373.25" data-y="0.20" data-x="1593734400" r="1" fill="white"><title>2020-07-03: 0</title></circle>
	<circle cx="233.26" cy="372.67" data-y="0.26" data-x="1593820800" r="1" fill="white"><title>2020-07-04: 0</title></circle>
	<circle cx="235.04" cy="370.92" data-y="0.46" data-x="1593907200" r="1" fill="white"><title>2020-07-05: 0</title></circle>
	<circle cx="236.82" cy="370.92" data-y="0.46" data-x="1593993600" r="1" fill="white"><title>2020-07-06: 0</title></circle>
	<circle cx="238.60" cy="370.92" data-y="0.46" data-x="1594080000" r="1" fill="white"><title>2020-07-07: 0</title></circle>
	<circle cx="240.38" cy="370.92" data-y="0.46" data-x="1594166400" r="1" fill="white"><title>2020-07-08: 0</title></circle>
	<circle cx="242.16" cy="371.50" data-y="0.40" data-x="1594252800" r="1" fill="white"><title>2020-07-09: 0</title></circle>
	<circle cx="243.94" cy="371.50" data-y="0.40" data-x="1594339200" r="1" fill="white"><title>2020-07-10: 0</title></circle>
	<circle cx="245.72" cy="371.50" data-y="0.40" data-x="1594425600" r="1" fill="white"><title>2020-07-11: 0</title></circle>
	<circle cx="247.50" cy="373.83" data-y="0.13" data-x="1594512000" r="1" fill="white"><title>2020-07-12: 0</title></circle>
	<circle cx="249.28" cy="373.25" data-y="0.20" data-x="1594598400" r="1" fill="white"><title>2020-07-13: 0</title></circle>
	<circle cx="251.06" cy="373.25" data-y="0.20" data-x="1594684800" r="1" fill="white"><title>2020-07-14: 0</title></circle>
	<circle cx="252.84" cy="372.67" data-y="0.26" data-x="1594771200" r="1" fill="white"><title>2020-07-15: 0</title></circle>
	<circle cx="254.62" cy="372.67" data-y="0.26" data-x="1594857600" r="1" fill="white"><title>2020-07-16: 0</title></circle>
	<circle cx="256.40" cy="372.67" data-y="0.26" data-x="1594944000" r="1" fill="white"><title>2020-07-17: 0</title></circle>
	<circle cx="258.18" cy="372.67" data-y="0.26" data-x="1595030400" r="1" fill="white"><title>2020-07-18: 0</title></circle>
	<circle cx="259.96" cy="372.08" data-y="0.33" data-x="1595116800" r="1" fill="white"><title>2020-07-19: 0</title></circle>
	<circle cx="261.74" cy="372.08" data-y="0.33" data-x="1595203200" r="1" fill="white"><title>2020-07-20: 0</title></circle>
	<circle cx="263.52" cy="372.08" data-y="0.33" data-x="1595289600" r="1" fill="white"><title>2020-07-21: 0</title></circle>
	<circle cx="265.30" cy="372.67" data-y="0.26" data-x="1595376000" r="1" fill="white"><title>2020-07-22: 0</title></circle>
	<circle cx="267.08" cy="372.67" data-y="0.26" data-x="1595462400" r="1" fill="white"><title>2020-07-23: 0</title></circle>
	<circle cx="268.86" cy="373.25" data-y="0.20" data-x="1595548800" r="1" fill="white"><title>2020-07-24: 0</title></circle>
	<circle cx="270.64" cy="373.83" data-y="0.13" data-x="1595635200" r="1" fill="white"><title>2020-07-25: 0</title></circle>
	<circle cx="272.42" cy="372.67" data-y="0.26" data-x="1595721600" r="1" fill="white"><title>2020-07-26: 0</title></circle>
	<circle cx="274.20" cy="372.67" data-y="0.26" data-x="1595808000" r="1" fill="white"><title>2020-07-27: 0</title></circle>
	<circle cx="275.98" cy="372.67" data-y="0.26" data-x="1595894400" r="1" fill="white"><title>2020-07-28: 0</title></circle>
	<circle cx="277.76" cy="372.67" data-y="0.26" data-x="1595980800" r="1" fill="white"><title>2020-07-29: 0</title></circle>
	<circle cx="279.54" cy="372.08" data-y="0.33" data-x="1596067200" r="1" fill="white"><title>2020-07-30: 0</title></circle>
	<circle cx="281.32" cy="372.08" data-y="0.33" data-x="1596153600" r="1" fill="white"><title>2020-07-31: 0</title></circle>
	<circle cx="283.10" cy="371.50" data-y="0.40" data-x="1596240000" r="1" fill="white"><title>2020-08-01: 0</title></circle>
	<circle cx="284.88" cy="371.50" data-y="0.40" data-x="1596326400" r="1" fill="white"><title>2020-08-02: 0</title></circle>
	<circle cx="286.66" cy="370.92" data-y="0.46" data-x="1596412800" r="1" fill="white"><title>2020-08-03: 0</title></circle>
	<circle cx="288.44" cy="370.92" data-y="0.46" data-x="1596499200" r="1" fill="white"><title>2020-08-04: 0</title></circle>
	<circle cx="290.22" cy="370.92" data-y="0.46" data-x="1596585600" r="1" fill="white"><title>2020-08-05: 0</title></circle>
	<circle cx="292.00" cy="371.50" data-y="0.40" data-x="1596672000" r="1" fill="white"><title>2020-08-06: 0</title></circle>
	<circle cx="293.78" cy="371.50" data-y="0.40" data-x="1596758400" r="1" fill="white"><title>2020-08-07: 0</title></circle>
	<circle cx="295.56" cy="371.50" data-y="0.40" data-x="1596844800" r="1" fill="white"><title>2020-08-08: 0</title></circle>
	<circle cx="297.34" cy="370.34" data-y="0.53" data-x="1596931200" r="1" fill="white"><title>2020-08-09: 1</title></circle>
	<circle cx="299.12" cy="371.50" data-y="0.40" data-x="1597017600" r="1" fill="white"><title>2020-08-10: 0</title></circle>
	<circle cx="300.90" cy="371.50" data-y="0.40" data-x="1597104000" r="1" fill="white"><title>2020-08-11: 0</title></circle>
	<circle cx="302.68" cy="371.50" data-y="0.40" data-x="1597190400" r="1" fill="white"><title>2020-08-12: 0</title></circle>
	<circle cx="304.46" cy="371.50" data-y="0.40" data-x="1597276800" r="1" fill="white"><title>2020-08-13: 0</title></circle>
	<circle cx="306.24" cy="370.92" data-y="0.46" data-x="1597363200" r="1" fill="white"><title>2020-08-14: 0</title></circle>
	<circle cx="308.02" cy="370.34" data-y="0.53" data-x="1597449600" r="1" fill="white"><title>2020-08-15: 1</title></circle>
	<circle cx="309.80" cy="371.50" data-y="0.40" data-x="1597536000" r="1" fill="white"><title>2020-08-16: 0</title></circle>
	<circle cx="311.58" cy="369.75" data-y="0.59" data-x="1597622400" r="1" fill="white"><title>2020-08-17: 1</title></circle>
	<circle cx="313.36" cy="369.17" data-y="0.66" data-x="1597708800" r="1" fill="white"><title>2020-08-18: 1</title></circle>
	<circle cx="315.14" cy="369.17" data-y="0.66" data-x="1597795200" r="1" fill="white"><title>2020-08-19: 1</title></circle>
	<circle cx="316.92" cy="368.59" data-y="0.72" data-x="1597881600" r="1" fill="white"><title>2020-08-20: 1</title></circle>
	<circle cx="318.70" cy="366.84" data-y="0.92" data-x="1597968000" r="1" fill="white"><title>2020-08-21: 1</title></circle>
	<circle cx="320.48" cy="367.42" data-y="0.86" data-x="1598054400" r="1" fill="white"><title>2020-08-22: 1</title></circle>
	<circle cx="322.26" cy="369.17" data-y="0.66" data-x="1598140800" r="1" fill="white"><title>2020-08-23: 1</title></circle>
	<circle cx="324.04" cy="366.84" data-y="0.92" data-x="1598227200" r="1" fill="white"><title>2020-08-24: 1</title></circle>
	<circle cx="325.82" cy="365.67" data-y="1.05" data-x="1598313600" r="1" fill="white"><title>2020-08-25: 1</title></circle>
	<circle cx="327.60" cy="364.50" data-y="1.19" data-x="1598400000" r="1" fill="white"><title>2020-08-26: 1</title></circle>
	<circle cx="329.38" cy="365.09" data-y="1.12" data-x="1598486400" r="1" fill="white"><title>2020-08-27: 1</title></circle>
	<circle cx="331.16" cy="365.67" data-y="1.05" data-x="1598572800" r="1" fill="white"><title>2020-08-28: 1</title></circle>
	<circle cx="332.94" cy="364.50" data-y="1.19" data-x="1598659200" r="1" fill="white"><title>2020-08-29: 1</title></circle>
	<circle cx="334.72" cy="362.76" data-y="1.38" data-x="1598745600" r="1" fill="white"><title>2020-08-30: 1</title></circle>
	<circle cx="336.50" cy="364.50" data-y="1.19" data-x="1598832000" r="1" fill="white"><title>2020-08-31: 1</title></circle>
	<circle cx="338.28" cy="365.67" data-y="1.05" data-x="1598918400" r="1" fill="white"><title>2020-09-01: 1</title></circle>
	<circle cx="340.06" cy="365.09" data-y="1.12" data-x="1599004800" r="1" fill="white"><title>2020-09-02: 1</title></circle>
	<circle cx="341.84" cy="361.59" data-y="1.51" data-x="1599091200" r="1" fill="white"><title>2020-09-03: 2</title></circle>
	<circle cx="343.62" cy="360.42" data-y="1.65" data-x="1599177600" r="1" fill="white"><title>2020-09-04: 2</title></circle>
	<circle cx="345.40" cy="356.92" data-y="2.04" data-x="1599264000" r="1" fill="white"><title>2020-09-05: 2</title></circle>
	<circle cx="347.18" cy="355.76" data-y="2.17" data-x="1599350400" r="1" fill="white"><title>2020-09-06: 2</title></circle>
	<circle cx="348.96" cy="356.34" data-y="2.11" data-x="1599436800" r="1" fill="white"><title>2020-09-07: 2</title></circle>
	<circle cx="350.74" cy="356.92" data-y="2.04" data-x="1599523200" r="1" fill="white"><title>2020-09-08: 2</title></circle>
	<circle cx="352.52" cy="357.51" data-y="1.98" data-x="1599609600" r="1" fill="white"><title>2020-09-09: 2</title></circle>
	<circle cx="354.30" cy="359.84" data-y="1.71" data-x="1599696000" r="1" fill="white"><title>2020-09-10: 2</title></circle>
	<circle cx="356.08" cy="361.01" data-y="1.58" data-x="1599782400" r="1" fill="white"><title>2020-09-11: 2</title></circle>
	<circle cx="357.86" cy="363.92" data-y="1.25" data-x="1599868800" r="1" fill="white"><title>2020-09-12: 1</title></circle>
	<circle cx="359.64" cy="365.67" data-y="1.05" data-x="1599955200" r="1" fill="white"><title>2020-09-13: 1</title></circle>
	<circle cx="361.42" cy="363.34" data-y="1.32" data-x="1600041600" r="1" fill="white"><title>2020-09-14: 1</title></circle>
	<circle cx="363.20" cy="360.42" data-y="1.65" data-x="1600128000" r="1" fill="white"><title>2020-09-15: 2</title></circle>
	<circle cx="364.98" cy="356.34" data-y="2.11" data-x="1600214400" r="1" fill="white"><title>2020-09-16: 2</title></circle>
	<circle cx="366.76" cy="353.43" data-y="2.44" data-x="1600300800" r="1" fill="white"><title>2020-09-17: 2</title></circle>
	<circle cx="368.54" cy="353.43" data-y="2.44" data-x="1600387200" r="1" fill="white"><title>2020-09-18: 2</title></circle>
	<circle cx="370.32" cy="349.93" data-y="2.83" data-x="1600473600" r="1" fill="white"><title>2020-09-19: 3</title></circle>
	<circle cx="372.10" cy="341.77" data-y="3.75" data-x="1600560000" r="1" fill="white"><title>2020-09-20: 4</title></circle>
	<circle cx="373.88" cy="339.43" data-y="4.02" data-x="1600646400" r="1" fill="white"><title>2020-09-21: 4</title></circle>
	<circle cx="375.66" cy="331.85" data-y="4.87" data-x="1600732800" r="1" fill="white"><title>2020-09-22: 5</title></circle>
	<circle cx="377.44" cy="334.19" data-y="4.61" data-x="1600819200" r="1" fill="white"><title>2020-09-23: 5</title></circle>
	<circle cx="379.22" cy="334.77" data-y="4.54" data-x="1600905600" r="1" fill="white"><title>2020-09-24: 5</title></circle>
	<circle cx="381.00" cy="331.85" data-y="4.87" data-x="1600992000" r="1" fill="white"><title>2020-09-25: 5</title></circle>
	<circle cx="382.78" cy="329.52" data-y="5.14" data-x="1601078400" r="1" fill="white"><title>2020-09-26: 5</title></circle>
	<circle cx="384.56" cy="334.77" data-y="4.54" data-x="1601164800" r="1" fill="white"><title>2020-09-27: 5</title></circle>
	<circle cx="386.34" cy="328.35" data-y="5.27" data-x="1601251200" r="1" fill="white"><title>2020-09-28: 5</title></circle>
	<circle cx="388.12" cy="329.52" data-y="5.14" data-x="1601337600" r="1" fill="white"><title>2020-09-29: 5</title></circle>
	<circle cx="389.90" cy="320.77" data-y="6.12" data-x="1601424000" r="1" fill="white"><title>2020-09-30: 6</title></circle>
	<circle cx="391.68" cy="310.86" data-y="7.24" data-x="1601510400" r="1" fill="white"><title>2020-10-01: 7</title></circle>
	<circle cx="393.46" cy="305.03" data-y="7.90" data-x="1601596800" r="1" fill="white"><title>2020-10-02: 8</title></circle>
	<circle cx="395.24" cy="300.95" data-y="8.36" data-x="1601683200" r="1" fill="white"><title>2020-10-03: 8</title></circle>
	<circle cx="397.02" cy="288.71" data-y="9.75" data-x="1601769600" r="1" fill="white"><title>2020-10-04: 10</title></circle>
	<circle cx="398.80" cy="277.04" data-y="11.06" data-x="1601856000" r="1" fill="white"><title>2020-10-05: 11</title></circle>
	<circle cx="400.58" cy="263.63" data-y="12.58" data-x="1601942400" r="1" fill="white"><title>2020-10-06: 13</title></circle>
	<circle cx="402.36" cy="253.72" data-y="13.70" data-x="1602028800" r="1" fill="white"><title>2020-10-07: 14</title></circle>
	<circle cx="404.14" cy="244.39" data-y="14.75" data-x="1602115200" r="1" fill="white"><title>2020-10-08: 15</title></circle>
	<circle cx="405.92" cy="235.65" data-y="15.74" data-x="1602201600" r="1" fill="white"><title>2020-10-09: 16</title></circle>
	<circle cx="407.70" cy="221.07" data-y="17.39" data-x="1602288000" r="1" fill="white"><title>2020-10-10: 17</title></circle>
	<circle cx="409.48" cy="208.24" data-y="18.84" data-x="1602374400" r="1" fill="white"><title>2020-10-11: 19</title></circle>
	<circle cx="411.26" cy="201.25" data-y="19.63" data-x="1602460800" r="1" fill="white"><title>2020-10-12: 20</title></circle>
	<circle cx="413.04" cy="187.84" data-y="21.14" data-x="1602547200" r="1" fill="white"><title>2020-10-13: 21</title></circle>
	<circle cx="414.82" cy="189.00" data-y="21.01" data-x="1602633600" r="1" fill="white"><title>2020-10-14: 21</title></circle>
	<circle cx="416.60" cy="194.25" data-y="20.42" data-x="1602720000" r="1" fill="white"><title>2020-10-15: 20</title></circle>
	<circle cx="418.38" cy="178.51" data-y="22.19" data-x="1602806400" r="1" fill="white"><title>2020-10-16: 22</title></circle>
	<circle cx="420.16" cy="166.85" data-y="23.51" data-x="1602892800" r="1" fill="white"><title>2020-10-17: 24</title></circle>
	<circle cx="421.94" cy="155.77" data-y="24.76" data-x="1602979200" r="1" fill="white"><title>2020-10-18: 25</title></circle>
	<circle cx="423.72" cy="148.77" data-y="25.55" data-x="1603065600" r="1" fill="white"><title>2020-10-19: 26</title></circle>
	<circle cx="425.50" cy="154.60" data-y="24.90" data-x="1603152000" r="1" fill="white"><title>2020-10-20: 25</title></circle>
	<circle cx="427.28" cy="154.60" data-y="24.90" data-x="1603238400" r="1" fill="white"><title>2020-10-21: 25</title></circle>
	<circle cx="429.06" cy="147.02" data-y="25.75" data-x="1603324800" r="1" fill="white"><title>2020-10-22: 26</title></circle>
	<circle cx="430.84" cy="131.28" data-y="27.53" data-x="1603411200" r="1" fill="white"><title>2020-10-23: 28</title></circle>
	<circle cx="432.62" cy="122.53" data-y="28.52" data-x="1603497600" r="1" fill="white"><title>2020-10-24: 29</title></circle>
	<circle cx="434.40" cy="116.70" data-y="29.18" data-x="1603584000" r="1" fill="white"><title>2020-10-25: 29</title></circle>
	<circle cx="436.18" cy="121.95" data-y="28.58" data-x="1603670400" r="1" fill="white"><title>2020-10-26: 29</title></circle>
	<circle cx="437.96" cy="116.70" data-y="29.18" data-x="1603756800" r="1" fill="white"><title>2020-10-27: 29</title></circle>
	<circle cx="439.74" cy="115.54" data-y="29.31" data-x="1603843200" r="1" fill="white"><title>2020-10-28: 29</title></circle>
	<circle cx="441.52" cy="126.61" data-y="28.06" data-x="1603929600" r="1" fill="white"><title>2020-10-29: 28</title></circle>
	<circle cx="443.30" cy="107.96" data-y="30.16" data-x="1604016000" r="1" fill="white"><title>2020-10-30: 30</title></circle>
	<circle cx="445.08" cy="107.96" data-y="30.16" data-x="1604102400" r="1" fill="white"><title>2020-10-31: 30</title></circle>
	<circle cx="446.86" cy="115.54" data-y="29.31" data-x="1604188800" r="1" fill="white"><title>2020-11-01: 29</title></circle>
	<circle cx="448.64" cy="101.54" data-y="30.89" data-x="1604275200" r="1" fill="white"><title>2020-11-02: 31</title></circle>
	<circle cx="450.42" cy="99.79" data-y="31.09" data-x="1604361600" r="1" fill="white"><title>2020-11-03: 31</title></circle>
	<circle cx="452.20" cy="84.05" data-y="32.86" data-x="1604448000" r="1" fill="white"><title>2020-11-04: 33</title></circle>
	<circle cx="453.98" cy="52.56" data-y="36.42" data-x="1604534400" r="1" fill="white"><title>2020-11-05: 36</title></circle>
	<circle cx="455.76" cy="54.31" data-y="36.22" data-x="1604620800" r="1" fill="white"><title>2020-11-06: 36</title></circle>
	<circle cx="457.54" cy="42.65" data-y="37.54" data-x="1604707200" r="1" fill="white"><title>2020-11-07: 38</title></circle>
	<circle cx="459.32" cy="28.08" data-y="39.19" data-x="1604793600" r="1" fill="white"><title>2020-11-08: 39</title></circle>
	<circle cx="461.10" cy="21.66" data-y="39.91" data-x="1604880000" r="1" fill="white"><title>2020-11-09: 40</title></circle>
</g>
<g data-series="recent-cases" class="data-series">
	<path d="M 461.10,21.66L 462.88,10.00L 464.66,46.73L 466.44,45.08L 468.22,73.79L 470.00,101.54" id="Recent cases" class="line" stroke-width="1" stroke-linecap="round" stroke-dasharray="4,6" stroke-dashoffset="4"><title>Recent cases</title></path>
	<circle cx="461.10" cy="21.66" data-y="39.91" data-x="1604880000" r="2.5" fill="white"><title>2020-11-09: 40</title></circle>
	<circle cx="462.88" cy="10.00" data-y="41.23" data-x="1604966400" r="2.5" fill="white"><title>2020-11-10: 41</title></circle>
	<circle cx="464.66" cy="46.73" data-y="37.08" data-x="1605052800" r="2.5" fill="white"><title>2020-11-11: 37</title></circle>
	<circle cx="466.44" cy="45.08" data-y="37.27" data-x="1605139200" r="2.5" fill="white"><title>2020-11-12: 37</title></circle>
	<circle cx="468.22" cy="73.79" data-y="34.02" data-x="1605225600" r="2.5" fill="white"><title>2020-11-13: 34</title></circle>
	<circle cx="470.00" cy="101.54" data-y="30.89" data-x="1605312000" r="2.5" fill="white"><title>2020-11-14: 31</title></circle>
</g>
</svg>
