<svg width="480" height="400" viewBox="0 0 480 400" xmlns="http://www.w3.org/2000/svg" style="overflow:display" preserveAspectRatio="xMinYMin meet" overflow="visible">
<defs>
	<style>
	.data-series path.line { fill-opacity: 0; stroke: black; }
	.data-series path.line.dotted { stroke-dasharray: 12 20 }
	.data-series:hover path.line, .data-series.on path.line { stroke-width: 1; }
	.data-series:hover circle, .data-series.on circle { display: inline; }
	.graph-grid { font-family: "Helvetica Neue",Helvetica,Arial,"Lucida Grande",sans-serif; }
	.graph-grid line { stroke: black; stroke-width: 1; stroke-linecap: round; }
	.graph-grid.graph-grid-x text { text-anchor: middle; dominant-baseline: hanging; transform: translateY(10px); }
	.graph-grid.graph-grid-y text { text-anchor: end; dominant-baseline: middle; transform: translateX(-10px); }
	</style>
</defs>
<g class="graph-grid graph-grid-y">
	<line x1="25.00" y1="375.00" x2="470.00" y2="375.00" data-left="25"></line>
	<text x="35" y="375" text-anchor="end">0</text>
	<text x="35" y="226.333409045226" text-anchor="end">20</text>
	<text x="35" y="77.6668180904523" text-anchor="end">40</text>
	<text style="text-anchor:middle;dominant-baseline:hanging;font-weight:bold;transform: translateY(192.5px) rotate(-90deg);"></text>
</g>
<g class="graph-grid graph-grid-x">
	<line class="tick" x1="64.12" y1="375.00" x2="64.12" y2="380.00"></line>
	<text x="64.1208791208791" y="375" text-anchor="middle">A</text>
	<line class="tick" x1="113.02" y1="375.00" x2="113.02" y2="380.00"></line>
	<text x="113.021978021978" y="375" text-anchor="middle">M</text>
	<line class="tick" x1="163.55" y1="375.00" x2="163.55" y2="380.00"></line>
	<text x="163.553113553114" y="375" text-anchor="middle">J</text>
	<line class="tick" x1="212.45" y1="375.00" x2="212.45" y2="380.00"></line>
	<text x="212.454212454212" y="375" text-anchor="middle">J</text>
	<line class="tick" x1="262.99" y1="375.00" x2="262.99" y2="380.00"></line>
	<text x="262.985347985348" y="375" text-anchor="middle">A</text>
	<line class="tick" x1="313.52" y1="375.00" x2="313.52" y2="380.00"></line>
	<text x="313.516483516484" y="375" text-anchor="middle">S</text>
	<line class="tick" x1="362.42" y1="375.00" x2="362.42" y2="380.00"></line>
	<text x="362.417582417582" y="375" text-anchor="middle">O</text>
	<line class="tick" x1="412.95" y1="375.00" x2="412.95" y2="380.00"></line>
	<text x="412.948717948718" y="375" text-anchor="middle">N</text>
	<line class="tick" x1="461.85" y1="375.00" x2="461.85" y2="380.00"></line>
	<text x="461.849816849817" y="375" text-anchor="middle">D</text>
	<text style="text-anchor:middle;dominant-baseline:hanging;font-weight:bold;transform: translateY(192.5px) rotate(-90deg);"></text>
</g>
<g data-series="widespread" class="data-series">
	<path d="M 25.00,322.97L 470.00,322.97" id="E06000025-level-0" class="line" stroke-width="1" stroke-linecap="round" stroke-dasharray="3,3" fill-opacity="0.3" opacity="0.3"><title>Widespread</title></path>
</g>
<g data-series="substantial" class="data-series">
	<path d="M 25.00,345.27L 470.00,345.27" id="E06000025-level-1" class="line" stroke-width="1" stroke-linecap="round" stroke-dasharray="3,3" fill-opacity="0.3" opacity="0.3"><title>Substantial</title></path>
</g>
<g data-series="moderate" class="data-series">
	<path d="M 25.00,367.57L 470.00,367.57" id="E06000025-level-2" class="line" stroke-width="1" stroke-linecap="round" stroke-dasharray="3,3" fill-opacity="0.3" opacity="0.3"><title>Moderate</title></path>
</g>
<g data-series="new-cases" class="data-series">
	<path d="M 25.00,371.15L 26.63,370.38L 28.26,369.86L 29.89,370.60L 31.52,370.60L 33.15,371.33L 34.78,370.96L 36.41,371.33L 38.04,372.07L 39.67,373.17L 41.30,372.07L 42.93,371.33L 44.56,368.40L 46.19,366.93L 47.82,362.89L 49.45,361.79L 51.08,359.59L 52.71,357.76L 54.34,355.56L 55.97,352.99L 57.60,351.16L 59.23,353.72L 60.86,351.89L 62.49,350.06L 64.12,349.69L 65.75,349.32L 67.38,351.16L 69.01,351.52L 70.64,343.45L 72.27,341.98L 73.90,343.82L 75.53,344.92L 77.16,347.12L 78.79,350.06L 80.42,350.42L 82.05,353.72L 83.68,356.29L 85.31,355.92L 86.94,354.82L 88.57,352.26L 90.20,346.75L 91.83,342.72L 93.46,341.25L 95.09,336.85L 96.72,330.61L 98.35,326.58L 99.98,327.68L 101.61,325.48L 103.24,326.94L 104.87,323.28L 106.50,324.01L 108.13,329.15L 109.76,333.55L 111.39,329.88L 113.02,336.48L 114.65,340.52L 116.28,349.69L 117.91,352.26L 119.54,351.89L 121.17,352.62L 122.80,356.66L 124.43,355.19L 126.06,351.89L 127.69,351.89L 129.32,352.99L 130.95,353.72L 132.58,351.89L 134.21,352.99L 135.84,348.59L 137.47,350.06L 139.10,351.52L 140.73,350.42L 142.36,353.36L 143.99,357.03L 145.62,357.76L 147.25,365.10L 148.88,367.66L 150.51,367.66L 152.14,370.60L 153.77,370.23L 155.40,369.86L 157.03,369.86L 158.66,369.50L 160.29,368.40L 161.92,367.66L 163.55,366.56L 165.18,366.56L 166.81,367.30L 168.44,368.03L 170.07,368.40L 171.70,369.50L 173.33,371.70L 174.96,372.80L 176.59,372.07L 178.22,372.07L 179.85,372.07L 181.48,372.43L 183.11,373.17L 184.74,373.17L 186.37,373.17L 188.00,374.63L 189.63,374.63L 191.26,374.63L 192.89,374.27L 194.52,374.27L 196.15,374.27L 197.78,374.63L 199.41,374.27L 201.04,374.27L 202.67,374.27L 204.30,374.63L 205.93,374.27L 207.56,373.53L 209.19,373.53L 210.82,373.90L 212.45,373.53L 214.08,372.80L 215.71,372.80L 217.34,373.17L 218.97,373.53L 220.60,373.53L 222.23,373.53L 223.86,373.90L 225.49,374.63L 227.12,373.90L 228.75,373.53L 230.38,373.53L 232.01,373.53L 233.64,372.80L 235.27,372.80L 236.90,372.80L 238.53,373.17L 240.16,372.43L 241.79,372.80L 243.42,372.80L 245.05,373.17L 246.68,372.80L 248.32,372.43L 249.95,372.80L 251.58,372.43L 253.21,372.43L 254.84,371.70L 256.47,372.07L 258.10,372.07L 259.73,372.07L 261.36,370.96L 262.99,372.07L 264.62,370.96L 266.25,371.70L 267.88,370.96L 269.51,369.86L 271.14,370.23L 272.77,370.96L 274.40,371.33L 276.03,372.07L 277.66,371.33L 279.29,371.33L 280.92,372.43L 282.55,372.43L 284.18,372.07L 285.81,370.60L 287.44,369.86L 289.07,366.93L 290.70,365.83L 292.33,363.99L 293.96,363.63L 295.59,362.53L 297.22,362.16L 298.85,362.53L 300.48,364.73L 302.11,363.99L 303.74,365.10L 305.37,365.46L 307.00,365.83L 308.63,364.73L 310.26,363.99L 311.89,363.63L 313.52,362.16L 315.15,360.69L 316.78,359.23L 318.41,357.76L 320.04,359.96L 321.67,360.33L 323.30,360.33L 324.93,359.96L 326.56,360.69L 328.19,359.59L 329.82,359.23L 331.45,357.03L 333.08,355.92L 334.71,355.56L 336.34,358.13L 337.97,358.49L 339.60,358.13L 341.23,359.59L 342.86,361.06L 344.49,358.49L 346.12,356.66L 347.75,353.36L 349.38,351.52L 351.01,351.89L 352.64,343.82L 354.27,337.95L 355.90,335.38L 357.53,331.35L 359.16,329.15L 360.79,327.68L 362.42,319.24L 364.05,319.24L 365.68,318.51L 367.31,313.01L 368.94,306.40L 370.57,300.53L 372.20,295.03L 373.83,295.40L 375.46,288.43L 377.09,277.42L 378.72,273.39L 380.35,270.82L 381.98,262.75L 383.61,258.35L 385.24,251.01L 386.87,236.34L 388.50,215.43L 390.13,190.48L 391.76,166.27L 393.39,144.99L 395.02,138.76L 396.65,126.29L 398.28,105.74L 399.91,92.54L 401.54,90.70L 403.17,81.90L 404.80,80.80L 406.43,75.30L 408.06,77.50L 409.69,66.49L 411.32,71.26L 412.95,60.99L 414.58,56.59L 416.21,44.48L 417.84,29.81L 419.47,14.40L 421.10,15.14L 422.73,10.00L 424.36,12.20L 425.99,15.14L 427.62,13.30L 429.25,12.57L 430.88,17.34L 432.51,24.67L 434.14,40.45L 435.77,55.85L 437.40,79.33L 439.03,116.38L 440.66,134.36L 442.29,154.53L 443.92,175.08L 445.55,193.78L 447.18,198.19L 448.81,202.95L 450.44,204.42L 452.07,216.53L 453.70,214.69L 455.33,223.86L 456.96,216.53L 458.59,231.93L 460.22,234.87L 461.85,237.80" id="New cases" class="line" stroke-width="1" stroke-linecap="round"><title>New cases</title></path>
	<circle cx="25.00" cy="371.15" data-y="0.52" data-x="1583625600" r="1" fill="white"><title>2020-03-08: 1</title></circle>
	<circle cx="26.63" cy="370.38" data-y="0.62" data-x="1583712000" r="1" fill="white"><title>2020-03-09: 1</title></circle>
	<circle cx="28.26" cy="369.86" data-y="0.69" data-x="1583798400" r="1" fill="white"><title>2020-03-10: 1</title></circle>
	<circle cx="29.89" cy="370.60" data-y="0.59" data-x="1583884800" r="1" fill="white"><title>2020-03-11: 1</title></circle>
	<circle cx="31.52" cy="370.60" data-y="0.59" data-x="1583971200" r="1" fill="white"><title>2020-03-12: 1</title></circle>
	<circle cx="33.15" cy="371.33" data-y="0.49" data-x="1584057600" r="1" fill="white"><title>2020-03-13: 0</title></circle>
	<circle cx="34.78" cy="370.96" data-y="0.54" data-x="1584144000" r="1" fill="white"><title>2020-03-14: 1</title></circle>
	<circle cx="36.41" cy="371.33" data-y="0.49" data-x="1584230400" r="1" fill="white"><title>2020-03-15: 0</title></circle>
	<circle cx="38.04" cy="372.07" data-y="0.39" data-x="1584316800" r="1" fill="white"><title>2020-03-16: 0</title></circle>
	<circle cx="39.67" cy="373.17" data-y="0.25" data-x="1584403200" r="1" fill="white"><title>2020-03-17: 0</title></circle>
	<circle cx="41.30" cy="372.07" data-y="0.39" data-x="1584489600" r="1" fill="white"><title>2020-03-18: 0</title></circle>
	<circle cx="42.93" cy="371.33" data-y="0.49" data-x="1584576000" r="1" fill="white"><title>2020-03-19: 0</title></circle>
	<circle cx="44.56" cy="368.40" data-y="0.89" data-x="1584662400" r="1" fill="white"><title>2020-03-20: 1</title></circle>
	<circle cx="46.19" cy="366.93" data-y="1.09" data-x="1584748800" r="1" fill="white"><title>2020-03-21: 1</title></circle>
	<circle cx="47.82" cy="362.89" data-y="1.63" data-x="1584835200" r="1" fill="white"><title>2020-03-22: 2</title></circle>
	<circle cx="49.45" cy="361.79" data-y="1.78" data-x="1584921600" r="1" fill="white"><title>2020-03-23: 2</title></circle>
	<circle cx="51.08" cy="359.59" data-y="2.07" data-x="1585008000" r="1" fill="white"><title>2020-03-24: 2</title></circle>
	<circle cx="52.71" cy="357.76" data-y="2.32" data-x="1585094400" r="1" fill="white"><title>2020-03-25: 2</title></circle>
	<circle cx="54.34" cy="355.56" data-y="2.62" data-x="1585180800" r="1" fill="white"><title>2020-03-26: 3</title></circle>
	<circle cx="55.97" cy="352.99" data-y="2.96" data-x="1585267200" r="1" fill="white"><title>2020-03-27: 3</title></circle>
	<circle cx="57.60" cy="351.16" data-y="3.21" data-x="1585353600" r="1" fill="white"><title>2020-03-28: 3</title></circle>
	<circle cx="59.23" cy="353.72" data-y="2.86" data-x="1585440000" r="1" fill="white"><title>2020-03-29: 3</title></circle>
	<circle cx="60.86" cy="351.89" data-y="3.11" data-x="1585526400" r="1" fill="white"><title>2020-03-30: 3</title></circle>
	<circle cx="62.49" cy="350.06" data-y="3.36" data-x="1585612800" r="1" fill="white"><title>2020-03-31: 3</title></circle>
	<circle cx="64.12" cy="349.69" data-y="3.41" data-x="1585699200" r="1" fill="white"><title>2020-04-01: 3</title></circle>
	<circle cx="65.75" cy="349.32" data-y="3.45" data-x="1585785600" r="1" fill="white"><title>2020-04-02: 3</title></circle>
	<circle cx="67.38" cy="351.16" data-y="3.21" data-x="1585872000" r="1" fill="white"><title>2020-04-03: 3</title></circle>
	<circle cx="69.01" cy="351.52" data-y="3.16" data-x="1585958400" r="1" fill="white"><title>2020-04-04: 3</title></circle>
	<circle cx="70.64" cy="343.45" data-y="4.24" data-x="1586044800" r="1" fill="white"><title>2020-04-05: 4</title></circle>
	<circle cx="72.27" cy="341.98" data-y="4.44" data-x="1586131200" r="1" fill="white"><title>2020-04-06: 4</title></circle>
	<circle cx="73.90" cy="343.82" data-y="4.19" data-x="1586217600" r="1" fill="white"><title>2020-04-07: 4</title></circle>
	<circle cx="75.53" cy="344.92" data-y="4.05" data-x="1586304000" r="1" fill="white"><title>2020-04-08: 4</title></circle>
	<circle cx="77.16" cy="347.12" data-y="3.75" data-x="1586390400" r="1" fill="white"><title>2020-04-09: 4</title></circle>
	<circle cx="78.79" cy="350.06" data-y="3.36" data-x="1586476800" r="1" fill="white"><title>2020-04-10: 3</title></circle>
	<circle cx="80.42" cy="350.42" data-y="3.31" data-x="1586563200" r="1" fill="white"><title>2020-04-11: 3</title></circle>
	<circle cx="82.05" cy="353.72" data-y="2.86" data-x="1586649600" r="1" fill="white"><title>2020-04-12: 3</title></circle>
	<circle cx="83.68" cy="356.29" data-y="2.52" data-x="1586736000" r="1" fill="white"><title>2020-04-13: 3</title></circle>
	<circle cx="85.31" cy="355.92" data-y="2.57" data-x="1586822400" r="1" fill="white"><title>2020-04-14: 3</title></circle>
	<circle cx="86.94" cy="354.82" data-y="2.71" data-x="1586908800" r="1" fill="white"><title>2020-04-15: 3</title></circle>
	<circle cx="88.57" cy="352.26" data-y="3.06" data-x="1586995200" r="1" fill="white"><title>2020-04-16: 3</title></circle>
	<circle cx="90.20" cy="346.75" data-y="3.80" data-x="1587081600" r="1" fill="white"><title>2020-04-17: 4</title></circle>
	<circle cx="91.83" cy="342.72" data-y="4.34" data-x="1587168000" r="1" fill="white"><title>2020-04-18: 4</title></circle>
	<circle cx="93.46" cy="341.25" data-y="4.54" data-x="1587254400" r="1" fill="white"><title>2020-04-19: 5</title></circle>
	<circle cx="95.09" cy="336.85" data-y="5.13" data-x="1587340800" r="1" fill="white"><title>2020-04-20: 5</title></circle>
	<circle cx="96.72" cy="330.61" data-y="5.97" data-x="1587427200" r="1" fill="white"><title>2020-04-21: 6</title></circle>
	<circle cx="98.35" cy="326.58" data-y="6.51" data-x="1587513600" r="1" fill="white"><title>2020-04-22: 7</title></circle>
	<circle cx="99.98" cy="327.68" data-y="6.37" data-x="1587600000" r="1" fill="white"><title>2020-04-23: 6</title></circle>
	<circle cx="101.61" cy="325.48" data-y="6.66" data-x="1587686400" r="1" fill="white"><title>2020-04-24: 7</title></circle>
	<circle cx="103.24" cy="326.94" data-y="6.46" data-x="1587772800" r="1" fill="white"><title>2020-04-25: 6</title></circle>
	<circle cx="104.87" cy="323.28" data-y="6.96" data-x="1587859200" r="1" fill="white"><title>2020-04-26: 7</title></circle>
	<circle cx="106.50" cy="324.01" data-y="6.86" data-x="1587945600" r="1" fill="white"><title>2020-04-27: 7</title></circle>
	<circle cx="108.13" cy="329.15" data-y="6.17" data-x="1588032000" r="1" fill="white"><title>2020-04-28: 6</title></circle>
	<circle cx="109.76" cy="333.55" data-y="5.58" data-x="1588118400" r="1" fill="white"><title>2020-04-29: 6</title></circle>
	<circle cx="111.39" cy="329.88" data-y="6.07" data-x="1588204800" r="1" fill="white"><title>2020-04-30: 6</title></circle>
	<circle cx="113.02" cy="336.48" data-y="5.18" data-x="1588291200" r="1" fill="white"><title>2020-05-01: 5</title></circle>
	<circle cx="114.65" cy="340.52" data-y="4.64" data-x="1588377600" r="1" fill="white"><title>2020-05-02: 5</title></circle>
	<circle cx="116.28" cy="349.69" data-y="3.41" data-x="1588464000" r="1" fill="white"><title>2020-05-03: 3</title></circle>
	<circle cx="117.91" cy="352.26" data-y="3.06" data-x="1588550400" r="1" fill="white"><title>2020-05-04: 3</title></circle>
	<circle cx="119.54" cy="351.89" data-y="3.11" data-x="1588636800" r="1" fill="white"><title>2020-05-05: 3</title></circle>
	<circle cx="121.17" cy="352.62" data-y="3.01" data-x="1588723200" r="1" fill="white"><title>2020-05-06: 3</title></circle>
	<circle cx="122.80" cy="356.66" data-y="2.47" data-x="1588809600" r="1" fill="white"><title>2020-05-07: 2</title></circle>
	<circle cx="124.43" cy="355.19" data-y="2.66" data-x="1588896000" r="1" fill="white"><title>2020-05-08: 3</title></circle>
	<circle cx="126.06" cy="351.89" data-y="3.11" data-x="1588982400" r="1" fill="white"><title>2020-05-09: 3</title></circle>
	<circle cx="127.69" cy="351.89" data-y="3.11" data-x="1589068800" r="1" fill="white"><title>2020-05-10: 3</title></circle>
	<circle cx="129.32" cy="352.99" data-y="2.96" data-x="1589155200" r="1" fill="white"><title>2020-05-11: 3</title></circle>
	<circle cx="130.95" cy="353.72" data-y="2.86" data-x="1589241600" r="1" fill="white"><title>2020-05-12: 3</title></circle>
	<circle cx="132.58" cy="351.89" data-y="3.11" data-x="1589328000" r="1" fill="white"><title>2020-05-13: 3</title></circle>
	<circle cx="134.21" cy="352.99" data-y="2.96" data-x="1589414400" r="1" fill="white"><title>2020-05-14: 3</title></circle>
	<circle cx="135.84" cy="348.59" data-y="3.55" data-x="1589500800" r="1" fill="white"><title>2020-05-15: 4</title></circle>
	<circle cx="137.47" cy="350.06" data-y="3.36" data-x="1589587200" r="1" fill="white"><title>2020-05-16: 3</title></circle>
	<circle cx="139.10" cy="351.52" data-y="3.16" data-x="1589673600" r="1" fill="white"><title>2020-05-17: 3</title></circle>
	<circle cx="140.73" cy="350.42" data-y="3.31" data-x="1589760000" r="1" fill="white"><title>2020-05-18: 3</title></circle>
	<circle cx="142.36" cy="353.36" data-y="2.91" data-x="1589846400" r="1" fill="white"><title>2020-05-19: 3</title></circle>
	<circle cx="143.99" cy="357.03" data-y="2.42" data-x="1589932800" r="1" fill="white"><title>2020-05-20: 2</title></circle>
	<circle cx="145.62" cy="357.76" data-y="2.32" data-x="1590019200" r="1" fill="white"><title>2020-05-21: 2</title></circle>
	<circle cx="147.25" cy="365.10" data-y="1.33" data-x="1590105600" r="1" fill="white"><title>2020-05-22: 1</title></circle>
	<circle cx="148.88" cy="367.66" data-y="0.99" data-x="1590192000" r="1" fill="white"><title>2020-05-23: 1</title></circle>
	<circle cx="150.51" cy="367.66" data-y="0.99" data-x="1590278400" r="1" fill="white"><title>2020-05-24: 1</title></circle>
	<circle cx="152.14" cy="370.60" data-y="0.59" data-x="1590364800" r="1" fill="white"><title>2020-05-25: 1</title></circle>
	<circle cx="153.77" cy="370.23" data-y="0.64" data-x="1590451200" r="1" fill="white"><title>2020-05-26: 1</title></circle>
	<circle cx="155.40" cy="369.86" data-y="0.69" data-x="1590537600" r="1" fill="white"><title>2020-05-27: 1</title></circle>
	<circle cx="157.03" cy="369.86" data-y="0.69" data-x="1590624000" r="1" fill="white"><title>2020-05-28: 1</title></circle>
	<circle cx="158.66" cy="369.50" data-y="0.74" data-x="1590710400" r="1" fill="white"><title>2020-05-29: 1</title></circle>
	<circle cx="160.29" cy="368.40" data-y="0.89" data-x="1590796800" r="1" fill="white"><title>2020-05-30: 1</title></circle>
	<circle cx="161.92" cy="367.66" data-y="0.99" data-x="1590883200" r="1" fill="white"><title>2020-05-31: 1</title></circle>
	<circle cx="163.55" cy="366.56" data-y="1.14" data-x="1590969600" r="1" fill="white"><title>2020-06-01: 1</title></circle>
	<circle cx="165.18" cy="366.56" data-y="1.14" data-x="1591056000" r="1" fill="white"><title>2020-06-02: 1</title></circle>
	<circle cx="166.81" cy="367.30" data-y="1.04" data-x="1591142400" r="1" fill="white"><title>2020-06-03: 1</title></circle>
	<circle cx="168.44" cy="368.03" data-y="0.94" data-x="1591228800" r="1" fill="white"><title>2020-06-04: 1</title></circle>
	<circle cx="170.07" cy="368.40" data-y="0.89" data-x="1591315200" r="1" fill="white"><title>2020-06-05: 1</title></circle>
	<circle cx="171.70" cy="369.50" data-y="0.74" data-x="1591401600" r="1" fill="white"><title>2020-06-06: 1</title></circle>
	<circle cx="173.33" cy="371.70" data-y="0.44" data-x="1591488000" r="1" fill="white"><title>2020-06-07: 0</title></circle>
	<circle cx="174.96" cy="372.80" data-y="0.30" data-x="1591574400" r="1" fill="white"><title>2020-06-08: 0</title></circle>
	<circle cx="176.59" cy="372.07" data-y="0.39" data-x="1591660800" r="1" fill="white"><title>2020-06-09: 0</title></circle>
	<circle cx="178.22" cy="372.07" data-y="0.39" data-x="1591747200" r="1" fill="white"><title>2020-06-10: 0</title></circle>
	<circle cx="179.85" cy="372.07" data-y="0.39" data-x="1591833600" r="1" fill="white"><title>2020-06-11: 0</title></circle>
	<circle cx="181.48" cy="372.43" data-y="0.35" data-x="1591920000" r="1" fill="white"><title>2020-06-12: 0</title></circle>
	<circle cx="183.11" cy="373.17" data-y="0.25" data-x="1592006400" r="1" fill="white"><title>2020-06-13: 0</title></circle>
	<circle cx="184.74" cy="373.17" data-y="0.25" data-x="1592092800" r="1" fill="white"><title>2020-06-14: 0</title></circle>
	<circle cx="186.37" cy="373.17" data-y="0.25" data-x="1592179200" r="1" fill="white"><title>2020-06-15: 0</title></circle>
	<circle cx="188.00" cy="374.63" data-y="0.05" data-x="1592265600" r="1" fill="white"><title>2020-06-16: 0</title></circle>
	<circle cx="189.63" cy="374.63" data-y="0.05" data-x="1592352000" r="1" fill="white"><title>2020-06-17: 0</title></circle>
	<circle cx="191.26" cy="374.63" data-y="0.05" data-x="1592438400" r="1" fill="white"><title>2020-06-18: 0</title></circle>
	<circle cx="192.89" cy="374.27" data-y="0.10" data-x="1592524800" r="1" fill="white"><title>2020-06-19: 0</title></circle>
	<circle cx="194.52" cy="374.27" data-y="0.10" data-x="1592611200" r="1" fill="white"><title>2020-06-20: 0</title></circle>
	<circle cx="196.15" cy="374.27" data-y="0.10" data-x="1592697600" r="1" fill="white"><title>2020-06-21: 0</title></circle>
	<circle cx="197.78" cy="374.63" data-y="0.05" data-x="1592784000" r="1" fill="white"><title>2020-06-22: 0</title></circle>
	<circle cx="199.41" cy="374.27" data-y="0.10" data-x="1592870400" r="1" fill="white"><title>2020-06-23: 0</title></circle>
	<circle cx="201.04" cy="374.27" data-y="0.10" data-x="1592956800" r="1" fill="white"><title>2020-06-24: 0</title></circle>
	<circle cx="202.67" cy="374.27" data-y="0.10" data-x="1593043200" r="1" fill="white"><title>2020-06-25: 0</title></circle>
	<circle cx="204.30" cy="374.63" data-y="0.05" data-x="1593129600" r="1" fill="white"><title>2020-06-26: 0</title></circle>
	<circle cx="205.93" cy="374.27" data-y="0.10" data-x="1593216000" r="1" fill="white"><title>2020-06-27: 0</title></circle>
	<circle cx="207.56" cy="373.53" data-y="0.20" data-x="1593302400" r="1" fill="white"><title>2020-06-28: 0</title></circle>
	<circle cx="209.19" cy="373.53" data-y="0.20" data-x="1593388800" r="1" fill="white"><title>2020-06-29: 0</title></circle>
	<circle cx="210.82" cy="373.90" data-y="0.15" data-x="1593475200" r="1" fill="white"><title>2020-06-30: 0</title></circle>
	<circle cx="212.45" cy="373.53" data-y="0.20" data-x="1593561600" r="1" fill="white"><title>2020-07-01: 0</title></circle>
	<circle cx="214.08" cy="372.80" data-y="0.30" data-x="1593648000" r="1" fill="white"><title>2020-07-02: 0</title></circle>
	<circle cx="215.71" cy="372.80" data-y="0.30" data-x="1593734400" r="1" fill="white"><title>2020-07-03: 0</title></circle>
	<circle cx="217.34" cy="373.17" data-y="0.25" data-x="1593820800" r="1" fill="white"><title>2020-07-04: 0</title></circle>
	<circle cx="218.97" cy="373.53" data-y="0.20" data-x="1593907200" r="1" fill="white"><title>2020-07-05: 0</title></circle>
	<circle cx="220.60" cy="373.53" data-y="0.20" data-x="1593993600" r="1" fill="white"><title>2020-07-06: 0</title></circle>
	<circle cx="222.23" cy="373.53" data-y="0.20" data-x="1594080000" r="1" fill="white"><title>2020-07-07: 0</title></circle>
	<circle cx="223.86" cy="373.90" data-y="0.15" data-x="1594166400" r="1" fill="white"><title>2020-07-08: 0</title></circle>
	<circle cx="225.49" cy="374.63" data-y="0.05" data-x="1594252800" r="1" fill="white"><title>2020-07-09: 0</title></circle>
	<circle cx="227.12" cy="373.90" data-y="0.15" data-x="1594339200" r="1" fill="white"><title>2020-07-10: 0</title></circle>
	<circle cx="228.75" cy="373.53" data-y="0.20" data-x="1594425600" r="1" fill="white"><title>2020-07-11: 0</title></circle>
	<circle cx="230.38" cy="373.53" data-y="0.20" data-x="1594512000" r="1" fill="white"><title>2020-07-12: 0</title></circle>
	<circle cx="232.01" cy="373.53" data-y="0.20" data-x="1594598400" r="1" fill="white"><title>2020-07-13: 0</title></circle>
	<circle cx="233.64" cy="372.80" data-y="0.30" data-x="1594684800" r="1" fill="white"><title>2020-07-14: 0</title></circle>
	<circle cx="235.27" cy="372.80" data-y="0.30" data-x="1594771200" r="1" fill="white"><title>2020-07-15: 0</title></circle>
	<circle cx="236.90" cy="372.80" data-y="0.30" data-x="1594857600" r="1" fill="white"><title>2020-07-16: 0</title></circle>
	<circle cx="238.53" cy="373.17" data-y="0.25" data-x="1594944000" r="1" fill="white"><title>2020-07-17: 0</title></circle>
	<circle cx="240.16" cy="372.43" data-y="0.35" data-x="1595030400" r="1" fill="white"><title>2020-07-18: 0</title></circle>
	<circle cx="241.79" cy="372.80" data-y="0.30" data-x="1595116800" r="1" fill="white"><title>2020-07-19: 0</title></circle>
	<circle cx="243.42" cy="372.80" data-y="0.30" data-x="1595203200" r="1" fill="white"><title>2020-07-20: 0</title></circle>
	<circle cx="245.05" cy="373.17" data-y="0.25" data-x="1595289600" r="1" fill="white"><title>2020-07-21: 0</title></circle>
	<circle cx="246.68" cy="372.80" data-y="0.30" data-x="1595376000" r="1" fill="white"><title>2020-07-22: 0</title></circle>
	<circle cx="248.32" cy="372.43" data-y="0.35" data-x="1595462400" r="1" fill="white"><title>2020-07-23: 0</title></circle>
	<circle cx="249.95" cy="372.80" data-y="0.30" data-x="1595548800" r="1" fill="white"><title>2020-07-24: 0</title></circle>
	<circle cx="251.58" cy="372.43" data-y="0.35" data-x="1595635200" r="1" fill="white"><title>2020-07-25: 0</title></circle>
	<circle cx="253.21" cy="372.43" data-y="0.35" data-x="1595721600" r="1" fill="white"><title>2020-07-26: 0</title></circle>
	<circle cx="254.84" cy="371.70" data-y="0.44" data-x="1595808000" r="1" fill="white"><title>2020-07-27: 0</title></circle>
	<circle cx="256.47" cy="372.07" data-y="0.39" data-x="1595894400" r="1" fill="white"><title>2020-07-28: 0</title></circle>
	<circle cx="258.10" cy="372.07" data-y="0.39" data-x="1595980800" r="1" fill="white"><title>2020-07-29: 0</title></circle>
	<circle cx="259.73" cy="372.07" data-y="0.39" data-x="1596067200" r="1" fill="white"><title>2020-07-30: 0</title></circle>
	<circle cx="261.36" cy="370.96" data-y="0.54" data-x="1596153600" r="1" fill="white"><title>2020-07-31: 1</title></circle>
	<circle cx="262.99" cy="372.07" data-y="0.39" data-x="1596240000" r="1" fill="white"><title>2020-08-01: 0</title></circle>
	<circle cx="264.62" cy="370.96" data-y="0.54" data-x="1596326400" r="1" fill="white"><title>2020-08-02: 1</title></circle>
	<circle cx="266.25" cy="371.70" data-y="0.44" data-x="1596412800" r="1" fill="white"><title>2020-08-03: 0</title></circle>
	<circle cx="267.88" cy="370.96" data-y="0.54" data-x="1596499200" r="1" fill="white"><title>2020-08-04: 1</title></circle>
	<circle cx="269.51" cy="369.86" data-y="0.69" data-x="1596585600" r="1" fill="white"><title>2020-08-05: 1</title></circle>
	<circle cx="271.14" cy="370.23" data-y="0.64" data-x="1596672000" r="1" fill="white"><title>2020-08-06: 1</title></circle>
	<circle cx="272.77" cy="370.96" data-y="0.54" data-x="1596758400" r="1" fill="white"><title>2020-08-07: 1</title></circle>
	<circle cx="274.40" cy="371.33" data-y="0.49" data-x="1596844800" r="1" fill="white"><title>2020-08-08: 0</title></circle>
	<circle cx="276.03" cy="372.07" data-y="0.39" data-x="1596931200" r="1" fill="white"><title>2020-08-09: 0</title></circle>
	<circle cx="277.66" cy="371.33" data-y="0.49" data-x="1597017600" r="1" fill="white"><title>2020-08-10: 0</title></circle>
	<circle cx="279.29" cy="371.33" data-y="0.49" data-x="1597104000" r="1" fill="white"><title>2020-08-11: 0</title></circle>
	<circle cx="280.92" cy="372.43" data-y="0.35" data-x="1597190400" r="1" fill="white"><title>2020-08-12: 0</title></circle>
	<circle cx="282.55" cy="372.43" data-y="0.35" data-x="1597276800" r="1" fill="white"><title>2020-08-13: 0</title></circle>
	<circle cx="284.18" cy="372.07" data-y="0.39" data-x="1597363200" r="1" fill="white"><title>2020-08-14: 0</title></circle>
	<circle cx="285.81" cy="370.60" data-y="0.59" data-x="1597449600" r="1" fill="white"><title>2020-08-15: 1</title></circle>
	<circle cx="287.44" cy="369.86" data-y="0.69" data-x="1597536000" r="1" fill="white"><title>2020-08-16: 1</title></circle>
	<circle cx="289.07" cy="366.93" data-y="1.09" data-x="1597622400" r="1" fill="white"><title>2020-08-17: 1</title></circle>
	<circle cx="290.70" cy="365.83" data-y="1.23" data-x="1597708800" r="1" fill="white"><title>2020-08-18: 1</title></circle>
	<circle cx="292.33" cy="363.99" data-y="1.48" data-x="1597795200" r="1" fill="white"><title>2020-08-19: 1</title></circle>
	<circle cx="293.96" cy="363.63" data-y="1.53" data-x="1597881600" r="1" fill="white"><title>2020-08-20: 2</title></circle>
	<circle cx="295.59" cy="362.53" data-y="1.68" data-x="1597968000" r="1" fill="white"><title>2020-08-21: 2</title></circle>
	<circle cx="297.22" cy="362.16" data-y="1.73" data-x="1598054400" r="1" fill="white"><title>2020-08-22: 2</title></circle>
	<circle cx="298.85" cy="362.53" data-y="1.68" data-x="1598140800" r="1" fill="white"><title>2020-08-23: 2</title></circle>
	<circle cx="300.48" cy="364.73" data-y="1.38" data-x="1598227200" r="1" fill="white"><title>2020-08-24: 1</title></circle>
	<circle cx="302.11" cy="363.99" data-y="1.48" data-x="1598313600" r="1" fill="white"><title>2020-08-25: 1</title></circle>
	<circle cx="303.74" cy="365.10" data-y="1.33" data-x="1598400000" r="1" fill="white"><title>2020-08-26: 1</title></circle>
	<circle cx="305.37" cy="365.46" data-y="1.28" data-x="1598486400" r="1" fill="white"><title>2020-08-27: 1</title></circle>
	<circle cx="307.00" cy="365.83" data-y="1.23" data-x="1598572800" r="1" fill="white"><title>2020-08-28: 1</title></circle>
	<circle cx="308.63" cy="364.73" data-y="1.38" data-x="1598659200" r="1" fill="white"><title>2020-08-29: 1</title></circle>
	<circle cx="310.26" cy="363.99" data-y="1.48" data-x="1598745600" r="1" fill="white"><title>2020-08-30: 1</title></circle>
	<circle cx="311.89" cy="363.63" data-y="1.53" data-x="1598832000" r="1" fill="white"><title>2020-08-31: 2</title></circle>
	<circle cx="313.52" cy="362.16" data-y="1.73" data-x="1598918400" r="1" fill="white"><title>2020-09-01: 2</title></circle>
	<circle cx="315.15" cy="360.69" data-y="1.92" data-x="1599004800" r="1" fill="white"><title>2020-09-02: 2</title></circle>
	<circle cx="316.78" cy="359.23" data-y="2.12" data-x="1599091200" r="1" fill="white"><title>2020-09-03: 2</title></circle>
	<circle cx="318.41" cy="357.76" data-y="2.32" data-x="1599177600" r="1" fill="white"><title>2020-09-04: 2</title></circle>
	<circle cx="320.04" cy="359.96" data-y="2.02" data-x="1599264000" r="1" fill="white"><title>2020-09-05: 2</title></circle>
	<circle cx="321.67" cy="360.33" data-y="1.97" data-x="1599350400" r="1" fill="white"><title>2020-09-06: 2</title></circle>
	<circle cx="323.30" cy="360.33" data-y="1.97" data-x="1599436800" r="1" fill="white"><title>2020-09-07: 2</title></circle>
	<circle cx="324.93" cy="359.96" data-y="2.02" data-x="1599523200" r="1" fill="white"><title>2020-09-08: 2</title></circle>
	<circle cx="326.56" cy="360.69" data-y="1.92" data-x="1599609600" r="1" fill="white"><title>2020-09-09: 2</title></circle>
	<circle cx="328.19" cy="359.59" data-y="2.07" data-x="1599696000" r="1" fill="white"><title>2020-09-10: 2</title></circle>
	<circle cx="329.82" cy="359.23" data-y="2.12" data-x="1599782400" r="1" fill="white"><title>2020-09-11: 2</title></circle>
	<circle cx="331.45" cy="357.03" data-y="2.42" data-x="1599868800" r="1" fill="white"><title>2020-09-12: 2</title></circle>
	<circle cx="333.08" cy="355.92" data-y="2.57" data-x="1599955200" r="1" fill="white"><title>2020-09-13: 3</title></circle>
	<circle cx="334.71" cy="355.56" data-y="2.62" data-x="1600041600" r="1" fill="white"><title>2020-09-14: 3</title></circle>
	<circle cx="336.34" cy="358.13" data-y="2.27" data-x="1600128000" r="1" fill="white"><title>2020-09-15: 2</title></circle>
	<circle cx="337.97" cy="358.49" data-y="2.22" data-x="1600214400" r="1" fill="white"><title>2020-09-16: 2</title></circle>
	<circle cx="339.60" cy="358.13" data-y="2.27" data-x="1600300800" r="1" fill="white"><title>2020-09-17: 2</title></circle>
	<circle cx="341.23" cy="359.59" data-y="2.07" data-x="1600387200" r="1" fill="white"><title>2020-09-18: 2</title></circle>
	<circle cx="342.86" cy="361.06" data-y="1.88" data-x="1600473600" r="1" fill="white"><title>2020-09-19: 2</title></circle>
	<circle cx="344.49" cy="358.49" data-y="2.22" data-x="1600560000" r="1" fill="white"><title>2020-09-20: 2</title></circle>
	<circle cx="346.12" cy="356.66" data-y="2.47" data-x="1600646400" r="1" fill="white"><title>2020-09-21: 2</title></circle>
	<circle cx="347.75" cy="353.36" data-y="2.91" data-x="1600732800" r="1" fill="white"><title>2020-09-22: 3</title></circle>
	<circle cx="349.38" cy="351.52" data-y="3.16" data-x="1600819200" r="1" fill="white"><title>2020-09-23: 3</title></circle>
	<circle cx="351.01" cy="351.89" data-y="3.11" data-x="1600905600" r="1" fill="white"><title>2020-09-24: 3</title></circle>
	<circle cx="352.64" cy="343.82" data-y="4.19" data-x="1600992000" r="1" fill="white"><title>2020-09-25: 4</title></circle>
	<circle cx="354.27" cy="337.95" data-y="4.98" data-x="1601078400" r="1" fill="white"><title>2020-09-26: 5</title></circle>
	<circle cx="355.90" cy="335.38" data-y="5.33" data-x="1601164800" r="1" fill="white"><title>2020-09-27: 5</title></circle>
	<circle cx="357.53" cy="331.35" data-y="5.87" data-x="1601251200" r="1" fill="white"><title>2020-09-28: 6</title></circle>
	<circle cx="359.16" cy="329.15" data-y="6.17" data-x="1601337600" r="1" fill="white"><title>2020-09-29: 6</title></circle>
	<circle cx="360.79" cy="327.68" data-y="6.37" data-x="1601424000" r="1" fill="white"><title>2020-09-30: 6</title></circle>
	<circle cx="362.42" cy="319.24" data-y="7.50" data-x="1601510400" r="1" fill="white"><title>2020-10-01: 8</title></circle>
	<circle cx="364.05" cy="319.24" data-y="7.50" data-x="1601596800" r="1" fill="white"><title>2020-10-02: 8</title></circle>
	<circle cx="365.68" cy="318.51" data-y="7.60" data-x="1601683200" r="1" fill="white"><title>2020-10-03: 8</title></circle>
	<circle cx="367.31" cy="313.01" data-y="8.34" data-x="1601769600" r="1" fill="white"><title>2020-10-04: 8</title></circle>
	<circle cx="368.94" cy="306.40" data-y="9.23" data-x="1601856000" r="1" fill="white"><title>2020-10-05: 9</title></circle>
	<circle cx="370.57" cy="300.53" data-y="10.02" data-x="1601942400" r="1" fill="white"><title>2020-10-06: 10</title></circle>
	<circle cx="372.20" cy="295.03" data-y="10.76" data-x="1602028800" r="1" fill="white"><title>2020-10-07: 11</title></circle>
	<circle cx="373.83" cy="295.40" data-y="10.71" data-x="1602115200" r="1" fill="white"><title>2020-10-08: 11</title></circle>
	<circle cx="375.46" cy="288.43" data-y="11.65" data-x="1602201600" r="1" fill="white"><title>2020-10-09: 12</title></circle>
	<circle cx="377.09" cy="277.42" data-y="13.13" data-x="1602288000" r="1" fill="white"><title>2020-10-10: 13</title></circle>
	<circle cx="378.72" cy="273.39" data-y="13.67" data-x="1602374400" r="1" fill="white"><title>2020-10-11: 14</title></circle>
	<circle cx="380.35" cy="270.82" data-y="14.02" data-x="1602460800" r="1" fill="white"><title>2020-10-12: 14</title></circle>
	<circle cx="381.98" cy="262.75" data-y="15.10" data-x="1602547200" r="1" fill="white"><title>2020-10-13: 15</title></circle>
	<circle cx="383.61" cy="258.35" data-y="15.69" data-x="1602633600" r="1" fill="white"><title>2020-10-14: 16</title></circle>
	<circle cx="385.24" cy="251.01" data-y="16.68" data-x="1602720000" r="1" fill="white"><title>2020-10-15: 17</title></circle>
	<circle cx="386.87" cy="236.34" data-y="18.65" data-x="1602806400" r="1" fill="white"><title>2020-10-16: 19</title></circle>
	<circle cx="388.50" cy="215.43" data-y="21.47" data-x="1602892800" r="1" fill="white"><title>2020-10-17: 21</title></circle>
	<circle cx="390.13" cy="190.48" data-y="24.82" data-x="1602979200" r="1" fill="white"><title>2020-10-18: 25</title></circle>
	<circle cx="391.76" cy="166.27" data-y="28.08" data-x="1603065600" r="1" fill="white"><title>2020-10-19: 28</title></circle>
	<circle cx="393.39" cy="144.99" data-y="30.94" data-x="1603152000" r="1" fill="white"><title>2020-10-20: 31</title></circle>
	<circle cx="395.02" cy="138.76" data-y="31.78" data-x="1603238400" r="1" fill="white"><title>2020-10-21: 32</title></circle>
	<circle cx="396.65" cy="126.29" data-y="33.46" data-x="1603324800" r="1" fill="white"><title>2020-10-22: 33</title></circle>
	<circle cx="398.28" cy="105.74" data-y="36.22" data-x="1603411200" r="1" fill="white"><title>2020-10-23: 36</title></circle>
	<circle cx="399.91" cy="92.54" data-y="38.00" data-x="1603497600" r="1" fill="white"><title>2020-10-24: 38</title></circle>
	<circle cx="401.54" cy="90.70" data-y="38.25" data-x="1603584000" r="1" fill="white"><title>2020-10-25: 38</title></circle>
	<circle cx="403.17" cy="81.90" data-y="39.43" data-x="1603670400" r="1" fill="white"><title>2020-10-26: 39</title></circle>
	<circle cx="404.80" cy="80.80" data-y="39.58" data-x="1603756800" r="1" fill="white"><title>2020-10-27: 40</title></circle>
	<circle cx="406.43" cy="75.30" data-y="40.32" data-x="1603843200" r="1" fill="white"><title>2020-10-28: 40</title></circle>
	<circle cx="408.06" cy="77.50" data-y="40.02" data-x="1603929600" r="1" fill="white"><title>2020-10-29: 40</title></circle>
	<circle cx="409.69" cy="66.49" data-y="41.50" data-x="1604016000" r="1" fill="white"><title>2020-10-30: 42</title></circle>
	<circle cx="411.32" cy="71.26" data-y="40.86" data-x="1604102400" r="1" fill="white"><title>2020-10-31: 41</title></circle>
	<circle cx="412.95" cy="60.99" data-y="42.24" data-x="1604188800" r="1" fill="white"><title>2020-11-01: 42</title></circle>
	<circle cx="414.58" cy="56.59" data-y="42.84" data-x="1604275200" r="1" fill="white"><title>2020-11-02: 43</title></circle>
	<circle cx="416.21" cy="44.48" data-y="44.46" data-x="1604361600" r="1" fill="white"><title>2020-11-03: 44</title></circle>
	<circle cx="417.84" cy="29.81" data-y="46.44" data-x="1604448000" r="1" fill="white"><title>2020-11-04: 46</title></circle>
	<circle cx="419.47" cy="14.40" data-y="48.51" data-x="1604534400" r="1" fill="white"><title>2020-11-05: 49</title></circle>
	<circle cx="421.10" cy="15.14" data-y="48.41" data-x="1604620800" r="1" fill="white"><title>2020-11-06: 48</title></circle>
	<circle cx="422.73" cy="10.00" data-y="49.10" data-x="1604707200" r="1" fill="white"><title>2020-11-07: 49</title></circle>
	<circle cx="424.36" cy="12.20" data-y="48.81" data-x="1604793600" r="1" fill="white"><title>2020-11-08: 49</title></circle>
	<circle cx="425.99" cy="15.14" data-y="48.41" data-x="1604880000" r="1" fill="white"><title>2020-11-09: 48</title></circle>
	<circle cx="427.62" cy="13.30" data-y="48.66" data-x="1604966400" r="1" fill="white"><title>2020-11-10: 49</title></circle>
	<circle cx="429.25" cy="12.57" data-y="48.76" data-x="1605052800" r="1" fill="white"><title>2020-11-11: 49</title></circle>
	<circle cx="430.88" cy="17.34" data-y="48.12" data-x="1605139200" r="1" fill="white"><title>2020-11-12: 48</title></circle>
	<circle cx="432.51" cy="24.67" data-y="47.13" data-x="1605225600" r="1" fill="white"><title>2020-11-13: 47</title></circle>
	<circle cx="434.14" cy="40.45" data-y="45.01" data-x="1605312000" r="1" fill="white"><title>2020-11-14: 45</title></circle>
	<circle cx="435.77" cy="55.85" data-y="42.93" data-x="1605398400" r="1" fill="white"><title>2020-11-15: 43</title></circle>
	<circle cx="437.40" cy="79.33" data-y="39.78" data-x="1605484800" r="1" fill="white"><title>2020-11-16: 40</title></circle>
	<circle cx="439.03" cy="116.38" data-y="34.79" data-x="1605571200" r="1" fill="white"><title>2020-11-17: 35</title></circle>
	<circle cx="440.66" cy="134.36" data-y="32.37" data-x="1605657600" r="1" fill="white"><title>2020-11-18: 32</title></circle>
	<circle cx="442.29" cy="154.53" data-y="29.66" data-x="1605744000" r="1" fill="white"><title>2020-11-19: 30</title></circle>
	<circle cx="443.92" cy="175.08" data-y="26.90" data-x="1605830400" r="1" fill="white"><title>2020-11-20: 27</title></circle>
	<circle cx="445.55" cy="193.78" data-y="24.38" data-x="1605916800" r="1" fill="white"><title>2020-11-21: 24</title></circle>
	<circle cx="447.18" cy="198.19" data-y="23.79" data-x="1606003200" r="1" fill="white"><title>2020-11-22: 24</title></circle>
	<circle cx="448.81" cy="202.95" data-y="23.15" data-x="1606089600" r="1" fill="white"><title>2020-11-23: 23</title></circle>
	<circle cx="450.44" cy="204.42" data-y="22.95" data-x="1606176000" r="1" fill="white"><title>2020-11-24: 23</title></circle>
	<circle cx="452.07" cy="216.53" data-y="21.32" data-x="1606262400" r="1" fill="white"><title>2020-11-25: 21</title></circle>
	<circle cx="453.70" cy="214.69" data-y="21.57" data-x="1606348800" r="1" fill="white"><title>2020-11-26: 22</title></circle>
	<circle cx="455.33" cy="223.86" data-y="20.33" data-x="1606435200" r="1" fill="white"><title>2020-11-27: 20</title></circle>
	<circle cx="456.96" cy="216.53" data-y="21.32" data-x="1606521600" r="1" fill="white"><title>2020-11-28: 21</title></circle>
	<circle cx="458.59" cy="231.93" data-y="19.25" data-x="1606608000" r="1" fill="white"><title>2020-11-29: 19</title></circle>
	<circle cx="460.22" cy="234.87" data-y="18.85" data-x="1606694400" r="1" fill="white"><title>2020-11-30: 19</title></circle>
	<circle cx="461.85" cy="237.80" data-y="18.46" data-x="1606780800" r="1" fill="white"><title>2020-12-01: 18</title></circle>
</g>
<g data-series="recent-cases" class="data-series">
	<path d="M 461.85,237.80L 463.48,234.87L 465.11,254.31L 466.74,263.73L 468.37,278.45L 470.00,283.20" id="Recent cases" class="line" stroke-width="1" stroke-linecap="round" stroke-dasharray="4,6" stroke-dashoffset="4"><title>Recent cases</title></path>
	<circle cx="461.85" cy="237.80" data-y="18.46" data-x="1606780800" r="2.5" fill="white"><title>2020-12-01: 18</title></circle>
	<circle cx="463.48" cy="234.87" data-y="18.85" data-x="1606867200" r="2.5" fill="white"><title>2020-12-02: 19</title></circle>
	<circle cx="465.11" cy="254.31" data-y="16.24" data-x="1606953600" r="2.5" fill="white"><title>2020-12-03: 16</title></circle>
	<circle cx="466.74" cy="263.73" data-y="14.97" data-x="1607040000" r="2.5" fill="white"><title>2020-12-04: 15</title></circle>
	<circle cx="468.37" cy="278.45" data-y="12.99" data-x="1607126400" r="2.5" fill="white"><title>2020-12-05: 13</title></circle>
	<circle cx="470.00" cy="283.20" data-y="12.35" data-x="1607212800" r="2.5" fill="white"><title>2020-12-06: 12</title></circle>
</g>
</svg>
