<svg width="480" height="400" viewBox="0 0 480 400" xmlns="http://www.w3.org/2000/svg" style="overflow:display" preserveAspectRatio="xMinYMin meet" overflow="visible">
<defs>
	<style>
	.data-series path.line { fill-opacity: 0; stroke: black; }
	.data-series path.line.dotted { stroke-dasharray: 12 20 }
	.data-series:hover path.line, .data-series.on path.line { stroke-width: 1; }
	.data-series:hover circle, .data-series.on circle { display: inline; }
	.graph-grid { font-family: "Helvetica Neue",Helvetica,Arial,"Lucida Grande",sans-serif; }
	.graph-grid line { stroke: black; stroke-width: 1; stroke-linecap: round; }
	.graph-grid.graph-grid-x text { text-anchor: middle; dominant-baseline: hanging; transform: translateY(10px); }
	.graph-grid.graph-grid-y text { text-anchor: end; dominant-baseline: middle; transform: translateX(-10px); }
	</style>
</defs>
<g class="graph-grid graph-grid-y">
	<line x1="25.00" y1="375.00" x2="470.00" y2="375.00" data-left="25"></line>
	<text x="35" y="375" text-anchor="end">0</text>
	<text x="35" y="273.934995774648" text-anchor="end">20</text>
	<text x="35" y="172.869991549296" text-anchor="end">40</text>
	<text x="35" y="71.8049873239437" text-anchor="end">60</text>
	<text style="text-anchor:middle;dominant-baseline:hanging;font-weight:bold;transform: translateY(192.5px) rotate(-90deg);"></text>
</g>
<g class="graph-grid graph-grid-x">
	<line class="tick" x1="56.17" y1="375.00" x2="56.17" y2="380.00"></line>
	<text x="56.1673151750973" y="375" text-anchor="middle">A</text>
	<line class="tick" x1="108.11" y1="375.00" x2="108.11" y2="380.00"></line>
	<text x="108.112840466926" y="375" text-anchor="middle">M</text>
	<line class="tick" x1="161.79" y1="375.00" x2="161.79" y2="380.00"></line>
	<text x="161.789883268482" y="375" text-anchor="middle">J</text>
	<line class="tick" x1="213.74" y1="375.00" x2="213.74" y2="380.00"></line>
	<text x="213.735408560311" y="375" text-anchor="middle">J</text>
	<line class="tick" x1="267.41" y1="375.00" x2="267.41" y2="380.00"></line>
	<text x="267.412451361868" y="375" text-anchor="middle">A</text>
	<line class="tick" x1="321.09" y1="375.00" x2="321.09" y2="380.00"></line>
	<text x="321.089494163424" y="375" text-anchor="middle">S</text>
	<line class="tick" x1="373.04" y1="375.00" x2="373.04" y2="380.00"></line>
	<text x="373.035019455253" y="375" text-anchor="middle">O</text>
	<line class="tick" x1="426.71" y1="375.00" x2="426.71" y2="380.00"></line>
	<text x="426.712062256809" y="375" text-anchor="middle">N</text>
	<text style="text-anchor:middle;dominant-baseline:hanging;font-weight:bold;transform: translateY(192.5px) rotate(-90deg);"></text>
</g>
<g data-series="widespread" class="data-series">
	<path d="M 25.00,339.63L 470.00,339.63" id="E06000002-level-0" class="line" stroke-width="1" stroke-linecap="round" stroke-dasharray="3,3" fill-opacity="0.3" opacity="0.3"><title>Widespread</title></path>
</g>
<g data-series="substantial" class="data-series">
	<path d="M 25.00,354.79L 470.00,354.79" id="E06000002-level-1" class="line" stroke-width="1" stroke-linecap="round" stroke-dasharray="3,3" fill-opacity="0.3" opacity="0.3"><title>Substantial</title></path>
</g>
<g data-series="moderate" class="data-series">
	<path d="M 25.00,369.95L 470.00,369.95" id="E06000002-level-2" class="line" stroke-width="1" stroke-linecap="round" stroke-dasharray="3,3" fill-opacity="0.3" opacity="0.3"><title>Moderate</title></path>
</g>
<g data-series="new-cases" class="data-series">
	<path d="M 25.00,374.10L 26.73,373.56L 28.46,373.80L 30.19,372.94L 31.93,372.94L 33.66,371.92L 35.39,371.40L 37.12,370.37L 38.85,367.29L 40.58,363.69L 42.32,361.12L 44.05,356.49L 45.78,350.32L 47.51,342.10L 49.24,335.42L 50.97,327.19L 52.70,324.62L 54.44,314.85L 56.17,309.20L 57.90,305.60L 59.63,305.60L 61.36,300.46L 63.09,309.71L 64.82,306.63L 66.56,311.25L 68.29,314.34L 70.02,317.94L 71.75,316.91L 73.48,319.48L 75.21,313.82L 76.95,316.39L 78.68,314.85L 80.41,308.17L 82.14,309.20L 83.87,310.23L 85.60,310.23L 87.33,304.06L 89.07,304.06L 90.80,307.65L 92.53,314.85L 94.26,318.45L 95.99,314.34L 97.72,311.25L 99.46,319.99L 101.19,313.31L 102.92,312.28L 104.65,314.85L 106.38,309.71L 108.11,315.88L 109.84,318.45L 111.58,318.96L 113.31,327.19L 115.04,330.79L 116.77,332.85L 118.50,337.47L 120.23,336.44L 121.96,342.10L 123.70,344.67L 125.43,348.78L 127.16,352.38L 128.89,351.87L 130.62,352.38L 132.35,353.92L 134.09,348.27L 135.82,346.73L 137.55,341.07L 139.28,336.44L 141.01,338.50L 142.74,339.01L 144.47,343.64L 146.21,350.84L 147.94,354.44L 149.67,361.12L 151.40,364.72L 153.13,363.69L 154.86,365.23L 156.60,365.75L 158.33,363.69L 160.06,361.12L 161.79,358.55L 163.52,359.06L 165.25,358.04L 166.98,357.52L 168.72,357.52L 170.45,362.66L 172.18,364.20L 173.91,365.23L 175.64,364.72L 177.37,363.69L 179.11,364.72L 180.84,361.12L 182.57,361.12L 184.30,362.15L 186.03,363.69L 187.76,365.23L 189.49,369.35L 191.23,369.35L 192.96,371.92L 194.69,371.92L 196.42,371.92L 198.15,371.40L 199.88,370.89L 201.61,370.37L 203.35,370.37L 205.08,372.43L 206.81,372.94L 208.54,373.46L 210.27,372.94L 212.00,372.43L 213.74,372.94L 215.47,372.94L 217.20,371.92L 218.93,371.92L 220.66,371.92L 222.39,372.94L 224.12,373.46L 225.86,372.94L 227.59,372.94L 229.32,373.97L 231.05,372.43L 232.78,371.40L 234.51,370.89L 236.25,370.89L 237.98,370.89L 239.71,370.89L 241.44,370.37L 243.17,370.89L 244.90,370.89L 246.63,371.40L 248.37,371.92L 250.10,372.43L 251.83,371.92L 253.56,372.43L 255.29,372.43L 257.02,372.94L 258.75,372.94L 260.49,372.43L 262.22,371.40L 263.95,370.89L 265.68,367.80L 267.41,366.26L 269.14,359.58L 270.88,357.52L 272.61,355.98L 274.34,356.49L 276.07,355.46L 277.80,356.49L 279.53,355.46L 281.26,360.61L 283.00,358.55L 284.73,360.09L 286.46,360.61L 288.19,362.15L 289.92,364.20L 291.65,367.29L 293.39,365.23L 295.12,368.32L 296.85,364.72L 298.58,363.18L 300.31,361.63L 302.04,358.04L 303.77,353.92L 305.51,354.95L 307.24,354.95L 308.97,358.04L 310.70,356.49L 312.43,354.44L 314.16,350.32L 315.89,353.92L 317.63,351.35L 319.36,345.18L 321.09,342.10L 322.82,339.53L 324.55,337.99L 326.28,341.07L 328.02,333.36L 329.75,334.90L 331.48,339.53L 333.21,341.07L 334.94,344.67L 336.67,348.27L 338.40,348.78L 340.14,353.92L 341.87,354.95L 343.60,347.75L 345.33,345.18L 347.06,339.53L 348.79,335.42L 350.53,324.62L 352.26,314.85L 353.99,305.08L 355.72,298.92L 357.45,291.20L 359.18,286.58L 360.91,277.84L 362.65,267.56L 364.38,266.01L 366.11,259.33L 367.84,243.91L 369.57,226.43L 371.30,206.89L 373.04,199.70L 374.77,201.75L 376.50,177.08L 378.23,167.82L 379.96,159.08L 381.69,160.63L 383.42,170.91L 385.16,176.05L 386.89,164.23L 388.62,163.20L 390.35,152.92L 392.08,157.54L 393.81,150.86L 395.54,132.35L 397.28,122.58L 399.01,117.96L 400.74,109.73L 402.47,88.65L 404.20,84.03L 405.93,90.20L 407.67,103.05L 409.40,111.27L 411.13,113.33L 412.86,129.27L 414.59,155.49L 416.32,169.37L 418.05,159.60L 419.79,150.35L 421.52,147.26L 423.25,130.30L 424.98,114.87L 426.71,106.13L 428.44,95.34L 430.18,88.14L 431.91,69.12L 433.64,44.44L 435.37,39.30L 437.10,27.48L 438.83,19.25L 440.56,10.00L 442.30,13.08L 444.03,34.16L 445.76,53.18L 447.49,62.44L 449.22,76.83L 450.95,93.28L 452.68,111.27L 454.42,126.18L 456.15,136.98L 457.88,150.35L 459.61,177.08L 461.34,202.27" id="New cases" class="line" stroke-width="1" stroke-linecap="round"><title>New cases</title></path>
	<circle cx="25.00" cy="374.10" data-y="0.18" data-x="1584144000" r="1" fill="white"><title>2020-03-14: 0</title></circle>
	<circle cx="26.73" cy="373.56" data-y="0.28" data-x="1584230400" r="1" fill="white"><title>2020-03-15: 0</title></circle>
	<circle cx="28.46" cy="373.80" data-y="0.24" data-x="1584316800" r="1" fill="white"><title>2020-03-16: 0</title></circle>
	<circle cx="30.19" cy="372.94" data-y="0.41" data-x="1584403200" r="1" fill="white"><title>2020-03-17: 0</title></circle>
	<circle cx="31.93" cy="372.94" data-y="0.41" data-x="1584489600" r="1" fill="white"><title>2020-03-18: 0</title></circle>
	<circle cx="33.66" cy="371.92" data-y="0.61" data-x="1584576000" r="1" fill="white"><title>2020-03-19: 1</title></circle>
	<circle cx="35.39" cy="371.40" data-y="0.71" data-x="1584662400" r="1" fill="white"><title>2020-03-20: 1</title></circle>
	<circle cx="37.12" cy="370.37" data-y="0.92" data-x="1584748800" r="1" fill="white"><title>2020-03-21: 1</title></circle>
	<circle cx="38.85" cy="367.29" data-y="1.53" data-x="1584835200" r="1" fill="white"><title>2020-03-22: 2</title></circle>
	<circle cx="40.58" cy="363.69" data-y="2.24" data-x="1584921600" r="1" fill="white"><title>2020-03-23: 2</title></circle>
	<circle cx="42.32" cy="361.12" data-y="2.75" data-x="1585008000" r="1" fill="white"><title>2020-03-24: 3</title></circle>
	<circle cx="44.05" cy="356.49" data-y="3.66" data-x="1585094400" r="1" fill="white"><title>2020-03-25: 4</title></circle>
	<circle cx="45.78" cy="350.32" data-y="4.88" data-x="1585180800" r="1" fill="white"><title>2020-03-26: 5</title></circle>
	<circle cx="47.51" cy="342.10" data-y="6.51" data-x="1585267200" r="1" fill="white"><title>2020-03-27: 7</title></circle>
	<circle cx="49.24" cy="335.42" data-y="7.83" data-x="1585353600" r="1" fill="white"><title>2020-03-28: 8</title></circle>
	<circle cx="50.97" cy="327.19" data-y="9.46" data-x="1585440000" r="1" fill="white"><title>2020-03-29: 9</title></circle>
	<circle cx="52.70" cy="324.62" data-y="9.97" data-x="1585526400" r="1" fill="white"><title>2020-03-30: 10</title></circle>
	<circle cx="54.44" cy="314.85" data-y="11.90" data-x="1585612800" r="1" fill="white"><title>2020-03-31: 12</title></circle>
	<circle cx="56.17" cy="309.20" data-y="13.02" data-x="1585699200" r="1" fill="white"><title>2020-04-01: 13</title></circle>
	<circle cx="57.90" cy="305.60" data-y="13.73" data-x="1585785600" r="1" fill="white"><title>2020-04-02: 14</title></circle>
	<circle cx="59.63" cy="305.60" data-y="13.73" data-x="1585872000" r="1" fill="white"><title>2020-04-03: 14</title></circle>
	<circle cx="61.36" cy="300.46" data-y="14.75" data-x="1585958400" r="1" fill="white"><title>2020-04-04: 15</title></circle>
	<circle cx="63.09" cy="309.71" data-y="12.92" data-x="1586044800" r="1" fill="white"><title>2020-04-05: 13</title></circle>
	<circle cx="64.82" cy="306.63" data-y="13.53" data-x="1586131200" r="1" fill="white"><title>2020-04-06: 14</title></circle>
	<circle cx="66.56" cy="311.25" data-y="12.61" data-x="1586217600" r="1" fill="white"><title>2020-04-07: 13</title></circle>
	<circle cx="68.29" cy="314.34" data-y="12.00" data-x="1586304000" r="1" fill="white"><title>2020-04-08: 12</title></circle>
	<circle cx="70.02" cy="317.94" data-y="11.29" data-x="1586390400" r="1" fill="white"><title>2020-04-09: 11</title></circle>
	<circle cx="71.75" cy="316.91" data-y="11.50" data-x="1586476800" r="1" fill="white"><title>2020-04-10: 11</title></circle>
	<circle cx="73.48" cy="319.48" data-y="10.99" data-x="1586563200" r="1" fill="white"><title>2020-04-11: 11</title></circle>
	<circle cx="75.21" cy="313.82" data-y="12.11" data-x="1586649600" r="1" fill="white"><title>2020-04-12: 12</title></circle>
	<circle cx="76.95" cy="316.39" data-y="11.60" data-x="1586736000" r="1" fill="white"><title>2020-04-13: 12</title></circle>
	<circle cx="78.68" cy="314.85" data-y="11.90" data-x="1586822400" r="1" fill="white"><title>2020-04-14: 12</title></circle>
	<circle cx="80.41" cy="308.17" data-y="13.23" data-x="1586908800" r="1" fill="white"><title>2020-04-15: 13</title></circle>
	<circle cx="82.14" cy="309.20" data-y="13.02" data-x="1586995200" r="1" fill="white"><title>2020-04-16: 13</title></circle>
	<circle cx="83.87" cy="310.23" data-y="12.82" data-x="1587081600" r="1" fill="white"><title>2020-04-17: 13</title></circle>
	<circle cx="85.60" cy="310.23" data-y="12.82" data-x="1587168000" r="1" fill="white"><title>2020-04-18: 13</title></circle>
	<circle cx="87.33" cy="304.06" data-y="14.04" data-x="1587254400" r="1" fill="white"><title>2020-04-19: 14</title></circle>
	<circle cx="89.07" cy="304.06" data-y="14.04" data-x="1587340800" r="1" fill="white"><title>2020-04-20: 14</title></circle>
	<circle cx="90.80" cy="307.65" data-y="13.33" data-x="1587427200" r="1" fill="white"><title>2020-04-21: 13</title></circle>
	<circle cx="92.53" cy="314.85" data-y="11.90" data-x="1587513600" r="1" fill="white"><title>2020-04-22: 12</title></circle>
	<circle cx="94.26" cy="318.45" data-y="11.19" data-x="1587600000" r="1" fill="white"><title>2020-04-23: 11</title></circle>
	<circle cx="95.99" cy="314.34" data-y="12.00" data-x="1587686400" r="1" fill="white"><title>2020-04-24: 12</title></circle>
	<circle cx="97.72" cy="311.25" data-y="12.61" data-x="1587772800" r="1" fill="white"><title>2020-04-25: 13</title></circle>
	<circle cx="99.46" cy="319.99" data-y="10.89" data-x="1587859200" r="1" fill="white"><title>2020-04-26: 11</title></circle>
	<circle cx="101.19" cy="313.31" data-y="12.21" data-x="1587945600" r="1" fill="white"><title>2020-04-27: 12</title></circle>
	<circle cx="102.92" cy="312.28" data-y="12.41" data-x="1588032000" r="1" fill="white"><title>2020-04-28: 12</title></circle>
	<circle cx="104.65" cy="314.85" data-y="11.90" data-x="1588118400" r="1" fill="white"><title>2020-04-29: 12</title></circle>
	<circle cx="106.38" cy="309.71" data-y="12.92" data-x="1588204800" r="1" fill="white"><title>2020-04-30: 13</title></circle>
	<circle cx="108.11" cy="315.88" data-y="11.70" data-x="1588291200" r="1" fill="white"><title>2020-05-01: 12</title></circle>
	<circle cx="109.84" cy="318.45" data-y="11.19" data-x="1588377600" r="1" fill="white"><title>2020-05-02: 11</title></circle>
	<circle cx="111.58" cy="318.96" data-y="11.09" data-x="1588464000" r="1" fill="white"><title>2020-05-03: 11</title></circle>
	<circle cx="113.31" cy="327.19" data-y="9.46" data-x="1588550400" r="1" fill="white"><title>2020-05-04: 9</title></circle>
	<circle cx="115.04" cy="330.79" data-y="8.75" data-x="1588636800" r="1" fill="white"><title>2020-05-05: 9</title></circle>
	<circle cx="116.77" cy="332.85" data-y="8.34" data-x="1588723200" r="1" fill="white"><title>2020-05-06: 8</title></circle>
	<circle cx="118.50" cy="337.47" data-y="7.43" data-x="1588809600" r="1" fill="white"><title>2020-05-07: 7</title></circle>
	<circle cx="120.23" cy="336.44" data-y="7.63" data-x="1588896000" r="1" fill="white"><title>2020-05-08: 8</title></circle>
	<circle cx="121.96" cy="342.10" data-y="6.51" data-x="1588982400" r="1" fill="white"><title>2020-05-09: 7</title></circle>
	<circle cx="123.70" cy="344.67" data-y="6.00" data-x="1589068800" r="1" fill="white"><title>2020-05-10: 6</title></circle>
	<circle cx="125.43" cy="348.78" data-y="5.19" data-x="1589155200" r="1" fill="white"><title>2020-05-11: 5</title></circle>
	<circle cx="127.16" cy="352.38" data-y="4.48" data-x="1589241600" r="1" fill="white"><title>2020-05-12: 4</title></circle>
	<circle cx="128.89" cy="351.87" data-y="4.58" data-x="1589328000" r="1" fill="white"><title>2020-05-13: 5</title></circle>
	<circle cx="130.62" cy="352.38" data-y="4.48" data-x="1589414400" r="1" fill="white"><title>2020-05-14: 4</title></circle>
	<circle cx="132.35" cy="353.92" data-y="4.17" data-x="1589500800" r="1" fill="white"><title>2020-05-15: 4</title></circle>
	<circle cx="134.09" cy="348.27" data-y="5.29" data-x="1589587200" r="1" fill="white"><title>2020-05-16: 5</title></circle>
	<circle cx="135.82" cy="346.73" data-y="5.60" data-x="1589673600" r="1" fill="white"><title>2020-05-17: 6</title></circle>
	<circle cx="137.55" cy="341.07" data-y="6.71" data-x="1589760000" r="1" fill="white"><title>2020-05-18: 7</title></circle>
	<circle cx="139.28" cy="336.44" data-y="7.63" data-x="1589846400" r="1" fill="white"><title>2020-05-19: 8</title></circle>
	<circle cx="141.01" cy="338.50" data-y="7.22" data-x="1589932800" r="1" fill="white"><title>2020-05-20: 7</title></circle>
	<circle cx="142.74" cy="339.01" data-y="7.12" data-x="1590019200" r="1" fill="white"><title>2020-05-21: 7</title></circle>
	<circle cx="144.47" cy="343.64" data-y="6.21" data-x="1590105600" r="1" fill="white"><title>2020-05-22: 6</title></circle>
	<circle cx="146.21" cy="350.84" data-y="4.78" data-x="1590192000" r="1" fill="white"><title>2020-05-23: 5</title></circle>
	<circle cx="147.94" cy="354.44" data-y="4.07" data-x="1590278400" r="1" fill="white"><title>2020-05-24: 4</title></circle>
	<circle cx="149.67" cy="361.12" data-y="2.75" data-x="1590364800" r="1" fill="white"><title>2020-05-25: 3</title></circle>
	<circle cx="151.40" cy="364.72" data-y="2.03" data-x="1590451200" r="1" fill="white"><title>2020-05-26: 2</title></circle>
	<circle cx="153.13" cy="363.69" data-y="2.24" data-x="1590537600" r="1" fill="white"><title>2020-05-27: 2</title></circle>
	<circle cx="154.86" cy="365.23" data-y="1.93" data-x="1590624000" r="1" fill="white"><title>2020-05-28: 2</title></circle>
	<circle cx="156.60" cy="365.75" data-y="1.83" data-x="1590710400" r="1" fill="white"><title>2020-05-29: 2</title></circle>
	<circle cx="158.33" cy="363.69" data-y="2.24" data-x="1590796800" r="1" fill="white"><title>2020-05-30: 2</title></circle>
	<circle cx="160.06" cy="361.12" data-y="2.75" data-x="1590883200" r="1" fill="white"><title>2020-05-31: 3</title></circle>
	<circle cx="161.79" cy="358.55" data-y="3.26" data-x="1590969600" r="1" fill="white"><title>2020-06-01: 3</title></circle>
	<circle cx="163.52" cy="359.06" data-y="3.15" data-x="1591056000" r="1" fill="white"><title>2020-06-02: 3</title></circle>
	<circle cx="165.25" cy="358.04" data-y="3.36" data-x="1591142400" r="1" fill="white"><title>2020-06-03: 3</title></circle>
	<circle cx="166.98" cy="357.52" data-y="3.46" data-x="1591228800" r="1" fill="white"><title>2020-06-04: 3</title></circle>
	<circle cx="168.72" cy="357.52" data-y="3.46" data-x="1591315200" r="1" fill="white"><title>2020-06-05: 3</title></circle>
	<circle cx="170.45" cy="362.66" data-y="2.44" data-x="1591401600" r="1" fill="white"><title>2020-06-06: 2</title></circle>
	<circle cx="172.18" cy="364.20" data-y="2.14" data-x="1591488000" r="1" fill="white"><title>2020-06-07: 2</title></circle>
	<circle cx="173.91" cy="365.23" data-y="1.93" data-x="1591574400" r="1" fill="white"><title>2020-06-08: 2</title></circle>
	<circle cx="175.64" cy="364.72" data-y="2.03" data-x="1591660800" r="1" fill="white"><title>2020-06-09: 2</title></circle>
	<circle cx="177.37" cy="363.69" data-y="2.24" data-x="1591747200" r="1" fill="white"><title>2020-06-10: 2</title></circle>
	<circle cx="179.11" cy="364.72" data-y="2.03" data-x="1591833600" r="1" fill="white"><title>2020-06-11: 2</title></circle>
	<circle cx="180.84" cy="361.12" data-y="2.75" data-x="1591920000" r="1" fill="white"><title>2020-06-12: 3</title></circle>
	<circle cx="182.57" cy="361.12" data-y="2.75" data-x="1592006400" r="1" fill="white"><title>2020-06-13: 3</title></circle>
	<circle cx="184.30" cy="362.15" data-y="2.54" data-x="1592092800" r="1" fill="white"><title>2020-06-14: 3</title></circle>
	<circle cx="186.03" cy="363.69" data-y="2.24" data-x="1592179200" r="1" fill="white"><title>2020-06-15: 2</title></circle>
	<circle cx="187.76" cy="365.23" data-y="1.93" data-x="1592265600" r="1" fill="white"><title>2020-06-16: 2</title></circle>
	<circle cx="189.49" cy="369.35" data-y="1.12" data-x="1592352000" r="1" fill="white"><title>2020-06-17: 1</title></circle>
	<circle cx="191.23" cy="369.35" data-y="1.12" data-x="1592438400" r="1" fill="white"><title>2020-06-18: 1</title></circle>
	<circle cx="192.96" cy="371.92" data-y="0.61" data-x="1592524800" r="1" fill="white"><title>2020-06-19: 1</title></circle>
	<circle cx="194.69" cy="371.92" data-y="0.61" data-x="1592611200" r="1" fill="white"><title>2020-06-20: 1</title></circle>
	<circle cx="196.42" cy="371.92" data-y="0.61" data-x="1592697600" r="1" fill="white"><title>2020-06-21: 1</title></circle>
	<circle cx="198.15" cy="371.40" data-y="0.71" data-x="1592784000" r="1" fill="white"><title>2020-06-22: 1</title></circle>
	<circle cx="199.88" cy="370.89" data-y="0.81" data-x="1592870400" r="1" fill="white"><title>2020-06-23: 1</title></circle>
	<circle cx="201.61" cy="370.37" data-y="0.92" data-x="1592956800" r="1" fill="white"><title>2020-06-24: 1</title></circle>
	<circle cx="203.35" cy="370.37" data-y="0.92" data-x="1593043200" r="1" fill="white"><title>2020-06-25: 1</title></circle>
	<circle cx="205.08" cy="372.43" data-y="0.51" data-x="1593129600" r="1" fill="white"><title>2020-06-26: 1</title></circle>
	<circle cx="206.81" cy="372.94" data-y="0.41" data-x="1593216000" r="1" fill="white"><title>2020-06-27: 0</title></circle>
	<circle cx="208.54" cy="373.46" data-y="0.31" data-x="1593302400" r="1" fill="white"><title>2020-06-28: 0</title></circle>
	<circle cx="210.27" cy="372.94" data-y="0.41" data-x="1593388800" r="1" fill="white"><title>2020-06-29: 0</title></circle>
	<circle cx="212.00" cy="372.43" data-y="0.51" data-x="1593475200" r="1" fill="white"><title>2020-06-30: 1</title></circle>
	<circle cx="213.74" cy="372.94" data-y="0.41" data-x="1593561600" r="1" fill="white"><title>2020-07-01: 0</title></circle>
	<circle cx="215.47" cy="372.94" data-y="0.41" data-x="1593648000" r="1" fill="white"><title>2020-07-02: 0</title></circle>
	<circle cx="217.20" cy="371.92" data-y="0.61" data-x="1593734400" r="1" fill="white"><title>2020-07-03: 1</title></circle>
	<circle cx="218.93" cy="371.92" data-y="0.61" data-x="1593820800" r="1" fill="white"><title>2020-07-04: 1</title></circle>
	<circle cx="220.66" cy="371.92" data-y="0.61" data-x="1593907200" r="1" fill="white"><title>2020-07-05: 1</title></circle>
	<circle cx="222.39" cy="372.94" data-y="0.41" data-x="1593993600" r="1" fill="white"><title>2020-07-06: 0</title></circle>
	<circle cx="224.12" cy="373.46" data-y="0.31" data-x="1594080000" r="1" fill="white"><title>2020-07-07: 0</title></circle>
	<circle cx="225.86" cy="372.94" data-y="0.41" data-x="1594166400" r="1" fill="white"><title>2020-07-08: 0</title></circle>
	<circle cx="227.59" cy="372.94" data-y="0.41" data-x="1594252800" r="1" fill="white"><title>2020-07-09: 0</title></circle>
	<circle cx="229.32" cy="373.97" data-y="0.20" data-x="1594339200" r="1" fill="white"><title>2020-07-10: 0</title></circle>
	<circle cx="231.05" cy="372.43" data-y="0.51" data-x="1594425600" r="1" fill="white"><title>2020-07-11: 1</title></circle>
	<circle cx="232.78" cy="371.40" data-y="0.71" data-x="1594512000" r="1" fill="white"><title>2020-07-12: 1</title></circle>
	<circle cx="234.51" cy="370.89" data-y="0.81" data-x="1594598400" r="1" fill="white"><title>2020-07-13: 1</title></circle>
	<circle cx="236.25" cy="370.89" data-y="0.81" data-x="1594684800" r="1" fill="white"><title>2020-07-14: 1</title></circle>
	<circle cx="237.98" cy="370.89" data-y="0.81" data-x="1594771200" r="1" fill="white"><title>2020-07-15: 1</title></circle>
	<circle cx="239.71" cy="370.89" data-y="0.81" data-x="1594857600" r="1" fill="white"><title>2020-07-16: 1</title></circle>
	<circle cx="241.44" cy="370.37" data-y="0.92" data-x="1594944000" r="1" fill="white"><title>2020-07-17: 1</title></circle>
	<circle cx="243.17" cy="370.89" data-y="0.81" data-x="1595030400" r="1" fill="white"><title>2020-07-18: 1</title></circle>
	<circle cx="244.90" cy="370.89" data-y="0.81" data-x="1595116800" r="1" fill="white"><title>2020-07-19: 1</title></circle>
	<circle cx="246.63" cy="371.40" data-y="0.71" data-x="1595203200" r="1" fill="white"><title>2020-07-20: 1</title></circle>
	<circle cx="248.37" cy="371.92" data-y="0.61" data-x="1595289600" r="1" fill="white"><title>2020-07-21: 1</title></circle>
	<circle cx="250.10" cy="372.43" data-y="0.51" data-x="1595376000" r="1" fill="white"><title>2020-07-22: 1</title></circle>
	<circle cx="251.83" cy="371.92" data-y="0.61" data-x="1595462400" r="1" fill="white"><title>2020-07-23: 1</title></circle>
	<circle cx="253.56" cy="372.43" data-y="0.51" data-x="1595548800" r="1" fill="white"><title>2020-07-24: 1</title></circle>
	<circle cx="255.29" cy="372.43" data-y="0.51" data-x="1595635200" r="1" fill="white"><title>2020-07-25: 1</title></circle>
	<circle cx="257.02" cy="372.94" data-y="0.41" data-x="1595721600" r="1" fill="white"><title>2020-07-26: 0</title></circle>
	<circle cx="258.75" cy="372.94" data-y="0.41" data-x="1595808000" r="1" fill="white"><title>2020-07-27: 0</title></circle>
	<circle cx="260.49" cy="372.43" data-y="0.51" data-x="1595894400" r="1" fill="white"><title>2020-07-28: 1</title></circle>
	<circle cx="262.22" cy="371.40" data-y="0.71" data-x="1595980800" r="1" fill="white"><title>2020-07-29: 1</title></circle>
	<circle cx="263.95" cy="370.89" data-y="0.81" data-x="1596067200" r="1" fill="white"><title>2020-07-30: 1</title></circle>
	<circle cx="265.68" cy="367.80" data-y="1.42" data-x="1596153600" r="1" fill="white"><title>2020-07-31: 1</title></circle>
	<circle cx="267.41" cy="366.26" data-y="1.73" data-x="1596240000" r="1" fill="white"><title>2020-08-01: 2</title></circle>
	<circle cx="269.14" cy="359.58" data-y="3.05" data-x="1596326400" r="1" fill="white"><title>2020-08-02: 3</title></circle>
	<circle cx="270.88" cy="357.52" data-y="3.46" data-x="1596412800" r="1" fill="white"><title>2020-08-03: 3</title></circle>
	<circle cx="272.61" cy="355.98" data-y="3.76" data-x="1596499200" r="1" fill="white"><title>2020-08-04: 4</title></circle>
	<circle cx="274.34" cy="356.49" data-y="3.66" data-x="1596585600" r="1" fill="white"><title>2020-08-05: 4</title></circle>
	<circle cx="276.07" cy="355.46" data-y="3.87" data-x="1596672000" r="1" fill="white"><title>2020-08-06: 4</title></circle>
	<circle cx="277.80" cy="356.49" data-y="3.66" data-x="1596758400" r="1" fill="white"><title>2020-08-07: 4</title></circle>
	<circle cx="279.53" cy="355.46" data-y="3.87" data-x="1596844800" r="1" fill="white"><title>2020-08-08: 4</title></circle>
	<circle cx="281.26" cy="360.61" data-y="2.85" data-x="1596931200" r="1" fill="white"><title>2020-08-09: 3</title></circle>
	<circle cx="283.00" cy="358.55" data-y="3.26" data-x="1597017600" r="1" fill="white"><title>2020-08-10: 3</title></circle>
	<circle cx="284.73" cy="360.09" data-y="2.95" data-x="1597104000" r="1" fill="white"><title>2020-08-11: 3</title></circle>
	<circle cx="286.46" cy="360.61" data-y="2.85" data-x="1597190400" r="1" fill="white"><title>2020-08-12: 3</title></circle>
	<circle cx="288.19" cy="362.15" data-y="2.54" data-x="1597276800" r="1" fill="white"><title>2020-08-13: 3</title></circle>
	<circle cx="289.92" cy="364.20" data-y="2.14" data-x="1597363200" r="1" fill="white"><title>2020-08-14: 2</title></circle>
	<circle cx="291.65" cy="367.29" data-y="1.53" data-x="1597449600" r="1" fill="white"><title>2020-08-15: 2</title></circle>
	<circle cx="293.39" cy="365.23" data-y="1.93" data-x="1597536000" r="1" fill="white"><title>2020-08-16: 2</title></circle>
	<circle cx="295.12" cy="368.32" data-y="1.32" data-x="1597622400" r="1" fill="white"><title>2020-08-17: 1</title></circle>
	<circle cx="296.85" cy="364.72" data-y="2.03" data-x="1597708800" r="1" fill="white"><title>2020-08-18: 2</title></circle>
	<circle cx="298.58" cy="363.18" data-y="2.34" data-x="1597795200" r="1" fill="white"><title>2020-08-19: 2</title></circle>
	<circle cx="300.31" cy="361.63" data-y="2.65" data-x="1597881600" r="1" fill="white"><title>2020-08-20: 3</title></circle>
	<circle cx="302.04" cy="358.04" data-y="3.36" data-x="1597968000" r="1" fill="white"><title>2020-08-21: 3</title></circle>
	<circle cx="303.77" cy="353.92" data-y="4.17" data-x="1598054400" r="1" fill="white"><title>2020-08-22: 4</title></circle>
	<circle cx="305.51" cy="354.95" data-y="3.97" data-x="1598140800" r="1" fill="white"><title>2020-08-23: 4</title></circle>
	<circle cx="307.24" cy="354.95" data-y="3.97" data-x="1598227200" r="1" fill="white"><title>2020-08-24: 4</title></circle>
	<circle cx="308.97" cy="358.04" data-y="3.36" data-x="1598313600" r="1" fill="white"><title>2020-08-25: 3</title></circle>
	<circle cx="310.70" cy="356.49" data-y="3.66" data-x="1598400000" r="1" fill="white"><title>2020-08-26: 4</title></circle>
	<circle cx="312.43" cy="354.44" data-y="4.07" data-x="1598486400" r="1" fill="white"><title>2020-08-27: 4</title></circle>
	<circle cx="314.16" cy="350.32" data-y="4.88" data-x="1598572800" r="1" fill="white"><title>2020-08-28: 5</title></circle>
	<circle cx="315.89" cy="353.92" data-y="4.17" data-x="1598659200" r="1" fill="white"><title>2020-08-29: 4</title></circle>
	<circle cx="317.63" cy="351.35" data-y="4.68" data-x="1598745600" r="1" fill="white"><title>2020-08-30: 5</title></circle>
	<circle cx="319.36" cy="345.18" data-y="5.90" data-x="1598832000" r="1" fill="white"><title>2020-08-31: 6</title></circle>
	<circle cx="321.09" cy="342.10" data-y="6.51" data-x="1598918400" r="1" fill="white"><title>2020-09-01: 7</title></circle>
	<circle cx="322.82" cy="339.53" data-y="7.02" data-x="1599004800" r="1" fill="white"><title>2020-09-02: 7</title></circle>
	<circle cx="324.55" cy="337.99" data-y="7.32" data-x="1599091200" r="1" fill="white"><title>2020-09-03: 7</title></circle>
	<circle cx="326.28" cy="341.07" data-y="6.71" data-x="1599177600" r="1" fill="white"><title>2020-09-04: 7</title></circle>
	<circle cx="328.02" cy="333.36" data-y="8.24" data-x="1599264000" r="1" fill="white"><title>2020-09-05: 8</title></circle>
	<circle cx="329.75" cy="334.90" data-y="7.94" data-x="1599350400" r="1" fill="white"><title>2020-09-06: 8</title></circle>
	<circle cx="331.48" cy="339.53" data-y="7.02" data-x="1599436800" r="1" fill="white"><title>2020-09-07: 7</title></circle>
	<circle cx="333.21" cy="341.07" data-y="6.71" data-x="1599523200" r="1" fill="white"><title>2020-09-08: 7</title></circle>
	<circle cx="334.94" cy="344.67" data-y="6.00" data-x="1599609600" r="1" fill="white"><title>2020-09-09: 6</title></circle>
	<circle cx="336.67" cy="348.27" data-y="5.29" data-x="1599696000" r="1" fill="white"><title>2020-09-10: 5</title></circle>
	<circle cx="338.40" cy="348.78" data-y="5.19" data-x="1599782400" r="1" fill="white"><title>2020-09-11: 5</title></circle>
	<circle cx="340.14" cy="353.92" data-y="4.17" data-x="1599868800" r="1" fill="white"><title>2020-09-12: 4</title></circle>
	<circle cx="341.87" cy="354.95" data-y="3.97" data-x="1599955200" r="1" fill="white"><title>2020-09-13: 4</title></circle>
	<circle cx="343.60" cy="347.75" data-y="5.39" data-x="1600041600" r="1" fill="white"><title>2020-09-14: 5</title></circle>
	<circle cx="345.33" cy="345.18" data-y="5.90" data-x="1600128000" r="1" fill="white"><title>2020-09-15: 6</title></circle>
	<circle cx="347.06" cy="339.53" data-y="7.02" data-x="1600214400" r="1" fill="white"><title>2020-09-16: 7</title></circle>
	<circle cx="348.79" cy="335.42" data-y="7.83" data-x="1600300800" r="1" fill="white"><title>2020-09-17: 8</title></circle>
	<circle cx="350.53" cy="324.62" data-y="9.97" data-x="1600387200" r="1" fill="white"><title>2020-09-18: 10</title></circle>
	<circle cx="352.26" cy="314.85" data-y="11.90" data-x="1600473600" r="1" fill="white"><title>2020-09-19: 12</title></circle>
	<circle cx="353.99" cy="305.08" data-y="13.84" data-x="1600560000" r="1" fill="white"><title>2020-09-20: 14</title></circle>
	<circle cx="355.72" cy="298.92" data-y="15.06" data-x="1600646400" r="1" fill="white"><title>2020-09-21: 15</title></circle>
	<circle cx="357.45" cy="291.20" data-y="16.58" data-x="1600732800" r="1" fill="white"><title>2020-09-22: 17</title></circle>
	<circle cx="359.18" cy="286.58" data-y="17.50" data-x="1600819200" r="1" fill="white"><title>2020-09-23: 17</title></circle>
	<circle cx="360.91" cy="277.84" data-y="19.23" data-x="1600905600" r="1" fill="white"><title>2020-09-24: 19</title></circle>
	<circle cx="362.65" cy="267.56" data-y="21.26" data-x="1600992000" r="1" fill="white"><title>2020-09-25: 21</title></circle>
	<circle cx="364.38" cy="266.01" data-y="21.57" data-x="1601078400" r="1" fill="white"><title>2020-09-26: 22</title></circle>
	<circle cx="366.11" cy="259.33" data-y="22.89" data-x="1601164800" r="1" fill="white"><title>2020-09-27: 23</title></circle>
	<circle cx="367.84" cy="243.91" data-y="25.94" data-x="1601251200" r="1" fill="white"><title>2020-09-28: 26</title></circle>
	<circle cx="369.57" cy="226.43" data-y="29.40" data-x="1601337600" r="1" fill="white"><title>2020-09-29: 29</title></circle>
	<circle cx="371.30" cy="206.89" data-y="33.27" data-x="1601424000" r="1" fill="white"><title>2020-09-30: 33</title></circle>
	<circle cx="373.04" cy="199.70" data-y="34.69" data-x="1601510400" r="1" fill="white"><title>2020-10-01: 35</title></circle>
	<circle cx="374.77" cy="201.75" data-y="34.28" data-x="1601596800" r="1" fill="white"><title>2020-10-02: 34</title></circle>
	<circle cx="376.50" cy="177.08" data-y="39.17" data-x="1601683200" r="1" fill="white"><title>2020-10-03: 39</title></circle>
	<circle cx="378.23" cy="167.82" data-y="41.00" data-x="1601769600" r="1" fill="white"><title>2020-10-04: 41</title></circle>
	<circle cx="379.96" cy="159.08" data-y="42.73" data-x="1601856000" r="1" fill="white"><title>2020-10-05: 43</title></circle>
	<circle cx="381.69" cy="160.63" data-y="42.42" data-x="1601942400" r="1" fill="white"><title>2020-10-06: 42</title></circle>
	<circle cx="383.42" cy="170.91" data-y="40.39" data-x="1602028800" r="1" fill="white"><title>2020-10-07: 40</title></circle>
	<circle cx="385.16" cy="176.05" data-y="39.37" data-x="1602115200" r="1" fill="white"><title>2020-10-08: 39</title></circle>
	<circle cx="386.89" cy="164.23" data-y="41.71" data-x="1602201600" r="1" fill="white"><title>2020-10-09: 42</title></circle>
	<circle cx="388.62" cy="163.20" data-y="41.91" data-x="1602288000" r="1" fill="white"><title>2020-10-10: 42</title></circle>
	<circle cx="390.35" cy="152.92" data-y="43.95" data-x="1602374400" r="1" fill="white"><title>2020-10-11: 44</title></circle>
	<circle cx="392.08" cy="157.54" data-y="43.03" data-x="1602460800" r="1" fill="white"><title>2020-10-12: 43</title></circle>
	<circle cx="393.81" cy="150.86" data-y="44.36" data-x="1602547200" r="1" fill="white"><title>2020-10-13: 44</title></circle>
	<circle cx="395.54" cy="132.35" data-y="48.02" data-x="1602633600" r="1" fill="white"><title>2020-10-14: 48</title></circle>
	<circle cx="397.28" cy="122.58" data-y="49.95" data-x="1602720000" r="1" fill="white"><title>2020-10-15: 50</title></circle>
	<circle cx="399.01" cy="117.96" data-y="50.87" data-x="1602806400" r="1" fill="white"><title>2020-10-16: 51</title></circle>
	<circle cx="400.74" cy="109.73" data-y="52.49" data-x="1602892800" r="1" fill="white"><title>2020-10-17: 52</title></circle>
	<circle cx="402.47" cy="88.65" data-y="56.67" data-x="1602979200" r="1" fill="white"><title>2020-10-18: 57</title></circle>
	<circle cx="404.20" cy="84.03" data-y="57.58" data-x="1603065600" r="1" fill="white"><title>2020-10-19: 58</title></circle>
	<circle cx="405.93" cy="90.20" data-y="56.36" data-x="1603152000" r="1" fill="white"><title>2020-10-20: 56</title></circle>
	<circle cx="407.67" cy="103.05" data-y="53.82" data-x="1603238400" r="1" fill="white"><title>2020-10-21: 54</title></circle>
	<circle cx="409.40" cy="111.27" data-y="52.19" data-x="1603324800" r="1" fill="white"><title>2020-10-22: 52</title></circle>
	<circle cx="411.13" cy="113.33" data-y="51.78" data-x="1603411200" r="1" fill="white"><title>2020-10-23: 52</title></circle>
	<circle cx="412.86" cy="129.27" data-y="48.63" data-x="1603497600" r="1" fill="white"><title>2020-10-24: 49</title></circle>
	<circle cx="414.59" cy="155.49" data-y="43.44" data-x="1603584000" r="1" fill="white"><title>2020-10-25: 43</title></circle>
	<circle cx="416.32" cy="169.37" data-y="40.69" data-x="1603670400" r="1" fill="white"><title>2020-10-26: 41</title></circle>
	<circle cx="418.05" cy="159.60" data-y="42.63" data-x="1603756800" r="1" fill="white"><title>2020-10-27: 43</title></circle>
	<circle cx="419.79" cy="150.35" data-y="44.46" data-x="1603843200" r="1" fill="white"><title>2020-10-28: 44</title></circle>
	<circle cx="421.52" cy="147.26" data-y="45.07" data-x="1603929600" r="1" fill="white"><title>2020-10-29: 45</title></circle>
	<circle cx="423.25" cy="130.30" data-y="48.43" data-x="1604016000" r="1" fill="white"><title>2020-10-30: 48</title></circle>
	<circle cx="424.98" cy="114.87" data-y="51.48" data-x="1604102400" r="1" fill="white"><title>2020-10-31: 51</title></circle>
	<circle cx="426.71" cy="106.13" data-y="53.21" data-x="1604188800" r="1" fill="white"><title>2020-11-01: 53</title></circle>
	<circle cx="428.44" cy="95.34" data-y="55.34" data-x="1604275200" r="1" fill="white"><title>2020-11-02: 55</title></circle>
	<circle cx="430.18" cy="88.14" data-y="56.77" data-x="1604361600" r="1" fill="white"><title>2020-11-03: 57</title></circle>
	<circle cx="431.91" cy="69.12" data-y="60.53" data-x="1604448000" r="1" fill="white"><title>2020-11-04: 61</title></circle>
	<circle cx="433.64" cy="44.44" data-y="65.41" data-x="1604534400" r="1" fill="white"><title>2020-11-05: 65</title></circle>
	<circle cx="435.37" cy="39.30" data-y="66.43" data-x="1604620800" r="1" fill="white"><title>2020-11-06: 66</title></circle>
	<circle cx="437.10" cy="27.48" data-y="68.77" data-x="1604707200" r="1" fill="white"><title>2020-11-07: 69</title></circle>
	<circle cx="438.83" cy="19.25" data-y="70.40" data-x="1604793600" r="1" fill="white"><title>2020-11-08: 70</title></circle>
	<circle cx="440.56" cy="10.00" data-y="72.23" data-x="1604880000" r="1" fill="white"><title>2020-11-09: 72</title></circle>
	<circle cx="442.30" cy="13.08" data-y="71.62" data-x="1604966400" r="1" fill="white"><title>2020-11-10: 72</title></circle>
	<circle cx="444.03" cy="34.16" data-y="67.45" data-x="1605052800" r="1" fill="white"><title>2020-11-11: 67</title></circle>
	<circle cx="445.76" cy="53.18" data-y="63.69" data-x="1605139200" r="1" fill="white"><title>2020-11-12: 64</title></circle>
	<circle cx="447.49" cy="62.44" data-y="61.85" data-x="1605225600" r="1" fill="white"><title>2020-11-13: 62</title></circle>
	<circle cx="449.22" cy="76.83" data-y="59.01" data-x="1605312000" r="1" fill="white"><title>2020-11-14: 59</title></circle>
	<circle cx="450.95" cy="93.28" data-y="55.75" data-x="1605398400" r="1" fill="white"><title>2020-11-15: 56</title></circle>
	<circle cx="452.68" cy="111.27" data-y="52.19" data-x="1605484800" r="1" fill="white"><title>2020-11-16: 52</title></circle>
	<circle cx="454.42" cy="126.18" data-y="49.24" data-x="1605571200" r="1" fill="white"><title>2020-11-17: 49</title></circle>
	<circle cx="456.15" cy="136.98" data-y="47.10" data-x="1605657600" r="1" fill="white"><title>2020-11-18: 47</title></circle>
	<circle cx="457.88" cy="150.35" data-y="44.46" data-x="1605744000" r="1" fill="white"><title>2020-11-19: 44</title></circle>
	<circle cx="459.61" cy="177.08" data-y="39.17" data-x="1605830400" r="1" fill="white"><title>2020-11-20: 39</title></circle>
	<circle cx="461.34" cy="202.27" data-y="34.18" data-x="1605916800" r="1" fill="white"><title>2020-11-21: 34</title></circle>
</g>
<g data-series="recent-cases" class="data-series">
	<path d="M 461.34,202.27L 463.07,215.63L 464.81,242.37L 466.54,253.25L 468.27,262.00L 470.00,258.05" id="Recent cases" class="line" stroke-width="1" stroke-linecap="round" stroke-dasharray="4,6" stroke-dashoffset="4"><title>Recent cases</title></path>
	<circle cx="461.34" cy="202.27" data-y="34.18" data-x="1605916800" r="2.5" fill="white"><title>2020-11-21: 34</title></circle>
	<circle cx="463.07" cy="215.63" data-y="31.54" data-x="1606003200" r="2.5" fill="white"><title>2020-11-22: 32</title></circle>
	<circle cx="464.81" cy="242.37" data-y="26.25" data-x="1606089600" r="2.5" fill="white"><title>2020-11-23: 26</title></circle>
	<circle cx="466.54" cy="253.25" data-y="24.09" data-x="1606176000" r="2.5" fill="white"><title>2020-11-24: 24</title></circle>
	<circle cx="468.27" cy="262.00" data-y="22.36" data-x="1606262400" r="2.5" fill="white"><title>2020-11-25: 22</title></circle>
	<circle cx="470.00" cy="258.05" data-y="23.14" data-x="1606348800" r="2.5" fill="white"><title>2020-11-26: 23</title></circle>
</g>
</svg>
