<svg width="480" height="400" viewBox="0 0 480 400" xmlns="http://www.w3.org/2000/svg" style="overflow:display" preserveAspectRatio="xMinYMin meet" overflow="visible">
<defs>
	<style>
	.data-series path.line { fill-opacity: 0; stroke: black; }
	.data-series path.line.dotted { stroke-dasharray: 12 20 }
	.data-series:hover path.line, .data-series.on path.line { stroke-width: 1; }
	.data-series:hover circle, .data-series.on circle { display: inline; }
	.graph-grid { font-family: "Helvetica Neue",Helvetica,Arial,"Lucida Grande",sans-serif; }
	.graph-grid line { stroke: black; stroke-width: 1; stroke-linecap: round; }
	.graph-grid.graph-grid-x text { text-anchor: middle; dominant-baseline: hanging; transform: translateY(10px); }
	.graph-grid.graph-grid-y text { text-anchor: end; dominant-baseline: middle; transform: translateX(-10px); }
	</style>
</defs>
<g class="graph-grid graph-grid-y">
	<line x1="25.00" y1="375.00" x2="470.00" y2="375.00" data-left="25"></line>
	<text x="35" y="375" text-anchor="end">0</text>
	<text x="35" y="256.260683284458" text-anchor="end">20</text>
	<text x="35" y="137.521366568915" text-anchor="end">40</text>
	<text x="35" y="18.7820498533724" text-anchor="end">60</text>
	<text style="text-anchor:middle;dominant-baseline:hanging;font-weight:bold;transform: translateY(192.5px) rotate(-90deg);"></text>
</g>
<g class="graph-grid graph-grid-x">
	<line class="tick" x1="59.66" y1="375.00" x2="59.66" y2="380.00"></line>
	<text x="59.6573208722741" y="375" text-anchor="middle">A</text>
	<line class="tick" x1="101.25" y1="375.00" x2="101.25" y2="380.00"></line>
	<text x="101.246105919003" y="375" text-anchor="middle">M</text>
	<line class="tick" x1="144.22" y1="375.00" x2="144.22" y2="380.00"></line>
	<text x="144.221183800623" y="375" text-anchor="middle">J</text>
	<line class="tick" x1="185.81" y1="375.00" x2="185.81" y2="380.00"></line>
	<text x="185.809968847352" y="375" text-anchor="middle">J</text>
	<line class="tick" x1="228.79" y1="375.00" x2="228.79" y2="380.00"></line>
	<text x="228.785046728972" y="375" text-anchor="middle">A</text>
	<line class="tick" x1="271.76" y1="375.00" x2="271.76" y2="380.00"></line>
	<text x="271.760124610592" y="375" text-anchor="middle">S</text>
	<line class="tick" x1="313.35" y1="375.00" x2="313.35" y2="380.00"></line>
	<text x="313.348909657321" y="375" text-anchor="middle">O</text>
	<line class="tick" x1="356.32" y1="375.00" x2="356.32" y2="380.00"></line>
	<text x="356.323987538941" y="375" text-anchor="middle">N</text>
	<line class="tick" x1="397.91" y1="375.00" x2="397.91" y2="380.00"></line>
	<text x="397.91277258567" y="375" text-anchor="middle">D</text>
	<line class="tick" x1="440.89" y1="375.00" x2="440.89" y2="380.00"></line>
	<text x="440.88785046729" y="375" text-anchor="middle">J</text>
	<text style="text-anchor:middle;dominant-baseline:hanging;font-weight:bold;transform: translateY(192.5px) rotate(-90deg);"></text>
</g>
<g data-series="widespread" class="data-series">
	<path d="M 25.00,333.44L 470.00,333.44" id="E06000037-level-0" class="line" stroke-width="1" stroke-linecap="round" stroke-dasharray="3,3" fill-opacity="0.3" opacity="0.3"><title>Widespread</title></path>
</g>
<g data-series="substantial" class="data-series">
	<path d="M 25.00,351.25L 470.00,351.25" id="E06000037-level-1" class="line" stroke-width="1" stroke-linecap="round" stroke-dasharray="3,3" fill-opacity="0.3" opacity="0.3"><title>Substantial</title></path>
</g>
<g data-series="moderate" class="data-series">
	<path d="M 25.00,369.06L 470.00,369.06" id="E06000037-level-2" class="line" stroke-width="1" stroke-linecap="round" stroke-dasharray="3,3" fill-opacity="0.3" opacity="0.3"><title>Moderate</title></path>
</g>
<g data-series="new-cases" class="data-series">
	<path d="M 25.00,374.06L 26.39,374.25L 27.77,373.13L 29.16,373.39L 30.55,373.39L 31.93,372.86L 33.32,372.32L 34.70,371.79L 36.09,370.18L 37.48,370.72L 38.86,369.65L 40.25,366.44L 41.64,366.44L 43.02,362.69L 44.41,361.62L 45.79,359.48L 47.18,357.87L 48.57,356.27L 49.95,356.80L 51.34,355.73L 52.73,354.13L 54.11,353.59L 55.50,349.85L 56.88,349.31L 58.27,346.63L 59.66,342.89L 61.04,341.28L 62.43,343.96L 63.82,340.21L 65.20,345.03L 66.59,346.63L 67.98,345.03L 69.36,347.17L 70.75,346.63L 72.13,343.42L 73.52,342.89L 74.91,340.75L 76.29,332.72L 77.68,334.33L 79.07,331.65L 80.45,332.18L 81.84,330.04L 83.22,330.04L 84.61,331.11L 86.00,335.40L 87.38,339.14L 88.77,341.82L 90.16,341.82L 91.54,344.49L 92.93,348.78L 94.31,343.42L 95.70,344.49L 97.09,343.42L 98.47,345.56L 99.86,348.24L 101.25,348.78L 102.63,349.31L 104.02,357.34L 105.40,360.55L 106.79,362.69L 108.18,363.76L 109.56,363.76L 110.95,365.90L 112.34,365.37L 113.72,363.76L 115.11,363.76L 116.50,362.69L 117.88,361.62L 119.27,361.62L 120.65,360.55L 122.04,360.01L 123.43,358.41L 124.81,356.27L 126.20,354.66L 127.59,356.80L 128.97,355.20L 130.36,358.94L 131.74,359.48L 133.13,363.76L 134.52,363.76L 135.90,366.97L 137.29,367.51L 138.68,369.11L 140.06,368.58L 141.45,369.65L 142.83,368.58L 144.22,370.72L 145.61,370.72L 146.99,370.18L 148.38,370.72L 149.77,371.79L 151.15,372.86L 152.54,373.93L 153.93,373.93L 155.31,373.93L 156.70,373.93L 158.08,373.93L 159.47,373.93L 160.86,373.93L 162.24,373.93L 163.63,374.46L 165.02,374.46L 166.40,375.00L 167.79,375.00L 169.17,375.00L 170.56,374.46L 171.95,374.46L 173.33,373.93L 174.72,373.93L 176.11,373.93L 177.49,373.93L 178.88,373.93L 180.26,373.39L 181.65,373.39L 183.04,373.93L 184.42,373.93L 185.81,373.93L 187.20,373.93L 188.58,372.86L 189.97,373.93L 191.36,373.93L 192.74,373.93L 194.13,373.93L 195.51,373.39L 196.90,373.39L 198.29,373.39L 199.67,372.86L 201.06,372.86L 202.45,372.86L 203.83,372.86L 205.22,371.79L 206.60,371.25L 207.99,371.79L 209.38,371.79L 210.76,371.79L 212.15,371.79L 213.54,369.11L 214.92,369.65L 216.31,370.18L 217.69,370.18L 219.08,370.72L 220.47,370.72L 221.85,369.65L 223.24,371.79L 224.63,371.25L 226.01,371.25L 227.40,371.79L 228.79,371.79L 230.17,371.79L 231.56,372.32L 232.94,372.32L 234.33,373.93L 235.72,373.93L 237.10,373.93L 238.49,373.39L 239.88,372.86L 241.26,373.39L 242.65,371.25L 244.03,371.25L 245.42,370.18L 246.81,369.11L 248.19,369.65L 249.58,370.18L 250.97,368.58L 252.35,371.25L 253.74,369.65L 255.12,369.11L 256.51,369.11L 257.90,368.58L 259.28,366.97L 260.67,367.51L 262.06,367.51L 263.44,367.51L 264.83,369.11L 266.21,366.97L 267.60,366.97L 268.99,366.97L 270.37,366.97L 271.76,366.97L 273.15,368.04L 274.53,366.97L 275.92,369.65L 277.31,369.11L 278.69,370.18L 280.08,369.65L 281.46,369.65L 282.85,370.18L 284.24,370.18L 285.62,369.65L 287.01,369.65L 288.40,369.65L 289.78,369.65L 291.17,366.97L 292.55,363.23L 293.94,362.16L 295.33,360.55L 296.71,359.48L 298.10,359.48L 299.49,357.34L 300.87,356.80L 302.26,359.48L 303.64,359.48L 305.03,358.94L 306.42,360.01L 307.80,353.59L 309.19,353.59L 310.58,350.38L 311.96,349.31L 313.35,348.24L 314.74,344.49L 316.12,342.35L 317.51,346.10L 318.89,342.35L 320.28,344.49L 321.67,343.96L 323.05,345.56L 324.44,343.42L 325.83,340.21L 327.21,334.33L 328.60,335.93L 329.98,331.65L 331.37,330.58L 332.76,326.30L 334.14,320.41L 335.53,316.66L 336.92,317.20L 338.30,313.99L 339.69,308.64L 341.07,303.28L 342.46,305.43L 343.85,307.03L 345.23,308.10L 346.62,301.68L 348.01,299.54L 349.39,297.40L 350.78,301.14L 352.17,299.00L 353.55,291.51L 354.94,284.55L 356.32,284.55L 357.71,284.02L 359.10,282.41L 360.48,276.52L 361.87,267.96L 363.26,268.50L 364.64,269.03L 366.03,266.36L 367.41,267.43L 368.80,266.89L 370.19,266.36L 371.57,272.78L 372.96,276.52L 374.35,280.81L 375.73,290.44L 377.12,286.69L 378.50,293.65L 379.89,300.61L 381.28,304.89L 382.66,315.06L 384.05,317.20L 385.44,320.95L 386.82,325.76L 388.21,331.65L 389.60,330.04L 390.98,331.11L 392.37,328.44L 393.75,331.11L 395.14,328.44L 396.53,330.04L 397.91,326.30L 399.30,325.76L 400.69,320.95L 402.07,301.68L 403.46,292.05L 404.84,279.74L 406.23,259.93L 407.62,239.60L 409.00,226.22L 410.39,210.70L 411.78,189.29L 413.16,166.81L 414.55,149.15L 415.93,126.67L 417.32,124.53L 418.71,124.00L 420.09,101.52L 421.48,90.81L 422.87,78.50L 424.25,66.73L 425.64,87.07L 427.02,101.52L 428.41,85.46L 429.80,78.50L 431.18,87.60L 432.57,62.98L 433.96,54.42L 435.34,43.18L 436.73,29.80L 438.12,10.00L 439.50,20.70L 440.89,17.49L 442.27,55.49L 443.66,80.65L 445.05,83.86L 446.43,74.22L 447.82,92.42L 449.21,108.48L 450.59,109.55L 451.98,102.05L 453.36,94.02L 454.75,102.05L 456.14,109.01L 457.52,124.53L 458.91,127.74L 460.30,140.05L 461.68,150.22L 463.07,148.61" id="New cases" class="line" stroke-width="1" stroke-linecap="round"><title>New cases</title></path>
	<circle cx="25.00" cy="374.06" data-y="0.16" data-x="1583539200" r="1" fill="white"><title>2020-03-07: 0</title></circle>
	<circle cx="26.39" cy="374.25" data-y="0.13" data-x="1583625600" r="1" fill="white"><title>2020-03-08: 0</title></circle>
	<circle cx="27.77" cy="373.13" data-y="0.32" data-x="1583712000" r="1" fill="white"><title>2020-03-09: 0</title></circle>
	<circle cx="29.16" cy="373.39" data-y="0.27" data-x="1583798400" r="1" fill="white"><title>2020-03-10: 0</title></circle>
	<circle cx="30.55" cy="373.39" data-y="0.27" data-x="1583884800" r="1" fill="white"><title>2020-03-11: 0</title></circle>
	<circle cx="31.93" cy="372.86" data-y="0.36" data-x="1583971200" r="1" fill="white"><title>2020-03-12: 0</title></circle>
	<circle cx="33.32" cy="372.32" data-y="0.45" data-x="1584057600" r="1" fill="white"><title>2020-03-13: 0</title></circle>
	<circle cx="34.70" cy="371.79" data-y="0.54" data-x="1584144000" r="1" fill="white"><title>2020-03-14: 1</title></circle>
	<circle cx="36.09" cy="370.18" data-y="0.81" data-x="1584230400" r="1" fill="white"><title>2020-03-15: 1</title></circle>
	<circle cx="37.48" cy="370.72" data-y="0.72" data-x="1584316800" r="1" fill="white"><title>2020-03-16: 1</title></circle>
	<circle cx="38.86" cy="369.65" data-y="0.90" data-x="1584403200" r="1" fill="white"><title>2020-03-17: 1</title></circle>
	<circle cx="40.25" cy="366.44" data-y="1.44" data-x="1584489600" r="1" fill="white"><title>2020-03-18: 1</title></circle>
	<circle cx="41.64" cy="366.44" data-y="1.44" data-x="1584576000" r="1" fill="white"><title>2020-03-19: 1</title></circle>
	<circle cx="43.02" cy="362.69" data-y="2.07" data-x="1584662400" r="1" fill="white"><title>2020-03-20: 2</title></circle>
	<circle cx="44.41" cy="361.62" data-y="2.25" data-x="1584748800" r="1" fill="white"><title>2020-03-21: 2</title></circle>
	<circle cx="45.79" cy="359.48" data-y="2.61" data-x="1584835200" r="1" fill="white"><title>2020-03-22: 3</title></circle>
	<circle cx="47.18" cy="357.87" data-y="2.88" data-x="1584921600" r="1" fill="white"><title>2020-03-23: 3</title></circle>
	<circle cx="48.57" cy="356.27" data-y="3.16" data-x="1585008000" r="1" fill="white"><title>2020-03-24: 3</title></circle>
	<circle cx="49.95" cy="356.80" data-y="3.06" data-x="1585094400" r="1" fill="white"><title>2020-03-25: 3</title></circle>
	<circle cx="51.34" cy="355.73" data-y="3.25" data-x="1585180800" r="1" fill="white"><title>2020-03-26: 3</title></circle>
	<circle cx="52.73" cy="354.13" data-y="3.52" data-x="1585267200" r="1" fill="white"><title>2020-03-27: 4</title></circle>
	<circle cx="54.11" cy="353.59" data-y="3.61" data-x="1585353600" r="1" fill="white"><title>2020-03-28: 4</title></circle>
	<circle cx="55.50" cy="349.85" data-y="4.24" data-x="1585440000" r="1" fill="white"><title>2020-03-29: 4</title></circle>
	<circle cx="56.88" cy="349.31" data-y="4.33" data-x="1585526400" r="1" fill="white"><title>2020-03-30: 4</title></circle>
	<circle cx="58.27" cy="346.63" data-y="4.78" data-x="1585612800" r="1" fill="white"><title>2020-03-31: 5</title></circle>
	<circle cx="59.66" cy="342.89" data-y="5.41" data-x="1585699200" r="1" fill="white"><title>2020-04-01: 5</title></circle>
	<circle cx="61.04" cy="341.28" data-y="5.68" data-x="1585785600" r="1" fill="white"><title>2020-04-02: 6</title></circle>
	<circle cx="62.43" cy="343.96" data-y="5.23" data-x="1585872000" r="1" fill="white"><title>2020-04-03: 5</title></circle>
	<circle cx="63.82" cy="340.21" data-y="5.86" data-x="1585958400" r="1" fill="white"><title>2020-04-04: 6</title></circle>
	<circle cx="65.20" cy="345.03" data-y="5.05" data-x="1586044800" r="1" fill="white"><title>2020-04-05: 5</title></circle>
	<circle cx="66.59" cy="346.63" data-y="4.78" data-x="1586131200" r="1" fill="white"><title>2020-04-06: 5</title></circle>
	<circle cx="67.98" cy="345.03" data-y="5.05" data-x="1586217600" r="1" fill="white"><title>2020-04-07: 5</title></circle>
	<circle cx="69.36" cy="347.17" data-y="4.69" data-x="1586304000" r="1" fill="white"><title>2020-04-08: 5</title></circle>
	<circle cx="70.75" cy="346.63" data-y="4.78" data-x="1586390400" r="1" fill="white"><title>2020-04-09: 5</title></circle>
	<circle cx="72.13" cy="343.42" data-y="5.32" data-x="1586476800" r="1" fill="white"><title>2020-04-10: 5</title></circle>
	<circle cx="73.52" cy="342.89" data-y="5.41" data-x="1586563200" r="1" fill="white"><title>2020-04-11: 5</title></circle>
	<circle cx="74.91" cy="340.75" data-y="5.77" data-x="1586649600" r="1" fill="white"><title>2020-04-12: 6</title></circle>
	<circle cx="76.29" cy="332.72" data-y="7.12" data-x="1586736000" r="1" fill="white"><title>2020-04-13: 7</title></circle>
	<circle cx="77.68" cy="334.33" data-y="6.85" data-x="1586822400" r="1" fill="white"><title>2020-04-14: 7</title></circle>
	<circle cx="79.07" cy="331.65" data-y="7.30" data-x="1586908800" r="1" fill="white"><title>2020-04-15: 7</title></circle>
	<circle cx="80.45" cy="332.18" data-y="7.21" data-x="1586995200" r="1" fill="white"><title>2020-04-16: 7</title></circle>
	<circle cx="81.84" cy="330.04" data-y="7.57" data-x="1587081600" r="1" fill="white"><title>2020-04-17: 8</title></circle>
	<circle cx="83.22" cy="330.04" data-y="7.57" data-x="1587168000" r="1" fill="white"><title>2020-04-18: 8</title></circle>
	<circle cx="84.61" cy="331.11" data-y="7.39" data-x="1587254400" r="1" fill="white"><title>2020-04-19: 7</title></circle>
	<circle cx="86.00" cy="335.40" data-y="6.67" data-x="1587340800" r="1" fill="white"><title>2020-04-20: 7</title></circle>
	<circle cx="87.38" cy="339.14" data-y="6.04" data-x="1587427200" r="1" fill="white"><title>2020-04-21: 6</title></circle>
	<circle cx="88.77" cy="341.82" data-y="5.59" data-x="1587513600" r="1" fill="white"><title>2020-04-22: 6</title></circle>
	<circle cx="90.16" cy="341.82" data-y="5.59" data-x="1587600000" r="1" fill="white"><title>2020-04-23: 6</title></circle>
	<circle cx="91.54" cy="344.49" data-y="5.14" data-x="1587686400" r="1" fill="white"><title>2020-04-24: 5</title></circle>
	<circle cx="92.93" cy="348.78" data-y="4.42" data-x="1587772800" r="1" fill="white"><title>2020-04-25: 4</title></circle>
	<circle cx="94.31" cy="343.42" data-y="5.32" data-x="1587859200" r="1" fill="white"><title>2020-04-26: 5</title></circle>
	<circle cx="95.70" cy="344.49" data-y="5.14" data-x="1587945600" r="1" fill="white"><title>2020-04-27: 5</title></circle>
	<circle cx="97.09" cy="343.42" data-y="5.32" data-x="1588032000" r="1" fill="white"><title>2020-04-28: 5</title></circle>
	<circle cx="98.47" cy="345.56" data-y="4.96" data-x="1588118400" r="1" fill="white"><title>2020-04-29: 5</title></circle>
	<circle cx="99.86" cy="348.24" data-y="4.51" data-x="1588204800" r="1" fill="white"><title>2020-04-30: 5</title></circle>
	<circle cx="101.25" cy="348.78" data-y="4.42" data-x="1588291200" r="1" fill="white"><title>2020-05-01: 4</title></circle>
	<circle cx="102.63" cy="349.31" data-y="4.33" data-x="1588377600" r="1" fill="white"><title>2020-05-02: 4</title></circle>
	<circle cx="104.02" cy="357.34" data-y="2.97" data-x="1588464000" r="1" fill="white"><title>2020-05-03: 3</title></circle>
	<circle cx="105.40" cy="360.55" data-y="2.43" data-x="1588550400" r="1" fill="white"><title>2020-05-04: 2</title></circle>
	<circle cx="106.79" cy="362.69" data-y="2.07" data-x="1588636800" r="1" fill="white"><title>2020-05-05: 2</title></circle>
	<circle cx="108.18" cy="363.76" data-y="1.89" data-x="1588723200" r="1" fill="white"><title>2020-05-06: 2</title></circle>
	<circle cx="109.56" cy="363.76" data-y="1.89" data-x="1588809600" r="1" fill="white"><title>2020-05-07: 2</title></circle>
	<circle cx="110.95" cy="365.90" data-y="1.53" data-x="1588896000" r="1" fill="white"><title>2020-05-08: 2</title></circle>
	<circle cx="112.34" cy="365.37" data-y="1.62" data-x="1588982400" r="1" fill="white"><title>2020-05-09: 2</title></circle>
	<circle cx="113.72" cy="363.76" data-y="1.89" data-x="1589068800" r="1" fill="white"><title>2020-05-10: 2</title></circle>
	<circle cx="115.11" cy="363.76" data-y="1.89" data-x="1589155200" r="1" fill="white"><title>2020-05-11: 2</title></circle>
	<circle cx="116.50" cy="362.69" data-y="2.07" data-x="1589241600" r="1" fill="white"><title>2020-05-12: 2</title></circle>
	<circle cx="117.88" cy="361.62" data-y="2.25" data-x="1589328000" r="1" fill="white"><title>2020-05-13: 2</title></circle>
	<circle cx="119.27" cy="361.62" data-y="2.25" data-x="1589414400" r="1" fill="white"><title>2020-05-14: 2</title></circle>
	<circle cx="120.65" cy="360.55" data-y="2.43" data-x="1589500800" r="1" fill="white"><title>2020-05-15: 2</title></circle>
	<circle cx="122.04" cy="360.01" data-y="2.52" data-x="1589587200" r="1" fill="white"><title>2020-05-16: 3</title></circle>
	<circle cx="123.43" cy="358.41" data-y="2.79" data-x="1589673600" r="1" fill="white"><title>2020-05-17: 3</title></circle>
	<circle cx="124.81" cy="356.27" data-y="3.16" data-x="1589760000" r="1" fill="white"><title>2020-05-18: 3</title></circle>
	<circle cx="126.20" cy="354.66" data-y="3.43" data-x="1589846400" r="1" fill="white"><title>2020-05-19: 3</title></circle>
	<circle cx="127.59" cy="356.80" data-y="3.06" data-x="1589932800" r="1" fill="white"><title>2020-05-20: 3</title></circle>
	<circle cx="128.97" cy="355.20" data-y="3.34" data-x="1590019200" r="1" fill="white"><title>2020-05-21: 3</title></circle>
	<circle cx="130.36" cy="358.94" data-y="2.70" data-x="1590105600" r="1" fill="white"><title>2020-05-22: 3</title></circle>
	<circle cx="131.74" cy="359.48" data-y="2.61" data-x="1590192000" r="1" fill="white"><title>2020-05-23: 3</title></circle>
	<circle cx="133.13" cy="363.76" data-y="1.89" data-x="1590278400" r="1" fill="white"><title>2020-05-24: 2</title></circle>
	<circle cx="134.52" cy="363.76" data-y="1.89" data-x="1590364800" r="1" fill="white"><title>2020-05-25: 2</title></circle>
	<circle cx="135.90" cy="366.97" data-y="1.35" data-x="1590451200" r="1" fill="white"><title>2020-05-26: 1</title></circle>
	<circle cx="137.29" cy="367.51" data-y="1.26" data-x="1590537600" r="1" fill="white"><title>2020-05-27: 1</title></circle>
	<circle cx="138.68" cy="369.11" data-y="0.99" data-x="1590624000" r="1" fill="white"><title>2020-05-28: 1</title></circle>
	<circle cx="140.06" cy="368.58" data-y="1.08" data-x="1590710400" r="1" fill="white"><title>2020-05-29: 1</title></circle>
	<circle cx="141.45" cy="369.65" data-y="0.90" data-x="1590796800" r="1" fill="white"><title>2020-05-30: 1</title></circle>
	<circle cx="142.83" cy="368.58" data-y="1.08" data-x="1590883200" r="1" fill="white"><title>2020-05-31: 1</title></circle>
	<circle cx="144.22" cy="370.72" data-y="0.72" data-x="1590969600" r="1" fill="white"><title>2020-06-01: 1</title></circle>
	<circle cx="145.61" cy="370.72" data-y="0.72" data-x="1591056000" r="1" fill="white"><title>2020-06-02: 1</title></circle>
	<circle cx="146.99" cy="370.18" data-y="0.81" data-x="1591142400" r="1" fill="white"><title>2020-06-03: 1</title></circle>
	<circle cx="148.38" cy="370.72" data-y="0.72" data-x="1591228800" r="1" fill="white"><title>2020-06-04: 1</title></circle>
	<circle cx="149.77" cy="371.79" data-y="0.54" data-x="1591315200" r="1" fill="white"><title>2020-06-05: 1</title></circle>
	<circle cx="151.15" cy="372.86" data-y="0.36" data-x="1591401600" r="1" fill="white"><title>2020-06-06: 0</title></circle>
	<circle cx="152.54" cy="373.93" data-y="0.18" data-x="1591488000" r="1" fill="white"><title>2020-06-07: 0</title></circle>
	<circle cx="153.93" cy="373.93" data-y="0.18" data-x="1591574400" r="1" fill="white"><title>2020-06-08: 0</title></circle>
	<circle cx="155.31" cy="373.93" data-y="0.18" data-x="1591660800" r="1" fill="white"><title>2020-06-09: 0</title></circle>
	<circle cx="156.70" cy="373.93" data-y="0.18" data-x="1591747200" r="1" fill="white"><title>2020-06-10: 0</title></circle>
	<circle cx="158.08" cy="373.93" data-y="0.18" data-x="1591833600" r="1" fill="white"><title>2020-06-11: 0</title></circle>
	<circle cx="159.47" cy="373.93" data-y="0.18" data-x="1591920000" r="1" fill="white"><title>2020-06-12: 0</title></circle>
	<circle cx="160.86" cy="373.93" data-y="0.18" data-x="1592006400" r="1" fill="white"><title>2020-06-13: 0</title></circle>
	<circle cx="162.24" cy="373.93" data-y="0.18" data-x="1592092800" r="1" fill="white"><title>2020-06-14: 0</title></circle>
	<circle cx="163.63" cy="374.46" data-y="0.09" data-x="1592179200" r="1" fill="white"><title>2020-06-15: 0</title></circle>
	<circle cx="165.02" cy="374.46" data-y="0.09" data-x="1592265600" r="1" fill="white"><title>2020-06-16: 0</title></circle>
	<circle cx="166.40" cy="375.00" data-y="0.00" data-x="1592352000" r="1" fill="white"><title>2020-06-17: 0</title></circle>
	<circle cx="167.79" cy="375.00" data-y="0.00" data-x="1592438400" r="1" fill="white"><title>2020-06-18: 0</title></circle>
	<circle cx="169.17" cy="375.00" data-y="0.00" data-x="1592524800" r="1" fill="white"><title>2020-06-19: 0</title></circle>
	<circle cx="170.56" cy="374.46" data-y="0.09" data-x="1592611200" r="1" fill="white"><title>2020-06-20: 0</title></circle>
	<circle cx="171.95" cy="374.46" data-y="0.09" data-x="1592697600" r="1" fill="white"><title>2020-06-21: 0</title></circle>
	<circle cx="173.33" cy="373.93" data-y="0.18" data-x="1592784000" r="1" fill="white"><title>2020-06-22: 0</title></circle>
	<circle cx="174.72" cy="373.93" data-y="0.18" data-x="1592870400" r="1" fill="white"><title>2020-06-23: 0</title></circle>
	<circle cx="176.11" cy="373.93" data-y="0.18" data-x="1592956800" r="1" fill="white"><title>2020-06-24: 0</title></circle>
	<circle cx="177.49" cy="373.93" data-y="0.18" data-x="1593043200" r="1" fill="white"><title>2020-06-25: 0</title></circle>
	<circle cx="178.88" cy="373.93" data-y="0.18" data-x="1593129600" r="1" fill="white"><title>2020-06-26: 0</title></circle>
	<circle cx="180.26" cy="373.39" data-y="0.27" data-x="1593216000" r="1" fill="white"><title>2020-06-27: 0</title></circle>
	<circle cx="181.65" cy="373.39" data-y="0.27" data-x="1593302400" r="1" fill="white"><title>2020-06-28: 0</title></circle>
	<circle cx="183.04" cy="373.93" data-y="0.18" data-x="1593388800" r="1" fill="white"><title>2020-06-29: 0</title></circle>
	<circle cx="184.42" cy="373.93" data-y="0.18" data-x="1593475200" r="1" fill="white"><title>2020-06-30: 0</title></circle>
	<circle cx="185.81" cy="373.93" data-y="0.18" data-x="1593561600" r="1" fill="white"><title>2020-07-01: 0</title></circle>
	<circle cx="187.20" cy="373.93" data-y="0.18" data-x="1593648000" r="1" fill="white"><title>2020-07-02: 0</title></circle>
	<circle cx="188.58" cy="372.86" data-y="0.36" data-x="1593734400" r="1" fill="white"><title>2020-07-03: 0</title></circle>
	<circle cx="189.97" cy="373.93" data-y="0.18" data-x="1593820800" r="1" fill="white"><title>2020-07-04: 0</title></circle>
	<circle cx="191.36" cy="373.93" data-y="0.18" data-x="1593907200" r="1" fill="white"><title>2020-07-05: 0</title></circle>
	<circle cx="192.74" cy="373.93" data-y="0.18" data-x="1593993600" r="1" fill="white"><title>2020-07-06: 0</title></circle>
	<circle cx="194.13" cy="373.93" data-y="0.18" data-x="1594080000" r="1" fill="white"><title>2020-07-07: 0</title></circle>
	<circle cx="195.51" cy="373.39" data-y="0.27" data-x="1594166400" r="1" fill="white"><title>2020-07-08: 0</title></circle>
	<circle cx="196.90" cy="373.39" data-y="0.27" data-x="1594252800" r="1" fill="white"><title>2020-07-09: 0</title></circle>
	<circle cx="198.29" cy="373.39" data-y="0.27" data-x="1594339200" r="1" fill="white"><title>2020-07-10: 0</title></circle>
	<circle cx="199.67" cy="372.86" data-y="0.36" data-x="1594425600" r="1" fill="white"><title>2020-07-11: 0</title></circle>
	<circle cx="201.06" cy="372.86" data-y="0.36" data-x="1594512000" r="1" fill="white"><title>2020-07-12: 0</title></circle>
	<circle cx="202.45" cy="372.86" data-y="0.36" data-x="1594598400" r="1" fill="white"><title>2020-07-13: 0</title></circle>
	<circle cx="203.83" cy="372.86" data-y="0.36" data-x="1594684800" r="1" fill="white"><title>2020-07-14: 0</title></circle>
	<circle cx="205.22" cy="371.79" data-y="0.54" data-x="1594771200" r="1" fill="white"><title>2020-07-15: 1</title></circle>
	<circle cx="206.60" cy="371.25" data-y="0.63" data-x="1594857600" r="1" fill="white"><title>2020-07-16: 1</title></circle>
	<circle cx="207.99" cy="371.79" data-y="0.54" data-x="1594944000" r="1" fill="white"><title>2020-07-17: 1</title></circle>
	<circle cx="209.38" cy="371.79" data-y="0.54" data-x="1595030400" r="1" fill="white"><title>2020-07-18: 1</title></circle>
	<circle cx="210.76" cy="371.79" data-y="0.54" data-x="1595116800" r="1" fill="white"><title>2020-07-19: 1</title></circle>
	<circle cx="212.15" cy="371.79" data-y="0.54" data-x="1595203200" r="1" fill="white"><title>2020-07-20: 1</title></circle>
	<circle cx="213.54" cy="369.11" data-y="0.99" data-x="1595289600" r="1" fill="white"><title>2020-07-21: 1</title></circle>
	<circle cx="214.92" cy="369.65" data-y="0.90" data-x="1595376000" r="1" fill="white"><title>2020-07-22: 1</title></circle>
	<circle cx="216.31" cy="370.18" data-y="0.81" data-x="1595462400" r="1" fill="white"><title>2020-07-23: 1</title></circle>
	<circle cx="217.69" cy="370.18" data-y="0.81" data-x="1595548800" r="1" fill="white"><title>2020-07-24: 1</title></circle>
	<circle cx="219.08" cy="370.72" data-y="0.72" data-x="1595635200" r="1" fill="white"><title>2020-07-25: 1</title></circle>
	<circle cx="220.47" cy="370.72" data-y="0.72" data-x="1595721600" r="1" fill="white"><title>2020-07-26: 1</title></circle>
	<circle cx="221.85" cy="369.65" data-y="0.90" data-x="1595808000" r="1" fill="white"><title>2020-07-27: 1</title></circle>
	<circle cx="223.24" cy="371.79" data-y="0.54" data-x="1595894400" r="1" fill="white"><title>2020-07-28: 1</title></circle>
	<circle cx="224.63" cy="371.25" data-y="0.63" data-x="1595980800" r="1" fill="white"><title>2020-07-29: 1</title></circle>
	<circle cx="226.01" cy="371.25" data-y="0.63" data-x="1596067200" r="1" fill="white"><title>2020-07-30: 1</title></circle>
	<circle cx="227.40" cy="371.79" data-y="0.54" data-x="1596153600" r="1" fill="white"><title>2020-07-31: 1</title></circle>
	<circle cx="228.79" cy="371.79" data-y="0.54" data-x="1596240000" r="1" fill="white"><title>2020-08-01: 1</title></circle>
	<circle cx="230.17" cy="371.79" data-y="0.54" data-x="1596326400" r="1" fill="white"><title>2020-08-02: 1</title></circle>
	<circle cx="231.56" cy="372.32" data-y="0.45" data-x="1596412800" r="1" fill="white"><title>2020-08-03: 0</title></circle>
	<circle cx="232.94" cy="372.32" data-y="0.45" data-x="1596499200" r="1" fill="white"><title>2020-08-04: 0</title></circle>
	<circle cx="234.33" cy="373.93" data-y="0.18" data-x="1596585600" r="1" fill="white"><title>2020-08-05: 0</title></circle>
	<circle cx="235.72" cy="373.93" data-y="0.18" data-x="1596672000" r="1" fill="white"><title>2020-08-06: 0</title></circle>
	<circle cx="237.10" cy="373.93" data-y="0.18" data-x="1596758400" r="1" fill="white"><title>2020-08-07: 0</title></circle>
	<circle cx="238.49" cy="373.39" data-y="0.27" data-x="1596844800" r="1" fill="white"><title>2020-08-08: 0</title></circle>
	<circle cx="239.88" cy="372.86" data-y="0.36" data-x="1596931200" r="1" fill="white"><title>2020-08-09: 0</title></circle>
	<circle cx="241.26" cy="373.39" data-y="0.27" data-x="1597017600" r="1" fill="white"><title>2020-08-10: 0</title></circle>
	<circle cx="242.65" cy="371.25" data-y="0.63" data-x="1597104000" r="1" fill="white"><title>2020-08-11: 1</title></circle>
	<circle cx="244.03" cy="371.25" data-y="0.63" data-x="1597190400" r="1" fill="white"><title>2020-08-12: 1</title></circle>
	<circle cx="245.42" cy="370.18" data-y="0.81" data-x="1597276800" r="1" fill="white"><title>2020-08-13: 1</title></circle>
	<circle cx="246.81" cy="369.11" data-y="0.99" data-x="1597363200" r="1" fill="white"><title>2020-08-14: 1</title></circle>
	<circle cx="248.19" cy="369.65" data-y="0.90" data-x="1597449600" r="1" fill="white"><title>2020-08-15: 1</title></circle>
	<circle cx="249.58" cy="370.18" data-y="0.81" data-x="1597536000" r="1" fill="white"><title>2020-08-16: 1</title></circle>
	<circle cx="250.97" cy="368.58" data-y="1.08" data-x="1597622400" r="1" fill="white"><title>2020-08-17: 1</title></circle>
	<circle cx="252.35" cy="371.25" data-y="0.63" data-x="1597708800" r="1" fill="white"><title>2020-08-18: 1</title></circle>
	<circle cx="253.74" cy="369.65" data-y="0.90" data-x="1597795200" r="1" fill="white"><title>2020-08-19: 1</title></circle>
	<circle cx="255.12" cy="369.11" data-y="0.99" data-x="1597881600" r="1" fill="white"><title>2020-08-20: 1</title></circle>
	<circle cx="256.51" cy="369.11" data-y="0.99" data-x="1597968000" r="1" fill="white"><title>2020-08-21: 1</title></circle>
	<circle cx="257.90" cy="368.58" data-y="1.08" data-x="1598054400" r="1" fill="white"><title>2020-08-22: 1</title></circle>
	<circle cx="259.28" cy="366.97" data-y="1.35" data-x="1598140800" r="1" fill="white"><title>2020-08-23: 1</title></circle>
	<circle cx="260.67" cy="367.51" data-y="1.26" data-x="1598227200" r="1" fill="white"><title>2020-08-24: 1</title></circle>
	<circle cx="262.06" cy="367.51" data-y="1.26" data-x="1598313600" r="1" fill="white"><title>2020-08-25: 1</title></circle>
	<circle cx="263.44" cy="367.51" data-y="1.26" data-x="1598400000" r="1" fill="white"><title>2020-08-26: 1</title></circle>
	<circle cx="264.83" cy="369.11" data-y="0.99" data-x="1598486400" r="1" fill="white"><title>2020-08-27: 1</title></circle>
	<circle cx="266.21" cy="366.97" data-y="1.35" data-x="1598572800" r="1" fill="white"><title>2020-08-28: 1</title></circle>
	<circle cx="267.60" cy="366.97" data-y="1.35" data-x="1598659200" r="1" fill="white"><title>2020-08-29: 1</title></circle>
	<circle cx="268.99" cy="366.97" data-y="1.35" data-x="1598745600" r="1" fill="white"><title>2020-08-30: 1</title></circle>
	<circle cx="270.37" cy="366.97" data-y="1.35" data-x="1598832000" r="1" fill="white"><title>2020-08-31: 1</title></circle>
	<circle cx="271.76" cy="366.97" data-y="1.35" data-x="1598918400" r="1" fill="white"><title>2020-09-01: 1</title></circle>
	<circle cx="273.15" cy="368.04" data-y="1.17" data-x="1599004800" r="1" fill="white"><title>2020-09-02: 1</title></circle>
	<circle cx="274.53" cy="366.97" data-y="1.35" data-x="1599091200" r="1" fill="white"><title>2020-09-03: 1</title></circle>
	<circle cx="275.92" cy="369.65" data-y="0.90" data-x="1599177600" r="1" fill="white"><title>2020-09-04: 1</title></circle>
	<circle cx="277.31" cy="369.11" data-y="0.99" data-x="1599264000" r="1" fill="white"><title>2020-09-05: 1</title></circle>
	<circle cx="278.69" cy="370.18" data-y="0.81" data-x="1599350400" r="1" fill="white"><title>2020-09-06: 1</title></circle>
	<circle cx="280.08" cy="369.65" data-y="0.90" data-x="1599436800" r="1" fill="white"><title>2020-09-07: 1</title></circle>
	<circle cx="281.46" cy="369.65" data-y="0.90" data-x="1599523200" r="1" fill="white"><title>2020-09-08: 1</title></circle>
	<circle cx="282.85" cy="370.18" data-y="0.81" data-x="1599609600" r="1" fill="white"><title>2020-09-09: 1</title></circle>
	<circle cx="284.24" cy="370.18" data-y="0.81" data-x="1599696000" r="1" fill="white"><title>2020-09-10: 1</title></circle>
	<circle cx="285.62" cy="369.65" data-y="0.90" data-x="1599782400" r="1" fill="white"><title>2020-09-11: 1</title></circle>
	<circle cx="287.01" cy="369.65" data-y="0.90" data-x="1599868800" r="1" fill="white"><title>2020-09-12: 1</title></circle>
	<circle cx="288.40" cy="369.65" data-y="0.90" data-x="1599955200" r="1" fill="white"><title>2020-09-13: 1</title></circle>
	<circle cx="289.78" cy="369.65" data-y="0.90" data-x="1600041600" r="1" fill="white"><title>2020-09-14: 1</title></circle>
	<circle cx="291.17" cy="366.97" data-y="1.35" data-x="1600128000" r="1" fill="white"><title>2020-09-15: 1</title></circle>
	<circle cx="292.55" cy="363.23" data-y="1.98" data-x="1600214400" r="1" fill="white"><title>2020-09-16: 2</title></circle>
	<circle cx="293.94" cy="362.16" data-y="2.16" data-x="1600300800" r="1" fill="white"><title>2020-09-17: 2</title></circle>
	<circle cx="295.33" cy="360.55" data-y="2.43" data-x="1600387200" r="1" fill="white"><title>2020-09-18: 2</title></circle>
	<circle cx="296.71" cy="359.48" data-y="2.61" data-x="1600473600" r="1" fill="white"><title>2020-09-19: 3</title></circle>
	<circle cx="298.10" cy="359.48" data-y="2.61" data-x="1600560000" r="1" fill="white"><title>2020-09-20: 3</title></circle>
	<circle cx="299.49" cy="357.34" data-y="2.97" data-x="1600646400" r="1" fill="white"><title>2020-09-21: 3</title></circle>
	<circle cx="300.87" cy="356.80" data-y="3.06" data-x="1600732800" r="1" fill="white"><title>2020-09-22: 3</title></circle>
	<circle cx="302.26" cy="359.48" data-y="2.61" data-x="1600819200" r="1" fill="white"><title>2020-09-23: 3</title></circle>
	<circle cx="303.64" cy="359.48" data-y="2.61" data-x="1600905600" r="1" fill="white"><title>2020-09-24: 3</title></circle>
	<circle cx="305.03" cy="358.94" data-y="2.70" data-x="1600992000" r="1" fill="white"><title>2020-09-25: 3</title></circle>
	<circle cx="306.42" cy="360.01" data-y="2.52" data-x="1601078400" r="1" fill="white"><title>2020-09-26: 3</title></circle>
	<circle cx="307.80" cy="353.59" data-y="3.61" data-x="1601164800" r="1" fill="white"><title>2020-09-27: 4</title></circle>
	<circle cx="309.19" cy="353.59" data-y="3.61" data-x="1601251200" r="1" fill="white"><title>2020-09-28: 4</title></circle>
	<circle cx="310.58" cy="350.38" data-y="4.15" data-x="1601337600" r="1" fill="white"><title>2020-09-29: 4</title></circle>
	<circle cx="311.96" cy="349.31" data-y="4.33" data-x="1601424000" r="1" fill="white"><title>2020-09-30: 4</title></circle>
	<circle cx="313.35" cy="348.24" data-y="4.51" data-x="1601510400" r="1" fill="white"><title>2020-10-01: 5</title></circle>
	<circle cx="314.74" cy="344.49" data-y="5.14" data-x="1601596800" r="1" fill="white"><title>2020-10-02: 5</title></circle>
	<circle cx="316.12" cy="342.35" data-y="5.50" data-x="1601683200" r="1" fill="white"><title>2020-10-03: 5</title></circle>
	<circle cx="317.51" cy="346.10" data-y="4.87" data-x="1601769600" r="1" fill="white"><title>2020-10-04: 5</title></circle>
	<circle cx="318.89" cy="342.35" data-y="5.50" data-x="1601856000" r="1" fill="white"><title>2020-10-05: 5</title></circle>
	<circle cx="320.28" cy="344.49" data-y="5.14" data-x="1601942400" r="1" fill="white"><title>2020-10-06: 5</title></circle>
	<circle cx="321.67" cy="343.96" data-y="5.23" data-x="1602028800" r="1" fill="white"><title>2020-10-07: 5</title></circle>
	<circle cx="323.05" cy="345.56" data-y="4.96" data-x="1602115200" r="1" fill="white"><title>2020-10-08: 5</title></circle>
	<circle cx="324.44" cy="343.42" data-y="5.32" data-x="1602201600" r="1" fill="white"><title>2020-10-09: 5</title></circle>
	<circle cx="325.83" cy="340.21" data-y="5.86" data-x="1602288000" r="1" fill="white"><title>2020-10-10: 6</title></circle>
	<circle cx="327.21" cy="334.33" data-y="6.85" data-x="1602374400" r="1" fill="white"><title>2020-10-11: 7</title></circle>
	<circle cx="328.60" cy="335.93" data-y="6.58" data-x="1602460800" r="1" fill="white"><title>2020-10-12: 7</title></circle>
	<circle cx="329.98" cy="331.65" data-y="7.30" data-x="1602547200" r="1" fill="white"><title>2020-10-13: 7</title></circle>
	<circle cx="331.37" cy="330.58" data-y="7.48" data-x="1602633600" r="1" fill="white"><title>2020-10-14: 7</title></circle>
	<circle cx="332.76" cy="326.30" data-y="8.20" data-x="1602720000" r="1" fill="white"><title>2020-10-15: 8</title></circle>
	<circle cx="334.14" cy="320.41" data-y="9.19" data-x="1602806400" r="1" fill="white"><title>2020-10-16: 9</title></circle>
	<circle cx="335.53" cy="316.66" data-y="9.83" data-x="1602892800" r="1" fill="white"><title>2020-10-17: 10</title></circle>
	<circle cx="336.92" cy="317.20" data-y="9.74" data-x="1602979200" r="1" fill="white"><title>2020-10-18: 10</title></circle>
	<circle cx="338.30" cy="313.99" data-y="10.28" data-x="1603065600" r="1" fill="white"><title>2020-10-19: 10</title></circle>
	<circle cx="339.69" cy="308.64" data-y="11.18" data-x="1603152000" r="1" fill="white"><title>2020-10-20: 11</title></circle>
	<circle cx="341.07" cy="303.28" data-y="12.08" data-x="1603238400" r="1" fill="white"><title>2020-10-21: 12</title></circle>
	<circle cx="342.46" cy="305.43" data-y="11.72" data-x="1603324800" r="1" fill="white"><title>2020-10-22: 12</title></circle>
	<circle cx="343.85" cy="307.03" data-y="11.45" data-x="1603411200" r="1" fill="white"><title>2020-10-23: 11</title></circle>
	<circle cx="345.23" cy="308.10" data-y="11.27" data-x="1603497600" r="1" fill="white"><title>2020-10-24: 11</title></circle>
	<circle cx="346.62" cy="301.68" data-y="12.35" data-x="1603584000" r="1" fill="white"><title>2020-10-25: 12</title></circle>
	<circle cx="348.01" cy="299.54" data-y="12.71" data-x="1603670400" r="1" fill="white"><title>2020-10-26: 13</title></circle>
	<circle cx="349.39" cy="297.40" data-y="13.07" data-x="1603756800" r="1" fill="white"><title>2020-10-27: 13</title></circle>
	<circle cx="350.78" cy="301.14" data-y="12.44" data-x="1603843200" r="1" fill="white"><title>2020-10-28: 12</title></circle>
	<circle cx="352.17" cy="299.00" data-y="12.80" data-x="1603929600" r="1" fill="white"><title>2020-10-29: 13</title></circle>
	<circle cx="353.55" cy="291.51" data-y="14.06" data-x="1604016000" r="1" fill="white"><title>2020-10-30: 14</title></circle>
	<circle cx="354.94" cy="284.55" data-y="15.23" data-x="1604102400" r="1" fill="white"><title>2020-10-31: 15</title></circle>
	<circle cx="356.32" cy="284.55" data-y="15.23" data-x="1604188800" r="1" fill="white"><title>2020-11-01: 15</title></circle>
	<circle cx="357.71" cy="284.02" data-y="15.32" data-x="1604275200" r="1" fill="white"><title>2020-11-02: 15</title></circle>
	<circle cx="359.10" cy="282.41" data-y="15.60" data-x="1604361600" r="1" fill="white"><title>2020-11-03: 16</title></circle>
	<circle cx="360.48" cy="276.52" data-y="16.59" data-x="1604448000" r="1" fill="white"><title>2020-11-04: 17</title></circle>
	<circle cx="361.87" cy="267.96" data-y="18.03" data-x="1604534400" r="1" fill="white"><title>2020-11-05: 18</title></circle>
	<circle cx="363.26" cy="268.50" data-y="17.94" data-x="1604620800" r="1" fill="white"><title>2020-11-06: 18</title></circle>
	<circle cx="364.64" cy="269.03" data-y="17.85" data-x="1604707200" r="1" fill="white"><title>2020-11-07: 18</title></circle>
	<circle cx="366.03" cy="266.36" data-y="18.30" data-x="1604793600" r="1" fill="white"><title>2020-11-08: 18</title></circle>
	<circle cx="367.41" cy="267.43" data-y="18.12" data-x="1604880000" r="1" fill="white"><title>2020-11-09: 18</title></circle>
	<circle cx="368.80" cy="266.89" data-y="18.21" data-x="1604966400" r="1" fill="white"><title>2020-11-10: 18</title></circle>
	<circle cx="370.19" cy="266.36" data-y="18.30" data-x="1605052800" r="1" fill="white"><title>2020-11-11: 18</title></circle>
	<circle cx="371.57" cy="272.78" data-y="17.22" data-x="1605139200" r="1" fill="white"><title>2020-11-12: 17</title></circle>
	<circle cx="372.96" cy="276.52" data-y="16.59" data-x="1605225600" r="1" fill="white"><title>2020-11-13: 17</title></circle>
	<circle cx="374.35" cy="280.81" data-y="15.87" data-x="1605312000" r="1" fill="white"><title>2020-11-14: 16</title></circle>
	<circle cx="375.73" cy="290.44" data-y="14.24" data-x="1605398400" r="1" fill="white"><title>2020-11-15: 14</title></circle>
	<circle cx="377.12" cy="286.69" data-y="14.87" data-x="1605484800" r="1" fill="white"><title>2020-11-16: 15</title></circle>
	<circle cx="378.50" cy="293.65" data-y="13.70" data-x="1605571200" r="1" fill="white"><title>2020-11-17: 14</title></circle>
	<circle cx="379.89" cy="300.61" data-y="12.53" data-x="1605657600" r="1" fill="white"><title>2020-11-18: 13</title></circle>
	<circle cx="381.28" cy="304.89" data-y="11.81" data-x="1605744000" r="1" fill="white"><title>2020-11-19: 12</title></circle>
	<circle cx="382.66" cy="315.06" data-y="10.10" data-x="1605830400" r="1" fill="white"><title>2020-11-20: 10</title></circle>
	<circle cx="384.05" cy="317.20" data-y="9.74" data-x="1605916800" r="1" fill="white"><title>2020-11-21: 10</title></circle>
	<circle cx="385.44" cy="320.95" data-y="9.10" data-x="1606003200" r="1" fill="white"><title>2020-11-22: 9</title></circle>
	<circle cx="386.82" cy="325.76" data-y="8.29" data-x="1606089600" r="1" fill="white"><title>2020-11-23: 8</title></circle>
	<circle cx="388.21" cy="331.65" data-y="7.30" data-x="1606176000" r="1" fill="white"><title>2020-11-24: 7</title></circle>
	<circle cx="389.60" cy="330.04" data-y="7.57" data-x="1606262400" r="1" fill="white"><title>2020-11-25: 8</title></circle>
	<circle cx="390.98" cy="331.11" data-y="7.39" data-x="1606348800" r="1" fill="white"><title>2020-11-26: 7</title></circle>
	<circle cx="392.37" cy="328.44" data-y="7.84" data-x="1606435200" r="1" fill="white"><title>2020-11-27: 8</title></circle>
	<circle cx="393.75" cy="331.11" data-y="7.39" data-x="1606521600" r="1" fill="white"><title>2020-11-28: 7</title></circle>
	<circle cx="395.14" cy="328.44" data-y="7.84" data-x="1606608000" r="1" fill="white"><title>2020-11-29: 8</title></circle>
	<circle cx="396.53" cy="330.04" data-y="7.57" data-x="1606694400" r="1" fill="white"><title>2020-11-30: 8</title></circle>
	<circle cx="397.91" cy="326.30" data-y="8.20" data-x="1606780800" r="1" fill="white"><title>2020-12-01: 8</title></circle>
	<circle cx="399.30" cy="325.76" data-y="8.29" data-x="1606867200" r="1" fill="white"><title>2020-12-02: 8</title></circle>
	<circle cx="400.69" cy="320.95" data-y="9.10" data-x="1606953600" r="1" fill="white"><title>2020-12-03: 9</title></circle>
	<circle cx="402.07" cy="301.68" data-y="12.35" data-x="1607040000" r="1" fill="white"><title>2020-12-04: 12</title></circle>
	<circle cx="403.46" cy="292.05" data-y="13.97" data-x="1607126400" r="1" fill="white"><title>2020-12-05: 14</title></circle>
	<circle cx="404.84" cy="279.74" data-y="16.05" data-x="1607212800" r="1" fill="white"><title>2020-12-06: 16</title></circle>
	<circle cx="406.23" cy="259.93" data-y="19.38" data-x="1607299200" r="1" fill="white"><title>2020-12-07: 19</title></circle>
	<circle cx="407.62" cy="239.60" data-y="22.81" data-x="1607385600" r="1" fill="white"><title>2020-12-08: 23</title></circle>
	<circle cx="409.00" cy="226.22" data-y="25.06" data-x="1607472000" r="1" fill="white"><title>2020-12-09: 25</title></circle>
	<circle cx="410.39" cy="210.70" data-y="27.67" data-x="1607558400" r="1" fill="white"><title>2020-12-10: 28</title></circle>
	<circle cx="411.78" cy="189.29" data-y="31.28" data-x="1607644800" r="1" fill="white"><title>2020-12-11: 31</title></circle>
	<circle cx="413.16" cy="166.81" data-y="35.07" data-x="1607731200" r="1" fill="white"><title>2020-12-12: 35</title></circle>
	<circle cx="414.55" cy="149.15" data-y="38.04" data-x="1607817600" r="1" fill="white"><title>2020-12-13: 38</title></circle>
	<circle cx="415.93" cy="126.67" data-y="41.83" data-x="1607904000" r="1" fill="white"><title>2020-12-14: 42</title></circle>
	<circle cx="417.32" cy="124.53" data-y="42.19" data-x="1607990400" r="1" fill="white"><title>2020-12-15: 42</title></circle>
	<circle cx="418.71" cy="124.00" data-y="42.28" data-x="1608076800" r="1" fill="white"><title>2020-12-16: 42</title></circle>
	<circle cx="420.09" cy="101.52" data-y="46.06" data-x="1608163200" r="1" fill="white"><title>2020-12-17: 46</title></circle>
	<circle cx="421.48" cy="90.81" data-y="47.87" data-x="1608249600" r="1" fill="white"><title>2020-12-18: 48</title></circle>
	<circle cx="422.87" cy="78.50" data-y="49.94" data-x="1608336000" r="1" fill="white"><title>2020-12-19: 50</title></circle>
	<circle cx="424.25" cy="66.73" data-y="51.92" data-x="1608422400" r="1" fill="white"><title>2020-12-20: 52</title></circle>
	<circle cx="425.64" cy="87.07" data-y="48.50" data-x="1608508800" r="1" fill="white"><title>2020-12-21: 48</title></circle>
	<circle cx="427.02" cy="101.52" data-y="46.06" data-x="1608595200" r="1" fill="white"><title>2020-12-22: 46</title></circle>
	<circle cx="428.41" cy="85.46" data-y="48.77" data-x="1608681600" r="1" fill="white"><title>2020-12-23: 49</title></circle>
	<circle cx="429.80" cy="78.50" data-y="49.94" data-x="1608768000" r="1" fill="white"><title>2020-12-24: 50</title></circle>
	<circle cx="431.18" cy="87.60" data-y="48.41" data-x="1608854400" r="1" fill="white"><title>2020-12-25: 48</title></circle>
	<circle cx="432.57" cy="62.98" data-y="52.55" data-x="1608940800" r="1" fill="white"><title>2020-12-26: 53</title></circle>
	<circle cx="433.96" cy="54.42" data-y="54.00" data-x="1609027200" r="1" fill="white"><title>2020-12-27: 54</title></circle>
	<circle cx="435.34" cy="43.18" data-y="55.89" data-x="1609113600" r="1" fill="white"><title>2020-12-28: 56</title></circle>
	<circle cx="436.73" cy="29.80" data-y="58.14" data-x="1609200000" r="1" fill="white"><title>2020-12-29: 58</title></circle>
	<circle cx="438.12" cy="10.00" data-y="61.48" data-x="1609286400" r="1" fill="white"><title>2020-12-30: 61</title></circle>
	<circle cx="439.50" cy="20.70" data-y="59.68" data-x="1609372800" r="1" fill="white"><title>2020-12-31: 60</title></circle>
	<circle cx="440.89" cy="17.49" data-y="60.22" data-x="1609459200" r="1" fill="white"><title>2021-01-01: 60</title></circle>
	<circle cx="442.27" cy="55.49" data-y="53.82" data-x="1609545600" r="1" fill="white"><title>2021-01-02: 54</title></circle>
	<circle cx="443.66" cy="80.65" data-y="49.58" data-x="1609632000" r="1" fill="white"><title>2021-01-03: 50</title></circle>
	<circle cx="445.05" cy="83.86" data-y="49.04" data-x="1609718400" r="1" fill="white"><title>2021-01-04: 49</title></circle>
	<circle cx="446.43" cy="74.22" data-y="50.66" data-x="1609804800" r="1" fill="white"><title>2021-01-05: 51</title></circle>
	<circle cx="447.82" cy="92.42" data-y="47.60" data-x="1609891200" r="1" fill="white"><title>2021-01-06: 48</title></circle>
	<circle cx="449.21" cy="108.48" data-y="44.89" data-x="1609977600" r="1" fill="white"><title>2021-01-07: 45</title></circle>
	<circle cx="450.59" cy="109.55" data-y="44.71" data-x="1610064000" r="1" fill="white"><title>2021-01-08: 45</title></circle>
	<circle cx="451.98" cy="102.05" data-y="45.97" data-x="1610150400" r="1" fill="white"><title>2021-01-09: 46</title></circle>
	<circle cx="453.36" cy="94.02" data-y="47.33" data-x="1610236800" r="1" fill="white"><title>2021-01-10: 47</title></circle>
	<circle cx="454.75" cy="102.05" data-y="45.97" data-x="1610323200" r="1" fill="white"><title>2021-01-11: 46</title></circle>
	<circle cx="456.14" cy="109.01" data-y="44.80" data-x="1610409600" r="1" fill="white"><title>2021-01-12: 45</title></circle>
	<circle cx="457.52" cy="124.53" data-y="42.19" data-x="1610496000" r="1" fill="white"><title>2021-01-13: 42</title></circle>
	<circle cx="458.91" cy="127.74" data-y="41.65" data-x="1610582400" r="1" fill="white"><title>2021-01-14: 42</title></circle>
	<circle cx="460.30" cy="140.05" data-y="39.57" data-x="1610668800" r="1" fill="white"><title>2021-01-15: 40</title></circle>
	<circle cx="461.68" cy="150.22" data-y="37.86" data-x="1610755200" r="1" fill="white"><title>2021-01-16: 38</title></circle>
	<circle cx="463.07" cy="148.61" data-y="38.13" data-x="1610841600" r="1" fill="white"><title>2021-01-17: 38</title></circle>
</g>
<g data-series="recent-cases" class="data-series">
	<path d="M 463.07,148.61L 464.45,153.43L 465.84,182.33L 467.23,177.07L 468.61,168.95L 470.00,189.56" id="Recent cases" class="line" stroke-width="1" stroke-linecap="round" stroke-dasharray="4,6" stroke-dashoffset="4"><title>Recent cases</title></path>
	<circle cx="463.07" cy="148.61" data-y="38.13" data-x="1610841600" r="2.5" fill="white"><title>2021-01-17: 38</title></circle>
	<circle cx="464.45" cy="153.43" data-y="37.32" data-x="1610928000" r="2.5" fill="white"><title>2021-01-18: 37</title></circle>
	<circle cx="465.84" cy="182.33" data-y="32.45" data-x="1611014400" r="2.5" fill="white"><title>2021-01-19: 32</title></circle>
	<circle cx="467.23" cy="177.07" data-y="33.34" data-x="1611100800" r="2.5" fill="white"><title>2021-01-20: 33</title></circle>
	<circle cx="468.61" cy="168.95" data-y="34.71" data-x="1611187200" r="2.5" fill="white"><title>2021-01-21: 35</title></circle>
	<circle cx="470.00" cy="189.56" data-y="31.24" data-x="1611273600" r="2.5" fill="white"><title>2021-01-22: 31</title></circle>
</g>
</svg>
