<svg width="480" height="400" viewBox="0 0 480 400" xmlns="http://www.w3.org/2000/svg" style="overflow:display" preserveAspectRatio="xMinYMin meet" overflow="visible">
<defs>
	<style>
	.data-series path.line { fill-opacity: 0; stroke: black; }
	.data-series path.line.dotted { stroke-dasharray: 12 20 }
	.data-series:hover path.line, .data-series.on path.line { stroke-width: 1; }
	.data-series:hover circle, .data-series.on circle { display: inline; }
	.graph-grid { font-family: "Helvetica Neue",Helvetica,Arial,"Lucida Grande",sans-serif; }
	.graph-grid line { stroke: black; stroke-width: 1; stroke-linecap: round; }
	.graph-grid.graph-grid-x text { text-anchor: middle; dominant-baseline: hanging; transform: translateY(10px); }
	.graph-grid.graph-grid-y text { text-anchor: end; dominant-baseline: middle; transform: translateX(-10px); }
	</style>
</defs>
<g class="graph-grid graph-grid-y">
	<line x1="25.00" y1="375.00" x2="470.00" y2="375.00" data-left="25"></line>
	<text x="35" y="375" text-anchor="end">0</text>
	<text x="35" y="248.028015756687" text-anchor="end">50</text>
	<text x="35" y="121.056031513375" text-anchor="end">100</text>
	<text style="text-anchor:middle;dominant-baseline:hanging;font-weight:bold;transform: translateY(192.5px) rotate(-90deg);"></text>
</g>
<g class="graph-grid graph-grid-x">
	<line class="tick" x1="65.45" y1="375.00" x2="65.45" y2="380.00"></line>
	<text x="65.4545454545455" y="375" text-anchor="middle">A</text>
	<line class="tick" x1="107.30" y1="375.00" x2="107.30" y2="380.00"></line>
	<text x="107.30407523511" y="375" text-anchor="middle">M</text>
	<line class="tick" x1="150.55" y1="375.00" x2="150.55" y2="380.00"></line>
	<text x="150.548589341693" y="375" text-anchor="middle">J</text>
	<line class="tick" x1="192.40" y1="375.00" x2="192.40" y2="380.00"></line>
	<text x="192.398119122257" y="375" text-anchor="middle">J</text>
	<line class="tick" x1="235.64" y1="375.00" x2="235.64" y2="380.00"></line>
	<text x="235.64263322884" y="375" text-anchor="middle">A</text>
	<line class="tick" x1="278.89" y1="375.00" x2="278.89" y2="380.00"></line>
	<text x="278.887147335423" y="375" text-anchor="middle">S</text>
	<line class="tick" x1="320.74" y1="375.00" x2="320.74" y2="380.00"></line>
	<text x="320.736677115987" y="375" text-anchor="middle">O</text>
	<line class="tick" x1="363.98" y1="375.00" x2="363.98" y2="380.00"></line>
	<text x="363.981191222571" y="375" text-anchor="middle">N</text>
	<line class="tick" x1="405.83" y1="375.00" x2="405.83" y2="380.00"></line>
	<text x="405.830721003135" y="375" text-anchor="middle">D</text>
	<line class="tick" x1="449.08" y1="375.00" x2="449.08" y2="380.00"></line>
	<text x="449.075235109718" y="375" text-anchor="middle">J</text>
	<text style="text-anchor:middle;dominant-baseline:hanging;font-weight:bold;transform: translateY(192.5px) rotate(-90deg);"></text>
</g>
<g data-series="widespread" class="data-series">
	<path d="M 25.00,357.22L 470.00,357.22" id="E06000042-level-0" class="line" stroke-width="1" stroke-linecap="round" stroke-dasharray="3,3" fill-opacity="0.3" opacity="0.3"><title>Widespread</title></path>
</g>
<g data-series="substantial" class="data-series">
	<path d="M 25.00,364.84L 470.00,364.84" id="E06000042-level-1" class="line" stroke-width="1" stroke-linecap="round" stroke-dasharray="3,3" fill-opacity="0.3" opacity="0.3"><title>Substantial</title></path>
</g>
<g data-series="moderate" class="data-series">
	<path d="M 25.00,372.46L 470.00,372.46" id="E06000042-level-2" class="line" stroke-width="1" stroke-linecap="round" stroke-dasharray="3,3" fill-opacity="0.3" opacity="0.3"><title>Moderate</title></path>
</g>
<g data-series="new-cases" class="data-series">
	<path d="M 25.00,374.53L 26.39,374.63L 27.79,374.69L 29.18,374.73L 30.58,374.87L 31.97,374.87L 33.37,374.73L 34.76,374.87L 36.16,374.73L 37.55,374.60L 38.95,374.60L 40.34,374.20L 41.74,372.59L 43.13,371.92L 44.53,371.66L 45.92,371.26L 47.32,371.12L 48.71,368.05L 50.11,366.57L 51.50,366.84L 52.90,366.71L 54.29,365.64L 55.69,364.84L 57.08,363.77L 58.48,364.97L 59.87,364.57L 61.27,364.03L 62.66,363.36L 64.06,363.10L 65.45,363.10L 66.85,361.63L 68.24,360.96L 69.64,360.69L 71.03,360.96L 72.43,360.82L 73.82,360.15L 75.22,359.62L 76.61,361.49L 78.01,362.03L 79.40,362.43L 80.80,362.43L 82.19,362.03L 83.59,362.56L 84.98,363.77L 86.38,363.77L 87.77,364.84L 89.17,364.84L 90.56,362.56L 91.96,361.89L 93.35,361.63L 94.75,361.22L 96.14,360.15L 97.54,357.75L 98.93,358.28L 100.33,357.08L 101.72,356.94L 103.12,357.75L 104.51,357.75L 105.91,357.61L 107.30,359.08L 108.70,358.15L 110.09,362.16L 111.49,363.36L 112.88,363.23L 114.28,363.77L 115.67,365.64L 117.07,366.84L 118.46,368.71L 119.86,369.12L 121.25,370.05L 122.65,370.59L 124.04,370.72L 125.44,370.85L 126.83,371.52L 128.23,371.66L 129.62,371.66L 131.02,371.66L 132.41,371.92L 133.81,372.19L 135.20,371.79L 136.60,371.79L 137.99,372.06L 139.39,372.59L 140.78,372.99L 142.18,373.40L 143.57,373.26L 144.97,373.80L 146.36,373.40L 147.76,373.66L 149.15,373.80L 150.55,373.93L 151.94,373.66L 153.34,373.66L 154.73,373.66L 156.13,373.93L 157.52,373.53L 158.92,373.26L 160.31,372.86L 161.71,372.46L 163.10,372.59L 164.50,372.33L 165.89,372.19L 167.29,371.79L 168.68,371.66L 170.08,372.33L 171.47,372.33L 172.87,372.33L 174.26,370.99L 175.66,370.59L 177.05,371.26L 178.45,371.52L 179.84,371.52L 181.24,371.79L 182.63,371.92L 184.03,373.53L 185.42,374.06L 186.82,374.06L 188.21,374.20L 189.61,374.06L 191.00,374.47L 192.40,374.33L 193.79,374.06L 195.19,374.20L 196.58,374.33L 197.98,374.20L 199.37,374.20L 200.77,374.20L 202.16,374.20L 203.56,374.20L 204.95,374.20L 206.35,374.06L 207.74,374.06L 209.14,374.20L 210.53,374.33L 211.93,374.47L 213.32,374.73L 214.72,374.47L 216.11,374.47L 217.51,374.47L 218.90,374.33L 220.30,374.20L 221.69,373.66L 223.09,373.53L 224.48,373.40L 225.88,373.53L 227.27,373.66L 228.67,373.53L 230.06,373.40L 231.46,373.93L 232.85,374.06L 234.25,373.66L 235.64,373.26L 237.04,372.86L 238.43,372.33L 239.83,371.79L 241.22,371.79L 242.62,371.52L 244.01,371.26L 245.41,371.39L 246.80,371.52L 248.20,372.06L 249.59,372.06L 250.99,371.92L 252.38,371.92L 253.78,372.46L 255.17,372.19L 256.57,372.06L 257.96,371.66L 259.36,371.92L 260.75,371.52L 262.15,371.12L 263.54,371.12L 264.94,371.26L 266.33,371.39L 267.73,371.79L 269.12,372.06L 270.52,372.06L 271.91,372.46L 273.31,372.59L 274.70,372.33L 276.10,371.39L 277.49,370.45L 278.89,369.78L 280.28,369.92L 281.68,370.05L 283.07,369.12L 284.47,368.85L 285.86,369.65L 287.26,369.25L 288.65,369.92L 290.05,369.65L 291.44,369.65L 292.84,370.32L 294.23,369.78L 295.63,368.85L 297.02,369.92L 298.42,369.38L 299.81,369.12L 301.21,368.05L 302.60,367.11L 304.00,367.64L 305.39,366.98L 306.79,366.44L 308.18,366.84L 309.58,367.51L 310.97,366.84L 312.37,366.57L 313.76,365.91L 315.16,365.37L 316.55,364.97L 317.95,362.96L 319.34,360.96L 320.74,360.82L 322.13,359.49L 323.53,359.22L 324.92,358.15L 326.32,355.47L 327.71,355.34L 329.11,356.01L 330.50,356.41L 331.90,356.68L 333.29,354.67L 334.69,354.94L 336.08,356.94L 337.48,355.47L 338.87,353.73L 340.27,353.87L 341.66,352.26L 343.06,349.99L 344.45,347.72L 345.85,344.10L 347.24,342.50L 348.64,340.63L 350.03,337.42L 351.43,334.21L 352.82,335.01L 354.22,336.08L 355.61,335.95L 357.01,334.21L 358.40,332.60L 359.80,333.14L 361.19,332.33L 362.59,331.13L 363.98,329.93L 365.38,328.05L 366.77,329.12L 368.17,331.93L 369.56,329.53L 370.96,325.65L 372.35,323.91L 373.75,319.63L 375.14,315.08L 376.54,310.93L 377.93,306.65L 379.33,304.38L 380.72,305.18L 382.12,302.91L 383.51,303.71L 384.91,309.06L 386.30,310.53L 387.70,312.81L 389.09,315.62L 390.49,320.03L 391.88,322.97L 393.28,324.71L 394.67,325.91L 396.07,322.70L 397.46,322.97L 398.86,322.04L 400.25,318.02L 401.65,314.41L 403.04,312.27L 404.44,310.27L 405.83,312.27L 407.23,307.99L 408.62,303.18L 410.02,298.90L 411.41,296.49L 412.81,289.40L 414.20,279.10L 415.60,264.12L 416.99,254.76L 418.39,246.87L 419.78,229.62L 421.18,210.89L 422.57,191.50L 423.97,165.55L 425.36,136.53L 426.76,125.56L 428.15,105.50L 429.55,73.93L 430.94,58.42L 432.34,49.86L 433.73,59.62L 435.13,92.79L 436.52,81.15L 437.92,81.02L 439.31,103.36L 440.71,73.13L 442.10,52.53L 443.50,45.58L 444.89,33.41L 446.29,28.19L 447.68,25.11L 449.08,10.00L 450.47,37.69L 451.87,65.51L 453.26,68.58L 454.66,62.96L 456.05,83.29L 457.45,102.42L 458.84,125.69L 460.24,142.68L 461.63,147.36L 463.03,155.92" id="New cases" class="line" stroke-width="1" stroke-linecap="round"><title>New cases</title></path>
	<circle cx="25.00" cy="374.53" data-y="0.18" data-x="1583193600" r="1" fill="white"><title>2020-03-03: 0</title></circle>
	<circle cx="26.39" cy="374.63" data-y="0.15" data-x="1583280000" r="1" fill="white"><title>2020-03-04: 0</title></circle>
	<circle cx="27.79" cy="374.69" data-y="0.12" data-x="1583366400" r="1" fill="white"><title>2020-03-05: 0</title></circle>
	<circle cx="29.18" cy="374.73" data-y="0.11" data-x="1583452800" r="1" fill="white"><title>2020-03-06: 0</title></circle>
	<circle cx="30.58" cy="374.87" data-y="0.05" data-x="1583539200" r="1" fill="white"><title>2020-03-07: 0</title></circle>
	<circle cx="31.97" cy="374.87" data-y="0.05" data-x="1583625600" r="1" fill="white"><title>2020-03-08: 0</title></circle>
	<circle cx="33.37" cy="374.73" data-y="0.11" data-x="1583712000" r="1" fill="white"><title>2020-03-09: 0</title></circle>
	<circle cx="34.76" cy="374.87" data-y="0.05" data-x="1583798400" r="1" fill="white"><title>2020-03-10: 0</title></circle>
	<circle cx="36.16" cy="374.73" data-y="0.11" data-x="1583884800" r="1" fill="white"><title>2020-03-11: 0</title></circle>
	<circle cx="37.55" cy="374.60" data-y="0.16" data-x="1583971200" r="1" fill="white"><title>2020-03-12: 0</title></circle>
	<circle cx="38.95" cy="374.60" data-y="0.16" data-x="1584057600" r="1" fill="white"><title>2020-03-13: 0</title></circle>
	<circle cx="40.34" cy="374.20" data-y="0.32" data-x="1584144000" r="1" fill="white"><title>2020-03-14: 0</title></circle>
	<circle cx="41.74" cy="372.59" data-y="0.95" data-x="1584230400" r="1" fill="white"><title>2020-03-15: 1</title></circle>
	<circle cx="43.13" cy="371.92" data-y="1.21" data-x="1584316800" r="1" fill="white"><title>2020-03-16: 1</title></circle>
	<circle cx="44.53" cy="371.66" data-y="1.32" data-x="1584403200" r="1" fill="white"><title>2020-03-17: 1</title></circle>
	<circle cx="45.92" cy="371.26" data-y="1.47" data-x="1584489600" r="1" fill="white"><title>2020-03-18: 1</title></circle>
	<circle cx="47.32" cy="371.12" data-y="1.53" data-x="1584576000" r="1" fill="white"><title>2020-03-19: 2</title></circle>
	<circle cx="48.71" cy="368.05" data-y="2.74" data-x="1584662400" r="1" fill="white"><title>2020-03-20: 3</title></circle>
	<circle cx="50.11" cy="366.57" data-y="3.32" data-x="1584748800" r="1" fill="white"><title>2020-03-21: 3</title></circle>
	<circle cx="51.50" cy="366.84" data-y="3.21" data-x="1584835200" r="1" fill="white"><title>2020-03-22: 3</title></circle>
	<circle cx="52.90" cy="366.71" data-y="3.27" data-x="1584921600" r="1" fill="white"><title>2020-03-23: 3</title></circle>
	<circle cx="54.29" cy="365.64" data-y="3.69" data-x="1585008000" r="1" fill="white"><title>2020-03-24: 4</title></circle>
	<circle cx="55.69" cy="364.84" data-y="4.00" data-x="1585094400" r="1" fill="white"><title>2020-03-25: 4</title></circle>
	<circle cx="57.08" cy="363.77" data-y="4.42" data-x="1585180800" r="1" fill="white"><title>2020-03-26: 4</title></circle>
	<circle cx="58.48" cy="364.97" data-y="3.95" data-x="1585267200" r="1" fill="white"><title>2020-03-27: 4</title></circle>
	<circle cx="59.87" cy="364.57" data-y="4.11" data-x="1585353600" r="1" fill="white"><title>2020-03-28: 4</title></circle>
	<circle cx="61.27" cy="364.03" data-y="4.32" data-x="1585440000" r="1" fill="white"><title>2020-03-29: 4</title></circle>
	<circle cx="62.66" cy="363.36" data-y="4.58" data-x="1585526400" r="1" fill="white"><title>2020-03-30: 5</title></circle>
	<circle cx="64.06" cy="363.10" data-y="4.69" data-x="1585612800" r="1" fill="white"><title>2020-03-31: 5</title></circle>
	<circle cx="65.45" cy="363.10" data-y="4.69" data-x="1585699200" r="1" fill="white"><title>2020-04-01: 5</title></circle>
	<circle cx="66.85" cy="361.63" data-y="5.27" data-x="1585785600" r="1" fill="white"><title>2020-04-02: 5</title></circle>
	<circle cx="68.24" cy="360.96" data-y="5.53" data-x="1585872000" r="1" fill="white"><title>2020-04-03: 6</title></circle>
	<circle cx="69.64" cy="360.69" data-y="5.64" data-x="1585958400" r="1" fill="white"><title>2020-04-04: 6</title></circle>
	<circle cx="71.03" cy="360.96" data-y="5.53" data-x="1586044800" r="1" fill="white"><title>2020-04-05: 6</title></circle>
	<circle cx="72.43" cy="360.82" data-y="5.58" data-x="1586131200" r="1" fill="white"><title>2020-04-06: 6</title></circle>
	<circle cx="73.82" cy="360.15" data-y="5.85" data-x="1586217600" r="1" fill="white"><title>2020-04-07: 6</title></circle>
	<circle cx="75.22" cy="359.62" data-y="6.06" data-x="1586304000" r="1" fill="white"><title>2020-04-08: 6</title></circle>
	<circle cx="76.61" cy="361.49" data-y="5.32" data-x="1586390400" r="1" fill="white"><title>2020-04-09: 5</title></circle>
	<circle cx="78.01" cy="362.03" data-y="5.11" data-x="1586476800" r="1" fill="white"><title>2020-04-10: 5</title></circle>
	<circle cx="79.40" cy="362.43" data-y="4.95" data-x="1586563200" r="1" fill="white"><title>2020-04-11: 5</title></circle>
	<circle cx="80.80" cy="362.43" data-y="4.95" data-x="1586649600" r="1" fill="white"><title>2020-04-12: 5</title></circle>
	<circle cx="82.19" cy="362.03" data-y="5.11" data-x="1586736000" r="1" fill="white"><title>2020-04-13: 5</title></circle>
	<circle cx="83.59" cy="362.56" data-y="4.90" data-x="1586822400" r="1" fill="white"><title>2020-04-14: 5</title></circle>
	<circle cx="84.98" cy="363.77" data-y="4.42" data-x="1586908800" r="1" fill="white"><title>2020-04-15: 4</title></circle>
	<circle cx="86.38" cy="363.77" data-y="4.42" data-x="1586995200" r="1" fill="white"><title>2020-04-16: 4</title></circle>
	<circle cx="87.77" cy="364.84" data-y="4.00" data-x="1587081600" r="1" fill="white"><title>2020-04-17: 4</title></circle>
	<circle cx="89.17" cy="364.84" data-y="4.00" data-x="1587168000" r="1" fill="white"><title>2020-04-18: 4</title></circle>
	<circle cx="90.56" cy="362.56" data-y="4.90" data-x="1587254400" r="1" fill="white"><title>2020-04-19: 5</title></circle>
	<circle cx="91.96" cy="361.89" data-y="5.16" data-x="1587340800" r="1" fill="white"><title>2020-04-20: 5</title></circle>
	<circle cx="93.35" cy="361.63" data-y="5.27" data-x="1587427200" r="1" fill="white"><title>2020-04-21: 5</title></circle>
	<circle cx="94.75" cy="361.22" data-y="5.42" data-x="1587513600" r="1" fill="white"><title>2020-04-22: 5</title></circle>
	<circle cx="96.14" cy="360.15" data-y="5.85" data-x="1587600000" r="1" fill="white"><title>2020-04-23: 6</title></circle>
	<circle cx="97.54" cy="357.75" data-y="6.79" data-x="1587686400" r="1" fill="white"><title>2020-04-24: 7</title></circle>
	<circle cx="98.93" cy="358.28" data-y="6.58" data-x="1587772800" r="1" fill="white"><title>2020-04-25: 7</title></circle>
	<circle cx="100.33" cy="357.08" data-y="7.06" data-x="1587859200" r="1" fill="white"><title>2020-04-26: 7</title></circle>
	<circle cx="101.72" cy="356.94" data-y="7.11" data-x="1587945600" r="1" fill="white"><title>2020-04-27: 7</title></circle>
	<circle cx="103.12" cy="357.75" data-y="6.79" data-x="1588032000" r="1" fill="white"><title>2020-04-28: 7</title></circle>
	<circle cx="104.51" cy="357.75" data-y="6.79" data-x="1588118400" r="1" fill="white"><title>2020-04-29: 7</title></circle>
	<circle cx="105.91" cy="357.61" data-y="6.85" data-x="1588204800" r="1" fill="white"><title>2020-04-30: 7</title></circle>
	<circle cx="107.30" cy="359.08" data-y="6.27" data-x="1588291200" r="1" fill="white"><title>2020-05-01: 6</title></circle>
	<circle cx="108.70" cy="358.15" data-y="6.64" data-x="1588377600" r="1" fill="white"><title>2020-05-02: 7</title></circle>
	<circle cx="110.09" cy="362.16" data-y="5.06" data-x="1588464000" r="1" fill="white"><title>2020-05-03: 5</title></circle>
	<circle cx="111.49" cy="363.36" data-y="4.58" data-x="1588550400" r="1" fill="white"><title>2020-05-04: 5</title></circle>
	<circle cx="112.88" cy="363.23" data-y="4.63" data-x="1588636800" r="1" fill="white"><title>2020-05-05: 5</title></circle>
	<circle cx="114.28" cy="363.77" data-y="4.42" data-x="1588723200" r="1" fill="white"><title>2020-05-06: 4</title></circle>
	<circle cx="115.67" cy="365.64" data-y="3.69" data-x="1588809600" r="1" fill="white"><title>2020-05-07: 4</title></circle>
	<circle cx="117.07" cy="366.84" data-y="3.21" data-x="1588896000" r="1" fill="white"><title>2020-05-08: 3</title></circle>
	<circle cx="118.46" cy="368.71" data-y="2.48" data-x="1588982400" r="1" fill="white"><title>2020-05-09: 2</title></circle>
	<circle cx="119.86" cy="369.12" data-y="2.32" data-x="1589068800" r="1" fill="white"><title>2020-05-10: 2</title></circle>
	<circle cx="121.25" cy="370.05" data-y="1.95" data-x="1589155200" r="1" fill="white"><title>2020-05-11: 2</title></circle>
	<circle cx="122.65" cy="370.59" data-y="1.74" data-x="1589241600" r="1" fill="white"><title>2020-05-12: 2</title></circle>
	<circle cx="124.04" cy="370.72" data-y="1.69" data-x="1589328000" r="1" fill="white"><title>2020-05-13: 2</title></circle>
	<circle cx="125.44" cy="370.85" data-y="1.63" data-x="1589414400" r="1" fill="white"><title>2020-05-14: 2</title></circle>
	<circle cx="126.83" cy="371.52" data-y="1.37" data-x="1589500800" r="1" fill="white"><title>2020-05-15: 1</title></circle>
	<circle cx="128.23" cy="371.66" data-y="1.32" data-x="1589587200" r="1" fill="white"><title>2020-05-16: 1</title></circle>
	<circle cx="129.62" cy="371.66" data-y="1.32" data-x="1589673600" r="1" fill="white"><title>2020-05-17: 1</title></circle>
	<circle cx="131.02" cy="371.66" data-y="1.32" data-x="1589760000" r="1" fill="white"><title>2020-05-18: 1</title></circle>
	<circle cx="132.41" cy="371.92" data-y="1.21" data-x="1589846400" r="1" fill="white"><title>2020-05-19: 1</title></circle>
	<circle cx="133.81" cy="372.19" data-y="1.11" data-x="1589932800" r="1" fill="white"><title>2020-05-20: 1</title></circle>
	<circle cx="135.20" cy="371.79" data-y="1.26" data-x="1590019200" r="1" fill="white"><title>2020-05-21: 1</title></circle>
	<circle cx="136.60" cy="371.79" data-y="1.26" data-x="1590105600" r="1" fill="white"><title>2020-05-22: 1</title></circle>
	<circle cx="137.99" cy="372.06" data-y="1.16" data-x="1590192000" r="1" fill="white"><title>2020-05-23: 1</title></circle>
	<circle cx="139.39" cy="372.59" data-y="0.95" data-x="1590278400" r="1" fill="white"><title>2020-05-24: 1</title></circle>
	<circle cx="140.78" cy="372.99" data-y="0.79" data-x="1590364800" r="1" fill="white"><title>2020-05-25: 1</title></circle>
	<circle cx="142.18" cy="373.40" data-y="0.63" data-x="1590451200" r="1" fill="white"><title>2020-05-26: 1</title></circle>
	<circle cx="143.57" cy="373.26" data-y="0.68" data-x="1590537600" r="1" fill="white"><title>2020-05-27: 1</title></circle>
	<circle cx="144.97" cy="373.80" data-y="0.47" data-x="1590624000" r="1" fill="white"><title>2020-05-28: 0</title></circle>
	<circle cx="146.36" cy="373.40" data-y="0.63" data-x="1590710400" r="1" fill="white"><title>2020-05-29: 1</title></circle>
	<circle cx="147.76" cy="373.66" data-y="0.53" data-x="1590796800" r="1" fill="white"><title>2020-05-30: 1</title></circle>
	<circle cx="149.15" cy="373.80" data-y="0.47" data-x="1590883200" r="1" fill="white"><title>2020-05-31: 0</title></circle>
	<circle cx="150.55" cy="373.93" data-y="0.42" data-x="1590969600" r="1" fill="white"><title>2020-06-01: 0</title></circle>
	<circle cx="151.94" cy="373.66" data-y="0.53" data-x="1591056000" r="1" fill="white"><title>2020-06-02: 1</title></circle>
	<circle cx="153.34" cy="373.66" data-y="0.53" data-x="1591142400" r="1" fill="white"><title>2020-06-03: 1</title></circle>
	<circle cx="154.73" cy="373.66" data-y="0.53" data-x="1591228800" r="1" fill="white"><title>2020-06-04: 1</title></circle>
	<circle cx="156.13" cy="373.93" data-y="0.42" data-x="1591315200" r="1" fill="white"><title>2020-06-05: 0</title></circle>
	<circle cx="157.52" cy="373.53" data-y="0.58" data-x="1591401600" r="1" fill="white"><title>2020-06-06: 1</title></circle>
	<circle cx="158.92" cy="373.26" data-y="0.68" data-x="1591488000" r="1" fill="white"><title>2020-06-07: 1</title></circle>
	<circle cx="160.31" cy="372.86" data-y="0.84" data-x="1591574400" r="1" fill="white"><title>2020-06-08: 1</title></circle>
	<circle cx="161.71" cy="372.46" data-y="1.00" data-x="1591660800" r="1" fill="white"><title>2020-06-09: 1</title></circle>
	<circle cx="163.10" cy="372.59" data-y="0.95" data-x="1591747200" r="1" fill="white"><title>2020-06-10: 1</title></circle>
	<circle cx="164.50" cy="372.33" data-y="1.05" data-x="1591833600" r="1" fill="white"><title>2020-06-11: 1</title></circle>
	<circle cx="165.89" cy="372.19" data-y="1.11" data-x="1591920000" r="1" fill="white"><title>2020-06-12: 1</title></circle>
	<circle cx="167.29" cy="371.79" data-y="1.26" data-x="1592006400" r="1" fill="white"><title>2020-06-13: 1</title></circle>
	<circle cx="168.68" cy="371.66" data-y="1.32" data-x="1592092800" r="1" fill="white"><title>2020-06-14: 1</title></circle>
	<circle cx="170.08" cy="372.33" data-y="1.05" data-x="1592179200" r="1" fill="white"><title>2020-06-15: 1</title></circle>
	<circle cx="171.47" cy="372.33" data-y="1.05" data-x="1592265600" r="1" fill="white"><title>2020-06-16: 1</title></circle>
	<circle cx="172.87" cy="372.33" data-y="1.05" data-x="1592352000" r="1" fill="white"><title>2020-06-17: 1</title></circle>
	<circle cx="174.26" cy="370.99" data-y="1.58" data-x="1592438400" r="1" fill="white"><title>2020-06-18: 2</title></circle>
	<circle cx="175.66" cy="370.59" data-y="1.74" data-x="1592524800" r="1" fill="white"><title>2020-06-19: 2</title></circle>
	<circle cx="177.05" cy="371.26" data-y="1.47" data-x="1592611200" r="1" fill="white"><title>2020-06-20: 1</title></circle>
	<circle cx="178.45" cy="371.52" data-y="1.37" data-x="1592697600" r="1" fill="white"><title>2020-06-21: 1</title></circle>
	<circle cx="179.84" cy="371.52" data-y="1.37" data-x="1592784000" r="1" fill="white"><title>2020-06-22: 1</title></circle>
	<circle cx="181.24" cy="371.79" data-y="1.26" data-x="1592870400" r="1" fill="white"><title>2020-06-23: 1</title></circle>
	<circle cx="182.63" cy="371.92" data-y="1.21" data-x="1592956800" r="1" fill="white"><title>2020-06-24: 1</title></circle>
	<circle cx="184.03" cy="373.53" data-y="0.58" data-x="1593043200" r="1" fill="white"><title>2020-06-25: 1</title></circle>
	<circle cx="185.42" cy="374.06" data-y="0.37" data-x="1593129600" r="1" fill="white"><title>2020-06-26: 0</title></circle>
	<circle cx="186.82" cy="374.06" data-y="0.37" data-x="1593216000" r="1" fill="white"><title>2020-06-27: 0</title></circle>
	<circle cx="188.21" cy="374.20" data-y="0.32" data-x="1593302400" r="1" fill="white"><title>2020-06-28: 0</title></circle>
	<circle cx="189.61" cy="374.06" data-y="0.37" data-x="1593388800" r="1" fill="white"><title>2020-06-29: 0</title></circle>
	<circle cx="191.00" cy="374.47" data-y="0.21" data-x="1593475200" r="1" fill="white"><title>2020-06-30: 0</title></circle>
	<circle cx="192.40" cy="374.33" data-y="0.26" data-x="1593561600" r="1" fill="white"><title>2020-07-01: 0</title></circle>
	<circle cx="193.79" cy="374.06" data-y="0.37" data-x="1593648000" r="1" fill="white"><title>2020-07-02: 0</title></circle>
	<circle cx="195.19" cy="374.20" data-y="0.32" data-x="1593734400" r="1" fill="white"><title>2020-07-03: 0</title></circle>
	<circle cx="196.58" cy="374.33" data-y="0.26" data-x="1593820800" r="1" fill="white"><title>2020-07-04: 0</title></circle>
	<circle cx="197.98" cy="374.20" data-y="0.32" data-x="1593907200" r="1" fill="white"><title>2020-07-05: 0</title></circle>
	<circle cx="199.37" cy="374.20" data-y="0.32" data-x="1593993600" r="1" fill="white"><title>2020-07-06: 0</title></circle>
	<circle cx="200.77" cy="374.20" data-y="0.32" data-x="1594080000" r="1" fill="white"><title>2020-07-07: 0</title></circle>
	<circle cx="202.16" cy="374.20" data-y="0.32" data-x="1594166400" r="1" fill="white"><title>2020-07-08: 0</title></circle>
	<circle cx="203.56" cy="374.20" data-y="0.32" data-x="1594252800" r="1" fill="white"><title>2020-07-09: 0</title></circle>
	<circle cx="204.95" cy="374.20" data-y="0.32" data-x="1594339200" r="1" fill="white"><title>2020-07-10: 0</title></circle>
	<circle cx="206.35" cy="374.06" data-y="0.37" data-x="1594425600" r="1" fill="white"><title>2020-07-11: 0</title></circle>
	<circle cx="207.74" cy="374.06" data-y="0.37" data-x="1594512000" r="1" fill="white"><title>2020-07-12: 0</title></circle>
	<circle cx="209.14" cy="374.20" data-y="0.32" data-x="1594598400" r="1" fill="white"><title>2020-07-13: 0</title></circle>
	<circle cx="210.53" cy="374.33" data-y="0.26" data-x="1594684800" r="1" fill="white"><title>2020-07-14: 0</title></circle>
	<circle cx="211.93" cy="374.47" data-y="0.21" data-x="1594771200" r="1" fill="white"><title>2020-07-15: 0</title></circle>
	<circle cx="213.32" cy="374.73" data-y="0.11" data-x="1594857600" r="1" fill="white"><title>2020-07-16: 0</title></circle>
	<circle cx="214.72" cy="374.47" data-y="0.21" data-x="1594944000" r="1" fill="white"><title>2020-07-17: 0</title></circle>
	<circle cx="216.11" cy="374.47" data-y="0.21" data-x="1595030400" r="1" fill="white"><title>2020-07-18: 0</title></circle>
	<circle cx="217.51" cy="374.47" data-y="0.21" data-x="1595116800" r="1" fill="white"><title>2020-07-19: 0</title></circle>
	<circle cx="218.90" cy="374.33" data-y="0.26" data-x="1595203200" r="1" fill="white"><title>2020-07-20: 0</title></circle>
	<circle cx="220.30" cy="374.20" data-y="0.32" data-x="1595289600" r="1" fill="white"><title>2020-07-21: 0</title></circle>
	<circle cx="221.69" cy="373.66" data-y="0.53" data-x="1595376000" r="1" fill="white"><title>2020-07-22: 1</title></circle>
	<circle cx="223.09" cy="373.53" data-y="0.58" data-x="1595462400" r="1" fill="white"><title>2020-07-23: 1</title></circle>
	<circle cx="224.48" cy="373.40" data-y="0.63" data-x="1595548800" r="1" fill="white"><title>2020-07-24: 1</title></circle>
	<circle cx="225.88" cy="373.53" data-y="0.58" data-x="1595635200" r="1" fill="white"><title>2020-07-25: 1</title></circle>
	<circle cx="227.27" cy="373.66" data-y="0.53" data-x="1595721600" r="1" fill="white"><title>2020-07-26: 1</title></circle>
	<circle cx="228.67" cy="373.53" data-y="0.58" data-x="1595808000" r="1" fill="white"><title>2020-07-27: 1</title></circle>
	<circle cx="230.06" cy="373.40" data-y="0.63" data-x="1595894400" r="1" fill="white"><title>2020-07-28: 1</title></circle>
	<circle cx="231.46" cy="373.93" data-y="0.42" data-x="1595980800" r="1" fill="white"><title>2020-07-29: 0</title></circle>
	<circle cx="232.85" cy="374.06" data-y="0.37" data-x="1596067200" r="1" fill="white"><title>2020-07-30: 0</title></circle>
	<circle cx="234.25" cy="373.66" data-y="0.53" data-x="1596153600" r="1" fill="white"><title>2020-07-31: 1</title></circle>
	<circle cx="235.64" cy="373.26" data-y="0.68" data-x="1596240000" r="1" fill="white"><title>2020-08-01: 1</title></circle>
	<circle cx="237.04" cy="372.86" data-y="0.84" data-x="1596326400" r="1" fill="white"><title>2020-08-02: 1</title></circle>
	<circle cx="238.43" cy="372.33" data-y="1.05" data-x="1596412800" r="1" fill="white"><title>2020-08-03: 1</title></circle>
	<circle cx="239.83" cy="371.79" data-y="1.26" data-x="1596499200" r="1" fill="white"><title>2020-08-04: 1</title></circle>
	<circle cx="241.22" cy="371.79" data-y="1.26" data-x="1596585600" r="1" fill="white"><title>2020-08-05: 1</title></circle>
	<circle cx="242.62" cy="371.52" data-y="1.37" data-x="1596672000" r="1" fill="white"><title>2020-08-06: 1</title></circle>
	<circle cx="244.01" cy="371.26" data-y="1.47" data-x="1596758400" r="1" fill="white"><title>2020-08-07: 1</title></circle>
	<circle cx="245.41" cy="371.39" data-y="1.42" data-x="1596844800" r="1" fill="white"><title>2020-08-08: 1</title></circle>
	<circle cx="246.80" cy="371.52" data-y="1.37" data-x="1596931200" r="1" fill="white"><title>2020-08-09: 1</title></circle>
	<circle cx="248.20" cy="372.06" data-y="1.16" data-x="1597017600" r="1" fill="white"><title>2020-08-10: 1</title></circle>
	<circle cx="249.59" cy="372.06" data-y="1.16" data-x="1597104000" r="1" fill="white"><title>2020-08-11: 1</title></circle>
	<circle cx="250.99" cy="371.92" data-y="1.21" data-x="1597190400" r="1" fill="white"><title>2020-08-12: 1</title></circle>
	<circle cx="252.38" cy="371.92" data-y="1.21" data-x="1597276800" r="1" fill="white"><title>2020-08-13: 1</title></circle>
	<circle cx="253.78" cy="372.46" data-y="1.00" data-x="1597363200" r="1" fill="white"><title>2020-08-14: 1</title></circle>
	<circle cx="255.17" cy="372.19" data-y="1.11" data-x="1597449600" r="1" fill="white"><title>2020-08-15: 1</title></circle>
	<circle cx="256.57" cy="372.06" data-y="1.16" data-x="1597536000" r="1" fill="white"><title>2020-08-16: 1</title></circle>
	<circle cx="257.96" cy="371.66" data-y="1.32" data-x="1597622400" r="1" fill="white"><title>2020-08-17: 1</title></circle>
	<circle cx="259.36" cy="371.92" data-y="1.21" data-x="1597708800" r="1" fill="white"><title>2020-08-18: 1</title></circle>
	<circle cx="260.75" cy="371.52" data-y="1.37" data-x="1597795200" r="1" fill="white"><title>2020-08-19: 1</title></circle>
	<circle cx="262.15" cy="371.12" data-y="1.53" data-x="1597881600" r="1" fill="white"><title>2020-08-20: 2</title></circle>
	<circle cx="263.54" cy="371.12" data-y="1.53" data-x="1597968000" r="1" fill="white"><title>2020-08-21: 2</title></circle>
	<circle cx="264.94" cy="371.26" data-y="1.47" data-x="1598054400" r="1" fill="white"><title>2020-08-22: 1</title></circle>
	<circle cx="266.33" cy="371.39" data-y="1.42" data-x="1598140800" r="1" fill="white"><title>2020-08-23: 1</title></circle>
	<circle cx="267.73" cy="371.79" data-y="1.26" data-x="1598227200" r="1" fill="white"><title>2020-08-24: 1</title></circle>
	<circle cx="269.12" cy="372.06" data-y="1.16" data-x="1598313600" r="1" fill="white"><title>2020-08-25: 1</title></circle>
	<circle cx="270.52" cy="372.06" data-y="1.16" data-x="1598400000" r="1" fill="white"><title>2020-08-26: 1</title></circle>
	<circle cx="271.91" cy="372.46" data-y="1.00" data-x="1598486400" r="1" fill="white"><title>2020-08-27: 1</title></circle>
	<circle cx="273.31" cy="372.59" data-y="0.95" data-x="1598572800" r="1" fill="white"><title>2020-08-28: 1</title></circle>
	<circle cx="274.70" cy="372.33" data-y="1.05" data-x="1598659200" r="1" fill="white"><title>2020-08-29: 1</title></circle>
	<circle cx="276.10" cy="371.39" data-y="1.42" data-x="1598745600" r="1" fill="white"><title>2020-08-30: 1</title></circle>
	<circle cx="277.49" cy="370.45" data-y="1.79" data-x="1598832000" r="1" fill="white"><title>2020-08-31: 2</title></circle>
	<circle cx="278.89" cy="369.78" data-y="2.05" data-x="1598918400" r="1" fill="white"><title>2020-09-01: 2</title></circle>
	<circle cx="280.28" cy="369.92" data-y="2.00" data-x="1599004800" r="1" fill="white"><title>2020-09-02: 2</title></circle>
	<circle cx="281.68" cy="370.05" data-y="1.95" data-x="1599091200" r="1" fill="white"><title>2020-09-03: 2</title></circle>
	<circle cx="283.07" cy="369.12" data-y="2.32" data-x="1599177600" r="1" fill="white"><title>2020-09-04: 2</title></circle>
	<circle cx="284.47" cy="368.85" data-y="2.42" data-x="1599264000" r="1" fill="white"><title>2020-09-05: 2</title></circle>
	<circle cx="285.86" cy="369.65" data-y="2.11" data-x="1599350400" r="1" fill="white"><title>2020-09-06: 2</title></circle>
	<circle cx="287.26" cy="369.25" data-y="2.26" data-x="1599436800" r="1" fill="white"><title>2020-09-07: 2</title></circle>
	<circle cx="288.65" cy="369.92" data-y="2.00" data-x="1599523200" r="1" fill="white"><title>2020-09-08: 2</title></circle>
	<circle cx="290.05" cy="369.65" data-y="2.11" data-x="1599609600" r="1" fill="white"><title>2020-09-09: 2</title></circle>
	<circle cx="291.44" cy="369.65" data-y="2.11" data-x="1599696000" r="1" fill="white"><title>2020-09-10: 2</title></circle>
	<circle cx="292.84" cy="370.32" data-y="1.84" data-x="1599782400" r="1" fill="white"><title>2020-09-11: 2</title></circle>
	<circle cx="294.23" cy="369.78" data-y="2.05" data-x="1599868800" r="1" fill="white"><title>2020-09-12: 2</title></circle>
	<circle cx="295.63" cy="368.85" data-y="2.42" data-x="1599955200" r="1" fill="white"><title>2020-09-13: 2</title></circle>
	<circle cx="297.02" cy="369.92" data-y="2.00" data-x="1600041600" r="1" fill="white"><title>2020-09-14: 2</title></circle>
	<circle cx="298.42" cy="369.38" data-y="2.21" data-x="1600128000" r="1" fill="white"><title>2020-09-15: 2</title></circle>
	<circle cx="299.81" cy="369.12" data-y="2.32" data-x="1600214400" r="1" fill="white"><title>2020-09-16: 2</title></circle>
	<circle cx="301.21" cy="368.05" data-y="2.74" data-x="1600300800" r="1" fill="white"><title>2020-09-17: 3</title></circle>
	<circle cx="302.60" cy="367.11" data-y="3.11" data-x="1600387200" r="1" fill="white"><title>2020-09-18: 3</title></circle>
	<circle cx="304.00" cy="367.64" data-y="2.90" data-x="1600473600" r="1" fill="white"><title>2020-09-19: 3</title></circle>
	<circle cx="305.39" cy="366.98" data-y="3.16" data-x="1600560000" r="1" fill="white"><title>2020-09-20: 3</title></circle>
	<circle cx="306.79" cy="366.44" data-y="3.37" data-x="1600646400" r="1" fill="white"><title>2020-09-21: 3</title></circle>
	<circle cx="308.18" cy="366.84" data-y="3.21" data-x="1600732800" r="1" fill="white"><title>2020-09-22: 3</title></circle>
	<circle cx="309.58" cy="367.51" data-y="2.95" data-x="1600819200" r="1" fill="white"><title>2020-09-23: 3</title></circle>
	<circle cx="310.97" cy="366.84" data-y="3.21" data-x="1600905600" r="1" fill="white"><title>2020-09-24: 3</title></circle>
	<circle cx="312.37" cy="366.57" data-y="3.32" data-x="1600992000" r="1" fill="white"><title>2020-09-25: 3</title></circle>
	<circle cx="313.76" cy="365.91" data-y="3.58" data-x="1601078400" r="1" fill="white"><title>2020-09-26: 4</title></circle>
	<circle cx="315.16" cy="365.37" data-y="3.79" data-x="1601164800" r="1" fill="white"><title>2020-09-27: 4</title></circle>
	<circle cx="316.55" cy="364.97" data-y="3.95" data-x="1601251200" r="1" fill="white"><title>2020-09-28: 4</title></circle>
	<circle cx="317.95" cy="362.96" data-y="4.74" data-x="1601337600" r="1" fill="white"><title>2020-09-29: 5</title></circle>
	<circle cx="319.34" cy="360.96" data-y="5.53" data-x="1601424000" r="1" fill="white"><title>2020-09-30: 6</title></circle>
	<circle cx="320.74" cy="360.82" data-y="5.58" data-x="1601510400" r="1" fill="white"><title>2020-10-01: 6</title></circle>
	<circle cx="322.13" cy="359.49" data-y="6.11" data-x="1601596800" r="1" fill="white"><title>2020-10-02: 6</title></circle>
	<circle cx="323.53" cy="359.22" data-y="6.21" data-x="1601683200" r="1" fill="white"><title>2020-10-03: 6</title></circle>
	<circle cx="324.92" cy="358.15" data-y="6.64" data-x="1601769600" r="1" fill="white"><title>2020-10-04: 7</title></circle>
	<circle cx="326.32" cy="355.47" data-y="7.69" data-x="1601856000" r="1" fill="white"><title>2020-10-05: 8</title></circle>
	<circle cx="327.71" cy="355.34" data-y="7.74" data-x="1601942400" r="1" fill="white"><title>2020-10-06: 8</title></circle>
	<circle cx="329.11" cy="356.01" data-y="7.48" data-x="1602028800" r="1" fill="white"><title>2020-10-07: 7</title></circle>
	<circle cx="330.50" cy="356.41" data-y="7.32" data-x="1602115200" r="1" fill="white"><title>2020-10-08: 7</title></circle>
	<circle cx="331.90" cy="356.68" data-y="7.22" data-x="1602201600" r="1" fill="white"><title>2020-10-09: 7</title></circle>
	<circle cx="333.29" cy="354.67" data-y="8.01" data-x="1602288000" r="1" fill="white"><title>2020-10-10: 8</title></circle>
	<circle cx="334.69" cy="354.94" data-y="7.90" data-x="1602374400" r="1" fill="white"><title>2020-10-11: 8</title></circle>
	<circle cx="336.08" cy="356.94" data-y="7.11" data-x="1602460800" r="1" fill="white"><title>2020-10-12: 7</title></circle>
	<circle cx="337.48" cy="355.47" data-y="7.69" data-x="1602547200" r="1" fill="white"><title>2020-10-13: 8</title></circle>
	<circle cx="338.87" cy="353.73" data-y="8.37" data-x="1602633600" r="1" fill="white"><title>2020-10-14: 8</title></circle>
	<circle cx="340.27" cy="353.87" data-y="8.32" data-x="1602720000" r="1" fill="white"><title>2020-10-15: 8</title></circle>
	<circle cx="341.66" cy="352.26" data-y="8.95" data-x="1602806400" r="1" fill="white"><title>2020-10-16: 9</title></circle>
	<circle cx="343.06" cy="349.99" data-y="9.85" data-x="1602892800" r="1" fill="white"><title>2020-10-17: 10</title></circle>
	<circle cx="344.45" cy="347.72" data-y="10.74" data-x="1602979200" r="1" fill="white"><title>2020-10-18: 11</title></circle>
	<circle cx="345.85" cy="344.10" data-y="12.17" data-x="1603065600" r="1" fill="white"><title>2020-10-19: 12</title></circle>
	<circle cx="347.24" cy="342.50" data-y="12.80" data-x="1603152000" r="1" fill="white"><title>2020-10-20: 13</title></circle>
	<circle cx="348.64" cy="340.63" data-y="13.54" data-x="1603238400" r="1" fill="white"><title>2020-10-21: 14</title></circle>
	<circle cx="350.03" cy="337.42" data-y="14.80" data-x="1603324800" r="1" fill="white"><title>2020-10-22: 15</title></circle>
	<circle cx="351.43" cy="334.21" data-y="16.06" data-x="1603411200" r="1" fill="white"><title>2020-10-23: 16</title></circle>
	<circle cx="352.82" cy="335.01" data-y="15.75" data-x="1603497600" r="1" fill="white"><title>2020-10-24: 16</title></circle>
	<circle cx="354.22" cy="336.08" data-y="15.33" data-x="1603584000" r="1" fill="white"><title>2020-10-25: 15</title></circle>
	<circle cx="355.61" cy="335.95" data-y="15.38" data-x="1603670400" r="1" fill="white"><title>2020-10-26: 15</title></circle>
	<circle cx="357.01" cy="334.21" data-y="16.06" data-x="1603756800" r="1" fill="white"><title>2020-10-27: 16</title></circle>
	<circle cx="358.40" cy="332.60" data-y="16.70" data-x="1603843200" r="1" fill="white"><title>2020-10-28: 17</title></circle>
	<circle cx="359.80" cy="333.14" data-y="16.49" data-x="1603929600" r="1" fill="white"><title>2020-10-29: 16</title></circle>
	<circle cx="361.19" cy="332.33" data-y="16.80" data-x="1604016000" r="1" fill="white"><title>2020-10-30: 17</title></circle>
	<circle cx="362.59" cy="331.13" data-y="17.28" data-x="1604102400" r="1" fill="white"><title>2020-10-31: 17</title></circle>
	<circle cx="363.98" cy="329.93" data-y="17.75" data-x="1604188800" r="1" fill="white"><title>2020-11-01: 18</title></circle>
	<circle cx="365.38" cy="328.05" data-y="18.49" data-x="1604275200" r="1" fill="white"><title>2020-11-02: 18</title></circle>
	<circle cx="366.77" cy="329.12" data-y="18.07" data-x="1604361600" r="1" fill="white"><title>2020-11-03: 18</title></circle>
	<circle cx="368.17" cy="331.93" data-y="16.96" data-x="1604448000" r="1" fill="white"><title>2020-11-04: 17</title></circle>
	<circle cx="369.56" cy="329.53" data-y="17.91" data-x="1604534400" r="1" fill="white"><title>2020-11-05: 18</title></circle>
	<circle cx="370.96" cy="325.65" data-y="19.43" data-x="1604620800" r="1" fill="white"><title>2020-11-06: 19</title></circle>
	<circle cx="372.35" cy="323.91" data-y="20.12" data-x="1604707200" r="1" fill="white"><title>2020-11-07: 20</title></circle>
	<circle cx="373.75" cy="319.63" data-y="21.80" data-x="1604793600" r="1" fill="white"><title>2020-11-08: 22</title></circle>
	<circle cx="375.14" cy="315.08" data-y="23.60" data-x="1604880000" r="1" fill="white"><title>2020-11-09: 24</title></circle>
	<circle cx="376.54" cy="310.93" data-y="25.23" data-x="1604966400" r="1" fill="white"><title>2020-11-10: 25</title></circle>
	<circle cx="377.93" cy="306.65" data-y="26.91" data-x="1605052800" r="1" fill="white"><title>2020-11-11: 27</title></circle>
	<circle cx="379.33" cy="304.38" data-y="27.81" data-x="1605139200" r="1" fill="white"><title>2020-11-12: 28</title></circle>
	<circle cx="380.72" cy="305.18" data-y="27.49" data-x="1605225600" r="1" fill="white"><title>2020-11-13: 27</title></circle>
	<circle cx="382.12" cy="302.91" data-y="28.39" data-x="1605312000" r="1" fill="white"><title>2020-11-14: 28</title></circle>
	<circle cx="383.51" cy="303.71" data-y="28.07" data-x="1605398400" r="1" fill="white"><title>2020-11-15: 28</title></circle>
	<circle cx="384.91" cy="309.06" data-y="25.97" data-x="1605484800" r="1" fill="white"><title>2020-11-16: 26</title></circle>
	<circle cx="386.30" cy="310.53" data-y="25.39" data-x="1605571200" r="1" fill="white"><title>2020-11-17: 25</title></circle>
	<circle cx="387.70" cy="312.81" data-y="24.49" data-x="1605657600" r="1" fill="white"><title>2020-11-18: 24</title></circle>
	<circle cx="389.09" cy="315.62" data-y="23.38" data-x="1605744000" r="1" fill="white"><title>2020-11-19: 23</title></circle>
	<circle cx="390.49" cy="320.03" data-y="21.65" data-x="1605830400" r="1" fill="white"><title>2020-11-20: 22</title></circle>
	<circle cx="391.88" cy="322.97" data-y="20.49" data-x="1605916800" r="1" fill="white"><title>2020-11-21: 20</title></circle>
	<circle cx="393.28" cy="324.71" data-y="19.80" data-x="1606003200" r="1" fill="white"><title>2020-11-22: 20</title></circle>
	<circle cx="394.67" cy="325.91" data-y="19.33" data-x="1606089600" r="1" fill="white"><title>2020-11-23: 19</title></circle>
	<circle cx="396.07" cy="322.70" data-y="20.59" data-x="1606176000" r="1" fill="white"><title>2020-11-24: 21</title></circle>
	<circle cx="397.46" cy="322.97" data-y="20.49" data-x="1606262400" r="1" fill="white"><title>2020-11-25: 20</title></circle>
	<circle cx="398.86" cy="322.04" data-y="20.86" data-x="1606348800" r="1" fill="white"><title>2020-11-26: 21</title></circle>
	<circle cx="400.25" cy="318.02" data-y="22.44" data-x="1606435200" r="1" fill="white"><title>2020-11-27: 22</title></circle>
	<circle cx="401.65" cy="314.41" data-y="23.86" data-x="1606521600" r="1" fill="white"><title>2020-11-28: 24</title></circle>
	<circle cx="403.04" cy="312.27" data-y="24.70" data-x="1606608000" r="1" fill="white"><title>2020-11-29: 25</title></circle>
	<circle cx="404.44" cy="310.27" data-y="25.49" data-x="1606694400" r="1" fill="white"><title>2020-11-30: 25</title></circle>
	<circle cx="405.83" cy="312.27" data-y="24.70" data-x="1606780800" r="1" fill="white"><title>2020-12-01: 25</title></circle>
	<circle cx="407.23" cy="307.99" data-y="26.39" data-x="1606867200" r="1" fill="white"><title>2020-12-02: 26</title></circle>
	<circle cx="408.62" cy="303.18" data-y="28.28" data-x="1606953600" r="1" fill="white"><title>2020-12-03: 28</title></circle>
	<circle cx="410.02" cy="298.90" data-y="29.97" data-x="1607040000" r="1" fill="white"><title>2020-12-04: 30</title></circle>
	<circle cx="411.41" cy="296.49" data-y="30.92" data-x="1607126400" r="1" fill="white"><title>2020-12-05: 31</title></circle>
	<circle cx="412.81" cy="289.40" data-y="33.71" data-x="1607212800" r="1" fill="white"><title>2020-12-06: 34</title></circle>
	<circle cx="414.20" cy="279.10" data-y="37.76" data-x="1607299200" r="1" fill="white"><title>2020-12-07: 38</title></circle>
	<circle cx="415.60" cy="264.12" data-y="43.66" data-x="1607385600" r="1" fill="white"><title>2020-12-08: 44</title></circle>
	<circle cx="416.99" cy="254.76" data-y="47.35" data-x="1607472000" r="1" fill="white"><title>2020-12-09: 47</title></circle>
	<circle cx="418.39" cy="246.87" data-y="50.46" data-x="1607558400" r="1" fill="white"><title>2020-12-10: 50</title></circle>
	<circle cx="419.78" cy="229.62" data-y="57.25" data-x="1607644800" r="1" fill="white"><title>2020-12-11: 57</title></circle>
	<circle cx="421.18" cy="210.89" data-y="64.62" data-x="1607731200" r="1" fill="white"><title>2020-12-12: 65</title></circle>
	<circle cx="422.57" cy="191.50" data-y="72.26" data-x="1607817600" r="1" fill="white"><title>2020-12-13: 72</title></circle>
	<circle cx="423.97" cy="165.55" data-y="82.48" data-x="1607904000" r="1" fill="white"><title>2020-12-14: 82</title></circle>
	<circle cx="425.36" cy="136.53" data-y="93.91" data-x="1607990400" r="1" fill="white"><title>2020-12-15: 94</title></circle>
	<circle cx="426.76" cy="125.56" data-y="98.23" data-x="1608076800" r="1" fill="white"><title>2020-12-16: 98</title></circle>
	<circle cx="428.15" cy="105.50" data-y="106.13" data-x="1608163200" r="1" fill="white"><title>2020-12-17: 106</title></circle>
	<circle cx="429.55" cy="73.93" data-y="118.56" data-x="1608249600" r="1" fill="white"><title>2020-12-18: 119</title></circle>
	<circle cx="430.94" cy="58.42" data-y="124.67" data-x="1608336000" r="1" fill="white"><title>2020-12-19: 125</title></circle>
	<circle cx="432.34" cy="49.86" data-y="128.04" data-x="1608422400" r="1" fill="white"><title>2020-12-20: 128</title></circle>
	<circle cx="433.73" cy="59.62" data-y="124.19" data-x="1608508800" r="1" fill="white"><title>2020-12-21: 124</title></circle>
	<circle cx="435.13" cy="92.79" data-y="111.13" data-x="1608595200" r="1" fill="white"><title>2020-12-22: 111</title></circle>
	<circle cx="436.52" cy="81.15" data-y="115.71" data-x="1608681600" r="1" fill="white"><title>2020-12-23: 116</title></circle>
	<circle cx="437.92" cy="81.02" data-y="115.77" data-x="1608768000" r="1" fill="white"><title>2020-12-24: 116</title></circle>
	<circle cx="439.31" cy="103.36" data-y="106.97" data-x="1608854400" r="1" fill="white"><title>2020-12-25: 107</title></circle>
	<circle cx="440.71" cy="73.13" data-y="118.87" data-x="1608940800" r="1" fill="white"><title>2020-12-26: 119</title></circle>
	<circle cx="442.10" cy="52.53" data-y="126.98" data-x="1609027200" r="1" fill="white"><title>2020-12-27: 127</title></circle>
	<circle cx="443.50" cy="45.58" data-y="129.72" data-x="1609113600" r="1" fill="white"><title>2020-12-28: 130</title></circle>
	<circle cx="444.89" cy="33.41" data-y="134.52" data-x="1609200000" r="1" fill="white"><title>2020-12-29: 135</title></circle>
	<circle cx="446.29" cy="28.19" data-y="136.57" data-x="1609286400" r="1" fill="white"><title>2020-12-30: 137</title></circle>
	<circle cx="447.68" cy="25.11" data-y="137.78" data-x="1609372800" r="1" fill="white"><title>2020-12-31: 138</title></circle>
	<circle cx="449.08" cy="10.00" data-y="143.73" data-x="1609459200" r="1" fill="white"><title>2021-01-01: 144</title></circle>
	<circle cx="450.47" cy="37.69" data-y="132.83" data-x="1609545600" r="1" fill="white"><title>2021-01-02: 133</title></circle>
	<circle cx="451.87" cy="65.51" data-y="121.88" data-x="1609632000" r="1" fill="white"><title>2021-01-03: 122</title></circle>
	<circle cx="453.26" cy="68.58" data-y="120.66" data-x="1609718400" r="1" fill="white"><title>2021-01-04: 121</title></circle>
	<circle cx="454.66" cy="62.96" data-y="122.88" data-x="1609804800" r="1" fill="white"><title>2021-01-05: 123</title></circle>
	<circle cx="456.05" cy="83.29" data-y="114.87" data-x="1609891200" r="1" fill="white"><title>2021-01-06: 115</title></circle>
	<circle cx="457.45" cy="102.42" data-y="107.34" data-x="1609977600" r="1" fill="white"><title>2021-01-07: 107</title></circle>
	<circle cx="458.84" cy="125.69" data-y="98.17" data-x="1610064000" r="1" fill="white"><title>2021-01-08: 98</title></circle>
	<circle cx="460.24" cy="142.68" data-y="91.49" data-x="1610150400" r="1" fill="white"><title>2021-01-09: 91</title></circle>
	<circle cx="461.63" cy="147.36" data-y="89.64" data-x="1610236800" r="1" fill="white"><title>2021-01-10: 90</title></circle>
	<circle cx="463.03" cy="155.92" data-y="86.27" data-x="1610323200" r="1" fill="white"><title>2021-01-11: 86</title></circle>
</g>
<g data-series="recent-cases" class="data-series">
	<path d="M 463.03,155.92L 464.42,169.56L 465.82,196.04L 467.21,193.99L 468.61,205.17L 470.00,221.22" id="Recent cases" class="line" stroke-width="1" stroke-linecap="round" stroke-dasharray="4,6" stroke-dashoffset="4"><title>Recent cases</title></path>
	<circle cx="463.03" cy="155.92" data-y="86.27" data-x="1610323200" r="2.5" fill="white"><title>2021-01-11: 86</title></circle>
	<circle cx="464.42" cy="169.56" data-y="80.90" data-x="1610409600" r="2.5" fill="white"><title>2021-01-12: 81</title></circle>
	<circle cx="465.82" cy="196.04" data-y="70.47" data-x="1610496000" r="2.5" fill="white"><title>2021-01-13: 70</title></circle>
	<circle cx="467.21" cy="193.99" data-y="71.28" data-x="1610582400" r="2.5" fill="white"><title>2021-01-14: 71</title></circle>
	<circle cx="468.61" cy="205.17" data-y="66.88" data-x="1610668800" r="2.5" fill="white"><title>2021-01-15: 67</title></circle>
	<circle cx="470.00" cy="221.22" data-y="60.56" data-x="1610755200" r="2.5" fill="white"><title>2021-01-16: 61</title></circle>
</g>
</svg>
