<svg width="480" height="400" viewBox="0 0 480 400" xmlns="http://www.w3.org/2000/svg" style="overflow:display" preserveAspectRatio="xMinYMin meet" overflow="visible">
<defs>
	<style>
	.data-series path.line { fill-opacity: 0; stroke: black; }
	.data-series path.line.dotted { stroke-dasharray: 12 20 }
	.data-series:hover path.line, .data-series.on path.line { stroke-width: 1; }
	.data-series:hover circle, .data-series.on circle { display: inline; }
	.graph-grid { font-family: "Helvetica Neue",Helvetica,Arial,"Lucida Grande",sans-serif; }
	.graph-grid line { stroke: black; stroke-width: 1; stroke-linecap: round; }
	.graph-grid.graph-grid-x text { text-anchor: middle; dominant-baseline: hanging; transform: translateY(10px); }
	.graph-grid.graph-grid-y text { text-anchor: end; dominant-baseline: middle; transform: translateX(-10px); }
	</style>
</defs>
<g class="graph-grid graph-grid-y">
	<line x1="25.00" y1="375.00" x2="470.00" y2="375.00" data-left="25"></line>
	<text x="35" y="375" text-anchor="end">0</text>
	<text x="35" y="288.108708333333" text-anchor="end">20</text>
	<text x="35" y="201.217416666667" text-anchor="end">40</text>
	<text x="35" y="114.326125" text-anchor="end">60</text>
	<text x="35" y="27.4348333333333" text-anchor="end">80</text>
	<text style="text-anchor:middle;dominant-baseline:hanging;font-weight:bold;transform: translateY(192.5px) rotate(-90deg);"></text>
</g>
<g class="graph-grid graph-grid-x">
	<line x1="25.00" y1="375.00" x2="25.00" y2="10.00" data-left="25"></line>
	<line class="tick" x1="25.00" y1="375.00" x2="25.00" y2="380.00"></line>
	<text x="25" y="375" text-anchor="middle">M</text>
	<line class="tick" x1="80.40" y1="375.00" x2="80.40" y2="380.00"></line>
	<text x="80.4016064257028" y="375" text-anchor="middle">A</text>
	<line class="tick" x1="134.02" y1="375.00" x2="134.02" y2="380.00"></line>
	<text x="134.016064257028" y="375" text-anchor="middle">M</text>
	<line class="tick" x1="189.42" y1="375.00" x2="189.42" y2="380.00"></line>
	<text x="189.417670682731" y="375" text-anchor="middle">J</text>
	<line class="tick" x1="243.03" y1="375.00" x2="243.03" y2="380.00"></line>
	<text x="243.032128514056" y="375" text-anchor="middle">J</text>
	<line class="tick" x1="298.43" y1="375.00" x2="298.43" y2="380.00"></line>
	<text x="298.433734939759" y="375" text-anchor="middle">A</text>
	<line class="tick" x1="353.84" y1="375.00" x2="353.84" y2="380.00"></line>
	<text x="353.835341365462" y="375" text-anchor="middle">S</text>
	<line class="tick" x1="407.45" y1="375.00" x2="407.45" y2="380.00"></line>
	<text x="407.449799196787" y="375" text-anchor="middle">O</text>
	<line class="tick" x1="462.85" y1="375.00" x2="462.85" y2="380.00"></line>
	<text x="462.85140562249" y="375" text-anchor="middle">N</text>
	<text style="text-anchor:middle;dominant-baseline:hanging;font-weight:bold;transform: translateY(192.5px) rotate(-90deg);"></text>
</g>
<g data-series="widespread" class="data-series">
	<path d="M 25.00,344.59L 470.00,344.59" id="E06000010-level-0" class="line" stroke-width="1" stroke-linecap="round" stroke-dasharray="3,3" fill-opacity="0.3" opacity="0.3"><title>Widespread</title></path>
</g>
<g data-series="substantial" class="data-series">
	<path d="M 25.00,357.62L 470.00,357.62" id="E06000010-level-1" class="line" stroke-width="1" stroke-linecap="round" stroke-dasharray="3,3" fill-opacity="0.3" opacity="0.3"><title>Substantial</title></path>
</g>
<g data-series="moderate" class="data-series">
	<path d="M 25.00,370.66L 470.00,370.66" id="E06000010-level-2" class="line" stroke-width="1" stroke-linecap="round" stroke-dasharray="3,3" fill-opacity="0.3" opacity="0.3"><title>Moderate</title></path>
</g>
<g data-series="new-cases" class="data-series">
	<path d="M 25.00,374.58L 26.79,374.67L 28.57,374.72L 30.36,374.76L 32.15,375.00L 33.94,375.00L 35.72,375.00L 37.51,375.00L 39.30,375.00L 41.08,375.00L 42.87,375.00L 44.66,375.00L 46.45,375.00L 48.23,375.00L 50.02,375.00L 51.81,375.00L 53.59,375.00L 55.38,374.29L 57.17,374.29L 58.96,374.29L 60.74,374.05L 62.53,373.34L 64.32,372.62L 66.10,372.15L 67.89,372.86L 69.68,372.15L 71.47,371.44L 73.25,371.20L 75.04,370.72L 76.83,369.53L 78.61,367.63L 80.40,365.73L 82.19,365.49L 83.98,362.64L 85.76,360.27L 87.55,359.32L 89.34,358.13L 91.12,356.23L 92.91,354.80L 94.70,353.38L 96.49,353.38L 98.27,349.57L 100.06,344.35L 101.85,345.06L 103.63,345.77L 105.42,343.40L 107.21,341.49L 109.00,339.12L 110.78,342.68L 112.57,343.16L 114.36,341.49L 116.14,336.03L 117.93,335.08L 119.72,332.70L 121.51,330.80L 123.29,325.34L 125.08,316.07L 126.87,307.04L 128.65,304.19L 130.44,306.09L 132.23,304.42L 134.02,305.37L 135.80,306.80L 137.59,319.87L 139.38,326.29L 141.16,333.89L 142.95,336.74L 144.74,340.07L 146.53,341.97L 148.31,343.16L 150.10,342.44L 151.89,344.58L 153.67,344.11L 155.46,343.16L 157.25,342.92L 159.04,341.73L 160.82,342.44L 162.61,341.49L 164.40,336.74L 166.18,336.74L 167.97,333.41L 169.76,331.04L 171.55,332.23L 173.33,333.41L 175.12,334.60L 176.91,339.36L 178.69,340.78L 180.48,343.87L 182.27,348.86L 184.06,352.19L 185.84,353.61L 187.63,355.51L 189.42,357.42L 191.20,359.32L 192.99,361.46L 194.78,363.83L 196.57,363.83L 198.35,365.02L 200.14,362.88L 201.93,364.07L 203.71,362.41L 205.50,359.79L 207.29,358.37L 209.08,357.42L 210.86,352.90L 212.65,355.51L 214.44,355.51L 216.22,357.89L 218.01,360.27L 219.80,360.98L 221.59,363.12L 223.37,368.11L 225.16,368.82L 226.95,369.53L 228.73,370.01L 230.52,370.96L 232.31,371.67L 234.10,371.91L 235.88,372.15L 237.67,372.15L 239.46,372.86L 241.24,372.62L 243.03,372.62L 244.82,372.86L 246.61,372.86L 248.39,373.57L 250.18,373.57L 251.97,373.57L 253.76,373.81L 255.54,373.81L 257.33,373.81L 259.12,373.57L 260.90,373.34L 262.69,373.57L 264.48,373.34L 266.27,372.86L 268.05,371.67L 269.84,371.20L 271.63,371.20L 273.41,370.96L 275.20,371.20L 276.99,371.20L 278.78,370.96L 280.56,372.39L 282.35,372.62L 284.14,372.86L 285.92,372.86L 287.71,372.62L 289.50,372.62L 291.29,373.34L 293.07,373.34L 294.86,373.34L 296.65,373.57L 298.43,373.81L 300.22,373.57L 302.01,373.81L 303.80,374.05L 305.58,374.05L 307.37,374.29L 309.16,373.10L 310.94,373.10L 312.73,372.39L 314.52,371.91L 316.31,370.96L 318.09,370.72L 319.88,370.72L 321.67,371.44L 323.45,371.44L 325.24,372.15L 327.03,372.62L 328.82,373.57L 330.60,373.10L 332.39,372.86L 334.18,373.10L 335.96,373.10L 337.75,372.86L 339.54,372.39L 341.33,372.39L 343.11,373.10L 344.90,372.86L 346.69,372.86L 348.47,372.39L 350.26,371.67L 352.05,370.49L 353.84,369.77L 355.62,369.53L 357.41,368.82L 359.20,365.49L 360.98,365.26L 362.77,365.73L 364.56,367.16L 366.35,367.40L 368.13,367.16L 369.92,367.63L 371.71,370.25L 373.49,370.49L 375.28,370.49L 377.07,368.82L 378.86,367.40L 380.64,366.68L 382.43,365.97L 384.22,364.07L 386.00,362.41L 387.79,360.98L 389.58,359.08L 391.37,357.42L 393.15,356.70L 394.94,353.14L 396.73,350.76L 398.51,346.48L 400.30,334.84L 402.09,328.42L 403.88,319.63L 405.66,314.88L 407.45,315.83L 409.24,311.55L 411.02,309.41L 412.81,309.65L 414.60,312.03L 416.39,313.93L 418.17,310.13L 419.96,308.94L 421.75,305.85L 423.53,301.57L 425.32,300.38L 427.11,297.06L 428.90,294.21L 430.68,292.78L 432.47,285.65L 434.26,270.68L 436.04,257.37L 437.83,243.12L 439.62,221.25L 441.41,209.37L 443.19,198.44L 444.98,189.89L 446.77,178.24L 448.55,168.26L 450.34,154.00L 452.13,144.74L 453.92,126.20L 455.70,105.29L 457.49,82.48L 459.28,39.70L 461.06,11.43" id="New cases" class="line" stroke-width="1" stroke-linecap="round"><title>New cases</title></path>
	<circle cx="25.00" cy="374.58" data-y="0.10" data-x="1583020800" r="1" fill="white"><title>2020-03-01: 0</title></circle>
	<circle cx="26.79" cy="374.67" data-y="0.08" data-x="1583107200" r="1" fill="white"><title>2020-03-02: 0</title></circle>
	<circle cx="28.57" cy="374.72" data-y="0.06" data-x="1583193600" r="1" fill="white"><title>2020-03-03: 0</title></circle>
	<circle cx="30.36" cy="374.76" data-y="0.05" data-x="1583280000" r="1" fill="white"><title>2020-03-04: 0</title></circle>
	<circle cx="32.15" cy="375.00" data-y="0.00" data-x="1583366400" r="1" fill="white"><title>2020-03-05: 0</title></circle>
	<circle cx="33.94" cy="375.00" data-y="0.00" data-x="1583452800" r="1" fill="white"><title>2020-03-06: 0</title></circle>
	<circle cx="35.72" cy="375.00" data-y="0.00" data-x="1583539200" r="1" fill="white"><title>2020-03-07: 0</title></circle>
	<circle cx="37.51" cy="375.00" data-y="0.00" data-x="1583625600" r="1" fill="white"><title>2020-03-08: 0</title></circle>
	<circle cx="39.30" cy="375.00" data-y="0.00" data-x="1583712000" r="1" fill="white"><title>2020-03-09: 0</title></circle>
	<circle cx="41.08" cy="375.00" data-y="0.00" data-x="1583798400" r="1" fill="white"><title>2020-03-10: 0</title></circle>
	<circle cx="42.87" cy="375.00" data-y="0.00" data-x="1583884800" r="1" fill="white"><title>2020-03-11: 0</title></circle>
	<circle cx="44.66" cy="375.00" data-y="0.00" data-x="1583971200" r="1" fill="white"><title>2020-03-12: 0</title></circle>
	<circle cx="46.45" cy="375.00" data-y="0.00" data-x="1584057600" r="1" fill="white"><title>2020-03-13: 0</title></circle>
	<circle cx="48.23" cy="375.00" data-y="0.00" data-x="1584144000" r="1" fill="white"><title>2020-03-14: 0</title></circle>
	<circle cx="50.02" cy="375.00" data-y="0.00" data-x="1584230400" r="1" fill="white"><title>2020-03-15: 0</title></circle>
	<circle cx="51.81" cy="375.00" data-y="0.00" data-x="1584316800" r="1" fill="white"><title>2020-03-16: 0</title></circle>
	<circle cx="53.59" cy="375.00" data-y="0.00" data-x="1584403200" r="1" fill="white"><title>2020-03-17: 0</title></circle>
	<circle cx="55.38" cy="374.29" data-y="0.16" data-x="1584489600" r="1" fill="white"><title>2020-03-18: 0</title></circle>
	<circle cx="57.17" cy="374.29" data-y="0.16" data-x="1584576000" r="1" fill="white"><title>2020-03-19: 0</title></circle>
	<circle cx="58.96" cy="374.29" data-y="0.16" data-x="1584662400" r="1" fill="white"><title>2020-03-20: 0</title></circle>
	<circle cx="60.74" cy="374.05" data-y="0.22" data-x="1584748800" r="1" fill="white"><title>2020-03-21: 0</title></circle>
	<circle cx="62.53" cy="373.34" data-y="0.38" data-x="1584835200" r="1" fill="white"><title>2020-03-22: 0</title></circle>
	<circle cx="64.32" cy="372.62" data-y="0.55" data-x="1584921600" r="1" fill="white"><title>2020-03-23: 1</title></circle>
	<circle cx="66.10" cy="372.15" data-y="0.66" data-x="1585008000" r="1" fill="white"><title>2020-03-24: 1</title></circle>
	<circle cx="67.89" cy="372.86" data-y="0.49" data-x="1585094400" r="1" fill="white"><title>2020-03-25: 0</title></circle>
	<circle cx="69.68" cy="372.15" data-y="0.66" data-x="1585180800" r="1" fill="white"><title>2020-03-26: 1</title></circle>
	<circle cx="71.47" cy="371.44" data-y="0.82" data-x="1585267200" r="1" fill="white"><title>2020-03-27: 1</title></circle>
	<circle cx="73.25" cy="371.20" data-y="0.88" data-x="1585353600" r="1" fill="white"><title>2020-03-28: 1</title></circle>
	<circle cx="75.04" cy="370.72" data-y="0.98" data-x="1585440000" r="1" fill="white"><title>2020-03-29: 1</title></circle>
	<circle cx="76.83" cy="369.53" data-y="1.26" data-x="1585526400" r="1" fill="white"><title>2020-03-30: 1</title></circle>
	<circle cx="78.61" cy="367.63" data-y="1.70" data-x="1585612800" r="1" fill="white"><title>2020-03-31: 2</title></circle>
	<circle cx="80.40" cy="365.73" data-y="2.13" data-x="1585699200" r="1" fill="white"><title>2020-04-01: 2</title></circle>
	<circle cx="82.19" cy="365.49" data-y="2.19" data-x="1585785600" r="1" fill="white"><title>2020-04-02: 2</title></circle>
	<circle cx="83.98" cy="362.64" data-y="2.84" data-x="1585872000" r="1" fill="white"><title>2020-04-03: 3</title></circle>
	<circle cx="85.76" cy="360.27" data-y="3.39" data-x="1585958400" r="1" fill="white"><title>2020-04-04: 3</title></circle>
	<circle cx="87.55" cy="359.32" data-y="3.61" data-x="1586044800" r="1" fill="white"><title>2020-04-05: 4</title></circle>
	<circle cx="89.34" cy="358.13" data-y="3.88" data-x="1586131200" r="1" fill="white"><title>2020-04-06: 4</title></circle>
	<circle cx="91.12" cy="356.23" data-y="4.32" data-x="1586217600" r="1" fill="white"><title>2020-04-07: 4</title></circle>
	<circle cx="92.91" cy="354.80" data-y="4.65" data-x="1586304000" r="1" fill="white"><title>2020-04-08: 5</title></circle>
	<circle cx="94.70" cy="353.38" data-y="4.98" data-x="1586390400" r="1" fill="white"><title>2020-04-09: 5</title></circle>
	<circle cx="96.49" cy="353.38" data-y="4.98" data-x="1586476800" r="1" fill="white"><title>2020-04-10: 5</title></circle>
	<circle cx="98.27" cy="349.57" data-y="5.85" data-x="1586563200" r="1" fill="white"><title>2020-04-11: 6</title></circle>
	<circle cx="100.06" cy="344.35" data-y="7.06" data-x="1586649600" r="1" fill="white"><title>2020-04-12: 7</title></circle>
	<circle cx="101.85" cy="345.06" data-y="6.89" data-x="1586736000" r="1" fill="white"><title>2020-04-13: 7</title></circle>
	<circle cx="103.63" cy="345.77" data-y="6.73" data-x="1586822400" r="1" fill="white"><title>2020-04-14: 7</title></circle>
	<circle cx="105.42" cy="343.40" data-y="7.27" data-x="1586908800" r="1" fill="white"><title>2020-04-15: 7</title></circle>
	<circle cx="107.21" cy="341.49" data-y="7.71" data-x="1586995200" r="1" fill="white"><title>2020-04-16: 8</title></circle>
	<circle cx="109.00" cy="339.12" data-y="8.26" data-x="1587081600" r="1" fill="white"><title>2020-04-17: 8</title></circle>
	<circle cx="110.78" cy="342.68" data-y="7.44" data-x="1587168000" r="1" fill="white"><title>2020-04-18: 7</title></circle>
	<circle cx="112.57" cy="343.16" data-y="7.33" data-x="1587254400" r="1" fill="white"><title>2020-04-19: 7</title></circle>
	<circle cx="114.36" cy="341.49" data-y="7.71" data-x="1587340800" r="1" fill="white"><title>2020-04-20: 8</title></circle>
	<circle cx="116.14" cy="336.03" data-y="8.97" data-x="1587427200" r="1" fill="white"><title>2020-04-21: 9</title></circle>
	<circle cx="117.93" cy="335.08" data-y="9.19" data-x="1587513600" r="1" fill="white"><title>2020-04-22: 9</title></circle>
	<circle cx="119.72" cy="332.70" data-y="9.74" data-x="1587600000" r="1" fill="white"><title>2020-04-23: 10</title></circle>
	<circle cx="121.51" cy="330.80" data-y="10.17" data-x="1587686400" r="1" fill="white"><title>2020-04-24: 10</title></circle>
	<circle cx="123.29" cy="325.34" data-y="11.43" data-x="1587772800" r="1" fill="white"><title>2020-04-25: 11</title></circle>
	<circle cx="125.08" cy="316.07" data-y="13.56" data-x="1587859200" r="1" fill="white"><title>2020-04-26: 14</title></circle>
	<circle cx="126.87" cy="307.04" data-y="15.64" data-x="1587945600" r="1" fill="white"><title>2020-04-27: 16</title></circle>
	<circle cx="128.65" cy="304.19" data-y="16.30" data-x="1588032000" r="1" fill="white"><title>2020-04-28: 16</title></circle>
	<circle cx="130.44" cy="306.09" data-y="15.86" data-x="1588118400" r="1" fill="white"><title>2020-04-29: 16</title></circle>
	<circle cx="132.23" cy="304.42" data-y="16.24" data-x="1588204800" r="1" fill="white"><title>2020-04-30: 16</title></circle>
	<circle cx="134.02" cy="305.37" data-y="16.03" data-x="1588291200" r="1" fill="white"><title>2020-05-01: 16</title></circle>
	<circle cx="135.80" cy="306.80" data-y="15.70" data-x="1588377600" r="1" fill="white"><title>2020-05-02: 16</title></circle>
	<circle cx="137.59" cy="319.87" data-y="12.69" data-x="1588464000" r="1" fill="white"><title>2020-05-03: 13</title></circle>
	<circle cx="139.38" cy="326.29" data-y="11.21" data-x="1588550400" r="1" fill="white"><title>2020-05-04: 11</title></circle>
	<circle cx="141.16" cy="333.89" data-y="9.46" data-x="1588636800" r="1" fill="white"><title>2020-05-05: 9</title></circle>
	<circle cx="142.95" cy="336.74" data-y="8.81" data-x="1588723200" r="1" fill="white"><title>2020-05-06: 9</title></circle>
	<circle cx="144.74" cy="340.07" data-y="8.04" data-x="1588809600" r="1" fill="white"><title>2020-05-07: 8</title></circle>
	<circle cx="146.53" cy="341.97" data-y="7.60" data-x="1588896000" r="1" fill="white"><title>2020-05-08: 8</title></circle>
	<circle cx="148.31" cy="343.16" data-y="7.33" data-x="1588982400" r="1" fill="white"><title>2020-05-09: 7</title></circle>
	<circle cx="150.10" cy="342.44" data-y="7.49" data-x="1589068800" r="1" fill="white"><title>2020-05-10: 7</title></circle>
	<circle cx="151.89" cy="344.58" data-y="7.00" data-x="1589155200" r="1" fill="white"><title>2020-05-11: 7</title></circle>
	<circle cx="153.67" cy="344.11" data-y="7.11" data-x="1589241600" r="1" fill="white"><title>2020-05-12: 7</title></circle>
	<circle cx="155.46" cy="343.16" data-y="7.33" data-x="1589328000" r="1" fill="white"><title>2020-05-13: 7</title></circle>
	<circle cx="157.25" cy="342.92" data-y="7.38" data-x="1589414400" r="1" fill="white"><title>2020-05-14: 7</title></circle>
	<circle cx="159.04" cy="341.73" data-y="7.66" data-x="1589500800" r="1" fill="white"><title>2020-05-15: 8</title></circle>
	<circle cx="160.82" cy="342.44" data-y="7.49" data-x="1589587200" r="1" fill="white"><title>2020-05-16: 7</title></circle>
	<circle cx="162.61" cy="341.49" data-y="7.71" data-x="1589673600" r="1" fill="white"><title>2020-05-17: 8</title></circle>
	<circle cx="164.40" cy="336.74" data-y="8.81" data-x="1589760000" r="1" fill="white"><title>2020-05-18: 9</title></circle>
	<circle cx="166.18" cy="336.74" data-y="8.81" data-x="1589846400" r="1" fill="white"><title>2020-05-19: 9</title></circle>
	<circle cx="167.97" cy="333.41" data-y="9.57" data-x="1589932800" r="1" fill="white"><title>2020-05-20: 10</title></circle>
	<circle cx="169.76" cy="331.04" data-y="10.12" data-x="1590019200" r="1" fill="white"><title>2020-05-21: 10</title></circle>
	<circle cx="171.55" cy="332.23" data-y="9.85" data-x="1590105600" r="1" fill="white"><title>2020-05-22: 10</title></circle>
	<circle cx="173.33" cy="333.41" data-y="9.57" data-x="1590192000" r="1" fill="white"><title>2020-05-23: 10</title></circle>
	<circle cx="175.12" cy="334.60" data-y="9.30" data-x="1590278400" r="1" fill="white"><title>2020-05-24: 9</title></circle>
	<circle cx="176.91" cy="339.36" data-y="8.20" data-x="1590364800" r="1" fill="white"><title>2020-05-25: 8</title></circle>
	<circle cx="178.69" cy="340.78" data-y="7.88" data-x="1590451200" r="1" fill="white"><title>2020-05-26: 8</title></circle>
	<circle cx="180.48" cy="343.87" data-y="7.17" data-x="1590537600" r="1" fill="white"><title>2020-05-27: 7</title></circle>
	<circle cx="182.27" cy="348.86" data-y="6.02" data-x="1590624000" r="1" fill="white"><title>2020-05-28: 6</title></circle>
	<circle cx="184.06" cy="352.19" data-y="5.25" data-x="1590710400" r="1" fill="white"><title>2020-05-29: 5</title></circle>
	<circle cx="185.84" cy="353.61" data-y="4.92" data-x="1590796800" r="1" fill="white"><title>2020-05-30: 5</title></circle>
	<circle cx="187.63" cy="355.51" data-y="4.49" data-x="1590883200" r="1" fill="white"><title>2020-05-31: 4</title></circle>
	<circle cx="189.42" cy="357.42" data-y="4.05" data-x="1590969600" r="1" fill="white"><title>2020-06-01: 4</title></circle>
	<circle cx="191.20" cy="359.32" data-y="3.61" data-x="1591056000" r="1" fill="white"><title>2020-06-02: 4</title></circle>
	<circle cx="192.99" cy="361.46" data-y="3.12" data-x="1591142400" r="1" fill="white"><title>2020-06-03: 3</title></circle>
	<circle cx="194.78" cy="363.83" data-y="2.57" data-x="1591228800" r="1" fill="white"><title>2020-06-04: 3</title></circle>
	<circle cx="196.57" cy="363.83" data-y="2.57" data-x="1591315200" r="1" fill="white"><title>2020-06-05: 3</title></circle>
	<circle cx="198.35" cy="365.02" data-y="2.30" data-x="1591401600" r="1" fill="white"><title>2020-06-06: 2</title></circle>
	<circle cx="200.14" cy="362.88" data-y="2.79" data-x="1591488000" r="1" fill="white"><title>2020-06-07: 3</title></circle>
	<circle cx="201.93" cy="364.07" data-y="2.52" data-x="1591574400" r="1" fill="white"><title>2020-06-08: 3</title></circle>
	<circle cx="203.71" cy="362.41" data-y="2.90" data-x="1591660800" r="1" fill="white"><title>2020-06-09: 3</title></circle>
	<circle cx="205.50" cy="359.79" data-y="3.50" data-x="1591747200" r="1" fill="white"><title>2020-06-10: 4</title></circle>
	<circle cx="207.29" cy="358.37" data-y="3.83" data-x="1591833600" r="1" fill="white"><title>2020-06-11: 4</title></circle>
	<circle cx="209.08" cy="357.42" data-y="4.05" data-x="1591920000" r="1" fill="white"><title>2020-06-12: 4</title></circle>
	<circle cx="210.86" cy="352.90" data-y="5.09" data-x="1592006400" r="1" fill="white"><title>2020-06-13: 5</title></circle>
	<circle cx="212.65" cy="355.51" data-y="4.49" data-x="1592092800" r="1" fill="white"><title>2020-06-14: 4</title></circle>
	<circle cx="214.44" cy="355.51" data-y="4.49" data-x="1592179200" r="1" fill="white"><title>2020-06-15: 4</title></circle>
	<circle cx="216.22" cy="357.89" data-y="3.94" data-x="1592265600" r="1" fill="white"><title>2020-06-16: 4</title></circle>
	<circle cx="218.01" cy="360.27" data-y="3.39" data-x="1592352000" r="1" fill="white"><title>2020-06-17: 3</title></circle>
	<circle cx="219.80" cy="360.98" data-y="3.23" data-x="1592438400" r="1" fill="white"><title>2020-06-18: 3</title></circle>
	<circle cx="221.59" cy="363.12" data-y="2.73" data-x="1592524800" r="1" fill="white"><title>2020-06-19: 3</title></circle>
	<circle cx="223.37" cy="368.11" data-y="1.59" data-x="1592611200" r="1" fill="white"><title>2020-06-20: 2</title></circle>
	<circle cx="225.16" cy="368.82" data-y="1.42" data-x="1592697600" r="1" fill="white"><title>2020-06-21: 1</title></circle>
	<circle cx="226.95" cy="369.53" data-y="1.26" data-x="1592784000" r="1" fill="white"><title>2020-06-22: 1</title></circle>
	<circle cx="228.73" cy="370.01" data-y="1.15" data-x="1592870400" r="1" fill="white"><title>2020-06-23: 1</title></circle>
	<circle cx="230.52" cy="370.96" data-y="0.93" data-x="1592956800" r="1" fill="white"><title>2020-06-24: 1</title></circle>
	<circle cx="232.31" cy="371.67" data-y="0.77" data-x="1593043200" r="1" fill="white"><title>2020-06-25: 1</title></circle>
	<circle cx="234.10" cy="371.91" data-y="0.71" data-x="1593129600" r="1" fill="white"><title>2020-06-26: 1</title></circle>
	<circle cx="235.88" cy="372.15" data-y="0.66" data-x="1593216000" r="1" fill="white"><title>2020-06-27: 1</title></circle>
	<circle cx="237.67" cy="372.15" data-y="0.66" data-x="1593302400" r="1" fill="white"><title>2020-06-28: 1</title></circle>
	<circle cx="239.46" cy="372.86" data-y="0.49" data-x="1593388800" r="1" fill="white"><title>2020-06-29: 0</title></circle>
	<circle cx="241.24" cy="372.62" data-y="0.55" data-x="1593475200" r="1" fill="white"><title>2020-06-30: 1</title></circle>
	<circle cx="243.03" cy="372.62" data-y="0.55" data-x="1593561600" r="1" fill="white"><title>2020-07-01: 1</title></circle>
	<circle cx="244.82" cy="372.86" data-y="0.49" data-x="1593648000" r="1" fill="white"><title>2020-07-02: 0</title></circle>
	<circle cx="246.61" cy="372.86" data-y="0.49" data-x="1593734400" r="1" fill="white"><title>2020-07-03: 0</title></circle>
	<circle cx="248.39" cy="373.57" data-y="0.33" data-x="1593820800" r="1" fill="white"><title>2020-07-04: 0</title></circle>
	<circle cx="250.18" cy="373.57" data-y="0.33" data-x="1593907200" r="1" fill="white"><title>2020-07-05: 0</title></circle>
	<circle cx="251.97" cy="373.57" data-y="0.33" data-x="1593993600" r="1" fill="white"><title>2020-07-06: 0</title></circle>
	<circle cx="253.76" cy="373.81" data-y="0.27" data-x="1594080000" r="1" fill="white"><title>2020-07-07: 0</title></circle>
	<circle cx="255.54" cy="373.81" data-y="0.27" data-x="1594166400" r="1" fill="white"><title>2020-07-08: 0</title></circle>
	<circle cx="257.33" cy="373.81" data-y="0.27" data-x="1594252800" r="1" fill="white"><title>2020-07-09: 0</title></circle>
	<circle cx="259.12" cy="373.57" data-y="0.33" data-x="1594339200" r="1" fill="white"><title>2020-07-10: 0</title></circle>
	<circle cx="260.90" cy="373.34" data-y="0.38" data-x="1594425600" r="1" fill="white"><title>2020-07-11: 0</title></circle>
	<circle cx="262.69" cy="373.57" data-y="0.33" data-x="1594512000" r="1" fill="white"><title>2020-07-12: 0</title></circle>
	<circle cx="264.48" cy="373.34" data-y="0.38" data-x="1594598400" r="1" fill="white"><title>2020-07-13: 0</title></circle>
	<circle cx="266.27" cy="372.86" data-y="0.49" data-x="1594684800" r="1" fill="white"><title>2020-07-14: 0</title></circle>
	<circle cx="268.05" cy="371.67" data-y="0.77" data-x="1594771200" r="1" fill="white"><title>2020-07-15: 1</title></circle>
	<circle cx="269.84" cy="371.20" data-y="0.88" data-x="1594857600" r="1" fill="white"><title>2020-07-16: 1</title></circle>
	<circle cx="271.63" cy="371.20" data-y="0.88" data-x="1594944000" r="1" fill="white"><title>2020-07-17: 1</title></circle>
	<circle cx="273.41" cy="370.96" data-y="0.93" data-x="1595030400" r="1" fill="white"><title>2020-07-18: 1</title></circle>
	<circle cx="275.20" cy="371.20" data-y="0.88" data-x="1595116800" r="1" fill="white"><title>2020-07-19: 1</title></circle>
	<circle cx="276.99" cy="371.20" data-y="0.88" data-x="1595203200" r="1" fill="white"><title>2020-07-20: 1</title></circle>
	<circle cx="278.78" cy="370.96" data-y="0.93" data-x="1595289600" r="1" fill="white"><title>2020-07-21: 1</title></circle>
	<circle cx="280.56" cy="372.39" data-y="0.60" data-x="1595376000" r="1" fill="white"><title>2020-07-22: 1</title></circle>
	<circle cx="282.35" cy="372.62" data-y="0.55" data-x="1595462400" r="1" fill="white"><title>2020-07-23: 1</title></circle>
	<circle cx="284.14" cy="372.86" data-y="0.49" data-x="1595548800" r="1" fill="white"><title>2020-07-24: 0</title></circle>
	<circle cx="285.92" cy="372.86" data-y="0.49" data-x="1595635200" r="1" fill="white"><title>2020-07-25: 0</title></circle>
	<circle cx="287.71" cy="372.62" data-y="0.55" data-x="1595721600" r="1" fill="white"><title>2020-07-26: 1</title></circle>
	<circle cx="289.50" cy="372.62" data-y="0.55" data-x="1595808000" r="1" fill="white"><title>2020-07-27: 1</title></circle>
	<circle cx="291.29" cy="373.34" data-y="0.38" data-x="1595894400" r="1" fill="white"><title>2020-07-28: 0</title></circle>
	<circle cx="293.07" cy="373.34" data-y="0.38" data-x="1595980800" r="1" fill="white"><title>2020-07-29: 0</title></circle>
	<circle cx="294.86" cy="373.34" data-y="0.38" data-x="1596067200" r="1" fill="white"><title>2020-07-30: 0</title></circle>
	<circle cx="296.65" cy="373.57" data-y="0.33" data-x="1596153600" r="1" fill="white"><title>2020-07-31: 0</title></circle>
	<circle cx="298.43" cy="373.81" data-y="0.27" data-x="1596240000" r="1" fill="white"><title>2020-08-01: 0</title></circle>
	<circle cx="300.22" cy="373.57" data-y="0.33" data-x="1596326400" r="1" fill="white"><title>2020-08-02: 0</title></circle>
	<circle cx="302.01" cy="373.81" data-y="0.27" data-x="1596412800" r="1" fill="white"><title>2020-08-03: 0</title></circle>
	<circle cx="303.80" cy="374.05" data-y="0.22" data-x="1596499200" r="1" fill="white"><title>2020-08-04: 0</title></circle>
	<circle cx="305.58" cy="374.05" data-y="0.22" data-x="1596585600" r="1" fill="white"><title>2020-08-05: 0</title></circle>
	<circle cx="307.37" cy="374.29" data-y="0.16" data-x="1596672000" r="1" fill="white"><title>2020-08-06: 0</title></circle>
	<circle cx="309.16" cy="373.10" data-y="0.44" data-x="1596758400" r="1" fill="white"><title>2020-08-07: 0</title></circle>
	<circle cx="310.94" cy="373.10" data-y="0.44" data-x="1596844800" r="1" fill="white"><title>2020-08-08: 0</title></circle>
	<circle cx="312.73" cy="372.39" data-y="0.60" data-x="1596931200" r="1" fill="white"><title>2020-08-09: 1</title></circle>
	<circle cx="314.52" cy="371.91" data-y="0.71" data-x="1597017600" r="1" fill="white"><title>2020-08-10: 1</title></circle>
	<circle cx="316.31" cy="370.96" data-y="0.93" data-x="1597104000" r="1" fill="white"><title>2020-08-11: 1</title></circle>
	<circle cx="318.09" cy="370.72" data-y="0.98" data-x="1597190400" r="1" fill="white"><title>2020-08-12: 1</title></circle>
	<circle cx="319.88" cy="370.72" data-y="0.98" data-x="1597276800" r="1" fill="white"><title>2020-08-13: 1</title></circle>
	<circle cx="321.67" cy="371.44" data-y="0.82" data-x="1597363200" r="1" fill="white"><title>2020-08-14: 1</title></circle>
	<circle cx="323.45" cy="371.44" data-y="0.82" data-x="1597449600" r="1" fill="white"><title>2020-08-15: 1</title></circle>
	<circle cx="325.24" cy="372.15" data-y="0.66" data-x="1597536000" r="1" fill="white"><title>2020-08-16: 1</title></circle>
	<circle cx="327.03" cy="372.62" data-y="0.55" data-x="1597622400" r="1" fill="white"><title>2020-08-17: 1</title></circle>
	<circle cx="328.82" cy="373.57" data-y="0.33" data-x="1597708800" r="1" fill="white"><title>2020-08-18: 0</title></circle>
	<circle cx="330.60" cy="373.10" data-y="0.44" data-x="1597795200" r="1" fill="white"><title>2020-08-19: 0</title></circle>
	<circle cx="332.39" cy="372.86" data-y="0.49" data-x="1597881600" r="1" fill="white"><title>2020-08-20: 0</title></circle>
	<circle cx="334.18" cy="373.10" data-y="0.44" data-x="1597968000" r="1" fill="white"><title>2020-08-21: 0</title></circle>
	<circle cx="335.96" cy="373.10" data-y="0.44" data-x="1598054400" r="1" fill="white"><title>2020-08-22: 0</title></circle>
	<circle cx="337.75" cy="372.86" data-y="0.49" data-x="1598140800" r="1" fill="white"><title>2020-08-23: 0</title></circle>
	<circle cx="339.54" cy="372.39" data-y="0.60" data-x="1598227200" r="1" fill="white"><title>2020-08-24: 1</title></circle>
	<circle cx="341.33" cy="372.39" data-y="0.60" data-x="1598313600" r="1" fill="white"><title>2020-08-25: 1</title></circle>
	<circle cx="343.11" cy="373.10" data-y="0.44" data-x="1598400000" r="1" fill="white"><title>2020-08-26: 0</title></circle>
	<circle cx="344.90" cy="372.86" data-y="0.49" data-x="1598486400" r="1" fill="white"><title>2020-08-27: 0</title></circle>
	<circle cx="346.69" cy="372.86" data-y="0.49" data-x="1598572800" r="1" fill="white"><title>2020-08-28: 0</title></circle>
	<circle cx="348.47" cy="372.39" data-y="0.60" data-x="1598659200" r="1" fill="white"><title>2020-08-29: 1</title></circle>
	<circle cx="350.26" cy="371.67" data-y="0.77" data-x="1598745600" r="1" fill="white"><title>2020-08-30: 1</title></circle>
	<circle cx="352.05" cy="370.49" data-y="1.04" data-x="1598832000" r="1" fill="white"><title>2020-08-31: 1</title></circle>
	<circle cx="353.84" cy="369.77" data-y="1.20" data-x="1598918400" r="1" fill="white"><title>2020-09-01: 1</title></circle>
	<circle cx="355.62" cy="369.53" data-y="1.26" data-x="1599004800" r="1" fill="white"><title>2020-09-02: 1</title></circle>
	<circle cx="357.41" cy="368.82" data-y="1.42" data-x="1599091200" r="1" fill="white"><title>2020-09-03: 1</title></circle>
	<circle cx="359.20" cy="365.49" data-y="2.19" data-x="1599177600" r="1" fill="white"><title>2020-09-04: 2</title></circle>
	<circle cx="360.98" cy="365.26" data-y="2.24" data-x="1599264000" r="1" fill="white"><title>2020-09-05: 2</title></circle>
	<circle cx="362.77" cy="365.73" data-y="2.13" data-x="1599350400" r="1" fill="white"><title>2020-09-06: 2</title></circle>
	<circle cx="364.56" cy="367.16" data-y="1.80" data-x="1599436800" r="1" fill="white"><title>2020-09-07: 2</title></circle>
	<circle cx="366.35" cy="367.40" data-y="1.75" data-x="1599523200" r="1" fill="white"><title>2020-09-08: 2</title></circle>
	<circle cx="368.13" cy="367.16" data-y="1.80" data-x="1599609600" r="1" fill="white"><title>2020-09-09: 2</title></circle>
	<circle cx="369.92" cy="367.63" data-y="1.70" data-x="1599696000" r="1" fill="white"><title>2020-09-10: 2</title></circle>
	<circle cx="371.71" cy="370.25" data-y="1.09" data-x="1599782400" r="1" fill="white"><title>2020-09-11: 1</title></circle>
	<circle cx="373.49" cy="370.49" data-y="1.04" data-x="1599868800" r="1" fill="white"><title>2020-09-12: 1</title></circle>
	<circle cx="375.28" cy="370.49" data-y="1.04" data-x="1599955200" r="1" fill="white"><title>2020-09-13: 1</title></circle>
	<circle cx="377.07" cy="368.82" data-y="1.42" data-x="1600041600" r="1" fill="white"><title>2020-09-14: 1</title></circle>
	<circle cx="378.86" cy="367.40" data-y="1.75" data-x="1600128000" r="1" fill="white"><title>2020-09-15: 2</title></circle>
	<circle cx="380.64" cy="366.68" data-y="1.91" data-x="1600214400" r="1" fill="white"><title>2020-09-16: 2</title></circle>
	<circle cx="382.43" cy="365.97" data-y="2.08" data-x="1600300800" r="1" fill="white"><title>2020-09-17: 2</title></circle>
	<circle cx="384.22" cy="364.07" data-y="2.52" data-x="1600387200" r="1" fill="white"><title>2020-09-18: 3</title></circle>
	<circle cx="386.00" cy="362.41" data-y="2.90" data-x="1600473600" r="1" fill="white"><title>2020-09-19: 3</title></circle>
	<circle cx="387.79" cy="360.98" data-y="3.23" data-x="1600560000" r="1" fill="white"><title>2020-09-20: 3</title></circle>
	<circle cx="389.58" cy="359.08" data-y="3.66" data-x="1600646400" r="1" fill="white"><title>2020-09-21: 4</title></circle>
	<circle cx="391.37" cy="357.42" data-y="4.05" data-x="1600732800" r="1" fill="white"><title>2020-09-22: 4</title></circle>
	<circle cx="393.15" cy="356.70" data-y="4.21" data-x="1600819200" r="1" fill="white"><title>2020-09-23: 4</title></circle>
	<circle cx="394.94" cy="353.14" data-y="5.03" data-x="1600905600" r="1" fill="white"><title>2020-09-24: 5</title></circle>
	<circle cx="396.73" cy="350.76" data-y="5.58" data-x="1600992000" r="1" fill="white"><title>2020-09-25: 6</title></circle>
	<circle cx="398.51" cy="346.48" data-y="6.56" data-x="1601078400" r="1" fill="white"><title>2020-09-26: 7</title></circle>
	<circle cx="400.30" cy="334.84" data-y="9.24" data-x="1601164800" r="1" fill="white"><title>2020-09-27: 9</title></circle>
	<circle cx="402.09" cy="328.42" data-y="10.72" data-x="1601251200" r="1" fill="white"><title>2020-09-28: 11</title></circle>
	<circle cx="403.88" cy="319.63" data-y="12.74" data-x="1601337600" r="1" fill="white"><title>2020-09-29: 13</title></circle>
	<circle cx="405.66" cy="314.88" data-y="13.84" data-x="1601424000" r="1" fill="white"><title>2020-09-30: 14</title></circle>
	<circle cx="407.45" cy="315.83" data-y="13.62" data-x="1601510400" r="1" fill="white"><title>2020-10-01: 14</title></circle>
	<circle cx="409.24" cy="311.55" data-y="14.60" data-x="1601596800" r="1" fill="white"><title>2020-10-02: 15</title></circle>
	<circle cx="411.02" cy="309.41" data-y="15.10" data-x="1601683200" r="1" fill="white"><title>2020-10-03: 15</title></circle>
	<circle cx="412.81" cy="309.65" data-y="15.04" data-x="1601769600" r="1" fill="white"><title>2020-10-04: 15</title></circle>
	<circle cx="414.60" cy="312.03" data-y="14.49" data-x="1601856000" r="1" fill="white"><title>2020-10-05: 14</title></circle>
	<circle cx="416.39" cy="313.93" data-y="14.06" data-x="1601942400" r="1" fill="white"><title>2020-10-06: 14</title></circle>
	<circle cx="418.17" cy="310.13" data-y="14.93" data-x="1602028800" r="1" fill="white"><title>2020-10-07: 15</title></circle>
	<circle cx="419.96" cy="308.94" data-y="15.21" data-x="1602115200" r="1" fill="white"><title>2020-10-08: 15</title></circle>
	<circle cx="421.75" cy="305.85" data-y="15.92" data-x="1602201600" r="1" fill="white"><title>2020-10-09: 16</title></circle>
	<circle cx="423.53" cy="301.57" data-y="16.90" data-x="1602288000" r="1" fill="white"><title>2020-10-10: 17</title></circle>
	<circle cx="425.32" cy="300.38" data-y="17.17" data-x="1602374400" r="1" fill="white"><title>2020-10-11: 17</title></circle>
	<circle cx="427.11" cy="297.06" data-y="17.94" data-x="1602460800" r="1" fill="white"><title>2020-10-12: 18</title></circle>
	<circle cx="428.90" cy="294.21" data-y="18.60" data-x="1602547200" r="1" fill="white"><title>2020-10-13: 19</title></circle>
	<circle cx="430.68" cy="292.78" data-y="18.92" data-x="1602633600" r="1" fill="white"><title>2020-10-14: 19</title></circle>
	<circle cx="432.47" cy="285.65" data-y="20.57" data-x="1602720000" r="1" fill="white"><title>2020-10-15: 21</title></circle>
	<circle cx="434.26" cy="270.68" data-y="24.01" data-x="1602806400" r="1" fill="white"><title>2020-10-16: 24</title></circle>
	<circle cx="436.04" cy="257.37" data-y="27.07" data-x="1602892800" r="1" fill="white"><title>2020-10-17: 27</title></circle>
	<circle cx="437.83" cy="243.12" data-y="30.36" data-x="1602979200" r="1" fill="white"><title>2020-10-18: 30</title></circle>
	<circle cx="439.62" cy="221.25" data-y="35.39" data-x="1603065600" r="1" fill="white"><title>2020-10-19: 35</title></circle>
	<circle cx="441.41" cy="209.37" data-y="38.12" data-x="1603152000" r="1" fill="white"><title>2020-10-20: 38</title></circle>
	<circle cx="443.19" cy="198.44" data-y="40.64" data-x="1603238400" r="1" fill="white"><title>2020-10-21: 41</title></circle>
	<circle cx="444.98" cy="189.89" data-y="42.61" data-x="1603324800" r="1" fill="white"><title>2020-10-22: 43</title></circle>
	<circle cx="446.77" cy="178.24" data-y="45.29" data-x="1603411200" r="1" fill="white"><title>2020-10-23: 45</title></circle>
	<circle cx="448.55" cy="168.26" data-y="47.59" data-x="1603497600" r="1" fill="white"><title>2020-10-24: 48</title></circle>
	<circle cx="450.34" cy="154.00" data-y="50.87" data-x="1603584000" r="1" fill="white"><title>2020-10-25: 51</title></circle>
	<circle cx="452.13" cy="144.74" data-y="53.00" data-x="1603670400" r="1" fill="white"><title>2020-10-26: 53</title></circle>
	<circle cx="453.92" cy="126.20" data-y="57.27" data-x="1603756800" r="1" fill="white"><title>2020-10-27: 57</title></circle>
	<circle cx="455.70" cy="105.29" data-y="62.08" data-x="1603843200" r="1" fill="white"><title>2020-10-28: 62</title></circle>
	<circle cx="457.49" cy="82.48" data-y="67.33" data-x="1603929600" r="1" fill="white"><title>2020-10-29: 67</title></circle>
	<circle cx="459.28" cy="39.70" data-y="77.18" data-x="1604016000" r="1" fill="white"><title>2020-10-30: 77</title></circle>
	<circle cx="461.06" cy="11.43" data-y="83.68" data-x="1604102400" r="1" fill="white"><title>2020-10-31: 84</title></circle>
</g>
<g data-series="recent-cases" class="data-series">
	<path d="M 461.06,11.43L 462.85,10.00L 464.64,52.06L 466.43,49.25L 468.21,45.31L 470.00,39.41" id="Recent cases" class="line" stroke-width="1" stroke-linecap="round" stroke-dasharray="4,6" stroke-dashoffset="4"><title>Recent cases</title></path>
	<circle cx="461.06" cy="11.43" data-y="83.68" data-x="1604102400" r="2.5" fill="white"><title>2020-10-31: 84</title></circle>
	<circle cx="462.85" cy="10.00" data-y="84.01" data-x="1604188800" r="2.5" fill="white"><title>2020-11-01: 84</title></circle>
	<circle cx="464.64" cy="52.06" data-y="74.33" data-x="1604275200" r="2.5" fill="white"><title>2020-11-02: 74</title></circle>
	<circle cx="466.43" cy="49.25" data-y="74.98" data-x="1604361600" r="2.5" fill="white"><title>2020-11-03: 75</title></circle>
	<circle cx="468.21" cy="45.31" data-y="75.89" data-x="1604448000" r="2.5" fill="white"><title>2020-11-04: 76</title></circle>
	<circle cx="470.00" cy="39.41" data-y="77.24" data-x="1604534400" r="2.5" fill="white"><title>2020-11-05: 77</title></circle>
</g>
</svg>
