<svg width="480" height="400" viewBox="0 0 480 400" xmlns="http://www.w3.org/2000/svg" style="overflow:display" preserveAspectRatio="xMinYMin meet" overflow="visible">
<defs>
	<style>
	.data-series path.line { fill-opacity: 0; stroke: black; }
	.data-series path.line.dotted { stroke-dasharray: 12 20 }
	.data-series:hover path.line, .data-series.on path.line { stroke-width: 1; }
	.data-series:hover circle, .data-series.on circle { display: inline; }
	.graph-grid { font-family: "Helvetica Neue",Helvetica,Arial,"Lucida Grande",sans-serif; }
	.graph-grid line { stroke: black; stroke-width: 1; stroke-linecap: round; }
	.graph-grid.graph-grid-x text { text-anchor: middle; dominant-baseline: hanging; transform: translateY(10px); }
	.graph-grid.graph-grid-y text { text-anchor: end; dominant-baseline: middle; transform: translateX(-10px); }
	</style>
</defs>
<g class="graph-grid graph-grid-y">
	<line x1="25.00" y1="375.00" x2="470.00" y2="375.00" data-left="25"></line>
	<text x="35" y="375" text-anchor="end">0</text>
	<text x="35" y="290.920707746479" text-anchor="end">20</text>
	<text x="35" y="206.841415492958" text-anchor="end">40</text>
	<text x="35" y="122.762123239437" text-anchor="end">60</text>
	<text x="35" y="38.6828309859155" text-anchor="end">80</text>
	<text style="text-anchor:middle;dominant-baseline:hanging;font-weight:bold;transform: translateY(192.5px) rotate(-90deg);"></text>
</g>
<g class="graph-grid graph-grid-x">
	<line class="tick" x1="52.18" y1="375.00" x2="52.18" y2="380.00"></line>
	<text x="52.175572519084" y="375" text-anchor="middle">A</text>
	<line class="tick" x1="103.13" y1="375.00" x2="103.13" y2="380.00"></line>
	<text x="103.129770992366" y="375" text-anchor="middle">M</text>
	<line class="tick" x1="155.78" y1="375.00" x2="155.78" y2="380.00"></line>
	<text x="155.782442748092" y="375" text-anchor="middle">J</text>
	<line class="tick" x1="206.74" y1="375.00" x2="206.74" y2="380.00"></line>
	<text x="206.736641221374" y="375" text-anchor="middle">J</text>
	<line class="tick" x1="259.39" y1="375.00" x2="259.39" y2="380.00"></line>
	<text x="259.389312977099" y="375" text-anchor="middle">A</text>
	<line class="tick" x1="312.04" y1="375.00" x2="312.04" y2="380.00"></line>
	<text x="312.041984732824" y="375" text-anchor="middle">S</text>
	<line class="tick" x1="363.00" y1="375.00" x2="363.00" y2="380.00"></line>
	<text x="362.996183206107" y="375" text-anchor="middle">O</text>
	<line class="tick" x1="415.65" y1="375.00" x2="415.65" y2="380.00"></line>
	<text x="415.648854961832" y="375" text-anchor="middle">N</text>
	<line class="tick" x1="466.60" y1="375.00" x2="466.60" y2="380.00"></line>
	<text x="466.603053435114" y="375" text-anchor="middle">D</text>
	<text style="text-anchor:middle;dominant-baseline:hanging;font-weight:bold;transform: translateY(192.5px) rotate(-90deg);"></text>
</g>
<g data-series="widespread" class="data-series">
	<path d="M 25.00,345.57L 470.00,345.57" id="E06000001-level-0" class="line" stroke-width="1" stroke-linecap="round" stroke-dasharray="3,3" fill-opacity="0.3" opacity="0.3"><title>Widespread</title></path>
</g>
<g data-series="substantial" class="data-series">
	<path d="M 25.00,358.18L 470.00,358.18" id="E06000001-level-1" class="line" stroke-width="1" stroke-linecap="round" stroke-dasharray="3,3" fill-opacity="0.3" opacity="0.3"><title>Substantial</title></path>
</g>
<g data-series="moderate" class="data-series">
	<path d="M 25.00,370.80L 470.00,370.80" id="E06000001-level-2" class="line" stroke-width="1" stroke-linecap="round" stroke-dasharray="3,3" fill-opacity="0.3" opacity="0.3"><title>Moderate</title></path>
</g>
<g data-series="new-cases" class="data-series">
	<path d="M 25.00,372.75L 26.70,372.30L 28.40,372.75L 30.10,373.07L 31.79,373.71L 33.49,373.71L 35.19,373.07L 36.89,372.43L 38.59,371.79L 40.29,369.86L 41.98,369.22L 43.68,366.00L 45.38,364.08L 47.08,363.43L 48.78,362.79L 50.48,360.22L 52.18,358.29L 53.87,357.01L 55.57,354.44L 57.27,349.30L 58.97,347.37L 60.67,342.87L 62.37,344.15L 64.06,345.44L 65.76,343.51L 67.46,346.73L 69.16,348.65L 70.86,346.73L 72.56,346.08L 74.26,346.08L 75.95,331.95L 77.65,328.09L 79.35,323.59L 81.05,321.66L 82.75,319.74L 84.45,311.38L 86.15,305.60L 87.84,313.31L 89.54,312.02L 91.24,313.31L 92.94,308.81L 94.64,303.67L 96.34,311.38L 98.03,314.60L 99.73,318.45L 101.43,322.95L 103.13,322.95L 104.83,330.66L 106.53,333.87L 108.23,330.02L 109.92,331.30L 111.62,330.66L 113.32,325.52L 115.02,324.88L 116.72,318.45L 118.42,322.31L 120.11,321.66L 121.81,320.38L 123.51,322.95L 125.21,330.66L 126.91,328.73L 128.61,336.44L 130.31,339.01L 132.00,349.30L 133.70,351.22L 135.40,353.79L 137.10,355.08L 138.80,363.43L 140.50,361.51L 142.19,361.51L 143.89,362.15L 145.59,362.15L 147.29,361.51L 148.99,361.51L 150.69,358.29L 152.39,361.51L 154.08,359.58L 155.78,358.93L 157.48,359.58L 159.18,360.22L 160.88,359.58L 162.58,361.51L 164.27,361.51L 165.97,366.00L 167.67,365.36L 169.37,366.65L 171.07,365.36L 172.77,365.36L 174.47,366.00L 176.16,366.65L 177.86,366.65L 179.56,368.57L 181.26,369.86L 182.96,371.14L 184.66,372.43L 186.35,371.14L 188.05,370.50L 189.75,370.50L 191.45,370.50L 193.15,370.50L 194.85,371.14L 196.55,371.14L 198.24,373.07L 199.94,374.36L 201.64,374.36L 203.34,373.71L 205.04,373.71L 206.74,373.71L 208.44,373.71L 210.13,373.71L 211.83,373.07L 213.53,373.71L 215.23,373.71L 216.93,373.71L 218.63,373.71L 220.32,373.07L 222.02,373.07L 223.72,373.71L 225.42,372.43L 227.12,373.07L 228.82,372.43L 230.52,372.43L 232.21,371.14L 233.91,369.86L 235.61,368.57L 237.31,368.57L 239.01,367.93L 240.71,366.65L 242.40,365.36L 244.10,366.65L 245.80,367.93L 247.50,368.57L 249.20,368.57L 250.90,368.57L 252.60,369.86L 254.29,371.14L 255.99,371.14L 257.69,369.22L 259.39,369.86L 261.09,371.14L 262.79,371.14L 264.48,370.50L 266.18,370.50L 267.88,370.50L 269.58,371.14L 271.28,369.86L 272.98,369.86L 274.68,368.57L 276.37,369.22L 278.07,369.22L 279.77,369.86L 281.47,369.86L 283.17,370.50L 284.87,369.22L 286.56,370.50L 288.26,370.50L 289.96,370.50L 291.66,369.86L 293.36,370.50L 295.06,370.50L 296.76,370.50L 298.45,369.86L 300.15,368.57L 301.85,366.65L 303.55,364.72L 305.25,362.15L 306.95,358.29L 308.65,351.87L 310.34,347.37L 312.04,342.23L 313.74,342.23L 315.44,342.23L 317.14,338.37L 318.84,337.09L 320.53,340.30L 322.23,339.01L 323.93,342.87L 325.63,339.66L 327.33,340.30L 329.03,345.44L 330.73,347.37L 332.42,345.44L 334.12,348.01L 335.82,342.87L 337.52,340.30L 339.22,326.80L 340.92,320.38L 342.61,312.02L 344.31,310.74L 346.01,301.74L 347.71,302.39L 349.41,298.53L 351.11,293.39L 352.81,282.46L 354.50,277.32L 356.20,266.40L 357.90,258.69L 359.60,243.27L 361.30,236.20L 363.00,233.63L 364.69,227.84L 366.39,228.49L 368.09,220.13L 369.79,216.28L 371.49,215.63L 373.19,209.21L 374.89,215.63L 376.58,191.21L 378.28,167.44L 379.98,162.94L 381.68,167.44L 383.38,162.30L 385.08,167.44L 386.77,168.08L 388.47,179.01L 390.17,178.36L 391.87,174.51L 393.57,162.30L 395.27,167.44L 396.97,170.01L 398.66,162.94L 400.36,171.94L 402.06,179.65L 403.76,187.36L 405.46,188.64L 407.16,181.58L 408.85,170.65L 410.55,171.29L 412.25,156.51L 413.95,152.02L 415.65,140.45L 417.35,140.45L 419.05,129.52L 420.74,123.10L 422.44,98.04L 424.14,78.76L 425.84,66.55L 427.54,54.98L 429.24,24.14L 430.94,10.00L 432.63,10.64L 434.33,25.42L 436.03,39.56L 437.73,42.13L 439.43,60.12L 441.13,94.18L 442.82,123.74L 444.52,141.73L 446.22,155.87L 447.92,185.43L 449.62,203.42L 451.32,208.57L 453.02,213.71L 454.71,212.42L 456.41,214.35L 458.11,211.78L 459.81,213.06L 461.51,225.92" id="New cases" class="line" stroke-width="1" stroke-linecap="round"><title>New cases</title></path>
	<circle cx="25.00" cy="372.75" data-y="0.53" data-x="1584316800" r="1" fill="white"><title>2020-03-16: 1</title></circle>
	<circle cx="26.70" cy="372.30" data-y="0.64" data-x="1584403200" r="1" fill="white"><title>2020-03-17: 1</title></circle>
	<circle cx="28.40" cy="372.75" data-y="0.53" data-x="1584489600" r="1" fill="white"><title>2020-03-18: 1</title></circle>
	<circle cx="30.10" cy="373.07" data-y="0.46" data-x="1584576000" r="1" fill="white"><title>2020-03-19: 0</title></circle>
	<circle cx="31.79" cy="373.71" data-y="0.31" data-x="1584662400" r="1" fill="white"><title>2020-03-20: 0</title></circle>
	<circle cx="33.49" cy="373.71" data-y="0.31" data-x="1584748800" r="1" fill="white"><title>2020-03-21: 0</title></circle>
	<circle cx="35.19" cy="373.07" data-y="0.46" data-x="1584835200" r="1" fill="white"><title>2020-03-22: 0</title></circle>
	<circle cx="36.89" cy="372.43" data-y="0.61" data-x="1584921600" r="1" fill="white"><title>2020-03-23: 1</title></circle>
	<circle cx="38.59" cy="371.79" data-y="0.76" data-x="1585008000" r="1" fill="white"><title>2020-03-24: 1</title></circle>
	<circle cx="40.29" cy="369.86" data-y="1.22" data-x="1585094400" r="1" fill="white"><title>2020-03-25: 1</title></circle>
	<circle cx="41.98" cy="369.22" data-y="1.38" data-x="1585180800" r="1" fill="white"><title>2020-03-26: 1</title></circle>
	<circle cx="43.68" cy="366.00" data-y="2.14" data-x="1585267200" r="1" fill="white"><title>2020-03-27: 2</title></circle>
	<circle cx="45.38" cy="364.08" data-y="2.60" data-x="1585353600" r="1" fill="white"><title>2020-03-28: 3</title></circle>
	<circle cx="47.08" cy="363.43" data-y="2.75" data-x="1585440000" r="1" fill="white"><title>2020-03-29: 3</title></circle>
	<circle cx="48.78" cy="362.79" data-y="2.90" data-x="1585526400" r="1" fill="white"><title>2020-03-30: 3</title></circle>
	<circle cx="50.48" cy="360.22" data-y="3.52" data-x="1585612800" r="1" fill="white"><title>2020-03-31: 4</title></circle>
	<circle cx="52.18" cy="358.29" data-y="3.97" data-x="1585699200" r="1" fill="white"><title>2020-04-01: 4</title></circle>
	<circle cx="53.87" cy="357.01" data-y="4.28" data-x="1585785600" r="1" fill="white"><title>2020-04-02: 4</title></circle>
	<circle cx="55.57" cy="354.44" data-y="4.89" data-x="1585872000" r="1" fill="white"><title>2020-04-03: 5</title></circle>
	<circle cx="57.27" cy="349.30" data-y="6.11" data-x="1585958400" r="1" fill="white"><title>2020-04-04: 6</title></circle>
	<circle cx="58.97" cy="347.37" data-y="6.57" data-x="1586044800" r="1" fill="white"><title>2020-04-05: 7</title></circle>
	<circle cx="60.67" cy="342.87" data-y="7.64" data-x="1586131200" r="1" fill="white"><title>2020-04-06: 8</title></circle>
	<circle cx="62.37" cy="344.15" data-y="7.34" data-x="1586217600" r="1" fill="white"><title>2020-04-07: 7</title></circle>
	<circle cx="64.06" cy="345.44" data-y="7.03" data-x="1586304000" r="1" fill="white"><title>2020-04-08: 7</title></circle>
	<circle cx="65.76" cy="343.51" data-y="7.49" data-x="1586390400" r="1" fill="white"><title>2020-04-09: 7</title></circle>
	<circle cx="67.46" cy="346.73" data-y="6.73" data-x="1586476800" r="1" fill="white"><title>2020-04-10: 7</title></circle>
	<circle cx="69.16" cy="348.65" data-y="6.27" data-x="1586563200" r="1" fill="white"><title>2020-04-11: 6</title></circle>
	<circle cx="70.86" cy="346.73" data-y="6.73" data-x="1586649600" r="1" fill="white"><title>2020-04-12: 7</title></circle>
	<circle cx="72.56" cy="346.08" data-y="6.88" data-x="1586736000" r="1" fill="white"><title>2020-04-13: 7</title></circle>
	<circle cx="74.26" cy="346.08" data-y="6.88" data-x="1586822400" r="1" fill="white"><title>2020-04-14: 7</title></circle>
	<circle cx="75.95" cy="331.95" data-y="10.24" data-x="1586908800" r="1" fill="white"><title>2020-04-15: 10</title></circle>
	<circle cx="77.65" cy="328.09" data-y="11.16" data-x="1586995200" r="1" fill="white"><title>2020-04-16: 11</title></circle>
	<circle cx="79.35" cy="323.59" data-y="12.23" data-x="1587081600" r="1" fill="white"><title>2020-04-17: 12</title></circle>
	<circle cx="81.05" cy="321.66" data-y="12.69" data-x="1587168000" r="1" fill="white"><title>2020-04-18: 13</title></circle>
	<circle cx="82.75" cy="319.74" data-y="13.15" data-x="1587254400" r="1" fill="white"><title>2020-04-19: 13</title></circle>
	<circle cx="84.45" cy="311.38" data-y="15.13" data-x="1587340800" r="1" fill="white"><title>2020-04-20: 15</title></circle>
	<circle cx="86.15" cy="305.60" data-y="16.51" data-x="1587427200" r="1" fill="white"><title>2020-04-21: 17</title></circle>
	<circle cx="87.84" cy="313.31" data-y="14.67" data-x="1587513600" r="1" fill="white"><title>2020-04-22: 15</title></circle>
	<circle cx="89.54" cy="312.02" data-y="14.98" data-x="1587600000" r="1" fill="white"><title>2020-04-23: 15</title></circle>
	<circle cx="91.24" cy="313.31" data-y="14.67" data-x="1587686400" r="1" fill="white"><title>2020-04-24: 15</title></circle>
	<circle cx="92.94" cy="308.81" data-y="15.74" data-x="1587772800" r="1" fill="white"><title>2020-04-25: 16</title></circle>
	<circle cx="94.64" cy="303.67" data-y="16.97" data-x="1587859200" r="1" fill="white"><title>2020-04-26: 17</title></circle>
	<circle cx="96.34" cy="311.38" data-y="15.13" data-x="1587945600" r="1" fill="white"><title>2020-04-27: 15</title></circle>
	<circle cx="98.03" cy="314.60" data-y="14.37" data-x="1588032000" r="1" fill="white"><title>2020-04-28: 14</title></circle>
	<circle cx="99.73" cy="318.45" data-y="13.45" data-x="1588118400" r="1" fill="white"><title>2020-04-29: 13</title></circle>
	<circle cx="101.43" cy="322.95" data-y="12.38" data-x="1588204800" r="1" fill="white"><title>2020-04-30: 12</title></circle>
	<circle cx="103.13" cy="322.95" data-y="12.38" data-x="1588291200" r="1" fill="white"><title>2020-05-01: 12</title></circle>
	<circle cx="104.83" cy="330.66" data-y="10.55" data-x="1588377600" r="1" fill="white"><title>2020-05-02: 11</title></circle>
	<circle cx="106.53" cy="333.87" data-y="9.78" data-x="1588464000" r="1" fill="white"><title>2020-05-03: 10</title></circle>
	<circle cx="108.23" cy="330.02" data-y="10.70" data-x="1588550400" r="1" fill="white"><title>2020-05-04: 11</title></circle>
	<circle cx="109.92" cy="331.30" data-y="10.39" data-x="1588636800" r="1" fill="white"><title>2020-05-05: 10</title></circle>
	<circle cx="111.62" cy="330.66" data-y="10.55" data-x="1588723200" r="1" fill="white"><title>2020-05-06: 11</title></circle>
	<circle cx="113.32" cy="325.52" data-y="11.77" data-x="1588809600" r="1" fill="white"><title>2020-05-07: 12</title></circle>
	<circle cx="115.02" cy="324.88" data-y="11.92" data-x="1588896000" r="1" fill="white"><title>2020-05-08: 12</title></circle>
	<circle cx="116.72" cy="318.45" data-y="13.45" data-x="1588982400" r="1" fill="white"><title>2020-05-09: 13</title></circle>
	<circle cx="118.42" cy="322.31" data-y="12.53" data-x="1589068800" r="1" fill="white"><title>2020-05-10: 13</title></circle>
	<circle cx="120.11" cy="321.66" data-y="12.69" data-x="1589155200" r="1" fill="white"><title>2020-05-11: 13</title></circle>
	<circle cx="121.81" cy="320.38" data-y="12.99" data-x="1589241600" r="1" fill="white"><title>2020-05-12: 13</title></circle>
	<circle cx="123.51" cy="322.95" data-y="12.38" data-x="1589328000" r="1" fill="white"><title>2020-05-13: 12</title></circle>
	<circle cx="125.21" cy="330.66" data-y="10.55" data-x="1589414400" r="1" fill="white"><title>2020-05-14: 11</title></circle>
	<circle cx="126.91" cy="328.73" data-y="11.01" data-x="1589500800" r="1" fill="white"><title>2020-05-15: 11</title></circle>
	<circle cx="128.61" cy="336.44" data-y="9.17" data-x="1589587200" r="1" fill="white"><title>2020-05-16: 9</title></circle>
	<circle cx="130.31" cy="339.01" data-y="8.56" data-x="1589673600" r="1" fill="white"><title>2020-05-17: 9</title></circle>
	<circle cx="132.00" cy="349.30" data-y="6.11" data-x="1589760000" r="1" fill="white"><title>2020-05-18: 6</title></circle>
	<circle cx="133.70" cy="351.22" data-y="5.66" data-x="1589846400" r="1" fill="white"><title>2020-05-19: 6</title></circle>
	<circle cx="135.40" cy="353.79" data-y="5.04" data-x="1589932800" r="1" fill="white"><title>2020-05-20: 5</title></circle>
	<circle cx="137.10" cy="355.08" data-y="4.74" data-x="1590019200" r="1" fill="white"><title>2020-05-21: 5</title></circle>
	<circle cx="138.80" cy="363.43" data-y="2.75" data-x="1590105600" r="1" fill="white"><title>2020-05-22: 3</title></circle>
	<circle cx="140.50" cy="361.51" data-y="3.21" data-x="1590192000" r="1" fill="white"><title>2020-05-23: 3</title></circle>
	<circle cx="142.19" cy="361.51" data-y="3.21" data-x="1590278400" r="1" fill="white"><title>2020-05-24: 3</title></circle>
	<circle cx="143.89" cy="362.15" data-y="3.06" data-x="1590364800" r="1" fill="white"><title>2020-05-25: 3</title></circle>
	<circle cx="145.59" cy="362.15" data-y="3.06" data-x="1590451200" r="1" fill="white"><title>2020-05-26: 3</title></circle>
	<circle cx="147.29" cy="361.51" data-y="3.21" data-x="1590537600" r="1" fill="white"><title>2020-05-27: 3</title></circle>
	<circle cx="148.99" cy="361.51" data-y="3.21" data-x="1590624000" r="1" fill="white"><title>2020-05-28: 3</title></circle>
	<circle cx="150.69" cy="358.29" data-y="3.97" data-x="1590710400" r="1" fill="white"><title>2020-05-29: 4</title></circle>
	<circle cx="152.39" cy="361.51" data-y="3.21" data-x="1590796800" r="1" fill="white"><title>2020-05-30: 3</title></circle>
	<circle cx="154.08" cy="359.58" data-y="3.67" data-x="1590883200" r="1" fill="white"><title>2020-05-31: 4</title></circle>
	<circle cx="155.78" cy="358.93" data-y="3.82" data-x="1590969600" r="1" fill="white"><title>2020-06-01: 4</title></circle>
	<circle cx="157.48" cy="359.58" data-y="3.67" data-x="1591056000" r="1" fill="white"><title>2020-06-02: 4</title></circle>
	<circle cx="159.18" cy="360.22" data-y="3.52" data-x="1591142400" r="1" fill="white"><title>2020-06-03: 4</title></circle>
	<circle cx="160.88" cy="359.58" data-y="3.67" data-x="1591228800" r="1" fill="white"><title>2020-06-04: 4</title></circle>
	<circle cx="162.58" cy="361.51" data-y="3.21" data-x="1591315200" r="1" fill="white"><title>2020-06-05: 3</title></circle>
	<circle cx="164.27" cy="361.51" data-y="3.21" data-x="1591401600" r="1" fill="white"><title>2020-06-06: 3</title></circle>
	<circle cx="165.97" cy="366.00" data-y="2.14" data-x="1591488000" r="1" fill="white"><title>2020-06-07: 2</title></circle>
	<circle cx="167.67" cy="365.36" data-y="2.29" data-x="1591574400" r="1" fill="white"><title>2020-06-08: 2</title></circle>
	<circle cx="169.37" cy="366.65" data-y="1.99" data-x="1591660800" r="1" fill="white"><title>2020-06-09: 2</title></circle>
	<circle cx="171.07" cy="365.36" data-y="2.29" data-x="1591747200" r="1" fill="white"><title>2020-06-10: 2</title></circle>
	<circle cx="172.77" cy="365.36" data-y="2.29" data-x="1591833600" r="1" fill="white"><title>2020-06-11: 2</title></circle>
	<circle cx="174.47" cy="366.00" data-y="2.14" data-x="1591920000" r="1" fill="white"><title>2020-06-12: 2</title></circle>
	<circle cx="176.16" cy="366.65" data-y="1.99" data-x="1592006400" r="1" fill="white"><title>2020-06-13: 2</title></circle>
	<circle cx="177.86" cy="366.65" data-y="1.99" data-x="1592092800" r="1" fill="white"><title>2020-06-14: 2</title></circle>
	<circle cx="179.56" cy="368.57" data-y="1.53" data-x="1592179200" r="1" fill="white"><title>2020-06-15: 2</title></circle>
	<circle cx="181.26" cy="369.86" data-y="1.22" data-x="1592265600" r="1" fill="white"><title>2020-06-16: 1</title></circle>
	<circle cx="182.96" cy="371.14" data-y="0.92" data-x="1592352000" r="1" fill="white"><title>2020-06-17: 1</title></circle>
	<circle cx="184.66" cy="372.43" data-y="0.61" data-x="1592438400" r="1" fill="white"><title>2020-06-18: 1</title></circle>
	<circle cx="186.35" cy="371.14" data-y="0.92" data-x="1592524800" r="1" fill="white"><title>2020-06-19: 1</title></circle>
	<circle cx="188.05" cy="370.50" data-y="1.07" data-x="1592611200" r="1" fill="white"><title>2020-06-20: 1</title></circle>
	<circle cx="189.75" cy="370.50" data-y="1.07" data-x="1592697600" r="1" fill="white"><title>2020-06-21: 1</title></circle>
	<circle cx="191.45" cy="370.50" data-y="1.07" data-x="1592784000" r="1" fill="white"><title>2020-06-22: 1</title></circle>
	<circle cx="193.15" cy="370.50" data-y="1.07" data-x="1592870400" r="1" fill="white"><title>2020-06-23: 1</title></circle>
	<circle cx="194.85" cy="371.14" data-y="0.92" data-x="1592956800" r="1" fill="white"><title>2020-06-24: 1</title></circle>
	<circle cx="196.55" cy="371.14" data-y="0.92" data-x="1593043200" r="1" fill="white"><title>2020-06-25: 1</title></circle>
	<circle cx="198.24" cy="373.07" data-y="0.46" data-x="1593129600" r="1" fill="white"><title>2020-06-26: 0</title></circle>
	<circle cx="199.94" cy="374.36" data-y="0.15" data-x="1593216000" r="1" fill="white"><title>2020-06-27: 0</title></circle>
	<circle cx="201.64" cy="374.36" data-y="0.15" data-x="1593302400" r="1" fill="white"><title>2020-06-28: 0</title></circle>
	<circle cx="203.34" cy="373.71" data-y="0.31" data-x="1593388800" r="1" fill="white"><title>2020-06-29: 0</title></circle>
	<circle cx="205.04" cy="373.71" data-y="0.31" data-x="1593475200" r="1" fill="white"><title>2020-06-30: 0</title></circle>
	<circle cx="206.74" cy="373.71" data-y="0.31" data-x="1593561600" r="1" fill="white"><title>2020-07-01: 0</title></circle>
	<circle cx="208.44" cy="373.71" data-y="0.31" data-x="1593648000" r="1" fill="white"><title>2020-07-02: 0</title></circle>
	<circle cx="210.13" cy="373.71" data-y="0.31" data-x="1593734400" r="1" fill="white"><title>2020-07-03: 0</title></circle>
	<circle cx="211.83" cy="373.07" data-y="0.46" data-x="1593820800" r="1" fill="white"><title>2020-07-04: 0</title></circle>
	<circle cx="213.53" cy="373.71" data-y="0.31" data-x="1593907200" r="1" fill="white"><title>2020-07-05: 0</title></circle>
	<circle cx="215.23" cy="373.71" data-y="0.31" data-x="1593993600" r="1" fill="white"><title>2020-07-06: 0</title></circle>
	<circle cx="216.93" cy="373.71" data-y="0.31" data-x="1594080000" r="1" fill="white"><title>2020-07-07: 0</title></circle>
	<circle cx="218.63" cy="373.71" data-y="0.31" data-x="1594166400" r="1" fill="white"><title>2020-07-08: 0</title></circle>
	<circle cx="220.32" cy="373.07" data-y="0.46" data-x="1594252800" r="1" fill="white"><title>2020-07-09: 0</title></circle>
	<circle cx="222.02" cy="373.07" data-y="0.46" data-x="1594339200" r="1" fill="white"><title>2020-07-10: 0</title></circle>
	<circle cx="223.72" cy="373.71" data-y="0.31" data-x="1594425600" r="1" fill="white"><title>2020-07-11: 0</title></circle>
	<circle cx="225.42" cy="372.43" data-y="0.61" data-x="1594512000" r="1" fill="white"><title>2020-07-12: 1</title></circle>
	<circle cx="227.12" cy="373.07" data-y="0.46" data-x="1594598400" r="1" fill="white"><title>2020-07-13: 0</title></circle>
	<circle cx="228.82" cy="372.43" data-y="0.61" data-x="1594684800" r="1" fill="white"><title>2020-07-14: 1</title></circle>
	<circle cx="230.52" cy="372.43" data-y="0.61" data-x="1594771200" r="1" fill="white"><title>2020-07-15: 1</title></circle>
	<circle cx="232.21" cy="371.14" data-y="0.92" data-x="1594857600" r="1" fill="white"><title>2020-07-16: 1</title></circle>
	<circle cx="233.91" cy="369.86" data-y="1.22" data-x="1594944000" r="1" fill="white"><title>2020-07-17: 1</title></circle>
	<circle cx="235.61" cy="368.57" data-y="1.53" data-x="1595030400" r="1" fill="white"><title>2020-07-18: 2</title></circle>
	<circle cx="237.31" cy="368.57" data-y="1.53" data-x="1595116800" r="1" fill="white"><title>2020-07-19: 2</title></circle>
	<circle cx="239.01" cy="367.93" data-y="1.68" data-x="1595203200" r="1" fill="white"><title>2020-07-20: 2</title></circle>
	<circle cx="240.71" cy="366.65" data-y="1.99" data-x="1595289600" r="1" fill="white"><title>2020-07-21: 2</title></circle>
	<circle cx="242.40" cy="365.36" data-y="2.29" data-x="1595376000" r="1" fill="white"><title>2020-07-22: 2</title></circle>
	<circle cx="244.10" cy="366.65" data-y="1.99" data-x="1595462400" r="1" fill="white"><title>2020-07-23: 2</title></circle>
	<circle cx="245.80" cy="367.93" data-y="1.68" data-x="1595548800" r="1" fill="white"><title>2020-07-24: 2</title></circle>
	<circle cx="247.50" cy="368.57" data-y="1.53" data-x="1595635200" r="1" fill="white"><title>2020-07-25: 2</title></circle>
	<circle cx="249.20" cy="368.57" data-y="1.53" data-x="1595721600" r="1" fill="white"><title>2020-07-26: 2</title></circle>
	<circle cx="250.90" cy="368.57" data-y="1.53" data-x="1595808000" r="1" fill="white"><title>2020-07-27: 2</title></circle>
	<circle cx="252.60" cy="369.86" data-y="1.22" data-x="1595894400" r="1" fill="white"><title>2020-07-28: 1</title></circle>
	<circle cx="254.29" cy="371.14" data-y="0.92" data-x="1595980800" r="1" fill="white"><title>2020-07-29: 1</title></circle>
	<circle cx="255.99" cy="371.14" data-y="0.92" data-x="1596067200" r="1" fill="white"><title>2020-07-30: 1</title></circle>
	<circle cx="257.69" cy="369.22" data-y="1.38" data-x="1596153600" r="1" fill="white"><title>2020-07-31: 1</title></circle>
	<circle cx="259.39" cy="369.86" data-y="1.22" data-x="1596240000" r="1" fill="white"><title>2020-08-01: 1</title></circle>
	<circle cx="261.09" cy="371.14" data-y="0.92" data-x="1596326400" r="1" fill="white"><title>2020-08-02: 1</title></circle>
	<circle cx="262.79" cy="371.14" data-y="0.92" data-x="1596412800" r="1" fill="white"><title>2020-08-03: 1</title></circle>
	<circle cx="264.48" cy="370.50" data-y="1.07" data-x="1596499200" r="1" fill="white"><title>2020-08-04: 1</title></circle>
	<circle cx="266.18" cy="370.50" data-y="1.07" data-x="1596585600" r="1" fill="white"><title>2020-08-05: 1</title></circle>
	<circle cx="267.88" cy="370.50" data-y="1.07" data-x="1596672000" r="1" fill="white"><title>2020-08-06: 1</title></circle>
	<circle cx="269.58" cy="371.14" data-y="0.92" data-x="1596758400" r="1" fill="white"><title>2020-08-07: 1</title></circle>
	<circle cx="271.28" cy="369.86" data-y="1.22" data-x="1596844800" r="1" fill="white"><title>2020-08-08: 1</title></circle>
	<circle cx="272.98" cy="369.86" data-y="1.22" data-x="1596931200" r="1" fill="white"><title>2020-08-09: 1</title></circle>
	<circle cx="274.68" cy="368.57" data-y="1.53" data-x="1597017600" r="1" fill="white"><title>2020-08-10: 2</title></circle>
	<circle cx="276.37" cy="369.22" data-y="1.38" data-x="1597104000" r="1" fill="white"><title>2020-08-11: 1</title></circle>
	<circle cx="278.07" cy="369.22" data-y="1.38" data-x="1597190400" r="1" fill="white"><title>2020-08-12: 1</title></circle>
	<circle cx="279.77" cy="369.86" data-y="1.22" data-x="1597276800" r="1" fill="white"><title>2020-08-13: 1</title></circle>
	<circle cx="281.47" cy="369.86" data-y="1.22" data-x="1597363200" r="1" fill="white"><title>2020-08-14: 1</title></circle>
	<circle cx="283.17" cy="370.50" data-y="1.07" data-x="1597449600" r="1" fill="white"><title>2020-08-15: 1</title></circle>
	<circle cx="284.87" cy="369.22" data-y="1.38" data-x="1597536000" r="1" fill="white"><title>2020-08-16: 1</title></circle>
	<circle cx="286.56" cy="370.50" data-y="1.07" data-x="1597622400" r="1" fill="white"><title>2020-08-17: 1</title></circle>
	<circle cx="288.26" cy="370.50" data-y="1.07" data-x="1597708800" r="1" fill="white"><title>2020-08-18: 1</title></circle>
	<circle cx="289.96" cy="370.50" data-y="1.07" data-x="1597795200" r="1" fill="white"><title>2020-08-19: 1</title></circle>
	<circle cx="291.66" cy="369.86" data-y="1.22" data-x="1597881600" r="1" fill="white"><title>2020-08-20: 1</title></circle>
	<circle cx="293.36" cy="370.50" data-y="1.07" data-x="1597968000" r="1" fill="white"><title>2020-08-21: 1</title></circle>
	<circle cx="295.06" cy="370.50" data-y="1.07" data-x="1598054400" r="1" fill="white"><title>2020-08-22: 1</title></circle>
	<circle cx="296.76" cy="370.50" data-y="1.07" data-x="1598140800" r="1" fill="white"><title>2020-08-23: 1</title></circle>
	<circle cx="298.45" cy="369.86" data-y="1.22" data-x="1598227200" r="1" fill="white"><title>2020-08-24: 1</title></circle>
	<circle cx="300.15" cy="368.57" data-y="1.53" data-x="1598313600" r="1" fill="white"><title>2020-08-25: 2</title></circle>
	<circle cx="301.85" cy="366.65" data-y="1.99" data-x="1598400000" r="1" fill="white"><title>2020-08-26: 2</title></circle>
	<circle cx="303.55" cy="364.72" data-y="2.45" data-x="1598486400" r="1" fill="white"><title>2020-08-27: 2</title></circle>
	<circle cx="305.25" cy="362.15" data-y="3.06" data-x="1598572800" r="1" fill="white"><title>2020-08-28: 3</title></circle>
	<circle cx="306.95" cy="358.29" data-y="3.97" data-x="1598659200" r="1" fill="white"><title>2020-08-29: 4</title></circle>
	<circle cx="308.65" cy="351.87" data-y="5.50" data-x="1598745600" r="1" fill="white"><title>2020-08-30: 6</title></circle>
	<circle cx="310.34" cy="347.37" data-y="6.57" data-x="1598832000" r="1" fill="white"><title>2020-08-31: 7</title></circle>
	<circle cx="312.04" cy="342.23" data-y="7.80" data-x="1598918400" r="1" fill="white"><title>2020-09-01: 8</title></circle>
	<circle cx="313.74" cy="342.23" data-y="7.80" data-x="1599004800" r="1" fill="white"><title>2020-09-02: 8</title></circle>
	<circle cx="315.44" cy="342.23" data-y="7.80" data-x="1599091200" r="1" fill="white"><title>2020-09-03: 8</title></circle>
	<circle cx="317.14" cy="338.37" data-y="8.71" data-x="1599177600" r="1" fill="white"><title>2020-09-04: 9</title></circle>
	<circle cx="318.84" cy="337.09" data-y="9.02" data-x="1599264000" r="1" fill="white"><title>2020-09-05: 9</title></circle>
	<circle cx="320.53" cy="340.30" data-y="8.25" data-x="1599350400" r="1" fill="white"><title>2020-09-06: 8</title></circle>
	<circle cx="322.23" cy="339.01" data-y="8.56" data-x="1599436800" r="1" fill="white"><title>2020-09-07: 9</title></circle>
	<circle cx="323.93" cy="342.87" data-y="7.64" data-x="1599523200" r="1" fill="white"><title>2020-09-08: 8</title></circle>
	<circle cx="325.63" cy="339.66" data-y="8.41" data-x="1599609600" r="1" fill="white"><title>2020-09-09: 8</title></circle>
	<circle cx="327.33" cy="340.30" data-y="8.25" data-x="1599696000" r="1" fill="white"><title>2020-09-10: 8</title></circle>
	<circle cx="329.03" cy="345.44" data-y="7.03" data-x="1599782400" r="1" fill="white"><title>2020-09-11: 7</title></circle>
	<circle cx="330.73" cy="347.37" data-y="6.57" data-x="1599868800" r="1" fill="white"><title>2020-09-12: 7</title></circle>
	<circle cx="332.42" cy="345.44" data-y="7.03" data-x="1599955200" r="1" fill="white"><title>2020-09-13: 7</title></circle>
	<circle cx="334.12" cy="348.01" data-y="6.42" data-x="1600041600" r="1" fill="white"><title>2020-09-14: 6</title></circle>
	<circle cx="335.82" cy="342.87" data-y="7.64" data-x="1600128000" r="1" fill="white"><title>2020-09-15: 8</title></circle>
	<circle cx="337.52" cy="340.30" data-y="8.25" data-x="1600214400" r="1" fill="white"><title>2020-09-16: 8</title></circle>
	<circle cx="339.22" cy="326.80" data-y="11.46" data-x="1600300800" r="1" fill="white"><title>2020-09-17: 11</title></circle>
	<circle cx="340.92" cy="320.38" data-y="12.99" data-x="1600387200" r="1" fill="white"><title>2020-09-18: 13</title></circle>
	<circle cx="342.61" cy="312.02" data-y="14.98" data-x="1600473600" r="1" fill="white"><title>2020-09-19: 15</title></circle>
	<circle cx="344.31" cy="310.74" data-y="15.29" data-x="1600560000" r="1" fill="white"><title>2020-09-20: 15</title></circle>
	<circle cx="346.01" cy="301.74" data-y="17.43" data-x="1600646400" r="1" fill="white"><title>2020-09-21: 17</title></circle>
	<circle cx="347.71" cy="302.39" data-y="17.27" data-x="1600732800" r="1" fill="white"><title>2020-09-22: 17</title></circle>
	<circle cx="349.41" cy="298.53" data-y="18.19" data-x="1600819200" r="1" fill="white"><title>2020-09-23: 18</title></circle>
	<circle cx="351.11" cy="293.39" data-y="19.41" data-x="1600905600" r="1" fill="white"><title>2020-09-24: 19</title></circle>
	<circle cx="352.81" cy="282.46" data-y="22.01" data-x="1600992000" r="1" fill="white"><title>2020-09-25: 22</title></circle>
	<circle cx="354.50" cy="277.32" data-y="23.23" data-x="1601078400" r="1" fill="white"><title>2020-09-26: 23</title></circle>
	<circle cx="356.20" cy="266.40" data-y="25.83" data-x="1601164800" r="1" fill="white"><title>2020-09-27: 26</title></circle>
	<circle cx="357.90" cy="258.69" data-y="27.67" data-x="1601251200" r="1" fill="white"><title>2020-09-28: 28</title></circle>
	<circle cx="359.60" cy="243.27" data-y="31.34" data-x="1601337600" r="1" fill="white"><title>2020-09-29: 31</title></circle>
	<circle cx="361.30" cy="236.20" data-y="33.02" data-x="1601424000" r="1" fill="white"><title>2020-09-30: 33</title></circle>
	<circle cx="363.00" cy="233.63" data-y="33.63" data-x="1601510400" r="1" fill="white"><title>2020-10-01: 34</title></circle>
	<circle cx="364.69" cy="227.84" data-y="35.00" data-x="1601596800" r="1" fill="white"><title>2020-10-02: 35</title></circle>
	<circle cx="366.39" cy="228.49" data-y="34.85" data-x="1601683200" r="1" fill="white"><title>2020-10-03: 35</title></circle>
	<circle cx="368.09" cy="220.13" data-y="36.84" data-x="1601769600" r="1" fill="white"><title>2020-10-04: 37</title></circle>
	<circle cx="369.79" cy="216.28" data-y="37.76" data-x="1601856000" r="1" fill="white"><title>2020-10-05: 38</title></circle>
	<circle cx="371.49" cy="215.63" data-y="37.91" data-x="1601942400" r="1" fill="white"><title>2020-10-06: 38</title></circle>
	<circle cx="373.19" cy="209.21" data-y="39.44" data-x="1602028800" r="1" fill="white"><title>2020-10-07: 39</title></circle>
	<circle cx="374.89" cy="215.63" data-y="37.91" data-x="1602115200" r="1" fill="white"><title>2020-10-08: 38</title></circle>
	<circle cx="376.58" cy="191.21" data-y="43.72" data-x="1602201600" r="1" fill="white"><title>2020-10-09: 44</title></circle>
	<circle cx="378.28" cy="167.44" data-y="49.37" data-x="1602288000" r="1" fill="white"><title>2020-10-10: 49</title></circle>
	<circle cx="379.98" cy="162.94" data-y="50.44" data-x="1602374400" r="1" fill="white"><title>2020-10-11: 50</title></circle>
	<circle cx="381.68" cy="167.44" data-y="49.37" data-x="1602460800" r="1" fill="white"><title>2020-10-12: 49</title></circle>
	<circle cx="383.38" cy="162.30" data-y="50.60" data-x="1602547200" r="1" fill="white"><title>2020-10-13: 51</title></circle>
	<circle cx="385.08" cy="167.44" data-y="49.37" data-x="1602633600" r="1" fill="white"><title>2020-10-14: 49</title></circle>
	<circle cx="386.77" cy="168.08" data-y="49.22" data-x="1602720000" r="1" fill="white"><title>2020-10-15: 49</title></circle>
	<circle cx="388.47" cy="179.01" data-y="46.62" data-x="1602806400" r="1" fill="white"><title>2020-10-16: 47</title></circle>
	<circle cx="390.17" cy="178.36" data-y="46.77" data-x="1602892800" r="1" fill="white"><title>2020-10-17: 47</title></circle>
	<circle cx="391.87" cy="174.51" data-y="47.69" data-x="1602979200" r="1" fill="white"><title>2020-10-18: 48</title></circle>
	<circle cx="393.57" cy="162.30" data-y="50.60" data-x="1603065600" r="1" fill="white"><title>2020-10-19: 51</title></circle>
	<circle cx="395.27" cy="167.44" data-y="49.37" data-x="1603152000" r="1" fill="white"><title>2020-10-20: 49</title></circle>
	<circle cx="396.97" cy="170.01" data-y="48.76" data-x="1603238400" r="1" fill="white"><title>2020-10-21: 49</title></circle>
	<circle cx="398.66" cy="162.94" data-y="50.44" data-x="1603324800" r="1" fill="white"><title>2020-10-22: 50</title></circle>
	<circle cx="400.36" cy="171.94" data-y="48.30" data-x="1603411200" r="1" fill="white"><title>2020-10-23: 48</title></circle>
	<circle cx="402.06" cy="179.65" data-y="46.47" data-x="1603497600" r="1" fill="white"><title>2020-10-24: 46</title></circle>
	<circle cx="403.76" cy="187.36" data-y="44.63" data-x="1603584000" r="1" fill="white"><title>2020-10-25: 45</title></circle>
	<circle cx="405.46" cy="188.64" data-y="44.33" data-x="1603670400" r="1" fill="white"><title>2020-10-26: 44</title></circle>
	<circle cx="407.16" cy="181.58" data-y="46.01" data-x="1603756800" r="1" fill="white"><title>2020-10-27: 46</title></circle>
	<circle cx="408.85" cy="170.65" data-y="48.61" data-x="1603843200" r="1" fill="white"><title>2020-10-28: 49</title></circle>
	<circle cx="410.55" cy="171.29" data-y="48.46" data-x="1603929600" r="1" fill="white"><title>2020-10-29: 48</title></circle>
	<circle cx="412.25" cy="156.51" data-y="51.97" data-x="1604016000" r="1" fill="white"><title>2020-10-30: 52</title></circle>
	<circle cx="413.95" cy="152.02" data-y="53.04" data-x="1604102400" r="1" fill="white"><title>2020-10-31: 53</title></circle>
	<circle cx="415.65" cy="140.45" data-y="55.79" data-x="1604188800" r="1" fill="white"><title>2020-11-01: 56</title></circle>
	<circle cx="417.35" cy="140.45" data-y="55.79" data-x="1604275200" r="1" fill="white"><title>2020-11-02: 56</title></circle>
	<circle cx="419.05" cy="129.52" data-y="58.39" data-x="1604361600" r="1" fill="white"><title>2020-11-03: 58</title></circle>
	<circle cx="420.74" cy="123.10" data-y="59.92" data-x="1604448000" r="1" fill="white"><title>2020-11-04: 60</title></circle>
	<circle cx="422.44" cy="98.04" data-y="65.88" data-x="1604534400" r="1" fill="white"><title>2020-11-05: 66</title></circle>
	<circle cx="424.14" cy="78.76" data-y="70.47" data-x="1604620800" r="1" fill="white"><title>2020-11-06: 70</title></circle>
	<circle cx="425.84" cy="66.55" data-y="73.37" data-x="1604707200" r="1" fill="white"><title>2020-11-07: 73</title></circle>
	<circle cx="427.54" cy="54.98" data-y="76.12" data-x="1604793600" r="1" fill="white"><title>2020-11-08: 76</title></circle>
	<circle cx="429.24" cy="24.14" data-y="83.46" data-x="1604880000" r="1" fill="white"><title>2020-11-09: 83</title></circle>
	<circle cx="430.94" cy="10.00" data-y="86.82" data-x="1604966400" r="1" fill="white"><title>2020-11-10: 87</title></circle>
	<circle cx="432.63" cy="10.64" data-y="86.67" data-x="1605052800" r="1" fill="white"><title>2020-11-11: 87</title></circle>
	<circle cx="434.33" cy="25.42" data-y="83.15" data-x="1605139200" r="1" fill="white"><title>2020-11-12: 83</title></circle>
	<circle cx="436.03" cy="39.56" data-y="79.79" data-x="1605225600" r="1" fill="white"><title>2020-11-13: 80</title></circle>
	<circle cx="437.73" cy="42.13" data-y="79.18" data-x="1605312000" r="1" fill="white"><title>2020-11-14: 79</title></circle>
	<circle cx="439.43" cy="60.12" data-y="74.90" data-x="1605398400" r="1" fill="white"><title>2020-11-15: 75</title></circle>
	<circle cx="441.13" cy="94.18" data-y="66.80" data-x="1605484800" r="1" fill="white"><title>2020-11-16: 67</title></circle>
	<circle cx="442.82" cy="123.74" data-y="59.77" data-x="1605571200" r="1" fill="white"><title>2020-11-17: 60</title></circle>
	<circle cx="444.52" cy="141.73" data-y="55.49" data-x="1605657600" r="1" fill="white"><title>2020-11-18: 55</title></circle>
	<circle cx="446.22" cy="155.87" data-y="52.12" data-x="1605744000" r="1" fill="white"><title>2020-11-19: 52</title></circle>
	<circle cx="447.92" cy="185.43" data-y="45.09" data-x="1605830400" r="1" fill="white"><title>2020-11-20: 45</title></circle>
	<circle cx="449.62" cy="203.42" data-y="40.81" data-x="1605916800" r="1" fill="white"><title>2020-11-21: 41</title></circle>
	<circle cx="451.32" cy="208.57" data-y="39.59" data-x="1606003200" r="1" fill="white"><title>2020-11-22: 40</title></circle>
	<circle cx="453.02" cy="213.71" data-y="38.37" data-x="1606089600" r="1" fill="white"><title>2020-11-23: 38</title></circle>
	<circle cx="454.71" cy="212.42" data-y="38.67" data-x="1606176000" r="1" fill="white"><title>2020-11-24: 39</title></circle>
	<circle cx="456.41" cy="214.35" data-y="38.21" data-x="1606262400" r="1" fill="white"><title>2020-11-25: 38</title></circle>
	<circle cx="458.11" cy="211.78" data-y="38.83" data-x="1606348800" r="1" fill="white"><title>2020-11-26: 39</title></circle>
	<circle cx="459.81" cy="213.06" data-y="38.52" data-x="1606435200" r="1" fill="white"><title>2020-11-27: 39</title></circle>
	<circle cx="461.51" cy="225.92" data-y="35.46" data-x="1606521600" r="1" fill="white"><title>2020-11-28: 35</title></circle>
</g>
<g data-series="recent-cases" class="data-series">
	<path d="M 461.51,225.92L 463.21,233.63L 464.90,256.12L 466.60,268.54L 468.30,267.04L 470.00,277.16" id="Recent cases" class="line" stroke-width="1" stroke-linecap="round" stroke-dasharray="4,6" stroke-dashoffset="4"><title>Recent cases</title></path>
	<circle cx="461.51" cy="225.92" data-y="35.46" data-x="1606521600" r="2.5" fill="white"><title>2020-11-28: 35</title></circle>
	<circle cx="463.21" cy="233.63" data-y="33.63" data-x="1606608000" r="2.5" fill="white"><title>2020-11-29: 34</title></circle>
	<circle cx="464.90" cy="256.12" data-y="28.28" data-x="1606694400" r="2.5" fill="white"><title>2020-11-30: 28</title></circle>
	<circle cx="466.60" cy="268.54" data-y="25.32" data-x="1606780800" r="2.5" fill="white"><title>2020-12-01: 25</title></circle>
	<circle cx="468.30" cy="267.04" data-y="25.68" data-x="1606867200" r="2.5" fill="white"><title>2020-12-02: 26</title></circle>
	<circle cx="470.00" cy="277.16" data-y="23.27" data-x="1606953600" r="2.5" fill="white"><title>2020-12-03: 23</title></circle>
</g>
</svg>
