<svg width="480" height="400" viewBox="0 0 480 400" xmlns="http://www.w3.org/2000/svg" style="overflow:display" preserveAspectRatio="xMinYMin meet" overflow="visible">
<defs>
	<style>
	.data-series path.line { fill-opacity: 0; stroke: black; }
	.data-series path.line.dotted { stroke-dasharray: 12 20 }
	.data-series:hover path.line, .data-series.on path.line { stroke-width: 1; }
	.data-series:hover circle, .data-series.on circle { display: inline; }
	.graph-grid { font-family: "Helvetica Neue",Helvetica,Arial,"Lucida Grande",sans-serif; }
	.graph-grid line { stroke: black; stroke-width: 1; stroke-linecap: round; }
	.graph-grid.graph-grid-x text { text-anchor: middle; dominant-baseline: hanging; transform: translateY(10px); }
	.graph-grid.graph-grid-y text { text-anchor: end; dominant-baseline: middle; transform: translateX(-10px); }
	</style>
</defs>
<g class="graph-grid graph-grid-y">
	<line x1="25.00" y1="375.00" x2="470.00" y2="375.00" data-left="25"></line>
	<text x="35" y="375" text-anchor="end">0</text>
	<text x="35" y="223.901823943662" text-anchor="end">10</text>
	<text x="35" y="72.8036478873239" text-anchor="end">20</text>
	<text style="text-anchor:middle;dominant-baseline:hanging;font-weight:bold;transform: translateY(192.5px) rotate(-90deg);"></text>
</g>
<g class="graph-grid graph-grid-x">
	<line class="tick" x1="65.16" y1="375.00" x2="65.16" y2="380.00"></line>
	<text x="65.1624548736462" y="375" text-anchor="middle">M</text>
	<line class="tick" x1="114.96" y1="375.00" x2="114.96" y2="380.00"></line>
	<text x="114.963898916968" y="375" text-anchor="middle">A</text>
	<line class="tick" x1="163.16" y1="375.00" x2="163.16" y2="380.00"></line>
	<text x="163.158844765343" y="375" text-anchor="middle">M</text>
	<line class="tick" x1="212.96" y1="375.00" x2="212.96" y2="380.00"></line>
	<text x="212.960288808664" y="375" text-anchor="middle">J</text>
	<line class="tick" x1="261.16" y1="375.00" x2="261.16" y2="380.00"></line>
	<text x="261.15523465704" y="375" text-anchor="middle">J</text>
	<line class="tick" x1="310.96" y1="375.00" x2="310.96" y2="380.00"></line>
	<text x="310.956678700361" y="375" text-anchor="middle">A</text>
	<line class="tick" x1="360.76" y1="375.00" x2="360.76" y2="380.00"></line>
	<text x="360.758122743682" y="375" text-anchor="middle">S</text>
	<line class="tick" x1="408.95" y1="375.00" x2="408.95" y2="380.00"></line>
	<text x="408.953068592058" y="375" text-anchor="middle">O</text>
	<line class="tick" x1="458.75" y1="375.00" x2="458.75" y2="380.00"></line>
	<text x="458.754512635379" y="375" text-anchor="middle">N</text>
	<text style="text-anchor:middle;dominant-baseline:hanging;font-weight:bold;transform: translateY(192.5px) rotate(-90deg);"></text>
</g>
<g data-series="widespread" class="data-series">
	<path d="M 25.00,269.23L 470.00,269.23" id="E06000043-level-0" class="line" stroke-width="1" stroke-linecap="round" stroke-dasharray="3,3" fill-opacity="0.3" opacity="0.3"><title>Widespread</title></path>
</g>
<g data-series="substantial" class="data-series">
	<path d="M 25.00,314.56L 470.00,314.56" id="E06000043-level-1" class="line" stroke-width="1" stroke-linecap="round" stroke-dasharray="3,3" fill-opacity="0.3" opacity="0.3"><title>Substantial</title></path>
</g>
<g data-series="moderate" class="data-series">
	<path d="M 25.00,359.89L 470.00,359.89" id="E06000043-level-2" class="line" stroke-width="1" stroke-linecap="round" stroke-dasharray="3,3" fill-opacity="0.3" opacity="0.3"><title>Moderate</title></path>
</g>
<g data-series="new-cases" class="data-series">
	<path d="M 25.00,369.86L 26.61,369.86L 28.21,370.72L 29.82,371.33L 31.43,372.06L 33.03,372.06L 34.64,372.06L 36.25,374.27L 37.85,375.00L 39.46,375.00L 41.06,375.00L 42.67,375.00L 44.28,375.00L 45.88,375.00L 47.49,375.00L 49.10,375.00L 50.70,375.00L 52.31,375.00L 53.92,375.00L 55.52,375.00L 57.13,375.00L 58.74,375.00L 60.34,375.00L 61.95,375.00L 63.56,375.00L 65.16,374.27L 66.77,374.27L 68.38,374.27L 69.98,373.53L 71.59,373.53L 73.19,373.53L 74.80,372.06L 76.41,372.80L 78.01,372.80L 79.62,371.33L 81.23,372.06L 82.83,370.59L 84.44,369.12L 86.05,370.59L 87.65,367.66L 89.26,366.19L 90.87,365.45L 92.47,363.25L 94.08,362.52L 95.69,361.05L 97.29,355.91L 98.90,354.44L 100.51,349.30L 102.11,342.69L 103.72,339.01L 105.32,334.61L 106.93,333.14L 108.54,333.87L 110.14,324.33L 111.75,321.39L 113.36,322.12L 114.96,318.45L 116.57,316.98L 118.18,314.04L 119.78,306.70L 121.39,305.97L 123.00,311.11L 124.60,309.64L 126.21,313.31L 127.82,312.58L 129.42,311.84L 131.03,311.11L 132.64,312.58L 134.24,307.43L 135.85,305.97L 137.45,300.82L 139.06,301.56L 140.67,303.03L 142.27,307.43L 143.88,308.17L 145.49,308.90L 147.09,314.78L 148.70,317.72L 150.31,316.98L 151.91,319.92L 153.52,314.78L 155.13,313.31L 156.73,316.98L 158.34,316.25L 159.95,321.39L 161.55,321.39L 163.16,320.65L 164.77,325.79L 166.37,333.87L 167.98,336.08L 169.58,336.81L 171.19,338.28L 172.80,344.15L 174.40,343.42L 176.01,347.83L 177.62,349.30L 179.22,349.30L 180.83,349.30L 182.44,349.30L 184.04,349.30L 185.65,352.97L 187.26,352.23L 188.86,352.97L 190.47,352.23L 192.08,353.70L 193.68,352.97L 195.29,352.23L 196.90,350.03L 198.50,344.89L 200.11,339.75L 201.71,339.01L 203.32,339.75L 204.93,333.87L 206.53,333.14L 208.14,330.20L 209.75,333.14L 211.35,333.87L 212.96,333.87L 214.57,332.40L 216.17,336.81L 217.78,339.01L 219.39,343.42L 220.99,347.09L 222.60,352.97L 224.21,352.23L 225.81,353.70L 227.42,356.64L 229.03,356.64L 230.63,358.84L 232.24,360.31L 233.84,362.52L 235.45,366.19L 237.06,366.19L 238.66,364.72L 240.27,363.98L 241.88,363.25L 243.48,363.25L 245.09,362.52L 246.70,363.25L 248.30,365.45L 249.91,366.92L 251.52,369.12L 253.12,369.12L 254.73,369.86L 256.34,367.66L 257.94,367.66L 259.55,368.39L 261.16,369.12L 262.76,369.86L 264.37,370.59L 265.97,371.33L 267.58,373.53L 269.19,372.80L 270.79,369.86L 272.40,369.86L 274.01,369.12L 275.61,366.92L 277.22,365.45L 278.83,365.45L 280.43,366.19L 282.04,367.66L 283.65,366.92L 285.25,366.92L 286.86,368.39L 288.47,367.66L 290.07,365.45L 291.68,363.98L 293.29,361.78L 294.89,360.31L 296.50,360.31L 298.10,360.31L 299.71,360.31L 301.32,361.05L 302.92,363.25L 304.53,366.92L 306.14,369.12L 307.74,368.39L 309.35,369.12L 310.96,369.12L 312.56,369.86L 314.17,368.39L 315.78,366.92L 317.38,366.92L 318.99,368.39L 320.60,367.66L 322.20,368.39L 323.81,369.12L 325.42,369.12L 327.02,367.66L 328.63,366.19L 330.23,366.19L 331.84,364.72L 333.45,364.72L 335.05,365.45L 336.66,363.98L 338.27,363.98L 339.87,362.52L 341.48,358.11L 343.09,359.58L 344.69,359.58L 346.30,356.64L 347.91,355.17L 349.51,351.50L 351.12,352.97L 352.73,353.70L 354.33,352.97L 355.94,352.23L 357.55,354.44L 359.15,352.23L 360.76,354.44L 362.36,349.30L 363.97,347.83L 365.58,343.42L 367.18,339.01L 368.79,336.81L 370.40,327.26L 372.00,325.06L 373.61,322.12L 375.22,324.33L 376.82,324.33L 378.43,327.26L 380.04,325.06L 381.64,339.75L 383.25,342.69L 384.86,350.76L 386.46,350.76L 388.07,355.17L 389.68,353.70L 391.28,354.44L 392.89,345.62L 394.49,341.22L 396.10,336.81L 397.71,328.73L 399.31,320.65L 400.92,309.64L 402.53,294.95L 404.13,286.87L 405.74,275.12L 407.35,250.89L 408.95,242.07L 410.56,226.65L 412.17,215.63L 413.77,209.76L 415.38,196.54L 416.99,184.05L 418.59,191.40L 420.20,197.27L 421.81,193.60L 423.41,186.99L 425.02,179.65L 426.62,189.20L 428.23,195.07L 429.84,188.46L 431.44,175.24L 433.05,153.94L 434.66,125.30L 436.26,101.80L 437.87,70.96L 439.48,48.19L 441.08,37.91L 442.69,29.83L 444.30,10.00L 445.90,20.28L 447.51,35.70L 449.12,45.25L 450.72,68.75L 452.33,79.03L 453.94,94.46L 455.54,115.02L 457.15,108.41L 458.75,101.80L 460.36,108.41L 461.97,104.00" id="New cases" class="line" stroke-width="1" stroke-linecap="round"><title>New cases</title></path>
	<circle cx="25.00" cy="369.86" data-y="0.34" data-x="1580860800" r="1" fill="white"><title>2020-02-05: 0</title></circle>
	<circle cx="26.61" cy="369.86" data-y="0.34" data-x="1580947200" r="1" fill="white"><title>2020-02-06: 0</title></circle>
	<circle cx="28.21" cy="370.72" data-y="0.28" data-x="1581033600" r="1" fill="white"><title>2020-02-07: 0</title></circle>
	<circle cx="29.82" cy="371.33" data-y="0.24" data-x="1581120000" r="1" fill="white"><title>2020-02-08: 0</title></circle>
	<circle cx="31.43" cy="372.06" data-y="0.19" data-x="1581206400" r="1" fill="white"><title>2020-02-09: 0</title></circle>
	<circle cx="33.03" cy="372.06" data-y="0.19" data-x="1581292800" r="1" fill="white"><title>2020-02-10: 0</title></circle>
	<circle cx="34.64" cy="372.06" data-y="0.19" data-x="1581379200" r="1" fill="white"><title>2020-02-11: 0</title></circle>
	<circle cx="36.25" cy="374.27" data-y="0.05" data-x="1581465600" r="1" fill="white"><title>2020-02-12: 0</title></circle>
	<circle cx="37.85" cy="375.00" data-y="0.00" data-x="1581552000" r="1" fill="white"><title>2020-02-13: 0</title></circle>
	<circle cx="39.46" cy="375.00" data-y="0.00" data-x="1581638400" r="1" fill="white"><title>2020-02-14: 0</title></circle>
	<circle cx="41.06" cy="375.00" data-y="0.00" data-x="1581724800" r="1" fill="white"><title>2020-02-15: 0</title></circle>
	<circle cx="42.67" cy="375.00" data-y="0.00" data-x="1581811200" r="1" fill="white"><title>2020-02-16: 0</title></circle>
	<circle cx="44.28" cy="375.00" data-y="0.00" data-x="1581897600" r="1" fill="white"><title>2020-02-17: 0</title></circle>
	<circle cx="45.88" cy="375.00" data-y="0.00" data-x="1581984000" r="1" fill="white"><title>2020-02-18: 0</title></circle>
	<circle cx="47.49" cy="375.00" data-y="0.00" data-x="1582070400" r="1" fill="white"><title>2020-02-19: 0</title></circle>
	<circle cx="49.10" cy="375.00" data-y="0.00" data-x="1582156800" r="1" fill="white"><title>2020-02-20: 0</title></circle>
	<circle cx="50.70" cy="375.00" data-y="0.00" data-x="1582243200" r="1" fill="white"><title>2020-02-21: 0</title></circle>
	<circle cx="52.31" cy="375.00" data-y="0.00" data-x="1582329600" r="1" fill="white"><title>2020-02-22: 0</title></circle>
	<circle cx="53.92" cy="375.00" data-y="0.00" data-x="1582416000" r="1" fill="white"><title>2020-02-23: 0</title></circle>
	<circle cx="55.52" cy="375.00" data-y="0.00" data-x="1582502400" r="1" fill="white"><title>2020-02-24: 0</title></circle>
	<circle cx="57.13" cy="375.00" data-y="0.00" data-x="1582588800" r="1" fill="white"><title>2020-02-25: 0</title></circle>
	<circle cx="58.74" cy="375.00" data-y="0.00" data-x="1582675200" r="1" fill="white"><title>2020-02-26: 0</title></circle>
	<circle cx="60.34" cy="375.00" data-y="0.00" data-x="1582761600" r="1" fill="white"><title>2020-02-27: 0</title></circle>
	<circle cx="61.95" cy="375.00" data-y="0.00" data-x="1582848000" r="1" fill="white"><title>2020-02-28: 0</title></circle>
	<circle cx="63.56" cy="375.00" data-y="0.00" data-x="1582934400" r="1" fill="white"><title>2020-02-29: 0</title></circle>
	<circle cx="65.16" cy="374.27" data-y="0.05" data-x="1583020800" r="1" fill="white"><title>2020-03-01: 0</title></circle>
	<circle cx="66.77" cy="374.27" data-y="0.05" data-x="1583107200" r="1" fill="white"><title>2020-03-02: 0</title></circle>
	<circle cx="68.38" cy="374.27" data-y="0.05" data-x="1583193600" r="1" fill="white"><title>2020-03-03: 0</title></circle>
	<circle cx="69.98" cy="373.53" data-y="0.10" data-x="1583280000" r="1" fill="white"><title>2020-03-04: 0</title></circle>
	<circle cx="71.59" cy="373.53" data-y="0.10" data-x="1583366400" r="1" fill="white"><title>2020-03-05: 0</title></circle>
	<circle cx="73.19" cy="373.53" data-y="0.10" data-x="1583452800" r="1" fill="white"><title>2020-03-06: 0</title></circle>
	<circle cx="74.80" cy="372.06" data-y="0.19" data-x="1583539200" r="1" fill="white"><title>2020-03-07: 0</title></circle>
	<circle cx="76.41" cy="372.80" data-y="0.15" data-x="1583625600" r="1" fill="white"><title>2020-03-08: 0</title></circle>
	<circle cx="78.01" cy="372.80" data-y="0.15" data-x="1583712000" r="1" fill="white"><title>2020-03-09: 0</title></circle>
	<circle cx="79.62" cy="371.33" data-y="0.24" data-x="1583798400" r="1" fill="white"><title>2020-03-10: 0</title></circle>
	<circle cx="81.23" cy="372.06" data-y="0.19" data-x="1583884800" r="1" fill="white"><title>2020-03-11: 0</title></circle>
	<circle cx="82.83" cy="370.59" data-y="0.29" data-x="1583971200" r="1" fill="white"><title>2020-03-12: 0</title></circle>
	<circle cx="84.44" cy="369.12" data-y="0.39" data-x="1584057600" r="1" fill="white"><title>2020-03-13: 0</title></circle>
	<circle cx="86.05" cy="370.59" data-y="0.29" data-x="1584144000" r="1" fill="white"><title>2020-03-14: 0</title></circle>
	<circle cx="87.65" cy="367.66" data-y="0.49" data-x="1584230400" r="1" fill="white"><title>2020-03-15: 0</title></circle>
	<circle cx="89.26" cy="366.19" data-y="0.58" data-x="1584316800" r="1" fill="white"><title>2020-03-16: 1</title></circle>
	<circle cx="90.87" cy="365.45" data-y="0.63" data-x="1584403200" r="1" fill="white"><title>2020-03-17: 1</title></circle>
	<circle cx="92.47" cy="363.25" data-y="0.78" data-x="1584489600" r="1" fill="white"><title>2020-03-18: 1</title></circle>
	<circle cx="94.08" cy="362.52" data-y="0.83" data-x="1584576000" r="1" fill="white"><title>2020-03-19: 1</title></circle>
	<circle cx="95.69" cy="361.05" data-y="0.92" data-x="1584662400" r="1" fill="white"><title>2020-03-20: 1</title></circle>
	<circle cx="97.29" cy="355.91" data-y="1.26" data-x="1584748800" r="1" fill="white"><title>2020-03-21: 1</title></circle>
	<circle cx="98.90" cy="354.44" data-y="1.36" data-x="1584835200" r="1" fill="white"><title>2020-03-22: 1</title></circle>
	<circle cx="100.51" cy="349.30" data-y="1.70" data-x="1584921600" r="1" fill="white"><title>2020-03-23: 2</title></circle>
	<circle cx="102.11" cy="342.69" data-y="2.14" data-x="1585008000" r="1" fill="white"><title>2020-03-24: 2</title></circle>
	<circle cx="103.72" cy="339.01" data-y="2.38" data-x="1585094400" r="1" fill="white"><title>2020-03-25: 2</title></circle>
	<circle cx="105.32" cy="334.61" data-y="2.67" data-x="1585180800" r="1" fill="white"><title>2020-03-26: 3</title></circle>
	<circle cx="106.93" cy="333.14" data-y="2.77" data-x="1585267200" r="1" fill="white"><title>2020-03-27: 3</title></circle>
	<circle cx="108.54" cy="333.87" data-y="2.72" data-x="1585353600" r="1" fill="white"><title>2020-03-28: 3</title></circle>
	<circle cx="110.14" cy="324.33" data-y="3.35" data-x="1585440000" r="1" fill="white"><title>2020-03-29: 3</title></circle>
	<circle cx="111.75" cy="321.39" data-y="3.55" data-x="1585526400" r="1" fill="white"><title>2020-03-30: 4</title></circle>
	<circle cx="113.36" cy="322.12" data-y="3.50" data-x="1585612800" r="1" fill="white"><title>2020-03-31: 3</title></circle>
	<circle cx="114.96" cy="318.45" data-y="3.74" data-x="1585699200" r="1" fill="white"><title>2020-04-01: 4</title></circle>
	<circle cx="116.57" cy="316.98" data-y="3.84" data-x="1585785600" r="1" fill="white"><title>2020-04-02: 4</title></circle>
	<circle cx="118.18" cy="314.04" data-y="4.03" data-x="1585872000" r="1" fill="white"><title>2020-04-03: 4</title></circle>
	<circle cx="119.78" cy="306.70" data-y="4.52" data-x="1585958400" r="1" fill="white"><title>2020-04-04: 5</title></circle>
	<circle cx="121.39" cy="305.97" data-y="4.57" data-x="1586044800" r="1" fill="white"><title>2020-04-05: 5</title></circle>
	<circle cx="123.00" cy="311.11" data-y="4.23" data-x="1586131200" r="1" fill="white"><title>2020-04-06: 4</title></circle>
	<circle cx="124.60" cy="309.64" data-y="4.33" data-x="1586217600" r="1" fill="white"><title>2020-04-07: 4</title></circle>
	<circle cx="126.21" cy="313.31" data-y="4.08" data-x="1586304000" r="1" fill="white"><title>2020-04-08: 4</title></circle>
	<circle cx="127.82" cy="312.58" data-y="4.13" data-x="1586390400" r="1" fill="white"><title>2020-04-09: 4</title></circle>
	<circle cx="129.42" cy="311.84" data-y="4.18" data-x="1586476800" r="1" fill="white"><title>2020-04-10: 4</title></circle>
	<circle cx="131.03" cy="311.11" data-y="4.23" data-x="1586563200" r="1" fill="white"><title>2020-04-11: 4</title></circle>
	<circle cx="132.64" cy="312.58" data-y="4.13" data-x="1586649600" r="1" fill="white"><title>2020-04-12: 4</title></circle>
	<circle cx="134.24" cy="307.43" data-y="4.47" data-x="1586736000" r="1" fill="white"><title>2020-04-13: 4</title></circle>
	<circle cx="135.85" cy="305.97" data-y="4.57" data-x="1586822400" r="1" fill="white"><title>2020-04-14: 5</title></circle>
	<circle cx="137.45" cy="300.82" data-y="4.91" data-x="1586908800" r="1" fill="white"><title>2020-04-15: 5</title></circle>
	<circle cx="139.06" cy="301.56" data-y="4.86" data-x="1586995200" r="1" fill="white"><title>2020-04-16: 5</title></circle>
	<circle cx="140.67" cy="303.03" data-y="4.76" data-x="1587081600" r="1" fill="white"><title>2020-04-17: 5</title></circle>
	<circle cx="142.27" cy="307.43" data-y="4.47" data-x="1587168000" r="1" fill="white"><title>2020-04-18: 4</title></circle>
	<circle cx="143.88" cy="308.17" data-y="4.42" data-x="1587254400" r="1" fill="white"><title>2020-04-19: 4</title></circle>
	<circle cx="145.49" cy="308.90" data-y="4.37" data-x="1587340800" r="1" fill="white"><title>2020-04-20: 4</title></circle>
	<circle cx="147.09" cy="314.78" data-y="3.99" data-x="1587427200" r="1" fill="white"><title>2020-04-21: 4</title></circle>
	<circle cx="148.70" cy="317.72" data-y="3.79" data-x="1587513600" r="1" fill="white"><title>2020-04-22: 4</title></circle>
	<circle cx="150.31" cy="316.98" data-y="3.84" data-x="1587600000" r="1" fill="white"><title>2020-04-23: 4</title></circle>
	<circle cx="151.91" cy="319.92" data-y="3.65" data-x="1587686400" r="1" fill="white"><title>2020-04-24: 4</title></circle>
	<circle cx="153.52" cy="314.78" data-y="3.99" data-x="1587772800" r="1" fill="white"><title>2020-04-25: 4</title></circle>
	<circle cx="155.13" cy="313.31" data-y="4.08" data-x="1587859200" r="1" fill="white"><title>2020-04-26: 4</title></circle>
	<circle cx="156.73" cy="316.98" data-y="3.84" data-x="1587945600" r="1" fill="white"><title>2020-04-27: 4</title></circle>
	<circle cx="158.34" cy="316.25" data-y="3.89" data-x="1588032000" r="1" fill="white"><title>2020-04-28: 4</title></circle>
	<circle cx="159.95" cy="321.39" data-y="3.55" data-x="1588118400" r="1" fill="white"><title>2020-04-29: 4</title></circle>
	<circle cx="161.55" cy="321.39" data-y="3.55" data-x="1588204800" r="1" fill="white"><title>2020-04-30: 4</title></circle>
	<circle cx="163.16" cy="320.65" data-y="3.60" data-x="1588291200" r="1" fill="white"><title>2020-05-01: 4</title></circle>
	<circle cx="164.77" cy="325.79" data-y="3.26" data-x="1588377600" r="1" fill="white"><title>2020-05-02: 3</title></circle>
	<circle cx="166.37" cy="333.87" data-y="2.72" data-x="1588464000" r="1" fill="white"><title>2020-05-03: 3</title></circle>
	<circle cx="167.98" cy="336.08" data-y="2.58" data-x="1588550400" r="1" fill="white"><title>2020-05-04: 3</title></circle>
	<circle cx="169.58" cy="336.81" data-y="2.53" data-x="1588636800" r="1" fill="white"><title>2020-05-05: 3</title></circle>
	<circle cx="171.19" cy="338.28" data-y="2.43" data-x="1588723200" r="1" fill="white"><title>2020-05-06: 2</title></circle>
	<circle cx="172.80" cy="344.15" data-y="2.04" data-x="1588809600" r="1" fill="white"><title>2020-05-07: 2</title></circle>
	<circle cx="174.40" cy="343.42" data-y="2.09" data-x="1588896000" r="1" fill="white"><title>2020-05-08: 2</title></circle>
	<circle cx="176.01" cy="347.83" data-y="1.80" data-x="1588982400" r="1" fill="white"><title>2020-05-09: 2</title></circle>
	<circle cx="177.62" cy="349.30" data-y="1.70" data-x="1589068800" r="1" fill="white"><title>2020-05-10: 2</title></circle>
	<circle cx="179.22" cy="349.30" data-y="1.70" data-x="1589155200" r="1" fill="white"><title>2020-05-11: 2</title></circle>
	<circle cx="180.83" cy="349.30" data-y="1.70" data-x="1589241600" r="1" fill="white"><title>2020-05-12: 2</title></circle>
	<circle cx="182.44" cy="349.30" data-y="1.70" data-x="1589328000" r="1" fill="white"><title>2020-05-13: 2</title></circle>
	<circle cx="184.04" cy="349.30" data-y="1.70" data-x="1589414400" r="1" fill="white"><title>2020-05-14: 2</title></circle>
	<circle cx="185.65" cy="352.97" data-y="1.46" data-x="1589500800" r="1" fill="white"><title>2020-05-15: 1</title></circle>
	<circle cx="187.26" cy="352.23" data-y="1.51" data-x="1589587200" r="1" fill="white"><title>2020-05-16: 2</title></circle>
	<circle cx="188.86" cy="352.97" data-y="1.46" data-x="1589673600" r="1" fill="white"><title>2020-05-17: 1</title></circle>
	<circle cx="190.47" cy="352.23" data-y="1.51" data-x="1589760000" r="1" fill="white"><title>2020-05-18: 2</title></circle>
	<circle cx="192.08" cy="353.70" data-y="1.41" data-x="1589846400" r="1" fill="white"><title>2020-05-19: 1</title></circle>
	<circle cx="193.68" cy="352.97" data-y="1.46" data-x="1589932800" r="1" fill="white"><title>2020-05-20: 1</title></circle>
	<circle cx="195.29" cy="352.23" data-y="1.51" data-x="1590019200" r="1" fill="white"><title>2020-05-21: 2</title></circle>
	<circle cx="196.90" cy="350.03" data-y="1.65" data-x="1590105600" r="1" fill="white"><title>2020-05-22: 2</title></circle>
	<circle cx="198.50" cy="344.89" data-y="1.99" data-x="1590192000" r="1" fill="white"><title>2020-05-23: 2</title></circle>
	<circle cx="200.11" cy="339.75" data-y="2.33" data-x="1590278400" r="1" fill="white"><title>2020-05-24: 2</title></circle>
	<circle cx="201.71" cy="339.01" data-y="2.38" data-x="1590364800" r="1" fill="white"><title>2020-05-25: 2</title></circle>
	<circle cx="203.32" cy="339.75" data-y="2.33" data-x="1590451200" r="1" fill="white"><title>2020-05-26: 2</title></circle>
	<circle cx="204.93" cy="333.87" data-y="2.72" data-x="1590537600" r="1" fill="white"><title>2020-05-27: 3</title></circle>
	<circle cx="206.53" cy="333.14" data-y="2.77" data-x="1590624000" r="1" fill="white"><title>2020-05-28: 3</title></circle>
	<circle cx="208.14" cy="330.20" data-y="2.96" data-x="1590710400" r="1" fill="white"><title>2020-05-29: 3</title></circle>
	<circle cx="209.75" cy="333.14" data-y="2.77" data-x="1590796800" r="1" fill="white"><title>2020-05-30: 3</title></circle>
	<circle cx="211.35" cy="333.87" data-y="2.72" data-x="1590883200" r="1" fill="white"><title>2020-05-31: 3</title></circle>
	<circle cx="212.96" cy="333.87" data-y="2.72" data-x="1590969600" r="1" fill="white"><title>2020-06-01: 3</title></circle>
	<circle cx="214.57" cy="332.40" data-y="2.82" data-x="1591056000" r="1" fill="white"><title>2020-06-02: 3</title></circle>
	<circle cx="216.17" cy="336.81" data-y="2.53" data-x="1591142400" r="1" fill="white"><title>2020-06-03: 3</title></circle>
	<circle cx="217.78" cy="339.01" data-y="2.38" data-x="1591228800" r="1" fill="white"><title>2020-06-04: 2</title></circle>
	<circle cx="219.39" cy="343.42" data-y="2.09" data-x="1591315200" r="1" fill="white"><title>2020-06-05: 2</title></circle>
	<circle cx="220.99" cy="347.09" data-y="1.85" data-x="1591401600" r="1" fill="white"><title>2020-06-06: 2</title></circle>
	<circle cx="222.60" cy="352.97" data-y="1.46" data-x="1591488000" r="1" fill="white"><title>2020-06-07: 1</title></circle>
	<circle cx="224.21" cy="352.23" data-y="1.51" data-x="1591574400" r="1" fill="white"><title>2020-06-08: 2</title></circle>
	<circle cx="225.81" cy="353.70" data-y="1.41" data-x="1591660800" r="1" fill="white"><title>2020-06-09: 1</title></circle>
	<circle cx="227.42" cy="356.64" data-y="1.22" data-x="1591747200" r="1" fill="white"><title>2020-06-10: 1</title></circle>
	<circle cx="229.03" cy="356.64" data-y="1.22" data-x="1591833600" r="1" fill="white"><title>2020-06-11: 1</title></circle>
	<circle cx="230.63" cy="358.84" data-y="1.07" data-x="1591920000" r="1" fill="white"><title>2020-06-12: 1</title></circle>
	<circle cx="232.24" cy="360.31" data-y="0.97" data-x="1592006400" r="1" fill="white"><title>2020-06-13: 1</title></circle>
	<circle cx="233.84" cy="362.52" data-y="0.83" data-x="1592092800" r="1" fill="white"><title>2020-06-14: 1</title></circle>
	<circle cx="235.45" cy="366.19" data-y="0.58" data-x="1592179200" r="1" fill="white"><title>2020-06-15: 1</title></circle>
	<circle cx="237.06" cy="366.19" data-y="0.58" data-x="1592265600" r="1" fill="white"><title>2020-06-16: 1</title></circle>
	<circle cx="238.66" cy="364.72" data-y="0.68" data-x="1592352000" r="1" fill="white"><title>2020-06-17: 1</title></circle>
	<circle cx="240.27" cy="363.98" data-y="0.73" data-x="1592438400" r="1" fill="white"><title>2020-06-18: 1</title></circle>
	<circle cx="241.88" cy="363.25" data-y="0.78" data-x="1592524800" r="1" fill="white"><title>2020-06-19: 1</title></circle>
	<circle cx="243.48" cy="363.25" data-y="0.78" data-x="1592611200" r="1" fill="white"><title>2020-06-20: 1</title></circle>
	<circle cx="245.09" cy="362.52" data-y="0.83" data-x="1592697600" r="1" fill="white"><title>2020-06-21: 1</title></circle>
	<circle cx="246.70" cy="363.25" data-y="0.78" data-x="1592784000" r="1" fill="white"><title>2020-06-22: 1</title></circle>
	<circle cx="248.30" cy="365.45" data-y="0.63" data-x="1592870400" r="1" fill="white"><title>2020-06-23: 1</title></circle>
	<circle cx="249.91" cy="366.92" data-y="0.53" data-x="1592956800" r="1" fill="white"><title>2020-06-24: 1</title></circle>
	<circle cx="251.52" cy="369.12" data-y="0.39" data-x="1593043200" r="1" fill="white"><title>2020-06-25: 0</title></circle>
	<circle cx="253.12" cy="369.12" data-y="0.39" data-x="1593129600" r="1" fill="white"><title>2020-06-26: 0</title></circle>
	<circle cx="254.73" cy="369.86" data-y="0.34" data-x="1593216000" r="1" fill="white"><title>2020-06-27: 0</title></circle>
	<circle cx="256.34" cy="367.66" data-y="0.49" data-x="1593302400" r="1" fill="white"><title>2020-06-28: 0</title></circle>
	<circle cx="257.94" cy="367.66" data-y="0.49" data-x="1593388800" r="1" fill="white"><title>2020-06-29: 0</title></circle>
	<circle cx="259.55" cy="368.39" data-y="0.44" data-x="1593475200" r="1" fill="white"><title>2020-06-30: 0</title></circle>
	<circle cx="261.16" cy="369.12" data-y="0.39" data-x="1593561600" r="1" fill="white"><title>2020-07-01: 0</title></circle>
	<circle cx="262.76" cy="369.86" data-y="0.34" data-x="1593648000" r="1" fill="white"><title>2020-07-02: 0</title></circle>
	<circle cx="264.37" cy="370.59" data-y="0.29" data-x="1593734400" r="1" fill="white"><title>2020-07-03: 0</title></circle>
	<circle cx="265.97" cy="371.33" data-y="0.24" data-x="1593820800" r="1" fill="white"><title>2020-07-04: 0</title></circle>
	<circle cx="267.58" cy="373.53" data-y="0.10" data-x="1593907200" r="1" fill="white"><title>2020-07-05: 0</title></circle>
	<circle cx="269.19" cy="372.80" data-y="0.15" data-x="1593993600" r="1" fill="white"><title>2020-07-06: 0</title></circle>
	<circle cx="270.79" cy="369.86" data-y="0.34" data-x="1594080000" r="1" fill="white"><title>2020-07-07: 0</title></circle>
	<circle cx="272.40" cy="369.86" data-y="0.34" data-x="1594166400" r="1" fill="white"><title>2020-07-08: 0</title></circle>
	<circle cx="274.01" cy="369.12" data-y="0.39" data-x="1594252800" r="1" fill="white"><title>2020-07-09: 0</title></circle>
	<circle cx="275.61" cy="366.92" data-y="0.53" data-x="1594339200" r="1" fill="white"><title>2020-07-10: 1</title></circle>
	<circle cx="277.22" cy="365.45" data-y="0.63" data-x="1594425600" r="1" fill="white"><title>2020-07-11: 1</title></circle>
	<circle cx="278.83" cy="365.45" data-y="0.63" data-x="1594512000" r="1" fill="white"><title>2020-07-12: 1</title></circle>
	<circle cx="280.43" cy="366.19" data-y="0.58" data-x="1594598400" r="1" fill="white"><title>2020-07-13: 1</title></circle>
	<circle cx="282.04" cy="367.66" data-y="0.49" data-x="1594684800" r="1" fill="white"><title>2020-07-14: 0</title></circle>
	<circle cx="283.65" cy="366.92" data-y="0.53" data-x="1594771200" r="1" fill="white"><title>2020-07-15: 1</title></circle>
	<circle cx="285.25" cy="366.92" data-y="0.53" data-x="1594857600" r="1" fill="white"><title>2020-07-16: 1</title></circle>
	<circle cx="286.86" cy="368.39" data-y="0.44" data-x="1594944000" r="1" fill="white"><title>2020-07-17: 0</title></circle>
	<circle cx="288.47" cy="367.66" data-y="0.49" data-x="1595030400" r="1" fill="white"><title>2020-07-18: 0</title></circle>
	<circle cx="290.07" cy="365.45" data-y="0.63" data-x="1595116800" r="1" fill="white"><title>2020-07-19: 1</title></circle>
	<circle cx="291.68" cy="363.98" data-y="0.73" data-x="1595203200" r="1" fill="white"><title>2020-07-20: 1</title></circle>
	<circle cx="293.29" cy="361.78" data-y="0.87" data-x="1595289600" r="1" fill="white"><title>2020-07-21: 1</title></circle>
	<circle cx="294.89" cy="360.31" data-y="0.97" data-x="1595376000" r="1" fill="white"><title>2020-07-22: 1</title></circle>
	<circle cx="296.50" cy="360.31" data-y="0.97" data-x="1595462400" r="1" fill="white"><title>2020-07-23: 1</title></circle>
	<circle cx="298.10" cy="360.31" data-y="0.97" data-x="1595548800" r="1" fill="white"><title>2020-07-24: 1</title></circle>
	<circle cx="299.71" cy="360.31" data-y="0.97" data-x="1595635200" r="1" fill="white"><title>2020-07-25: 1</title></circle>
	<circle cx="301.32" cy="361.05" data-y="0.92" data-x="1595721600" r="1" fill="white"><title>2020-07-26: 1</title></circle>
	<circle cx="302.92" cy="363.25" data-y="0.78" data-x="1595808000" r="1" fill="white"><title>2020-07-27: 1</title></circle>
	<circle cx="304.53" cy="366.92" data-y="0.53" data-x="1595894400" r="1" fill="white"><title>2020-07-28: 1</title></circle>
	<circle cx="306.14" cy="369.12" data-y="0.39" data-x="1595980800" r="1" fill="white"><title>2020-07-29: 0</title></circle>
	<circle cx="307.74" cy="368.39" data-y="0.44" data-x="1596067200" r="1" fill="white"><title>2020-07-30: 0</title></circle>
	<circle cx="309.35" cy="369.12" data-y="0.39" data-x="1596153600" r="1" fill="white"><title>2020-07-31: 0</title></circle>
	<circle cx="310.96" cy="369.12" data-y="0.39" data-x="1596240000" r="1" fill="white"><title>2020-08-01: 0</title></circle>
	<circle cx="312.56" cy="369.86" data-y="0.34" data-x="1596326400" r="1" fill="white"><title>2020-08-02: 0</title></circle>
	<circle cx="314.17" cy="368.39" data-y="0.44" data-x="1596412800" r="1" fill="white"><title>2020-08-03: 0</title></circle>
	<circle cx="315.78" cy="366.92" data-y="0.53" data-x="1596499200" r="1" fill="white"><title>2020-08-04: 1</title></circle>
	<circle cx="317.38" cy="366.92" data-y="0.53" data-x="1596585600" r="1" fill="white"><title>2020-08-05: 1</title></circle>
	<circle cx="318.99" cy="368.39" data-y="0.44" data-x="1596672000" r="1" fill="white"><title>2020-08-06: 0</title></circle>
	<circle cx="320.60" cy="367.66" data-y="0.49" data-x="1596758400" r="1" fill="white"><title>2020-08-07: 0</title></circle>
	<circle cx="322.20" cy="368.39" data-y="0.44" data-x="1596844800" r="1" fill="white"><title>2020-08-08: 0</title></circle>
	<circle cx="323.81" cy="369.12" data-y="0.39" data-x="1596931200" r="1" fill="white"><title>2020-08-09: 0</title></circle>
	<circle cx="325.42" cy="369.12" data-y="0.39" data-x="1597017600" r="1" fill="white"><title>2020-08-10: 0</title></circle>
	<circle cx="327.02" cy="367.66" data-y="0.49" data-x="1597104000" r="1" fill="white"><title>2020-08-11: 0</title></circle>
	<circle cx="328.63" cy="366.19" data-y="0.58" data-x="1597190400" r="1" fill="white"><title>2020-08-12: 1</title></circle>
	<circle cx="330.23" cy="366.19" data-y="0.58" data-x="1597276800" r="1" fill="white"><title>2020-08-13: 1</title></circle>
	<circle cx="331.84" cy="364.72" data-y="0.68" data-x="1597363200" r="1" fill="white"><title>2020-08-14: 1</title></circle>
	<circle cx="333.45" cy="364.72" data-y="0.68" data-x="1597449600" r="1" fill="white"><title>2020-08-15: 1</title></circle>
	<circle cx="335.05" cy="365.45" data-y="0.63" data-x="1597536000" r="1" fill="white"><title>2020-08-16: 1</title></circle>
	<circle cx="336.66" cy="363.98" data-y="0.73" data-x="1597622400" r="1" fill="white"><title>2020-08-17: 1</title></circle>
	<circle cx="338.27" cy="363.98" data-y="0.73" data-x="1597708800" r="1" fill="white"><title>2020-08-18: 1</title></circle>
	<circle cx="339.87" cy="362.52" data-y="0.83" data-x="1597795200" r="1" fill="white"><title>2020-08-19: 1</title></circle>
	<circle cx="341.48" cy="358.11" data-y="1.12" data-x="1597881600" r="1" fill="white"><title>2020-08-20: 1</title></circle>
	<circle cx="343.09" cy="359.58" data-y="1.02" data-x="1597968000" r="1" fill="white"><title>2020-08-21: 1</title></circle>
	<circle cx="344.69" cy="359.58" data-y="1.02" data-x="1598054400" r="1" fill="white"><title>2020-08-22: 1</title></circle>
	<circle cx="346.30" cy="356.64" data-y="1.22" data-x="1598140800" r="1" fill="white"><title>2020-08-23: 1</title></circle>
	<circle cx="347.91" cy="355.17" data-y="1.31" data-x="1598227200" r="1" fill="white"><title>2020-08-24: 1</title></circle>
	<circle cx="349.51" cy="351.50" data-y="1.56" data-x="1598313600" r="1" fill="white"><title>2020-08-25: 2</title></circle>
	<circle cx="351.12" cy="352.97" data-y="1.46" data-x="1598400000" r="1" fill="white"><title>2020-08-26: 1</title></circle>
	<circle cx="352.73" cy="353.70" data-y="1.41" data-x="1598486400" r="1" fill="white"><title>2020-08-27: 1</title></circle>
	<circle cx="354.33" cy="352.97" data-y="1.46" data-x="1598572800" r="1" fill="white"><title>2020-08-28: 1</title></circle>
	<circle cx="355.94" cy="352.23" data-y="1.51" data-x="1598659200" r="1" fill="white"><title>2020-08-29: 2</title></circle>
	<circle cx="357.55" cy="354.44" data-y="1.36" data-x="1598745600" r="1" fill="white"><title>2020-08-30: 1</title></circle>
	<circle cx="359.15" cy="352.23" data-y="1.51" data-x="1598832000" r="1" fill="white"><title>2020-08-31: 2</title></circle>
	<circle cx="360.76" cy="354.44" data-y="1.36" data-x="1598918400" r="1" fill="white"><title>2020-09-01: 1</title></circle>
	<circle cx="362.36" cy="349.30" data-y="1.70" data-x="1599004800" r="1" fill="white"><title>2020-09-02: 2</title></circle>
	<circle cx="363.97" cy="347.83" data-y="1.80" data-x="1599091200" r="1" fill="white"><title>2020-09-03: 2</title></circle>
	<circle cx="365.58" cy="343.42" data-y="2.09" data-x="1599177600" r="1" fill="white"><title>2020-09-04: 2</title></circle>
	<circle cx="367.18" cy="339.01" data-y="2.38" data-x="1599264000" r="1" fill="white"><title>2020-09-05: 2</title></circle>
	<circle cx="368.79" cy="336.81" data-y="2.53" data-x="1599350400" r="1" fill="white"><title>2020-09-06: 3</title></circle>
	<circle cx="370.40" cy="327.26" data-y="3.16" data-x="1599436800" r="1" fill="white"><title>2020-09-07: 3</title></circle>
	<circle cx="372.00" cy="325.06" data-y="3.31" data-x="1599523200" r="1" fill="white"><title>2020-09-08: 3</title></circle>
	<circle cx="373.61" cy="322.12" data-y="3.50" data-x="1599609600" r="1" fill="white"><title>2020-09-09: 3</title></circle>
	<circle cx="375.22" cy="324.33" data-y="3.35" data-x="1599696000" r="1" fill="white"><title>2020-09-10: 3</title></circle>
	<circle cx="376.82" cy="324.33" data-y="3.35" data-x="1599782400" r="1" fill="white"><title>2020-09-11: 3</title></circle>
	<circle cx="378.43" cy="327.26" data-y="3.16" data-x="1599868800" r="1" fill="white"><title>2020-09-12: 3</title></circle>
	<circle cx="380.04" cy="325.06" data-y="3.31" data-x="1599955200" r="1" fill="white"><title>2020-09-13: 3</title></circle>
	<circle cx="381.64" cy="339.75" data-y="2.33" data-x="1600041600" r="1" fill="white"><title>2020-09-14: 2</title></circle>
	<circle cx="383.25" cy="342.69" data-y="2.14" data-x="1600128000" r="1" fill="white"><title>2020-09-15: 2</title></circle>
	<circle cx="384.86" cy="350.76" data-y="1.60" data-x="1600214400" r="1" fill="white"><title>2020-09-16: 2</title></circle>
	<circle cx="386.46" cy="350.76" data-y="1.60" data-x="1600300800" r="1" fill="white"><title>2020-09-17: 2</title></circle>
	<circle cx="388.07" cy="355.17" data-y="1.31" data-x="1600387200" r="1" fill="white"><title>2020-09-18: 1</title></circle>
	<circle cx="389.68" cy="353.70" data-y="1.41" data-x="1600473600" r="1" fill="white"><title>2020-09-19: 1</title></circle>
	<circle cx="391.28" cy="354.44" data-y="1.36" data-x="1600560000" r="1" fill="white"><title>2020-09-20: 1</title></circle>
	<circle cx="392.89" cy="345.62" data-y="1.94" data-x="1600646400" r="1" fill="white"><title>2020-09-21: 2</title></circle>
	<circle cx="394.49" cy="341.22" data-y="2.24" data-x="1600732800" r="1" fill="white"><title>2020-09-22: 2</title></circle>
	<circle cx="396.10" cy="336.81" data-y="2.53" data-x="1600819200" r="1" fill="white"><title>2020-09-23: 3</title></circle>
	<circle cx="397.71" cy="328.73" data-y="3.06" data-x="1600905600" r="1" fill="white"><title>2020-09-24: 3</title></circle>
	<circle cx="399.31" cy="320.65" data-y="3.60" data-x="1600992000" r="1" fill="white"><title>2020-09-25: 4</title></circle>
	<circle cx="400.92" cy="309.64" data-y="4.33" data-x="1601078400" r="1" fill="white"><title>2020-09-26: 4</title></circle>
	<circle cx="402.53" cy="294.95" data-y="5.30" data-x="1601164800" r="1" fill="white"><title>2020-09-27: 5</title></circle>
	<circle cx="404.13" cy="286.87" data-y="5.83" data-x="1601251200" r="1" fill="white"><title>2020-09-28: 6</title></circle>
	<circle cx="405.74" cy="275.12" data-y="6.61" data-x="1601337600" r="1" fill="white"><title>2020-09-29: 7</title></circle>
	<circle cx="407.35" cy="250.89" data-y="8.21" data-x="1601424000" r="1" fill="white"><title>2020-09-30: 8</title></circle>
	<circle cx="408.95" cy="242.07" data-y="8.80" data-x="1601510400" r="1" fill="white"><title>2020-10-01: 9</title></circle>
	<circle cx="410.56" cy="226.65" data-y="9.82" data-x="1601596800" r="1" fill="white"><title>2020-10-02: 10</title></circle>
	<circle cx="412.17" cy="215.63" data-y="10.55" data-x="1601683200" r="1" fill="white"><title>2020-10-03: 11</title></circle>
	<circle cx="413.77" cy="209.76" data-y="10.94" data-x="1601769600" r="1" fill="white"><title>2020-10-04: 11</title></circle>
	<circle cx="415.38" cy="196.54" data-y="11.81" data-x="1601856000" r="1" fill="white"><title>2020-10-05: 12</title></circle>
	<circle cx="416.99" cy="184.05" data-y="12.64" data-x="1601942400" r="1" fill="white"><title>2020-10-06: 13</title></circle>
	<circle cx="418.59" cy="191.40" data-y="12.15" data-x="1602028800" r="1" fill="white"><title>2020-10-07: 12</title></circle>
	<circle cx="420.20" cy="197.27" data-y="11.76" data-x="1602115200" r="1" fill="white"><title>2020-10-08: 12</title></circle>
	<circle cx="421.81" cy="193.60" data-y="12.01" data-x="1602201600" r="1" fill="white"><title>2020-10-09: 12</title></circle>
	<circle cx="423.41" cy="186.99" data-y="12.44" data-x="1602288000" r="1" fill="white"><title>2020-10-10: 12</title></circle>
	<circle cx="425.02" cy="179.65" data-y="12.93" data-x="1602374400" r="1" fill="white"><title>2020-10-11: 13</title></circle>
	<circle cx="426.62" cy="189.20" data-y="12.30" data-x="1602460800" r="1" fill="white"><title>2020-10-12: 12</title></circle>
	<circle cx="428.23" cy="195.07" data-y="11.91" data-x="1602547200" r="1" fill="white"><title>2020-10-13: 12</title></circle>
	<circle cx="429.84" cy="188.46" data-y="12.35" data-x="1602633600" r="1" fill="white"><title>2020-10-14: 12</title></circle>
	<circle cx="431.44" cy="175.24" data-y="13.22" data-x="1602720000" r="1" fill="white"><title>2020-10-15: 13</title></circle>
	<circle cx="433.05" cy="153.94" data-y="14.63" data-x="1602806400" r="1" fill="white"><title>2020-10-16: 15</title></circle>
	<circle cx="434.66" cy="125.30" data-y="16.53" data-x="1602892800" r="1" fill="white"><title>2020-10-17: 17</title></circle>
	<circle cx="436.26" cy="101.80" data-y="18.08" data-x="1602979200" r="1" fill="white"><title>2020-10-18: 18</title></circle>
	<circle cx="437.87" cy="70.96" data-y="20.12" data-x="1603065600" r="1" fill="white"><title>2020-10-19: 20</title></circle>
	<circle cx="439.48" cy="48.19" data-y="21.63" data-x="1603152000" r="1" fill="white"><title>2020-10-20: 22</title></circle>
	<circle cx="441.08" cy="37.91" data-y="22.31" data-x="1603238400" r="1" fill="white"><title>2020-10-21: 22</title></circle>
	<circle cx="442.69" cy="29.83" data-y="22.84" data-x="1603324800" r="1" fill="white"><title>2020-10-22: 23</title></circle>
	<circle cx="444.30" cy="10.00" data-y="24.16" data-x="1603411200" r="1" fill="white"><title>2020-10-23: 24</title></circle>
	<circle cx="445.90" cy="20.28" data-y="23.48" data-x="1603497600" r="1" fill="white"><title>2020-10-24: 23</title></circle>
	<circle cx="447.51" cy="35.70" data-y="22.46" data-x="1603584000" r="1" fill="white"><title>2020-10-25: 22</title></circle>
	<circle cx="449.12" cy="45.25" data-y="21.82" data-x="1603670400" r="1" fill="white"><title>2020-10-26: 22</title></circle>
	<circle cx="450.72" cy="68.75" data-y="20.27" data-x="1603756800" r="1" fill="white"><title>2020-10-27: 20</title></circle>
	<circle cx="452.33" cy="79.03" data-y="19.59" data-x="1603843200" r="1" fill="white"><title>2020-10-28: 20</title></circle>
	<circle cx="453.94" cy="94.46" data-y="18.57" data-x="1603929600" r="1" fill="white"><title>2020-10-29: 19</title></circle>
	<circle cx="455.54" cy="115.02" data-y="17.21" data-x="1604016000" r="1" fill="white"><title>2020-10-30: 17</title></circle>
	<circle cx="457.15" cy="108.41" data-y="17.64" data-x="1604102400" r="1" fill="white"><title>2020-10-31: 18</title></circle>
	<circle cx="458.75" cy="101.80" data-y="18.08" data-x="1604188800" r="1" fill="white"><title>2020-11-01: 18</title></circle>
	<circle cx="460.36" cy="108.41" data-y="17.64" data-x="1604275200" r="1" fill="white"><title>2020-11-02: 18</title></circle>
	<circle cx="461.97" cy="104.00" data-y="17.94" data-x="1604361600" r="1" fill="white"><title>2020-11-03: 18</title></circle>
</g>
<g data-series="recent-cases" class="data-series">
	<path d="M 461.97,104.00L 463.57,97.39L 465.18,116.49L 466.79,130.81L 468.39,164.23L 470.00,193.79" id="Recent cases" class="line" stroke-width="1" stroke-linecap="round" stroke-dasharray="4,6" stroke-dashoffset="4"><title>Recent cases</title></path>
	<circle cx="461.97" cy="104.00" data-y="17.94" data-x="1604361600" r="2.5" fill="white"><title>2020-11-03: 18</title></circle>
	<circle cx="463.57" cy="97.39" data-y="18.37" data-x="1604448000" r="2.5" fill="white"><title>2020-11-04: 18</title></circle>
	<circle cx="465.18" cy="116.49" data-y="17.11" data-x="1604534400" r="2.5" fill="white"><title>2020-11-05: 17</title></circle>
	<circle cx="466.79" cy="130.81" data-y="16.16" data-x="1604620800" r="2.5" fill="white"><title>2020-11-06: 16</title></circle>
	<circle cx="468.39" cy="164.23" data-y="13.95" data-x="1604707200" r="2.5" fill="white"><title>2020-11-07: 14</title></circle>
	<circle cx="470.00" cy="193.79" data-y="11.99" data-x="1604793600" r="2.5" fill="white"><title>2020-11-08: 12</title></circle>
</g>
</svg>
