<svg width="480" height="400" viewBox="0 0 480 400" xmlns="http://www.w3.org/2000/svg" style="overflow:display" preserveAspectRatio="xMinYMin meet" overflow="visible">
<defs>
	<style>
	.data-series path.line { fill-opacity: 0; stroke: black; }
	.data-series path.line.dotted { stroke-dasharray: 12 20 }
	.data-series:hover path.line, .data-series.on path.line { stroke-width: 1; }
	.data-series:hover circle, .data-series.on circle { display: inline; }
	.graph-grid { font-family: "Helvetica Neue",Helvetica,Arial,"Lucida Grande",sans-serif; }
	.graph-grid line { stroke: black; stroke-width: 1; stroke-linecap: round; }
	.graph-grid.graph-grid-x text { text-anchor: middle; dominant-baseline: hanging; transform: translateY(10px); }
	.graph-grid.graph-grid-y text { text-anchor: end; dominant-baseline: middle; transform: translateX(-10px); }
	</style>
</defs>
<g class="graph-grid graph-grid-y">
	<line x1="25.00" y1="375.00" x2="470.00" y2="375.00" data-left="25"></line>
	<text x="35" y="375" text-anchor="end">0</text>
	<text x="35" y="272.201543320529" text-anchor="end">20</text>
	<text x="35" y="169.403086641058" text-anchor="end">40</text>
	<text x="35" y="66.6046299615877" text-anchor="end">60</text>
	<text style="text-anchor:middle;dominant-baseline:hanging;font-weight:bold;transform: translateY(192.5px) rotate(-90deg);"></text>
</g>
<g class="graph-grid graph-grid-x">
	<line class="tick" x1="66.23" y1="375.00" x2="66.23" y2="380.00"></line>
	<text x="66.2300319488818" y="375" text-anchor="middle">A</text>
	<line class="tick" x1="108.88" y1="375.00" x2="108.88" y2="380.00"></line>
	<text x="108.88178913738" y="375" text-anchor="middle">M</text>
	<line class="tick" x1="152.96" y1="375.00" x2="152.96" y2="380.00"></line>
	<text x="152.955271565495" y="375" text-anchor="middle">J</text>
	<line class="tick" x1="195.61" y1="375.00" x2="195.61" y2="380.00"></line>
	<text x="195.607028753994" y="375" text-anchor="middle">J</text>
	<line class="tick" x1="239.68" y1="375.00" x2="239.68" y2="380.00"></line>
	<text x="239.680511182109" y="375" text-anchor="middle">A</text>
	<line class="tick" x1="283.75" y1="375.00" x2="283.75" y2="380.00"></line>
	<text x="283.753993610224" y="375" text-anchor="middle">S</text>
	<line class="tick" x1="326.41" y1="375.00" x2="326.41" y2="380.00"></line>
	<text x="326.405750798722" y="375" text-anchor="middle">O</text>
	<line class="tick" x1="370.48" y1="375.00" x2="370.48" y2="380.00"></line>
	<text x="370.479233226837" y="375" text-anchor="middle">N</text>
	<line class="tick" x1="413.13" y1="375.00" x2="413.13" y2="380.00"></line>
	<text x="413.130990415335" y="375" text-anchor="middle">D</text>
	<line class="tick" x1="457.20" y1="375.00" x2="457.20" y2="380.00"></line>
	<text x="457.20447284345" y="375" text-anchor="middle">J</text>
	<text style="text-anchor:middle;dominant-baseline:hanging;font-weight:bold;transform: translateY(192.5px) rotate(-90deg);"></text>
</g>
<g data-series="widespread" class="data-series">
	<path d="M 25.00,339.02L 470.00,339.02" id="E06000023-level-0" class="line" stroke-width="1" stroke-linecap="round" stroke-dasharray="3,3" fill-opacity="0.3" opacity="0.3"><title>Widespread</title></path>
</g>
<g data-series="substantial" class="data-series">
	<path d="M 25.00,354.44L 470.00,354.44" id="E06000023-level-1" class="line" stroke-width="1" stroke-linecap="round" stroke-dasharray="3,3" fill-opacity="0.3" opacity="0.3"><title>Substantial</title></path>
</g>
<g data-series="moderate" class="data-series">
	<path d="M 25.00,369.86L 470.00,369.86" id="E06000023-level-2" class="line" stroke-width="1" stroke-linecap="round" stroke-dasharray="3,3" fill-opacity="0.3" opacity="0.3"><title>Moderate</title></path>
</g>
<g data-series="new-cases" class="data-series">
	<path d="M 25.00,374.45L 26.42,374.35L 27.84,374.45L 29.27,374.53L 30.69,374.53L 32.11,374.53L 33.53,374.38L 34.95,374.07L 36.37,373.91L 37.80,373.75L 39.22,373.75L 40.64,373.29L 42.06,372.20L 43.48,372.04L 44.90,371.88L 46.33,370.95L 47.75,370.33L 49.17,368.77L 50.59,368.77L 52.01,367.99L 53.43,366.12L 54.86,364.56L 56.28,364.25L 57.70,363.16L 59.12,362.07L 60.54,360.04L 61.96,359.27L 63.39,359.27L 64.81,358.33L 66.23,358.33L 67.65,358.02L 69.07,358.64L 70.50,357.86L 71.92,356.15L 73.34,355.68L 74.76,355.99L 76.18,353.50L 77.60,353.35L 79.03,352.88L 80.45,353.66L 81.87,354.59L 83.29,352.88L 84.71,353.50L 86.13,355.37L 87.56,355.37L 88.98,354.59L 90.40,354.13L 91.82,351.63L 93.24,352.10L 94.66,348.21L 96.09,348.52L 97.51,347.27L 98.93,345.87L 100.35,343.84L 101.77,344.93L 103.19,345.40L 104.62,346.96L 106.04,346.80L 107.46,348.98L 108.88,350.23L 110.30,353.50L 111.73,354.90L 113.15,355.84L 114.57,357.55L 115.99,358.02L 117.41,355.37L 118.83,355.99L 120.26,356.62L 121.68,359.42L 123.10,360.20L 124.52,362.69L 125.94,363.16L 127.36,366.28L 128.79,367.68L 130.21,365.96L 131.63,364.56L 133.05,364.87L 134.47,363.78L 135.89,364.72L 137.32,363.94L 138.74,364.87L 140.16,367.06L 141.58,364.10L 143.00,361.45L 144.42,361.14L 145.85,360.67L 147.27,360.51L 148.69,360.20L 150.11,359.11L 151.53,363.47L 152.96,365.96L 154.38,366.43L 155.80,365.65L 157.22,366.90L 158.64,367.21L 160.06,368.46L 161.49,368.77L 162.91,369.55L 164.33,370.48L 165.75,371.26L 167.17,371.57L 168.59,372.04L 170.02,372.35L 171.44,372.35L 172.86,372.66L 174.28,372.97L 175.70,373.44L 177.12,373.75L 178.55,373.75L 179.97,373.60L 181.39,373.29L 182.81,373.75L 184.23,373.44L 185.65,373.44L 187.08,373.44L 188.50,372.97L 189.92,373.44L 191.34,373.60L 192.76,373.29L 194.19,373.60L 195.61,373.60L 197.03,373.29L 198.45,373.29L 199.87,373.13L 201.29,373.29L 202.72,373.29L 204.14,373.13L 205.56,373.29L 206.98,373.44L 208.40,373.60L 209.82,373.60L 211.25,373.60L 212.67,373.60L 214.09,373.29L 215.51,373.13L 216.93,373.13L 218.35,372.97L 219.78,372.66L 221.20,372.20L 222.62,372.04L 224.04,371.73L 225.46,371.57L 226.88,371.11L 228.31,371.11L 229.73,370.79L 231.15,370.79L 232.57,370.95L 233.99,371.73L 235.42,371.88L 236.84,372.51L 238.26,372.51L 239.68,373.29L 241.10,373.60L 242.52,373.44L 243.95,372.51L 245.37,372.04L 246.79,371.88L 248.21,371.73L 249.63,370.33L 251.05,369.70L 252.48,369.24L 253.90,368.77L 255.32,368.77L 256.74,368.77L 258.16,367.68L 259.58,367.83L 261.01,367.99L 262.43,367.21L 263.85,367.68L 265.27,367.06L 266.69,366.43L 268.12,367.06L 269.54,366.74L 270.96,366.74L 272.38,368.15L 273.80,367.52L 275.22,367.83L 276.65,367.83L 278.07,367.37L 279.49,366.90L 280.91,365.03L 282.33,363.32L 283.75,362.23L 285.18,362.38L 286.60,361.45L 288.02,360.36L 289.44,361.14L 290.86,362.54L 292.28,363.16L 293.71,364.87L 295.13,365.65L 296.55,366.74L 297.97,367.99L 299.39,367.99L 300.81,368.30L 302.24,367.83L 303.66,366.90L 305.08,365.19L 306.50,362.69L 307.92,362.38L 309.35,361.76L 310.77,359.58L 312.19,358.80L 313.61,357.86L 315.03,356.31L 316.45,357.24L 317.88,352.57L 319.30,351.01L 320.72,348.98L 322.14,343.53L 323.56,336.52L 324.98,326.08L 326.41,316.74L 327.83,307.70L 329.25,289.79L 330.67,262.99L 332.09,241.03L 333.51,213.30L 334.94,201.15L 336.36,191.80L 337.78,179.02L 339.20,154.41L 340.62,155.03L 342.04,155.50L 343.47,162.67L 344.89,160.80L 346.31,156.59L 347.73,145.69L 349.15,149.89L 350.58,127.93L 352.00,103.00L 353.42,86.49L 354.84,76.83L 356.26,67.80L 357.68,59.85L 359.11,51.44L 360.53,50.04L 361.95,60.63L 363.37,60.63L 364.79,69.51L 366.21,80.88L 367.64,65.46L 369.06,58.76L 370.48,59.07L 371.90,47.86L 373.32,41.47L 374.74,28.38L 376.17,10.00L 377.59,15.30L 379.01,16.39L 380.43,24.02L 381.85,19.81L 383.27,21.22L 384.70,22.62L 386.12,30.56L 387.54,35.08L 388.96,48.48L 390.38,59.38L 391.81,93.50L 393.23,119.36L 394.65,140.70L 396.07,159.40L 397.49,187.75L 398.91,209.40L 400.34,221.87L 401.76,230.43L 403.18,238.38L 404.60,245.23L 406.02,246.95L 407.44,255.05L 408.87,266.11L 410.29,273.90L 411.71,273.43L 413.13,281.69L 414.55,283.24L 415.97,288.23L 417.40,291.81L 418.82,284.65L 420.24,287.45L 421.66,290.72L 423.08,289.48L 424.50,286.67L 425.93,280.91L 427.35,273.74L 428.77,271.09L 430.19,264.39L 431.61,262.21L 433.04,256.60L 434.46,256.92L 435.88,255.05L 437.30,243.99L 438.72,237.91L 440.14,234.80L 441.57,237.29L 442.99,247.73L 444.41,236.35L 445.83,217.81L 447.25,216.26L 448.67,181.67L 450.10,153.16L 451.52,126.84L 452.94,103.31L 454.36,78.70L 455.78,72.47L 457.20,35.39L 458.63,28.23L 460.05,32.12L 461.47,24.64L 462.89,15.61" id="New cases" class="line" stroke-width="1" stroke-linecap="round"><title>New cases</title></path>
	<circle cx="25.00" cy="374.45" data-y="0.11" data-x="1583193600" r="1" fill="white"><title>2020-03-03: 0</title></circle>
	<circle cx="26.42" cy="374.35" data-y="0.13" data-x="1583280000" r="1" fill="white"><title>2020-03-04: 0</title></circle>
	<circle cx="27.84" cy="374.45" data-y="0.11" data-x="1583366400" r="1" fill="white"><title>2020-03-05: 0</title></circle>
	<circle cx="29.27" cy="374.53" data-y="0.09" data-x="1583452800" r="1" fill="white"><title>2020-03-06: 0</title></circle>
	<circle cx="30.69" cy="374.53" data-y="0.09" data-x="1583539200" r="1" fill="white"><title>2020-03-07: 0</title></circle>
	<circle cx="32.11" cy="374.53" data-y="0.09" data-x="1583625600" r="1" fill="white"><title>2020-03-08: 0</title></circle>
	<circle cx="33.53" cy="374.38" data-y="0.12" data-x="1583712000" r="1" fill="white"><title>2020-03-09: 0</title></circle>
	<circle cx="34.95" cy="374.07" data-y="0.18" data-x="1583798400" r="1" fill="white"><title>2020-03-10: 0</title></circle>
	<circle cx="36.37" cy="373.91" data-y="0.21" data-x="1583884800" r="1" fill="white"><title>2020-03-11: 0</title></circle>
	<circle cx="37.80" cy="373.75" data-y="0.24" data-x="1583971200" r="1" fill="white"><title>2020-03-12: 0</title></circle>
	<circle cx="39.22" cy="373.75" data-y="0.24" data-x="1584057600" r="1" fill="white"><title>2020-03-13: 0</title></circle>
	<circle cx="40.64" cy="373.29" data-y="0.33" data-x="1584144000" r="1" fill="white"><title>2020-03-14: 0</title></circle>
	<circle cx="42.06" cy="372.20" data-y="0.55" data-x="1584230400" r="1" fill="white"><title>2020-03-15: 1</title></circle>
	<circle cx="43.48" cy="372.04" data-y="0.58" data-x="1584316800" r="1" fill="white"><title>2020-03-16: 1</title></circle>
	<circle cx="44.90" cy="371.88" data-y="0.61" data-x="1584403200" r="1" fill="white"><title>2020-03-17: 1</title></circle>
	<circle cx="46.33" cy="370.95" data-y="0.79" data-x="1584489600" r="1" fill="white"><title>2020-03-18: 1</title></circle>
	<circle cx="47.75" cy="370.33" data-y="0.91" data-x="1584576000" r="1" fill="white"><title>2020-03-19: 1</title></circle>
	<circle cx="49.17" cy="368.77" data-y="1.21" data-x="1584662400" r="1" fill="white"><title>2020-03-20: 1</title></circle>
	<circle cx="50.59" cy="368.77" data-y="1.21" data-x="1584748800" r="1" fill="white"><title>2020-03-21: 1</title></circle>
	<circle cx="52.01" cy="367.99" data-y="1.36" data-x="1584835200" r="1" fill="white"><title>2020-03-22: 1</title></circle>
	<circle cx="53.43" cy="366.12" data-y="1.73" data-x="1584921600" r="1" fill="white"><title>2020-03-23: 2</title></circle>
	<circle cx="54.86" cy="364.56" data-y="2.03" data-x="1585008000" r="1" fill="white"><title>2020-03-24: 2</title></circle>
	<circle cx="56.28" cy="364.25" data-y="2.09" data-x="1585094400" r="1" fill="white"><title>2020-03-25: 2</title></circle>
	<circle cx="57.70" cy="363.16" data-y="2.30" data-x="1585180800" r="1" fill="white"><title>2020-03-26: 2</title></circle>
	<circle cx="59.12" cy="362.07" data-y="2.52" data-x="1585267200" r="1" fill="white"><title>2020-03-27: 3</title></circle>
	<circle cx="60.54" cy="360.04" data-y="2.91" data-x="1585353600" r="1" fill="white"><title>2020-03-28: 3</title></circle>
	<circle cx="61.96" cy="359.27" data-y="3.06" data-x="1585440000" r="1" fill="white"><title>2020-03-29: 3</title></circle>
	<circle cx="63.39" cy="359.27" data-y="3.06" data-x="1585526400" r="1" fill="white"><title>2020-03-30: 3</title></circle>
	<circle cx="64.81" cy="358.33" data-y="3.24" data-x="1585612800" r="1" fill="white"><title>2020-03-31: 3</title></circle>
	<circle cx="66.23" cy="358.33" data-y="3.24" data-x="1585699200" r="1" fill="white"><title>2020-04-01: 3</title></circle>
	<circle cx="67.65" cy="358.02" data-y="3.30" data-x="1585785600" r="1" fill="white"><title>2020-04-02: 3</title></circle>
	<circle cx="69.07" cy="358.64" data-y="3.18" data-x="1585872000" r="1" fill="white"><title>2020-04-03: 3</title></circle>
	<circle cx="70.50" cy="357.86" data-y="3.33" data-x="1585958400" r="1" fill="white"><title>2020-04-04: 3</title></circle>
	<circle cx="71.92" cy="356.15" data-y="3.67" data-x="1586044800" r="1" fill="white"><title>2020-04-05: 4</title></circle>
	<circle cx="73.34" cy="355.68" data-y="3.76" data-x="1586131200" r="1" fill="white"><title>2020-04-06: 4</title></circle>
	<circle cx="74.76" cy="355.99" data-y="3.70" data-x="1586217600" r="1" fill="white"><title>2020-04-07: 4</title></circle>
	<circle cx="76.18" cy="353.50" data-y="4.18" data-x="1586304000" r="1" fill="white"><title>2020-04-08: 4</title></circle>
	<circle cx="77.60" cy="353.35" data-y="4.21" data-x="1586390400" r="1" fill="white"><title>2020-04-09: 4</title></circle>
	<circle cx="79.03" cy="352.88" data-y="4.30" data-x="1586476800" r="1" fill="white"><title>2020-04-10: 4</title></circle>
	<circle cx="80.45" cy="353.66" data-y="4.15" data-x="1586563200" r="1" fill="white"><title>2020-04-11: 4</title></circle>
	<circle cx="81.87" cy="354.59" data-y="3.97" data-x="1586649600" r="1" fill="white"><title>2020-04-12: 4</title></circle>
	<circle cx="83.29" cy="352.88" data-y="4.30" data-x="1586736000" r="1" fill="white"><title>2020-04-13: 4</title></circle>
	<circle cx="84.71" cy="353.50" data-y="4.18" data-x="1586822400" r="1" fill="white"><title>2020-04-14: 4</title></circle>
	<circle cx="86.13" cy="355.37" data-y="3.82" data-x="1586908800" r="1" fill="white"><title>2020-04-15: 4</title></circle>
	<circle cx="87.56" cy="355.37" data-y="3.82" data-x="1586995200" r="1" fill="white"><title>2020-04-16: 4</title></circle>
	<circle cx="88.98" cy="354.59" data-y="3.97" data-x="1587081600" r="1" fill="white"><title>2020-04-17: 4</title></circle>
	<circle cx="90.40" cy="354.13" data-y="4.06" data-x="1587168000" r="1" fill="white"><title>2020-04-18: 4</title></circle>
	<circle cx="91.82" cy="351.63" data-y="4.55" data-x="1587254400" r="1" fill="white"><title>2020-04-19: 5</title></circle>
	<circle cx="93.24" cy="352.10" data-y="4.46" data-x="1587340800" r="1" fill="white"><title>2020-04-20: 4</title></circle>
	<circle cx="94.66" cy="348.21" data-y="5.21" data-x="1587427200" r="1" fill="white"><title>2020-04-21: 5</title></circle>
	<circle cx="96.09" cy="348.52" data-y="5.15" data-x="1587513600" r="1" fill="white"><title>2020-04-22: 5</title></circle>
	<circle cx="97.51" cy="347.27" data-y="5.39" data-x="1587600000" r="1" fill="white"><title>2020-04-23: 5</title></circle>
	<circle cx="98.93" cy="345.87" data-y="5.67" data-x="1587686400" r="1" fill="white"><title>2020-04-24: 6</title></circle>
	<circle cx="100.35" cy="343.84" data-y="6.06" data-x="1587772800" r="1" fill="white"><title>2020-04-25: 6</title></circle>
	<circle cx="101.77" cy="344.93" data-y="5.85" data-x="1587859200" r="1" fill="white"><title>2020-04-26: 6</title></circle>
	<circle cx="103.19" cy="345.40" data-y="5.76" data-x="1587945600" r="1" fill="white"><title>2020-04-27: 6</title></circle>
	<circle cx="104.62" cy="346.96" data-y="5.46" data-x="1588032000" r="1" fill="white"><title>2020-04-28: 5</title></circle>
	<circle cx="106.04" cy="346.80" data-y="5.49" data-x="1588118400" r="1" fill="white"><title>2020-04-29: 5</title></circle>
	<circle cx="107.46" cy="348.98" data-y="5.06" data-x="1588204800" r="1" fill="white"><title>2020-04-30: 5</title></circle>
	<circle cx="108.88" cy="350.23" data-y="4.82" data-x="1588291200" r="1" fill="white"><title>2020-05-01: 5</title></circle>
	<circle cx="110.30" cy="353.50" data-y="4.18" data-x="1588377600" r="1" fill="white"><title>2020-05-02: 4</title></circle>
	<circle cx="111.73" cy="354.90" data-y="3.91" data-x="1588464000" r="1" fill="white"><title>2020-05-03: 4</title></circle>
	<circle cx="113.15" cy="355.84" data-y="3.73" data-x="1588550400" r="1" fill="white"><title>2020-05-04: 4</title></circle>
	<circle cx="114.57" cy="357.55" data-y="3.39" data-x="1588636800" r="1" fill="white"><title>2020-05-05: 3</title></circle>
	<circle cx="115.99" cy="358.02" data-y="3.30" data-x="1588723200" r="1" fill="white"><title>2020-05-06: 3</title></circle>
	<circle cx="117.41" cy="355.37" data-y="3.82" data-x="1588809600" r="1" fill="white"><title>2020-05-07: 4</title></circle>
	<circle cx="118.83" cy="355.99" data-y="3.70" data-x="1588896000" r="1" fill="white"><title>2020-05-08: 4</title></circle>
	<circle cx="120.26" cy="356.62" data-y="3.58" data-x="1588982400" r="1" fill="white"><title>2020-05-09: 4</title></circle>
	<circle cx="121.68" cy="359.42" data-y="3.03" data-x="1589068800" r="1" fill="white"><title>2020-05-10: 3</title></circle>
	<circle cx="123.10" cy="360.20" data-y="2.88" data-x="1589155200" r="1" fill="white"><title>2020-05-11: 3</title></circle>
	<circle cx="124.52" cy="362.69" data-y="2.39" data-x="1589241600" r="1" fill="white"><title>2020-05-12: 2</title></circle>
	<circle cx="125.94" cy="363.16" data-y="2.30" data-x="1589328000" r="1" fill="white"><title>2020-05-13: 2</title></circle>
	<circle cx="127.36" cy="366.28" data-y="1.70" data-x="1589414400" r="1" fill="white"><title>2020-05-14: 2</title></circle>
	<circle cx="128.79" cy="367.68" data-y="1.42" data-x="1589500800" r="1" fill="white"><title>2020-05-15: 1</title></circle>
	<circle cx="130.21" cy="365.96" data-y="1.76" data-x="1589587200" r="1" fill="white"><title>2020-05-16: 2</title></circle>
	<circle cx="131.63" cy="364.56" data-y="2.03" data-x="1589673600" r="1" fill="white"><title>2020-05-17: 2</title></circle>
	<circle cx="133.05" cy="364.87" data-y="1.97" data-x="1589760000" r="1" fill="white"><title>2020-05-18: 2</title></circle>
	<circle cx="134.47" cy="363.78" data-y="2.18" data-x="1589846400" r="1" fill="white"><title>2020-05-19: 2</title></circle>
	<circle cx="135.89" cy="364.72" data-y="2.00" data-x="1589932800" r="1" fill="white"><title>2020-05-20: 2</title></circle>
	<circle cx="137.32" cy="363.94" data-y="2.15" data-x="1590019200" r="1" fill="white"><title>2020-05-21: 2</title></circle>
	<circle cx="138.74" cy="364.87" data-y="1.97" data-x="1590105600" r="1" fill="white"><title>2020-05-22: 2</title></circle>
	<circle cx="140.16" cy="367.06" data-y="1.55" data-x="1590192000" r="1" fill="white"><title>2020-05-23: 2</title></circle>
	<circle cx="141.58" cy="364.10" data-y="2.12" data-x="1590278400" r="1" fill="white"><title>2020-05-24: 2</title></circle>
	<circle cx="143.00" cy="361.45" data-y="2.64" data-x="1590364800" r="1" fill="white"><title>2020-05-25: 3</title></circle>
	<circle cx="144.42" cy="361.14" data-y="2.70" data-x="1590451200" r="1" fill="white"><title>2020-05-26: 3</title></circle>
	<circle cx="145.85" cy="360.67" data-y="2.79" data-x="1590537600" r="1" fill="white"><title>2020-05-27: 3</title></circle>
	<circle cx="147.27" cy="360.51" data-y="2.82" data-x="1590624000" r="1" fill="white"><title>2020-05-28: 3</title></circle>
	<circle cx="148.69" cy="360.20" data-y="2.88" data-x="1590710400" r="1" fill="white"><title>2020-05-29: 3</title></circle>
	<circle cx="150.11" cy="359.11" data-y="3.09" data-x="1590796800" r="1" fill="white"><title>2020-05-30: 3</title></circle>
	<circle cx="151.53" cy="363.47" data-y="2.24" data-x="1590883200" r="1" fill="white"><title>2020-05-31: 2</title></circle>
	<circle cx="152.96" cy="365.96" data-y="1.76" data-x="1590969600" r="1" fill="white"><title>2020-06-01: 2</title></circle>
	<circle cx="154.38" cy="366.43" data-y="1.67" data-x="1591056000" r="1" fill="white"><title>2020-06-02: 2</title></circle>
	<circle cx="155.80" cy="365.65" data-y="1.82" data-x="1591142400" r="1" fill="white"><title>2020-06-03: 2</title></circle>
	<circle cx="157.22" cy="366.90" data-y="1.58" data-x="1591228800" r="1" fill="white"><title>2020-06-04: 2</title></circle>
	<circle cx="158.64" cy="367.21" data-y="1.52" data-x="1591315200" r="1" fill="white"><title>2020-06-05: 2</title></circle>
	<circle cx="160.06" cy="368.46" data-y="1.27" data-x="1591401600" r="1" fill="white"><title>2020-06-06: 1</title></circle>
	<circle cx="161.49" cy="368.77" data-y="1.21" data-x="1591488000" r="1" fill="white"><title>2020-06-07: 1</title></circle>
	<circle cx="162.91" cy="369.55" data-y="1.06" data-x="1591574400" r="1" fill="white"><title>2020-06-08: 1</title></circle>
	<circle cx="164.33" cy="370.48" data-y="0.88" data-x="1591660800" r="1" fill="white"><title>2020-06-09: 1</title></circle>
	<circle cx="165.75" cy="371.26" data-y="0.73" data-x="1591747200" r="1" fill="white"><title>2020-06-10: 1</title></circle>
	<circle cx="167.17" cy="371.57" data-y="0.67" data-x="1591833600" r="1" fill="white"><title>2020-06-11: 1</title></circle>
	<circle cx="168.59" cy="372.04" data-y="0.58" data-x="1591920000" r="1" fill="white"><title>2020-06-12: 1</title></circle>
	<circle cx="170.02" cy="372.35" data-y="0.52" data-x="1592006400" r="1" fill="white"><title>2020-06-13: 1</title></circle>
	<circle cx="171.44" cy="372.35" data-y="0.52" data-x="1592092800" r="1" fill="white"><title>2020-06-14: 1</title></circle>
	<circle cx="172.86" cy="372.66" data-y="0.45" data-x="1592179200" r="1" fill="white"><title>2020-06-15: 0</title></circle>
	<circle cx="174.28" cy="372.97" data-y="0.39" data-x="1592265600" r="1" fill="white"><title>2020-06-16: 0</title></circle>
	<circle cx="175.70" cy="373.44" data-y="0.30" data-x="1592352000" r="1" fill="white"><title>2020-06-17: 0</title></circle>
	<circle cx="177.12" cy="373.75" data-y="0.24" data-x="1592438400" r="1" fill="white"><title>2020-06-18: 0</title></circle>
	<circle cx="178.55" cy="373.75" data-y="0.24" data-x="1592524800" r="1" fill="white"><title>2020-06-19: 0</title></circle>
	<circle cx="179.97" cy="373.60" data-y="0.27" data-x="1592611200" r="1" fill="white"><title>2020-06-20: 0</title></circle>
	<circle cx="181.39" cy="373.29" data-y="0.33" data-x="1592697600" r="1" fill="white"><title>2020-06-21: 0</title></circle>
	<circle cx="182.81" cy="373.75" data-y="0.24" data-x="1592784000" r="1" fill="white"><title>2020-06-22: 0</title></circle>
	<circle cx="184.23" cy="373.44" data-y="0.30" data-x="1592870400" r="1" fill="white"><title>2020-06-23: 0</title></circle>
	<circle cx="185.65" cy="373.44" data-y="0.30" data-x="1592956800" r="1" fill="white"><title>2020-06-24: 0</title></circle>
	<circle cx="187.08" cy="373.44" data-y="0.30" data-x="1593043200" r="1" fill="white"><title>2020-06-25: 0</title></circle>
	<circle cx="188.50" cy="372.97" data-y="0.39" data-x="1593129600" r="1" fill="white"><title>2020-06-26: 0</title></circle>
	<circle cx="189.92" cy="373.44" data-y="0.30" data-x="1593216000" r="1" fill="white"><title>2020-06-27: 0</title></circle>
	<circle cx="191.34" cy="373.60" data-y="0.27" data-x="1593302400" r="1" fill="white"><title>2020-06-28: 0</title></circle>
	<circle cx="192.76" cy="373.29" data-y="0.33" data-x="1593388800" r="1" fill="white"><title>2020-06-29: 0</title></circle>
	<circle cx="194.19" cy="373.60" data-y="0.27" data-x="1593475200" r="1" fill="white"><title>2020-06-30: 0</title></circle>
	<circle cx="195.61" cy="373.60" data-y="0.27" data-x="1593561600" r="1" fill="white"><title>2020-07-01: 0</title></circle>
	<circle cx="197.03" cy="373.29" data-y="0.33" data-x="1593648000" r="1" fill="white"><title>2020-07-02: 0</title></circle>
	<circle cx="198.45" cy="373.29" data-y="0.33" data-x="1593734400" r="1" fill="white"><title>2020-07-03: 0</title></circle>
	<circle cx="199.87" cy="373.13" data-y="0.36" data-x="1593820800" r="1" fill="white"><title>2020-07-04: 0</title></circle>
	<circle cx="201.29" cy="373.29" data-y="0.33" data-x="1593907200" r="1" fill="white"><title>2020-07-05: 0</title></circle>
	<circle cx="202.72" cy="373.29" data-y="0.33" data-x="1593993600" r="1" fill="white"><title>2020-07-06: 0</title></circle>
	<circle cx="204.14" cy="373.13" data-y="0.36" data-x="1594080000" r="1" fill="white"><title>2020-07-07: 0</title></circle>
	<circle cx="205.56" cy="373.29" data-y="0.33" data-x="1594166400" r="1" fill="white"><title>2020-07-08: 0</title></circle>
	<circle cx="206.98" cy="373.44" data-y="0.30" data-x="1594252800" r="1" fill="white"><title>2020-07-09: 0</title></circle>
	<circle cx="208.40" cy="373.60" data-y="0.27" data-x="1594339200" r="1" fill="white"><title>2020-07-10: 0</title></circle>
	<circle cx="209.82" cy="373.60" data-y="0.27" data-x="1594425600" r="1" fill="white"><title>2020-07-11: 0</title></circle>
	<circle cx="211.25" cy="373.60" data-y="0.27" data-x="1594512000" r="1" fill="white"><title>2020-07-12: 0</title></circle>
	<circle cx="212.67" cy="373.60" data-y="0.27" data-x="1594598400" r="1" fill="white"><title>2020-07-13: 0</title></circle>
	<circle cx="214.09" cy="373.29" data-y="0.33" data-x="1594684800" r="1" fill="white"><title>2020-07-14: 0</title></circle>
	<circle cx="215.51" cy="373.13" data-y="0.36" data-x="1594771200" r="1" fill="white"><title>2020-07-15: 0</title></circle>
	<circle cx="216.93" cy="373.13" data-y="0.36" data-x="1594857600" r="1" fill="white"><title>2020-07-16: 0</title></circle>
	<circle cx="218.35" cy="372.97" data-y="0.39" data-x="1594944000" r="1" fill="white"><title>2020-07-17: 0</title></circle>
	<circle cx="219.78" cy="372.66" data-y="0.45" data-x="1595030400" r="1" fill="white"><title>2020-07-18: 0</title></circle>
	<circle cx="221.20" cy="372.20" data-y="0.55" data-x="1595116800" r="1" fill="white"><title>2020-07-19: 1</title></circle>
	<circle cx="222.62" cy="372.04" data-y="0.58" data-x="1595203200" r="1" fill="white"><title>2020-07-20: 1</title></circle>
	<circle cx="224.04" cy="371.73" data-y="0.64" data-x="1595289600" r="1" fill="white"><title>2020-07-21: 1</title></circle>
	<circle cx="225.46" cy="371.57" data-y="0.67" data-x="1595376000" r="1" fill="white"><title>2020-07-22: 1</title></circle>
	<circle cx="226.88" cy="371.11" data-y="0.76" data-x="1595462400" r="1" fill="white"><title>2020-07-23: 1</title></circle>
	<circle cx="228.31" cy="371.11" data-y="0.76" data-x="1595548800" r="1" fill="white"><title>2020-07-24: 1</title></circle>
	<circle cx="229.73" cy="370.79" data-y="0.82" data-x="1595635200" r="1" fill="white"><title>2020-07-25: 1</title></circle>
	<circle cx="231.15" cy="370.79" data-y="0.82" data-x="1595721600" r="1" fill="white"><title>2020-07-26: 1</title></circle>
	<circle cx="232.57" cy="370.95" data-y="0.79" data-x="1595808000" r="1" fill="white"><title>2020-07-27: 1</title></circle>
	<circle cx="233.99" cy="371.73" data-y="0.64" data-x="1595894400" r="1" fill="white"><title>2020-07-28: 1</title></circle>
	<circle cx="235.42" cy="371.88" data-y="0.61" data-x="1595980800" r="1" fill="white"><title>2020-07-29: 1</title></circle>
	<circle cx="236.84" cy="372.51" data-y="0.48" data-x="1596067200" r="1" fill="white"><title>2020-07-30: 0</title></circle>
	<circle cx="238.26" cy="372.51" data-y="0.48" data-x="1596153600" r="1" fill="white"><title>2020-07-31: 0</title></circle>
	<circle cx="239.68" cy="373.29" data-y="0.33" data-x="1596240000" r="1" fill="white"><title>2020-08-01: 0</title></circle>
	<circle cx="241.10" cy="373.60" data-y="0.27" data-x="1596326400" r="1" fill="white"><title>2020-08-02: 0</title></circle>
	<circle cx="242.52" cy="373.44" data-y="0.30" data-x="1596412800" r="1" fill="white"><title>2020-08-03: 0</title></circle>
	<circle cx="243.95" cy="372.51" data-y="0.48" data-x="1596499200" r="1" fill="white"><title>2020-08-04: 0</title></circle>
	<circle cx="245.37" cy="372.04" data-y="0.58" data-x="1596585600" r="1" fill="white"><title>2020-08-05: 1</title></circle>
	<circle cx="246.79" cy="371.88" data-y="0.61" data-x="1596672000" r="1" fill="white"><title>2020-08-06: 1</title></circle>
	<circle cx="248.21" cy="371.73" data-y="0.64" data-x="1596758400" r="1" fill="white"><title>2020-08-07: 1</title></circle>
	<circle cx="249.63" cy="370.33" data-y="0.91" data-x="1596844800" r="1" fill="white"><title>2020-08-08: 1</title></circle>
	<circle cx="251.05" cy="369.70" data-y="1.03" data-x="1596931200" r="1" fill="white"><title>2020-08-09: 1</title></circle>
	<circle cx="252.48" cy="369.24" data-y="1.12" data-x="1597017600" r="1" fill="white"><title>2020-08-10: 1</title></circle>
	<circle cx="253.90" cy="368.77" data-y="1.21" data-x="1597104000" r="1" fill="white"><title>2020-08-11: 1</title></circle>
	<circle cx="255.32" cy="368.77" data-y="1.21" data-x="1597190400" r="1" fill="white"><title>2020-08-12: 1</title></circle>
	<circle cx="256.74" cy="368.77" data-y="1.21" data-x="1597276800" r="1" fill="white"><title>2020-08-13: 1</title></circle>
	<circle cx="258.16" cy="367.68" data-y="1.42" data-x="1597363200" r="1" fill="white"><title>2020-08-14: 1</title></circle>
	<circle cx="259.58" cy="367.83" data-y="1.39" data-x="1597449600" r="1" fill="white"><title>2020-08-15: 1</title></circle>
	<circle cx="261.01" cy="367.99" data-y="1.36" data-x="1597536000" r="1" fill="white"><title>2020-08-16: 1</title></circle>
	<circle cx="262.43" cy="367.21" data-y="1.52" data-x="1597622400" r="1" fill="white"><title>2020-08-17: 2</title></circle>
	<circle cx="263.85" cy="367.68" data-y="1.42" data-x="1597708800" r="1" fill="white"><title>2020-08-18: 1</title></circle>
	<circle cx="265.27" cy="367.06" data-y="1.55" data-x="1597795200" r="1" fill="white"><title>2020-08-19: 2</title></circle>
	<circle cx="266.69" cy="366.43" data-y="1.67" data-x="1597881600" r="1" fill="white"><title>2020-08-20: 2</title></circle>
	<circle cx="268.12" cy="367.06" data-y="1.55" data-x="1597968000" r="1" fill="white"><title>2020-08-21: 2</title></circle>
	<circle cx="269.54" cy="366.74" data-y="1.61" data-x="1598054400" r="1" fill="white"><title>2020-08-22: 2</title></circle>
	<circle cx="270.96" cy="366.74" data-y="1.61" data-x="1598140800" r="1" fill="white"><title>2020-08-23: 2</title></circle>
	<circle cx="272.38" cy="368.15" data-y="1.33" data-x="1598227200" r="1" fill="white"><title>2020-08-24: 1</title></circle>
	<circle cx="273.80" cy="367.52" data-y="1.45" data-x="1598313600" r="1" fill="white"><title>2020-08-25: 1</title></circle>
	<circle cx="275.22" cy="367.83" data-y="1.39" data-x="1598400000" r="1" fill="white"><title>2020-08-26: 1</title></circle>
	<circle cx="276.65" cy="367.83" data-y="1.39" data-x="1598486400" r="1" fill="white"><title>2020-08-27: 1</title></circle>
	<circle cx="278.07" cy="367.37" data-y="1.49" data-x="1598572800" r="1" fill="white"><title>2020-08-28: 1</title></circle>
	<circle cx="279.49" cy="366.90" data-y="1.58" data-x="1598659200" r="1" fill="white"><title>2020-08-29: 2</title></circle>
	<circle cx="280.91" cy="365.03" data-y="1.94" data-x="1598745600" r="1" fill="white"><title>2020-08-30: 2</title></circle>
	<circle cx="282.33" cy="363.32" data-y="2.27" data-x="1598832000" r="1" fill="white"><title>2020-08-31: 2</title></circle>
	<circle cx="283.75" cy="362.23" data-y="2.49" data-x="1598918400" r="1" fill="white"><title>2020-09-01: 2</title></circle>
	<circle cx="285.18" cy="362.38" data-y="2.45" data-x="1599004800" r="1" fill="white"><title>2020-09-02: 2</title></circle>
	<circle cx="286.60" cy="361.45" data-y="2.64" data-x="1599091200" r="1" fill="white"><title>2020-09-03: 3</title></circle>
	<circle cx="288.02" cy="360.36" data-y="2.85" data-x="1599177600" r="1" fill="white"><title>2020-09-04: 3</title></circle>
	<circle cx="289.44" cy="361.14" data-y="2.70" data-x="1599264000" r="1" fill="white"><title>2020-09-05: 3</title></circle>
	<circle cx="290.86" cy="362.54" data-y="2.42" data-x="1599350400" r="1" fill="white"><title>2020-09-06: 2</title></circle>
	<circle cx="292.28" cy="363.16" data-y="2.30" data-x="1599436800" r="1" fill="white"><title>2020-09-07: 2</title></circle>
	<circle cx="293.71" cy="364.87" data-y="1.97" data-x="1599523200" r="1" fill="white"><title>2020-09-08: 2</title></circle>
	<circle cx="295.13" cy="365.65" data-y="1.82" data-x="1599609600" r="1" fill="white"><title>2020-09-09: 2</title></circle>
	<circle cx="296.55" cy="366.74" data-y="1.61" data-x="1599696000" r="1" fill="white"><title>2020-09-10: 2</title></circle>
	<circle cx="297.97" cy="367.99" data-y="1.36" data-x="1599782400" r="1" fill="white"><title>2020-09-11: 1</title></circle>
	<circle cx="299.39" cy="367.99" data-y="1.36" data-x="1599868800" r="1" fill="white"><title>2020-09-12: 1</title></circle>
	<circle cx="300.81" cy="368.30" data-y="1.30" data-x="1599955200" r="1" fill="white"><title>2020-09-13: 1</title></circle>
	<circle cx="302.24" cy="367.83" data-y="1.39" data-x="1600041600" r="1" fill="white"><title>2020-09-14: 1</title></circle>
	<circle cx="303.66" cy="366.90" data-y="1.58" data-x="1600128000" r="1" fill="white"><title>2020-09-15: 2</title></circle>
	<circle cx="305.08" cy="365.19" data-y="1.91" data-x="1600214400" r="1" fill="white"><title>2020-09-16: 2</title></circle>
	<circle cx="306.50" cy="362.69" data-y="2.39" data-x="1600300800" r="1" fill="white"><title>2020-09-17: 2</title></circle>
	<circle cx="307.92" cy="362.38" data-y="2.45" data-x="1600387200" r="1" fill="white"><title>2020-09-18: 2</title></circle>
	<circle cx="309.35" cy="361.76" data-y="2.58" data-x="1600473600" r="1" fill="white"><title>2020-09-19: 3</title></circle>
	<circle cx="310.77" cy="359.58" data-y="3.00" data-x="1600560000" r="1" fill="white"><title>2020-09-20: 3</title></circle>
	<circle cx="312.19" cy="358.80" data-y="3.15" data-x="1600646400" r="1" fill="white"><title>2020-09-21: 3</title></circle>
	<circle cx="313.61" cy="357.86" data-y="3.33" data-x="1600732800" r="1" fill="white"><title>2020-09-22: 3</title></circle>
	<circle cx="315.03" cy="356.31" data-y="3.64" data-x="1600819200" r="1" fill="white"><title>2020-09-23: 4</title></circle>
	<circle cx="316.45" cy="357.24" data-y="3.46" data-x="1600905600" r="1" fill="white"><title>2020-09-24: 3</title></circle>
	<circle cx="317.88" cy="352.57" data-y="4.36" data-x="1600992000" r="1" fill="white"><title>2020-09-25: 4</title></circle>
	<circle cx="319.30" cy="351.01" data-y="4.67" data-x="1601078400" r="1" fill="white"><title>2020-09-26: 5</title></circle>
	<circle cx="320.72" cy="348.98" data-y="5.06" data-x="1601164800" r="1" fill="white"><title>2020-09-27: 5</title></circle>
	<circle cx="322.14" cy="343.53" data-y="6.12" data-x="1601251200" r="1" fill="white"><title>2020-09-28: 6</title></circle>
	<circle cx="323.56" cy="336.52" data-y="7.49" data-x="1601337600" r="1" fill="white"><title>2020-09-29: 7</title></circle>
	<circle cx="324.98" cy="326.08" data-y="9.52" data-x="1601424000" r="1" fill="white"><title>2020-09-30: 10</title></circle>
	<circle cx="326.41" cy="316.74" data-y="11.34" data-x="1601510400" r="1" fill="white"><title>2020-10-01: 11</title></circle>
	<circle cx="327.83" cy="307.70" data-y="13.09" data-x="1601596800" r="1" fill="white"><title>2020-10-02: 13</title></circle>
	<circle cx="329.25" cy="289.79" data-y="16.58" data-x="1601683200" r="1" fill="white"><title>2020-10-03: 17</title></circle>
	<circle cx="330.67" cy="262.99" data-y="21.79" data-x="1601769600" r="1" fill="white"><title>2020-10-04: 22</title></circle>
	<circle cx="332.09" cy="241.03" data-y="26.07" data-x="1601856000" r="1" fill="white"><title>2020-10-05: 26</title></circle>
	<circle cx="333.51" cy="213.30" data-y="31.46" data-x="1601942400" r="1" fill="white"><title>2020-10-06: 31</title></circle>
	<circle cx="334.94" cy="201.15" data-y="33.82" data-x="1602028800" r="1" fill="white"><title>2020-10-07: 34</title></circle>
	<circle cx="336.36" cy="191.80" data-y="35.64" data-x="1602115200" r="1" fill="white"><title>2020-10-08: 36</title></circle>
	<circle cx="337.78" cy="179.02" data-y="38.13" data-x="1602201600" r="1" fill="white"><title>2020-10-09: 38</title></circle>
	<circle cx="339.20" cy="154.41" data-y="42.92" data-x="1602288000" r="1" fill="white"><title>2020-10-10: 43</title></circle>
	<circle cx="340.62" cy="155.03" data-y="42.80" data-x="1602374400" r="1" fill="white"><title>2020-10-11: 43</title></circle>
	<circle cx="342.04" cy="155.50" data-y="42.70" data-x="1602460800" r="1" fill="white"><title>2020-10-12: 43</title></circle>
	<circle cx="343.47" cy="162.67" data-y="41.31" data-x="1602547200" r="1" fill="white"><title>2020-10-13: 41</title></circle>
	<circle cx="344.89" cy="160.80" data-y="41.67" data-x="1602633600" r="1" fill="white"><title>2020-10-14: 42</title></circle>
	<circle cx="346.31" cy="156.59" data-y="42.49" data-x="1602720000" r="1" fill="white"><title>2020-10-15: 42</title></circle>
	<circle cx="347.73" cy="145.69" data-y="44.61" data-x="1602806400" r="1" fill="white"><title>2020-10-16: 45</title></circle>
	<circle cx="349.15" cy="149.89" data-y="43.80" data-x="1602892800" r="1" fill="white"><title>2020-10-17: 44</title></circle>
	<circle cx="350.58" cy="127.93" data-y="48.07" data-x="1602979200" r="1" fill="white"><title>2020-10-18: 48</title></circle>
	<circle cx="352.00" cy="103.00" data-y="52.92" data-x="1603065600" r="1" fill="white"><title>2020-10-19: 53</title></circle>
	<circle cx="353.42" cy="86.49" data-y="56.13" data-x="1603152000" r="1" fill="white"><title>2020-10-20: 56</title></circle>
	<circle cx="354.84" cy="76.83" data-y="58.01" data-x="1603238400" r="1" fill="white"><title>2020-10-21: 58</title></circle>
	<circle cx="356.26" cy="67.80" data-y="59.77" data-x="1603324800" r="1" fill="white"><title>2020-10-22: 60</title></circle>
	<circle cx="357.68" cy="59.85" data-y="61.31" data-x="1603411200" r="1" fill="white"><title>2020-10-23: 61</title></circle>
	<circle cx="359.11" cy="51.44" data-y="62.95" data-x="1603497600" r="1" fill="white"><title>2020-10-24: 63</title></circle>
	<circle cx="360.53" cy="50.04" data-y="63.22" data-x="1603584000" r="1" fill="white"><title>2020-10-25: 63</title></circle>
	<circle cx="361.95" cy="60.63" data-y="61.16" data-x="1603670400" r="1" fill="white"><title>2020-10-26: 61</title></circle>
	<circle cx="363.37" cy="60.63" data-y="61.16" data-x="1603756800" r="1" fill="white"><title>2020-10-27: 61</title></circle>
	<circle cx="364.79" cy="69.51" data-y="59.43" data-x="1603843200" r="1" fill="white"><title>2020-10-28: 59</title></circle>
	<circle cx="366.21" cy="80.88" data-y="57.22" data-x="1603929600" r="1" fill="white"><title>2020-10-29: 57</title></circle>
	<circle cx="367.64" cy="65.46" data-y="60.22" data-x="1604016000" r="1" fill="white"><title>2020-10-30: 60</title></circle>
	<circle cx="369.06" cy="58.76" data-y="61.53" data-x="1604102400" r="1" fill="white"><title>2020-10-31: 62</title></circle>
	<circle cx="370.48" cy="59.07" data-y="61.47" data-x="1604188800" r="1" fill="white"><title>2020-11-01: 61</title></circle>
	<circle cx="371.90" cy="47.86" data-y="63.65" data-x="1604275200" r="1" fill="white"><title>2020-11-02: 64</title></circle>
	<circle cx="373.32" cy="41.47" data-y="64.89" data-x="1604361600" r="1" fill="white"><title>2020-11-03: 65</title></circle>
	<circle cx="374.74" cy="28.38" data-y="67.44" data-x="1604448000" r="1" fill="white"><title>2020-11-04: 67</title></circle>
	<circle cx="376.17" cy="10.00" data-y="71.01" data-x="1604534400" r="1" fill="white"><title>2020-11-05: 71</title></circle>
	<circle cx="377.59" cy="15.30" data-y="69.98" data-x="1604620800" r="1" fill="white"><title>2020-11-06: 70</title></circle>
	<circle cx="379.01" cy="16.39" data-y="69.77" data-x="1604707200" r="1" fill="white"><title>2020-11-07: 70</title></circle>
	<circle cx="380.43" cy="24.02" data-y="68.28" data-x="1604793600" r="1" fill="white"><title>2020-11-08: 68</title></circle>
	<circle cx="381.85" cy="19.81" data-y="69.10" data-x="1604880000" r="1" fill="white"><title>2020-11-09: 69</title></circle>
	<circle cx="383.27" cy="21.22" data-y="68.83" data-x="1604966400" r="1" fill="white"><title>2020-11-10: 69</title></circle>
	<circle cx="384.70" cy="22.62" data-y="68.56" data-x="1605052800" r="1" fill="white"><title>2020-11-11: 69</title></circle>
	<circle cx="386.12" cy="30.56" data-y="67.01" data-x="1605139200" r="1" fill="white"><title>2020-11-12: 67</title></circle>
	<circle cx="387.54" cy="35.08" data-y="66.13" data-x="1605225600" r="1" fill="white"><title>2020-11-13: 66</title></circle>
	<circle cx="388.96" cy="48.48" data-y="63.53" data-x="1605312000" r="1" fill="white"><title>2020-11-14: 64</title></circle>
	<circle cx="390.38" cy="59.38" data-y="61.40" data-x="1605398400" r="1" fill="white"><title>2020-11-15: 61</title></circle>
	<circle cx="391.81" cy="93.50" data-y="54.77" data-x="1605484800" r="1" fill="white"><title>2020-11-16: 55</title></circle>
	<circle cx="393.23" cy="119.36" data-y="49.74" data-x="1605571200" r="1" fill="white"><title>2020-11-17: 50</title></circle>
	<circle cx="394.65" cy="140.70" data-y="45.58" data-x="1605657600" r="1" fill="white"><title>2020-11-18: 46</title></circle>
	<circle cx="396.07" cy="159.40" data-y="41.95" data-x="1605744000" r="1" fill="white"><title>2020-11-19: 42</title></circle>
	<circle cx="397.49" cy="187.75" data-y="36.43" data-x="1605830400" r="1" fill="white"><title>2020-11-20: 36</title></circle>
	<circle cx="398.91" cy="209.40" data-y="32.22" data-x="1605916800" r="1" fill="white"><title>2020-11-21: 32</title></circle>
	<circle cx="400.34" cy="221.87" data-y="29.79" data-x="1606003200" r="1" fill="white"><title>2020-11-22: 30</title></circle>
	<circle cx="401.76" cy="230.43" data-y="28.13" data-x="1606089600" r="1" fill="white"><title>2020-11-23: 28</title></circle>
	<circle cx="403.18" cy="238.38" data-y="26.58" data-x="1606176000" r="1" fill="white"><title>2020-11-24: 27</title></circle>
	<circle cx="404.60" cy="245.23" data-y="25.25" data-x="1606262400" r="1" fill="white"><title>2020-11-25: 25</title></circle>
	<circle cx="406.02" cy="246.95" data-y="24.91" data-x="1606348800" r="1" fill="white"><title>2020-11-26: 25</title></circle>
	<circle cx="407.44" cy="255.05" data-y="23.34" data-x="1606435200" r="1" fill="white"><title>2020-11-27: 23</title></circle>
	<circle cx="408.87" cy="266.11" data-y="21.19" data-x="1606521600" r="1" fill="white"><title>2020-11-28: 21</title></circle>
	<circle cx="410.29" cy="273.90" data-y="19.67" data-x="1606608000" r="1" fill="white"><title>2020-11-29: 20</title></circle>
	<circle cx="411.71" cy="273.43" data-y="19.76" data-x="1606694400" r="1" fill="white"><title>2020-11-30: 20</title></circle>
	<circle cx="413.13" cy="281.69" data-y="18.15" data-x="1606780800" r="1" fill="white"><title>2020-12-01: 18</title></circle>
	<circle cx="414.55" cy="283.24" data-y="17.85" data-x="1606867200" r="1" fill="white"><title>2020-12-02: 18</title></circle>
	<circle cx="415.97" cy="288.23" data-y="16.88" data-x="1606953600" r="1" fill="white"><title>2020-12-03: 17</title></circle>
	<circle cx="417.40" cy="291.81" data-y="16.18" data-x="1607040000" r="1" fill="white"><title>2020-12-04: 16</title></circle>
	<circle cx="418.82" cy="284.65" data-y="17.58" data-x="1607126400" r="1" fill="white"><title>2020-12-05: 18</title></circle>
	<circle cx="420.24" cy="287.45" data-y="17.03" data-x="1607212800" r="1" fill="white"><title>2020-12-06: 17</title></circle>
	<circle cx="421.66" cy="290.72" data-y="16.40" data-x="1607299200" r="1" fill="white"><title>2020-12-07: 16</title></circle>
	<circle cx="423.08" cy="289.48" data-y="16.64" data-x="1607385600" r="1" fill="white"><title>2020-12-08: 17</title></circle>
	<circle cx="424.50" cy="286.67" data-y="17.18" data-x="1607472000" r="1" fill="white"><title>2020-12-09: 17</title></circle>
	<circle cx="425.93" cy="280.91" data-y="18.31" data-x="1607558400" r="1" fill="white"><title>2020-12-10: 18</title></circle>
	<circle cx="427.35" cy="273.74" data-y="19.70" data-x="1607644800" r="1" fill="white"><title>2020-12-11: 20</title></circle>
	<circle cx="428.77" cy="271.09" data-y="20.22" data-x="1607731200" r="1" fill="white"><title>2020-12-12: 20</title></circle>
	<circle cx="430.19" cy="264.39" data-y="21.52" data-x="1607817600" r="1" fill="white"><title>2020-12-13: 22</title></circle>
	<circle cx="431.61" cy="262.21" data-y="21.94" data-x="1607904000" r="1" fill="white"><title>2020-12-14: 22</title></circle>
	<circle cx="433.04" cy="256.60" data-y="23.03" data-x="1607990400" r="1" fill="white"><title>2020-12-15: 23</title></circle>
	<circle cx="434.46" cy="256.92" data-y="22.97" data-x="1608076800" r="1" fill="white"><title>2020-12-16: 23</title></circle>
	<circle cx="435.88" cy="255.05" data-y="23.34" data-x="1608163200" r="1" fill="white"><title>2020-12-17: 23</title></circle>
	<circle cx="437.30" cy="243.99" data-y="25.49" data-x="1608249600" r="1" fill="white"><title>2020-12-18: 25</title></circle>
	<circle cx="438.72" cy="237.91" data-y="26.67" data-x="1608336000" r="1" fill="white"><title>2020-12-19: 27</title></circle>
	<circle cx="440.14" cy="234.80" data-y="27.28" data-x="1608422400" r="1" fill="white"><title>2020-12-20: 27</title></circle>
	<circle cx="441.57" cy="237.29" data-y="26.79" data-x="1608508800" r="1" fill="white"><title>2020-12-21: 27</title></circle>
	<circle cx="442.99" cy="247.73" data-y="24.76" data-x="1608595200" r="1" fill="white"><title>2020-12-22: 25</title></circle>
	<circle cx="444.41" cy="236.35" data-y="26.97" data-x="1608681600" r="1" fill="white"><title>2020-12-23: 27</title></circle>
	<circle cx="445.83" cy="217.81" data-y="30.58" data-x="1608768000" r="1" fill="white"><title>2020-12-24: 31</title></circle>
	<circle cx="447.25" cy="216.26" data-y="30.88" data-x="1608854400" r="1" fill="white"><title>2020-12-25: 31</title></circle>
	<circle cx="448.67" cy="181.67" data-y="37.61" data-x="1608940800" r="1" fill="white"><title>2020-12-26: 38</title></circle>
	<circle cx="450.10" cy="153.16" data-y="43.16" data-x="1609027200" r="1" fill="white"><title>2020-12-27: 43</title></circle>
	<circle cx="451.52" cy="126.84" data-y="48.28" data-x="1609113600" r="1" fill="white"><title>2020-12-28: 48</title></circle>
	<circle cx="452.94" cy="103.31" data-y="52.86" data-x="1609200000" r="1" fill="white"><title>2020-12-29: 53</title></circle>
	<circle cx="454.36" cy="78.70" data-y="57.65" data-x="1609286400" r="1" fill="white"><title>2020-12-30: 58</title></circle>
	<circle cx="455.78" cy="72.47" data-y="58.86" data-x="1609372800" r="1" fill="white"><title>2020-12-31: 59</title></circle>
	<circle cx="457.20" cy="35.39" data-y="66.07" data-x="1609459200" r="1" fill="white"><title>2021-01-01: 66</title></circle>
	<circle cx="458.63" cy="28.23" data-y="67.47" data-x="1609545600" r="1" fill="white"><title>2021-01-02: 67</title></circle>
	<circle cx="460.05" cy="32.12" data-y="66.71" data-x="1609632000" r="1" fill="white"><title>2021-01-03: 67</title></circle>
	<circle cx="461.47" cy="24.64" data-y="68.16" data-x="1609718400" r="1" fill="white"><title>2021-01-04: 68</title></circle>
	<circle cx="462.89" cy="15.61" data-y="69.92" data-x="1609804800" r="1" fill="white"><title>2021-01-05: 70</title></circle>
</g>
<g data-series="recent-cases" class="data-series">
	<path d="M 462.89,15.61L 464.31,34.61L 465.73,73.25L 467.16,104.02L 468.58,144.04L 470.00,169.17" id="Recent cases" class="line" stroke-width="1" stroke-linecap="round" stroke-dasharray="4,6" stroke-dashoffset="4"><title>Recent cases</title></path>
	<circle cx="462.89" cy="15.61" data-y="69.92" data-x="1609804800" r="2.5" fill="white"><title>2021-01-05: 70</title></circle>
	<circle cx="464.31" cy="34.61" data-y="66.22" data-x="1609891200" r="2.5" fill="white"><title>2021-01-06: 66</title></circle>
	<circle cx="465.73" cy="73.25" data-y="58.71" data-x="1609977600" r="2.5" fill="white"><title>2021-01-07: 59</title></circle>
	<circle cx="467.16" cy="104.02" data-y="52.72" data-x="1610064000" r="2.5" fill="white"><title>2021-01-08: 53</title></circle>
	<circle cx="468.58" cy="144.04" data-y="44.94" data-x="1610150400" r="2.5" fill="white"><title>2021-01-09: 45</title></circle>
	<circle cx="470.00" cy="169.17" data-y="40.05" data-x="1610236800" r="2.5" fill="white"><title>2021-01-10: 40</title></circle>
</g>
</svg>
