<svg width="480" height="400" viewBox="0 0 480 400" xmlns="http://www.w3.org/2000/svg" style="overflow:display" preserveAspectRatio="xMinYMin meet" overflow="visible">
<defs>
	<style>
	.data-series path.line { fill-opacity: 0; stroke: black; }
	.data-series path.line.dotted { stroke-dasharray: 12 20 }
	.data-series:hover path.line, .data-series.on path.line { stroke-width: 1; }
	.data-series:hover circle, .data-series.on circle { display: inline; }
	.graph-grid { font-family: "Helvetica Neue",Helvetica,Arial,"Lucida Grande",sans-serif; }
	.graph-grid line { stroke: black; stroke-width: 1; stroke-linecap: round; }
	.graph-grid.graph-grid-x text { text-anchor: middle; dominant-baseline: hanging; transform: translateY(10px); }
	.graph-grid.graph-grid-y text { text-anchor: end; dominant-baseline: middle; transform: translateX(-10px); }
	</style>
</defs>
<g class="graph-grid graph-grid-y">
	<line x1="25.00" y1="375.00" x2="470.00" y2="375.00" data-left="25"></line>
	<text x="35" y="375" text-anchor="end">0</text>
	<text x="35" y="185.85109367024" text-anchor="end">50</text>
	<text style="text-anchor:middle;dominant-baseline:hanging;font-weight:bold;transform: translateY(192.5px) rotate(-90deg);"></text>
</g>
<g class="graph-grid graph-grid-x">
	<line class="tick" x1="57.31" y1="375.00" x2="57.31" y2="380.00"></line>
	<text x="57.3102310231023" y="375" text-anchor="middle">A</text>
	<line class="tick" x1="101.37" y1="375.00" x2="101.37" y2="380.00"></line>
	<text x="101.369636963696" y="375" text-anchor="middle">M</text>
	<line class="tick" x1="146.90" y1="375.00" x2="146.90" y2="380.00"></line>
	<text x="146.897689768977" y="375" text-anchor="middle">J</text>
	<line class="tick" x1="190.96" y1="375.00" x2="190.96" y2="380.00"></line>
	<text x="190.957095709571" y="375" text-anchor="middle">J</text>
	<line class="tick" x1="236.49" y1="375.00" x2="236.49" y2="380.00"></line>
	<text x="236.485148514851" y="375" text-anchor="middle">A</text>
	<line class="tick" x1="282.01" y1="375.00" x2="282.01" y2="380.00"></line>
	<text x="282.013201320132" y="375" text-anchor="middle">S</text>
	<line class="tick" x1="326.07" y1="375.00" x2="326.07" y2="380.00"></line>
	<text x="326.072607260726" y="375" text-anchor="middle">O</text>
	<line class="tick" x1="371.60" y1="375.00" x2="371.60" y2="380.00"></line>
	<text x="371.600660066007" y="375" text-anchor="middle">N</text>
	<line class="tick" x1="415.66" y1="375.00" x2="415.66" y2="380.00"></line>
	<text x="415.660066006601" y="375" text-anchor="middle">D</text>
	<line class="tick" x1="461.19" y1="375.00" x2="461.19" y2="380.00"></line>
	<text x="461.188118811881" y="375" text-anchor="middle">J</text>
	<text style="text-anchor:middle;dominant-baseline:hanging;font-weight:bold;transform: translateY(192.5px) rotate(-90deg);"></text>
</g>
<g data-series="widespread" class="data-series">
	<path d="M 25.00,348.52L 470.00,348.52" id="E06000056-level-0" class="line" stroke-width="1" stroke-linecap="round" stroke-dasharray="3,3" fill-opacity="0.3" opacity="0.3"><title>Widespread</title></path>
</g>
<g data-series="substantial" class="data-series">
	<path d="M 25.00,359.87L 470.00,359.87" id="E06000056-level-1" class="line" stroke-width="1" stroke-linecap="round" stroke-dasharray="3,3" fill-opacity="0.3" opacity="0.3"><title>Substantial</title></path>
</g>
<g data-series="moderate" class="data-series">
	<path d="M 25.00,371.22L 470.00,371.22" id="E06000056-level-2" class="line" stroke-width="1" stroke-linecap="round" stroke-dasharray="3,3" fill-opacity="0.3" opacity="0.3"><title>Moderate</title></path>
</g>
<g data-series="new-cases" class="data-series">
	<path d="M 25.00,373.04L 26.47,373.43L 27.94,372.61L 29.41,372.95L 30.87,373.32L 32.34,372.39L 33.81,371.65L 35.28,371.83L 36.75,371.27L 38.22,371.09L 39.69,369.22L 41.16,367.55L 42.62,367.55L 44.09,366.80L 45.56,364.94L 47.03,363.63L 48.50,363.82L 49.97,363.63L 51.44,361.77L 52.90,360.09L 54.37,357.49L 55.84,357.11L 57.31,356.74L 58.78,354.69L 60.25,353.01L 61.72,353.20L 63.18,353.01L 64.65,353.95L 66.12,353.20L 67.59,352.83L 69.06,352.46L 70.53,354.50L 72.00,354.88L 73.47,354.88L 74.93,356.37L 76.40,355.25L 77.87,355.25L 79.34,357.30L 80.81,356.55L 82.28,353.95L 83.75,352.27L 85.21,349.10L 86.68,350.59L 88.15,348.54L 89.62,347.42L 91.09,343.70L 92.56,347.61L 94.03,349.66L 95.50,352.27L 96.96,350.96L 98.43,351.15L 99.90,352.08L 101.37,354.32L 102.84,354.50L 104.31,354.50L 105.78,354.32L 107.24,356.93L 108.71,360.47L 110.18,360.09L 111.65,361.77L 113.12,360.09L 114.59,358.23L 116.06,357.86L 117.52,357.49L 118.99,357.11L 120.46,357.67L 121.93,356.93L 123.40,357.30L 124.87,360.84L 126.34,361.21L 127.81,361.77L 129.27,361.03L 130.74,360.84L 132.21,361.40L 133.68,361.03L 135.15,359.35L 136.62,357.67L 138.09,355.62L 139.55,357.11L 141.02,356.37L 142.49,357.49L 143.96,359.35L 145.43,360.28L 146.90,363.08L 148.37,365.31L 149.83,363.82L 151.30,365.87L 152.77,365.87L 154.24,365.50L 155.71,365.31L 157.18,365.50L 158.65,366.24L 160.12,366.43L 161.58,365.68L 163.05,365.31L 164.52,365.87L 165.99,365.50L 167.46,365.13L 168.93,364.38L 170.40,365.87L 171.86,365.68L 173.33,366.24L 174.80,366.43L 176.27,367.92L 177.74,369.22L 179.21,370.34L 180.68,370.71L 182.15,370.90L 183.61,371.65L 185.08,372.21L 186.55,372.39L 188.02,371.83L 189.49,371.46L 190.96,371.09L 192.43,372.02L 193.89,371.65L 195.36,371.65L 196.83,371.83L 198.30,372.39L 199.77,372.39L 201.24,372.58L 202.71,372.39L 204.17,372.02L 205.64,371.83L 207.11,371.65L 208.58,371.46L 210.05,371.27L 211.52,371.27L 212.99,371.46L 214.46,371.27L 215.92,371.83L 217.39,372.02L 218.86,372.21L 220.33,372.58L 221.80,372.76L 223.27,372.39L 224.74,373.70L 226.20,373.51L 227.67,372.39L 229.14,372.21L 230.61,372.21L 232.08,371.83L 233.55,372.02L 235.02,371.83L 236.49,371.65L 237.95,372.58L 239.42,372.76L 240.89,372.58L 242.36,372.95L 243.83,373.14L 245.30,372.76L 246.77,372.58L 248.23,371.65L 249.70,371.09L 251.17,371.27L 252.64,370.90L 254.11,370.71L 255.58,370.53L 257.05,370.71L 258.51,372.02L 259.98,372.21L 261.45,372.02L 262.92,371.46L 264.39,370.90L 265.86,370.53L 267.33,370.34L 268.80,370.16L 270.26,369.97L 271.73,370.16L 273.20,370.90L 274.67,370.71L 276.14,371.27L 277.61,371.27L 279.08,369.97L 280.54,369.22L 282.01,368.85L 283.48,368.11L 284.95,368.67L 286.42,368.85L 287.89,368.29L 289.36,368.67L 290.83,368.67L 292.29,368.29L 293.76,367.73L 295.23,367.17L 296.70,366.80L 298.17,365.68L 299.64,365.50L 301.11,364.75L 302.57,362.33L 304.04,363.26L 305.51,362.33L 306.98,361.77L 308.45,362.52L 309.92,362.89L 311.39,363.08L 312.85,364.38L 314.32,364.01L 315.79,364.75L 317.26,363.26L 318.73,363.26L 320.20,361.58L 321.67,361.58L 323.14,361.40L 324.60,360.47L 326.07,358.42L 327.54,358.42L 329.01,356.74L 330.48,354.69L 331.95,354.13L 333.42,352.64L 334.88,351.90L 336.35,351.90L 337.82,348.54L 339.29,345.93L 340.76,346.68L 342.23,346.31L 343.70,345.19L 345.17,345.19L 346.63,344.44L 348.10,344.07L 349.57,346.49L 351.04,343.14L 352.51,336.62L 353.98,335.69L 355.45,333.82L 356.91,334.38L 358.38,333.45L 359.85,331.77L 361.32,332.33L 362.79,332.15L 364.26,328.23L 365.73,325.44L 367.19,323.39L 368.66,320.22L 370.13,313.89L 371.60,311.47L 373.07,315.38L 374.54,317.61L 376.01,316.31L 377.48,311.65L 378.94,308.11L 380.41,308.30L 381.88,306.25L 383.35,302.34L 384.82,301.22L 386.29,302.71L 387.76,307.55L 389.22,312.77L 390.69,314.26L 392.16,318.17L 393.63,323.76L 395.10,326.74L 396.57,331.03L 398.04,329.17L 399.50,333.08L 400.97,334.01L 402.44,334.01L 403.91,330.28L 405.38,331.77L 406.85,330.28L 408.32,332.33L 409.79,328.05L 411.25,329.17L 412.72,326.93L 414.19,326.18L 415.66,319.48L 417.13,314.63L 418.60,308.11L 420.07,295.44L 421.53,283.70L 423.00,274.57L 424.47,258.36L 425.94,243.27L 427.41,234.70L 428.88,224.08L 430.35,217.00L 431.82,206.75L 433.28,187.38L 434.75,174.71L 436.22,157.01L 437.69,147.32L 439.16,137.63L 440.63,117.88L 442.10,99.43L 443.56,85.65L 445.03,92.54L 446.50,123.28L 447.97,107.63L 449.44,92.17L 450.91,102.04L 452.38,52.48L 453.84,50.25L 455.31,40.74L 456.78,28.45L 458.25,24.91L 459.72,28.82L 461.19,10.00L 462.66,75.03" id="New cases" class="line" stroke-width="1" stroke-linecap="round"><title>New cases</title></path>
	<circle cx="25.00" cy="373.04" data-y="0.52" data-x="1583798400" r="1" fill="white"><title>2020-03-10: 1</title></circle>
	<circle cx="26.47" cy="373.43" data-y="0.41" data-x="1583884800" r="1" fill="white"><title>2020-03-11: 0</title></circle>
	<circle cx="27.94" cy="372.61" data-y="0.63" data-x="1583971200" r="1" fill="white"><title>2020-03-12: 1</title></circle>
	<circle cx="29.41" cy="372.95" data-y="0.54" data-x="1584057600" r="1" fill="white"><title>2020-03-13: 1</title></circle>
	<circle cx="30.87" cy="373.32" data-y="0.44" data-x="1584144000" r="1" fill="white"><title>2020-03-14: 0</title></circle>
	<circle cx="32.34" cy="372.39" data-y="0.69" data-x="1584230400" r="1" fill="white"><title>2020-03-15: 1</title></circle>
	<circle cx="33.81" cy="371.65" data-y="0.89" data-x="1584316800" r="1" fill="white"><title>2020-03-16: 1</title></circle>
	<circle cx="35.28" cy="371.83" data-y="0.84" data-x="1584403200" r="1" fill="white"><title>2020-03-17: 1</title></circle>
	<circle cx="36.75" cy="371.27" data-y="0.99" data-x="1584489600" r="1" fill="white"><title>2020-03-18: 1</title></circle>
	<circle cx="38.22" cy="371.09" data-y="1.03" data-x="1584576000" r="1" fill="white"><title>2020-03-19: 1</title></circle>
	<circle cx="39.69" cy="369.22" data-y="1.53" data-x="1584662400" r="1" fill="white"><title>2020-03-20: 2</title></circle>
	<circle cx="41.16" cy="367.55" data-y="1.97" data-x="1584748800" r="1" fill="white"><title>2020-03-21: 2</title></circle>
	<circle cx="42.62" cy="367.55" data-y="1.97" data-x="1584835200" r="1" fill="white"><title>2020-03-22: 2</title></circle>
	<circle cx="44.09" cy="366.80" data-y="2.17" data-x="1584921600" r="1" fill="white"><title>2020-03-23: 2</title></circle>
	<circle cx="45.56" cy="364.94" data-y="2.66" data-x="1585008000" r="1" fill="white"><title>2020-03-24: 3</title></circle>
	<circle cx="47.03" cy="363.63" data-y="3.00" data-x="1585094400" r="1" fill="white"><title>2020-03-25: 3</title></circle>
	<circle cx="48.50" cy="363.82" data-y="2.96" data-x="1585180800" r="1" fill="white"><title>2020-03-26: 3</title></circle>
	<circle cx="49.97" cy="363.63" data-y="3.00" data-x="1585267200" r="1" fill="white"><title>2020-03-27: 3</title></circle>
	<circle cx="51.44" cy="361.77" data-y="3.50" data-x="1585353600" r="1" fill="white"><title>2020-03-28: 3</title></circle>
	<circle cx="52.90" cy="360.09" data-y="3.94" data-x="1585440000" r="1" fill="white"><title>2020-03-29: 4</title></circle>
	<circle cx="54.37" cy="357.49" data-y="4.63" data-x="1585526400" r="1" fill="white"><title>2020-03-30: 5</title></circle>
	<circle cx="55.84" cy="357.11" data-y="4.73" data-x="1585612800" r="1" fill="white"><title>2020-03-31: 5</title></circle>
	<circle cx="57.31" cy="356.74" data-y="4.83" data-x="1585699200" r="1" fill="white"><title>2020-04-01: 5</title></circle>
	<circle cx="58.78" cy="354.69" data-y="5.37" data-x="1585785600" r="1" fill="white"><title>2020-04-02: 5</title></circle>
	<circle cx="60.25" cy="353.01" data-y="5.81" data-x="1585872000" r="1" fill="white"><title>2020-04-03: 6</title></circle>
	<circle cx="61.72" cy="353.20" data-y="5.76" data-x="1585958400" r="1" fill="white"><title>2020-04-04: 6</title></circle>
	<circle cx="63.18" cy="353.01" data-y="5.81" data-x="1586044800" r="1" fill="white"><title>2020-04-05: 6</title></circle>
	<circle cx="64.65" cy="353.95" data-y="5.57" data-x="1586131200" r="1" fill="white"><title>2020-04-06: 6</title></circle>
	<circle cx="66.12" cy="353.20" data-y="5.76" data-x="1586217600" r="1" fill="white"><title>2020-04-07: 6</title></circle>
	<circle cx="67.59" cy="352.83" data-y="5.86" data-x="1586304000" r="1" fill="white"><title>2020-04-08: 6</title></circle>
	<circle cx="69.06" cy="352.46" data-y="5.96" data-x="1586390400" r="1" fill="white"><title>2020-04-09: 6</title></circle>
	<circle cx="70.53" cy="354.50" data-y="5.42" data-x="1586476800" r="1" fill="white"><title>2020-04-10: 5</title></circle>
	<circle cx="72.00" cy="354.88" data-y="5.32" data-x="1586563200" r="1" fill="white"><title>2020-04-11: 5</title></circle>
	<circle cx="73.47" cy="354.88" data-y="5.32" data-x="1586649600" r="1" fill="white"><title>2020-04-12: 5</title></circle>
	<circle cx="74.93" cy="356.37" data-y="4.93" data-x="1586736000" r="1" fill="white"><title>2020-04-13: 5</title></circle>
	<circle cx="76.40" cy="355.25" data-y="5.22" data-x="1586822400" r="1" fill="white"><title>2020-04-14: 5</title></circle>
	<circle cx="77.87" cy="355.25" data-y="5.22" data-x="1586908800" r="1" fill="white"><title>2020-04-15: 5</title></circle>
	<circle cx="79.34" cy="357.30" data-y="4.68" data-x="1586995200" r="1" fill="white"><title>2020-04-16: 5</title></circle>
	<circle cx="80.81" cy="356.55" data-y="4.88" data-x="1587081600" r="1" fill="white"><title>2020-04-17: 5</title></circle>
	<circle cx="82.28" cy="353.95" data-y="5.57" data-x="1587168000" r="1" fill="white"><title>2020-04-18: 6</title></circle>
	<circle cx="83.75" cy="352.27" data-y="6.01" data-x="1587254400" r="1" fill="white"><title>2020-04-19: 6</title></circle>
	<circle cx="85.21" cy="349.10" data-y="6.85" data-x="1587340800" r="1" fill="white"><title>2020-04-20: 7</title></circle>
	<circle cx="86.68" cy="350.59" data-y="6.45" data-x="1587427200" r="1" fill="white"><title>2020-04-21: 6</title></circle>
	<circle cx="88.15" cy="348.54" data-y="6.99" data-x="1587513600" r="1" fill="white"><title>2020-04-22: 7</title></circle>
	<circle cx="89.62" cy="347.42" data-y="7.29" data-x="1587600000" r="1" fill="white"><title>2020-04-23: 7</title></circle>
	<circle cx="91.09" cy="343.70" data-y="8.27" data-x="1587686400" r="1" fill="white"><title>2020-04-24: 8</title></circle>
	<circle cx="92.56" cy="347.61" data-y="7.24" data-x="1587772800" r="1" fill="white"><title>2020-04-25: 7</title></circle>
	<circle cx="94.03" cy="349.66" data-y="6.70" data-x="1587859200" r="1" fill="white"><title>2020-04-26: 7</title></circle>
	<circle cx="95.50" cy="352.27" data-y="6.01" data-x="1587945600" r="1" fill="white"><title>2020-04-27: 6</title></circle>
	<circle cx="96.96" cy="350.96" data-y="6.35" data-x="1588032000" r="1" fill="white"><title>2020-04-28: 6</title></circle>
	<circle cx="98.43" cy="351.15" data-y="6.30" data-x="1588118400" r="1" fill="white"><title>2020-04-29: 6</title></circle>
	<circle cx="99.90" cy="352.08" data-y="6.06" data-x="1588204800" r="1" fill="white"><title>2020-04-30: 6</title></circle>
	<circle cx="101.37" cy="354.32" data-y="5.47" data-x="1588291200" r="1" fill="white"><title>2020-05-01: 5</title></circle>
	<circle cx="102.84" cy="354.50" data-y="5.42" data-x="1588377600" r="1" fill="white"><title>2020-05-02: 5</title></circle>
	<circle cx="104.31" cy="354.50" data-y="5.42" data-x="1588464000" r="1" fill="white"><title>2020-05-03: 5</title></circle>
	<circle cx="105.78" cy="354.32" data-y="5.47" data-x="1588550400" r="1" fill="white"><title>2020-05-04: 5</title></circle>
	<circle cx="107.24" cy="356.93" data-y="4.78" data-x="1588636800" r="1" fill="white"><title>2020-05-05: 5</title></circle>
	<circle cx="108.71" cy="360.47" data-y="3.84" data-x="1588723200" r="1" fill="white"><title>2020-05-06: 4</title></circle>
	<circle cx="110.18" cy="360.09" data-y="3.94" data-x="1588809600" r="1" fill="white"><title>2020-05-07: 4</title></circle>
	<circle cx="111.65" cy="361.77" data-y="3.50" data-x="1588896000" r="1" fill="white"><title>2020-05-08: 3</title></circle>
	<circle cx="113.12" cy="360.09" data-y="3.94" data-x="1588982400" r="1" fill="white"><title>2020-05-09: 4</title></circle>
	<circle cx="114.59" cy="358.23" data-y="4.43" data-x="1589068800" r="1" fill="white"><title>2020-05-10: 4</title></circle>
	<circle cx="116.06" cy="357.86" data-y="4.53" data-x="1589155200" r="1" fill="white"><title>2020-05-11: 5</title></circle>
	<circle cx="117.52" cy="357.49" data-y="4.63" data-x="1589241600" r="1" fill="white"><title>2020-05-12: 5</title></circle>
	<circle cx="118.99" cy="357.11" data-y="4.73" data-x="1589328000" r="1" fill="white"><title>2020-05-13: 5</title></circle>
	<circle cx="120.46" cy="357.67" data-y="4.58" data-x="1589414400" r="1" fill="white"><title>2020-05-14: 5</title></circle>
	<circle cx="121.93" cy="356.93" data-y="4.78" data-x="1589500800" r="1" fill="white"><title>2020-05-15: 5</title></circle>
	<circle cx="123.40" cy="357.30" data-y="4.68" data-x="1589587200" r="1" fill="white"><title>2020-05-16: 5</title></circle>
	<circle cx="124.87" cy="360.84" data-y="3.74" data-x="1589673600" r="1" fill="white"><title>2020-05-17: 4</title></circle>
	<circle cx="126.34" cy="361.21" data-y="3.64" data-x="1589760000" r="1" fill="white"><title>2020-05-18: 4</title></circle>
	<circle cx="127.81" cy="361.77" data-y="3.50" data-x="1589846400" r="1" fill="white"><title>2020-05-19: 3</title></circle>
	<circle cx="129.27" cy="361.03" data-y="3.69" data-x="1589932800" r="1" fill="white"><title>2020-05-20: 4</title></circle>
	<circle cx="130.74" cy="360.84" data-y="3.74" data-x="1590019200" r="1" fill="white"><title>2020-05-21: 4</title></circle>
	<circle cx="132.21" cy="361.40" data-y="3.60" data-x="1590105600" r="1" fill="white"><title>2020-05-22: 4</title></circle>
	<circle cx="133.68" cy="361.03" data-y="3.69" data-x="1590192000" r="1" fill="white"><title>2020-05-23: 4</title></circle>
	<circle cx="135.15" cy="359.35" data-y="4.14" data-x="1590278400" r="1" fill="white"><title>2020-05-24: 4</title></circle>
	<circle cx="136.62" cy="357.67" data-y="4.58" data-x="1590364800" r="1" fill="white"><title>2020-05-25: 5</title></circle>
	<circle cx="138.09" cy="355.62" data-y="5.12" data-x="1590451200" r="1" fill="white"><title>2020-05-26: 5</title></circle>
	<circle cx="139.55" cy="357.11" data-y="4.73" data-x="1590537600" r="1" fill="white"><title>2020-05-27: 5</title></circle>
	<circle cx="141.02" cy="356.37" data-y="4.93" data-x="1590624000" r="1" fill="white"><title>2020-05-28: 5</title></circle>
	<circle cx="142.49" cy="357.49" data-y="4.63" data-x="1590710400" r="1" fill="white"><title>2020-05-29: 5</title></circle>
	<circle cx="143.96" cy="359.35" data-y="4.14" data-x="1590796800" r="1" fill="white"><title>2020-05-30: 4</title></circle>
	<circle cx="145.43" cy="360.28" data-y="3.89" data-x="1590883200" r="1" fill="white"><title>2020-05-31: 4</title></circle>
	<circle cx="146.90" cy="363.08" data-y="3.15" data-x="1590969600" r="1" fill="white"><title>2020-06-01: 3</title></circle>
	<circle cx="148.37" cy="365.31" data-y="2.56" data-x="1591056000" r="1" fill="white"><title>2020-06-02: 3</title></circle>
	<circle cx="149.83" cy="363.82" data-y="2.96" data-x="1591142400" r="1" fill="white"><title>2020-06-03: 3</title></circle>
	<circle cx="151.30" cy="365.87" data-y="2.41" data-x="1591228800" r="1" fill="white"><title>2020-06-04: 2</title></circle>
	<circle cx="152.77" cy="365.87" data-y="2.41" data-x="1591315200" r="1" fill="white"><title>2020-06-05: 2</title></circle>
	<circle cx="154.24" cy="365.50" data-y="2.51" data-x="1591401600" r="1" fill="white"><title>2020-06-06: 3</title></circle>
	<circle cx="155.71" cy="365.31" data-y="2.56" data-x="1591488000" r="1" fill="white"><title>2020-06-07: 3</title></circle>
	<circle cx="157.18" cy="365.50" data-y="2.51" data-x="1591574400" r="1" fill="white"><title>2020-06-08: 3</title></circle>
	<circle cx="158.65" cy="366.24" data-y="2.31" data-x="1591660800" r="1" fill="white"><title>2020-06-09: 2</title></circle>
	<circle cx="160.12" cy="366.43" data-y="2.27" data-x="1591747200" r="1" fill="white"><title>2020-06-10: 2</title></circle>
	<circle cx="161.58" cy="365.68" data-y="2.46" data-x="1591833600" r="1" fill="white"><title>2020-06-11: 2</title></circle>
	<circle cx="163.05" cy="365.31" data-y="2.56" data-x="1591920000" r="1" fill="white"><title>2020-06-12: 3</title></circle>
	<circle cx="164.52" cy="365.87" data-y="2.41" data-x="1592006400" r="1" fill="white"><title>2020-06-13: 2</title></circle>
	<circle cx="165.99" cy="365.50" data-y="2.51" data-x="1592092800" r="1" fill="white"><title>2020-06-14: 3</title></circle>
	<circle cx="167.46" cy="365.13" data-y="2.61" data-x="1592179200" r="1" fill="white"><title>2020-06-15: 3</title></circle>
	<circle cx="168.93" cy="364.38" data-y="2.81" data-x="1592265600" r="1" fill="white"><title>2020-06-16: 3</title></circle>
	<circle cx="170.40" cy="365.87" data-y="2.41" data-x="1592352000" r="1" fill="white"><title>2020-06-17: 2</title></circle>
	<circle cx="171.86" cy="365.68" data-y="2.46" data-x="1592438400" r="1" fill="white"><title>2020-06-18: 2</title></circle>
	<circle cx="173.33" cy="366.24" data-y="2.31" data-x="1592524800" r="1" fill="white"><title>2020-06-19: 2</title></circle>
	<circle cx="174.80" cy="366.43" data-y="2.27" data-x="1592611200" r="1" fill="white"><title>2020-06-20: 2</title></circle>
	<circle cx="176.27" cy="367.92" data-y="1.87" data-x="1592697600" r="1" fill="white"><title>2020-06-21: 2</title></circle>
	<circle cx="177.74" cy="369.22" data-y="1.53" data-x="1592784000" r="1" fill="white"><title>2020-06-22: 2</title></circle>
	<circle cx="179.21" cy="370.34" data-y="1.23" data-x="1592870400" r="1" fill="white"><title>2020-06-23: 1</title></circle>
	<circle cx="180.68" cy="370.71" data-y="1.13" data-x="1592956800" r="1" fill="white"><title>2020-06-24: 1</title></circle>
	<circle cx="182.15" cy="370.90" data-y="1.08" data-x="1593043200" r="1" fill="white"><title>2020-06-25: 1</title></circle>
	<circle cx="183.61" cy="371.65" data-y="0.89" data-x="1593129600" r="1" fill="white"><title>2020-06-26: 1</title></circle>
	<circle cx="185.08" cy="372.21" data-y="0.74" data-x="1593216000" r="1" fill="white"><title>2020-06-27: 1</title></circle>
	<circle cx="186.55" cy="372.39" data-y="0.69" data-x="1593302400" r="1" fill="white"><title>2020-06-28: 1</title></circle>
	<circle cx="188.02" cy="371.83" data-y="0.84" data-x="1593388800" r="1" fill="white"><title>2020-06-29: 1</title></circle>
	<circle cx="189.49" cy="371.46" data-y="0.94" data-x="1593475200" r="1" fill="white"><title>2020-06-30: 1</title></circle>
	<circle cx="190.96" cy="371.09" data-y="1.03" data-x="1593561600" r="1" fill="white"><title>2020-07-01: 1</title></circle>
	<circle cx="192.43" cy="372.02" data-y="0.79" data-x="1593648000" r="1" fill="white"><title>2020-07-02: 1</title></circle>
	<circle cx="193.89" cy="371.65" data-y="0.89" data-x="1593734400" r="1" fill="white"><title>2020-07-03: 1</title></circle>
	<circle cx="195.36" cy="371.65" data-y="0.89" data-x="1593820800" r="1" fill="white"><title>2020-07-04: 1</title></circle>
	<circle cx="196.83" cy="371.83" data-y="0.84" data-x="1593907200" r="1" fill="white"><title>2020-07-05: 1</title></circle>
	<circle cx="198.30" cy="372.39" data-y="0.69" data-x="1593993600" r="1" fill="white"><title>2020-07-06: 1</title></circle>
	<circle cx="199.77" cy="372.39" data-y="0.69" data-x="1594080000" r="1" fill="white"><title>2020-07-07: 1</title></circle>
	<circle cx="201.24" cy="372.58" data-y="0.64" data-x="1594166400" r="1" fill="white"><title>2020-07-08: 1</title></circle>
	<circle cx="202.71" cy="372.39" data-y="0.69" data-x="1594252800" r="1" fill="white"><title>2020-07-09: 1</title></circle>
	<circle cx="204.17" cy="372.02" data-y="0.79" data-x="1594339200" r="1" fill="white"><title>2020-07-10: 1</title></circle>
	<circle cx="205.64" cy="371.83" data-y="0.84" data-x="1594425600" r="1" fill="white"><title>2020-07-11: 1</title></circle>
	<circle cx="207.11" cy="371.65" data-y="0.89" data-x="1594512000" r="1" fill="white"><title>2020-07-12: 1</title></circle>
	<circle cx="208.58" cy="371.46" data-y="0.94" data-x="1594598400" r="1" fill="white"><title>2020-07-13: 1</title></circle>
	<circle cx="210.05" cy="371.27" data-y="0.99" data-x="1594684800" r="1" fill="white"><title>2020-07-14: 1</title></circle>
	<circle cx="211.52" cy="371.27" data-y="0.99" data-x="1594771200" r="1" fill="white"><title>2020-07-15: 1</title></circle>
	<circle cx="212.99" cy="371.46" data-y="0.94" data-x="1594857600" r="1" fill="white"><title>2020-07-16: 1</title></circle>
	<circle cx="214.46" cy="371.27" data-y="0.99" data-x="1594944000" r="1" fill="white"><title>2020-07-17: 1</title></circle>
	<circle cx="215.92" cy="371.83" data-y="0.84" data-x="1595030400" r="1" fill="white"><title>2020-07-18: 1</title></circle>
	<circle cx="217.39" cy="372.02" data-y="0.79" data-x="1595116800" r="1" fill="white"><title>2020-07-19: 1</title></circle>
	<circle cx="218.86" cy="372.21" data-y="0.74" data-x="1595203200" r="1" fill="white"><title>2020-07-20: 1</title></circle>
	<circle cx="220.33" cy="372.58" data-y="0.64" data-x="1595289600" r="1" fill="white"><title>2020-07-21: 1</title></circle>
	<circle cx="221.80" cy="372.76" data-y="0.59" data-x="1595376000" r="1" fill="white"><title>2020-07-22: 1</title></circle>
	<circle cx="223.27" cy="372.39" data-y="0.69" data-x="1595462400" r="1" fill="white"><title>2020-07-23: 1</title></circle>
	<circle cx="224.74" cy="373.70" data-y="0.34" data-x="1595548800" r="1" fill="white"><title>2020-07-24: 0</title></circle>
	<circle cx="226.20" cy="373.51" data-y="0.39" data-x="1595635200" r="1" fill="white"><title>2020-07-25: 0</title></circle>
	<circle cx="227.67" cy="372.39" data-y="0.69" data-x="1595721600" r="1" fill="white"><title>2020-07-26: 1</title></circle>
	<circle cx="229.14" cy="372.21" data-y="0.74" data-x="1595808000" r="1" fill="white"><title>2020-07-27: 1</title></circle>
	<circle cx="230.61" cy="372.21" data-y="0.74" data-x="1595894400" r="1" fill="white"><title>2020-07-28: 1</title></circle>
	<circle cx="232.08" cy="371.83" data-y="0.84" data-x="1595980800" r="1" fill="white"><title>2020-07-29: 1</title></circle>
	<circle cx="233.55" cy="372.02" data-y="0.79" data-x="1596067200" r="1" fill="white"><title>2020-07-30: 1</title></circle>
	<circle cx="235.02" cy="371.83" data-y="0.84" data-x="1596153600" r="1" fill="white"><title>2020-07-31: 1</title></circle>
	<circle cx="236.49" cy="371.65" data-y="0.89" data-x="1596240000" r="1" fill="white"><title>2020-08-01: 1</title></circle>
	<circle cx="237.95" cy="372.58" data-y="0.64" data-x="1596326400" r="1" fill="white"><title>2020-08-02: 1</title></circle>
	<circle cx="239.42" cy="372.76" data-y="0.59" data-x="1596412800" r="1" fill="white"><title>2020-08-03: 1</title></circle>
	<circle cx="240.89" cy="372.58" data-y="0.64" data-x="1596499200" r="1" fill="white"><title>2020-08-04: 1</title></circle>
	<circle cx="242.36" cy="372.95" data-y="0.54" data-x="1596585600" r="1" fill="white"><title>2020-08-05: 1</title></circle>
	<circle cx="243.83" cy="373.14" data-y="0.49" data-x="1596672000" r="1" fill="white"><title>2020-08-06: 0</title></circle>
	<circle cx="245.30" cy="372.76" data-y="0.59" data-x="1596758400" r="1" fill="white"><title>2020-08-07: 1</title></circle>
	<circle cx="246.77" cy="372.58" data-y="0.64" data-x="1596844800" r="1" fill="white"><title>2020-08-08: 1</title></circle>
	<circle cx="248.23" cy="371.65" data-y="0.89" data-x="1596931200" r="1" fill="white"><title>2020-08-09: 1</title></circle>
	<circle cx="249.70" cy="371.09" data-y="1.03" data-x="1597017600" r="1" fill="white"><title>2020-08-10: 1</title></circle>
	<circle cx="251.17" cy="371.27" data-y="0.99" data-x="1597104000" r="1" fill="white"><title>2020-08-11: 1</title></circle>
	<circle cx="252.64" cy="370.90" data-y="1.08" data-x="1597190400" r="1" fill="white"><title>2020-08-12: 1</title></circle>
	<circle cx="254.11" cy="370.71" data-y="1.13" data-x="1597276800" r="1" fill="white"><title>2020-08-13: 1</title></circle>
	<circle cx="255.58" cy="370.53" data-y="1.18" data-x="1597363200" r="1" fill="white"><title>2020-08-14: 1</title></circle>
	<circle cx="257.05" cy="370.71" data-y="1.13" data-x="1597449600" r="1" fill="white"><title>2020-08-15: 1</title></circle>
	<circle cx="258.51" cy="372.02" data-y="0.79" data-x="1597536000" r="1" fill="white"><title>2020-08-16: 1</title></circle>
	<circle cx="259.98" cy="372.21" data-y="0.74" data-x="1597622400" r="1" fill="white"><title>2020-08-17: 1</title></circle>
	<circle cx="261.45" cy="372.02" data-y="0.79" data-x="1597708800" r="1" fill="white"><title>2020-08-18: 1</title></circle>
	<circle cx="262.92" cy="371.46" data-y="0.94" data-x="1597795200" r="1" fill="white"><title>2020-08-19: 1</title></circle>
	<circle cx="264.39" cy="370.90" data-y="1.08" data-x="1597881600" r="1" fill="white"><title>2020-08-20: 1</title></circle>
	<circle cx="265.86" cy="370.53" data-y="1.18" data-x="1597968000" r="1" fill="white"><title>2020-08-21: 1</title></circle>
	<circle cx="267.33" cy="370.34" data-y="1.23" data-x="1598054400" r="1" fill="white"><title>2020-08-22: 1</title></circle>
	<circle cx="268.80" cy="370.16" data-y="1.28" data-x="1598140800" r="1" fill="white"><title>2020-08-23: 1</title></circle>
	<circle cx="270.26" cy="369.97" data-y="1.33" data-x="1598227200" r="1" fill="white"><title>2020-08-24: 1</title></circle>
	<circle cx="271.73" cy="370.16" data-y="1.28" data-x="1598313600" r="1" fill="white"><title>2020-08-25: 1</title></circle>
	<circle cx="273.20" cy="370.90" data-y="1.08" data-x="1598400000" r="1" fill="white"><title>2020-08-26: 1</title></circle>
	<circle cx="274.67" cy="370.71" data-y="1.13" data-x="1598486400" r="1" fill="white"><title>2020-08-27: 1</title></circle>
	<circle cx="276.14" cy="371.27" data-y="0.99" data-x="1598572800" r="1" fill="white"><title>2020-08-28: 1</title></circle>
	<circle cx="277.61" cy="371.27" data-y="0.99" data-x="1598659200" r="1" fill="white"><title>2020-08-29: 1</title></circle>
	<circle cx="279.08" cy="369.97" data-y="1.33" data-x="1598745600" r="1" fill="white"><title>2020-08-30: 1</title></circle>
	<circle cx="280.54" cy="369.22" data-y="1.53" data-x="1598832000" r="1" fill="white"><title>2020-08-31: 2</title></circle>
	<circle cx="282.01" cy="368.85" data-y="1.63" data-x="1598918400" r="1" fill="white"><title>2020-09-01: 2</title></circle>
	<circle cx="283.48" cy="368.11" data-y="1.82" data-x="1599004800" r="1" fill="white"><title>2020-09-02: 2</title></circle>
	<circle cx="284.95" cy="368.67" data-y="1.67" data-x="1599091200" r="1" fill="white"><title>2020-09-03: 2</title></circle>
	<circle cx="286.42" cy="368.85" data-y="1.63" data-x="1599177600" r="1" fill="white"><title>2020-09-04: 2</title></circle>
	<circle cx="287.89" cy="368.29" data-y="1.77" data-x="1599264000" r="1" fill="white"><title>2020-09-05: 2</title></circle>
	<circle cx="289.36" cy="368.67" data-y="1.67" data-x="1599350400" r="1" fill="white"><title>2020-09-06: 2</title></circle>
	<circle cx="290.83" cy="368.67" data-y="1.67" data-x="1599436800" r="1" fill="white"><title>2020-09-07: 2</title></circle>
	<circle cx="292.29" cy="368.29" data-y="1.77" data-x="1599523200" r="1" fill="white"><title>2020-09-08: 2</title></circle>
	<circle cx="293.76" cy="367.73" data-y="1.92" data-x="1599609600" r="1" fill="white"><title>2020-09-09: 2</title></circle>
	<circle cx="295.23" cy="367.17" data-y="2.07" data-x="1599696000" r="1" fill="white"><title>2020-09-10: 2</title></circle>
	<circle cx="296.70" cy="366.80" data-y="2.17" data-x="1599782400" r="1" fill="white"><title>2020-09-11: 2</title></circle>
	<circle cx="298.17" cy="365.68" data-y="2.46" data-x="1599868800" r="1" fill="white"><title>2020-09-12: 2</title></circle>
	<circle cx="299.64" cy="365.50" data-y="2.51" data-x="1599955200" r="1" fill="white"><title>2020-09-13: 3</title></circle>
	<circle cx="301.11" cy="364.75" data-y="2.71" data-x="1600041600" r="1" fill="white"><title>2020-09-14: 3</title></circle>
	<circle cx="302.57" cy="362.33" data-y="3.35" data-x="1600128000" r="1" fill="white"><title>2020-09-15: 3</title></circle>
	<circle cx="304.04" cy="363.26" data-y="3.10" data-x="1600214400" r="1" fill="white"><title>2020-09-16: 3</title></circle>
	<circle cx="305.51" cy="362.33" data-y="3.35" data-x="1600300800" r="1" fill="white"><title>2020-09-17: 3</title></circle>
	<circle cx="306.98" cy="361.77" data-y="3.50" data-x="1600387200" r="1" fill="white"><title>2020-09-18: 3</title></circle>
	<circle cx="308.45" cy="362.52" data-y="3.30" data-x="1600473600" r="1" fill="white"><title>2020-09-19: 3</title></circle>
	<circle cx="309.92" cy="362.89" data-y="3.20" data-x="1600560000" r="1" fill="white"><title>2020-09-20: 3</title></circle>
	<circle cx="311.39" cy="363.08" data-y="3.15" data-x="1600646400" r="1" fill="white"><title>2020-09-21: 3</title></circle>
	<circle cx="312.85" cy="364.38" data-y="2.81" data-x="1600732800" r="1" fill="white"><title>2020-09-22: 3</title></circle>
	<circle cx="314.32" cy="364.01" data-y="2.91" data-x="1600819200" r="1" fill="white"><title>2020-09-23: 3</title></circle>
	<circle cx="315.79" cy="364.75" data-y="2.71" data-x="1600905600" r="1" fill="white"><title>2020-09-24: 3</title></circle>
	<circle cx="317.26" cy="363.26" data-y="3.10" data-x="1600992000" r="1" fill="white"><title>2020-09-25: 3</title></circle>
	<circle cx="318.73" cy="363.26" data-y="3.10" data-x="1601078400" r="1" fill="white"><title>2020-09-26: 3</title></circle>
	<circle cx="320.20" cy="361.58" data-y="3.55" data-x="1601164800" r="1" fill="white"><title>2020-09-27: 4</title></circle>
	<circle cx="321.67" cy="361.58" data-y="3.55" data-x="1601251200" r="1" fill="white"><title>2020-09-28: 4</title></circle>
	<circle cx="323.14" cy="361.40" data-y="3.60" data-x="1601337600" r="1" fill="white"><title>2020-09-29: 4</title></circle>
	<circle cx="324.60" cy="360.47" data-y="3.84" data-x="1601424000" r="1" fill="white"><title>2020-09-30: 4</title></circle>
	<circle cx="326.07" cy="358.42" data-y="4.38" data-x="1601510400" r="1" fill="white"><title>2020-10-01: 4</title></circle>
	<circle cx="327.54" cy="358.42" data-y="4.38" data-x="1601596800" r="1" fill="white"><title>2020-10-02: 4</title></circle>
	<circle cx="329.01" cy="356.74" data-y="4.83" data-x="1601683200" r="1" fill="white"><title>2020-10-03: 5</title></circle>
	<circle cx="330.48" cy="354.69" data-y="5.37" data-x="1601769600" r="1" fill="white"><title>2020-10-04: 5</title></circle>
	<circle cx="331.95" cy="354.13" data-y="5.52" data-x="1601856000" r="1" fill="white"><title>2020-10-05: 6</title></circle>
	<circle cx="333.42" cy="352.64" data-y="5.91" data-x="1601942400" r="1" fill="white"><title>2020-10-06: 6</title></circle>
	<circle cx="334.88" cy="351.90" data-y="6.11" data-x="1602028800" r="1" fill="white"><title>2020-10-07: 6</title></circle>
	<circle cx="336.35" cy="351.90" data-y="6.11" data-x="1602115200" r="1" fill="white"><title>2020-10-08: 6</title></circle>
	<circle cx="337.82" cy="348.54" data-y="6.99" data-x="1602201600" r="1" fill="white"><title>2020-10-09: 7</title></circle>
	<circle cx="339.29" cy="345.93" data-y="7.68" data-x="1602288000" r="1" fill="white"><title>2020-10-10: 8</title></circle>
	<circle cx="340.76" cy="346.68" data-y="7.49" data-x="1602374400" r="1" fill="white"><title>2020-10-11: 7</title></circle>
	<circle cx="342.23" cy="346.31" data-y="7.58" data-x="1602460800" r="1" fill="white"><title>2020-10-12: 8</title></circle>
	<circle cx="343.70" cy="345.19" data-y="7.88" data-x="1602547200" r="1" fill="white"><title>2020-10-13: 8</title></circle>
	<circle cx="345.17" cy="345.19" data-y="7.88" data-x="1602633600" r="1" fill="white"><title>2020-10-14: 8</title></circle>
	<circle cx="346.63" cy="344.44" data-y="8.08" data-x="1602720000" r="1" fill="white"><title>2020-10-15: 8</title></circle>
	<circle cx="348.10" cy="344.07" data-y="8.18" data-x="1602806400" r="1" fill="white"><title>2020-10-16: 8</title></circle>
	<circle cx="349.57" cy="346.49" data-y="7.54" data-x="1602892800" r="1" fill="white"><title>2020-10-17: 8</title></circle>
	<circle cx="351.04" cy="343.14" data-y="8.42" data-x="1602979200" r="1" fill="white"><title>2020-10-18: 8</title></circle>
	<circle cx="352.51" cy="336.62" data-y="10.15" data-x="1603065600" r="1" fill="white"><title>2020-10-19: 10</title></circle>
	<circle cx="353.98" cy="335.69" data-y="10.39" data-x="1603152000" r="1" fill="white"><title>2020-10-20: 10</title></circle>
	<circle cx="355.45" cy="333.82" data-y="10.88" data-x="1603238400" r="1" fill="white"><title>2020-10-21: 11</title></circle>
	<circle cx="356.91" cy="334.38" data-y="10.74" data-x="1603324800" r="1" fill="white"><title>2020-10-22: 11</title></circle>
	<circle cx="358.38" cy="333.45" data-y="10.98" data-x="1603411200" r="1" fill="white"><title>2020-10-23: 11</title></circle>
	<circle cx="359.85" cy="331.77" data-y="11.43" data-x="1603497600" r="1" fill="white"><title>2020-10-24: 11</title></circle>
	<circle cx="361.32" cy="332.33" data-y="11.28" data-x="1603584000" r="1" fill="white"><title>2020-10-25: 11</title></circle>
	<circle cx="362.79" cy="332.15" data-y="11.33" data-x="1603670400" r="1" fill="white"><title>2020-10-26: 11</title></circle>
	<circle cx="364.26" cy="328.23" data-y="12.36" data-x="1603756800" r="1" fill="white"><title>2020-10-27: 12</title></circle>
	<circle cx="365.73" cy="325.44" data-y="13.10" data-x="1603843200" r="1" fill="white"><title>2020-10-28: 13</title></circle>
	<circle cx="367.19" cy="323.39" data-y="13.64" data-x="1603929600" r="1" fill="white"><title>2020-10-29: 14</title></circle>
	<circle cx="368.66" cy="320.22" data-y="14.48" data-x="1604016000" r="1" fill="white"><title>2020-10-30: 14</title></circle>
	<circle cx="370.13" cy="313.89" data-y="16.15" data-x="1604102400" r="1" fill="white"><title>2020-10-31: 16</title></circle>
	<circle cx="371.60" cy="311.47" data-y="16.79" data-x="1604188800" r="1" fill="white"><title>2020-11-01: 17</title></circle>
	<circle cx="373.07" cy="315.38" data-y="15.76" data-x="1604275200" r="1" fill="white"><title>2020-11-02: 16</title></circle>
	<circle cx="374.54" cy="317.61" data-y="15.17" data-x="1604361600" r="1" fill="white"><title>2020-11-03: 15</title></circle>
	<circle cx="376.01" cy="316.31" data-y="15.51" data-x="1604448000" r="1" fill="white"><title>2020-11-04: 16</title></circle>
	<circle cx="377.48" cy="311.65" data-y="16.75" data-x="1604534400" r="1" fill="white"><title>2020-11-05: 17</title></circle>
	<circle cx="378.94" cy="308.11" data-y="17.68" data-x="1604620800" r="1" fill="white"><title>2020-11-06: 18</title></circle>
	<circle cx="380.41" cy="308.30" data-y="17.63" data-x="1604707200" r="1" fill="white"><title>2020-11-07: 18</title></circle>
	<circle cx="381.88" cy="306.25" data-y="18.17" data-x="1604793600" r="1" fill="white"><title>2020-11-08: 18</title></circle>
	<circle cx="383.35" cy="302.34" data-y="19.21" data-x="1604880000" r="1" fill="white"><title>2020-11-09: 19</title></circle>
	<circle cx="384.82" cy="301.22" data-y="19.50" data-x="1604966400" r="1" fill="white"><title>2020-11-10: 20</title></circle>
	<circle cx="386.29" cy="302.71" data-y="19.11" data-x="1605052800" r="1" fill="white"><title>2020-11-11: 19</title></circle>
	<circle cx="387.76" cy="307.55" data-y="17.83" data-x="1605139200" r="1" fill="white"><title>2020-11-12: 18</title></circle>
	<circle cx="389.22" cy="312.77" data-y="16.45" data-x="1605225600" r="1" fill="white"><title>2020-11-13: 16</title></circle>
	<circle cx="390.69" cy="314.26" data-y="16.06" data-x="1605312000" r="1" fill="white"><title>2020-11-14: 16</title></circle>
	<circle cx="392.16" cy="318.17" data-y="15.02" data-x="1605398400" r="1" fill="white"><title>2020-11-15: 15</title></circle>
	<circle cx="393.63" cy="323.76" data-y="13.54" data-x="1605484800" r="1" fill="white"><title>2020-11-16: 14</title></circle>
	<circle cx="395.10" cy="326.74" data-y="12.76" data-x="1605571200" r="1" fill="white"><title>2020-11-17: 13</title></circle>
	<circle cx="396.57" cy="331.03" data-y="11.62" data-x="1605657600" r="1" fill="white"><title>2020-11-18: 12</title></circle>
	<circle cx="398.04" cy="329.17" data-y="12.12" data-x="1605744000" r="1" fill="white"><title>2020-11-19: 12</title></circle>
	<circle cx="399.50" cy="333.08" data-y="11.08" data-x="1605830400" r="1" fill="white"><title>2020-11-20: 11</title></circle>
	<circle cx="400.97" cy="334.01" data-y="10.84" data-x="1605916800" r="1" fill="white"><title>2020-11-21: 11</title></circle>
	<circle cx="402.44" cy="334.01" data-y="10.84" data-x="1606003200" r="1" fill="white"><title>2020-11-22: 11</title></circle>
	<circle cx="403.91" cy="330.28" data-y="11.82" data-x="1606089600" r="1" fill="white"><title>2020-11-23: 12</title></circle>
	<circle cx="405.38" cy="331.77" data-y="11.43" data-x="1606176000" r="1" fill="white"><title>2020-11-24: 11</title></circle>
	<circle cx="406.85" cy="330.28" data-y="11.82" data-x="1606262400" r="1" fill="white"><title>2020-11-25: 12</title></circle>
	<circle cx="408.32" cy="332.33" data-y="11.28" data-x="1606348800" r="1" fill="white"><title>2020-11-26: 11</title></circle>
	<circle cx="409.79" cy="328.05" data-y="12.41" data-x="1606435200" r="1" fill="white"><title>2020-11-27: 12</title></circle>
	<circle cx="411.25" cy="329.17" data-y="12.12" data-x="1606521600" r="1" fill="white"><title>2020-11-28: 12</title></circle>
	<circle cx="412.72" cy="326.93" data-y="12.71" data-x="1606608000" r="1" fill="white"><title>2020-11-29: 13</title></circle>
	<circle cx="414.19" cy="326.18" data-y="12.90" data-x="1606694400" r="1" fill="white"><title>2020-11-30: 13</title></circle>
	<circle cx="415.66" cy="319.48" data-y="14.68" data-x="1606780800" r="1" fill="white"><title>2020-12-01: 15</title></circle>
	<circle cx="417.13" cy="314.63" data-y="15.96" data-x="1606867200" r="1" fill="white"><title>2020-12-02: 16</title></circle>
	<circle cx="418.60" cy="308.11" data-y="17.68" data-x="1606953600" r="1" fill="white"><title>2020-12-03: 18</title></circle>
	<circle cx="420.07" cy="295.44" data-y="21.03" data-x="1607040000" r="1" fill="white"><title>2020-12-04: 21</title></circle>
	<circle cx="421.53" cy="283.70" data-y="24.13" data-x="1607126400" r="1" fill="white"><title>2020-12-05: 24</title></circle>
	<circle cx="423.00" cy="274.57" data-y="26.55" data-x="1607212800" r="1" fill="white"><title>2020-12-06: 27</title></circle>
	<circle cx="424.47" cy="258.36" data-y="30.83" data-x="1607299200" r="1" fill="white"><title>2020-12-07: 31</title></circle>
	<circle cx="425.94" cy="243.27" data-y="34.82" data-x="1607385600" r="1" fill="white"><title>2020-12-08: 35</title></circle>
	<circle cx="427.41" cy="234.70" data-y="37.09" data-x="1607472000" r="1" fill="white"><title>2020-12-09: 37</title></circle>
	<circle cx="428.88" cy="224.08" data-y="39.89" data-x="1607558400" r="1" fill="white"><title>2020-12-10: 40</title></circle>
	<circle cx="430.35" cy="217.00" data-y="41.77" data-x="1607644800" r="1" fill="white"><title>2020-12-11: 42</title></circle>
	<circle cx="431.82" cy="206.75" data-y="44.47" data-x="1607731200" r="1" fill="white"><title>2020-12-12: 44</title></circle>
	<circle cx="433.28" cy="187.38" data-y="49.60" data-x="1607817600" r="1" fill="white"><title>2020-12-13: 50</title></circle>
	<circle cx="434.75" cy="174.71" data-y="52.95" data-x="1607904000" r="1" fill="white"><title>2020-12-14: 53</title></circle>
	<circle cx="436.22" cy="157.01" data-y="57.62" data-x="1607990400" r="1" fill="white"><title>2020-12-15: 58</title></circle>
	<circle cx="437.69" cy="147.32" data-y="60.19" data-x="1608076800" r="1" fill="white"><title>2020-12-16: 60</title></circle>
	<circle cx="439.16" cy="137.63" data-y="62.75" data-x="1608163200" r="1" fill="white"><title>2020-12-17: 63</title></circle>
	<circle cx="440.63" cy="117.88" data-y="67.97" data-x="1608249600" r="1" fill="white"><title>2020-12-18: 68</title></circle>
	<circle cx="442.10" cy="99.43" data-y="72.84" data-x="1608336000" r="1" fill="white"><title>2020-12-19: 73</title></circle>
	<circle cx="443.56" cy="85.65" data-y="76.49" data-x="1608422400" r="1" fill="white"><title>2020-12-20: 76</title></circle>
	<circle cx="445.03" cy="92.54" data-y="74.67" data-x="1608508800" r="1" fill="white"><title>2020-12-21: 75</title></circle>
	<circle cx="446.50" cy="123.28" data-y="66.54" data-x="1608595200" r="1" fill="white"><title>2020-12-22: 67</title></circle>
	<circle cx="447.97" cy="107.63" data-y="70.68" data-x="1608681600" r="1" fill="white"><title>2020-12-23: 71</title></circle>
	<circle cx="449.44" cy="92.17" data-y="74.76" data-x="1608768000" r="1" fill="white"><title>2020-12-24: 75</title></circle>
	<circle cx="450.91" cy="102.04" data-y="72.15" data-x="1608854400" r="1" fill="white"><title>2020-12-25: 72</title></circle>
	<circle cx="452.38" cy="52.48" data-y="85.26" data-x="1608940800" r="1" fill="white"><title>2020-12-26: 85</title></circle>
	<circle cx="453.84" cy="50.25" data-y="85.85" data-x="1609027200" r="1" fill="white"><title>2020-12-27: 86</title></circle>
	<circle cx="455.31" cy="40.74" data-y="88.36" data-x="1609113600" r="1" fill="white"><title>2020-12-28: 88</title></circle>
	<circle cx="456.78" cy="28.45" data-y="91.61" data-x="1609200000" r="1" fill="white"><title>2020-12-29: 92</title></circle>
	<circle cx="458.25" cy="24.91" data-y="92.54" data-x="1609286400" r="1" fill="white"><title>2020-12-30: 93</title></circle>
	<circle cx="459.72" cy="28.82" data-y="91.51" data-x="1609372800" r="1" fill="white"><title>2020-12-31: 92</title></circle>
	<circle cx="461.19" cy="10.00" data-y="96.48" data-x="1609459200" r="1" fill="white"><title>2021-01-01: 96</title></circle>
	<circle cx="462.66" cy="75.03" data-y="79.30" data-x="1609545600" r="1" fill="white"><title>2021-01-02: 79</title></circle>
</g>
<g data-series="recent-cases" class="data-series">
	<path d="M 462.66,75.03L 464.13,107.07L 465.59,145.08L 467.06,136.32L 468.53,153.80L 470.00,174.47" id="Recent cases" class="line" stroke-width="1" stroke-linecap="round" stroke-dasharray="4,6" stroke-dashoffset="4"><title>Recent cases</title></path>
	<circle cx="462.66" cy="75.03" data-y="79.30" data-x="1609545600" r="2.5" fill="white"><title>2021-01-02: 79</title></circle>
	<circle cx="464.13" cy="107.07" data-y="70.82" data-x="1609632000" r="2.5" fill="white"><title>2021-01-03: 71</title></circle>
	<circle cx="465.59" cy="145.08" data-y="60.78" data-x="1609718400" r="2.5" fill="white"><title>2021-01-04: 61</title></circle>
	<circle cx="467.06" cy="136.32" data-y="63.09" data-x="1609804800" r="2.5" fill="white"><title>2021-01-05: 63</title></circle>
	<circle cx="468.53" cy="153.80" data-y="58.47" data-x="1609891200" r="2.5" fill="white"><title>2021-01-06: 58</title></circle>
	<circle cx="470.00" cy="174.47" data-y="53.01" data-x="1609977600" r="2.5" fill="white"><title>2021-01-07: 53</title></circle>
</g>
</svg>
