<svg width="480" height="400" viewBox="0 0 480 400" xmlns="http://www.w3.org/2000/svg" style="overflow:display" preserveAspectRatio="xMinYMin meet" overflow="visible">
<defs>
	<style>
	.data-series path.line { fill-opacity: 0; stroke: black; }
	.data-series path.line.dotted { stroke-dasharray: 12 20 }
	.data-series:hover path.line, .data-series.on path.line { stroke-width: 1; }
	.data-series:hover circle, .data-series.on circle { display: inline; }
	.graph-grid { font-family: "Helvetica Neue",Helvetica,Arial,"Lucida Grande",sans-serif; }
	.graph-grid line { stroke: black; stroke-width: 1; stroke-linecap: round; }
	.graph-grid.graph-grid-x text { text-anchor: middle; dominant-baseline: hanging; transform: translateY(10px); }
	.graph-grid.graph-grid-y text { text-anchor: end; dominant-baseline: middle; transform: translateX(-10px); }
	</style>
</defs>
<g class="graph-grid graph-grid-y">
	<line x1="25.00" y1="375.00" x2="470.00" y2="375.00" data-left="25"></line>
	<text x="35" y="375" text-anchor="end">0</text>
	<text x="35" y="272.92088172043" text-anchor="end">50</text>
	<text x="35" y="170.84176344086" text-anchor="end">100</text>
	<text x="35" y="68.7626451612903" text-anchor="end">150</text>
	<text style="text-anchor:middle;dominant-baseline:hanging;font-weight:bold;transform: translateY(192.5px) rotate(-90deg);"></text>
</g>
<g class="graph-grid graph-grid-x">
	<line class="tick" x1="43.48" y1="375.00" x2="43.48" y2="380.00"></line>
	<text x="43.482428115016" y="375" text-anchor="middle">A</text>
	<line class="tick" x1="86.13" y1="375.00" x2="86.13" y2="380.00"></line>
	<text x="86.1341853035144" y="375" text-anchor="middle">M</text>
	<line class="tick" x1="130.21" y1="375.00" x2="130.21" y2="380.00"></line>
	<text x="130.207667731629" y="375" text-anchor="middle">J</text>
	<line class="tick" x1="172.86" y1="375.00" x2="172.86" y2="380.00"></line>
	<text x="172.859424920128" y="375" text-anchor="middle">J</text>
	<line class="tick" x1="216.93" y1="375.00" x2="216.93" y2="380.00"></line>
	<text x="216.932907348243" y="375" text-anchor="middle">A</text>
	<line class="tick" x1="261.01" y1="375.00" x2="261.01" y2="380.00"></line>
	<text x="261.006389776358" y="375" text-anchor="middle">S</text>
	<line class="tick" x1="303.66" y1="375.00" x2="303.66" y2="380.00"></line>
	<text x="303.658146964856" y="375" text-anchor="middle">O</text>
	<line class="tick" x1="347.73" y1="375.00" x2="347.73" y2="380.00"></line>
	<text x="347.731629392971" y="375" text-anchor="middle">N</text>
	<line class="tick" x1="390.38" y1="375.00" x2="390.38" y2="380.00"></line>
	<text x="390.38338658147" y="375" text-anchor="middle">D</text>
	<line class="tick" x1="434.46" y1="375.00" x2="434.46" y2="380.00"></line>
	<text x="434.456869009585" y="375" text-anchor="middle">J</text>
	<text style="text-anchor:middle;dominant-baseline:hanging;font-weight:bold;transform: translateY(192.5px) rotate(-90deg);"></text>
</g>
<g data-series="widespread" class="data-series">
	<path d="M 25.00,360.71L 470.00,360.71" id="E07000076-level-0" class="line" stroke-width="1" stroke-linecap="round" stroke-dasharray="3,3" fill-opacity="0.3" opacity="0.3"><title>Widespread</title></path>
</g>
<g data-series="substantial" class="data-series">
	<path d="M 25.00,366.83L 470.00,366.83" id="E07000076-level-1" class="line" stroke-width="1" stroke-linecap="round" stroke-dasharray="3,3" fill-opacity="0.3" opacity="0.3"><title>Substantial</title></path>
</g>
<g data-series="moderate" class="data-series">
	<path d="M 25.00,372.96L 470.00,372.96" id="E07000076-level-2" class="line" stroke-width="1" stroke-linecap="round" stroke-dasharray="3,3" fill-opacity="0.3" opacity="0.3"><title>Moderate</title></path>
</g>
<g data-series="new-cases" class="data-series">
	<path d="M 25.00,371.22L 26.42,369.51L 27.84,370.19L 29.27,370.09L 30.69,368.92L 32.11,367.94L 33.53,368.72L 34.95,368.72L 36.37,370.29L 37.80,369.51L 39.22,368.72L 40.64,367.94L 42.06,367.35L 43.48,366.17L 44.90,365.78L 46.33,365.38L 47.75,364.99L 49.17,365.19L 50.59,366.17L 52.01,366.76L 53.43,366.56L 54.86,366.37L 56.28,364.99L 57.70,366.17L 59.12,364.99L 60.54,364.60L 61.96,364.60L 63.39,362.24L 64.81,360.87L 66.23,359.89L 67.65,358.12L 69.07,356.75L 70.50,356.36L 71.92,353.41L 73.34,354.98L 74.76,355.77L 76.18,356.75L 77.60,356.95L 79.03,357.93L 80.45,357.14L 81.87,359.69L 83.29,360.67L 84.71,359.10L 86.13,359.69L 87.56,359.50L 88.98,360.67L 90.40,362.05L 91.82,362.44L 93.24,363.42L 94.66,366.56L 96.09,362.83L 97.51,363.62L 98.93,362.44L 100.35,362.83L 101.77,363.42L 103.19,362.44L 104.62,362.05L 106.04,364.80L 107.46,364.99L 108.88,363.23L 110.30,362.24L 111.73,359.30L 113.15,360.28L 114.57,360.09L 115.99,362.05L 117.41,362.44L 118.83,366.56L 120.26,368.13L 121.68,371.47L 123.10,371.47L 124.52,372.06L 125.94,372.06L 127.36,371.27L 128.79,370.68L 130.21,370.88L 131.63,371.08L 133.05,371.47L 134.47,371.66L 135.89,372.06L 137.32,373.23L 138.74,374.22L 140.16,374.41L 141.58,374.41L 143.00,374.22L 144.42,374.22L 145.85,374.02L 147.27,374.02L 148.69,374.22L 150.11,374.22L 151.53,374.22L 152.96,374.41L 154.38,374.41L 155.80,374.61L 157.22,374.61L 158.64,374.61L 160.06,374.61L 161.49,374.80L 162.91,374.80L 164.33,374.80L 165.75,374.80L 167.17,375.00L 168.59,374.61L 170.02,374.41L 171.44,374.41L 172.86,374.41L 174.28,374.22L 175.70,374.02L 177.12,373.82L 178.55,374.22L 179.97,374.41L 181.39,374.22L 182.81,374.02L 184.23,374.22L 185.65,374.02L 187.08,374.22L 188.50,373.04L 189.92,372.84L 191.34,373.04L 192.76,373.04L 194.19,372.84L 195.61,371.86L 197.03,371.27L 198.45,372.06L 199.87,371.47L 201.29,371.27L 202.72,371.08L 204.14,371.27L 205.56,372.65L 206.98,373.23L 208.40,373.23L 209.82,373.82L 211.25,373.63L 212.67,374.02L 214.09,373.82L 215.51,373.63L 216.93,373.43L 218.35,373.43L 219.78,373.63L 221.20,373.82L 222.62,373.82L 224.04,374.02L 225.46,374.02L 226.88,374.22L 228.31,374.41L 229.73,374.22L 231.15,374.41L 232.57,374.41L 233.99,374.41L 235.42,374.02L 236.84,373.82L 238.26,373.82L 239.68,373.43L 241.10,373.43L 242.52,373.43L 243.95,373.43L 245.37,373.82L 246.79,374.02L 248.21,374.22L 249.63,374.80L 251.05,374.61L 252.48,374.41L 253.90,374.41L 255.32,374.61L 256.74,374.61L 258.16,374.22L 259.58,374.02L 261.01,374.22L 262.43,374.41L 263.85,374.41L 265.27,374.41L 266.69,374.22L 268.12,374.41L 269.54,374.61L 270.96,374.61L 272.38,374.41L 273.80,374.22L 275.22,373.63L 276.65,373.63L 278.07,372.84L 279.49,372.65L 280.91,372.65L 282.33,372.45L 283.75,372.65L 285.18,372.65L 286.60,372.65L 288.02,372.84L 289.44,371.86L 290.86,371.47L 292.28,371.08L 293.71,371.08L 295.13,371.08L 296.55,370.29L 297.97,370.09L 299.39,368.92L 300.81,368.13L 302.24,364.60L 303.66,362.83L 305.08,359.50L 306.50,354.98L 307.92,352.04L 309.35,349.69L 310.77,345.96L 312.19,348.70L 313.61,348.12L 315.03,347.13L 316.45,346.55L 317.88,346.35L 319.30,346.55L 320.72,347.53L 322.14,346.94L 323.56,346.55L 324.98,342.82L 326.41,345.17L 327.83,345.56L 329.25,345.96L 330.67,348.90L 332.09,349.49L 333.51,349.29L 334.94,354.98L 336.36,354.40L 337.78,356.95L 339.20,357.73L 340.62,356.55L 342.04,356.95L 343.47,358.32L 344.89,359.10L 346.31,360.09L 347.73,358.52L 349.15,357.73L 350.58,357.14L 352.00,357.14L 353.42,356.95L 354.84,355.97L 356.26,357.14L 357.68,357.14L 359.11,358.32L 360.53,358.91L 361.95,356.95L 363.37,356.75L 364.79,356.55L 366.21,354.79L 367.64,355.18L 369.06,354.00L 370.48,354.40L 371.90,356.55L 373.32,357.14L 374.74,357.73L 376.17,358.71L 377.59,356.55L 379.01,359.10L 380.43,357.93L 381.85,356.16L 383.27,355.97L 384.70,354.40L 386.12,354.00L 387.54,357.14L 388.96,354.40L 390.38,354.40L 391.81,354.20L 393.23,352.83L 394.65,350.47L 396.07,348.31L 397.49,345.76L 398.91,344.58L 400.34,343.01L 401.76,342.03L 403.18,341.44L 404.60,334.58L 406.02,323.19L 407.44,316.91L 408.87,309.46L 410.29,297.88L 411.71,295.72L 413.13,284.93L 414.55,276.10L 415.97,272.76L 417.40,262.36L 418.82,263.15L 420.24,275.12L 421.66,259.42L 423.08,249.41L 424.50,228.61L 425.93,192.70L 427.35,172.88L 428.77,154.23L 430.19,131.47L 431.61,99.29L 433.04,90.06L 434.46,31.78L 435.88,40.61L 437.30,35.90L 438.72,23.54L 440.14,10.00L 441.57,34.33L 442.99,46.30L 444.41,92.62L 445.83,97.13L 447.25,105.37L 448.67,116.95L 450.10,119.30L 451.52,128.53L 452.94,133.63L 454.36,149.33L 455.78,160.71L 457.20,174.25L 458.63,182.69L 460.05,203.88L 461.47,212.91L 462.89,219.78" id="New cases" class="line" stroke-width="1" stroke-linecap="round"><title>New cases</title></path>
	<circle cx="25.00" cy="371.22" data-y="1.85" data-x="1584576000" r="1" fill="white"><title>2020-03-19: 2</title></circle>
	<circle cx="26.42" cy="369.51" data-y="2.69" data-x="1584662400" r="1" fill="white"><title>2020-03-20: 3</title></circle>
	<circle cx="27.84" cy="370.19" data-y="2.35" data-x="1584748800" r="1" fill="white"><title>2020-03-21: 2</title></circle>
	<circle cx="29.27" cy="370.09" data-y="2.40" data-x="1584835200" r="1" fill="white"><title>2020-03-22: 2</title></circle>
	<circle cx="30.69" cy="368.92" data-y="2.98" data-x="1584921600" r="1" fill="white"><title>2020-03-23: 3</title></circle>
	<circle cx="32.11" cy="367.94" data-y="3.46" data-x="1585008000" r="1" fill="white"><title>2020-03-24: 3</title></circle>
	<circle cx="33.53" cy="368.72" data-y="3.08" data-x="1585094400" r="1" fill="white"><title>2020-03-25: 3</title></circle>
	<circle cx="34.95" cy="368.72" data-y="3.08" data-x="1585180800" r="1" fill="white"><title>2020-03-26: 3</title></circle>
	<circle cx="36.37" cy="370.29" data-y="2.31" data-x="1585267200" r="1" fill="white"><title>2020-03-27: 2</title></circle>
	<circle cx="37.80" cy="369.51" data-y="2.69" data-x="1585353600" r="1" fill="white"><title>2020-03-28: 3</title></circle>
	<circle cx="39.22" cy="368.72" data-y="3.08" data-x="1585440000" r="1" fill="white"><title>2020-03-29: 3</title></circle>
	<circle cx="40.64" cy="367.94" data-y="3.46" data-x="1585526400" r="1" fill="white"><title>2020-03-30: 3</title></circle>
	<circle cx="42.06" cy="367.35" data-y="3.75" data-x="1585612800" r="1" fill="white"><title>2020-03-31: 4</title></circle>
	<circle cx="43.48" cy="366.17" data-y="4.33" data-x="1585699200" r="1" fill="white"><title>2020-04-01: 4</title></circle>
	<circle cx="44.90" cy="365.78" data-y="4.52" data-x="1585785600" r="1" fill="white"><title>2020-04-02: 5</title></circle>
	<circle cx="46.33" cy="365.38" data-y="4.71" data-x="1585872000" r="1" fill="white"><title>2020-04-03: 5</title></circle>
	<circle cx="47.75" cy="364.99" data-y="4.90" data-x="1585958400" r="1" fill="white"><title>2020-04-04: 5</title></circle>
	<circle cx="49.17" cy="365.19" data-y="4.81" data-x="1586044800" r="1" fill="white"><title>2020-04-05: 5</title></circle>
	<circle cx="50.59" cy="366.17" data-y="4.33" data-x="1586131200" r="1" fill="white"><title>2020-04-06: 4</title></circle>
	<circle cx="52.01" cy="366.76" data-y="4.04" data-x="1586217600" r="1" fill="white"><title>2020-04-07: 4</title></circle>
	<circle cx="53.43" cy="366.56" data-y="4.13" data-x="1586304000" r="1" fill="white"><title>2020-04-08: 4</title></circle>
	<circle cx="54.86" cy="366.37" data-y="4.23" data-x="1586390400" r="1" fill="white"><title>2020-04-09: 4</title></circle>
	<circle cx="56.28" cy="364.99" data-y="4.90" data-x="1586476800" r="1" fill="white"><title>2020-04-10: 5</title></circle>
	<circle cx="57.70" cy="366.17" data-y="4.33" data-x="1586563200" r="1" fill="white"><title>2020-04-11: 4</title></circle>
	<circle cx="59.12" cy="364.99" data-y="4.90" data-x="1586649600" r="1" fill="white"><title>2020-04-12: 5</title></circle>
	<circle cx="60.54" cy="364.60" data-y="5.09" data-x="1586736000" r="1" fill="white"><title>2020-04-13: 5</title></circle>
	<circle cx="61.96" cy="364.60" data-y="5.09" data-x="1586822400" r="1" fill="white"><title>2020-04-14: 5</title></circle>
	<circle cx="63.39" cy="362.24" data-y="6.25" data-x="1586908800" r="1" fill="white"><title>2020-04-15: 6</title></circle>
	<circle cx="64.81" cy="360.87" data-y="6.92" data-x="1586995200" r="1" fill="white"><title>2020-04-16: 7</title></circle>
	<circle cx="66.23" cy="359.89" data-y="7.40" data-x="1587081600" r="1" fill="white"><title>2020-04-17: 7</title></circle>
	<circle cx="67.65" cy="358.12" data-y="8.27" data-x="1587168000" r="1" fill="white"><title>2020-04-18: 8</title></circle>
	<circle cx="69.07" cy="356.75" data-y="8.94" data-x="1587254400" r="1" fill="white"><title>2020-04-19: 9</title></circle>
	<circle cx="70.50" cy="356.36" data-y="9.13" data-x="1587340800" r="1" fill="white"><title>2020-04-20: 9</title></circle>
	<circle cx="71.92" cy="353.41" data-y="10.57" data-x="1587427200" r="1" fill="white"><title>2020-04-21: 11</title></circle>
	<circle cx="73.34" cy="354.98" data-y="9.80" data-x="1587513600" r="1" fill="white"><title>2020-04-22: 10</title></circle>
	<circle cx="74.76" cy="355.77" data-y="9.42" data-x="1587600000" r="1" fill="white"><title>2020-04-23: 9</title></circle>
	<circle cx="76.18" cy="356.75" data-y="8.94" data-x="1587686400" r="1" fill="white"><title>2020-04-24: 9</title></circle>
	<circle cx="77.60" cy="356.95" data-y="8.84" data-x="1587772800" r="1" fill="white"><title>2020-04-25: 9</title></circle>
	<circle cx="79.03" cy="357.93" data-y="8.36" data-x="1587859200" r="1" fill="white"><title>2020-04-26: 8</title></circle>
	<circle cx="80.45" cy="357.14" data-y="8.75" data-x="1587945600" r="1" fill="white"><title>2020-04-27: 9</title></circle>
	<circle cx="81.87" cy="359.69" data-y="7.50" data-x="1588032000" r="1" fill="white"><title>2020-04-28: 7</title></circle>
	<circle cx="83.29" cy="360.67" data-y="7.02" data-x="1588118400" r="1" fill="white"><title>2020-04-29: 7</title></circle>
	<circle cx="84.71" cy="359.10" data-y="7.79" data-x="1588204800" r="1" fill="white"><title>2020-04-30: 8</title></circle>
	<circle cx="86.13" cy="359.69" data-y="7.50" data-x="1588291200" r="1" fill="white"><title>2020-05-01: 7</title></circle>
	<circle cx="87.56" cy="359.50" data-y="7.59" data-x="1588377600" r="1" fill="white"><title>2020-05-02: 8</title></circle>
	<circle cx="88.98" cy="360.67" data-y="7.02" data-x="1588464000" r="1" fill="white"><title>2020-05-03: 7</title></circle>
	<circle cx="90.40" cy="362.05" data-y="6.34" data-x="1588550400" r="1" fill="white"><title>2020-05-04: 6</title></circle>
	<circle cx="91.82" cy="362.44" data-y="6.15" data-x="1588636800" r="1" fill="white"><title>2020-05-05: 6</title></circle>
	<circle cx="93.24" cy="363.42" data-y="5.67" data-x="1588723200" r="1" fill="white"><title>2020-05-06: 6</title></circle>
	<circle cx="94.66" cy="366.56" data-y="4.13" data-x="1588809600" r="1" fill="white"><title>2020-05-07: 4</title></circle>
	<circle cx="96.09" cy="362.83" data-y="5.96" data-x="1588896000" r="1" fill="white"><title>2020-05-08: 6</title></circle>
	<circle cx="97.51" cy="363.62" data-y="5.57" data-x="1588982400" r="1" fill="white"><title>2020-05-09: 6</title></circle>
	<circle cx="98.93" cy="362.44" data-y="6.15" data-x="1589068800" r="1" fill="white"><title>2020-05-10: 6</title></circle>
	<circle cx="100.35" cy="362.83" data-y="5.96" data-x="1589155200" r="1" fill="white"><title>2020-05-11: 6</title></circle>
	<circle cx="101.77" cy="363.42" data-y="5.67" data-x="1589241600" r="1" fill="white"><title>2020-05-12: 6</title></circle>
	<circle cx="103.19" cy="362.44" data-y="6.15" data-x="1589328000" r="1" fill="white"><title>2020-05-13: 6</title></circle>
	<circle cx="104.62" cy="362.05" data-y="6.34" data-x="1589414400" r="1" fill="white"><title>2020-05-14: 6</title></circle>
	<circle cx="106.04" cy="364.80" data-y="5.00" data-x="1589500800" r="1" fill="white"><title>2020-05-15: 5</title></circle>
	<circle cx="107.46" cy="364.99" data-y="4.90" data-x="1589587200" r="1" fill="white"><title>2020-05-16: 5</title></circle>
	<circle cx="108.88" cy="363.23" data-y="5.77" data-x="1589673600" r="1" fill="white"><title>2020-05-17: 6</title></circle>
	<circle cx="110.30" cy="362.24" data-y="6.25" data-x="1589760000" r="1" fill="white"><title>2020-05-18: 6</title></circle>
	<circle cx="111.73" cy="359.30" data-y="7.69" data-x="1589846400" r="1" fill="white"><title>2020-05-19: 8</title></circle>
	<circle cx="113.15" cy="360.28" data-y="7.21" data-x="1589932800" r="1" fill="white"><title>2020-05-20: 7</title></circle>
	<circle cx="114.57" cy="360.09" data-y="7.31" data-x="1590019200" r="1" fill="white"><title>2020-05-21: 7</title></circle>
	<circle cx="115.99" cy="362.05" data-y="6.34" data-x="1590105600" r="1" fill="white"><title>2020-05-22: 6</title></circle>
	<circle cx="117.41" cy="362.44" data-y="6.15" data-x="1590192000" r="1" fill="white"><title>2020-05-23: 6</title></circle>
	<circle cx="118.83" cy="366.56" data-y="4.13" data-x="1590278400" r="1" fill="white"><title>2020-05-24: 4</title></circle>
	<circle cx="120.26" cy="368.13" data-y="3.36" data-x="1590364800" r="1" fill="white"><title>2020-05-25: 3</title></circle>
	<circle cx="121.68" cy="371.47" data-y="1.73" data-x="1590451200" r="1" fill="white"><title>2020-05-26: 2</title></circle>
	<circle cx="123.10" cy="371.47" data-y="1.73" data-x="1590537600" r="1" fill="white"><title>2020-05-27: 2</title></circle>
	<circle cx="124.52" cy="372.06" data-y="1.44" data-x="1590624000" r="1" fill="white"><title>2020-05-28: 1</title></circle>
	<circle cx="125.94" cy="372.06" data-y="1.44" data-x="1590710400" r="1" fill="white"><title>2020-05-29: 1</title></circle>
	<circle cx="127.36" cy="371.27" data-y="1.83" data-x="1590796800" r="1" fill="white"><title>2020-05-30: 2</title></circle>
	<circle cx="128.79" cy="370.68" data-y="2.11" data-x="1590883200" r="1" fill="white"><title>2020-05-31: 2</title></circle>
	<circle cx="130.21" cy="370.88" data-y="2.02" data-x="1590969600" r="1" fill="white"><title>2020-06-01: 2</title></circle>
	<circle cx="131.63" cy="371.08" data-y="1.92" data-x="1591056000" r="1" fill="white"><title>2020-06-02: 2</title></circle>
	<circle cx="133.05" cy="371.47" data-y="1.73" data-x="1591142400" r="1" fill="white"><title>2020-06-03: 2</title></circle>
	<circle cx="134.47" cy="371.66" data-y="1.63" data-x="1591228800" r="1" fill="white"><title>2020-06-04: 2</title></circle>
	<circle cx="135.89" cy="372.06" data-y="1.44" data-x="1591315200" r="1" fill="white"><title>2020-06-05: 1</title></circle>
	<circle cx="137.32" cy="373.23" data-y="0.87" data-x="1591401600" r="1" fill="white"><title>2020-06-06: 1</title></circle>
	<circle cx="138.74" cy="374.22" data-y="0.38" data-x="1591488000" r="1" fill="white"><title>2020-06-07: 0</title></circle>
	<circle cx="140.16" cy="374.41" data-y="0.29" data-x="1591574400" r="1" fill="white"><title>2020-06-08: 0</title></circle>
	<circle cx="141.58" cy="374.41" data-y="0.29" data-x="1591660800" r="1" fill="white"><title>2020-06-09: 0</title></circle>
	<circle cx="143.00" cy="374.22" data-y="0.38" data-x="1591747200" r="1" fill="white"><title>2020-06-10: 0</title></circle>
	<circle cx="144.42" cy="374.22" data-y="0.38" data-x="1591833600" r="1" fill="white"><title>2020-06-11: 0</title></circle>
	<circle cx="145.85" cy="374.02" data-y="0.48" data-x="1591920000" r="1" fill="white"><title>2020-06-12: 0</title></circle>
	<circle cx="147.27" cy="374.02" data-y="0.48" data-x="1592006400" r="1" fill="white"><title>2020-06-13: 0</title></circle>
	<circle cx="148.69" cy="374.22" data-y="0.38" data-x="1592092800" r="1" fill="white"><title>2020-06-14: 0</title></circle>
	<circle cx="150.11" cy="374.22" data-y="0.38" data-x="1592179200" r="1" fill="white"><title>2020-06-15: 0</title></circle>
	<circle cx="151.53" cy="374.22" data-y="0.38" data-x="1592265600" r="1" fill="white"><title>2020-06-16: 0</title></circle>
	<circle cx="152.96" cy="374.41" data-y="0.29" data-x="1592352000" r="1" fill="white"><title>2020-06-17: 0</title></circle>
	<circle cx="154.38" cy="374.41" data-y="0.29" data-x="1592438400" r="1" fill="white"><title>2020-06-18: 0</title></circle>
	<circle cx="155.80" cy="374.61" data-y="0.19" data-x="1592524800" r="1" fill="white"><title>2020-06-19: 0</title></circle>
	<circle cx="157.22" cy="374.61" data-y="0.19" data-x="1592611200" r="1" fill="white"><title>2020-06-20: 0</title></circle>
	<circle cx="158.64" cy="374.61" data-y="0.19" data-x="1592697600" r="1" fill="white"><title>2020-06-21: 0</title></circle>
	<circle cx="160.06" cy="374.61" data-y="0.19" data-x="1592784000" r="1" fill="white"><title>2020-06-22: 0</title></circle>
	<circle cx="161.49" cy="374.80" data-y="0.10" data-x="1592870400" r="1" fill="white"><title>2020-06-23: 0</title></circle>
	<circle cx="162.91" cy="374.80" data-y="0.10" data-x="1592956800" r="1" fill="white"><title>2020-06-24: 0</title></circle>
	<circle cx="164.33" cy="374.80" data-y="0.10" data-x="1593043200" r="1" fill="white"><title>2020-06-25: 0</title></circle>
	<circle cx="165.75" cy="374.80" data-y="0.10" data-x="1593129600" r="1" fill="white"><title>2020-06-26: 0</title></circle>
	<circle cx="167.17" cy="375.00" data-y="0.00" data-x="1593216000" r="1" fill="white"><title>2020-06-27: 0</title></circle>
	<circle cx="168.59" cy="374.61" data-y="0.19" data-x="1593302400" r="1" fill="white"><title>2020-06-28: 0</title></circle>
	<circle cx="170.02" cy="374.41" data-y="0.29" data-x="1593388800" r="1" fill="white"><title>2020-06-29: 0</title></circle>
	<circle cx="171.44" cy="374.41" data-y="0.29" data-x="1593475200" r="1" fill="white"><title>2020-06-30: 0</title></circle>
	<circle cx="172.86" cy="374.41" data-y="0.29" data-x="1593561600" r="1" fill="white"><title>2020-07-01: 0</title></circle>
	<circle cx="174.28" cy="374.22" data-y="0.38" data-x="1593648000" r="1" fill="white"><title>2020-07-02: 0</title></circle>
	<circle cx="175.70" cy="374.02" data-y="0.48" data-x="1593734400" r="1" fill="white"><title>2020-07-03: 0</title></circle>
	<circle cx="177.12" cy="373.82" data-y="0.58" data-x="1593820800" r="1" fill="white"><title>2020-07-04: 1</title></circle>
	<circle cx="178.55" cy="374.22" data-y="0.38" data-x="1593907200" r="1" fill="white"><title>2020-07-05: 0</title></circle>
	<circle cx="179.97" cy="374.41" data-y="0.29" data-x="1593993600" r="1" fill="white"><title>2020-07-06: 0</title></circle>
	<circle cx="181.39" cy="374.22" data-y="0.38" data-x="1594080000" r="1" fill="white"><title>2020-07-07: 0</title></circle>
	<circle cx="182.81" cy="374.02" data-y="0.48" data-x="1594166400" r="1" fill="white"><title>2020-07-08: 0</title></circle>
	<circle cx="184.23" cy="374.22" data-y="0.38" data-x="1594252800" r="1" fill="white"><title>2020-07-09: 0</title></circle>
	<circle cx="185.65" cy="374.02" data-y="0.48" data-x="1594339200" r="1" fill="white"><title>2020-07-10: 0</title></circle>
	<circle cx="187.08" cy="374.22" data-y="0.38" data-x="1594425600" r="1" fill="white"><title>2020-07-11: 0</title></circle>
	<circle cx="188.50" cy="373.04" data-y="0.96" data-x="1594512000" r="1" fill="white"><title>2020-07-12: 1</title></circle>
	<circle cx="189.92" cy="372.84" data-y="1.06" data-x="1594598400" r="1" fill="white"><title>2020-07-13: 1</title></circle>
	<circle cx="191.34" cy="373.04" data-y="0.96" data-x="1594684800" r="1" fill="white"><title>2020-07-14: 1</title></circle>
	<circle cx="192.76" cy="373.04" data-y="0.96" data-x="1594771200" r="1" fill="white"><title>2020-07-15: 1</title></circle>
	<circle cx="194.19" cy="372.84" data-y="1.06" data-x="1594857600" r="1" fill="white"><title>2020-07-16: 1</title></circle>
	<circle cx="195.61" cy="371.86" data-y="1.54" data-x="1594944000" r="1" fill="white"><title>2020-07-17: 2</title></circle>
	<circle cx="197.03" cy="371.27" data-y="1.83" data-x="1595030400" r="1" fill="white"><title>2020-07-18: 2</title></circle>
	<circle cx="198.45" cy="372.06" data-y="1.44" data-x="1595116800" r="1" fill="white"><title>2020-07-19: 1</title></circle>
	<circle cx="199.87" cy="371.47" data-y="1.73" data-x="1595203200" r="1" fill="white"><title>2020-07-20: 2</title></circle>
	<circle cx="201.29" cy="371.27" data-y="1.83" data-x="1595289600" r="1" fill="white"><title>2020-07-21: 2</title></circle>
	<circle cx="202.72" cy="371.08" data-y="1.92" data-x="1595376000" r="1" fill="white"><title>2020-07-22: 2</title></circle>
	<circle cx="204.14" cy="371.27" data-y="1.83" data-x="1595462400" r="1" fill="white"><title>2020-07-23: 2</title></circle>
	<circle cx="205.56" cy="372.65" data-y="1.15" data-x="1595548800" r="1" fill="white"><title>2020-07-24: 1</title></circle>
	<circle cx="206.98" cy="373.23" data-y="0.87" data-x="1595635200" r="1" fill="white"><title>2020-07-25: 1</title></circle>
	<circle cx="208.40" cy="373.23" data-y="0.87" data-x="1595721600" r="1" fill="white"><title>2020-07-26: 1</title></circle>
	<circle cx="209.82" cy="373.82" data-y="0.58" data-x="1595808000" r="1" fill="white"><title>2020-07-27: 1</title></circle>
	<circle cx="211.25" cy="373.63" data-y="0.67" data-x="1595894400" r="1" fill="white"><title>2020-07-28: 1</title></circle>
	<circle cx="212.67" cy="374.02" data-y="0.48" data-x="1595980800" r="1" fill="white"><title>2020-07-29: 0</title></circle>
	<circle cx="214.09" cy="373.82" data-y="0.58" data-x="1596067200" r="1" fill="white"><title>2020-07-30: 1</title></circle>
	<circle cx="215.51" cy="373.63" data-y="0.67" data-x="1596153600" r="1" fill="white"><title>2020-07-31: 1</title></circle>
	<circle cx="216.93" cy="373.43" data-y="0.77" data-x="1596240000" r="1" fill="white"><title>2020-08-01: 1</title></circle>
	<circle cx="218.35" cy="373.43" data-y="0.77" data-x="1596326400" r="1" fill="white"><title>2020-08-02: 1</title></circle>
	<circle cx="219.78" cy="373.63" data-y="0.67" data-x="1596412800" r="1" fill="white"><title>2020-08-03: 1</title></circle>
	<circle cx="221.20" cy="373.82" data-y="0.58" data-x="1596499200" r="1" fill="white"><title>2020-08-04: 1</title></circle>
	<circle cx="222.62" cy="373.82" data-y="0.58" data-x="1596585600" r="1" fill="white"><title>2020-08-05: 1</title></circle>
	<circle cx="224.04" cy="374.02" data-y="0.48" data-x="1596672000" r="1" fill="white"><title>2020-08-06: 0</title></circle>
	<circle cx="225.46" cy="374.02" data-y="0.48" data-x="1596758400" r="1" fill="white"><title>2020-08-07: 0</title></circle>
	<circle cx="226.88" cy="374.22" data-y="0.38" data-x="1596844800" r="1" fill="white"><title>2020-08-08: 0</title></circle>
	<circle cx="228.31" cy="374.41" data-y="0.29" data-x="1596931200" r="1" fill="white"><title>2020-08-09: 0</title></circle>
	<circle cx="229.73" cy="374.22" data-y="0.38" data-x="1597017600" r="1" fill="white"><title>2020-08-10: 0</title></circle>
	<circle cx="231.15" cy="374.41" data-y="0.29" data-x="1597104000" r="1" fill="white"><title>2020-08-11: 0</title></circle>
	<circle cx="232.57" cy="374.41" data-y="0.29" data-x="1597190400" r="1" fill="white"><title>2020-08-12: 0</title></circle>
	<circle cx="233.99" cy="374.41" data-y="0.29" data-x="1597276800" r="1" fill="white"><title>2020-08-13: 0</title></circle>
	<circle cx="235.42" cy="374.02" data-y="0.48" data-x="1597363200" r="1" fill="white"><title>2020-08-14: 0</title></circle>
	<circle cx="236.84" cy="373.82" data-y="0.58" data-x="1597449600" r="1" fill="white"><title>2020-08-15: 1</title></circle>
	<circle cx="238.26" cy="373.82" data-y="0.58" data-x="1597536000" r="1" fill="white"><title>2020-08-16: 1</title></circle>
	<circle cx="239.68" cy="373.43" data-y="0.77" data-x="1597622400" r="1" fill="white"><title>2020-08-17: 1</title></circle>
	<circle cx="241.10" cy="373.43" data-y="0.77" data-x="1597708800" r="1" fill="white"><title>2020-08-18: 1</title></circle>
	<circle cx="242.52" cy="373.43" data-y="0.77" data-x="1597795200" r="1" fill="white"><title>2020-08-19: 1</title></circle>
	<circle cx="243.95" cy="373.43" data-y="0.77" data-x="1597881600" r="1" fill="white"><title>2020-08-20: 1</title></circle>
	<circle cx="245.37" cy="373.82" data-y="0.58" data-x="1597968000" r="1" fill="white"><title>2020-08-21: 1</title></circle>
	<circle cx="246.79" cy="374.02" data-y="0.48" data-x="1598054400" r="1" fill="white"><title>2020-08-22: 0</title></circle>
	<circle cx="248.21" cy="374.22" data-y="0.38" data-x="1598140800" r="1" fill="white"><title>2020-08-23: 0</title></circle>
	<circle cx="249.63" cy="374.80" data-y="0.10" data-x="1598227200" r="1" fill="white"><title>2020-08-24: 0</title></circle>
	<circle cx="251.05" cy="374.61" data-y="0.19" data-x="1598313600" r="1" fill="white"><title>2020-08-25: 0</title></circle>
	<circle cx="252.48" cy="374.41" data-y="0.29" data-x="1598400000" r="1" fill="white"><title>2020-08-26: 0</title></circle>
	<circle cx="253.90" cy="374.41" data-y="0.29" data-x="1598486400" r="1" fill="white"><title>2020-08-27: 0</title></circle>
	<circle cx="255.32" cy="374.61" data-y="0.19" data-x="1598572800" r="1" fill="white"><title>2020-08-28: 0</title></circle>
	<circle cx="256.74" cy="374.61" data-y="0.19" data-x="1598659200" r="1" fill="white"><title>2020-08-29: 0</title></circle>
	<circle cx="258.16" cy="374.22" data-y="0.38" data-x="1598745600" r="1" fill="white"><title>2020-08-30: 0</title></circle>
	<circle cx="259.58" cy="374.02" data-y="0.48" data-x="1598832000" r="1" fill="white"><title>2020-08-31: 0</title></circle>
	<circle cx="261.01" cy="374.22" data-y="0.38" data-x="1598918400" r="1" fill="white"><title>2020-09-01: 0</title></circle>
	<circle cx="262.43" cy="374.41" data-y="0.29" data-x="1599004800" r="1" fill="white"><title>2020-09-02: 0</title></circle>
	<circle cx="263.85" cy="374.41" data-y="0.29" data-x="1599091200" r="1" fill="white"><title>2020-09-03: 0</title></circle>
	<circle cx="265.27" cy="374.41" data-y="0.29" data-x="1599177600" r="1" fill="white"><title>2020-09-04: 0</title></circle>
	<circle cx="266.69" cy="374.22" data-y="0.38" data-x="1599264000" r="1" fill="white"><title>2020-09-05: 0</title></circle>
	<circle cx="268.12" cy="374.41" data-y="0.29" data-x="1599350400" r="1" fill="white"><title>2020-09-06: 0</title></circle>
	<circle cx="269.54" cy="374.61" data-y="0.19" data-x="1599436800" r="1" fill="white"><title>2020-09-07: 0</title></circle>
	<circle cx="270.96" cy="374.61" data-y="0.19" data-x="1599523200" r="1" fill="white"><title>2020-09-08: 0</title></circle>
	<circle cx="272.38" cy="374.41" data-y="0.29" data-x="1599609600" r="1" fill="white"><title>2020-09-09: 0</title></circle>
	<circle cx="273.80" cy="374.22" data-y="0.38" data-x="1599696000" r="1" fill="white"><title>2020-09-10: 0</title></circle>
	<circle cx="275.22" cy="373.63" data-y="0.67" data-x="1599782400" r="1" fill="white"><title>2020-09-11: 1</title></circle>
	<circle cx="276.65" cy="373.63" data-y="0.67" data-x="1599868800" r="1" fill="white"><title>2020-09-12: 1</title></circle>
	<circle cx="278.07" cy="372.84" data-y="1.06" data-x="1599955200" r="1" fill="white"><title>2020-09-13: 1</title></circle>
	<circle cx="279.49" cy="372.65" data-y="1.15" data-x="1600041600" r="1" fill="white"><title>2020-09-14: 1</title></circle>
	<circle cx="280.91" cy="372.65" data-y="1.15" data-x="1600128000" r="1" fill="white"><title>2020-09-15: 1</title></circle>
	<circle cx="282.33" cy="372.45" data-y="1.25" data-x="1600214400" r="1" fill="white"><title>2020-09-16: 1</title></circle>
	<circle cx="283.75" cy="372.65" data-y="1.15" data-x="1600300800" r="1" fill="white"><title>2020-09-17: 1</title></circle>
	<circle cx="285.18" cy="372.65" data-y="1.15" data-x="1600387200" r="1" fill="white"><title>2020-09-18: 1</title></circle>
	<circle cx="286.60" cy="372.65" data-y="1.15" data-x="1600473600" r="1" fill="white"><title>2020-09-19: 1</title></circle>
	<circle cx="288.02" cy="372.84" data-y="1.06" data-x="1600560000" r="1" fill="white"><title>2020-09-20: 1</title></circle>
	<circle cx="289.44" cy="371.86" data-y="1.54" data-x="1600646400" r="1" fill="white"><title>2020-09-21: 2</title></circle>
	<circle cx="290.86" cy="371.47" data-y="1.73" data-x="1600732800" r="1" fill="white"><title>2020-09-22: 2</title></circle>
	<circle cx="292.28" cy="371.08" data-y="1.92" data-x="1600819200" r="1" fill="white"><title>2020-09-23: 2</title></circle>
	<circle cx="293.71" cy="371.08" data-y="1.92" data-x="1600905600" r="1" fill="white"><title>2020-09-24: 2</title></circle>
	<circle cx="295.13" cy="371.08" data-y="1.92" data-x="1600992000" r="1" fill="white"><title>2020-09-25: 2</title></circle>
	<circle cx="296.55" cy="370.29" data-y="2.31" data-x="1601078400" r="1" fill="white"><title>2020-09-26: 2</title></circle>
	<circle cx="297.97" cy="370.09" data-y="2.40" data-x="1601164800" r="1" fill="white"><title>2020-09-27: 2</title></circle>
	<circle cx="299.39" cy="368.92" data-y="2.98" data-x="1601251200" r="1" fill="white"><title>2020-09-28: 3</title></circle>
	<circle cx="300.81" cy="368.13" data-y="3.36" data-x="1601337600" r="1" fill="white"><title>2020-09-29: 3</title></circle>
	<circle cx="302.24" cy="364.60" data-y="5.09" data-x="1601424000" r="1" fill="white"><title>2020-09-30: 5</title></circle>
	<circle cx="303.66" cy="362.83" data-y="5.96" data-x="1601510400" r="1" fill="white"><title>2020-10-01: 6</title></circle>
	<circle cx="305.08" cy="359.50" data-y="7.59" data-x="1601596800" r="1" fill="white"><title>2020-10-02: 8</title></circle>
	<circle cx="306.50" cy="354.98" data-y="9.80" data-x="1601683200" r="1" fill="white"><title>2020-10-03: 10</title></circle>
	<circle cx="307.92" cy="352.04" data-y="11.25" data-x="1601769600" r="1" fill="white"><title>2020-10-04: 11</title></circle>
	<circle cx="309.35" cy="349.69" data-y="12.40" data-x="1601856000" r="1" fill="white"><title>2020-10-05: 12</title></circle>
	<circle cx="310.77" cy="345.96" data-y="14.23" data-x="1601942400" r="1" fill="white"><title>2020-10-06: 14</title></circle>
	<circle cx="312.19" cy="348.70" data-y="12.88" data-x="1602028800" r="1" fill="white"><title>2020-10-07: 13</title></circle>
	<circle cx="313.61" cy="348.12" data-y="13.17" data-x="1602115200" r="1" fill="white"><title>2020-10-08: 13</title></circle>
	<circle cx="315.03" cy="347.13" data-y="13.65" data-x="1602201600" r="1" fill="white"><title>2020-10-09: 14</title></circle>
	<circle cx="316.45" cy="346.55" data-y="13.94" data-x="1602288000" r="1" fill="white"><title>2020-10-10: 14</title></circle>
	<circle cx="317.88" cy="346.35" data-y="14.03" data-x="1602374400" r="1" fill="white"><title>2020-10-11: 14</title></circle>
	<circle cx="319.30" cy="346.55" data-y="13.94" data-x="1602460800" r="1" fill="white"><title>2020-10-12: 14</title></circle>
	<circle cx="320.72" cy="347.53" data-y="13.46" data-x="1602547200" r="1" fill="white"><title>2020-10-13: 13</title></circle>
	<circle cx="322.14" cy="346.94" data-y="13.75" data-x="1602633600" r="1" fill="white"><title>2020-10-14: 14</title></circle>
	<circle cx="323.56" cy="346.55" data-y="13.94" data-x="1602720000" r="1" fill="white"><title>2020-10-15: 14</title></circle>
	<circle cx="324.98" cy="342.82" data-y="15.76" data-x="1602806400" r="1" fill="white"><title>2020-10-16: 16</title></circle>
	<circle cx="326.41" cy="345.17" data-y="14.61" data-x="1602892800" r="1" fill="white"><title>2020-10-17: 15</title></circle>
	<circle cx="327.83" cy="345.56" data-y="14.42" data-x="1602979200" r="1" fill="white"><title>2020-10-18: 14</title></circle>
	<circle cx="329.25" cy="345.96" data-y="14.23" data-x="1603065600" r="1" fill="white"><title>2020-10-19: 14</title></circle>
	<circle cx="330.67" cy="348.90" data-y="12.78" data-x="1603152000" r="1" fill="white"><title>2020-10-20: 13</title></circle>
	<circle cx="332.09" cy="349.49" data-y="12.50" data-x="1603238400" r="1" fill="white"><title>2020-10-21: 12</title></circle>
	<circle cx="333.51" cy="349.29" data-y="12.59" data-x="1603324800" r="1" fill="white"><title>2020-10-22: 13</title></circle>
	<circle cx="334.94" cy="354.98" data-y="9.80" data-x="1603411200" r="1" fill="white"><title>2020-10-23: 10</title></circle>
	<circle cx="336.36" cy="354.40" data-y="10.09" data-x="1603497600" r="1" fill="white"><title>2020-10-24: 10</title></circle>
	<circle cx="337.78" cy="356.95" data-y="8.84" data-x="1603584000" r="1" fill="white"><title>2020-10-25: 9</title></circle>
	<circle cx="339.20" cy="357.73" data-y="8.46" data-x="1603670400" r="1" fill="white"><title>2020-10-26: 8</title></circle>
	<circle cx="340.62" cy="356.55" data-y="9.04" data-x="1603756800" r="1" fill="white"><title>2020-10-27: 9</title></circle>
	<circle cx="342.04" cy="356.95" data-y="8.84" data-x="1603843200" r="1" fill="white"><title>2020-10-28: 9</title></circle>
	<circle cx="343.47" cy="358.32" data-y="8.17" data-x="1603929600" r="1" fill="white"><title>2020-10-29: 8</title></circle>
	<circle cx="344.89" cy="359.10" data-y="7.79" data-x="1604016000" r="1" fill="white"><title>2020-10-30: 8</title></circle>
	<circle cx="346.31" cy="360.09" data-y="7.31" data-x="1604102400" r="1" fill="white"><title>2020-10-31: 7</title></circle>
	<circle cx="347.73" cy="358.52" data-y="8.07" data-x="1604188800" r="1" fill="white"><title>2020-11-01: 8</title></circle>
	<circle cx="349.15" cy="357.73" data-y="8.46" data-x="1604275200" r="1" fill="white"><title>2020-11-02: 8</title></circle>
	<circle cx="350.58" cy="357.14" data-y="8.75" data-x="1604361600" r="1" fill="white"><title>2020-11-03: 9</title></circle>
	<circle cx="352.00" cy="357.14" data-y="8.75" data-x="1604448000" r="1" fill="white"><title>2020-11-04: 9</title></circle>
	<circle cx="353.42" cy="356.95" data-y="8.84" data-x="1604534400" r="1" fill="white"><title>2020-11-05: 9</title></circle>
	<circle cx="354.84" cy="355.97" data-y="9.32" data-x="1604620800" r="1" fill="white"><title>2020-11-06: 9</title></circle>
	<circle cx="356.26" cy="357.14" data-y="8.75" data-x="1604707200" r="1" fill="white"><title>2020-11-07: 9</title></circle>
	<circle cx="357.68" cy="357.14" data-y="8.75" data-x="1604793600" r="1" fill="white"><title>2020-11-08: 9</title></circle>
	<circle cx="359.11" cy="358.32" data-y="8.17" data-x="1604880000" r="1" fill="white"><title>2020-11-09: 8</title></circle>
	<circle cx="360.53" cy="358.91" data-y="7.88" data-x="1604966400" r="1" fill="white"><title>2020-11-10: 8</title></circle>
	<circle cx="361.95" cy="356.95" data-y="8.84" data-x="1605052800" r="1" fill="white"><title>2020-11-11: 9</title></circle>
	<circle cx="363.37" cy="356.75" data-y="8.94" data-x="1605139200" r="1" fill="white"><title>2020-11-12: 9</title></circle>
	<circle cx="364.79" cy="356.55" data-y="9.04" data-x="1605225600" r="1" fill="white"><title>2020-11-13: 9</title></circle>
	<circle cx="366.21" cy="354.79" data-y="9.90" data-x="1605312000" r="1" fill="white"><title>2020-11-14: 10</title></circle>
	<circle cx="367.64" cy="355.18" data-y="9.71" data-x="1605398400" r="1" fill="white"><title>2020-11-15: 10</title></circle>
	<circle cx="369.06" cy="354.00" data-y="10.28" data-x="1605484800" r="1" fill="white"><title>2020-11-16: 10</title></circle>
	<circle cx="370.48" cy="354.40" data-y="10.09" data-x="1605571200" r="1" fill="white"><title>2020-11-17: 10</title></circle>
	<circle cx="371.90" cy="356.55" data-y="9.04" data-x="1605657600" r="1" fill="white"><title>2020-11-18: 9</title></circle>
	<circle cx="373.32" cy="357.14" data-y="8.75" data-x="1605744000" r="1" fill="white"><title>2020-11-19: 9</title></circle>
	<circle cx="374.74" cy="357.73" data-y="8.46" data-x="1605830400" r="1" fill="white"><title>2020-11-20: 8</title></circle>
	<circle cx="376.17" cy="358.71" data-y="7.98" data-x="1605916800" r="1" fill="white"><title>2020-11-21: 8</title></circle>
	<circle cx="377.59" cy="356.55" data-y="9.04" data-x="1606003200" r="1" fill="white"><title>2020-11-22: 9</title></circle>
	<circle cx="379.01" cy="359.10" data-y="7.79" data-x="1606089600" r="1" fill="white"><title>2020-11-23: 8</title></circle>
	<circle cx="380.43" cy="357.93" data-y="8.36" data-x="1606176000" r="1" fill="white"><title>2020-11-24: 8</title></circle>
	<circle cx="381.85" cy="356.16" data-y="9.23" data-x="1606262400" r="1" fill="white"><title>2020-11-25: 9</title></circle>
	<circle cx="383.27" cy="355.97" data-y="9.32" data-x="1606348800" r="1" fill="white"><title>2020-11-26: 9</title></circle>
	<circle cx="384.70" cy="354.40" data-y="10.09" data-x="1606435200" r="1" fill="white"><title>2020-11-27: 10</title></circle>
	<circle cx="386.12" cy="354.00" data-y="10.28" data-x="1606521600" r="1" fill="white"><title>2020-11-28: 10</title></circle>
	<circle cx="387.54" cy="357.14" data-y="8.75" data-x="1606608000" r="1" fill="white"><title>2020-11-29: 9</title></circle>
	<circle cx="388.96" cy="354.40" data-y="10.09" data-x="1606694400" r="1" fill="white"><title>2020-11-30: 10</title></circle>
	<circle cx="390.38" cy="354.40" data-y="10.09" data-x="1606780800" r="1" fill="white"><title>2020-12-01: 10</title></circle>
	<circle cx="391.81" cy="354.20" data-y="10.19" data-x="1606867200" r="1" fill="white"><title>2020-12-02: 10</title></circle>
	<circle cx="393.23" cy="352.83" data-y="10.86" data-x="1606953600" r="1" fill="white"><title>2020-12-03: 11</title></circle>
	<circle cx="394.65" cy="350.47" data-y="12.01" data-x="1607040000" r="1" fill="white"><title>2020-12-04: 12</title></circle>
	<circle cx="396.07" cy="348.31" data-y="13.07" data-x="1607126400" r="1" fill="white"><title>2020-12-05: 13</title></circle>
	<circle cx="397.49" cy="345.76" data-y="14.32" data-x="1607212800" r="1" fill="white"><title>2020-12-06: 14</title></circle>
	<circle cx="398.91" cy="344.58" data-y="14.90" data-x="1607299200" r="1" fill="white"><title>2020-12-07: 15</title></circle>
	<circle cx="400.34" cy="343.01" data-y="15.67" data-x="1607385600" r="1" fill="white"><title>2020-12-08: 16</title></circle>
	<circle cx="401.76" cy="342.03" data-y="16.15" data-x="1607472000" r="1" fill="white"><title>2020-12-09: 16</title></circle>
	<circle cx="403.18" cy="341.44" data-y="16.44" data-x="1607558400" r="1" fill="white"><title>2020-12-10: 16</title></circle>
	<circle cx="404.60" cy="334.58" data-y="19.80" data-x="1607644800" r="1" fill="white"><title>2020-12-11: 20</title></circle>
	<circle cx="406.02" cy="323.19" data-y="25.38" data-x="1607731200" r="1" fill="white"><title>2020-12-12: 25</title></circle>
	<circle cx="407.44" cy="316.91" data-y="28.45" data-x="1607817600" r="1" fill="white"><title>2020-12-13: 28</title></circle>
	<circle cx="408.87" cy="309.46" data-y="32.10" data-x="1607904000" r="1" fill="white"><title>2020-12-14: 32</title></circle>
	<circle cx="410.29" cy="297.88" data-y="37.78" data-x="1607990400" r="1" fill="white"><title>2020-12-15: 38</title></circle>
	<circle cx="411.71" cy="295.72" data-y="38.83" data-x="1608076800" r="1" fill="white"><title>2020-12-16: 39</title></circle>
	<circle cx="413.13" cy="284.93" data-y="44.12" data-x="1608163200" r="1" fill="white"><title>2020-12-17: 44</title></circle>
	<circle cx="414.55" cy="276.10" data-y="48.44" data-x="1608249600" r="1" fill="white"><title>2020-12-18: 48</title></circle>
	<circle cx="415.97" cy="272.76" data-y="50.08" data-x="1608336000" r="1" fill="white"><title>2020-12-19: 50</title></circle>
	<circle cx="417.40" cy="262.36" data-y="55.17" data-x="1608422400" r="1" fill="white"><title>2020-12-20: 55</title></circle>
	<circle cx="418.82" cy="263.15" data-y="54.79" data-x="1608508800" r="1" fill="white"><title>2020-12-21: 55</title></circle>
	<circle cx="420.24" cy="275.12" data-y="48.92" data-x="1608595200" r="1" fill="white"><title>2020-12-22: 49</title></circle>
	<circle cx="421.66" cy="259.42" data-y="56.61" data-x="1608681600" r="1" fill="white"><title>2020-12-23: 57</title></circle>
	<circle cx="423.08" cy="249.41" data-y="61.52" data-x="1608768000" r="1" fill="white"><title>2020-12-24: 62</title></circle>
	<circle cx="424.50" cy="228.61" data-y="71.71" data-x="1608854400" r="1" fill="white"><title>2020-12-25: 72</title></circle>
	<circle cx="425.93" cy="192.70" data-y="89.30" data-x="1608940800" r="1" fill="white"><title>2020-12-26: 89</title></circle>
	<circle cx="427.35" cy="172.88" data-y="99.00" data-x="1609027200" r="1" fill="white"><title>2020-12-27: 99</title></circle>
	<circle cx="428.77" cy="154.23" data-y="108.13" data-x="1609113600" r="1" fill="white"><title>2020-12-28: 108</title></circle>
	<circle cx="430.19" cy="131.47" data-y="119.28" data-x="1609200000" r="1" fill="white"><title>2020-12-29: 119</title></circle>
	<circle cx="431.61" cy="99.29" data-y="135.05" data-x="1609286400" r="1" fill="white"><title>2020-12-30: 135</title></circle>
	<circle cx="433.04" cy="90.06" data-y="139.57" data-x="1609372800" r="1" fill="white"><title>2020-12-31: 140</title></circle>
	<circle cx="434.46" cy="31.78" data-y="168.11" data-x="1609459200" r="1" fill="white"><title>2021-01-01: 168</title></circle>
	<circle cx="435.88" cy="40.61" data-y="163.79" data-x="1609545600" r="1" fill="white"><title>2021-01-02: 164</title></circle>
	<circle cx="437.30" cy="35.90" data-y="166.10" data-x="1609632000" r="1" fill="white"><title>2021-01-03: 166</title></circle>
	<circle cx="438.72" cy="23.54" data-y="172.15" data-x="1609718400" r="1" fill="white"><title>2021-01-04: 172</title></circle>
	<circle cx="440.14" cy="10.00" data-y="178.78" data-x="1609804800" r="1" fill="white"><title>2021-01-05: 179</title></circle>
	<circle cx="441.57" cy="34.33" data-y="166.86" data-x="1609891200" r="1" fill="white"><title>2021-01-06: 167</title></circle>
	<circle cx="442.99" cy="46.30" data-y="161.00" data-x="1609977600" r="1" fill="white"><title>2021-01-07: 161</title></circle>
	<circle cx="444.41" cy="92.62" data-y="138.32" data-x="1610064000" r="1" fill="white"><title>2021-01-08: 138</title></circle>
	<circle cx="445.83" cy="97.13" data-y="136.11" data-x="1610150400" r="1" fill="white"><title>2021-01-09: 136</title></circle>
	<circle cx="447.25" cy="105.37" data-y="132.07" data-x="1610236800" r="1" fill="white"><title>2021-01-10: 132</title></circle>
	<circle cx="448.67" cy="116.95" data-y="126.40" data-x="1610323200" r="1" fill="white"><title>2021-01-11: 126</title></circle>
	<circle cx="450.10" cy="119.30" data-y="125.24" data-x="1610409600" r="1" fill="white"><title>2021-01-12: 125</title></circle>
	<circle cx="451.52" cy="128.53" data-y="120.73" data-x="1610496000" r="1" fill="white"><title>2021-01-13: 121</title></circle>
	<circle cx="452.94" cy="133.63" data-y="118.23" data-x="1610582400" r="1" fill="white"><title>2021-01-14: 118</title></circle>
	<circle cx="454.36" cy="149.33" data-y="110.54" data-x="1610668800" r="1" fill="white"><title>2021-01-15: 111</title></circle>
	<circle cx="455.78" cy="160.71" data-y="104.96" data-x="1610755200" r="1" fill="white"><title>2021-01-16: 105</title></circle>
	<circle cx="457.20" cy="174.25" data-y="98.33" data-x="1610841600" r="1" fill="white"><title>2021-01-17: 98</title></circle>
	<circle cx="458.63" cy="182.69" data-y="94.20" data-x="1610928000" r="1" fill="white"><title>2021-01-18: 94</title></circle>
	<circle cx="460.05" cy="203.88" data-y="83.82" data-x="1611014400" r="1" fill="white"><title>2021-01-19: 84</title></circle>
	<circle cx="461.47" cy="212.91" data-y="79.39" data-x="1611100800" r="1" fill="white"><title>2021-01-20: 79</title></circle>
	<circle cx="462.89" cy="219.78" data-y="76.03" data-x="1611187200" r="1" fill="white"><title>2021-01-21: 76</title></circle>
</g>
<g data-series="recent-cases" class="data-series">
	<path d="M 462.89,219.78L 464.31,245.48L 465.73,273.15L 467.16,283.42L 468.58,297.53L 470.00,307.69" id="Recent cases" class="line" stroke-width="1" stroke-linecap="round" stroke-dasharray="4,6" stroke-dashoffset="4"><title>Recent cases</title></path>
	<circle cx="462.89" cy="219.78" data-y="76.03" data-x="1611187200" r="2.5" fill="white"><title>2021-01-21: 76</title></circle>
	<circle cx="464.31" cy="245.48" data-y="63.44" data-x="1611273600" r="2.5" fill="white"><title>2021-01-22: 63</title></circle>
	<circle cx="465.73" cy="273.15" data-y="49.89" data-x="1611360000" r="2.5" fill="white"><title>2021-01-23: 50</title></circle>
	<circle cx="467.16" cy="283.42" data-y="44.86" data-x="1611446400" r="2.5" fill="white"><title>2021-01-24: 45</title></circle>
	<circle cx="468.58" cy="297.53" data-y="37.95" data-x="1611532800" r="2.5" fill="white"><title>2021-01-25: 38</title></circle>
	<circle cx="470.00" cy="307.69" data-y="32.97" data-x="1611619200" r="2.5" fill="white"><title>2021-01-26: 33</title></circle>
</g>
</svg>
