<svg width="480" height="400" viewBox="0 0 480 400" xmlns="http://www.w3.org/2000/svg" style="overflow:display" preserveAspectRatio="xMinYMin meet" overflow="visible">
<defs>
	<style>
	.data-series path.line { fill-opacity: 0; stroke: black; }
	.data-series path.line.dotted { stroke-dasharray: 12 20 }
	.data-series:hover path.line, .data-series.on path.line { stroke-width: 1; }
	.data-series:hover circle, .data-series.on circle { display: inline; }
	.graph-grid { font-family: "Helvetica Neue",Helvetica,Arial,"Lucida Grande",sans-serif; }
	.graph-grid line { stroke: black; stroke-width: 1; stroke-linecap: round; }
	.graph-grid.graph-grid-x text { text-anchor: middle; dominant-baseline: hanging; transform: translateY(10px); }
	.graph-grid.graph-grid-y text { text-anchor: end; dominant-baseline: middle; transform: translateX(-10px); }
	</style>
</defs>
<g class="graph-grid graph-grid-y">
	<line x1="25.00" y1="375.00" x2="470.00" y2="375.00" data-left="25"></line>
	<text x="35" y="375" text-anchor="end">0</text>
	<text x="35" y="256.456085443038" text-anchor="end">10</text>
	<text x="35" y="137.912170886076" text-anchor="end">20</text>
	<text x="35" y="19.368256329114" text-anchor="end">30</text>
	<text style="text-anchor:middle;dominant-baseline:hanging;font-weight:bold;transform: translateY(192.5px) rotate(-90deg);"></text>
</g>
<g class="graph-grid graph-grid-x">
	<line class="tick" x1="51.27" y1="375.00" x2="51.27" y2="380.00"></line>
	<text x="51.2673611111111" y="375" text-anchor="middle">A</text>
	<line class="tick" x1="97.62" y1="375.00" x2="97.62" y2="380.00"></line>
	<text x="97.6215277777778" y="375" text-anchor="middle">M</text>
	<line class="tick" x1="145.52" y1="375.00" x2="145.52" y2="380.00"></line>
	<text x="145.520833333333" y="375" text-anchor="middle">J</text>
	<line class="tick" x1="191.88" y1="375.00" x2="191.88" y2="380.00"></line>
	<text x="191.875" y="375" text-anchor="middle">J</text>
	<line class="tick" x1="239.77" y1="375.00" x2="239.77" y2="380.00"></line>
	<text x="239.774305555556" y="375" text-anchor="middle">A</text>
	<line class="tick" x1="287.67" y1="375.00" x2="287.67" y2="380.00"></line>
	<text x="287.673611111111" y="375" text-anchor="middle">S</text>
	<line class="tick" x1="334.03" y1="375.00" x2="334.03" y2="380.00"></line>
	<text x="334.027777777778" y="375" text-anchor="middle">O</text>
	<line class="tick" x1="381.93" y1="375.00" x2="381.93" y2="380.00"></line>
	<text x="381.927083333333" y="375" text-anchor="middle">N</text>
	<line class="tick" x1="428.28" y1="375.00" x2="428.28" y2="380.00"></line>
	<text x="428.28125" y="375" text-anchor="middle">D</text>
	<text style="text-anchor:middle;dominant-baseline:hanging;font-weight:bold;transform: translateY(192.5px) rotate(-90deg);"></text>
</g>
<g data-series="widespread" class="data-series">
	<path d="M 25.00,292.02L 470.00,292.02" id="E07000150-level-0" class="line" stroke-width="1" stroke-linecap="round" stroke-dasharray="3,3" fill-opacity="0.3" opacity="0.3"><title>Widespread</title></path>
</g>
<g data-series="substantial" class="data-series">
	<path d="M 25.00,327.58L 470.00,327.58" id="E07000150-level-1" class="line" stroke-width="1" stroke-linecap="round" stroke-dasharray="3,3" fill-opacity="0.3" opacity="0.3"><title>Substantial</title></path>
</g>
<g data-series="moderate" class="data-series">
	<path d="M 25.00,363.15L 470.00,363.15" id="E07000150-level-2" class="line" stroke-width="1" stroke-linecap="round" stroke-dasharray="3,3" fill-opacity="0.3" opacity="0.3"><title>Moderate</title></path>
</g>
<g data-series="new-cases" class="data-series">
	<path d="M 25.00,370.96L 26.55,371.77L 28.09,372.30L 29.64,370.38L 31.18,372.69L 32.73,365.76L 34.27,363.45L 35.82,356.52L 37.36,354.21L 38.91,349.59L 40.45,349.59L 42.00,347.28L 43.54,349.59L 45.09,340.35L 46.63,342.66L 48.18,335.73L 49.72,331.11L 51.27,333.42L 52.81,326.49L 54.36,324.18L 55.90,331.11L 57.45,333.42L 58.99,335.73L 60.54,338.04L 62.08,324.18L 63.63,331.11L 65.17,333.42L 66.72,326.49L 68.26,326.49L 69.81,331.11L 71.35,335.73L 72.90,347.28L 74.44,335.73L 75.99,335.73L 77.53,340.35L 79.08,340.35L 80.62,340.35L 82.17,331.11L 83.72,328.80L 85.26,338.04L 86.81,326.49L 88.35,319.56L 89.90,312.63L 91.44,284.91L 92.99,287.22L 94.53,289.53L 96.08,291.84L 97.62,298.77L 99.17,296.46L 100.71,291.84L 102.26,301.08L 103.80,296.46L 105.35,282.59L 106.89,264.11L 108.44,259.49L 109.98,259.49L 111.53,254.87L 113.07,254.87L 114.62,264.11L 116.16,266.42L 117.71,275.66L 119.25,266.42L 120.80,277.97L 122.34,296.46L 123.89,305.70L 125.43,294.15L 126.98,291.84L 128.52,284.91L 130.07,287.22L 131.61,289.53L 133.16,277.97L 134.70,277.97L 136.25,289.53L 137.80,296.46L 139.34,314.94L 140.89,335.73L 142.43,333.42L 143.98,340.35L 145.52,349.59L 147.07,351.90L 148.61,361.14L 150.16,358.83L 151.70,358.83L 153.25,356.52L 154.79,358.83L 156.34,354.21L 157.88,354.21L 159.43,351.90L 160.97,349.59L 162.52,349.59L 164.06,356.52L 165.61,358.83L 167.15,358.83L 168.70,361.14L 170.24,363.45L 171.79,368.07L 173.33,368.07L 174.88,368.07L 176.42,368.07L 177.97,375.00L 179.51,375.00L 181.06,375.00L 182.60,375.00L 184.15,375.00L 185.69,375.00L 187.24,375.00L 188.78,375.00L 190.33,375.00L 191.88,375.00L 193.42,375.00L 194.97,372.69L 196.51,372.69L 198.06,372.69L 199.60,370.38L 201.15,363.45L 202.69,361.14L 204.24,361.14L 205.78,358.83L 207.33,354.21L 208.87,347.28L 210.42,347.28L 211.96,351.90L 213.51,349.59L 215.05,344.97L 216.60,342.66L 218.14,340.35L 219.69,344.97L 221.23,347.28L 222.78,349.59L 224.32,351.90L 225.87,356.52L 227.41,356.52L 228.96,363.45L 230.50,365.76L 232.05,361.14L 233.59,356.52L 235.14,356.52L 236.68,356.52L 238.23,356.52L 239.77,351.90L 241.32,344.97L 242.86,340.35L 244.41,340.35L 245.95,342.66L 247.50,335.73L 249.05,333.42L 250.59,335.73L 252.14,338.04L 253.68,342.66L 255.23,347.28L 256.77,344.97L 258.32,342.66L 259.86,344.97L 261.41,347.28L 262.95,342.66L 264.50,344.97L 266.04,335.73L 267.59,338.04L 269.13,340.35L 270.68,335.73L 272.22,305.70L 273.77,291.84L 275.31,280.28L 276.86,284.91L 278.40,280.28L 279.95,284.91L 281.49,294.15L 283.04,305.70L 284.58,312.63L 286.13,314.94L 287.67,305.70L 289.22,294.15L 290.76,294.15L 292.31,266.42L 293.85,277.97L 295.40,277.97L 296.94,287.22L 298.49,296.46L 300.03,308.01L 301.58,303.39L 303.12,331.11L 304.67,333.42L 306.22,333.42L 307.76,326.49L 309.31,324.18L 310.85,326.49L 312.40,317.25L 313.94,317.25L 315.49,317.25L 317.03,314.94L 318.58,314.94L 320.12,310.32L 321.67,303.39L 323.21,312.63L 324.76,305.70L 326.30,308.01L 327.85,321.87L 329.39,314.94L 330.94,312.63L 332.48,312.63L 334.03,303.39L 335.57,305.70L 337.12,287.22L 338.66,268.73L 340.21,268.73L 341.75,245.63L 343.30,241.01L 344.84,247.94L 346.39,250.25L 347.93,261.80L 349.48,268.73L 351.02,273.35L 352.57,284.91L 354.11,284.91L 355.66,275.66L 357.20,234.08L 358.75,217.91L 360.30,213.29L 361.84,204.05L 363.39,206.36L 364.93,210.98L 366.48,213.29L 368.02,238.70L 369.57,231.77L 371.11,229.46L 372.66,229.46L 374.20,231.77L 375.75,229.46L 377.29,229.46L 378.84,215.60L 380.38,204.05L 381.93,201.74L 383.47,201.74L 385.02,180.95L 386.56,176.33L 388.11,111.65L 389.65,100.09L 391.20,81.61L 392.74,58.51L 394.29,40.03L 395.83,37.72L 397.38,21.55L 398.92,83.92L 400.47,79.30L 402.01,67.75L 403.56,70.06L 405.10,74.68L 406.65,93.16L 408.19,111.65L 409.74,107.03L 411.28,120.89L 412.83,162.47L 414.38,167.09L 415.92,183.26L 417.47,185.57L 419.01,185.57L 420.56,190.19L 422.10,201.74L 423.65,201.74L 425.19,215.60L 426.74,213.29L 428.28,204.05L 429.83,206.36L 431.37,201.74L 432.92,204.05L 434.46,206.36L 436.01,215.60L 437.55,208.67L 439.10,208.67L 440.64,190.19L 442.19,199.43L 443.73,185.57L 445.28,174.02L 446.82,148.61L 448.37,123.20L 449.91,123.20L 451.46,104.72L 453.00,79.30L 454.55,51.58L 456.09,30.79L 457.64,12.31L 459.18,10.00L 460.73,40.03L 462.27,37.72" id="New cases" class="line" stroke-width="1" stroke-linecap="round"><title>New cases</title></path>
	<circle cx="25.00" cy="370.96" data-y="0.34" data-x="1584230400" r="1" fill="white"><title>2020-03-15: 0</title></circle>
	<circle cx="26.55" cy="371.77" data-y="0.27" data-x="1584316800" r="1" fill="white"><title>2020-03-16: 0</title></circle>
	<circle cx="28.09" cy="372.30" data-y="0.23" data-x="1584403200" r="1" fill="white"><title>2020-03-17: 0</title></circle>
	<circle cx="29.64" cy="370.38" data-y="0.39" data-x="1584489600" r="1" fill="white"><title>2020-03-18: 0</title></circle>
	<circle cx="31.18" cy="372.69" data-y="0.19" data-x="1584576000" r="1" fill="white"><title>2020-03-19: 0</title></circle>
	<circle cx="32.73" cy="365.76" data-y="0.78" data-x="1584662400" r="1" fill="white"><title>2020-03-20: 1</title></circle>
	<circle cx="34.27" cy="363.45" data-y="0.97" data-x="1584748800" r="1" fill="white"><title>2020-03-21: 1</title></circle>
	<circle cx="35.82" cy="356.52" data-y="1.56" data-x="1584835200" r="1" fill="white"><title>2020-03-22: 2</title></circle>
	<circle cx="37.36" cy="354.21" data-y="1.75" data-x="1584921600" r="1" fill="white"><title>2020-03-23: 2</title></circle>
	<circle cx="38.91" cy="349.59" data-y="2.14" data-x="1585008000" r="1" fill="white"><title>2020-03-24: 2</title></circle>
	<circle cx="40.45" cy="349.59" data-y="2.14" data-x="1585094400" r="1" fill="white"><title>2020-03-25: 2</title></circle>
	<circle cx="42.00" cy="347.28" data-y="2.34" data-x="1585180800" r="1" fill="white"><title>2020-03-26: 2</title></circle>
	<circle cx="43.54" cy="349.59" data-y="2.14" data-x="1585267200" r="1" fill="white"><title>2020-03-27: 2</title></circle>
	<circle cx="45.09" cy="340.35" data-y="2.92" data-x="1585353600" r="1" fill="white"><title>2020-03-28: 3</title></circle>
	<circle cx="46.63" cy="342.66" data-y="2.73" data-x="1585440000" r="1" fill="white"><title>2020-03-29: 3</title></circle>
	<circle cx="48.18" cy="335.73" data-y="3.31" data-x="1585526400" r="1" fill="white"><title>2020-03-30: 3</title></circle>
	<circle cx="49.72" cy="331.11" data-y="3.70" data-x="1585612800" r="1" fill="white"><title>2020-03-31: 4</title></circle>
	<circle cx="51.27" cy="333.42" data-y="3.51" data-x="1585699200" r="1" fill="white"><title>2020-04-01: 4</title></circle>
	<circle cx="52.81" cy="326.49" data-y="4.09" data-x="1585785600" r="1" fill="white"><title>2020-04-02: 4</title></circle>
	<circle cx="54.36" cy="324.18" data-y="4.29" data-x="1585872000" r="1" fill="white"><title>2020-04-03: 4</title></circle>
	<circle cx="55.90" cy="331.11" data-y="3.70" data-x="1585958400" r="1" fill="white"><title>2020-04-04: 4</title></circle>
	<circle cx="57.45" cy="333.42" data-y="3.51" data-x="1586044800" r="1" fill="white"><title>2020-04-05: 4</title></circle>
	<circle cx="58.99" cy="335.73" data-y="3.31" data-x="1586131200" r="1" fill="white"><title>2020-04-06: 3</title></circle>
	<circle cx="60.54" cy="338.04" data-y="3.12" data-x="1586217600" r="1" fill="white"><title>2020-04-07: 3</title></circle>
	<circle cx="62.08" cy="324.18" data-y="4.29" data-x="1586304000" r="1" fill="white"><title>2020-04-08: 4</title></circle>
	<circle cx="63.63" cy="331.11" data-y="3.70" data-x="1586390400" r="1" fill="white"><title>2020-04-09: 4</title></circle>
	<circle cx="65.17" cy="333.42" data-y="3.51" data-x="1586476800" r="1" fill="white"><title>2020-04-10: 4</title></circle>
	<circle cx="66.72" cy="326.49" data-y="4.09" data-x="1586563200" r="1" fill="white"><title>2020-04-11: 4</title></circle>
	<circle cx="68.26" cy="326.49" data-y="4.09" data-x="1586649600" r="1" fill="white"><title>2020-04-12: 4</title></circle>
	<circle cx="69.81" cy="331.11" data-y="3.70" data-x="1586736000" r="1" fill="white"><title>2020-04-13: 4</title></circle>
	<circle cx="71.35" cy="335.73" data-y="3.31" data-x="1586822400" r="1" fill="white"><title>2020-04-14: 3</title></circle>
	<circle cx="72.90" cy="347.28" data-y="2.34" data-x="1586908800" r="1" fill="white"><title>2020-04-15: 2</title></circle>
	<circle cx="74.44" cy="335.73" data-y="3.31" data-x="1586995200" r="1" fill="white"><title>2020-04-16: 3</title></circle>
	<circle cx="75.99" cy="335.73" data-y="3.31" data-x="1587081600" r="1" fill="white"><title>2020-04-17: 3</title></circle>
	<circle cx="77.53" cy="340.35" data-y="2.92" data-x="1587168000" r="1" fill="white"><title>2020-04-18: 3</title></circle>
	<circle cx="79.08" cy="340.35" data-y="2.92" data-x="1587254400" r="1" fill="white"><title>2020-04-19: 3</title></circle>
	<circle cx="80.62" cy="340.35" data-y="2.92" data-x="1587340800" r="1" fill="white"><title>2020-04-20: 3</title></circle>
	<circle cx="82.17" cy="331.11" data-y="3.70" data-x="1587427200" r="1" fill="white"><title>2020-04-21: 4</title></circle>
	<circle cx="83.72" cy="328.80" data-y="3.90" data-x="1587513600" r="1" fill="white"><title>2020-04-22: 4</title></circle>
	<circle cx="85.26" cy="338.04" data-y="3.12" data-x="1587600000" r="1" fill="white"><title>2020-04-23: 3</title></circle>
	<circle cx="86.81" cy="326.49" data-y="4.09" data-x="1587686400" r="1" fill="white"><title>2020-04-24: 4</title></circle>
	<circle cx="88.35" cy="319.56" data-y="4.68" data-x="1587772800" r="1" fill="white"><title>2020-04-25: 5</title></circle>
	<circle cx="89.90" cy="312.63" data-y="5.26" data-x="1587859200" r="1" fill="white"><title>2020-04-26: 5</title></circle>
	<circle cx="91.44" cy="284.91" data-y="7.60" data-x="1587945600" r="1" fill="white"><title>2020-04-27: 8</title></circle>
	<circle cx="92.99" cy="287.22" data-y="7.41" data-x="1588032000" r="1" fill="white"><title>2020-04-28: 7</title></circle>
	<circle cx="94.53" cy="289.53" data-y="7.21" data-x="1588118400" r="1" fill="white"><title>2020-04-29: 7</title></circle>
	<circle cx="96.08" cy="291.84" data-y="7.02" data-x="1588204800" r="1" fill="white"><title>2020-04-30: 7</title></circle>
	<circle cx="97.62" cy="298.77" data-y="6.43" data-x="1588291200" r="1" fill="white"><title>2020-05-01: 6</title></circle>
	<circle cx="99.17" cy="296.46" data-y="6.63" data-x="1588377600" r="1" fill="white"><title>2020-05-02: 7</title></circle>
	<circle cx="100.71" cy="291.84" data-y="7.02" data-x="1588464000" r="1" fill="white"><title>2020-05-03: 7</title></circle>
	<circle cx="102.26" cy="301.08" data-y="6.24" data-x="1588550400" r="1" fill="white"><title>2020-05-04: 6</title></circle>
	<circle cx="103.80" cy="296.46" data-y="6.63" data-x="1588636800" r="1" fill="white"><title>2020-05-05: 7</title></circle>
	<circle cx="105.35" cy="282.59" data-y="7.80" data-x="1588723200" r="1" fill="white"><title>2020-05-06: 8</title></circle>
	<circle cx="106.89" cy="264.11" data-y="9.35" data-x="1588809600" r="1" fill="white"><title>2020-05-07: 9</title></circle>
	<circle cx="108.44" cy="259.49" data-y="9.74" data-x="1588896000" r="1" fill="white"><title>2020-05-08: 10</title></circle>
	<circle cx="109.98" cy="259.49" data-y="9.74" data-x="1588982400" r="1" fill="white"><title>2020-05-09: 10</title></circle>
	<circle cx="111.53" cy="254.87" data-y="10.13" data-x="1589068800" r="1" fill="white"><title>2020-05-10: 10</title></circle>
	<circle cx="113.07" cy="254.87" data-y="10.13" data-x="1589155200" r="1" fill="white"><title>2020-05-11: 10</title></circle>
	<circle cx="114.62" cy="264.11" data-y="9.35" data-x="1589241600" r="1" fill="white"><title>2020-05-12: 9</title></circle>
	<circle cx="116.16" cy="266.42" data-y="9.16" data-x="1589328000" r="1" fill="white"><title>2020-05-13: 9</title></circle>
	<circle cx="117.71" cy="275.66" data-y="8.38" data-x="1589414400" r="1" fill="white"><title>2020-05-14: 8</title></circle>
	<circle cx="119.25" cy="266.42" data-y="9.16" data-x="1589500800" r="1" fill="white"><title>2020-05-15: 9</title></circle>
	<circle cx="120.80" cy="277.97" data-y="8.18" data-x="1589587200" r="1" fill="white"><title>2020-05-16: 8</title></circle>
	<circle cx="122.34" cy="296.46" data-y="6.63" data-x="1589673600" r="1" fill="white"><title>2020-05-17: 7</title></circle>
	<circle cx="123.89" cy="305.70" data-y="5.85" data-x="1589760000" r="1" fill="white"><title>2020-05-18: 6</title></circle>
	<circle cx="125.43" cy="294.15" data-y="6.82" data-x="1589846400" r="1" fill="white"><title>2020-05-19: 7</title></circle>
	<circle cx="126.98" cy="291.84" data-y="7.02" data-x="1589932800" r="1" fill="white"><title>2020-05-20: 7</title></circle>
	<circle cx="128.52" cy="284.91" data-y="7.60" data-x="1590019200" r="1" fill="white"><title>2020-05-21: 8</title></circle>
	<circle cx="130.07" cy="287.22" data-y="7.41" data-x="1590105600" r="1" fill="white"><title>2020-05-22: 7</title></circle>
	<circle cx="131.61" cy="289.53" data-y="7.21" data-x="1590192000" r="1" fill="white"><title>2020-05-23: 7</title></circle>
	<circle cx="133.16" cy="277.97" data-y="8.18" data-x="1590278400" r="1" fill="white"><title>2020-05-24: 8</title></circle>
	<circle cx="134.70" cy="277.97" data-y="8.18" data-x="1590364800" r="1" fill="white"><title>2020-05-25: 8</title></circle>
	<circle cx="136.25" cy="289.53" data-y="7.21" data-x="1590451200" r="1" fill="white"><title>2020-05-26: 7</title></circle>
	<circle cx="137.80" cy="296.46" data-y="6.63" data-x="1590537600" r="1" fill="white"><title>2020-05-27: 7</title></circle>
	<circle cx="139.34" cy="314.94" data-y="5.07" data-x="1590624000" r="1" fill="white"><title>2020-05-28: 5</title></circle>
	<circle cx="140.89" cy="335.73" data-y="3.31" data-x="1590710400" r="1" fill="white"><title>2020-05-29: 3</title></circle>
	<circle cx="142.43" cy="333.42" data-y="3.51" data-x="1590796800" r="1" fill="white"><title>2020-05-30: 4</title></circle>
	<circle cx="143.98" cy="340.35" data-y="2.92" data-x="1590883200" r="1" fill="white"><title>2020-05-31: 3</title></circle>
	<circle cx="145.52" cy="349.59" data-y="2.14" data-x="1590969600" r="1" fill="white"><title>2020-06-01: 2</title></circle>
	<circle cx="147.07" cy="351.90" data-y="1.95" data-x="1591056000" r="1" fill="white"><title>2020-06-02: 2</title></circle>
	<circle cx="148.61" cy="361.14" data-y="1.17" data-x="1591142400" r="1" fill="white"><title>2020-06-03: 1</title></circle>
	<circle cx="150.16" cy="358.83" data-y="1.36" data-x="1591228800" r="1" fill="white"><title>2020-06-04: 1</title></circle>
	<circle cx="151.70" cy="358.83" data-y="1.36" data-x="1591315200" r="1" fill="white"><title>2020-06-05: 1</title></circle>
	<circle cx="153.25" cy="356.52" data-y="1.56" data-x="1591401600" r="1" fill="white"><title>2020-06-06: 2</title></circle>
	<circle cx="154.79" cy="358.83" data-y="1.36" data-x="1591488000" r="1" fill="white"><title>2020-06-07: 1</title></circle>
	<circle cx="156.34" cy="354.21" data-y="1.75" data-x="1591574400" r="1" fill="white"><title>2020-06-08: 2</title></circle>
	<circle cx="157.88" cy="354.21" data-y="1.75" data-x="1591660800" r="1" fill="white"><title>2020-06-09: 2</title></circle>
	<circle cx="159.43" cy="351.90" data-y="1.95" data-x="1591747200" r="1" fill="white"><title>2020-06-10: 2</title></circle>
	<circle cx="160.97" cy="349.59" data-y="2.14" data-x="1591833600" r="1" fill="white"><title>2020-06-11: 2</title></circle>
	<circle cx="162.52" cy="349.59" data-y="2.14" data-x="1591920000" r="1" fill="white"><title>2020-06-12: 2</title></circle>
	<circle cx="164.06" cy="356.52" data-y="1.56" data-x="1592006400" r="1" fill="white"><title>2020-06-13: 2</title></circle>
	<circle cx="165.61" cy="358.83" data-y="1.36" data-x="1592092800" r="1" fill="white"><title>2020-06-14: 1</title></circle>
	<circle cx="167.15" cy="358.83" data-y="1.36" data-x="1592179200" r="1" fill="white"><title>2020-06-15: 1</title></circle>
	<circle cx="168.70" cy="361.14" data-y="1.17" data-x="1592265600" r="1" fill="white"><title>2020-06-16: 1</title></circle>
	<circle cx="170.24" cy="363.45" data-y="0.97" data-x="1592352000" r="1" fill="white"><title>2020-06-17: 1</title></circle>
	<circle cx="171.79" cy="368.07" data-y="0.58" data-x="1592438400" r="1" fill="white"><title>2020-06-18: 1</title></circle>
	<circle cx="173.33" cy="368.07" data-y="0.58" data-x="1592524800" r="1" fill="white"><title>2020-06-19: 1</title></circle>
	<circle cx="174.88" cy="368.07" data-y="0.58" data-x="1592611200" r="1" fill="white"><title>2020-06-20: 1</title></circle>
	<circle cx="176.42" cy="368.07" data-y="0.58" data-x="1592697600" r="1" fill="white"><title>2020-06-21: 1</title></circle>
	<circle cx="177.97" cy="375.00" data-y="0.00" data-x="1592784000" r="1" fill="white"><title>2020-06-22: 0</title></circle>
	<circle cx="179.51" cy="375.00" data-y="0.00" data-x="1592870400" r="1" fill="white"><title>2020-06-23: 0</title></circle>
	<circle cx="181.06" cy="375.00" data-y="0.00" data-x="1592956800" r="1" fill="white"><title>2020-06-24: 0</title></circle>
	<circle cx="182.60" cy="375.00" data-y="0.00" data-x="1593043200" r="1" fill="white"><title>2020-06-25: 0</title></circle>
	<circle cx="184.15" cy="375.00" data-y="0.00" data-x="1593129600" r="1" fill="white"><title>2020-06-26: 0</title></circle>
	<circle cx="185.69" cy="375.00" data-y="0.00" data-x="1593216000" r="1" fill="white"><title>2020-06-27: 0</title></circle>
	<circle cx="187.24" cy="375.00" data-y="0.00" data-x="1593302400" r="1" fill="white"><title>2020-06-28: 0</title></circle>
	<circle cx="188.78" cy="375.00" data-y="0.00" data-x="1593388800" r="1" fill="white"><title>2020-06-29: 0</title></circle>
	<circle cx="190.33" cy="375.00" data-y="0.00" data-x="1593475200" r="1" fill="white"><title>2020-06-30: 0</title></circle>
	<circle cx="191.88" cy="375.00" data-y="0.00" data-x="1593561600" r="1" fill="white"><title>2020-07-01: 0</title></circle>
	<circle cx="193.42" cy="375.00" data-y="0.00" data-x="1593648000" r="1" fill="white"><title>2020-07-02: 0</title></circle>
	<circle cx="194.97" cy="372.69" data-y="0.19" data-x="1593734400" r="1" fill="white"><title>2020-07-03: 0</title></circle>
	<circle cx="196.51" cy="372.69" data-y="0.19" data-x="1593820800" r="1" fill="white"><title>2020-07-04: 0</title></circle>
	<circle cx="198.06" cy="372.69" data-y="0.19" data-x="1593907200" r="1" fill="white"><title>2020-07-05: 0</title></circle>
	<circle cx="199.60" cy="370.38" data-y="0.39" data-x="1593993600" r="1" fill="white"><title>2020-07-06: 0</title></circle>
	<circle cx="201.15" cy="363.45" data-y="0.97" data-x="1594080000" r="1" fill="white"><title>2020-07-07: 1</title></circle>
	<circle cx="202.69" cy="361.14" data-y="1.17" data-x="1594166400" r="1" fill="white"><title>2020-07-08: 1</title></circle>
	<circle cx="204.24" cy="361.14" data-y="1.17" data-x="1594252800" r="1" fill="white"><title>2020-07-09: 1</title></circle>
	<circle cx="205.78" cy="358.83" data-y="1.36" data-x="1594339200" r="1" fill="white"><title>2020-07-10: 1</title></circle>
	<circle cx="207.33" cy="354.21" data-y="1.75" data-x="1594425600" r="1" fill="white"><title>2020-07-11: 2</title></circle>
	<circle cx="208.87" cy="347.28" data-y="2.34" data-x="1594512000" r="1" fill="white"><title>2020-07-12: 2</title></circle>
	<circle cx="210.42" cy="347.28" data-y="2.34" data-x="1594598400" r="1" fill="white"><title>2020-07-13: 2</title></circle>
	<circle cx="211.96" cy="351.90" data-y="1.95" data-x="1594684800" r="1" fill="white"><title>2020-07-14: 2</title></circle>
	<circle cx="213.51" cy="349.59" data-y="2.14" data-x="1594771200" r="1" fill="white"><title>2020-07-15: 2</title></circle>
	<circle cx="215.05" cy="344.97" data-y="2.53" data-x="1594857600" r="1" fill="white"><title>2020-07-16: 3</title></circle>
	<circle cx="216.60" cy="342.66" data-y="2.73" data-x="1594944000" r="1" fill="white"><title>2020-07-17: 3</title></circle>
	<circle cx="218.14" cy="340.35" data-y="2.92" data-x="1595030400" r="1" fill="white"><title>2020-07-18: 3</title></circle>
	<circle cx="219.69" cy="344.97" data-y="2.53" data-x="1595116800" r="1" fill="white"><title>2020-07-19: 3</title></circle>
	<circle cx="221.23" cy="347.28" data-y="2.34" data-x="1595203200" r="1" fill="white"><title>2020-07-20: 2</title></circle>
	<circle cx="222.78" cy="349.59" data-y="2.14" data-x="1595289600" r="1" fill="white"><title>2020-07-21: 2</title></circle>
	<circle cx="224.32" cy="351.90" data-y="1.95" data-x="1595376000" r="1" fill="white"><title>2020-07-22: 2</title></circle>
	<circle cx="225.87" cy="356.52" data-y="1.56" data-x="1595462400" r="1" fill="white"><title>2020-07-23: 2</title></circle>
	<circle cx="227.41" cy="356.52" data-y="1.56" data-x="1595548800" r="1" fill="white"><title>2020-07-24: 2</title></circle>
	<circle cx="228.96" cy="363.45" data-y="0.97" data-x="1595635200" r="1" fill="white"><title>2020-07-25: 1</title></circle>
	<circle cx="230.50" cy="365.76" data-y="0.78" data-x="1595721600" r="1" fill="white"><title>2020-07-26: 1</title></circle>
	<circle cx="232.05" cy="361.14" data-y="1.17" data-x="1595808000" r="1" fill="white"><title>2020-07-27: 1</title></circle>
	<circle cx="233.59" cy="356.52" data-y="1.56" data-x="1595894400" r="1" fill="white"><title>2020-07-28: 2</title></circle>
	<circle cx="235.14" cy="356.52" data-y="1.56" data-x="1595980800" r="1" fill="white"><title>2020-07-29: 2</title></circle>
	<circle cx="236.68" cy="356.52" data-y="1.56" data-x="1596067200" r="1" fill="white"><title>2020-07-30: 2</title></circle>
	<circle cx="238.23" cy="356.52" data-y="1.56" data-x="1596153600" r="1" fill="white"><title>2020-07-31: 2</title></circle>
	<circle cx="239.77" cy="351.90" data-y="1.95" data-x="1596240000" r="1" fill="white"><title>2020-08-01: 2</title></circle>
	<circle cx="241.32" cy="344.97" data-y="2.53" data-x="1596326400" r="1" fill="white"><title>2020-08-02: 3</title></circle>
	<circle cx="242.86" cy="340.35" data-y="2.92" data-x="1596412800" r="1" fill="white"><title>2020-08-03: 3</title></circle>
	<circle cx="244.41" cy="340.35" data-y="2.92" data-x="1596499200" r="1" fill="white"><title>2020-08-04: 3</title></circle>
	<circle cx="245.95" cy="342.66" data-y="2.73" data-x="1596585600" r="1" fill="white"><title>2020-08-05: 3</title></circle>
	<circle cx="247.50" cy="335.73" data-y="3.31" data-x="1596672000" r="1" fill="white"><title>2020-08-06: 3</title></circle>
	<circle cx="249.05" cy="333.42" data-y="3.51" data-x="1596758400" r="1" fill="white"><title>2020-08-07: 4</title></circle>
	<circle cx="250.59" cy="335.73" data-y="3.31" data-x="1596844800" r="1" fill="white"><title>2020-08-08: 3</title></circle>
	<circle cx="252.14" cy="338.04" data-y="3.12" data-x="1596931200" r="1" fill="white"><title>2020-08-09: 3</title></circle>
	<circle cx="253.68" cy="342.66" data-y="2.73" data-x="1597017600" r="1" fill="white"><title>2020-08-10: 3</title></circle>
	<circle cx="255.23" cy="347.28" data-y="2.34" data-x="1597104000" r="1" fill="white"><title>2020-08-11: 2</title></circle>
	<circle cx="256.77" cy="344.97" data-y="2.53" data-x="1597190400" r="1" fill="white"><title>2020-08-12: 3</title></circle>
	<circle cx="258.32" cy="342.66" data-y="2.73" data-x="1597276800" r="1" fill="white"><title>2020-08-13: 3</title></circle>
	<circle cx="259.86" cy="344.97" data-y="2.53" data-x="1597363200" r="1" fill="white"><title>2020-08-14: 3</title></circle>
	<circle cx="261.41" cy="347.28" data-y="2.34" data-x="1597449600" r="1" fill="white"><title>2020-08-15: 2</title></circle>
	<circle cx="262.95" cy="342.66" data-y="2.73" data-x="1597536000" r="1" fill="white"><title>2020-08-16: 3</title></circle>
	<circle cx="264.50" cy="344.97" data-y="2.53" data-x="1597622400" r="1" fill="white"><title>2020-08-17: 3</title></circle>
	<circle cx="266.04" cy="335.73" data-y="3.31" data-x="1597708800" r="1" fill="white"><title>2020-08-18: 3</title></circle>
	<circle cx="267.59" cy="338.04" data-y="3.12" data-x="1597795200" r="1" fill="white"><title>2020-08-19: 3</title></circle>
	<circle cx="269.13" cy="340.35" data-y="2.92" data-x="1597881600" r="1" fill="white"><title>2020-08-20: 3</title></circle>
	<circle cx="270.68" cy="335.73" data-y="3.31" data-x="1597968000" r="1" fill="white"><title>2020-08-21: 3</title></circle>
	<circle cx="272.22" cy="305.70" data-y="5.85" data-x="1598054400" r="1" fill="white"><title>2020-08-22: 6</title></circle>
	<circle cx="273.77" cy="291.84" data-y="7.02" data-x="1598140800" r="1" fill="white"><title>2020-08-23: 7</title></circle>
	<circle cx="275.31" cy="280.28" data-y="7.99" data-x="1598227200" r="1" fill="white"><title>2020-08-24: 8</title></circle>
	<circle cx="276.86" cy="284.91" data-y="7.60" data-x="1598313600" r="1" fill="white"><title>2020-08-25: 8</title></circle>
	<circle cx="278.40" cy="280.28" data-y="7.99" data-x="1598400000" r="1" fill="white"><title>2020-08-26: 8</title></circle>
	<circle cx="279.95" cy="284.91" data-y="7.60" data-x="1598486400" r="1" fill="white"><title>2020-08-27: 8</title></circle>
	<circle cx="281.49" cy="294.15" data-y="6.82" data-x="1598572800" r="1" fill="white"><title>2020-08-28: 7</title></circle>
	<circle cx="283.04" cy="305.70" data-y="5.85" data-x="1598659200" r="1" fill="white"><title>2020-08-29: 6</title></circle>
	<circle cx="284.58" cy="312.63" data-y="5.26" data-x="1598745600" r="1" fill="white"><title>2020-08-30: 5</title></circle>
	<circle cx="286.13" cy="314.94" data-y="5.07" data-x="1598832000" r="1" fill="white"><title>2020-08-31: 5</title></circle>
	<circle cx="287.67" cy="305.70" data-y="5.85" data-x="1598918400" r="1" fill="white"><title>2020-09-01: 6</title></circle>
	<circle cx="289.22" cy="294.15" data-y="6.82" data-x="1599004800" r="1" fill="white"><title>2020-09-02: 7</title></circle>
	<circle cx="290.76" cy="294.15" data-y="6.82" data-x="1599091200" r="1" fill="white"><title>2020-09-03: 7</title></circle>
	<circle cx="292.31" cy="266.42" data-y="9.16" data-x="1599177600" r="1" fill="white"><title>2020-09-04: 9</title></circle>
	<circle cx="293.85" cy="277.97" data-y="8.18" data-x="1599264000" r="1" fill="white"><title>2020-09-05: 8</title></circle>
	<circle cx="295.40" cy="277.97" data-y="8.18" data-x="1599350400" r="1" fill="white"><title>2020-09-06: 8</title></circle>
	<circle cx="296.94" cy="287.22" data-y="7.41" data-x="1599436800" r="1" fill="white"><title>2020-09-07: 7</title></circle>
	<circle cx="298.49" cy="296.46" data-y="6.63" data-x="1599523200" r="1" fill="white"><title>2020-09-08: 7</title></circle>
	<circle cx="300.03" cy="308.01" data-y="5.65" data-x="1599609600" r="1" fill="white"><title>2020-09-09: 6</title></circle>
	<circle cx="301.58" cy="303.39" data-y="6.04" data-x="1599696000" r="1" fill="white"><title>2020-09-10: 6</title></circle>
	<circle cx="303.12" cy="331.11" data-y="3.70" data-x="1599782400" r="1" fill="white"><title>2020-09-11: 4</title></circle>
	<circle cx="304.67" cy="333.42" data-y="3.51" data-x="1599868800" r="1" fill="white"><title>2020-09-12: 4</title></circle>
	<circle cx="306.22" cy="333.42" data-y="3.51" data-x="1599955200" r="1" fill="white"><title>2020-09-13: 4</title></circle>
	<circle cx="307.76" cy="326.49" data-y="4.09" data-x="1600041600" r="1" fill="white"><title>2020-09-14: 4</title></circle>
	<circle cx="309.31" cy="324.18" data-y="4.29" data-x="1600128000" r="1" fill="white"><title>2020-09-15: 4</title></circle>
	<circle cx="310.85" cy="326.49" data-y="4.09" data-x="1600214400" r="1" fill="white"><title>2020-09-16: 4</title></circle>
	<circle cx="312.40" cy="317.25" data-y="4.87" data-x="1600300800" r="1" fill="white"><title>2020-09-17: 5</title></circle>
	<circle cx="313.94" cy="317.25" data-y="4.87" data-x="1600387200" r="1" fill="white"><title>2020-09-18: 5</title></circle>
	<circle cx="315.49" cy="317.25" data-y="4.87" data-x="1600473600" r="1" fill="white"><title>2020-09-19: 5</title></circle>
	<circle cx="317.03" cy="314.94" data-y="5.07" data-x="1600560000" r="1" fill="white"><title>2020-09-20: 5</title></circle>
	<circle cx="318.58" cy="314.94" data-y="5.07" data-x="1600646400" r="1" fill="white"><title>2020-09-21: 5</title></circle>
	<circle cx="320.12" cy="310.32" data-y="5.46" data-x="1600732800" r="1" fill="white"><title>2020-09-22: 5</title></circle>
	<circle cx="321.67" cy="303.39" data-y="6.04" data-x="1600819200" r="1" fill="white"><title>2020-09-23: 6</title></circle>
	<circle cx="323.21" cy="312.63" data-y="5.26" data-x="1600905600" r="1" fill="white"><title>2020-09-24: 5</title></circle>
	<circle cx="324.76" cy="305.70" data-y="5.85" data-x="1600992000" r="1" fill="white"><title>2020-09-25: 6</title></circle>
	<circle cx="326.30" cy="308.01" data-y="5.65" data-x="1601078400" r="1" fill="white"><title>2020-09-26: 6</title></circle>
	<circle cx="327.85" cy="321.87" data-y="4.48" data-x="1601164800" r="1" fill="white"><title>2020-09-27: 4</title></circle>
	<circle cx="329.39" cy="314.94" data-y="5.07" data-x="1601251200" r="1" fill="white"><title>2020-09-28: 5</title></circle>
	<circle cx="330.94" cy="312.63" data-y="5.26" data-x="1601337600" r="1" fill="white"><title>2020-09-29: 5</title></circle>
	<circle cx="332.48" cy="312.63" data-y="5.26" data-x="1601424000" r="1" fill="white"><title>2020-09-30: 5</title></circle>
	<circle cx="334.03" cy="303.39" data-y="6.04" data-x="1601510400" r="1" fill="white"><title>2020-10-01: 6</title></circle>
	<circle cx="335.57" cy="305.70" data-y="5.85" data-x="1601596800" r="1" fill="white"><title>2020-10-02: 6</title></circle>
	<circle cx="337.12" cy="287.22" data-y="7.41" data-x="1601683200" r="1" fill="white"><title>2020-10-03: 7</title></circle>
	<circle cx="338.66" cy="268.73" data-y="8.96" data-x="1601769600" r="1" fill="white"><title>2020-10-04: 9</title></circle>
	<circle cx="340.21" cy="268.73" data-y="8.96" data-x="1601856000" r="1" fill="white"><title>2020-10-05: 9</title></circle>
	<circle cx="341.75" cy="245.63" data-y="10.91" data-x="1601942400" r="1" fill="white"><title>2020-10-06: 11</title></circle>
	<circle cx="343.30" cy="241.01" data-y="11.30" data-x="1602028800" r="1" fill="white"><title>2020-10-07: 11</title></circle>
	<circle cx="344.84" cy="247.94" data-y="10.72" data-x="1602115200" r="1" fill="white"><title>2020-10-08: 11</title></circle>
	<circle cx="346.39" cy="250.25" data-y="10.52" data-x="1602201600" r="1" fill="white"><title>2020-10-09: 11</title></circle>
	<circle cx="347.93" cy="261.80" data-y="9.55" data-x="1602288000" r="1" fill="white"><title>2020-10-10: 10</title></circle>
	<circle cx="349.48" cy="268.73" data-y="8.96" data-x="1602374400" r="1" fill="white"><title>2020-10-11: 9</title></circle>
	<circle cx="351.02" cy="273.35" data-y="8.57" data-x="1602460800" r="1" fill="white"><title>2020-10-12: 9</title></circle>
	<circle cx="352.57" cy="284.91" data-y="7.60" data-x="1602547200" r="1" fill="white"><title>2020-10-13: 8</title></circle>
	<circle cx="354.11" cy="284.91" data-y="7.60" data-x="1602633600" r="1" fill="white"><title>2020-10-14: 8</title></circle>
	<circle cx="355.66" cy="275.66" data-y="8.38" data-x="1602720000" r="1" fill="white"><title>2020-10-15: 8</title></circle>
	<circle cx="357.20" cy="234.08" data-y="11.89" data-x="1602806400" r="1" fill="white"><title>2020-10-16: 12</title></circle>
	<circle cx="358.75" cy="217.91" data-y="13.25" data-x="1602892800" r="1" fill="white"><title>2020-10-17: 13</title></circle>
	<circle cx="360.30" cy="213.29" data-y="13.64" data-x="1602979200" r="1" fill="white"><title>2020-10-18: 14</title></circle>
	<circle cx="361.84" cy="204.05" data-y="14.42" data-x="1603065600" r="1" fill="white"><title>2020-10-19: 14</title></circle>
	<circle cx="363.39" cy="206.36" data-y="14.23" data-x="1603152000" r="1" fill="white"><title>2020-10-20: 14</title></circle>
	<circle cx="364.93" cy="210.98" data-y="13.84" data-x="1603238400" r="1" fill="white"><title>2020-10-21: 14</title></circle>
	<circle cx="366.48" cy="213.29" data-y="13.64" data-x="1603324800" r="1" fill="white"><title>2020-10-22: 14</title></circle>
	<circle cx="368.02" cy="238.70" data-y="11.50" data-x="1603411200" r="1" fill="white"><title>2020-10-23: 11</title></circle>
	<circle cx="369.57" cy="231.77" data-y="12.08" data-x="1603497600" r="1" fill="white"><title>2020-10-24: 12</title></circle>
	<circle cx="371.11" cy="229.46" data-y="12.28" data-x="1603584000" r="1" fill="white"><title>2020-10-25: 12</title></circle>
	<circle cx="372.66" cy="229.46" data-y="12.28" data-x="1603670400" r="1" fill="white"><title>2020-10-26: 12</title></circle>
	<circle cx="374.20" cy="231.77" data-y="12.08" data-x="1603756800" r="1" fill="white"><title>2020-10-27: 12</title></circle>
	<circle cx="375.75" cy="229.46" data-y="12.28" data-x="1603843200" r="1" fill="white"><title>2020-10-28: 12</title></circle>
	<circle cx="377.29" cy="229.46" data-y="12.28" data-x="1603929600" r="1" fill="white"><title>2020-10-29: 12</title></circle>
	<circle cx="378.84" cy="215.60" data-y="13.45" data-x="1604016000" r="1" fill="white"><title>2020-10-30: 13</title></circle>
	<circle cx="380.38" cy="204.05" data-y="14.42" data-x="1604102400" r="1" fill="white"><title>2020-10-31: 14</title></circle>
	<circle cx="381.93" cy="201.74" data-y="14.62" data-x="1604188800" r="1" fill="white"><title>2020-11-01: 15</title></circle>
	<circle cx="383.47" cy="201.74" data-y="14.62" data-x="1604275200" r="1" fill="white"><title>2020-11-02: 15</title></circle>
	<circle cx="385.02" cy="180.95" data-y="16.37" data-x="1604361600" r="1" fill="white"><title>2020-11-03: 16</title></circle>
	<circle cx="386.56" cy="176.33" data-y="16.76" data-x="1604448000" r="1" fill="white"><title>2020-11-04: 17</title></circle>
	<circle cx="388.11" cy="111.65" data-y="22.22" data-x="1604534400" r="1" fill="white"><title>2020-11-05: 22</title></circle>
	<circle cx="389.65" cy="100.09" data-y="23.19" data-x="1604620800" r="1" fill="white"><title>2020-11-06: 23</title></circle>
	<circle cx="391.20" cy="81.61" data-y="24.75" data-x="1604707200" r="1" fill="white"><title>2020-11-07: 25</title></circle>
	<circle cx="392.74" cy="58.51" data-y="26.70" data-x="1604793600" r="1" fill="white"><title>2020-11-08: 27</title></circle>
	<circle cx="394.29" cy="40.03" data-y="28.26" data-x="1604880000" r="1" fill="white"><title>2020-11-09: 28</title></circle>
	<circle cx="395.83" cy="37.72" data-y="28.45" data-x="1604966400" r="1" fill="white"><title>2020-11-10: 28</title></circle>
	<circle cx="397.38" cy="21.55" data-y="29.82" data-x="1605052800" r="1" fill="white"><title>2020-11-11: 30</title></circle>
	<circle cx="398.92" cy="83.92" data-y="24.55" data-x="1605139200" r="1" fill="white"><title>2020-11-12: 25</title></circle>
	<circle cx="400.47" cy="79.30" data-y="24.94" data-x="1605225600" r="1" fill="white"><title>2020-11-13: 25</title></circle>
	<circle cx="402.01" cy="67.75" data-y="25.92" data-x="1605312000" r="1" fill="white"><title>2020-11-14: 26</title></circle>
	<circle cx="403.56" cy="70.06" data-y="25.72" data-x="1605398400" r="1" fill="white"><title>2020-11-15: 26</title></circle>
	<circle cx="405.10" cy="74.68" data-y="25.33" data-x="1605484800" r="1" fill="white"><title>2020-11-16: 25</title></circle>
	<circle cx="406.65" cy="93.16" data-y="23.77" data-x="1605571200" r="1" fill="white"><title>2020-11-17: 24</title></circle>
	<circle cx="408.19" cy="111.65" data-y="22.22" data-x="1605657600" r="1" fill="white"><title>2020-11-18: 22</title></circle>
	<circle cx="409.74" cy="107.03" data-y="22.61" data-x="1605744000" r="1" fill="white"><title>2020-11-19: 23</title></circle>
	<circle cx="411.28" cy="120.89" data-y="21.44" data-x="1605830400" r="1" fill="white"><title>2020-11-20: 21</title></circle>
	<circle cx="412.83" cy="162.47" data-y="17.93" data-x="1605916800" r="1" fill="white"><title>2020-11-21: 18</title></circle>
	<circle cx="414.38" cy="167.09" data-y="17.54" data-x="1606003200" r="1" fill="white"><title>2020-11-22: 18</title></circle>
	<circle cx="415.92" cy="183.26" data-y="16.17" data-x="1606089600" r="1" fill="white"><title>2020-11-23: 16</title></circle>
	<circle cx="417.47" cy="185.57" data-y="15.98" data-x="1606176000" r="1" fill="white"><title>2020-11-24: 16</title></circle>
	<circle cx="419.01" cy="185.57" data-y="15.98" data-x="1606262400" r="1" fill="white"><title>2020-11-25: 16</title></circle>
	<circle cx="420.56" cy="190.19" data-y="15.59" data-x="1606348800" r="1" fill="white"><title>2020-11-26: 16</title></circle>
	<circle cx="422.10" cy="201.74" data-y="14.62" data-x="1606435200" r="1" fill="white"><title>2020-11-27: 15</title></circle>
	<circle cx="423.65" cy="201.74" data-y="14.62" data-x="1606521600" r="1" fill="white"><title>2020-11-28: 15</title></circle>
	<circle cx="425.19" cy="215.60" data-y="13.45" data-x="1606608000" r="1" fill="white"><title>2020-11-29: 13</title></circle>
	<circle cx="426.74" cy="213.29" data-y="13.64" data-x="1606694400" r="1" fill="white"><title>2020-11-30: 14</title></circle>
	<circle cx="428.28" cy="204.05" data-y="14.42" data-x="1606780800" r="1" fill="white"><title>2020-12-01: 14</title></circle>
	<circle cx="429.83" cy="206.36" data-y="14.23" data-x="1606867200" r="1" fill="white"><title>2020-12-02: 14</title></circle>
	<circle cx="431.37" cy="201.74" data-y="14.62" data-x="1606953600" r="1" fill="white"><title>2020-12-03: 15</title></circle>
	<circle cx="432.92" cy="204.05" data-y="14.42" data-x="1607040000" r="1" fill="white"><title>2020-12-04: 14</title></circle>
	<circle cx="434.46" cy="206.36" data-y="14.23" data-x="1607126400" r="1" fill="white"><title>2020-12-05: 14</title></circle>
	<circle cx="436.01" cy="215.60" data-y="13.45" data-x="1607212800" r="1" fill="white"><title>2020-12-06: 13</title></circle>
	<circle cx="437.55" cy="208.67" data-y="14.03" data-x="1607299200" r="1" fill="white"><title>2020-12-07: 14</title></circle>
	<circle cx="439.10" cy="208.67" data-y="14.03" data-x="1607385600" r="1" fill="white"><title>2020-12-08: 14</title></circle>
	<circle cx="440.64" cy="190.19" data-y="15.59" data-x="1607472000" r="1" fill="white"><title>2020-12-09: 16</title></circle>
	<circle cx="442.19" cy="199.43" data-y="14.81" data-x="1607558400" r="1" fill="white"><title>2020-12-10: 15</title></circle>
	<circle cx="443.73" cy="185.57" data-y="15.98" data-x="1607644800" r="1" fill="white"><title>2020-12-11: 16</title></circle>
	<circle cx="445.28" cy="174.02" data-y="16.95" data-x="1607731200" r="1" fill="white"><title>2020-12-12: 17</title></circle>
	<circle cx="446.82" cy="148.61" data-y="19.10" data-x="1607817600" r="1" fill="white"><title>2020-12-13: 19</title></circle>
	<circle cx="448.37" cy="123.20" data-y="21.24" data-x="1607904000" r="1" fill="white"><title>2020-12-14: 21</title></circle>
	<circle cx="449.91" cy="123.20" data-y="21.24" data-x="1607990400" r="1" fill="white"><title>2020-12-15: 21</title></circle>
	<circle cx="451.46" cy="104.72" data-y="22.80" data-x="1608076800" r="1" fill="white"><title>2020-12-16: 23</title></circle>
	<circle cx="453.00" cy="79.30" data-y="24.94" data-x="1608163200" r="1" fill="white"><title>2020-12-17: 25</title></circle>
	<circle cx="454.55" cy="51.58" data-y="27.28" data-x="1608249600" r="1" fill="white"><title>2020-12-18: 27</title></circle>
	<circle cx="456.09" cy="30.79" data-y="29.04" data-x="1608336000" r="1" fill="white"><title>2020-12-19: 29</title></circle>
	<circle cx="457.64" cy="12.31" data-y="30.60" data-x="1608422400" r="1" fill="white"><title>2020-12-20: 31</title></circle>
	<circle cx="459.18" cy="10.00" data-y="30.79" data-x="1608508800" r="1" fill="white"><title>2020-12-21: 31</title></circle>
	<circle cx="460.73" cy="40.03" data-y="28.26" data-x="1608595200" r="1" fill="white"><title>2020-12-22: 28</title></circle>
	<circle cx="462.27" cy="37.72" data-y="28.45" data-x="1608681600" r="1" fill="white"><title>2020-12-23: 28</title></circle>
</g>
<g data-series="recent-cases" class="data-series">
	<path d="M 462.27,37.72L 463.82,14.62L 465.36,79.30L 466.91,102.79L 468.45,135.67L 470.00,172.86" id="Recent cases" class="line" stroke-width="1" stroke-linecap="round" stroke-dasharray="4,6" stroke-dashoffset="4"><title>Recent cases</title></path>
	<circle cx="462.27" cy="37.72" data-y="28.45" data-x="1608681600" r="2.5" fill="white"><title>2020-12-23: 28</title></circle>
	<circle cx="463.82" cy="14.62" data-y="30.40" data-x="1608768000" r="2.5" fill="white"><title>2020-12-24: 30</title></circle>
	<circle cx="465.36" cy="79.30" data-y="24.94" data-x="1608854400" r="2.5" fill="white"><title>2020-12-25: 25</title></circle>
	<circle cx="466.91" cy="102.79" data-y="22.96" data-x="1608940800" r="2.5" fill="white"><title>2020-12-26: 23</title></circle>
	<circle cx="468.45" cy="135.67" data-y="20.19" data-x="1609027200" r="2.5" fill="white"><title>2020-12-27: 20</title></circle>
	<circle cx="470.00" cy="172.86" data-y="17.05" data-x="1609113600" r="2.5" fill="white"><title>2020-12-28: 17</title></circle>
</g>
</svg>
