<svg width="480" height="400" viewBox="0 0 480 400" xmlns="http://www.w3.org/2000/svg" style="overflow:display" preserveAspectRatio="xMinYMin meet" overflow="visible">
<defs>
	<style>
	.data-series path.line { fill-opacity: 0; stroke: black; }
	.data-series path.line.dotted { stroke-dasharray: 12 20 }
	.data-series:hover path.line, .data-series.on path.line { stroke-width: 1; }
	.data-series:hover circle, .data-series.on circle { display: inline; }
	.graph-grid { font-family: "Helvetica Neue",Helvetica,Arial,"Lucida Grande",sans-serif; }
	.graph-grid line { stroke: black; stroke-width: 1; stroke-linecap: round; }
	.graph-grid.graph-grid-x text { text-anchor: middle; dominant-baseline: hanging; transform: translateY(10px); }
	.graph-grid.graph-grid-y text { text-anchor: end; dominant-baseline: middle; transform: translateX(-10px); }
	</style>
</defs>
<g class="graph-grid graph-grid-y">
	<line x1="15.00" y1="375.00" x2="470.00" y2="375.00" data-left="15"></line>
	<text x="25" y="375" text-anchor="end">0</text>
	<text x="25" y="263.417018" text-anchor="end">5</text>
	<text x="25" y="151.834036" text-anchor="end">10</text>
	<text x="25" y="40.251054" text-anchor="end">15</text>
	<text style="text-anchor:middle;dominant-baseline:hanging;font-weight:bold;transform: translateY(192.5px) rotate(-90deg);"></text>
</g>
<g class="graph-grid graph-grid-x">
	<line class="tick" x1="74.61" y1="375.00" x2="74.61" y2="380.00"></line>
	<text x="74.6069868995633" y="375" text-anchor="middle">A</text>
	<line class="tick" x1="134.21" y1="375.00" x2="134.21" y2="380.00"></line>
	<text x="134.213973799127" y="375" text-anchor="middle">M</text>
	<line class="tick" x1="195.81" y1="375.00" x2="195.81" y2="380.00"></line>
	<text x="195.807860262009" y="375" text-anchor="middle">J</text>
	<line class="tick" x1="255.41" y1="375.00" x2="255.41" y2="380.00"></line>
	<text x="255.414847161572" y="375" text-anchor="middle">J</text>
	<line class="tick" x1="317.01" y1="375.00" x2="317.01" y2="380.00"></line>
	<text x="317.008733624454" y="375" text-anchor="middle">A</text>
	<line class="tick" x1="378.60" y1="375.00" x2="378.60" y2="380.00"></line>
	<text x="378.602620087336" y="375" text-anchor="middle">S</text>
	<line class="tick" x1="438.21" y1="375.00" x2="438.21" y2="380.00"></line>
	<text x="438.2096069869" y="375" text-anchor="middle">O</text>
	<text style="text-anchor:middle;dominant-baseline:hanging;font-weight:bold;transform: translateY(192.5px) rotate(-90deg);"></text>
</g>
<g data-series="widespread" class="data-series">
	<path d="M 15.00,218.78L 470.00,218.78" id="E07000220-level-0" class="line" stroke-width="1" stroke-linecap="round" stroke-dasharray="3,3" fill-opacity="0.3" opacity="0.3"><title>Widespread</title></path>
</g>
<g data-series="substantial" class="data-series">
	<path d="M 15.00,285.73L 470.00,285.73" id="E07000220-level-1" class="line" stroke-width="1" stroke-linecap="round" stroke-dasharray="3,3" fill-opacity="0.3" opacity="0.3"><title>Substantial</title></path>
</g>
<g data-series="moderate" class="data-series">
	<path d="M 15.00,352.68L 470.00,352.68" id="E07000220-level-2" class="line" stroke-width="1" stroke-linecap="round" stroke-dasharray="3,3" fill-opacity="0.3" opacity="0.3"><title>Moderate</title></path>
</g>
<g data-series="new-cases" class="data-series">
	<path d="M 15.00,364.78L 16.99,366.82L 18.97,368.19L 20.96,369.16L 22.95,372.08L 24.93,369.16L 26.92,372.08L 28.91,369.16L 30.90,366.24L 32.88,366.24L 34.87,366.24L 36.86,366.24L 38.84,369.16L 40.83,360.40L 42.82,363.32L 44.80,354.56L 46.79,348.72L 48.78,345.80L 50.76,342.88L 52.75,339.96L 54.74,339.96L 56.72,337.04L 58.71,345.80L 60.70,339.96L 62.69,331.20L 64.67,325.36L 66.66,325.36L 68.65,328.28L 70.63,325.36L 72.62,296.16L 74.61,293.24L 76.59,302.00L 78.58,293.24L 80.57,278.64L 82.55,275.72L 84.54,261.12L 86.53,284.48L 88.52,287.40L 90.50,275.72L 92.49,284.48L 94.48,299.08L 96.46,304.92L 98.45,310.76L 100.44,299.08L 102.42,269.88L 104.41,275.72L 106.40,264.04L 108.38,261.12L 110.37,237.76L 112.36,237.76L 114.34,240.68L 116.33,261.12L 118.32,229.00L 120.31,220.24L 122.29,220.24L 124.28,220.24L 126.27,205.64L 128.25,205.64L 130.24,214.40L 132.23,249.44L 134.21,269.88L 136.20,258.20L 138.19,261.12L 140.17,229.00L 142.16,220.24L 144.15,231.92L 146.14,231.92L 148.12,226.08L 150.11,234.84L 152.10,252.36L 154.08,296.16L 156.07,313.68L 158.06,304.92L 160.04,307.84L 162.03,310.76L 164.02,287.40L 166.00,290.32L 167.99,296.16L 169.98,299.08L 171.97,296.16L 173.95,296.16L 175.94,293.24L 177.93,316.60L 179.91,310.76L 181.90,310.76L 183.89,316.60L 185.87,325.36L 187.86,328.28L 189.85,339.96L 191.83,348.72L 193.82,357.48L 195.81,369.16L 197.79,369.16L 199.78,366.24L 201.77,363.32L 203.76,357.48L 205.74,354.56L 207.73,354.56L 209.72,351.64L 211.70,351.64L 213.69,357.48L 215.68,360.40L 217.66,363.32L 219.65,366.24L 221.64,366.24L 223.62,366.24L 225.61,366.24L 227.60,366.24L 229.59,366.24L 231.57,369.16L 233.56,369.16L 235.55,366.24L 237.53,369.16L 239.52,369.16L 241.51,363.32L 243.49,363.32L 245.48,360.40L 247.47,354.56L 249.45,351.64L 251.44,348.72L 253.43,345.80L 255.41,348.72L 257.40,348.72L 259.39,351.64L 261.38,357.48L 263.36,351.64L 265.35,348.72L 267.34,339.96L 269.32,339.96L 271.31,337.04L 273.30,339.96L 275.28,337.04L 277.27,348.72L 279.26,348.72L 281.24,360.40L 283.23,360.40L 285.22,363.32L 287.21,363.32L 289.19,366.24L 291.18,363.32L 293.17,369.16L 295.15,369.16L 297.14,369.16L 299.13,363.32L 301.11,363.32L 303.10,363.32L 305.09,360.40L 307.07,360.40L 309.06,354.56L 311.05,348.72L 313.03,351.64L 315.02,339.96L 317.01,331.20L 319.00,334.12L 320.98,334.12L 322.97,334.12L 324.96,342.88L 326.94,342.88L 328.93,348.72L 330.92,348.72L 332.90,348.72L 334.89,348.72L 336.88,345.80L 338.86,342.88L 340.85,339.96L 342.84,339.96L 344.83,342.88L 346.81,345.80L 348.80,342.88L 350.79,351.64L 352.77,351.64L 354.76,357.48L 356.75,357.48L 358.73,360.40L 360.72,351.64L 362.71,351.64L 364.69,351.64L 366.68,354.56L 368.67,351.64L 370.66,351.64L 372.64,351.64L 374.63,348.72L 376.62,337.04L 378.60,307.84L 380.59,290.32L 382.58,284.48L 384.56,275.72L 386.55,269.88L 388.54,264.04L 390.52,231.92L 392.51,231.92L 394.50,220.24L 396.48,205.64L 398.47,196.88L 400.46,185.20L 402.45,164.76L 404.43,196.88L 406.42,191.04L 408.41,182.28L 410.39,170.60L 412.38,170.60L 414.37,170.60L 416.35,182.28L 418.34,176.44L 420.33,185.20L 422.31,188.12L 424.30,205.64L 426.29,199.80L 428.28,188.12L 430.26,188.12L 432.25,161.84L 434.24,123.88L 436.22,112.20L 438.21,103.44L 440.20,88.84L 442.18,56.72L 444.17,30.44L 446.16,10.00L 448.14,30.44L 450.13,36.28L 452.12,24.60L 454.10,30.44L 456.09,30.44L 458.08,33.36L 460.07,59.64" id="New cases" class="line" stroke-width="1" stroke-linecap="round"><title>New cases</title></path>
	<circle cx="15.00" cy="364.78" data-y="0.46" data-x="1583107200" r="1" fill="white"><title>2020-03-02: 0</title></circle>
	<circle cx="16.99" cy="366.82" data-y="0.37" data-x="1583193600" r="1" fill="white"><title>2020-03-03: 0</title></circle>
	<circle cx="18.97" cy="368.19" data-y="0.31" data-x="1583280000" r="1" fill="white"><title>2020-03-04: 0</title></circle>
	<circle cx="20.96" cy="369.16" data-y="0.26" data-x="1583366400" r="1" fill="white"><title>2020-03-05: 0</title></circle>
	<circle cx="22.95" cy="372.08" data-y="0.13" data-x="1583452800" r="1" fill="white"><title>2020-03-06: 0</title></circle>
	<circle cx="24.93" cy="369.16" data-y="0.26" data-x="1583539200" r="1" fill="white"><title>2020-03-07: 0</title></circle>
	<circle cx="26.92" cy="372.08" data-y="0.13" data-x="1583625600" r="1" fill="white"><title>2020-03-08: 0</title></circle>
	<circle cx="28.91" cy="369.16" data-y="0.26" data-x="1583712000" r="1" fill="white"><title>2020-03-09: 0</title></circle>
	<circle cx="30.90" cy="366.24" data-y="0.39" data-x="1583798400" r="1" fill="white"><title>2020-03-10: 0</title></circle>
	<circle cx="32.88" cy="366.24" data-y="0.39" data-x="1583884800" r="1" fill="white"><title>2020-03-11: 0</title></circle>
	<circle cx="34.87" cy="366.24" data-y="0.39" data-x="1583971200" r="1" fill="white"><title>2020-03-12: 0</title></circle>
	<circle cx="36.86" cy="366.24" data-y="0.39" data-x="1584057600" r="1" fill="white"><title>2020-03-13: 0</title></circle>
	<circle cx="38.84" cy="369.16" data-y="0.26" data-x="1584144000" r="1" fill="white"><title>2020-03-14: 0</title></circle>
	<circle cx="40.83" cy="360.40" data-y="0.65" data-x="1584230400" r="1" fill="white"><title>2020-03-15: 1</title></circle>
	<circle cx="42.82" cy="363.32" data-y="0.52" data-x="1584316800" r="1" fill="white"><title>2020-03-16: 1</title></circle>
	<circle cx="44.80" cy="354.56" data-y="0.92" data-x="1584403200" r="1" fill="white"><title>2020-03-17: 1</title></circle>
	<circle cx="46.79" cy="348.72" data-y="1.18" data-x="1584489600" r="1" fill="white"><title>2020-03-18: 1</title></circle>
	<circle cx="48.78" cy="345.80" data-y="1.31" data-x="1584576000" r="1" fill="white"><title>2020-03-19: 1</title></circle>
	<circle cx="50.76" cy="342.88" data-y="1.44" data-x="1584662400" r="1" fill="white"><title>2020-03-20: 1</title></circle>
	<circle cx="52.75" cy="339.96" data-y="1.57" data-x="1584748800" r="1" fill="white"><title>2020-03-21: 2</title></circle>
	<circle cx="54.74" cy="339.96" data-y="1.57" data-x="1584835200" r="1" fill="white"><title>2020-03-22: 2</title></circle>
	<circle cx="56.72" cy="337.04" data-y="1.70" data-x="1584921600" r="1" fill="white"><title>2020-03-23: 2</title></circle>
	<circle cx="58.71" cy="345.80" data-y="1.31" data-x="1585008000" r="1" fill="white"><title>2020-03-24: 1</title></circle>
	<circle cx="60.70" cy="339.96" data-y="1.57" data-x="1585094400" r="1" fill="white"><title>2020-03-25: 2</title></circle>
	<circle cx="62.69" cy="331.20" data-y="1.96" data-x="1585180800" r="1" fill="white"><title>2020-03-26: 2</title></circle>
	<circle cx="64.67" cy="325.36" data-y="2.22" data-x="1585267200" r="1" fill="white"><title>2020-03-27: 2</title></circle>
	<circle cx="66.66" cy="325.36" data-y="2.22" data-x="1585353600" r="1" fill="white"><title>2020-03-28: 2</title></circle>
	<circle cx="68.65" cy="328.28" data-y="2.09" data-x="1585440000" r="1" fill="white"><title>2020-03-29: 2</title></circle>
	<circle cx="70.63" cy="325.36" data-y="2.22" data-x="1585526400" r="1" fill="white"><title>2020-03-30: 2</title></circle>
	<circle cx="72.62" cy="296.16" data-y="3.53" data-x="1585612800" r="1" fill="white"><title>2020-03-31: 4</title></circle>
	<circle cx="74.61" cy="293.24" data-y="3.66" data-x="1585699200" r="1" fill="white"><title>2020-04-01: 4</title></circle>
	<circle cx="76.59" cy="302.00" data-y="3.27" data-x="1585785600" r="1" fill="white"><title>2020-04-02: 3</title></circle>
	<circle cx="78.58" cy="293.24" data-y="3.66" data-x="1585872000" r="1" fill="white"><title>2020-04-03: 4</title></circle>
	<circle cx="80.57" cy="278.64" data-y="4.32" data-x="1585958400" r="1" fill="white"><title>2020-04-04: 4</title></circle>
	<circle cx="82.55" cy="275.72" data-y="4.45" data-x="1586044800" r="1" fill="white"><title>2020-04-05: 4</title></circle>
	<circle cx="84.54" cy="261.12" data-y="5.10" data-x="1586131200" r="1" fill="white"><title>2020-04-06: 5</title></circle>
	<circle cx="86.53" cy="284.48" data-y="4.06" data-x="1586217600" r="1" fill="white"><title>2020-04-07: 4</title></circle>
	<circle cx="88.52" cy="287.40" data-y="3.93" data-x="1586304000" r="1" fill="white"><title>2020-04-08: 4</title></circle>
	<circle cx="90.50" cy="275.72" data-y="4.45" data-x="1586390400" r="1" fill="white"><title>2020-04-09: 4</title></circle>
	<circle cx="92.49" cy="284.48" data-y="4.06" data-x="1586476800" r="1" fill="white"><title>2020-04-10: 4</title></circle>
	<circle cx="94.48" cy="299.08" data-y="3.40" data-x="1586563200" r="1" fill="white"><title>2020-04-11: 3</title></circle>
	<circle cx="96.46" cy="304.92" data-y="3.14" data-x="1586649600" r="1" fill="white"><title>2020-04-12: 3</title></circle>
	<circle cx="98.45" cy="310.76" data-y="2.88" data-x="1586736000" r="1" fill="white"><title>2020-04-13: 3</title></circle>
	<circle cx="100.44" cy="299.08" data-y="3.40" data-x="1586822400" r="1" fill="white"><title>2020-04-14: 3</title></circle>
	<circle cx="102.42" cy="269.88" data-y="4.71" data-x="1586908800" r="1" fill="white"><title>2020-04-15: 5</title></circle>
	<circle cx="104.41" cy="275.72" data-y="4.45" data-x="1586995200" r="1" fill="white"><title>2020-04-16: 4</title></circle>
	<circle cx="106.40" cy="264.04" data-y="4.97" data-x="1587081600" r="1" fill="white"><title>2020-04-17: 5</title></circle>
	<circle cx="108.38" cy="261.12" data-y="5.10" data-x="1587168000" r="1" fill="white"><title>2020-04-18: 5</title></circle>
	<circle cx="110.37" cy="237.76" data-y="6.15" data-x="1587254400" r="1" fill="white"><title>2020-04-19: 6</title></circle>
	<circle cx="112.36" cy="237.76" data-y="6.15" data-x="1587340800" r="1" fill="white"><title>2020-04-20: 6</title></circle>
	<circle cx="114.34" cy="240.68" data-y="6.02" data-x="1587427200" r="1" fill="white"><title>2020-04-21: 6</title></circle>
	<circle cx="116.33" cy="261.12" data-y="5.10" data-x="1587513600" r="1" fill="white"><title>2020-04-22: 5</title></circle>
	<circle cx="118.32" cy="229.00" data-y="6.54" data-x="1587600000" r="1" fill="white"><title>2020-04-23: 7</title></circle>
	<circle cx="120.31" cy="220.24" data-y="6.93" data-x="1587686400" r="1" fill="white"><title>2020-04-24: 7</title></circle>
	<circle cx="122.29" cy="220.24" data-y="6.93" data-x="1587772800" r="1" fill="white"><title>2020-04-25: 7</title></circle>
	<circle cx="124.28" cy="220.24" data-y="6.93" data-x="1587859200" r="1" fill="white"><title>2020-04-26: 7</title></circle>
	<circle cx="126.27" cy="205.64" data-y="7.59" data-x="1587945600" r="1" fill="white"><title>2020-04-27: 8</title></circle>
	<circle cx="128.25" cy="205.64" data-y="7.59" data-x="1588032000" r="1" fill="white"><title>2020-04-28: 8</title></circle>
	<circle cx="130.24" cy="214.40" data-y="7.20" data-x="1588118400" r="1" fill="white"><title>2020-04-29: 7</title></circle>
	<circle cx="132.23" cy="249.44" data-y="5.63" data-x="1588204800" r="1" fill="white"><title>2020-04-30: 6</title></circle>
	<circle cx="134.21" cy="269.88" data-y="4.71" data-x="1588291200" r="1" fill="white"><title>2020-05-01: 5</title></circle>
	<circle cx="136.20" cy="258.20" data-y="5.23" data-x="1588377600" r="1" fill="white"><title>2020-05-02: 5</title></circle>
	<circle cx="138.19" cy="261.12" data-y="5.10" data-x="1588464000" r="1" fill="white"><title>2020-05-03: 5</title></circle>
	<circle cx="140.17" cy="229.00" data-y="6.54" data-x="1588550400" r="1" fill="white"><title>2020-05-04: 7</title></circle>
	<circle cx="142.16" cy="220.24" data-y="6.93" data-x="1588636800" r="1" fill="white"><title>2020-05-05: 7</title></circle>
	<circle cx="144.15" cy="231.92" data-y="6.41" data-x="1588723200" r="1" fill="white"><title>2020-05-06: 6</title></circle>
	<circle cx="146.14" cy="231.92" data-y="6.41" data-x="1588809600" r="1" fill="white"><title>2020-05-07: 6</title></circle>
	<circle cx="148.12" cy="226.08" data-y="6.67" data-x="1588896000" r="1" fill="white"><title>2020-05-08: 7</title></circle>
	<circle cx="150.11" cy="234.84" data-y="6.28" data-x="1588982400" r="1" fill="white"><title>2020-05-09: 6</title></circle>
	<circle cx="152.10" cy="252.36" data-y="5.50" data-x="1589068800" r="1" fill="white"><title>2020-05-10: 5</title></circle>
	<circle cx="154.08" cy="296.16" data-y="3.53" data-x="1589155200" r="1" fill="white"><title>2020-05-11: 4</title></circle>
	<circle cx="156.07" cy="313.68" data-y="2.75" data-x="1589241600" r="1" fill="white"><title>2020-05-12: 3</title></circle>
	<circle cx="158.06" cy="304.92" data-y="3.14" data-x="1589328000" r="1" fill="white"><title>2020-05-13: 3</title></circle>
	<circle cx="160.04" cy="307.84" data-y="3.01" data-x="1589414400" r="1" fill="white"><title>2020-05-14: 3</title></circle>
	<circle cx="162.03" cy="310.76" data-y="2.88" data-x="1589500800" r="1" fill="white"><title>2020-05-15: 3</title></circle>
	<circle cx="164.02" cy="287.40" data-y="3.93" data-x="1589587200" r="1" fill="white"><title>2020-05-16: 4</title></circle>
	<circle cx="166.00" cy="290.32" data-y="3.79" data-x="1589673600" r="1" fill="white"><title>2020-05-17: 4</title></circle>
	<circle cx="167.99" cy="296.16" data-y="3.53" data-x="1589760000" r="1" fill="white"><title>2020-05-18: 4</title></circle>
	<circle cx="169.98" cy="299.08" data-y="3.40" data-x="1589846400" r="1" fill="white"><title>2020-05-19: 3</title></circle>
	<circle cx="171.97" cy="296.16" data-y="3.53" data-x="1589932800" r="1" fill="white"><title>2020-05-20: 4</title></circle>
	<circle cx="173.95" cy="296.16" data-y="3.53" data-x="1590019200" r="1" fill="white"><title>2020-05-21: 4</title></circle>
	<circle cx="175.94" cy="293.24" data-y="3.66" data-x="1590105600" r="1" fill="white"><title>2020-05-22: 4</title></circle>
	<circle cx="177.93" cy="316.60" data-y="2.62" data-x="1590192000" r="1" fill="white"><title>2020-05-23: 3</title></circle>
	<circle cx="179.91" cy="310.76" data-y="2.88" data-x="1590278400" r="1" fill="white"><title>2020-05-24: 3</title></circle>
	<circle cx="181.90" cy="310.76" data-y="2.88" data-x="1590364800" r="1" fill="white"><title>2020-05-25: 3</title></circle>
	<circle cx="183.89" cy="316.60" data-y="2.62" data-x="1590451200" r="1" fill="white"><title>2020-05-26: 3</title></circle>
	<circle cx="185.87" cy="325.36" data-y="2.22" data-x="1590537600" r="1" fill="white"><title>2020-05-27: 2</title></circle>
	<circle cx="187.86" cy="328.28" data-y="2.09" data-x="1590624000" r="1" fill="white"><title>2020-05-28: 2</title></circle>
	<circle cx="189.85" cy="339.96" data-y="1.57" data-x="1590710400" r="1" fill="white"><title>2020-05-29: 2</title></circle>
	<circle cx="191.83" cy="348.72" data-y="1.18" data-x="1590796800" r="1" fill="white"><title>2020-05-30: 1</title></circle>
	<circle cx="193.82" cy="357.48" data-y="0.79" data-x="1590883200" r="1" fill="white"><title>2020-05-31: 1</title></circle>
	<circle cx="195.81" cy="369.16" data-y="0.26" data-x="1590969600" r="1" fill="white"><title>2020-06-01: 0</title></circle>
	<circle cx="197.79" cy="369.16" data-y="0.26" data-x="1591056000" r="1" fill="white"><title>2020-06-02: 0</title></circle>
	<circle cx="199.78" cy="366.24" data-y="0.39" data-x="1591142400" r="1" fill="white"><title>2020-06-03: 0</title></circle>
	<circle cx="201.77" cy="363.32" data-y="0.52" data-x="1591228800" r="1" fill="white"><title>2020-06-04: 1</title></circle>
	<circle cx="203.76" cy="357.48" data-y="0.79" data-x="1591315200" r="1" fill="white"><title>2020-06-05: 1</title></circle>
	<circle cx="205.74" cy="354.56" data-y="0.92" data-x="1591401600" r="1" fill="white"><title>2020-06-06: 1</title></circle>
	<circle cx="207.73" cy="354.56" data-y="0.92" data-x="1591488000" r="1" fill="white"><title>2020-06-07: 1</title></circle>
	<circle cx="209.72" cy="351.64" data-y="1.05" data-x="1591574400" r="1" fill="white"><title>2020-06-08: 1</title></circle>
	<circle cx="211.70" cy="351.64" data-y="1.05" data-x="1591660800" r="1" fill="white"><title>2020-06-09: 1</title></circle>
	<circle cx="213.69" cy="357.48" data-y="0.79" data-x="1591747200" r="1" fill="white"><title>2020-06-10: 1</title></circle>
	<circle cx="215.68" cy="360.40" data-y="0.65" data-x="1591833600" r="1" fill="white"><title>2020-06-11: 1</title></circle>
	<circle cx="217.66" cy="363.32" data-y="0.52" data-x="1591920000" r="1" fill="white"><title>2020-06-12: 1</title></circle>
	<circle cx="219.65" cy="366.24" data-y="0.39" data-x="1592006400" r="1" fill="white"><title>2020-06-13: 0</title></circle>
	<circle cx="221.64" cy="366.24" data-y="0.39" data-x="1592092800" r="1" fill="white"><title>2020-06-14: 0</title></circle>
	<circle cx="223.62" cy="366.24" data-y="0.39" data-x="1592179200" r="1" fill="white"><title>2020-06-15: 0</title></circle>
	<circle cx="225.61" cy="366.24" data-y="0.39" data-x="1592265600" r="1" fill="white"><title>2020-06-16: 0</title></circle>
	<circle cx="227.60" cy="366.24" data-y="0.39" data-x="1592352000" r="1" fill="white"><title>2020-06-17: 0</title></circle>
	<circle cx="229.59" cy="366.24" data-y="0.39" data-x="1592438400" r="1" fill="white"><title>2020-06-18: 0</title></circle>
	<circle cx="231.57" cy="369.16" data-y="0.26" data-x="1592524800" r="1" fill="white"><title>2020-06-19: 0</title></circle>
	<circle cx="233.56" cy="369.16" data-y="0.26" data-x="1592611200" r="1" fill="white"><title>2020-06-20: 0</title></circle>
	<circle cx="235.55" cy="366.24" data-y="0.39" data-x="1592697600" r="1" fill="white"><title>2020-06-21: 0</title></circle>
	<circle cx="237.53" cy="369.16" data-y="0.26" data-x="1592784000" r="1" fill="white"><title>2020-06-22: 0</title></circle>
	<circle cx="239.52" cy="369.16" data-y="0.26" data-x="1592870400" r="1" fill="white"><title>2020-06-23: 0</title></circle>
	<circle cx="241.51" cy="363.32" data-y="0.52" data-x="1592956800" r="1" fill="white"><title>2020-06-24: 1</title></circle>
	<circle cx="243.49" cy="363.32" data-y="0.52" data-x="1593043200" r="1" fill="white"><title>2020-06-25: 1</title></circle>
	<circle cx="245.48" cy="360.40" data-y="0.65" data-x="1593129600" r="1" fill="white"><title>2020-06-26: 1</title></circle>
	<circle cx="247.47" cy="354.56" data-y="0.92" data-x="1593216000" r="1" fill="white"><title>2020-06-27: 1</title></circle>
	<circle cx="249.45" cy="351.64" data-y="1.05" data-x="1593302400" r="1" fill="white"><title>2020-06-28: 1</title></circle>
	<circle cx="251.44" cy="348.72" data-y="1.18" data-x="1593388800" r="1" fill="white"><title>2020-06-29: 1</title></circle>
	<circle cx="253.43" cy="345.80" data-y="1.31" data-x="1593475200" r="1" fill="white"><title>2020-06-30: 1</title></circle>
	<circle cx="255.41" cy="348.72" data-y="1.18" data-x="1593561600" r="1" fill="white"><title>2020-07-01: 1</title></circle>
	<circle cx="257.40" cy="348.72" data-y="1.18" data-x="1593648000" r="1" fill="white"><title>2020-07-02: 1</title></circle>
	<circle cx="259.39" cy="351.64" data-y="1.05" data-x="1593734400" r="1" fill="white"><title>2020-07-03: 1</title></circle>
	<circle cx="261.38" cy="357.48" data-y="0.79" data-x="1593820800" r="1" fill="white"><title>2020-07-04: 1</title></circle>
	<circle cx="263.36" cy="351.64" data-y="1.05" data-x="1593907200" r="1" fill="white"><title>2020-07-05: 1</title></circle>
	<circle cx="265.35" cy="348.72" data-y="1.18" data-x="1593993600" r="1" fill="white"><title>2020-07-06: 1</title></circle>
	<circle cx="267.34" cy="339.96" data-y="1.57" data-x="1594080000" r="1" fill="white"><title>2020-07-07: 2</title></circle>
	<circle cx="269.32" cy="339.96" data-y="1.57" data-x="1594166400" r="1" fill="white"><title>2020-07-08: 2</title></circle>
	<circle cx="271.31" cy="337.04" data-y="1.70" data-x="1594252800" r="1" fill="white"><title>2020-07-09: 2</title></circle>
	<circle cx="273.30" cy="339.96" data-y="1.57" data-x="1594339200" r="1" fill="white"><title>2020-07-10: 2</title></circle>
	<circle cx="275.28" cy="337.04" data-y="1.70" data-x="1594425600" r="1" fill="white"><title>2020-07-11: 2</title></circle>
	<circle cx="277.27" cy="348.72" data-y="1.18" data-x="1594512000" r="1" fill="white"><title>2020-07-12: 1</title></circle>
	<circle cx="279.26" cy="348.72" data-y="1.18" data-x="1594598400" r="1" fill="white"><title>2020-07-13: 1</title></circle>
	<circle cx="281.24" cy="360.40" data-y="0.65" data-x="1594684800" r="1" fill="white"><title>2020-07-14: 1</title></circle>
	<circle cx="283.23" cy="360.40" data-y="0.65" data-x="1594771200" r="1" fill="white"><title>2020-07-15: 1</title></circle>
	<circle cx="285.22" cy="363.32" data-y="0.52" data-x="1594857600" r="1" fill="white"><title>2020-07-16: 1</title></circle>
	<circle cx="287.21" cy="363.32" data-y="0.52" data-x="1594944000" r="1" fill="white"><title>2020-07-17: 1</title></circle>
	<circle cx="289.19" cy="366.24" data-y="0.39" data-x="1595030400" r="1" fill="white"><title>2020-07-18: 0</title></circle>
	<circle cx="291.18" cy="363.32" data-y="0.52" data-x="1595116800" r="1" fill="white"><title>2020-07-19: 1</title></circle>
	<circle cx="293.17" cy="369.16" data-y="0.26" data-x="1595203200" r="1" fill="white"><title>2020-07-20: 0</title></circle>
	<circle cx="295.15" cy="369.16" data-y="0.26" data-x="1595289600" r="1" fill="white"><title>2020-07-21: 0</title></circle>
	<circle cx="297.14" cy="369.16" data-y="0.26" data-x="1595376000" r="1" fill="white"><title>2020-07-22: 0</title></circle>
	<circle cx="299.13" cy="363.32" data-y="0.52" data-x="1595462400" r="1" fill="white"><title>2020-07-23: 1</title></circle>
	<circle cx="301.11" cy="363.32" data-y="0.52" data-x="1595548800" r="1" fill="white"><title>2020-07-24: 1</title></circle>
	<circle cx="303.10" cy="363.32" data-y="0.52" data-x="1595635200" r="1" fill="white"><title>2020-07-25: 1</title></circle>
	<circle cx="305.09" cy="360.40" data-y="0.65" data-x="1595721600" r="1" fill="white"><title>2020-07-26: 1</title></circle>
	<circle cx="307.07" cy="360.40" data-y="0.65" data-x="1595808000" r="1" fill="white"><title>2020-07-27: 1</title></circle>
	<circle cx="309.06" cy="354.56" data-y="0.92" data-x="1595894400" r="1" fill="white"><title>2020-07-28: 1</title></circle>
	<circle cx="311.05" cy="348.72" data-y="1.18" data-x="1595980800" r="1" fill="white"><title>2020-07-29: 1</title></circle>
	<circle cx="313.03" cy="351.64" data-y="1.05" data-x="1596067200" r="1" fill="white"><title>2020-07-30: 1</title></circle>
	<circle cx="315.02" cy="339.96" data-y="1.57" data-x="1596153600" r="1" fill="white"><title>2020-07-31: 2</title></circle>
	<circle cx="317.01" cy="331.20" data-y="1.96" data-x="1596240000" r="1" fill="white"><title>2020-08-01: 2</title></circle>
	<circle cx="319.00" cy="334.12" data-y="1.83" data-x="1596326400" r="1" fill="white"><title>2020-08-02: 2</title></circle>
	<circle cx="320.98" cy="334.12" data-y="1.83" data-x="1596412800" r="1" fill="white"><title>2020-08-03: 2</title></circle>
	<circle cx="322.97" cy="334.12" data-y="1.83" data-x="1596499200" r="1" fill="white"><title>2020-08-04: 2</title></circle>
	<circle cx="324.96" cy="342.88" data-y="1.44" data-x="1596585600" r="1" fill="white"><title>2020-08-05: 1</title></circle>
	<circle cx="326.94" cy="342.88" data-y="1.44" data-x="1596672000" r="1" fill="white"><title>2020-08-06: 1</title></circle>
	<circle cx="328.93" cy="348.72" data-y="1.18" data-x="1596758400" r="1" fill="white"><title>2020-08-07: 1</title></circle>
	<circle cx="330.92" cy="348.72" data-y="1.18" data-x="1596844800" r="1" fill="white"><title>2020-08-08: 1</title></circle>
	<circle cx="332.90" cy="348.72" data-y="1.18" data-x="1596931200" r="1" fill="white"><title>2020-08-09: 1</title></circle>
	<circle cx="334.89" cy="348.72" data-y="1.18" data-x="1597017600" r="1" fill="white"><title>2020-08-10: 1</title></circle>
	<circle cx="336.88" cy="345.80" data-y="1.31" data-x="1597104000" r="1" fill="white"><title>2020-08-11: 1</title></circle>
	<circle cx="338.86" cy="342.88" data-y="1.44" data-x="1597190400" r="1" fill="white"><title>2020-08-12: 1</title></circle>
	<circle cx="340.85" cy="339.96" data-y="1.57" data-x="1597276800" r="1" fill="white"><title>2020-08-13: 2</title></circle>
	<circle cx="342.84" cy="339.96" data-y="1.57" data-x="1597363200" r="1" fill="white"><title>2020-08-14: 2</title></circle>
	<circle cx="344.83" cy="342.88" data-y="1.44" data-x="1597449600" r="1" fill="white"><title>2020-08-15: 1</title></circle>
	<circle cx="346.81" cy="345.80" data-y="1.31" data-x="1597536000" r="1" fill="white"><title>2020-08-16: 1</title></circle>
	<circle cx="348.80" cy="342.88" data-y="1.44" data-x="1597622400" r="1" fill="white"><title>2020-08-17: 1</title></circle>
	<circle cx="350.79" cy="351.64" data-y="1.05" data-x="1597708800" r="1" fill="white"><title>2020-08-18: 1</title></circle>
	<circle cx="352.77" cy="351.64" data-y="1.05" data-x="1597795200" r="1" fill="white"><title>2020-08-19: 1</title></circle>
	<circle cx="354.76" cy="357.48" data-y="0.79" data-x="1597881600" r="1" fill="white"><title>2020-08-20: 1</title></circle>
	<circle cx="356.75" cy="357.48" data-y="0.79" data-x="1597968000" r="1" fill="white"><title>2020-08-21: 1</title></circle>
	<circle cx="358.73" cy="360.40" data-y="0.65" data-x="1598054400" r="1" fill="white"><title>2020-08-22: 1</title></circle>
	<circle cx="360.72" cy="351.64" data-y="1.05" data-x="1598140800" r="1" fill="white"><title>2020-08-23: 1</title></circle>
	<circle cx="362.71" cy="351.64" data-y="1.05" data-x="1598227200" r="1" fill="white"><title>2020-08-24: 1</title></circle>
	<circle cx="364.69" cy="351.64" data-y="1.05" data-x="1598313600" r="1" fill="white"><title>2020-08-25: 1</title></circle>
	<circle cx="366.68" cy="354.56" data-y="0.92" data-x="1598400000" r="1" fill="white"><title>2020-08-26: 1</title></circle>
	<circle cx="368.67" cy="351.64" data-y="1.05" data-x="1598486400" r="1" fill="white"><title>2020-08-27: 1</title></circle>
	<circle cx="370.66" cy="351.64" data-y="1.05" data-x="1598572800" r="1" fill="white"><title>2020-08-28: 1</title></circle>
	<circle cx="372.64" cy="351.64" data-y="1.05" data-x="1598659200" r="1" fill="white"><title>2020-08-29: 1</title></circle>
	<circle cx="374.63" cy="348.72" data-y="1.18" data-x="1598745600" r="1" fill="white"><title>2020-08-30: 1</title></circle>
	<circle cx="376.62" cy="337.04" data-y="1.70" data-x="1598832000" r="1" fill="white"><title>2020-08-31: 2</title></circle>
	<circle cx="378.60" cy="307.84" data-y="3.01" data-x="1598918400" r="1" fill="white"><title>2020-09-01: 3</title></circle>
	<circle cx="380.59" cy="290.32" data-y="3.79" data-x="1599004800" r="1" fill="white"><title>2020-09-02: 4</title></circle>
	<circle cx="382.58" cy="284.48" data-y="4.06" data-x="1599091200" r="1" fill="white"><title>2020-09-03: 4</title></circle>
	<circle cx="384.56" cy="275.72" data-y="4.45" data-x="1599177600" r="1" fill="white"><title>2020-09-04: 4</title></circle>
	<circle cx="386.55" cy="269.88" data-y="4.71" data-x="1599264000" r="1" fill="white"><title>2020-09-05: 5</title></circle>
	<circle cx="388.54" cy="264.04" data-y="4.97" data-x="1599350400" r="1" fill="white"><title>2020-09-06: 5</title></circle>
	<circle cx="390.52" cy="231.92" data-y="6.41" data-x="1599436800" r="1" fill="white"><title>2020-09-07: 6</title></circle>
	<circle cx="392.51" cy="231.92" data-y="6.41" data-x="1599523200" r="1" fill="white"><title>2020-09-08: 6</title></circle>
	<circle cx="394.50" cy="220.24" data-y="6.93" data-x="1599609600" r="1" fill="white"><title>2020-09-09: 7</title></circle>
	<circle cx="396.48" cy="205.64" data-y="7.59" data-x="1599696000" r="1" fill="white"><title>2020-09-10: 8</title></circle>
	<circle cx="398.47" cy="196.88" data-y="7.98" data-x="1599782400" r="1" fill="white"><title>2020-09-11: 8</title></circle>
	<circle cx="400.46" cy="185.20" data-y="8.50" data-x="1599868800" r="1" fill="white"><title>2020-09-12: 9</title></circle>
	<circle cx="402.45" cy="164.76" data-y="9.42" data-x="1599955200" r="1" fill="white"><title>2020-09-13: 9</title></circle>
	<circle cx="404.43" cy="196.88" data-y="7.98" data-x="1600041600" r="1" fill="white"><title>2020-09-14: 8</title></circle>
	<circle cx="406.42" cy="191.04" data-y="8.24" data-x="1600128000" r="1" fill="white"><title>2020-09-15: 8</title></circle>
	<circle cx="408.41" cy="182.28" data-y="8.64" data-x="1600214400" r="1" fill="white"><title>2020-09-16: 9</title></circle>
	<circle cx="410.39" cy="170.60" data-y="9.16" data-x="1600300800" r="1" fill="white"><title>2020-09-17: 9</title></circle>
	<circle cx="412.38" cy="170.60" data-y="9.16" data-x="1600387200" r="1" fill="white"><title>2020-09-18: 9</title></circle>
	<circle cx="414.37" cy="170.60" data-y="9.16" data-x="1600473600" r="1" fill="white"><title>2020-09-19: 9</title></circle>
	<circle cx="416.35" cy="182.28" data-y="8.64" data-x="1600560000" r="1" fill="white"><title>2020-09-20: 9</title></circle>
	<circle cx="418.34" cy="176.44" data-y="8.90" data-x="1600646400" r="1" fill="white"><title>2020-09-21: 9</title></circle>
	<circle cx="420.33" cy="185.20" data-y="8.50" data-x="1600732800" r="1" fill="white"><title>2020-09-22: 9</title></circle>
	<circle cx="422.31" cy="188.12" data-y="8.37" data-x="1600819200" r="1" fill="white"><title>2020-09-23: 8</title></circle>
	<circle cx="424.30" cy="205.64" data-y="7.59" data-x="1600905600" r="1" fill="white"><title>2020-09-24: 8</title></circle>
	<circle cx="426.29" cy="199.80" data-y="7.85" data-x="1600992000" r="1" fill="white"><title>2020-09-25: 8</title></circle>
	<circle cx="428.28" cy="188.12" data-y="8.37" data-x="1601078400" r="1" fill="white"><title>2020-09-26: 8</title></circle>
	<circle cx="430.26" cy="188.12" data-y="8.37" data-x="1601164800" r="1" fill="white"><title>2020-09-27: 8</title></circle>
	<circle cx="432.25" cy="161.84" data-y="9.55" data-x="1601251200" r="1" fill="white"><title>2020-09-28: 10</title></circle>
	<circle cx="434.24" cy="123.88" data-y="11.25" data-x="1601337600" r="1" fill="white"><title>2020-09-29: 11</title></circle>
	<circle cx="436.22" cy="112.20" data-y="11.78" data-x="1601424000" r="1" fill="white"><title>2020-09-30: 12</title></circle>
	<circle cx="438.21" cy="103.44" data-y="12.17" data-x="1601510400" r="1" fill="white"><title>2020-10-01: 12</title></circle>
	<circle cx="440.20" cy="88.84" data-y="12.82" data-x="1601596800" r="1" fill="white"><title>2020-10-02: 13</title></circle>
	<circle cx="442.18" cy="56.72" data-y="14.26" data-x="1601683200" r="1" fill="white"><title>2020-10-03: 14</title></circle>
	<circle cx="444.17" cy="30.44" data-y="15.44" data-x="1601769600" r="1" fill="white"><title>2020-10-04: 15</title></circle>
	<circle cx="446.16" cy="10.00" data-y="16.36" data-x="1601856000" r="1" fill="white"><title>2020-10-05: 16</title></circle>
	<circle cx="448.14" cy="30.44" data-y="15.44" data-x="1601942400" r="1" fill="white"><title>2020-10-06: 15</title></circle>
	<circle cx="450.13" cy="36.28" data-y="15.18" data-x="1602028800" r="1" fill="white"><title>2020-10-07: 15</title></circle>
	<circle cx="452.12" cy="24.60" data-y="15.70" data-x="1602115200" r="1" fill="white"><title>2020-10-08: 16</title></circle>
	<circle cx="454.10" cy="30.44" data-y="15.44" data-x="1602201600" r="1" fill="white"><title>2020-10-09: 15</title></circle>
	<circle cx="456.09" cy="30.44" data-y="15.44" data-x="1602288000" r="1" fill="white"><title>2020-10-10: 15</title></circle>
	<circle cx="458.08" cy="33.36" data-y="15.31" data-x="1602374400" r="1" fill="white"><title>2020-10-11: 15</title></circle>
	<circle cx="460.07" cy="59.64" data-y="14.13" data-x="1602460800" r="1" fill="white"><title>2020-10-12: 14</title></circle>
</g>
<g data-series="recent-cases" class="data-series">
	<path d="M 460.07,59.64L 462.05,100.52L 464.04,141.40L 466.03,146.75L 468.01,154.25L 470.00,211.48" id="Recent cases" class="line" stroke-width="1" stroke-linecap="round" stroke-dasharray="4,6"><title>Recent cases</title></path>
</g>
</svg>
