<svg width="480" height="400" viewBox="0 0 480 400" xmlns="http://www.w3.org/2000/svg" style="overflow:display" preserveAspectRatio="xMinYMin meet" overflow="visible">
<defs>
	<style>
	.data-series path.line { fill-opacity: 0; stroke: black; }
	.data-series path.line.dotted { stroke-dasharray: 12 20 }
	.data-series:hover path.line, .data-series.on path.line { stroke-width: 1; }
	.data-series:hover circle, .data-series.on circle { display: inline; }
	.graph-grid { font-family: "Helvetica Neue",Helvetica,Arial,"Lucida Grande",sans-serif; }
	.graph-grid line { stroke: black; stroke-width: 1; stroke-linecap: round; }
	.graph-grid.graph-grid-x text { text-anchor: middle; dominant-baseline: hanging; transform: translateY(10px); }
	.graph-grid.graph-grid-y text { text-anchor: end; dominant-baseline: middle; transform: translateX(-10px); }
	</style>
</defs>
<g class="graph-grid graph-grid-y">
	<line x1="25.00" y1="375.00" x2="470.00" y2="375.00" data-left="25"></line>
	<text x="35" y="375" text-anchor="end">0</text>
	<text x="35" y="252.631781862745" text-anchor="end">5</text>
	<text x="35" y="130.26356372549" text-anchor="end">10</text>
	<text x="35" y="7.89534558823527" text-anchor="end">15</text>
	<text style="text-anchor:middle;dominant-baseline:hanging;font-weight:bold;transform: translateY(192.5px) rotate(-90deg);"></text>
</g>
<g class="graph-grid graph-grid-x">
	<line class="tick" x1="27.04" y1="375.00" x2="27.04" y2="380.00"></line>
	<text x="27.0412844036697" y="375" text-anchor="middle">A</text>
	<line class="tick" x1="88.28" y1="375.00" x2="88.28" y2="380.00"></line>
	<text x="88.2798165137615" y="375" text-anchor="middle">M</text>
	<line class="tick" x1="151.56" y1="375.00" x2="151.56" y2="380.00"></line>
	<text x="151.559633027523" y="375" text-anchor="middle">J</text>
	<line class="tick" x1="212.80" y1="375.00" x2="212.80" y2="380.00"></line>
	<text x="212.798165137615" y="375" text-anchor="middle">J</text>
	<line class="tick" x1="276.08" y1="375.00" x2="276.08" y2="380.00"></line>
	<text x="276.077981651376" y="375" text-anchor="middle">A</text>
	<line class="tick" x1="339.36" y1="375.00" x2="339.36" y2="380.00"></line>
	<text x="339.357798165138" y="375" text-anchor="middle">S</text>
	<line class="tick" x1="400.60" y1="375.00" x2="400.60" y2="380.00"></line>
	<text x="400.596330275229" y="375" text-anchor="middle">O</text>
	<line class="tick" x1="463.88" y1="375.00" x2="463.88" y2="380.00"></line>
	<text x="463.876146788991" y="375" text-anchor="middle">N</text>
	<text style="text-anchor:middle;dominant-baseline:hanging;font-weight:bold;transform: translateY(192.5px) rotate(-90deg);"></text>
</g>
<g data-series="widespread" class="data-series">
	<path d="M 25.00,203.68L 470.00,203.68" id="E07000043-level-0" class="line" stroke-width="1" stroke-linecap="round" stroke-dasharray="3,3" fill-opacity="0.3" opacity="0.3"><title>Widespread</title></path>
</g>
<g data-series="substantial" class="data-series">
	<path d="M 25.00,277.11L 470.00,277.11" id="E07000043-level-1" class="line" stroke-width="1" stroke-linecap="round" stroke-dasharray="3,3" fill-opacity="0.3" opacity="0.3"><title>Substantial</title></path>
</g>
<g data-series="moderate" class="data-series">
	<path d="M 25.00,350.53L 470.00,350.53" id="E07000043-level-2" class="line" stroke-width="1" stroke-linecap="round" stroke-dasharray="3,3" fill-opacity="0.3" opacity="0.3"><title>Moderate</title></path>
</g>
<g data-series="new-cases" class="data-series">
	<path d="M 25.00,343.69L 27.04,329.91L 29.08,312.38L 31.12,317.75L 33.17,317.75L 35.21,324.90L 37.25,328.48L 39.29,310.59L 41.33,317.75L 43.37,332.06L 45.41,335.64L 47.45,324.90L 49.50,317.75L 51.54,310.59L 53.58,299.85L 55.62,296.27L 57.66,303.43L 59.70,289.12L 61.74,285.54L 63.78,278.38L 65.83,285.54L 67.87,296.27L 69.91,299.85L 71.95,299.85L 73.99,296.27L 76.03,307.01L 78.07,278.38L 80.11,260.49L 82.16,267.65L 84.20,271.23L 86.24,267.65L 88.28,285.54L 90.32,281.96L 92.36,324.90L 94.40,346.37L 96.44,357.11L 98.49,360.69L 100.53,342.79L 102.57,335.64L 104.61,346.37L 106.65,346.37L 108.69,342.79L 110.73,342.79L 112.78,335.64L 114.82,357.11L 116.86,353.53L 118.90,353.53L 120.94,349.95L 122.98,353.53L 125.02,353.53L 127.06,357.11L 129.11,357.11L 131.15,364.26L 133.19,364.26L 135.23,367.84L 137.27,367.84L 139.31,367.84L 141.35,371.42L 143.39,371.42L 145.44,375.00L 147.48,375.00L 149.52,375.00L 151.56,375.00L 153.60,375.00L 155.64,375.00L 157.68,375.00L 159.72,375.00L 161.77,375.00L 163.81,375.00L 165.85,375.00L 167.89,375.00L 169.93,375.00L 171.97,375.00L 174.01,375.00L 176.06,375.00L 178.10,375.00L 180.14,371.42L 182.18,371.42L 184.22,371.42L 186.26,371.42L 188.30,371.42L 190.34,371.42L 192.39,371.42L 194.43,375.00L 196.47,375.00L 198.51,375.00L 200.55,375.00L 202.59,375.00L 204.63,375.00L 206.67,375.00L 208.72,375.00L 210.76,375.00L 212.80,375.00L 214.84,375.00L 216.88,375.00L 218.92,375.00L 220.96,375.00L 223.00,375.00L 225.05,375.00L 227.09,375.00L 229.13,375.00L 231.17,375.00L 233.21,375.00L 235.25,375.00L 237.29,375.00L 239.33,375.00L 241.38,375.00L 243.42,375.00L 245.46,375.00L 247.50,367.84L 249.54,367.84L 251.58,367.84L 253.62,367.84L 255.67,367.84L 257.71,367.84L 259.75,364.26L 261.79,371.42L 263.83,371.42L 265.87,371.42L 267.91,371.42L 269.95,371.42L 272.00,371.42L 274.04,375.00L 276.08,375.00L 278.12,375.00L 280.16,375.00L 282.20,375.00L 284.24,375.00L 286.28,375.00L 288.33,375.00L 290.37,371.42L 292.41,371.42L 294.45,371.42L 296.49,371.42L 298.53,371.42L 300.57,367.84L 302.61,367.84L 304.66,364.26L 306.70,360.69L 308.74,360.69L 310.78,357.11L 312.82,357.11L 314.86,360.69L 316.90,353.53L 318.94,360.69L 320.99,360.69L 323.03,360.69L 325.07,360.69L 327.11,360.69L 329.15,360.69L 331.19,367.84L 333.23,364.26L 335.28,357.11L 337.32,353.53L 339.36,346.37L 341.40,339.22L 343.44,339.22L 345.48,335.64L 347.52,339.22L 349.56,349.95L 351.61,342.79L 353.65,353.53L 355.69,360.69L 357.73,357.11L 359.77,360.69L 361.81,360.69L 363.85,360.69L 365.89,367.84L 367.94,367.84L 369.98,364.26L 372.02,360.69L 374.06,360.69L 376.10,349.95L 378.14,346.37L 380.18,346.37L 382.22,339.22L 384.27,332.06L 386.31,332.06L 388.35,328.48L 390.39,324.90L 392.43,314.17L 394.47,303.43L 396.51,285.54L 398.56,278.38L 400.60,278.38L 402.64,242.60L 404.68,228.28L 406.72,228.28L 408.76,231.86L 410.80,224.71L 412.84,221.13L 414.89,199.66L 416.93,199.66L 418.97,188.92L 421.01,171.03L 423.05,167.45L 425.09,171.03L 427.13,181.76L 429.17,203.24L 431.22,221.13L 433.26,228.28L 435.30,249.75L 437.34,235.44L 439.38,239.02L 441.42,228.28L 443.46,171.03L 445.50,174.61L 447.55,153.14L 449.59,106.62L 451.63,92.30L 453.67,24.31L 455.71,24.31L 457.75,60.10L 459.79,10.00" id="New cases" class="line" stroke-width="1" stroke-linecap="round"><title>New cases</title></path>
	<circle cx="25.00" cy="343.69" data-y="1.28" data-x="1585612800" r="1" fill="white"><title>2020-03-31: 1</title></circle>
	<circle cx="27.04" cy="329.91" data-y="1.84" data-x="1585699200" r="1" fill="white"><title>2020-04-01: 2</title></circle>
	<circle cx="29.08" cy="312.38" data-y="2.56" data-x="1585785600" r="1" fill="white"><title>2020-04-02: 3</title></circle>
	<circle cx="31.12" cy="317.75" data-y="2.34" data-x="1585872000" r="1" fill="white"><title>2020-04-03: 2</title></circle>
	<circle cx="33.17" cy="317.75" data-y="2.34" data-x="1585958400" r="1" fill="white"><title>2020-04-04: 2</title></circle>
	<circle cx="35.21" cy="324.90" data-y="2.05" data-x="1586044800" r="1" fill="white"><title>2020-04-05: 2</title></circle>
	<circle cx="37.25" cy="328.48" data-y="1.90" data-x="1586131200" r="1" fill="white"><title>2020-04-06: 2</title></circle>
	<circle cx="39.29" cy="310.59" data-y="2.63" data-x="1586217600" r="1" fill="white"><title>2020-04-07: 3</title></circle>
	<circle cx="41.33" cy="317.75" data-y="2.34" data-x="1586304000" r="1" fill="white"><title>2020-04-08: 2</title></circle>
	<circle cx="43.37" cy="332.06" data-y="1.75" data-x="1586390400" r="1" fill="white"><title>2020-04-09: 2</title></circle>
	<circle cx="45.41" cy="335.64" data-y="1.61" data-x="1586476800" r="1" fill="white"><title>2020-04-10: 2</title></circle>
	<circle cx="47.45" cy="324.90" data-y="2.05" data-x="1586563200" r="1" fill="white"><title>2020-04-11: 2</title></circle>
	<circle cx="49.50" cy="317.75" data-y="2.34" data-x="1586649600" r="1" fill="white"><title>2020-04-12: 2</title></circle>
	<circle cx="51.54" cy="310.59" data-y="2.63" data-x="1586736000" r="1" fill="white"><title>2020-04-13: 3</title></circle>
	<circle cx="53.58" cy="299.85" data-y="3.07" data-x="1586822400" r="1" fill="white"><title>2020-04-14: 3</title></circle>
	<circle cx="55.62" cy="296.27" data-y="3.22" data-x="1586908800" r="1" fill="white"><title>2020-04-15: 3</title></circle>
	<circle cx="57.66" cy="303.43" data-y="2.92" data-x="1586995200" r="1" fill="white"><title>2020-04-16: 3</title></circle>
	<circle cx="59.70" cy="289.12" data-y="3.51" data-x="1587081600" r="1" fill="white"><title>2020-04-17: 4</title></circle>
	<circle cx="61.74" cy="285.54" data-y="3.66" data-x="1587168000" r="1" fill="white"><title>2020-04-18: 4</title></circle>
	<circle cx="63.78" cy="278.38" data-y="3.95" data-x="1587254400" r="1" fill="white"><title>2020-04-19: 4</title></circle>
	<circle cx="65.83" cy="285.54" data-y="3.66" data-x="1587340800" r="1" fill="white"><title>2020-04-20: 4</title></circle>
	<circle cx="67.87" cy="296.27" data-y="3.22" data-x="1587427200" r="1" fill="white"><title>2020-04-21: 3</title></circle>
	<circle cx="69.91" cy="299.85" data-y="3.07" data-x="1587513600" r="1" fill="white"><title>2020-04-22: 3</title></circle>
	<circle cx="71.95" cy="299.85" data-y="3.07" data-x="1587600000" r="1" fill="white"><title>2020-04-23: 3</title></circle>
	<circle cx="73.99" cy="296.27" data-y="3.22" data-x="1587686400" r="1" fill="white"><title>2020-04-24: 3</title></circle>
	<circle cx="76.03" cy="307.01" data-y="2.78" data-x="1587772800" r="1" fill="white"><title>2020-04-25: 3</title></circle>
	<circle cx="78.07" cy="278.38" data-y="3.95" data-x="1587859200" r="1" fill="white"><title>2020-04-26: 4</title></circle>
	<circle cx="80.11" cy="260.49" data-y="4.68" data-x="1587945600" r="1" fill="white"><title>2020-04-27: 5</title></circle>
	<circle cx="82.16" cy="267.65" data-y="4.39" data-x="1588032000" r="1" fill="white"><title>2020-04-28: 4</title></circle>
	<circle cx="84.20" cy="271.23" data-y="4.24" data-x="1588118400" r="1" fill="white"><title>2020-04-29: 4</title></circle>
	<circle cx="86.24" cy="267.65" data-y="4.39" data-x="1588204800" r="1" fill="white"><title>2020-04-30: 4</title></circle>
	<circle cx="88.28" cy="285.54" data-y="3.66" data-x="1588291200" r="1" fill="white"><title>2020-05-01: 4</title></circle>
	<circle cx="90.32" cy="281.96" data-y="3.80" data-x="1588377600" r="1" fill="white"><title>2020-05-02: 4</title></circle>
	<circle cx="92.36" cy="324.90" data-y="2.05" data-x="1588464000" r="1" fill="white"><title>2020-05-03: 2</title></circle>
	<circle cx="94.40" cy="346.37" data-y="1.17" data-x="1588550400" r="1" fill="white"><title>2020-05-04: 1</title></circle>
	<circle cx="96.44" cy="357.11" data-y="0.73" data-x="1588636800" r="1" fill="white"><title>2020-05-05: 1</title></circle>
	<circle cx="98.49" cy="360.69" data-y="0.58" data-x="1588723200" r="1" fill="white"><title>2020-05-06: 1</title></circle>
	<circle cx="100.53" cy="342.79" data-y="1.32" data-x="1588809600" r="1" fill="white"><title>2020-05-07: 1</title></circle>
	<circle cx="102.57" cy="335.64" data-y="1.61" data-x="1588896000" r="1" fill="white"><title>2020-05-08: 2</title></circle>
	<circle cx="104.61" cy="346.37" data-y="1.17" data-x="1588982400" r="1" fill="white"><title>2020-05-09: 1</title></circle>
	<circle cx="106.65" cy="346.37" data-y="1.17" data-x="1589068800" r="1" fill="white"><title>2020-05-10: 1</title></circle>
	<circle cx="108.69" cy="342.79" data-y="1.32" data-x="1589155200" r="1" fill="white"><title>2020-05-11: 1</title></circle>
	<circle cx="110.73" cy="342.79" data-y="1.32" data-x="1589241600" r="1" fill="white"><title>2020-05-12: 1</title></circle>
	<circle cx="112.78" cy="335.64" data-y="1.61" data-x="1589328000" r="1" fill="white"><title>2020-05-13: 2</title></circle>
	<circle cx="114.82" cy="357.11" data-y="0.73" data-x="1589414400" r="1" fill="white"><title>2020-05-14: 1</title></circle>
	<circle cx="116.86" cy="353.53" data-y="0.88" data-x="1589500800" r="1" fill="white"><title>2020-05-15: 1</title></circle>
	<circle cx="118.90" cy="353.53" data-y="0.88" data-x="1589587200" r="1" fill="white"><title>2020-05-16: 1</title></circle>
	<circle cx="120.94" cy="349.95" data-y="1.02" data-x="1589673600" r="1" fill="white"><title>2020-05-17: 1</title></circle>
	<circle cx="122.98" cy="353.53" data-y="0.88" data-x="1589760000" r="1" fill="white"><title>2020-05-18: 1</title></circle>
	<circle cx="125.02" cy="353.53" data-y="0.88" data-x="1589846400" r="1" fill="white"><title>2020-05-19: 1</title></circle>
	<circle cx="127.06" cy="357.11" data-y="0.73" data-x="1589932800" r="1" fill="white"><title>2020-05-20: 1</title></circle>
	<circle cx="129.11" cy="357.11" data-y="0.73" data-x="1590019200" r="1" fill="white"><title>2020-05-21: 1</title></circle>
	<circle cx="131.15" cy="364.26" data-y="0.44" data-x="1590105600" r="1" fill="white"><title>2020-05-22: 0</title></circle>
	<circle cx="133.19" cy="364.26" data-y="0.44" data-x="1590192000" r="1" fill="white"><title>2020-05-23: 0</title></circle>
	<circle cx="135.23" cy="367.84" data-y="0.29" data-x="1590278400" r="1" fill="white"><title>2020-05-24: 0</title></circle>
	<circle cx="137.27" cy="367.84" data-y="0.29" data-x="1590364800" r="1" fill="white"><title>2020-05-25: 0</title></circle>
	<circle cx="139.31" cy="367.84" data-y="0.29" data-x="1590451200" r="1" fill="white"><title>2020-05-26: 0</title></circle>
	<circle cx="141.35" cy="371.42" data-y="0.15" data-x="1590537600" r="1" fill="white"><title>2020-05-27: 0</title></circle>
	<circle cx="143.39" cy="371.42" data-y="0.15" data-x="1590624000" r="1" fill="white"><title>2020-05-28: 0</title></circle>
	<circle cx="145.44" cy="375.00" data-y="0.00" data-x="1590710400" r="1" fill="white"><title>2020-05-29: 0</title></circle>
	<circle cx="147.48" cy="375.00" data-y="0.00" data-x="1590796800" r="1" fill="white"><title>2020-05-30: 0</title></circle>
	<circle cx="149.52" cy="375.00" data-y="0.00" data-x="1590883200" r="1" fill="white"><title>2020-05-31: 0</title></circle>
	<circle cx="151.56" cy="375.00" data-y="0.00" data-x="1590969600" r="1" fill="white"><title>2020-06-01: 0</title></circle>
	<circle cx="153.60" cy="375.00" data-y="0.00" data-x="1591056000" r="1" fill="white"><title>2020-06-02: 0</title></circle>
	<circle cx="155.64" cy="375.00" data-y="0.00" data-x="1591142400" r="1" fill="white"><title>2020-06-03: 0</title></circle>
	<circle cx="157.68" cy="375.00" data-y="0.00" data-x="1591228800" r="1" fill="white"><title>2020-06-04: 0</title></circle>
	<circle cx="159.72" cy="375.00" data-y="0.00" data-x="1591315200" r="1" fill="white"><title>2020-06-05: 0</title></circle>
	<circle cx="161.77" cy="375.00" data-y="0.00" data-x="1591401600" r="1" fill="white"><title>2020-06-06: 0</title></circle>
	<circle cx="163.81" cy="375.00" data-y="0.00" data-x="1591488000" r="1" fill="white"><title>2020-06-07: 0</title></circle>
	<circle cx="165.85" cy="375.00" data-y="0.00" data-x="1591574400" r="1" fill="white"><title>2020-06-08: 0</title></circle>
	<circle cx="167.89" cy="375.00" data-y="0.00" data-x="1591660800" r="1" fill="white"><title>2020-06-09: 0</title></circle>
	<circle cx="169.93" cy="375.00" data-y="0.00" data-x="1591747200" r="1" fill="white"><title>2020-06-10: 0</title></circle>
	<circle cx="171.97" cy="375.00" data-y="0.00" data-x="1591833600" r="1" fill="white"><title>2020-06-11: 0</title></circle>
	<circle cx="174.01" cy="375.00" data-y="0.00" data-x="1591920000" r="1" fill="white"><title>2020-06-12: 0</title></circle>
	<circle cx="176.06" cy="375.00" data-y="0.00" data-x="1592006400" r="1" fill="white"><title>2020-06-13: 0</title></circle>
	<circle cx="178.10" cy="375.00" data-y="0.00" data-x="1592092800" r="1" fill="white"><title>2020-06-14: 0</title></circle>
	<circle cx="180.14" cy="371.42" data-y="0.15" data-x="1592179200" r="1" fill="white"><title>2020-06-15: 0</title></circle>
	<circle cx="182.18" cy="371.42" data-y="0.15" data-x="1592265600" r="1" fill="white"><title>2020-06-16: 0</title></circle>
	<circle cx="184.22" cy="371.42" data-y="0.15" data-x="1592352000" r="1" fill="white"><title>2020-06-17: 0</title></circle>
	<circle cx="186.26" cy="371.42" data-y="0.15" data-x="1592438400" r="1" fill="white"><title>2020-06-18: 0</title></circle>
	<circle cx="188.30" cy="371.42" data-y="0.15" data-x="1592524800" r="1" fill="white"><title>2020-06-19: 0</title></circle>
	<circle cx="190.34" cy="371.42" data-y="0.15" data-x="1592611200" r="1" fill="white"><title>2020-06-20: 0</title></circle>
	<circle cx="192.39" cy="371.42" data-y="0.15" data-x="1592697600" r="1" fill="white"><title>2020-06-21: 0</title></circle>
	<circle cx="194.43" cy="375.00" data-y="0.00" data-x="1592784000" r="1" fill="white"><title>2020-06-22: 0</title></circle>
	<circle cx="196.47" cy="375.00" data-y="0.00" data-x="1592870400" r="1" fill="white"><title>2020-06-23: 0</title></circle>
	<circle cx="198.51" cy="375.00" data-y="0.00" data-x="1592956800" r="1" fill="white"><title>2020-06-24: 0</title></circle>
	<circle cx="200.55" cy="375.00" data-y="0.00" data-x="1593043200" r="1" fill="white"><title>2020-06-25: 0</title></circle>
	<circle cx="202.59" cy="375.00" data-y="0.00" data-x="1593129600" r="1" fill="white"><title>2020-06-26: 0</title></circle>
	<circle cx="204.63" cy="375.00" data-y="0.00" data-x="1593216000" r="1" fill="white"><title>2020-06-27: 0</title></circle>
	<circle cx="206.67" cy="375.00" data-y="0.00" data-x="1593302400" r="1" fill="white"><title>2020-06-28: 0</title></circle>
	<circle cx="208.72" cy="375.00" data-y="0.00" data-x="1593388800" r="1" fill="white"><title>2020-06-29: 0</title></circle>
	<circle cx="210.76" cy="375.00" data-y="0.00" data-x="1593475200" r="1" fill="white"><title>2020-06-30: 0</title></circle>
	<circle cx="212.80" cy="375.00" data-y="0.00" data-x="1593561600" r="1" fill="white"><title>2020-07-01: 0</title></circle>
	<circle cx="214.84" cy="375.00" data-y="0.00" data-x="1593648000" r="1" fill="white"><title>2020-07-02: 0</title></circle>
	<circle cx="216.88" cy="375.00" data-y="0.00" data-x="1593734400" r="1" fill="white"><title>2020-07-03: 0</title></circle>
	<circle cx="218.92" cy="375.00" data-y="0.00" data-x="1593820800" r="1" fill="white"><title>2020-07-04: 0</title></circle>
	<circle cx="220.96" cy="375.00" data-y="0.00" data-x="1593907200" r="1" fill="white"><title>2020-07-05: 0</title></circle>
	<circle cx="223.00" cy="375.00" data-y="0.00" data-x="1593993600" r="1" fill="white"><title>2020-07-06: 0</title></circle>
	<circle cx="225.05" cy="375.00" data-y="0.00" data-x="1594080000" r="1" fill="white"><title>2020-07-07: 0</title></circle>
	<circle cx="227.09" cy="375.00" data-y="0.00" data-x="1594166400" r="1" fill="white"><title>2020-07-08: 0</title></circle>
	<circle cx="229.13" cy="375.00" data-y="0.00" data-x="1594252800" r="1" fill="white"><title>2020-07-09: 0</title></circle>
	<circle cx="231.17" cy="375.00" data-y="0.00" data-x="1594339200" r="1" fill="white"><title>2020-07-10: 0</title></circle>
	<circle cx="233.21" cy="375.00" data-y="0.00" data-x="1594425600" r="1" fill="white"><title>2020-07-11: 0</title></circle>
	<circle cx="235.25" cy="375.00" data-y="0.00" data-x="1594512000" r="1" fill="white"><title>2020-07-12: 0</title></circle>
	<circle cx="237.29" cy="375.00" data-y="0.00" data-x="1594598400" r="1" fill="white"><title>2020-07-13: 0</title></circle>
	<circle cx="239.33" cy="375.00" data-y="0.00" data-x="1594684800" r="1" fill="white"><title>2020-07-14: 0</title></circle>
	<circle cx="241.38" cy="375.00" data-y="0.00" data-x="1594771200" r="1" fill="white"><title>2020-07-15: 0</title></circle>
	<circle cx="243.42" cy="375.00" data-y="0.00" data-x="1594857600" r="1" fill="white"><title>2020-07-16: 0</title></circle>
	<circle cx="245.46" cy="375.00" data-y="0.00" data-x="1594944000" r="1" fill="white"><title>2020-07-17: 0</title></circle>
	<circle cx="247.50" cy="367.84" data-y="0.29" data-x="1595030400" r="1" fill="white"><title>2020-07-18: 0</title></circle>
	<circle cx="249.54" cy="367.84" data-y="0.29" data-x="1595116800" r="1" fill="white"><title>2020-07-19: 0</title></circle>
	<circle cx="251.58" cy="367.84" data-y="0.29" data-x="1595203200" r="1" fill="white"><title>2020-07-20: 0</title></circle>
	<circle cx="253.62" cy="367.84" data-y="0.29" data-x="1595289600" r="1" fill="white"><title>2020-07-21: 0</title></circle>
	<circle cx="255.67" cy="367.84" data-y="0.29" data-x="1595376000" r="1" fill="white"><title>2020-07-22: 0</title></circle>
	<circle cx="257.71" cy="367.84" data-y="0.29" data-x="1595462400" r="1" fill="white"><title>2020-07-23: 0</title></circle>
	<circle cx="259.75" cy="364.26" data-y="0.44" data-x="1595548800" r="1" fill="white"><title>2020-07-24: 0</title></circle>
	<circle cx="261.79" cy="371.42" data-y="0.15" data-x="1595635200" r="1" fill="white"><title>2020-07-25: 0</title></circle>
	<circle cx="263.83" cy="371.42" data-y="0.15" data-x="1595721600" r="1" fill="white"><title>2020-07-26: 0</title></circle>
	<circle cx="265.87" cy="371.42" data-y="0.15" data-x="1595808000" r="1" fill="white"><title>2020-07-27: 0</title></circle>
	<circle cx="267.91" cy="371.42" data-y="0.15" data-x="1595894400" r="1" fill="white"><title>2020-07-28: 0</title></circle>
	<circle cx="269.95" cy="371.42" data-y="0.15" data-x="1595980800" r="1" fill="white"><title>2020-07-29: 0</title></circle>
	<circle cx="272.00" cy="371.42" data-y="0.15" data-x="1596067200" r="1" fill="white"><title>2020-07-30: 0</title></circle>
	<circle cx="274.04" cy="375.00" data-y="0.00" data-x="1596153600" r="1" fill="white"><title>2020-07-31: 0</title></circle>
	<circle cx="276.08" cy="375.00" data-y="0.00" data-x="1596240000" r="1" fill="white"><title>2020-08-01: 0</title></circle>
	<circle cx="278.12" cy="375.00" data-y="0.00" data-x="1596326400" r="1" fill="white"><title>2020-08-02: 0</title></circle>
	<circle cx="280.16" cy="375.00" data-y="0.00" data-x="1596412800" r="1" fill="white"><title>2020-08-03: 0</title></circle>
	<circle cx="282.20" cy="375.00" data-y="0.00" data-x="1596499200" r="1" fill="white"><title>2020-08-04: 0</title></circle>
	<circle cx="284.24" cy="375.00" data-y="0.00" data-x="1596585600" r="1" fill="white"><title>2020-08-05: 0</title></circle>
	<circle cx="286.28" cy="375.00" data-y="0.00" data-x="1596672000" r="1" fill="white"><title>2020-08-06: 0</title></circle>
	<circle cx="288.33" cy="375.00" data-y="0.00" data-x="1596758400" r="1" fill="white"><title>2020-08-07: 0</title></circle>
	<circle cx="290.37" cy="371.42" data-y="0.15" data-x="1596844800" r="1" fill="white"><title>2020-08-08: 0</title></circle>
	<circle cx="292.41" cy="371.42" data-y="0.15" data-x="1596931200" r="1" fill="white"><title>2020-08-09: 0</title></circle>
	<circle cx="294.45" cy="371.42" data-y="0.15" data-x="1597017600" r="1" fill="white"><title>2020-08-10: 0</title></circle>
	<circle cx="296.49" cy="371.42" data-y="0.15" data-x="1597104000" r="1" fill="white"><title>2020-08-11: 0</title></circle>
	<circle cx="298.53" cy="371.42" data-y="0.15" data-x="1597190400" r="1" fill="white"><title>2020-08-12: 0</title></circle>
	<circle cx="300.57" cy="367.84" data-y="0.29" data-x="1597276800" r="1" fill="white"><title>2020-08-13: 0</title></circle>
	<circle cx="302.61" cy="367.84" data-y="0.29" data-x="1597363200" r="1" fill="white"><title>2020-08-14: 0</title></circle>
	<circle cx="304.66" cy="364.26" data-y="0.44" data-x="1597449600" r="1" fill="white"><title>2020-08-15: 0</title></circle>
	<circle cx="306.70" cy="360.69" data-y="0.58" data-x="1597536000" r="1" fill="white"><title>2020-08-16: 1</title></circle>
	<circle cx="308.74" cy="360.69" data-y="0.58" data-x="1597622400" r="1" fill="white"><title>2020-08-17: 1</title></circle>
	<circle cx="310.78" cy="357.11" data-y="0.73" data-x="1597708800" r="1" fill="white"><title>2020-08-18: 1</title></circle>
	<circle cx="312.82" cy="357.11" data-y="0.73" data-x="1597795200" r="1" fill="white"><title>2020-08-19: 1</title></circle>
	<circle cx="314.86" cy="360.69" data-y="0.58" data-x="1597881600" r="1" fill="white"><title>2020-08-20: 1</title></circle>
	<circle cx="316.90" cy="353.53" data-y="0.88" data-x="1597968000" r="1" fill="white"><title>2020-08-21: 1</title></circle>
	<circle cx="318.94" cy="360.69" data-y="0.58" data-x="1598054400" r="1" fill="white"><title>2020-08-22: 1</title></circle>
	<circle cx="320.99" cy="360.69" data-y="0.58" data-x="1598140800" r="1" fill="white"><title>2020-08-23: 1</title></circle>
	<circle cx="323.03" cy="360.69" data-y="0.58" data-x="1598227200" r="1" fill="white"><title>2020-08-24: 1</title></circle>
	<circle cx="325.07" cy="360.69" data-y="0.58" data-x="1598313600" r="1" fill="white"><title>2020-08-25: 1</title></circle>
	<circle cx="327.11" cy="360.69" data-y="0.58" data-x="1598400000" r="1" fill="white"><title>2020-08-26: 1</title></circle>
	<circle cx="329.15" cy="360.69" data-y="0.58" data-x="1598486400" r="1" fill="white"><title>2020-08-27: 1</title></circle>
	<circle cx="331.19" cy="367.84" data-y="0.29" data-x="1598572800" r="1" fill="white"><title>2020-08-28: 0</title></circle>
	<circle cx="333.23" cy="364.26" data-y="0.44" data-x="1598659200" r="1" fill="white"><title>2020-08-29: 0</title></circle>
	<circle cx="335.28" cy="357.11" data-y="0.73" data-x="1598745600" r="1" fill="white"><title>2020-08-30: 1</title></circle>
	<circle cx="337.32" cy="353.53" data-y="0.88" data-x="1598832000" r="1" fill="white"><title>2020-08-31: 1</title></circle>
	<circle cx="339.36" cy="346.37" data-y="1.17" data-x="1598918400" r="1" fill="white"><title>2020-09-01: 1</title></circle>
	<circle cx="341.40" cy="339.22" data-y="1.46" data-x="1599004800" r="1" fill="white"><title>2020-09-02: 1</title></circle>
	<circle cx="343.44" cy="339.22" data-y="1.46" data-x="1599091200" r="1" fill="white"><title>2020-09-03: 1</title></circle>
	<circle cx="345.48" cy="335.64" data-y="1.61" data-x="1599177600" r="1" fill="white"><title>2020-09-04: 2</title></circle>
	<circle cx="347.52" cy="339.22" data-y="1.46" data-x="1599264000" r="1" fill="white"><title>2020-09-05: 1</title></circle>
	<circle cx="349.56" cy="349.95" data-y="1.02" data-x="1599350400" r="1" fill="white"><title>2020-09-06: 1</title></circle>
	<circle cx="351.61" cy="342.79" data-y="1.32" data-x="1599436800" r="1" fill="white"><title>2020-09-07: 1</title></circle>
	<circle cx="353.65" cy="353.53" data-y="0.88" data-x="1599523200" r="1" fill="white"><title>2020-09-08: 1</title></circle>
	<circle cx="355.69" cy="360.69" data-y="0.58" data-x="1599609600" r="1" fill="white"><title>2020-09-09: 1</title></circle>
	<circle cx="357.73" cy="357.11" data-y="0.73" data-x="1599696000" r="1" fill="white"><title>2020-09-10: 1</title></circle>
	<circle cx="359.77" cy="360.69" data-y="0.58" data-x="1599782400" r="1" fill="white"><title>2020-09-11: 1</title></circle>
	<circle cx="361.81" cy="360.69" data-y="0.58" data-x="1599868800" r="1" fill="white"><title>2020-09-12: 1</title></circle>
	<circle cx="363.85" cy="360.69" data-y="0.58" data-x="1599955200" r="1" fill="white"><title>2020-09-13: 1</title></circle>
	<circle cx="365.89" cy="367.84" data-y="0.29" data-x="1600041600" r="1" fill="white"><title>2020-09-14: 0</title></circle>
	<circle cx="367.94" cy="367.84" data-y="0.29" data-x="1600128000" r="1" fill="white"><title>2020-09-15: 0</title></circle>
	<circle cx="369.98" cy="364.26" data-y="0.44" data-x="1600214400" r="1" fill="white"><title>2020-09-16: 0</title></circle>
	<circle cx="372.02" cy="360.69" data-y="0.58" data-x="1600300800" r="1" fill="white"><title>2020-09-17: 1</title></circle>
	<circle cx="374.06" cy="360.69" data-y="0.58" data-x="1600387200" r="1" fill="white"><title>2020-09-18: 1</title></circle>
	<circle cx="376.10" cy="349.95" data-y="1.02" data-x="1600473600" r="1" fill="white"><title>2020-09-19: 1</title></circle>
	<circle cx="378.14" cy="346.37" data-y="1.17" data-x="1600560000" r="1" fill="white"><title>2020-09-20: 1</title></circle>
	<circle cx="380.18" cy="346.37" data-y="1.17" data-x="1600646400" r="1" fill="white"><title>2020-09-21: 1</title></circle>
	<circle cx="382.22" cy="339.22" data-y="1.46" data-x="1600732800" r="1" fill="white"><title>2020-09-22: 1</title></circle>
	<circle cx="384.27" cy="332.06" data-y="1.75" data-x="1600819200" r="1" fill="white"><title>2020-09-23: 2</title></circle>
	<circle cx="386.31" cy="332.06" data-y="1.75" data-x="1600905600" r="1" fill="white"><title>2020-09-24: 2</title></circle>
	<circle cx="388.35" cy="328.48" data-y="1.90" data-x="1600992000" r="1" fill="white"><title>2020-09-25: 2</title></circle>
	<circle cx="390.39" cy="324.90" data-y="2.05" data-x="1601078400" r="1" fill="white"><title>2020-09-26: 2</title></circle>
	<circle cx="392.43" cy="314.17" data-y="2.49" data-x="1601164800" r="1" fill="white"><title>2020-09-27: 2</title></circle>
	<circle cx="394.47" cy="303.43" data-y="2.92" data-x="1601251200" r="1" fill="white"><title>2020-09-28: 3</title></circle>
	<circle cx="396.51" cy="285.54" data-y="3.66" data-x="1601337600" r="1" fill="white"><title>2020-09-29: 4</title></circle>
	<circle cx="398.56" cy="278.38" data-y="3.95" data-x="1601424000" r="1" fill="white"><title>2020-09-30: 4</title></circle>
	<circle cx="400.60" cy="278.38" data-y="3.95" data-x="1601510400" r="1" fill="white"><title>2020-10-01: 4</title></circle>
	<circle cx="402.64" cy="242.60" data-y="5.41" data-x="1601596800" r="1" fill="white"><title>2020-10-02: 5</title></circle>
	<circle cx="404.68" cy="228.28" data-y="5.99" data-x="1601683200" r="1" fill="white"><title>2020-10-03: 6</title></circle>
	<circle cx="406.72" cy="228.28" data-y="5.99" data-x="1601769600" r="1" fill="white"><title>2020-10-04: 6</title></circle>
	<circle cx="408.76" cy="231.86" data-y="5.85" data-x="1601856000" r="1" fill="white"><title>2020-10-05: 6</title></circle>
	<circle cx="410.80" cy="224.71" data-y="6.14" data-x="1601942400" r="1" fill="white"><title>2020-10-06: 6</title></circle>
	<circle cx="412.84" cy="221.13" data-y="6.29" data-x="1602028800" r="1" fill="white"><title>2020-10-07: 6</title></circle>
	<circle cx="414.89" cy="199.66" data-y="7.16" data-x="1602115200" r="1" fill="white"><title>2020-10-08: 7</title></circle>
	<circle cx="416.93" cy="199.66" data-y="7.16" data-x="1602201600" r="1" fill="white"><title>2020-10-09: 7</title></circle>
	<circle cx="418.97" cy="188.92" data-y="7.60" data-x="1602288000" r="1" fill="white"><title>2020-10-10: 8</title></circle>
	<circle cx="421.01" cy="171.03" data-y="8.33" data-x="1602374400" r="1" fill="white"><title>2020-10-11: 8</title></circle>
	<circle cx="423.05" cy="167.45" data-y="8.48" data-x="1602460800" r="1" fill="white"><title>2020-10-12: 8</title></circle>
	<circle cx="425.09" cy="171.03" data-y="8.33" data-x="1602547200" r="1" fill="white"><title>2020-10-13: 8</title></circle>
	<circle cx="427.13" cy="181.76" data-y="7.90" data-x="1602633600" r="1" fill="white"><title>2020-10-14: 8</title></circle>
	<circle cx="429.17" cy="203.24" data-y="7.02" data-x="1602720000" r="1" fill="white"><title>2020-10-15: 7</title></circle>
	<circle cx="431.22" cy="221.13" data-y="6.29" data-x="1602806400" r="1" fill="white"><title>2020-10-16: 6</title></circle>
	<circle cx="433.26" cy="228.28" data-y="5.99" data-x="1602892800" r="1" fill="white"><title>2020-10-17: 6</title></circle>
	<circle cx="435.30" cy="249.75" data-y="5.12" data-x="1602979200" r="1" fill="white"><title>2020-10-18: 5</title></circle>
	<circle cx="437.34" cy="235.44" data-y="5.70" data-x="1603065600" r="1" fill="white"><title>2020-10-19: 6</title></circle>
	<circle cx="439.38" cy="239.02" data-y="5.56" data-x="1603152000" r="1" fill="white"><title>2020-10-20: 6</title></circle>
	<circle cx="441.42" cy="228.28" data-y="5.99" data-x="1603238400" r="1" fill="white"><title>2020-10-21: 6</title></circle>
	<circle cx="443.46" cy="171.03" data-y="8.33" data-x="1603324800" r="1" fill="white"><title>2020-10-22: 8</title></circle>
	<circle cx="445.50" cy="174.61" data-y="8.19" data-x="1603411200" r="1" fill="white"><title>2020-10-23: 8</title></circle>
	<circle cx="447.55" cy="153.14" data-y="9.07" data-x="1603497600" r="1" fill="white"><title>2020-10-24: 9</title></circle>
	<circle cx="449.59" cy="106.62" data-y="10.97" data-x="1603584000" r="1" fill="white"><title>2020-10-25: 11</title></circle>
	<circle cx="451.63" cy="92.30" data-y="11.55" data-x="1603670400" r="1" fill="white"><title>2020-10-26: 12</title></circle>
	<circle cx="453.67" cy="24.31" data-y="14.33" data-x="1603756800" r="1" fill="white"><title>2020-10-27: 14</title></circle>
	<circle cx="455.71" cy="24.31" data-y="14.33" data-x="1603843200" r="1" fill="white"><title>2020-10-28: 14</title></circle>
	<circle cx="457.75" cy="60.10" data-y="12.87" data-x="1603929600" r="1" fill="white"><title>2020-10-29: 13</title></circle>
	<circle cx="459.79" cy="10.00" data-y="14.91" data-x="1604016000" r="1" fill="white"><title>2020-10-30: 15</title></circle>
</g>
<g data-series="recent-cases" class="data-series">
	<path d="M 459.79,10.00L 461.83,38.63L 463.88,95.88L 465.92,99.46L 467.96,174.61L 470.00,162.08" id="Recent cases" class="line" stroke-width="1" stroke-linecap="round" stroke-dasharray="4,6" stroke-dashoffset="4"><title>Recent cases</title></path>
	<circle cx="459.79" cy="10.00" data-y="14.91" data-x="1604016000" r="2.5" fill="white"><title>2020-10-30: 15</title></circle>
	<circle cx="461.83" cy="38.63" data-y="13.74" data-x="1604102400" r="2.5" fill="white"><title>2020-10-31: 14</title></circle>
	<circle cx="463.88" cy="95.88" data-y="11.40" data-x="1604188800" r="2.5" fill="white"><title>2020-11-01: 11</title></circle>
	<circle cx="465.92" cy="99.46" data-y="11.26" data-x="1604275200" r="2.5" fill="white"><title>2020-11-02: 11</title></circle>
	<circle cx="467.96" cy="174.61" data-y="8.19" data-x="1604361600" r="2.5" fill="white"><title>2020-11-03: 8</title></circle>
	<circle cx="470.00" cy="162.08" data-y="8.70" data-x="1604448000" r="2.5" fill="white"><title>2020-11-04: 9</title></circle>
</g>
</svg>
