<svg width="480" height="400" viewBox="0 0 480 400" xmlns="http://www.w3.org/2000/svg" style="overflow:display" preserveAspectRatio="xMinYMin meet" overflow="visible">
<defs>
	<style>
	.data-series path.line { fill-opacity: 0; stroke: black; }
	.data-series path.line.dotted { stroke-dasharray: 12 20 }
	.data-series:hover path.line, .data-series.on path.line { stroke-width: 1; }
	.data-series:hover circle, .data-series.on circle { display: inline; }
	.graph-grid { font-family: "Helvetica Neue",Helvetica,Arial,"Lucida Grande",sans-serif; }
	.graph-grid line { stroke: black; stroke-width: 1; stroke-linecap: round; }
	.graph-grid.graph-grid-x text { text-anchor: middle; dominant-baseline: hanging; transform: translateY(10px); }
	.graph-grid.graph-grid-y text { text-anchor: end; dominant-baseline: middle; transform: translateX(-10px); }
	</style>
</defs>
<g class="graph-grid graph-grid-y">
	<line x1="25.00" y1="375.00" x2="470.00" y2="375.00" data-left="25"></line>
	<text x="35" y="375" text-anchor="end">0</text>
	<text x="35" y="207.328494219653" text-anchor="end">10</text>
	<text x="35" y="39.6569884393064" text-anchor="end">20</text>
	<text style="text-anchor:middle;dominant-baseline:hanging;font-weight:bold;transform: translateY(192.5px) rotate(-90deg);"></text>
</g>
<g class="graph-grid graph-grid-x">
	<line class="tick" x1="65.28" y1="375.00" x2="65.28" y2="380.00"></line>
	<text x="65.2801724137931" y="375" text-anchor="middle">A</text>
	<line class="tick" x1="122.82" y1="375.00" x2="122.82" y2="380.00"></line>
	<text x="122.823275862069" y="375" text-anchor="middle">M</text>
	<line class="tick" x1="182.28" y1="375.00" x2="182.28" y2="380.00"></line>
	<text x="182.284482758621" y="375" text-anchor="middle">J</text>
	<line class="tick" x1="239.83" y1="375.00" x2="239.83" y2="380.00"></line>
	<text x="239.827586206897" y="375" text-anchor="middle">J</text>
	<line class="tick" x1="299.29" y1="375.00" x2="299.29" y2="380.00"></line>
	<text x="299.288793103448" y="375" text-anchor="middle">A</text>
	<line class="tick" x1="358.75" y1="375.00" x2="358.75" y2="380.00"></line>
	<text x="358.75" y="375" text-anchor="middle">S</text>
	<line class="tick" x1="416.29" y1="375.00" x2="416.29" y2="380.00"></line>
	<text x="416.293103448276" y="375" text-anchor="middle">O</text>
	<text style="text-anchor:middle;dominant-baseline:hanging;font-weight:bold;transform: translateY(192.5px) rotate(-90deg);"></text>
</g>
<g data-series="widespread" class="data-series">
	<path d="M 25.00,257.63L 470.00,257.63" id="E07000226-level-0" class="line" stroke-width="1" stroke-linecap="round" stroke-dasharray="3,3" fill-opacity="0.3" opacity="0.3"><title>Widespread</title></path>
</g>
<g data-series="substantial" class="data-series">
	<path d="M 25.00,307.93L 470.00,307.93" id="E07000226-level-1" class="line" stroke-width="1" stroke-linecap="round" stroke-dasharray="3,3" fill-opacity="0.3" opacity="0.3"><title>Substantial</title></path>
</g>
<g data-series="moderate" class="data-series">
	<path d="M 25.00,358.23L 470.00,358.23" id="E07000226-level-2" class="line" stroke-width="1" stroke-linecap="round" stroke-dasharray="3,3" fill-opacity="0.3" opacity="0.3"><title>Moderate</title></path>
</g>
<g data-series="new-cases" class="data-series">
	<path d="M 25.00,363.92L 26.92,366.14L 28.84,367.62L 30.75,366.56L 32.67,362.34L 34.59,360.23L 36.51,358.12L 38.43,353.90L 40.34,351.79L 42.26,345.46L 44.18,341.24L 46.10,334.91L 48.02,332.80L 49.94,324.36L 51.85,326.47L 53.77,326.47L 55.69,313.82L 57.61,309.60L 59.53,305.38L 61.44,301.16L 63.36,299.05L 65.28,292.72L 67.20,286.39L 69.12,292.72L 71.03,286.39L 72.95,282.17L 74.87,275.84L 76.79,282.17L 78.71,273.73L 80.62,275.84L 82.54,275.84L 84.46,271.62L 86.38,267.40L 88.30,271.62L 90.22,269.51L 92.13,269.51L 94.05,261.07L 95.97,261.07L 97.89,271.62L 99.81,290.61L 101.72,286.39L 103.64,277.95L 105.56,288.50L 107.48,292.72L 109.40,277.95L 111.31,248.41L 113.23,216.76L 115.15,210.43L 117.07,206.21L 118.99,204.10L 120.91,206.21L 122.82,218.87L 124.74,242.08L 126.66,265.29L 128.58,282.17L 130.50,299.05L 132.41,307.49L 134.33,303.27L 136.25,315.92L 138.17,324.36L 140.09,330.69L 142.00,318.03L 143.92,320.14L 145.84,318.03L 147.76,326.47L 149.68,320.14L 151.59,320.14L 153.51,324.36L 155.43,332.80L 157.35,330.69L 159.27,332.80L 161.19,337.02L 163.10,332.80L 165.02,339.13L 166.94,341.24L 168.86,349.68L 170.78,356.01L 172.69,356.01L 174.61,349.68L 176.53,356.01L 178.45,353.90L 180.37,353.90L 182.28,349.68L 184.20,347.57L 186.12,345.46L 188.04,351.79L 189.96,356.01L 191.88,356.01L 193.79,351.79L 195.71,351.79L 197.63,353.90L 199.55,356.01L 201.47,356.01L 203.38,358.12L 205.30,360.23L 207.22,366.56L 209.14,368.67L 211.06,366.56L 212.97,366.56L 214.89,366.56L 216.81,366.56L 218.73,368.67L 220.65,368.67L 222.56,364.45L 224.48,364.45L 226.40,362.34L 228.32,362.34L 230.24,360.23L 232.16,360.23L 234.07,353.90L 235.99,351.79L 237.91,351.79L 239.83,353.90L 241.75,347.57L 243.66,349.68L 245.58,347.57L 247.50,353.90L 249.42,362.34L 251.34,362.34L 253.25,362.34L 255.17,368.67L 257.09,368.67L 259.01,370.78L 260.93,368.67L 262.84,366.56L 264.76,368.67L 266.68,366.56L 268.60,356.01L 270.52,345.46L 272.44,341.24L 274.35,343.35L 276.27,341.24L 278.19,339.13L 280.11,339.13L 282.03,347.57L 283.94,351.79L 285.86,353.90L 287.78,353.90L 289.70,353.90L 291.62,356.01L 293.53,360.23L 295.45,362.34L 297.37,368.67L 299.29,368.67L 301.21,368.67L 303.12,372.89L 305.04,372.89L 306.96,372.89L 308.88,372.89L 310.80,370.78L 312.72,370.78L 314.63,364.45L 316.55,358.12L 318.47,358.12L 320.39,358.12L 322.31,358.12L 324.22,356.01L 326.14,351.79L 328.06,351.79L 329.98,358.12L 331.90,356.01L 333.81,356.01L 335.73,356.01L 337.65,358.12L 339.57,362.34L 341.49,368.67L 343.41,366.56L 345.32,362.34L 347.24,362.34L 349.16,360.23L 351.08,362.34L 353.00,364.45L 354.91,362.34L 356.83,362.34L 358.75,358.12L 360.67,358.12L 362.59,358.12L 364.50,341.24L 366.42,339.13L 368.34,341.24L 370.26,334.91L 372.18,345.46L 374.09,345.46L 376.01,345.46L 377.93,358.12L 379.85,360.23L 381.77,360.23L 383.69,368.67L 385.60,364.45L 387.52,362.34L 389.44,362.34L 391.36,356.01L 393.28,351.79L 395.19,341.24L 397.11,326.47L 399.03,320.14L 400.95,318.03L 402.87,311.71L 404.78,309.60L 406.70,307.49L 408.62,311.71L 410.54,318.03L 412.46,315.92L 414.38,301.16L 416.29,290.61L 418.21,288.50L 420.13,280.06L 422.05,267.40L 423.97,252.63L 425.88,256.85L 427.80,256.85L 429.72,265.29L 431.64,261.07L 433.56,256.85L 435.47,256.85L 437.39,252.63L 439.31,246.30L 441.23,250.52L 443.15,239.97L 445.06,227.31L 446.98,191.45L 448.90,151.36L 450.82,128.15L 452.74,109.16L 454.66,85.95L 456.57,83.84L 458.49,10.00L 460.41,22.66" id="New cases" class="line" stroke-width="1" stroke-linecap="round"><title>New cases</title></path>
	<circle cx="25.00" cy="363.92" data-y="0.66" data-x="1583884800" r="1" fill="white"><title>2020-03-11: 1</title></circle>
	<circle cx="26.92" cy="366.14" data-y="0.53" data-x="1583971200" r="1" fill="white"><title>2020-03-12: 1</title></circle>
	<circle cx="28.84" cy="367.62" data-y="0.44" data-x="1584057600" r="1" fill="white"><title>2020-03-13: 0</title></circle>
	<circle cx="30.75" cy="366.56" data-y="0.50" data-x="1584144000" r="1" fill="white"><title>2020-03-14: 1</title></circle>
	<circle cx="32.67" cy="362.34" data-y="0.75" data-x="1584230400" r="1" fill="white"><title>2020-03-15: 1</title></circle>
	<circle cx="34.59" cy="360.23" data-y="0.88" data-x="1584316800" r="1" fill="white"><title>2020-03-16: 1</title></circle>
	<circle cx="36.51" cy="358.12" data-y="1.01" data-x="1584403200" r="1" fill="white"><title>2020-03-17: 1</title></circle>
	<circle cx="38.43" cy="353.90" data-y="1.26" data-x="1584489600" r="1" fill="white"><title>2020-03-18: 1</title></circle>
	<circle cx="40.34" cy="351.79" data-y="1.38" data-x="1584576000" r="1" fill="white"><title>2020-03-19: 1</title></circle>
	<circle cx="42.26" cy="345.46" data-y="1.76" data-x="1584662400" r="1" fill="white"><title>2020-03-20: 2</title></circle>
	<circle cx="44.18" cy="341.24" data-y="2.01" data-x="1584748800" r="1" fill="white"><title>2020-03-21: 2</title></circle>
	<circle cx="46.10" cy="334.91" data-y="2.39" data-x="1584835200" r="1" fill="white"><title>2020-03-22: 2</title></circle>
	<circle cx="48.02" cy="332.80" data-y="2.52" data-x="1584921600" r="1" fill="white"><title>2020-03-23: 3</title></circle>
	<circle cx="49.94" cy="324.36" data-y="3.02" data-x="1585008000" r="1" fill="white"><title>2020-03-24: 3</title></circle>
	<circle cx="51.85" cy="326.47" data-y="2.89" data-x="1585094400" r="1" fill="white"><title>2020-03-25: 3</title></circle>
	<circle cx="53.77" cy="326.47" data-y="2.89" data-x="1585180800" r="1" fill="white"><title>2020-03-26: 3</title></circle>
	<circle cx="55.69" cy="313.82" data-y="3.65" data-x="1585267200" r="1" fill="white"><title>2020-03-27: 4</title></circle>
	<circle cx="57.61" cy="309.60" data-y="3.90" data-x="1585353600" r="1" fill="white"><title>2020-03-28: 4</title></circle>
	<circle cx="59.53" cy="305.38" data-y="4.15" data-x="1585440000" r="1" fill="white"><title>2020-03-29: 4</title></circle>
	<circle cx="61.44" cy="301.16" data-y="4.40" data-x="1585526400" r="1" fill="white"><title>2020-03-30: 4</title></circle>
	<circle cx="63.36" cy="299.05" data-y="4.53" data-x="1585612800" r="1" fill="white"><title>2020-03-31: 5</title></circle>
	<circle cx="65.28" cy="292.72" data-y="4.91" data-x="1585699200" r="1" fill="white"><title>2020-04-01: 5</title></circle>
	<circle cx="67.20" cy="286.39" data-y="5.28" data-x="1585785600" r="1" fill="white"><title>2020-04-02: 5</title></circle>
	<circle cx="69.12" cy="292.72" data-y="4.91" data-x="1585872000" r="1" fill="white"><title>2020-04-03: 5</title></circle>
	<circle cx="71.03" cy="286.39" data-y="5.28" data-x="1585958400" r="1" fill="white"><title>2020-04-04: 5</title></circle>
	<circle cx="72.95" cy="282.17" data-y="5.54" data-x="1586044800" r="1" fill="white"><title>2020-04-05: 6</title></circle>
	<circle cx="74.87" cy="275.84" data-y="5.91" data-x="1586131200" r="1" fill="white"><title>2020-04-06: 6</title></circle>
	<circle cx="76.79" cy="282.17" data-y="5.54" data-x="1586217600" r="1" fill="white"><title>2020-04-07: 6</title></circle>
	<circle cx="78.71" cy="273.73" data-y="6.04" data-x="1586304000" r="1" fill="white"><title>2020-04-08: 6</title></circle>
	<circle cx="80.62" cy="275.84" data-y="5.91" data-x="1586390400" r="1" fill="white"><title>2020-04-09: 6</title></circle>
	<circle cx="82.54" cy="275.84" data-y="5.91" data-x="1586476800" r="1" fill="white"><title>2020-04-10: 6</title></circle>
	<circle cx="84.46" cy="271.62" data-y="6.17" data-x="1586563200" r="1" fill="white"><title>2020-04-11: 6</title></circle>
	<circle cx="86.38" cy="267.40" data-y="6.42" data-x="1586649600" r="1" fill="white"><title>2020-04-12: 6</title></circle>
	<circle cx="88.30" cy="271.62" data-y="6.17" data-x="1586736000" r="1" fill="white"><title>2020-04-13: 6</title></circle>
	<circle cx="90.22" cy="269.51" data-y="6.29" data-x="1586822400" r="1" fill="white"><title>2020-04-14: 6</title></circle>
	<circle cx="92.13" cy="269.51" data-y="6.29" data-x="1586908800" r="1" fill="white"><title>2020-04-15: 6</title></circle>
	<circle cx="94.05" cy="261.07" data-y="6.79" data-x="1586995200" r="1" fill="white"><title>2020-04-16: 7</title></circle>
	<circle cx="95.97" cy="261.07" data-y="6.79" data-x="1587081600" r="1" fill="white"><title>2020-04-17: 7</title></circle>
	<circle cx="97.89" cy="271.62" data-y="6.17" data-x="1587168000" r="1" fill="white"><title>2020-04-18: 6</title></circle>
	<circle cx="99.81" cy="290.61" data-y="5.03" data-x="1587254400" r="1" fill="white"><title>2020-04-19: 5</title></circle>
	<circle cx="101.72" cy="286.39" data-y="5.28" data-x="1587340800" r="1" fill="white"><title>2020-04-20: 5</title></circle>
	<circle cx="103.64" cy="277.95" data-y="5.79" data-x="1587427200" r="1" fill="white"><title>2020-04-21: 6</title></circle>
	<circle cx="105.56" cy="288.50" data-y="5.16" data-x="1587513600" r="1" fill="white"><title>2020-04-22: 5</title></circle>
	<circle cx="107.48" cy="292.72" data-y="4.91" data-x="1587600000" r="1" fill="white"><title>2020-04-23: 5</title></circle>
	<circle cx="109.40" cy="277.95" data-y="5.79" data-x="1587686400" r="1" fill="white"><title>2020-04-24: 6</title></circle>
	<circle cx="111.31" cy="248.41" data-y="7.55" data-x="1587772800" r="1" fill="white"><title>2020-04-25: 8</title></circle>
	<circle cx="113.23" cy="216.76" data-y="9.44" data-x="1587859200" r="1" fill="white"><title>2020-04-26: 9</title></circle>
	<circle cx="115.15" cy="210.43" data-y="9.81" data-x="1587945600" r="1" fill="white"><title>2020-04-27: 10</title></circle>
	<circle cx="117.07" cy="206.21" data-y="10.07" data-x="1588032000" r="1" fill="white"><title>2020-04-28: 10</title></circle>
	<circle cx="118.99" cy="204.10" data-y="10.19" data-x="1588118400" r="1" fill="white"><title>2020-04-29: 10</title></circle>
	<circle cx="120.91" cy="206.21" data-y="10.07" data-x="1588204800" r="1" fill="white"><title>2020-04-30: 10</title></circle>
	<circle cx="122.82" cy="218.87" data-y="9.31" data-x="1588291200" r="1" fill="white"><title>2020-05-01: 9</title></circle>
	<circle cx="124.74" cy="242.08" data-y="7.93" data-x="1588377600" r="1" fill="white"><title>2020-05-02: 8</title></circle>
	<circle cx="126.66" cy="265.29" data-y="6.54" data-x="1588464000" r="1" fill="white"><title>2020-05-03: 7</title></circle>
	<circle cx="128.58" cy="282.17" data-y="5.54" data-x="1588550400" r="1" fill="white"><title>2020-05-04: 6</title></circle>
	<circle cx="130.50" cy="299.05" data-y="4.53" data-x="1588636800" r="1" fill="white"><title>2020-05-05: 5</title></circle>
	<circle cx="132.41" cy="307.49" data-y="4.03" data-x="1588723200" r="1" fill="white"><title>2020-05-06: 4</title></circle>
	<circle cx="134.33" cy="303.27" data-y="4.28" data-x="1588809600" r="1" fill="white"><title>2020-05-07: 4</title></circle>
	<circle cx="136.25" cy="315.92" data-y="3.52" data-x="1588896000" r="1" fill="white"><title>2020-05-08: 4</title></circle>
	<circle cx="138.17" cy="324.36" data-y="3.02" data-x="1588982400" r="1" fill="white"><title>2020-05-09: 3</title></circle>
	<circle cx="140.09" cy="330.69" data-y="2.64" data-x="1589068800" r="1" fill="white"><title>2020-05-10: 3</title></circle>
	<circle cx="142.00" cy="318.03" data-y="3.40" data-x="1589155200" r="1" fill="white"><title>2020-05-11: 3</title></circle>
	<circle cx="143.92" cy="320.14" data-y="3.27" data-x="1589241600" r="1" fill="white"><title>2020-05-12: 3</title></circle>
	<circle cx="145.84" cy="318.03" data-y="3.40" data-x="1589328000" r="1" fill="white"><title>2020-05-13: 3</title></circle>
	<circle cx="147.76" cy="326.47" data-y="2.89" data-x="1589414400" r="1" fill="white"><title>2020-05-14: 3</title></circle>
	<circle cx="149.68" cy="320.14" data-y="3.27" data-x="1589500800" r="1" fill="white"><title>2020-05-15: 3</title></circle>
	<circle cx="151.59" cy="320.14" data-y="3.27" data-x="1589587200" r="1" fill="white"><title>2020-05-16: 3</title></circle>
	<circle cx="153.51" cy="324.36" data-y="3.02" data-x="1589673600" r="1" fill="white"><title>2020-05-17: 3</title></circle>
	<circle cx="155.43" cy="332.80" data-y="2.52" data-x="1589760000" r="1" fill="white"><title>2020-05-18: 3</title></circle>
	<circle cx="157.35" cy="330.69" data-y="2.64" data-x="1589846400" r="1" fill="white"><title>2020-05-19: 3</title></circle>
	<circle cx="159.27" cy="332.80" data-y="2.52" data-x="1589932800" r="1" fill="white"><title>2020-05-20: 3</title></circle>
	<circle cx="161.19" cy="337.02" data-y="2.26" data-x="1590019200" r="1" fill="white"><title>2020-05-21: 2</title></circle>
	<circle cx="163.10" cy="332.80" data-y="2.52" data-x="1590105600" r="1" fill="white"><title>2020-05-22: 3</title></circle>
	<circle cx="165.02" cy="339.13" data-y="2.14" data-x="1590192000" r="1" fill="white"><title>2020-05-23: 2</title></circle>
	<circle cx="166.94" cy="341.24" data-y="2.01" data-x="1590278400" r="1" fill="white"><title>2020-05-24: 2</title></circle>
	<circle cx="168.86" cy="349.68" data-y="1.51" data-x="1590364800" r="1" fill="white"><title>2020-05-25: 2</title></circle>
	<circle cx="170.78" cy="356.01" data-y="1.13" data-x="1590451200" r="1" fill="white"><title>2020-05-26: 1</title></circle>
	<circle cx="172.69" cy="356.01" data-y="1.13" data-x="1590537600" r="1" fill="white"><title>2020-05-27: 1</title></circle>
	<circle cx="174.61" cy="349.68" data-y="1.51" data-x="1590624000" r="1" fill="white"><title>2020-05-28: 2</title></circle>
	<circle cx="176.53" cy="356.01" data-y="1.13" data-x="1590710400" r="1" fill="white"><title>2020-05-29: 1</title></circle>
	<circle cx="178.45" cy="353.90" data-y="1.26" data-x="1590796800" r="1" fill="white"><title>2020-05-30: 1</title></circle>
	<circle cx="180.37" cy="353.90" data-y="1.26" data-x="1590883200" r="1" fill="white"><title>2020-05-31: 1</title></circle>
	<circle cx="182.28" cy="349.68" data-y="1.51" data-x="1590969600" r="1" fill="white"><title>2020-06-01: 2</title></circle>
	<circle cx="184.20" cy="347.57" data-y="1.64" data-x="1591056000" r="1" fill="white"><title>2020-06-02: 2</title></circle>
	<circle cx="186.12" cy="345.46" data-y="1.76" data-x="1591142400" r="1" fill="white"><title>2020-06-03: 2</title></circle>
	<circle cx="188.04" cy="351.79" data-y="1.38" data-x="1591228800" r="1" fill="white"><title>2020-06-04: 1</title></circle>
	<circle cx="189.96" cy="356.01" data-y="1.13" data-x="1591315200" r="1" fill="white"><title>2020-06-05: 1</title></circle>
	<circle cx="191.88" cy="356.01" data-y="1.13" data-x="1591401600" r="1" fill="white"><title>2020-06-06: 1</title></circle>
	<circle cx="193.79" cy="351.79" data-y="1.38" data-x="1591488000" r="1" fill="white"><title>2020-06-07: 1</title></circle>
	<circle cx="195.71" cy="351.79" data-y="1.38" data-x="1591574400" r="1" fill="white"><title>2020-06-08: 1</title></circle>
	<circle cx="197.63" cy="353.90" data-y="1.26" data-x="1591660800" r="1" fill="white"><title>2020-06-09: 1</title></circle>
	<circle cx="199.55" cy="356.01" data-y="1.13" data-x="1591747200" r="1" fill="white"><title>2020-06-10: 1</title></circle>
	<circle cx="201.47" cy="356.01" data-y="1.13" data-x="1591833600" r="1" fill="white"><title>2020-06-11: 1</title></circle>
	<circle cx="203.38" cy="358.12" data-y="1.01" data-x="1591920000" r="1" fill="white"><title>2020-06-12: 1</title></circle>
	<circle cx="205.30" cy="360.23" data-y="0.88" data-x="1592006400" r="1" fill="white"><title>2020-06-13: 1</title></circle>
	<circle cx="207.22" cy="366.56" data-y="0.50" data-x="1592092800" r="1" fill="white"><title>2020-06-14: 1</title></circle>
	<circle cx="209.14" cy="368.67" data-y="0.38" data-x="1592179200" r="1" fill="white"><title>2020-06-15: 0</title></circle>
	<circle cx="211.06" cy="366.56" data-y="0.50" data-x="1592265600" r="1" fill="white"><title>2020-06-16: 1</title></circle>
	<circle cx="212.97" cy="366.56" data-y="0.50" data-x="1592352000" r="1" fill="white"><title>2020-06-17: 1</title></circle>
	<circle cx="214.89" cy="366.56" data-y="0.50" data-x="1592438400" r="1" fill="white"><title>2020-06-18: 1</title></circle>
	<circle cx="216.81" cy="366.56" data-y="0.50" data-x="1592524800" r="1" fill="white"><title>2020-06-19: 1</title></circle>
	<circle cx="218.73" cy="368.67" data-y="0.38" data-x="1592611200" r="1" fill="white"><title>2020-06-20: 0</title></circle>
	<circle cx="220.65" cy="368.67" data-y="0.38" data-x="1592697600" r="1" fill="white"><title>2020-06-21: 0</title></circle>
	<circle cx="222.56" cy="364.45" data-y="0.63" data-x="1592784000" r="1" fill="white"><title>2020-06-22: 1</title></circle>
	<circle cx="224.48" cy="364.45" data-y="0.63" data-x="1592870400" r="1" fill="white"><title>2020-06-23: 1</title></circle>
	<circle cx="226.40" cy="362.34" data-y="0.75" data-x="1592956800" r="1" fill="white"><title>2020-06-24: 1</title></circle>
	<circle cx="228.32" cy="362.34" data-y="0.75" data-x="1593043200" r="1" fill="white"><title>2020-06-25: 1</title></circle>
	<circle cx="230.24" cy="360.23" data-y="0.88" data-x="1593129600" r="1" fill="white"><title>2020-06-26: 1</title></circle>
	<circle cx="232.16" cy="360.23" data-y="0.88" data-x="1593216000" r="1" fill="white"><title>2020-06-27: 1</title></circle>
	<circle cx="234.07" cy="353.90" data-y="1.26" data-x="1593302400" r="1" fill="white"><title>2020-06-28: 1</title></circle>
	<circle cx="235.99" cy="351.79" data-y="1.38" data-x="1593388800" r="1" fill="white"><title>2020-06-29: 1</title></circle>
	<circle cx="237.91" cy="351.79" data-y="1.38" data-x="1593475200" r="1" fill="white"><title>2020-06-30: 1</title></circle>
	<circle cx="239.83" cy="353.90" data-y="1.26" data-x="1593561600" r="1" fill="white"><title>2020-07-01: 1</title></circle>
	<circle cx="241.75" cy="347.57" data-y="1.64" data-x="1593648000" r="1" fill="white"><title>2020-07-02: 2</title></circle>
	<circle cx="243.66" cy="349.68" data-y="1.51" data-x="1593734400" r="1" fill="white"><title>2020-07-03: 2</title></circle>
	<circle cx="245.58" cy="347.57" data-y="1.64" data-x="1593820800" r="1" fill="white"><title>2020-07-04: 2</title></circle>
	<circle cx="247.50" cy="353.90" data-y="1.26" data-x="1593907200" r="1" fill="white"><title>2020-07-05: 1</title></circle>
	<circle cx="249.42" cy="362.34" data-y="0.75" data-x="1593993600" r="1" fill="white"><title>2020-07-06: 1</title></circle>
	<circle cx="251.34" cy="362.34" data-y="0.75" data-x="1594080000" r="1" fill="white"><title>2020-07-07: 1</title></circle>
	<circle cx="253.25" cy="362.34" data-y="0.75" data-x="1594166400" r="1" fill="white"><title>2020-07-08: 1</title></circle>
	<circle cx="255.17" cy="368.67" data-y="0.38" data-x="1594252800" r="1" fill="white"><title>2020-07-09: 0</title></circle>
	<circle cx="257.09" cy="368.67" data-y="0.38" data-x="1594339200" r="1" fill="white"><title>2020-07-10: 0</title></circle>
	<circle cx="259.01" cy="370.78" data-y="0.25" data-x="1594425600" r="1" fill="white"><title>2020-07-11: 0</title></circle>
	<circle cx="260.93" cy="368.67" data-y="0.38" data-x="1594512000" r="1" fill="white"><title>2020-07-12: 0</title></circle>
	<circle cx="262.84" cy="366.56" data-y="0.50" data-x="1594598400" r="1" fill="white"><title>2020-07-13: 1</title></circle>
	<circle cx="264.76" cy="368.67" data-y="0.38" data-x="1594684800" r="1" fill="white"><title>2020-07-14: 0</title></circle>
	<circle cx="266.68" cy="366.56" data-y="0.50" data-x="1594771200" r="1" fill="white"><title>2020-07-15: 1</title></circle>
	<circle cx="268.60" cy="356.01" data-y="1.13" data-x="1594857600" r="1" fill="white"><title>2020-07-16: 1</title></circle>
	<circle cx="270.52" cy="345.46" data-y="1.76" data-x="1594944000" r="1" fill="white"><title>2020-07-17: 2</title></circle>
	<circle cx="272.44" cy="341.24" data-y="2.01" data-x="1595030400" r="1" fill="white"><title>2020-07-18: 2</title></circle>
	<circle cx="274.35" cy="343.35" data-y="1.89" data-x="1595116800" r="1" fill="white"><title>2020-07-19: 2</title></circle>
	<circle cx="276.27" cy="341.24" data-y="2.01" data-x="1595203200" r="1" fill="white"><title>2020-07-20: 2</title></circle>
	<circle cx="278.19" cy="339.13" data-y="2.14" data-x="1595289600" r="1" fill="white"><title>2020-07-21: 2</title></circle>
	<circle cx="280.11" cy="339.13" data-y="2.14" data-x="1595376000" r="1" fill="white"><title>2020-07-22: 2</title></circle>
	<circle cx="282.03" cy="347.57" data-y="1.64" data-x="1595462400" r="1" fill="white"><title>2020-07-23: 2</title></circle>
	<circle cx="283.94" cy="351.79" data-y="1.38" data-x="1595548800" r="1" fill="white"><title>2020-07-24: 1</title></circle>
	<circle cx="285.86" cy="353.90" data-y="1.26" data-x="1595635200" r="1" fill="white"><title>2020-07-25: 1</title></circle>
	<circle cx="287.78" cy="353.90" data-y="1.26" data-x="1595721600" r="1" fill="white"><title>2020-07-26: 1</title></circle>
	<circle cx="289.70" cy="353.90" data-y="1.26" data-x="1595808000" r="1" fill="white"><title>2020-07-27: 1</title></circle>
	<circle cx="291.62" cy="356.01" data-y="1.13" data-x="1595894400" r="1" fill="white"><title>2020-07-28: 1</title></circle>
	<circle cx="293.53" cy="360.23" data-y="0.88" data-x="1595980800" r="1" fill="white"><title>2020-07-29: 1</title></circle>
	<circle cx="295.45" cy="362.34" data-y="0.75" data-x="1596067200" r="1" fill="white"><title>2020-07-30: 1</title></circle>
	<circle cx="297.37" cy="368.67" data-y="0.38" data-x="1596153600" r="1" fill="white"><title>2020-07-31: 0</title></circle>
	<circle cx="299.29" cy="368.67" data-y="0.38" data-x="1596240000" r="1" fill="white"><title>2020-08-01: 0</title></circle>
	<circle cx="301.21" cy="368.67" data-y="0.38" data-x="1596326400" r="1" fill="white"><title>2020-08-02: 0</title></circle>
	<circle cx="303.12" cy="372.89" data-y="0.13" data-x="1596412800" r="1" fill="white"><title>2020-08-03: 0</title></circle>
	<circle cx="305.04" cy="372.89" data-y="0.13" data-x="1596499200" r="1" fill="white"><title>2020-08-04: 0</title></circle>
	<circle cx="306.96" cy="372.89" data-y="0.13" data-x="1596585600" r="1" fill="white"><title>2020-08-05: 0</title></circle>
	<circle cx="308.88" cy="372.89" data-y="0.13" data-x="1596672000" r="1" fill="white"><title>2020-08-06: 0</title></circle>
	<circle cx="310.80" cy="370.78" data-y="0.25" data-x="1596758400" r="1" fill="white"><title>2020-08-07: 0</title></circle>
	<circle cx="312.72" cy="370.78" data-y="0.25" data-x="1596844800" r="1" fill="white"><title>2020-08-08: 0</title></circle>
	<circle cx="314.63" cy="364.45" data-y="0.63" data-x="1596931200" r="1" fill="white"><title>2020-08-09: 1</title></circle>
	<circle cx="316.55" cy="358.12" data-y="1.01" data-x="1597017600" r="1" fill="white"><title>2020-08-10: 1</title></circle>
	<circle cx="318.47" cy="358.12" data-y="1.01" data-x="1597104000" r="1" fill="white"><title>2020-08-11: 1</title></circle>
	<circle cx="320.39" cy="358.12" data-y="1.01" data-x="1597190400" r="1" fill="white"><title>2020-08-12: 1</title></circle>
	<circle cx="322.31" cy="358.12" data-y="1.01" data-x="1597276800" r="1" fill="white"><title>2020-08-13: 1</title></circle>
	<circle cx="324.22" cy="356.01" data-y="1.13" data-x="1597363200" r="1" fill="white"><title>2020-08-14: 1</title></circle>
	<circle cx="326.14" cy="351.79" data-y="1.38" data-x="1597449600" r="1" fill="white"><title>2020-08-15: 1</title></circle>
	<circle cx="328.06" cy="351.79" data-y="1.38" data-x="1597536000" r="1" fill="white"><title>2020-08-16: 1</title></circle>
	<circle cx="329.98" cy="358.12" data-y="1.01" data-x="1597622400" r="1" fill="white"><title>2020-08-17: 1</title></circle>
	<circle cx="331.90" cy="356.01" data-y="1.13" data-x="1597708800" r="1" fill="white"><title>2020-08-18: 1</title></circle>
	<circle cx="333.81" cy="356.01" data-y="1.13" data-x="1597795200" r="1" fill="white"><title>2020-08-19: 1</title></circle>
	<circle cx="335.73" cy="356.01" data-y="1.13" data-x="1597881600" r="1" fill="white"><title>2020-08-20: 1</title></circle>
	<circle cx="337.65" cy="358.12" data-y="1.01" data-x="1597968000" r="1" fill="white"><title>2020-08-21: 1</title></circle>
	<circle cx="339.57" cy="362.34" data-y="0.75" data-x="1598054400" r="1" fill="white"><title>2020-08-22: 1</title></circle>
	<circle cx="341.49" cy="368.67" data-y="0.38" data-x="1598140800" r="1" fill="white"><title>2020-08-23: 0</title></circle>
	<circle cx="343.41" cy="366.56" data-y="0.50" data-x="1598227200" r="1" fill="white"><title>2020-08-24: 1</title></circle>
	<circle cx="345.32" cy="362.34" data-y="0.75" data-x="1598313600" r="1" fill="white"><title>2020-08-25: 1</title></circle>
	<circle cx="347.24" cy="362.34" data-y="0.75" data-x="1598400000" r="1" fill="white"><title>2020-08-26: 1</title></circle>
	<circle cx="349.16" cy="360.23" data-y="0.88" data-x="1598486400" r="1" fill="white"><title>2020-08-27: 1</title></circle>
	<circle cx="351.08" cy="362.34" data-y="0.75" data-x="1598572800" r="1" fill="white"><title>2020-08-28: 1</title></circle>
	<circle cx="353.00" cy="364.45" data-y="0.63" data-x="1598659200" r="1" fill="white"><title>2020-08-29: 1</title></circle>
	<circle cx="354.91" cy="362.34" data-y="0.75" data-x="1598745600" r="1" fill="white"><title>2020-08-30: 1</title></circle>
	<circle cx="356.83" cy="362.34" data-y="0.75" data-x="1598832000" r="1" fill="white"><title>2020-08-31: 1</title></circle>
	<circle cx="358.75" cy="358.12" data-y="1.01" data-x="1598918400" r="1" fill="white"><title>2020-09-01: 1</title></circle>
	<circle cx="360.67" cy="358.12" data-y="1.01" data-x="1599004800" r="1" fill="white"><title>2020-09-02: 1</title></circle>
	<circle cx="362.59" cy="358.12" data-y="1.01" data-x="1599091200" r="1" fill="white"><title>2020-09-03: 1</title></circle>
	<circle cx="364.50" cy="341.24" data-y="2.01" data-x="1599177600" r="1" fill="white"><title>2020-09-04: 2</title></circle>
	<circle cx="366.42" cy="339.13" data-y="2.14" data-x="1599264000" r="1" fill="white"><title>2020-09-05: 2</title></circle>
	<circle cx="368.34" cy="341.24" data-y="2.01" data-x="1599350400" r="1" fill="white"><title>2020-09-06: 2</title></circle>
	<circle cx="370.26" cy="334.91" data-y="2.39" data-x="1599436800" r="1" fill="white"><title>2020-09-07: 2</title></circle>
	<circle cx="372.18" cy="345.46" data-y="1.76" data-x="1599523200" r="1" fill="white"><title>2020-09-08: 2</title></circle>
	<circle cx="374.09" cy="345.46" data-y="1.76" data-x="1599609600" r="1" fill="white"><title>2020-09-09: 2</title></circle>
	<circle cx="376.01" cy="345.46" data-y="1.76" data-x="1599696000" r="1" fill="white"><title>2020-09-10: 2</title></circle>
	<circle cx="377.93" cy="358.12" data-y="1.01" data-x="1599782400" r="1" fill="white"><title>2020-09-11: 1</title></circle>
	<circle cx="379.85" cy="360.23" data-y="0.88" data-x="1599868800" r="1" fill="white"><title>2020-09-12: 1</title></circle>
	<circle cx="381.77" cy="360.23" data-y="0.88" data-x="1599955200" r="1" fill="white"><title>2020-09-13: 1</title></circle>
	<circle cx="383.69" cy="368.67" data-y="0.38" data-x="1600041600" r="1" fill="white"><title>2020-09-14: 0</title></circle>
	<circle cx="385.60" cy="364.45" data-y="0.63" data-x="1600128000" r="1" fill="white"><title>2020-09-15: 1</title></circle>
	<circle cx="387.52" cy="362.34" data-y="0.75" data-x="1600214400" r="1" fill="white"><title>2020-09-16: 1</title></circle>
	<circle cx="389.44" cy="362.34" data-y="0.75" data-x="1600300800" r="1" fill="white"><title>2020-09-17: 1</title></circle>
	<circle cx="391.36" cy="356.01" data-y="1.13" data-x="1600387200" r="1" fill="white"><title>2020-09-18: 1</title></circle>
	<circle cx="393.28" cy="351.79" data-y="1.38" data-x="1600473600" r="1" fill="white"><title>2020-09-19: 1</title></circle>
	<circle cx="395.19" cy="341.24" data-y="2.01" data-x="1600560000" r="1" fill="white"><title>2020-09-20: 2</title></circle>
	<circle cx="397.11" cy="326.47" data-y="2.89" data-x="1600646400" r="1" fill="white"><title>2020-09-21: 3</title></circle>
	<circle cx="399.03" cy="320.14" data-y="3.27" data-x="1600732800" r="1" fill="white"><title>2020-09-22: 3</title></circle>
	<circle cx="400.95" cy="318.03" data-y="3.40" data-x="1600819200" r="1" fill="white"><title>2020-09-23: 3</title></circle>
	<circle cx="402.87" cy="311.71" data-y="3.77" data-x="1600905600" r="1" fill="white"><title>2020-09-24: 4</title></circle>
	<circle cx="404.78" cy="309.60" data-y="3.90" data-x="1600992000" r="1" fill="white"><title>2020-09-25: 4</title></circle>
	<circle cx="406.70" cy="307.49" data-y="4.03" data-x="1601078400" r="1" fill="white"><title>2020-09-26: 4</title></circle>
	<circle cx="408.62" cy="311.71" data-y="3.77" data-x="1601164800" r="1" fill="white"><title>2020-09-27: 4</title></circle>
	<circle cx="410.54" cy="318.03" data-y="3.40" data-x="1601251200" r="1" fill="white"><title>2020-09-28: 3</title></circle>
	<circle cx="412.46" cy="315.92" data-y="3.52" data-x="1601337600" r="1" fill="white"><title>2020-09-29: 4</title></circle>
	<circle cx="414.38" cy="301.16" data-y="4.40" data-x="1601424000" r="1" fill="white"><title>2020-09-30: 4</title></circle>
	<circle cx="416.29" cy="290.61" data-y="5.03" data-x="1601510400" r="1" fill="white"><title>2020-10-01: 5</title></circle>
	<circle cx="418.21" cy="288.50" data-y="5.16" data-x="1601596800" r="1" fill="white"><title>2020-10-02: 5</title></circle>
	<circle cx="420.13" cy="280.06" data-y="5.66" data-x="1601683200" r="1" fill="white"><title>2020-10-03: 6</title></circle>
	<circle cx="422.05" cy="267.40" data-y="6.42" data-x="1601769600" r="1" fill="white"><title>2020-10-04: 6</title></circle>
	<circle cx="423.97" cy="252.63" data-y="7.30" data-x="1601856000" r="1" fill="white"><title>2020-10-05: 7</title></circle>
	<circle cx="425.88" cy="256.85" data-y="7.05" data-x="1601942400" r="1" fill="white"><title>2020-10-06: 7</title></circle>
	<circle cx="427.80" cy="256.85" data-y="7.05" data-x="1602028800" r="1" fill="white"><title>2020-10-07: 7</title></circle>
	<circle cx="429.72" cy="265.29" data-y="6.54" data-x="1602115200" r="1" fill="white"><title>2020-10-08: 7</title></circle>
	<circle cx="431.64" cy="261.07" data-y="6.79" data-x="1602201600" r="1" fill="white"><title>2020-10-09: 7</title></circle>
	<circle cx="433.56" cy="256.85" data-y="7.05" data-x="1602288000" r="1" fill="white"><title>2020-10-10: 7</title></circle>
	<circle cx="435.47" cy="256.85" data-y="7.05" data-x="1602374400" r="1" fill="white"><title>2020-10-11: 7</title></circle>
	<circle cx="437.39" cy="252.63" data-y="7.30" data-x="1602460800" r="1" fill="white"><title>2020-10-12: 7</title></circle>
	<circle cx="439.31" cy="246.30" data-y="7.68" data-x="1602547200" r="1" fill="white"><title>2020-10-13: 8</title></circle>
	<circle cx="441.23" cy="250.52" data-y="7.42" data-x="1602633600" r="1" fill="white"><title>2020-10-14: 7</title></circle>
	<circle cx="443.15" cy="239.97" data-y="8.05" data-x="1602720000" r="1" fill="white"><title>2020-10-15: 8</title></circle>
	<circle cx="445.06" cy="227.31" data-y="8.81" data-x="1602806400" r="1" fill="white"><title>2020-10-16: 9</title></circle>
	<circle cx="446.98" cy="191.45" data-y="10.95" data-x="1602892800" r="1" fill="white"><title>2020-10-17: 11</title></circle>
	<circle cx="448.90" cy="151.36" data-y="13.34" data-x="1602979200" r="1" fill="white"><title>2020-10-18: 13</title></circle>
	<circle cx="450.82" cy="128.15" data-y="14.72" data-x="1603065600" r="1" fill="white"><title>2020-10-19: 15</title></circle>
	<circle cx="452.74" cy="109.16" data-y="15.85" data-x="1603152000" r="1" fill="white"><title>2020-10-20: 16</title></circle>
	<circle cx="454.66" cy="85.95" data-y="17.24" data-x="1603238400" r="1" fill="white"><title>2020-10-21: 17</title></circle>
	<circle cx="456.57" cy="83.84" data-y="17.36" data-x="1603324800" r="1" fill="white"><title>2020-10-22: 17</title></circle>
	<circle cx="458.49" cy="10.00" data-y="21.77" data-x="1603411200" r="1" fill="white"><title>2020-10-23: 22</title></circle>
	<circle cx="460.41" cy="22.66" data-y="21.01" data-x="1603497600" r="1" fill="white"><title>2020-10-24: 21</title></circle>
</g>
<g data-series="recent-cases" class="data-series">
	<path d="M 460.41,22.66L 462.33,58.53L 464.25,109.16L 466.16,104.24L 468.08,103.25L 470.00,75.93" id="Recent cases" class="line" stroke-width="1" stroke-linecap="round" stroke-dasharray="4,6" stroke-dashoffset="4"><title>Recent cases</title></path>
	<circle cx="460.41" cy="22.66" data-y="21.01" data-x="1603497600" r="2.5" fill="white"><title>2020-10-24: 21</title></circle>
	<circle cx="462.33" cy="58.53" data-y="18.87" data-x="1603584000" r="2.5" fill="white"><title>2020-10-25: 19</title></circle>
	<circle cx="464.25" cy="109.16" data-y="15.85" data-x="1603670400" r="2.5" fill="white"><title>2020-10-26: 16</title></circle>
	<circle cx="466.16" cy="104.24" data-y="16.15" data-x="1603756800" r="2.5" fill="white"><title>2020-10-27: 16</title></circle>
	<circle cx="468.08" cy="103.25" data-y="16.21" data-x="1603843200" r="2.5" fill="white"><title>2020-10-28: 16</title></circle>
	<circle cx="470.00" cy="75.93" data-y="17.84" data-x="1603929600" r="2.5" fill="white"><title>2020-10-29: 18</title></circle>
</g>
</svg>
