<svg width="480" height="400" viewBox="0 0 480 400" xmlns="http://www.w3.org/2000/svg" style="overflow:display" preserveAspectRatio="xMinYMin meet" overflow="visible">
<defs>
	<style>
	.data-series path.line { fill-opacity: 0; stroke: black; }
	.data-series path.line.dotted { stroke-dasharray: 12 20 }
	.data-series:hover path.line, .data-series.on path.line { stroke-width: 1; }
	.data-series:hover circle, .data-series.on circle { display: inline; }
	.graph-grid { font-family: "Helvetica Neue",Helvetica,Arial,"Lucida Grande",sans-serif; }
	.graph-grid line { stroke: black; stroke-width: 1; stroke-linecap: round; }
	.graph-grid.graph-grid-x text { text-anchor: middle; dominant-baseline: hanging; transform: translateY(10px); }
	.graph-grid.graph-grid-y text { text-anchor: end; dominant-baseline: middle; transform: translateX(-10px); }
	</style>
</defs>
<g class="graph-grid graph-grid-y">
	<line x1="15.00" y1="375.00" x2="470.00" y2="375.00" data-left="15"></line>
	<text x="25" y="375" text-anchor="end">0</text>
	<text x="25" y="239.934591317365" text-anchor="end">5</text>
	<text x="25" y="104.869182634731" text-anchor="end">10</text>
	<text style="text-anchor:middle;dominant-baseline:hanging;font-weight:bold;transform: translateY(192.5px) rotate(-90deg);"></text>
</g>
<g class="graph-grid graph-grid-x">
	<line class="tick" x1="71.37" y1="375.00" x2="71.37" y2="380.00"></line>
	<text x="71.3716814159292" y="375" text-anchor="middle">A</text>
	<line class="tick" x1="131.77" y1="375.00" x2="131.77" y2="380.00"></line>
	<text x="131.769911504425" y="375" text-anchor="middle">M</text>
	<line class="tick" x1="194.18" y1="375.00" x2="194.18" y2="380.00"></line>
	<text x="194.181415929204" y="375" text-anchor="middle">J</text>
	<line class="tick" x1="254.58" y1="375.00" x2="254.58" y2="380.00"></line>
	<text x="254.579646017699" y="375" text-anchor="middle">J</text>
	<line class="tick" x1="316.99" y1="375.00" x2="316.99" y2="380.00"></line>
	<text x="316.991150442478" y="375" text-anchor="middle">A</text>
	<line class="tick" x1="379.40" y1="375.00" x2="379.40" y2="380.00"></line>
	<text x="379.402654867257" y="375" text-anchor="middle">S</text>
	<line class="tick" x1="439.80" y1="375.00" x2="439.80" y2="380.00"></line>
	<text x="439.800884955752" y="375" text-anchor="middle">O</text>
	<text style="text-anchor:middle;dominant-baseline:hanging;font-weight:bold;transform: translateY(192.5px) rotate(-90deg);"></text>
</g>
<g data-series="widespread" class="data-series">
	<path d="M 15.00,185.91L 470.00,185.91" id="E07000084-level-0" class="line" stroke-width="1" stroke-linecap="round" stroke-dasharray="3,3" fill-opacity="0.3" opacity="0.3"><title>Widespread</title></path>
</g>
<g data-series="substantial" class="data-series">
	<path d="M 15.00,266.95L 470.00,266.95" id="E07000084-level-1" class="line" stroke-width="1" stroke-linecap="round" stroke-dasharray="3,3" fill-opacity="0.3" opacity="0.3"><title>Substantial</title></path>
</g>
<g data-series="moderate" class="data-series">
	<path d="M 15.00,347.99L 470.00,347.99" id="E07000084-level-2" class="line" stroke-width="1" stroke-linecap="round" stroke-dasharray="3,3" fill-opacity="0.3" opacity="0.3"><title>Moderate</title></path>
</g>
<g data-series="new-cases" class="data-series">
	<path d="M 15.00,359.70L 17.01,362.76L 19.03,354.60L 21.04,355.33L 23.05,353.14L 25.07,324.73L 27.08,324.73L 29.09,324.73L 31.11,324.73L 33.12,326.92L 35.13,318.17L 37.15,315.99L 39.16,331.29L 41.17,322.54L 43.19,320.36L 45.20,318.17L 47.21,296.32L 49.23,291.95L 51.24,281.02L 53.25,252.60L 55.27,237.31L 57.28,187.04L 59.29,158.62L 61.31,128.02L 63.32,93.05L 65.33,69.01L 67.35,51.53L 69.36,10.00L 71.37,25.30L 73.38,14.37L 75.40,14.37L 77.41,20.93L 79.42,16.56L 81.44,31.86L 83.45,49.34L 85.46,64.64L 87.48,82.13L 89.49,99.61L 91.50,110.54L 93.52,132.40L 95.53,152.07L 97.54,187.04L 99.56,187.04L 101.57,180.48L 103.58,195.78L 105.60,193.59L 107.61,178.29L 109.62,171.74L 111.64,176.11L 113.65,169.55L 115.66,184.85L 117.68,182.66L 119.69,173.92L 121.70,200.15L 123.72,206.71L 125.73,197.96L 127.74,215.45L 129.76,206.71L 131.77,193.59L 133.78,224.19L 135.80,230.75L 137.81,237.31L 139.82,248.23L 141.84,250.42L 143.85,263.53L 145.86,274.46L 147.88,281.02L 149.89,250.42L 151.90,265.72L 153.92,267.90L 155.93,272.28L 157.94,276.65L 159.96,287.57L 161.97,230.75L 163.98,254.79L 166.00,243.86L 168.01,224.19L 170.02,215.45L 172.04,208.89L 174.05,197.96L 176.06,252.60L 178.08,256.98L 180.09,259.16L 182.10,287.57L 184.12,298.50L 186.13,305.06L 188.14,329.10L 190.15,313.80L 192.17,318.17L 194.18,322.54L 196.19,320.36L 198.21,320.36L 200.22,324.73L 202.23,329.10L 204.25,353.14L 206.26,353.14L 208.27,359.70L 210.29,364.07L 212.30,366.26L 214.31,366.26L 216.33,368.44L 218.34,368.44L 220.35,372.81L 222.37,372.81L 224.38,372.81L 226.39,370.63L 228.41,372.81L 230.42,372.81L 232.43,370.63L 234.45,370.63L 236.46,370.63L 238.47,368.44L 240.49,370.63L 242.50,370.63L 244.51,370.63L 246.53,372.81L 248.54,370.63L 250.55,368.44L 252.57,370.63L 254.58,370.63L 256.59,370.63L 258.61,370.63L 260.62,368.44L 262.63,370.63L 264.65,372.81L 266.66,372.81L 268.67,372.81L 270.69,372.81L 272.70,372.81L 274.71,370.63L 276.73,370.63L 278.74,370.63L 280.75,370.63L 282.77,370.63L 284.78,370.63L 286.79,368.44L 288.81,372.81L 290.82,370.63L 292.83,370.63L 294.85,368.44L 296.86,368.44L 298.87,368.44L 300.88,366.26L 302.90,359.70L 304.91,357.51L 306.92,357.51L 308.94,359.70L 310.95,359.70L 312.96,359.70L 314.98,364.07L 316.99,368.44L 319.00,372.81L 321.02,370.63L 323.03,370.63L 325.04,370.63L 327.06,370.63L 329.07,370.63L 331.08,372.81L 333.10,372.81L 335.11,375.00L 337.12,372.81L 339.14,372.81L 341.15,370.63L 343.16,370.63L 345.18,366.26L 347.19,364.07L 349.20,361.89L 351.22,359.70L 353.23,359.70L 355.24,357.51L 357.26,357.51L 359.27,355.33L 361.28,357.51L 363.30,355.33L 365.31,357.51L 367.32,355.33L 369.34,355.33L 371.35,355.33L 373.36,350.96L 375.38,350.96L 377.39,344.40L 379.40,346.59L 381.42,346.59L 383.43,348.77L 385.44,346.59L 387.46,350.96L 389.47,342.22L 391.48,353.14L 393.50,353.14L 395.51,355.33L 397.52,355.33L 399.54,357.51L 401.55,361.89L 403.56,364.07L 405.58,355.33L 407.59,340.03L 409.60,337.84L 411.62,333.47L 413.63,331.29L 415.64,324.73L 417.65,329.10L 419.67,329.10L 421.68,329.10L 423.69,318.17L 425.71,324.73L 427.72,324.73L 429.73,318.17L 431.75,300.69L 433.76,300.69L 435.77,294.13L 437.79,281.02L 439.80,256.98L 441.81,250.42L 443.83,222.01L 445.84,215.45L 447.85,178.29L 449.87,171.74L 451.88,169.55L 453.89,167.37L 455.91,162.99L 457.92,154.25L 459.93,173.92" id="New cases" class="line" stroke-width="1" stroke-linecap="round"><title>New cases</title></path>
	<circle cx="15.00" cy="359.70" data-y="0.57" data-x="1583280000" r="1" fill="white"><title>2020-03-04: 1</title></circle>
	<circle cx="17.01" cy="362.76" data-y="0.45" data-x="1583366400" r="1" fill="white"><title>2020-03-05: 0</title></circle>
	<circle cx="19.03" cy="354.60" data-y="0.76" data-x="1583452800" r="1" fill="white"><title>2020-03-06: 1</title></circle>
	<circle cx="21.04" cy="355.33" data-y="0.73" data-x="1583539200" r="1" fill="white"><title>2020-03-07: 1</title></circle>
	<circle cx="23.05" cy="353.14" data-y="0.81" data-x="1583625600" r="1" fill="white"><title>2020-03-08: 1</title></circle>
	<circle cx="25.07" cy="324.73" data-y="1.86" data-x="1583712000" r="1" fill="white"><title>2020-03-09: 2</title></circle>
	<circle cx="27.08" cy="324.73" data-y="1.86" data-x="1583798400" r="1" fill="white"><title>2020-03-10: 2</title></circle>
	<circle cx="29.09" cy="324.73" data-y="1.86" data-x="1583884800" r="1" fill="white"><title>2020-03-11: 2</title></circle>
	<circle cx="31.11" cy="324.73" data-y="1.86" data-x="1583971200" r="1" fill="white"><title>2020-03-12: 2</title></circle>
	<circle cx="33.12" cy="326.92" data-y="1.78" data-x="1584057600" r="1" fill="white"><title>2020-03-13: 2</title></circle>
	<circle cx="35.13" cy="318.17" data-y="2.10" data-x="1584144000" r="1" fill="white"><title>2020-03-14: 2</title></circle>
	<circle cx="37.15" cy="315.99" data-y="2.18" data-x="1584230400" r="1" fill="white"><title>2020-03-15: 2</title></circle>
	<circle cx="39.16" cy="331.29" data-y="1.62" data-x="1584316800" r="1" fill="white"><title>2020-03-16: 2</title></circle>
	<circle cx="41.17" cy="322.54" data-y="1.94" data-x="1584403200" r="1" fill="white"><title>2020-03-17: 2</title></circle>
	<circle cx="43.19" cy="320.36" data-y="2.02" data-x="1584489600" r="1" fill="white"><title>2020-03-18: 2</title></circle>
	<circle cx="45.20" cy="318.17" data-y="2.10" data-x="1584576000" r="1" fill="white"><title>2020-03-19: 2</title></circle>
	<circle cx="47.21" cy="296.32" data-y="2.91" data-x="1584662400" r="1" fill="white"><title>2020-03-20: 3</title></circle>
	<circle cx="49.23" cy="291.95" data-y="3.07" data-x="1584748800" r="1" fill="white"><title>2020-03-21: 3</title></circle>
	<circle cx="51.24" cy="281.02" data-y="3.48" data-x="1584835200" r="1" fill="white"><title>2020-03-22: 3</title></circle>
	<circle cx="53.25" cy="252.60" data-y="4.53" data-x="1584921600" r="1" fill="white"><title>2020-03-23: 5</title></circle>
	<circle cx="55.27" cy="237.31" data-y="5.10" data-x="1585008000" r="1" fill="white"><title>2020-03-24: 5</title></circle>
	<circle cx="57.28" cy="187.04" data-y="6.96" data-x="1585094400" r="1" fill="white"><title>2020-03-25: 7</title></circle>
	<circle cx="59.29" cy="158.62" data-y="8.01" data-x="1585180800" r="1" fill="white"><title>2020-03-26: 8</title></circle>
	<circle cx="61.31" cy="128.02" data-y="9.14" data-x="1585267200" r="1" fill="white"><title>2020-03-27: 9</title></circle>
	<circle cx="63.32" cy="93.05" data-y="10.44" data-x="1585353600" r="1" fill="white"><title>2020-03-28: 10</title></circle>
	<circle cx="65.33" cy="69.01" data-y="11.33" data-x="1585440000" r="1" fill="white"><title>2020-03-29: 11</title></circle>
	<circle cx="67.35" cy="51.53" data-y="11.97" data-x="1585526400" r="1" fill="white"><title>2020-03-30: 12</title></circle>
	<circle cx="69.36" cy="10.00" data-y="13.51" data-x="1585612800" r="1" fill="white"><title>2020-03-31: 14</title></circle>
	<circle cx="71.37" cy="25.30" data-y="12.95" data-x="1585699200" r="1" fill="white"><title>2020-04-01: 13</title></circle>
	<circle cx="73.38" cy="14.37" data-y="13.35" data-x="1585785600" r="1" fill="white"><title>2020-04-02: 13</title></circle>
	<circle cx="75.40" cy="14.37" data-y="13.35" data-x="1585872000" r="1" fill="white"><title>2020-04-03: 13</title></circle>
	<circle cx="77.41" cy="20.93" data-y="13.11" data-x="1585958400" r="1" fill="white"><title>2020-04-04: 13</title></circle>
	<circle cx="79.42" cy="16.56" data-y="13.27" data-x="1586044800" r="1" fill="white"><title>2020-04-05: 13</title></circle>
	<circle cx="81.44" cy="31.86" data-y="12.70" data-x="1586131200" r="1" fill="white"><title>2020-04-06: 13</title></circle>
	<circle cx="83.45" cy="49.34" data-y="12.06" data-x="1586217600" r="1" fill="white"><title>2020-04-07: 12</title></circle>
	<circle cx="85.46" cy="64.64" data-y="11.49" data-x="1586304000" r="1" fill="white"><title>2020-04-08: 11</title></circle>
	<circle cx="87.48" cy="82.13" data-y="10.84" data-x="1586390400" r="1" fill="white"><title>2020-04-09: 11</title></circle>
	<circle cx="89.49" cy="99.61" data-y="10.19" data-x="1586476800" r="1" fill="white"><title>2020-04-10: 10</title></circle>
	<circle cx="91.50" cy="110.54" data-y="9.79" data-x="1586563200" r="1" fill="white"><title>2020-04-11: 10</title></circle>
	<circle cx="93.52" cy="132.40" data-y="8.98" data-x="1586649600" r="1" fill="white"><title>2020-04-12: 9</title></circle>
	<circle cx="95.53" cy="152.07" data-y="8.25" data-x="1586736000" r="1" fill="white"><title>2020-04-13: 8</title></circle>
	<circle cx="97.54" cy="187.04" data-y="6.96" data-x="1586822400" r="1" fill="white"><title>2020-04-14: 7</title></circle>
	<circle cx="99.56" cy="187.04" data-y="6.96" data-x="1586908800" r="1" fill="white"><title>2020-04-15: 7</title></circle>
	<circle cx="101.57" cy="180.48" data-y="7.20" data-x="1586995200" r="1" fill="white"><title>2020-04-16: 7</title></circle>
	<circle cx="103.58" cy="195.78" data-y="6.63" data-x="1587081600" r="1" fill="white"><title>2020-04-17: 7</title></circle>
	<circle cx="105.60" cy="193.59" data-y="6.72" data-x="1587168000" r="1" fill="white"><title>2020-04-18: 7</title></circle>
	<circle cx="107.61" cy="178.29" data-y="7.28" data-x="1587254400" r="1" fill="white"><title>2020-04-19: 7</title></circle>
	<circle cx="109.62" cy="171.74" data-y="7.52" data-x="1587340800" r="1" fill="white"><title>2020-04-20: 8</title></circle>
	<circle cx="111.64" cy="176.11" data-y="7.36" data-x="1587427200" r="1" fill="white"><title>2020-04-21: 7</title></circle>
	<circle cx="113.65" cy="169.55" data-y="7.61" data-x="1587513600" r="1" fill="white"><title>2020-04-22: 8</title></circle>
	<circle cx="115.66" cy="184.85" data-y="7.04" data-x="1587600000" r="1" fill="white"><title>2020-04-23: 7</title></circle>
	<circle cx="117.68" cy="182.66" data-y="7.12" data-x="1587686400" r="1" fill="white"><title>2020-04-24: 7</title></circle>
	<circle cx="119.69" cy="173.92" data-y="7.44" data-x="1587772800" r="1" fill="white"><title>2020-04-25: 7</title></circle>
	<circle cx="121.70" cy="200.15" data-y="6.47" data-x="1587859200" r="1" fill="white"><title>2020-04-26: 6</title></circle>
	<circle cx="123.72" cy="206.71" data-y="6.23" data-x="1587945600" r="1" fill="white"><title>2020-04-27: 6</title></circle>
	<circle cx="125.73" cy="197.96" data-y="6.55" data-x="1588032000" r="1" fill="white"><title>2020-04-28: 7</title></circle>
	<circle cx="127.74" cy="215.45" data-y="5.91" data-x="1588118400" r="1" fill="white"><title>2020-04-29: 6</title></circle>
	<circle cx="129.76" cy="206.71" data-y="6.23" data-x="1588204800" r="1" fill="white"><title>2020-04-30: 6</title></circle>
	<circle cx="131.77" cy="193.59" data-y="6.72" data-x="1588291200" r="1" fill="white"><title>2020-05-01: 7</title></circle>
	<circle cx="133.78" cy="224.19" data-y="5.58" data-x="1588377600" r="1" fill="white"><title>2020-05-02: 6</title></circle>
	<circle cx="135.80" cy="230.75" data-y="5.34" data-x="1588464000" r="1" fill="white"><title>2020-05-03: 5</title></circle>
	<circle cx="137.81" cy="237.31" data-y="5.10" data-x="1588550400" r="1" fill="white"><title>2020-05-04: 5</title></circle>
	<circle cx="139.82" cy="248.23" data-y="4.69" data-x="1588636800" r="1" fill="white"><title>2020-05-05: 5</title></circle>
	<circle cx="141.84" cy="250.42" data-y="4.61" data-x="1588723200" r="1" fill="white"><title>2020-05-06: 5</title></circle>
	<circle cx="143.85" cy="263.53" data-y="4.13" data-x="1588809600" r="1" fill="white"><title>2020-05-07: 4</title></circle>
	<circle cx="145.86" cy="274.46" data-y="3.72" data-x="1588896000" r="1" fill="white"><title>2020-05-08: 4</title></circle>
	<circle cx="147.88" cy="281.02" data-y="3.48" data-x="1588982400" r="1" fill="white"><title>2020-05-09: 3</title></circle>
	<circle cx="149.89" cy="250.42" data-y="4.61" data-x="1589068800" r="1" fill="white"><title>2020-05-10: 5</title></circle>
	<circle cx="151.90" cy="265.72" data-y="4.05" data-x="1589155200" r="1" fill="white"><title>2020-05-11: 4</title></circle>
	<circle cx="153.92" cy="267.90" data-y="3.96" data-x="1589241600" r="1" fill="white"><title>2020-05-12: 4</title></circle>
	<circle cx="155.93" cy="272.28" data-y="3.80" data-x="1589328000" r="1" fill="white"><title>2020-05-13: 4</title></circle>
	<circle cx="157.94" cy="276.65" data-y="3.64" data-x="1589414400" r="1" fill="white"><title>2020-05-14: 4</title></circle>
	<circle cx="159.96" cy="287.57" data-y="3.24" data-x="1589500800" r="1" fill="white"><title>2020-05-15: 3</title></circle>
	<circle cx="161.97" cy="230.75" data-y="5.34" data-x="1589587200" r="1" fill="white"><title>2020-05-16: 5</title></circle>
	<circle cx="163.98" cy="254.79" data-y="4.45" data-x="1589673600" r="1" fill="white"><title>2020-05-17: 4</title></circle>
	<circle cx="166.00" cy="243.86" data-y="4.85" data-x="1589760000" r="1" fill="white"><title>2020-05-18: 5</title></circle>
	<circle cx="168.01" cy="224.19" data-y="5.58" data-x="1589846400" r="1" fill="white"><title>2020-05-19: 6</title></circle>
	<circle cx="170.02" cy="215.45" data-y="5.91" data-x="1589932800" r="1" fill="white"><title>2020-05-20: 6</title></circle>
	<circle cx="172.04" cy="208.89" data-y="6.15" data-x="1590019200" r="1" fill="white"><title>2020-05-21: 6</title></circle>
	<circle cx="174.05" cy="197.96" data-y="6.55" data-x="1590105600" r="1" fill="white"><title>2020-05-22: 7</title></circle>
	<circle cx="176.06" cy="252.60" data-y="4.53" data-x="1590192000" r="1" fill="white"><title>2020-05-23: 5</title></circle>
	<circle cx="178.08" cy="256.98" data-y="4.37" data-x="1590278400" r="1" fill="white"><title>2020-05-24: 4</title></circle>
	<circle cx="180.09" cy="259.16" data-y="4.29" data-x="1590364800" r="1" fill="white"><title>2020-05-25: 4</title></circle>
	<circle cx="182.10" cy="287.57" data-y="3.24" data-x="1590451200" r="1" fill="white"><title>2020-05-26: 3</title></circle>
	<circle cx="184.12" cy="298.50" data-y="2.83" data-x="1590537600" r="1" fill="white"><title>2020-05-27: 3</title></circle>
	<circle cx="186.13" cy="305.06" data-y="2.59" data-x="1590624000" r="1" fill="white"><title>2020-05-28: 3</title></circle>
	<circle cx="188.14" cy="329.10" data-y="1.70" data-x="1590710400" r="1" fill="white"><title>2020-05-29: 2</title></circle>
	<circle cx="190.15" cy="313.80" data-y="2.27" data-x="1590796800" r="1" fill="white"><title>2020-05-30: 2</title></circle>
	<circle cx="192.17" cy="318.17" data-y="2.10" data-x="1590883200" r="1" fill="white"><title>2020-05-31: 2</title></circle>
	<circle cx="194.18" cy="322.54" data-y="1.94" data-x="1590969600" r="1" fill="white"><title>2020-06-01: 2</title></circle>
	<circle cx="196.19" cy="320.36" data-y="2.02" data-x="1591056000" r="1" fill="white"><title>2020-06-02: 2</title></circle>
	<circle cx="198.21" cy="320.36" data-y="2.02" data-x="1591142400" r="1" fill="white"><title>2020-06-03: 2</title></circle>
	<circle cx="200.22" cy="324.73" data-y="1.86" data-x="1591228800" r="1" fill="white"><title>2020-06-04: 2</title></circle>
	<circle cx="202.23" cy="329.10" data-y="1.70" data-x="1591315200" r="1" fill="white"><title>2020-06-05: 2</title></circle>
	<circle cx="204.25" cy="353.14" data-y="0.81" data-x="1591401600" r="1" fill="white"><title>2020-06-06: 1</title></circle>
	<circle cx="206.26" cy="353.14" data-y="0.81" data-x="1591488000" r="1" fill="white"><title>2020-06-07: 1</title></circle>
	<circle cx="208.27" cy="359.70" data-y="0.57" data-x="1591574400" r="1" fill="white"><title>2020-06-08: 1</title></circle>
	<circle cx="210.29" cy="364.07" data-y="0.40" data-x="1591660800" r="1" fill="white"><title>2020-06-09: 0</title></circle>
	<circle cx="212.30" cy="366.26" data-y="0.32" data-x="1591747200" r="1" fill="white"><title>2020-06-10: 0</title></circle>
	<circle cx="214.31" cy="366.26" data-y="0.32" data-x="1591833600" r="1" fill="white"><title>2020-06-11: 0</title></circle>
	<circle cx="216.33" cy="368.44" data-y="0.24" data-x="1591920000" r="1" fill="white"><title>2020-06-12: 0</title></circle>
	<circle cx="218.34" cy="368.44" data-y="0.24" data-x="1592006400" r="1" fill="white"><title>2020-06-13: 0</title></circle>
	<circle cx="220.35" cy="372.81" data-y="0.08" data-x="1592092800" r="1" fill="white"><title>2020-06-14: 0</title></circle>
	<circle cx="222.37" cy="372.81" data-y="0.08" data-x="1592179200" r="1" fill="white"><title>2020-06-15: 0</title></circle>
	<circle cx="224.38" cy="372.81" data-y="0.08" data-x="1592265600" r="1" fill="white"><title>2020-06-16: 0</title></circle>
	<circle cx="226.39" cy="370.63" data-y="0.16" data-x="1592352000" r="1" fill="white"><title>2020-06-17: 0</title></circle>
	<circle cx="228.41" cy="372.81" data-y="0.08" data-x="1592438400" r="1" fill="white"><title>2020-06-18: 0</title></circle>
	<circle cx="230.42" cy="372.81" data-y="0.08" data-x="1592524800" r="1" fill="white"><title>2020-06-19: 0</title></circle>
	<circle cx="232.43" cy="370.63" data-y="0.16" data-x="1592611200" r="1" fill="white"><title>2020-06-20: 0</title></circle>
	<circle cx="234.45" cy="370.63" data-y="0.16" data-x="1592697600" r="1" fill="white"><title>2020-06-21: 0</title></circle>
	<circle cx="236.46" cy="370.63" data-y="0.16" data-x="1592784000" r="1" fill="white"><title>2020-06-22: 0</title></circle>
	<circle cx="238.47" cy="368.44" data-y="0.24" data-x="1592870400" r="1" fill="white"><title>2020-06-23: 0</title></circle>
	<circle cx="240.49" cy="370.63" data-y="0.16" data-x="1592956800" r="1" fill="white"><title>2020-06-24: 0</title></circle>
	<circle cx="242.50" cy="370.63" data-y="0.16" data-x="1593043200" r="1" fill="white"><title>2020-06-25: 0</title></circle>
	<circle cx="244.51" cy="370.63" data-y="0.16" data-x="1593129600" r="1" fill="white"><title>2020-06-26: 0</title></circle>
	<circle cx="246.53" cy="372.81" data-y="0.08" data-x="1593216000" r="1" fill="white"><title>2020-06-27: 0</title></circle>
	<circle cx="248.54" cy="370.63" data-y="0.16" data-x="1593302400" r="1" fill="white"><title>2020-06-28: 0</title></circle>
	<circle cx="250.55" cy="368.44" data-y="0.24" data-x="1593388800" r="1" fill="white"><title>2020-06-29: 0</title></circle>
	<circle cx="252.57" cy="370.63" data-y="0.16" data-x="1593475200" r="1" fill="white"><title>2020-06-30: 0</title></circle>
	<circle cx="254.58" cy="370.63" data-y="0.16" data-x="1593561600" r="1" fill="white"><title>2020-07-01: 0</title></circle>
	<circle cx="256.59" cy="370.63" data-y="0.16" data-x="1593648000" r="1" fill="white"><title>2020-07-02: 0</title></circle>
	<circle cx="258.61" cy="370.63" data-y="0.16" data-x="1593734400" r="1" fill="white"><title>2020-07-03: 0</title></circle>
	<circle cx="260.62" cy="368.44" data-y="0.24" data-x="1593820800" r="1" fill="white"><title>2020-07-04: 0</title></circle>
	<circle cx="262.63" cy="370.63" data-y="0.16" data-x="1593907200" r="1" fill="white"><title>2020-07-05: 0</title></circle>
	<circle cx="264.65" cy="372.81" data-y="0.08" data-x="1593993600" r="1" fill="white"><title>2020-07-06: 0</title></circle>
	<circle cx="266.66" cy="372.81" data-y="0.08" data-x="1594080000" r="1" fill="white"><title>2020-07-07: 0</title></circle>
	<circle cx="268.67" cy="372.81" data-y="0.08" data-x="1594166400" r="1" fill="white"><title>2020-07-08: 0</title></circle>
	<circle cx="270.69" cy="372.81" data-y="0.08" data-x="1594252800" r="1" fill="white"><title>2020-07-09: 0</title></circle>
	<circle cx="272.70" cy="372.81" data-y="0.08" data-x="1594339200" r="1" fill="white"><title>2020-07-10: 0</title></circle>
	<circle cx="274.71" cy="370.63" data-y="0.16" data-x="1594425600" r="1" fill="white"><title>2020-07-11: 0</title></circle>
	<circle cx="276.73" cy="370.63" data-y="0.16" data-x="1594512000" r="1" fill="white"><title>2020-07-12: 0</title></circle>
	<circle cx="278.74" cy="370.63" data-y="0.16" data-x="1594598400" r="1" fill="white"><title>2020-07-13: 0</title></circle>
	<circle cx="280.75" cy="370.63" data-y="0.16" data-x="1594684800" r="1" fill="white"><title>2020-07-14: 0</title></circle>
	<circle cx="282.77" cy="370.63" data-y="0.16" data-x="1594771200" r="1" fill="white"><title>2020-07-15: 0</title></circle>
	<circle cx="284.78" cy="370.63" data-y="0.16" data-x="1594857600" r="1" fill="white"><title>2020-07-16: 0</title></circle>
	<circle cx="286.79" cy="368.44" data-y="0.24" data-x="1594944000" r="1" fill="white"><title>2020-07-17: 0</title></circle>
	<circle cx="288.81" cy="372.81" data-y="0.08" data-x="1595030400" r="1" fill="white"><title>2020-07-18: 0</title></circle>
	<circle cx="290.82" cy="370.63" data-y="0.16" data-x="1595116800" r="1" fill="white"><title>2020-07-19: 0</title></circle>
	<circle cx="292.83" cy="370.63" data-y="0.16" data-x="1595203200" r="1" fill="white"><title>2020-07-20: 0</title></circle>
	<circle cx="294.85" cy="368.44" data-y="0.24" data-x="1595289600" r="1" fill="white"><title>2020-07-21: 0</title></circle>
	<circle cx="296.86" cy="368.44" data-y="0.24" data-x="1595376000" r="1" fill="white"><title>2020-07-22: 0</title></circle>
	<circle cx="298.87" cy="368.44" data-y="0.24" data-x="1595462400" r="1" fill="white"><title>2020-07-23: 0</title></circle>
	<circle cx="300.88" cy="366.26" data-y="0.32" data-x="1595548800" r="1" fill="white"><title>2020-07-24: 0</title></circle>
	<circle cx="302.90" cy="359.70" data-y="0.57" data-x="1595635200" r="1" fill="white"><title>2020-07-25: 1</title></circle>
	<circle cx="304.91" cy="357.51" data-y="0.65" data-x="1595721600" r="1" fill="white"><title>2020-07-26: 1</title></circle>
	<circle cx="306.92" cy="357.51" data-y="0.65" data-x="1595808000" r="1" fill="white"><title>2020-07-27: 1</title></circle>
	<circle cx="308.94" cy="359.70" data-y="0.57" data-x="1595894400" r="1" fill="white"><title>2020-07-28: 1</title></circle>
	<circle cx="310.95" cy="359.70" data-y="0.57" data-x="1595980800" r="1" fill="white"><title>2020-07-29: 1</title></circle>
	<circle cx="312.96" cy="359.70" data-y="0.57" data-x="1596067200" r="1" fill="white"><title>2020-07-30: 1</title></circle>
	<circle cx="314.98" cy="364.07" data-y="0.40" data-x="1596153600" r="1" fill="white"><title>2020-07-31: 0</title></circle>
	<circle cx="316.99" cy="368.44" data-y="0.24" data-x="1596240000" r="1" fill="white"><title>2020-08-01: 0</title></circle>
	<circle cx="319.00" cy="372.81" data-y="0.08" data-x="1596326400" r="1" fill="white"><title>2020-08-02: 0</title></circle>
	<circle cx="321.02" cy="370.63" data-y="0.16" data-x="1596412800" r="1" fill="white"><title>2020-08-03: 0</title></circle>
	<circle cx="323.03" cy="370.63" data-y="0.16" data-x="1596499200" r="1" fill="white"><title>2020-08-04: 0</title></circle>
	<circle cx="325.04" cy="370.63" data-y="0.16" data-x="1596585600" r="1" fill="white"><title>2020-08-05: 0</title></circle>
	<circle cx="327.06" cy="370.63" data-y="0.16" data-x="1596672000" r="1" fill="white"><title>2020-08-06: 0</title></circle>
	<circle cx="329.07" cy="370.63" data-y="0.16" data-x="1596758400" r="1" fill="white"><title>2020-08-07: 0</title></circle>
	<circle cx="331.08" cy="372.81" data-y="0.08" data-x="1596844800" r="1" fill="white"><title>2020-08-08: 0</title></circle>
	<circle cx="333.10" cy="372.81" data-y="0.08" data-x="1596931200" r="1" fill="white"><title>2020-08-09: 0</title></circle>
	<circle cx="335.11" cy="375.00" data-y="0.00" data-x="1597017600" r="1" fill="white"><title>2020-08-10: 0</title></circle>
	<circle cx="337.12" cy="372.81" data-y="0.08" data-x="1597104000" r="1" fill="white"><title>2020-08-11: 0</title></circle>
	<circle cx="339.14" cy="372.81" data-y="0.08" data-x="1597190400" r="1" fill="white"><title>2020-08-12: 0</title></circle>
	<circle cx="341.15" cy="370.63" data-y="0.16" data-x="1597276800" r="1" fill="white"><title>2020-08-13: 0</title></circle>
	<circle cx="343.16" cy="370.63" data-y="0.16" data-x="1597363200" r="1" fill="white"><title>2020-08-14: 0</title></circle>
	<circle cx="345.18" cy="366.26" data-y="0.32" data-x="1597449600" r="1" fill="white"><title>2020-08-15: 0</title></circle>
	<circle cx="347.19" cy="364.07" data-y="0.40" data-x="1597536000" r="1" fill="white"><title>2020-08-16: 0</title></circle>
	<circle cx="349.20" cy="361.89" data-y="0.49" data-x="1597622400" r="1" fill="white"><title>2020-08-17: 0</title></circle>
	<circle cx="351.22" cy="359.70" data-y="0.57" data-x="1597708800" r="1" fill="white"><title>2020-08-18: 1</title></circle>
	<circle cx="353.23" cy="359.70" data-y="0.57" data-x="1597795200" r="1" fill="white"><title>2020-08-19: 1</title></circle>
	<circle cx="355.24" cy="357.51" data-y="0.65" data-x="1597881600" r="1" fill="white"><title>2020-08-20: 1</title></circle>
	<circle cx="357.26" cy="357.51" data-y="0.65" data-x="1597968000" r="1" fill="white"><title>2020-08-21: 1</title></circle>
	<circle cx="359.27" cy="355.33" data-y="0.73" data-x="1598054400" r="1" fill="white"><title>2020-08-22: 1</title></circle>
	<circle cx="361.28" cy="357.51" data-y="0.65" data-x="1598140800" r="1" fill="white"><title>2020-08-23: 1</title></circle>
	<circle cx="363.30" cy="355.33" data-y="0.73" data-x="1598227200" r="1" fill="white"><title>2020-08-24: 1</title></circle>
	<circle cx="365.31" cy="357.51" data-y="0.65" data-x="1598313600" r="1" fill="white"><title>2020-08-25: 1</title></circle>
	<circle cx="367.32" cy="355.33" data-y="0.73" data-x="1598400000" r="1" fill="white"><title>2020-08-26: 1</title></circle>
	<circle cx="369.34" cy="355.33" data-y="0.73" data-x="1598486400" r="1" fill="white"><title>2020-08-27: 1</title></circle>
	<circle cx="371.35" cy="355.33" data-y="0.73" data-x="1598572800" r="1" fill="white"><title>2020-08-28: 1</title></circle>
	<circle cx="373.36" cy="350.96" data-y="0.89" data-x="1598659200" r="1" fill="white"><title>2020-08-29: 1</title></circle>
	<circle cx="375.38" cy="350.96" data-y="0.89" data-x="1598745600" r="1" fill="white"><title>2020-08-30: 1</title></circle>
	<circle cx="377.39" cy="344.40" data-y="1.13" data-x="1598832000" r="1" fill="white"><title>2020-08-31: 1</title></circle>
	<circle cx="379.40" cy="346.59" data-y="1.05" data-x="1598918400" r="1" fill="white"><title>2020-09-01: 1</title></circle>
	<circle cx="381.42" cy="346.59" data-y="1.05" data-x="1599004800" r="1" fill="white"><title>2020-09-02: 1</title></circle>
	<circle cx="383.43" cy="348.77" data-y="0.97" data-x="1599091200" r="1" fill="white"><title>2020-09-03: 1</title></circle>
	<circle cx="385.44" cy="346.59" data-y="1.05" data-x="1599177600" r="1" fill="white"><title>2020-09-04: 1</title></circle>
	<circle cx="387.46" cy="350.96" data-y="0.89" data-x="1599264000" r="1" fill="white"><title>2020-09-05: 1</title></circle>
	<circle cx="389.47" cy="342.22" data-y="1.21" data-x="1599350400" r="1" fill="white"><title>2020-09-06: 1</title></circle>
	<circle cx="391.48" cy="353.14" data-y="0.81" data-x="1599436800" r="1" fill="white"><title>2020-09-07: 1</title></circle>
	<circle cx="393.50" cy="353.14" data-y="0.81" data-x="1599523200" r="1" fill="white"><title>2020-09-08: 1</title></circle>
	<circle cx="395.51" cy="355.33" data-y="0.73" data-x="1599609600" r="1" fill="white"><title>2020-09-09: 1</title></circle>
	<circle cx="397.52" cy="355.33" data-y="0.73" data-x="1599696000" r="1" fill="white"><title>2020-09-10: 1</title></circle>
	<circle cx="399.54" cy="357.51" data-y="0.65" data-x="1599782400" r="1" fill="white"><title>2020-09-11: 1</title></circle>
	<circle cx="401.55" cy="361.89" data-y="0.49" data-x="1599868800" r="1" fill="white"><title>2020-09-12: 0</title></circle>
	<circle cx="403.56" cy="364.07" data-y="0.40" data-x="1599955200" r="1" fill="white"><title>2020-09-13: 0</title></circle>
	<circle cx="405.58" cy="355.33" data-y="0.73" data-x="1600041600" r="1" fill="white"><title>2020-09-14: 1</title></circle>
	<circle cx="407.59" cy="340.03" data-y="1.29" data-x="1600128000" r="1" fill="white"><title>2020-09-15: 1</title></circle>
	<circle cx="409.60" cy="337.84" data-y="1.38" data-x="1600214400" r="1" fill="white"><title>2020-09-16: 1</title></circle>
	<circle cx="411.62" cy="333.47" data-y="1.54" data-x="1600300800" r="1" fill="white"><title>2020-09-17: 2</title></circle>
	<circle cx="413.63" cy="331.29" data-y="1.62" data-x="1600387200" r="1" fill="white"><title>2020-09-18: 2</title></circle>
	<circle cx="415.64" cy="324.73" data-y="1.86" data-x="1600473600" r="1" fill="white"><title>2020-09-19: 2</title></circle>
	<circle cx="417.65" cy="329.10" data-y="1.70" data-x="1600560000" r="1" fill="white"><title>2020-09-20: 2</title></circle>
	<circle cx="419.67" cy="329.10" data-y="1.70" data-x="1600646400" r="1" fill="white"><title>2020-09-21: 2</title></circle>
	<circle cx="421.68" cy="329.10" data-y="1.70" data-x="1600732800" r="1" fill="white"><title>2020-09-22: 2</title></circle>
	<circle cx="423.69" cy="318.17" data-y="2.10" data-x="1600819200" r="1" fill="white"><title>2020-09-23: 2</title></circle>
	<circle cx="425.71" cy="324.73" data-y="1.86" data-x="1600905600" r="1" fill="white"><title>2020-09-24: 2</title></circle>
	<circle cx="427.72" cy="324.73" data-y="1.86" data-x="1600992000" r="1" fill="white"><title>2020-09-25: 2</title></circle>
	<circle cx="429.73" cy="318.17" data-y="2.10" data-x="1601078400" r="1" fill="white"><title>2020-09-26: 2</title></circle>
	<circle cx="431.75" cy="300.69" data-y="2.75" data-x="1601164800" r="1" fill="white"><title>2020-09-27: 3</title></circle>
	<circle cx="433.76" cy="300.69" data-y="2.75" data-x="1601251200" r="1" fill="white"><title>2020-09-28: 3</title></circle>
	<circle cx="435.77" cy="294.13" data-y="2.99" data-x="1601337600" r="1" fill="white"><title>2020-09-29: 3</title></circle>
	<circle cx="437.79" cy="281.02" data-y="3.48" data-x="1601424000" r="1" fill="white"><title>2020-09-30: 3</title></circle>
	<circle cx="439.80" cy="256.98" data-y="4.37" data-x="1601510400" r="1" fill="white"><title>2020-10-01: 4</title></circle>
	<circle cx="441.81" cy="250.42" data-y="4.61" data-x="1601596800" r="1" fill="white"><title>2020-10-02: 5</title></circle>
	<circle cx="443.83" cy="222.01" data-y="5.66" data-x="1601683200" r="1" fill="white"><title>2020-10-03: 6</title></circle>
	<circle cx="445.84" cy="215.45" data-y="5.91" data-x="1601769600" r="1" fill="white"><title>2020-10-04: 6</title></circle>
	<circle cx="447.85" cy="178.29" data-y="7.28" data-x="1601856000" r="1" fill="white"><title>2020-10-05: 7</title></circle>
	<circle cx="449.87" cy="171.74" data-y="7.52" data-x="1601942400" r="1" fill="white"><title>2020-10-06: 8</title></circle>
	<circle cx="451.88" cy="169.55" data-y="7.61" data-x="1602028800" r="1" fill="white"><title>2020-10-07: 8</title></circle>
	<circle cx="453.89" cy="167.37" data-y="7.69" data-x="1602115200" r="1" fill="white"><title>2020-10-08: 8</title></circle>
	<circle cx="455.91" cy="162.99" data-y="7.85" data-x="1602201600" r="1" fill="white"><title>2020-10-09: 8</title></circle>
	<circle cx="457.92" cy="154.25" data-y="8.17" data-x="1602288000" r="1" fill="white"><title>2020-10-10: 8</title></circle>
	<circle cx="459.93" cy="173.92" data-y="7.44" data-x="1602374400" r="1" fill="white"><title>2020-10-11: 7</title></circle>
</g>
<g data-series="recent-cases" class="data-series">
	<path d="M 459.93,173.92L 461.95,215.45L 463.96,241.68L 465.97,252.60L 467.99,264.84L 470.00,260.25" id="Recent cases" class="line" stroke-width="1" stroke-linecap="round" stroke-dasharray="4,6"><title>Recent cases</title></path>
</g>
</svg>
