<svg width="480" height="400" viewBox="0 0 480 400" xmlns="http://www.w3.org/2000/svg" style="overflow:display" preserveAspectRatio="xMinYMin meet" overflow="visible">
<defs>
	<style>
	.data-series path.line { fill-opacity: 0; stroke: black; }
	.data-series path.line.dotted { stroke-dasharray: 12 20 }
	.data-series circle { display: none; }
	.data-series:hover path.line, .data-series.on path.line { stroke-width: 1; }
	.data-series:hover circle, .data-series.on circle { display: inline; }
	.data-series circle:hover, .data-series circle.on { r: 1px!important; }
	.graph-grid { font-family: "Helvetica Neue",Helvetica,Arial,"Lucida Grande",sans-serif; }
	.graph-grid line { stroke: black; stroke-width: 1; stroke-linecap: round; }
	.graph-grid.graph-grid-x text { text-anchor: middle; dominant-baseline: hanging; transform: translateY(10px); }
	.graph-grid.graph-grid-y text { text-anchor: end; dominant-baseline: middle; transform: translateX(-10px); }
	</style>
</defs>
<g class="graph-grid graph-grid-y">
	<line x1="15.00" y1="375.00" x2="470.00" y2="375.00" data-left="15"></line>
	<text x="25" y="375" text-anchor="end">0</text>
	<text x="25" y="206.913729338843" text-anchor="end">5</text>
	<text x="25" y="38.8274586776859" text-anchor="end">10</text>
	<text style="text-anchor:middle;dominant-baseline:hanging;font-weight:bold;transform: translateY(192.5px) rotate(-90deg);"></text>
</g>
<g class="graph-grid graph-grid-x">
	<line class="tick" x1="73.38" y1="375.00" x2="73.38" y2="380.00"></line>
	<text x="73.3849557522124" y="375" text-anchor="middle">A</text>
	<line class="tick" x1="133.78" y1="375.00" x2="133.78" y2="380.00"></line>
	<text x="133.783185840708" y="375" text-anchor="middle">M</text>
	<line class="tick" x1="196.19" y1="375.00" x2="196.19" y2="380.00"></line>
	<text x="196.194690265487" y="375" text-anchor="middle">J</text>
	<line class="tick" x1="256.59" y1="375.00" x2="256.59" y2="380.00"></line>
	<text x="256.592920353982" y="375" text-anchor="middle">J</text>
	<line class="tick" x1="319.00" y1="375.00" x2="319.00" y2="380.00"></line>
	<text x="319.004424778761" y="375" text-anchor="middle">A</text>
	<line class="tick" x1="381.42" y1="375.00" x2="381.42" y2="380.00"></line>
	<text x="381.41592920354" y="375" text-anchor="middle">S</text>
	<line class="tick" x1="441.81" y1="375.00" x2="441.81" y2="380.00"></line>
	<text x="441.814159292035" y="375" text-anchor="middle">O</text>
	<text style="text-anchor:middle;dominant-baseline:hanging;font-weight:bold;transform: translateY(192.5px) rotate(-90deg);"></text>
</g>
<g data-series="widespread" class="data-series">
	<path d="M 15.00,139.68L 470.00,139.68" id="E07000012-level-0" class="line" stroke-width="1" stroke-linecap="round" stroke-dasharray="3,3" fill-opacity="0.3" opacity="0.3"><title>Widespread</title></path>
</g>
<g data-series="substantial" class="data-series">
	<path d="M 15.00,240.53L 470.00,240.53" id="E07000012-level-1" class="line" stroke-width="1" stroke-linecap="round" stroke-dasharray="3,3" fill-opacity="0.3" opacity="0.3"><title>Substantial</title></path>
</g>
<g data-series="moderate" class="data-series">
	<path d="M 15.00,341.38L 470.00,341.38" id="E07000012-level-2" class="line" stroke-width="1" stroke-linecap="round" stroke-dasharray="3,3" fill-opacity="0.3" opacity="0.3"><title>Moderate</title></path>
</g>
<g data-series="new-cases" class="data-series">
	<path d="M 15.00,369.72L 17.01,370.78L 19.03,371.48L 21.04,371.98L 23.05,368.97L 25.07,368.97L 27.08,365.95L 29.09,356.90L 31.11,356.90L 33.12,353.88L 35.13,353.88L 37.15,356.90L 39.16,350.87L 41.17,338.80L 43.19,338.80L 45.20,332.77L 47.21,329.75L 49.23,308.64L 51.24,296.57L 53.25,284.50L 55.27,290.54L 57.28,290.54L 59.29,287.52L 61.31,281.49L 63.32,293.55L 65.33,284.50L 67.35,293.55L 69.36,284.50L 71.37,293.55L 73.38,287.52L 75.40,281.49L 77.41,278.47L 79.42,290.54L 81.44,287.52L 83.45,284.50L 85.46,278.47L 87.48,275.45L 89.49,287.52L 91.50,296.57L 93.52,287.52L 95.53,290.54L 97.54,299.59L 99.56,278.47L 101.57,284.50L 103.58,278.47L 105.60,263.39L 107.61,257.36L 109.62,233.22L 111.64,203.06L 113.65,212.11L 115.66,206.07L 117.68,206.07L 119.69,203.06L 121.70,212.11L 123.72,230.21L 125.73,254.34L 127.74,263.39L 129.76,263.39L 131.77,263.39L 133.78,275.45L 135.80,266.40L 137.81,257.36L 139.82,251.32L 141.84,260.37L 143.85,254.34L 145.86,251.32L 147.88,251.32L 149.89,269.42L 151.90,290.54L 153.92,311.65L 155.93,308.64L 157.94,314.67L 159.96,329.75L 161.97,329.75L 163.98,335.79L 166.00,332.77L 168.01,326.74L 170.02,326.74L 172.04,341.82L 174.05,338.80L 176.06,347.85L 178.08,347.85L 180.09,341.82L 182.10,344.83L 184.12,323.72L 186.13,314.67L 188.14,317.69L 190.15,311.65L 192.17,308.64L 194.18,317.69L 196.19,317.69L 198.21,332.77L 200.22,338.80L 202.23,338.80L 204.25,344.83L 206.26,350.87L 208.27,353.88L 210.29,359.92L 212.30,362.93L 214.31,368.97L 216.33,368.97L 218.34,368.97L 220.35,368.97L 222.37,368.97L 224.38,368.97L 226.39,375.00L 228.41,375.00L 230.42,375.00L 232.43,375.00L 234.45,375.00L 236.46,375.00L 238.47,375.00L 240.49,375.00L 242.50,375.00L 244.51,375.00L 246.53,371.98L 248.54,371.98L 250.55,368.97L 252.57,365.95L 254.58,365.95L 256.59,362.93L 258.61,362.93L 260.62,359.92L 262.63,356.90L 264.65,350.87L 266.66,347.85L 268.67,344.83L 270.69,347.85L 272.70,347.85L 274.71,353.88L 276.73,356.90L 278.74,359.92L 280.75,350.87L 282.77,341.82L 284.78,338.80L 286.79,338.80L 288.81,335.79L 290.82,329.75L 292.83,335.79L 294.85,347.85L 296.86,356.90L 298.87,359.92L 300.88,359.92L 302.90,359.92L 304.91,365.95L 306.92,362.93L 308.94,359.92L 310.95,362.93L 312.96,362.93L 314.98,359.92L 316.99,362.93L 319.00,359.92L 321.02,362.93L 323.03,368.97L 325.04,365.95L 327.06,362.93L 329.07,365.95L 331.08,365.95L 333.10,365.95L 335.11,362.93L 337.12,359.92L 339.14,359.92L 341.15,362.93L 343.16,362.93L 345.18,359.92L 347.19,362.93L 349.20,365.95L 351.22,365.95L 353.23,359.92L 355.24,359.92L 357.26,359.92L 359.27,356.90L 361.28,350.87L 363.30,344.83L 365.31,344.83L 367.32,344.83L 369.34,344.83L 371.35,338.80L 373.36,338.80L 375.38,335.79L 377.39,320.70L 379.40,323.72L 381.42,329.75L 383.43,326.74L 385.44,320.70L 387.46,317.69L 389.47,311.65L 391.48,320.70L 393.50,314.67L 395.51,314.67L 397.52,314.67L 399.54,323.72L 401.55,320.70L 403.56,329.75L 405.58,329.75L 407.59,335.79L 409.60,326.74L 411.62,323.72L 413.63,320.70L 415.64,323.72L 417.65,326.74L 419.67,320.70L 421.68,308.64L 423.69,308.64L 425.71,302.60L 427.72,275.45L 429.73,266.40L 431.75,236.24L 433.76,203.06L 435.77,178.93L 437.79,148.76L 439.80,121.61L 441.81,124.63L 443.83,85.41L 445.84,49.21L 447.85,43.18L 449.87,16.03L 451.88,10.00L 453.89,13.02L 455.91,19.05L 457.92,25.08L 459.93,58.26" id="New cases" class="line" stroke-width="1" stroke-linecap="round"><title>New cases</title></path>
</g>
<g data-series="recent-cases" class="data-series">
	<path d="M 459.93,58.26L 461.95,100.50L 463.96,163.84L 465.97,184.96L 467.99,197.63L 470.00,195.52" id="Recent cases" class="line" stroke-width="1" stroke-linecap="round" stroke-dasharray="5,5"><title>Recent cases</title></path>
</g>
</svg>
