<svg width="480" height="400" viewBox="0 0 480 400" xmlns="http://www.w3.org/2000/svg" style="overflow:display" preserveAspectRatio="xMinYMin meet" overflow="visible">
<defs>
	<style>
	.data-series path.line { fill-opacity: 0; stroke: black; }
	.data-series path.line.dotted { stroke-dasharray: 12 20 }
	.data-series:hover path.line, .data-series.on path.line { stroke-width: 1; }
	.data-series:hover circle, .data-series.on circle { display: inline; }
	.graph-grid { font-family: "Helvetica Neue",Helvetica,Arial,"Lucida Grande",sans-serif; }
	.graph-grid line { stroke: black; stroke-width: 1; stroke-linecap: round; }
	.graph-grid.graph-grid-x text { text-anchor: middle; dominant-baseline: hanging; transform: translateY(10px); }
	.graph-grid.graph-grid-y text { text-anchor: end; dominant-baseline: middle; transform: translateX(-10px); }
	</style>
</defs>
<g class="graph-grid graph-grid-y">
	<line x1="25.00" y1="375.00" x2="470.00" y2="375.00" data-left="25"></line>
	<text x="35" y="375" text-anchor="end">0</text>
	<text x="35" y="220.52964516129" text-anchor="end">10</text>
	<text x="35" y="66.0592903225807" text-anchor="end">20</text>
	<text style="text-anchor:middle;dominant-baseline:hanging;font-weight:bold;transform: translateY(192.5px) rotate(-90deg);"></text>
</g>
<g class="graph-grid graph-grid-x">
	<line class="tick" x1="67.69" y1="375.00" x2="67.69" y2="380.00"></line>
	<text x="67.6937269372694" y="375" text-anchor="middle">A</text>
	<line class="tick" x1="116.96" y1="375.00" x2="116.96" y2="380.00"></line>
	<text x="116.955719557196" y="375" text-anchor="middle">M</text>
	<line class="tick" x1="167.86" y1="375.00" x2="167.86" y2="380.00"></line>
	<text x="167.859778597786" y="375" text-anchor="middle">J</text>
	<line class="tick" x1="217.12" y1="375.00" x2="217.12" y2="380.00"></line>
	<text x="217.121771217712" y="375" text-anchor="middle">J</text>
	<line class="tick" x1="268.03" y1="375.00" x2="268.03" y2="380.00"></line>
	<text x="268.025830258303" y="375" text-anchor="middle">A</text>
	<line class="tick" x1="318.93" y1="375.00" x2="318.93" y2="380.00"></line>
	<text x="318.929889298893" y="375" text-anchor="middle">S</text>
	<line class="tick" x1="368.19" y1="375.00" x2="368.19" y2="380.00"></line>
	<text x="368.191881918819" y="375" text-anchor="middle">O</text>
	<line class="tick" x1="419.10" y1="375.00" x2="419.10" y2="380.00"></line>
	<text x="419.09594095941" y="375" text-anchor="middle">N</text>
	<line class="tick" x1="468.36" y1="375.00" x2="468.36" y2="380.00"></line>
	<text x="468.357933579336" y="375" text-anchor="middle">D</text>
	<text style="text-anchor:middle;dominant-baseline:hanging;font-weight:bold;transform: translateY(192.5px) rotate(-90deg);"></text>
</g>
<g data-series="widespread" class="data-series">
	<path d="M 25.00,266.87L 470.00,266.87" id="E07000211-level-0" class="line" stroke-width="1" stroke-linecap="round" stroke-dasharray="3,3" fill-opacity="0.3" opacity="0.3"><title>Widespread</title></path>
</g>
<g data-series="substantial" class="data-series">
	<path d="M 25.00,313.21L 470.00,313.21" id="E07000211-level-1" class="line" stroke-width="1" stroke-linecap="round" stroke-dasharray="3,3" fill-opacity="0.3" opacity="0.3"><title>Substantial</title></path>
</g>
<g data-series="moderate" class="data-series">
	<path d="M 25.00,359.55L 470.00,359.55" id="E07000211-level-2" class="line" stroke-width="1" stroke-linecap="round" stroke-dasharray="3,3" fill-opacity="0.3" opacity="0.3"><title>Moderate</title></path>
</g>
<g data-series="new-cases" class="data-series">
	<path d="M 25.00,372.42L 26.64,370.88L 28.28,369.85L 29.93,367.64L 31.57,367.64L 33.21,366.17L 34.85,363.23L 36.49,361.75L 38.14,361.75L 39.78,355.87L 41.42,357.34L 43.06,352.92L 44.70,347.04L 46.35,339.68L 47.99,320.54L 49.63,308.77L 51.27,295.52L 52.92,283.75L 54.56,277.86L 56.20,273.45L 57.84,273.45L 59.48,273.45L 61.13,258.73L 62.77,260.20L 64.41,251.37L 66.05,238.12L 67.69,238.12L 69.34,226.35L 70.98,224.88L 72.62,226.35L 74.26,214.58L 75.90,208.69L 77.55,208.69L 79.19,202.80L 80.83,214.58L 82.47,207.22L 84.11,213.10L 85.76,204.27L 87.40,205.75L 89.04,207.22L 90.68,196.92L 92.32,188.08L 93.97,191.03L 95.61,195.44L 97.25,214.58L 98.89,221.94L 100.54,224.88L 102.18,235.18L 103.82,239.60L 105.46,257.26L 107.10,242.54L 108.75,239.60L 110.39,246.96L 112.03,251.37L 113.67,257.26L 115.31,258.73L 116.96,261.67L 118.60,270.50L 120.24,282.28L 121.88,283.75L 123.52,291.11L 125.17,291.11L 126.81,298.47L 128.45,298.47L 130.09,316.13L 131.73,320.54L 133.38,327.90L 135.02,320.54L 136.66,327.90L 138.30,326.43L 139.94,323.49L 141.59,316.13L 143.23,310.24L 144.87,313.19L 146.51,327.90L 148.15,329.38L 149.80,335.26L 151.44,344.09L 153.08,354.40L 154.72,360.28L 156.37,352.92L 158.01,354.40L 159.65,351.45L 161.29,351.45L 162.93,351.45L 164.58,352.92L 166.22,360.28L 167.86,366.17L 169.50,366.17L 171.14,367.64L 172.79,369.11L 174.43,366.17L 176.07,364.70L 177.71,357.34L 179.35,357.34L 181.00,357.34L 182.64,357.34L 184.28,357.34L 185.92,357.34L 187.56,355.87L 189.21,361.75L 190.85,360.28L 192.49,358.81L 194.13,363.23L 195.77,363.23L 197.42,366.17L 199.06,367.64L 200.70,369.11L 202.34,369.11L 203.99,370.58L 205.63,370.58L 207.27,370.58L 208.91,370.58L 210.55,370.58L 212.20,369.11L 213.84,372.06L 215.48,372.06L 217.12,372.06L 218.76,372.06L 220.41,370.58L 222.05,372.06L 223.69,372.06L 225.33,372.06L 226.97,372.06L 228.62,370.58L 230.26,369.11L 231.90,367.64L 233.54,367.64L 235.18,369.11L 236.83,369.11L 238.47,369.11L 240.11,370.58L 241.75,372.06L 243.39,373.53L 245.04,373.53L 246.68,372.06L 248.32,370.58L 249.96,370.58L 251.61,370.58L 253.25,370.58L 254.89,369.11L 256.53,369.11L 258.17,367.64L 259.82,367.64L 261.46,364.70L 263.10,363.23L 264.74,361.75L 266.38,361.75L 268.03,355.87L 269.67,354.40L 271.31,354.40L 272.95,355.87L 274.59,355.87L 276.24,357.34L 277.88,357.34L 279.52,363.23L 281.16,367.64L 282.80,367.64L 284.45,361.75L 286.09,361.75L 287.73,361.75L 289.37,363.23L 291.01,361.75L 292.66,355.87L 294.30,352.92L 295.94,360.28L 297.58,360.28L 299.23,360.28L 300.87,360.28L 302.51,360.28L 304.15,363.23L 305.79,366.17L 307.44,360.28L 309.08,360.28L 310.72,351.45L 312.36,348.51L 314.00,344.09L 315.65,344.09L 317.29,338.21L 318.93,338.21L 320.57,336.73L 322.21,341.15L 323.86,342.62L 325.50,342.62L 327.14,333.79L 328.78,333.79L 330.42,330.85L 332.07,330.85L 333.71,335.26L 335.35,333.79L 336.99,333.79L 338.63,342.62L 340.28,348.51L 341.92,352.92L 343.56,352.92L 345.20,348.51L 346.85,349.98L 348.49,354.40L 350.13,354.40L 351.77,349.98L 353.41,354.40L 355.06,352.92L 356.70,349.98L 358.34,345.56L 359.98,339.68L 361.62,335.26L 363.27,330.85L 364.91,314.66L 366.55,317.60L 368.19,311.71L 369.83,301.41L 371.48,298.47L 373.12,279.33L 374.76,258.73L 376.40,248.43L 378.04,242.54L 379.69,246.96L 381.33,242.54L 382.97,230.77L 384.61,233.71L 386.25,235.18L 387.90,239.60L 389.54,224.88L 391.18,208.69L 392.82,202.80L 394.46,204.27L 396.11,195.44L 397.75,201.33L 399.39,199.86L 401.03,198.39L 402.68,205.75L 404.32,193.97L 405.96,183.67L 407.60,185.14L 409.24,183.67L 410.89,168.95L 412.53,171.90L 414.17,161.59L 415.81,155.71L 417.45,155.71L 419.10,146.88L 420.74,120.38L 422.38,120.38L 424.02,104.19L 425.66,88.00L 427.31,51.21L 428.95,10.00L 430.59,10.00L 432.23,26.19L 433.87,39.44L 435.52,35.02L 437.16,57.10L 438.80,85.06L 440.44,124.80L 442.08,138.04L 443.73,140.99L 445.37,126.27L 447.01,139.52L 448.65,149.82L 450.30,177.78L 451.94,171.90L 453.58,170.42L 455.22,173.37L 456.86,182.20L 458.51,192.50L 460.15,186.61L 461.79,155.71" id="New cases" class="line" stroke-width="1" stroke-linecap="round"><title>New cases</title></path>
	<circle cx="25.00" cy="372.42" data-y="0.17" data-x="1583452800" r="1" fill="white"><title>2020-03-06: 0</title></circle>
	<circle cx="26.64" cy="370.88" data-y="0.27" data-x="1583539200" r="1" fill="white"><title>2020-03-07: 0</title></circle>
	<circle cx="28.28" cy="369.85" data-y="0.33" data-x="1583625600" r="1" fill="white"><title>2020-03-08: 0</title></circle>
	<circle cx="29.93" cy="367.64" data-y="0.48" data-x="1583712000" r="1" fill="white"><title>2020-03-09: 0</title></circle>
	<circle cx="31.57" cy="367.64" data-y="0.48" data-x="1583798400" r="1" fill="white"><title>2020-03-10: 0</title></circle>
	<circle cx="33.21" cy="366.17" data-y="0.57" data-x="1583884800" r="1" fill="white"><title>2020-03-11: 1</title></circle>
	<circle cx="34.85" cy="363.23" data-y="0.76" data-x="1583971200" r="1" fill="white"><title>2020-03-12: 1</title></circle>
	<circle cx="36.49" cy="361.75" data-y="0.86" data-x="1584057600" r="1" fill="white"><title>2020-03-13: 1</title></circle>
	<circle cx="38.14" cy="361.75" data-y="0.86" data-x="1584144000" r="1" fill="white"><title>2020-03-14: 1</title></circle>
	<circle cx="39.78" cy="355.87" data-y="1.24" data-x="1584230400" r="1" fill="white"><title>2020-03-15: 1</title></circle>
	<circle cx="41.42" cy="357.34" data-y="1.14" data-x="1584316800" r="1" fill="white"><title>2020-03-16: 1</title></circle>
	<circle cx="43.06" cy="352.92" data-y="1.43" data-x="1584403200" r="1" fill="white"><title>2020-03-17: 1</title></circle>
	<circle cx="44.70" cy="347.04" data-y="1.81" data-x="1584489600" r="1" fill="white"><title>2020-03-18: 2</title></circle>
	<circle cx="46.35" cy="339.68" data-y="2.29" data-x="1584576000" r="1" fill="white"><title>2020-03-19: 2</title></circle>
	<circle cx="47.99" cy="320.54" data-y="3.53" data-x="1584662400" r="1" fill="white"><title>2020-03-20: 4</title></circle>
	<circle cx="49.63" cy="308.77" data-y="4.29" data-x="1584748800" r="1" fill="white"><title>2020-03-21: 4</title></circle>
	<circle cx="51.27" cy="295.52" data-y="5.15" data-x="1584835200" r="1" fill="white"><title>2020-03-22: 5</title></circle>
	<circle cx="52.92" cy="283.75" data-y="5.91" data-x="1584921600" r="1" fill="white"><title>2020-03-23: 6</title></circle>
	<circle cx="54.56" cy="277.86" data-y="6.29" data-x="1585008000" r="1" fill="white"><title>2020-03-24: 6</title></circle>
	<circle cx="56.20" cy="273.45" data-y="6.57" data-x="1585094400" r="1" fill="white"><title>2020-03-25: 7</title></circle>
	<circle cx="57.84" cy="273.45" data-y="6.57" data-x="1585180800" r="1" fill="white"><title>2020-03-26: 7</title></circle>
	<circle cx="59.48" cy="273.45" data-y="6.57" data-x="1585267200" r="1" fill="white"><title>2020-03-27: 7</title></circle>
	<circle cx="61.13" cy="258.73" data-y="7.53" data-x="1585353600" r="1" fill="white"><title>2020-03-28: 8</title></circle>
	<circle cx="62.77" cy="260.20" data-y="7.43" data-x="1585440000" r="1" fill="white"><title>2020-03-29: 7</title></circle>
	<circle cx="64.41" cy="251.37" data-y="8.00" data-x="1585526400" r="1" fill="white"><title>2020-03-30: 8</title></circle>
	<circle cx="66.05" cy="238.12" data-y="8.86" data-x="1585612800" r="1" fill="white"><title>2020-03-31: 9</title></circle>
	<circle cx="67.69" cy="238.12" data-y="8.86" data-x="1585699200" r="1" fill="white"><title>2020-04-01: 9</title></circle>
	<circle cx="69.34" cy="226.35" data-y="9.62" data-x="1585785600" r="1" fill="white"><title>2020-04-02: 10</title></circle>
	<circle cx="70.98" cy="224.88" data-y="9.72" data-x="1585872000" r="1" fill="white"><title>2020-04-03: 10</title></circle>
	<circle cx="72.62" cy="226.35" data-y="9.62" data-x="1585958400" r="1" fill="white"><title>2020-04-04: 10</title></circle>
	<circle cx="74.26" cy="214.58" data-y="10.39" data-x="1586044800" r="1" fill="white"><title>2020-04-05: 10</title></circle>
	<circle cx="75.90" cy="208.69" data-y="10.77" data-x="1586131200" r="1" fill="white"><title>2020-04-06: 11</title></circle>
	<circle cx="77.55" cy="208.69" data-y="10.77" data-x="1586217600" r="1" fill="white"><title>2020-04-07: 11</title></circle>
	<circle cx="79.19" cy="202.80" data-y="11.15" data-x="1586304000" r="1" fill="white"><title>2020-04-08: 11</title></circle>
	<circle cx="80.83" cy="214.58" data-y="10.39" data-x="1586390400" r="1" fill="white"><title>2020-04-09: 10</title></circle>
	<circle cx="82.47" cy="207.22" data-y="10.86" data-x="1586476800" r="1" fill="white"><title>2020-04-10: 11</title></circle>
	<circle cx="84.11" cy="213.10" data-y="10.48" data-x="1586563200" r="1" fill="white"><title>2020-04-11: 10</title></circle>
	<circle cx="85.76" cy="204.27" data-y="11.05" data-x="1586649600" r="1" fill="white"><title>2020-04-12: 11</title></circle>
	<circle cx="87.40" cy="205.75" data-y="10.96" data-x="1586736000" r="1" fill="white"><title>2020-04-13: 11</title></circle>
	<circle cx="89.04" cy="207.22" data-y="10.86" data-x="1586822400" r="1" fill="white"><title>2020-04-14: 11</title></circle>
	<circle cx="90.68" cy="196.92" data-y="11.53" data-x="1586908800" r="1" fill="white"><title>2020-04-15: 12</title></circle>
	<circle cx="92.32" cy="188.08" data-y="12.10" data-x="1586995200" r="1" fill="white"><title>2020-04-16: 12</title></circle>
	<circle cx="93.97" cy="191.03" data-y="11.91" data-x="1587081600" r="1" fill="white"><title>2020-04-17: 12</title></circle>
	<circle cx="95.61" cy="195.44" data-y="11.62" data-x="1587168000" r="1" fill="white"><title>2020-04-18: 12</title></circle>
	<circle cx="97.25" cy="214.58" data-y="10.39" data-x="1587254400" r="1" fill="white"><title>2020-04-19: 10</title></circle>
	<circle cx="98.89" cy="221.94" data-y="9.91" data-x="1587340800" r="1" fill="white"><title>2020-04-20: 10</title></circle>
	<circle cx="100.54" cy="224.88" data-y="9.72" data-x="1587427200" r="1" fill="white"><title>2020-04-21: 10</title></circle>
	<circle cx="102.18" cy="235.18" data-y="9.05" data-x="1587513600" r="1" fill="white"><title>2020-04-22: 9</title></circle>
	<circle cx="103.82" cy="239.60" data-y="8.77" data-x="1587600000" r="1" fill="white"><title>2020-04-23: 9</title></circle>
	<circle cx="105.46" cy="257.26" data-y="7.62" data-x="1587686400" r="1" fill="white"><title>2020-04-24: 8</title></circle>
	<circle cx="107.10" cy="242.54" data-y="8.58" data-x="1587772800" r="1" fill="white"><title>2020-04-25: 9</title></circle>
	<circle cx="108.75" cy="239.60" data-y="8.77" data-x="1587859200" r="1" fill="white"><title>2020-04-26: 9</title></circle>
	<circle cx="110.39" cy="246.96" data-y="8.29" data-x="1587945600" r="1" fill="white"><title>2020-04-27: 8</title></circle>
	<circle cx="112.03" cy="251.37" data-y="8.00" data-x="1588032000" r="1" fill="white"><title>2020-04-28: 8</title></circle>
	<circle cx="113.67" cy="257.26" data-y="7.62" data-x="1588118400" r="1" fill="white"><title>2020-04-29: 8</title></circle>
	<circle cx="115.31" cy="258.73" data-y="7.53" data-x="1588204800" r="1" fill="white"><title>2020-04-30: 8</title></circle>
	<circle cx="116.96" cy="261.67" data-y="7.34" data-x="1588291200" r="1" fill="white"><title>2020-05-01: 7</title></circle>
	<circle cx="118.60" cy="270.50" data-y="6.76" data-x="1588377600" r="1" fill="white"><title>2020-05-02: 7</title></circle>
	<circle cx="120.24" cy="282.28" data-y="6.00" data-x="1588464000" r="1" fill="white"><title>2020-05-03: 6</title></circle>
	<circle cx="121.88" cy="283.75" data-y="5.91" data-x="1588550400" r="1" fill="white"><title>2020-05-04: 6</title></circle>
	<circle cx="123.52" cy="291.11" data-y="5.43" data-x="1588636800" r="1" fill="white"><title>2020-05-05: 5</title></circle>
	<circle cx="125.17" cy="291.11" data-y="5.43" data-x="1588723200" r="1" fill="white"><title>2020-05-06: 5</title></circle>
	<circle cx="126.81" cy="298.47" data-y="4.95" data-x="1588809600" r="1" fill="white"><title>2020-05-07: 5</title></circle>
	<circle cx="128.45" cy="298.47" data-y="4.95" data-x="1588896000" r="1" fill="white"><title>2020-05-08: 5</title></circle>
	<circle cx="130.09" cy="316.13" data-y="3.81" data-x="1588982400" r="1" fill="white"><title>2020-05-09: 4</title></circle>
	<circle cx="131.73" cy="320.54" data-y="3.53" data-x="1589068800" r="1" fill="white"><title>2020-05-10: 4</title></circle>
	<circle cx="133.38" cy="327.90" data-y="3.05" data-x="1589155200" r="1" fill="white"><title>2020-05-11: 3</title></circle>
	<circle cx="135.02" cy="320.54" data-y="3.53" data-x="1589241600" r="1" fill="white"><title>2020-05-12: 4</title></circle>
	<circle cx="136.66" cy="327.90" data-y="3.05" data-x="1589328000" r="1" fill="white"><title>2020-05-13: 3</title></circle>
	<circle cx="138.30" cy="326.43" data-y="3.14" data-x="1589414400" r="1" fill="white"><title>2020-05-14: 3</title></circle>
	<circle cx="139.94" cy="323.49" data-y="3.33" data-x="1589500800" r="1" fill="white"><title>2020-05-15: 3</title></circle>
	<circle cx="141.59" cy="316.13" data-y="3.81" data-x="1589587200" r="1" fill="white"><title>2020-05-16: 4</title></circle>
	<circle cx="143.23" cy="310.24" data-y="4.19" data-x="1589673600" r="1" fill="white"><title>2020-05-17: 4</title></circle>
	<circle cx="144.87" cy="313.19" data-y="4.00" data-x="1589760000" r="1" fill="white"><title>2020-05-18: 4</title></circle>
	<circle cx="146.51" cy="327.90" data-y="3.05" data-x="1589846400" r="1" fill="white"><title>2020-05-19: 3</title></circle>
	<circle cx="148.15" cy="329.38" data-y="2.95" data-x="1589932800" r="1" fill="white"><title>2020-05-20: 3</title></circle>
	<circle cx="149.80" cy="335.26" data-y="2.57" data-x="1590019200" r="1" fill="white"><title>2020-05-21: 3</title></circle>
	<circle cx="151.44" cy="344.09" data-y="2.00" data-x="1590105600" r="1" fill="white"><title>2020-05-22: 2</title></circle>
	<circle cx="153.08" cy="354.40" data-y="1.33" data-x="1590192000" r="1" fill="white"><title>2020-05-23: 1</title></circle>
	<circle cx="154.72" cy="360.28" data-y="0.95" data-x="1590278400" r="1" fill="white"><title>2020-05-24: 1</title></circle>
	<circle cx="156.37" cy="352.92" data-y="1.43" data-x="1590364800" r="1" fill="white"><title>2020-05-25: 1</title></circle>
	<circle cx="158.01" cy="354.40" data-y="1.33" data-x="1590451200" r="1" fill="white"><title>2020-05-26: 1</title></circle>
	<circle cx="159.65" cy="351.45" data-y="1.52" data-x="1590537600" r="1" fill="white"><title>2020-05-27: 2</title></circle>
	<circle cx="161.29" cy="351.45" data-y="1.52" data-x="1590624000" r="1" fill="white"><title>2020-05-28: 2</title></circle>
	<circle cx="162.93" cy="351.45" data-y="1.52" data-x="1590710400" r="1" fill="white"><title>2020-05-29: 2</title></circle>
	<circle cx="164.58" cy="352.92" data-y="1.43" data-x="1590796800" r="1" fill="white"><title>2020-05-30: 1</title></circle>
	<circle cx="166.22" cy="360.28" data-y="0.95" data-x="1590883200" r="1" fill="white"><title>2020-05-31: 1</title></circle>
	<circle cx="167.86" cy="366.17" data-y="0.57" data-x="1590969600" r="1" fill="white"><title>2020-06-01: 1</title></circle>
	<circle cx="169.50" cy="366.17" data-y="0.57" data-x="1591056000" r="1" fill="white"><title>2020-06-02: 1</title></circle>
	<circle cx="171.14" cy="367.64" data-y="0.48" data-x="1591142400" r="1" fill="white"><title>2020-06-03: 0</title></circle>
	<circle cx="172.79" cy="369.11" data-y="0.38" data-x="1591228800" r="1" fill="white"><title>2020-06-04: 0</title></circle>
	<circle cx="174.43" cy="366.17" data-y="0.57" data-x="1591315200" r="1" fill="white"><title>2020-06-05: 1</title></circle>
	<circle cx="176.07" cy="364.70" data-y="0.67" data-x="1591401600" r="1" fill="white"><title>2020-06-06: 1</title></circle>
	<circle cx="177.71" cy="357.34" data-y="1.14" data-x="1591488000" r="1" fill="white"><title>2020-06-07: 1</title></circle>
	<circle cx="179.35" cy="357.34" data-y="1.14" data-x="1591574400" r="1" fill="white"><title>2020-06-08: 1</title></circle>
	<circle cx="181.00" cy="357.34" data-y="1.14" data-x="1591660800" r="1" fill="white"><title>2020-06-09: 1</title></circle>
	<circle cx="182.64" cy="357.34" data-y="1.14" data-x="1591747200" r="1" fill="white"><title>2020-06-10: 1</title></circle>
	<circle cx="184.28" cy="357.34" data-y="1.14" data-x="1591833600" r="1" fill="white"><title>2020-06-11: 1</title></circle>
	<circle cx="185.92" cy="357.34" data-y="1.14" data-x="1591920000" r="1" fill="white"><title>2020-06-12: 1</title></circle>
	<circle cx="187.56" cy="355.87" data-y="1.24" data-x="1592006400" r="1" fill="white"><title>2020-06-13: 1</title></circle>
	<circle cx="189.21" cy="361.75" data-y="0.86" data-x="1592092800" r="1" fill="white"><title>2020-06-14: 1</title></circle>
	<circle cx="190.85" cy="360.28" data-y="0.95" data-x="1592179200" r="1" fill="white"><title>2020-06-15: 1</title></circle>
	<circle cx="192.49" cy="358.81" data-y="1.05" data-x="1592265600" r="1" fill="white"><title>2020-06-16: 1</title></circle>
	<circle cx="194.13" cy="363.23" data-y="0.76" data-x="1592352000" r="1" fill="white"><title>2020-06-17: 1</title></circle>
	<circle cx="195.77" cy="363.23" data-y="0.76" data-x="1592438400" r="1" fill="white"><title>2020-06-18: 1</title></circle>
	<circle cx="197.42" cy="366.17" data-y="0.57" data-x="1592524800" r="1" fill="white"><title>2020-06-19: 1</title></circle>
	<circle cx="199.06" cy="367.64" data-y="0.48" data-x="1592611200" r="1" fill="white"><title>2020-06-20: 0</title></circle>
	<circle cx="200.70" cy="369.11" data-y="0.38" data-x="1592697600" r="1" fill="white"><title>2020-06-21: 0</title></circle>
	<circle cx="202.34" cy="369.11" data-y="0.38" data-x="1592784000" r="1" fill="white"><title>2020-06-22: 0</title></circle>
	<circle cx="203.99" cy="370.58" data-y="0.29" data-x="1592870400" r="1" fill="white"><title>2020-06-23: 0</title></circle>
	<circle cx="205.63" cy="370.58" data-y="0.29" data-x="1592956800" r="1" fill="white"><title>2020-06-24: 0</title></circle>
	<circle cx="207.27" cy="370.58" data-y="0.29" data-x="1593043200" r="1" fill="white"><title>2020-06-25: 0</title></circle>
	<circle cx="208.91" cy="370.58" data-y="0.29" data-x="1593129600" r="1" fill="white"><title>2020-06-26: 0</title></circle>
	<circle cx="210.55" cy="370.58" data-y="0.29" data-x="1593216000" r="1" fill="white"><title>2020-06-27: 0</title></circle>
	<circle cx="212.20" cy="369.11" data-y="0.38" data-x="1593302400" r="1" fill="white"><title>2020-06-28: 0</title></circle>
	<circle cx="213.84" cy="372.06" data-y="0.19" data-x="1593388800" r="1" fill="white"><title>2020-06-29: 0</title></circle>
	<circle cx="215.48" cy="372.06" data-y="0.19" data-x="1593475200" r="1" fill="white"><title>2020-06-30: 0</title></circle>
	<circle cx="217.12" cy="372.06" data-y="0.19" data-x="1593561600" r="1" fill="white"><title>2020-07-01: 0</title></circle>
	<circle cx="218.76" cy="372.06" data-y="0.19" data-x="1593648000" r="1" fill="white"><title>2020-07-02: 0</title></circle>
	<circle cx="220.41" cy="370.58" data-y="0.29" data-x="1593734400" r="1" fill="white"><title>2020-07-03: 0</title></circle>
	<circle cx="222.05" cy="372.06" data-y="0.19" data-x="1593820800" r="1" fill="white"><title>2020-07-04: 0</title></circle>
	<circle cx="223.69" cy="372.06" data-y="0.19" data-x="1593907200" r="1" fill="white"><title>2020-07-05: 0</title></circle>
	<circle cx="225.33" cy="372.06" data-y="0.19" data-x="1593993600" r="1" fill="white"><title>2020-07-06: 0</title></circle>
	<circle cx="226.97" cy="372.06" data-y="0.19" data-x="1594080000" r="1" fill="white"><title>2020-07-07: 0</title></circle>
	<circle cx="228.62" cy="370.58" data-y="0.29" data-x="1594166400" r="1" fill="white"><title>2020-07-08: 0</title></circle>
	<circle cx="230.26" cy="369.11" data-y="0.38" data-x="1594252800" r="1" fill="white"><title>2020-07-09: 0</title></circle>
	<circle cx="231.90" cy="367.64" data-y="0.48" data-x="1594339200" r="1" fill="white"><title>2020-07-10: 0</title></circle>
	<circle cx="233.54" cy="367.64" data-y="0.48" data-x="1594425600" r="1" fill="white"><title>2020-07-11: 0</title></circle>
	<circle cx="235.18" cy="369.11" data-y="0.38" data-x="1594512000" r="1" fill="white"><title>2020-07-12: 0</title></circle>
	<circle cx="236.83" cy="369.11" data-y="0.38" data-x="1594598400" r="1" fill="white"><title>2020-07-13: 0</title></circle>
	<circle cx="238.47" cy="369.11" data-y="0.38" data-x="1594684800" r="1" fill="white"><title>2020-07-14: 0</title></circle>
	<circle cx="240.11" cy="370.58" data-y="0.29" data-x="1594771200" r="1" fill="white"><title>2020-07-15: 0</title></circle>
	<circle cx="241.75" cy="372.06" data-y="0.19" data-x="1594857600" r="1" fill="white"><title>2020-07-16: 0</title></circle>
	<circle cx="243.39" cy="373.53" data-y="0.10" data-x="1594944000" r="1" fill="white"><title>2020-07-17: 0</title></circle>
	<circle cx="245.04" cy="373.53" data-y="0.10" data-x="1595030400" r="1" fill="white"><title>2020-07-18: 0</title></circle>
	<circle cx="246.68" cy="372.06" data-y="0.19" data-x="1595116800" r="1" fill="white"><title>2020-07-19: 0</title></circle>
	<circle cx="248.32" cy="370.58" data-y="0.29" data-x="1595203200" r="1" fill="white"><title>2020-07-20: 0</title></circle>
	<circle cx="249.96" cy="370.58" data-y="0.29" data-x="1595289600" r="1" fill="white"><title>2020-07-21: 0</title></circle>
	<circle cx="251.61" cy="370.58" data-y="0.29" data-x="1595376000" r="1" fill="white"><title>2020-07-22: 0</title></circle>
	<circle cx="253.25" cy="370.58" data-y="0.29" data-x="1595462400" r="1" fill="white"><title>2020-07-23: 0</title></circle>
	<circle cx="254.89" cy="369.11" data-y="0.38" data-x="1595548800" r="1" fill="white"><title>2020-07-24: 0</title></circle>
	<circle cx="256.53" cy="369.11" data-y="0.38" data-x="1595635200" r="1" fill="white"><title>2020-07-25: 0</title></circle>
	<circle cx="258.17" cy="367.64" data-y="0.48" data-x="1595721600" r="1" fill="white"><title>2020-07-26: 0</title></circle>
	<circle cx="259.82" cy="367.64" data-y="0.48" data-x="1595808000" r="1" fill="white"><title>2020-07-27: 0</title></circle>
	<circle cx="261.46" cy="364.70" data-y="0.67" data-x="1595894400" r="1" fill="white"><title>2020-07-28: 1</title></circle>
	<circle cx="263.10" cy="363.23" data-y="0.76" data-x="1595980800" r="1" fill="white"><title>2020-07-29: 1</title></circle>
	<circle cx="264.74" cy="361.75" data-y="0.86" data-x="1596067200" r="1" fill="white"><title>2020-07-30: 1</title></circle>
	<circle cx="266.38" cy="361.75" data-y="0.86" data-x="1596153600" r="1" fill="white"><title>2020-07-31: 1</title></circle>
	<circle cx="268.03" cy="355.87" data-y="1.24" data-x="1596240000" r="1" fill="white"><title>2020-08-01: 1</title></circle>
	<circle cx="269.67" cy="354.40" data-y="1.33" data-x="1596326400" r="1" fill="white"><title>2020-08-02: 1</title></circle>
	<circle cx="271.31" cy="354.40" data-y="1.33" data-x="1596412800" r="1" fill="white"><title>2020-08-03: 1</title></circle>
	<circle cx="272.95" cy="355.87" data-y="1.24" data-x="1596499200" r="1" fill="white"><title>2020-08-04: 1</title></circle>
	<circle cx="274.59" cy="355.87" data-y="1.24" data-x="1596585600" r="1" fill="white"><title>2020-08-05: 1</title></circle>
	<circle cx="276.24" cy="357.34" data-y="1.14" data-x="1596672000" r="1" fill="white"><title>2020-08-06: 1</title></circle>
	<circle cx="277.88" cy="357.34" data-y="1.14" data-x="1596758400" r="1" fill="white"><title>2020-08-07: 1</title></circle>
	<circle cx="279.52" cy="363.23" data-y="0.76" data-x="1596844800" r="1" fill="white"><title>2020-08-08: 1</title></circle>
	<circle cx="281.16" cy="367.64" data-y="0.48" data-x="1596931200" r="1" fill="white"><title>2020-08-09: 0</title></circle>
	<circle cx="282.80" cy="367.64" data-y="0.48" data-x="1597017600" r="1" fill="white"><title>2020-08-10: 0</title></circle>
	<circle cx="284.45" cy="361.75" data-y="0.86" data-x="1597104000" r="1" fill="white"><title>2020-08-11: 1</title></circle>
	<circle cx="286.09" cy="361.75" data-y="0.86" data-x="1597190400" r="1" fill="white"><title>2020-08-12: 1</title></circle>
	<circle cx="287.73" cy="361.75" data-y="0.86" data-x="1597276800" r="1" fill="white"><title>2020-08-13: 1</title></circle>
	<circle cx="289.37" cy="363.23" data-y="0.76" data-x="1597363200" r="1" fill="white"><title>2020-08-14: 1</title></circle>
	<circle cx="291.01" cy="361.75" data-y="0.86" data-x="1597449600" r="1" fill="white"><title>2020-08-15: 1</title></circle>
	<circle cx="292.66" cy="355.87" data-y="1.24" data-x="1597536000" r="1" fill="white"><title>2020-08-16: 1</title></circle>
	<circle cx="294.30" cy="352.92" data-y="1.43" data-x="1597622400" r="1" fill="white"><title>2020-08-17: 1</title></circle>
	<circle cx="295.94" cy="360.28" data-y="0.95" data-x="1597708800" r="1" fill="white"><title>2020-08-18: 1</title></circle>
	<circle cx="297.58" cy="360.28" data-y="0.95" data-x="1597795200" r="1" fill="white"><title>2020-08-19: 1</title></circle>
	<circle cx="299.23" cy="360.28" data-y="0.95" data-x="1597881600" r="1" fill="white"><title>2020-08-20: 1</title></circle>
	<circle cx="300.87" cy="360.28" data-y="0.95" data-x="1597968000" r="1" fill="white"><title>2020-08-21: 1</title></circle>
	<circle cx="302.51" cy="360.28" data-y="0.95" data-x="1598054400" r="1" fill="white"><title>2020-08-22: 1</title></circle>
	<circle cx="304.15" cy="363.23" data-y="0.76" data-x="1598140800" r="1" fill="white"><title>2020-08-23: 1</title></circle>
	<circle cx="305.79" cy="366.17" data-y="0.57" data-x="1598227200" r="1" fill="white"><title>2020-08-24: 1</title></circle>
	<circle cx="307.44" cy="360.28" data-y="0.95" data-x="1598313600" r="1" fill="white"><title>2020-08-25: 1</title></circle>
	<circle cx="309.08" cy="360.28" data-y="0.95" data-x="1598400000" r="1" fill="white"><title>2020-08-26: 1</title></circle>
	<circle cx="310.72" cy="351.45" data-y="1.52" data-x="1598486400" r="1" fill="white"><title>2020-08-27: 2</title></circle>
	<circle cx="312.36" cy="348.51" data-y="1.72" data-x="1598572800" r="1" fill="white"><title>2020-08-28: 2</title></circle>
	<circle cx="314.00" cy="344.09" data-y="2.00" data-x="1598659200" r="1" fill="white"><title>2020-08-29: 2</title></circle>
	<circle cx="315.65" cy="344.09" data-y="2.00" data-x="1598745600" r="1" fill="white"><title>2020-08-30: 2</title></circle>
	<circle cx="317.29" cy="338.21" data-y="2.38" data-x="1598832000" r="1" fill="white"><title>2020-08-31: 2</title></circle>
	<circle cx="318.93" cy="338.21" data-y="2.38" data-x="1598918400" r="1" fill="white"><title>2020-09-01: 2</title></circle>
	<circle cx="320.57" cy="336.73" data-y="2.48" data-x="1599004800" r="1" fill="white"><title>2020-09-02: 2</title></circle>
	<circle cx="322.21" cy="341.15" data-y="2.19" data-x="1599091200" r="1" fill="white"><title>2020-09-03: 2</title></circle>
	<circle cx="323.86" cy="342.62" data-y="2.10" data-x="1599177600" r="1" fill="white"><title>2020-09-04: 2</title></circle>
	<circle cx="325.50" cy="342.62" data-y="2.10" data-x="1599264000" r="1" fill="white"><title>2020-09-05: 2</title></circle>
	<circle cx="327.14" cy="333.79" data-y="2.67" data-x="1599350400" r="1" fill="white"><title>2020-09-06: 3</title></circle>
	<circle cx="328.78" cy="333.79" data-y="2.67" data-x="1599436800" r="1" fill="white"><title>2020-09-07: 3</title></circle>
	<circle cx="330.42" cy="330.85" data-y="2.86" data-x="1599523200" r="1" fill="white"><title>2020-09-08: 3</title></circle>
	<circle cx="332.07" cy="330.85" data-y="2.86" data-x="1599609600" r="1" fill="white"><title>2020-09-09: 3</title></circle>
	<circle cx="333.71" cy="335.26" data-y="2.57" data-x="1599696000" r="1" fill="white"><title>2020-09-10: 3</title></circle>
	<circle cx="335.35" cy="333.79" data-y="2.67" data-x="1599782400" r="1" fill="white"><title>2020-09-11: 3</title></circle>
	<circle cx="336.99" cy="333.79" data-y="2.67" data-x="1599868800" r="1" fill="white"><title>2020-09-12: 3</title></circle>
	<circle cx="338.63" cy="342.62" data-y="2.10" data-x="1599955200" r="1" fill="white"><title>2020-09-13: 2</title></circle>
	<circle cx="340.28" cy="348.51" data-y="1.72" data-x="1600041600" r="1" fill="white"><title>2020-09-14: 2</title></circle>
	<circle cx="341.92" cy="352.92" data-y="1.43" data-x="1600128000" r="1" fill="white"><title>2020-09-15: 1</title></circle>
	<circle cx="343.56" cy="352.92" data-y="1.43" data-x="1600214400" r="1" fill="white"><title>2020-09-16: 1</title></circle>
	<circle cx="345.20" cy="348.51" data-y="1.72" data-x="1600300800" r="1" fill="white"><title>2020-09-17: 2</title></circle>
	<circle cx="346.85" cy="349.98" data-y="1.62" data-x="1600387200" r="1" fill="white"><title>2020-09-18: 2</title></circle>
	<circle cx="348.49" cy="354.40" data-y="1.33" data-x="1600473600" r="1" fill="white"><title>2020-09-19: 1</title></circle>
	<circle cx="350.13" cy="354.40" data-y="1.33" data-x="1600560000" r="1" fill="white"><title>2020-09-20: 1</title></circle>
	<circle cx="351.77" cy="349.98" data-y="1.62" data-x="1600646400" r="1" fill="white"><title>2020-09-21: 2</title></circle>
	<circle cx="353.41" cy="354.40" data-y="1.33" data-x="1600732800" r="1" fill="white"><title>2020-09-22: 1</title></circle>
	<circle cx="355.06" cy="352.92" data-y="1.43" data-x="1600819200" r="1" fill="white"><title>2020-09-23: 1</title></circle>
	<circle cx="356.70" cy="349.98" data-y="1.62" data-x="1600905600" r="1" fill="white"><title>2020-09-24: 2</title></circle>
	<circle cx="358.34" cy="345.56" data-y="1.91" data-x="1600992000" r="1" fill="white"><title>2020-09-25: 2</title></circle>
	<circle cx="359.98" cy="339.68" data-y="2.29" data-x="1601078400" r="1" fill="white"><title>2020-09-26: 2</title></circle>
	<circle cx="361.62" cy="335.26" data-y="2.57" data-x="1601164800" r="1" fill="white"><title>2020-09-27: 3</title></circle>
	<circle cx="363.27" cy="330.85" data-y="2.86" data-x="1601251200" r="1" fill="white"><title>2020-09-28: 3</title></circle>
	<circle cx="364.91" cy="314.66" data-y="3.91" data-x="1601337600" r="1" fill="white"><title>2020-09-29: 4</title></circle>
	<circle cx="366.55" cy="317.60" data-y="3.72" data-x="1601424000" r="1" fill="white"><title>2020-09-30: 4</title></circle>
	<circle cx="368.19" cy="311.71" data-y="4.10" data-x="1601510400" r="1" fill="white"><title>2020-10-01: 4</title></circle>
	<circle cx="369.83" cy="301.41" data-y="4.76" data-x="1601596800" r="1" fill="white"><title>2020-10-02: 5</title></circle>
	<circle cx="371.48" cy="298.47" data-y="4.95" data-x="1601683200" r="1" fill="white"><title>2020-10-03: 5</title></circle>
	<circle cx="373.12" cy="279.33" data-y="6.19" data-x="1601769600" r="1" fill="white"><title>2020-10-04: 6</title></circle>
	<circle cx="374.76" cy="258.73" data-y="7.53" data-x="1601856000" r="1" fill="white"><title>2020-10-05: 8</title></circle>
	<circle cx="376.40" cy="248.43" data-y="8.19" data-x="1601942400" r="1" fill="white"><title>2020-10-06: 8</title></circle>
	<circle cx="378.04" cy="242.54" data-y="8.58" data-x="1602028800" r="1" fill="white"><title>2020-10-07: 9</title></circle>
	<circle cx="379.69" cy="246.96" data-y="8.29" data-x="1602115200" r="1" fill="white"><title>2020-10-08: 8</title></circle>
	<circle cx="381.33" cy="242.54" data-y="8.58" data-x="1602201600" r="1" fill="white"><title>2020-10-09: 9</title></circle>
	<circle cx="382.97" cy="230.77" data-y="9.34" data-x="1602288000" r="1" fill="white"><title>2020-10-10: 9</title></circle>
	<circle cx="384.61" cy="233.71" data-y="9.15" data-x="1602374400" r="1" fill="white"><title>2020-10-11: 9</title></circle>
	<circle cx="386.25" cy="235.18" data-y="9.05" data-x="1602460800" r="1" fill="white"><title>2020-10-12: 9</title></circle>
	<circle cx="387.90" cy="239.60" data-y="8.77" data-x="1602547200" r="1" fill="white"><title>2020-10-13: 9</title></circle>
	<circle cx="389.54" cy="224.88" data-y="9.72" data-x="1602633600" r="1" fill="white"><title>2020-10-14: 10</title></circle>
	<circle cx="391.18" cy="208.69" data-y="10.77" data-x="1602720000" r="1" fill="white"><title>2020-10-15: 11</title></circle>
	<circle cx="392.82" cy="202.80" data-y="11.15" data-x="1602806400" r="1" fill="white"><title>2020-10-16: 11</title></circle>
	<circle cx="394.46" cy="204.27" data-y="11.05" data-x="1602892800" r="1" fill="white"><title>2020-10-17: 11</title></circle>
	<circle cx="396.11" cy="195.44" data-y="11.62" data-x="1602979200" r="1" fill="white"><title>2020-10-18: 12</title></circle>
	<circle cx="397.75" cy="201.33" data-y="11.24" data-x="1603065600" r="1" fill="white"><title>2020-10-19: 11</title></circle>
	<circle cx="399.39" cy="199.86" data-y="11.34" data-x="1603152000" r="1" fill="white"><title>2020-10-20: 11</title></circle>
	<circle cx="401.03" cy="198.39" data-y="11.43" data-x="1603238400" r="1" fill="white"><title>2020-10-21: 11</title></circle>
	<circle cx="402.68" cy="205.75" data-y="10.96" data-x="1603324800" r="1" fill="white"><title>2020-10-22: 11</title></circle>
	<circle cx="404.32" cy="193.97" data-y="11.72" data-x="1603411200" r="1" fill="white"><title>2020-10-23: 12</title></circle>
	<circle cx="405.96" cy="183.67" data-y="12.39" data-x="1603497600" r="1" fill="white"><title>2020-10-24: 12</title></circle>
	<circle cx="407.60" cy="185.14" data-y="12.29" data-x="1603584000" r="1" fill="white"><title>2020-10-25: 12</title></circle>
	<circle cx="409.24" cy="183.67" data-y="12.39" data-x="1603670400" r="1" fill="white"><title>2020-10-26: 12</title></circle>
	<circle cx="410.89" cy="168.95" data-y="13.34" data-x="1603756800" r="1" fill="white"><title>2020-10-27: 13</title></circle>
	<circle cx="412.53" cy="171.90" data-y="13.15" data-x="1603843200" r="1" fill="white"><title>2020-10-28: 13</title></circle>
	<circle cx="414.17" cy="161.59" data-y="13.82" data-x="1603929600" r="1" fill="white"><title>2020-10-29: 14</title></circle>
	<circle cx="415.81" cy="155.71" data-y="14.20" data-x="1604016000" r="1" fill="white"><title>2020-10-30: 14</title></circle>
	<circle cx="417.45" cy="155.71" data-y="14.20" data-x="1604102400" r="1" fill="white"><title>2020-10-31: 14</title></circle>
	<circle cx="419.10" cy="146.88" data-y="14.77" data-x="1604188800" r="1" fill="white"><title>2020-11-01: 15</title></circle>
	<circle cx="420.74" cy="120.38" data-y="16.48" data-x="1604275200" r="1" fill="white"><title>2020-11-02: 16</title></circle>
	<circle cx="422.38" cy="120.38" data-y="16.48" data-x="1604361600" r="1" fill="white"><title>2020-11-03: 16</title></circle>
	<circle cx="424.02" cy="104.19" data-y="17.53" data-x="1604448000" r="1" fill="white"><title>2020-11-04: 18</title></circle>
	<circle cx="425.66" cy="88.00" data-y="18.58" data-x="1604534400" r="1" fill="white"><title>2020-11-05: 19</title></circle>
	<circle cx="427.31" cy="51.21" data-y="20.96" data-x="1604620800" r="1" fill="white"><title>2020-11-06: 21</title></circle>
	<circle cx="428.95" cy="10.00" data-y="23.63" data-x="1604707200" r="1" fill="white"><title>2020-11-07: 24</title></circle>
	<circle cx="430.59" cy="10.00" data-y="23.63" data-x="1604793600" r="1" fill="white"><title>2020-11-08: 24</title></circle>
	<circle cx="432.23" cy="26.19" data-y="22.58" data-x="1604880000" r="1" fill="white"><title>2020-11-09: 23</title></circle>
	<circle cx="433.87" cy="39.44" data-y="21.72" data-x="1604966400" r="1" fill="white"><title>2020-11-10: 22</title></circle>
	<circle cx="435.52" cy="35.02" data-y="22.01" data-x="1605052800" r="1" fill="white"><title>2020-11-11: 22</title></circle>
	<circle cx="437.16" cy="57.10" data-y="20.58" data-x="1605139200" r="1" fill="white"><title>2020-11-12: 21</title></circle>
	<circle cx="438.80" cy="85.06" data-y="18.77" data-x="1605225600" r="1" fill="white"><title>2020-11-13: 19</title></circle>
	<circle cx="440.44" cy="124.80" data-y="16.20" data-x="1605312000" r="1" fill="white"><title>2020-11-14: 16</title></circle>
	<circle cx="442.08" cy="138.04" data-y="15.34" data-x="1605398400" r="1" fill="white"><title>2020-11-15: 15</title></circle>
	<circle cx="443.73" cy="140.99" data-y="15.15" data-x="1605484800" r="1" fill="white"><title>2020-11-16: 15</title></circle>
	<circle cx="445.37" cy="126.27" data-y="16.10" data-x="1605571200" r="1" fill="white"><title>2020-11-17: 16</title></circle>
	<circle cx="447.01" cy="139.52" data-y="15.24" data-x="1605657600" r="1" fill="white"><title>2020-11-18: 15</title></circle>
	<circle cx="448.65" cy="149.82" data-y="14.58" data-x="1605744000" r="1" fill="white"><title>2020-11-19: 15</title></circle>
	<circle cx="450.30" cy="177.78" data-y="12.77" data-x="1605830400" r="1" fill="white"><title>2020-11-20: 13</title></circle>
	<circle cx="451.94" cy="171.90" data-y="13.15" data-x="1605916800" r="1" fill="white"><title>2020-11-21: 13</title></circle>
	<circle cx="453.58" cy="170.42" data-y="13.24" data-x="1606003200" r="1" fill="white"><title>2020-11-22: 13</title></circle>
	<circle cx="455.22" cy="173.37" data-y="13.05" data-x="1606089600" r="1" fill="white"><title>2020-11-23: 13</title></circle>
	<circle cx="456.86" cy="182.20" data-y="12.48" data-x="1606176000" r="1" fill="white"><title>2020-11-24: 12</title></circle>
	<circle cx="458.51" cy="192.50" data-y="11.81" data-x="1606262400" r="1" fill="white"><title>2020-11-25: 12</title></circle>
	<circle cx="460.15" cy="186.61" data-y="12.20" data-x="1606348800" r="1" fill="white"><title>2020-11-26: 12</title></circle>
	<circle cx="461.79" cy="155.71" data-y="14.20" data-x="1606435200" r="1" fill="white"><title>2020-11-27: 14</title></circle>
</g>
<g data-series="recent-cases" class="data-series">
	<path d="M 461.79,155.71L 463.43,166.01L 465.07,193.97L 466.72,198.14L 468.36,206.04L 470.00,194.71" id="Recent cases" class="line" stroke-width="1" stroke-linecap="round" stroke-dasharray="4,6" stroke-dashoffset="4"><title>Recent cases</title></path>
	<circle cx="461.79" cy="155.71" data-y="14.20" data-x="1606435200" r="2.5" fill="white"><title>2020-11-27: 14</title></circle>
	<circle cx="463.43" cy="166.01" data-y="13.53" data-x="1606521600" r="2.5" fill="white"><title>2020-11-28: 14</title></circle>
	<circle cx="465.07" cy="193.97" data-y="11.72" data-x="1606608000" r="2.5" fill="white"><title>2020-11-29: 12</title></circle>
	<circle cx="466.72" cy="198.14" data-y="11.45" data-x="1606694400" r="2.5" fill="white"><title>2020-11-30: 11</title></circle>
	<circle cx="468.36" cy="206.04" data-y="10.94" data-x="1606780800" r="2.5" fill="white"><title>2020-12-01: 11</title></circle>
	<circle cx="470.00" cy="194.71" data-y="11.67" data-x="1606867200" r="2.5" fill="white"><title>2020-12-02: 12</title></circle>
</g>
</svg>
