<svg width="480" height="400" viewBox="0 0 480 400" xmlns="http://www.w3.org/2000/svg" style="overflow:display" preserveAspectRatio="xMinYMin meet" overflow="visible">
<defs>
	<style>
	.data-series path.line { fill-opacity: 0; stroke: black; }
	.data-series path.line.dotted { stroke-dasharray: 12 20 }
	.data-series:hover path.line, .data-series.on path.line { stroke-width: 1; }
	.data-series:hover circle, .data-series.on circle { display: inline; }
	.graph-grid { font-family: "Helvetica Neue",Helvetica,Arial,"Lucida Grande",sans-serif; }
	.graph-grid line { stroke: black; stroke-width: 1; stroke-linecap: round; }
	.graph-grid.graph-grid-x text { text-anchor: middle; dominant-baseline: hanging; transform: translateY(10px); }
	.graph-grid.graph-grid-y text { text-anchor: end; dominant-baseline: middle; transform: translateX(-10px); }
	</style>
</defs>
<g class="graph-grid graph-grid-y">
	<line x1="25.00" y1="375.00" x2="470.00" y2="375.00" data-left="25"></line>
	<text x="35" y="375" text-anchor="end">0</text>
	<text x="35" y="281.69828988764" text-anchor="end">20</text>
	<text x="35" y="188.396579775281" text-anchor="end">40</text>
	<text x="35" y="95.0948696629213" text-anchor="end">60</text>
	<text x="35" y="1.79315955056175" text-anchor="end">80</text>
	<text style="text-anchor:middle;dominant-baseline:hanging;font-weight:bold;transform: translateY(192.5px) rotate(-90deg);"></text>
</g>
<g class="graph-grid graph-grid-x">
	<line class="tick" x1="55.58" y1="375.00" x2="55.58" y2="380.00"></line>
	<text x="55.5841924398625" y="375" text-anchor="middle">A</text>
	<line class="tick" x1="101.46" y1="375.00" x2="101.46" y2="380.00"></line>
	<text x="101.460481099656" y="375" text-anchor="middle">M</text>
	<line class="tick" x1="148.87" y1="375.00" x2="148.87" y2="380.00"></line>
	<text x="148.865979381443" y="375" text-anchor="middle">J</text>
	<line class="tick" x1="194.74" y1="375.00" x2="194.74" y2="380.00"></line>
	<text x="194.742268041237" y="375" text-anchor="middle">J</text>
	<line class="tick" x1="242.15" y1="375.00" x2="242.15" y2="380.00"></line>
	<text x="242.147766323024" y="375" text-anchor="middle">A</text>
	<line class="tick" x1="289.55" y1="375.00" x2="289.55" y2="380.00"></line>
	<text x="289.553264604811" y="375" text-anchor="middle">S</text>
	<line class="tick" x1="335.43" y1="375.00" x2="335.43" y2="380.00"></line>
	<text x="335.429553264605" y="375" text-anchor="middle">O</text>
	<line class="tick" x1="382.84" y1="375.00" x2="382.84" y2="380.00"></line>
	<text x="382.835051546392" y="375" text-anchor="middle">N</text>
	<line class="tick" x1="428.71" y1="375.00" x2="428.71" y2="380.00"></line>
	<text x="428.711340206186" y="375" text-anchor="middle">D</text>
	<text style="text-anchor:middle;dominant-baseline:hanging;font-weight:bold;transform: translateY(192.5px) rotate(-90deg);"></text>
</g>
<g data-series="widespread" class="data-series">
	<path d="M 25.00,342.34L 470.00,342.34" id="E07000120-level-0" class="line" stroke-width="1" stroke-linecap="round" stroke-dasharray="3,3" fill-opacity="0.3" opacity="0.3"><title>Widespread</title></path>
</g>
<g data-series="substantial" class="data-series">
	<path d="M 25.00,356.34L 470.00,356.34" id="E07000120-level-1" class="line" stroke-width="1" stroke-linecap="round" stroke-dasharray="3,3" fill-opacity="0.3" opacity="0.3"><title>Substantial</title></path>
</g>
<g data-series="moderate" class="data-series">
	<path d="M 25.00,370.33L 470.00,370.33" id="E07000120-level-2" class="line" stroke-width="1" stroke-linecap="round" stroke-dasharray="3,3" fill-opacity="0.3" opacity="0.3"><title>Moderate</title></path>
</g>
<g data-series="new-cases" class="data-series">
	<path d="M 25.00,372.13L 26.53,372.70L 28.06,373.09L 29.59,372.54L 31.12,373.36L 32.65,373.36L 34.18,373.36L 35.70,374.18L 37.23,374.18L 38.76,374.18L 40.29,374.18L 41.82,373.36L 43.35,371.72L 44.88,370.08L 46.41,369.26L 47.94,365.98L 49.47,364.34L 51.00,363.52L 52.53,357.78L 54.05,357.78L 55.58,356.96L 57.11,354.49L 58.64,350.39L 60.17,348.75L 61.70,347.93L 63.23,346.29L 64.76,345.47L 66.29,345.47L 67.82,346.29L 69.35,351.21L 70.88,354.49L 72.41,355.31L 73.93,360.24L 75.46,360.24L 76.99,358.60L 78.52,353.67L 80.05,353.67L 81.58,350.39L 83.11,347.11L 84.64,340.55L 86.17,338.91L 87.70,339.73L 89.23,344.65L 90.76,344.65L 92.29,343.01L 93.81,343.83L 95.34,350.39L 96.87,349.57L 98.40,349.57L 99.93,347.11L 101.46,345.47L 102.99,348.75L 104.52,348.75L 106.05,349.57L 107.58,346.29L 109.11,347.93L 110.64,350.39L 112.16,349.57L 113.69,338.09L 115.22,338.09L 116.75,338.91L 118.28,343.01L 119.81,333.99L 121.34,331.53L 122.87,333.99L 124.40,346.29L 125.93,346.29L 127.46,347.11L 128.99,349.57L 130.52,359.42L 132.04,361.88L 133.57,359.42L 135.10,357.78L 136.63,360.24L 138.16,358.60L 139.69,360.24L 141.22,359.42L 142.75,358.60L 144.28,363.52L 145.81,363.52L 147.34,362.70L 148.87,365.16L 150.40,365.16L 151.92,365.16L 153.45,366.80L 154.98,365.16L 156.51,367.62L 158.04,366.80L 159.57,364.34L 161.10,363.52L 162.63,365.16L 164.16,366.80L 165.69,366.80L 167.22,365.16L 168.75,367.62L 170.27,369.26L 171.80,369.26L 173.33,369.26L 174.86,368.44L 176.39,370.08L 177.92,371.72L 179.45,372.54L 180.98,373.36L 182.51,374.18L 184.04,374.18L 185.57,374.18L 187.10,374.18L 188.63,374.18L 190.15,374.18L 191.68,374.18L 193.21,373.36L 194.74,373.36L 196.27,374.18L 197.80,374.18L 199.33,373.36L 200.86,371.72L 202.39,371.72L 203.92,371.72L 205.45,371.72L 206.98,371.72L 208.51,370.90L 210.03,370.08L 211.56,363.52L 213.09,359.42L 214.62,357.78L 216.15,352.03L 217.68,348.75L 219.21,345.47L 220.74,343.01L 222.27,342.19L 223.80,345.47L 225.33,347.93L 226.86,352.03L 228.38,353.67L 229.91,356.13L 231.44,359.42L 232.97,365.98L 234.50,364.34L 236.03,362.70L 237.56,360.24L 239.09,359.42L 240.62,358.60L 242.15,354.49L 243.68,355.31L 245.21,356.13L 246.74,354.49L 248.26,354.49L 249.79,353.67L 251.32,347.11L 252.85,350.39L 254.38,347.93L 255.91,343.83L 257.44,346.29L 258.97,349.57L 260.50,351.21L 262.03,360.24L 263.56,358.60L 265.09,361.88L 266.62,365.98L 268.14,361.88L 269.67,361.06L 271.20,359.42L 272.73,357.78L 274.26,357.78L 275.79,354.49L 277.32,355.31L 278.85,358.60L 280.38,358.60L 281.91,361.06L 283.44,359.42L 284.97,356.96L 286.49,355.31L 288.02,346.29L 289.55,341.37L 291.08,332.35L 292.61,332.35L 294.14,321.69L 295.67,311.02L 297.20,307.74L 298.73,297.90L 300.26,290.52L 301.79,295.44L 303.32,286.42L 304.85,273.29L 306.37,274.93L 307.90,260.99L 309.43,262.63L 310.96,264.27L 312.49,247.04L 314.02,242.12L 315.55,253.61L 317.08,245.40L 318.61,249.51L 320.14,232.28L 321.67,224.08L 323.20,227.36L 324.73,220.80L 326.25,210.96L 327.78,199.47L 329.31,187.17L 330.84,194.55L 332.37,188.81L 333.90,182.25L 335.43,181.43L 336.96,169.94L 338.49,156.00L 340.02,159.28L 341.55,152.72L 343.08,161.74L 344.60,168.30L 346.13,157.64L 347.66,161.74L 349.19,169.94L 350.72,157.64L 352.25,158.46L 353.78,147.80L 355.31,135.49L 356.84,126.47L 358.37,91.20L 359.90,73.16L 361.43,55.93L 362.96,37.07L 364.48,16.56L 366.01,10.00L 367.54,17.38L 369.07,21.48L 370.60,33.79L 372.13,44.45L 373.66,55.93L 375.19,49.37L 376.72,51.83L 378.25,64.96L 379.78,64.96L 381.31,68.24L 382.84,71.52L 384.36,67.42L 385.89,90.38L 387.42,96.94L 388.95,87.92L 390.48,101.04L 392.01,110.89L 393.54,119.91L 395.07,118.27L 396.60,105.15L 398.13,105.15L 399.66,91.20L 401.19,78.08L 402.71,57.57L 404.24,48.55L 405.77,62.49L 407.30,83.82L 408.83,86.28L 410.36,103.51L 411.89,135.49L 413.42,171.58L 414.95,195.37L 416.48,197.83L 418.01,197.83L 419.54,206.03L 421.07,220.80L 422.59,233.10L 424.12,235.56L 425.65,232.28L 427.18,241.30L 428.71,254.43L 430.24,262.63L 431.77,262.63L 433.30,251.97L 434.83,249.51L 436.36,261.81L 437.89,269.19L 439.42,260.17L 440.95,246.22L 442.47,235.56L 444.00,216.70L 445.53,202.75L 447.06,184.71L 448.59,176.51L 450.12,174.87L 451.65,184.71L 453.18,188.81L 454.71,192.09L 456.24,188.81L 457.77,190.45L 459.30,196.19L 460.82,209.31L 462.35,195.37" id="New cases" class="line" stroke-width="1" stroke-linecap="round"><title>New cases</title></path>
	<circle cx="25.00" cy="372.13" data-y="0.62" data-x="1583971200" r="1" fill="white"><title>2020-03-12: 1</title></circle>
	<circle cx="26.53" cy="372.70" data-y="0.49" data-x="1584057600" r="1" fill="white"><title>2020-03-13: 0</title></circle>
	<circle cx="28.06" cy="373.09" data-y="0.41" data-x="1584144000" r="1" fill="white"><title>2020-03-14: 0</title></circle>
	<circle cx="29.59" cy="372.54" data-y="0.53" data-x="1584230400" r="1" fill="white"><title>2020-03-15: 1</title></circle>
	<circle cx="31.12" cy="373.36" data-y="0.35" data-x="1584316800" r="1" fill="white"><title>2020-03-16: 0</title></circle>
	<circle cx="32.65" cy="373.36" data-y="0.35" data-x="1584403200" r="1" fill="white"><title>2020-03-17: 0</title></circle>
	<circle cx="34.18" cy="373.36" data-y="0.35" data-x="1584489600" r="1" fill="white"><title>2020-03-18: 0</title></circle>
	<circle cx="35.70" cy="374.18" data-y="0.18" data-x="1584576000" r="1" fill="white"><title>2020-03-19: 0</title></circle>
	<circle cx="37.23" cy="374.18" data-y="0.18" data-x="1584662400" r="1" fill="white"><title>2020-03-20: 0</title></circle>
	<circle cx="38.76" cy="374.18" data-y="0.18" data-x="1584748800" r="1" fill="white"><title>2020-03-21: 0</title></circle>
	<circle cx="40.29" cy="374.18" data-y="0.18" data-x="1584835200" r="1" fill="white"><title>2020-03-22: 0</title></circle>
	<circle cx="41.82" cy="373.36" data-y="0.35" data-x="1584921600" r="1" fill="white"><title>2020-03-23: 0</title></circle>
	<circle cx="43.35" cy="371.72" data-y="0.70" data-x="1585008000" r="1" fill="white"><title>2020-03-24: 1</title></circle>
	<circle cx="44.88" cy="370.08" data-y="1.05" data-x="1585094400" r="1" fill="white"><title>2020-03-25: 1</title></circle>
	<circle cx="46.41" cy="369.26" data-y="1.23" data-x="1585180800" r="1" fill="white"><title>2020-03-26: 1</title></circle>
	<circle cx="47.94" cy="365.98" data-y="1.93" data-x="1585267200" r="1" fill="white"><title>2020-03-27: 2</title></circle>
	<circle cx="49.47" cy="364.34" data-y="2.29" data-x="1585353600" r="1" fill="white"><title>2020-03-28: 2</title></circle>
	<circle cx="51.00" cy="363.52" data-y="2.46" data-x="1585440000" r="1" fill="white"><title>2020-03-29: 2</title></circle>
	<circle cx="52.53" cy="357.78" data-y="3.69" data-x="1585526400" r="1" fill="white"><title>2020-03-30: 4</title></circle>
	<circle cx="54.05" cy="357.78" data-y="3.69" data-x="1585612800" r="1" fill="white"><title>2020-03-31: 4</title></circle>
	<circle cx="55.58" cy="356.96" data-y="3.87" data-x="1585699200" r="1" fill="white"><title>2020-04-01: 4</title></circle>
	<circle cx="57.11" cy="354.49" data-y="4.40" data-x="1585785600" r="1" fill="white"><title>2020-04-02: 4</title></circle>
	<circle cx="58.64" cy="350.39" data-y="5.27" data-x="1585872000" r="1" fill="white"><title>2020-04-03: 5</title></circle>
	<circle cx="60.17" cy="348.75" data-y="5.63" data-x="1585958400" r="1" fill="white"><title>2020-04-04: 6</title></circle>
	<circle cx="61.70" cy="347.93" data-y="5.80" data-x="1586044800" r="1" fill="white"><title>2020-04-05: 6</title></circle>
	<circle cx="63.23" cy="346.29" data-y="6.15" data-x="1586131200" r="1" fill="white"><title>2020-04-06: 6</title></circle>
	<circle cx="64.76" cy="345.47" data-y="6.33" data-x="1586217600" r="1" fill="white"><title>2020-04-07: 6</title></circle>
	<circle cx="66.29" cy="345.47" data-y="6.33" data-x="1586304000" r="1" fill="white"><title>2020-04-08: 6</title></circle>
	<circle cx="67.82" cy="346.29" data-y="6.15" data-x="1586390400" r="1" fill="white"><title>2020-04-09: 6</title></circle>
	<circle cx="69.35" cy="351.21" data-y="5.10" data-x="1586476800" r="1" fill="white"><title>2020-04-10: 5</title></circle>
	<circle cx="70.88" cy="354.49" data-y="4.40" data-x="1586563200" r="1" fill="white"><title>2020-04-11: 4</title></circle>
	<circle cx="72.41" cy="355.31" data-y="4.22" data-x="1586649600" r="1" fill="white"><title>2020-04-12: 4</title></circle>
	<circle cx="73.93" cy="360.24" data-y="3.16" data-x="1586736000" r="1" fill="white"><title>2020-04-13: 3</title></circle>
	<circle cx="75.46" cy="360.24" data-y="3.16" data-x="1586822400" r="1" fill="white"><title>2020-04-14: 3</title></circle>
	<circle cx="76.99" cy="358.60" data-y="3.52" data-x="1586908800" r="1" fill="white"><title>2020-04-15: 4</title></circle>
	<circle cx="78.52" cy="353.67" data-y="4.57" data-x="1586995200" r="1" fill="white"><title>2020-04-16: 5</title></circle>
	<circle cx="80.05" cy="353.67" data-y="4.57" data-x="1587081600" r="1" fill="white"><title>2020-04-17: 5</title></circle>
	<circle cx="81.58" cy="350.39" data-y="5.27" data-x="1587168000" r="1" fill="white"><title>2020-04-18: 5</title></circle>
	<circle cx="83.11" cy="347.11" data-y="5.98" data-x="1587254400" r="1" fill="white"><title>2020-04-19: 6</title></circle>
	<circle cx="84.64" cy="340.55" data-y="7.38" data-x="1587340800" r="1" fill="white"><title>2020-04-20: 7</title></circle>
	<circle cx="86.17" cy="338.91" data-y="7.74" data-x="1587427200" r="1" fill="white"><title>2020-04-21: 8</title></circle>
	<circle cx="87.70" cy="339.73" data-y="7.56" data-x="1587513600" r="1" fill="white"><title>2020-04-22: 8</title></circle>
	<circle cx="89.23" cy="344.65" data-y="6.51" data-x="1587600000" r="1" fill="white"><title>2020-04-23: 7</title></circle>
	<circle cx="90.76" cy="344.65" data-y="6.51" data-x="1587686400" r="1" fill="white"><title>2020-04-24: 7</title></circle>
	<circle cx="92.29" cy="343.01" data-y="6.86" data-x="1587772800" r="1" fill="white"><title>2020-04-25: 7</title></circle>
	<circle cx="93.81" cy="343.83" data-y="6.68" data-x="1587859200" r="1" fill="white"><title>2020-04-26: 7</title></circle>
	<circle cx="95.34" cy="350.39" data-y="5.27" data-x="1587945600" r="1" fill="white"><title>2020-04-27: 5</title></circle>
	<circle cx="96.87" cy="349.57" data-y="5.45" data-x="1588032000" r="1" fill="white"><title>2020-04-28: 5</title></circle>
	<circle cx="98.40" cy="349.57" data-y="5.45" data-x="1588118400" r="1" fill="white"><title>2020-04-29: 5</title></circle>
	<circle cx="99.93" cy="347.11" data-y="5.98" data-x="1588204800" r="1" fill="white"><title>2020-04-30: 6</title></circle>
	<circle cx="101.46" cy="345.47" data-y="6.33" data-x="1588291200" r="1" fill="white"><title>2020-05-01: 6</title></circle>
	<circle cx="102.99" cy="348.75" data-y="5.63" data-x="1588377600" r="1" fill="white"><title>2020-05-02: 6</title></circle>
	<circle cx="104.52" cy="348.75" data-y="5.63" data-x="1588464000" r="1" fill="white"><title>2020-05-03: 6</title></circle>
	<circle cx="106.05" cy="349.57" data-y="5.45" data-x="1588550400" r="1" fill="white"><title>2020-05-04: 5</title></circle>
	<circle cx="107.58" cy="346.29" data-y="6.15" data-x="1588636800" r="1" fill="white"><title>2020-05-05: 6</title></circle>
	<circle cx="109.11" cy="347.93" data-y="5.80" data-x="1588723200" r="1" fill="white"><title>2020-05-06: 6</title></circle>
	<circle cx="110.64" cy="350.39" data-y="5.27" data-x="1588809600" r="1" fill="white"><title>2020-05-07: 5</title></circle>
	<circle cx="112.16" cy="349.57" data-y="5.45" data-x="1588896000" r="1" fill="white"><title>2020-05-08: 5</title></circle>
	<circle cx="113.69" cy="338.09" data-y="7.91" data-x="1588982400" r="1" fill="white"><title>2020-05-09: 8</title></circle>
	<circle cx="115.22" cy="338.09" data-y="7.91" data-x="1589068800" r="1" fill="white"><title>2020-05-10: 8</title></circle>
	<circle cx="116.75" cy="338.91" data-y="7.74" data-x="1589155200" r="1" fill="white"><title>2020-05-11: 8</title></circle>
	<circle cx="118.28" cy="343.01" data-y="6.86" data-x="1589241600" r="1" fill="white"><title>2020-05-12: 7</title></circle>
	<circle cx="119.81" cy="333.99" data-y="8.79" data-x="1589328000" r="1" fill="white"><title>2020-05-13: 9</title></circle>
	<circle cx="121.34" cy="331.53" data-y="9.32" data-x="1589414400" r="1" fill="white"><title>2020-05-14: 9</title></circle>
	<circle cx="122.87" cy="333.99" data-y="8.79" data-x="1589500800" r="1" fill="white"><title>2020-05-15: 9</title></circle>
	<circle cx="124.40" cy="346.29" data-y="6.15" data-x="1589587200" r="1" fill="white"><title>2020-05-16: 6</title></circle>
	<circle cx="125.93" cy="346.29" data-y="6.15" data-x="1589673600" r="1" fill="white"><title>2020-05-17: 6</title></circle>
	<circle cx="127.46" cy="347.11" data-y="5.98" data-x="1589760000" r="1" fill="white"><title>2020-05-18: 6</title></circle>
	<circle cx="128.99" cy="349.57" data-y="5.45" data-x="1589846400" r="1" fill="white"><title>2020-05-19: 5</title></circle>
	<circle cx="130.52" cy="359.42" data-y="3.34" data-x="1589932800" r="1" fill="white"><title>2020-05-20: 3</title></circle>
	<circle cx="132.04" cy="361.88" data-y="2.81" data-x="1590019200" r="1" fill="white"><title>2020-05-21: 3</title></circle>
	<circle cx="133.57" cy="359.42" data-y="3.34" data-x="1590105600" r="1" fill="white"><title>2020-05-22: 3</title></circle>
	<circle cx="135.10" cy="357.78" data-y="3.69" data-x="1590192000" r="1" fill="white"><title>2020-05-23: 4</title></circle>
	<circle cx="136.63" cy="360.24" data-y="3.16" data-x="1590278400" r="1" fill="white"><title>2020-05-24: 3</title></circle>
	<circle cx="138.16" cy="358.60" data-y="3.52" data-x="1590364800" r="1" fill="white"><title>2020-05-25: 4</title></circle>
	<circle cx="139.69" cy="360.24" data-y="3.16" data-x="1590451200" r="1" fill="white"><title>2020-05-26: 3</title></circle>
	<circle cx="141.22" cy="359.42" data-y="3.34" data-x="1590537600" r="1" fill="white"><title>2020-05-27: 3</title></circle>
	<circle cx="142.75" cy="358.60" data-y="3.52" data-x="1590624000" r="1" fill="white"><title>2020-05-28: 4</title></circle>
	<circle cx="144.28" cy="363.52" data-y="2.46" data-x="1590710400" r="1" fill="white"><title>2020-05-29: 2</title></circle>
	<circle cx="145.81" cy="363.52" data-y="2.46" data-x="1590796800" r="1" fill="white"><title>2020-05-30: 2</title></circle>
	<circle cx="147.34" cy="362.70" data-y="2.64" data-x="1590883200" r="1" fill="white"><title>2020-05-31: 3</title></circle>
	<circle cx="148.87" cy="365.16" data-y="2.11" data-x="1590969600" r="1" fill="white"><title>2020-06-01: 2</title></circle>
	<circle cx="150.40" cy="365.16" data-y="2.11" data-x="1591056000" r="1" fill="white"><title>2020-06-02: 2</title></circle>
	<circle cx="151.92" cy="365.16" data-y="2.11" data-x="1591142400" r="1" fill="white"><title>2020-06-03: 2</title></circle>
	<circle cx="153.45" cy="366.80" data-y="1.76" data-x="1591228800" r="1" fill="white"><title>2020-06-04: 2</title></circle>
	<circle cx="154.98" cy="365.16" data-y="2.11" data-x="1591315200" r="1" fill="white"><title>2020-06-05: 2</title></circle>
	<circle cx="156.51" cy="367.62" data-y="1.58" data-x="1591401600" r="1" fill="white"><title>2020-06-06: 2</title></circle>
	<circle cx="158.04" cy="366.80" data-y="1.76" data-x="1591488000" r="1" fill="white"><title>2020-06-07: 2</title></circle>
	<circle cx="159.57" cy="364.34" data-y="2.29" data-x="1591574400" r="1" fill="white"><title>2020-06-08: 2</title></circle>
	<circle cx="161.10" cy="363.52" data-y="2.46" data-x="1591660800" r="1" fill="white"><title>2020-06-09: 2</title></circle>
	<circle cx="162.63" cy="365.16" data-y="2.11" data-x="1591747200" r="1" fill="white"><title>2020-06-10: 2</title></circle>
	<circle cx="164.16" cy="366.80" data-y="1.76" data-x="1591833600" r="1" fill="white"><title>2020-06-11: 2</title></circle>
	<circle cx="165.69" cy="366.80" data-y="1.76" data-x="1591920000" r="1" fill="white"><title>2020-06-12: 2</title></circle>
	<circle cx="167.22" cy="365.16" data-y="2.11" data-x="1592006400" r="1" fill="white"><title>2020-06-13: 2</title></circle>
	<circle cx="168.75" cy="367.62" data-y="1.58" data-x="1592092800" r="1" fill="white"><title>2020-06-14: 2</title></circle>
	<circle cx="170.27" cy="369.26" data-y="1.23" data-x="1592179200" r="1" fill="white"><title>2020-06-15: 1</title></circle>
	<circle cx="171.80" cy="369.26" data-y="1.23" data-x="1592265600" r="1" fill="white"><title>2020-06-16: 1</title></circle>
	<circle cx="173.33" cy="369.26" data-y="1.23" data-x="1592352000" r="1" fill="white"><title>2020-06-17: 1</title></circle>
	<circle cx="174.86" cy="368.44" data-y="1.41" data-x="1592438400" r="1" fill="white"><title>2020-06-18: 1</title></circle>
	<circle cx="176.39" cy="370.08" data-y="1.05" data-x="1592524800" r="1" fill="white"><title>2020-06-19: 1</title></circle>
	<circle cx="177.92" cy="371.72" data-y="0.70" data-x="1592611200" r="1" fill="white"><title>2020-06-20: 1</title></circle>
	<circle cx="179.45" cy="372.54" data-y="0.53" data-x="1592697600" r="1" fill="white"><title>2020-06-21: 1</title></circle>
	<circle cx="180.98" cy="373.36" data-y="0.35" data-x="1592784000" r="1" fill="white"><title>2020-06-22: 0</title></circle>
	<circle cx="182.51" cy="374.18" data-y="0.18" data-x="1592870400" r="1" fill="white"><title>2020-06-23: 0</title></circle>
	<circle cx="184.04" cy="374.18" data-y="0.18" data-x="1592956800" r="1" fill="white"><title>2020-06-24: 0</title></circle>
	<circle cx="185.57" cy="374.18" data-y="0.18" data-x="1593043200" r="1" fill="white"><title>2020-06-25: 0</title></circle>
	<circle cx="187.10" cy="374.18" data-y="0.18" data-x="1593129600" r="1" fill="white"><title>2020-06-26: 0</title></circle>
	<circle cx="188.63" cy="374.18" data-y="0.18" data-x="1593216000" r="1" fill="white"><title>2020-06-27: 0</title></circle>
	<circle cx="190.15" cy="374.18" data-y="0.18" data-x="1593302400" r="1" fill="white"><title>2020-06-28: 0</title></circle>
	<circle cx="191.68" cy="374.18" data-y="0.18" data-x="1593388800" r="1" fill="white"><title>2020-06-29: 0</title></circle>
	<circle cx="193.21" cy="373.36" data-y="0.35" data-x="1593475200" r="1" fill="white"><title>2020-06-30: 0</title></circle>
	<circle cx="194.74" cy="373.36" data-y="0.35" data-x="1593561600" r="1" fill="white"><title>2020-07-01: 0</title></circle>
	<circle cx="196.27" cy="374.18" data-y="0.18" data-x="1593648000" r="1" fill="white"><title>2020-07-02: 0</title></circle>
	<circle cx="197.80" cy="374.18" data-y="0.18" data-x="1593734400" r="1" fill="white"><title>2020-07-03: 0</title></circle>
	<circle cx="199.33" cy="373.36" data-y="0.35" data-x="1593820800" r="1" fill="white"><title>2020-07-04: 0</title></circle>
	<circle cx="200.86" cy="371.72" data-y="0.70" data-x="1593907200" r="1" fill="white"><title>2020-07-05: 1</title></circle>
	<circle cx="202.39" cy="371.72" data-y="0.70" data-x="1593993600" r="1" fill="white"><title>2020-07-06: 1</title></circle>
	<circle cx="203.92" cy="371.72" data-y="0.70" data-x="1594080000" r="1" fill="white"><title>2020-07-07: 1</title></circle>
	<circle cx="205.45" cy="371.72" data-y="0.70" data-x="1594166400" r="1" fill="white"><title>2020-07-08: 1</title></circle>
	<circle cx="206.98" cy="371.72" data-y="0.70" data-x="1594252800" r="1" fill="white"><title>2020-07-09: 1</title></circle>
	<circle cx="208.51" cy="370.90" data-y="0.88" data-x="1594339200" r="1" fill="white"><title>2020-07-10: 1</title></circle>
	<circle cx="210.03" cy="370.08" data-y="1.05" data-x="1594425600" r="1" fill="white"><title>2020-07-11: 1</title></circle>
	<circle cx="211.56" cy="363.52" data-y="2.46" data-x="1594512000" r="1" fill="white"><title>2020-07-12: 2</title></circle>
	<circle cx="213.09" cy="359.42" data-y="3.34" data-x="1594598400" r="1" fill="white"><title>2020-07-13: 3</title></circle>
	<circle cx="214.62" cy="357.78" data-y="3.69" data-x="1594684800" r="1" fill="white"><title>2020-07-14: 4</title></circle>
	<circle cx="216.15" cy="352.03" data-y="4.92" data-x="1594771200" r="1" fill="white"><title>2020-07-15: 5</title></circle>
	<circle cx="217.68" cy="348.75" data-y="5.63" data-x="1594857600" r="1" fill="white"><title>2020-07-16: 6</title></circle>
	<circle cx="219.21" cy="345.47" data-y="6.33" data-x="1594944000" r="1" fill="white"><title>2020-07-17: 6</title></circle>
	<circle cx="220.74" cy="343.01" data-y="6.86" data-x="1595030400" r="1" fill="white"><title>2020-07-18: 7</title></circle>
	<circle cx="222.27" cy="342.19" data-y="7.03" data-x="1595116800" r="1" fill="white"><title>2020-07-19: 7</title></circle>
	<circle cx="223.80" cy="345.47" data-y="6.33" data-x="1595203200" r="1" fill="white"><title>2020-07-20: 6</title></circle>
	<circle cx="225.33" cy="347.93" data-y="5.80" data-x="1595289600" r="1" fill="white"><title>2020-07-21: 6</title></circle>
	<circle cx="226.86" cy="352.03" data-y="4.92" data-x="1595376000" r="1" fill="white"><title>2020-07-22: 5</title></circle>
	<circle cx="228.38" cy="353.67" data-y="4.57" data-x="1595462400" r="1" fill="white"><title>2020-07-23: 5</title></circle>
	<circle cx="229.91" cy="356.13" data-y="4.04" data-x="1595548800" r="1" fill="white"><title>2020-07-24: 4</title></circle>
	<circle cx="231.44" cy="359.42" data-y="3.34" data-x="1595635200" r="1" fill="white"><title>2020-07-25: 3</title></circle>
	<circle cx="232.97" cy="365.98" data-y="1.93" data-x="1595721600" r="1" fill="white"><title>2020-07-26: 2</title></circle>
	<circle cx="234.50" cy="364.34" data-y="2.29" data-x="1595808000" r="1" fill="white"><title>2020-07-27: 2</title></circle>
	<circle cx="236.03" cy="362.70" data-y="2.64" data-x="1595894400" r="1" fill="white"><title>2020-07-28: 3</title></circle>
	<circle cx="237.56" cy="360.24" data-y="3.16" data-x="1595980800" r="1" fill="white"><title>2020-07-29: 3</title></circle>
	<circle cx="239.09" cy="359.42" data-y="3.34" data-x="1596067200" r="1" fill="white"><title>2020-07-30: 3</title></circle>
	<circle cx="240.62" cy="358.60" data-y="3.52" data-x="1596153600" r="1" fill="white"><title>2020-07-31: 4</title></circle>
	<circle cx="242.15" cy="354.49" data-y="4.40" data-x="1596240000" r="1" fill="white"><title>2020-08-01: 4</title></circle>
	<circle cx="243.68" cy="355.31" data-y="4.22" data-x="1596326400" r="1" fill="white"><title>2020-08-02: 4</title></circle>
	<circle cx="245.21" cy="356.13" data-y="4.04" data-x="1596412800" r="1" fill="white"><title>2020-08-03: 4</title></circle>
	<circle cx="246.74" cy="354.49" data-y="4.40" data-x="1596499200" r="1" fill="white"><title>2020-08-04: 4</title></circle>
	<circle cx="248.26" cy="354.49" data-y="4.40" data-x="1596585600" r="1" fill="white"><title>2020-08-05: 4</title></circle>
	<circle cx="249.79" cy="353.67" data-y="4.57" data-x="1596672000" r="1" fill="white"><title>2020-08-06: 5</title></circle>
	<circle cx="251.32" cy="347.11" data-y="5.98" data-x="1596758400" r="1" fill="white"><title>2020-08-07: 6</title></circle>
	<circle cx="252.85" cy="350.39" data-y="5.27" data-x="1596844800" r="1" fill="white"><title>2020-08-08: 5</title></circle>
	<circle cx="254.38" cy="347.93" data-y="5.80" data-x="1596931200" r="1" fill="white"><title>2020-08-09: 6</title></circle>
	<circle cx="255.91" cy="343.83" data-y="6.68" data-x="1597017600" r="1" fill="white"><title>2020-08-10: 7</title></circle>
	<circle cx="257.44" cy="346.29" data-y="6.15" data-x="1597104000" r="1" fill="white"><title>2020-08-11: 6</title></circle>
	<circle cx="258.97" cy="349.57" data-y="5.45" data-x="1597190400" r="1" fill="white"><title>2020-08-12: 5</title></circle>
	<circle cx="260.50" cy="351.21" data-y="5.10" data-x="1597276800" r="1" fill="white"><title>2020-08-13: 5</title></circle>
	<circle cx="262.03" cy="360.24" data-y="3.16" data-x="1597363200" r="1" fill="white"><title>2020-08-14: 3</title></circle>
	<circle cx="263.56" cy="358.60" data-y="3.52" data-x="1597449600" r="1" fill="white"><title>2020-08-15: 4</title></circle>
	<circle cx="265.09" cy="361.88" data-y="2.81" data-x="1597536000" r="1" fill="white"><title>2020-08-16: 3</title></circle>
	<circle cx="266.62" cy="365.98" data-y="1.93" data-x="1597622400" r="1" fill="white"><title>2020-08-17: 2</title></circle>
	<circle cx="268.14" cy="361.88" data-y="2.81" data-x="1597708800" r="1" fill="white"><title>2020-08-18: 3</title></circle>
	<circle cx="269.67" cy="361.06" data-y="2.99" data-x="1597795200" r="1" fill="white"><title>2020-08-19: 3</title></circle>
	<circle cx="271.20" cy="359.42" data-y="3.34" data-x="1597881600" r="1" fill="white"><title>2020-08-20: 3</title></circle>
	<circle cx="272.73" cy="357.78" data-y="3.69" data-x="1597968000" r="1" fill="white"><title>2020-08-21: 4</title></circle>
	<circle cx="274.26" cy="357.78" data-y="3.69" data-x="1598054400" r="1" fill="white"><title>2020-08-22: 4</title></circle>
	<circle cx="275.79" cy="354.49" data-y="4.40" data-x="1598140800" r="1" fill="white"><title>2020-08-23: 4</title></circle>
	<circle cx="277.32" cy="355.31" data-y="4.22" data-x="1598227200" r="1" fill="white"><title>2020-08-24: 4</title></circle>
	<circle cx="278.85" cy="358.60" data-y="3.52" data-x="1598313600" r="1" fill="white"><title>2020-08-25: 4</title></circle>
	<circle cx="280.38" cy="358.60" data-y="3.52" data-x="1598400000" r="1" fill="white"><title>2020-08-26: 4</title></circle>
	<circle cx="281.91" cy="361.06" data-y="2.99" data-x="1598486400" r="1" fill="white"><title>2020-08-27: 3</title></circle>
	<circle cx="283.44" cy="359.42" data-y="3.34" data-x="1598572800" r="1" fill="white"><title>2020-08-28: 3</title></circle>
	<circle cx="284.97" cy="356.96" data-y="3.87" data-x="1598659200" r="1" fill="white"><title>2020-08-29: 4</title></circle>
	<circle cx="286.49" cy="355.31" data-y="4.22" data-x="1598745600" r="1" fill="white"><title>2020-08-30: 4</title></circle>
	<circle cx="288.02" cy="346.29" data-y="6.15" data-x="1598832000" r="1" fill="white"><title>2020-08-31: 6</title></circle>
	<circle cx="289.55" cy="341.37" data-y="7.21" data-x="1598918400" r="1" fill="white"><title>2020-09-01: 7</title></circle>
	<circle cx="291.08" cy="332.35" data-y="9.14" data-x="1599004800" r="1" fill="white"><title>2020-09-02: 9</title></circle>
	<circle cx="292.61" cy="332.35" data-y="9.14" data-x="1599091200" r="1" fill="white"><title>2020-09-03: 9</title></circle>
	<circle cx="294.14" cy="321.69" data-y="11.43" data-x="1599177600" r="1" fill="white"><title>2020-09-04: 11</title></circle>
	<circle cx="295.67" cy="311.02" data-y="13.71" data-x="1599264000" r="1" fill="white"><title>2020-09-05: 14</title></circle>
	<circle cx="297.20" cy="307.74" data-y="14.42" data-x="1599350400" r="1" fill="white"><title>2020-09-06: 14</title></circle>
	<circle cx="298.73" cy="297.90" data-y="16.53" data-x="1599436800" r="1" fill="white"><title>2020-09-07: 17</title></circle>
	<circle cx="300.26" cy="290.52" data-y="18.11" data-x="1599523200" r="1" fill="white"><title>2020-09-08: 18</title></circle>
	<circle cx="301.79" cy="295.44" data-y="17.05" data-x="1599609600" r="1" fill="white"><title>2020-09-09: 17</title></circle>
	<circle cx="303.32" cy="286.42" data-y="18.99" data-x="1599696000" r="1" fill="white"><title>2020-09-10: 19</title></circle>
	<circle cx="304.85" cy="273.29" data-y="21.80" data-x="1599782400" r="1" fill="white"><title>2020-09-11: 22</title></circle>
	<circle cx="306.37" cy="274.93" data-y="21.45" data-x="1599868800" r="1" fill="white"><title>2020-09-12: 21</title></circle>
	<circle cx="307.90" cy="260.99" data-y="24.44" data-x="1599955200" r="1" fill="white"><title>2020-09-13: 24</title></circle>
	<circle cx="309.43" cy="262.63" data-y="24.09" data-x="1600041600" r="1" fill="white"><title>2020-09-14: 24</title></circle>
	<circle cx="310.96" cy="264.27" data-y="23.74" data-x="1600128000" r="1" fill="white"><title>2020-09-15: 24</title></circle>
	<circle cx="312.49" cy="247.04" data-y="27.43" data-x="1600214400" r="1" fill="white"><title>2020-09-16: 27</title></circle>
	<circle cx="314.02" cy="242.12" data-y="28.48" data-x="1600300800" r="1" fill="white"><title>2020-09-17: 28</title></circle>
	<circle cx="315.55" cy="253.61" data-y="26.02" data-x="1600387200" r="1" fill="white"><title>2020-09-18: 26</title></circle>
	<circle cx="317.08" cy="245.40" data-y="27.78" data-x="1600473600" r="1" fill="white"><title>2020-09-19: 28</title></circle>
	<circle cx="318.61" cy="249.51" data-y="26.90" data-x="1600560000" r="1" fill="white"><title>2020-09-20: 27</title></circle>
	<circle cx="320.14" cy="232.28" data-y="30.59" data-x="1600646400" r="1" fill="white"><title>2020-09-21: 31</title></circle>
	<circle cx="321.67" cy="224.08" data-y="32.35" data-x="1600732800" r="1" fill="white"><title>2020-09-22: 32</title></circle>
	<circle cx="323.20" cy="227.36" data-y="31.65" data-x="1600819200" r="1" fill="white"><title>2020-09-23: 32</title></circle>
	<circle cx="324.73" cy="220.80" data-y="33.05" data-x="1600905600" r="1" fill="white"><title>2020-09-24: 33</title></circle>
	<circle cx="326.25" cy="210.96" data-y="35.16" data-x="1600992000" r="1" fill="white"><title>2020-09-25: 35</title></circle>
	<circle cx="327.78" cy="199.47" data-y="37.63" data-x="1601078400" r="1" fill="white"><title>2020-09-26: 38</title></circle>
	<circle cx="329.31" cy="187.17" data-y="40.26" data-x="1601164800" r="1" fill="white"><title>2020-09-27: 40</title></circle>
	<circle cx="330.84" cy="194.55" data-y="38.68" data-x="1601251200" r="1" fill="white"><title>2020-09-28: 39</title></circle>
	<circle cx="332.37" cy="188.81" data-y="39.91" data-x="1601337600" r="1" fill="white"><title>2020-09-29: 40</title></circle>
	<circle cx="333.90" cy="182.25" data-y="41.32" data-x="1601424000" r="1" fill="white"><title>2020-09-30: 41</title></circle>
	<circle cx="335.43" cy="181.43" data-y="41.49" data-x="1601510400" r="1" fill="white"><title>2020-10-01: 41</title></circle>
	<circle cx="336.96" cy="169.94" data-y="43.96" data-x="1601596800" r="1" fill="white"><title>2020-10-02: 44</title></circle>
	<circle cx="338.49" cy="156.00" data-y="46.94" data-x="1601683200" r="1" fill="white"><title>2020-10-03: 47</title></circle>
	<circle cx="340.02" cy="159.28" data-y="46.24" data-x="1601769600" r="1" fill="white"><title>2020-10-04: 46</title></circle>
	<circle cx="341.55" cy="152.72" data-y="47.65" data-x="1601856000" r="1" fill="white"><title>2020-10-05: 48</title></circle>
	<circle cx="343.08" cy="161.74" data-y="45.71" data-x="1601942400" r="1" fill="white"><title>2020-10-06: 46</title></circle>
	<circle cx="344.60" cy="168.30" data-y="44.31" data-x="1602028800" r="1" fill="white"><title>2020-10-07: 44</title></circle>
	<circle cx="346.13" cy="157.64" data-y="46.59" data-x="1602115200" r="1" fill="white"><title>2020-10-08: 47</title></circle>
	<circle cx="347.66" cy="161.74" data-y="45.71" data-x="1602201600" r="1" fill="white"><title>2020-10-09: 46</title></circle>
	<circle cx="349.19" cy="169.94" data-y="43.96" data-x="1602288000" r="1" fill="white"><title>2020-10-10: 44</title></circle>
	<circle cx="350.72" cy="157.64" data-y="46.59" data-x="1602374400" r="1" fill="white"><title>2020-10-11: 47</title></circle>
	<circle cx="352.25" cy="158.46" data-y="46.42" data-x="1602460800" r="1" fill="white"><title>2020-10-12: 46</title></circle>
	<circle cx="353.78" cy="147.80" data-y="48.70" data-x="1602547200" r="1" fill="white"><title>2020-10-13: 49</title></circle>
	<circle cx="355.31" cy="135.49" data-y="51.34" data-x="1602633600" r="1" fill="white"><title>2020-10-14: 51</title></circle>
	<circle cx="356.84" cy="126.47" data-y="53.27" data-x="1602720000" r="1" fill="white"><title>2020-10-15: 53</title></circle>
	<circle cx="358.37" cy="91.20" data-y="60.83" data-x="1602806400" r="1" fill="white"><title>2020-10-16: 61</title></circle>
	<circle cx="359.90" cy="73.16" data-y="64.70" data-x="1602892800" r="1" fill="white"><title>2020-10-17: 65</title></circle>
	<circle cx="361.43" cy="55.93" data-y="68.39" data-x="1602979200" r="1" fill="white"><title>2020-10-18: 68</title></circle>
	<circle cx="362.96" cy="37.07" data-y="72.44" data-x="1603065600" r="1" fill="white"><title>2020-10-19: 72</title></circle>
	<circle cx="364.48" cy="16.56" data-y="76.83" data-x="1603152000" r="1" fill="white"><title>2020-10-20: 77</title></circle>
	<circle cx="366.01" cy="10.00" data-y="78.24" data-x="1603238400" r="1" fill="white"><title>2020-10-21: 78</title></circle>
	<circle cx="367.54" cy="17.38" data-y="76.66" data-x="1603324800" r="1" fill="white"><title>2020-10-22: 77</title></circle>
	<circle cx="369.07" cy="21.48" data-y="75.78" data-x="1603411200" r="1" fill="white"><title>2020-10-23: 76</title></circle>
	<circle cx="370.60" cy="33.79" data-y="73.14" data-x="1603497600" r="1" fill="white"><title>2020-10-24: 73</title></circle>
	<circle cx="372.13" cy="44.45" data-y="70.86" data-x="1603584000" r="1" fill="white"><title>2020-10-25: 71</title></circle>
	<circle cx="373.66" cy="55.93" data-y="68.39" data-x="1603670400" r="1" fill="white"><title>2020-10-26: 68</title></circle>
	<circle cx="375.19" cy="49.37" data-y="69.80" data-x="1603756800" r="1" fill="white"><title>2020-10-27: 70</title></circle>
	<circle cx="376.72" cy="51.83" data-y="69.27" data-x="1603843200" r="1" fill="white"><title>2020-10-28: 69</title></circle>
	<circle cx="378.25" cy="64.96" data-y="66.46" data-x="1603929600" r="1" fill="white"><title>2020-10-29: 66</title></circle>
	<circle cx="379.78" cy="64.96" data-y="66.46" data-x="1604016000" r="1" fill="white"><title>2020-10-30: 66</title></circle>
	<circle cx="381.31" cy="68.24" data-y="65.76" data-x="1604102400" r="1" fill="white"><title>2020-10-31: 66</title></circle>
	<circle cx="382.84" cy="71.52" data-y="65.05" data-x="1604188800" r="1" fill="white"><title>2020-11-01: 65</title></circle>
	<circle cx="384.36" cy="67.42" data-y="65.93" data-x="1604275200" r="1" fill="white"><title>2020-11-02: 66</title></circle>
	<circle cx="385.89" cy="90.38" data-y="61.01" data-x="1604361600" r="1" fill="white"><title>2020-11-03: 61</title></circle>
	<circle cx="387.42" cy="96.94" data-y="59.60" data-x="1604448000" r="1" fill="white"><title>2020-11-04: 60</title></circle>
	<circle cx="388.95" cy="87.92" data-y="61.54" data-x="1604534400" r="1" fill="white"><title>2020-11-05: 62</title></circle>
	<circle cx="390.48" cy="101.04" data-y="58.72" data-x="1604620800" r="1" fill="white"><title>2020-11-06: 59</title></circle>
	<circle cx="392.01" cy="110.89" data-y="56.61" data-x="1604707200" r="1" fill="white"><title>2020-11-07: 57</title></circle>
	<circle cx="393.54" cy="119.91" data-y="54.68" data-x="1604793600" r="1" fill="white"><title>2020-11-08: 55</title></circle>
	<circle cx="395.07" cy="118.27" data-y="55.03" data-x="1604880000" r="1" fill="white"><title>2020-11-09: 55</title></circle>
	<circle cx="396.60" cy="105.15" data-y="57.85" data-x="1604966400" r="1" fill="white"><title>2020-11-10: 58</title></circle>
	<circle cx="398.13" cy="105.15" data-y="57.85" data-x="1605052800" r="1" fill="white"><title>2020-11-11: 58</title></circle>
	<circle cx="399.66" cy="91.20" data-y="60.83" data-x="1605139200" r="1" fill="white"><title>2020-11-12: 61</title></circle>
	<circle cx="401.19" cy="78.08" data-y="63.65" data-x="1605225600" r="1" fill="white"><title>2020-11-13: 64</title></circle>
	<circle cx="402.71" cy="57.57" data-y="68.04" data-x="1605312000" r="1" fill="white"><title>2020-11-14: 68</title></circle>
	<circle cx="404.24" cy="48.55" data-y="69.98" data-x="1605398400" r="1" fill="white"><title>2020-11-15: 70</title></circle>
	<circle cx="405.77" cy="62.49" data-y="66.99" data-x="1605484800" r="1" fill="white"><title>2020-11-16: 67</title></circle>
	<circle cx="407.30" cy="83.82" data-y="62.42" data-x="1605571200" r="1" fill="white"><title>2020-11-17: 62</title></circle>
	<circle cx="408.83" cy="86.28" data-y="61.89" data-x="1605657600" r="1" fill="white"><title>2020-11-18: 62</title></circle>
	<circle cx="410.36" cy="103.51" data-y="58.20" data-x="1605744000" r="1" fill="white"><title>2020-11-19: 58</title></circle>
	<circle cx="411.89" cy="135.49" data-y="51.34" data-x="1605830400" r="1" fill="white"><title>2020-11-20: 51</title></circle>
	<circle cx="413.42" cy="171.58" data-y="43.60" data-x="1605916800" r="1" fill="white"><title>2020-11-21: 44</title></circle>
	<circle cx="414.95" cy="195.37" data-y="38.51" data-x="1606003200" r="1" fill="white"><title>2020-11-22: 39</title></circle>
	<circle cx="416.48" cy="197.83" data-y="37.98" data-x="1606089600" r="1" fill="white"><title>2020-11-23: 38</title></circle>
	<circle cx="418.01" cy="197.83" data-y="37.98" data-x="1606176000" r="1" fill="white"><title>2020-11-24: 38</title></circle>
	<circle cx="419.54" cy="206.03" data-y="36.22" data-x="1606262400" r="1" fill="white"><title>2020-11-25: 36</title></circle>
	<circle cx="421.07" cy="220.80" data-y="33.05" data-x="1606348800" r="1" fill="white"><title>2020-11-26: 33</title></circle>
	<circle cx="422.59" cy="233.10" data-y="30.42" data-x="1606435200" r="1" fill="white"><title>2020-11-27: 30</title></circle>
	<circle cx="424.12" cy="235.56" data-y="29.89" data-x="1606521600" r="1" fill="white"><title>2020-11-28: 30</title></circle>
	<circle cx="425.65" cy="232.28" data-y="30.59" data-x="1606608000" r="1" fill="white"><title>2020-11-29: 31</title></circle>
	<circle cx="427.18" cy="241.30" data-y="28.66" data-x="1606694400" r="1" fill="white"><title>2020-11-30: 29</title></circle>
	<circle cx="428.71" cy="254.43" data-y="25.85" data-x="1606780800" r="1" fill="white"><title>2020-12-01: 26</title></circle>
	<circle cx="430.24" cy="262.63" data-y="24.09" data-x="1606867200" r="1" fill="white"><title>2020-12-02: 24</title></circle>
	<circle cx="431.77" cy="262.63" data-y="24.09" data-x="1606953600" r="1" fill="white"><title>2020-12-03: 24</title></circle>
	<circle cx="433.30" cy="251.97" data-y="26.37" data-x="1607040000" r="1" fill="white"><title>2020-12-04: 26</title></circle>
	<circle cx="434.83" cy="249.51" data-y="26.90" data-x="1607126400" r="1" fill="white"><title>2020-12-05: 27</title></circle>
	<circle cx="436.36" cy="261.81" data-y="24.26" data-x="1607212800" r="1" fill="white"><title>2020-12-06: 24</title></circle>
	<circle cx="437.89" cy="269.19" data-y="22.68" data-x="1607299200" r="1" fill="white"><title>2020-12-07: 23</title></circle>
	<circle cx="439.42" cy="260.17" data-y="24.62" data-x="1607385600" r="1" fill="white"><title>2020-12-08: 25</title></circle>
	<circle cx="440.95" cy="246.22" data-y="27.60" data-x="1607472000" r="1" fill="white"><title>2020-12-09: 28</title></circle>
	<circle cx="442.47" cy="235.56" data-y="29.89" data-x="1607558400" r="1" fill="white"><title>2020-12-10: 30</title></circle>
	<circle cx="444.00" cy="216.70" data-y="33.93" data-x="1607644800" r="1" fill="white"><title>2020-12-11: 34</title></circle>
	<circle cx="445.53" cy="202.75" data-y="36.92" data-x="1607731200" r="1" fill="white"><title>2020-12-12: 37</title></circle>
	<circle cx="447.06" cy="184.71" data-y="40.79" data-x="1607817600" r="1" fill="white"><title>2020-12-13: 41</title></circle>
	<circle cx="448.59" cy="176.51" data-y="42.55" data-x="1607904000" r="1" fill="white"><title>2020-12-14: 43</title></circle>
	<circle cx="450.12" cy="174.87" data-y="42.90" data-x="1607990400" r="1" fill="white"><title>2020-12-15: 43</title></circle>
	<circle cx="451.65" cy="184.71" data-y="40.79" data-x="1608076800" r="1" fill="white"><title>2020-12-16: 41</title></circle>
	<circle cx="453.18" cy="188.81" data-y="39.91" data-x="1608163200" r="1" fill="white"><title>2020-12-17: 40</title></circle>
	<circle cx="454.71" cy="192.09" data-y="39.21" data-x="1608249600" r="1" fill="white"><title>2020-12-18: 39</title></circle>
	<circle cx="456.24" cy="188.81" data-y="39.91" data-x="1608336000" r="1" fill="white"><title>2020-12-19: 40</title></circle>
	<circle cx="457.77" cy="190.45" data-y="39.56" data-x="1608422400" r="1" fill="white"><title>2020-12-20: 40</title></circle>
	<circle cx="459.30" cy="196.19" data-y="38.33" data-x="1608508800" r="1" fill="white"><title>2020-12-21: 38</title></circle>
	<circle cx="460.82" cy="209.31" data-y="35.52" data-x="1608595200" r="1" fill="white"><title>2020-12-22: 36</title></circle>
	<circle cx="462.35" cy="195.37" data-y="38.51" data-x="1608681600" r="1" fill="white"><title>2020-12-23: 39</title></circle>
</g>
<g data-series="recent-cases" class="data-series">
	<path d="M 462.35,195.37L 463.88,187.99L 465.41,219.16L 466.94,233.37L 468.47,242.94L 470.00,238.64" id="Recent cases" class="line" stroke-width="1" stroke-linecap="round" stroke-dasharray="4,6" stroke-dashoffset="4"><title>Recent cases</title></path>
	<circle cx="462.35" cy="195.37" data-y="38.51" data-x="1608681600" r="2.5" fill="white"><title>2020-12-23: 39</title></circle>
	<circle cx="463.88" cy="187.99" data-y="40.09" data-x="1608768000" r="2.5" fill="white"><title>2020-12-24: 40</title></circle>
	<circle cx="465.41" cy="219.16" data-y="33.41" data-x="1608854400" r="2.5" fill="white"><title>2020-12-25: 33</title></circle>
	<circle cx="466.94" cy="233.37" data-y="30.36" data-x="1608940800" r="2.5" fill="white"><title>2020-12-26: 30</title></circle>
	<circle cx="468.47" cy="242.94" data-y="28.31" data-x="1609027200" r="2.5" fill="white"><title>2020-12-27: 28</title></circle>
	<circle cx="470.00" cy="238.64" data-y="29.23" data-x="1609113600" r="2.5" fill="white"><title>2020-12-28: 29</title></circle>
</g>
</svg>
