<svg width="480" height="400" viewBox="0 0 480 400" xmlns="http://www.w3.org/2000/svg" style="overflow:display" preserveAspectRatio="xMinYMin meet" overflow="visible">
<defs>
	<style>
	.data-series path.line { fill-opacity: 0; stroke: black; }
	.data-series path.line.dotted { stroke-dasharray: 12 20 }
	.data-series:hover path.line, .data-series.on path.line { stroke-width: 1; }
	.data-series:hover circle, .data-series.on circle { display: inline; }
	.graph-grid { font-family: "Helvetica Neue",Helvetica,Arial,"Lucida Grande",sans-serif; }
	.graph-grid line { stroke: black; stroke-width: 1; stroke-linecap: round; }
	.graph-grid.graph-grid-x text { text-anchor: middle; dominant-baseline: hanging; transform: translateY(10px); }
	.graph-grid.graph-grid-y text { text-anchor: end; dominant-baseline: middle; transform: translateX(-10px); }
	</style>
</defs>
<g class="graph-grid graph-grid-y">
	<line x1="25.00" y1="375.00" x2="470.00" y2="375.00" data-left="25"></line>
	<text x="35" y="375" text-anchor="end">0</text>
	<text x="35" y="199.080154559505" text-anchor="end">50</text>
	<text x="35" y="23.1603091190108" text-anchor="end">100</text>
	<text style="text-anchor:middle;dominant-baseline:hanging;font-weight:bold;transform: translateY(192.5px) rotate(-90deg);"></text>
</g>
<g class="graph-grid graph-grid-x">
	<line class="tick" x1="57.70" y1="375.00" x2="57.70" y2="380.00"></line>
	<text x="57.6996805111821" y="375" text-anchor="middle">A</text>
	<line class="tick" x1="100.35" y1="375.00" x2="100.35" y2="380.00"></line>
	<text x="100.351437699681" y="375" text-anchor="middle">M</text>
	<line class="tick" x1="144.42" y1="375.00" x2="144.42" y2="380.00"></line>
	<text x="144.424920127796" y="375" text-anchor="middle">J</text>
	<line class="tick" x1="187.08" y1="375.00" x2="187.08" y2="380.00"></line>
	<text x="187.076677316294" y="375" text-anchor="middle">J</text>
	<line class="tick" x1="231.15" y1="375.00" x2="231.15" y2="380.00"></line>
	<text x="231.150159744409" y="375" text-anchor="middle">A</text>
	<line class="tick" x1="275.22" y1="375.00" x2="275.22" y2="380.00"></line>
	<text x="275.223642172524" y="375" text-anchor="middle">S</text>
	<line class="tick" x1="317.88" y1="375.00" x2="317.88" y2="380.00"></line>
	<text x="317.875399361022" y="375" text-anchor="middle">O</text>
	<line class="tick" x1="361.95" y1="375.00" x2="361.95" y2="380.00"></line>
	<text x="361.948881789137" y="375" text-anchor="middle">N</text>
	<line class="tick" x1="404.60" y1="375.00" x2="404.60" y2="380.00"></line>
	<text x="404.600638977636" y="375" text-anchor="middle">D</text>
	<line class="tick" x1="448.67" y1="375.00" x2="448.67" y2="380.00"></line>
	<text x="448.674121405751" y="375" text-anchor="middle">J</text>
	<text style="text-anchor:middle;dominant-baseline:hanging;font-weight:bold;transform: translateY(192.5px) rotate(-90deg);"></text>
</g>
<g data-series="widespread" class="data-series">
	<path d="M 25.00,350.37L 470.00,350.37" id="E07000212-level-0" class="line" stroke-width="1" stroke-linecap="round" stroke-dasharray="3,3" fill-opacity="0.3" opacity="0.3"><title>Widespread</title></path>
</g>
<g data-series="substantial" class="data-series">
	<path d="M 25.00,360.93L 470.00,360.93" id="E07000212-level-1" class="line" stroke-width="1" stroke-linecap="round" stroke-dasharray="3,3" fill-opacity="0.3" opacity="0.3"><title>Substantial</title></path>
</g>
<g data-series="moderate" class="data-series">
	<path d="M 25.00,371.48L 470.00,371.48" id="E07000212-level-2" class="line" stroke-width="1" stroke-linecap="round" stroke-dasharray="3,3" fill-opacity="0.3" opacity="0.3"><title>Moderate</title></path>
</g>
<g data-series="new-cases" class="data-series">
	<path d="M 25.00,372.04L 26.42,372.63L 27.84,372.37L 29.27,372.18L 30.69,372.18L 32.11,369.92L 33.53,368.23L 34.95,368.79L 36.37,368.23L 37.80,368.23L 39.22,367.67L 40.64,367.67L 42.06,369.92L 43.48,371.05L 44.90,368.23L 46.33,365.41L 47.75,363.72L 49.17,363.15L 50.59,359.20L 52.01,358.64L 53.43,354.69L 54.86,356.38L 56.28,358.08L 57.70,359.77L 59.12,360.90L 60.54,362.59L 61.96,359.77L 63.39,360.33L 64.81,360.33L 66.23,357.51L 67.65,354.69L 69.07,351.31L 70.50,352.43L 71.92,351.87L 73.34,351.87L 74.76,349.05L 76.18,348.49L 77.60,349.05L 79.03,350.74L 80.45,350.18L 81.87,350.18L 83.29,351.87L 84.71,350.18L 86.13,347.36L 87.56,347.92L 88.98,346.79L 90.40,347.36L 91.82,350.74L 93.24,351.87L 94.66,355.82L 96.09,361.46L 97.51,358.64L 98.93,361.46L 100.35,360.33L 101.77,360.90L 103.19,359.20L 104.62,359.77L 106.04,362.02L 107.46,365.97L 108.88,364.28L 110.30,365.97L 111.73,361.46L 113.15,362.59L 114.57,363.72L 115.99,362.02L 117.41,361.46L 118.83,363.15L 120.26,363.15L 121.68,365.97L 123.10,367.10L 124.52,367.10L 125.94,368.79L 127.36,368.79L 128.79,369.36L 130.21,370.49L 131.63,371.62L 133.05,368.23L 134.47,365.97L 135.89,363.15L 137.32,364.28L 138.74,364.28L 140.16,364.28L 141.58,363.72L 143.00,367.67L 144.42,368.79L 145.85,371.62L 147.27,371.62L 148.69,371.62L 150.11,371.62L 151.53,372.18L 152.96,371.62L 154.38,371.05L 155.80,371.05L 157.22,371.05L 158.64,370.49L 160.06,369.36L 161.49,369.36L 162.91,369.92L 164.33,372.18L 165.75,371.62L 167.17,372.18L 168.59,371.62L 170.02,372.18L 171.44,371.62L 172.86,371.62L 174.28,371.62L 175.70,371.05L 177.12,371.05L 178.55,372.18L 179.97,372.74L 181.39,373.31L 182.81,373.31L 184.23,373.31L 185.65,373.87L 187.08,373.87L 188.50,373.31L 189.92,372.74L 191.34,373.31L 192.76,371.62L 194.19,371.05L 195.61,371.62L 197.03,371.62L 198.45,372.18L 199.87,372.74L 201.29,372.74L 202.72,374.44L 204.14,375.00L 205.56,374.44L 206.98,374.44L 208.40,374.44L 209.82,373.31L 211.25,372.74L 212.67,372.74L 214.09,372.74L 215.51,372.74L 216.93,372.74L 218.35,372.74L 219.78,372.74L 221.20,373.31L 222.62,373.31L 224.04,372.74L 225.46,372.18L 226.88,371.62L 228.31,371.62L 229.73,372.18L 231.15,372.18L 232.57,371.62L 233.99,372.18L 235.42,372.74L 236.84,373.31L 238.26,373.31L 239.68,373.31L 241.10,373.31L 242.52,373.31L 243.95,371.62L 245.37,371.05L 246.79,371.05L 248.21,370.49L 249.63,371.05L 251.05,370.49L 252.48,371.05L 253.90,370.49L 255.32,371.62L 256.74,370.49L 258.16,371.05L 259.58,370.49L 261.01,371.05L 262.43,370.49L 263.85,371.62L 265.27,371.05L 266.69,371.62L 268.12,371.62L 269.54,371.62L 270.96,370.49L 272.38,369.92L 273.80,370.49L 275.22,367.67L 276.65,367.10L 278.07,366.54L 279.49,364.85L 280.91,364.85L 282.33,363.72L 283.75,362.59L 285.18,362.59L 286.60,363.72L 288.02,359.77L 289.44,360.33L 290.86,359.77L 292.28,358.64L 293.71,359.77L 295.13,360.33L 296.55,360.33L 297.97,362.02L 299.39,360.33L 300.81,359.20L 302.24,359.77L 303.66,359.77L 305.08,360.90L 306.50,359.77L 307.92,361.46L 309.35,360.90L 310.77,359.77L 312.19,358.08L 313.61,352.43L 315.03,349.05L 316.45,349.05L 317.88,343.41L 319.30,341.72L 320.72,334.95L 322.14,329.87L 323.56,329.87L 324.98,330.43L 326.41,326.48L 327.83,328.74L 329.25,324.23L 330.67,325.92L 332.09,325.92L 333.51,323.66L 334.94,321.97L 336.36,320.84L 337.78,318.02L 339.20,319.15L 340.62,315.77L 342.04,310.69L 343.47,303.92L 344.89,294.33L 346.31,292.64L 347.73,293.76L 349.15,279.10L 350.58,280.79L 352.00,285.30L 353.42,290.38L 354.84,299.40L 356.26,300.53L 357.68,296.02L 359.11,310.69L 360.53,300.53L 361.95,301.66L 363.37,294.33L 364.79,288.12L 366.21,284.74L 367.64,277.97L 369.06,268.38L 370.48,270.63L 371.90,255.97L 373.32,257.09L 374.74,253.71L 376.17,255.40L 377.59,254.84L 379.01,254.84L 380.43,246.38L 381.85,258.79L 383.27,260.48L 384.70,267.25L 386.12,264.99L 387.54,274.58L 388.96,281.35L 390.38,297.71L 391.81,301.66L 393.23,302.23L 394.65,296.02L 396.07,293.76L 397.49,280.79L 398.91,276.28L 400.34,267.25L 401.76,247.50L 403.18,233.96L 404.60,227.19L 406.02,228.89L 407.44,241.86L 408.87,239.61L 410.29,245.25L 411.71,255.40L 413.13,266.68L 414.55,271.76L 415.97,264.99L 417.40,251.45L 418.82,242.99L 420.24,215.35L 421.66,200.68L 423.08,186.58L 424.50,176.42L 425.93,174.17L 427.35,167.40L 428.77,149.91L 430.19,151.04L 431.61,143.14L 433.04,140.88L 434.46,153.86L 435.88,131.29L 437.30,110.42L 438.72,123.39L 440.14,108.72L 441.57,73.18L 442.99,60.21L 444.41,45.54L 445.83,43.85L 447.25,48.93L 448.67,18.46L 450.10,10.00L 451.52,36.51L 452.94,37.64L 454.36,32.00L 455.78,46.67L 457.20,65.85L 458.63,90.67L 460.05,117.75L 461.47,144.83L 462.89,155.55" id="New cases" class="line" stroke-width="1" stroke-linecap="round"><title>New cases</title></path>
	<circle cx="25.00" cy="372.04" data-y="0.84" data-x="1583712000" r="1" fill="white"><title>2020-03-09: 1</title></circle>
	<circle cx="26.42" cy="372.63" data-y="0.67" data-x="1583798400" r="1" fill="white"><title>2020-03-10: 1</title></circle>
	<circle cx="27.84" cy="372.37" data-y="0.75" data-x="1583884800" r="1" fill="white"><title>2020-03-11: 1</title></circle>
	<circle cx="29.27" cy="372.18" data-y="0.80" data-x="1583971200" r="1" fill="white"><title>2020-03-12: 1</title></circle>
	<circle cx="30.69" cy="372.18" data-y="0.80" data-x="1584057600" r="1" fill="white"><title>2020-03-13: 1</title></circle>
	<circle cx="32.11" cy="369.92" data-y="1.44" data-x="1584144000" r="1" fill="white"><title>2020-03-14: 1</title></circle>
	<circle cx="33.53" cy="368.23" data-y="1.92" data-x="1584230400" r="1" fill="white"><title>2020-03-15: 2</title></circle>
	<circle cx="34.95" cy="368.79" data-y="1.76" data-x="1584316800" r="1" fill="white"><title>2020-03-16: 2</title></circle>
	<circle cx="36.37" cy="368.23" data-y="1.92" data-x="1584403200" r="1" fill="white"><title>2020-03-17: 2</title></circle>
	<circle cx="37.80" cy="368.23" data-y="1.92" data-x="1584489600" r="1" fill="white"><title>2020-03-18: 2</title></circle>
	<circle cx="39.22" cy="367.67" data-y="2.08" data-x="1584576000" r="1" fill="white"><title>2020-03-19: 2</title></circle>
	<circle cx="40.64" cy="367.67" data-y="2.08" data-x="1584662400" r="1" fill="white"><title>2020-03-20: 2</title></circle>
	<circle cx="42.06" cy="369.92" data-y="1.44" data-x="1584748800" r="1" fill="white"><title>2020-03-21: 1</title></circle>
	<circle cx="43.48" cy="371.05" data-y="1.12" data-x="1584835200" r="1" fill="white"><title>2020-03-22: 1</title></circle>
	<circle cx="44.90" cy="368.23" data-y="1.92" data-x="1584921600" r="1" fill="white"><title>2020-03-23: 2</title></circle>
	<circle cx="46.33" cy="365.41" data-y="2.73" data-x="1585008000" r="1" fill="white"><title>2020-03-24: 3</title></circle>
	<circle cx="47.75" cy="363.72" data-y="3.21" data-x="1585094400" r="1" fill="white"><title>2020-03-25: 3</title></circle>
	<circle cx="49.17" cy="363.15" data-y="3.37" data-x="1585180800" r="1" fill="white"><title>2020-03-26: 3</title></circle>
	<circle cx="50.59" cy="359.20" data-y="4.49" data-x="1585267200" r="1" fill="white"><title>2020-03-27: 4</title></circle>
	<circle cx="52.01" cy="358.64" data-y="4.65" data-x="1585353600" r="1" fill="white"><title>2020-03-28: 5</title></circle>
	<circle cx="53.43" cy="354.69" data-y="5.77" data-x="1585440000" r="1" fill="white"><title>2020-03-29: 6</title></circle>
	<circle cx="54.86" cy="356.38" data-y="5.29" data-x="1585526400" r="1" fill="white"><title>2020-03-30: 5</title></circle>
	<circle cx="56.28" cy="358.08" data-y="4.81" data-x="1585612800" r="1" fill="white"><title>2020-03-31: 5</title></circle>
	<circle cx="57.70" cy="359.77" data-y="4.33" data-x="1585699200" r="1" fill="white"><title>2020-04-01: 4</title></circle>
	<circle cx="59.12" cy="360.90" data-y="4.01" data-x="1585785600" r="1" fill="white"><title>2020-04-02: 4</title></circle>
	<circle cx="60.54" cy="362.59" data-y="3.53" data-x="1585872000" r="1" fill="white"><title>2020-04-03: 4</title></circle>
	<circle cx="61.96" cy="359.77" data-y="4.33" data-x="1585958400" r="1" fill="white"><title>2020-04-04: 4</title></circle>
	<circle cx="63.39" cy="360.33" data-y="4.17" data-x="1586044800" r="1" fill="white"><title>2020-04-05: 4</title></circle>
	<circle cx="64.81" cy="360.33" data-y="4.17" data-x="1586131200" r="1" fill="white"><title>2020-04-06: 4</title></circle>
	<circle cx="66.23" cy="357.51" data-y="4.97" data-x="1586217600" r="1" fill="white"><title>2020-04-07: 5</title></circle>
	<circle cx="67.65" cy="354.69" data-y="5.77" data-x="1586304000" r="1" fill="white"><title>2020-04-08: 6</title></circle>
	<circle cx="69.07" cy="351.31" data-y="6.73" data-x="1586390400" r="1" fill="white"><title>2020-04-09: 7</title></circle>
	<circle cx="70.50" cy="352.43" data-y="6.41" data-x="1586476800" r="1" fill="white"><title>2020-04-10: 6</title></circle>
	<circle cx="71.92" cy="351.87" data-y="6.57" data-x="1586563200" r="1" fill="white"><title>2020-04-11: 7</title></circle>
	<circle cx="73.34" cy="351.87" data-y="6.57" data-x="1586649600" r="1" fill="white"><title>2020-04-12: 7</title></circle>
	<circle cx="74.76" cy="349.05" data-y="7.38" data-x="1586736000" r="1" fill="white"><title>2020-04-13: 7</title></circle>
	<circle cx="76.18" cy="348.49" data-y="7.54" data-x="1586822400" r="1" fill="white"><title>2020-04-14: 8</title></circle>
	<circle cx="77.60" cy="349.05" data-y="7.38" data-x="1586908800" r="1" fill="white"><title>2020-04-15: 7</title></circle>
	<circle cx="79.03" cy="350.74" data-y="6.89" data-x="1586995200" r="1" fill="white"><title>2020-04-16: 7</title></circle>
	<circle cx="80.45" cy="350.18" data-y="7.05" data-x="1587081600" r="1" fill="white"><title>2020-04-17: 7</title></circle>
	<circle cx="81.87" cy="350.18" data-y="7.05" data-x="1587168000" r="1" fill="white"><title>2020-04-18: 7</title></circle>
	<circle cx="83.29" cy="351.87" data-y="6.57" data-x="1587254400" r="1" fill="white"><title>2020-04-19: 7</title></circle>
	<circle cx="84.71" cy="350.18" data-y="7.05" data-x="1587340800" r="1" fill="white"><title>2020-04-20: 7</title></circle>
	<circle cx="86.13" cy="347.36" data-y="7.86" data-x="1587427200" r="1" fill="white"><title>2020-04-21: 8</title></circle>
	<circle cx="87.56" cy="347.92" data-y="7.70" data-x="1587513600" r="1" fill="white"><title>2020-04-22: 8</title></circle>
	<circle cx="88.98" cy="346.79" data-y="8.02" data-x="1587600000" r="1" fill="white"><title>2020-04-23: 8</title></circle>
	<circle cx="90.40" cy="347.36" data-y="7.86" data-x="1587686400" r="1" fill="white"><title>2020-04-24: 8</title></circle>
	<circle cx="91.82" cy="350.74" data-y="6.89" data-x="1587772800" r="1" fill="white"><title>2020-04-25: 7</title></circle>
	<circle cx="93.24" cy="351.87" data-y="6.57" data-x="1587859200" r="1" fill="white"><title>2020-04-26: 7</title></circle>
	<circle cx="94.66" cy="355.82" data-y="5.45" data-x="1587945600" r="1" fill="white"><title>2020-04-27: 5</title></circle>
	<circle cx="96.09" cy="361.46" data-y="3.85" data-x="1588032000" r="1" fill="white"><title>2020-04-28: 4</title></circle>
	<circle cx="97.51" cy="358.64" data-y="4.65" data-x="1588118400" r="1" fill="white"><title>2020-04-29: 5</title></circle>
	<circle cx="98.93" cy="361.46" data-y="3.85" data-x="1588204800" r="1" fill="white"><title>2020-04-30: 4</title></circle>
	<circle cx="100.35" cy="360.33" data-y="4.17" data-x="1588291200" r="1" fill="white"><title>2020-05-01: 4</title></circle>
	<circle cx="101.77" cy="360.90" data-y="4.01" data-x="1588377600" r="1" fill="white"><title>2020-05-02: 4</title></circle>
	<circle cx="103.19" cy="359.20" data-y="4.49" data-x="1588464000" r="1" fill="white"><title>2020-05-03: 4</title></circle>
	<circle cx="104.62" cy="359.77" data-y="4.33" data-x="1588550400" r="1" fill="white"><title>2020-05-04: 4</title></circle>
	<circle cx="106.04" cy="362.02" data-y="3.69" data-x="1588636800" r="1" fill="white"><title>2020-05-05: 4</title></circle>
	<circle cx="107.46" cy="365.97" data-y="2.57" data-x="1588723200" r="1" fill="white"><title>2020-05-06: 3</title></circle>
	<circle cx="108.88" cy="364.28" data-y="3.05" data-x="1588809600" r="1" fill="white"><title>2020-05-07: 3</title></circle>
	<circle cx="110.30" cy="365.97" data-y="2.57" data-x="1588896000" r="1" fill="white"><title>2020-05-08: 3</title></circle>
	<circle cx="111.73" cy="361.46" data-y="3.85" data-x="1588982400" r="1" fill="white"><title>2020-05-09: 4</title></circle>
	<circle cx="113.15" cy="362.59" data-y="3.53" data-x="1589068800" r="1" fill="white"><title>2020-05-10: 4</title></circle>
	<circle cx="114.57" cy="363.72" data-y="3.21" data-x="1589155200" r="1" fill="white"><title>2020-05-11: 3</title></circle>
	<circle cx="115.99" cy="362.02" data-y="3.69" data-x="1589241600" r="1" fill="white"><title>2020-05-12: 4</title></circle>
	<circle cx="117.41" cy="361.46" data-y="3.85" data-x="1589328000" r="1" fill="white"><title>2020-05-13: 4</title></circle>
	<circle cx="118.83" cy="363.15" data-y="3.37" data-x="1589414400" r="1" fill="white"><title>2020-05-14: 3</title></circle>
	<circle cx="120.26" cy="363.15" data-y="3.37" data-x="1589500800" r="1" fill="white"><title>2020-05-15: 3</title></circle>
	<circle cx="121.68" cy="365.97" data-y="2.57" data-x="1589587200" r="1" fill="white"><title>2020-05-16: 3</title></circle>
	<circle cx="123.10" cy="367.10" data-y="2.24" data-x="1589673600" r="1" fill="white"><title>2020-05-17: 2</title></circle>
	<circle cx="124.52" cy="367.10" data-y="2.24" data-x="1589760000" r="1" fill="white"><title>2020-05-18: 2</title></circle>
	<circle cx="125.94" cy="368.79" data-y="1.76" data-x="1589846400" r="1" fill="white"><title>2020-05-19: 2</title></circle>
	<circle cx="127.36" cy="368.79" data-y="1.76" data-x="1589932800" r="1" fill="white"><title>2020-05-20: 2</title></circle>
	<circle cx="128.79" cy="369.36" data-y="1.60" data-x="1590019200" r="1" fill="white"><title>2020-05-21: 2</title></circle>
	<circle cx="130.21" cy="370.49" data-y="1.28" data-x="1590105600" r="1" fill="white"><title>2020-05-22: 1</title></circle>
	<circle cx="131.63" cy="371.62" data-y="0.96" data-x="1590192000" r="1" fill="white"><title>2020-05-23: 1</title></circle>
	<circle cx="133.05" cy="368.23" data-y="1.92" data-x="1590278400" r="1" fill="white"><title>2020-05-24: 2</title></circle>
	<circle cx="134.47" cy="365.97" data-y="2.57" data-x="1590364800" r="1" fill="white"><title>2020-05-25: 3</title></circle>
	<circle cx="135.89" cy="363.15" data-y="3.37" data-x="1590451200" r="1" fill="white"><title>2020-05-26: 3</title></circle>
	<circle cx="137.32" cy="364.28" data-y="3.05" data-x="1590537600" r="1" fill="white"><title>2020-05-27: 3</title></circle>
	<circle cx="138.74" cy="364.28" data-y="3.05" data-x="1590624000" r="1" fill="white"><title>2020-05-28: 3</title></circle>
	<circle cx="140.16" cy="364.28" data-y="3.05" data-x="1590710400" r="1" fill="white"><title>2020-05-29: 3</title></circle>
	<circle cx="141.58" cy="363.72" data-y="3.21" data-x="1590796800" r="1" fill="white"><title>2020-05-30: 3</title></circle>
	<circle cx="143.00" cy="367.67" data-y="2.08" data-x="1590883200" r="1" fill="white"><title>2020-05-31: 2</title></circle>
	<circle cx="144.42" cy="368.79" data-y="1.76" data-x="1590969600" r="1" fill="white"><title>2020-06-01: 2</title></circle>
	<circle cx="145.85" cy="371.62" data-y="0.96" data-x="1591056000" r="1" fill="white"><title>2020-06-02: 1</title></circle>
	<circle cx="147.27" cy="371.62" data-y="0.96" data-x="1591142400" r="1" fill="white"><title>2020-06-03: 1</title></circle>
	<circle cx="148.69" cy="371.62" data-y="0.96" data-x="1591228800" r="1" fill="white"><title>2020-06-04: 1</title></circle>
	<circle cx="150.11" cy="371.62" data-y="0.96" data-x="1591315200" r="1" fill="white"><title>2020-06-05: 1</title></circle>
	<circle cx="151.53" cy="372.18" data-y="0.80" data-x="1591401600" r="1" fill="white"><title>2020-06-06: 1</title></circle>
	<circle cx="152.96" cy="371.62" data-y="0.96" data-x="1591488000" r="1" fill="white"><title>2020-06-07: 1</title></circle>
	<circle cx="154.38" cy="371.05" data-y="1.12" data-x="1591574400" r="1" fill="white"><title>2020-06-08: 1</title></circle>
	<circle cx="155.80" cy="371.05" data-y="1.12" data-x="1591660800" r="1" fill="white"><title>2020-06-09: 1</title></circle>
	<circle cx="157.22" cy="371.05" data-y="1.12" data-x="1591747200" r="1" fill="white"><title>2020-06-10: 1</title></circle>
	<circle cx="158.64" cy="370.49" data-y="1.28" data-x="1591833600" r="1" fill="white"><title>2020-06-11: 1</title></circle>
	<circle cx="160.06" cy="369.36" data-y="1.60" data-x="1591920000" r="1" fill="white"><title>2020-06-12: 2</title></circle>
	<circle cx="161.49" cy="369.36" data-y="1.60" data-x="1592006400" r="1" fill="white"><title>2020-06-13: 2</title></circle>
	<circle cx="162.91" cy="369.92" data-y="1.44" data-x="1592092800" r="1" fill="white"><title>2020-06-14: 1</title></circle>
	<circle cx="164.33" cy="372.18" data-y="0.80" data-x="1592179200" r="1" fill="white"><title>2020-06-15: 1</title></circle>
	<circle cx="165.75" cy="371.62" data-y="0.96" data-x="1592265600" r="1" fill="white"><title>2020-06-16: 1</title></circle>
	<circle cx="167.17" cy="372.18" data-y="0.80" data-x="1592352000" r="1" fill="white"><title>2020-06-17: 1</title></circle>
	<circle cx="168.59" cy="371.62" data-y="0.96" data-x="1592438400" r="1" fill="white"><title>2020-06-18: 1</title></circle>
	<circle cx="170.02" cy="372.18" data-y="0.80" data-x="1592524800" r="1" fill="white"><title>2020-06-19: 1</title></circle>
	<circle cx="171.44" cy="371.62" data-y="0.96" data-x="1592611200" r="1" fill="white"><title>2020-06-20: 1</title></circle>
	<circle cx="172.86" cy="371.62" data-y="0.96" data-x="1592697600" r="1" fill="white"><title>2020-06-21: 1</title></circle>
	<circle cx="174.28" cy="371.62" data-y="0.96" data-x="1592784000" r="1" fill="white"><title>2020-06-22: 1</title></circle>
	<circle cx="175.70" cy="371.05" data-y="1.12" data-x="1592870400" r="1" fill="white"><title>2020-06-23: 1</title></circle>
	<circle cx="177.12" cy="371.05" data-y="1.12" data-x="1592956800" r="1" fill="white"><title>2020-06-24: 1</title></circle>
	<circle cx="178.55" cy="372.18" data-y="0.80" data-x="1593043200" r="1" fill="white"><title>2020-06-25: 1</title></circle>
	<circle cx="179.97" cy="372.74" data-y="0.64" data-x="1593129600" r="1" fill="white"><title>2020-06-26: 1</title></circle>
	<circle cx="181.39" cy="373.31" data-y="0.48" data-x="1593216000" r="1" fill="white"><title>2020-06-27: 0</title></circle>
	<circle cx="182.81" cy="373.31" data-y="0.48" data-x="1593302400" r="1" fill="white"><title>2020-06-28: 0</title></circle>
	<circle cx="184.23" cy="373.31" data-y="0.48" data-x="1593388800" r="1" fill="white"><title>2020-06-29: 0</title></circle>
	<circle cx="185.65" cy="373.87" data-y="0.32" data-x="1593475200" r="1" fill="white"><title>2020-06-30: 0</title></circle>
	<circle cx="187.08" cy="373.87" data-y="0.32" data-x="1593561600" r="1" fill="white"><title>2020-07-01: 0</title></circle>
	<circle cx="188.50" cy="373.31" data-y="0.48" data-x="1593648000" r="1" fill="white"><title>2020-07-02: 0</title></circle>
	<circle cx="189.92" cy="372.74" data-y="0.64" data-x="1593734400" r="1" fill="white"><title>2020-07-03: 1</title></circle>
	<circle cx="191.34" cy="373.31" data-y="0.48" data-x="1593820800" r="1" fill="white"><title>2020-07-04: 0</title></circle>
	<circle cx="192.76" cy="371.62" data-y="0.96" data-x="1593907200" r="1" fill="white"><title>2020-07-05: 1</title></circle>
	<circle cx="194.19" cy="371.05" data-y="1.12" data-x="1593993600" r="1" fill="white"><title>2020-07-06: 1</title></circle>
	<circle cx="195.61" cy="371.62" data-y="0.96" data-x="1594080000" r="1" fill="white"><title>2020-07-07: 1</title></circle>
	<circle cx="197.03" cy="371.62" data-y="0.96" data-x="1594166400" r="1" fill="white"><title>2020-07-08: 1</title></circle>
	<circle cx="198.45" cy="372.18" data-y="0.80" data-x="1594252800" r="1" fill="white"><title>2020-07-09: 1</title></circle>
	<circle cx="199.87" cy="372.74" data-y="0.64" data-x="1594339200" r="1" fill="white"><title>2020-07-10: 1</title></circle>
	<circle cx="201.29" cy="372.74" data-y="0.64" data-x="1594425600" r="1" fill="white"><title>2020-07-11: 1</title></circle>
	<circle cx="202.72" cy="374.44" data-y="0.16" data-x="1594512000" r="1" fill="white"><title>2020-07-12: 0</title></circle>
	<circle cx="204.14" cy="375.00" data-y="0.00" data-x="1594598400" r="1" fill="white"><title>2020-07-13: 0</title></circle>
	<circle cx="205.56" cy="374.44" data-y="0.16" data-x="1594684800" r="1" fill="white"><title>2020-07-14: 0</title></circle>
	<circle cx="206.98" cy="374.44" data-y="0.16" data-x="1594771200" r="1" fill="white"><title>2020-07-15: 0</title></circle>
	<circle cx="208.40" cy="374.44" data-y="0.16" data-x="1594857600" r="1" fill="white"><title>2020-07-16: 0</title></circle>
	<circle cx="209.82" cy="373.31" data-y="0.48" data-x="1594944000" r="1" fill="white"><title>2020-07-17: 0</title></circle>
	<circle cx="211.25" cy="372.74" data-y="0.64" data-x="1595030400" r="1" fill="white"><title>2020-07-18: 1</title></circle>
	<circle cx="212.67" cy="372.74" data-y="0.64" data-x="1595116800" r="1" fill="white"><title>2020-07-19: 1</title></circle>
	<circle cx="214.09" cy="372.74" data-y="0.64" data-x="1595203200" r="1" fill="white"><title>2020-07-20: 1</title></circle>
	<circle cx="215.51" cy="372.74" data-y="0.64" data-x="1595289600" r="1" fill="white"><title>2020-07-21: 1</title></circle>
	<circle cx="216.93" cy="372.74" data-y="0.64" data-x="1595376000" r="1" fill="white"><title>2020-07-22: 1</title></circle>
	<circle cx="218.35" cy="372.74" data-y="0.64" data-x="1595462400" r="1" fill="white"><title>2020-07-23: 1</title></circle>
	<circle cx="219.78" cy="372.74" data-y="0.64" data-x="1595548800" r="1" fill="white"><title>2020-07-24: 1</title></circle>
	<circle cx="221.20" cy="373.31" data-y="0.48" data-x="1595635200" r="1" fill="white"><title>2020-07-25: 0</title></circle>
	<circle cx="222.62" cy="373.31" data-y="0.48" data-x="1595721600" r="1" fill="white"><title>2020-07-26: 0</title></circle>
	<circle cx="224.04" cy="372.74" data-y="0.64" data-x="1595808000" r="1" fill="white"><title>2020-07-27: 1</title></circle>
	<circle cx="225.46" cy="372.18" data-y="0.80" data-x="1595894400" r="1" fill="white"><title>2020-07-28: 1</title></circle>
	<circle cx="226.88" cy="371.62" data-y="0.96" data-x="1595980800" r="1" fill="white"><title>2020-07-29: 1</title></circle>
	<circle cx="228.31" cy="371.62" data-y="0.96" data-x="1596067200" r="1" fill="white"><title>2020-07-30: 1</title></circle>
	<circle cx="229.73" cy="372.18" data-y="0.80" data-x="1596153600" r="1" fill="white"><title>2020-07-31: 1</title></circle>
	<circle cx="231.15" cy="372.18" data-y="0.80" data-x="1596240000" r="1" fill="white"><title>2020-08-01: 1</title></circle>
	<circle cx="232.57" cy="371.62" data-y="0.96" data-x="1596326400" r="1" fill="white"><title>2020-08-02: 1</title></circle>
	<circle cx="233.99" cy="372.18" data-y="0.80" data-x="1596412800" r="1" fill="white"><title>2020-08-03: 1</title></circle>
	<circle cx="235.42" cy="372.74" data-y="0.64" data-x="1596499200" r="1" fill="white"><title>2020-08-04: 1</title></circle>
	<circle cx="236.84" cy="373.31" data-y="0.48" data-x="1596585600" r="1" fill="white"><title>2020-08-05: 0</title></circle>
	<circle cx="238.26" cy="373.31" data-y="0.48" data-x="1596672000" r="1" fill="white"><title>2020-08-06: 0</title></circle>
	<circle cx="239.68" cy="373.31" data-y="0.48" data-x="1596758400" r="1" fill="white"><title>2020-08-07: 0</title></circle>
	<circle cx="241.10" cy="373.31" data-y="0.48" data-x="1596844800" r="1" fill="white"><title>2020-08-08: 0</title></circle>
	<circle cx="242.52" cy="373.31" data-y="0.48" data-x="1596931200" r="1" fill="white"><title>2020-08-09: 0</title></circle>
	<circle cx="243.95" cy="371.62" data-y="0.96" data-x="1597017600" r="1" fill="white"><title>2020-08-10: 1</title></circle>
	<circle cx="245.37" cy="371.05" data-y="1.12" data-x="1597104000" r="1" fill="white"><title>2020-08-11: 1</title></circle>
	<circle cx="246.79" cy="371.05" data-y="1.12" data-x="1597190400" r="1" fill="white"><title>2020-08-12: 1</title></circle>
	<circle cx="248.21" cy="370.49" data-y="1.28" data-x="1597276800" r="1" fill="white"><title>2020-08-13: 1</title></circle>
	<circle cx="249.63" cy="371.05" data-y="1.12" data-x="1597363200" r="1" fill="white"><title>2020-08-14: 1</title></circle>
	<circle cx="251.05" cy="370.49" data-y="1.28" data-x="1597449600" r="1" fill="white"><title>2020-08-15: 1</title></circle>
	<circle cx="252.48" cy="371.05" data-y="1.12" data-x="1597536000" r="1" fill="white"><title>2020-08-16: 1</title></circle>
	<circle cx="253.90" cy="370.49" data-y="1.28" data-x="1597622400" r="1" fill="white"><title>2020-08-17: 1</title></circle>
	<circle cx="255.32" cy="371.62" data-y="0.96" data-x="1597708800" r="1" fill="white"><title>2020-08-18: 1</title></circle>
	<circle cx="256.74" cy="370.49" data-y="1.28" data-x="1597795200" r="1" fill="white"><title>2020-08-19: 1</title></circle>
	<circle cx="258.16" cy="371.05" data-y="1.12" data-x="1597881600" r="1" fill="white"><title>2020-08-20: 1</title></circle>
	<circle cx="259.58" cy="370.49" data-y="1.28" data-x="1597968000" r="1" fill="white"><title>2020-08-21: 1</title></circle>
	<circle cx="261.01" cy="371.05" data-y="1.12" data-x="1598054400" r="1" fill="white"><title>2020-08-22: 1</title></circle>
	<circle cx="262.43" cy="370.49" data-y="1.28" data-x="1598140800" r="1" fill="white"><title>2020-08-23: 1</title></circle>
	<circle cx="263.85" cy="371.62" data-y="0.96" data-x="1598227200" r="1" fill="white"><title>2020-08-24: 1</title></circle>
	<circle cx="265.27" cy="371.05" data-y="1.12" data-x="1598313600" r="1" fill="white"><title>2020-08-25: 1</title></circle>
	<circle cx="266.69" cy="371.62" data-y="0.96" data-x="1598400000" r="1" fill="white"><title>2020-08-26: 1</title></circle>
	<circle cx="268.12" cy="371.62" data-y="0.96" data-x="1598486400" r="1" fill="white"><title>2020-08-27: 1</title></circle>
	<circle cx="269.54" cy="371.62" data-y="0.96" data-x="1598572800" r="1" fill="white"><title>2020-08-28: 1</title></circle>
	<circle cx="270.96" cy="370.49" data-y="1.28" data-x="1598659200" r="1" fill="white"><title>2020-08-29: 1</title></circle>
	<circle cx="272.38" cy="369.92" data-y="1.44" data-x="1598745600" r="1" fill="white"><title>2020-08-30: 1</title></circle>
	<circle cx="273.80" cy="370.49" data-y="1.28" data-x="1598832000" r="1" fill="white"><title>2020-08-31: 1</title></circle>
	<circle cx="275.22" cy="367.67" data-y="2.08" data-x="1598918400" r="1" fill="white"><title>2020-09-01: 2</title></circle>
	<circle cx="276.65" cy="367.10" data-y="2.24" data-x="1599004800" r="1" fill="white"><title>2020-09-02: 2</title></circle>
	<circle cx="278.07" cy="366.54" data-y="2.41" data-x="1599091200" r="1" fill="white"><title>2020-09-03: 2</title></circle>
	<circle cx="279.49" cy="364.85" data-y="2.89" data-x="1599177600" r="1" fill="white"><title>2020-09-04: 3</title></circle>
	<circle cx="280.91" cy="364.85" data-y="2.89" data-x="1599264000" r="1" fill="white"><title>2020-09-05: 3</title></circle>
	<circle cx="282.33" cy="363.72" data-y="3.21" data-x="1599350400" r="1" fill="white"><title>2020-09-06: 3</title></circle>
	<circle cx="283.75" cy="362.59" data-y="3.53" data-x="1599436800" r="1" fill="white"><title>2020-09-07: 4</title></circle>
	<circle cx="285.18" cy="362.59" data-y="3.53" data-x="1599523200" r="1" fill="white"><title>2020-09-08: 4</title></circle>
	<circle cx="286.60" cy="363.72" data-y="3.21" data-x="1599609600" r="1" fill="white"><title>2020-09-09: 3</title></circle>
	<circle cx="288.02" cy="359.77" data-y="4.33" data-x="1599696000" r="1" fill="white"><title>2020-09-10: 4</title></circle>
	<circle cx="289.44" cy="360.33" data-y="4.17" data-x="1599782400" r="1" fill="white"><title>2020-09-11: 4</title></circle>
	<circle cx="290.86" cy="359.77" data-y="4.33" data-x="1599868800" r="1" fill="white"><title>2020-09-12: 4</title></circle>
	<circle cx="292.28" cy="358.64" data-y="4.65" data-x="1599955200" r="1" fill="white"><title>2020-09-13: 5</title></circle>
	<circle cx="293.71" cy="359.77" data-y="4.33" data-x="1600041600" r="1" fill="white"><title>2020-09-14: 4</title></circle>
	<circle cx="295.13" cy="360.33" data-y="4.17" data-x="1600128000" r="1" fill="white"><title>2020-09-15: 4</title></circle>
	<circle cx="296.55" cy="360.33" data-y="4.17" data-x="1600214400" r="1" fill="white"><title>2020-09-16: 4</title></circle>
	<circle cx="297.97" cy="362.02" data-y="3.69" data-x="1600300800" r="1" fill="white"><title>2020-09-17: 4</title></circle>
	<circle cx="299.39" cy="360.33" data-y="4.17" data-x="1600387200" r="1" fill="white"><title>2020-09-18: 4</title></circle>
	<circle cx="300.81" cy="359.20" data-y="4.49" data-x="1600473600" r="1" fill="white"><title>2020-09-19: 4</title></circle>
	<circle cx="302.24" cy="359.77" data-y="4.33" data-x="1600560000" r="1" fill="white"><title>2020-09-20: 4</title></circle>
	<circle cx="303.66" cy="359.77" data-y="4.33" data-x="1600646400" r="1" fill="white"><title>2020-09-21: 4</title></circle>
	<circle cx="305.08" cy="360.90" data-y="4.01" data-x="1600732800" r="1" fill="white"><title>2020-09-22: 4</title></circle>
	<circle cx="306.50" cy="359.77" data-y="4.33" data-x="1600819200" r="1" fill="white"><title>2020-09-23: 4</title></circle>
	<circle cx="307.92" cy="361.46" data-y="3.85" data-x="1600905600" r="1" fill="white"><title>2020-09-24: 4</title></circle>
	<circle cx="309.35" cy="360.90" data-y="4.01" data-x="1600992000" r="1" fill="white"><title>2020-09-25: 4</title></circle>
	<circle cx="310.77" cy="359.77" data-y="4.33" data-x="1601078400" r="1" fill="white"><title>2020-09-26: 4</title></circle>
	<circle cx="312.19" cy="358.08" data-y="4.81" data-x="1601164800" r="1" fill="white"><title>2020-09-27: 5</title></circle>
	<circle cx="313.61" cy="352.43" data-y="6.41" data-x="1601251200" r="1" fill="white"><title>2020-09-28: 6</title></circle>
	<circle cx="315.03" cy="349.05" data-y="7.38" data-x="1601337600" r="1" fill="white"><title>2020-09-29: 7</title></circle>
	<circle cx="316.45" cy="349.05" data-y="7.38" data-x="1601424000" r="1" fill="white"><title>2020-09-30: 7</title></circle>
	<circle cx="317.88" cy="343.41" data-y="8.98" data-x="1601510400" r="1" fill="white"><title>2020-10-01: 9</title></circle>
	<circle cx="319.30" cy="341.72" data-y="9.46" data-x="1601596800" r="1" fill="white"><title>2020-10-02: 9</title></circle>
	<circle cx="320.72" cy="334.95" data-y="11.38" data-x="1601683200" r="1" fill="white"><title>2020-10-03: 11</title></circle>
	<circle cx="322.14" cy="329.87" data-y="12.83" data-x="1601769600" r="1" fill="white"><title>2020-10-04: 13</title></circle>
	<circle cx="323.56" cy="329.87" data-y="12.83" data-x="1601856000" r="1" fill="white"><title>2020-10-05: 13</title></circle>
	<circle cx="324.98" cy="330.43" data-y="12.67" data-x="1601942400" r="1" fill="white"><title>2020-10-06: 13</title></circle>
	<circle cx="326.41" cy="326.48" data-y="13.79" data-x="1602028800" r="1" fill="white"><title>2020-10-07: 14</title></circle>
	<circle cx="327.83" cy="328.74" data-y="13.15" data-x="1602115200" r="1" fill="white"><title>2020-10-08: 13</title></circle>
	<circle cx="329.25" cy="324.23" data-y="14.43" data-x="1602201600" r="1" fill="white"><title>2020-10-09: 14</title></circle>
	<circle cx="330.67" cy="325.92" data-y="13.95" data-x="1602288000" r="1" fill="white"><title>2020-10-10: 14</title></circle>
	<circle cx="332.09" cy="325.92" data-y="13.95" data-x="1602374400" r="1" fill="white"><title>2020-10-11: 14</title></circle>
	<circle cx="333.51" cy="323.66" data-y="14.59" data-x="1602460800" r="1" fill="white"><title>2020-10-12: 15</title></circle>
	<circle cx="334.94" cy="321.97" data-y="15.07" data-x="1602547200" r="1" fill="white"><title>2020-10-13: 15</title></circle>
	<circle cx="336.36" cy="320.84" data-y="15.39" data-x="1602633600" r="1" fill="white"><title>2020-10-14: 15</title></circle>
	<circle cx="337.78" cy="318.02" data-y="16.19" data-x="1602720000" r="1" fill="white"><title>2020-10-15: 16</title></circle>
	<circle cx="339.20" cy="319.15" data-y="15.87" data-x="1602806400" r="1" fill="white"><title>2020-10-16: 16</title></circle>
	<circle cx="340.62" cy="315.77" data-y="16.84" data-x="1602892800" r="1" fill="white"><title>2020-10-17: 17</title></circle>
	<circle cx="342.04" cy="310.69" data-y="18.28" data-x="1602979200" r="1" fill="white"><title>2020-10-18: 18</title></circle>
	<circle cx="343.47" cy="303.92" data-y="20.20" data-x="1603065600" r="1" fill="white"><title>2020-10-19: 20</title></circle>
	<circle cx="344.89" cy="294.33" data-y="22.93" data-x="1603152000" r="1" fill="white"><title>2020-10-20: 23</title></circle>
	<circle cx="346.31" cy="292.64" data-y="23.41" data-x="1603238400" r="1" fill="white"><title>2020-10-21: 23</title></circle>
	<circle cx="347.73" cy="293.76" data-y="23.09" data-x="1603324800" r="1" fill="white"><title>2020-10-22: 23</title></circle>
	<circle cx="349.15" cy="279.10" data-y="27.26" data-x="1603411200" r="1" fill="white"><title>2020-10-23: 27</title></circle>
	<circle cx="350.58" cy="280.79" data-y="26.78" data-x="1603497600" r="1" fill="white"><title>2020-10-24: 27</title></circle>
	<circle cx="352.00" cy="285.30" data-y="25.49" data-x="1603584000" r="1" fill="white"><title>2020-10-25: 25</title></circle>
	<circle cx="353.42" cy="290.38" data-y="24.05" data-x="1603670400" r="1" fill="white"><title>2020-10-26: 24</title></circle>
	<circle cx="354.84" cy="299.40" data-y="21.49" data-x="1603756800" r="1" fill="white"><title>2020-10-27: 21</title></circle>
	<circle cx="356.26" cy="300.53" data-y="21.16" data-x="1603843200" r="1" fill="white"><title>2020-10-28: 21</title></circle>
	<circle cx="357.68" cy="296.02" data-y="22.45" data-x="1603929600" r="1" fill="white"><title>2020-10-29: 22</title></circle>
	<circle cx="359.11" cy="310.69" data-y="18.28" data-x="1604016000" r="1" fill="white"><title>2020-10-30: 18</title></circle>
	<circle cx="360.53" cy="300.53" data-y="21.16" data-x="1604102400" r="1" fill="white"><title>2020-10-31: 21</title></circle>
	<circle cx="361.95" cy="301.66" data-y="20.84" data-x="1604188800" r="1" fill="white"><title>2020-11-01: 21</title></circle>
	<circle cx="363.37" cy="294.33" data-y="22.93" data-x="1604275200" r="1" fill="white"><title>2020-11-02: 23</title></circle>
	<circle cx="364.79" cy="288.12" data-y="24.69" data-x="1604361600" r="1" fill="white"><title>2020-11-03: 25</title></circle>
	<circle cx="366.21" cy="284.74" data-y="25.65" data-x="1604448000" r="1" fill="white"><title>2020-11-04: 26</title></circle>
	<circle cx="367.64" cy="277.97" data-y="27.58" data-x="1604534400" r="1" fill="white"><title>2020-11-05: 28</title></circle>
	<circle cx="369.06" cy="268.38" data-y="30.30" data-x="1604620800" r="1" fill="white"><title>2020-11-06: 30</title></circle>
	<circle cx="370.48" cy="270.63" data-y="29.66" data-x="1604707200" r="1" fill="white"><title>2020-11-07: 30</title></circle>
	<circle cx="371.90" cy="255.97" data-y="33.83" data-x="1604793600" r="1" fill="white"><title>2020-11-08: 34</title></circle>
	<circle cx="373.32" cy="257.09" data-y="33.51" data-x="1604880000" r="1" fill="white"><title>2020-11-09: 34</title></circle>
	<circle cx="374.74" cy="253.71" data-y="34.47" data-x="1604966400" r="1" fill="white"><title>2020-11-10: 34</title></circle>
	<circle cx="376.17" cy="255.40" data-y="33.99" data-x="1605052800" r="1" fill="white"><title>2020-11-11: 34</title></circle>
	<circle cx="377.59" cy="254.84" data-y="34.15" data-x="1605139200" r="1" fill="white"><title>2020-11-12: 34</title></circle>
	<circle cx="379.01" cy="254.84" data-y="34.15" data-x="1605225600" r="1" fill="white"><title>2020-11-13: 34</title></circle>
	<circle cx="380.43" cy="246.38" data-y="36.56" data-x="1605312000" r="1" fill="white"><title>2020-11-14: 37</title></circle>
	<circle cx="381.85" cy="258.79" data-y="33.03" data-x="1605398400" r="1" fill="white"><title>2020-11-15: 33</title></circle>
	<circle cx="383.27" cy="260.48" data-y="32.55" data-x="1605484800" r="1" fill="white"><title>2020-11-16: 33</title></circle>
	<circle cx="384.70" cy="267.25" data-y="30.63" data-x="1605571200" r="1" fill="white"><title>2020-11-17: 31</title></circle>
	<circle cx="386.12" cy="264.99" data-y="31.27" data-x="1605657600" r="1" fill="white"><title>2020-11-18: 31</title></circle>
	<circle cx="387.54" cy="274.58" data-y="28.54" data-x="1605744000" r="1" fill="white"><title>2020-11-19: 29</title></circle>
	<circle cx="388.96" cy="281.35" data-y="26.62" data-x="1605830400" r="1" fill="white"><title>2020-11-20: 27</title></circle>
	<circle cx="390.38" cy="297.71" data-y="21.97" data-x="1605916800" r="1" fill="white"><title>2020-11-21: 22</title></circle>
	<circle cx="391.81" cy="301.66" data-y="20.84" data-x="1606003200" r="1" fill="white"><title>2020-11-22: 21</title></circle>
	<circle cx="393.23" cy="302.23" data-y="20.68" data-x="1606089600" r="1" fill="white"><title>2020-11-23: 21</title></circle>
	<circle cx="394.65" cy="296.02" data-y="22.45" data-x="1606176000" r="1" fill="white"><title>2020-11-24: 22</title></circle>
	<circle cx="396.07" cy="293.76" data-y="23.09" data-x="1606262400" r="1" fill="white"><title>2020-11-25: 23</title></circle>
	<circle cx="397.49" cy="280.79" data-y="26.78" data-x="1606348800" r="1" fill="white"><title>2020-11-26: 27</title></circle>
	<circle cx="398.91" cy="276.28" data-y="28.06" data-x="1606435200" r="1" fill="white"><title>2020-11-27: 28</title></circle>
	<circle cx="400.34" cy="267.25" data-y="30.63" data-x="1606521600" r="1" fill="white"><title>2020-11-28: 31</title></circle>
	<circle cx="401.76" cy="247.50" data-y="36.24" data-x="1606608000" r="1" fill="white"><title>2020-11-29: 36</title></circle>
	<circle cx="403.18" cy="233.96" data-y="40.09" data-x="1606694400" r="1" fill="white"><title>2020-11-30: 40</title></circle>
	<circle cx="404.60" cy="227.19" data-y="42.01" data-x="1606780800" r="1" fill="white"><title>2020-12-01: 42</title></circle>
	<circle cx="406.02" cy="228.89" data-y="41.53" data-x="1606867200" r="1" fill="white"><title>2020-12-02: 42</title></circle>
	<circle cx="407.44" cy="241.86" data-y="37.84" data-x="1606953600" r="1" fill="white"><title>2020-12-03: 38</title></circle>
	<circle cx="408.87" cy="239.61" data-y="38.48" data-x="1607040000" r="1" fill="white"><title>2020-12-04: 38</title></circle>
	<circle cx="410.29" cy="245.25" data-y="36.88" data-x="1607126400" r="1" fill="white"><title>2020-12-05: 37</title></circle>
	<circle cx="411.71" cy="255.40" data-y="33.99" data-x="1607212800" r="1" fill="white"><title>2020-12-06: 34</title></circle>
	<circle cx="413.13" cy="266.68" data-y="30.79" data-x="1607299200" r="1" fill="white"><title>2020-12-07: 31</title></circle>
	<circle cx="414.55" cy="271.76" data-y="29.34" data-x="1607385600" r="1" fill="white"><title>2020-12-08: 29</title></circle>
	<circle cx="415.97" cy="264.99" data-y="31.27" data-x="1607472000" r="1" fill="white"><title>2020-12-09: 31</title></circle>
	<circle cx="417.40" cy="251.45" data-y="35.11" data-x="1607558400" r="1" fill="white"><title>2020-12-10: 35</title></circle>
	<circle cx="418.82" cy="242.99" data-y="37.52" data-x="1607644800" r="1" fill="white"><title>2020-12-11: 38</title></circle>
	<circle cx="420.24" cy="215.35" data-y="45.38" data-x="1607731200" r="1" fill="white"><title>2020-12-12: 45</title></circle>
	<circle cx="421.66" cy="200.68" data-y="49.55" data-x="1607817600" r="1" fill="white"><title>2020-12-13: 50</title></circle>
	<circle cx="423.08" cy="186.58" data-y="53.55" data-x="1607904000" r="1" fill="white"><title>2020-12-14: 54</title></circle>
	<circle cx="424.50" cy="176.42" data-y="56.44" data-x="1607990400" r="1" fill="white"><title>2020-12-15: 56</title></circle>
	<circle cx="425.93" cy="174.17" data-y="57.08" data-x="1608076800" r="1" fill="white"><title>2020-12-16: 57</title></circle>
	<circle cx="427.35" cy="167.40" data-y="59.01" data-x="1608163200" r="1" fill="white"><title>2020-12-17: 59</title></circle>
	<circle cx="428.77" cy="149.91" data-y="63.98" data-x="1608249600" r="1" fill="white"><title>2020-12-18: 64</title></circle>
	<circle cx="430.19" cy="151.04" data-y="63.66" data-x="1608336000" r="1" fill="white"><title>2020-12-19: 64</title></circle>
	<circle cx="431.61" cy="143.14" data-y="65.90" data-x="1608422400" r="1" fill="white"><title>2020-12-20: 66</title></circle>
	<circle cx="433.04" cy="140.88" data-y="66.54" data-x="1608508800" r="1" fill="white"><title>2020-12-21: 67</title></circle>
	<circle cx="434.46" cy="153.86" data-y="62.85" data-x="1608595200" r="1" fill="white"><title>2020-12-22: 63</title></circle>
	<circle cx="435.88" cy="131.29" data-y="69.27" data-x="1608681600" r="1" fill="white"><title>2020-12-23: 69</title></circle>
	<circle cx="437.30" cy="110.42" data-y="75.20" data-x="1608768000" r="1" fill="white"><title>2020-12-24: 75</title></circle>
	<circle cx="438.72" cy="123.39" data-y="71.51" data-x="1608854400" r="1" fill="white"><title>2020-12-25: 72</title></circle>
	<circle cx="440.14" cy="108.72" data-y="75.68" data-x="1608940800" r="1" fill="white"><title>2020-12-26: 76</title></circle>
	<circle cx="441.57" cy="73.18" data-y="85.78" data-x="1609027200" r="1" fill="white"><title>2020-12-27: 86</title></circle>
	<circle cx="442.99" cy="60.21" data-y="89.47" data-x="1609113600" r="1" fill="white"><title>2020-12-28: 89</title></circle>
	<circle cx="444.41" cy="45.54" data-y="93.64" data-x="1609200000" r="1" fill="white"><title>2020-12-29: 94</title></circle>
	<circle cx="445.83" cy="43.85" data-y="94.12" data-x="1609286400" r="1" fill="white"><title>2020-12-30: 94</title></circle>
	<circle cx="447.25" cy="48.93" data-y="92.68" data-x="1609372800" r="1" fill="white"><title>2020-12-31: 93</title></circle>
	<circle cx="448.67" cy="18.46" data-y="101.34" data-x="1609459200" r="1" fill="white"><title>2021-01-01: 101</title></circle>
	<circle cx="450.10" cy="10.00" data-y="103.74" data-x="1609545600" r="1" fill="white"><title>2021-01-02: 104</title></circle>
	<circle cx="451.52" cy="36.51" data-y="96.20" data-x="1609632000" r="1" fill="white"><title>2021-01-03: 96</title></circle>
	<circle cx="452.94" cy="37.64" data-y="95.88" data-x="1609718400" r="1" fill="white"><title>2021-01-04: 96</title></circle>
	<circle cx="454.36" cy="32.00" data-y="97.49" data-x="1609804800" r="1" fill="white"><title>2021-01-05: 97</title></circle>
	<circle cx="455.78" cy="46.67" data-y="93.32" data-x="1609891200" r="1" fill="white"><title>2021-01-06: 93</title></circle>
	<circle cx="457.20" cy="65.85" data-y="87.87" data-x="1609977600" r="1" fill="white"><title>2021-01-07: 88</title></circle>
	<circle cx="458.63" cy="90.67" data-y="80.81" data-x="1610064000" r="1" fill="white"><title>2021-01-08: 81</title></circle>
	<circle cx="460.05" cy="117.75" data-y="73.12" data-x="1610150400" r="1" fill="white"><title>2021-01-09: 73</title></circle>
	<circle cx="461.47" cy="144.83" data-y="65.42" data-x="1610236800" r="1" fill="white"><title>2021-01-10: 65</title></circle>
	<circle cx="462.89" cy="155.55" data-y="62.37" data-x="1610323200" r="1" fill="white"><title>2021-01-11: 62</title></circle>
</g>
<g data-series="recent-cases" class="data-series">
	<path d="M 462.89,155.55L 464.31,167.96L 465.73,196.17L 467.16,195.98L 468.58,212.30L 470.00,235.80" id="Recent cases" class="line" stroke-width="1" stroke-linecap="round" stroke-dasharray="4,6" stroke-dashoffset="4"><title>Recent cases</title></path>
	<circle cx="462.89" cy="155.55" data-y="62.37" data-x="1610323200" r="2.5" fill="white"><title>2021-01-11: 62</title></circle>
	<circle cx="464.31" cy="167.96" data-y="58.85" data-x="1610409600" r="2.5" fill="white"><title>2021-01-12: 59</title></circle>
	<circle cx="465.73" cy="196.17" data-y="50.83" data-x="1610496000" r="2.5" fill="white"><title>2021-01-13: 51</title></circle>
	<circle cx="467.16" cy="195.98" data-y="50.88" data-x="1610582400" r="2.5" fill="white"><title>2021-01-14: 51</title></circle>
	<circle cx="468.58" cy="212.30" data-y="46.24" data-x="1610668800" r="2.5" fill="white"><title>2021-01-15: 46</title></circle>
	<circle cx="470.00" cy="235.80" data-y="39.56" data-x="1610755200" r="2.5" fill="white"><title>2021-01-16: 40</title></circle>
</g>
</svg>
