<svg width="480" height="400" viewBox="0 0 480 400" xmlns="http://www.w3.org/2000/svg" style="overflow:display" preserveAspectRatio="xMinYMin meet" overflow="visible">
<defs>
	<style>
	.data-series path.line { fill-opacity: 0; stroke: black; }
	.data-series path.line.dotted { stroke-dasharray: 12 20 }
	.data-series:hover path.line, .data-series.on path.line { stroke-width: 1; }
	.data-series:hover circle, .data-series.on circle { display: inline; }
	.graph-grid { font-family: "Helvetica Neue",Helvetica,Arial,"Lucida Grande",sans-serif; }
	.graph-grid line { stroke: black; stroke-width: 1; stroke-linecap: round; }
	.graph-grid.graph-grid-x text { text-anchor: middle; dominant-baseline: hanging; transform: translateY(10px); }
	.graph-grid.graph-grid-y text { text-anchor: end; dominant-baseline: middle; transform: translateX(-10px); }
	</style>
</defs>
<g class="graph-grid graph-grid-y">
	<line x1="25.00" y1="375.00" x2="470.00" y2="375.00" data-left="25"></line>
	<text x="35" y="375" text-anchor="end">0</text>
	<text x="35" y="235.731914691943" text-anchor="end">20</text>
	<text x="35" y="96.4638293838863" text-anchor="end">40</text>
	<text style="text-anchor:middle;dominant-baseline:hanging;font-weight:bold;transform: translateY(192.5px) rotate(-90deg);"></text>
</g>
<g class="graph-grid graph-grid-x">
	<line class="tick" x1="69.32" y1="375.00" x2="69.32" y2="380.00"></line>
	<text x="69.3227091633466" y="375" text-anchor="middle">A</text>
	<line class="tick" x1="122.51" y1="375.00" x2="122.51" y2="380.00"></line>
	<text x="122.509960159363" y="375" text-anchor="middle">M</text>
	<line class="tick" x1="177.47" y1="375.00" x2="177.47" y2="380.00"></line>
	<text x="177.470119521912" y="375" text-anchor="middle">J</text>
	<line class="tick" x1="230.66" y1="375.00" x2="230.66" y2="380.00"></line>
	<text x="230.657370517928" y="375" text-anchor="middle">J</text>
	<line class="tick" x1="285.62" y1="375.00" x2="285.62" y2="380.00"></line>
	<text x="285.617529880478" y="375" text-anchor="middle">A</text>
	<line class="tick" x1="340.58" y1="375.00" x2="340.58" y2="380.00"></line>
	<text x="340.577689243028" y="375" text-anchor="middle">S</text>
	<line class="tick" x1="393.76" y1="375.00" x2="393.76" y2="380.00"></line>
	<text x="393.764940239044" y="375" text-anchor="middle">O</text>
	<line class="tick" x1="448.73" y1="375.00" x2="448.73" y2="380.00"></line>
	<text x="448.725099601594" y="375" text-anchor="middle">N</text>
	<text style="text-anchor:middle;dominant-baseline:hanging;font-weight:bold;transform: translateY(192.5px) rotate(-90deg);"></text>
</g>
<g data-series="widespread" class="data-series">
	<path d="M 25.00,326.26L 470.00,326.26" id="E07000172-level-0" class="line" stroke-width="1" stroke-linecap="round" stroke-dasharray="3,3" fill-opacity="0.3" opacity="0.3"><title>Widespread</title></path>
</g>
<g data-series="substantial" class="data-series">
	<path d="M 25.00,347.15L 470.00,347.15" id="E07000172-level-1" class="line" stroke-width="1" stroke-linecap="round" stroke-dasharray="3,3" fill-opacity="0.3" opacity="0.3"><title>Substantial</title></path>
</g>
<g data-series="moderate" class="data-series">
	<path d="M 25.00,368.04L 470.00,368.04" id="E07000172-level-2" class="line" stroke-width="1" stroke-linecap="round" stroke-dasharray="3,3" fill-opacity="0.3" opacity="0.3"><title>Moderate</title></path>
</g>
<g data-series="new-cases" class="data-series">
	<path d="M 25.00,371.97L 26.77,372.58L 28.55,369.95L 30.32,370.68L 32.09,370.68L 33.86,370.68L 35.64,369.81L 37.41,370.68L 39.18,368.95L 40.96,369.81L 42.73,368.08L 44.50,367.22L 46.27,365.49L 48.05,365.49L 49.82,362.89L 51.59,362.89L 53.37,361.16L 55.14,356.84L 56.91,353.38L 58.69,349.05L 60.46,347.32L 62.23,348.19L 64.00,343.86L 65.78,345.59L 67.55,345.59L 69.32,349.05L 71.10,351.65L 72.87,348.19L 74.64,343.86L 76.41,342.13L 78.19,334.35L 79.96,337.81L 81.73,336.08L 83.51,333.48L 85.28,333.48L 87.05,330.02L 88.82,332.62L 90.60,334.35L 92.37,333.48L 94.14,330.89L 95.92,331.75L 97.69,327.43L 99.46,332.62L 101.24,330.02L 103.01,325.70L 104.78,317.91L 106.55,321.37L 108.33,325.70L 110.10,322.24L 111.87,319.64L 113.65,311.86L 115.42,318.78L 117.19,324.83L 118.96,323.10L 120.74,319.64L 122.51,332.62L 124.28,334.35L 126.06,348.19L 127.83,348.19L 129.60,347.32L 131.37,347.32L 133.15,349.92L 134.92,345.59L 136.69,343.00L 138.47,339.54L 140.24,341.27L 142.01,339.54L 143.78,343.86L 145.56,344.73L 147.33,347.32L 149.10,348.19L 150.88,348.19L 152.65,350.78L 154.42,355.97L 156.20,354.24L 157.97,353.38L 159.74,355.11L 161.51,359.43L 163.29,363.76L 165.06,362.03L 166.83,364.62L 168.61,365.49L 170.38,367.22L 172.15,368.08L 173.92,365.49L 175.70,366.35L 177.47,366.35L 179.24,362.89L 181.02,362.03L 182.79,362.03L 184.56,356.84L 186.33,362.03L 188.11,362.03L 189.88,363.76L 191.65,367.22L 193.43,368.95L 195.20,368.08L 196.97,372.41L 198.75,370.68L 200.52,370.68L 202.29,371.54L 204.06,370.68L 205.84,370.68L 207.61,371.54L 209.38,372.41L 211.16,374.14L 212.93,374.14L 214.70,374.14L 216.47,373.27L 218.25,372.41L 220.02,372.41L 221.79,372.41L 223.57,371.54L 225.34,370.68L 227.11,369.81L 228.88,371.54L 230.66,372.41L 232.43,372.41L 234.20,370.68L 235.98,371.54L 237.75,371.54L 239.52,371.54L 241.29,371.54L 243.07,371.54L 244.84,370.68L 246.61,371.54L 248.39,371.54L 250.16,371.54L 251.93,372.41L 253.71,372.41L 255.48,372.41L 257.25,372.41L 259.02,372.41L 260.80,372.41L 262.57,372.41L 264.34,372.41L 266.12,371.54L 267.89,369.81L 269.66,370.68L 271.43,371.54L 273.21,371.54L 274.98,372.41L 276.75,372.41L 278.53,373.27L 280.30,375.00L 282.07,375.00L 283.84,375.00L 285.62,374.14L 287.39,374.14L 289.16,373.27L 290.94,372.41L 292.71,372.41L 294.48,372.41L 296.25,371.54L 298.03,372.41L 299.80,370.68L 301.57,369.81L 303.35,368.08L 305.12,368.08L 306.89,368.08L 308.67,366.35L 310.44,366.35L 312.21,367.22L 313.98,366.35L 315.76,366.35L 317.53,364.62L 319.30,363.76L 321.08,364.62L 322.85,363.76L 324.62,362.03L 326.39,363.76L 328.17,365.49L 329.94,366.35L 331.71,360.30L 333.49,360.30L 335.26,349.92L 337.03,344.73L 338.80,340.40L 340.58,337.81L 342.35,330.89L 344.12,334.35L 345.90,324.83L 347.67,330.02L 349.44,330.02L 351.22,334.35L 352.99,330.89L 354.76,336.94L 356.53,336.94L 358.31,345.59L 360.08,345.59L 361.85,349.92L 363.63,349.05L 365.40,352.51L 367.17,346.46L 368.94,340.40L 370.72,335.21L 372.49,337.81L 374.26,336.94L 376.04,324.83L 377.81,320.51L 379.58,318.78L 381.35,314.45L 383.13,311.86L 384.90,298.02L 386.67,273.80L 388.45,260.83L 390.22,230.56L 391.99,202.88L 393.76,176.07L 395.54,144.93L 397.31,112.93L 399.08,88.71L 400.86,77.46L 402.63,66.22L 404.40,65.36L 406.18,75.73L 407.95,61.90L 409.72,59.30L 411.49,67.09L 413.27,62.76L 415.04,67.09L 416.81,65.36L 418.59,60.17L 420.36,40.27L 422.13,26.43L 423.90,18.65L 425.68,10.00L 427.45,12.59L 429.22,22.97L 431.00,29.89L 432.77,35.08L 434.54,55.84L 436.31,59.30L 438.09,74.00L 439.86,69.68L 441.63,64.49L 443.41,65.36L 445.18,57.57L 446.95,57.57L 448.73,75.73L 450.50,74.87L 452.27,90.44L 454.04,93.03L 455.82,88.71L 457.59,121.58L 459.36,132.82L 461.14,124.17" id="New cases" class="line" stroke-width="1" stroke-linecap="round"><title>New cases</title></path>
	<circle cx="25.00" cy="371.97" data-y="0.43" data-x="1583539200" r="1" fill="white"><title>2020-03-07: 0</title></circle>
	<circle cx="26.77" cy="372.58" data-y="0.35" data-x="1583625600" r="1" fill="white"><title>2020-03-08: 0</title></circle>
	<circle cx="28.55" cy="369.95" data-y="0.72" data-x="1583712000" r="1" fill="white"><title>2020-03-09: 1</title></circle>
	<circle cx="30.32" cy="370.68" data-y="0.62" data-x="1583798400" r="1" fill="white"><title>2020-03-10: 1</title></circle>
	<circle cx="32.09" cy="370.68" data-y="0.62" data-x="1583884800" r="1" fill="white"><title>2020-03-11: 1</title></circle>
	<circle cx="33.86" cy="370.68" data-y="0.62" data-x="1583971200" r="1" fill="white"><title>2020-03-12: 1</title></circle>
	<circle cx="35.64" cy="369.81" data-y="0.75" data-x="1584057600" r="1" fill="white"><title>2020-03-13: 1</title></circle>
	<circle cx="37.41" cy="370.68" data-y="0.62" data-x="1584144000" r="1" fill="white"><title>2020-03-14: 1</title></circle>
	<circle cx="39.18" cy="368.95" data-y="0.87" data-x="1584230400" r="1" fill="white"><title>2020-03-15: 1</title></circle>
	<circle cx="40.96" cy="369.81" data-y="0.75" data-x="1584316800" r="1" fill="white"><title>2020-03-16: 1</title></circle>
	<circle cx="42.73" cy="368.08" data-y="0.99" data-x="1584403200" r="1" fill="white"><title>2020-03-17: 1</title></circle>
	<circle cx="44.50" cy="367.22" data-y="1.12" data-x="1584489600" r="1" fill="white"><title>2020-03-18: 1</title></circle>
	<circle cx="46.27" cy="365.49" data-y="1.37" data-x="1584576000" r="1" fill="white"><title>2020-03-19: 1</title></circle>
	<circle cx="48.05" cy="365.49" data-y="1.37" data-x="1584662400" r="1" fill="white"><title>2020-03-20: 1</title></circle>
	<circle cx="49.82" cy="362.89" data-y="1.74" data-x="1584748800" r="1" fill="white"><title>2020-03-21: 2</title></circle>
	<circle cx="51.59" cy="362.89" data-y="1.74" data-x="1584835200" r="1" fill="white"><title>2020-03-22: 2</title></circle>
	<circle cx="53.37" cy="361.16" data-y="1.99" data-x="1584921600" r="1" fill="white"><title>2020-03-23: 2</title></circle>
	<circle cx="55.14" cy="356.84" data-y="2.61" data-x="1585008000" r="1" fill="white"><title>2020-03-24: 3</title></circle>
	<circle cx="56.91" cy="353.38" data-y="3.11" data-x="1585094400" r="1" fill="white"><title>2020-03-25: 3</title></circle>
	<circle cx="58.69" cy="349.05" data-y="3.73" data-x="1585180800" r="1" fill="white"><title>2020-03-26: 4</title></circle>
	<circle cx="60.46" cy="347.32" data-y="3.97" data-x="1585267200" r="1" fill="white"><title>2020-03-27: 4</title></circle>
	<circle cx="62.23" cy="348.19" data-y="3.85" data-x="1585353600" r="1" fill="white"><title>2020-03-28: 4</title></circle>
	<circle cx="64.00" cy="343.86" data-y="4.47" data-x="1585440000" r="1" fill="white"><title>2020-03-29: 4</title></circle>
	<circle cx="65.78" cy="345.59" data-y="4.22" data-x="1585526400" r="1" fill="white"><title>2020-03-30: 4</title></circle>
	<circle cx="67.55" cy="345.59" data-y="4.22" data-x="1585612800" r="1" fill="white"><title>2020-03-31: 4</title></circle>
	<circle cx="69.32" cy="349.05" data-y="3.73" data-x="1585699200" r="1" fill="white"><title>2020-04-01: 4</title></circle>
	<circle cx="71.10" cy="351.65" data-y="3.35" data-x="1585785600" r="1" fill="white"><title>2020-04-02: 3</title></circle>
	<circle cx="72.87" cy="348.19" data-y="3.85" data-x="1585872000" r="1" fill="white"><title>2020-04-03: 4</title></circle>
	<circle cx="74.64" cy="343.86" data-y="4.47" data-x="1585958400" r="1" fill="white"><title>2020-04-04: 4</title></circle>
	<circle cx="76.41" cy="342.13" data-y="4.72" data-x="1586044800" r="1" fill="white"><title>2020-04-05: 5</title></circle>
	<circle cx="78.19" cy="334.35" data-y="5.84" data-x="1586131200" r="1" fill="white"><title>2020-04-06: 6</title></circle>
	<circle cx="79.96" cy="337.81" data-y="5.34" data-x="1586217600" r="1" fill="white"><title>2020-04-07: 5</title></circle>
	<circle cx="81.73" cy="336.08" data-y="5.59" data-x="1586304000" r="1" fill="white"><title>2020-04-08: 6</title></circle>
	<circle cx="83.51" cy="333.48" data-y="5.96" data-x="1586390400" r="1" fill="white"><title>2020-04-09: 6</title></circle>
	<circle cx="85.28" cy="333.48" data-y="5.96" data-x="1586476800" r="1" fill="white"><title>2020-04-10: 6</title></circle>
	<circle cx="87.05" cy="330.02" data-y="6.46" data-x="1586563200" r="1" fill="white"><title>2020-04-11: 6</title></circle>
	<circle cx="88.82" cy="332.62" data-y="6.09" data-x="1586649600" r="1" fill="white"><title>2020-04-12: 6</title></circle>
	<circle cx="90.60" cy="334.35" data-y="5.84" data-x="1586736000" r="1" fill="white"><title>2020-04-13: 6</title></circle>
	<circle cx="92.37" cy="333.48" data-y="5.96" data-x="1586822400" r="1" fill="white"><title>2020-04-14: 6</title></circle>
	<circle cx="94.14" cy="330.89" data-y="6.33" data-x="1586908800" r="1" fill="white"><title>2020-04-15: 6</title></circle>
	<circle cx="95.92" cy="331.75" data-y="6.21" data-x="1586995200" r="1" fill="white"><title>2020-04-16: 6</title></circle>
	<circle cx="97.69" cy="327.43" data-y="6.83" data-x="1587081600" r="1" fill="white"><title>2020-04-17: 7</title></circle>
	<circle cx="99.46" cy="332.62" data-y="6.09" data-x="1587168000" r="1" fill="white"><title>2020-04-18: 6</title></circle>
	<circle cx="101.24" cy="330.02" data-y="6.46" data-x="1587254400" r="1" fill="white"><title>2020-04-19: 6</title></circle>
	<circle cx="103.01" cy="325.70" data-y="7.08" data-x="1587340800" r="1" fill="white"><title>2020-04-20: 7</title></circle>
	<circle cx="104.78" cy="317.91" data-y="8.20" data-x="1587427200" r="1" fill="white"><title>2020-04-21: 8</title></circle>
	<circle cx="106.55" cy="321.37" data-y="7.70" data-x="1587513600" r="1" fill="white"><title>2020-04-22: 8</title></circle>
	<circle cx="108.33" cy="325.70" data-y="7.08" data-x="1587600000" r="1" fill="white"><title>2020-04-23: 7</title></circle>
	<circle cx="110.10" cy="322.24" data-y="7.58" data-x="1587686400" r="1" fill="white"><title>2020-04-24: 8</title></circle>
	<circle cx="111.87" cy="319.64" data-y="7.95" data-x="1587772800" r="1" fill="white"><title>2020-04-25: 8</title></circle>
	<circle cx="113.65" cy="311.86" data-y="9.07" data-x="1587859200" r="1" fill="white"><title>2020-04-26: 9</title></circle>
	<circle cx="115.42" cy="318.78" data-y="8.07" data-x="1587945600" r="1" fill="white"><title>2020-04-27: 8</title></circle>
	<circle cx="117.19" cy="324.83" data-y="7.20" data-x="1588032000" r="1" fill="white"><title>2020-04-28: 7</title></circle>
	<circle cx="118.96" cy="323.10" data-y="7.45" data-x="1588118400" r="1" fill="white"><title>2020-04-29: 7</title></circle>
	<circle cx="120.74" cy="319.64" data-y="7.95" data-x="1588204800" r="1" fill="white"><title>2020-04-30: 8</title></circle>
	<circle cx="122.51" cy="332.62" data-y="6.09" data-x="1588291200" r="1" fill="white"><title>2020-05-01: 6</title></circle>
	<circle cx="124.28" cy="334.35" data-y="5.84" data-x="1588377600" r="1" fill="white"><title>2020-05-02: 6</title></circle>
	<circle cx="126.06" cy="348.19" data-y="3.85" data-x="1588464000" r="1" fill="white"><title>2020-05-03: 4</title></circle>
	<circle cx="127.83" cy="348.19" data-y="3.85" data-x="1588550400" r="1" fill="white"><title>2020-05-04: 4</title></circle>
	<circle cx="129.60" cy="347.32" data-y="3.97" data-x="1588636800" r="1" fill="white"><title>2020-05-05: 4</title></circle>
	<circle cx="131.37" cy="347.32" data-y="3.97" data-x="1588723200" r="1" fill="white"><title>2020-05-06: 4</title></circle>
	<circle cx="133.15" cy="349.92" data-y="3.60" data-x="1588809600" r="1" fill="white"><title>2020-05-07: 4</title></circle>
	<circle cx="134.92" cy="345.59" data-y="4.22" data-x="1588896000" r="1" fill="white"><title>2020-05-08: 4</title></circle>
	<circle cx="136.69" cy="343.00" data-y="4.60" data-x="1588982400" r="1" fill="white"><title>2020-05-09: 5</title></circle>
	<circle cx="138.47" cy="339.54" data-y="5.09" data-x="1589068800" r="1" fill="white"><title>2020-05-10: 5</title></circle>
	<circle cx="140.24" cy="341.27" data-y="4.84" data-x="1589155200" r="1" fill="white"><title>2020-05-11: 5</title></circle>
	<circle cx="142.01" cy="339.54" data-y="5.09" data-x="1589241600" r="1" fill="white"><title>2020-05-12: 5</title></circle>
	<circle cx="143.78" cy="343.86" data-y="4.47" data-x="1589328000" r="1" fill="white"><title>2020-05-13: 4</title></circle>
	<circle cx="145.56" cy="344.73" data-y="4.35" data-x="1589414400" r="1" fill="white"><title>2020-05-14: 4</title></circle>
	<circle cx="147.33" cy="347.32" data-y="3.97" data-x="1589500800" r="1" fill="white"><title>2020-05-15: 4</title></circle>
	<circle cx="149.10" cy="348.19" data-y="3.85" data-x="1589587200" r="1" fill="white"><title>2020-05-16: 4</title></circle>
	<circle cx="150.88" cy="348.19" data-y="3.85" data-x="1589673600" r="1" fill="white"><title>2020-05-17: 4</title></circle>
	<circle cx="152.65" cy="350.78" data-y="3.48" data-x="1589760000" r="1" fill="white"><title>2020-05-18: 3</title></circle>
	<circle cx="154.42" cy="355.97" data-y="2.73" data-x="1589846400" r="1" fill="white"><title>2020-05-19: 3</title></circle>
	<circle cx="156.20" cy="354.24" data-y="2.98" data-x="1589932800" r="1" fill="white"><title>2020-05-20: 3</title></circle>
	<circle cx="157.97" cy="353.38" data-y="3.11" data-x="1590019200" r="1" fill="white"><title>2020-05-21: 3</title></circle>
	<circle cx="159.74" cy="355.11" data-y="2.86" data-x="1590105600" r="1" fill="white"><title>2020-05-22: 3</title></circle>
	<circle cx="161.51" cy="359.43" data-y="2.24" data-x="1590192000" r="1" fill="white"><title>2020-05-23: 2</title></circle>
	<circle cx="163.29" cy="363.76" data-y="1.61" data-x="1590278400" r="1" fill="white"><title>2020-05-24: 2</title></circle>
	<circle cx="165.06" cy="362.03" data-y="1.86" data-x="1590364800" r="1" fill="white"><title>2020-05-25: 2</title></circle>
	<circle cx="166.83" cy="364.62" data-y="1.49" data-x="1590451200" r="1" fill="white"><title>2020-05-26: 1</title></circle>
	<circle cx="168.61" cy="365.49" data-y="1.37" data-x="1590537600" r="1" fill="white"><title>2020-05-27: 1</title></circle>
	<circle cx="170.38" cy="367.22" data-y="1.12" data-x="1590624000" r="1" fill="white"><title>2020-05-28: 1</title></circle>
	<circle cx="172.15" cy="368.08" data-y="0.99" data-x="1590710400" r="1" fill="white"><title>2020-05-29: 1</title></circle>
	<circle cx="173.92" cy="365.49" data-y="1.37" data-x="1590796800" r="1" fill="white"><title>2020-05-30: 1</title></circle>
	<circle cx="175.70" cy="366.35" data-y="1.24" data-x="1590883200" r="1" fill="white"><title>2020-05-31: 1</title></circle>
	<circle cx="177.47" cy="366.35" data-y="1.24" data-x="1590969600" r="1" fill="white"><title>2020-06-01: 1</title></circle>
	<circle cx="179.24" cy="362.89" data-y="1.74" data-x="1591056000" r="1" fill="white"><title>2020-06-02: 2</title></circle>
	<circle cx="181.02" cy="362.03" data-y="1.86" data-x="1591142400" r="1" fill="white"><title>2020-06-03: 2</title></circle>
	<circle cx="182.79" cy="362.03" data-y="1.86" data-x="1591228800" r="1" fill="white"><title>2020-06-04: 2</title></circle>
	<circle cx="184.56" cy="356.84" data-y="2.61" data-x="1591315200" r="1" fill="white"><title>2020-06-05: 3</title></circle>
	<circle cx="186.33" cy="362.03" data-y="1.86" data-x="1591401600" r="1" fill="white"><title>2020-06-06: 2</title></circle>
	<circle cx="188.11" cy="362.03" data-y="1.86" data-x="1591488000" r="1" fill="white"><title>2020-06-07: 2</title></circle>
	<circle cx="189.88" cy="363.76" data-y="1.61" data-x="1591574400" r="1" fill="white"><title>2020-06-08: 2</title></circle>
	<circle cx="191.65" cy="367.22" data-y="1.12" data-x="1591660800" r="1" fill="white"><title>2020-06-09: 1</title></circle>
	<circle cx="193.43" cy="368.95" data-y="0.87" data-x="1591747200" r="1" fill="white"><title>2020-06-10: 1</title></circle>
	<circle cx="195.20" cy="368.08" data-y="0.99" data-x="1591833600" r="1" fill="white"><title>2020-06-11: 1</title></circle>
	<circle cx="196.97" cy="372.41" data-y="0.37" data-x="1591920000" r="1" fill="white"><title>2020-06-12: 0</title></circle>
	<circle cx="198.75" cy="370.68" data-y="0.62" data-x="1592006400" r="1" fill="white"><title>2020-06-13: 1</title></circle>
	<circle cx="200.52" cy="370.68" data-y="0.62" data-x="1592092800" r="1" fill="white"><title>2020-06-14: 1</title></circle>
	<circle cx="202.29" cy="371.54" data-y="0.50" data-x="1592179200" r="1" fill="white"><title>2020-06-15: 0</title></circle>
	<circle cx="204.06" cy="370.68" data-y="0.62" data-x="1592265600" r="1" fill="white"><title>2020-06-16: 1</title></circle>
	<circle cx="205.84" cy="370.68" data-y="0.62" data-x="1592352000" r="1" fill="white"><title>2020-06-17: 1</title></circle>
	<circle cx="207.61" cy="371.54" data-y="0.50" data-x="1592438400" r="1" fill="white"><title>2020-06-18: 0</title></circle>
	<circle cx="209.38" cy="372.41" data-y="0.37" data-x="1592524800" r="1" fill="white"><title>2020-06-19: 0</title></circle>
	<circle cx="211.16" cy="374.14" data-y="0.12" data-x="1592611200" r="1" fill="white"><title>2020-06-20: 0</title></circle>
	<circle cx="212.93" cy="374.14" data-y="0.12" data-x="1592697600" r="1" fill="white"><title>2020-06-21: 0</title></circle>
	<circle cx="214.70" cy="374.14" data-y="0.12" data-x="1592784000" r="1" fill="white"><title>2020-06-22: 0</title></circle>
	<circle cx="216.47" cy="373.27" data-y="0.25" data-x="1592870400" r="1" fill="white"><title>2020-06-23: 0</title></circle>
	<circle cx="218.25" cy="372.41" data-y="0.37" data-x="1592956800" r="1" fill="white"><title>2020-06-24: 0</title></circle>
	<circle cx="220.02" cy="372.41" data-y="0.37" data-x="1593043200" r="1" fill="white"><title>2020-06-25: 0</title></circle>
	<circle cx="221.79" cy="372.41" data-y="0.37" data-x="1593129600" r="1" fill="white"><title>2020-06-26: 0</title></circle>
	<circle cx="223.57" cy="371.54" data-y="0.50" data-x="1593216000" r="1" fill="white"><title>2020-06-27: 0</title></circle>
	<circle cx="225.34" cy="370.68" data-y="0.62" data-x="1593302400" r="1" fill="white"><title>2020-06-28: 1</title></circle>
	<circle cx="227.11" cy="369.81" data-y="0.75" data-x="1593388800" r="1" fill="white"><title>2020-06-29: 1</title></circle>
	<circle cx="228.88" cy="371.54" data-y="0.50" data-x="1593475200" r="1" fill="white"><title>2020-06-30: 0</title></circle>
	<circle cx="230.66" cy="372.41" data-y="0.37" data-x="1593561600" r="1" fill="white"><title>2020-07-01: 0</title></circle>
	<circle cx="232.43" cy="372.41" data-y="0.37" data-x="1593648000" r="1" fill="white"><title>2020-07-02: 0</title></circle>
	<circle cx="234.20" cy="370.68" data-y="0.62" data-x="1593734400" r="1" fill="white"><title>2020-07-03: 1</title></circle>
	<circle cx="235.98" cy="371.54" data-y="0.50" data-x="1593820800" r="1" fill="white"><title>2020-07-04: 0</title></circle>
	<circle cx="237.75" cy="371.54" data-y="0.50" data-x="1593907200" r="1" fill="white"><title>2020-07-05: 0</title></circle>
	<circle cx="239.52" cy="371.54" data-y="0.50" data-x="1593993600" r="1" fill="white"><title>2020-07-06: 0</title></circle>
	<circle cx="241.29" cy="371.54" data-y="0.50" data-x="1594080000" r="1" fill="white"><title>2020-07-07: 0</title></circle>
	<circle cx="243.07" cy="371.54" data-y="0.50" data-x="1594166400" r="1" fill="white"><title>2020-07-08: 0</title></circle>
	<circle cx="244.84" cy="370.68" data-y="0.62" data-x="1594252800" r="1" fill="white"><title>2020-07-09: 1</title></circle>
	<circle cx="246.61" cy="371.54" data-y="0.50" data-x="1594339200" r="1" fill="white"><title>2020-07-10: 0</title></circle>
	<circle cx="248.39" cy="371.54" data-y="0.50" data-x="1594425600" r="1" fill="white"><title>2020-07-11: 0</title></circle>
	<circle cx="250.16" cy="371.54" data-y="0.50" data-x="1594512000" r="1" fill="white"><title>2020-07-12: 0</title></circle>
	<circle cx="251.93" cy="372.41" data-y="0.37" data-x="1594598400" r="1" fill="white"><title>2020-07-13: 0</title></circle>
	<circle cx="253.71" cy="372.41" data-y="0.37" data-x="1594684800" r="1" fill="white"><title>2020-07-14: 0</title></circle>
	<circle cx="255.48" cy="372.41" data-y="0.37" data-x="1594771200" r="1" fill="white"><title>2020-07-15: 0</title></circle>
	<circle cx="257.25" cy="372.41" data-y="0.37" data-x="1594857600" r="1" fill="white"><title>2020-07-16: 0</title></circle>
	<circle cx="259.02" cy="372.41" data-y="0.37" data-x="1594944000" r="1" fill="white"><title>2020-07-17: 0</title></circle>
	<circle cx="260.80" cy="372.41" data-y="0.37" data-x="1595030400" r="1" fill="white"><title>2020-07-18: 0</title></circle>
	<circle cx="262.57" cy="372.41" data-y="0.37" data-x="1595116800" r="1" fill="white"><title>2020-07-19: 0</title></circle>
	<circle cx="264.34" cy="372.41" data-y="0.37" data-x="1595203200" r="1" fill="white"><title>2020-07-20: 0</title></circle>
	<circle cx="266.12" cy="371.54" data-y="0.50" data-x="1595289600" r="1" fill="white"><title>2020-07-21: 0</title></circle>
	<circle cx="267.89" cy="369.81" data-y="0.75" data-x="1595376000" r="1" fill="white"><title>2020-07-22: 1</title></circle>
	<circle cx="269.66" cy="370.68" data-y="0.62" data-x="1595462400" r="1" fill="white"><title>2020-07-23: 1</title></circle>
	<circle cx="271.43" cy="371.54" data-y="0.50" data-x="1595548800" r="1" fill="white"><title>2020-07-24: 0</title></circle>
	<circle cx="273.21" cy="371.54" data-y="0.50" data-x="1595635200" r="1" fill="white"><title>2020-07-25: 0</title></circle>
	<circle cx="274.98" cy="372.41" data-y="0.37" data-x="1595721600" r="1" fill="white"><title>2020-07-26: 0</title></circle>
	<circle cx="276.75" cy="372.41" data-y="0.37" data-x="1595808000" r="1" fill="white"><title>2020-07-27: 0</title></circle>
	<circle cx="278.53" cy="373.27" data-y="0.25" data-x="1595894400" r="1" fill="white"><title>2020-07-28: 0</title></circle>
	<circle cx="280.30" cy="375.00" data-y="0.00" data-x="1595980800" r="1" fill="white"><title>2020-07-29: 0</title></circle>
	<circle cx="282.07" cy="375.00" data-y="0.00" data-x="1596067200" r="1" fill="white"><title>2020-07-30: 0</title></circle>
	<circle cx="283.84" cy="375.00" data-y="0.00" data-x="1596153600" r="1" fill="white"><title>2020-07-31: 0</title></circle>
	<circle cx="285.62" cy="374.14" data-y="0.12" data-x="1596240000" r="1" fill="white"><title>2020-08-01: 0</title></circle>
	<circle cx="287.39" cy="374.14" data-y="0.12" data-x="1596326400" r="1" fill="white"><title>2020-08-02: 0</title></circle>
	<circle cx="289.16" cy="373.27" data-y="0.25" data-x="1596412800" r="1" fill="white"><title>2020-08-03: 0</title></circle>
	<circle cx="290.94" cy="372.41" data-y="0.37" data-x="1596499200" r="1" fill="white"><title>2020-08-04: 0</title></circle>
	<circle cx="292.71" cy="372.41" data-y="0.37" data-x="1596585600" r="1" fill="white"><title>2020-08-05: 0</title></circle>
	<circle cx="294.48" cy="372.41" data-y="0.37" data-x="1596672000" r="1" fill="white"><title>2020-08-06: 0</title></circle>
	<circle cx="296.25" cy="371.54" data-y="0.50" data-x="1596758400" r="1" fill="white"><title>2020-08-07: 0</title></circle>
	<circle cx="298.03" cy="372.41" data-y="0.37" data-x="1596844800" r="1" fill="white"><title>2020-08-08: 0</title></circle>
	<circle cx="299.80" cy="370.68" data-y="0.62" data-x="1596931200" r="1" fill="white"><title>2020-08-09: 1</title></circle>
	<circle cx="301.57" cy="369.81" data-y="0.75" data-x="1597017600" r="1" fill="white"><title>2020-08-10: 1</title></circle>
	<circle cx="303.35" cy="368.08" data-y="0.99" data-x="1597104000" r="1" fill="white"><title>2020-08-11: 1</title></circle>
	<circle cx="305.12" cy="368.08" data-y="0.99" data-x="1597190400" r="1" fill="white"><title>2020-08-12: 1</title></circle>
	<circle cx="306.89" cy="368.08" data-y="0.99" data-x="1597276800" r="1" fill="white"><title>2020-08-13: 1</title></circle>
	<circle cx="308.67" cy="366.35" data-y="1.24" data-x="1597363200" r="1" fill="white"><title>2020-08-14: 1</title></circle>
	<circle cx="310.44" cy="366.35" data-y="1.24" data-x="1597449600" r="1" fill="white"><title>2020-08-15: 1</title></circle>
	<circle cx="312.21" cy="367.22" data-y="1.12" data-x="1597536000" r="1" fill="white"><title>2020-08-16: 1</title></circle>
	<circle cx="313.98" cy="366.35" data-y="1.24" data-x="1597622400" r="1" fill="white"><title>2020-08-17: 1</title></circle>
	<circle cx="315.76" cy="366.35" data-y="1.24" data-x="1597708800" r="1" fill="white"><title>2020-08-18: 1</title></circle>
	<circle cx="317.53" cy="364.62" data-y="1.49" data-x="1597795200" r="1" fill="white"><title>2020-08-19: 1</title></circle>
	<circle cx="319.30" cy="363.76" data-y="1.61" data-x="1597881600" r="1" fill="white"><title>2020-08-20: 2</title></circle>
	<circle cx="321.08" cy="364.62" data-y="1.49" data-x="1597968000" r="1" fill="white"><title>2020-08-21: 1</title></circle>
	<circle cx="322.85" cy="363.76" data-y="1.61" data-x="1598054400" r="1" fill="white"><title>2020-08-22: 2</title></circle>
	<circle cx="324.62" cy="362.03" data-y="1.86" data-x="1598140800" r="1" fill="white"><title>2020-08-23: 2</title></circle>
	<circle cx="326.39" cy="363.76" data-y="1.61" data-x="1598227200" r="1" fill="white"><title>2020-08-24: 2</title></circle>
	<circle cx="328.17" cy="365.49" data-y="1.37" data-x="1598313600" r="1" fill="white"><title>2020-08-25: 1</title></circle>
	<circle cx="329.94" cy="366.35" data-y="1.24" data-x="1598400000" r="1" fill="white"><title>2020-08-26: 1</title></circle>
	<circle cx="331.71" cy="360.30" data-y="2.11" data-x="1598486400" r="1" fill="white"><title>2020-08-27: 2</title></circle>
	<circle cx="333.49" cy="360.30" data-y="2.11" data-x="1598572800" r="1" fill="white"><title>2020-08-28: 2</title></circle>
	<circle cx="335.26" cy="349.92" data-y="3.60" data-x="1598659200" r="1" fill="white"><title>2020-08-29: 4</title></circle>
	<circle cx="337.03" cy="344.73" data-y="4.35" data-x="1598745600" r="1" fill="white"><title>2020-08-30: 4</title></circle>
	<circle cx="338.80" cy="340.40" data-y="4.97" data-x="1598832000" r="1" fill="white"><title>2020-08-31: 5</title></circle>
	<circle cx="340.58" cy="337.81" data-y="5.34" data-x="1598918400" r="1" fill="white"><title>2020-09-01: 5</title></circle>
	<circle cx="342.35" cy="330.89" data-y="6.33" data-x="1599004800" r="1" fill="white"><title>2020-09-02: 6</title></circle>
	<circle cx="344.12" cy="334.35" data-y="5.84" data-x="1599091200" r="1" fill="white"><title>2020-09-03: 6</title></circle>
	<circle cx="345.90" cy="324.83" data-y="7.20" data-x="1599177600" r="1" fill="white"><title>2020-09-04: 7</title></circle>
	<circle cx="347.67" cy="330.02" data-y="6.46" data-x="1599264000" r="1" fill="white"><title>2020-09-05: 6</title></circle>
	<circle cx="349.44" cy="330.02" data-y="6.46" data-x="1599350400" r="1" fill="white"><title>2020-09-06: 6</title></circle>
	<circle cx="351.22" cy="334.35" data-y="5.84" data-x="1599436800" r="1" fill="white"><title>2020-09-07: 6</title></circle>
	<circle cx="352.99" cy="330.89" data-y="6.33" data-x="1599523200" r="1" fill="white"><title>2020-09-08: 6</title></circle>
	<circle cx="354.76" cy="336.94" data-y="5.47" data-x="1599609600" r="1" fill="white"><title>2020-09-09: 5</title></circle>
	<circle cx="356.53" cy="336.94" data-y="5.47" data-x="1599696000" r="1" fill="white"><title>2020-09-10: 5</title></circle>
	<circle cx="358.31" cy="345.59" data-y="4.22" data-x="1599782400" r="1" fill="white"><title>2020-09-11: 4</title></circle>
	<circle cx="360.08" cy="345.59" data-y="4.22" data-x="1599868800" r="1" fill="white"><title>2020-09-12: 4</title></circle>
	<circle cx="361.85" cy="349.92" data-y="3.60" data-x="1599955200" r="1" fill="white"><title>2020-09-13: 4</title></circle>
	<circle cx="363.63" cy="349.05" data-y="3.73" data-x="1600041600" r="1" fill="white"><title>2020-09-14: 4</title></circle>
	<circle cx="365.40" cy="352.51" data-y="3.23" data-x="1600128000" r="1" fill="white"><title>2020-09-15: 3</title></circle>
	<circle cx="367.17" cy="346.46" data-y="4.10" data-x="1600214400" r="1" fill="white"><title>2020-09-16: 4</title></circle>
	<circle cx="368.94" cy="340.40" data-y="4.97" data-x="1600300800" r="1" fill="white"><title>2020-09-17: 5</title></circle>
	<circle cx="370.72" cy="335.21" data-y="5.71" data-x="1600387200" r="1" fill="white"><title>2020-09-18: 6</title></circle>
	<circle cx="372.49" cy="337.81" data-y="5.34" data-x="1600473600" r="1" fill="white"><title>2020-09-19: 5</title></circle>
	<circle cx="374.26" cy="336.94" data-y="5.47" data-x="1600560000" r="1" fill="white"><title>2020-09-20: 5</title></circle>
	<circle cx="376.04" cy="324.83" data-y="7.20" data-x="1600646400" r="1" fill="white"><title>2020-09-21: 7</title></circle>
	<circle cx="377.81" cy="320.51" data-y="7.83" data-x="1600732800" r="1" fill="white"><title>2020-09-22: 8</title></circle>
	<circle cx="379.58" cy="318.78" data-y="8.07" data-x="1600819200" r="1" fill="white"><title>2020-09-23: 8</title></circle>
	<circle cx="381.35" cy="314.45" data-y="8.69" data-x="1600905600" r="1" fill="white"><title>2020-09-24: 9</title></circle>
	<circle cx="383.13" cy="311.86" data-y="9.07" data-x="1600992000" r="1" fill="white"><title>2020-09-25: 9</title></circle>
	<circle cx="384.90" cy="298.02" data-y="11.05" data-x="1601078400" r="1" fill="white"><title>2020-09-26: 11</title></circle>
	<circle cx="386.67" cy="273.80" data-y="14.53" data-x="1601164800" r="1" fill="white"><title>2020-09-27: 15</title></circle>
	<circle cx="388.45" cy="260.83" data-y="16.40" data-x="1601251200" r="1" fill="white"><title>2020-09-28: 16</title></circle>
	<circle cx="390.22" cy="230.56" data-y="20.74" data-x="1601337600" r="1" fill="white"><title>2020-09-29: 21</title></circle>
	<circle cx="391.99" cy="202.88" data-y="24.72" data-x="1601424000" r="1" fill="white"><title>2020-09-30: 25</title></circle>
	<circle cx="393.76" cy="176.07" data-y="28.57" data-x="1601510400" r="1" fill="white"><title>2020-10-01: 29</title></circle>
	<circle cx="395.54" cy="144.93" data-y="33.04" data-x="1601596800" r="1" fill="white"><title>2020-10-02: 33</title></circle>
	<circle cx="397.31" cy="112.93" data-y="37.64" data-x="1601683200" r="1" fill="white"><title>2020-10-03: 38</title></circle>
	<circle cx="399.08" cy="88.71" data-y="41.11" data-x="1601769600" r="1" fill="white"><title>2020-10-04: 41</title></circle>
	<circle cx="400.86" cy="77.46" data-y="42.73" data-x="1601856000" r="1" fill="white"><title>2020-10-05: 43</title></circle>
	<circle cx="402.63" cy="66.22" data-y="44.34" data-x="1601942400" r="1" fill="white"><title>2020-10-06: 44</title></circle>
	<circle cx="404.40" cy="65.36" data-y="44.47" data-x="1602028800" r="1" fill="white"><title>2020-10-07: 44</title></circle>
	<circle cx="406.18" cy="75.73" data-y="42.98" data-x="1602115200" r="1" fill="white"><title>2020-10-08: 43</title></circle>
	<circle cx="407.95" cy="61.90" data-y="44.96" data-x="1602201600" r="1" fill="white"><title>2020-10-09: 45</title></circle>
	<circle cx="409.72" cy="59.30" data-y="45.34" data-x="1602288000" r="1" fill="white"><title>2020-10-10: 45</title></circle>
	<circle cx="411.49" cy="67.09" data-y="44.22" data-x="1602374400" r="1" fill="white"><title>2020-10-11: 44</title></circle>
	<circle cx="413.27" cy="62.76" data-y="44.84" data-x="1602460800" r="1" fill="white"><title>2020-10-12: 45</title></circle>
	<circle cx="415.04" cy="67.09" data-y="44.22" data-x="1602547200" r="1" fill="white"><title>2020-10-13: 44</title></circle>
	<circle cx="416.81" cy="65.36" data-y="44.47" data-x="1602633600" r="1" fill="white"><title>2020-10-14: 44</title></circle>
	<circle cx="418.59" cy="60.17" data-y="45.21" data-x="1602720000" r="1" fill="white"><title>2020-10-15: 45</title></circle>
	<circle cx="420.36" cy="40.27" data-y="48.07" data-x="1602806400" r="1" fill="white"><title>2020-10-16: 48</title></circle>
	<circle cx="422.13" cy="26.43" data-y="50.06" data-x="1602892800" r="1" fill="white"><title>2020-10-17: 50</title></circle>
	<circle cx="423.90" cy="18.65" data-y="51.17" data-x="1602979200" r="1" fill="white"><title>2020-10-18: 51</title></circle>
	<circle cx="425.68" cy="10.00" data-y="52.42" data-x="1603065600" r="1" fill="white"><title>2020-10-19: 52</title></circle>
	<circle cx="427.45" cy="12.59" data-y="52.04" data-x="1603152000" r="1" fill="white"><title>2020-10-20: 52</title></circle>
	<circle cx="429.22" cy="22.97" data-y="50.55" data-x="1603238400" r="1" fill="white"><title>2020-10-21: 51</title></circle>
	<circle cx="431.00" cy="29.89" data-y="49.56" data-x="1603324800" r="1" fill="white"><title>2020-10-22: 50</title></circle>
	<circle cx="432.77" cy="35.08" data-y="48.81" data-x="1603411200" r="1" fill="white"><title>2020-10-23: 49</title></circle>
	<circle cx="434.54" cy="55.84" data-y="45.83" data-x="1603497600" r="1" fill="white"><title>2020-10-24: 46</title></circle>
	<circle cx="436.31" cy="59.30" data-y="45.34" data-x="1603584000" r="1" fill="white"><title>2020-10-25: 45</title></circle>
	<circle cx="438.09" cy="74.00" data-y="43.23" data-x="1603670400" r="1" fill="white"><title>2020-10-26: 43</title></circle>
	<circle cx="439.86" cy="69.68" data-y="43.85" data-x="1603756800" r="1" fill="white"><title>2020-10-27: 44</title></circle>
	<circle cx="441.63" cy="64.49" data-y="44.59" data-x="1603843200" r="1" fill="white"><title>2020-10-28: 45</title></circle>
	<circle cx="443.41" cy="65.36" data-y="44.47" data-x="1603929600" r="1" fill="white"><title>2020-10-29: 44</title></circle>
	<circle cx="445.18" cy="57.57" data-y="45.59" data-x="1604016000" r="1" fill="white"><title>2020-10-30: 46</title></circle>
	<circle cx="446.95" cy="57.57" data-y="45.59" data-x="1604102400" r="1" fill="white"><title>2020-10-31: 46</title></circle>
	<circle cx="448.73" cy="75.73" data-y="42.98" data-x="1604188800" r="1" fill="white"><title>2020-11-01: 43</title></circle>
	<circle cx="450.50" cy="74.87" data-y="43.10" data-x="1604275200" r="1" fill="white"><title>2020-11-02: 43</title></circle>
	<circle cx="452.27" cy="90.44" data-y="40.87" data-x="1604361600" r="1" fill="white"><title>2020-11-03: 41</title></circle>
	<circle cx="454.04" cy="93.03" data-y="40.49" data-x="1604448000" r="1" fill="white"><title>2020-11-04: 40</title></circle>
	<circle cx="455.82" cy="88.71" data-y="41.11" data-x="1604534400" r="1" fill="white"><title>2020-11-05: 41</title></circle>
	<circle cx="457.59" cy="121.58" data-y="36.39" data-x="1604620800" r="1" fill="white"><title>2020-11-06: 36</title></circle>
	<circle cx="459.36" cy="132.82" data-y="34.78" data-x="1604707200" r="1" fill="white"><title>2020-11-07: 35</title></circle>
	<circle cx="461.14" cy="124.17" data-y="36.02" data-x="1604793600" r="1" fill="white"><title>2020-11-08: 36</title></circle>
</g>
<g data-series="recent-cases" class="data-series">
	<path d="M 461.14,124.17L 462.91,150.98L 464.68,182.12L 466.45,187.31L 468.23,194.58L 470.00,228.18" id="Recent cases" class="line" stroke-width="1" stroke-linecap="round" stroke-dasharray="4,6" stroke-dashoffset="4"><title>Recent cases</title></path>
	<circle cx="461.14" cy="124.17" data-y="36.02" data-x="1604793600" r="2.5" fill="white"><title>2020-11-08: 36</title></circle>
	<circle cx="462.91" cy="150.98" data-y="32.17" data-x="1604880000" r="2.5" fill="white"><title>2020-11-09: 32</title></circle>
	<circle cx="464.68" cy="182.12" data-y="27.70" data-x="1604966400" r="2.5" fill="white"><title>2020-11-10: 28</title></circle>
	<circle cx="466.45" cy="187.31" data-y="26.95" data-x="1605052800" r="2.5" fill="white"><title>2020-11-11: 27</title></circle>
	<circle cx="468.23" cy="194.58" data-y="25.91" data-x="1605139200" r="2.5" fill="white"><title>2020-11-12: 26</title></circle>
	<circle cx="470.00" cy="228.18" data-y="21.08" data-x="1605225600" r="2.5" fill="white"><title>2020-11-13: 21</title></circle>
</g>
</svg>
