<svg width="480" height="400" viewBox="0 0 480 400" xmlns="http://www.w3.org/2000/svg" style="overflow:display" preserveAspectRatio="xMinYMin meet" overflow="visible">
<defs>
	<style>
	.data-series path.line { fill-opacity: 0; stroke: black; }
	.data-series path.line.dotted { stroke-dasharray: 12 20 }
	.data-series:hover path.line, .data-series.on path.line { stroke-width: 1; }
	.data-series:hover circle, .data-series.on circle { display: inline; }
	.graph-grid { font-family: "Helvetica Neue",Helvetica,Arial,"Lucida Grande",sans-serif; }
	.graph-grid line { stroke: black; stroke-width: 1; stroke-linecap: round; }
	.graph-grid.graph-grid-x text { text-anchor: middle; dominant-baseline: hanging; transform: translateY(10px); }
	.graph-grid.graph-grid-y text { text-anchor: end; dominant-baseline: middle; transform: translateX(-10px); }
	</style>
</defs>
<g class="graph-grid graph-grid-y">
	<line x1="25.00" y1="375.00" x2="470.00" y2="375.00" data-left="25"></line>
	<text x="35" y="375" text-anchor="end">0</text>
	<text x="35" y="236.138381395349" text-anchor="end">20</text>
	<text x="35" y="97.2767627906977" text-anchor="end">40</text>
	<text style="text-anchor:middle;dominant-baseline:hanging;font-weight:bold;transform: translateY(192.5px) rotate(-90deg);"></text>
</g>
<g class="graph-grid graph-grid-x">
	<line class="tick" x1="59.35" y1="375.00" x2="59.35" y2="380.00"></line>
	<text x="59.3456375838926" y="375" text-anchor="middle">A</text>
	<line class="tick" x1="104.14" y1="375.00" x2="104.14" y2="380.00"></line>
	<text x="104.144295302013" y="375" text-anchor="middle">M</text>
	<line class="tick" x1="150.44" y1="375.00" x2="150.44" y2="380.00"></line>
	<text x="150.436241610738" y="375" text-anchor="middle">J</text>
	<line class="tick" x1="195.23" y1="375.00" x2="195.23" y2="380.00"></line>
	<text x="195.234899328859" y="375" text-anchor="middle">J</text>
	<line class="tick" x1="241.53" y1="375.00" x2="241.53" y2="380.00"></line>
	<text x="241.526845637584" y="375" text-anchor="middle">A</text>
	<line class="tick" x1="287.82" y1="375.00" x2="287.82" y2="380.00"></line>
	<text x="287.818791946309" y="375" text-anchor="middle">S</text>
	<line class="tick" x1="332.62" y1="375.00" x2="332.62" y2="380.00"></line>
	<text x="332.61744966443" y="375" text-anchor="middle">O</text>
	<line class="tick" x1="378.91" y1="375.00" x2="378.91" y2="380.00"></line>
	<text x="378.909395973154" y="375" text-anchor="middle">N</text>
	<line class="tick" x1="423.71" y1="375.00" x2="423.71" y2="380.00"></line>
	<text x="423.708053691275" y="375" text-anchor="middle">D</text>
	<line class="tick" x1="470.00" y1="375.00" x2="470.00" y2="380.00"></line>
	<text x="470" y="375" text-anchor="middle">J</text>
	<text style="text-anchor:middle;dominant-baseline:hanging;font-weight:bold;transform: translateY(192.5px) rotate(-90deg);"></text>
</g>
<g data-series="widespread" class="data-series">
	<path d="M 25.00,326.40L 470.00,326.40" id="E07000239-level-0" class="line" stroke-width="1" stroke-linecap="round" stroke-dasharray="3,3" fill-opacity="0.3" opacity="0.3"><title>Widespread</title></path>
</g>
<g data-series="substantial" class="data-series">
	<path d="M 25.00,347.23L 470.00,347.23" id="E07000239-level-1" class="line" stroke-width="1" stroke-linecap="round" stroke-dasharray="3,3" fill-opacity="0.3" opacity="0.3"><title>Substantial</title></path>
</g>
<g data-series="moderate" class="data-series">
	<path d="M 25.00,368.06L 470.00,368.06" id="E07000239-level-2" class="line" stroke-width="1" stroke-linecap="round" stroke-dasharray="3,3" fill-opacity="0.3" opacity="0.3"><title>Moderate</title></path>
</g>
<g data-series="new-cases" class="data-series">
	<path d="M 25.00,368.21L 26.49,369.57L 27.99,370.47L 29.48,371.12L 30.97,371.12L 32.47,371.12L 33.96,372.09L 35.45,368.21L 36.95,367.24L 38.44,366.27L 39.93,363.36L 41.43,362.39L 42.92,358.51L 44.41,351.72L 45.91,351.72L 47.40,349.78L 48.89,342.02L 50.39,340.08L 51.88,334.26L 53.37,330.38L 54.87,334.26L 56.36,335.23L 57.85,333.29L 59.35,335.23L 60.84,337.17L 62.33,341.05L 63.83,343.96L 65.32,342.99L 66.81,342.99L 68.31,340.08L 69.80,340.08L 71.29,335.23L 72.79,336.20L 74.28,334.26L 75.77,331.35L 77.27,329.41L 78.76,325.52L 80.25,320.67L 81.74,316.79L 83.24,312.91L 84.73,310.97L 86.22,299.33L 87.72,289.63L 89.21,298.36L 90.70,305.15L 92.20,306.12L 93.69,307.09L 95.18,310.00L 96.68,311.94L 98.17,327.47L 99.66,324.55L 101.16,322.61L 102.65,325.52L 104.14,328.44L 105.64,330.38L 107.13,340.08L 108.62,338.14L 110.12,336.20L 111.61,341.05L 113.10,345.90L 114.60,344.93L 116.09,341.05L 117.58,347.84L 119.08,345.90L 120.57,346.87L 122.06,346.87L 123.56,349.78L 125.05,350.75L 126.54,354.63L 128.04,351.72L 129.53,354.63L 131.02,359.48L 132.52,361.42L 134.01,358.51L 135.50,360.45L 137.00,364.33L 138.49,362.39L 139.98,361.42L 141.48,362.39L 142.97,362.39L 144.46,365.30L 145.96,366.27L 147.45,367.24L 148.94,372.09L 150.44,372.09L 151.93,371.12L 153.42,371.12L 154.92,371.12L 156.41,370.15L 157.90,370.15L 159.40,369.18L 160.89,370.15L 162.38,372.09L 163.88,372.09L 165.37,372.09L 166.86,371.12L 168.36,371.12L 169.85,372.09L 171.34,372.09L 172.84,370.15L 174.33,370.15L 175.82,369.18L 177.32,371.12L 178.81,371.12L 180.30,371.12L 181.80,371.12L 183.29,373.06L 184.78,372.09L 186.28,373.06L 187.77,373.06L 189.26,373.06L 190.76,372.09L 192.25,373.06L 193.74,372.09L 195.23,373.06L 196.73,373.06L 198.22,373.06L 199.71,373.06L 201.21,374.03L 202.70,374.03L 204.19,375.00L 205.69,375.00L 207.18,375.00L 208.67,375.00L 210.17,375.00L 211.66,374.03L 213.15,373.06L 214.65,373.06L 216.14,373.06L 217.63,373.06L 219.13,373.06L 220.62,373.06L 222.11,374.03L 223.61,375.00L 225.10,375.00L 226.59,374.03L 228.09,374.03L 229.58,374.03L 231.07,374.03L 232.57,374.03L 234.06,374.03L 235.55,374.03L 237.05,375.00L 238.54,375.00L 240.03,375.00L 241.53,375.00L 243.02,375.00L 244.51,375.00L 246.01,375.00L 247.50,375.00L 248.99,375.00L 250.49,375.00L 251.98,375.00L 253.47,375.00L 254.97,373.06L 256.46,373.06L 257.95,370.15L 259.45,370.15L 260.94,368.21L 262.43,366.27L 263.93,366.27L 265.42,368.21L 266.91,367.24L 268.41,370.15L 269.90,370.15L 271.39,370.15L 272.89,368.21L 274.38,365.30L 275.87,365.30L 277.37,365.30L 278.86,365.30L 280.35,365.30L 281.85,366.27L 283.34,370.15L 284.83,369.18L 286.33,367.24L 287.82,367.24L 289.31,367.24L 290.81,366.27L 292.30,362.39L 293.79,358.51L 295.29,358.51L 296.78,358.51L 298.27,356.57L 299.77,355.60L 301.26,353.66L 302.75,352.69L 304.24,352.69L 305.74,352.69L 307.23,351.72L 308.72,349.78L 310.22,345.90L 311.71,343.96L 313.20,344.93L 314.70,337.17L 316.19,328.44L 317.68,323.58L 319.18,321.64L 320.67,323.58L 322.16,324.55L 323.66,323.58L 325.15,329.41L 326.64,333.29L 328.14,329.41L 329.63,329.41L 331.12,325.52L 332.62,317.76L 334.11,297.39L 335.60,291.57L 337.10,290.60L 338.59,287.69L 340.08,277.02L 341.58,272.17L 343.07,273.14L 344.56,285.75L 346.06,285.75L 347.55,286.72L 349.04,289.63L 350.54,294.48L 352.03,297.39L 353.52,298.36L 355.02,296.42L 356.51,277.99L 358.00,275.08L 359.50,272.17L 360.99,266.35L 362.48,264.41L 363.98,261.50L 365.47,251.80L 366.96,258.59L 368.46,242.10L 369.95,215.90L 371.44,192.62L 372.94,181.95L 374.43,166.43L 375.92,142.18L 377.42,118.89L 378.91,113.07L 380.40,112.10L 381.90,106.28L 383.39,103.37L 384.88,104.34L 386.38,95.61L 387.87,114.04L 389.36,94.64L 390.86,91.73L 392.35,106.28L 393.84,102.40L 395.34,103.37L 396.83,106.28L 398.32,102.40L 399.82,117.92L 401.31,128.59L 402.80,137.33L 404.30,142.18L 405.79,151.88L 407.28,177.10L 408.78,178.07L 410.27,198.44L 411.76,223.66L 413.26,231.43L 414.75,236.28L 416.24,247.92L 417.73,260.53L 419.23,275.08L 420.72,281.87L 422.21,280.90L 423.71,284.78L 425.20,293.51L 426.69,283.81L 428.19,276.05L 429.68,274.11L 431.17,265.38L 432.67,258.59L 434.16,247.92L 435.65,236.28L 437.15,232.40L 438.64,237.25L 440.13,233.37L 441.63,229.49L 443.12,208.14L 444.61,205.23L 446.11,212.02L 447.60,207.17L 449.09,184.86L 450.59,160.61L 452.08,157.70L 453.57,175.16L 455.07,189.71L 456.56,164.49L 458.05,151.88L 459.55,145.09L 461.04,112.10L 462.53,70.39" id="New cases" class="line" stroke-width="1" stroke-linecap="round"><title>New cases</title></path>
	<circle cx="25.00" cy="368.21" data-y="0.98" data-x="1583712000" r="1" fill="white"><title>2020-03-09: 1</title></circle>
	<circle cx="26.49" cy="369.57" data-y="0.78" data-x="1583798400" r="1" fill="white"><title>2020-03-10: 1</title></circle>
	<circle cx="27.99" cy="370.47" data-y="0.65" data-x="1583884800" r="1" fill="white"><title>2020-03-11: 1</title></circle>
	<circle cx="29.48" cy="371.12" data-y="0.56" data-x="1583971200" r="1" fill="white"><title>2020-03-12: 1</title></circle>
	<circle cx="30.97" cy="371.12" data-y="0.56" data-x="1584057600" r="1" fill="white"><title>2020-03-13: 1</title></circle>
	<circle cx="32.47" cy="371.12" data-y="0.56" data-x="1584144000" r="1" fill="white"><title>2020-03-14: 1</title></circle>
	<circle cx="33.96" cy="372.09" data-y="0.42" data-x="1584230400" r="1" fill="white"><title>2020-03-15: 0</title></circle>
	<circle cx="35.45" cy="368.21" data-y="0.98" data-x="1584316800" r="1" fill="white"><title>2020-03-16: 1</title></circle>
	<circle cx="36.95" cy="367.24" data-y="1.12" data-x="1584403200" r="1" fill="white"><title>2020-03-17: 1</title></circle>
	<circle cx="38.44" cy="366.27" data-y="1.26" data-x="1584489600" r="1" fill="white"><title>2020-03-18: 1</title></circle>
	<circle cx="39.93" cy="363.36" data-y="1.68" data-x="1584576000" r="1" fill="white"><title>2020-03-19: 2</title></circle>
	<circle cx="41.43" cy="362.39" data-y="1.82" data-x="1584662400" r="1" fill="white"><title>2020-03-20: 2</title></circle>
	<circle cx="42.92" cy="358.51" data-y="2.38" data-x="1584748800" r="1" fill="white"><title>2020-03-21: 2</title></circle>
	<circle cx="44.41" cy="351.72" data-y="3.35" data-x="1584835200" r="1" fill="white"><title>2020-03-22: 3</title></circle>
	<circle cx="45.91" cy="351.72" data-y="3.35" data-x="1584921600" r="1" fill="white"><title>2020-03-23: 3</title></circle>
	<circle cx="47.40" cy="349.78" data-y="3.63" data-x="1585008000" r="1" fill="white"><title>2020-03-24: 4</title></circle>
	<circle cx="48.89" cy="342.02" data-y="4.75" data-x="1585094400" r="1" fill="white"><title>2020-03-25: 5</title></circle>
	<circle cx="50.39" cy="340.08" data-y="5.03" data-x="1585180800" r="1" fill="white"><title>2020-03-26: 5</title></circle>
	<circle cx="51.88" cy="334.26" data-y="5.87" data-x="1585267200" r="1" fill="white"><title>2020-03-27: 6</title></circle>
	<circle cx="53.37" cy="330.38" data-y="6.43" data-x="1585353600" r="1" fill="white"><title>2020-03-28: 6</title></circle>
	<circle cx="54.87" cy="334.26" data-y="5.87" data-x="1585440000" r="1" fill="white"><title>2020-03-29: 6</title></circle>
	<circle cx="56.36" cy="335.23" data-y="5.73" data-x="1585526400" r="1" fill="white"><title>2020-03-30: 6</title></circle>
	<circle cx="57.85" cy="333.29" data-y="6.01" data-x="1585612800" r="1" fill="white"><title>2020-03-31: 6</title></circle>
	<circle cx="59.35" cy="335.23" data-y="5.73" data-x="1585699200" r="1" fill="white"><title>2020-04-01: 6</title></circle>
	<circle cx="60.84" cy="337.17" data-y="5.45" data-x="1585785600" r="1" fill="white"><title>2020-04-02: 5</title></circle>
	<circle cx="62.33" cy="341.05" data-y="4.89" data-x="1585872000" r="1" fill="white"><title>2020-04-03: 5</title></circle>
	<circle cx="63.83" cy="343.96" data-y="4.47" data-x="1585958400" r="1" fill="white"><title>2020-04-04: 4</title></circle>
	<circle cx="65.32" cy="342.99" data-y="4.61" data-x="1586044800" r="1" fill="white"><title>2020-04-05: 5</title></circle>
	<circle cx="66.81" cy="342.99" data-y="4.61" data-x="1586131200" r="1" fill="white"><title>2020-04-06: 5</title></circle>
	<circle cx="68.31" cy="340.08" data-y="5.03" data-x="1586217600" r="1" fill="white"><title>2020-04-07: 5</title></circle>
	<circle cx="69.80" cy="340.08" data-y="5.03" data-x="1586304000" r="1" fill="white"><title>2020-04-08: 5</title></circle>
	<circle cx="71.29" cy="335.23" data-y="5.73" data-x="1586390400" r="1" fill="white"><title>2020-04-09: 6</title></circle>
	<circle cx="72.79" cy="336.20" data-y="5.59" data-x="1586476800" r="1" fill="white"><title>2020-04-10: 6</title></circle>
	<circle cx="74.28" cy="334.26" data-y="5.87" data-x="1586563200" r="1" fill="white"><title>2020-04-11: 6</title></circle>
	<circle cx="75.77" cy="331.35" data-y="6.29" data-x="1586649600" r="1" fill="white"><title>2020-04-12: 6</title></circle>
	<circle cx="77.27" cy="329.41" data-y="6.57" data-x="1586736000" r="1" fill="white"><title>2020-04-13: 7</title></circle>
	<circle cx="78.76" cy="325.52" data-y="7.13" data-x="1586822400" r="1" fill="white"><title>2020-04-14: 7</title></circle>
	<circle cx="80.25" cy="320.67" data-y="7.82" data-x="1586908800" r="1" fill="white"><title>2020-04-15: 8</title></circle>
	<circle cx="81.74" cy="316.79" data-y="8.38" data-x="1586995200" r="1" fill="white"><title>2020-04-16: 8</title></circle>
	<circle cx="83.24" cy="312.91" data-y="8.94" data-x="1587081600" r="1" fill="white"><title>2020-04-17: 9</title></circle>
	<circle cx="84.73" cy="310.97" data-y="9.22" data-x="1587168000" r="1" fill="white"><title>2020-04-18: 9</title></circle>
	<circle cx="86.22" cy="299.33" data-y="10.90" data-x="1587254400" r="1" fill="white"><title>2020-04-19: 11</title></circle>
	<circle cx="87.72" cy="289.63" data-y="12.30" data-x="1587340800" r="1" fill="white"><title>2020-04-20: 12</title></circle>
	<circle cx="89.21" cy="298.36" data-y="11.04" data-x="1587427200" r="1" fill="white"><title>2020-04-21: 11</title></circle>
	<circle cx="90.70" cy="305.15" data-y="10.06" data-x="1587513600" r="1" fill="white"><title>2020-04-22: 10</title></circle>
	<circle cx="92.20" cy="306.12" data-y="9.92" data-x="1587600000" r="1" fill="white"><title>2020-04-23: 10</title></circle>
	<circle cx="93.69" cy="307.09" data-y="9.78" data-x="1587686400" r="1" fill="white"><title>2020-04-24: 10</title></circle>
	<circle cx="95.18" cy="310.00" data-y="9.36" data-x="1587772800" r="1" fill="white"><title>2020-04-25: 9</title></circle>
	<circle cx="96.68" cy="311.94" data-y="9.08" data-x="1587859200" r="1" fill="white"><title>2020-04-26: 9</title></circle>
	<circle cx="98.17" cy="327.47" data-y="6.85" data-x="1587945600" r="1" fill="white"><title>2020-04-27: 7</title></circle>
	<circle cx="99.66" cy="324.55" data-y="7.27" data-x="1588032000" r="1" fill="white"><title>2020-04-28: 7</title></circle>
	<circle cx="101.16" cy="322.61" data-y="7.54" data-x="1588118400" r="1" fill="white"><title>2020-04-29: 8</title></circle>
	<circle cx="102.65" cy="325.52" data-y="7.13" data-x="1588204800" r="1" fill="white"><title>2020-04-30: 7</title></circle>
	<circle cx="104.14" cy="328.44" data-y="6.71" data-x="1588291200" r="1" fill="white"><title>2020-05-01: 7</title></circle>
	<circle cx="105.64" cy="330.38" data-y="6.43" data-x="1588377600" r="1" fill="white"><title>2020-05-02: 6</title></circle>
	<circle cx="107.13" cy="340.08" data-y="5.03" data-x="1588464000" r="1" fill="white"><title>2020-05-03: 5</title></circle>
	<circle cx="108.62" cy="338.14" data-y="5.31" data-x="1588550400" r="1" fill="white"><title>2020-05-04: 5</title></circle>
	<circle cx="110.12" cy="336.20" data-y="5.59" data-x="1588636800" r="1" fill="white"><title>2020-05-05: 6</title></circle>
	<circle cx="111.61" cy="341.05" data-y="4.89" data-x="1588723200" r="1" fill="white"><title>2020-05-06: 5</title></circle>
	<circle cx="113.10" cy="345.90" data-y="4.19" data-x="1588809600" r="1" fill="white"><title>2020-05-07: 4</title></circle>
	<circle cx="114.60" cy="344.93" data-y="4.33" data-x="1588896000" r="1" fill="white"><title>2020-05-08: 4</title></circle>
	<circle cx="116.09" cy="341.05" data-y="4.89" data-x="1588982400" r="1" fill="white"><title>2020-05-09: 5</title></circle>
	<circle cx="117.58" cy="347.84" data-y="3.91" data-x="1589068800" r="1" fill="white"><title>2020-05-10: 4</title></circle>
	<circle cx="119.08" cy="345.90" data-y="4.19" data-x="1589155200" r="1" fill="white"><title>2020-05-11: 4</title></circle>
	<circle cx="120.57" cy="346.87" data-y="4.05" data-x="1589241600" r="1" fill="white"><title>2020-05-12: 4</title></circle>
	<circle cx="122.06" cy="346.87" data-y="4.05" data-x="1589328000" r="1" fill="white"><title>2020-05-13: 4</title></circle>
	<circle cx="123.56" cy="349.78" data-y="3.63" data-x="1589414400" r="1" fill="white"><title>2020-05-14: 4</title></circle>
	<circle cx="125.05" cy="350.75" data-y="3.49" data-x="1589500800" r="1" fill="white"><title>2020-05-15: 3</title></circle>
	<circle cx="126.54" cy="354.63" data-y="2.93" data-x="1589587200" r="1" fill="white"><title>2020-05-16: 3</title></circle>
	<circle cx="128.04" cy="351.72" data-y="3.35" data-x="1589673600" r="1" fill="white"><title>2020-05-17: 3</title></circle>
	<circle cx="129.53" cy="354.63" data-y="2.93" data-x="1589760000" r="1" fill="white"><title>2020-05-18: 3</title></circle>
	<circle cx="131.02" cy="359.48" data-y="2.24" data-x="1589846400" r="1" fill="white"><title>2020-05-19: 2</title></circle>
	<circle cx="132.52" cy="361.42" data-y="1.96" data-x="1589932800" r="1" fill="white"><title>2020-05-20: 2</title></circle>
	<circle cx="134.01" cy="358.51" data-y="2.38" data-x="1590019200" r="1" fill="white"><title>2020-05-21: 2</title></circle>
	<circle cx="135.50" cy="360.45" data-y="2.10" data-x="1590105600" r="1" fill="white"><title>2020-05-22: 2</title></circle>
	<circle cx="137.00" cy="364.33" data-y="1.54" data-x="1590192000" r="1" fill="white"><title>2020-05-23: 2</title></circle>
	<circle cx="138.49" cy="362.39" data-y="1.82" data-x="1590278400" r="1" fill="white"><title>2020-05-24: 2</title></circle>
	<circle cx="139.98" cy="361.42" data-y="1.96" data-x="1590364800" r="1" fill="white"><title>2020-05-25: 2</title></circle>
	<circle cx="141.48" cy="362.39" data-y="1.82" data-x="1590451200" r="1" fill="white"><title>2020-05-26: 2</title></circle>
	<circle cx="142.97" cy="362.39" data-y="1.82" data-x="1590537600" r="1" fill="white"><title>2020-05-27: 2</title></circle>
	<circle cx="144.46" cy="365.30" data-y="1.40" data-x="1590624000" r="1" fill="white"><title>2020-05-28: 1</title></circle>
	<circle cx="145.96" cy="366.27" data-y="1.26" data-x="1590710400" r="1" fill="white"><title>2020-05-29: 1</title></circle>
	<circle cx="147.45" cy="367.24" data-y="1.12" data-x="1590796800" r="1" fill="white"><title>2020-05-30: 1</title></circle>
	<circle cx="148.94" cy="372.09" data-y="0.42" data-x="1590883200" r="1" fill="white"><title>2020-05-31: 0</title></circle>
	<circle cx="150.44" cy="372.09" data-y="0.42" data-x="1590969600" r="1" fill="white"><title>2020-06-01: 0</title></circle>
	<circle cx="151.93" cy="371.12" data-y="0.56" data-x="1591056000" r="1" fill="white"><title>2020-06-02: 1</title></circle>
	<circle cx="153.42" cy="371.12" data-y="0.56" data-x="1591142400" r="1" fill="white"><title>2020-06-03: 1</title></circle>
	<circle cx="154.92" cy="371.12" data-y="0.56" data-x="1591228800" r="1" fill="white"><title>2020-06-04: 1</title></circle>
	<circle cx="156.41" cy="370.15" data-y="0.70" data-x="1591315200" r="1" fill="white"><title>2020-06-05: 1</title></circle>
	<circle cx="157.90" cy="370.15" data-y="0.70" data-x="1591401600" r="1" fill="white"><title>2020-06-06: 1</title></circle>
	<circle cx="159.40" cy="369.18" data-y="0.84" data-x="1591488000" r="1" fill="white"><title>2020-06-07: 1</title></circle>
	<circle cx="160.89" cy="370.15" data-y="0.70" data-x="1591574400" r="1" fill="white"><title>2020-06-08: 1</title></circle>
	<circle cx="162.38" cy="372.09" data-y="0.42" data-x="1591660800" r="1" fill="white"><title>2020-06-09: 0</title></circle>
	<circle cx="163.88" cy="372.09" data-y="0.42" data-x="1591747200" r="1" fill="white"><title>2020-06-10: 0</title></circle>
	<circle cx="165.37" cy="372.09" data-y="0.42" data-x="1591833600" r="1" fill="white"><title>2020-06-11: 0</title></circle>
	<circle cx="166.86" cy="371.12" data-y="0.56" data-x="1591920000" r="1" fill="white"><title>2020-06-12: 1</title></circle>
	<circle cx="168.36" cy="371.12" data-y="0.56" data-x="1592006400" r="1" fill="white"><title>2020-06-13: 1</title></circle>
	<circle cx="169.85" cy="372.09" data-y="0.42" data-x="1592092800" r="1" fill="white"><title>2020-06-14: 0</title></circle>
	<circle cx="171.34" cy="372.09" data-y="0.42" data-x="1592179200" r="1" fill="white"><title>2020-06-15: 0</title></circle>
	<circle cx="172.84" cy="370.15" data-y="0.70" data-x="1592265600" r="1" fill="white"><title>2020-06-16: 1</title></circle>
	<circle cx="174.33" cy="370.15" data-y="0.70" data-x="1592352000" r="1" fill="white"><title>2020-06-17: 1</title></circle>
	<circle cx="175.82" cy="369.18" data-y="0.84" data-x="1592438400" r="1" fill="white"><title>2020-06-18: 1</title></circle>
	<circle cx="177.32" cy="371.12" data-y="0.56" data-x="1592524800" r="1" fill="white"><title>2020-06-19: 1</title></circle>
	<circle cx="178.81" cy="371.12" data-y="0.56" data-x="1592611200" r="1" fill="white"><title>2020-06-20: 1</title></circle>
	<circle cx="180.30" cy="371.12" data-y="0.56" data-x="1592697600" r="1" fill="white"><title>2020-06-21: 1</title></circle>
	<circle cx="181.80" cy="371.12" data-y="0.56" data-x="1592784000" r="1" fill="white"><title>2020-06-22: 1</title></circle>
	<circle cx="183.29" cy="373.06" data-y="0.28" data-x="1592870400" r="1" fill="white"><title>2020-06-23: 0</title></circle>
	<circle cx="184.78" cy="372.09" data-y="0.42" data-x="1592956800" r="1" fill="white"><title>2020-06-24: 0</title></circle>
	<circle cx="186.28" cy="373.06" data-y="0.28" data-x="1593043200" r="1" fill="white"><title>2020-06-25: 0</title></circle>
	<circle cx="187.77" cy="373.06" data-y="0.28" data-x="1593129600" r="1" fill="white"><title>2020-06-26: 0</title></circle>
	<circle cx="189.26" cy="373.06" data-y="0.28" data-x="1593216000" r="1" fill="white"><title>2020-06-27: 0</title></circle>
	<circle cx="190.76" cy="372.09" data-y="0.42" data-x="1593302400" r="1" fill="white"><title>2020-06-28: 0</title></circle>
	<circle cx="192.25" cy="373.06" data-y="0.28" data-x="1593388800" r="1" fill="white"><title>2020-06-29: 0</title></circle>
	<circle cx="193.74" cy="372.09" data-y="0.42" data-x="1593475200" r="1" fill="white"><title>2020-06-30: 0</title></circle>
	<circle cx="195.23" cy="373.06" data-y="0.28" data-x="1593561600" r="1" fill="white"><title>2020-07-01: 0</title></circle>
	<circle cx="196.73" cy="373.06" data-y="0.28" data-x="1593648000" r="1" fill="white"><title>2020-07-02: 0</title></circle>
	<circle cx="198.22" cy="373.06" data-y="0.28" data-x="1593734400" r="1" fill="white"><title>2020-07-03: 0</title></circle>
	<circle cx="199.71" cy="373.06" data-y="0.28" data-x="1593820800" r="1" fill="white"><title>2020-07-04: 0</title></circle>
	<circle cx="201.21" cy="374.03" data-y="0.14" data-x="1593907200" r="1" fill="white"><title>2020-07-05: 0</title></circle>
	<circle cx="202.70" cy="374.03" data-y="0.14" data-x="1593993600" r="1" fill="white"><title>2020-07-06: 0</title></circle>
	<circle cx="204.19" cy="375.00" data-y="0.00" data-x="1594080000" r="1" fill="white"><title>2020-07-07: 0</title></circle>
	<circle cx="205.69" cy="375.00" data-y="0.00" data-x="1594166400" r="1" fill="white"><title>2020-07-08: 0</title></circle>
	<circle cx="207.18" cy="375.00" data-y="0.00" data-x="1594252800" r="1" fill="white"><title>2020-07-09: 0</title></circle>
	<circle cx="208.67" cy="375.00" data-y="0.00" data-x="1594339200" r="1" fill="white"><title>2020-07-10: 0</title></circle>
	<circle cx="210.17" cy="375.00" data-y="0.00" data-x="1594425600" r="1" fill="white"><title>2020-07-11: 0</title></circle>
	<circle cx="211.66" cy="374.03" data-y="0.14" data-x="1594512000" r="1" fill="white"><title>2020-07-12: 0</title></circle>
	<circle cx="213.15" cy="373.06" data-y="0.28" data-x="1594598400" r="1" fill="white"><title>2020-07-13: 0</title></circle>
	<circle cx="214.65" cy="373.06" data-y="0.28" data-x="1594684800" r="1" fill="white"><title>2020-07-14: 0</title></circle>
	<circle cx="216.14" cy="373.06" data-y="0.28" data-x="1594771200" r="1" fill="white"><title>2020-07-15: 0</title></circle>
	<circle cx="217.63" cy="373.06" data-y="0.28" data-x="1594857600" r="1" fill="white"><title>2020-07-16: 0</title></circle>
	<circle cx="219.13" cy="373.06" data-y="0.28" data-x="1594944000" r="1" fill="white"><title>2020-07-17: 0</title></circle>
	<circle cx="220.62" cy="373.06" data-y="0.28" data-x="1595030400" r="1" fill="white"><title>2020-07-18: 0</title></circle>
	<circle cx="222.11" cy="374.03" data-y="0.14" data-x="1595116800" r="1" fill="white"><title>2020-07-19: 0</title></circle>
	<circle cx="223.61" cy="375.00" data-y="0.00" data-x="1595203200" r="1" fill="white"><title>2020-07-20: 0</title></circle>
	<circle cx="225.10" cy="375.00" data-y="0.00" data-x="1595289600" r="1" fill="white"><title>2020-07-21: 0</title></circle>
	<circle cx="226.59" cy="374.03" data-y="0.14" data-x="1595376000" r="1" fill="white"><title>2020-07-22: 0</title></circle>
	<circle cx="228.09" cy="374.03" data-y="0.14" data-x="1595462400" r="1" fill="white"><title>2020-07-23: 0</title></circle>
	<circle cx="229.58" cy="374.03" data-y="0.14" data-x="1595548800" r="1" fill="white"><title>2020-07-24: 0</title></circle>
	<circle cx="231.07" cy="374.03" data-y="0.14" data-x="1595635200" r="1" fill="white"><title>2020-07-25: 0</title></circle>
	<circle cx="232.57" cy="374.03" data-y="0.14" data-x="1595721600" r="1" fill="white"><title>2020-07-26: 0</title></circle>
	<circle cx="234.06" cy="374.03" data-y="0.14" data-x="1595808000" r="1" fill="white"><title>2020-07-27: 0</title></circle>
	<circle cx="235.55" cy="374.03" data-y="0.14" data-x="1595894400" r="1" fill="white"><title>2020-07-28: 0</title></circle>
	<circle cx="237.05" cy="375.00" data-y="0.00" data-x="1595980800" r="1" fill="white"><title>2020-07-29: 0</title></circle>
	<circle cx="238.54" cy="375.00" data-y="0.00" data-x="1596067200" r="1" fill="white"><title>2020-07-30: 0</title></circle>
	<circle cx="240.03" cy="375.00" data-y="0.00" data-x="1596153600" r="1" fill="white"><title>2020-07-31: 0</title></circle>
	<circle cx="241.53" cy="375.00" data-y="0.00" data-x="1596240000" r="1" fill="white"><title>2020-08-01: 0</title></circle>
	<circle cx="243.02" cy="375.00" data-y="0.00" data-x="1596326400" r="1" fill="white"><title>2020-08-02: 0</title></circle>
	<circle cx="244.51" cy="375.00" data-y="0.00" data-x="1596412800" r="1" fill="white"><title>2020-08-03: 0</title></circle>
	<circle cx="246.01" cy="375.00" data-y="0.00" data-x="1596499200" r="1" fill="white"><title>2020-08-04: 0</title></circle>
	<circle cx="247.50" cy="375.00" data-y="0.00" data-x="1596585600" r="1" fill="white"><title>2020-08-05: 0</title></circle>
	<circle cx="248.99" cy="375.00" data-y="0.00" data-x="1596672000" r="1" fill="white"><title>2020-08-06: 0</title></circle>
	<circle cx="250.49" cy="375.00" data-y="0.00" data-x="1596758400" r="1" fill="white"><title>2020-08-07: 0</title></circle>
	<circle cx="251.98" cy="375.00" data-y="0.00" data-x="1596844800" r="1" fill="white"><title>2020-08-08: 0</title></circle>
	<circle cx="253.47" cy="375.00" data-y="0.00" data-x="1596931200" r="1" fill="white"><title>2020-08-09: 0</title></circle>
	<circle cx="254.97" cy="373.06" data-y="0.28" data-x="1597017600" r="1" fill="white"><title>2020-08-10: 0</title></circle>
	<circle cx="256.46" cy="373.06" data-y="0.28" data-x="1597104000" r="1" fill="white"><title>2020-08-11: 0</title></circle>
	<circle cx="257.95" cy="370.15" data-y="0.70" data-x="1597190400" r="1" fill="white"><title>2020-08-12: 1</title></circle>
	<circle cx="259.45" cy="370.15" data-y="0.70" data-x="1597276800" r="1" fill="white"><title>2020-08-13: 1</title></circle>
	<circle cx="260.94" cy="368.21" data-y="0.98" data-x="1597363200" r="1" fill="white"><title>2020-08-14: 1</title></circle>
	<circle cx="262.43" cy="366.27" data-y="1.26" data-x="1597449600" r="1" fill="white"><title>2020-08-15: 1</title></circle>
	<circle cx="263.93" cy="366.27" data-y="1.26" data-x="1597536000" r="1" fill="white"><title>2020-08-16: 1</title></circle>
	<circle cx="265.42" cy="368.21" data-y="0.98" data-x="1597622400" r="1" fill="white"><title>2020-08-17: 1</title></circle>
	<circle cx="266.91" cy="367.24" data-y="1.12" data-x="1597708800" r="1" fill="white"><title>2020-08-18: 1</title></circle>
	<circle cx="268.41" cy="370.15" data-y="0.70" data-x="1597795200" r="1" fill="white"><title>2020-08-19: 1</title></circle>
	<circle cx="269.90" cy="370.15" data-y="0.70" data-x="1597881600" r="1" fill="white"><title>2020-08-20: 1</title></circle>
	<circle cx="271.39" cy="370.15" data-y="0.70" data-x="1597968000" r="1" fill="white"><title>2020-08-21: 1</title></circle>
	<circle cx="272.89" cy="368.21" data-y="0.98" data-x="1598054400" r="1" fill="white"><title>2020-08-22: 1</title></circle>
	<circle cx="274.38" cy="365.30" data-y="1.40" data-x="1598140800" r="1" fill="white"><title>2020-08-23: 1</title></circle>
	<circle cx="275.87" cy="365.30" data-y="1.40" data-x="1598227200" r="1" fill="white"><title>2020-08-24: 1</title></circle>
	<circle cx="277.37" cy="365.30" data-y="1.40" data-x="1598313600" r="1" fill="white"><title>2020-08-25: 1</title></circle>
	<circle cx="278.86" cy="365.30" data-y="1.40" data-x="1598400000" r="1" fill="white"><title>2020-08-26: 1</title></circle>
	<circle cx="280.35" cy="365.30" data-y="1.40" data-x="1598486400" r="1" fill="white"><title>2020-08-27: 1</title></circle>
	<circle cx="281.85" cy="366.27" data-y="1.26" data-x="1598572800" r="1" fill="white"><title>2020-08-28: 1</title></circle>
	<circle cx="283.34" cy="370.15" data-y="0.70" data-x="1598659200" r="1" fill="white"><title>2020-08-29: 1</title></circle>
	<circle cx="284.83" cy="369.18" data-y="0.84" data-x="1598745600" r="1" fill="white"><title>2020-08-30: 1</title></circle>
	<circle cx="286.33" cy="367.24" data-y="1.12" data-x="1598832000" r="1" fill="white"><title>2020-08-31: 1</title></circle>
	<circle cx="287.82" cy="367.24" data-y="1.12" data-x="1598918400" r="1" fill="white"><title>2020-09-01: 1</title></circle>
	<circle cx="289.31" cy="367.24" data-y="1.12" data-x="1599004800" r="1" fill="white"><title>2020-09-02: 1</title></circle>
	<circle cx="290.81" cy="366.27" data-y="1.26" data-x="1599091200" r="1" fill="white"><title>2020-09-03: 1</title></circle>
	<circle cx="292.30" cy="362.39" data-y="1.82" data-x="1599177600" r="1" fill="white"><title>2020-09-04: 2</title></circle>
	<circle cx="293.79" cy="358.51" data-y="2.38" data-x="1599264000" r="1" fill="white"><title>2020-09-05: 2</title></circle>
	<circle cx="295.29" cy="358.51" data-y="2.38" data-x="1599350400" r="1" fill="white"><title>2020-09-06: 2</title></circle>
	<circle cx="296.78" cy="358.51" data-y="2.38" data-x="1599436800" r="1" fill="white"><title>2020-09-07: 2</title></circle>
	<circle cx="298.27" cy="356.57" data-y="2.65" data-x="1599523200" r="1" fill="white"><title>2020-09-08: 3</title></circle>
	<circle cx="299.77" cy="355.60" data-y="2.79" data-x="1599609600" r="1" fill="white"><title>2020-09-09: 3</title></circle>
	<circle cx="301.26" cy="353.66" data-y="3.07" data-x="1599696000" r="1" fill="white"><title>2020-09-10: 3</title></circle>
	<circle cx="302.75" cy="352.69" data-y="3.21" data-x="1599782400" r="1" fill="white"><title>2020-09-11: 3</title></circle>
	<circle cx="304.24" cy="352.69" data-y="3.21" data-x="1599868800" r="1" fill="white"><title>2020-09-12: 3</title></circle>
	<circle cx="305.74" cy="352.69" data-y="3.21" data-x="1599955200" r="1" fill="white"><title>2020-09-13: 3</title></circle>
	<circle cx="307.23" cy="351.72" data-y="3.35" data-x="1600041600" r="1" fill="white"><title>2020-09-14: 3</title></circle>
	<circle cx="308.72" cy="349.78" data-y="3.63" data-x="1600128000" r="1" fill="white"><title>2020-09-15: 4</title></circle>
	<circle cx="310.22" cy="345.90" data-y="4.19" data-x="1600214400" r="1" fill="white"><title>2020-09-16: 4</title></circle>
	<circle cx="311.71" cy="343.96" data-y="4.47" data-x="1600300800" r="1" fill="white"><title>2020-09-17: 4</title></circle>
	<circle cx="313.20" cy="344.93" data-y="4.33" data-x="1600387200" r="1" fill="white"><title>2020-09-18: 4</title></circle>
	<circle cx="314.70" cy="337.17" data-y="5.45" data-x="1600473600" r="1" fill="white"><title>2020-09-19: 5</title></circle>
	<circle cx="316.19" cy="328.44" data-y="6.71" data-x="1600560000" r="1" fill="white"><title>2020-09-20: 7</title></circle>
	<circle cx="317.68" cy="323.58" data-y="7.41" data-x="1600646400" r="1" fill="white"><title>2020-09-21: 7</title></circle>
	<circle cx="319.18" cy="321.64" data-y="7.68" data-x="1600732800" r="1" fill="white"><title>2020-09-22: 8</title></circle>
	<circle cx="320.67" cy="323.58" data-y="7.41" data-x="1600819200" r="1" fill="white"><title>2020-09-23: 7</title></circle>
	<circle cx="322.16" cy="324.55" data-y="7.27" data-x="1600905600" r="1" fill="white"><title>2020-09-24: 7</title></circle>
	<circle cx="323.66" cy="323.58" data-y="7.41" data-x="1600992000" r="1" fill="white"><title>2020-09-25: 7</title></circle>
	<circle cx="325.15" cy="329.41" data-y="6.57" data-x="1601078400" r="1" fill="white"><title>2020-09-26: 7</title></circle>
	<circle cx="326.64" cy="333.29" data-y="6.01" data-x="1601164800" r="1" fill="white"><title>2020-09-27: 6</title></circle>
	<circle cx="328.14" cy="329.41" data-y="6.57" data-x="1601251200" r="1" fill="white"><title>2020-09-28: 7</title></circle>
	<circle cx="329.63" cy="329.41" data-y="6.57" data-x="1601337600" r="1" fill="white"><title>2020-09-29: 7</title></circle>
	<circle cx="331.12" cy="325.52" data-y="7.13" data-x="1601424000" r="1" fill="white"><title>2020-09-30: 7</title></circle>
	<circle cx="332.62" cy="317.76" data-y="8.24" data-x="1601510400" r="1" fill="white"><title>2020-10-01: 8</title></circle>
	<circle cx="334.11" cy="297.39" data-y="11.18" data-x="1601596800" r="1" fill="white"><title>2020-10-02: 11</title></circle>
	<circle cx="335.60" cy="291.57" data-y="12.02" data-x="1601683200" r="1" fill="white"><title>2020-10-03: 12</title></circle>
	<circle cx="337.10" cy="290.60" data-y="12.16" data-x="1601769600" r="1" fill="white"><title>2020-10-04: 12</title></circle>
	<circle cx="338.59" cy="287.69" data-y="12.57" data-x="1601856000" r="1" fill="white"><title>2020-10-05: 13</title></circle>
	<circle cx="340.08" cy="277.02" data-y="14.11" data-x="1601942400" r="1" fill="white"><title>2020-10-06: 14</title></circle>
	<circle cx="341.58" cy="272.17" data-y="14.81" data-x="1602028800" r="1" fill="white"><title>2020-10-07: 15</title></circle>
	<circle cx="343.07" cy="273.14" data-y="14.67" data-x="1602115200" r="1" fill="white"><title>2020-10-08: 15</title></circle>
	<circle cx="344.56" cy="285.75" data-y="12.85" data-x="1602201600" r="1" fill="white"><title>2020-10-09: 13</title></circle>
	<circle cx="346.06" cy="285.75" data-y="12.85" data-x="1602288000" r="1" fill="white"><title>2020-10-10: 13</title></circle>
	<circle cx="347.55" cy="286.72" data-y="12.71" data-x="1602374400" r="1" fill="white"><title>2020-10-11: 13</title></circle>
	<circle cx="349.04" cy="289.63" data-y="12.30" data-x="1602460800" r="1" fill="white"><title>2020-10-12: 12</title></circle>
	<circle cx="350.54" cy="294.48" data-y="11.60" data-x="1602547200" r="1" fill="white"><title>2020-10-13: 12</title></circle>
	<circle cx="352.03" cy="297.39" data-y="11.18" data-x="1602633600" r="1" fill="white"><title>2020-10-14: 11</title></circle>
	<circle cx="353.52" cy="298.36" data-y="11.04" data-x="1602720000" r="1" fill="white"><title>2020-10-15: 11</title></circle>
	<circle cx="355.02" cy="296.42" data-y="11.32" data-x="1602806400" r="1" fill="white"><title>2020-10-16: 11</title></circle>
	<circle cx="356.51" cy="277.99" data-y="13.97" data-x="1602892800" r="1" fill="white"><title>2020-10-17: 14</title></circle>
	<circle cx="358.00" cy="275.08" data-y="14.39" data-x="1602979200" r="1" fill="white"><title>2020-10-18: 14</title></circle>
	<circle cx="359.50" cy="272.17" data-y="14.81" data-x="1603065600" r="1" fill="white"><title>2020-10-19: 15</title></circle>
	<circle cx="360.99" cy="266.35" data-y="15.65" data-x="1603152000" r="1" fill="white"><title>2020-10-20: 16</title></circle>
	<circle cx="362.48" cy="264.41" data-y="15.93" data-x="1603238400" r="1" fill="white"><title>2020-10-21: 16</title></circle>
	<circle cx="363.98" cy="261.50" data-y="16.35" data-x="1603324800" r="1" fill="white"><title>2020-10-22: 16</title></circle>
	<circle cx="365.47" cy="251.80" data-y="17.74" data-x="1603411200" r="1" fill="white"><title>2020-10-23: 18</title></circle>
	<circle cx="366.96" cy="258.59" data-y="16.77" data-x="1603497600" r="1" fill="white"><title>2020-10-24: 17</title></circle>
	<circle cx="368.46" cy="242.10" data-y="19.14" data-x="1603584000" r="1" fill="white"><title>2020-10-25: 19</title></circle>
	<circle cx="369.95" cy="215.90" data-y="22.91" data-x="1603670400" r="1" fill="white"><title>2020-10-26: 23</title></circle>
	<circle cx="371.44" cy="192.62" data-y="26.27" data-x="1603756800" r="1" fill="white"><title>2020-10-27: 26</title></circle>
	<circle cx="372.94" cy="181.95" data-y="27.80" data-x="1603843200" r="1" fill="white"><title>2020-10-28: 28</title></circle>
	<circle cx="374.43" cy="166.43" data-y="30.04" data-x="1603929600" r="1" fill="white"><title>2020-10-29: 30</title></circle>
	<circle cx="375.92" cy="142.18" data-y="33.53" data-x="1604016000" r="1" fill="white"><title>2020-10-30: 34</title></circle>
	<circle cx="377.42" cy="118.89" data-y="36.89" data-x="1604102400" r="1" fill="white"><title>2020-10-31: 37</title></circle>
	<circle cx="378.91" cy="113.07" data-y="37.72" data-x="1604188800" r="1" fill="white"><title>2020-11-01: 38</title></circle>
	<circle cx="380.40" cy="112.10" data-y="37.86" data-x="1604275200" r="1" fill="white"><title>2020-11-02: 38</title></circle>
	<circle cx="381.90" cy="106.28" data-y="38.70" data-x="1604361600" r="1" fill="white"><title>2020-11-03: 39</title></circle>
	<circle cx="383.39" cy="103.37" data-y="39.12" data-x="1604448000" r="1" fill="white"><title>2020-11-04: 39</title></circle>
	<circle cx="384.88" cy="104.34" data-y="38.98" data-x="1604534400" r="1" fill="white"><title>2020-11-05: 39</title></circle>
	<circle cx="386.38" cy="95.61" data-y="40.24" data-x="1604620800" r="1" fill="white"><title>2020-11-06: 40</title></circle>
	<circle cx="387.87" cy="114.04" data-y="37.59" data-x="1604707200" r="1" fill="white"><title>2020-11-07: 38</title></circle>
	<circle cx="389.36" cy="94.64" data-y="40.38" data-x="1604793600" r="1" fill="white"><title>2020-11-08: 40</title></circle>
	<circle cx="390.86" cy="91.73" data-y="40.80" data-x="1604880000" r="1" fill="white"><title>2020-11-09: 41</title></circle>
	<circle cx="392.35" cy="106.28" data-y="38.70" data-x="1604966400" r="1" fill="white"><title>2020-11-10: 39</title></circle>
	<circle cx="393.84" cy="102.40" data-y="39.26" data-x="1605052800" r="1" fill="white"><title>2020-11-11: 39</title></circle>
	<circle cx="395.34" cy="103.37" data-y="39.12" data-x="1605139200" r="1" fill="white"><title>2020-11-12: 39</title></circle>
	<circle cx="396.83" cy="106.28" data-y="38.70" data-x="1605225600" r="1" fill="white"><title>2020-11-13: 39</title></circle>
	<circle cx="398.32" cy="102.40" data-y="39.26" data-x="1605312000" r="1" fill="white"><title>2020-11-14: 39</title></circle>
	<circle cx="399.82" cy="117.92" data-y="37.03" data-x="1605398400" r="1" fill="white"><title>2020-11-15: 37</title></circle>
	<circle cx="401.31" cy="128.59" data-y="35.49" data-x="1605484800" r="1" fill="white"><title>2020-11-16: 35</title></circle>
	<circle cx="402.80" cy="137.33" data-y="34.23" data-x="1605571200" r="1" fill="white"><title>2020-11-17: 34</title></circle>
	<circle cx="404.30" cy="142.18" data-y="33.53" data-x="1605657600" r="1" fill="white"><title>2020-11-18: 34</title></circle>
	<circle cx="405.79" cy="151.88" data-y="32.14" data-x="1605744000" r="1" fill="white"><title>2020-11-19: 32</title></circle>
	<circle cx="407.28" cy="177.10" data-y="28.50" data-x="1605830400" r="1" fill="white"><title>2020-11-20: 29</title></circle>
	<circle cx="408.78" cy="178.07" data-y="28.36" data-x="1605916800" r="1" fill="white"><title>2020-11-21: 28</title></circle>
	<circle cx="410.27" cy="198.44" data-y="25.43" data-x="1606003200" r="1" fill="white"><title>2020-11-22: 25</title></circle>
	<circle cx="411.76" cy="223.66" data-y="21.80" data-x="1606089600" r="1" fill="white"><title>2020-11-23: 22</title></circle>
	<circle cx="413.26" cy="231.43" data-y="20.68" data-x="1606176000" r="1" fill="white"><title>2020-11-24: 21</title></circle>
	<circle cx="414.75" cy="236.28" data-y="19.98" data-x="1606262400" r="1" fill="white"><title>2020-11-25: 20</title></circle>
	<circle cx="416.24" cy="247.92" data-y="18.30" data-x="1606348800" r="1" fill="white"><title>2020-11-26: 18</title></circle>
	<circle cx="417.73" cy="260.53" data-y="16.49" data-x="1606435200" r="1" fill="white"><title>2020-11-27: 16</title></circle>
	<circle cx="419.23" cy="275.08" data-y="14.39" data-x="1606521600" r="1" fill="white"><title>2020-11-28: 14</title></circle>
	<circle cx="420.72" cy="281.87" data-y="13.41" data-x="1606608000" r="1" fill="white"><title>2020-11-29: 13</title></circle>
	<circle cx="422.21" cy="280.90" data-y="13.55" data-x="1606694400" r="1" fill="white"><title>2020-11-30: 14</title></circle>
	<circle cx="423.71" cy="284.78" data-y="12.99" data-x="1606780800" r="1" fill="white"><title>2020-12-01: 13</title></circle>
	<circle cx="425.20" cy="293.51" data-y="11.74" data-x="1606867200" r="1" fill="white"><title>2020-12-02: 12</title></circle>
	<circle cx="426.69" cy="283.81" data-y="13.13" data-x="1606953600" r="1" fill="white"><title>2020-12-03: 13</title></circle>
	<circle cx="428.19" cy="276.05" data-y="14.25" data-x="1607040000" r="1" fill="white"><title>2020-12-04: 14</title></circle>
	<circle cx="429.68" cy="274.11" data-y="14.53" data-x="1607126400" r="1" fill="white"><title>2020-12-05: 15</title></circle>
	<circle cx="431.17" cy="265.38" data-y="15.79" data-x="1607212800" r="1" fill="white"><title>2020-12-06: 16</title></circle>
	<circle cx="432.67" cy="258.59" data-y="16.77" data-x="1607299200" r="1" fill="white"><title>2020-12-07: 17</title></circle>
	<circle cx="434.16" cy="247.92" data-y="18.30" data-x="1607385600" r="1" fill="white"><title>2020-12-08: 18</title></circle>
	<circle cx="435.65" cy="236.28" data-y="19.98" data-x="1607472000" r="1" fill="white"><title>2020-12-09: 20</title></circle>
	<circle cx="437.15" cy="232.40" data-y="20.54" data-x="1607558400" r="1" fill="white"><title>2020-12-10: 21</title></circle>
	<circle cx="438.64" cy="237.25" data-y="19.84" data-x="1607644800" r="1" fill="white"><title>2020-12-11: 20</title></circle>
	<circle cx="440.13" cy="233.37" data-y="20.40" data-x="1607731200" r="1" fill="white"><title>2020-12-12: 20</title></circle>
	<circle cx="441.63" cy="229.49" data-y="20.96" data-x="1607817600" r="1" fill="white"><title>2020-12-13: 21</title></circle>
	<circle cx="443.12" cy="208.14" data-y="24.03" data-x="1607904000" r="1" fill="white"><title>2020-12-14: 24</title></circle>
	<circle cx="444.61" cy="205.23" data-y="24.45" data-x="1607990400" r="1" fill="white"><title>2020-12-15: 24</title></circle>
	<circle cx="446.11" cy="212.02" data-y="23.47" data-x="1608076800" r="1" fill="white"><title>2020-12-16: 23</title></circle>
	<circle cx="447.60" cy="207.17" data-y="24.17" data-x="1608163200" r="1" fill="white"><title>2020-12-17: 24</title></circle>
	<circle cx="449.09" cy="184.86" data-y="27.39" data-x="1608249600" r="1" fill="white"><title>2020-12-18: 27</title></circle>
	<circle cx="450.59" cy="160.61" data-y="30.88" data-x="1608336000" r="1" fill="white"><title>2020-12-19: 31</title></circle>
	<circle cx="452.08" cy="157.70" data-y="31.30" data-x="1608422400" r="1" fill="white"><title>2020-12-20: 31</title></circle>
	<circle cx="453.57" cy="175.16" data-y="28.78" data-x="1608508800" r="1" fill="white"><title>2020-12-21: 29</title></circle>
	<circle cx="455.07" cy="189.71" data-y="26.69" data-x="1608595200" r="1" fill="white"><title>2020-12-22: 27</title></circle>
	<circle cx="456.56" cy="164.49" data-y="30.32" data-x="1608681600" r="1" fill="white"><title>2020-12-23: 30</title></circle>
	<circle cx="458.05" cy="151.88" data-y="32.14" data-x="1608768000" r="1" fill="white"><title>2020-12-24: 32</title></circle>
	<circle cx="459.55" cy="145.09" data-y="33.11" data-x="1608854400" r="1" fill="white"><title>2020-12-25: 33</title></circle>
	<circle cx="461.04" cy="112.10" data-y="37.86" data-x="1608940800" r="1" fill="white"><title>2020-12-26: 38</title></circle>
	<circle cx="462.53" cy="70.39" data-y="43.87" data-x="1609027200" r="1" fill="white"><title>2020-12-27: 44</title></circle>
</g>
<g data-series="recent-cases" class="data-series">
	<path d="M 462.53,70.39L 464.03,32.55L 465.52,41.29L 467.01,32.07L 468.51,13.73L 470.00,10.00" id="Recent cases" class="line" stroke-width="1" stroke-linecap="round" stroke-dasharray="4,6" stroke-dashoffset="4"><title>Recent cases</title></path>
	<circle cx="462.53" cy="70.39" data-y="43.87" data-x="1609027200" r="2.5" fill="white"><title>2020-12-27: 44</title></circle>
	<circle cx="464.03" cy="32.55" data-y="49.32" data-x="1609113600" r="2.5" fill="white"><title>2020-12-28: 49</title></circle>
	<circle cx="465.52" cy="41.29" data-y="48.06" data-x="1609200000" r="2.5" fill="white"><title>2020-12-29: 48</title></circle>
	<circle cx="467.01" cy="32.07" data-y="49.39" data-x="1609286400" r="2.5" fill="white"><title>2020-12-30: 49</title></circle>
	<circle cx="468.51" cy="13.73" data-y="52.03" data-x="1609372800" r="2.5" fill="white"><title>2020-12-31: 52</title></circle>
	<circle cx="470.00" cy="10.00" data-y="52.57" data-x="1609459200" r="2.5" fill="white"><title>2021-01-01: 53</title></circle>
</g>
</svg>
