<svg width="480" height="400" viewBox="0 0 480 400" xmlns="http://www.w3.org/2000/svg" style="overflow:display" preserveAspectRatio="xMinYMin meet" overflow="visible">
<defs>
	<style>
	.data-series path.line { fill-opacity: 0; stroke: black; }
	.data-series path.line.dotted { stroke-dasharray: 12 20 }
	.data-series:hover path.line, .data-series.on path.line { stroke-width: 1; }
	.data-series:hover circle, .data-series.on circle { display: inline; }
	.graph-grid { font-family: "Helvetica Neue",Helvetica,Arial,"Lucida Grande",sans-serif; }
	.graph-grid line { stroke: black; stroke-width: 1; stroke-linecap: round; }
	.graph-grid.graph-grid-x text { text-anchor: middle; dominant-baseline: hanging; transform: translateY(10px); }
	.graph-grid.graph-grid-y text { text-anchor: end; dominant-baseline: middle; transform: translateX(-10px); }
	</style>
</defs>
<g class="graph-grid graph-grid-y">
	<line x1="25.00" y1="375.00" x2="470.00" y2="375.00" data-left="25"></line>
	<text x="35" y="375" text-anchor="end">0</text>
	<text x="35" y="218.825855595668" text-anchor="end">10</text>
	<text x="35" y="62.6517111913357" text-anchor="end">20</text>
	<text style="text-anchor:middle;dominant-baseline:hanging;font-weight:bold;transform: translateY(192.5px) rotate(-90deg);"></text>
</g>
<g class="graph-grid graph-grid-x">
	<line class="tick" x1="61.80" y1="375.00" x2="61.80" y2="380.00"></line>
	<text x="61.8045112781955" y="375" text-anchor="middle">A</text>
	<line class="tick" x1="111.99" y1="375.00" x2="111.99" y2="380.00"></line>
	<text x="111.992481203008" y="375" text-anchor="middle">M</text>
	<line class="tick" x1="163.85" y1="375.00" x2="163.85" y2="380.00"></line>
	<text x="163.853383458647" y="375" text-anchor="middle">J</text>
	<line class="tick" x1="214.04" y1="375.00" x2="214.04" y2="380.00"></line>
	<text x="214.041353383459" y="375" text-anchor="middle">J</text>
	<line class="tick" x1="265.90" y1="375.00" x2="265.90" y2="380.00"></line>
	<text x="265.902255639098" y="375" text-anchor="middle">A</text>
	<line class="tick" x1="317.76" y1="375.00" x2="317.76" y2="380.00"></line>
	<text x="317.763157894737" y="375" text-anchor="middle">S</text>
	<line class="tick" x1="367.95" y1="375.00" x2="367.95" y2="380.00"></line>
	<text x="367.951127819549" y="375" text-anchor="middle">O</text>
	<line class="tick" x1="419.81" y1="375.00" x2="419.81" y2="380.00"></line>
	<text x="419.812030075188" y="375" text-anchor="middle">N</text>
	<line class="tick" x1="470.00" y1="375.00" x2="470.00" y2="380.00"></line>
	<text x="470" y="375" text-anchor="middle">D</text>
	<text style="text-anchor:middle;dominant-baseline:hanging;font-weight:bold;transform: translateY(192.5px) rotate(-90deg);"></text>
</g>
<g data-series="widespread" class="data-series">
	<path d="M 25.00,265.68L 470.00,265.68" id="E07000189-level-0" class="line" stroke-width="1" stroke-linecap="round" stroke-dasharray="3,3" fill-opacity="0.3" opacity="0.3"><title>Widespread</title></path>
</g>
<g data-series="substantial" class="data-series">
	<path d="M 25.00,312.53L 470.00,312.53" id="E07000189-level-1" class="line" stroke-width="1" stroke-linecap="round" stroke-dasharray="3,3" fill-opacity="0.3" opacity="0.3"><title>Substantial</title></path>
</g>
<g data-series="moderate" class="data-series">
	<path d="M 25.00,359.38L 470.00,359.38" id="E07000189-level-2" class="line" stroke-width="1" stroke-linecap="round" stroke-dasharray="3,3" fill-opacity="0.3" opacity="0.3"><title>Moderate</title></path>
</g>
<g data-series="new-cases" class="data-series">
	<path d="M 25.00,370.39L 26.67,371.31L 28.35,371.93L 30.02,372.36L 31.69,373.68L 33.36,373.68L 35.04,373.68L 36.71,372.36L 38.38,371.05L 40.06,371.05L 41.73,369.73L 43.40,368.41L 45.08,368.41L 46.75,365.78L 48.42,367.09L 50.09,365.78L 51.77,364.46L 53.44,361.82L 55.11,359.19L 56.79,357.87L 58.46,353.92L 60.13,347.33L 61.80,346.01L 63.48,343.38L 65.15,343.38L 66.82,338.10L 68.50,335.47L 70.17,335.47L 71.84,342.06L 73.52,343.38L 75.19,340.74L 76.86,339.42L 78.53,347.33L 80.21,342.06L 81.88,342.06L 83.55,335.47L 85.23,331.52L 86.90,336.79L 88.57,335.47L 90.24,334.15L 91.92,336.79L 93.59,340.74L 95.26,343.38L 96.94,340.74L 98.61,335.47L 100.28,336.79L 101.95,328.88L 103.63,319.66L 105.30,307.80L 106.97,309.12L 108.65,313.07L 110.32,318.34L 111.99,302.53L 113.67,309.12L 115.34,322.29L 117.01,326.25L 118.68,324.93L 120.36,318.34L 122.03,314.39L 123.70,326.25L 125.38,320.97L 127.05,313.07L 128.72,314.39L 130.39,311.75L 132.07,319.66L 133.74,322.29L 135.41,330.20L 137.09,335.47L 138.76,344.69L 140.43,347.33L 142.11,349.96L 143.78,352.60L 145.45,352.60L 147.12,352.60L 148.80,355.23L 150.47,349.96L 152.14,352.60L 153.82,353.92L 155.49,353.92L 157.16,355.23L 158.83,353.92L 160.51,353.92L 162.18,357.87L 163.85,353.92L 165.53,356.55L 167.20,355.23L 168.87,353.92L 170.55,351.28L 172.22,349.96L 173.89,348.65L 175.56,355.23L 177.24,356.55L 178.91,359.19L 180.58,361.82L 182.26,364.46L 183.93,367.09L 185.60,363.14L 187.27,363.14L 188.95,348.65L 190.62,348.65L 192.29,347.33L 193.97,349.96L 195.64,349.96L 197.31,357.87L 198.98,359.19L 200.66,372.36L 202.33,372.36L 204.00,372.36L 205.68,372.36L 207.35,372.36L 209.02,372.36L 210.70,372.36L 212.37,373.68L 214.04,373.68L 215.71,375.00L 217.39,375.00L 219.06,375.00L 220.73,373.68L 222.41,373.68L 224.08,373.68L 225.75,373.68L 227.42,373.68L 229.10,373.68L 230.77,373.68L 232.44,375.00L 234.12,375.00L 235.79,373.68L 237.46,373.68L 239.14,372.36L 240.81,372.36L 242.48,372.36L 244.15,372.36L 245.83,371.05L 247.50,368.41L 249.17,368.41L 250.85,369.73L 252.52,368.41L 254.19,368.41L 255.86,368.41L 257.54,368.41L 259.21,372.36L 260.88,372.36L 262.56,372.36L 264.23,373.68L 265.90,372.36L 267.58,372.36L 269.25,373.68L 270.92,373.68L 272.59,373.68L 274.27,373.68L 275.94,373.68L 277.61,373.68L 279.29,373.68L 280.96,373.68L 282.63,373.68L 284.30,372.36L 285.98,372.36L 287.65,372.36L 289.32,373.68L 291.00,373.68L 292.67,369.73L 294.34,369.73L 296.02,371.05L 297.69,369.73L 299.36,365.78L 301.03,364.46L 302.71,364.46L 304.38,365.78L 306.05,364.46L 307.73,361.82L 309.40,363.14L 311.07,363.14L 312.74,363.14L 314.42,360.51L 316.09,356.55L 317.76,355.23L 319.44,357.87L 321.11,357.87L 322.78,361.82L 324.45,363.14L 326.13,363.14L 327.80,368.41L 329.47,369.73L 331.15,368.41L 332.82,367.09L 334.49,367.09L 336.17,364.46L 337.84,367.09L 339.51,364.46L 341.18,363.14L 342.86,363.14L 344.53,364.46L 346.20,364.46L 347.88,365.78L 349.55,363.14L 351.22,364.46L 352.89,361.82L 354.57,361.82L 356.24,361.82L 357.91,359.19L 359.59,353.92L 361.26,351.28L 362.93,335.47L 364.61,334.15L 366.28,328.88L 367.95,324.93L 369.62,315.70L 371.30,307.80L 372.97,307.80L 374.64,315.70L 376.32,317.02L 377.99,311.75L 379.66,307.80L 381.33,310.43L 383.01,315.70L 384.68,310.43L 386.35,311.75L 388.03,310.43L 389.70,320.97L 391.37,323.61L 393.05,322.29L 394.72,318.34L 396.39,311.75L 398.06,299.89L 399.74,294.62L 401.41,288.03L 403.08,289.35L 404.76,266.95L 406.43,265.63L 408.10,260.36L 409.77,253.77L 411.45,248.50L 413.12,234.01L 414.79,219.51L 416.47,220.83L 418.14,206.34L 419.81,186.57L 421.48,182.62L 423.16,157.58L 424.83,150.99L 426.50,137.82L 428.18,100.92L 429.85,96.97L 431.52,71.93L 433.20,65.34L 434.87,52.17L 436.54,32.40L 438.21,29.77L 439.89,24.49L 441.56,10.00L 443.23,36.35L 444.91,48.21L 446.58,81.16L 448.25,114.10L 449.92,135.18L 451.60,176.03L 453.27,160.22L 454.94,166.81L 456.62,169.44L 458.29,168.12L 459.96,165.49L 461.64,161.53" id="New cases" class="line" stroke-width="1" stroke-linecap="round"><title>New cases</title></path>
	<circle cx="25.00" cy="370.39" data-y="0.30" data-x="1583798400" r="1" fill="white"><title>2020-03-10: 0</title></circle>
	<circle cx="26.67" cy="371.31" data-y="0.24" data-x="1583884800" r="1" fill="white"><title>2020-03-11: 0</title></circle>
	<circle cx="28.35" cy="371.93" data-y="0.20" data-x="1583971200" r="1" fill="white"><title>2020-03-12: 0</title></circle>
	<circle cx="30.02" cy="372.36" data-y="0.17" data-x="1584057600" r="1" fill="white"><title>2020-03-13: 0</title></circle>
	<circle cx="31.69" cy="373.68" data-y="0.08" data-x="1584144000" r="1" fill="white"><title>2020-03-14: 0</title></circle>
	<circle cx="33.36" cy="373.68" data-y="0.08" data-x="1584230400" r="1" fill="white"><title>2020-03-15: 0</title></circle>
	<circle cx="35.04" cy="373.68" data-y="0.08" data-x="1584316800" r="1" fill="white"><title>2020-03-16: 0</title></circle>
	<circle cx="36.71" cy="372.36" data-y="0.17" data-x="1584403200" r="1" fill="white"><title>2020-03-17: 0</title></circle>
	<circle cx="38.38" cy="371.05" data-y="0.25" data-x="1584489600" r="1" fill="white"><title>2020-03-18: 0</title></circle>
	<circle cx="40.06" cy="371.05" data-y="0.25" data-x="1584576000" r="1" fill="white"><title>2020-03-19: 0</title></circle>
	<circle cx="41.73" cy="369.73" data-y="0.34" data-x="1584662400" r="1" fill="white"><title>2020-03-20: 0</title></circle>
	<circle cx="43.40" cy="368.41" data-y="0.42" data-x="1584748800" r="1" fill="white"><title>2020-03-21: 0</title></circle>
	<circle cx="45.08" cy="368.41" data-y="0.42" data-x="1584835200" r="1" fill="white"><title>2020-03-22: 0</title></circle>
	<circle cx="46.75" cy="365.78" data-y="0.59" data-x="1584921600" r="1" fill="white"><title>2020-03-23: 1</title></circle>
	<circle cx="48.42" cy="367.09" data-y="0.51" data-x="1585008000" r="1" fill="white"><title>2020-03-24: 1</title></circle>
	<circle cx="50.09" cy="365.78" data-y="0.59" data-x="1585094400" r="1" fill="white"><title>2020-03-25: 1</title></circle>
	<circle cx="51.77" cy="364.46" data-y="0.67" data-x="1585180800" r="1" fill="white"><title>2020-03-26: 1</title></circle>
	<circle cx="53.44" cy="361.82" data-y="0.84" data-x="1585267200" r="1" fill="white"><title>2020-03-27: 1</title></circle>
	<circle cx="55.11" cy="359.19" data-y="1.01" data-x="1585353600" r="1" fill="white"><title>2020-03-28: 1</title></circle>
	<circle cx="56.79" cy="357.87" data-y="1.10" data-x="1585440000" r="1" fill="white"><title>2020-03-29: 1</title></circle>
	<circle cx="58.46" cy="353.92" data-y="1.35" data-x="1585526400" r="1" fill="white"><title>2020-03-30: 1</title></circle>
	<circle cx="60.13" cy="347.33" data-y="1.77" data-x="1585612800" r="1" fill="white"><title>2020-03-31: 2</title></circle>
	<circle cx="61.80" cy="346.01" data-y="1.86" data-x="1585699200" r="1" fill="white"><title>2020-04-01: 2</title></circle>
	<circle cx="63.48" cy="343.38" data-y="2.02" data-x="1585785600" r="1" fill="white"><title>2020-04-02: 2</title></circle>
	<circle cx="65.15" cy="343.38" data-y="2.02" data-x="1585872000" r="1" fill="white"><title>2020-04-03: 2</title></circle>
	<circle cx="66.82" cy="338.10" data-y="2.36" data-x="1585958400" r="1" fill="white"><title>2020-04-04: 2</title></circle>
	<circle cx="68.50" cy="335.47" data-y="2.53" data-x="1586044800" r="1" fill="white"><title>2020-04-05: 3</title></circle>
	<circle cx="70.17" cy="335.47" data-y="2.53" data-x="1586131200" r="1" fill="white"><title>2020-04-06: 3</title></circle>
	<circle cx="71.84" cy="342.06" data-y="2.11" data-x="1586217600" r="1" fill="white"><title>2020-04-07: 2</title></circle>
	<circle cx="73.52" cy="343.38" data-y="2.02" data-x="1586304000" r="1" fill="white"><title>2020-04-08: 2</title></circle>
	<circle cx="75.19" cy="340.74" data-y="2.19" data-x="1586390400" r="1" fill="white"><title>2020-04-09: 2</title></circle>
	<circle cx="76.86" cy="339.42" data-y="2.28" data-x="1586476800" r="1" fill="white"><title>2020-04-10: 2</title></circle>
	<circle cx="78.53" cy="347.33" data-y="1.77" data-x="1586563200" r="1" fill="white"><title>2020-04-11: 2</title></circle>
	<circle cx="80.21" cy="342.06" data-y="2.11" data-x="1586649600" r="1" fill="white"><title>2020-04-12: 2</title></circle>
	<circle cx="81.88" cy="342.06" data-y="2.11" data-x="1586736000" r="1" fill="white"><title>2020-04-13: 2</title></circle>
	<circle cx="83.55" cy="335.47" data-y="2.53" data-x="1586822400" r="1" fill="white"><title>2020-04-14: 3</title></circle>
	<circle cx="85.23" cy="331.52" data-y="2.78" data-x="1586908800" r="1" fill="white"><title>2020-04-15: 3</title></circle>
	<circle cx="86.90" cy="336.79" data-y="2.45" data-x="1586995200" r="1" fill="white"><title>2020-04-16: 2</title></circle>
	<circle cx="88.57" cy="335.47" data-y="2.53" data-x="1587081600" r="1" fill="white"><title>2020-04-17: 3</title></circle>
	<circle cx="90.24" cy="334.15" data-y="2.62" data-x="1587168000" r="1" fill="white"><title>2020-04-18: 3</title></circle>
	<circle cx="91.92" cy="336.79" data-y="2.45" data-x="1587254400" r="1" fill="white"><title>2020-04-19: 2</title></circle>
	<circle cx="93.59" cy="340.74" data-y="2.19" data-x="1587340800" r="1" fill="white"><title>2020-04-20: 2</title></circle>
	<circle cx="95.26" cy="343.38" data-y="2.02" data-x="1587427200" r="1" fill="white"><title>2020-04-21: 2</title></circle>
	<circle cx="96.94" cy="340.74" data-y="2.19" data-x="1587513600" r="1" fill="white"><title>2020-04-22: 2</title></circle>
	<circle cx="98.61" cy="335.47" data-y="2.53" data-x="1587600000" r="1" fill="white"><title>2020-04-23: 3</title></circle>
	<circle cx="100.28" cy="336.79" data-y="2.45" data-x="1587686400" r="1" fill="white"><title>2020-04-24: 2</title></circle>
	<circle cx="101.95" cy="328.88" data-y="2.95" data-x="1587772800" r="1" fill="white"><title>2020-04-25: 3</title></circle>
	<circle cx="103.63" cy="319.66" data-y="3.54" data-x="1587859200" r="1" fill="white"><title>2020-04-26: 4</title></circle>
	<circle cx="105.30" cy="307.80" data-y="4.30" data-x="1587945600" r="1" fill="white"><title>2020-04-27: 4</title></circle>
	<circle cx="106.97" cy="309.12" data-y="4.22" data-x="1588032000" r="1" fill="white"><title>2020-04-28: 4</title></circle>
	<circle cx="108.65" cy="313.07" data-y="3.97" data-x="1588118400" r="1" fill="white"><title>2020-04-29: 4</title></circle>
	<circle cx="110.32" cy="318.34" data-y="3.63" data-x="1588204800" r="1" fill="white"><title>2020-04-30: 4</title></circle>
	<circle cx="111.99" cy="302.53" data-y="4.64" data-x="1588291200" r="1" fill="white"><title>2020-05-01: 5</title></circle>
	<circle cx="113.67" cy="309.12" data-y="4.22" data-x="1588377600" r="1" fill="white"><title>2020-05-02: 4</title></circle>
	<circle cx="115.34" cy="322.29" data-y="3.37" data-x="1588464000" r="1" fill="white"><title>2020-05-03: 3</title></circle>
	<circle cx="117.01" cy="326.25" data-y="3.12" data-x="1588550400" r="1" fill="white"><title>2020-05-04: 3</title></circle>
	<circle cx="118.68" cy="324.93" data-y="3.21" data-x="1588636800" r="1" fill="white"><title>2020-05-05: 3</title></circle>
	<circle cx="120.36" cy="318.34" data-y="3.63" data-x="1588723200" r="1" fill="white"><title>2020-05-06: 4</title></circle>
	<circle cx="122.03" cy="314.39" data-y="3.88" data-x="1588809600" r="1" fill="white"><title>2020-05-07: 4</title></circle>
	<circle cx="123.70" cy="326.25" data-y="3.12" data-x="1588896000" r="1" fill="white"><title>2020-05-08: 3</title></circle>
	<circle cx="125.38" cy="320.97" data-y="3.46" data-x="1588982400" r="1" fill="white"><title>2020-05-09: 3</title></circle>
	<circle cx="127.05" cy="313.07" data-y="3.97" data-x="1589068800" r="1" fill="white"><title>2020-05-10: 4</title></circle>
	<circle cx="128.72" cy="314.39" data-y="3.88" data-x="1589155200" r="1" fill="white"><title>2020-05-11: 4</title></circle>
	<circle cx="130.39" cy="311.75" data-y="4.05" data-x="1589241600" r="1" fill="white"><title>2020-05-12: 4</title></circle>
	<circle cx="132.07" cy="319.66" data-y="3.54" data-x="1589328000" r="1" fill="white"><title>2020-05-13: 4</title></circle>
	<circle cx="133.74" cy="322.29" data-y="3.37" data-x="1589414400" r="1" fill="white"><title>2020-05-14: 3</title></circle>
	<circle cx="135.41" cy="330.20" data-y="2.87" data-x="1589500800" r="1" fill="white"><title>2020-05-15: 3</title></circle>
	<circle cx="137.09" cy="335.47" data-y="2.53" data-x="1589587200" r="1" fill="white"><title>2020-05-16: 3</title></circle>
	<circle cx="138.76" cy="344.69" data-y="1.94" data-x="1589673600" r="1" fill="white"><title>2020-05-17: 2</title></circle>
	<circle cx="140.43" cy="347.33" data-y="1.77" data-x="1589760000" r="1" fill="white"><title>2020-05-18: 2</title></circle>
	<circle cx="142.11" cy="349.96" data-y="1.60" data-x="1589846400" r="1" fill="white"><title>2020-05-19: 2</title></circle>
	<circle cx="143.78" cy="352.60" data-y="1.43" data-x="1589932800" r="1" fill="white"><title>2020-05-20: 1</title></circle>
	<circle cx="145.45" cy="352.60" data-y="1.43" data-x="1590019200" r="1" fill="white"><title>2020-05-21: 1</title></circle>
	<circle cx="147.12" cy="352.60" data-y="1.43" data-x="1590105600" r="1" fill="white"><title>2020-05-22: 1</title></circle>
	<circle cx="148.80" cy="355.23" data-y="1.27" data-x="1590192000" r="1" fill="white"><title>2020-05-23: 1</title></circle>
	<circle cx="150.47" cy="349.96" data-y="1.60" data-x="1590278400" r="1" fill="white"><title>2020-05-24: 2</title></circle>
	<circle cx="152.14" cy="352.60" data-y="1.43" data-x="1590364800" r="1" fill="white"><title>2020-05-25: 1</title></circle>
	<circle cx="153.82" cy="353.92" data-y="1.35" data-x="1590451200" r="1" fill="white"><title>2020-05-26: 1</title></circle>
	<circle cx="155.49" cy="353.92" data-y="1.35" data-x="1590537600" r="1" fill="white"><title>2020-05-27: 1</title></circle>
	<circle cx="157.16" cy="355.23" data-y="1.27" data-x="1590624000" r="1" fill="white"><title>2020-05-28: 1</title></circle>
	<circle cx="158.83" cy="353.92" data-y="1.35" data-x="1590710400" r="1" fill="white"><title>2020-05-29: 1</title></circle>
	<circle cx="160.51" cy="353.92" data-y="1.35" data-x="1590796800" r="1" fill="white"><title>2020-05-30: 1</title></circle>
	<circle cx="162.18" cy="357.87" data-y="1.10" data-x="1590883200" r="1" fill="white"><title>2020-05-31: 1</title></circle>
	<circle cx="163.85" cy="353.92" data-y="1.35" data-x="1590969600" r="1" fill="white"><title>2020-06-01: 1</title></circle>
	<circle cx="165.53" cy="356.55" data-y="1.18" data-x="1591056000" r="1" fill="white"><title>2020-06-02: 1</title></circle>
	<circle cx="167.20" cy="355.23" data-y="1.27" data-x="1591142400" r="1" fill="white"><title>2020-06-03: 1</title></circle>
	<circle cx="168.87" cy="353.92" data-y="1.35" data-x="1591228800" r="1" fill="white"><title>2020-06-04: 1</title></circle>
	<circle cx="170.55" cy="351.28" data-y="1.52" data-x="1591315200" r="1" fill="white"><title>2020-06-05: 2</title></circle>
	<circle cx="172.22" cy="349.96" data-y="1.60" data-x="1591401600" r="1" fill="white"><title>2020-06-06: 2</title></circle>
	<circle cx="173.89" cy="348.65" data-y="1.69" data-x="1591488000" r="1" fill="white"><title>2020-06-07: 2</title></circle>
	<circle cx="175.56" cy="355.23" data-y="1.27" data-x="1591574400" r="1" fill="white"><title>2020-06-08: 1</title></circle>
	<circle cx="177.24" cy="356.55" data-y="1.18" data-x="1591660800" r="1" fill="white"><title>2020-06-09: 1</title></circle>
	<circle cx="178.91" cy="359.19" data-y="1.01" data-x="1591747200" r="1" fill="white"><title>2020-06-10: 1</title></circle>
	<circle cx="180.58" cy="361.82" data-y="0.84" data-x="1591833600" r="1" fill="white"><title>2020-06-11: 1</title></circle>
	<circle cx="182.26" cy="364.46" data-y="0.67" data-x="1591920000" r="1" fill="white"><title>2020-06-12: 1</title></circle>
	<circle cx="183.93" cy="367.09" data-y="0.51" data-x="1592006400" r="1" fill="white"><title>2020-06-13: 1</title></circle>
	<circle cx="185.60" cy="363.14" data-y="0.76" data-x="1592092800" r="1" fill="white"><title>2020-06-14: 1</title></circle>
	<circle cx="187.27" cy="363.14" data-y="0.76" data-x="1592179200" r="1" fill="white"><title>2020-06-15: 1</title></circle>
	<circle cx="188.95" cy="348.65" data-y="1.69" data-x="1592265600" r="1" fill="white"><title>2020-06-16: 2</title></circle>
	<circle cx="190.62" cy="348.65" data-y="1.69" data-x="1592352000" r="1" fill="white"><title>2020-06-17: 2</title></circle>
	<circle cx="192.29" cy="347.33" data-y="1.77" data-x="1592438400" r="1" fill="white"><title>2020-06-18: 2</title></circle>
	<circle cx="193.97" cy="349.96" data-y="1.60" data-x="1592524800" r="1" fill="white"><title>2020-06-19: 2</title></circle>
	<circle cx="195.64" cy="349.96" data-y="1.60" data-x="1592611200" r="1" fill="white"><title>2020-06-20: 2</title></circle>
	<circle cx="197.31" cy="357.87" data-y="1.10" data-x="1592697600" r="1" fill="white"><title>2020-06-21: 1</title></circle>
	<circle cx="198.98" cy="359.19" data-y="1.01" data-x="1592784000" r="1" fill="white"><title>2020-06-22: 1</title></circle>
	<circle cx="200.66" cy="372.36" data-y="0.17" data-x="1592870400" r="1" fill="white"><title>2020-06-23: 0</title></circle>
	<circle cx="202.33" cy="372.36" data-y="0.17" data-x="1592956800" r="1" fill="white"><title>2020-06-24: 0</title></circle>
	<circle cx="204.00" cy="372.36" data-y="0.17" data-x="1593043200" r="1" fill="white"><title>2020-06-25: 0</title></circle>
	<circle cx="205.68" cy="372.36" data-y="0.17" data-x="1593129600" r="1" fill="white"><title>2020-06-26: 0</title></circle>
	<circle cx="207.35" cy="372.36" data-y="0.17" data-x="1593216000" r="1" fill="white"><title>2020-06-27: 0</title></circle>
	<circle cx="209.02" cy="372.36" data-y="0.17" data-x="1593302400" r="1" fill="white"><title>2020-06-28: 0</title></circle>
	<circle cx="210.70" cy="372.36" data-y="0.17" data-x="1593388800" r="1" fill="white"><title>2020-06-29: 0</title></circle>
	<circle cx="212.37" cy="373.68" data-y="0.08" data-x="1593475200" r="1" fill="white"><title>2020-06-30: 0</title></circle>
	<circle cx="214.04" cy="373.68" data-y="0.08" data-x="1593561600" r="1" fill="white"><title>2020-07-01: 0</title></circle>
	<circle cx="215.71" cy="375.00" data-y="0.00" data-x="1593648000" r="1" fill="white"><title>2020-07-02: 0</title></circle>
	<circle cx="217.39" cy="375.00" data-y="0.00" data-x="1593734400" r="1" fill="white"><title>2020-07-03: 0</title></circle>
	<circle cx="219.06" cy="375.00" data-y="0.00" data-x="1593820800" r="1" fill="white"><title>2020-07-04: 0</title></circle>
	<circle cx="220.73" cy="373.68" data-y="0.08" data-x="1593907200" r="1" fill="white"><title>2020-07-05: 0</title></circle>
	<circle cx="222.41" cy="373.68" data-y="0.08" data-x="1593993600" r="1" fill="white"><title>2020-07-06: 0</title></circle>
	<circle cx="224.08" cy="373.68" data-y="0.08" data-x="1594080000" r="1" fill="white"><title>2020-07-07: 0</title></circle>
	<circle cx="225.75" cy="373.68" data-y="0.08" data-x="1594166400" r="1" fill="white"><title>2020-07-08: 0</title></circle>
	<circle cx="227.42" cy="373.68" data-y="0.08" data-x="1594252800" r="1" fill="white"><title>2020-07-09: 0</title></circle>
	<circle cx="229.10" cy="373.68" data-y="0.08" data-x="1594339200" r="1" fill="white"><title>2020-07-10: 0</title></circle>
	<circle cx="230.77" cy="373.68" data-y="0.08" data-x="1594425600" r="1" fill="white"><title>2020-07-11: 0</title></circle>
	<circle cx="232.44" cy="375.00" data-y="0.00" data-x="1594512000" r="1" fill="white"><title>2020-07-12: 0</title></circle>
	<circle cx="234.12" cy="375.00" data-y="0.00" data-x="1594598400" r="1" fill="white"><title>2020-07-13: 0</title></circle>
	<circle cx="235.79" cy="373.68" data-y="0.08" data-x="1594684800" r="1" fill="white"><title>2020-07-14: 0</title></circle>
	<circle cx="237.46" cy="373.68" data-y="0.08" data-x="1594771200" r="1" fill="white"><title>2020-07-15: 0</title></circle>
	<circle cx="239.14" cy="372.36" data-y="0.17" data-x="1594857600" r="1" fill="white"><title>2020-07-16: 0</title></circle>
	<circle cx="240.81" cy="372.36" data-y="0.17" data-x="1594944000" r="1" fill="white"><title>2020-07-17: 0</title></circle>
	<circle cx="242.48" cy="372.36" data-y="0.17" data-x="1595030400" r="1" fill="white"><title>2020-07-18: 0</title></circle>
	<circle cx="244.15" cy="372.36" data-y="0.17" data-x="1595116800" r="1" fill="white"><title>2020-07-19: 0</title></circle>
	<circle cx="245.83" cy="371.05" data-y="0.25" data-x="1595203200" r="1" fill="white"><title>2020-07-20: 0</title></circle>
	<circle cx="247.50" cy="368.41" data-y="0.42" data-x="1595289600" r="1" fill="white"><title>2020-07-21: 0</title></circle>
	<circle cx="249.17" cy="368.41" data-y="0.42" data-x="1595376000" r="1" fill="white"><title>2020-07-22: 0</title></circle>
	<circle cx="250.85" cy="369.73" data-y="0.34" data-x="1595462400" r="1" fill="white"><title>2020-07-23: 0</title></circle>
	<circle cx="252.52" cy="368.41" data-y="0.42" data-x="1595548800" r="1" fill="white"><title>2020-07-24: 0</title></circle>
	<circle cx="254.19" cy="368.41" data-y="0.42" data-x="1595635200" r="1" fill="white"><title>2020-07-25: 0</title></circle>
	<circle cx="255.86" cy="368.41" data-y="0.42" data-x="1595721600" r="1" fill="white"><title>2020-07-26: 0</title></circle>
	<circle cx="257.54" cy="368.41" data-y="0.42" data-x="1595808000" r="1" fill="white"><title>2020-07-27: 0</title></circle>
	<circle cx="259.21" cy="372.36" data-y="0.17" data-x="1595894400" r="1" fill="white"><title>2020-07-28: 0</title></circle>
	<circle cx="260.88" cy="372.36" data-y="0.17" data-x="1595980800" r="1" fill="white"><title>2020-07-29: 0</title></circle>
	<circle cx="262.56" cy="372.36" data-y="0.17" data-x="1596067200" r="1" fill="white"><title>2020-07-30: 0</title></circle>
	<circle cx="264.23" cy="373.68" data-y="0.08" data-x="1596153600" r="1" fill="white"><title>2020-07-31: 0</title></circle>
	<circle cx="265.90" cy="372.36" data-y="0.17" data-x="1596240000" r="1" fill="white"><title>2020-08-01: 0</title></circle>
	<circle cx="267.58" cy="372.36" data-y="0.17" data-x="1596326400" r="1" fill="white"><title>2020-08-02: 0</title></circle>
	<circle cx="269.25" cy="373.68" data-y="0.08" data-x="1596412800" r="1" fill="white"><title>2020-08-03: 0</title></circle>
	<circle cx="270.92" cy="373.68" data-y="0.08" data-x="1596499200" r="1" fill="white"><title>2020-08-04: 0</title></circle>
	<circle cx="272.59" cy="373.68" data-y="0.08" data-x="1596585600" r="1" fill="white"><title>2020-08-05: 0</title></circle>
	<circle cx="274.27" cy="373.68" data-y="0.08" data-x="1596672000" r="1" fill="white"><title>2020-08-06: 0</title></circle>
	<circle cx="275.94" cy="373.68" data-y="0.08" data-x="1596758400" r="1" fill="white"><title>2020-08-07: 0</title></circle>
	<circle cx="277.61" cy="373.68" data-y="0.08" data-x="1596844800" r="1" fill="white"><title>2020-08-08: 0</title></circle>
	<circle cx="279.29" cy="373.68" data-y="0.08" data-x="1596931200" r="1" fill="white"><title>2020-08-09: 0</title></circle>
	<circle cx="280.96" cy="373.68" data-y="0.08" data-x="1597017600" r="1" fill="white"><title>2020-08-10: 0</title></circle>
	<circle cx="282.63" cy="373.68" data-y="0.08" data-x="1597104000" r="1" fill="white"><title>2020-08-11: 0</title></circle>
	<circle cx="284.30" cy="372.36" data-y="0.17" data-x="1597190400" r="1" fill="white"><title>2020-08-12: 0</title></circle>
	<circle cx="285.98" cy="372.36" data-y="0.17" data-x="1597276800" r="1" fill="white"><title>2020-08-13: 0</title></circle>
	<circle cx="287.65" cy="372.36" data-y="0.17" data-x="1597363200" r="1" fill="white"><title>2020-08-14: 0</title></circle>
	<circle cx="289.32" cy="373.68" data-y="0.08" data-x="1597449600" r="1" fill="white"><title>2020-08-15: 0</title></circle>
	<circle cx="291.00" cy="373.68" data-y="0.08" data-x="1597536000" r="1" fill="white"><title>2020-08-16: 0</title></circle>
	<circle cx="292.67" cy="369.73" data-y="0.34" data-x="1597622400" r="1" fill="white"><title>2020-08-17: 0</title></circle>
	<circle cx="294.34" cy="369.73" data-y="0.34" data-x="1597708800" r="1" fill="white"><title>2020-08-18: 0</title></circle>
	<circle cx="296.02" cy="371.05" data-y="0.25" data-x="1597795200" r="1" fill="white"><title>2020-08-19: 0</title></circle>
	<circle cx="297.69" cy="369.73" data-y="0.34" data-x="1597881600" r="1" fill="white"><title>2020-08-20: 0</title></circle>
	<circle cx="299.36" cy="365.78" data-y="0.59" data-x="1597968000" r="1" fill="white"><title>2020-08-21: 1</title></circle>
	<circle cx="301.03" cy="364.46" data-y="0.67" data-x="1598054400" r="1" fill="white"><title>2020-08-22: 1</title></circle>
	<circle cx="302.71" cy="364.46" data-y="0.67" data-x="1598140800" r="1" fill="white"><title>2020-08-23: 1</title></circle>
	<circle cx="304.38" cy="365.78" data-y="0.59" data-x="1598227200" r="1" fill="white"><title>2020-08-24: 1</title></circle>
	<circle cx="306.05" cy="364.46" data-y="0.67" data-x="1598313600" r="1" fill="white"><title>2020-08-25: 1</title></circle>
	<circle cx="307.73" cy="361.82" data-y="0.84" data-x="1598400000" r="1" fill="white"><title>2020-08-26: 1</title></circle>
	<circle cx="309.40" cy="363.14" data-y="0.76" data-x="1598486400" r="1" fill="white"><title>2020-08-27: 1</title></circle>
	<circle cx="311.07" cy="363.14" data-y="0.76" data-x="1598572800" r="1" fill="white"><title>2020-08-28: 1</title></circle>
	<circle cx="312.74" cy="363.14" data-y="0.76" data-x="1598659200" r="1" fill="white"><title>2020-08-29: 1</title></circle>
	<circle cx="314.42" cy="360.51" data-y="0.93" data-x="1598745600" r="1" fill="white"><title>2020-08-30: 1</title></circle>
	<circle cx="316.09" cy="356.55" data-y="1.18" data-x="1598832000" r="1" fill="white"><title>2020-08-31: 1</title></circle>
	<circle cx="317.76" cy="355.23" data-y="1.27" data-x="1598918400" r="1" fill="white"><title>2020-09-01: 1</title></circle>
	<circle cx="319.44" cy="357.87" data-y="1.10" data-x="1599004800" r="1" fill="white"><title>2020-09-02: 1</title></circle>
	<circle cx="321.11" cy="357.87" data-y="1.10" data-x="1599091200" r="1" fill="white"><title>2020-09-03: 1</title></circle>
	<circle cx="322.78" cy="361.82" data-y="0.84" data-x="1599177600" r="1" fill="white"><title>2020-09-04: 1</title></circle>
	<circle cx="324.45" cy="363.14" data-y="0.76" data-x="1599264000" r="1" fill="white"><title>2020-09-05: 1</title></circle>
	<circle cx="326.13" cy="363.14" data-y="0.76" data-x="1599350400" r="1" fill="white"><title>2020-09-06: 1</title></circle>
	<circle cx="327.80" cy="368.41" data-y="0.42" data-x="1599436800" r="1" fill="white"><title>2020-09-07: 0</title></circle>
	<circle cx="329.47" cy="369.73" data-y="0.34" data-x="1599523200" r="1" fill="white"><title>2020-09-08: 0</title></circle>
	<circle cx="331.15" cy="368.41" data-y="0.42" data-x="1599609600" r="1" fill="white"><title>2020-09-09: 0</title></circle>
	<circle cx="332.82" cy="367.09" data-y="0.51" data-x="1599696000" r="1" fill="white"><title>2020-09-10: 1</title></circle>
	<circle cx="334.49" cy="367.09" data-y="0.51" data-x="1599782400" r="1" fill="white"><title>2020-09-11: 1</title></circle>
	<circle cx="336.17" cy="364.46" data-y="0.67" data-x="1599868800" r="1" fill="white"><title>2020-09-12: 1</title></circle>
	<circle cx="337.84" cy="367.09" data-y="0.51" data-x="1599955200" r="1" fill="white"><title>2020-09-13: 1</title></circle>
	<circle cx="339.51" cy="364.46" data-y="0.67" data-x="1600041600" r="1" fill="white"><title>2020-09-14: 1</title></circle>
	<circle cx="341.18" cy="363.14" data-y="0.76" data-x="1600128000" r="1" fill="white"><title>2020-09-15: 1</title></circle>
	<circle cx="342.86" cy="363.14" data-y="0.76" data-x="1600214400" r="1" fill="white"><title>2020-09-16: 1</title></circle>
	<circle cx="344.53" cy="364.46" data-y="0.67" data-x="1600300800" r="1" fill="white"><title>2020-09-17: 1</title></circle>
	<circle cx="346.20" cy="364.46" data-y="0.67" data-x="1600387200" r="1" fill="white"><title>2020-09-18: 1</title></circle>
	<circle cx="347.88" cy="365.78" data-y="0.59" data-x="1600473600" r="1" fill="white"><title>2020-09-19: 1</title></circle>
	<circle cx="349.55" cy="363.14" data-y="0.76" data-x="1600560000" r="1" fill="white"><title>2020-09-20: 1</title></circle>
	<circle cx="351.22" cy="364.46" data-y="0.67" data-x="1600646400" r="1" fill="white"><title>2020-09-21: 1</title></circle>
	<circle cx="352.89" cy="361.82" data-y="0.84" data-x="1600732800" r="1" fill="white"><title>2020-09-22: 1</title></circle>
	<circle cx="354.57" cy="361.82" data-y="0.84" data-x="1600819200" r="1" fill="white"><title>2020-09-23: 1</title></circle>
	<circle cx="356.24" cy="361.82" data-y="0.84" data-x="1600905600" r="1" fill="white"><title>2020-09-24: 1</title></circle>
	<circle cx="357.91" cy="359.19" data-y="1.01" data-x="1600992000" r="1" fill="white"><title>2020-09-25: 1</title></circle>
	<circle cx="359.59" cy="353.92" data-y="1.35" data-x="1601078400" r="1" fill="white"><title>2020-09-26: 1</title></circle>
	<circle cx="361.26" cy="351.28" data-y="1.52" data-x="1601164800" r="1" fill="white"><title>2020-09-27: 2</title></circle>
	<circle cx="362.93" cy="335.47" data-y="2.53" data-x="1601251200" r="1" fill="white"><title>2020-09-28: 3</title></circle>
	<circle cx="364.61" cy="334.15" data-y="2.62" data-x="1601337600" r="1" fill="white"><title>2020-09-29: 3</title></circle>
	<circle cx="366.28" cy="328.88" data-y="2.95" data-x="1601424000" r="1" fill="white"><title>2020-09-30: 3</title></circle>
	<circle cx="367.95" cy="324.93" data-y="3.21" data-x="1601510400" r="1" fill="white"><title>2020-10-01: 3</title></circle>
	<circle cx="369.62" cy="315.70" data-y="3.80" data-x="1601596800" r="1" fill="white"><title>2020-10-02: 4</title></circle>
	<circle cx="371.30" cy="307.80" data-y="4.30" data-x="1601683200" r="1" fill="white"><title>2020-10-03: 4</title></circle>
	<circle cx="372.97" cy="307.80" data-y="4.30" data-x="1601769600" r="1" fill="white"><title>2020-10-04: 4</title></circle>
	<circle cx="374.64" cy="315.70" data-y="3.80" data-x="1601856000" r="1" fill="white"><title>2020-10-05: 4</title></circle>
	<circle cx="376.32" cy="317.02" data-y="3.71" data-x="1601942400" r="1" fill="white"><title>2020-10-06: 4</title></circle>
	<circle cx="377.99" cy="311.75" data-y="4.05" data-x="1602028800" r="1" fill="white"><title>2020-10-07: 4</title></circle>
	<circle cx="379.66" cy="307.80" data-y="4.30" data-x="1602115200" r="1" fill="white"><title>2020-10-08: 4</title></circle>
	<circle cx="381.33" cy="310.43" data-y="4.13" data-x="1602201600" r="1" fill="white"><title>2020-10-09: 4</title></circle>
	<circle cx="383.01" cy="315.70" data-y="3.80" data-x="1602288000" r="1" fill="white"><title>2020-10-10: 4</title></circle>
	<circle cx="384.68" cy="310.43" data-y="4.13" data-x="1602374400" r="1" fill="white"><title>2020-10-11: 4</title></circle>
	<circle cx="386.35" cy="311.75" data-y="4.05" data-x="1602460800" r="1" fill="white"><title>2020-10-12: 4</title></circle>
	<circle cx="388.03" cy="310.43" data-y="4.13" data-x="1602547200" r="1" fill="white"><title>2020-10-13: 4</title></circle>
	<circle cx="389.70" cy="320.97" data-y="3.46" data-x="1602633600" r="1" fill="white"><title>2020-10-14: 3</title></circle>
	<circle cx="391.37" cy="323.61" data-y="3.29" data-x="1602720000" r="1" fill="white"><title>2020-10-15: 3</title></circle>
	<circle cx="393.05" cy="322.29" data-y="3.37" data-x="1602806400" r="1" fill="white"><title>2020-10-16: 3</title></circle>
	<circle cx="394.72" cy="318.34" data-y="3.63" data-x="1602892800" r="1" fill="white"><title>2020-10-17: 4</title></circle>
	<circle cx="396.39" cy="311.75" data-y="4.05" data-x="1602979200" r="1" fill="white"><title>2020-10-18: 4</title></circle>
	<circle cx="398.06" cy="299.89" data-y="4.81" data-x="1603065600" r="1" fill="white"><title>2020-10-19: 5</title></circle>
	<circle cx="399.74" cy="294.62" data-y="5.15" data-x="1603152000" r="1" fill="white"><title>2020-10-20: 5</title></circle>
	<circle cx="401.41" cy="288.03" data-y="5.57" data-x="1603238400" r="1" fill="white"><title>2020-10-21: 6</title></circle>
	<circle cx="403.08" cy="289.35" data-y="5.48" data-x="1603324800" r="1" fill="white"><title>2020-10-22: 5</title></circle>
	<circle cx="404.76" cy="266.95" data-y="6.92" data-x="1603411200" r="1" fill="white"><title>2020-10-23: 7</title></circle>
	<circle cx="406.43" cy="265.63" data-y="7.00" data-x="1603497600" r="1" fill="white"><title>2020-10-24: 7</title></circle>
	<circle cx="408.10" cy="260.36" data-y="7.34" data-x="1603584000" r="1" fill="white"><title>2020-10-25: 7</title></circle>
	<circle cx="409.77" cy="253.77" data-y="7.76" data-x="1603670400" r="1" fill="white"><title>2020-10-26: 8</title></circle>
	<circle cx="411.45" cy="248.50" data-y="8.10" data-x="1603756800" r="1" fill="white"><title>2020-10-27: 8</title></circle>
	<circle cx="413.12" cy="234.01" data-y="9.03" data-x="1603843200" r="1" fill="white"><title>2020-10-28: 9</title></circle>
	<circle cx="414.79" cy="219.51" data-y="9.96" data-x="1603929600" r="1" fill="white"><title>2020-10-29: 10</title></circle>
	<circle cx="416.47" cy="220.83" data-y="9.87" data-x="1604016000" r="1" fill="white"><title>2020-10-30: 10</title></circle>
	<circle cx="418.14" cy="206.34" data-y="10.80" data-x="1604102400" r="1" fill="white"><title>2020-10-31: 11</title></circle>
	<circle cx="419.81" cy="186.57" data-y="12.07" data-x="1604188800" r="1" fill="white"><title>2020-11-01: 12</title></circle>
	<circle cx="421.48" cy="182.62" data-y="12.32" data-x="1604275200" r="1" fill="white"><title>2020-11-02: 12</title></circle>
	<circle cx="423.16" cy="157.58" data-y="13.92" data-x="1604361600" r="1" fill="white"><title>2020-11-03: 14</title></circle>
	<circle cx="424.83" cy="150.99" data-y="14.34" data-x="1604448000" r="1" fill="white"><title>2020-11-04: 14</title></circle>
	<circle cx="426.50" cy="137.82" data-y="15.19" data-x="1604534400" r="1" fill="white"><title>2020-11-05: 15</title></circle>
	<circle cx="428.18" cy="100.92" data-y="17.55" data-x="1604620800" r="1" fill="white"><title>2020-11-06: 18</title></circle>
	<circle cx="429.85" cy="96.97" data-y="17.80" data-x="1604707200" r="1" fill="white"><title>2020-11-07: 18</title></circle>
	<circle cx="431.52" cy="71.93" data-y="19.41" data-x="1604793600" r="1" fill="white"><title>2020-11-08: 19</title></circle>
	<circle cx="433.20" cy="65.34" data-y="19.83" data-x="1604880000" r="1" fill="white"><title>2020-11-09: 20</title></circle>
	<circle cx="434.87" cy="52.17" data-y="20.67" data-x="1604966400" r="1" fill="white"><title>2020-11-10: 21</title></circle>
	<circle cx="436.54" cy="32.40" data-y="21.94" data-x="1605052800" r="1" fill="white"><title>2020-11-11: 22</title></circle>
	<circle cx="438.21" cy="29.77" data-y="22.11" data-x="1605139200" r="1" fill="white"><title>2020-11-12: 22</title></circle>
	<circle cx="439.89" cy="24.49" data-y="22.44" data-x="1605225600" r="1" fill="white"><title>2020-11-13: 22</title></circle>
	<circle cx="441.56" cy="10.00" data-y="23.37" data-x="1605312000" r="1" fill="white"><title>2020-11-14: 23</title></circle>
	<circle cx="443.23" cy="36.35" data-y="21.68" data-x="1605398400" r="1" fill="white"><title>2020-11-15: 22</title></circle>
	<circle cx="444.91" cy="48.21" data-y="20.92" data-x="1605484800" r="1" fill="white"><title>2020-11-16: 21</title></circle>
	<circle cx="446.58" cy="81.16" data-y="18.82" data-x="1605571200" r="1" fill="white"><title>2020-11-17: 19</title></circle>
	<circle cx="448.25" cy="114.10" data-y="16.71" data-x="1605657600" r="1" fill="white"><title>2020-11-18: 17</title></circle>
	<circle cx="449.92" cy="135.18" data-y="15.36" data-x="1605744000" r="1" fill="white"><title>2020-11-19: 15</title></circle>
	<circle cx="451.60" cy="176.03" data-y="12.74" data-x="1605830400" r="1" fill="white"><title>2020-11-20: 13</title></circle>
	<circle cx="453.27" cy="160.22" data-y="13.75" data-x="1605916800" r="1" fill="white"><title>2020-11-21: 14</title></circle>
	<circle cx="454.94" cy="166.81" data-y="13.33" data-x="1606003200" r="1" fill="white"><title>2020-11-22: 13</title></circle>
	<circle cx="456.62" cy="169.44" data-y="13.16" data-x="1606089600" r="1" fill="white"><title>2020-11-23: 13</title></circle>
	<circle cx="458.29" cy="168.12" data-y="13.25" data-x="1606176000" r="1" fill="white"><title>2020-11-24: 13</title></circle>
	<circle cx="459.96" cy="165.49" data-y="13.42" data-x="1606262400" r="1" fill="white"><title>2020-11-25: 13</title></circle>
	<circle cx="461.64" cy="161.53" data-y="13.67" data-x="1606348800" r="1" fill="white"><title>2020-11-26: 14</title></circle>
</g>
<g data-series="recent-cases" class="data-series">
	<path d="M 461.64,161.53L 463.31,176.03L 464.98,239.28L 466.65,256.63L 468.33,266.16L 470.00,280.46" id="Recent cases" class="line" stroke-width="1" stroke-linecap="round" stroke-dasharray="4,6" stroke-dashoffset="4"><title>Recent cases</title></path>
	<circle cx="461.64" cy="161.53" data-y="13.67" data-x="1606348800" r="2.5" fill="white"><title>2020-11-26: 14</title></circle>
	<circle cx="463.31" cy="176.03" data-y="12.74" data-x="1606435200" r="2.5" fill="white"><title>2020-11-27: 13</title></circle>
	<circle cx="464.98" cy="239.28" data-y="8.69" data-x="1606521600" r="2.5" fill="white"><title>2020-11-28: 9</title></circle>
	<circle cx="466.65" cy="256.63" data-y="7.58" data-x="1606608000" r="2.5" fill="white"><title>2020-11-29: 8</title></circle>
	<circle cx="468.33" cy="266.16" data-y="6.97" data-x="1606694400" r="2.5" fill="white"><title>2020-11-30: 7</title></circle>
	<circle cx="470.00" cy="280.46" data-y="6.05" data-x="1606780800" r="2.5" fill="white"><title>2020-12-01: 6</title></circle>
</g>
</svg>
