<svg width="480" height="400" viewBox="0 0 480 400" xmlns="http://www.w3.org/2000/svg" style="overflow:display" preserveAspectRatio="xMinYMin meet" overflow="visible">
<defs>
	<style>
	.data-series path.line { fill-opacity: 0; stroke: black; }
	.data-series path.line.dotted { stroke-dasharray: 12 20 }
	.data-series circle { display: none; }
	.data-series:hover path.line, .data-series.on path.line { stroke-width: 1; }
	.data-series:hover circle, .data-series.on circle { display: inline; }
	.data-series circle:hover, .data-series circle.on { r: 1px!important; }
	.graph-grid { font-family: "Helvetica Neue",Helvetica,Arial,"Lucida Grande",sans-serif; }
	.graph-grid line { stroke: black; stroke-width: 1; stroke-linecap: round; }
	.graph-grid.graph-grid-x text { text-anchor: middle; dominant-baseline: hanging; transform: translateY(10px); }
	.graph-grid.graph-grid-y text { text-anchor: end; dominant-baseline: middle; transform: translateX(-10px); }
	</style>
</defs>
<g class="graph-grid graph-grid-y">
	<line x1="15" y1="375" x2="470" y2="375" data-left="15"></line>
	<text x="25" y="375" text-anchor="end">0</text>
	<text x="25" y="258.08391971831" text-anchor="end">2</text>
	<text x="25" y="141.16783943662" text-anchor="end">4</text>
	<text x="25" y="24.2517591549295" text-anchor="end">6</text>
	<text style="text-anchor:middle;dominant-baseline:hanging;font-weight:bold;transform: translateY(192.5px) rotate(-90deg);"></text>
</g>
<g class="graph-grid graph-grid-x">
	<line class="tick" x1="60.9375" y1="375" x2="60.9375" y2="380"></line>
	<text x="60.9375" y="375" text-anchor="middle">A</text>
	<line class="tick" x1="126.5625" y1="375" x2="126.5625" y2="380"></line>
	<text x="126.5625" y="375" text-anchor="middle">M</text>
	<line class="tick" x1="194.375" y1="375" x2="194.375" y2="380"></line>
	<text x="194.375" y="375" text-anchor="middle">J</text>
	<line class="tick" x1="260" y1="375" x2="260" y2="380"></line>
	<text x="260" y="375" text-anchor="middle">J</text>
	<line class="tick" x1="327.8125" y1="375" x2="327.8125" y2="380"></line>
	<text x="327.8125" y="375" text-anchor="middle">A</text>
	<line class="tick" x1="395.625" y1="375" x2="395.625" y2="380"></line>
	<text x="395.625" y="375" text-anchor="middle">S</text>
	<line class="tick" x1="461.25" y1="375" x2="461.25" y2="380"></line>
	<text x="461.25" y="375" text-anchor="middle">O</text>
	<text style="text-anchor:middle;dominant-baseline:hanging;font-weight:bold;transform: translateY(192.5px) rotate(-90deg);"></text>
</g>
<g data-series="new-cases" class="data-series">
	<path d="M 15.00,339.01L 17.19,346.21L 19.38,351.01L 21.56,349.30L 23.75,349.30L 25.94,354.44L 28.12,344.15L 30.31,339.01L 32.50,333.87L 34.69,323.59L 36.88,313.31L 39.06,303.03L 41.25,277.32L 43.44,272.18L 45.62,272.18L 47.81,267.04L 50.00,251.62L 52.19,210.49L 54.38,205.35L 56.56,205.35L 58.75,210.49L 60.94,189.93L 63.12,179.65L 65.31,184.79L 67.50,189.93L 69.69,189.93L 71.88,169.37L 74.06,143.66L 76.25,148.80L 78.44,133.38L 80.62,123.10L 82.81,138.52L 85.00,102.54L 87.19,133.38L 89.38,138.52L 91.56,138.52L 93.75,164.23L 95.94,169.37L 98.12,174.51L 100.31,195.07L 102.50,189.93L 104.69,164.23L 106.88,143.66L 109.06,66.55L 111.25,66.55L 113.44,25.42L 115.62,35.70L 117.81,10.00L 120.00,20.28L 122.19,45.99L 124.38,87.11L 126.56,107.68L 128.75,159.08L 130.94,159.08L 133.12,184.79L 135.31,205.35L 137.50,169.37L 139.69,153.94L 141.88,107.68L 144.06,107.68L 146.25,102.54L 148.44,92.25L 150.62,117.96L 152.81,169.37L 155.00,231.06L 157.19,277.32L 159.38,277.32L 161.56,277.32L 163.75,308.17L 165.94,297.89L 168.12,297.89L 170.31,287.61L 172.50,277.32L 174.69,277.32L 176.88,303.03L 179.06,277.32L 181.25,287.61L 183.44,277.32L 185.62,277.32L 187.81,292.75L 190.00,292.75L 192.19,292.75L 194.38,303.03L 196.56,303.03L 198.75,297.89L 200.94,308.17L 203.12,303.03L 205.31,323.59L 207.50,318.45L 209.69,328.73L 211.88,313.31L 214.06,303.03L 216.25,297.89L 218.44,297.89L 220.62,277.32L 222.81,272.18L 225.00,272.18L 227.19,272.18L 229.38,297.89L 231.56,303.03L 233.75,303.03L 235.94,318.45L 238.12,333.87L 240.31,339.01L 242.50,349.30L 244.69,344.15L 246.87,333.87L 249.06,323.59L 251.25,318.45L 253.44,318.45L 255.62,313.31L 257.81,323.59L 260.00,328.73L 262.19,323.59L 264.38,339.01L 266.56,344.15L 268.75,333.87L 270.94,339.01L 273.12,323.59L 275.31,318.45L 277.50,323.59L 279.69,313.31L 281.88,313.31L 284.06,323.59L 286.25,313.31L 288.44,323.59L 290.62,323.59L 292.81,328.73L 295.00,333.87L 297.19,339.01L 299.38,339.01L 301.56,339.01L 303.75,333.87L 305.94,339.01L 308.12,333.87L 310.31,323.59L 312.50,323.59L 314.69,318.45L 316.88,328.73L 319.06,339.01L 321.25,333.87L 323.44,344.15L 325.62,359.58L 327.81,359.58L 330.00,369.86L 332.19,369.86L 334.38,359.58L 336.56,364.72L 338.75,364.72L 340.94,349.30L 343.12,339.01L 345.31,339.01L 347.50,333.87L 349.69,328.73L 351.88,328.73L 354.06,328.73L 356.25,344.15L 358.44,354.44L 360.62,349.30L 362.81,354.44L 365.00,369.86L 367.19,359.58L 369.38,359.58L 371.56,359.58L 373.75,354.44L 375.94,354.44L 378.12,333.87L 380.31,323.59L 382.50,328.73L 384.69,323.59L 386.88,303.03L 389.06,308.17L 391.25,313.31L 393.44,297.89L 395.62,303.03L 397.81,282.46L 400.00,256.76L 402.19,256.76L 404.38,241.34L 406.56,231.06L 408.75,246.48L 410.94,246.48L 413.12,272.18L 415.31,292.75L 417.50,303.03L 419.69,303.03L 421.88,313.31L 424.06,323.59L 426.25,323.59L 428.44,318.45L 430.62,328.73L 432.81,328.73L 435.00,333.87L 437.19,308.17L 439.38,313.31L 441.56,297.89L 443.75,287.61L 445.94,272.18L 448.12,251.62L 450.31,241.34L 452.50,215.63L 454.69,189.93L 456.88,174.51L 459.06,164.23" id="New cases" class="line" stroke-width="1" stroke-linecap="round"><title>New cases</title></path>
</g>
<g data-series="new-cases" class="data-series">
	<path d="M 459.06,164.23L 461.25,164.23L 463.44,195.07L 465.62,189.07L 467.81,223.86L 470.00,240.05" id="New cases" class="line" stroke-width="1" stroke-linecap="round" stroke-dasharray="5,5"><title>New cases</title></path>
</g>
</svg>
