<svg width="480" height="400" viewBox="0 0 480 400" xmlns="http://www.w3.org/2000/svg" style="overflow:display" preserveAspectRatio="xMinYMin meet" overflow="visible">
<defs>
	<style>
	.data-series path.line { fill-opacity: 0; stroke: black; }
	.data-series path.line.dotted { stroke-dasharray: 12 20 }
	.data-series:hover path.line, .data-series.on path.line { stroke-width: 1; }
	.data-series:hover circle, .data-series.on circle { display: inline; }
	.graph-grid { font-family: "Helvetica Neue",Helvetica,Arial,"Lucida Grande",sans-serif; }
	.graph-grid line { stroke: black; stroke-width: 1; stroke-linecap: round; }
	.graph-grid.graph-grid-x text { text-anchor: middle; dominant-baseline: hanging; transform: translateY(10px); }
	.graph-grid.graph-grid-y text { text-anchor: end; dominant-baseline: middle; transform: translateX(-10px); }
	</style>
</defs>
<g class="graph-grid graph-grid-y">
	<line x1="25.00" y1="375.00" x2="470.00" y2="375.00" data-left="25"></line>
	<text x="35" y="375" text-anchor="end">0</text>
	<text x="35" y="236.053868694362" text-anchor="end">50</text>
	<text x="35" y="97.1077373887241" text-anchor="end">100</text>
	<text style="text-anchor:middle;dominant-baseline:hanging;font-weight:bold;transform: translateY(192.5px) rotate(-90deg);"></text>
</g>
<g class="graph-grid graph-grid-x">
	<line class="tick" x1="50.39" y1="375.00" x2="50.39" y2="380.00"></line>
	<text x="50.3859060402685" y="375" text-anchor="middle">A</text>
	<line class="tick" x1="95.18" y1="375.00" x2="95.18" y2="380.00"></line>
	<text x="95.1845637583893" y="375" text-anchor="middle">M</text>
	<line class="tick" x1="141.48" y1="375.00" x2="141.48" y2="380.00"></line>
	<text x="141.476510067114" y="375" text-anchor="middle">J</text>
	<line class="tick" x1="186.28" y1="375.00" x2="186.28" y2="380.00"></line>
	<text x="186.275167785235" y="375" text-anchor="middle">J</text>
	<line class="tick" x1="232.57" y1="375.00" x2="232.57" y2="380.00"></line>
	<text x="232.56711409396" y="375" text-anchor="middle">A</text>
	<line class="tick" x1="278.86" y1="375.00" x2="278.86" y2="380.00"></line>
	<text x="278.859060402685" y="375" text-anchor="middle">S</text>
	<line class="tick" x1="323.66" y1="375.00" x2="323.66" y2="380.00"></line>
	<text x="323.657718120805" y="375" text-anchor="middle">O</text>
	<line class="tick" x1="369.95" y1="375.00" x2="369.95" y2="380.00"></line>
	<text x="369.94966442953" y="375" text-anchor="middle">N</text>
	<line class="tick" x1="414.75" y1="375.00" x2="414.75" y2="380.00"></line>
	<text x="414.748322147651" y="375" text-anchor="middle">D</text>
	<line class="tick" x1="461.04" y1="375.00" x2="461.04" y2="380.00"></line>
	<text x="461.040268456376" y="375" text-anchor="middle">J</text>
	<text style="text-anchor:middle;dominant-baseline:hanging;font-weight:bold;transform: translateY(192.5px) rotate(-90deg);"></text>
</g>
<g data-series="widespread" class="data-series">
	<path d="M 25.00,355.55L 470.00,355.55" id="E07000150-level-0" class="line" stroke-width="1" stroke-linecap="round" stroke-dasharray="3,3" fill-opacity="0.3" opacity="0.3"><title>Widespread</title></path>
</g>
<g data-series="substantial" class="data-series">
	<path d="M 25.00,363.88L 470.00,363.88" id="E07000150-level-1" class="line" stroke-width="1" stroke-linecap="round" stroke-dasharray="3,3" fill-opacity="0.3" opacity="0.3"><title>Substantial</title></path>
</g>
<g data-series="moderate" class="data-series">
	<path d="M 25.00,372.22L 470.00,372.22" id="E07000150-level-2" class="line" stroke-width="1" stroke-linecap="round" stroke-dasharray="3,3" fill-opacity="0.3" opacity="0.3"><title>Moderate</title></path>
</g>
<g data-series="new-cases" class="data-series">
	<path d="M 25.00,374.05L 26.49,374.24L 27.99,374.37L 29.48,373.92L 30.97,374.46L 32.47,372.83L 33.96,372.29L 35.45,370.67L 36.95,370.13L 38.44,369.04L 39.93,369.04L 41.43,368.50L 42.92,369.04L 44.41,366.88L 45.91,367.42L 47.40,365.79L 48.89,364.71L 50.39,365.25L 51.88,363.63L 53.37,363.09L 54.87,364.71L 56.36,365.25L 57.85,365.79L 59.35,366.34L 60.84,363.09L 62.33,364.71L 63.83,365.25L 65.32,363.63L 66.81,363.63L 68.31,364.71L 69.80,365.79L 71.29,368.50L 72.79,365.79L 74.28,365.79L 75.77,366.88L 77.27,366.88L 78.76,366.88L 80.25,364.71L 81.74,364.17L 83.24,366.34L 84.73,363.63L 86.22,362.00L 87.72,360.38L 89.21,353.88L 90.70,354.42L 92.20,354.96L 93.69,355.50L 95.18,357.13L 96.68,356.59L 98.17,355.50L 99.66,357.67L 101.16,356.59L 102.65,353.34L 104.14,349.01L 105.64,347.92L 107.13,347.92L 108.62,346.84L 110.12,346.84L 111.61,349.01L 113.10,349.55L 114.60,351.71L 116.09,349.55L 117.58,352.26L 119.08,356.59L 120.57,358.75L 122.06,356.05L 123.56,355.50L 125.05,353.88L 126.54,354.42L 128.04,354.96L 129.53,352.26L 131.02,352.26L 132.52,354.96L 134.01,356.59L 135.50,360.92L 137.00,365.79L 138.49,365.25L 139.98,366.88L 141.48,369.04L 142.97,369.58L 144.46,371.75L 145.96,371.21L 147.45,371.21L 148.94,370.67L 150.44,371.21L 151.93,370.13L 153.42,370.13L 154.92,369.58L 156.41,369.04L 157.90,369.04L 159.40,370.67L 160.89,371.21L 162.38,371.21L 163.88,371.75L 165.37,372.29L 166.86,373.38L 168.36,373.38L 169.85,373.38L 171.34,373.38L 172.84,375.00L 174.33,375.00L 175.82,375.00L 177.32,375.00L 178.81,375.00L 180.30,375.00L 181.80,375.00L 183.29,375.00L 184.78,375.00L 186.28,375.00L 187.77,375.00L 189.26,374.46L 190.76,374.46L 192.25,374.46L 193.74,373.92L 195.23,371.75L 196.73,371.21L 198.22,371.21L 199.71,370.67L 201.21,369.58L 202.70,367.96L 204.19,367.96L 205.69,369.58L 207.18,369.04L 208.67,367.96L 210.17,367.42L 211.66,366.88L 213.15,367.96L 214.65,368.50L 216.14,369.04L 217.63,369.58L 219.13,370.67L 220.62,370.67L 222.11,372.29L 223.61,372.83L 225.10,372.29L 226.59,371.21L 228.09,371.21L 229.58,371.21L 231.07,371.21L 232.57,370.13L 234.06,368.50L 235.55,366.88L 237.05,366.88L 238.54,367.42L 240.03,365.79L 241.53,365.25L 243.02,365.79L 244.51,366.34L 246.01,367.42L 247.50,368.50L 248.99,367.96L 250.49,367.42L 251.98,367.96L 253.47,368.50L 254.97,367.42L 256.46,367.96L 257.95,365.79L 259.45,366.34L 260.94,366.88L 262.43,365.79L 263.93,358.75L 265.42,355.50L 266.91,352.80L 268.41,353.88L 269.90,352.80L 271.39,353.88L 272.89,356.05L 274.38,358.75L 275.87,360.38L 277.37,360.92L 278.86,358.75L 280.35,356.05L 281.85,356.05L 283.34,349.55L 284.83,352.26L 286.33,352.26L 287.82,354.42L 289.31,356.59L 290.81,359.30L 292.30,358.21L 293.79,364.71L 295.29,365.25L 296.78,365.25L 298.27,363.63L 299.77,363.09L 301.26,363.63L 302.75,361.46L 304.24,361.46L 305.74,361.46L 307.23,360.92L 308.72,360.92L 310.22,359.84L 311.71,358.21L 313.20,360.38L 314.70,358.75L 316.19,359.30L 317.68,362.54L 319.18,360.92L 320.67,360.38L 322.16,360.38L 323.66,358.21L 325.15,358.75L 326.64,354.42L 328.14,350.09L 329.63,350.09L 331.12,344.67L 332.62,343.59L 334.11,345.22L 335.60,345.76L 337.10,348.46L 338.59,350.09L 340.08,351.17L 341.58,353.88L 343.07,353.88L 344.56,351.71L 346.06,341.97L 347.55,338.18L 349.04,337.09L 350.54,334.93L 352.03,335.47L 353.52,336.55L 355.02,337.09L 356.51,343.05L 358.00,341.42L 359.50,340.88L 360.99,340.88L 362.48,341.42L 363.98,340.88L 365.47,340.88L 366.96,337.63L 368.46,334.93L 369.95,334.38L 371.44,334.38L 372.94,329.51L 374.43,328.43L 375.92,313.26L 377.42,310.56L 378.91,306.22L 380.40,300.81L 381.90,296.48L 383.39,295.93L 384.88,292.14L 386.38,306.77L 387.87,305.68L 389.36,302.97L 390.86,303.52L 392.35,304.60L 393.84,308.93L 395.34,313.26L 396.83,312.18L 398.32,315.43L 399.82,325.18L 401.31,326.26L 402.80,330.05L 404.30,330.59L 405.79,330.59L 407.28,331.68L 408.78,334.38L 410.27,334.93L 411.76,338.18L 413.26,337.63L 414.75,335.47L 416.24,336.01L 417.73,334.93L 419.23,335.47L 420.72,336.01L 422.21,338.18L 423.71,336.55L 425.20,336.55L 426.69,332.22L 428.19,334.38L 429.68,331.14L 431.17,327.89L 432.67,321.93L 434.16,315.97L 435.65,315.97L 437.15,311.10L 438.64,305.14L 440.13,298.64L 441.63,293.77L 443.12,288.89L 444.61,288.35L 446.11,295.39L 447.60,294.85L 449.09,285.10L 450.59,272.11L 452.08,233.66L 453.57,189.79L 455.07,143.22L 456.56,118.31L 458.05,82.03L 459.55,63.61L 461.04,17.58L 462.53,10.00" id="New cases" class="line" stroke-width="1" stroke-linecap="round"><title>New cases</title></path>
	<circle cx="25.00" cy="374.05" data-y="0.34" data-x="1584230400" r="1" fill="white"><title>2020-03-15: 0</title></circle>
	<circle cx="26.49" cy="374.24" data-y="0.27" data-x="1584316800" r="1" fill="white"><title>2020-03-16: 0</title></circle>
	<circle cx="27.99" cy="374.37" data-y="0.23" data-x="1584403200" r="1" fill="white"><title>2020-03-17: 0</title></circle>
	<circle cx="29.48" cy="373.92" data-y="0.39" data-x="1584489600" r="1" fill="white"><title>2020-03-18: 0</title></circle>
	<circle cx="30.97" cy="374.46" data-y="0.19" data-x="1584576000" r="1" fill="white"><title>2020-03-19: 0</title></circle>
	<circle cx="32.47" cy="372.83" data-y="0.78" data-x="1584662400" r="1" fill="white"><title>2020-03-20: 1</title></circle>
	<circle cx="33.96" cy="372.29" data-y="0.97" data-x="1584748800" r="1" fill="white"><title>2020-03-21: 1</title></circle>
	<circle cx="35.45" cy="370.67" data-y="1.56" data-x="1584835200" r="1" fill="white"><title>2020-03-22: 2</title></circle>
	<circle cx="36.95" cy="370.13" data-y="1.75" data-x="1584921600" r="1" fill="white"><title>2020-03-23: 2</title></circle>
	<circle cx="38.44" cy="369.04" data-y="2.14" data-x="1585008000" r="1" fill="white"><title>2020-03-24: 2</title></circle>
	<circle cx="39.93" cy="369.04" data-y="2.14" data-x="1585094400" r="1" fill="white"><title>2020-03-25: 2</title></circle>
	<circle cx="41.43" cy="368.50" data-y="2.34" data-x="1585180800" r="1" fill="white"><title>2020-03-26: 2</title></circle>
	<circle cx="42.92" cy="369.04" data-y="2.14" data-x="1585267200" r="1" fill="white"><title>2020-03-27: 2</title></circle>
	<circle cx="44.41" cy="366.88" data-y="2.92" data-x="1585353600" r="1" fill="white"><title>2020-03-28: 3</title></circle>
	<circle cx="45.91" cy="367.42" data-y="2.73" data-x="1585440000" r="1" fill="white"><title>2020-03-29: 3</title></circle>
	<circle cx="47.40" cy="365.79" data-y="3.31" data-x="1585526400" r="1" fill="white"><title>2020-03-30: 3</title></circle>
	<circle cx="48.89" cy="364.71" data-y="3.70" data-x="1585612800" r="1" fill="white"><title>2020-03-31: 4</title></circle>
	<circle cx="50.39" cy="365.25" data-y="3.51" data-x="1585699200" r="1" fill="white"><title>2020-04-01: 4</title></circle>
	<circle cx="51.88" cy="363.63" data-y="4.09" data-x="1585785600" r="1" fill="white"><title>2020-04-02: 4</title></circle>
	<circle cx="53.37" cy="363.09" data-y="4.29" data-x="1585872000" r="1" fill="white"><title>2020-04-03: 4</title></circle>
	<circle cx="54.87" cy="364.71" data-y="3.70" data-x="1585958400" r="1" fill="white"><title>2020-04-04: 4</title></circle>
	<circle cx="56.36" cy="365.25" data-y="3.51" data-x="1586044800" r="1" fill="white"><title>2020-04-05: 4</title></circle>
	<circle cx="57.85" cy="365.79" data-y="3.31" data-x="1586131200" r="1" fill="white"><title>2020-04-06: 3</title></circle>
	<circle cx="59.35" cy="366.34" data-y="3.12" data-x="1586217600" r="1" fill="white"><title>2020-04-07: 3</title></circle>
	<circle cx="60.84" cy="363.09" data-y="4.29" data-x="1586304000" r="1" fill="white"><title>2020-04-08: 4</title></circle>
	<circle cx="62.33" cy="364.71" data-y="3.70" data-x="1586390400" r="1" fill="white"><title>2020-04-09: 4</title></circle>
	<circle cx="63.83" cy="365.25" data-y="3.51" data-x="1586476800" r="1" fill="white"><title>2020-04-10: 4</title></circle>
	<circle cx="65.32" cy="363.63" data-y="4.09" data-x="1586563200" r="1" fill="white"><title>2020-04-11: 4</title></circle>
	<circle cx="66.81" cy="363.63" data-y="4.09" data-x="1586649600" r="1" fill="white"><title>2020-04-12: 4</title></circle>
	<circle cx="68.31" cy="364.71" data-y="3.70" data-x="1586736000" r="1" fill="white"><title>2020-04-13: 4</title></circle>
	<circle cx="69.80" cy="365.79" data-y="3.31" data-x="1586822400" r="1" fill="white"><title>2020-04-14: 3</title></circle>
	<circle cx="71.29" cy="368.50" data-y="2.34" data-x="1586908800" r="1" fill="white"><title>2020-04-15: 2</title></circle>
	<circle cx="72.79" cy="365.79" data-y="3.31" data-x="1586995200" r="1" fill="white"><title>2020-04-16: 3</title></circle>
	<circle cx="74.28" cy="365.79" data-y="3.31" data-x="1587081600" r="1" fill="white"><title>2020-04-17: 3</title></circle>
	<circle cx="75.77" cy="366.88" data-y="2.92" data-x="1587168000" r="1" fill="white"><title>2020-04-18: 3</title></circle>
	<circle cx="77.27" cy="366.88" data-y="2.92" data-x="1587254400" r="1" fill="white"><title>2020-04-19: 3</title></circle>
	<circle cx="78.76" cy="366.88" data-y="2.92" data-x="1587340800" r="1" fill="white"><title>2020-04-20: 3</title></circle>
	<circle cx="80.25" cy="364.71" data-y="3.70" data-x="1587427200" r="1" fill="white"><title>2020-04-21: 4</title></circle>
	<circle cx="81.74" cy="364.17" data-y="3.90" data-x="1587513600" r="1" fill="white"><title>2020-04-22: 4</title></circle>
	<circle cx="83.24" cy="366.34" data-y="3.12" data-x="1587600000" r="1" fill="white"><title>2020-04-23: 3</title></circle>
	<circle cx="84.73" cy="363.63" data-y="4.09" data-x="1587686400" r="1" fill="white"><title>2020-04-24: 4</title></circle>
	<circle cx="86.22" cy="362.00" data-y="4.68" data-x="1587772800" r="1" fill="white"><title>2020-04-25: 5</title></circle>
	<circle cx="87.72" cy="360.38" data-y="5.26" data-x="1587859200" r="1" fill="white"><title>2020-04-26: 5</title></circle>
	<circle cx="89.21" cy="353.88" data-y="7.60" data-x="1587945600" r="1" fill="white"><title>2020-04-27: 8</title></circle>
	<circle cx="90.70" cy="354.42" data-y="7.41" data-x="1588032000" r="1" fill="white"><title>2020-04-28: 7</title></circle>
	<circle cx="92.20" cy="354.96" data-y="7.21" data-x="1588118400" r="1" fill="white"><title>2020-04-29: 7</title></circle>
	<circle cx="93.69" cy="355.50" data-y="7.02" data-x="1588204800" r="1" fill="white"><title>2020-04-30: 7</title></circle>
	<circle cx="95.18" cy="357.13" data-y="6.43" data-x="1588291200" r="1" fill="white"><title>2020-05-01: 6</title></circle>
	<circle cx="96.68" cy="356.59" data-y="6.63" data-x="1588377600" r="1" fill="white"><title>2020-05-02: 7</title></circle>
	<circle cx="98.17" cy="355.50" data-y="7.02" data-x="1588464000" r="1" fill="white"><title>2020-05-03: 7</title></circle>
	<circle cx="99.66" cy="357.67" data-y="6.24" data-x="1588550400" r="1" fill="white"><title>2020-05-04: 6</title></circle>
	<circle cx="101.16" cy="356.59" data-y="6.63" data-x="1588636800" r="1" fill="white"><title>2020-05-05: 7</title></circle>
	<circle cx="102.65" cy="353.34" data-y="7.80" data-x="1588723200" r="1" fill="white"><title>2020-05-06: 8</title></circle>
	<circle cx="104.14" cy="349.01" data-y="9.35" data-x="1588809600" r="1" fill="white"><title>2020-05-07: 9</title></circle>
	<circle cx="105.64" cy="347.92" data-y="9.74" data-x="1588896000" r="1" fill="white"><title>2020-05-08: 10</title></circle>
	<circle cx="107.13" cy="347.92" data-y="9.74" data-x="1588982400" r="1" fill="white"><title>2020-05-09: 10</title></circle>
	<circle cx="108.62" cy="346.84" data-y="10.13" data-x="1589068800" r="1" fill="white"><title>2020-05-10: 10</title></circle>
	<circle cx="110.12" cy="346.84" data-y="10.13" data-x="1589155200" r="1" fill="white"><title>2020-05-11: 10</title></circle>
	<circle cx="111.61" cy="349.01" data-y="9.35" data-x="1589241600" r="1" fill="white"><title>2020-05-12: 9</title></circle>
	<circle cx="113.10" cy="349.55" data-y="9.16" data-x="1589328000" r="1" fill="white"><title>2020-05-13: 9</title></circle>
	<circle cx="114.60" cy="351.71" data-y="8.38" data-x="1589414400" r="1" fill="white"><title>2020-05-14: 8</title></circle>
	<circle cx="116.09" cy="349.55" data-y="9.16" data-x="1589500800" r="1" fill="white"><title>2020-05-15: 9</title></circle>
	<circle cx="117.58" cy="352.26" data-y="8.18" data-x="1589587200" r="1" fill="white"><title>2020-05-16: 8</title></circle>
	<circle cx="119.08" cy="356.59" data-y="6.63" data-x="1589673600" r="1" fill="white"><title>2020-05-17: 7</title></circle>
	<circle cx="120.57" cy="358.75" data-y="5.85" data-x="1589760000" r="1" fill="white"><title>2020-05-18: 6</title></circle>
	<circle cx="122.06" cy="356.05" data-y="6.82" data-x="1589846400" r="1" fill="white"><title>2020-05-19: 7</title></circle>
	<circle cx="123.56" cy="355.50" data-y="7.02" data-x="1589932800" r="1" fill="white"><title>2020-05-20: 7</title></circle>
	<circle cx="125.05" cy="353.88" data-y="7.60" data-x="1590019200" r="1" fill="white"><title>2020-05-21: 8</title></circle>
	<circle cx="126.54" cy="354.42" data-y="7.41" data-x="1590105600" r="1" fill="white"><title>2020-05-22: 7</title></circle>
	<circle cx="128.04" cy="354.96" data-y="7.21" data-x="1590192000" r="1" fill="white"><title>2020-05-23: 7</title></circle>
	<circle cx="129.53" cy="352.26" data-y="8.18" data-x="1590278400" r="1" fill="white"><title>2020-05-24: 8</title></circle>
	<circle cx="131.02" cy="352.26" data-y="8.18" data-x="1590364800" r="1" fill="white"><title>2020-05-25: 8</title></circle>
	<circle cx="132.52" cy="354.96" data-y="7.21" data-x="1590451200" r="1" fill="white"><title>2020-05-26: 7</title></circle>
	<circle cx="134.01" cy="356.59" data-y="6.63" data-x="1590537600" r="1" fill="white"><title>2020-05-27: 7</title></circle>
	<circle cx="135.50" cy="360.92" data-y="5.07" data-x="1590624000" r="1" fill="white"><title>2020-05-28: 5</title></circle>
	<circle cx="137.00" cy="365.79" data-y="3.31" data-x="1590710400" r="1" fill="white"><title>2020-05-29: 3</title></circle>
	<circle cx="138.49" cy="365.25" data-y="3.51" data-x="1590796800" r="1" fill="white"><title>2020-05-30: 4</title></circle>
	<circle cx="139.98" cy="366.88" data-y="2.92" data-x="1590883200" r="1" fill="white"><title>2020-05-31: 3</title></circle>
	<circle cx="141.48" cy="369.04" data-y="2.14" data-x="1590969600" r="1" fill="white"><title>2020-06-01: 2</title></circle>
	<circle cx="142.97" cy="369.58" data-y="1.95" data-x="1591056000" r="1" fill="white"><title>2020-06-02: 2</title></circle>
	<circle cx="144.46" cy="371.75" data-y="1.17" data-x="1591142400" r="1" fill="white"><title>2020-06-03: 1</title></circle>
	<circle cx="145.96" cy="371.21" data-y="1.36" data-x="1591228800" r="1" fill="white"><title>2020-06-04: 1</title></circle>
	<circle cx="147.45" cy="371.21" data-y="1.36" data-x="1591315200" r="1" fill="white"><title>2020-06-05: 1</title></circle>
	<circle cx="148.94" cy="370.67" data-y="1.56" data-x="1591401600" r="1" fill="white"><title>2020-06-06: 2</title></circle>
	<circle cx="150.44" cy="371.21" data-y="1.36" data-x="1591488000" r="1" fill="white"><title>2020-06-07: 1</title></circle>
	<circle cx="151.93" cy="370.13" data-y="1.75" data-x="1591574400" r="1" fill="white"><title>2020-06-08: 2</title></circle>
	<circle cx="153.42" cy="370.13" data-y="1.75" data-x="1591660800" r="1" fill="white"><title>2020-06-09: 2</title></circle>
	<circle cx="154.92" cy="369.58" data-y="1.95" data-x="1591747200" r="1" fill="white"><title>2020-06-10: 2</title></circle>
	<circle cx="156.41" cy="369.04" data-y="2.14" data-x="1591833600" r="1" fill="white"><title>2020-06-11: 2</title></circle>
	<circle cx="157.90" cy="369.04" data-y="2.14" data-x="1591920000" r="1" fill="white"><title>2020-06-12: 2</title></circle>
	<circle cx="159.40" cy="370.67" data-y="1.56" data-x="1592006400" r="1" fill="white"><title>2020-06-13: 2</title></circle>
	<circle cx="160.89" cy="371.21" data-y="1.36" data-x="1592092800" r="1" fill="white"><title>2020-06-14: 1</title></circle>
	<circle cx="162.38" cy="371.21" data-y="1.36" data-x="1592179200" r="1" fill="white"><title>2020-06-15: 1</title></circle>
	<circle cx="163.88" cy="371.75" data-y="1.17" data-x="1592265600" r="1" fill="white"><title>2020-06-16: 1</title></circle>
	<circle cx="165.37" cy="372.29" data-y="0.97" data-x="1592352000" r="1" fill="white"><title>2020-06-17: 1</title></circle>
	<circle cx="166.86" cy="373.38" data-y="0.58" data-x="1592438400" r="1" fill="white"><title>2020-06-18: 1</title></circle>
	<circle cx="168.36" cy="373.38" data-y="0.58" data-x="1592524800" r="1" fill="white"><title>2020-06-19: 1</title></circle>
	<circle cx="169.85" cy="373.38" data-y="0.58" data-x="1592611200" r="1" fill="white"><title>2020-06-20: 1</title></circle>
	<circle cx="171.34" cy="373.38" data-y="0.58" data-x="1592697600" r="1" fill="white"><title>2020-06-21: 1</title></circle>
	<circle cx="172.84" cy="375.00" data-y="0.00" data-x="1592784000" r="1" fill="white"><title>2020-06-22: 0</title></circle>
	<circle cx="174.33" cy="375.00" data-y="0.00" data-x="1592870400" r="1" fill="white"><title>2020-06-23: 0</title></circle>
	<circle cx="175.82" cy="375.00" data-y="0.00" data-x="1592956800" r="1" fill="white"><title>2020-06-24: 0</title></circle>
	<circle cx="177.32" cy="375.00" data-y="0.00" data-x="1593043200" r="1" fill="white"><title>2020-06-25: 0</title></circle>
	<circle cx="178.81" cy="375.00" data-y="0.00" data-x="1593129600" r="1" fill="white"><title>2020-06-26: 0</title></circle>
	<circle cx="180.30" cy="375.00" data-y="0.00" data-x="1593216000" r="1" fill="white"><title>2020-06-27: 0</title></circle>
	<circle cx="181.80" cy="375.00" data-y="0.00" data-x="1593302400" r="1" fill="white"><title>2020-06-28: 0</title></circle>
	<circle cx="183.29" cy="375.00" data-y="0.00" data-x="1593388800" r="1" fill="white"><title>2020-06-29: 0</title></circle>
	<circle cx="184.78" cy="375.00" data-y="0.00" data-x="1593475200" r="1" fill="white"><title>2020-06-30: 0</title></circle>
	<circle cx="186.28" cy="375.00" data-y="0.00" data-x="1593561600" r="1" fill="white"><title>2020-07-01: 0</title></circle>
	<circle cx="187.77" cy="375.00" data-y="0.00" data-x="1593648000" r="1" fill="white"><title>2020-07-02: 0</title></circle>
	<circle cx="189.26" cy="374.46" data-y="0.19" data-x="1593734400" r="1" fill="white"><title>2020-07-03: 0</title></circle>
	<circle cx="190.76" cy="374.46" data-y="0.19" data-x="1593820800" r="1" fill="white"><title>2020-07-04: 0</title></circle>
	<circle cx="192.25" cy="374.46" data-y="0.19" data-x="1593907200" r="1" fill="white"><title>2020-07-05: 0</title></circle>
	<circle cx="193.74" cy="373.92" data-y="0.39" data-x="1593993600" r="1" fill="white"><title>2020-07-06: 0</title></circle>
	<circle cx="195.23" cy="371.75" data-y="1.17" data-x="1594080000" r="1" fill="white"><title>2020-07-07: 1</title></circle>
	<circle cx="196.73" cy="371.21" data-y="1.36" data-x="1594166400" r="1" fill="white"><title>2020-07-08: 1</title></circle>
	<circle cx="198.22" cy="371.21" data-y="1.36" data-x="1594252800" r="1" fill="white"><title>2020-07-09: 1</title></circle>
	<circle cx="199.71" cy="370.67" data-y="1.56" data-x="1594339200" r="1" fill="white"><title>2020-07-10: 2</title></circle>
	<circle cx="201.21" cy="369.58" data-y="1.95" data-x="1594425600" r="1" fill="white"><title>2020-07-11: 2</title></circle>
	<circle cx="202.70" cy="367.96" data-y="2.53" data-x="1594512000" r="1" fill="white"><title>2020-07-12: 3</title></circle>
	<circle cx="204.19" cy="367.96" data-y="2.53" data-x="1594598400" r="1" fill="white"><title>2020-07-13: 3</title></circle>
	<circle cx="205.69" cy="369.58" data-y="1.95" data-x="1594684800" r="1" fill="white"><title>2020-07-14: 2</title></circle>
	<circle cx="207.18" cy="369.04" data-y="2.14" data-x="1594771200" r="1" fill="white"><title>2020-07-15: 2</title></circle>
	<circle cx="208.67" cy="367.96" data-y="2.53" data-x="1594857600" r="1" fill="white"><title>2020-07-16: 3</title></circle>
	<circle cx="210.17" cy="367.42" data-y="2.73" data-x="1594944000" r="1" fill="white"><title>2020-07-17: 3</title></circle>
	<circle cx="211.66" cy="366.88" data-y="2.92" data-x="1595030400" r="1" fill="white"><title>2020-07-18: 3</title></circle>
	<circle cx="213.15" cy="367.96" data-y="2.53" data-x="1595116800" r="1" fill="white"><title>2020-07-19: 3</title></circle>
	<circle cx="214.65" cy="368.50" data-y="2.34" data-x="1595203200" r="1" fill="white"><title>2020-07-20: 2</title></circle>
	<circle cx="216.14" cy="369.04" data-y="2.14" data-x="1595289600" r="1" fill="white"><title>2020-07-21: 2</title></circle>
	<circle cx="217.63" cy="369.58" data-y="1.95" data-x="1595376000" r="1" fill="white"><title>2020-07-22: 2</title></circle>
	<circle cx="219.13" cy="370.67" data-y="1.56" data-x="1595462400" r="1" fill="white"><title>2020-07-23: 2</title></circle>
	<circle cx="220.62" cy="370.67" data-y="1.56" data-x="1595548800" r="1" fill="white"><title>2020-07-24: 2</title></circle>
	<circle cx="222.11" cy="372.29" data-y="0.97" data-x="1595635200" r="1" fill="white"><title>2020-07-25: 1</title></circle>
	<circle cx="223.61" cy="372.83" data-y="0.78" data-x="1595721600" r="1" fill="white"><title>2020-07-26: 1</title></circle>
	<circle cx="225.10" cy="372.29" data-y="0.97" data-x="1595808000" r="1" fill="white"><title>2020-07-27: 1</title></circle>
	<circle cx="226.59" cy="371.21" data-y="1.36" data-x="1595894400" r="1" fill="white"><title>2020-07-28: 1</title></circle>
	<circle cx="228.09" cy="371.21" data-y="1.36" data-x="1595980800" r="1" fill="white"><title>2020-07-29: 1</title></circle>
	<circle cx="229.58" cy="371.21" data-y="1.36" data-x="1596067200" r="1" fill="white"><title>2020-07-30: 1</title></circle>
	<circle cx="231.07" cy="371.21" data-y="1.36" data-x="1596153600" r="1" fill="white"><title>2020-07-31: 1</title></circle>
	<circle cx="232.57" cy="370.13" data-y="1.75" data-x="1596240000" r="1" fill="white"><title>2020-08-01: 2</title></circle>
	<circle cx="234.06" cy="368.50" data-y="2.34" data-x="1596326400" r="1" fill="white"><title>2020-08-02: 2</title></circle>
	<circle cx="235.55" cy="366.88" data-y="2.92" data-x="1596412800" r="1" fill="white"><title>2020-08-03: 3</title></circle>
	<circle cx="237.05" cy="366.88" data-y="2.92" data-x="1596499200" r="1" fill="white"><title>2020-08-04: 3</title></circle>
	<circle cx="238.54" cy="367.42" data-y="2.73" data-x="1596585600" r="1" fill="white"><title>2020-08-05: 3</title></circle>
	<circle cx="240.03" cy="365.79" data-y="3.31" data-x="1596672000" r="1" fill="white"><title>2020-08-06: 3</title></circle>
	<circle cx="241.53" cy="365.25" data-y="3.51" data-x="1596758400" r="1" fill="white"><title>2020-08-07: 4</title></circle>
	<circle cx="243.02" cy="365.79" data-y="3.31" data-x="1596844800" r="1" fill="white"><title>2020-08-08: 3</title></circle>
	<circle cx="244.51" cy="366.34" data-y="3.12" data-x="1596931200" r="1" fill="white"><title>2020-08-09: 3</title></circle>
	<circle cx="246.01" cy="367.42" data-y="2.73" data-x="1597017600" r="1" fill="white"><title>2020-08-10: 3</title></circle>
	<circle cx="247.50" cy="368.50" data-y="2.34" data-x="1597104000" r="1" fill="white"><title>2020-08-11: 2</title></circle>
	<circle cx="248.99" cy="367.96" data-y="2.53" data-x="1597190400" r="1" fill="white"><title>2020-08-12: 3</title></circle>
	<circle cx="250.49" cy="367.42" data-y="2.73" data-x="1597276800" r="1" fill="white"><title>2020-08-13: 3</title></circle>
	<circle cx="251.98" cy="367.96" data-y="2.53" data-x="1597363200" r="1" fill="white"><title>2020-08-14: 3</title></circle>
	<circle cx="253.47" cy="368.50" data-y="2.34" data-x="1597449600" r="1" fill="white"><title>2020-08-15: 2</title></circle>
	<circle cx="254.97" cy="367.42" data-y="2.73" data-x="1597536000" r="1" fill="white"><title>2020-08-16: 3</title></circle>
	<circle cx="256.46" cy="367.96" data-y="2.53" data-x="1597622400" r="1" fill="white"><title>2020-08-17: 3</title></circle>
	<circle cx="257.95" cy="365.79" data-y="3.31" data-x="1597708800" r="1" fill="white"><title>2020-08-18: 3</title></circle>
	<circle cx="259.45" cy="366.34" data-y="3.12" data-x="1597795200" r="1" fill="white"><title>2020-08-19: 3</title></circle>
	<circle cx="260.94" cy="366.88" data-y="2.92" data-x="1597881600" r="1" fill="white"><title>2020-08-20: 3</title></circle>
	<circle cx="262.43" cy="365.79" data-y="3.31" data-x="1597968000" r="1" fill="white"><title>2020-08-21: 3</title></circle>
	<circle cx="263.93" cy="358.75" data-y="5.85" data-x="1598054400" r="1" fill="white"><title>2020-08-22: 6</title></circle>
	<circle cx="265.42" cy="355.50" data-y="7.02" data-x="1598140800" r="1" fill="white"><title>2020-08-23: 7</title></circle>
	<circle cx="266.91" cy="352.80" data-y="7.99" data-x="1598227200" r="1" fill="white"><title>2020-08-24: 8</title></circle>
	<circle cx="268.41" cy="353.88" data-y="7.60" data-x="1598313600" r="1" fill="white"><title>2020-08-25: 8</title></circle>
	<circle cx="269.90" cy="352.80" data-y="7.99" data-x="1598400000" r="1" fill="white"><title>2020-08-26: 8</title></circle>
	<circle cx="271.39" cy="353.88" data-y="7.60" data-x="1598486400" r="1" fill="white"><title>2020-08-27: 8</title></circle>
	<circle cx="272.89" cy="356.05" data-y="6.82" data-x="1598572800" r="1" fill="white"><title>2020-08-28: 7</title></circle>
	<circle cx="274.38" cy="358.75" data-y="5.85" data-x="1598659200" r="1" fill="white"><title>2020-08-29: 6</title></circle>
	<circle cx="275.87" cy="360.38" data-y="5.26" data-x="1598745600" r="1" fill="white"><title>2020-08-30: 5</title></circle>
	<circle cx="277.37" cy="360.92" data-y="5.07" data-x="1598832000" r="1" fill="white"><title>2020-08-31: 5</title></circle>
	<circle cx="278.86" cy="358.75" data-y="5.85" data-x="1598918400" r="1" fill="white"><title>2020-09-01: 6</title></circle>
	<circle cx="280.35" cy="356.05" data-y="6.82" data-x="1599004800" r="1" fill="white"><title>2020-09-02: 7</title></circle>
	<circle cx="281.85" cy="356.05" data-y="6.82" data-x="1599091200" r="1" fill="white"><title>2020-09-03: 7</title></circle>
	<circle cx="283.34" cy="349.55" data-y="9.16" data-x="1599177600" r="1" fill="white"><title>2020-09-04: 9</title></circle>
	<circle cx="284.83" cy="352.26" data-y="8.18" data-x="1599264000" r="1" fill="white"><title>2020-09-05: 8</title></circle>
	<circle cx="286.33" cy="352.26" data-y="8.18" data-x="1599350400" r="1" fill="white"><title>2020-09-06: 8</title></circle>
	<circle cx="287.82" cy="354.42" data-y="7.41" data-x="1599436800" r="1" fill="white"><title>2020-09-07: 7</title></circle>
	<circle cx="289.31" cy="356.59" data-y="6.63" data-x="1599523200" r="1" fill="white"><title>2020-09-08: 7</title></circle>
	<circle cx="290.81" cy="359.30" data-y="5.65" data-x="1599609600" r="1" fill="white"><title>2020-09-09: 6</title></circle>
	<circle cx="292.30" cy="358.21" data-y="6.04" data-x="1599696000" r="1" fill="white"><title>2020-09-10: 6</title></circle>
	<circle cx="293.79" cy="364.71" data-y="3.70" data-x="1599782400" r="1" fill="white"><title>2020-09-11: 4</title></circle>
	<circle cx="295.29" cy="365.25" data-y="3.51" data-x="1599868800" r="1" fill="white"><title>2020-09-12: 4</title></circle>
	<circle cx="296.78" cy="365.25" data-y="3.51" data-x="1599955200" r="1" fill="white"><title>2020-09-13: 4</title></circle>
	<circle cx="298.27" cy="363.63" data-y="4.09" data-x="1600041600" r="1" fill="white"><title>2020-09-14: 4</title></circle>
	<circle cx="299.77" cy="363.09" data-y="4.29" data-x="1600128000" r="1" fill="white"><title>2020-09-15: 4</title></circle>
	<circle cx="301.26" cy="363.63" data-y="4.09" data-x="1600214400" r="1" fill="white"><title>2020-09-16: 4</title></circle>
	<circle cx="302.75" cy="361.46" data-y="4.87" data-x="1600300800" r="1" fill="white"><title>2020-09-17: 5</title></circle>
	<circle cx="304.24" cy="361.46" data-y="4.87" data-x="1600387200" r="1" fill="white"><title>2020-09-18: 5</title></circle>
	<circle cx="305.74" cy="361.46" data-y="4.87" data-x="1600473600" r="1" fill="white"><title>2020-09-19: 5</title></circle>
	<circle cx="307.23" cy="360.92" data-y="5.07" data-x="1600560000" r="1" fill="white"><title>2020-09-20: 5</title></circle>
	<circle cx="308.72" cy="360.92" data-y="5.07" data-x="1600646400" r="1" fill="white"><title>2020-09-21: 5</title></circle>
	<circle cx="310.22" cy="359.84" data-y="5.46" data-x="1600732800" r="1" fill="white"><title>2020-09-22: 5</title></circle>
	<circle cx="311.71" cy="358.21" data-y="6.04" data-x="1600819200" r="1" fill="white"><title>2020-09-23: 6</title></circle>
	<circle cx="313.20" cy="360.38" data-y="5.26" data-x="1600905600" r="1" fill="white"><title>2020-09-24: 5</title></circle>
	<circle cx="314.70" cy="358.75" data-y="5.85" data-x="1600992000" r="1" fill="white"><title>2020-09-25: 6</title></circle>
	<circle cx="316.19" cy="359.30" data-y="5.65" data-x="1601078400" r="1" fill="white"><title>2020-09-26: 6</title></circle>
	<circle cx="317.68" cy="362.54" data-y="4.48" data-x="1601164800" r="1" fill="white"><title>2020-09-27: 4</title></circle>
	<circle cx="319.18" cy="360.92" data-y="5.07" data-x="1601251200" r="1" fill="white"><title>2020-09-28: 5</title></circle>
	<circle cx="320.67" cy="360.38" data-y="5.26" data-x="1601337600" r="1" fill="white"><title>2020-09-29: 5</title></circle>
	<circle cx="322.16" cy="360.38" data-y="5.26" data-x="1601424000" r="1" fill="white"><title>2020-09-30: 5</title></circle>
	<circle cx="323.66" cy="358.21" data-y="6.04" data-x="1601510400" r="1" fill="white"><title>2020-10-01: 6</title></circle>
	<circle cx="325.15" cy="358.75" data-y="5.85" data-x="1601596800" r="1" fill="white"><title>2020-10-02: 6</title></circle>
	<circle cx="326.64" cy="354.42" data-y="7.41" data-x="1601683200" r="1" fill="white"><title>2020-10-03: 7</title></circle>
	<circle cx="328.14" cy="350.09" data-y="8.96" data-x="1601769600" r="1" fill="white"><title>2020-10-04: 9</title></circle>
	<circle cx="329.63" cy="350.09" data-y="8.96" data-x="1601856000" r="1" fill="white"><title>2020-10-05: 9</title></circle>
	<circle cx="331.12" cy="344.67" data-y="10.91" data-x="1601942400" r="1" fill="white"><title>2020-10-06: 11</title></circle>
	<circle cx="332.62" cy="343.59" data-y="11.30" data-x="1602028800" r="1" fill="white"><title>2020-10-07: 11</title></circle>
	<circle cx="334.11" cy="345.22" data-y="10.72" data-x="1602115200" r="1" fill="white"><title>2020-10-08: 11</title></circle>
	<circle cx="335.60" cy="345.76" data-y="10.52" data-x="1602201600" r="1" fill="white"><title>2020-10-09: 11</title></circle>
	<circle cx="337.10" cy="348.46" data-y="9.55" data-x="1602288000" r="1" fill="white"><title>2020-10-10: 10</title></circle>
	<circle cx="338.59" cy="350.09" data-y="8.96" data-x="1602374400" r="1" fill="white"><title>2020-10-11: 9</title></circle>
	<circle cx="340.08" cy="351.17" data-y="8.57" data-x="1602460800" r="1" fill="white"><title>2020-10-12: 9</title></circle>
	<circle cx="341.58" cy="353.88" data-y="7.60" data-x="1602547200" r="1" fill="white"><title>2020-10-13: 8</title></circle>
	<circle cx="343.07" cy="353.88" data-y="7.60" data-x="1602633600" r="1" fill="white"><title>2020-10-14: 8</title></circle>
	<circle cx="344.56" cy="351.71" data-y="8.38" data-x="1602720000" r="1" fill="white"><title>2020-10-15: 8</title></circle>
	<circle cx="346.06" cy="341.97" data-y="11.89" data-x="1602806400" r="1" fill="white"><title>2020-10-16: 12</title></circle>
	<circle cx="347.55" cy="338.18" data-y="13.25" data-x="1602892800" r="1" fill="white"><title>2020-10-17: 13</title></circle>
	<circle cx="349.04" cy="337.09" data-y="13.64" data-x="1602979200" r="1" fill="white"><title>2020-10-18: 14</title></circle>
	<circle cx="350.54" cy="334.93" data-y="14.42" data-x="1603065600" r="1" fill="white"><title>2020-10-19: 14</title></circle>
	<circle cx="352.03" cy="335.47" data-y="14.23" data-x="1603152000" r="1" fill="white"><title>2020-10-20: 14</title></circle>
	<circle cx="353.52" cy="336.55" data-y="13.84" data-x="1603238400" r="1" fill="white"><title>2020-10-21: 14</title></circle>
	<circle cx="355.02" cy="337.09" data-y="13.64" data-x="1603324800" r="1" fill="white"><title>2020-10-22: 14</title></circle>
	<circle cx="356.51" cy="343.05" data-y="11.50" data-x="1603411200" r="1" fill="white"><title>2020-10-23: 11</title></circle>
	<circle cx="358.00" cy="341.42" data-y="12.08" data-x="1603497600" r="1" fill="white"><title>2020-10-24: 12</title></circle>
	<circle cx="359.50" cy="340.88" data-y="12.28" data-x="1603584000" r="1" fill="white"><title>2020-10-25: 12</title></circle>
	<circle cx="360.99" cy="340.88" data-y="12.28" data-x="1603670400" r="1" fill="white"><title>2020-10-26: 12</title></circle>
	<circle cx="362.48" cy="341.42" data-y="12.08" data-x="1603756800" r="1" fill="white"><title>2020-10-27: 12</title></circle>
	<circle cx="363.98" cy="340.88" data-y="12.28" data-x="1603843200" r="1" fill="white"><title>2020-10-28: 12</title></circle>
	<circle cx="365.47" cy="340.88" data-y="12.28" data-x="1603929600" r="1" fill="white"><title>2020-10-29: 12</title></circle>
	<circle cx="366.96" cy="337.63" data-y="13.45" data-x="1604016000" r="1" fill="white"><title>2020-10-30: 13</title></circle>
	<circle cx="368.46" cy="334.93" data-y="14.42" data-x="1604102400" r="1" fill="white"><title>2020-10-31: 14</title></circle>
	<circle cx="369.95" cy="334.38" data-y="14.62" data-x="1604188800" r="1" fill="white"><title>2020-11-01: 15</title></circle>
	<circle cx="371.44" cy="334.38" data-y="14.62" data-x="1604275200" r="1" fill="white"><title>2020-11-02: 15</title></circle>
	<circle cx="372.94" cy="329.51" data-y="16.37" data-x="1604361600" r="1" fill="white"><title>2020-11-03: 16</title></circle>
	<circle cx="374.43" cy="328.43" data-y="16.76" data-x="1604448000" r="1" fill="white"><title>2020-11-04: 17</title></circle>
	<circle cx="375.92" cy="313.26" data-y="22.22" data-x="1604534400" r="1" fill="white"><title>2020-11-05: 22</title></circle>
	<circle cx="377.42" cy="310.56" data-y="23.19" data-x="1604620800" r="1" fill="white"><title>2020-11-06: 23</title></circle>
	<circle cx="378.91" cy="306.22" data-y="24.75" data-x="1604707200" r="1" fill="white"><title>2020-11-07: 25</title></circle>
	<circle cx="380.40" cy="300.81" data-y="26.70" data-x="1604793600" r="1" fill="white"><title>2020-11-08: 27</title></circle>
	<circle cx="381.90" cy="296.48" data-y="28.26" data-x="1604880000" r="1" fill="white"><title>2020-11-09: 28</title></circle>
	<circle cx="383.39" cy="295.93" data-y="28.45" data-x="1604966400" r="1" fill="white"><title>2020-11-10: 28</title></circle>
	<circle cx="384.88" cy="292.14" data-y="29.82" data-x="1605052800" r="1" fill="white"><title>2020-11-11: 30</title></circle>
	<circle cx="386.38" cy="306.77" data-y="24.55" data-x="1605139200" r="1" fill="white"><title>2020-11-12: 25</title></circle>
	<circle cx="387.87" cy="305.68" data-y="24.94" data-x="1605225600" r="1" fill="white"><title>2020-11-13: 25</title></circle>
	<circle cx="389.36" cy="302.97" data-y="25.92" data-x="1605312000" r="1" fill="white"><title>2020-11-14: 26</title></circle>
	<circle cx="390.86" cy="303.52" data-y="25.72" data-x="1605398400" r="1" fill="white"><title>2020-11-15: 26</title></circle>
	<circle cx="392.35" cy="304.60" data-y="25.33" data-x="1605484800" r="1" fill="white"><title>2020-11-16: 25</title></circle>
	<circle cx="393.84" cy="308.93" data-y="23.77" data-x="1605571200" r="1" fill="white"><title>2020-11-17: 24</title></circle>
	<circle cx="395.34" cy="313.26" data-y="22.22" data-x="1605657600" r="1" fill="white"><title>2020-11-18: 22</title></circle>
	<circle cx="396.83" cy="312.18" data-y="22.61" data-x="1605744000" r="1" fill="white"><title>2020-11-19: 23</title></circle>
	<circle cx="398.32" cy="315.43" data-y="21.44" data-x="1605830400" r="1" fill="white"><title>2020-11-20: 21</title></circle>
	<circle cx="399.82" cy="325.18" data-y="17.93" data-x="1605916800" r="1" fill="white"><title>2020-11-21: 18</title></circle>
	<circle cx="401.31" cy="326.26" data-y="17.54" data-x="1606003200" r="1" fill="white"><title>2020-11-22: 18</title></circle>
	<circle cx="402.80" cy="330.05" data-y="16.17" data-x="1606089600" r="1" fill="white"><title>2020-11-23: 16</title></circle>
	<circle cx="404.30" cy="330.59" data-y="15.98" data-x="1606176000" r="1" fill="white"><title>2020-11-24: 16</title></circle>
	<circle cx="405.79" cy="330.59" data-y="15.98" data-x="1606262400" r="1" fill="white"><title>2020-11-25: 16</title></circle>
	<circle cx="407.28" cy="331.68" data-y="15.59" data-x="1606348800" r="1" fill="white"><title>2020-11-26: 16</title></circle>
	<circle cx="408.78" cy="334.38" data-y="14.62" data-x="1606435200" r="1" fill="white"><title>2020-11-27: 15</title></circle>
	<circle cx="410.27" cy="334.93" data-y="14.42" data-x="1606521600" r="1" fill="white"><title>2020-11-28: 14</title></circle>
	<circle cx="411.76" cy="338.18" data-y="13.25" data-x="1606608000" r="1" fill="white"><title>2020-11-29: 13</title></circle>
	<circle cx="413.26" cy="337.63" data-y="13.45" data-x="1606694400" r="1" fill="white"><title>2020-11-30: 13</title></circle>
	<circle cx="414.75" cy="335.47" data-y="14.23" data-x="1606780800" r="1" fill="white"><title>2020-12-01: 14</title></circle>
	<circle cx="416.24" cy="336.01" data-y="14.03" data-x="1606867200" r="1" fill="white"><title>2020-12-02: 14</title></circle>
	<circle cx="417.73" cy="334.93" data-y="14.42" data-x="1606953600" r="1" fill="white"><title>2020-12-03: 14</title></circle>
	<circle cx="419.23" cy="335.47" data-y="14.23" data-x="1607040000" r="1" fill="white"><title>2020-12-04: 14</title></circle>
	<circle cx="420.72" cy="336.01" data-y="14.03" data-x="1607126400" r="1" fill="white"><title>2020-12-05: 14</title></circle>
	<circle cx="422.21" cy="338.18" data-y="13.25" data-x="1607212800" r="1" fill="white"><title>2020-12-06: 13</title></circle>
	<circle cx="423.71" cy="336.55" data-y="13.84" data-x="1607299200" r="1" fill="white"><title>2020-12-07: 14</title></circle>
	<circle cx="425.20" cy="336.55" data-y="13.84" data-x="1607385600" r="1" fill="white"><title>2020-12-08: 14</title></circle>
	<circle cx="426.69" cy="332.22" data-y="15.40" data-x="1607472000" r="1" fill="white"><title>2020-12-09: 15</title></circle>
	<circle cx="428.19" cy="334.38" data-y="14.62" data-x="1607558400" r="1" fill="white"><title>2020-12-10: 15</title></circle>
	<circle cx="429.68" cy="331.14" data-y="15.78" data-x="1607644800" r="1" fill="white"><title>2020-12-11: 16</title></circle>
	<circle cx="431.17" cy="327.89" data-y="16.95" data-x="1607731200" r="1" fill="white"><title>2020-12-12: 17</title></circle>
	<circle cx="432.67" cy="321.93" data-y="19.10" data-x="1607817600" r="1" fill="white"><title>2020-12-13: 19</title></circle>
	<circle cx="434.16" cy="315.97" data-y="21.24" data-x="1607904000" r="1" fill="white"><title>2020-12-14: 21</title></circle>
	<circle cx="435.65" cy="315.97" data-y="21.24" data-x="1607990400" r="1" fill="white"><title>2020-12-15: 21</title></circle>
	<circle cx="437.15" cy="311.10" data-y="23.00" data-x="1608076800" r="1" fill="white"><title>2020-12-16: 23</title></circle>
	<circle cx="438.64" cy="305.14" data-y="25.14" data-x="1608163200" r="1" fill="white"><title>2020-12-17: 25</title></circle>
	<circle cx="440.13" cy="298.64" data-y="27.48" data-x="1608249600" r="1" fill="white"><title>2020-12-18: 27</title></circle>
	<circle cx="441.63" cy="293.77" data-y="29.23" data-x="1608336000" r="1" fill="white"><title>2020-12-19: 29</title></circle>
	<circle cx="443.12" cy="288.89" data-y="30.99" data-x="1608422400" r="1" fill="white"><title>2020-12-20: 31</title></circle>
	<circle cx="444.61" cy="288.35" data-y="31.18" data-x="1608508800" r="1" fill="white"><title>2020-12-21: 31</title></circle>
	<circle cx="446.11" cy="295.39" data-y="28.65" data-x="1608595200" r="1" fill="white"><title>2020-12-22: 29</title></circle>
	<circle cx="447.60" cy="294.85" data-y="28.84" data-x="1608681600" r="1" fill="white"><title>2020-12-23: 29</title></circle>
	<circle cx="449.09" cy="285.10" data-y="32.35" data-x="1608768000" r="1" fill="white"><title>2020-12-24: 32</title></circle>
	<circle cx="450.59" cy="272.11" data-y="37.03" data-x="1608854400" r="1" fill="white"><title>2020-12-25: 37</title></circle>
	<circle cx="452.08" cy="233.66" data-y="50.86" data-x="1608940800" r="1" fill="white"><title>2020-12-26: 51</title></circle>
	<circle cx="453.57" cy="189.79" data-y="66.65" data-x="1609027200" r="1" fill="white"><title>2020-12-27: 67</title></circle>
	<circle cx="455.07" cy="143.22" data-y="83.41" data-x="1609113600" r="1" fill="white"><title>2020-12-28: 83</title></circle>
	<circle cx="456.56" cy="118.31" data-y="92.37" data-x="1609200000" r="1" fill="white"><title>2020-12-29: 92</title></circle>
	<circle cx="458.05" cy="82.03" data-y="105.43" data-x="1609286400" r="1" fill="white"><title>2020-12-30: 105</title></circle>
	<circle cx="459.55" cy="63.61" data-y="112.05" data-x="1609372800" r="1" fill="white"><title>2020-12-31: 112</title></circle>
	<circle cx="461.04" cy="17.58" data-y="128.62" data-x="1609459200" r="1" fill="white"><title>2021-01-01: 129</title></circle>
	<circle cx="462.53" cy="10.00" data-y="131.35" data-x="1609545600" r="1" fill="white"><title>2021-01-02: 131</title></circle>
</g>
<g data-series="recent-cases" class="data-series">
	<path d="M 462.53,10.00L 464.03,27.87L 465.52,87.44L 467.01,69.21L 468.51,76.28L 470.00,67.00" id="Recent cases" class="line" stroke-width="1" stroke-linecap="round" stroke-dasharray="4,6" stroke-dashoffset="4"><title>Recent cases</title></path>
	<circle cx="462.53" cy="10.00" data-y="131.35" data-x="1609545600" r="2.5" fill="white"><title>2021-01-02: 131</title></circle>
	<circle cx="464.03" cy="27.87" data-y="124.91" data-x="1609632000" r="2.5" fill="white"><title>2021-01-03: 125</title></circle>
	<circle cx="465.52" cy="87.44" data-y="103.48" data-x="1609718400" r="2.5" fill="white"><title>2021-01-04: 103</title></circle>
	<circle cx="467.01" cy="69.21" data-y="110.04" data-x="1609804800" r="2.5" fill="white"><title>2021-01-05: 110</title></circle>
	<circle cx="468.51" cy="76.28" data-y="107.49" data-x="1609891200" r="2.5" fill="white"><title>2021-01-06: 107</title></circle>
	<circle cx="470.00" cy="67.00" data-y="110.84" data-x="1609977600" r="2.5" fill="white"><title>2021-01-07: 111</title></circle>
</g>
</svg>
