<svg width="480" height="400" viewBox="0 0 480 400" xmlns="http://www.w3.org/2000/svg" style="overflow:display" preserveAspectRatio="xMinYMin meet" overflow="visible">
<defs>
	<style>
	.data-series path.line { fill-opacity: 0; stroke: black; }
	.data-series path.line.dotted { stroke-dasharray: 12 20 }
	.data-series:hover path.line, .data-series.on path.line { stroke-width: 1; }
	.data-series:hover circle, .data-series.on circle { display: inline; }
	.graph-grid { font-family: "Helvetica Neue",Helvetica,Arial,"Lucida Grande",sans-serif; }
	.graph-grid line { stroke: black; stroke-width: 1; stroke-linecap: round; }
	.graph-grid.graph-grid-x text { text-anchor: middle; dominant-baseline: hanging; transform: translateY(10px); }
	.graph-grid.graph-grid-y text { text-anchor: end; dominant-baseline: middle; transform: translateX(-10px); }
	</style>
</defs>
<g class="graph-grid graph-grid-y">
	<line x1="25.00" y1="375.00" x2="470.00" y2="375.00" data-left="25"></line>
	<text x="35" y="375" text-anchor="end">0</text>
	<text x="35" y="270.909973634652" text-anchor="end">20</text>
	<text x="35" y="166.819947269303" text-anchor="end">40</text>
	<text x="35" y="62.7299209039548" text-anchor="end">60</text>
	<text style="text-anchor:middle;dominant-baseline:hanging;font-weight:bold;transform: translateY(192.5px) rotate(-90deg);"></text>
</g>
<g class="graph-grid graph-grid-x">
	<line class="tick" x1="63.94" y1="375.00" x2="63.94" y2="380.00"></line>
	<text x="63.9375" y="375" text-anchor="middle">A</text>
	<line class="tick" x1="105.66" y1="375.00" x2="105.66" y2="380.00"></line>
	<text x="105.65625" y="375" text-anchor="middle">M</text>
	<line class="tick" x1="148.77" y1="375.00" x2="148.77" y2="380.00"></line>
	<text x="148.765625" y="375" text-anchor="middle">J</text>
	<line class="tick" x1="190.48" y1="375.00" x2="190.48" y2="380.00"></line>
	<text x="190.484375" y="375" text-anchor="middle">J</text>
	<line class="tick" x1="233.59" y1="375.00" x2="233.59" y2="380.00"></line>
	<text x="233.59375" y="375" text-anchor="middle">A</text>
	<line class="tick" x1="276.70" y1="375.00" x2="276.70" y2="380.00"></line>
	<text x="276.703125" y="375" text-anchor="middle">S</text>
	<line class="tick" x1="318.42" y1="375.00" x2="318.42" y2="380.00"></line>
	<text x="318.421875" y="375" text-anchor="middle">O</text>
	<line class="tick" x1="361.53" y1="375.00" x2="361.53" y2="380.00"></line>
	<text x="361.53125" y="375" text-anchor="middle">N</text>
	<line class="tick" x1="403.25" y1="375.00" x2="403.25" y2="380.00"></line>
	<text x="403.25" y="375" text-anchor="middle">D</text>
	<line class="tick" x1="446.36" y1="375.00" x2="446.36" y2="380.00"></line>
	<text x="446.359375" y="375" text-anchor="middle">J</text>
	<text style="text-anchor:middle;dominant-baseline:hanging;font-weight:bold;transform: translateY(192.5px) rotate(-90deg);"></text>
</g>
<g data-series="widespread" class="data-series">
	<path d="M 25.00,338.57L 470.00,338.57" id="E07000039-level-0" class="line" stroke-width="1" stroke-linecap="round" stroke-dasharray="3,3" fill-opacity="0.3" opacity="0.3"><title>Widespread</title></path>
</g>
<g data-series="substantial" class="data-series">
	<path d="M 25.00,354.18L 470.00,354.18" id="E07000039-level-1" class="line" stroke-width="1" stroke-linecap="round" stroke-dasharray="3,3" fill-opacity="0.3" opacity="0.3"><title>Substantial</title></path>
</g>
<g data-series="moderate" class="data-series">
	<path d="M 25.00,369.80L 470.00,369.80" id="E07000039-level-2" class="line" stroke-width="1" stroke-linecap="round" stroke-dasharray="3,3" fill-opacity="0.3" opacity="0.3"><title>Moderate</title></path>
</g>
<g data-series="new-cases" class="data-series">
	<path d="M 25.00,373.80L 26.39,374.04L 27.78,373.40L 29.17,373.63L 30.56,374.31L 31.95,373.63L 33.34,372.94L 34.73,372.94L 36.12,372.25L 37.52,371.56L 38.91,370.19L 40.30,369.50L 41.69,367.44L 43.08,367.44L 44.47,366.75L 45.86,365.38L 47.25,361.94L 48.64,361.94L 50.03,361.94L 51.42,361.94L 52.81,358.50L 54.20,358.50L 55.59,358.50L 56.98,361.25L 58.38,357.13L 59.77,349.57L 61.16,350.25L 62.55,348.19L 63.94,344.07L 65.33,345.44L 66.72,346.82L 68.11,346.13L 69.50,349.57L 70.89,344.76L 72.28,345.44L 73.67,346.82L 75.06,342.01L 76.45,339.94L 77.84,342.69L 79.23,346.13L 80.62,348.19L 82.02,347.50L 83.41,348.19L 84.80,351.63L 86.19,352.32L 87.58,352.32L 88.97,349.57L 90.36,350.25L 91.75,350.25L 93.14,344.07L 94.53,339.94L 95.92,339.26L 97.31,341.32L 98.70,340.63L 100.09,343.38L 101.48,345.44L 102.88,352.32L 104.27,355.75L 105.66,356.44L 107.05,351.63L 108.44,348.88L 109.83,346.82L 111.22,347.50L 112.61,345.44L 114.00,347.50L 115.39,344.76L 116.78,347.50L 118.17,353.00L 119.56,351.63L 120.95,351.63L 122.34,353.00L 123.73,352.32L 125.12,355.75L 126.52,356.44L 127.91,355.75L 129.30,355.75L 130.69,354.38L 132.08,355.75L 133.47,353.00L 134.86,347.50L 136.25,350.25L 137.64,350.25L 139.03,353.69L 140.42,357.13L 141.81,357.82L 143.20,360.56L 144.59,366.06L 145.98,364.00L 147.38,365.38L 148.77,363.31L 150.16,364.00L 151.55,364.69L 152.94,366.06L 154.33,366.06L 155.72,368.13L 157.11,368.13L 158.50,370.88L 159.89,370.88L 161.28,370.19L 162.67,369.50L 164.06,370.19L 165.45,370.19L 166.84,370.88L 168.23,371.56L 169.62,372.25L 171.02,372.25L 172.41,372.25L 173.80,372.25L 175.19,372.25L 176.58,372.94L 177.97,372.25L 179.36,371.56L 180.75,372.25L 182.14,372.25L 183.53,372.94L 184.92,372.25L 186.31,372.25L 187.70,372.94L 189.09,373.63L 190.48,373.63L 191.88,373.63L 193.27,372.94L 194.66,373.63L 196.05,373.63L 197.44,373.63L 198.83,373.63L 200.22,373.63L 201.61,372.94L 203.00,372.94L 204.39,372.94L 205.78,372.25L 207.17,372.25L 208.56,371.56L 209.95,371.56L 211.34,372.94L 212.73,373.63L 214.12,372.94L 215.52,373.63L 216.91,372.94L 218.30,372.94L 219.69,372.94L 221.08,372.94L 222.47,372.25L 223.86,372.94L 225.25,372.25L 226.64,371.56L 228.03,371.56L 229.42,370.88L 230.81,369.50L 232.20,368.81L 233.59,368.81L 234.98,368.13L 236.38,369.50L 237.77,368.13L 239.16,368.81L 240.55,368.13L 241.94,368.81L 243.33,368.13L 244.72,368.81L 246.11,368.81L 247.50,370.88L 248.89,370.88L 250.28,372.25L 251.67,372.94L 253.06,373.63L 254.45,373.63L 255.84,373.63L 257.23,373.63L 258.62,373.63L 260.02,374.31L 261.41,374.31L 262.80,372.94L 264.19,372.94L 265.58,372.25L 266.97,370.88L 268.36,370.88L 269.75,369.50L 271.14,367.44L 272.53,367.44L 273.92,364.69L 275.31,360.56L 276.70,359.88L 278.09,357.82L 279.48,357.82L 280.88,354.38L 282.27,352.32L 283.66,353.00L 285.05,354.38L 286.44,355.07L 287.83,356.44L 289.22,357.13L 290.61,359.88L 292.00,359.19L 293.39,358.50L 294.78,359.88L 296.17,357.82L 297.56,356.44L 298.95,353.00L 300.34,351.63L 301.73,355.07L 303.12,354.38L 304.52,350.94L 305.91,349.57L 307.30,347.50L 308.69,350.25L 310.08,346.13L 311.47,343.38L 312.86,338.57L 314.25,334.44L 315.64,335.13L 317.03,331.01L 318.42,328.26L 319.81,331.01L 321.20,325.51L 322.59,324.13L 323.98,322.76L 325.38,316.57L 326.77,315.89L 328.16,309.01L 329.55,298.01L 330.94,293.89L 332.33,286.33L 333.72,278.77L 335.11,270.52L 336.50,265.02L 337.89,256.77L 339.28,232.71L 340.67,205.90L 342.06,196.28L 343.45,173.60L 344.84,163.29L 346.23,147.48L 347.62,139.92L 349.02,134.42L 350.41,126.85L 351.80,97.30L 353.19,87.67L 354.58,75.99L 355.97,67.74L 357.36,70.49L 358.75,51.93L 360.14,49.18L 361.53,58.80L 362.92,61.55L 364.31,52.62L 365.70,58.12L 367.09,51.24L 368.48,67.05L 369.88,76.68L 371.27,68.43L 372.66,86.30L 374.05,88.36L 375.44,81.49L 376.83,90.42L 378.22,82.18L 379.61,90.42L 381.00,111.05L 382.39,117.92L 383.78,144.04L 385.17,165.35L 386.56,166.72L 387.95,197.66L 389.34,210.03L 390.73,231.34L 392.12,237.52L 393.52,251.96L 394.91,259.52L 396.30,271.21L 397.69,280.83L 399.08,284.95L 400.47,278.08L 401.86,280.14L 403.25,267.08L 404.64,262.96L 406.03,256.08L 407.42,243.02L 408.81,227.21L 410.20,212.09L 411.59,191.47L 412.98,188.72L 414.38,185.97L 415.77,181.16L 417.16,177.03L 418.55,190.78L 419.94,202.47L 421.33,207.28L 422.72,204.53L 424.11,198.34L 425.50,190.09L 426.89,185.28L 428.28,168.79L 429.67,157.79L 431.06,170.16L 432.45,190.78L 433.84,184.60L 435.23,183.91L 436.62,177.72L 438.02,152.29L 439.41,139.23L 440.80,106.92L 442.19,89.05L 443.58,66.37L 444.97,50.56L 446.36,23.06L 447.75,32.68L 449.14,23.75L 450.53,27.18L 451.92,10.00L 453.31,38.87L 454.70,52.62L 456.09,76.68L 457.48,82.18L 458.88,95.92L 460.27,104.17L 461.66,109.67L 463.05,113.79" id="New cases" class="line" stroke-width="1" stroke-linecap="round"><title>New cases</title></path>
	<circle cx="25.00" cy="373.80" data-y="0.23" data-x="1583280000" r="1" fill="white"><title>2020-03-04: 0</title></circle>
	<circle cx="26.39" cy="374.04" data-y="0.18" data-x="1583366400" r="1" fill="white"><title>2020-03-05: 0</title></circle>
	<circle cx="27.78" cy="373.40" data-y="0.31" data-x="1583452800" r="1" fill="white"><title>2020-03-06: 0</title></circle>
	<circle cx="29.17" cy="373.63" data-y="0.26" data-x="1583539200" r="1" fill="white"><title>2020-03-07: 0</title></circle>
	<circle cx="30.56" cy="374.31" data-y="0.13" data-x="1583625600" r="1" fill="white"><title>2020-03-08: 0</title></circle>
	<circle cx="31.95" cy="373.63" data-y="0.26" data-x="1583712000" r="1" fill="white"><title>2020-03-09: 0</title></circle>
	<circle cx="33.34" cy="372.94" data-y="0.40" data-x="1583798400" r="1" fill="white"><title>2020-03-10: 0</title></circle>
	<circle cx="34.73" cy="372.94" data-y="0.40" data-x="1583884800" r="1" fill="white"><title>2020-03-11: 0</title></circle>
	<circle cx="36.12" cy="372.25" data-y="0.53" data-x="1583971200" r="1" fill="white"><title>2020-03-12: 1</title></circle>
	<circle cx="37.52" cy="371.56" data-y="0.66" data-x="1584057600" r="1" fill="white"><title>2020-03-13: 1</title></circle>
	<circle cx="38.91" cy="370.19" data-y="0.92" data-x="1584144000" r="1" fill="white"><title>2020-03-14: 1</title></circle>
	<circle cx="40.30" cy="369.50" data-y="1.06" data-x="1584230400" r="1" fill="white"><title>2020-03-15: 1</title></circle>
	<circle cx="41.69" cy="367.44" data-y="1.45" data-x="1584316800" r="1" fill="white"><title>2020-03-16: 1</title></circle>
	<circle cx="43.08" cy="367.44" data-y="1.45" data-x="1584403200" r="1" fill="white"><title>2020-03-17: 1</title></circle>
	<circle cx="44.47" cy="366.75" data-y="1.58" data-x="1584489600" r="1" fill="white"><title>2020-03-18: 2</title></circle>
	<circle cx="45.86" cy="365.38" data-y="1.85" data-x="1584576000" r="1" fill="white"><title>2020-03-19: 2</title></circle>
	<circle cx="47.25" cy="361.94" data-y="2.51" data-x="1584662400" r="1" fill="white"><title>2020-03-20: 3</title></circle>
	<circle cx="48.64" cy="361.94" data-y="2.51" data-x="1584748800" r="1" fill="white"><title>2020-03-21: 3</title></circle>
	<circle cx="50.03" cy="361.94" data-y="2.51" data-x="1584835200" r="1" fill="white"><title>2020-03-22: 3</title></circle>
	<circle cx="51.42" cy="361.94" data-y="2.51" data-x="1584921600" r="1" fill="white"><title>2020-03-23: 3</title></circle>
	<circle cx="52.81" cy="358.50" data-y="3.17" data-x="1585008000" r="1" fill="white"><title>2020-03-24: 3</title></circle>
	<circle cx="54.20" cy="358.50" data-y="3.17" data-x="1585094400" r="1" fill="white"><title>2020-03-25: 3</title></circle>
	<circle cx="55.59" cy="358.50" data-y="3.17" data-x="1585180800" r="1" fill="white"><title>2020-03-26: 3</title></circle>
	<circle cx="56.98" cy="361.25" data-y="2.64" data-x="1585267200" r="1" fill="white"><title>2020-03-27: 3</title></circle>
	<circle cx="58.38" cy="357.13" data-y="3.43" data-x="1585353600" r="1" fill="white"><title>2020-03-28: 3</title></circle>
	<circle cx="59.77" cy="349.57" data-y="4.89" data-x="1585440000" r="1" fill="white"><title>2020-03-29: 5</title></circle>
	<circle cx="61.16" cy="350.25" data-y="4.75" data-x="1585526400" r="1" fill="white"><title>2020-03-30: 5</title></circle>
	<circle cx="62.55" cy="348.19" data-y="5.15" data-x="1585612800" r="1" fill="white"><title>2020-03-31: 5</title></circle>
	<circle cx="63.94" cy="344.07" data-y="5.94" data-x="1585699200" r="1" fill="white"><title>2020-04-01: 6</title></circle>
	<circle cx="65.33" cy="345.44" data-y="5.68" data-x="1585785600" r="1" fill="white"><title>2020-04-02: 6</title></circle>
	<circle cx="66.72" cy="346.82" data-y="5.42" data-x="1585872000" r="1" fill="white"><title>2020-04-03: 5</title></circle>
	<circle cx="68.11" cy="346.13" data-y="5.55" data-x="1585958400" r="1" fill="white"><title>2020-04-04: 6</title></circle>
	<circle cx="69.50" cy="349.57" data-y="4.89" data-x="1586044800" r="1" fill="white"><title>2020-04-05: 5</title></circle>
	<circle cx="70.89" cy="344.76" data-y="5.81" data-x="1586131200" r="1" fill="white"><title>2020-04-06: 6</title></circle>
	<circle cx="72.28" cy="345.44" data-y="5.68" data-x="1586217600" r="1" fill="white"><title>2020-04-07: 6</title></circle>
	<circle cx="73.67" cy="346.82" data-y="5.42" data-x="1586304000" r="1" fill="white"><title>2020-04-08: 5</title></circle>
	<circle cx="75.06" cy="342.01" data-y="6.34" data-x="1586390400" r="1" fill="white"><title>2020-04-09: 6</title></circle>
	<circle cx="76.45" cy="339.94" data-y="6.74" data-x="1586476800" r="1" fill="white"><title>2020-04-10: 7</title></circle>
	<circle cx="77.84" cy="342.69" data-y="6.21" data-x="1586563200" r="1" fill="white"><title>2020-04-11: 6</title></circle>
	<circle cx="79.23" cy="346.13" data-y="5.55" data-x="1586649600" r="1" fill="white"><title>2020-04-12: 6</title></circle>
	<circle cx="80.62" cy="348.19" data-y="5.15" data-x="1586736000" r="1" fill="white"><title>2020-04-13: 5</title></circle>
	<circle cx="82.02" cy="347.50" data-y="5.28" data-x="1586822400" r="1" fill="white"><title>2020-04-14: 5</title></circle>
	<circle cx="83.41" cy="348.19" data-y="5.15" data-x="1586908800" r="1" fill="white"><title>2020-04-15: 5</title></circle>
	<circle cx="84.80" cy="351.63" data-y="4.49" data-x="1586995200" r="1" fill="white"><title>2020-04-16: 4</title></circle>
	<circle cx="86.19" cy="352.32" data-y="4.36" data-x="1587081600" r="1" fill="white"><title>2020-04-17: 4</title></circle>
	<circle cx="87.58" cy="352.32" data-y="4.36" data-x="1587168000" r="1" fill="white"><title>2020-04-18: 4</title></circle>
	<circle cx="88.97" cy="349.57" data-y="4.89" data-x="1587254400" r="1" fill="white"><title>2020-04-19: 5</title></circle>
	<circle cx="90.36" cy="350.25" data-y="4.75" data-x="1587340800" r="1" fill="white"><title>2020-04-20: 5</title></circle>
	<circle cx="91.75" cy="350.25" data-y="4.75" data-x="1587427200" r="1" fill="white"><title>2020-04-21: 5</title></circle>
	<circle cx="93.14" cy="344.07" data-y="5.94" data-x="1587513600" r="1" fill="white"><title>2020-04-22: 6</title></circle>
	<circle cx="94.53" cy="339.94" data-y="6.74" data-x="1587600000" r="1" fill="white"><title>2020-04-23: 7</title></circle>
	<circle cx="95.92" cy="339.26" data-y="6.87" data-x="1587686400" r="1" fill="white"><title>2020-04-24: 7</title></circle>
	<circle cx="97.31" cy="341.32" data-y="6.47" data-x="1587772800" r="1" fill="white"><title>2020-04-25: 6</title></circle>
	<circle cx="98.70" cy="340.63" data-y="6.60" data-x="1587859200" r="1" fill="white"><title>2020-04-26: 7</title></circle>
	<circle cx="100.09" cy="343.38" data-y="6.08" data-x="1587945600" r="1" fill="white"><title>2020-04-27: 6</title></circle>
	<circle cx="101.48" cy="345.44" data-y="5.68" data-x="1588032000" r="1" fill="white"><title>2020-04-28: 6</title></circle>
	<circle cx="102.88" cy="352.32" data-y="4.36" data-x="1588118400" r="1" fill="white"><title>2020-04-29: 4</title></circle>
	<circle cx="104.27" cy="355.75" data-y="3.70" data-x="1588204800" r="1" fill="white"><title>2020-04-30: 4</title></circle>
	<circle cx="105.66" cy="356.44" data-y="3.57" data-x="1588291200" r="1" fill="white"><title>2020-05-01: 4</title></circle>
	<circle cx="107.05" cy="351.63" data-y="4.49" data-x="1588377600" r="1" fill="white"><title>2020-05-02: 4</title></circle>
	<circle cx="108.44" cy="348.88" data-y="5.02" data-x="1588464000" r="1" fill="white"><title>2020-05-03: 5</title></circle>
	<circle cx="109.83" cy="346.82" data-y="5.42" data-x="1588550400" r="1" fill="white"><title>2020-05-04: 5</title></circle>
	<circle cx="111.22" cy="347.50" data-y="5.28" data-x="1588636800" r="1" fill="white"><title>2020-05-05: 5</title></circle>
	<circle cx="112.61" cy="345.44" data-y="5.68" data-x="1588723200" r="1" fill="white"><title>2020-05-06: 6</title></circle>
	<circle cx="114.00" cy="347.50" data-y="5.28" data-x="1588809600" r="1" fill="white"><title>2020-05-07: 5</title></circle>
	<circle cx="115.39" cy="344.76" data-y="5.81" data-x="1588896000" r="1" fill="white"><title>2020-05-08: 6</title></circle>
	<circle cx="116.78" cy="347.50" data-y="5.28" data-x="1588982400" r="1" fill="white"><title>2020-05-09: 5</title></circle>
	<circle cx="118.17" cy="353.00" data-y="4.23" data-x="1589068800" r="1" fill="white"><title>2020-05-10: 4</title></circle>
	<circle cx="119.56" cy="351.63" data-y="4.49" data-x="1589155200" r="1" fill="white"><title>2020-05-11: 4</title></circle>
	<circle cx="120.95" cy="351.63" data-y="4.49" data-x="1589241600" r="1" fill="white"><title>2020-05-12: 4</title></circle>
	<circle cx="122.34" cy="353.00" data-y="4.23" data-x="1589328000" r="1" fill="white"><title>2020-05-13: 4</title></circle>
	<circle cx="123.73" cy="352.32" data-y="4.36" data-x="1589414400" r="1" fill="white"><title>2020-05-14: 4</title></circle>
	<circle cx="125.12" cy="355.75" data-y="3.70" data-x="1589500800" r="1" fill="white"><title>2020-05-15: 4</title></circle>
	<circle cx="126.52" cy="356.44" data-y="3.57" data-x="1589587200" r="1" fill="white"><title>2020-05-16: 4</title></circle>
	<circle cx="127.91" cy="355.75" data-y="3.70" data-x="1589673600" r="1" fill="white"><title>2020-05-17: 4</title></circle>
	<circle cx="129.30" cy="355.75" data-y="3.70" data-x="1589760000" r="1" fill="white"><title>2020-05-18: 4</title></circle>
	<circle cx="130.69" cy="354.38" data-y="3.96" data-x="1589846400" r="1" fill="white"><title>2020-05-19: 4</title></circle>
	<circle cx="132.08" cy="355.75" data-y="3.70" data-x="1589932800" r="1" fill="white"><title>2020-05-20: 4</title></circle>
	<circle cx="133.47" cy="353.00" data-y="4.23" data-x="1590019200" r="1" fill="white"><title>2020-05-21: 4</title></circle>
	<circle cx="134.86" cy="347.50" data-y="5.28" data-x="1590105600" r="1" fill="white"><title>2020-05-22: 5</title></circle>
	<circle cx="136.25" cy="350.25" data-y="4.75" data-x="1590192000" r="1" fill="white"><title>2020-05-23: 5</title></circle>
	<circle cx="137.64" cy="350.25" data-y="4.75" data-x="1590278400" r="1" fill="white"><title>2020-05-24: 5</title></circle>
	<circle cx="139.03" cy="353.69" data-y="4.09" data-x="1590364800" r="1" fill="white"><title>2020-05-25: 4</title></circle>
	<circle cx="140.42" cy="357.13" data-y="3.43" data-x="1590451200" r="1" fill="white"><title>2020-05-26: 3</title></circle>
	<circle cx="141.81" cy="357.82" data-y="3.30" data-x="1590537600" r="1" fill="white"><title>2020-05-27: 3</title></circle>
	<circle cx="143.20" cy="360.56" data-y="2.77" data-x="1590624000" r="1" fill="white"><title>2020-05-28: 3</title></circle>
	<circle cx="144.59" cy="366.06" data-y="1.72" data-x="1590710400" r="1" fill="white"><title>2020-05-29: 2</title></circle>
	<circle cx="145.98" cy="364.00" data-y="2.11" data-x="1590796800" r="1" fill="white"><title>2020-05-30: 2</title></circle>
	<circle cx="147.38" cy="365.38" data-y="1.85" data-x="1590883200" r="1" fill="white"><title>2020-05-31: 2</title></circle>
	<circle cx="148.77" cy="363.31" data-y="2.25" data-x="1590969600" r="1" fill="white"><title>2020-06-01: 2</title></circle>
	<circle cx="150.16" cy="364.00" data-y="2.11" data-x="1591056000" r="1" fill="white"><title>2020-06-02: 2</title></circle>
	<circle cx="151.55" cy="364.69" data-y="1.98" data-x="1591142400" r="1" fill="white"><title>2020-06-03: 2</title></circle>
	<circle cx="152.94" cy="366.06" data-y="1.72" data-x="1591228800" r="1" fill="white"><title>2020-06-04: 2</title></circle>
	<circle cx="154.33" cy="366.06" data-y="1.72" data-x="1591315200" r="1" fill="white"><title>2020-06-05: 2</title></circle>
	<circle cx="155.72" cy="368.13" data-y="1.32" data-x="1591401600" r="1" fill="white"><title>2020-06-06: 1</title></circle>
	<circle cx="157.11" cy="368.13" data-y="1.32" data-x="1591488000" r="1" fill="white"><title>2020-06-07: 1</title></circle>
	<circle cx="158.50" cy="370.88" data-y="0.79" data-x="1591574400" r="1" fill="white"><title>2020-06-08: 1</title></circle>
	<circle cx="159.89" cy="370.88" data-y="0.79" data-x="1591660800" r="1" fill="white"><title>2020-06-09: 1</title></circle>
	<circle cx="161.28" cy="370.19" data-y="0.92" data-x="1591747200" r="1" fill="white"><title>2020-06-10: 1</title></circle>
	<circle cx="162.67" cy="369.50" data-y="1.06" data-x="1591833600" r="1" fill="white"><title>2020-06-11: 1</title></circle>
	<circle cx="164.06" cy="370.19" data-y="0.92" data-x="1591920000" r="1" fill="white"><title>2020-06-12: 1</title></circle>
	<circle cx="165.45" cy="370.19" data-y="0.92" data-x="1592006400" r="1" fill="white"><title>2020-06-13: 1</title></circle>
	<circle cx="166.84" cy="370.88" data-y="0.79" data-x="1592092800" r="1" fill="white"><title>2020-06-14: 1</title></circle>
	<circle cx="168.23" cy="371.56" data-y="0.66" data-x="1592179200" r="1" fill="white"><title>2020-06-15: 1</title></circle>
	<circle cx="169.62" cy="372.25" data-y="0.53" data-x="1592265600" r="1" fill="white"><title>2020-06-16: 1</title></circle>
	<circle cx="171.02" cy="372.25" data-y="0.53" data-x="1592352000" r="1" fill="white"><title>2020-06-17: 1</title></circle>
	<circle cx="172.41" cy="372.25" data-y="0.53" data-x="1592438400" r="1" fill="white"><title>2020-06-18: 1</title></circle>
	<circle cx="173.80" cy="372.25" data-y="0.53" data-x="1592524800" r="1" fill="white"><title>2020-06-19: 1</title></circle>
	<circle cx="175.19" cy="372.25" data-y="0.53" data-x="1592611200" r="1" fill="white"><title>2020-06-20: 1</title></circle>
	<circle cx="176.58" cy="372.94" data-y="0.40" data-x="1592697600" r="1" fill="white"><title>2020-06-21: 0</title></circle>
	<circle cx="177.97" cy="372.25" data-y="0.53" data-x="1592784000" r="1" fill="white"><title>2020-06-22: 1</title></circle>
	<circle cx="179.36" cy="371.56" data-y="0.66" data-x="1592870400" r="1" fill="white"><title>2020-06-23: 1</title></circle>
	<circle cx="180.75" cy="372.25" data-y="0.53" data-x="1592956800" r="1" fill="white"><title>2020-06-24: 1</title></circle>
	<circle cx="182.14" cy="372.25" data-y="0.53" data-x="1593043200" r="1" fill="white"><title>2020-06-25: 1</title></circle>
	<circle cx="183.53" cy="372.94" data-y="0.40" data-x="1593129600" r="1" fill="white"><title>2020-06-26: 0</title></circle>
	<circle cx="184.92" cy="372.25" data-y="0.53" data-x="1593216000" r="1" fill="white"><title>2020-06-27: 1</title></circle>
	<circle cx="186.31" cy="372.25" data-y="0.53" data-x="1593302400" r="1" fill="white"><title>2020-06-28: 1</title></circle>
	<circle cx="187.70" cy="372.94" data-y="0.40" data-x="1593388800" r="1" fill="white"><title>2020-06-29: 0</title></circle>
	<circle cx="189.09" cy="373.63" data-y="0.26" data-x="1593475200" r="1" fill="white"><title>2020-06-30: 0</title></circle>
	<circle cx="190.48" cy="373.63" data-y="0.26" data-x="1593561600" r="1" fill="white"><title>2020-07-01: 0</title></circle>
	<circle cx="191.88" cy="373.63" data-y="0.26" data-x="1593648000" r="1" fill="white"><title>2020-07-02: 0</title></circle>
	<circle cx="193.27" cy="372.94" data-y="0.40" data-x="1593734400" r="1" fill="white"><title>2020-07-03: 0</title></circle>
	<circle cx="194.66" cy="373.63" data-y="0.26" data-x="1593820800" r="1" fill="white"><title>2020-07-04: 0</title></circle>
	<circle cx="196.05" cy="373.63" data-y="0.26" data-x="1593907200" r="1" fill="white"><title>2020-07-05: 0</title></circle>
	<circle cx="197.44" cy="373.63" data-y="0.26" data-x="1593993600" r="1" fill="white"><title>2020-07-06: 0</title></circle>
	<circle cx="198.83" cy="373.63" data-y="0.26" data-x="1594080000" r="1" fill="white"><title>2020-07-07: 0</title></circle>
	<circle cx="200.22" cy="373.63" data-y="0.26" data-x="1594166400" r="1" fill="white"><title>2020-07-08: 0</title></circle>
	<circle cx="201.61" cy="372.94" data-y="0.40" data-x="1594252800" r="1" fill="white"><title>2020-07-09: 0</title></circle>
	<circle cx="203.00" cy="372.94" data-y="0.40" data-x="1594339200" r="1" fill="white"><title>2020-07-10: 0</title></circle>
	<circle cx="204.39" cy="372.94" data-y="0.40" data-x="1594425600" r="1" fill="white"><title>2020-07-11: 0</title></circle>
	<circle cx="205.78" cy="372.25" data-y="0.53" data-x="1594512000" r="1" fill="white"><title>2020-07-12: 1</title></circle>
	<circle cx="207.17" cy="372.25" data-y="0.53" data-x="1594598400" r="1" fill="white"><title>2020-07-13: 1</title></circle>
	<circle cx="208.56" cy="371.56" data-y="0.66" data-x="1594684800" r="1" fill="white"><title>2020-07-14: 1</title></circle>
	<circle cx="209.95" cy="371.56" data-y="0.66" data-x="1594771200" r="1" fill="white"><title>2020-07-15: 1</title></circle>
	<circle cx="211.34" cy="372.94" data-y="0.40" data-x="1594857600" r="1" fill="white"><title>2020-07-16: 0</title></circle>
	<circle cx="212.73" cy="373.63" data-y="0.26" data-x="1594944000" r="1" fill="white"><title>2020-07-17: 0</title></circle>
	<circle cx="214.12" cy="372.94" data-y="0.40" data-x="1595030400" r="1" fill="white"><title>2020-07-18: 0</title></circle>
	<circle cx="215.52" cy="373.63" data-y="0.26" data-x="1595116800" r="1" fill="white"><title>2020-07-19: 0</title></circle>
	<circle cx="216.91" cy="372.94" data-y="0.40" data-x="1595203200" r="1" fill="white"><title>2020-07-20: 0</title></circle>
	<circle cx="218.30" cy="372.94" data-y="0.40" data-x="1595289600" r="1" fill="white"><title>2020-07-21: 0</title></circle>
	<circle cx="219.69" cy="372.94" data-y="0.40" data-x="1595376000" r="1" fill="white"><title>2020-07-22: 0</title></circle>
	<circle cx="221.08" cy="372.94" data-y="0.40" data-x="1595462400" r="1" fill="white"><title>2020-07-23: 0</title></circle>
	<circle cx="222.47" cy="372.25" data-y="0.53" data-x="1595548800" r="1" fill="white"><title>2020-07-24: 1</title></circle>
	<circle cx="223.86" cy="372.94" data-y="0.40" data-x="1595635200" r="1" fill="white"><title>2020-07-25: 0</title></circle>
	<circle cx="225.25" cy="372.25" data-y="0.53" data-x="1595721600" r="1" fill="white"><title>2020-07-26: 1</title></circle>
	<circle cx="226.64" cy="371.56" data-y="0.66" data-x="1595808000" r="1" fill="white"><title>2020-07-27: 1</title></circle>
	<circle cx="228.03" cy="371.56" data-y="0.66" data-x="1595894400" r="1" fill="white"><title>2020-07-28: 1</title></circle>
	<circle cx="229.42" cy="370.88" data-y="0.79" data-x="1595980800" r="1" fill="white"><title>2020-07-29: 1</title></circle>
	<circle cx="230.81" cy="369.50" data-y="1.06" data-x="1596067200" r="1" fill="white"><title>2020-07-30: 1</title></circle>
	<circle cx="232.20" cy="368.81" data-y="1.19" data-x="1596153600" r="1" fill="white"><title>2020-07-31: 1</title></circle>
	<circle cx="233.59" cy="368.81" data-y="1.19" data-x="1596240000" r="1" fill="white"><title>2020-08-01: 1</title></circle>
	<circle cx="234.98" cy="368.13" data-y="1.32" data-x="1596326400" r="1" fill="white"><title>2020-08-02: 1</title></circle>
	<circle cx="236.38" cy="369.50" data-y="1.06" data-x="1596412800" r="1" fill="white"><title>2020-08-03: 1</title></circle>
	<circle cx="237.77" cy="368.13" data-y="1.32" data-x="1596499200" r="1" fill="white"><title>2020-08-04: 1</title></circle>
	<circle cx="239.16" cy="368.81" data-y="1.19" data-x="1596585600" r="1" fill="white"><title>2020-08-05: 1</title></circle>
	<circle cx="240.55" cy="368.13" data-y="1.32" data-x="1596672000" r="1" fill="white"><title>2020-08-06: 1</title></circle>
	<circle cx="241.94" cy="368.81" data-y="1.19" data-x="1596758400" r="1" fill="white"><title>2020-08-07: 1</title></circle>
	<circle cx="243.33" cy="368.13" data-y="1.32" data-x="1596844800" r="1" fill="white"><title>2020-08-08: 1</title></circle>
	<circle cx="244.72" cy="368.81" data-y="1.19" data-x="1596931200" r="1" fill="white"><title>2020-08-09: 1</title></circle>
	<circle cx="246.11" cy="368.81" data-y="1.19" data-x="1597017600" r="1" fill="white"><title>2020-08-10: 1</title></circle>
	<circle cx="247.50" cy="370.88" data-y="0.79" data-x="1597104000" r="1" fill="white"><title>2020-08-11: 1</title></circle>
	<circle cx="248.89" cy="370.88" data-y="0.79" data-x="1597190400" r="1" fill="white"><title>2020-08-12: 1</title></circle>
	<circle cx="250.28" cy="372.25" data-y="0.53" data-x="1597276800" r="1" fill="white"><title>2020-08-13: 1</title></circle>
	<circle cx="251.67" cy="372.94" data-y="0.40" data-x="1597363200" r="1" fill="white"><title>2020-08-14: 0</title></circle>
	<circle cx="253.06" cy="373.63" data-y="0.26" data-x="1597449600" r="1" fill="white"><title>2020-08-15: 0</title></circle>
	<circle cx="254.45" cy="373.63" data-y="0.26" data-x="1597536000" r="1" fill="white"><title>2020-08-16: 0</title></circle>
	<circle cx="255.84" cy="373.63" data-y="0.26" data-x="1597622400" r="1" fill="white"><title>2020-08-17: 0</title></circle>
	<circle cx="257.23" cy="373.63" data-y="0.26" data-x="1597708800" r="1" fill="white"><title>2020-08-18: 0</title></circle>
	<circle cx="258.62" cy="373.63" data-y="0.26" data-x="1597795200" r="1" fill="white"><title>2020-08-19: 0</title></circle>
	<circle cx="260.02" cy="374.31" data-y="0.13" data-x="1597881600" r="1" fill="white"><title>2020-08-20: 0</title></circle>
	<circle cx="261.41" cy="374.31" data-y="0.13" data-x="1597968000" r="1" fill="white"><title>2020-08-21: 0</title></circle>
	<circle cx="262.80" cy="372.94" data-y="0.40" data-x="1598054400" r="1" fill="white"><title>2020-08-22: 0</title></circle>
	<circle cx="264.19" cy="372.94" data-y="0.40" data-x="1598140800" r="1" fill="white"><title>2020-08-23: 0</title></circle>
	<circle cx="265.58" cy="372.25" data-y="0.53" data-x="1598227200" r="1" fill="white"><title>2020-08-24: 1</title></circle>
	<circle cx="266.97" cy="370.88" data-y="0.79" data-x="1598313600" r="1" fill="white"><title>2020-08-25: 1</title></circle>
	<circle cx="268.36" cy="370.88" data-y="0.79" data-x="1598400000" r="1" fill="white"><title>2020-08-26: 1</title></circle>
	<circle cx="269.75" cy="369.50" data-y="1.06" data-x="1598486400" r="1" fill="white"><title>2020-08-27: 1</title></circle>
	<circle cx="271.14" cy="367.44" data-y="1.45" data-x="1598572800" r="1" fill="white"><title>2020-08-28: 1</title></circle>
	<circle cx="272.53" cy="367.44" data-y="1.45" data-x="1598659200" r="1" fill="white"><title>2020-08-29: 1</title></circle>
	<circle cx="273.92" cy="364.69" data-y="1.98" data-x="1598745600" r="1" fill="white"><title>2020-08-30: 2</title></circle>
	<circle cx="275.31" cy="360.56" data-y="2.77" data-x="1598832000" r="1" fill="white"><title>2020-08-31: 3</title></circle>
	<circle cx="276.70" cy="359.88" data-y="2.91" data-x="1598918400" r="1" fill="white"><title>2020-09-01: 3</title></circle>
	<circle cx="278.09" cy="357.82" data-y="3.30" data-x="1599004800" r="1" fill="white"><title>2020-09-02: 3</title></circle>
	<circle cx="279.48" cy="357.82" data-y="3.30" data-x="1599091200" r="1" fill="white"><title>2020-09-03: 3</title></circle>
	<circle cx="280.88" cy="354.38" data-y="3.96" data-x="1599177600" r="1" fill="white"><title>2020-09-04: 4</title></circle>
	<circle cx="282.27" cy="352.32" data-y="4.36" data-x="1599264000" r="1" fill="white"><title>2020-09-05: 4</title></circle>
	<circle cx="283.66" cy="353.00" data-y="4.23" data-x="1599350400" r="1" fill="white"><title>2020-09-06: 4</title></circle>
	<circle cx="285.05" cy="354.38" data-y="3.96" data-x="1599436800" r="1" fill="white"><title>2020-09-07: 4</title></circle>
	<circle cx="286.44" cy="355.07" data-y="3.83" data-x="1599523200" r="1" fill="white"><title>2020-09-08: 4</title></circle>
	<circle cx="287.83" cy="356.44" data-y="3.57" data-x="1599609600" r="1" fill="white"><title>2020-09-09: 4</title></circle>
	<circle cx="289.22" cy="357.13" data-y="3.43" data-x="1599696000" r="1" fill="white"><title>2020-09-10: 3</title></circle>
	<circle cx="290.61" cy="359.88" data-y="2.91" data-x="1599782400" r="1" fill="white"><title>2020-09-11: 3</title></circle>
	<circle cx="292.00" cy="359.19" data-y="3.04" data-x="1599868800" r="1" fill="white"><title>2020-09-12: 3</title></circle>
	<circle cx="293.39" cy="358.50" data-y="3.17" data-x="1599955200" r="1" fill="white"><title>2020-09-13: 3</title></circle>
	<circle cx="294.78" cy="359.88" data-y="2.91" data-x="1600041600" r="1" fill="white"><title>2020-09-14: 3</title></circle>
	<circle cx="296.17" cy="357.82" data-y="3.30" data-x="1600128000" r="1" fill="white"><title>2020-09-15: 3</title></circle>
	<circle cx="297.56" cy="356.44" data-y="3.57" data-x="1600214400" r="1" fill="white"><title>2020-09-16: 4</title></circle>
	<circle cx="298.95" cy="353.00" data-y="4.23" data-x="1600300800" r="1" fill="white"><title>2020-09-17: 4</title></circle>
	<circle cx="300.34" cy="351.63" data-y="4.49" data-x="1600387200" r="1" fill="white"><title>2020-09-18: 4</title></circle>
	<circle cx="301.73" cy="355.07" data-y="3.83" data-x="1600473600" r="1" fill="white"><title>2020-09-19: 4</title></circle>
	<circle cx="303.12" cy="354.38" data-y="3.96" data-x="1600560000" r="1" fill="white"><title>2020-09-20: 4</title></circle>
	<circle cx="304.52" cy="350.94" data-y="4.62" data-x="1600646400" r="1" fill="white"><title>2020-09-21: 5</title></circle>
	<circle cx="305.91" cy="349.57" data-y="4.89" data-x="1600732800" r="1" fill="white"><title>2020-09-22: 5</title></circle>
	<circle cx="307.30" cy="347.50" data-y="5.28" data-x="1600819200" r="1" fill="white"><title>2020-09-23: 5</title></circle>
	<circle cx="308.69" cy="350.25" data-y="4.75" data-x="1600905600" r="1" fill="white"><title>2020-09-24: 5</title></circle>
	<circle cx="310.08" cy="346.13" data-y="5.55" data-x="1600992000" r="1" fill="white"><title>2020-09-25: 6</title></circle>
	<circle cx="311.47" cy="343.38" data-y="6.08" data-x="1601078400" r="1" fill="white"><title>2020-09-26: 6</title></circle>
	<circle cx="312.86" cy="338.57" data-y="7.00" data-x="1601164800" r="1" fill="white"><title>2020-09-27: 7</title></circle>
	<circle cx="314.25" cy="334.44" data-y="7.79" data-x="1601251200" r="1" fill="white"><title>2020-09-28: 8</title></circle>
	<circle cx="315.64" cy="335.13" data-y="7.66" data-x="1601337600" r="1" fill="white"><title>2020-09-29: 8</title></circle>
	<circle cx="317.03" cy="331.01" data-y="8.45" data-x="1601424000" r="1" fill="white"><title>2020-09-30: 8</title></circle>
	<circle cx="318.42" cy="328.26" data-y="8.98" data-x="1601510400" r="1" fill="white"><title>2020-10-01: 9</title></circle>
	<circle cx="319.81" cy="331.01" data-y="8.45" data-x="1601596800" r="1" fill="white"><title>2020-10-02: 8</title></circle>
	<circle cx="321.20" cy="325.51" data-y="9.51" data-x="1601683200" r="1" fill="white"><title>2020-10-03: 10</title></circle>
	<circle cx="322.59" cy="324.13" data-y="9.77" data-x="1601769600" r="1" fill="white"><title>2020-10-04: 10</title></circle>
	<circle cx="323.98" cy="322.76" data-y="10.04" data-x="1601856000" r="1" fill="white"><title>2020-10-05: 10</title></circle>
	<circle cx="325.38" cy="316.57" data-y="11.23" data-x="1601942400" r="1" fill="white"><title>2020-10-06: 11</title></circle>
	<circle cx="326.77" cy="315.89" data-y="11.36" data-x="1602028800" r="1" fill="white"><title>2020-10-07: 11</title></circle>
	<circle cx="328.16" cy="309.01" data-y="12.68" data-x="1602115200" r="1" fill="white"><title>2020-10-08: 13</title></circle>
	<circle cx="329.55" cy="298.01" data-y="14.79" data-x="1602201600" r="1" fill="white"><title>2020-10-09: 15</title></circle>
	<circle cx="330.94" cy="293.89" data-y="15.58" data-x="1602288000" r="1" fill="white"><title>2020-10-10: 16</title></circle>
	<circle cx="332.33" cy="286.33" data-y="17.04" data-x="1602374400" r="1" fill="white"><title>2020-10-11: 17</title></circle>
	<circle cx="333.72" cy="278.77" data-y="18.49" data-x="1602460800" r="1" fill="white"><title>2020-10-12: 18</title></circle>
	<circle cx="335.11" cy="270.52" data-y="20.08" data-x="1602547200" r="1" fill="white"><title>2020-10-13: 20</title></circle>
	<circle cx="336.50" cy="265.02" data-y="21.13" data-x="1602633600" r="1" fill="white"><title>2020-10-14: 21</title></circle>
	<circle cx="337.89" cy="256.77" data-y="22.72" data-x="1602720000" r="1" fill="white"><title>2020-10-15: 23</title></circle>
	<circle cx="339.28" cy="232.71" data-y="27.34" data-x="1602806400" r="1" fill="white"><title>2020-10-16: 27</title></circle>
	<circle cx="340.67" cy="205.90" data-y="32.49" data-x="1602892800" r="1" fill="white"><title>2020-10-17: 32</title></circle>
	<circle cx="342.06" cy="196.28" data-y="34.34" data-x="1602979200" r="1" fill="white"><title>2020-10-18: 34</title></circle>
	<circle cx="343.45" cy="173.60" data-y="38.70" data-x="1603065600" r="1" fill="white"><title>2020-10-19: 39</title></circle>
	<circle cx="344.84" cy="163.29" data-y="40.68" data-x="1603152000" r="1" fill="white"><title>2020-10-20: 41</title></circle>
	<circle cx="346.23" cy="147.48" data-y="43.72" data-x="1603238400" r="1" fill="white"><title>2020-10-21: 44</title></circle>
	<circle cx="347.62" cy="139.92" data-y="45.17" data-x="1603324800" r="1" fill="white"><title>2020-10-22: 45</title></circle>
	<circle cx="349.02" cy="134.42" data-y="46.23" data-x="1603411200" r="1" fill="white"><title>2020-10-23: 46</title></circle>
	<circle cx="350.41" cy="126.85" data-y="47.68" data-x="1603497600" r="1" fill="white"><title>2020-10-24: 48</title></circle>
	<circle cx="351.80" cy="97.30" data-y="53.36" data-x="1603584000" r="1" fill="white"><title>2020-10-25: 53</title></circle>
	<circle cx="353.19" cy="87.67" data-y="55.21" data-x="1603670400" r="1" fill="white"><title>2020-10-26: 55</title></circle>
	<circle cx="354.58" cy="75.99" data-y="57.45" data-x="1603756800" r="1" fill="white"><title>2020-10-27: 57</title></circle>
	<circle cx="355.97" cy="67.74" data-y="59.04" data-x="1603843200" r="1" fill="white"><title>2020-10-28: 59</title></circle>
	<circle cx="357.36" cy="70.49" data-y="58.51" data-x="1603929600" r="1" fill="white"><title>2020-10-29: 59</title></circle>
	<circle cx="358.75" cy="51.93" data-y="62.08" data-x="1604016000" r="1" fill="white"><title>2020-10-30: 62</title></circle>
	<circle cx="360.14" cy="49.18" data-y="62.60" data-x="1604102400" r="1" fill="white"><title>2020-10-31: 63</title></circle>
	<circle cx="361.53" cy="58.80" data-y="60.75" data-x="1604188800" r="1" fill="white"><title>2020-11-01: 61</title></circle>
	<circle cx="362.92" cy="61.55" data-y="60.23" data-x="1604275200" r="1" fill="white"><title>2020-11-02: 60</title></circle>
	<circle cx="364.31" cy="52.62" data-y="61.94" data-x="1604361600" r="1" fill="white"><title>2020-11-03: 62</title></circle>
	<circle cx="365.70" cy="58.12" data-y="60.89" data-x="1604448000" r="1" fill="white"><title>2020-11-04: 61</title></circle>
	<circle cx="367.09" cy="51.24" data-y="62.21" data-x="1604534400" r="1" fill="white"><title>2020-11-05: 62</title></circle>
	<circle cx="368.48" cy="67.05" data-y="59.17" data-x="1604620800" r="1" fill="white"><title>2020-11-06: 59</title></circle>
	<circle cx="369.88" cy="76.68" data-y="57.32" data-x="1604707200" r="1" fill="white"><title>2020-11-07: 57</title></circle>
	<circle cx="371.27" cy="68.43" data-y="58.91" data-x="1604793600" r="1" fill="white"><title>2020-11-08: 59</title></circle>
	<circle cx="372.66" cy="86.30" data-y="55.47" data-x="1604880000" r="1" fill="white"><title>2020-11-09: 55</title></circle>
	<circle cx="374.05" cy="88.36" data-y="55.08" data-x="1604966400" r="1" fill="white"><title>2020-11-10: 55</title></circle>
	<circle cx="375.44" cy="81.49" data-y="56.40" data-x="1605052800" r="1" fill="white"><title>2020-11-11: 56</title></circle>
	<circle cx="376.83" cy="90.42" data-y="54.68" data-x="1605139200" r="1" fill="white"><title>2020-11-12: 55</title></circle>
	<circle cx="378.22" cy="82.18" data-y="56.26" data-x="1605225600" r="1" fill="white"><title>2020-11-13: 56</title></circle>
	<circle cx="379.61" cy="90.42" data-y="54.68" data-x="1605312000" r="1" fill="white"><title>2020-11-14: 55</title></circle>
	<circle cx="381.00" cy="111.05" data-y="50.72" data-x="1605398400" r="1" fill="white"><title>2020-11-15: 51</title></circle>
	<circle cx="382.39" cy="117.92" data-y="49.40" data-x="1605484800" r="1" fill="white"><title>2020-11-16: 49</title></circle>
	<circle cx="383.78" cy="144.04" data-y="44.38" data-x="1605571200" r="1" fill="white"><title>2020-11-17: 44</title></circle>
	<circle cx="385.17" cy="165.35" data-y="40.28" data-x="1605657600" r="1" fill="white"><title>2020-11-18: 40</title></circle>
	<circle cx="386.56" cy="166.72" data-y="40.02" data-x="1605744000" r="1" fill="white"><title>2020-11-19: 40</title></circle>
	<circle cx="387.95" cy="197.66" data-y="34.08" data-x="1605830400" r="1" fill="white"><title>2020-11-20: 34</title></circle>
	<circle cx="389.34" cy="210.03" data-y="31.70" data-x="1605916800" r="1" fill="white"><title>2020-11-21: 32</title></circle>
	<circle cx="390.73" cy="231.34" data-y="27.60" data-x="1606003200" r="1" fill="white"><title>2020-11-22: 28</title></circle>
	<circle cx="392.12" cy="237.52" data-y="26.41" data-x="1606089600" r="1" fill="white"><title>2020-11-23: 26</title></circle>
	<circle cx="393.52" cy="251.96" data-y="23.64" data-x="1606176000" r="1" fill="white"><title>2020-11-24: 24</title></circle>
	<circle cx="394.91" cy="259.52" data-y="22.19" data-x="1606262400" r="1" fill="white"><title>2020-11-25: 22</title></circle>
	<circle cx="396.30" cy="271.21" data-y="19.94" data-x="1606348800" r="1" fill="white"><title>2020-11-26: 20</title></circle>
	<circle cx="397.69" cy="280.83" data-y="18.09" data-x="1606435200" r="1" fill="white"><title>2020-11-27: 18</title></circle>
	<circle cx="399.08" cy="284.95" data-y="17.30" data-x="1606521600" r="1" fill="white"><title>2020-11-28: 17</title></circle>
	<circle cx="400.47" cy="278.08" data-y="18.62" data-x="1606608000" r="1" fill="white"><title>2020-11-29: 19</title></circle>
	<circle cx="401.86" cy="280.14" data-y="18.23" data-x="1606694400" r="1" fill="white"><title>2020-11-30: 18</title></circle>
	<circle cx="403.25" cy="267.08" data-y="20.74" data-x="1606780800" r="1" fill="white"><title>2020-12-01: 21</title></circle>
	<circle cx="404.64" cy="262.96" data-y="21.53" data-x="1606867200" r="1" fill="white"><title>2020-12-02: 22</title></circle>
	<circle cx="406.03" cy="256.08" data-y="22.85" data-x="1606953600" r="1" fill="white"><title>2020-12-03: 23</title></circle>
	<circle cx="407.42" cy="243.02" data-y="25.36" data-x="1607040000" r="1" fill="white"><title>2020-12-04: 25</title></circle>
	<circle cx="408.81" cy="227.21" data-y="28.40" data-x="1607126400" r="1" fill="white"><title>2020-12-05: 28</title></circle>
	<circle cx="410.20" cy="212.09" data-y="31.30" data-x="1607212800" r="1" fill="white"><title>2020-12-06: 31</title></circle>
	<circle cx="411.59" cy="191.47" data-y="35.26" data-x="1607299200" r="1" fill="white"><title>2020-12-07: 35</title></circle>
	<circle cx="412.98" cy="188.72" data-y="35.79" data-x="1607385600" r="1" fill="white"><title>2020-12-08: 36</title></circle>
	<circle cx="414.38" cy="185.97" data-y="36.32" data-x="1607472000" r="1" fill="white"><title>2020-12-09: 36</title></circle>
	<circle cx="415.77" cy="181.16" data-y="37.25" data-x="1607558400" r="1" fill="white"><title>2020-12-10: 37</title></circle>
	<circle cx="417.16" cy="177.03" data-y="38.04" data-x="1607644800" r="1" fill="white"><title>2020-12-11: 38</title></circle>
	<circle cx="418.55" cy="190.78" data-y="35.40" data-x="1607731200" r="1" fill="white"><title>2020-12-12: 35</title></circle>
	<circle cx="419.94" cy="202.47" data-y="33.15" data-x="1607817600" r="1" fill="white"><title>2020-12-13: 33</title></circle>
	<circle cx="421.33" cy="207.28" data-y="32.23" data-x="1607904000" r="1" fill="white"><title>2020-12-14: 32</title></circle>
	<circle cx="422.72" cy="204.53" data-y="32.75" data-x="1607990400" r="1" fill="white"><title>2020-12-15: 33</title></circle>
	<circle cx="424.11" cy="198.34" data-y="33.94" data-x="1608076800" r="1" fill="white"><title>2020-12-16: 34</title></circle>
	<circle cx="425.50" cy="190.09" data-y="35.53" data-x="1608163200" r="1" fill="white"><title>2020-12-17: 36</title></circle>
	<circle cx="426.89" cy="185.28" data-y="36.45" data-x="1608249600" r="1" fill="white"><title>2020-12-18: 36</title></circle>
	<circle cx="428.28" cy="168.79" data-y="39.62" data-x="1608336000" r="1" fill="white"><title>2020-12-19: 40</title></circle>
	<circle cx="429.67" cy="157.79" data-y="41.74" data-x="1608422400" r="1" fill="white"><title>2020-12-20: 42</title></circle>
	<circle cx="431.06" cy="170.16" data-y="39.36" data-x="1608508800" r="1" fill="white"><title>2020-12-21: 39</title></circle>
	<circle cx="432.45" cy="190.78" data-y="35.40" data-x="1608595200" r="1" fill="white"><title>2020-12-22: 35</title></circle>
	<circle cx="433.84" cy="184.60" data-y="36.58" data-x="1608681600" r="1" fill="white"><title>2020-12-23: 37</title></circle>
	<circle cx="435.23" cy="183.91" data-y="36.72" data-x="1608768000" r="1" fill="white"><title>2020-12-24: 37</title></circle>
	<circle cx="436.62" cy="177.72" data-y="37.91" data-x="1608854400" r="1" fill="white"><title>2020-12-25: 38</title></circle>
	<circle cx="438.02" cy="152.29" data-y="42.79" data-x="1608940800" r="1" fill="white"><title>2020-12-26: 43</title></circle>
	<circle cx="439.41" cy="139.23" data-y="45.30" data-x="1609027200" r="1" fill="white"><title>2020-12-27: 45</title></circle>
	<circle cx="440.80" cy="106.92" data-y="51.51" data-x="1609113600" r="1" fill="white"><title>2020-12-28: 52</title></circle>
	<circle cx="442.19" cy="89.05" data-y="54.94" data-x="1609200000" r="1" fill="white"><title>2020-12-29: 55</title></circle>
	<circle cx="443.58" cy="66.37" data-y="59.30" data-x="1609286400" r="1" fill="white"><title>2020-12-30: 59</title></circle>
	<circle cx="444.97" cy="50.56" data-y="62.34" data-x="1609372800" r="1" fill="white"><title>2020-12-31: 62</title></circle>
	<circle cx="446.36" cy="23.06" data-y="67.62" data-x="1609459200" r="1" fill="white"><title>2021-01-01: 68</title></circle>
	<circle cx="447.75" cy="32.68" data-y="65.77" data-x="1609545600" r="1" fill="white"><title>2021-01-02: 66</title></circle>
	<circle cx="449.14" cy="23.75" data-y="67.49" data-x="1609632000" r="1" fill="white"><title>2021-01-03: 67</title></circle>
	<circle cx="450.53" cy="27.18" data-y="66.83" data-x="1609718400" r="1" fill="white"><title>2021-01-04: 67</title></circle>
	<circle cx="451.92" cy="10.00" data-y="70.13" data-x="1609804800" r="1" fill="white"><title>2021-01-05: 70</title></circle>
	<circle cx="453.31" cy="38.87" data-y="64.58" data-x="1609891200" r="1" fill="white"><title>2021-01-06: 65</title></circle>
	<circle cx="454.70" cy="52.62" data-y="61.94" data-x="1609977600" r="1" fill="white"><title>2021-01-07: 62</title></circle>
	<circle cx="456.09" cy="76.68" data-y="57.32" data-x="1610064000" r="1" fill="white"><title>2021-01-08: 57</title></circle>
	<circle cx="457.48" cy="82.18" data-y="56.26" data-x="1610150400" r="1" fill="white"><title>2021-01-09: 56</title></circle>
	<circle cx="458.88" cy="95.92" data-y="53.62" data-x="1610236800" r="1" fill="white"><title>2021-01-10: 54</title></circle>
	<circle cx="460.27" cy="104.17" data-y="52.04" data-x="1610323200" r="1" fill="white"><title>2021-01-11: 52</title></circle>
	<circle cx="461.66" cy="109.67" data-y="50.98" data-x="1610409600" r="1" fill="white"><title>2021-01-12: 51</title></circle>
	<circle cx="463.05" cy="113.79" data-y="50.19" data-x="1610496000" r="1" fill="white"><title>2021-01-13: 50</title></circle>
</g>
<g data-series="recent-cases" class="data-series">
	<path d="M 463.05,113.79L 464.44,122.73L 465.83,163.29L 467.22,180.13L 468.61,201.78L 470.00,227.04" id="Recent cases" class="line" stroke-width="1" stroke-linecap="round" stroke-dasharray="4,6" stroke-dashoffset="4"><title>Recent cases</title></path>
	<circle cx="463.05" cy="113.79" data-y="50.19" data-x="1610496000" r="2.5" fill="white"><title>2021-01-13: 50</title></circle>
	<circle cx="464.44" cy="122.73" data-y="48.47" data-x="1610582400" r="2.5" fill="white"><title>2021-01-14: 48</title></circle>
	<circle cx="465.83" cy="163.29" data-y="40.68" data-x="1610668800" r="2.5" fill="white"><title>2021-01-15: 41</title></circle>
	<circle cx="467.22" cy="180.13" data-y="37.44" data-x="1610755200" r="2.5" fill="white"><title>2021-01-16: 37</title></circle>
	<circle cx="468.61" cy="201.78" data-y="33.28" data-x="1610841600" r="2.5" fill="white"><title>2021-01-17: 33</title></circle>
	<circle cx="470.00" cy="227.04" data-y="28.43" data-x="1610928000" r="2.5" fill="white"><title>2021-01-18: 28</title></circle>
</g>
</svg>
