<svg width="480" height="400" viewBox="0 0 480 400" xmlns="http://www.w3.org/2000/svg" style="overflow:display" preserveAspectRatio="xMinYMin meet" overflow="visible">
<defs>
	<style>
	.data-series path.line { fill-opacity: 0; stroke: black; }
	.data-series path.line.dotted { stroke-dasharray: 12 20 }
	.data-series:hover path.line, .data-series.on path.line { stroke-width: 1; }
	.data-series:hover circle, .data-series.on circle { display: inline; }
	.graph-grid { font-family: "Helvetica Neue",Helvetica,Arial,"Lucida Grande",sans-serif; }
	.graph-grid line { stroke: black; stroke-width: 1; stroke-linecap: round; }
	.graph-grid.graph-grid-x text { text-anchor: middle; dominant-baseline: hanging; transform: translateY(10px); }
	.graph-grid.graph-grid-y text { text-anchor: end; dominant-baseline: middle; transform: translateX(-10px); }
	</style>
</defs>
<g class="graph-grid graph-grid-y">
	<line x1="25.00" y1="375.00" x2="470.00" y2="375.00" data-left="25"></line>
	<text x="35" y="375" text-anchor="end">0</text>
	<text x="35" y="290.516559259259" text-anchor="end">20</text>
	<text x="35" y="206.033118518519" text-anchor="end">40</text>
	<text x="35" y="121.549677777778" text-anchor="end">60</text>
	<text x="35" y="37.066237037037" text-anchor="end">80</text>
	<text style="text-anchor:middle;dominant-baseline:hanging;font-weight:bold;transform: translateY(192.5px) rotate(-90deg);"></text>
</g>
<g class="graph-grid graph-grid-x">
	<line class="tick" x1="50.37" y1="375.00" x2="50.37" y2="380.00"></line>
	<text x="50.3728070175439" y="375" text-anchor="middle">A</text>
	<line class="tick" x1="108.93" y1="375.00" x2="108.93" y2="380.00"></line>
	<text x="108.925438596491" y="375" text-anchor="middle">M</text>
	<line class="tick" x1="169.43" y1="375.00" x2="169.43" y2="380.00"></line>
	<text x="169.429824561404" y="375" text-anchor="middle">J</text>
	<line class="tick" x1="227.98" y1="375.00" x2="227.98" y2="380.00"></line>
	<text x="227.982456140351" y="375" text-anchor="middle">J</text>
	<line class="tick" x1="288.49" y1="375.00" x2="288.49" y2="380.00"></line>
	<text x="288.486842105263" y="375" text-anchor="middle">A</text>
	<line class="tick" x1="348.99" y1="375.00" x2="348.99" y2="380.00"></line>
	<text x="348.991228070175" y="375" text-anchor="middle">S</text>
	<line class="tick" x1="407.54" y1="375.00" x2="407.54" y2="380.00"></line>
	<text x="407.543859649123" y="375" text-anchor="middle">O</text>
	<line class="tick" x1="468.05" y1="375.00" x2="468.05" y2="380.00"></line>
	<text x="468.048245614035" y="375" text-anchor="middle">N</text>
	<text style="text-anchor:middle;dominant-baseline:hanging;font-weight:bold;transform: translateY(192.5px) rotate(-90deg);"></text>
</g>
<g data-series="widespread" class="data-series">
	<path d="M 25.00,345.43L 470.00,345.43" id="E07000117-level-0" class="line" stroke-width="1" stroke-linecap="round" stroke-dasharray="3,3" fill-opacity="0.3" opacity="0.3"><title>Widespread</title></path>
</g>
<g data-series="substantial" class="data-series">
	<path d="M 25.00,358.10L 470.00,358.10" id="E07000117-level-1" class="line" stroke-width="1" stroke-linecap="round" stroke-dasharray="3,3" fill-opacity="0.3" opacity="0.3"><title>Substantial</title></path>
</g>
<g data-series="moderate" class="data-series">
	<path d="M 25.00,370.78L 470.00,370.78" id="E07000117-level-2" class="line" stroke-width="1" stroke-linecap="round" stroke-dasharray="3,3" fill-opacity="0.3" opacity="0.3"><title>Moderate</title></path>
</g>
<g data-series="new-cases" class="data-series">
	<path d="M 25.00,373.82L 26.95,372.16L 28.90,370.27L 30.86,370.27L 32.81,370.94L 34.76,368.24L 36.71,366.89L 38.66,366.89L 40.61,363.51L 42.57,361.48L 44.52,357.43L 46.47,352.02L 48.42,350.67L 50.37,348.64L 52.32,341.88L 54.28,340.53L 56.23,337.82L 58.18,339.18L 60.13,337.82L 62.08,339.18L 64.04,339.18L 65.99,341.88L 67.94,344.58L 69.89,347.29L 71.84,347.96L 73.79,352.69L 75.75,354.72L 77.70,350.67L 79.65,352.69L 81.60,355.40L 83.55,356.07L 85.50,350.67L 87.46,349.99L 89.41,345.26L 91.36,349.99L 93.31,350.67L 95.26,347.29L 97.21,349.31L 99.17,352.69L 101.12,350.67L 103.07,352.69L 105.02,353.37L 106.97,349.99L 108.93,351.34L 110.88,348.64L 112.83,348.64L 114.78,352.02L 116.73,351.34L 118.68,349.31L 120.64,352.69L 122.59,352.02L 124.54,349.31L 126.49,350.67L 128.44,346.61L 130.39,350.67L 132.35,349.99L 134.30,349.99L 136.25,352.02L 138.20,354.72L 140.15,351.34L 142.11,354.72L 144.06,350.67L 146.01,352.02L 147.96,350.67L 149.91,349.99L 151.86,352.02L 153.82,356.07L 155.77,356.07L 157.72,358.78L 159.67,360.13L 161.62,362.16L 163.57,356.75L 165.53,358.10L 167.48,358.78L 169.43,357.43L 171.38,356.75L 173.33,352.02L 175.29,349.99L 177.24,352.02L 179.19,349.31L 181.14,350.67L 183.09,353.37L 185.04,353.37L 187.00,359.45L 188.95,359.45L 190.90,363.51L 192.85,363.51L 194.80,363.51L 196.75,360.81L 198.71,362.16L 200.66,361.48L 202.61,363.51L 204.56,361.48L 206.51,364.86L 208.46,364.19L 210.42,365.54L 212.37,364.86L 214.32,364.19L 216.27,364.86L 218.22,366.89L 220.18,366.21L 222.13,366.89L 224.08,368.92L 226.03,370.27L 227.98,372.30L 229.93,372.30L 231.89,372.97L 233.84,372.30L 235.79,372.97L 237.74,370.27L 239.69,367.56L 241.64,367.56L 243.60,367.56L 245.55,367.56L 247.50,366.89L 249.45,366.21L 251.40,366.89L 253.36,368.24L 255.31,368.24L 257.26,365.54L 259.21,366.21L 261.16,365.54L 263.11,365.54L 265.07,362.83L 267.02,362.16L 268.97,360.13L 270.92,361.48L 272.87,361.48L 274.82,361.48L 276.78,360.13L 278.73,361.48L 280.68,362.16L 282.63,361.48L 284.58,356.75L 286.54,350.67L 288.49,348.64L 290.44,347.29L 292.39,348.64L 294.34,346.61L 296.29,347.29L 298.25,345.26L 300.20,343.91L 302.15,344.58L 304.10,343.23L 306.05,343.91L 308.00,345.94L 309.96,345.94L 311.91,354.05L 313.86,358.10L 315.81,360.81L 317.76,364.86L 319.71,360.13L 321.67,358.78L 323.62,360.13L 325.57,359.45L 327.52,356.07L 329.47,354.05L 331.43,352.69L 333.38,354.72L 335.33,355.40L 337.28,353.37L 339.23,350.67L 341.18,354.72L 343.14,351.34L 345.09,345.26L 347.04,339.18L 348.99,337.82L 350.94,335.12L 352.89,332.42L 354.85,322.28L 356.80,314.84L 358.75,318.22L 360.70,318.90L 362.65,315.52L 364.61,305.38L 366.56,299.97L 368.51,307.41L 370.46,306.73L 372.41,288.48L 374.36,291.86L 376.32,279.69L 378.27,275.64L 380.22,266.85L 382.17,242.52L 384.12,230.35L 386.07,213.45L 388.03,205.34L 389.98,192.50L 391.93,164.79L 393.88,150.59L 395.83,141.13L 397.79,129.64L 399.74,126.26L 401.69,107.33L 403.64,108.01L 405.59,112.74L 407.54,124.91L 409.50,105.31L 411.45,81.65L 413.40,53.94L 415.35,47.18L 417.30,34.33L 419.25,31.63L 421.21,10.00L 423.16,22.17L 425.11,35.01L 427.06,44.47L 429.01,49.20L 430.96,55.29L 432.92,72.86L 434.87,85.03L 436.82,76.24L 438.77,77.59L 440.72,92.46L 442.68,87.73L 444.63,97.19L 446.58,109.36L 448.53,118.15L 450.48,131.67L 452.43,147.21L 454.39,156.68L 456.34,166.81L 458.29,164.79L 460.24,159.38" id="New cases" class="line" stroke-width="1" stroke-linecap="round"><title>New cases</title></path>
	<circle cx="25.00" cy="373.82" data-y="0.28" data-x="1584576000" r="1" fill="white"><title>2020-03-19: 0</title></circle>
	<circle cx="26.95" cy="372.16" data-y="0.67" data-x="1584662400" r="1" fill="white"><title>2020-03-20: 1</title></circle>
	<circle cx="28.90" cy="370.27" data-y="1.12" data-x="1584748800" r="1" fill="white"><title>2020-03-21: 1</title></circle>
	<circle cx="30.86" cy="370.27" data-y="1.12" data-x="1584835200" r="1" fill="white"><title>2020-03-22: 1</title></circle>
	<circle cx="32.81" cy="370.94" data-y="0.96" data-x="1584921600" r="1" fill="white"><title>2020-03-23: 1</title></circle>
	<circle cx="34.76" cy="368.24" data-y="1.60" data-x="1585008000" r="1" fill="white"><title>2020-03-24: 2</title></circle>
	<circle cx="36.71" cy="366.89" data-y="1.92" data-x="1585094400" r="1" fill="white"><title>2020-03-25: 2</title></circle>
	<circle cx="38.66" cy="366.89" data-y="1.92" data-x="1585180800" r="1" fill="white"><title>2020-03-26: 2</title></circle>
	<circle cx="40.61" cy="363.51" data-y="2.72" data-x="1585267200" r="1" fill="white"><title>2020-03-27: 3</title></circle>
	<circle cx="42.57" cy="361.48" data-y="3.20" data-x="1585353600" r="1" fill="white"><title>2020-03-28: 3</title></circle>
	<circle cx="44.52" cy="357.43" data-y="4.16" data-x="1585440000" r="1" fill="white"><title>2020-03-29: 4</title></circle>
	<circle cx="46.47" cy="352.02" data-y="5.44" data-x="1585526400" r="1" fill="white"><title>2020-03-30: 5</title></circle>
	<circle cx="48.42" cy="350.67" data-y="5.76" data-x="1585612800" r="1" fill="white"><title>2020-03-31: 6</title></circle>
	<circle cx="50.37" cy="348.64" data-y="6.24" data-x="1585699200" r="1" fill="white"><title>2020-04-01: 6</title></circle>
	<circle cx="52.32" cy="341.88" data-y="7.84" data-x="1585785600" r="1" fill="white"><title>2020-04-02: 8</title></circle>
	<circle cx="54.28" cy="340.53" data-y="8.16" data-x="1585872000" r="1" fill="white"><title>2020-04-03: 8</title></circle>
	<circle cx="56.23" cy="337.82" data-y="8.80" data-x="1585958400" r="1" fill="white"><title>2020-04-04: 9</title></circle>
	<circle cx="58.18" cy="339.18" data-y="8.48" data-x="1586044800" r="1" fill="white"><title>2020-04-05: 8</title></circle>
	<circle cx="60.13" cy="337.82" data-y="8.80" data-x="1586131200" r="1" fill="white"><title>2020-04-06: 9</title></circle>
	<circle cx="62.08" cy="339.18" data-y="8.48" data-x="1586217600" r="1" fill="white"><title>2020-04-07: 8</title></circle>
	<circle cx="64.04" cy="339.18" data-y="8.48" data-x="1586304000" r="1" fill="white"><title>2020-04-08: 8</title></circle>
	<circle cx="65.99" cy="341.88" data-y="7.84" data-x="1586390400" r="1" fill="white"><title>2020-04-09: 8</title></circle>
	<circle cx="67.94" cy="344.58" data-y="7.20" data-x="1586476800" r="1" fill="white"><title>2020-04-10: 7</title></circle>
	<circle cx="69.89" cy="347.29" data-y="6.56" data-x="1586563200" r="1" fill="white"><title>2020-04-11: 7</title></circle>
	<circle cx="71.84" cy="347.96" data-y="6.40" data-x="1586649600" r="1" fill="white"><title>2020-04-12: 6</title></circle>
	<circle cx="73.79" cy="352.69" data-y="5.28" data-x="1586736000" r="1" fill="white"><title>2020-04-13: 5</title></circle>
	<circle cx="75.75" cy="354.72" data-y="4.80" data-x="1586822400" r="1" fill="white"><title>2020-04-14: 5</title></circle>
	<circle cx="77.70" cy="350.67" data-y="5.76" data-x="1586908800" r="1" fill="white"><title>2020-04-15: 6</title></circle>
	<circle cx="79.65" cy="352.69" data-y="5.28" data-x="1586995200" r="1" fill="white"><title>2020-04-16: 5</title></circle>
	<circle cx="81.60" cy="355.40" data-y="4.64" data-x="1587081600" r="1" fill="white"><title>2020-04-17: 5</title></circle>
	<circle cx="83.55" cy="356.07" data-y="4.48" data-x="1587168000" r="1" fill="white"><title>2020-04-18: 4</title></circle>
	<circle cx="85.50" cy="350.67" data-y="5.76" data-x="1587254400" r="1" fill="white"><title>2020-04-19: 6</title></circle>
	<circle cx="87.46" cy="349.99" data-y="5.92" data-x="1587340800" r="1" fill="white"><title>2020-04-20: 6</title></circle>
	<circle cx="89.41" cy="345.26" data-y="7.04" data-x="1587427200" r="1" fill="white"><title>2020-04-21: 7</title></circle>
	<circle cx="91.36" cy="349.99" data-y="5.92" data-x="1587513600" r="1" fill="white"><title>2020-04-22: 6</title></circle>
	<circle cx="93.31" cy="350.67" data-y="5.76" data-x="1587600000" r="1" fill="white"><title>2020-04-23: 6</title></circle>
	<circle cx="95.26" cy="347.29" data-y="6.56" data-x="1587686400" r="1" fill="white"><title>2020-04-24: 7</title></circle>
	<circle cx="97.21" cy="349.31" data-y="6.08" data-x="1587772800" r="1" fill="white"><title>2020-04-25: 6</title></circle>
	<circle cx="99.17" cy="352.69" data-y="5.28" data-x="1587859200" r="1" fill="white"><title>2020-04-26: 5</title></circle>
	<circle cx="101.12" cy="350.67" data-y="5.76" data-x="1587945600" r="1" fill="white"><title>2020-04-27: 6</title></circle>
	<circle cx="103.07" cy="352.69" data-y="5.28" data-x="1588032000" r="1" fill="white"><title>2020-04-28: 5</title></circle>
	<circle cx="105.02" cy="353.37" data-y="5.12" data-x="1588118400" r="1" fill="white"><title>2020-04-29: 5</title></circle>
	<circle cx="106.97" cy="349.99" data-y="5.92" data-x="1588204800" r="1" fill="white"><title>2020-04-30: 6</title></circle>
	<circle cx="108.93" cy="351.34" data-y="5.60" data-x="1588291200" r="1" fill="white"><title>2020-05-01: 6</title></circle>
	<circle cx="110.88" cy="348.64" data-y="6.24" data-x="1588377600" r="1" fill="white"><title>2020-05-02: 6</title></circle>
	<circle cx="112.83" cy="348.64" data-y="6.24" data-x="1588464000" r="1" fill="white"><title>2020-05-03: 6</title></circle>
	<circle cx="114.78" cy="352.02" data-y="5.44" data-x="1588550400" r="1" fill="white"><title>2020-05-04: 5</title></circle>
	<circle cx="116.73" cy="351.34" data-y="5.60" data-x="1588636800" r="1" fill="white"><title>2020-05-05: 6</title></circle>
	<circle cx="118.68" cy="349.31" data-y="6.08" data-x="1588723200" r="1" fill="white"><title>2020-05-06: 6</title></circle>
	<circle cx="120.64" cy="352.69" data-y="5.28" data-x="1588809600" r="1" fill="white"><title>2020-05-07: 5</title></circle>
	<circle cx="122.59" cy="352.02" data-y="5.44" data-x="1588896000" r="1" fill="white"><title>2020-05-08: 5</title></circle>
	<circle cx="124.54" cy="349.31" data-y="6.08" data-x="1588982400" r="1" fill="white"><title>2020-05-09: 6</title></circle>
	<circle cx="126.49" cy="350.67" data-y="5.76" data-x="1589068800" r="1" fill="white"><title>2020-05-10: 6</title></circle>
	<circle cx="128.44" cy="346.61" data-y="6.72" data-x="1589155200" r="1" fill="white"><title>2020-05-11: 7</title></circle>
	<circle cx="130.39" cy="350.67" data-y="5.76" data-x="1589241600" r="1" fill="white"><title>2020-05-12: 6</title></circle>
	<circle cx="132.35" cy="349.99" data-y="5.92" data-x="1589328000" r="1" fill="white"><title>2020-05-13: 6</title></circle>
	<circle cx="134.30" cy="349.99" data-y="5.92" data-x="1589414400" r="1" fill="white"><title>2020-05-14: 6</title></circle>
	<circle cx="136.25" cy="352.02" data-y="5.44" data-x="1589500800" r="1" fill="white"><title>2020-05-15: 5</title></circle>
	<circle cx="138.20" cy="354.72" data-y="4.80" data-x="1589587200" r="1" fill="white"><title>2020-05-16: 5</title></circle>
	<circle cx="140.15" cy="351.34" data-y="5.60" data-x="1589673600" r="1" fill="white"><title>2020-05-17: 6</title></circle>
	<circle cx="142.11" cy="354.72" data-y="4.80" data-x="1589760000" r="1" fill="white"><title>2020-05-18: 5</title></circle>
	<circle cx="144.06" cy="350.67" data-y="5.76" data-x="1589846400" r="1" fill="white"><title>2020-05-19: 6</title></circle>
	<circle cx="146.01" cy="352.02" data-y="5.44" data-x="1589932800" r="1" fill="white"><title>2020-05-20: 5</title></circle>
	<circle cx="147.96" cy="350.67" data-y="5.76" data-x="1590019200" r="1" fill="white"><title>2020-05-21: 6</title></circle>
	<circle cx="149.91" cy="349.99" data-y="5.92" data-x="1590105600" r="1" fill="white"><title>2020-05-22: 6</title></circle>
	<circle cx="151.86" cy="352.02" data-y="5.44" data-x="1590192000" r="1" fill="white"><title>2020-05-23: 5</title></circle>
	<circle cx="153.82" cy="356.07" data-y="4.48" data-x="1590278400" r="1" fill="white"><title>2020-05-24: 4</title></circle>
	<circle cx="155.77" cy="356.07" data-y="4.48" data-x="1590364800" r="1" fill="white"><title>2020-05-25: 4</title></circle>
	<circle cx="157.72" cy="358.78" data-y="3.84" data-x="1590451200" r="1" fill="white"><title>2020-05-26: 4</title></circle>
	<circle cx="159.67" cy="360.13" data-y="3.52" data-x="1590537600" r="1" fill="white"><title>2020-05-27: 4</title></circle>
	<circle cx="161.62" cy="362.16" data-y="3.04" data-x="1590624000" r="1" fill="white"><title>2020-05-28: 3</title></circle>
	<circle cx="163.57" cy="356.75" data-y="4.32" data-x="1590710400" r="1" fill="white"><title>2020-05-29: 4</title></circle>
	<circle cx="165.53" cy="358.10" data-y="4.00" data-x="1590796800" r="1" fill="white"><title>2020-05-30: 4</title></circle>
	<circle cx="167.48" cy="358.78" data-y="3.84" data-x="1590883200" r="1" fill="white"><title>2020-05-31: 4</title></circle>
	<circle cx="169.43" cy="357.43" data-y="4.16" data-x="1590969600" r="1" fill="white"><title>2020-06-01: 4</title></circle>
	<circle cx="171.38" cy="356.75" data-y="4.32" data-x="1591056000" r="1" fill="white"><title>2020-06-02: 4</title></circle>
	<circle cx="173.33" cy="352.02" data-y="5.44" data-x="1591142400" r="1" fill="white"><title>2020-06-03: 5</title></circle>
	<circle cx="175.29" cy="349.99" data-y="5.92" data-x="1591228800" r="1" fill="white"><title>2020-06-04: 6</title></circle>
	<circle cx="177.24" cy="352.02" data-y="5.44" data-x="1591315200" r="1" fill="white"><title>2020-06-05: 5</title></circle>
	<circle cx="179.19" cy="349.31" data-y="6.08" data-x="1591401600" r="1" fill="white"><title>2020-06-06: 6</title></circle>
	<circle cx="181.14" cy="350.67" data-y="5.76" data-x="1591488000" r="1" fill="white"><title>2020-06-07: 6</title></circle>
	<circle cx="183.09" cy="353.37" data-y="5.12" data-x="1591574400" r="1" fill="white"><title>2020-06-08: 5</title></circle>
	<circle cx="185.04" cy="353.37" data-y="5.12" data-x="1591660800" r="1" fill="white"><title>2020-06-09: 5</title></circle>
	<circle cx="187.00" cy="359.45" data-y="3.68" data-x="1591747200" r="1" fill="white"><title>2020-06-10: 4</title></circle>
	<circle cx="188.95" cy="359.45" data-y="3.68" data-x="1591833600" r="1" fill="white"><title>2020-06-11: 4</title></circle>
	<circle cx="190.90" cy="363.51" data-y="2.72" data-x="1591920000" r="1" fill="white"><title>2020-06-12: 3</title></circle>
	<circle cx="192.85" cy="363.51" data-y="2.72" data-x="1592006400" r="1" fill="white"><title>2020-06-13: 3</title></circle>
	<circle cx="194.80" cy="363.51" data-y="2.72" data-x="1592092800" r="1" fill="white"><title>2020-06-14: 3</title></circle>
	<circle cx="196.75" cy="360.81" data-y="3.36" data-x="1592179200" r="1" fill="white"><title>2020-06-15: 3</title></circle>
	<circle cx="198.71" cy="362.16" data-y="3.04" data-x="1592265600" r="1" fill="white"><title>2020-06-16: 3</title></circle>
	<circle cx="200.66" cy="361.48" data-y="3.20" data-x="1592352000" r="1" fill="white"><title>2020-06-17: 3</title></circle>
	<circle cx="202.61" cy="363.51" data-y="2.72" data-x="1592438400" r="1" fill="white"><title>2020-06-18: 3</title></circle>
	<circle cx="204.56" cy="361.48" data-y="3.20" data-x="1592524800" r="1" fill="white"><title>2020-06-19: 3</title></circle>
	<circle cx="206.51" cy="364.86" data-y="2.40" data-x="1592611200" r="1" fill="white"><title>2020-06-20: 2</title></circle>
	<circle cx="208.46" cy="364.19" data-y="2.56" data-x="1592697600" r="1" fill="white"><title>2020-06-21: 3</title></circle>
	<circle cx="210.42" cy="365.54" data-y="2.24" data-x="1592784000" r="1" fill="white"><title>2020-06-22: 2</title></circle>
	<circle cx="212.37" cy="364.86" data-y="2.40" data-x="1592870400" r="1" fill="white"><title>2020-06-23: 2</title></circle>
	<circle cx="214.32" cy="364.19" data-y="2.56" data-x="1592956800" r="1" fill="white"><title>2020-06-24: 3</title></circle>
	<circle cx="216.27" cy="364.86" data-y="2.40" data-x="1593043200" r="1" fill="white"><title>2020-06-25: 2</title></circle>
	<circle cx="218.22" cy="366.89" data-y="1.92" data-x="1593129600" r="1" fill="white"><title>2020-06-26: 2</title></circle>
	<circle cx="220.18" cy="366.21" data-y="2.08" data-x="1593216000" r="1" fill="white"><title>2020-06-27: 2</title></circle>
	<circle cx="222.13" cy="366.89" data-y="1.92" data-x="1593302400" r="1" fill="white"><title>2020-06-28: 2</title></circle>
	<circle cx="224.08" cy="368.92" data-y="1.44" data-x="1593388800" r="1" fill="white"><title>2020-06-29: 1</title></circle>
	<circle cx="226.03" cy="370.27" data-y="1.12" data-x="1593475200" r="1" fill="white"><title>2020-06-30: 1</title></circle>
	<circle cx="227.98" cy="372.30" data-y="0.64" data-x="1593561600" r="1" fill="white"><title>2020-07-01: 1</title></circle>
	<circle cx="229.93" cy="372.30" data-y="0.64" data-x="1593648000" r="1" fill="white"><title>2020-07-02: 1</title></circle>
	<circle cx="231.89" cy="372.97" data-y="0.48" data-x="1593734400" r="1" fill="white"><title>2020-07-03: 0</title></circle>
	<circle cx="233.84" cy="372.30" data-y="0.64" data-x="1593820800" r="1" fill="white"><title>2020-07-04: 1</title></circle>
	<circle cx="235.79" cy="372.97" data-y="0.48" data-x="1593907200" r="1" fill="white"><title>2020-07-05: 0</title></circle>
	<circle cx="237.74" cy="370.27" data-y="1.12" data-x="1593993600" r="1" fill="white"><title>2020-07-06: 1</title></circle>
	<circle cx="239.69" cy="367.56" data-y="1.76" data-x="1594080000" r="1" fill="white"><title>2020-07-07: 2</title></circle>
	<circle cx="241.64" cy="367.56" data-y="1.76" data-x="1594166400" r="1" fill="white"><title>2020-07-08: 2</title></circle>
	<circle cx="243.60" cy="367.56" data-y="1.76" data-x="1594252800" r="1" fill="white"><title>2020-07-09: 2</title></circle>
	<circle cx="245.55" cy="367.56" data-y="1.76" data-x="1594339200" r="1" fill="white"><title>2020-07-10: 2</title></circle>
	<circle cx="247.50" cy="366.89" data-y="1.92" data-x="1594425600" r="1" fill="white"><title>2020-07-11: 2</title></circle>
	<circle cx="249.45" cy="366.21" data-y="2.08" data-x="1594512000" r="1" fill="white"><title>2020-07-12: 2</title></circle>
	<circle cx="251.40" cy="366.89" data-y="1.92" data-x="1594598400" r="1" fill="white"><title>2020-07-13: 2</title></circle>
	<circle cx="253.36" cy="368.24" data-y="1.60" data-x="1594684800" r="1" fill="white"><title>2020-07-14: 2</title></circle>
	<circle cx="255.31" cy="368.24" data-y="1.60" data-x="1594771200" r="1" fill="white"><title>2020-07-15: 2</title></circle>
	<circle cx="257.26" cy="365.54" data-y="2.24" data-x="1594857600" r="1" fill="white"><title>2020-07-16: 2</title></circle>
	<circle cx="259.21" cy="366.21" data-y="2.08" data-x="1594944000" r="1" fill="white"><title>2020-07-17: 2</title></circle>
	<circle cx="261.16" cy="365.54" data-y="2.24" data-x="1595030400" r="1" fill="white"><title>2020-07-18: 2</title></circle>
	<circle cx="263.11" cy="365.54" data-y="2.24" data-x="1595116800" r="1" fill="white"><title>2020-07-19: 2</title></circle>
	<circle cx="265.07" cy="362.83" data-y="2.88" data-x="1595203200" r="1" fill="white"><title>2020-07-20: 3</title></circle>
	<circle cx="267.02" cy="362.16" data-y="3.04" data-x="1595289600" r="1" fill="white"><title>2020-07-21: 3</title></circle>
	<circle cx="268.97" cy="360.13" data-y="3.52" data-x="1595376000" r="1" fill="white"><title>2020-07-22: 4</title></circle>
	<circle cx="270.92" cy="361.48" data-y="3.20" data-x="1595462400" r="1" fill="white"><title>2020-07-23: 3</title></circle>
	<circle cx="272.87" cy="361.48" data-y="3.20" data-x="1595548800" r="1" fill="white"><title>2020-07-24: 3</title></circle>
	<circle cx="274.82" cy="361.48" data-y="3.20" data-x="1595635200" r="1" fill="white"><title>2020-07-25: 3</title></circle>
	<circle cx="276.78" cy="360.13" data-y="3.52" data-x="1595721600" r="1" fill="white"><title>2020-07-26: 4</title></circle>
	<circle cx="278.73" cy="361.48" data-y="3.20" data-x="1595808000" r="1" fill="white"><title>2020-07-27: 3</title></circle>
	<circle cx="280.68" cy="362.16" data-y="3.04" data-x="1595894400" r="1" fill="white"><title>2020-07-28: 3</title></circle>
	<circle cx="282.63" cy="361.48" data-y="3.20" data-x="1595980800" r="1" fill="white"><title>2020-07-29: 3</title></circle>
	<circle cx="284.58" cy="356.75" data-y="4.32" data-x="1596067200" r="1" fill="white"><title>2020-07-30: 4</title></circle>
	<circle cx="286.54" cy="350.67" data-y="5.76" data-x="1596153600" r="1" fill="white"><title>2020-07-31: 6</title></circle>
	<circle cx="288.49" cy="348.64" data-y="6.24" data-x="1596240000" r="1" fill="white"><title>2020-08-01: 6</title></circle>
	<circle cx="290.44" cy="347.29" data-y="6.56" data-x="1596326400" r="1" fill="white"><title>2020-08-02: 7</title></circle>
	<circle cx="292.39" cy="348.64" data-y="6.24" data-x="1596412800" r="1" fill="white"><title>2020-08-03: 6</title></circle>
	<circle cx="294.34" cy="346.61" data-y="6.72" data-x="1596499200" r="1" fill="white"><title>2020-08-04: 7</title></circle>
	<circle cx="296.29" cy="347.29" data-y="6.56" data-x="1596585600" r="1" fill="white"><title>2020-08-05: 7</title></circle>
	<circle cx="298.25" cy="345.26" data-y="7.04" data-x="1596672000" r="1" fill="white"><title>2020-08-06: 7</title></circle>
	<circle cx="300.20" cy="343.91" data-y="7.36" data-x="1596758400" r="1" fill="white"><title>2020-08-07: 7</title></circle>
	<circle cx="302.15" cy="344.58" data-y="7.20" data-x="1596844800" r="1" fill="white"><title>2020-08-08: 7</title></circle>
	<circle cx="304.10" cy="343.23" data-y="7.52" data-x="1596931200" r="1" fill="white"><title>2020-08-09: 8</title></circle>
	<circle cx="306.05" cy="343.91" data-y="7.36" data-x="1597017600" r="1" fill="white"><title>2020-08-10: 7</title></circle>
	<circle cx="308.00" cy="345.94" data-y="6.88" data-x="1597104000" r="1" fill="white"><title>2020-08-11: 7</title></circle>
	<circle cx="309.96" cy="345.94" data-y="6.88" data-x="1597190400" r="1" fill="white"><title>2020-08-12: 7</title></circle>
	<circle cx="311.91" cy="354.05" data-y="4.96" data-x="1597276800" r="1" fill="white"><title>2020-08-13: 5</title></circle>
	<circle cx="313.86" cy="358.10" data-y="4.00" data-x="1597363200" r="1" fill="white"><title>2020-08-14: 4</title></circle>
	<circle cx="315.81" cy="360.81" data-y="3.36" data-x="1597449600" r="1" fill="white"><title>2020-08-15: 3</title></circle>
	<circle cx="317.76" cy="364.86" data-y="2.40" data-x="1597536000" r="1" fill="white"><title>2020-08-16: 2</title></circle>
	<circle cx="319.71" cy="360.13" data-y="3.52" data-x="1597622400" r="1" fill="white"><title>2020-08-17: 4</title></circle>
	<circle cx="321.67" cy="358.78" data-y="3.84" data-x="1597708800" r="1" fill="white"><title>2020-08-18: 4</title></circle>
	<circle cx="323.62" cy="360.13" data-y="3.52" data-x="1597795200" r="1" fill="white"><title>2020-08-19: 4</title></circle>
	<circle cx="325.57" cy="359.45" data-y="3.68" data-x="1597881600" r="1" fill="white"><title>2020-08-20: 4</title></circle>
	<circle cx="327.52" cy="356.07" data-y="4.48" data-x="1597968000" r="1" fill="white"><title>2020-08-21: 4</title></circle>
	<circle cx="329.47" cy="354.05" data-y="4.96" data-x="1598054400" r="1" fill="white"><title>2020-08-22: 5</title></circle>
	<circle cx="331.43" cy="352.69" data-y="5.28" data-x="1598140800" r="1" fill="white"><title>2020-08-23: 5</title></circle>
	<circle cx="333.38" cy="354.72" data-y="4.80" data-x="1598227200" r="1" fill="white"><title>2020-08-24: 5</title></circle>
	<circle cx="335.33" cy="355.40" data-y="4.64" data-x="1598313600" r="1" fill="white"><title>2020-08-25: 5</title></circle>
	<circle cx="337.28" cy="353.37" data-y="5.12" data-x="1598400000" r="1" fill="white"><title>2020-08-26: 5</title></circle>
	<circle cx="339.23" cy="350.67" data-y="5.76" data-x="1598486400" r="1" fill="white"><title>2020-08-27: 6</title></circle>
	<circle cx="341.18" cy="354.72" data-y="4.80" data-x="1598572800" r="1" fill="white"><title>2020-08-28: 5</title></circle>
	<circle cx="343.14" cy="351.34" data-y="5.60" data-x="1598659200" r="1" fill="white"><title>2020-08-29: 6</title></circle>
	<circle cx="345.09" cy="345.26" data-y="7.04" data-x="1598745600" r="1" fill="white"><title>2020-08-30: 7</title></circle>
	<circle cx="347.04" cy="339.18" data-y="8.48" data-x="1598832000" r="1" fill="white"><title>2020-08-31: 8</title></circle>
	<circle cx="348.99" cy="337.82" data-y="8.80" data-x="1598918400" r="1" fill="white"><title>2020-09-01: 9</title></circle>
	<circle cx="350.94" cy="335.12" data-y="9.44" data-x="1599004800" r="1" fill="white"><title>2020-09-02: 9</title></circle>
	<circle cx="352.89" cy="332.42" data-y="10.08" data-x="1599091200" r="1" fill="white"><title>2020-09-03: 10</title></circle>
	<circle cx="354.85" cy="322.28" data-y="12.48" data-x="1599177600" r="1" fill="white"><title>2020-09-04: 12</title></circle>
	<circle cx="356.80" cy="314.84" data-y="14.24" data-x="1599264000" r="1" fill="white"><title>2020-09-05: 14</title></circle>
	<circle cx="358.75" cy="318.22" data-y="13.44" data-x="1599350400" r="1" fill="white"><title>2020-09-06: 13</title></circle>
	<circle cx="360.70" cy="318.90" data-y="13.28" data-x="1599436800" r="1" fill="white"><title>2020-09-07: 13</title></circle>
	<circle cx="362.65" cy="315.52" data-y="14.08" data-x="1599523200" r="1" fill="white"><title>2020-09-08: 14</title></circle>
	<circle cx="364.61" cy="305.38" data-y="16.48" data-x="1599609600" r="1" fill="white"><title>2020-09-09: 16</title></circle>
	<circle cx="366.56" cy="299.97" data-y="17.76" data-x="1599696000" r="1" fill="white"><title>2020-09-10: 18</title></circle>
	<circle cx="368.51" cy="307.41" data-y="16.00" data-x="1599782400" r="1" fill="white"><title>2020-09-11: 16</title></circle>
	<circle cx="370.46" cy="306.73" data-y="16.16" data-x="1599868800" r="1" fill="white"><title>2020-09-12: 16</title></circle>
	<circle cx="372.41" cy="288.48" data-y="20.48" data-x="1599955200" r="1" fill="white"><title>2020-09-13: 20</title></circle>
	<circle cx="374.36" cy="291.86" data-y="19.68" data-x="1600041600" r="1" fill="white"><title>2020-09-14: 20</title></circle>
	<circle cx="376.32" cy="279.69" data-y="22.56" data-x="1600128000" r="1" fill="white"><title>2020-09-15: 23</title></circle>
	<circle cx="378.27" cy="275.64" data-y="23.52" data-x="1600214400" r="1" fill="white"><title>2020-09-16: 24</title></circle>
	<circle cx="380.22" cy="266.85" data-y="25.60" data-x="1600300800" r="1" fill="white"><title>2020-09-17: 26</title></circle>
	<circle cx="382.17" cy="242.52" data-y="31.36" data-x="1600387200" r="1" fill="white"><title>2020-09-18: 31</title></circle>
	<circle cx="384.12" cy="230.35" data-y="34.24" data-x="1600473600" r="1" fill="white"><title>2020-09-19: 34</title></circle>
	<circle cx="386.07" cy="213.45" data-y="38.24" data-x="1600560000" r="1" fill="white"><title>2020-09-20: 38</title></circle>
	<circle cx="388.03" cy="205.34" data-y="40.16" data-x="1600646400" r="1" fill="white"><title>2020-09-21: 40</title></circle>
	<circle cx="389.98" cy="192.50" data-y="43.20" data-x="1600732800" r="1" fill="white"><title>2020-09-22: 43</title></circle>
	<circle cx="391.93" cy="164.79" data-y="49.76" data-x="1600819200" r="1" fill="white"><title>2020-09-23: 50</title></circle>
	<circle cx="393.88" cy="150.59" data-y="53.12" data-x="1600905600" r="1" fill="white"><title>2020-09-24: 53</title></circle>
	<circle cx="395.83" cy="141.13" data-y="55.36" data-x="1600992000" r="1" fill="white"><title>2020-09-25: 55</title></circle>
	<circle cx="397.79" cy="129.64" data-y="58.09" data-x="1601078400" r="1" fill="white"><title>2020-09-26: 58</title></circle>
	<circle cx="399.74" cy="126.26" data-y="58.89" data-x="1601164800" r="1" fill="white"><title>2020-09-27: 59</title></circle>
	<circle cx="401.69" cy="107.33" data-y="63.37" data-x="1601251200" r="1" fill="white"><title>2020-09-28: 63</title></circle>
	<circle cx="403.64" cy="108.01" data-y="63.21" data-x="1601337600" r="1" fill="white"><title>2020-09-29: 63</title></circle>
	<circle cx="405.59" cy="112.74" data-y="62.09" data-x="1601424000" r="1" fill="white"><title>2020-09-30: 62</title></circle>
	<circle cx="407.54" cy="124.91" data-y="59.21" data-x="1601510400" r="1" fill="white"><title>2020-10-01: 59</title></circle>
	<circle cx="409.50" cy="105.31" data-y="63.85" data-x="1601596800" r="1" fill="white"><title>2020-10-02: 64</title></circle>
	<circle cx="411.45" cy="81.65" data-y="69.45" data-x="1601683200" r="1" fill="white"><title>2020-10-03: 69</title></circle>
	<circle cx="413.40" cy="53.94" data-y="76.01" data-x="1601769600" r="1" fill="white"><title>2020-10-04: 76</title></circle>
	<circle cx="415.35" cy="47.18" data-y="77.61" data-x="1601856000" r="1" fill="white"><title>2020-10-05: 78</title></circle>
	<circle cx="417.30" cy="34.33" data-y="80.65" data-x="1601942400" r="1" fill="white"><title>2020-10-06: 81</title></circle>
	<circle cx="419.25" cy="31.63" data-y="81.29" data-x="1602028800" r="1" fill="white"><title>2020-10-07: 81</title></circle>
	<circle cx="421.21" cy="10.00" data-y="86.41" data-x="1602115200" r="1" fill="white"><title>2020-10-08: 86</title></circle>
	<circle cx="423.16" cy="22.17" data-y="83.53" data-x="1602201600" r="1" fill="white"><title>2020-10-09: 84</title></circle>
	<circle cx="425.11" cy="35.01" data-y="80.49" data-x="1602288000" r="1" fill="white"><title>2020-10-10: 80</title></circle>
	<circle cx="427.06" cy="44.47" data-y="78.25" data-x="1602374400" r="1" fill="white"><title>2020-10-11: 78</title></circle>
	<circle cx="429.01" cy="49.20" data-y="77.13" data-x="1602460800" r="1" fill="white"><title>2020-10-12: 77</title></circle>
	<circle cx="430.96" cy="55.29" data-y="75.69" data-x="1602547200" r="1" fill="white"><title>2020-10-13: 76</title></circle>
	<circle cx="432.92" cy="72.86" data-y="71.53" data-x="1602633600" r="1" fill="white"><title>2020-10-14: 72</title></circle>
	<circle cx="434.87" cy="85.03" data-y="68.65" data-x="1602720000" r="1" fill="white"><title>2020-10-15: 69</title></circle>
	<circle cx="436.82" cy="76.24" data-y="70.73" data-x="1602806400" r="1" fill="white"><title>2020-10-16: 71</title></circle>
	<circle cx="438.77" cy="77.59" data-y="70.41" data-x="1602892800" r="1" fill="white"><title>2020-10-17: 70</title></circle>
	<circle cx="440.72" cy="92.46" data-y="66.89" data-x="1602979200" r="1" fill="white"><title>2020-10-18: 67</title></circle>
	<circle cx="442.68" cy="87.73" data-y="68.01" data-x="1603065600" r="1" fill="white"><title>2020-10-19: 68</title></circle>
	<circle cx="444.63" cy="97.19" data-y="65.77" data-x="1603152000" r="1" fill="white"><title>2020-10-20: 66</title></circle>
	<circle cx="446.58" cy="109.36" data-y="62.89" data-x="1603238400" r="1" fill="white"><title>2020-10-21: 63</title></circle>
	<circle cx="448.53" cy="118.15" data-y="60.81" data-x="1603324800" r="1" fill="white"><title>2020-10-22: 61</title></circle>
	<circle cx="450.48" cy="131.67" data-y="57.60" data-x="1603411200" r="1" fill="white"><title>2020-10-23: 58</title></circle>
	<circle cx="452.43" cy="147.21" data-y="53.92" data-x="1603497600" r="1" fill="white"><title>2020-10-24: 54</title></circle>
	<circle cx="454.39" cy="156.68" data-y="51.68" data-x="1603584000" r="1" fill="white"><title>2020-10-25: 52</title></circle>
	<circle cx="456.34" cy="166.81" data-y="49.28" data-x="1603670400" r="1" fill="white"><title>2020-10-26: 49</title></circle>
	<circle cx="458.29" cy="164.79" data-y="49.76" data-x="1603756800" r="1" fill="white"><title>2020-10-27: 50</title></circle>
	<circle cx="460.24" cy="159.38" data-y="51.04" data-x="1603843200" r="1" fill="white"><title>2020-10-28: 51</title></circle>
</g>
<g data-series="recent-cases" class="data-series">
	<path d="M 460.24,159.38L 462.19,159.38L 464.14,201.29L 466.10,210.19L 468.05,229.27L 470.00,244.88" id="Recent cases" class="line" stroke-width="1" stroke-linecap="round" stroke-dasharray="4,6" stroke-dashoffset="4"><title>Recent cases</title></path>
	<circle cx="460.24" cy="159.38" data-y="51.04" data-x="1603843200" r="2.5" fill="white"><title>2020-10-28: 51</title></circle>
	<circle cx="462.19" cy="159.38" data-y="51.04" data-x="1603929600" r="2.5" fill="white"><title>2020-10-29: 51</title></circle>
	<circle cx="464.14" cy="201.29" data-y="41.12" data-x="1604016000" r="2.5" fill="white"><title>2020-10-30: 41</title></circle>
	<circle cx="466.10" cy="210.19" data-y="39.02" data-x="1604102400" r="2.5" fill="white"><title>2020-10-31: 39</title></circle>
	<circle cx="468.05" cy="229.27" data-y="34.50" data-x="1604188800" r="2.5" fill="white"><title>2020-11-01: 34</title></circle>
	<circle cx="470.00" cy="244.88" data-y="30.80" data-x="1604275200" r="2.5" fill="white"><title>2020-11-02: 31</title></circle>
</g>
</svg>
