<svg width="480" height="400" viewBox="0 0 480 400" xmlns="http://www.w3.org/2000/svg" style="overflow:display" preserveAspectRatio="xMinYMin meet" overflow="visible">
<defs>
	<style>
	.data-series path.line { fill-opacity: 0; stroke: black; }
	.data-series path.line.dotted { stroke-dasharray: 12 20 }
	.data-series:hover path.line, .data-series.on path.line { stroke-width: 1; }
	.data-series:hover circle, .data-series.on circle { display: inline; }
	.graph-grid { font-family: "Helvetica Neue",Helvetica,Arial,"Lucida Grande",sans-serif; }
	.graph-grid line { stroke: black; stroke-width: 1; stroke-linecap: round; }
	.graph-grid.graph-grid-x text { text-anchor: middle; dominant-baseline: hanging; transform: translateY(10px); }
	.graph-grid.graph-grid-y text { text-anchor: end; dominant-baseline: middle; transform: translateX(-10px); }
	</style>
</defs>
<g class="graph-grid graph-grid-y">
	<line x1="25.00" y1="375.00" x2="470.00" y2="375.00" data-left="25"></line>
	<text x="35" y="375" text-anchor="end">0</text>
	<text x="35" y="198.311384320175" text-anchor="end">50</text>
	<text x="35" y="21.6227686403509" text-anchor="end">100</text>
	<text style="text-anchor:middle;dominant-baseline:hanging;font-weight:bold;transform: translateY(192.5px) rotate(-90deg);"></text>
</g>
<g class="graph-grid graph-grid-x">
	<line class="tick" x1="31.97" y1="375.00" x2="31.97" y2="380.00"></line>
	<text x="31.974921630094" y="375" text-anchor="middle">M</text>
	<line class="tick" x1="75.22" y1="375.00" x2="75.22" y2="380.00"></line>
	<text x="75.2194357366771" y="375" text-anchor="middle">A</text>
	<line class="tick" x1="117.07" y1="375.00" x2="117.07" y2="380.00"></line>
	<text x="117.068965517241" y="375" text-anchor="middle">M</text>
	<line class="tick" x1="160.31" y1="375.00" x2="160.31" y2="380.00"></line>
	<text x="160.313479623824" y="375" text-anchor="middle">J</text>
	<line class="tick" x1="202.16" y1="375.00" x2="202.16" y2="380.00"></line>
	<text x="202.163009404389" y="375" text-anchor="middle">J</text>
	<line class="tick" x1="245.41" y1="375.00" x2="245.41" y2="380.00"></line>
	<text x="245.407523510972" y="375" text-anchor="middle">A</text>
	<line class="tick" x1="288.65" y1="375.00" x2="288.65" y2="380.00"></line>
	<text x="288.652037617555" y="375" text-anchor="middle">S</text>
	<line class="tick" x1="330.50" y1="375.00" x2="330.50" y2="380.00"></line>
	<text x="330.501567398119" y="375" text-anchor="middle">O</text>
	<line class="tick" x1="373.75" y1="375.00" x2="373.75" y2="380.00"></line>
	<text x="373.746081504702" y="375" text-anchor="middle">N</text>
	<line class="tick" x1="415.60" y1="375.00" x2="415.60" y2="380.00"></line>
	<text x="415.595611285266" y="375" text-anchor="middle">D</text>
	<line class="tick" x1="458.84" y1="375.00" x2="458.84" y2="380.00"></line>
	<text x="458.84012539185" y="375" text-anchor="middle">J</text>
	<text style="text-anchor:middle;dominant-baseline:hanging;font-weight:bold;transform: translateY(192.5px) rotate(-90deg);"></text>
</g>
<g data-series="widespread" class="data-series">
	<path d="M 25.00,350.26L 470.00,350.26" id="E07000216-level-0" class="line" stroke-width="1" stroke-linecap="round" stroke-dasharray="3,3" fill-opacity="0.3" opacity="0.3"><title>Widespread</title></path>
</g>
<g data-series="substantial" class="data-series">
	<path d="M 25.00,360.86L 470.00,360.86" id="E07000216-level-1" class="line" stroke-width="1" stroke-linecap="round" stroke-dasharray="3,3" fill-opacity="0.3" opacity="0.3"><title>Substantial</title></path>
</g>
<g data-series="moderate" class="data-series">
	<path d="M 25.00,371.47L 470.00,371.47" id="E07000216-level-2" class="line" stroke-width="1" stroke-linecap="round" stroke-dasharray="3,3" fill-opacity="0.3" opacity="0.3"><title>Moderate</title></path>
</g>
<g data-series="new-cases" class="data-series">
	<path d="M 25.00,373.60L 26.39,373.88L 27.79,374.07L 29.18,374.20L 30.58,374.60L 31.97,374.60L 33.37,374.60L 34.76,375.00L 36.16,375.00L 37.55,375.00L 38.95,375.00L 40.34,374.60L 41.74,374.60L 43.13,374.60L 44.53,374.20L 45.92,373.80L 47.32,373.40L 48.71,372.20L 50.11,370.20L 51.50,369.80L 52.90,368.20L 54.29,367.40L 55.69,366.60L 57.08,365.79L 58.48,365.79L 59.87,367.00L 61.27,366.20L 62.66,365.79L 64.06,365.79L 65.45,363.79L 66.85,361.79L 68.24,360.59L 69.64,360.19L 71.03,358.59L 72.43,358.19L 73.82,358.19L 75.22,360.19L 76.61,361.79L 78.01,363.39L 79.40,361.79L 80.80,363.39L 82.19,364.99L 83.59,360.59L 84.98,359.79L 86.38,357.39L 87.77,352.19L 89.17,352.19L 90.56,346.98L 91.96,342.98L 93.35,345.38L 94.75,343.78L 96.14,345.38L 97.54,346.18L 98.93,341.38L 100.33,343.38L 101.72,343.38L 103.12,340.98L 104.51,339.38L 105.91,339.78L 107.30,341.78L 108.70,345.78L 110.09,348.19L 111.49,350.19L 112.88,351.39L 114.28,353.39L 115.67,353.79L 117.07,354.59L 118.46,355.39L 119.86,356.19L 121.25,354.99L 122.65,356.59L 124.04,358.99L 125.44,360.19L 126.83,360.19L 128.23,359.39L 129.62,356.19L 131.02,358.99L 132.41,360.59L 133.81,360.99L 135.20,360.99L 136.60,362.99L 137.99,366.60L 139.39,369.40L 140.78,368.60L 142.18,368.60L 143.57,369.00L 144.97,369.40L 146.36,369.40L 147.76,369.80L 149.15,371.00L 150.55,371.80L 151.94,373.00L 153.34,372.20L 154.73,371.80L 156.13,371.80L 157.52,371.40L 158.92,371.80L 160.31,373.00L 161.71,372.60L 163.10,373.00L 164.50,373.40L 165.89,373.80L 167.29,373.80L 168.68,373.80L 170.08,373.00L 171.47,373.40L 172.87,373.80L 174.26,373.80L 175.66,373.40L 177.05,373.40L 178.45,373.40L 179.84,374.20L 181.24,374.20L 182.63,374.20L 184.03,374.20L 185.42,374.20L 186.82,374.60L 188.21,374.60L 189.61,374.60L 191.00,374.60L 192.40,374.60L 193.79,374.60L 195.19,374.60L 196.58,374.60L 197.98,374.60L 199.37,374.20L 200.77,374.20L 202.16,373.40L 203.56,373.40L 204.95,373.80L 206.35,373.40L 207.74,373.40L 209.14,373.80L 210.53,373.80L 211.93,374.60L 213.32,374.60L 214.72,374.20L 216.11,374.60L 217.51,374.20L 218.90,373.80L 220.30,373.40L 221.69,373.40L 223.09,373.40L 224.48,373.40L 225.88,373.00L 227.27,373.40L 228.67,373.40L 230.06,373.40L 231.46,373.40L 232.85,373.40L 234.25,373.00L 235.64,373.00L 237.04,372.60L 238.43,373.00L 239.83,373.40L 241.22,373.40L 242.62,373.40L 244.01,373.80L 245.41,374.20L 246.80,374.60L 248.20,374.60L 249.59,374.60L 250.99,374.60L 252.38,374.60L 253.78,374.60L 255.17,374.60L 256.57,373.80L 257.96,373.80L 259.36,373.40L 260.75,373.40L 262.15,371.80L 263.54,371.00L 264.94,369.00L 266.33,368.60L 267.73,367.80L 269.12,367.40L 270.52,367.00L 271.91,368.20L 273.31,368.60L 274.70,369.00L 276.10,369.80L 277.49,370.60L 278.89,371.00L 280.28,368.20L 281.68,366.60L 283.07,366.60L 284.47,367.80L 285.86,366.20L 287.26,364.99L 288.65,364.19L 290.05,367.40L 291.44,367.00L 292.84,366.60L 294.23,366.60L 295.63,367.80L 297.02,368.60L 298.42,369.40L 299.81,368.20L 301.21,370.60L 302.60,371.40L 304.00,371.80L 305.39,371.80L 306.79,371.00L 308.18,370.60L 309.58,371.00L 310.97,369.00L 312.37,367.40L 313.76,362.99L 315.16,361.79L 316.55,361.79L 317.95,360.59L 319.34,359.39L 320.74,359.39L 322.13,358.59L 323.53,359.39L 324.92,360.19L 326.32,356.59L 327.71,352.59L 329.11,352.19L 330.50,347.79L 331.90,347.79L 333.29,348.19L 334.69,340.18L 336.08,337.38L 337.48,337.78L 338.87,337.78L 340.27,341.38L 341.66,336.58L 343.06,333.78L 344.45,335.78L 345.85,339.78L 347.24,337.38L 348.64,332.98L 350.03,332.58L 351.43,331.78L 352.82,327.37L 354.22,323.77L 355.61,318.17L 357.01,316.57L 358.40,319.77L 359.80,315.77L 361.19,312.97L 362.59,312.17L 363.98,312.97L 365.38,313.37L 366.77,312.57L 368.17,310.56L 369.56,310.96L 370.96,312.17L 372.35,317.37L 373.75,321.37L 375.14,320.57L 376.54,322.57L 377.93,320.17L 379.33,319.37L 380.72,316.57L 382.12,309.76L 383.51,308.56L 384.91,309.36L 386.30,310.96L 387.70,311.77L 389.09,309.76L 390.49,317.77L 391.88,320.17L 393.28,319.37L 394.67,325.77L 396.07,326.17L 397.46,328.17L 398.86,332.18L 400.25,330.18L 401.65,333.38L 403.04,336.58L 404.44,336.58L 405.83,337.38L 407.23,340.98L 408.62,343.78L 410.02,342.18L 411.41,343.38L 412.81,341.78L 414.20,340.58L 415.60,338.58L 416.99,336.18L 418.39,332.18L 419.78,332.58L 421.18,330.58L 422.57,329.78L 423.97,314.97L 425.36,308.16L 426.76,302.56L 428.15,298.56L 429.55,287.35L 430.94,280.55L 432.34,265.34L 433.73,268.14L 435.13,252.93L 436.52,247.33L 437.92,236.52L 439.31,224.92L 440.71,198.90L 442.10,190.90L 443.50,184.50L 444.89,206.91L 446.29,184.10L 447.68,160.08L 449.08,149.28L 450.47,114.46L 451.87,79.24L 453.26,63.23L 454.66,30.41L 456.05,27.61L 457.45,27.21L 458.84,10.00L 460.24,35.21L 461.63,60.43L 463.03,73.23" id="New cases" class="line" stroke-width="1" stroke-linecap="round"><title>New cases</title></path>
	<circle cx="25.00" cy="373.60" data-y="0.40" data-x="1582588800" r="1" fill="white"><title>2020-02-25: 0</title></circle>
	<circle cx="26.39" cy="373.88" data-y="0.32" data-x="1582675200" r="1" fill="white"><title>2020-02-26: 0</title></circle>
	<circle cx="27.79" cy="374.07" data-y="0.26" data-x="1582761600" r="1" fill="white"><title>2020-02-27: 0</title></circle>
	<circle cx="29.18" cy="374.20" data-y="0.23" data-x="1582848000" r="1" fill="white"><title>2020-02-28: 0</title></circle>
	<circle cx="30.58" cy="374.60" data-y="0.11" data-x="1582934400" r="1" fill="white"><title>2020-02-29: 0</title></circle>
	<circle cx="31.97" cy="374.60" data-y="0.11" data-x="1583020800" r="1" fill="white"><title>2020-03-01: 0</title></circle>
	<circle cx="33.37" cy="374.60" data-y="0.11" data-x="1583107200" r="1" fill="white"><title>2020-03-02: 0</title></circle>
	<circle cx="34.76" cy="375.00" data-y="0.00" data-x="1583193600" r="1" fill="white"><title>2020-03-03: 0</title></circle>
	<circle cx="36.16" cy="375.00" data-y="0.00" data-x="1583280000" r="1" fill="white"><title>2020-03-04: 0</title></circle>
	<circle cx="37.55" cy="375.00" data-y="0.00" data-x="1583366400" r="1" fill="white"><title>2020-03-05: 0</title></circle>
	<circle cx="38.95" cy="375.00" data-y="0.00" data-x="1583452800" r="1" fill="white"><title>2020-03-06: 0</title></circle>
	<circle cx="40.34" cy="374.60" data-y="0.11" data-x="1583539200" r="1" fill="white"><title>2020-03-07: 0</title></circle>
	<circle cx="41.74" cy="374.60" data-y="0.11" data-x="1583625600" r="1" fill="white"><title>2020-03-08: 0</title></circle>
	<circle cx="43.13" cy="374.60" data-y="0.11" data-x="1583712000" r="1" fill="white"><title>2020-03-09: 0</title></circle>
	<circle cx="44.53" cy="374.20" data-y="0.23" data-x="1583798400" r="1" fill="white"><title>2020-03-10: 0</title></circle>
	<circle cx="45.92" cy="373.80" data-y="0.34" data-x="1583884800" r="1" fill="white"><title>2020-03-11: 0</title></circle>
	<circle cx="47.32" cy="373.40" data-y="0.45" data-x="1583971200" r="1" fill="white"><title>2020-03-12: 0</title></circle>
	<circle cx="48.71" cy="372.20" data-y="0.79" data-x="1584057600" r="1" fill="white"><title>2020-03-13: 1</title></circle>
	<circle cx="50.11" cy="370.20" data-y="1.36" data-x="1584144000" r="1" fill="white"><title>2020-03-14: 1</title></circle>
	<circle cx="51.50" cy="369.80" data-y="1.47" data-x="1584230400" r="1" fill="white"><title>2020-03-15: 1</title></circle>
	<circle cx="52.90" cy="368.20" data-y="1.93" data-x="1584316800" r="1" fill="white"><title>2020-03-16: 2</title></circle>
	<circle cx="54.29" cy="367.40" data-y="2.15" data-x="1584403200" r="1" fill="white"><title>2020-03-17: 2</title></circle>
	<circle cx="55.69" cy="366.60" data-y="2.38" data-x="1584489600" r="1" fill="white"><title>2020-03-18: 2</title></circle>
	<circle cx="57.08" cy="365.79" data-y="2.60" data-x="1584576000" r="1" fill="white"><title>2020-03-19: 3</title></circle>
	<circle cx="58.48" cy="365.79" data-y="2.60" data-x="1584662400" r="1" fill="white"><title>2020-03-20: 3</title></circle>
	<circle cx="59.87" cy="367.00" data-y="2.27" data-x="1584748800" r="1" fill="white"><title>2020-03-21: 2</title></circle>
	<circle cx="61.27" cy="366.20" data-y="2.49" data-x="1584835200" r="1" fill="white"><title>2020-03-22: 2</title></circle>
	<circle cx="62.66" cy="365.79" data-y="2.60" data-x="1584921600" r="1" fill="white"><title>2020-03-23: 3</title></circle>
	<circle cx="64.06" cy="365.79" data-y="2.60" data-x="1585008000" r="1" fill="white"><title>2020-03-24: 3</title></circle>
	<circle cx="65.45" cy="363.79" data-y="3.17" data-x="1585094400" r="1" fill="white"><title>2020-03-25: 3</title></circle>
	<circle cx="66.85" cy="361.79" data-y="3.74" data-x="1585180800" r="1" fill="white"><title>2020-03-26: 4</title></circle>
	<circle cx="68.24" cy="360.59" data-y="4.08" data-x="1585267200" r="1" fill="white"><title>2020-03-27: 4</title></circle>
	<circle cx="69.64" cy="360.19" data-y="4.19" data-x="1585353600" r="1" fill="white"><title>2020-03-28: 4</title></circle>
	<circle cx="71.03" cy="358.59" data-y="4.64" data-x="1585440000" r="1" fill="white"><title>2020-03-29: 5</title></circle>
	<circle cx="72.43" cy="358.19" data-y="4.76" data-x="1585526400" r="1" fill="white"><title>2020-03-30: 5</title></circle>
	<circle cx="73.82" cy="358.19" data-y="4.76" data-x="1585612800" r="1" fill="white"><title>2020-03-31: 5</title></circle>
	<circle cx="75.22" cy="360.19" data-y="4.19" data-x="1585699200" r="1" fill="white"><title>2020-04-01: 4</title></circle>
	<circle cx="76.61" cy="361.79" data-y="3.74" data-x="1585785600" r="1" fill="white"><title>2020-04-02: 4</title></circle>
	<circle cx="78.01" cy="363.39" data-y="3.28" data-x="1585872000" r="1" fill="white"><title>2020-04-03: 3</title></circle>
	<circle cx="79.40" cy="361.79" data-y="3.74" data-x="1585958400" r="1" fill="white"><title>2020-04-04: 4</title></circle>
	<circle cx="80.80" cy="363.39" data-y="3.28" data-x="1586044800" r="1" fill="white"><title>2020-04-05: 3</title></circle>
	<circle cx="82.19" cy="364.99" data-y="2.83" data-x="1586131200" r="1" fill="white"><title>2020-04-06: 3</title></circle>
	<circle cx="83.59" cy="360.59" data-y="4.08" data-x="1586217600" r="1" fill="white"><title>2020-04-07: 4</title></circle>
	<circle cx="84.98" cy="359.79" data-y="4.30" data-x="1586304000" r="1" fill="white"><title>2020-04-08: 4</title></circle>
	<circle cx="86.38" cy="357.39" data-y="4.98" data-x="1586390400" r="1" fill="white"><title>2020-04-09: 5</title></circle>
	<circle cx="87.77" cy="352.19" data-y="6.46" data-x="1586476800" r="1" fill="white"><title>2020-04-10: 6</title></circle>
	<circle cx="89.17" cy="352.19" data-y="6.46" data-x="1586563200" r="1" fill="white"><title>2020-04-11: 6</title></circle>
	<circle cx="90.56" cy="346.98" data-y="7.93" data-x="1586649600" r="1" fill="white"><title>2020-04-12: 8</title></circle>
	<circle cx="91.96" cy="342.98" data-y="9.06" data-x="1586736000" r="1" fill="white"><title>2020-04-13: 9</title></circle>
	<circle cx="93.35" cy="345.38" data-y="8.38" data-x="1586822400" r="1" fill="white"><title>2020-04-14: 8</title></circle>
	<circle cx="94.75" cy="343.78" data-y="8.83" data-x="1586908800" r="1" fill="white"><title>2020-04-15: 9</title></circle>
	<circle cx="96.14" cy="345.38" data-y="8.38" data-x="1586995200" r="1" fill="white"><title>2020-04-16: 8</title></circle>
	<circle cx="97.54" cy="346.18" data-y="8.15" data-x="1587081600" r="1" fill="white"><title>2020-04-17: 8</title></circle>
	<circle cx="98.93" cy="341.38" data-y="9.51" data-x="1587168000" r="1" fill="white"><title>2020-04-18: 10</title></circle>
	<circle cx="100.33" cy="343.38" data-y="8.95" data-x="1587254400" r="1" fill="white"><title>2020-04-19: 9</title></circle>
	<circle cx="101.72" cy="343.38" data-y="8.95" data-x="1587340800" r="1" fill="white"><title>2020-04-20: 9</title></circle>
	<circle cx="103.12" cy="340.98" data-y="9.63" data-x="1587427200" r="1" fill="white"><title>2020-04-21: 10</title></circle>
	<circle cx="104.51" cy="339.38" data-y="10.08" data-x="1587513600" r="1" fill="white"><title>2020-04-22: 10</title></circle>
	<circle cx="105.91" cy="339.78" data-y="9.97" data-x="1587600000" r="1" fill="white"><title>2020-04-23: 10</title></circle>
	<circle cx="107.30" cy="341.78" data-y="9.40" data-x="1587686400" r="1" fill="white"><title>2020-04-24: 9</title></circle>
	<circle cx="108.70" cy="345.78" data-y="8.27" data-x="1587772800" r="1" fill="white"><title>2020-04-25: 8</title></circle>
	<circle cx="110.09" cy="348.19" data-y="7.59" data-x="1587859200" r="1" fill="white"><title>2020-04-26: 8</title></circle>
	<circle cx="111.49" cy="350.19" data-y="7.02" data-x="1587945600" r="1" fill="white"><title>2020-04-27: 7</title></circle>
	<circle cx="112.88" cy="351.39" data-y="6.68" data-x="1588032000" r="1" fill="white"><title>2020-04-28: 7</title></circle>
	<circle cx="114.28" cy="353.39" data-y="6.12" data-x="1588118400" r="1" fill="white"><title>2020-04-29: 6</title></circle>
	<circle cx="115.67" cy="353.79" data-y="6.00" data-x="1588204800" r="1" fill="white"><title>2020-04-30: 6</title></circle>
	<circle cx="117.07" cy="354.59" data-y="5.78" data-x="1588291200" r="1" fill="white"><title>2020-05-01: 6</title></circle>
	<circle cx="118.46" cy="355.39" data-y="5.55" data-x="1588377600" r="1" fill="white"><title>2020-05-02: 6</title></circle>
	<circle cx="119.86" cy="356.19" data-y="5.32" data-x="1588464000" r="1" fill="white"><title>2020-05-03: 5</title></circle>
	<circle cx="121.25" cy="354.99" data-y="5.66" data-x="1588550400" r="1" fill="white"><title>2020-05-04: 6</title></circle>
	<circle cx="122.65" cy="356.59" data-y="5.21" data-x="1588636800" r="1" fill="white"><title>2020-05-05: 5</title></circle>
	<circle cx="124.04" cy="358.99" data-y="4.53" data-x="1588723200" r="1" fill="white"><title>2020-05-06: 5</title></circle>
	<circle cx="125.44" cy="360.19" data-y="4.19" data-x="1588809600" r="1" fill="white"><title>2020-05-07: 4</title></circle>
	<circle cx="126.83" cy="360.19" data-y="4.19" data-x="1588896000" r="1" fill="white"><title>2020-05-08: 4</title></circle>
	<circle cx="128.23" cy="359.39" data-y="4.42" data-x="1588982400" r="1" fill="white"><title>2020-05-09: 4</title></circle>
	<circle cx="129.62" cy="356.19" data-y="5.32" data-x="1589068800" r="1" fill="white"><title>2020-05-10: 5</title></circle>
	<circle cx="131.02" cy="358.99" data-y="4.53" data-x="1589155200" r="1" fill="white"><title>2020-05-11: 5</title></circle>
	<circle cx="132.41" cy="360.59" data-y="4.08" data-x="1589241600" r="1" fill="white"><title>2020-05-12: 4</title></circle>
	<circle cx="133.81" cy="360.99" data-y="3.96" data-x="1589328000" r="1" fill="white"><title>2020-05-13: 4</title></circle>
	<circle cx="135.20" cy="360.99" data-y="3.96" data-x="1589414400" r="1" fill="white"><title>2020-05-14: 4</title></circle>
	<circle cx="136.60" cy="362.99" data-y="3.40" data-x="1589500800" r="1" fill="white"><title>2020-05-15: 3</title></circle>
	<circle cx="137.99" cy="366.60" data-y="2.38" data-x="1589587200" r="1" fill="white"><title>2020-05-16: 2</title></circle>
	<circle cx="139.39" cy="369.40" data-y="1.59" data-x="1589673600" r="1" fill="white"><title>2020-05-17: 2</title></circle>
	<circle cx="140.78" cy="368.60" data-y="1.81" data-x="1589760000" r="1" fill="white"><title>2020-05-18: 2</title></circle>
	<circle cx="142.18" cy="368.60" data-y="1.81" data-x="1589846400" r="1" fill="white"><title>2020-05-19: 2</title></circle>
	<circle cx="143.57" cy="369.00" data-y="1.70" data-x="1589932800" r="1" fill="white"><title>2020-05-20: 2</title></circle>
	<circle cx="144.97" cy="369.40" data-y="1.59" data-x="1590019200" r="1" fill="white"><title>2020-05-21: 2</title></circle>
	<circle cx="146.36" cy="369.40" data-y="1.59" data-x="1590105600" r="1" fill="white"><title>2020-05-22: 2</title></circle>
	<circle cx="147.76" cy="369.80" data-y="1.47" data-x="1590192000" r="1" fill="white"><title>2020-05-23: 1</title></circle>
	<circle cx="149.15" cy="371.00" data-y="1.13" data-x="1590278400" r="1" fill="white"><title>2020-05-24: 1</title></circle>
	<circle cx="150.55" cy="371.80" data-y="0.91" data-x="1590364800" r="1" fill="white"><title>2020-05-25: 1</title></circle>
	<circle cx="151.94" cy="373.00" data-y="0.57" data-x="1590451200" r="1" fill="white"><title>2020-05-26: 1</title></circle>
	<circle cx="153.34" cy="372.20" data-y="0.79" data-x="1590537600" r="1" fill="white"><title>2020-05-27: 1</title></circle>
	<circle cx="154.73" cy="371.80" data-y="0.91" data-x="1590624000" r="1" fill="white"><title>2020-05-28: 1</title></circle>
	<circle cx="156.13" cy="371.80" data-y="0.91" data-x="1590710400" r="1" fill="white"><title>2020-05-29: 1</title></circle>
	<circle cx="157.52" cy="371.40" data-y="1.02" data-x="1590796800" r="1" fill="white"><title>2020-05-30: 1</title></circle>
	<circle cx="158.92" cy="371.80" data-y="0.91" data-x="1590883200" r="1" fill="white"><title>2020-05-31: 1</title></circle>
	<circle cx="160.31" cy="373.00" data-y="0.57" data-x="1590969600" r="1" fill="white"><title>2020-06-01: 1</title></circle>
	<circle cx="161.71" cy="372.60" data-y="0.68" data-x="1591056000" r="1" fill="white"><title>2020-06-02: 1</title></circle>
	<circle cx="163.10" cy="373.00" data-y="0.57" data-x="1591142400" r="1" fill="white"><title>2020-06-03: 1</title></circle>
	<circle cx="164.50" cy="373.40" data-y="0.45" data-x="1591228800" r="1" fill="white"><title>2020-06-04: 0</title></circle>
	<circle cx="165.89" cy="373.80" data-y="0.34" data-x="1591315200" r="1" fill="white"><title>2020-06-05: 0</title></circle>
	<circle cx="167.29" cy="373.80" data-y="0.34" data-x="1591401600" r="1" fill="white"><title>2020-06-06: 0</title></circle>
	<circle cx="168.68" cy="373.80" data-y="0.34" data-x="1591488000" r="1" fill="white"><title>2020-06-07: 0</title></circle>
	<circle cx="170.08" cy="373.00" data-y="0.57" data-x="1591574400" r="1" fill="white"><title>2020-06-08: 1</title></circle>
	<circle cx="171.47" cy="373.40" data-y="0.45" data-x="1591660800" r="1" fill="white"><title>2020-06-09: 0</title></circle>
	<circle cx="172.87" cy="373.80" data-y="0.34" data-x="1591747200" r="1" fill="white"><title>2020-06-10: 0</title></circle>
	<circle cx="174.26" cy="373.80" data-y="0.34" data-x="1591833600" r="1" fill="white"><title>2020-06-11: 0</title></circle>
	<circle cx="175.66" cy="373.40" data-y="0.45" data-x="1591920000" r="1" fill="white"><title>2020-06-12: 0</title></circle>
	<circle cx="177.05" cy="373.40" data-y="0.45" data-x="1592006400" r="1" fill="white"><title>2020-06-13: 0</title></circle>
	<circle cx="178.45" cy="373.40" data-y="0.45" data-x="1592092800" r="1" fill="white"><title>2020-06-14: 0</title></circle>
	<circle cx="179.84" cy="374.20" data-y="0.23" data-x="1592179200" r="1" fill="white"><title>2020-06-15: 0</title></circle>
	<circle cx="181.24" cy="374.20" data-y="0.23" data-x="1592265600" r="1" fill="white"><title>2020-06-16: 0</title></circle>
	<circle cx="182.63" cy="374.20" data-y="0.23" data-x="1592352000" r="1" fill="white"><title>2020-06-17: 0</title></circle>
	<circle cx="184.03" cy="374.20" data-y="0.23" data-x="1592438400" r="1" fill="white"><title>2020-06-18: 0</title></circle>
	<circle cx="185.42" cy="374.20" data-y="0.23" data-x="1592524800" r="1" fill="white"><title>2020-06-19: 0</title></circle>
	<circle cx="186.82" cy="374.60" data-y="0.11" data-x="1592611200" r="1" fill="white"><title>2020-06-20: 0</title></circle>
	<circle cx="188.21" cy="374.60" data-y="0.11" data-x="1592697600" r="1" fill="white"><title>2020-06-21: 0</title></circle>
	<circle cx="189.61" cy="374.60" data-y="0.11" data-x="1592784000" r="1" fill="white"><title>2020-06-22: 0</title></circle>
	<circle cx="191.00" cy="374.60" data-y="0.11" data-x="1592870400" r="1" fill="white"><title>2020-06-23: 0</title></circle>
	<circle cx="192.40" cy="374.60" data-y="0.11" data-x="1592956800" r="1" fill="white"><title>2020-06-24: 0</title></circle>
	<circle cx="193.79" cy="374.60" data-y="0.11" data-x="1593043200" r="1" fill="white"><title>2020-06-25: 0</title></circle>
	<circle cx="195.19" cy="374.60" data-y="0.11" data-x="1593129600" r="1" fill="white"><title>2020-06-26: 0</title></circle>
	<circle cx="196.58" cy="374.60" data-y="0.11" data-x="1593216000" r="1" fill="white"><title>2020-06-27: 0</title></circle>
	<circle cx="197.98" cy="374.60" data-y="0.11" data-x="1593302400" r="1" fill="white"><title>2020-06-28: 0</title></circle>
	<circle cx="199.37" cy="374.20" data-y="0.23" data-x="1593388800" r="1" fill="white"><title>2020-06-29: 0</title></circle>
	<circle cx="200.77" cy="374.20" data-y="0.23" data-x="1593475200" r="1" fill="white"><title>2020-06-30: 0</title></circle>
	<circle cx="202.16" cy="373.40" data-y="0.45" data-x="1593561600" r="1" fill="white"><title>2020-07-01: 0</title></circle>
	<circle cx="203.56" cy="373.40" data-y="0.45" data-x="1593648000" r="1" fill="white"><title>2020-07-02: 0</title></circle>
	<circle cx="204.95" cy="373.80" data-y="0.34" data-x="1593734400" r="1" fill="white"><title>2020-07-03: 0</title></circle>
	<circle cx="206.35" cy="373.40" data-y="0.45" data-x="1593820800" r="1" fill="white"><title>2020-07-04: 0</title></circle>
	<circle cx="207.74" cy="373.40" data-y="0.45" data-x="1593907200" r="1" fill="white"><title>2020-07-05: 0</title></circle>
	<circle cx="209.14" cy="373.80" data-y="0.34" data-x="1593993600" r="1" fill="white"><title>2020-07-06: 0</title></circle>
	<circle cx="210.53" cy="373.80" data-y="0.34" data-x="1594080000" r="1" fill="white"><title>2020-07-07: 0</title></circle>
	<circle cx="211.93" cy="374.60" data-y="0.11" data-x="1594166400" r="1" fill="white"><title>2020-07-08: 0</title></circle>
	<circle cx="213.32" cy="374.60" data-y="0.11" data-x="1594252800" r="1" fill="white"><title>2020-07-09: 0</title></circle>
	<circle cx="214.72" cy="374.20" data-y="0.23" data-x="1594339200" r="1" fill="white"><title>2020-07-10: 0</title></circle>
	<circle cx="216.11" cy="374.60" data-y="0.11" data-x="1594425600" r="1" fill="white"><title>2020-07-11: 0</title></circle>
	<circle cx="217.51" cy="374.20" data-y="0.23" data-x="1594512000" r="1" fill="white"><title>2020-07-12: 0</title></circle>
	<circle cx="218.90" cy="373.80" data-y="0.34" data-x="1594598400" r="1" fill="white"><title>2020-07-13: 0</title></circle>
	<circle cx="220.30" cy="373.40" data-y="0.45" data-x="1594684800" r="1" fill="white"><title>2020-07-14: 0</title></circle>
	<circle cx="221.69" cy="373.40" data-y="0.45" data-x="1594771200" r="1" fill="white"><title>2020-07-15: 0</title></circle>
	<circle cx="223.09" cy="373.40" data-y="0.45" data-x="1594857600" r="1" fill="white"><title>2020-07-16: 0</title></circle>
	<circle cx="224.48" cy="373.40" data-y="0.45" data-x="1594944000" r="1" fill="white"><title>2020-07-17: 0</title></circle>
	<circle cx="225.88" cy="373.00" data-y="0.57" data-x="1595030400" r="1" fill="white"><title>2020-07-18: 1</title></circle>
	<circle cx="227.27" cy="373.40" data-y="0.45" data-x="1595116800" r="1" fill="white"><title>2020-07-19: 0</title></circle>
	<circle cx="228.67" cy="373.40" data-y="0.45" data-x="1595203200" r="1" fill="white"><title>2020-07-20: 0</title></circle>
	<circle cx="230.06" cy="373.40" data-y="0.45" data-x="1595289600" r="1" fill="white"><title>2020-07-21: 0</title></circle>
	<circle cx="231.46" cy="373.40" data-y="0.45" data-x="1595376000" r="1" fill="white"><title>2020-07-22: 0</title></circle>
	<circle cx="232.85" cy="373.40" data-y="0.45" data-x="1595462400" r="1" fill="white"><title>2020-07-23: 0</title></circle>
	<circle cx="234.25" cy="373.00" data-y="0.57" data-x="1595548800" r="1" fill="white"><title>2020-07-24: 1</title></circle>
	<circle cx="235.64" cy="373.00" data-y="0.57" data-x="1595635200" r="1" fill="white"><title>2020-07-25: 1</title></circle>
	<circle cx="237.04" cy="372.60" data-y="0.68" data-x="1595721600" r="1" fill="white"><title>2020-07-26: 1</title></circle>
	<circle cx="238.43" cy="373.00" data-y="0.57" data-x="1595808000" r="1" fill="white"><title>2020-07-27: 1</title></circle>
	<circle cx="239.83" cy="373.40" data-y="0.45" data-x="1595894400" r="1" fill="white"><title>2020-07-28: 0</title></circle>
	<circle cx="241.22" cy="373.40" data-y="0.45" data-x="1595980800" r="1" fill="white"><title>2020-07-29: 0</title></circle>
	<circle cx="242.62" cy="373.40" data-y="0.45" data-x="1596067200" r="1" fill="white"><title>2020-07-30: 0</title></circle>
	<circle cx="244.01" cy="373.80" data-y="0.34" data-x="1596153600" r="1" fill="white"><title>2020-07-31: 0</title></circle>
	<circle cx="245.41" cy="374.20" data-y="0.23" data-x="1596240000" r="1" fill="white"><title>2020-08-01: 0</title></circle>
	<circle cx="246.80" cy="374.60" data-y="0.11" data-x="1596326400" r="1" fill="white"><title>2020-08-02: 0</title></circle>
	<circle cx="248.20" cy="374.60" data-y="0.11" data-x="1596412800" r="1" fill="white"><title>2020-08-03: 0</title></circle>
	<circle cx="249.59" cy="374.60" data-y="0.11" data-x="1596499200" r="1" fill="white"><title>2020-08-04: 0</title></circle>
	<circle cx="250.99" cy="374.60" data-y="0.11" data-x="1596585600" r="1" fill="white"><title>2020-08-05: 0</title></circle>
	<circle cx="252.38" cy="374.60" data-y="0.11" data-x="1596672000" r="1" fill="white"><title>2020-08-06: 0</title></circle>
	<circle cx="253.78" cy="374.60" data-y="0.11" data-x="1596758400" r="1" fill="white"><title>2020-08-07: 0</title></circle>
	<circle cx="255.17" cy="374.60" data-y="0.11" data-x="1596844800" r="1" fill="white"><title>2020-08-08: 0</title></circle>
	<circle cx="256.57" cy="373.80" data-y="0.34" data-x="1596931200" r="1" fill="white"><title>2020-08-09: 0</title></circle>
	<circle cx="257.96" cy="373.80" data-y="0.34" data-x="1597017600" r="1" fill="white"><title>2020-08-10: 0</title></circle>
	<circle cx="259.36" cy="373.40" data-y="0.45" data-x="1597104000" r="1" fill="white"><title>2020-08-11: 0</title></circle>
	<circle cx="260.75" cy="373.40" data-y="0.45" data-x="1597190400" r="1" fill="white"><title>2020-08-12: 0</title></circle>
	<circle cx="262.15" cy="371.80" data-y="0.91" data-x="1597276800" r="1" fill="white"><title>2020-08-13: 1</title></circle>
	<circle cx="263.54" cy="371.00" data-y="1.13" data-x="1597363200" r="1" fill="white"><title>2020-08-14: 1</title></circle>
	<circle cx="264.94" cy="369.00" data-y="1.70" data-x="1597449600" r="1" fill="white"><title>2020-08-15: 2</title></circle>
	<circle cx="266.33" cy="368.60" data-y="1.81" data-x="1597536000" r="1" fill="white"><title>2020-08-16: 2</title></circle>
	<circle cx="267.73" cy="367.80" data-y="2.04" data-x="1597622400" r="1" fill="white"><title>2020-08-17: 2</title></circle>
	<circle cx="269.12" cy="367.40" data-y="2.15" data-x="1597708800" r="1" fill="white"><title>2020-08-18: 2</title></circle>
	<circle cx="270.52" cy="367.00" data-y="2.27" data-x="1597795200" r="1" fill="white"><title>2020-08-19: 2</title></circle>
	<circle cx="271.91" cy="368.20" data-y="1.93" data-x="1597881600" r="1" fill="white"><title>2020-08-20: 2</title></circle>
	<circle cx="273.31" cy="368.60" data-y="1.81" data-x="1597968000" r="1" fill="white"><title>2020-08-21: 2</title></circle>
	<circle cx="274.70" cy="369.00" data-y="1.70" data-x="1598054400" r="1" fill="white"><title>2020-08-22: 2</title></circle>
	<circle cx="276.10" cy="369.80" data-y="1.47" data-x="1598140800" r="1" fill="white"><title>2020-08-23: 1</title></circle>
	<circle cx="277.49" cy="370.60" data-y="1.25" data-x="1598227200" r="1" fill="white"><title>2020-08-24: 1</title></circle>
	<circle cx="278.89" cy="371.00" data-y="1.13" data-x="1598313600" r="1" fill="white"><title>2020-08-25: 1</title></circle>
	<circle cx="280.28" cy="368.20" data-y="1.93" data-x="1598400000" r="1" fill="white"><title>2020-08-26: 2</title></circle>
	<circle cx="281.68" cy="366.60" data-y="2.38" data-x="1598486400" r="1" fill="white"><title>2020-08-27: 2</title></circle>
	<circle cx="283.07" cy="366.60" data-y="2.38" data-x="1598572800" r="1" fill="white"><title>2020-08-28: 2</title></circle>
	<circle cx="284.47" cy="367.80" data-y="2.04" data-x="1598659200" r="1" fill="white"><title>2020-08-29: 2</title></circle>
	<circle cx="285.86" cy="366.20" data-y="2.49" data-x="1598745600" r="1" fill="white"><title>2020-08-30: 2</title></circle>
	<circle cx="287.26" cy="364.99" data-y="2.83" data-x="1598832000" r="1" fill="white"><title>2020-08-31: 3</title></circle>
	<circle cx="288.65" cy="364.19" data-y="3.06" data-x="1598918400" r="1" fill="white"><title>2020-09-01: 3</title></circle>
	<circle cx="290.05" cy="367.40" data-y="2.15" data-x="1599004800" r="1" fill="white"><title>2020-09-02: 2</title></circle>
	<circle cx="291.44" cy="367.00" data-y="2.27" data-x="1599091200" r="1" fill="white"><title>2020-09-03: 2</title></circle>
	<circle cx="292.84" cy="366.60" data-y="2.38" data-x="1599177600" r="1" fill="white"><title>2020-09-04: 2</title></circle>
	<circle cx="294.23" cy="366.60" data-y="2.38" data-x="1599264000" r="1" fill="white"><title>2020-09-05: 2</title></circle>
	<circle cx="295.63" cy="367.80" data-y="2.04" data-x="1599350400" r="1" fill="white"><title>2020-09-06: 2</title></circle>
	<circle cx="297.02" cy="368.60" data-y="1.81" data-x="1599436800" r="1" fill="white"><title>2020-09-07: 2</title></circle>
	<circle cx="298.42" cy="369.40" data-y="1.59" data-x="1599523200" r="1" fill="white"><title>2020-09-08: 2</title></circle>
	<circle cx="299.81" cy="368.20" data-y="1.93" data-x="1599609600" r="1" fill="white"><title>2020-09-09: 2</title></circle>
	<circle cx="301.21" cy="370.60" data-y="1.25" data-x="1599696000" r="1" fill="white"><title>2020-09-10: 1</title></circle>
	<circle cx="302.60" cy="371.40" data-y="1.02" data-x="1599782400" r="1" fill="white"><title>2020-09-11: 1</title></circle>
	<circle cx="304.00" cy="371.80" data-y="0.91" data-x="1599868800" r="1" fill="white"><title>2020-09-12: 1</title></circle>
	<circle cx="305.39" cy="371.80" data-y="0.91" data-x="1599955200" r="1" fill="white"><title>2020-09-13: 1</title></circle>
	<circle cx="306.79" cy="371.00" data-y="1.13" data-x="1600041600" r="1" fill="white"><title>2020-09-14: 1</title></circle>
	<circle cx="308.18" cy="370.60" data-y="1.25" data-x="1600128000" r="1" fill="white"><title>2020-09-15: 1</title></circle>
	<circle cx="309.58" cy="371.00" data-y="1.13" data-x="1600214400" r="1" fill="white"><title>2020-09-16: 1</title></circle>
	<circle cx="310.97" cy="369.00" data-y="1.70" data-x="1600300800" r="1" fill="white"><title>2020-09-17: 2</title></circle>
	<circle cx="312.37" cy="367.40" data-y="2.15" data-x="1600387200" r="1" fill="white"><title>2020-09-18: 2</title></circle>
	<circle cx="313.76" cy="362.99" data-y="3.40" data-x="1600473600" r="1" fill="white"><title>2020-09-19: 3</title></circle>
	<circle cx="315.16" cy="361.79" data-y="3.74" data-x="1600560000" r="1" fill="white"><title>2020-09-20: 4</title></circle>
	<circle cx="316.55" cy="361.79" data-y="3.74" data-x="1600646400" r="1" fill="white"><title>2020-09-21: 4</title></circle>
	<circle cx="317.95" cy="360.59" data-y="4.08" data-x="1600732800" r="1" fill="white"><title>2020-09-22: 4</title></circle>
	<circle cx="319.34" cy="359.39" data-y="4.42" data-x="1600819200" r="1" fill="white"><title>2020-09-23: 4</title></circle>
	<circle cx="320.74" cy="359.39" data-y="4.42" data-x="1600905600" r="1" fill="white"><title>2020-09-24: 4</title></circle>
	<circle cx="322.13" cy="358.59" data-y="4.64" data-x="1600992000" r="1" fill="white"><title>2020-09-25: 5</title></circle>
	<circle cx="323.53" cy="359.39" data-y="4.42" data-x="1601078400" r="1" fill="white"><title>2020-09-26: 4</title></circle>
	<circle cx="324.92" cy="360.19" data-y="4.19" data-x="1601164800" r="1" fill="white"><title>2020-09-27: 4</title></circle>
	<circle cx="326.32" cy="356.59" data-y="5.21" data-x="1601251200" r="1" fill="white"><title>2020-09-28: 5</title></circle>
	<circle cx="327.71" cy="352.59" data-y="6.34" data-x="1601337600" r="1" fill="white"><title>2020-09-29: 6</title></circle>
	<circle cx="329.11" cy="352.19" data-y="6.46" data-x="1601424000" r="1" fill="white"><title>2020-09-30: 6</title></circle>
	<circle cx="330.50" cy="347.79" data-y="7.70" data-x="1601510400" r="1" fill="white"><title>2020-10-01: 8</title></circle>
	<circle cx="331.90" cy="347.79" data-y="7.70" data-x="1601596800" r="1" fill="white"><title>2020-10-02: 8</title></circle>
	<circle cx="333.29" cy="348.19" data-y="7.59" data-x="1601683200" r="1" fill="white"><title>2020-10-03: 8</title></circle>
	<circle cx="334.69" cy="340.18" data-y="9.85" data-x="1601769600" r="1" fill="white"><title>2020-10-04: 10</title></circle>
	<circle cx="336.08" cy="337.38" data-y="10.65" data-x="1601856000" r="1" fill="white"><title>2020-10-05: 11</title></circle>
	<circle cx="337.48" cy="337.78" data-y="10.53" data-x="1601942400" r="1" fill="white"><title>2020-10-06: 11</title></circle>
	<circle cx="338.87" cy="337.78" data-y="10.53" data-x="1602028800" r="1" fill="white"><title>2020-10-07: 11</title></circle>
	<circle cx="340.27" cy="341.38" data-y="9.51" data-x="1602115200" r="1" fill="white"><title>2020-10-08: 10</title></circle>
	<circle cx="341.66" cy="336.58" data-y="10.87" data-x="1602201600" r="1" fill="white"><title>2020-10-09: 11</title></circle>
	<circle cx="343.06" cy="333.78" data-y="11.67" data-x="1602288000" r="1" fill="white"><title>2020-10-10: 12</title></circle>
	<circle cx="344.45" cy="335.78" data-y="11.10" data-x="1602374400" r="1" fill="white"><title>2020-10-11: 11</title></circle>
	<circle cx="345.85" cy="339.78" data-y="9.97" data-x="1602460800" r="1" fill="white"><title>2020-10-12: 10</title></circle>
	<circle cx="347.24" cy="337.38" data-y="10.65" data-x="1602547200" r="1" fill="white"><title>2020-10-13: 11</title></circle>
	<circle cx="348.64" cy="332.98" data-y="11.89" data-x="1602633600" r="1" fill="white"><title>2020-10-14: 12</title></circle>
	<circle cx="350.03" cy="332.58" data-y="12.01" data-x="1602720000" r="1" fill="white"><title>2020-10-15: 12</title></circle>
	<circle cx="351.43" cy="331.78" data-y="12.23" data-x="1602806400" r="1" fill="white"><title>2020-10-16: 12</title></circle>
	<circle cx="352.82" cy="327.37" data-y="13.48" data-x="1602892800" r="1" fill="white"><title>2020-10-17: 13</title></circle>
	<circle cx="354.22" cy="323.77" data-y="14.50" data-x="1602979200" r="1" fill="white"><title>2020-10-18: 14</title></circle>
	<circle cx="355.61" cy="318.17" data-y="16.08" data-x="1603065600" r="1" fill="white"><title>2020-10-19: 16</title></circle>
	<circle cx="357.01" cy="316.57" data-y="16.54" data-x="1603152000" r="1" fill="white"><title>2020-10-20: 17</title></circle>
	<circle cx="358.40" cy="319.77" data-y="15.63" data-x="1603238400" r="1" fill="white"><title>2020-10-21: 16</title></circle>
	<circle cx="359.80" cy="315.77" data-y="16.76" data-x="1603324800" r="1" fill="white"><title>2020-10-22: 17</title></circle>
	<circle cx="361.19" cy="312.97" data-y="17.55" data-x="1603411200" r="1" fill="white"><title>2020-10-23: 18</title></circle>
	<circle cx="362.59" cy="312.17" data-y="17.78" data-x="1603497600" r="1" fill="white"><title>2020-10-24: 18</title></circle>
	<circle cx="363.98" cy="312.97" data-y="17.55" data-x="1603584000" r="1" fill="white"><title>2020-10-25: 18</title></circle>
	<circle cx="365.38" cy="313.37" data-y="17.44" data-x="1603670400" r="1" fill="white"><title>2020-10-26: 17</title></circle>
	<circle cx="366.77" cy="312.57" data-y="17.67" data-x="1603756800" r="1" fill="white"><title>2020-10-27: 18</title></circle>
	<circle cx="368.17" cy="310.56" data-y="18.23" data-x="1603843200" r="1" fill="white"><title>2020-10-28: 18</title></circle>
	<circle cx="369.56" cy="310.96" data-y="18.12" data-x="1603929600" r="1" fill="white"><title>2020-10-29: 18</title></circle>
	<circle cx="370.96" cy="312.17" data-y="17.78" data-x="1604016000" r="1" fill="white"><title>2020-10-30: 18</title></circle>
	<circle cx="372.35" cy="317.37" data-y="16.31" data-x="1604102400" r="1" fill="white"><title>2020-10-31: 16</title></circle>
	<circle cx="373.75" cy="321.37" data-y="15.18" data-x="1604188800" r="1" fill="white"><title>2020-11-01: 15</title></circle>
	<circle cx="375.14" cy="320.57" data-y="15.40" data-x="1604275200" r="1" fill="white"><title>2020-11-02: 15</title></circle>
	<circle cx="376.54" cy="322.57" data-y="14.84" data-x="1604361600" r="1" fill="white"><title>2020-11-03: 15</title></circle>
	<circle cx="377.93" cy="320.17" data-y="15.52" data-x="1604448000" r="1" fill="white"><title>2020-11-04: 16</title></circle>
	<circle cx="379.33" cy="319.37" data-y="15.74" data-x="1604534400" r="1" fill="white"><title>2020-11-05: 16</title></circle>
	<circle cx="380.72" cy="316.57" data-y="16.54" data-x="1604620800" r="1" fill="white"><title>2020-11-06: 17</title></circle>
	<circle cx="382.12" cy="309.76" data-y="18.46" data-x="1604707200" r="1" fill="white"><title>2020-11-07: 18</title></circle>
	<circle cx="383.51" cy="308.56" data-y="18.80" data-x="1604793600" r="1" fill="white"><title>2020-11-08: 19</title></circle>
	<circle cx="384.91" cy="309.36" data-y="18.57" data-x="1604880000" r="1" fill="white"><title>2020-11-09: 19</title></circle>
	<circle cx="386.30" cy="310.96" data-y="18.12" data-x="1604966400" r="1" fill="white"><title>2020-11-10: 18</title></circle>
	<circle cx="387.70" cy="311.77" data-y="17.89" data-x="1605052800" r="1" fill="white"><title>2020-11-11: 18</title></circle>
	<circle cx="389.09" cy="309.76" data-y="18.46" data-x="1605139200" r="1" fill="white"><title>2020-11-12: 18</title></circle>
	<circle cx="390.49" cy="317.77" data-y="16.20" data-x="1605225600" r="1" fill="white"><title>2020-11-13: 16</title></circle>
	<circle cx="391.88" cy="320.17" data-y="15.52" data-x="1605312000" r="1" fill="white"><title>2020-11-14: 16</title></circle>
	<circle cx="393.28" cy="319.37" data-y="15.74" data-x="1605398400" r="1" fill="white"><title>2020-11-15: 16</title></circle>
	<circle cx="394.67" cy="325.77" data-y="13.93" data-x="1605484800" r="1" fill="white"><title>2020-11-16: 14</title></circle>
	<circle cx="396.07" cy="326.17" data-y="13.82" data-x="1605571200" r="1" fill="white"><title>2020-11-17: 14</title></circle>
	<circle cx="397.46" cy="328.17" data-y="13.25" data-x="1605657600" r="1" fill="white"><title>2020-11-18: 13</title></circle>
	<circle cx="398.86" cy="332.18" data-y="12.12" data-x="1605744000" r="1" fill="white"><title>2020-11-19: 12</title></circle>
	<circle cx="400.25" cy="330.18" data-y="12.68" data-x="1605830400" r="1" fill="white"><title>2020-11-20: 13</title></circle>
	<circle cx="401.65" cy="333.38" data-y="11.78" data-x="1605916800" r="1" fill="white"><title>2020-11-21: 12</title></circle>
	<circle cx="403.04" cy="336.58" data-y="10.87" data-x="1606003200" r="1" fill="white"><title>2020-11-22: 11</title></circle>
	<circle cx="404.44" cy="336.58" data-y="10.87" data-x="1606089600" r="1" fill="white"><title>2020-11-23: 11</title></circle>
	<circle cx="405.83" cy="337.38" data-y="10.65" data-x="1606176000" r="1" fill="white"><title>2020-11-24: 11</title></circle>
	<circle cx="407.23" cy="340.98" data-y="9.63" data-x="1606262400" r="1" fill="white"><title>2020-11-25: 10</title></circle>
	<circle cx="408.62" cy="343.78" data-y="8.83" data-x="1606348800" r="1" fill="white"><title>2020-11-26: 9</title></circle>
	<circle cx="410.02" cy="342.18" data-y="9.29" data-x="1606435200" r="1" fill="white"><title>2020-11-27: 9</title></circle>
	<circle cx="411.41" cy="343.38" data-y="8.95" data-x="1606521600" r="1" fill="white"><title>2020-11-28: 9</title></circle>
	<circle cx="412.81" cy="341.78" data-y="9.40" data-x="1606608000" r="1" fill="white"><title>2020-11-29: 9</title></circle>
	<circle cx="414.20" cy="340.58" data-y="9.74" data-x="1606694400" r="1" fill="white"><title>2020-11-30: 10</title></circle>
	<circle cx="415.60" cy="338.58" data-y="10.31" data-x="1606780800" r="1" fill="white"><title>2020-12-01: 10</title></circle>
	<circle cx="416.99" cy="336.18" data-y="10.99" data-x="1606867200" r="1" fill="white"><title>2020-12-02: 11</title></circle>
	<circle cx="418.39" cy="332.18" data-y="12.12" data-x="1606953600" r="1" fill="white"><title>2020-12-03: 12</title></circle>
	<circle cx="419.78" cy="332.58" data-y="12.01" data-x="1607040000" r="1" fill="white"><title>2020-12-04: 12</title></circle>
	<circle cx="421.18" cy="330.58" data-y="12.57" data-x="1607126400" r="1" fill="white"><title>2020-12-05: 13</title></circle>
	<circle cx="422.57" cy="329.78" data-y="12.80" data-x="1607212800" r="1" fill="white"><title>2020-12-06: 13</title></circle>
	<circle cx="423.97" cy="314.97" data-y="16.99" data-x="1607299200" r="1" fill="white"><title>2020-12-07: 17</title></circle>
	<circle cx="425.36" cy="308.16" data-y="18.91" data-x="1607385600" r="1" fill="white"><title>2020-12-08: 19</title></circle>
	<circle cx="426.76" cy="302.56" data-y="20.50" data-x="1607472000" r="1" fill="white"><title>2020-12-09: 20</title></circle>
	<circle cx="428.15" cy="298.56" data-y="21.63" data-x="1607558400" r="1" fill="white"><title>2020-12-10: 22</title></circle>
	<circle cx="429.55" cy="287.35" data-y="24.80" data-x="1607644800" r="1" fill="white"><title>2020-12-11: 25</title></circle>
	<circle cx="430.94" cy="280.55" data-y="26.73" data-x="1607731200" r="1" fill="white"><title>2020-12-12: 27</title></circle>
	<circle cx="432.34" cy="265.34" data-y="31.03" data-x="1607817600" r="1" fill="white"><title>2020-12-13: 31</title></circle>
	<circle cx="433.73" cy="268.14" data-y="30.24" data-x="1607904000" r="1" fill="white"><title>2020-12-14: 30</title></circle>
	<circle cx="435.13" cy="252.93" data-y="34.54" data-x="1607990400" r="1" fill="white"><title>2020-12-15: 35</title></circle>
	<circle cx="436.52" cy="247.33" data-y="36.13" data-x="1608076800" r="1" fill="white"><title>2020-12-16: 36</title></circle>
	<circle cx="437.92" cy="236.52" data-y="39.19" data-x="1608163200" r="1" fill="white"><title>2020-12-17: 39</title></circle>
	<circle cx="439.31" cy="224.92" data-y="42.47" data-x="1608249600" r="1" fill="white"><title>2020-12-18: 42</title></circle>
	<circle cx="440.71" cy="198.90" data-y="49.83" data-x="1608336000" r="1" fill="white"><title>2020-12-19: 50</title></circle>
	<circle cx="442.10" cy="190.90" data-y="52.10" data-x="1608422400" r="1" fill="white"><title>2020-12-20: 52</title></circle>
	<circle cx="443.50" cy="184.50" data-y="53.91" data-x="1608508800" r="1" fill="white"><title>2020-12-21: 54</title></circle>
	<circle cx="444.89" cy="206.91" data-y="47.57" data-x="1608595200" r="1" fill="white"><title>2020-12-22: 48</title></circle>
	<circle cx="446.29" cy="184.10" data-y="54.02" data-x="1608681600" r="1" fill="white"><title>2020-12-23: 54</title></circle>
	<circle cx="447.68" cy="160.08" data-y="60.82" data-x="1608768000" r="1" fill="white"><title>2020-12-24: 61</title></circle>
	<circle cx="449.08" cy="149.28" data-y="63.88" data-x="1608854400" r="1" fill="white"><title>2020-12-25: 64</title></circle>
	<circle cx="450.47" cy="114.46" data-y="73.73" data-x="1608940800" r="1" fill="white"><title>2020-12-26: 74</title></circle>
	<circle cx="451.87" cy="79.24" data-y="83.70" data-x="1609027200" r="1" fill="white"><title>2020-12-27: 84</title></circle>
	<circle cx="453.26" cy="63.23" data-y="88.23" data-x="1609113600" r="1" fill="white"><title>2020-12-28: 88</title></circle>
	<circle cx="454.66" cy="30.41" data-y="97.51" data-x="1609200000" r="1" fill="white"><title>2020-12-29: 98</title></circle>
	<circle cx="456.05" cy="27.61" data-y="98.31" data-x="1609286400" r="1" fill="white"><title>2020-12-30: 98</title></circle>
	<circle cx="457.45" cy="27.21" data-y="98.42" data-x="1609372800" r="1" fill="white"><title>2020-12-31: 98</title></circle>
	<circle cx="458.84" cy="10.00" data-y="103.29" data-x="1609459200" r="1" fill="white"><title>2021-01-01: 103</title></circle>
	<circle cx="460.24" cy="35.21" data-y="96.15" data-x="1609545600" r="1" fill="white"><title>2021-01-02: 96</title></circle>
	<circle cx="461.63" cy="60.43" data-y="89.02" data-x="1609632000" r="1" fill="white"><title>2021-01-03: 89</title></circle>
	<circle cx="463.03" cy="73.23" data-y="85.39" data-x="1609718400" r="1" fill="white"><title>2021-01-04: 85</title></circle>
</g>
<g data-series="recent-cases" class="data-series">
	<path d="M 463.03,73.23L 464.42,96.45L 465.82,136.47L 467.21,150.41L 468.61,187.86L 470.00,229.32" id="Recent cases" class="line" stroke-width="1" stroke-linecap="round" stroke-dasharray="4,6" stroke-dashoffset="4"><title>Recent cases</title></path>
	<circle cx="463.03" cy="73.23" data-y="85.39" data-x="1609718400" r="2.5" fill="white"><title>2021-01-04: 85</title></circle>
	<circle cx="464.42" cy="96.45" data-y="78.83" data-x="1609804800" r="2.5" fill="white"><title>2021-01-05: 79</title></circle>
	<circle cx="465.82" cy="136.47" data-y="67.50" data-x="1609891200" r="2.5" fill="white"><title>2021-01-06: 68</title></circle>
	<circle cx="467.21" cy="150.41" data-y="63.56" data-x="1609977600" r="2.5" fill="white"><title>2021-01-07: 64</title></circle>
	<circle cx="468.61" cy="187.86" data-y="52.96" data-x="1610064000" r="2.5" fill="white"><title>2021-01-08: 53</title></circle>
	<circle cx="470.00" cy="229.32" data-y="41.23" data-x="1610150400" r="2.5" fill="white"><title>2021-01-09: 41</title></circle>
</g>
</svg>
