<svg width="480" height="400" viewBox="0 0 480 400" xmlns="http://www.w3.org/2000/svg" style="overflow:display" preserveAspectRatio="xMinYMin meet" overflow="visible">
<defs>
	<style>
	.data-series path.line { fill-opacity: 0; stroke: black; }
	.data-series path.line.dotted { stroke-dasharray: 12 20 }
	.data-series circle { display: none; }
	.data-series:hover path.line, .data-series.on path.line { stroke-width: 1; }
	.data-series:hover circle, .data-series.on circle { display: inline; }
	.data-series circle:hover, .data-series circle.on { r: 1px!important; }
	.graph-grid { font-family: "Helvetica Neue",Helvetica,Arial,"Lucida Grande",sans-serif; }
	.graph-grid line { stroke: black; stroke-width: 1; stroke-linecap: round; }
	.graph-grid.graph-grid-x text { text-anchor: middle; dominant-baseline: hanging; transform: translateY(10px); }
	.graph-grid.graph-grid-y text { text-anchor: end; dominant-baseline: middle; transform: translateX(-10px); }
	</style>
</defs>
<g class="graph-grid graph-grid-y">
	<line x1="15.00" y1="375.00" x2="470.00" y2="375.00" data-left="15"></line>
	<text x="25" y="375" text-anchor="end">0</text>
	<text x="25" y="248.630787234043" text-anchor="end">10</text>
	<text x="25" y="122.261574468085" text-anchor="end">20</text>
	<text style="text-anchor:middle;dominant-baseline:hanging;font-weight:bold;transform: translateY(192.5px) rotate(-90deg);"></text>
</g>
<g class="graph-grid graph-grid-x">
	<line class="tick" x1="67.81" y1="375.00" x2="67.81" y2="380.00"></line>
	<text x="67.8125" y="375" text-anchor="middle">A</text>
	<line class="tick" x1="128.75" y1="375.00" x2="128.75" y2="380.00"></line>
	<text x="128.75" y="375" text-anchor="middle">M</text>
	<line class="tick" x1="191.72" y1="375.00" x2="191.72" y2="380.00"></line>
	<text x="191.71875" y="375" text-anchor="middle">J</text>
	<line class="tick" x1="252.66" y1="375.00" x2="252.66" y2="380.00"></line>
	<text x="252.65625" y="375" text-anchor="middle">J</text>
	<line class="tick" x1="315.62" y1="375.00" x2="315.62" y2="380.00"></line>
	<text x="315.625" y="375" text-anchor="middle">A</text>
	<line class="tick" x1="378.59" y1="375.00" x2="378.59" y2="380.00"></line>
	<text x="378.59375" y="375" text-anchor="middle">S</text>
	<line class="tick" x1="439.53" y1="375.00" x2="439.53" y2="380.00"></line>
	<text x="439.53125" y="375" text-anchor="middle">O</text>
	<text style="text-anchor:middle;dominant-baseline:hanging;font-weight:bold;transform: translateY(192.5px) rotate(-90deg);"></text>
</g>
<g data-series="widespread" class="data-series">
	<path d="M 15.00,286.54L 470.00,286.54" id="E07000036-level-0" class="line" stroke-width="1" stroke-linecap="round" stroke-dasharray="3,3" fill-opacity="0.3" opacity="0.3"><title>Widespread</title></path>
</g>
<g data-series="substantial" class="data-series">
	<path d="M 15.00,324.45L 470.00,324.45" id="E07000036-level-1" class="line" stroke-width="1" stroke-linecap="round" stroke-dasharray="3,3" fill-opacity="0.3" opacity="0.3"><title>Substantial</title></path>
</g>
<g data-series="moderate" class="data-series">
	<path d="M 15.00,362.36L 470.00,362.36" id="E07000036-level-2" class="line" stroke-width="1" stroke-linecap="round" stroke-dasharray="3,3" fill-opacity="0.3" opacity="0.3"><title>Moderate</title></path>
</g>
<g data-series="new-cases" class="data-series">
	<path d="M 15.00,372.28L 17.03,372.83L 19.06,371.38L 21.09,371.89L 23.12,370.34L 25.16,368.79L 27.19,365.68L 29.22,361.02L 31.25,359.47L 33.28,357.91L 35.31,356.36L 37.34,354.81L 39.38,348.60L 41.41,348.60L 43.44,343.94L 45.47,337.72L 47.50,333.06L 49.53,334.62L 51.56,333.06L 53.59,331.51L 55.62,322.19L 57.66,323.74L 59.69,322.19L 61.72,325.30L 63.75,320.64L 65.78,319.09L 67.81,322.19L 69.84,333.06L 71.88,339.28L 73.91,345.49L 75.94,348.60L 77.97,350.15L 80.00,357.91L 82.03,359.47L 84.06,354.81L 86.09,350.15L 88.12,351.70L 90.16,350.15L 92.19,351.70L 94.22,347.04L 96.25,339.28L 98.28,331.51L 100.31,337.72L 102.34,328.40L 104.38,319.09L 106.41,314.43L 108.44,308.21L 110.47,294.23L 112.50,302.00L 114.53,280.26L 116.56,288.02L 118.59,284.91L 120.62,275.60L 122.66,281.81L 124.69,308.21L 126.72,308.21L 128.75,322.19L 130.78,317.53L 132.81,329.96L 134.84,339.28L 136.88,336.17L 138.91,331.51L 140.94,333.06L 142.97,329.96L 145.00,337.72L 147.03,337.72L 149.06,339.28L 151.09,345.49L 153.12,343.94L 155.16,333.06L 157.19,334.62L 159.22,319.09L 161.25,315.98L 163.28,311.32L 165.31,309.77L 167.34,311.32L 169.38,325.30L 171.41,329.96L 173.44,345.49L 175.47,343.94L 177.50,353.26L 179.53,348.60L 181.56,347.04L 183.59,342.38L 185.62,337.72L 187.66,329.96L 189.69,334.62L 191.72,328.40L 193.75,333.06L 195.78,336.17L 197.81,340.83L 199.84,347.04L 201.88,353.26L 203.91,354.81L 205.94,357.91L 207.97,354.81L 210.00,353.26L 212.03,347.04L 214.06,340.83L 216.09,334.62L 218.12,328.40L 220.16,329.96L 222.19,334.62L 224.22,339.28L 226.25,342.38L 228.28,345.49L 230.31,348.60L 232.34,354.81L 234.38,350.15L 236.41,350.15L 238.44,350.15L 240.47,350.15L 242.50,353.26L 244.53,357.91L 246.56,357.91L 248.59,362.57L 250.63,364.13L 252.66,364.13L 254.69,367.23L 256.72,370.34L 258.75,368.79L 260.78,367.23L 262.81,368.79L 264.84,368.79L 266.88,368.79L 268.91,370.34L 270.94,370.34L 272.97,370.34L 275.00,371.89L 277.03,371.89L 279.06,371.89L 281.09,371.89L 283.12,371.89L 285.16,371.89L 287.19,371.89L 289.22,371.89L 291.25,371.89L 293.28,370.34L 295.31,370.34L 297.34,368.79L 299.38,368.79L 301.41,368.79L 303.44,370.34L 305.47,370.34L 307.50,371.89L 309.53,370.34L 311.56,368.79L 313.59,367.23L 315.62,365.68L 317.66,362.57L 319.69,361.02L 321.72,359.47L 323.75,361.02L 325.78,362.57L 327.81,362.57L 329.84,364.13L 331.88,364.13L 333.91,365.68L 335.94,365.68L 337.97,365.68L 340.00,367.23L 342.03,367.23L 344.06,368.79L 346.09,371.89L 348.12,370.34L 350.16,367.23L 352.19,362.57L 354.22,361.02L 356.25,362.57L 358.28,362.57L 360.31,361.02L 362.34,361.02L 364.38,357.91L 366.41,362.57L 368.44,364.13L 370.47,364.13L 372.50,362.57L 374.53,354.81L 376.56,354.81L 378.59,353.26L 380.62,351.70L 382.66,348.60L 384.69,331.51L 386.72,326.85L 388.75,333.06L 390.78,333.06L 392.81,334.62L 394.84,334.62L 396.88,336.17L 398.91,348.60L 400.94,354.81L 402.97,345.49L 405.00,337.72L 407.03,331.51L 409.06,319.09L 411.09,315.98L 413.12,315.98L 415.16,305.11L 417.19,317.53L 419.22,317.53L 421.25,320.64L 423.28,322.19L 425.31,305.11L 427.34,294.23L 429.38,278.70L 431.41,239.87L 433.44,233.66L 435.47,218.13L 437.50,196.38L 439.53,182.40L 441.56,162.21L 443.59,159.11L 445.62,152.89L 447.66,101.64L 449.69,75.23L 451.72,75.23L 453.75,65.91L 455.78,39.51L 457.81,10.00L 459.84,30.19" id="New cases" class="line" stroke-width="1" stroke-linecap="round"><title>New cases</title></path>
</g>
<g data-series="recent-cases" class="data-series">
	<path d="M 459.84,30.19L 461.88,84.55L 463.91,135.81L 465.94,135.81L 467.97,151.03L 470.00,203.76" id="Recent cases" class="line" stroke-width="1" stroke-linecap="round" stroke-dasharray="5,5"><title>Recent cases</title></path>
</g>
</svg>
