<svg width="480" height="400" viewBox="0 0 480 400" xmlns="http://www.w3.org/2000/svg" style="overflow:display" preserveAspectRatio="xMinYMin meet" overflow="visible">
<defs>
	<style>
	.data-series path.line { fill-opacity: 0; stroke: black; }
	.data-series path.line.dotted { stroke-dasharray: 12 20 }
	.data-series:hover path.line, .data-series.on path.line { stroke-width: 1; }
	.data-series:hover circle, .data-series.on circle { display: inline; }
	.graph-grid { font-family: "Helvetica Neue",Helvetica,Arial,"Lucida Grande",sans-serif; }
	.graph-grid line { stroke: black; stroke-width: 1; stroke-linecap: round; }
	.graph-grid.graph-grid-x text { text-anchor: middle; dominant-baseline: hanging; transform: translateY(10px); }
	.graph-grid.graph-grid-y text { text-anchor: end; dominant-baseline: middle; transform: translateX(-10px); }
	</style>
</defs>
<g class="graph-grid graph-grid-y">
	<line x1="25.00" y1="375.00" x2="470.00" y2="375.00" data-left="25"></line>
	<text x="35" y="375" text-anchor="end">0</text>
	<text x="35" y="208.837061952441" text-anchor="end">50</text>
	<text x="35" y="42.6741239048811" text-anchor="end">100</text>
	<text style="text-anchor:middle;dominant-baseline:hanging;font-weight:bold;transform: translateY(192.5px) rotate(-90deg);"></text>
</g>
<g class="graph-grid graph-grid-x">
	<line class="tick" x1="53.90" y1="375.00" x2="53.90" y2="380.00"></line>
	<text x="53.8961038961039" y="375" text-anchor="middle">A</text>
	<line class="tick" x1="97.24" y1="375.00" x2="97.24" y2="380.00"></line>
	<text x="97.2402597402597" y="375" text-anchor="middle">M</text>
	<line class="tick" x1="142.03" y1="375.00" x2="142.03" y2="380.00"></line>
	<text x="142.029220779221" y="375" text-anchor="middle">J</text>
	<line class="tick" x1="185.37" y1="375.00" x2="185.37" y2="380.00"></line>
	<text x="185.373376623377" y="375" text-anchor="middle">J</text>
	<line class="tick" x1="230.16" y1="375.00" x2="230.16" y2="380.00"></line>
	<text x="230.162337662338" y="375" text-anchor="middle">A</text>
	<line class="tick" x1="274.95" y1="375.00" x2="274.95" y2="380.00"></line>
	<text x="274.951298701299" y="375" text-anchor="middle">S</text>
	<line class="tick" x1="318.30" y1="375.00" x2="318.30" y2="380.00"></line>
	<text x="318.295454545455" y="375" text-anchor="middle">O</text>
	<line class="tick" x1="363.08" y1="375.00" x2="363.08" y2="380.00"></line>
	<text x="363.084415584416" y="375" text-anchor="middle">N</text>
	<line class="tick" x1="406.43" y1="375.00" x2="406.43" y2="380.00"></line>
	<text x="406.428571428571" y="375" text-anchor="middle">D</text>
	<line class="tick" x1="451.22" y1="375.00" x2="451.22" y2="380.00"></line>
	<text x="451.217532467532" y="375" text-anchor="middle">J</text>
	<text style="text-anchor:middle;dominant-baseline:hanging;font-weight:bold;transform: translateY(192.5px) rotate(-90deg);"></text>
</g>
<g data-series="widespread" class="data-series">
	<path d="M 25.00,351.74L 470.00,351.74" id="E07000063-level-0" class="line" stroke-width="1" stroke-linecap="round" stroke-dasharray="3,3" fill-opacity="0.3" opacity="0.3"><title>Widespread</title></path>
</g>
<g data-series="substantial" class="data-series">
	<path d="M 25.00,361.71L 470.00,361.71" id="E07000063-level-1" class="line" stroke-width="1" stroke-linecap="round" stroke-dasharray="3,3" fill-opacity="0.3" opacity="0.3"><title>Substantial</title></path>
</g>
<g data-series="moderate" class="data-series">
	<path d="M 25.00,371.68L 470.00,371.68" id="E07000063-level-2" class="line" stroke-width="1" stroke-linecap="round" stroke-dasharray="3,3" fill-opacity="0.3" opacity="0.3"><title>Moderate</title></path>
</g>
<g data-series="new-cases" class="data-series">
	<path d="M 25.00,374.20L 26.44,374.36L 27.89,373.40L 29.33,373.63L 30.78,373.63L 32.22,373.63L 33.67,372.26L 35.11,371.80L 36.56,370.89L 38.00,371.35L 39.45,369.06L 40.89,368.60L 42.34,367.69L 43.78,367.69L 45.23,367.23L 46.67,365.86L 48.12,362.67L 49.56,363.58L 51.01,362.67L 52.45,360.84L 53.90,357.18L 55.34,356.73L 56.79,357.18L 58.23,358.10L 59.68,358.10L 61.12,356.27L 62.56,356.27L 64.01,359.92L 65.45,359.92L 66.90,360.38L 68.34,362.67L 69.79,361.75L 71.23,362.21L 72.68,360.38L 74.12,358.10L 75.57,356.73L 77.01,356.73L 78.46,351.70L 79.90,349.87L 81.35,350.33L 82.79,351.70L 84.24,352.16L 85.68,353.99L 87.13,354.44L 88.57,358.10L 90.02,359.47L 91.46,360.38L 92.91,361.75L 94.35,362.21L 95.80,359.47L 97.24,354.90L 98.69,355.81L 100.13,355.36L 101.57,354.90L 103.02,355.36L 104.46,357.64L 105.91,356.27L 107.35,359.01L 108.80,358.55L 110.24,359.01L 111.69,360.38L 113.13,361.30L 114.58,361.75L 116.02,366.32L 117.47,368.15L 118.91,369.06L 120.36,370.89L 121.80,371.35L 123.25,371.80L 124.69,371.35L 126.14,369.06L 127.58,364.49L 129.03,363.58L 130.47,362.67L 131.92,362.67L 133.36,360.84L 134.81,360.84L 136.25,363.12L 137.69,367.23L 139.14,367.23L 140.58,368.15L 142.03,368.60L 143.47,369.52L 144.92,369.52L 146.36,369.97L 147.81,371.35L 149.25,371.80L 150.70,371.35L 152.14,370.89L 153.59,371.35L 155.03,371.80L 156.48,370.89L 157.92,369.97L 159.37,369.97L 160.81,369.97L 162.26,370.43L 163.70,370.43L 165.15,370.43L 166.59,369.97L 168.04,370.89L 169.48,371.80L 170.93,373.17L 172.37,372.26L 173.81,372.26L 175.26,371.80L 176.70,373.17L 178.15,373.17L 179.59,373.17L 181.04,372.72L 182.48,372.72L 183.93,372.72L 185.37,373.17L 186.82,373.17L 188.26,373.17L 189.71,373.17L 191.15,373.63L 192.60,372.72L 194.04,371.80L 195.49,371.80L 196.93,371.80L 198.38,371.80L 199.82,371.80L 201.27,370.89L 202.71,372.26L 204.16,373.17L 205.60,372.72L 207.05,372.72L 208.49,372.72L 209.94,372.26L 211.38,372.26L 212.82,372.26L 214.27,372.72L 215.71,373.17L 217.16,373.17L 218.60,373.17L 220.05,373.63L 221.49,373.63L 222.94,374.09L 224.38,374.09L 225.83,374.09L 227.27,374.09L 228.72,374.09L 230.16,374.09L 231.61,375.00L 233.05,374.54L 234.50,374.09L 235.94,374.09L 237.39,374.09L 238.83,373.17L 240.28,371.35L 241.72,370.43L 243.17,370.89L 244.61,370.43L 246.06,370.43L 247.50,370.43L 248.94,371.35L 250.39,373.17L 251.83,373.63L 253.28,373.63L 254.72,374.54L 256.17,374.54L 257.61,374.54L 259.06,374.09L 260.50,373.63L 261.95,374.09L 263.39,373.17L 264.84,373.17L 266.28,373.17L 267.73,372.26L 269.17,371.80L 270.62,371.35L 272.06,371.35L 273.51,371.35L 274.95,371.35L 276.40,371.35L 277.84,368.60L 279.29,369.52L 280.73,369.52L 282.18,369.52L 283.62,369.97L 285.06,369.52L 286.51,369.52L 287.95,373.17L 289.40,372.72L 290.84,373.63L 292.29,372.72L 293.73,373.17L 295.18,373.63L 296.62,373.17L 298.07,372.72L 299.51,371.80L 300.96,371.80L 302.40,371.80L 303.85,371.35L 305.29,370.89L 306.74,370.43L 308.18,369.97L 309.63,371.35L 311.07,369.52L 312.52,368.15L 313.96,368.60L 315.41,367.23L 316.85,366.78L 318.30,365.41L 319.74,364.04L 321.19,364.04L 322.63,365.41L 324.07,363.58L 325.52,362.67L 326.96,362.67L 328.41,364.04L 329.85,362.67L 331.30,360.38L 332.74,357.18L 334.19,357.18L 335.63,358.55L 337.08,356.27L 338.52,354.90L 339.97,353.99L 341.41,352.16L 342.86,351.70L 344.30,348.96L 345.75,342.57L 347.19,343.02L 348.64,342.57L 350.08,338.00L 351.53,340.28L 352.97,341.65L 354.42,342.11L 355.86,344.39L 357.31,343.94L 358.75,344.85L 360.19,347.13L 361.64,346.68L 363.08,343.94L 364.53,344.85L 365.97,345.31L 367.42,341.65L 368.86,341.20L 370.31,340.74L 371.75,338.91L 373.20,334.80L 374.64,332.06L 376.09,330.69L 377.53,334.34L 378.98,334.80L 380.42,329.77L 381.87,325.66L 383.31,330.23L 384.76,327.95L 386.20,328.86L 387.65,330.23L 389.09,330.69L 390.54,337.08L 391.98,342.11L 393.43,339.37L 394.87,342.57L 396.31,343.94L 397.76,343.02L 399.20,343.48L 400.65,345.31L 402.09,345.31L 403.54,349.42L 404.98,353.53L 406.43,354.90L 407.87,354.90L 409.32,353.99L 410.76,351.25L 412.21,344.85L 413.65,342.11L 415.10,339.37L 416.54,326.12L 417.99,322.47L 419.43,317.90L 420.88,301.45L 422.32,295.06L 423.77,274.50L 425.21,258.51L 426.66,248.46L 428.10,241.15L 429.55,220.59L 430.99,203.69L 432.44,176.28L 433.88,178.11L 435.32,166.23L 436.77,187.25L 438.21,174.46L 439.66,167.15L 441.10,172.17L 442.55,148.87L 443.99,104.11L 445.44,95.88L 446.88,67.56L 448.33,46.09L 449.77,49.74L 451.22,10.00L 452.66,12.74L 454.11,34.67L 455.55,29.64L 457.00,31.47L 458.44,52.94L 459.89,53.85L 461.33,99.08L 462.78,150.24" id="New cases" class="line" stroke-width="1" stroke-linecap="round"><title>New cases</title></path>
	<circle cx="25.00" cy="374.20" data-y="0.24" data-x="1583971200" r="1" fill="white"><title>2020-03-12: 0</title></circle>
	<circle cx="26.44" cy="374.36" data-y="0.19" data-x="1584057600" r="1" fill="white"><title>2020-03-13: 0</title></circle>
	<circle cx="27.89" cy="373.40" data-y="0.48" data-x="1584144000" r="1" fill="white"><title>2020-03-14: 0</title></circle>
	<circle cx="29.33" cy="373.63" data-y="0.41" data-x="1584230400" r="1" fill="white"><title>2020-03-15: 0</title></circle>
	<circle cx="30.78" cy="373.63" data-y="0.41" data-x="1584316800" r="1" fill="white"><title>2020-03-16: 0</title></circle>
	<circle cx="32.22" cy="373.63" data-y="0.41" data-x="1584403200" r="1" fill="white"><title>2020-03-17: 0</title></circle>
	<circle cx="33.67" cy="372.26" data-y="0.82" data-x="1584489600" r="1" fill="white"><title>2020-03-18: 1</title></circle>
	<circle cx="35.11" cy="371.80" data-y="0.96" data-x="1584576000" r="1" fill="white"><title>2020-03-19: 1</title></circle>
	<circle cx="36.56" cy="370.89" data-y="1.24" data-x="1584662400" r="1" fill="white"><title>2020-03-20: 1</title></circle>
	<circle cx="38.00" cy="371.35" data-y="1.10" data-x="1584748800" r="1" fill="white"><title>2020-03-21: 1</title></circle>
	<circle cx="39.45" cy="369.06" data-y="1.79" data-x="1584835200" r="1" fill="white"><title>2020-03-22: 2</title></circle>
	<circle cx="40.89" cy="368.60" data-y="1.92" data-x="1584921600" r="1" fill="white"><title>2020-03-23: 2</title></circle>
	<circle cx="42.34" cy="367.69" data-y="2.20" data-x="1585008000" r="1" fill="white"><title>2020-03-24: 2</title></circle>
	<circle cx="43.78" cy="367.69" data-y="2.20" data-x="1585094400" r="1" fill="white"><title>2020-03-25: 2</title></circle>
	<circle cx="45.23" cy="367.23" data-y="2.34" data-x="1585180800" r="1" fill="white"><title>2020-03-26: 2</title></circle>
	<circle cx="46.67" cy="365.86" data-y="2.75" data-x="1585267200" r="1" fill="white"><title>2020-03-27: 3</title></circle>
	<circle cx="48.12" cy="362.67" data-y="3.71" data-x="1585353600" r="1" fill="white"><title>2020-03-28: 4</title></circle>
	<circle cx="49.56" cy="363.58" data-y="3.44" data-x="1585440000" r="1" fill="white"><title>2020-03-29: 3</title></circle>
	<circle cx="51.01" cy="362.67" data-y="3.71" data-x="1585526400" r="1" fill="white"><title>2020-03-30: 4</title></circle>
	<circle cx="52.45" cy="360.84" data-y="4.26" data-x="1585612800" r="1" fill="white"><title>2020-03-31: 4</title></circle>
	<circle cx="53.90" cy="357.18" data-y="5.36" data-x="1585699200" r="1" fill="white"><title>2020-04-01: 5</title></circle>
	<circle cx="55.34" cy="356.73" data-y="5.50" data-x="1585785600" r="1" fill="white"><title>2020-04-02: 5</title></circle>
	<circle cx="56.79" cy="357.18" data-y="5.36" data-x="1585872000" r="1" fill="white"><title>2020-04-03: 5</title></circle>
	<circle cx="58.23" cy="358.10" data-y="5.09" data-x="1585958400" r="1" fill="white"><title>2020-04-04: 5</title></circle>
	<circle cx="59.68" cy="358.10" data-y="5.09" data-x="1586044800" r="1" fill="white"><title>2020-04-05: 5</title></circle>
	<circle cx="61.12" cy="356.27" data-y="5.64" data-x="1586131200" r="1" fill="white"><title>2020-04-06: 6</title></circle>
	<circle cx="62.56" cy="356.27" data-y="5.64" data-x="1586217600" r="1" fill="white"><title>2020-04-07: 6</title></circle>
	<circle cx="64.01" cy="359.92" data-y="4.54" data-x="1586304000" r="1" fill="white"><title>2020-04-08: 5</title></circle>
	<circle cx="65.45" cy="359.92" data-y="4.54" data-x="1586390400" r="1" fill="white"><title>2020-04-09: 5</title></circle>
	<circle cx="66.90" cy="360.38" data-y="4.40" data-x="1586476800" r="1" fill="white"><title>2020-04-10: 4</title></circle>
	<circle cx="68.34" cy="362.67" data-y="3.71" data-x="1586563200" r="1" fill="white"><title>2020-04-11: 4</title></circle>
	<circle cx="69.79" cy="361.75" data-y="3.99" data-x="1586649600" r="1" fill="white"><title>2020-04-12: 4</title></circle>
	<circle cx="71.23" cy="362.21" data-y="3.85" data-x="1586736000" r="1" fill="white"><title>2020-04-13: 4</title></circle>
	<circle cx="72.68" cy="360.38" data-y="4.40" data-x="1586822400" r="1" fill="white"><title>2020-04-14: 4</title></circle>
	<circle cx="74.12" cy="358.10" data-y="5.09" data-x="1586908800" r="1" fill="white"><title>2020-04-15: 5</title></circle>
	<circle cx="75.57" cy="356.73" data-y="5.50" data-x="1586995200" r="1" fill="white"><title>2020-04-16: 5</title></circle>
	<circle cx="77.01" cy="356.73" data-y="5.50" data-x="1587081600" r="1" fill="white"><title>2020-04-17: 5</title></circle>
	<circle cx="78.46" cy="351.70" data-y="7.01" data-x="1587168000" r="1" fill="white"><title>2020-04-18: 7</title></circle>
	<circle cx="79.90" cy="349.87" data-y="7.56" data-x="1587254400" r="1" fill="white"><title>2020-04-19: 8</title></circle>
	<circle cx="81.35" cy="350.33" data-y="7.42" data-x="1587340800" r="1" fill="white"><title>2020-04-20: 7</title></circle>
	<circle cx="82.79" cy="351.70" data-y="7.01" data-x="1587427200" r="1" fill="white"><title>2020-04-21: 7</title></circle>
	<circle cx="84.24" cy="352.16" data-y="6.87" data-x="1587513600" r="1" fill="white"><title>2020-04-22: 7</title></circle>
	<circle cx="85.68" cy="353.99" data-y="6.32" data-x="1587600000" r="1" fill="white"><title>2020-04-23: 6</title></circle>
	<circle cx="87.13" cy="354.44" data-y="6.19" data-x="1587686400" r="1" fill="white"><title>2020-04-24: 6</title></circle>
	<circle cx="88.57" cy="358.10" data-y="5.09" data-x="1587772800" r="1" fill="white"><title>2020-04-25: 5</title></circle>
	<circle cx="90.02" cy="359.47" data-y="4.67" data-x="1587859200" r="1" fill="white"><title>2020-04-26: 5</title></circle>
	<circle cx="91.46" cy="360.38" data-y="4.40" data-x="1587945600" r="1" fill="white"><title>2020-04-27: 4</title></circle>
	<circle cx="92.91" cy="361.75" data-y="3.99" data-x="1588032000" r="1" fill="white"><title>2020-04-28: 4</title></circle>
	<circle cx="94.35" cy="362.21" data-y="3.85" data-x="1588118400" r="1" fill="white"><title>2020-04-29: 4</title></circle>
	<circle cx="95.80" cy="359.47" data-y="4.67" data-x="1588204800" r="1" fill="white"><title>2020-04-30: 5</title></circle>
	<circle cx="97.24" cy="354.90" data-y="6.05" data-x="1588291200" r="1" fill="white"><title>2020-05-01: 6</title></circle>
	<circle cx="98.69" cy="355.81" data-y="5.77" data-x="1588377600" r="1" fill="white"><title>2020-05-02: 6</title></circle>
	<circle cx="100.13" cy="355.36" data-y="5.91" data-x="1588464000" r="1" fill="white"><title>2020-05-03: 6</title></circle>
	<circle cx="101.57" cy="354.90" data-y="6.05" data-x="1588550400" r="1" fill="white"><title>2020-05-04: 6</title></circle>
	<circle cx="103.02" cy="355.36" data-y="5.91" data-x="1588636800" r="1" fill="white"><title>2020-05-05: 6</title></circle>
	<circle cx="104.46" cy="357.64" data-y="5.22" data-x="1588723200" r="1" fill="white"><title>2020-05-06: 5</title></circle>
	<circle cx="105.91" cy="356.27" data-y="5.64" data-x="1588809600" r="1" fill="white"><title>2020-05-07: 6</title></circle>
	<circle cx="107.35" cy="359.01" data-y="4.81" data-x="1588896000" r="1" fill="white"><title>2020-05-08: 5</title></circle>
	<circle cx="108.80" cy="358.55" data-y="4.95" data-x="1588982400" r="1" fill="white"><title>2020-05-09: 5</title></circle>
	<circle cx="110.24" cy="359.01" data-y="4.81" data-x="1589068800" r="1" fill="white"><title>2020-05-10: 5</title></circle>
	<circle cx="111.69" cy="360.38" data-y="4.40" data-x="1589155200" r="1" fill="white"><title>2020-05-11: 4</title></circle>
	<circle cx="113.13" cy="361.30" data-y="4.12" data-x="1589241600" r="1" fill="white"><title>2020-05-12: 4</title></circle>
	<circle cx="114.58" cy="361.75" data-y="3.99" data-x="1589328000" r="1" fill="white"><title>2020-05-13: 4</title></circle>
	<circle cx="116.02" cy="366.32" data-y="2.61" data-x="1589414400" r="1" fill="white"><title>2020-05-14: 3</title></circle>
	<circle cx="117.47" cy="368.15" data-y="2.06" data-x="1589500800" r="1" fill="white"><title>2020-05-15: 2</title></circle>
	<circle cx="118.91" cy="369.06" data-y="1.79" data-x="1589587200" r="1" fill="white"><title>2020-05-16: 2</title></circle>
	<circle cx="120.36" cy="370.89" data-y="1.24" data-x="1589673600" r="1" fill="white"><title>2020-05-17: 1</title></circle>
	<circle cx="121.80" cy="371.35" data-y="1.10" data-x="1589760000" r="1" fill="white"><title>2020-05-18: 1</title></circle>
	<circle cx="123.25" cy="371.80" data-y="0.96" data-x="1589846400" r="1" fill="white"><title>2020-05-19: 1</title></circle>
	<circle cx="124.69" cy="371.35" data-y="1.10" data-x="1589932800" r="1" fill="white"><title>2020-05-20: 1</title></circle>
	<circle cx="126.14" cy="369.06" data-y="1.79" data-x="1590019200" r="1" fill="white"><title>2020-05-21: 2</title></circle>
	<circle cx="127.58" cy="364.49" data-y="3.16" data-x="1590105600" r="1" fill="white"><title>2020-05-22: 3</title></circle>
	<circle cx="129.03" cy="363.58" data-y="3.44" data-x="1590192000" r="1" fill="white"><title>2020-05-23: 3</title></circle>
	<circle cx="130.47" cy="362.67" data-y="3.71" data-x="1590278400" r="1" fill="white"><title>2020-05-24: 4</title></circle>
	<circle cx="131.92" cy="362.67" data-y="3.71" data-x="1590364800" r="1" fill="white"><title>2020-05-25: 4</title></circle>
	<circle cx="133.36" cy="360.84" data-y="4.26" data-x="1590451200" r="1" fill="white"><title>2020-05-26: 4</title></circle>
	<circle cx="134.81" cy="360.84" data-y="4.26" data-x="1590537600" r="1" fill="white"><title>2020-05-27: 4</title></circle>
	<circle cx="136.25" cy="363.12" data-y="3.57" data-x="1590624000" r="1" fill="white"><title>2020-05-28: 4</title></circle>
	<circle cx="137.69" cy="367.23" data-y="2.34" data-x="1590710400" r="1" fill="white"><title>2020-05-29: 2</title></circle>
	<circle cx="139.14" cy="367.23" data-y="2.34" data-x="1590796800" r="1" fill="white"><title>2020-05-30: 2</title></circle>
	<circle cx="140.58" cy="368.15" data-y="2.06" data-x="1590883200" r="1" fill="white"><title>2020-05-31: 2</title></circle>
	<circle cx="142.03" cy="368.60" data-y="1.92" data-x="1590969600" r="1" fill="white"><title>2020-06-01: 2</title></circle>
	<circle cx="143.47" cy="369.52" data-y="1.65" data-x="1591056000" r="1" fill="white"><title>2020-06-02: 2</title></circle>
	<circle cx="144.92" cy="369.52" data-y="1.65" data-x="1591142400" r="1" fill="white"><title>2020-06-03: 2</title></circle>
	<circle cx="146.36" cy="369.97" data-y="1.51" data-x="1591228800" r="1" fill="white"><title>2020-06-04: 2</title></circle>
	<circle cx="147.81" cy="371.35" data-y="1.10" data-x="1591315200" r="1" fill="white"><title>2020-06-05: 1</title></circle>
	<circle cx="149.25" cy="371.80" data-y="0.96" data-x="1591401600" r="1" fill="white"><title>2020-06-06: 1</title></circle>
	<circle cx="150.70" cy="371.35" data-y="1.10" data-x="1591488000" r="1" fill="white"><title>2020-06-07: 1</title></circle>
	<circle cx="152.14" cy="370.89" data-y="1.24" data-x="1591574400" r="1" fill="white"><title>2020-06-08: 1</title></circle>
	<circle cx="153.59" cy="371.35" data-y="1.10" data-x="1591660800" r="1" fill="white"><title>2020-06-09: 1</title></circle>
	<circle cx="155.03" cy="371.80" data-y="0.96" data-x="1591747200" r="1" fill="white"><title>2020-06-10: 1</title></circle>
	<circle cx="156.48" cy="370.89" data-y="1.24" data-x="1591833600" r="1" fill="white"><title>2020-06-11: 1</title></circle>
	<circle cx="157.92" cy="369.97" data-y="1.51" data-x="1591920000" r="1" fill="white"><title>2020-06-12: 2</title></circle>
	<circle cx="159.37" cy="369.97" data-y="1.51" data-x="1592006400" r="1" fill="white"><title>2020-06-13: 2</title></circle>
	<circle cx="160.81" cy="369.97" data-y="1.51" data-x="1592092800" r="1" fill="white"><title>2020-06-14: 2</title></circle>
	<circle cx="162.26" cy="370.43" data-y="1.37" data-x="1592179200" r="1" fill="white"><title>2020-06-15: 1</title></circle>
	<circle cx="163.70" cy="370.43" data-y="1.37" data-x="1592265600" r="1" fill="white"><title>2020-06-16: 1</title></circle>
	<circle cx="165.15" cy="370.43" data-y="1.37" data-x="1592352000" r="1" fill="white"><title>2020-06-17: 1</title></circle>
	<circle cx="166.59" cy="369.97" data-y="1.51" data-x="1592438400" r="1" fill="white"><title>2020-06-18: 2</title></circle>
	<circle cx="168.04" cy="370.89" data-y="1.24" data-x="1592524800" r="1" fill="white"><title>2020-06-19: 1</title></circle>
	<circle cx="169.48" cy="371.80" data-y="0.96" data-x="1592611200" r="1" fill="white"><title>2020-06-20: 1</title></circle>
	<circle cx="170.93" cy="373.17" data-y="0.55" data-x="1592697600" r="1" fill="white"><title>2020-06-21: 1</title></circle>
	<circle cx="172.37" cy="372.26" data-y="0.82" data-x="1592784000" r="1" fill="white"><title>2020-06-22: 1</title></circle>
	<circle cx="173.81" cy="372.26" data-y="0.82" data-x="1592870400" r="1" fill="white"><title>2020-06-23: 1</title></circle>
	<circle cx="175.26" cy="371.80" data-y="0.96" data-x="1592956800" r="1" fill="white"><title>2020-06-24: 1</title></circle>
	<circle cx="176.70" cy="373.17" data-y="0.55" data-x="1593043200" r="1" fill="white"><title>2020-06-25: 1</title></circle>
	<circle cx="178.15" cy="373.17" data-y="0.55" data-x="1593129600" r="1" fill="white"><title>2020-06-26: 1</title></circle>
	<circle cx="179.59" cy="373.17" data-y="0.55" data-x="1593216000" r="1" fill="white"><title>2020-06-27: 1</title></circle>
	<circle cx="181.04" cy="372.72" data-y="0.69" data-x="1593302400" r="1" fill="white"><title>2020-06-28: 1</title></circle>
	<circle cx="182.48" cy="372.72" data-y="0.69" data-x="1593388800" r="1" fill="white"><title>2020-06-29: 1</title></circle>
	<circle cx="183.93" cy="372.72" data-y="0.69" data-x="1593475200" r="1" fill="white"><title>2020-06-30: 1</title></circle>
	<circle cx="185.37" cy="373.17" data-y="0.55" data-x="1593561600" r="1" fill="white"><title>2020-07-01: 1</title></circle>
	<circle cx="186.82" cy="373.17" data-y="0.55" data-x="1593648000" r="1" fill="white"><title>2020-07-02: 1</title></circle>
	<circle cx="188.26" cy="373.17" data-y="0.55" data-x="1593734400" r="1" fill="white"><title>2020-07-03: 1</title></circle>
	<circle cx="189.71" cy="373.17" data-y="0.55" data-x="1593820800" r="1" fill="white"><title>2020-07-04: 1</title></circle>
	<circle cx="191.15" cy="373.63" data-y="0.41" data-x="1593907200" r="1" fill="white"><title>2020-07-05: 0</title></circle>
	<circle cx="192.60" cy="372.72" data-y="0.69" data-x="1593993600" r="1" fill="white"><title>2020-07-06: 1</title></circle>
	<circle cx="194.04" cy="371.80" data-y="0.96" data-x="1594080000" r="1" fill="white"><title>2020-07-07: 1</title></circle>
	<circle cx="195.49" cy="371.80" data-y="0.96" data-x="1594166400" r="1" fill="white"><title>2020-07-08: 1</title></circle>
	<circle cx="196.93" cy="371.80" data-y="0.96" data-x="1594252800" r="1" fill="white"><title>2020-07-09: 1</title></circle>
	<circle cx="198.38" cy="371.80" data-y="0.96" data-x="1594339200" r="1" fill="white"><title>2020-07-10: 1</title></circle>
	<circle cx="199.82" cy="371.80" data-y="0.96" data-x="1594425600" r="1" fill="white"><title>2020-07-11: 1</title></circle>
	<circle cx="201.27" cy="370.89" data-y="1.24" data-x="1594512000" r="1" fill="white"><title>2020-07-12: 1</title></circle>
	<circle cx="202.71" cy="372.26" data-y="0.82" data-x="1594598400" r="1" fill="white"><title>2020-07-13: 1</title></circle>
	<circle cx="204.16" cy="373.17" data-y="0.55" data-x="1594684800" r="1" fill="white"><title>2020-07-14: 1</title></circle>
	<circle cx="205.60" cy="372.72" data-y="0.69" data-x="1594771200" r="1" fill="white"><title>2020-07-15: 1</title></circle>
	<circle cx="207.05" cy="372.72" data-y="0.69" data-x="1594857600" r="1" fill="white"><title>2020-07-16: 1</title></circle>
	<circle cx="208.49" cy="372.72" data-y="0.69" data-x="1594944000" r="1" fill="white"><title>2020-07-17: 1</title></circle>
	<circle cx="209.94" cy="372.26" data-y="0.82" data-x="1595030400" r="1" fill="white"><title>2020-07-18: 1</title></circle>
	<circle cx="211.38" cy="372.26" data-y="0.82" data-x="1595116800" r="1" fill="white"><title>2020-07-19: 1</title></circle>
	<circle cx="212.82" cy="372.26" data-y="0.82" data-x="1595203200" r="1" fill="white"><title>2020-07-20: 1</title></circle>
	<circle cx="214.27" cy="372.72" data-y="0.69" data-x="1595289600" r="1" fill="white"><title>2020-07-21: 1</title></circle>
	<circle cx="215.71" cy="373.17" data-y="0.55" data-x="1595376000" r="1" fill="white"><title>2020-07-22: 1</title></circle>
	<circle cx="217.16" cy="373.17" data-y="0.55" data-x="1595462400" r="1" fill="white"><title>2020-07-23: 1</title></circle>
	<circle cx="218.60" cy="373.17" data-y="0.55" data-x="1595548800" r="1" fill="white"><title>2020-07-24: 1</title></circle>
	<circle cx="220.05" cy="373.63" data-y="0.41" data-x="1595635200" r="1" fill="white"><title>2020-07-25: 0</title></circle>
	<circle cx="221.49" cy="373.63" data-y="0.41" data-x="1595721600" r="1" fill="white"><title>2020-07-26: 0</title></circle>
	<circle cx="222.94" cy="374.09" data-y="0.27" data-x="1595808000" r="1" fill="white"><title>2020-07-27: 0</title></circle>
	<circle cx="224.38" cy="374.09" data-y="0.27" data-x="1595894400" r="1" fill="white"><title>2020-07-28: 0</title></circle>
	<circle cx="225.83" cy="374.09" data-y="0.27" data-x="1595980800" r="1" fill="white"><title>2020-07-29: 0</title></circle>
	<circle cx="227.27" cy="374.09" data-y="0.27" data-x="1596067200" r="1" fill="white"><title>2020-07-30: 0</title></circle>
	<circle cx="228.72" cy="374.09" data-y="0.27" data-x="1596153600" r="1" fill="white"><title>2020-07-31: 0</title></circle>
	<circle cx="230.16" cy="374.09" data-y="0.27" data-x="1596240000" r="1" fill="white"><title>2020-08-01: 0</title></circle>
	<circle cx="231.61" cy="375.00" data-y="0.00" data-x="1596326400" r="1" fill="white"><title>2020-08-02: 0</title></circle>
	<circle cx="233.05" cy="374.54" data-y="0.14" data-x="1596412800" r="1" fill="white"><title>2020-08-03: 0</title></circle>
	<circle cx="234.50" cy="374.09" data-y="0.27" data-x="1596499200" r="1" fill="white"><title>2020-08-04: 0</title></circle>
	<circle cx="235.94" cy="374.09" data-y="0.27" data-x="1596585600" r="1" fill="white"><title>2020-08-05: 0</title></circle>
	<circle cx="237.39" cy="374.09" data-y="0.27" data-x="1596672000" r="1" fill="white"><title>2020-08-06: 0</title></circle>
	<circle cx="238.83" cy="373.17" data-y="0.55" data-x="1596758400" r="1" fill="white"><title>2020-08-07: 1</title></circle>
	<circle cx="240.28" cy="371.35" data-y="1.10" data-x="1596844800" r="1" fill="white"><title>2020-08-08: 1</title></circle>
	<circle cx="241.72" cy="370.43" data-y="1.37" data-x="1596931200" r="1" fill="white"><title>2020-08-09: 1</title></circle>
	<circle cx="243.17" cy="370.89" data-y="1.24" data-x="1597017600" r="1" fill="white"><title>2020-08-10: 1</title></circle>
	<circle cx="244.61" cy="370.43" data-y="1.37" data-x="1597104000" r="1" fill="white"><title>2020-08-11: 1</title></circle>
	<circle cx="246.06" cy="370.43" data-y="1.37" data-x="1597190400" r="1" fill="white"><title>2020-08-12: 1</title></circle>
	<circle cx="247.50" cy="370.43" data-y="1.37" data-x="1597276800" r="1" fill="white"><title>2020-08-13: 1</title></circle>
	<circle cx="248.94" cy="371.35" data-y="1.10" data-x="1597363200" r="1" fill="white"><title>2020-08-14: 1</title></circle>
	<circle cx="250.39" cy="373.17" data-y="0.55" data-x="1597449600" r="1" fill="white"><title>2020-08-15: 1</title></circle>
	<circle cx="251.83" cy="373.63" data-y="0.41" data-x="1597536000" r="1" fill="white"><title>2020-08-16: 0</title></circle>
	<circle cx="253.28" cy="373.63" data-y="0.41" data-x="1597622400" r="1" fill="white"><title>2020-08-17: 0</title></circle>
	<circle cx="254.72" cy="374.54" data-y="0.14" data-x="1597708800" r="1" fill="white"><title>2020-08-18: 0</title></circle>
	<circle cx="256.17" cy="374.54" data-y="0.14" data-x="1597795200" r="1" fill="white"><title>2020-08-19: 0</title></circle>
	<circle cx="257.61" cy="374.54" data-y="0.14" data-x="1597881600" r="1" fill="white"><title>2020-08-20: 0</title></circle>
	<circle cx="259.06" cy="374.09" data-y="0.27" data-x="1597968000" r="1" fill="white"><title>2020-08-21: 0</title></circle>
	<circle cx="260.50" cy="373.63" data-y="0.41" data-x="1598054400" r="1" fill="white"><title>2020-08-22: 0</title></circle>
	<circle cx="261.95" cy="374.09" data-y="0.27" data-x="1598140800" r="1" fill="white"><title>2020-08-23: 0</title></circle>
	<circle cx="263.39" cy="373.17" data-y="0.55" data-x="1598227200" r="1" fill="white"><title>2020-08-24: 1</title></circle>
	<circle cx="264.84" cy="373.17" data-y="0.55" data-x="1598313600" r="1" fill="white"><title>2020-08-25: 1</title></circle>
	<circle cx="266.28" cy="373.17" data-y="0.55" data-x="1598400000" r="1" fill="white"><title>2020-08-26: 1</title></circle>
	<circle cx="267.73" cy="372.26" data-y="0.82" data-x="1598486400" r="1" fill="white"><title>2020-08-27: 1</title></circle>
	<circle cx="269.17" cy="371.80" data-y="0.96" data-x="1598572800" r="1" fill="white"><title>2020-08-28: 1</title></circle>
	<circle cx="270.62" cy="371.35" data-y="1.10" data-x="1598659200" r="1" fill="white"><title>2020-08-29: 1</title></circle>
	<circle cx="272.06" cy="371.35" data-y="1.10" data-x="1598745600" r="1" fill="white"><title>2020-08-30: 1</title></circle>
	<circle cx="273.51" cy="371.35" data-y="1.10" data-x="1598832000" r="1" fill="white"><title>2020-08-31: 1</title></circle>
	<circle cx="274.95" cy="371.35" data-y="1.10" data-x="1598918400" r="1" fill="white"><title>2020-09-01: 1</title></circle>
	<circle cx="276.40" cy="371.35" data-y="1.10" data-x="1599004800" r="1" fill="white"><title>2020-09-02: 1</title></circle>
	<circle cx="277.84" cy="368.60" data-y="1.92" data-x="1599091200" r="1" fill="white"><title>2020-09-03: 2</title></circle>
	<circle cx="279.29" cy="369.52" data-y="1.65" data-x="1599177600" r="1" fill="white"><title>2020-09-04: 2</title></circle>
	<circle cx="280.73" cy="369.52" data-y="1.65" data-x="1599264000" r="1" fill="white"><title>2020-09-05: 2</title></circle>
	<circle cx="282.18" cy="369.52" data-y="1.65" data-x="1599350400" r="1" fill="white"><title>2020-09-06: 2</title></circle>
	<circle cx="283.62" cy="369.97" data-y="1.51" data-x="1599436800" r="1" fill="white"><title>2020-09-07: 2</title></circle>
	<circle cx="285.06" cy="369.52" data-y="1.65" data-x="1599523200" r="1" fill="white"><title>2020-09-08: 2</title></circle>
	<circle cx="286.51" cy="369.52" data-y="1.65" data-x="1599609600" r="1" fill="white"><title>2020-09-09: 2</title></circle>
	<circle cx="287.95" cy="373.17" data-y="0.55" data-x="1599696000" r="1" fill="white"><title>2020-09-10: 1</title></circle>
	<circle cx="289.40" cy="372.72" data-y="0.69" data-x="1599782400" r="1" fill="white"><title>2020-09-11: 1</title></circle>
	<circle cx="290.84" cy="373.63" data-y="0.41" data-x="1599868800" r="1" fill="white"><title>2020-09-12: 0</title></circle>
	<circle cx="292.29" cy="372.72" data-y="0.69" data-x="1599955200" r="1" fill="white"><title>2020-09-13: 1</title></circle>
	<circle cx="293.73" cy="373.17" data-y="0.55" data-x="1600041600" r="1" fill="white"><title>2020-09-14: 1</title></circle>
	<circle cx="295.18" cy="373.63" data-y="0.41" data-x="1600128000" r="1" fill="white"><title>2020-09-15: 0</title></circle>
	<circle cx="296.62" cy="373.17" data-y="0.55" data-x="1600214400" r="1" fill="white"><title>2020-09-16: 1</title></circle>
	<circle cx="298.07" cy="372.72" data-y="0.69" data-x="1600300800" r="1" fill="white"><title>2020-09-17: 1</title></circle>
	<circle cx="299.51" cy="371.80" data-y="0.96" data-x="1600387200" r="1" fill="white"><title>2020-09-18: 1</title></circle>
	<circle cx="300.96" cy="371.80" data-y="0.96" data-x="1600473600" r="1" fill="white"><title>2020-09-19: 1</title></circle>
	<circle cx="302.40" cy="371.80" data-y="0.96" data-x="1600560000" r="1" fill="white"><title>2020-09-20: 1</title></circle>
	<circle cx="303.85" cy="371.35" data-y="1.10" data-x="1600646400" r="1" fill="white"><title>2020-09-21: 1</title></circle>
	<circle cx="305.29" cy="370.89" data-y="1.24" data-x="1600732800" r="1" fill="white"><title>2020-09-22: 1</title></circle>
	<circle cx="306.74" cy="370.43" data-y="1.37" data-x="1600819200" r="1" fill="white"><title>2020-09-23: 1</title></circle>
	<circle cx="308.18" cy="369.97" data-y="1.51" data-x="1600905600" r="1" fill="white"><title>2020-09-24: 2</title></circle>
	<circle cx="309.63" cy="371.35" data-y="1.10" data-x="1600992000" r="1" fill="white"><title>2020-09-25: 1</title></circle>
	<circle cx="311.07" cy="369.52" data-y="1.65" data-x="1601078400" r="1" fill="white"><title>2020-09-26: 2</title></circle>
	<circle cx="312.52" cy="368.15" data-y="2.06" data-x="1601164800" r="1" fill="white"><title>2020-09-27: 2</title></circle>
	<circle cx="313.96" cy="368.60" data-y="1.92" data-x="1601251200" r="1" fill="white"><title>2020-09-28: 2</title></circle>
	<circle cx="315.41" cy="367.23" data-y="2.34" data-x="1601337600" r="1" fill="white"><title>2020-09-29: 2</title></circle>
	<circle cx="316.85" cy="366.78" data-y="2.47" data-x="1601424000" r="1" fill="white"><title>2020-09-30: 2</title></circle>
	<circle cx="318.30" cy="365.41" data-y="2.89" data-x="1601510400" r="1" fill="white"><title>2020-10-01: 3</title></circle>
	<circle cx="319.74" cy="364.04" data-y="3.30" data-x="1601596800" r="1" fill="white"><title>2020-10-02: 3</title></circle>
	<circle cx="321.19" cy="364.04" data-y="3.30" data-x="1601683200" r="1" fill="white"><title>2020-10-03: 3</title></circle>
	<circle cx="322.63" cy="365.41" data-y="2.89" data-x="1601769600" r="1" fill="white"><title>2020-10-04: 3</title></circle>
	<circle cx="324.07" cy="363.58" data-y="3.44" data-x="1601856000" r="1" fill="white"><title>2020-10-05: 3</title></circle>
	<circle cx="325.52" cy="362.67" data-y="3.71" data-x="1601942400" r="1" fill="white"><title>2020-10-06: 4</title></circle>
	<circle cx="326.96" cy="362.67" data-y="3.71" data-x="1602028800" r="1" fill="white"><title>2020-10-07: 4</title></circle>
	<circle cx="328.41" cy="364.04" data-y="3.30" data-x="1602115200" r="1" fill="white"><title>2020-10-08: 3</title></circle>
	<circle cx="329.85" cy="362.67" data-y="3.71" data-x="1602201600" r="1" fill="white"><title>2020-10-09: 4</title></circle>
	<circle cx="331.30" cy="360.38" data-y="4.40" data-x="1602288000" r="1" fill="white"><title>2020-10-10: 4</title></circle>
	<circle cx="332.74" cy="357.18" data-y="5.36" data-x="1602374400" r="1" fill="white"><title>2020-10-11: 5</title></circle>
	<circle cx="334.19" cy="357.18" data-y="5.36" data-x="1602460800" r="1" fill="white"><title>2020-10-12: 5</title></circle>
	<circle cx="335.63" cy="358.55" data-y="4.95" data-x="1602547200" r="1" fill="white"><title>2020-10-13: 5</title></circle>
	<circle cx="337.08" cy="356.27" data-y="5.64" data-x="1602633600" r="1" fill="white"><title>2020-10-14: 6</title></circle>
	<circle cx="338.52" cy="354.90" data-y="6.05" data-x="1602720000" r="1" fill="white"><title>2020-10-15: 6</title></circle>
	<circle cx="339.97" cy="353.99" data-y="6.32" data-x="1602806400" r="1" fill="white"><title>2020-10-16: 6</title></circle>
	<circle cx="341.41" cy="352.16" data-y="6.87" data-x="1602892800" r="1" fill="white"><title>2020-10-17: 7</title></circle>
	<circle cx="342.86" cy="351.70" data-y="7.01" data-x="1602979200" r="1" fill="white"><title>2020-10-18: 7</title></circle>
	<circle cx="344.30" cy="348.96" data-y="7.84" data-x="1603065600" r="1" fill="white"><title>2020-10-19: 8</title></circle>
	<circle cx="345.75" cy="342.57" data-y="9.76" data-x="1603152000" r="1" fill="white"><title>2020-10-20: 10</title></circle>
	<circle cx="347.19" cy="343.02" data-y="9.62" data-x="1603238400" r="1" fill="white"><title>2020-10-21: 10</title></circle>
	<circle cx="348.64" cy="342.57" data-y="9.76" data-x="1603324800" r="1" fill="white"><title>2020-10-22: 10</title></circle>
	<circle cx="350.08" cy="338.00" data-y="11.13" data-x="1603411200" r="1" fill="white"><title>2020-10-23: 11</title></circle>
	<circle cx="351.53" cy="340.28" data-y="10.45" data-x="1603497600" r="1" fill="white"><title>2020-10-24: 10</title></circle>
	<circle cx="352.97" cy="341.65" data-y="10.03" data-x="1603584000" r="1" fill="white"><title>2020-10-25: 10</title></circle>
	<circle cx="354.42" cy="342.11" data-y="9.90" data-x="1603670400" r="1" fill="white"><title>2020-10-26: 10</title></circle>
	<circle cx="355.86" cy="344.39" data-y="9.21" data-x="1603756800" r="1" fill="white"><title>2020-10-27: 9</title></circle>
	<circle cx="357.31" cy="343.94" data-y="9.35" data-x="1603843200" r="1" fill="white"><title>2020-10-28: 9</title></circle>
	<circle cx="358.75" cy="344.85" data-y="9.07" data-x="1603929600" r="1" fill="white"><title>2020-10-29: 9</title></circle>
	<circle cx="360.19" cy="347.13" data-y="8.39" data-x="1604016000" r="1" fill="white"><title>2020-10-30: 8</title></circle>
	<circle cx="361.64" cy="346.68" data-y="8.52" data-x="1604102400" r="1" fill="white"><title>2020-10-31: 9</title></circle>
	<circle cx="363.08" cy="343.94" data-y="9.35" data-x="1604188800" r="1" fill="white"><title>2020-11-01: 9</title></circle>
	<circle cx="364.53" cy="344.85" data-y="9.07" data-x="1604275200" r="1" fill="white"><title>2020-11-02: 9</title></circle>
	<circle cx="365.97" cy="345.31" data-y="8.94" data-x="1604361600" r="1" fill="white"><title>2020-11-03: 9</title></circle>
	<circle cx="367.42" cy="341.65" data-y="10.03" data-x="1604448000" r="1" fill="white"><title>2020-11-04: 10</title></circle>
	<circle cx="368.86" cy="341.20" data-y="10.17" data-x="1604534400" r="1" fill="white"><title>2020-11-05: 10</title></circle>
	<circle cx="370.31" cy="340.74" data-y="10.31" data-x="1604620800" r="1" fill="white"><title>2020-11-06: 10</title></circle>
	<circle cx="371.75" cy="338.91" data-y="10.86" data-x="1604707200" r="1" fill="white"><title>2020-11-07: 11</title></circle>
	<circle cx="373.20" cy="334.80" data-y="12.10" data-x="1604793600" r="1" fill="white"><title>2020-11-08: 12</title></circle>
	<circle cx="374.64" cy="332.06" data-y="12.92" data-x="1604880000" r="1" fill="white"><title>2020-11-09: 13</title></circle>
	<circle cx="376.09" cy="330.69" data-y="13.33" data-x="1604966400" r="1" fill="white"><title>2020-11-10: 13</title></circle>
	<circle cx="377.53" cy="334.34" data-y="12.23" data-x="1605052800" r="1" fill="white"><title>2020-11-11: 12</title></circle>
	<circle cx="378.98" cy="334.80" data-y="12.10" data-x="1605139200" r="1" fill="white"><title>2020-11-12: 12</title></circle>
	<circle cx="380.42" cy="329.77" data-y="13.61" data-x="1605225600" r="1" fill="white"><title>2020-11-13: 14</title></circle>
	<circle cx="381.87" cy="325.66" data-y="14.85" data-x="1605312000" r="1" fill="white"><title>2020-11-14: 15</title></circle>
	<circle cx="383.31" cy="330.23" data-y="13.47" data-x="1605398400" r="1" fill="white"><title>2020-11-15: 13</title></circle>
	<circle cx="384.76" cy="327.95" data-y="14.16" data-x="1605484800" r="1" fill="white"><title>2020-11-16: 14</title></circle>
	<circle cx="386.20" cy="328.86" data-y="13.88" data-x="1605571200" r="1" fill="white"><title>2020-11-17: 14</title></circle>
	<circle cx="387.65" cy="330.23" data-y="13.47" data-x="1605657600" r="1" fill="white"><title>2020-11-18: 13</title></circle>
	<circle cx="389.09" cy="330.69" data-y="13.33" data-x="1605744000" r="1" fill="white"><title>2020-11-19: 13</title></circle>
	<circle cx="390.54" cy="337.08" data-y="11.41" data-x="1605830400" r="1" fill="white"><title>2020-11-20: 11</title></circle>
	<circle cx="391.98" cy="342.11" data-y="9.90" data-x="1605916800" r="1" fill="white"><title>2020-11-21: 10</title></circle>
	<circle cx="393.43" cy="339.37" data-y="10.72" data-x="1606003200" r="1" fill="white"><title>2020-11-22: 11</title></circle>
	<circle cx="394.87" cy="342.57" data-y="9.76" data-x="1606089600" r="1" fill="white"><title>2020-11-23: 10</title></circle>
	<circle cx="396.31" cy="343.94" data-y="9.35" data-x="1606176000" r="1" fill="white"><title>2020-11-24: 9</title></circle>
	<circle cx="397.76" cy="343.02" data-y="9.62" data-x="1606262400" r="1" fill="white"><title>2020-11-25: 10</title></circle>
	<circle cx="399.20" cy="343.48" data-y="9.48" data-x="1606348800" r="1" fill="white"><title>2020-11-26: 9</title></circle>
	<circle cx="400.65" cy="345.31" data-y="8.94" data-x="1606435200" r="1" fill="white"><title>2020-11-27: 9</title></circle>
	<circle cx="402.09" cy="345.31" data-y="8.94" data-x="1606521600" r="1" fill="white"><title>2020-11-28: 9</title></circle>
	<circle cx="403.54" cy="349.42" data-y="7.70" data-x="1606608000" r="1" fill="white"><title>2020-11-29: 8</title></circle>
	<circle cx="404.98" cy="353.53" data-y="6.46" data-x="1606694400" r="1" fill="white"><title>2020-11-30: 6</title></circle>
	<circle cx="406.43" cy="354.90" data-y="6.05" data-x="1606780800" r="1" fill="white"><title>2020-12-01: 6</title></circle>
	<circle cx="407.87" cy="354.90" data-y="6.05" data-x="1606867200" r="1" fill="white"><title>2020-12-02: 6</title></circle>
	<circle cx="409.32" cy="353.99" data-y="6.32" data-x="1606953600" r="1" fill="white"><title>2020-12-03: 6</title></circle>
	<circle cx="410.76" cy="351.25" data-y="7.15" data-x="1607040000" r="1" fill="white"><title>2020-12-04: 7</title></circle>
	<circle cx="412.21" cy="344.85" data-y="9.07" data-x="1607126400" r="1" fill="white"><title>2020-12-05: 9</title></circle>
	<circle cx="413.65" cy="342.11" data-y="9.90" data-x="1607212800" r="1" fill="white"><title>2020-12-06: 10</title></circle>
	<circle cx="415.10" cy="339.37" data-y="10.72" data-x="1607299200" r="1" fill="white"><title>2020-12-07: 11</title></circle>
	<circle cx="416.54" cy="326.12" data-y="14.71" data-x="1607385600" r="1" fill="white"><title>2020-12-08: 15</title></circle>
	<circle cx="417.99" cy="322.47" data-y="15.81" data-x="1607472000" r="1" fill="white"><title>2020-12-09: 16</title></circle>
	<circle cx="419.43" cy="317.90" data-y="17.18" data-x="1607558400" r="1" fill="white"><title>2020-12-10: 17</title></circle>
	<circle cx="420.88" cy="301.45" data-y="22.13" data-x="1607644800" r="1" fill="white"><title>2020-12-11: 22</title></circle>
	<circle cx="422.32" cy="295.06" data-y="24.06" data-x="1607731200" r="1" fill="white"><title>2020-12-12: 24</title></circle>
	<circle cx="423.77" cy="274.50" data-y="30.24" data-x="1607817600" r="1" fill="white"><title>2020-12-13: 30</title></circle>
	<circle cx="425.21" cy="258.51" data-y="35.05" data-x="1607904000" r="1" fill="white"><title>2020-12-14: 35</title></circle>
	<circle cx="426.66" cy="248.46" data-y="38.08" data-x="1607990400" r="1" fill="white"><title>2020-12-15: 38</title></circle>
	<circle cx="428.10" cy="241.15" data-y="40.28" data-x="1608076800" r="1" fill="white"><title>2020-12-16: 40</title></circle>
	<circle cx="429.55" cy="220.59" data-y="46.46" data-x="1608163200" r="1" fill="white"><title>2020-12-17: 46</title></circle>
	<circle cx="430.99" cy="203.69" data-y="51.55" data-x="1608249600" r="1" fill="white"><title>2020-12-18: 52</title></circle>
	<circle cx="432.44" cy="176.28" data-y="59.80" data-x="1608336000" r="1" fill="white"><title>2020-12-19: 60</title></circle>
	<circle cx="433.88" cy="178.11" data-y="59.25" data-x="1608422400" r="1" fill="white"><title>2020-12-20: 59</title></circle>
	<circle cx="435.32" cy="166.23" data-y="62.82" data-x="1608508800" r="1" fill="white"><title>2020-12-21: 63</title></circle>
	<circle cx="436.77" cy="187.25" data-y="56.50" data-x="1608595200" r="1" fill="white"><title>2020-12-22: 56</title></circle>
	<circle cx="438.21" cy="174.46" data-y="60.35" data-x="1608681600" r="1" fill="white"><title>2020-12-23: 60</title></circle>
	<circle cx="439.66" cy="167.15" data-y="62.55" data-x="1608768000" r="1" fill="white"><title>2020-12-24: 63</title></circle>
	<circle cx="441.10" cy="172.17" data-y="61.03" data-x="1608854400" r="1" fill="white"><title>2020-12-25: 61</title></circle>
	<circle cx="442.55" cy="148.87" data-y="68.04" data-x="1608940800" r="1" fill="white"><title>2020-12-26: 68</title></circle>
	<circle cx="443.99" cy="104.11" data-y="81.51" data-x="1609027200" r="1" fill="white"><title>2020-12-27: 82</title></circle>
	<circle cx="445.44" cy="95.88" data-y="83.99" data-x="1609113600" r="1" fill="white"><title>2020-12-28: 84</title></circle>
	<circle cx="446.88" cy="67.56" data-y="92.51" data-x="1609200000" r="1" fill="white"><title>2020-12-29: 93</title></circle>
	<circle cx="448.33" cy="46.09" data-y="98.97" data-x="1609286400" r="1" fill="white"><title>2020-12-30: 99</title></circle>
	<circle cx="449.77" cy="49.74" data-y="97.87" data-x="1609372800" r="1" fill="white"><title>2020-12-31: 98</title></circle>
	<circle cx="451.22" cy="10.00" data-y="109.83" data-x="1609459200" r="1" fill="white"><title>2021-01-01: 110</title></circle>
	<circle cx="452.66" cy="12.74" data-y="109.01" data-x="1609545600" r="1" fill="white"><title>2021-01-02: 109</title></circle>
	<circle cx="454.11" cy="34.67" data-y="102.41" data-x="1609632000" r="1" fill="white"><title>2021-01-03: 102</title></circle>
	<circle cx="455.55" cy="29.64" data-y="103.92" data-x="1609718400" r="1" fill="white"><title>2021-01-04: 104</title></circle>
	<circle cx="457.00" cy="31.47" data-y="103.37" data-x="1609804800" r="1" fill="white"><title>2021-01-05: 103</title></circle>
	<circle cx="458.44" cy="52.94" data-y="96.91" data-x="1609891200" r="1" fill="white"><title>2021-01-06: 97</title></circle>
	<circle cx="459.89" cy="53.85" data-y="96.64" data-x="1609977600" r="1" fill="white"><title>2021-01-07: 97</title></circle>
	<circle cx="461.33" cy="99.08" data-y="83.03" data-x="1610064000" r="1" fill="white"><title>2021-01-08: 83</title></circle>
	<circle cx="462.78" cy="150.24" data-y="67.63" data-x="1610150400" r="1" fill="white"><title>2021-01-09: 68</title></circle>
</g>
<g data-series="recent-cases" class="data-series">
	<path d="M 462.78,150.24L 464.22,196.84L 465.67,241.61L 467.11,256.15L 468.56,270.11L 470.00,295.86" id="Recent cases" class="line" stroke-width="1" stroke-linecap="round" stroke-dasharray="4,6" stroke-dashoffset="4"><title>Recent cases</title></path>
	<circle cx="462.78" cy="150.24" data-y="67.63" data-x="1610150400" r="2.5" fill="white"><title>2021-01-09: 68</title></circle>
	<circle cx="464.22" cy="196.84" data-y="53.61" data-x="1610236800" r="2.5" fill="white"><title>2021-01-10: 54</title></circle>
	<circle cx="465.67" cy="241.61" data-y="40.14" data-x="1610323200" r="2.5" fill="white"><title>2021-01-11: 40</title></circle>
	<circle cx="467.11" cy="256.15" data-y="35.76" data-x="1610409600" r="2.5" fill="white"><title>2021-01-12: 36</title></circle>
	<circle cx="468.56" cy="270.11" data-y="31.56" data-x="1610496000" r="2.5" fill="white"><title>2021-01-13: 32</title></circle>
	<circle cx="470.00" cy="295.86" data-y="23.82" data-x="1610582400" r="2.5" fill="white"><title>2021-01-14: 24</title></circle>
</g>
</svg>
