<svg width="480" height="400" viewBox="0 0 480 400" xmlns="http://www.w3.org/2000/svg" style="overflow:display" preserveAspectRatio="xMinYMin meet" overflow="visible">
<defs>
	<style>
	.data-series path.line { fill-opacity: 0; stroke: black; }
	.data-series path.line.dotted { stroke-dasharray: 12 20 }
	.data-series:hover path.line, .data-series.on path.line { stroke-width: 1; }
	.data-series:hover circle, .data-series.on circle { display: inline; }
	.graph-grid { font-family: "Helvetica Neue",Helvetica,Arial,"Lucida Grande",sans-serif; }
	.graph-grid line { stroke: black; stroke-width: 1; stroke-linecap: round; }
	.graph-grid.graph-grid-x text { text-anchor: middle; dominant-baseline: hanging; transform: translateY(10px); }
	.graph-grid.graph-grid-y text { text-anchor: end; dominant-baseline: middle; transform: translateX(-10px); }
	</style>
</defs>
<g class="graph-grid graph-grid-y">
	<line x1="25.00" y1="375.00" x2="470.00" y2="375.00" data-left="25"></line>
	<text x="35" y="375" text-anchor="end">0</text>
	<text x="35" y="253.519204819277" text-anchor="end">20</text>
	<text x="35" y="132.038409638554" text-anchor="end">40</text>
	<text x="35" y="10.5576144578314" text-anchor="end">60</text>
	<text style="text-anchor:middle;dominant-baseline:hanging;font-weight:bold;transform: translateY(192.5px) rotate(-90deg);"></text>
</g>
<g class="graph-grid graph-grid-x">
	<line class="tick" x1="46.27" y1="375.00" x2="46.27" y2="380.00"></line>
	<text x="46.2749003984064" y="375" text-anchor="middle">A</text>
	<line class="tick" x1="99.46" y1="375.00" x2="99.46" y2="380.00"></line>
	<text x="99.4621513944223" y="375" text-anchor="middle">M</text>
	<line class="tick" x1="154.42" y1="375.00" x2="154.42" y2="380.00"></line>
	<text x="154.422310756972" y="375" text-anchor="middle">J</text>
	<line class="tick" x1="207.61" y1="375.00" x2="207.61" y2="380.00"></line>
	<text x="207.609561752988" y="375" text-anchor="middle">J</text>
	<line class="tick" x1="262.57" y1="375.00" x2="262.57" y2="380.00"></line>
	<text x="262.569721115538" y="375" text-anchor="middle">A</text>
	<line class="tick" x1="317.53" y1="375.00" x2="317.53" y2="380.00"></line>
	<text x="317.529880478088" y="375" text-anchor="middle">S</text>
	<line class="tick" x1="370.72" y1="375.00" x2="370.72" y2="380.00"></line>
	<text x="370.717131474104" y="375" text-anchor="middle">O</text>
	<line class="tick" x1="425.68" y1="375.00" x2="425.68" y2="380.00"></line>
	<text x="425.677290836653" y="375" text-anchor="middle">N</text>
	<text style="text-anchor:middle;dominant-baseline:hanging;font-weight:bold;transform: translateY(192.5px) rotate(-90deg);"></text>
</g>
<g data-series="widespread" class="data-series">
	<path d="M 25.00,332.48L 470.00,332.48" id="E07000197-level-0" class="line" stroke-width="1" stroke-linecap="round" stroke-dasharray="3,3" fill-opacity="0.3" opacity="0.3"><title>Widespread</title></path>
</g>
<g data-series="substantial" class="data-series">
	<path d="M 25.00,350.70L 470.00,350.70" id="E07000197-level-1" class="line" stroke-width="1" stroke-linecap="round" stroke-dasharray="3,3" fill-opacity="0.3" opacity="0.3"><title>Substantial</title></path>
</g>
<g data-series="moderate" class="data-series">
	<path d="M 25.00,368.93L 470.00,368.93" id="E07000197-level-2" class="line" stroke-width="1" stroke-linecap="round" stroke-dasharray="3,3" fill-opacity="0.3" opacity="0.3"><title>Moderate</title></path>
</g>
<g data-series="new-cases" class="data-series">
	<path d="M 25.00,371.70L 26.77,370.60L 28.55,369.87L 30.32,370.60L 32.09,371.23L 33.86,369.97L 35.64,368.09L 37.41,364.95L 39.18,364.32L 40.96,361.81L 42.73,356.78L 44.50,356.15L 46.27,356.15L 48.05,354.90L 49.82,356.78L 51.59,353.01L 53.37,351.13L 55.14,346.73L 56.91,340.45L 58.69,339.82L 60.46,339.19L 62.23,336.05L 64.00,339.82L 65.78,341.08L 67.55,340.45L 69.32,341.08L 71.10,335.42L 72.87,336.05L 74.64,335.42L 76.41,331.65L 78.19,317.83L 79.96,312.18L 81.73,309.04L 83.51,310.92L 85.28,309.04L 87.05,307.15L 88.82,302.13L 90.60,313.43L 92.37,322.23L 94.14,324.74L 95.92,322.86L 97.69,326.00L 99.46,330.40L 101.24,336.05L 103.01,336.05L 104.78,339.19L 106.55,342.96L 108.33,349.87L 110.10,349.24L 111.87,349.24L 113.65,347.99L 115.42,351.13L 117.19,344.22L 118.96,341.08L 120.74,336.05L 122.51,337.31L 124.28,337.93L 126.06,342.96L 127.83,342.33L 129.60,347.99L 131.37,353.01L 133.15,355.52L 134.92,353.64L 136.69,355.52L 138.47,354.90L 140.24,355.52L 142.01,358.04L 143.78,355.52L 145.56,357.41L 147.33,360.55L 149.10,358.67L 150.88,357.41L 152.65,358.67L 154.42,360.55L 156.20,363.69L 157.97,365.58L 159.74,364.95L 161.51,367.46L 163.29,369.97L 165.06,371.23L 166.83,371.86L 168.61,372.49L 170.38,371.23L 172.15,371.86L 173.92,369.97L 175.70,368.72L 177.47,367.46L 179.24,363.69L 181.02,363.06L 182.79,364.32L 184.56,363.69L 186.33,364.95L 188.11,366.20L 189.88,368.09L 191.65,369.97L 193.43,369.35L 195.20,369.35L 196.97,369.35L 198.75,368.72L 200.52,368.09L 202.29,368.09L 204.06,368.72L 205.84,369.35L 207.61,368.72L 209.38,369.35L 211.16,369.97L 212.93,370.60L 214.70,371.23L 216.47,372.49L 218.25,372.49L 220.02,373.12L 221.79,372.49L 223.57,372.49L 225.34,370.60L 227.11,370.60L 228.88,370.60L 230.66,371.23L 232.43,371.23L 234.20,371.86L 235.98,372.49L 237.75,375.00L 239.52,373.74L 241.29,373.12L 243.07,373.12L 244.84,372.49L 246.61,372.49L 248.39,371.86L 250.16,369.35L 251.93,368.72L 253.71,368.72L 255.48,368.72L 257.25,368.09L 259.02,368.09L 260.80,367.46L 262.57,369.35L 264.34,371.23L 266.12,370.60L 267.89,369.97L 269.66,371.23L 271.43,369.97L 273.21,371.23L 274.98,371.86L 276.75,371.86L 278.53,372.49L 280.30,369.97L 282.07,369.97L 283.84,371.23L 285.62,370.60L 287.39,369.35L 289.16,368.72L 290.94,368.72L 292.71,371.23L 294.48,370.60L 296.25,370.60L 298.03,371.23L 299.80,371.23L 301.57,369.97L 303.35,370.60L 305.12,369.35L 306.89,369.97L 308.67,369.35L 310.44,368.09L 312.21,369.35L 313.98,366.20L 315.76,364.32L 317.53,362.44L 319.30,359.29L 321.08,356.78L 322.85,355.52L 324.62,353.01L 326.39,353.64L 328.17,351.76L 329.94,354.90L 331.71,356.15L 333.49,358.04L 335.26,356.15L 337.03,350.50L 338.80,353.01L 340.58,353.64L 342.35,347.99L 344.12,344.85L 345.90,342.33L 347.67,342.96L 349.44,344.22L 351.22,339.19L 352.99,340.45L 354.76,342.96L 356.53,340.45L 358.31,338.56L 360.08,336.68L 361.85,323.49L 363.63,322.86L 365.40,315.95L 367.17,299.61L 368.94,297.10L 370.72,296.47L 372.49,285.16L 374.26,280.14L 376.04,273.23L 377.81,269.46L 379.58,278.25L 381.35,278.88L 383.13,271.97L 384.90,246.84L 386.67,260.03L 388.45,254.38L 390.22,247.47L 391.99,241.82L 393.76,235.53L 395.54,233.65L 397.31,238.05L 399.08,219.83L 400.86,204.75L 402.63,204.75L 404.40,200.35L 406.18,185.28L 407.95,175.85L 409.72,170.83L 411.49,153.86L 413.27,150.72L 415.04,119.94L 416.81,89.78L 418.59,89.16L 420.36,92.30L 422.13,57.75L 423.90,48.32L 425.68,31.36L 427.45,35.76L 429.22,33.87L 431.00,29.48L 432.77,16.28L 434.54,36.39L 436.31,32.62L 438.09,21.94L 439.86,10.00L 441.63,20.68L 443.41,17.54L 445.18,20.05L 446.95,16.91L 448.73,30.10L 450.50,52.72L 452.27,66.54L 454.04,77.22L 455.82,89.78L 457.59,101.72L 459.36,125.59L 461.14,137.53" id="New cases" class="line" stroke-width="1" stroke-linecap="round"><title>New cases</title></path>
	<circle cx="25.00" cy="371.70" data-y="0.54" data-x="1584662400" r="1" fill="white"><title>2020-03-20: 1</title></circle>
	<circle cx="26.77" cy="370.60" data-y="0.72" data-x="1584748800" r="1" fill="white"><title>2020-03-21: 1</title></circle>
	<circle cx="28.55" cy="369.87" data-y="0.84" data-x="1584835200" r="1" fill="white"><title>2020-03-22: 1</title></circle>
	<circle cx="30.32" cy="370.60" data-y="0.72" data-x="1584921600" r="1" fill="white"><title>2020-03-23: 1</title></circle>
	<circle cx="32.09" cy="371.23" data-y="0.62" data-x="1585008000" r="1" fill="white"><title>2020-03-24: 1</title></circle>
	<circle cx="33.86" cy="369.97" data-y="0.83" data-x="1585094400" r="1" fill="white"><title>2020-03-25: 1</title></circle>
	<circle cx="35.64" cy="368.09" data-y="1.14" data-x="1585180800" r="1" fill="white"><title>2020-03-26: 1</title></circle>
	<circle cx="37.41" cy="364.95" data-y="1.65" data-x="1585267200" r="1" fill="white"><title>2020-03-27: 2</title></circle>
	<circle cx="39.18" cy="364.32" data-y="1.76" data-x="1585353600" r="1" fill="white"><title>2020-03-28: 2</title></circle>
	<circle cx="40.96" cy="361.81" data-y="2.17" data-x="1585440000" r="1" fill="white"><title>2020-03-29: 2</title></circle>
	<circle cx="42.73" cy="356.78" data-y="3.00" data-x="1585526400" r="1" fill="white"><title>2020-03-30: 3</title></circle>
	<circle cx="44.50" cy="356.15" data-y="3.10" data-x="1585612800" r="1" fill="white"><title>2020-03-31: 3</title></circle>
	<circle cx="46.27" cy="356.15" data-y="3.10" data-x="1585699200" r="1" fill="white"><title>2020-04-01: 3</title></circle>
	<circle cx="48.05" cy="354.90" data-y="3.31" data-x="1585785600" r="1" fill="white"><title>2020-04-02: 3</title></circle>
	<circle cx="49.82" cy="356.78" data-y="3.00" data-x="1585872000" r="1" fill="white"><title>2020-04-03: 3</title></circle>
	<circle cx="51.59" cy="353.01" data-y="3.62" data-x="1585958400" r="1" fill="white"><title>2020-04-04: 4</title></circle>
	<circle cx="53.37" cy="351.13" data-y="3.93" data-x="1586044800" r="1" fill="white"><title>2020-04-05: 4</title></circle>
	<circle cx="55.14" cy="346.73" data-y="4.65" data-x="1586131200" r="1" fill="white"><title>2020-04-06: 5</title></circle>
	<circle cx="56.91" cy="340.45" data-y="5.69" data-x="1586217600" r="1" fill="white"><title>2020-04-07: 6</title></circle>
	<circle cx="58.69" cy="339.82" data-y="5.79" data-x="1586304000" r="1" fill="white"><title>2020-04-08: 6</title></circle>
	<circle cx="60.46" cy="339.19" data-y="5.90" data-x="1586390400" r="1" fill="white"><title>2020-04-09: 6</title></circle>
	<circle cx="62.23" cy="336.05" data-y="6.41" data-x="1586476800" r="1" fill="white"><title>2020-04-10: 6</title></circle>
	<circle cx="64.00" cy="339.82" data-y="5.79" data-x="1586563200" r="1" fill="white"><title>2020-04-11: 6</title></circle>
	<circle cx="65.78" cy="341.08" data-y="5.59" data-x="1586649600" r="1" fill="white"><title>2020-04-12: 6</title></circle>
	<circle cx="67.55" cy="340.45" data-y="5.69" data-x="1586736000" r="1" fill="white"><title>2020-04-13: 6</title></circle>
	<circle cx="69.32" cy="341.08" data-y="5.59" data-x="1586822400" r="1" fill="white"><title>2020-04-14: 6</title></circle>
	<circle cx="71.10" cy="335.42" data-y="6.52" data-x="1586908800" r="1" fill="white"><title>2020-04-15: 7</title></circle>
	<circle cx="72.87" cy="336.05" data-y="6.41" data-x="1586995200" r="1" fill="white"><title>2020-04-16: 6</title></circle>
	<circle cx="74.64" cy="335.42" data-y="6.52" data-x="1587081600" r="1" fill="white"><title>2020-04-17: 7</title></circle>
	<circle cx="76.41" cy="331.65" data-y="7.14" data-x="1587168000" r="1" fill="white"><title>2020-04-18: 7</title></circle>
	<circle cx="78.19" cy="317.83" data-y="9.41" data-x="1587254400" r="1" fill="white"><title>2020-04-19: 9</title></circle>
	<circle cx="79.96" cy="312.18" data-y="10.34" data-x="1587340800" r="1" fill="white"><title>2020-04-20: 10</title></circle>
	<circle cx="81.73" cy="309.04" data-y="10.86" data-x="1587427200" r="1" fill="white"><title>2020-04-21: 11</title></circle>
	<circle cx="83.51" cy="310.92" data-y="10.55" data-x="1587513600" r="1" fill="white"><title>2020-04-22: 11</title></circle>
	<circle cx="85.28" cy="309.04" data-y="10.86" data-x="1587600000" r="1" fill="white"><title>2020-04-23: 11</title></circle>
	<circle cx="87.05" cy="307.15" data-y="11.17" data-x="1587686400" r="1" fill="white"><title>2020-04-24: 11</title></circle>
	<circle cx="88.82" cy="302.13" data-y="12.00" data-x="1587772800" r="1" fill="white"><title>2020-04-25: 12</title></circle>
	<circle cx="90.60" cy="313.43" data-y="10.14" data-x="1587859200" r="1" fill="white"><title>2020-04-26: 10</title></circle>
	<circle cx="92.37" cy="322.23" data-y="8.69" data-x="1587945600" r="1" fill="white"><title>2020-04-27: 9</title></circle>
	<circle cx="94.14" cy="324.74" data-y="8.27" data-x="1588032000" r="1" fill="white"><title>2020-04-28: 8</title></circle>
	<circle cx="95.92" cy="322.86" data-y="8.58" data-x="1588118400" r="1" fill="white"><title>2020-04-29: 9</title></circle>
	<circle cx="97.69" cy="326.00" data-y="8.07" data-x="1588204800" r="1" fill="white"><title>2020-04-30: 8</title></circle>
	<circle cx="99.46" cy="330.40" data-y="7.34" data-x="1588291200" r="1" fill="white"><title>2020-05-01: 7</title></circle>
	<circle cx="101.24" cy="336.05" data-y="6.41" data-x="1588377600" r="1" fill="white"><title>2020-05-02: 6</title></circle>
	<circle cx="103.01" cy="336.05" data-y="6.41" data-x="1588464000" r="1" fill="white"><title>2020-05-03: 6</title></circle>
	<circle cx="104.78" cy="339.19" data-y="5.90" data-x="1588550400" r="1" fill="white"><title>2020-05-04: 6</title></circle>
	<circle cx="106.55" cy="342.96" data-y="5.27" data-x="1588636800" r="1" fill="white"><title>2020-05-05: 5</title></circle>
	<circle cx="108.33" cy="349.87" data-y="4.14" data-x="1588723200" r="1" fill="white"><title>2020-05-06: 4</title></circle>
	<circle cx="110.10" cy="349.24" data-y="4.24" data-x="1588809600" r="1" fill="white"><title>2020-05-07: 4</title></circle>
	<circle cx="111.87" cy="349.24" data-y="4.24" data-x="1588896000" r="1" fill="white"><title>2020-05-08: 4</title></circle>
	<circle cx="113.65" cy="347.99" data-y="4.45" data-x="1588982400" r="1" fill="white"><title>2020-05-09: 4</title></circle>
	<circle cx="115.42" cy="351.13" data-y="3.93" data-x="1589068800" r="1" fill="white"><title>2020-05-10: 4</title></circle>
	<circle cx="117.19" cy="344.22" data-y="5.07" data-x="1589155200" r="1" fill="white"><title>2020-05-11: 5</title></circle>
	<circle cx="118.96" cy="341.08" data-y="5.59" data-x="1589241600" r="1" fill="white"><title>2020-05-12: 6</title></circle>
	<circle cx="120.74" cy="336.05" data-y="6.41" data-x="1589328000" r="1" fill="white"><title>2020-05-13: 6</title></circle>
	<circle cx="122.51" cy="337.31" data-y="6.21" data-x="1589414400" r="1" fill="white"><title>2020-05-14: 6</title></circle>
	<circle cx="124.28" cy="337.93" data-y="6.10" data-x="1589500800" r="1" fill="white"><title>2020-05-15: 6</title></circle>
	<circle cx="126.06" cy="342.96" data-y="5.27" data-x="1589587200" r="1" fill="white"><title>2020-05-16: 5</title></circle>
	<circle cx="127.83" cy="342.33" data-y="5.38" data-x="1589673600" r="1" fill="white"><title>2020-05-17: 5</title></circle>
	<circle cx="129.60" cy="347.99" data-y="4.45" data-x="1589760000" r="1" fill="white"><title>2020-05-18: 4</title></circle>
	<circle cx="131.37" cy="353.01" data-y="3.62" data-x="1589846400" r="1" fill="white"><title>2020-05-19: 4</title></circle>
	<circle cx="133.15" cy="355.52" data-y="3.21" data-x="1589932800" r="1" fill="white"><title>2020-05-20: 3</title></circle>
	<circle cx="134.92" cy="353.64" data-y="3.52" data-x="1590019200" r="1" fill="white"><title>2020-05-21: 4</title></circle>
	<circle cx="136.69" cy="355.52" data-y="3.21" data-x="1590105600" r="1" fill="white"><title>2020-05-22: 3</title></circle>
	<circle cx="138.47" cy="354.90" data-y="3.31" data-x="1590192000" r="1" fill="white"><title>2020-05-23: 3</title></circle>
	<circle cx="140.24" cy="355.52" data-y="3.21" data-x="1590278400" r="1" fill="white"><title>2020-05-24: 3</title></circle>
	<circle cx="142.01" cy="358.04" data-y="2.79" data-x="1590364800" r="1" fill="white"><title>2020-05-25: 3</title></circle>
	<circle cx="143.78" cy="355.52" data-y="3.21" data-x="1590451200" r="1" fill="white"><title>2020-05-26: 3</title></circle>
	<circle cx="145.56" cy="357.41" data-y="2.90" data-x="1590537600" r="1" fill="white"><title>2020-05-27: 3</title></circle>
	<circle cx="147.33" cy="360.55" data-y="2.38" data-x="1590624000" r="1" fill="white"><title>2020-05-28: 2</title></circle>
	<circle cx="149.10" cy="358.67" data-y="2.69" data-x="1590710400" r="1" fill="white"><title>2020-05-29: 3</title></circle>
	<circle cx="150.88" cy="357.41" data-y="2.90" data-x="1590796800" r="1" fill="white"><title>2020-05-30: 3</title></circle>
	<circle cx="152.65" cy="358.67" data-y="2.69" data-x="1590883200" r="1" fill="white"><title>2020-05-31: 3</title></circle>
	<circle cx="154.42" cy="360.55" data-y="2.38" data-x="1590969600" r="1" fill="white"><title>2020-06-01: 2</title></circle>
	<circle cx="156.20" cy="363.69" data-y="1.86" data-x="1591056000" r="1" fill="white"><title>2020-06-02: 2</title></circle>
	<circle cx="157.97" cy="365.58" data-y="1.55" data-x="1591142400" r="1" fill="white"><title>2020-06-03: 2</title></circle>
	<circle cx="159.74" cy="364.95" data-y="1.65" data-x="1591228800" r="1" fill="white"><title>2020-06-04: 2</title></circle>
	<circle cx="161.51" cy="367.46" data-y="1.24" data-x="1591315200" r="1" fill="white"><title>2020-06-05: 1</title></circle>
	<circle cx="163.29" cy="369.97" data-y="0.83" data-x="1591401600" r="1" fill="white"><title>2020-06-06: 1</title></circle>
	<circle cx="165.06" cy="371.23" data-y="0.62" data-x="1591488000" r="1" fill="white"><title>2020-06-07: 1</title></circle>
	<circle cx="166.83" cy="371.86" data-y="0.52" data-x="1591574400" r="1" fill="white"><title>2020-06-08: 1</title></circle>
	<circle cx="168.61" cy="372.49" data-y="0.41" data-x="1591660800" r="1" fill="white"><title>2020-06-09: 0</title></circle>
	<circle cx="170.38" cy="371.23" data-y="0.62" data-x="1591747200" r="1" fill="white"><title>2020-06-10: 1</title></circle>
	<circle cx="172.15" cy="371.86" data-y="0.52" data-x="1591833600" r="1" fill="white"><title>2020-06-11: 1</title></circle>
	<circle cx="173.92" cy="369.97" data-y="0.83" data-x="1591920000" r="1" fill="white"><title>2020-06-12: 1</title></circle>
	<circle cx="175.70" cy="368.72" data-y="1.03" data-x="1592006400" r="1" fill="white"><title>2020-06-13: 1</title></circle>
	<circle cx="177.47" cy="367.46" data-y="1.24" data-x="1592092800" r="1" fill="white"><title>2020-06-14: 1</title></circle>
	<circle cx="179.24" cy="363.69" data-y="1.86" data-x="1592179200" r="1" fill="white"><title>2020-06-15: 2</title></circle>
	<circle cx="181.02" cy="363.06" data-y="1.97" data-x="1592265600" r="1" fill="white"><title>2020-06-16: 2</title></circle>
	<circle cx="182.79" cy="364.32" data-y="1.76" data-x="1592352000" r="1" fill="white"><title>2020-06-17: 2</title></circle>
	<circle cx="184.56" cy="363.69" data-y="1.86" data-x="1592438400" r="1" fill="white"><title>2020-06-18: 2</title></circle>
	<circle cx="186.33" cy="364.95" data-y="1.65" data-x="1592524800" r="1" fill="white"><title>2020-06-19: 2</title></circle>
	<circle cx="188.11" cy="366.20" data-y="1.45" data-x="1592611200" r="1" fill="white"><title>2020-06-20: 1</title></circle>
	<circle cx="189.88" cy="368.09" data-y="1.14" data-x="1592697600" r="1" fill="white"><title>2020-06-21: 1</title></circle>
	<circle cx="191.65" cy="369.97" data-y="0.83" data-x="1592784000" r="1" fill="white"><title>2020-06-22: 1</title></circle>
	<circle cx="193.43" cy="369.35" data-y="0.93" data-x="1592870400" r="1" fill="white"><title>2020-06-23: 1</title></circle>
	<circle cx="195.20" cy="369.35" data-y="0.93" data-x="1592956800" r="1" fill="white"><title>2020-06-24: 1</title></circle>
	<circle cx="196.97" cy="369.35" data-y="0.93" data-x="1593043200" r="1" fill="white"><title>2020-06-25: 1</title></circle>
	<circle cx="198.75" cy="368.72" data-y="1.03" data-x="1593129600" r="1" fill="white"><title>2020-06-26: 1</title></circle>
	<circle cx="200.52" cy="368.09" data-y="1.14" data-x="1593216000" r="1" fill="white"><title>2020-06-27: 1</title></circle>
	<circle cx="202.29" cy="368.09" data-y="1.14" data-x="1593302400" r="1" fill="white"><title>2020-06-28: 1</title></circle>
	<circle cx="204.06" cy="368.72" data-y="1.03" data-x="1593388800" r="1" fill="white"><title>2020-06-29: 1</title></circle>
	<circle cx="205.84" cy="369.35" data-y="0.93" data-x="1593475200" r="1" fill="white"><title>2020-06-30: 1</title></circle>
	<circle cx="207.61" cy="368.72" data-y="1.03" data-x="1593561600" r="1" fill="white"><title>2020-07-01: 1</title></circle>
	<circle cx="209.38" cy="369.35" data-y="0.93" data-x="1593648000" r="1" fill="white"><title>2020-07-02: 1</title></circle>
	<circle cx="211.16" cy="369.97" data-y="0.83" data-x="1593734400" r="1" fill="white"><title>2020-07-03: 1</title></circle>
	<circle cx="212.93" cy="370.60" data-y="0.72" data-x="1593820800" r="1" fill="white"><title>2020-07-04: 1</title></circle>
	<circle cx="214.70" cy="371.23" data-y="0.62" data-x="1593907200" r="1" fill="white"><title>2020-07-05: 1</title></circle>
	<circle cx="216.47" cy="372.49" data-y="0.41" data-x="1593993600" r="1" fill="white"><title>2020-07-06: 0</title></circle>
	<circle cx="218.25" cy="372.49" data-y="0.41" data-x="1594080000" r="1" fill="white"><title>2020-07-07: 0</title></circle>
	<circle cx="220.02" cy="373.12" data-y="0.31" data-x="1594166400" r="1" fill="white"><title>2020-07-08: 0</title></circle>
	<circle cx="221.79" cy="372.49" data-y="0.41" data-x="1594252800" r="1" fill="white"><title>2020-07-09: 0</title></circle>
	<circle cx="223.57" cy="372.49" data-y="0.41" data-x="1594339200" r="1" fill="white"><title>2020-07-10: 0</title></circle>
	<circle cx="225.34" cy="370.60" data-y="0.72" data-x="1594425600" r="1" fill="white"><title>2020-07-11: 1</title></circle>
	<circle cx="227.11" cy="370.60" data-y="0.72" data-x="1594512000" r="1" fill="white"><title>2020-07-12: 1</title></circle>
	<circle cx="228.88" cy="370.60" data-y="0.72" data-x="1594598400" r="1" fill="white"><title>2020-07-13: 1</title></circle>
	<circle cx="230.66" cy="371.23" data-y="0.62" data-x="1594684800" r="1" fill="white"><title>2020-07-14: 1</title></circle>
	<circle cx="232.43" cy="371.23" data-y="0.62" data-x="1594771200" r="1" fill="white"><title>2020-07-15: 1</title></circle>
	<circle cx="234.20" cy="371.86" data-y="0.52" data-x="1594857600" r="1" fill="white"><title>2020-07-16: 1</title></circle>
	<circle cx="235.98" cy="372.49" data-y="0.41" data-x="1594944000" r="1" fill="white"><title>2020-07-17: 0</title></circle>
	<circle cx="237.75" cy="375.00" data-y="0.00" data-x="1595030400" r="1" fill="white"><title>2020-07-18: 0</title></circle>
	<circle cx="239.52" cy="373.74" data-y="0.21" data-x="1595116800" r="1" fill="white"><title>2020-07-19: 0</title></circle>
	<circle cx="241.29" cy="373.12" data-y="0.31" data-x="1595203200" r="1" fill="white"><title>2020-07-20: 0</title></circle>
	<circle cx="243.07" cy="373.12" data-y="0.31" data-x="1595289600" r="1" fill="white"><title>2020-07-21: 0</title></circle>
	<circle cx="244.84" cy="372.49" data-y="0.41" data-x="1595376000" r="1" fill="white"><title>2020-07-22: 0</title></circle>
	<circle cx="246.61" cy="372.49" data-y="0.41" data-x="1595462400" r="1" fill="white"><title>2020-07-23: 0</title></circle>
	<circle cx="248.39" cy="371.86" data-y="0.52" data-x="1595548800" r="1" fill="white"><title>2020-07-24: 1</title></circle>
	<circle cx="250.16" cy="369.35" data-y="0.93" data-x="1595635200" r="1" fill="white"><title>2020-07-25: 1</title></circle>
	<circle cx="251.93" cy="368.72" data-y="1.03" data-x="1595721600" r="1" fill="white"><title>2020-07-26: 1</title></circle>
	<circle cx="253.71" cy="368.72" data-y="1.03" data-x="1595808000" r="1" fill="white"><title>2020-07-27: 1</title></circle>
	<circle cx="255.48" cy="368.72" data-y="1.03" data-x="1595894400" r="1" fill="white"><title>2020-07-28: 1</title></circle>
	<circle cx="257.25" cy="368.09" data-y="1.14" data-x="1595980800" r="1" fill="white"><title>2020-07-29: 1</title></circle>
	<circle cx="259.02" cy="368.09" data-y="1.14" data-x="1596067200" r="1" fill="white"><title>2020-07-30: 1</title></circle>
	<circle cx="260.80" cy="367.46" data-y="1.24" data-x="1596153600" r="1" fill="white"><title>2020-07-31: 1</title></circle>
	<circle cx="262.57" cy="369.35" data-y="0.93" data-x="1596240000" r="1" fill="white"><title>2020-08-01: 1</title></circle>
	<circle cx="264.34" cy="371.23" data-y="0.62" data-x="1596326400" r="1" fill="white"><title>2020-08-02: 1</title></circle>
	<circle cx="266.12" cy="370.60" data-y="0.72" data-x="1596412800" r="1" fill="white"><title>2020-08-03: 1</title></circle>
	<circle cx="267.89" cy="369.97" data-y="0.83" data-x="1596499200" r="1" fill="white"><title>2020-08-04: 1</title></circle>
	<circle cx="269.66" cy="371.23" data-y="0.62" data-x="1596585600" r="1" fill="white"><title>2020-08-05: 1</title></circle>
	<circle cx="271.43" cy="369.97" data-y="0.83" data-x="1596672000" r="1" fill="white"><title>2020-08-06: 1</title></circle>
	<circle cx="273.21" cy="371.23" data-y="0.62" data-x="1596758400" r="1" fill="white"><title>2020-08-07: 1</title></circle>
	<circle cx="274.98" cy="371.86" data-y="0.52" data-x="1596844800" r="1" fill="white"><title>2020-08-08: 1</title></circle>
	<circle cx="276.75" cy="371.86" data-y="0.52" data-x="1596931200" r="1" fill="white"><title>2020-08-09: 1</title></circle>
	<circle cx="278.53" cy="372.49" data-y="0.41" data-x="1597017600" r="1" fill="white"><title>2020-08-10: 0</title></circle>
	<circle cx="280.30" cy="369.97" data-y="0.83" data-x="1597104000" r="1" fill="white"><title>2020-08-11: 1</title></circle>
	<circle cx="282.07" cy="369.97" data-y="0.83" data-x="1597190400" r="1" fill="white"><title>2020-08-12: 1</title></circle>
	<circle cx="283.84" cy="371.23" data-y="0.62" data-x="1597276800" r="1" fill="white"><title>2020-08-13: 1</title></circle>
	<circle cx="285.62" cy="370.60" data-y="0.72" data-x="1597363200" r="1" fill="white"><title>2020-08-14: 1</title></circle>
	<circle cx="287.39" cy="369.35" data-y="0.93" data-x="1597449600" r="1" fill="white"><title>2020-08-15: 1</title></circle>
	<circle cx="289.16" cy="368.72" data-y="1.03" data-x="1597536000" r="1" fill="white"><title>2020-08-16: 1</title></circle>
	<circle cx="290.94" cy="368.72" data-y="1.03" data-x="1597622400" r="1" fill="white"><title>2020-08-17: 1</title></circle>
	<circle cx="292.71" cy="371.23" data-y="0.62" data-x="1597708800" r="1" fill="white"><title>2020-08-18: 1</title></circle>
	<circle cx="294.48" cy="370.60" data-y="0.72" data-x="1597795200" r="1" fill="white"><title>2020-08-19: 1</title></circle>
	<circle cx="296.25" cy="370.60" data-y="0.72" data-x="1597881600" r="1" fill="white"><title>2020-08-20: 1</title></circle>
	<circle cx="298.03" cy="371.23" data-y="0.62" data-x="1597968000" r="1" fill="white"><title>2020-08-21: 1</title></circle>
	<circle cx="299.80" cy="371.23" data-y="0.62" data-x="1598054400" r="1" fill="white"><title>2020-08-22: 1</title></circle>
	<circle cx="301.57" cy="369.97" data-y="0.83" data-x="1598140800" r="1" fill="white"><title>2020-08-23: 1</title></circle>
	<circle cx="303.35" cy="370.60" data-y="0.72" data-x="1598227200" r="1" fill="white"><title>2020-08-24: 1</title></circle>
	<circle cx="305.12" cy="369.35" data-y="0.93" data-x="1598313600" r="1" fill="white"><title>2020-08-25: 1</title></circle>
	<circle cx="306.89" cy="369.97" data-y="0.83" data-x="1598400000" r="1" fill="white"><title>2020-08-26: 1</title></circle>
	<circle cx="308.67" cy="369.35" data-y="0.93" data-x="1598486400" r="1" fill="white"><title>2020-08-27: 1</title></circle>
	<circle cx="310.44" cy="368.09" data-y="1.14" data-x="1598572800" r="1" fill="white"><title>2020-08-28: 1</title></circle>
	<circle cx="312.21" cy="369.35" data-y="0.93" data-x="1598659200" r="1" fill="white"><title>2020-08-29: 1</title></circle>
	<circle cx="313.98" cy="366.20" data-y="1.45" data-x="1598745600" r="1" fill="white"><title>2020-08-30: 1</title></circle>
	<circle cx="315.76" cy="364.32" data-y="1.76" data-x="1598832000" r="1" fill="white"><title>2020-08-31: 2</title></circle>
	<circle cx="317.53" cy="362.44" data-y="2.07" data-x="1598918400" r="1" fill="white"><title>2020-09-01: 2</title></circle>
	<circle cx="319.30" cy="359.29" data-y="2.59" data-x="1599004800" r="1" fill="white"><title>2020-09-02: 3</title></circle>
	<circle cx="321.08" cy="356.78" data-y="3.00" data-x="1599091200" r="1" fill="white"><title>2020-09-03: 3</title></circle>
	<circle cx="322.85" cy="355.52" data-y="3.21" data-x="1599177600" r="1" fill="white"><title>2020-09-04: 3</title></circle>
	<circle cx="324.62" cy="353.01" data-y="3.62" data-x="1599264000" r="1" fill="white"><title>2020-09-05: 4</title></circle>
	<circle cx="326.39" cy="353.64" data-y="3.52" data-x="1599350400" r="1" fill="white"><title>2020-09-06: 4</title></circle>
	<circle cx="328.17" cy="351.76" data-y="3.83" data-x="1599436800" r="1" fill="white"><title>2020-09-07: 4</title></circle>
	<circle cx="329.94" cy="354.90" data-y="3.31" data-x="1599523200" r="1" fill="white"><title>2020-09-08: 3</title></circle>
	<circle cx="331.71" cy="356.15" data-y="3.10" data-x="1599609600" r="1" fill="white"><title>2020-09-09: 3</title></circle>
	<circle cx="333.49" cy="358.04" data-y="2.79" data-x="1599696000" r="1" fill="white"><title>2020-09-10: 3</title></circle>
	<circle cx="335.26" cy="356.15" data-y="3.10" data-x="1599782400" r="1" fill="white"><title>2020-09-11: 3</title></circle>
	<circle cx="337.03" cy="350.50" data-y="4.03" data-x="1599868800" r="1" fill="white"><title>2020-09-12: 4</title></circle>
	<circle cx="338.80" cy="353.01" data-y="3.62" data-x="1599955200" r="1" fill="white"><title>2020-09-13: 4</title></circle>
	<circle cx="340.58" cy="353.64" data-y="3.52" data-x="1600041600" r="1" fill="white"><title>2020-09-14: 4</title></circle>
	<circle cx="342.35" cy="347.99" data-y="4.45" data-x="1600128000" r="1" fill="white"><title>2020-09-15: 4</title></circle>
	<circle cx="344.12" cy="344.85" data-y="4.96" data-x="1600214400" r="1" fill="white"><title>2020-09-16: 5</title></circle>
	<circle cx="345.90" cy="342.33" data-y="5.38" data-x="1600300800" r="1" fill="white"><title>2020-09-17: 5</title></circle>
	<circle cx="347.67" cy="342.96" data-y="5.27" data-x="1600387200" r="1" fill="white"><title>2020-09-18: 5</title></circle>
	<circle cx="349.44" cy="344.22" data-y="5.07" data-x="1600473600" r="1" fill="white"><title>2020-09-19: 5</title></circle>
	<circle cx="351.22" cy="339.19" data-y="5.90" data-x="1600560000" r="1" fill="white"><title>2020-09-20: 6</title></circle>
	<circle cx="352.99" cy="340.45" data-y="5.69" data-x="1600646400" r="1" fill="white"><title>2020-09-21: 6</title></circle>
	<circle cx="354.76" cy="342.96" data-y="5.27" data-x="1600732800" r="1" fill="white"><title>2020-09-22: 5</title></circle>
	<circle cx="356.53" cy="340.45" data-y="5.69" data-x="1600819200" r="1" fill="white"><title>2020-09-23: 6</title></circle>
	<circle cx="358.31" cy="338.56" data-y="6.00" data-x="1600905600" r="1" fill="white"><title>2020-09-24: 6</title></circle>
	<circle cx="360.08" cy="336.68" data-y="6.31" data-x="1600992000" r="1" fill="white"><title>2020-09-25: 6</title></circle>
	<circle cx="361.85" cy="323.49" data-y="8.48" data-x="1601078400" r="1" fill="white"><title>2020-09-26: 8</title></circle>
	<circle cx="363.63" cy="322.86" data-y="8.58" data-x="1601164800" r="1" fill="white"><title>2020-09-27: 9</title></circle>
	<circle cx="365.40" cy="315.95" data-y="9.72" data-x="1601251200" r="1" fill="white"><title>2020-09-28: 10</title></circle>
	<circle cx="367.17" cy="299.61" data-y="12.41" data-x="1601337600" r="1" fill="white"><title>2020-09-29: 12</title></circle>
	<circle cx="368.94" cy="297.10" data-y="12.83" data-x="1601424000" r="1" fill="white"><title>2020-09-30: 13</title></circle>
	<circle cx="370.72" cy="296.47" data-y="12.93" data-x="1601510400" r="1" fill="white"><title>2020-10-01: 13</title></circle>
	<circle cx="372.49" cy="285.16" data-y="14.79" data-x="1601596800" r="1" fill="white"><title>2020-10-02: 15</title></circle>
	<circle cx="374.26" cy="280.14" data-y="15.62" data-x="1601683200" r="1" fill="white"><title>2020-10-03: 16</title></circle>
	<circle cx="376.04" cy="273.23" data-y="16.76" data-x="1601769600" r="1" fill="white"><title>2020-10-04: 17</title></circle>
	<circle cx="377.81" cy="269.46" data-y="17.38" data-x="1601856000" r="1" fill="white"><title>2020-10-05: 17</title></circle>
	<circle cx="379.58" cy="278.25" data-y="15.93" data-x="1601942400" r="1" fill="white"><title>2020-10-06: 16</title></circle>
	<circle cx="381.35" cy="278.88" data-y="15.82" data-x="1602028800" r="1" fill="white"><title>2020-10-07: 16</title></circle>
	<circle cx="383.13" cy="271.97" data-y="16.96" data-x="1602115200" r="1" fill="white"><title>2020-10-08: 17</title></circle>
	<circle cx="384.90" cy="246.84" data-y="21.10" data-x="1602201600" r="1" fill="white"><title>2020-10-09: 21</title></circle>
	<circle cx="386.67" cy="260.03" data-y="18.93" data-x="1602288000" r="1" fill="white"><title>2020-10-10: 19</title></circle>
	<circle cx="388.45" cy="254.38" data-y="19.86" data-x="1602374400" r="1" fill="white"><title>2020-10-11: 20</title></circle>
	<circle cx="390.22" cy="247.47" data-y="21.00" data-x="1602460800" r="1" fill="white"><title>2020-10-12: 21</title></circle>
	<circle cx="391.99" cy="241.82" data-y="21.93" data-x="1602547200" r="1" fill="white"><title>2020-10-13: 22</title></circle>
	<circle cx="393.76" cy="235.53" data-y="22.96" data-x="1602633600" r="1" fill="white"><title>2020-10-14: 23</title></circle>
	<circle cx="395.54" cy="233.65" data-y="23.27" data-x="1602720000" r="1" fill="white"><title>2020-10-15: 23</title></circle>
	<circle cx="397.31" cy="238.05" data-y="22.55" data-x="1602806400" r="1" fill="white"><title>2020-10-16: 23</title></circle>
	<circle cx="399.08" cy="219.83" data-y="25.55" data-x="1602892800" r="1" fill="white"><title>2020-10-17: 26</title></circle>
	<circle cx="400.86" cy="204.75" data-y="28.03" data-x="1602979200" r="1" fill="white"><title>2020-10-18: 28</title></circle>
	<circle cx="402.63" cy="204.75" data-y="28.03" data-x="1603065600" r="1" fill="white"><title>2020-10-19: 28</title></circle>
	<circle cx="404.40" cy="200.35" data-y="28.75" data-x="1603152000" r="1" fill="white"><title>2020-10-20: 29</title></circle>
	<circle cx="406.18" cy="185.28" data-y="31.24" data-x="1603238400" r="1" fill="white"><title>2020-10-21: 31</title></circle>
	<circle cx="407.95" cy="175.85" data-y="32.79" data-x="1603324800" r="1" fill="white"><title>2020-10-22: 33</title></circle>
	<circle cx="409.72" cy="170.83" data-y="33.61" data-x="1603411200" r="1" fill="white"><title>2020-10-23: 34</title></circle>
	<circle cx="411.49" cy="153.86" data-y="36.41" data-x="1603497600" r="1" fill="white"><title>2020-10-24: 36</title></circle>
	<circle cx="413.27" cy="150.72" data-y="36.92" data-x="1603584000" r="1" fill="white"><title>2020-10-25: 37</title></circle>
	<circle cx="415.04" cy="119.94" data-y="41.99" data-x="1603670400" r="1" fill="white"><title>2020-10-26: 42</title></circle>
	<circle cx="416.81" cy="89.78" data-y="46.96" data-x="1603756800" r="1" fill="white"><title>2020-10-27: 47</title></circle>
	<circle cx="418.59" cy="89.16" data-y="47.06" data-x="1603843200" r="1" fill="white"><title>2020-10-28: 47</title></circle>
	<circle cx="420.36" cy="92.30" data-y="46.54" data-x="1603929600" r="1" fill="white"><title>2020-10-29: 47</title></circle>
	<circle cx="422.13" cy="57.75" data-y="52.23" data-x="1604016000" r="1" fill="white"><title>2020-10-30: 52</title></circle>
	<circle cx="423.90" cy="48.32" data-y="53.78" data-x="1604102400" r="1" fill="white"><title>2020-10-31: 54</title></circle>
	<circle cx="425.68" cy="31.36" data-y="56.58" data-x="1604188800" r="1" fill="white"><title>2020-11-01: 57</title></circle>
	<circle cx="427.45" cy="35.76" data-y="55.85" data-x="1604275200" r="1" fill="white"><title>2020-11-02: 56</title></circle>
	<circle cx="429.22" cy="33.87" data-y="56.16" data-x="1604361600" r="1" fill="white"><title>2020-11-03: 56</title></circle>
	<circle cx="431.00" cy="29.48" data-y="56.89" data-x="1604448000" r="1" fill="white"><title>2020-11-04: 57</title></circle>
	<circle cx="432.77" cy="16.28" data-y="59.06" data-x="1604534400" r="1" fill="white"><title>2020-11-05: 59</title></circle>
	<circle cx="434.54" cy="36.39" data-y="55.75" data-x="1604620800" r="1" fill="white"><title>2020-11-06: 56</title></circle>
	<circle cx="436.31" cy="32.62" data-y="56.37" data-x="1604707200" r="1" fill="white"><title>2020-11-07: 56</title></circle>
	<circle cx="438.09" cy="21.94" data-y="58.13" data-x="1604793600" r="1" fill="white"><title>2020-11-08: 58</title></circle>
	<circle cx="439.86" cy="10.00" data-y="60.09" data-x="1604880000" r="1" fill="white"><title>2020-11-09: 60</title></circle>
	<circle cx="441.63" cy="20.68" data-y="58.33" data-x="1604966400" r="1" fill="white"><title>2020-11-10: 58</title></circle>
	<circle cx="443.41" cy="17.54" data-y="58.85" data-x="1605052800" r="1" fill="white"><title>2020-11-11: 59</title></circle>
	<circle cx="445.18" cy="20.05" data-y="58.44" data-x="1605139200" r="1" fill="white"><title>2020-11-12: 58</title></circle>
	<circle cx="446.95" cy="16.91" data-y="58.95" data-x="1605225600" r="1" fill="white"><title>2020-11-13: 59</title></circle>
	<circle cx="448.73" cy="30.10" data-y="56.78" data-x="1605312000" r="1" fill="white"><title>2020-11-14: 57</title></circle>
	<circle cx="450.50" cy="52.72" data-y="53.06" data-x="1605398400" r="1" fill="white"><title>2020-11-15: 53</title></circle>
	<circle cx="452.27" cy="66.54" data-y="50.78" data-x="1605484800" r="1" fill="white"><title>2020-11-16: 51</title></circle>
	<circle cx="454.04" cy="77.22" data-y="49.02" data-x="1605571200" r="1" fill="white"><title>2020-11-17: 49</title></circle>
	<circle cx="455.82" cy="89.78" data-y="46.96" data-x="1605657600" r="1" fill="white"><title>2020-11-18: 47</title></circle>
	<circle cx="457.59" cy="101.72" data-y="44.99" data-x="1605744000" r="1" fill="white"><title>2020-11-19: 45</title></circle>
	<circle cx="459.36" cy="125.59" data-y="41.06" data-x="1605830400" r="1" fill="white"><title>2020-11-20: 41</title></circle>
	<circle cx="461.14" cy="137.53" data-y="39.10" data-x="1605916800" r="1" fill="white"><title>2020-11-21: 39</title></circle>
</g>
<g data-series="recent-cases" class="data-series">
	<path d="M 461.14,137.53L 462.91,155.75L 464.68,197.84L 466.45,205.69L 468.23,208.77L 470.00,202.39" id="Recent cases" class="line" stroke-width="1" stroke-linecap="round" stroke-dasharray="4,6" stroke-dashoffset="4"><title>Recent cases</title></path>
	<circle cx="461.14" cy="137.53" data-y="39.10" data-x="1605916800" r="2.5" fill="white"><title>2020-11-21: 39</title></circle>
	<circle cx="462.91" cy="155.75" data-y="36.10" data-x="1606003200" r="2.5" fill="white"><title>2020-11-22: 36</title></circle>
	<circle cx="464.68" cy="197.84" data-y="29.17" data-x="1606089600" r="2.5" fill="white"><title>2020-11-23: 29</title></circle>
	<circle cx="466.45" cy="205.69" data-y="27.87" data-x="1606176000" r="2.5" fill="white"><title>2020-11-24: 28</title></circle>
	<circle cx="468.23" cy="208.77" data-y="27.37" data-x="1606262400" r="2.5" fill="white"><title>2020-11-25: 27</title></circle>
	<circle cx="470.00" cy="202.39" data-y="28.42" data-x="1606348800" r="2.5" fill="white"><title>2020-11-26: 28</title></circle>
</g>
</svg>
