<svg width="480" height="400" viewBox="0 0 480 400" xmlns="http://www.w3.org/2000/svg" style="overflow:display" preserveAspectRatio="xMinYMin meet" overflow="visible">
<defs>
	<style>
	.data-series path.line { fill-opacity: 0; stroke: black; }
	.data-series path.line.dotted { stroke-dasharray: 12 20 }
	.data-series circle { display: none; }
	.data-series:hover path.line, .data-series.on path.line { stroke-width: 1; }
	.data-series:hover circle, .data-series.on circle { display: inline; }
	.data-series circle:hover, .data-series circle.on { r: 1px!important; }
	.graph-grid { font-family: "Helvetica Neue",Helvetica,Arial,"Lucida Grande",sans-serif; }
	.graph-grid line { stroke: black; stroke-width: 1; stroke-linecap: round; }
	.graph-grid.graph-grid-x text { text-anchor: middle; dominant-baseline: hanging; transform: translateY(10px); }
	.graph-grid.graph-grid-y text { text-anchor: end; dominant-baseline: middle; transform: translateX(-10px); }
	</style>
</defs>
<g class="graph-grid graph-grid-y">
	<line x1="15.00" y1="375.00" x2="470.00" y2="375.00" data-left="15"></line>
	<text x="25" y="375" text-anchor="end">0</text>
	<text x="25" y="205.046609223301" text-anchor="end">10</text>
	<text x="25" y="35.0932184466019" text-anchor="end">20</text>
	<text style="text-anchor:middle;dominant-baseline:hanging;font-weight:bold;transform: translateY(192.5px) rotate(-90deg);"></text>
</g>
<g class="graph-grid graph-grid-x">
	<line class="tick" x1="64.19" y1="375.00" x2="64.19" y2="380.00"></line>
	<text x="64.1891891891892" y="375" text-anchor="middle">A</text>
	<line class="tick" x1="125.68" y1="375.00" x2="125.68" y2="380.00"></line>
	<text x="125.675675675676" y="375" text-anchor="middle">M</text>
	<line class="tick" x1="189.21" y1="375.00" x2="189.21" y2="380.00"></line>
	<text x="189.211711711712" y="375" text-anchor="middle">J</text>
	<line class="tick" x1="250.70" y1="375.00" x2="250.70" y2="380.00"></line>
	<text x="250.698198198198" y="375" text-anchor="middle">J</text>
	<line class="tick" x1="314.23" y1="375.00" x2="314.23" y2="380.00"></line>
	<text x="314.234234234234" y="375" text-anchor="middle">A</text>
	<line class="tick" x1="377.77" y1="375.00" x2="377.77" y2="380.00"></line>
	<text x="377.77027027027" y="375" text-anchor="middle">S</text>
	<line class="tick" x1="439.26" y1="375.00" x2="439.26" y2="380.00"></line>
	<text x="439.256756756757" y="375" text-anchor="middle">O</text>
	<text style="text-anchor:middle;dominant-baseline:hanging;font-weight:bold;transform: translateY(192.5px) rotate(-90deg);"></text>
</g>
<g data-series="widespread" class="data-series">
	<path d="M 15.00,256.03L 470.00,256.03" id="E07000207-level-0" class="line" stroke-width="1" stroke-linecap="round" stroke-dasharray="3,3" fill-opacity="0.3" opacity="0.3"><title>Widespread</title></path>
</g>
<g data-series="substantial" class="data-series">
	<path d="M 15.00,307.02L 470.00,307.02" id="E07000207-level-1" class="line" stroke-width="1" stroke-linecap="round" stroke-dasharray="3,3" fill-opacity="0.3" opacity="0.3"><title>Substantial</title></path>
</g>
<g data-series="moderate" class="data-series">
	<path d="M 15.00,358.00L 470.00,358.00" id="E07000207-level-2" class="line" stroke-width="1" stroke-linecap="round" stroke-dasharray="3,3" fill-opacity="0.3" opacity="0.3"><title>Moderate</title></path>
</g>
<g data-series="new-cases" class="data-series">
	<path d="M 15.00,368.80L 17.05,360.12L 19.10,360.53L 21.15,360.83L 23.20,360.83L 25.25,360.83L 27.30,359.05L 29.35,339.56L 31.40,339.56L 33.45,337.79L 35.50,337.79L 37.55,332.48L 39.59,318.30L 41.64,305.90L 43.69,316.53L 45.74,311.21L 47.79,300.58L 49.84,291.72L 51.89,286.41L 53.94,275.78L 55.99,274.00L 58.04,259.83L 60.09,256.29L 62.14,263.37L 64.19,263.37L 66.24,268.69L 68.29,275.78L 70.34,277.55L 72.39,297.04L 74.44,305.90L 76.49,309.44L 78.54,309.44L 80.59,302.35L 82.64,307.67L 84.68,314.76L 86.73,304.13L 88.78,302.35L 90.83,295.27L 92.88,295.27L 94.93,302.35L 96.98,302.35L 99.03,297.04L 101.08,304.13L 103.13,289.95L 105.18,297.04L 107.23,293.50L 109.28,295.27L 111.33,302.35L 113.38,307.67L 115.43,311.21L 117.48,325.39L 119.53,325.39L 121.58,339.56L 123.63,332.48L 125.68,336.02L 127.73,337.79L 129.77,336.02L 131.82,330.70L 133.87,328.93L 135.92,325.39L 137.97,321.84L 140.02,318.30L 142.07,307.67L 144.12,291.72L 146.17,298.81L 148.22,302.35L 150.27,305.90L 152.32,321.84L 154.37,316.53L 156.42,327.16L 158.47,337.79L 160.52,337.79L 162.57,339.56L 164.62,337.79L 166.67,336.02L 168.72,346.65L 170.77,351.97L 172.82,364.37L 174.86,367.91L 176.91,366.14L 178.96,367.91L 181.01,369.68L 183.06,367.91L 185.11,367.91L 187.16,367.91L 189.21,360.83L 191.26,360.83L 193.31,360.83L 195.36,359.05L 197.41,357.28L 199.46,357.28L 201.51,355.51L 203.56,362.60L 205.61,360.83L 207.66,360.83L 209.71,362.60L 211.76,360.83L 213.81,359.05L 215.86,360.83L 217.91,364.37L 219.95,366.14L 222.00,366.14L 224.05,366.14L 226.10,369.68L 228.15,367.91L 230.20,364.37L 232.25,364.37L 234.30,366.14L 236.35,362.60L 238.40,360.83L 240.45,360.83L 242.50,364.37L 244.55,366.14L 246.60,366.14L 248.65,366.14L 250.70,369.68L 252.75,369.68L 254.80,371.46L 256.85,369.68L 258.90,362.60L 260.95,360.83L 263.00,359.05L 265.05,359.05L 267.09,360.83L 269.14,360.83L 271.19,362.60L 273.24,371.46L 275.29,371.46L 277.34,373.23L 279.39,371.46L 281.44,371.46L 283.49,371.46L 285.54,369.68L 287.59,366.14L 289.64,366.14L 291.69,366.14L 293.74,362.60L 295.79,360.83L 297.84,360.83L 299.89,360.83L 301.94,362.60L 303.99,360.83L 306.04,360.83L 308.09,366.14L 310.14,366.14L 312.18,366.14L 314.23,366.14L 316.28,366.14L 318.33,369.68L 320.38,369.68L 322.43,369.68L 324.48,367.91L 326.53,360.83L 328.58,360.83L 330.63,350.19L 332.68,346.65L 334.73,344.88L 336.78,337.79L 338.83,341.33L 340.88,343.11L 342.93,343.11L 344.98,350.19L 347.03,346.65L 349.08,339.56L 351.13,336.02L 353.18,328.93L 355.23,332.48L 357.27,330.70L 359.32,325.39L 361.37,323.62L 363.42,332.48L 365.47,337.79L 367.52,339.56L 369.57,334.25L 371.62,327.16L 373.67,330.70L 375.72,325.39L 377.77,316.53L 379.82,316.53L 381.87,314.76L 383.92,312.99L 385.97,318.30L 388.02,316.53L 390.07,328.93L 392.12,332.48L 394.17,332.48L 396.22,339.56L 398.27,348.42L 400.32,350.19L 402.36,353.74L 404.41,350.19L 406.46,346.65L 408.51,346.65L 410.56,341.33L 412.61,332.48L 414.66,327.16L 416.71,323.62L 418.76,316.53L 420.81,320.07L 422.86,311.21L 424.91,311.21L 426.96,298.81L 429.01,291.72L 431.06,265.15L 433.11,231.48L 435.16,178.33L 437.21,146.43L 439.26,112.77L 441.31,72.01L 443.36,52.52L 445.41,11.77L 447.45,10.00L 449.50,38.35L 451.55,43.67L 453.60,52.52L 455.65,63.16L 457.70,57.84L 459.75,100.36" id="New cases" class="line" stroke-width="1" stroke-linecap="round"><title>New cases</title></path>
</g>
<g data-series="recent-cases" class="data-series">
	<path d="M 459.75,100.36L 461.80,142.89L 463.85,173.01L 465.90,186.89L 467.95,191.44L 470.00,235.47" id="Recent cases" class="line" stroke-width="1" stroke-linecap="round" stroke-dasharray="5,5"><title>Recent cases</title></path>
</g>
</svg>
