<svg width="480" height="400" viewBox="0 0 480 400" xmlns="http://www.w3.org/2000/svg" style="overflow:display" preserveAspectRatio="xMinYMin meet" overflow="visible">
<defs>
	<style>
	.data-series path.line { fill-opacity: 0; stroke: black; }
	.data-series path.line.dotted { stroke-dasharray: 12 20 }
	.data-series:hover path.line, .data-series.on path.line { stroke-width: 1; }
	.data-series:hover circle, .data-series.on circle { display: inline; }
	.graph-grid { font-family: "Helvetica Neue",Helvetica,Arial,"Lucida Grande",sans-serif; }
	.graph-grid line { stroke: black; stroke-width: 1; stroke-linecap: round; }
	.graph-grid.graph-grid-x text { text-anchor: middle; dominant-baseline: hanging; transform: translateY(10px); }
	.graph-grid.graph-grid-y text { text-anchor: end; dominant-baseline: middle; transform: translateX(-10px); }
	</style>
</defs>
<g class="graph-grid graph-grid-y">
	<line x1="25.00" y1="375.00" x2="470.00" y2="375.00" data-left="25"></line>
	<text x="35" y="375" text-anchor="end">0</text>
	<text x="35" y="278.215378486056" text-anchor="end">20</text>
	<text x="35" y="181.430756972112" text-anchor="end">40</text>
	<text x="35" y="84.6461354581674" text-anchor="end">60</text>
	<text style="text-anchor:middle;dominant-baseline:hanging;font-weight:bold;transform: translateY(192.5px) rotate(-90deg);"></text>
</g>
<g class="graph-grid graph-grid-x">
	<line class="tick" x1="52.38" y1="375.00" x2="52.38" y2="380.00"></line>
	<text x="52.3846153846154" y="375" text-anchor="middle">A</text>
	<line class="tick" x1="93.46" y1="375.00" x2="93.46" y2="380.00"></line>
	<text x="93.4615384615385" y="375" text-anchor="middle">M</text>
	<line class="tick" x1="135.91" y1="375.00" x2="135.91" y2="380.00"></line>
	<text x="135.907692307692" y="375" text-anchor="middle">J</text>
	<line class="tick" x1="176.98" y1="375.00" x2="176.98" y2="380.00"></line>
	<text x="176.984615384615" y="375" text-anchor="middle">J</text>
	<line class="tick" x1="219.43" y1="375.00" x2="219.43" y2="380.00"></line>
	<text x="219.430769230769" y="375" text-anchor="middle">A</text>
	<line class="tick" x1="261.88" y1="375.00" x2="261.88" y2="380.00"></line>
	<text x="261.876923076923" y="375" text-anchor="middle">S</text>
	<line class="tick" x1="302.95" y1="375.00" x2="302.95" y2="380.00"></line>
	<text x="302.953846153846" y="375" text-anchor="middle">O</text>
	<line class="tick" x1="345.40" y1="375.00" x2="345.40" y2="380.00"></line>
	<text x="345.4" y="375" text-anchor="middle">N</text>
	<line class="tick" x1="386.48" y1="375.00" x2="386.48" y2="380.00"></line>
	<text x="386.476923076923" y="375" text-anchor="middle">D</text>
	<line class="tick" x1="428.92" y1="375.00" x2="428.92" y2="380.00"></line>
	<text x="428.923076923077" y="375" text-anchor="middle">J</text>
	<text style="text-anchor:middle;dominant-baseline:hanging;font-weight:bold;transform: translateY(192.5px) rotate(-90deg);"></text>
</g>
<g data-series="widespread" class="data-series">
	<path d="M 25.00,341.13L 470.00,341.13" id="E07000123-level-0" class="line" stroke-width="1" stroke-linecap="round" stroke-dasharray="3,3" fill-opacity="0.3" opacity="0.3"><title>Widespread</title></path>
</g>
<g data-series="substantial" class="data-series">
	<path d="M 25.00,355.64L 470.00,355.64" id="E07000123-level-1" class="line" stroke-width="1" stroke-linecap="round" stroke-dasharray="3,3" fill-opacity="0.3" opacity="0.3"><title>Substantial</title></path>
</g>
<g data-series="moderate" class="data-series">
	<path d="M 25.00,370.16L 470.00,370.16" id="E07000123-level-2" class="line" stroke-width="1" stroke-linecap="round" stroke-dasharray="3,3" fill-opacity="0.3" opacity="0.3"><title>Moderate</title></path>
</g>
<g data-series="new-cases" class="data-series">
	<path d="M 25.00,374.15L 26.37,374.32L 27.74,373.30L 29.11,373.55L 30.48,373.55L 31.85,373.55L 33.22,373.06L 34.58,371.61L 35.95,370.64L 37.32,371.12L 38.69,370.64L 40.06,370.15L 41.43,368.21L 42.80,365.31L 44.17,363.37L 45.54,359.49L 46.91,353.19L 48.28,348.82L 49.65,345.43L 51.02,339.61L 52.38,339.61L 53.75,339.13L 55.12,340.10L 56.49,343.98L 57.86,343.98L 59.23,342.04L 60.60,342.52L 61.97,338.65L 63.34,338.16L 64.71,336.71L 66.08,333.80L 67.45,332.34L 68.82,333.80L 70.18,334.77L 71.55,336.71L 72.92,335.74L 74.29,334.28L 75.66,332.83L 77.03,325.56L 78.40,320.71L 79.77,315.38L 81.14,312.47L 82.51,313.92L 83.88,316.83L 85.25,317.80L 86.62,324.59L 87.98,315.86L 89.35,321.68L 90.72,321.20L 92.09,319.26L 93.46,315.86L 94.83,316.83L 96.20,317.32L 97.57,329.92L 98.94,329.44L 100.31,334.28L 101.68,336.22L 103.05,331.86L 104.42,315.86L 105.78,317.32L 107.15,315.86L 108.52,311.50L 109.89,304.23L 111.26,301.81L 112.63,306.17L 114.00,312.47L 115.37,305.20L 116.74,299.38L 118.11,303.75L 119.48,309.56L 120.85,309.08L 122.22,306.17L 123.58,310.53L 124.95,314.41L 126.32,324.10L 127.69,321.68L 129.06,323.62L 130.43,325.56L 131.80,329.44L 133.17,338.65L 134.54,341.55L 135.91,339.61L 137.28,345.92L 138.65,347.37L 140.02,347.86L 141.38,349.31L 142.75,344.46L 144.12,346.89L 145.49,350.28L 146.86,351.25L 148.23,352.22L 149.60,356.10L 150.97,358.03L 152.34,360.46L 153.71,360.94L 155.08,357.07L 156.45,353.19L 157.82,351.25L 159.18,349.79L 160.55,351.25L 161.92,354.16L 163.29,354.64L 164.66,359.00L 166.03,362.40L 167.40,363.37L 168.77,363.37L 170.14,363.85L 171.51,363.37L 172.88,364.34L 174.25,364.82L 175.62,366.76L 176.98,368.21L 178.35,368.70L 179.72,369.18L 181.09,370.15L 182.46,370.64L 183.83,370.15L 185.20,369.67L 186.57,369.67L 187.94,370.15L 189.31,369.67L 190.68,369.67L 192.05,369.18L 193.42,369.18L 194.78,369.18L 196.15,367.73L 197.52,368.21L 198.89,366.76L 200.26,366.76L 201.63,365.79L 203.00,365.79L 204.37,364.34L 205.74,361.91L 207.11,360.46L 208.48,360.94L 209.85,359.97L 211.22,353.67L 212.58,350.76L 213.95,351.25L 215.32,354.16L 216.69,354.64L 218.06,352.70L 219.43,345.43L 220.80,347.37L 222.17,348.82L 223.54,346.40L 224.91,344.46L 226.28,342.52L 227.65,341.55L 229.02,343.49L 230.38,346.40L 231.75,345.43L 233.12,344.95L 234.49,347.86L 235.86,349.79L 237.23,352.70L 238.60,358.52L 239.97,357.07L 241.34,359.00L 242.71,361.43L 244.08,357.55L 245.45,356.10L 246.82,355.61L 248.18,353.67L 249.55,355.13L 250.92,352.70L 252.29,347.37L 253.66,348.82L 255.03,348.82L 256.40,349.79L 257.77,346.89L 259.14,338.65L 260.51,333.80L 261.88,331.86L 263.25,328.47L 264.62,324.10L 265.98,310.05L 267.35,301.81L 268.72,303.75L 270.09,301.32L 271.46,300.35L 272.83,287.26L 274.20,285.33L 275.57,281.45L 276.94,273.21L 278.31,262.06L 279.68,267.39L 281.05,262.54L 282.42,248.97L 283.78,245.09L 285.15,249.46L 286.52,242.18L 287.89,242.67L 289.26,237.82L 290.63,232.97L 292.00,233.46L 293.37,224.73L 294.74,206.31L 296.11,198.07L 297.48,187.41L 298.85,163.66L 300.22,149.60L 301.58,151.06L 302.95,151.54L 304.32,139.42L 305.69,139.42L 307.06,121.97L 308.43,124.40L 309.80,128.27L 311.17,126.82L 312.54,110.82L 313.91,108.88L 315.28,105.49L 316.65,103.07L 318.02,88.53L 319.38,85.62L 320.75,80.29L 322.12,87.56L 323.49,69.14L 324.86,52.17L 326.23,37.14L 327.60,26.00L 328.97,10.00L 330.34,15.82L 331.71,18.24L 333.08,28.90L 334.45,38.11L 335.82,52.17L 337.18,61.87L 338.55,57.50L 339.92,49.75L 341.29,42.48L 342.66,41.51L 344.03,40.54L 345.40,43.45L 346.77,49.26L 348.14,63.80L 349.51,56.53L 350.88,41.51L 352.25,45.87L 353.62,33.75L 354.98,48.78L 356.35,51.20L 357.72,67.68L 359.09,91.43L 360.46,119.06L 361.83,136.03L 363.20,166.57L 364.57,167.54L 365.94,172.38L 367.31,175.78L 368.68,186.44L 370.05,187.90L 371.42,195.17L 372.78,208.25L 374.15,222.80L 375.52,236.37L 376.89,236.85L 378.26,234.91L 379.63,246.06L 381.00,248.97L 382.37,243.15L 383.74,234.91L 385.11,238.79L 386.48,235.40L 387.85,233.46L 389.22,224.73L 390.58,229.58L 391.95,230.55L 393.32,241.22L 394.69,226.19L 396.06,219.89L 397.43,216.98L 398.80,223.76L 400.17,220.37L 401.54,215.52L 402.91,198.56L 404.28,200.50L 405.65,206.31L 407.02,207.28L 408.38,196.14L 409.75,191.77L 411.12,194.68L 412.49,202.92L 413.86,216.01L 415.23,226.67L 416.60,232.01L 417.97,226.19L 419.34,230.07L 420.71,202.44L 422.08,170.93L 423.45,160.27L 424.82,152.51L 426.18,127.79L 427.55,119.55L 428.92,96.77L 430.29,90.95L 431.66,108.40L 433.03,83.19L 434.40,63.32L 435.77,53.63L 437.14,40.54L 438.51,37.63L 439.88,31.81L 441.25,26.48L 442.62,20.18L 443.98,15.82L 445.35,26.00L 446.72,34.72L 448.09,23.09L 449.46,26.97L 450.83,21.15L 452.20,40.05L 453.57,46.35L 454.94,51.69L 456.31,58.47L 457.68,73.01L 459.05,109.37L 460.42,123.91L 461.78,122.94L 463.15,125.37" id="New cases" class="line" stroke-width="1" stroke-linecap="round"><title>New cases</title></path>
	<circle cx="25.00" cy="374.15" data-y="0.18" data-x="1583971200" r="1" fill="white"><title>2020-03-12: 0</title></circle>
	<circle cx="26.37" cy="374.32" data-y="0.14" data-x="1584057600" r="1" fill="white"><title>2020-03-13: 0</title></circle>
	<circle cx="27.74" cy="373.30" data-y="0.35" data-x="1584144000" r="1" fill="white"><title>2020-03-14: 0</title></circle>
	<circle cx="29.11" cy="373.55" data-y="0.30" data-x="1584230400" r="1" fill="white"><title>2020-03-15: 0</title></circle>
	<circle cx="30.48" cy="373.55" data-y="0.30" data-x="1584316800" r="1" fill="white"><title>2020-03-16: 0</title></circle>
	<circle cx="31.85" cy="373.55" data-y="0.30" data-x="1584403200" r="1" fill="white"><title>2020-03-17: 0</title></circle>
	<circle cx="33.22" cy="373.06" data-y="0.40" data-x="1584489600" r="1" fill="white"><title>2020-03-18: 0</title></circle>
	<circle cx="34.58" cy="371.61" data-y="0.70" data-x="1584576000" r="1" fill="white"><title>2020-03-19: 1</title></circle>
	<circle cx="35.95" cy="370.64" data-y="0.90" data-x="1584662400" r="1" fill="white"><title>2020-03-20: 1</title></circle>
	<circle cx="37.32" cy="371.12" data-y="0.80" data-x="1584748800" r="1" fill="white"><title>2020-03-21: 1</title></circle>
	<circle cx="38.69" cy="370.64" data-y="0.90" data-x="1584835200" r="1" fill="white"><title>2020-03-22: 1</title></circle>
	<circle cx="40.06" cy="370.15" data-y="1.00" data-x="1584921600" r="1" fill="white"><title>2020-03-23: 1</title></circle>
	<circle cx="41.43" cy="368.21" data-y="1.40" data-x="1585008000" r="1" fill="white"><title>2020-03-24: 1</title></circle>
	<circle cx="42.80" cy="365.31" data-y="2.00" data-x="1585094400" r="1" fill="white"><title>2020-03-25: 2</title></circle>
	<circle cx="44.17" cy="363.37" data-y="2.40" data-x="1585180800" r="1" fill="white"><title>2020-03-26: 2</title></circle>
	<circle cx="45.54" cy="359.49" data-y="3.21" data-x="1585267200" r="1" fill="white"><title>2020-03-27: 3</title></circle>
	<circle cx="46.91" cy="353.19" data-y="4.51" data-x="1585353600" r="1" fill="white"><title>2020-03-28: 5</title></circle>
	<circle cx="48.28" cy="348.82" data-y="5.41" data-x="1585440000" r="1" fill="white"><title>2020-03-29: 5</title></circle>
	<circle cx="49.65" cy="345.43" data-y="6.11" data-x="1585526400" r="1" fill="white"><title>2020-03-30: 6</title></circle>
	<circle cx="51.02" cy="339.61" data-y="7.31" data-x="1585612800" r="1" fill="white"><title>2020-03-31: 7</title></circle>
	<circle cx="52.38" cy="339.61" data-y="7.31" data-x="1585699200" r="1" fill="white"><title>2020-04-01: 7</title></circle>
	<circle cx="53.75" cy="339.13" data-y="7.41" data-x="1585785600" r="1" fill="white"><title>2020-04-02: 7</title></circle>
	<circle cx="55.12" cy="340.10" data-y="7.21" data-x="1585872000" r="1" fill="white"><title>2020-04-03: 7</title></circle>
	<circle cx="56.49" cy="343.98" data-y="6.41" data-x="1585958400" r="1" fill="white"><title>2020-04-04: 6</title></circle>
	<circle cx="57.86" cy="343.98" data-y="6.41" data-x="1586044800" r="1" fill="white"><title>2020-04-05: 6</title></circle>
	<circle cx="59.23" cy="342.04" data-y="6.81" data-x="1586131200" r="1" fill="white"><title>2020-04-06: 7</title></circle>
	<circle cx="60.60" cy="342.52" data-y="6.71" data-x="1586217600" r="1" fill="white"><title>2020-04-07: 7</title></circle>
	<circle cx="61.97" cy="338.65" data-y="7.51" data-x="1586304000" r="1" fill="white"><title>2020-04-08: 8</title></circle>
	<circle cx="63.34" cy="338.16" data-y="7.61" data-x="1586390400" r="1" fill="white"><title>2020-04-09: 8</title></circle>
	<circle cx="64.71" cy="336.71" data-y="7.91" data-x="1586476800" r="1" fill="white"><title>2020-04-10: 8</title></circle>
	<circle cx="66.08" cy="333.80" data-y="8.51" data-x="1586563200" r="1" fill="white"><title>2020-04-11: 9</title></circle>
	<circle cx="67.45" cy="332.34" data-y="8.81" data-x="1586649600" r="1" fill="white"><title>2020-04-12: 9</title></circle>
	<circle cx="68.82" cy="333.80" data-y="8.51" data-x="1586736000" r="1" fill="white"><title>2020-04-13: 9</title></circle>
	<circle cx="70.18" cy="334.77" data-y="8.31" data-x="1586822400" r="1" fill="white"><title>2020-04-14: 8</title></circle>
	<circle cx="71.55" cy="336.71" data-y="7.91" data-x="1586908800" r="1" fill="white"><title>2020-04-15: 8</title></circle>
	<circle cx="72.92" cy="335.74" data-y="8.11" data-x="1586995200" r="1" fill="white"><title>2020-04-16: 8</title></circle>
	<circle cx="74.29" cy="334.28" data-y="8.41" data-x="1587081600" r="1" fill="white"><title>2020-04-17: 8</title></circle>
	<circle cx="75.66" cy="332.83" data-y="8.71" data-x="1587168000" r="1" fill="white"><title>2020-04-18: 9</title></circle>
	<circle cx="77.03" cy="325.56" data-y="10.22" data-x="1587254400" r="1" fill="white"><title>2020-04-19: 10</title></circle>
	<circle cx="78.40" cy="320.71" data-y="11.22" data-x="1587340800" r="1" fill="white"><title>2020-04-20: 11</title></circle>
	<circle cx="79.77" cy="315.38" data-y="12.32" data-x="1587427200" r="1" fill="white"><title>2020-04-21: 12</title></circle>
	<circle cx="81.14" cy="312.47" data-y="12.92" data-x="1587513600" r="1" fill="white"><title>2020-04-22: 13</title></circle>
	<circle cx="82.51" cy="313.92" data-y="12.62" data-x="1587600000" r="1" fill="white"><title>2020-04-23: 13</title></circle>
	<circle cx="83.88" cy="316.83" data-y="12.02" data-x="1587686400" r="1" fill="white"><title>2020-04-24: 12</title></circle>
	<circle cx="85.25" cy="317.80" data-y="11.82" data-x="1587772800" r="1" fill="white"><title>2020-04-25: 12</title></circle>
	<circle cx="86.62" cy="324.59" data-y="10.42" data-x="1587859200" r="1" fill="white"><title>2020-04-26: 10</title></circle>
	<circle cx="87.98" cy="315.86" data-y="12.22" data-x="1587945600" r="1" fill="white"><title>2020-04-27: 12</title></circle>
	<circle cx="89.35" cy="321.68" data-y="11.02" data-x="1588032000" r="1" fill="white"><title>2020-04-28: 11</title></circle>
	<circle cx="90.72" cy="321.20" data-y="11.12" data-x="1588118400" r="1" fill="white"><title>2020-04-29: 11</title></circle>
	<circle cx="92.09" cy="319.26" data-y="11.52" data-x="1588204800" r="1" fill="white"><title>2020-04-30: 12</title></circle>
	<circle cx="93.46" cy="315.86" data-y="12.22" data-x="1588291200" r="1" fill="white"><title>2020-05-01: 12</title></circle>
	<circle cx="94.83" cy="316.83" data-y="12.02" data-x="1588377600" r="1" fill="white"><title>2020-05-02: 12</title></circle>
	<circle cx="96.20" cy="317.32" data-y="11.92" data-x="1588464000" r="1" fill="white"><title>2020-05-03: 12</title></circle>
	<circle cx="97.57" cy="329.92" data-y="9.32" data-x="1588550400" r="1" fill="white"><title>2020-05-04: 9</title></circle>
	<circle cx="98.94" cy="329.44" data-y="9.42" data-x="1588636800" r="1" fill="white"><title>2020-05-05: 9</title></circle>
	<circle cx="100.31" cy="334.28" data-y="8.41" data-x="1588723200" r="1" fill="white"><title>2020-05-06: 8</title></circle>
	<circle cx="101.68" cy="336.22" data-y="8.01" data-x="1588809600" r="1" fill="white"><title>2020-05-07: 8</title></circle>
	<circle cx="103.05" cy="331.86" data-y="8.91" data-x="1588896000" r="1" fill="white"><title>2020-05-08: 9</title></circle>
	<circle cx="104.42" cy="315.86" data-y="12.22" data-x="1588982400" r="1" fill="white"><title>2020-05-09: 12</title></circle>
	<circle cx="105.78" cy="317.32" data-y="11.92" data-x="1589068800" r="1" fill="white"><title>2020-05-10: 12</title></circle>
	<circle cx="107.15" cy="315.86" data-y="12.22" data-x="1589155200" r="1" fill="white"><title>2020-05-11: 12</title></circle>
	<circle cx="108.52" cy="311.50" data-y="13.12" data-x="1589241600" r="1" fill="white"><title>2020-05-12: 13</title></circle>
	<circle cx="109.89" cy="304.23" data-y="14.62" data-x="1589328000" r="1" fill="white"><title>2020-05-13: 15</title></circle>
	<circle cx="111.26" cy="301.81" data-y="15.13" data-x="1589414400" r="1" fill="white"><title>2020-05-14: 15</title></circle>
	<circle cx="112.63" cy="306.17" data-y="14.22" data-x="1589500800" r="1" fill="white"><title>2020-05-15: 14</title></circle>
	<circle cx="114.00" cy="312.47" data-y="12.92" data-x="1589587200" r="1" fill="white"><title>2020-05-16: 13</title></circle>
	<circle cx="115.37" cy="305.20" data-y="14.42" data-x="1589673600" r="1" fill="white"><title>2020-05-17: 14</title></circle>
	<circle cx="116.74" cy="299.38" data-y="15.63" data-x="1589760000" r="1" fill="white"><title>2020-05-18: 16</title></circle>
	<circle cx="118.11" cy="303.75" data-y="14.72" data-x="1589846400" r="1" fill="white"><title>2020-05-19: 15</title></circle>
	<circle cx="119.48" cy="309.56" data-y="13.52" data-x="1589932800" r="1" fill="white"><title>2020-05-20: 14</title></circle>
	<circle cx="120.85" cy="309.08" data-y="13.62" data-x="1590019200" r="1" fill="white"><title>2020-05-21: 14</title></circle>
	<circle cx="122.22" cy="306.17" data-y="14.22" data-x="1590105600" r="1" fill="white"><title>2020-05-22: 14</title></circle>
	<circle cx="123.58" cy="310.53" data-y="13.32" data-x="1590192000" r="1" fill="white"><title>2020-05-23: 13</title></circle>
	<circle cx="124.95" cy="314.41" data-y="12.52" data-x="1590278400" r="1" fill="white"><title>2020-05-24: 13</title></circle>
	<circle cx="126.32" cy="324.10" data-y="10.52" data-x="1590364800" r="1" fill="white"><title>2020-05-25: 11</title></circle>
	<circle cx="127.69" cy="321.68" data-y="11.02" data-x="1590451200" r="1" fill="white"><title>2020-05-26: 11</title></circle>
	<circle cx="129.06" cy="323.62" data-y="10.62" data-x="1590537600" r="1" fill="white"><title>2020-05-27: 11</title></circle>
	<circle cx="130.43" cy="325.56" data-y="10.22" data-x="1590624000" r="1" fill="white"><title>2020-05-28: 10</title></circle>
	<circle cx="131.80" cy="329.44" data-y="9.42" data-x="1590710400" r="1" fill="white"><title>2020-05-29: 9</title></circle>
	<circle cx="133.17" cy="338.65" data-y="7.51" data-x="1590796800" r="1" fill="white"><title>2020-05-30: 8</title></circle>
	<circle cx="134.54" cy="341.55" data-y="6.91" data-x="1590883200" r="1" fill="white"><title>2020-05-31: 7</title></circle>
	<circle cx="135.91" cy="339.61" data-y="7.31" data-x="1590969600" r="1" fill="white"><title>2020-06-01: 7</title></circle>
	<circle cx="137.28" cy="345.92" data-y="6.01" data-x="1591056000" r="1" fill="white"><title>2020-06-02: 6</title></circle>
	<circle cx="138.65" cy="347.37" data-y="5.71" data-x="1591142400" r="1" fill="white"><title>2020-06-03: 6</title></circle>
	<circle cx="140.02" cy="347.86" data-y="5.61" data-x="1591228800" r="1" fill="white"><title>2020-06-04: 6</title></circle>
	<circle cx="141.38" cy="349.31" data-y="5.31" data-x="1591315200" r="1" fill="white"><title>2020-06-05: 5</title></circle>
	<circle cx="142.75" cy="344.46" data-y="6.31" data-x="1591401600" r="1" fill="white"><title>2020-06-06: 6</title></circle>
	<circle cx="144.12" cy="346.89" data-y="5.81" data-x="1591488000" r="1" fill="white"><title>2020-06-07: 6</title></circle>
	<circle cx="145.49" cy="350.28" data-y="5.11" data-x="1591574400" r="1" fill="white"><title>2020-06-08: 5</title></circle>
	<circle cx="146.86" cy="351.25" data-y="4.91" data-x="1591660800" r="1" fill="white"><title>2020-06-09: 5</title></circle>
	<circle cx="148.23" cy="352.22" data-y="4.71" data-x="1591747200" r="1" fill="white"><title>2020-06-10: 5</title></circle>
	<circle cx="149.60" cy="356.10" data-y="3.91" data-x="1591833600" r="1" fill="white"><title>2020-06-11: 4</title></circle>
	<circle cx="150.97" cy="358.03" data-y="3.51" data-x="1591920000" r="1" fill="white"><title>2020-06-12: 4</title></circle>
	<circle cx="152.34" cy="360.46" data-y="3.00" data-x="1592006400" r="1" fill="white"><title>2020-06-13: 3</title></circle>
	<circle cx="153.71" cy="360.94" data-y="2.90" data-x="1592092800" r="1" fill="white"><title>2020-06-14: 3</title></circle>
	<circle cx="155.08" cy="357.07" data-y="3.71" data-x="1592179200" r="1" fill="white"><title>2020-06-15: 4</title></circle>
	<circle cx="156.45" cy="353.19" data-y="4.51" data-x="1592265600" r="1" fill="white"><title>2020-06-16: 5</title></circle>
	<circle cx="157.82" cy="351.25" data-y="4.91" data-x="1592352000" r="1" fill="white"><title>2020-06-17: 5</title></circle>
	<circle cx="159.18" cy="349.79" data-y="5.21" data-x="1592438400" r="1" fill="white"><title>2020-06-18: 5</title></circle>
	<circle cx="160.55" cy="351.25" data-y="4.91" data-x="1592524800" r="1" fill="white"><title>2020-06-19: 5</title></circle>
	<circle cx="161.92" cy="354.16" data-y="4.31" data-x="1592611200" r="1" fill="white"><title>2020-06-20: 4</title></circle>
	<circle cx="163.29" cy="354.64" data-y="4.21" data-x="1592697600" r="1" fill="white"><title>2020-06-21: 4</title></circle>
	<circle cx="164.66" cy="359.00" data-y="3.31" data-x="1592784000" r="1" fill="white"><title>2020-06-22: 3</title></circle>
	<circle cx="166.03" cy="362.40" data-y="2.60" data-x="1592870400" r="1" fill="white"><title>2020-06-23: 3</title></circle>
	<circle cx="167.40" cy="363.37" data-y="2.40" data-x="1592956800" r="1" fill="white"><title>2020-06-24: 2</title></circle>
	<circle cx="168.77" cy="363.37" data-y="2.40" data-x="1593043200" r="1" fill="white"><title>2020-06-25: 2</title></circle>
	<circle cx="170.14" cy="363.85" data-y="2.30" data-x="1593129600" r="1" fill="white"><title>2020-06-26: 2</title></circle>
	<circle cx="171.51" cy="363.37" data-y="2.40" data-x="1593216000" r="1" fill="white"><title>2020-06-27: 2</title></circle>
	<circle cx="172.88" cy="364.34" data-y="2.20" data-x="1593302400" r="1" fill="white"><title>2020-06-28: 2</title></circle>
	<circle cx="174.25" cy="364.82" data-y="2.10" data-x="1593388800" r="1" fill="white"><title>2020-06-29: 2</title></circle>
	<circle cx="175.62" cy="366.76" data-y="1.70" data-x="1593475200" r="1" fill="white"><title>2020-06-30: 2</title></circle>
	<circle cx="176.98" cy="368.21" data-y="1.40" data-x="1593561600" r="1" fill="white"><title>2020-07-01: 1</title></circle>
	<circle cx="178.35" cy="368.70" data-y="1.30" data-x="1593648000" r="1" fill="white"><title>2020-07-02: 1</title></circle>
	<circle cx="179.72" cy="369.18" data-y="1.20" data-x="1593734400" r="1" fill="white"><title>2020-07-03: 1</title></circle>
	<circle cx="181.09" cy="370.15" data-y="1.00" data-x="1593820800" r="1" fill="white"><title>2020-07-04: 1</title></circle>
	<circle cx="182.46" cy="370.64" data-y="0.90" data-x="1593907200" r="1" fill="white"><title>2020-07-05: 1</title></circle>
	<circle cx="183.83" cy="370.15" data-y="1.00" data-x="1593993600" r="1" fill="white"><title>2020-07-06: 1</title></circle>
	<circle cx="185.20" cy="369.67" data-y="1.10" data-x="1594080000" r="1" fill="white"><title>2020-07-07: 1</title></circle>
	<circle cx="186.57" cy="369.67" data-y="1.10" data-x="1594166400" r="1" fill="white"><title>2020-07-08: 1</title></circle>
	<circle cx="187.94" cy="370.15" data-y="1.00" data-x="1594252800" r="1" fill="white"><title>2020-07-09: 1</title></circle>
	<circle cx="189.31" cy="369.67" data-y="1.10" data-x="1594339200" r="1" fill="white"><title>2020-07-10: 1</title></circle>
	<circle cx="190.68" cy="369.67" data-y="1.10" data-x="1594425600" r="1" fill="white"><title>2020-07-11: 1</title></circle>
	<circle cx="192.05" cy="369.18" data-y="1.20" data-x="1594512000" r="1" fill="white"><title>2020-07-12: 1</title></circle>
	<circle cx="193.42" cy="369.18" data-y="1.20" data-x="1594598400" r="1" fill="white"><title>2020-07-13: 1</title></circle>
	<circle cx="194.78" cy="369.18" data-y="1.20" data-x="1594684800" r="1" fill="white"><title>2020-07-14: 1</title></circle>
	<circle cx="196.15" cy="367.73" data-y="1.50" data-x="1594771200" r="1" fill="white"><title>2020-07-15: 2</title></circle>
	<circle cx="197.52" cy="368.21" data-y="1.40" data-x="1594857600" r="1" fill="white"><title>2020-07-16: 1</title></circle>
	<circle cx="198.89" cy="366.76" data-y="1.70" data-x="1594944000" r="1" fill="white"><title>2020-07-17: 2</title></circle>
	<circle cx="200.26" cy="366.76" data-y="1.70" data-x="1595030400" r="1" fill="white"><title>2020-07-18: 2</title></circle>
	<circle cx="201.63" cy="365.79" data-y="1.90" data-x="1595116800" r="1" fill="white"><title>2020-07-19: 2</title></circle>
	<circle cx="203.00" cy="365.79" data-y="1.90" data-x="1595203200" r="1" fill="white"><title>2020-07-20: 2</title></circle>
	<circle cx="204.37" cy="364.34" data-y="2.20" data-x="1595289600" r="1" fill="white"><title>2020-07-21: 2</title></circle>
	<circle cx="205.74" cy="361.91" data-y="2.70" data-x="1595376000" r="1" fill="white"><title>2020-07-22: 3</title></circle>
	<circle cx="207.11" cy="360.46" data-y="3.00" data-x="1595462400" r="1" fill="white"><title>2020-07-23: 3</title></circle>
	<circle cx="208.48" cy="360.94" data-y="2.90" data-x="1595548800" r="1" fill="white"><title>2020-07-24: 3</title></circle>
	<circle cx="209.85" cy="359.97" data-y="3.11" data-x="1595635200" r="1" fill="white"><title>2020-07-25: 3</title></circle>
	<circle cx="211.22" cy="353.67" data-y="4.41" data-x="1595721600" r="1" fill="white"><title>2020-07-26: 4</title></circle>
	<circle cx="212.58" cy="350.76" data-y="5.01" data-x="1595808000" r="1" fill="white"><title>2020-07-27: 5</title></circle>
	<circle cx="213.95" cy="351.25" data-y="4.91" data-x="1595894400" r="1" fill="white"><title>2020-07-28: 5</title></circle>
	<circle cx="215.32" cy="354.16" data-y="4.31" data-x="1595980800" r="1" fill="white"><title>2020-07-29: 4</title></circle>
	<circle cx="216.69" cy="354.64" data-y="4.21" data-x="1596067200" r="1" fill="white"><title>2020-07-30: 4</title></circle>
	<circle cx="218.06" cy="352.70" data-y="4.61" data-x="1596153600" r="1" fill="white"><title>2020-07-31: 5</title></circle>
	<circle cx="219.43" cy="345.43" data-y="6.11" data-x="1596240000" r="1" fill="white"><title>2020-08-01: 6</title></circle>
	<circle cx="220.80" cy="347.37" data-y="5.71" data-x="1596326400" r="1" fill="white"><title>2020-08-02: 6</title></circle>
	<circle cx="222.17" cy="348.82" data-y="5.41" data-x="1596412800" r="1" fill="white"><title>2020-08-03: 5</title></circle>
	<circle cx="223.54" cy="346.40" data-y="5.91" data-x="1596499200" r="1" fill="white"><title>2020-08-04: 6</title></circle>
	<circle cx="224.91" cy="344.46" data-y="6.31" data-x="1596585600" r="1" fill="white"><title>2020-08-05: 6</title></circle>
	<circle cx="226.28" cy="342.52" data-y="6.71" data-x="1596672000" r="1" fill="white"><title>2020-08-06: 7</title></circle>
	<circle cx="227.65" cy="341.55" data-y="6.91" data-x="1596758400" r="1" fill="white"><title>2020-08-07: 7</title></circle>
	<circle cx="229.02" cy="343.49" data-y="6.51" data-x="1596844800" r="1" fill="white"><title>2020-08-08: 7</title></circle>
	<circle cx="230.38" cy="346.40" data-y="5.91" data-x="1596931200" r="1" fill="white"><title>2020-08-09: 6</title></circle>
	<circle cx="231.75" cy="345.43" data-y="6.11" data-x="1597017600" r="1" fill="white"><title>2020-08-10: 6</title></circle>
	<circle cx="233.12" cy="344.95" data-y="6.21" data-x="1597104000" r="1" fill="white"><title>2020-08-11: 6</title></circle>
	<circle cx="234.49" cy="347.86" data-y="5.61" data-x="1597190400" r="1" fill="white"><title>2020-08-12: 6</title></circle>
	<circle cx="235.86" cy="349.79" data-y="5.21" data-x="1597276800" r="1" fill="white"><title>2020-08-13: 5</title></circle>
	<circle cx="237.23" cy="352.70" data-y="4.61" data-x="1597363200" r="1" fill="white"><title>2020-08-14: 5</title></circle>
	<circle cx="238.60" cy="358.52" data-y="3.41" data-x="1597449600" r="1" fill="white"><title>2020-08-15: 3</title></circle>
	<circle cx="239.97" cy="357.07" data-y="3.71" data-x="1597536000" r="1" fill="white"><title>2020-08-16: 4</title></circle>
	<circle cx="241.34" cy="359.00" data-y="3.31" data-x="1597622400" r="1" fill="white"><title>2020-08-17: 3</title></circle>
	<circle cx="242.71" cy="361.43" data-y="2.80" data-x="1597708800" r="1" fill="white"><title>2020-08-18: 3</title></circle>
	<circle cx="244.08" cy="357.55" data-y="3.61" data-x="1597795200" r="1" fill="white"><title>2020-08-19: 4</title></circle>
	<circle cx="245.45" cy="356.10" data-y="3.91" data-x="1597881600" r="1" fill="white"><title>2020-08-20: 4</title></circle>
	<circle cx="246.82" cy="355.61" data-y="4.01" data-x="1597968000" r="1" fill="white"><title>2020-08-21: 4</title></circle>
	<circle cx="248.18" cy="353.67" data-y="4.41" data-x="1598054400" r="1" fill="white"><title>2020-08-22: 4</title></circle>
	<circle cx="249.55" cy="355.13" data-y="4.11" data-x="1598140800" r="1" fill="white"><title>2020-08-23: 4</title></circle>
	<circle cx="250.92" cy="352.70" data-y="4.61" data-x="1598227200" r="1" fill="white"><title>2020-08-24: 5</title></circle>
	<circle cx="252.29" cy="347.37" data-y="5.71" data-x="1598313600" r="1" fill="white"><title>2020-08-25: 6</title></circle>
	<circle cx="253.66" cy="348.82" data-y="5.41" data-x="1598400000" r="1" fill="white"><title>2020-08-26: 5</title></circle>
	<circle cx="255.03" cy="348.82" data-y="5.41" data-x="1598486400" r="1" fill="white"><title>2020-08-27: 5</title></circle>
	<circle cx="256.40" cy="349.79" data-y="5.21" data-x="1598572800" r="1" fill="white"><title>2020-08-28: 5</title></circle>
	<circle cx="257.77" cy="346.89" data-y="5.81" data-x="1598659200" r="1" fill="white"><title>2020-08-29: 6</title></circle>
	<circle cx="259.14" cy="338.65" data-y="7.51" data-x="1598745600" r="1" fill="white"><title>2020-08-30: 8</title></circle>
	<circle cx="260.51" cy="333.80" data-y="8.51" data-x="1598832000" r="1" fill="white"><title>2020-08-31: 9</title></circle>
	<circle cx="261.88" cy="331.86" data-y="8.91" data-x="1598918400" r="1" fill="white"><title>2020-09-01: 9</title></circle>
	<circle cx="263.25" cy="328.47" data-y="9.62" data-x="1599004800" r="1" fill="white"><title>2020-09-02: 10</title></circle>
	<circle cx="264.62" cy="324.10" data-y="10.52" data-x="1599091200" r="1" fill="white"><title>2020-09-03: 11</title></circle>
	<circle cx="265.98" cy="310.05" data-y="13.42" data-x="1599177600" r="1" fill="white"><title>2020-09-04: 13</title></circle>
	<circle cx="267.35" cy="301.81" data-y="15.13" data-x="1599264000" r="1" fill="white"><title>2020-09-05: 15</title></circle>
	<circle cx="268.72" cy="303.75" data-y="14.72" data-x="1599350400" r="1" fill="white"><title>2020-09-06: 15</title></circle>
	<circle cx="270.09" cy="301.32" data-y="15.23" data-x="1599436800" r="1" fill="white"><title>2020-09-07: 15</title></circle>
	<circle cx="271.46" cy="300.35" data-y="15.43" data-x="1599523200" r="1" fill="white"><title>2020-09-08: 15</title></circle>
	<circle cx="272.83" cy="287.26" data-y="18.13" data-x="1599609600" r="1" fill="white"><title>2020-09-09: 18</title></circle>
	<circle cx="274.20" cy="285.33" data-y="18.53" data-x="1599696000" r="1" fill="white"><title>2020-09-10: 19</title></circle>
	<circle cx="275.57" cy="281.45" data-y="19.33" data-x="1599782400" r="1" fill="white"><title>2020-09-11: 19</title></circle>
	<circle cx="276.94" cy="273.21" data-y="21.03" data-x="1599868800" r="1" fill="white"><title>2020-09-12: 21</title></circle>
	<circle cx="278.31" cy="262.06" data-y="23.34" data-x="1599955200" r="1" fill="white"><title>2020-09-13: 23</title></circle>
	<circle cx="279.68" cy="267.39" data-y="22.24" data-x="1600041600" r="1" fill="white"><title>2020-09-14: 22</title></circle>
	<circle cx="281.05" cy="262.54" data-y="23.24" data-x="1600128000" r="1" fill="white"><title>2020-09-15: 23</title></circle>
	<circle cx="282.42" cy="248.97" data-y="26.04" data-x="1600214400" r="1" fill="white"><title>2020-09-16: 26</title></circle>
	<circle cx="283.78" cy="245.09" data-y="26.84" data-x="1600300800" r="1" fill="white"><title>2020-09-17: 27</title></circle>
	<circle cx="285.15" cy="249.46" data-y="25.94" data-x="1600387200" r="1" fill="white"><title>2020-09-18: 26</title></circle>
	<circle cx="286.52" cy="242.18" data-y="27.45" data-x="1600473600" r="1" fill="white"><title>2020-09-19: 27</title></circle>
	<circle cx="287.89" cy="242.67" data-y="27.35" data-x="1600560000" r="1" fill="white"><title>2020-09-20: 27</title></circle>
	<circle cx="289.26" cy="237.82" data-y="28.35" data-x="1600646400" r="1" fill="white"><title>2020-09-21: 28</title></circle>
	<circle cx="290.63" cy="232.97" data-y="29.35" data-x="1600732800" r="1" fill="white"><title>2020-09-22: 29</title></circle>
	<circle cx="292.00" cy="233.46" data-y="29.25" data-x="1600819200" r="1" fill="white"><title>2020-09-23: 29</title></circle>
	<circle cx="293.37" cy="224.73" data-y="31.05" data-x="1600905600" r="1" fill="white"><title>2020-09-24: 31</title></circle>
	<circle cx="294.74" cy="206.31" data-y="34.86" data-x="1600992000" r="1" fill="white"><title>2020-09-25: 35</title></circle>
	<circle cx="296.11" cy="198.07" data-y="36.56" data-x="1601078400" r="1" fill="white"><title>2020-09-26: 37</title></circle>
	<circle cx="297.48" cy="187.41" data-y="38.76" data-x="1601164800" r="1" fill="white"><title>2020-09-27: 39</title></circle>
	<circle cx="298.85" cy="163.66" data-y="43.67" data-x="1601251200" r="1" fill="white"><title>2020-09-28: 44</title></circle>
	<circle cx="300.22" cy="149.60" data-y="46.58" data-x="1601337600" r="1" fill="white"><title>2020-09-29: 47</title></circle>
	<circle cx="301.58" cy="151.06" data-y="46.28" data-x="1601424000" r="1" fill="white"><title>2020-09-30: 46</title></circle>
	<circle cx="302.95" cy="151.54" data-y="46.18" data-x="1601510400" r="1" fill="white"><title>2020-10-01: 46</title></circle>
	<circle cx="304.32" cy="139.42" data-y="48.68" data-x="1601596800" r="1" fill="white"><title>2020-10-02: 49</title></circle>
	<circle cx="305.69" cy="139.42" data-y="48.68" data-x="1601683200" r="1" fill="white"><title>2020-10-03: 49</title></circle>
	<circle cx="307.06" cy="121.97" data-y="52.29" data-x="1601769600" r="1" fill="white"><title>2020-10-04: 52</title></circle>
	<circle cx="308.43" cy="124.40" data-y="51.79" data-x="1601856000" r="1" fill="white"><title>2020-10-05: 52</title></circle>
	<circle cx="309.80" cy="128.27" data-y="50.98" data-x="1601942400" r="1" fill="white"><title>2020-10-06: 51</title></circle>
	<circle cx="311.17" cy="126.82" data-y="51.29" data-x="1602028800" r="1" fill="white"><title>2020-10-07: 51</title></circle>
	<circle cx="312.54" cy="110.82" data-y="54.59" data-x="1602115200" r="1" fill="white"><title>2020-10-08: 55</title></circle>
	<circle cx="313.91" cy="108.88" data-y="54.99" data-x="1602201600" r="1" fill="white"><title>2020-10-09: 55</title></circle>
	<circle cx="315.28" cy="105.49" data-y="55.69" data-x="1602288000" r="1" fill="white"><title>2020-10-10: 56</title></circle>
	<circle cx="316.65" cy="103.07" data-y="56.19" data-x="1602374400" r="1" fill="white"><title>2020-10-11: 56</title></circle>
	<circle cx="318.02" cy="88.53" data-y="59.20" data-x="1602460800" r="1" fill="white"><title>2020-10-12: 59</title></circle>
	<circle cx="319.38" cy="85.62" data-y="59.80" data-x="1602547200" r="1" fill="white"><title>2020-10-13: 60</title></circle>
	<circle cx="320.75" cy="80.29" data-y="60.90" data-x="1602633600" r="1" fill="white"><title>2020-10-14: 61</title></circle>
	<circle cx="322.12" cy="87.56" data-y="59.40" data-x="1602720000" r="1" fill="white"><title>2020-10-15: 59</title></circle>
	<circle cx="323.49" cy="69.14" data-y="63.20" data-x="1602806400" r="1" fill="white"><title>2020-10-16: 63</title></circle>
	<circle cx="324.86" cy="52.17" data-y="66.71" data-x="1602892800" r="1" fill="white"><title>2020-10-17: 67</title></circle>
	<circle cx="326.23" cy="37.14" data-y="69.82" data-x="1602979200" r="1" fill="white"><title>2020-10-18: 70</title></circle>
	<circle cx="327.60" cy="26.00" data-y="72.12" data-x="1603065600" r="1" fill="white"><title>2020-10-19: 72</title></circle>
	<circle cx="328.97" cy="10.00" data-y="75.43" data-x="1603152000" r="1" fill="white"><title>2020-10-20: 75</title></circle>
	<circle cx="330.34" cy="15.82" data-y="74.22" data-x="1603238400" r="1" fill="white"><title>2020-10-21: 74</title></circle>
	<circle cx="331.71" cy="18.24" data-y="73.72" data-x="1603324800" r="1" fill="white"><title>2020-10-22: 74</title></circle>
	<circle cx="333.08" cy="28.90" data-y="71.52" data-x="1603411200" r="1" fill="white"><title>2020-10-23: 72</title></circle>
	<circle cx="334.45" cy="38.11" data-y="69.62" data-x="1603497600" r="1" fill="white"><title>2020-10-24: 70</title></circle>
	<circle cx="335.82" cy="52.17" data-y="66.71" data-x="1603584000" r="1" fill="white"><title>2020-10-25: 67</title></circle>
	<circle cx="337.18" cy="61.87" data-y="64.71" data-x="1603670400" r="1" fill="white"><title>2020-10-26: 65</title></circle>
	<circle cx="338.55" cy="57.50" data-y="65.61" data-x="1603756800" r="1" fill="white"><title>2020-10-27: 66</title></circle>
	<circle cx="339.92" cy="49.75" data-y="67.21" data-x="1603843200" r="1" fill="white"><title>2020-10-28: 67</title></circle>
	<circle cx="341.29" cy="42.48" data-y="68.71" data-x="1603929600" r="1" fill="white"><title>2020-10-29: 69</title></circle>
	<circle cx="342.66" cy="41.51" data-y="68.91" data-x="1604016000" r="1" fill="white"><title>2020-10-30: 69</title></circle>
	<circle cx="344.03" cy="40.54" data-y="69.11" data-x="1604102400" r="1" fill="white"><title>2020-10-31: 69</title></circle>
	<circle cx="345.40" cy="43.45" data-y="68.51" data-x="1604188800" r="1" fill="white"><title>2020-11-01: 69</title></circle>
	<circle cx="346.77" cy="49.26" data-y="67.31" data-x="1604275200" r="1" fill="white"><title>2020-11-02: 67</title></circle>
	<circle cx="348.14" cy="63.80" data-y="64.31" data-x="1604361600" r="1" fill="white"><title>2020-11-03: 64</title></circle>
	<circle cx="349.51" cy="56.53" data-y="65.81" data-x="1604448000" r="1" fill="white"><title>2020-11-04: 66</title></circle>
	<circle cx="350.88" cy="41.51" data-y="68.91" data-x="1604534400" r="1" fill="white"><title>2020-11-05: 69</title></circle>
	<circle cx="352.25" cy="45.87" data-y="68.01" data-x="1604620800" r="1" fill="white"><title>2020-11-06: 68</title></circle>
	<circle cx="353.62" cy="33.75" data-y="70.52" data-x="1604707200" r="1" fill="white"><title>2020-11-07: 71</title></circle>
	<circle cx="354.98" cy="48.78" data-y="67.41" data-x="1604793600" r="1" fill="white"><title>2020-11-08: 67</title></circle>
	<circle cx="356.35" cy="51.20" data-y="66.91" data-x="1604880000" r="1" fill="white"><title>2020-11-09: 67</title></circle>
	<circle cx="357.72" cy="67.68" data-y="63.51" data-x="1604966400" r="1" fill="white"><title>2020-11-10: 64</title></circle>
	<circle cx="359.09" cy="91.43" data-y="58.60" data-x="1605052800" r="1" fill="white"><title>2020-11-11: 59</title></circle>
	<circle cx="360.46" cy="119.06" data-y="52.89" data-x="1605139200" r="1" fill="white"><title>2020-11-12: 53</title></circle>
	<circle cx="361.83" cy="136.03" data-y="49.38" data-x="1605225600" r="1" fill="white"><title>2020-11-13: 49</title></circle>
	<circle cx="363.20" cy="166.57" data-y="43.07" data-x="1605312000" r="1" fill="white"><title>2020-11-14: 43</title></circle>
	<circle cx="364.57" cy="167.54" data-y="42.87" data-x="1605398400" r="1" fill="white"><title>2020-11-15: 43</title></circle>
	<circle cx="365.94" cy="172.38" data-y="41.87" data-x="1605484800" r="1" fill="white"><title>2020-11-16: 42</title></circle>
	<circle cx="367.31" cy="175.78" data-y="41.17" data-x="1605571200" r="1" fill="white"><title>2020-11-17: 41</title></circle>
	<circle cx="368.68" cy="186.44" data-y="38.96" data-x="1605657600" r="1" fill="white"><title>2020-11-18: 39</title></circle>
	<circle cx="370.05" cy="187.90" data-y="38.66" data-x="1605744000" r="1" fill="white"><title>2020-11-19: 39</title></circle>
	<circle cx="371.42" cy="195.17" data-y="37.16" data-x="1605830400" r="1" fill="white"><title>2020-11-20: 37</title></circle>
	<circle cx="372.78" cy="208.25" data-y="34.46" data-x="1605916800" r="1" fill="white"><title>2020-11-21: 34</title></circle>
	<circle cx="374.15" cy="222.80" data-y="31.45" data-x="1606003200" r="1" fill="white"><title>2020-11-22: 31</title></circle>
	<circle cx="375.52" cy="236.37" data-y="28.65" data-x="1606089600" r="1" fill="white"><title>2020-11-23: 29</title></circle>
	<circle cx="376.89" cy="236.85" data-y="28.55" data-x="1606176000" r="1" fill="white"><title>2020-11-24: 29</title></circle>
	<circle cx="378.26" cy="234.91" data-y="28.95" data-x="1606262400" r="1" fill="white"><title>2020-11-25: 29</title></circle>
	<circle cx="379.63" cy="246.06" data-y="26.64" data-x="1606348800" r="1" fill="white"><title>2020-11-26: 27</title></circle>
	<circle cx="381.00" cy="248.97" data-y="26.04" data-x="1606435200" r="1" fill="white"><title>2020-11-27: 26</title></circle>
	<circle cx="382.37" cy="243.15" data-y="27.25" data-x="1606521600" r="1" fill="white"><title>2020-11-28: 27</title></circle>
	<circle cx="383.74" cy="234.91" data-y="28.95" data-x="1606608000" r="1" fill="white"><title>2020-11-29: 29</title></circle>
	<circle cx="385.11" cy="238.79" data-y="28.15" data-x="1606694400" r="1" fill="white"><title>2020-11-30: 28</title></circle>
	<circle cx="386.48" cy="235.40" data-y="28.85" data-x="1606780800" r="1" fill="white"><title>2020-12-01: 29</title></circle>
	<circle cx="387.85" cy="233.46" data-y="29.25" data-x="1606867200" r="1" fill="white"><title>2020-12-02: 29</title></circle>
	<circle cx="389.22" cy="224.73" data-y="31.05" data-x="1606953600" r="1" fill="white"><title>2020-12-03: 31</title></circle>
	<circle cx="390.58" cy="229.58" data-y="30.05" data-x="1607040000" r="1" fill="white"><title>2020-12-04: 30</title></circle>
	<circle cx="391.95" cy="230.55" data-y="29.85" data-x="1607126400" r="1" fill="white"><title>2020-12-05: 30</title></circle>
	<circle cx="393.32" cy="241.22" data-y="27.65" data-x="1607212800" r="1" fill="white"><title>2020-12-06: 28</title></circle>
	<circle cx="394.69" cy="226.19" data-y="30.75" data-x="1607299200" r="1" fill="white"><title>2020-12-07: 31</title></circle>
	<circle cx="396.06" cy="219.89" data-y="32.05" data-x="1607385600" r="1" fill="white"><title>2020-12-08: 32</title></circle>
	<circle cx="397.43" cy="216.98" data-y="32.65" data-x="1607472000" r="1" fill="white"><title>2020-12-09: 33</title></circle>
	<circle cx="398.80" cy="223.76" data-y="31.25" data-x="1607558400" r="1" fill="white"><title>2020-12-10: 31</title></circle>
	<circle cx="400.17" cy="220.37" data-y="31.95" data-x="1607644800" r="1" fill="white"><title>2020-12-11: 32</title></circle>
	<circle cx="401.54" cy="215.52" data-y="32.95" data-x="1607731200" r="1" fill="white"><title>2020-12-12: 33</title></circle>
	<circle cx="402.91" cy="198.56" data-y="36.46" data-x="1607817600" r="1" fill="white"><title>2020-12-13: 36</title></circle>
	<circle cx="404.28" cy="200.50" data-y="36.06" data-x="1607904000" r="1" fill="white"><title>2020-12-14: 36</title></circle>
	<circle cx="405.65" cy="206.31" data-y="34.86" data-x="1607990400" r="1" fill="white"><title>2020-12-15: 35</title></circle>
	<circle cx="407.02" cy="207.28" data-y="34.66" data-x="1608076800" r="1" fill="white"><title>2020-12-16: 35</title></circle>
	<circle cx="408.38" cy="196.14" data-y="36.96" data-x="1608163200" r="1" fill="white"><title>2020-12-17: 37</title></circle>
	<circle cx="409.75" cy="191.77" data-y="37.86" data-x="1608249600" r="1" fill="white"><title>2020-12-18: 38</title></circle>
	<circle cx="411.12" cy="194.68" data-y="37.26" data-x="1608336000" r="1" fill="white"><title>2020-12-19: 37</title></circle>
	<circle cx="412.49" cy="202.92" data-y="35.56" data-x="1608422400" r="1" fill="white"><title>2020-12-20: 36</title></circle>
	<circle cx="413.86" cy="216.01" data-y="32.85" data-x="1608508800" r="1" fill="white"><title>2020-12-21: 33</title></circle>
	<circle cx="415.23" cy="226.67" data-y="30.65" data-x="1608595200" r="1" fill="white"><title>2020-12-22: 31</title></circle>
	<circle cx="416.60" cy="232.01" data-y="29.55" data-x="1608681600" r="1" fill="white"><title>2020-12-23: 30</title></circle>
	<circle cx="417.97" cy="226.19" data-y="30.75" data-x="1608768000" r="1" fill="white"><title>2020-12-24: 31</title></circle>
	<circle cx="419.34" cy="230.07" data-y="29.95" data-x="1608854400" r="1" fill="white"><title>2020-12-25: 30</title></circle>
	<circle cx="420.71" cy="202.44" data-y="35.66" data-x="1608940800" r="1" fill="white"><title>2020-12-26: 36</title></circle>
	<circle cx="422.08" cy="170.93" data-y="42.17" data-x="1609027200" r="1" fill="white"><title>2020-12-27: 42</title></circle>
	<circle cx="423.45" cy="160.27" data-y="44.37" data-x="1609113600" r="1" fill="white"><title>2020-12-28: 44</title></circle>
	<circle cx="424.82" cy="152.51" data-y="45.98" data-x="1609200000" r="1" fill="white"><title>2020-12-29: 46</title></circle>
	<circle cx="426.18" cy="127.79" data-y="51.08" data-x="1609286400" r="1" fill="white"><title>2020-12-30: 51</title></circle>
	<circle cx="427.55" cy="119.55" data-y="52.79" data-x="1609372800" r="1" fill="white"><title>2020-12-31: 53</title></circle>
	<circle cx="428.92" cy="96.77" data-y="57.50" data-x="1609459200" r="1" fill="white"><title>2021-01-01: 57</title></circle>
	<circle cx="430.29" cy="90.95" data-y="58.70" data-x="1609545600" r="1" fill="white"><title>2021-01-02: 59</title></circle>
	<circle cx="431.66" cy="108.40" data-y="55.09" data-x="1609632000" r="1" fill="white"><title>2021-01-03: 55</title></circle>
	<circle cx="433.03" cy="83.19" data-y="60.30" data-x="1609718400" r="1" fill="white"><title>2021-01-04: 60</title></circle>
	<circle cx="434.40" cy="63.32" data-y="64.41" data-x="1609804800" r="1" fill="white"><title>2021-01-05: 64</title></circle>
	<circle cx="435.77" cy="53.63" data-y="66.41" data-x="1609891200" r="1" fill="white"><title>2021-01-06: 66</title></circle>
	<circle cx="437.14" cy="40.54" data-y="69.11" data-x="1609977600" r="1" fill="white"><title>2021-01-07: 69</title></circle>
	<circle cx="438.51" cy="37.63" data-y="69.72" data-x="1610064000" r="1" fill="white"><title>2021-01-08: 70</title></circle>
	<circle cx="439.88" cy="31.81" data-y="70.92" data-x="1610150400" r="1" fill="white"><title>2021-01-09: 71</title></circle>
	<circle cx="441.25" cy="26.48" data-y="72.02" data-x="1610236800" r="1" fill="white"><title>2021-01-10: 72</title></circle>
	<circle cx="442.62" cy="20.18" data-y="73.32" data-x="1610323200" r="1" fill="white"><title>2021-01-11: 73</title></circle>
	<circle cx="443.98" cy="15.82" data-y="74.22" data-x="1610409600" r="1" fill="white"><title>2021-01-12: 74</title></circle>
	<circle cx="445.35" cy="26.00" data-y="72.12" data-x="1610496000" r="1" fill="white"><title>2021-01-13: 72</title></circle>
	<circle cx="446.72" cy="34.72" data-y="70.32" data-x="1610582400" r="1" fill="white"><title>2021-01-14: 70</title></circle>
	<circle cx="448.09" cy="23.09" data-y="72.72" data-x="1610668800" r="1" fill="white"><title>2021-01-15: 73</title></circle>
	<circle cx="449.46" cy="26.97" data-y="71.92" data-x="1610755200" r="1" fill="white"><title>2021-01-16: 72</title></circle>
	<circle cx="450.83" cy="21.15" data-y="73.12" data-x="1610841600" r="1" fill="white"><title>2021-01-17: 73</title></circle>
	<circle cx="452.20" cy="40.05" data-y="69.21" data-x="1610928000" r="1" fill="white"><title>2021-01-18: 69</title></circle>
	<circle cx="453.57" cy="46.35" data-y="67.91" data-x="1611014400" r="1" fill="white"><title>2021-01-19: 68</title></circle>
	<circle cx="454.94" cy="51.69" data-y="66.81" data-x="1611100800" r="1" fill="white"><title>2021-01-20: 67</title></circle>
	<circle cx="456.31" cy="58.47" data-y="65.41" data-x="1611187200" r="1" fill="white"><title>2021-01-21: 65</title></circle>
	<circle cx="457.68" cy="73.01" data-y="62.40" data-x="1611273600" r="1" fill="white"><title>2021-01-22: 62</title></circle>
	<circle cx="459.05" cy="109.37" data-y="54.89" data-x="1611360000" r="1" fill="white"><title>2021-01-23: 55</title></circle>
	<circle cx="460.42" cy="123.91" data-y="51.89" data-x="1611446400" r="1" fill="white"><title>2021-01-24: 52</title></circle>
	<circle cx="461.78" cy="122.94" data-y="52.09" data-x="1611532800" r="1" fill="white"><title>2021-01-25: 52</title></circle>
	<circle cx="463.15" cy="125.37" data-y="51.59" data-x="1611619200" r="1" fill="white"><title>2021-01-26: 52</title></circle>
</g>
<g data-series="recent-cases" class="data-series">
	<path d="M 463.15,125.37L 464.52,136.03L 465.89,163.66L 467.26,182.72L 468.63,178.20L 470.00,190.92" id="Recent cases" class="line" stroke-width="1" stroke-linecap="round" stroke-dasharray="4,6" stroke-dashoffset="4"><title>Recent cases</title></path>
	<circle cx="463.15" cy="125.37" data-y="51.59" data-x="1611619200" r="2.5" fill="white"><title>2021-01-26: 52</title></circle>
	<circle cx="464.52" cy="136.03" data-y="49.38" data-x="1611705600" r="2.5" fill="white"><title>2021-01-27: 49</title></circle>
	<circle cx="465.89" cy="163.66" data-y="43.67" data-x="1611792000" r="2.5" fill="white"><title>2021-01-28: 44</title></circle>
	<circle cx="467.26" cy="182.72" data-y="39.73" data-x="1611878400" r="2.5" fill="white"><title>2021-01-29: 40</title></circle>
	<circle cx="468.63" cy="178.20" data-y="40.67" data-x="1611964800" r="2.5" fill="white"><title>2021-01-30: 41</title></circle>
	<circle cx="470.00" cy="190.92" data-y="38.04" data-x="1612051200" r="2.5" fill="white"><title>2021-01-31: 38</title></circle>
</g>
</svg>
