<svg width="480" height="400" viewBox="0 0 480 400" xmlns="http://www.w3.org/2000/svg" style="overflow:display" preserveAspectRatio="xMinYMin meet" overflow="visible">
<defs>
	<style>
	.data-series path.line { fill-opacity: 0; stroke: black; }
	.data-series path.line.dotted { stroke-dasharray: 12 20 }
	.data-series:hover path.line, .data-series.on path.line { stroke-width: 1; }
	.data-series:hover circle, .data-series.on circle { display: inline; }
	.graph-grid { font-family: "Helvetica Neue",Helvetica,Arial,"Lucida Grande",sans-serif; }
	.graph-grid line { stroke: black; stroke-width: 1; stroke-linecap: round; }
	.graph-grid.graph-grid-x text { text-anchor: middle; dominant-baseline: hanging; transform: translateY(10px); }
	.graph-grid.graph-grid-y text { text-anchor: end; dominant-baseline: middle; transform: translateX(-10px); }
	</style>
</defs>
<g class="graph-grid graph-grid-y">
	<line x1="25.00" y1="375.00" x2="470.00" y2="375.00" data-left="25"></line>
	<text x="35" y="375" text-anchor="end">0</text>
	<text x="35" y="210.756709558824" text-anchor="end">5</text>
	<text x="35" y="46.513419117647" text-anchor="end">10</text>
	<text style="text-anchor:middle;dominant-baseline:hanging;font-weight:bold;transform: translateY(192.5px) rotate(-90deg);"></text>
</g>
<g class="graph-grid graph-grid-x">
	<line class="tick" x1="64.38" y1="375.00" x2="64.38" y2="380.00"></line>
	<text x="64.3805309734513" y="375" text-anchor="middle">A</text>
	<line class="tick" x1="123.45" y1="375.00" x2="123.45" y2="380.00"></line>
	<text x="123.451327433628" y="375" text-anchor="middle">M</text>
	<line class="tick" x1="184.49" y1="375.00" x2="184.49" y2="380.00"></line>
	<text x="184.491150442478" y="375" text-anchor="middle">J</text>
	<line class="tick" x1="243.56" y1="375.00" x2="243.56" y2="380.00"></line>
	<text x="243.561946902655" y="375" text-anchor="middle">J</text>
	<line class="tick" x1="304.60" y1="375.00" x2="304.60" y2="380.00"></line>
	<text x="304.601769911504" y="375" text-anchor="middle">A</text>
	<line class="tick" x1="365.64" y1="375.00" x2="365.64" y2="380.00"></line>
	<text x="365.641592920354" y="375" text-anchor="middle">S</text>
	<line class="tick" x1="424.71" y1="375.00" x2="424.71" y2="380.00"></line>
	<text x="424.712389380531" y="375" text-anchor="middle">O</text>
	<text style="text-anchor:middle;dominant-baseline:hanging;font-weight:bold;transform: translateY(192.5px) rotate(-90deg);"></text>
</g>
<g data-series="widespread" class="data-series">
	<path d="M 25.00,145.06L 470.00,145.06" id="E07000073-level-0" class="line" stroke-width="1" stroke-linecap="round" stroke-dasharray="3,3" fill-opacity="0.3" opacity="0.3"><title>Widespread</title></path>
</g>
<g data-series="substantial" class="data-series">
	<path d="M 25.00,243.61L 470.00,243.61" id="E07000073-level-1" class="line" stroke-width="1" stroke-linecap="round" stroke-dasharray="3,3" fill-opacity="0.3" opacity="0.3"><title>Substantial</title></path>
</g>
<g data-series="moderate" class="data-series">
	<path d="M 25.00,342.15L 470.00,342.15" id="E07000073-level-2" class="line" stroke-width="1" stroke-linecap="round" stroke-dasharray="3,3" fill-opacity="0.3" opacity="0.3"><title>Moderate</title></path>
</g>
<g data-series="new-cases" class="data-series">
	<path d="M 25.00,346.82L 26.97,352.46L 28.94,356.21L 30.91,358.90L 32.88,364.26L 34.85,358.90L 36.81,353.53L 38.78,348.16L 40.75,321.32L 42.72,289.12L 44.69,273.01L 46.66,235.44L 48.63,208.60L 50.60,160.29L 52.57,154.93L 54.54,128.09L 56.50,122.72L 58.47,69.04L 60.44,36.84L 62.41,10.00L 64.38,42.21L 66.35,31.47L 68.32,26.10L 70.29,10.00L 72.26,36.84L 74.23,63.68L 76.19,74.41L 78.16,79.78L 80.13,101.25L 82.10,101.25L 84.07,117.35L 86.04,106.62L 88.01,85.15L 89.98,106.62L 91.95,106.62L 93.92,90.51L 95.88,117.35L 97.85,90.51L 99.82,106.62L 101.79,149.56L 103.76,149.56L 105.73,149.56L 107.70,128.09L 109.67,122.72L 111.64,133.46L 113.61,133.46L 115.58,117.35L 117.54,138.82L 119.51,106.62L 121.48,133.46L 123.45,128.09L 125.42,160.29L 127.39,160.29L 129.36,181.76L 131.33,176.40L 133.30,213.97L 135.27,230.07L 137.23,256.91L 139.20,262.28L 141.17,273.01L 143.14,273.01L 145.11,283.75L 147.08,273.01L 149.05,267.65L 151.02,273.01L 152.99,289.12L 154.96,305.22L 156.92,315.96L 158.89,315.96L 160.86,332.06L 162.83,332.06L 164.80,337.43L 166.77,332.06L 168.74,332.06L 170.71,326.69L 172.68,326.69L 174.65,332.06L 176.62,337.43L 178.58,342.79L 180.55,348.16L 182.52,358.90L 184.49,369.63L 186.46,369.63L 188.43,369.63L 190.40,364.26L 192.37,364.26L 194.34,358.90L 196.31,358.90L 198.27,337.43L 200.24,342.79L 202.21,342.79L 204.18,342.79L 206.15,342.79L 208.12,348.16L 210.09,348.16L 212.06,369.63L 214.03,369.63L 216.00,369.63L 217.96,375.00L 219.93,369.63L 221.90,369.63L 223.87,369.63L 225.84,369.63L 227.81,369.63L 229.78,369.63L 231.75,369.63L 233.72,375.00L 235.69,364.26L 237.65,364.26L 239.62,364.26L 241.59,364.26L 243.56,358.90L 245.53,358.90L 247.50,358.90L 249.47,369.63L 251.44,364.26L 253.41,364.26L 255.38,364.26L 257.35,369.63L 259.31,369.63L 261.28,369.63L 263.25,369.63L 265.22,375.00L 267.19,364.26L 269.16,364.26L 271.13,364.26L 273.10,364.26L 275.07,364.26L 277.04,364.26L 279.00,364.26L 280.97,375.00L 282.94,369.63L 284.91,369.63L 286.88,369.63L 288.85,364.26L 290.82,358.90L 292.79,353.53L 294.76,353.53L 296.73,358.90L 298.69,348.16L 300.66,348.16L 302.63,342.79L 304.60,348.16L 306.57,353.53L 308.54,348.16L 310.51,348.16L 312.48,358.90L 314.45,358.90L 316.42,369.63L 318.38,358.90L 320.35,358.90L 322.32,364.26L 324.29,364.26L 326.26,364.26L 328.23,364.26L 330.20,353.53L 332.17,358.90L 334.14,358.90L 336.11,348.16L 338.08,342.79L 340.04,342.79L 342.01,342.79L 343.98,353.53L 345.95,358.90L 347.92,353.53L 349.89,358.90L 351.86,358.90L 353.83,353.53L 355.80,353.53L 357.77,353.53L 359.73,353.53L 361.70,358.90L 363.67,353.53L 365.64,353.53L 367.61,348.16L 369.58,348.16L 371.55,337.43L 373.52,326.69L 375.49,315.96L 377.46,315.96L 379.42,321.32L 381.39,332.06L 383.36,326.69L 385.33,299.85L 387.30,289.12L 389.27,299.85L 391.24,305.22L 393.21,294.49L 395.18,267.65L 397.15,246.18L 399.12,273.01L 401.08,235.44L 403.05,219.34L 405.02,203.24L 406.99,192.50L 408.96,197.87L 410.93,203.24L 412.90,197.87L 414.87,240.81L 416.84,235.44L 418.81,235.44L 420.77,230.07L 422.74,235.44L 424.71,208.60L 426.68,187.13L 428.65,171.03L 430.62,160.29L 432.59,111.99L 434.56,101.25L 436.53,106.62L 438.50,111.99L 440.46,63.68L 442.43,47.57L 444.40,20.74L 446.37,52.94L 448.34,52.94L 450.31,36.84L 452.28,52.94L 454.25,74.41L 456.22,85.15L 458.19,52.94L 460.15,36.84" id="New cases" class="line" stroke-width="1" stroke-linecap="round"><title>New cases</title></path>
	<circle cx="25.00" cy="346.82" data-y="0.86" data-x="1583971200" r="1" fill="white"><title>2020-03-12: 1</title></circle>
	<circle cx="26.97" cy="352.46" data-y="0.69" data-x="1584057600" r="1" fill="white"><title>2020-03-13: 1</title></circle>
	<circle cx="28.94" cy="356.21" data-y="0.57" data-x="1584144000" r="1" fill="white"><title>2020-03-14: 1</title></circle>
	<circle cx="30.91" cy="358.90" data-y="0.49" data-x="1584230400" r="1" fill="white"><title>2020-03-15: 0</title></circle>
	<circle cx="32.88" cy="364.26" data-y="0.33" data-x="1584316800" r="1" fill="white"><title>2020-03-16: 0</title></circle>
	<circle cx="34.85" cy="358.90" data-y="0.49" data-x="1584403200" r="1" fill="white"><title>2020-03-17: 0</title></circle>
	<circle cx="36.81" cy="353.53" data-y="0.65" data-x="1584489600" r="1" fill="white"><title>2020-03-18: 1</title></circle>
	<circle cx="38.78" cy="348.16" data-y="0.82" data-x="1584576000" r="1" fill="white"><title>2020-03-19: 1</title></circle>
	<circle cx="40.75" cy="321.32" data-y="1.63" data-x="1584662400" r="1" fill="white"><title>2020-03-20: 2</title></circle>
	<circle cx="42.72" cy="289.12" data-y="2.61" data-x="1584748800" r="1" fill="white"><title>2020-03-21: 3</title></circle>
	<circle cx="44.69" cy="273.01" data-y="3.10" data-x="1584835200" r="1" fill="white"><title>2020-03-22: 3</title></circle>
	<circle cx="46.66" cy="235.44" data-y="4.25" data-x="1584921600" r="1" fill="white"><title>2020-03-23: 4</title></circle>
	<circle cx="48.63" cy="208.60" data-y="5.07" data-x="1585008000" r="1" fill="white"><title>2020-03-24: 5</title></circle>
	<circle cx="50.60" cy="160.29" data-y="6.54" data-x="1585094400" r="1" fill="white"><title>2020-03-25: 7</title></circle>
	<circle cx="52.57" cy="154.93" data-y="6.70" data-x="1585180800" r="1" fill="white"><title>2020-03-26: 7</title></circle>
	<circle cx="54.54" cy="128.09" data-y="7.52" data-x="1585267200" r="1" fill="white"><title>2020-03-27: 8</title></circle>
	<circle cx="56.50" cy="122.72" data-y="7.68" data-x="1585353600" r="1" fill="white"><title>2020-03-28: 8</title></circle>
	<circle cx="58.47" cy="69.04" data-y="9.31" data-x="1585440000" r="1" fill="white"><title>2020-03-29: 9</title></circle>
	<circle cx="60.44" cy="36.84" data-y="10.29" data-x="1585526400" r="1" fill="white"><title>2020-03-30: 10</title></circle>
	<circle cx="62.41" cy="10.00" data-y="11.11" data-x="1585612800" r="1" fill="white"><title>2020-03-31: 11</title></circle>
	<circle cx="64.38" cy="42.21" data-y="10.13" data-x="1585699200" r="1" fill="white"><title>2020-04-01: 10</title></circle>
	<circle cx="66.35" cy="31.47" data-y="10.46" data-x="1585785600" r="1" fill="white"><title>2020-04-02: 10</title></circle>
	<circle cx="68.32" cy="26.10" data-y="10.62" data-x="1585872000" r="1" fill="white"><title>2020-04-03: 11</title></circle>
	<circle cx="70.29" cy="10.00" data-y="11.11" data-x="1585958400" r="1" fill="white"><title>2020-04-04: 11</title></circle>
	<circle cx="72.26" cy="36.84" data-y="10.29" data-x="1586044800" r="1" fill="white"><title>2020-04-05: 10</title></circle>
	<circle cx="74.23" cy="63.68" data-y="9.48" data-x="1586131200" r="1" fill="white"><title>2020-04-06: 9</title></circle>
	<circle cx="76.19" cy="74.41" data-y="9.15" data-x="1586217600" r="1" fill="white"><title>2020-04-07: 9</title></circle>
	<circle cx="78.16" cy="79.78" data-y="8.99" data-x="1586304000" r="1" fill="white"><title>2020-04-08: 9</title></circle>
	<circle cx="80.13" cy="101.25" data-y="8.33" data-x="1586390400" r="1" fill="white"><title>2020-04-09: 8</title></circle>
	<circle cx="82.10" cy="101.25" data-y="8.33" data-x="1586476800" r="1" fill="white"><title>2020-04-10: 8</title></circle>
	<circle cx="84.07" cy="117.35" data-y="7.84" data-x="1586563200" r="1" fill="white"><title>2020-04-11: 8</title></circle>
	<circle cx="86.04" cy="106.62" data-y="8.17" data-x="1586649600" r="1" fill="white"><title>2020-04-12: 8</title></circle>
	<circle cx="88.01" cy="85.15" data-y="8.82" data-x="1586736000" r="1" fill="white"><title>2020-04-13: 9</title></circle>
	<circle cx="89.98" cy="106.62" data-y="8.17" data-x="1586822400" r="1" fill="white"><title>2020-04-14: 8</title></circle>
	<circle cx="91.95" cy="106.62" data-y="8.17" data-x="1586908800" r="1" fill="white"><title>2020-04-15: 8</title></circle>
	<circle cx="93.92" cy="90.51" data-y="8.66" data-x="1586995200" r="1" fill="white"><title>2020-04-16: 9</title></circle>
	<circle cx="95.88" cy="117.35" data-y="7.84" data-x="1587081600" r="1" fill="white"><title>2020-04-17: 8</title></circle>
	<circle cx="97.85" cy="90.51" data-y="8.66" data-x="1587168000" r="1" fill="white"><title>2020-04-18: 9</title></circle>
	<circle cx="99.82" cy="106.62" data-y="8.17" data-x="1587254400" r="1" fill="white"><title>2020-04-19: 8</title></circle>
	<circle cx="101.79" cy="149.56" data-y="6.86" data-x="1587340800" r="1" fill="white"><title>2020-04-20: 7</title></circle>
	<circle cx="103.76" cy="149.56" data-y="6.86" data-x="1587427200" r="1" fill="white"><title>2020-04-21: 7</title></circle>
	<circle cx="105.73" cy="149.56" data-y="6.86" data-x="1587513600" r="1" fill="white"><title>2020-04-22: 7</title></circle>
	<circle cx="107.70" cy="128.09" data-y="7.52" data-x="1587600000" r="1" fill="white"><title>2020-04-23: 8</title></circle>
	<circle cx="109.67" cy="122.72" data-y="7.68" data-x="1587686400" r="1" fill="white"><title>2020-04-24: 8</title></circle>
	<circle cx="111.64" cy="133.46" data-y="7.35" data-x="1587772800" r="1" fill="white"><title>2020-04-25: 7</title></circle>
	<circle cx="113.61" cy="133.46" data-y="7.35" data-x="1587859200" r="1" fill="white"><title>2020-04-26: 7</title></circle>
	<circle cx="115.58" cy="117.35" data-y="7.84" data-x="1587945600" r="1" fill="white"><title>2020-04-27: 8</title></circle>
	<circle cx="117.54" cy="138.82" data-y="7.19" data-x="1588032000" r="1" fill="white"><title>2020-04-28: 7</title></circle>
	<circle cx="119.51" cy="106.62" data-y="8.17" data-x="1588118400" r="1" fill="white"><title>2020-04-29: 8</title></circle>
	<circle cx="121.48" cy="133.46" data-y="7.35" data-x="1588204800" r="1" fill="white"><title>2020-04-30: 7</title></circle>
	<circle cx="123.45" cy="128.09" data-y="7.52" data-x="1588291200" r="1" fill="white"><title>2020-05-01: 8</title></circle>
	<circle cx="125.42" cy="160.29" data-y="6.54" data-x="1588377600" r="1" fill="white"><title>2020-05-02: 7</title></circle>
	<circle cx="127.39" cy="160.29" data-y="6.54" data-x="1588464000" r="1" fill="white"><title>2020-05-03: 7</title></circle>
	<circle cx="129.36" cy="181.76" data-y="5.88" data-x="1588550400" r="1" fill="white"><title>2020-05-04: 6</title></circle>
	<circle cx="131.33" cy="176.40" data-y="6.05" data-x="1588636800" r="1" fill="white"><title>2020-05-05: 6</title></circle>
	<circle cx="133.30" cy="213.97" data-y="4.90" data-x="1588723200" r="1" fill="white"><title>2020-05-06: 5</title></circle>
	<circle cx="135.27" cy="230.07" data-y="4.41" data-x="1588809600" r="1" fill="white"><title>2020-05-07: 4</title></circle>
	<circle cx="137.23" cy="256.91" data-y="3.59" data-x="1588896000" r="1" fill="white"><title>2020-05-08: 4</title></circle>
	<circle cx="139.20" cy="262.28" data-y="3.43" data-x="1588982400" r="1" fill="white"><title>2020-05-09: 3</title></circle>
	<circle cx="141.17" cy="273.01" data-y="3.10" data-x="1589068800" r="1" fill="white"><title>2020-05-10: 3</title></circle>
	<circle cx="143.14" cy="273.01" data-y="3.10" data-x="1589155200" r="1" fill="white"><title>2020-05-11: 3</title></circle>
	<circle cx="145.11" cy="283.75" data-y="2.78" data-x="1589241600" r="1" fill="white"><title>2020-05-12: 3</title></circle>
	<circle cx="147.08" cy="273.01" data-y="3.10" data-x="1589328000" r="1" fill="white"><title>2020-05-13: 3</title></circle>
	<circle cx="149.05" cy="267.65" data-y="3.27" data-x="1589414400" r="1" fill="white"><title>2020-05-14: 3</title></circle>
	<circle cx="151.02" cy="273.01" data-y="3.10" data-x="1589500800" r="1" fill="white"><title>2020-05-15: 3</title></circle>
	<circle cx="152.99" cy="289.12" data-y="2.61" data-x="1589587200" r="1" fill="white"><title>2020-05-16: 3</title></circle>
	<circle cx="154.96" cy="305.22" data-y="2.12" data-x="1589673600" r="1" fill="white"><title>2020-05-17: 2</title></circle>
	<circle cx="156.92" cy="315.96" data-y="1.80" data-x="1589760000" r="1" fill="white"><title>2020-05-18: 2</title></circle>
	<circle cx="158.89" cy="315.96" data-y="1.80" data-x="1589846400" r="1" fill="white"><title>2020-05-19: 2</title></circle>
	<circle cx="160.86" cy="332.06" data-y="1.31" data-x="1589932800" r="1" fill="white"><title>2020-05-20: 1</title></circle>
	<circle cx="162.83" cy="332.06" data-y="1.31" data-x="1590019200" r="1" fill="white"><title>2020-05-21: 1</title></circle>
	<circle cx="164.80" cy="337.43" data-y="1.14" data-x="1590105600" r="1" fill="white"><title>2020-05-22: 1</title></circle>
	<circle cx="166.77" cy="332.06" data-y="1.31" data-x="1590192000" r="1" fill="white"><title>2020-05-23: 1</title></circle>
	<circle cx="168.74" cy="332.06" data-y="1.31" data-x="1590278400" r="1" fill="white"><title>2020-05-24: 1</title></circle>
	<circle cx="170.71" cy="326.69" data-y="1.47" data-x="1590364800" r="1" fill="white"><title>2020-05-25: 1</title></circle>
	<circle cx="172.68" cy="326.69" data-y="1.47" data-x="1590451200" r="1" fill="white"><title>2020-05-26: 1</title></circle>
	<circle cx="174.65" cy="332.06" data-y="1.31" data-x="1590537600" r="1" fill="white"><title>2020-05-27: 1</title></circle>
	<circle cx="176.62" cy="337.43" data-y="1.14" data-x="1590624000" r="1" fill="white"><title>2020-05-28: 1</title></circle>
	<circle cx="178.58" cy="342.79" data-y="0.98" data-x="1590710400" r="1" fill="white"><title>2020-05-29: 1</title></circle>
	<circle cx="180.55" cy="348.16" data-y="0.82" data-x="1590796800" r="1" fill="white"><title>2020-05-30: 1</title></circle>
	<circle cx="182.52" cy="358.90" data-y="0.49" data-x="1590883200" r="1" fill="white"><title>2020-05-31: 0</title></circle>
	<circle cx="184.49" cy="369.63" data-y="0.16" data-x="1590969600" r="1" fill="white"><title>2020-06-01: 0</title></circle>
	<circle cx="186.46" cy="369.63" data-y="0.16" data-x="1591056000" r="1" fill="white"><title>2020-06-02: 0</title></circle>
	<circle cx="188.43" cy="369.63" data-y="0.16" data-x="1591142400" r="1" fill="white"><title>2020-06-03: 0</title></circle>
	<circle cx="190.40" cy="364.26" data-y="0.33" data-x="1591228800" r="1" fill="white"><title>2020-06-04: 0</title></circle>
	<circle cx="192.37" cy="364.26" data-y="0.33" data-x="1591315200" r="1" fill="white"><title>2020-06-05: 0</title></circle>
	<circle cx="194.34" cy="358.90" data-y="0.49" data-x="1591401600" r="1" fill="white"><title>2020-06-06: 0</title></circle>
	<circle cx="196.31" cy="358.90" data-y="0.49" data-x="1591488000" r="1" fill="white"><title>2020-06-07: 0</title></circle>
	<circle cx="198.27" cy="337.43" data-y="1.14" data-x="1591574400" r="1" fill="white"><title>2020-06-08: 1</title></circle>
	<circle cx="200.24" cy="342.79" data-y="0.98" data-x="1591660800" r="1" fill="white"><title>2020-06-09: 1</title></circle>
	<circle cx="202.21" cy="342.79" data-y="0.98" data-x="1591747200" r="1" fill="white"><title>2020-06-10: 1</title></circle>
	<circle cx="204.18" cy="342.79" data-y="0.98" data-x="1591833600" r="1" fill="white"><title>2020-06-11: 1</title></circle>
	<circle cx="206.15" cy="342.79" data-y="0.98" data-x="1591920000" r="1" fill="white"><title>2020-06-12: 1</title></circle>
	<circle cx="208.12" cy="348.16" data-y="0.82" data-x="1592006400" r="1" fill="white"><title>2020-06-13: 1</title></circle>
	<circle cx="210.09" cy="348.16" data-y="0.82" data-x="1592092800" r="1" fill="white"><title>2020-06-14: 1</title></circle>
	<circle cx="212.06" cy="369.63" data-y="0.16" data-x="1592179200" r="1" fill="white"><title>2020-06-15: 0</title></circle>
	<circle cx="214.03" cy="369.63" data-y="0.16" data-x="1592265600" r="1" fill="white"><title>2020-06-16: 0</title></circle>
	<circle cx="216.00" cy="369.63" data-y="0.16" data-x="1592352000" r="1" fill="white"><title>2020-06-17: 0</title></circle>
	<circle cx="217.96" cy="375.00" data-y="0.00" data-x="1592438400" r="1" fill="white"><title>2020-06-18: 0</title></circle>
	<circle cx="219.93" cy="369.63" data-y="0.16" data-x="1592524800" r="1" fill="white"><title>2020-06-19: 0</title></circle>
	<circle cx="221.90" cy="369.63" data-y="0.16" data-x="1592611200" r="1" fill="white"><title>2020-06-20: 0</title></circle>
	<circle cx="223.87" cy="369.63" data-y="0.16" data-x="1592697600" r="1" fill="white"><title>2020-06-21: 0</title></circle>
	<circle cx="225.84" cy="369.63" data-y="0.16" data-x="1592784000" r="1" fill="white"><title>2020-06-22: 0</title></circle>
	<circle cx="227.81" cy="369.63" data-y="0.16" data-x="1592870400" r="1" fill="white"><title>2020-06-23: 0</title></circle>
	<circle cx="229.78" cy="369.63" data-y="0.16" data-x="1592956800" r="1" fill="white"><title>2020-06-24: 0</title></circle>
	<circle cx="231.75" cy="369.63" data-y="0.16" data-x="1593043200" r="1" fill="white"><title>2020-06-25: 0</title></circle>
	<circle cx="233.72" cy="375.00" data-y="0.00" data-x="1593129600" r="1" fill="white"><title>2020-06-26: 0</title></circle>
	<circle cx="235.69" cy="364.26" data-y="0.33" data-x="1593216000" r="1" fill="white"><title>2020-06-27: 0</title></circle>
	<circle cx="237.65" cy="364.26" data-y="0.33" data-x="1593302400" r="1" fill="white"><title>2020-06-28: 0</title></circle>
	<circle cx="239.62" cy="364.26" data-y="0.33" data-x="1593388800" r="1" fill="white"><title>2020-06-29: 0</title></circle>
	<circle cx="241.59" cy="364.26" data-y="0.33" data-x="1593475200" r="1" fill="white"><title>2020-06-30: 0</title></circle>
	<circle cx="243.56" cy="358.90" data-y="0.49" data-x="1593561600" r="1" fill="white"><title>2020-07-01: 0</title></circle>
	<circle cx="245.53" cy="358.90" data-y="0.49" data-x="1593648000" r="1" fill="white"><title>2020-07-02: 0</title></circle>
	<circle cx="247.50" cy="358.90" data-y="0.49" data-x="1593734400" r="1" fill="white"><title>2020-07-03: 0</title></circle>
	<circle cx="249.47" cy="369.63" data-y="0.16" data-x="1593820800" r="1" fill="white"><title>2020-07-04: 0</title></circle>
	<circle cx="251.44" cy="364.26" data-y="0.33" data-x="1593907200" r="1" fill="white"><title>2020-07-05: 0</title></circle>
	<circle cx="253.41" cy="364.26" data-y="0.33" data-x="1593993600" r="1" fill="white"><title>2020-07-06: 0</title></circle>
	<circle cx="255.38" cy="364.26" data-y="0.33" data-x="1594080000" r="1" fill="white"><title>2020-07-07: 0</title></circle>
	<circle cx="257.35" cy="369.63" data-y="0.16" data-x="1594166400" r="1" fill="white"><title>2020-07-08: 0</title></circle>
	<circle cx="259.31" cy="369.63" data-y="0.16" data-x="1594252800" r="1" fill="white"><title>2020-07-09: 0</title></circle>
	<circle cx="261.28" cy="369.63" data-y="0.16" data-x="1594339200" r="1" fill="white"><title>2020-07-10: 0</title></circle>
	<circle cx="263.25" cy="369.63" data-y="0.16" data-x="1594425600" r="1" fill="white"><title>2020-07-11: 0</title></circle>
	<circle cx="265.22" cy="375.00" data-y="0.00" data-x="1594512000" r="1" fill="white"><title>2020-07-12: 0</title></circle>
	<circle cx="267.19" cy="364.26" data-y="0.33" data-x="1594598400" r="1" fill="white"><title>2020-07-13: 0</title></circle>
	<circle cx="269.16" cy="364.26" data-y="0.33" data-x="1594684800" r="1" fill="white"><title>2020-07-14: 0</title></circle>
	<circle cx="271.13" cy="364.26" data-y="0.33" data-x="1594771200" r="1" fill="white"><title>2020-07-15: 0</title></circle>
	<circle cx="273.10" cy="364.26" data-y="0.33" data-x="1594857600" r="1" fill="white"><title>2020-07-16: 0</title></circle>
	<circle cx="275.07" cy="364.26" data-y="0.33" data-x="1594944000" r="1" fill="white"><title>2020-07-17: 0</title></circle>
	<circle cx="277.04" cy="364.26" data-y="0.33" data-x="1595030400" r="1" fill="white"><title>2020-07-18: 0</title></circle>
	<circle cx="279.00" cy="364.26" data-y="0.33" data-x="1595116800" r="1" fill="white"><title>2020-07-19: 0</title></circle>
	<circle cx="280.97" cy="375.00" data-y="0.00" data-x="1595203200" r="1" fill="white"><title>2020-07-20: 0</title></circle>
	<circle cx="282.94" cy="369.63" data-y="0.16" data-x="1595289600" r="1" fill="white"><title>2020-07-21: 0</title></circle>
	<circle cx="284.91" cy="369.63" data-y="0.16" data-x="1595376000" r="1" fill="white"><title>2020-07-22: 0</title></circle>
	<circle cx="286.88" cy="369.63" data-y="0.16" data-x="1595462400" r="1" fill="white"><title>2020-07-23: 0</title></circle>
	<circle cx="288.85" cy="364.26" data-y="0.33" data-x="1595548800" r="1" fill="white"><title>2020-07-24: 0</title></circle>
	<circle cx="290.82" cy="358.90" data-y="0.49" data-x="1595635200" r="1" fill="white"><title>2020-07-25: 0</title></circle>
	<circle cx="292.79" cy="353.53" data-y="0.65" data-x="1595721600" r="1" fill="white"><title>2020-07-26: 1</title></circle>
	<circle cx="294.76" cy="353.53" data-y="0.65" data-x="1595808000" r="1" fill="white"><title>2020-07-27: 1</title></circle>
	<circle cx="296.73" cy="358.90" data-y="0.49" data-x="1595894400" r="1" fill="white"><title>2020-07-28: 0</title></circle>
	<circle cx="298.69" cy="348.16" data-y="0.82" data-x="1595980800" r="1" fill="white"><title>2020-07-29: 1</title></circle>
	<circle cx="300.66" cy="348.16" data-y="0.82" data-x="1596067200" r="1" fill="white"><title>2020-07-30: 1</title></circle>
	<circle cx="302.63" cy="342.79" data-y="0.98" data-x="1596153600" r="1" fill="white"><title>2020-07-31: 1</title></circle>
	<circle cx="304.60" cy="348.16" data-y="0.82" data-x="1596240000" r="1" fill="white"><title>2020-08-01: 1</title></circle>
	<circle cx="306.57" cy="353.53" data-y="0.65" data-x="1596326400" r="1" fill="white"><title>2020-08-02: 1</title></circle>
	<circle cx="308.54" cy="348.16" data-y="0.82" data-x="1596412800" r="1" fill="white"><title>2020-08-03: 1</title></circle>
	<circle cx="310.51" cy="348.16" data-y="0.82" data-x="1596499200" r="1" fill="white"><title>2020-08-04: 1</title></circle>
	<circle cx="312.48" cy="358.90" data-y="0.49" data-x="1596585600" r="1" fill="white"><title>2020-08-05: 0</title></circle>
	<circle cx="314.45" cy="358.90" data-y="0.49" data-x="1596672000" r="1" fill="white"><title>2020-08-06: 0</title></circle>
	<circle cx="316.42" cy="369.63" data-y="0.16" data-x="1596758400" r="1" fill="white"><title>2020-08-07: 0</title></circle>
	<circle cx="318.38" cy="358.90" data-y="0.49" data-x="1596844800" r="1" fill="white"><title>2020-08-08: 0</title></circle>
	<circle cx="320.35" cy="358.90" data-y="0.49" data-x="1596931200" r="1" fill="white"><title>2020-08-09: 0</title></circle>
	<circle cx="322.32" cy="364.26" data-y="0.33" data-x="1597017600" r="1" fill="white"><title>2020-08-10: 0</title></circle>
	<circle cx="324.29" cy="364.26" data-y="0.33" data-x="1597104000" r="1" fill="white"><title>2020-08-11: 0</title></circle>
	<circle cx="326.26" cy="364.26" data-y="0.33" data-x="1597190400" r="1" fill="white"><title>2020-08-12: 0</title></circle>
	<circle cx="328.23" cy="364.26" data-y="0.33" data-x="1597276800" r="1" fill="white"><title>2020-08-13: 0</title></circle>
	<circle cx="330.20" cy="353.53" data-y="0.65" data-x="1597363200" r="1" fill="white"><title>2020-08-14: 1</title></circle>
	<circle cx="332.17" cy="358.90" data-y="0.49" data-x="1597449600" r="1" fill="white"><title>2020-08-15: 0</title></circle>
	<circle cx="334.14" cy="358.90" data-y="0.49" data-x="1597536000" r="1" fill="white"><title>2020-08-16: 0</title></circle>
	<circle cx="336.11" cy="348.16" data-y="0.82" data-x="1597622400" r="1" fill="white"><title>2020-08-17: 1</title></circle>
	<circle cx="338.08" cy="342.79" data-y="0.98" data-x="1597708800" r="1" fill="white"><title>2020-08-18: 1</title></circle>
	<circle cx="340.04" cy="342.79" data-y="0.98" data-x="1597795200" r="1" fill="white"><title>2020-08-19: 1</title></circle>
	<circle cx="342.01" cy="342.79" data-y="0.98" data-x="1597881600" r="1" fill="white"><title>2020-08-20: 1</title></circle>
	<circle cx="343.98" cy="353.53" data-y="0.65" data-x="1597968000" r="1" fill="white"><title>2020-08-21: 1</title></circle>
	<circle cx="345.95" cy="358.90" data-y="0.49" data-x="1598054400" r="1" fill="white"><title>2020-08-22: 0</title></circle>
	<circle cx="347.92" cy="353.53" data-y="0.65" data-x="1598140800" r="1" fill="white"><title>2020-08-23: 1</title></circle>
	<circle cx="349.89" cy="358.90" data-y="0.49" data-x="1598227200" r="1" fill="white"><title>2020-08-24: 0</title></circle>
	<circle cx="351.86" cy="358.90" data-y="0.49" data-x="1598313600" r="1" fill="white"><title>2020-08-25: 0</title></circle>
	<circle cx="353.83" cy="353.53" data-y="0.65" data-x="1598400000" r="1" fill="white"><title>2020-08-26: 1</title></circle>
	<circle cx="355.80" cy="353.53" data-y="0.65" data-x="1598486400" r="1" fill="white"><title>2020-08-27: 1</title></circle>
	<circle cx="357.77" cy="353.53" data-y="0.65" data-x="1598572800" r="1" fill="white"><title>2020-08-28: 1</title></circle>
	<circle cx="359.73" cy="353.53" data-y="0.65" data-x="1598659200" r="1" fill="white"><title>2020-08-29: 1</title></circle>
	<circle cx="361.70" cy="358.90" data-y="0.49" data-x="1598745600" r="1" fill="white"><title>2020-08-30: 0</title></circle>
	<circle cx="363.67" cy="353.53" data-y="0.65" data-x="1598832000" r="1" fill="white"><title>2020-08-31: 1</title></circle>
	<circle cx="365.64" cy="353.53" data-y="0.65" data-x="1598918400" r="1" fill="white"><title>2020-09-01: 1</title></circle>
	<circle cx="367.61" cy="348.16" data-y="0.82" data-x="1599004800" r="1" fill="white"><title>2020-09-02: 1</title></circle>
	<circle cx="369.58" cy="348.16" data-y="0.82" data-x="1599091200" r="1" fill="white"><title>2020-09-03: 1</title></circle>
	<circle cx="371.55" cy="337.43" data-y="1.14" data-x="1599177600" r="1" fill="white"><title>2020-09-04: 1</title></circle>
	<circle cx="373.52" cy="326.69" data-y="1.47" data-x="1599264000" r="1" fill="white"><title>2020-09-05: 1</title></circle>
	<circle cx="375.49" cy="315.96" data-y="1.80" data-x="1599350400" r="1" fill="white"><title>2020-09-06: 2</title></circle>
	<circle cx="377.46" cy="315.96" data-y="1.80" data-x="1599436800" r="1" fill="white"><title>2020-09-07: 2</title></circle>
	<circle cx="379.42" cy="321.32" data-y="1.63" data-x="1599523200" r="1" fill="white"><title>2020-09-08: 2</title></circle>
	<circle cx="381.39" cy="332.06" data-y="1.31" data-x="1599609600" r="1" fill="white"><title>2020-09-09: 1</title></circle>
	<circle cx="383.36" cy="326.69" data-y="1.47" data-x="1599696000" r="1" fill="white"><title>2020-09-10: 1</title></circle>
	<circle cx="385.33" cy="299.85" data-y="2.29" data-x="1599782400" r="1" fill="white"><title>2020-09-11: 2</title></circle>
	<circle cx="387.30" cy="289.12" data-y="2.61" data-x="1599868800" r="1" fill="white"><title>2020-09-12: 3</title></circle>
	<circle cx="389.27" cy="299.85" data-y="2.29" data-x="1599955200" r="1" fill="white"><title>2020-09-13: 2</title></circle>
	<circle cx="391.24" cy="305.22" data-y="2.12" data-x="1600041600" r="1" fill="white"><title>2020-09-14: 2</title></circle>
	<circle cx="393.21" cy="294.49" data-y="2.45" data-x="1600128000" r="1" fill="white"><title>2020-09-15: 2</title></circle>
	<circle cx="395.18" cy="267.65" data-y="3.27" data-x="1600214400" r="1" fill="white"><title>2020-09-16: 3</title></circle>
	<circle cx="397.15" cy="246.18" data-y="3.92" data-x="1600300800" r="1" fill="white"><title>2020-09-17: 4</title></circle>
	<circle cx="399.12" cy="273.01" data-y="3.10" data-x="1600387200" r="1" fill="white"><title>2020-09-18: 3</title></circle>
	<circle cx="401.08" cy="235.44" data-y="4.25" data-x="1600473600" r="1" fill="white"><title>2020-09-19: 4</title></circle>
	<circle cx="403.05" cy="219.34" data-y="4.74" data-x="1600560000" r="1" fill="white"><title>2020-09-20: 5</title></circle>
	<circle cx="405.02" cy="203.24" data-y="5.23" data-x="1600646400" r="1" fill="white"><title>2020-09-21: 5</title></circle>
	<circle cx="406.99" cy="192.50" data-y="5.56" data-x="1600732800" r="1" fill="white"><title>2020-09-22: 6</title></circle>
	<circle cx="408.96" cy="197.87" data-y="5.39" data-x="1600819200" r="1" fill="white"><title>2020-09-23: 5</title></circle>
	<circle cx="410.93" cy="203.24" data-y="5.23" data-x="1600905600" r="1" fill="white"><title>2020-09-24: 5</title></circle>
	<circle cx="412.90" cy="197.87" data-y="5.39" data-x="1600992000" r="1" fill="white"><title>2020-09-25: 5</title></circle>
	<circle cx="414.87" cy="240.81" data-y="4.09" data-x="1601078400" r="1" fill="white"><title>2020-09-26: 4</title></circle>
	<circle cx="416.84" cy="235.44" data-y="4.25" data-x="1601164800" r="1" fill="white"><title>2020-09-27: 4</title></circle>
	<circle cx="418.81" cy="235.44" data-y="4.25" data-x="1601251200" r="1" fill="white"><title>2020-09-28: 4</title></circle>
	<circle cx="420.77" cy="230.07" data-y="4.41" data-x="1601337600" r="1" fill="white"><title>2020-09-29: 4</title></circle>
	<circle cx="422.74" cy="235.44" data-y="4.25" data-x="1601424000" r="1" fill="white"><title>2020-09-30: 4</title></circle>
	<circle cx="424.71" cy="208.60" data-y="5.07" data-x="1601510400" r="1" fill="white"><title>2020-10-01: 5</title></circle>
	<circle cx="426.68" cy="187.13" data-y="5.72" data-x="1601596800" r="1" fill="white"><title>2020-10-02: 6</title></circle>
	<circle cx="428.65" cy="171.03" data-y="6.21" data-x="1601683200" r="1" fill="white"><title>2020-10-03: 6</title></circle>
	<circle cx="430.62" cy="160.29" data-y="6.54" data-x="1601769600" r="1" fill="white"><title>2020-10-04: 7</title></circle>
	<circle cx="432.59" cy="111.99" data-y="8.01" data-x="1601856000" r="1" fill="white"><title>2020-10-05: 8</title></circle>
	<circle cx="434.56" cy="101.25" data-y="8.33" data-x="1601942400" r="1" fill="white"><title>2020-10-06: 8</title></circle>
	<circle cx="436.53" cy="106.62" data-y="8.17" data-x="1602028800" r="1" fill="white"><title>2020-10-07: 8</title></circle>
	<circle cx="438.50" cy="111.99" data-y="8.01" data-x="1602115200" r="1" fill="white"><title>2020-10-08: 8</title></circle>
	<circle cx="440.46" cy="63.68" data-y="9.48" data-x="1602201600" r="1" fill="white"><title>2020-10-09: 9</title></circle>
	<circle cx="442.43" cy="47.57" data-y="9.97" data-x="1602288000" r="1" fill="white"><title>2020-10-10: 10</title></circle>
	<circle cx="444.40" cy="20.74" data-y="10.78" data-x="1602374400" r="1" fill="white"><title>2020-10-11: 11</title></circle>
	<circle cx="446.37" cy="52.94" data-y="9.80" data-x="1602460800" r="1" fill="white"><title>2020-10-12: 10</title></circle>
	<circle cx="448.34" cy="52.94" data-y="9.80" data-x="1602547200" r="1" fill="white"><title>2020-10-13: 10</title></circle>
	<circle cx="450.31" cy="36.84" data-y="10.29" data-x="1602633600" r="1" fill="white"><title>2020-10-14: 10</title></circle>
	<circle cx="452.28" cy="52.94" data-y="9.80" data-x="1602720000" r="1" fill="white"><title>2020-10-15: 10</title></circle>
	<circle cx="454.25" cy="74.41" data-y="9.15" data-x="1602806400" r="1" fill="white"><title>2020-10-16: 9</title></circle>
	<circle cx="456.22" cy="85.15" data-y="8.82" data-x="1602892800" r="1" fill="white"><title>2020-10-17: 9</title></circle>
	<circle cx="458.19" cy="52.94" data-y="9.80" data-x="1602979200" r="1" fill="white"><title>2020-10-18: 10</title></circle>
	<circle cx="460.15" cy="36.84" data-y="10.29" data-x="1603065600" r="1" fill="white"><title>2020-10-19: 10</title></circle>
</g>
<g data-series="recent-cases" class="data-series">
	<path d="M 460.15,36.84L 462.12,69.04L 464.09,95.88L 466.06,80.67L 468.03,111.99L 470.00,111.99" id="Recent cases" class="line" stroke-width="1" stroke-linecap="round" stroke-dasharray="4,6" stroke-dashoffset="4"><title>Recent cases</title></path>
	<circle cx="460.15" cy="36.84" data-y="10.29" data-x="1603065600" r="2.5" fill="white"><title>2020-10-19: 10</title></circle>
	<circle cx="462.12" cy="69.04" data-y="9.31" data-x="1603152000" r="2.5" fill="white"><title>2020-10-20: 9</title></circle>
	<circle cx="464.09" cy="95.88" data-y="8.50" data-x="1603238400" r="2.5" fill="white"><title>2020-10-21: 8</title></circle>
	<circle cx="466.06" cy="80.67" data-y="8.96" data-x="1603324800" r="2.5" fill="white"><title>2020-10-22: 9</title></circle>
	<circle cx="468.03" cy="111.99" data-y="8.01" data-x="1603411200" r="2.5" fill="white"><title>2020-10-23: 8</title></circle>
	<circle cx="470.00" cy="111.99" data-y="8.01" data-x="1603497600" r="2.5" fill="white"><title>2020-10-24: 8</title></circle>
</g>
</svg>
