<svg width="480" height="400" viewBox="0 0 480 400" xmlns="http://www.w3.org/2000/svg" style="overflow:display" preserveAspectRatio="xMinYMin meet" overflow="visible">
<defs>
	<style>
	.data-series path.line { fill-opacity: 0; stroke: black; }
	.data-series path.line.dotted { stroke-dasharray: 12 20 }
	.data-series:hover path.line, .data-series.on path.line { stroke-width: 1; }
	.data-series:hover circle, .data-series.on circle { display: inline; }
	.graph-grid { font-family: "Helvetica Neue",Helvetica,Arial,"Lucida Grande",sans-serif; }
	.graph-grid line { stroke: black; stroke-width: 1; stroke-linecap: round; }
	.graph-grid.graph-grid-x text { text-anchor: middle; dominant-baseline: hanging; transform: translateY(10px); }
	.graph-grid.graph-grid-y text { text-anchor: end; dominant-baseline: middle; transform: translateX(-10px); }
	</style>
</defs>
<g class="graph-grid graph-grid-y">
	<line x1="25.00" y1="375.00" x2="470.00" y2="375.00" data-left="25"></line>
	<text x="35" y="375" text-anchor="end">0</text>
	<text x="35" y="263.403628257887" text-anchor="end">20</text>
	<text x="35" y="151.807256515775" text-anchor="end">40</text>
	<text x="35" y="40.2108847736625" text-anchor="end">60</text>
	<text style="text-anchor:middle;dominant-baseline:hanging;font-weight:bold;transform: translateY(192.5px) rotate(-90deg);"></text>
</g>
<g class="graph-grid graph-grid-x">
	<line class="tick" x1="67.04" y1="375.00" x2="67.04" y2="380.00"></line>
	<text x="67.0358306188925" y="375" text-anchor="middle">A</text>
	<line class="tick" x1="110.52" y1="375.00" x2="110.52" y2="380.00"></line>
	<text x="110.521172638436" y="375" text-anchor="middle">M</text>
	<line class="tick" x1="155.46" y1="375.00" x2="155.46" y2="380.00"></line>
	<text x="155.456026058632" y="375" text-anchor="middle">J</text>
	<line class="tick" x1="198.94" y1="375.00" x2="198.94" y2="380.00"></line>
	<text x="198.941368078176" y="375" text-anchor="middle">J</text>
	<line class="tick" x1="243.88" y1="375.00" x2="243.88" y2="380.00"></line>
	<text x="243.876221498371" y="375" text-anchor="middle">A</text>
	<line class="tick" x1="288.81" y1="375.00" x2="288.81" y2="380.00"></line>
	<text x="288.811074918567" y="375" text-anchor="middle">S</text>
	<line class="tick" x1="332.30" y1="375.00" x2="332.30" y2="380.00"></line>
	<text x="332.296416938111" y="375" text-anchor="middle">O</text>
	<line class="tick" x1="377.23" y1="375.00" x2="377.23" y2="380.00"></line>
	<text x="377.231270358306" y="375" text-anchor="middle">N</text>
	<line class="tick" x1="420.72" y1="375.00" x2="420.72" y2="380.00"></line>
	<text x="420.71661237785" y="375" text-anchor="middle">D</text>
	<line class="tick" x1="465.65" y1="375.00" x2="465.65" y2="380.00"></line>
	<text x="465.651465798046" y="375" text-anchor="middle">J</text>
	<text style="text-anchor:middle;dominant-baseline:hanging;font-weight:bold;transform: translateY(192.5px) rotate(-90deg);"></text>
</g>
<g data-series="widespread" class="data-series">
	<path d="M 25.00,335.94L 470.00,335.94" id="E07000012-level-0" class="line" stroke-width="1" stroke-linecap="round" stroke-dasharray="3,3" fill-opacity="0.3" opacity="0.3"><title>Widespread</title></path>
</g>
<g data-series="substantial" class="data-series">
	<path d="M 25.00,352.68L 470.00,352.68" id="E07000012-level-1" class="line" stroke-width="1" stroke-linecap="round" stroke-dasharray="3,3" fill-opacity="0.3" opacity="0.3"><title>Substantial</title></path>
</g>
<g data-series="moderate" class="data-series">
	<path d="M 25.00,369.42L 470.00,369.42" id="E07000012-level-2" class="line" stroke-width="1" stroke-linecap="round" stroke-dasharray="3,3" fill-opacity="0.3" opacity="0.3"><title>Moderate</title></path>
</g>
<g data-series="new-cases" class="data-series">
	<path d="M 25.00,374.12L 26.45,374.30L 27.90,374.42L 29.35,374.50L 30.80,374.00L 32.25,374.00L 33.70,373.50L 35.15,372.00L 36.60,372.00L 38.05,371.50L 39.50,371.50L 40.94,372.00L 42.39,370.99L 43.84,368.99L 45.29,368.99L 46.74,367.99L 48.19,367.49L 49.64,363.98L 51.09,361.98L 52.54,359.98L 53.99,360.98L 55.44,360.98L 56.89,360.48L 58.34,359.48L 59.79,361.48L 61.24,359.98L 62.69,361.48L 64.14,359.98L 65.59,361.48L 67.04,360.48L 68.49,359.48L 69.93,358.98L 71.38,360.98L 72.83,360.48L 74.28,359.98L 75.73,358.98L 77.18,358.48L 78.63,360.48L 80.08,361.98L 81.53,360.48L 82.98,360.98L 84.43,362.48L 85.88,358.98L 87.33,359.98L 88.78,358.98L 90.23,356.47L 91.68,355.47L 93.13,351.47L 94.58,346.46L 96.03,347.96L 97.48,346.96L 98.93,346.96L 100.37,346.46L 101.82,347.96L 103.27,350.97L 104.72,354.97L 106.17,356.47L 107.62,356.47L 109.07,356.47L 110.52,358.48L 111.97,356.98L 113.42,355.47L 114.87,354.47L 116.32,355.97L 117.77,354.97L 119.22,354.47L 120.67,354.47L 122.12,357.48L 123.57,360.98L 125.02,364.49L 126.47,363.98L 127.92,364.99L 129.36,366.99L 130.81,366.99L 132.26,367.99L 133.71,367.49L 135.16,366.49L 136.61,366.49L 138.06,368.99L 139.51,368.99L 140.96,370.49L 142.41,370.49L 143.86,369.49L 145.31,369.99L 146.76,366.49L 148.21,364.99L 149.66,365.49L 151.11,364.49L 152.56,363.98L 154.01,365.49L 155.46,365.49L 156.91,367.99L 158.36,368.99L 159.80,368.99L 161.25,369.99L 162.70,370.99L 164.15,371.50L 165.60,372.50L 167.05,373.00L 168.50,374.00L 169.95,374.00L 171.40,374.00L 172.85,374.00L 174.30,374.00L 175.75,374.00L 177.20,375.00L 178.65,375.00L 180.10,375.00L 181.55,375.00L 183.00,375.00L 184.45,375.00L 185.90,375.00L 187.35,375.00L 188.79,375.00L 190.24,375.00L 191.69,374.50L 193.14,374.50L 194.59,374.00L 196.04,373.50L 197.49,373.50L 198.94,373.00L 200.39,373.00L 201.84,372.50L 203.29,372.00L 204.74,370.99L 206.19,370.49L 207.64,369.99L 209.09,370.49L 210.54,370.49L 211.99,371.50L 213.44,372.00L 214.89,372.50L 216.34,370.99L 217.79,369.49L 219.23,368.99L 220.68,368.99L 222.13,368.49L 223.58,367.49L 225.03,368.49L 226.48,370.49L 227.93,372.00L 229.38,372.50L 230.83,372.50L 232.28,372.50L 233.73,373.50L 235.18,373.00L 236.63,372.50L 238.08,373.00L 239.53,373.00L 240.98,372.50L 242.43,373.00L 243.88,372.50L 245.33,373.00L 246.78,374.00L 248.22,373.50L 249.67,373.00L 251.12,373.50L 252.57,373.50L 254.02,373.50L 255.47,373.00L 256.92,372.50L 258.37,372.50L 259.82,373.00L 261.27,373.00L 262.72,372.50L 264.17,373.00L 265.62,373.50L 267.07,373.50L 268.52,372.50L 269.97,372.50L 271.42,372.50L 272.87,372.00L 274.32,370.99L 275.77,369.99L 277.21,369.99L 278.66,369.99L 280.11,369.99L 281.56,369.49L 283.01,369.49L 284.46,369.49L 285.91,366.99L 287.36,367.49L 288.81,368.49L 290.26,366.99L 291.71,365.99L 293.16,365.99L 294.61,363.98L 296.06,366.49L 297.51,365.49L 298.96,365.49L 300.41,366.99L 301.86,367.49L 303.31,366.49L 304.76,368.49L 306.21,367.49L 307.65,368.49L 309.10,366.99L 310.55,365.99L 312.00,365.49L 313.45,365.99L 314.90,365.99L 316.35,365.99L 317.80,364.99L 319.25,364.99L 320.70,364.99L 322.15,364.49L 323.60,363.48L 325.05,361.98L 326.50,358.48L 327.95,356.47L 329.40,355.47L 330.85,352.97L 332.30,351.97L 333.75,347.96L 335.20,343.46L 336.64,343.46L 338.09,338.95L 339.54,334.95L 340.99,334.95L 342.44,335.95L 343.89,334.44L 345.34,336.95L 346.79,338.45L 348.24,337.45L 349.69,341.45L 351.14,342.96L 352.59,339.45L 354.04,339.45L 355.49,331.94L 356.94,326.93L 358.39,328.94L 359.84,324.93L 361.29,320.93L 362.74,321.93L 364.19,321.93L 365.64,324.93L 367.08,325.93L 368.53,325.43L 369.98,323.43L 371.43,323.93L 372.88,322.93L 374.33,314.42L 375.78,313.42L 377.23,307.91L 378.68,301.40L 380.13,297.89L 381.58,293.89L 383.03,286.88L 384.48,288.38L 385.93,281.87L 387.38,281.37L 388.83,276.87L 390.28,281.37L 391.73,285.88L 393.18,292.89L 394.63,293.39L 396.07,302.40L 397.52,305.91L 398.97,316.92L 400.42,321.43L 401.87,322.43L 403.32,324.93L 404.77,330.94L 406.22,331.94L 407.67,337.45L 409.12,339.95L 410.57,336.95L 412.02,336.45L 413.47,335.95L 414.92,334.44L 416.37,336.95L 417.82,334.44L 419.27,329.44L 420.72,326.93L 422.17,325.43L 423.62,324.43L 425.07,325.93L 426.51,315.92L 427.96,308.91L 429.41,308.41L 430.86,296.39L 432.31,286.88L 433.76,273.36L 435.21,254.33L 436.66,235.81L 438.11,218.29L 439.56,201.26L 441.01,190.25L 442.46,194.25L 443.91,180.73L 445.36,173.22L 446.81,169.22L 448.26,172.72L 449.71,171.72L 451.16,190.25L 452.61,153.70L 454.06,130.16L 455.50,123.66L 456.95,64.57L 458.40,43.55L 459.85,28.53L 461.30,10.00L 462.75,12.00" id="New cases" class="line" stroke-width="1" stroke-linecap="round"><title>New cases</title></path>
	<circle cx="25.00" cy="374.12" data-y="0.16" data-x="1583193600" r="1" fill="white"><title>2020-03-03: 0</title></circle>
	<circle cx="26.45" cy="374.30" data-y="0.13" data-x="1583280000" r="1" fill="white"><title>2020-03-04: 0</title></circle>
	<circle cx="27.90" cy="374.42" data-y="0.10" data-x="1583366400" r="1" fill="white"><title>2020-03-05: 0</title></circle>
	<circle cx="29.35" cy="374.50" data-y="0.09" data-x="1583452800" r="1" fill="white"><title>2020-03-06: 0</title></circle>
	<circle cx="30.80" cy="374.00" data-y="0.18" data-x="1583539200" r="1" fill="white"><title>2020-03-07: 0</title></circle>
	<circle cx="32.25" cy="374.00" data-y="0.18" data-x="1583625600" r="1" fill="white"><title>2020-03-08: 0</title></circle>
	<circle cx="33.70" cy="373.50" data-y="0.27" data-x="1583712000" r="1" fill="white"><title>2020-03-09: 0</title></circle>
	<circle cx="35.15" cy="372.00" data-y="0.54" data-x="1583798400" r="1" fill="white"><title>2020-03-10: 1</title></circle>
	<circle cx="36.60" cy="372.00" data-y="0.54" data-x="1583884800" r="1" fill="white"><title>2020-03-11: 1</title></circle>
	<circle cx="38.05" cy="371.50" data-y="0.63" data-x="1583971200" r="1" fill="white"><title>2020-03-12: 1</title></circle>
	<circle cx="39.50" cy="371.50" data-y="0.63" data-x="1584057600" r="1" fill="white"><title>2020-03-13: 1</title></circle>
	<circle cx="40.94" cy="372.00" data-y="0.54" data-x="1584144000" r="1" fill="white"><title>2020-03-14: 1</title></circle>
	<circle cx="42.39" cy="370.99" data-y="0.72" data-x="1584230400" r="1" fill="white"><title>2020-03-15: 1</title></circle>
	<circle cx="43.84" cy="368.99" data-y="1.08" data-x="1584316800" r="1" fill="white"><title>2020-03-16: 1</title></circle>
	<circle cx="45.29" cy="368.99" data-y="1.08" data-x="1584403200" r="1" fill="white"><title>2020-03-17: 1</title></circle>
	<circle cx="46.74" cy="367.99" data-y="1.26" data-x="1584489600" r="1" fill="white"><title>2020-03-18: 1</title></circle>
	<circle cx="48.19" cy="367.49" data-y="1.35" data-x="1584576000" r="1" fill="white"><title>2020-03-19: 1</title></circle>
	<circle cx="49.64" cy="363.98" data-y="1.97" data-x="1584662400" r="1" fill="white"><title>2020-03-20: 2</title></circle>
	<circle cx="51.09" cy="361.98" data-y="2.33" data-x="1584748800" r="1" fill="white"><title>2020-03-21: 2</title></circle>
	<circle cx="52.54" cy="359.98" data-y="2.69" data-x="1584835200" r="1" fill="white"><title>2020-03-22: 3</title></circle>
	<circle cx="53.99" cy="360.98" data-y="2.51" data-x="1584921600" r="1" fill="white"><title>2020-03-23: 3</title></circle>
	<circle cx="55.44" cy="360.98" data-y="2.51" data-x="1585008000" r="1" fill="white"><title>2020-03-24: 3</title></circle>
	<circle cx="56.89" cy="360.48" data-y="2.60" data-x="1585094400" r="1" fill="white"><title>2020-03-25: 3</title></circle>
	<circle cx="58.34" cy="359.48" data-y="2.78" data-x="1585180800" r="1" fill="white"><title>2020-03-26: 3</title></circle>
	<circle cx="59.79" cy="361.48" data-y="2.42" data-x="1585267200" r="1" fill="white"><title>2020-03-27: 2</title></circle>
	<circle cx="61.24" cy="359.98" data-y="2.69" data-x="1585353600" r="1" fill="white"><title>2020-03-28: 3</title></circle>
	<circle cx="62.69" cy="361.48" data-y="2.42" data-x="1585440000" r="1" fill="white"><title>2020-03-29: 2</title></circle>
	<circle cx="64.14" cy="359.98" data-y="2.69" data-x="1585526400" r="1" fill="white"><title>2020-03-30: 3</title></circle>
	<circle cx="65.59" cy="361.48" data-y="2.42" data-x="1585612800" r="1" fill="white"><title>2020-03-31: 2</title></circle>
	<circle cx="67.04" cy="360.48" data-y="2.60" data-x="1585699200" r="1" fill="white"><title>2020-04-01: 3</title></circle>
	<circle cx="68.49" cy="359.48" data-y="2.78" data-x="1585785600" r="1" fill="white"><title>2020-04-02: 3</title></circle>
	<circle cx="69.93" cy="358.98" data-y="2.87" data-x="1585872000" r="1" fill="white"><title>2020-04-03: 3</title></circle>
	<circle cx="71.38" cy="360.98" data-y="2.51" data-x="1585958400" r="1" fill="white"><title>2020-04-04: 3</title></circle>
	<circle cx="72.83" cy="360.48" data-y="2.60" data-x="1586044800" r="1" fill="white"><title>2020-04-05: 3</title></circle>
	<circle cx="74.28" cy="359.98" data-y="2.69" data-x="1586131200" r="1" fill="white"><title>2020-04-06: 3</title></circle>
	<circle cx="75.73" cy="358.98" data-y="2.87" data-x="1586217600" r="1" fill="white"><title>2020-04-07: 3</title></circle>
	<circle cx="77.18" cy="358.48" data-y="2.96" data-x="1586304000" r="1" fill="white"><title>2020-04-08: 3</title></circle>
	<circle cx="78.63" cy="360.48" data-y="2.60" data-x="1586390400" r="1" fill="white"><title>2020-04-09: 3</title></circle>
	<circle cx="80.08" cy="361.98" data-y="2.33" data-x="1586476800" r="1" fill="white"><title>2020-04-10: 2</title></circle>
	<circle cx="81.53" cy="360.48" data-y="2.60" data-x="1586563200" r="1" fill="white"><title>2020-04-11: 3</title></circle>
	<circle cx="82.98" cy="360.98" data-y="2.51" data-x="1586649600" r="1" fill="white"><title>2020-04-12: 3</title></circle>
	<circle cx="84.43" cy="362.48" data-y="2.24" data-x="1586736000" r="1" fill="white"><title>2020-04-13: 2</title></circle>
	<circle cx="85.88" cy="358.98" data-y="2.87" data-x="1586822400" r="1" fill="white"><title>2020-04-14: 3</title></circle>
	<circle cx="87.33" cy="359.98" data-y="2.69" data-x="1586908800" r="1" fill="white"><title>2020-04-15: 3</title></circle>
	<circle cx="88.78" cy="358.98" data-y="2.87" data-x="1586995200" r="1" fill="white"><title>2020-04-16: 3</title></circle>
	<circle cx="90.23" cy="356.47" data-y="3.32" data-x="1587081600" r="1" fill="white"><title>2020-04-17: 3</title></circle>
	<circle cx="91.68" cy="355.47" data-y="3.50" data-x="1587168000" r="1" fill="white"><title>2020-04-18: 3</title></circle>
	<circle cx="93.13" cy="351.47" data-y="4.22" data-x="1587254400" r="1" fill="white"><title>2020-04-19: 4</title></circle>
	<circle cx="94.58" cy="346.46" data-y="5.11" data-x="1587340800" r="1" fill="white"><title>2020-04-20: 5</title></circle>
	<circle cx="96.03" cy="347.96" data-y="4.85" data-x="1587427200" r="1" fill="white"><title>2020-04-21: 5</title></circle>
	<circle cx="97.48" cy="346.96" data-y="5.02" data-x="1587513600" r="1" fill="white"><title>2020-04-22: 5</title></circle>
	<circle cx="98.93" cy="346.96" data-y="5.02" data-x="1587600000" r="1" fill="white"><title>2020-04-23: 5</title></circle>
	<circle cx="100.37" cy="346.46" data-y="5.11" data-x="1587686400" r="1" fill="white"><title>2020-04-24: 5</title></circle>
	<circle cx="101.82" cy="347.96" data-y="4.85" data-x="1587772800" r="1" fill="white"><title>2020-04-25: 5</title></circle>
	<circle cx="103.27" cy="350.97" data-y="4.31" data-x="1587859200" r="1" fill="white"><title>2020-04-26: 4</title></circle>
	<circle cx="104.72" cy="354.97" data-y="3.59" data-x="1587945600" r="1" fill="white"><title>2020-04-27: 4</title></circle>
	<circle cx="106.17" cy="356.47" data-y="3.32" data-x="1588032000" r="1" fill="white"><title>2020-04-28: 3</title></circle>
	<circle cx="107.62" cy="356.47" data-y="3.32" data-x="1588118400" r="1" fill="white"><title>2020-04-29: 3</title></circle>
	<circle cx="109.07" cy="356.47" data-y="3.32" data-x="1588204800" r="1" fill="white"><title>2020-04-30: 3</title></circle>
	<circle cx="110.52" cy="358.48" data-y="2.96" data-x="1588291200" r="1" fill="white"><title>2020-05-01: 3</title></circle>
	<circle cx="111.97" cy="356.98" data-y="3.23" data-x="1588377600" r="1" fill="white"><title>2020-05-02: 3</title></circle>
	<circle cx="113.42" cy="355.47" data-y="3.50" data-x="1588464000" r="1" fill="white"><title>2020-05-03: 3</title></circle>
	<circle cx="114.87" cy="354.47" data-y="3.68" data-x="1588550400" r="1" fill="white"><title>2020-05-04: 4</title></circle>
	<circle cx="116.32" cy="355.97" data-y="3.41" data-x="1588636800" r="1" fill="white"><title>2020-05-05: 3</title></circle>
	<circle cx="117.77" cy="354.97" data-y="3.59" data-x="1588723200" r="1" fill="white"><title>2020-05-06: 4</title></circle>
	<circle cx="119.22" cy="354.47" data-y="3.68" data-x="1588809600" r="1" fill="white"><title>2020-05-07: 4</title></circle>
	<circle cx="120.67" cy="354.47" data-y="3.68" data-x="1588896000" r="1" fill="white"><title>2020-05-08: 4</title></circle>
	<circle cx="122.12" cy="357.48" data-y="3.14" data-x="1588982400" r="1" fill="white"><title>2020-05-09: 3</title></circle>
	<circle cx="123.57" cy="360.98" data-y="2.51" data-x="1589068800" r="1" fill="white"><title>2020-05-10: 3</title></circle>
	<circle cx="125.02" cy="364.49" data-y="1.88" data-x="1589155200" r="1" fill="white"><title>2020-05-11: 2</title></circle>
	<circle cx="126.47" cy="363.98" data-y="1.97" data-x="1589241600" r="1" fill="white"><title>2020-05-12: 2</title></circle>
	<circle cx="127.92" cy="364.99" data-y="1.79" data-x="1589328000" r="1" fill="white"><title>2020-05-13: 2</title></circle>
	<circle cx="129.36" cy="366.99" data-y="1.44" data-x="1589414400" r="1" fill="white"><title>2020-05-14: 1</title></circle>
	<circle cx="130.81" cy="366.99" data-y="1.44" data-x="1589500800" r="1" fill="white"><title>2020-05-15: 1</title></circle>
	<circle cx="132.26" cy="367.99" data-y="1.26" data-x="1589587200" r="1" fill="white"><title>2020-05-16: 1</title></circle>
	<circle cx="133.71" cy="367.49" data-y="1.35" data-x="1589673600" r="1" fill="white"><title>2020-05-17: 1</title></circle>
	<circle cx="135.16" cy="366.49" data-y="1.53" data-x="1589760000" r="1" fill="white"><title>2020-05-18: 2</title></circle>
	<circle cx="136.61" cy="366.49" data-y="1.53" data-x="1589846400" r="1" fill="white"><title>2020-05-19: 2</title></circle>
	<circle cx="138.06" cy="368.99" data-y="1.08" data-x="1589932800" r="1" fill="white"><title>2020-05-20: 1</title></circle>
	<circle cx="139.51" cy="368.99" data-y="1.08" data-x="1590019200" r="1" fill="white"><title>2020-05-21: 1</title></circle>
	<circle cx="140.96" cy="370.49" data-y="0.81" data-x="1590105600" r="1" fill="white"><title>2020-05-22: 1</title></circle>
	<circle cx="142.41" cy="370.49" data-y="0.81" data-x="1590192000" r="1" fill="white"><title>2020-05-23: 1</title></circle>
	<circle cx="143.86" cy="369.49" data-y="0.99" data-x="1590278400" r="1" fill="white"><title>2020-05-24: 1</title></circle>
	<circle cx="145.31" cy="369.99" data-y="0.90" data-x="1590364800" r="1" fill="white"><title>2020-05-25: 1</title></circle>
	<circle cx="146.76" cy="366.49" data-y="1.53" data-x="1590451200" r="1" fill="white"><title>2020-05-26: 2</title></circle>
	<circle cx="148.21" cy="364.99" data-y="1.79" data-x="1590537600" r="1" fill="white"><title>2020-05-27: 2</title></circle>
	<circle cx="149.66" cy="365.49" data-y="1.70" data-x="1590624000" r="1" fill="white"><title>2020-05-28: 2</title></circle>
	<circle cx="151.11" cy="364.49" data-y="1.88" data-x="1590710400" r="1" fill="white"><title>2020-05-29: 2</title></circle>
	<circle cx="152.56" cy="363.98" data-y="1.97" data-x="1590796800" r="1" fill="white"><title>2020-05-30: 2</title></circle>
	<circle cx="154.01" cy="365.49" data-y="1.70" data-x="1590883200" r="1" fill="white"><title>2020-05-31: 2</title></circle>
	<circle cx="155.46" cy="365.49" data-y="1.70" data-x="1590969600" r="1" fill="white"><title>2020-06-01: 2</title></circle>
	<circle cx="156.91" cy="367.99" data-y="1.26" data-x="1591056000" r="1" fill="white"><title>2020-06-02: 1</title></circle>
	<circle cx="158.36" cy="368.99" data-y="1.08" data-x="1591142400" r="1" fill="white"><title>2020-06-03: 1</title></circle>
	<circle cx="159.80" cy="368.99" data-y="1.08" data-x="1591228800" r="1" fill="white"><title>2020-06-04: 1</title></circle>
	<circle cx="161.25" cy="369.99" data-y="0.90" data-x="1591315200" r="1" fill="white"><title>2020-06-05: 1</title></circle>
	<circle cx="162.70" cy="370.99" data-y="0.72" data-x="1591401600" r="1" fill="white"><title>2020-06-06: 1</title></circle>
	<circle cx="164.15" cy="371.50" data-y="0.63" data-x="1591488000" r="1" fill="white"><title>2020-06-07: 1</title></circle>
	<circle cx="165.60" cy="372.50" data-y="0.45" data-x="1591574400" r="1" fill="white"><title>2020-06-08: 0</title></circle>
	<circle cx="167.05" cy="373.00" data-y="0.36" data-x="1591660800" r="1" fill="white"><title>2020-06-09: 0</title></circle>
	<circle cx="168.50" cy="374.00" data-y="0.18" data-x="1591747200" r="1" fill="white"><title>2020-06-10: 0</title></circle>
	<circle cx="169.95" cy="374.00" data-y="0.18" data-x="1591833600" r="1" fill="white"><title>2020-06-11: 0</title></circle>
	<circle cx="171.40" cy="374.00" data-y="0.18" data-x="1591920000" r="1" fill="white"><title>2020-06-12: 0</title></circle>
	<circle cx="172.85" cy="374.00" data-y="0.18" data-x="1592006400" r="1" fill="white"><title>2020-06-13: 0</title></circle>
	<circle cx="174.30" cy="374.00" data-y="0.18" data-x="1592092800" r="1" fill="white"><title>2020-06-14: 0</title></circle>
	<circle cx="175.75" cy="374.00" data-y="0.18" data-x="1592179200" r="1" fill="white"><title>2020-06-15: 0</title></circle>
	<circle cx="177.20" cy="375.00" data-y="0.00" data-x="1592265600" r="1" fill="white"><title>2020-06-16: 0</title></circle>
	<circle cx="178.65" cy="375.00" data-y="0.00" data-x="1592352000" r="1" fill="white"><title>2020-06-17: 0</title></circle>
	<circle cx="180.10" cy="375.00" data-y="0.00" data-x="1592438400" r="1" fill="white"><title>2020-06-18: 0</title></circle>
	<circle cx="181.55" cy="375.00" data-y="0.00" data-x="1592524800" r="1" fill="white"><title>2020-06-19: 0</title></circle>
	<circle cx="183.00" cy="375.00" data-y="0.00" data-x="1592611200" r="1" fill="white"><title>2020-06-20: 0</title></circle>
	<circle cx="184.45" cy="375.00" data-y="0.00" data-x="1592697600" r="1" fill="white"><title>2020-06-21: 0</title></circle>
	<circle cx="185.90" cy="375.00" data-y="0.00" data-x="1592784000" r="1" fill="white"><title>2020-06-22: 0</title></circle>
	<circle cx="187.35" cy="375.00" data-y="0.00" data-x="1592870400" r="1" fill="white"><title>2020-06-23: 0</title></circle>
	<circle cx="188.79" cy="375.00" data-y="0.00" data-x="1592956800" r="1" fill="white"><title>2020-06-24: 0</title></circle>
	<circle cx="190.24" cy="375.00" data-y="0.00" data-x="1593043200" r="1" fill="white"><title>2020-06-25: 0</title></circle>
	<circle cx="191.69" cy="374.50" data-y="0.09" data-x="1593129600" r="1" fill="white"><title>2020-06-26: 0</title></circle>
	<circle cx="193.14" cy="374.50" data-y="0.09" data-x="1593216000" r="1" fill="white"><title>2020-06-27: 0</title></circle>
	<circle cx="194.59" cy="374.00" data-y="0.18" data-x="1593302400" r="1" fill="white"><title>2020-06-28: 0</title></circle>
	<circle cx="196.04" cy="373.50" data-y="0.27" data-x="1593388800" r="1" fill="white"><title>2020-06-29: 0</title></circle>
	<circle cx="197.49" cy="373.50" data-y="0.27" data-x="1593475200" r="1" fill="white"><title>2020-06-30: 0</title></circle>
	<circle cx="198.94" cy="373.00" data-y="0.36" data-x="1593561600" r="1" fill="white"><title>2020-07-01: 0</title></circle>
	<circle cx="200.39" cy="373.00" data-y="0.36" data-x="1593648000" r="1" fill="white"><title>2020-07-02: 0</title></circle>
	<circle cx="201.84" cy="372.50" data-y="0.45" data-x="1593734400" r="1" fill="white"><title>2020-07-03: 0</title></circle>
	<circle cx="203.29" cy="372.00" data-y="0.54" data-x="1593820800" r="1" fill="white"><title>2020-07-04: 1</title></circle>
	<circle cx="204.74" cy="370.99" data-y="0.72" data-x="1593907200" r="1" fill="white"><title>2020-07-05: 1</title></circle>
	<circle cx="206.19" cy="370.49" data-y="0.81" data-x="1593993600" r="1" fill="white"><title>2020-07-06: 1</title></circle>
	<circle cx="207.64" cy="369.99" data-y="0.90" data-x="1594080000" r="1" fill="white"><title>2020-07-07: 1</title></circle>
	<circle cx="209.09" cy="370.49" data-y="0.81" data-x="1594166400" r="1" fill="white"><title>2020-07-08: 1</title></circle>
	<circle cx="210.54" cy="370.49" data-y="0.81" data-x="1594252800" r="1" fill="white"><title>2020-07-09: 1</title></circle>
	<circle cx="211.99" cy="371.50" data-y="0.63" data-x="1594339200" r="1" fill="white"><title>2020-07-10: 1</title></circle>
	<circle cx="213.44" cy="372.00" data-y="0.54" data-x="1594425600" r="1" fill="white"><title>2020-07-11: 1</title></circle>
	<circle cx="214.89" cy="372.50" data-y="0.45" data-x="1594512000" r="1" fill="white"><title>2020-07-12: 0</title></circle>
	<circle cx="216.34" cy="370.99" data-y="0.72" data-x="1594598400" r="1" fill="white"><title>2020-07-13: 1</title></circle>
	<circle cx="217.79" cy="369.49" data-y="0.99" data-x="1594684800" r="1" fill="white"><title>2020-07-14: 1</title></circle>
	<circle cx="219.23" cy="368.99" data-y="1.08" data-x="1594771200" r="1" fill="white"><title>2020-07-15: 1</title></circle>
	<circle cx="220.68" cy="368.99" data-y="1.08" data-x="1594857600" r="1" fill="white"><title>2020-07-16: 1</title></circle>
	<circle cx="222.13" cy="368.49" data-y="1.17" data-x="1594944000" r="1" fill="white"><title>2020-07-17: 1</title></circle>
	<circle cx="223.58" cy="367.49" data-y="1.35" data-x="1595030400" r="1" fill="white"><title>2020-07-18: 1</title></circle>
	<circle cx="225.03" cy="368.49" data-y="1.17" data-x="1595116800" r="1" fill="white"><title>2020-07-19: 1</title></circle>
	<circle cx="226.48" cy="370.49" data-y="0.81" data-x="1595203200" r="1" fill="white"><title>2020-07-20: 1</title></circle>
	<circle cx="227.93" cy="372.00" data-y="0.54" data-x="1595289600" r="1" fill="white"><title>2020-07-21: 1</title></circle>
	<circle cx="229.38" cy="372.50" data-y="0.45" data-x="1595376000" r="1" fill="white"><title>2020-07-22: 0</title></circle>
	<circle cx="230.83" cy="372.50" data-y="0.45" data-x="1595462400" r="1" fill="white"><title>2020-07-23: 0</title></circle>
	<circle cx="232.28" cy="372.50" data-y="0.45" data-x="1595548800" r="1" fill="white"><title>2020-07-24: 0</title></circle>
	<circle cx="233.73" cy="373.50" data-y="0.27" data-x="1595635200" r="1" fill="white"><title>2020-07-25: 0</title></circle>
	<circle cx="235.18" cy="373.00" data-y="0.36" data-x="1595721600" r="1" fill="white"><title>2020-07-26: 0</title></circle>
	<circle cx="236.63" cy="372.50" data-y="0.45" data-x="1595808000" r="1" fill="white"><title>2020-07-27: 0</title></circle>
	<circle cx="238.08" cy="373.00" data-y="0.36" data-x="1595894400" r="1" fill="white"><title>2020-07-28: 0</title></circle>
	<circle cx="239.53" cy="373.00" data-y="0.36" data-x="1595980800" r="1" fill="white"><title>2020-07-29: 0</title></circle>
	<circle cx="240.98" cy="372.50" data-y="0.45" data-x="1596067200" r="1" fill="white"><title>2020-07-30: 0</title></circle>
	<circle cx="242.43" cy="373.00" data-y="0.36" data-x="1596153600" r="1" fill="white"><title>2020-07-31: 0</title></circle>
	<circle cx="243.88" cy="372.50" data-y="0.45" data-x="1596240000" r="1" fill="white"><title>2020-08-01: 0</title></circle>
	<circle cx="245.33" cy="373.00" data-y="0.36" data-x="1596326400" r="1" fill="white"><title>2020-08-02: 0</title></circle>
	<circle cx="246.78" cy="374.00" data-y="0.18" data-x="1596412800" r="1" fill="white"><title>2020-08-03: 0</title></circle>
	<circle cx="248.22" cy="373.50" data-y="0.27" data-x="1596499200" r="1" fill="white"><title>2020-08-04: 0</title></circle>
	<circle cx="249.67" cy="373.00" data-y="0.36" data-x="1596585600" r="1" fill="white"><title>2020-08-05: 0</title></circle>
	<circle cx="251.12" cy="373.50" data-y="0.27" data-x="1596672000" r="1" fill="white"><title>2020-08-06: 0</title></circle>
	<circle cx="252.57" cy="373.50" data-y="0.27" data-x="1596758400" r="1" fill="white"><title>2020-08-07: 0</title></circle>
	<circle cx="254.02" cy="373.50" data-y="0.27" data-x="1596844800" r="1" fill="white"><title>2020-08-08: 0</title></circle>
	<circle cx="255.47" cy="373.00" data-y="0.36" data-x="1596931200" r="1" fill="white"><title>2020-08-09: 0</title></circle>
	<circle cx="256.92" cy="372.50" data-y="0.45" data-x="1597017600" r="1" fill="white"><title>2020-08-10: 0</title></circle>
	<circle cx="258.37" cy="372.50" data-y="0.45" data-x="1597104000" r="1" fill="white"><title>2020-08-11: 0</title></circle>
	<circle cx="259.82" cy="373.00" data-y="0.36" data-x="1597190400" r="1" fill="white"><title>2020-08-12: 0</title></circle>
	<circle cx="261.27" cy="373.00" data-y="0.36" data-x="1597276800" r="1" fill="white"><title>2020-08-13: 0</title></circle>
	<circle cx="262.72" cy="372.50" data-y="0.45" data-x="1597363200" r="1" fill="white"><title>2020-08-14: 0</title></circle>
	<circle cx="264.17" cy="373.00" data-y="0.36" data-x="1597449600" r="1" fill="white"><title>2020-08-15: 0</title></circle>
	<circle cx="265.62" cy="373.50" data-y="0.27" data-x="1597536000" r="1" fill="white"><title>2020-08-16: 0</title></circle>
	<circle cx="267.07" cy="373.50" data-y="0.27" data-x="1597622400" r="1" fill="white"><title>2020-08-17: 0</title></circle>
	<circle cx="268.52" cy="372.50" data-y="0.45" data-x="1597708800" r="1" fill="white"><title>2020-08-18: 0</title></circle>
	<circle cx="269.97" cy="372.50" data-y="0.45" data-x="1597795200" r="1" fill="white"><title>2020-08-19: 0</title></circle>
	<circle cx="271.42" cy="372.50" data-y="0.45" data-x="1597881600" r="1" fill="white"><title>2020-08-20: 0</title></circle>
	<circle cx="272.87" cy="372.00" data-y="0.54" data-x="1597968000" r="1" fill="white"><title>2020-08-21: 1</title></circle>
	<circle cx="274.32" cy="370.99" data-y="0.72" data-x="1598054400" r="1" fill="white"><title>2020-08-22: 1</title></circle>
	<circle cx="275.77" cy="369.99" data-y="0.90" data-x="1598140800" r="1" fill="white"><title>2020-08-23: 1</title></circle>
	<circle cx="277.21" cy="369.99" data-y="0.90" data-x="1598227200" r="1" fill="white"><title>2020-08-24: 1</title></circle>
	<circle cx="278.66" cy="369.99" data-y="0.90" data-x="1598313600" r="1" fill="white"><title>2020-08-25: 1</title></circle>
	<circle cx="280.11" cy="369.99" data-y="0.90" data-x="1598400000" r="1" fill="white"><title>2020-08-26: 1</title></circle>
	<circle cx="281.56" cy="369.49" data-y="0.99" data-x="1598486400" r="1" fill="white"><title>2020-08-27: 1</title></circle>
	<circle cx="283.01" cy="369.49" data-y="0.99" data-x="1598572800" r="1" fill="white"><title>2020-08-28: 1</title></circle>
	<circle cx="284.46" cy="369.49" data-y="0.99" data-x="1598659200" r="1" fill="white"><title>2020-08-29: 1</title></circle>
	<circle cx="285.91" cy="366.99" data-y="1.44" data-x="1598745600" r="1" fill="white"><title>2020-08-30: 1</title></circle>
	<circle cx="287.36" cy="367.49" data-y="1.35" data-x="1598832000" r="1" fill="white"><title>2020-08-31: 1</title></circle>
	<circle cx="288.81" cy="368.49" data-y="1.17" data-x="1598918400" r="1" fill="white"><title>2020-09-01: 1</title></circle>
	<circle cx="290.26" cy="366.99" data-y="1.44" data-x="1599004800" r="1" fill="white"><title>2020-09-02: 1</title></circle>
	<circle cx="291.71" cy="365.99" data-y="1.62" data-x="1599091200" r="1" fill="white"><title>2020-09-03: 2</title></circle>
	<circle cx="293.16" cy="365.99" data-y="1.62" data-x="1599177600" r="1" fill="white"><title>2020-09-04: 2</title></circle>
	<circle cx="294.61" cy="363.98" data-y="1.97" data-x="1599264000" r="1" fill="white"><title>2020-09-05: 2</title></circle>
	<circle cx="296.06" cy="366.49" data-y="1.53" data-x="1599350400" r="1" fill="white"><title>2020-09-06: 2</title></circle>
	<circle cx="297.51" cy="365.49" data-y="1.70" data-x="1599436800" r="1" fill="white"><title>2020-09-07: 2</title></circle>
	<circle cx="298.96" cy="365.49" data-y="1.70" data-x="1599523200" r="1" fill="white"><title>2020-09-08: 2</title></circle>
	<circle cx="300.41" cy="366.99" data-y="1.44" data-x="1599609600" r="1" fill="white"><title>2020-09-09: 1</title></circle>
	<circle cx="301.86" cy="367.49" data-y="1.35" data-x="1599696000" r="1" fill="white"><title>2020-09-10: 1</title></circle>
	<circle cx="303.31" cy="366.49" data-y="1.53" data-x="1599782400" r="1" fill="white"><title>2020-09-11: 2</title></circle>
	<circle cx="304.76" cy="368.49" data-y="1.17" data-x="1599868800" r="1" fill="white"><title>2020-09-12: 1</title></circle>
	<circle cx="306.21" cy="367.49" data-y="1.35" data-x="1599955200" r="1" fill="white"><title>2020-09-13: 1</title></circle>
	<circle cx="307.65" cy="368.49" data-y="1.17" data-x="1600041600" r="1" fill="white"><title>2020-09-14: 1</title></circle>
	<circle cx="309.10" cy="366.99" data-y="1.44" data-x="1600128000" r="1" fill="white"><title>2020-09-15: 1</title></circle>
	<circle cx="310.55" cy="365.99" data-y="1.62" data-x="1600214400" r="1" fill="white"><title>2020-09-16: 2</title></circle>
	<circle cx="312.00" cy="365.49" data-y="1.70" data-x="1600300800" r="1" fill="white"><title>2020-09-17: 2</title></circle>
	<circle cx="313.45" cy="365.99" data-y="1.62" data-x="1600387200" r="1" fill="white"><title>2020-09-18: 2</title></circle>
	<circle cx="314.90" cy="365.99" data-y="1.62" data-x="1600473600" r="1" fill="white"><title>2020-09-19: 2</title></circle>
	<circle cx="316.35" cy="365.99" data-y="1.62" data-x="1600560000" r="1" fill="white"><title>2020-09-20: 2</title></circle>
	<circle cx="317.80" cy="364.99" data-y="1.79" data-x="1600646400" r="1" fill="white"><title>2020-09-21: 2</title></circle>
	<circle cx="319.25" cy="364.99" data-y="1.79" data-x="1600732800" r="1" fill="white"><title>2020-09-22: 2</title></circle>
	<circle cx="320.70" cy="364.99" data-y="1.79" data-x="1600819200" r="1" fill="white"><title>2020-09-23: 2</title></circle>
	<circle cx="322.15" cy="364.49" data-y="1.88" data-x="1600905600" r="1" fill="white"><title>2020-09-24: 2</title></circle>
	<circle cx="323.60" cy="363.48" data-y="2.06" data-x="1600992000" r="1" fill="white"><title>2020-09-25: 2</title></circle>
	<circle cx="325.05" cy="361.98" data-y="2.33" data-x="1601078400" r="1" fill="white"><title>2020-09-26: 2</title></circle>
	<circle cx="326.50" cy="358.48" data-y="2.96" data-x="1601164800" r="1" fill="white"><title>2020-09-27: 3</title></circle>
	<circle cx="327.95" cy="356.47" data-y="3.32" data-x="1601251200" r="1" fill="white"><title>2020-09-28: 3</title></circle>
	<circle cx="329.40" cy="355.47" data-y="3.50" data-x="1601337600" r="1" fill="white"><title>2020-09-29: 3</title></circle>
	<circle cx="330.85" cy="352.97" data-y="3.95" data-x="1601424000" r="1" fill="white"><title>2020-09-30: 4</title></circle>
	<circle cx="332.30" cy="351.97" data-y="4.13" data-x="1601510400" r="1" fill="white"><title>2020-10-01: 4</title></circle>
	<circle cx="333.75" cy="347.96" data-y="4.85" data-x="1601596800" r="1" fill="white"><title>2020-10-02: 5</title></circle>
	<circle cx="335.20" cy="343.46" data-y="5.65" data-x="1601683200" r="1" fill="white"><title>2020-10-03: 6</title></circle>
	<circle cx="336.64" cy="343.46" data-y="5.65" data-x="1601769600" r="1" fill="white"><title>2020-10-04: 6</title></circle>
	<circle cx="338.09" cy="338.95" data-y="6.46" data-x="1601856000" r="1" fill="white"><title>2020-10-05: 6</title></circle>
	<circle cx="339.54" cy="334.95" data-y="7.18" data-x="1601942400" r="1" fill="white"><title>2020-10-06: 7</title></circle>
	<circle cx="340.99" cy="334.95" data-y="7.18" data-x="1602028800" r="1" fill="white"><title>2020-10-07: 7</title></circle>
	<circle cx="342.44" cy="335.95" data-y="7.00" data-x="1602115200" r="1" fill="white"><title>2020-10-08: 7</title></circle>
	<circle cx="343.89" cy="334.44" data-y="7.27" data-x="1602201600" r="1" fill="white"><title>2020-10-09: 7</title></circle>
	<circle cx="345.34" cy="336.95" data-y="6.82" data-x="1602288000" r="1" fill="white"><title>2020-10-10: 7</title></circle>
	<circle cx="346.79" cy="338.45" data-y="6.55" data-x="1602374400" r="1" fill="white"><title>2020-10-11: 7</title></circle>
	<circle cx="348.24" cy="337.45" data-y="6.73" data-x="1602460800" r="1" fill="white"><title>2020-10-12: 7</title></circle>
	<circle cx="349.69" cy="341.45" data-y="6.01" data-x="1602547200" r="1" fill="white"><title>2020-10-13: 6</title></circle>
	<circle cx="351.14" cy="342.96" data-y="5.74" data-x="1602633600" r="1" fill="white"><title>2020-10-14: 6</title></circle>
	<circle cx="352.59" cy="339.45" data-y="6.37" data-x="1602720000" r="1" fill="white"><title>2020-10-15: 6</title></circle>
	<circle cx="354.04" cy="339.45" data-y="6.37" data-x="1602806400" r="1" fill="white"><title>2020-10-16: 6</title></circle>
	<circle cx="355.49" cy="331.94" data-y="7.72" data-x="1602892800" r="1" fill="white"><title>2020-10-17: 8</title></circle>
	<circle cx="356.94" cy="326.93" data-y="8.61" data-x="1602979200" r="1" fill="white"><title>2020-10-18: 9</title></circle>
	<circle cx="358.39" cy="328.94" data-y="8.26" data-x="1603065600" r="1" fill="white"><title>2020-10-19: 8</title></circle>
	<circle cx="359.84" cy="324.93" data-y="8.97" data-x="1603152000" r="1" fill="white"><title>2020-10-20: 9</title></circle>
	<circle cx="361.29" cy="320.93" data-y="9.69" data-x="1603238400" r="1" fill="white"><title>2020-10-21: 10</title></circle>
	<circle cx="362.74" cy="321.93" data-y="9.51" data-x="1603324800" r="1" fill="white"><title>2020-10-22: 10</title></circle>
	<circle cx="364.19" cy="321.93" data-y="9.51" data-x="1603411200" r="1" fill="white"><title>2020-10-23: 10</title></circle>
	<circle cx="365.64" cy="324.93" data-y="8.97" data-x="1603497600" r="1" fill="white"><title>2020-10-24: 9</title></circle>
	<circle cx="367.08" cy="325.93" data-y="8.79" data-x="1603584000" r="1" fill="white"><title>2020-10-25: 9</title></circle>
	<circle cx="368.53" cy="325.43" data-y="8.88" data-x="1603670400" r="1" fill="white"><title>2020-10-26: 9</title></circle>
	<circle cx="369.98" cy="323.43" data-y="9.24" data-x="1603756800" r="1" fill="white"><title>2020-10-27: 9</title></circle>
	<circle cx="371.43" cy="323.93" data-y="9.15" data-x="1603843200" r="1" fill="white"><title>2020-10-28: 9</title></circle>
	<circle cx="372.88" cy="322.93" data-y="9.33" data-x="1603929600" r="1" fill="white"><title>2020-10-29: 9</title></circle>
	<circle cx="374.33" cy="314.42" data-y="10.86" data-x="1604016000" r="1" fill="white"><title>2020-10-30: 11</title></circle>
	<circle cx="375.78" cy="313.42" data-y="11.04" data-x="1604102400" r="1" fill="white"><title>2020-10-31: 11</title></circle>
	<circle cx="377.23" cy="307.91" data-y="12.02" data-x="1604188800" r="1" fill="white"><title>2020-11-01: 12</title></circle>
	<circle cx="378.68" cy="301.40" data-y="13.19" data-x="1604275200" r="1" fill="white"><title>2020-11-02: 13</title></circle>
	<circle cx="380.13" cy="297.89" data-y="13.82" data-x="1604361600" r="1" fill="white"><title>2020-11-03: 14</title></circle>
	<circle cx="381.58" cy="293.89" data-y="14.54" data-x="1604448000" r="1" fill="white"><title>2020-11-04: 15</title></circle>
	<circle cx="383.03" cy="286.88" data-y="15.79" data-x="1604534400" r="1" fill="white"><title>2020-11-05: 16</title></circle>
	<circle cx="384.48" cy="288.38" data-y="15.52" data-x="1604620800" r="1" fill="white"><title>2020-11-06: 16</title></circle>
	<circle cx="385.93" cy="281.87" data-y="16.69" data-x="1604707200" r="1" fill="white"><title>2020-11-07: 17</title></circle>
	<circle cx="387.38" cy="281.37" data-y="16.78" data-x="1604793600" r="1" fill="white"><title>2020-11-08: 17</title></circle>
	<circle cx="388.83" cy="276.87" data-y="17.59" data-x="1604880000" r="1" fill="white"><title>2020-11-09: 18</title></circle>
	<circle cx="390.28" cy="281.37" data-y="16.78" data-x="1604966400" r="1" fill="white"><title>2020-11-10: 17</title></circle>
	<circle cx="391.73" cy="285.88" data-y="15.97" data-x="1605052800" r="1" fill="white"><title>2020-11-11: 16</title></circle>
	<circle cx="393.18" cy="292.89" data-y="14.72" data-x="1605139200" r="1" fill="white"><title>2020-11-12: 15</title></circle>
	<circle cx="394.63" cy="293.39" data-y="14.63" data-x="1605225600" r="1" fill="white"><title>2020-11-13: 15</title></circle>
	<circle cx="396.07" cy="302.40" data-y="13.01" data-x="1605312000" r="1" fill="white"><title>2020-11-14: 13</title></circle>
	<circle cx="397.52" cy="305.91" data-y="12.38" data-x="1605398400" r="1" fill="white"><title>2020-11-15: 12</title></circle>
	<circle cx="398.97" cy="316.92" data-y="10.41" data-x="1605484800" r="1" fill="white"><title>2020-11-16: 10</title></circle>
	<circle cx="400.42" cy="321.43" data-y="9.60" data-x="1605571200" r="1" fill="white"><title>2020-11-17: 10</title></circle>
	<circle cx="401.87" cy="322.43" data-y="9.42" data-x="1605657600" r="1" fill="white"><title>2020-11-18: 9</title></circle>
	<circle cx="403.32" cy="324.93" data-y="8.97" data-x="1605744000" r="1" fill="white"><title>2020-11-19: 9</title></circle>
	<circle cx="404.77" cy="330.94" data-y="7.90" data-x="1605830400" r="1" fill="white"><title>2020-11-20: 8</title></circle>
	<circle cx="406.22" cy="331.94" data-y="7.72" data-x="1605916800" r="1" fill="white"><title>2020-11-21: 8</title></circle>
	<circle cx="407.67" cy="337.45" data-y="6.73" data-x="1606003200" r="1" fill="white"><title>2020-11-22: 7</title></circle>
	<circle cx="409.12" cy="339.95" data-y="6.28" data-x="1606089600" r="1" fill="white"><title>2020-11-23: 6</title></circle>
	<circle cx="410.57" cy="336.95" data-y="6.82" data-x="1606176000" r="1" fill="white"><title>2020-11-24: 7</title></circle>
	<circle cx="412.02" cy="336.45" data-y="6.91" data-x="1606262400" r="1" fill="white"><title>2020-11-25: 7</title></circle>
	<circle cx="413.47" cy="335.95" data-y="7.00" data-x="1606348800" r="1" fill="white"><title>2020-11-26: 7</title></circle>
	<circle cx="414.92" cy="334.44" data-y="7.27" data-x="1606435200" r="1" fill="white"><title>2020-11-27: 7</title></circle>
	<circle cx="416.37" cy="336.95" data-y="6.82" data-x="1606521600" r="1" fill="white"><title>2020-11-28: 7</title></circle>
	<circle cx="417.82" cy="334.44" data-y="7.27" data-x="1606608000" r="1" fill="white"><title>2020-11-29: 7</title></circle>
	<circle cx="419.27" cy="329.44" data-y="8.17" data-x="1606694400" r="1" fill="white"><title>2020-11-30: 8</title></circle>
	<circle cx="420.72" cy="326.93" data-y="8.61" data-x="1606780800" r="1" fill="white"><title>2020-12-01: 9</title></circle>
	<circle cx="422.17" cy="325.43" data-y="8.88" data-x="1606867200" r="1" fill="white"><title>2020-12-02: 9</title></circle>
	<circle cx="423.62" cy="324.43" data-y="9.06" data-x="1606953600" r="1" fill="white"><title>2020-12-03: 9</title></circle>
	<circle cx="425.07" cy="325.93" data-y="8.79" data-x="1607040000" r="1" fill="white"><title>2020-12-04: 9</title></circle>
	<circle cx="426.51" cy="315.92" data-y="10.59" data-x="1607126400" r="1" fill="white"><title>2020-12-05: 11</title></circle>
	<circle cx="427.96" cy="308.91" data-y="11.84" data-x="1607212800" r="1" fill="white"><title>2020-12-06: 12</title></circle>
	<circle cx="429.41" cy="308.41" data-y="11.93" data-x="1607299200" r="1" fill="white"><title>2020-12-07: 12</title></circle>
	<circle cx="430.86" cy="296.39" data-y="14.09" data-x="1607385600" r="1" fill="white"><title>2020-12-08: 14</title></circle>
	<circle cx="432.31" cy="286.88" data-y="15.79" data-x="1607472000" r="1" fill="white"><title>2020-12-09: 16</title></circle>
	<circle cx="433.76" cy="273.36" data-y="18.22" data-x="1607558400" r="1" fill="white"><title>2020-12-10: 18</title></circle>
	<circle cx="435.21" cy="254.33" data-y="21.63" data-x="1607644800" r="1" fill="white"><title>2020-12-11: 22</title></circle>
	<circle cx="436.66" cy="235.81" data-y="24.95" data-x="1607731200" r="1" fill="white"><title>2020-12-12: 25</title></circle>
	<circle cx="438.11" cy="218.29" data-y="28.09" data-x="1607817600" r="1" fill="white"><title>2020-12-13: 28</title></circle>
	<circle cx="439.56" cy="201.26" data-y="31.14" data-x="1607904000" r="1" fill="white"><title>2020-12-14: 31</title></circle>
	<circle cx="441.01" cy="190.25" data-y="33.11" data-x="1607990400" r="1" fill="white"><title>2020-12-15: 33</title></circle>
	<circle cx="442.46" cy="194.25" data-y="32.39" data-x="1608076800" r="1" fill="white"><title>2020-12-16: 32</title></circle>
	<circle cx="443.91" cy="180.73" data-y="34.82" data-x="1608163200" r="1" fill="white"><title>2020-12-17: 35</title></circle>
	<circle cx="445.36" cy="173.22" data-y="36.16" data-x="1608249600" r="1" fill="white"><title>2020-12-18: 36</title></circle>
	<circle cx="446.81" cy="169.22" data-y="36.88" data-x="1608336000" r="1" fill="white"><title>2020-12-19: 37</title></circle>
	<circle cx="448.26" cy="172.72" data-y="36.25" data-x="1608422400" r="1" fill="white"><title>2020-12-20: 36</title></circle>
	<circle cx="449.71" cy="171.72" data-y="36.43" data-x="1608508800" r="1" fill="white"><title>2020-12-21: 36</title></circle>
	<circle cx="451.16" cy="190.25" data-y="33.11" data-x="1608595200" r="1" fill="white"><title>2020-12-22: 33</title></circle>
	<circle cx="452.61" cy="153.70" data-y="39.66" data-x="1608681600" r="1" fill="white"><title>2020-12-23: 40</title></circle>
	<circle cx="454.06" cy="130.16" data-y="43.88" data-x="1608768000" r="1" fill="white"><title>2020-12-24: 44</title></circle>
	<circle cx="455.50" cy="123.66" data-y="45.05" data-x="1608854400" r="1" fill="white"><title>2020-12-25: 45</title></circle>
	<circle cx="456.95" cy="64.57" data-y="55.63" data-x="1608940800" r="1" fill="white"><title>2020-12-26: 56</title></circle>
	<circle cx="458.40" cy="43.55" data-y="59.40" data-x="1609027200" r="1" fill="white"><title>2020-12-27: 59</title></circle>
	<circle cx="459.85" cy="28.53" data-y="62.09" data-x="1609113600" r="1" fill="white"><title>2020-12-28: 62</title></circle>
	<circle cx="461.30" cy="10.00" data-y="65.41" data-x="1609200000" r="1" fill="white"><title>2020-12-29: 65</title></circle>
	<circle cx="462.75" cy="12.00" data-y="65.06" data-x="1609286400" r="1" fill="white"><title>2020-12-30: 65</title></circle>
</g>
<g data-series="recent-cases" class="data-series">
	<path d="M 462.75,12.00L 464.20,45.05L 465.65,86.10L 467.10,149.52L 468.55,173.82L 470.00,198.88" id="Recent cases" class="line" stroke-width="1" stroke-linecap="round" stroke-dasharray="4,6" stroke-dashoffset="4"><title>Recent cases</title></path>
	<circle cx="462.75" cy="12.00" data-y="65.06" data-x="1609286400" r="2.5" fill="white"><title>2020-12-30: 65</title></circle>
	<circle cx="464.20" cy="45.05" data-y="59.13" data-x="1609372800" r="2.5" fill="white"><title>2020-12-31: 59</title></circle>
	<circle cx="465.65" cy="86.10" data-y="51.78" data-x="1609459200" r="2.5" fill="white"><title>2021-01-01: 52</title></circle>
	<circle cx="467.10" cy="149.52" data-y="40.41" data-x="1609545600" r="2.5" fill="white"><title>2021-01-02: 40</title></circle>
	<circle cx="468.55" cy="173.82" data-y="36.05" data-x="1609632000" r="2.5" fill="white"><title>2021-01-03: 36</title></circle>
	<circle cx="470.00" cy="198.88" data-y="31.56" data-x="1609718400" r="2.5" fill="white"><title>2021-01-04: 32</title></circle>
</g>
</svg>
