<svg width="480" height="400" viewBox="0 0 480 400" xmlns="http://www.w3.org/2000/svg" style="overflow:display" preserveAspectRatio="xMinYMin meet" overflow="visible">
<defs>
	<style>
	.data-series path.line { fill-opacity: 0; stroke: black; }
	.data-series path.line.dotted { stroke-dasharray: 12 20 }
	.data-series:hover path.line, .data-series.on path.line { stroke-width: 1; }
	.data-series:hover circle, .data-series.on circle { display: inline; }
	.graph-grid { font-family: "Helvetica Neue",Helvetica,Arial,"Lucida Grande",sans-serif; }
	.graph-grid line { stroke: black; stroke-width: 1; stroke-linecap: round; }
	.graph-grid.graph-grid-x text { text-anchor: middle; dominant-baseline: hanging; transform: translateY(10px); }
	.graph-grid.graph-grid-y text { text-anchor: end; dominant-baseline: middle; transform: translateX(-10px); }
	</style>
</defs>
<g class="graph-grid graph-grid-y">
	<line x1="25.00" y1="375.00" x2="470.00" y2="375.00" data-left="25"></line>
	<text x="35" y="375" text-anchor="end">0</text>
	<text x="35" y="235.205" text-anchor="end">5</text>
	<text x="35" y="95.41" text-anchor="end">10</text>
	<text style="text-anchor:middle;dominant-baseline:hanging;font-weight:bold;transform: translateY(192.5px) rotate(-90deg);"></text>
</g>
<g class="graph-grid graph-grid-x">
	<line class="tick" x1="73.21" y1="375.00" x2="73.21" y2="380.00"></line>
	<text x="73.2083333333333" y="375" text-anchor="middle">A</text>
	<line class="tick" x1="128.83" y1="375.00" x2="128.83" y2="380.00"></line>
	<text x="128.833333333333" y="375" text-anchor="middle">M</text>
	<line class="tick" x1="186.31" y1="375.00" x2="186.31" y2="380.00"></line>
	<text x="186.3125" y="375" text-anchor="middle">J</text>
	<line class="tick" x1="241.94" y1="375.00" x2="241.94" y2="380.00"></line>
	<text x="241.9375" y="375" text-anchor="middle">J</text>
	<line class="tick" x1="299.42" y1="375.00" x2="299.42" y2="380.00"></line>
	<text x="299.416666666667" y="375" text-anchor="middle">A</text>
	<line class="tick" x1="356.90" y1="375.00" x2="356.90" y2="380.00"></line>
	<text x="356.895833333333" y="375" text-anchor="middle">S</text>
	<line class="tick" x1="412.52" y1="375.00" x2="412.52" y2="380.00"></line>
	<text x="412.520833333333" y="375" text-anchor="middle">O</text>
	<line class="tick" x1="470.00" y1="375.00" x2="470.00" y2="380.00"></line>
	<text x="470" y="375" text-anchor="middle">N</text>
	<text style="text-anchor:middle;dominant-baseline:hanging;font-weight:bold;transform: translateY(192.5px) rotate(-90deg);"></text>
</g>
<g data-series="widespread" class="data-series">
	<path d="M 25.00,179.29L 470.00,179.29" id="E07000085-level-0" class="line" stroke-width="1" stroke-linecap="round" stroke-dasharray="3,3" fill-opacity="0.3" opacity="0.3"><title>Widespread</title></path>
</g>
<g data-series="substantial" class="data-series">
	<path d="M 25.00,263.16L 470.00,263.16" id="E07000085-level-1" class="line" stroke-width="1" stroke-linecap="round" stroke-dasharray="3,3" fill-opacity="0.3" opacity="0.3"><title>Substantial</title></path>
</g>
<g data-series="moderate" class="data-series">
	<path d="M 25.00,347.04L 470.00,347.04" id="E07000085-level-2" class="line" stroke-width="1" stroke-linecap="round" stroke-dasharray="3,3" fill-opacity="0.3" opacity="0.3"><title>Moderate</title></path>
</g>
<g data-series="new-cases" class="data-series">
	<path d="M 25.00,369.30L 26.85,370.44L 28.71,371.20L 30.56,361.96L 32.42,355.45L 34.27,355.45L 36.12,355.45L 37.98,348.93L 39.83,348.93L 41.69,345.67L 43.54,352.19L 45.40,348.93L 47.25,339.15L 49.10,329.38L 50.96,322.86L 52.81,319.60L 54.67,313.08L 56.52,300.04L 58.38,296.79L 60.23,293.53L 62.08,290.27L 63.94,290.27L 65.79,270.71L 67.65,273.97L 69.50,280.49L 71.35,280.49L 73.21,283.75L 75.06,277.23L 76.92,273.97L 78.77,247.90L 80.62,234.87L 82.48,238.12L 84.33,231.61L 86.19,225.09L 88.04,218.57L 89.90,205.54L 91.75,228.35L 93.60,221.83L 95.46,195.76L 97.31,185.98L 99.17,182.72L 101.02,179.46L 102.88,192.50L 104.73,159.91L 106.58,127.32L 108.44,75.18L 110.29,58.88L 112.15,32.81L 114.00,23.04L 115.85,19.78L 117.71,13.26L 119.56,10.00L 121.42,45.85L 123.27,55.62L 125.12,78.44L 126.98,107.77L 128.83,97.99L 130.69,133.84L 132.54,163.17L 134.40,205.54L 136.25,231.61L 138.10,241.38L 139.96,241.38L 141.81,254.42L 143.67,277.23L 145.52,296.79L 147.38,283.75L 149.23,296.79L 151.08,309.82L 152.94,316.34L 154.79,319.60L 156.65,319.60L 158.50,322.86L 160.35,339.15L 162.21,322.86L 164.06,290.27L 165.92,277.23L 167.77,287.01L 169.62,287.01L 171.48,296.79L 173.33,300.04L 175.19,309.82L 177.04,342.41L 178.90,355.45L 180.75,342.41L 182.60,348.93L 184.46,348.93L 186.31,348.93L 188.17,348.93L 190.02,348.93L 191.88,348.93L 193.73,365.22L 195.58,365.22L 197.44,358.71L 199.29,358.71L 201.15,365.22L 203.00,361.96L 204.85,365.22L 206.71,361.96L 208.56,361.96L 210.42,365.22L 212.27,361.96L 214.12,358.71L 215.98,361.96L 217.83,361.96L 219.69,365.22L 221.54,365.22L 223.40,368.48L 225.25,371.74L 227.10,371.74L 228.96,371.74L 230.81,371.74L 232.67,365.22L 234.52,361.96L 236.38,361.96L 238.23,361.96L 240.08,365.22L 241.94,365.22L 243.79,365.22L 245.65,371.74L 247.50,375.00L 249.35,375.00L 251.21,371.74L 253.06,371.74L 254.92,368.48L 256.77,368.48L 258.62,368.48L 260.48,365.22L 262.33,361.96L 264.19,361.96L 266.04,361.96L 267.90,365.22L 269.75,365.22L 271.60,361.96L 273.46,365.22L 275.31,365.22L 277.17,361.96L 279.02,361.96L 280.88,355.45L 282.73,352.19L 284.58,348.93L 286.44,348.93L 288.29,352.19L 290.15,355.45L 292.00,352.19L 293.85,358.71L 295.71,361.96L 297.56,368.48L 299.42,368.48L 301.27,368.48L 303.12,365.22L 304.98,368.48L 306.83,368.48L 308.69,365.22L 310.54,361.96L 312.40,361.96L 314.25,361.96L 316.10,361.96L 317.96,355.45L 319.81,352.19L 321.67,355.45L 323.52,355.45L 325.38,348.93L 327.23,348.93L 329.08,345.67L 330.94,348.93L 332.79,352.19L 334.65,345.67L 336.50,332.63L 338.35,329.38L 340.21,329.38L 342.06,329.38L 343.92,329.38L 345.77,326.12L 347.62,326.12L 349.48,339.15L 351.33,339.15L 353.19,326.12L 355.04,329.38L 356.90,326.12L 358.75,329.38L 360.60,322.86L 362.46,322.86L 364.31,332.63L 366.17,342.41L 368.02,342.41L 369.88,339.15L 371.73,335.89L 373.58,348.93L 375.44,335.89L 377.29,335.89L 379.15,335.89L 381.00,335.89L 382.85,339.15L 384.71,342.41L 386.56,335.89L 388.42,345.67L 390.27,332.63L 392.12,322.86L 393.98,313.08L 395.83,313.08L 397.69,306.56L 399.54,296.79L 401.40,287.01L 403.25,283.75L 405.10,277.23L 406.96,257.68L 408.81,241.38L 410.67,218.57L 412.52,205.54L 414.38,179.46L 416.23,156.65L 418.08,124.06L 419.94,117.54L 421.79,104.51L 423.65,101.25L 425.50,111.03L 427.35,117.54L 429.21,120.80L 431.06,150.13L 432.92,169.69L 434.77,185.98L 436.62,189.24L 438.48,166.43L 440.33,163.17L 442.19,127.32L 444.04,78.44L 445.90,75.18L 447.75,52.37L 449.60,55.62L 451.46,55.62L 453.31,13.26L 455.17,45.85L 457.02,52.37L 458.88,26.29L 460.73,26.29" id="New cases" class="line" stroke-width="1" stroke-linecap="round"><title>New cases</title></path>
	<circle cx="25.00" cy="369.30" data-y="0.20" data-x="1583452800" r="1" fill="white"><title>2020-03-06: 0</title></circle>
	<circle cx="26.85" cy="370.44" data-y="0.16" data-x="1583539200" r="1" fill="white"><title>2020-03-07: 0</title></circle>
	<circle cx="28.71" cy="371.20" data-y="0.14" data-x="1583625600" r="1" fill="white"><title>2020-03-08: 0</title></circle>
	<circle cx="30.56" cy="361.96" data-y="0.47" data-x="1583712000" r="1" fill="white"><title>2020-03-09: 0</title></circle>
	<circle cx="32.42" cy="355.45" data-y="0.70" data-x="1583798400" r="1" fill="white"><title>2020-03-10: 1</title></circle>
	<circle cx="34.27" cy="355.45" data-y="0.70" data-x="1583884800" r="1" fill="white"><title>2020-03-11: 1</title></circle>
	<circle cx="36.12" cy="355.45" data-y="0.70" data-x="1583971200" r="1" fill="white"><title>2020-03-12: 1</title></circle>
	<circle cx="37.98" cy="348.93" data-y="0.93" data-x="1584057600" r="1" fill="white"><title>2020-03-13: 1</title></circle>
	<circle cx="39.83" cy="348.93" data-y="0.93" data-x="1584144000" r="1" fill="white"><title>2020-03-14: 1</title></circle>
	<circle cx="41.69" cy="345.67" data-y="1.05" data-x="1584230400" r="1" fill="white"><title>2020-03-15: 1</title></circle>
	<circle cx="43.54" cy="352.19" data-y="0.82" data-x="1584316800" r="1" fill="white"><title>2020-03-16: 1</title></circle>
	<circle cx="45.40" cy="348.93" data-y="0.93" data-x="1584403200" r="1" fill="white"><title>2020-03-17: 1</title></circle>
	<circle cx="47.25" cy="339.15" data-y="1.28" data-x="1584489600" r="1" fill="white"><title>2020-03-18: 1</title></circle>
	<circle cx="49.10" cy="329.38" data-y="1.63" data-x="1584576000" r="1" fill="white"><title>2020-03-19: 2</title></circle>
	<circle cx="50.96" cy="322.86" data-y="1.86" data-x="1584662400" r="1" fill="white"><title>2020-03-20: 2</title></circle>
	<circle cx="52.81" cy="319.60" data-y="1.98" data-x="1584748800" r="1" fill="white"><title>2020-03-21: 2</title></circle>
	<circle cx="54.67" cy="313.08" data-y="2.21" data-x="1584835200" r="1" fill="white"><title>2020-03-22: 2</title></circle>
	<circle cx="56.52" cy="300.04" data-y="2.68" data-x="1584921600" r="1" fill="white"><title>2020-03-23: 3</title></circle>
	<circle cx="58.38" cy="296.79" data-y="2.80" data-x="1585008000" r="1" fill="white"><title>2020-03-24: 3</title></circle>
	<circle cx="60.23" cy="293.53" data-y="2.91" data-x="1585094400" r="1" fill="white"><title>2020-03-25: 3</title></circle>
	<circle cx="62.08" cy="290.27" data-y="3.03" data-x="1585180800" r="1" fill="white"><title>2020-03-26: 3</title></circle>
	<circle cx="63.94" cy="290.27" data-y="3.03" data-x="1585267200" r="1" fill="white"><title>2020-03-27: 3</title></circle>
	<circle cx="65.79" cy="270.71" data-y="3.73" data-x="1585353600" r="1" fill="white"><title>2020-03-28: 4</title></circle>
	<circle cx="67.65" cy="273.97" data-y="3.61" data-x="1585440000" r="1" fill="white"><title>2020-03-29: 4</title></circle>
	<circle cx="69.50" cy="280.49" data-y="3.38" data-x="1585526400" r="1" fill="white"><title>2020-03-30: 3</title></circle>
	<circle cx="71.35" cy="280.49" data-y="3.38" data-x="1585612800" r="1" fill="white"><title>2020-03-31: 3</title></circle>
	<circle cx="73.21" cy="283.75" data-y="3.26" data-x="1585699200" r="1" fill="white"><title>2020-04-01: 3</title></circle>
	<circle cx="75.06" cy="277.23" data-y="3.50" data-x="1585785600" r="1" fill="white"><title>2020-04-02: 3</title></circle>
	<circle cx="76.92" cy="273.97" data-y="3.61" data-x="1585872000" r="1" fill="white"><title>2020-04-03: 4</title></circle>
	<circle cx="78.77" cy="247.90" data-y="4.55" data-x="1585958400" r="1" fill="white"><title>2020-04-04: 5</title></circle>
	<circle cx="80.62" cy="234.87" data-y="5.01" data-x="1586044800" r="1" fill="white"><title>2020-04-05: 5</title></circle>
	<circle cx="82.48" cy="238.12" data-y="4.90" data-x="1586131200" r="1" fill="white"><title>2020-04-06: 5</title></circle>
	<circle cx="84.33" cy="231.61" data-y="5.13" data-x="1586217600" r="1" fill="white"><title>2020-04-07: 5</title></circle>
	<circle cx="86.19" cy="225.09" data-y="5.36" data-x="1586304000" r="1" fill="white"><title>2020-04-08: 5</title></circle>
	<circle cx="88.04" cy="218.57" data-y="5.59" data-x="1586390400" r="1" fill="white"><title>2020-04-09: 6</title></circle>
	<circle cx="89.90" cy="205.54" data-y="6.06" data-x="1586476800" r="1" fill="white"><title>2020-04-10: 6</title></circle>
	<circle cx="91.75" cy="228.35" data-y="5.25" data-x="1586563200" r="1" fill="white"><title>2020-04-11: 5</title></circle>
	<circle cx="93.60" cy="221.83" data-y="5.48" data-x="1586649600" r="1" fill="white"><title>2020-04-12: 5</title></circle>
	<circle cx="95.46" cy="195.76" data-y="6.41" data-x="1586736000" r="1" fill="white"><title>2020-04-13: 6</title></circle>
	<circle cx="97.31" cy="185.98" data-y="6.76" data-x="1586822400" r="1" fill="white"><title>2020-04-14: 7</title></circle>
	<circle cx="99.17" cy="182.72" data-y="6.88" data-x="1586908800" r="1" fill="white"><title>2020-04-15: 7</title></circle>
	<circle cx="101.02" cy="179.46" data-y="6.99" data-x="1586995200" r="1" fill="white"><title>2020-04-16: 7</title></circle>
	<circle cx="102.88" cy="192.50" data-y="6.53" data-x="1587081600" r="1" fill="white"><title>2020-04-17: 7</title></circle>
	<circle cx="104.73" cy="159.91" data-y="7.69" data-x="1587168000" r="1" fill="white"><title>2020-04-18: 8</title></circle>
	<circle cx="106.58" cy="127.32" data-y="8.86" data-x="1587254400" r="1" fill="white"><title>2020-04-19: 9</title></circle>
	<circle cx="108.44" cy="75.18" data-y="10.72" data-x="1587340800" r="1" fill="white"><title>2020-04-20: 11</title></circle>
	<circle cx="110.29" cy="58.88" data-y="11.31" data-x="1587427200" r="1" fill="white"><title>2020-04-21: 11</title></circle>
	<circle cx="112.15" cy="32.81" data-y="12.24" data-x="1587513600" r="1" fill="white"><title>2020-04-22: 12</title></circle>
	<circle cx="114.00" cy="23.04" data-y="12.59" data-x="1587600000" r="1" fill="white"><title>2020-04-23: 13</title></circle>
	<circle cx="115.85" cy="19.78" data-y="12.71" data-x="1587686400" r="1" fill="white"><title>2020-04-24: 13</title></circle>
	<circle cx="117.71" cy="13.26" data-y="12.94" data-x="1587772800" r="1" fill="white"><title>2020-04-25: 13</title></circle>
	<circle cx="119.56" cy="10.00" data-y="13.05" data-x="1587859200" r="1" fill="white"><title>2020-04-26: 13</title></circle>
	<circle cx="121.42" cy="45.85" data-y="11.77" data-x="1587945600" r="1" fill="white"><title>2020-04-27: 12</title></circle>
	<circle cx="123.27" cy="55.62" data-y="11.42" data-x="1588032000" r="1" fill="white"><title>2020-04-28: 11</title></circle>
	<circle cx="125.12" cy="78.44" data-y="10.61" data-x="1588118400" r="1" fill="white"><title>2020-04-29: 11</title></circle>
	<circle cx="126.98" cy="107.77" data-y="9.56" data-x="1588204800" r="1" fill="white"><title>2020-04-30: 10</title></circle>
	<circle cx="128.83" cy="97.99" data-y="9.91" data-x="1588291200" r="1" fill="white"><title>2020-05-01: 10</title></circle>
	<circle cx="130.69" cy="133.84" data-y="8.63" data-x="1588377600" r="1" fill="white"><title>2020-05-02: 9</title></circle>
	<circle cx="132.54" cy="163.17" data-y="7.58" data-x="1588464000" r="1" fill="white"><title>2020-05-03: 8</title></circle>
	<circle cx="134.40" cy="205.54" data-y="6.06" data-x="1588550400" r="1" fill="white"><title>2020-05-04: 6</title></circle>
	<circle cx="136.25" cy="231.61" data-y="5.13" data-x="1588636800" r="1" fill="white"><title>2020-05-05: 5</title></circle>
	<circle cx="138.10" cy="241.38" data-y="4.78" data-x="1588723200" r="1" fill="white"><title>2020-05-06: 5</title></circle>
	<circle cx="139.96" cy="241.38" data-y="4.78" data-x="1588809600" r="1" fill="white"><title>2020-05-07: 5</title></circle>
	<circle cx="141.81" cy="254.42" data-y="4.31" data-x="1588896000" r="1" fill="white"><title>2020-05-08: 4</title></circle>
	<circle cx="143.67" cy="277.23" data-y="3.50" data-x="1588982400" r="1" fill="white"><title>2020-05-09: 3</title></circle>
	<circle cx="145.52" cy="296.79" data-y="2.80" data-x="1589068800" r="1" fill="white"><title>2020-05-10: 3</title></circle>
	<circle cx="147.38" cy="283.75" data-y="3.26" data-x="1589155200" r="1" fill="white"><title>2020-05-11: 3</title></circle>
	<circle cx="149.23" cy="296.79" data-y="2.80" data-x="1589241600" r="1" fill="white"><title>2020-05-12: 3</title></circle>
	<circle cx="151.08" cy="309.82" data-y="2.33" data-x="1589328000" r="1" fill="white"><title>2020-05-13: 2</title></circle>
	<circle cx="152.94" cy="316.34" data-y="2.10" data-x="1589414400" r="1" fill="white"><title>2020-05-14: 2</title></circle>
	<circle cx="154.79" cy="319.60" data-y="1.98" data-x="1589500800" r="1" fill="white"><title>2020-05-15: 2</title></circle>
	<circle cx="156.65" cy="319.60" data-y="1.98" data-x="1589587200" r="1" fill="white"><title>2020-05-16: 2</title></circle>
	<circle cx="158.50" cy="322.86" data-y="1.86" data-x="1589673600" r="1" fill="white"><title>2020-05-17: 2</title></circle>
	<circle cx="160.35" cy="339.15" data-y="1.28" data-x="1589760000" r="1" fill="white"><title>2020-05-18: 1</title></circle>
	<circle cx="162.21" cy="322.86" data-y="1.86" data-x="1589846400" r="1" fill="white"><title>2020-05-19: 2</title></circle>
	<circle cx="164.06" cy="290.27" data-y="3.03" data-x="1589932800" r="1" fill="white"><title>2020-05-20: 3</title></circle>
	<circle cx="165.92" cy="277.23" data-y="3.50" data-x="1590019200" r="1" fill="white"><title>2020-05-21: 3</title></circle>
	<circle cx="167.77" cy="287.01" data-y="3.15" data-x="1590105600" r="1" fill="white"><title>2020-05-22: 3</title></circle>
	<circle cx="169.62" cy="287.01" data-y="3.15" data-x="1590192000" r="1" fill="white"><title>2020-05-23: 3</title></circle>
	<circle cx="171.48" cy="296.79" data-y="2.80" data-x="1590278400" r="1" fill="white"><title>2020-05-24: 3</title></circle>
	<circle cx="173.33" cy="300.04" data-y="2.68" data-x="1590364800" r="1" fill="white"><title>2020-05-25: 3</title></circle>
	<circle cx="175.19" cy="309.82" data-y="2.33" data-x="1590451200" r="1" fill="white"><title>2020-05-26: 2</title></circle>
	<circle cx="177.04" cy="342.41" data-y="1.17" data-x="1590537600" r="1" fill="white"><title>2020-05-27: 1</title></circle>
	<circle cx="178.90" cy="355.45" data-y="0.70" data-x="1590624000" r="1" fill="white"><title>2020-05-28: 1</title></circle>
	<circle cx="180.75" cy="342.41" data-y="1.17" data-x="1590710400" r="1" fill="white"><title>2020-05-29: 1</title></circle>
	<circle cx="182.60" cy="348.93" data-y="0.93" data-x="1590796800" r="1" fill="white"><title>2020-05-30: 1</title></circle>
	<circle cx="184.46" cy="348.93" data-y="0.93" data-x="1590883200" r="1" fill="white"><title>2020-05-31: 1</title></circle>
	<circle cx="186.31" cy="348.93" data-y="0.93" data-x="1590969600" r="1" fill="white"><title>2020-06-01: 1</title></circle>
	<circle cx="188.17" cy="348.93" data-y="0.93" data-x="1591056000" r="1" fill="white"><title>2020-06-02: 1</title></circle>
	<circle cx="190.02" cy="348.93" data-y="0.93" data-x="1591142400" r="1" fill="white"><title>2020-06-03: 1</title></circle>
	<circle cx="191.88" cy="348.93" data-y="0.93" data-x="1591228800" r="1" fill="white"><title>2020-06-04: 1</title></circle>
	<circle cx="193.73" cy="365.22" data-y="0.35" data-x="1591315200" r="1" fill="white"><title>2020-06-05: 0</title></circle>
	<circle cx="195.58" cy="365.22" data-y="0.35" data-x="1591401600" r="1" fill="white"><title>2020-06-06: 0</title></circle>
	<circle cx="197.44" cy="358.71" data-y="0.58" data-x="1591488000" r="1" fill="white"><title>2020-06-07: 1</title></circle>
	<circle cx="199.29" cy="358.71" data-y="0.58" data-x="1591574400" r="1" fill="white"><title>2020-06-08: 1</title></circle>
	<circle cx="201.15" cy="365.22" data-y="0.35" data-x="1591660800" r="1" fill="white"><title>2020-06-09: 0</title></circle>
	<circle cx="203.00" cy="361.96" data-y="0.47" data-x="1591747200" r="1" fill="white"><title>2020-06-10: 0</title></circle>
	<circle cx="204.85" cy="365.22" data-y="0.35" data-x="1591833600" r="1" fill="white"><title>2020-06-11: 0</title></circle>
	<circle cx="206.71" cy="361.96" data-y="0.47" data-x="1591920000" r="1" fill="white"><title>2020-06-12: 0</title></circle>
	<circle cx="208.56" cy="361.96" data-y="0.47" data-x="1592006400" r="1" fill="white"><title>2020-06-13: 0</title></circle>
	<circle cx="210.42" cy="365.22" data-y="0.35" data-x="1592092800" r="1" fill="white"><title>2020-06-14: 0</title></circle>
	<circle cx="212.27" cy="361.96" data-y="0.47" data-x="1592179200" r="1" fill="white"><title>2020-06-15: 0</title></circle>
	<circle cx="214.12" cy="358.71" data-y="0.58" data-x="1592265600" r="1" fill="white"><title>2020-06-16: 1</title></circle>
	<circle cx="215.98" cy="361.96" data-y="0.47" data-x="1592352000" r="1" fill="white"><title>2020-06-17: 0</title></circle>
	<circle cx="217.83" cy="361.96" data-y="0.47" data-x="1592438400" r="1" fill="white"><title>2020-06-18: 0</title></circle>
	<circle cx="219.69" cy="365.22" data-y="0.35" data-x="1592524800" r="1" fill="white"><title>2020-06-19: 0</title></circle>
	<circle cx="221.54" cy="365.22" data-y="0.35" data-x="1592611200" r="1" fill="white"><title>2020-06-20: 0</title></circle>
	<circle cx="223.40" cy="368.48" data-y="0.23" data-x="1592697600" r="1" fill="white"><title>2020-06-21: 0</title></circle>
	<circle cx="225.25" cy="371.74" data-y="0.12" data-x="1592784000" r="1" fill="white"><title>2020-06-22: 0</title></circle>
	<circle cx="227.10" cy="371.74" data-y="0.12" data-x="1592870400" r="1" fill="white"><title>2020-06-23: 0</title></circle>
	<circle cx="228.96" cy="371.74" data-y="0.12" data-x="1592956800" r="1" fill="white"><title>2020-06-24: 0</title></circle>
	<circle cx="230.81" cy="371.74" data-y="0.12" data-x="1593043200" r="1" fill="white"><title>2020-06-25: 0</title></circle>
	<circle cx="232.67" cy="365.22" data-y="0.35" data-x="1593129600" r="1" fill="white"><title>2020-06-26: 0</title></circle>
	<circle cx="234.52" cy="361.96" data-y="0.47" data-x="1593216000" r="1" fill="white"><title>2020-06-27: 0</title></circle>
	<circle cx="236.38" cy="361.96" data-y="0.47" data-x="1593302400" r="1" fill="white"><title>2020-06-28: 0</title></circle>
	<circle cx="238.23" cy="361.96" data-y="0.47" data-x="1593388800" r="1" fill="white"><title>2020-06-29: 0</title></circle>
	<circle cx="240.08" cy="365.22" data-y="0.35" data-x="1593475200" r="1" fill="white"><title>2020-06-30: 0</title></circle>
	<circle cx="241.94" cy="365.22" data-y="0.35" data-x="1593561600" r="1" fill="white"><title>2020-07-01: 0</title></circle>
	<circle cx="243.79" cy="365.22" data-y="0.35" data-x="1593648000" r="1" fill="white"><title>2020-07-02: 0</title></circle>
	<circle cx="245.65" cy="371.74" data-y="0.12" data-x="1593734400" r="1" fill="white"><title>2020-07-03: 0</title></circle>
	<circle cx="247.50" cy="375.00" data-y="0.00" data-x="1593820800" r="1" fill="white"><title>2020-07-04: 0</title></circle>
	<circle cx="249.35" cy="375.00" data-y="0.00" data-x="1593907200" r="1" fill="white"><title>2020-07-05: 0</title></circle>
	<circle cx="251.21" cy="371.74" data-y="0.12" data-x="1593993600" r="1" fill="white"><title>2020-07-06: 0</title></circle>
	<circle cx="253.06" cy="371.74" data-y="0.12" data-x="1594080000" r="1" fill="white"><title>2020-07-07: 0</title></circle>
	<circle cx="254.92" cy="368.48" data-y="0.23" data-x="1594166400" r="1" fill="white"><title>2020-07-08: 0</title></circle>
	<circle cx="256.77" cy="368.48" data-y="0.23" data-x="1594252800" r="1" fill="white"><title>2020-07-09: 0</title></circle>
	<circle cx="258.62" cy="368.48" data-y="0.23" data-x="1594339200" r="1" fill="white"><title>2020-07-10: 0</title></circle>
	<circle cx="260.48" cy="365.22" data-y="0.35" data-x="1594425600" r="1" fill="white"><title>2020-07-11: 0</title></circle>
	<circle cx="262.33" cy="361.96" data-y="0.47" data-x="1594512000" r="1" fill="white"><title>2020-07-12: 0</title></circle>
	<circle cx="264.19" cy="361.96" data-y="0.47" data-x="1594598400" r="1" fill="white"><title>2020-07-13: 0</title></circle>
	<circle cx="266.04" cy="361.96" data-y="0.47" data-x="1594684800" r="1" fill="white"><title>2020-07-14: 0</title></circle>
	<circle cx="267.90" cy="365.22" data-y="0.35" data-x="1594771200" r="1" fill="white"><title>2020-07-15: 0</title></circle>
	<circle cx="269.75" cy="365.22" data-y="0.35" data-x="1594857600" r="1" fill="white"><title>2020-07-16: 0</title></circle>
	<circle cx="271.60" cy="361.96" data-y="0.47" data-x="1594944000" r="1" fill="white"><title>2020-07-17: 0</title></circle>
	<circle cx="273.46" cy="365.22" data-y="0.35" data-x="1595030400" r="1" fill="white"><title>2020-07-18: 0</title></circle>
	<circle cx="275.31" cy="365.22" data-y="0.35" data-x="1595116800" r="1" fill="white"><title>2020-07-19: 0</title></circle>
	<circle cx="277.17" cy="361.96" data-y="0.47" data-x="1595203200" r="1" fill="white"><title>2020-07-20: 0</title></circle>
	<circle cx="279.02" cy="361.96" data-y="0.47" data-x="1595289600" r="1" fill="white"><title>2020-07-21: 0</title></circle>
	<circle cx="280.88" cy="355.45" data-y="0.70" data-x="1595376000" r="1" fill="white"><title>2020-07-22: 1</title></circle>
	<circle cx="282.73" cy="352.19" data-y="0.82" data-x="1595462400" r="1" fill="white"><title>2020-07-23: 1</title></circle>
	<circle cx="284.58" cy="348.93" data-y="0.93" data-x="1595548800" r="1" fill="white"><title>2020-07-24: 1</title></circle>
	<circle cx="286.44" cy="348.93" data-y="0.93" data-x="1595635200" r="1" fill="white"><title>2020-07-25: 1</title></circle>
	<circle cx="288.29" cy="352.19" data-y="0.82" data-x="1595721600" r="1" fill="white"><title>2020-07-26: 1</title></circle>
	<circle cx="290.15" cy="355.45" data-y="0.70" data-x="1595808000" r="1" fill="white"><title>2020-07-27: 1</title></circle>
	<circle cx="292.00" cy="352.19" data-y="0.82" data-x="1595894400" r="1" fill="white"><title>2020-07-28: 1</title></circle>
	<circle cx="293.85" cy="358.71" data-y="0.58" data-x="1595980800" r="1" fill="white"><title>2020-07-29: 1</title></circle>
	<circle cx="295.71" cy="361.96" data-y="0.47" data-x="1596067200" r="1" fill="white"><title>2020-07-30: 0</title></circle>
	<circle cx="297.56" cy="368.48" data-y="0.23" data-x="1596153600" r="1" fill="white"><title>2020-07-31: 0</title></circle>
	<circle cx="299.42" cy="368.48" data-y="0.23" data-x="1596240000" r="1" fill="white"><title>2020-08-01: 0</title></circle>
	<circle cx="301.27" cy="368.48" data-y="0.23" data-x="1596326400" r="1" fill="white"><title>2020-08-02: 0</title></circle>
	<circle cx="303.12" cy="365.22" data-y="0.35" data-x="1596412800" r="1" fill="white"><title>2020-08-03: 0</title></circle>
	<circle cx="304.98" cy="368.48" data-y="0.23" data-x="1596499200" r="1" fill="white"><title>2020-08-04: 0</title></circle>
	<circle cx="306.83" cy="368.48" data-y="0.23" data-x="1596585600" r="1" fill="white"><title>2020-08-05: 0</title></circle>
	<circle cx="308.69" cy="365.22" data-y="0.35" data-x="1596672000" r="1" fill="white"><title>2020-08-06: 0</title></circle>
	<circle cx="310.54" cy="361.96" data-y="0.47" data-x="1596758400" r="1" fill="white"><title>2020-08-07: 0</title></circle>
	<circle cx="312.40" cy="361.96" data-y="0.47" data-x="1596844800" r="1" fill="white"><title>2020-08-08: 0</title></circle>
	<circle cx="314.25" cy="361.96" data-y="0.47" data-x="1596931200" r="1" fill="white"><title>2020-08-09: 0</title></circle>
	<circle cx="316.10" cy="361.96" data-y="0.47" data-x="1597017600" r="1" fill="white"><title>2020-08-10: 0</title></circle>
	<circle cx="317.96" cy="355.45" data-y="0.70" data-x="1597104000" r="1" fill="white"><title>2020-08-11: 1</title></circle>
	<circle cx="319.81" cy="352.19" data-y="0.82" data-x="1597190400" r="1" fill="white"><title>2020-08-12: 1</title></circle>
	<circle cx="321.67" cy="355.45" data-y="0.70" data-x="1597276800" r="1" fill="white"><title>2020-08-13: 1</title></circle>
	<circle cx="323.52" cy="355.45" data-y="0.70" data-x="1597363200" r="1" fill="white"><title>2020-08-14: 1</title></circle>
	<circle cx="325.38" cy="348.93" data-y="0.93" data-x="1597449600" r="1" fill="white"><title>2020-08-15: 1</title></circle>
	<circle cx="327.23" cy="348.93" data-y="0.93" data-x="1597536000" r="1" fill="white"><title>2020-08-16: 1</title></circle>
	<circle cx="329.08" cy="345.67" data-y="1.05" data-x="1597622400" r="1" fill="white"><title>2020-08-17: 1</title></circle>
	<circle cx="330.94" cy="348.93" data-y="0.93" data-x="1597708800" r="1" fill="white"><title>2020-08-18: 1</title></circle>
	<circle cx="332.79" cy="352.19" data-y="0.82" data-x="1597795200" r="1" fill="white"><title>2020-08-19: 1</title></circle>
	<circle cx="334.65" cy="345.67" data-y="1.05" data-x="1597881600" r="1" fill="white"><title>2020-08-20: 1</title></circle>
	<circle cx="336.50" cy="332.63" data-y="1.52" data-x="1597968000" r="1" fill="white"><title>2020-08-21: 2</title></circle>
	<circle cx="338.35" cy="329.38" data-y="1.63" data-x="1598054400" r="1" fill="white"><title>2020-08-22: 2</title></circle>
	<circle cx="340.21" cy="329.38" data-y="1.63" data-x="1598140800" r="1" fill="white"><title>2020-08-23: 2</title></circle>
	<circle cx="342.06" cy="329.38" data-y="1.63" data-x="1598227200" r="1" fill="white"><title>2020-08-24: 2</title></circle>
	<circle cx="343.92" cy="329.38" data-y="1.63" data-x="1598313600" r="1" fill="white"><title>2020-08-25: 2</title></circle>
	<circle cx="345.77" cy="326.12" data-y="1.75" data-x="1598400000" r="1" fill="white"><title>2020-08-26: 2</title></circle>
	<circle cx="347.62" cy="326.12" data-y="1.75" data-x="1598486400" r="1" fill="white"><title>2020-08-27: 2</title></circle>
	<circle cx="349.48" cy="339.15" data-y="1.28" data-x="1598572800" r="1" fill="white"><title>2020-08-28: 1</title></circle>
	<circle cx="351.33" cy="339.15" data-y="1.28" data-x="1598659200" r="1" fill="white"><title>2020-08-29: 1</title></circle>
	<circle cx="353.19" cy="326.12" data-y="1.75" data-x="1598745600" r="1" fill="white"><title>2020-08-30: 2</title></circle>
	<circle cx="355.04" cy="329.38" data-y="1.63" data-x="1598832000" r="1" fill="white"><title>2020-08-31: 2</title></circle>
	<circle cx="356.90" cy="326.12" data-y="1.75" data-x="1598918400" r="1" fill="white"><title>2020-09-01: 2</title></circle>
	<circle cx="358.75" cy="329.38" data-y="1.63" data-x="1599004800" r="1" fill="white"><title>2020-09-02: 2</title></circle>
	<circle cx="360.60" cy="322.86" data-y="1.86" data-x="1599091200" r="1" fill="white"><title>2020-09-03: 2</title></circle>
	<circle cx="362.46" cy="322.86" data-y="1.86" data-x="1599177600" r="1" fill="white"><title>2020-09-04: 2</title></circle>
	<circle cx="364.31" cy="332.63" data-y="1.52" data-x="1599264000" r="1" fill="white"><title>2020-09-05: 2</title></circle>
	<circle cx="366.17" cy="342.41" data-y="1.17" data-x="1599350400" r="1" fill="white"><title>2020-09-06: 1</title></circle>
	<circle cx="368.02" cy="342.41" data-y="1.17" data-x="1599436800" r="1" fill="white"><title>2020-09-07: 1</title></circle>
	<circle cx="369.88" cy="339.15" data-y="1.28" data-x="1599523200" r="1" fill="white"><title>2020-09-08: 1</title></circle>
	<circle cx="371.73" cy="335.89" data-y="1.40" data-x="1599609600" r="1" fill="white"><title>2020-09-09: 1</title></circle>
	<circle cx="373.58" cy="348.93" data-y="0.93" data-x="1599696000" r="1" fill="white"><title>2020-09-10: 1</title></circle>
	<circle cx="375.44" cy="335.89" data-y="1.40" data-x="1599782400" r="1" fill="white"><title>2020-09-11: 1</title></circle>
	<circle cx="377.29" cy="335.89" data-y="1.40" data-x="1599868800" r="1" fill="white"><title>2020-09-12: 1</title></circle>
	<circle cx="379.15" cy="335.89" data-y="1.40" data-x="1599955200" r="1" fill="white"><title>2020-09-13: 1</title></circle>
	<circle cx="381.00" cy="335.89" data-y="1.40" data-x="1600041600" r="1" fill="white"><title>2020-09-14: 1</title></circle>
	<circle cx="382.85" cy="339.15" data-y="1.28" data-x="1600128000" r="1" fill="white"><title>2020-09-15: 1</title></circle>
	<circle cx="384.71" cy="342.41" data-y="1.17" data-x="1600214400" r="1" fill="white"><title>2020-09-16: 1</title></circle>
	<circle cx="386.56" cy="335.89" data-y="1.40" data-x="1600300800" r="1" fill="white"><title>2020-09-17: 1</title></circle>
	<circle cx="388.42" cy="345.67" data-y="1.05" data-x="1600387200" r="1" fill="white"><title>2020-09-18: 1</title></circle>
	<circle cx="390.27" cy="332.63" data-y="1.52" data-x="1600473600" r="1" fill="white"><title>2020-09-19: 2</title></circle>
	<circle cx="392.12" cy="322.86" data-y="1.86" data-x="1600560000" r="1" fill="white"><title>2020-09-20: 2</title></circle>
	<circle cx="393.98" cy="313.08" data-y="2.21" data-x="1600646400" r="1" fill="white"><title>2020-09-21: 2</title></circle>
	<circle cx="395.83" cy="313.08" data-y="2.21" data-x="1600732800" r="1" fill="white"><title>2020-09-22: 2</title></circle>
	<circle cx="397.69" cy="306.56" data-y="2.45" data-x="1600819200" r="1" fill="white"><title>2020-09-23: 2</title></circle>
	<circle cx="399.54" cy="296.79" data-y="2.80" data-x="1600905600" r="1" fill="white"><title>2020-09-24: 3</title></circle>
	<circle cx="401.40" cy="287.01" data-y="3.15" data-x="1600992000" r="1" fill="white"><title>2020-09-25: 3</title></circle>
	<circle cx="403.25" cy="283.75" data-y="3.26" data-x="1601078400" r="1" fill="white"><title>2020-09-26: 3</title></circle>
	<circle cx="405.10" cy="277.23" data-y="3.50" data-x="1601164800" r="1" fill="white"><title>2020-09-27: 3</title></circle>
	<circle cx="406.96" cy="257.68" data-y="4.20" data-x="1601251200" r="1" fill="white"><title>2020-09-28: 4</title></circle>
	<circle cx="408.81" cy="241.38" data-y="4.78" data-x="1601337600" r="1" fill="white"><title>2020-09-29: 5</title></circle>
	<circle cx="410.67" cy="218.57" data-y="5.59" data-x="1601424000" r="1" fill="white"><title>2020-09-30: 6</title></circle>
	<circle cx="412.52" cy="205.54" data-y="6.06" data-x="1601510400" r="1" fill="white"><title>2020-10-01: 6</title></circle>
	<circle cx="414.38" cy="179.46" data-y="6.99" data-x="1601596800" r="1" fill="white"><title>2020-10-02: 7</title></circle>
	<circle cx="416.23" cy="156.65" data-y="7.81" data-x="1601683200" r="1" fill="white"><title>2020-10-03: 8</title></circle>
	<circle cx="418.08" cy="124.06" data-y="8.98" data-x="1601769600" r="1" fill="white"><title>2020-10-04: 9</title></circle>
	<circle cx="419.94" cy="117.54" data-y="9.21" data-x="1601856000" r="1" fill="white"><title>2020-10-05: 9</title></circle>
	<circle cx="421.79" cy="104.51" data-y="9.67" data-x="1601942400" r="1" fill="white"><title>2020-10-06: 10</title></circle>
	<circle cx="423.65" cy="101.25" data-y="9.79" data-x="1602028800" r="1" fill="white"><title>2020-10-07: 10</title></circle>
	<circle cx="425.50" cy="111.03" data-y="9.44" data-x="1602115200" r="1" fill="white"><title>2020-10-08: 9</title></circle>
	<circle cx="427.35" cy="117.54" data-y="9.21" data-x="1602201600" r="1" fill="white"><title>2020-10-09: 9</title></circle>
	<circle cx="429.21" cy="120.80" data-y="9.09" data-x="1602288000" r="1" fill="white"><title>2020-10-10: 9</title></circle>
	<circle cx="431.06" cy="150.13" data-y="8.04" data-x="1602374400" r="1" fill="white"><title>2020-10-11: 8</title></circle>
	<circle cx="432.92" cy="169.69" data-y="7.34" data-x="1602460800" r="1" fill="white"><title>2020-10-12: 7</title></circle>
	<circle cx="434.77" cy="185.98" data-y="6.76" data-x="1602547200" r="1" fill="white"><title>2020-10-13: 7</title></circle>
	<circle cx="436.62" cy="189.24" data-y="6.64" data-x="1602633600" r="1" fill="white"><title>2020-10-14: 7</title></circle>
	<circle cx="438.48" cy="166.43" data-y="7.46" data-x="1602720000" r="1" fill="white"><title>2020-10-15: 7</title></circle>
	<circle cx="440.33" cy="163.17" data-y="7.58" data-x="1602806400" r="1" fill="white"><title>2020-10-16: 8</title></circle>
	<circle cx="442.19" cy="127.32" data-y="8.86" data-x="1602892800" r="1" fill="white"><title>2020-10-17: 9</title></circle>
	<circle cx="444.04" cy="78.44" data-y="10.61" data-x="1602979200" r="1" fill="white"><title>2020-10-18: 11</title></circle>
	<circle cx="445.90" cy="75.18" data-y="10.72" data-x="1603065600" r="1" fill="white"><title>2020-10-19: 11</title></circle>
	<circle cx="447.75" cy="52.37" data-y="11.54" data-x="1603152000" r="1" fill="white"><title>2020-10-20: 12</title></circle>
	<circle cx="449.60" cy="55.62" data-y="11.42" data-x="1603238400" r="1" fill="white"><title>2020-10-21: 11</title></circle>
	<circle cx="451.46" cy="55.62" data-y="11.42" data-x="1603324800" r="1" fill="white"><title>2020-10-22: 11</title></circle>
	<circle cx="453.31" cy="13.26" data-y="12.94" data-x="1603411200" r="1" fill="white"><title>2020-10-23: 13</title></circle>
	<circle cx="455.17" cy="45.85" data-y="11.77" data-x="1603497600" r="1" fill="white"><title>2020-10-24: 12</title></circle>
	<circle cx="457.02" cy="52.37" data-y="11.54" data-x="1603584000" r="1" fill="white"><title>2020-10-25: 12</title></circle>
	<circle cx="458.88" cy="26.29" data-y="12.47" data-x="1603670400" r="1" fill="white"><title>2020-10-26: 12</title></circle>
	<circle cx="460.73" cy="26.29" data-y="12.47" data-x="1603756800" r="1" fill="white"><title>2020-10-27: 12</title></circle>
</g>
<g data-series="recent-cases" class="data-series">
	<path d="M 460.73,26.29L 462.58,36.07L 464.44,78.44L 466.29,124.06L 468.15,128.62L 470.00,181.09" id="Recent cases" class="line" stroke-width="1" stroke-linecap="round" stroke-dasharray="4,6" stroke-dashoffset="4"><title>Recent cases</title></path>
	<circle cx="460.73" cy="26.29" data-y="12.47" data-x="1603756800" r="2.5" fill="white"><title>2020-10-27: 12</title></circle>
	<circle cx="462.58" cy="36.07" data-y="12.12" data-x="1603843200" r="2.5" fill="white"><title>2020-10-28: 12</title></circle>
	<circle cx="464.44" cy="78.44" data-y="10.61" data-x="1603929600" r="2.5" fill="white"><title>2020-10-29: 11</title></circle>
	<circle cx="466.29" cy="124.06" data-y="8.98" data-x="1604016000" r="2.5" fill="white"><title>2020-10-30: 9</title></circle>
	<circle cx="468.15" cy="128.62" data-y="8.81" data-x="1604102400" r="2.5" fill="white"><title>2020-10-31: 9</title></circle>
	<circle cx="470.00" cy="181.09" data-y="6.94" data-x="1604188800" r="2.5" fill="white"><title>2020-11-01: 7</title></circle>
</g>
</svg>
