<svg width="480" height="400" viewBox="0 0 480 400" xmlns="http://www.w3.org/2000/svg" style="overflow:display" preserveAspectRatio="xMinYMin meet" overflow="visible">
<defs>
	<style>
	.data-series path.line { fill-opacity: 0; stroke: black; }
	.data-series path.line.dotted { stroke-dasharray: 12 20 }
	.data-series:hover path.line, .data-series.on path.line { stroke-width: 1; }
	.data-series:hover circle, .data-series.on circle { display: inline; }
	.graph-grid { font-family: "Helvetica Neue",Helvetica,Arial,"Lucida Grande",sans-serif; }
	.graph-grid line { stroke: black; stroke-width: 1; stroke-linecap: round; }
	.graph-grid.graph-grid-x text { text-anchor: middle; dominant-baseline: hanging; transform: translateY(10px); }
	.graph-grid.graph-grid-y text { text-anchor: end; dominant-baseline: middle; transform: translateX(-10px); }
	</style>
</defs>
<g class="graph-grid graph-grid-y">
	<line x1="25.00" y1="375.00" x2="470.00" y2="375.00" data-left="25"></line>
	<text x="35" y="375" text-anchor="end">0</text>
	<text x="35" y="270.714285714286" text-anchor="end">2</text>
	<text x="35" y="166.428571428571" text-anchor="end">4</text>
	<text x="35" y="62.1428571428572" text-anchor="end">6</text>
	<text style="text-anchor:middle;dominant-baseline:hanging;font-weight:bold;transform: translateY(192.5px) rotate(-90deg);"></text>
</g>
<g class="graph-grid graph-grid-x">
	<line class="tick" x1="63.09" y1="375.00" x2="63.09" y2="380.00"></line>
	<text x="63.0855855855856" y="375" text-anchor="middle">A</text>
	<line class="tick" x1="123.22" y1="375.00" x2="123.22" y2="380.00"></line>
	<text x="123.220720720721" y="375" text-anchor="middle">M</text>
	<line class="tick" x1="185.36" y1="375.00" x2="185.36" y2="380.00"></line>
	<text x="185.36036036036" y="375" text-anchor="middle">J</text>
	<line class="tick" x1="245.50" y1="375.00" x2="245.50" y2="380.00"></line>
	<text x="245.495495495496" y="375" text-anchor="middle">J</text>
	<line class="tick" x1="307.64" y1="375.00" x2="307.64" y2="380.00"></line>
	<text x="307.635135135135" y="375" text-anchor="middle">A</text>
	<line class="tick" x1="369.77" y1="375.00" x2="369.77" y2="380.00"></line>
	<text x="369.774774774775" y="375" text-anchor="middle">S</text>
	<line class="tick" x1="429.91" y1="375.00" x2="429.91" y2="380.00"></line>
	<text x="429.90990990991" y="375" text-anchor="middle">O</text>
	<text style="text-anchor:middle;dominant-baseline:hanging;font-weight:bold;transform: translateY(192.5px) rotate(-90deg);"></text>
</g>
<g data-series="widespread" class="data-series">
	<path d="M 25.00,10.00L 470.00,10.00" id="E07000147-level-0" class="line" stroke-width="1" stroke-linecap="round" stroke-dasharray="3,3" fill-opacity="0.3" opacity="0.3"><title>Widespread</title></path>
</g>
<g data-series="substantial" class="data-series">
	<path d="M 25.00,166.43L 470.00,166.43" id="E07000147-level-1" class="line" stroke-width="1" stroke-linecap="round" stroke-dasharray="3,3" fill-opacity="0.3" opacity="0.3"><title>Substantial</title></path>
</g>
<g data-series="moderate" class="data-series">
	<path d="M 25.00,322.86L 470.00,322.86" id="E07000147-level-2" class="line" stroke-width="1" stroke-linecap="round" stroke-dasharray="3,3" fill-opacity="0.3" opacity="0.3"><title>Moderate</title></path>
</g>
<g data-series="new-cases" class="data-series">
	<path d="M 25.00,338.04L 27.00,345.43L 29.01,342.14L 31.01,346.84L 33.02,353.88L 35.02,346.84L 37.03,339.80L 39.03,339.80L 41.04,325.72L 43.04,318.68L 45.05,318.68L 47.05,311.63L 49.05,297.55L 51.06,283.47L 53.06,269.39L 55.07,269.39L 57.07,262.35L 59.08,241.23L 61.08,227.15L 63.09,234.19L 65.09,234.19L 67.09,213.07L 69.10,213.07L 71.10,206.03L 73.11,213.07L 75.11,227.15L 77.12,234.19L 79.12,248.27L 81.13,262.35L 83.13,255.31L 85.14,262.35L 87.14,269.39L 89.14,255.31L 91.15,262.35L 93.15,255.31L 95.16,283.47L 97.16,290.51L 99.17,297.55L 101.17,184.90L 103.18,142.66L 105.18,142.66L 107.18,149.70L 109.19,149.70L 111.19,142.66L 113.20,128.58L 115.20,227.15L 117.21,276.43L 119.21,262.35L 121.22,255.31L 123.22,198.98L 125.23,206.03L 127.23,206.03L 129.23,184.90L 131.24,170.82L 133.24,170.82L 135.25,163.78L 137.25,191.94L 139.26,44.09L 141.26,58.17L 143.27,86.33L 145.27,121.54L 147.27,121.54L 149.28,142.66L 151.28,142.66L 153.29,283.47L 155.29,262.35L 157.30,262.35L 159.30,262.35L 161.31,262.35L 163.31,255.31L 165.32,276.43L 167.32,297.55L 169.32,325.72L 171.33,339.80L 173.33,339.80L 175.34,346.84L 177.34,346.84L 179.35,339.80L 181.35,339.80L 183.36,339.80L 185.36,339.80L 187.36,339.80L 189.37,346.84L 191.37,353.88L 193.38,360.92L 195.38,360.92L 197.39,360.92L 199.39,360.92L 201.40,360.92L 203.40,360.92L 205.41,360.92L 207.41,367.96L 209.41,367.96L 211.42,367.96L 213.42,367.96L 215.43,367.96L 217.43,367.96L 219.44,360.92L 221.44,360.92L 223.45,360.92L 225.45,360.92L 227.45,353.88L 229.46,353.88L 231.46,353.88L 233.47,360.92L 235.47,360.92L 237.48,360.92L 239.48,367.96L 241.49,367.96L 243.49,367.96L 245.50,367.96L 247.50,367.96L 249.50,367.96L 251.51,367.96L 253.51,367.96L 255.52,375.00L 257.52,367.96L 259.53,367.96L 261.53,367.96L 263.54,367.96L 265.54,367.96L 267.55,360.92L 269.55,360.92L 271.55,367.96L 273.56,367.96L 275.56,367.96L 277.57,360.92L 279.57,360.92L 281.58,367.96L 283.58,360.92L 285.59,360.92L 287.59,360.92L 289.59,360.92L 291.60,367.96L 293.60,367.96L 295.61,360.92L 297.61,367.96L 299.62,367.96L 301.62,367.96L 303.63,367.96L 305.63,367.96L 307.64,367.96L 309.64,375.00L 311.64,375.00L 313.65,367.96L 315.65,367.96L 317.66,367.96L 319.66,367.96L 321.67,367.96L 323.67,367.96L 325.68,360.92L 327.68,360.92L 329.68,360.92L 331.69,353.88L 333.69,346.84L 335.70,346.84L 337.70,346.84L 339.71,353.88L 341.71,360.92L 343.72,360.92L 345.72,367.96L 347.73,375.00L 349.73,375.00L 351.73,375.00L 353.74,375.00L 355.74,375.00L 357.75,367.96L 359.75,367.96L 361.76,367.96L 363.76,360.92L 365.77,339.80L 367.77,332.76L 369.77,332.76L 371.78,339.80L 373.78,339.80L 375.79,339.80L 377.79,339.80L 379.80,360.92L 381.80,367.96L 383.81,367.96L 385.81,367.96L 387.82,367.96L 389.82,367.96L 391.82,375.00L 393.83,367.96L 395.83,367.96L 397.84,367.96L 399.84,367.96L 401.85,367.96L 403.85,353.88L 405.86,353.88L 407.86,360.92L 409.86,346.84L 411.87,346.84L 413.87,332.76L 415.88,325.72L 417.88,325.72L 419.89,318.68L 421.89,297.55L 423.90,297.55L 425.90,283.47L 427.91,262.35L 429.91,255.31L 431.91,241.23L 433.92,184.90L 435.92,142.66L 437.93,135.62L 439.93,107.46L 441.94,114.50L 443.94,100.42L 445.95,100.42L 447.95,100.42L 449.95,114.50L 451.96,86.33L 453.96,100.42L 455.97,93.38L 457.97,121.54L 459.98,79.29" id="New cases" class="line" stroke-width="1" stroke-linecap="round"><title>New cases</title></path>
	<circle cx="25.00" cy="338.04" data-y="0.71" data-x="1584057600" r="1" fill="white"><title>2020-03-13: 1</title></circle>
	<circle cx="27.00" cy="345.43" data-y="0.57" data-x="1584144000" r="1" fill="white"><title>2020-03-14: 1</title></circle>
	<circle cx="29.01" cy="342.14" data-y="0.63" data-x="1584230400" r="1" fill="white"><title>2020-03-15: 1</title></circle>
	<circle cx="31.01" cy="346.84" data-y="0.54" data-x="1584316800" r="1" fill="white"><title>2020-03-16: 1</title></circle>
	<circle cx="33.02" cy="353.88" data-y="0.41" data-x="1584403200" r="1" fill="white"><title>2020-03-17: 0</title></circle>
	<circle cx="35.02" cy="346.84" data-y="0.54" data-x="1584489600" r="1" fill="white"><title>2020-03-18: 1</title></circle>
	<circle cx="37.03" cy="339.80" data-y="0.68" data-x="1584576000" r="1" fill="white"><title>2020-03-19: 1</title></circle>
	<circle cx="39.03" cy="339.80" data-y="0.68" data-x="1584662400" r="1" fill="white"><title>2020-03-20: 1</title></circle>
	<circle cx="41.04" cy="325.72" data-y="0.95" data-x="1584748800" r="1" fill="white"><title>2020-03-21: 1</title></circle>
	<circle cx="43.04" cy="318.68" data-y="1.08" data-x="1584835200" r="1" fill="white"><title>2020-03-22: 1</title></circle>
	<circle cx="45.05" cy="318.68" data-y="1.08" data-x="1584921600" r="1" fill="white"><title>2020-03-23: 1</title></circle>
	<circle cx="47.05" cy="311.63" data-y="1.22" data-x="1585008000" r="1" fill="white"><title>2020-03-24: 1</title></circle>
	<circle cx="49.05" cy="297.55" data-y="1.49" data-x="1585094400" r="1" fill="white"><title>2020-03-25: 1</title></circle>
	<circle cx="51.06" cy="283.47" data-y="1.76" data-x="1585180800" r="1" fill="white"><title>2020-03-26: 2</title></circle>
	<circle cx="53.06" cy="269.39" data-y="2.03" data-x="1585267200" r="1" fill="white"><title>2020-03-27: 2</title></circle>
	<circle cx="55.07" cy="269.39" data-y="2.03" data-x="1585353600" r="1" fill="white"><title>2020-03-28: 2</title></circle>
	<circle cx="57.07" cy="262.35" data-y="2.16" data-x="1585440000" r="1" fill="white"><title>2020-03-29: 2</title></circle>
	<circle cx="59.08" cy="241.23" data-y="2.57" data-x="1585526400" r="1" fill="white"><title>2020-03-30: 3</title></circle>
	<circle cx="61.08" cy="227.15" data-y="2.84" data-x="1585612800" r="1" fill="white"><title>2020-03-31: 3</title></circle>
	<circle cx="63.09" cy="234.19" data-y="2.70" data-x="1585699200" r="1" fill="white"><title>2020-04-01: 3</title></circle>
	<circle cx="65.09" cy="234.19" data-y="2.70" data-x="1585785600" r="1" fill="white"><title>2020-04-02: 3</title></circle>
	<circle cx="67.09" cy="213.07" data-y="3.11" data-x="1585872000" r="1" fill="white"><title>2020-04-03: 3</title></circle>
	<circle cx="69.10" cy="213.07" data-y="3.11" data-x="1585958400" r="1" fill="white"><title>2020-04-04: 3</title></circle>
	<circle cx="71.10" cy="206.03" data-y="3.24" data-x="1586044800" r="1" fill="white"><title>2020-04-05: 3</title></circle>
	<circle cx="73.11" cy="213.07" data-y="3.11" data-x="1586131200" r="1" fill="white"><title>2020-04-06: 3</title></circle>
	<circle cx="75.11" cy="227.15" data-y="2.84" data-x="1586217600" r="1" fill="white"><title>2020-04-07: 3</title></circle>
	<circle cx="77.12" cy="234.19" data-y="2.70" data-x="1586304000" r="1" fill="white"><title>2020-04-08: 3</title></circle>
	<circle cx="79.12" cy="248.27" data-y="2.43" data-x="1586390400" r="1" fill="white"><title>2020-04-09: 2</title></circle>
	<circle cx="81.13" cy="262.35" data-y="2.16" data-x="1586476800" r="1" fill="white"><title>2020-04-10: 2</title></circle>
	<circle cx="83.13" cy="255.31" data-y="2.30" data-x="1586563200" r="1" fill="white"><title>2020-04-11: 2</title></circle>
	<circle cx="85.14" cy="262.35" data-y="2.16" data-x="1586649600" r="1" fill="white"><title>2020-04-12: 2</title></circle>
	<circle cx="87.14" cy="269.39" data-y="2.03" data-x="1586736000" r="1" fill="white"><title>2020-04-13: 2</title></circle>
	<circle cx="89.14" cy="255.31" data-y="2.30" data-x="1586822400" r="1" fill="white"><title>2020-04-14: 2</title></circle>
	<circle cx="91.15" cy="262.35" data-y="2.16" data-x="1586908800" r="1" fill="white"><title>2020-04-15: 2</title></circle>
	<circle cx="93.15" cy="255.31" data-y="2.30" data-x="1586995200" r="1" fill="white"><title>2020-04-16: 2</title></circle>
	<circle cx="95.16" cy="283.47" data-y="1.76" data-x="1587081600" r="1" fill="white"><title>2020-04-17: 2</title></circle>
	<circle cx="97.16" cy="290.51" data-y="1.62" data-x="1587168000" r="1" fill="white"><title>2020-04-18: 2</title></circle>
	<circle cx="99.17" cy="297.55" data-y="1.49" data-x="1587254400" r="1" fill="white"><title>2020-04-19: 1</title></circle>
	<circle cx="101.17" cy="184.90" data-y="3.65" data-x="1587340800" r="1" fill="white"><title>2020-04-20: 4</title></circle>
	<circle cx="103.18" cy="142.66" data-y="4.46" data-x="1587427200" r="1" fill="white"><title>2020-04-21: 4</title></circle>
	<circle cx="105.18" cy="142.66" data-y="4.46" data-x="1587513600" r="1" fill="white"><title>2020-04-22: 4</title></circle>
	<circle cx="107.18" cy="149.70" data-y="4.32" data-x="1587600000" r="1" fill="white"><title>2020-04-23: 4</title></circle>
	<circle cx="109.19" cy="149.70" data-y="4.32" data-x="1587686400" r="1" fill="white"><title>2020-04-24: 4</title></circle>
	<circle cx="111.19" cy="142.66" data-y="4.46" data-x="1587772800" r="1" fill="white"><title>2020-04-25: 4</title></circle>
	<circle cx="113.20" cy="128.58" data-y="4.73" data-x="1587859200" r="1" fill="white"><title>2020-04-26: 5</title></circle>
	<circle cx="115.20" cy="227.15" data-y="2.84" data-x="1587945600" r="1" fill="white"><title>2020-04-27: 3</title></circle>
	<circle cx="117.21" cy="276.43" data-y="1.89" data-x="1588032000" r="1" fill="white"><title>2020-04-28: 2</title></circle>
	<circle cx="119.21" cy="262.35" data-y="2.16" data-x="1588118400" r="1" fill="white"><title>2020-04-29: 2</title></circle>
	<circle cx="121.22" cy="255.31" data-y="2.30" data-x="1588204800" r="1" fill="white"><title>2020-04-30: 2</title></circle>
	<circle cx="123.22" cy="198.98" data-y="3.38" data-x="1588291200" r="1" fill="white"><title>2020-05-01: 3</title></circle>
	<circle cx="125.23" cy="206.03" data-y="3.24" data-x="1588377600" r="1" fill="white"><title>2020-05-02: 3</title></circle>
	<circle cx="127.23" cy="206.03" data-y="3.24" data-x="1588464000" r="1" fill="white"><title>2020-05-03: 3</title></circle>
	<circle cx="129.23" cy="184.90" data-y="3.65" data-x="1588550400" r="1" fill="white"><title>2020-05-04: 4</title></circle>
	<circle cx="131.24" cy="170.82" data-y="3.92" data-x="1588636800" r="1" fill="white"><title>2020-05-05: 4</title></circle>
	<circle cx="133.24" cy="170.82" data-y="3.92" data-x="1588723200" r="1" fill="white"><title>2020-05-06: 4</title></circle>
	<circle cx="135.25" cy="163.78" data-y="4.05" data-x="1588809600" r="1" fill="white"><title>2020-05-07: 4</title></circle>
	<circle cx="137.25" cy="191.94" data-y="3.51" data-x="1588896000" r="1" fill="white"><title>2020-05-08: 4</title></circle>
	<circle cx="139.26" cy="44.09" data-y="6.35" data-x="1588982400" r="1" fill="white"><title>2020-05-09: 6</title></circle>
	<circle cx="141.26" cy="58.17" data-y="6.08" data-x="1589068800" r="1" fill="white"><title>2020-05-10: 6</title></circle>
	<circle cx="143.27" cy="86.33" data-y="5.54" data-x="1589155200" r="1" fill="white"><title>2020-05-11: 6</title></circle>
	<circle cx="145.27" cy="121.54" data-y="4.86" data-x="1589241600" r="1" fill="white"><title>2020-05-12: 5</title></circle>
	<circle cx="147.27" cy="121.54" data-y="4.86" data-x="1589328000" r="1" fill="white"><title>2020-05-13: 5</title></circle>
	<circle cx="149.28" cy="142.66" data-y="4.46" data-x="1589414400" r="1" fill="white"><title>2020-05-14: 4</title></circle>
	<circle cx="151.28" cy="142.66" data-y="4.46" data-x="1589500800" r="1" fill="white"><title>2020-05-15: 4</title></circle>
	<circle cx="153.29" cy="283.47" data-y="1.76" data-x="1589587200" r="1" fill="white"><title>2020-05-16: 2</title></circle>
	<circle cx="155.29" cy="262.35" data-y="2.16" data-x="1589673600" r="1" fill="white"><title>2020-05-17: 2</title></circle>
	<circle cx="157.30" cy="262.35" data-y="2.16" data-x="1589760000" r="1" fill="white"><title>2020-05-18: 2</title></circle>
	<circle cx="159.30" cy="262.35" data-y="2.16" data-x="1589846400" r="1" fill="white"><title>2020-05-19: 2</title></circle>
	<circle cx="161.31" cy="262.35" data-y="2.16" data-x="1589932800" r="1" fill="white"><title>2020-05-20: 2</title></circle>
	<circle cx="163.31" cy="255.31" data-y="2.30" data-x="1590019200" r="1" fill="white"><title>2020-05-21: 2</title></circle>
	<circle cx="165.32" cy="276.43" data-y="1.89" data-x="1590105600" r="1" fill="white"><title>2020-05-22: 2</title></circle>
	<circle cx="167.32" cy="297.55" data-y="1.49" data-x="1590192000" r="1" fill="white"><title>2020-05-23: 1</title></circle>
	<circle cx="169.32" cy="325.72" data-y="0.95" data-x="1590278400" r="1" fill="white"><title>2020-05-24: 1</title></circle>
	<circle cx="171.33" cy="339.80" data-y="0.68" data-x="1590364800" r="1" fill="white"><title>2020-05-25: 1</title></circle>
	<circle cx="173.33" cy="339.80" data-y="0.68" data-x="1590451200" r="1" fill="white"><title>2020-05-26: 1</title></circle>
	<circle cx="175.34" cy="346.84" data-y="0.54" data-x="1590537600" r="1" fill="white"><title>2020-05-27: 1</title></circle>
	<circle cx="177.34" cy="346.84" data-y="0.54" data-x="1590624000" r="1" fill="white"><title>2020-05-28: 1</title></circle>
	<circle cx="179.35" cy="339.80" data-y="0.68" data-x="1590710400" r="1" fill="white"><title>2020-05-29: 1</title></circle>
	<circle cx="181.35" cy="339.80" data-y="0.68" data-x="1590796800" r="1" fill="white"><title>2020-05-30: 1</title></circle>
	<circle cx="183.36" cy="339.80" data-y="0.68" data-x="1590883200" r="1" fill="white"><title>2020-05-31: 1</title></circle>
	<circle cx="185.36" cy="339.80" data-y="0.68" data-x="1590969600" r="1" fill="white"><title>2020-06-01: 1</title></circle>
	<circle cx="187.36" cy="339.80" data-y="0.68" data-x="1591056000" r="1" fill="white"><title>2020-06-02: 1</title></circle>
	<circle cx="189.37" cy="346.84" data-y="0.54" data-x="1591142400" r="1" fill="white"><title>2020-06-03: 1</title></circle>
	<circle cx="191.37" cy="353.88" data-y="0.41" data-x="1591228800" r="1" fill="white"><title>2020-06-04: 0</title></circle>
	<circle cx="193.38" cy="360.92" data-y="0.27" data-x="1591315200" r="1" fill="white"><title>2020-06-05: 0</title></circle>
	<circle cx="195.38" cy="360.92" data-y="0.27" data-x="1591401600" r="1" fill="white"><title>2020-06-06: 0</title></circle>
	<circle cx="197.39" cy="360.92" data-y="0.27" data-x="1591488000" r="1" fill="white"><title>2020-06-07: 0</title></circle>
	<circle cx="199.39" cy="360.92" data-y="0.27" data-x="1591574400" r="1" fill="white"><title>2020-06-08: 0</title></circle>
	<circle cx="201.40" cy="360.92" data-y="0.27" data-x="1591660800" r="1" fill="white"><title>2020-06-09: 0</title></circle>
	<circle cx="203.40" cy="360.92" data-y="0.27" data-x="1591747200" r="1" fill="white"><title>2020-06-10: 0</title></circle>
	<circle cx="205.41" cy="360.92" data-y="0.27" data-x="1591833600" r="1" fill="white"><title>2020-06-11: 0</title></circle>
	<circle cx="207.41" cy="367.96" data-y="0.14" data-x="1591920000" r="1" fill="white"><title>2020-06-12: 0</title></circle>
	<circle cx="209.41" cy="367.96" data-y="0.14" data-x="1592006400" r="1" fill="white"><title>2020-06-13: 0</title></circle>
	<circle cx="211.42" cy="367.96" data-y="0.14" data-x="1592092800" r="1" fill="white"><title>2020-06-14: 0</title></circle>
	<circle cx="213.42" cy="367.96" data-y="0.14" data-x="1592179200" r="1" fill="white"><title>2020-06-15: 0</title></circle>
	<circle cx="215.43" cy="367.96" data-y="0.14" data-x="1592265600" r="1" fill="white"><title>2020-06-16: 0</title></circle>
	<circle cx="217.43" cy="367.96" data-y="0.14" data-x="1592352000" r="1" fill="white"><title>2020-06-17: 0</title></circle>
	<circle cx="219.44" cy="360.92" data-y="0.27" data-x="1592438400" r="1" fill="white"><title>2020-06-18: 0</title></circle>
	<circle cx="221.44" cy="360.92" data-y="0.27" data-x="1592524800" r="1" fill="white"><title>2020-06-19: 0</title></circle>
	<circle cx="223.45" cy="360.92" data-y="0.27" data-x="1592611200" r="1" fill="white"><title>2020-06-20: 0</title></circle>
	<circle cx="225.45" cy="360.92" data-y="0.27" data-x="1592697600" r="1" fill="white"><title>2020-06-21: 0</title></circle>
	<circle cx="227.45" cy="353.88" data-y="0.41" data-x="1592784000" r="1" fill="white"><title>2020-06-22: 0</title></circle>
	<circle cx="229.46" cy="353.88" data-y="0.41" data-x="1592870400" r="1" fill="white"><title>2020-06-23: 0</title></circle>
	<circle cx="231.46" cy="353.88" data-y="0.41" data-x="1592956800" r="1" fill="white"><title>2020-06-24: 0</title></circle>
	<circle cx="233.47" cy="360.92" data-y="0.27" data-x="1593043200" r="1" fill="white"><title>2020-06-25: 0</title></circle>
	<circle cx="235.47" cy="360.92" data-y="0.27" data-x="1593129600" r="1" fill="white"><title>2020-06-26: 0</title></circle>
	<circle cx="237.48" cy="360.92" data-y="0.27" data-x="1593216000" r="1" fill="white"><title>2020-06-27: 0</title></circle>
	<circle cx="239.48" cy="367.96" data-y="0.14" data-x="1593302400" r="1" fill="white"><title>2020-06-28: 0</title></circle>
	<circle cx="241.49" cy="367.96" data-y="0.14" data-x="1593388800" r="1" fill="white"><title>2020-06-29: 0</title></circle>
	<circle cx="243.49" cy="367.96" data-y="0.14" data-x="1593475200" r="1" fill="white"><title>2020-06-30: 0</title></circle>
	<circle cx="245.50" cy="367.96" data-y="0.14" data-x="1593561600" r="1" fill="white"><title>2020-07-01: 0</title></circle>
	<circle cx="247.50" cy="367.96" data-y="0.14" data-x="1593648000" r="1" fill="white"><title>2020-07-02: 0</title></circle>
	<circle cx="249.50" cy="367.96" data-y="0.14" data-x="1593734400" r="1" fill="white"><title>2020-07-03: 0</title></circle>
	<circle cx="251.51" cy="367.96" data-y="0.14" data-x="1593820800" r="1" fill="white"><title>2020-07-04: 0</title></circle>
	<circle cx="253.51" cy="367.96" data-y="0.14" data-x="1593907200" r="1" fill="white"><title>2020-07-05: 0</title></circle>
	<circle cx="255.52" cy="375.00" data-y="0.00" data-x="1593993600" r="1" fill="white"><title>2020-07-06: 0</title></circle>
	<circle cx="257.52" cy="367.96" data-y="0.14" data-x="1594080000" r="1" fill="white"><title>2020-07-07: 0</title></circle>
	<circle cx="259.53" cy="367.96" data-y="0.14" data-x="1594166400" r="1" fill="white"><title>2020-07-08: 0</title></circle>
	<circle cx="261.53" cy="367.96" data-y="0.14" data-x="1594252800" r="1" fill="white"><title>2020-07-09: 0</title></circle>
	<circle cx="263.54" cy="367.96" data-y="0.14" data-x="1594339200" r="1" fill="white"><title>2020-07-10: 0</title></circle>
	<circle cx="265.54" cy="367.96" data-y="0.14" data-x="1594425600" r="1" fill="white"><title>2020-07-11: 0</title></circle>
	<circle cx="267.55" cy="360.92" data-y="0.27" data-x="1594512000" r="1" fill="white"><title>2020-07-12: 0</title></circle>
	<circle cx="269.55" cy="360.92" data-y="0.27" data-x="1594598400" r="1" fill="white"><title>2020-07-13: 0</title></circle>
	<circle cx="271.55" cy="367.96" data-y="0.14" data-x="1594684800" r="1" fill="white"><title>2020-07-14: 0</title></circle>
	<circle cx="273.56" cy="367.96" data-y="0.14" data-x="1594771200" r="1" fill="white"><title>2020-07-15: 0</title></circle>
	<circle cx="275.56" cy="367.96" data-y="0.14" data-x="1594857600" r="1" fill="white"><title>2020-07-16: 0</title></circle>
	<circle cx="277.57" cy="360.92" data-y="0.27" data-x="1594944000" r="1" fill="white"><title>2020-07-17: 0</title></circle>
	<circle cx="279.57" cy="360.92" data-y="0.27" data-x="1595030400" r="1" fill="white"><title>2020-07-18: 0</title></circle>
	<circle cx="281.58" cy="367.96" data-y="0.14" data-x="1595116800" r="1" fill="white"><title>2020-07-19: 0</title></circle>
	<circle cx="283.58" cy="360.92" data-y="0.27" data-x="1595203200" r="1" fill="white"><title>2020-07-20: 0</title></circle>
	<circle cx="285.59" cy="360.92" data-y="0.27" data-x="1595289600" r="1" fill="white"><title>2020-07-21: 0</title></circle>
	<circle cx="287.59" cy="360.92" data-y="0.27" data-x="1595376000" r="1" fill="white"><title>2020-07-22: 0</title></circle>
	<circle cx="289.59" cy="360.92" data-y="0.27" data-x="1595462400" r="1" fill="white"><title>2020-07-23: 0</title></circle>
	<circle cx="291.60" cy="367.96" data-y="0.14" data-x="1595548800" r="1" fill="white"><title>2020-07-24: 0</title></circle>
	<circle cx="293.60" cy="367.96" data-y="0.14" data-x="1595635200" r="1" fill="white"><title>2020-07-25: 0</title></circle>
	<circle cx="295.61" cy="360.92" data-y="0.27" data-x="1595721600" r="1" fill="white"><title>2020-07-26: 0</title></circle>
	<circle cx="297.61" cy="367.96" data-y="0.14" data-x="1595808000" r="1" fill="white"><title>2020-07-27: 0</title></circle>
	<circle cx="299.62" cy="367.96" data-y="0.14" data-x="1595894400" r="1" fill="white"><title>2020-07-28: 0</title></circle>
	<circle cx="301.62" cy="367.96" data-y="0.14" data-x="1595980800" r="1" fill="white"><title>2020-07-29: 0</title></circle>
	<circle cx="303.63" cy="367.96" data-y="0.14" data-x="1596067200" r="1" fill="white"><title>2020-07-30: 0</title></circle>
	<circle cx="305.63" cy="367.96" data-y="0.14" data-x="1596153600" r="1" fill="white"><title>2020-07-31: 0</title></circle>
	<circle cx="307.64" cy="367.96" data-y="0.14" data-x="1596240000" r="1" fill="white"><title>2020-08-01: 0</title></circle>
	<circle cx="309.64" cy="375.00" data-y="0.00" data-x="1596326400" r="1" fill="white"><title>2020-08-02: 0</title></circle>
	<circle cx="311.64" cy="375.00" data-y="0.00" data-x="1596412800" r="1" fill="white"><title>2020-08-03: 0</title></circle>
	<circle cx="313.65" cy="367.96" data-y="0.14" data-x="1596499200" r="1" fill="white"><title>2020-08-04: 0</title></circle>
	<circle cx="315.65" cy="367.96" data-y="0.14" data-x="1596585600" r="1" fill="white"><title>2020-08-05: 0</title></circle>
	<circle cx="317.66" cy="367.96" data-y="0.14" data-x="1596672000" r="1" fill="white"><title>2020-08-06: 0</title></circle>
	<circle cx="319.66" cy="367.96" data-y="0.14" data-x="1596758400" r="1" fill="white"><title>2020-08-07: 0</title></circle>
	<circle cx="321.67" cy="367.96" data-y="0.14" data-x="1596844800" r="1" fill="white"><title>2020-08-08: 0</title></circle>
	<circle cx="323.67" cy="367.96" data-y="0.14" data-x="1596931200" r="1" fill="white"><title>2020-08-09: 0</title></circle>
	<circle cx="325.68" cy="360.92" data-y="0.27" data-x="1597017600" r="1" fill="white"><title>2020-08-10: 0</title></circle>
	<circle cx="327.68" cy="360.92" data-y="0.27" data-x="1597104000" r="1" fill="white"><title>2020-08-11: 0</title></circle>
	<circle cx="329.68" cy="360.92" data-y="0.27" data-x="1597190400" r="1" fill="white"><title>2020-08-12: 0</title></circle>
	<circle cx="331.69" cy="353.88" data-y="0.41" data-x="1597276800" r="1" fill="white"><title>2020-08-13: 0</title></circle>
	<circle cx="333.69" cy="346.84" data-y="0.54" data-x="1597363200" r="1" fill="white"><title>2020-08-14: 1</title></circle>
	<circle cx="335.70" cy="346.84" data-y="0.54" data-x="1597449600" r="1" fill="white"><title>2020-08-15: 1</title></circle>
	<circle cx="337.70" cy="346.84" data-y="0.54" data-x="1597536000" r="1" fill="white"><title>2020-08-16: 1</title></circle>
	<circle cx="339.71" cy="353.88" data-y="0.41" data-x="1597622400" r="1" fill="white"><title>2020-08-17: 0</title></circle>
	<circle cx="341.71" cy="360.92" data-y="0.27" data-x="1597708800" r="1" fill="white"><title>2020-08-18: 0</title></circle>
	<circle cx="343.72" cy="360.92" data-y="0.27" data-x="1597795200" r="1" fill="white"><title>2020-08-19: 0</title></circle>
	<circle cx="345.72" cy="367.96" data-y="0.14" data-x="1597881600" r="1" fill="white"><title>2020-08-20: 0</title></circle>
	<circle cx="347.73" cy="375.00" data-y="0.00" data-x="1597968000" r="1" fill="white"><title>2020-08-21: 0</title></circle>
	<circle cx="349.73" cy="375.00" data-y="0.00" data-x="1598054400" r="1" fill="white"><title>2020-08-22: 0</title></circle>
	<circle cx="351.73" cy="375.00" data-y="0.00" data-x="1598140800" r="1" fill="white"><title>2020-08-23: 0</title></circle>
	<circle cx="353.74" cy="375.00" data-y="0.00" data-x="1598227200" r="1" fill="white"><title>2020-08-24: 0</title></circle>
	<circle cx="355.74" cy="375.00" data-y="0.00" data-x="1598313600" r="1" fill="white"><title>2020-08-25: 0</title></circle>
	<circle cx="357.75" cy="367.96" data-y="0.14" data-x="1598400000" r="1" fill="white"><title>2020-08-26: 0</title></circle>
	<circle cx="359.75" cy="367.96" data-y="0.14" data-x="1598486400" r="1" fill="white"><title>2020-08-27: 0</title></circle>
	<circle cx="361.76" cy="367.96" data-y="0.14" data-x="1598572800" r="1" fill="white"><title>2020-08-28: 0</title></circle>
	<circle cx="363.76" cy="360.92" data-y="0.27" data-x="1598659200" r="1" fill="white"><title>2020-08-29: 0</title></circle>
	<circle cx="365.77" cy="339.80" data-y="0.68" data-x="1598745600" r="1" fill="white"><title>2020-08-30: 1</title></circle>
	<circle cx="367.77" cy="332.76" data-y="0.81" data-x="1598832000" r="1" fill="white"><title>2020-08-31: 1</title></circle>
	<circle cx="369.77" cy="332.76" data-y="0.81" data-x="1598918400" r="1" fill="white"><title>2020-09-01: 1</title></circle>
	<circle cx="371.78" cy="339.80" data-y="0.68" data-x="1599004800" r="1" fill="white"><title>2020-09-02: 1</title></circle>
	<circle cx="373.78" cy="339.80" data-y="0.68" data-x="1599091200" r="1" fill="white"><title>2020-09-03: 1</title></circle>
	<circle cx="375.79" cy="339.80" data-y="0.68" data-x="1599177600" r="1" fill="white"><title>2020-09-04: 1</title></circle>
	<circle cx="377.79" cy="339.80" data-y="0.68" data-x="1599264000" r="1" fill="white"><title>2020-09-05: 1</title></circle>
	<circle cx="379.80" cy="360.92" data-y="0.27" data-x="1599350400" r="1" fill="white"><title>2020-09-06: 0</title></circle>
	<circle cx="381.80" cy="367.96" data-y="0.14" data-x="1599436800" r="1" fill="white"><title>2020-09-07: 0</title></circle>
	<circle cx="383.81" cy="367.96" data-y="0.14" data-x="1599523200" r="1" fill="white"><title>2020-09-08: 0</title></circle>
	<circle cx="385.81" cy="367.96" data-y="0.14" data-x="1599609600" r="1" fill="white"><title>2020-09-09: 0</title></circle>
	<circle cx="387.82" cy="367.96" data-y="0.14" data-x="1599696000" r="1" fill="white"><title>2020-09-10: 0</title></circle>
	<circle cx="389.82" cy="367.96" data-y="0.14" data-x="1599782400" r="1" fill="white"><title>2020-09-11: 0</title></circle>
	<circle cx="391.82" cy="375.00" data-y="0.00" data-x="1599868800" r="1" fill="white"><title>2020-09-12: 0</title></circle>
	<circle cx="393.83" cy="367.96" data-y="0.14" data-x="1599955200" r="1" fill="white"><title>2020-09-13: 0</title></circle>
	<circle cx="395.83" cy="367.96" data-y="0.14" data-x="1600041600" r="1" fill="white"><title>2020-09-14: 0</title></circle>
	<circle cx="397.84" cy="367.96" data-y="0.14" data-x="1600128000" r="1" fill="white"><title>2020-09-15: 0</title></circle>
	<circle cx="399.84" cy="367.96" data-y="0.14" data-x="1600214400" r="1" fill="white"><title>2020-09-16: 0</title></circle>
	<circle cx="401.85" cy="367.96" data-y="0.14" data-x="1600300800" r="1" fill="white"><title>2020-09-17: 0</title></circle>
	<circle cx="403.85" cy="353.88" data-y="0.41" data-x="1600387200" r="1" fill="white"><title>2020-09-18: 0</title></circle>
	<circle cx="405.86" cy="353.88" data-y="0.41" data-x="1600473600" r="1" fill="white"><title>2020-09-19: 0</title></circle>
	<circle cx="407.86" cy="360.92" data-y="0.27" data-x="1600560000" r="1" fill="white"><title>2020-09-20: 0</title></circle>
	<circle cx="409.86" cy="346.84" data-y="0.54" data-x="1600646400" r="1" fill="white"><title>2020-09-21: 1</title></circle>
	<circle cx="411.87" cy="346.84" data-y="0.54" data-x="1600732800" r="1" fill="white"><title>2020-09-22: 1</title></circle>
	<circle cx="413.87" cy="332.76" data-y="0.81" data-x="1600819200" r="1" fill="white"><title>2020-09-23: 1</title></circle>
	<circle cx="415.88" cy="325.72" data-y="0.95" data-x="1600905600" r="1" fill="white"><title>2020-09-24: 1</title></circle>
	<circle cx="417.88" cy="325.72" data-y="0.95" data-x="1600992000" r="1" fill="white"><title>2020-09-25: 1</title></circle>
	<circle cx="419.89" cy="318.68" data-y="1.08" data-x="1601078400" r="1" fill="white"><title>2020-09-26: 1</title></circle>
	<circle cx="421.89" cy="297.55" data-y="1.49" data-x="1601164800" r="1" fill="white"><title>2020-09-27: 1</title></circle>
	<circle cx="423.90" cy="297.55" data-y="1.49" data-x="1601251200" r="1" fill="white"><title>2020-09-28: 1</title></circle>
	<circle cx="425.90" cy="283.47" data-y="1.76" data-x="1601337600" r="1" fill="white"><title>2020-09-29: 2</title></circle>
	<circle cx="427.91" cy="262.35" data-y="2.16" data-x="1601424000" r="1" fill="white"><title>2020-09-30: 2</title></circle>
	<circle cx="429.91" cy="255.31" data-y="2.30" data-x="1601510400" r="1" fill="white"><title>2020-10-01: 2</title></circle>
	<circle cx="431.91" cy="241.23" data-y="2.57" data-x="1601596800" r="1" fill="white"><title>2020-10-02: 3</title></circle>
	<circle cx="433.92" cy="184.90" data-y="3.65" data-x="1601683200" r="1" fill="white"><title>2020-10-03: 4</title></circle>
	<circle cx="435.92" cy="142.66" data-y="4.46" data-x="1601769600" r="1" fill="white"><title>2020-10-04: 4</title></circle>
	<circle cx="437.93" cy="135.62" data-y="4.59" data-x="1601856000" r="1" fill="white"><title>2020-10-05: 5</title></circle>
	<circle cx="439.93" cy="107.46" data-y="5.13" data-x="1601942400" r="1" fill="white"><title>2020-10-06: 5</title></circle>
	<circle cx="441.94" cy="114.50" data-y="5.00" data-x="1602028800" r="1" fill="white"><title>2020-10-07: 5</title></circle>
	<circle cx="443.94" cy="100.42" data-y="5.27" data-x="1602115200" r="1" fill="white"><title>2020-10-08: 5</title></circle>
	<circle cx="445.95" cy="100.42" data-y="5.27" data-x="1602201600" r="1" fill="white"><title>2020-10-09: 5</title></circle>
	<circle cx="447.95" cy="100.42" data-y="5.27" data-x="1602288000" r="1" fill="white"><title>2020-10-10: 5</title></circle>
	<circle cx="449.95" cy="114.50" data-y="5.00" data-x="1602374400" r="1" fill="white"><title>2020-10-11: 5</title></circle>
	<circle cx="451.96" cy="86.33" data-y="5.54" data-x="1602460800" r="1" fill="white"><title>2020-10-12: 6</title></circle>
	<circle cx="453.96" cy="100.42" data-y="5.27" data-x="1602547200" r="1" fill="white"><title>2020-10-13: 5</title></circle>
	<circle cx="455.97" cy="93.38" data-y="5.40" data-x="1602633600" r="1" fill="white"><title>2020-10-14: 5</title></circle>
	<circle cx="457.97" cy="121.54" data-y="4.86" data-x="1602720000" r="1" fill="white"><title>2020-10-15: 5</title></circle>
	<circle cx="459.98" cy="79.29" data-y="5.67" data-x="1602806400" r="1" fill="white"><title>2020-10-16: 6</title></circle>
</g>
<g data-series="recent-cases" class="data-series">
	<path d="M 459.98,79.29L 461.98,100.42L 463.99,149.70L 465.99,169.65L 468.00,168.01L 470.00,177.86" id="Recent cases" class="line" stroke-width="1" stroke-linecap="round" stroke-dasharray="4,6" stroke-dashoffset="4"><title>Recent cases</title></path>
	<circle cx="459.98" cy="79.29" data-y="5.67" data-x="1602806400" r="2.5" fill="white"><title>2020-10-16: 6</title></circle>
	<circle cx="461.98" cy="100.42" data-y="5.27" data-x="1602892800" r="2.5" fill="white"><title>2020-10-17: 5</title></circle>
	<circle cx="463.99" cy="149.70" data-y="4.32" data-x="1602979200" r="2.5" fill="white"><title>2020-10-18: 4</title></circle>
	<circle cx="465.99" cy="169.65" data-y="3.94" data-x="1603065600" r="2.5" fill="white"><title>2020-10-19: 4</title></circle>
	<circle cx="468.00" cy="168.01" data-y="3.97" data-x="1603152000" r="2.5" fill="white"><title>2020-10-20: 4</title></circle>
	<circle cx="470.00" cy="177.86" data-y="3.78" data-x="1603238400" r="2.5" fill="white"><title>2020-10-21: 4</title></circle>
</g>
</svg>
