<svg width="480" height="400" viewBox="0 0 480 400" xmlns="http://www.w3.org/2000/svg" style="overflow:display" preserveAspectRatio="xMinYMin meet" overflow="visible">
<defs>
	<style>
	.data-series path.line { fill-opacity: 0; stroke: black; }
	.data-series path.line.dotted { stroke-dasharray: 12 20 }
	.data-series:hover path.line, .data-series.on path.line { stroke-width: 1; }
	.data-series:hover circle, .data-series.on circle { display: inline; }
	.graph-grid { font-family: "Helvetica Neue",Helvetica,Arial,"Lucida Grande",sans-serif; }
	.graph-grid line { stroke: black; stroke-width: 1; stroke-linecap: round; }
	.graph-grid.graph-grid-x text { text-anchor: middle; dominant-baseline: hanging; transform: translateY(10px); }
	.graph-grid.graph-grid-y text { text-anchor: end; dominant-baseline: middle; transform: translateX(-10px); }
	</style>
</defs>
<g class="graph-grid graph-grid-y">
	<line x1="15.00" y1="375.00" x2="470.00" y2="375.00" data-left="15"></line>
	<text x="25" y="375" text-anchor="end">0</text>
	<text x="25" y="233.295410583942" text-anchor="end">5</text>
	<text x="25" y="91.5908211678832" text-anchor="end">10</text>
	<text style="text-anchor:middle;dominant-baseline:hanging;font-weight:bold;transform: translateY(192.5px) rotate(-90deg);"></text>
</g>
<g class="graph-grid graph-grid-x">
	<line class="tick" x1="18.91" y1="375.00" x2="18.91" y2="380.00"></line>
	<text x="18.9055793991416" y="375" text-anchor="middle">M</text>
	<line class="tick" x1="79.44" y1="375.00" x2="79.44" y2="380.00"></line>
	<text x="79.4420600858369" y="375" text-anchor="middle">A</text>
	<line class="tick" x1="138.03" y1="375.00" x2="138.03" y2="380.00"></line>
	<text x="138.025751072961" y="375" text-anchor="middle">M</text>
	<line class="tick" x1="198.56" y1="375.00" x2="198.56" y2="380.00"></line>
	<text x="198.562231759657" y="375" text-anchor="middle">J</text>
	<line class="tick" x1="257.15" y1="375.00" x2="257.15" y2="380.00"></line>
	<text x="257.145922746781" y="375" text-anchor="middle">J</text>
	<line class="tick" x1="317.68" y1="375.00" x2="317.68" y2="380.00"></line>
	<text x="317.682403433476" y="375" text-anchor="middle">A</text>
	<line class="tick" x1="378.22" y1="375.00" x2="378.22" y2="380.00"></line>
	<text x="378.218884120172" y="375" text-anchor="middle">S</text>
	<line class="tick" x1="436.80" y1="375.00" x2="436.80" y2="380.00"></line>
	<text x="436.802575107296" y="375" text-anchor="middle">O</text>
	<text style="text-anchor:middle;dominant-baseline:hanging;font-weight:bold;transform: translateY(192.5px) rotate(-90deg);"></text>
</g>
<g data-series="widespread" class="data-series">
	<path d="M 15.00,176.61L 470.00,176.61" id="E07000113-level-0" class="line" stroke-width="1" stroke-linecap="round" stroke-dasharray="3,3" fill-opacity="0.3" opacity="0.3"><title>Widespread</title></path>
</g>
<g data-series="substantial" class="data-series">
	<path d="M 15.00,261.64L 470.00,261.64" id="E07000113-level-1" class="line" stroke-width="1" stroke-linecap="round" stroke-dasharray="3,3" fill-opacity="0.3" opacity="0.3"><title>Substantial</title></path>
</g>
<g data-series="moderate" class="data-series">
	<path d="M 15.00,346.66L 470.00,346.66" id="E07000113-level-2" class="line" stroke-width="1" stroke-linecap="round" stroke-dasharray="3,3" fill-opacity="0.3" opacity="0.3"><title>Moderate</title></path>
</g>
<g data-series="new-cases" class="data-series">
	<path d="M 15.00,370.34L 16.95,371.27L 18.91,371.89L 20.86,372.34L 22.81,375.00L 24.76,375.00L 26.72,375.00L 28.67,375.00L 30.62,375.00L 32.58,375.00L 34.53,372.34L 36.48,369.67L 38.43,369.67L 40.39,367.01L 42.34,364.34L 44.29,359.01L 46.24,353.69L 48.20,353.69L 50.15,351.02L 52.10,351.02L 54.06,345.69L 56.01,348.36L 57.96,348.36L 59.91,340.36L 61.87,329.71L 63.82,316.39L 65.77,303.07L 67.73,300.40L 69.68,281.75L 71.63,268.43L 73.58,268.43L 75.54,260.44L 77.49,257.77L 79.44,260.44L 81.39,257.77L 83.35,249.78L 85.30,231.13L 87.25,225.80L 89.21,236.46L 91.16,212.48L 93.11,207.15L 95.06,209.82L 97.02,220.47L 98.97,247.12L 100.92,233.80L 102.88,201.82L 104.83,207.15L 106.78,212.48L 108.73,215.15L 110.69,212.48L 112.64,204.49L 114.59,228.47L 116.55,244.45L 118.50,268.43L 120.45,268.43L 122.40,265.77L 124.36,268.43L 126.31,263.10L 128.26,247.12L 130.21,252.45L 132.17,247.12L 134.12,236.46L 136.07,228.47L 138.03,231.13L 139.98,236.46L 141.93,252.45L 143.88,255.11L 145.84,263.10L 147.79,279.09L 149.74,281.75L 151.70,263.10L 153.65,263.10L 155.60,236.46L 157.55,241.79L 159.51,241.79L 161.46,244.45L 163.41,241.79L 165.36,263.10L 167.32,268.43L 169.27,295.07L 171.22,305.73L 173.18,319.05L 175.13,319.05L 177.08,335.04L 179.03,343.03L 180.99,353.69L 182.94,359.01L 184.89,351.02L 186.85,345.69L 188.80,340.36L 190.75,340.36L 192.70,337.70L 194.66,332.37L 196.61,311.06L 198.56,295.07L 200.52,292.41L 202.47,271.09L 204.42,268.43L 206.37,249.78L 208.33,239.12L 210.28,244.45L 212.23,268.43L 214.18,268.43L 216.14,292.41L 218.09,295.07L 220.04,311.06L 222.00,327.04L 223.95,340.36L 225.90,340.36L 227.85,348.36L 229.81,343.03L 231.76,335.04L 233.71,337.70L 235.67,335.04L 237.62,340.36L 239.57,340.36L 241.52,337.70L 243.48,348.36L 245.43,353.69L 247.38,353.69L 249.33,359.01L 251.29,353.69L 253.24,356.35L 255.19,356.35L 257.15,356.35L 259.10,359.01L 261.05,364.34L 263.00,361.68L 264.96,364.34L 266.91,361.68L 268.86,361.68L 270.82,359.01L 272.77,361.68L 274.72,359.01L 276.67,359.01L 278.63,359.01L 280.58,361.68L 282.53,356.35L 284.48,359.01L 286.44,359.01L 288.39,359.01L 290.34,353.69L 292.30,348.36L 294.25,348.36L 296.20,356.35L 298.15,356.35L 300.11,351.02L 302.06,345.69L 304.01,351.02L 305.97,345.69L 307.92,337.70L 309.87,329.71L 311.82,329.71L 313.78,335.04L 315.73,343.03L 317.68,345.69L 319.64,359.01L 321.59,367.01L 323.54,375.00L 325.49,375.00L 327.45,372.34L 329.40,372.34L 331.35,372.34L 333.30,372.34L 335.26,372.34L 337.21,372.34L 339.16,372.34L 341.12,375.00L 343.07,369.67L 345.02,369.67L 346.97,367.01L 348.93,364.34L 350.88,364.34L 352.83,364.34L 354.79,364.34L 356.74,367.01L 358.69,367.01L 360.64,364.34L 362.60,364.34L 364.55,356.35L 366.50,351.02L 368.45,348.36L 370.41,348.36L 372.36,343.03L 374.31,348.36L 376.27,348.36L 378.22,343.03L 380.17,335.04L 382.12,297.74L 384.08,292.41L 386.03,292.41L 387.98,287.08L 389.94,284.42L 391.89,287.08L 393.84,289.74L 395.79,327.04L 397.75,327.04L 399.70,319.05L 401.65,321.72L 403.61,324.38L 405.56,329.71L 407.51,337.70L 409.46,337.70L 411.42,335.04L 413.37,343.03L 415.32,329.71L 417.27,319.05L 419.23,324.38L 421.18,324.38L 423.13,313.72L 425.09,300.40L 427.04,295.07L 428.99,289.74L 430.94,273.76L 432.90,244.45L 434.85,225.80L 436.80,220.47L 438.76,217.81L 440.71,201.82L 442.66,169.85L 444.61,135.22L 446.57,119.23L 448.52,119.23L 450.47,95.26L 452.42,63.28L 454.38,44.64L 456.33,23.32L 458.28,17.99L 460.24,10.00" id="New cases" class="line" stroke-width="1" stroke-linecap="round"><title>New cases</title></path>
	<circle cx="15.00" cy="370.34" data-y="0.16" data-x="1582848000" r="1" fill="white"><title>2020-02-28: 0</title></circle>
	<circle cx="16.95" cy="371.27" data-y="0.13" data-x="1582934400" r="1" fill="white"><title>2020-02-29: 0</title></circle>
	<circle cx="18.91" cy="371.89" data-y="0.11" data-x="1583020800" r="1" fill="white"><title>2020-03-01: 0</title></circle>
	<circle cx="20.86" cy="372.34" data-y="0.09" data-x="1583107200" r="1" fill="white"><title>2020-03-02: 0</title></circle>
	<circle cx="22.81" cy="375.00" data-y="0.00" data-x="1583193600" r="1" fill="white"><title>2020-03-03: 0</title></circle>
	<circle cx="24.76" cy="375.00" data-y="0.00" data-x="1583280000" r="1" fill="white"><title>2020-03-04: 0</title></circle>
	<circle cx="26.72" cy="375.00" data-y="0.00" data-x="1583366400" r="1" fill="white"><title>2020-03-05: 0</title></circle>
	<circle cx="28.67" cy="375.00" data-y="0.00" data-x="1583452800" r="1" fill="white"><title>2020-03-06: 0</title></circle>
	<circle cx="30.62" cy="375.00" data-y="0.00" data-x="1583539200" r="1" fill="white"><title>2020-03-07: 0</title></circle>
	<circle cx="32.58" cy="375.00" data-y="0.00" data-x="1583625600" r="1" fill="white"><title>2020-03-08: 0</title></circle>
	<circle cx="34.53" cy="372.34" data-y="0.09" data-x="1583712000" r="1" fill="white"><title>2020-03-09: 0</title></circle>
	<circle cx="36.48" cy="369.67" data-y="0.19" data-x="1583798400" r="1" fill="white"><title>2020-03-10: 0</title></circle>
	<circle cx="38.43" cy="369.67" data-y="0.19" data-x="1583884800" r="1" fill="white"><title>2020-03-11: 0</title></circle>
	<circle cx="40.39" cy="367.01" data-y="0.28" data-x="1583971200" r="1" fill="white"><title>2020-03-12: 0</title></circle>
	<circle cx="42.34" cy="364.34" data-y="0.38" data-x="1584057600" r="1" fill="white"><title>2020-03-13: 0</title></circle>
	<circle cx="44.29" cy="359.01" data-y="0.56" data-x="1584144000" r="1" fill="white"><title>2020-03-14: 1</title></circle>
	<circle cx="46.24" cy="353.69" data-y="0.75" data-x="1584230400" r="1" fill="white"><title>2020-03-15: 1</title></circle>
	<circle cx="48.20" cy="353.69" data-y="0.75" data-x="1584316800" r="1" fill="white"><title>2020-03-16: 1</title></circle>
	<circle cx="50.15" cy="351.02" data-y="0.85" data-x="1584403200" r="1" fill="white"><title>2020-03-17: 1</title></circle>
	<circle cx="52.10" cy="351.02" data-y="0.85" data-x="1584489600" r="1" fill="white"><title>2020-03-18: 1</title></circle>
	<circle cx="54.06" cy="345.69" data-y="1.03" data-x="1584576000" r="1" fill="white"><title>2020-03-19: 1</title></circle>
	<circle cx="56.01" cy="348.36" data-y="0.94" data-x="1584662400" r="1" fill="white"><title>2020-03-20: 1</title></circle>
	<circle cx="57.96" cy="348.36" data-y="0.94" data-x="1584748800" r="1" fill="white"><title>2020-03-21: 1</title></circle>
	<circle cx="59.91" cy="340.36" data-y="1.22" data-x="1584835200" r="1" fill="white"><title>2020-03-22: 1</title></circle>
	<circle cx="61.87" cy="329.71" data-y="1.60" data-x="1584921600" r="1" fill="white"><title>2020-03-23: 2</title></circle>
	<circle cx="63.82" cy="316.39" data-y="2.07" data-x="1585008000" r="1" fill="white"><title>2020-03-24: 2</title></circle>
	<circle cx="65.77" cy="303.07" data-y="2.54" data-x="1585094400" r="1" fill="white"><title>2020-03-25: 3</title></circle>
	<circle cx="67.73" cy="300.40" data-y="2.63" data-x="1585180800" r="1" fill="white"><title>2020-03-26: 3</title></circle>
	<circle cx="69.68" cy="281.75" data-y="3.29" data-x="1585267200" r="1" fill="white"><title>2020-03-27: 3</title></circle>
	<circle cx="71.63" cy="268.43" data-y="3.76" data-x="1585353600" r="1" fill="white"><title>2020-03-28: 4</title></circle>
	<circle cx="73.58" cy="268.43" data-y="3.76" data-x="1585440000" r="1" fill="white"><title>2020-03-29: 4</title></circle>
	<circle cx="75.54" cy="260.44" data-y="4.04" data-x="1585526400" r="1" fill="white"><title>2020-03-30: 4</title></circle>
	<circle cx="77.49" cy="257.77" data-y="4.14" data-x="1585612800" r="1" fill="white"><title>2020-03-31: 4</title></circle>
	<circle cx="79.44" cy="260.44" data-y="4.04" data-x="1585699200" r="1" fill="white"><title>2020-04-01: 4</title></circle>
	<circle cx="81.39" cy="257.77" data-y="4.14" data-x="1585785600" r="1" fill="white"><title>2020-04-02: 4</title></circle>
	<circle cx="83.35" cy="249.78" data-y="4.42" data-x="1585872000" r="1" fill="white"><title>2020-04-03: 4</title></circle>
	<circle cx="85.30" cy="231.13" data-y="5.08" data-x="1585958400" r="1" fill="white"><title>2020-04-04: 5</title></circle>
	<circle cx="87.25" cy="225.80" data-y="5.26" data-x="1586044800" r="1" fill="white"><title>2020-04-05: 5</title></circle>
	<circle cx="89.21" cy="236.46" data-y="4.89" data-x="1586131200" r="1" fill="white"><title>2020-04-06: 5</title></circle>
	<circle cx="91.16" cy="212.48" data-y="5.73" data-x="1586217600" r="1" fill="white"><title>2020-04-07: 6</title></circle>
	<circle cx="93.11" cy="207.15" data-y="5.92" data-x="1586304000" r="1" fill="white"><title>2020-04-08: 6</title></circle>
	<circle cx="95.06" cy="209.82" data-y="5.83" data-x="1586390400" r="1" fill="white"><title>2020-04-09: 6</title></circle>
	<circle cx="97.02" cy="220.47" data-y="5.45" data-x="1586476800" r="1" fill="white"><title>2020-04-10: 5</title></circle>
	<circle cx="98.97" cy="247.12" data-y="4.51" data-x="1586563200" r="1" fill="white"><title>2020-04-11: 5</title></circle>
	<circle cx="100.92" cy="233.80" data-y="4.98" data-x="1586649600" r="1" fill="white"><title>2020-04-12: 5</title></circle>
	<circle cx="102.88" cy="201.82" data-y="6.11" data-x="1586736000" r="1" fill="white"><title>2020-04-13: 6</title></circle>
	<circle cx="104.83" cy="207.15" data-y="5.92" data-x="1586822400" r="1" fill="white"><title>2020-04-14: 6</title></circle>
	<circle cx="106.78" cy="212.48" data-y="5.73" data-x="1586908800" r="1" fill="white"><title>2020-04-15: 6</title></circle>
	<circle cx="108.73" cy="215.15" data-y="5.64" data-x="1586995200" r="1" fill="white"><title>2020-04-16: 6</title></circle>
	<circle cx="110.69" cy="212.48" data-y="5.73" data-x="1587081600" r="1" fill="white"><title>2020-04-17: 6</title></circle>
	<circle cx="112.64" cy="204.49" data-y="6.02" data-x="1587168000" r="1" fill="white"><title>2020-04-18: 6</title></circle>
	<circle cx="114.59" cy="228.47" data-y="5.17" data-x="1587254400" r="1" fill="white"><title>2020-04-19: 5</title></circle>
	<circle cx="116.55" cy="244.45" data-y="4.61" data-x="1587340800" r="1" fill="white"><title>2020-04-20: 5</title></circle>
	<circle cx="118.50" cy="268.43" data-y="3.76" data-x="1587427200" r="1" fill="white"><title>2020-04-21: 4</title></circle>
	<circle cx="120.45" cy="268.43" data-y="3.76" data-x="1587513600" r="1" fill="white"><title>2020-04-22: 4</title></circle>
	<circle cx="122.40" cy="265.77" data-y="3.85" data-x="1587600000" r="1" fill="white"><title>2020-04-23: 4</title></circle>
	<circle cx="124.36" cy="268.43" data-y="3.76" data-x="1587686400" r="1" fill="white"><title>2020-04-24: 4</title></circle>
	<circle cx="126.31" cy="263.10" data-y="3.95" data-x="1587772800" r="1" fill="white"><title>2020-04-25: 4</title></circle>
	<circle cx="128.26" cy="247.12" data-y="4.51" data-x="1587859200" r="1" fill="white"><title>2020-04-26: 5</title></circle>
	<circle cx="130.21" cy="252.45" data-y="4.32" data-x="1587945600" r="1" fill="white"><title>2020-04-27: 4</title></circle>
	<circle cx="132.17" cy="247.12" data-y="4.51" data-x="1588032000" r="1" fill="white"><title>2020-04-28: 5</title></circle>
	<circle cx="134.12" cy="236.46" data-y="4.89" data-x="1588118400" r="1" fill="white"><title>2020-04-29: 5</title></circle>
	<circle cx="136.07" cy="228.47" data-y="5.17" data-x="1588204800" r="1" fill="white"><title>2020-04-30: 5</title></circle>
	<circle cx="138.03" cy="231.13" data-y="5.08" data-x="1588291200" r="1" fill="white"><title>2020-05-01: 5</title></circle>
	<circle cx="139.98" cy="236.46" data-y="4.89" data-x="1588377600" r="1" fill="white"><title>2020-05-02: 5</title></circle>
	<circle cx="141.93" cy="252.45" data-y="4.32" data-x="1588464000" r="1" fill="white"><title>2020-05-03: 4</title></circle>
	<circle cx="143.88" cy="255.11" data-y="4.23" data-x="1588550400" r="1" fill="white"><title>2020-05-04: 4</title></circle>
	<circle cx="145.84" cy="263.10" data-y="3.95" data-x="1588636800" r="1" fill="white"><title>2020-05-05: 4</title></circle>
	<circle cx="147.79" cy="279.09" data-y="3.38" data-x="1588723200" r="1" fill="white"><title>2020-05-06: 3</title></circle>
	<circle cx="149.74" cy="281.75" data-y="3.29" data-x="1588809600" r="1" fill="white"><title>2020-05-07: 3</title></circle>
	<circle cx="151.70" cy="263.10" data-y="3.95" data-x="1588896000" r="1" fill="white"><title>2020-05-08: 4</title></circle>
	<circle cx="153.65" cy="263.10" data-y="3.95" data-x="1588982400" r="1" fill="white"><title>2020-05-09: 4</title></circle>
	<circle cx="155.60" cy="236.46" data-y="4.89" data-x="1589068800" r="1" fill="white"><title>2020-05-10: 5</title></circle>
	<circle cx="157.55" cy="241.79" data-y="4.70" data-x="1589155200" r="1" fill="white"><title>2020-05-11: 5</title></circle>
	<circle cx="159.51" cy="241.79" data-y="4.70" data-x="1589241600" r="1" fill="white"><title>2020-05-12: 5</title></circle>
	<circle cx="161.46" cy="244.45" data-y="4.61" data-x="1589328000" r="1" fill="white"><title>2020-05-13: 5</title></circle>
	<circle cx="163.41" cy="241.79" data-y="4.70" data-x="1589414400" r="1" fill="white"><title>2020-05-14: 5</title></circle>
	<circle cx="165.36" cy="263.10" data-y="3.95" data-x="1589500800" r="1" fill="white"><title>2020-05-15: 4</title></circle>
	<circle cx="167.32" cy="268.43" data-y="3.76" data-x="1589587200" r="1" fill="white"><title>2020-05-16: 4</title></circle>
	<circle cx="169.27" cy="295.07" data-y="2.82" data-x="1589673600" r="1" fill="white"><title>2020-05-17: 3</title></circle>
	<circle cx="171.22" cy="305.73" data-y="2.44" data-x="1589760000" r="1" fill="white"><title>2020-05-18: 2</title></circle>
	<circle cx="173.18" cy="319.05" data-y="1.97" data-x="1589846400" r="1" fill="white"><title>2020-05-19: 2</title></circle>
	<circle cx="175.13" cy="319.05" data-y="1.97" data-x="1589932800" r="1" fill="white"><title>2020-05-20: 2</title></circle>
	<circle cx="177.08" cy="335.04" data-y="1.41" data-x="1590019200" r="1" fill="white"><title>2020-05-21: 1</title></circle>
	<circle cx="179.03" cy="343.03" data-y="1.13" data-x="1590105600" r="1" fill="white"><title>2020-05-22: 1</title></circle>
	<circle cx="180.99" cy="353.69" data-y="0.75" data-x="1590192000" r="1" fill="white"><title>2020-05-23: 1</title></circle>
	<circle cx="182.94" cy="359.01" data-y="0.56" data-x="1590278400" r="1" fill="white"><title>2020-05-24: 1</title></circle>
	<circle cx="184.89" cy="351.02" data-y="0.85" data-x="1590364800" r="1" fill="white"><title>2020-05-25: 1</title></circle>
	<circle cx="186.85" cy="345.69" data-y="1.03" data-x="1590451200" r="1" fill="white"><title>2020-05-26: 1</title></circle>
	<circle cx="188.80" cy="340.36" data-y="1.22" data-x="1590537600" r="1" fill="white"><title>2020-05-27: 1</title></circle>
	<circle cx="190.75" cy="340.36" data-y="1.22" data-x="1590624000" r="1" fill="white"><title>2020-05-28: 1</title></circle>
	<circle cx="192.70" cy="337.70" data-y="1.32" data-x="1590710400" r="1" fill="white"><title>2020-05-29: 1</title></circle>
	<circle cx="194.66" cy="332.37" data-y="1.50" data-x="1590796800" r="1" fill="white"><title>2020-05-30: 2</title></circle>
	<circle cx="196.61" cy="311.06" data-y="2.26" data-x="1590883200" r="1" fill="white"><title>2020-05-31: 2</title></circle>
	<circle cx="198.56" cy="295.07" data-y="2.82" data-x="1590969600" r="1" fill="white"><title>2020-06-01: 3</title></circle>
	<circle cx="200.52" cy="292.41" data-y="2.91" data-x="1591056000" r="1" fill="white"><title>2020-06-02: 3</title></circle>
	<circle cx="202.47" cy="271.09" data-y="3.67" data-x="1591142400" r="1" fill="white"><title>2020-06-03: 4</title></circle>
	<circle cx="204.42" cy="268.43" data-y="3.76" data-x="1591228800" r="1" fill="white"><title>2020-06-04: 4</title></circle>
	<circle cx="206.37" cy="249.78" data-y="4.42" data-x="1591315200" r="1" fill="white"><title>2020-06-05: 4</title></circle>
	<circle cx="208.33" cy="239.12" data-y="4.79" data-x="1591401600" r="1" fill="white"><title>2020-06-06: 5</title></circle>
	<circle cx="210.28" cy="244.45" data-y="4.61" data-x="1591488000" r="1" fill="white"><title>2020-06-07: 5</title></circle>
	<circle cx="212.23" cy="268.43" data-y="3.76" data-x="1591574400" r="1" fill="white"><title>2020-06-08: 4</title></circle>
	<circle cx="214.18" cy="268.43" data-y="3.76" data-x="1591660800" r="1" fill="white"><title>2020-06-09: 4</title></circle>
	<circle cx="216.14" cy="292.41" data-y="2.91" data-x="1591747200" r="1" fill="white"><title>2020-06-10: 3</title></circle>
	<circle cx="218.09" cy="295.07" data-y="2.82" data-x="1591833600" r="1" fill="white"><title>2020-06-11: 3</title></circle>
	<circle cx="220.04" cy="311.06" data-y="2.26" data-x="1591920000" r="1" fill="white"><title>2020-06-12: 2</title></circle>
	<circle cx="222.00" cy="327.04" data-y="1.69" data-x="1592006400" r="1" fill="white"><title>2020-06-13: 2</title></circle>
	<circle cx="223.95" cy="340.36" data-y="1.22" data-x="1592092800" r="1" fill="white"><title>2020-06-14: 1</title></circle>
	<circle cx="225.90" cy="340.36" data-y="1.22" data-x="1592179200" r="1" fill="white"><title>2020-06-15: 1</title></circle>
	<circle cx="227.85" cy="348.36" data-y="0.94" data-x="1592265600" r="1" fill="white"><title>2020-06-16: 1</title></circle>
	<circle cx="229.81" cy="343.03" data-y="1.13" data-x="1592352000" r="1" fill="white"><title>2020-06-17: 1</title></circle>
	<circle cx="231.76" cy="335.04" data-y="1.41" data-x="1592438400" r="1" fill="white"><title>2020-06-18: 1</title></circle>
	<circle cx="233.71" cy="337.70" data-y="1.32" data-x="1592524800" r="1" fill="white"><title>2020-06-19: 1</title></circle>
	<circle cx="235.67" cy="335.04" data-y="1.41" data-x="1592611200" r="1" fill="white"><title>2020-06-20: 1</title></circle>
	<circle cx="237.62" cy="340.36" data-y="1.22" data-x="1592697600" r="1" fill="white"><title>2020-06-21: 1</title></circle>
	<circle cx="239.57" cy="340.36" data-y="1.22" data-x="1592784000" r="1" fill="white"><title>2020-06-22: 1</title></circle>
	<circle cx="241.52" cy="337.70" data-y="1.32" data-x="1592870400" r="1" fill="white"><title>2020-06-23: 1</title></circle>
	<circle cx="243.48" cy="348.36" data-y="0.94" data-x="1592956800" r="1" fill="white"><title>2020-06-24: 1</title></circle>
	<circle cx="245.43" cy="353.69" data-y="0.75" data-x="1593043200" r="1" fill="white"><title>2020-06-25: 1</title></circle>
	<circle cx="247.38" cy="353.69" data-y="0.75" data-x="1593129600" r="1" fill="white"><title>2020-06-26: 1</title></circle>
	<circle cx="249.33" cy="359.01" data-y="0.56" data-x="1593216000" r="1" fill="white"><title>2020-06-27: 1</title></circle>
	<circle cx="251.29" cy="353.69" data-y="0.75" data-x="1593302400" r="1" fill="white"><title>2020-06-28: 1</title></circle>
	<circle cx="253.24" cy="356.35" data-y="0.66" data-x="1593388800" r="1" fill="white"><title>2020-06-29: 1</title></circle>
	<circle cx="255.19" cy="356.35" data-y="0.66" data-x="1593475200" r="1" fill="white"><title>2020-06-30: 1</title></circle>
	<circle cx="257.15" cy="356.35" data-y="0.66" data-x="1593561600" r="1" fill="white"><title>2020-07-01: 1</title></circle>
	<circle cx="259.10" cy="359.01" data-y="0.56" data-x="1593648000" r="1" fill="white"><title>2020-07-02: 1</title></circle>
	<circle cx="261.05" cy="364.34" data-y="0.38" data-x="1593734400" r="1" fill="white"><title>2020-07-03: 0</title></circle>
	<circle cx="263.00" cy="361.68" data-y="0.47" data-x="1593820800" r="1" fill="white"><title>2020-07-04: 0</title></circle>
	<circle cx="264.96" cy="364.34" data-y="0.38" data-x="1593907200" r="1" fill="white"><title>2020-07-05: 0</title></circle>
	<circle cx="266.91" cy="361.68" data-y="0.47" data-x="1593993600" r="1" fill="white"><title>2020-07-06: 0</title></circle>
	<circle cx="268.86" cy="361.68" data-y="0.47" data-x="1594080000" r="1" fill="white"><title>2020-07-07: 0</title></circle>
	<circle cx="270.82" cy="359.01" data-y="0.56" data-x="1594166400" r="1" fill="white"><title>2020-07-08: 1</title></circle>
	<circle cx="272.77" cy="361.68" data-y="0.47" data-x="1594252800" r="1" fill="white"><title>2020-07-09: 0</title></circle>
	<circle cx="274.72" cy="359.01" data-y="0.56" data-x="1594339200" r="1" fill="white"><title>2020-07-10: 1</title></circle>
	<circle cx="276.67" cy="359.01" data-y="0.56" data-x="1594425600" r="1" fill="white"><title>2020-07-11: 1</title></circle>
	<circle cx="278.63" cy="359.01" data-y="0.56" data-x="1594512000" r="1" fill="white"><title>2020-07-12: 1</title></circle>
	<circle cx="280.58" cy="361.68" data-y="0.47" data-x="1594598400" r="1" fill="white"><title>2020-07-13: 0</title></circle>
	<circle cx="282.53" cy="356.35" data-y="0.66" data-x="1594684800" r="1" fill="white"><title>2020-07-14: 1</title></circle>
	<circle cx="284.48" cy="359.01" data-y="0.56" data-x="1594771200" r="1" fill="white"><title>2020-07-15: 1</title></circle>
	<circle cx="286.44" cy="359.01" data-y="0.56" data-x="1594857600" r="1" fill="white"><title>2020-07-16: 1</title></circle>
	<circle cx="288.39" cy="359.01" data-y="0.56" data-x="1594944000" r="1" fill="white"><title>2020-07-17: 1</title></circle>
	<circle cx="290.34" cy="353.69" data-y="0.75" data-x="1595030400" r="1" fill="white"><title>2020-07-18: 1</title></circle>
	<circle cx="292.30" cy="348.36" data-y="0.94" data-x="1595116800" r="1" fill="white"><title>2020-07-19: 1</title></circle>
	<circle cx="294.25" cy="348.36" data-y="0.94" data-x="1595203200" r="1" fill="white"><title>2020-07-20: 1</title></circle>
	<circle cx="296.20" cy="356.35" data-y="0.66" data-x="1595289600" r="1" fill="white"><title>2020-07-21: 1</title></circle>
	<circle cx="298.15" cy="356.35" data-y="0.66" data-x="1595376000" r="1" fill="white"><title>2020-07-22: 1</title></circle>
	<circle cx="300.11" cy="351.02" data-y="0.85" data-x="1595462400" r="1" fill="white"><title>2020-07-23: 1</title></circle>
	<circle cx="302.06" cy="345.69" data-y="1.03" data-x="1595548800" r="1" fill="white"><title>2020-07-24: 1</title></circle>
	<circle cx="304.01" cy="351.02" data-y="0.85" data-x="1595635200" r="1" fill="white"><title>2020-07-25: 1</title></circle>
	<circle cx="305.97" cy="345.69" data-y="1.03" data-x="1595721600" r="1" fill="white"><title>2020-07-26: 1</title></circle>
	<circle cx="307.92" cy="337.70" data-y="1.32" data-x="1595808000" r="1" fill="white"><title>2020-07-27: 1</title></circle>
	<circle cx="309.87" cy="329.71" data-y="1.60" data-x="1595894400" r="1" fill="white"><title>2020-07-28: 2</title></circle>
	<circle cx="311.82" cy="329.71" data-y="1.60" data-x="1595980800" r="1" fill="white"><title>2020-07-29: 2</title></circle>
	<circle cx="313.78" cy="335.04" data-y="1.41" data-x="1596067200" r="1" fill="white"><title>2020-07-30: 1</title></circle>
	<circle cx="315.73" cy="343.03" data-y="1.13" data-x="1596153600" r="1" fill="white"><title>2020-07-31: 1</title></circle>
	<circle cx="317.68" cy="345.69" data-y="1.03" data-x="1596240000" r="1" fill="white"><title>2020-08-01: 1</title></circle>
	<circle cx="319.64" cy="359.01" data-y="0.56" data-x="1596326400" r="1" fill="white"><title>2020-08-02: 1</title></circle>
	<circle cx="321.59" cy="367.01" data-y="0.28" data-x="1596412800" r="1" fill="white"><title>2020-08-03: 0</title></circle>
	<circle cx="323.54" cy="375.00" data-y="0.00" data-x="1596499200" r="1" fill="white"><title>2020-08-04: 0</title></circle>
	<circle cx="325.49" cy="375.00" data-y="0.00" data-x="1596585600" r="1" fill="white"><title>2020-08-05: 0</title></circle>
	<circle cx="327.45" cy="372.34" data-y="0.09" data-x="1596672000" r="1" fill="white"><title>2020-08-06: 0</title></circle>
	<circle cx="329.40" cy="372.34" data-y="0.09" data-x="1596758400" r="1" fill="white"><title>2020-08-07: 0</title></circle>
	<circle cx="331.35" cy="372.34" data-y="0.09" data-x="1596844800" r="1" fill="white"><title>2020-08-08: 0</title></circle>
	<circle cx="333.30" cy="372.34" data-y="0.09" data-x="1596931200" r="1" fill="white"><title>2020-08-09: 0</title></circle>
	<circle cx="335.26" cy="372.34" data-y="0.09" data-x="1597017600" r="1" fill="white"><title>2020-08-10: 0</title></circle>
	<circle cx="337.21" cy="372.34" data-y="0.09" data-x="1597104000" r="1" fill="white"><title>2020-08-11: 0</title></circle>
	<circle cx="339.16" cy="372.34" data-y="0.09" data-x="1597190400" r="1" fill="white"><title>2020-08-12: 0</title></circle>
	<circle cx="341.12" cy="375.00" data-y="0.00" data-x="1597276800" r="1" fill="white"><title>2020-08-13: 0</title></circle>
	<circle cx="343.07" cy="369.67" data-y="0.19" data-x="1597363200" r="1" fill="white"><title>2020-08-14: 0</title></circle>
	<circle cx="345.02" cy="369.67" data-y="0.19" data-x="1597449600" r="1" fill="white"><title>2020-08-15: 0</title></circle>
	<circle cx="346.97" cy="367.01" data-y="0.28" data-x="1597536000" r="1" fill="white"><title>2020-08-16: 0</title></circle>
	<circle cx="348.93" cy="364.34" data-y="0.38" data-x="1597622400" r="1" fill="white"><title>2020-08-17: 0</title></circle>
	<circle cx="350.88" cy="364.34" data-y="0.38" data-x="1597708800" r="1" fill="white"><title>2020-08-18: 0</title></circle>
	<circle cx="352.83" cy="364.34" data-y="0.38" data-x="1597795200" r="1" fill="white"><title>2020-08-19: 0</title></circle>
	<circle cx="354.79" cy="364.34" data-y="0.38" data-x="1597881600" r="1" fill="white"><title>2020-08-20: 0</title></circle>
	<circle cx="356.74" cy="367.01" data-y="0.28" data-x="1597968000" r="1" fill="white"><title>2020-08-21: 0</title></circle>
	<circle cx="358.69" cy="367.01" data-y="0.28" data-x="1598054400" r="1" fill="white"><title>2020-08-22: 0</title></circle>
	<circle cx="360.64" cy="364.34" data-y="0.38" data-x="1598140800" r="1" fill="white"><title>2020-08-23: 0</title></circle>
	<circle cx="362.60" cy="364.34" data-y="0.38" data-x="1598227200" r="1" fill="white"><title>2020-08-24: 0</title></circle>
	<circle cx="364.55" cy="356.35" data-y="0.66" data-x="1598313600" r="1" fill="white"><title>2020-08-25: 1</title></circle>
	<circle cx="366.50" cy="351.02" data-y="0.85" data-x="1598400000" r="1" fill="white"><title>2020-08-26: 1</title></circle>
	<circle cx="368.45" cy="348.36" data-y="0.94" data-x="1598486400" r="1" fill="white"><title>2020-08-27: 1</title></circle>
	<circle cx="370.41" cy="348.36" data-y="0.94" data-x="1598572800" r="1" fill="white"><title>2020-08-28: 1</title></circle>
	<circle cx="372.36" cy="343.03" data-y="1.13" data-x="1598659200" r="1" fill="white"><title>2020-08-29: 1</title></circle>
	<circle cx="374.31" cy="348.36" data-y="0.94" data-x="1598745600" r="1" fill="white"><title>2020-08-30: 1</title></circle>
	<circle cx="376.27" cy="348.36" data-y="0.94" data-x="1598832000" r="1" fill="white"><title>2020-08-31: 1</title></circle>
	<circle cx="378.22" cy="343.03" data-y="1.13" data-x="1598918400" r="1" fill="white"><title>2020-09-01: 1</title></circle>
	<circle cx="380.17" cy="335.04" data-y="1.41" data-x="1599004800" r="1" fill="white"><title>2020-09-02: 1</title></circle>
	<circle cx="382.12" cy="297.74" data-y="2.73" data-x="1599091200" r="1" fill="white"><title>2020-09-03: 3</title></circle>
	<circle cx="384.08" cy="292.41" data-y="2.91" data-x="1599177600" r="1" fill="white"><title>2020-09-04: 3</title></circle>
	<circle cx="386.03" cy="292.41" data-y="2.91" data-x="1599264000" r="1" fill="white"><title>2020-09-05: 3</title></circle>
	<circle cx="387.98" cy="287.08" data-y="3.10" data-x="1599350400" r="1" fill="white"><title>2020-09-06: 3</title></circle>
	<circle cx="389.94" cy="284.42" data-y="3.20" data-x="1599436800" r="1" fill="white"><title>2020-09-07: 3</title></circle>
	<circle cx="391.89" cy="287.08" data-y="3.10" data-x="1599523200" r="1" fill="white"><title>2020-09-08: 3</title></circle>
	<circle cx="393.84" cy="289.74" data-y="3.01" data-x="1599609600" r="1" fill="white"><title>2020-09-09: 3</title></circle>
	<circle cx="395.79" cy="327.04" data-y="1.69" data-x="1599696000" r="1" fill="white"><title>2020-09-10: 2</title></circle>
	<circle cx="397.75" cy="327.04" data-y="1.69" data-x="1599782400" r="1" fill="white"><title>2020-09-11: 2</title></circle>
	<circle cx="399.70" cy="319.05" data-y="1.97" data-x="1599868800" r="1" fill="white"><title>2020-09-12: 2</title></circle>
	<circle cx="401.65" cy="321.72" data-y="1.88" data-x="1599955200" r="1" fill="white"><title>2020-09-13: 2</title></circle>
	<circle cx="403.61" cy="324.38" data-y="1.79" data-x="1600041600" r="1" fill="white"><title>2020-09-14: 2</title></circle>
	<circle cx="405.56" cy="329.71" data-y="1.60" data-x="1600128000" r="1" fill="white"><title>2020-09-15: 2</title></circle>
	<circle cx="407.51" cy="337.70" data-y="1.32" data-x="1600214400" r="1" fill="white"><title>2020-09-16: 1</title></circle>
	<circle cx="409.46" cy="337.70" data-y="1.32" data-x="1600300800" r="1" fill="white"><title>2020-09-17: 1</title></circle>
	<circle cx="411.42" cy="335.04" data-y="1.41" data-x="1600387200" r="1" fill="white"><title>2020-09-18: 1</title></circle>
	<circle cx="413.37" cy="343.03" data-y="1.13" data-x="1600473600" r="1" fill="white"><title>2020-09-19: 1</title></circle>
	<circle cx="415.32" cy="329.71" data-y="1.60" data-x="1600560000" r="1" fill="white"><title>2020-09-20: 2</title></circle>
	<circle cx="417.27" cy="319.05" data-y="1.97" data-x="1600646400" r="1" fill="white"><title>2020-09-21: 2</title></circle>
	<circle cx="419.23" cy="324.38" data-y="1.79" data-x="1600732800" r="1" fill="white"><title>2020-09-22: 2</title></circle>
	<circle cx="421.18" cy="324.38" data-y="1.79" data-x="1600819200" r="1" fill="white"><title>2020-09-23: 2</title></circle>
	<circle cx="423.13" cy="313.72" data-y="2.16" data-x="1600905600" r="1" fill="white"><title>2020-09-24: 2</title></circle>
	<circle cx="425.09" cy="300.40" data-y="2.63" data-x="1600992000" r="1" fill="white"><title>2020-09-25: 3</title></circle>
	<circle cx="427.04" cy="295.07" data-y="2.82" data-x="1601078400" r="1" fill="white"><title>2020-09-26: 3</title></circle>
	<circle cx="428.99" cy="289.74" data-y="3.01" data-x="1601164800" r="1" fill="white"><title>2020-09-27: 3</title></circle>
	<circle cx="430.94" cy="273.76" data-y="3.57" data-x="1601251200" r="1" fill="white"><title>2020-09-28: 4</title></circle>
	<circle cx="432.90" cy="244.45" data-y="4.61" data-x="1601337600" r="1" fill="white"><title>2020-09-29: 5</title></circle>
	<circle cx="434.85" cy="225.80" data-y="5.26" data-x="1601424000" r="1" fill="white"><title>2020-09-30: 5</title></circle>
	<circle cx="436.80" cy="220.47" data-y="5.45" data-x="1601510400" r="1" fill="white"><title>2020-10-01: 5</title></circle>
	<circle cx="438.76" cy="217.81" data-y="5.55" data-x="1601596800" r="1" fill="white"><title>2020-10-02: 6</title></circle>
	<circle cx="440.71" cy="201.82" data-y="6.11" data-x="1601683200" r="1" fill="white"><title>2020-10-03: 6</title></circle>
	<circle cx="442.66" cy="169.85" data-y="7.24" data-x="1601769600" r="1" fill="white"><title>2020-10-04: 7</title></circle>
	<circle cx="444.61" cy="135.22" data-y="8.46" data-x="1601856000" r="1" fill="white"><title>2020-10-05: 8</title></circle>
	<circle cx="446.57" cy="119.23" data-y="9.02" data-x="1601942400" r="1" fill="white"><title>2020-10-06: 9</title></circle>
	<circle cx="448.52" cy="119.23" data-y="9.02" data-x="1602028800" r="1" fill="white"><title>2020-10-07: 9</title></circle>
	<circle cx="450.47" cy="95.26" data-y="9.87" data-x="1602115200" r="1" fill="white"><title>2020-10-08: 10</title></circle>
	<circle cx="452.42" cy="63.28" data-y="11.00" data-x="1602201600" r="1" fill="white"><title>2020-10-09: 11</title></circle>
	<circle cx="454.38" cy="44.64" data-y="11.66" data-x="1602288000" r="1" fill="white"><title>2020-10-10: 12</title></circle>
	<circle cx="456.33" cy="23.32" data-y="12.41" data-x="1602374400" r="1" fill="white"><title>2020-10-11: 12</title></circle>
	<circle cx="458.28" cy="17.99" data-y="12.60" data-x="1602460800" r="1" fill="white"><title>2020-10-12: 13</title></circle>
	<circle cx="460.24" cy="10.00" data-y="12.88" data-x="1602547200" r="1" fill="white"><title>2020-10-13: 13</title></circle>
</g>
<g data-series="recent-cases" class="data-series">
	<path d="M 460.24,10.00L 462.19,31.31L 464.14,73.94L 466.09,92.15L 468.05,98.99L 470.00,160.53" id="Recent cases" class="line" stroke-width="1" stroke-linecap="round" stroke-dasharray="4,6"><title>Recent cases</title></path>
</g>
</svg>
