<svg width="480" height="400" viewBox="0 0 480 400" xmlns="http://www.w3.org/2000/svg" style="overflow:display" preserveAspectRatio="xMinYMin meet" overflow="visible">
<defs>
	<style>
	.data-series path.line { fill-opacity: 0; stroke: black; }
	.data-series path.line.dotted { stroke-dasharray: 12 20 }
	.data-series:hover path.line, .data-series.on path.line { stroke-width: 1; }
	.data-series:hover circle, .data-series.on circle { display: inline; }
	.graph-grid { font-family: "Helvetica Neue",Helvetica,Arial,"Lucida Grande",sans-serif; }
	.graph-grid line { stroke: black; stroke-width: 1; stroke-linecap: round; }
	.graph-grid.graph-grid-x text { text-anchor: middle; dominant-baseline: hanging; transform: translateY(10px); }
	.graph-grid.graph-grid-y text { text-anchor: end; dominant-baseline: middle; transform: translateX(-10px); }
	</style>
</defs>
<g class="graph-grid graph-grid-y">
	<line x1="25.00" y1="375.00" x2="470.00" y2="375.00" data-left="25"></line>
	<text x="35" y="375" text-anchor="end">0</text>
	<text x="35" y="286.766562594268" text-anchor="end">20</text>
	<text x="35" y="198.533125188537" text-anchor="end">40</text>
	<text x="35" y="110.299687782805" text-anchor="end">60</text>
	<text x="35" y="22.0662503770739" text-anchor="end">80</text>
	<text style="text-anchor:middle;dominant-baseline:hanging;font-weight:bold;transform: translateY(192.5px) rotate(-90deg);"></text>
</g>
<g class="graph-grid graph-grid-x">
	<line class="tick" x1="45.96" y1="375.00" x2="45.96" y2="380.00"></line>
	<text x="45.9601449275362" y="375" text-anchor="middle">A</text>
	<line class="tick" x1="94.33" y1="375.00" x2="94.33" y2="380.00"></line>
	<text x="94.3297101449275" y="375" text-anchor="middle">M</text>
	<line class="tick" x1="144.31" y1="375.00" x2="144.31" y2="380.00"></line>
	<text x="144.311594202899" y="375" text-anchor="middle">J</text>
	<line class="tick" x1="192.68" y1="375.00" x2="192.68" y2="380.00"></line>
	<text x="192.68115942029" y="375" text-anchor="middle">J</text>
	<line class="tick" x1="242.66" y1="375.00" x2="242.66" y2="380.00"></line>
	<text x="242.663043478261" y="375" text-anchor="middle">A</text>
	<line class="tick" x1="292.64" y1="375.00" x2="292.64" y2="380.00"></line>
	<text x="292.644927536232" y="375" text-anchor="middle">S</text>
	<line class="tick" x1="341.01" y1="375.00" x2="341.01" y2="380.00"></line>
	<text x="341.014492753623" y="375" text-anchor="middle">O</text>
	<line class="tick" x1="391.00" y1="375.00" x2="391.00" y2="380.00"></line>
	<text x="390.996376811594" y="375" text-anchor="middle">N</text>
	<line class="tick" x1="439.37" y1="375.00" x2="439.37" y2="380.00"></line>
	<text x="439.365942028986" y="375" text-anchor="middle">D</text>
	<text style="text-anchor:middle;dominant-baseline:hanging;font-weight:bold;transform: translateY(192.5px) rotate(-90deg);"></text>
</g>
<g data-series="widespread" class="data-series">
	<path d="M 25.00,344.12L 470.00,344.12" id="E07000127-level-0" class="line" stroke-width="1" stroke-linecap="round" stroke-dasharray="3,3" fill-opacity="0.3" opacity="0.3"><title>Widespread</title></path>
</g>
<g data-series="substantial" class="data-series">
	<path d="M 25.00,357.35L 470.00,357.35" id="E07000127-level-1" class="line" stroke-width="1" stroke-linecap="round" stroke-dasharray="3,3" fill-opacity="0.3" opacity="0.3"><title>Substantial</title></path>
</g>
<g data-series="moderate" class="data-series">
	<path d="M 25.00,370.59L 470.00,370.59" id="E07000127-level-2" class="line" stroke-width="1" stroke-linecap="round" stroke-dasharray="3,3" fill-opacity="0.3" opacity="0.3"><title>Moderate</title></path>
</g>
<g data-series="new-cases" class="data-series">
	<path d="M 25.00,373.07L 26.61,371.15L 28.22,369.22L 29.84,367.84L 31.45,365.64L 33.06,363.44L 34.67,361.24L 36.29,359.59L 37.90,355.18L 39.51,351.88L 41.12,345.27L 42.74,340.87L 44.35,333.71L 45.96,331.51L 47.57,327.65L 49.18,326.55L 50.80,323.80L 52.41,323.80L 54.02,328.21L 55.63,335.91L 57.25,337.01L 58.86,338.67L 60.47,344.72L 62.08,348.57L 63.70,352.43L 65.31,346.92L 66.92,344.17L 68.53,337.56L 70.14,335.36L 71.76,329.31L 73.37,331.51L 74.98,327.10L 76.59,327.10L 78.21,316.09L 79.82,323.80L 81.43,325.45L 83.04,322.15L 84.66,315.54L 86.27,317.19L 87.88,319.40L 89.49,325.45L 91.11,326.00L 92.72,321.05L 94.33,325.45L 95.94,328.21L 97.55,332.06L 99.17,329.86L 100.78,330.96L 102.39,329.86L 104.00,333.71L 105.62,329.86L 107.23,327.65L 108.84,326.00L 110.45,333.16L 112.07,337.56L 113.68,335.36L 115.29,338.11L 116.90,343.62L 118.51,346.92L 120.13,351.88L 121.74,347.47L 123.35,348.57L 124.96,352.43L 126.58,355.18L 128.19,356.83L 129.80,358.48L 131.41,356.83L 133.03,360.69L 134.64,359.03L 136.25,359.59L 137.86,357.93L 139.47,359.03L 141.09,355.73L 142.70,356.28L 144.31,356.83L 145.92,359.59L 147.54,359.59L 149.15,361.24L 150.76,361.24L 152.37,367.29L 153.99,367.84L 155.60,367.84L 157.21,367.84L 158.82,368.39L 160.43,367.29L 162.05,367.29L 163.66,367.84L 165.27,368.39L 166.88,368.94L 168.50,370.60L 170.11,370.05L 171.72,371.15L 173.33,370.60L 174.95,369.49L 176.56,368.94L 178.17,368.94L 179.78,367.29L 181.39,367.84L 183.01,367.84L 184.62,370.05L 186.23,371.15L 187.84,372.25L 189.46,372.80L 191.07,372.80L 192.68,372.80L 194.29,371.70L 195.91,371.70L 197.52,370.60L 199.13,370.60L 200.74,371.15L 202.36,372.25L 203.97,372.25L 205.58,373.35L 207.19,373.35L 208.80,374.45L 210.42,373.90L 212.03,372.80L 213.64,372.80L 215.25,372.25L 216.87,372.25L 218.48,371.15L 220.09,369.49L 221.70,367.84L 223.32,366.74L 224.93,366.74L 226.54,365.09L 228.15,363.99L 229.76,364.54L 231.38,363.99L 232.99,363.99L 234.60,363.99L 236.21,363.99L 237.83,366.19L 239.44,366.19L 241.05,362.89L 242.66,364.54L 244.28,366.19L 245.89,368.39L 247.50,368.39L 249.11,366.19L 250.72,366.19L 252.34,368.39L 253.95,368.39L 255.56,368.94L 257.17,367.84L 258.79,366.74L 260.40,368.94L 262.01,370.05L 263.62,371.15L 265.24,370.60L 266.85,369.49L 268.46,370.60L 270.07,371.70L 271.68,371.70L 273.30,371.70L 274.91,371.70L 276.52,372.25L 278.13,372.80L 279.75,372.25L 281.36,372.80L 282.97,371.70L 284.58,370.60L 286.20,370.05L 287.81,366.19L 289.42,362.89L 291.03,361.24L 292.64,355.18L 294.26,351.88L 295.87,350.78L 297.48,345.82L 299.09,347.47L 300.71,348.02L 302.32,345.27L 303.93,350.23L 305.54,352.43L 307.16,351.88L 308.77,351.33L 310.38,346.37L 311.99,343.07L 313.61,339.77L 315.22,337.01L 316.83,332.06L 318.44,324.90L 320.05,329.31L 321.67,321.60L 323.28,314.44L 324.89,309.49L 326.50,297.93L 328.12,291.32L 329.73,285.81L 331.34,272.60L 332.95,266.55L 334.57,259.94L 336.18,246.18L 337.79,224.71L 339.40,207.09L 341.01,191.67L 342.63,153.69L 344.24,130.02L 345.85,110.75L 347.46,79.92L 349.08,68.91L 350.69,64.50L 352.30,46.33L 353.91,22.66L 355.53,15.51L 357.14,10.00L 358.75,28.17L 360.36,37.53L 361.97,28.17L 363.59,46.89L 365.20,56.24L 366.81,68.36L 368.42,59.55L 370.04,48.54L 371.65,45.23L 373.26,62.85L 374.87,66.15L 376.49,83.22L 378.10,88.73L 379.71,115.15L 381.32,128.91L 382.93,136.62L 384.55,143.78L 386.16,142.13L 387.77,156.99L 389.38,161.40L 391.00,159.19L 392.61,173.51L 394.22,183.97L 395.83,181.21L 397.45,182.32L 399.06,184.52L 400.67,191.12L 402.28,194.98L 403.89,193.33L 405.51,194.43L 407.12,197.18L 408.73,210.39L 410.34,214.25L 411.96,218.65L 413.57,225.81L 415.18,234.62L 416.79,247.28L 418.41,259.94L 420.02,263.24L 421.63,278.66L 423.24,287.47L 424.86,295.72L 426.47,302.88L 428.08,304.53L 429.69,300.68L 431.30,303.43L 432.92,305.08L 434.53,306.73L 436.14,299.58L 437.75,296.83L 439.37,294.62L 440.98,299.58L 442.59,302.88L 444.20,299.03L 445.82,286.92L 447.43,285.26L 449.04,276.46L 450.65,274.80L 452.26,258.84L 453.88,257.19L 455.49,255.54L 457.10,262.14L 458.71,270.95L 460.33,278.11L 461.94,276.46" id="New cases" class="line" stroke-width="1" stroke-linecap="round"><title>New cases</title></path>
	<circle cx="25.00" cy="373.07" data-y="0.44" data-x="1584576000" r="1" fill="white"><title>2020-03-19: 0</title></circle>
	<circle cx="26.61" cy="371.15" data-y="0.87" data-x="1584662400" r="1" fill="white"><title>2020-03-20: 1</title></circle>
	<circle cx="28.22" cy="369.22" data-y="1.31" data-x="1584748800" r="1" fill="white"><title>2020-03-21: 1</title></circle>
	<circle cx="29.84" cy="367.84" data-y="1.62" data-x="1584835200" r="1" fill="white"><title>2020-03-22: 2</title></circle>
	<circle cx="31.45" cy="365.64" data-y="2.12" data-x="1584921600" r="1" fill="white"><title>2020-03-23: 2</title></circle>
	<circle cx="33.06" cy="363.44" data-y="2.62" data-x="1585008000" r="1" fill="white"><title>2020-03-24: 3</title></circle>
	<circle cx="34.67" cy="361.24" data-y="3.12" data-x="1585094400" r="1" fill="white"><title>2020-03-25: 3</title></circle>
	<circle cx="36.29" cy="359.59" data-y="3.49" data-x="1585180800" r="1" fill="white"><title>2020-03-26: 3</title></circle>
	<circle cx="37.90" cy="355.18" data-y="4.49" data-x="1585267200" r="1" fill="white"><title>2020-03-27: 4</title></circle>
	<circle cx="39.51" cy="351.88" data-y="5.24" data-x="1585353600" r="1" fill="white"><title>2020-03-28: 5</title></circle>
	<circle cx="41.12" cy="345.27" data-y="6.74" data-x="1585440000" r="1" fill="white"><title>2020-03-29: 7</title></circle>
	<circle cx="42.74" cy="340.87" data-y="7.74" data-x="1585526400" r="1" fill="white"><title>2020-03-30: 8</title></circle>
	<circle cx="44.35" cy="333.71" data-y="9.36" data-x="1585612800" r="1" fill="white"><title>2020-03-31: 9</title></circle>
	<circle cx="45.96" cy="331.51" data-y="9.86" data-x="1585699200" r="1" fill="white"><title>2020-04-01: 10</title></circle>
	<circle cx="47.57" cy="327.65" data-y="10.73" data-x="1585785600" r="1" fill="white"><title>2020-04-02: 11</title></circle>
	<circle cx="49.18" cy="326.55" data-y="10.98" data-x="1585872000" r="1" fill="white"><title>2020-04-03: 11</title></circle>
	<circle cx="50.80" cy="323.80" data-y="11.61" data-x="1585958400" r="1" fill="white"><title>2020-04-04: 12</title></circle>
	<circle cx="52.41" cy="323.80" data-y="11.61" data-x="1586044800" r="1" fill="white"><title>2020-04-05: 12</title></circle>
	<circle cx="54.02" cy="328.21" data-y="10.61" data-x="1586131200" r="1" fill="white"><title>2020-04-06: 11</title></circle>
	<circle cx="55.63" cy="335.91" data-y="8.86" data-x="1586217600" r="1" fill="white"><title>2020-04-07: 9</title></circle>
	<circle cx="57.25" cy="337.01" data-y="8.61" data-x="1586304000" r="1" fill="white"><title>2020-04-08: 9</title></circle>
	<circle cx="58.86" cy="338.67" data-y="8.24" data-x="1586390400" r="1" fill="white"><title>2020-04-09: 8</title></circle>
	<circle cx="60.47" cy="344.72" data-y="6.86" data-x="1586476800" r="1" fill="white"><title>2020-04-10: 7</title></circle>
	<circle cx="62.08" cy="348.57" data-y="5.99" data-x="1586563200" r="1" fill="white"><title>2020-04-11: 6</title></circle>
	<circle cx="63.70" cy="352.43" data-y="5.12" data-x="1586649600" r="1" fill="white"><title>2020-04-12: 5</title></circle>
	<circle cx="65.31" cy="346.92" data-y="6.36" data-x="1586736000" r="1" fill="white"><title>2020-04-13: 6</title></circle>
	<circle cx="66.92" cy="344.17" data-y="6.99" data-x="1586822400" r="1" fill="white"><title>2020-04-14: 7</title></circle>
	<circle cx="68.53" cy="337.56" data-y="8.49" data-x="1586908800" r="1" fill="white"><title>2020-04-15: 8</title></circle>
	<circle cx="70.14" cy="335.36" data-y="8.98" data-x="1586995200" r="1" fill="white"><title>2020-04-16: 9</title></circle>
	<circle cx="71.76" cy="329.31" data-y="10.36" data-x="1587081600" r="1" fill="white"><title>2020-04-17: 10</title></circle>
	<circle cx="73.37" cy="331.51" data-y="9.86" data-x="1587168000" r="1" fill="white"><title>2020-04-18: 10</title></circle>
	<circle cx="74.98" cy="327.10" data-y="10.86" data-x="1587254400" r="1" fill="white"><title>2020-04-19: 11</title></circle>
	<circle cx="76.59" cy="327.10" data-y="10.86" data-x="1587340800" r="1" fill="white"><title>2020-04-20: 11</title></circle>
	<circle cx="78.21" cy="316.09" data-y="13.35" data-x="1587427200" r="1" fill="white"><title>2020-04-21: 13</title></circle>
	<circle cx="79.82" cy="323.80" data-y="11.61" data-x="1587513600" r="1" fill="white"><title>2020-04-22: 12</title></circle>
	<circle cx="81.43" cy="325.45" data-y="11.23" data-x="1587600000" r="1" fill="white"><title>2020-04-23: 11</title></circle>
	<circle cx="83.04" cy="322.15" data-y="11.98" data-x="1587686400" r="1" fill="white"><title>2020-04-24: 12</title></circle>
	<circle cx="84.66" cy="315.54" data-y="13.48" data-x="1587772800" r="1" fill="white"><title>2020-04-25: 13</title></circle>
	<circle cx="86.27" cy="317.19" data-y="13.10" data-x="1587859200" r="1" fill="white"><title>2020-04-26: 13</title></circle>
	<circle cx="87.88" cy="319.40" data-y="12.60" data-x="1587945600" r="1" fill="white"><title>2020-04-27: 13</title></circle>
	<circle cx="89.49" cy="325.45" data-y="11.23" data-x="1588032000" r="1" fill="white"><title>2020-04-28: 11</title></circle>
	<circle cx="91.11" cy="326.00" data-y="11.11" data-x="1588118400" r="1" fill="white"><title>2020-04-29: 11</title></circle>
	<circle cx="92.72" cy="321.05" data-y="12.23" data-x="1588204800" r="1" fill="white"><title>2020-04-30: 12</title></circle>
	<circle cx="94.33" cy="325.45" data-y="11.23" data-x="1588291200" r="1" fill="white"><title>2020-05-01: 11</title></circle>
	<circle cx="95.94" cy="328.21" data-y="10.61" data-x="1588377600" r="1" fill="white"><title>2020-05-02: 11</title></circle>
	<circle cx="97.55" cy="332.06" data-y="9.73" data-x="1588464000" r="1" fill="white"><title>2020-05-03: 10</title></circle>
	<circle cx="99.17" cy="329.86" data-y="10.23" data-x="1588550400" r="1" fill="white"><title>2020-05-04: 10</title></circle>
	<circle cx="100.78" cy="330.96" data-y="9.98" data-x="1588636800" r="1" fill="white"><title>2020-05-05: 10</title></circle>
	<circle cx="102.39" cy="329.86" data-y="10.23" data-x="1588723200" r="1" fill="white"><title>2020-05-06: 10</title></circle>
	<circle cx="104.00" cy="333.71" data-y="9.36" data-x="1588809600" r="1" fill="white"><title>2020-05-07: 9</title></circle>
	<circle cx="105.62" cy="329.86" data-y="10.23" data-x="1588896000" r="1" fill="white"><title>2020-05-08: 10</title></circle>
	<circle cx="107.23" cy="327.65" data-y="10.73" data-x="1588982400" r="1" fill="white"><title>2020-05-09: 11</title></circle>
	<circle cx="108.84" cy="326.00" data-y="11.11" data-x="1589068800" r="1" fill="white"><title>2020-05-10: 11</title></circle>
	<circle cx="110.45" cy="333.16" data-y="9.48" data-x="1589155200" r="1" fill="white"><title>2020-05-11: 9</title></circle>
	<circle cx="112.07" cy="337.56" data-y="8.49" data-x="1589241600" r="1" fill="white"><title>2020-05-12: 8</title></circle>
	<circle cx="113.68" cy="335.36" data-y="8.98" data-x="1589328000" r="1" fill="white"><title>2020-05-13: 9</title></circle>
	<circle cx="115.29" cy="338.11" data-y="8.36" data-x="1589414400" r="1" fill="white"><title>2020-05-14: 8</title></circle>
	<circle cx="116.90" cy="343.62" data-y="7.11" data-x="1589500800" r="1" fill="white"><title>2020-05-15: 7</title></circle>
	<circle cx="118.51" cy="346.92" data-y="6.36" data-x="1589587200" r="1" fill="white"><title>2020-05-16: 6</title></circle>
	<circle cx="120.13" cy="351.88" data-y="5.24" data-x="1589673600" r="1" fill="white"><title>2020-05-17: 5</title></circle>
	<circle cx="121.74" cy="347.47" data-y="6.24" data-x="1589760000" r="1" fill="white"><title>2020-05-18: 6</title></circle>
	<circle cx="123.35" cy="348.57" data-y="5.99" data-x="1589846400" r="1" fill="white"><title>2020-05-19: 6</title></circle>
	<circle cx="124.96" cy="352.43" data-y="5.12" data-x="1589932800" r="1" fill="white"><title>2020-05-20: 5</title></circle>
	<circle cx="126.58" cy="355.18" data-y="4.49" data-x="1590019200" r="1" fill="white"><title>2020-05-21: 4</title></circle>
	<circle cx="128.19" cy="356.83" data-y="4.12" data-x="1590105600" r="1" fill="white"><title>2020-05-22: 4</title></circle>
	<circle cx="129.80" cy="358.48" data-y="3.74" data-x="1590192000" r="1" fill="white"><title>2020-05-23: 4</title></circle>
	<circle cx="131.41" cy="356.83" data-y="4.12" data-x="1590278400" r="1" fill="white"><title>2020-05-24: 4</title></circle>
	<circle cx="133.03" cy="360.69" data-y="3.24" data-x="1590364800" r="1" fill="white"><title>2020-05-25: 3</title></circle>
	<circle cx="134.64" cy="359.03" data-y="3.62" data-x="1590451200" r="1" fill="white"><title>2020-05-26: 4</title></circle>
	<circle cx="136.25" cy="359.59" data-y="3.49" data-x="1590537600" r="1" fill="white"><title>2020-05-27: 3</title></circle>
	<circle cx="137.86" cy="357.93" data-y="3.87" data-x="1590624000" r="1" fill="white"><title>2020-05-28: 4</title></circle>
	<circle cx="139.47" cy="359.03" data-y="3.62" data-x="1590710400" r="1" fill="white"><title>2020-05-29: 4</title></circle>
	<circle cx="141.09" cy="355.73" data-y="4.37" data-x="1590796800" r="1" fill="white"><title>2020-05-30: 4</title></circle>
	<circle cx="142.70" cy="356.28" data-y="4.24" data-x="1590883200" r="1" fill="white"><title>2020-05-31: 4</title></circle>
	<circle cx="144.31" cy="356.83" data-y="4.12" data-x="1590969600" r="1" fill="white"><title>2020-06-01: 4</title></circle>
	<circle cx="145.92" cy="359.59" data-y="3.49" data-x="1591056000" r="1" fill="white"><title>2020-06-02: 3</title></circle>
	<circle cx="147.54" cy="359.59" data-y="3.49" data-x="1591142400" r="1" fill="white"><title>2020-06-03: 3</title></circle>
	<circle cx="149.15" cy="361.24" data-y="3.12" data-x="1591228800" r="1" fill="white"><title>2020-06-04: 3</title></circle>
	<circle cx="150.76" cy="361.24" data-y="3.12" data-x="1591315200" r="1" fill="white"><title>2020-06-05: 3</title></circle>
	<circle cx="152.37" cy="367.29" data-y="1.75" data-x="1591401600" r="1" fill="white"><title>2020-06-06: 2</title></circle>
	<circle cx="153.99" cy="367.84" data-y="1.62" data-x="1591488000" r="1" fill="white"><title>2020-06-07: 2</title></circle>
	<circle cx="155.60" cy="367.84" data-y="1.62" data-x="1591574400" r="1" fill="white"><title>2020-06-08: 2</title></circle>
	<circle cx="157.21" cy="367.84" data-y="1.62" data-x="1591660800" r="1" fill="white"><title>2020-06-09: 2</title></circle>
	<circle cx="158.82" cy="368.39" data-y="1.50" data-x="1591747200" r="1" fill="white"><title>2020-06-10: 1</title></circle>
	<circle cx="160.43" cy="367.29" data-y="1.75" data-x="1591833600" r="1" fill="white"><title>2020-06-11: 2</title></circle>
	<circle cx="162.05" cy="367.29" data-y="1.75" data-x="1591920000" r="1" fill="white"><title>2020-06-12: 2</title></circle>
	<circle cx="163.66" cy="367.84" data-y="1.62" data-x="1592006400" r="1" fill="white"><title>2020-06-13: 2</title></circle>
	<circle cx="165.27" cy="368.39" data-y="1.50" data-x="1592092800" r="1" fill="white"><title>2020-06-14: 1</title></circle>
	<circle cx="166.88" cy="368.94" data-y="1.37" data-x="1592179200" r="1" fill="white"><title>2020-06-15: 1</title></circle>
	<circle cx="168.50" cy="370.60" data-y="1.00" data-x="1592265600" r="1" fill="white"><title>2020-06-16: 1</title></circle>
	<circle cx="170.11" cy="370.05" data-y="1.12" data-x="1592352000" r="1" fill="white"><title>2020-06-17: 1</title></circle>
	<circle cx="171.72" cy="371.15" data-y="0.87" data-x="1592438400" r="1" fill="white"><title>2020-06-18: 1</title></circle>
	<circle cx="173.33" cy="370.60" data-y="1.00" data-x="1592524800" r="1" fill="white"><title>2020-06-19: 1</title></circle>
	<circle cx="174.95" cy="369.49" data-y="1.25" data-x="1592611200" r="1" fill="white"><title>2020-06-20: 1</title></circle>
	<circle cx="176.56" cy="368.94" data-y="1.37" data-x="1592697600" r="1" fill="white"><title>2020-06-21: 1</title></circle>
	<circle cx="178.17" cy="368.94" data-y="1.37" data-x="1592784000" r="1" fill="white"><title>2020-06-22: 1</title></circle>
	<circle cx="179.78" cy="367.29" data-y="1.75" data-x="1592870400" r="1" fill="white"><title>2020-06-23: 2</title></circle>
	<circle cx="181.39" cy="367.84" data-y="1.62" data-x="1592956800" r="1" fill="white"><title>2020-06-24: 2</title></circle>
	<circle cx="183.01" cy="367.84" data-y="1.62" data-x="1593043200" r="1" fill="white"><title>2020-06-25: 2</title></circle>
	<circle cx="184.62" cy="370.05" data-y="1.12" data-x="1593129600" r="1" fill="white"><title>2020-06-26: 1</title></circle>
	<circle cx="186.23" cy="371.15" data-y="0.87" data-x="1593216000" r="1" fill="white"><title>2020-06-27: 1</title></circle>
	<circle cx="187.84" cy="372.25" data-y="0.62" data-x="1593302400" r="1" fill="white"><title>2020-06-28: 1</title></circle>
	<circle cx="189.46" cy="372.80" data-y="0.50" data-x="1593388800" r="1" fill="white"><title>2020-06-29: 0</title></circle>
	<circle cx="191.07" cy="372.80" data-y="0.50" data-x="1593475200" r="1" fill="white"><title>2020-06-30: 0</title></circle>
	<circle cx="192.68" cy="372.80" data-y="0.50" data-x="1593561600" r="1" fill="white"><title>2020-07-01: 0</title></circle>
	<circle cx="194.29" cy="371.70" data-y="0.75" data-x="1593648000" r="1" fill="white"><title>2020-07-02: 1</title></circle>
	<circle cx="195.91" cy="371.70" data-y="0.75" data-x="1593734400" r="1" fill="white"><title>2020-07-03: 1</title></circle>
	<circle cx="197.52" cy="370.60" data-y="1.00" data-x="1593820800" r="1" fill="white"><title>2020-07-04: 1</title></circle>
	<circle cx="199.13" cy="370.60" data-y="1.00" data-x="1593907200" r="1" fill="white"><title>2020-07-05: 1</title></circle>
	<circle cx="200.74" cy="371.15" data-y="0.87" data-x="1593993600" r="1" fill="white"><title>2020-07-06: 1</title></circle>
	<circle cx="202.36" cy="372.25" data-y="0.62" data-x="1594080000" r="1" fill="white"><title>2020-07-07: 1</title></circle>
	<circle cx="203.97" cy="372.25" data-y="0.62" data-x="1594166400" r="1" fill="white"><title>2020-07-08: 1</title></circle>
	<circle cx="205.58" cy="373.35" data-y="0.37" data-x="1594252800" r="1" fill="white"><title>2020-07-09: 0</title></circle>
	<circle cx="207.19" cy="373.35" data-y="0.37" data-x="1594339200" r="1" fill="white"><title>2020-07-10: 0</title></circle>
	<circle cx="208.80" cy="374.45" data-y="0.12" data-x="1594425600" r="1" fill="white"><title>2020-07-11: 0</title></circle>
	<circle cx="210.42" cy="373.90" data-y="0.25" data-x="1594512000" r="1" fill="white"><title>2020-07-12: 0</title></circle>
	<circle cx="212.03" cy="372.80" data-y="0.50" data-x="1594598400" r="1" fill="white"><title>2020-07-13: 0</title></circle>
	<circle cx="213.64" cy="372.80" data-y="0.50" data-x="1594684800" r="1" fill="white"><title>2020-07-14: 0</title></circle>
	<circle cx="215.25" cy="372.25" data-y="0.62" data-x="1594771200" r="1" fill="white"><title>2020-07-15: 1</title></circle>
	<circle cx="216.87" cy="372.25" data-y="0.62" data-x="1594857600" r="1" fill="white"><title>2020-07-16: 1</title></circle>
	<circle cx="218.48" cy="371.15" data-y="0.87" data-x="1594944000" r="1" fill="white"><title>2020-07-17: 1</title></circle>
	<circle cx="220.09" cy="369.49" data-y="1.25" data-x="1595030400" r="1" fill="white"><title>2020-07-18: 1</title></circle>
	<circle cx="221.70" cy="367.84" data-y="1.62" data-x="1595116800" r="1" fill="white"><title>2020-07-19: 2</title></circle>
	<circle cx="223.32" cy="366.74" data-y="1.87" data-x="1595203200" r="1" fill="white"><title>2020-07-20: 2</title></circle>
	<circle cx="224.93" cy="366.74" data-y="1.87" data-x="1595289600" r="1" fill="white"><title>2020-07-21: 2</title></circle>
	<circle cx="226.54" cy="365.09" data-y="2.25" data-x="1595376000" r="1" fill="white"><title>2020-07-22: 2</title></circle>
	<circle cx="228.15" cy="363.99" data-y="2.50" data-x="1595462400" r="1" fill="white"><title>2020-07-23: 2</title></circle>
	<circle cx="229.76" cy="364.54" data-y="2.37" data-x="1595548800" r="1" fill="white"><title>2020-07-24: 2</title></circle>
	<circle cx="231.38" cy="363.99" data-y="2.50" data-x="1595635200" r="1" fill="white"><title>2020-07-25: 2</title></circle>
	<circle cx="232.99" cy="363.99" data-y="2.50" data-x="1595721600" r="1" fill="white"><title>2020-07-26: 2</title></circle>
	<circle cx="234.60" cy="363.99" data-y="2.50" data-x="1595808000" r="1" fill="white"><title>2020-07-27: 2</title></circle>
	<circle cx="236.21" cy="363.99" data-y="2.50" data-x="1595894400" r="1" fill="white"><title>2020-07-28: 2</title></circle>
	<circle cx="237.83" cy="366.19" data-y="2.00" data-x="1595980800" r="1" fill="white"><title>2020-07-29: 2</title></circle>
	<circle cx="239.44" cy="366.19" data-y="2.00" data-x="1596067200" r="1" fill="white"><title>2020-07-30: 2</title></circle>
	<circle cx="241.05" cy="362.89" data-y="2.75" data-x="1596153600" r="1" fill="white"><title>2020-07-31: 3</title></circle>
	<circle cx="242.66" cy="364.54" data-y="2.37" data-x="1596240000" r="1" fill="white"><title>2020-08-01: 2</title></circle>
	<circle cx="244.28" cy="366.19" data-y="2.00" data-x="1596326400" r="1" fill="white"><title>2020-08-02: 2</title></circle>
	<circle cx="245.89" cy="368.39" data-y="1.50" data-x="1596412800" r="1" fill="white"><title>2020-08-03: 1</title></circle>
	<circle cx="247.50" cy="368.39" data-y="1.50" data-x="1596499200" r="1" fill="white"><title>2020-08-04: 1</title></circle>
	<circle cx="249.11" cy="366.19" data-y="2.00" data-x="1596585600" r="1" fill="white"><title>2020-08-05: 2</title></circle>
	<circle cx="250.72" cy="366.19" data-y="2.00" data-x="1596672000" r="1" fill="white"><title>2020-08-06: 2</title></circle>
	<circle cx="252.34" cy="368.39" data-y="1.50" data-x="1596758400" r="1" fill="white"><title>2020-08-07: 1</title></circle>
	<circle cx="253.95" cy="368.39" data-y="1.50" data-x="1596844800" r="1" fill="white"><title>2020-08-08: 1</title></circle>
	<circle cx="255.56" cy="368.94" data-y="1.37" data-x="1596931200" r="1" fill="white"><title>2020-08-09: 1</title></circle>
	<circle cx="257.17" cy="367.84" data-y="1.62" data-x="1597017600" r="1" fill="white"><title>2020-08-10: 2</title></circle>
	<circle cx="258.79" cy="366.74" data-y="1.87" data-x="1597104000" r="1" fill="white"><title>2020-08-11: 2</title></circle>
	<circle cx="260.40" cy="368.94" data-y="1.37" data-x="1597190400" r="1" fill="white"><title>2020-08-12: 1</title></circle>
	<circle cx="262.01" cy="370.05" data-y="1.12" data-x="1597276800" r="1" fill="white"><title>2020-08-13: 1</title></circle>
	<circle cx="263.62" cy="371.15" data-y="0.87" data-x="1597363200" r="1" fill="white"><title>2020-08-14: 1</title></circle>
	<circle cx="265.24" cy="370.60" data-y="1.00" data-x="1597449600" r="1" fill="white"><title>2020-08-15: 1</title></circle>
	<circle cx="266.85" cy="369.49" data-y="1.25" data-x="1597536000" r="1" fill="white"><title>2020-08-16: 1</title></circle>
	<circle cx="268.46" cy="370.60" data-y="1.00" data-x="1597622400" r="1" fill="white"><title>2020-08-17: 1</title></circle>
	<circle cx="270.07" cy="371.70" data-y="0.75" data-x="1597708800" r="1" fill="white"><title>2020-08-18: 1</title></circle>
	<circle cx="271.68" cy="371.70" data-y="0.75" data-x="1597795200" r="1" fill="white"><title>2020-08-19: 1</title></circle>
	<circle cx="273.30" cy="371.70" data-y="0.75" data-x="1597881600" r="1" fill="white"><title>2020-08-20: 1</title></circle>
	<circle cx="274.91" cy="371.70" data-y="0.75" data-x="1597968000" r="1" fill="white"><title>2020-08-21: 1</title></circle>
	<circle cx="276.52" cy="372.25" data-y="0.62" data-x="1598054400" r="1" fill="white"><title>2020-08-22: 1</title></circle>
	<circle cx="278.13" cy="372.80" data-y="0.50" data-x="1598140800" r="1" fill="white"><title>2020-08-23: 0</title></circle>
	<circle cx="279.75" cy="372.25" data-y="0.62" data-x="1598227200" r="1" fill="white"><title>2020-08-24: 1</title></circle>
	<circle cx="281.36" cy="372.80" data-y="0.50" data-x="1598313600" r="1" fill="white"><title>2020-08-25: 0</title></circle>
	<circle cx="282.97" cy="371.70" data-y="0.75" data-x="1598400000" r="1" fill="white"><title>2020-08-26: 1</title></circle>
	<circle cx="284.58" cy="370.60" data-y="1.00" data-x="1598486400" r="1" fill="white"><title>2020-08-27: 1</title></circle>
	<circle cx="286.20" cy="370.05" data-y="1.12" data-x="1598572800" r="1" fill="white"><title>2020-08-28: 1</title></circle>
	<circle cx="287.81" cy="366.19" data-y="2.00" data-x="1598659200" r="1" fill="white"><title>2020-08-29: 2</title></circle>
	<circle cx="289.42" cy="362.89" data-y="2.75" data-x="1598745600" r="1" fill="white"><title>2020-08-30: 3</title></circle>
	<circle cx="291.03" cy="361.24" data-y="3.12" data-x="1598832000" r="1" fill="white"><title>2020-08-31: 3</title></circle>
	<circle cx="292.64" cy="355.18" data-y="4.49" data-x="1598918400" r="1" fill="white"><title>2020-09-01: 4</title></circle>
	<circle cx="294.26" cy="351.88" data-y="5.24" data-x="1599004800" r="1" fill="white"><title>2020-09-02: 5</title></circle>
	<circle cx="295.87" cy="350.78" data-y="5.49" data-x="1599091200" r="1" fill="white"><title>2020-09-03: 5</title></circle>
	<circle cx="297.48" cy="345.82" data-y="6.61" data-x="1599177600" r="1" fill="white"><title>2020-09-04: 7</title></circle>
	<circle cx="299.09" cy="347.47" data-y="6.24" data-x="1599264000" r="1" fill="white"><title>2020-09-05: 6</title></circle>
	<circle cx="300.71" cy="348.02" data-y="6.11" data-x="1599350400" r="1" fill="white"><title>2020-09-06: 6</title></circle>
	<circle cx="302.32" cy="345.27" data-y="6.74" data-x="1599436800" r="1" fill="white"><title>2020-09-07: 7</title></circle>
	<circle cx="303.93" cy="350.23" data-y="5.62" data-x="1599523200" r="1" fill="white"><title>2020-09-08: 6</title></circle>
	<circle cx="305.54" cy="352.43" data-y="5.12" data-x="1599609600" r="1" fill="white"><title>2020-09-09: 5</title></circle>
	<circle cx="307.16" cy="351.88" data-y="5.24" data-x="1599696000" r="1" fill="white"><title>2020-09-10: 5</title></circle>
	<circle cx="308.77" cy="351.33" data-y="5.37" data-x="1599782400" r="1" fill="white"><title>2020-09-11: 5</title></circle>
	<circle cx="310.38" cy="346.37" data-y="6.49" data-x="1599868800" r="1" fill="white"><title>2020-09-12: 6</title></circle>
	<circle cx="311.99" cy="343.07" data-y="7.24" data-x="1599955200" r="1" fill="white"><title>2020-09-13: 7</title></circle>
	<circle cx="313.61" cy="339.77" data-y="7.99" data-x="1600041600" r="1" fill="white"><title>2020-09-14: 8</title></circle>
	<circle cx="315.22" cy="337.01" data-y="8.61" data-x="1600128000" r="1" fill="white"><title>2020-09-15: 9</title></circle>
	<circle cx="316.83" cy="332.06" data-y="9.73" data-x="1600214400" r="1" fill="white"><title>2020-09-16: 10</title></circle>
	<circle cx="318.44" cy="324.90" data-y="11.36" data-x="1600300800" r="1" fill="white"><title>2020-09-17: 11</title></circle>
	<circle cx="320.05" cy="329.31" data-y="10.36" data-x="1600387200" r="1" fill="white"><title>2020-09-18: 10</title></circle>
	<circle cx="321.67" cy="321.60" data-y="12.10" data-x="1600473600" r="1" fill="white"><title>2020-09-19: 12</title></circle>
	<circle cx="323.28" cy="314.44" data-y="13.73" data-x="1600560000" r="1" fill="white"><title>2020-09-20: 14</title></circle>
	<circle cx="324.89" cy="309.49" data-y="14.85" data-x="1600646400" r="1" fill="white"><title>2020-09-21: 15</title></circle>
	<circle cx="326.50" cy="297.93" data-y="17.47" data-x="1600732800" r="1" fill="white"><title>2020-09-22: 17</title></circle>
	<circle cx="328.12" cy="291.32" data-y="18.97" data-x="1600819200" r="1" fill="white"><title>2020-09-23: 19</title></circle>
	<circle cx="329.73" cy="285.81" data-y="20.22" data-x="1600905600" r="1" fill="white"><title>2020-09-24: 20</title></circle>
	<circle cx="331.34" cy="272.60" data-y="23.21" data-x="1600992000" r="1" fill="white"><title>2020-09-25: 23</title></circle>
	<circle cx="332.95" cy="266.55" data-y="24.58" data-x="1601078400" r="1" fill="white"><title>2020-09-26: 25</title></circle>
	<circle cx="334.57" cy="259.94" data-y="26.08" data-x="1601164800" r="1" fill="white"><title>2020-09-27: 26</title></circle>
	<circle cx="336.18" cy="246.18" data-y="29.20" data-x="1601251200" r="1" fill="white"><title>2020-09-28: 29</title></circle>
	<circle cx="337.79" cy="224.71" data-y="34.07" data-x="1601337600" r="1" fill="white"><title>2020-09-29: 34</title></circle>
	<circle cx="339.40" cy="207.09" data-y="38.06" data-x="1601424000" r="1" fill="white"><title>2020-09-30: 38</title></circle>
	<circle cx="341.01" cy="191.67" data-y="41.55" data-x="1601510400" r="1" fill="white"><title>2020-10-01: 42</title></circle>
	<circle cx="342.63" cy="153.69" data-y="50.17" data-x="1601596800" r="1" fill="white"><title>2020-10-02: 50</title></circle>
	<circle cx="344.24" cy="130.02" data-y="55.53" data-x="1601683200" r="1" fill="white"><title>2020-10-03: 56</title></circle>
	<circle cx="345.85" cy="110.75" data-y="59.90" data-x="1601769600" r="1" fill="white"><title>2020-10-04: 60</title></circle>
	<circle cx="347.46" cy="79.92" data-y="66.89" data-x="1601856000" r="1" fill="white"><title>2020-10-05: 67</title></circle>
	<circle cx="349.08" cy="68.91" data-y="69.38" data-x="1601942400" r="1" fill="white"><title>2020-10-06: 69</title></circle>
	<circle cx="350.69" cy="64.50" data-y="70.38" data-x="1602028800" r="1" fill="white"><title>2020-10-07: 70</title></circle>
	<circle cx="352.30" cy="46.33" data-y="74.50" data-x="1602115200" r="1" fill="white"><title>2020-10-08: 74</title></circle>
	<circle cx="353.91" cy="22.66" data-y="79.86" data-x="1602201600" r="1" fill="white"><title>2020-10-09: 80</title></circle>
	<circle cx="355.53" cy="15.51" data-y="81.49" data-x="1602288000" r="1" fill="white"><title>2020-10-10: 81</title></circle>
	<circle cx="357.14" cy="10.00" data-y="82.74" data-x="1602374400" r="1" fill="white"><title>2020-10-11: 83</title></circle>
	<circle cx="358.75" cy="28.17" data-y="78.62" data-x="1602460800" r="1" fill="white"><title>2020-10-12: 79</title></circle>
	<circle cx="360.36" cy="37.53" data-y="76.50" data-x="1602547200" r="1" fill="white"><title>2020-10-13: 76</title></circle>
	<circle cx="361.97" cy="28.17" data-y="78.62" data-x="1602633600" r="1" fill="white"><title>2020-10-14: 79</title></circle>
	<circle cx="363.59" cy="46.89" data-y="74.37" data-x="1602720000" r="1" fill="white"><title>2020-10-15: 74</title></circle>
	<circle cx="365.20" cy="56.24" data-y="72.25" data-x="1602806400" r="1" fill="white"><title>2020-10-16: 72</title></circle>
	<circle cx="366.81" cy="68.36" data-y="69.51" data-x="1602892800" r="1" fill="white"><title>2020-10-17: 70</title></circle>
	<circle cx="368.42" cy="59.55" data-y="71.50" data-x="1602979200" r="1" fill="white"><title>2020-10-18: 72</title></circle>
	<circle cx="370.04" cy="48.54" data-y="74.00" data-x="1603065600" r="1" fill="white"><title>2020-10-19: 74</title></circle>
	<circle cx="371.65" cy="45.23" data-y="74.75" data-x="1603152000" r="1" fill="white"><title>2020-10-20: 75</title></circle>
	<circle cx="373.26" cy="62.85" data-y="70.76" data-x="1603238400" r="1" fill="white"><title>2020-10-21: 71</title></circle>
	<circle cx="374.87" cy="66.15" data-y="70.01" data-x="1603324800" r="1" fill="white"><title>2020-10-22: 70</title></circle>
	<circle cx="376.49" cy="83.22" data-y="66.14" data-x="1603411200" r="1" fill="white"><title>2020-10-23: 66</title></circle>
	<circle cx="378.10" cy="88.73" data-y="64.89" data-x="1603497600" r="1" fill="white"><title>2020-10-24: 65</title></circle>
	<circle cx="379.71" cy="115.15" data-y="58.90" data-x="1603584000" r="1" fill="white"><title>2020-10-25: 59</title></circle>
	<circle cx="381.32" cy="128.91" data-y="55.78" data-x="1603670400" r="1" fill="white"><title>2020-10-26: 56</title></circle>
	<circle cx="382.93" cy="136.62" data-y="54.03" data-x="1603756800" r="1" fill="white"><title>2020-10-27: 54</title></circle>
	<circle cx="384.55" cy="143.78" data-y="52.41" data-x="1603843200" r="1" fill="white"><title>2020-10-28: 52</title></circle>
	<circle cx="386.16" cy="142.13" data-y="52.79" data-x="1603929600" r="1" fill="white"><title>2020-10-29: 53</title></circle>
	<circle cx="387.77" cy="156.99" data-y="49.42" data-x="1604016000" r="1" fill="white"><title>2020-10-30: 49</title></circle>
	<circle cx="389.38" cy="161.40" data-y="48.42" data-x="1604102400" r="1" fill="white"><title>2020-10-31: 48</title></circle>
	<circle cx="391.00" cy="159.19" data-y="48.92" data-x="1604188800" r="1" fill="white"><title>2020-11-01: 49</title></circle>
	<circle cx="392.61" cy="173.51" data-y="45.67" data-x="1604275200" r="1" fill="white"><title>2020-11-02: 46</title></circle>
	<circle cx="394.22" cy="183.97" data-y="43.30" data-x="1604361600" r="1" fill="white"><title>2020-11-03: 43</title></circle>
	<circle cx="395.83" cy="181.21" data-y="43.93" data-x="1604448000" r="1" fill="white"><title>2020-11-04: 44</title></circle>
	<circle cx="397.45" cy="182.32" data-y="43.68" data-x="1604534400" r="1" fill="white"><title>2020-11-05: 44</title></circle>
	<circle cx="399.06" cy="184.52" data-y="43.18" data-x="1604620800" r="1" fill="white"><title>2020-11-06: 43</title></circle>
	<circle cx="400.67" cy="191.12" data-y="41.68" data-x="1604707200" r="1" fill="white"><title>2020-11-07: 42</title></circle>
	<circle cx="402.28" cy="194.98" data-y="40.81" data-x="1604793600" r="1" fill="white"><title>2020-11-08: 41</title></circle>
	<circle cx="403.89" cy="193.33" data-y="41.18" data-x="1604880000" r="1" fill="white"><title>2020-11-09: 41</title></circle>
	<circle cx="405.51" cy="194.43" data-y="40.93" data-x="1604966400" r="1" fill="white"><title>2020-11-10: 41</title></circle>
	<circle cx="407.12" cy="197.18" data-y="40.31" data-x="1605052800" r="1" fill="white"><title>2020-11-11: 40</title></circle>
	<circle cx="408.73" cy="210.39" data-y="37.31" data-x="1605139200" r="1" fill="white"><title>2020-11-12: 37</title></circle>
	<circle cx="410.34" cy="214.25" data-y="36.44" data-x="1605225600" r="1" fill="white"><title>2020-11-13: 36</title></circle>
	<circle cx="411.96" cy="218.65" data-y="35.44" data-x="1605312000" r="1" fill="white"><title>2020-11-14: 35</title></circle>
	<circle cx="413.57" cy="225.81" data-y="33.82" data-x="1605398400" r="1" fill="white"><title>2020-11-15: 34</title></circle>
	<circle cx="415.18" cy="234.62" data-y="31.82" data-x="1605484800" r="1" fill="white"><title>2020-11-16: 32</title></circle>
	<circle cx="416.79" cy="247.28" data-y="28.95" data-x="1605571200" r="1" fill="white"><title>2020-11-17: 29</title></circle>
	<circle cx="418.41" cy="259.94" data-y="26.08" data-x="1605657600" r="1" fill="white"><title>2020-11-18: 26</title></circle>
	<circle cx="420.02" cy="263.24" data-y="25.33" data-x="1605744000" r="1" fill="white"><title>2020-11-19: 25</title></circle>
	<circle cx="421.63" cy="278.66" data-y="21.84" data-x="1605830400" r="1" fill="white"><title>2020-11-20: 22</title></circle>
	<circle cx="423.24" cy="287.47" data-y="19.84" data-x="1605916800" r="1" fill="white"><title>2020-11-21: 20</title></circle>
	<circle cx="424.86" cy="295.72" data-y="17.97" data-x="1606003200" r="1" fill="white"><title>2020-11-22: 18</title></circle>
	<circle cx="426.47" cy="302.88" data-y="16.35" data-x="1606089600" r="1" fill="white"><title>2020-11-23: 16</title></circle>
	<circle cx="428.08" cy="304.53" data-y="15.97" data-x="1606176000" r="1" fill="white"><title>2020-11-24: 16</title></circle>
	<circle cx="429.69" cy="300.68" data-y="16.85" data-x="1606262400" r="1" fill="white"><title>2020-11-25: 17</title></circle>
	<circle cx="431.30" cy="303.43" data-y="16.22" data-x="1606348800" r="1" fill="white"><title>2020-11-26: 16</title></circle>
	<circle cx="432.92" cy="305.08" data-y="15.85" data-x="1606435200" r="1" fill="white"><title>2020-11-27: 16</title></circle>
	<circle cx="434.53" cy="306.73" data-y="15.47" data-x="1606521600" r="1" fill="white"><title>2020-11-28: 15</title></circle>
	<circle cx="436.14" cy="299.58" data-y="17.10" data-x="1606608000" r="1" fill="white"><title>2020-11-29: 17</title></circle>
	<circle cx="437.75" cy="296.83" data-y="17.72" data-x="1606694400" r="1" fill="white"><title>2020-11-30: 18</title></circle>
	<circle cx="439.37" cy="294.62" data-y="18.22" data-x="1606780800" r="1" fill="white"><title>2020-12-01: 18</title></circle>
	<circle cx="440.98" cy="299.58" data-y="17.10" data-x="1606867200" r="1" fill="white"><title>2020-12-02: 17</title></circle>
	<circle cx="442.59" cy="302.88" data-y="16.35" data-x="1606953600" r="1" fill="white"><title>2020-12-03: 16</title></circle>
	<circle cx="444.20" cy="299.03" data-y="17.22" data-x="1607040000" r="1" fill="white"><title>2020-12-04: 17</title></circle>
	<circle cx="445.82" cy="286.92" data-y="19.97" data-x="1607126400" r="1" fill="white"><title>2020-12-05: 20</title></circle>
	<circle cx="447.43" cy="285.26" data-y="20.34" data-x="1607212800" r="1" fill="white"><title>2020-12-06: 20</title></circle>
	<circle cx="449.04" cy="276.46" data-y="22.34" data-x="1607299200" r="1" fill="white"><title>2020-12-07: 22</title></circle>
	<circle cx="450.65" cy="274.80" data-y="22.71" data-x="1607385600" r="1" fill="white"><title>2020-12-08: 23</title></circle>
	<circle cx="452.26" cy="258.84" data-y="26.33" data-x="1607472000" r="1" fill="white"><title>2020-12-09: 26</title></circle>
	<circle cx="453.88" cy="257.19" data-y="26.70" data-x="1607558400" r="1" fill="white"><title>2020-12-10: 27</title></circle>
	<circle cx="455.49" cy="255.54" data-y="27.08" data-x="1607644800" r="1" fill="white"><title>2020-12-11: 27</title></circle>
	<circle cx="457.10" cy="262.14" data-y="25.58" data-x="1607731200" r="1" fill="white"><title>2020-12-12: 26</title></circle>
	<circle cx="458.71" cy="270.95" data-y="23.59" data-x="1607817600" r="1" fill="white"><title>2020-12-13: 24</title></circle>
	<circle cx="460.33" cy="278.11" data-y="21.96" data-x="1607904000" r="1" fill="white"><title>2020-12-14: 22</title></circle>
	<circle cx="461.94" cy="276.46" data-y="22.34" data-x="1607990400" r="1" fill="white"><title>2020-12-15: 22</title></circle>
</g>
<g data-series="recent-cases" class="data-series">
	<path d="M 461.94,276.46L 463.55,291.32L 465.16,297.38L 466.78,305.63L 468.39,311.80L 470.00,314.30" id="Recent cases" class="line" stroke-width="1" stroke-linecap="round" stroke-dasharray="4,6" stroke-dashoffset="4"><title>Recent cases</title></path>
	<circle cx="461.94" cy="276.46" data-y="22.34" data-x="1607990400" r="2.5" fill="white"><title>2020-12-15: 22</title></circle>
	<circle cx="463.55" cy="291.32" data-y="18.97" data-x="1608076800" r="2.5" fill="white"><title>2020-12-16: 19</title></circle>
	<circle cx="465.16" cy="297.38" data-y="17.60" data-x="1608163200" r="2.5" fill="white"><title>2020-12-17: 18</title></circle>
	<circle cx="466.78" cy="305.63" data-y="15.72" data-x="1608249600" r="2.5" fill="white"><title>2020-12-18: 16</title></circle>
	<circle cx="468.39" cy="311.80" data-y="14.33" data-x="1608336000" r="2.5" fill="white"><title>2020-12-19: 14</title></circle>
	<circle cx="470.00" cy="314.30" data-y="13.76" data-x="1608422400" r="2.5" fill="white"><title>2020-12-20: 14</title></circle>
</g>
</svg>
