<svg width="480" height="400" viewBox="0 0 480 400" xmlns="http://www.w3.org/2000/svg" style="overflow:display" preserveAspectRatio="xMinYMin meet" overflow="visible">
<defs>
	<style>
	.data-series path.line { fill-opacity: 0; stroke: black; }
	.data-series path.line.dotted { stroke-dasharray: 12 20 }
	.data-series:hover path.line, .data-series.on path.line { stroke-width: 1; }
	.data-series:hover circle, .data-series.on circle { display: inline; }
	.graph-grid { font-family: "Helvetica Neue",Helvetica,Arial,"Lucida Grande",sans-serif; }
	.graph-grid line { stroke: black; stroke-width: 1; stroke-linecap: round; }
	.graph-grid.graph-grid-x text { text-anchor: middle; dominant-baseline: hanging; transform: translateY(10px); }
	.graph-grid.graph-grid-y text { text-anchor: end; dominant-baseline: middle; transform: translateX(-10px); }
	</style>
</defs>
<g class="graph-grid graph-grid-y">
	<line x1="25.00" y1="375.00" x2="470.00" y2="375.00" data-left="25"></line>
	<text x="35" y="375" text-anchor="end">0</text>
	<text x="35" y="250.86231300813" text-anchor="end">20</text>
	<text x="35" y="126.72462601626" text-anchor="end">40</text>
	<text x="35" y="2.58693902439027" text-anchor="end">60</text>
	<text style="text-anchor:middle;dominant-baseline:hanging;font-weight:bold;transform: translateY(192.5px) rotate(-90deg);"></text>
</g>
<g class="graph-grid graph-grid-x">
	<line class="tick" x1="63.02" y1="375.00" x2="63.02" y2="380.00"></line>
	<text x="63.0221518987342" y="375" text-anchor="middle">A</text>
	<line class="tick" x1="105.27" y1="375.00" x2="105.27" y2="380.00"></line>
	<text x="105.268987341772" y="375" text-anchor="middle">M</text>
	<line class="tick" x1="148.92" y1="375.00" x2="148.92" y2="380.00"></line>
	<text x="148.924050632911" y="375" text-anchor="middle">J</text>
	<line class="tick" x1="191.17" y1="375.00" x2="191.17" y2="380.00"></line>
	<text x="191.170886075949" y="375" text-anchor="middle">J</text>
	<line class="tick" x1="234.83" y1="375.00" x2="234.83" y2="380.00"></line>
	<text x="234.825949367089" y="375" text-anchor="middle">A</text>
	<line class="tick" x1="278.48" y1="375.00" x2="278.48" y2="380.00"></line>
	<text x="278.481012658228" y="375" text-anchor="middle">S</text>
	<line class="tick" x1="320.73" y1="375.00" x2="320.73" y2="380.00"></line>
	<text x="320.727848101266" y="375" text-anchor="middle">O</text>
	<line class="tick" x1="364.38" y1="375.00" x2="364.38" y2="380.00"></line>
	<text x="364.382911392405" y="375" text-anchor="middle">N</text>
	<line class="tick" x1="406.63" y1="375.00" x2="406.63" y2="380.00"></line>
	<text x="406.629746835443" y="375" text-anchor="middle">D</text>
	<line class="tick" x1="450.28" y1="375.00" x2="450.28" y2="380.00"></line>
	<text x="450.284810126582" y="375" text-anchor="middle">J</text>
	<text style="text-anchor:middle;dominant-baseline:hanging;font-weight:bold;transform: translateY(192.5px) rotate(-90deg);"></text>
</g>
<g data-series="widespread" class="data-series">
	<path d="M 25.00,331.55L 470.00,331.55" id="E07000118-level-0" class="line" stroke-width="1" stroke-linecap="round" stroke-dasharray="3,3" fill-opacity="0.3" opacity="0.3"><title>Widespread</title></path>
</g>
<g data-series="substantial" class="data-series">
	<path d="M 25.00,350.17L 470.00,350.17" id="E07000118-level-1" class="line" stroke-width="1" stroke-linecap="round" stroke-dasharray="3,3" fill-opacity="0.3" opacity="0.3"><title>Substantial</title></path>
</g>
<g data-series="moderate" class="data-series">
	<path d="M 25.00,368.79L 470.00,368.79" id="E07000118-level-2" class="line" stroke-width="1" stroke-linecap="round" stroke-dasharray="3,3" fill-opacity="0.3" opacity="0.3"><title>Moderate</title></path>
</g>
<g data-series="new-cases" class="data-series">
	<path d="M 25.00,372.40L 26.41,371.88L 27.82,372.40L 29.22,372.77L 30.63,374.26L 32.04,373.52L 33.45,373.52L 34.86,372.77L 36.27,372.77L 37.67,372.77L 39.08,372.03L 40.49,371.29L 41.90,370.55L 43.31,369.81L 44.72,370.55L 46.12,368.32L 47.53,366.84L 48.94,363.87L 50.35,363.13L 51.76,360.16L 53.16,360.90L 54.57,358.68L 55.98,356.45L 57.39,352.00L 58.80,352.00L 60.21,347.55L 61.61,345.33L 63.02,337.91L 64.43,334.20L 65.84,331.97L 67.25,331.23L 68.66,331.23L 70.06,330.49L 71.47,331.23L 72.88,331.97L 74.29,333.46L 75.70,331.97L 77.10,330.49L 78.51,322.33L 79.92,316.39L 81.33,314.91L 82.74,306.75L 84.15,301.55L 85.55,305.26L 86.96,308.97L 88.37,305.26L 89.78,312.68L 91.19,311.94L 92.59,319.36L 94.00,325.29L 95.41,319.36L 96.82,317.13L 98.23,328.26L 99.64,324.55L 101.04,326.78L 102.45,330.49L 103.86,324.55L 105.27,331.97L 106.68,328.26L 108.09,330.49L 109.49,332.71L 110.90,333.46L 112.31,333.46L 113.72,335.68L 115.13,331.97L 116.53,334.20L 117.94,329.00L 119.35,329.00L 120.76,329.75L 122.17,329.75L 123.58,331.23L 124.98,334.20L 126.39,329.00L 127.80,332.71L 129.21,335.68L 130.62,336.42L 132.03,335.68L 133.43,339.39L 134.84,342.36L 136.25,349.78L 137.66,346.81L 139.07,342.36L 140.47,338.65L 141.88,339.39L 143.29,337.16L 144.70,334.94L 146.11,335.68L 147.52,337.91L 148.92,343.84L 150.33,347.55L 151.74,347.55L 153.15,349.78L 154.56,352.00L 155.97,354.97L 157.37,356.45L 158.78,354.23L 160.19,355.71L 161.60,357.20L 163.01,357.94L 164.41,359.42L 165.82,360.16L 167.23,358.68L 168.64,360.90L 170.05,362.39L 171.46,364.61L 172.86,364.61L 174.27,363.13L 175.68,364.61L 177.09,368.32L 178.50,369.81L 179.91,369.81L 181.31,369.81L 182.72,370.55L 184.13,372.03L 185.54,372.03L 186.95,372.77L 188.35,372.03L 189.76,372.77L 191.17,372.77L 192.58,373.52L 193.99,373.52L 195.40,373.52L 196.80,372.77L 198.21,374.26L 199.62,374.26L 201.03,373.52L 202.44,373.52L 203.84,372.77L 205.25,372.77L 206.66,373.52L 208.07,373.52L 209.48,372.77L 210.89,373.52L 212.29,373.52L 213.70,372.77L 215.11,372.03L 216.52,371.29L 217.93,371.29L 219.34,371.29L 220.74,371.29L 222.15,370.55L 223.56,372.03L 224.97,372.77L 226.38,372.03L 227.78,372.03L 229.19,369.81L 230.60,369.07L 232.01,369.81L 233.42,368.32L 234.83,366.84L 236.23,368.32L 237.64,364.61L 239.05,364.61L 240.46,365.36L 241.87,365.36L 243.28,366.84L 244.68,366.84L 246.09,366.10L 247.50,368.32L 248.91,368.32L 250.32,366.84L 251.72,366.84L 253.13,366.10L 254.54,363.87L 255.95,362.39L 257.36,363.13L 258.77,366.10L 260.17,367.58L 261.58,366.84L 262.99,367.58L 264.40,369.81L 265.81,370.55L 267.22,369.81L 268.62,368.32L 270.03,367.58L 271.44,368.32L 272.85,367.58L 274.26,366.10L 275.66,363.87L 277.07,363.87L 278.48,362.39L 279.89,360.90L 281.30,359.42L 282.71,351.26L 284.11,352.00L 285.52,346.81L 286.93,345.33L 288.34,344.58L 289.75,339.39L 291.16,334.94L 292.56,337.91L 293.97,334.94L 295.38,336.42L 296.79,333.46L 298.20,335.68L 299.60,331.97L 301.01,320.84L 302.42,318.62L 303.83,311.94L 305.24,304.52L 306.65,297.10L 308.05,288.94L 309.46,288.94L 310.87,295.62L 312.28,291.17L 313.69,291.91L 315.09,291.91L 316.50,283.01L 317.91,274.85L 319.32,265.20L 320.73,248.14L 322.14,229.59L 323.54,203.63L 324.95,192.50L 326.36,182.86L 327.77,162.83L 329.18,158.37L 330.59,164.31L 331.99,153.92L 333.40,159.12L 334.81,162.83L 336.22,150.96L 337.63,160.60L 339.03,152.44L 340.44,128.70L 341.85,104.22L 343.26,73.06L 344.67,35.97L 346.08,29.29L 347.48,10.00L 348.89,18.90L 350.30,39.67L 351.71,50.06L 353.12,52.29L 354.53,76.77L 355.93,81.96L 357.34,101.25L 358.75,98.28L 360.16,94.57L 361.57,93.83L 362.97,117.57L 364.38,115.35L 365.79,125.73L 367.20,125.73L 368.61,129.44L 370.02,127.96L 371.42,139.09L 372.83,143.54L 374.24,136.12L 375.65,139.83L 377.06,134.63L 378.47,127.22L 379.87,130.92L 381.28,139.83L 382.69,133.89L 384.10,152.44L 385.51,162.83L 386.91,172.47L 388.32,188.79L 389.73,197.69L 391.14,200.66L 392.55,209.56L 393.96,210.30L 395.36,208.08L 396.77,204.37L 398.18,198.43L 399.59,199.18L 401.00,210.30L 402.41,214.76L 403.81,222.92L 405.22,231.82L 406.63,215.50L 408.04,220.69L 409.45,217.72L 410.85,200.66L 412.26,195.47L 413.67,191.02L 415.08,185.82L 416.49,199.18L 417.90,195.47L 419.30,193.98L 420.71,205.11L 422.12,198.43L 423.53,197.69L 424.94,193.24L 426.34,202.14L 427.75,196.21L 429.16,193.98L 430.57,199.18L 431.98,202.14L 433.39,181.37L 434.79,170.24L 436.20,183.60L 437.61,173.21L 439.02,161.34L 440.43,142.79L 441.84,118.31L 443.24,118.31L 444.65,120.54L 446.06,108.67L 447.47,90.86L 448.88,84.19L 450.28,67.87L 451.69,76.77L 453.10,72.32L 454.51,44.87L 455.92,11.48L 457.33,24.10L 458.73,31.51L 460.14,32.26L 461.55,18.90L 462.96,30.03" id="New cases" class="line" stroke-width="1" stroke-linecap="round"><title>New cases</title></path>
	<circle cx="25.00" cy="372.40" data-y="0.42" data-x="1583366400" r="1" fill="white"><title>2020-03-05: 0</title></circle>
	<circle cx="26.41" cy="371.88" data-y="0.50" data-x="1583452800" r="1" fill="white"><title>2020-03-06: 1</title></circle>
	<circle cx="27.82" cy="372.40" data-y="0.42" data-x="1583539200" r="1" fill="white"><title>2020-03-07: 0</title></circle>
	<circle cx="29.22" cy="372.77" data-y="0.36" data-x="1583625600" r="1" fill="white"><title>2020-03-08: 0</title></circle>
	<circle cx="30.63" cy="374.26" data-y="0.12" data-x="1583712000" r="1" fill="white"><title>2020-03-09: 0</title></circle>
	<circle cx="32.04" cy="373.52" data-y="0.24" data-x="1583798400" r="1" fill="white"><title>2020-03-10: 0</title></circle>
	<circle cx="33.45" cy="373.52" data-y="0.24" data-x="1583884800" r="1" fill="white"><title>2020-03-11: 0</title></circle>
	<circle cx="34.86" cy="372.77" data-y="0.36" data-x="1583971200" r="1" fill="white"><title>2020-03-12: 0</title></circle>
	<circle cx="36.27" cy="372.77" data-y="0.36" data-x="1584057600" r="1" fill="white"><title>2020-03-13: 0</title></circle>
	<circle cx="37.67" cy="372.77" data-y="0.36" data-x="1584144000" r="1" fill="white"><title>2020-03-14: 0</title></circle>
	<circle cx="39.08" cy="372.03" data-y="0.48" data-x="1584230400" r="1" fill="white"><title>2020-03-15: 0</title></circle>
	<circle cx="40.49" cy="371.29" data-y="0.60" data-x="1584316800" r="1" fill="white"><title>2020-03-16: 1</title></circle>
	<circle cx="41.90" cy="370.55" data-y="0.72" data-x="1584403200" r="1" fill="white"><title>2020-03-17: 1</title></circle>
	<circle cx="43.31" cy="369.81" data-y="0.84" data-x="1584489600" r="1" fill="white"><title>2020-03-18: 1</title></circle>
	<circle cx="44.72" cy="370.55" data-y="0.72" data-x="1584576000" r="1" fill="white"><title>2020-03-19: 1</title></circle>
	<circle cx="46.12" cy="368.32" data-y="1.08" data-x="1584662400" r="1" fill="white"><title>2020-03-20: 1</title></circle>
	<circle cx="47.53" cy="366.84" data-y="1.31" data-x="1584748800" r="1" fill="white"><title>2020-03-21: 1</title></circle>
	<circle cx="48.94" cy="363.87" data-y="1.79" data-x="1584835200" r="1" fill="white"><title>2020-03-22: 2</title></circle>
	<circle cx="50.35" cy="363.13" data-y="1.91" data-x="1584921600" r="1" fill="white"><title>2020-03-23: 2</title></circle>
	<circle cx="51.76" cy="360.16" data-y="2.39" data-x="1585008000" r="1" fill="white"><title>2020-03-24: 2</title></circle>
	<circle cx="53.16" cy="360.90" data-y="2.27" data-x="1585094400" r="1" fill="white"><title>2020-03-25: 2</title></circle>
	<circle cx="54.57" cy="358.68" data-y="2.63" data-x="1585180800" r="1" fill="white"><title>2020-03-26: 3</title></circle>
	<circle cx="55.98" cy="356.45" data-y="2.99" data-x="1585267200" r="1" fill="white"><title>2020-03-27: 3</title></circle>
	<circle cx="57.39" cy="352.00" data-y="3.71" data-x="1585353600" r="1" fill="white"><title>2020-03-28: 4</title></circle>
	<circle cx="58.80" cy="352.00" data-y="3.71" data-x="1585440000" r="1" fill="white"><title>2020-03-29: 4</title></circle>
	<circle cx="60.21" cy="347.55" data-y="4.42" data-x="1585526400" r="1" fill="white"><title>2020-03-30: 4</title></circle>
	<circle cx="61.61" cy="345.33" data-y="4.78" data-x="1585612800" r="1" fill="white"><title>2020-03-31: 5</title></circle>
	<circle cx="63.02" cy="337.91" data-y="5.98" data-x="1585699200" r="1" fill="white"><title>2020-04-01: 6</title></circle>
	<circle cx="64.43" cy="334.20" data-y="6.57" data-x="1585785600" r="1" fill="white"><title>2020-04-02: 7</title></circle>
	<circle cx="65.84" cy="331.97" data-y="6.93" data-x="1585872000" r="1" fill="white"><title>2020-04-03: 7</title></circle>
	<circle cx="67.25" cy="331.23" data-y="7.05" data-x="1585958400" r="1" fill="white"><title>2020-04-04: 7</title></circle>
	<circle cx="68.66" cy="331.23" data-y="7.05" data-x="1586044800" r="1" fill="white"><title>2020-04-05: 7</title></circle>
	<circle cx="70.06" cy="330.49" data-y="7.17" data-x="1586131200" r="1" fill="white"><title>2020-04-06: 7</title></circle>
	<circle cx="71.47" cy="331.23" data-y="7.05" data-x="1586217600" r="1" fill="white"><title>2020-04-07: 7</title></circle>
	<circle cx="72.88" cy="331.97" data-y="6.93" data-x="1586304000" r="1" fill="white"><title>2020-04-08: 7</title></circle>
	<circle cx="74.29" cy="333.46" data-y="6.69" data-x="1586390400" r="1" fill="white"><title>2020-04-09: 7</title></circle>
	<circle cx="75.70" cy="331.97" data-y="6.93" data-x="1586476800" r="1" fill="white"><title>2020-04-10: 7</title></circle>
	<circle cx="77.10" cy="330.49" data-y="7.17" data-x="1586563200" r="1" fill="white"><title>2020-04-11: 7</title></circle>
	<circle cx="78.51" cy="322.33" data-y="8.49" data-x="1586649600" r="1" fill="white"><title>2020-04-12: 8</title></circle>
	<circle cx="79.92" cy="316.39" data-y="9.44" data-x="1586736000" r="1" fill="white"><title>2020-04-13: 9</title></circle>
	<circle cx="81.33" cy="314.91" data-y="9.68" data-x="1586822400" r="1" fill="white"><title>2020-04-14: 10</title></circle>
	<circle cx="82.74" cy="306.75" data-y="11.00" data-x="1586908800" r="1" fill="white"><title>2020-04-15: 11</title></circle>
	<circle cx="84.15" cy="301.55" data-y="11.83" data-x="1586995200" r="1" fill="white"><title>2020-04-16: 12</title></circle>
	<circle cx="85.55" cy="305.26" data-y="11.24" data-x="1587081600" r="1" fill="white"><title>2020-04-17: 11</title></circle>
	<circle cx="86.96" cy="308.97" data-y="10.64" data-x="1587168000" r="1" fill="white"><title>2020-04-18: 11</title></circle>
	<circle cx="88.37" cy="305.26" data-y="11.24" data-x="1587254400" r="1" fill="white"><title>2020-04-19: 11</title></circle>
	<circle cx="89.78" cy="312.68" data-y="10.04" data-x="1587340800" r="1" fill="white"><title>2020-04-20: 10</title></circle>
	<circle cx="91.19" cy="311.94" data-y="10.16" data-x="1587427200" r="1" fill="white"><title>2020-04-21: 10</title></circle>
	<circle cx="92.59" cy="319.36" data-y="8.96" data-x="1587513600" r="1" fill="white"><title>2020-04-22: 9</title></circle>
	<circle cx="94.00" cy="325.29" data-y="8.01" data-x="1587600000" r="1" fill="white"><title>2020-04-23: 8</title></circle>
	<circle cx="95.41" cy="319.36" data-y="8.96" data-x="1587686400" r="1" fill="white"><title>2020-04-24: 9</title></circle>
	<circle cx="96.82" cy="317.13" data-y="9.32" data-x="1587772800" r="1" fill="white"><title>2020-04-25: 9</title></circle>
	<circle cx="98.23" cy="328.26" data-y="7.53" data-x="1587859200" r="1" fill="white"><title>2020-04-26: 8</title></circle>
	<circle cx="99.64" cy="324.55" data-y="8.13" data-x="1587945600" r="1" fill="white"><title>2020-04-27: 8</title></circle>
	<circle cx="101.04" cy="326.78" data-y="7.77" data-x="1588032000" r="1" fill="white"><title>2020-04-28: 8</title></circle>
	<circle cx="102.45" cy="330.49" data-y="7.17" data-x="1588118400" r="1" fill="white"><title>2020-04-29: 7</title></circle>
	<circle cx="103.86" cy="324.55" data-y="8.13" data-x="1588204800" r="1" fill="white"><title>2020-04-30: 8</title></circle>
	<circle cx="105.27" cy="331.97" data-y="6.93" data-x="1588291200" r="1" fill="white"><title>2020-05-01: 7</title></circle>
	<circle cx="106.68" cy="328.26" data-y="7.53" data-x="1588377600" r="1" fill="white"><title>2020-05-02: 8</title></circle>
	<circle cx="108.09" cy="330.49" data-y="7.17" data-x="1588464000" r="1" fill="white"><title>2020-05-03: 7</title></circle>
	<circle cx="109.49" cy="332.71" data-y="6.81" data-x="1588550400" r="1" fill="white"><title>2020-05-04: 7</title></circle>
	<circle cx="110.90" cy="333.46" data-y="6.69" data-x="1588636800" r="1" fill="white"><title>2020-05-05: 7</title></circle>
	<circle cx="112.31" cy="333.46" data-y="6.69" data-x="1588723200" r="1" fill="white"><title>2020-05-06: 7</title></circle>
	<circle cx="113.72" cy="335.68" data-y="6.33" data-x="1588809600" r="1" fill="white"><title>2020-05-07: 6</title></circle>
	<circle cx="115.13" cy="331.97" data-y="6.93" data-x="1588896000" r="1" fill="white"><title>2020-05-08: 7</title></circle>
	<circle cx="116.53" cy="334.20" data-y="6.57" data-x="1588982400" r="1" fill="white"><title>2020-05-09: 7</title></circle>
	<circle cx="117.94" cy="329.00" data-y="7.41" data-x="1589068800" r="1" fill="white"><title>2020-05-10: 7</title></circle>
	<circle cx="119.35" cy="329.00" data-y="7.41" data-x="1589155200" r="1" fill="white"><title>2020-05-11: 7</title></circle>
	<circle cx="120.76" cy="329.75" data-y="7.29" data-x="1589241600" r="1" fill="white"><title>2020-05-12: 7</title></circle>
	<circle cx="122.17" cy="329.75" data-y="7.29" data-x="1589328000" r="1" fill="white"><title>2020-05-13: 7</title></circle>
	<circle cx="123.58" cy="331.23" data-y="7.05" data-x="1589414400" r="1" fill="white"><title>2020-05-14: 7</title></circle>
	<circle cx="124.98" cy="334.20" data-y="6.57" data-x="1589500800" r="1" fill="white"><title>2020-05-15: 7</title></circle>
	<circle cx="126.39" cy="329.00" data-y="7.41" data-x="1589587200" r="1" fill="white"><title>2020-05-16: 7</title></circle>
	<circle cx="127.80" cy="332.71" data-y="6.81" data-x="1589673600" r="1" fill="white"><title>2020-05-17: 7</title></circle>
	<circle cx="129.21" cy="335.68" data-y="6.33" data-x="1589760000" r="1" fill="white"><title>2020-05-18: 6</title></circle>
	<circle cx="130.62" cy="336.42" data-y="6.22" data-x="1589846400" r="1" fill="white"><title>2020-05-19: 6</title></circle>
	<circle cx="132.03" cy="335.68" data-y="6.33" data-x="1589932800" r="1" fill="white"><title>2020-05-20: 6</title></circle>
	<circle cx="133.43" cy="339.39" data-y="5.74" data-x="1590019200" r="1" fill="white"><title>2020-05-21: 6</title></circle>
	<circle cx="134.84" cy="342.36" data-y="5.26" data-x="1590105600" r="1" fill="white"><title>2020-05-22: 5</title></circle>
	<circle cx="136.25" cy="349.78" data-y="4.06" data-x="1590192000" r="1" fill="white"><title>2020-05-23: 4</title></circle>
	<circle cx="137.66" cy="346.81" data-y="4.54" data-x="1590278400" r="1" fill="white"><title>2020-05-24: 5</title></circle>
	<circle cx="139.07" cy="342.36" data-y="5.26" data-x="1590364800" r="1" fill="white"><title>2020-05-25: 5</title></circle>
	<circle cx="140.47" cy="338.65" data-y="5.86" data-x="1590451200" r="1" fill="white"><title>2020-05-26: 6</title></circle>
	<circle cx="141.88" cy="339.39" data-y="5.74" data-x="1590537600" r="1" fill="white"><title>2020-05-27: 6</title></circle>
	<circle cx="143.29" cy="337.16" data-y="6.10" data-x="1590624000" r="1" fill="white"><title>2020-05-28: 6</title></circle>
	<circle cx="144.70" cy="334.94" data-y="6.45" data-x="1590710400" r="1" fill="white"><title>2020-05-29: 6</title></circle>
	<circle cx="146.11" cy="335.68" data-y="6.33" data-x="1590796800" r="1" fill="white"><title>2020-05-30: 6</title></circle>
	<circle cx="147.52" cy="337.91" data-y="5.98" data-x="1590883200" r="1" fill="white"><title>2020-05-31: 6</title></circle>
	<circle cx="148.92" cy="343.84" data-y="5.02" data-x="1590969600" r="1" fill="white"><title>2020-06-01: 5</title></circle>
	<circle cx="150.33" cy="347.55" data-y="4.42" data-x="1591056000" r="1" fill="white"><title>2020-06-02: 4</title></circle>
	<circle cx="151.74" cy="347.55" data-y="4.42" data-x="1591142400" r="1" fill="white"><title>2020-06-03: 4</title></circle>
	<circle cx="153.15" cy="349.78" data-y="4.06" data-x="1591228800" r="1" fill="white"><title>2020-06-04: 4</title></circle>
	<circle cx="154.56" cy="352.00" data-y="3.71" data-x="1591315200" r="1" fill="white"><title>2020-06-05: 4</title></circle>
	<circle cx="155.97" cy="354.97" data-y="3.23" data-x="1591401600" r="1" fill="white"><title>2020-06-06: 3</title></circle>
	<circle cx="157.37" cy="356.45" data-y="2.99" data-x="1591488000" r="1" fill="white"><title>2020-06-07: 3</title></circle>
	<circle cx="158.78" cy="354.23" data-y="3.35" data-x="1591574400" r="1" fill="white"><title>2020-06-08: 3</title></circle>
	<circle cx="160.19" cy="355.71" data-y="3.11" data-x="1591660800" r="1" fill="white"><title>2020-06-09: 3</title></circle>
	<circle cx="161.60" cy="357.20" data-y="2.87" data-x="1591747200" r="1" fill="white"><title>2020-06-10: 3</title></circle>
	<circle cx="163.01" cy="357.94" data-y="2.75" data-x="1591833600" r="1" fill="white"><title>2020-06-11: 3</title></circle>
	<circle cx="164.41" cy="359.42" data-y="2.51" data-x="1591920000" r="1" fill="white"><title>2020-06-12: 3</title></circle>
	<circle cx="165.82" cy="360.16" data-y="2.39" data-x="1592006400" r="1" fill="white"><title>2020-06-13: 2</title></circle>
	<circle cx="167.23" cy="358.68" data-y="2.63" data-x="1592092800" r="1" fill="white"><title>2020-06-14: 3</title></circle>
	<circle cx="168.64" cy="360.90" data-y="2.27" data-x="1592179200" r="1" fill="white"><title>2020-06-15: 2</title></circle>
	<circle cx="170.05" cy="362.39" data-y="2.03" data-x="1592265600" r="1" fill="white"><title>2020-06-16: 2</title></circle>
	<circle cx="171.46" cy="364.61" data-y="1.67" data-x="1592352000" r="1" fill="white"><title>2020-06-17: 2</title></circle>
	<circle cx="172.86" cy="364.61" data-y="1.67" data-x="1592438400" r="1" fill="white"><title>2020-06-18: 2</title></circle>
	<circle cx="174.27" cy="363.13" data-y="1.91" data-x="1592524800" r="1" fill="white"><title>2020-06-19: 2</title></circle>
	<circle cx="175.68" cy="364.61" data-y="1.67" data-x="1592611200" r="1" fill="white"><title>2020-06-20: 2</title></circle>
	<circle cx="177.09" cy="368.32" data-y="1.08" data-x="1592697600" r="1" fill="white"><title>2020-06-21: 1</title></circle>
	<circle cx="178.50" cy="369.81" data-y="0.84" data-x="1592784000" r="1" fill="white"><title>2020-06-22: 1</title></circle>
	<circle cx="179.91" cy="369.81" data-y="0.84" data-x="1592870400" r="1" fill="white"><title>2020-06-23: 1</title></circle>
	<circle cx="181.31" cy="369.81" data-y="0.84" data-x="1592956800" r="1" fill="white"><title>2020-06-24: 1</title></circle>
	<circle cx="182.72" cy="370.55" data-y="0.72" data-x="1593043200" r="1" fill="white"><title>2020-06-25: 1</title></circle>
	<circle cx="184.13" cy="372.03" data-y="0.48" data-x="1593129600" r="1" fill="white"><title>2020-06-26: 0</title></circle>
	<circle cx="185.54" cy="372.03" data-y="0.48" data-x="1593216000" r="1" fill="white"><title>2020-06-27: 0</title></circle>
	<circle cx="186.95" cy="372.77" data-y="0.36" data-x="1593302400" r="1" fill="white"><title>2020-06-28: 0</title></circle>
	<circle cx="188.35" cy="372.03" data-y="0.48" data-x="1593388800" r="1" fill="white"><title>2020-06-29: 0</title></circle>
	<circle cx="189.76" cy="372.77" data-y="0.36" data-x="1593475200" r="1" fill="white"><title>2020-06-30: 0</title></circle>
	<circle cx="191.17" cy="372.77" data-y="0.36" data-x="1593561600" r="1" fill="white"><title>2020-07-01: 0</title></circle>
	<circle cx="192.58" cy="373.52" data-y="0.24" data-x="1593648000" r="1" fill="white"><title>2020-07-02: 0</title></circle>
	<circle cx="193.99" cy="373.52" data-y="0.24" data-x="1593734400" r="1" fill="white"><title>2020-07-03: 0</title></circle>
	<circle cx="195.40" cy="373.52" data-y="0.24" data-x="1593820800" r="1" fill="white"><title>2020-07-04: 0</title></circle>
	<circle cx="196.80" cy="372.77" data-y="0.36" data-x="1593907200" r="1" fill="white"><title>2020-07-05: 0</title></circle>
	<circle cx="198.21" cy="374.26" data-y="0.12" data-x="1593993600" r="1" fill="white"><title>2020-07-06: 0</title></circle>
	<circle cx="199.62" cy="374.26" data-y="0.12" data-x="1594080000" r="1" fill="white"><title>2020-07-07: 0</title></circle>
	<circle cx="201.03" cy="373.52" data-y="0.24" data-x="1594166400" r="1" fill="white"><title>2020-07-08: 0</title></circle>
	<circle cx="202.44" cy="373.52" data-y="0.24" data-x="1594252800" r="1" fill="white"><title>2020-07-09: 0</title></circle>
	<circle cx="203.84" cy="372.77" data-y="0.36" data-x="1594339200" r="1" fill="white"><title>2020-07-10: 0</title></circle>
	<circle cx="205.25" cy="372.77" data-y="0.36" data-x="1594425600" r="1" fill="white"><title>2020-07-11: 0</title></circle>
	<circle cx="206.66" cy="373.52" data-y="0.24" data-x="1594512000" r="1" fill="white"><title>2020-07-12: 0</title></circle>
	<circle cx="208.07" cy="373.52" data-y="0.24" data-x="1594598400" r="1" fill="white"><title>2020-07-13: 0</title></circle>
	<circle cx="209.48" cy="372.77" data-y="0.36" data-x="1594684800" r="1" fill="white"><title>2020-07-14: 0</title></circle>
	<circle cx="210.89" cy="373.52" data-y="0.24" data-x="1594771200" r="1" fill="white"><title>2020-07-15: 0</title></circle>
	<circle cx="212.29" cy="373.52" data-y="0.24" data-x="1594857600" r="1" fill="white"><title>2020-07-16: 0</title></circle>
	<circle cx="213.70" cy="372.77" data-y="0.36" data-x="1594944000" r="1" fill="white"><title>2020-07-17: 0</title></circle>
	<circle cx="215.11" cy="372.03" data-y="0.48" data-x="1595030400" r="1" fill="white"><title>2020-07-18: 0</title></circle>
	<circle cx="216.52" cy="371.29" data-y="0.60" data-x="1595116800" r="1" fill="white"><title>2020-07-19: 1</title></circle>
	<circle cx="217.93" cy="371.29" data-y="0.60" data-x="1595203200" r="1" fill="white"><title>2020-07-20: 1</title></circle>
	<circle cx="219.34" cy="371.29" data-y="0.60" data-x="1595289600" r="1" fill="white"><title>2020-07-21: 1</title></circle>
	<circle cx="220.74" cy="371.29" data-y="0.60" data-x="1595376000" r="1" fill="white"><title>2020-07-22: 1</title></circle>
	<circle cx="222.15" cy="370.55" data-y="0.72" data-x="1595462400" r="1" fill="white"><title>2020-07-23: 1</title></circle>
	<circle cx="223.56" cy="372.03" data-y="0.48" data-x="1595548800" r="1" fill="white"><title>2020-07-24: 0</title></circle>
	<circle cx="224.97" cy="372.77" data-y="0.36" data-x="1595635200" r="1" fill="white"><title>2020-07-25: 0</title></circle>
	<circle cx="226.38" cy="372.03" data-y="0.48" data-x="1595721600" r="1" fill="white"><title>2020-07-26: 0</title></circle>
	<circle cx="227.78" cy="372.03" data-y="0.48" data-x="1595808000" r="1" fill="white"><title>2020-07-27: 0</title></circle>
	<circle cx="229.19" cy="369.81" data-y="0.84" data-x="1595894400" r="1" fill="white"><title>2020-07-28: 1</title></circle>
	<circle cx="230.60" cy="369.07" data-y="0.96" data-x="1595980800" r="1" fill="white"><title>2020-07-29: 1</title></circle>
	<circle cx="232.01" cy="369.81" data-y="0.84" data-x="1596067200" r="1" fill="white"><title>2020-07-30: 1</title></circle>
	<circle cx="233.42" cy="368.32" data-y="1.08" data-x="1596153600" r="1" fill="white"><title>2020-07-31: 1</title></circle>
	<circle cx="234.83" cy="366.84" data-y="1.31" data-x="1596240000" r="1" fill="white"><title>2020-08-01: 1</title></circle>
	<circle cx="236.23" cy="368.32" data-y="1.08" data-x="1596326400" r="1" fill="white"><title>2020-08-02: 1</title></circle>
	<circle cx="237.64" cy="364.61" data-y="1.67" data-x="1596412800" r="1" fill="white"><title>2020-08-03: 2</title></circle>
	<circle cx="239.05" cy="364.61" data-y="1.67" data-x="1596499200" r="1" fill="white"><title>2020-08-04: 2</title></circle>
	<circle cx="240.46" cy="365.36" data-y="1.55" data-x="1596585600" r="1" fill="white"><title>2020-08-05: 2</title></circle>
	<circle cx="241.87" cy="365.36" data-y="1.55" data-x="1596672000" r="1" fill="white"><title>2020-08-06: 2</title></circle>
	<circle cx="243.28" cy="366.84" data-y="1.31" data-x="1596758400" r="1" fill="white"><title>2020-08-07: 1</title></circle>
	<circle cx="244.68" cy="366.84" data-y="1.31" data-x="1596844800" r="1" fill="white"><title>2020-08-08: 1</title></circle>
	<circle cx="246.09" cy="366.10" data-y="1.43" data-x="1596931200" r="1" fill="white"><title>2020-08-09: 1</title></circle>
	<circle cx="247.50" cy="368.32" data-y="1.08" data-x="1597017600" r="1" fill="white"><title>2020-08-10: 1</title></circle>
	<circle cx="248.91" cy="368.32" data-y="1.08" data-x="1597104000" r="1" fill="white"><title>2020-08-11: 1</title></circle>
	<circle cx="250.32" cy="366.84" data-y="1.31" data-x="1597190400" r="1" fill="white"><title>2020-08-12: 1</title></circle>
	<circle cx="251.72" cy="366.84" data-y="1.31" data-x="1597276800" r="1" fill="white"><title>2020-08-13: 1</title></circle>
	<circle cx="253.13" cy="366.10" data-y="1.43" data-x="1597363200" r="1" fill="white"><title>2020-08-14: 1</title></circle>
	<circle cx="254.54" cy="363.87" data-y="1.79" data-x="1597449600" r="1" fill="white"><title>2020-08-15: 2</title></circle>
	<circle cx="255.95" cy="362.39" data-y="2.03" data-x="1597536000" r="1" fill="white"><title>2020-08-16: 2</title></circle>
	<circle cx="257.36" cy="363.13" data-y="1.91" data-x="1597622400" r="1" fill="white"><title>2020-08-17: 2</title></circle>
	<circle cx="258.77" cy="366.10" data-y="1.43" data-x="1597708800" r="1" fill="white"><title>2020-08-18: 1</title></circle>
	<circle cx="260.17" cy="367.58" data-y="1.20" data-x="1597795200" r="1" fill="white"><title>2020-08-19: 1</title></circle>
	<circle cx="261.58" cy="366.84" data-y="1.31" data-x="1597881600" r="1" fill="white"><title>2020-08-20: 1</title></circle>
	<circle cx="262.99" cy="367.58" data-y="1.20" data-x="1597968000" r="1" fill="white"><title>2020-08-21: 1</title></circle>
	<circle cx="264.40" cy="369.81" data-y="0.84" data-x="1598054400" r="1" fill="white"><title>2020-08-22: 1</title></circle>
	<circle cx="265.81" cy="370.55" data-y="0.72" data-x="1598140800" r="1" fill="white"><title>2020-08-23: 1</title></circle>
	<circle cx="267.22" cy="369.81" data-y="0.84" data-x="1598227200" r="1" fill="white"><title>2020-08-24: 1</title></circle>
	<circle cx="268.62" cy="368.32" data-y="1.08" data-x="1598313600" r="1" fill="white"><title>2020-08-25: 1</title></circle>
	<circle cx="270.03" cy="367.58" data-y="1.20" data-x="1598400000" r="1" fill="white"><title>2020-08-26: 1</title></circle>
	<circle cx="271.44" cy="368.32" data-y="1.08" data-x="1598486400" r="1" fill="white"><title>2020-08-27: 1</title></circle>
	<circle cx="272.85" cy="367.58" data-y="1.20" data-x="1598572800" r="1" fill="white"><title>2020-08-28: 1</title></circle>
	<circle cx="274.26" cy="366.10" data-y="1.43" data-x="1598659200" r="1" fill="white"><title>2020-08-29: 1</title></circle>
	<circle cx="275.66" cy="363.87" data-y="1.79" data-x="1598745600" r="1" fill="white"><title>2020-08-30: 2</title></circle>
	<circle cx="277.07" cy="363.87" data-y="1.79" data-x="1598832000" r="1" fill="white"><title>2020-08-31: 2</title></circle>
	<circle cx="278.48" cy="362.39" data-y="2.03" data-x="1598918400" r="1" fill="white"><title>2020-09-01: 2</title></circle>
	<circle cx="279.89" cy="360.90" data-y="2.27" data-x="1599004800" r="1" fill="white"><title>2020-09-02: 2</title></circle>
	<circle cx="281.30" cy="359.42" data-y="2.51" data-x="1599091200" r="1" fill="white"><title>2020-09-03: 3</title></circle>
	<circle cx="282.71" cy="351.26" data-y="3.82" data-x="1599177600" r="1" fill="white"><title>2020-09-04: 4</title></circle>
	<circle cx="284.11" cy="352.00" data-y="3.71" data-x="1599264000" r="1" fill="white"><title>2020-09-05: 4</title></circle>
	<circle cx="285.52" cy="346.81" data-y="4.54" data-x="1599350400" r="1" fill="white"><title>2020-09-06: 5</title></circle>
	<circle cx="286.93" cy="345.33" data-y="4.78" data-x="1599436800" r="1" fill="white"><title>2020-09-07: 5</title></circle>
	<circle cx="288.34" cy="344.58" data-y="4.90" data-x="1599523200" r="1" fill="white"><title>2020-09-08: 5</title></circle>
	<circle cx="289.75" cy="339.39" data-y="5.74" data-x="1599609600" r="1" fill="white"><title>2020-09-09: 6</title></circle>
	<circle cx="291.16" cy="334.94" data-y="6.45" data-x="1599696000" r="1" fill="white"><title>2020-09-10: 6</title></circle>
	<circle cx="292.56" cy="337.91" data-y="5.98" data-x="1599782400" r="1" fill="white"><title>2020-09-11: 6</title></circle>
	<circle cx="293.97" cy="334.94" data-y="6.45" data-x="1599868800" r="1" fill="white"><title>2020-09-12: 6</title></circle>
	<circle cx="295.38" cy="336.42" data-y="6.22" data-x="1599955200" r="1" fill="white"><title>2020-09-13: 6</title></circle>
	<circle cx="296.79" cy="333.46" data-y="6.69" data-x="1600041600" r="1" fill="white"><title>2020-09-14: 7</title></circle>
	<circle cx="298.20" cy="335.68" data-y="6.33" data-x="1600128000" r="1" fill="white"><title>2020-09-15: 6</title></circle>
	<circle cx="299.60" cy="331.97" data-y="6.93" data-x="1600214400" r="1" fill="white"><title>2020-09-16: 7</title></circle>
	<circle cx="301.01" cy="320.84" data-y="8.73" data-x="1600300800" r="1" fill="white"><title>2020-09-17: 9</title></circle>
	<circle cx="302.42" cy="318.62" data-y="9.08" data-x="1600387200" r="1" fill="white"><title>2020-09-18: 9</title></circle>
	<circle cx="303.83" cy="311.94" data-y="10.16" data-x="1600473600" r="1" fill="white"><title>2020-09-19: 10</title></circle>
	<circle cx="305.24" cy="304.52" data-y="11.35" data-x="1600560000" r="1" fill="white"><title>2020-09-20: 11</title></circle>
	<circle cx="306.65" cy="297.10" data-y="12.55" data-x="1600646400" r="1" fill="white"><title>2020-09-21: 13</title></circle>
	<circle cx="308.05" cy="288.94" data-y="13.86" data-x="1600732800" r="1" fill="white"><title>2020-09-22: 14</title></circle>
	<circle cx="309.46" cy="288.94" data-y="13.86" data-x="1600819200" r="1" fill="white"><title>2020-09-23: 14</title></circle>
	<circle cx="310.87" cy="295.62" data-y="12.79" data-x="1600905600" r="1" fill="white"><title>2020-09-24: 13</title></circle>
	<circle cx="312.28" cy="291.17" data-y="13.51" data-x="1600992000" r="1" fill="white"><title>2020-09-25: 14</title></circle>
	<circle cx="313.69" cy="291.91" data-y="13.39" data-x="1601078400" r="1" fill="white"><title>2020-09-26: 13</title></circle>
	<circle cx="315.09" cy="291.91" data-y="13.39" data-x="1601164800" r="1" fill="white"><title>2020-09-27: 13</title></circle>
	<circle cx="316.50" cy="283.01" data-y="14.82" data-x="1601251200" r="1" fill="white"><title>2020-09-28: 15</title></circle>
	<circle cx="317.91" cy="274.85" data-y="16.14" data-x="1601337600" r="1" fill="white"><title>2020-09-29: 16</title></circle>
	<circle cx="319.32" cy="265.20" data-y="17.69" data-x="1601424000" r="1" fill="white"><title>2020-09-30: 18</title></circle>
	<circle cx="320.73" cy="248.14" data-y="20.44" data-x="1601510400" r="1" fill="white"><title>2020-10-01: 20</title></circle>
	<circle cx="322.14" cy="229.59" data-y="23.43" data-x="1601596800" r="1" fill="white"><title>2020-10-02: 23</title></circle>
	<circle cx="323.54" cy="203.63" data-y="27.61" data-x="1601683200" r="1" fill="white"><title>2020-10-03: 28</title></circle>
	<circle cx="324.95" cy="192.50" data-y="29.40" data-x="1601769600" r="1" fill="white"><title>2020-10-04: 29</title></circle>
	<circle cx="326.36" cy="182.86" data-y="30.96" data-x="1601856000" r="1" fill="white"><title>2020-10-05: 31</title></circle>
	<circle cx="327.77" cy="162.83" data-y="34.18" data-x="1601942400" r="1" fill="white"><title>2020-10-06: 34</title></circle>
	<circle cx="329.18" cy="158.37" data-y="34.90" data-x="1602028800" r="1" fill="white"><title>2020-10-07: 35</title></circle>
	<circle cx="330.59" cy="164.31" data-y="33.94" data-x="1602115200" r="1" fill="white"><title>2020-10-08: 34</title></circle>
	<circle cx="331.99" cy="153.92" data-y="35.62" data-x="1602201600" r="1" fill="white"><title>2020-10-09: 36</title></circle>
	<circle cx="333.40" cy="159.12" data-y="34.78" data-x="1602288000" r="1" fill="white"><title>2020-10-10: 35</title></circle>
	<circle cx="334.81" cy="162.83" data-y="34.18" data-x="1602374400" r="1" fill="white"><title>2020-10-11: 34</title></circle>
	<circle cx="336.22" cy="150.96" data-y="36.10" data-x="1602460800" r="1" fill="white"><title>2020-10-12: 36</title></circle>
	<circle cx="337.63" cy="160.60" data-y="34.54" data-x="1602547200" r="1" fill="white"><title>2020-10-13: 35</title></circle>
	<circle cx="339.03" cy="152.44" data-y="35.86" data-x="1602633600" r="1" fill="white"><title>2020-10-14: 36</title></circle>
	<circle cx="340.44" cy="128.70" data-y="39.68" data-x="1602720000" r="1" fill="white"><title>2020-10-15: 40</title></circle>
	<circle cx="341.85" cy="104.22" data-y="43.63" data-x="1602806400" r="1" fill="white"><title>2020-10-16: 44</title></circle>
	<circle cx="343.26" cy="73.06" data-y="48.65" data-x="1602892800" r="1" fill="white"><title>2020-10-17: 49</title></circle>
	<circle cx="344.67" cy="35.97" data-y="54.62" data-x="1602979200" r="1" fill="white"><title>2020-10-18: 55</title></circle>
	<circle cx="346.08" cy="29.29" data-y="55.70" data-x="1603065600" r="1" fill="white"><title>2020-10-19: 56</title></circle>
	<circle cx="347.48" cy="10.00" data-y="58.81" data-x="1603152000" r="1" fill="white"><title>2020-10-20: 59</title></circle>
	<circle cx="348.89" cy="18.90" data-y="57.37" data-x="1603238400" r="1" fill="white"><title>2020-10-21: 57</title></circle>
	<circle cx="350.30" cy="39.67" data-y="54.02" data-x="1603324800" r="1" fill="white"><title>2020-10-22: 54</title></circle>
	<circle cx="351.71" cy="50.06" data-y="52.35" data-x="1603411200" r="1" fill="white"><title>2020-10-23: 52</title></circle>
	<circle cx="353.12" cy="52.29" data-y="51.99" data-x="1603497600" r="1" fill="white"><title>2020-10-24: 52</title></circle>
	<circle cx="354.53" cy="76.77" data-y="48.05" data-x="1603584000" r="1" fill="white"><title>2020-10-25: 48</title></circle>
	<circle cx="355.93" cy="81.96" data-y="47.21" data-x="1603670400" r="1" fill="white"><title>2020-10-26: 47</title></circle>
	<circle cx="357.34" cy="101.25" data-y="44.10" data-x="1603756800" r="1" fill="white"><title>2020-10-27: 44</title></circle>
	<circle cx="358.75" cy="98.28" data-y="44.58" data-x="1603843200" r="1" fill="white"><title>2020-10-28: 45</title></circle>
	<circle cx="360.16" cy="94.57" data-y="45.18" data-x="1603929600" r="1" fill="white"><title>2020-10-29: 45</title></circle>
	<circle cx="361.57" cy="93.83" data-y="45.30" data-x="1604016000" r="1" fill="white"><title>2020-10-30: 45</title></circle>
	<circle cx="362.97" cy="117.57" data-y="41.47" data-x="1604102400" r="1" fill="white"><title>2020-10-31: 41</title></circle>
	<circle cx="364.38" cy="115.35" data-y="41.83" data-x="1604188800" r="1" fill="white"><title>2020-11-01: 42</title></circle>
	<circle cx="365.79" cy="125.73" data-y="40.16" data-x="1604275200" r="1" fill="white"><title>2020-11-02: 40</title></circle>
	<circle cx="367.20" cy="125.73" data-y="40.16" data-x="1604361600" r="1" fill="white"><title>2020-11-03: 40</title></circle>
	<circle cx="368.61" cy="129.44" data-y="39.56" data-x="1604448000" r="1" fill="white"><title>2020-11-04: 40</title></circle>
	<circle cx="370.02" cy="127.96" data-y="39.80" data-x="1604534400" r="1" fill="white"><title>2020-11-05: 40</title></circle>
	<circle cx="371.42" cy="139.09" data-y="38.01" data-x="1604620800" r="1" fill="white"><title>2020-11-06: 38</title></circle>
	<circle cx="372.83" cy="143.54" data-y="37.29" data-x="1604707200" r="1" fill="white"><title>2020-11-07: 37</title></circle>
	<circle cx="374.24" cy="136.12" data-y="38.49" data-x="1604793600" r="1" fill="white"><title>2020-11-08: 38</title></circle>
	<circle cx="375.65" cy="139.83" data-y="37.89" data-x="1604880000" r="1" fill="white"><title>2020-11-09: 38</title></circle>
	<circle cx="377.06" cy="134.63" data-y="38.73" data-x="1604966400" r="1" fill="white"><title>2020-11-10: 39</title></circle>
	<circle cx="378.47" cy="127.22" data-y="39.92" data-x="1605052800" r="1" fill="white"><title>2020-11-11: 40</title></circle>
	<circle cx="379.87" cy="130.92" data-y="39.32" data-x="1605139200" r="1" fill="white"><title>2020-11-12: 39</title></circle>
	<circle cx="381.28" cy="139.83" data-y="37.89" data-x="1605225600" r="1" fill="white"><title>2020-11-13: 38</title></circle>
	<circle cx="382.69" cy="133.89" data-y="38.85" data-x="1605312000" r="1" fill="white"><title>2020-11-14: 39</title></circle>
	<circle cx="384.10" cy="152.44" data-y="35.86" data-x="1605398400" r="1" fill="white"><title>2020-11-15: 36</title></circle>
	<circle cx="385.51" cy="162.83" data-y="34.18" data-x="1605484800" r="1" fill="white"><title>2020-11-16: 34</title></circle>
	<circle cx="386.91" cy="172.47" data-y="32.63" data-x="1605571200" r="1" fill="white"><title>2020-11-17: 33</title></circle>
	<circle cx="388.32" cy="188.79" data-y="30.00" data-x="1605657600" r="1" fill="white"><title>2020-11-18: 30</title></circle>
	<circle cx="389.73" cy="197.69" data-y="28.57" data-x="1605744000" r="1" fill="white"><title>2020-11-19: 29</title></circle>
	<circle cx="391.14" cy="200.66" data-y="28.09" data-x="1605830400" r="1" fill="white"><title>2020-11-20: 28</title></circle>
	<circle cx="392.55" cy="209.56" data-y="26.65" data-x="1605916800" r="1" fill="white"><title>2020-11-21: 27</title></circle>
	<circle cx="393.96" cy="210.30" data-y="26.53" data-x="1606003200" r="1" fill="white"><title>2020-11-22: 27</title></circle>
	<circle cx="395.36" cy="208.08" data-y="26.89" data-x="1606089600" r="1" fill="white"><title>2020-11-23: 27</title></circle>
	<circle cx="396.77" cy="204.37" data-y="27.49" data-x="1606176000" r="1" fill="white"><title>2020-11-24: 27</title></circle>
	<circle cx="398.18" cy="198.43" data-y="28.45" data-x="1606262400" r="1" fill="white"><title>2020-11-25: 28</title></circle>
	<circle cx="399.59" cy="199.18" data-y="28.33" data-x="1606348800" r="1" fill="white"><title>2020-11-26: 28</title></circle>
	<circle cx="401.00" cy="210.30" data-y="26.53" data-x="1606435200" r="1" fill="white"><title>2020-11-27: 27</title></circle>
	<circle cx="402.41" cy="214.76" data-y="25.82" data-x="1606521600" r="1" fill="white"><title>2020-11-28: 26</title></circle>
	<circle cx="403.81" cy="222.92" data-y="24.50" data-x="1606608000" r="1" fill="white"><title>2020-11-29: 25</title></circle>
	<circle cx="405.22" cy="231.82" data-y="23.07" data-x="1606694400" r="1" fill="white"><title>2020-11-30: 23</title></circle>
	<circle cx="406.63" cy="215.50" data-y="25.70" data-x="1606780800" r="1" fill="white"><title>2020-12-01: 26</title></circle>
	<circle cx="408.04" cy="220.69" data-y="24.86" data-x="1606867200" r="1" fill="white"><title>2020-12-02: 25</title></circle>
	<circle cx="409.45" cy="217.72" data-y="25.34" data-x="1606953600" r="1" fill="white"><title>2020-12-03: 25</title></circle>
	<circle cx="410.85" cy="200.66" data-y="28.09" data-x="1607040000" r="1" fill="white"><title>2020-12-04: 28</title></circle>
	<circle cx="412.26" cy="195.47" data-y="28.92" data-x="1607126400" r="1" fill="white"><title>2020-12-05: 29</title></circle>
	<circle cx="413.67" cy="191.02" data-y="29.64" data-x="1607212800" r="1" fill="white"><title>2020-12-06: 30</title></circle>
	<circle cx="415.08" cy="185.82" data-y="30.48" data-x="1607299200" r="1" fill="white"><title>2020-12-07: 30</title></circle>
	<circle cx="416.49" cy="199.18" data-y="28.33" data-x="1607385600" r="1" fill="white"><title>2020-12-08: 28</title></circle>
	<circle cx="417.90" cy="195.47" data-y="28.92" data-x="1607472000" r="1" fill="white"><title>2020-12-09: 29</title></circle>
	<circle cx="419.30" cy="193.98" data-y="29.16" data-x="1607558400" r="1" fill="white"><title>2020-12-10: 29</title></circle>
	<circle cx="420.71" cy="205.11" data-y="27.37" data-x="1607644800" r="1" fill="white"><title>2020-12-11: 27</title></circle>
	<circle cx="422.12" cy="198.43" data-y="28.45" data-x="1607731200" r="1" fill="white"><title>2020-12-12: 28</title></circle>
	<circle cx="423.53" cy="197.69" data-y="28.57" data-x="1607817600" r="1" fill="white"><title>2020-12-13: 29</title></circle>
	<circle cx="424.94" cy="193.24" data-y="29.28" data-x="1607904000" r="1" fill="white"><title>2020-12-14: 29</title></circle>
	<circle cx="426.34" cy="202.14" data-y="27.85" data-x="1607990400" r="1" fill="white"><title>2020-12-15: 28</title></circle>
	<circle cx="427.75" cy="196.21" data-y="28.81" data-x="1608076800" r="1" fill="white"><title>2020-12-16: 29</title></circle>
	<circle cx="429.16" cy="193.98" data-y="29.16" data-x="1608163200" r="1" fill="white"><title>2020-12-17: 29</title></circle>
	<circle cx="430.57" cy="199.18" data-y="28.33" data-x="1608249600" r="1" fill="white"><title>2020-12-18: 28</title></circle>
	<circle cx="431.98" cy="202.14" data-y="27.85" data-x="1608336000" r="1" fill="white"><title>2020-12-19: 28</title></circle>
	<circle cx="433.39" cy="181.37" data-y="31.20" data-x="1608422400" r="1" fill="white"><title>2020-12-20: 31</title></circle>
	<circle cx="434.79" cy="170.24" data-y="32.99" data-x="1608508800" r="1" fill="white"><title>2020-12-21: 33</title></circle>
	<circle cx="436.20" cy="183.60" data-y="30.84" data-x="1608595200" r="1" fill="white"><title>2020-12-22: 31</title></circle>
	<circle cx="437.61" cy="173.21" data-y="32.51" data-x="1608681600" r="1" fill="white"><title>2020-12-23: 33</title></circle>
	<circle cx="439.02" cy="161.34" data-y="34.42" data-x="1608768000" r="1" fill="white"><title>2020-12-24: 34</title></circle>
	<circle cx="440.43" cy="142.79" data-y="37.41" data-x="1608854400" r="1" fill="white"><title>2020-12-25: 37</title></circle>
	<circle cx="441.84" cy="118.31" data-y="41.36" data-x="1608940800" r="1" fill="white"><title>2020-12-26: 41</title></circle>
	<circle cx="443.24" cy="118.31" data-y="41.36" data-x="1609027200" r="1" fill="white"><title>2020-12-27: 41</title></circle>
	<circle cx="444.65" cy="120.54" data-y="41.00" data-x="1609113600" r="1" fill="white"><title>2020-12-28: 41</title></circle>
	<circle cx="446.06" cy="108.67" data-y="42.91" data-x="1609200000" r="1" fill="white"><title>2020-12-29: 43</title></circle>
	<circle cx="447.47" cy="90.86" data-y="45.78" data-x="1609286400" r="1" fill="white"><title>2020-12-30: 46</title></circle>
	<circle cx="448.88" cy="84.19" data-y="46.85" data-x="1609372800" r="1" fill="white"><title>2020-12-31: 47</title></circle>
	<circle cx="450.28" cy="67.87" data-y="49.48" data-x="1609459200" r="1" fill="white"><title>2021-01-01: 49</title></circle>
	<circle cx="451.69" cy="76.77" data-y="48.05" data-x="1609545600" r="1" fill="white"><title>2021-01-02: 48</title></circle>
	<circle cx="453.10" cy="72.32" data-y="48.77" data-x="1609632000" r="1" fill="white"><title>2021-01-03: 49</title></circle>
	<circle cx="454.51" cy="44.87" data-y="53.19" data-x="1609718400" r="1" fill="white"><title>2021-01-04: 53</title></circle>
	<circle cx="455.92" cy="11.48" data-y="58.57" data-x="1609804800" r="1" fill="white"><title>2021-01-05: 59</title></circle>
	<circle cx="457.33" cy="24.10" data-y="56.53" data-x="1609891200" r="1" fill="white"><title>2021-01-06: 57</title></circle>
	<circle cx="458.73" cy="31.51" data-y="55.34" data-x="1609977600" r="1" fill="white"><title>2021-01-07: 55</title></circle>
	<circle cx="460.14" cy="32.26" data-y="55.22" data-x="1610064000" r="1" fill="white"><title>2021-01-08: 55</title></circle>
	<circle cx="461.55" cy="18.90" data-y="57.37" data-x="1610150400" r="1" fill="white"><title>2021-01-09: 57</title></circle>
	<circle cx="462.96" cy="30.03" data-y="55.58" data-x="1610236800" r="1" fill="white"><title>2021-01-10: 56</title></circle>
</g>
<g data-series="recent-cases" class="data-series">
	<path d="M 462.96,30.03L 464.37,57.48L 465.78,110.15L 467.18,113.61L 468.59,109.11L 470.00,142.61" id="Recent cases" class="line" stroke-width="1" stroke-linecap="round" stroke-dasharray="4,6" stroke-dashoffset="4"><title>Recent cases</title></path>
	<circle cx="462.96" cy="30.03" data-y="55.58" data-x="1610236800" r="2.5" fill="white"><title>2021-01-10: 56</title></circle>
	<circle cx="464.37" cy="57.48" data-y="51.16" data-x="1610323200" r="2.5" fill="white"><title>2021-01-11: 51</title></circle>
	<circle cx="465.78" cy="110.15" data-y="42.67" data-x="1610409600" r="2.5" fill="white"><title>2021-01-12: 43</title></circle>
	<circle cx="467.18" cy="113.61" data-y="42.11" data-x="1610496000" r="2.5" fill="white"><title>2021-01-13: 42</title></circle>
	<circle cx="468.59" cy="109.11" data-y="42.84" data-x="1610582400" r="2.5" fill="white"><title>2021-01-14: 43</title></circle>
	<circle cx="470.00" cy="142.61" data-y="37.44" data-x="1610668800" r="2.5" fill="white"><title>2021-01-15: 37</title></circle>
</g>
</svg>
