<svg width="480" height="400" viewBox="0 0 480 400" xmlns="http://www.w3.org/2000/svg" style="overflow:display" preserveAspectRatio="xMinYMin meet" overflow="visible">
<defs>
	<style>
	.data-series path.line { fill-opacity: 0; stroke: black; }
	.data-series path.line.dotted { stroke-dasharray: 12 20 }
	.data-series circle { display: none; }
	.data-series:hover path.line, .data-series.on path.line { stroke-width: 1; }
	.data-series:hover circle, .data-series.on circle { display: inline; }
	.data-series circle:hover, .data-series circle.on { r: 1px!important; }
	.graph-grid { font-family: "Helvetica Neue",Helvetica,Arial,"Lucida Grande",sans-serif; }
	.graph-grid line { stroke: black; stroke-width: 1; stroke-linecap: round; }
	.graph-grid.graph-grid-x text { text-anchor: middle; dominant-baseline: hanging; transform: translateY(10px); }
	.graph-grid.graph-grid-y text { text-anchor: end; dominant-baseline: middle; transform: translateX(-10px); }
	</style>
</defs>
<g class="graph-grid graph-grid-y">
	<line x1="15.00" y1="375.00" x2="470.00" y2="375.00" data-left="15"></line>
	<text x="25" y="375" text-anchor="end">0</text>
	<text x="25" y="204.864375" text-anchor="end">5</text>
	<text x="25" y="34.72875" text-anchor="end">10</text>
	<text style="text-anchor:middle;dominant-baseline:hanging;font-weight:bold;transform: translateY(192.5px) rotate(-90deg);"></text>
</g>
<g class="graph-grid graph-grid-x">
	<line class="tick" x1="64.86" y1="375.00" x2="64.86" y2="380.00"></line>
	<text x="64.8630136986301" y="375" text-anchor="middle">A</text>
	<line class="tick" x1="127.19" y1="375.00" x2="127.19" y2="380.00"></line>
	<text x="127.191780821918" y="375" text-anchor="middle">M</text>
	<line class="tick" x1="191.60" y1="375.00" x2="191.60" y2="380.00"></line>
	<text x="191.598173515982" y="375" text-anchor="middle">J</text>
	<line class="tick" x1="253.93" y1="375.00" x2="253.93" y2="380.00"></line>
	<text x="253.926940639269" y="375" text-anchor="middle">J</text>
	<line class="tick" x1="318.33" y1="375.00" x2="318.33" y2="380.00"></line>
	<text x="318.333333333333" y="375" text-anchor="middle">A</text>
	<line class="tick" x1="382.74" y1="375.00" x2="382.74" y2="380.00"></line>
	<text x="382.739726027397" y="375" text-anchor="middle">S</text>
	<line class="tick" x1="445.07" y1="375.00" x2="445.07" y2="380.00"></line>
	<text x="445.068493150685" y="375" text-anchor="middle">O</text>
	<text style="text-anchor:middle;dominant-baseline:hanging;font-weight:bold;transform: translateY(192.5px) rotate(-90deg);"></text>
</g>
<g data-series="widespread" class="data-series">
	<path d="M 15.00,136.81L 470.00,136.81" id="E07000081-level-0" class="line" stroke-width="1" stroke-linecap="round" stroke-dasharray="3,3" fill-opacity="0.3" opacity="0.3"><title>Widespread</title></path>
</g>
<g data-series="substantial" class="data-series">
	<path d="M 15.00,238.89L 470.00,238.89" id="E07000081-level-1" class="line" stroke-width="1" stroke-linecap="round" stroke-dasharray="3,3" fill-opacity="0.3" opacity="0.3"><title>Substantial</title></path>
</g>
<g data-series="moderate" class="data-series">
	<path d="M 15.00,340.97L 470.00,340.97" id="E07000081-level-2" class="line" stroke-width="1" stroke-linecap="round" stroke-dasharray="3,3" fill-opacity="0.3" opacity="0.3"><title>Moderate</title></path>
</g>
<g data-series="new-cases" class="data-series">
	<path d="M 15.00,368.48L 17.08,369.79L 19.16,370.65L 21.23,371.28L 23.31,375.00L 25.39,371.28L 27.47,363.83L 29.54,363.83L 31.62,360.10L 33.70,356.38L 35.78,341.48L 37.85,326.58L 39.93,330.31L 42.01,330.31L 44.09,322.86L 46.16,311.68L 48.24,300.51L 50.32,289.34L 52.40,293.06L 54.47,270.71L 56.55,244.64L 58.63,229.74L 60.71,222.30L 62.79,222.30L 64.86,181.33L 66.94,192.50L 69.02,177.60L 71.10,173.88L 73.17,129.18L 75.25,125.46L 77.33,88.21L 79.41,114.29L 81.48,91.94L 83.56,80.77L 85.64,77.04L 87.72,103.11L 89.79,62.14L 91.87,69.59L 93.95,65.87L 96.03,24.90L 98.11,50.97L 100.18,43.52L 102.26,58.42L 104.34,73.32L 106.42,50.97L 108.49,17.45L 110.57,69.59L 112.65,39.80L 114.73,24.90L 116.80,10.00L 118.88,28.62L 120.96,17.45L 123.04,47.24L 125.11,21.17L 127.19,43.52L 129.27,84.49L 131.35,80.77L 133.42,84.49L 135.50,110.56L 137.58,151.53L 139.66,181.33L 141.74,185.05L 143.81,196.22L 145.89,211.12L 147.97,222.30L 150.05,259.54L 152.12,255.82L 154.20,255.82L 156.28,281.89L 158.36,281.89L 160.43,311.68L 162.51,330.31L 164.59,337.76L 166.67,348.93L 168.74,356.38L 170.82,348.93L 172.90,356.38L 174.98,356.38L 177.05,352.65L 179.13,360.10L 181.21,356.38L 183.29,352.65L 185.37,360.10L 187.44,360.10L 189.52,360.10L 191.60,363.83L 193.68,363.83L 195.75,367.55L 197.83,371.28L 199.91,371.28L 201.99,375.00L 204.06,371.28L 206.14,371.28L 208.22,371.28L 210.30,371.28L 212.37,367.55L 214.45,363.83L 216.53,363.83L 218.61,367.55L 220.68,363.83L 222.76,363.83L 224.84,363.83L 226.92,363.83L 229.00,367.55L 231.07,367.55L 233.15,367.55L 235.23,371.28L 237.31,371.28L 239.38,371.28L 241.46,375.00L 243.54,371.28L 245.62,367.55L 247.69,367.55L 249.77,367.55L 251.85,367.55L 253.93,367.55L 256.00,363.83L 258.08,367.55L 260.16,367.55L 262.24,367.55L 264.32,367.55L 266.39,367.55L 268.47,367.55L 270.55,371.28L 272.63,367.55L 274.70,371.28L 276.78,363.83L 278.86,363.83L 280.94,363.83L 283.01,363.83L 285.09,363.83L 287.17,367.55L 289.25,367.55L 291.32,375.00L 293.40,375.00L 295.48,375.00L 297.56,375.00L 299.63,371.28L 301.71,371.28L 303.79,371.28L 305.87,367.55L 307.95,367.55L 310.02,367.55L 312.10,367.55L 314.18,367.55L 316.26,367.55L 318.33,360.10L 320.41,345.20L 322.49,330.31L 324.57,322.86L 326.64,315.41L 328.72,319.13L 330.80,319.13L 332.88,326.58L 334.95,341.48L 337.03,352.65L 339.11,356.38L 341.19,363.83L 343.26,360.10L 345.34,356.38L 347.42,356.38L 349.50,356.38L 351.58,352.65L 353.65,352.65L 355.73,348.93L 357.81,352.65L 359.89,356.38L 361.96,348.93L 364.04,345.20L 366.12,345.20L 368.20,337.76L 370.27,337.76L 372.35,334.03L 374.43,330.31L 376.51,330.31L 378.58,330.31L 380.66,334.03L 382.74,337.76L 384.82,330.31L 386.89,330.31L 388.97,319.13L 391.05,322.86L 393.13,326.58L 395.21,315.41L 397.28,311.68L 399.36,322.86L 401.44,326.58L 403.52,334.03L 405.59,326.58L 407.67,322.86L 409.75,307.96L 411.83,296.79L 413.90,293.06L 415.98,266.99L 418.06,270.71L 420.14,248.37L 422.21,240.92L 424.29,266.99L 426.37,278.16L 428.45,274.44L 430.53,285.61L 432.60,229.74L 434.68,248.37L 436.76,237.19L 438.84,203.67L 440.91,170.15L 442.99,155.26L 445.07,121.73L 447.15,132.91L 449.22,84.49L 451.30,65.87L 453.38,47.24L 455.46,47.24L 457.53,13.72L 459.61,47.24" id="New cases" class="line" stroke-width="1" stroke-linecap="round"><title>New cases</title></path>
</g>
<g data-series="recent-cases" class="data-series">
	<path d="M 459.61,47.24L 461.69,84.49L 463.77,147.81L 465.84,162.08L 467.92,197.71L 470.00,231.61" id="Recent cases" class="line" stroke-width="1" stroke-linecap="round" stroke-dasharray="5,5"><title>Recent cases</title></path>
</g>
</svg>
