<svg width="480" height="400" viewBox="0 0 480 400" xmlns="http://www.w3.org/2000/svg" style="overflow:display" preserveAspectRatio="xMinYMin meet" overflow="visible">
<defs>
	<style>
	.data-series path.line { fill-opacity: 0; stroke: black; }
	.data-series path.line.dotted { stroke-dasharray: 12 20 }
	.data-series:hover path.line, .data-series.on path.line { stroke-width: 1; }
	.data-series:hover circle, .data-series.on circle { display: inline; }
	.graph-grid { font-family: "Helvetica Neue",Helvetica,Arial,"Lucida Grande",sans-serif; }
	.graph-grid line { stroke: black; stroke-width: 1; stroke-linecap: round; }
	.graph-grid.graph-grid-x text { text-anchor: middle; dominant-baseline: hanging; transform: translateY(10px); }
	.graph-grid.graph-grid-y text { text-anchor: end; dominant-baseline: middle; transform: translateX(-10px); }
	</style>
</defs>
<g class="graph-grid graph-grid-y">
	<line x1="25.00" y1="375.00" x2="470.00" y2="375.00" data-left="25"></line>
	<text x="35" y="375" text-anchor="end">0</text>
	<text x="35" y="226.587080536913" text-anchor="end">20</text>
	<text x="35" y="78.1741610738255" text-anchor="end">40</text>
	<text style="text-anchor:middle;dominant-baseline:hanging;font-weight:bold;transform: translateY(192.5px) rotate(-90deg);"></text>
</g>
<g class="graph-grid graph-grid-x">
	<line class="tick" x1="58.24" y1="375.00" x2="58.24" y2="380.00"></line>
	<text x="58.2365145228216" y="375" text-anchor="middle">A</text>
	<line class="tick" x1="113.63" y1="375.00" x2="113.63" y2="380.00"></line>
	<text x="113.630705394191" y="375" text-anchor="middle">M</text>
	<line class="tick" x1="170.87" y1="375.00" x2="170.87" y2="380.00"></line>
	<text x="170.871369294606" y="375" text-anchor="middle">J</text>
	<line class="tick" x1="226.27" y1="375.00" x2="226.27" y2="380.00"></line>
	<text x="226.265560165975" y="375" text-anchor="middle">J</text>
	<line class="tick" x1="283.51" y1="375.00" x2="283.51" y2="380.00"></line>
	<text x="283.50622406639" y="375" text-anchor="middle">A</text>
	<line class="tick" x1="340.75" y1="375.00" x2="340.75" y2="380.00"></line>
	<text x="340.746887966805" y="375" text-anchor="middle">S</text>
	<line class="tick" x1="396.14" y1="375.00" x2="396.14" y2="380.00"></line>
	<text x="396.141078838174" y="375" text-anchor="middle">O</text>
	<line class="tick" x1="453.38" y1="375.00" x2="453.38" y2="380.00"></line>
	<text x="453.381742738589" y="375" text-anchor="middle">N</text>
	<text style="text-anchor:middle;dominant-baseline:hanging;font-weight:bold;transform: translateY(192.5px) rotate(-90deg);"></text>
</g>
<g data-series="widespread" class="data-series">
	<path d="M 25.00,323.06L 470.00,323.06" id="E07000170-level-0" class="line" stroke-width="1" stroke-linecap="round" stroke-dasharray="3,3" fill-opacity="0.3" opacity="0.3"><title>Widespread</title></path>
</g>
<g data-series="substantial" class="data-series">
	<path d="M 25.00,345.32L 470.00,345.32" id="E07000170-level-1" class="line" stroke-width="1" stroke-linecap="round" stroke-dasharray="3,3" fill-opacity="0.3" opacity="0.3"><title>Substantial</title></path>
</g>
<g data-series="moderate" class="data-series">
	<path d="M 25.00,367.58L 470.00,367.58" id="E07000170-level-2" class="line" stroke-width="1" stroke-linecap="round" stroke-dasharray="3,3" fill-opacity="0.3" opacity="0.3"><title>Moderate</title></path>
</g>
<g data-series="new-cases" class="data-series">
	<path d="M 25.00,365.00L 26.85,364.71L 28.69,366.43L 30.54,367.65L 32.39,366.83L 34.23,368.47L 36.08,369.28L 37.93,366.83L 39.77,366.83L 41.62,362.75L 43.46,356.22L 45.31,357.04L 47.16,356.22L 49.00,352.95L 50.85,352.95L 52.70,350.50L 54.54,346.42L 56.39,349.69L 58.24,348.87L 60.08,345.60L 61.93,344.79L 63.78,343.15L 65.62,343.97L 67.47,348.87L 69.32,349.69L 71.16,347.24L 73.01,342.34L 74.85,340.70L 76.70,330.91L 78.55,324.37L 80.39,316.21L 82.24,300.69L 84.09,296.61L 85.93,297.43L 87.78,299.88L 89.63,307.23L 91.47,303.96L 93.32,301.51L 95.17,313.76L 97.01,317.02L 98.86,319.47L 100.71,317.02L 102.55,317.02L 104.40,316.21L 106.24,322.74L 108.09,319.47L 109.94,321.92L 111.78,315.39L 113.63,315.39L 115.48,318.66L 117.32,319.47L 119.17,321.11L 121.02,325.19L 122.86,326.01L 124.71,337.44L 126.56,333.36L 128.40,334.17L 130.25,341.52L 132.10,343.97L 133.94,346.42L 135.79,345.60L 137.63,343.15L 139.48,344.79L 141.33,342.34L 143.17,343.97L 145.02,346.42L 146.87,346.42L 148.71,348.87L 150.56,348.05L 152.41,352.95L 154.25,355.40L 156.10,347.24L 157.95,339.89L 159.79,340.70L 161.64,339.89L 163.49,338.26L 165.33,339.07L 167.18,334.17L 169.02,343.15L 170.87,347.24L 172.72,342.34L 174.56,344.79L 176.41,350.50L 178.26,352.14L 180.10,359.49L 181.95,362.75L 183.80,363.57L 185.64,370.10L 187.49,369.28L 189.34,370.10L 191.18,370.92L 193.03,370.92L 194.88,368.47L 196.72,371.73L 198.57,370.92L 200.41,370.92L 202.26,370.92L 204.11,370.92L 205.95,370.92L 207.80,373.37L 209.65,371.73L 211.49,371.73L 213.34,372.55L 215.19,371.73L 217.03,370.92L 218.88,370.10L 220.73,370.10L 222.57,369.28L 224.42,370.10L 226.27,368.47L 228.11,369.28L 229.96,370.10L 231.80,370.92L 233.65,370.92L 235.50,371.73L 237.34,370.10L 239.19,371.73L 241.04,371.73L 242.88,370.92L 244.73,370.10L 246.58,370.10L 248.42,371.73L 250.27,373.37L 252.12,373.37L 253.96,372.55L 255.81,373.37L 257.66,373.37L 259.50,372.55L 261.35,372.55L 263.20,372.55L 265.04,371.73L 266.89,372.55L 268.73,372.55L 270.58,373.37L 272.43,373.37L 274.27,372.55L 276.12,372.55L 277.97,373.37L 279.81,372.55L 281.66,371.73L 283.51,370.92L 285.35,370.92L 287.20,370.92L 289.05,370.92L 290.89,370.92L 292.74,371.73L 294.59,371.73L 296.43,370.10L 298.28,369.28L 300.12,366.02L 301.97,363.57L 303.82,363.57L 305.66,361.94L 307.51,362.75L 309.36,365.20L 311.20,366.83L 313.05,370.10L 314.90,372.55L 316.74,372.55L 318.59,373.37L 320.44,372.55L 322.28,372.55L 324.13,372.55L 325.98,373.37L 327.82,372.55L 329.67,370.10L 331.51,370.10L 333.36,370.92L 335.21,364.38L 337.05,361.12L 338.90,356.22L 340.75,349.69L 342.59,348.05L 344.44,344.79L 346.29,336.62L 348.13,334.99L 349.98,328.46L 351.83,330.09L 353.67,336.62L 355.52,336.62L 357.37,339.07L 359.21,343.97L 361.06,350.50L 362.90,356.22L 364.75,353.77L 366.60,348.87L 368.44,350.50L 370.29,344.79L 372.14,342.34L 373.98,339.07L 375.83,330.91L 377.68,326.01L 379.52,325.19L 381.37,320.29L 383.22,321.92L 385.06,310.49L 386.91,296.61L 388.76,290.08L 390.60,290.89L 392.45,278.65L 394.29,267.21L 396.14,262.32L 397.99,263.95L 399.83,261.50L 401.68,253.33L 403.53,231.29L 405.37,229.65L 407.22,232.10L 409.07,223.94L 410.91,195.36L 412.76,189.64L 414.61,169.23L 416.45,159.43L 418.30,153.71L 420.15,136.57L 421.99,124.32L 423.84,101.45L 425.68,71.24L 427.53,64.71L 429.38,53.28L 431.22,29.60L 433.07,28.78L 434.92,23.88L 436.76,46.74L 438.61,56.54L 440.46,51.64L 442.30,53.28L 444.15,26.33L 446.00,30.41L 447.84,40.21L 449.69,10.00L 451.54,15.72L 453.38,22.25L 455.23,30.41L 457.07,59.81L 458.92,60.63L 460.77,53.28" id="New cases" class="line" stroke-width="1" stroke-linecap="round"><title>New cases</title></path>
	<circle cx="25.00" cy="365.00" data-y="1.35" data-x="1584144000" r="1" fill="white"><title>2020-03-14: 1</title></circle>
	<circle cx="26.85" cy="364.71" data-y="1.39" data-x="1584230400" r="1" fill="white"><title>2020-03-15: 1</title></circle>
	<circle cx="28.69" cy="366.43" data-y="1.16" data-x="1584316800" r="1" fill="white"><title>2020-03-16: 1</title></circle>
	<circle cx="30.54" cy="367.65" data-y="0.99" data-x="1584403200" r="1" fill="white"><title>2020-03-17: 1</title></circle>
	<circle cx="32.39" cy="366.83" data-y="1.10" data-x="1584489600" r="1" fill="white"><title>2020-03-18: 1</title></circle>
	<circle cx="34.23" cy="368.47" data-y="0.88" data-x="1584576000" r="1" fill="white"><title>2020-03-19: 1</title></circle>
	<circle cx="36.08" cy="369.28" data-y="0.77" data-x="1584662400" r="1" fill="white"><title>2020-03-20: 1</title></circle>
	<circle cx="37.93" cy="366.83" data-y="1.10" data-x="1584748800" r="1" fill="white"><title>2020-03-21: 1</title></circle>
	<circle cx="39.77" cy="366.83" data-y="1.10" data-x="1584835200" r="1" fill="white"><title>2020-03-22: 1</title></circle>
	<circle cx="41.62" cy="362.75" data-y="1.65" data-x="1584921600" r="1" fill="white"><title>2020-03-23: 2</title></circle>
	<circle cx="43.46" cy="356.22" data-y="2.53" data-x="1585008000" r="1" fill="white"><title>2020-03-24: 3</title></circle>
	<circle cx="45.31" cy="357.04" data-y="2.42" data-x="1585094400" r="1" fill="white"><title>2020-03-25: 2</title></circle>
	<circle cx="47.16" cy="356.22" data-y="2.53" data-x="1585180800" r="1" fill="white"><title>2020-03-26: 3</title></circle>
	<circle cx="49.00" cy="352.95" data-y="2.97" data-x="1585267200" r="1" fill="white"><title>2020-03-27: 3</title></circle>
	<circle cx="50.85" cy="352.95" data-y="2.97" data-x="1585353600" r="1" fill="white"><title>2020-03-28: 3</title></circle>
	<circle cx="52.70" cy="350.50" data-y="3.30" data-x="1585440000" r="1" fill="white"><title>2020-03-29: 3</title></circle>
	<circle cx="54.54" cy="346.42" data-y="3.85" data-x="1585526400" r="1" fill="white"><title>2020-03-30: 4</title></circle>
	<circle cx="56.39" cy="349.69" data-y="3.41" data-x="1585612800" r="1" fill="white"><title>2020-03-31: 3</title></circle>
	<circle cx="58.24" cy="348.87" data-y="3.52" data-x="1585699200" r="1" fill="white"><title>2020-04-01: 4</title></circle>
	<circle cx="60.08" cy="345.60" data-y="3.96" data-x="1585785600" r="1" fill="white"><title>2020-04-02: 4</title></circle>
	<circle cx="61.93" cy="344.79" data-y="4.07" data-x="1585872000" r="1" fill="white"><title>2020-04-03: 4</title></circle>
	<circle cx="63.78" cy="343.15" data-y="4.29" data-x="1585958400" r="1" fill="white"><title>2020-04-04: 4</title></circle>
	<circle cx="65.62" cy="343.97" data-y="4.18" data-x="1586044800" r="1" fill="white"><title>2020-04-05: 4</title></circle>
	<circle cx="67.47" cy="348.87" data-y="3.52" data-x="1586131200" r="1" fill="white"><title>2020-04-06: 4</title></circle>
	<circle cx="69.32" cy="349.69" data-y="3.41" data-x="1586217600" r="1" fill="white"><title>2020-04-07: 3</title></circle>
	<circle cx="71.16" cy="347.24" data-y="3.74" data-x="1586304000" r="1" fill="white"><title>2020-04-08: 4</title></circle>
	<circle cx="73.01" cy="342.34" data-y="4.40" data-x="1586390400" r="1" fill="white"><title>2020-04-09: 4</title></circle>
	<circle cx="74.85" cy="340.70" data-y="4.62" data-x="1586476800" r="1" fill="white"><title>2020-04-10: 5</title></circle>
	<circle cx="76.70" cy="330.91" data-y="5.94" data-x="1586563200" r="1" fill="white"><title>2020-04-11: 6</title></circle>
	<circle cx="78.55" cy="324.37" data-y="6.82" data-x="1586649600" r="1" fill="white"><title>2020-04-12: 7</title></circle>
	<circle cx="80.39" cy="316.21" data-y="7.92" data-x="1586736000" r="1" fill="white"><title>2020-04-13: 8</title></circle>
	<circle cx="82.24" cy="300.69" data-y="10.01" data-x="1586822400" r="1" fill="white"><title>2020-04-14: 10</title></circle>
	<circle cx="84.09" cy="296.61" data-y="10.56" data-x="1586908800" r="1" fill="white"><title>2020-04-15: 11</title></circle>
	<circle cx="85.93" cy="297.43" data-y="10.45" data-x="1586995200" r="1" fill="white"><title>2020-04-16: 10</title></circle>
	<circle cx="87.78" cy="299.88" data-y="10.12" data-x="1587081600" r="1" fill="white"><title>2020-04-17: 10</title></circle>
	<circle cx="89.63" cy="307.23" data-y="9.13" data-x="1587168000" r="1" fill="white"><title>2020-04-18: 9</title></circle>
	<circle cx="91.47" cy="303.96" data-y="9.57" data-x="1587254400" r="1" fill="white"><title>2020-04-19: 10</title></circle>
	<circle cx="93.32" cy="301.51" data-y="9.90" data-x="1587340800" r="1" fill="white"><title>2020-04-20: 10</title></circle>
	<circle cx="95.17" cy="313.76" data-y="8.25" data-x="1587427200" r="1" fill="white"><title>2020-04-21: 8</title></circle>
	<circle cx="97.01" cy="317.02" data-y="7.81" data-x="1587513600" r="1" fill="white"><title>2020-04-22: 8</title></circle>
	<circle cx="98.86" cy="319.47" data-y="7.48" data-x="1587600000" r="1" fill="white"><title>2020-04-23: 7</title></circle>
	<circle cx="100.71" cy="317.02" data-y="7.81" data-x="1587686400" r="1" fill="white"><title>2020-04-24: 8</title></circle>
	<circle cx="102.55" cy="317.02" data-y="7.81" data-x="1587772800" r="1" fill="white"><title>2020-04-25: 8</title></circle>
	<circle cx="104.40" cy="316.21" data-y="7.92" data-x="1587859200" r="1" fill="white"><title>2020-04-26: 8</title></circle>
	<circle cx="106.24" cy="322.74" data-y="7.04" data-x="1587945600" r="1" fill="white"><title>2020-04-27: 7</title></circle>
	<circle cx="108.09" cy="319.47" data-y="7.48" data-x="1588032000" r="1" fill="white"><title>2020-04-28: 7</title></circle>
	<circle cx="109.94" cy="321.92" data-y="7.15" data-x="1588118400" r="1" fill="white"><title>2020-04-29: 7</title></circle>
	<circle cx="111.78" cy="315.39" data-y="8.03" data-x="1588204800" r="1" fill="white"><title>2020-04-30: 8</title></circle>
	<circle cx="113.63" cy="315.39" data-y="8.03" data-x="1588291200" r="1" fill="white"><title>2020-05-01: 8</title></circle>
	<circle cx="115.48" cy="318.66" data-y="7.59" data-x="1588377600" r="1" fill="white"><title>2020-05-02: 8</title></circle>
	<circle cx="117.32" cy="319.47" data-y="7.48" data-x="1588464000" r="1" fill="white"><title>2020-05-03: 7</title></circle>
	<circle cx="119.17" cy="321.11" data-y="7.26" data-x="1588550400" r="1" fill="white"><title>2020-05-04: 7</title></circle>
	<circle cx="121.02" cy="325.19" data-y="6.71" data-x="1588636800" r="1" fill="white"><title>2020-05-05: 7</title></circle>
	<circle cx="122.86" cy="326.01" data-y="6.60" data-x="1588723200" r="1" fill="white"><title>2020-05-06: 7</title></circle>
	<circle cx="124.71" cy="337.44" data-y="5.06" data-x="1588809600" r="1" fill="white"><title>2020-05-07: 5</title></circle>
	<circle cx="126.56" cy="333.36" data-y="5.61" data-x="1588896000" r="1" fill="white"><title>2020-05-08: 6</title></circle>
	<circle cx="128.40" cy="334.17" data-y="5.50" data-x="1588982400" r="1" fill="white"><title>2020-05-09: 6</title></circle>
	<circle cx="130.25" cy="341.52" data-y="4.51" data-x="1589068800" r="1" fill="white"><title>2020-05-10: 5</title></circle>
	<circle cx="132.10" cy="343.97" data-y="4.18" data-x="1589155200" r="1" fill="white"><title>2020-05-11: 4</title></circle>
	<circle cx="133.94" cy="346.42" data-y="3.85" data-x="1589241600" r="1" fill="white"><title>2020-05-12: 4</title></circle>
	<circle cx="135.79" cy="345.60" data-y="3.96" data-x="1589328000" r="1" fill="white"><title>2020-05-13: 4</title></circle>
	<circle cx="137.63" cy="343.15" data-y="4.29" data-x="1589414400" r="1" fill="white"><title>2020-05-14: 4</title></circle>
	<circle cx="139.48" cy="344.79" data-y="4.07" data-x="1589500800" r="1" fill="white"><title>2020-05-15: 4</title></circle>
	<circle cx="141.33" cy="342.34" data-y="4.40" data-x="1589587200" r="1" fill="white"><title>2020-05-16: 4</title></circle>
	<circle cx="143.17" cy="343.97" data-y="4.18" data-x="1589673600" r="1" fill="white"><title>2020-05-17: 4</title></circle>
	<circle cx="145.02" cy="346.42" data-y="3.85" data-x="1589760000" r="1" fill="white"><title>2020-05-18: 4</title></circle>
	<circle cx="146.87" cy="346.42" data-y="3.85" data-x="1589846400" r="1" fill="white"><title>2020-05-19: 4</title></circle>
	<circle cx="148.71" cy="348.87" data-y="3.52" data-x="1589932800" r="1" fill="white"><title>2020-05-20: 4</title></circle>
	<circle cx="150.56" cy="348.05" data-y="3.63" data-x="1590019200" r="1" fill="white"><title>2020-05-21: 4</title></circle>
	<circle cx="152.41" cy="352.95" data-y="2.97" data-x="1590105600" r="1" fill="white"><title>2020-05-22: 3</title></circle>
	<circle cx="154.25" cy="355.40" data-y="2.64" data-x="1590192000" r="1" fill="white"><title>2020-05-23: 3</title></circle>
	<circle cx="156.10" cy="347.24" data-y="3.74" data-x="1590278400" r="1" fill="white"><title>2020-05-24: 4</title></circle>
	<circle cx="157.95" cy="339.89" data-y="4.73" data-x="1590364800" r="1" fill="white"><title>2020-05-25: 5</title></circle>
	<circle cx="159.79" cy="340.70" data-y="4.62" data-x="1590451200" r="1" fill="white"><title>2020-05-26: 5</title></circle>
	<circle cx="161.64" cy="339.89" data-y="4.73" data-x="1590537600" r="1" fill="white"><title>2020-05-27: 5</title></circle>
	<circle cx="163.49" cy="338.26" data-y="4.95" data-x="1590624000" r="1" fill="white"><title>2020-05-28: 5</title></circle>
	<circle cx="165.33" cy="339.07" data-y="4.84" data-x="1590710400" r="1" fill="white"><title>2020-05-29: 5</title></circle>
	<circle cx="167.18" cy="334.17" data-y="5.50" data-x="1590796800" r="1" fill="white"><title>2020-05-30: 6</title></circle>
	<circle cx="169.02" cy="343.15" data-y="4.29" data-x="1590883200" r="1" fill="white"><title>2020-05-31: 4</title></circle>
	<circle cx="170.87" cy="347.24" data-y="3.74" data-x="1590969600" r="1" fill="white"><title>2020-06-01: 4</title></circle>
	<circle cx="172.72" cy="342.34" data-y="4.40" data-x="1591056000" r="1" fill="white"><title>2020-06-02: 4</title></circle>
	<circle cx="174.56" cy="344.79" data-y="4.07" data-x="1591142400" r="1" fill="white"><title>2020-06-03: 4</title></circle>
	<circle cx="176.41" cy="350.50" data-y="3.30" data-x="1591228800" r="1" fill="white"><title>2020-06-04: 3</title></circle>
	<circle cx="178.26" cy="352.14" data-y="3.08" data-x="1591315200" r="1" fill="white"><title>2020-06-05: 3</title></circle>
	<circle cx="180.10" cy="359.49" data-y="2.09" data-x="1591401600" r="1" fill="white"><title>2020-06-06: 2</title></circle>
	<circle cx="181.95" cy="362.75" data-y="1.65" data-x="1591488000" r="1" fill="white"><title>2020-06-07: 2</title></circle>
	<circle cx="183.80" cy="363.57" data-y="1.54" data-x="1591574400" r="1" fill="white"><title>2020-06-08: 2</title></circle>
	<circle cx="185.64" cy="370.10" data-y="0.66" data-x="1591660800" r="1" fill="white"><title>2020-06-09: 1</title></circle>
	<circle cx="187.49" cy="369.28" data-y="0.77" data-x="1591747200" r="1" fill="white"><title>2020-06-10: 1</title></circle>
	<circle cx="189.34" cy="370.10" data-y="0.66" data-x="1591833600" r="1" fill="white"><title>2020-06-11: 1</title></circle>
	<circle cx="191.18" cy="370.92" data-y="0.55" data-x="1591920000" r="1" fill="white"><title>2020-06-12: 1</title></circle>
	<circle cx="193.03" cy="370.92" data-y="0.55" data-x="1592006400" r="1" fill="white"><title>2020-06-13: 1</title></circle>
	<circle cx="194.88" cy="368.47" data-y="0.88" data-x="1592092800" r="1" fill="white"><title>2020-06-14: 1</title></circle>
	<circle cx="196.72" cy="371.73" data-y="0.44" data-x="1592179200" r="1" fill="white"><title>2020-06-15: 0</title></circle>
	<circle cx="198.57" cy="370.92" data-y="0.55" data-x="1592265600" r="1" fill="white"><title>2020-06-16: 1</title></circle>
	<circle cx="200.41" cy="370.92" data-y="0.55" data-x="1592352000" r="1" fill="white"><title>2020-06-17: 1</title></circle>
	<circle cx="202.26" cy="370.92" data-y="0.55" data-x="1592438400" r="1" fill="white"><title>2020-06-18: 1</title></circle>
	<circle cx="204.11" cy="370.92" data-y="0.55" data-x="1592524800" r="1" fill="white"><title>2020-06-19: 1</title></circle>
	<circle cx="205.95" cy="370.92" data-y="0.55" data-x="1592611200" r="1" fill="white"><title>2020-06-20: 1</title></circle>
	<circle cx="207.80" cy="373.37" data-y="0.22" data-x="1592697600" r="1" fill="white"><title>2020-06-21: 0</title></circle>
	<circle cx="209.65" cy="371.73" data-y="0.44" data-x="1592784000" r="1" fill="white"><title>2020-06-22: 0</title></circle>
	<circle cx="211.49" cy="371.73" data-y="0.44" data-x="1592870400" r="1" fill="white"><title>2020-06-23: 0</title></circle>
	<circle cx="213.34" cy="372.55" data-y="0.33" data-x="1592956800" r="1" fill="white"><title>2020-06-24: 0</title></circle>
	<circle cx="215.19" cy="371.73" data-y="0.44" data-x="1593043200" r="1" fill="white"><title>2020-06-25: 0</title></circle>
	<circle cx="217.03" cy="370.92" data-y="0.55" data-x="1593129600" r="1" fill="white"><title>2020-06-26: 1</title></circle>
	<circle cx="218.88" cy="370.10" data-y="0.66" data-x="1593216000" r="1" fill="white"><title>2020-06-27: 1</title></circle>
	<circle cx="220.73" cy="370.10" data-y="0.66" data-x="1593302400" r="1" fill="white"><title>2020-06-28: 1</title></circle>
	<circle cx="222.57" cy="369.28" data-y="0.77" data-x="1593388800" r="1" fill="white"><title>2020-06-29: 1</title></circle>
	<circle cx="224.42" cy="370.10" data-y="0.66" data-x="1593475200" r="1" fill="white"><title>2020-06-30: 1</title></circle>
	<circle cx="226.27" cy="368.47" data-y="0.88" data-x="1593561600" r="1" fill="white"><title>2020-07-01: 1</title></circle>
	<circle cx="228.11" cy="369.28" data-y="0.77" data-x="1593648000" r="1" fill="white"><title>2020-07-02: 1</title></circle>
	<circle cx="229.96" cy="370.10" data-y="0.66" data-x="1593734400" r="1" fill="white"><title>2020-07-03: 1</title></circle>
	<circle cx="231.80" cy="370.92" data-y="0.55" data-x="1593820800" r="1" fill="white"><title>2020-07-04: 1</title></circle>
	<circle cx="233.65" cy="370.92" data-y="0.55" data-x="1593907200" r="1" fill="white"><title>2020-07-05: 1</title></circle>
	<circle cx="235.50" cy="371.73" data-y="0.44" data-x="1593993600" r="1" fill="white"><title>2020-07-06: 0</title></circle>
	<circle cx="237.34" cy="370.10" data-y="0.66" data-x="1594080000" r="1" fill="white"><title>2020-07-07: 1</title></circle>
	<circle cx="239.19" cy="371.73" data-y="0.44" data-x="1594166400" r="1" fill="white"><title>2020-07-08: 0</title></circle>
	<circle cx="241.04" cy="371.73" data-y="0.44" data-x="1594252800" r="1" fill="white"><title>2020-07-09: 0</title></circle>
	<circle cx="242.88" cy="370.92" data-y="0.55" data-x="1594339200" r="1" fill="white"><title>2020-07-10: 1</title></circle>
	<circle cx="244.73" cy="370.10" data-y="0.66" data-x="1594425600" r="1" fill="white"><title>2020-07-11: 1</title></circle>
	<circle cx="246.58" cy="370.10" data-y="0.66" data-x="1594512000" r="1" fill="white"><title>2020-07-12: 1</title></circle>
	<circle cx="248.42" cy="371.73" data-y="0.44" data-x="1594598400" r="1" fill="white"><title>2020-07-13: 0</title></circle>
	<circle cx="250.27" cy="373.37" data-y="0.22" data-x="1594684800" r="1" fill="white"><title>2020-07-14: 0</title></circle>
	<circle cx="252.12" cy="373.37" data-y="0.22" data-x="1594771200" r="1" fill="white"><title>2020-07-15: 0</title></circle>
	<circle cx="253.96" cy="372.55" data-y="0.33" data-x="1594857600" r="1" fill="white"><title>2020-07-16: 0</title></circle>
	<circle cx="255.81" cy="373.37" data-y="0.22" data-x="1594944000" r="1" fill="white"><title>2020-07-17: 0</title></circle>
	<circle cx="257.66" cy="373.37" data-y="0.22" data-x="1595030400" r="1" fill="white"><title>2020-07-18: 0</title></circle>
	<circle cx="259.50" cy="372.55" data-y="0.33" data-x="1595116800" r="1" fill="white"><title>2020-07-19: 0</title></circle>
	<circle cx="261.35" cy="372.55" data-y="0.33" data-x="1595203200" r="1" fill="white"><title>2020-07-20: 0</title></circle>
	<circle cx="263.20" cy="372.55" data-y="0.33" data-x="1595289600" r="1" fill="white"><title>2020-07-21: 0</title></circle>
	<circle cx="265.04" cy="371.73" data-y="0.44" data-x="1595376000" r="1" fill="white"><title>2020-07-22: 0</title></circle>
	<circle cx="266.89" cy="372.55" data-y="0.33" data-x="1595462400" r="1" fill="white"><title>2020-07-23: 0</title></circle>
	<circle cx="268.73" cy="372.55" data-y="0.33" data-x="1595548800" r="1" fill="white"><title>2020-07-24: 0</title></circle>
	<circle cx="270.58" cy="373.37" data-y="0.22" data-x="1595635200" r="1" fill="white"><title>2020-07-25: 0</title></circle>
	<circle cx="272.43" cy="373.37" data-y="0.22" data-x="1595721600" r="1" fill="white"><title>2020-07-26: 0</title></circle>
	<circle cx="274.27" cy="372.55" data-y="0.33" data-x="1595808000" r="1" fill="white"><title>2020-07-27: 0</title></circle>
	<circle cx="276.12" cy="372.55" data-y="0.33" data-x="1595894400" r="1" fill="white"><title>2020-07-28: 0</title></circle>
	<circle cx="277.97" cy="373.37" data-y="0.22" data-x="1595980800" r="1" fill="white"><title>2020-07-29: 0</title></circle>
	<circle cx="279.81" cy="372.55" data-y="0.33" data-x="1596067200" r="1" fill="white"><title>2020-07-30: 0</title></circle>
	<circle cx="281.66" cy="371.73" data-y="0.44" data-x="1596153600" r="1" fill="white"><title>2020-07-31: 0</title></circle>
	<circle cx="283.51" cy="370.92" data-y="0.55" data-x="1596240000" r="1" fill="white"><title>2020-08-01: 1</title></circle>
	<circle cx="285.35" cy="370.92" data-y="0.55" data-x="1596326400" r="1" fill="white"><title>2020-08-02: 1</title></circle>
	<circle cx="287.20" cy="370.92" data-y="0.55" data-x="1596412800" r="1" fill="white"><title>2020-08-03: 1</title></circle>
	<circle cx="289.05" cy="370.92" data-y="0.55" data-x="1596499200" r="1" fill="white"><title>2020-08-04: 1</title></circle>
	<circle cx="290.89" cy="370.92" data-y="0.55" data-x="1596585600" r="1" fill="white"><title>2020-08-05: 1</title></circle>
	<circle cx="292.74" cy="371.73" data-y="0.44" data-x="1596672000" r="1" fill="white"><title>2020-08-06: 0</title></circle>
	<circle cx="294.59" cy="371.73" data-y="0.44" data-x="1596758400" r="1" fill="white"><title>2020-08-07: 0</title></circle>
	<circle cx="296.43" cy="370.10" data-y="0.66" data-x="1596844800" r="1" fill="white"><title>2020-08-08: 1</title></circle>
	<circle cx="298.28" cy="369.28" data-y="0.77" data-x="1596931200" r="1" fill="white"><title>2020-08-09: 1</title></circle>
	<circle cx="300.12" cy="366.02" data-y="1.21" data-x="1597017600" r="1" fill="white"><title>2020-08-10: 1</title></circle>
	<circle cx="301.97" cy="363.57" data-y="1.54" data-x="1597104000" r="1" fill="white"><title>2020-08-11: 2</title></circle>
	<circle cx="303.82" cy="363.57" data-y="1.54" data-x="1597190400" r="1" fill="white"><title>2020-08-12: 2</title></circle>
	<circle cx="305.66" cy="361.94" data-y="1.76" data-x="1597276800" r="1" fill="white"><title>2020-08-13: 2</title></circle>
	<circle cx="307.51" cy="362.75" data-y="1.65" data-x="1597363200" r="1" fill="white"><title>2020-08-14: 2</title></circle>
	<circle cx="309.36" cy="365.20" data-y="1.32" data-x="1597449600" r="1" fill="white"><title>2020-08-15: 1</title></circle>
	<circle cx="311.20" cy="366.83" data-y="1.10" data-x="1597536000" r="1" fill="white"><title>2020-08-16: 1</title></circle>
	<circle cx="313.05" cy="370.10" data-y="0.66" data-x="1597622400" r="1" fill="white"><title>2020-08-17: 1</title></circle>
	<circle cx="314.90" cy="372.55" data-y="0.33" data-x="1597708800" r="1" fill="white"><title>2020-08-18: 0</title></circle>
	<circle cx="316.74" cy="372.55" data-y="0.33" data-x="1597795200" r="1" fill="white"><title>2020-08-19: 0</title></circle>
	<circle cx="318.59" cy="373.37" data-y="0.22" data-x="1597881600" r="1" fill="white"><title>2020-08-20: 0</title></circle>
	<circle cx="320.44" cy="372.55" data-y="0.33" data-x="1597968000" r="1" fill="white"><title>2020-08-21: 0</title></circle>
	<circle cx="322.28" cy="372.55" data-y="0.33" data-x="1598054400" r="1" fill="white"><title>2020-08-22: 0</title></circle>
	<circle cx="324.13" cy="372.55" data-y="0.33" data-x="1598140800" r="1" fill="white"><title>2020-08-23: 0</title></circle>
	<circle cx="325.98" cy="373.37" data-y="0.22" data-x="1598227200" r="1" fill="white"><title>2020-08-24: 0</title></circle>
	<circle cx="327.82" cy="372.55" data-y="0.33" data-x="1598313600" r="1" fill="white"><title>2020-08-25: 0</title></circle>
	<circle cx="329.67" cy="370.10" data-y="0.66" data-x="1598400000" r="1" fill="white"><title>2020-08-26: 1</title></circle>
	<circle cx="331.51" cy="370.10" data-y="0.66" data-x="1598486400" r="1" fill="white"><title>2020-08-27: 1</title></circle>
	<circle cx="333.36" cy="370.92" data-y="0.55" data-x="1598572800" r="1" fill="white"><title>2020-08-28: 1</title></circle>
	<circle cx="335.21" cy="364.38" data-y="1.43" data-x="1598659200" r="1" fill="white"><title>2020-08-29: 1</title></circle>
	<circle cx="337.05" cy="361.12" data-y="1.87" data-x="1598745600" r="1" fill="white"><title>2020-08-30: 2</title></circle>
	<circle cx="338.90" cy="356.22" data-y="2.53" data-x="1598832000" r="1" fill="white"><title>2020-08-31: 3</title></circle>
	<circle cx="340.75" cy="349.69" data-y="3.41" data-x="1598918400" r="1" fill="white"><title>2020-09-01: 3</title></circle>
	<circle cx="342.59" cy="348.05" data-y="3.63" data-x="1599004800" r="1" fill="white"><title>2020-09-02: 4</title></circle>
	<circle cx="344.44" cy="344.79" data-y="4.07" data-x="1599091200" r="1" fill="white"><title>2020-09-03: 4</title></circle>
	<circle cx="346.29" cy="336.62" data-y="5.17" data-x="1599177600" r="1" fill="white"><title>2020-09-04: 5</title></circle>
	<circle cx="348.13" cy="334.99" data-y="5.39" data-x="1599264000" r="1" fill="white"><title>2020-09-05: 5</title></circle>
	<circle cx="349.98" cy="328.46" data-y="6.27" data-x="1599350400" r="1" fill="white"><title>2020-09-06: 6</title></circle>
	<circle cx="351.83" cy="330.09" data-y="6.05" data-x="1599436800" r="1" fill="white"><title>2020-09-07: 6</title></circle>
	<circle cx="353.67" cy="336.62" data-y="5.17" data-x="1599523200" r="1" fill="white"><title>2020-09-08: 5</title></circle>
	<circle cx="355.52" cy="336.62" data-y="5.17" data-x="1599609600" r="1" fill="white"><title>2020-09-09: 5</title></circle>
	<circle cx="357.37" cy="339.07" data-y="4.84" data-x="1599696000" r="1" fill="white"><title>2020-09-10: 5</title></circle>
	<circle cx="359.21" cy="343.97" data-y="4.18" data-x="1599782400" r="1" fill="white"><title>2020-09-11: 4</title></circle>
	<circle cx="361.06" cy="350.50" data-y="3.30" data-x="1599868800" r="1" fill="white"><title>2020-09-12: 3</title></circle>
	<circle cx="362.90" cy="356.22" data-y="2.53" data-x="1599955200" r="1" fill="white"><title>2020-09-13: 3</title></circle>
	<circle cx="364.75" cy="353.77" data-y="2.86" data-x="1600041600" r="1" fill="white"><title>2020-09-14: 3</title></circle>
	<circle cx="366.60" cy="348.87" data-y="3.52" data-x="1600128000" r="1" fill="white"><title>2020-09-15: 4</title></circle>
	<circle cx="368.44" cy="350.50" data-y="3.30" data-x="1600214400" r="1" fill="white"><title>2020-09-16: 3</title></circle>
	<circle cx="370.29" cy="344.79" data-y="4.07" data-x="1600300800" r="1" fill="white"><title>2020-09-17: 4</title></circle>
	<circle cx="372.14" cy="342.34" data-y="4.40" data-x="1600387200" r="1" fill="white"><title>2020-09-18: 4</title></circle>
	<circle cx="373.98" cy="339.07" data-y="4.84" data-x="1600473600" r="1" fill="white"><title>2020-09-19: 5</title></circle>
	<circle cx="375.83" cy="330.91" data-y="5.94" data-x="1600560000" r="1" fill="white"><title>2020-09-20: 6</title></circle>
	<circle cx="377.68" cy="326.01" data-y="6.60" data-x="1600646400" r="1" fill="white"><title>2020-09-21: 7</title></circle>
	<circle cx="379.52" cy="325.19" data-y="6.71" data-x="1600732800" r="1" fill="white"><title>2020-09-22: 7</title></circle>
	<circle cx="381.37" cy="320.29" data-y="7.37" data-x="1600819200" r="1" fill="white"><title>2020-09-23: 7</title></circle>
	<circle cx="383.22" cy="321.92" data-y="7.15" data-x="1600905600" r="1" fill="white"><title>2020-09-24: 7</title></circle>
	<circle cx="385.06" cy="310.49" data-y="8.69" data-x="1600992000" r="1" fill="white"><title>2020-09-25: 9</title></circle>
	<circle cx="386.91" cy="296.61" data-y="10.56" data-x="1601078400" r="1" fill="white"><title>2020-09-26: 11</title></circle>
	<circle cx="388.76" cy="290.08" data-y="11.44" data-x="1601164800" r="1" fill="white"><title>2020-09-27: 11</title></circle>
	<circle cx="390.60" cy="290.89" data-y="11.33" data-x="1601251200" r="1" fill="white"><title>2020-09-28: 11</title></circle>
	<circle cx="392.45" cy="278.65" data-y="12.98" data-x="1601337600" r="1" fill="white"><title>2020-09-29: 13</title></circle>
	<circle cx="394.29" cy="267.21" data-y="14.53" data-x="1601424000" r="1" fill="white"><title>2020-09-30: 15</title></circle>
	<circle cx="396.14" cy="262.32" data-y="15.19" data-x="1601510400" r="1" fill="white"><title>2020-10-01: 15</title></circle>
	<circle cx="397.99" cy="263.95" data-y="14.97" data-x="1601596800" r="1" fill="white"><title>2020-10-02: 15</title></circle>
	<circle cx="399.83" cy="261.50" data-y="15.30" data-x="1601683200" r="1" fill="white"><title>2020-10-03: 15</title></circle>
	<circle cx="401.68" cy="253.33" data-y="16.40" data-x="1601769600" r="1" fill="white"><title>2020-10-04: 16</title></circle>
	<circle cx="403.53" cy="231.29" data-y="19.37" data-x="1601856000" r="1" fill="white"><title>2020-10-05: 19</title></circle>
	<circle cx="405.37" cy="229.65" data-y="19.59" data-x="1601942400" r="1" fill="white"><title>2020-10-06: 20</title></circle>
	<circle cx="407.22" cy="232.10" data-y="19.26" data-x="1602028800" r="1" fill="white"><title>2020-10-07: 19</title></circle>
	<circle cx="409.07" cy="223.94" data-y="20.36" data-x="1602115200" r="1" fill="white"><title>2020-10-08: 20</title></circle>
	<circle cx="410.91" cy="195.36" data-y="24.21" data-x="1602201600" r="1" fill="white"><title>2020-10-09: 24</title></circle>
	<circle cx="412.76" cy="189.64" data-y="24.98" data-x="1602288000" r="1" fill="white"><title>2020-10-10: 25</title></circle>
	<circle cx="414.61" cy="169.23" data-y="27.73" data-x="1602374400" r="1" fill="white"><title>2020-10-11: 28</title></circle>
	<circle cx="416.45" cy="159.43" data-y="29.05" data-x="1602460800" r="1" fill="white"><title>2020-10-12: 29</title></circle>
	<circle cx="418.30" cy="153.71" data-y="29.82" data-x="1602547200" r="1" fill="white"><title>2020-10-13: 30</title></circle>
	<circle cx="420.15" cy="136.57" data-y="32.13" data-x="1602633600" r="1" fill="white"><title>2020-10-14: 32</title></circle>
	<circle cx="421.99" cy="124.32" data-y="33.78" data-x="1602720000" r="1" fill="white"><title>2020-10-15: 34</title></circle>
	<circle cx="423.84" cy="101.45" data-y="36.86" data-x="1602806400" r="1" fill="white"><title>2020-10-16: 37</title></circle>
	<circle cx="425.68" cy="71.24" data-y="40.93" data-x="1602892800" r="1" fill="white"><title>2020-10-17: 41</title></circle>
	<circle cx="427.53" cy="64.71" data-y="41.81" data-x="1602979200" r="1" fill="white"><title>2020-10-18: 42</title></circle>
	<circle cx="429.38" cy="53.28" data-y="43.36" data-x="1603065600" r="1" fill="white"><title>2020-10-19: 43</title></circle>
	<circle cx="431.22" cy="29.60" data-y="46.55" data-x="1603152000" r="1" fill="white"><title>2020-10-20: 47</title></circle>
	<circle cx="433.07" cy="28.78" data-y="46.66" data-x="1603238400" r="1" fill="white"><title>2020-10-21: 47</title></circle>
	<circle cx="434.92" cy="23.88" data-y="47.32" data-x="1603324800" r="1" fill="white"><title>2020-10-22: 47</title></circle>
	<circle cx="436.76" cy="46.74" data-y="44.24" data-x="1603411200" r="1" fill="white"><title>2020-10-23: 44</title></circle>
	<circle cx="438.61" cy="56.54" data-y="42.91" data-x="1603497600" r="1" fill="white"><title>2020-10-24: 43</title></circle>
	<circle cx="440.46" cy="51.64" data-y="43.58" data-x="1603584000" r="1" fill="white"><title>2020-10-25: 44</title></circle>
	<circle cx="442.30" cy="53.28" data-y="43.36" data-x="1603670400" r="1" fill="white"><title>2020-10-26: 43</title></circle>
	<circle cx="444.15" cy="26.33" data-y="46.99" data-x="1603756800" r="1" fill="white"><title>2020-10-27: 47</title></circle>
	<circle cx="446.00" cy="30.41" data-y="46.44" data-x="1603843200" r="1" fill="white"><title>2020-10-28: 46</title></circle>
	<circle cx="447.84" cy="40.21" data-y="45.12" data-x="1603929600" r="1" fill="white"><title>2020-10-29: 45</title></circle>
	<circle cx="449.69" cy="10.00" data-y="49.19" data-x="1604016000" r="1" fill="white"><title>2020-10-30: 49</title></circle>
	<circle cx="451.54" cy="15.72" data-y="48.42" data-x="1604102400" r="1" fill="white"><title>2020-10-31: 48</title></circle>
	<circle cx="453.38" cy="22.25" data-y="47.54" data-x="1604188800" r="1" fill="white"><title>2020-11-01: 48</title></circle>
	<circle cx="455.23" cy="30.41" data-y="46.44" data-x="1604275200" r="1" fill="white"><title>2020-11-02: 46</title></circle>
	<circle cx="457.07" cy="59.81" data-y="42.47" data-x="1604361600" r="1" fill="white"><title>2020-11-03: 42</title></circle>
	<circle cx="458.92" cy="60.63" data-y="42.36" data-x="1604448000" r="1" fill="white"><title>2020-11-04: 42</title></circle>
	<circle cx="460.77" cy="53.28" data-y="43.36" data-x="1604534400" r="1" fill="white"><title>2020-11-05: 43</title></circle>
</g>
<g data-series="recent-cases" class="data-series">
	<path d="M 460.77,53.28L 462.61,111.25L 464.46,152.90L 466.31,176.85L 468.15,197.81L 470.00,236.39" id="Recent cases" class="line" stroke-width="1" stroke-linecap="round" stroke-dasharray="4,6" stroke-dashoffset="4"><title>Recent cases</title></path>
	<circle cx="460.77" cy="53.28" data-y="43.36" data-x="1604534400" r="2.5" fill="white"><title>2020-11-05: 43</title></circle>
	<circle cx="462.61" cy="111.25" data-y="35.54" data-x="1604620800" r="2.5" fill="white"><title>2020-11-06: 36</title></circle>
	<circle cx="464.46" cy="152.90" data-y="29.93" data-x="1604707200" r="2.5" fill="white"><title>2020-11-07: 30</title></circle>
	<circle cx="466.31" cy="176.85" data-y="26.70" data-x="1604793600" r="2.5" fill="white"><title>2020-11-08: 27</title></circle>
	<circle cx="468.15" cy="197.81" data-y="23.88" data-x="1604880000" r="2.5" fill="white"><title>2020-11-09: 24</title></circle>
	<circle cx="470.00" cy="236.39" data-y="18.68" data-x="1604966400" r="2.5" fill="white"><title>2020-11-10: 19</title></circle>
</g>
</svg>
