<svg width="480" height="400" viewBox="0 0 480 400" xmlns="http://www.w3.org/2000/svg" style="overflow:display" preserveAspectRatio="xMinYMin meet" overflow="visible">
<defs>
	<style>
	.data-series path.line { fill-opacity: 0; stroke: black; }
	.data-series path.line.dotted { stroke-dasharray: 12 20 }
	.data-series:hover path.line, .data-series.on path.line { stroke-width: 1; }
	.data-series:hover circle, .data-series.on circle { display: inline; }
	.graph-grid { font-family: "Helvetica Neue",Helvetica,Arial,"Lucida Grande",sans-serif; }
	.graph-grid line { stroke: black; stroke-width: 1; stroke-linecap: round; }
	.graph-grid.graph-grid-x text { text-anchor: middle; dominant-baseline: hanging; transform: translateY(10px); }
	.graph-grid.graph-grid-y text { text-anchor: end; dominant-baseline: middle; transform: translateX(-10px); }
	</style>
</defs>
<g class="graph-grid graph-grid-y">
	<line x1="25.00" y1="375.00" x2="470.00" y2="375.00" data-left="25"></line>
	<text x="35" y="375" text-anchor="end">0</text>
	<text x="35" y="250.86231300813" text-anchor="end">20</text>
	<text x="35" y="126.72462601626" text-anchor="end">40</text>
	<text x="35" y="2.58693902439027" text-anchor="end">60</text>
	<text style="text-anchor:middle;dominant-baseline:hanging;font-weight:bold;transform: translateY(192.5px) rotate(-90deg);"></text>
</g>
<g class="graph-grid graph-grid-x">
	<line class="tick" x1="65.05" y1="375.00" x2="65.05" y2="380.00"></line>
	<text x="65.05" y="375" text-anchor="middle">A</text>
	<line class="tick" x1="109.55" y1="375.00" x2="109.55" y2="380.00"></line>
	<text x="109.55" y="375" text-anchor="middle">M</text>
	<line class="tick" x1="155.53" y1="375.00" x2="155.53" y2="380.00"></line>
	<text x="155.533333333333" y="375" text-anchor="middle">J</text>
	<line class="tick" x1="200.03" y1="375.00" x2="200.03" y2="380.00"></line>
	<text x="200.033333333333" y="375" text-anchor="middle">J</text>
	<line class="tick" x1="246.02" y1="375.00" x2="246.02" y2="380.00"></line>
	<text x="246.016666666667" y="375" text-anchor="middle">A</text>
	<line class="tick" x1="292.00" y1="375.00" x2="292.00" y2="380.00"></line>
	<text x="292" y="375" text-anchor="middle">S</text>
	<line class="tick" x1="336.50" y1="375.00" x2="336.50" y2="380.00"></line>
	<text x="336.5" y="375" text-anchor="middle">O</text>
	<line class="tick" x1="382.48" y1="375.00" x2="382.48" y2="380.00"></line>
	<text x="382.483333333333" y="375" text-anchor="middle">N</text>
	<line class="tick" x1="426.98" y1="375.00" x2="426.98" y2="380.00"></line>
	<text x="426.983333333333" y="375" text-anchor="middle">D</text>
	<text style="text-anchor:middle;dominant-baseline:hanging;font-weight:bold;transform: translateY(192.5px) rotate(-90deg);"></text>
</g>
<g data-series="widespread" class="data-series">
	<path d="M 25.00,331.55L 470.00,331.55" id="E07000118-level-0" class="line" stroke-width="1" stroke-linecap="round" stroke-dasharray="3,3" fill-opacity="0.3" opacity="0.3"><title>Widespread</title></path>
</g>
<g data-series="substantial" class="data-series">
	<path d="M 25.00,350.17L 470.00,350.17" id="E07000118-level-1" class="line" stroke-width="1" stroke-linecap="round" stroke-dasharray="3,3" fill-opacity="0.3" opacity="0.3"><title>Substantial</title></path>
</g>
<g data-series="moderate" class="data-series">
	<path d="M 25.00,368.79L 470.00,368.79" id="E07000118-level-2" class="line" stroke-width="1" stroke-linecap="round" stroke-dasharray="3,3" fill-opacity="0.3" opacity="0.3"><title>Moderate</title></path>
</g>
<g data-series="new-cases" class="data-series">
	<path d="M 25.00,372.40L 26.48,371.88L 27.97,372.40L 29.45,372.77L 30.93,374.26L 32.42,373.52L 33.90,373.52L 35.38,372.77L 36.87,372.77L 38.35,372.77L 39.83,372.03L 41.32,371.29L 42.80,370.55L 44.28,369.81L 45.77,370.55L 47.25,368.32L 48.73,366.84L 50.22,363.87L 51.70,363.13L 53.18,360.16L 54.67,360.90L 56.15,358.68L 57.63,356.45L 59.12,352.00L 60.60,352.00L 62.08,347.55L 63.57,345.33L 65.05,337.91L 66.53,334.20L 68.02,331.97L 69.50,331.23L 70.98,331.23L 72.47,330.49L 73.95,331.23L 75.43,331.97L 76.92,333.46L 78.40,331.97L 79.88,330.49L 81.37,322.33L 82.85,316.39L 84.33,314.91L 85.82,306.75L 87.30,301.55L 88.78,305.26L 90.27,308.97L 91.75,305.26L 93.23,312.68L 94.72,311.94L 96.20,319.36L 97.68,325.29L 99.17,319.36L 100.65,317.13L 102.13,328.26L 103.62,324.55L 105.10,326.78L 106.58,330.49L 108.07,324.55L 109.55,331.97L 111.03,328.26L 112.52,330.49L 114.00,332.71L 115.48,333.46L 116.97,333.46L 118.45,335.68L 119.93,331.97L 121.42,334.20L 122.90,329.00L 124.38,329.00L 125.87,329.75L 127.35,329.75L 128.83,331.23L 130.32,334.20L 131.80,329.00L 133.28,332.71L 134.77,335.68L 136.25,336.42L 137.73,335.68L 139.22,339.39L 140.70,342.36L 142.18,349.78L 143.67,346.81L 145.15,342.36L 146.63,338.65L 148.12,339.39L 149.60,337.16L 151.08,334.94L 152.57,335.68L 154.05,337.91L 155.53,343.84L 157.02,347.55L 158.50,347.55L 159.98,349.78L 161.47,352.00L 162.95,354.97L 164.43,356.45L 165.92,354.23L 167.40,355.71L 168.88,357.20L 170.37,357.94L 171.85,359.42L 173.33,360.16L 174.82,358.68L 176.30,360.90L 177.78,362.39L 179.27,364.61L 180.75,364.61L 182.23,363.13L 183.72,364.61L 185.20,368.32L 186.68,369.81L 188.17,369.81L 189.65,369.81L 191.13,370.55L 192.62,372.03L 194.10,372.03L 195.58,372.77L 197.07,372.03L 198.55,372.77L 200.03,372.77L 201.52,373.52L 203.00,373.52L 204.48,373.52L 205.97,372.77L 207.45,374.26L 208.93,374.26L 210.42,373.52L 211.90,373.52L 213.38,372.77L 214.87,372.77L 216.35,373.52L 217.83,373.52L 219.32,372.77L 220.80,373.52L 222.28,373.52L 223.77,372.77L 225.25,372.03L 226.73,371.29L 228.22,371.29L 229.70,371.29L 231.18,371.29L 232.67,370.55L 234.15,372.03L 235.63,372.77L 237.12,372.03L 238.60,372.03L 240.08,369.81L 241.57,369.07L 243.05,369.81L 244.53,368.32L 246.02,366.84L 247.50,368.32L 248.98,364.61L 250.47,364.61L 251.95,365.36L 253.43,365.36L 254.92,366.84L 256.40,366.84L 257.88,366.10L 259.37,368.32L 260.85,368.32L 262.33,366.84L 263.82,366.84L 265.30,366.10L 266.78,363.87L 268.27,362.39L 269.75,363.13L 271.23,366.10L 272.72,367.58L 274.20,366.84L 275.68,367.58L 277.17,369.81L 278.65,370.55L 280.13,369.81L 281.62,368.32L 283.10,367.58L 284.58,368.32L 286.07,367.58L 287.55,366.10L 289.03,363.87L 290.52,363.87L 292.00,362.39L 293.48,360.90L 294.97,359.42L 296.45,351.26L 297.93,352.00L 299.42,346.81L 300.90,345.33L 302.38,345.33L 303.87,340.13L 305.35,335.68L 306.83,338.65L 308.32,335.68L 309.80,337.16L 311.28,334.20L 312.77,335.68L 314.25,331.97L 315.73,320.84L 317.22,318.62L 318.70,311.94L 320.18,304.52L 321.67,297.10L 323.15,288.94L 324.63,288.94L 326.12,295.62L 327.60,291.17L 329.08,291.91L 330.57,291.91L 332.05,283.01L 333.53,274.85L 335.02,265.20L 336.50,248.14L 337.98,229.59L 339.47,203.63L 340.95,192.50L 342.43,182.11L 343.92,162.08L 345.40,157.63L 346.88,163.57L 348.37,153.18L 349.85,158.37L 351.33,162.08L 352.82,150.96L 354.30,160.60L 355.78,152.44L 357.27,128.70L 358.75,104.22L 360.23,73.06L 361.72,35.97L 363.20,29.29L 364.68,10.00L 366.17,18.90L 367.65,39.67L 369.13,49.32L 370.62,51.54L 372.10,76.03L 373.58,81.22L 375.07,99.77L 376.55,96.80L 378.03,93.09L 379.52,93.09L 381.00,116.83L 382.48,114.60L 383.97,124.99L 385.45,125.73L 386.93,129.44L 388.42,127.96L 389.90,139.09L 391.38,143.54L 392.87,136.12L 394.35,139.83L 395.83,134.63L 397.32,127.96L 398.80,131.67L 400.28,140.57L 401.77,135.38L 403.25,153.92L 404.73,164.31L 406.22,173.95L 407.70,189.53L 409.18,198.43L 410.67,201.40L 412.15,209.56L 413.63,210.30L 415.12,208.08L 416.60,204.37L 418.08,198.43L 419.57,199.18L 421.05,210.30L 422.53,214.76L 424.02,222.92L 425.50,231.82L 426.98,215.50L 428.47,220.69L 429.95,217.72L 431.43,200.66L 432.92,195.47L 434.40,191.02L 435.88,185.82L 437.37,199.18L 438.85,195.47L 440.33,193.98L 441.82,205.11L 443.30,196.95L 444.78,196.21L 446.27,191.76L 447.75,200.66L 449.23,194.73L 450.72,192.50L 452.20,197.69L 453.68,202.14L 455.17,181.37L 456.65,172.47L 458.13,185.82L 459.62,174.70L 461.10,162.83L 462.58,146.50" id="New cases" class="line" stroke-width="1" stroke-linecap="round"><title>New cases</title></path>
	<circle cx="25.00" cy="372.40" data-y="0.42" data-x="1583366400" r="1" fill="white"><title>2020-03-05: 0</title></circle>
	<circle cx="26.48" cy="371.88" data-y="0.50" data-x="1583452800" r="1" fill="white"><title>2020-03-06: 1</title></circle>
	<circle cx="27.97" cy="372.40" data-y="0.42" data-x="1583539200" r="1" fill="white"><title>2020-03-07: 0</title></circle>
	<circle cx="29.45" cy="372.77" data-y="0.36" data-x="1583625600" r="1" fill="white"><title>2020-03-08: 0</title></circle>
	<circle cx="30.93" cy="374.26" data-y="0.12" data-x="1583712000" r="1" fill="white"><title>2020-03-09: 0</title></circle>
	<circle cx="32.42" cy="373.52" data-y="0.24" data-x="1583798400" r="1" fill="white"><title>2020-03-10: 0</title></circle>
	<circle cx="33.90" cy="373.52" data-y="0.24" data-x="1583884800" r="1" fill="white"><title>2020-03-11: 0</title></circle>
	<circle cx="35.38" cy="372.77" data-y="0.36" data-x="1583971200" r="1" fill="white"><title>2020-03-12: 0</title></circle>
	<circle cx="36.87" cy="372.77" data-y="0.36" data-x="1584057600" r="1" fill="white"><title>2020-03-13: 0</title></circle>
	<circle cx="38.35" cy="372.77" data-y="0.36" data-x="1584144000" r="1" fill="white"><title>2020-03-14: 0</title></circle>
	<circle cx="39.83" cy="372.03" data-y="0.48" data-x="1584230400" r="1" fill="white"><title>2020-03-15: 0</title></circle>
	<circle cx="41.32" cy="371.29" data-y="0.60" data-x="1584316800" r="1" fill="white"><title>2020-03-16: 1</title></circle>
	<circle cx="42.80" cy="370.55" data-y="0.72" data-x="1584403200" r="1" fill="white"><title>2020-03-17: 1</title></circle>
	<circle cx="44.28" cy="369.81" data-y="0.84" data-x="1584489600" r="1" fill="white"><title>2020-03-18: 1</title></circle>
	<circle cx="45.77" cy="370.55" data-y="0.72" data-x="1584576000" r="1" fill="white"><title>2020-03-19: 1</title></circle>
	<circle cx="47.25" cy="368.32" data-y="1.08" data-x="1584662400" r="1" fill="white"><title>2020-03-20: 1</title></circle>
	<circle cx="48.73" cy="366.84" data-y="1.31" data-x="1584748800" r="1" fill="white"><title>2020-03-21: 1</title></circle>
	<circle cx="50.22" cy="363.87" data-y="1.79" data-x="1584835200" r="1" fill="white"><title>2020-03-22: 2</title></circle>
	<circle cx="51.70" cy="363.13" data-y="1.91" data-x="1584921600" r="1" fill="white"><title>2020-03-23: 2</title></circle>
	<circle cx="53.18" cy="360.16" data-y="2.39" data-x="1585008000" r="1" fill="white"><title>2020-03-24: 2</title></circle>
	<circle cx="54.67" cy="360.90" data-y="2.27" data-x="1585094400" r="1" fill="white"><title>2020-03-25: 2</title></circle>
	<circle cx="56.15" cy="358.68" data-y="2.63" data-x="1585180800" r="1" fill="white"><title>2020-03-26: 3</title></circle>
	<circle cx="57.63" cy="356.45" data-y="2.99" data-x="1585267200" r="1" fill="white"><title>2020-03-27: 3</title></circle>
	<circle cx="59.12" cy="352.00" data-y="3.71" data-x="1585353600" r="1" fill="white"><title>2020-03-28: 4</title></circle>
	<circle cx="60.60" cy="352.00" data-y="3.71" data-x="1585440000" r="1" fill="white"><title>2020-03-29: 4</title></circle>
	<circle cx="62.08" cy="347.55" data-y="4.42" data-x="1585526400" r="1" fill="white"><title>2020-03-30: 4</title></circle>
	<circle cx="63.57" cy="345.33" data-y="4.78" data-x="1585612800" r="1" fill="white"><title>2020-03-31: 5</title></circle>
	<circle cx="65.05" cy="337.91" data-y="5.98" data-x="1585699200" r="1" fill="white"><title>2020-04-01: 6</title></circle>
	<circle cx="66.53" cy="334.20" data-y="6.57" data-x="1585785600" r="1" fill="white"><title>2020-04-02: 7</title></circle>
	<circle cx="68.02" cy="331.97" data-y="6.93" data-x="1585872000" r="1" fill="white"><title>2020-04-03: 7</title></circle>
	<circle cx="69.50" cy="331.23" data-y="7.05" data-x="1585958400" r="1" fill="white"><title>2020-04-04: 7</title></circle>
	<circle cx="70.98" cy="331.23" data-y="7.05" data-x="1586044800" r="1" fill="white"><title>2020-04-05: 7</title></circle>
	<circle cx="72.47" cy="330.49" data-y="7.17" data-x="1586131200" r="1" fill="white"><title>2020-04-06: 7</title></circle>
	<circle cx="73.95" cy="331.23" data-y="7.05" data-x="1586217600" r="1" fill="white"><title>2020-04-07: 7</title></circle>
	<circle cx="75.43" cy="331.97" data-y="6.93" data-x="1586304000" r="1" fill="white"><title>2020-04-08: 7</title></circle>
	<circle cx="76.92" cy="333.46" data-y="6.69" data-x="1586390400" r="1" fill="white"><title>2020-04-09: 7</title></circle>
	<circle cx="78.40" cy="331.97" data-y="6.93" data-x="1586476800" r="1" fill="white"><title>2020-04-10: 7</title></circle>
	<circle cx="79.88" cy="330.49" data-y="7.17" data-x="1586563200" r="1" fill="white"><title>2020-04-11: 7</title></circle>
	<circle cx="81.37" cy="322.33" data-y="8.49" data-x="1586649600" r="1" fill="white"><title>2020-04-12: 8</title></circle>
	<circle cx="82.85" cy="316.39" data-y="9.44" data-x="1586736000" r="1" fill="white"><title>2020-04-13: 9</title></circle>
	<circle cx="84.33" cy="314.91" data-y="9.68" data-x="1586822400" r="1" fill="white"><title>2020-04-14: 10</title></circle>
	<circle cx="85.82" cy="306.75" data-y="11.00" data-x="1586908800" r="1" fill="white"><title>2020-04-15: 11</title></circle>
	<circle cx="87.30" cy="301.55" data-y="11.83" data-x="1586995200" r="1" fill="white"><title>2020-04-16: 12</title></circle>
	<circle cx="88.78" cy="305.26" data-y="11.24" data-x="1587081600" r="1" fill="white"><title>2020-04-17: 11</title></circle>
	<circle cx="90.27" cy="308.97" data-y="10.64" data-x="1587168000" r="1" fill="white"><title>2020-04-18: 11</title></circle>
	<circle cx="91.75" cy="305.26" data-y="11.24" data-x="1587254400" r="1" fill="white"><title>2020-04-19: 11</title></circle>
	<circle cx="93.23" cy="312.68" data-y="10.04" data-x="1587340800" r="1" fill="white"><title>2020-04-20: 10</title></circle>
	<circle cx="94.72" cy="311.94" data-y="10.16" data-x="1587427200" r="1" fill="white"><title>2020-04-21: 10</title></circle>
	<circle cx="96.20" cy="319.36" data-y="8.96" data-x="1587513600" r="1" fill="white"><title>2020-04-22: 9</title></circle>
	<circle cx="97.68" cy="325.29" data-y="8.01" data-x="1587600000" r="1" fill="white"><title>2020-04-23: 8</title></circle>
	<circle cx="99.17" cy="319.36" data-y="8.96" data-x="1587686400" r="1" fill="white"><title>2020-04-24: 9</title></circle>
	<circle cx="100.65" cy="317.13" data-y="9.32" data-x="1587772800" r="1" fill="white"><title>2020-04-25: 9</title></circle>
	<circle cx="102.13" cy="328.26" data-y="7.53" data-x="1587859200" r="1" fill="white"><title>2020-04-26: 8</title></circle>
	<circle cx="103.62" cy="324.55" data-y="8.13" data-x="1587945600" r="1" fill="white"><title>2020-04-27: 8</title></circle>
	<circle cx="105.10" cy="326.78" data-y="7.77" data-x="1588032000" r="1" fill="white"><title>2020-04-28: 8</title></circle>
	<circle cx="106.58" cy="330.49" data-y="7.17" data-x="1588118400" r="1" fill="white"><title>2020-04-29: 7</title></circle>
	<circle cx="108.07" cy="324.55" data-y="8.13" data-x="1588204800" r="1" fill="white"><title>2020-04-30: 8</title></circle>
	<circle cx="109.55" cy="331.97" data-y="6.93" data-x="1588291200" r="1" fill="white"><title>2020-05-01: 7</title></circle>
	<circle cx="111.03" cy="328.26" data-y="7.53" data-x="1588377600" r="1" fill="white"><title>2020-05-02: 8</title></circle>
	<circle cx="112.52" cy="330.49" data-y="7.17" data-x="1588464000" r="1" fill="white"><title>2020-05-03: 7</title></circle>
	<circle cx="114.00" cy="332.71" data-y="6.81" data-x="1588550400" r="1" fill="white"><title>2020-05-04: 7</title></circle>
	<circle cx="115.48" cy="333.46" data-y="6.69" data-x="1588636800" r="1" fill="white"><title>2020-05-05: 7</title></circle>
	<circle cx="116.97" cy="333.46" data-y="6.69" data-x="1588723200" r="1" fill="white"><title>2020-05-06: 7</title></circle>
	<circle cx="118.45" cy="335.68" data-y="6.33" data-x="1588809600" r="1" fill="white"><title>2020-05-07: 6</title></circle>
	<circle cx="119.93" cy="331.97" data-y="6.93" data-x="1588896000" r="1" fill="white"><title>2020-05-08: 7</title></circle>
	<circle cx="121.42" cy="334.20" data-y="6.57" data-x="1588982400" r="1" fill="white"><title>2020-05-09: 7</title></circle>
	<circle cx="122.90" cy="329.00" data-y="7.41" data-x="1589068800" r="1" fill="white"><title>2020-05-10: 7</title></circle>
	<circle cx="124.38" cy="329.00" data-y="7.41" data-x="1589155200" r="1" fill="white"><title>2020-05-11: 7</title></circle>
	<circle cx="125.87" cy="329.75" data-y="7.29" data-x="1589241600" r="1" fill="white"><title>2020-05-12: 7</title></circle>
	<circle cx="127.35" cy="329.75" data-y="7.29" data-x="1589328000" r="1" fill="white"><title>2020-05-13: 7</title></circle>
	<circle cx="128.83" cy="331.23" data-y="7.05" data-x="1589414400" r="1" fill="white"><title>2020-05-14: 7</title></circle>
	<circle cx="130.32" cy="334.20" data-y="6.57" data-x="1589500800" r="1" fill="white"><title>2020-05-15: 7</title></circle>
	<circle cx="131.80" cy="329.00" data-y="7.41" data-x="1589587200" r="1" fill="white"><title>2020-05-16: 7</title></circle>
	<circle cx="133.28" cy="332.71" data-y="6.81" data-x="1589673600" r="1" fill="white"><title>2020-05-17: 7</title></circle>
	<circle cx="134.77" cy="335.68" data-y="6.33" data-x="1589760000" r="1" fill="white"><title>2020-05-18: 6</title></circle>
	<circle cx="136.25" cy="336.42" data-y="6.22" data-x="1589846400" r="1" fill="white"><title>2020-05-19: 6</title></circle>
	<circle cx="137.73" cy="335.68" data-y="6.33" data-x="1589932800" r="1" fill="white"><title>2020-05-20: 6</title></circle>
	<circle cx="139.22" cy="339.39" data-y="5.74" data-x="1590019200" r="1" fill="white"><title>2020-05-21: 6</title></circle>
	<circle cx="140.70" cy="342.36" data-y="5.26" data-x="1590105600" r="1" fill="white"><title>2020-05-22: 5</title></circle>
	<circle cx="142.18" cy="349.78" data-y="4.06" data-x="1590192000" r="1" fill="white"><title>2020-05-23: 4</title></circle>
	<circle cx="143.67" cy="346.81" data-y="4.54" data-x="1590278400" r="1" fill="white"><title>2020-05-24: 5</title></circle>
	<circle cx="145.15" cy="342.36" data-y="5.26" data-x="1590364800" r="1" fill="white"><title>2020-05-25: 5</title></circle>
	<circle cx="146.63" cy="338.65" data-y="5.86" data-x="1590451200" r="1" fill="white"><title>2020-05-26: 6</title></circle>
	<circle cx="148.12" cy="339.39" data-y="5.74" data-x="1590537600" r="1" fill="white"><title>2020-05-27: 6</title></circle>
	<circle cx="149.60" cy="337.16" data-y="6.10" data-x="1590624000" r="1" fill="white"><title>2020-05-28: 6</title></circle>
	<circle cx="151.08" cy="334.94" data-y="6.45" data-x="1590710400" r="1" fill="white"><title>2020-05-29: 6</title></circle>
	<circle cx="152.57" cy="335.68" data-y="6.33" data-x="1590796800" r="1" fill="white"><title>2020-05-30: 6</title></circle>
	<circle cx="154.05" cy="337.91" data-y="5.98" data-x="1590883200" r="1" fill="white"><title>2020-05-31: 6</title></circle>
	<circle cx="155.53" cy="343.84" data-y="5.02" data-x="1590969600" r="1" fill="white"><title>2020-06-01: 5</title></circle>
	<circle cx="157.02" cy="347.55" data-y="4.42" data-x="1591056000" r="1" fill="white"><title>2020-06-02: 4</title></circle>
	<circle cx="158.50" cy="347.55" data-y="4.42" data-x="1591142400" r="1" fill="white"><title>2020-06-03: 4</title></circle>
	<circle cx="159.98" cy="349.78" data-y="4.06" data-x="1591228800" r="1" fill="white"><title>2020-06-04: 4</title></circle>
	<circle cx="161.47" cy="352.00" data-y="3.71" data-x="1591315200" r="1" fill="white"><title>2020-06-05: 4</title></circle>
	<circle cx="162.95" cy="354.97" data-y="3.23" data-x="1591401600" r="1" fill="white"><title>2020-06-06: 3</title></circle>
	<circle cx="164.43" cy="356.45" data-y="2.99" data-x="1591488000" r="1" fill="white"><title>2020-06-07: 3</title></circle>
	<circle cx="165.92" cy="354.23" data-y="3.35" data-x="1591574400" r="1" fill="white"><title>2020-06-08: 3</title></circle>
	<circle cx="167.40" cy="355.71" data-y="3.11" data-x="1591660800" r="1" fill="white"><title>2020-06-09: 3</title></circle>
	<circle cx="168.88" cy="357.20" data-y="2.87" data-x="1591747200" r="1" fill="white"><title>2020-06-10: 3</title></circle>
	<circle cx="170.37" cy="357.94" data-y="2.75" data-x="1591833600" r="1" fill="white"><title>2020-06-11: 3</title></circle>
	<circle cx="171.85" cy="359.42" data-y="2.51" data-x="1591920000" r="1" fill="white"><title>2020-06-12: 3</title></circle>
	<circle cx="173.33" cy="360.16" data-y="2.39" data-x="1592006400" r="1" fill="white"><title>2020-06-13: 2</title></circle>
	<circle cx="174.82" cy="358.68" data-y="2.63" data-x="1592092800" r="1" fill="white"><title>2020-06-14: 3</title></circle>
	<circle cx="176.30" cy="360.90" data-y="2.27" data-x="1592179200" r="1" fill="white"><title>2020-06-15: 2</title></circle>
	<circle cx="177.78" cy="362.39" data-y="2.03" data-x="1592265600" r="1" fill="white"><title>2020-06-16: 2</title></circle>
	<circle cx="179.27" cy="364.61" data-y="1.67" data-x="1592352000" r="1" fill="white"><title>2020-06-17: 2</title></circle>
	<circle cx="180.75" cy="364.61" data-y="1.67" data-x="1592438400" r="1" fill="white"><title>2020-06-18: 2</title></circle>
	<circle cx="182.23" cy="363.13" data-y="1.91" data-x="1592524800" r="1" fill="white"><title>2020-06-19: 2</title></circle>
	<circle cx="183.72" cy="364.61" data-y="1.67" data-x="1592611200" r="1" fill="white"><title>2020-06-20: 2</title></circle>
	<circle cx="185.20" cy="368.32" data-y="1.08" data-x="1592697600" r="1" fill="white"><title>2020-06-21: 1</title></circle>
	<circle cx="186.68" cy="369.81" data-y="0.84" data-x="1592784000" r="1" fill="white"><title>2020-06-22: 1</title></circle>
	<circle cx="188.17" cy="369.81" data-y="0.84" data-x="1592870400" r="1" fill="white"><title>2020-06-23: 1</title></circle>
	<circle cx="189.65" cy="369.81" data-y="0.84" data-x="1592956800" r="1" fill="white"><title>2020-06-24: 1</title></circle>
	<circle cx="191.13" cy="370.55" data-y="0.72" data-x="1593043200" r="1" fill="white"><title>2020-06-25: 1</title></circle>
	<circle cx="192.62" cy="372.03" data-y="0.48" data-x="1593129600" r="1" fill="white"><title>2020-06-26: 0</title></circle>
	<circle cx="194.10" cy="372.03" data-y="0.48" data-x="1593216000" r="1" fill="white"><title>2020-06-27: 0</title></circle>
	<circle cx="195.58" cy="372.77" data-y="0.36" data-x="1593302400" r="1" fill="white"><title>2020-06-28: 0</title></circle>
	<circle cx="197.07" cy="372.03" data-y="0.48" data-x="1593388800" r="1" fill="white"><title>2020-06-29: 0</title></circle>
	<circle cx="198.55" cy="372.77" data-y="0.36" data-x="1593475200" r="1" fill="white"><title>2020-06-30: 0</title></circle>
	<circle cx="200.03" cy="372.77" data-y="0.36" data-x="1593561600" r="1" fill="white"><title>2020-07-01: 0</title></circle>
	<circle cx="201.52" cy="373.52" data-y="0.24" data-x="1593648000" r="1" fill="white"><title>2020-07-02: 0</title></circle>
	<circle cx="203.00" cy="373.52" data-y="0.24" data-x="1593734400" r="1" fill="white"><title>2020-07-03: 0</title></circle>
	<circle cx="204.48" cy="373.52" data-y="0.24" data-x="1593820800" r="1" fill="white"><title>2020-07-04: 0</title></circle>
	<circle cx="205.97" cy="372.77" data-y="0.36" data-x="1593907200" r="1" fill="white"><title>2020-07-05: 0</title></circle>
	<circle cx="207.45" cy="374.26" data-y="0.12" data-x="1593993600" r="1" fill="white"><title>2020-07-06: 0</title></circle>
	<circle cx="208.93" cy="374.26" data-y="0.12" data-x="1594080000" r="1" fill="white"><title>2020-07-07: 0</title></circle>
	<circle cx="210.42" cy="373.52" data-y="0.24" data-x="1594166400" r="1" fill="white"><title>2020-07-08: 0</title></circle>
	<circle cx="211.90" cy="373.52" data-y="0.24" data-x="1594252800" r="1" fill="white"><title>2020-07-09: 0</title></circle>
	<circle cx="213.38" cy="372.77" data-y="0.36" data-x="1594339200" r="1" fill="white"><title>2020-07-10: 0</title></circle>
	<circle cx="214.87" cy="372.77" data-y="0.36" data-x="1594425600" r="1" fill="white"><title>2020-07-11: 0</title></circle>
	<circle cx="216.35" cy="373.52" data-y="0.24" data-x="1594512000" r="1" fill="white"><title>2020-07-12: 0</title></circle>
	<circle cx="217.83" cy="373.52" data-y="0.24" data-x="1594598400" r="1" fill="white"><title>2020-07-13: 0</title></circle>
	<circle cx="219.32" cy="372.77" data-y="0.36" data-x="1594684800" r="1" fill="white"><title>2020-07-14: 0</title></circle>
	<circle cx="220.80" cy="373.52" data-y="0.24" data-x="1594771200" r="1" fill="white"><title>2020-07-15: 0</title></circle>
	<circle cx="222.28" cy="373.52" data-y="0.24" data-x="1594857600" r="1" fill="white"><title>2020-07-16: 0</title></circle>
	<circle cx="223.77" cy="372.77" data-y="0.36" data-x="1594944000" r="1" fill="white"><title>2020-07-17: 0</title></circle>
	<circle cx="225.25" cy="372.03" data-y="0.48" data-x="1595030400" r="1" fill="white"><title>2020-07-18: 0</title></circle>
	<circle cx="226.73" cy="371.29" data-y="0.60" data-x="1595116800" r="1" fill="white"><title>2020-07-19: 1</title></circle>
	<circle cx="228.22" cy="371.29" data-y="0.60" data-x="1595203200" r="1" fill="white"><title>2020-07-20: 1</title></circle>
	<circle cx="229.70" cy="371.29" data-y="0.60" data-x="1595289600" r="1" fill="white"><title>2020-07-21: 1</title></circle>
	<circle cx="231.18" cy="371.29" data-y="0.60" data-x="1595376000" r="1" fill="white"><title>2020-07-22: 1</title></circle>
	<circle cx="232.67" cy="370.55" data-y="0.72" data-x="1595462400" r="1" fill="white"><title>2020-07-23: 1</title></circle>
	<circle cx="234.15" cy="372.03" data-y="0.48" data-x="1595548800" r="1" fill="white"><title>2020-07-24: 0</title></circle>
	<circle cx="235.63" cy="372.77" data-y="0.36" data-x="1595635200" r="1" fill="white"><title>2020-07-25: 0</title></circle>
	<circle cx="237.12" cy="372.03" data-y="0.48" data-x="1595721600" r="1" fill="white"><title>2020-07-26: 0</title></circle>
	<circle cx="238.60" cy="372.03" data-y="0.48" data-x="1595808000" r="1" fill="white"><title>2020-07-27: 0</title></circle>
	<circle cx="240.08" cy="369.81" data-y="0.84" data-x="1595894400" r="1" fill="white"><title>2020-07-28: 1</title></circle>
	<circle cx="241.57" cy="369.07" data-y="0.96" data-x="1595980800" r="1" fill="white"><title>2020-07-29: 1</title></circle>
	<circle cx="243.05" cy="369.81" data-y="0.84" data-x="1596067200" r="1" fill="white"><title>2020-07-30: 1</title></circle>
	<circle cx="244.53" cy="368.32" data-y="1.08" data-x="1596153600" r="1" fill="white"><title>2020-07-31: 1</title></circle>
	<circle cx="246.02" cy="366.84" data-y="1.31" data-x="1596240000" r="1" fill="white"><title>2020-08-01: 1</title></circle>
	<circle cx="247.50" cy="368.32" data-y="1.08" data-x="1596326400" r="1" fill="white"><title>2020-08-02: 1</title></circle>
	<circle cx="248.98" cy="364.61" data-y="1.67" data-x="1596412800" r="1" fill="white"><title>2020-08-03: 2</title></circle>
	<circle cx="250.47" cy="364.61" data-y="1.67" data-x="1596499200" r="1" fill="white"><title>2020-08-04: 2</title></circle>
	<circle cx="251.95" cy="365.36" data-y="1.55" data-x="1596585600" r="1" fill="white"><title>2020-08-05: 2</title></circle>
	<circle cx="253.43" cy="365.36" data-y="1.55" data-x="1596672000" r="1" fill="white"><title>2020-08-06: 2</title></circle>
	<circle cx="254.92" cy="366.84" data-y="1.31" data-x="1596758400" r="1" fill="white"><title>2020-08-07: 1</title></circle>
	<circle cx="256.40" cy="366.84" data-y="1.31" data-x="1596844800" r="1" fill="white"><title>2020-08-08: 1</title></circle>
	<circle cx="257.88" cy="366.10" data-y="1.43" data-x="1596931200" r="1" fill="white"><title>2020-08-09: 1</title></circle>
	<circle cx="259.37" cy="368.32" data-y="1.08" data-x="1597017600" r="1" fill="white"><title>2020-08-10: 1</title></circle>
	<circle cx="260.85" cy="368.32" data-y="1.08" data-x="1597104000" r="1" fill="white"><title>2020-08-11: 1</title></circle>
	<circle cx="262.33" cy="366.84" data-y="1.31" data-x="1597190400" r="1" fill="white"><title>2020-08-12: 1</title></circle>
	<circle cx="263.82" cy="366.84" data-y="1.31" data-x="1597276800" r="1" fill="white"><title>2020-08-13: 1</title></circle>
	<circle cx="265.30" cy="366.10" data-y="1.43" data-x="1597363200" r="1" fill="white"><title>2020-08-14: 1</title></circle>
	<circle cx="266.78" cy="363.87" data-y="1.79" data-x="1597449600" r="1" fill="white"><title>2020-08-15: 2</title></circle>
	<circle cx="268.27" cy="362.39" data-y="2.03" data-x="1597536000" r="1" fill="white"><title>2020-08-16: 2</title></circle>
	<circle cx="269.75" cy="363.13" data-y="1.91" data-x="1597622400" r="1" fill="white"><title>2020-08-17: 2</title></circle>
	<circle cx="271.23" cy="366.10" data-y="1.43" data-x="1597708800" r="1" fill="white"><title>2020-08-18: 1</title></circle>
	<circle cx="272.72" cy="367.58" data-y="1.20" data-x="1597795200" r="1" fill="white"><title>2020-08-19: 1</title></circle>
	<circle cx="274.20" cy="366.84" data-y="1.31" data-x="1597881600" r="1" fill="white"><title>2020-08-20: 1</title></circle>
	<circle cx="275.68" cy="367.58" data-y="1.20" data-x="1597968000" r="1" fill="white"><title>2020-08-21: 1</title></circle>
	<circle cx="277.17" cy="369.81" data-y="0.84" data-x="1598054400" r="1" fill="white"><title>2020-08-22: 1</title></circle>
	<circle cx="278.65" cy="370.55" data-y="0.72" data-x="1598140800" r="1" fill="white"><title>2020-08-23: 1</title></circle>
	<circle cx="280.13" cy="369.81" data-y="0.84" data-x="1598227200" r="1" fill="white"><title>2020-08-24: 1</title></circle>
	<circle cx="281.62" cy="368.32" data-y="1.08" data-x="1598313600" r="1" fill="white"><title>2020-08-25: 1</title></circle>
	<circle cx="283.10" cy="367.58" data-y="1.20" data-x="1598400000" r="1" fill="white"><title>2020-08-26: 1</title></circle>
	<circle cx="284.58" cy="368.32" data-y="1.08" data-x="1598486400" r="1" fill="white"><title>2020-08-27: 1</title></circle>
	<circle cx="286.07" cy="367.58" data-y="1.20" data-x="1598572800" r="1" fill="white"><title>2020-08-28: 1</title></circle>
	<circle cx="287.55" cy="366.10" data-y="1.43" data-x="1598659200" r="1" fill="white"><title>2020-08-29: 1</title></circle>
	<circle cx="289.03" cy="363.87" data-y="1.79" data-x="1598745600" r="1" fill="white"><title>2020-08-30: 2</title></circle>
	<circle cx="290.52" cy="363.87" data-y="1.79" data-x="1598832000" r="1" fill="white"><title>2020-08-31: 2</title></circle>
	<circle cx="292.00" cy="362.39" data-y="2.03" data-x="1598918400" r="1" fill="white"><title>2020-09-01: 2</title></circle>
	<circle cx="293.48" cy="360.90" data-y="2.27" data-x="1599004800" r="1" fill="white"><title>2020-09-02: 2</title></circle>
	<circle cx="294.97" cy="359.42" data-y="2.51" data-x="1599091200" r="1" fill="white"><title>2020-09-03: 3</title></circle>
	<circle cx="296.45" cy="351.26" data-y="3.82" data-x="1599177600" r="1" fill="white"><title>2020-09-04: 4</title></circle>
	<circle cx="297.93" cy="352.00" data-y="3.71" data-x="1599264000" r="1" fill="white"><title>2020-09-05: 4</title></circle>
	<circle cx="299.42" cy="346.81" data-y="4.54" data-x="1599350400" r="1" fill="white"><title>2020-09-06: 5</title></circle>
	<circle cx="300.90" cy="345.33" data-y="4.78" data-x="1599436800" r="1" fill="white"><title>2020-09-07: 5</title></circle>
	<circle cx="302.38" cy="345.33" data-y="4.78" data-x="1599523200" r="1" fill="white"><title>2020-09-08: 5</title></circle>
	<circle cx="303.87" cy="340.13" data-y="5.62" data-x="1599609600" r="1" fill="white"><title>2020-09-09: 6</title></circle>
	<circle cx="305.35" cy="335.68" data-y="6.33" data-x="1599696000" r="1" fill="white"><title>2020-09-10: 6</title></circle>
	<circle cx="306.83" cy="338.65" data-y="5.86" data-x="1599782400" r="1" fill="white"><title>2020-09-11: 6</title></circle>
	<circle cx="308.32" cy="335.68" data-y="6.33" data-x="1599868800" r="1" fill="white"><title>2020-09-12: 6</title></circle>
	<circle cx="309.80" cy="337.16" data-y="6.10" data-x="1599955200" r="1" fill="white"><title>2020-09-13: 6</title></circle>
	<circle cx="311.28" cy="334.20" data-y="6.57" data-x="1600041600" r="1" fill="white"><title>2020-09-14: 7</title></circle>
	<circle cx="312.77" cy="335.68" data-y="6.33" data-x="1600128000" r="1" fill="white"><title>2020-09-15: 6</title></circle>
	<circle cx="314.25" cy="331.97" data-y="6.93" data-x="1600214400" r="1" fill="white"><title>2020-09-16: 7</title></circle>
	<circle cx="315.73" cy="320.84" data-y="8.73" data-x="1600300800" r="1" fill="white"><title>2020-09-17: 9</title></circle>
	<circle cx="317.22" cy="318.62" data-y="9.08" data-x="1600387200" r="1" fill="white"><title>2020-09-18: 9</title></circle>
	<circle cx="318.70" cy="311.94" data-y="10.16" data-x="1600473600" r="1" fill="white"><title>2020-09-19: 10</title></circle>
	<circle cx="320.18" cy="304.52" data-y="11.35" data-x="1600560000" r="1" fill="white"><title>2020-09-20: 11</title></circle>
	<circle cx="321.67" cy="297.10" data-y="12.55" data-x="1600646400" r="1" fill="white"><title>2020-09-21: 13</title></circle>
	<circle cx="323.15" cy="288.94" data-y="13.86" data-x="1600732800" r="1" fill="white"><title>2020-09-22: 14</title></circle>
	<circle cx="324.63" cy="288.94" data-y="13.86" data-x="1600819200" r="1" fill="white"><title>2020-09-23: 14</title></circle>
	<circle cx="326.12" cy="295.62" data-y="12.79" data-x="1600905600" r="1" fill="white"><title>2020-09-24: 13</title></circle>
	<circle cx="327.60" cy="291.17" data-y="13.51" data-x="1600992000" r="1" fill="white"><title>2020-09-25: 14</title></circle>
	<circle cx="329.08" cy="291.91" data-y="13.39" data-x="1601078400" r="1" fill="white"><title>2020-09-26: 13</title></circle>
	<circle cx="330.57" cy="291.91" data-y="13.39" data-x="1601164800" r="1" fill="white"><title>2020-09-27: 13</title></circle>
	<circle cx="332.05" cy="283.01" data-y="14.82" data-x="1601251200" r="1" fill="white"><title>2020-09-28: 15</title></circle>
	<circle cx="333.53" cy="274.85" data-y="16.14" data-x="1601337600" r="1" fill="white"><title>2020-09-29: 16</title></circle>
	<circle cx="335.02" cy="265.20" data-y="17.69" data-x="1601424000" r="1" fill="white"><title>2020-09-30: 18</title></circle>
	<circle cx="336.50" cy="248.14" data-y="20.44" data-x="1601510400" r="1" fill="white"><title>2020-10-01: 20</title></circle>
	<circle cx="337.98" cy="229.59" data-y="23.43" data-x="1601596800" r="1" fill="white"><title>2020-10-02: 23</title></circle>
	<circle cx="339.47" cy="203.63" data-y="27.61" data-x="1601683200" r="1" fill="white"><title>2020-10-03: 28</title></circle>
	<circle cx="340.95" cy="192.50" data-y="29.40" data-x="1601769600" r="1" fill="white"><title>2020-10-04: 29</title></circle>
	<circle cx="342.43" cy="182.11" data-y="31.08" data-x="1601856000" r="1" fill="white"><title>2020-10-05: 31</title></circle>
	<circle cx="343.92" cy="162.08" data-y="34.30" data-x="1601942400" r="1" fill="white"><title>2020-10-06: 34</title></circle>
	<circle cx="345.40" cy="157.63" data-y="35.02" data-x="1602028800" r="1" fill="white"><title>2020-10-07: 35</title></circle>
	<circle cx="346.88" cy="163.57" data-y="34.06" data-x="1602115200" r="1" fill="white"><title>2020-10-08: 34</title></circle>
	<circle cx="348.37" cy="153.18" data-y="35.74" data-x="1602201600" r="1" fill="white"><title>2020-10-09: 36</title></circle>
	<circle cx="349.85" cy="158.37" data-y="34.90" data-x="1602288000" r="1" fill="white"><title>2020-10-10: 35</title></circle>
	<circle cx="351.33" cy="162.08" data-y="34.30" data-x="1602374400" r="1" fill="white"><title>2020-10-11: 34</title></circle>
	<circle cx="352.82" cy="150.96" data-y="36.10" data-x="1602460800" r="1" fill="white"><title>2020-10-12: 36</title></circle>
	<circle cx="354.30" cy="160.60" data-y="34.54" data-x="1602547200" r="1" fill="white"><title>2020-10-13: 35</title></circle>
	<circle cx="355.78" cy="152.44" data-y="35.86" data-x="1602633600" r="1" fill="white"><title>2020-10-14: 36</title></circle>
	<circle cx="357.27" cy="128.70" data-y="39.68" data-x="1602720000" r="1" fill="white"><title>2020-10-15: 40</title></circle>
	<circle cx="358.75" cy="104.22" data-y="43.63" data-x="1602806400" r="1" fill="white"><title>2020-10-16: 44</title></circle>
	<circle cx="360.23" cy="73.06" data-y="48.65" data-x="1602892800" r="1" fill="white"><title>2020-10-17: 49</title></circle>
	<circle cx="361.72" cy="35.97" data-y="54.62" data-x="1602979200" r="1" fill="white"><title>2020-10-18: 55</title></circle>
	<circle cx="363.20" cy="29.29" data-y="55.70" data-x="1603065600" r="1" fill="white"><title>2020-10-19: 56</title></circle>
	<circle cx="364.68" cy="10.00" data-y="58.81" data-x="1603152000" r="1" fill="white"><title>2020-10-20: 59</title></circle>
	<circle cx="366.17" cy="18.90" data-y="57.37" data-x="1603238400" r="1" fill="white"><title>2020-10-21: 57</title></circle>
	<circle cx="367.65" cy="39.67" data-y="54.02" data-x="1603324800" r="1" fill="white"><title>2020-10-22: 54</title></circle>
	<circle cx="369.13" cy="49.32" data-y="52.47" data-x="1603411200" r="1" fill="white"><title>2020-10-23: 52</title></circle>
	<circle cx="370.62" cy="51.54" data-y="52.11" data-x="1603497600" r="1" fill="white"><title>2020-10-24: 52</title></circle>
	<circle cx="372.10" cy="76.03" data-y="48.17" data-x="1603584000" r="1" fill="white"><title>2020-10-25: 48</title></circle>
	<circle cx="373.58" cy="81.22" data-y="47.33" data-x="1603670400" r="1" fill="white"><title>2020-10-26: 47</title></circle>
	<circle cx="375.07" cy="99.77" data-y="44.34" data-x="1603756800" r="1" fill="white"><title>2020-10-27: 44</title></circle>
	<circle cx="376.55" cy="96.80" data-y="44.82" data-x="1603843200" r="1" fill="white"><title>2020-10-28: 45</title></circle>
	<circle cx="378.03" cy="93.09" data-y="45.42" data-x="1603929600" r="1" fill="white"><title>2020-10-29: 45</title></circle>
	<circle cx="379.52" cy="93.09" data-y="45.42" data-x="1604016000" r="1" fill="white"><title>2020-10-30: 45</title></circle>
	<circle cx="381.00" cy="116.83" data-y="41.59" data-x="1604102400" r="1" fill="white"><title>2020-10-31: 42</title></circle>
	<circle cx="382.48" cy="114.60" data-y="41.95" data-x="1604188800" r="1" fill="white"><title>2020-11-01: 42</title></circle>
	<circle cx="383.97" cy="124.99" data-y="40.28" data-x="1604275200" r="1" fill="white"><title>2020-11-02: 40</title></circle>
	<circle cx="385.45" cy="125.73" data-y="40.16" data-x="1604361600" r="1" fill="white"><title>2020-11-03: 40</title></circle>
	<circle cx="386.93" cy="129.44" data-y="39.56" data-x="1604448000" r="1" fill="white"><title>2020-11-04: 40</title></circle>
	<circle cx="388.42" cy="127.96" data-y="39.80" data-x="1604534400" r="1" fill="white"><title>2020-11-05: 40</title></circle>
	<circle cx="389.90" cy="139.09" data-y="38.01" data-x="1604620800" r="1" fill="white"><title>2020-11-06: 38</title></circle>
	<circle cx="391.38" cy="143.54" data-y="37.29" data-x="1604707200" r="1" fill="white"><title>2020-11-07: 37</title></circle>
	<circle cx="392.87" cy="136.12" data-y="38.49" data-x="1604793600" r="1" fill="white"><title>2020-11-08: 38</title></circle>
	<circle cx="394.35" cy="139.83" data-y="37.89" data-x="1604880000" r="1" fill="white"><title>2020-11-09: 38</title></circle>
	<circle cx="395.83" cy="134.63" data-y="38.73" data-x="1604966400" r="1" fill="white"><title>2020-11-10: 39</title></circle>
	<circle cx="397.32" cy="127.96" data-y="39.80" data-x="1605052800" r="1" fill="white"><title>2020-11-11: 40</title></circle>
	<circle cx="398.80" cy="131.67" data-y="39.20" data-x="1605139200" r="1" fill="white"><title>2020-11-12: 39</title></circle>
	<circle cx="400.28" cy="140.57" data-y="37.77" data-x="1605225600" r="1" fill="white"><title>2020-11-13: 38</title></circle>
	<circle cx="401.77" cy="135.38" data-y="38.61" data-x="1605312000" r="1" fill="white"><title>2020-11-14: 39</title></circle>
	<circle cx="403.25" cy="153.92" data-y="35.62" data-x="1605398400" r="1" fill="white"><title>2020-11-15: 36</title></circle>
	<circle cx="404.73" cy="164.31" data-y="33.94" data-x="1605484800" r="1" fill="white"><title>2020-11-16: 34</title></circle>
	<circle cx="406.22" cy="173.95" data-y="32.39" data-x="1605571200" r="1" fill="white"><title>2020-11-17: 32</title></circle>
	<circle cx="407.70" cy="189.53" data-y="29.88" data-x="1605657600" r="1" fill="white"><title>2020-11-18: 30</title></circle>
	<circle cx="409.18" cy="198.43" data-y="28.45" data-x="1605744000" r="1" fill="white"><title>2020-11-19: 28</title></circle>
	<circle cx="410.67" cy="201.40" data-y="27.97" data-x="1605830400" r="1" fill="white"><title>2020-11-20: 28</title></circle>
	<circle cx="412.15" cy="209.56" data-y="26.65" data-x="1605916800" r="1" fill="white"><title>2020-11-21: 27</title></circle>
	<circle cx="413.63" cy="210.30" data-y="26.53" data-x="1606003200" r="1" fill="white"><title>2020-11-22: 27</title></circle>
	<circle cx="415.12" cy="208.08" data-y="26.89" data-x="1606089600" r="1" fill="white"><title>2020-11-23: 27</title></circle>
	<circle cx="416.60" cy="204.37" data-y="27.49" data-x="1606176000" r="1" fill="white"><title>2020-11-24: 27</title></circle>
	<circle cx="418.08" cy="198.43" data-y="28.45" data-x="1606262400" r="1" fill="white"><title>2020-11-25: 28</title></circle>
	<circle cx="419.57" cy="199.18" data-y="28.33" data-x="1606348800" r="1" fill="white"><title>2020-11-26: 28</title></circle>
	<circle cx="421.05" cy="210.30" data-y="26.53" data-x="1606435200" r="1" fill="white"><title>2020-11-27: 27</title></circle>
	<circle cx="422.53" cy="214.76" data-y="25.82" data-x="1606521600" r="1" fill="white"><title>2020-11-28: 26</title></circle>
	<circle cx="424.02" cy="222.92" data-y="24.50" data-x="1606608000" r="1" fill="white"><title>2020-11-29: 25</title></circle>
	<circle cx="425.50" cy="231.82" data-y="23.07" data-x="1606694400" r="1" fill="white"><title>2020-11-30: 23</title></circle>
	<circle cx="426.98" cy="215.50" data-y="25.70" data-x="1606780800" r="1" fill="white"><title>2020-12-01: 26</title></circle>
	<circle cx="428.47" cy="220.69" data-y="24.86" data-x="1606867200" r="1" fill="white"><title>2020-12-02: 25</title></circle>
	<circle cx="429.95" cy="217.72" data-y="25.34" data-x="1606953600" r="1" fill="white"><title>2020-12-03: 25</title></circle>
	<circle cx="431.43" cy="200.66" data-y="28.09" data-x="1607040000" r="1" fill="white"><title>2020-12-04: 28</title></circle>
	<circle cx="432.92" cy="195.47" data-y="28.92" data-x="1607126400" r="1" fill="white"><title>2020-12-05: 29</title></circle>
	<circle cx="434.40" cy="191.02" data-y="29.64" data-x="1607212800" r="1" fill="white"><title>2020-12-06: 30</title></circle>
	<circle cx="435.88" cy="185.82" data-y="30.48" data-x="1607299200" r="1" fill="white"><title>2020-12-07: 30</title></circle>
	<circle cx="437.37" cy="199.18" data-y="28.33" data-x="1607385600" r="1" fill="white"><title>2020-12-08: 28</title></circle>
	<circle cx="438.85" cy="195.47" data-y="28.92" data-x="1607472000" r="1" fill="white"><title>2020-12-09: 29</title></circle>
	<circle cx="440.33" cy="193.98" data-y="29.16" data-x="1607558400" r="1" fill="white"><title>2020-12-10: 29</title></circle>
	<circle cx="441.82" cy="205.11" data-y="27.37" data-x="1607644800" r="1" fill="white"><title>2020-12-11: 27</title></circle>
	<circle cx="443.30" cy="196.95" data-y="28.69" data-x="1607731200" r="1" fill="white"><title>2020-12-12: 29</title></circle>
	<circle cx="444.78" cy="196.21" data-y="28.81" data-x="1607817600" r="1" fill="white"><title>2020-12-13: 29</title></circle>
	<circle cx="446.27" cy="191.76" data-y="29.52" data-x="1607904000" r="1" fill="white"><title>2020-12-14: 30</title></circle>
	<circle cx="447.75" cy="200.66" data-y="28.09" data-x="1607990400" r="1" fill="white"><title>2020-12-15: 28</title></circle>
	<circle cx="449.23" cy="194.73" data-y="29.04" data-x="1608076800" r="1" fill="white"><title>2020-12-16: 29</title></circle>
	<circle cx="450.72" cy="192.50" data-y="29.40" data-x="1608163200" r="1" fill="white"><title>2020-12-17: 29</title></circle>
	<circle cx="452.20" cy="197.69" data-y="28.57" data-x="1608249600" r="1" fill="white"><title>2020-12-18: 29</title></circle>
	<circle cx="453.68" cy="202.14" data-y="27.85" data-x="1608336000" r="1" fill="white"><title>2020-12-19: 28</title></circle>
	<circle cx="455.17" cy="181.37" data-y="31.20" data-x="1608422400" r="1" fill="white"><title>2020-12-20: 31</title></circle>
	<circle cx="456.65" cy="172.47" data-y="32.63" data-x="1608508800" r="1" fill="white"><title>2020-12-21: 33</title></circle>
	<circle cx="458.13" cy="185.82" data-y="30.48" data-x="1608595200" r="1" fill="white"><title>2020-12-22: 30</title></circle>
	<circle cx="459.62" cy="174.70" data-y="32.27" data-x="1608681600" r="1" fill="white"><title>2020-12-23: 32</title></circle>
	<circle cx="461.10" cy="162.83" data-y="34.18" data-x="1608768000" r="1" fill="white"><title>2020-12-24: 34</title></circle>
	<circle cx="462.58" cy="146.50" data-y="36.81" data-x="1608854400" r="1" fill="white"><title>2020-12-25: 37</title></circle>
</g>
<g data-series="recent-cases" class="data-series">
	<path d="M 462.58,146.50L 464.07,151.70L 465.55,194.73L 467.03,202.76L 468.52,179.74L 470.00,194.54" id="Recent cases" class="line" stroke-width="1" stroke-linecap="round" stroke-dasharray="4,6" stroke-dashoffset="4"><title>Recent cases</title></path>
	<circle cx="462.58" cy="146.50" data-y="36.81" data-x="1608854400" r="2.5" fill="white"><title>2020-12-25: 37</title></circle>
	<circle cx="464.07" cy="151.70" data-y="35.98" data-x="1608940800" r="2.5" fill="white"><title>2020-12-26: 36</title></circle>
	<circle cx="465.55" cy="194.73" data-y="29.04" data-x="1609027200" r="2.5" fill="white"><title>2020-12-27: 29</title></circle>
	<circle cx="467.03" cy="202.76" data-y="27.75" data-x="1609113600" r="2.5" fill="white"><title>2020-12-28: 28</title></circle>
	<circle cx="468.52" cy="179.74" data-y="31.46" data-x="1609200000" r="2.5" fill="white"><title>2020-12-29: 31</title></circle>
	<circle cx="470.00" cy="194.54" data-y="29.07" data-x="1609286400" r="2.5" fill="white"><title>2020-12-30: 29</title></circle>
</g>
</svg>
