<svg width="480" height="400" viewBox="0 0 480 400" xmlns="http://www.w3.org/2000/svg" style="overflow:display" preserveAspectRatio="xMinYMin meet" overflow="visible">
<defs>
	<style>
	.data-series path.line { fill-opacity: 0; stroke: black; }
	.data-series path.line.dotted { stroke-dasharray: 12 20 }
	.data-series circle { display: none; }
	.data-series:hover path.line, .data-series.on path.line { stroke-width: 1; }
	.data-series:hover circle, .data-series.on circle { display: inline; }
	.data-series circle:hover, .data-series circle.on { r: 1px!important; }
	.graph-grid { font-family: "Helvetica Neue",Helvetica,Arial,"Lucida Grande",sans-serif; }
	.graph-grid line { stroke: black; stroke-width: 1; stroke-linecap: round; }
	.graph-grid.graph-grid-x text { text-anchor: middle; dominant-baseline: hanging; transform: translateY(10px); }
	.graph-grid.graph-grid-y text { text-anchor: end; dominant-baseline: middle; transform: translateX(-10px); }
	</style>
</defs>
<g class="graph-grid graph-grid-y">
	<line x1="15.00" y1="375.00" x2="470.00" y2="375.00" data-left="15"></line>
	<text x="25" y="375" text-anchor="end">0</text>
	<text x="25" y="272.474818181818" text-anchor="end">5</text>
	<text x="25" y="169.949636363636" text-anchor="end">10</text>
	<text x="25" y="67.4244545454545" text-anchor="end">15</text>
	<text style="text-anchor:middle;dominant-baseline:hanging;font-weight:bold;transform: translateY(192.5px) rotate(-90deg);"></text>
</g>
<g class="graph-grid graph-grid-x">
	<line class="tick" x1="73.91" y1="375.00" x2="73.91" y2="380.00"></line>
	<text x="73.90625" y="375" text-anchor="middle">A</text>
	<line class="tick" x1="134.84" y1="375.00" x2="134.84" y2="380.00"></line>
	<text x="134.84375" y="375" text-anchor="middle">M</text>
	<line class="tick" x1="197.81" y1="375.00" x2="197.81" y2="380.00"></line>
	<text x="197.8125" y="375" text-anchor="middle">J</text>
	<line class="tick" x1="258.75" y1="375.00" x2="258.75" y2="380.00"></line>
	<text x="258.75" y="375" text-anchor="middle">J</text>
	<line class="tick" x1="321.72" y1="375.00" x2="321.72" y2="380.00"></line>
	<text x="321.71875" y="375" text-anchor="middle">A</text>
	<line class="tick" x1="384.69" y1="375.00" x2="384.69" y2="380.00"></line>
	<text x="384.6875" y="375" text-anchor="middle">S</text>
	<line class="tick" x1="445.62" y1="375.00" x2="445.62" y2="380.00"></line>
	<text x="445.625" y="375" text-anchor="middle">O</text>
	<text style="text-anchor:middle;dominant-baseline:hanging;font-weight:bold;transform: translateY(192.5px) rotate(-90deg);"></text>
</g>
<g data-series="widespread" class="data-series">
	<path d="M 15.00,231.46L 470.00,231.46" id="E07000105-level-0" class="line" stroke-width="1" stroke-linecap="round" stroke-dasharray="3,3" fill-opacity="0.3" opacity="0.3"><title>Widespread</title></path>
</g>
<g data-series="substantial" class="data-series">
	<path d="M 15.00,292.98L 470.00,292.98" id="E07000105-level-1" class="line" stroke-width="1" stroke-linecap="round" stroke-dasharray="3,3" fill-opacity="0.3" opacity="0.3"><title>Substantial</title></path>
</g>
<g data-series="moderate" class="data-series">
	<path d="M 15.00,354.49L 470.00,354.49" id="E07000105-level-2" class="line" stroke-width="1" stroke-linecap="round" stroke-dasharray="3,3" fill-opacity="0.3" opacity="0.3"><title>Moderate</title></path>
</g>
<g data-series="new-cases" class="data-series">
	<path d="M 15.00,371.13L 17.03,371.90L 19.06,372.42L 21.09,372.79L 23.12,375.00L 25.16,375.00L 27.19,372.79L 29.22,370.58L 31.25,368.36L 33.28,366.15L 35.31,366.15L 37.34,366.15L 39.38,361.73L 41.41,361.73L 43.44,361.73L 45.47,363.94L 47.50,363.94L 49.53,350.67L 51.56,348.45L 53.59,346.24L 55.62,339.61L 57.66,337.39L 59.69,319.70L 61.72,310.85L 63.75,310.85L 65.78,284.30L 67.81,264.39L 69.84,266.61L 71.88,264.39L 73.91,264.39L 75.94,253.33L 77.97,222.36L 80.00,233.42L 82.03,231.21L 84.06,215.73L 86.09,186.97L 88.12,195.82L 90.16,175.91L 92.19,204.67L 94.22,215.73L 96.25,182.55L 98.28,140.52L 100.31,96.27L 102.34,71.94L 104.38,80.79L 106.41,60.88L 108.44,21.06L 110.47,10.00L 112.50,43.18L 114.53,76.36L 116.56,47.61L 118.59,52.03L 120.62,32.12L 122.66,49.82L 124.69,45.39L 126.72,10.00L 128.75,27.70L 130.78,43.18L 132.81,36.55L 134.84,45.39L 136.88,25.48L 138.91,56.45L 140.94,83.00L 142.97,85.21L 145.00,107.33L 147.03,129.45L 149.06,140.52L 151.09,144.94L 153.12,158.21L 155.16,162.64L 157.19,158.21L 159.22,164.85L 161.25,147.15L 163.28,127.24L 165.31,94.06L 167.34,83.00L 169.38,91.85L 171.41,71.94L 173.44,80.79L 175.47,85.21L 177.50,105.12L 179.53,151.58L 181.56,173.70L 183.59,178.12L 185.62,217.94L 187.66,180.33L 189.69,186.97L 191.72,198.03L 193.75,182.55L 195.78,195.82L 197.81,206.88L 199.84,178.12L 201.88,220.15L 203.91,231.21L 205.94,248.91L 207.97,266.61L 210.00,262.18L 212.03,262.18L 214.06,290.94L 216.09,277.67L 218.12,266.61L 220.16,253.33L 222.19,264.39L 224.22,262.18L 226.25,255.55L 228.28,248.91L 230.31,244.48L 232.34,255.55L 234.38,259.97L 236.41,271.03L 238.44,273.24L 240.47,279.88L 242.50,277.67L 244.53,295.36L 246.56,295.36L 248.59,302.00L 250.63,295.36L 252.66,293.15L 254.69,297.58L 256.72,304.21L 258.75,302.00L 260.78,304.21L 262.81,308.64L 264.84,317.48L 266.88,328.55L 268.91,330.76L 270.94,341.82L 272.97,344.03L 275.00,346.24L 277.03,332.97L 279.06,332.97L 281.09,337.39L 283.12,330.76L 285.16,321.91L 287.19,313.06L 289.22,308.64L 291.25,324.12L 293.28,317.48L 295.31,306.42L 297.34,310.85L 299.38,317.48L 301.41,330.76L 303.44,337.39L 305.47,326.33L 307.50,332.97L 309.53,344.03L 311.56,346.24L 313.59,348.45L 315.62,348.45L 317.66,350.67L 319.69,359.52L 321.72,361.73L 323.75,355.09L 325.78,352.88L 327.81,355.09L 329.84,355.09L 331.88,355.09L 333.91,359.52L 335.94,361.73L 337.97,366.15L 340.00,370.58L 342.03,368.36L 344.06,368.36L 346.09,368.36L 348.12,363.94L 350.16,363.94L 352.19,366.15L 354.22,368.36L 356.25,370.58L 358.28,370.58L 360.31,370.58L 362.34,375.00L 364.38,375.00L 366.41,375.00L 368.44,375.00L 370.47,370.58L 372.50,370.58L 374.53,370.58L 376.56,368.36L 378.59,368.36L 380.62,363.94L 382.66,359.52L 384.69,363.94L 386.72,363.94L 388.75,359.52L 390.78,361.73L 392.81,357.30L 394.84,361.73L 396.88,366.15L 398.91,363.94L 400.94,361.73L 402.97,366.15L 405.00,357.30L 407.03,361.73L 409.06,357.30L 411.09,350.67L 413.12,348.45L 415.16,346.24L 417.19,346.24L 419.22,352.88L 421.25,346.24L 423.28,344.03L 425.31,344.03L 427.34,348.45L 429.38,352.88L 431.41,341.82L 433.44,339.61L 435.47,341.82L 437.50,339.61L 439.53,332.97L 441.56,321.91L 443.59,304.21L 445.62,304.21L 447.66,290.94L 449.69,286.52L 451.72,279.88L 453.75,259.97L 455.78,253.33L 457.81,262.18L 459.84,266.61" id="New cases" class="line" stroke-width="1" stroke-linecap="round"><title>New cases</title></path>
</g>
<g data-series="recent-cases" class="data-series">
	<path d="M 459.84,266.61L 461.88,284.30L 463.91,293.15L 465.94,297.58L 467.97,328.55L 470.00,347.90" id="Recent cases" class="line" stroke-width="1" stroke-linecap="round" stroke-dasharray="5,5"><title>Recent cases</title></path>
</g>
</svg>
