<svg width="480" height="400" viewBox="0 0 480 400" xmlns="http://www.w3.org/2000/svg" style="overflow:display" preserveAspectRatio="xMinYMin meet" overflow="visible">
<defs>
	<style>
	.data-series path.line { fill-opacity: 0; stroke: black; }
	.data-series path.line.dotted { stroke-dasharray: 12 20 }
	.data-series circle { display: none; }
	.data-series:hover path.line, .data-series.on path.line { stroke-width: 1; }
	.data-series:hover circle, .data-series.on circle { display: inline; }
	.data-series circle:hover, .data-series circle.on { r: 1px!important; }
	.graph-grid { font-family: "Helvetica Neue",Helvetica,Arial,"Lucida Grande",sans-serif; }
	.graph-grid line { stroke: black; stroke-width: 1; stroke-linecap: round; }
	.graph-grid.graph-grid-x text { text-anchor: middle; dominant-baseline: hanging; transform: translateY(10px); }
	.graph-grid.graph-grid-y text { text-anchor: end; dominant-baseline: middle; transform: translateX(-10px); }
	</style>
</defs>
<g class="graph-grid graph-grid-y">
	<line x1="15.00" y1="375.00" x2="470.00" y2="375.00" data-left="15"></line>
	<text x="25" y="375" text-anchor="end">0</text>
	<text x="25" y="254.494306034483" text-anchor="end">5</text>
	<text x="25" y="133.988612068966" text-anchor="end">10</text>
	<text x="25" y="13.4829181034483" text-anchor="end">15</text>
	<text style="text-anchor:middle;dominant-baseline:hanging;font-weight:bold;transform: translateY(192.5px) rotate(-90deg);"></text>
</g>
<g class="graph-grid graph-grid-x">
	<line class="tick" x1="56.56" y1="375.00" x2="56.56" y2="380.00"></line>
	<text x="56.5625" y="375" text-anchor="middle">A</text>
	<line class="tick" x1="122.19" y1="375.00" x2="122.19" y2="380.00"></line>
	<text x="122.1875" y="375" text-anchor="middle">M</text>
	<line class="tick" x1="190.00" y1="375.00" x2="190.00" y2="380.00"></line>
	<text x="190" y="375" text-anchor="middle">J</text>
	<line class="tick" x1="255.62" y1="375.00" x2="255.62" y2="380.00"></line>
	<text x="255.625" y="375" text-anchor="middle">J</text>
	<line class="tick" x1="323.44" y1="375.00" x2="323.44" y2="380.00"></line>
	<text x="323.4375" y="375" text-anchor="middle">A</text>
	<line class="tick" x1="391.25" y1="375.00" x2="391.25" y2="380.00"></line>
	<text x="391.25" y="375" text-anchor="middle">S</text>
	<line class="tick" x1="456.88" y1="375.00" x2="456.88" y2="380.00"></line>
	<text x="456.875" y="375" text-anchor="middle">O</text>
	<text style="text-anchor:middle;dominant-baseline:hanging;font-weight:bold;transform: translateY(192.5px) rotate(-90deg);"></text>
</g>
<g data-series="widespread" class="data-series">
	<path d="M 15.00,206.29L 470.00,206.29" id="E07000168-level-0" class="line" stroke-width="1" stroke-linecap="round" stroke-dasharray="3,3" fill-opacity="0.3" opacity="0.3"><title>Widespread</title></path>
</g>
<g data-series="substantial" class="data-series">
	<path d="M 15.00,278.60L 470.00,278.60" id="E07000168-level-1" class="line" stroke-width="1" stroke-linecap="round" stroke-dasharray="3,3" fill-opacity="0.3" opacity="0.3"><title>Substantial</title></path>
</g>
<g data-series="moderate" class="data-series">
	<path d="M 15.00,350.90L 470.00,350.90" id="E07000168-level-2" class="line" stroke-width="1" stroke-linecap="round" stroke-dasharray="3,3" fill-opacity="0.3" opacity="0.3"><title>Moderate</title></path>
</g>
<g data-series="new-cases" class="data-series">
	<path d="M 15.00,369.49L 17.19,370.59L 19.38,371.33L 21.56,371.85L 23.75,368.71L 25.94,359.27L 28.12,359.27L 30.31,346.68L 32.50,343.53L 34.69,343.53L 36.88,330.95L 39.06,327.80L 41.25,327.80L 43.44,321.51L 45.62,312.07L 47.81,302.63L 50.00,277.46L 52.19,283.75L 54.38,277.46L 56.56,258.58L 58.75,245.99L 60.94,258.58L 63.12,258.58L 65.31,264.87L 67.50,258.58L 69.69,261.72L 71.88,264.87L 74.06,245.99L 76.25,239.70L 78.44,236.55L 80.62,220.82L 82.81,214.53L 85.00,211.38L 87.19,227.11L 89.38,245.99L 91.56,230.26L 93.75,217.67L 95.94,236.55L 98.12,233.41L 100.31,205.09L 102.50,189.35L 104.69,107.54L 106.88,107.54L 109.06,104.40L 111.25,82.37L 113.44,63.49L 115.62,57.20L 117.81,38.32L 120.00,94.96L 122.19,72.93L 124.38,66.64L 126.56,44.61L 128.75,10.00L 130.94,19.44L 133.12,19.44L 135.31,16.29L 137.50,32.03L 139.69,57.20L 141.88,107.54L 144.06,126.42L 146.25,123.28L 148.44,157.89L 150.62,192.50L 152.81,230.26L 155.00,214.53L 157.19,205.09L 159.38,252.28L 161.56,274.31L 163.75,280.60L 165.94,286.90L 168.12,274.31L 170.31,299.48L 172.50,299.48L 174.69,277.46L 176.88,299.48L 179.06,296.34L 181.25,299.48L 183.44,308.92L 185.62,308.92L 187.81,321.51L 190.00,349.83L 192.19,349.83L 194.38,352.97L 196.56,356.12L 198.75,356.12L 200.94,359.27L 203.12,362.41L 205.31,365.56L 207.50,365.56L 209.69,365.56L 211.88,362.41L 214.06,359.27L 216.25,359.27L 218.44,362.41L 220.62,359.27L 222.81,356.12L 225.00,352.97L 227.19,356.12L 229.38,359.27L 231.56,356.12L 233.75,356.12L 235.94,359.27L 238.12,362.41L 240.31,368.71L 242.50,368.71L 244.69,371.85L 246.87,375.00L 249.06,375.00L 251.25,375.00L 253.44,371.85L 255.62,371.85L 257.81,371.85L 260.00,371.85L 262.19,371.85L 264.38,371.85L 266.56,371.85L 268.75,375.00L 270.94,375.00L 273.12,375.00L 275.31,375.00L 277.50,375.00L 279.69,375.00L 281.88,375.00L 284.06,375.00L 286.25,375.00L 288.44,375.00L 290.62,375.00L 292.81,375.00L 295.00,375.00L 297.19,375.00L 299.38,375.00L 301.56,375.00L 303.75,375.00L 305.94,375.00L 308.12,375.00L 310.31,371.85L 312.50,371.85L 314.69,371.85L 316.88,371.85L 319.06,371.85L 321.25,371.85L 323.44,371.85L 325.62,375.00L 327.81,375.00L 330.00,375.00L 332.19,371.85L 334.38,371.85L 336.56,368.71L 338.75,368.71L 340.94,368.71L 343.12,368.71L 345.31,359.27L 347.50,362.41L 349.69,362.41L 351.88,365.56L 354.06,365.56L 356.25,362.41L 358.44,359.27L 360.62,365.56L 362.81,365.56L 365.00,365.56L 367.19,365.56L 369.38,359.27L 371.56,362.41L 373.75,359.27L 375.94,362.41L 378.12,362.41L 380.31,362.41L 382.50,352.97L 384.69,337.24L 386.88,324.66L 389.06,296.34L 391.25,283.75L 393.44,261.72L 395.62,239.70L 397.81,214.53L 400.00,208.23L 402.19,205.09L 404.38,220.82L 406.56,223.97L 408.75,239.70L 410.94,233.41L 413.12,252.28L 415.31,277.46L 417.50,277.46L 419.69,290.04L 421.88,280.60L 424.06,271.16L 426.25,271.16L 428.44,264.87L 430.62,236.55L 432.81,211.38L 435.00,208.23L 437.19,214.53L 439.38,201.94L 441.56,211.38L 443.75,183.06L 445.94,145.30L 448.12,132.72L 450.31,82.37L 452.50,41.47L 454.69,47.76L 456.88,44.61L 459.06,60.34" id="New cases" class="line" stroke-width="1" stroke-linecap="round"><title>New cases</title></path>
</g>
<g data-series="recent-cases" class="data-series">
	<path d="M 459.06,60.34L 461.25,116.98L 463.44,170.47L 465.62,206.14L 467.81,247.25L 470.00,253.86" id="Recent cases" class="line" stroke-width="1" stroke-linecap="round" stroke-dasharray="5,5"><title>Recent cases</title></path>
</g>
</svg>
