<svg width="480" height="400" viewBox="0 0 480 400" xmlns="http://www.w3.org/2000/svg" style="overflow:display" preserveAspectRatio="xMinYMin meet" overflow="visible">
<defs>
	<style>
	.data-series path.line { fill-opacity: 0; stroke: black; }
	.data-series path.line.dotted { stroke-dasharray: 12 20 }
	.data-series:hover path.line, .data-series.on path.line { stroke-width: 1; }
	.data-series:hover circle, .data-series.on circle { display: inline; }
	.graph-grid { font-family: "Helvetica Neue",Helvetica,Arial,"Lucida Grande",sans-serif; }
	.graph-grid line { stroke: black; stroke-width: 1; stroke-linecap: round; }
	.graph-grid.graph-grid-x text { text-anchor: middle; dominant-baseline: hanging; transform: translateY(10px); }
	.graph-grid.graph-grid-y text { text-anchor: end; dominant-baseline: middle; transform: translateX(-10px); }
	</style>
</defs>
<g class="graph-grid graph-grid-y">
	<line x1="25.00" y1="375.00" x2="470.00" y2="375.00" data-left="25"></line>
	<text x="35" y="375" text-anchor="end">0</text>
	<text x="35" y="288.046933856502" text-anchor="end">5</text>
	<text x="35" y="201.093867713004" text-anchor="end">10</text>
	<text x="35" y="114.140801569507" text-anchor="end">15</text>
	<text x="35" y="27.187735426009" text-anchor="end">20</text>
	<text style="text-anchor:middle;dominant-baseline:hanging;font-weight:bold;transform: translateY(192.5px) rotate(-90deg);"></text>
</g>
<g class="graph-grid graph-grid-x">
	<line class="tick" x1="62.53" y1="375.00" x2="62.53" y2="380.00"></line>
	<text x="62.5301204819277" y="375" text-anchor="middle">A</text>
	<line class="tick" x1="116.14" y1="375.00" x2="116.14" y2="380.00"></line>
	<text x="116.144578313253" y="375" text-anchor="middle">M</text>
	<line class="tick" x1="171.55" y1="375.00" x2="171.55" y2="380.00"></line>
	<text x="171.546184738956" y="375" text-anchor="middle">J</text>
	<line class="tick" x1="225.16" y1="375.00" x2="225.16" y2="380.00"></line>
	<text x="225.160642570281" y="375" text-anchor="middle">J</text>
	<line class="tick" x1="280.56" y1="375.00" x2="280.56" y2="380.00"></line>
	<text x="280.562248995984" y="375" text-anchor="middle">A</text>
	<line class="tick" x1="335.96" y1="375.00" x2="335.96" y2="380.00"></line>
	<text x="335.963855421687" y="375" text-anchor="middle">S</text>
	<line class="tick" x1="389.58" y1="375.00" x2="389.58" y2="380.00"></line>
	<text x="389.578313253012" y="375" text-anchor="middle">O</text>
	<line class="tick" x1="444.98" y1="375.00" x2="444.98" y2="380.00"></line>
	<text x="444.979919678715" y="375" text-anchor="middle">N</text>
	<text style="text-anchor:middle;dominant-baseline:hanging;font-weight:bold;transform: translateY(192.5px) rotate(-90deg);"></text>
</g>
<g data-series="widespread" class="data-series">
	<path d="M 25.00,253.27L 470.00,253.27" id="E07000228-level-0" class="line" stroke-width="1" stroke-linecap="round" stroke-dasharray="3,3" fill-opacity="0.3" opacity="0.3"><title>Widespread</title></path>
</g>
<g data-series="substantial" class="data-series">
	<path d="M 25.00,305.44L 470.00,305.44" id="E07000228-level-1" class="line" stroke-width="1" stroke-linecap="round" stroke-dasharray="3,3" fill-opacity="0.3" opacity="0.3"><title>Substantial</title></path>
</g>
<g data-series="moderate" class="data-series">
	<path d="M 25.00,357.61L 470.00,357.61" id="E07000228-level-2" class="line" stroke-width="1" stroke-linecap="round" stroke-dasharray="3,3" fill-opacity="0.3" opacity="0.3"><title>Moderate</title></path>
</g>
<g data-series="new-cases" class="data-series">
	<path d="M 25.00,363.54L 26.79,365.83L 28.57,363.54L 30.36,363.54L 32.15,363.54L 33.94,360.27L 35.72,358.63L 37.51,360.27L 39.30,355.36L 41.08,348.81L 42.87,337.35L 44.66,327.53L 46.45,327.53L 48.23,325.90L 50.02,320.99L 51.81,319.35L 53.59,317.71L 55.38,314.44L 57.17,314.44L 58.96,309.53L 60.74,294.80L 62.53,281.70L 64.32,276.79L 66.10,268.61L 67.89,263.70L 69.68,258.79L 71.47,250.61L 73.25,250.61L 75.04,262.06L 76.83,266.97L 78.61,270.25L 80.40,283.34L 82.19,288.25L 83.98,284.98L 85.76,289.89L 87.55,273.52L 89.34,271.88L 91.12,278.43L 92.91,265.34L 94.70,253.88L 96.49,250.61L 98.27,240.78L 100.06,250.61L 101.85,247.33L 103.63,248.97L 105.42,252.24L 107.21,244.06L 109.00,248.97L 110.78,227.69L 112.57,226.05L 114.36,221.14L 116.14,217.87L 117.93,212.96L 119.72,203.14L 121.51,209.69L 123.29,250.61L 125.08,258.79L 126.87,265.34L 128.65,266.97L 130.44,280.07L 132.23,294.80L 134.02,302.98L 135.80,299.71L 137.59,306.26L 139.38,312.80L 141.16,319.35L 142.95,322.62L 144.74,347.17L 146.53,345.54L 148.31,345.54L 150.10,343.90L 151.89,343.90L 153.67,340.63L 155.46,342.26L 157.25,337.35L 159.04,335.72L 160.82,342.26L 162.61,335.72L 164.40,334.08L 166.18,332.44L 167.97,332.44L 169.76,332.44L 171.55,337.35L 173.33,338.99L 175.12,345.54L 176.91,347.17L 178.69,353.72L 180.48,357.00L 182.27,363.54L 184.06,363.54L 185.84,365.18L 187.63,365.18L 189.42,366.82L 191.20,368.45L 192.99,366.82L 194.78,366.82L 196.57,366.82L 198.35,363.54L 200.14,365.18L 201.93,366.82L 203.71,366.82L 205.50,368.45L 207.29,368.45L 209.08,368.45L 210.86,371.73L 212.65,371.73L 214.44,371.73L 216.22,371.73L 218.01,371.73L 219.80,371.73L 221.59,373.36L 223.37,371.73L 225.16,371.73L 226.95,371.73L 228.73,370.09L 230.52,370.09L 232.31,370.09L 234.10,370.09L 235.88,370.09L 237.67,370.09L 239.46,370.09L 241.24,368.45L 243.03,368.45L 244.82,368.45L 246.61,361.91L 248.39,363.54L 250.18,363.54L 251.97,363.54L 253.76,365.18L 255.54,365.18L 257.33,365.18L 259.12,368.45L 260.90,368.45L 262.69,366.82L 264.48,363.54L 266.27,365.18L 268.05,366.82L 269.84,366.82L 271.63,368.45L 273.41,368.45L 275.20,370.09L 276.99,373.36L 278.78,371.73L 280.56,370.09L 282.35,366.82L 284.14,368.45L 285.92,368.45L 287.71,368.45L 289.50,368.45L 291.29,368.45L 293.07,368.45L 294.86,368.45L 296.65,365.18L 298.43,365.18L 300.22,365.18L 302.01,365.18L 303.80,365.18L 305.58,361.91L 307.37,363.54L 309.16,360.27L 310.94,355.36L 312.73,352.09L 314.52,347.17L 316.31,338.99L 318.09,343.90L 319.88,343.90L 321.67,348.81L 323.45,338.99L 325.24,340.63L 327.03,343.90L 328.82,350.45L 330.60,348.81L 332.39,348.81L 334.18,345.54L 335.96,352.09L 337.75,347.17L 339.54,335.72L 341.33,334.08L 343.11,327.53L 344.90,322.62L 346.69,320.99L 348.47,327.53L 350.26,330.81L 352.05,342.26L 353.84,345.54L 355.62,353.72L 357.41,357.00L 359.20,363.54L 360.98,363.54L 362.77,363.54L 364.56,363.54L 366.35,361.91L 368.13,355.36L 369.92,358.63L 371.71,350.45L 373.49,345.54L 375.28,337.35L 377.07,337.35L 378.86,330.81L 380.64,334.08L 382.43,320.99L 384.22,320.99L 386.00,324.26L 387.79,322.62L 389.58,316.08L 391.37,311.17L 393.15,306.26L 394.94,293.16L 396.73,289.89L 398.51,281.70L 400.30,289.89L 402.09,284.98L 403.88,280.07L 405.66,276.79L 407.45,286.61L 409.24,271.88L 411.02,280.07L 412.81,275.16L 414.60,265.34L 416.39,265.34L 418.17,240.78L 419.96,229.33L 421.75,222.78L 423.53,193.32L 425.32,168.77L 427.11,173.68L 428.90,152.40L 430.68,154.04L 432.47,157.31L 434.26,175.31L 436.04,173.68L 437.83,190.04L 439.62,178.59L 441.41,172.04L 443.19,165.49L 444.98,147.49L 446.77,111.48L 448.55,106.57L 450.34,78.74L 452.13,82.02L 453.92,77.11L 455.70,57.47L 457.49,26.37L 459.28,13.27L 461.06,10.00" id="New cases" class="line" stroke-width="1" stroke-linecap="round"><title>New cases</title></path>
	<circle cx="25.00" cy="363.54" data-y="0.66" data-x="1583884800" r="1" fill="white"><title>2020-03-11: 1</title></circle>
	<circle cx="26.79" cy="365.83" data-y="0.53" data-x="1583971200" r="1" fill="white"><title>2020-03-12: 1</title></circle>
	<circle cx="28.57" cy="363.54" data-y="0.66" data-x="1584057600" r="1" fill="white"><title>2020-03-13: 1</title></circle>
	<circle cx="30.36" cy="363.54" data-y="0.66" data-x="1584144000" r="1" fill="white"><title>2020-03-14: 1</title></circle>
	<circle cx="32.15" cy="363.54" data-y="0.66" data-x="1584230400" r="1" fill="white"><title>2020-03-15: 1</title></circle>
	<circle cx="33.94" cy="360.27" data-y="0.85" data-x="1584316800" r="1" fill="white"><title>2020-03-16: 1</title></circle>
	<circle cx="35.72" cy="358.63" data-y="0.94" data-x="1584403200" r="1" fill="white"><title>2020-03-17: 1</title></circle>
	<circle cx="37.51" cy="360.27" data-y="0.85" data-x="1584489600" r="1" fill="white"><title>2020-03-18: 1</title></circle>
	<circle cx="39.30" cy="355.36" data-y="1.13" data-x="1584576000" r="1" fill="white"><title>2020-03-19: 1</title></circle>
	<circle cx="41.08" cy="348.81" data-y="1.51" data-x="1584662400" r="1" fill="white"><title>2020-03-20: 2</title></circle>
	<circle cx="42.87" cy="337.35" data-y="2.16" data-x="1584748800" r="1" fill="white"><title>2020-03-21: 2</title></circle>
	<circle cx="44.66" cy="327.53" data-y="2.73" data-x="1584835200" r="1" fill="white"><title>2020-03-22: 3</title></circle>
	<circle cx="46.45" cy="327.53" data-y="2.73" data-x="1584921600" r="1" fill="white"><title>2020-03-23: 3</title></circle>
	<circle cx="48.23" cy="325.90" data-y="2.82" data-x="1585008000" r="1" fill="white"><title>2020-03-24: 3</title></circle>
	<circle cx="50.02" cy="320.99" data-y="3.11" data-x="1585094400" r="1" fill="white"><title>2020-03-25: 3</title></circle>
	<circle cx="51.81" cy="319.35" data-y="3.20" data-x="1585180800" r="1" fill="white"><title>2020-03-26: 3</title></circle>
	<circle cx="53.59" cy="317.71" data-y="3.29" data-x="1585267200" r="1" fill="white"><title>2020-03-27: 3</title></circle>
	<circle cx="55.38" cy="314.44" data-y="3.48" data-x="1585353600" r="1" fill="white"><title>2020-03-28: 3</title></circle>
	<circle cx="57.17" cy="314.44" data-y="3.48" data-x="1585440000" r="1" fill="white"><title>2020-03-29: 3</title></circle>
	<circle cx="58.96" cy="309.53" data-y="3.76" data-x="1585526400" r="1" fill="white"><title>2020-03-30: 4</title></circle>
	<circle cx="60.74" cy="294.80" data-y="4.61" data-x="1585612800" r="1" fill="white"><title>2020-03-31: 5</title></circle>
	<circle cx="62.53" cy="281.70" data-y="5.36" data-x="1585699200" r="1" fill="white"><title>2020-04-01: 5</title></circle>
	<circle cx="64.32" cy="276.79" data-y="5.65" data-x="1585785600" r="1" fill="white"><title>2020-04-02: 6</title></circle>
	<circle cx="66.10" cy="268.61" data-y="6.12" data-x="1585872000" r="1" fill="white"><title>2020-04-03: 6</title></circle>
	<circle cx="67.89" cy="263.70" data-y="6.40" data-x="1585958400" r="1" fill="white"><title>2020-04-04: 6</title></circle>
	<circle cx="69.68" cy="258.79" data-y="6.68" data-x="1586044800" r="1" fill="white"><title>2020-04-05: 7</title></circle>
	<circle cx="71.47" cy="250.61" data-y="7.15" data-x="1586131200" r="1" fill="white"><title>2020-04-06: 7</title></circle>
	<circle cx="73.25" cy="250.61" data-y="7.15" data-x="1586217600" r="1" fill="white"><title>2020-04-07: 7</title></circle>
	<circle cx="75.04" cy="262.06" data-y="6.49" data-x="1586304000" r="1" fill="white"><title>2020-04-08: 6</title></circle>
	<circle cx="76.83" cy="266.97" data-y="6.21" data-x="1586390400" r="1" fill="white"><title>2020-04-09: 6</title></circle>
	<circle cx="78.61" cy="270.25" data-y="6.02" data-x="1586476800" r="1" fill="white"><title>2020-04-10: 6</title></circle>
	<circle cx="80.40" cy="283.34" data-y="5.27" data-x="1586563200" r="1" fill="white"><title>2020-04-11: 5</title></circle>
	<circle cx="82.19" cy="288.25" data-y="4.99" data-x="1586649600" r="1" fill="white"><title>2020-04-12: 5</title></circle>
	<circle cx="83.98" cy="284.98" data-y="5.18" data-x="1586736000" r="1" fill="white"><title>2020-04-13: 5</title></circle>
	<circle cx="85.76" cy="289.89" data-y="4.89" data-x="1586822400" r="1" fill="white"><title>2020-04-14: 5</title></circle>
	<circle cx="87.55" cy="273.52" data-y="5.84" data-x="1586908800" r="1" fill="white"><title>2020-04-15: 6</title></circle>
	<circle cx="89.34" cy="271.88" data-y="5.93" data-x="1586995200" r="1" fill="white"><title>2020-04-16: 6</title></circle>
	<circle cx="91.12" cy="278.43" data-y="5.55" data-x="1587081600" r="1" fill="white"><title>2020-04-17: 6</title></circle>
	<circle cx="92.91" cy="265.34" data-y="6.31" data-x="1587168000" r="1" fill="white"><title>2020-04-18: 6</title></circle>
	<circle cx="94.70" cy="253.88" data-y="6.96" data-x="1587254400" r="1" fill="white"><title>2020-04-19: 7</title></circle>
	<circle cx="96.49" cy="250.61" data-y="7.15" data-x="1587340800" r="1" fill="white"><title>2020-04-20: 7</title></circle>
	<circle cx="98.27" cy="240.78" data-y="7.72" data-x="1587427200" r="1" fill="white"><title>2020-04-21: 8</title></circle>
	<circle cx="100.06" cy="250.61" data-y="7.15" data-x="1587513600" r="1" fill="white"><title>2020-04-22: 7</title></circle>
	<circle cx="101.85" cy="247.33" data-y="7.34" data-x="1587600000" r="1" fill="white"><title>2020-04-23: 7</title></circle>
	<circle cx="103.63" cy="248.97" data-y="7.25" data-x="1587686400" r="1" fill="white"><title>2020-04-24: 7</title></circle>
	<circle cx="105.42" cy="252.24" data-y="7.06" data-x="1587772800" r="1" fill="white"><title>2020-04-25: 7</title></circle>
	<circle cx="107.21" cy="244.06" data-y="7.53" data-x="1587859200" r="1" fill="white"><title>2020-04-26: 8</title></circle>
	<circle cx="109.00" cy="248.97" data-y="7.25" data-x="1587945600" r="1" fill="white"><title>2020-04-27: 7</title></circle>
	<circle cx="110.78" cy="227.69" data-y="8.47" data-x="1588032000" r="1" fill="white"><title>2020-04-28: 8</title></circle>
	<circle cx="112.57" cy="226.05" data-y="8.56" data-x="1588118400" r="1" fill="white"><title>2020-04-29: 9</title></circle>
	<circle cx="114.36" cy="221.14" data-y="8.85" data-x="1588204800" r="1" fill="white"><title>2020-04-30: 9</title></circle>
	<circle cx="116.14" cy="217.87" data-y="9.04" data-x="1588291200" r="1" fill="white"><title>2020-05-01: 9</title></circle>
	<circle cx="117.93" cy="212.96" data-y="9.32" data-x="1588377600" r="1" fill="white"><title>2020-05-02: 9</title></circle>
	<circle cx="119.72" cy="203.14" data-y="9.88" data-x="1588464000" r="1" fill="white"><title>2020-05-03: 10</title></circle>
	<circle cx="121.51" cy="209.69" data-y="9.51" data-x="1588550400" r="1" fill="white"><title>2020-05-04: 10</title></circle>
	<circle cx="123.29" cy="250.61" data-y="7.15" data-x="1588636800" r="1" fill="white"><title>2020-05-05: 7</title></circle>
	<circle cx="125.08" cy="258.79" data-y="6.68" data-x="1588723200" r="1" fill="white"><title>2020-05-06: 7</title></circle>
	<circle cx="126.87" cy="265.34" data-y="6.31" data-x="1588809600" r="1" fill="white"><title>2020-05-07: 6</title></circle>
	<circle cx="128.65" cy="266.97" data-y="6.21" data-x="1588896000" r="1" fill="white"><title>2020-05-08: 6</title></circle>
	<circle cx="130.44" cy="280.07" data-y="5.46" data-x="1588982400" r="1" fill="white"><title>2020-05-09: 5</title></circle>
	<circle cx="132.23" cy="294.80" data-y="4.61" data-x="1589068800" r="1" fill="white"><title>2020-05-10: 5</title></circle>
	<circle cx="134.02" cy="302.98" data-y="4.14" data-x="1589155200" r="1" fill="white"><title>2020-05-11: 4</title></circle>
	<circle cx="135.80" cy="299.71" data-y="4.33" data-x="1589241600" r="1" fill="white"><title>2020-05-12: 4</title></circle>
	<circle cx="137.59" cy="306.26" data-y="3.95" data-x="1589328000" r="1" fill="white"><title>2020-05-13: 4</title></circle>
	<circle cx="139.38" cy="312.80" data-y="3.58" data-x="1589414400" r="1" fill="white"><title>2020-05-14: 4</title></circle>
	<circle cx="141.16" cy="319.35" data-y="3.20" data-x="1589500800" r="1" fill="white"><title>2020-05-15: 3</title></circle>
	<circle cx="142.95" cy="322.62" data-y="3.01" data-x="1589587200" r="1" fill="white"><title>2020-05-16: 3</title></circle>
	<circle cx="144.74" cy="347.17" data-y="1.60" data-x="1589673600" r="1" fill="white"><title>2020-05-17: 2</title></circle>
	<circle cx="146.53" cy="345.54" data-y="1.69" data-x="1589760000" r="1" fill="white"><title>2020-05-18: 2</title></circle>
	<circle cx="148.31" cy="345.54" data-y="1.69" data-x="1589846400" r="1" fill="white"><title>2020-05-19: 2</title></circle>
	<circle cx="150.10" cy="343.90" data-y="1.79" data-x="1589932800" r="1" fill="white"><title>2020-05-20: 2</title></circle>
	<circle cx="151.89" cy="343.90" data-y="1.79" data-x="1590019200" r="1" fill="white"><title>2020-05-21: 2</title></circle>
	<circle cx="153.67" cy="340.63" data-y="1.98" data-x="1590105600" r="1" fill="white"><title>2020-05-22: 2</title></circle>
	<circle cx="155.46" cy="342.26" data-y="1.88" data-x="1590192000" r="1" fill="white"><title>2020-05-23: 2</title></circle>
	<circle cx="157.25" cy="337.35" data-y="2.16" data-x="1590278400" r="1" fill="white"><title>2020-05-24: 2</title></circle>
	<circle cx="159.04" cy="335.72" data-y="2.26" data-x="1590364800" r="1" fill="white"><title>2020-05-25: 2</title></circle>
	<circle cx="160.82" cy="342.26" data-y="1.88" data-x="1590451200" r="1" fill="white"><title>2020-05-26: 2</title></circle>
	<circle cx="162.61" cy="335.72" data-y="2.26" data-x="1590537600" r="1" fill="white"><title>2020-05-27: 2</title></circle>
	<circle cx="164.40" cy="334.08" data-y="2.35" data-x="1590624000" r="1" fill="white"><title>2020-05-28: 2</title></circle>
	<circle cx="166.18" cy="332.44" data-y="2.45" data-x="1590710400" r="1" fill="white"><title>2020-05-29: 2</title></circle>
	<circle cx="167.97" cy="332.44" data-y="2.45" data-x="1590796800" r="1" fill="white"><title>2020-05-30: 2</title></circle>
	<circle cx="169.76" cy="332.44" data-y="2.45" data-x="1590883200" r="1" fill="white"><title>2020-05-31: 2</title></circle>
	<circle cx="171.55" cy="337.35" data-y="2.16" data-x="1590969600" r="1" fill="white"><title>2020-06-01: 2</title></circle>
	<circle cx="173.33" cy="338.99" data-y="2.07" data-x="1591056000" r="1" fill="white"><title>2020-06-02: 2</title></circle>
	<circle cx="175.12" cy="345.54" data-y="1.69" data-x="1591142400" r="1" fill="white"><title>2020-06-03: 2</title></circle>
	<circle cx="176.91" cy="347.17" data-y="1.60" data-x="1591228800" r="1" fill="white"><title>2020-06-04: 2</title></circle>
	<circle cx="178.69" cy="353.72" data-y="1.22" data-x="1591315200" r="1" fill="white"><title>2020-06-05: 1</title></circle>
	<circle cx="180.48" cy="357.00" data-y="1.04" data-x="1591401600" r="1" fill="white"><title>2020-06-06: 1</title></circle>
	<circle cx="182.27" cy="363.54" data-y="0.66" data-x="1591488000" r="1" fill="white"><title>2020-06-07: 1</title></circle>
	<circle cx="184.06" cy="363.54" data-y="0.66" data-x="1591574400" r="1" fill="white"><title>2020-06-08: 1</title></circle>
	<circle cx="185.84" cy="365.18" data-y="0.56" data-x="1591660800" r="1" fill="white"><title>2020-06-09: 1</title></circle>
	<circle cx="187.63" cy="365.18" data-y="0.56" data-x="1591747200" r="1" fill="white"><title>2020-06-10: 1</title></circle>
	<circle cx="189.42" cy="366.82" data-y="0.47" data-x="1591833600" r="1" fill="white"><title>2020-06-11: 0</title></circle>
	<circle cx="191.20" cy="368.45" data-y="0.38" data-x="1591920000" r="1" fill="white"><title>2020-06-12: 0</title></circle>
	<circle cx="192.99" cy="366.82" data-y="0.47" data-x="1592006400" r="1" fill="white"><title>2020-06-13: 0</title></circle>
	<circle cx="194.78" cy="366.82" data-y="0.47" data-x="1592092800" r="1" fill="white"><title>2020-06-14: 0</title></circle>
	<circle cx="196.57" cy="366.82" data-y="0.47" data-x="1592179200" r="1" fill="white"><title>2020-06-15: 0</title></circle>
	<circle cx="198.35" cy="363.54" data-y="0.66" data-x="1592265600" r="1" fill="white"><title>2020-06-16: 1</title></circle>
	<circle cx="200.14" cy="365.18" data-y="0.56" data-x="1592352000" r="1" fill="white"><title>2020-06-17: 1</title></circle>
	<circle cx="201.93" cy="366.82" data-y="0.47" data-x="1592438400" r="1" fill="white"><title>2020-06-18: 0</title></circle>
	<circle cx="203.71" cy="366.82" data-y="0.47" data-x="1592524800" r="1" fill="white"><title>2020-06-19: 0</title></circle>
	<circle cx="205.50" cy="368.45" data-y="0.38" data-x="1592611200" r="1" fill="white"><title>2020-06-20: 0</title></circle>
	<circle cx="207.29" cy="368.45" data-y="0.38" data-x="1592697600" r="1" fill="white"><title>2020-06-21: 0</title></circle>
	<circle cx="209.08" cy="368.45" data-y="0.38" data-x="1592784000" r="1" fill="white"><title>2020-06-22: 0</title></circle>
	<circle cx="210.86" cy="371.73" data-y="0.19" data-x="1592870400" r="1" fill="white"><title>2020-06-23: 0</title></circle>
	<circle cx="212.65" cy="371.73" data-y="0.19" data-x="1592956800" r="1" fill="white"><title>2020-06-24: 0</title></circle>
	<circle cx="214.44" cy="371.73" data-y="0.19" data-x="1593043200" r="1" fill="white"><title>2020-06-25: 0</title></circle>
	<circle cx="216.22" cy="371.73" data-y="0.19" data-x="1593129600" r="1" fill="white"><title>2020-06-26: 0</title></circle>
	<circle cx="218.01" cy="371.73" data-y="0.19" data-x="1593216000" r="1" fill="white"><title>2020-06-27: 0</title></circle>
	<circle cx="219.80" cy="371.73" data-y="0.19" data-x="1593302400" r="1" fill="white"><title>2020-06-28: 0</title></circle>
	<circle cx="221.59" cy="373.36" data-y="0.09" data-x="1593388800" r="1" fill="white"><title>2020-06-29: 0</title></circle>
	<circle cx="223.37" cy="371.73" data-y="0.19" data-x="1593475200" r="1" fill="white"><title>2020-06-30: 0</title></circle>
	<circle cx="225.16" cy="371.73" data-y="0.19" data-x="1593561600" r="1" fill="white"><title>2020-07-01: 0</title></circle>
	<circle cx="226.95" cy="371.73" data-y="0.19" data-x="1593648000" r="1" fill="white"><title>2020-07-02: 0</title></circle>
	<circle cx="228.73" cy="370.09" data-y="0.28" data-x="1593734400" r="1" fill="white"><title>2020-07-03: 0</title></circle>
	<circle cx="230.52" cy="370.09" data-y="0.28" data-x="1593820800" r="1" fill="white"><title>2020-07-04: 0</title></circle>
	<circle cx="232.31" cy="370.09" data-y="0.28" data-x="1593907200" r="1" fill="white"><title>2020-07-05: 0</title></circle>
	<circle cx="234.10" cy="370.09" data-y="0.28" data-x="1593993600" r="1" fill="white"><title>2020-07-06: 0</title></circle>
	<circle cx="235.88" cy="370.09" data-y="0.28" data-x="1594080000" r="1" fill="white"><title>2020-07-07: 0</title></circle>
	<circle cx="237.67" cy="370.09" data-y="0.28" data-x="1594166400" r="1" fill="white"><title>2020-07-08: 0</title></circle>
	<circle cx="239.46" cy="370.09" data-y="0.28" data-x="1594252800" r="1" fill="white"><title>2020-07-09: 0</title></circle>
	<circle cx="241.24" cy="368.45" data-y="0.38" data-x="1594339200" r="1" fill="white"><title>2020-07-10: 0</title></circle>
	<circle cx="243.03" cy="368.45" data-y="0.38" data-x="1594425600" r="1" fill="white"><title>2020-07-11: 0</title></circle>
	<circle cx="244.82" cy="368.45" data-y="0.38" data-x="1594512000" r="1" fill="white"><title>2020-07-12: 0</title></circle>
	<circle cx="246.61" cy="361.91" data-y="0.75" data-x="1594598400" r="1" fill="white"><title>2020-07-13: 1</title></circle>
	<circle cx="248.39" cy="363.54" data-y="0.66" data-x="1594684800" r="1" fill="white"><title>2020-07-14: 1</title></circle>
	<circle cx="250.18" cy="363.54" data-y="0.66" data-x="1594771200" r="1" fill="white"><title>2020-07-15: 1</title></circle>
	<circle cx="251.97" cy="363.54" data-y="0.66" data-x="1594857600" r="1" fill="white"><title>2020-07-16: 1</title></circle>
	<circle cx="253.76" cy="365.18" data-y="0.56" data-x="1594944000" r="1" fill="white"><title>2020-07-17: 1</title></circle>
	<circle cx="255.54" cy="365.18" data-y="0.56" data-x="1595030400" r="1" fill="white"><title>2020-07-18: 1</title></circle>
	<circle cx="257.33" cy="365.18" data-y="0.56" data-x="1595116800" r="1" fill="white"><title>2020-07-19: 1</title></circle>
	<circle cx="259.12" cy="368.45" data-y="0.38" data-x="1595203200" r="1" fill="white"><title>2020-07-20: 0</title></circle>
	<circle cx="260.90" cy="368.45" data-y="0.38" data-x="1595289600" r="1" fill="white"><title>2020-07-21: 0</title></circle>
	<circle cx="262.69" cy="366.82" data-y="0.47" data-x="1595376000" r="1" fill="white"><title>2020-07-22: 0</title></circle>
	<circle cx="264.48" cy="363.54" data-y="0.66" data-x="1595462400" r="1" fill="white"><title>2020-07-23: 1</title></circle>
	<circle cx="266.27" cy="365.18" data-y="0.56" data-x="1595548800" r="1" fill="white"><title>2020-07-24: 1</title></circle>
	<circle cx="268.05" cy="366.82" data-y="0.47" data-x="1595635200" r="1" fill="white"><title>2020-07-25: 0</title></circle>
	<circle cx="269.84" cy="366.82" data-y="0.47" data-x="1595721600" r="1" fill="white"><title>2020-07-26: 0</title></circle>
	<circle cx="271.63" cy="368.45" data-y="0.38" data-x="1595808000" r="1" fill="white"><title>2020-07-27: 0</title></circle>
	<circle cx="273.41" cy="368.45" data-y="0.38" data-x="1595894400" r="1" fill="white"><title>2020-07-28: 0</title></circle>
	<circle cx="275.20" cy="370.09" data-y="0.28" data-x="1595980800" r="1" fill="white"><title>2020-07-29: 0</title></circle>
	<circle cx="276.99" cy="373.36" data-y="0.09" data-x="1596067200" r="1" fill="white"><title>2020-07-30: 0</title></circle>
	<circle cx="278.78" cy="371.73" data-y="0.19" data-x="1596153600" r="1" fill="white"><title>2020-07-31: 0</title></circle>
	<circle cx="280.56" cy="370.09" data-y="0.28" data-x="1596240000" r="1" fill="white"><title>2020-08-01: 0</title></circle>
	<circle cx="282.35" cy="366.82" data-y="0.47" data-x="1596326400" r="1" fill="white"><title>2020-08-02: 0</title></circle>
	<circle cx="284.14" cy="368.45" data-y="0.38" data-x="1596412800" r="1" fill="white"><title>2020-08-03: 0</title></circle>
	<circle cx="285.92" cy="368.45" data-y="0.38" data-x="1596499200" r="1" fill="white"><title>2020-08-04: 0</title></circle>
	<circle cx="287.71" cy="368.45" data-y="0.38" data-x="1596585600" r="1" fill="white"><title>2020-08-05: 0</title></circle>
	<circle cx="289.50" cy="368.45" data-y="0.38" data-x="1596672000" r="1" fill="white"><title>2020-08-06: 0</title></circle>
	<circle cx="291.29" cy="368.45" data-y="0.38" data-x="1596758400" r="1" fill="white"><title>2020-08-07: 0</title></circle>
	<circle cx="293.07" cy="368.45" data-y="0.38" data-x="1596844800" r="1" fill="white"><title>2020-08-08: 0</title></circle>
	<circle cx="294.86" cy="368.45" data-y="0.38" data-x="1596931200" r="1" fill="white"><title>2020-08-09: 0</title></circle>
	<circle cx="296.65" cy="365.18" data-y="0.56" data-x="1597017600" r="1" fill="white"><title>2020-08-10: 1</title></circle>
	<circle cx="298.43" cy="365.18" data-y="0.56" data-x="1597104000" r="1" fill="white"><title>2020-08-11: 1</title></circle>
	<circle cx="300.22" cy="365.18" data-y="0.56" data-x="1597190400" r="1" fill="white"><title>2020-08-12: 1</title></circle>
	<circle cx="302.01" cy="365.18" data-y="0.56" data-x="1597276800" r="1" fill="white"><title>2020-08-13: 1</title></circle>
	<circle cx="303.80" cy="365.18" data-y="0.56" data-x="1597363200" r="1" fill="white"><title>2020-08-14: 1</title></circle>
	<circle cx="305.58" cy="361.91" data-y="0.75" data-x="1597449600" r="1" fill="white"><title>2020-08-15: 1</title></circle>
	<circle cx="307.37" cy="363.54" data-y="0.66" data-x="1597536000" r="1" fill="white"><title>2020-08-16: 1</title></circle>
	<circle cx="309.16" cy="360.27" data-y="0.85" data-x="1597622400" r="1" fill="white"><title>2020-08-17: 1</title></circle>
	<circle cx="310.94" cy="355.36" data-y="1.13" data-x="1597708800" r="1" fill="white"><title>2020-08-18: 1</title></circle>
	<circle cx="312.73" cy="352.09" data-y="1.32" data-x="1597795200" r="1" fill="white"><title>2020-08-19: 1</title></circle>
	<circle cx="314.52" cy="347.17" data-y="1.60" data-x="1597881600" r="1" fill="white"><title>2020-08-20: 2</title></circle>
	<circle cx="316.31" cy="338.99" data-y="2.07" data-x="1597968000" r="1" fill="white"><title>2020-08-21: 2</title></circle>
	<circle cx="318.09" cy="343.90" data-y="1.79" data-x="1598054400" r="1" fill="white"><title>2020-08-22: 2</title></circle>
	<circle cx="319.88" cy="343.90" data-y="1.79" data-x="1598140800" r="1" fill="white"><title>2020-08-23: 2</title></circle>
	<circle cx="321.67" cy="348.81" data-y="1.51" data-x="1598227200" r="1" fill="white"><title>2020-08-24: 2</title></circle>
	<circle cx="323.45" cy="338.99" data-y="2.07" data-x="1598313600" r="1" fill="white"><title>2020-08-25: 2</title></circle>
	<circle cx="325.24" cy="340.63" data-y="1.98" data-x="1598400000" r="1" fill="white"><title>2020-08-26: 2</title></circle>
	<circle cx="327.03" cy="343.90" data-y="1.79" data-x="1598486400" r="1" fill="white"><title>2020-08-27: 2</title></circle>
	<circle cx="328.82" cy="350.45" data-y="1.41" data-x="1598572800" r="1" fill="white"><title>2020-08-28: 1</title></circle>
	<circle cx="330.60" cy="348.81" data-y="1.51" data-x="1598659200" r="1" fill="white"><title>2020-08-29: 2</title></circle>
	<circle cx="332.39" cy="348.81" data-y="1.51" data-x="1598745600" r="1" fill="white"><title>2020-08-30: 2</title></circle>
	<circle cx="334.18" cy="345.54" data-y="1.69" data-x="1598832000" r="1" fill="white"><title>2020-08-31: 2</title></circle>
	<circle cx="335.96" cy="352.09" data-y="1.32" data-x="1598918400" r="1" fill="white"><title>2020-09-01: 1</title></circle>
	<circle cx="337.75" cy="347.17" data-y="1.60" data-x="1599004800" r="1" fill="white"><title>2020-09-02: 2</title></circle>
	<circle cx="339.54" cy="335.72" data-y="2.26" data-x="1599091200" r="1" fill="white"><title>2020-09-03: 2</title></circle>
	<circle cx="341.33" cy="334.08" data-y="2.35" data-x="1599177600" r="1" fill="white"><title>2020-09-04: 2</title></circle>
	<circle cx="343.11" cy="327.53" data-y="2.73" data-x="1599264000" r="1" fill="white"><title>2020-09-05: 3</title></circle>
	<circle cx="344.90" cy="322.62" data-y="3.01" data-x="1599350400" r="1" fill="white"><title>2020-09-06: 3</title></circle>
	<circle cx="346.69" cy="320.99" data-y="3.11" data-x="1599436800" r="1" fill="white"><title>2020-09-07: 3</title></circle>
	<circle cx="348.47" cy="327.53" data-y="2.73" data-x="1599523200" r="1" fill="white"><title>2020-09-08: 3</title></circle>
	<circle cx="350.26" cy="330.81" data-y="2.54" data-x="1599609600" r="1" fill="white"><title>2020-09-09: 3</title></circle>
	<circle cx="352.05" cy="342.26" data-y="1.88" data-x="1599696000" r="1" fill="white"><title>2020-09-10: 2</title></circle>
	<circle cx="353.84" cy="345.54" data-y="1.69" data-x="1599782400" r="1" fill="white"><title>2020-09-11: 2</title></circle>
	<circle cx="355.62" cy="353.72" data-y="1.22" data-x="1599868800" r="1" fill="white"><title>2020-09-12: 1</title></circle>
	<circle cx="357.41" cy="357.00" data-y="1.04" data-x="1599955200" r="1" fill="white"><title>2020-09-13: 1</title></circle>
	<circle cx="359.20" cy="363.54" data-y="0.66" data-x="1600041600" r="1" fill="white"><title>2020-09-14: 1</title></circle>
	<circle cx="360.98" cy="363.54" data-y="0.66" data-x="1600128000" r="1" fill="white"><title>2020-09-15: 1</title></circle>
	<circle cx="362.77" cy="363.54" data-y="0.66" data-x="1600214400" r="1" fill="white"><title>2020-09-16: 1</title></circle>
	<circle cx="364.56" cy="363.54" data-y="0.66" data-x="1600300800" r="1" fill="white"><title>2020-09-17: 1</title></circle>
	<circle cx="366.35" cy="361.91" data-y="0.75" data-x="1600387200" r="1" fill="white"><title>2020-09-18: 1</title></circle>
	<circle cx="368.13" cy="355.36" data-y="1.13" data-x="1600473600" r="1" fill="white"><title>2020-09-19: 1</title></circle>
	<circle cx="369.92" cy="358.63" data-y="0.94" data-x="1600560000" r="1" fill="white"><title>2020-09-20: 1</title></circle>
	<circle cx="371.71" cy="350.45" data-y="1.41" data-x="1600646400" r="1" fill="white"><title>2020-09-21: 1</title></circle>
	<circle cx="373.49" cy="345.54" data-y="1.69" data-x="1600732800" r="1" fill="white"><title>2020-09-22: 2</title></circle>
	<circle cx="375.28" cy="337.35" data-y="2.16" data-x="1600819200" r="1" fill="white"><title>2020-09-23: 2</title></circle>
	<circle cx="377.07" cy="337.35" data-y="2.16" data-x="1600905600" r="1" fill="white"><title>2020-09-24: 2</title></circle>
	<circle cx="378.86" cy="330.81" data-y="2.54" data-x="1600992000" r="1" fill="white"><title>2020-09-25: 3</title></circle>
	<circle cx="380.64" cy="334.08" data-y="2.35" data-x="1601078400" r="1" fill="white"><title>2020-09-26: 2</title></circle>
	<circle cx="382.43" cy="320.99" data-y="3.11" data-x="1601164800" r="1" fill="white"><title>2020-09-27: 3</title></circle>
	<circle cx="384.22" cy="320.99" data-y="3.11" data-x="1601251200" r="1" fill="white"><title>2020-09-28: 3</title></circle>
	<circle cx="386.00" cy="324.26" data-y="2.92" data-x="1601337600" r="1" fill="white"><title>2020-09-29: 3</title></circle>
	<circle cx="387.79" cy="322.62" data-y="3.01" data-x="1601424000" r="1" fill="white"><title>2020-09-30: 3</title></circle>
	<circle cx="389.58" cy="316.08" data-y="3.39" data-x="1601510400" r="1" fill="white"><title>2020-10-01: 3</title></circle>
	<circle cx="391.37" cy="311.17" data-y="3.67" data-x="1601596800" r="1" fill="white"><title>2020-10-02: 4</title></circle>
	<circle cx="393.15" cy="306.26" data-y="3.95" data-x="1601683200" r="1" fill="white"><title>2020-10-03: 4</title></circle>
	<circle cx="394.94" cy="293.16" data-y="4.71" data-x="1601769600" r="1" fill="white"><title>2020-10-04: 5</title></circle>
	<circle cx="396.73" cy="289.89" data-y="4.89" data-x="1601856000" r="1" fill="white"><title>2020-10-05: 5</title></circle>
	<circle cx="398.51" cy="281.70" data-y="5.36" data-x="1601942400" r="1" fill="white"><title>2020-10-06: 5</title></circle>
	<circle cx="400.30" cy="289.89" data-y="4.89" data-x="1602028800" r="1" fill="white"><title>2020-10-07: 5</title></circle>
	<circle cx="402.09" cy="284.98" data-y="5.18" data-x="1602115200" r="1" fill="white"><title>2020-10-08: 5</title></circle>
	<circle cx="403.88" cy="280.07" data-y="5.46" data-x="1602201600" r="1" fill="white"><title>2020-10-09: 5</title></circle>
	<circle cx="405.66" cy="276.79" data-y="5.65" data-x="1602288000" r="1" fill="white"><title>2020-10-10: 6</title></circle>
	<circle cx="407.45" cy="286.61" data-y="5.08" data-x="1602374400" r="1" fill="white"><title>2020-10-11: 5</title></circle>
	<circle cx="409.24" cy="271.88" data-y="5.93" data-x="1602460800" r="1" fill="white"><title>2020-10-12: 6</title></circle>
	<circle cx="411.02" cy="280.07" data-y="5.46" data-x="1602547200" r="1" fill="white"><title>2020-10-13: 5</title></circle>
	<circle cx="412.81" cy="275.16" data-y="5.74" data-x="1602633600" r="1" fill="white"><title>2020-10-14: 6</title></circle>
	<circle cx="414.60" cy="265.34" data-y="6.31" data-x="1602720000" r="1" fill="white"><title>2020-10-15: 6</title></circle>
	<circle cx="416.39" cy="265.34" data-y="6.31" data-x="1602806400" r="1" fill="white"><title>2020-10-16: 6</title></circle>
	<circle cx="418.17" cy="240.78" data-y="7.72" data-x="1602892800" r="1" fill="white"><title>2020-10-17: 8</title></circle>
	<circle cx="419.96" cy="229.33" data-y="8.38" data-x="1602979200" r="1" fill="white"><title>2020-10-18: 8</title></circle>
	<circle cx="421.75" cy="222.78" data-y="8.75" data-x="1603065600" r="1" fill="white"><title>2020-10-19: 9</title></circle>
	<circle cx="423.53" cy="193.32" data-y="10.45" data-x="1603152000" r="1" fill="white"><title>2020-10-20: 10</title></circle>
	<circle cx="425.32" cy="168.77" data-y="11.86" data-x="1603238400" r="1" fill="white"><title>2020-10-21: 12</title></circle>
	<circle cx="427.11" cy="173.68" data-y="11.58" data-x="1603324800" r="1" fill="white"><title>2020-10-22: 12</title></circle>
	<circle cx="428.90" cy="152.40" data-y="12.80" data-x="1603411200" r="1" fill="white"><title>2020-10-23: 13</title></circle>
	<circle cx="430.68" cy="154.04" data-y="12.71" data-x="1603497600" r="1" fill="white"><title>2020-10-24: 13</title></circle>
	<circle cx="432.47" cy="157.31" data-y="12.52" data-x="1603584000" r="1" fill="white"><title>2020-10-25: 13</title></circle>
	<circle cx="434.26" cy="175.31" data-y="11.48" data-x="1603670400" r="1" fill="white"><title>2020-10-26: 11</title></circle>
	<circle cx="436.04" cy="173.68" data-y="11.58" data-x="1603756800" r="1" fill="white"><title>2020-10-27: 12</title></circle>
	<circle cx="437.83" cy="190.04" data-y="10.64" data-x="1603843200" r="1" fill="white"><title>2020-10-28: 11</title></circle>
	<circle cx="439.62" cy="178.59" data-y="11.29" data-x="1603929600" r="1" fill="white"><title>2020-10-29: 11</title></circle>
	<circle cx="441.41" cy="172.04" data-y="11.67" data-x="1604016000" r="1" fill="white"><title>2020-10-30: 12</title></circle>
	<circle cx="443.19" cy="165.49" data-y="12.05" data-x="1604102400" r="1" fill="white"><title>2020-10-31: 12</title></circle>
	<circle cx="444.98" cy="147.49" data-y="13.08" data-x="1604188800" r="1" fill="white"><title>2020-11-01: 13</title></circle>
	<circle cx="446.77" cy="111.48" data-y="15.15" data-x="1604275200" r="1" fill="white"><title>2020-11-02: 15</title></circle>
	<circle cx="448.55" cy="106.57" data-y="15.44" data-x="1604361600" r="1" fill="white"><title>2020-11-03: 15</title></circle>
	<circle cx="450.34" cy="78.74" data-y="17.04" data-x="1604448000" r="1" fill="white"><title>2020-11-04: 17</title></circle>
	<circle cx="452.13" cy="82.02" data-y="16.85" data-x="1604534400" r="1" fill="white"><title>2020-11-05: 17</title></circle>
	<circle cx="453.92" cy="77.11" data-y="17.13" data-x="1604620800" r="1" fill="white"><title>2020-11-06: 17</title></circle>
	<circle cx="455.70" cy="57.47" data-y="18.26" data-x="1604707200" r="1" fill="white"><title>2020-11-07: 18</title></circle>
	<circle cx="457.49" cy="26.37" data-y="20.05" data-x="1604793600" r="1" fill="white"><title>2020-11-08: 20</title></circle>
	<circle cx="459.28" cy="13.27" data-y="20.80" data-x="1604880000" r="1" fill="white"><title>2020-11-09: 21</title></circle>
	<circle cx="461.06" cy="10.00" data-y="20.99" data-x="1604966400" r="1" fill="white"><title>2020-11-10: 21</title></circle>
</g>
<g data-series="recent-cases" class="data-series">
	<path d="M 461.06,10.00L 462.85,24.73L 464.64,49.28L 466.43,56.10L 468.21,77.11L 470.00,131.53" id="Recent cases" class="line" stroke-width="1" stroke-linecap="round" stroke-dasharray="4,6" stroke-dashoffset="4"><title>Recent cases</title></path>
	<circle cx="461.06" cy="10.00" data-y="20.99" data-x="1604966400" r="2.5" fill="white"><title>2020-11-10: 21</title></circle>
	<circle cx="462.85" cy="24.73" data-y="20.14" data-x="1605052800" r="2.5" fill="white"><title>2020-11-11: 20</title></circle>
	<circle cx="464.64" cy="49.28" data-y="18.73" data-x="1605139200" r="2.5" fill="white"><title>2020-11-12: 19</title></circle>
	<circle cx="466.43" cy="56.10" data-y="18.34" data-x="1605225600" r="2.5" fill="white"><title>2020-11-13: 18</title></circle>
	<circle cx="468.21" cy="77.11" data-y="17.13" data-x="1605312000" r="2.5" fill="white"><title>2020-11-14: 17</title></circle>
	<circle cx="470.00" cy="131.53" data-y="14.00" data-x="1605398400" r="2.5" fill="white"><title>2020-11-15: 14</title></circle>
</g>
</svg>
