<svg width="480" height="400" viewBox="0 0 480 400" xmlns="http://www.w3.org/2000/svg" style="overflow:display" preserveAspectRatio="xMinYMin meet" overflow="visible">
<defs>
	<style>
	.data-series path.line { fill-opacity: 0; stroke: black; }
	.data-series path.line.dotted { stroke-dasharray: 12 20 }
	.data-series:hover path.line, .data-series.on path.line { stroke-width: 1; }
	.data-series:hover circle, .data-series.on circle { display: inline; }
	.graph-grid { font-family: "Helvetica Neue",Helvetica,Arial,"Lucida Grande",sans-serif; }
	.graph-grid line { stroke: black; stroke-width: 1; stroke-linecap: round; }
	.graph-grid.graph-grid-x text { text-anchor: middle; dominant-baseline: hanging; transform: translateY(10px); }
	.graph-grid.graph-grid-y text { text-anchor: end; dominant-baseline: middle; transform: translateX(-10px); }
	</style>
</defs>
<g class="graph-grid graph-grid-y">
	<line x1="25.00" y1="375.00" x2="470.00" y2="375.00" data-left="25"></line>
	<text x="35" y="375" text-anchor="end">0</text>
	<text x="35" y="224.139964454976" text-anchor="end">10</text>
	<text x="35" y="73.2799289099526" text-anchor="end">20</text>
	<text style="text-anchor:middle;dominant-baseline:hanging;font-weight:bold;transform: translateY(192.5px) rotate(-90deg);"></text>
</g>
<g class="graph-grid graph-grid-x">
	<line class="tick" x1="67.85" y1="375.00" x2="67.85" y2="380.00"></line>
	<text x="67.8518518518518" y="375" text-anchor="middle">A</text>
	<line class="tick" x1="117.30" y1="375.00" x2="117.30" y2="380.00"></line>
	<text x="117.296296296296" y="375" text-anchor="middle">M</text>
	<line class="tick" x1="168.39" y1="375.00" x2="168.39" y2="380.00"></line>
	<text x="168.388888888889" y="375" text-anchor="middle">J</text>
	<line class="tick" x1="217.83" y1="375.00" x2="217.83" y2="380.00"></line>
	<text x="217.833333333333" y="375" text-anchor="middle">J</text>
	<line class="tick" x1="268.93" y1="375.00" x2="268.93" y2="380.00"></line>
	<text x="268.925925925926" y="375" text-anchor="middle">A</text>
	<line class="tick" x1="320.02" y1="375.00" x2="320.02" y2="380.00"></line>
	<text x="320.018518518519" y="375" text-anchor="middle">S</text>
	<line class="tick" x1="369.46" y1="375.00" x2="369.46" y2="380.00"></line>
	<text x="369.462962962963" y="375" text-anchor="middle">O</text>
	<line class="tick" x1="420.56" y1="375.00" x2="420.56" y2="380.00"></line>
	<text x="420.555555555556" y="375" text-anchor="middle">N</text>
	<line class="tick" x1="470.00" y1="375.00" x2="470.00" y2="380.00"></line>
	<text x="470" y="375" text-anchor="middle">D</text>
	<text style="text-anchor:middle;dominant-baseline:hanging;font-weight:bold;transform: translateY(192.5px) rotate(-90deg);"></text>
</g>
<g data-series="widespread" class="data-series">
	<path d="M 25.00,269.40L 470.00,269.40" id="E07000241-level-0" class="line" stroke-width="1" stroke-linecap="round" stroke-dasharray="3,3" fill-opacity="0.3" opacity="0.3"><title>Widespread</title></path>
</g>
<g data-series="substantial" class="data-series">
	<path d="M 25.00,314.66L 470.00,314.66" id="E07000241-level-1" class="line" stroke-width="1" stroke-linecap="round" stroke-dasharray="3,3" fill-opacity="0.3" opacity="0.3"><title>Substantial</title></path>
</g>
<g data-series="moderate" class="data-series">
	<path d="M 25.00,359.91L 470.00,359.91" id="E07000241-level-2" class="line" stroke-width="1" stroke-linecap="round" stroke-dasharray="3,3" fill-opacity="0.3" opacity="0.3"><title>Moderate</title></path>
</g>
<g data-series="new-cases" class="data-series">
	<path d="M 25.00,371.97L 26.65,372.58L 28.30,372.98L 29.94,373.27L 31.59,375.00L 33.24,375.00L 34.89,373.27L 36.54,373.27L 38.19,369.81L 39.83,368.08L 41.48,362.89L 43.13,354.24L 44.78,350.78L 46.43,350.78L 48.07,342.13L 49.72,342.13L 51.37,342.13L 53.02,342.13L 54.67,347.32L 56.31,345.59L 57.96,336.94L 59.61,338.67L 61.26,340.40L 62.91,336.94L 64.56,328.29L 66.20,328.29L 67.85,328.29L 69.50,330.02L 71.15,324.83L 72.80,312.73L 74.44,309.27L 76.09,311.00L 77.74,309.27L 79.39,298.89L 81.04,302.35L 82.69,314.45L 84.33,319.64L 85.98,311.00L 87.63,314.45L 89.28,312.73L 90.93,326.56L 92.57,319.64L 94.22,316.18L 95.87,317.91L 97.52,316.18L 99.17,312.73L 100.81,317.91L 102.46,317.91L 104.11,317.91L 105.76,312.73L 107.41,311.00L 109.06,307.54L 110.70,307.54L 112.35,283.32L 114.00,276.40L 115.65,286.78L 117.30,288.51L 118.94,295.43L 120.59,305.81L 122.24,307.54L 123.89,321.37L 125.54,316.18L 127.19,316.18L 128.83,314.45L 130.48,300.62L 132.13,285.05L 133.78,286.78L 135.43,291.97L 137.07,302.35L 138.72,298.89L 140.37,276.40L 142.02,286.78L 143.67,304.08L 145.31,304.08L 146.96,300.62L 148.61,300.62L 150.26,305.81L 151.91,333.48L 153.56,335.21L 155.20,343.86L 156.85,350.78L 158.50,359.43L 160.15,361.16L 161.80,359.43L 163.44,361.16L 165.09,359.43L 166.74,359.43L 168.39,354.24L 170.04,347.32L 171.69,340.40L 173.33,342.13L 174.98,338.67L 176.63,335.21L 178.28,330.02L 179.93,335.21L 181.57,343.86L 183.22,350.78L 184.87,350.78L 186.52,355.97L 188.17,364.62L 189.81,369.81L 191.46,369.81L 193.11,369.81L 194.76,371.54L 196.41,371.54L 198.06,371.54L 199.70,371.54L 201.35,373.27L 203.00,375.00L 204.65,373.27L 206.30,373.27L 207.94,373.27L 209.59,371.54L 211.24,366.35L 212.89,366.35L 214.54,366.35L 216.19,362.89L 217.83,362.89L 219.48,362.89L 221.13,362.89L 222.78,366.35L 224.43,359.43L 226.07,357.70L 227.72,362.89L 229.37,362.89L 231.02,362.89L 232.67,364.62L 234.31,366.35L 235.96,371.54L 237.61,373.27L 239.26,373.27L 240.91,373.27L 242.56,373.27L 244.20,371.54L 245.85,371.54L 247.50,373.27L 249.15,373.27L 250.80,373.27L 252.44,373.27L 254.09,373.27L 255.74,375.00L 257.39,375.00L 259.04,371.54L 260.69,366.35L 262.33,366.35L 263.98,364.62L 265.63,362.89L 267.28,359.43L 268.93,355.97L 270.57,355.97L 272.22,359.43L 273.87,357.70L 275.52,359.43L 277.17,361.16L 278.81,364.62L 280.46,366.35L 282.11,368.08L 283.76,368.08L 285.41,369.81L 287.06,369.81L 288.70,368.08L 290.35,359.43L 292.00,359.43L 293.65,361.16L 295.30,355.97L 296.94,354.24L 298.59,350.78L 300.24,350.78L 301.89,355.97L 303.54,355.97L 305.19,342.13L 306.83,340.40L 308.48,333.48L 310.13,331.75L 311.78,326.56L 313.43,328.29L 315.07,328.29L 316.72,333.48L 318.37,336.94L 320.02,335.21L 321.67,333.48L 323.31,335.21L 324.96,316.18L 326.61,305.81L 328.26,304.08L 329.91,302.35L 331.56,300.62L 333.20,305.81L 334.85,311.00L 336.50,326.56L 338.15,335.21L 339.80,338.67L 341.44,340.40L 343.09,352.51L 344.74,342.13L 346.39,338.67L 348.04,338.67L 349.69,340.40L 351.33,342.13L 352.98,342.13L 354.63,338.67L 356.28,349.05L 357.93,345.59L 359.57,343.86L 361.22,340.40L 362.87,335.21L 364.52,326.56L 366.17,309.27L 367.81,297.16L 369.46,286.78L 371.11,276.40L 372.76,262.56L 374.41,236.61L 376.06,234.88L 377.70,240.07L 379.35,246.99L 381.00,243.53L 382.65,229.69L 384.30,205.47L 385.94,214.12L 387.59,202.01L 389.24,191.64L 390.89,174.34L 392.54,167.42L 394.19,163.96L 395.83,165.69L 397.48,162.23L 399.13,141.47L 400.78,136.28L 402.43,132.82L 404.07,139.74L 405.72,125.90L 407.37,127.63L 409.02,115.52L 410.67,115.52L 412.31,118.98L 413.96,99.95L 415.61,91.30L 417.26,72.27L 418.91,23.84L 420.56,29.03L 422.20,54.98L 423.85,25.57L 425.50,11.73L 427.15,15.19L 428.80,10.00L 430.44,48.06L 432.09,41.14L 433.74,10.00L 435.39,32.49L 437.04,58.44L 438.69,48.06L 440.33,77.46L 441.98,77.46L 443.63,82.65L 445.28,86.11L 446.93,89.57L 448.57,103.41L 450.22,112.06L 451.87,125.90L 453.52,151.85L 455.17,153.58L 456.81,189.91L 458.46,186.45L 460.11,176.07L 461.76,177.80" id="New cases" class="line" stroke-width="1" stroke-linecap="round"><title>New cases</title></path>
	<circle cx="25.00" cy="371.97" data-y="0.20" data-x="1583452800" r="1" fill="white"><title>2020-03-06: 0</title></circle>
	<circle cx="26.65" cy="372.58" data-y="0.16" data-x="1583539200" r="1" fill="white"><title>2020-03-07: 0</title></circle>
	<circle cx="28.30" cy="372.98" data-y="0.13" data-x="1583625600" r="1" fill="white"><title>2020-03-08: 0</title></circle>
	<circle cx="29.94" cy="373.27" data-y="0.11" data-x="1583712000" r="1" fill="white"><title>2020-03-09: 0</title></circle>
	<circle cx="31.59" cy="375.00" data-y="0.00" data-x="1583798400" r="1" fill="white"><title>2020-03-10: 0</title></circle>
	<circle cx="33.24" cy="375.00" data-y="0.00" data-x="1583884800" r="1" fill="white"><title>2020-03-11: 0</title></circle>
	<circle cx="34.89" cy="373.27" data-y="0.11" data-x="1583971200" r="1" fill="white"><title>2020-03-12: 0</title></circle>
	<circle cx="36.54" cy="373.27" data-y="0.11" data-x="1584057600" r="1" fill="white"><title>2020-03-13: 0</title></circle>
	<circle cx="38.19" cy="369.81" data-y="0.34" data-x="1584144000" r="1" fill="white"><title>2020-03-14: 0</title></circle>
	<circle cx="39.83" cy="368.08" data-y="0.46" data-x="1584230400" r="1" fill="white"><title>2020-03-15: 0</title></circle>
	<circle cx="41.48" cy="362.89" data-y="0.80" data-x="1584316800" r="1" fill="white"><title>2020-03-16: 1</title></circle>
	<circle cx="43.13" cy="354.24" data-y="1.38" data-x="1584403200" r="1" fill="white"><title>2020-03-17: 1</title></circle>
	<circle cx="44.78" cy="350.78" data-y="1.61" data-x="1584489600" r="1" fill="white"><title>2020-03-18: 2</title></circle>
	<circle cx="46.43" cy="350.78" data-y="1.61" data-x="1584576000" r="1" fill="white"><title>2020-03-19: 2</title></circle>
	<circle cx="48.07" cy="342.13" data-y="2.18" data-x="1584662400" r="1" fill="white"><title>2020-03-20: 2</title></circle>
	<circle cx="49.72" cy="342.13" data-y="2.18" data-x="1584748800" r="1" fill="white"><title>2020-03-21: 2</title></circle>
	<circle cx="51.37" cy="342.13" data-y="2.18" data-x="1584835200" r="1" fill="white"><title>2020-03-22: 2</title></circle>
	<circle cx="53.02" cy="342.13" data-y="2.18" data-x="1584921600" r="1" fill="white"><title>2020-03-23: 2</title></circle>
	<circle cx="54.67" cy="347.32" data-y="1.83" data-x="1585008000" r="1" fill="white"><title>2020-03-24: 2</title></circle>
	<circle cx="56.31" cy="345.59" data-y="1.95" data-x="1585094400" r="1" fill="white"><title>2020-03-25: 2</title></circle>
	<circle cx="57.96" cy="336.94" data-y="2.52" data-x="1585180800" r="1" fill="white"><title>2020-03-26: 3</title></circle>
	<circle cx="59.61" cy="338.67" data-y="2.41" data-x="1585267200" r="1" fill="white"><title>2020-03-27: 2</title></circle>
	<circle cx="61.26" cy="340.40" data-y="2.29" data-x="1585353600" r="1" fill="white"><title>2020-03-28: 2</title></circle>
	<circle cx="62.91" cy="336.94" data-y="2.52" data-x="1585440000" r="1" fill="white"><title>2020-03-29: 3</title></circle>
	<circle cx="64.56" cy="328.29" data-y="3.10" data-x="1585526400" r="1" fill="white"><title>2020-03-30: 3</title></circle>
	<circle cx="66.20" cy="328.29" data-y="3.10" data-x="1585612800" r="1" fill="white"><title>2020-03-31: 3</title></circle>
	<circle cx="67.85" cy="328.29" data-y="3.10" data-x="1585699200" r="1" fill="white"><title>2020-04-01: 3</title></circle>
	<circle cx="69.50" cy="330.02" data-y="2.98" data-x="1585785600" r="1" fill="white"><title>2020-04-02: 3</title></circle>
	<circle cx="71.15" cy="324.83" data-y="3.33" data-x="1585872000" r="1" fill="white"><title>2020-04-03: 3</title></circle>
	<circle cx="72.80" cy="312.73" data-y="4.13" data-x="1585958400" r="1" fill="white"><title>2020-04-04: 4</title></circle>
	<circle cx="74.44" cy="309.27" data-y="4.36" data-x="1586044800" r="1" fill="white"><title>2020-04-05: 4</title></circle>
	<circle cx="76.09" cy="311.00" data-y="4.24" data-x="1586131200" r="1" fill="white"><title>2020-04-06: 4</title></circle>
	<circle cx="77.74" cy="309.27" data-y="4.36" data-x="1586217600" r="1" fill="white"><title>2020-04-07: 4</title></circle>
	<circle cx="79.39" cy="298.89" data-y="5.05" data-x="1586304000" r="1" fill="white"><title>2020-04-08: 5</title></circle>
	<circle cx="81.04" cy="302.35" data-y="4.82" data-x="1586390400" r="1" fill="white"><title>2020-04-09: 5</title></circle>
	<circle cx="82.69" cy="314.45" data-y="4.01" data-x="1586476800" r="1" fill="white"><title>2020-04-10: 4</title></circle>
	<circle cx="84.33" cy="319.64" data-y="3.67" data-x="1586563200" r="1" fill="white"><title>2020-04-11: 4</title></circle>
	<circle cx="85.98" cy="311.00" data-y="4.24" data-x="1586649600" r="1" fill="white"><title>2020-04-12: 4</title></circle>
	<circle cx="87.63" cy="314.45" data-y="4.01" data-x="1586736000" r="1" fill="white"><title>2020-04-13: 4</title></circle>
	<circle cx="89.28" cy="312.73" data-y="4.13" data-x="1586822400" r="1" fill="white"><title>2020-04-14: 4</title></circle>
	<circle cx="90.93" cy="326.56" data-y="3.21" data-x="1586908800" r="1" fill="white"><title>2020-04-15: 3</title></circle>
	<circle cx="92.57" cy="319.64" data-y="3.67" data-x="1586995200" r="1" fill="white"><title>2020-04-16: 4</title></circle>
	<circle cx="94.22" cy="316.18" data-y="3.90" data-x="1587081600" r="1" fill="white"><title>2020-04-17: 4</title></circle>
	<circle cx="95.87" cy="317.91" data-y="3.78" data-x="1587168000" r="1" fill="white"><title>2020-04-18: 4</title></circle>
	<circle cx="97.52" cy="316.18" data-y="3.90" data-x="1587254400" r="1" fill="white"><title>2020-04-19: 4</title></circle>
	<circle cx="99.17" cy="312.73" data-y="4.13" data-x="1587340800" r="1" fill="white"><title>2020-04-20: 4</title></circle>
	<circle cx="100.81" cy="317.91" data-y="3.78" data-x="1587427200" r="1" fill="white"><title>2020-04-21: 4</title></circle>
	<circle cx="102.46" cy="317.91" data-y="3.78" data-x="1587513600" r="1" fill="white"><title>2020-04-22: 4</title></circle>
	<circle cx="104.11" cy="317.91" data-y="3.78" data-x="1587600000" r="1" fill="white"><title>2020-04-23: 4</title></circle>
	<circle cx="105.76" cy="312.73" data-y="4.13" data-x="1587686400" r="1" fill="white"><title>2020-04-24: 4</title></circle>
	<circle cx="107.41" cy="311.00" data-y="4.24" data-x="1587772800" r="1" fill="white"><title>2020-04-25: 4</title></circle>
	<circle cx="109.06" cy="307.54" data-y="4.47" data-x="1587859200" r="1" fill="white"><title>2020-04-26: 4</title></circle>
	<circle cx="110.70" cy="307.54" data-y="4.47" data-x="1587945600" r="1" fill="white"><title>2020-04-27: 4</title></circle>
	<circle cx="112.35" cy="283.32" data-y="6.08" data-x="1588032000" r="1" fill="white"><title>2020-04-28: 6</title></circle>
	<circle cx="114.00" cy="276.40" data-y="6.54" data-x="1588118400" r="1" fill="white"><title>2020-04-29: 7</title></circle>
	<circle cx="115.65" cy="286.78" data-y="5.85" data-x="1588204800" r="1" fill="white"><title>2020-04-30: 6</title></circle>
	<circle cx="117.30" cy="288.51" data-y="5.73" data-x="1588291200" r="1" fill="white"><title>2020-05-01: 6</title></circle>
	<circle cx="118.94" cy="295.43" data-y="5.27" data-x="1588377600" r="1" fill="white"><title>2020-05-02: 5</title></circle>
	<circle cx="120.59" cy="305.81" data-y="4.59" data-x="1588464000" r="1" fill="white"><title>2020-05-03: 5</title></circle>
	<circle cx="122.24" cy="307.54" data-y="4.47" data-x="1588550400" r="1" fill="white"><title>2020-05-04: 4</title></circle>
	<circle cx="123.89" cy="321.37" data-y="3.55" data-x="1588636800" r="1" fill="white"><title>2020-05-05: 4</title></circle>
	<circle cx="125.54" cy="316.18" data-y="3.90" data-x="1588723200" r="1" fill="white"><title>2020-05-06: 4</title></circle>
	<circle cx="127.19" cy="316.18" data-y="3.90" data-x="1588809600" r="1" fill="white"><title>2020-05-07: 4</title></circle>
	<circle cx="128.83" cy="314.45" data-y="4.01" data-x="1588896000" r="1" fill="white"><title>2020-05-08: 4</title></circle>
	<circle cx="130.48" cy="300.62" data-y="4.93" data-x="1588982400" r="1" fill="white"><title>2020-05-09: 5</title></circle>
	<circle cx="132.13" cy="285.05" data-y="5.96" data-x="1589068800" r="1" fill="white"><title>2020-05-10: 6</title></circle>
	<circle cx="133.78" cy="286.78" data-y="5.85" data-x="1589155200" r="1" fill="white"><title>2020-05-11: 6</title></circle>
	<circle cx="135.43" cy="291.97" data-y="5.50" data-x="1589241600" r="1" fill="white"><title>2020-05-12: 6</title></circle>
	<circle cx="137.07" cy="302.35" data-y="4.82" data-x="1589328000" r="1" fill="white"><title>2020-05-13: 5</title></circle>
	<circle cx="138.72" cy="298.89" data-y="5.05" data-x="1589414400" r="1" fill="white"><title>2020-05-14: 5</title></circle>
	<circle cx="140.37" cy="276.40" data-y="6.54" data-x="1589500800" r="1" fill="white"><title>2020-05-15: 7</title></circle>
	<circle cx="142.02" cy="286.78" data-y="5.85" data-x="1589587200" r="1" fill="white"><title>2020-05-16: 6</title></circle>
	<circle cx="143.67" cy="304.08" data-y="4.70" data-x="1589673600" r="1" fill="white"><title>2020-05-17: 5</title></circle>
	<circle cx="145.31" cy="304.08" data-y="4.70" data-x="1589760000" r="1" fill="white"><title>2020-05-18: 5</title></circle>
	<circle cx="146.96" cy="300.62" data-y="4.93" data-x="1589846400" r="1" fill="white"><title>2020-05-19: 5</title></circle>
	<circle cx="148.61" cy="300.62" data-y="4.93" data-x="1589932800" r="1" fill="white"><title>2020-05-20: 5</title></circle>
	<circle cx="150.26" cy="305.81" data-y="4.59" data-x="1590019200" r="1" fill="white"><title>2020-05-21: 5</title></circle>
	<circle cx="151.91" cy="333.48" data-y="2.75" data-x="1590105600" r="1" fill="white"><title>2020-05-22: 3</title></circle>
	<circle cx="153.56" cy="335.21" data-y="2.64" data-x="1590192000" r="1" fill="white"><title>2020-05-23: 3</title></circle>
	<circle cx="155.20" cy="343.86" data-y="2.06" data-x="1590278400" r="1" fill="white"><title>2020-05-24: 2</title></circle>
	<circle cx="156.85" cy="350.78" data-y="1.61" data-x="1590364800" r="1" fill="white"><title>2020-05-25: 2</title></circle>
	<circle cx="158.50" cy="359.43" data-y="1.03" data-x="1590451200" r="1" fill="white"><title>2020-05-26: 1</title></circle>
	<circle cx="160.15" cy="361.16" data-y="0.92" data-x="1590537600" r="1" fill="white"><title>2020-05-27: 1</title></circle>
	<circle cx="161.80" cy="359.43" data-y="1.03" data-x="1590624000" r="1" fill="white"><title>2020-05-28: 1</title></circle>
	<circle cx="163.44" cy="361.16" data-y="0.92" data-x="1590710400" r="1" fill="white"><title>2020-05-29: 1</title></circle>
	<circle cx="165.09" cy="359.43" data-y="1.03" data-x="1590796800" r="1" fill="white"><title>2020-05-30: 1</title></circle>
	<circle cx="166.74" cy="359.43" data-y="1.03" data-x="1590883200" r="1" fill="white"><title>2020-05-31: 1</title></circle>
	<circle cx="168.39" cy="354.24" data-y="1.38" data-x="1590969600" r="1" fill="white"><title>2020-06-01: 1</title></circle>
	<circle cx="170.04" cy="347.32" data-y="1.83" data-x="1591056000" r="1" fill="white"><title>2020-06-02: 2</title></circle>
	<circle cx="171.69" cy="340.40" data-y="2.29" data-x="1591142400" r="1" fill="white"><title>2020-06-03: 2</title></circle>
	<circle cx="173.33" cy="342.13" data-y="2.18" data-x="1591228800" r="1" fill="white"><title>2020-06-04: 2</title></circle>
	<circle cx="174.98" cy="338.67" data-y="2.41" data-x="1591315200" r="1" fill="white"><title>2020-06-05: 2</title></circle>
	<circle cx="176.63" cy="335.21" data-y="2.64" data-x="1591401600" r="1" fill="white"><title>2020-06-06: 3</title></circle>
	<circle cx="178.28" cy="330.02" data-y="2.98" data-x="1591488000" r="1" fill="white"><title>2020-06-07: 3</title></circle>
	<circle cx="179.93" cy="335.21" data-y="2.64" data-x="1591574400" r="1" fill="white"><title>2020-06-08: 3</title></circle>
	<circle cx="181.57" cy="343.86" data-y="2.06" data-x="1591660800" r="1" fill="white"><title>2020-06-09: 2</title></circle>
	<circle cx="183.22" cy="350.78" data-y="1.61" data-x="1591747200" r="1" fill="white"><title>2020-06-10: 2</title></circle>
	<circle cx="184.87" cy="350.78" data-y="1.61" data-x="1591833600" r="1" fill="white"><title>2020-06-11: 2</title></circle>
	<circle cx="186.52" cy="355.97" data-y="1.26" data-x="1591920000" r="1" fill="white"><title>2020-06-12: 1</title></circle>
	<circle cx="188.17" cy="364.62" data-y="0.69" data-x="1592006400" r="1" fill="white"><title>2020-06-13: 1</title></circle>
	<circle cx="189.81" cy="369.81" data-y="0.34" data-x="1592092800" r="1" fill="white"><title>2020-06-14: 0</title></circle>
	<circle cx="191.46" cy="369.81" data-y="0.34" data-x="1592179200" r="1" fill="white"><title>2020-06-15: 0</title></circle>
	<circle cx="193.11" cy="369.81" data-y="0.34" data-x="1592265600" r="1" fill="white"><title>2020-06-16: 0</title></circle>
	<circle cx="194.76" cy="371.54" data-y="0.23" data-x="1592352000" r="1" fill="white"><title>2020-06-17: 0</title></circle>
	<circle cx="196.41" cy="371.54" data-y="0.23" data-x="1592438400" r="1" fill="white"><title>2020-06-18: 0</title></circle>
	<circle cx="198.06" cy="371.54" data-y="0.23" data-x="1592524800" r="1" fill="white"><title>2020-06-19: 0</title></circle>
	<circle cx="199.70" cy="371.54" data-y="0.23" data-x="1592611200" r="1" fill="white"><title>2020-06-20: 0</title></circle>
	<circle cx="201.35" cy="373.27" data-y="0.11" data-x="1592697600" r="1" fill="white"><title>2020-06-21: 0</title></circle>
	<circle cx="203.00" cy="375.00" data-y="0.00" data-x="1592784000" r="1" fill="white"><title>2020-06-22: 0</title></circle>
	<circle cx="204.65" cy="373.27" data-y="0.11" data-x="1592870400" r="1" fill="white"><title>2020-06-23: 0</title></circle>
	<circle cx="206.30" cy="373.27" data-y="0.11" data-x="1592956800" r="1" fill="white"><title>2020-06-24: 0</title></circle>
	<circle cx="207.94" cy="373.27" data-y="0.11" data-x="1593043200" r="1" fill="white"><title>2020-06-25: 0</title></circle>
	<circle cx="209.59" cy="371.54" data-y="0.23" data-x="1593129600" r="1" fill="white"><title>2020-06-26: 0</title></circle>
	<circle cx="211.24" cy="366.35" data-y="0.57" data-x="1593216000" r="1" fill="white"><title>2020-06-27: 1</title></circle>
	<circle cx="212.89" cy="366.35" data-y="0.57" data-x="1593302400" r="1" fill="white"><title>2020-06-28: 1</title></circle>
	<circle cx="214.54" cy="366.35" data-y="0.57" data-x="1593388800" r="1" fill="white"><title>2020-06-29: 1</title></circle>
	<circle cx="216.19" cy="362.89" data-y="0.80" data-x="1593475200" r="1" fill="white"><title>2020-06-30: 1</title></circle>
	<circle cx="217.83" cy="362.89" data-y="0.80" data-x="1593561600" r="1" fill="white"><title>2020-07-01: 1</title></circle>
	<circle cx="219.48" cy="362.89" data-y="0.80" data-x="1593648000" r="1" fill="white"><title>2020-07-02: 1</title></circle>
	<circle cx="221.13" cy="362.89" data-y="0.80" data-x="1593734400" r="1" fill="white"><title>2020-07-03: 1</title></circle>
	<circle cx="222.78" cy="366.35" data-y="0.57" data-x="1593820800" r="1" fill="white"><title>2020-07-04: 1</title></circle>
	<circle cx="224.43" cy="359.43" data-y="1.03" data-x="1593907200" r="1" fill="white"><title>2020-07-05: 1</title></circle>
	<circle cx="226.07" cy="357.70" data-y="1.15" data-x="1593993600" r="1" fill="white"><title>2020-07-06: 1</title></circle>
	<circle cx="227.72" cy="362.89" data-y="0.80" data-x="1594080000" r="1" fill="white"><title>2020-07-07: 1</title></circle>
	<circle cx="229.37" cy="362.89" data-y="0.80" data-x="1594166400" r="1" fill="white"><title>2020-07-08: 1</title></circle>
	<circle cx="231.02" cy="362.89" data-y="0.80" data-x="1594252800" r="1" fill="white"><title>2020-07-09: 1</title></circle>
	<circle cx="232.67" cy="364.62" data-y="0.69" data-x="1594339200" r="1" fill="white"><title>2020-07-10: 1</title></circle>
	<circle cx="234.31" cy="366.35" data-y="0.57" data-x="1594425600" r="1" fill="white"><title>2020-07-11: 1</title></circle>
	<circle cx="235.96" cy="371.54" data-y="0.23" data-x="1594512000" r="1" fill="white"><title>2020-07-12: 0</title></circle>
	<circle cx="237.61" cy="373.27" data-y="0.11" data-x="1594598400" r="1" fill="white"><title>2020-07-13: 0</title></circle>
	<circle cx="239.26" cy="373.27" data-y="0.11" data-x="1594684800" r="1" fill="white"><title>2020-07-14: 0</title></circle>
	<circle cx="240.91" cy="373.27" data-y="0.11" data-x="1594771200" r="1" fill="white"><title>2020-07-15: 0</title></circle>
	<circle cx="242.56" cy="373.27" data-y="0.11" data-x="1594857600" r="1" fill="white"><title>2020-07-16: 0</title></circle>
	<circle cx="244.20" cy="371.54" data-y="0.23" data-x="1594944000" r="1" fill="white"><title>2020-07-17: 0</title></circle>
	<circle cx="245.85" cy="371.54" data-y="0.23" data-x="1595030400" r="1" fill="white"><title>2020-07-18: 0</title></circle>
	<circle cx="247.50" cy="373.27" data-y="0.11" data-x="1595116800" r="1" fill="white"><title>2020-07-19: 0</title></circle>
	<circle cx="249.15" cy="373.27" data-y="0.11" data-x="1595203200" r="1" fill="white"><title>2020-07-20: 0</title></circle>
	<circle cx="250.80" cy="373.27" data-y="0.11" data-x="1595289600" r="1" fill="white"><title>2020-07-21: 0</title></circle>
	<circle cx="252.44" cy="373.27" data-y="0.11" data-x="1595376000" r="1" fill="white"><title>2020-07-22: 0</title></circle>
	<circle cx="254.09" cy="373.27" data-y="0.11" data-x="1595462400" r="1" fill="white"><title>2020-07-23: 0</title></circle>
	<circle cx="255.74" cy="375.00" data-y="0.00" data-x="1595548800" r="1" fill="white"><title>2020-07-24: 0</title></circle>
	<circle cx="257.39" cy="375.00" data-y="0.00" data-x="1595635200" r="1" fill="white"><title>2020-07-25: 0</title></circle>
	<circle cx="259.04" cy="371.54" data-y="0.23" data-x="1595721600" r="1" fill="white"><title>2020-07-26: 0</title></circle>
	<circle cx="260.69" cy="366.35" data-y="0.57" data-x="1595808000" r="1" fill="white"><title>2020-07-27: 1</title></circle>
	<circle cx="262.33" cy="366.35" data-y="0.57" data-x="1595894400" r="1" fill="white"><title>2020-07-28: 1</title></circle>
	<circle cx="263.98" cy="364.62" data-y="0.69" data-x="1595980800" r="1" fill="white"><title>2020-07-29: 1</title></circle>
	<circle cx="265.63" cy="362.89" data-y="0.80" data-x="1596067200" r="1" fill="white"><title>2020-07-30: 1</title></circle>
	<circle cx="267.28" cy="359.43" data-y="1.03" data-x="1596153600" r="1" fill="white"><title>2020-07-31: 1</title></circle>
	<circle cx="268.93" cy="355.97" data-y="1.26" data-x="1596240000" r="1" fill="white"><title>2020-08-01: 1</title></circle>
	<circle cx="270.57" cy="355.97" data-y="1.26" data-x="1596326400" r="1" fill="white"><title>2020-08-02: 1</title></circle>
	<circle cx="272.22" cy="359.43" data-y="1.03" data-x="1596412800" r="1" fill="white"><title>2020-08-03: 1</title></circle>
	<circle cx="273.87" cy="357.70" data-y="1.15" data-x="1596499200" r="1" fill="white"><title>2020-08-04: 1</title></circle>
	<circle cx="275.52" cy="359.43" data-y="1.03" data-x="1596585600" r="1" fill="white"><title>2020-08-05: 1</title></circle>
	<circle cx="277.17" cy="361.16" data-y="0.92" data-x="1596672000" r="1" fill="white"><title>2020-08-06: 1</title></circle>
	<circle cx="278.81" cy="364.62" data-y="0.69" data-x="1596758400" r="1" fill="white"><title>2020-08-07: 1</title></circle>
	<circle cx="280.46" cy="366.35" data-y="0.57" data-x="1596844800" r="1" fill="white"><title>2020-08-08: 1</title></circle>
	<circle cx="282.11" cy="368.08" data-y="0.46" data-x="1596931200" r="1" fill="white"><title>2020-08-09: 0</title></circle>
	<circle cx="283.76" cy="368.08" data-y="0.46" data-x="1597017600" r="1" fill="white"><title>2020-08-10: 0</title></circle>
	<circle cx="285.41" cy="369.81" data-y="0.34" data-x="1597104000" r="1" fill="white"><title>2020-08-11: 0</title></circle>
	<circle cx="287.06" cy="369.81" data-y="0.34" data-x="1597190400" r="1" fill="white"><title>2020-08-12: 0</title></circle>
	<circle cx="288.70" cy="368.08" data-y="0.46" data-x="1597276800" r="1" fill="white"><title>2020-08-13: 0</title></circle>
	<circle cx="290.35" cy="359.43" data-y="1.03" data-x="1597363200" r="1" fill="white"><title>2020-08-14: 1</title></circle>
	<circle cx="292.00" cy="359.43" data-y="1.03" data-x="1597449600" r="1" fill="white"><title>2020-08-15: 1</title></circle>
	<circle cx="293.65" cy="361.16" data-y="0.92" data-x="1597536000" r="1" fill="white"><title>2020-08-16: 1</title></circle>
	<circle cx="295.30" cy="355.97" data-y="1.26" data-x="1597622400" r="1" fill="white"><title>2020-08-17: 1</title></circle>
	<circle cx="296.94" cy="354.24" data-y="1.38" data-x="1597708800" r="1" fill="white"><title>2020-08-18: 1</title></circle>
	<circle cx="298.59" cy="350.78" data-y="1.61" data-x="1597795200" r="1" fill="white"><title>2020-08-19: 2</title></circle>
	<circle cx="300.24" cy="350.78" data-y="1.61" data-x="1597881600" r="1" fill="white"><title>2020-08-20: 2</title></circle>
	<circle cx="301.89" cy="355.97" data-y="1.26" data-x="1597968000" r="1" fill="white"><title>2020-08-21: 1</title></circle>
	<circle cx="303.54" cy="355.97" data-y="1.26" data-x="1598054400" r="1" fill="white"><title>2020-08-22: 1</title></circle>
	<circle cx="305.19" cy="342.13" data-y="2.18" data-x="1598140800" r="1" fill="white"><title>2020-08-23: 2</title></circle>
	<circle cx="306.83" cy="340.40" data-y="2.29" data-x="1598227200" r="1" fill="white"><title>2020-08-24: 2</title></circle>
	<circle cx="308.48" cy="333.48" data-y="2.75" data-x="1598313600" r="1" fill="white"><title>2020-08-25: 3</title></circle>
	<circle cx="310.13" cy="331.75" data-y="2.87" data-x="1598400000" r="1" fill="white"><title>2020-08-26: 3</title></circle>
	<circle cx="311.78" cy="326.56" data-y="3.21" data-x="1598486400" r="1" fill="white"><title>2020-08-27: 3</title></circle>
	<circle cx="313.43" cy="328.29" data-y="3.10" data-x="1598572800" r="1" fill="white"><title>2020-08-28: 3</title></circle>
	<circle cx="315.07" cy="328.29" data-y="3.10" data-x="1598659200" r="1" fill="white"><title>2020-08-29: 3</title></circle>
	<circle cx="316.72" cy="333.48" data-y="2.75" data-x="1598745600" r="1" fill="white"><title>2020-08-30: 3</title></circle>
	<circle cx="318.37" cy="336.94" data-y="2.52" data-x="1598832000" r="1" fill="white"><title>2020-08-31: 3</title></circle>
	<circle cx="320.02" cy="335.21" data-y="2.64" data-x="1598918400" r="1" fill="white"><title>2020-09-01: 3</title></circle>
	<circle cx="321.67" cy="333.48" data-y="2.75" data-x="1599004800" r="1" fill="white"><title>2020-09-02: 3</title></circle>
	<circle cx="323.31" cy="335.21" data-y="2.64" data-x="1599091200" r="1" fill="white"><title>2020-09-03: 3</title></circle>
	<circle cx="324.96" cy="316.18" data-y="3.90" data-x="1599177600" r="1" fill="white"><title>2020-09-04: 4</title></circle>
	<circle cx="326.61" cy="305.81" data-y="4.59" data-x="1599264000" r="1" fill="white"><title>2020-09-05: 5</title></circle>
	<circle cx="328.26" cy="304.08" data-y="4.70" data-x="1599350400" r="1" fill="white"><title>2020-09-06: 5</title></circle>
	<circle cx="329.91" cy="302.35" data-y="4.82" data-x="1599436800" r="1" fill="white"><title>2020-09-07: 5</title></circle>
	<circle cx="331.56" cy="300.62" data-y="4.93" data-x="1599523200" r="1" fill="white"><title>2020-09-08: 5</title></circle>
	<circle cx="333.20" cy="305.81" data-y="4.59" data-x="1599609600" r="1" fill="white"><title>2020-09-09: 5</title></circle>
	<circle cx="334.85" cy="311.00" data-y="4.24" data-x="1599696000" r="1" fill="white"><title>2020-09-10: 4</title></circle>
	<circle cx="336.50" cy="326.56" data-y="3.21" data-x="1599782400" r="1" fill="white"><title>2020-09-11: 3</title></circle>
	<circle cx="338.15" cy="335.21" data-y="2.64" data-x="1599868800" r="1" fill="white"><title>2020-09-12: 3</title></circle>
	<circle cx="339.80" cy="338.67" data-y="2.41" data-x="1599955200" r="1" fill="white"><title>2020-09-13: 2</title></circle>
	<circle cx="341.44" cy="340.40" data-y="2.29" data-x="1600041600" r="1" fill="white"><title>2020-09-14: 2</title></circle>
	<circle cx="343.09" cy="352.51" data-y="1.49" data-x="1600128000" r="1" fill="white"><title>2020-09-15: 1</title></circle>
	<circle cx="344.74" cy="342.13" data-y="2.18" data-x="1600214400" r="1" fill="white"><title>2020-09-16: 2</title></circle>
	<circle cx="346.39" cy="338.67" data-y="2.41" data-x="1600300800" r="1" fill="white"><title>2020-09-17: 2</title></circle>
	<circle cx="348.04" cy="338.67" data-y="2.41" data-x="1600387200" r="1" fill="white"><title>2020-09-18: 2</title></circle>
	<circle cx="349.69" cy="340.40" data-y="2.29" data-x="1600473600" r="1" fill="white"><title>2020-09-19: 2</title></circle>
	<circle cx="351.33" cy="342.13" data-y="2.18" data-x="1600560000" r="1" fill="white"><title>2020-09-20: 2</title></circle>
	<circle cx="352.98" cy="342.13" data-y="2.18" data-x="1600646400" r="1" fill="white"><title>2020-09-21: 2</title></circle>
	<circle cx="354.63" cy="338.67" data-y="2.41" data-x="1600732800" r="1" fill="white"><title>2020-09-22: 2</title></circle>
	<circle cx="356.28" cy="349.05" data-y="1.72" data-x="1600819200" r="1" fill="white"><title>2020-09-23: 2</title></circle>
	<circle cx="357.93" cy="345.59" data-y="1.95" data-x="1600905600" r="1" fill="white"><title>2020-09-24: 2</title></circle>
	<circle cx="359.57" cy="343.86" data-y="2.06" data-x="1600992000" r="1" fill="white"><title>2020-09-25: 2</title></circle>
	<circle cx="361.22" cy="340.40" data-y="2.29" data-x="1601078400" r="1" fill="white"><title>2020-09-26: 2</title></circle>
	<circle cx="362.87" cy="335.21" data-y="2.64" data-x="1601164800" r="1" fill="white"><title>2020-09-27: 3</title></circle>
	<circle cx="364.52" cy="326.56" data-y="3.21" data-x="1601251200" r="1" fill="white"><title>2020-09-28: 3</title></circle>
	<circle cx="366.17" cy="309.27" data-y="4.36" data-x="1601337600" r="1" fill="white"><title>2020-09-29: 4</title></circle>
	<circle cx="367.81" cy="297.16" data-y="5.16" data-x="1601424000" r="1" fill="white"><title>2020-09-30: 5</title></circle>
	<circle cx="369.46" cy="286.78" data-y="5.85" data-x="1601510400" r="1" fill="white"><title>2020-10-01: 6</title></circle>
	<circle cx="371.11" cy="276.40" data-y="6.54" data-x="1601596800" r="1" fill="white"><title>2020-10-02: 7</title></circle>
	<circle cx="372.76" cy="262.56" data-y="7.45" data-x="1601683200" r="1" fill="white"><title>2020-10-03: 7</title></circle>
	<circle cx="374.41" cy="236.61" data-y="9.17" data-x="1601769600" r="1" fill="white"><title>2020-10-04: 9</title></circle>
	<circle cx="376.06" cy="234.88" data-y="9.29" data-x="1601856000" r="1" fill="white"><title>2020-10-05: 9</title></circle>
	<circle cx="377.70" cy="240.07" data-y="8.94" data-x="1601942400" r="1" fill="white"><title>2020-10-06: 9</title></circle>
	<circle cx="379.35" cy="246.99" data-y="8.49" data-x="1602028800" r="1" fill="white"><title>2020-10-07: 8</title></circle>
	<circle cx="381.00" cy="243.53" data-y="8.71" data-x="1602115200" r="1" fill="white"><title>2020-10-08: 9</title></circle>
	<circle cx="382.65" cy="229.69" data-y="9.63" data-x="1602201600" r="1" fill="white"><title>2020-10-09: 10</title></circle>
	<circle cx="384.30" cy="205.47" data-y="11.24" data-x="1602288000" r="1" fill="white"><title>2020-10-10: 11</title></circle>
	<circle cx="385.94" cy="214.12" data-y="10.66" data-x="1602374400" r="1" fill="white"><title>2020-10-11: 11</title></circle>
	<circle cx="387.59" cy="202.01" data-y="11.47" data-x="1602460800" r="1" fill="white"><title>2020-10-12: 11</title></circle>
	<circle cx="389.24" cy="191.64" data-y="12.15" data-x="1602547200" r="1" fill="white"><title>2020-10-13: 12</title></circle>
	<circle cx="390.89" cy="174.34" data-y="13.30" data-x="1602633600" r="1" fill="white"><title>2020-10-14: 13</title></circle>
	<circle cx="392.54" cy="167.42" data-y="13.76" data-x="1602720000" r="1" fill="white"><title>2020-10-15: 14</title></circle>
	<circle cx="394.19" cy="163.96" data-y="13.99" data-x="1602806400" r="1" fill="white"><title>2020-10-16: 14</title></circle>
	<circle cx="395.83" cy="165.69" data-y="13.87" data-x="1602892800" r="1" fill="white"><title>2020-10-17: 14</title></circle>
	<circle cx="397.48" cy="162.23" data-y="14.10" data-x="1602979200" r="1" fill="white"><title>2020-10-18: 14</title></circle>
	<circle cx="399.13" cy="141.47" data-y="15.48" data-x="1603065600" r="1" fill="white"><title>2020-10-19: 15</title></circle>
	<circle cx="400.78" cy="136.28" data-y="15.82" data-x="1603152000" r="1" fill="white"><title>2020-10-20: 16</title></circle>
	<circle cx="402.43" cy="132.82" data-y="16.05" data-x="1603238400" r="1" fill="white"><title>2020-10-21: 16</title></circle>
	<circle cx="404.07" cy="139.74" data-y="15.59" data-x="1603324800" r="1" fill="white"><title>2020-10-22: 16</title></circle>
	<circle cx="405.72" cy="125.90" data-y="16.51" data-x="1603411200" r="1" fill="white"><title>2020-10-23: 17</title></circle>
	<circle cx="407.37" cy="127.63" data-y="16.40" data-x="1603497600" r="1" fill="white"><title>2020-10-24: 16</title></circle>
	<circle cx="409.02" cy="115.52" data-y="17.20" data-x="1603584000" r="1" fill="white"><title>2020-10-25: 17</title></circle>
	<circle cx="410.67" cy="115.52" data-y="17.20" data-x="1603670400" r="1" fill="white"><title>2020-10-26: 17</title></circle>
	<circle cx="412.31" cy="118.98" data-y="16.97" data-x="1603756800" r="1" fill="white"><title>2020-10-27: 17</title></circle>
	<circle cx="413.96" cy="99.95" data-y="18.23" data-x="1603843200" r="1" fill="white"><title>2020-10-28: 18</title></circle>
	<circle cx="415.61" cy="91.30" data-y="18.81" data-x="1603929600" r="1" fill="white"><title>2020-10-29: 19</title></circle>
	<circle cx="417.26" cy="72.27" data-y="20.07" data-x="1604016000" r="1" fill="white"><title>2020-10-30: 20</title></circle>
	<circle cx="418.91" cy="23.84" data-y="23.28" data-x="1604102400" r="1" fill="white"><title>2020-10-31: 23</title></circle>
	<circle cx="420.56" cy="29.03" data-y="22.93" data-x="1604188800" r="1" fill="white"><title>2020-11-01: 23</title></circle>
	<circle cx="422.20" cy="54.98" data-y="21.21" data-x="1604275200" r="1" fill="white"><title>2020-11-02: 21</title></circle>
	<circle cx="423.85" cy="25.57" data-y="23.16" data-x="1604361600" r="1" fill="white"><title>2020-11-03: 23</title></circle>
	<circle cx="425.50" cy="11.73" data-y="24.08" data-x="1604448000" r="1" fill="white"><title>2020-11-04: 24</title></circle>
	<circle cx="427.15" cy="15.19" data-y="23.85" data-x="1604534400" r="1" fill="white"><title>2020-11-05: 24</title></circle>
	<circle cx="428.80" cy="10.00" data-y="24.19" data-x="1604620800" r="1" fill="white"><title>2020-11-06: 24</title></circle>
	<circle cx="430.44" cy="48.06" data-y="21.67" data-x="1604707200" r="1" fill="white"><title>2020-11-07: 22</title></circle>
	<circle cx="432.09" cy="41.14" data-y="22.13" data-x="1604793600" r="1" fill="white"><title>2020-11-08: 22</title></circle>
	<circle cx="433.74" cy="10.00" data-y="24.19" data-x="1604880000" r="1" fill="white"><title>2020-11-09: 24</title></circle>
	<circle cx="435.39" cy="32.49" data-y="22.70" data-x="1604966400" r="1" fill="white"><title>2020-11-10: 23</title></circle>
	<circle cx="437.04" cy="58.44" data-y="20.98" data-x="1605052800" r="1" fill="white"><title>2020-11-11: 21</title></circle>
	<circle cx="438.69" cy="48.06" data-y="21.67" data-x="1605139200" r="1" fill="white"><title>2020-11-12: 22</title></circle>
	<circle cx="440.33" cy="77.46" data-y="19.72" data-x="1605225600" r="1" fill="white"><title>2020-11-13: 20</title></circle>
	<circle cx="441.98" cy="77.46" data-y="19.72" data-x="1605312000" r="1" fill="white"><title>2020-11-14: 20</title></circle>
	<circle cx="443.63" cy="82.65" data-y="19.38" data-x="1605398400" r="1" fill="white"><title>2020-11-15: 19</title></circle>
	<circle cx="445.28" cy="86.11" data-y="19.15" data-x="1605484800" r="1" fill="white"><title>2020-11-16: 19</title></circle>
	<circle cx="446.93" cy="89.57" data-y="18.92" data-x="1605571200" r="1" fill="white"><title>2020-11-17: 19</title></circle>
	<circle cx="448.57" cy="103.41" data-y="18.00" data-x="1605657600" r="1" fill="white"><title>2020-11-18: 18</title></circle>
	<circle cx="450.22" cy="112.06" data-y="17.43" data-x="1605744000" r="1" fill="white"><title>2020-11-19: 17</title></circle>
	<circle cx="451.87" cy="125.90" data-y="16.51" data-x="1605830400" r="1" fill="white"><title>2020-11-20: 17</title></circle>
	<circle cx="453.52" cy="151.85" data-y="14.79" data-x="1605916800" r="1" fill="white"><title>2020-11-21: 15</title></circle>
	<circle cx="455.17" cy="153.58" data-y="14.68" data-x="1606003200" r="1" fill="white"><title>2020-11-22: 15</title></circle>
	<circle cx="456.81" cy="189.91" data-y="12.27" data-x="1606089600" r="1" fill="white"><title>2020-11-23: 12</title></circle>
	<circle cx="458.46" cy="186.45" data-y="12.50" data-x="1606176000" r="1" fill="white"><title>2020-11-24: 12</title></circle>
	<circle cx="460.11" cy="176.07" data-y="13.19" data-x="1606262400" r="1" fill="white"><title>2020-11-25: 13</title></circle>
	<circle cx="461.76" cy="177.80" data-y="13.07" data-x="1606348800" r="1" fill="white"><title>2020-11-26: 13</title></circle>
</g>
<g data-series="recent-cases" class="data-series">
	<path d="M 461.76,177.80L 463.41,174.34L 465.06,189.91L 466.70,203.46L 468.35,188.52L 470.00,202.45" id="Recent cases" class="line" stroke-width="1" stroke-linecap="round" stroke-dasharray="4,6" stroke-dashoffset="4"><title>Recent cases</title></path>
	<circle cx="461.76" cy="177.80" data-y="13.07" data-x="1606348800" r="2.5" fill="white"><title>2020-11-26: 13</title></circle>
	<circle cx="463.41" cy="174.34" data-y="13.30" data-x="1606435200" r="2.5" fill="white"><title>2020-11-27: 13</title></circle>
	<circle cx="465.06" cy="189.91" data-y="12.27" data-x="1606521600" r="2.5" fill="white"><title>2020-11-28: 12</title></circle>
	<circle cx="466.70" cy="203.46" data-y="11.37" data-x="1606608000" r="2.5" fill="white"><title>2020-11-29: 11</title></circle>
	<circle cx="468.35" cy="188.52" data-y="12.36" data-x="1606694400" r="2.5" fill="white"><title>2020-11-30: 12</title></circle>
	<circle cx="470.00" cy="202.45" data-y="11.44" data-x="1606780800" r="2.5" fill="white"><title>2020-12-01: 11</title></circle>
</g>
</svg>
