<svg width="480" height="400" viewBox="0 0 480 400" xmlns="http://www.w3.org/2000/svg" style="overflow:display" preserveAspectRatio="xMinYMin meet" overflow="visible">
<defs>
	<style>
	.data-series path.line { fill-opacity: 0; stroke: black; }
	.data-series path.line.dotted { stroke-dasharray: 12 20 }
	.data-series:hover path.line, .data-series.on path.line { stroke-width: 1; }
	.data-series:hover circle, .data-series.on circle { display: inline; }
	.graph-grid { font-family: "Helvetica Neue",Helvetica,Arial,"Lucida Grande",sans-serif; }
	.graph-grid line { stroke: black; stroke-width: 1; stroke-linecap: round; }
	.graph-grid.graph-grid-x text { text-anchor: middle; dominant-baseline: hanging; transform: translateY(10px); }
	.graph-grid.graph-grid-y text { text-anchor: end; dominant-baseline: middle; transform: translateX(-10px); }
	</style>
</defs>
<g class="graph-grid graph-grid-y">
	<line x1="25.00" y1="375.00" x2="470.00" y2="375.00" data-left="25"></line>
	<text x="35" y="375" text-anchor="end">0</text>
	<text x="35" y="272.474818181818" text-anchor="end">5</text>
	<text x="35" y="169.949636363636" text-anchor="end">10</text>
	<text x="35" y="67.4244545454545" text-anchor="end">15</text>
	<text style="text-anchor:middle;dominant-baseline:hanging;font-weight:bold;transform: translateY(192.5px) rotate(-90deg);"></text>
</g>
<g class="graph-grid graph-grid-x">
	<line class="tick" x1="77.46" y1="375.00" x2="77.46" y2="380.00"></line>
	<text x="77.4593495934959" y="375" text-anchor="middle">A</text>
	<line class="tick" x1="131.73" y1="375.00" x2="131.73" y2="380.00"></line>
	<text x="131.727642276423" y="375" text-anchor="middle">M</text>
	<line class="tick" x1="187.80" y1="375.00" x2="187.80" y2="380.00"></line>
	<text x="187.80487804878" y="375" text-anchor="middle">J</text>
	<line class="tick" x1="242.07" y1="375.00" x2="242.07" y2="380.00"></line>
	<text x="242.073170731707" y="375" text-anchor="middle">J</text>
	<line class="tick" x1="298.15" y1="375.00" x2="298.15" y2="380.00"></line>
	<text x="298.150406504065" y="375" text-anchor="middle">A</text>
	<line class="tick" x1="354.23" y1="375.00" x2="354.23" y2="380.00"></line>
	<text x="354.227642276423" y="375" text-anchor="middle">S</text>
	<line class="tick" x1="408.50" y1="375.00" x2="408.50" y2="380.00"></line>
	<text x="408.49593495935" y="375" text-anchor="middle">O</text>
	<line class="tick" x1="464.57" y1="375.00" x2="464.57" y2="380.00"></line>
	<text x="464.573170731707" y="375" text-anchor="middle">N</text>
	<text style="text-anchor:middle;dominant-baseline:hanging;font-weight:bold;transform: translateY(192.5px) rotate(-90deg);"></text>
</g>
<g data-series="widespread" class="data-series">
	<path d="M 25.00,231.46L 470.00,231.46" id="E07000105-level-0" class="line" stroke-width="1" stroke-linecap="round" stroke-dasharray="3,3" fill-opacity="0.3" opacity="0.3"><title>Widespread</title></path>
</g>
<g data-series="substantial" class="data-series">
	<path d="M 25.00,292.98L 470.00,292.98" id="E07000105-level-1" class="line" stroke-width="1" stroke-linecap="round" stroke-dasharray="3,3" fill-opacity="0.3" opacity="0.3"><title>Substantial</title></path>
</g>
<g data-series="moderate" class="data-series">
	<path d="M 25.00,354.49L 470.00,354.49" id="E07000105-level-2" class="line" stroke-width="1" stroke-linecap="round" stroke-dasharray="3,3" fill-opacity="0.3" opacity="0.3"><title>Moderate</title></path>
</g>
<g data-series="new-cases" class="data-series">
	<path d="M 25.00,371.13L 26.81,371.90L 28.62,372.42L 30.43,372.79L 32.24,375.00L 34.04,375.00L 35.85,372.79L 37.66,370.58L 39.47,368.36L 41.28,366.15L 43.09,366.15L 44.90,366.15L 46.71,361.73L 48.52,361.73L 50.33,361.73L 52.13,363.94L 53.94,363.94L 55.75,350.67L 57.56,348.45L 59.37,346.24L 61.18,339.61L 62.99,337.39L 64.80,319.70L 66.61,310.85L 68.41,310.85L 70.22,284.30L 72.03,264.39L 73.84,266.61L 75.65,264.39L 77.46,264.39L 79.27,253.33L 81.08,222.36L 82.89,233.42L 84.70,231.21L 86.50,215.73L 88.31,186.97L 90.12,195.82L 91.93,175.91L 93.74,204.67L 95.55,215.73L 97.36,182.55L 99.17,140.52L 100.98,96.27L 102.78,71.94L 104.59,80.79L 106.40,60.88L 108.21,21.06L 110.02,10.00L 111.83,43.18L 113.64,76.36L 115.45,47.61L 117.26,52.03L 119.07,32.12L 120.87,49.82L 122.68,45.39L 124.49,10.00L 126.30,27.70L 128.11,40.97L 129.92,34.33L 131.73,43.18L 133.54,23.27L 135.35,54.24L 137.15,80.79L 138.96,83.00L 140.77,107.33L 142.58,129.45L 144.39,140.52L 146.20,144.94L 148.01,158.21L 149.82,160.42L 151.63,156.00L 153.43,162.64L 155.24,144.94L 157.05,125.03L 158.86,91.85L 160.67,80.79L 162.48,91.85L 164.29,71.94L 166.10,80.79L 167.91,85.21L 169.72,107.33L 171.52,153.79L 173.33,175.91L 175.14,180.33L 176.95,220.15L 178.76,182.55L 180.57,189.18L 182.38,198.03L 184.19,182.55L 186.00,195.82L 187.80,206.88L 189.61,178.12L 191.42,220.15L 193.23,231.21L 195.04,248.91L 196.85,266.61L 198.66,262.18L 200.47,262.18L 202.28,290.94L 204.09,277.67L 205.89,266.61L 207.70,253.33L 209.51,264.39L 211.32,262.18L 213.13,255.55L 214.94,248.91L 216.75,244.48L 218.56,255.55L 220.37,262.18L 222.17,273.24L 223.98,275.45L 225.79,282.09L 227.60,277.67L 229.41,295.36L 231.22,295.36L 233.03,299.79L 234.84,293.15L 236.65,290.94L 238.46,295.36L 240.26,304.21L 242.07,302.00L 243.88,304.21L 245.69,308.64L 247.50,317.48L 249.31,328.55L 251.12,330.76L 252.93,341.82L 254.74,341.82L 256.54,344.03L 258.35,330.76L 260.16,330.76L 261.97,335.18L 263.78,328.55L 265.59,319.70L 267.40,313.06L 269.21,308.64L 271.02,324.12L 272.83,317.48L 274.63,306.42L 276.44,310.85L 278.25,317.48L 280.06,330.76L 281.87,337.39L 283.68,326.33L 285.49,332.97L 287.30,344.03L 289.11,348.45L 290.91,350.67L 292.72,350.67L 294.53,352.88L 296.34,361.73L 298.15,363.94L 299.96,357.30L 301.77,352.88L 303.58,355.09L 305.39,355.09L 307.20,355.09L 309.00,359.52L 310.81,361.73L 312.62,366.15L 314.43,370.58L 316.24,368.36L 318.05,368.36L 319.86,368.36L 321.67,363.94L 323.48,363.94L 325.28,366.15L 327.09,368.36L 328.90,370.58L 330.71,370.58L 332.52,370.58L 334.33,375.00L 336.14,375.00L 337.95,375.00L 339.76,375.00L 341.57,370.58L 343.37,370.58L 345.18,370.58L 346.99,368.36L 348.80,368.36L 350.61,363.94L 352.42,359.52L 354.23,363.94L 356.04,363.94L 357.85,359.52L 359.65,361.73L 361.46,357.30L 363.27,361.73L 365.08,366.15L 366.89,363.94L 368.70,361.73L 370.51,366.15L 372.32,357.30L 374.13,361.73L 375.93,357.30L 377.74,350.67L 379.55,348.45L 381.36,346.24L 383.17,346.24L 384.98,352.88L 386.79,346.24L 388.60,344.03L 390.41,344.03L 392.22,348.45L 394.02,352.88L 395.83,341.82L 397.64,339.61L 399.45,341.82L 401.26,339.61L 403.07,332.97L 404.88,321.91L 406.69,304.21L 408.50,304.21L 410.30,288.73L 412.11,284.30L 413.92,277.67L 415.73,255.55L 417.54,246.70L 419.35,255.55L 421.16,255.55L 422.97,259.97L 424.78,257.76L 426.59,264.39L 428.39,271.03L 430.20,266.61L 432.01,264.39L 433.82,257.76L 435.63,233.42L 437.44,204.67L 439.25,175.91L 441.06,186.97L 442.87,184.76L 444.67,180.33L 446.48,182.55L 448.29,186.97L 450.10,204.67L 451.91,217.94L 453.72,204.67L 455.53,211.30L 457.34,202.45L 459.15,198.03L 460.96,173.70" id="New cases" class="line" stroke-width="1" stroke-linecap="round"><title>New cases</title></path>
	<circle cx="25.00" cy="371.13" data-y="0.19" data-x="1583193600" r="1" fill="white"><title>2020-03-03: 0</title></circle>
	<circle cx="26.81" cy="371.90" data-y="0.15" data-x="1583280000" r="1" fill="white"><title>2020-03-04: 0</title></circle>
	<circle cx="28.62" cy="372.42" data-y="0.13" data-x="1583366400" r="1" fill="white"><title>2020-03-05: 0</title></circle>
	<circle cx="30.43" cy="372.79" data-y="0.11" data-x="1583452800" r="1" fill="white"><title>2020-03-06: 0</title></circle>
	<circle cx="32.24" cy="375.00" data-y="0.00" data-x="1583539200" r="1" fill="white"><title>2020-03-07: 0</title></circle>
	<circle cx="34.04" cy="375.00" data-y="0.00" data-x="1583625600" r="1" fill="white"><title>2020-03-08: 0</title></circle>
	<circle cx="35.85" cy="372.79" data-y="0.11" data-x="1583712000" r="1" fill="white"><title>2020-03-09: 0</title></circle>
	<circle cx="37.66" cy="370.58" data-y="0.22" data-x="1583798400" r="1" fill="white"><title>2020-03-10: 0</title></circle>
	<circle cx="39.47" cy="368.36" data-y="0.32" data-x="1583884800" r="1" fill="white"><title>2020-03-11: 0</title></circle>
	<circle cx="41.28" cy="366.15" data-y="0.43" data-x="1583971200" r="1" fill="white"><title>2020-03-12: 0</title></circle>
	<circle cx="43.09" cy="366.15" data-y="0.43" data-x="1584057600" r="1" fill="white"><title>2020-03-13: 0</title></circle>
	<circle cx="44.90" cy="366.15" data-y="0.43" data-x="1584144000" r="1" fill="white"><title>2020-03-14: 0</title></circle>
	<circle cx="46.71" cy="361.73" data-y="0.65" data-x="1584230400" r="1" fill="white"><title>2020-03-15: 1</title></circle>
	<circle cx="48.52" cy="361.73" data-y="0.65" data-x="1584316800" r="1" fill="white"><title>2020-03-16: 1</title></circle>
	<circle cx="50.33" cy="361.73" data-y="0.65" data-x="1584403200" r="1" fill="white"><title>2020-03-17: 1</title></circle>
	<circle cx="52.13" cy="363.94" data-y="0.54" data-x="1584489600" r="1" fill="white"><title>2020-03-18: 1</title></circle>
	<circle cx="53.94" cy="363.94" data-y="0.54" data-x="1584576000" r="1" fill="white"><title>2020-03-19: 1</title></circle>
	<circle cx="55.75" cy="350.67" data-y="1.19" data-x="1584662400" r="1" fill="white"><title>2020-03-20: 1</title></circle>
	<circle cx="57.56" cy="348.45" data-y="1.29" data-x="1584748800" r="1" fill="white"><title>2020-03-21: 1</title></circle>
	<circle cx="59.37" cy="346.24" data-y="1.40" data-x="1584835200" r="1" fill="white"><title>2020-03-22: 1</title></circle>
	<circle cx="61.18" cy="339.61" data-y="1.73" data-x="1584921600" r="1" fill="white"><title>2020-03-23: 2</title></circle>
	<circle cx="62.99" cy="337.39" data-y="1.83" data-x="1585008000" r="1" fill="white"><title>2020-03-24: 2</title></circle>
	<circle cx="64.80" cy="319.70" data-y="2.70" data-x="1585094400" r="1" fill="white"><title>2020-03-25: 3</title></circle>
	<circle cx="66.61" cy="310.85" data-y="3.13" data-x="1585180800" r="1" fill="white"><title>2020-03-26: 3</title></circle>
	<circle cx="68.41" cy="310.85" data-y="3.13" data-x="1585267200" r="1" fill="white"><title>2020-03-27: 3</title></circle>
	<circle cx="70.22" cy="284.30" data-y="4.42" data-x="1585353600" r="1" fill="white"><title>2020-03-28: 4</title></circle>
	<circle cx="72.03" cy="264.39" data-y="5.39" data-x="1585440000" r="1" fill="white"><title>2020-03-29: 5</title></circle>
	<circle cx="73.84" cy="266.61" data-y="5.29" data-x="1585526400" r="1" fill="white"><title>2020-03-30: 5</title></circle>
	<circle cx="75.65" cy="264.39" data-y="5.39" data-x="1585612800" r="1" fill="white"><title>2020-03-31: 5</title></circle>
	<circle cx="77.46" cy="264.39" data-y="5.39" data-x="1585699200" r="1" fill="white"><title>2020-04-01: 5</title></circle>
	<circle cx="79.27" cy="253.33" data-y="5.93" data-x="1585785600" r="1" fill="white"><title>2020-04-02: 6</title></circle>
	<circle cx="81.08" cy="222.36" data-y="7.44" data-x="1585872000" r="1" fill="white"><title>2020-04-03: 7</title></circle>
	<circle cx="82.89" cy="233.42" data-y="6.90" data-x="1585958400" r="1" fill="white"><title>2020-04-04: 7</title></circle>
	<circle cx="84.70" cy="231.21" data-y="7.01" data-x="1586044800" r="1" fill="white"><title>2020-04-05: 7</title></circle>
	<circle cx="86.50" cy="215.73" data-y="7.77" data-x="1586131200" r="1" fill="white"><title>2020-04-06: 8</title></circle>
	<circle cx="88.31" cy="186.97" data-y="9.17" data-x="1586217600" r="1" fill="white"><title>2020-04-07: 9</title></circle>
	<circle cx="90.12" cy="195.82" data-y="8.74" data-x="1586304000" r="1" fill="white"><title>2020-04-08: 9</title></circle>
	<circle cx="91.93" cy="175.91" data-y="9.71" data-x="1586390400" r="1" fill="white"><title>2020-04-09: 10</title></circle>
	<circle cx="93.74" cy="204.67" data-y="8.31" data-x="1586476800" r="1" fill="white"><title>2020-04-10: 8</title></circle>
	<circle cx="95.55" cy="215.73" data-y="7.77" data-x="1586563200" r="1" fill="white"><title>2020-04-11: 8</title></circle>
	<circle cx="97.36" cy="182.55" data-y="9.39" data-x="1586649600" r="1" fill="white"><title>2020-04-12: 9</title></circle>
	<circle cx="99.17" cy="140.52" data-y="11.44" data-x="1586736000" r="1" fill="white"><title>2020-04-13: 11</title></circle>
	<circle cx="100.98" cy="96.27" data-y="13.59" data-x="1586822400" r="1" fill="white"><title>2020-04-14: 14</title></circle>
	<circle cx="102.78" cy="71.94" data-y="14.78" data-x="1586908800" r="1" fill="white"><title>2020-04-15: 15</title></circle>
	<circle cx="104.59" cy="80.79" data-y="14.35" data-x="1586995200" r="1" fill="white"><title>2020-04-16: 14</title></circle>
	<circle cx="106.40" cy="60.88" data-y="15.32" data-x="1587081600" r="1" fill="white"><title>2020-04-17: 15</title></circle>
	<circle cx="108.21" cy="21.06" data-y="17.26" data-x="1587168000" r="1" fill="white"><title>2020-04-18: 17</title></circle>
	<circle cx="110.02" cy="10.00" data-y="17.80" data-x="1587254400" r="1" fill="white"><title>2020-04-19: 18</title></circle>
	<circle cx="111.83" cy="43.18" data-y="16.18" data-x="1587340800" r="1" fill="white"><title>2020-04-20: 16</title></circle>
	<circle cx="113.64" cy="76.36" data-y="14.56" data-x="1587427200" r="1" fill="white"><title>2020-04-21: 15</title></circle>
	<circle cx="115.45" cy="47.61" data-y="15.97" data-x="1587513600" r="1" fill="white"><title>2020-04-22: 16</title></circle>
	<circle cx="117.26" cy="52.03" data-y="15.75" data-x="1587600000" r="1" fill="white"><title>2020-04-23: 16</title></circle>
	<circle cx="119.07" cy="32.12" data-y="16.72" data-x="1587686400" r="1" fill="white"><title>2020-04-24: 17</title></circle>
	<circle cx="120.87" cy="49.82" data-y="15.86" data-x="1587772800" r="1" fill="white"><title>2020-04-25: 16</title></circle>
	<circle cx="122.68" cy="45.39" data-y="16.07" data-x="1587859200" r="1" fill="white"><title>2020-04-26: 16</title></circle>
	<circle cx="124.49" cy="10.00" data-y="17.80" data-x="1587945600" r="1" fill="white"><title>2020-04-27: 18</title></circle>
	<circle cx="126.30" cy="27.70" data-y="16.94" data-x="1588032000" r="1" fill="white"><title>2020-04-28: 17</title></circle>
	<circle cx="128.11" cy="40.97" data-y="16.29" data-x="1588118400" r="1" fill="white"><title>2020-04-29: 16</title></circle>
	<circle cx="129.92" cy="34.33" data-y="16.61" data-x="1588204800" r="1" fill="white"><title>2020-04-30: 17</title></circle>
	<circle cx="131.73" cy="43.18" data-y="16.18" data-x="1588291200" r="1" fill="white"><title>2020-05-01: 16</title></circle>
	<circle cx="133.54" cy="23.27" data-y="17.15" data-x="1588377600" r="1" fill="white"><title>2020-05-02: 17</title></circle>
	<circle cx="135.35" cy="54.24" data-y="15.64" data-x="1588464000" r="1" fill="white"><title>2020-05-03: 16</title></circle>
	<circle cx="137.15" cy="80.79" data-y="14.35" data-x="1588550400" r="1" fill="white"><title>2020-05-04: 14</title></circle>
	<circle cx="138.96" cy="83.00" data-y="14.24" data-x="1588636800" r="1" fill="white"><title>2020-05-05: 14</title></circle>
	<circle cx="140.77" cy="107.33" data-y="13.05" data-x="1588723200" r="1" fill="white"><title>2020-05-06: 13</title></circle>
	<circle cx="142.58" cy="129.45" data-y="11.97" data-x="1588809600" r="1" fill="white"><title>2020-05-07: 12</title></circle>
	<circle cx="144.39" cy="140.52" data-y="11.44" data-x="1588896000" r="1" fill="white"><title>2020-05-08: 11</title></circle>
	<circle cx="146.20" cy="144.94" data-y="11.22" data-x="1588982400" r="1" fill="white"><title>2020-05-09: 11</title></circle>
	<circle cx="148.01" cy="158.21" data-y="10.57" data-x="1589068800" r="1" fill="white"><title>2020-05-10: 11</title></circle>
	<circle cx="149.82" cy="160.42" data-y="10.46" data-x="1589155200" r="1" fill="white"><title>2020-05-11: 10</title></circle>
	<circle cx="151.63" cy="156.00" data-y="10.68" data-x="1589241600" r="1" fill="white"><title>2020-05-12: 11</title></circle>
	<circle cx="153.43" cy="162.64" data-y="10.36" data-x="1589328000" r="1" fill="white"><title>2020-05-13: 10</title></circle>
	<circle cx="155.24" cy="144.94" data-y="11.22" data-x="1589414400" r="1" fill="white"><title>2020-05-14: 11</title></circle>
	<circle cx="157.05" cy="125.03" data-y="12.19" data-x="1589500800" r="1" fill="white"><title>2020-05-15: 12</title></circle>
	<circle cx="158.86" cy="91.85" data-y="13.81" data-x="1589587200" r="1" fill="white"><title>2020-05-16: 14</title></circle>
	<circle cx="160.67" cy="80.79" data-y="14.35" data-x="1589673600" r="1" fill="white"><title>2020-05-17: 14</title></circle>
	<circle cx="162.48" cy="91.85" data-y="13.81" data-x="1589760000" r="1" fill="white"><title>2020-05-18: 14</title></circle>
	<circle cx="164.29" cy="71.94" data-y="14.78" data-x="1589846400" r="1" fill="white"><title>2020-05-19: 15</title></circle>
	<circle cx="166.10" cy="80.79" data-y="14.35" data-x="1589932800" r="1" fill="white"><title>2020-05-20: 14</title></circle>
	<circle cx="167.91" cy="85.21" data-y="14.13" data-x="1590019200" r="1" fill="white"><title>2020-05-21: 14</title></circle>
	<circle cx="169.72" cy="107.33" data-y="13.05" data-x="1590105600" r="1" fill="white"><title>2020-05-22: 13</title></circle>
	<circle cx="171.52" cy="153.79" data-y="10.79" data-x="1590192000" r="1" fill="white"><title>2020-05-23: 11</title></circle>
	<circle cx="173.33" cy="175.91" data-y="9.71" data-x="1590278400" r="1" fill="white"><title>2020-05-24: 10</title></circle>
	<circle cx="175.14" cy="180.33" data-y="9.49" data-x="1590364800" r="1" fill="white"><title>2020-05-25: 9</title></circle>
	<circle cx="176.95" cy="220.15" data-y="7.55" data-x="1590451200" r="1" fill="white"><title>2020-05-26: 8</title></circle>
	<circle cx="178.76" cy="182.55" data-y="9.39" data-x="1590537600" r="1" fill="white"><title>2020-05-27: 9</title></circle>
	<circle cx="180.57" cy="189.18" data-y="9.06" data-x="1590624000" r="1" fill="white"><title>2020-05-28: 9</title></circle>
	<circle cx="182.38" cy="198.03" data-y="8.63" data-x="1590710400" r="1" fill="white"><title>2020-05-29: 9</title></circle>
	<circle cx="184.19" cy="182.55" data-y="9.39" data-x="1590796800" r="1" fill="white"><title>2020-05-30: 9</title></circle>
	<circle cx="186.00" cy="195.82" data-y="8.74" data-x="1590883200" r="1" fill="white"><title>2020-05-31: 9</title></circle>
	<circle cx="187.80" cy="206.88" data-y="8.20" data-x="1590969600" r="1" fill="white"><title>2020-06-01: 8</title></circle>
	<circle cx="189.61" cy="178.12" data-y="9.60" data-x="1591056000" r="1" fill="white"><title>2020-06-02: 10</title></circle>
	<circle cx="191.42" cy="220.15" data-y="7.55" data-x="1591142400" r="1" fill="white"><title>2020-06-03: 8</title></circle>
	<circle cx="193.23" cy="231.21" data-y="7.01" data-x="1591228800" r="1" fill="white"><title>2020-06-04: 7</title></circle>
	<circle cx="195.04" cy="248.91" data-y="6.15" data-x="1591315200" r="1" fill="white"><title>2020-06-05: 6</title></circle>
	<circle cx="196.85" cy="266.61" data-y="5.29" data-x="1591401600" r="1" fill="white"><title>2020-06-06: 5</title></circle>
	<circle cx="198.66" cy="262.18" data-y="5.50" data-x="1591488000" r="1" fill="white"><title>2020-06-07: 6</title></circle>
	<circle cx="200.47" cy="262.18" data-y="5.50" data-x="1591574400" r="1" fill="white"><title>2020-06-08: 6</title></circle>
	<circle cx="202.28" cy="290.94" data-y="4.10" data-x="1591660800" r="1" fill="white"><title>2020-06-09: 4</title></circle>
	<circle cx="204.09" cy="277.67" data-y="4.75" data-x="1591747200" r="1" fill="white"><title>2020-06-10: 5</title></circle>
	<circle cx="205.89" cy="266.61" data-y="5.29" data-x="1591833600" r="1" fill="white"><title>2020-06-11: 5</title></circle>
	<circle cx="207.70" cy="253.33" data-y="5.93" data-x="1591920000" r="1" fill="white"><title>2020-06-12: 6</title></circle>
	<circle cx="209.51" cy="264.39" data-y="5.39" data-x="1592006400" r="1" fill="white"><title>2020-06-13: 5</title></circle>
	<circle cx="211.32" cy="262.18" data-y="5.50" data-x="1592092800" r="1" fill="white"><title>2020-06-14: 6</title></circle>
	<circle cx="213.13" cy="255.55" data-y="5.83" data-x="1592179200" r="1" fill="white"><title>2020-06-15: 6</title></circle>
	<circle cx="214.94" cy="248.91" data-y="6.15" data-x="1592265600" r="1" fill="white"><title>2020-06-16: 6</title></circle>
	<circle cx="216.75" cy="244.48" data-y="6.37" data-x="1592352000" r="1" fill="white"><title>2020-06-17: 6</title></circle>
	<circle cx="218.56" cy="255.55" data-y="5.83" data-x="1592438400" r="1" fill="white"><title>2020-06-18: 6</title></circle>
	<circle cx="220.37" cy="262.18" data-y="5.50" data-x="1592524800" r="1" fill="white"><title>2020-06-19: 6</title></circle>
	<circle cx="222.17" cy="273.24" data-y="4.96" data-x="1592611200" r="1" fill="white"><title>2020-06-20: 5</title></circle>
	<circle cx="223.98" cy="275.45" data-y="4.85" data-x="1592697600" r="1" fill="white"><title>2020-06-21: 5</title></circle>
	<circle cx="225.79" cy="282.09" data-y="4.53" data-x="1592784000" r="1" fill="white"><title>2020-06-22: 5</title></circle>
	<circle cx="227.60" cy="277.67" data-y="4.75" data-x="1592870400" r="1" fill="white"><title>2020-06-23: 5</title></circle>
	<circle cx="229.41" cy="295.36" data-y="3.88" data-x="1592956800" r="1" fill="white"><title>2020-06-24: 4</title></circle>
	<circle cx="231.22" cy="295.36" data-y="3.88" data-x="1593043200" r="1" fill="white"><title>2020-06-25: 4</title></circle>
	<circle cx="233.03" cy="299.79" data-y="3.67" data-x="1593129600" r="1" fill="white"><title>2020-06-26: 4</title></circle>
	<circle cx="234.84" cy="293.15" data-y="3.99" data-x="1593216000" r="1" fill="white"><title>2020-06-27: 4</title></circle>
	<circle cx="236.65" cy="290.94" data-y="4.10" data-x="1593302400" r="1" fill="white"><title>2020-06-28: 4</title></circle>
	<circle cx="238.46" cy="295.36" data-y="3.88" data-x="1593388800" r="1" fill="white"><title>2020-06-29: 4</title></circle>
	<circle cx="240.26" cy="304.21" data-y="3.45" data-x="1593475200" r="1" fill="white"><title>2020-06-30: 3</title></circle>
	<circle cx="242.07" cy="302.00" data-y="3.56" data-x="1593561600" r="1" fill="white"><title>2020-07-01: 4</title></circle>
	<circle cx="243.88" cy="304.21" data-y="3.45" data-x="1593648000" r="1" fill="white"><title>2020-07-02: 3</title></circle>
	<circle cx="245.69" cy="308.64" data-y="3.24" data-x="1593734400" r="1" fill="white"><title>2020-07-03: 3</title></circle>
	<circle cx="247.50" cy="317.48" data-y="2.80" data-x="1593820800" r="1" fill="white"><title>2020-07-04: 3</title></circle>
	<circle cx="249.31" cy="328.55" data-y="2.27" data-x="1593907200" r="1" fill="white"><title>2020-07-05: 2</title></circle>
	<circle cx="251.12" cy="330.76" data-y="2.16" data-x="1593993600" r="1" fill="white"><title>2020-07-06: 2</title></circle>
	<circle cx="252.93" cy="341.82" data-y="1.62" data-x="1594080000" r="1" fill="white"><title>2020-07-07: 2</title></circle>
	<circle cx="254.74" cy="341.82" data-y="1.62" data-x="1594166400" r="1" fill="white"><title>2020-07-08: 2</title></circle>
	<circle cx="256.54" cy="344.03" data-y="1.51" data-x="1594252800" r="1" fill="white"><title>2020-07-09: 2</title></circle>
	<circle cx="258.35" cy="330.76" data-y="2.16" data-x="1594339200" r="1" fill="white"><title>2020-07-10: 2</title></circle>
	<circle cx="260.16" cy="330.76" data-y="2.16" data-x="1594425600" r="1" fill="white"><title>2020-07-11: 2</title></circle>
	<circle cx="261.97" cy="335.18" data-y="1.94" data-x="1594512000" r="1" fill="white"><title>2020-07-12: 2</title></circle>
	<circle cx="263.78" cy="328.55" data-y="2.27" data-x="1594598400" r="1" fill="white"><title>2020-07-13: 2</title></circle>
	<circle cx="265.59" cy="319.70" data-y="2.70" data-x="1594684800" r="1" fill="white"><title>2020-07-14: 3</title></circle>
	<circle cx="267.40" cy="313.06" data-y="3.02" data-x="1594771200" r="1" fill="white"><title>2020-07-15: 3</title></circle>
	<circle cx="269.21" cy="308.64" data-y="3.24" data-x="1594857600" r="1" fill="white"><title>2020-07-16: 3</title></circle>
	<circle cx="271.02" cy="324.12" data-y="2.48" data-x="1594944000" r="1" fill="white"><title>2020-07-17: 2</title></circle>
	<circle cx="272.83" cy="317.48" data-y="2.80" data-x="1595030400" r="1" fill="white"><title>2020-07-18: 3</title></circle>
	<circle cx="274.63" cy="306.42" data-y="3.34" data-x="1595116800" r="1" fill="white"><title>2020-07-19: 3</title></circle>
	<circle cx="276.44" cy="310.85" data-y="3.13" data-x="1595203200" r="1" fill="white"><title>2020-07-20: 3</title></circle>
	<circle cx="278.25" cy="317.48" data-y="2.80" data-x="1595289600" r="1" fill="white"><title>2020-07-21: 3</title></circle>
	<circle cx="280.06" cy="330.76" data-y="2.16" data-x="1595376000" r="1" fill="white"><title>2020-07-22: 2</title></circle>
	<circle cx="281.87" cy="337.39" data-y="1.83" data-x="1595462400" r="1" fill="white"><title>2020-07-23: 2</title></circle>
	<circle cx="283.68" cy="326.33" data-y="2.37" data-x="1595548800" r="1" fill="white"><title>2020-07-24: 2</title></circle>
	<circle cx="285.49" cy="332.97" data-y="2.05" data-x="1595635200" r="1" fill="white"><title>2020-07-25: 2</title></circle>
	<circle cx="287.30" cy="344.03" data-y="1.51" data-x="1595721600" r="1" fill="white"><title>2020-07-26: 2</title></circle>
	<circle cx="289.11" cy="348.45" data-y="1.29" data-x="1595808000" r="1" fill="white"><title>2020-07-27: 1</title></circle>
	<circle cx="290.91" cy="350.67" data-y="1.19" data-x="1595894400" r="1" fill="white"><title>2020-07-28: 1</title></circle>
	<circle cx="292.72" cy="350.67" data-y="1.19" data-x="1595980800" r="1" fill="white"><title>2020-07-29: 1</title></circle>
	<circle cx="294.53" cy="352.88" data-y="1.08" data-x="1596067200" r="1" fill="white"><title>2020-07-30: 1</title></circle>
	<circle cx="296.34" cy="361.73" data-y="0.65" data-x="1596153600" r="1" fill="white"><title>2020-07-31: 1</title></circle>
	<circle cx="298.15" cy="363.94" data-y="0.54" data-x="1596240000" r="1" fill="white"><title>2020-08-01: 1</title></circle>
	<circle cx="299.96" cy="357.30" data-y="0.86" data-x="1596326400" r="1" fill="white"><title>2020-08-02: 1</title></circle>
	<circle cx="301.77" cy="352.88" data-y="1.08" data-x="1596412800" r="1" fill="white"><title>2020-08-03: 1</title></circle>
	<circle cx="303.58" cy="355.09" data-y="0.97" data-x="1596499200" r="1" fill="white"><title>2020-08-04: 1</title></circle>
	<circle cx="305.39" cy="355.09" data-y="0.97" data-x="1596585600" r="1" fill="white"><title>2020-08-05: 1</title></circle>
	<circle cx="307.20" cy="355.09" data-y="0.97" data-x="1596672000" r="1" fill="white"><title>2020-08-06: 1</title></circle>
	<circle cx="309.00" cy="359.52" data-y="0.76" data-x="1596758400" r="1" fill="white"><title>2020-08-07: 1</title></circle>
	<circle cx="310.81" cy="361.73" data-y="0.65" data-x="1596844800" r="1" fill="white"><title>2020-08-08: 1</title></circle>
	<circle cx="312.62" cy="366.15" data-y="0.43" data-x="1596931200" r="1" fill="white"><title>2020-08-09: 0</title></circle>
	<circle cx="314.43" cy="370.58" data-y="0.22" data-x="1597017600" r="1" fill="white"><title>2020-08-10: 0</title></circle>
	<circle cx="316.24" cy="368.36" data-y="0.32" data-x="1597104000" r="1" fill="white"><title>2020-08-11: 0</title></circle>
	<circle cx="318.05" cy="368.36" data-y="0.32" data-x="1597190400" r="1" fill="white"><title>2020-08-12: 0</title></circle>
	<circle cx="319.86" cy="368.36" data-y="0.32" data-x="1597276800" r="1" fill="white"><title>2020-08-13: 0</title></circle>
	<circle cx="321.67" cy="363.94" data-y="0.54" data-x="1597363200" r="1" fill="white"><title>2020-08-14: 1</title></circle>
	<circle cx="323.48" cy="363.94" data-y="0.54" data-x="1597449600" r="1" fill="white"><title>2020-08-15: 1</title></circle>
	<circle cx="325.28" cy="366.15" data-y="0.43" data-x="1597536000" r="1" fill="white"><title>2020-08-16: 0</title></circle>
	<circle cx="327.09" cy="368.36" data-y="0.32" data-x="1597622400" r="1" fill="white"><title>2020-08-17: 0</title></circle>
	<circle cx="328.90" cy="370.58" data-y="0.22" data-x="1597708800" r="1" fill="white"><title>2020-08-18: 0</title></circle>
	<circle cx="330.71" cy="370.58" data-y="0.22" data-x="1597795200" r="1" fill="white"><title>2020-08-19: 0</title></circle>
	<circle cx="332.52" cy="370.58" data-y="0.22" data-x="1597881600" r="1" fill="white"><title>2020-08-20: 0</title></circle>
	<circle cx="334.33" cy="375.00" data-y="0.00" data-x="1597968000" r="1" fill="white"><title>2020-08-21: 0</title></circle>
	<circle cx="336.14" cy="375.00" data-y="0.00" data-x="1598054400" r="1" fill="white"><title>2020-08-22: 0</title></circle>
	<circle cx="337.95" cy="375.00" data-y="0.00" data-x="1598140800" r="1" fill="white"><title>2020-08-23: 0</title></circle>
	<circle cx="339.76" cy="375.00" data-y="0.00" data-x="1598227200" r="1" fill="white"><title>2020-08-24: 0</title></circle>
	<circle cx="341.57" cy="370.58" data-y="0.22" data-x="1598313600" r="1" fill="white"><title>2020-08-25: 0</title></circle>
	<circle cx="343.37" cy="370.58" data-y="0.22" data-x="1598400000" r="1" fill="white"><title>2020-08-26: 0</title></circle>
	<circle cx="345.18" cy="370.58" data-y="0.22" data-x="1598486400" r="1" fill="white"><title>2020-08-27: 0</title></circle>
	<circle cx="346.99" cy="368.36" data-y="0.32" data-x="1598572800" r="1" fill="white"><title>2020-08-28: 0</title></circle>
	<circle cx="348.80" cy="368.36" data-y="0.32" data-x="1598659200" r="1" fill="white"><title>2020-08-29: 0</title></circle>
	<circle cx="350.61" cy="363.94" data-y="0.54" data-x="1598745600" r="1" fill="white"><title>2020-08-30: 1</title></circle>
	<circle cx="352.42" cy="359.52" data-y="0.76" data-x="1598832000" r="1" fill="white"><title>2020-08-31: 1</title></circle>
	<circle cx="354.23" cy="363.94" data-y="0.54" data-x="1598918400" r="1" fill="white"><title>2020-09-01: 1</title></circle>
	<circle cx="356.04" cy="363.94" data-y="0.54" data-x="1599004800" r="1" fill="white"><title>2020-09-02: 1</title></circle>
	<circle cx="357.85" cy="359.52" data-y="0.76" data-x="1599091200" r="1" fill="white"><title>2020-09-03: 1</title></circle>
	<circle cx="359.65" cy="361.73" data-y="0.65" data-x="1599177600" r="1" fill="white"><title>2020-09-04: 1</title></circle>
	<circle cx="361.46" cy="357.30" data-y="0.86" data-x="1599264000" r="1" fill="white"><title>2020-09-05: 1</title></circle>
	<circle cx="363.27" cy="361.73" data-y="0.65" data-x="1599350400" r="1" fill="white"><title>2020-09-06: 1</title></circle>
	<circle cx="365.08" cy="366.15" data-y="0.43" data-x="1599436800" r="1" fill="white"><title>2020-09-07: 0</title></circle>
	<circle cx="366.89" cy="363.94" data-y="0.54" data-x="1599523200" r="1" fill="white"><title>2020-09-08: 1</title></circle>
	<circle cx="368.70" cy="361.73" data-y="0.65" data-x="1599609600" r="1" fill="white"><title>2020-09-09: 1</title></circle>
	<circle cx="370.51" cy="366.15" data-y="0.43" data-x="1599696000" r="1" fill="white"><title>2020-09-10: 0</title></circle>
	<circle cx="372.32" cy="357.30" data-y="0.86" data-x="1599782400" r="1" fill="white"><title>2020-09-11: 1</title></circle>
	<circle cx="374.13" cy="361.73" data-y="0.65" data-x="1599868800" r="1" fill="white"><title>2020-09-12: 1</title></circle>
	<circle cx="375.93" cy="357.30" data-y="0.86" data-x="1599955200" r="1" fill="white"><title>2020-09-13: 1</title></circle>
	<circle cx="377.74" cy="350.67" data-y="1.19" data-x="1600041600" r="1" fill="white"><title>2020-09-14: 1</title></circle>
	<circle cx="379.55" cy="348.45" data-y="1.29" data-x="1600128000" r="1" fill="white"><title>2020-09-15: 1</title></circle>
	<circle cx="381.36" cy="346.24" data-y="1.40" data-x="1600214400" r="1" fill="white"><title>2020-09-16: 1</title></circle>
	<circle cx="383.17" cy="346.24" data-y="1.40" data-x="1600300800" r="1" fill="white"><title>2020-09-17: 1</title></circle>
	<circle cx="384.98" cy="352.88" data-y="1.08" data-x="1600387200" r="1" fill="white"><title>2020-09-18: 1</title></circle>
	<circle cx="386.79" cy="346.24" data-y="1.40" data-x="1600473600" r="1" fill="white"><title>2020-09-19: 1</title></circle>
	<circle cx="388.60" cy="344.03" data-y="1.51" data-x="1600560000" r="1" fill="white"><title>2020-09-20: 2</title></circle>
	<circle cx="390.41" cy="344.03" data-y="1.51" data-x="1600646400" r="1" fill="white"><title>2020-09-21: 2</title></circle>
	<circle cx="392.22" cy="348.45" data-y="1.29" data-x="1600732800" r="1" fill="white"><title>2020-09-22: 1</title></circle>
	<circle cx="394.02" cy="352.88" data-y="1.08" data-x="1600819200" r="1" fill="white"><title>2020-09-23: 1</title></circle>
	<circle cx="395.83" cy="341.82" data-y="1.62" data-x="1600905600" r="1" fill="white"><title>2020-09-24: 2</title></circle>
	<circle cx="397.64" cy="339.61" data-y="1.73" data-x="1600992000" r="1" fill="white"><title>2020-09-25: 2</title></circle>
	<circle cx="399.45" cy="341.82" data-y="1.62" data-x="1601078400" r="1" fill="white"><title>2020-09-26: 2</title></circle>
	<circle cx="401.26" cy="339.61" data-y="1.73" data-x="1601164800" r="1" fill="white"><title>2020-09-27: 2</title></circle>
	<circle cx="403.07" cy="332.97" data-y="2.05" data-x="1601251200" r="1" fill="white"><title>2020-09-28: 2</title></circle>
	<circle cx="404.88" cy="321.91" data-y="2.59" data-x="1601337600" r="1" fill="white"><title>2020-09-29: 3</title></circle>
	<circle cx="406.69" cy="304.21" data-y="3.45" data-x="1601424000" r="1" fill="white"><title>2020-09-30: 3</title></circle>
	<circle cx="408.50" cy="304.21" data-y="3.45" data-x="1601510400" r="1" fill="white"><title>2020-10-01: 3</title></circle>
	<circle cx="410.30" cy="288.73" data-y="4.21" data-x="1601596800" r="1" fill="white"><title>2020-10-02: 4</title></circle>
	<circle cx="412.11" cy="284.30" data-y="4.42" data-x="1601683200" r="1" fill="white"><title>2020-10-03: 4</title></circle>
	<circle cx="413.92" cy="277.67" data-y="4.75" data-x="1601769600" r="1" fill="white"><title>2020-10-04: 5</title></circle>
	<circle cx="415.73" cy="255.55" data-y="5.83" data-x="1601856000" r="1" fill="white"><title>2020-10-05: 6</title></circle>
	<circle cx="417.54" cy="246.70" data-y="6.26" data-x="1601942400" r="1" fill="white"><title>2020-10-06: 6</title></circle>
	<circle cx="419.35" cy="255.55" data-y="5.83" data-x="1602028800" r="1" fill="white"><title>2020-10-07: 6</title></circle>
	<circle cx="421.16" cy="255.55" data-y="5.83" data-x="1602115200" r="1" fill="white"><title>2020-10-08: 6</title></circle>
	<circle cx="422.97" cy="259.97" data-y="5.61" data-x="1602201600" r="1" fill="white"><title>2020-10-09: 6</title></circle>
	<circle cx="424.78" cy="257.76" data-y="5.72" data-x="1602288000" r="1" fill="white"><title>2020-10-10: 6</title></circle>
	<circle cx="426.59" cy="264.39" data-y="5.39" data-x="1602374400" r="1" fill="white"><title>2020-10-11: 5</title></circle>
	<circle cx="428.39" cy="271.03" data-y="5.07" data-x="1602460800" r="1" fill="white"><title>2020-10-12: 5</title></circle>
	<circle cx="430.20" cy="266.61" data-y="5.29" data-x="1602547200" r="1" fill="white"><title>2020-10-13: 5</title></circle>
	<circle cx="432.01" cy="264.39" data-y="5.39" data-x="1602633600" r="1" fill="white"><title>2020-10-14: 5</title></circle>
	<circle cx="433.82" cy="257.76" data-y="5.72" data-x="1602720000" r="1" fill="white"><title>2020-10-15: 6</title></circle>
	<circle cx="435.63" cy="233.42" data-y="6.90" data-x="1602806400" r="1" fill="white"><title>2020-10-16: 7</title></circle>
	<circle cx="437.44" cy="204.67" data-y="8.31" data-x="1602892800" r="1" fill="white"><title>2020-10-17: 8</title></circle>
	<circle cx="439.25" cy="175.91" data-y="9.71" data-x="1602979200" r="1" fill="white"><title>2020-10-18: 10</title></circle>
	<circle cx="441.06" cy="186.97" data-y="9.17" data-x="1603065600" r="1" fill="white"><title>2020-10-19: 9</title></circle>
	<circle cx="442.87" cy="184.76" data-y="9.28" data-x="1603152000" r="1" fill="white"><title>2020-10-20: 9</title></circle>
	<circle cx="444.67" cy="180.33" data-y="9.49" data-x="1603238400" r="1" fill="white"><title>2020-10-21: 9</title></circle>
	<circle cx="446.48" cy="182.55" data-y="9.39" data-x="1603324800" r="1" fill="white"><title>2020-10-22: 9</title></circle>
	<circle cx="448.29" cy="186.97" data-y="9.17" data-x="1603411200" r="1" fill="white"><title>2020-10-23: 9</title></circle>
	<circle cx="450.10" cy="204.67" data-y="8.31" data-x="1603497600" r="1" fill="white"><title>2020-10-24: 8</title></circle>
	<circle cx="451.91" cy="217.94" data-y="7.66" data-x="1603584000" r="1" fill="white"><title>2020-10-25: 8</title></circle>
	<circle cx="453.72" cy="204.67" data-y="8.31" data-x="1603670400" r="1" fill="white"><title>2020-10-26: 8</title></circle>
	<circle cx="455.53" cy="211.30" data-y="7.98" data-x="1603756800" r="1" fill="white"><title>2020-10-27: 8</title></circle>
	<circle cx="457.34" cy="202.45" data-y="8.41" data-x="1603843200" r="1" fill="white"><title>2020-10-28: 8</title></circle>
	<circle cx="459.15" cy="198.03" data-y="8.63" data-x="1603929600" r="1" fill="white"><title>2020-10-29: 9</title></circle>
	<circle cx="460.96" cy="173.70" data-y="9.82" data-x="1604016000" r="1" fill="white"><title>2020-10-30: 10</title></circle>
</g>
<g data-series="recent-cases" class="data-series">
	<path d="M 460.96,173.70L 462.76,164.85L 464.57,189.18L 466.38,194.34L 468.19,186.08L 470.00,181.44" id="Recent cases" class="line" stroke-width="1" stroke-linecap="round" stroke-dasharray="4,6" stroke-dashoffset="4"><title>Recent cases</title></path>
	<circle cx="460.96" cy="173.70" data-y="9.82" data-x="1604016000" r="2.5" fill="white"><title>2020-10-30: 10</title></circle>
	<circle cx="462.76" cy="164.85" data-y="10.25" data-x="1604102400" r="2.5" fill="white"><title>2020-10-31: 10</title></circle>
	<circle cx="464.57" cy="189.18" data-y="9.06" data-x="1604188800" r="2.5" fill="white"><title>2020-11-01: 9</title></circle>
	<circle cx="466.38" cy="194.34" data-y="8.81" data-x="1604275200" r="2.5" fill="white"><title>2020-11-02: 9</title></circle>
	<circle cx="468.19" cy="186.08" data-y="9.21" data-x="1604361600" r="2.5" fill="white"><title>2020-11-03: 9</title></circle>
	<circle cx="470.00" cy="181.44" data-y="9.44" data-x="1604448000" r="2.5" fill="white"><title>2020-11-04: 9</title></circle>
</g>
</svg>
