<svg width="480" height="400" viewBox="0 0 480 400" xmlns="http://www.w3.org/2000/svg" style="overflow:display" preserveAspectRatio="xMinYMin meet" overflow="visible">
<defs>
	<style>
	.data-series path.line { fill-opacity: 0; stroke: black; }
	.data-series path.line.dotted { stroke-dasharray: 12 20 }
	.data-series:hover path.line, .data-series.on path.line { stroke-width: 1; }
	.data-series:hover circle, .data-series.on circle { display: inline; }
	.graph-grid { font-family: "Helvetica Neue",Helvetica,Arial,"Lucida Grande",sans-serif; }
	.graph-grid line { stroke: black; stroke-width: 1; stroke-linecap: round; }
	.graph-grid.graph-grid-x text { text-anchor: middle; dominant-baseline: hanging; transform: translateY(10px); }
	.graph-grid.graph-grid-y text { text-anchor: end; dominant-baseline: middle; transform: translateX(-10px); }
	</style>
</defs>
<g class="graph-grid graph-grid-y">
	<line x1="25.00" y1="375.00" x2="470.00" y2="375.00" data-left="25"></line>
	<text x="35" y="375" text-anchor="end">0</text>
	<text x="35" y="222.379992125984" text-anchor="end">10</text>
	<text x="35" y="69.7599842519685" text-anchor="end">20</text>
	<text style="text-anchor:middle;dominant-baseline:hanging;font-weight:bold;transform: translateY(192.5px) rotate(-90deg);"></text>
</g>
<g class="graph-grid graph-grid-x">
	<line class="tick" x1="57.85" y1="375.00" x2="57.85" y2="380.00"></line>
	<text x="57.8523489932886" y="375" text-anchor="middle">M</text>
	<line class="tick" x1="104.14" y1="375.00" x2="104.14" y2="380.00"></line>
	<text x="104.144295302013" y="375" text-anchor="middle">A</text>
	<line class="tick" x1="148.94" y1="375.00" x2="148.94" y2="380.00"></line>
	<text x="148.942953020134" y="375" text-anchor="middle">M</text>
	<line class="tick" x1="195.23" y1="375.00" x2="195.23" y2="380.00"></line>
	<text x="195.234899328859" y="375" text-anchor="middle">J</text>
	<line class="tick" x1="240.03" y1="375.00" x2="240.03" y2="380.00"></line>
	<text x="240.03355704698" y="375" text-anchor="middle">J</text>
	<line class="tick" x1="286.33" y1="375.00" x2="286.33" y2="380.00"></line>
	<text x="286.325503355705" y="375" text-anchor="middle">A</text>
	<line class="tick" x1="332.62" y1="375.00" x2="332.62" y2="380.00"></line>
	<text x="332.61744966443" y="375" text-anchor="middle">S</text>
	<line class="tick" x1="377.42" y1="375.00" x2="377.42" y2="380.00"></line>
	<text x="377.41610738255" y="375" text-anchor="middle">O</text>
	<line class="tick" x1="423.71" y1="375.00" x2="423.71" y2="380.00"></line>
	<text x="423.708053691275" y="375" text-anchor="middle">N</text>
	<line class="tick" x1="468.51" y1="375.00" x2="468.51" y2="380.00"></line>
	<text x="468.506711409396" y="375" text-anchor="middle">D</text>
	<text style="text-anchor:middle;dominant-baseline:hanging;font-weight:bold;transform: translateY(192.5px) rotate(-90deg);"></text>
</g>
<g data-series="widespread" class="data-series">
	<path d="M 25.00,268.17L 470.00,268.17" id="E07000177-level-0" class="line" stroke-width="1" stroke-linecap="round" stroke-dasharray="3,3" fill-opacity="0.3" opacity="0.3"><title>Widespread</title></path>
</g>
<g data-series="substantial" class="data-series">
	<path d="M 25.00,313.95L 470.00,313.95" id="E07000177-level-1" class="line" stroke-width="1" stroke-linecap="round" stroke-dasharray="3,3" fill-opacity="0.3" opacity="0.3"><title>Substantial</title></path>
</g>
<g data-series="moderate" class="data-series">
	<path d="M 25.00,359.74L 470.00,359.74" id="E07000177-level-2" class="line" stroke-width="1" stroke-linecap="round" stroke-dasharray="3,3" fill-opacity="0.3" opacity="0.3"><title>Moderate</title></path>
</g>
<g data-series="new-cases" class="data-series">
	<path d="M 25.00,372.49L 26.49,372.99L 27.99,373.32L 29.48,373.56L 30.97,375.00L 32.47,375.00L 33.96,375.00L 35.45,375.00L 36.95,375.00L 38.44,375.00L 39.93,375.00L 41.43,375.00L 42.92,375.00L 44.41,375.00L 45.91,375.00L 47.40,375.00L 48.89,375.00L 50.39,375.00L 51.88,375.00L 53.37,375.00L 54.87,375.00L 56.36,375.00L 57.85,375.00L 59.35,375.00L 60.84,375.00L 62.33,375.00L 63.83,375.00L 65.32,373.56L 66.81,373.56L 68.31,372.13L 69.80,372.13L 71.29,370.69L 72.79,370.69L 74.28,367.81L 75.77,369.25L 77.27,367.81L 78.76,369.25L 80.25,366.38L 81.74,364.94L 83.24,364.94L 84.73,363.50L 86.22,352.01L 87.72,346.26L 89.21,341.95L 90.70,340.51L 92.20,343.39L 93.69,336.20L 95.18,333.33L 96.68,334.76L 98.17,334.76L 99.66,326.14L 101.16,316.08L 102.65,291.65L 104.14,281.59L 105.64,268.66L 107.13,267.22L 108.62,244.23L 110.12,234.17L 111.61,226.99L 113.10,244.23L 114.60,252.85L 116.09,265.79L 117.58,262.91L 119.08,280.16L 120.57,291.65L 122.06,304.59L 123.56,297.40L 125.05,285.91L 126.54,275.85L 128.04,283.03L 129.53,290.22L 131.02,277.28L 132.52,274.41L 134.01,262.91L 135.50,271.54L 137.00,264.35L 138.49,254.29L 139.98,247.11L 141.48,258.60L 142.97,260.04L 144.46,268.66L 145.96,268.66L 147.45,284.47L 148.94,271.54L 150.44,267.22L 151.93,262.91L 153.42,255.73L 154.92,258.60L 156.41,258.60L 157.90,262.91L 159.40,262.91L 160.89,264.35L 162.38,268.66L 163.88,280.16L 165.37,280.16L 166.86,285.91L 168.36,283.03L 169.85,295.96L 171.34,304.59L 172.84,301.71L 174.33,297.40L 175.82,301.71L 177.32,295.96L 178.81,293.09L 180.30,303.15L 181.80,303.15L 183.29,311.77L 184.78,314.65L 186.28,314.65L 187.77,320.39L 189.26,330.45L 190.76,333.33L 192.25,334.76L 193.74,340.51L 195.23,346.26L 196.73,350.57L 198.22,354.88L 199.71,350.57L 201.21,353.44L 202.70,356.32L 204.19,354.88L 205.69,354.88L 207.18,353.44L 208.67,353.44L 210.17,356.32L 211.66,350.57L 213.15,350.57L 214.65,352.01L 216.14,353.44L 217.63,357.76L 219.13,356.32L 220.62,357.76L 222.11,364.94L 223.61,367.81L 225.10,369.25L 226.59,367.81L 228.09,367.81L 229.58,370.69L 231.07,367.81L 232.57,363.50L 234.06,356.32L 235.55,353.44L 237.05,354.88L 238.54,356.32L 240.03,356.32L 241.53,359.19L 243.02,363.50L 244.51,370.69L 246.01,373.56L 247.50,372.13L 248.99,373.56L 250.49,372.13L 251.98,372.13L 253.47,370.69L 254.97,366.38L 256.46,363.50L 257.95,362.07L 259.45,362.07L 260.94,362.07L 262.43,362.07L 263.93,362.07L 265.42,364.94L 266.91,367.81L 268.41,367.81L 269.90,367.81L 271.39,369.25L 272.89,366.38L 274.38,364.94L 275.87,366.38L 277.37,366.38L 278.86,364.94L 280.35,363.50L 281.85,363.50L 283.34,364.94L 284.83,367.81L 286.33,367.81L 287.82,367.81L 289.31,369.25L 290.81,364.94L 292.30,364.94L 293.79,364.94L 295.29,359.19L 296.78,359.19L 298.27,357.76L 299.77,356.32L 301.26,360.63L 302.75,359.19L 304.24,359.19L 305.74,363.50L 307.23,360.63L 308.72,362.07L 310.22,359.19L 311.71,354.88L 313.20,354.88L 314.70,354.88L 316.19,353.44L 317.68,356.32L 319.18,352.01L 320.67,359.19L 322.16,364.94L 323.66,366.38L 325.15,364.94L 326.64,363.50L 328.14,360.63L 329.63,364.94L 331.12,364.94L 332.62,359.19L 334.11,353.44L 335.60,353.44L 337.10,354.88L 338.59,353.44L 340.08,349.13L 341.58,341.95L 343.07,340.51L 344.56,340.51L 346.06,341.95L 347.55,336.20L 349.04,331.89L 350.54,330.45L 352.03,331.89L 353.52,336.20L 355.02,334.76L 356.51,333.33L 358.00,337.64L 359.50,343.39L 360.99,341.95L 362.48,344.82L 363.98,344.82L 365.47,349.13L 366.96,347.70L 368.46,346.26L 369.95,341.95L 371.44,330.45L 372.94,323.27L 374.43,308.90L 375.92,300.28L 377.42,285.91L 378.91,278.72L 380.40,261.48L 381.90,265.79L 383.39,249.98L 384.88,228.43L 386.38,228.43L 387.87,232.74L 389.36,218.37L 390.86,215.49L 392.35,206.87L 393.84,211.18L 395.34,229.86L 396.83,224.11L 398.32,224.11L 399.82,211.18L 401.31,168.07L 402.80,123.52L 404.30,96.22L 405.79,73.23L 407.28,57.42L 408.78,47.36L 410.27,38.74L 411.76,68.92L 413.26,91.91L 414.75,83.29L 416.24,63.17L 417.73,55.98L 419.23,54.55L 420.72,54.55L 422.21,41.61L 423.71,32.99L 425.20,43.05L 426.69,48.80L 428.19,54.55L 429.68,25.81L 431.17,12.87L 432.67,20.06L 434.16,10.00L 435.65,12.87L 437.15,25.81L 438.64,24.37L 440.13,54.55L 441.63,77.54L 443.12,100.53L 444.61,135.02L 446.11,140.77L 447.60,160.89L 449.09,169.51L 450.59,165.20L 452.08,162.32L 453.57,160.89L 455.07,166.63L 456.56,192.50L 458.05,186.75L 459.55,195.37L 461.04,208.31L 462.53,219.80" id="New cases" class="line" stroke-width="1" stroke-linecap="round"><title>New cases</title></path>
	<circle cx="25.00" cy="372.49" data-y="0.16" data-x="1581120000" r="1" fill="white"><title>2020-02-08: 0</title></circle>
	<circle cx="26.49" cy="372.99" data-y="0.13" data-x="1581206400" r="1" fill="white"><title>2020-02-09: 0</title></circle>
	<circle cx="27.99" cy="373.32" data-y="0.11" data-x="1581292800" r="1" fill="white"><title>2020-02-10: 0</title></circle>
	<circle cx="29.48" cy="373.56" data-y="0.09" data-x="1581379200" r="1" fill="white"><title>2020-02-11: 0</title></circle>
	<circle cx="30.97" cy="375.00" data-y="0.00" data-x="1581465600" r="1" fill="white"><title>2020-02-12: 0</title></circle>
	<circle cx="32.47" cy="375.00" data-y="0.00" data-x="1581552000" r="1" fill="white"><title>2020-02-13: 0</title></circle>
	<circle cx="33.96" cy="375.00" data-y="0.00" data-x="1581638400" r="1" fill="white"><title>2020-02-14: 0</title></circle>
	<circle cx="35.45" cy="375.00" data-y="0.00" data-x="1581724800" r="1" fill="white"><title>2020-02-15: 0</title></circle>
	<circle cx="36.95" cy="375.00" data-y="0.00" data-x="1581811200" r="1" fill="white"><title>2020-02-16: 0</title></circle>
	<circle cx="38.44" cy="375.00" data-y="0.00" data-x="1581897600" r="1" fill="white"><title>2020-02-17: 0</title></circle>
	<circle cx="39.93" cy="375.00" data-y="0.00" data-x="1581984000" r="1" fill="white"><title>2020-02-18: 0</title></circle>
	<circle cx="41.43" cy="375.00" data-y="0.00" data-x="1582070400" r="1" fill="white"><title>2020-02-19: 0</title></circle>
	<circle cx="42.92" cy="375.00" data-y="0.00" data-x="1582156800" r="1" fill="white"><title>2020-02-20: 0</title></circle>
	<circle cx="44.41" cy="375.00" data-y="0.00" data-x="1582243200" r="1" fill="white"><title>2020-02-21: 0</title></circle>
	<circle cx="45.91" cy="375.00" data-y="0.00" data-x="1582329600" r="1" fill="white"><title>2020-02-22: 0</title></circle>
	<circle cx="47.40" cy="375.00" data-y="0.00" data-x="1582416000" r="1" fill="white"><title>2020-02-23: 0</title></circle>
	<circle cx="48.89" cy="375.00" data-y="0.00" data-x="1582502400" r="1" fill="white"><title>2020-02-24: 0</title></circle>
	<circle cx="50.39" cy="375.00" data-y="0.00" data-x="1582588800" r="1" fill="white"><title>2020-02-25: 0</title></circle>
	<circle cx="51.88" cy="375.00" data-y="0.00" data-x="1582675200" r="1" fill="white"><title>2020-02-26: 0</title></circle>
	<circle cx="53.37" cy="375.00" data-y="0.00" data-x="1582761600" r="1" fill="white"><title>2020-02-27: 0</title></circle>
	<circle cx="54.87" cy="375.00" data-y="0.00" data-x="1582848000" r="1" fill="white"><title>2020-02-28: 0</title></circle>
	<circle cx="56.36" cy="375.00" data-y="0.00" data-x="1582934400" r="1" fill="white"><title>2020-02-29: 0</title></circle>
	<circle cx="57.85" cy="375.00" data-y="0.00" data-x="1583020800" r="1" fill="white"><title>2020-03-01: 0</title></circle>
	<circle cx="59.35" cy="375.00" data-y="0.00" data-x="1583107200" r="1" fill="white"><title>2020-03-02: 0</title></circle>
	<circle cx="60.84" cy="375.00" data-y="0.00" data-x="1583193600" r="1" fill="white"><title>2020-03-03: 0</title></circle>
	<circle cx="62.33" cy="375.00" data-y="0.00" data-x="1583280000" r="1" fill="white"><title>2020-03-04: 0</title></circle>
	<circle cx="63.83" cy="375.00" data-y="0.00" data-x="1583366400" r="1" fill="white"><title>2020-03-05: 0</title></circle>
	<circle cx="65.32" cy="373.56" data-y="0.09" data-x="1583452800" r="1" fill="white"><title>2020-03-06: 0</title></circle>
	<circle cx="66.81" cy="373.56" data-y="0.09" data-x="1583539200" r="1" fill="white"><title>2020-03-07: 0</title></circle>
	<circle cx="68.31" cy="372.13" data-y="0.19" data-x="1583625600" r="1" fill="white"><title>2020-03-08: 0</title></circle>
	<circle cx="69.80" cy="372.13" data-y="0.19" data-x="1583712000" r="1" fill="white"><title>2020-03-09: 0</title></circle>
	<circle cx="71.29" cy="370.69" data-y="0.28" data-x="1583798400" r="1" fill="white"><title>2020-03-10: 0</title></circle>
	<circle cx="72.79" cy="370.69" data-y="0.28" data-x="1583884800" r="1" fill="white"><title>2020-03-11: 0</title></circle>
	<circle cx="74.28" cy="367.81" data-y="0.47" data-x="1583971200" r="1" fill="white"><title>2020-03-12: 0</title></circle>
	<circle cx="75.77" cy="369.25" data-y="0.38" data-x="1584057600" r="1" fill="white"><title>2020-03-13: 0</title></circle>
	<circle cx="77.27" cy="367.81" data-y="0.47" data-x="1584144000" r="1" fill="white"><title>2020-03-14: 0</title></circle>
	<circle cx="78.76" cy="369.25" data-y="0.38" data-x="1584230400" r="1" fill="white"><title>2020-03-15: 0</title></circle>
	<circle cx="80.25" cy="366.38" data-y="0.56" data-x="1584316800" r="1" fill="white"><title>2020-03-16: 1</title></circle>
	<circle cx="81.74" cy="364.94" data-y="0.66" data-x="1584403200" r="1" fill="white"><title>2020-03-17: 1</title></circle>
	<circle cx="83.24" cy="364.94" data-y="0.66" data-x="1584489600" r="1" fill="white"><title>2020-03-18: 1</title></circle>
	<circle cx="84.73" cy="363.50" data-y="0.75" data-x="1584576000" r="1" fill="white"><title>2020-03-19: 1</title></circle>
	<circle cx="86.22" cy="352.01" data-y="1.51" data-x="1584662400" r="1" fill="white"><title>2020-03-20: 2</title></circle>
	<circle cx="87.72" cy="346.26" data-y="1.88" data-x="1584748800" r="1" fill="white"><title>2020-03-21: 2</title></circle>
	<circle cx="89.21" cy="341.95" data-y="2.17" data-x="1584835200" r="1" fill="white"><title>2020-03-22: 2</title></circle>
	<circle cx="90.70" cy="340.51" data-y="2.26" data-x="1584921600" r="1" fill="white"><title>2020-03-23: 2</title></circle>
	<circle cx="92.20" cy="343.39" data-y="2.07" data-x="1585008000" r="1" fill="white"><title>2020-03-24: 2</title></circle>
	<circle cx="93.69" cy="336.20" data-y="2.54" data-x="1585094400" r="1" fill="white"><title>2020-03-25: 3</title></circle>
	<circle cx="95.18" cy="333.33" data-y="2.73" data-x="1585180800" r="1" fill="white"><title>2020-03-26: 3</title></circle>
	<circle cx="96.68" cy="334.76" data-y="2.64" data-x="1585267200" r="1" fill="white"><title>2020-03-27: 3</title></circle>
	<circle cx="98.17" cy="334.76" data-y="2.64" data-x="1585353600" r="1" fill="white"><title>2020-03-28: 3</title></circle>
	<circle cx="99.66" cy="326.14" data-y="3.20" data-x="1585440000" r="1" fill="white"><title>2020-03-29: 3</title></circle>
	<circle cx="101.16" cy="316.08" data-y="3.86" data-x="1585526400" r="1" fill="white"><title>2020-03-30: 4</title></circle>
	<circle cx="102.65" cy="291.65" data-y="5.46" data-x="1585612800" r="1" fill="white"><title>2020-03-31: 5</title></circle>
	<circle cx="104.14" cy="281.59" data-y="6.12" data-x="1585699200" r="1" fill="white"><title>2020-04-01: 6</title></circle>
	<circle cx="105.64" cy="268.66" data-y="6.97" data-x="1585785600" r="1" fill="white"><title>2020-04-02: 7</title></circle>
	<circle cx="107.13" cy="267.22" data-y="7.06" data-x="1585872000" r="1" fill="white"><title>2020-04-03: 7</title></circle>
	<circle cx="108.62" cy="244.23" data-y="8.57" data-x="1585958400" r="1" fill="white"><title>2020-04-04: 9</title></circle>
	<circle cx="110.12" cy="234.17" data-y="9.23" data-x="1586044800" r="1" fill="white"><title>2020-04-05: 9</title></circle>
	<circle cx="111.61" cy="226.99" data-y="9.70" data-x="1586131200" r="1" fill="white"><title>2020-04-06: 10</title></circle>
	<circle cx="113.10" cy="244.23" data-y="8.57" data-x="1586217600" r="1" fill="white"><title>2020-04-07: 9</title></circle>
	<circle cx="114.60" cy="252.85" data-y="8.00" data-x="1586304000" r="1" fill="white"><title>2020-04-08: 8</title></circle>
	<circle cx="116.09" cy="265.79" data-y="7.16" data-x="1586390400" r="1" fill="white"><title>2020-04-09: 7</title></circle>
	<circle cx="117.58" cy="262.91" data-y="7.34" data-x="1586476800" r="1" fill="white"><title>2020-04-10: 7</title></circle>
	<circle cx="119.08" cy="280.16" data-y="6.21" data-x="1586563200" r="1" fill="white"><title>2020-04-11: 6</title></circle>
	<circle cx="120.57" cy="291.65" data-y="5.46" data-x="1586649600" r="1" fill="white"><title>2020-04-12: 5</title></circle>
	<circle cx="122.06" cy="304.59" data-y="4.61" data-x="1586736000" r="1" fill="white"><title>2020-04-13: 5</title></circle>
	<circle cx="123.56" cy="297.40" data-y="5.08" data-x="1586822400" r="1" fill="white"><title>2020-04-14: 5</title></circle>
	<circle cx="125.05" cy="285.91" data-y="5.84" data-x="1586908800" r="1" fill="white"><title>2020-04-15: 6</title></circle>
	<circle cx="126.54" cy="275.85" data-y="6.50" data-x="1586995200" r="1" fill="white"><title>2020-04-16: 6</title></circle>
	<circle cx="128.04" cy="283.03" data-y="6.03" data-x="1587081600" r="1" fill="white"><title>2020-04-17: 6</title></circle>
	<circle cx="129.53" cy="290.22" data-y="5.56" data-x="1587168000" r="1" fill="white"><title>2020-04-18: 6</title></circle>
	<circle cx="131.02" cy="277.28" data-y="6.40" data-x="1587254400" r="1" fill="white"><title>2020-04-19: 6</title></circle>
	<circle cx="132.52" cy="274.41" data-y="6.59" data-x="1587340800" r="1" fill="white"><title>2020-04-20: 7</title></circle>
	<circle cx="134.01" cy="262.91" data-y="7.34" data-x="1587427200" r="1" fill="white"><title>2020-04-21: 7</title></circle>
	<circle cx="135.50" cy="271.54" data-y="6.78" data-x="1587513600" r="1" fill="white"><title>2020-04-22: 7</title></circle>
	<circle cx="137.00" cy="264.35" data-y="7.25" data-x="1587600000" r="1" fill="white"><title>2020-04-23: 7</title></circle>
	<circle cx="138.49" cy="254.29" data-y="7.91" data-x="1587686400" r="1" fill="white"><title>2020-04-24: 8</title></circle>
	<circle cx="139.98" cy="247.11" data-y="8.38" data-x="1587772800" r="1" fill="white"><title>2020-04-25: 8</title></circle>
	<circle cx="141.48" cy="258.60" data-y="7.63" data-x="1587859200" r="1" fill="white"><title>2020-04-26: 8</title></circle>
	<circle cx="142.97" cy="260.04" data-y="7.53" data-x="1587945600" r="1" fill="white"><title>2020-04-27: 8</title></circle>
	<circle cx="144.46" cy="268.66" data-y="6.97" data-x="1588032000" r="1" fill="white"><title>2020-04-28: 7</title></circle>
	<circle cx="145.96" cy="268.66" data-y="6.97" data-x="1588118400" r="1" fill="white"><title>2020-04-29: 7</title></circle>
	<circle cx="147.45" cy="284.47" data-y="5.93" data-x="1588204800" r="1" fill="white"><title>2020-04-30: 6</title></circle>
	<circle cx="148.94" cy="271.54" data-y="6.78" data-x="1588291200" r="1" fill="white"><title>2020-05-01: 7</title></circle>
	<circle cx="150.44" cy="267.22" data-y="7.06" data-x="1588377600" r="1" fill="white"><title>2020-05-02: 7</title></circle>
	<circle cx="151.93" cy="262.91" data-y="7.34" data-x="1588464000" r="1" fill="white"><title>2020-05-03: 7</title></circle>
	<circle cx="153.42" cy="255.73" data-y="7.81" data-x="1588550400" r="1" fill="white"><title>2020-05-04: 8</title></circle>
	<circle cx="154.92" cy="258.60" data-y="7.63" data-x="1588636800" r="1" fill="white"><title>2020-05-05: 8</title></circle>
	<circle cx="156.41" cy="258.60" data-y="7.63" data-x="1588723200" r="1" fill="white"><title>2020-05-06: 8</title></circle>
	<circle cx="157.90" cy="262.91" data-y="7.34" data-x="1588809600" r="1" fill="white"><title>2020-05-07: 7</title></circle>
	<circle cx="159.40" cy="262.91" data-y="7.34" data-x="1588896000" r="1" fill="white"><title>2020-05-08: 7</title></circle>
	<circle cx="160.89" cy="264.35" data-y="7.25" data-x="1588982400" r="1" fill="white"><title>2020-05-09: 7</title></circle>
	<circle cx="162.38" cy="268.66" data-y="6.97" data-x="1589068800" r="1" fill="white"><title>2020-05-10: 7</title></circle>
	<circle cx="163.88" cy="280.16" data-y="6.21" data-x="1589155200" r="1" fill="white"><title>2020-05-11: 6</title></circle>
	<circle cx="165.37" cy="280.16" data-y="6.21" data-x="1589241600" r="1" fill="white"><title>2020-05-12: 6</title></circle>
	<circle cx="166.86" cy="285.91" data-y="5.84" data-x="1589328000" r="1" fill="white"><title>2020-05-13: 6</title></circle>
	<circle cx="168.36" cy="283.03" data-y="6.03" data-x="1589414400" r="1" fill="white"><title>2020-05-14: 6</title></circle>
	<circle cx="169.85" cy="295.96" data-y="5.18" data-x="1589500800" r="1" fill="white"><title>2020-05-15: 5</title></circle>
	<circle cx="171.34" cy="304.59" data-y="4.61" data-x="1589587200" r="1" fill="white"><title>2020-05-16: 5</title></circle>
	<circle cx="172.84" cy="301.71" data-y="4.80" data-x="1589673600" r="1" fill="white"><title>2020-05-17: 5</title></circle>
	<circle cx="174.33" cy="297.40" data-y="5.08" data-x="1589760000" r="1" fill="white"><title>2020-05-18: 5</title></circle>
	<circle cx="175.82" cy="301.71" data-y="4.80" data-x="1589846400" r="1" fill="white"><title>2020-05-19: 5</title></circle>
	<circle cx="177.32" cy="295.96" data-y="5.18" data-x="1589932800" r="1" fill="white"><title>2020-05-20: 5</title></circle>
	<circle cx="178.81" cy="293.09" data-y="5.37" data-x="1590019200" r="1" fill="white"><title>2020-05-21: 5</title></circle>
	<circle cx="180.30" cy="303.15" data-y="4.71" data-x="1590105600" r="1" fill="white"><title>2020-05-22: 5</title></circle>
	<circle cx="181.80" cy="303.15" data-y="4.71" data-x="1590192000" r="1" fill="white"><title>2020-05-23: 5</title></circle>
	<circle cx="183.29" cy="311.77" data-y="4.14" data-x="1590278400" r="1" fill="white"><title>2020-05-24: 4</title></circle>
	<circle cx="184.78" cy="314.65" data-y="3.95" data-x="1590364800" r="1" fill="white"><title>2020-05-25: 4</title></circle>
	<circle cx="186.28" cy="314.65" data-y="3.95" data-x="1590451200" r="1" fill="white"><title>2020-05-26: 4</title></circle>
	<circle cx="187.77" cy="320.39" data-y="3.58" data-x="1590537600" r="1" fill="white"><title>2020-05-27: 4</title></circle>
	<circle cx="189.26" cy="330.45" data-y="2.92" data-x="1590624000" r="1" fill="white"><title>2020-05-28: 3</title></circle>
	<circle cx="190.76" cy="333.33" data-y="2.73" data-x="1590710400" r="1" fill="white"><title>2020-05-29: 3</title></circle>
	<circle cx="192.25" cy="334.76" data-y="2.64" data-x="1590796800" r="1" fill="white"><title>2020-05-30: 3</title></circle>
	<circle cx="193.74" cy="340.51" data-y="2.26" data-x="1590883200" r="1" fill="white"><title>2020-05-31: 2</title></circle>
	<circle cx="195.23" cy="346.26" data-y="1.88" data-x="1590969600" r="1" fill="white"><title>2020-06-01: 2</title></circle>
	<circle cx="196.73" cy="350.57" data-y="1.60" data-x="1591056000" r="1" fill="white"><title>2020-06-02: 2</title></circle>
	<circle cx="198.22" cy="354.88" data-y="1.32" data-x="1591142400" r="1" fill="white"><title>2020-06-03: 1</title></circle>
	<circle cx="199.71" cy="350.57" data-y="1.60" data-x="1591228800" r="1" fill="white"><title>2020-06-04: 2</title></circle>
	<circle cx="201.21" cy="353.44" data-y="1.41" data-x="1591315200" r="1" fill="white"><title>2020-06-05: 1</title></circle>
	<circle cx="202.70" cy="356.32" data-y="1.22" data-x="1591401600" r="1" fill="white"><title>2020-06-06: 1</title></circle>
	<circle cx="204.19" cy="354.88" data-y="1.32" data-x="1591488000" r="1" fill="white"><title>2020-06-07: 1</title></circle>
	<circle cx="205.69" cy="354.88" data-y="1.32" data-x="1591574400" r="1" fill="white"><title>2020-06-08: 1</title></circle>
	<circle cx="207.18" cy="353.44" data-y="1.41" data-x="1591660800" r="1" fill="white"><title>2020-06-09: 1</title></circle>
	<circle cx="208.67" cy="353.44" data-y="1.41" data-x="1591747200" r="1" fill="white"><title>2020-06-10: 1</title></circle>
	<circle cx="210.17" cy="356.32" data-y="1.22" data-x="1591833600" r="1" fill="white"><title>2020-06-11: 1</title></circle>
	<circle cx="211.66" cy="350.57" data-y="1.60" data-x="1591920000" r="1" fill="white"><title>2020-06-12: 2</title></circle>
	<circle cx="213.15" cy="350.57" data-y="1.60" data-x="1592006400" r="1" fill="white"><title>2020-06-13: 2</title></circle>
	<circle cx="214.65" cy="352.01" data-y="1.51" data-x="1592092800" r="1" fill="white"><title>2020-06-14: 2</title></circle>
	<circle cx="216.14" cy="353.44" data-y="1.41" data-x="1592179200" r="1" fill="white"><title>2020-06-15: 1</title></circle>
	<circle cx="217.63" cy="357.76" data-y="1.13" data-x="1592265600" r="1" fill="white"><title>2020-06-16: 1</title></circle>
	<circle cx="219.13" cy="356.32" data-y="1.22" data-x="1592352000" r="1" fill="white"><title>2020-06-17: 1</title></circle>
	<circle cx="220.62" cy="357.76" data-y="1.13" data-x="1592438400" r="1" fill="white"><title>2020-06-18: 1</title></circle>
	<circle cx="222.11" cy="364.94" data-y="0.66" data-x="1592524800" r="1" fill="white"><title>2020-06-19: 1</title></circle>
	<circle cx="223.61" cy="367.81" data-y="0.47" data-x="1592611200" r="1" fill="white"><title>2020-06-20: 0</title></circle>
	<circle cx="225.10" cy="369.25" data-y="0.38" data-x="1592697600" r="1" fill="white"><title>2020-06-21: 0</title></circle>
	<circle cx="226.59" cy="367.81" data-y="0.47" data-x="1592784000" r="1" fill="white"><title>2020-06-22: 0</title></circle>
	<circle cx="228.09" cy="367.81" data-y="0.47" data-x="1592870400" r="1" fill="white"><title>2020-06-23: 0</title></circle>
	<circle cx="229.58" cy="370.69" data-y="0.28" data-x="1592956800" r="1" fill="white"><title>2020-06-24: 0</title></circle>
	<circle cx="231.07" cy="367.81" data-y="0.47" data-x="1593043200" r="1" fill="white"><title>2020-06-25: 0</title></circle>
	<circle cx="232.57" cy="363.50" data-y="0.75" data-x="1593129600" r="1" fill="white"><title>2020-06-26: 1</title></circle>
	<circle cx="234.06" cy="356.32" data-y="1.22" data-x="1593216000" r="1" fill="white"><title>2020-06-27: 1</title></circle>
	<circle cx="235.55" cy="353.44" data-y="1.41" data-x="1593302400" r="1" fill="white"><title>2020-06-28: 1</title></circle>
	<circle cx="237.05" cy="354.88" data-y="1.32" data-x="1593388800" r="1" fill="white"><title>2020-06-29: 1</title></circle>
	<circle cx="238.54" cy="356.32" data-y="1.22" data-x="1593475200" r="1" fill="white"><title>2020-06-30: 1</title></circle>
	<circle cx="240.03" cy="356.32" data-y="1.22" data-x="1593561600" r="1" fill="white"><title>2020-07-01: 1</title></circle>
	<circle cx="241.53" cy="359.19" data-y="1.04" data-x="1593648000" r="1" fill="white"><title>2020-07-02: 1</title></circle>
	<circle cx="243.02" cy="363.50" data-y="0.75" data-x="1593734400" r="1" fill="white"><title>2020-07-03: 1</title></circle>
	<circle cx="244.51" cy="370.69" data-y="0.28" data-x="1593820800" r="1" fill="white"><title>2020-07-04: 0</title></circle>
	<circle cx="246.01" cy="373.56" data-y="0.09" data-x="1593907200" r="1" fill="white"><title>2020-07-05: 0</title></circle>
	<circle cx="247.50" cy="372.13" data-y="0.19" data-x="1593993600" r="1" fill="white"><title>2020-07-06: 0</title></circle>
	<circle cx="248.99" cy="373.56" data-y="0.09" data-x="1594080000" r="1" fill="white"><title>2020-07-07: 0</title></circle>
	<circle cx="250.49" cy="372.13" data-y="0.19" data-x="1594166400" r="1" fill="white"><title>2020-07-08: 0</title></circle>
	<circle cx="251.98" cy="372.13" data-y="0.19" data-x="1594252800" r="1" fill="white"><title>2020-07-09: 0</title></circle>
	<circle cx="253.47" cy="370.69" data-y="0.28" data-x="1594339200" r="1" fill="white"><title>2020-07-10: 0</title></circle>
	<circle cx="254.97" cy="366.38" data-y="0.56" data-x="1594425600" r="1" fill="white"><title>2020-07-11: 1</title></circle>
	<circle cx="256.46" cy="363.50" data-y="0.75" data-x="1594512000" r="1" fill="white"><title>2020-07-12: 1</title></circle>
	<circle cx="257.95" cy="362.07" data-y="0.85" data-x="1594598400" r="1" fill="white"><title>2020-07-13: 1</title></circle>
	<circle cx="259.45" cy="362.07" data-y="0.85" data-x="1594684800" r="1" fill="white"><title>2020-07-14: 1</title></circle>
	<circle cx="260.94" cy="362.07" data-y="0.85" data-x="1594771200" r="1" fill="white"><title>2020-07-15: 1</title></circle>
	<circle cx="262.43" cy="362.07" data-y="0.85" data-x="1594857600" r="1" fill="white"><title>2020-07-16: 1</title></circle>
	<circle cx="263.93" cy="362.07" data-y="0.85" data-x="1594944000" r="1" fill="white"><title>2020-07-17: 1</title></circle>
	<circle cx="265.42" cy="364.94" data-y="0.66" data-x="1595030400" r="1" fill="white"><title>2020-07-18: 1</title></circle>
	<circle cx="266.91" cy="367.81" data-y="0.47" data-x="1595116800" r="1" fill="white"><title>2020-07-19: 0</title></circle>
	<circle cx="268.41" cy="367.81" data-y="0.47" data-x="1595203200" r="1" fill="white"><title>2020-07-20: 0</title></circle>
	<circle cx="269.90" cy="367.81" data-y="0.47" data-x="1595289600" r="1" fill="white"><title>2020-07-21: 0</title></circle>
	<circle cx="271.39" cy="369.25" data-y="0.38" data-x="1595376000" r="1" fill="white"><title>2020-07-22: 0</title></circle>
	<circle cx="272.89" cy="366.38" data-y="0.56" data-x="1595462400" r="1" fill="white"><title>2020-07-23: 1</title></circle>
	<circle cx="274.38" cy="364.94" data-y="0.66" data-x="1595548800" r="1" fill="white"><title>2020-07-24: 1</title></circle>
	<circle cx="275.87" cy="366.38" data-y="0.56" data-x="1595635200" r="1" fill="white"><title>2020-07-25: 1</title></circle>
	<circle cx="277.37" cy="366.38" data-y="0.56" data-x="1595721600" r="1" fill="white"><title>2020-07-26: 1</title></circle>
	<circle cx="278.86" cy="364.94" data-y="0.66" data-x="1595808000" r="1" fill="white"><title>2020-07-27: 1</title></circle>
	<circle cx="280.35" cy="363.50" data-y="0.75" data-x="1595894400" r="1" fill="white"><title>2020-07-28: 1</title></circle>
	<circle cx="281.85" cy="363.50" data-y="0.75" data-x="1595980800" r="1" fill="white"><title>2020-07-29: 1</title></circle>
	<circle cx="283.34" cy="364.94" data-y="0.66" data-x="1596067200" r="1" fill="white"><title>2020-07-30: 1</title></circle>
	<circle cx="284.83" cy="367.81" data-y="0.47" data-x="1596153600" r="1" fill="white"><title>2020-07-31: 0</title></circle>
	<circle cx="286.33" cy="367.81" data-y="0.47" data-x="1596240000" r="1" fill="white"><title>2020-08-01: 0</title></circle>
	<circle cx="287.82" cy="367.81" data-y="0.47" data-x="1596326400" r="1" fill="white"><title>2020-08-02: 0</title></circle>
	<circle cx="289.31" cy="369.25" data-y="0.38" data-x="1596412800" r="1" fill="white"><title>2020-08-03: 0</title></circle>
	<circle cx="290.81" cy="364.94" data-y="0.66" data-x="1596499200" r="1" fill="white"><title>2020-08-04: 1</title></circle>
	<circle cx="292.30" cy="364.94" data-y="0.66" data-x="1596585600" r="1" fill="white"><title>2020-08-05: 1</title></circle>
	<circle cx="293.79" cy="364.94" data-y="0.66" data-x="1596672000" r="1" fill="white"><title>2020-08-06: 1</title></circle>
	<circle cx="295.29" cy="359.19" data-y="1.04" data-x="1596758400" r="1" fill="white"><title>2020-08-07: 1</title></circle>
	<circle cx="296.78" cy="359.19" data-y="1.04" data-x="1596844800" r="1" fill="white"><title>2020-08-08: 1</title></circle>
	<circle cx="298.27" cy="357.76" data-y="1.13" data-x="1596931200" r="1" fill="white"><title>2020-08-09: 1</title></circle>
	<circle cx="299.77" cy="356.32" data-y="1.22" data-x="1597017600" r="1" fill="white"><title>2020-08-10: 1</title></circle>
	<circle cx="301.26" cy="360.63" data-y="0.94" data-x="1597104000" r="1" fill="white"><title>2020-08-11: 1</title></circle>
	<circle cx="302.75" cy="359.19" data-y="1.04" data-x="1597190400" r="1" fill="white"><title>2020-08-12: 1</title></circle>
	<circle cx="304.24" cy="359.19" data-y="1.04" data-x="1597276800" r="1" fill="white"><title>2020-08-13: 1</title></circle>
	<circle cx="305.74" cy="363.50" data-y="0.75" data-x="1597363200" r="1" fill="white"><title>2020-08-14: 1</title></circle>
	<circle cx="307.23" cy="360.63" data-y="0.94" data-x="1597449600" r="1" fill="white"><title>2020-08-15: 1</title></circle>
	<circle cx="308.72" cy="362.07" data-y="0.85" data-x="1597536000" r="1" fill="white"><title>2020-08-16: 1</title></circle>
	<circle cx="310.22" cy="359.19" data-y="1.04" data-x="1597622400" r="1" fill="white"><title>2020-08-17: 1</title></circle>
	<circle cx="311.71" cy="354.88" data-y="1.32" data-x="1597708800" r="1" fill="white"><title>2020-08-18: 1</title></circle>
	<circle cx="313.20" cy="354.88" data-y="1.32" data-x="1597795200" r="1" fill="white"><title>2020-08-19: 1</title></circle>
	<circle cx="314.70" cy="354.88" data-y="1.32" data-x="1597881600" r="1" fill="white"><title>2020-08-20: 1</title></circle>
	<circle cx="316.19" cy="353.44" data-y="1.41" data-x="1597968000" r="1" fill="white"><title>2020-08-21: 1</title></circle>
	<circle cx="317.68" cy="356.32" data-y="1.22" data-x="1598054400" r="1" fill="white"><title>2020-08-22: 1</title></circle>
	<circle cx="319.18" cy="352.01" data-y="1.51" data-x="1598140800" r="1" fill="white"><title>2020-08-23: 2</title></circle>
	<circle cx="320.67" cy="359.19" data-y="1.04" data-x="1598227200" r="1" fill="white"><title>2020-08-24: 1</title></circle>
	<circle cx="322.16" cy="364.94" data-y="0.66" data-x="1598313600" r="1" fill="white"><title>2020-08-25: 1</title></circle>
	<circle cx="323.66" cy="366.38" data-y="0.56" data-x="1598400000" r="1" fill="white"><title>2020-08-26: 1</title></circle>
	<circle cx="325.15" cy="364.94" data-y="0.66" data-x="1598486400" r="1" fill="white"><title>2020-08-27: 1</title></circle>
	<circle cx="326.64" cy="363.50" data-y="0.75" data-x="1598572800" r="1" fill="white"><title>2020-08-28: 1</title></circle>
	<circle cx="328.14" cy="360.63" data-y="0.94" data-x="1598659200" r="1" fill="white"><title>2020-08-29: 1</title></circle>
	<circle cx="329.63" cy="364.94" data-y="0.66" data-x="1598745600" r="1" fill="white"><title>2020-08-30: 1</title></circle>
	<circle cx="331.12" cy="364.94" data-y="0.66" data-x="1598832000" r="1" fill="white"><title>2020-08-31: 1</title></circle>
	<circle cx="332.62" cy="359.19" data-y="1.04" data-x="1598918400" r="1" fill="white"><title>2020-09-01: 1</title></circle>
	<circle cx="334.11" cy="353.44" data-y="1.41" data-x="1599004800" r="1" fill="white"><title>2020-09-02: 1</title></circle>
	<circle cx="335.60" cy="353.44" data-y="1.41" data-x="1599091200" r="1" fill="white"><title>2020-09-03: 1</title></circle>
	<circle cx="337.10" cy="354.88" data-y="1.32" data-x="1599177600" r="1" fill="white"><title>2020-09-04: 1</title></circle>
	<circle cx="338.59" cy="353.44" data-y="1.41" data-x="1599264000" r="1" fill="white"><title>2020-09-05: 1</title></circle>
	<circle cx="340.08" cy="349.13" data-y="1.69" data-x="1599350400" r="1" fill="white"><title>2020-09-06: 2</title></circle>
	<circle cx="341.58" cy="341.95" data-y="2.17" data-x="1599436800" r="1" fill="white"><title>2020-09-07: 2</title></circle>
	<circle cx="343.07" cy="340.51" data-y="2.26" data-x="1599523200" r="1" fill="white"><title>2020-09-08: 2</title></circle>
	<circle cx="344.56" cy="340.51" data-y="2.26" data-x="1599609600" r="1" fill="white"><title>2020-09-09: 2</title></circle>
	<circle cx="346.06" cy="341.95" data-y="2.17" data-x="1599696000" r="1" fill="white"><title>2020-09-10: 2</title></circle>
	<circle cx="347.55" cy="336.20" data-y="2.54" data-x="1599782400" r="1" fill="white"><title>2020-09-11: 3</title></circle>
	<circle cx="349.04" cy="331.89" data-y="2.82" data-x="1599868800" r="1" fill="white"><title>2020-09-12: 3</title></circle>
	<circle cx="350.54" cy="330.45" data-y="2.92" data-x="1599955200" r="1" fill="white"><title>2020-09-13: 3</title></circle>
	<circle cx="352.03" cy="331.89" data-y="2.82" data-x="1600041600" r="1" fill="white"><title>2020-09-14: 3</title></circle>
	<circle cx="353.52" cy="336.20" data-y="2.54" data-x="1600128000" r="1" fill="white"><title>2020-09-15: 3</title></circle>
	<circle cx="355.02" cy="334.76" data-y="2.64" data-x="1600214400" r="1" fill="white"><title>2020-09-16: 3</title></circle>
	<circle cx="356.51" cy="333.33" data-y="2.73" data-x="1600300800" r="1" fill="white"><title>2020-09-17: 3</title></circle>
	<circle cx="358.00" cy="337.64" data-y="2.45" data-x="1600387200" r="1" fill="white"><title>2020-09-18: 2</title></circle>
	<circle cx="359.50" cy="343.39" data-y="2.07" data-x="1600473600" r="1" fill="white"><title>2020-09-19: 2</title></circle>
	<circle cx="360.99" cy="341.95" data-y="2.17" data-x="1600560000" r="1" fill="white"><title>2020-09-20: 2</title></circle>
	<circle cx="362.48" cy="344.82" data-y="1.98" data-x="1600646400" r="1" fill="white"><title>2020-09-21: 2</title></circle>
	<circle cx="363.98" cy="344.82" data-y="1.98" data-x="1600732800" r="1" fill="white"><title>2020-09-22: 2</title></circle>
	<circle cx="365.47" cy="349.13" data-y="1.69" data-x="1600819200" r="1" fill="white"><title>2020-09-23: 2</title></circle>
	<circle cx="366.96" cy="347.70" data-y="1.79" data-x="1600905600" r="1" fill="white"><title>2020-09-24: 2</title></circle>
	<circle cx="368.46" cy="346.26" data-y="1.88" data-x="1600992000" r="1" fill="white"><title>2020-09-25: 2</title></circle>
	<circle cx="369.95" cy="341.95" data-y="2.17" data-x="1601078400" r="1" fill="white"><title>2020-09-26: 2</title></circle>
	<circle cx="371.44" cy="330.45" data-y="2.92" data-x="1601164800" r="1" fill="white"><title>2020-09-27: 3</title></circle>
	<circle cx="372.94" cy="323.27" data-y="3.39" data-x="1601251200" r="1" fill="white"><title>2020-09-28: 3</title></circle>
	<circle cx="374.43" cy="308.90" data-y="4.33" data-x="1601337600" r="1" fill="white"><title>2020-09-29: 4</title></circle>
	<circle cx="375.92" cy="300.28" data-y="4.90" data-x="1601424000" r="1" fill="white"><title>2020-09-30: 5</title></circle>
	<circle cx="377.42" cy="285.91" data-y="5.84" data-x="1601510400" r="1" fill="white"><title>2020-10-01: 6</title></circle>
	<circle cx="378.91" cy="278.72" data-y="6.31" data-x="1601596800" r="1" fill="white"><title>2020-10-02: 6</title></circle>
	<circle cx="380.40" cy="261.48" data-y="7.44" data-x="1601683200" r="1" fill="white"><title>2020-10-03: 7</title></circle>
	<circle cx="381.90" cy="265.79" data-y="7.16" data-x="1601769600" r="1" fill="white"><title>2020-10-04: 7</title></circle>
	<circle cx="383.39" cy="249.98" data-y="8.19" data-x="1601856000" r="1" fill="white"><title>2020-10-05: 8</title></circle>
	<circle cx="384.88" cy="228.43" data-y="9.60" data-x="1601942400" r="1" fill="white"><title>2020-10-06: 10</title></circle>
	<circle cx="386.38" cy="228.43" data-y="9.60" data-x="1602028800" r="1" fill="white"><title>2020-10-07: 10</title></circle>
	<circle cx="387.87" cy="232.74" data-y="9.32" data-x="1602115200" r="1" fill="white"><title>2020-10-08: 9</title></circle>
	<circle cx="389.36" cy="218.37" data-y="10.26" data-x="1602201600" r="1" fill="white"><title>2020-10-09: 10</title></circle>
	<circle cx="390.86" cy="215.49" data-y="10.45" data-x="1602288000" r="1" fill="white"><title>2020-10-10: 10</title></circle>
	<circle cx="392.35" cy="206.87" data-y="11.02" data-x="1602374400" r="1" fill="white"><title>2020-10-11: 11</title></circle>
	<circle cx="393.84" cy="211.18" data-y="10.73" data-x="1602460800" r="1" fill="white"><title>2020-10-12: 11</title></circle>
	<circle cx="395.34" cy="229.86" data-y="9.51" data-x="1602547200" r="1" fill="white"><title>2020-10-13: 10</title></circle>
	<circle cx="396.83" cy="224.11" data-y="9.89" data-x="1602633600" r="1" fill="white"><title>2020-10-14: 10</title></circle>
	<circle cx="398.32" cy="224.11" data-y="9.89" data-x="1602720000" r="1" fill="white"><title>2020-10-15: 10</title></circle>
	<circle cx="399.82" cy="211.18" data-y="10.73" data-x="1602806400" r="1" fill="white"><title>2020-10-16: 11</title></circle>
	<circle cx="401.31" cy="168.07" data-y="13.56" data-x="1602892800" r="1" fill="white"><title>2020-10-17: 14</title></circle>
	<circle cx="402.80" cy="123.52" data-y="16.48" data-x="1602979200" r="1" fill="white"><title>2020-10-18: 16</title></circle>
	<circle cx="404.30" cy="96.22" data-y="18.27" data-x="1603065600" r="1" fill="white"><title>2020-10-19: 18</title></circle>
	<circle cx="405.79" cy="73.23" data-y="19.77" data-x="1603152000" r="1" fill="white"><title>2020-10-20: 20</title></circle>
	<circle cx="407.28" cy="57.42" data-y="20.81" data-x="1603238400" r="1" fill="white"><title>2020-10-21: 21</title></circle>
	<circle cx="408.78" cy="47.36" data-y="21.47" data-x="1603324800" r="1" fill="white"><title>2020-10-22: 21</title></circle>
	<circle cx="410.27" cy="38.74" data-y="22.03" data-x="1603411200" r="1" fill="white"><title>2020-10-23: 22</title></circle>
	<circle cx="411.76" cy="68.92" data-y="20.06" data-x="1603497600" r="1" fill="white"><title>2020-10-24: 20</title></circle>
	<circle cx="413.26" cy="91.91" data-y="18.55" data-x="1603584000" r="1" fill="white"><title>2020-10-25: 19</title></circle>
	<circle cx="414.75" cy="83.29" data-y="19.11" data-x="1603670400" r="1" fill="white"><title>2020-10-26: 19</title></circle>
	<circle cx="416.24" cy="63.17" data-y="20.43" data-x="1603756800" r="1" fill="white"><title>2020-10-27: 20</title></circle>
	<circle cx="417.73" cy="55.98" data-y="20.90" data-x="1603843200" r="1" fill="white"><title>2020-10-28: 21</title></circle>
	<circle cx="419.23" cy="54.55" data-y="21.00" data-x="1603929600" r="1" fill="white"><title>2020-10-29: 21</title></circle>
	<circle cx="420.72" cy="54.55" data-y="21.00" data-x="1604016000" r="1" fill="white"><title>2020-10-30: 21</title></circle>
	<circle cx="422.21" cy="41.61" data-y="21.84" data-x="1604102400" r="1" fill="white"><title>2020-10-31: 22</title></circle>
	<circle cx="423.71" cy="32.99" data-y="22.41" data-x="1604188800" r="1" fill="white"><title>2020-11-01: 22</title></circle>
	<circle cx="425.20" cy="43.05" data-y="21.75" data-x="1604275200" r="1" fill="white"><title>2020-11-02: 22</title></circle>
	<circle cx="426.69" cy="48.80" data-y="21.37" data-x="1604361600" r="1" fill="white"><title>2020-11-03: 21</title></circle>
	<circle cx="428.19" cy="54.55" data-y="21.00" data-x="1604448000" r="1" fill="white"><title>2020-11-04: 21</title></circle>
	<circle cx="429.68" cy="25.81" data-y="22.88" data-x="1604534400" r="1" fill="white"><title>2020-11-05: 23</title></circle>
	<circle cx="431.17" cy="12.87" data-y="23.73" data-x="1604620800" r="1" fill="white"><title>2020-11-06: 24</title></circle>
	<circle cx="432.67" cy="20.06" data-y="23.26" data-x="1604707200" r="1" fill="white"><title>2020-11-07: 23</title></circle>
	<circle cx="434.16" cy="10.00" data-y="23.92" data-x="1604793600" r="1" fill="white"><title>2020-11-08: 24</title></circle>
	<circle cx="435.65" cy="12.87" data-y="23.73" data-x="1604880000" r="1" fill="white"><title>2020-11-09: 24</title></circle>
	<circle cx="437.15" cy="25.81" data-y="22.88" data-x="1604966400" r="1" fill="white"><title>2020-11-10: 23</title></circle>
	<circle cx="438.64" cy="24.37" data-y="22.97" data-x="1605052800" r="1" fill="white"><title>2020-11-11: 23</title></circle>
	<circle cx="440.13" cy="54.55" data-y="21.00" data-x="1605139200" r="1" fill="white"><title>2020-11-12: 21</title></circle>
	<circle cx="441.63" cy="77.54" data-y="19.49" data-x="1605225600" r="1" fill="white"><title>2020-11-13: 19</title></circle>
	<circle cx="443.12" cy="100.53" data-y="17.98" data-x="1605312000" r="1" fill="white"><title>2020-11-14: 18</title></circle>
	<circle cx="444.61" cy="135.02" data-y="15.72" data-x="1605398400" r="1" fill="white"><title>2020-11-15: 16</title></circle>
	<circle cx="446.11" cy="140.77" data-y="15.35" data-x="1605484800" r="1" fill="white"><title>2020-11-16: 15</title></circle>
	<circle cx="447.60" cy="160.89" data-y="14.03" data-x="1605571200" r="1" fill="white"><title>2020-11-17: 14</title></circle>
	<circle cx="449.09" cy="169.51" data-y="13.46" data-x="1605657600" r="1" fill="white"><title>2020-11-18: 13</title></circle>
	<circle cx="450.59" cy="165.20" data-y="13.75" data-x="1605744000" r="1" fill="white"><title>2020-11-19: 14</title></circle>
	<circle cx="452.08" cy="162.32" data-y="13.94" data-x="1605830400" r="1" fill="white"><title>2020-11-20: 14</title></circle>
	<circle cx="453.57" cy="160.89" data-y="14.03" data-x="1605916800" r="1" fill="white"><title>2020-11-21: 14</title></circle>
	<circle cx="455.07" cy="166.63" data-y="13.65" data-x="1606003200" r="1" fill="white"><title>2020-11-22: 14</title></circle>
	<circle cx="456.56" cy="192.50" data-y="11.96" data-x="1606089600" r="1" fill="white"><title>2020-11-23: 12</title></circle>
	<circle cx="458.05" cy="186.75" data-y="12.33" data-x="1606176000" r="1" fill="white"><title>2020-11-24: 12</title></circle>
	<circle cx="459.55" cy="195.37" data-y="11.77" data-x="1606262400" r="1" fill="white"><title>2020-11-25: 12</title></circle>
	<circle cx="461.04" cy="208.31" data-y="10.92" data-x="1606348800" r="1" fill="white"><title>2020-11-26: 11</title></circle>
	<circle cx="462.53" cy="219.80" data-y="10.17" data-x="1606435200" r="1" fill="white"><title>2020-11-27: 10</title></circle>
</g>
<g data-series="recent-cases" class="data-series">
	<path d="M 462.53,219.80L 464.03,231.30L 465.52,249.98L 467.01,244.23L 468.51,260.33L 470.00,264.35" id="Recent cases" class="line" stroke-width="1" stroke-linecap="round" stroke-dasharray="4,6" stroke-dashoffset="4"><title>Recent cases</title></path>
	<circle cx="462.53" cy="219.80" data-y="10.17" data-x="1606435200" r="2.5" fill="white"><title>2020-11-27: 10</title></circle>
	<circle cx="464.03" cy="231.30" data-y="9.42" data-x="1606521600" r="2.5" fill="white"><title>2020-11-28: 9</title></circle>
	<circle cx="465.52" cy="249.98" data-y="8.19" data-x="1606608000" r="2.5" fill="white"><title>2020-11-29: 8</title></circle>
	<circle cx="467.01" cy="244.23" data-y="8.57" data-x="1606694400" r="2.5" fill="white"><title>2020-11-30: 9</title></circle>
	<circle cx="468.51" cy="260.33" data-y="7.51" data-x="1606780800" r="2.5" fill="white"><title>2020-12-01: 8</title></circle>
	<circle cx="470.00" cy="264.35" data-y="7.25" data-x="1606867200" r="2.5" fill="white"><title>2020-12-02: 7</title></circle>
</g>
</svg>
