<svg width="480" height="400" viewBox="0 0 480 400" xmlns="http://www.w3.org/2000/svg" style="overflow:display" preserveAspectRatio="xMinYMin meet" overflow="visible">
<defs>
	<style>
	.data-series path.line { fill-opacity: 0; stroke: black; }
	.data-series path.line.dotted { stroke-dasharray: 12 20 }
	.data-series:hover path.line, .data-series.on path.line { stroke-width: 1; }
	.data-series:hover circle, .data-series.on circle { display: inline; }
	.graph-grid { font-family: "Helvetica Neue",Helvetica,Arial,"Lucida Grande",sans-serif; }
	.graph-grid line { stroke: black; stroke-width: 1; stroke-linecap: round; }
	.graph-grid.graph-grid-x text { text-anchor: middle; dominant-baseline: hanging; transform: translateY(10px); }
	.graph-grid.graph-grid-y text { text-anchor: end; dominant-baseline: middle; transform: translateX(-10px); }
	</style>
</defs>
<g class="graph-grid graph-grid-y">
	<line x1="25.00" y1="375.00" x2="470.00" y2="375.00" data-left="25"></line>
	<text x="35" y="375" text-anchor="end">0</text>
	<text x="35" y="263.108684881603" text-anchor="end">20</text>
	<text x="35" y="151.217369763206" text-anchor="end">40</text>
	<text x="35" y="39.3260546448087" text-anchor="end">60</text>
	<text style="text-anchor:middle;dominant-baseline:hanging;font-weight:bold;transform: translateY(192.5px) rotate(-90deg);"></text>
</g>
<g class="graph-grid graph-grid-x">
	<line class="tick" x1="64.06" y1="375.00" x2="64.06" y2="380.00"></line>
	<text x="64.0648854961832" y="375" text-anchor="middle">A</text>
	<line class="tick" x1="115.02" y1="375.00" x2="115.02" y2="380.00"></line>
	<text x="115.019083969466" y="375" text-anchor="middle">M</text>
	<line class="tick" x1="167.67" y1="375.00" x2="167.67" y2="380.00"></line>
	<text x="167.671755725191" y="375" text-anchor="middle">J</text>
	<line class="tick" x1="218.63" y1="375.00" x2="218.63" y2="380.00"></line>
	<text x="218.625954198473" y="375" text-anchor="middle">J</text>
	<line class="tick" x1="271.28" y1="375.00" x2="271.28" y2="380.00"></line>
	<text x="271.278625954198" y="375" text-anchor="middle">A</text>
	<line class="tick" x1="323.93" y1="375.00" x2="323.93" y2="380.00"></line>
	<text x="323.931297709924" y="375" text-anchor="middle">S</text>
	<line class="tick" x1="374.89" y1="375.00" x2="374.89" y2="380.00"></line>
	<text x="374.885496183206" y="375" text-anchor="middle">O</text>
	<line class="tick" x1="427.54" y1="375.00" x2="427.54" y2="380.00"></line>
	<text x="427.538167938931" y="375" text-anchor="middle">N</text>
	<text style="text-anchor:middle;dominant-baseline:hanging;font-weight:bold;transform: translateY(192.5px) rotate(-90deg);"></text>
</g>
<g data-series="widespread" class="data-series">
	<path d="M 25.00,335.84L 470.00,335.84" id="E07000193-level-0" class="line" stroke-width="1" stroke-linecap="round" stroke-dasharray="3,3" fill-opacity="0.3" opacity="0.3"><title>Widespread</title></path>
</g>
<g data-series="substantial" class="data-series">
	<path d="M 25.00,352.62L 470.00,352.62" id="E07000193-level-1" class="line" stroke-width="1" stroke-linecap="round" stroke-dasharray="3,3" fill-opacity="0.3" opacity="0.3"><title>Substantial</title></path>
</g>
<g data-series="moderate" class="data-series">
	<path d="M 25.00,369.41L 470.00,369.41" id="E07000193-level-2" class="line" stroke-width="1" stroke-linecap="round" stroke-dasharray="3,3" fill-opacity="0.3" opacity="0.3"><title>Moderate</title></path>
</g>
<g data-series="new-cases" class="data-series">
	<path d="M 25.00,370.35L 26.70,371.28L 28.40,371.90L 30.10,370.35L 31.79,369.68L 33.49,369.02L 35.19,367.69L 36.89,368.35L 38.59,367.69L 40.29,365.69L 41.98,365.03L 43.68,363.70L 45.38,361.70L 47.08,359.71L 48.78,357.71L 50.48,357.05L 52.18,355.72L 53.87,353.72L 55.57,351.07L 57.27,350.40L 58.97,350.40L 60.67,351.07L 62.37,346.41L 64.06,339.76L 65.76,343.09L 67.46,348.41L 69.16,342.42L 70.86,339.76L 72.56,340.43L 74.26,341.09L 75.95,346.41L 77.65,344.42L 79.35,341.09L 81.05,345.08L 82.75,343.09L 84.45,340.43L 86.15,339.76L 87.84,337.77L 89.54,333.78L 91.24,333.78L 92.94,329.79L 94.64,327.80L 96.34,322.48L 98.03,313.83L 99.73,314.50L 101.43,315.83L 103.13,313.17L 104.83,317.82L 106.53,321.15L 108.23,326.47L 109.92,327.13L 111.62,325.80L 113.32,327.80L 115.02,329.79L 116.72,329.79L 118.42,332.45L 120.11,333.78L 121.81,343.09L 123.51,349.74L 125.21,352.40L 126.91,353.72L 128.61,355.72L 130.31,359.71L 132.00,361.04L 133.70,363.70L 135.40,363.70L 137.10,363.03L 138.80,361.70L 140.50,361.70L 142.19,354.39L 143.89,353.06L 145.59,353.72L 147.29,350.40L 148.99,349.74L 150.69,351.73L 152.39,349.74L 154.08,355.05L 155.78,357.05L 157.48,355.72L 159.18,357.71L 160.88,358.38L 162.58,358.38L 164.27,361.70L 165.97,361.70L 167.67,361.70L 169.37,361.70L 171.07,363.70L 172.77,365.03L 174.47,364.36L 176.16,365.69L 177.86,363.03L 179.56,363.70L 181.26,366.36L 182.96,364.36L 184.66,363.70L 186.35,365.69L 188.05,363.03L 189.75,366.36L 191.45,365.03L 193.15,362.37L 194.85,363.70L 196.55,365.03L 198.24,364.36L 199.94,365.69L 201.64,366.36L 203.34,367.02L 205.04,369.02L 206.74,367.69L 208.44,367.69L 210.13,367.02L 211.83,368.35L 213.53,366.36L 215.23,367.69L 216.93,368.35L 218.63,369.68L 220.32,369.02L 222.02,369.02L 223.72,361.04L 225.42,361.04L 227.12,354.39L 228.82,352.40L 230.52,352.40L 232.21,351.73L 233.91,351.73L 235.61,358.38L 237.31,354.39L 239.01,360.37L 240.71,361.04L 242.40,360.37L 244.10,361.70L 245.80,361.04L 247.50,361.70L 249.20,368.35L 250.90,368.35L 252.60,368.35L 254.29,369.68L 255.99,369.02L 257.69,370.35L 259.39,367.02L 261.09,366.36L 262.79,367.02L 264.48,367.69L 266.18,365.69L 267.88,366.36L 269.58,366.36L 271.28,369.68L 272.98,368.35L 274.68,368.35L 276.37,368.35L 278.07,369.68L 279.77,369.02L 281.47,369.68L 283.17,367.02L 284.87,367.02L 286.56,364.36L 288.26,359.71L 289.96,359.71L 291.66,359.71L 293.36,357.05L 295.06,359.04L 296.76,361.04L 298.45,363.03L 300.15,367.02L 301.85,367.69L 303.55,368.35L 305.25,371.68L 306.95,371.68L 308.65,367.69L 310.34,367.69L 312.04,363.03L 313.74,359.71L 315.44,356.38L 317.14,355.72L 318.84,353.06L 320.53,351.73L 322.23,349.07L 323.93,348.41L 325.63,343.75L 327.33,345.75L 329.03,345.08L 330.73,347.08L 332.42,345.75L 334.12,345.75L 335.82,349.07L 337.52,355.72L 339.22,355.72L 340.92,352.40L 342.61,353.72L 344.31,356.38L 346.01,357.05L 347.71,356.38L 349.41,355.05L 351.11,353.06L 352.81,357.05L 354.50,356.38L 356.20,357.05L 357.90,351.73L 359.60,352.40L 361.30,351.07L 363.00,352.40L 364.69,347.74L 366.39,347.08L 368.09,345.08L 369.79,345.75L 371.49,345.75L 373.19,345.08L 374.89,345.75L 376.58,337.10L 378.28,325.80L 379.98,314.50L 381.68,309.18L 383.38,298.54L 385.08,298.54L 386.77,286.58L 388.47,287.24L 390.17,289.90L 391.87,284.58L 393.57,275.94L 395.27,278.60L 396.97,274.61L 398.66,272.61L 400.36,248.01L 402.06,227.40L 403.76,223.42L 405.46,212.78L 407.16,196.82L 408.85,182.19L 410.55,168.90L 412.25,158.26L 413.95,158.26L 415.65,156.27L 417.35,142.97L 419.05,125.68L 420.74,114.38L 422.44,119.03L 424.14,108.40L 425.84,95.10L 427.54,66.51L 429.24,73.83L 430.94,68.51L 432.63,71.17L 434.33,51.89L 436.03,42.58L 437.73,29.95L 439.43,35.93L 441.13,25.29L 442.82,22.63L 444.52,10.00L 446.22,15.32L 447.92,22.63L 449.62,27.95L 451.32,33.27L 453.02,45.24L 454.71,57.20L 456.41,73.16L 458.11,90.45L 459.81,116.38L 461.51,142.30" id="New cases" class="line" stroke-width="1" stroke-linecap="round"><title>New cases</title></path>
	<circle cx="25.00" cy="370.35" data-y="0.83" data-x="1583712000" r="1" fill="white"><title>2020-03-09: 1</title></circle>
	<circle cx="26.70" cy="371.28" data-y="0.67" data-x="1583798400" r="1" fill="white"><title>2020-03-10: 1</title></circle>
	<circle cx="28.40" cy="371.90" data-y="0.55" data-x="1583884800" r="1" fill="white"><title>2020-03-11: 1</title></circle>
	<circle cx="30.10" cy="370.35" data-y="0.83" data-x="1583971200" r="1" fill="white"><title>2020-03-12: 1</title></circle>
	<circle cx="31.79" cy="369.68" data-y="0.95" data-x="1584057600" r="1" fill="white"><title>2020-03-13: 1</title></circle>
	<circle cx="33.49" cy="369.02" data-y="1.07" data-x="1584144000" r="1" fill="white"><title>2020-03-14: 1</title></circle>
	<circle cx="35.19" cy="367.69" data-y="1.31" data-x="1584230400" r="1" fill="white"><title>2020-03-15: 1</title></circle>
	<circle cx="36.89" cy="368.35" data-y="1.19" data-x="1584316800" r="1" fill="white"><title>2020-03-16: 1</title></circle>
	<circle cx="38.59" cy="367.69" data-y="1.31" data-x="1584403200" r="1" fill="white"><title>2020-03-17: 1</title></circle>
	<circle cx="40.29" cy="365.69" data-y="1.66" data-x="1584489600" r="1" fill="white"><title>2020-03-18: 2</title></circle>
	<circle cx="41.98" cy="365.03" data-y="1.78" data-x="1584576000" r="1" fill="white"><title>2020-03-19: 2</title></circle>
	<circle cx="43.68" cy="363.70" data-y="2.02" data-x="1584662400" r="1" fill="white"><title>2020-03-20: 2</title></circle>
	<circle cx="45.38" cy="361.70" data-y="2.38" data-x="1584748800" r="1" fill="white"><title>2020-03-21: 2</title></circle>
	<circle cx="47.08" cy="359.71" data-y="2.73" data-x="1584835200" r="1" fill="white"><title>2020-03-22: 3</title></circle>
	<circle cx="48.78" cy="357.71" data-y="3.09" data-x="1584921600" r="1" fill="white"><title>2020-03-23: 3</title></circle>
	<circle cx="50.48" cy="357.05" data-y="3.21" data-x="1585008000" r="1" fill="white"><title>2020-03-24: 3</title></circle>
	<circle cx="52.18" cy="355.72" data-y="3.45" data-x="1585094400" r="1" fill="white"><title>2020-03-25: 3</title></circle>
	<circle cx="53.87" cy="353.72" data-y="3.80" data-x="1585180800" r="1" fill="white"><title>2020-03-26: 4</title></circle>
	<circle cx="55.57" cy="351.07" data-y="4.28" data-x="1585267200" r="1" fill="white"><title>2020-03-27: 4</title></circle>
	<circle cx="57.27" cy="350.40" data-y="4.40" data-x="1585353600" r="1" fill="white"><title>2020-03-28: 4</title></circle>
	<circle cx="58.97" cy="350.40" data-y="4.40" data-x="1585440000" r="1" fill="white"><title>2020-03-29: 4</title></circle>
	<circle cx="60.67" cy="351.07" data-y="4.28" data-x="1585526400" r="1" fill="white"><title>2020-03-30: 4</title></circle>
	<circle cx="62.37" cy="346.41" data-y="5.11" data-x="1585612800" r="1" fill="white"><title>2020-03-31: 5</title></circle>
	<circle cx="64.06" cy="339.76" data-y="6.30" data-x="1585699200" r="1" fill="white"><title>2020-04-01: 6</title></circle>
	<circle cx="65.76" cy="343.09" data-y="5.70" data-x="1585785600" r="1" fill="white"><title>2020-04-02: 6</title></circle>
	<circle cx="67.46" cy="348.41" data-y="4.75" data-x="1585872000" r="1" fill="white"><title>2020-04-03: 5</title></circle>
	<circle cx="69.16" cy="342.42" data-y="5.82" data-x="1585958400" r="1" fill="white"><title>2020-04-04: 6</title></circle>
	<circle cx="70.86" cy="339.76" data-y="6.30" data-x="1586044800" r="1" fill="white"><title>2020-04-05: 6</title></circle>
	<circle cx="72.56" cy="340.43" data-y="6.18" data-x="1586131200" r="1" fill="white"><title>2020-04-06: 6</title></circle>
	<circle cx="74.26" cy="341.09" data-y="6.06" data-x="1586217600" r="1" fill="white"><title>2020-04-07: 6</title></circle>
	<circle cx="75.95" cy="346.41" data-y="5.11" data-x="1586304000" r="1" fill="white"><title>2020-04-08: 5</title></circle>
	<circle cx="77.65" cy="344.42" data-y="5.47" data-x="1586390400" r="1" fill="white"><title>2020-04-09: 5</title></circle>
	<circle cx="79.35" cy="341.09" data-y="6.06" data-x="1586476800" r="1" fill="white"><title>2020-04-10: 6</title></circle>
	<circle cx="81.05" cy="345.08" data-y="5.35" data-x="1586563200" r="1" fill="white"><title>2020-04-11: 5</title></circle>
	<circle cx="82.75" cy="343.09" data-y="5.70" data-x="1586649600" r="1" fill="white"><title>2020-04-12: 6</title></circle>
	<circle cx="84.45" cy="340.43" data-y="6.18" data-x="1586736000" r="1" fill="white"><title>2020-04-13: 6</title></circle>
	<circle cx="86.15" cy="339.76" data-y="6.30" data-x="1586822400" r="1" fill="white"><title>2020-04-14: 6</title></circle>
	<circle cx="87.84" cy="337.77" data-y="6.65" data-x="1586908800" r="1" fill="white"><title>2020-04-15: 7</title></circle>
	<circle cx="89.54" cy="333.78" data-y="7.37" data-x="1586995200" r="1" fill="white"><title>2020-04-16: 7</title></circle>
	<circle cx="91.24" cy="333.78" data-y="7.37" data-x="1587081600" r="1" fill="white"><title>2020-04-17: 7</title></circle>
	<circle cx="92.94" cy="329.79" data-y="8.08" data-x="1587168000" r="1" fill="white"><title>2020-04-18: 8</title></circle>
	<circle cx="94.64" cy="327.80" data-y="8.44" data-x="1587254400" r="1" fill="white"><title>2020-04-19: 8</title></circle>
	<circle cx="96.34" cy="322.48" data-y="9.39" data-x="1587340800" r="1" fill="white"><title>2020-04-20: 9</title></circle>
	<circle cx="98.03" cy="313.83" data-y="10.93" data-x="1587427200" r="1" fill="white"><title>2020-04-21: 11</title></circle>
	<circle cx="99.73" cy="314.50" data-y="10.81" data-x="1587513600" r="1" fill="white"><title>2020-04-22: 11</title></circle>
	<circle cx="101.43" cy="315.83" data-y="10.58" data-x="1587600000" r="1" fill="white"><title>2020-04-23: 11</title></circle>
	<circle cx="103.13" cy="313.17" data-y="11.05" data-x="1587686400" r="1" fill="white"><title>2020-04-24: 11</title></circle>
	<circle cx="104.83" cy="317.82" data-y="10.22" data-x="1587772800" r="1" fill="white"><title>2020-04-25: 10</title></circle>
	<circle cx="106.53" cy="321.15" data-y="9.63" data-x="1587859200" r="1" fill="white"><title>2020-04-26: 10</title></circle>
	<circle cx="108.23" cy="326.47" data-y="8.68" data-x="1587945600" r="1" fill="white"><title>2020-04-27: 9</title></circle>
	<circle cx="109.92" cy="327.13" data-y="8.56" data-x="1588032000" r="1" fill="white"><title>2020-04-28: 9</title></circle>
	<circle cx="111.62" cy="325.80" data-y="8.79" data-x="1588118400" r="1" fill="white"><title>2020-04-29: 9</title></circle>
	<circle cx="113.32" cy="327.80" data-y="8.44" data-x="1588204800" r="1" fill="white"><title>2020-04-30: 8</title></circle>
	<circle cx="115.02" cy="329.79" data-y="8.08" data-x="1588291200" r="1" fill="white"><title>2020-05-01: 8</title></circle>
	<circle cx="116.72" cy="329.79" data-y="8.08" data-x="1588377600" r="1" fill="white"><title>2020-05-02: 8</title></circle>
	<circle cx="118.42" cy="332.45" data-y="7.61" data-x="1588464000" r="1" fill="white"><title>2020-05-03: 8</title></circle>
	<circle cx="120.11" cy="333.78" data-y="7.37" data-x="1588550400" r="1" fill="white"><title>2020-05-04: 7</title></circle>
	<circle cx="121.81" cy="343.09" data-y="5.70" data-x="1588636800" r="1" fill="white"><title>2020-05-05: 6</title></circle>
	<circle cx="123.51" cy="349.74" data-y="4.52" data-x="1588723200" r="1" fill="white"><title>2020-05-06: 5</title></circle>
	<circle cx="125.21" cy="352.40" data-y="4.04" data-x="1588809600" r="1" fill="white"><title>2020-05-07: 4</title></circle>
	<circle cx="126.91" cy="353.72" data-y="3.80" data-x="1588896000" r="1" fill="white"><title>2020-05-08: 4</title></circle>
	<circle cx="128.61" cy="355.72" data-y="3.45" data-x="1588982400" r="1" fill="white"><title>2020-05-09: 3</title></circle>
	<circle cx="130.31" cy="359.71" data-y="2.73" data-x="1589068800" r="1" fill="white"><title>2020-05-10: 3</title></circle>
	<circle cx="132.00" cy="361.04" data-y="2.50" data-x="1589155200" r="1" fill="white"><title>2020-05-11: 2</title></circle>
	<circle cx="133.70" cy="363.70" data-y="2.02" data-x="1589241600" r="1" fill="white"><title>2020-05-12: 2</title></circle>
	<circle cx="135.40" cy="363.70" data-y="2.02" data-x="1589328000" r="1" fill="white"><title>2020-05-13: 2</title></circle>
	<circle cx="137.10" cy="363.03" data-y="2.14" data-x="1589414400" r="1" fill="white"><title>2020-05-14: 2</title></circle>
	<circle cx="138.80" cy="361.70" data-y="2.38" data-x="1589500800" r="1" fill="white"><title>2020-05-15: 2</title></circle>
	<circle cx="140.50" cy="361.70" data-y="2.38" data-x="1589587200" r="1" fill="white"><title>2020-05-16: 2</title></circle>
	<circle cx="142.19" cy="354.39" data-y="3.68" data-x="1589673600" r="1" fill="white"><title>2020-05-17: 4</title></circle>
	<circle cx="143.89" cy="353.06" data-y="3.92" data-x="1589760000" r="1" fill="white"><title>2020-05-18: 4</title></circle>
	<circle cx="145.59" cy="353.72" data-y="3.80" data-x="1589846400" r="1" fill="white"><title>2020-05-19: 4</title></circle>
	<circle cx="147.29" cy="350.40" data-y="4.40" data-x="1589932800" r="1" fill="white"><title>2020-05-20: 4</title></circle>
	<circle cx="148.99" cy="349.74" data-y="4.52" data-x="1590019200" r="1" fill="white"><title>2020-05-21: 5</title></circle>
	<circle cx="150.69" cy="351.73" data-y="4.16" data-x="1590105600" r="1" fill="white"><title>2020-05-22: 4</title></circle>
	<circle cx="152.39" cy="349.74" data-y="4.52" data-x="1590192000" r="1" fill="white"><title>2020-05-23: 5</title></circle>
	<circle cx="154.08" cy="355.05" data-y="3.57" data-x="1590278400" r="1" fill="white"><title>2020-05-24: 4</title></circle>
	<circle cx="155.78" cy="357.05" data-y="3.21" data-x="1590364800" r="1" fill="white"><title>2020-05-25: 3</title></circle>
	<circle cx="157.48" cy="355.72" data-y="3.45" data-x="1590451200" r="1" fill="white"><title>2020-05-26: 3</title></circle>
	<circle cx="159.18" cy="357.71" data-y="3.09" data-x="1590537600" r="1" fill="white"><title>2020-05-27: 3</title></circle>
	<circle cx="160.88" cy="358.38" data-y="2.97" data-x="1590624000" r="1" fill="white"><title>2020-05-28: 3</title></circle>
	<circle cx="162.58" cy="358.38" data-y="2.97" data-x="1590710400" r="1" fill="white"><title>2020-05-29: 3</title></circle>
	<circle cx="164.27" cy="361.70" data-y="2.38" data-x="1590796800" r="1" fill="white"><title>2020-05-30: 2</title></circle>
	<circle cx="165.97" cy="361.70" data-y="2.38" data-x="1590883200" r="1" fill="white"><title>2020-05-31: 2</title></circle>
	<circle cx="167.67" cy="361.70" data-y="2.38" data-x="1590969600" r="1" fill="white"><title>2020-06-01: 2</title></circle>
	<circle cx="169.37" cy="361.70" data-y="2.38" data-x="1591056000" r="1" fill="white"><title>2020-06-02: 2</title></circle>
	<circle cx="171.07" cy="363.70" data-y="2.02" data-x="1591142400" r="1" fill="white"><title>2020-06-03: 2</title></circle>
	<circle cx="172.77" cy="365.03" data-y="1.78" data-x="1591228800" r="1" fill="white"><title>2020-06-04: 2</title></circle>
	<circle cx="174.47" cy="364.36" data-y="1.90" data-x="1591315200" r="1" fill="white"><title>2020-06-05: 2</title></circle>
	<circle cx="176.16" cy="365.69" data-y="1.66" data-x="1591401600" r="1" fill="white"><title>2020-06-06: 2</title></circle>
	<circle cx="177.86" cy="363.03" data-y="2.14" data-x="1591488000" r="1" fill="white"><title>2020-06-07: 2</title></circle>
	<circle cx="179.56" cy="363.70" data-y="2.02" data-x="1591574400" r="1" fill="white"><title>2020-06-08: 2</title></circle>
	<circle cx="181.26" cy="366.36" data-y="1.54" data-x="1591660800" r="1" fill="white"><title>2020-06-09: 2</title></circle>
	<circle cx="182.96" cy="364.36" data-y="1.90" data-x="1591747200" r="1" fill="white"><title>2020-06-10: 2</title></circle>
	<circle cx="184.66" cy="363.70" data-y="2.02" data-x="1591833600" r="1" fill="white"><title>2020-06-11: 2</title></circle>
	<circle cx="186.35" cy="365.69" data-y="1.66" data-x="1591920000" r="1" fill="white"><title>2020-06-12: 2</title></circle>
	<circle cx="188.05" cy="363.03" data-y="2.14" data-x="1592006400" r="1" fill="white"><title>2020-06-13: 2</title></circle>
	<circle cx="189.75" cy="366.36" data-y="1.54" data-x="1592092800" r="1" fill="white"><title>2020-06-14: 2</title></circle>
	<circle cx="191.45" cy="365.03" data-y="1.78" data-x="1592179200" r="1" fill="white"><title>2020-06-15: 2</title></circle>
	<circle cx="193.15" cy="362.37" data-y="2.26" data-x="1592265600" r="1" fill="white"><title>2020-06-16: 2</title></circle>
	<circle cx="194.85" cy="363.70" data-y="2.02" data-x="1592352000" r="1" fill="white"><title>2020-06-17: 2</title></circle>
	<circle cx="196.55" cy="365.03" data-y="1.78" data-x="1592438400" r="1" fill="white"><title>2020-06-18: 2</title></circle>
	<circle cx="198.24" cy="364.36" data-y="1.90" data-x="1592524800" r="1" fill="white"><title>2020-06-19: 2</title></circle>
	<circle cx="199.94" cy="365.69" data-y="1.66" data-x="1592611200" r="1" fill="white"><title>2020-06-20: 2</title></circle>
	<circle cx="201.64" cy="366.36" data-y="1.54" data-x="1592697600" r="1" fill="white"><title>2020-06-21: 2</title></circle>
	<circle cx="203.34" cy="367.02" data-y="1.43" data-x="1592784000" r="1" fill="white"><title>2020-06-22: 1</title></circle>
	<circle cx="205.04" cy="369.02" data-y="1.07" data-x="1592870400" r="1" fill="white"><title>2020-06-23: 1</title></circle>
	<circle cx="206.74" cy="367.69" data-y="1.31" data-x="1592956800" r="1" fill="white"><title>2020-06-24: 1</title></circle>
	<circle cx="208.44" cy="367.69" data-y="1.31" data-x="1593043200" r="1" fill="white"><title>2020-06-25: 1</title></circle>
	<circle cx="210.13" cy="367.02" data-y="1.43" data-x="1593129600" r="1" fill="white"><title>2020-06-26: 1</title></circle>
	<circle cx="211.83" cy="368.35" data-y="1.19" data-x="1593216000" r="1" fill="white"><title>2020-06-27: 1</title></circle>
	<circle cx="213.53" cy="366.36" data-y="1.54" data-x="1593302400" r="1" fill="white"><title>2020-06-28: 2</title></circle>
	<circle cx="215.23" cy="367.69" data-y="1.31" data-x="1593388800" r="1" fill="white"><title>2020-06-29: 1</title></circle>
	<circle cx="216.93" cy="368.35" data-y="1.19" data-x="1593475200" r="1" fill="white"><title>2020-06-30: 1</title></circle>
	<circle cx="218.63" cy="369.68" data-y="0.95" data-x="1593561600" r="1" fill="white"><title>2020-07-01: 1</title></circle>
	<circle cx="220.32" cy="369.02" data-y="1.07" data-x="1593648000" r="1" fill="white"><title>2020-07-02: 1</title></circle>
	<circle cx="222.02" cy="369.02" data-y="1.07" data-x="1593734400" r="1" fill="white"><title>2020-07-03: 1</title></circle>
	<circle cx="223.72" cy="361.04" data-y="2.50" data-x="1593820800" r="1" fill="white"><title>2020-07-04: 2</title></circle>
	<circle cx="225.42" cy="361.04" data-y="2.50" data-x="1593907200" r="1" fill="white"><title>2020-07-05: 2</title></circle>
	<circle cx="227.12" cy="354.39" data-y="3.68" data-x="1593993600" r="1" fill="white"><title>2020-07-06: 4</title></circle>
	<circle cx="228.82" cy="352.40" data-y="4.04" data-x="1594080000" r="1" fill="white"><title>2020-07-07: 4</title></circle>
	<circle cx="230.52" cy="352.40" data-y="4.04" data-x="1594166400" r="1" fill="white"><title>2020-07-08: 4</title></circle>
	<circle cx="232.21" cy="351.73" data-y="4.16" data-x="1594252800" r="1" fill="white"><title>2020-07-09: 4</title></circle>
	<circle cx="233.91" cy="351.73" data-y="4.16" data-x="1594339200" r="1" fill="white"><title>2020-07-10: 4</title></circle>
	<circle cx="235.61" cy="358.38" data-y="2.97" data-x="1594425600" r="1" fill="white"><title>2020-07-11: 3</title></circle>
	<circle cx="237.31" cy="354.39" data-y="3.68" data-x="1594512000" r="1" fill="white"><title>2020-07-12: 4</title></circle>
	<circle cx="239.01" cy="360.37" data-y="2.61" data-x="1594598400" r="1" fill="white"><title>2020-07-13: 3</title></circle>
	<circle cx="240.71" cy="361.04" data-y="2.50" data-x="1594684800" r="1" fill="white"><title>2020-07-14: 2</title></circle>
	<circle cx="242.40" cy="360.37" data-y="2.61" data-x="1594771200" r="1" fill="white"><title>2020-07-15: 3</title></circle>
	<circle cx="244.10" cy="361.70" data-y="2.38" data-x="1594857600" r="1" fill="white"><title>2020-07-16: 2</title></circle>
	<circle cx="245.80" cy="361.04" data-y="2.50" data-x="1594944000" r="1" fill="white"><title>2020-07-17: 2</title></circle>
	<circle cx="247.50" cy="361.70" data-y="2.38" data-x="1595030400" r="1" fill="white"><title>2020-07-18: 2</title></circle>
	<circle cx="249.20" cy="368.35" data-y="1.19" data-x="1595116800" r="1" fill="white"><title>2020-07-19: 1</title></circle>
	<circle cx="250.90" cy="368.35" data-y="1.19" data-x="1595203200" r="1" fill="white"><title>2020-07-20: 1</title></circle>
	<circle cx="252.60" cy="368.35" data-y="1.19" data-x="1595289600" r="1" fill="white"><title>2020-07-21: 1</title></circle>
	<circle cx="254.29" cy="369.68" data-y="0.95" data-x="1595376000" r="1" fill="white"><title>2020-07-22: 1</title></circle>
	<circle cx="255.99" cy="369.02" data-y="1.07" data-x="1595462400" r="1" fill="white"><title>2020-07-23: 1</title></circle>
	<circle cx="257.69" cy="370.35" data-y="0.83" data-x="1595548800" r="1" fill="white"><title>2020-07-24: 1</title></circle>
	<circle cx="259.39" cy="367.02" data-y="1.43" data-x="1595635200" r="1" fill="white"><title>2020-07-25: 1</title></circle>
	<circle cx="261.09" cy="366.36" data-y="1.54" data-x="1595721600" r="1" fill="white"><title>2020-07-26: 2</title></circle>
	<circle cx="262.79" cy="367.02" data-y="1.43" data-x="1595808000" r="1" fill="white"><title>2020-07-27: 1</title></circle>
	<circle cx="264.48" cy="367.69" data-y="1.31" data-x="1595894400" r="1" fill="white"><title>2020-07-28: 1</title></circle>
	<circle cx="266.18" cy="365.69" data-y="1.66" data-x="1595980800" r="1" fill="white"><title>2020-07-29: 2</title></circle>
	<circle cx="267.88" cy="366.36" data-y="1.54" data-x="1596067200" r="1" fill="white"><title>2020-07-30: 2</title></circle>
	<circle cx="269.58" cy="366.36" data-y="1.54" data-x="1596153600" r="1" fill="white"><title>2020-07-31: 2</title></circle>
	<circle cx="271.28" cy="369.68" data-y="0.95" data-x="1596240000" r="1" fill="white"><title>2020-08-01: 1</title></circle>
	<circle cx="272.98" cy="368.35" data-y="1.19" data-x="1596326400" r="1" fill="white"><title>2020-08-02: 1</title></circle>
	<circle cx="274.68" cy="368.35" data-y="1.19" data-x="1596412800" r="1" fill="white"><title>2020-08-03: 1</title></circle>
	<circle cx="276.37" cy="368.35" data-y="1.19" data-x="1596499200" r="1" fill="white"><title>2020-08-04: 1</title></circle>
	<circle cx="278.07" cy="369.68" data-y="0.95" data-x="1596585600" r="1" fill="white"><title>2020-08-05: 1</title></circle>
	<circle cx="279.77" cy="369.02" data-y="1.07" data-x="1596672000" r="1" fill="white"><title>2020-08-06: 1</title></circle>
	<circle cx="281.47" cy="369.68" data-y="0.95" data-x="1596758400" r="1" fill="white"><title>2020-08-07: 1</title></circle>
	<circle cx="283.17" cy="367.02" data-y="1.43" data-x="1596844800" r="1" fill="white"><title>2020-08-08: 1</title></circle>
	<circle cx="284.87" cy="367.02" data-y="1.43" data-x="1596931200" r="1" fill="white"><title>2020-08-09: 1</title></circle>
	<circle cx="286.56" cy="364.36" data-y="1.90" data-x="1597017600" r="1" fill="white"><title>2020-08-10: 2</title></circle>
	<circle cx="288.26" cy="359.71" data-y="2.73" data-x="1597104000" r="1" fill="white"><title>2020-08-11: 3</title></circle>
	<circle cx="289.96" cy="359.71" data-y="2.73" data-x="1597190400" r="1" fill="white"><title>2020-08-12: 3</title></circle>
	<circle cx="291.66" cy="359.71" data-y="2.73" data-x="1597276800" r="1" fill="white"><title>2020-08-13: 3</title></circle>
	<circle cx="293.36" cy="357.05" data-y="3.21" data-x="1597363200" r="1" fill="white"><title>2020-08-14: 3</title></circle>
	<circle cx="295.06" cy="359.04" data-y="2.85" data-x="1597449600" r="1" fill="white"><title>2020-08-15: 3</title></circle>
	<circle cx="296.76" cy="361.04" data-y="2.50" data-x="1597536000" r="1" fill="white"><title>2020-08-16: 2</title></circle>
	<circle cx="298.45" cy="363.03" data-y="2.14" data-x="1597622400" r="1" fill="white"><title>2020-08-17: 2</title></circle>
	<circle cx="300.15" cy="367.02" data-y="1.43" data-x="1597708800" r="1" fill="white"><title>2020-08-18: 1</title></circle>
	<circle cx="301.85" cy="367.69" data-y="1.31" data-x="1597795200" r="1" fill="white"><title>2020-08-19: 1</title></circle>
	<circle cx="303.55" cy="368.35" data-y="1.19" data-x="1597881600" r="1" fill="white"><title>2020-08-20: 1</title></circle>
	<circle cx="305.25" cy="371.68" data-y="0.59" data-x="1597968000" r="1" fill="white"><title>2020-08-21: 1</title></circle>
	<circle cx="306.95" cy="371.68" data-y="0.59" data-x="1598054400" r="1" fill="white"><title>2020-08-22: 1</title></circle>
	<circle cx="308.65" cy="367.69" data-y="1.31" data-x="1598140800" r="1" fill="white"><title>2020-08-23: 1</title></circle>
	<circle cx="310.34" cy="367.69" data-y="1.31" data-x="1598227200" r="1" fill="white"><title>2020-08-24: 1</title></circle>
	<circle cx="312.04" cy="363.03" data-y="2.14" data-x="1598313600" r="1" fill="white"><title>2020-08-25: 2</title></circle>
	<circle cx="313.74" cy="359.71" data-y="2.73" data-x="1598400000" r="1" fill="white"><title>2020-08-26: 3</title></circle>
	<circle cx="315.44" cy="356.38" data-y="3.33" data-x="1598486400" r="1" fill="white"><title>2020-08-27: 3</title></circle>
	<circle cx="317.14" cy="355.72" data-y="3.45" data-x="1598572800" r="1" fill="white"><title>2020-08-28: 3</title></circle>
	<circle cx="318.84" cy="353.06" data-y="3.92" data-x="1598659200" r="1" fill="white"><title>2020-08-29: 4</title></circle>
	<circle cx="320.53" cy="351.73" data-y="4.16" data-x="1598745600" r="1" fill="white"><title>2020-08-30: 4</title></circle>
	<circle cx="322.23" cy="349.07" data-y="4.63" data-x="1598832000" r="1" fill="white"><title>2020-08-31: 5</title></circle>
	<circle cx="323.93" cy="348.41" data-y="4.75" data-x="1598918400" r="1" fill="white"><title>2020-09-01: 5</title></circle>
	<circle cx="325.63" cy="343.75" data-y="5.59" data-x="1599004800" r="1" fill="white"><title>2020-09-02: 6</title></circle>
	<circle cx="327.33" cy="345.75" data-y="5.23" data-x="1599091200" r="1" fill="white"><title>2020-09-03: 5</title></circle>
	<circle cx="329.03" cy="345.08" data-y="5.35" data-x="1599177600" r="1" fill="white"><title>2020-09-04: 5</title></circle>
	<circle cx="330.73" cy="347.08" data-y="4.99" data-x="1599264000" r="1" fill="white"><title>2020-09-05: 5</title></circle>
	<circle cx="332.42" cy="345.75" data-y="5.23" data-x="1599350400" r="1" fill="white"><title>2020-09-06: 5</title></circle>
	<circle cx="334.12" cy="345.75" data-y="5.23" data-x="1599436800" r="1" fill="white"><title>2020-09-07: 5</title></circle>
	<circle cx="335.82" cy="349.07" data-y="4.63" data-x="1599523200" r="1" fill="white"><title>2020-09-08: 5</title></circle>
	<circle cx="337.52" cy="355.72" data-y="3.45" data-x="1599609600" r="1" fill="white"><title>2020-09-09: 3</title></circle>
	<circle cx="339.22" cy="355.72" data-y="3.45" data-x="1599696000" r="1" fill="white"><title>2020-09-10: 3</title></circle>
	<circle cx="340.92" cy="352.40" data-y="4.04" data-x="1599782400" r="1" fill="white"><title>2020-09-11: 4</title></circle>
	<circle cx="342.61" cy="353.72" data-y="3.80" data-x="1599868800" r="1" fill="white"><title>2020-09-12: 4</title></circle>
	<circle cx="344.31" cy="356.38" data-y="3.33" data-x="1599955200" r="1" fill="white"><title>2020-09-13: 3</title></circle>
	<circle cx="346.01" cy="357.05" data-y="3.21" data-x="1600041600" r="1" fill="white"><title>2020-09-14: 3</title></circle>
	<circle cx="347.71" cy="356.38" data-y="3.33" data-x="1600128000" r="1" fill="white"><title>2020-09-15: 3</title></circle>
	<circle cx="349.41" cy="355.05" data-y="3.57" data-x="1600214400" r="1" fill="white"><title>2020-09-16: 4</title></circle>
	<circle cx="351.11" cy="353.06" data-y="3.92" data-x="1600300800" r="1" fill="white"><title>2020-09-17: 4</title></circle>
	<circle cx="352.81" cy="357.05" data-y="3.21" data-x="1600387200" r="1" fill="white"><title>2020-09-18: 3</title></circle>
	<circle cx="354.50" cy="356.38" data-y="3.33" data-x="1600473600" r="1" fill="white"><title>2020-09-19: 3</title></circle>
	<circle cx="356.20" cy="357.05" data-y="3.21" data-x="1600560000" r="1" fill="white"><title>2020-09-20: 3</title></circle>
	<circle cx="357.90" cy="351.73" data-y="4.16" data-x="1600646400" r="1" fill="white"><title>2020-09-21: 4</title></circle>
	<circle cx="359.60" cy="352.40" data-y="4.04" data-x="1600732800" r="1" fill="white"><title>2020-09-22: 4</title></circle>
	<circle cx="361.30" cy="351.07" data-y="4.28" data-x="1600819200" r="1" fill="white"><title>2020-09-23: 4</title></circle>
	<circle cx="363.00" cy="352.40" data-y="4.04" data-x="1600905600" r="1" fill="white"><title>2020-09-24: 4</title></circle>
	<circle cx="364.69" cy="347.74" data-y="4.87" data-x="1600992000" r="1" fill="white"><title>2020-09-25: 5</title></circle>
	<circle cx="366.39" cy="347.08" data-y="4.99" data-x="1601078400" r="1" fill="white"><title>2020-09-26: 5</title></circle>
	<circle cx="368.09" cy="345.08" data-y="5.35" data-x="1601164800" r="1" fill="white"><title>2020-09-27: 5</title></circle>
	<circle cx="369.79" cy="345.75" data-y="5.23" data-x="1601251200" r="1" fill="white"><title>2020-09-28: 5</title></circle>
	<circle cx="371.49" cy="345.75" data-y="5.23" data-x="1601337600" r="1" fill="white"><title>2020-09-29: 5</title></circle>
	<circle cx="373.19" cy="345.08" data-y="5.35" data-x="1601424000" r="1" fill="white"><title>2020-09-30: 5</title></circle>
	<circle cx="374.89" cy="345.75" data-y="5.23" data-x="1601510400" r="1" fill="white"><title>2020-10-01: 5</title></circle>
	<circle cx="376.58" cy="337.10" data-y="6.77" data-x="1601596800" r="1" fill="white"><title>2020-10-02: 7</title></circle>
	<circle cx="378.28" cy="325.80" data-y="8.79" data-x="1601683200" r="1" fill="white"><title>2020-10-03: 9</title></circle>
	<circle cx="379.98" cy="314.50" data-y="10.81" data-x="1601769600" r="1" fill="white"><title>2020-10-04: 11</title></circle>
	<circle cx="381.68" cy="309.18" data-y="11.76" data-x="1601856000" r="1" fill="white"><title>2020-10-05: 12</title></circle>
	<circle cx="383.38" cy="298.54" data-y="13.67" data-x="1601942400" r="1" fill="white"><title>2020-10-06: 14</title></circle>
	<circle cx="385.08" cy="298.54" data-y="13.67" data-x="1602028800" r="1" fill="white"><title>2020-10-07: 14</title></circle>
	<circle cx="386.77" cy="286.58" data-y="15.81" data-x="1602115200" r="1" fill="white"><title>2020-10-08: 16</title></circle>
	<circle cx="388.47" cy="287.24" data-y="15.69" data-x="1602201600" r="1" fill="white"><title>2020-10-09: 16</title></circle>
	<circle cx="390.17" cy="289.90" data-y="15.21" data-x="1602288000" r="1" fill="white"><title>2020-10-10: 15</title></circle>
	<circle cx="391.87" cy="284.58" data-y="16.16" data-x="1602374400" r="1" fill="white"><title>2020-10-11: 16</title></circle>
	<circle cx="393.57" cy="275.94" data-y="17.71" data-x="1602460800" r="1" fill="white"><title>2020-10-12: 18</title></circle>
	<circle cx="395.27" cy="278.60" data-y="17.23" data-x="1602547200" r="1" fill="white"><title>2020-10-13: 17</title></circle>
	<circle cx="396.97" cy="274.61" data-y="17.94" data-x="1602633600" r="1" fill="white"><title>2020-10-14: 18</title></circle>
	<circle cx="398.66" cy="272.61" data-y="18.30" data-x="1602720000" r="1" fill="white"><title>2020-10-15: 18</title></circle>
	<circle cx="400.36" cy="248.01" data-y="22.70" data-x="1602806400" r="1" fill="white"><title>2020-10-16: 23</title></circle>
	<circle cx="402.06" cy="227.40" data-y="26.38" data-x="1602892800" r="1" fill="white"><title>2020-10-17: 26</title></circle>
	<circle cx="403.76" cy="223.42" data-y="27.09" data-x="1602979200" r="1" fill="white"><title>2020-10-18: 27</title></circle>
	<circle cx="405.46" cy="212.78" data-y="29.00" data-x="1603065600" r="1" fill="white"><title>2020-10-19: 29</title></circle>
	<circle cx="407.16" cy="196.82" data-y="31.85" data-x="1603152000" r="1" fill="white"><title>2020-10-20: 32</title></circle>
	<circle cx="408.85" cy="182.19" data-y="34.46" data-x="1603238400" r="1" fill="white"><title>2020-10-21: 34</title></circle>
	<circle cx="410.55" cy="168.90" data-y="36.84" data-x="1603324800" r="1" fill="white"><title>2020-10-22: 37</title></circle>
	<circle cx="412.25" cy="158.26" data-y="38.74" data-x="1603411200" r="1" fill="white"><title>2020-10-23: 39</title></circle>
	<circle cx="413.95" cy="158.26" data-y="38.74" data-x="1603497600" r="1" fill="white"><title>2020-10-24: 39</title></circle>
	<circle cx="415.65" cy="156.27" data-y="39.10" data-x="1603584000" r="1" fill="white"><title>2020-10-25: 39</title></circle>
	<circle cx="417.35" cy="142.97" data-y="41.47" data-x="1603670400" r="1" fill="white"><title>2020-10-26: 41</title></circle>
	<circle cx="419.05" cy="125.68" data-y="44.56" data-x="1603756800" r="1" fill="white"><title>2020-10-27: 45</title></circle>
	<circle cx="420.74" cy="114.38" data-y="46.58" data-x="1603843200" r="1" fill="white"><title>2020-10-28: 47</title></circle>
	<circle cx="422.44" cy="119.03" data-y="45.75" data-x="1603929600" r="1" fill="white"><title>2020-10-29: 46</title></circle>
	<circle cx="424.14" cy="108.40" data-y="47.65" data-x="1604016000" r="1" fill="white"><title>2020-10-30: 48</title></circle>
	<circle cx="425.84" cy="95.10" data-y="50.03" data-x="1604102400" r="1" fill="white"><title>2020-10-31: 50</title></circle>
	<circle cx="427.54" cy="66.51" data-y="55.14" data-x="1604188800" r="1" fill="white"><title>2020-11-01: 55</title></circle>
	<circle cx="429.24" cy="73.83" data-y="53.83" data-x="1604275200" r="1" fill="white"><title>2020-11-02: 54</title></circle>
	<circle cx="430.94" cy="68.51" data-y="54.78" data-x="1604361600" r="1" fill="white"><title>2020-11-03: 55</title></circle>
	<circle cx="432.63" cy="71.17" data-y="54.31" data-x="1604448000" r="1" fill="white"><title>2020-11-04: 54</title></circle>
	<circle cx="434.33" cy="51.89" data-y="57.76" data-x="1604534400" r="1" fill="white"><title>2020-11-05: 58</title></circle>
	<circle cx="436.03" cy="42.58" data-y="59.42" data-x="1604620800" r="1" fill="white"><title>2020-11-06: 59</title></circle>
	<circle cx="437.73" cy="29.95" data-y="61.68" data-x="1604707200" r="1" fill="white"><title>2020-11-07: 62</title></circle>
	<circle cx="439.43" cy="35.93" data-y="60.61" data-x="1604793600" r="1" fill="white"><title>2020-11-08: 61</title></circle>
	<circle cx="441.13" cy="25.29" data-y="62.51" data-x="1604880000" r="1" fill="white"><title>2020-11-09: 63</title></circle>
	<circle cx="442.82" cy="22.63" data-y="62.98" data-x="1604966400" r="1" fill="white"><title>2020-11-10: 63</title></circle>
	<circle cx="444.52" cy="10.00" data-y="65.24" data-x="1605052800" r="1" fill="white"><title>2020-11-11: 65</title></circle>
	<circle cx="446.22" cy="15.32" data-y="64.29" data-x="1605139200" r="1" fill="white"><title>2020-11-12: 64</title></circle>
	<circle cx="447.92" cy="22.63" data-y="62.98" data-x="1605225600" r="1" fill="white"><title>2020-11-13: 63</title></circle>
	<circle cx="449.62" cy="27.95" data-y="62.03" data-x="1605312000" r="1" fill="white"><title>2020-11-14: 62</title></circle>
	<circle cx="451.32" cy="33.27" data-y="61.08" data-x="1605398400" r="1" fill="white"><title>2020-11-15: 61</title></circle>
	<circle cx="453.02" cy="45.24" data-y="58.94" data-x="1605484800" r="1" fill="white"><title>2020-11-16: 59</title></circle>
	<circle cx="454.71" cy="57.20" data-y="56.80" data-x="1605571200" r="1" fill="white"><title>2020-11-17: 57</title></circle>
	<circle cx="456.41" cy="73.16" data-y="53.95" data-x="1605657600" r="1" fill="white"><title>2020-11-18: 54</title></circle>
	<circle cx="458.11" cy="90.45" data-y="50.86" data-x="1605744000" r="1" fill="white"><title>2020-11-19: 51</title></circle>
	<circle cx="459.81" cy="116.38" data-y="46.23" data-x="1605830400" r="1" fill="white"><title>2020-11-20: 46</title></circle>
	<circle cx="461.51" cy="142.30" data-y="41.59" data-x="1605916800" r="1" fill="white"><title>2020-11-21: 42</title></circle>
</g>
<g data-series="recent-cases" class="data-series">
	<path d="M 461.51,142.30L 463.21,164.24L 464.90,200.81L 466.60,219.09L 468.30,227.94L 470.00,227.24" id="Recent cases" class="line" stroke-width="1" stroke-linecap="round" stroke-dasharray="4,6" stroke-dashoffset="4"><title>Recent cases</title></path>
	<circle cx="461.51" cy="142.30" data-y="41.59" data-x="1605916800" r="2.5" fill="white"><title>2020-11-21: 42</title></circle>
	<circle cx="463.21" cy="164.24" data-y="37.67" data-x="1606003200" r="2.5" fill="white"><title>2020-11-22: 38</title></circle>
	<circle cx="464.90" cy="200.81" data-y="31.14" data-x="1606089600" r="2.5" fill="white"><title>2020-11-23: 31</title></circle>
	<circle cx="466.60" cy="219.09" data-y="27.87" data-x="1606176000" r="2.5" fill="white"><title>2020-11-24: 28</title></circle>
	<circle cx="468.30" cy="227.94" data-y="26.29" data-x="1606262400" r="2.5" fill="white"><title>2020-11-25: 26</title></circle>
	<circle cx="470.00" cy="227.24" data-y="26.41" data-x="1606348800" r="2.5" fill="white"><title>2020-11-26: 26</title></circle>
</g>
</svg>
