<svg width="480" height="400" viewBox="0 0 480 400" xmlns="http://www.w3.org/2000/svg" style="overflow:display" preserveAspectRatio="xMinYMin meet" overflow="visible">
<defs>
	<style>
	.data-series path.line { fill-opacity: 0; stroke: black; }
	.data-series path.line.dotted { stroke-dasharray: 12 20 }
	.data-series:hover path.line, .data-series.on path.line { stroke-width: 1; }
	.data-series:hover circle, .data-series.on circle { display: inline; }
	.graph-grid { font-family: "Helvetica Neue",Helvetica,Arial,"Lucida Grande",sans-serif; }
	.graph-grid line { stroke: black; stroke-width: 1; stroke-linecap: round; }
	.graph-grid.graph-grid-x text { text-anchor: middle; dominant-baseline: hanging; transform: translateY(10px); }
	.graph-grid.graph-grid-y text { text-anchor: end; dominant-baseline: middle; transform: translateX(-10px); }
	</style>
</defs>
<g class="graph-grid graph-grid-y">
	<line x1="25.00" y1="375.00" x2="470.00" y2="375.00" data-left="25"></line>
	<text x="35" y="375" text-anchor="end">0</text>
	<text x="35" y="214.559102564103" text-anchor="end">10</text>
	<text x="35" y="54.1182051282051" text-anchor="end">20</text>
	<text style="text-anchor:middle;dominant-baseline:hanging;font-weight:bold;transform: translateY(192.5px) rotate(-90deg);"></text>
</g>
<g class="graph-grid graph-grid-x">
	<line class="tick" x1="62.71" y1="375.00" x2="62.71" y2="380.00"></line>
	<text x="62.7118644067797" y="375" text-anchor="middle">A</text>
	<line class="tick" x1="119.28" y1="375.00" x2="119.28" y2="380.00"></line>
	<text x="119.279661016949" y="375" text-anchor="middle">M</text>
	<line class="tick" x1="177.73" y1="375.00" x2="177.73" y2="380.00"></line>
	<text x="177.733050847458" y="375" text-anchor="middle">J</text>
	<line class="tick" x1="234.30" y1="375.00" x2="234.30" y2="380.00"></line>
	<text x="234.300847457627" y="375" text-anchor="middle">J</text>
	<line class="tick" x1="292.75" y1="375.00" x2="292.75" y2="380.00"></line>
	<text x="292.754237288136" y="375" text-anchor="middle">A</text>
	<line class="tick" x1="351.21" y1="375.00" x2="351.21" y2="380.00"></line>
	<text x="351.207627118644" y="375" text-anchor="middle">S</text>
	<line class="tick" x1="407.78" y1="375.00" x2="407.78" y2="380.00"></line>
	<text x="407.775423728814" y="375" text-anchor="middle">O</text>
	<line class="tick" x1="466.23" y1="375.00" x2="466.23" y2="380.00"></line>
	<text x="466.228813559322" y="375" text-anchor="middle">N</text>
	<text style="text-anchor:middle;dominant-baseline:hanging;font-weight:bold;transform: translateY(192.5px) rotate(-90deg);"></text>
</g>
<g data-series="widespread" class="data-series">
	<path d="M 25.00,262.69L 470.00,262.69" id="E07000026-level-0" class="line" stroke-width="1" stroke-linecap="round" stroke-dasharray="3,3" fill-opacity="0.3" opacity="0.3"><title>Widespread</title></path>
</g>
<g data-series="substantial" class="data-series">
	<path d="M 25.00,310.82L 470.00,310.82" id="E07000026-level-1" class="line" stroke-width="1" stroke-linecap="round" stroke-dasharray="3,3" fill-opacity="0.3" opacity="0.3"><title>Substantial</title></path>
</g>
<g data-series="moderate" class="data-series">
	<path d="M 25.00,358.96L 470.00,358.96" id="E07000026-level-2" class="line" stroke-width="1" stroke-linecap="round" stroke-dasharray="3,3" fill-opacity="0.3" opacity="0.3"><title>Moderate</title></path>
</g>
<g data-series="new-cases" class="data-series">
	<path d="M 25.00,366.81L 26.89,361.90L 28.77,361.35L 30.66,356.28L 32.54,351.60L 34.43,349.26L 36.31,342.24L 38.20,337.56L 40.08,335.22L 41.97,330.54L 43.86,328.21L 45.74,325.87L 47.63,323.53L 49.51,325.87L 51.40,321.19L 53.28,316.51L 55.17,309.49L 57.06,302.47L 58.94,290.77L 60.83,283.75L 62.71,283.75L 64.60,288.43L 66.48,279.07L 68.37,269.71L 70.25,248.65L 72.14,255.67L 74.03,255.67L 75.91,255.67L 77.80,258.01L 79.68,267.37L 81.57,272.05L 83.45,304.81L 85.34,316.51L 87.22,323.53L 89.11,316.51L 91.00,318.85L 92.88,311.83L 94.77,321.19L 96.65,311.83L 98.54,307.15L 100.42,281.41L 102.31,265.03L 104.19,241.63L 106.08,239.29L 107.97,227.60L 109.85,218.24L 111.74,208.88L 113.62,215.90L 115.51,239.29L 117.39,260.35L 119.28,279.07L 121.17,279.07L 123.05,293.11L 124.94,309.49L 126.82,325.87L 128.71,325.87L 130.59,318.85L 132.48,311.83L 134.36,323.53L 136.25,316.51L 138.14,307.15L 140.02,307.15L 141.91,311.83L 143.79,321.19L 145.68,330.54L 147.56,335.22L 149.45,346.92L 151.33,356.28L 153.22,346.92L 155.11,342.24L 156.99,342.24L 158.88,339.90L 160.76,344.58L 162.65,337.56L 164.53,332.88L 166.42,351.60L 168.31,351.60L 170.19,351.60L 172.08,353.94L 173.96,353.94L 175.85,363.30L 177.73,367.98L 179.62,365.64L 181.50,370.32L 183.39,370.32L 185.28,370.32L 187.16,363.30L 189.05,365.64L 190.93,365.64L 192.82,365.64L 194.70,365.64L 196.59,363.30L 198.47,360.96L 200.36,367.98L 202.25,367.98L 204.13,365.64L 206.02,367.98L 207.90,367.98L 209.79,367.98L 211.67,370.32L 213.56,370.32L 215.44,367.98L 217.33,370.32L 219.22,370.32L 221.10,370.32L 222.99,372.66L 224.87,370.32L 226.76,365.64L 228.64,367.98L 230.53,365.64L 232.42,365.64L 234.30,365.64L 236.19,365.64L 238.07,365.64L 239.96,370.32L 241.84,370.32L 243.73,372.66L 245.61,372.66L 247.50,370.32L 249.39,370.32L 251.27,370.32L 253.16,367.98L 255.04,365.64L 256.93,365.64L 258.81,363.30L 260.70,363.30L 262.58,360.96L 264.47,363.30L 266.36,360.96L 268.24,363.30L 270.13,360.96L 272.01,360.96L 273.90,363.30L 275.78,365.64L 277.67,358.62L 279.56,358.62L 281.44,358.62L 283.33,358.62L 285.21,356.28L 287.10,351.60L 288.98,351.60L 290.87,351.60L 292.75,351.60L 294.64,351.60L 296.53,349.26L 298.41,349.26L 300.30,353.94L 302.18,353.94L 304.07,356.28L 305.95,356.28L 307.84,342.24L 309.72,339.90L 311.61,335.22L 313.50,335.22L 315.38,335.22L 317.27,339.90L 319.15,339.90L 321.04,351.60L 322.92,356.28L 324.81,365.64L 326.69,365.64L 328.58,358.62L 330.47,358.62L 332.35,363.30L 334.24,363.30L 336.12,351.60L 338.01,351.60L 339.89,351.60L 341.78,356.28L 343.67,351.60L 345.55,344.58L 347.44,337.56L 349.32,346.92L 351.21,346.92L 353.09,346.92L 354.98,346.92L 356.86,335.22L 358.75,342.24L 360.64,351.60L 362.52,349.26L 364.41,349.26L 366.29,344.58L 368.18,344.58L 370.06,358.62L 371.95,344.58L 373.83,339.90L 375.72,344.58L 377.61,332.88L 379.49,328.21L 381.38,316.51L 383.26,311.83L 385.15,318.85L 387.03,314.17L 388.92,297.79L 390.81,288.43L 392.69,283.75L 394.58,274.39L 396.46,272.05L 398.35,260.35L 400.23,227.60L 402.12,222.92L 404.00,227.60L 405.89,211.22L 407.78,220.58L 409.66,199.52L 411.55,204.20L 413.43,204.20L 415.32,211.22L 417.20,204.20L 419.09,218.24L 420.97,218.24L 422.86,222.92L 424.75,218.24L 426.63,243.97L 428.52,227.60L 430.40,222.92L 432.29,227.60L 434.17,220.58L 436.06,211.22L 437.94,197.18L 439.83,176.12L 441.72,180.80L 443.60,169.10L 445.49,129.33L 447.37,129.33L 449.26,122.31L 451.14,115.29L 453.03,115.29L 454.92,19.36L 456.80,33.40L 458.69,49.78L 460.57,10.00" id="New cases" class="line" stroke-width="1" stroke-linecap="round"><title>New cases</title></path>
	<circle cx="25.00" cy="366.81" data-y="0.51" data-x="1583971200" r="1" fill="white"><title>2020-03-12: 1</title></circle>
	<circle cx="26.89" cy="361.90" data-y="0.82" data-x="1584057600" r="1" fill="white"><title>2020-03-13: 1</title></circle>
	<circle cx="28.77" cy="361.35" data-y="0.85" data-x="1584144000" r="1" fill="white"><title>2020-03-14: 1</title></circle>
	<circle cx="30.66" cy="356.28" data-y="1.17" data-x="1584230400" r="1" fill="white"><title>2020-03-15: 1</title></circle>
	<circle cx="32.54" cy="351.60" data-y="1.46" data-x="1584316800" r="1" fill="white"><title>2020-03-16: 1</title></circle>
	<circle cx="34.43" cy="349.26" data-y="1.60" data-x="1584403200" r="1" fill="white"><title>2020-03-17: 2</title></circle>
	<circle cx="36.31" cy="342.24" data-y="2.04" data-x="1584489600" r="1" fill="white"><title>2020-03-18: 2</title></circle>
	<circle cx="38.20" cy="337.56" data-y="2.33" data-x="1584576000" r="1" fill="white"><title>2020-03-19: 2</title></circle>
	<circle cx="40.08" cy="335.22" data-y="2.48" data-x="1584662400" r="1" fill="white"><title>2020-03-20: 2</title></circle>
	<circle cx="41.97" cy="330.54" data-y="2.77" data-x="1584748800" r="1" fill="white"><title>2020-03-21: 3</title></circle>
	<circle cx="43.86" cy="328.21" data-y="2.92" data-x="1584835200" r="1" fill="white"><title>2020-03-22: 3</title></circle>
	<circle cx="45.74" cy="325.87" data-y="3.06" data-x="1584921600" r="1" fill="white"><title>2020-03-23: 3</title></circle>
	<circle cx="47.63" cy="323.53" data-y="3.21" data-x="1585008000" r="1" fill="white"><title>2020-03-24: 3</title></circle>
	<circle cx="49.51" cy="325.87" data-y="3.06" data-x="1585094400" r="1" fill="white"><title>2020-03-25: 3</title></circle>
	<circle cx="51.40" cy="321.19" data-y="3.35" data-x="1585180800" r="1" fill="white"><title>2020-03-26: 3</title></circle>
	<circle cx="53.28" cy="316.51" data-y="3.65" data-x="1585267200" r="1" fill="white"><title>2020-03-27: 4</title></circle>
	<circle cx="55.17" cy="309.49" data-y="4.08" data-x="1585353600" r="1" fill="white"><title>2020-03-28: 4</title></circle>
	<circle cx="57.06" cy="302.47" data-y="4.52" data-x="1585440000" r="1" fill="white"><title>2020-03-29: 5</title></circle>
	<circle cx="58.94" cy="290.77" data-y="5.25" data-x="1585526400" r="1" fill="white"><title>2020-03-30: 5</title></circle>
	<circle cx="60.83" cy="283.75" data-y="5.69" data-x="1585612800" r="1" fill="white"><title>2020-03-31: 6</title></circle>
	<circle cx="62.71" cy="283.75" data-y="5.69" data-x="1585699200" r="1" fill="white"><title>2020-04-01: 6</title></circle>
	<circle cx="64.60" cy="288.43" data-y="5.40" data-x="1585785600" r="1" fill="white"><title>2020-04-02: 5</title></circle>
	<circle cx="66.48" cy="279.07" data-y="5.98" data-x="1585872000" r="1" fill="white"><title>2020-04-03: 6</title></circle>
	<circle cx="68.37" cy="269.71" data-y="6.56" data-x="1585958400" r="1" fill="white"><title>2020-04-04: 7</title></circle>
	<circle cx="70.25" cy="248.65" data-y="7.87" data-x="1586044800" r="1" fill="white"><title>2020-04-05: 8</title></circle>
	<circle cx="72.14" cy="255.67" data-y="7.44" data-x="1586131200" r="1" fill="white"><title>2020-04-06: 7</title></circle>
	<circle cx="74.03" cy="255.67" data-y="7.44" data-x="1586217600" r="1" fill="white"><title>2020-04-07: 7</title></circle>
	<circle cx="75.91" cy="255.67" data-y="7.44" data-x="1586304000" r="1" fill="white"><title>2020-04-08: 7</title></circle>
	<circle cx="77.80" cy="258.01" data-y="7.29" data-x="1586390400" r="1" fill="white"><title>2020-04-09: 7</title></circle>
	<circle cx="79.68" cy="267.37" data-y="6.71" data-x="1586476800" r="1" fill="white"><title>2020-04-10: 7</title></circle>
	<circle cx="81.57" cy="272.05" data-y="6.42" data-x="1586563200" r="1" fill="white"><title>2020-04-11: 6</title></circle>
	<circle cx="83.45" cy="304.81" data-y="4.37" data-x="1586649600" r="1" fill="white"><title>2020-04-12: 4</title></circle>
	<circle cx="85.34" cy="316.51" data-y="3.65" data-x="1586736000" r="1" fill="white"><title>2020-04-13: 4</title></circle>
	<circle cx="87.22" cy="323.53" data-y="3.21" data-x="1586822400" r="1" fill="white"><title>2020-04-14: 3</title></circle>
	<circle cx="89.11" cy="316.51" data-y="3.65" data-x="1586908800" r="1" fill="white"><title>2020-04-15: 4</title></circle>
	<circle cx="91.00" cy="318.85" data-y="3.50" data-x="1586995200" r="1" fill="white"><title>2020-04-16: 3</title></circle>
	<circle cx="92.88" cy="311.83" data-y="3.94" data-x="1587081600" r="1" fill="white"><title>2020-04-17: 4</title></circle>
	<circle cx="94.77" cy="321.19" data-y="3.35" data-x="1587168000" r="1" fill="white"><title>2020-04-18: 3</title></circle>
	<circle cx="96.65" cy="311.83" data-y="3.94" data-x="1587254400" r="1" fill="white"><title>2020-04-19: 4</title></circle>
	<circle cx="98.54" cy="307.15" data-y="4.23" data-x="1587340800" r="1" fill="white"><title>2020-04-20: 4</title></circle>
	<circle cx="100.42" cy="281.41" data-y="5.83" data-x="1587427200" r="1" fill="white"><title>2020-04-21: 6</title></circle>
	<circle cx="102.31" cy="265.03" data-y="6.85" data-x="1587513600" r="1" fill="white"><title>2020-04-22: 7</title></circle>
	<circle cx="104.19" cy="241.63" data-y="8.31" data-x="1587600000" r="1" fill="white"><title>2020-04-23: 8</title></circle>
	<circle cx="106.08" cy="239.29" data-y="8.46" data-x="1587686400" r="1" fill="white"><title>2020-04-24: 8</title></circle>
	<circle cx="107.97" cy="227.60" data-y="9.19" data-x="1587772800" r="1" fill="white"><title>2020-04-25: 9</title></circle>
	<circle cx="109.85" cy="218.24" data-y="9.77" data-x="1587859200" r="1" fill="white"><title>2020-04-26: 10</title></circle>
	<circle cx="111.74" cy="208.88" data-y="10.35" data-x="1587945600" r="1" fill="white"><title>2020-04-27: 10</title></circle>
	<circle cx="113.62" cy="215.90" data-y="9.92" data-x="1588032000" r="1" fill="white"><title>2020-04-28: 10</title></circle>
	<circle cx="115.51" cy="239.29" data-y="8.46" data-x="1588118400" r="1" fill="white"><title>2020-04-29: 8</title></circle>
	<circle cx="117.39" cy="260.35" data-y="7.15" data-x="1588204800" r="1" fill="white"><title>2020-04-30: 7</title></circle>
	<circle cx="119.28" cy="279.07" data-y="5.98" data-x="1588291200" r="1" fill="white"><title>2020-05-01: 6</title></circle>
	<circle cx="121.17" cy="279.07" data-y="5.98" data-x="1588377600" r="1" fill="white"><title>2020-05-02: 6</title></circle>
	<circle cx="123.05" cy="293.11" data-y="5.10" data-x="1588464000" r="1" fill="white"><title>2020-05-03: 5</title></circle>
	<circle cx="124.94" cy="309.49" data-y="4.08" data-x="1588550400" r="1" fill="white"><title>2020-05-04: 4</title></circle>
	<circle cx="126.82" cy="325.87" data-y="3.06" data-x="1588636800" r="1" fill="white"><title>2020-05-05: 3</title></circle>
	<circle cx="128.71" cy="325.87" data-y="3.06" data-x="1588723200" r="1" fill="white"><title>2020-05-06: 3</title></circle>
	<circle cx="130.59" cy="318.85" data-y="3.50" data-x="1588809600" r="1" fill="white"><title>2020-05-07: 3</title></circle>
	<circle cx="132.48" cy="311.83" data-y="3.94" data-x="1588896000" r="1" fill="white"><title>2020-05-08: 4</title></circle>
	<circle cx="134.36" cy="323.53" data-y="3.21" data-x="1588982400" r="1" fill="white"><title>2020-05-09: 3</title></circle>
	<circle cx="136.25" cy="316.51" data-y="3.65" data-x="1589068800" r="1" fill="white"><title>2020-05-10: 4</title></circle>
	<circle cx="138.14" cy="307.15" data-y="4.23" data-x="1589155200" r="1" fill="white"><title>2020-05-11: 4</title></circle>
	<circle cx="140.02" cy="307.15" data-y="4.23" data-x="1589241600" r="1" fill="white"><title>2020-05-12: 4</title></circle>
	<circle cx="141.91" cy="311.83" data-y="3.94" data-x="1589328000" r="1" fill="white"><title>2020-05-13: 4</title></circle>
	<circle cx="143.79" cy="321.19" data-y="3.35" data-x="1589414400" r="1" fill="white"><title>2020-05-14: 3</title></circle>
	<circle cx="145.68" cy="330.54" data-y="2.77" data-x="1589500800" r="1" fill="white"><title>2020-05-15: 3</title></circle>
	<circle cx="147.56" cy="335.22" data-y="2.48" data-x="1589587200" r="1" fill="white"><title>2020-05-16: 2</title></circle>
	<circle cx="149.45" cy="346.92" data-y="1.75" data-x="1589673600" r="1" fill="white"><title>2020-05-17: 2</title></circle>
	<circle cx="151.33" cy="356.28" data-y="1.17" data-x="1589760000" r="1" fill="white"><title>2020-05-18: 1</title></circle>
	<circle cx="153.22" cy="346.92" data-y="1.75" data-x="1589846400" r="1" fill="white"><title>2020-05-19: 2</title></circle>
	<circle cx="155.11" cy="342.24" data-y="2.04" data-x="1589932800" r="1" fill="white"><title>2020-05-20: 2</title></circle>
	<circle cx="156.99" cy="342.24" data-y="2.04" data-x="1590019200" r="1" fill="white"><title>2020-05-21: 2</title></circle>
	<circle cx="158.88" cy="339.90" data-y="2.19" data-x="1590105600" r="1" fill="white"><title>2020-05-22: 2</title></circle>
	<circle cx="160.76" cy="344.58" data-y="1.90" data-x="1590192000" r="1" fill="white"><title>2020-05-23: 2</title></circle>
	<circle cx="162.65" cy="337.56" data-y="2.33" data-x="1590278400" r="1" fill="white"><title>2020-05-24: 2</title></circle>
	<circle cx="164.53" cy="332.88" data-y="2.62" data-x="1590364800" r="1" fill="white"><title>2020-05-25: 3</title></circle>
	<circle cx="166.42" cy="351.60" data-y="1.46" data-x="1590451200" r="1" fill="white"><title>2020-05-26: 1</title></circle>
	<circle cx="168.31" cy="351.60" data-y="1.46" data-x="1590537600" r="1" fill="white"><title>2020-05-27: 1</title></circle>
	<circle cx="170.19" cy="351.60" data-y="1.46" data-x="1590624000" r="1" fill="white"><title>2020-05-28: 1</title></circle>
	<circle cx="172.08" cy="353.94" data-y="1.31" data-x="1590710400" r="1" fill="white"><title>2020-05-29: 1</title></circle>
	<circle cx="173.96" cy="353.94" data-y="1.31" data-x="1590796800" r="1" fill="white"><title>2020-05-30: 1</title></circle>
	<circle cx="175.85" cy="363.30" data-y="0.73" data-x="1590883200" r="1" fill="white"><title>2020-05-31: 1</title></circle>
	<circle cx="177.73" cy="367.98" data-y="0.44" data-x="1590969600" r="1" fill="white"><title>2020-06-01: 0</title></circle>
	<circle cx="179.62" cy="365.64" data-y="0.58" data-x="1591056000" r="1" fill="white"><title>2020-06-02: 1</title></circle>
	<circle cx="181.50" cy="370.32" data-y="0.29" data-x="1591142400" r="1" fill="white"><title>2020-06-03: 0</title></circle>
	<circle cx="183.39" cy="370.32" data-y="0.29" data-x="1591228800" r="1" fill="white"><title>2020-06-04: 0</title></circle>
	<circle cx="185.28" cy="370.32" data-y="0.29" data-x="1591315200" r="1" fill="white"><title>2020-06-05: 0</title></circle>
	<circle cx="187.16" cy="363.30" data-y="0.73" data-x="1591401600" r="1" fill="white"><title>2020-06-06: 1</title></circle>
	<circle cx="189.05" cy="365.64" data-y="0.58" data-x="1591488000" r="1" fill="white"><title>2020-06-07: 1</title></circle>
	<circle cx="190.93" cy="365.64" data-y="0.58" data-x="1591574400" r="1" fill="white"><title>2020-06-08: 1</title></circle>
	<circle cx="192.82" cy="365.64" data-y="0.58" data-x="1591660800" r="1" fill="white"><title>2020-06-09: 1</title></circle>
	<circle cx="194.70" cy="365.64" data-y="0.58" data-x="1591747200" r="1" fill="white"><title>2020-06-10: 1</title></circle>
	<circle cx="196.59" cy="363.30" data-y="0.73" data-x="1591833600" r="1" fill="white"><title>2020-06-11: 1</title></circle>
	<circle cx="198.47" cy="360.96" data-y="0.87" data-x="1591920000" r="1" fill="white"><title>2020-06-12: 1</title></circle>
	<circle cx="200.36" cy="367.98" data-y="0.44" data-x="1592006400" r="1" fill="white"><title>2020-06-13: 0</title></circle>
	<circle cx="202.25" cy="367.98" data-y="0.44" data-x="1592092800" r="1" fill="white"><title>2020-06-14: 0</title></circle>
	<circle cx="204.13" cy="365.64" data-y="0.58" data-x="1592179200" r="1" fill="white"><title>2020-06-15: 1</title></circle>
	<circle cx="206.02" cy="367.98" data-y="0.44" data-x="1592265600" r="1" fill="white"><title>2020-06-16: 0</title></circle>
	<circle cx="207.90" cy="367.98" data-y="0.44" data-x="1592352000" r="1" fill="white"><title>2020-06-17: 0</title></circle>
	<circle cx="209.79" cy="367.98" data-y="0.44" data-x="1592438400" r="1" fill="white"><title>2020-06-18: 0</title></circle>
	<circle cx="211.67" cy="370.32" data-y="0.29" data-x="1592524800" r="1" fill="white"><title>2020-06-19: 0</title></circle>
	<circle cx="213.56" cy="370.32" data-y="0.29" data-x="1592611200" r="1" fill="white"><title>2020-06-20: 0</title></circle>
	<circle cx="215.44" cy="367.98" data-y="0.44" data-x="1592697600" r="1" fill="white"><title>2020-06-21: 0</title></circle>
	<circle cx="217.33" cy="370.32" data-y="0.29" data-x="1592784000" r="1" fill="white"><title>2020-06-22: 0</title></circle>
	<circle cx="219.22" cy="370.32" data-y="0.29" data-x="1592870400" r="1" fill="white"><title>2020-06-23: 0</title></circle>
	<circle cx="221.10" cy="370.32" data-y="0.29" data-x="1592956800" r="1" fill="white"><title>2020-06-24: 0</title></circle>
	<circle cx="222.99" cy="372.66" data-y="0.15" data-x="1593043200" r="1" fill="white"><title>2020-06-25: 0</title></circle>
	<circle cx="224.87" cy="370.32" data-y="0.29" data-x="1593129600" r="1" fill="white"><title>2020-06-26: 0</title></circle>
	<circle cx="226.76" cy="365.64" data-y="0.58" data-x="1593216000" r="1" fill="white"><title>2020-06-27: 1</title></circle>
	<circle cx="228.64" cy="367.98" data-y="0.44" data-x="1593302400" r="1" fill="white"><title>2020-06-28: 0</title></circle>
	<circle cx="230.53" cy="365.64" data-y="0.58" data-x="1593388800" r="1" fill="white"><title>2020-06-29: 1</title></circle>
	<circle cx="232.42" cy="365.64" data-y="0.58" data-x="1593475200" r="1" fill="white"><title>2020-06-30: 1</title></circle>
	<circle cx="234.30" cy="365.64" data-y="0.58" data-x="1593561600" r="1" fill="white"><title>2020-07-01: 1</title></circle>
	<circle cx="236.19" cy="365.64" data-y="0.58" data-x="1593648000" r="1" fill="white"><title>2020-07-02: 1</title></circle>
	<circle cx="238.07" cy="365.64" data-y="0.58" data-x="1593734400" r="1" fill="white"><title>2020-07-03: 1</title></circle>
	<circle cx="239.96" cy="370.32" data-y="0.29" data-x="1593820800" r="1" fill="white"><title>2020-07-04: 0</title></circle>
	<circle cx="241.84" cy="370.32" data-y="0.29" data-x="1593907200" r="1" fill="white"><title>2020-07-05: 0</title></circle>
	<circle cx="243.73" cy="372.66" data-y="0.15" data-x="1593993600" r="1" fill="white"><title>2020-07-06: 0</title></circle>
	<circle cx="245.61" cy="372.66" data-y="0.15" data-x="1594080000" r="1" fill="white"><title>2020-07-07: 0</title></circle>
	<circle cx="247.50" cy="370.32" data-y="0.29" data-x="1594166400" r="1" fill="white"><title>2020-07-08: 0</title></circle>
	<circle cx="249.39" cy="370.32" data-y="0.29" data-x="1594252800" r="1" fill="white"><title>2020-07-09: 0</title></circle>
	<circle cx="251.27" cy="370.32" data-y="0.29" data-x="1594339200" r="1" fill="white"><title>2020-07-10: 0</title></circle>
	<circle cx="253.16" cy="367.98" data-y="0.44" data-x="1594425600" r="1" fill="white"><title>2020-07-11: 0</title></circle>
	<circle cx="255.04" cy="365.64" data-y="0.58" data-x="1594512000" r="1" fill="white"><title>2020-07-12: 1</title></circle>
	<circle cx="256.93" cy="365.64" data-y="0.58" data-x="1594598400" r="1" fill="white"><title>2020-07-13: 1</title></circle>
	<circle cx="258.81" cy="363.30" data-y="0.73" data-x="1594684800" r="1" fill="white"><title>2020-07-14: 1</title></circle>
	<circle cx="260.70" cy="363.30" data-y="0.73" data-x="1594771200" r="1" fill="white"><title>2020-07-15: 1</title></circle>
	<circle cx="262.58" cy="360.96" data-y="0.87" data-x="1594857600" r="1" fill="white"><title>2020-07-16: 1</title></circle>
	<circle cx="264.47" cy="363.30" data-y="0.73" data-x="1594944000" r="1" fill="white"><title>2020-07-17: 1</title></circle>
	<circle cx="266.36" cy="360.96" data-y="0.87" data-x="1595030400" r="1" fill="white"><title>2020-07-18: 1</title></circle>
	<circle cx="268.24" cy="363.30" data-y="0.73" data-x="1595116800" r="1" fill="white"><title>2020-07-19: 1</title></circle>
	<circle cx="270.13" cy="360.96" data-y="0.87" data-x="1595203200" r="1" fill="white"><title>2020-07-20: 1</title></circle>
	<circle cx="272.01" cy="360.96" data-y="0.87" data-x="1595289600" r="1" fill="white"><title>2020-07-21: 1</title></circle>
	<circle cx="273.90" cy="363.30" data-y="0.73" data-x="1595376000" r="1" fill="white"><title>2020-07-22: 1</title></circle>
	<circle cx="275.78" cy="365.64" data-y="0.58" data-x="1595462400" r="1" fill="white"><title>2020-07-23: 1</title></circle>
	<circle cx="277.67" cy="358.62" data-y="1.02" data-x="1595548800" r="1" fill="white"><title>2020-07-24: 1</title></circle>
	<circle cx="279.56" cy="358.62" data-y="1.02" data-x="1595635200" r="1" fill="white"><title>2020-07-25: 1</title></circle>
	<circle cx="281.44" cy="358.62" data-y="1.02" data-x="1595721600" r="1" fill="white"><title>2020-07-26: 1</title></circle>
	<circle cx="283.33" cy="358.62" data-y="1.02" data-x="1595808000" r="1" fill="white"><title>2020-07-27: 1</title></circle>
	<circle cx="285.21" cy="356.28" data-y="1.17" data-x="1595894400" r="1" fill="white"><title>2020-07-28: 1</title></circle>
	<circle cx="287.10" cy="351.60" data-y="1.46" data-x="1595980800" r="1" fill="white"><title>2020-07-29: 1</title></circle>
	<circle cx="288.98" cy="351.60" data-y="1.46" data-x="1596067200" r="1" fill="white"><title>2020-07-30: 1</title></circle>
	<circle cx="290.87" cy="351.60" data-y="1.46" data-x="1596153600" r="1" fill="white"><title>2020-07-31: 1</title></circle>
	<circle cx="292.75" cy="351.60" data-y="1.46" data-x="1596240000" r="1" fill="white"><title>2020-08-01: 1</title></circle>
	<circle cx="294.64" cy="351.60" data-y="1.46" data-x="1596326400" r="1" fill="white"><title>2020-08-02: 1</title></circle>
	<circle cx="296.53" cy="349.26" data-y="1.60" data-x="1596412800" r="1" fill="white"><title>2020-08-03: 2</title></circle>
	<circle cx="298.41" cy="349.26" data-y="1.60" data-x="1596499200" r="1" fill="white"><title>2020-08-04: 2</title></circle>
	<circle cx="300.30" cy="353.94" data-y="1.31" data-x="1596585600" r="1" fill="white"><title>2020-08-05: 1</title></circle>
	<circle cx="302.18" cy="353.94" data-y="1.31" data-x="1596672000" r="1" fill="white"><title>2020-08-06: 1</title></circle>
	<circle cx="304.07" cy="356.28" data-y="1.17" data-x="1596758400" r="1" fill="white"><title>2020-08-07: 1</title></circle>
	<circle cx="305.95" cy="356.28" data-y="1.17" data-x="1596844800" r="1" fill="white"><title>2020-08-08: 1</title></circle>
	<circle cx="307.84" cy="342.24" data-y="2.04" data-x="1596931200" r="1" fill="white"><title>2020-08-09: 2</title></circle>
	<circle cx="309.72" cy="339.90" data-y="2.19" data-x="1597017600" r="1" fill="white"><title>2020-08-10: 2</title></circle>
	<circle cx="311.61" cy="335.22" data-y="2.48" data-x="1597104000" r="1" fill="white"><title>2020-08-11: 2</title></circle>
	<circle cx="313.50" cy="335.22" data-y="2.48" data-x="1597190400" r="1" fill="white"><title>2020-08-12: 2</title></circle>
	<circle cx="315.38" cy="335.22" data-y="2.48" data-x="1597276800" r="1" fill="white"><title>2020-08-13: 2</title></circle>
	<circle cx="317.27" cy="339.90" data-y="2.19" data-x="1597363200" r="1" fill="white"><title>2020-08-14: 2</title></circle>
	<circle cx="319.15" cy="339.90" data-y="2.19" data-x="1597449600" r="1" fill="white"><title>2020-08-15: 2</title></circle>
	<circle cx="321.04" cy="351.60" data-y="1.46" data-x="1597536000" r="1" fill="white"><title>2020-08-16: 1</title></circle>
	<circle cx="322.92" cy="356.28" data-y="1.17" data-x="1597622400" r="1" fill="white"><title>2020-08-17: 1</title></circle>
	<circle cx="324.81" cy="365.64" data-y="0.58" data-x="1597708800" r="1" fill="white"><title>2020-08-18: 1</title></circle>
	<circle cx="326.69" cy="365.64" data-y="0.58" data-x="1597795200" r="1" fill="white"><title>2020-08-19: 1</title></circle>
	<circle cx="328.58" cy="358.62" data-y="1.02" data-x="1597881600" r="1" fill="white"><title>2020-08-20: 1</title></circle>
	<circle cx="330.47" cy="358.62" data-y="1.02" data-x="1597968000" r="1" fill="white"><title>2020-08-21: 1</title></circle>
	<circle cx="332.35" cy="363.30" data-y="0.73" data-x="1598054400" r="1" fill="white"><title>2020-08-22: 1</title></circle>
	<circle cx="334.24" cy="363.30" data-y="0.73" data-x="1598140800" r="1" fill="white"><title>2020-08-23: 1</title></circle>
	<circle cx="336.12" cy="351.60" data-y="1.46" data-x="1598227200" r="1" fill="white"><title>2020-08-24: 1</title></circle>
	<circle cx="338.01" cy="351.60" data-y="1.46" data-x="1598313600" r="1" fill="white"><title>2020-08-25: 1</title></circle>
	<circle cx="339.89" cy="351.60" data-y="1.46" data-x="1598400000" r="1" fill="white"><title>2020-08-26: 1</title></circle>
	<circle cx="341.78" cy="356.28" data-y="1.17" data-x="1598486400" r="1" fill="white"><title>2020-08-27: 1</title></circle>
	<circle cx="343.67" cy="351.60" data-y="1.46" data-x="1598572800" r="1" fill="white"><title>2020-08-28: 1</title></circle>
	<circle cx="345.55" cy="344.58" data-y="1.90" data-x="1598659200" r="1" fill="white"><title>2020-08-29: 2</title></circle>
	<circle cx="347.44" cy="337.56" data-y="2.33" data-x="1598745600" r="1" fill="white"><title>2020-08-30: 2</title></circle>
	<circle cx="349.32" cy="346.92" data-y="1.75" data-x="1598832000" r="1" fill="white"><title>2020-08-31: 2</title></circle>
	<circle cx="351.21" cy="346.92" data-y="1.75" data-x="1598918400" r="1" fill="white"><title>2020-09-01: 2</title></circle>
	<circle cx="353.09" cy="346.92" data-y="1.75" data-x="1599004800" r="1" fill="white"><title>2020-09-02: 2</title></circle>
	<circle cx="354.98" cy="346.92" data-y="1.75" data-x="1599091200" r="1" fill="white"><title>2020-09-03: 2</title></circle>
	<circle cx="356.86" cy="335.22" data-y="2.48" data-x="1599177600" r="1" fill="white"><title>2020-09-04: 2</title></circle>
	<circle cx="358.75" cy="342.24" data-y="2.04" data-x="1599264000" r="1" fill="white"><title>2020-09-05: 2</title></circle>
	<circle cx="360.64" cy="351.60" data-y="1.46" data-x="1599350400" r="1" fill="white"><title>2020-09-06: 1</title></circle>
	<circle cx="362.52" cy="349.26" data-y="1.60" data-x="1599436800" r="1" fill="white"><title>2020-09-07: 2</title></circle>
	<circle cx="364.41" cy="349.26" data-y="1.60" data-x="1599523200" r="1" fill="white"><title>2020-09-08: 2</title></circle>
	<circle cx="366.29" cy="344.58" data-y="1.90" data-x="1599609600" r="1" fill="white"><title>2020-09-09: 2</title></circle>
	<circle cx="368.18" cy="344.58" data-y="1.90" data-x="1599696000" r="1" fill="white"><title>2020-09-10: 2</title></circle>
	<circle cx="370.06" cy="358.62" data-y="1.02" data-x="1599782400" r="1" fill="white"><title>2020-09-11: 1</title></circle>
	<circle cx="371.95" cy="344.58" data-y="1.90" data-x="1599868800" r="1" fill="white"><title>2020-09-12: 2</title></circle>
	<circle cx="373.83" cy="339.90" data-y="2.19" data-x="1599955200" r="1" fill="white"><title>2020-09-13: 2</title></circle>
	<circle cx="375.72" cy="344.58" data-y="1.90" data-x="1600041600" r="1" fill="white"><title>2020-09-14: 2</title></circle>
	<circle cx="377.61" cy="332.88" data-y="2.62" data-x="1600128000" r="1" fill="white"><title>2020-09-15: 3</title></circle>
	<circle cx="379.49" cy="328.21" data-y="2.92" data-x="1600214400" r="1" fill="white"><title>2020-09-16: 3</title></circle>
	<circle cx="381.38" cy="316.51" data-y="3.65" data-x="1600300800" r="1" fill="white"><title>2020-09-17: 4</title></circle>
	<circle cx="383.26" cy="311.83" data-y="3.94" data-x="1600387200" r="1" fill="white"><title>2020-09-18: 4</title></circle>
	<circle cx="385.15" cy="318.85" data-y="3.50" data-x="1600473600" r="1" fill="white"><title>2020-09-19: 3</title></circle>
	<circle cx="387.03" cy="314.17" data-y="3.79" data-x="1600560000" r="1" fill="white"><title>2020-09-20: 4</title></circle>
	<circle cx="388.92" cy="297.79" data-y="4.81" data-x="1600646400" r="1" fill="white"><title>2020-09-21: 5</title></circle>
	<circle cx="390.81" cy="288.43" data-y="5.40" data-x="1600732800" r="1" fill="white"><title>2020-09-22: 5</title></circle>
	<circle cx="392.69" cy="283.75" data-y="5.69" data-x="1600819200" r="1" fill="white"><title>2020-09-23: 6</title></circle>
	<circle cx="394.58" cy="274.39" data-y="6.27" data-x="1600905600" r="1" fill="white"><title>2020-09-24: 6</title></circle>
	<circle cx="396.46" cy="272.05" data-y="6.42" data-x="1600992000" r="1" fill="white"><title>2020-09-25: 6</title></circle>
	<circle cx="398.35" cy="260.35" data-y="7.15" data-x="1601078400" r="1" fill="white"><title>2020-09-26: 7</title></circle>
	<circle cx="400.23" cy="227.60" data-y="9.19" data-x="1601164800" r="1" fill="white"><title>2020-09-27: 9</title></circle>
	<circle cx="402.12" cy="222.92" data-y="9.48" data-x="1601251200" r="1" fill="white"><title>2020-09-28: 9</title></circle>
	<circle cx="404.00" cy="227.60" data-y="9.19" data-x="1601337600" r="1" fill="white"><title>2020-09-29: 9</title></circle>
	<circle cx="405.89" cy="211.22" data-y="10.21" data-x="1601424000" r="1" fill="white"><title>2020-09-30: 10</title></circle>
	<circle cx="407.78" cy="220.58" data-y="9.62" data-x="1601510400" r="1" fill="white"><title>2020-10-01: 10</title></circle>
	<circle cx="409.66" cy="199.52" data-y="10.94" data-x="1601596800" r="1" fill="white"><title>2020-10-02: 11</title></circle>
	<circle cx="411.55" cy="204.20" data-y="10.65" data-x="1601683200" r="1" fill="white"><title>2020-10-03: 11</title></circle>
	<circle cx="413.43" cy="204.20" data-y="10.65" data-x="1601769600" r="1" fill="white"><title>2020-10-04: 11</title></circle>
	<circle cx="415.32" cy="211.22" data-y="10.21" data-x="1601856000" r="1" fill="white"><title>2020-10-05: 10</title></circle>
	<circle cx="417.20" cy="204.20" data-y="10.65" data-x="1601942400" r="1" fill="white"><title>2020-10-06: 11</title></circle>
	<circle cx="419.09" cy="218.24" data-y="9.77" data-x="1602028800" r="1" fill="white"><title>2020-10-07: 10</title></circle>
	<circle cx="420.97" cy="218.24" data-y="9.77" data-x="1602115200" r="1" fill="white"><title>2020-10-08: 10</title></circle>
	<circle cx="422.86" cy="222.92" data-y="9.48" data-x="1602201600" r="1" fill="white"><title>2020-10-09: 9</title></circle>
	<circle cx="424.75" cy="218.24" data-y="9.77" data-x="1602288000" r="1" fill="white"><title>2020-10-10: 10</title></circle>
	<circle cx="426.63" cy="243.97" data-y="8.17" data-x="1602374400" r="1" fill="white"><title>2020-10-11: 8</title></circle>
	<circle cx="428.52" cy="227.60" data-y="9.19" data-x="1602460800" r="1" fill="white"><title>2020-10-12: 9</title></circle>
	<circle cx="430.40" cy="222.92" data-y="9.48" data-x="1602547200" r="1" fill="white"><title>2020-10-13: 9</title></circle>
	<circle cx="432.29" cy="227.60" data-y="9.19" data-x="1602633600" r="1" fill="white"><title>2020-10-14: 9</title></circle>
	<circle cx="434.17" cy="220.58" data-y="9.62" data-x="1602720000" r="1" fill="white"><title>2020-10-15: 10</title></circle>
	<circle cx="436.06" cy="211.22" data-y="10.21" data-x="1602806400" r="1" fill="white"><title>2020-10-16: 10</title></circle>
	<circle cx="437.94" cy="197.18" data-y="11.08" data-x="1602892800" r="1" fill="white"><title>2020-10-17: 11</title></circle>
	<circle cx="439.83" cy="176.12" data-y="12.40" data-x="1602979200" r="1" fill="white"><title>2020-10-18: 12</title></circle>
	<circle cx="441.72" cy="180.80" data-y="12.10" data-x="1603065600" r="1" fill="white"><title>2020-10-19: 12</title></circle>
	<circle cx="443.60" cy="169.10" data-y="12.83" data-x="1603152000" r="1" fill="white"><title>2020-10-20: 13</title></circle>
	<circle cx="445.49" cy="129.33" data-y="15.31" data-x="1603238400" r="1" fill="white"><title>2020-10-21: 15</title></circle>
	<circle cx="447.37" cy="129.33" data-y="15.31" data-x="1603324800" r="1" fill="white"><title>2020-10-22: 15</title></circle>
	<circle cx="449.26" cy="122.31" data-y="15.75" data-x="1603411200" r="1" fill="white"><title>2020-10-23: 16</title></circle>
	<circle cx="451.14" cy="115.29" data-y="16.19" data-x="1603497600" r="1" fill="white"><title>2020-10-24: 16</title></circle>
	<circle cx="453.03" cy="115.29" data-y="16.19" data-x="1603584000" r="1" fill="white"><title>2020-10-25: 16</title></circle>
	<circle cx="454.92" cy="19.36" data-y="22.17" data-x="1603670400" r="1" fill="white"><title>2020-10-26: 22</title></circle>
	<circle cx="456.80" cy="33.40" data-y="21.29" data-x="1603756800" r="1" fill="white"><title>2020-10-27: 21</title></circle>
	<circle cx="458.69" cy="49.78" data-y="20.27" data-x="1603843200" r="1" fill="white"><title>2020-10-28: 20</title></circle>
	<circle cx="460.57" cy="10.00" data-y="22.75" data-x="1603929600" r="1" fill="white"><title>2020-10-29: 23</title></circle>
</g>
<g data-series="recent-cases" class="data-series">
	<path d="M 460.57,10.00L 462.46,19.36L 464.34,59.13L 466.23,50.17L 468.11,158.81L 470.00,149.80" id="Recent cases" class="line" stroke-width="1" stroke-linecap="round" stroke-dasharray="4,6" stroke-dashoffset="4"><title>Recent cases</title></path>
	<circle cx="460.57" cy="10.00" data-y="22.75" data-x="1603929600" r="2.5" fill="white"><title>2020-10-29: 23</title></circle>
	<circle cx="462.46" cy="19.36" data-y="22.17" data-x="1604016000" r="2.5" fill="white"><title>2020-10-30: 22</title></circle>
	<circle cx="464.34" cy="59.13" data-y="19.69" data-x="1604102400" r="2.5" fill="white"><title>2020-10-31: 20</title></circle>
	<circle cx="466.23" cy="50.17" data-y="20.25" data-x="1604188800" r="2.5" fill="white"><title>2020-11-01: 20</title></circle>
	<circle cx="468.11" cy="158.81" data-y="13.47" data-x="1604275200" r="2.5" fill="white"><title>2020-11-02: 13</title></circle>
	<circle cx="470.00" cy="149.80" data-y="14.04" data-x="1604361600" r="2.5" fill="white"><title>2020-11-03: 14</title></circle>
</g>
</svg>
