<svg width="480" height="400" viewBox="0 0 480 400" xmlns="http://www.w3.org/2000/svg" style="overflow:display" preserveAspectRatio="xMinYMin meet" overflow="visible">
<defs>
	<style>
	.data-series path.line { fill-opacity: 0; stroke: black; }
	.data-series path.line.dotted { stroke-dasharray: 12 20 }
	.data-series:hover path.line, .data-series.on path.line { stroke-width: 1; }
	.data-series:hover circle, .data-series.on circle { display: inline; }
	.graph-grid { font-family: "Helvetica Neue",Helvetica,Arial,"Lucida Grande",sans-serif; }
	.graph-grid line { stroke: black; stroke-width: 1; stroke-linecap: round; }
	.graph-grid.graph-grid-x text { text-anchor: middle; dominant-baseline: hanging; transform: translateY(10px); }
	.graph-grid.graph-grid-y text { text-anchor: end; dominant-baseline: middle; transform: translateX(-10px); }
	</style>
</defs>
<g class="graph-grid graph-grid-y">
	<line x1="15.00" y1="375.00" x2="470.00" y2="375.00" data-left="15"></line>
	<text x="25" y="375" text-anchor="end">0</text>
	<text x="25" y="195.943391975309" text-anchor="end">5</text>
	<text x="25" y="16.8867839506173" text-anchor="end">10</text>
	<text style="text-anchor:middle;dominant-baseline:hanging;font-weight:bold;transform: translateY(192.5px) rotate(-90deg);"></text>
</g>
<g class="graph-grid graph-grid-x">
	<line class="tick" x1="58.04" y1="375.00" x2="58.04" y2="380.00"></line>
	<text x="58.0405405405405" y="375" text-anchor="middle">A</text>
	<line class="tick" x1="119.53" y1="375.00" x2="119.53" y2="380.00"></line>
	<text x="119.527027027027" y="375" text-anchor="middle">M</text>
	<line class="tick" x1="183.06" y1="375.00" x2="183.06" y2="380.00"></line>
	<text x="183.063063063063" y="375" text-anchor="middle">J</text>
	<line class="tick" x1="244.55" y1="375.00" x2="244.55" y2="380.00"></line>
	<text x="244.54954954955" y="375" text-anchor="middle">J</text>
	<line class="tick" x1="308.09" y1="375.00" x2="308.09" y2="380.00"></line>
	<text x="308.085585585586" y="375" text-anchor="middle">A</text>
	<line class="tick" x1="371.62" y1="375.00" x2="371.62" y2="380.00"></line>
	<text x="371.621621621622" y="375" text-anchor="middle">S</text>
	<line class="tick" x1="433.11" y1="375.00" x2="433.11" y2="380.00"></line>
	<text x="433.108108108108" y="375" text-anchor="middle">O</text>
	<text style="text-anchor:middle;dominant-baseline:hanging;font-weight:bold;transform: translateY(192.5px) rotate(-90deg);"></text>
</g>
<g data-series="widespread" class="data-series">
	<path d="M 15.00,124.32L 470.00,124.32" id="E07000226-level-0" class="line" stroke-width="1" stroke-linecap="round" stroke-dasharray="3,3" fill-opacity="0.3" opacity="0.3"><title>Widespread</title></path>
</g>
<g data-series="substantial" class="data-series">
	<path d="M 15.00,231.75L 470.00,231.75" id="E07000226-level-1" class="line" stroke-width="1" stroke-linecap="round" stroke-dasharray="3,3" fill-opacity="0.3" opacity="0.3"><title>Substantial</title></path>
</g>
<g data-series="moderate" class="data-series">
	<path d="M 15.00,339.19L 470.00,339.19" id="E07000226-level-2" class="line" stroke-width="1" stroke-linecap="round" stroke-dasharray="3,3" fill-opacity="0.3" opacity="0.3"><title>Moderate</title></path>
</g>
<g data-series="new-cases" class="data-series">
	<path d="M 15.00,351.34L 17.05,356.07L 19.10,359.23L 21.15,356.98L 23.20,347.96L 25.25,343.46L 27.30,338.95L 29.35,329.94L 31.40,325.43L 33.45,311.91L 35.50,302.90L 37.55,289.38L 39.59,284.88L 41.64,266.85L 43.69,271.36L 45.74,271.36L 47.79,244.32L 49.84,235.31L 51.89,226.30L 53.94,217.28L 55.99,212.78L 58.04,199.26L 60.09,185.74L 62.14,199.26L 64.19,185.74L 66.24,176.73L 68.29,163.21L 70.34,176.73L 72.39,158.70L 74.44,163.21L 76.49,163.21L 78.54,154.20L 80.59,145.19L 82.64,154.20L 84.68,149.69L 86.73,149.69L 88.78,131.67L 90.83,131.67L 92.88,154.20L 94.93,194.75L 96.98,185.74L 99.03,167.72L 101.08,190.25L 103.13,199.26L 105.18,167.72L 107.23,104.63L 109.28,37.04L 111.33,23.52L 113.38,14.51L 115.43,10.00L 117.48,14.51L 119.53,41.54L 121.58,91.11L 123.63,140.68L 125.68,176.73L 127.73,212.78L 129.77,230.80L 131.82,221.79L 133.87,248.83L 135.92,266.85L 137.97,280.37L 140.02,253.33L 142.07,257.84L 144.12,253.33L 146.17,271.36L 148.22,257.84L 150.27,257.84L 152.32,266.85L 154.37,284.88L 156.42,280.37L 158.47,284.88L 160.52,293.89L 162.57,284.88L 164.62,298.40L 166.67,302.90L 168.72,320.93L 170.77,334.44L 172.82,334.44L 174.86,320.93L 176.91,334.44L 178.96,329.94L 181.01,329.94L 183.06,320.93L 185.11,316.42L 187.16,311.91L 189.21,325.43L 191.26,334.44L 193.31,334.44L 195.36,325.43L 197.41,325.43L 199.46,329.94L 201.51,334.44L 203.56,334.44L 205.61,338.95L 207.66,343.46L 209.71,356.98L 211.76,361.48L 213.81,356.98L 215.86,356.98L 217.91,356.98L 219.95,356.98L 222.00,361.48L 224.05,361.48L 226.10,352.47L 228.15,352.47L 230.20,347.96L 232.25,347.96L 234.30,343.46L 236.35,343.46L 238.40,329.94L 240.45,325.43L 242.50,325.43L 244.55,329.94L 246.60,316.42L 248.65,320.93L 250.70,316.42L 252.75,329.94L 254.80,347.96L 256.85,347.96L 258.90,347.96L 260.95,361.48L 263.00,361.48L 265.05,365.99L 267.09,361.48L 269.14,356.98L 271.19,361.48L 273.24,356.98L 275.29,334.44L 277.34,311.91L 279.39,302.90L 281.44,307.41L 283.49,302.90L 285.54,298.40L 287.59,298.40L 289.64,316.42L 291.69,325.43L 293.74,329.94L 295.79,329.94L 297.84,329.94L 299.89,334.44L 301.94,343.46L 303.99,347.96L 306.04,361.48L 308.09,361.48L 310.14,361.48L 312.18,370.49L 314.23,370.49L 316.28,370.49L 318.33,370.49L 320.38,365.99L 322.43,365.99L 324.48,352.47L 326.53,338.95L 328.58,338.95L 330.63,338.95L 332.68,338.95L 334.73,334.44L 336.78,325.43L 338.83,325.43L 340.88,338.95L 342.93,334.44L 344.98,334.44L 347.03,334.44L 349.08,338.95L 351.13,347.96L 353.18,361.48L 355.23,356.98L 357.27,347.96L 359.32,347.96L 361.37,343.46L 363.42,347.96L 365.47,352.47L 367.52,347.96L 369.57,347.96L 371.62,338.95L 373.67,338.95L 375.72,338.95L 377.77,302.90L 379.82,298.40L 381.87,302.90L 383.92,289.38L 385.97,311.91L 388.02,311.91L 390.07,311.91L 392.12,338.95L 394.17,343.46L 396.22,343.46L 398.27,361.48L 400.32,352.47L 402.36,347.96L 404.41,347.96L 406.46,334.44L 408.51,325.43L 410.56,302.90L 412.61,271.36L 414.66,257.84L 416.71,253.33L 418.76,239.81L 420.81,235.31L 422.86,230.80L 424.91,239.81L 426.96,253.33L 429.01,248.83L 431.06,217.28L 433.11,194.75L 435.16,190.25L 437.21,172.22L 439.26,145.19L 441.31,113.64L 443.36,122.65L 445.41,122.65L 447.45,140.68L 449.50,131.67L 451.55,127.16L 453.60,127.16L 455.65,118.15L 457.70,104.63L 459.75,140.68" id="New cases" class="line" stroke-width="1" stroke-linecap="round"><title>New cases</title></path>
	<circle cx="15.00" cy="351.34" data-y="0.66" data-x="1583884800" r="1" fill="white"><title>2020-03-11: 1</title></circle>
	<circle cx="17.05" cy="356.07" data-y="0.53" data-x="1583971200" r="1" fill="white"><title>2020-03-12: 1</title></circle>
	<circle cx="19.10" cy="359.23" data-y="0.44" data-x="1584057600" r="1" fill="white"><title>2020-03-13: 0</title></circle>
	<circle cx="21.15" cy="356.98" data-y="0.50" data-x="1584144000" r="1" fill="white"><title>2020-03-14: 1</title></circle>
	<circle cx="23.20" cy="347.96" data-y="0.75" data-x="1584230400" r="1" fill="white"><title>2020-03-15: 1</title></circle>
	<circle cx="25.25" cy="343.46" data-y="0.88" data-x="1584316800" r="1" fill="white"><title>2020-03-16: 1</title></circle>
	<circle cx="27.30" cy="338.95" data-y="1.01" data-x="1584403200" r="1" fill="white"><title>2020-03-17: 1</title></circle>
	<circle cx="29.35" cy="329.94" data-y="1.26" data-x="1584489600" r="1" fill="white"><title>2020-03-18: 1</title></circle>
	<circle cx="31.40" cy="325.43" data-y="1.38" data-x="1584576000" r="1" fill="white"><title>2020-03-19: 1</title></circle>
	<circle cx="33.45" cy="311.91" data-y="1.76" data-x="1584662400" r="1" fill="white"><title>2020-03-20: 2</title></circle>
	<circle cx="35.50" cy="302.90" data-y="2.01" data-x="1584748800" r="1" fill="white"><title>2020-03-21: 2</title></circle>
	<circle cx="37.55" cy="289.38" data-y="2.39" data-x="1584835200" r="1" fill="white"><title>2020-03-22: 2</title></circle>
	<circle cx="39.59" cy="284.88" data-y="2.52" data-x="1584921600" r="1" fill="white"><title>2020-03-23: 3</title></circle>
	<circle cx="41.64" cy="266.85" data-y="3.02" data-x="1585008000" r="1" fill="white"><title>2020-03-24: 3</title></circle>
	<circle cx="43.69" cy="271.36" data-y="2.89" data-x="1585094400" r="1" fill="white"><title>2020-03-25: 3</title></circle>
	<circle cx="45.74" cy="271.36" data-y="2.89" data-x="1585180800" r="1" fill="white"><title>2020-03-26: 3</title></circle>
	<circle cx="47.79" cy="244.32" data-y="3.65" data-x="1585267200" r="1" fill="white"><title>2020-03-27: 4</title></circle>
	<circle cx="49.84" cy="235.31" data-y="3.90" data-x="1585353600" r="1" fill="white"><title>2020-03-28: 4</title></circle>
	<circle cx="51.89" cy="226.30" data-y="4.15" data-x="1585440000" r="1" fill="white"><title>2020-03-29: 4</title></circle>
	<circle cx="53.94" cy="217.28" data-y="4.40" data-x="1585526400" r="1" fill="white"><title>2020-03-30: 4</title></circle>
	<circle cx="55.99" cy="212.78" data-y="4.53" data-x="1585612800" r="1" fill="white"><title>2020-03-31: 5</title></circle>
	<circle cx="58.04" cy="199.26" data-y="4.91" data-x="1585699200" r="1" fill="white"><title>2020-04-01: 5</title></circle>
	<circle cx="60.09" cy="185.74" data-y="5.28" data-x="1585785600" r="1" fill="white"><title>2020-04-02: 5</title></circle>
	<circle cx="62.14" cy="199.26" data-y="4.91" data-x="1585872000" r="1" fill="white"><title>2020-04-03: 5</title></circle>
	<circle cx="64.19" cy="185.74" data-y="5.28" data-x="1585958400" r="1" fill="white"><title>2020-04-04: 5</title></circle>
	<circle cx="66.24" cy="176.73" data-y="5.54" data-x="1586044800" r="1" fill="white"><title>2020-04-05: 6</title></circle>
	<circle cx="68.29" cy="163.21" data-y="5.91" data-x="1586131200" r="1" fill="white"><title>2020-04-06: 6</title></circle>
	<circle cx="70.34" cy="176.73" data-y="5.54" data-x="1586217600" r="1" fill="white"><title>2020-04-07: 6</title></circle>
	<circle cx="72.39" cy="158.70" data-y="6.04" data-x="1586304000" r="1" fill="white"><title>2020-04-08: 6</title></circle>
	<circle cx="74.44" cy="163.21" data-y="5.91" data-x="1586390400" r="1" fill="white"><title>2020-04-09: 6</title></circle>
	<circle cx="76.49" cy="163.21" data-y="5.91" data-x="1586476800" r="1" fill="white"><title>2020-04-10: 6</title></circle>
	<circle cx="78.54" cy="154.20" data-y="6.17" data-x="1586563200" r="1" fill="white"><title>2020-04-11: 6</title></circle>
	<circle cx="80.59" cy="145.19" data-y="6.42" data-x="1586649600" r="1" fill="white"><title>2020-04-12: 6</title></circle>
	<circle cx="82.64" cy="154.20" data-y="6.17" data-x="1586736000" r="1" fill="white"><title>2020-04-13: 6</title></circle>
	<circle cx="84.68" cy="149.69" data-y="6.29" data-x="1586822400" r="1" fill="white"><title>2020-04-14: 6</title></circle>
	<circle cx="86.73" cy="149.69" data-y="6.29" data-x="1586908800" r="1" fill="white"><title>2020-04-15: 6</title></circle>
	<circle cx="88.78" cy="131.67" data-y="6.79" data-x="1586995200" r="1" fill="white"><title>2020-04-16: 7</title></circle>
	<circle cx="90.83" cy="131.67" data-y="6.79" data-x="1587081600" r="1" fill="white"><title>2020-04-17: 7</title></circle>
	<circle cx="92.88" cy="154.20" data-y="6.17" data-x="1587168000" r="1" fill="white"><title>2020-04-18: 6</title></circle>
	<circle cx="94.93" cy="194.75" data-y="5.03" data-x="1587254400" r="1" fill="white"><title>2020-04-19: 5</title></circle>
	<circle cx="96.98" cy="185.74" data-y="5.28" data-x="1587340800" r="1" fill="white"><title>2020-04-20: 5</title></circle>
	<circle cx="99.03" cy="167.72" data-y="5.79" data-x="1587427200" r="1" fill="white"><title>2020-04-21: 6</title></circle>
	<circle cx="101.08" cy="190.25" data-y="5.16" data-x="1587513600" r="1" fill="white"><title>2020-04-22: 5</title></circle>
	<circle cx="103.13" cy="199.26" data-y="4.91" data-x="1587600000" r="1" fill="white"><title>2020-04-23: 5</title></circle>
	<circle cx="105.18" cy="167.72" data-y="5.79" data-x="1587686400" r="1" fill="white"><title>2020-04-24: 6</title></circle>
	<circle cx="107.23" cy="104.63" data-y="7.55" data-x="1587772800" r="1" fill="white"><title>2020-04-25: 8</title></circle>
	<circle cx="109.28" cy="37.04" data-y="9.44" data-x="1587859200" r="1" fill="white"><title>2020-04-26: 9</title></circle>
	<circle cx="111.33" cy="23.52" data-y="9.81" data-x="1587945600" r="1" fill="white"><title>2020-04-27: 10</title></circle>
	<circle cx="113.38" cy="14.51" data-y="10.07" data-x="1588032000" r="1" fill="white"><title>2020-04-28: 10</title></circle>
	<circle cx="115.43" cy="10.00" data-y="10.19" data-x="1588118400" r="1" fill="white"><title>2020-04-29: 10</title></circle>
	<circle cx="117.48" cy="14.51" data-y="10.07" data-x="1588204800" r="1" fill="white"><title>2020-04-30: 10</title></circle>
	<circle cx="119.53" cy="41.54" data-y="9.31" data-x="1588291200" r="1" fill="white"><title>2020-05-01: 9</title></circle>
	<circle cx="121.58" cy="91.11" data-y="7.93" data-x="1588377600" r="1" fill="white"><title>2020-05-02: 8</title></circle>
	<circle cx="123.63" cy="140.68" data-y="6.54" data-x="1588464000" r="1" fill="white"><title>2020-05-03: 7</title></circle>
	<circle cx="125.68" cy="176.73" data-y="5.54" data-x="1588550400" r="1" fill="white"><title>2020-05-04: 6</title></circle>
	<circle cx="127.73" cy="212.78" data-y="4.53" data-x="1588636800" r="1" fill="white"><title>2020-05-05: 5</title></circle>
	<circle cx="129.77" cy="230.80" data-y="4.03" data-x="1588723200" r="1" fill="white"><title>2020-05-06: 4</title></circle>
	<circle cx="131.82" cy="221.79" data-y="4.28" data-x="1588809600" r="1" fill="white"><title>2020-05-07: 4</title></circle>
	<circle cx="133.87" cy="248.83" data-y="3.52" data-x="1588896000" r="1" fill="white"><title>2020-05-08: 4</title></circle>
	<circle cx="135.92" cy="266.85" data-y="3.02" data-x="1588982400" r="1" fill="white"><title>2020-05-09: 3</title></circle>
	<circle cx="137.97" cy="280.37" data-y="2.64" data-x="1589068800" r="1" fill="white"><title>2020-05-10: 3</title></circle>
	<circle cx="140.02" cy="253.33" data-y="3.40" data-x="1589155200" r="1" fill="white"><title>2020-05-11: 3</title></circle>
	<circle cx="142.07" cy="257.84" data-y="3.27" data-x="1589241600" r="1" fill="white"><title>2020-05-12: 3</title></circle>
	<circle cx="144.12" cy="253.33" data-y="3.40" data-x="1589328000" r="1" fill="white"><title>2020-05-13: 3</title></circle>
	<circle cx="146.17" cy="271.36" data-y="2.89" data-x="1589414400" r="1" fill="white"><title>2020-05-14: 3</title></circle>
	<circle cx="148.22" cy="257.84" data-y="3.27" data-x="1589500800" r="1" fill="white"><title>2020-05-15: 3</title></circle>
	<circle cx="150.27" cy="257.84" data-y="3.27" data-x="1589587200" r="1" fill="white"><title>2020-05-16: 3</title></circle>
	<circle cx="152.32" cy="266.85" data-y="3.02" data-x="1589673600" r="1" fill="white"><title>2020-05-17: 3</title></circle>
	<circle cx="154.37" cy="284.88" data-y="2.52" data-x="1589760000" r="1" fill="white"><title>2020-05-18: 3</title></circle>
	<circle cx="156.42" cy="280.37" data-y="2.64" data-x="1589846400" r="1" fill="white"><title>2020-05-19: 3</title></circle>
	<circle cx="158.47" cy="284.88" data-y="2.52" data-x="1589932800" r="1" fill="white"><title>2020-05-20: 3</title></circle>
	<circle cx="160.52" cy="293.89" data-y="2.26" data-x="1590019200" r="1" fill="white"><title>2020-05-21: 2</title></circle>
	<circle cx="162.57" cy="284.88" data-y="2.52" data-x="1590105600" r="1" fill="white"><title>2020-05-22: 3</title></circle>
	<circle cx="164.62" cy="298.40" data-y="2.14" data-x="1590192000" r="1" fill="white"><title>2020-05-23: 2</title></circle>
	<circle cx="166.67" cy="302.90" data-y="2.01" data-x="1590278400" r="1" fill="white"><title>2020-05-24: 2</title></circle>
	<circle cx="168.72" cy="320.93" data-y="1.51" data-x="1590364800" r="1" fill="white"><title>2020-05-25: 2</title></circle>
	<circle cx="170.77" cy="334.44" data-y="1.13" data-x="1590451200" r="1" fill="white"><title>2020-05-26: 1</title></circle>
	<circle cx="172.82" cy="334.44" data-y="1.13" data-x="1590537600" r="1" fill="white"><title>2020-05-27: 1</title></circle>
	<circle cx="174.86" cy="320.93" data-y="1.51" data-x="1590624000" r="1" fill="white"><title>2020-05-28: 2</title></circle>
	<circle cx="176.91" cy="334.44" data-y="1.13" data-x="1590710400" r="1" fill="white"><title>2020-05-29: 1</title></circle>
	<circle cx="178.96" cy="329.94" data-y="1.26" data-x="1590796800" r="1" fill="white"><title>2020-05-30: 1</title></circle>
	<circle cx="181.01" cy="329.94" data-y="1.26" data-x="1590883200" r="1" fill="white"><title>2020-05-31: 1</title></circle>
	<circle cx="183.06" cy="320.93" data-y="1.51" data-x="1590969600" r="1" fill="white"><title>2020-06-01: 2</title></circle>
	<circle cx="185.11" cy="316.42" data-y="1.64" data-x="1591056000" r="1" fill="white"><title>2020-06-02: 2</title></circle>
	<circle cx="187.16" cy="311.91" data-y="1.76" data-x="1591142400" r="1" fill="white"><title>2020-06-03: 2</title></circle>
	<circle cx="189.21" cy="325.43" data-y="1.38" data-x="1591228800" r="1" fill="white"><title>2020-06-04: 1</title></circle>
	<circle cx="191.26" cy="334.44" data-y="1.13" data-x="1591315200" r="1" fill="white"><title>2020-06-05: 1</title></circle>
	<circle cx="193.31" cy="334.44" data-y="1.13" data-x="1591401600" r="1" fill="white"><title>2020-06-06: 1</title></circle>
	<circle cx="195.36" cy="325.43" data-y="1.38" data-x="1591488000" r="1" fill="white"><title>2020-06-07: 1</title></circle>
	<circle cx="197.41" cy="325.43" data-y="1.38" data-x="1591574400" r="1" fill="white"><title>2020-06-08: 1</title></circle>
	<circle cx="199.46" cy="329.94" data-y="1.26" data-x="1591660800" r="1" fill="white"><title>2020-06-09: 1</title></circle>
	<circle cx="201.51" cy="334.44" data-y="1.13" data-x="1591747200" r="1" fill="white"><title>2020-06-10: 1</title></circle>
	<circle cx="203.56" cy="334.44" data-y="1.13" data-x="1591833600" r="1" fill="white"><title>2020-06-11: 1</title></circle>
	<circle cx="205.61" cy="338.95" data-y="1.01" data-x="1591920000" r="1" fill="white"><title>2020-06-12: 1</title></circle>
	<circle cx="207.66" cy="343.46" data-y="0.88" data-x="1592006400" r="1" fill="white"><title>2020-06-13: 1</title></circle>
	<circle cx="209.71" cy="356.98" data-y="0.50" data-x="1592092800" r="1" fill="white"><title>2020-06-14: 1</title></circle>
	<circle cx="211.76" cy="361.48" data-y="0.38" data-x="1592179200" r="1" fill="white"><title>2020-06-15: 0</title></circle>
	<circle cx="213.81" cy="356.98" data-y="0.50" data-x="1592265600" r="1" fill="white"><title>2020-06-16: 1</title></circle>
	<circle cx="215.86" cy="356.98" data-y="0.50" data-x="1592352000" r="1" fill="white"><title>2020-06-17: 1</title></circle>
	<circle cx="217.91" cy="356.98" data-y="0.50" data-x="1592438400" r="1" fill="white"><title>2020-06-18: 1</title></circle>
	<circle cx="219.95" cy="356.98" data-y="0.50" data-x="1592524800" r="1" fill="white"><title>2020-06-19: 1</title></circle>
	<circle cx="222.00" cy="361.48" data-y="0.38" data-x="1592611200" r="1" fill="white"><title>2020-06-20: 0</title></circle>
	<circle cx="224.05" cy="361.48" data-y="0.38" data-x="1592697600" r="1" fill="white"><title>2020-06-21: 0</title></circle>
	<circle cx="226.10" cy="352.47" data-y="0.63" data-x="1592784000" r="1" fill="white"><title>2020-06-22: 1</title></circle>
	<circle cx="228.15" cy="352.47" data-y="0.63" data-x="1592870400" r="1" fill="white"><title>2020-06-23: 1</title></circle>
	<circle cx="230.20" cy="347.96" data-y="0.75" data-x="1592956800" r="1" fill="white"><title>2020-06-24: 1</title></circle>
	<circle cx="232.25" cy="347.96" data-y="0.75" data-x="1593043200" r="1" fill="white"><title>2020-06-25: 1</title></circle>
	<circle cx="234.30" cy="343.46" data-y="0.88" data-x="1593129600" r="1" fill="white"><title>2020-06-26: 1</title></circle>
	<circle cx="236.35" cy="343.46" data-y="0.88" data-x="1593216000" r="1" fill="white"><title>2020-06-27: 1</title></circle>
	<circle cx="238.40" cy="329.94" data-y="1.26" data-x="1593302400" r="1" fill="white"><title>2020-06-28: 1</title></circle>
	<circle cx="240.45" cy="325.43" data-y="1.38" data-x="1593388800" r="1" fill="white"><title>2020-06-29: 1</title></circle>
	<circle cx="242.50" cy="325.43" data-y="1.38" data-x="1593475200" r="1" fill="white"><title>2020-06-30: 1</title></circle>
	<circle cx="244.55" cy="329.94" data-y="1.26" data-x="1593561600" r="1" fill="white"><title>2020-07-01: 1</title></circle>
	<circle cx="246.60" cy="316.42" data-y="1.64" data-x="1593648000" r="1" fill="white"><title>2020-07-02: 2</title></circle>
	<circle cx="248.65" cy="320.93" data-y="1.51" data-x="1593734400" r="1" fill="white"><title>2020-07-03: 2</title></circle>
	<circle cx="250.70" cy="316.42" data-y="1.64" data-x="1593820800" r="1" fill="white"><title>2020-07-04: 2</title></circle>
	<circle cx="252.75" cy="329.94" data-y="1.26" data-x="1593907200" r="1" fill="white"><title>2020-07-05: 1</title></circle>
	<circle cx="254.80" cy="347.96" data-y="0.75" data-x="1593993600" r="1" fill="white"><title>2020-07-06: 1</title></circle>
	<circle cx="256.85" cy="347.96" data-y="0.75" data-x="1594080000" r="1" fill="white"><title>2020-07-07: 1</title></circle>
	<circle cx="258.90" cy="347.96" data-y="0.75" data-x="1594166400" r="1" fill="white"><title>2020-07-08: 1</title></circle>
	<circle cx="260.95" cy="361.48" data-y="0.38" data-x="1594252800" r="1" fill="white"><title>2020-07-09: 0</title></circle>
	<circle cx="263.00" cy="361.48" data-y="0.38" data-x="1594339200" r="1" fill="white"><title>2020-07-10: 0</title></circle>
	<circle cx="265.05" cy="365.99" data-y="0.25" data-x="1594425600" r="1" fill="white"><title>2020-07-11: 0</title></circle>
	<circle cx="267.09" cy="361.48" data-y="0.38" data-x="1594512000" r="1" fill="white"><title>2020-07-12: 0</title></circle>
	<circle cx="269.14" cy="356.98" data-y="0.50" data-x="1594598400" r="1" fill="white"><title>2020-07-13: 1</title></circle>
	<circle cx="271.19" cy="361.48" data-y="0.38" data-x="1594684800" r="1" fill="white"><title>2020-07-14: 0</title></circle>
	<circle cx="273.24" cy="356.98" data-y="0.50" data-x="1594771200" r="1" fill="white"><title>2020-07-15: 1</title></circle>
	<circle cx="275.29" cy="334.44" data-y="1.13" data-x="1594857600" r="1" fill="white"><title>2020-07-16: 1</title></circle>
	<circle cx="277.34" cy="311.91" data-y="1.76" data-x="1594944000" r="1" fill="white"><title>2020-07-17: 2</title></circle>
	<circle cx="279.39" cy="302.90" data-y="2.01" data-x="1595030400" r="1" fill="white"><title>2020-07-18: 2</title></circle>
	<circle cx="281.44" cy="307.41" data-y="1.89" data-x="1595116800" r="1" fill="white"><title>2020-07-19: 2</title></circle>
	<circle cx="283.49" cy="302.90" data-y="2.01" data-x="1595203200" r="1" fill="white"><title>2020-07-20: 2</title></circle>
	<circle cx="285.54" cy="298.40" data-y="2.14" data-x="1595289600" r="1" fill="white"><title>2020-07-21: 2</title></circle>
	<circle cx="287.59" cy="298.40" data-y="2.14" data-x="1595376000" r="1" fill="white"><title>2020-07-22: 2</title></circle>
	<circle cx="289.64" cy="316.42" data-y="1.64" data-x="1595462400" r="1" fill="white"><title>2020-07-23: 2</title></circle>
	<circle cx="291.69" cy="325.43" data-y="1.38" data-x="1595548800" r="1" fill="white"><title>2020-07-24: 1</title></circle>
	<circle cx="293.74" cy="329.94" data-y="1.26" data-x="1595635200" r="1" fill="white"><title>2020-07-25: 1</title></circle>
	<circle cx="295.79" cy="329.94" data-y="1.26" data-x="1595721600" r="1" fill="white"><title>2020-07-26: 1</title></circle>
	<circle cx="297.84" cy="329.94" data-y="1.26" data-x="1595808000" r="1" fill="white"><title>2020-07-27: 1</title></circle>
	<circle cx="299.89" cy="334.44" data-y="1.13" data-x="1595894400" r="1" fill="white"><title>2020-07-28: 1</title></circle>
	<circle cx="301.94" cy="343.46" data-y="0.88" data-x="1595980800" r="1" fill="white"><title>2020-07-29: 1</title></circle>
	<circle cx="303.99" cy="347.96" data-y="0.75" data-x="1596067200" r="1" fill="white"><title>2020-07-30: 1</title></circle>
	<circle cx="306.04" cy="361.48" data-y="0.38" data-x="1596153600" r="1" fill="white"><title>2020-07-31: 0</title></circle>
	<circle cx="308.09" cy="361.48" data-y="0.38" data-x="1596240000" r="1" fill="white"><title>2020-08-01: 0</title></circle>
	<circle cx="310.14" cy="361.48" data-y="0.38" data-x="1596326400" r="1" fill="white"><title>2020-08-02: 0</title></circle>
	<circle cx="312.18" cy="370.49" data-y="0.13" data-x="1596412800" r="1" fill="white"><title>2020-08-03: 0</title></circle>
	<circle cx="314.23" cy="370.49" data-y="0.13" data-x="1596499200" r="1" fill="white"><title>2020-08-04: 0</title></circle>
	<circle cx="316.28" cy="370.49" data-y="0.13" data-x="1596585600" r="1" fill="white"><title>2020-08-05: 0</title></circle>
	<circle cx="318.33" cy="370.49" data-y="0.13" data-x="1596672000" r="1" fill="white"><title>2020-08-06: 0</title></circle>
	<circle cx="320.38" cy="365.99" data-y="0.25" data-x="1596758400" r="1" fill="white"><title>2020-08-07: 0</title></circle>
	<circle cx="322.43" cy="365.99" data-y="0.25" data-x="1596844800" r="1" fill="white"><title>2020-08-08: 0</title></circle>
	<circle cx="324.48" cy="352.47" data-y="0.63" data-x="1596931200" r="1" fill="white"><title>2020-08-09: 1</title></circle>
	<circle cx="326.53" cy="338.95" data-y="1.01" data-x="1597017600" r="1" fill="white"><title>2020-08-10: 1</title></circle>
	<circle cx="328.58" cy="338.95" data-y="1.01" data-x="1597104000" r="1" fill="white"><title>2020-08-11: 1</title></circle>
	<circle cx="330.63" cy="338.95" data-y="1.01" data-x="1597190400" r="1" fill="white"><title>2020-08-12: 1</title></circle>
	<circle cx="332.68" cy="338.95" data-y="1.01" data-x="1597276800" r="1" fill="white"><title>2020-08-13: 1</title></circle>
	<circle cx="334.73" cy="334.44" data-y="1.13" data-x="1597363200" r="1" fill="white"><title>2020-08-14: 1</title></circle>
	<circle cx="336.78" cy="325.43" data-y="1.38" data-x="1597449600" r="1" fill="white"><title>2020-08-15: 1</title></circle>
	<circle cx="338.83" cy="325.43" data-y="1.38" data-x="1597536000" r="1" fill="white"><title>2020-08-16: 1</title></circle>
	<circle cx="340.88" cy="338.95" data-y="1.01" data-x="1597622400" r="1" fill="white"><title>2020-08-17: 1</title></circle>
	<circle cx="342.93" cy="334.44" data-y="1.13" data-x="1597708800" r="1" fill="white"><title>2020-08-18: 1</title></circle>
	<circle cx="344.98" cy="334.44" data-y="1.13" data-x="1597795200" r="1" fill="white"><title>2020-08-19: 1</title></circle>
	<circle cx="347.03" cy="334.44" data-y="1.13" data-x="1597881600" r="1" fill="white"><title>2020-08-20: 1</title></circle>
	<circle cx="349.08" cy="338.95" data-y="1.01" data-x="1597968000" r="1" fill="white"><title>2020-08-21: 1</title></circle>
	<circle cx="351.13" cy="347.96" data-y="0.75" data-x="1598054400" r="1" fill="white"><title>2020-08-22: 1</title></circle>
	<circle cx="353.18" cy="361.48" data-y="0.38" data-x="1598140800" r="1" fill="white"><title>2020-08-23: 0</title></circle>
	<circle cx="355.23" cy="356.98" data-y="0.50" data-x="1598227200" r="1" fill="white"><title>2020-08-24: 1</title></circle>
	<circle cx="357.27" cy="347.96" data-y="0.75" data-x="1598313600" r="1" fill="white"><title>2020-08-25: 1</title></circle>
	<circle cx="359.32" cy="347.96" data-y="0.75" data-x="1598400000" r="1" fill="white"><title>2020-08-26: 1</title></circle>
	<circle cx="361.37" cy="343.46" data-y="0.88" data-x="1598486400" r="1" fill="white"><title>2020-08-27: 1</title></circle>
	<circle cx="363.42" cy="347.96" data-y="0.75" data-x="1598572800" r="1" fill="white"><title>2020-08-28: 1</title></circle>
	<circle cx="365.47" cy="352.47" data-y="0.63" data-x="1598659200" r="1" fill="white"><title>2020-08-29: 1</title></circle>
	<circle cx="367.52" cy="347.96" data-y="0.75" data-x="1598745600" r="1" fill="white"><title>2020-08-30: 1</title></circle>
	<circle cx="369.57" cy="347.96" data-y="0.75" data-x="1598832000" r="1" fill="white"><title>2020-08-31: 1</title></circle>
	<circle cx="371.62" cy="338.95" data-y="1.01" data-x="1598918400" r="1" fill="white"><title>2020-09-01: 1</title></circle>
	<circle cx="373.67" cy="338.95" data-y="1.01" data-x="1599004800" r="1" fill="white"><title>2020-09-02: 1</title></circle>
	<circle cx="375.72" cy="338.95" data-y="1.01" data-x="1599091200" r="1" fill="white"><title>2020-09-03: 1</title></circle>
	<circle cx="377.77" cy="302.90" data-y="2.01" data-x="1599177600" r="1" fill="white"><title>2020-09-04: 2</title></circle>
	<circle cx="379.82" cy="298.40" data-y="2.14" data-x="1599264000" r="1" fill="white"><title>2020-09-05: 2</title></circle>
	<circle cx="381.87" cy="302.90" data-y="2.01" data-x="1599350400" r="1" fill="white"><title>2020-09-06: 2</title></circle>
	<circle cx="383.92" cy="289.38" data-y="2.39" data-x="1599436800" r="1" fill="white"><title>2020-09-07: 2</title></circle>
	<circle cx="385.97" cy="311.91" data-y="1.76" data-x="1599523200" r="1" fill="white"><title>2020-09-08: 2</title></circle>
	<circle cx="388.02" cy="311.91" data-y="1.76" data-x="1599609600" r="1" fill="white"><title>2020-09-09: 2</title></circle>
	<circle cx="390.07" cy="311.91" data-y="1.76" data-x="1599696000" r="1" fill="white"><title>2020-09-10: 2</title></circle>
	<circle cx="392.12" cy="338.95" data-y="1.01" data-x="1599782400" r="1" fill="white"><title>2020-09-11: 1</title></circle>
	<circle cx="394.17" cy="343.46" data-y="0.88" data-x="1599868800" r="1" fill="white"><title>2020-09-12: 1</title></circle>
	<circle cx="396.22" cy="343.46" data-y="0.88" data-x="1599955200" r="1" fill="white"><title>2020-09-13: 1</title></circle>
	<circle cx="398.27" cy="361.48" data-y="0.38" data-x="1600041600" r="1" fill="white"><title>2020-09-14: 0</title></circle>
	<circle cx="400.32" cy="352.47" data-y="0.63" data-x="1600128000" r="1" fill="white"><title>2020-09-15: 1</title></circle>
	<circle cx="402.36" cy="347.96" data-y="0.75" data-x="1600214400" r="1" fill="white"><title>2020-09-16: 1</title></circle>
	<circle cx="404.41" cy="347.96" data-y="0.75" data-x="1600300800" r="1" fill="white"><title>2020-09-17: 1</title></circle>
	<circle cx="406.46" cy="334.44" data-y="1.13" data-x="1600387200" r="1" fill="white"><title>2020-09-18: 1</title></circle>
	<circle cx="408.51" cy="325.43" data-y="1.38" data-x="1600473600" r="1" fill="white"><title>2020-09-19: 1</title></circle>
	<circle cx="410.56" cy="302.90" data-y="2.01" data-x="1600560000" r="1" fill="white"><title>2020-09-20: 2</title></circle>
	<circle cx="412.61" cy="271.36" data-y="2.89" data-x="1600646400" r="1" fill="white"><title>2020-09-21: 3</title></circle>
	<circle cx="414.66" cy="257.84" data-y="3.27" data-x="1600732800" r="1" fill="white"><title>2020-09-22: 3</title></circle>
	<circle cx="416.71" cy="253.33" data-y="3.40" data-x="1600819200" r="1" fill="white"><title>2020-09-23: 3</title></circle>
	<circle cx="418.76" cy="239.81" data-y="3.77" data-x="1600905600" r="1" fill="white"><title>2020-09-24: 4</title></circle>
	<circle cx="420.81" cy="235.31" data-y="3.90" data-x="1600992000" r="1" fill="white"><title>2020-09-25: 4</title></circle>
	<circle cx="422.86" cy="230.80" data-y="4.03" data-x="1601078400" r="1" fill="white"><title>2020-09-26: 4</title></circle>
	<circle cx="424.91" cy="239.81" data-y="3.77" data-x="1601164800" r="1" fill="white"><title>2020-09-27: 4</title></circle>
	<circle cx="426.96" cy="253.33" data-y="3.40" data-x="1601251200" r="1" fill="white"><title>2020-09-28: 3</title></circle>
	<circle cx="429.01" cy="248.83" data-y="3.52" data-x="1601337600" r="1" fill="white"><title>2020-09-29: 4</title></circle>
	<circle cx="431.06" cy="217.28" data-y="4.40" data-x="1601424000" r="1" fill="white"><title>2020-09-30: 4</title></circle>
	<circle cx="433.11" cy="194.75" data-y="5.03" data-x="1601510400" r="1" fill="white"><title>2020-10-01: 5</title></circle>
	<circle cx="435.16" cy="190.25" data-y="5.16" data-x="1601596800" r="1" fill="white"><title>2020-10-02: 5</title></circle>
	<circle cx="437.21" cy="172.22" data-y="5.66" data-x="1601683200" r="1" fill="white"><title>2020-10-03: 6</title></circle>
	<circle cx="439.26" cy="145.19" data-y="6.42" data-x="1601769600" r="1" fill="white"><title>2020-10-04: 6</title></circle>
	<circle cx="441.31" cy="113.64" data-y="7.30" data-x="1601856000" r="1" fill="white"><title>2020-10-05: 7</title></circle>
	<circle cx="443.36" cy="122.65" data-y="7.05" data-x="1601942400" r="1" fill="white"><title>2020-10-06: 7</title></circle>
	<circle cx="445.41" cy="122.65" data-y="7.05" data-x="1602028800" r="1" fill="white"><title>2020-10-07: 7</title></circle>
	<circle cx="447.45" cy="140.68" data-y="6.54" data-x="1602115200" r="1" fill="white"><title>2020-10-08: 7</title></circle>
	<circle cx="449.50" cy="131.67" data-y="6.79" data-x="1602201600" r="1" fill="white"><title>2020-10-09: 7</title></circle>
	<circle cx="451.55" cy="127.16" data-y="6.92" data-x="1602288000" r="1" fill="white"><title>2020-10-10: 7</title></circle>
	<circle cx="453.60" cy="127.16" data-y="6.92" data-x="1602374400" r="1" fill="white"><title>2020-10-11: 7</title></circle>
	<circle cx="455.65" cy="118.15" data-y="7.17" data-x="1602460800" r="1" fill="white"><title>2020-10-12: 7</title></circle>
	<circle cx="457.70" cy="104.63" data-y="7.55" data-x="1602547200" r="1" fill="white"><title>2020-10-13: 8</title></circle>
	<circle cx="459.75" cy="140.68" data-y="6.54" data-x="1602633600" r="1" fill="white"><title>2020-10-14: 7</title></circle>
</g>
<g data-series="recent-cases" class="data-series">
	<path d="M 459.75,140.68L 461.80,163.21L 463.85,203.77L 465.90,217.28L 467.95,242.52L 470.00,311.91" id="Recent cases" class="line" stroke-width="1" stroke-linecap="round" stroke-dasharray="4,6" stroke-dashoffset="4"><title>Recent cases</title></path>
</g>
</svg>
