<svg width="480" height="400" viewBox="0 0 480 400" xmlns="http://www.w3.org/2000/svg" style="overflow:display" preserveAspectRatio="xMinYMin meet" overflow="visible">
<defs>
	<style>
	.data-series path.line { fill-opacity: 0; stroke: black; }
	.data-series path.line.dotted { stroke-dasharray: 12 20 }
	.data-series:hover path.line, .data-series.on path.line { stroke-width: 1; }
	.data-series:hover circle, .data-series.on circle { display: inline; }
	.graph-grid { font-family: "Helvetica Neue",Helvetica,Arial,"Lucida Grande",sans-serif; }
	.graph-grid line { stroke: black; stroke-width: 1; stroke-linecap: round; }
	.graph-grid.graph-grid-x text { text-anchor: middle; dominant-baseline: hanging; transform: translateY(10px); }
	.graph-grid.graph-grid-y text { text-anchor: end; dominant-baseline: middle; transform: translateX(-10px); }
	</style>
</defs>
<g class="graph-grid graph-grid-y">
	<line x1="25.00" y1="375.00" x2="470.00" y2="375.00" data-left="25"></line>
	<text x="35" y="375" text-anchor="end">0</text>
	<text x="35" y="277.222828629032" text-anchor="end">5</text>
	<text x="35" y="179.445657258065" text-anchor="end">10</text>
	<text x="35" y="81.6684858870968" text-anchor="end">15</text>
	<text style="text-anchor:middle;dominant-baseline:hanging;font-weight:bold;transform: translateY(192.5px) rotate(-90deg);"></text>
</g>
<g class="graph-grid graph-grid-x">
	<line class="tick" x1="65.99" y1="375.00" x2="65.99" y2="380.00"></line>
	<text x="65.9868421052632" y="375" text-anchor="middle">A</text>
	<line class="tick" x1="124.54" y1="375.00" x2="124.54" y2="380.00"></line>
	<text x="124.539473684211" y="375" text-anchor="middle">M</text>
	<line class="tick" x1="185.04" y1="375.00" x2="185.04" y2="380.00"></line>
	<text x="185.043859649123" y="375" text-anchor="middle">J</text>
	<line class="tick" x1="243.60" y1="375.00" x2="243.60" y2="380.00"></line>
	<text x="243.59649122807" y="375" text-anchor="middle">J</text>
	<line class="tick" x1="304.10" y1="375.00" x2="304.10" y2="380.00"></line>
	<text x="304.100877192982" y="375" text-anchor="middle">A</text>
	<line class="tick" x1="364.61" y1="375.00" x2="364.61" y2="380.00"></line>
	<text x="364.605263157895" y="375" text-anchor="middle">S</text>
	<line class="tick" x1="423.16" y1="375.00" x2="423.16" y2="380.00"></line>
	<text x="423.157894736842" y="375" text-anchor="middle">O</text>
	<text style="text-anchor:middle;dominant-baseline:hanging;font-weight:bold;transform: translateY(192.5px) rotate(-90deg);"></text>
</g>
<g data-series="widespread" class="data-series">
	<path d="M 25.00,238.11L 470.00,238.11" id="E07000155-level-0" class="line" stroke-width="1" stroke-linecap="round" stroke-dasharray="3,3" fill-opacity="0.3" opacity="0.3"><title>Widespread</title></path>
</g>
<g data-series="substantial" class="data-series">
	<path d="M 25.00,296.78L 470.00,296.78" id="E07000155-level-1" class="line" stroke-width="1" stroke-linecap="round" stroke-dasharray="3,3" fill-opacity="0.3" opacity="0.3"><title>Substantial</title></path>
</g>
<g data-series="moderate" class="data-series">
	<path d="M 25.00,355.44L 470.00,355.44" id="E07000155-level-2" class="line" stroke-width="1" stroke-linecap="round" stroke-dasharray="3,3" fill-opacity="0.3" opacity="0.3"><title>Moderate</title></path>
</g>
<g data-series="new-cases" class="data-series">
	<path d="M 25.00,364.70L 26.95,366.76L 28.90,368.13L 30.86,363.23L 32.81,366.17L 34.76,360.28L 36.71,360.28L 38.66,357.34L 40.61,354.40L 42.57,351.45L 44.52,351.45L 46.47,345.56L 48.42,339.68L 50.37,327.90L 52.32,330.85L 54.28,327.90L 56.23,316.13L 58.18,310.24L 60.13,298.47L 62.08,289.64L 64.04,286.69L 65.99,277.86L 67.94,269.03L 69.89,263.15L 71.84,274.92L 73.79,280.81L 75.75,289.64L 77.70,289.64L 79.65,292.58L 81.60,304.35L 83.55,322.02L 85.50,310.24L 87.46,313.19L 89.41,313.19L 91.36,322.02L 93.31,322.02L 95.26,319.07L 97.21,316.13L 99.17,324.96L 101.12,324.96L 103.07,330.85L 105.02,324.96L 106.97,330.85L 108.93,330.85L 110.88,322.02L 112.83,310.24L 114.78,313.19L 116.73,316.13L 118.68,322.02L 120.64,301.41L 122.59,304.35L 124.54,304.35L 126.49,313.19L 128.44,316.13L 130.39,295.52L 132.35,298.47L 134.30,316.13L 136.25,316.13L 138.20,322.02L 140.15,327.90L 142.11,316.13L 144.06,324.96L 146.01,313.19L 147.96,313.19L 149.91,304.35L 151.86,301.41L 153.82,298.47L 155.77,298.47L 157.72,304.35L 159.67,313.19L 161.62,310.24L 163.57,322.02L 165.53,327.90L 167.48,327.90L 169.43,333.79L 171.38,336.73L 173.33,327.90L 175.29,336.73L 177.24,330.85L 179.19,330.85L 181.14,319.07L 183.09,324.96L 185.04,327.90L 187.00,339.68L 188.95,339.68L 190.90,342.62L 192.85,348.51L 194.80,360.28L 196.75,357.34L 198.71,357.34L 200.66,351.45L 202.61,348.51L 204.56,339.68L 206.51,339.68L 208.46,339.68L 210.42,342.62L 212.37,342.62L 214.32,345.56L 216.27,336.73L 218.22,348.51L 220.18,342.62L 222.13,333.79L 224.08,336.73L 226.03,333.79L 227.98,336.73L 229.93,348.51L 231.89,345.56L 233.84,351.45L 235.79,357.34L 237.74,357.34L 239.69,363.23L 241.64,366.17L 243.60,360.28L 245.55,363.23L 247.50,363.23L 249.45,369.11L 251.40,363.23L 253.36,357.34L 255.31,357.34L 257.26,363.23L 259.21,360.28L 261.16,360.28L 263.11,357.34L 265.07,363.23L 267.02,366.17L 268.97,366.17L 270.92,366.17L 272.87,369.11L 274.82,366.17L 276.78,363.23L 278.73,363.23L 280.68,366.17L 282.63,366.17L 284.58,366.17L 286.54,366.17L 288.49,366.17L 290.44,369.11L 292.39,369.11L 294.34,369.11L 296.29,366.17L 298.25,366.17L 300.20,366.17L 302.15,369.11L 304.10,366.17L 306.05,366.17L 308.00,366.17L 309.96,369.11L 311.91,363.23L 313.86,363.23L 315.81,363.23L 317.76,366.17L 319.71,366.17L 321.67,366.17L 323.62,366.17L 325.57,372.06L 327.52,369.11L 329.47,366.17L 331.43,369.11L 333.38,369.11L 335.33,366.17L 337.28,366.17L 339.23,360.28L 341.18,360.28L 343.14,363.23L 345.09,357.34L 347.04,351.45L 348.99,348.51L 350.94,345.56L 352.89,348.51L 354.85,351.45L 356.80,348.51L 358.75,345.56L 360.70,351.45L 362.65,357.34L 364.61,351.45L 366.56,345.56L 368.51,336.73L 370.46,336.73L 372.41,336.73L 374.36,333.79L 376.32,327.90L 378.27,333.79L 380.22,336.73L 382.17,339.68L 384.12,339.68L 386.07,345.56L 388.03,339.68L 389.98,342.62L 391.93,336.73L 393.88,339.68L 395.83,342.62L 397.79,336.73L 399.74,333.79L 401.69,336.73L 403.64,330.85L 405.59,333.79L 407.54,327.90L 409.50,324.96L 411.45,322.02L 413.40,324.96L 415.35,313.19L 417.30,301.41L 419.25,280.81L 421.21,274.92L 423.16,260.20L 425.11,233.71L 427.06,201.33L 429.01,183.67L 430.96,171.90L 432.92,142.46L 434.87,118.91L 436.82,107.14L 438.77,101.25L 440.72,80.65L 442.68,80.65L 444.63,68.87L 446.58,80.65L 448.53,89.48L 450.48,95.36L 452.43,65.93L 454.39,51.21L 456.34,10.00L 458.29,15.89L 460.24,33.55" id="New cases" class="line" stroke-width="1" stroke-linecap="round"><title>New cases</title></path>
	<circle cx="25.00" cy="364.70" data-y="0.53" data-x="1583884800" r="1" fill="white"><title>2020-03-11: 1</title></circle>
	<circle cx="26.95" cy="366.76" data-y="0.42" data-x="1583971200" r="1" fill="white"><title>2020-03-12: 0</title></circle>
	<circle cx="28.90" cy="368.13" data-y="0.35" data-x="1584057600" r="1" fill="white"><title>2020-03-13: 0</title></circle>
	<circle cx="30.86" cy="363.23" data-y="0.60" data-x="1584144000" r="1" fill="white"><title>2020-03-14: 1</title></circle>
	<circle cx="32.81" cy="366.17" data-y="0.45" data-x="1584230400" r="1" fill="white"><title>2020-03-15: 0</title></circle>
	<circle cx="34.76" cy="360.28" data-y="0.75" data-x="1584316800" r="1" fill="white"><title>2020-03-16: 1</title></circle>
	<circle cx="36.71" cy="360.28" data-y="0.75" data-x="1584403200" r="1" fill="white"><title>2020-03-17: 1</title></circle>
	<circle cx="38.66" cy="357.34" data-y="0.90" data-x="1584489600" r="1" fill="white"><title>2020-03-18: 1</title></circle>
	<circle cx="40.61" cy="354.40" data-y="1.05" data-x="1584576000" r="1" fill="white"><title>2020-03-19: 1</title></circle>
	<circle cx="42.57" cy="351.45" data-y="1.20" data-x="1584662400" r="1" fill="white"><title>2020-03-20: 1</title></circle>
	<circle cx="44.52" cy="351.45" data-y="1.20" data-x="1584748800" r="1" fill="white"><title>2020-03-21: 1</title></circle>
	<circle cx="46.47" cy="345.56" data-y="1.51" data-x="1584835200" r="1" fill="white"><title>2020-03-22: 2</title></circle>
	<circle cx="48.42" cy="339.68" data-y="1.81" data-x="1584921600" r="1" fill="white"><title>2020-03-23: 2</title></circle>
	<circle cx="50.37" cy="327.90" data-y="2.41" data-x="1585008000" r="1" fill="white"><title>2020-03-24: 2</title></circle>
	<circle cx="52.32" cy="330.85" data-y="2.26" data-x="1585094400" r="1" fill="white"><title>2020-03-25: 2</title></circle>
	<circle cx="54.28" cy="327.90" data-y="2.41" data-x="1585180800" r="1" fill="white"><title>2020-03-26: 2</title></circle>
	<circle cx="56.23" cy="316.13" data-y="3.01" data-x="1585267200" r="1" fill="white"><title>2020-03-27: 3</title></circle>
	<circle cx="58.18" cy="310.24" data-y="3.31" data-x="1585353600" r="1" fill="white"><title>2020-03-28: 3</title></circle>
	<circle cx="60.13" cy="298.47" data-y="3.91" data-x="1585440000" r="1" fill="white"><title>2020-03-29: 4</title></circle>
	<circle cx="62.08" cy="289.64" data-y="4.37" data-x="1585526400" r="1" fill="white"><title>2020-03-30: 4</title></circle>
	<circle cx="64.04" cy="286.69" data-y="4.52" data-x="1585612800" r="1" fill="white"><title>2020-03-31: 5</title></circle>
	<circle cx="65.99" cy="277.86" data-y="4.97" data-x="1585699200" r="1" fill="white"><title>2020-04-01: 5</title></circle>
	<circle cx="67.94" cy="269.03" data-y="5.42" data-x="1585785600" r="1" fill="white"><title>2020-04-02: 5</title></circle>
	<circle cx="69.89" cy="263.15" data-y="5.72" data-x="1585872000" r="1" fill="white"><title>2020-04-03: 6</title></circle>
	<circle cx="71.84" cy="274.92" data-y="5.12" data-x="1585958400" r="1" fill="white"><title>2020-04-04: 5</title></circle>
	<circle cx="73.79" cy="280.81" data-y="4.82" data-x="1586044800" r="1" fill="white"><title>2020-04-05: 5</title></circle>
	<circle cx="75.75" cy="289.64" data-y="4.37" data-x="1586131200" r="1" fill="white"><title>2020-04-06: 4</title></circle>
	<circle cx="77.70" cy="289.64" data-y="4.37" data-x="1586217600" r="1" fill="white"><title>2020-04-07: 4</title></circle>
	<circle cx="79.65" cy="292.58" data-y="4.21" data-x="1586304000" r="1" fill="white"><title>2020-04-08: 4</title></circle>
	<circle cx="81.60" cy="304.35" data-y="3.61" data-x="1586390400" r="1" fill="white"><title>2020-04-09: 4</title></circle>
	<circle cx="83.55" cy="322.02" data-y="2.71" data-x="1586476800" r="1" fill="white"><title>2020-04-10: 3</title></circle>
	<circle cx="85.50" cy="310.24" data-y="3.31" data-x="1586563200" r="1" fill="white"><title>2020-04-11: 3</title></circle>
	<circle cx="87.46" cy="313.19" data-y="3.16" data-x="1586649600" r="1" fill="white"><title>2020-04-12: 3</title></circle>
	<circle cx="89.41" cy="313.19" data-y="3.16" data-x="1586736000" r="1" fill="white"><title>2020-04-13: 3</title></circle>
	<circle cx="91.36" cy="322.02" data-y="2.71" data-x="1586822400" r="1" fill="white"><title>2020-04-14: 3</title></circle>
	<circle cx="93.31" cy="322.02" data-y="2.71" data-x="1586908800" r="1" fill="white"><title>2020-04-15: 3</title></circle>
	<circle cx="95.26" cy="319.07" data-y="2.86" data-x="1586995200" r="1" fill="white"><title>2020-04-16: 3</title></circle>
	<circle cx="97.21" cy="316.13" data-y="3.01" data-x="1587081600" r="1" fill="white"><title>2020-04-17: 3</title></circle>
	<circle cx="99.17" cy="324.96" data-y="2.56" data-x="1587168000" r="1" fill="white"><title>2020-04-18: 3</title></circle>
	<circle cx="101.12" cy="324.96" data-y="2.56" data-x="1587254400" r="1" fill="white"><title>2020-04-19: 3</title></circle>
	<circle cx="103.07" cy="330.85" data-y="2.26" data-x="1587340800" r="1" fill="white"><title>2020-04-20: 2</title></circle>
	<circle cx="105.02" cy="324.96" data-y="2.56" data-x="1587427200" r="1" fill="white"><title>2020-04-21: 3</title></circle>
	<circle cx="106.97" cy="330.85" data-y="2.26" data-x="1587513600" r="1" fill="white"><title>2020-04-22: 2</title></circle>
	<circle cx="108.93" cy="330.85" data-y="2.26" data-x="1587600000" r="1" fill="white"><title>2020-04-23: 2</title></circle>
	<circle cx="110.88" cy="322.02" data-y="2.71" data-x="1587686400" r="1" fill="white"><title>2020-04-24: 3</title></circle>
	<circle cx="112.83" cy="310.24" data-y="3.31" data-x="1587772800" r="1" fill="white"><title>2020-04-25: 3</title></circle>
	<circle cx="114.78" cy="313.19" data-y="3.16" data-x="1587859200" r="1" fill="white"><title>2020-04-26: 3</title></circle>
	<circle cx="116.73" cy="316.13" data-y="3.01" data-x="1587945600" r="1" fill="white"><title>2020-04-27: 3</title></circle>
	<circle cx="118.68" cy="322.02" data-y="2.71" data-x="1588032000" r="1" fill="white"><title>2020-04-28: 3</title></circle>
	<circle cx="120.64" cy="301.41" data-y="3.76" data-x="1588118400" r="1" fill="white"><title>2020-04-29: 4</title></circle>
	<circle cx="122.59" cy="304.35" data-y="3.61" data-x="1588204800" r="1" fill="white"><title>2020-04-30: 4</title></circle>
	<circle cx="124.54" cy="304.35" data-y="3.61" data-x="1588291200" r="1" fill="white"><title>2020-05-01: 4</title></circle>
	<circle cx="126.49" cy="313.19" data-y="3.16" data-x="1588377600" r="1" fill="white"><title>2020-05-02: 3</title></circle>
	<circle cx="128.44" cy="316.13" data-y="3.01" data-x="1588464000" r="1" fill="white"><title>2020-05-03: 3</title></circle>
	<circle cx="130.39" cy="295.52" data-y="4.06" data-x="1588550400" r="1" fill="white"><title>2020-05-04: 4</title></circle>
	<circle cx="132.35" cy="298.47" data-y="3.91" data-x="1588636800" r="1" fill="white"><title>2020-05-05: 4</title></circle>
	<circle cx="134.30" cy="316.13" data-y="3.01" data-x="1588723200" r="1" fill="white"><title>2020-05-06: 3</title></circle>
	<circle cx="136.25" cy="316.13" data-y="3.01" data-x="1588809600" r="1" fill="white"><title>2020-05-07: 3</title></circle>
	<circle cx="138.20" cy="322.02" data-y="2.71" data-x="1588896000" r="1" fill="white"><title>2020-05-08: 3</title></circle>
	<circle cx="140.15" cy="327.90" data-y="2.41" data-x="1588982400" r="1" fill="white"><title>2020-05-09: 2</title></circle>
	<circle cx="142.11" cy="316.13" data-y="3.01" data-x="1589068800" r="1" fill="white"><title>2020-05-10: 3</title></circle>
	<circle cx="144.06" cy="324.96" data-y="2.56" data-x="1589155200" r="1" fill="white"><title>2020-05-11: 3</title></circle>
	<circle cx="146.01" cy="313.19" data-y="3.16" data-x="1589241600" r="1" fill="white"><title>2020-05-12: 3</title></circle>
	<circle cx="147.96" cy="313.19" data-y="3.16" data-x="1589328000" r="1" fill="white"><title>2020-05-13: 3</title></circle>
	<circle cx="149.91" cy="304.35" data-y="3.61" data-x="1589414400" r="1" fill="white"><title>2020-05-14: 4</title></circle>
	<circle cx="151.86" cy="301.41" data-y="3.76" data-x="1589500800" r="1" fill="white"><title>2020-05-15: 4</title></circle>
	<circle cx="153.82" cy="298.47" data-y="3.91" data-x="1589587200" r="1" fill="white"><title>2020-05-16: 4</title></circle>
	<circle cx="155.77" cy="298.47" data-y="3.91" data-x="1589673600" r="1" fill="white"><title>2020-05-17: 4</title></circle>
	<circle cx="157.72" cy="304.35" data-y="3.61" data-x="1589760000" r="1" fill="white"><title>2020-05-18: 4</title></circle>
	<circle cx="159.67" cy="313.19" data-y="3.16" data-x="1589846400" r="1" fill="white"><title>2020-05-19: 3</title></circle>
	<circle cx="161.62" cy="310.24" data-y="3.31" data-x="1589932800" r="1" fill="white"><title>2020-05-20: 3</title></circle>
	<circle cx="163.57" cy="322.02" data-y="2.71" data-x="1590019200" r="1" fill="white"><title>2020-05-21: 3</title></circle>
	<circle cx="165.53" cy="327.90" data-y="2.41" data-x="1590105600" r="1" fill="white"><title>2020-05-22: 2</title></circle>
	<circle cx="167.48" cy="327.90" data-y="2.41" data-x="1590192000" r="1" fill="white"><title>2020-05-23: 2</title></circle>
	<circle cx="169.43" cy="333.79" data-y="2.11" data-x="1590278400" r="1" fill="white"><title>2020-05-24: 2</title></circle>
	<circle cx="171.38" cy="336.73" data-y="1.96" data-x="1590364800" r="1" fill="white"><title>2020-05-25: 2</title></circle>
	<circle cx="173.33" cy="327.90" data-y="2.41" data-x="1590451200" r="1" fill="white"><title>2020-05-26: 2</title></circle>
	<circle cx="175.29" cy="336.73" data-y="1.96" data-x="1590537600" r="1" fill="white"><title>2020-05-27: 2</title></circle>
	<circle cx="177.24" cy="330.85" data-y="2.26" data-x="1590624000" r="1" fill="white"><title>2020-05-28: 2</title></circle>
	<circle cx="179.19" cy="330.85" data-y="2.26" data-x="1590710400" r="1" fill="white"><title>2020-05-29: 2</title></circle>
	<circle cx="181.14" cy="319.07" data-y="2.86" data-x="1590796800" r="1" fill="white"><title>2020-05-30: 3</title></circle>
	<circle cx="183.09" cy="324.96" data-y="2.56" data-x="1590883200" r="1" fill="white"><title>2020-05-31: 3</title></circle>
	<circle cx="185.04" cy="327.90" data-y="2.41" data-x="1590969600" r="1" fill="white"><title>2020-06-01: 2</title></circle>
	<circle cx="187.00" cy="339.68" data-y="1.81" data-x="1591056000" r="1" fill="white"><title>2020-06-02: 2</title></circle>
	<circle cx="188.95" cy="339.68" data-y="1.81" data-x="1591142400" r="1" fill="white"><title>2020-06-03: 2</title></circle>
	<circle cx="190.90" cy="342.62" data-y="1.66" data-x="1591228800" r="1" fill="white"><title>2020-06-04: 2</title></circle>
	<circle cx="192.85" cy="348.51" data-y="1.35" data-x="1591315200" r="1" fill="white"><title>2020-06-05: 1</title></circle>
	<circle cx="194.80" cy="360.28" data-y="0.75" data-x="1591401600" r="1" fill="white"><title>2020-06-06: 1</title></circle>
	<circle cx="196.75" cy="357.34" data-y="0.90" data-x="1591488000" r="1" fill="white"><title>2020-06-07: 1</title></circle>
	<circle cx="198.71" cy="357.34" data-y="0.90" data-x="1591574400" r="1" fill="white"><title>2020-06-08: 1</title></circle>
	<circle cx="200.66" cy="351.45" data-y="1.20" data-x="1591660800" r="1" fill="white"><title>2020-06-09: 1</title></circle>
	<circle cx="202.61" cy="348.51" data-y="1.35" data-x="1591747200" r="1" fill="white"><title>2020-06-10: 1</title></circle>
	<circle cx="204.56" cy="339.68" data-y="1.81" data-x="1591833600" r="1" fill="white"><title>2020-06-11: 2</title></circle>
	<circle cx="206.51" cy="339.68" data-y="1.81" data-x="1591920000" r="1" fill="white"><title>2020-06-12: 2</title></circle>
	<circle cx="208.46" cy="339.68" data-y="1.81" data-x="1592006400" r="1" fill="white"><title>2020-06-13: 2</title></circle>
	<circle cx="210.42" cy="342.62" data-y="1.66" data-x="1592092800" r="1" fill="white"><title>2020-06-14: 2</title></circle>
	<circle cx="212.37" cy="342.62" data-y="1.66" data-x="1592179200" r="1" fill="white"><title>2020-06-15: 2</title></circle>
	<circle cx="214.32" cy="345.56" data-y="1.51" data-x="1592265600" r="1" fill="white"><title>2020-06-16: 2</title></circle>
	<circle cx="216.27" cy="336.73" data-y="1.96" data-x="1592352000" r="1" fill="white"><title>2020-06-17: 2</title></circle>
	<circle cx="218.22" cy="348.51" data-y="1.35" data-x="1592438400" r="1" fill="white"><title>2020-06-18: 1</title></circle>
	<circle cx="220.18" cy="342.62" data-y="1.66" data-x="1592524800" r="1" fill="white"><title>2020-06-19: 2</title></circle>
	<circle cx="222.13" cy="333.79" data-y="2.11" data-x="1592611200" r="1" fill="white"><title>2020-06-20: 2</title></circle>
	<circle cx="224.08" cy="336.73" data-y="1.96" data-x="1592697600" r="1" fill="white"><title>2020-06-21: 2</title></circle>
	<circle cx="226.03" cy="333.79" data-y="2.11" data-x="1592784000" r="1" fill="white"><title>2020-06-22: 2</title></circle>
	<circle cx="227.98" cy="336.73" data-y="1.96" data-x="1592870400" r="1" fill="white"><title>2020-06-23: 2</title></circle>
	<circle cx="229.93" cy="348.51" data-y="1.35" data-x="1592956800" r="1" fill="white"><title>2020-06-24: 1</title></circle>
	<circle cx="231.89" cy="345.56" data-y="1.51" data-x="1593043200" r="1" fill="white"><title>2020-06-25: 2</title></circle>
	<circle cx="233.84" cy="351.45" data-y="1.20" data-x="1593129600" r="1" fill="white"><title>2020-06-26: 1</title></circle>
	<circle cx="235.79" cy="357.34" data-y="0.90" data-x="1593216000" r="1" fill="white"><title>2020-06-27: 1</title></circle>
	<circle cx="237.74" cy="357.34" data-y="0.90" data-x="1593302400" r="1" fill="white"><title>2020-06-28: 1</title></circle>
	<circle cx="239.69" cy="363.23" data-y="0.60" data-x="1593388800" r="1" fill="white"><title>2020-06-29: 1</title></circle>
	<circle cx="241.64" cy="366.17" data-y="0.45" data-x="1593475200" r="1" fill="white"><title>2020-06-30: 0</title></circle>
	<circle cx="243.60" cy="360.28" data-y="0.75" data-x="1593561600" r="1" fill="white"><title>2020-07-01: 1</title></circle>
	<circle cx="245.55" cy="363.23" data-y="0.60" data-x="1593648000" r="1" fill="white"><title>2020-07-02: 1</title></circle>
	<circle cx="247.50" cy="363.23" data-y="0.60" data-x="1593734400" r="1" fill="white"><title>2020-07-03: 1</title></circle>
	<circle cx="249.45" cy="369.11" data-y="0.30" data-x="1593820800" r="1" fill="white"><title>2020-07-04: 0</title></circle>
	<circle cx="251.40" cy="363.23" data-y="0.60" data-x="1593907200" r="1" fill="white"><title>2020-07-05: 1</title></circle>
	<circle cx="253.36" cy="357.34" data-y="0.90" data-x="1593993600" r="1" fill="white"><title>2020-07-06: 1</title></circle>
	<circle cx="255.31" cy="357.34" data-y="0.90" data-x="1594080000" r="1" fill="white"><title>2020-07-07: 1</title></circle>
	<circle cx="257.26" cy="363.23" data-y="0.60" data-x="1594166400" r="1" fill="white"><title>2020-07-08: 1</title></circle>
	<circle cx="259.21" cy="360.28" data-y="0.75" data-x="1594252800" r="1" fill="white"><title>2020-07-09: 1</title></circle>
	<circle cx="261.16" cy="360.28" data-y="0.75" data-x="1594339200" r="1" fill="white"><title>2020-07-10: 1</title></circle>
	<circle cx="263.11" cy="357.34" data-y="0.90" data-x="1594425600" r="1" fill="white"><title>2020-07-11: 1</title></circle>
	<circle cx="265.07" cy="363.23" data-y="0.60" data-x="1594512000" r="1" fill="white"><title>2020-07-12: 1</title></circle>
	<circle cx="267.02" cy="366.17" data-y="0.45" data-x="1594598400" r="1" fill="white"><title>2020-07-13: 0</title></circle>
	<circle cx="268.97" cy="366.17" data-y="0.45" data-x="1594684800" r="1" fill="white"><title>2020-07-14: 0</title></circle>
	<circle cx="270.92" cy="366.17" data-y="0.45" data-x="1594771200" r="1" fill="white"><title>2020-07-15: 0</title></circle>
	<circle cx="272.87" cy="369.11" data-y="0.30" data-x="1594857600" r="1" fill="white"><title>2020-07-16: 0</title></circle>
	<circle cx="274.82" cy="366.17" data-y="0.45" data-x="1594944000" r="1" fill="white"><title>2020-07-17: 0</title></circle>
	<circle cx="276.78" cy="363.23" data-y="0.60" data-x="1595030400" r="1" fill="white"><title>2020-07-18: 1</title></circle>
	<circle cx="278.73" cy="363.23" data-y="0.60" data-x="1595116800" r="1" fill="white"><title>2020-07-19: 1</title></circle>
	<circle cx="280.68" cy="366.17" data-y="0.45" data-x="1595203200" r="1" fill="white"><title>2020-07-20: 0</title></circle>
	<circle cx="282.63" cy="366.17" data-y="0.45" data-x="1595289600" r="1" fill="white"><title>2020-07-21: 0</title></circle>
	<circle cx="284.58" cy="366.17" data-y="0.45" data-x="1595376000" r="1" fill="white"><title>2020-07-22: 0</title></circle>
	<circle cx="286.54" cy="366.17" data-y="0.45" data-x="1595462400" r="1" fill="white"><title>2020-07-23: 0</title></circle>
	<circle cx="288.49" cy="366.17" data-y="0.45" data-x="1595548800" r="1" fill="white"><title>2020-07-24: 0</title></circle>
	<circle cx="290.44" cy="369.11" data-y="0.30" data-x="1595635200" r="1" fill="white"><title>2020-07-25: 0</title></circle>
	<circle cx="292.39" cy="369.11" data-y="0.30" data-x="1595721600" r="1" fill="white"><title>2020-07-26: 0</title></circle>
	<circle cx="294.34" cy="369.11" data-y="0.30" data-x="1595808000" r="1" fill="white"><title>2020-07-27: 0</title></circle>
	<circle cx="296.29" cy="366.17" data-y="0.45" data-x="1595894400" r="1" fill="white"><title>2020-07-28: 0</title></circle>
	<circle cx="298.25" cy="366.17" data-y="0.45" data-x="1595980800" r="1" fill="white"><title>2020-07-29: 0</title></circle>
	<circle cx="300.20" cy="366.17" data-y="0.45" data-x="1596067200" r="1" fill="white"><title>2020-07-30: 0</title></circle>
	<circle cx="302.15" cy="369.11" data-y="0.30" data-x="1596153600" r="1" fill="white"><title>2020-07-31: 0</title></circle>
	<circle cx="304.10" cy="366.17" data-y="0.45" data-x="1596240000" r="1" fill="white"><title>2020-08-01: 0</title></circle>
	<circle cx="306.05" cy="366.17" data-y="0.45" data-x="1596326400" r="1" fill="white"><title>2020-08-02: 0</title></circle>
	<circle cx="308.00" cy="366.17" data-y="0.45" data-x="1596412800" r="1" fill="white"><title>2020-08-03: 0</title></circle>
	<circle cx="309.96" cy="369.11" data-y="0.30" data-x="1596499200" r="1" fill="white"><title>2020-08-04: 0</title></circle>
	<circle cx="311.91" cy="363.23" data-y="0.60" data-x="1596585600" r="1" fill="white"><title>2020-08-05: 1</title></circle>
	<circle cx="313.86" cy="363.23" data-y="0.60" data-x="1596672000" r="1" fill="white"><title>2020-08-06: 1</title></circle>
	<circle cx="315.81" cy="363.23" data-y="0.60" data-x="1596758400" r="1" fill="white"><title>2020-08-07: 1</title></circle>
	<circle cx="317.76" cy="366.17" data-y="0.45" data-x="1596844800" r="1" fill="white"><title>2020-08-08: 0</title></circle>
	<circle cx="319.71" cy="366.17" data-y="0.45" data-x="1596931200" r="1" fill="white"><title>2020-08-09: 0</title></circle>
	<circle cx="321.67" cy="366.17" data-y="0.45" data-x="1597017600" r="1" fill="white"><title>2020-08-10: 0</title></circle>
	<circle cx="323.62" cy="366.17" data-y="0.45" data-x="1597104000" r="1" fill="white"><title>2020-08-11: 0</title></circle>
	<circle cx="325.57" cy="372.06" data-y="0.15" data-x="1597190400" r="1" fill="white"><title>2020-08-12: 0</title></circle>
	<circle cx="327.52" cy="369.11" data-y="0.30" data-x="1597276800" r="1" fill="white"><title>2020-08-13: 0</title></circle>
	<circle cx="329.47" cy="366.17" data-y="0.45" data-x="1597363200" r="1" fill="white"><title>2020-08-14: 0</title></circle>
	<circle cx="331.43" cy="369.11" data-y="0.30" data-x="1597449600" r="1" fill="white"><title>2020-08-15: 0</title></circle>
	<circle cx="333.38" cy="369.11" data-y="0.30" data-x="1597536000" r="1" fill="white"><title>2020-08-16: 0</title></circle>
	<circle cx="335.33" cy="366.17" data-y="0.45" data-x="1597622400" r="1" fill="white"><title>2020-08-17: 0</title></circle>
	<circle cx="337.28" cy="366.17" data-y="0.45" data-x="1597708800" r="1" fill="white"><title>2020-08-18: 0</title></circle>
	<circle cx="339.23" cy="360.28" data-y="0.75" data-x="1597795200" r="1" fill="white"><title>2020-08-19: 1</title></circle>
	<circle cx="341.18" cy="360.28" data-y="0.75" data-x="1597881600" r="1" fill="white"><title>2020-08-20: 1</title></circle>
	<circle cx="343.14" cy="363.23" data-y="0.60" data-x="1597968000" r="1" fill="white"><title>2020-08-21: 1</title></circle>
	<circle cx="345.09" cy="357.34" data-y="0.90" data-x="1598054400" r="1" fill="white"><title>2020-08-22: 1</title></circle>
	<circle cx="347.04" cy="351.45" data-y="1.20" data-x="1598140800" r="1" fill="white"><title>2020-08-23: 1</title></circle>
	<circle cx="348.99" cy="348.51" data-y="1.35" data-x="1598227200" r="1" fill="white"><title>2020-08-24: 1</title></circle>
	<circle cx="350.94" cy="345.56" data-y="1.51" data-x="1598313600" r="1" fill="white"><title>2020-08-25: 2</title></circle>
	<circle cx="352.89" cy="348.51" data-y="1.35" data-x="1598400000" r="1" fill="white"><title>2020-08-26: 1</title></circle>
	<circle cx="354.85" cy="351.45" data-y="1.20" data-x="1598486400" r="1" fill="white"><title>2020-08-27: 1</title></circle>
	<circle cx="356.80" cy="348.51" data-y="1.35" data-x="1598572800" r="1" fill="white"><title>2020-08-28: 1</title></circle>
	<circle cx="358.75" cy="345.56" data-y="1.51" data-x="1598659200" r="1" fill="white"><title>2020-08-29: 2</title></circle>
	<circle cx="360.70" cy="351.45" data-y="1.20" data-x="1598745600" r="1" fill="white"><title>2020-08-30: 1</title></circle>
	<circle cx="362.65" cy="357.34" data-y="0.90" data-x="1598832000" r="1" fill="white"><title>2020-08-31: 1</title></circle>
	<circle cx="364.61" cy="351.45" data-y="1.20" data-x="1598918400" r="1" fill="white"><title>2020-09-01: 1</title></circle>
	<circle cx="366.56" cy="345.56" data-y="1.51" data-x="1599004800" r="1" fill="white"><title>2020-09-02: 2</title></circle>
	<circle cx="368.51" cy="336.73" data-y="1.96" data-x="1599091200" r="1" fill="white"><title>2020-09-03: 2</title></circle>
	<circle cx="370.46" cy="336.73" data-y="1.96" data-x="1599177600" r="1" fill="white"><title>2020-09-04: 2</title></circle>
	<circle cx="372.41" cy="336.73" data-y="1.96" data-x="1599264000" r="1" fill="white"><title>2020-09-05: 2</title></circle>
	<circle cx="374.36" cy="333.79" data-y="2.11" data-x="1599350400" r="1" fill="white"><title>2020-09-06: 2</title></circle>
	<circle cx="376.32" cy="327.90" data-y="2.41" data-x="1599436800" r="1" fill="white"><title>2020-09-07: 2</title></circle>
	<circle cx="378.27" cy="333.79" data-y="2.11" data-x="1599523200" r="1" fill="white"><title>2020-09-08: 2</title></circle>
	<circle cx="380.22" cy="336.73" data-y="1.96" data-x="1599609600" r="1" fill="white"><title>2020-09-09: 2</title></circle>
	<circle cx="382.17" cy="339.68" data-y="1.81" data-x="1599696000" r="1" fill="white"><title>2020-09-10: 2</title></circle>
	<circle cx="384.12" cy="339.68" data-y="1.81" data-x="1599782400" r="1" fill="white"><title>2020-09-11: 2</title></circle>
	<circle cx="386.07" cy="345.56" data-y="1.51" data-x="1599868800" r="1" fill="white"><title>2020-09-12: 2</title></circle>
	<circle cx="388.03" cy="339.68" data-y="1.81" data-x="1599955200" r="1" fill="white"><title>2020-09-13: 2</title></circle>
	<circle cx="389.98" cy="342.62" data-y="1.66" data-x="1600041600" r="1" fill="white"><title>2020-09-14: 2</title></circle>
	<circle cx="391.93" cy="336.73" data-y="1.96" data-x="1600128000" r="1" fill="white"><title>2020-09-15: 2</title></circle>
	<circle cx="393.88" cy="339.68" data-y="1.81" data-x="1600214400" r="1" fill="white"><title>2020-09-16: 2</title></circle>
	<circle cx="395.83" cy="342.62" data-y="1.66" data-x="1600300800" r="1" fill="white"><title>2020-09-17: 2</title></circle>
	<circle cx="397.79" cy="336.73" data-y="1.96" data-x="1600387200" r="1" fill="white"><title>2020-09-18: 2</title></circle>
	<circle cx="399.74" cy="333.79" data-y="2.11" data-x="1600473600" r="1" fill="white"><title>2020-09-19: 2</title></circle>
	<circle cx="401.69" cy="336.73" data-y="1.96" data-x="1600560000" r="1" fill="white"><title>2020-09-20: 2</title></circle>
	<circle cx="403.64" cy="330.85" data-y="2.26" data-x="1600646400" r="1" fill="white"><title>2020-09-21: 2</title></circle>
	<circle cx="405.59" cy="333.79" data-y="2.11" data-x="1600732800" r="1" fill="white"><title>2020-09-22: 2</title></circle>
	<circle cx="407.54" cy="327.90" data-y="2.41" data-x="1600819200" r="1" fill="white"><title>2020-09-23: 2</title></circle>
	<circle cx="409.50" cy="324.96" data-y="2.56" data-x="1600905600" r="1" fill="white"><title>2020-09-24: 3</title></circle>
	<circle cx="411.45" cy="322.02" data-y="2.71" data-x="1600992000" r="1" fill="white"><title>2020-09-25: 3</title></circle>
	<circle cx="413.40" cy="324.96" data-y="2.56" data-x="1601078400" r="1" fill="white"><title>2020-09-26: 3</title></circle>
	<circle cx="415.35" cy="313.19" data-y="3.16" data-x="1601164800" r="1" fill="white"><title>2020-09-27: 3</title></circle>
	<circle cx="417.30" cy="301.41" data-y="3.76" data-x="1601251200" r="1" fill="white"><title>2020-09-28: 4</title></circle>
	<circle cx="419.25" cy="280.81" data-y="4.82" data-x="1601337600" r="1" fill="white"><title>2020-09-29: 5</title></circle>
	<circle cx="421.21" cy="274.92" data-y="5.12" data-x="1601424000" r="1" fill="white"><title>2020-09-30: 5</title></circle>
	<circle cx="423.16" cy="260.20" data-y="5.87" data-x="1601510400" r="1" fill="white"><title>2020-10-01: 6</title></circle>
	<circle cx="425.11" cy="233.71" data-y="7.23" data-x="1601596800" r="1" fill="white"><title>2020-10-02: 7</title></circle>
	<circle cx="427.06" cy="201.33" data-y="8.88" data-x="1601683200" r="1" fill="white"><title>2020-10-03: 9</title></circle>
	<circle cx="429.01" cy="183.67" data-y="9.78" data-x="1601769600" r="1" fill="white"><title>2020-10-04: 10</title></circle>
	<circle cx="430.96" cy="171.90" data-y="10.39" data-x="1601856000" r="1" fill="white"><title>2020-10-05: 10</title></circle>
	<circle cx="432.92" cy="142.46" data-y="11.89" data-x="1601942400" r="1" fill="white"><title>2020-10-06: 12</title></circle>
	<circle cx="434.87" cy="118.91" data-y="13.10" data-x="1602028800" r="1" fill="white"><title>2020-10-07: 13</title></circle>
	<circle cx="436.82" cy="107.14" data-y="13.70" data-x="1602115200" r="1" fill="white"><title>2020-10-08: 14</title></circle>
	<circle cx="438.77" cy="101.25" data-y="14.00" data-x="1602201600" r="1" fill="white"><title>2020-10-09: 14</title></circle>
	<circle cx="440.72" cy="80.65" data-y="15.05" data-x="1602288000" r="1" fill="white"><title>2020-10-10: 15</title></circle>
	<circle cx="442.68" cy="80.65" data-y="15.05" data-x="1602374400" r="1" fill="white"><title>2020-10-11: 15</title></circle>
	<circle cx="444.63" cy="68.87" data-y="15.65" data-x="1602460800" r="1" fill="white"><title>2020-10-12: 16</title></circle>
	<circle cx="446.58" cy="80.65" data-y="15.05" data-x="1602547200" r="1" fill="white"><title>2020-10-13: 15</title></circle>
	<circle cx="448.53" cy="89.48" data-y="14.60" data-x="1602633600" r="1" fill="white"><title>2020-10-14: 15</title></circle>
	<circle cx="450.48" cy="95.36" data-y="14.30" data-x="1602720000" r="1" fill="white"><title>2020-10-15: 14</title></circle>
	<circle cx="452.43" cy="65.93" data-y="15.80" data-x="1602806400" r="1" fill="white"><title>2020-10-16: 16</title></circle>
	<circle cx="454.39" cy="51.21" data-y="16.56" data-x="1602892800" r="1" fill="white"><title>2020-10-17: 17</title></circle>
	<circle cx="456.34" cy="10.00" data-y="18.66" data-x="1602979200" r="1" fill="white"><title>2020-10-18: 19</title></circle>
	<circle cx="458.29" cy="15.89" data-y="18.36" data-x="1603065600" r="1" fill="white"><title>2020-10-19: 18</title></circle>
	<circle cx="460.24" cy="33.55" data-y="17.46" data-x="1603152000" r="1" fill="white"><title>2020-10-20: 17</title></circle>
</g>
<g data-series="recent-cases" class="data-series">
	<path d="M 460.24,33.55L 462.19,51.21L 464.14,74.76L 466.10,110.57L 468.05,156.59L 470.00,235.92" id="Recent cases" class="line" stroke-width="1" stroke-linecap="round" stroke-dasharray="4,6" stroke-dashoffset="4"><title>Recent cases</title></path>
	<circle cx="460.24" cy="33.55" data-y="17.46" data-x="1603152000" r="2.5" fill="white"><title>2020-10-20: 17</title></circle>
	<circle cx="462.19" cy="51.21" data-y="16.56" data-x="1603238400" r="2.5" fill="white"><title>2020-10-21: 17</title></circle>
	<circle cx="464.14" cy="74.76" data-y="15.35" data-x="1603324800" r="2.5" fill="white"><title>2020-10-22: 15</title></circle>
	<circle cx="466.10" cy="110.57" data-y="13.52" data-x="1603411200" r="2.5" fill="white"><title>2020-10-23: 14</title></circle>
	<circle cx="468.05" cy="156.59" data-y="11.17" data-x="1603497600" r="2.5" fill="white"><title>2020-10-24: 11</title></circle>
	<circle cx="470.00" cy="235.92" data-y="7.11" data-x="1603584000" r="2.5" fill="white"><title>2020-10-25: 7</title></circle>
</g>
</svg>
