<svg width="480" height="400" viewBox="0 0 480 400" xmlns="http://www.w3.org/2000/svg" style="overflow:display" preserveAspectRatio="xMinYMin meet" overflow="visible">
<defs>
	<style>
	.data-series path.line { fill-opacity: 0; stroke: black; }
	.data-series path.line.dotted { stroke-dasharray: 12 20 }
	.data-series:hover path.line, .data-series.on path.line { stroke-width: 1; }
	.data-series:hover circle, .data-series.on circle { display: inline; }
	.graph-grid { font-family: "Helvetica Neue",Helvetica,Arial,"Lucida Grande",sans-serif; }
	.graph-grid line { stroke: black; stroke-width: 1; stroke-linecap: round; }
	.graph-grid.graph-grid-x text { text-anchor: middle; dominant-baseline: hanging; transform: translateY(10px); }
	.graph-grid.graph-grid-y text { text-anchor: end; dominant-baseline: middle; transform: translateX(-10px); }
	</style>
</defs>
<g class="graph-grid graph-grid-y">
	<line x1="25.00" y1="375.00" x2="470.00" y2="375.00" data-left="25"></line>
	<text x="35" y="375" text-anchor="end">0</text>
	<text x="35" y="281.672316358025" text-anchor="end">10</text>
	<text x="35" y="188.344632716049" text-anchor="end">20</text>
	<text x="35" y="95.0169490740741" text-anchor="end">30</text>
	<text x="35" y="1.68926543209878" text-anchor="end">40</text>
	<text style="text-anchor:middle;dominant-baseline:hanging;font-weight:bold;transform: translateY(192.5px) rotate(-90deg);"></text>
</g>
<g class="graph-grid graph-grid-x">
	<line class="tick" x1="66.44" y1="375.00" x2="66.44" y2="380.00"></line>
	<text x="66.4372469635628" y="375" text-anchor="middle">A</text>
	<line class="tick" x1="120.49" y1="375.00" x2="120.49" y2="380.00"></line>
	<text x="120.485829959514" y="375" text-anchor="middle">M</text>
	<line class="tick" x1="176.34" y1="375.00" x2="176.34" y2="380.00"></line>
	<text x="176.336032388664" y="375" text-anchor="middle">J</text>
	<line class="tick" x1="230.38" y1="375.00" x2="230.38" y2="380.00"></line>
	<text x="230.384615384615" y="375" text-anchor="middle">J</text>
	<line class="tick" x1="286.23" y1="375.00" x2="286.23" y2="380.00"></line>
	<text x="286.234817813765" y="375" text-anchor="middle">A</text>
	<line class="tick" x1="342.09" y1="375.00" x2="342.09" y2="380.00"></line>
	<text x="342.085020242915" y="375" text-anchor="middle">S</text>
	<line class="tick" x1="396.13" y1="375.00" x2="396.13" y2="380.00"></line>
	<text x="396.133603238866" y="375" text-anchor="middle">O</text>
	<line class="tick" x1="451.98" y1="375.00" x2="451.98" y2="380.00"></line>
	<text x="451.983805668016" y="375" text-anchor="middle">N</text>
	<text style="text-anchor:middle;dominant-baseline:hanging;font-weight:bold;transform: translateY(192.5px) rotate(-90deg);"></text>
</g>
<g data-series="widespread" class="data-series">
	<path d="M 25.00,309.67L 470.00,309.67" id="E07000139-level-0" class="line" stroke-width="1" stroke-linecap="round" stroke-dasharray="3,3" fill-opacity="0.3" opacity="0.3"><title>Widespread</title></path>
</g>
<g data-series="substantial" class="data-series">
	<path d="M 25.00,337.67L 470.00,337.67" id="E07000139-level-1" class="line" stroke-width="1" stroke-linecap="round" stroke-dasharray="3,3" fill-opacity="0.3" opacity="0.3"><title>Substantial</title></path>
</g>
<g data-series="moderate" class="data-series">
	<path d="M 25.00,365.67L 470.00,365.67" id="E07000139-level-2" class="line" stroke-width="1" stroke-linecap="round" stroke-dasharray="3,3" fill-opacity="0.3" opacity="0.3"><title>Moderate</title></path>
</g>
<g data-series="new-cases" class="data-series">
	<path d="M 25.00,369.09L 26.80,370.27L 28.60,371.06L 30.40,371.62L 32.21,372.75L 34.01,372.75L 35.81,373.87L 37.61,373.87L 39.41,372.75L 41.21,371.62L 43.02,370.49L 44.82,365.99L 46.62,362.61L 48.42,361.48L 50.22,355.85L 52.02,347.96L 53.83,342.33L 55.63,336.70L 57.43,333.32L 59.23,333.32L 61.03,327.69L 62.83,331.06L 64.64,331.06L 66.44,332.19L 68.24,332.19L 70.04,331.06L 71.84,333.32L 73.64,338.95L 75.45,338.95L 77.25,345.71L 79.05,349.09L 80.85,354.72L 82.65,362.61L 84.45,360.35L 86.26,360.35L 88.06,359.23L 89.86,358.10L 91.66,359.23L 93.46,358.10L 95.26,355.85L 97.06,360.35L 98.87,356.98L 100.67,359.23L 102.47,359.23L 104.27,358.10L 106.07,354.72L 107.87,356.98L 109.68,356.98L 111.48,353.60L 113.28,347.96L 115.08,351.34L 116.88,353.60L 118.68,358.10L 120.49,356.98L 122.29,355.85L 124.09,363.73L 125.89,368.24L 127.69,367.11L 129.49,365.99L 131.30,362.61L 133.10,356.98L 134.90,346.84L 136.70,343.46L 138.50,344.58L 140.30,344.58L 142.11,343.46L 143.91,346.84L 145.71,352.47L 147.51,356.98L 149.31,360.35L 151.11,360.35L 152.91,361.48L 154.72,358.10L 156.52,358.10L 158.32,359.23L 160.12,363.73L 161.92,360.35L 163.72,361.48L 165.53,361.48L 167.33,367.11L 169.13,368.24L 170.93,368.24L 172.73,370.49L 174.53,373.87L 176.34,373.87L 178.14,372.75L 179.94,371.62L 181.74,371.62L 183.54,369.37L 185.34,369.37L 187.15,369.37L 188.95,369.37L 190.75,367.11L 192.55,368.24L 194.35,368.24L 196.15,371.62L 197.96,371.62L 199.76,371.62L 201.56,371.62L 203.36,375.00L 205.16,375.00L 206.96,375.00L 208.77,375.00L 210.57,375.00L 212.37,373.87L 214.17,373.87L 215.97,373.87L 217.77,372.75L 219.57,372.75L 221.38,372.75L 223.18,372.75L 224.98,373.87L 226.78,373.87L 228.58,373.87L 230.38,375.00L 232.19,373.87L 233.99,368.24L 235.79,368.24L 237.59,368.24L 239.39,368.24L 241.19,368.24L 243.00,368.24L 244.80,369.37L 246.60,375.00L 248.40,373.87L 250.20,373.87L 252.00,372.75L 253.81,372.75L 255.61,372.75L 257.41,372.75L 259.21,371.62L 261.01,372.75L 262.81,371.62L 264.62,372.75L 266.42,372.75L 268.22,372.75L 270.02,372.75L 271.82,373.87L 273.62,373.87L 275.43,375.00L 277.23,373.87L 279.03,373.87L 280.83,373.87L 282.63,372.75L 284.43,372.75L 286.23,372.75L 288.04,372.75L 289.84,373.87L 291.64,373.87L 293.44,373.87L 295.24,373.87L 297.04,372.75L 298.85,372.75L 300.65,369.37L 302.45,369.37L 304.25,368.24L 306.05,368.24L 307.85,369.37L 309.66,369.37L 311.46,369.37L 313.26,372.75L 315.06,372.75L 316.86,372.75L 318.66,372.75L 320.47,372.75L 322.27,372.75L 324.07,371.62L 325.87,371.62L 327.67,369.37L 329.47,369.37L 331.28,368.24L 333.08,368.24L 334.88,368.24L 336.68,367.11L 338.48,360.35L 340.28,351.34L 342.09,350.22L 343.89,346.84L 345.69,341.20L 347.49,336.70L 349.29,331.06L 351.09,333.32L 352.89,340.08L 354.70,340.08L 356.50,342.33L 358.30,345.71L 360.10,346.84L 361.90,352.47L 363.70,355.85L 365.51,358.10L 367.31,355.85L 369.11,353.60L 370.91,353.60L 372.71,352.47L 374.51,349.09L 376.32,340.08L 378.12,335.57L 379.92,335.57L 381.72,332.19L 383.52,328.81L 385.32,328.81L 387.13,326.56L 388.93,325.43L 390.73,319.80L 392.53,309.66L 394.33,298.40L 396.13,299.52L 397.94,297.27L 399.74,288.26L 401.54,289.38L 403.34,271.36L 405.14,270.23L 406.94,271.36L 408.74,262.35L 410.55,255.59L 412.35,248.83L 414.15,240.94L 415.95,256.71L 417.75,253.33L 419.55,249.95L 421.36,251.08L 423.16,231.93L 424.96,225.17L 426.76,215.03L 428.56,204.89L 430.36,204.89L 432.17,211.65L 433.97,202.64L 435.77,201.51L 437.57,199.26L 439.37,194.75L 441.17,169.97L 442.98,151.94L 444.78,128.29L 446.58,120.40L 448.38,67.45L 450.18,56.19L 451.98,33.66L 453.79,34.78L 455.59,22.39L 457.39,23.52L 459.19,10.00L 460.99,15.63" id="New cases" class="line" stroke-width="1" stroke-linecap="round"><title>New cases</title></path>
	<circle cx="25.00" cy="369.09" data-y="0.63" data-x="1583712000" r="1" fill="white"><title>2020-03-09: 1</title></circle>
	<circle cx="26.80" cy="370.27" data-y="0.51" data-x="1583798400" r="1" fill="white"><title>2020-03-10: 1</title></circle>
	<circle cx="28.60" cy="371.06" data-y="0.42" data-x="1583884800" r="1" fill="white"><title>2020-03-11: 0</title></circle>
	<circle cx="30.40" cy="371.62" data-y="0.36" data-x="1583971200" r="1" fill="white"><title>2020-03-12: 0</title></circle>
	<circle cx="32.21" cy="372.75" data-y="0.24" data-x="1584057600" r="1" fill="white"><title>2020-03-13: 0</title></circle>
	<circle cx="34.01" cy="372.75" data-y="0.24" data-x="1584144000" r="1" fill="white"><title>2020-03-14: 0</title></circle>
	<circle cx="35.81" cy="373.87" data-y="0.12" data-x="1584230400" r="1" fill="white"><title>2020-03-15: 0</title></circle>
	<circle cx="37.61" cy="373.87" data-y="0.12" data-x="1584316800" r="1" fill="white"><title>2020-03-16: 0</title></circle>
	<circle cx="39.41" cy="372.75" data-y="0.24" data-x="1584403200" r="1" fill="white"><title>2020-03-17: 0</title></circle>
	<circle cx="41.21" cy="371.62" data-y="0.36" data-x="1584489600" r="1" fill="white"><title>2020-03-18: 0</title></circle>
	<circle cx="43.02" cy="370.49" data-y="0.48" data-x="1584576000" r="1" fill="white"><title>2020-03-19: 0</title></circle>
	<circle cx="44.82" cy="365.99" data-y="0.97" data-x="1584662400" r="1" fill="white"><title>2020-03-20: 1</title></circle>
	<circle cx="46.62" cy="362.61" data-y="1.33" data-x="1584748800" r="1" fill="white"><title>2020-03-21: 1</title></circle>
	<circle cx="48.42" cy="361.48" data-y="1.45" data-x="1584835200" r="1" fill="white"><title>2020-03-22: 1</title></circle>
	<circle cx="50.22" cy="355.85" data-y="2.05" data-x="1584921600" r="1" fill="white"><title>2020-03-23: 2</title></circle>
	<circle cx="52.02" cy="347.96" data-y="2.90" data-x="1585008000" r="1" fill="white"><title>2020-03-24: 3</title></circle>
	<circle cx="53.83" cy="342.33" data-y="3.50" data-x="1585094400" r="1" fill="white"><title>2020-03-25: 4</title></circle>
	<circle cx="55.63" cy="336.70" data-y="4.10" data-x="1585180800" r="1" fill="white"><title>2020-03-26: 4</title></circle>
	<circle cx="57.43" cy="333.32" data-y="4.47" data-x="1585267200" r="1" fill="white"><title>2020-03-27: 4</title></circle>
	<circle cx="59.23" cy="333.32" data-y="4.47" data-x="1585353600" r="1" fill="white"><title>2020-03-28: 4</title></circle>
	<circle cx="61.03" cy="327.69" data-y="5.07" data-x="1585440000" r="1" fill="white"><title>2020-03-29: 5</title></circle>
	<circle cx="62.83" cy="331.06" data-y="4.71" data-x="1585526400" r="1" fill="white"><title>2020-03-30: 5</title></circle>
	<circle cx="64.64" cy="331.06" data-y="4.71" data-x="1585612800" r="1" fill="white"><title>2020-03-31: 5</title></circle>
	<circle cx="66.44" cy="332.19" data-y="4.59" data-x="1585699200" r="1" fill="white"><title>2020-04-01: 5</title></circle>
	<circle cx="68.24" cy="332.19" data-y="4.59" data-x="1585785600" r="1" fill="white"><title>2020-04-02: 5</title></circle>
	<circle cx="70.04" cy="331.06" data-y="4.71" data-x="1585872000" r="1" fill="white"><title>2020-04-03: 5</title></circle>
	<circle cx="71.84" cy="333.32" data-y="4.47" data-x="1585958400" r="1" fill="white"><title>2020-04-04: 4</title></circle>
	<circle cx="73.64" cy="338.95" data-y="3.86" data-x="1586044800" r="1" fill="white"><title>2020-04-05: 4</title></circle>
	<circle cx="75.45" cy="338.95" data-y="3.86" data-x="1586131200" r="1" fill="white"><title>2020-04-06: 4</title></circle>
	<circle cx="77.25" cy="345.71" data-y="3.14" data-x="1586217600" r="1" fill="white"><title>2020-04-07: 3</title></circle>
	<circle cx="79.05" cy="349.09" data-y="2.78" data-x="1586304000" r="1" fill="white"><title>2020-04-08: 3</title></circle>
	<circle cx="80.85" cy="354.72" data-y="2.17" data-x="1586390400" r="1" fill="white"><title>2020-04-09: 2</title></circle>
	<circle cx="82.65" cy="362.61" data-y="1.33" data-x="1586476800" r="1" fill="white"><title>2020-04-10: 1</title></circle>
	<circle cx="84.45" cy="360.35" data-y="1.57" data-x="1586563200" r="1" fill="white"><title>2020-04-11: 2</title></circle>
	<circle cx="86.26" cy="360.35" data-y="1.57" data-x="1586649600" r="1" fill="white"><title>2020-04-12: 2</title></circle>
	<circle cx="88.06" cy="359.23" data-y="1.69" data-x="1586736000" r="1" fill="white"><title>2020-04-13: 2</title></circle>
	<circle cx="89.86" cy="358.10" data-y="1.81" data-x="1586822400" r="1" fill="white"><title>2020-04-14: 2</title></circle>
	<circle cx="91.66" cy="359.23" data-y="1.69" data-x="1586908800" r="1" fill="white"><title>2020-04-15: 2</title></circle>
	<circle cx="93.46" cy="358.10" data-y="1.81" data-x="1586995200" r="1" fill="white"><title>2020-04-16: 2</title></circle>
	<circle cx="95.26" cy="355.85" data-y="2.05" data-x="1587081600" r="1" fill="white"><title>2020-04-17: 2</title></circle>
	<circle cx="97.06" cy="360.35" data-y="1.57" data-x="1587168000" r="1" fill="white"><title>2020-04-18: 2</title></circle>
	<circle cx="98.87" cy="356.98" data-y="1.93" data-x="1587254400" r="1" fill="white"><title>2020-04-19: 2</title></circle>
	<circle cx="100.67" cy="359.23" data-y="1.69" data-x="1587340800" r="1" fill="white"><title>2020-04-20: 2</title></circle>
	<circle cx="102.47" cy="359.23" data-y="1.69" data-x="1587427200" r="1" fill="white"><title>2020-04-21: 2</title></circle>
	<circle cx="104.27" cy="358.10" data-y="1.81" data-x="1587513600" r="1" fill="white"><title>2020-04-22: 2</title></circle>
	<circle cx="106.07" cy="354.72" data-y="2.17" data-x="1587600000" r="1" fill="white"><title>2020-04-23: 2</title></circle>
	<circle cx="107.87" cy="356.98" data-y="1.93" data-x="1587686400" r="1" fill="white"><title>2020-04-24: 2</title></circle>
	<circle cx="109.68" cy="356.98" data-y="1.93" data-x="1587772800" r="1" fill="white"><title>2020-04-25: 2</title></circle>
	<circle cx="111.48" cy="353.60" data-y="2.29" data-x="1587859200" r="1" fill="white"><title>2020-04-26: 2</title></circle>
	<circle cx="113.28" cy="347.96" data-y="2.90" data-x="1587945600" r="1" fill="white"><title>2020-04-27: 3</title></circle>
	<circle cx="115.08" cy="351.34" data-y="2.53" data-x="1588032000" r="1" fill="white"><title>2020-04-28: 3</title></circle>
	<circle cx="116.88" cy="353.60" data-y="2.29" data-x="1588118400" r="1" fill="white"><title>2020-04-29: 2</title></circle>
	<circle cx="118.68" cy="358.10" data-y="1.81" data-x="1588204800" r="1" fill="white"><title>2020-04-30: 2</title></circle>
	<circle cx="120.49" cy="356.98" data-y="1.93" data-x="1588291200" r="1" fill="white"><title>2020-05-01: 2</title></circle>
	<circle cx="122.29" cy="355.85" data-y="2.05" data-x="1588377600" r="1" fill="white"><title>2020-05-02: 2</title></circle>
	<circle cx="124.09" cy="363.73" data-y="1.21" data-x="1588464000" r="1" fill="white"><title>2020-05-03: 1</title></circle>
	<circle cx="125.89" cy="368.24" data-y="0.72" data-x="1588550400" r="1" fill="white"><title>2020-05-04: 1</title></circle>
	<circle cx="127.69" cy="367.11" data-y="0.84" data-x="1588636800" r="1" fill="white"><title>2020-05-05: 1</title></circle>
	<circle cx="129.49" cy="365.99" data-y="0.97" data-x="1588723200" r="1" fill="white"><title>2020-05-06: 1</title></circle>
	<circle cx="131.30" cy="362.61" data-y="1.33" data-x="1588809600" r="1" fill="white"><title>2020-05-07: 1</title></circle>
	<circle cx="133.10" cy="356.98" data-y="1.93" data-x="1588896000" r="1" fill="white"><title>2020-05-08: 2</title></circle>
	<circle cx="134.90" cy="346.84" data-y="3.02" data-x="1588982400" r="1" fill="white"><title>2020-05-09: 3</title></circle>
	<circle cx="136.70" cy="343.46" data-y="3.38" data-x="1589068800" r="1" fill="white"><title>2020-05-10: 3</title></circle>
	<circle cx="138.50" cy="344.58" data-y="3.26" data-x="1589155200" r="1" fill="white"><title>2020-05-11: 3</title></circle>
	<circle cx="140.30" cy="344.58" data-y="3.26" data-x="1589241600" r="1" fill="white"><title>2020-05-12: 3</title></circle>
	<circle cx="142.11" cy="343.46" data-y="3.38" data-x="1589328000" r="1" fill="white"><title>2020-05-13: 3</title></circle>
	<circle cx="143.91" cy="346.84" data-y="3.02" data-x="1589414400" r="1" fill="white"><title>2020-05-14: 3</title></circle>
	<circle cx="145.71" cy="352.47" data-y="2.41" data-x="1589500800" r="1" fill="white"><title>2020-05-15: 2</title></circle>
	<circle cx="147.51" cy="356.98" data-y="1.93" data-x="1589587200" r="1" fill="white"><title>2020-05-16: 2</title></circle>
	<circle cx="149.31" cy="360.35" data-y="1.57" data-x="1589673600" r="1" fill="white"><title>2020-05-17: 2</title></circle>
	<circle cx="151.11" cy="360.35" data-y="1.57" data-x="1589760000" r="1" fill="white"><title>2020-05-18: 2</title></circle>
	<circle cx="152.91" cy="361.48" data-y="1.45" data-x="1589846400" r="1" fill="white"><title>2020-05-19: 1</title></circle>
	<circle cx="154.72" cy="358.10" data-y="1.81" data-x="1589932800" r="1" fill="white"><title>2020-05-20: 2</title></circle>
	<circle cx="156.52" cy="358.10" data-y="1.81" data-x="1590019200" r="1" fill="white"><title>2020-05-21: 2</title></circle>
	<circle cx="158.32" cy="359.23" data-y="1.69" data-x="1590105600" r="1" fill="white"><title>2020-05-22: 2</title></circle>
	<circle cx="160.12" cy="363.73" data-y="1.21" data-x="1590192000" r="1" fill="white"><title>2020-05-23: 1</title></circle>
	<circle cx="161.92" cy="360.35" data-y="1.57" data-x="1590278400" r="1" fill="white"><title>2020-05-24: 2</title></circle>
	<circle cx="163.72" cy="361.48" data-y="1.45" data-x="1590364800" r="1" fill="white"><title>2020-05-25: 1</title></circle>
	<circle cx="165.53" cy="361.48" data-y="1.45" data-x="1590451200" r="1" fill="white"><title>2020-05-26: 1</title></circle>
	<circle cx="167.33" cy="367.11" data-y="0.84" data-x="1590537600" r="1" fill="white"><title>2020-05-27: 1</title></circle>
	<circle cx="169.13" cy="368.24" data-y="0.72" data-x="1590624000" r="1" fill="white"><title>2020-05-28: 1</title></circle>
	<circle cx="170.93" cy="368.24" data-y="0.72" data-x="1590710400" r="1" fill="white"><title>2020-05-29: 1</title></circle>
	<circle cx="172.73" cy="370.49" data-y="0.48" data-x="1590796800" r="1" fill="white"><title>2020-05-30: 0</title></circle>
	<circle cx="174.53" cy="373.87" data-y="0.12" data-x="1590883200" r="1" fill="white"><title>2020-05-31: 0</title></circle>
	<circle cx="176.34" cy="373.87" data-y="0.12" data-x="1590969600" r="1" fill="white"><title>2020-06-01: 0</title></circle>
	<circle cx="178.14" cy="372.75" data-y="0.24" data-x="1591056000" r="1" fill="white"><title>2020-06-02: 0</title></circle>
	<circle cx="179.94" cy="371.62" data-y="0.36" data-x="1591142400" r="1" fill="white"><title>2020-06-03: 0</title></circle>
	<circle cx="181.74" cy="371.62" data-y="0.36" data-x="1591228800" r="1" fill="white"><title>2020-06-04: 0</title></circle>
	<circle cx="183.54" cy="369.37" data-y="0.60" data-x="1591315200" r="1" fill="white"><title>2020-06-05: 1</title></circle>
	<circle cx="185.34" cy="369.37" data-y="0.60" data-x="1591401600" r="1" fill="white"><title>2020-06-06: 1</title></circle>
	<circle cx="187.15" cy="369.37" data-y="0.60" data-x="1591488000" r="1" fill="white"><title>2020-06-07: 1</title></circle>
	<circle cx="188.95" cy="369.37" data-y="0.60" data-x="1591574400" r="1" fill="white"><title>2020-06-08: 1</title></circle>
	<circle cx="190.75" cy="367.11" data-y="0.84" data-x="1591660800" r="1" fill="white"><title>2020-06-09: 1</title></circle>
	<circle cx="192.55" cy="368.24" data-y="0.72" data-x="1591747200" r="1" fill="white"><title>2020-06-10: 1</title></circle>
	<circle cx="194.35" cy="368.24" data-y="0.72" data-x="1591833600" r="1" fill="white"><title>2020-06-11: 1</title></circle>
	<circle cx="196.15" cy="371.62" data-y="0.36" data-x="1591920000" r="1" fill="white"><title>2020-06-12: 0</title></circle>
	<circle cx="197.96" cy="371.62" data-y="0.36" data-x="1592006400" r="1" fill="white"><title>2020-06-13: 0</title></circle>
	<circle cx="199.76" cy="371.62" data-y="0.36" data-x="1592092800" r="1" fill="white"><title>2020-06-14: 0</title></circle>
	<circle cx="201.56" cy="371.62" data-y="0.36" data-x="1592179200" r="1" fill="white"><title>2020-06-15: 0</title></circle>
	<circle cx="203.36" cy="375.00" data-y="0.00" data-x="1592265600" r="1" fill="white"><title>2020-06-16: 0</title></circle>
	<circle cx="205.16" cy="375.00" data-y="0.00" data-x="1592352000" r="1" fill="white"><title>2020-06-17: 0</title></circle>
	<circle cx="206.96" cy="375.00" data-y="0.00" data-x="1592438400" r="1" fill="white"><title>2020-06-18: 0</title></circle>
	<circle cx="208.77" cy="375.00" data-y="0.00" data-x="1592524800" r="1" fill="white"><title>2020-06-19: 0</title></circle>
	<circle cx="210.57" cy="375.00" data-y="0.00" data-x="1592611200" r="1" fill="white"><title>2020-06-20: 0</title></circle>
	<circle cx="212.37" cy="373.87" data-y="0.12" data-x="1592697600" r="1" fill="white"><title>2020-06-21: 0</title></circle>
	<circle cx="214.17" cy="373.87" data-y="0.12" data-x="1592784000" r="1" fill="white"><title>2020-06-22: 0</title></circle>
	<circle cx="215.97" cy="373.87" data-y="0.12" data-x="1592870400" r="1" fill="white"><title>2020-06-23: 0</title></circle>
	<circle cx="217.77" cy="372.75" data-y="0.24" data-x="1592956800" r="1" fill="white"><title>2020-06-24: 0</title></circle>
	<circle cx="219.57" cy="372.75" data-y="0.24" data-x="1593043200" r="1" fill="white"><title>2020-06-25: 0</title></circle>
	<circle cx="221.38" cy="372.75" data-y="0.24" data-x="1593129600" r="1" fill="white"><title>2020-06-26: 0</title></circle>
	<circle cx="223.18" cy="372.75" data-y="0.24" data-x="1593216000" r="1" fill="white"><title>2020-06-27: 0</title></circle>
	<circle cx="224.98" cy="373.87" data-y="0.12" data-x="1593302400" r="1" fill="white"><title>2020-06-28: 0</title></circle>
	<circle cx="226.78" cy="373.87" data-y="0.12" data-x="1593388800" r="1" fill="white"><title>2020-06-29: 0</title></circle>
	<circle cx="228.58" cy="373.87" data-y="0.12" data-x="1593475200" r="1" fill="white"><title>2020-06-30: 0</title></circle>
	<circle cx="230.38" cy="375.00" data-y="0.00" data-x="1593561600" r="1" fill="white"><title>2020-07-01: 0</title></circle>
	<circle cx="232.19" cy="373.87" data-y="0.12" data-x="1593648000" r="1" fill="white"><title>2020-07-02: 0</title></circle>
	<circle cx="233.99" cy="368.24" data-y="0.72" data-x="1593734400" r="1" fill="white"><title>2020-07-03: 1</title></circle>
	<circle cx="235.79" cy="368.24" data-y="0.72" data-x="1593820800" r="1" fill="white"><title>2020-07-04: 1</title></circle>
	<circle cx="237.59" cy="368.24" data-y="0.72" data-x="1593907200" r="1" fill="white"><title>2020-07-05: 1</title></circle>
	<circle cx="239.39" cy="368.24" data-y="0.72" data-x="1593993600" r="1" fill="white"><title>2020-07-06: 1</title></circle>
	<circle cx="241.19" cy="368.24" data-y="0.72" data-x="1594080000" r="1" fill="white"><title>2020-07-07: 1</title></circle>
	<circle cx="243.00" cy="368.24" data-y="0.72" data-x="1594166400" r="1" fill="white"><title>2020-07-08: 1</title></circle>
	<circle cx="244.80" cy="369.37" data-y="0.60" data-x="1594252800" r="1" fill="white"><title>2020-07-09: 1</title></circle>
	<circle cx="246.60" cy="375.00" data-y="0.00" data-x="1594339200" r="1" fill="white"><title>2020-07-10: 0</title></circle>
	<circle cx="248.40" cy="373.87" data-y="0.12" data-x="1594425600" r="1" fill="white"><title>2020-07-11: 0</title></circle>
	<circle cx="250.20" cy="373.87" data-y="0.12" data-x="1594512000" r="1" fill="white"><title>2020-07-12: 0</title></circle>
	<circle cx="252.00" cy="372.75" data-y="0.24" data-x="1594598400" r="1" fill="white"><title>2020-07-13: 0</title></circle>
	<circle cx="253.81" cy="372.75" data-y="0.24" data-x="1594684800" r="1" fill="white"><title>2020-07-14: 0</title></circle>
	<circle cx="255.61" cy="372.75" data-y="0.24" data-x="1594771200" r="1" fill="white"><title>2020-07-15: 0</title></circle>
	<circle cx="257.41" cy="372.75" data-y="0.24" data-x="1594857600" r="1" fill="white"><title>2020-07-16: 0</title></circle>
	<circle cx="259.21" cy="371.62" data-y="0.36" data-x="1594944000" r="1" fill="white"><title>2020-07-17: 0</title></circle>
	<circle cx="261.01" cy="372.75" data-y="0.24" data-x="1595030400" r="1" fill="white"><title>2020-07-18: 0</title></circle>
	<circle cx="262.81" cy="371.62" data-y="0.36" data-x="1595116800" r="1" fill="white"><title>2020-07-19: 0</title></circle>
	<circle cx="264.62" cy="372.75" data-y="0.24" data-x="1595203200" r="1" fill="white"><title>2020-07-20: 0</title></circle>
	<circle cx="266.42" cy="372.75" data-y="0.24" data-x="1595289600" r="1" fill="white"><title>2020-07-21: 0</title></circle>
	<circle cx="268.22" cy="372.75" data-y="0.24" data-x="1595376000" r="1" fill="white"><title>2020-07-22: 0</title></circle>
	<circle cx="270.02" cy="372.75" data-y="0.24" data-x="1595462400" r="1" fill="white"><title>2020-07-23: 0</title></circle>
	<circle cx="271.82" cy="373.87" data-y="0.12" data-x="1595548800" r="1" fill="white"><title>2020-07-24: 0</title></circle>
	<circle cx="273.62" cy="373.87" data-y="0.12" data-x="1595635200" r="1" fill="white"><title>2020-07-25: 0</title></circle>
	<circle cx="275.43" cy="375.00" data-y="0.00" data-x="1595721600" r="1" fill="white"><title>2020-07-26: 0</title></circle>
	<circle cx="277.23" cy="373.87" data-y="0.12" data-x="1595808000" r="1" fill="white"><title>2020-07-27: 0</title></circle>
	<circle cx="279.03" cy="373.87" data-y="0.12" data-x="1595894400" r="1" fill="white"><title>2020-07-28: 0</title></circle>
	<circle cx="280.83" cy="373.87" data-y="0.12" data-x="1595980800" r="1" fill="white"><title>2020-07-29: 0</title></circle>
	<circle cx="282.63" cy="372.75" data-y="0.24" data-x="1596067200" r="1" fill="white"><title>2020-07-30: 0</title></circle>
	<circle cx="284.43" cy="372.75" data-y="0.24" data-x="1596153600" r="1" fill="white"><title>2020-07-31: 0</title></circle>
	<circle cx="286.23" cy="372.75" data-y="0.24" data-x="1596240000" r="1" fill="white"><title>2020-08-01: 0</title></circle>
	<circle cx="288.04" cy="372.75" data-y="0.24" data-x="1596326400" r="1" fill="white"><title>2020-08-02: 0</title></circle>
	<circle cx="289.84" cy="373.87" data-y="0.12" data-x="1596412800" r="1" fill="white"><title>2020-08-03: 0</title></circle>
	<circle cx="291.64" cy="373.87" data-y="0.12" data-x="1596499200" r="1" fill="white"><title>2020-08-04: 0</title></circle>
	<circle cx="293.44" cy="373.87" data-y="0.12" data-x="1596585600" r="1" fill="white"><title>2020-08-05: 0</title></circle>
	<circle cx="295.24" cy="373.87" data-y="0.12" data-x="1596672000" r="1" fill="white"><title>2020-08-06: 0</title></circle>
	<circle cx="297.04" cy="372.75" data-y="0.24" data-x="1596758400" r="1" fill="white"><title>2020-08-07: 0</title></circle>
	<circle cx="298.85" cy="372.75" data-y="0.24" data-x="1596844800" r="1" fill="white"><title>2020-08-08: 0</title></circle>
	<circle cx="300.65" cy="369.37" data-y="0.60" data-x="1596931200" r="1" fill="white"><title>2020-08-09: 1</title></circle>
	<circle cx="302.45" cy="369.37" data-y="0.60" data-x="1597017600" r="1" fill="white"><title>2020-08-10: 1</title></circle>
	<circle cx="304.25" cy="368.24" data-y="0.72" data-x="1597104000" r="1" fill="white"><title>2020-08-11: 1</title></circle>
	<circle cx="306.05" cy="368.24" data-y="0.72" data-x="1597190400" r="1" fill="white"><title>2020-08-12: 1</title></circle>
	<circle cx="307.85" cy="369.37" data-y="0.60" data-x="1597276800" r="1" fill="white"><title>2020-08-13: 1</title></circle>
	<circle cx="309.66" cy="369.37" data-y="0.60" data-x="1597363200" r="1" fill="white"><title>2020-08-14: 1</title></circle>
	<circle cx="311.46" cy="369.37" data-y="0.60" data-x="1597449600" r="1" fill="white"><title>2020-08-15: 1</title></circle>
	<circle cx="313.26" cy="372.75" data-y="0.24" data-x="1597536000" r="1" fill="white"><title>2020-08-16: 0</title></circle>
	<circle cx="315.06" cy="372.75" data-y="0.24" data-x="1597622400" r="1" fill="white"><title>2020-08-17: 0</title></circle>
	<circle cx="316.86" cy="372.75" data-y="0.24" data-x="1597708800" r="1" fill="white"><title>2020-08-18: 0</title></circle>
	<circle cx="318.66" cy="372.75" data-y="0.24" data-x="1597795200" r="1" fill="white"><title>2020-08-19: 0</title></circle>
	<circle cx="320.47" cy="372.75" data-y="0.24" data-x="1597881600" r="1" fill="white"><title>2020-08-20: 0</title></circle>
	<circle cx="322.27" cy="372.75" data-y="0.24" data-x="1597968000" r="1" fill="white"><title>2020-08-21: 0</title></circle>
	<circle cx="324.07" cy="371.62" data-y="0.36" data-x="1598054400" r="1" fill="white"><title>2020-08-22: 0</title></circle>
	<circle cx="325.87" cy="371.62" data-y="0.36" data-x="1598140800" r="1" fill="white"><title>2020-08-23: 0</title></circle>
	<circle cx="327.67" cy="369.37" data-y="0.60" data-x="1598227200" r="1" fill="white"><title>2020-08-24: 1</title></circle>
	<circle cx="329.47" cy="369.37" data-y="0.60" data-x="1598313600" r="1" fill="white"><title>2020-08-25: 1</title></circle>
	<circle cx="331.28" cy="368.24" data-y="0.72" data-x="1598400000" r="1" fill="white"><title>2020-08-26: 1</title></circle>
	<circle cx="333.08" cy="368.24" data-y="0.72" data-x="1598486400" r="1" fill="white"><title>2020-08-27: 1</title></circle>
	<circle cx="334.88" cy="368.24" data-y="0.72" data-x="1598572800" r="1" fill="white"><title>2020-08-28: 1</title></circle>
	<circle cx="336.68" cy="367.11" data-y="0.84" data-x="1598659200" r="1" fill="white"><title>2020-08-29: 1</title></circle>
	<circle cx="338.48" cy="360.35" data-y="1.57" data-x="1598745600" r="1" fill="white"><title>2020-08-30: 2</title></circle>
	<circle cx="340.28" cy="351.34" data-y="2.53" data-x="1598832000" r="1" fill="white"><title>2020-08-31: 3</title></circle>
	<circle cx="342.09" cy="350.22" data-y="2.66" data-x="1598918400" r="1" fill="white"><title>2020-09-01: 3</title></circle>
	<circle cx="343.89" cy="346.84" data-y="3.02" data-x="1599004800" r="1" fill="white"><title>2020-09-02: 3</title></circle>
	<circle cx="345.69" cy="341.20" data-y="3.62" data-x="1599091200" r="1" fill="white"><title>2020-09-03: 4</title></circle>
	<circle cx="347.49" cy="336.70" data-y="4.10" data-x="1599177600" r="1" fill="white"><title>2020-09-04: 4</title></circle>
	<circle cx="349.29" cy="331.06" data-y="4.71" data-x="1599264000" r="1" fill="white"><title>2020-09-05: 5</title></circle>
	<circle cx="351.09" cy="333.32" data-y="4.47" data-x="1599350400" r="1" fill="white"><title>2020-09-06: 4</title></circle>
	<circle cx="352.89" cy="340.08" data-y="3.74" data-x="1599436800" r="1" fill="white"><title>2020-09-07: 4</title></circle>
	<circle cx="354.70" cy="340.08" data-y="3.74" data-x="1599523200" r="1" fill="white"><title>2020-09-08: 4</title></circle>
	<circle cx="356.50" cy="342.33" data-y="3.50" data-x="1599609600" r="1" fill="white"><title>2020-09-09: 4</title></circle>
	<circle cx="358.30" cy="345.71" data-y="3.14" data-x="1599696000" r="1" fill="white"><title>2020-09-10: 3</title></circle>
	<circle cx="360.10" cy="346.84" data-y="3.02" data-x="1599782400" r="1" fill="white"><title>2020-09-11: 3</title></circle>
	<circle cx="361.90" cy="352.47" data-y="2.41" data-x="1599868800" r="1" fill="white"><title>2020-09-12: 2</title></circle>
	<circle cx="363.70" cy="355.85" data-y="2.05" data-x="1599955200" r="1" fill="white"><title>2020-09-13: 2</title></circle>
	<circle cx="365.51" cy="358.10" data-y="1.81" data-x="1600041600" r="1" fill="white"><title>2020-09-14: 2</title></circle>
	<circle cx="367.31" cy="355.85" data-y="2.05" data-x="1600128000" r="1" fill="white"><title>2020-09-15: 2</title></circle>
	<circle cx="369.11" cy="353.60" data-y="2.29" data-x="1600214400" r="1" fill="white"><title>2020-09-16: 2</title></circle>
	<circle cx="370.91" cy="353.60" data-y="2.29" data-x="1600300800" r="1" fill="white"><title>2020-09-17: 2</title></circle>
	<circle cx="372.71" cy="352.47" data-y="2.41" data-x="1600387200" r="1" fill="white"><title>2020-09-18: 2</title></circle>
	<circle cx="374.51" cy="349.09" data-y="2.78" data-x="1600473600" r="1" fill="white"><title>2020-09-19: 3</title></circle>
	<circle cx="376.32" cy="340.08" data-y="3.74" data-x="1600560000" r="1" fill="white"><title>2020-09-20: 4</title></circle>
	<circle cx="378.12" cy="335.57" data-y="4.22" data-x="1600646400" r="1" fill="white"><title>2020-09-21: 4</title></circle>
	<circle cx="379.92" cy="335.57" data-y="4.22" data-x="1600732800" r="1" fill="white"><title>2020-09-22: 4</title></circle>
	<circle cx="381.72" cy="332.19" data-y="4.59" data-x="1600819200" r="1" fill="white"><title>2020-09-23: 5</title></circle>
	<circle cx="383.52" cy="328.81" data-y="4.95" data-x="1600905600" r="1" fill="white"><title>2020-09-24: 5</title></circle>
	<circle cx="385.32" cy="328.81" data-y="4.95" data-x="1600992000" r="1" fill="white"><title>2020-09-25: 5</title></circle>
	<circle cx="387.13" cy="326.56" data-y="5.19" data-x="1601078400" r="1" fill="white"><title>2020-09-26: 5</title></circle>
	<circle cx="388.93" cy="325.43" data-y="5.31" data-x="1601164800" r="1" fill="white"><title>2020-09-27: 5</title></circle>
	<circle cx="390.73" cy="319.80" data-y="5.91" data-x="1601251200" r="1" fill="white"><title>2020-09-28: 6</title></circle>
	<circle cx="392.53" cy="309.66" data-y="7.00" data-x="1601337600" r="1" fill="white"><title>2020-09-29: 7</title></circle>
	<circle cx="394.33" cy="298.40" data-y="8.21" data-x="1601424000" r="1" fill="white"><title>2020-09-30: 8</title></circle>
	<circle cx="396.13" cy="299.52" data-y="8.09" data-x="1601510400" r="1" fill="white"><title>2020-10-01: 8</title></circle>
	<circle cx="397.94" cy="297.27" data-y="8.33" data-x="1601596800" r="1" fill="white"><title>2020-10-02: 8</title></circle>
	<circle cx="399.74" cy="288.26" data-y="9.29" data-x="1601683200" r="1" fill="white"><title>2020-10-03: 9</title></circle>
	<circle cx="401.54" cy="289.38" data-y="9.17" data-x="1601769600" r="1" fill="white"><title>2020-10-04: 9</title></circle>
	<circle cx="403.34" cy="271.36" data-y="11.11" data-x="1601856000" r="1" fill="white"><title>2020-10-05: 11</title></circle>
	<circle cx="405.14" cy="270.23" data-y="11.23" data-x="1601942400" r="1" fill="white"><title>2020-10-06: 11</title></circle>
	<circle cx="406.94" cy="271.36" data-y="11.11" data-x="1602028800" r="1" fill="white"><title>2020-10-07: 11</title></circle>
	<circle cx="408.74" cy="262.35" data-y="12.07" data-x="1602115200" r="1" fill="white"><title>2020-10-08: 12</title></circle>
	<circle cx="410.55" cy="255.59" data-y="12.80" data-x="1602201600" r="1" fill="white"><title>2020-10-09: 13</title></circle>
	<circle cx="412.35" cy="248.83" data-y="13.52" data-x="1602288000" r="1" fill="white"><title>2020-10-10: 14</title></circle>
	<circle cx="414.15" cy="240.94" data-y="14.36" data-x="1602374400" r="1" fill="white"><title>2020-10-11: 14</title></circle>
	<circle cx="415.95" cy="256.71" data-y="12.67" data-x="1602460800" r="1" fill="white"><title>2020-10-12: 13</title></circle>
	<circle cx="417.75" cy="253.33" data-y="13.04" data-x="1602547200" r="1" fill="white"><title>2020-10-13: 13</title></circle>
	<circle cx="419.55" cy="249.95" data-y="13.40" data-x="1602633600" r="1" fill="white"><title>2020-10-14: 13</title></circle>
	<circle cx="421.36" cy="251.08" data-y="13.28" data-x="1602720000" r="1" fill="white"><title>2020-10-15: 13</title></circle>
	<circle cx="423.16" cy="231.93" data-y="15.33" data-x="1602806400" r="1" fill="white"><title>2020-10-16: 15</title></circle>
	<circle cx="424.96" cy="225.17" data-y="16.05" data-x="1602892800" r="1" fill="white"><title>2020-10-17: 16</title></circle>
	<circle cx="426.76" cy="215.03" data-y="17.14" data-x="1602979200" r="1" fill="white"><title>2020-10-18: 17</title></circle>
	<circle cx="428.56" cy="204.89" data-y="18.23" data-x="1603065600" r="1" fill="white"><title>2020-10-19: 18</title></circle>
	<circle cx="430.36" cy="204.89" data-y="18.23" data-x="1603152000" r="1" fill="white"><title>2020-10-20: 18</title></circle>
	<circle cx="432.17" cy="211.65" data-y="17.50" data-x="1603238400" r="1" fill="white"><title>2020-10-21: 18</title></circle>
	<circle cx="433.97" cy="202.64" data-y="18.47" data-x="1603324800" r="1" fill="white"><title>2020-10-22: 18</title></circle>
	<circle cx="435.77" cy="201.51" data-y="18.59" data-x="1603411200" r="1" fill="white"><title>2020-10-23: 19</title></circle>
	<circle cx="437.57" cy="199.26" data-y="18.83" data-x="1603497600" r="1" fill="white"><title>2020-10-24: 19</title></circle>
	<circle cx="439.37" cy="194.75" data-y="19.31" data-x="1603584000" r="1" fill="white"><title>2020-10-25: 19</title></circle>
	<circle cx="441.17" cy="169.97" data-y="21.97" data-x="1603670400" r="1" fill="white"><title>2020-10-26: 22</title></circle>
	<circle cx="442.98" cy="151.94" data-y="23.90" data-x="1603756800" r="1" fill="white"><title>2020-10-27: 24</title></circle>
	<circle cx="444.78" cy="128.29" data-y="26.44" data-x="1603843200" r="1" fill="white"><title>2020-10-28: 26</title></circle>
	<circle cx="446.58" cy="120.40" data-y="27.28" data-x="1603929600" r="1" fill="white"><title>2020-10-29: 27</title></circle>
	<circle cx="448.38" cy="67.45" data-y="32.95" data-x="1604016000" r="1" fill="white"><title>2020-10-30: 33</title></circle>
	<circle cx="450.18" cy="56.19" data-y="34.16" data-x="1604102400" r="1" fill="white"><title>2020-10-31: 34</title></circle>
	<circle cx="451.98" cy="33.66" data-y="36.57" data-x="1604188800" r="1" fill="white"><title>2020-11-01: 37</title></circle>
	<circle cx="453.79" cy="34.78" data-y="36.45" data-x="1604275200" r="1" fill="white"><title>2020-11-02: 36</title></circle>
	<circle cx="455.59" cy="22.39" data-y="37.78" data-x="1604361600" r="1" fill="white"><title>2020-11-03: 38</title></circle>
	<circle cx="457.39" cy="23.52" data-y="37.66" data-x="1604448000" r="1" fill="white"><title>2020-11-04: 38</title></circle>
	<circle cx="459.19" cy="10.00" data-y="39.11" data-x="1604534400" r="1" fill="white"><title>2020-11-05: 39</title></circle>
	<circle cx="460.99" cy="15.63" data-y="38.51" data-x="1604620800" r="1" fill="white"><title>2020-11-06: 39</title></circle>
</g>
<g data-series="recent-cases" class="data-series">
	<path d="M 460.99,15.63L 462.79,21.27L 464.60,76.47L 466.40,83.23L 468.20,94.27L 470.00,89.14" id="Recent cases" class="line" stroke-width="1" stroke-linecap="round" stroke-dasharray="4,6" stroke-dashoffset="4"><title>Recent cases</title></path>
	<circle cx="460.99" cy="15.63" data-y="38.51" data-x="1604620800" r="2.5" fill="white"><title>2020-11-06: 39</title></circle>
	<circle cx="462.79" cy="21.27" data-y="37.90" data-x="1604707200" r="2.5" fill="white"><title>2020-11-07: 38</title></circle>
	<circle cx="464.60" cy="76.47" data-y="31.99" data-x="1604793600" r="2.5" fill="white"><title>2020-11-08: 32</title></circle>
	<circle cx="466.40" cy="83.23" data-y="31.26" data-x="1604880000" r="2.5" fill="white"><title>2020-11-09: 31</title></circle>
	<circle cx="468.20" cy="94.27" data-y="30.08" data-x="1604966400" r="2.5" fill="white"><title>2020-11-10: 30</title></circle>
	<circle cx="470.00" cy="89.14" data-y="30.63" data-x="1605052800" r="2.5" fill="white"><title>2020-11-11: 31</title></circle>
</g>
</svg>
