<svg width="480" height="400" viewBox="0 0 480 400" xmlns="http://www.w3.org/2000/svg" style="overflow:display" preserveAspectRatio="xMinYMin meet" overflow="visible">
<defs>
	<style>
	.data-series path.line { fill-opacity: 0; stroke: black; }
	.data-series path.line.dotted { stroke-dasharray: 12 20 }
	.data-series:hover path.line, .data-series.on path.line { stroke-width: 1; }
	.data-series:hover circle, .data-series.on circle { display: inline; }
	.graph-grid { font-family: "Helvetica Neue",Helvetica,Arial,"Lucida Grande",sans-serif; }
	.graph-grid line { stroke: black; stroke-width: 1; stroke-linecap: round; }
	.graph-grid.graph-grid-x text { text-anchor: middle; dominant-baseline: hanging; transform: translateY(10px); }
	.graph-grid.graph-grid-y text { text-anchor: end; dominant-baseline: middle; transform: translateX(-10px); }
	</style>
</defs>
<g class="graph-grid graph-grid-y">
	<line x1="25.00" y1="375.00" x2="470.00" y2="375.00" data-left="25"></line>
	<text x="35" y="375" text-anchor="end">0</text>
	<text x="35" y="204.650425581395" text-anchor="end">10</text>
	<text x="35" y="34.3008511627907" text-anchor="end">20</text>
	<text style="text-anchor:middle;dominant-baseline:hanging;font-weight:bold;transform: translateY(192.5px) rotate(-90deg);"></text>
</g>
<g class="graph-grid graph-grid-x">
	<line class="tick" x1="77.89" y1="375.00" x2="77.89" y2="380.00"></line>
	<text x="77.8893442622951" y="375" text-anchor="middle">A</text>
	<line class="tick" x1="132.60" y1="375.00" x2="132.60" y2="380.00"></line>
	<text x="132.602459016393" y="375" text-anchor="middle">M</text>
	<line class="tick" x1="189.14" y1="375.00" x2="189.14" y2="380.00"></line>
	<text x="189.139344262295" y="375" text-anchor="middle">J</text>
	<line class="tick" x1="243.85" y1="375.00" x2="243.85" y2="380.00"></line>
	<text x="243.852459016393" y="375" text-anchor="middle">J</text>
	<line class="tick" x1="300.39" y1="375.00" x2="300.39" y2="380.00"></line>
	<text x="300.389344262295" y="375" text-anchor="middle">A</text>
	<line class="tick" x1="356.93" y1="375.00" x2="356.93" y2="380.00"></line>
	<text x="356.926229508197" y="375" text-anchor="middle">S</text>
	<line class="tick" x1="411.64" y1="375.00" x2="411.64" y2="380.00"></line>
	<text x="411.639344262295" y="375" text-anchor="middle">O</text>
	<line class="tick" x1="468.18" y1="375.00" x2="468.18" y2="380.00"></line>
	<text x="468.176229508197" y="375" text-anchor="middle">N</text>
	<text style="text-anchor:middle;dominant-baseline:hanging;font-weight:bold;transform: translateY(192.5px) rotate(-90deg);"></text>
</g>
<g data-series="widespread" class="data-series">
	<path d="M 25.00,255.76L 470.00,255.76" id="E07000141-level-0" class="line" stroke-width="1" stroke-linecap="round" stroke-dasharray="3,3" fill-opacity="0.3" opacity="0.3"><title>Widespread</title></path>
</g>
<g data-series="substantial" class="data-series">
	<path d="M 25.00,306.86L 470.00,306.86" id="E07000141-level-1" class="line" stroke-width="1" stroke-linecap="round" stroke-dasharray="3,3" fill-opacity="0.3" opacity="0.3"><title>Substantial</title></path>
</g>
<g data-series="moderate" class="data-series">
	<path d="M 25.00,357.97L 470.00,357.97" id="E07000141-level-2" class="line" stroke-width="1" stroke-linecap="round" stroke-dasharray="3,3" fill-opacity="0.3" opacity="0.3"><title>Moderate</title></path>
</g>
<g data-series="new-cases" class="data-series">
	<path d="M 25.00,372.03L 26.82,372.62L 28.65,373.02L 30.47,373.30L 32.30,371.60L 34.12,371.60L 35.94,369.91L 37.77,369.91L 39.59,369.91L 41.41,368.21L 43.24,368.21L 45.06,371.60L 46.89,369.91L 48.71,369.91L 50.53,366.51L 52.36,366.51L 54.18,368.21L 56.00,366.51L 57.83,359.72L 59.65,361.42L 61.48,356.33L 63.30,354.63L 65.12,351.23L 66.95,346.14L 68.77,341.05L 70.59,334.26L 72.42,322.37L 74.24,325.77L 76.07,313.88L 77.89,315.58L 79.71,310.49L 81.54,310.49L 83.36,320.67L 85.18,332.56L 87.01,332.56L 88.83,342.74L 90.66,335.95L 92.48,329.16L 94.30,329.16L 96.13,327.47L 97.95,320.67L 99.77,315.58L 101.60,312.19L 103.42,317.28L 105.25,324.07L 107.07,324.07L 108.89,322.37L 110.72,324.07L 112.54,329.16L 114.36,330.86L 116.19,329.16L 118.01,330.86L 119.84,330.86L 121.66,315.58L 123.48,313.88L 125.31,310.49L 127.13,302.00L 128.95,300.30L 130.78,300.30L 132.60,300.30L 134.43,305.40L 136.25,296.91L 138.07,281.63L 139.90,286.72L 141.72,291.81L 143.55,290.12L 145.37,278.23L 147.19,291.81L 149.02,296.91L 150.84,308.79L 152.66,312.19L 154.49,302.00L 156.31,307.09L 158.14,318.98L 159.96,313.88L 161.78,308.79L 163.61,291.81L 165.43,293.51L 167.25,293.51L 169.08,295.21L 170.90,298.60L 172.73,295.21L 174.55,302.00L 176.37,318.98L 178.20,324.07L 180.02,335.95L 181.84,337.65L 183.67,339.35L 185.49,351.23L 187.32,354.63L 189.14,364.81L 190.96,364.81L 192.79,359.72L 194.61,359.72L 196.43,349.53L 198.26,347.84L 200.08,346.14L 201.91,342.74L 203.73,341.05L 205.55,341.05L 207.38,334.26L 209.20,344.44L 211.02,344.44L 212.85,349.53L 214.67,351.23L 216.50,354.63L 218.32,358.02L 220.14,364.81L 221.97,366.51L 223.79,368.21L 225.61,368.21L 227.44,368.21L 229.26,368.21L 231.09,369.91L 232.91,369.91L 234.73,369.91L 236.56,366.51L 238.38,366.51L 240.20,366.51L 242.03,366.51L 243.85,366.51L 245.68,363.12L 247.50,363.12L 249.32,366.51L 251.15,366.51L 252.97,364.81L 254.80,364.81L 256.62,364.81L 258.44,369.91L 260.27,368.21L 262.09,368.21L 263.91,368.21L 265.74,371.60L 267.56,369.91L 269.39,369.91L 271.21,368.21L 273.03,364.81L 274.86,363.12L 276.68,364.81L 278.50,359.72L 280.33,361.42L 282.15,361.42L 283.98,363.12L 285.80,368.21L 287.62,368.21L 289.45,363.12L 291.27,368.21L 293.09,361.42L 294.92,359.72L 296.74,359.72L 298.57,358.02L 300.39,354.63L 302.21,354.63L 304.04,354.63L 305.86,359.72L 307.68,359.72L 309.51,359.72L 311.33,361.42L 313.16,363.12L 314.98,366.51L 316.80,364.81L 318.63,363.12L 320.45,359.72L 322.27,358.02L 324.10,354.63L 325.92,358.02L 327.75,359.72L 329.57,361.42L 331.39,363.12L 333.22,368.21L 335.04,368.21L 336.86,371.60L 338.69,371.60L 340.51,369.91L 342.34,366.51L 344.16,361.42L 345.98,361.42L 347.81,361.42L 349.63,359.72L 351.45,356.33L 353.28,352.93L 355.10,344.44L 356.93,346.14L 358.75,344.44L 360.57,341.05L 362.40,339.35L 364.22,329.16L 366.05,320.67L 367.87,325.77L 369.69,325.77L 371.52,324.07L 373.34,318.98L 375.16,315.58L 376.99,325.77L 378.81,335.95L 380.64,335.95L 382.46,335.95L 384.28,324.07L 386.11,329.16L 387.93,335.95L 389.75,330.86L 391.58,325.77L 393.40,322.37L 395.23,318.98L 397.05,317.28L 398.87,310.49L 400.70,302.00L 402.52,300.30L 404.34,281.63L 406.17,256.16L 407.99,239.19L 409.82,215.42L 411.64,188.26L 413.46,140.72L 415.29,93.19L 417.11,83.00L 418.93,74.51L 420.76,55.84L 422.58,67.72L 424.41,77.91L 426.23,84.70L 428.05,86.40L 429.88,81.30L 431.70,89.79L 433.52,110.16L 435.35,103.37L 437.17,101.67L 439.00,93.19L 440.82,76.21L 442.64,74.51L 444.47,50.74L 446.29,13.40L 448.11,21.88L 449.94,13.40L 451.76,10.00L 453.59,40.56L 455.41,33.77L 457.23,50.74L 459.06,54.14L 460.88,47.35" id="New cases" class="line" stroke-width="1" stroke-linecap="round"><title>New cases</title></path>
	<circle cx="25.00" cy="372.03" data-y="0.17" data-x="1583193600" r="1" fill="white"><title>2020-03-03: 0</title></circle>
	<circle cx="26.82" cy="372.62" data-y="0.14" data-x="1583280000" r="1" fill="white"><title>2020-03-04: 0</title></circle>
	<circle cx="28.65" cy="373.02" data-y="0.12" data-x="1583366400" r="1" fill="white"><title>2020-03-05: 0</title></circle>
	<circle cx="30.47" cy="373.30" data-y="0.10" data-x="1583452800" r="1" fill="white"><title>2020-03-06: 0</title></circle>
	<circle cx="32.30" cy="371.60" data-y="0.20" data-x="1583539200" r="1" fill="white"><title>2020-03-07: 0</title></circle>
	<circle cx="34.12" cy="371.60" data-y="0.20" data-x="1583625600" r="1" fill="white"><title>2020-03-08: 0</title></circle>
	<circle cx="35.94" cy="369.91" data-y="0.30" data-x="1583712000" r="1" fill="white"><title>2020-03-09: 0</title></circle>
	<circle cx="37.77" cy="369.91" data-y="0.30" data-x="1583798400" r="1" fill="white"><title>2020-03-10: 0</title></circle>
	<circle cx="39.59" cy="369.91" data-y="0.30" data-x="1583884800" r="1" fill="white"><title>2020-03-11: 0</title></circle>
	<circle cx="41.41" cy="368.21" data-y="0.40" data-x="1583971200" r="1" fill="white"><title>2020-03-12: 0</title></circle>
	<circle cx="43.24" cy="368.21" data-y="0.40" data-x="1584057600" r="1" fill="white"><title>2020-03-13: 0</title></circle>
	<circle cx="45.06" cy="371.60" data-y="0.20" data-x="1584144000" r="1" fill="white"><title>2020-03-14: 0</title></circle>
	<circle cx="46.89" cy="369.91" data-y="0.30" data-x="1584230400" r="1" fill="white"><title>2020-03-15: 0</title></circle>
	<circle cx="48.71" cy="369.91" data-y="0.30" data-x="1584316800" r="1" fill="white"><title>2020-03-16: 0</title></circle>
	<circle cx="50.53" cy="366.51" data-y="0.50" data-x="1584403200" r="1" fill="white"><title>2020-03-17: 0</title></circle>
	<circle cx="52.36" cy="366.51" data-y="0.50" data-x="1584489600" r="1" fill="white"><title>2020-03-18: 0</title></circle>
	<circle cx="54.18" cy="368.21" data-y="0.40" data-x="1584576000" r="1" fill="white"><title>2020-03-19: 0</title></circle>
	<circle cx="56.00" cy="366.51" data-y="0.50" data-x="1584662400" r="1" fill="white"><title>2020-03-20: 0</title></circle>
	<circle cx="57.83" cy="359.72" data-y="0.90" data-x="1584748800" r="1" fill="white"><title>2020-03-21: 1</title></circle>
	<circle cx="59.65" cy="361.42" data-y="0.80" data-x="1584835200" r="1" fill="white"><title>2020-03-22: 1</title></circle>
	<circle cx="61.48" cy="356.33" data-y="1.10" data-x="1584921600" r="1" fill="white"><title>2020-03-23: 1</title></circle>
	<circle cx="63.30" cy="354.63" data-y="1.20" data-x="1585008000" r="1" fill="white"><title>2020-03-24: 1</title></circle>
	<circle cx="65.12" cy="351.23" data-y="1.40" data-x="1585094400" r="1" fill="white"><title>2020-03-25: 1</title></circle>
	<circle cx="66.95" cy="346.14" data-y="1.69" data-x="1585180800" r="1" fill="white"><title>2020-03-26: 2</title></circle>
	<circle cx="68.77" cy="341.05" data-y="1.99" data-x="1585267200" r="1" fill="white"><title>2020-03-27: 2</title></circle>
	<circle cx="70.59" cy="334.26" data-y="2.39" data-x="1585353600" r="1" fill="white"><title>2020-03-28: 2</title></circle>
	<circle cx="72.42" cy="322.37" data-y="3.09" data-x="1585440000" r="1" fill="white"><title>2020-03-29: 3</title></circle>
	<circle cx="74.24" cy="325.77" data-y="2.89" data-x="1585526400" r="1" fill="white"><title>2020-03-30: 3</title></circle>
	<circle cx="76.07" cy="313.88" data-y="3.59" data-x="1585612800" r="1" fill="white"><title>2020-03-31: 4</title></circle>
	<circle cx="77.89" cy="315.58" data-y="3.49" data-x="1585699200" r="1" fill="white"><title>2020-04-01: 3</title></circle>
	<circle cx="79.71" cy="310.49" data-y="3.79" data-x="1585785600" r="1" fill="white"><title>2020-04-02: 4</title></circle>
	<circle cx="81.54" cy="310.49" data-y="3.79" data-x="1585872000" r="1" fill="white"><title>2020-04-03: 4</title></circle>
	<circle cx="83.36" cy="320.67" data-y="3.19" data-x="1585958400" r="1" fill="white"><title>2020-04-04: 3</title></circle>
	<circle cx="85.18" cy="332.56" data-y="2.49" data-x="1586044800" r="1" fill="white"><title>2020-04-05: 2</title></circle>
	<circle cx="87.01" cy="332.56" data-y="2.49" data-x="1586131200" r="1" fill="white"><title>2020-04-06: 2</title></circle>
	<circle cx="88.83" cy="342.74" data-y="1.89" data-x="1586217600" r="1" fill="white"><title>2020-04-07: 2</title></circle>
	<circle cx="90.66" cy="335.95" data-y="2.29" data-x="1586304000" r="1" fill="white"><title>2020-04-08: 2</title></circle>
	<circle cx="92.48" cy="329.16" data-y="2.69" data-x="1586390400" r="1" fill="white"><title>2020-04-09: 3</title></circle>
	<circle cx="94.30" cy="329.16" data-y="2.69" data-x="1586476800" r="1" fill="white"><title>2020-04-10: 3</title></circle>
	<circle cx="96.13" cy="327.47" data-y="2.79" data-x="1586563200" r="1" fill="white"><title>2020-04-11: 3</title></circle>
	<circle cx="97.95" cy="320.67" data-y="3.19" data-x="1586649600" r="1" fill="white"><title>2020-04-12: 3</title></circle>
	<circle cx="99.77" cy="315.58" data-y="3.49" data-x="1586736000" r="1" fill="white"><title>2020-04-13: 3</title></circle>
	<circle cx="101.60" cy="312.19" data-y="3.69" data-x="1586822400" r="1" fill="white"><title>2020-04-14: 4</title></circle>
	<circle cx="103.42" cy="317.28" data-y="3.39" data-x="1586908800" r="1" fill="white"><title>2020-04-15: 3</title></circle>
	<circle cx="105.25" cy="324.07" data-y="2.99" data-x="1586995200" r="1" fill="white"><title>2020-04-16: 3</title></circle>
	<circle cx="107.07" cy="324.07" data-y="2.99" data-x="1587081600" r="1" fill="white"><title>2020-04-17: 3</title></circle>
	<circle cx="108.89" cy="322.37" data-y="3.09" data-x="1587168000" r="1" fill="white"><title>2020-04-18: 3</title></circle>
	<circle cx="110.72" cy="324.07" data-y="2.99" data-x="1587254400" r="1" fill="white"><title>2020-04-19: 3</title></circle>
	<circle cx="112.54" cy="329.16" data-y="2.69" data-x="1587340800" r="1" fill="white"><title>2020-04-20: 3</title></circle>
	<circle cx="114.36" cy="330.86" data-y="2.59" data-x="1587427200" r="1" fill="white"><title>2020-04-21: 3</title></circle>
	<circle cx="116.19" cy="329.16" data-y="2.69" data-x="1587513600" r="1" fill="white"><title>2020-04-22: 3</title></circle>
	<circle cx="118.01" cy="330.86" data-y="2.59" data-x="1587600000" r="1" fill="white"><title>2020-04-23: 3</title></circle>
	<circle cx="119.84" cy="330.86" data-y="2.59" data-x="1587686400" r="1" fill="white"><title>2020-04-24: 3</title></circle>
	<circle cx="121.66" cy="315.58" data-y="3.49" data-x="1587772800" r="1" fill="white"><title>2020-04-25: 3</title></circle>
	<circle cx="123.48" cy="313.88" data-y="3.59" data-x="1587859200" r="1" fill="white"><title>2020-04-26: 4</title></circle>
	<circle cx="125.31" cy="310.49" data-y="3.79" data-x="1587945600" r="1" fill="white"><title>2020-04-27: 4</title></circle>
	<circle cx="127.13" cy="302.00" data-y="4.29" data-x="1588032000" r="1" fill="white"><title>2020-04-28: 4</title></circle>
	<circle cx="128.95" cy="300.30" data-y="4.38" data-x="1588118400" r="1" fill="white"><title>2020-04-29: 4</title></circle>
	<circle cx="130.78" cy="300.30" data-y="4.38" data-x="1588204800" r="1" fill="white"><title>2020-04-30: 4</title></circle>
	<circle cx="132.60" cy="300.30" data-y="4.38" data-x="1588291200" r="1" fill="white"><title>2020-05-01: 4</title></circle>
	<circle cx="134.43" cy="305.40" data-y="4.09" data-x="1588377600" r="1" fill="white"><title>2020-05-02: 4</title></circle>
	<circle cx="136.25" cy="296.91" data-y="4.58" data-x="1588464000" r="1" fill="white"><title>2020-05-03: 5</title></circle>
	<circle cx="138.07" cy="281.63" data-y="5.48" data-x="1588550400" r="1" fill="white"><title>2020-05-04: 5</title></circle>
	<circle cx="139.90" cy="286.72" data-y="5.18" data-x="1588636800" r="1" fill="white"><title>2020-05-05: 5</title></circle>
	<circle cx="141.72" cy="291.81" data-y="4.88" data-x="1588723200" r="1" fill="white"><title>2020-05-06: 5</title></circle>
	<circle cx="143.55" cy="290.12" data-y="4.98" data-x="1588809600" r="1" fill="white"><title>2020-05-07: 5</title></circle>
	<circle cx="145.37" cy="278.23" data-y="5.68" data-x="1588896000" r="1" fill="white"><title>2020-05-08: 6</title></circle>
	<circle cx="147.19" cy="291.81" data-y="4.88" data-x="1588982400" r="1" fill="white"><title>2020-05-09: 5</title></circle>
	<circle cx="149.02" cy="296.91" data-y="4.58" data-x="1589068800" r="1" fill="white"><title>2020-05-10: 5</title></circle>
	<circle cx="150.84" cy="308.79" data-y="3.89" data-x="1589155200" r="1" fill="white"><title>2020-05-11: 4</title></circle>
	<circle cx="152.66" cy="312.19" data-y="3.69" data-x="1589241600" r="1" fill="white"><title>2020-05-12: 4</title></circle>
	<circle cx="154.49" cy="302.00" data-y="4.29" data-x="1589328000" r="1" fill="white"><title>2020-05-13: 4</title></circle>
	<circle cx="156.31" cy="307.09" data-y="3.99" data-x="1589414400" r="1" fill="white"><title>2020-05-14: 4</title></circle>
	<circle cx="158.14" cy="318.98" data-y="3.29" data-x="1589500800" r="1" fill="white"><title>2020-05-15: 3</title></circle>
	<circle cx="159.96" cy="313.88" data-y="3.59" data-x="1589587200" r="1" fill="white"><title>2020-05-16: 4</title></circle>
	<circle cx="161.78" cy="308.79" data-y="3.89" data-x="1589673600" r="1" fill="white"><title>2020-05-17: 4</title></circle>
	<circle cx="163.61" cy="291.81" data-y="4.88" data-x="1589760000" r="1" fill="white"><title>2020-05-18: 5</title></circle>
	<circle cx="165.43" cy="293.51" data-y="4.78" data-x="1589846400" r="1" fill="white"><title>2020-05-19: 5</title></circle>
	<circle cx="167.25" cy="293.51" data-y="4.78" data-x="1589932800" r="1" fill="white"><title>2020-05-20: 5</title></circle>
	<circle cx="169.08" cy="295.21" data-y="4.68" data-x="1590019200" r="1" fill="white"><title>2020-05-21: 5</title></circle>
	<circle cx="170.90" cy="298.60" data-y="4.48" data-x="1590105600" r="1" fill="white"><title>2020-05-22: 4</title></circle>
	<circle cx="172.73" cy="295.21" data-y="4.68" data-x="1590192000" r="1" fill="white"><title>2020-05-23: 5</title></circle>
	<circle cx="174.55" cy="302.00" data-y="4.29" data-x="1590278400" r="1" fill="white"><title>2020-05-24: 4</title></circle>
	<circle cx="176.37" cy="318.98" data-y="3.29" data-x="1590364800" r="1" fill="white"><title>2020-05-25: 3</title></circle>
	<circle cx="178.20" cy="324.07" data-y="2.99" data-x="1590451200" r="1" fill="white"><title>2020-05-26: 3</title></circle>
	<circle cx="180.02" cy="335.95" data-y="2.29" data-x="1590537600" r="1" fill="white"><title>2020-05-27: 2</title></circle>
	<circle cx="181.84" cy="337.65" data-y="2.19" data-x="1590624000" r="1" fill="white"><title>2020-05-28: 2</title></circle>
	<circle cx="183.67" cy="339.35" data-y="2.09" data-x="1590710400" r="1" fill="white"><title>2020-05-29: 2</title></circle>
	<circle cx="185.49" cy="351.23" data-y="1.40" data-x="1590796800" r="1" fill="white"><title>2020-05-30: 1</title></circle>
	<circle cx="187.32" cy="354.63" data-y="1.20" data-x="1590883200" r="1" fill="white"><title>2020-05-31: 1</title></circle>
	<circle cx="189.14" cy="364.81" data-y="0.60" data-x="1590969600" r="1" fill="white"><title>2020-06-01: 1</title></circle>
	<circle cx="190.96" cy="364.81" data-y="0.60" data-x="1591056000" r="1" fill="white"><title>2020-06-02: 1</title></circle>
	<circle cx="192.79" cy="359.72" data-y="0.90" data-x="1591142400" r="1" fill="white"><title>2020-06-03: 1</title></circle>
	<circle cx="194.61" cy="359.72" data-y="0.90" data-x="1591228800" r="1" fill="white"><title>2020-06-04: 1</title></circle>
	<circle cx="196.43" cy="349.53" data-y="1.49" data-x="1591315200" r="1" fill="white"><title>2020-06-05: 1</title></circle>
	<circle cx="198.26" cy="347.84" data-y="1.59" data-x="1591401600" r="1" fill="white"><title>2020-06-06: 2</title></circle>
	<circle cx="200.08" cy="346.14" data-y="1.69" data-x="1591488000" r="1" fill="white"><title>2020-06-07: 2</title></circle>
	<circle cx="201.91" cy="342.74" data-y="1.89" data-x="1591574400" r="1" fill="white"><title>2020-06-08: 2</title></circle>
	<circle cx="203.73" cy="341.05" data-y="1.99" data-x="1591660800" r="1" fill="white"><title>2020-06-09: 2</title></circle>
	<circle cx="205.55" cy="341.05" data-y="1.99" data-x="1591747200" r="1" fill="white"><title>2020-06-10: 2</title></circle>
	<circle cx="207.38" cy="334.26" data-y="2.39" data-x="1591833600" r="1" fill="white"><title>2020-06-11: 2</title></circle>
	<circle cx="209.20" cy="344.44" data-y="1.79" data-x="1591920000" r="1" fill="white"><title>2020-06-12: 2</title></circle>
	<circle cx="211.02" cy="344.44" data-y="1.79" data-x="1592006400" r="1" fill="white"><title>2020-06-13: 2</title></circle>
	<circle cx="212.85" cy="349.53" data-y="1.49" data-x="1592092800" r="1" fill="white"><title>2020-06-14: 1</title></circle>
	<circle cx="214.67" cy="351.23" data-y="1.40" data-x="1592179200" r="1" fill="white"><title>2020-06-15: 1</title></circle>
	<circle cx="216.50" cy="354.63" data-y="1.20" data-x="1592265600" r="1" fill="white"><title>2020-06-16: 1</title></circle>
	<circle cx="218.32" cy="358.02" data-y="1.00" data-x="1592352000" r="1" fill="white"><title>2020-06-17: 1</title></circle>
	<circle cx="220.14" cy="364.81" data-y="0.60" data-x="1592438400" r="1" fill="white"><title>2020-06-18: 1</title></circle>
	<circle cx="221.97" cy="366.51" data-y="0.50" data-x="1592524800" r="1" fill="white"><title>2020-06-19: 0</title></circle>
	<circle cx="223.79" cy="368.21" data-y="0.40" data-x="1592611200" r="1" fill="white"><title>2020-06-20: 0</title></circle>
	<circle cx="225.61" cy="368.21" data-y="0.40" data-x="1592697600" r="1" fill="white"><title>2020-06-21: 0</title></circle>
	<circle cx="227.44" cy="368.21" data-y="0.40" data-x="1592784000" r="1" fill="white"><title>2020-06-22: 0</title></circle>
	<circle cx="229.26" cy="368.21" data-y="0.40" data-x="1592870400" r="1" fill="white"><title>2020-06-23: 0</title></circle>
	<circle cx="231.09" cy="369.91" data-y="0.30" data-x="1592956800" r="1" fill="white"><title>2020-06-24: 0</title></circle>
	<circle cx="232.91" cy="369.91" data-y="0.30" data-x="1593043200" r="1" fill="white"><title>2020-06-25: 0</title></circle>
	<circle cx="234.73" cy="369.91" data-y="0.30" data-x="1593129600" r="1" fill="white"><title>2020-06-26: 0</title></circle>
	<circle cx="236.56" cy="366.51" data-y="0.50" data-x="1593216000" r="1" fill="white"><title>2020-06-27: 0</title></circle>
	<circle cx="238.38" cy="366.51" data-y="0.50" data-x="1593302400" r="1" fill="white"><title>2020-06-28: 0</title></circle>
	<circle cx="240.20" cy="366.51" data-y="0.50" data-x="1593388800" r="1" fill="white"><title>2020-06-29: 0</title></circle>
	<circle cx="242.03" cy="366.51" data-y="0.50" data-x="1593475200" r="1" fill="white"><title>2020-06-30: 0</title></circle>
	<circle cx="243.85" cy="366.51" data-y="0.50" data-x="1593561600" r="1" fill="white"><title>2020-07-01: 0</title></circle>
	<circle cx="245.68" cy="363.12" data-y="0.70" data-x="1593648000" r="1" fill="white"><title>2020-07-02: 1</title></circle>
	<circle cx="247.50" cy="363.12" data-y="0.70" data-x="1593734400" r="1" fill="white"><title>2020-07-03: 1</title></circle>
	<circle cx="249.32" cy="366.51" data-y="0.50" data-x="1593820800" r="1" fill="white"><title>2020-07-04: 0</title></circle>
	<circle cx="251.15" cy="366.51" data-y="0.50" data-x="1593907200" r="1" fill="white"><title>2020-07-05: 0</title></circle>
	<circle cx="252.97" cy="364.81" data-y="0.60" data-x="1593993600" r="1" fill="white"><title>2020-07-06: 1</title></circle>
	<circle cx="254.80" cy="364.81" data-y="0.60" data-x="1594080000" r="1" fill="white"><title>2020-07-07: 1</title></circle>
	<circle cx="256.62" cy="364.81" data-y="0.60" data-x="1594166400" r="1" fill="white"><title>2020-07-08: 1</title></circle>
	<circle cx="258.44" cy="369.91" data-y="0.30" data-x="1594252800" r="1" fill="white"><title>2020-07-09: 0</title></circle>
	<circle cx="260.27" cy="368.21" data-y="0.40" data-x="1594339200" r="1" fill="white"><title>2020-07-10: 0</title></circle>
	<circle cx="262.09" cy="368.21" data-y="0.40" data-x="1594425600" r="1" fill="white"><title>2020-07-11: 0</title></circle>
	<circle cx="263.91" cy="368.21" data-y="0.40" data-x="1594512000" r="1" fill="white"><title>2020-07-12: 0</title></circle>
	<circle cx="265.74" cy="371.60" data-y="0.20" data-x="1594598400" r="1" fill="white"><title>2020-07-13: 0</title></circle>
	<circle cx="267.56" cy="369.91" data-y="0.30" data-x="1594684800" r="1" fill="white"><title>2020-07-14: 0</title></circle>
	<circle cx="269.39" cy="369.91" data-y="0.30" data-x="1594771200" r="1" fill="white"><title>2020-07-15: 0</title></circle>
	<circle cx="271.21" cy="368.21" data-y="0.40" data-x="1594857600" r="1" fill="white"><title>2020-07-16: 0</title></circle>
	<circle cx="273.03" cy="364.81" data-y="0.60" data-x="1594944000" r="1" fill="white"><title>2020-07-17: 1</title></circle>
	<circle cx="274.86" cy="363.12" data-y="0.70" data-x="1595030400" r="1" fill="white"><title>2020-07-18: 1</title></circle>
	<circle cx="276.68" cy="364.81" data-y="0.60" data-x="1595116800" r="1" fill="white"><title>2020-07-19: 1</title></circle>
	<circle cx="278.50" cy="359.72" data-y="0.90" data-x="1595203200" r="1" fill="white"><title>2020-07-20: 1</title></circle>
	<circle cx="280.33" cy="361.42" data-y="0.80" data-x="1595289600" r="1" fill="white"><title>2020-07-21: 1</title></circle>
	<circle cx="282.15" cy="361.42" data-y="0.80" data-x="1595376000" r="1" fill="white"><title>2020-07-22: 1</title></circle>
	<circle cx="283.98" cy="363.12" data-y="0.70" data-x="1595462400" r="1" fill="white"><title>2020-07-23: 1</title></circle>
	<circle cx="285.80" cy="368.21" data-y="0.40" data-x="1595548800" r="1" fill="white"><title>2020-07-24: 0</title></circle>
	<circle cx="287.62" cy="368.21" data-y="0.40" data-x="1595635200" r="1" fill="white"><title>2020-07-25: 0</title></circle>
	<circle cx="289.45" cy="363.12" data-y="0.70" data-x="1595721600" r="1" fill="white"><title>2020-07-26: 1</title></circle>
	<circle cx="291.27" cy="368.21" data-y="0.40" data-x="1595808000" r="1" fill="white"><title>2020-07-27: 0</title></circle>
	<circle cx="293.09" cy="361.42" data-y="0.80" data-x="1595894400" r="1" fill="white"><title>2020-07-28: 1</title></circle>
	<circle cx="294.92" cy="359.72" data-y="0.90" data-x="1595980800" r="1" fill="white"><title>2020-07-29: 1</title></circle>
	<circle cx="296.74" cy="359.72" data-y="0.90" data-x="1596067200" r="1" fill="white"><title>2020-07-30: 1</title></circle>
	<circle cx="298.57" cy="358.02" data-y="1.00" data-x="1596153600" r="1" fill="white"><title>2020-07-31: 1</title></circle>
	<circle cx="300.39" cy="354.63" data-y="1.20" data-x="1596240000" r="1" fill="white"><title>2020-08-01: 1</title></circle>
	<circle cx="302.21" cy="354.63" data-y="1.20" data-x="1596326400" r="1" fill="white"><title>2020-08-02: 1</title></circle>
	<circle cx="304.04" cy="354.63" data-y="1.20" data-x="1596412800" r="1" fill="white"><title>2020-08-03: 1</title></circle>
	<circle cx="305.86" cy="359.72" data-y="0.90" data-x="1596499200" r="1" fill="white"><title>2020-08-04: 1</title></circle>
	<circle cx="307.68" cy="359.72" data-y="0.90" data-x="1596585600" r="1" fill="white"><title>2020-08-05: 1</title></circle>
	<circle cx="309.51" cy="359.72" data-y="0.90" data-x="1596672000" r="1" fill="white"><title>2020-08-06: 1</title></circle>
	<circle cx="311.33" cy="361.42" data-y="0.80" data-x="1596758400" r="1" fill="white"><title>2020-08-07: 1</title></circle>
	<circle cx="313.16" cy="363.12" data-y="0.70" data-x="1596844800" r="1" fill="white"><title>2020-08-08: 1</title></circle>
	<circle cx="314.98" cy="366.51" data-y="0.50" data-x="1596931200" r="1" fill="white"><title>2020-08-09: 0</title></circle>
	<circle cx="316.80" cy="364.81" data-y="0.60" data-x="1597017600" r="1" fill="white"><title>2020-08-10: 1</title></circle>
	<circle cx="318.63" cy="363.12" data-y="0.70" data-x="1597104000" r="1" fill="white"><title>2020-08-11: 1</title></circle>
	<circle cx="320.45" cy="359.72" data-y="0.90" data-x="1597190400" r="1" fill="white"><title>2020-08-12: 1</title></circle>
	<circle cx="322.27" cy="358.02" data-y="1.00" data-x="1597276800" r="1" fill="white"><title>2020-08-13: 1</title></circle>
	<circle cx="324.10" cy="354.63" data-y="1.20" data-x="1597363200" r="1" fill="white"><title>2020-08-14: 1</title></circle>
	<circle cx="325.92" cy="358.02" data-y="1.00" data-x="1597449600" r="1" fill="white"><title>2020-08-15: 1</title></circle>
	<circle cx="327.75" cy="359.72" data-y="0.90" data-x="1597536000" r="1" fill="white"><title>2020-08-16: 1</title></circle>
	<circle cx="329.57" cy="361.42" data-y="0.80" data-x="1597622400" r="1" fill="white"><title>2020-08-17: 1</title></circle>
	<circle cx="331.39" cy="363.12" data-y="0.70" data-x="1597708800" r="1" fill="white"><title>2020-08-18: 1</title></circle>
	<circle cx="333.22" cy="368.21" data-y="0.40" data-x="1597795200" r="1" fill="white"><title>2020-08-19: 0</title></circle>
	<circle cx="335.04" cy="368.21" data-y="0.40" data-x="1597881600" r="1" fill="white"><title>2020-08-20: 0</title></circle>
	<circle cx="336.86" cy="371.60" data-y="0.20" data-x="1597968000" r="1" fill="white"><title>2020-08-21: 0</title></circle>
	<circle cx="338.69" cy="371.60" data-y="0.20" data-x="1598054400" r="1" fill="white"><title>2020-08-22: 0</title></circle>
	<circle cx="340.51" cy="369.91" data-y="0.30" data-x="1598140800" r="1" fill="white"><title>2020-08-23: 0</title></circle>
	<circle cx="342.34" cy="366.51" data-y="0.50" data-x="1598227200" r="1" fill="white"><title>2020-08-24: 0</title></circle>
	<circle cx="344.16" cy="361.42" data-y="0.80" data-x="1598313600" r="1" fill="white"><title>2020-08-25: 1</title></circle>
	<circle cx="345.98" cy="361.42" data-y="0.80" data-x="1598400000" r="1" fill="white"><title>2020-08-26: 1</title></circle>
	<circle cx="347.81" cy="361.42" data-y="0.80" data-x="1598486400" r="1" fill="white"><title>2020-08-27: 1</title></circle>
	<circle cx="349.63" cy="359.72" data-y="0.90" data-x="1598572800" r="1" fill="white"><title>2020-08-28: 1</title></circle>
	<circle cx="351.45" cy="356.33" data-y="1.10" data-x="1598659200" r="1" fill="white"><title>2020-08-29: 1</title></circle>
	<circle cx="353.28" cy="352.93" data-y="1.30" data-x="1598745600" r="1" fill="white"><title>2020-08-30: 1</title></circle>
	<circle cx="355.10" cy="344.44" data-y="1.79" data-x="1598832000" r="1" fill="white"><title>2020-08-31: 2</title></circle>
	<circle cx="356.93" cy="346.14" data-y="1.69" data-x="1598918400" r="1" fill="white"><title>2020-09-01: 2</title></circle>
	<circle cx="358.75" cy="344.44" data-y="1.79" data-x="1599004800" r="1" fill="white"><title>2020-09-02: 2</title></circle>
	<circle cx="360.57" cy="341.05" data-y="1.99" data-x="1599091200" r="1" fill="white"><title>2020-09-03: 2</title></circle>
	<circle cx="362.40" cy="339.35" data-y="2.09" data-x="1599177600" r="1" fill="white"><title>2020-09-04: 2</title></circle>
	<circle cx="364.22" cy="329.16" data-y="2.69" data-x="1599264000" r="1" fill="white"><title>2020-09-05: 3</title></circle>
	<circle cx="366.05" cy="320.67" data-y="3.19" data-x="1599350400" r="1" fill="white"><title>2020-09-06: 3</title></circle>
	<circle cx="367.87" cy="325.77" data-y="2.89" data-x="1599436800" r="1" fill="white"><title>2020-09-07: 3</title></circle>
	<circle cx="369.69" cy="325.77" data-y="2.89" data-x="1599523200" r="1" fill="white"><title>2020-09-08: 3</title></circle>
	<circle cx="371.52" cy="324.07" data-y="2.99" data-x="1599609600" r="1" fill="white"><title>2020-09-09: 3</title></circle>
	<circle cx="373.34" cy="318.98" data-y="3.29" data-x="1599696000" r="1" fill="white"><title>2020-09-10: 3</title></circle>
	<circle cx="375.16" cy="315.58" data-y="3.49" data-x="1599782400" r="1" fill="white"><title>2020-09-11: 3</title></circle>
	<circle cx="376.99" cy="325.77" data-y="2.89" data-x="1599868800" r="1" fill="white"><title>2020-09-12: 3</title></circle>
	<circle cx="378.81" cy="335.95" data-y="2.29" data-x="1599955200" r="1" fill="white"><title>2020-09-13: 2</title></circle>
	<circle cx="380.64" cy="335.95" data-y="2.29" data-x="1600041600" r="1" fill="white"><title>2020-09-14: 2</title></circle>
	<circle cx="382.46" cy="335.95" data-y="2.29" data-x="1600128000" r="1" fill="white"><title>2020-09-15: 2</title></circle>
	<circle cx="384.28" cy="324.07" data-y="2.99" data-x="1600214400" r="1" fill="white"><title>2020-09-16: 3</title></circle>
	<circle cx="386.11" cy="329.16" data-y="2.69" data-x="1600300800" r="1" fill="white"><title>2020-09-17: 3</title></circle>
	<circle cx="387.93" cy="335.95" data-y="2.29" data-x="1600387200" r="1" fill="white"><title>2020-09-18: 2</title></circle>
	<circle cx="389.75" cy="330.86" data-y="2.59" data-x="1600473600" r="1" fill="white"><title>2020-09-19: 3</title></circle>
	<circle cx="391.58" cy="325.77" data-y="2.89" data-x="1600560000" r="1" fill="white"><title>2020-09-20: 3</title></circle>
	<circle cx="393.40" cy="322.37" data-y="3.09" data-x="1600646400" r="1" fill="white"><title>2020-09-21: 3</title></circle>
	<circle cx="395.23" cy="318.98" data-y="3.29" data-x="1600732800" r="1" fill="white"><title>2020-09-22: 3</title></circle>
	<circle cx="397.05" cy="317.28" data-y="3.39" data-x="1600819200" r="1" fill="white"><title>2020-09-23: 3</title></circle>
	<circle cx="398.87" cy="310.49" data-y="3.79" data-x="1600905600" r="1" fill="white"><title>2020-09-24: 4</title></circle>
	<circle cx="400.70" cy="302.00" data-y="4.29" data-x="1600992000" r="1" fill="white"><title>2020-09-25: 4</title></circle>
	<circle cx="402.52" cy="300.30" data-y="4.38" data-x="1601078400" r="1" fill="white"><title>2020-09-26: 4</title></circle>
	<circle cx="404.34" cy="281.63" data-y="5.48" data-x="1601164800" r="1" fill="white"><title>2020-09-27: 5</title></circle>
	<circle cx="406.17" cy="256.16" data-y="6.98" data-x="1601251200" r="1" fill="white"><title>2020-09-28: 7</title></circle>
	<circle cx="407.99" cy="239.19" data-y="7.97" data-x="1601337600" r="1" fill="white"><title>2020-09-29: 8</title></circle>
	<circle cx="409.82" cy="215.42" data-y="9.37" data-x="1601424000" r="1" fill="white"><title>2020-09-30: 9</title></circle>
	<circle cx="411.64" cy="188.26" data-y="10.96" data-x="1601510400" r="1" fill="white"><title>2020-10-01: 11</title></circle>
	<circle cx="413.46" cy="140.72" data-y="13.75" data-x="1601596800" r="1" fill="white"><title>2020-10-02: 14</title></circle>
	<circle cx="415.29" cy="93.19" data-y="16.54" data-x="1601683200" r="1" fill="white"><title>2020-10-03: 17</title></circle>
	<circle cx="417.11" cy="83.00" data-y="17.14" data-x="1601769600" r="1" fill="white"><title>2020-10-04: 17</title></circle>
	<circle cx="418.93" cy="74.51" data-y="17.64" data-x="1601856000" r="1" fill="white"><title>2020-10-05: 18</title></circle>
	<circle cx="420.76" cy="55.84" data-y="18.74" data-x="1601942400" r="1" fill="white"><title>2020-10-06: 19</title></circle>
	<circle cx="422.58" cy="67.72" data-y="18.04" data-x="1602028800" r="1" fill="white"><title>2020-10-07: 18</title></circle>
	<circle cx="424.41" cy="77.91" data-y="17.44" data-x="1602115200" r="1" fill="white"><title>2020-10-08: 17</title></circle>
	<circle cx="426.23" cy="84.70" data-y="17.04" data-x="1602201600" r="1" fill="white"><title>2020-10-09: 17</title></circle>
	<circle cx="428.05" cy="86.40" data-y="16.94" data-x="1602288000" r="1" fill="white"><title>2020-10-10: 17</title></circle>
	<circle cx="429.88" cy="81.30" data-y="17.24" data-x="1602374400" r="1" fill="white"><title>2020-10-11: 17</title></circle>
	<circle cx="431.70" cy="89.79" data-y="16.74" data-x="1602460800" r="1" fill="white"><title>2020-10-12: 17</title></circle>
	<circle cx="433.52" cy="110.16" data-y="15.55" data-x="1602547200" r="1" fill="white"><title>2020-10-13: 16</title></circle>
	<circle cx="435.35" cy="103.37" data-y="15.95" data-x="1602633600" r="1" fill="white"><title>2020-10-14: 16</title></circle>
	<circle cx="437.17" cy="101.67" data-y="16.04" data-x="1602720000" r="1" fill="white"><title>2020-10-15: 16</title></circle>
	<circle cx="439.00" cy="93.19" data-y="16.54" data-x="1602806400" r="1" fill="white"><title>2020-10-16: 17</title></circle>
	<circle cx="440.82" cy="76.21" data-y="17.54" data-x="1602892800" r="1" fill="white"><title>2020-10-17: 18</title></circle>
	<circle cx="442.64" cy="74.51" data-y="17.64" data-x="1602979200" r="1" fill="white"><title>2020-10-18: 18</title></circle>
	<circle cx="444.47" cy="50.74" data-y="19.03" data-x="1603065600" r="1" fill="white"><title>2020-10-19: 19</title></circle>
	<circle cx="446.29" cy="13.40" data-y="21.23" data-x="1603152000" r="1" fill="white"><title>2020-10-20: 21</title></circle>
	<circle cx="448.11" cy="21.88" data-y="20.73" data-x="1603238400" r="1" fill="white"><title>2020-10-21: 21</title></circle>
	<circle cx="449.94" cy="13.40" data-y="21.23" data-x="1603324800" r="1" fill="white"><title>2020-10-22: 21</title></circle>
	<circle cx="451.76" cy="10.00" data-y="21.43" data-x="1603411200" r="1" fill="white"><title>2020-10-23: 21</title></circle>
	<circle cx="453.59" cy="40.56" data-y="19.63" data-x="1603497600" r="1" fill="white"><title>2020-10-24: 20</title></circle>
	<circle cx="455.41" cy="33.77" data-y="20.03" data-x="1603584000" r="1" fill="white"><title>2020-10-25: 20</title></circle>
	<circle cx="457.23" cy="50.74" data-y="19.03" data-x="1603670400" r="1" fill="white"><title>2020-10-26: 19</title></circle>
	<circle cx="459.06" cy="54.14" data-y="18.84" data-x="1603756800" r="1" fill="white"><title>2020-10-27: 19</title></circle>
	<circle cx="460.88" cy="47.35" data-y="19.23" data-x="1603843200" r="1" fill="white"><title>2020-10-28: 19</title></circle>
</g>
<g data-series="recent-cases" class="data-series">
	<path d="M 460.88,47.35L 462.70,62.63L 464.53,123.74L 466.35,131.38L 468.18,153.96L 470.00,172.98" id="Recent cases" class="line" stroke-width="1" stroke-linecap="round" stroke-dasharray="4,6" stroke-dashoffset="4"><title>Recent cases</title></path>
	<circle cx="460.88" cy="47.35" data-y="19.23" data-x="1603843200" r="2.5" fill="white"><title>2020-10-28: 19</title></circle>
	<circle cx="462.70" cy="62.63" data-y="18.34" data-x="1603929600" r="2.5" fill="white"><title>2020-10-29: 18</title></circle>
	<circle cx="464.53" cy="123.74" data-y="14.75" data-x="1604016000" r="2.5" fill="white"><title>2020-10-30: 15</title></circle>
	<circle cx="466.35" cy="131.38" data-y="14.30" data-x="1604102400" r="2.5" fill="white"><title>2020-10-31: 14</title></circle>
	<circle cx="468.18" cy="153.96" data-y="12.98" data-x="1604188800" r="2.5" fill="white"><title>2020-11-01: 13</title></circle>
	<circle cx="470.00" cy="172.98" data-y="11.86" data-x="1604275200" r="2.5" fill="white"><title>2020-11-02: 12</title></circle>
</g>
</svg>
