<svg width="480" height="400" viewBox="0 0 480 400" xmlns="http://www.w3.org/2000/svg" style="overflow:display" preserveAspectRatio="xMinYMin meet" overflow="visible">
<defs>
	<style>
	.data-series path.line { fill-opacity: 0; stroke: black; }
	.data-series path.line.dotted { stroke-dasharray: 12 20 }
	.data-series:hover path.line, .data-series.on path.line { stroke-width: 1; }
	.data-series:hover circle, .data-series.on circle { display: inline; }
	.graph-grid { font-family: "Helvetica Neue",Helvetica,Arial,"Lucida Grande",sans-serif; }
	.graph-grid line { stroke: black; stroke-width: 1; stroke-linecap: round; }
	.graph-grid.graph-grid-x text { text-anchor: middle; dominant-baseline: hanging; transform: translateY(10px); }
	.graph-grid.graph-grid-y text { text-anchor: end; dominant-baseline: middle; transform: translateX(-10px); }
	</style>
</defs>
<g class="graph-grid graph-grid-y">
	<line x1="25.00" y1="375.00" x2="470.00" y2="375.00" data-left="25"></line>
	<text x="35" y="375" text-anchor="end">0</text>
	<text x="35" y="214.79312295082" text-anchor="end">10</text>
	<text x="35" y="54.5862459016393" text-anchor="end">20</text>
	<text style="text-anchor:middle;dominant-baseline:hanging;font-weight:bold;transform: translateY(192.5px) rotate(-90deg);"></text>
</g>
<g class="graph-grid graph-grid-x">
	<line class="tick" x1="79.27" y1="375.00" x2="79.27" y2="380.00"></line>
	<text x="79.2682926829268" y="375" text-anchor="middle">A</text>
	<line class="tick" x1="133.54" y1="375.00" x2="133.54" y2="380.00"></line>
	<text x="133.536585365854" y="375" text-anchor="middle">M</text>
	<line class="tick" x1="189.61" y1="375.00" x2="189.61" y2="380.00"></line>
	<text x="189.613821138211" y="375" text-anchor="middle">J</text>
	<line class="tick" x1="243.88" y1="375.00" x2="243.88" y2="380.00"></line>
	<text x="243.882113821138" y="375" text-anchor="middle">J</text>
	<line class="tick" x1="299.96" y1="375.00" x2="299.96" y2="380.00"></line>
	<text x="299.959349593496" y="375" text-anchor="middle">A</text>
	<line class="tick" x1="356.04" y1="375.00" x2="356.04" y2="380.00"></line>
	<text x="356.036585365854" y="375" text-anchor="middle">S</text>
	<line class="tick" x1="410.30" y1="375.00" x2="410.30" y2="380.00"></line>
	<text x="410.30487804878" y="375" text-anchor="middle">O</text>
	<line class="tick" x1="466.38" y1="375.00" x2="466.38" y2="380.00"></line>
	<text x="466.382113821138" y="375" text-anchor="middle">N</text>
	<text style="text-anchor:middle;dominant-baseline:hanging;font-weight:bold;transform: translateY(192.5px) rotate(-90deg);"></text>
</g>
<g data-series="widespread" class="data-series">
	<path d="M 25.00,262.86L 470.00,262.86" id="E07000178-level-0" class="line" stroke-width="1" stroke-linecap="round" stroke-dasharray="3,3" fill-opacity="0.3" opacity="0.3"><title>Widespread</title></path>
</g>
<g data-series="substantial" class="data-series">
	<path d="M 25.00,310.92L 470.00,310.92" id="E07000178-level-1" class="line" stroke-width="1" stroke-linecap="round" stroke-dasharray="3,3" fill-opacity="0.3" opacity="0.3"><title>Substantial</title></path>
</g>
<g data-series="moderate" class="data-series">
	<path d="M 25.00,358.98L 470.00,358.98" id="E07000178-level-2" class="line" stroke-width="1" stroke-linecap="round" stroke-dasharray="3,3" fill-opacity="0.3" opacity="0.3"><title>Moderate</title></path>
</g>
<g data-series="new-cases" class="data-series">
	<path d="M 25.00,372.38L 26.81,370.81L 28.62,371.51L 30.43,370.51L 32.24,372.01L 34.04,363.03L 35.85,360.04L 37.66,358.55L 39.47,358.55L 41.28,358.55L 43.09,358.55L 44.90,355.55L 46.71,361.54L 48.52,358.55L 50.33,352.56L 52.13,352.56L 53.94,349.57L 55.75,346.58L 57.56,346.58L 59.37,345.08L 61.18,349.57L 62.99,351.07L 64.80,342.09L 66.61,337.60L 68.41,336.11L 70.22,319.65L 72.03,297.21L 73.84,279.26L 75.65,252.34L 77.46,222.42L 79.27,210.45L 81.08,196.99L 82.89,185.02L 84.70,165.57L 86.50,155.10L 88.31,159.59L 90.12,155.10L 91.93,162.58L 93.74,165.57L 95.55,180.53L 97.36,195.49L 99.17,207.46L 100.98,214.94L 102.78,243.36L 104.59,237.38L 106.40,243.36L 108.21,243.36L 110.02,262.81L 111.83,270.29L 113.64,267.30L 115.45,253.83L 117.26,262.81L 119.07,256.82L 120.87,267.30L 122.68,271.78L 124.49,270.29L 126.30,280.76L 128.11,304.69L 129.92,301.70L 131.73,315.16L 133.54,307.68L 135.35,282.25L 137.15,276.27L 138.96,277.77L 140.77,261.31L 142.58,246.35L 144.39,238.87L 146.20,232.89L 148.01,243.36L 149.82,240.37L 151.63,237.38L 153.43,246.35L 155.24,271.78L 157.05,274.77L 158.86,280.76L 160.67,289.73L 162.48,298.71L 164.29,301.70L 166.10,312.17L 167.91,312.17L 169.72,315.16L 171.52,325.64L 173.33,331.62L 175.14,328.63L 176.95,334.61L 178.76,331.62L 180.57,333.11L 182.38,336.11L 184.19,325.64L 186.00,327.13L 187.80,336.11L 189.61,334.61L 191.42,336.11L 193.23,336.11L 195.04,330.12L 196.85,340.59L 198.66,343.59L 200.47,348.07L 202.28,349.57L 204.09,348.07L 205.89,342.09L 207.70,349.57L 209.51,348.07L 211.32,349.57L 213.13,346.58L 214.94,346.58L 216.75,351.07L 218.56,357.05L 220.37,357.05L 222.17,358.55L 223.98,357.05L 225.79,358.55L 227.60,357.05L 229.41,354.06L 231.22,348.07L 233.03,348.07L 234.84,349.57L 236.65,352.56L 238.46,354.06L 240.26,358.55L 242.07,360.04L 243.88,364.53L 245.69,360.04L 247.50,358.55L 249.31,358.55L 251.12,354.06L 252.93,348.07L 254.74,351.07L 256.54,352.56L 258.35,354.06L 260.16,357.05L 261.97,354.06L 263.78,355.55L 265.59,364.53L 267.40,360.04L 269.21,358.55L 271.02,358.55L 272.83,346.58L 274.63,339.10L 276.44,334.61L 278.25,330.12L 280.06,328.63L 281.87,325.64L 283.68,327.13L 285.49,325.64L 287.30,331.62L 289.11,336.11L 290.91,334.61L 292.72,340.59L 294.53,343.59L 296.34,343.59L 298.15,357.05L 299.96,357.05L 301.77,358.55L 303.58,357.05L 305.39,351.07L 307.20,349.57L 309.00,346.58L 310.81,339.10L 312.62,333.11L 314.43,330.12L 316.24,337.60L 318.05,333.11L 319.86,327.13L 321.67,330.12L 323.48,333.11L 325.28,334.61L 327.09,331.62L 328.90,318.16L 330.71,312.17L 332.52,313.67L 334.33,304.69L 336.14,301.70L 337.95,309.18L 339.76,316.66L 341.57,327.13L 343.37,340.59L 345.18,346.58L 346.99,354.06L 348.80,358.55L 350.61,349.57L 352.42,342.09L 354.23,340.59L 356.04,331.62L 357.85,322.64L 359.65,318.16L 361.46,313.67L 363.27,310.68L 365.08,312.17L 366.89,310.68L 368.70,312.17L 370.51,312.17L 372.32,313.67L 374.13,316.66L 375.93,324.14L 377.74,322.64L 379.55,316.66L 381.36,324.14L 383.17,324.14L 384.98,304.69L 386.79,301.70L 388.60,301.70L 390.41,298.71L 392.22,288.24L 394.02,252.34L 395.83,234.39L 397.64,235.88L 399.45,211.95L 401.26,177.54L 403.07,144.63L 404.88,128.18L 406.69,141.64L 408.50,134.16L 410.30,114.71L 412.11,92.27L 413.92,92.27L 415.73,77.32L 417.54,39.92L 419.35,10.00L 421.16,23.46L 422.97,50.39L 424.78,54.88L 426.59,39.92L 428.39,53.38L 430.20,96.76L 432.01,99.75L 433.82,89.28L 435.63,81.80L 437.44,71.33L 439.25,77.32L 441.06,66.84L 442.87,59.36L 444.67,62.36L 446.48,62.36L 448.29,60.86L 450.10,72.83L 451.91,81.80L 453.72,98.26L 455.53,66.84L 457.34,66.84L 459.15,54.88L 460.96,63.85" id="New cases" class="line" stroke-width="1" stroke-linecap="round"><title>New cases</title></path>
	<circle cx="25.00" cy="372.38" data-y="0.16" data-x="1583107200" r="1" fill="white"><title>2020-03-02: 0</title></circle>
	<circle cx="26.81" cy="370.81" data-y="0.26" data-x="1583193600" r="1" fill="white"><title>2020-03-03: 0</title></circle>
	<circle cx="28.62" cy="371.51" data-y="0.22" data-x="1583280000" r="1" fill="white"><title>2020-03-04: 0</title></circle>
	<circle cx="30.43" cy="370.51" data-y="0.28" data-x="1583366400" r="1" fill="white"><title>2020-03-05: 0</title></circle>
	<circle cx="32.24" cy="372.01" data-y="0.19" data-x="1583452800" r="1" fill="white"><title>2020-03-06: 0</title></circle>
	<circle cx="34.04" cy="363.03" data-y="0.75" data-x="1583539200" r="1" fill="white"><title>2020-03-07: 1</title></circle>
	<circle cx="35.85" cy="360.04" data-y="0.93" data-x="1583625600" r="1" fill="white"><title>2020-03-08: 1</title></circle>
	<circle cx="37.66" cy="358.55" data-y="1.03" data-x="1583712000" r="1" fill="white"><title>2020-03-09: 1</title></circle>
	<circle cx="39.47" cy="358.55" data-y="1.03" data-x="1583798400" r="1" fill="white"><title>2020-03-10: 1</title></circle>
	<circle cx="41.28" cy="358.55" data-y="1.03" data-x="1583884800" r="1" fill="white"><title>2020-03-11: 1</title></circle>
	<circle cx="43.09" cy="358.55" data-y="1.03" data-x="1583971200" r="1" fill="white"><title>2020-03-12: 1</title></circle>
	<circle cx="44.90" cy="355.55" data-y="1.21" data-x="1584057600" r="1" fill="white"><title>2020-03-13: 1</title></circle>
	<circle cx="46.71" cy="361.54" data-y="0.84" data-x="1584144000" r="1" fill="white"><title>2020-03-14: 1</title></circle>
	<circle cx="48.52" cy="358.55" data-y="1.03" data-x="1584230400" r="1" fill="white"><title>2020-03-15: 1</title></circle>
	<circle cx="50.33" cy="352.56" data-y="1.40" data-x="1584316800" r="1" fill="white"><title>2020-03-16: 1</title></circle>
	<circle cx="52.13" cy="352.56" data-y="1.40" data-x="1584403200" r="1" fill="white"><title>2020-03-17: 1</title></circle>
	<circle cx="53.94" cy="349.57" data-y="1.59" data-x="1584489600" r="1" fill="white"><title>2020-03-18: 2</title></circle>
	<circle cx="55.75" cy="346.58" data-y="1.77" data-x="1584576000" r="1" fill="white"><title>2020-03-19: 2</title></circle>
	<circle cx="57.56" cy="346.58" data-y="1.77" data-x="1584662400" r="1" fill="white"><title>2020-03-20: 2</title></circle>
	<circle cx="59.37" cy="345.08" data-y="1.87" data-x="1584748800" r="1" fill="white"><title>2020-03-21: 2</title></circle>
	<circle cx="61.18" cy="349.57" data-y="1.59" data-x="1584835200" r="1" fill="white"><title>2020-03-22: 2</title></circle>
	<circle cx="62.99" cy="351.07" data-y="1.49" data-x="1584921600" r="1" fill="white"><title>2020-03-23: 1</title></circle>
	<circle cx="64.80" cy="342.09" data-y="2.05" data-x="1585008000" r="1" fill="white"><title>2020-03-24: 2</title></circle>
	<circle cx="66.61" cy="337.60" data-y="2.33" data-x="1585094400" r="1" fill="white"><title>2020-03-25: 2</title></circle>
	<circle cx="68.41" cy="336.11" data-y="2.43" data-x="1585180800" r="1" fill="white"><title>2020-03-26: 2</title></circle>
	<circle cx="70.22" cy="319.65" data-y="3.45" data-x="1585267200" r="1" fill="white"><title>2020-03-27: 3</title></circle>
	<circle cx="72.03" cy="297.21" data-y="4.86" data-x="1585353600" r="1" fill="white"><title>2020-03-28: 5</title></circle>
	<circle cx="73.84" cy="279.26" data-y="5.98" data-x="1585440000" r="1" fill="white"><title>2020-03-29: 6</title></circle>
	<circle cx="75.65" cy="252.34" data-y="7.66" data-x="1585526400" r="1" fill="white"><title>2020-03-30: 8</title></circle>
	<circle cx="77.46" cy="222.42" data-y="9.52" data-x="1585612800" r="1" fill="white"><title>2020-03-31: 10</title></circle>
	<circle cx="79.27" cy="210.45" data-y="10.27" data-x="1585699200" r="1" fill="white"><title>2020-04-01: 10</title></circle>
	<circle cx="81.08" cy="196.99" data-y="11.11" data-x="1585785600" r="1" fill="white"><title>2020-04-02: 11</title></circle>
	<circle cx="82.89" cy="185.02" data-y="11.86" data-x="1585872000" r="1" fill="white"><title>2020-04-03: 12</title></circle>
	<circle cx="84.70" cy="165.57" data-y="13.07" data-x="1585958400" r="1" fill="white"><title>2020-04-04: 13</title></circle>
	<circle cx="86.50" cy="155.10" data-y="13.73" data-x="1586044800" r="1" fill="white"><title>2020-04-05: 14</title></circle>
	<circle cx="88.31" cy="159.59" data-y="13.45" data-x="1586131200" r="1" fill="white"><title>2020-04-06: 13</title></circle>
	<circle cx="90.12" cy="155.10" data-y="13.73" data-x="1586217600" r="1" fill="white"><title>2020-04-07: 14</title></circle>
	<circle cx="91.93" cy="162.58" data-y="13.26" data-x="1586304000" r="1" fill="white"><title>2020-04-08: 13</title></circle>
	<circle cx="93.74" cy="165.57" data-y="13.07" data-x="1586390400" r="1" fill="white"><title>2020-04-09: 13</title></circle>
	<circle cx="95.55" cy="180.53" data-y="12.14" data-x="1586476800" r="1" fill="white"><title>2020-04-10: 12</title></circle>
	<circle cx="97.36" cy="195.49" data-y="11.20" data-x="1586563200" r="1" fill="white"><title>2020-04-11: 11</title></circle>
	<circle cx="99.17" cy="207.46" data-y="10.46" data-x="1586649600" r="1" fill="white"><title>2020-04-12: 10</title></circle>
	<circle cx="100.98" cy="214.94" data-y="9.99" data-x="1586736000" r="1" fill="white"><title>2020-04-13: 10</title></circle>
	<circle cx="102.78" cy="243.36" data-y="8.22" data-x="1586822400" r="1" fill="white"><title>2020-04-14: 8</title></circle>
	<circle cx="104.59" cy="237.38" data-y="8.59" data-x="1586908800" r="1" fill="white"><title>2020-04-15: 9</title></circle>
	<circle cx="106.40" cy="243.36" data-y="8.22" data-x="1586995200" r="1" fill="white"><title>2020-04-16: 8</title></circle>
	<circle cx="108.21" cy="243.36" data-y="8.22" data-x="1587081600" r="1" fill="white"><title>2020-04-17: 8</title></circle>
	<circle cx="110.02" cy="262.81" data-y="7.00" data-x="1587168000" r="1" fill="white"><title>2020-04-18: 7</title></circle>
	<circle cx="111.83" cy="270.29" data-y="6.54" data-x="1587254400" r="1" fill="white"><title>2020-04-19: 7</title></circle>
	<circle cx="113.64" cy="267.30" data-y="6.72" data-x="1587340800" r="1" fill="white"><title>2020-04-20: 7</title></circle>
	<circle cx="115.45" cy="253.83" data-y="7.56" data-x="1587427200" r="1" fill="white"><title>2020-04-21: 8</title></circle>
	<circle cx="117.26" cy="262.81" data-y="7.00" data-x="1587513600" r="1" fill="white"><title>2020-04-22: 7</title></circle>
	<circle cx="119.07" cy="256.82" data-y="7.38" data-x="1587600000" r="1" fill="white"><title>2020-04-23: 7</title></circle>
	<circle cx="120.87" cy="267.30" data-y="6.72" data-x="1587686400" r="1" fill="white"><title>2020-04-24: 7</title></circle>
	<circle cx="122.68" cy="271.78" data-y="6.44" data-x="1587772800" r="1" fill="white"><title>2020-04-25: 6</title></circle>
	<circle cx="124.49" cy="270.29" data-y="6.54" data-x="1587859200" r="1" fill="white"><title>2020-04-26: 7</title></circle>
	<circle cx="126.30" cy="280.76" data-y="5.88" data-x="1587945600" r="1" fill="white"><title>2020-04-27: 6</title></circle>
	<circle cx="128.11" cy="304.69" data-y="4.39" data-x="1588032000" r="1" fill="white"><title>2020-04-28: 4</title></circle>
	<circle cx="129.92" cy="301.70" data-y="4.58" data-x="1588118400" r="1" fill="white"><title>2020-04-29: 5</title></circle>
	<circle cx="131.73" cy="315.16" data-y="3.73" data-x="1588204800" r="1" fill="white"><title>2020-04-30: 4</title></circle>
	<circle cx="133.54" cy="307.68" data-y="4.20" data-x="1588291200" r="1" fill="white"><title>2020-05-01: 4</title></circle>
	<circle cx="135.35" cy="282.25" data-y="5.79" data-x="1588377600" r="1" fill="white"><title>2020-05-02: 6</title></circle>
	<circle cx="137.15" cy="276.27" data-y="6.16" data-x="1588464000" r="1" fill="white"><title>2020-05-03: 6</title></circle>
	<circle cx="138.96" cy="277.77" data-y="6.07" data-x="1588550400" r="1" fill="white"><title>2020-05-04: 6</title></circle>
	<circle cx="140.77" cy="261.31" data-y="7.10" data-x="1588636800" r="1" fill="white"><title>2020-05-05: 7</title></circle>
	<circle cx="142.58" cy="246.35" data-y="8.03" data-x="1588723200" r="1" fill="white"><title>2020-05-06: 8</title></circle>
	<circle cx="144.39" cy="238.87" data-y="8.50" data-x="1588809600" r="1" fill="white"><title>2020-05-07: 8</title></circle>
	<circle cx="146.20" cy="232.89" data-y="8.87" data-x="1588896000" r="1" fill="white"><title>2020-05-08: 9</title></circle>
	<circle cx="148.01" cy="243.36" data-y="8.22" data-x="1588982400" r="1" fill="white"><title>2020-05-09: 8</title></circle>
	<circle cx="149.82" cy="240.37" data-y="8.40" data-x="1589068800" r="1" fill="white"><title>2020-05-10: 8</title></circle>
	<circle cx="151.63" cy="237.38" data-y="8.59" data-x="1589155200" r="1" fill="white"><title>2020-05-11: 9</title></circle>
	<circle cx="153.43" cy="246.35" data-y="8.03" data-x="1589241600" r="1" fill="white"><title>2020-05-12: 8</title></circle>
	<circle cx="155.24" cy="271.78" data-y="6.44" data-x="1589328000" r="1" fill="white"><title>2020-05-13: 6</title></circle>
	<circle cx="157.05" cy="274.77" data-y="6.26" data-x="1589414400" r="1" fill="white"><title>2020-05-14: 6</title></circle>
	<circle cx="158.86" cy="280.76" data-y="5.88" data-x="1589500800" r="1" fill="white"><title>2020-05-15: 6</title></circle>
	<circle cx="160.67" cy="289.73" data-y="5.32" data-x="1589587200" r="1" fill="white"><title>2020-05-16: 5</title></circle>
	<circle cx="162.48" cy="298.71" data-y="4.76" data-x="1589673600" r="1" fill="white"><title>2020-05-17: 5</title></circle>
	<circle cx="164.29" cy="301.70" data-y="4.58" data-x="1589760000" r="1" fill="white"><title>2020-05-18: 5</title></circle>
	<circle cx="166.10" cy="312.17" data-y="3.92" data-x="1589846400" r="1" fill="white"><title>2020-05-19: 4</title></circle>
	<circle cx="167.91" cy="312.17" data-y="3.92" data-x="1589932800" r="1" fill="white"><title>2020-05-20: 4</title></circle>
	<circle cx="169.72" cy="315.16" data-y="3.73" data-x="1590019200" r="1" fill="white"><title>2020-05-21: 4</title></circle>
	<circle cx="171.52" cy="325.64" data-y="3.08" data-x="1590105600" r="1" fill="white"><title>2020-05-22: 3</title></circle>
	<circle cx="173.33" cy="331.62" data-y="2.71" data-x="1590192000" r="1" fill="white"><title>2020-05-23: 3</title></circle>
	<circle cx="175.14" cy="328.63" data-y="2.89" data-x="1590278400" r="1" fill="white"><title>2020-05-24: 3</title></circle>
	<circle cx="176.95" cy="334.61" data-y="2.52" data-x="1590364800" r="1" fill="white"><title>2020-05-25: 3</title></circle>
	<circle cx="178.76" cy="331.62" data-y="2.71" data-x="1590451200" r="1" fill="white"><title>2020-05-26: 3</title></circle>
	<circle cx="180.57" cy="333.11" data-y="2.61" data-x="1590537600" r="1" fill="white"><title>2020-05-27: 3</title></circle>
	<circle cx="182.38" cy="336.11" data-y="2.43" data-x="1590624000" r="1" fill="white"><title>2020-05-28: 2</title></circle>
	<circle cx="184.19" cy="325.64" data-y="3.08" data-x="1590710400" r="1" fill="white"><title>2020-05-29: 3</title></circle>
	<circle cx="186.00" cy="327.13" data-y="2.99" data-x="1590796800" r="1" fill="white"><title>2020-05-30: 3</title></circle>
	<circle cx="187.80" cy="336.11" data-y="2.43" data-x="1590883200" r="1" fill="white"><title>2020-05-31: 2</title></circle>
	<circle cx="189.61" cy="334.61" data-y="2.52" data-x="1590969600" r="1" fill="white"><title>2020-06-01: 3</title></circle>
	<circle cx="191.42" cy="336.11" data-y="2.43" data-x="1591056000" r="1" fill="white"><title>2020-06-02: 2</title></circle>
	<circle cx="193.23" cy="336.11" data-y="2.43" data-x="1591142400" r="1" fill="white"><title>2020-06-03: 2</title></circle>
	<circle cx="195.04" cy="330.12" data-y="2.80" data-x="1591228800" r="1" fill="white"><title>2020-06-04: 3</title></circle>
	<circle cx="196.85" cy="340.59" data-y="2.15" data-x="1591315200" r="1" fill="white"><title>2020-06-05: 2</title></circle>
	<circle cx="198.66" cy="343.59" data-y="1.96" data-x="1591401600" r="1" fill="white"><title>2020-06-06: 2</title></circle>
	<circle cx="200.47" cy="348.07" data-y="1.68" data-x="1591488000" r="1" fill="white"><title>2020-06-07: 2</title></circle>
	<circle cx="202.28" cy="349.57" data-y="1.59" data-x="1591574400" r="1" fill="white"><title>2020-06-08: 2</title></circle>
	<circle cx="204.09" cy="348.07" data-y="1.68" data-x="1591660800" r="1" fill="white"><title>2020-06-09: 2</title></circle>
	<circle cx="205.89" cy="342.09" data-y="2.05" data-x="1591747200" r="1" fill="white"><title>2020-06-10: 2</title></circle>
	<circle cx="207.70" cy="349.57" data-y="1.59" data-x="1591833600" r="1" fill="white"><title>2020-06-11: 2</title></circle>
	<circle cx="209.51" cy="348.07" data-y="1.68" data-x="1591920000" r="1" fill="white"><title>2020-06-12: 2</title></circle>
	<circle cx="211.32" cy="349.57" data-y="1.59" data-x="1592006400" r="1" fill="white"><title>2020-06-13: 2</title></circle>
	<circle cx="213.13" cy="346.58" data-y="1.77" data-x="1592092800" r="1" fill="white"><title>2020-06-14: 2</title></circle>
	<circle cx="214.94" cy="346.58" data-y="1.77" data-x="1592179200" r="1" fill="white"><title>2020-06-15: 2</title></circle>
	<circle cx="216.75" cy="351.07" data-y="1.49" data-x="1592265600" r="1" fill="white"><title>2020-06-16: 1</title></circle>
	<circle cx="218.56" cy="357.05" data-y="1.12" data-x="1592352000" r="1" fill="white"><title>2020-06-17: 1</title></circle>
	<circle cx="220.37" cy="357.05" data-y="1.12" data-x="1592438400" r="1" fill="white"><title>2020-06-18: 1</title></circle>
	<circle cx="222.17" cy="358.55" data-y="1.03" data-x="1592524800" r="1" fill="white"><title>2020-06-19: 1</title></circle>
	<circle cx="223.98" cy="357.05" data-y="1.12" data-x="1592611200" r="1" fill="white"><title>2020-06-20: 1</title></circle>
	<circle cx="225.79" cy="358.55" data-y="1.03" data-x="1592697600" r="1" fill="white"><title>2020-06-21: 1</title></circle>
	<circle cx="227.60" cy="357.05" data-y="1.12" data-x="1592784000" r="1" fill="white"><title>2020-06-22: 1</title></circle>
	<circle cx="229.41" cy="354.06" data-y="1.31" data-x="1592870400" r="1" fill="white"><title>2020-06-23: 1</title></circle>
	<circle cx="231.22" cy="348.07" data-y="1.68" data-x="1592956800" r="1" fill="white"><title>2020-06-24: 2</title></circle>
	<circle cx="233.03" cy="348.07" data-y="1.68" data-x="1593043200" r="1" fill="white"><title>2020-06-25: 2</title></circle>
	<circle cx="234.84" cy="349.57" data-y="1.59" data-x="1593129600" r="1" fill="white"><title>2020-06-26: 2</title></circle>
	<circle cx="236.65" cy="352.56" data-y="1.40" data-x="1593216000" r="1" fill="white"><title>2020-06-27: 1</title></circle>
	<circle cx="238.46" cy="354.06" data-y="1.31" data-x="1593302400" r="1" fill="white"><title>2020-06-28: 1</title></circle>
	<circle cx="240.26" cy="358.55" data-y="1.03" data-x="1593388800" r="1" fill="white"><title>2020-06-29: 1</title></circle>
	<circle cx="242.07" cy="360.04" data-y="0.93" data-x="1593475200" r="1" fill="white"><title>2020-06-30: 1</title></circle>
	<circle cx="243.88" cy="364.53" data-y="0.65" data-x="1593561600" r="1" fill="white"><title>2020-07-01: 1</title></circle>
	<circle cx="245.69" cy="360.04" data-y="0.93" data-x="1593648000" r="1" fill="white"><title>2020-07-02: 1</title></circle>
	<circle cx="247.50" cy="358.55" data-y="1.03" data-x="1593734400" r="1" fill="white"><title>2020-07-03: 1</title></circle>
	<circle cx="249.31" cy="358.55" data-y="1.03" data-x="1593820800" r="1" fill="white"><title>2020-07-04: 1</title></circle>
	<circle cx="251.12" cy="354.06" data-y="1.31" data-x="1593907200" r="1" fill="white"><title>2020-07-05: 1</title></circle>
	<circle cx="252.93" cy="348.07" data-y="1.68" data-x="1593993600" r="1" fill="white"><title>2020-07-06: 2</title></circle>
	<circle cx="254.74" cy="351.07" data-y="1.49" data-x="1594080000" r="1" fill="white"><title>2020-07-07: 1</title></circle>
	<circle cx="256.54" cy="352.56" data-y="1.40" data-x="1594166400" r="1" fill="white"><title>2020-07-08: 1</title></circle>
	<circle cx="258.35" cy="354.06" data-y="1.31" data-x="1594252800" r="1" fill="white"><title>2020-07-09: 1</title></circle>
	<circle cx="260.16" cy="357.05" data-y="1.12" data-x="1594339200" r="1" fill="white"><title>2020-07-10: 1</title></circle>
	<circle cx="261.97" cy="354.06" data-y="1.31" data-x="1594425600" r="1" fill="white"><title>2020-07-11: 1</title></circle>
	<circle cx="263.78" cy="355.55" data-y="1.21" data-x="1594512000" r="1" fill="white"><title>2020-07-12: 1</title></circle>
	<circle cx="265.59" cy="364.53" data-y="0.65" data-x="1594598400" r="1" fill="white"><title>2020-07-13: 1</title></circle>
	<circle cx="267.40" cy="360.04" data-y="0.93" data-x="1594684800" r="1" fill="white"><title>2020-07-14: 1</title></circle>
	<circle cx="269.21" cy="358.55" data-y="1.03" data-x="1594771200" r="1" fill="white"><title>2020-07-15: 1</title></circle>
	<circle cx="271.02" cy="358.55" data-y="1.03" data-x="1594857600" r="1" fill="white"><title>2020-07-16: 1</title></circle>
	<circle cx="272.83" cy="346.58" data-y="1.77" data-x="1594944000" r="1" fill="white"><title>2020-07-17: 2</title></circle>
	<circle cx="274.63" cy="339.10" data-y="2.24" data-x="1595030400" r="1" fill="white"><title>2020-07-18: 2</title></circle>
	<circle cx="276.44" cy="334.61" data-y="2.52" data-x="1595116800" r="1" fill="white"><title>2020-07-19: 3</title></circle>
	<circle cx="278.25" cy="330.12" data-y="2.80" data-x="1595203200" r="1" fill="white"><title>2020-07-20: 3</title></circle>
	<circle cx="280.06" cy="328.63" data-y="2.89" data-x="1595289600" r="1" fill="white"><title>2020-07-21: 3</title></circle>
	<circle cx="281.87" cy="325.64" data-y="3.08" data-x="1595376000" r="1" fill="white"><title>2020-07-22: 3</title></circle>
	<circle cx="283.68" cy="327.13" data-y="2.99" data-x="1595462400" r="1" fill="white"><title>2020-07-23: 3</title></circle>
	<circle cx="285.49" cy="325.64" data-y="3.08" data-x="1595548800" r="1" fill="white"><title>2020-07-24: 3</title></circle>
	<circle cx="287.30" cy="331.62" data-y="2.71" data-x="1595635200" r="1" fill="white"><title>2020-07-25: 3</title></circle>
	<circle cx="289.11" cy="336.11" data-y="2.43" data-x="1595721600" r="1" fill="white"><title>2020-07-26: 2</title></circle>
	<circle cx="290.91" cy="334.61" data-y="2.52" data-x="1595808000" r="1" fill="white"><title>2020-07-27: 3</title></circle>
	<circle cx="292.72" cy="340.59" data-y="2.15" data-x="1595894400" r="1" fill="white"><title>2020-07-28: 2</title></circle>
	<circle cx="294.53" cy="343.59" data-y="1.96" data-x="1595980800" r="1" fill="white"><title>2020-07-29: 2</title></circle>
	<circle cx="296.34" cy="343.59" data-y="1.96" data-x="1596067200" r="1" fill="white"><title>2020-07-30: 2</title></circle>
	<circle cx="298.15" cy="357.05" data-y="1.12" data-x="1596153600" r="1" fill="white"><title>2020-07-31: 1</title></circle>
	<circle cx="299.96" cy="357.05" data-y="1.12" data-x="1596240000" r="1" fill="white"><title>2020-08-01: 1</title></circle>
	<circle cx="301.77" cy="358.55" data-y="1.03" data-x="1596326400" r="1" fill="white"><title>2020-08-02: 1</title></circle>
	<circle cx="303.58" cy="357.05" data-y="1.12" data-x="1596412800" r="1" fill="white"><title>2020-08-03: 1</title></circle>
	<circle cx="305.39" cy="351.07" data-y="1.49" data-x="1596499200" r="1" fill="white"><title>2020-08-04: 1</title></circle>
	<circle cx="307.20" cy="349.57" data-y="1.59" data-x="1596585600" r="1" fill="white"><title>2020-08-05: 2</title></circle>
	<circle cx="309.00" cy="346.58" data-y="1.77" data-x="1596672000" r="1" fill="white"><title>2020-08-06: 2</title></circle>
	<circle cx="310.81" cy="339.10" data-y="2.24" data-x="1596758400" r="1" fill="white"><title>2020-08-07: 2</title></circle>
	<circle cx="312.62" cy="333.11" data-y="2.61" data-x="1596844800" r="1" fill="white"><title>2020-08-08: 3</title></circle>
	<circle cx="314.43" cy="330.12" data-y="2.80" data-x="1596931200" r="1" fill="white"><title>2020-08-09: 3</title></circle>
	<circle cx="316.24" cy="337.60" data-y="2.33" data-x="1597017600" r="1" fill="white"><title>2020-08-10: 2</title></circle>
	<circle cx="318.05" cy="333.11" data-y="2.61" data-x="1597104000" r="1" fill="white"><title>2020-08-11: 3</title></circle>
	<circle cx="319.86" cy="327.13" data-y="2.99" data-x="1597190400" r="1" fill="white"><title>2020-08-12: 3</title></circle>
	<circle cx="321.67" cy="330.12" data-y="2.80" data-x="1597276800" r="1" fill="white"><title>2020-08-13: 3</title></circle>
	<circle cx="323.48" cy="333.11" data-y="2.61" data-x="1597363200" r="1" fill="white"><title>2020-08-14: 3</title></circle>
	<circle cx="325.28" cy="334.61" data-y="2.52" data-x="1597449600" r="1" fill="white"><title>2020-08-15: 3</title></circle>
	<circle cx="327.09" cy="331.62" data-y="2.71" data-x="1597536000" r="1" fill="white"><title>2020-08-16: 3</title></circle>
	<circle cx="328.90" cy="318.16" data-y="3.55" data-x="1597622400" r="1" fill="white"><title>2020-08-17: 4</title></circle>
	<circle cx="330.71" cy="312.17" data-y="3.92" data-x="1597708800" r="1" fill="white"><title>2020-08-18: 4</title></circle>
	<circle cx="332.52" cy="313.67" data-y="3.83" data-x="1597795200" r="1" fill="white"><title>2020-08-19: 4</title></circle>
	<circle cx="334.33" cy="304.69" data-y="4.39" data-x="1597881600" r="1" fill="white"><title>2020-08-20: 4</title></circle>
	<circle cx="336.14" cy="301.70" data-y="4.58" data-x="1597968000" r="1" fill="white"><title>2020-08-21: 5</title></circle>
	<circle cx="337.95" cy="309.18" data-y="4.11" data-x="1598054400" r="1" fill="white"><title>2020-08-22: 4</title></circle>
	<circle cx="339.76" cy="316.66" data-y="3.64" data-x="1598140800" r="1" fill="white"><title>2020-08-23: 4</title></circle>
	<circle cx="341.57" cy="327.13" data-y="2.99" data-x="1598227200" r="1" fill="white"><title>2020-08-24: 3</title></circle>
	<circle cx="343.37" cy="340.59" data-y="2.15" data-x="1598313600" r="1" fill="white"><title>2020-08-25: 2</title></circle>
	<circle cx="345.18" cy="346.58" data-y="1.77" data-x="1598400000" r="1" fill="white"><title>2020-08-26: 2</title></circle>
	<circle cx="346.99" cy="354.06" data-y="1.31" data-x="1598486400" r="1" fill="white"><title>2020-08-27: 1</title></circle>
	<circle cx="348.80" cy="358.55" data-y="1.03" data-x="1598572800" r="1" fill="white"><title>2020-08-28: 1</title></circle>
	<circle cx="350.61" cy="349.57" data-y="1.59" data-x="1598659200" r="1" fill="white"><title>2020-08-29: 2</title></circle>
	<circle cx="352.42" cy="342.09" data-y="2.05" data-x="1598745600" r="1" fill="white"><title>2020-08-30: 2</title></circle>
	<circle cx="354.23" cy="340.59" data-y="2.15" data-x="1598832000" r="1" fill="white"><title>2020-08-31: 2</title></circle>
	<circle cx="356.04" cy="331.62" data-y="2.71" data-x="1598918400" r="1" fill="white"><title>2020-09-01: 3</title></circle>
	<circle cx="357.85" cy="322.64" data-y="3.27" data-x="1599004800" r="1" fill="white"><title>2020-09-02: 3</title></circle>
	<circle cx="359.65" cy="318.16" data-y="3.55" data-x="1599091200" r="1" fill="white"><title>2020-09-03: 4</title></circle>
	<circle cx="361.46" cy="313.67" data-y="3.83" data-x="1599177600" r="1" fill="white"><title>2020-09-04: 4</title></circle>
	<circle cx="363.27" cy="310.68" data-y="4.02" data-x="1599264000" r="1" fill="white"><title>2020-09-05: 4</title></circle>
	<circle cx="365.08" cy="312.17" data-y="3.92" data-x="1599350400" r="1" fill="white"><title>2020-09-06: 4</title></circle>
	<circle cx="366.89" cy="310.68" data-y="4.02" data-x="1599436800" r="1" fill="white"><title>2020-09-07: 4</title></circle>
	<circle cx="368.70" cy="312.17" data-y="3.92" data-x="1599523200" r="1" fill="white"><title>2020-09-08: 4</title></circle>
	<circle cx="370.51" cy="312.17" data-y="3.92" data-x="1599609600" r="1" fill="white"><title>2020-09-09: 4</title></circle>
	<circle cx="372.32" cy="313.67" data-y="3.83" data-x="1599696000" r="1" fill="white"><title>2020-09-10: 4</title></circle>
	<circle cx="374.13" cy="316.66" data-y="3.64" data-x="1599782400" r="1" fill="white"><title>2020-09-11: 4</title></circle>
	<circle cx="375.93" cy="324.14" data-y="3.17" data-x="1599868800" r="1" fill="white"><title>2020-09-12: 3</title></circle>
	<circle cx="377.74" cy="322.64" data-y="3.27" data-x="1599955200" r="1" fill="white"><title>2020-09-13: 3</title></circle>
	<circle cx="379.55" cy="316.66" data-y="3.64" data-x="1600041600" r="1" fill="white"><title>2020-09-14: 4</title></circle>
	<circle cx="381.36" cy="324.14" data-y="3.17" data-x="1600128000" r="1" fill="white"><title>2020-09-15: 3</title></circle>
	<circle cx="383.17" cy="324.14" data-y="3.17" data-x="1600214400" r="1" fill="white"><title>2020-09-16: 3</title></circle>
	<circle cx="384.98" cy="304.69" data-y="4.39" data-x="1600300800" r="1" fill="white"><title>2020-09-17: 4</title></circle>
	<circle cx="386.79" cy="301.70" data-y="4.58" data-x="1600387200" r="1" fill="white"><title>2020-09-18: 5</title></circle>
	<circle cx="388.60" cy="301.70" data-y="4.58" data-x="1600473600" r="1" fill="white"><title>2020-09-19: 5</title></circle>
	<circle cx="390.41" cy="298.71" data-y="4.76" data-x="1600560000" r="1" fill="white"><title>2020-09-20: 5</title></circle>
	<circle cx="392.22" cy="288.24" data-y="5.42" data-x="1600646400" r="1" fill="white"><title>2020-09-21: 5</title></circle>
	<circle cx="394.02" cy="252.34" data-y="7.66" data-x="1600732800" r="1" fill="white"><title>2020-09-22: 8</title></circle>
	<circle cx="395.83" cy="234.39" data-y="8.78" data-x="1600819200" r="1" fill="white"><title>2020-09-23: 9</title></circle>
	<circle cx="397.64" cy="235.88" data-y="8.68" data-x="1600905600" r="1" fill="white"><title>2020-09-24: 9</title></circle>
	<circle cx="399.45" cy="211.95" data-y="10.18" data-x="1600992000" r="1" fill="white"><title>2020-09-25: 10</title></circle>
	<circle cx="401.26" cy="177.54" data-y="12.33" data-x="1601078400" r="1" fill="white"><title>2020-09-26: 12</title></circle>
	<circle cx="403.07" cy="144.63" data-y="14.38" data-x="1601164800" r="1" fill="white"><title>2020-09-27: 14</title></circle>
	<circle cx="404.88" cy="128.18" data-y="15.41" data-x="1601251200" r="1" fill="white"><title>2020-09-28: 15</title></circle>
	<circle cx="406.69" cy="141.64" data-y="14.57" data-x="1601337600" r="1" fill="white"><title>2020-09-29: 15</title></circle>
	<circle cx="408.50" cy="134.16" data-y="15.03" data-x="1601424000" r="1" fill="white"><title>2020-09-30: 15</title></circle>
	<circle cx="410.30" cy="114.71" data-y="16.25" data-x="1601510400" r="1" fill="white"><title>2020-10-01: 16</title></circle>
	<circle cx="412.11" cy="92.27" data-y="17.65" data-x="1601596800" r="1" fill="white"><title>2020-10-02: 18</title></circle>
	<circle cx="413.92" cy="92.27" data-y="17.65" data-x="1601683200" r="1" fill="white"><title>2020-10-03: 18</title></circle>
	<circle cx="415.73" cy="77.32" data-y="18.58" data-x="1601769600" r="1" fill="white"><title>2020-10-04: 19</title></circle>
	<circle cx="417.54" cy="39.92" data-y="20.92" data-x="1601856000" r="1" fill="white"><title>2020-10-05: 21</title></circle>
	<circle cx="419.35" cy="10.00" data-y="22.78" data-x="1601942400" r="1" fill="white"><title>2020-10-06: 23</title></circle>
	<circle cx="421.16" cy="23.46" data-y="21.94" data-x="1602028800" r="1" fill="white"><title>2020-10-07: 22</title></circle>
	<circle cx="422.97" cy="50.39" data-y="20.26" data-x="1602115200" r="1" fill="white"><title>2020-10-08: 20</title></circle>
	<circle cx="424.78" cy="54.88" data-y="19.98" data-x="1602201600" r="1" fill="white"><title>2020-10-09: 20</title></circle>
	<circle cx="426.59" cy="39.92" data-y="20.92" data-x="1602288000" r="1" fill="white"><title>2020-10-10: 21</title></circle>
	<circle cx="428.39" cy="53.38" data-y="20.08" data-x="1602374400" r="1" fill="white"><title>2020-10-11: 20</title></circle>
	<circle cx="430.20" cy="96.76" data-y="17.37" data-x="1602460800" r="1" fill="white"><title>2020-10-12: 17</title></circle>
	<circle cx="432.01" cy="99.75" data-y="17.18" data-x="1602547200" r="1" fill="white"><title>2020-10-13: 17</title></circle>
	<circle cx="433.82" cy="89.28" data-y="17.83" data-x="1602633600" r="1" fill="white"><title>2020-10-14: 18</title></circle>
	<circle cx="435.63" cy="81.80" data-y="18.30" data-x="1602720000" r="1" fill="white"><title>2020-10-15: 18</title></circle>
	<circle cx="437.44" cy="71.33" data-y="18.95" data-x="1602806400" r="1" fill="white"><title>2020-10-16: 19</title></circle>
	<circle cx="439.25" cy="77.32" data-y="18.58" data-x="1602892800" r="1" fill="white"><title>2020-10-17: 19</title></circle>
	<circle cx="441.06" cy="66.84" data-y="19.23" data-x="1602979200" r="1" fill="white"><title>2020-10-18: 19</title></circle>
	<circle cx="442.87" cy="59.36" data-y="19.70" data-x="1603065600" r="1" fill="white"><title>2020-10-19: 20</title></circle>
	<circle cx="444.67" cy="62.36" data-y="19.51" data-x="1603152000" r="1" fill="white"><title>2020-10-20: 20</title></circle>
	<circle cx="446.48" cy="62.36" data-y="19.51" data-x="1603238400" r="1" fill="white"><title>2020-10-21: 20</title></circle>
	<circle cx="448.29" cy="60.86" data-y="19.61" data-x="1603324800" r="1" fill="white"><title>2020-10-22: 20</title></circle>
	<circle cx="450.10" cy="72.83" data-y="18.86" data-x="1603411200" r="1" fill="white"><title>2020-10-23: 19</title></circle>
	<circle cx="451.91" cy="81.80" data-y="18.30" data-x="1603497600" r="1" fill="white"><title>2020-10-24: 18</title></circle>
	<circle cx="453.72" cy="98.26" data-y="17.27" data-x="1603584000" r="1" fill="white"><title>2020-10-25: 17</title></circle>
	<circle cx="455.53" cy="66.84" data-y="19.23" data-x="1603670400" r="1" fill="white"><title>2020-10-26: 19</title></circle>
	<circle cx="457.34" cy="66.84" data-y="19.23" data-x="1603756800" r="1" fill="white"><title>2020-10-27: 19</title></circle>
	<circle cx="459.15" cy="54.88" data-y="19.98" data-x="1603843200" r="1" fill="white"><title>2020-10-28: 20</title></circle>
	<circle cx="460.96" cy="63.85" data-y="19.42" data-x="1603929600" r="1" fill="white"><title>2020-10-29: 19</title></circle>
</g>
<g data-series="recent-cases" class="data-series">
	<path d="M 460.96,63.85L 462.76,78.81L 464.57,117.70L 466.38,121.94L 468.19,171.86L 470.00,207.46" id="Recent cases" class="line" stroke-width="1" stroke-linecap="round" stroke-dasharray="4,6" stroke-dashoffset="4"><title>Recent cases</title></path>
	<circle cx="460.96" cy="63.85" data-y="19.42" data-x="1603929600" r="2.5" fill="white"><title>2020-10-29: 19</title></circle>
	<circle cx="462.76" cy="78.81" data-y="18.49" data-x="1604016000" r="2.5" fill="white"><title>2020-10-30: 18</title></circle>
	<circle cx="464.57" cy="117.70" data-y="16.06" data-x="1604102400" r="2.5" fill="white"><title>2020-10-31: 16</title></circle>
	<circle cx="466.38" cy="121.94" data-y="15.80" data-x="1604188800" r="2.5" fill="white"><title>2020-11-01: 16</title></circle>
	<circle cx="468.19" cy="171.86" data-y="12.68" data-x="1604275200" r="2.5" fill="white"><title>2020-11-02: 13</title></circle>
	<circle cx="470.00" cy="207.46" data-y="10.46" data-x="1604361600" r="2.5" fill="white"><title>2020-11-03: 10</title></circle>
</g>
</svg>
