<svg width="480" height="400" viewBox="0 0 480 400" xmlns="http://www.w3.org/2000/svg" style="overflow:display" preserveAspectRatio="xMinYMin meet" overflow="visible">
<defs>
	<style>
	.data-series path.line { fill-opacity: 0; stroke: black; }
	.data-series path.line.dotted { stroke-dasharray: 12 20 }
	.data-series:hover path.line, .data-series.on path.line { stroke-width: 1; }
	.data-series:hover circle, .data-series.on circle { display: inline; }
	.graph-grid { font-family: "Helvetica Neue",Helvetica,Arial,"Lucida Grande",sans-serif; }
	.graph-grid line { stroke: black; stroke-width: 1; stroke-linecap: round; }
	.graph-grid.graph-grid-x text { text-anchor: middle; dominant-baseline: hanging; transform: translateY(10px); }
	.graph-grid.graph-grid-y text { text-anchor: end; dominant-baseline: middle; transform: translateX(-10px); }
	</style>
</defs>
<g class="graph-grid graph-grid-y">
	<line x1="25.00" y1="375.00" x2="470.00" y2="375.00" data-left="25"></line>
	<text x="35" y="375" text-anchor="end">0</text>
	<text x="35" y="246.326757092199" text-anchor="end">10</text>
	<text x="35" y="117.653514184397" text-anchor="end">20</text>
	<text style="text-anchor:middle;dominant-baseline:hanging;font-weight:bold;transform: translateY(192.5px) rotate(-90deg);"></text>
</g>
<g class="graph-grid graph-grid-x">
	<line class="tick" x1="61.29" y1="375.00" x2="61.29" y2="380.00"></line>
	<text x="61.2875536480687" y="375" text-anchor="middle">A</text>
	<line class="tick" x1="118.58" y1="375.00" x2="118.58" y2="380.00"></line>
	<text x="118.583690987124" y="375" text-anchor="middle">M</text>
	<line class="tick" x1="177.79" y1="375.00" x2="177.79" y2="380.00"></line>
	<text x="177.789699570815" y="375" text-anchor="middle">J</text>
	<line class="tick" x1="235.09" y1="375.00" x2="235.09" y2="380.00"></line>
	<text x="235.085836909871" y="375" text-anchor="middle">J</text>
	<line class="tick" x1="294.29" y1="375.00" x2="294.29" y2="380.00"></line>
	<text x="294.291845493562" y="375" text-anchor="middle">A</text>
	<line class="tick" x1="353.50" y1="375.00" x2="353.50" y2="380.00"></line>
	<text x="353.497854077253" y="375" text-anchor="middle">S</text>
	<line class="tick" x1="410.79" y1="375.00" x2="410.79" y2="380.00"></line>
	<text x="410.793991416309" y="375" text-anchor="middle">O</text>
	<line class="tick" x1="470.00" y1="375.00" x2="470.00" y2="380.00"></line>
	<text x="470" y="375" text-anchor="middle">N</text>
	<text style="text-anchor:middle;dominant-baseline:hanging;font-weight:bold;transform: translateY(192.5px) rotate(-90deg);"></text>
</g>
<g data-series="widespread" class="data-series">
	<path d="M 25.00,284.93L 470.00,284.93" id="E07000143-level-0" class="line" stroke-width="1" stroke-linecap="round" stroke-dasharray="3,3" fill-opacity="0.3" opacity="0.3"><title>Widespread</title></path>
</g>
<g data-series="substantial" class="data-series">
	<path d="M 25.00,323.53L 470.00,323.53" id="E07000143-level-1" class="line" stroke-width="1" stroke-linecap="round" stroke-dasharray="3,3" fill-opacity="0.3" opacity="0.3"><title>Substantial</title></path>
</g>
<g data-series="moderate" class="data-series">
	<path d="M 25.00,362.13L 470.00,362.13" id="E07000143-level-2" class="line" stroke-width="1" stroke-linecap="round" stroke-dasharray="3,3" fill-opacity="0.3" opacity="0.3"><title>Moderate</title></path>
</g>
<g data-series="new-cases" class="data-series">
	<path d="M 25.00,370.47L 26.91,371.38L 28.82,370.47L 30.73,371.12L 32.64,371.12L 34.55,371.12L 36.46,368.53L 38.37,364.65L 40.28,362.06L 42.19,359.47L 44.10,354.29L 46.01,351.70L 47.92,347.82L 49.83,346.52L 51.74,342.64L 53.65,337.46L 55.56,337.46L 57.47,338.76L 59.38,338.76L 61.29,332.29L 63.20,327.11L 65.11,330.99L 67.02,332.29L 68.93,329.70L 70.84,325.82L 72.75,324.52L 74.66,323.23L 76.57,327.11L 78.48,321.93L 80.39,318.05L 82.30,312.87L 84.21,315.46L 86.12,312.87L 88.03,315.46L 89.94,305.11L 91.85,310.28L 93.76,316.76L 95.67,308.99L 97.58,298.63L 99.48,298.63L 101.39,298.63L 103.30,307.70L 105.21,299.93L 107.12,279.22L 109.03,284.40L 110.94,289.57L 112.85,284.40L 114.76,281.81L 116.67,283.10L 118.58,292.16L 120.49,303.81L 122.40,314.17L 124.31,310.28L 126.22,314.17L 128.13,321.93L 130.04,321.93L 131.95,310.28L 133.86,314.17L 135.77,303.81L 137.68,314.17L 139.59,306.40L 141.50,307.70L 143.41,308.99L 145.32,320.64L 147.23,324.52L 149.14,332.29L 151.05,334.88L 152.96,343.94L 154.87,345.23L 156.78,346.52L 158.69,347.82L 160.60,350.41L 162.51,354.29L 164.42,346.52L 166.33,353.00L 168.24,351.70L 170.15,353.00L 172.06,353.00L 173.97,355.59L 175.88,356.88L 177.79,365.94L 179.70,367.23L 181.61,368.53L 183.52,368.53L 185.43,368.53L 187.34,367.23L 189.25,367.23L 191.16,365.94L 193.07,365.94L 194.98,367.23L 196.89,365.94L 198.80,368.53L 200.71,368.53L 202.62,369.82L 204.53,369.82L 206.44,368.53L 208.35,368.53L 210.26,371.12L 212.17,369.82L 214.08,371.12L 215.99,371.12L 217.90,372.41L 219.81,372.41L 221.72,372.41L 223.63,372.41L 225.54,373.71L 227.45,373.71L 229.36,373.71L 231.27,373.71L 233.18,373.71L 235.09,372.41L 237.00,372.41L 238.91,372.41L 240.82,372.41L 242.73,372.41L 244.64,372.41L 246.55,373.71L 248.45,375.00L 250.36,375.00L 252.27,375.00L 254.18,373.71L 256.09,373.71L 258.00,373.71L 259.91,373.71L 261.82,373.71L 263.73,372.41L 265.64,371.12L 267.55,372.41L 269.46,371.12L 271.37,371.12L 273.28,368.53L 275.19,368.53L 277.10,369.82L 279.01,369.82L 280.92,368.53L 282.83,368.53L 284.74,365.94L 286.65,368.53L 288.56,368.53L 290.47,368.53L 292.38,368.53L 294.29,368.53L 296.20,368.53L 298.11,369.82L 300.02,369.82L 301.93,369.82L 303.84,369.82L 305.75,368.53L 307.66,368.53L 309.57,369.82L 311.48,369.82L 313.39,367.23L 315.30,367.23L 317.21,367.23L 319.12,368.53L 321.03,365.94L 322.94,365.94L 324.85,365.94L 326.76,365.94L 328.67,364.65L 330.58,363.35L 332.49,347.82L 334.40,340.05L 336.31,333.58L 338.22,327.11L 340.13,323.23L 342.04,315.46L 343.95,315.46L 345.86,325.82L 347.77,332.29L 349.68,336.17L 351.59,342.64L 353.50,347.82L 355.41,354.29L 357.32,354.29L 359.23,359.47L 361.14,351.70L 363.05,350.41L 364.96,350.41L 366.87,346.52L 368.78,347.82L 370.69,349.11L 372.60,347.82L 374.51,358.17L 376.42,362.06L 378.33,359.47L 380.24,362.06L 382.15,362.06L 384.06,356.88L 385.97,355.59L 387.88,358.17L 389.79,355.59L 391.70,354.29L 393.61,356.88L 395.52,355.59L 397.42,356.88L 399.33,355.59L 401.24,349.11L 403.15,345.23L 405.06,338.76L 406.97,332.29L 408.88,329.70L 410.79,323.23L 412.70,311.58L 414.61,308.99L 416.52,306.40L 418.43,307.70L 420.34,298.63L 422.25,294.75L 424.16,297.34L 426.07,302.52L 427.98,293.46L 429.89,285.69L 431.80,271.45L 433.71,271.45L 435.62,267.57L 437.53,259.80L 439.44,240.39L 441.35,227.45L 443.26,204.15L 445.17,166.61L 447.08,64.36L 448.99,60.48L 450.90,68.24L 452.81,10.00L 454.72,34.59L 456.63,17.77L 458.54,65.66L 460.45,164.02" id="New cases" class="line" stroke-width="1" stroke-linecap="round"><title>New cases</title></path>
	<circle cx="25.00" cy="370.47" data-y="0.35" data-x="1584057600" r="1" fill="white"><title>2020-03-13: 0</title></circle>
	<circle cx="26.91" cy="371.38" data-y="0.28" data-x="1584144000" r="1" fill="white"><title>2020-03-14: 0</title></circle>
	<circle cx="28.82" cy="370.47" data-y="0.35" data-x="1584230400" r="1" fill="white"><title>2020-03-15: 0</title></circle>
	<circle cx="30.73" cy="371.12" data-y="0.30" data-x="1584316800" r="1" fill="white"><title>2020-03-16: 0</title></circle>
	<circle cx="32.64" cy="371.12" data-y="0.30" data-x="1584403200" r="1" fill="white"><title>2020-03-17: 0</title></circle>
	<circle cx="34.55" cy="371.12" data-y="0.30" data-x="1584489600" r="1" fill="white"><title>2020-03-18: 0</title></circle>
	<circle cx="36.46" cy="368.53" data-y="0.50" data-x="1584576000" r="1" fill="white"><title>2020-03-19: 1</title></circle>
	<circle cx="38.37" cy="364.65" data-y="0.80" data-x="1584662400" r="1" fill="white"><title>2020-03-20: 1</title></circle>
	<circle cx="40.28" cy="362.06" data-y="1.01" data-x="1584748800" r="1" fill="white"><title>2020-03-21: 1</title></circle>
	<circle cx="42.19" cy="359.47" data-y="1.21" data-x="1584835200" r="1" fill="white"><title>2020-03-22: 1</title></circle>
	<circle cx="44.10" cy="354.29" data-y="1.61" data-x="1584921600" r="1" fill="white"><title>2020-03-23: 2</title></circle>
	<circle cx="46.01" cy="351.70" data-y="1.81" data-x="1585008000" r="1" fill="white"><title>2020-03-24: 2</title></circle>
	<circle cx="47.92" cy="347.82" data-y="2.11" data-x="1585094400" r="1" fill="white"><title>2020-03-25: 2</title></circle>
	<circle cx="49.83" cy="346.52" data-y="2.21" data-x="1585180800" r="1" fill="white"><title>2020-03-26: 2</title></circle>
	<circle cx="51.74" cy="342.64" data-y="2.51" data-x="1585267200" r="1" fill="white"><title>2020-03-27: 3</title></circle>
	<circle cx="53.65" cy="337.46" data-y="2.92" data-x="1585353600" r="1" fill="white"><title>2020-03-28: 3</title></circle>
	<circle cx="55.56" cy="337.46" data-y="2.92" data-x="1585440000" r="1" fill="white"><title>2020-03-29: 3</title></circle>
	<circle cx="57.47" cy="338.76" data-y="2.82" data-x="1585526400" r="1" fill="white"><title>2020-03-30: 3</title></circle>
	<circle cx="59.38" cy="338.76" data-y="2.82" data-x="1585612800" r="1" fill="white"><title>2020-03-31: 3</title></circle>
	<circle cx="61.29" cy="332.29" data-y="3.32" data-x="1585699200" r="1" fill="white"><title>2020-04-01: 3</title></circle>
	<circle cx="63.20" cy="327.11" data-y="3.72" data-x="1585785600" r="1" fill="white"><title>2020-04-02: 4</title></circle>
	<circle cx="65.11" cy="330.99" data-y="3.42" data-x="1585872000" r="1" fill="white"><title>2020-04-03: 3</title></circle>
	<circle cx="67.02" cy="332.29" data-y="3.32" data-x="1585958400" r="1" fill="white"><title>2020-04-04: 3</title></circle>
	<circle cx="68.93" cy="329.70" data-y="3.52" data-x="1586044800" r="1" fill="white"><title>2020-04-05: 4</title></circle>
	<circle cx="70.84" cy="325.82" data-y="3.82" data-x="1586131200" r="1" fill="white"><title>2020-04-06: 4</title></circle>
	<circle cx="72.75" cy="324.52" data-y="3.92" data-x="1586217600" r="1" fill="white"><title>2020-04-07: 4</title></circle>
	<circle cx="74.66" cy="323.23" data-y="4.02" data-x="1586304000" r="1" fill="white"><title>2020-04-08: 4</title></circle>
	<circle cx="76.57" cy="327.11" data-y="3.72" data-x="1586390400" r="1" fill="white"><title>2020-04-09: 4</title></circle>
	<circle cx="78.48" cy="321.93" data-y="4.12" data-x="1586476800" r="1" fill="white"><title>2020-04-10: 4</title></circle>
	<circle cx="80.39" cy="318.05" data-y="4.43" data-x="1586563200" r="1" fill="white"><title>2020-04-11: 4</title></circle>
	<circle cx="82.30" cy="312.87" data-y="4.83" data-x="1586649600" r="1" fill="white"><title>2020-04-12: 5</title></circle>
	<circle cx="84.21" cy="315.46" data-y="4.63" data-x="1586736000" r="1" fill="white"><title>2020-04-13: 5</title></circle>
	<circle cx="86.12" cy="312.87" data-y="4.83" data-x="1586822400" r="1" fill="white"><title>2020-04-14: 5</title></circle>
	<circle cx="88.03" cy="315.46" data-y="4.63" data-x="1586908800" r="1" fill="white"><title>2020-04-15: 5</title></circle>
	<circle cx="89.94" cy="305.11" data-y="5.43" data-x="1586995200" r="1" fill="white"><title>2020-04-16: 5</title></circle>
	<circle cx="91.85" cy="310.28" data-y="5.03" data-x="1587081600" r="1" fill="white"><title>2020-04-17: 5</title></circle>
	<circle cx="93.76" cy="316.76" data-y="4.53" data-x="1587168000" r="1" fill="white"><title>2020-04-18: 5</title></circle>
	<circle cx="95.67" cy="308.99" data-y="5.13" data-x="1587254400" r="1" fill="white"><title>2020-04-19: 5</title></circle>
	<circle cx="97.58" cy="298.63" data-y="5.93" data-x="1587340800" r="1" fill="white"><title>2020-04-20: 6</title></circle>
	<circle cx="99.48" cy="298.63" data-y="5.93" data-x="1587427200" r="1" fill="white"><title>2020-04-21: 6</title></circle>
	<circle cx="101.39" cy="298.63" data-y="5.93" data-x="1587513600" r="1" fill="white"><title>2020-04-22: 6</title></circle>
	<circle cx="103.30" cy="307.70" data-y="5.23" data-x="1587600000" r="1" fill="white"><title>2020-04-23: 5</title></circle>
	<circle cx="105.21" cy="299.93" data-y="5.83" data-x="1587686400" r="1" fill="white"><title>2020-04-24: 6</title></circle>
	<circle cx="107.12" cy="279.22" data-y="7.44" data-x="1587772800" r="1" fill="white"><title>2020-04-25: 7</title></circle>
	<circle cx="109.03" cy="284.40" data-y="7.04" data-x="1587859200" r="1" fill="white"><title>2020-04-26: 7</title></circle>
	<circle cx="110.94" cy="289.57" data-y="6.64" data-x="1587945600" r="1" fill="white"><title>2020-04-27: 7</title></circle>
	<circle cx="112.85" cy="284.40" data-y="7.04" data-x="1588032000" r="1" fill="white"><title>2020-04-28: 7</title></circle>
	<circle cx="114.76" cy="281.81" data-y="7.24" data-x="1588118400" r="1" fill="white"><title>2020-04-29: 7</title></circle>
	<circle cx="116.67" cy="283.10" data-y="7.14" data-x="1588204800" r="1" fill="white"><title>2020-04-30: 7</title></circle>
	<circle cx="118.58" cy="292.16" data-y="6.44" data-x="1588291200" r="1" fill="white"><title>2020-05-01: 6</title></circle>
	<circle cx="120.49" cy="303.81" data-y="5.53" data-x="1588377600" r="1" fill="white"><title>2020-05-02: 6</title></circle>
	<circle cx="122.40" cy="314.17" data-y="4.73" data-x="1588464000" r="1" fill="white"><title>2020-05-03: 5</title></circle>
	<circle cx="124.31" cy="310.28" data-y="5.03" data-x="1588550400" r="1" fill="white"><title>2020-05-04: 5</title></circle>
	<circle cx="126.22" cy="314.17" data-y="4.73" data-x="1588636800" r="1" fill="white"><title>2020-05-05: 5</title></circle>
	<circle cx="128.13" cy="321.93" data-y="4.12" data-x="1588723200" r="1" fill="white"><title>2020-05-06: 4</title></circle>
	<circle cx="130.04" cy="321.93" data-y="4.12" data-x="1588809600" r="1" fill="white"><title>2020-05-07: 4</title></circle>
	<circle cx="131.95" cy="310.28" data-y="5.03" data-x="1588896000" r="1" fill="white"><title>2020-05-08: 5</title></circle>
	<circle cx="133.86" cy="314.17" data-y="4.73" data-x="1588982400" r="1" fill="white"><title>2020-05-09: 5</title></circle>
	<circle cx="135.77" cy="303.81" data-y="5.53" data-x="1589068800" r="1" fill="white"><title>2020-05-10: 6</title></circle>
	<circle cx="137.68" cy="314.17" data-y="4.73" data-x="1589155200" r="1" fill="white"><title>2020-05-11: 5</title></circle>
	<circle cx="139.59" cy="306.40" data-y="5.33" data-x="1589241600" r="1" fill="white"><title>2020-05-12: 5</title></circle>
	<circle cx="141.50" cy="307.70" data-y="5.23" data-x="1589328000" r="1" fill="white"><title>2020-05-13: 5</title></circle>
	<circle cx="143.41" cy="308.99" data-y="5.13" data-x="1589414400" r="1" fill="white"><title>2020-05-14: 5</title></circle>
	<circle cx="145.32" cy="320.64" data-y="4.22" data-x="1589500800" r="1" fill="white"><title>2020-05-15: 4</title></circle>
	<circle cx="147.23" cy="324.52" data-y="3.92" data-x="1589587200" r="1" fill="white"><title>2020-05-16: 4</title></circle>
	<circle cx="149.14" cy="332.29" data-y="3.32" data-x="1589673600" r="1" fill="white"><title>2020-05-17: 3</title></circle>
	<circle cx="151.05" cy="334.88" data-y="3.12" data-x="1589760000" r="1" fill="white"><title>2020-05-18: 3</title></circle>
	<circle cx="152.96" cy="343.94" data-y="2.41" data-x="1589846400" r="1" fill="white"><title>2020-05-19: 2</title></circle>
	<circle cx="154.87" cy="345.23" data-y="2.31" data-x="1589932800" r="1" fill="white"><title>2020-05-20: 2</title></circle>
	<circle cx="156.78" cy="346.52" data-y="2.21" data-x="1590019200" r="1" fill="white"><title>2020-05-21: 2</title></circle>
	<circle cx="158.69" cy="347.82" data-y="2.11" data-x="1590105600" r="1" fill="white"><title>2020-05-22: 2</title></circle>
	<circle cx="160.60" cy="350.41" data-y="1.91" data-x="1590192000" r="1" fill="white"><title>2020-05-23: 2</title></circle>
	<circle cx="162.51" cy="354.29" data-y="1.61" data-x="1590278400" r="1" fill="white"><title>2020-05-24: 2</title></circle>
	<circle cx="164.42" cy="346.52" data-y="2.21" data-x="1590364800" r="1" fill="white"><title>2020-05-25: 2</title></circle>
	<circle cx="166.33" cy="353.00" data-y="1.71" data-x="1590451200" r="1" fill="white"><title>2020-05-26: 2</title></circle>
	<circle cx="168.24" cy="351.70" data-y="1.81" data-x="1590537600" r="1" fill="white"><title>2020-05-27: 2</title></circle>
	<circle cx="170.15" cy="353.00" data-y="1.71" data-x="1590624000" r="1" fill="white"><title>2020-05-28: 2</title></circle>
	<circle cx="172.06" cy="353.00" data-y="1.71" data-x="1590710400" r="1" fill="white"><title>2020-05-29: 2</title></circle>
	<circle cx="173.97" cy="355.59" data-y="1.51" data-x="1590796800" r="1" fill="white"><title>2020-05-30: 2</title></circle>
	<circle cx="175.88" cy="356.88" data-y="1.41" data-x="1590883200" r="1" fill="white"><title>2020-05-31: 1</title></circle>
	<circle cx="177.79" cy="365.94" data-y="0.70" data-x="1590969600" r="1" fill="white"><title>2020-06-01: 1</title></circle>
	<circle cx="179.70" cy="367.23" data-y="0.60" data-x="1591056000" r="1" fill="white"><title>2020-06-02: 1</title></circle>
	<circle cx="181.61" cy="368.53" data-y="0.50" data-x="1591142400" r="1" fill="white"><title>2020-06-03: 1</title></circle>
	<circle cx="183.52" cy="368.53" data-y="0.50" data-x="1591228800" r="1" fill="white"><title>2020-06-04: 1</title></circle>
	<circle cx="185.43" cy="368.53" data-y="0.50" data-x="1591315200" r="1" fill="white"><title>2020-06-05: 1</title></circle>
	<circle cx="187.34" cy="367.23" data-y="0.60" data-x="1591401600" r="1" fill="white"><title>2020-06-06: 1</title></circle>
	<circle cx="189.25" cy="367.23" data-y="0.60" data-x="1591488000" r="1" fill="white"><title>2020-06-07: 1</title></circle>
	<circle cx="191.16" cy="365.94" data-y="0.70" data-x="1591574400" r="1" fill="white"><title>2020-06-08: 1</title></circle>
	<circle cx="193.07" cy="365.94" data-y="0.70" data-x="1591660800" r="1" fill="white"><title>2020-06-09: 1</title></circle>
	<circle cx="194.98" cy="367.23" data-y="0.60" data-x="1591747200" r="1" fill="white"><title>2020-06-10: 1</title></circle>
	<circle cx="196.89" cy="365.94" data-y="0.70" data-x="1591833600" r="1" fill="white"><title>2020-06-11: 1</title></circle>
	<circle cx="198.80" cy="368.53" data-y="0.50" data-x="1591920000" r="1" fill="white"><title>2020-06-12: 1</title></circle>
	<circle cx="200.71" cy="368.53" data-y="0.50" data-x="1592006400" r="1" fill="white"><title>2020-06-13: 1</title></circle>
	<circle cx="202.62" cy="369.82" data-y="0.40" data-x="1592092800" r="1" fill="white"><title>2020-06-14: 0</title></circle>
	<circle cx="204.53" cy="369.82" data-y="0.40" data-x="1592179200" r="1" fill="white"><title>2020-06-15: 0</title></circle>
	<circle cx="206.44" cy="368.53" data-y="0.50" data-x="1592265600" r="1" fill="white"><title>2020-06-16: 1</title></circle>
	<circle cx="208.35" cy="368.53" data-y="0.50" data-x="1592352000" r="1" fill="white"><title>2020-06-17: 1</title></circle>
	<circle cx="210.26" cy="371.12" data-y="0.30" data-x="1592438400" r="1" fill="white"><title>2020-06-18: 0</title></circle>
	<circle cx="212.17" cy="369.82" data-y="0.40" data-x="1592524800" r="1" fill="white"><title>2020-06-19: 0</title></circle>
	<circle cx="214.08" cy="371.12" data-y="0.30" data-x="1592611200" r="1" fill="white"><title>2020-06-20: 0</title></circle>
	<circle cx="215.99" cy="371.12" data-y="0.30" data-x="1592697600" r="1" fill="white"><title>2020-06-21: 0</title></circle>
	<circle cx="217.90" cy="372.41" data-y="0.20" data-x="1592784000" r="1" fill="white"><title>2020-06-22: 0</title></circle>
	<circle cx="219.81" cy="372.41" data-y="0.20" data-x="1592870400" r="1" fill="white"><title>2020-06-23: 0</title></circle>
	<circle cx="221.72" cy="372.41" data-y="0.20" data-x="1592956800" r="1" fill="white"><title>2020-06-24: 0</title></circle>
	<circle cx="223.63" cy="372.41" data-y="0.20" data-x="1593043200" r="1" fill="white"><title>2020-06-25: 0</title></circle>
	<circle cx="225.54" cy="373.71" data-y="0.10" data-x="1593129600" r="1" fill="white"><title>2020-06-26: 0</title></circle>
	<circle cx="227.45" cy="373.71" data-y="0.10" data-x="1593216000" r="1" fill="white"><title>2020-06-27: 0</title></circle>
	<circle cx="229.36" cy="373.71" data-y="0.10" data-x="1593302400" r="1" fill="white"><title>2020-06-28: 0</title></circle>
	<circle cx="231.27" cy="373.71" data-y="0.10" data-x="1593388800" r="1" fill="white"><title>2020-06-29: 0</title></circle>
	<circle cx="233.18" cy="373.71" data-y="0.10" data-x="1593475200" r="1" fill="white"><title>2020-06-30: 0</title></circle>
	<circle cx="235.09" cy="372.41" data-y="0.20" data-x="1593561600" r="1" fill="white"><title>2020-07-01: 0</title></circle>
	<circle cx="237.00" cy="372.41" data-y="0.20" data-x="1593648000" r="1" fill="white"><title>2020-07-02: 0</title></circle>
	<circle cx="238.91" cy="372.41" data-y="0.20" data-x="1593734400" r="1" fill="white"><title>2020-07-03: 0</title></circle>
	<circle cx="240.82" cy="372.41" data-y="0.20" data-x="1593820800" r="1" fill="white"><title>2020-07-04: 0</title></circle>
	<circle cx="242.73" cy="372.41" data-y="0.20" data-x="1593907200" r="1" fill="white"><title>2020-07-05: 0</title></circle>
	<circle cx="244.64" cy="372.41" data-y="0.20" data-x="1593993600" r="1" fill="white"><title>2020-07-06: 0</title></circle>
	<circle cx="246.55" cy="373.71" data-y="0.10" data-x="1594080000" r="1" fill="white"><title>2020-07-07: 0</title></circle>
	<circle cx="248.45" cy="375.00" data-y="0.00" data-x="1594166400" r="1" fill="white"><title>2020-07-08: 0</title></circle>
	<circle cx="250.36" cy="375.00" data-y="0.00" data-x="1594252800" r="1" fill="white"><title>2020-07-09: 0</title></circle>
	<circle cx="252.27" cy="375.00" data-y="0.00" data-x="1594339200" r="1" fill="white"><title>2020-07-10: 0</title></circle>
	<circle cx="254.18" cy="373.71" data-y="0.10" data-x="1594425600" r="1" fill="white"><title>2020-07-11: 0</title></circle>
	<circle cx="256.09" cy="373.71" data-y="0.10" data-x="1594512000" r="1" fill="white"><title>2020-07-12: 0</title></circle>
	<circle cx="258.00" cy="373.71" data-y="0.10" data-x="1594598400" r="1" fill="white"><title>2020-07-13: 0</title></circle>
	<circle cx="259.91" cy="373.71" data-y="0.10" data-x="1594684800" r="1" fill="white"><title>2020-07-14: 0</title></circle>
	<circle cx="261.82" cy="373.71" data-y="0.10" data-x="1594771200" r="1" fill="white"><title>2020-07-15: 0</title></circle>
	<circle cx="263.73" cy="372.41" data-y="0.20" data-x="1594857600" r="1" fill="white"><title>2020-07-16: 0</title></circle>
	<circle cx="265.64" cy="371.12" data-y="0.30" data-x="1594944000" r="1" fill="white"><title>2020-07-17: 0</title></circle>
	<circle cx="267.55" cy="372.41" data-y="0.20" data-x="1595030400" r="1" fill="white"><title>2020-07-18: 0</title></circle>
	<circle cx="269.46" cy="371.12" data-y="0.30" data-x="1595116800" r="1" fill="white"><title>2020-07-19: 0</title></circle>
	<circle cx="271.37" cy="371.12" data-y="0.30" data-x="1595203200" r="1" fill="white"><title>2020-07-20: 0</title></circle>
	<circle cx="273.28" cy="368.53" data-y="0.50" data-x="1595289600" r="1" fill="white"><title>2020-07-21: 1</title></circle>
	<circle cx="275.19" cy="368.53" data-y="0.50" data-x="1595376000" r="1" fill="white"><title>2020-07-22: 1</title></circle>
	<circle cx="277.10" cy="369.82" data-y="0.40" data-x="1595462400" r="1" fill="white"><title>2020-07-23: 0</title></circle>
	<circle cx="279.01" cy="369.82" data-y="0.40" data-x="1595548800" r="1" fill="white"><title>2020-07-24: 0</title></circle>
	<circle cx="280.92" cy="368.53" data-y="0.50" data-x="1595635200" r="1" fill="white"><title>2020-07-25: 1</title></circle>
	<circle cx="282.83" cy="368.53" data-y="0.50" data-x="1595721600" r="1" fill="white"><title>2020-07-26: 1</title></circle>
	<circle cx="284.74" cy="365.94" data-y="0.70" data-x="1595808000" r="1" fill="white"><title>2020-07-27: 1</title></circle>
	<circle cx="286.65" cy="368.53" data-y="0.50" data-x="1595894400" r="1" fill="white"><title>2020-07-28: 1</title></circle>
	<circle cx="288.56" cy="368.53" data-y="0.50" data-x="1595980800" r="1" fill="white"><title>2020-07-29: 1</title></circle>
	<circle cx="290.47" cy="368.53" data-y="0.50" data-x="1596067200" r="1" fill="white"><title>2020-07-30: 1</title></circle>
	<circle cx="292.38" cy="368.53" data-y="0.50" data-x="1596153600" r="1" fill="white"><title>2020-07-31: 1</title></circle>
	<circle cx="294.29" cy="368.53" data-y="0.50" data-x="1596240000" r="1" fill="white"><title>2020-08-01: 1</title></circle>
	<circle cx="296.20" cy="368.53" data-y="0.50" data-x="1596326400" r="1" fill="white"><title>2020-08-02: 1</title></circle>
	<circle cx="298.11" cy="369.82" data-y="0.40" data-x="1596412800" r="1" fill="white"><title>2020-08-03: 0</title></circle>
	<circle cx="300.02" cy="369.82" data-y="0.40" data-x="1596499200" r="1" fill="white"><title>2020-08-04: 0</title></circle>
	<circle cx="301.93" cy="369.82" data-y="0.40" data-x="1596585600" r="1" fill="white"><title>2020-08-05: 0</title></circle>
	<circle cx="303.84" cy="369.82" data-y="0.40" data-x="1596672000" r="1" fill="white"><title>2020-08-06: 0</title></circle>
	<circle cx="305.75" cy="368.53" data-y="0.50" data-x="1596758400" r="1" fill="white"><title>2020-08-07: 1</title></circle>
	<circle cx="307.66" cy="368.53" data-y="0.50" data-x="1596844800" r="1" fill="white"><title>2020-08-08: 1</title></circle>
	<circle cx="309.57" cy="369.82" data-y="0.40" data-x="1596931200" r="1" fill="white"><title>2020-08-09: 0</title></circle>
	<circle cx="311.48" cy="369.82" data-y="0.40" data-x="1597017600" r="1" fill="white"><title>2020-08-10: 0</title></circle>
	<circle cx="313.39" cy="367.23" data-y="0.60" data-x="1597104000" r="1" fill="white"><title>2020-08-11: 1</title></circle>
	<circle cx="315.30" cy="367.23" data-y="0.60" data-x="1597190400" r="1" fill="white"><title>2020-08-12: 1</title></circle>
	<circle cx="317.21" cy="367.23" data-y="0.60" data-x="1597276800" r="1" fill="white"><title>2020-08-13: 1</title></circle>
	<circle cx="319.12" cy="368.53" data-y="0.50" data-x="1597363200" r="1" fill="white"><title>2020-08-14: 1</title></circle>
	<circle cx="321.03" cy="365.94" data-y="0.70" data-x="1597449600" r="1" fill="white"><title>2020-08-15: 1</title></circle>
	<circle cx="322.94" cy="365.94" data-y="0.70" data-x="1597536000" r="1" fill="white"><title>2020-08-16: 1</title></circle>
	<circle cx="324.85" cy="365.94" data-y="0.70" data-x="1597622400" r="1" fill="white"><title>2020-08-17: 1</title></circle>
	<circle cx="326.76" cy="365.94" data-y="0.70" data-x="1597708800" r="1" fill="white"><title>2020-08-18: 1</title></circle>
	<circle cx="328.67" cy="364.65" data-y="0.80" data-x="1597795200" r="1" fill="white"><title>2020-08-19: 1</title></circle>
	<circle cx="330.58" cy="363.35" data-y="0.91" data-x="1597881600" r="1" fill="white"><title>2020-08-20: 1</title></circle>
	<circle cx="332.49" cy="347.82" data-y="2.11" data-x="1597968000" r="1" fill="white"><title>2020-08-21: 2</title></circle>
	<circle cx="334.40" cy="340.05" data-y="2.72" data-x="1598054400" r="1" fill="white"><title>2020-08-22: 3</title></circle>
	<circle cx="336.31" cy="333.58" data-y="3.22" data-x="1598140800" r="1" fill="white"><title>2020-08-23: 3</title></circle>
	<circle cx="338.22" cy="327.11" data-y="3.72" data-x="1598227200" r="1" fill="white"><title>2020-08-24: 4</title></circle>
	<circle cx="340.13" cy="323.23" data-y="4.02" data-x="1598313600" r="1" fill="white"><title>2020-08-25: 4</title></circle>
	<circle cx="342.04" cy="315.46" data-y="4.63" data-x="1598400000" r="1" fill="white"><title>2020-08-26: 5</title></circle>
	<circle cx="343.95" cy="315.46" data-y="4.63" data-x="1598486400" r="1" fill="white"><title>2020-08-27: 5</title></circle>
	<circle cx="345.86" cy="325.82" data-y="3.82" data-x="1598572800" r="1" fill="white"><title>2020-08-28: 4</title></circle>
	<circle cx="347.77" cy="332.29" data-y="3.32" data-x="1598659200" r="1" fill="white"><title>2020-08-29: 3</title></circle>
	<circle cx="349.68" cy="336.17" data-y="3.02" data-x="1598745600" r="1" fill="white"><title>2020-08-30: 3</title></circle>
	<circle cx="351.59" cy="342.64" data-y="2.51" data-x="1598832000" r="1" fill="white"><title>2020-08-31: 3</title></circle>
	<circle cx="353.50" cy="347.82" data-y="2.11" data-x="1598918400" r="1" fill="white"><title>2020-09-01: 2</title></circle>
	<circle cx="355.41" cy="354.29" data-y="1.61" data-x="1599004800" r="1" fill="white"><title>2020-09-02: 2</title></circle>
	<circle cx="357.32" cy="354.29" data-y="1.61" data-x="1599091200" r="1" fill="white"><title>2020-09-03: 2</title></circle>
	<circle cx="359.23" cy="359.47" data-y="1.21" data-x="1599177600" r="1" fill="white"><title>2020-09-04: 1</title></circle>
	<circle cx="361.14" cy="351.70" data-y="1.81" data-x="1599264000" r="1" fill="white"><title>2020-09-05: 2</title></circle>
	<circle cx="363.05" cy="350.41" data-y="1.91" data-x="1599350400" r="1" fill="white"><title>2020-09-06: 2</title></circle>
	<circle cx="364.96" cy="350.41" data-y="1.91" data-x="1599436800" r="1" fill="white"><title>2020-09-07: 2</title></circle>
	<circle cx="366.87" cy="346.52" data-y="2.21" data-x="1599523200" r="1" fill="white"><title>2020-09-08: 2</title></circle>
	<circle cx="368.78" cy="347.82" data-y="2.11" data-x="1599609600" r="1" fill="white"><title>2020-09-09: 2</title></circle>
	<circle cx="370.69" cy="349.11" data-y="2.01" data-x="1599696000" r="1" fill="white"><title>2020-09-10: 2</title></circle>
	<circle cx="372.60" cy="347.82" data-y="2.11" data-x="1599782400" r="1" fill="white"><title>2020-09-11: 2</title></circle>
	<circle cx="374.51" cy="358.17" data-y="1.31" data-x="1599868800" r="1" fill="white"><title>2020-09-12: 1</title></circle>
	<circle cx="376.42" cy="362.06" data-y="1.01" data-x="1599955200" r="1" fill="white"><title>2020-09-13: 1</title></circle>
	<circle cx="378.33" cy="359.47" data-y="1.21" data-x="1600041600" r="1" fill="white"><title>2020-09-14: 1</title></circle>
	<circle cx="380.24" cy="362.06" data-y="1.01" data-x="1600128000" r="1" fill="white"><title>2020-09-15: 1</title></circle>
	<circle cx="382.15" cy="362.06" data-y="1.01" data-x="1600214400" r="1" fill="white"><title>2020-09-16: 1</title></circle>
	<circle cx="384.06" cy="356.88" data-y="1.41" data-x="1600300800" r="1" fill="white"><title>2020-09-17: 1</title></circle>
	<circle cx="385.97" cy="355.59" data-y="1.51" data-x="1600387200" r="1" fill="white"><title>2020-09-18: 2</title></circle>
	<circle cx="387.88" cy="358.17" data-y="1.31" data-x="1600473600" r="1" fill="white"><title>2020-09-19: 1</title></circle>
	<circle cx="389.79" cy="355.59" data-y="1.51" data-x="1600560000" r="1" fill="white"><title>2020-09-20: 2</title></circle>
	<circle cx="391.70" cy="354.29" data-y="1.61" data-x="1600646400" r="1" fill="white"><title>2020-09-21: 2</title></circle>
	<circle cx="393.61" cy="356.88" data-y="1.41" data-x="1600732800" r="1" fill="white"><title>2020-09-22: 1</title></circle>
	<circle cx="395.52" cy="355.59" data-y="1.51" data-x="1600819200" r="1" fill="white"><title>2020-09-23: 2</title></circle>
	<circle cx="397.42" cy="356.88" data-y="1.41" data-x="1600905600" r="1" fill="white"><title>2020-09-24: 1</title></circle>
	<circle cx="399.33" cy="355.59" data-y="1.51" data-x="1600992000" r="1" fill="white"><title>2020-09-25: 2</title></circle>
	<circle cx="401.24" cy="349.11" data-y="2.01" data-x="1601078400" r="1" fill="white"><title>2020-09-26: 2</title></circle>
	<circle cx="403.15" cy="345.23" data-y="2.31" data-x="1601164800" r="1" fill="white"><title>2020-09-27: 2</title></circle>
	<circle cx="405.06" cy="338.76" data-y="2.82" data-x="1601251200" r="1" fill="white"><title>2020-09-28: 3</title></circle>
	<circle cx="406.97" cy="332.29" data-y="3.32" data-x="1601337600" r="1" fill="white"><title>2020-09-29: 3</title></circle>
	<circle cx="408.88" cy="329.70" data-y="3.52" data-x="1601424000" r="1" fill="white"><title>2020-09-30: 4</title></circle>
	<circle cx="410.79" cy="323.23" data-y="4.02" data-x="1601510400" r="1" fill="white"><title>2020-10-01: 4</title></circle>
	<circle cx="412.70" cy="311.58" data-y="4.93" data-x="1601596800" r="1" fill="white"><title>2020-10-02: 5</title></circle>
	<circle cx="414.61" cy="308.99" data-y="5.13" data-x="1601683200" r="1" fill="white"><title>2020-10-03: 5</title></circle>
	<circle cx="416.52" cy="306.40" data-y="5.33" data-x="1601769600" r="1" fill="white"><title>2020-10-04: 5</title></circle>
	<circle cx="418.43" cy="307.70" data-y="5.23" data-x="1601856000" r="1" fill="white"><title>2020-10-05: 5</title></circle>
	<circle cx="420.34" cy="298.63" data-y="5.93" data-x="1601942400" r="1" fill="white"><title>2020-10-06: 6</title></circle>
	<circle cx="422.25" cy="294.75" data-y="6.24" data-x="1602028800" r="1" fill="white"><title>2020-10-07: 6</title></circle>
	<circle cx="424.16" cy="297.34" data-y="6.04" data-x="1602115200" r="1" fill="white"><title>2020-10-08: 6</title></circle>
	<circle cx="426.07" cy="302.52" data-y="5.63" data-x="1602201600" r="1" fill="white"><title>2020-10-09: 6</title></circle>
	<circle cx="427.98" cy="293.46" data-y="6.34" data-x="1602288000" r="1" fill="white"><title>2020-10-10: 6</title></circle>
	<circle cx="429.89" cy="285.69" data-y="6.94" data-x="1602374400" r="1" fill="white"><title>2020-10-11: 7</title></circle>
	<circle cx="431.80" cy="271.45" data-y="8.05" data-x="1602460800" r="1" fill="white"><title>2020-10-12: 8</title></circle>
	<circle cx="433.71" cy="271.45" data-y="8.05" data-x="1602547200" r="1" fill="white"><title>2020-10-13: 8</title></circle>
	<circle cx="435.62" cy="267.57" data-y="8.35" data-x="1602633600" r="1" fill="white"><title>2020-10-14: 8</title></circle>
	<circle cx="437.53" cy="259.80" data-y="8.95" data-x="1602720000" r="1" fill="white"><title>2020-10-15: 9</title></circle>
	<circle cx="439.44" cy="240.39" data-y="10.46" data-x="1602806400" r="1" fill="white"><title>2020-10-16: 10</title></circle>
	<circle cx="441.35" cy="227.45" data-y="11.47" data-x="1602892800" r="1" fill="white"><title>2020-10-17: 11</title></circle>
	<circle cx="443.26" cy="204.15" data-y="13.28" data-x="1602979200" r="1" fill="white"><title>2020-10-18: 13</title></circle>
	<circle cx="445.17" cy="166.61" data-y="16.20" data-x="1603065600" r="1" fill="white"><title>2020-10-19: 16</title></circle>
	<circle cx="447.08" cy="64.36" data-y="24.14" data-x="1603152000" r="1" fill="white"><title>2020-10-20: 24</title></circle>
	<circle cx="448.99" cy="60.48" data-y="24.44" data-x="1603238400" r="1" fill="white"><title>2020-10-21: 24</title></circle>
	<circle cx="450.90" cy="68.24" data-y="23.84" data-x="1603324800" r="1" fill="white"><title>2020-10-22: 24</title></circle>
	<circle cx="452.81" cy="10.00" data-y="28.37" data-x="1603411200" r="1" fill="white"><title>2020-10-23: 28</title></circle>
	<circle cx="454.72" cy="34.59" data-y="26.46" data-x="1603497600" r="1" fill="white"><title>2020-10-24: 26</title></circle>
	<circle cx="456.63" cy="17.77" data-y="27.76" data-x="1603584000" r="1" fill="white"><title>2020-10-25: 28</title></circle>
	<circle cx="458.54" cy="65.66" data-y="24.04" data-x="1603670400" r="1" fill="white"><title>2020-10-26: 24</title></circle>
	<circle cx="460.45" cy="164.02" data-y="16.40" data-x="1603756800" r="1" fill="white"><title>2020-10-27: 16</title></circle>
</g>
<g data-series="recent-cases" class="data-series">
	<path d="M 460.45,164.02L 462.36,170.50L 464.27,176.97L 466.18,248.16L 468.09,231.85L 470.00,295.72" id="Recent cases" class="line" stroke-width="1" stroke-linecap="round" stroke-dasharray="4,6" stroke-dashoffset="4"><title>Recent cases</title></path>
	<circle cx="460.45" cy="164.02" data-y="16.40" data-x="1603756800" r="2.5" fill="white"><title>2020-10-27: 16</title></circle>
	<circle cx="462.36" cy="170.50" data-y="15.89" data-x="1603843200" r="2.5" fill="white"><title>2020-10-28: 16</title></circle>
	<circle cx="464.27" cy="176.97" data-y="15.39" data-x="1603929600" r="2.5" fill="white"><title>2020-10-29: 15</title></circle>
	<circle cx="466.18" cy="248.16" data-y="9.86" data-x="1604016000" r="2.5" fill="white"><title>2020-10-30: 10</title></circle>
	<circle cx="468.09" cy="231.85" data-y="11.13" data-x="1604102400" r="2.5" fill="white"><title>2020-10-31: 11</title></circle>
	<circle cx="470.00" cy="295.72" data-y="6.16" data-x="1604188800" r="2.5" fill="white"><title>2020-11-01: 6</title></circle>
</g>
</svg>
