<svg width="480" height="400" viewBox="0 0 480 400" xmlns="http://www.w3.org/2000/svg" style="overflow:display" preserveAspectRatio="xMinYMin meet" overflow="visible">
<defs>
	<style>
	.data-series path.line { fill-opacity: 0; stroke: black; }
	.data-series path.line.dotted { stroke-dasharray: 12 20 }
	.data-series:hover path.line, .data-series.on path.line { stroke-width: 1; }
	.data-series:hover circle, .data-series.on circle { display: inline; }
	.graph-grid { font-family: "Helvetica Neue",Helvetica,Arial,"Lucida Grande",sans-serif; }
	.graph-grid line { stroke: black; stroke-width: 1; stroke-linecap: round; }
	.graph-grid.graph-grid-x text { text-anchor: middle; dominant-baseline: hanging; transform: translateY(10px); }
	.graph-grid.graph-grid-y text { text-anchor: end; dominant-baseline: middle; transform: translateX(-10px); }
	</style>
</defs>
<g class="graph-grid graph-grid-y">
	<line x1="25.00" y1="375.00" x2="470.00" y2="375.00" data-left="25"></line>
	<text x="35" y="375" text-anchor="end">0</text>
	<text x="35" y="249.95456097561" text-anchor="end">20</text>
	<text x="35" y="124.90912195122" text-anchor="end">40</text>
	<text style="text-anchor:middle;dominant-baseline:hanging;font-weight:bold;transform: translateY(192.5px) rotate(-90deg);"></text>
</g>
<g class="graph-grid graph-grid-x">
	<line class="tick" x1="56.12" y1="375.00" x2="56.12" y2="380.00"></line>
	<text x="56.1188811188811" y="375" text-anchor="middle">A</text>
	<line class="tick" x1="102.80" y1="375.00" x2="102.80" y2="380.00"></line>
	<text x="102.797202797203" y="375" text-anchor="middle">M</text>
	<line class="tick" x1="151.03" y1="375.00" x2="151.03" y2="380.00"></line>
	<text x="151.031468531469" y="375" text-anchor="middle">J</text>
	<line class="tick" x1="197.71" y1="375.00" x2="197.71" y2="380.00"></line>
	<text x="197.70979020979" y="375" text-anchor="middle">J</text>
	<line class="tick" x1="245.94" y1="375.00" x2="245.94" y2="380.00"></line>
	<text x="245.944055944056" y="375" text-anchor="middle">A</text>
	<line class="tick" x1="294.18" y1="375.00" x2="294.18" y2="380.00"></line>
	<text x="294.178321678322" y="375" text-anchor="middle">S</text>
	<line class="tick" x1="340.86" y1="375.00" x2="340.86" y2="380.00"></line>
	<text x="340.856643356643" y="375" text-anchor="middle">O</text>
	<line class="tick" x1="389.09" y1="375.00" x2="389.09" y2="380.00"></line>
	<text x="389.090909090909" y="375" text-anchor="middle">N</text>
	<line class="tick" x1="435.77" y1="375.00" x2="435.77" y2="380.00"></line>
	<text x="435.769230769231" y="375" text-anchor="middle">D</text>
	<text style="text-anchor:middle;dominant-baseline:hanging;font-weight:bold;transform: translateY(192.5px) rotate(-90deg);"></text>
</g>
<g data-series="widespread" class="data-series">
	<path d="M 25.00,331.23L 470.00,331.23" id="E07000176-level-0" class="line" stroke-width="1" stroke-linecap="round" stroke-dasharray="3,3" fill-opacity="0.3" opacity="0.3"><title>Widespread</title></path>
</g>
<g data-series="substantial" class="data-series">
	<path d="M 25.00,349.99L 470.00,349.99" id="E07000176-level-1" class="line" stroke-width="1" stroke-linecap="round" stroke-dasharray="3,3" fill-opacity="0.3" opacity="0.3"><title>Substantial</title></path>
</g>
<g data-series="moderate" class="data-series">
	<path d="M 25.00,368.75L 470.00,368.75" id="E07000176-level-2" class="line" stroke-width="1" stroke-linecap="round" stroke-dasharray="3,3" fill-opacity="0.3" opacity="0.3"><title>Moderate</title></path>
</g>
<g data-series="new-cases" class="data-series">
	<path d="M 25.00,369.81L 26.56,369.81L 28.11,368.94L 29.67,369.07L 31.22,369.07L 32.78,369.81L 34.34,369.81L 35.89,369.81L 37.45,369.07L 39.00,369.81L 40.56,367.58L 42.12,361.65L 43.67,359.42L 45.23,358.68L 46.78,353.49L 48.34,352.00L 49.90,347.55L 51.45,348.29L 53.01,354.23L 54.56,348.29L 56.12,348.29L 57.67,352.00L 59.23,352.74L 60.79,352.00L 62.34,352.00L 63.90,349.03L 65.45,357.20L 67.01,355.71L 68.57,356.45L 70.12,354.97L 71.68,357.20L 73.23,357.20L 74.79,350.52L 76.35,346.81L 77.90,344.58L 79.46,342.36L 81.01,342.36L 82.57,341.62L 84.13,335.68L 85.68,334.20L 87.24,334.20L 88.79,335.68L 90.35,335.68L 91.91,334.20L 93.46,333.46L 95.02,337.91L 96.57,346.81L 98.13,345.33L 99.69,348.29L 101.24,350.52L 102.80,354.97L 104.35,357.94L 105.91,360.16L 107.47,360.16L 109.02,364.61L 110.58,363.87L 112.13,363.87L 113.69,353.49L 115.24,349.78L 116.80,346.81L 118.36,347.55L 119.91,343.10L 121.47,340.87L 123.02,340.87L 124.58,350.52L 126.14,355.71L 127.69,359.42L 129.25,353.49L 130.80,354.23L 132.36,357.94L 133.92,357.20L 135.47,357.20L 137.03,349.03L 138.58,349.03L 140.14,354.23L 141.70,358.68L 143.25,357.20L 144.81,356.45L 146.36,357.20L 147.92,362.39L 149.48,360.16L 151.03,361.65L 152.59,361.65L 154.14,363.13L 155.70,364.61L 157.26,365.36L 158.81,366.10L 160.37,369.07L 161.92,369.81L 163.48,369.81L 165.03,369.81L 166.59,369.81L 168.15,365.36L 169.70,368.32L 171.26,367.58L 172.81,366.10L 174.37,366.84L 175.93,366.84L 177.48,367.58L 179.04,369.07L 180.59,368.32L 182.15,368.32L 183.71,369.81L 185.26,369.81L 186.82,369.81L 188.37,369.81L 189.93,369.81L 191.49,369.81L 193.04,370.55L 194.60,371.29L 196.15,371.29L 197.71,371.29L 199.27,370.55L 200.82,372.77L 202.38,373.52L 203.93,373.52L 205.49,371.29L 207.05,369.07L 208.60,368.32L 210.16,369.07L 211.71,369.81L 213.27,369.07L 214.83,369.07L 216.38,371.29L 217.94,372.77L 219.49,373.52L 221.05,372.77L 222.60,372.03L 224.16,372.77L 225.72,372.03L 227.27,372.03L 228.83,372.03L 230.38,372.03L 231.94,372.77L 233.50,373.52L 235.05,372.03L 236.61,372.77L 238.16,372.77L 239.72,372.77L 241.28,372.03L 242.83,372.03L 244.39,371.29L 245.94,372.03L 247.50,372.03L 249.06,372.03L 250.61,372.77L 252.17,372.77L 253.72,372.77L 255.28,372.77L 256.84,372.77L 258.39,372.03L 259.95,369.81L 261.50,368.32L 263.06,368.32L 264.62,368.32L 266.17,369.07L 267.73,368.32L 269.28,368.32L 270.84,369.81L 272.40,369.81L 273.95,369.81L 275.51,369.07L 277.06,367.58L 278.62,368.32L 280.17,366.84L 281.73,366.10L 283.29,365.36L 284.84,363.87L 286.40,362.39L 287.95,363.13L 289.51,360.16L 291.07,359.42L 292.62,357.20L 294.18,358.68L 295.73,360.16L 297.29,359.42L 298.85,357.94L 300.40,360.90L 301.96,354.97L 303.51,355.71L 305.07,349.78L 306.63,348.29L 308.18,347.55L 309.74,342.36L 311.29,337.16L 312.85,343.84L 314.41,343.10L 315.96,346.81L 317.52,347.55L 319.07,344.58L 320.63,348.29L 322.19,352.00L 323.74,349.78L 325.30,347.55L 326.85,346.81L 328.41,343.10L 329.97,342.36L 331.52,330.49L 333.08,322.33L 334.63,307.49L 336.19,293.39L 337.74,263.72L 339.30,236.27L 340.86,219.21L 342.41,201.40L 343.97,166.53L 345.52,152.44L 347.08,118.31L 348.64,116.09L 350.19,116.09L 351.75,106.44L 353.30,90.86L 354.86,80.48L 356.42,57.48L 357.97,58.96L 359.53,58.96L 361.08,47.84L 362.64,50.80L 364.20,28.55L 365.75,30.77L 367.31,30.77L 368.86,24.10L 370.42,10.00L 371.98,27.06L 373.53,22.61L 375.09,37.45L 376.64,50.80L 378.20,58.96L 379.76,50.80L 381.31,59.71L 382.87,41.90L 384.42,46.35L 385.98,56.00L 387.53,69.35L 389.09,90.12L 390.65,136.12L 392.20,155.41L 393.76,178.40L 395.31,195.47L 396.87,207.34L 398.43,196.21L 399.98,193.98L 401.54,188.79L 403.09,185.08L 404.65,182.86L 406.21,176.18L 407.76,179.89L 409.32,188.79L 410.87,196.21L 412.43,198.43L 413.99,200.66L 415.54,213.27L 417.10,225.88L 418.65,237.75L 420.21,252.59L 421.77,266.69L 423.32,278.56L 424.88,286.72L 426.43,283.75L 427.99,285.23L 429.55,283.75L 431.10,281.52L 432.66,279.30L 434.21,281.52L 435.77,285.23L 437.33,293.39L 438.88,294.14L 440.44,307.49L 441.99,308.23L 443.55,301.55L 445.10,294.14L 446.66,289.68L 448.22,280.78L 449.77,272.62L 451.33,261.49L 452.88,254.08L 454.44,240.72L 456.00,225.88L 457.55,211.05L 459.11,212.53L 460.66,198.43L 462.22,176.92" id="New cases" class="line" stroke-width="1" stroke-linecap="round"><title>New cases</title></path>
	<circle cx="25.00" cy="369.81" data-y="0.83" data-x="1583971200" r="1" fill="white"><title>2020-03-12: 1</title></circle>
	<circle cx="26.56" cy="369.81" data-y="0.83" data-x="1584057600" r="1" fill="white"><title>2020-03-13: 1</title></circle>
	<circle cx="28.11" cy="368.94" data-y="0.97" data-x="1584144000" r="1" fill="white"><title>2020-03-14: 1</title></circle>
	<circle cx="29.67" cy="369.07" data-y="0.95" data-x="1584230400" r="1" fill="white"><title>2020-03-15: 1</title></circle>
	<circle cx="31.22" cy="369.07" data-y="0.95" data-x="1584316800" r="1" fill="white"><title>2020-03-16: 1</title></circle>
	<circle cx="32.78" cy="369.81" data-y="0.83" data-x="1584403200" r="1" fill="white"><title>2020-03-17: 1</title></circle>
	<circle cx="34.34" cy="369.81" data-y="0.83" data-x="1584489600" r="1" fill="white"><title>2020-03-18: 1</title></circle>
	<circle cx="35.89" cy="369.81" data-y="0.83" data-x="1584576000" r="1" fill="white"><title>2020-03-19: 1</title></circle>
	<circle cx="37.45" cy="369.07" data-y="0.95" data-x="1584662400" r="1" fill="white"><title>2020-03-20: 1</title></circle>
	<circle cx="39.00" cy="369.81" data-y="0.83" data-x="1584748800" r="1" fill="white"><title>2020-03-21: 1</title></circle>
	<circle cx="40.56" cy="367.58" data-y="1.19" data-x="1584835200" r="1" fill="white"><title>2020-03-22: 1</title></circle>
	<circle cx="42.12" cy="361.65" data-y="2.14" data-x="1584921600" r="1" fill="white"><title>2020-03-23: 2</title></circle>
	<circle cx="43.67" cy="359.42" data-y="2.49" data-x="1585008000" r="1" fill="white"><title>2020-03-24: 2</title></circle>
	<circle cx="45.23" cy="358.68" data-y="2.61" data-x="1585094400" r="1" fill="white"><title>2020-03-25: 3</title></circle>
	<circle cx="46.78" cy="353.49" data-y="3.44" data-x="1585180800" r="1" fill="white"><title>2020-03-26: 3</title></circle>
	<circle cx="48.34" cy="352.00" data-y="3.68" data-x="1585267200" r="1" fill="white"><title>2020-03-27: 4</title></circle>
	<circle cx="49.90" cy="347.55" data-y="4.39" data-x="1585353600" r="1" fill="white"><title>2020-03-28: 4</title></circle>
	<circle cx="51.45" cy="348.29" data-y="4.27" data-x="1585440000" r="1" fill="white"><title>2020-03-29: 4</title></circle>
	<circle cx="53.01" cy="354.23" data-y="3.32" data-x="1585526400" r="1" fill="white"><title>2020-03-30: 3</title></circle>
	<circle cx="54.56" cy="348.29" data-y="4.27" data-x="1585612800" r="1" fill="white"><title>2020-03-31: 4</title></circle>
	<circle cx="56.12" cy="348.29" data-y="4.27" data-x="1585699200" r="1" fill="white"><title>2020-04-01: 4</title></circle>
	<circle cx="57.67" cy="352.00" data-y="3.68" data-x="1585785600" r="1" fill="white"><title>2020-04-02: 4</title></circle>
	<circle cx="59.23" cy="352.74" data-y="3.56" data-x="1585872000" r="1" fill="white"><title>2020-04-03: 4</title></circle>
	<circle cx="60.79" cy="352.00" data-y="3.68" data-x="1585958400" r="1" fill="white"><title>2020-04-04: 4</title></circle>
	<circle cx="62.34" cy="352.00" data-y="3.68" data-x="1586044800" r="1" fill="white"><title>2020-04-05: 4</title></circle>
	<circle cx="63.90" cy="349.03" data-y="4.15" data-x="1586131200" r="1" fill="white"><title>2020-04-06: 4</title></circle>
	<circle cx="65.45" cy="357.20" data-y="2.85" data-x="1586217600" r="1" fill="white"><title>2020-04-07: 3</title></circle>
	<circle cx="67.01" cy="355.71" data-y="3.09" data-x="1586304000" r="1" fill="white"><title>2020-04-08: 3</title></circle>
	<circle cx="68.57" cy="356.45" data-y="2.97" data-x="1586390400" r="1" fill="white"><title>2020-04-09: 3</title></circle>
	<circle cx="70.12" cy="354.97" data-y="3.20" data-x="1586476800" r="1" fill="white"><title>2020-04-10: 3</title></circle>
	<circle cx="71.68" cy="357.20" data-y="2.85" data-x="1586563200" r="1" fill="white"><title>2020-04-11: 3</title></circle>
	<circle cx="73.23" cy="357.20" data-y="2.85" data-x="1586649600" r="1" fill="white"><title>2020-04-12: 3</title></circle>
	<circle cx="74.79" cy="350.52" data-y="3.92" data-x="1586736000" r="1" fill="white"><title>2020-04-13: 4</title></circle>
	<circle cx="76.35" cy="346.81" data-y="4.51" data-x="1586822400" r="1" fill="white"><title>2020-04-14: 5</title></circle>
	<circle cx="77.90" cy="344.58" data-y="4.86" data-x="1586908800" r="1" fill="white"><title>2020-04-15: 5</title></circle>
	<circle cx="79.46" cy="342.36" data-y="5.22" data-x="1586995200" r="1" fill="white"><title>2020-04-16: 5</title></circle>
	<circle cx="81.01" cy="342.36" data-y="5.22" data-x="1587081600" r="1" fill="white"><title>2020-04-17: 5</title></circle>
	<circle cx="82.57" cy="341.62" data-y="5.34" data-x="1587168000" r="1" fill="white"><title>2020-04-18: 5</title></circle>
	<circle cx="84.13" cy="335.68" data-y="6.29" data-x="1587254400" r="1" fill="white"><title>2020-04-19: 6</title></circle>
	<circle cx="85.68" cy="334.20" data-y="6.53" data-x="1587340800" r="1" fill="white"><title>2020-04-20: 7</title></circle>
	<circle cx="87.24" cy="334.20" data-y="6.53" data-x="1587427200" r="1" fill="white"><title>2020-04-21: 7</title></circle>
	<circle cx="88.79" cy="335.68" data-y="6.29" data-x="1587513600" r="1" fill="white"><title>2020-04-22: 6</title></circle>
	<circle cx="90.35" cy="335.68" data-y="6.29" data-x="1587600000" r="1" fill="white"><title>2020-04-23: 6</title></circle>
	<circle cx="91.91" cy="334.20" data-y="6.53" data-x="1587686400" r="1" fill="white"><title>2020-04-24: 7</title></circle>
	<circle cx="93.46" cy="333.46" data-y="6.64" data-x="1587772800" r="1" fill="white"><title>2020-04-25: 7</title></circle>
	<circle cx="95.02" cy="337.91" data-y="5.93" data-x="1587859200" r="1" fill="white"><title>2020-04-26: 6</title></circle>
	<circle cx="96.57" cy="346.81" data-y="4.51" data-x="1587945600" r="1" fill="white"><title>2020-04-27: 5</title></circle>
	<circle cx="98.13" cy="345.33" data-y="4.75" data-x="1588032000" r="1" fill="white"><title>2020-04-28: 5</title></circle>
	<circle cx="99.69" cy="348.29" data-y="4.27" data-x="1588118400" r="1" fill="white"><title>2020-04-29: 4</title></circle>
	<circle cx="101.24" cy="350.52" data-y="3.92" data-x="1588204800" r="1" fill="white"><title>2020-04-30: 4</title></circle>
	<circle cx="102.80" cy="354.97" data-y="3.20" data-x="1588291200" r="1" fill="white"><title>2020-05-01: 3</title></circle>
	<circle cx="104.35" cy="357.94" data-y="2.73" data-x="1588377600" r="1" fill="white"><title>2020-05-02: 3</title></circle>
	<circle cx="105.91" cy="360.16" data-y="2.37" data-x="1588464000" r="1" fill="white"><title>2020-05-03: 2</title></circle>
	<circle cx="107.47" cy="360.16" data-y="2.37" data-x="1588550400" r="1" fill="white"><title>2020-05-04: 2</title></circle>
	<circle cx="109.02" cy="364.61" data-y="1.66" data-x="1588636800" r="1" fill="white"><title>2020-05-05: 2</title></circle>
	<circle cx="110.58" cy="363.87" data-y="1.78" data-x="1588723200" r="1" fill="white"><title>2020-05-06: 2</title></circle>
	<circle cx="112.13" cy="363.87" data-y="1.78" data-x="1588809600" r="1" fill="white"><title>2020-05-07: 2</title></circle>
	<circle cx="113.69" cy="353.49" data-y="3.44" data-x="1588896000" r="1" fill="white"><title>2020-05-08: 3</title></circle>
	<circle cx="115.24" cy="349.78" data-y="4.03" data-x="1588982400" r="1" fill="white"><title>2020-05-09: 4</title></circle>
	<circle cx="116.80" cy="346.81" data-y="4.51" data-x="1589068800" r="1" fill="white"><title>2020-05-10: 5</title></circle>
	<circle cx="118.36" cy="347.55" data-y="4.39" data-x="1589155200" r="1" fill="white"><title>2020-05-11: 4</title></circle>
	<circle cx="119.91" cy="343.10" data-y="5.10" data-x="1589241600" r="1" fill="white"><title>2020-05-12: 5</title></circle>
	<circle cx="121.47" cy="340.87" data-y="5.46" data-x="1589328000" r="1" fill="white"><title>2020-05-13: 5</title></circle>
	<circle cx="123.02" cy="340.87" data-y="5.46" data-x="1589414400" r="1" fill="white"><title>2020-05-14: 5</title></circle>
	<circle cx="124.58" cy="350.52" data-y="3.92" data-x="1589500800" r="1" fill="white"><title>2020-05-15: 4</title></circle>
	<circle cx="126.14" cy="355.71" data-y="3.09" data-x="1589587200" r="1" fill="white"><title>2020-05-16: 3</title></circle>
	<circle cx="127.69" cy="359.42" data-y="2.49" data-x="1589673600" r="1" fill="white"><title>2020-05-17: 2</title></circle>
	<circle cx="129.25" cy="353.49" data-y="3.44" data-x="1589760000" r="1" fill="white"><title>2020-05-18: 3</title></circle>
	<circle cx="130.80" cy="354.23" data-y="3.32" data-x="1589846400" r="1" fill="white"><title>2020-05-19: 3</title></circle>
	<circle cx="132.36" cy="357.94" data-y="2.73" data-x="1589932800" r="1" fill="white"><title>2020-05-20: 3</title></circle>
	<circle cx="133.92" cy="357.20" data-y="2.85" data-x="1590019200" r="1" fill="white"><title>2020-05-21: 3</title></circle>
	<circle cx="135.47" cy="357.20" data-y="2.85" data-x="1590105600" r="1" fill="white"><title>2020-05-22: 3</title></circle>
	<circle cx="137.03" cy="349.03" data-y="4.15" data-x="1590192000" r="1" fill="white"><title>2020-05-23: 4</title></circle>
	<circle cx="138.58" cy="349.03" data-y="4.15" data-x="1590278400" r="1" fill="white"><title>2020-05-24: 4</title></circle>
	<circle cx="140.14" cy="354.23" data-y="3.32" data-x="1590364800" r="1" fill="white"><title>2020-05-25: 3</title></circle>
	<circle cx="141.70" cy="358.68" data-y="2.61" data-x="1590451200" r="1" fill="white"><title>2020-05-26: 3</title></circle>
	<circle cx="143.25" cy="357.20" data-y="2.85" data-x="1590537600" r="1" fill="white"><title>2020-05-27: 3</title></circle>
	<circle cx="144.81" cy="356.45" data-y="2.97" data-x="1590624000" r="1" fill="white"><title>2020-05-28: 3</title></circle>
	<circle cx="146.36" cy="357.20" data-y="2.85" data-x="1590710400" r="1" fill="white"><title>2020-05-29: 3</title></circle>
	<circle cx="147.92" cy="362.39" data-y="2.02" data-x="1590796800" r="1" fill="white"><title>2020-05-30: 2</title></circle>
	<circle cx="149.48" cy="360.16" data-y="2.37" data-x="1590883200" r="1" fill="white"><title>2020-05-31: 2</title></circle>
	<circle cx="151.03" cy="361.65" data-y="2.14" data-x="1590969600" r="1" fill="white"><title>2020-06-01: 2</title></circle>
	<circle cx="152.59" cy="361.65" data-y="2.14" data-x="1591056000" r="1" fill="white"><title>2020-06-02: 2</title></circle>
	<circle cx="154.14" cy="363.13" data-y="1.90" data-x="1591142400" r="1" fill="white"><title>2020-06-03: 2</title></circle>
	<circle cx="155.70" cy="364.61" data-y="1.66" data-x="1591228800" r="1" fill="white"><title>2020-06-04: 2</title></circle>
	<circle cx="157.26" cy="365.36" data-y="1.54" data-x="1591315200" r="1" fill="white"><title>2020-06-05: 2</title></circle>
	<circle cx="158.81" cy="366.10" data-y="1.42" data-x="1591401600" r="1" fill="white"><title>2020-06-06: 1</title></circle>
	<circle cx="160.37" cy="369.07" data-y="0.95" data-x="1591488000" r="1" fill="white"><title>2020-06-07: 1</title></circle>
	<circle cx="161.92" cy="369.81" data-y="0.83" data-x="1591574400" r="1" fill="white"><title>2020-06-08: 1</title></circle>
	<circle cx="163.48" cy="369.81" data-y="0.83" data-x="1591660800" r="1" fill="white"><title>2020-06-09: 1</title></circle>
	<circle cx="165.03" cy="369.81" data-y="0.83" data-x="1591747200" r="1" fill="white"><title>2020-06-10: 1</title></circle>
	<circle cx="166.59" cy="369.81" data-y="0.83" data-x="1591833600" r="1" fill="white"><title>2020-06-11: 1</title></circle>
	<circle cx="168.15" cy="365.36" data-y="1.54" data-x="1591920000" r="1" fill="white"><title>2020-06-12: 2</title></circle>
	<circle cx="169.70" cy="368.32" data-y="1.07" data-x="1592006400" r="1" fill="white"><title>2020-06-13: 1</title></circle>
	<circle cx="171.26" cy="367.58" data-y="1.19" data-x="1592092800" r="1" fill="white"><title>2020-06-14: 1</title></circle>
	<circle cx="172.81" cy="366.10" data-y="1.42" data-x="1592179200" r="1" fill="white"><title>2020-06-15: 1</title></circle>
	<circle cx="174.37" cy="366.84" data-y="1.31" data-x="1592265600" r="1" fill="white"><title>2020-06-16: 1</title></circle>
	<circle cx="175.93" cy="366.84" data-y="1.31" data-x="1592352000" r="1" fill="white"><title>2020-06-17: 1</title></circle>
	<circle cx="177.48" cy="367.58" data-y="1.19" data-x="1592438400" r="1" fill="white"><title>2020-06-18: 1</title></circle>
	<circle cx="179.04" cy="369.07" data-y="0.95" data-x="1592524800" r="1" fill="white"><title>2020-06-19: 1</title></circle>
	<circle cx="180.59" cy="368.32" data-y="1.07" data-x="1592611200" r="1" fill="white"><title>2020-06-20: 1</title></circle>
	<circle cx="182.15" cy="368.32" data-y="1.07" data-x="1592697600" r="1" fill="white"><title>2020-06-21: 1</title></circle>
	<circle cx="183.71" cy="369.81" data-y="0.83" data-x="1592784000" r="1" fill="white"><title>2020-06-22: 1</title></circle>
	<circle cx="185.26" cy="369.81" data-y="0.83" data-x="1592870400" r="1" fill="white"><title>2020-06-23: 1</title></circle>
	<circle cx="186.82" cy="369.81" data-y="0.83" data-x="1592956800" r="1" fill="white"><title>2020-06-24: 1</title></circle>
	<circle cx="188.37" cy="369.81" data-y="0.83" data-x="1593043200" r="1" fill="white"><title>2020-06-25: 1</title></circle>
	<circle cx="189.93" cy="369.81" data-y="0.83" data-x="1593129600" r="1" fill="white"><title>2020-06-26: 1</title></circle>
	<circle cx="191.49" cy="369.81" data-y="0.83" data-x="1593216000" r="1" fill="white"><title>2020-06-27: 1</title></circle>
	<circle cx="193.04" cy="370.55" data-y="0.71" data-x="1593302400" r="1" fill="white"><title>2020-06-28: 1</title></circle>
	<circle cx="194.60" cy="371.29" data-y="0.59" data-x="1593388800" r="1" fill="white"><title>2020-06-29: 1</title></circle>
	<circle cx="196.15" cy="371.29" data-y="0.59" data-x="1593475200" r="1" fill="white"><title>2020-06-30: 1</title></circle>
	<circle cx="197.71" cy="371.29" data-y="0.59" data-x="1593561600" r="1" fill="white"><title>2020-07-01: 1</title></circle>
	<circle cx="199.27" cy="370.55" data-y="0.71" data-x="1593648000" r="1" fill="white"><title>2020-07-02: 1</title></circle>
	<circle cx="200.82" cy="372.77" data-y="0.36" data-x="1593734400" r="1" fill="white"><title>2020-07-03: 0</title></circle>
	<circle cx="202.38" cy="373.52" data-y="0.24" data-x="1593820800" r="1" fill="white"><title>2020-07-04: 0</title></circle>
	<circle cx="203.93" cy="373.52" data-y="0.24" data-x="1593907200" r="1" fill="white"><title>2020-07-05: 0</title></circle>
	<circle cx="205.49" cy="371.29" data-y="0.59" data-x="1593993600" r="1" fill="white"><title>2020-07-06: 1</title></circle>
	<circle cx="207.05" cy="369.07" data-y="0.95" data-x="1594080000" r="1" fill="white"><title>2020-07-07: 1</title></circle>
	<circle cx="208.60" cy="368.32" data-y="1.07" data-x="1594166400" r="1" fill="white"><title>2020-07-08: 1</title></circle>
	<circle cx="210.16" cy="369.07" data-y="0.95" data-x="1594252800" r="1" fill="white"><title>2020-07-09: 1</title></circle>
	<circle cx="211.71" cy="369.81" data-y="0.83" data-x="1594339200" r="1" fill="white"><title>2020-07-10: 1</title></circle>
	<circle cx="213.27" cy="369.07" data-y="0.95" data-x="1594425600" r="1" fill="white"><title>2020-07-11: 1</title></circle>
	<circle cx="214.83" cy="369.07" data-y="0.95" data-x="1594512000" r="1" fill="white"><title>2020-07-12: 1</title></circle>
	<circle cx="216.38" cy="371.29" data-y="0.59" data-x="1594598400" r="1" fill="white"><title>2020-07-13: 1</title></circle>
	<circle cx="217.94" cy="372.77" data-y="0.36" data-x="1594684800" r="1" fill="white"><title>2020-07-14: 0</title></circle>
	<circle cx="219.49" cy="373.52" data-y="0.24" data-x="1594771200" r="1" fill="white"><title>2020-07-15: 0</title></circle>
	<circle cx="221.05" cy="372.77" data-y="0.36" data-x="1594857600" r="1" fill="white"><title>2020-07-16: 0</title></circle>
	<circle cx="222.60" cy="372.03" data-y="0.47" data-x="1594944000" r="1" fill="white"><title>2020-07-17: 0</title></circle>
	<circle cx="224.16" cy="372.77" data-y="0.36" data-x="1595030400" r="1" fill="white"><title>2020-07-18: 0</title></circle>
	<circle cx="225.72" cy="372.03" data-y="0.47" data-x="1595116800" r="1" fill="white"><title>2020-07-19: 0</title></circle>
	<circle cx="227.27" cy="372.03" data-y="0.47" data-x="1595203200" r="1" fill="white"><title>2020-07-20: 0</title></circle>
	<circle cx="228.83" cy="372.03" data-y="0.47" data-x="1595289600" r="1" fill="white"><title>2020-07-21: 0</title></circle>
	<circle cx="230.38" cy="372.03" data-y="0.47" data-x="1595376000" r="1" fill="white"><title>2020-07-22: 0</title></circle>
	<circle cx="231.94" cy="372.77" data-y="0.36" data-x="1595462400" r="1" fill="white"><title>2020-07-23: 0</title></circle>
	<circle cx="233.50" cy="373.52" data-y="0.24" data-x="1595548800" r="1" fill="white"><title>2020-07-24: 0</title></circle>
	<circle cx="235.05" cy="372.03" data-y="0.47" data-x="1595635200" r="1" fill="white"><title>2020-07-25: 0</title></circle>
	<circle cx="236.61" cy="372.77" data-y="0.36" data-x="1595721600" r="1" fill="white"><title>2020-07-26: 0</title></circle>
	<circle cx="238.16" cy="372.77" data-y="0.36" data-x="1595808000" r="1" fill="white"><title>2020-07-27: 0</title></circle>
	<circle cx="239.72" cy="372.77" data-y="0.36" data-x="1595894400" r="1" fill="white"><title>2020-07-28: 0</title></circle>
	<circle cx="241.28" cy="372.03" data-y="0.47" data-x="1595980800" r="1" fill="white"><title>2020-07-29: 0</title></circle>
	<circle cx="242.83" cy="372.03" data-y="0.47" data-x="1596067200" r="1" fill="white"><title>2020-07-30: 0</title></circle>
	<circle cx="244.39" cy="371.29" data-y="0.59" data-x="1596153600" r="1" fill="white"><title>2020-07-31: 1</title></circle>
	<circle cx="245.94" cy="372.03" data-y="0.47" data-x="1596240000" r="1" fill="white"><title>2020-08-01: 0</title></circle>
	<circle cx="247.50" cy="372.03" data-y="0.47" data-x="1596326400" r="1" fill="white"><title>2020-08-02: 0</title></circle>
	<circle cx="249.06" cy="372.03" data-y="0.47" data-x="1596412800" r="1" fill="white"><title>2020-08-03: 0</title></circle>
	<circle cx="250.61" cy="372.77" data-y="0.36" data-x="1596499200" r="1" fill="white"><title>2020-08-04: 0</title></circle>
	<circle cx="252.17" cy="372.77" data-y="0.36" data-x="1596585600" r="1" fill="white"><title>2020-08-05: 0</title></circle>
	<circle cx="253.72" cy="372.77" data-y="0.36" data-x="1596672000" r="1" fill="white"><title>2020-08-06: 0</title></circle>
	<circle cx="255.28" cy="372.77" data-y="0.36" data-x="1596758400" r="1" fill="white"><title>2020-08-07: 0</title></circle>
	<circle cx="256.84" cy="372.77" data-y="0.36" data-x="1596844800" r="1" fill="white"><title>2020-08-08: 0</title></circle>
	<circle cx="258.39" cy="372.03" data-y="0.47" data-x="1596931200" r="1" fill="white"><title>2020-08-09: 0</title></circle>
	<circle cx="259.95" cy="369.81" data-y="0.83" data-x="1597017600" r="1" fill="white"><title>2020-08-10: 1</title></circle>
	<circle cx="261.50" cy="368.32" data-y="1.07" data-x="1597104000" r="1" fill="white"><title>2020-08-11: 1</title></circle>
	<circle cx="263.06" cy="368.32" data-y="1.07" data-x="1597190400" r="1" fill="white"><title>2020-08-12: 1</title></circle>
	<circle cx="264.62" cy="368.32" data-y="1.07" data-x="1597276800" r="1" fill="white"><title>2020-08-13: 1</title></circle>
	<circle cx="266.17" cy="369.07" data-y="0.95" data-x="1597363200" r="1" fill="white"><title>2020-08-14: 1</title></circle>
	<circle cx="267.73" cy="368.32" data-y="1.07" data-x="1597449600" r="1" fill="white"><title>2020-08-15: 1</title></circle>
	<circle cx="269.28" cy="368.32" data-y="1.07" data-x="1597536000" r="1" fill="white"><title>2020-08-16: 1</title></circle>
	<circle cx="270.84" cy="369.81" data-y="0.83" data-x="1597622400" r="1" fill="white"><title>2020-08-17: 1</title></circle>
	<circle cx="272.40" cy="369.81" data-y="0.83" data-x="1597708800" r="1" fill="white"><title>2020-08-18: 1</title></circle>
	<circle cx="273.95" cy="369.81" data-y="0.83" data-x="1597795200" r="1" fill="white"><title>2020-08-19: 1</title></circle>
	<circle cx="275.51" cy="369.07" data-y="0.95" data-x="1597881600" r="1" fill="white"><title>2020-08-20: 1</title></circle>
	<circle cx="277.06" cy="367.58" data-y="1.19" data-x="1597968000" r="1" fill="white"><title>2020-08-21: 1</title></circle>
	<circle cx="278.62" cy="368.32" data-y="1.07" data-x="1598054400" r="1" fill="white"><title>2020-08-22: 1</title></circle>
	<circle cx="280.17" cy="366.84" data-y="1.31" data-x="1598140800" r="1" fill="white"><title>2020-08-23: 1</title></circle>
	<circle cx="281.73" cy="366.10" data-y="1.42" data-x="1598227200" r="1" fill="white"><title>2020-08-24: 1</title></circle>
	<circle cx="283.29" cy="365.36" data-y="1.54" data-x="1598313600" r="1" fill="white"><title>2020-08-25: 2</title></circle>
	<circle cx="284.84" cy="363.87" data-y="1.78" data-x="1598400000" r="1" fill="white"><title>2020-08-26: 2</title></circle>
	<circle cx="286.40" cy="362.39" data-y="2.02" data-x="1598486400" r="1" fill="white"><title>2020-08-27: 2</title></circle>
	<circle cx="287.95" cy="363.13" data-y="1.90" data-x="1598572800" r="1" fill="white"><title>2020-08-28: 2</title></circle>
	<circle cx="289.51" cy="360.16" data-y="2.37" data-x="1598659200" r="1" fill="white"><title>2020-08-29: 2</title></circle>
	<circle cx="291.07" cy="359.42" data-y="2.49" data-x="1598745600" r="1" fill="white"><title>2020-08-30: 2</title></circle>
	<circle cx="292.62" cy="357.20" data-y="2.85" data-x="1598832000" r="1" fill="white"><title>2020-08-31: 3</title></circle>
	<circle cx="294.18" cy="358.68" data-y="2.61" data-x="1598918400" r="1" fill="white"><title>2020-09-01: 3</title></circle>
	<circle cx="295.73" cy="360.16" data-y="2.37" data-x="1599004800" r="1" fill="white"><title>2020-09-02: 2</title></circle>
	<circle cx="297.29" cy="359.42" data-y="2.49" data-x="1599091200" r="1" fill="white"><title>2020-09-03: 2</title></circle>
	<circle cx="298.85" cy="357.94" data-y="2.73" data-x="1599177600" r="1" fill="white"><title>2020-09-04: 3</title></circle>
	<circle cx="300.40" cy="360.90" data-y="2.25" data-x="1599264000" r="1" fill="white"><title>2020-09-05: 2</title></circle>
	<circle cx="301.96" cy="354.97" data-y="3.20" data-x="1599350400" r="1" fill="white"><title>2020-09-06: 3</title></circle>
	<circle cx="303.51" cy="355.71" data-y="3.09" data-x="1599436800" r="1" fill="white"><title>2020-09-07: 3</title></circle>
	<circle cx="305.07" cy="349.78" data-y="4.03" data-x="1599523200" r="1" fill="white"><title>2020-09-08: 4</title></circle>
	<circle cx="306.63" cy="348.29" data-y="4.27" data-x="1599609600" r="1" fill="white"><title>2020-09-09: 4</title></circle>
	<circle cx="308.18" cy="347.55" data-y="4.39" data-x="1599696000" r="1" fill="white"><title>2020-09-10: 4</title></circle>
	<circle cx="309.74" cy="342.36" data-y="5.22" data-x="1599782400" r="1" fill="white"><title>2020-09-11: 5</title></circle>
	<circle cx="311.29" cy="337.16" data-y="6.05" data-x="1599868800" r="1" fill="white"><title>2020-09-12: 6</title></circle>
	<circle cx="312.85" cy="343.84" data-y="4.98" data-x="1599955200" r="1" fill="white"><title>2020-09-13: 5</title></circle>
	<circle cx="314.41" cy="343.10" data-y="5.10" data-x="1600041600" r="1" fill="white"><title>2020-09-14: 5</title></circle>
	<circle cx="315.96" cy="346.81" data-y="4.51" data-x="1600128000" r="1" fill="white"><title>2020-09-15: 5</title></circle>
	<circle cx="317.52" cy="347.55" data-y="4.39" data-x="1600214400" r="1" fill="white"><title>2020-09-16: 4</title></circle>
	<circle cx="319.07" cy="344.58" data-y="4.86" data-x="1600300800" r="1" fill="white"><title>2020-09-17: 5</title></circle>
	<circle cx="320.63" cy="348.29" data-y="4.27" data-x="1600387200" r="1" fill="white"><title>2020-09-18: 4</title></circle>
	<circle cx="322.19" cy="352.00" data-y="3.68" data-x="1600473600" r="1" fill="white"><title>2020-09-19: 4</title></circle>
	<circle cx="323.74" cy="349.78" data-y="4.03" data-x="1600560000" r="1" fill="white"><title>2020-09-20: 4</title></circle>
	<circle cx="325.30" cy="347.55" data-y="4.39" data-x="1600646400" r="1" fill="white"><title>2020-09-21: 4</title></circle>
	<circle cx="326.85" cy="346.81" data-y="4.51" data-x="1600732800" r="1" fill="white"><title>2020-09-22: 5</title></circle>
	<circle cx="328.41" cy="343.10" data-y="5.10" data-x="1600819200" r="1" fill="white"><title>2020-09-23: 5</title></circle>
	<circle cx="329.97" cy="342.36" data-y="5.22" data-x="1600905600" r="1" fill="white"><title>2020-09-24: 5</title></circle>
	<circle cx="331.52" cy="330.49" data-y="7.12" data-x="1600992000" r="1" fill="white"><title>2020-09-25: 7</title></circle>
	<circle cx="333.08" cy="322.33" data-y="8.42" data-x="1601078400" r="1" fill="white"><title>2020-09-26: 8</title></circle>
	<circle cx="334.63" cy="307.49" data-y="10.80" data-x="1601164800" r="1" fill="white"><title>2020-09-27: 11</title></circle>
	<circle cx="336.19" cy="293.39" data-y="13.05" data-x="1601251200" r="1" fill="white"><title>2020-09-28: 13</title></circle>
	<circle cx="337.74" cy="263.72" data-y="17.80" data-x="1601337600" r="1" fill="white"><title>2020-09-29: 18</title></circle>
	<circle cx="339.30" cy="236.27" data-y="22.19" data-x="1601424000" r="1" fill="white"><title>2020-09-30: 22</title></circle>
	<circle cx="340.86" cy="219.21" data-y="24.92" data-x="1601510400" r="1" fill="white"><title>2020-10-01: 25</title></circle>
	<circle cx="342.41" cy="201.40" data-y="27.77" data-x="1601596800" r="1" fill="white"><title>2020-10-02: 28</title></circle>
	<circle cx="343.97" cy="166.53" data-y="33.34" data-x="1601683200" r="1" fill="white"><title>2020-10-03: 33</title></circle>
	<circle cx="345.52" cy="152.44" data-y="35.60" data-x="1601769600" r="1" fill="white"><title>2020-10-04: 36</title></circle>
	<circle cx="347.08" cy="118.31" data-y="41.05" data-x="1601856000" r="1" fill="white"><title>2020-10-05: 41</title></circle>
	<circle cx="348.64" cy="116.09" data-y="41.41" data-x="1601942400" r="1" fill="white"><title>2020-10-06: 41</title></circle>
	<circle cx="350.19" cy="116.09" data-y="41.41" data-x="1602028800" r="1" fill="white"><title>2020-10-07: 41</title></circle>
	<circle cx="351.75" cy="106.44" data-y="42.95" data-x="1602115200" r="1" fill="white"><title>2020-10-08: 43</title></circle>
	<circle cx="353.30" cy="90.86" data-y="45.45" data-x="1602201600" r="1" fill="white"><title>2020-10-09: 45</title></circle>
	<circle cx="354.86" cy="80.48" data-y="47.11" data-x="1602288000" r="1" fill="white"><title>2020-10-10: 47</title></circle>
	<circle cx="356.42" cy="57.48" data-y="50.78" data-x="1602374400" r="1" fill="white"><title>2020-10-11: 51</title></circle>
	<circle cx="357.97" cy="58.96" data-y="50.55" data-x="1602460800" r="1" fill="white"><title>2020-10-12: 51</title></circle>
	<circle cx="359.53" cy="58.96" data-y="50.55" data-x="1602547200" r="1" fill="white"><title>2020-10-13: 51</title></circle>
	<circle cx="361.08" cy="47.84" data-y="52.33" data-x="1602633600" r="1" fill="white"><title>2020-10-14: 52</title></circle>
	<circle cx="362.64" cy="50.80" data-y="51.85" data-x="1602720000" r="1" fill="white"><title>2020-10-15: 52</title></circle>
	<circle cx="364.20" cy="28.55" data-y="55.41" data-x="1602806400" r="1" fill="white"><title>2020-10-16: 55</title></circle>
	<circle cx="365.75" cy="30.77" data-y="55.06" data-x="1602892800" r="1" fill="white"><title>2020-10-17: 55</title></circle>
	<circle cx="367.31" cy="30.77" data-y="55.06" data-x="1602979200" r="1" fill="white"><title>2020-10-18: 55</title></circle>
	<circle cx="368.86" cy="24.10" data-y="56.12" data-x="1603065600" r="1" fill="white"><title>2020-10-19: 56</title></circle>
	<circle cx="370.42" cy="10.00" data-y="58.38" data-x="1603152000" r="1" fill="white"><title>2020-10-20: 58</title></circle>
	<circle cx="371.98" cy="27.06" data-y="55.65" data-x="1603238400" r="1" fill="white"><title>2020-10-21: 56</title></circle>
	<circle cx="373.53" cy="22.61" data-y="56.36" data-x="1603324800" r="1" fill="white"><title>2020-10-22: 56</title></circle>
	<circle cx="375.09" cy="37.45" data-y="53.99" data-x="1603411200" r="1" fill="white"><title>2020-10-23: 54</title></circle>
	<circle cx="376.64" cy="50.80" data-y="51.85" data-x="1603497600" r="1" fill="white"><title>2020-10-24: 52</title></circle>
	<circle cx="378.20" cy="58.96" data-y="50.55" data-x="1603584000" r="1" fill="white"><title>2020-10-25: 51</title></circle>
	<circle cx="379.76" cy="50.80" data-y="51.85" data-x="1603670400" r="1" fill="white"><title>2020-10-26: 52</title></circle>
	<circle cx="381.31" cy="59.71" data-y="50.43" data-x="1603756800" r="1" fill="white"><title>2020-10-27: 50</title></circle>
	<circle cx="382.87" cy="41.90" data-y="53.28" data-x="1603843200" r="1" fill="white"><title>2020-10-28: 53</title></circle>
	<circle cx="384.42" cy="46.35" data-y="52.56" data-x="1603929600" r="1" fill="white"><title>2020-10-29: 53</title></circle>
	<circle cx="385.98" cy="56.00" data-y="51.02" data-x="1604016000" r="1" fill="white"><title>2020-10-30: 51</title></circle>
	<circle cx="387.53" cy="69.35" data-y="48.89" data-x="1604102400" r="1" fill="white"><title>2020-10-31: 49</title></circle>
	<circle cx="389.09" cy="90.12" data-y="45.56" data-x="1604188800" r="1" fill="white"><title>2020-11-01: 46</title></circle>
	<circle cx="390.65" cy="136.12" data-y="38.21" data-x="1604275200" r="1" fill="white"><title>2020-11-02: 38</title></circle>
	<circle cx="392.20" cy="155.41" data-y="35.12" data-x="1604361600" r="1" fill="white"><title>2020-11-03: 35</title></circle>
	<circle cx="393.76" cy="178.40" data-y="31.44" data-x="1604448000" r="1" fill="white"><title>2020-11-04: 31</title></circle>
	<circle cx="395.31" cy="195.47" data-y="28.71" data-x="1604534400" r="1" fill="white"><title>2020-11-05: 29</title></circle>
	<circle cx="396.87" cy="207.34" data-y="26.82" data-x="1604620800" r="1" fill="white"><title>2020-11-06: 27</title></circle>
	<circle cx="398.43" cy="196.21" data-y="28.60" data-x="1604707200" r="1" fill="white"><title>2020-11-07: 29</title></circle>
	<circle cx="399.98" cy="193.98" data-y="28.95" data-x="1604793600" r="1" fill="white"><title>2020-11-08: 29</title></circle>
	<circle cx="401.54" cy="188.79" data-y="29.78" data-x="1604880000" r="1" fill="white"><title>2020-11-09: 30</title></circle>
	<circle cx="403.09" cy="185.08" data-y="30.38" data-x="1604966400" r="1" fill="white"><title>2020-11-10: 30</title></circle>
	<circle cx="404.65" cy="182.86" data-y="30.73" data-x="1605052800" r="1" fill="white"><title>2020-11-11: 31</title></circle>
	<circle cx="406.21" cy="176.18" data-y="31.80" data-x="1605139200" r="1" fill="white"><title>2020-11-12: 32</title></circle>
	<circle cx="407.76" cy="179.89" data-y="31.21" data-x="1605225600" r="1" fill="white"><title>2020-11-13: 31</title></circle>
	<circle cx="409.32" cy="188.79" data-y="29.78" data-x="1605312000" r="1" fill="white"><title>2020-11-14: 30</title></circle>
	<circle cx="410.87" cy="196.21" data-y="28.60" data-x="1605398400" r="1" fill="white"><title>2020-11-15: 29</title></circle>
	<circle cx="412.43" cy="198.43" data-y="28.24" data-x="1605484800" r="1" fill="white"><title>2020-11-16: 28</title></circle>
	<circle cx="413.99" cy="200.66" data-y="27.88" data-x="1605571200" r="1" fill="white"><title>2020-11-17: 28</title></circle>
	<circle cx="415.54" cy="213.27" data-y="25.87" data-x="1605657600" r="1" fill="white"><title>2020-11-18: 26</title></circle>
	<circle cx="417.10" cy="225.88" data-y="23.85" data-x="1605744000" r="1" fill="white"><title>2020-11-19: 24</title></circle>
	<circle cx="418.65" cy="237.75" data-y="21.95" data-x="1605830400" r="1" fill="white"><title>2020-11-20: 22</title></circle>
	<circle cx="420.21" cy="252.59" data-y="19.58" data-x="1605916800" r="1" fill="white"><title>2020-11-21: 20</title></circle>
	<circle cx="421.77" cy="266.69" data-y="17.32" data-x="1606003200" r="1" fill="white"><title>2020-11-22: 17</title></circle>
	<circle cx="423.32" cy="278.56" data-y="15.43" data-x="1606089600" r="1" fill="white"><title>2020-11-23: 15</title></circle>
	<circle cx="424.88" cy="286.72" data-y="14.12" data-x="1606176000" r="1" fill="white"><title>2020-11-24: 14</title></circle>
	<circle cx="426.43" cy="283.75" data-y="14.59" data-x="1606262400" r="1" fill="white"><title>2020-11-25: 15</title></circle>
	<circle cx="427.99" cy="285.23" data-y="14.36" data-x="1606348800" r="1" fill="white"><title>2020-11-26: 14</title></circle>
	<circle cx="429.55" cy="283.75" data-y="14.59" data-x="1606435200" r="1" fill="white"><title>2020-11-27: 15</title></circle>
	<circle cx="431.10" cy="281.52" data-y="14.95" data-x="1606521600" r="1" fill="white"><title>2020-11-28: 15</title></circle>
	<circle cx="432.66" cy="279.30" data-y="15.31" data-x="1606608000" r="1" fill="white"><title>2020-11-29: 15</title></circle>
	<circle cx="434.21" cy="281.52" data-y="14.95" data-x="1606694400" r="1" fill="white"><title>2020-11-30: 15</title></circle>
	<circle cx="435.77" cy="285.23" data-y="14.36" data-x="1606780800" r="1" fill="white"><title>2020-12-01: 14</title></circle>
	<circle cx="437.33" cy="293.39" data-y="13.05" data-x="1606867200" r="1" fill="white"><title>2020-12-02: 13</title></circle>
	<circle cx="438.88" cy="294.14" data-y="12.93" data-x="1606953600" r="1" fill="white"><title>2020-12-03: 13</title></circle>
	<circle cx="440.44" cy="307.49" data-y="10.80" data-x="1607040000" r="1" fill="white"><title>2020-12-04: 11</title></circle>
	<circle cx="441.99" cy="308.23" data-y="10.68" data-x="1607126400" r="1" fill="white"><title>2020-12-05: 11</title></circle>
	<circle cx="443.55" cy="301.55" data-y="11.75" data-x="1607212800" r="1" fill="white"><title>2020-12-06: 12</title></circle>
	<circle cx="445.10" cy="294.14" data-y="12.93" data-x="1607299200" r="1" fill="white"><title>2020-12-07: 13</title></circle>
	<circle cx="446.66" cy="289.68" data-y="13.65" data-x="1607385600" r="1" fill="white"><title>2020-12-08: 14</title></circle>
	<circle cx="448.22" cy="280.78" data-y="15.07" data-x="1607472000" r="1" fill="white"><title>2020-12-09: 15</title></circle>
	<circle cx="449.77" cy="272.62" data-y="16.37" data-x="1607558400" r="1" fill="white"><title>2020-12-10: 16</title></circle>
	<circle cx="451.33" cy="261.49" data-y="18.15" data-x="1607644800" r="1" fill="white"><title>2020-12-11: 18</title></circle>
	<circle cx="452.88" cy="254.08" data-y="19.34" data-x="1607731200" r="1" fill="white"><title>2020-12-12: 19</title></circle>
	<circle cx="454.44" cy="240.72" data-y="21.48" data-x="1607817600" r="1" fill="white"><title>2020-12-13: 21</title></circle>
	<circle cx="456.00" cy="225.88" data-y="23.85" data-x="1607904000" r="1" fill="white"><title>2020-12-14: 24</title></circle>
	<circle cx="457.55" cy="211.05" data-y="26.22" data-x="1607990400" r="1" fill="white"><title>2020-12-15: 26</title></circle>
	<circle cx="459.11" cy="212.53" data-y="25.99" data-x="1608076800" r="1" fill="white"><title>2020-12-16: 26</title></circle>
	<circle cx="460.66" cy="198.43" data-y="28.24" data-x="1608163200" r="1" fill="white"><title>2020-12-17: 28</title></circle>
	<circle cx="462.22" cy="176.92" data-y="31.68" data-x="1608249600" r="1" fill="white"><title>2020-12-18: 32</title></circle>
</g>
<g data-series="recent-cases" class="data-series">
	<path d="M 462.22,176.92L 463.78,194.73L 465.33,222.92L 466.89,235.65L 468.44,250.37L 470.00,242.58" id="Recent cases" class="line" stroke-width="1" stroke-linecap="round" stroke-dasharray="4,6" stroke-dashoffset="4"><title>Recent cases</title></path>
	<circle cx="462.22" cy="176.92" data-y="31.68" data-x="1608249600" r="2.5" fill="white"><title>2020-12-18: 32</title></circle>
	<circle cx="463.78" cy="194.73" data-y="28.83" data-x="1608336000" r="2.5" fill="white"><title>2020-12-19: 29</title></circle>
	<circle cx="465.33" cy="222.92" data-y="24.32" data-x="1608422400" r="2.5" fill="white"><title>2020-12-20: 24</title></circle>
	<circle cx="466.89" cy="235.65" data-y="22.29" data-x="1608508800" r="2.5" fill="white"><title>2020-12-21: 22</title></circle>
	<circle cx="468.44" cy="250.37" data-y="19.93" data-x="1608595200" r="2.5" fill="white"><title>2020-12-22: 20</title></circle>
	<circle cx="470.00" cy="242.58" data-y="21.18" data-x="1608681600" r="2.5" fill="white"><title>2020-12-23: 21</title></circle>
</g>
</svg>
