<svg width="480" height="400" viewBox="0 0 480 400" xmlns="http://www.w3.org/2000/svg" style="overflow:display" preserveAspectRatio="xMinYMin meet" overflow="visible">
<defs>
	<style>
	.data-series path.line { fill-opacity: 0; stroke: black; }
	.data-series path.line.dotted { stroke-dasharray: 12 20 }
	.data-series:hover path.line, .data-series.on path.line { stroke-width: 1; }
	.data-series:hover circle, .data-series.on circle { display: inline; }
	.graph-grid { font-family: "Helvetica Neue",Helvetica,Arial,"Lucida Grande",sans-serif; }
	.graph-grid line { stroke: black; stroke-width: 1; stroke-linecap: round; }
	.graph-grid.graph-grid-x text { text-anchor: middle; dominant-baseline: hanging; transform: translateY(10px); }
	.graph-grid.graph-grid-y text { text-anchor: end; dominant-baseline: middle; transform: translateX(-10px); }
	</style>
</defs>
<g class="graph-grid graph-grid-y">
	<line x1="25.00" y1="375.00" x2="470.00" y2="375.00" data-left="25"></line>
	<text x="35" y="375" text-anchor="end">0</text>
	<text x="35" y="282.475673913043" text-anchor="end">5</text>
	<text x="35" y="189.951347826087" text-anchor="end">10</text>
	<text x="35" y="97.4270217391305" text-anchor="end">15</text>
	<text x="35" y="4.90269565217393" text-anchor="end">20</text>
	<text style="text-anchor:middle;dominant-baseline:hanging;font-weight:bold;transform: translateY(192.5px) rotate(-90deg);"></text>
</g>
<g class="graph-grid graph-grid-x">
	<line class="tick" x1="65.17" y1="375.00" x2="65.17" y2="380.00"></line>
	<text x="65.1736111111111" y="375" text-anchor="middle">A</text>
	<line class="tick" x1="111.53" y1="375.00" x2="111.53" y2="380.00"></line>
	<text x="111.527777777778" y="375" text-anchor="middle">M</text>
	<line class="tick" x1="159.43" y1="375.00" x2="159.43" y2="380.00"></line>
	<text x="159.427083333333" y="375" text-anchor="middle">J</text>
	<line class="tick" x1="205.78" y1="375.00" x2="205.78" y2="380.00"></line>
	<text x="205.78125" y="375" text-anchor="middle">J</text>
	<line class="tick" x1="253.68" y1="375.00" x2="253.68" y2="380.00"></line>
	<text x="253.680555555556" y="375" text-anchor="middle">A</text>
	<line class="tick" x1="301.58" y1="375.00" x2="301.58" y2="380.00"></line>
	<text x="301.579861111111" y="375" text-anchor="middle">S</text>
	<line class="tick" x1="347.93" y1="375.00" x2="347.93" y2="380.00"></line>
	<text x="347.934027777778" y="375" text-anchor="middle">O</text>
	<line class="tick" x1="395.83" y1="375.00" x2="395.83" y2="380.00"></line>
	<text x="395.833333333333" y="375" text-anchor="middle">N</text>
	<line class="tick" x1="442.19" y1="375.00" x2="442.19" y2="380.00"></line>
	<text x="442.1875" y="375" text-anchor="middle">D</text>
	<text style="text-anchor:middle;dominant-baseline:hanging;font-weight:bold;transform: translateY(192.5px) rotate(-90deg);"></text>
</g>
<g data-series="widespread" class="data-series">
	<path d="M 25.00,245.47L 470.00,245.47" id="E07000187-level-0" class="line" stroke-width="1" stroke-linecap="round" stroke-dasharray="3,3" fill-opacity="0.3" opacity="0.3"><title>Widespread</title></path>
</g>
<g data-series="substantial" class="data-series">
	<path d="M 25.00,300.98L 470.00,300.98" id="E07000187-level-1" class="line" stroke-width="1" stroke-linecap="round" stroke-dasharray="3,3" fill-opacity="0.3" opacity="0.3"><title>Substantial</title></path>
</g>
<g data-series="moderate" class="data-series">
	<path d="M 25.00,356.50L 470.00,356.50" id="E07000187-level-2" class="line" stroke-width="1" stroke-linecap="round" stroke-dasharray="3,3" fill-opacity="0.3" opacity="0.3"><title>Moderate</title></path>
</g>
<g data-series="new-cases" class="data-series">
	<path d="M 25.00,371.03L 26.55,371.83L 28.09,372.36L 29.64,372.73L 31.18,375.00L 32.73,372.73L 34.27,372.73L 35.82,372.73L 37.36,372.73L 38.91,372.73L 40.45,372.73L 42.00,372.73L 43.54,375.00L 45.09,375.00L 46.63,375.00L 48.18,372.73L 49.72,370.47L 51.27,370.47L 52.81,363.66L 54.36,361.40L 55.90,359.13L 57.45,359.13L 58.99,361.40L 60.54,359.13L 62.08,356.86L 63.63,363.66L 65.17,365.93L 66.72,363.66L 68.26,359.13L 69.81,359.13L 71.35,361.40L 72.90,361.40L 74.44,359.13L 75.99,350.06L 77.53,350.06L 79.08,352.33L 80.62,352.33L 82.17,354.60L 83.72,347.80L 85.26,340.99L 86.81,345.53L 88.35,350.06L 89.90,352.33L 91.44,352.33L 92.99,343.26L 94.53,350.06L 96.08,356.86L 97.62,359.13L 99.17,354.60L 100.71,350.06L 102.26,345.53L 103.80,352.33L 105.35,352.33L 106.89,347.80L 108.44,340.99L 109.98,345.53L 111.53,347.80L 113.07,350.06L 114.62,352.33L 116.16,350.06L 117.71,356.86L 119.25,363.66L 120.80,352.33L 122.34,340.99L 123.89,325.12L 125.43,309.25L 126.98,311.52L 128.52,306.99L 130.07,309.25L 131.61,318.32L 133.16,329.66L 134.70,347.80L 136.25,354.60L 137.80,356.86L 139.34,359.13L 140.89,359.13L 142.43,361.40L 143.98,361.40L 145.52,359.13L 147.07,365.93L 148.61,354.60L 150.16,340.99L 151.70,340.99L 153.25,340.99L 154.79,340.99L 156.34,340.99L 157.88,340.99L 159.43,352.33L 160.97,368.20L 162.52,368.20L 164.06,368.20L 165.61,370.47L 167.15,370.47L 168.70,372.73L 170.24,372.73L 171.79,372.73L 173.33,372.73L 174.88,372.73L 176.42,372.73L 177.97,375.00L 179.51,375.00L 181.06,375.00L 182.60,375.00L 184.15,372.73L 185.69,372.73L 187.24,372.73L 188.78,372.73L 190.33,372.73L 191.88,370.47L 193.42,370.47L 194.97,372.73L 196.51,372.73L 198.06,372.73L 199.60,370.47L 201.15,368.20L 202.69,370.47L 204.24,370.47L 205.78,370.47L 207.33,370.47L 208.87,368.20L 210.42,370.47L 211.96,372.73L 213.51,372.73L 215.05,372.73L 216.60,372.73L 218.14,370.47L 219.69,370.47L 221.23,370.47L 222.78,370.47L 224.32,368.20L 225.87,368.20L 227.41,368.20L 228.96,370.47L 230.50,370.47L 232.05,370.47L 233.59,368.20L 235.14,370.47L 236.68,370.47L 238.23,370.47L 239.77,370.47L 241.32,372.73L 242.86,365.93L 244.41,365.93L 245.95,361.40L 247.50,361.40L 249.05,361.40L 250.59,361.40L 252.14,361.40L 253.68,365.93L 255.23,363.66L 256.77,368.20L 258.32,365.93L 259.86,365.93L 261.41,365.93L 262.95,363.66L 264.50,365.93L 266.04,365.93L 267.59,365.93L 269.13,365.93L 270.68,363.66L 272.22,361.40L 273.77,363.66L 275.31,359.13L 276.86,359.13L 278.40,359.13L 279.95,356.86L 281.49,359.13L 283.04,354.60L 284.58,354.60L 286.13,356.86L 287.67,359.13L 289.22,354.60L 290.76,359.13L 292.31,356.86L 293.85,359.13L 295.40,359.13L 296.94,354.60L 298.49,347.80L 300.03,345.53L 301.58,334.19L 303.12,336.46L 304.67,340.99L 306.22,329.66L 307.76,334.19L 309.31,340.99L 310.85,345.53L 312.40,356.86L 313.94,350.06L 315.49,345.53L 317.03,354.60L 318.58,343.26L 320.12,345.53L 321.67,347.80L 323.21,334.19L 324.76,338.73L 326.30,340.99L 327.85,329.66L 329.39,334.19L 330.94,327.39L 332.48,320.59L 334.03,334.19L 335.57,329.66L 337.12,327.39L 338.66,329.66L 340.21,336.46L 341.75,340.99L 343.30,336.46L 344.84,329.66L 346.39,327.39L 347.93,327.39L 349.48,320.59L 351.02,320.59L 352.57,313.79L 354.11,306.99L 355.66,302.45L 357.20,300.19L 358.75,295.65L 360.30,302.45L 361.84,286.58L 363.39,272.98L 364.93,275.25L 366.48,279.78L 368.02,286.58L 369.57,286.58L 371.11,277.52L 372.66,288.85L 374.20,295.65L 375.75,295.65L 377.29,282.05L 378.84,277.52L 380.38,270.71L 381.93,270.71L 383.47,254.84L 385.02,245.78L 386.56,238.98L 388.11,227.64L 389.65,216.30L 391.20,200.43L 392.74,166.43L 394.29,168.70L 395.83,157.36L 397.38,170.96L 398.92,177.76L 400.47,166.43L 402.01,148.29L 403.56,161.89L 405.10,127.89L 406.65,127.89L 408.19,96.15L 409.74,75.75L 411.28,82.55L 412.83,98.42L 414.38,102.95L 415.92,84.81L 417.47,80.28L 419.01,73.48L 420.56,84.81L 422.10,80.28L 423.65,75.75L 425.19,21.34L 426.74,59.88L 428.28,62.14L 429.83,78.01L 431.37,87.08L 432.92,105.22L 434.46,114.29L 436.01,168.70L 437.55,182.30L 439.10,177.76L 440.64,186.83L 442.19,193.63L 443.73,184.57L 445.28,189.10L 446.82,173.23L 448.37,150.56L 449.91,146.02L 451.46,123.35L 453.00,71.21L 454.55,53.07L 456.09,48.54L 457.64,16.80L 459.18,10.00L 460.73,14.53L 462.27,19.07" id="New cases" class="line" stroke-width="1" stroke-linecap="round"><title>New cases</title></path>
	<circle cx="25.00" cy="371.03" data-y="0.21" data-x="1583452800" r="1" fill="white"><title>2020-03-06: 0</title></circle>
	<circle cx="26.55" cy="371.83" data-y="0.17" data-x="1583539200" r="1" fill="white"><title>2020-03-07: 0</title></circle>
	<circle cx="28.09" cy="372.36" data-y="0.14" data-x="1583625600" r="1" fill="white"><title>2020-03-08: 0</title></circle>
	<circle cx="29.64" cy="372.73" data-y="0.12" data-x="1583712000" r="1" fill="white"><title>2020-03-09: 0</title></circle>
	<circle cx="31.18" cy="375.00" data-y="0.00" data-x="1583798400" r="1" fill="white"><title>2020-03-10: 0</title></circle>
	<circle cx="32.73" cy="372.73" data-y="0.12" data-x="1583884800" r="1" fill="white"><title>2020-03-11: 0</title></circle>
	<circle cx="34.27" cy="372.73" data-y="0.12" data-x="1583971200" r="1" fill="white"><title>2020-03-12: 0</title></circle>
	<circle cx="35.82" cy="372.73" data-y="0.12" data-x="1584057600" r="1" fill="white"><title>2020-03-13: 0</title></circle>
	<circle cx="37.36" cy="372.73" data-y="0.12" data-x="1584144000" r="1" fill="white"><title>2020-03-14: 0</title></circle>
	<circle cx="38.91" cy="372.73" data-y="0.12" data-x="1584230400" r="1" fill="white"><title>2020-03-15: 0</title></circle>
	<circle cx="40.45" cy="372.73" data-y="0.12" data-x="1584316800" r="1" fill="white"><title>2020-03-16: 0</title></circle>
	<circle cx="42.00" cy="372.73" data-y="0.12" data-x="1584403200" r="1" fill="white"><title>2020-03-17: 0</title></circle>
	<circle cx="43.54" cy="375.00" data-y="0.00" data-x="1584489600" r="1" fill="white"><title>2020-03-18: 0</title></circle>
	<circle cx="45.09" cy="375.00" data-y="0.00" data-x="1584576000" r="1" fill="white"><title>2020-03-19: 0</title></circle>
	<circle cx="46.63" cy="375.00" data-y="0.00" data-x="1584662400" r="1" fill="white"><title>2020-03-20: 0</title></circle>
	<circle cx="48.18" cy="372.73" data-y="0.12" data-x="1584748800" r="1" fill="white"><title>2020-03-21: 0</title></circle>
	<circle cx="49.72" cy="370.47" data-y="0.25" data-x="1584835200" r="1" fill="white"><title>2020-03-22: 0</title></circle>
	<circle cx="51.27" cy="370.47" data-y="0.25" data-x="1584921600" r="1" fill="white"><title>2020-03-23: 0</title></circle>
	<circle cx="52.81" cy="363.66" data-y="0.61" data-x="1585008000" r="1" fill="white"><title>2020-03-24: 1</title></circle>
	<circle cx="54.36" cy="361.40" data-y="0.74" data-x="1585094400" r="1" fill="white"><title>2020-03-25: 1</title></circle>
	<circle cx="55.90" cy="359.13" data-y="0.86" data-x="1585180800" r="1" fill="white"><title>2020-03-26: 1</title></circle>
	<circle cx="57.45" cy="359.13" data-y="0.86" data-x="1585267200" r="1" fill="white"><title>2020-03-27: 1</title></circle>
	<circle cx="58.99" cy="361.40" data-y="0.74" data-x="1585353600" r="1" fill="white"><title>2020-03-28: 1</title></circle>
	<circle cx="60.54" cy="359.13" data-y="0.86" data-x="1585440000" r="1" fill="white"><title>2020-03-29: 1</title></circle>
	<circle cx="62.08" cy="356.86" data-y="0.98" data-x="1585526400" r="1" fill="white"><title>2020-03-30: 1</title></circle>
	<circle cx="63.63" cy="363.66" data-y="0.61" data-x="1585612800" r="1" fill="white"><title>2020-03-31: 1</title></circle>
	<circle cx="65.17" cy="365.93" data-y="0.49" data-x="1585699200" r="1" fill="white"><title>2020-04-01: 0</title></circle>
	<circle cx="66.72" cy="363.66" data-y="0.61" data-x="1585785600" r="1" fill="white"><title>2020-04-02: 1</title></circle>
	<circle cx="68.26" cy="359.13" data-y="0.86" data-x="1585872000" r="1" fill="white"><title>2020-04-03: 1</title></circle>
	<circle cx="69.81" cy="359.13" data-y="0.86" data-x="1585958400" r="1" fill="white"><title>2020-04-04: 1</title></circle>
	<circle cx="71.35" cy="361.40" data-y="0.74" data-x="1586044800" r="1" fill="white"><title>2020-04-05: 1</title></circle>
	<circle cx="72.90" cy="361.40" data-y="0.74" data-x="1586131200" r="1" fill="white"><title>2020-04-06: 1</title></circle>
	<circle cx="74.44" cy="359.13" data-y="0.86" data-x="1586217600" r="1" fill="white"><title>2020-04-07: 1</title></circle>
	<circle cx="75.99" cy="350.06" data-y="1.35" data-x="1586304000" r="1" fill="white"><title>2020-04-08: 1</title></circle>
	<circle cx="77.53" cy="350.06" data-y="1.35" data-x="1586390400" r="1" fill="white"><title>2020-04-09: 1</title></circle>
	<circle cx="79.08" cy="352.33" data-y="1.23" data-x="1586476800" r="1" fill="white"><title>2020-04-10: 1</title></circle>
	<circle cx="80.62" cy="352.33" data-y="1.23" data-x="1586563200" r="1" fill="white"><title>2020-04-11: 1</title></circle>
	<circle cx="82.17" cy="354.60" data-y="1.10" data-x="1586649600" r="1" fill="white"><title>2020-04-12: 1</title></circle>
	<circle cx="83.72" cy="347.80" data-y="1.47" data-x="1586736000" r="1" fill="white"><title>2020-04-13: 1</title></circle>
	<circle cx="85.26" cy="340.99" data-y="1.84" data-x="1586822400" r="1" fill="white"><title>2020-04-14: 2</title></circle>
	<circle cx="86.81" cy="345.53" data-y="1.59" data-x="1586908800" r="1" fill="white"><title>2020-04-15: 2</title></circle>
	<circle cx="88.35" cy="350.06" data-y="1.35" data-x="1586995200" r="1" fill="white"><title>2020-04-16: 1</title></circle>
	<circle cx="89.90" cy="352.33" data-y="1.23" data-x="1587081600" r="1" fill="white"><title>2020-04-17: 1</title></circle>
	<circle cx="91.44" cy="352.33" data-y="1.23" data-x="1587168000" r="1" fill="white"><title>2020-04-18: 1</title></circle>
	<circle cx="92.99" cy="343.26" data-y="1.72" data-x="1587254400" r="1" fill="white"><title>2020-04-19: 2</title></circle>
	<circle cx="94.53" cy="350.06" data-y="1.35" data-x="1587340800" r="1" fill="white"><title>2020-04-20: 1</title></circle>
	<circle cx="96.08" cy="356.86" data-y="0.98" data-x="1587427200" r="1" fill="white"><title>2020-04-21: 1</title></circle>
	<circle cx="97.62" cy="359.13" data-y="0.86" data-x="1587513600" r="1" fill="white"><title>2020-04-22: 1</title></circle>
	<circle cx="99.17" cy="354.60" data-y="1.10" data-x="1587600000" r="1" fill="white"><title>2020-04-23: 1</title></circle>
	<circle cx="100.71" cy="350.06" data-y="1.35" data-x="1587686400" r="1" fill="white"><title>2020-04-24: 1</title></circle>
	<circle cx="102.26" cy="345.53" data-y="1.59" data-x="1587772800" r="1" fill="white"><title>2020-04-25: 2</title></circle>
	<circle cx="103.80" cy="352.33" data-y="1.23" data-x="1587859200" r="1" fill="white"><title>2020-04-26: 1</title></circle>
	<circle cx="105.35" cy="352.33" data-y="1.23" data-x="1587945600" r="1" fill="white"><title>2020-04-27: 1</title></circle>
	<circle cx="106.89" cy="347.80" data-y="1.47" data-x="1588032000" r="1" fill="white"><title>2020-04-28: 1</title></circle>
	<circle cx="108.44" cy="340.99" data-y="1.84" data-x="1588118400" r="1" fill="white"><title>2020-04-29: 2</title></circle>
	<circle cx="109.98" cy="345.53" data-y="1.59" data-x="1588204800" r="1" fill="white"><title>2020-04-30: 2</title></circle>
	<circle cx="111.53" cy="347.80" data-y="1.47" data-x="1588291200" r="1" fill="white"><title>2020-05-01: 1</title></circle>
	<circle cx="113.07" cy="350.06" data-y="1.35" data-x="1588377600" r="1" fill="white"><title>2020-05-02: 1</title></circle>
	<circle cx="114.62" cy="352.33" data-y="1.23" data-x="1588464000" r="1" fill="white"><title>2020-05-03: 1</title></circle>
	<circle cx="116.16" cy="350.06" data-y="1.35" data-x="1588550400" r="1" fill="white"><title>2020-05-04: 1</title></circle>
	<circle cx="117.71" cy="356.86" data-y="0.98" data-x="1588636800" r="1" fill="white"><title>2020-05-05: 1</title></circle>
	<circle cx="119.25" cy="363.66" data-y="0.61" data-x="1588723200" r="1" fill="white"><title>2020-05-06: 1</title></circle>
	<circle cx="120.80" cy="352.33" data-y="1.23" data-x="1588809600" r="1" fill="white"><title>2020-05-07: 1</title></circle>
	<circle cx="122.34" cy="340.99" data-y="1.84" data-x="1588896000" r="1" fill="white"><title>2020-05-08: 2</title></circle>
	<circle cx="123.89" cy="325.12" data-y="2.70" data-x="1588982400" r="1" fill="white"><title>2020-05-09: 3</title></circle>
	<circle cx="125.43" cy="309.25" data-y="3.55" data-x="1589068800" r="1" fill="white"><title>2020-05-10: 4</title></circle>
	<circle cx="126.98" cy="311.52" data-y="3.43" data-x="1589155200" r="1" fill="white"><title>2020-05-11: 3</title></circle>
	<circle cx="128.52" cy="306.99" data-y="3.68" data-x="1589241600" r="1" fill="white"><title>2020-05-12: 4</title></circle>
	<circle cx="130.07" cy="309.25" data-y="3.55" data-x="1589328000" r="1" fill="white"><title>2020-05-13: 4</title></circle>
	<circle cx="131.61" cy="318.32" data-y="3.06" data-x="1589414400" r="1" fill="white"><title>2020-05-14: 3</title></circle>
	<circle cx="133.16" cy="329.66" data-y="2.45" data-x="1589500800" r="1" fill="white"><title>2020-05-15: 2</title></circle>
	<circle cx="134.70" cy="347.80" data-y="1.47" data-x="1589587200" r="1" fill="white"><title>2020-05-16: 1</title></circle>
	<circle cx="136.25" cy="354.60" data-y="1.10" data-x="1589673600" r="1" fill="white"><title>2020-05-17: 1</title></circle>
	<circle cx="137.80" cy="356.86" data-y="0.98" data-x="1589760000" r="1" fill="white"><title>2020-05-18: 1</title></circle>
	<circle cx="139.34" cy="359.13" data-y="0.86" data-x="1589846400" r="1" fill="white"><title>2020-05-19: 1</title></circle>
	<circle cx="140.89" cy="359.13" data-y="0.86" data-x="1589932800" r="1" fill="white"><title>2020-05-20: 1</title></circle>
	<circle cx="142.43" cy="361.40" data-y="0.74" data-x="1590019200" r="1" fill="white"><title>2020-05-21: 1</title></circle>
	<circle cx="143.98" cy="361.40" data-y="0.74" data-x="1590105600" r="1" fill="white"><title>2020-05-22: 1</title></circle>
	<circle cx="145.52" cy="359.13" data-y="0.86" data-x="1590192000" r="1" fill="white"><title>2020-05-23: 1</title></circle>
	<circle cx="147.07" cy="365.93" data-y="0.49" data-x="1590278400" r="1" fill="white"><title>2020-05-24: 0</title></circle>
	<circle cx="148.61" cy="354.60" data-y="1.10" data-x="1590364800" r="1" fill="white"><title>2020-05-25: 1</title></circle>
	<circle cx="150.16" cy="340.99" data-y="1.84" data-x="1590451200" r="1" fill="white"><title>2020-05-26: 2</title></circle>
	<circle cx="151.70" cy="340.99" data-y="1.84" data-x="1590537600" r="1" fill="white"><title>2020-05-27: 2</title></circle>
	<circle cx="153.25" cy="340.99" data-y="1.84" data-x="1590624000" r="1" fill="white"><title>2020-05-28: 2</title></circle>
	<circle cx="154.79" cy="340.99" data-y="1.84" data-x="1590710400" r="1" fill="white"><title>2020-05-29: 2</title></circle>
	<circle cx="156.34" cy="340.99" data-y="1.84" data-x="1590796800" r="1" fill="white"><title>2020-05-30: 2</title></circle>
	<circle cx="157.88" cy="340.99" data-y="1.84" data-x="1590883200" r="1" fill="white"><title>2020-05-31: 2</title></circle>
	<circle cx="159.43" cy="352.33" data-y="1.23" data-x="1590969600" r="1" fill="white"><title>2020-06-01: 1</title></circle>
	<circle cx="160.97" cy="368.20" data-y="0.37" data-x="1591056000" r="1" fill="white"><title>2020-06-02: 0</title></circle>
	<circle cx="162.52" cy="368.20" data-y="0.37" data-x="1591142400" r="1" fill="white"><title>2020-06-03: 0</title></circle>
	<circle cx="164.06" cy="368.20" data-y="0.37" data-x="1591228800" r="1" fill="white"><title>2020-06-04: 0</title></circle>
	<circle cx="165.61" cy="370.47" data-y="0.25" data-x="1591315200" r="1" fill="white"><title>2020-06-05: 0</title></circle>
	<circle cx="167.15" cy="370.47" data-y="0.25" data-x="1591401600" r="1" fill="white"><title>2020-06-06: 0</title></circle>
	<circle cx="168.70" cy="372.73" data-y="0.12" data-x="1591488000" r="1" fill="white"><title>2020-06-07: 0</title></circle>
	<circle cx="170.24" cy="372.73" data-y="0.12" data-x="1591574400" r="1" fill="white"><title>2020-06-08: 0</title></circle>
	<circle cx="171.79" cy="372.73" data-y="0.12" data-x="1591660800" r="1" fill="white"><title>2020-06-09: 0</title></circle>
	<circle cx="173.33" cy="372.73" data-y="0.12" data-x="1591747200" r="1" fill="white"><title>2020-06-10: 0</title></circle>
	<circle cx="174.88" cy="372.73" data-y="0.12" data-x="1591833600" r="1" fill="white"><title>2020-06-11: 0</title></circle>
	<circle cx="176.42" cy="372.73" data-y="0.12" data-x="1591920000" r="1" fill="white"><title>2020-06-12: 0</title></circle>
	<circle cx="177.97" cy="375.00" data-y="0.00" data-x="1592006400" r="1" fill="white"><title>2020-06-13: 0</title></circle>
	<circle cx="179.51" cy="375.00" data-y="0.00" data-x="1592092800" r="1" fill="white"><title>2020-06-14: 0</title></circle>
	<circle cx="181.06" cy="375.00" data-y="0.00" data-x="1592179200" r="1" fill="white"><title>2020-06-15: 0</title></circle>
	<circle cx="182.60" cy="375.00" data-y="0.00" data-x="1592265600" r="1" fill="white"><title>2020-06-16: 0</title></circle>
	<circle cx="184.15" cy="372.73" data-y="0.12" data-x="1592352000" r="1" fill="white"><title>2020-06-17: 0</title></circle>
	<circle cx="185.69" cy="372.73" data-y="0.12" data-x="1592438400" r="1" fill="white"><title>2020-06-18: 0</title></circle>
	<circle cx="187.24" cy="372.73" data-y="0.12" data-x="1592524800" r="1" fill="white"><title>2020-06-19: 0</title></circle>
	<circle cx="188.78" cy="372.73" data-y="0.12" data-x="1592611200" r="1" fill="white"><title>2020-06-20: 0</title></circle>
	<circle cx="190.33" cy="372.73" data-y="0.12" data-x="1592697600" r="1" fill="white"><title>2020-06-21: 0</title></circle>
	<circle cx="191.88" cy="370.47" data-y="0.25" data-x="1592784000" r="1" fill="white"><title>2020-06-22: 0</title></circle>
	<circle cx="193.42" cy="370.47" data-y="0.25" data-x="1592870400" r="1" fill="white"><title>2020-06-23: 0</title></circle>
	<circle cx="194.97" cy="372.73" data-y="0.12" data-x="1592956800" r="1" fill="white"><title>2020-06-24: 0</title></circle>
	<circle cx="196.51" cy="372.73" data-y="0.12" data-x="1593043200" r="1" fill="white"><title>2020-06-25: 0</title></circle>
	<circle cx="198.06" cy="372.73" data-y="0.12" data-x="1593129600" r="1" fill="white"><title>2020-06-26: 0</title></circle>
	<circle cx="199.60" cy="370.47" data-y="0.25" data-x="1593216000" r="1" fill="white"><title>2020-06-27: 0</title></circle>
	<circle cx="201.15" cy="368.20" data-y="0.37" data-x="1593302400" r="1" fill="white"><title>2020-06-28: 0</title></circle>
	<circle cx="202.69" cy="370.47" data-y="0.25" data-x="1593388800" r="1" fill="white"><title>2020-06-29: 0</title></circle>
	<circle cx="204.24" cy="370.47" data-y="0.25" data-x="1593475200" r="1" fill="white"><title>2020-06-30: 0</title></circle>
	<circle cx="205.78" cy="370.47" data-y="0.25" data-x="1593561600" r="1" fill="white"><title>2020-07-01: 0</title></circle>
	<circle cx="207.33" cy="370.47" data-y="0.25" data-x="1593648000" r="1" fill="white"><title>2020-07-02: 0</title></circle>
	<circle cx="208.87" cy="368.20" data-y="0.37" data-x="1593734400" r="1" fill="white"><title>2020-07-03: 0</title></circle>
	<circle cx="210.42" cy="370.47" data-y="0.25" data-x="1593820800" r="1" fill="white"><title>2020-07-04: 0</title></circle>
	<circle cx="211.96" cy="372.73" data-y="0.12" data-x="1593907200" r="1" fill="white"><title>2020-07-05: 0</title></circle>
	<circle cx="213.51" cy="372.73" data-y="0.12" data-x="1593993600" r="1" fill="white"><title>2020-07-06: 0</title></circle>
	<circle cx="215.05" cy="372.73" data-y="0.12" data-x="1594080000" r="1" fill="white"><title>2020-07-07: 0</title></circle>
	<circle cx="216.60" cy="372.73" data-y="0.12" data-x="1594166400" r="1" fill="white"><title>2020-07-08: 0</title></circle>
	<circle cx="218.14" cy="370.47" data-y="0.25" data-x="1594252800" r="1" fill="white"><title>2020-07-09: 0</title></circle>
	<circle cx="219.69" cy="370.47" data-y="0.25" data-x="1594339200" r="1" fill="white"><title>2020-07-10: 0</title></circle>
	<circle cx="221.23" cy="370.47" data-y="0.25" data-x="1594425600" r="1" fill="white"><title>2020-07-11: 0</title></circle>
	<circle cx="222.78" cy="370.47" data-y="0.25" data-x="1594512000" r="1" fill="white"><title>2020-07-12: 0</title></circle>
	<circle cx="224.32" cy="368.20" data-y="0.37" data-x="1594598400" r="1" fill="white"><title>2020-07-13: 0</title></circle>
	<circle cx="225.87" cy="368.20" data-y="0.37" data-x="1594684800" r="1" fill="white"><title>2020-07-14: 0</title></circle>
	<circle cx="227.41" cy="368.20" data-y="0.37" data-x="1594771200" r="1" fill="white"><title>2020-07-15: 0</title></circle>
	<circle cx="228.96" cy="370.47" data-y="0.25" data-x="1594857600" r="1" fill="white"><title>2020-07-16: 0</title></circle>
	<circle cx="230.50" cy="370.47" data-y="0.25" data-x="1594944000" r="1" fill="white"><title>2020-07-17: 0</title></circle>
	<circle cx="232.05" cy="370.47" data-y="0.25" data-x="1595030400" r="1" fill="white"><title>2020-07-18: 0</title></circle>
	<circle cx="233.59" cy="368.20" data-y="0.37" data-x="1595116800" r="1" fill="white"><title>2020-07-19: 0</title></circle>
	<circle cx="235.14" cy="370.47" data-y="0.25" data-x="1595203200" r="1" fill="white"><title>2020-07-20: 0</title></circle>
	<circle cx="236.68" cy="370.47" data-y="0.25" data-x="1595289600" r="1" fill="white"><title>2020-07-21: 0</title></circle>
	<circle cx="238.23" cy="370.47" data-y="0.25" data-x="1595376000" r="1" fill="white"><title>2020-07-22: 0</title></circle>
	<circle cx="239.77" cy="370.47" data-y="0.25" data-x="1595462400" r="1" fill="white"><title>2020-07-23: 0</title></circle>
	<circle cx="241.32" cy="372.73" data-y="0.12" data-x="1595548800" r="1" fill="white"><title>2020-07-24: 0</title></circle>
	<circle cx="242.86" cy="365.93" data-y="0.49" data-x="1595635200" r="1" fill="white"><title>2020-07-25: 0</title></circle>
	<circle cx="244.41" cy="365.93" data-y="0.49" data-x="1595721600" r="1" fill="white"><title>2020-07-26: 0</title></circle>
	<circle cx="245.95" cy="361.40" data-y="0.74" data-x="1595808000" r="1" fill="white"><title>2020-07-27: 1</title></circle>
	<circle cx="247.50" cy="361.40" data-y="0.74" data-x="1595894400" r="1" fill="white"><title>2020-07-28: 1</title></circle>
	<circle cx="249.05" cy="361.40" data-y="0.74" data-x="1595980800" r="1" fill="white"><title>2020-07-29: 1</title></circle>
	<circle cx="250.59" cy="361.40" data-y="0.74" data-x="1596067200" r="1" fill="white"><title>2020-07-30: 1</title></circle>
	<circle cx="252.14" cy="361.40" data-y="0.74" data-x="1596153600" r="1" fill="white"><title>2020-07-31: 1</title></circle>
	<circle cx="253.68" cy="365.93" data-y="0.49" data-x="1596240000" r="1" fill="white"><title>2020-08-01: 0</title></circle>
	<circle cx="255.23" cy="363.66" data-y="0.61" data-x="1596326400" r="1" fill="white"><title>2020-08-02: 1</title></circle>
	<circle cx="256.77" cy="368.20" data-y="0.37" data-x="1596412800" r="1" fill="white"><title>2020-08-03: 0</title></circle>
	<circle cx="258.32" cy="365.93" data-y="0.49" data-x="1596499200" r="1" fill="white"><title>2020-08-04: 0</title></circle>
	<circle cx="259.86" cy="365.93" data-y="0.49" data-x="1596585600" r="1" fill="white"><title>2020-08-05: 0</title></circle>
	<circle cx="261.41" cy="365.93" data-y="0.49" data-x="1596672000" r="1" fill="white"><title>2020-08-06: 0</title></circle>
	<circle cx="262.95" cy="363.66" data-y="0.61" data-x="1596758400" r="1" fill="white"><title>2020-08-07: 1</title></circle>
	<circle cx="264.50" cy="365.93" data-y="0.49" data-x="1596844800" r="1" fill="white"><title>2020-08-08: 0</title></circle>
	<circle cx="266.04" cy="365.93" data-y="0.49" data-x="1596931200" r="1" fill="white"><title>2020-08-09: 0</title></circle>
	<circle cx="267.59" cy="365.93" data-y="0.49" data-x="1597017600" r="1" fill="white"><title>2020-08-10: 0</title></circle>
	<circle cx="269.13" cy="365.93" data-y="0.49" data-x="1597104000" r="1" fill="white"><title>2020-08-11: 0</title></circle>
	<circle cx="270.68" cy="363.66" data-y="0.61" data-x="1597190400" r="1" fill="white"><title>2020-08-12: 1</title></circle>
	<circle cx="272.22" cy="361.40" data-y="0.74" data-x="1597276800" r="1" fill="white"><title>2020-08-13: 1</title></circle>
	<circle cx="273.77" cy="363.66" data-y="0.61" data-x="1597363200" r="1" fill="white"><title>2020-08-14: 1</title></circle>
	<circle cx="275.31" cy="359.13" data-y="0.86" data-x="1597449600" r="1" fill="white"><title>2020-08-15: 1</title></circle>
	<circle cx="276.86" cy="359.13" data-y="0.86" data-x="1597536000" r="1" fill="white"><title>2020-08-16: 1</title></circle>
	<circle cx="278.40" cy="359.13" data-y="0.86" data-x="1597622400" r="1" fill="white"><title>2020-08-17: 1</title></circle>
	<circle cx="279.95" cy="356.86" data-y="0.98" data-x="1597708800" r="1" fill="white"><title>2020-08-18: 1</title></circle>
	<circle cx="281.49" cy="359.13" data-y="0.86" data-x="1597795200" r="1" fill="white"><title>2020-08-19: 1</title></circle>
	<circle cx="283.04" cy="354.60" data-y="1.10" data-x="1597881600" r="1" fill="white"><title>2020-08-20: 1</title></circle>
	<circle cx="284.58" cy="354.60" data-y="1.10" data-x="1597968000" r="1" fill="white"><title>2020-08-21: 1</title></circle>
	<circle cx="286.13" cy="356.86" data-y="0.98" data-x="1598054400" r="1" fill="white"><title>2020-08-22: 1</title></circle>
	<circle cx="287.67" cy="359.13" data-y="0.86" data-x="1598140800" r="1" fill="white"><title>2020-08-23: 1</title></circle>
	<circle cx="289.22" cy="354.60" data-y="1.10" data-x="1598227200" r="1" fill="white"><title>2020-08-24: 1</title></circle>
	<circle cx="290.76" cy="359.13" data-y="0.86" data-x="1598313600" r="1" fill="white"><title>2020-08-25: 1</title></circle>
	<circle cx="292.31" cy="356.86" data-y="0.98" data-x="1598400000" r="1" fill="white"><title>2020-08-26: 1</title></circle>
	<circle cx="293.85" cy="359.13" data-y="0.86" data-x="1598486400" r="1" fill="white"><title>2020-08-27: 1</title></circle>
	<circle cx="295.40" cy="359.13" data-y="0.86" data-x="1598572800" r="1" fill="white"><title>2020-08-28: 1</title></circle>
	<circle cx="296.94" cy="354.60" data-y="1.10" data-x="1598659200" r="1" fill="white"><title>2020-08-29: 1</title></circle>
	<circle cx="298.49" cy="347.80" data-y="1.47" data-x="1598745600" r="1" fill="white"><title>2020-08-30: 1</title></circle>
	<circle cx="300.03" cy="345.53" data-y="1.59" data-x="1598832000" r="1" fill="white"><title>2020-08-31: 2</title></circle>
	<circle cx="301.58" cy="334.19" data-y="2.21" data-x="1598918400" r="1" fill="white"><title>2020-09-01: 2</title></circle>
	<circle cx="303.12" cy="336.46" data-y="2.08" data-x="1599004800" r="1" fill="white"><title>2020-09-02: 2</title></circle>
	<circle cx="304.67" cy="340.99" data-y="1.84" data-x="1599091200" r="1" fill="white"><title>2020-09-03: 2</title></circle>
	<circle cx="306.22" cy="329.66" data-y="2.45" data-x="1599177600" r="1" fill="white"><title>2020-09-04: 2</title></circle>
	<circle cx="307.76" cy="334.19" data-y="2.21" data-x="1599264000" r="1" fill="white"><title>2020-09-05: 2</title></circle>
	<circle cx="309.31" cy="340.99" data-y="1.84" data-x="1599350400" r="1" fill="white"><title>2020-09-06: 2</title></circle>
	<circle cx="310.85" cy="345.53" data-y="1.59" data-x="1599436800" r="1" fill="white"><title>2020-09-07: 2</title></circle>
	<circle cx="312.40" cy="356.86" data-y="0.98" data-x="1599523200" r="1" fill="white"><title>2020-09-08: 1</title></circle>
	<circle cx="313.94" cy="350.06" data-y="1.35" data-x="1599609600" r="1" fill="white"><title>2020-09-09: 1</title></circle>
	<circle cx="315.49" cy="345.53" data-y="1.59" data-x="1599696000" r="1" fill="white"><title>2020-09-10: 2</title></circle>
	<circle cx="317.03" cy="354.60" data-y="1.10" data-x="1599782400" r="1" fill="white"><title>2020-09-11: 1</title></circle>
	<circle cx="318.58" cy="343.26" data-y="1.72" data-x="1599868800" r="1" fill="white"><title>2020-09-12: 2</title></circle>
	<circle cx="320.12" cy="345.53" data-y="1.59" data-x="1599955200" r="1" fill="white"><title>2020-09-13: 2</title></circle>
	<circle cx="321.67" cy="347.80" data-y="1.47" data-x="1600041600" r="1" fill="white"><title>2020-09-14: 1</title></circle>
	<circle cx="323.21" cy="334.19" data-y="2.21" data-x="1600128000" r="1" fill="white"><title>2020-09-15: 2</title></circle>
	<circle cx="324.76" cy="338.73" data-y="1.96" data-x="1600214400" r="1" fill="white"><title>2020-09-16: 2</title></circle>
	<circle cx="326.30" cy="340.99" data-y="1.84" data-x="1600300800" r="1" fill="white"><title>2020-09-17: 2</title></circle>
	<circle cx="327.85" cy="329.66" data-y="2.45" data-x="1600387200" r="1" fill="white"><title>2020-09-18: 2</title></circle>
	<circle cx="329.39" cy="334.19" data-y="2.21" data-x="1600473600" r="1" fill="white"><title>2020-09-19: 2</title></circle>
	<circle cx="330.94" cy="327.39" data-y="2.57" data-x="1600560000" r="1" fill="white"><title>2020-09-20: 3</title></circle>
	<circle cx="332.48" cy="320.59" data-y="2.94" data-x="1600646400" r="1" fill="white"><title>2020-09-21: 3</title></circle>
	<circle cx="334.03" cy="334.19" data-y="2.21" data-x="1600732800" r="1" fill="white"><title>2020-09-22: 2</title></circle>
	<circle cx="335.57" cy="329.66" data-y="2.45" data-x="1600819200" r="1" fill="white"><title>2020-09-23: 2</title></circle>
	<circle cx="337.12" cy="327.39" data-y="2.57" data-x="1600905600" r="1" fill="white"><title>2020-09-24: 3</title></circle>
	<circle cx="338.66" cy="329.66" data-y="2.45" data-x="1600992000" r="1" fill="white"><title>2020-09-25: 2</title></circle>
	<circle cx="340.21" cy="336.46" data-y="2.08" data-x="1601078400" r="1" fill="white"><title>2020-09-26: 2</title></circle>
	<circle cx="341.75" cy="340.99" data-y="1.84" data-x="1601164800" r="1" fill="white"><title>2020-09-27: 2</title></circle>
	<circle cx="343.30" cy="336.46" data-y="2.08" data-x="1601251200" r="1" fill="white"><title>2020-09-28: 2</title></circle>
	<circle cx="344.84" cy="329.66" data-y="2.45" data-x="1601337600" r="1" fill="white"><title>2020-09-29: 2</title></circle>
	<circle cx="346.39" cy="327.39" data-y="2.57" data-x="1601424000" r="1" fill="white"><title>2020-09-30: 3</title></circle>
	<circle cx="347.93" cy="327.39" data-y="2.57" data-x="1601510400" r="1" fill="white"><title>2020-10-01: 3</title></circle>
	<circle cx="349.48" cy="320.59" data-y="2.94" data-x="1601596800" r="1" fill="white"><title>2020-10-02: 3</title></circle>
	<circle cx="351.02" cy="320.59" data-y="2.94" data-x="1601683200" r="1" fill="white"><title>2020-10-03: 3</title></circle>
	<circle cx="352.57" cy="313.79" data-y="3.31" data-x="1601769600" r="1" fill="white"><title>2020-10-04: 3</title></circle>
	<circle cx="354.11" cy="306.99" data-y="3.68" data-x="1601856000" r="1" fill="white"><title>2020-10-05: 4</title></circle>
	<circle cx="355.66" cy="302.45" data-y="3.92" data-x="1601942400" r="1" fill="white"><title>2020-10-06: 4</title></circle>
	<circle cx="357.20" cy="300.19" data-y="4.04" data-x="1602028800" r="1" fill="white"><title>2020-10-07: 4</title></circle>
	<circle cx="358.75" cy="295.65" data-y="4.29" data-x="1602115200" r="1" fill="white"><title>2020-10-08: 4</title></circle>
	<circle cx="360.30" cy="302.45" data-y="3.92" data-x="1602201600" r="1" fill="white"><title>2020-10-09: 4</title></circle>
	<circle cx="361.84" cy="286.58" data-y="4.78" data-x="1602288000" r="1" fill="white"><title>2020-10-10: 5</title></circle>
	<circle cx="363.39" cy="272.98" data-y="5.51" data-x="1602374400" r="1" fill="white"><title>2020-10-11: 6</title></circle>
	<circle cx="364.93" cy="275.25" data-y="5.39" data-x="1602460800" r="1" fill="white"><title>2020-10-12: 5</title></circle>
	<circle cx="366.48" cy="279.78" data-y="5.15" data-x="1602547200" r="1" fill="white"><title>2020-10-13: 5</title></circle>
	<circle cx="368.02" cy="286.58" data-y="4.78" data-x="1602633600" r="1" fill="white"><title>2020-10-14: 5</title></circle>
	<circle cx="369.57" cy="286.58" data-y="4.78" data-x="1602720000" r="1" fill="white"><title>2020-10-15: 5</title></circle>
	<circle cx="371.11" cy="277.52" data-y="5.27" data-x="1602806400" r="1" fill="white"><title>2020-10-16: 5</title></circle>
	<circle cx="372.66" cy="288.85" data-y="4.66" data-x="1602892800" r="1" fill="white"><title>2020-10-17: 5</title></circle>
	<circle cx="374.20" cy="295.65" data-y="4.29" data-x="1602979200" r="1" fill="white"><title>2020-10-18: 4</title></circle>
	<circle cx="375.75" cy="295.65" data-y="4.29" data-x="1603065600" r="1" fill="white"><title>2020-10-19: 4</title></circle>
	<circle cx="377.29" cy="282.05" data-y="5.02" data-x="1603152000" r="1" fill="white"><title>2020-10-20: 5</title></circle>
	<circle cx="378.84" cy="277.52" data-y="5.27" data-x="1603238400" r="1" fill="white"><title>2020-10-21: 5</title></circle>
	<circle cx="380.38" cy="270.71" data-y="5.64" data-x="1603324800" r="1" fill="white"><title>2020-10-22: 6</title></circle>
	<circle cx="381.93" cy="270.71" data-y="5.64" data-x="1603411200" r="1" fill="white"><title>2020-10-23: 6</title></circle>
	<circle cx="383.47" cy="254.84" data-y="6.49" data-x="1603497600" r="1" fill="white"><title>2020-10-24: 6</title></circle>
	<circle cx="385.02" cy="245.78" data-y="6.98" data-x="1603584000" r="1" fill="white"><title>2020-10-25: 7</title></circle>
	<circle cx="386.56" cy="238.98" data-y="7.35" data-x="1603670400" r="1" fill="white"><title>2020-10-26: 7</title></circle>
	<circle cx="388.11" cy="227.64" data-y="7.96" data-x="1603756800" r="1" fill="white"><title>2020-10-27: 8</title></circle>
	<circle cx="389.65" cy="216.30" data-y="8.58" data-x="1603843200" r="1" fill="white"><title>2020-10-28: 9</title></circle>
	<circle cx="391.20" cy="200.43" data-y="9.43" data-x="1603929600" r="1" fill="white"><title>2020-10-29: 9</title></circle>
	<circle cx="392.74" cy="166.43" data-y="11.27" data-x="1604016000" r="1" fill="white"><title>2020-10-30: 11</title></circle>
	<circle cx="394.29" cy="168.70" data-y="11.15" data-x="1604102400" r="1" fill="white"><title>2020-10-31: 11</title></circle>
	<circle cx="395.83" cy="157.36" data-y="11.76" data-x="1604188800" r="1" fill="white"><title>2020-11-01: 12</title></circle>
	<circle cx="397.38" cy="170.96" data-y="11.03" data-x="1604275200" r="1" fill="white"><title>2020-11-02: 11</title></circle>
	<circle cx="398.92" cy="177.76" data-y="10.66" data-x="1604361600" r="1" fill="white"><title>2020-11-03: 11</title></circle>
	<circle cx="400.47" cy="166.43" data-y="11.27" data-x="1604448000" r="1" fill="white"><title>2020-11-04: 11</title></circle>
	<circle cx="402.01" cy="148.29" data-y="12.25" data-x="1604534400" r="1" fill="white"><title>2020-11-05: 12</title></circle>
	<circle cx="403.56" cy="161.89" data-y="11.52" data-x="1604620800" r="1" fill="white"><title>2020-11-06: 12</title></circle>
	<circle cx="405.10" cy="127.89" data-y="13.35" data-x="1604707200" r="1" fill="white"><title>2020-11-07: 13</title></circle>
	<circle cx="406.65" cy="127.89" data-y="13.35" data-x="1604793600" r="1" fill="white"><title>2020-11-08: 13</title></circle>
	<circle cx="408.19" cy="96.15" data-y="15.07" data-x="1604880000" r="1" fill="white"><title>2020-11-09: 15</title></circle>
	<circle cx="409.74" cy="75.75" data-y="16.17" data-x="1604966400" r="1" fill="white"><title>2020-11-10: 16</title></circle>
	<circle cx="411.28" cy="82.55" data-y="15.80" data-x="1605052800" r="1" fill="white"><title>2020-11-11: 16</title></circle>
	<circle cx="412.83" cy="98.42" data-y="14.95" data-x="1605139200" r="1" fill="white"><title>2020-11-12: 15</title></circle>
	<circle cx="414.38" cy="102.95" data-y="14.70" data-x="1605225600" r="1" fill="white"><title>2020-11-13: 15</title></circle>
	<circle cx="415.92" cy="84.81" data-y="15.68" data-x="1605312000" r="1" fill="white"><title>2020-11-14: 16</title></circle>
	<circle cx="417.47" cy="80.28" data-y="15.93" data-x="1605398400" r="1" fill="white"><title>2020-11-15: 16</title></circle>
	<circle cx="419.01" cy="73.48" data-y="16.29" data-x="1605484800" r="1" fill="white"><title>2020-11-16: 16</title></circle>
	<circle cx="420.56" cy="84.81" data-y="15.68" data-x="1605571200" r="1" fill="white"><title>2020-11-17: 16</title></circle>
	<circle cx="422.10" cy="80.28" data-y="15.93" data-x="1605657600" r="1" fill="white"><title>2020-11-18: 16</title></circle>
	<circle cx="423.65" cy="75.75" data-y="16.17" data-x="1605744000" r="1" fill="white"><title>2020-11-19: 16</title></circle>
	<circle cx="425.19" cy="21.34" data-y="19.11" data-x="1605830400" r="1" fill="white"><title>2020-11-20: 19</title></circle>
	<circle cx="426.74" cy="59.88" data-y="17.03" data-x="1605916800" r="1" fill="white"><title>2020-11-21: 17</title></circle>
	<circle cx="428.28" cy="62.14" data-y="16.91" data-x="1606003200" r="1" fill="white"><title>2020-11-22: 17</title></circle>
	<circle cx="429.83" cy="78.01" data-y="16.05" data-x="1606089600" r="1" fill="white"><title>2020-11-23: 16</title></circle>
	<circle cx="431.37" cy="87.08" data-y="15.56" data-x="1606176000" r="1" fill="white"><title>2020-11-24: 16</title></circle>
	<circle cx="432.92" cy="105.22" data-y="14.58" data-x="1606262400" r="1" fill="white"><title>2020-11-25: 15</title></circle>
	<circle cx="434.46" cy="114.29" data-y="14.09" data-x="1606348800" r="1" fill="white"><title>2020-11-26: 14</title></circle>
	<circle cx="436.01" cy="168.70" data-y="11.15" data-x="1606435200" r="1" fill="white"><title>2020-11-27: 11</title></circle>
	<circle cx="437.55" cy="182.30" data-y="10.41" data-x="1606521600" r="1" fill="white"><title>2020-11-28: 10</title></circle>
	<circle cx="439.10" cy="177.76" data-y="10.66" data-x="1606608000" r="1" fill="white"><title>2020-11-29: 11</title></circle>
	<circle cx="440.64" cy="186.83" data-y="10.17" data-x="1606694400" r="1" fill="white"><title>2020-11-30: 10</title></circle>
	<circle cx="442.19" cy="193.63" data-y="9.80" data-x="1606780800" r="1" fill="white"><title>2020-12-01: 10</title></circle>
	<circle cx="443.73" cy="184.57" data-y="10.29" data-x="1606867200" r="1" fill="white"><title>2020-12-02: 10</title></circle>
	<circle cx="445.28" cy="189.10" data-y="10.05" data-x="1606953600" r="1" fill="white"><title>2020-12-03: 10</title></circle>
	<circle cx="446.82" cy="173.23" data-y="10.90" data-x="1607040000" r="1" fill="white"><title>2020-12-04: 11</title></circle>
	<circle cx="448.37" cy="150.56" data-y="12.13" data-x="1607126400" r="1" fill="white"><title>2020-12-05: 12</title></circle>
	<circle cx="449.91" cy="146.02" data-y="12.37" data-x="1607212800" r="1" fill="white"><title>2020-12-06: 12</title></circle>
	<circle cx="451.46" cy="123.35" data-y="13.60" data-x="1607299200" r="1" fill="white"><title>2020-12-07: 14</title></circle>
	<circle cx="453.00" cy="71.21" data-y="16.42" data-x="1607385600" r="1" fill="white"><title>2020-12-08: 16</title></circle>
	<circle cx="454.55" cy="53.07" data-y="17.40" data-x="1607472000" r="1" fill="white"><title>2020-12-09: 17</title></circle>
	<circle cx="456.09" cy="48.54" data-y="17.64" data-x="1607558400" r="1" fill="white"><title>2020-12-10: 18</title></circle>
	<circle cx="457.64" cy="16.80" data-y="19.36" data-x="1607644800" r="1" fill="white"><title>2020-12-11: 19</title></circle>
	<circle cx="459.18" cy="10.00" data-y="19.72" data-x="1607731200" r="1" fill="white"><title>2020-12-12: 20</title></circle>
	<circle cx="460.73" cy="14.53" data-y="19.48" data-x="1607817600" r="1" fill="white"><title>2020-12-13: 19</title></circle>
	<circle cx="462.27" cy="19.07" data-y="19.23" data-x="1607904000" r="1" fill="white"><title>2020-12-14: 19</title></circle>
</g>
<g data-series="recent-cases" class="data-series">
	<path d="M 462.27,19.07L 463.82,87.08L 465.36,125.62L 466.91,118.44L 468.45,184.57L 470.00,224.24" id="Recent cases" class="line" stroke-width="1" stroke-linecap="round" stroke-dasharray="4,6" stroke-dashoffset="4"><title>Recent cases</title></path>
	<circle cx="462.27" cy="19.07" data-y="19.23" data-x="1607904000" r="2.5" fill="white"><title>2020-12-14: 19</title></circle>
	<circle cx="463.82" cy="87.08" data-y="15.56" data-x="1607990400" r="2.5" fill="white"><title>2020-12-15: 16</title></circle>
	<circle cx="465.36" cy="125.62" data-y="13.48" data-x="1608076800" r="2.5" fill="white"><title>2020-12-16: 13</title></circle>
	<circle cx="466.91" cy="118.44" data-y="13.86" data-x="1608163200" r="2.5" fill="white"><title>2020-12-17: 14</title></circle>
	<circle cx="468.45" cy="184.57" data-y="10.29" data-x="1608249600" r="2.5" fill="white"><title>2020-12-18: 10</title></circle>
	<circle cx="470.00" cy="224.24" data-y="8.15" data-x="1608336000" r="2.5" fill="white"><title>2020-12-19: 8</title></circle>
</g>
</svg>
