<svg width="480" height="400" viewBox="0 0 480 400" xmlns="http://www.w3.org/2000/svg" style="overflow:display" preserveAspectRatio="xMinYMin meet" overflow="visible">
<defs>
	<style>
	.data-series path.line { fill-opacity: 0; stroke: black; }
	.data-series path.line.dotted { stroke-dasharray: 12 20 }
	.data-series:hover path.line, .data-series.on path.line { stroke-width: 1; }
	.data-series:hover circle, .data-series.on circle { display: inline; }
	.graph-grid { font-family: "Helvetica Neue",Helvetica,Arial,"Lucida Grande",sans-serif; }
	.graph-grid line { stroke: black; stroke-width: 1; stroke-linecap: round; }
	.graph-grid.graph-grid-x text { text-anchor: middle; dominant-baseline: hanging; transform: translateY(10px); }
	.graph-grid.graph-grid-y text { text-anchor: end; dominant-baseline: middle; transform: translateX(-10px); }
	</style>
</defs>
<g class="graph-grid graph-grid-y">
	<line x1="25.00" y1="375.00" x2="470.00" y2="375.00" data-left="25"></line>
	<text x="35" y="375" text-anchor="end">0</text>
	<text x="35" y="251.307071052632" text-anchor="end">5</text>
	<text x="35" y="127.614142105263" text-anchor="end">10</text>
	<text x="35" y="3.9212131578947" text-anchor="end">15</text>
	<text style="text-anchor:middle;dominant-baseline:hanging;font-weight:bold;transform: translateY(192.5px) rotate(-90deg);"></text>
</g>
<g class="graph-grid graph-grid-x">
	<line class="tick" x1="32.21" y1="375.00" x2="32.21" y2="380.00"></line>
	<text x="32.2064777327935" y="375" text-anchor="middle">M</text>
	<line class="tick" x1="88.06" y1="375.00" x2="88.06" y2="380.00"></line>
	<text x="88.0566801619433" y="375" text-anchor="middle">A</text>
	<line class="tick" x1="142.11" y1="375.00" x2="142.11" y2="380.00"></line>
	<text x="142.105263157895" y="375" text-anchor="middle">M</text>
	<line class="tick" x1="197.96" y1="375.00" x2="197.96" y2="380.00"></line>
	<text x="197.955465587045" y="375" text-anchor="middle">J</text>
	<line class="tick" x1="252.00" y1="375.00" x2="252.00" y2="380.00"></line>
	<text x="252.004048582996" y="375" text-anchor="middle">J</text>
	<line class="tick" x1="307.85" y1="375.00" x2="307.85" y2="380.00"></line>
	<text x="307.854251012146" y="375" text-anchor="middle">A</text>
	<line class="tick" x1="363.70" y1="375.00" x2="363.70" y2="380.00"></line>
	<text x="363.704453441296" y="375" text-anchor="middle">S</text>
	<line class="tick" x1="417.75" y1="375.00" x2="417.75" y2="380.00"></line>
	<text x="417.753036437247" y="375" text-anchor="middle">O</text>
	<text style="text-anchor:middle;dominant-baseline:hanging;font-weight:bold;transform: translateY(192.5px) rotate(-90deg);"></text>
</g>
<g data-series="widespread" class="data-series">
	<path d="M 25.00,201.83L 470.00,201.83" id="E07000079-level-0" class="line" stroke-width="1" stroke-linecap="round" stroke-dasharray="3,3" fill-opacity="0.3" opacity="0.3"><title>Widespread</title></path>
</g>
<g data-series="substantial" class="data-series">
	<path d="M 25.00,276.05L 470.00,276.05" id="E07000079-level-1" class="line" stroke-width="1" stroke-linecap="round" stroke-dasharray="3,3" fill-opacity="0.3" opacity="0.3"><title>Substantial</title></path>
</g>
<g data-series="moderate" class="data-series">
	<path d="M 25.00,350.26L 470.00,350.26" id="E07000079-level-2" class="line" stroke-width="1" stroke-linecap="round" stroke-dasharray="3,3" fill-opacity="0.3" opacity="0.3"><title>Moderate</title></path>
</g>
<g data-series="new-cases" class="data-series">
	<path d="M 25.00,361.55L 26.80,364.24L 28.60,366.04L 30.40,367.32L 32.21,371.16L 34.01,375.00L 35.81,375.00L 37.61,375.00L 39.41,375.00L 41.21,375.00L 43.02,375.00L 44.82,367.32L 46.62,367.32L 48.42,363.47L 50.22,363.47L 52.02,359.63L 53.83,355.79L 55.63,351.95L 57.43,351.95L 59.23,351.95L 61.03,351.95L 62.83,351.95L 64.64,351.95L 66.44,351.95L 68.24,355.79L 70.04,348.11L 71.84,336.58L 73.64,321.21L 75.45,309.68L 77.25,309.68L 79.05,298.16L 80.85,286.63L 82.65,290.47L 84.45,298.16L 86.26,290.47L 88.06,298.16L 89.86,294.32L 91.66,294.32L 93.46,286.63L 95.26,282.79L 97.06,255.89L 98.87,259.74L 100.67,248.21L 102.47,236.68L 104.27,236.68L 106.07,252.05L 107.87,259.74L 109.68,275.11L 111.48,294.32L 113.28,286.63L 115.08,294.32L 116.88,302.00L 118.68,298.16L 120.49,298.16L 122.29,286.63L 124.09,263.58L 125.89,282.79L 127.69,282.79L 129.49,255.89L 131.30,248.21L 133.10,244.37L 134.90,263.58L 136.70,282.79L 138.50,275.11L 140.30,282.79L 142.11,309.68L 143.91,298.16L 145.71,298.16L 147.51,294.32L 149.31,298.16L 151.11,309.68L 152.91,305.84L 154.72,278.95L 156.52,298.16L 158.32,305.84L 160.12,317.37L 161.92,309.68L 163.72,305.84L 165.53,313.53L 167.33,344.26L 169.13,351.95L 170.93,355.79L 172.73,340.42L 174.53,351.95L 176.34,351.95L 178.14,351.95L 179.94,355.79L 181.74,355.79L 183.54,355.79L 185.34,371.16L 187.15,371.16L 188.95,375.00L 190.75,371.16L 192.55,367.32L 194.35,367.32L 196.15,367.32L 197.96,367.32L 199.76,367.32L 201.56,367.32L 203.36,371.16L 205.16,375.00L 206.96,375.00L 208.77,375.00L 210.57,375.00L 212.37,375.00L 214.17,375.00L 215.97,375.00L 217.77,375.00L 219.57,375.00L 221.38,371.16L 223.18,371.16L 224.98,371.16L 226.78,371.16L 228.58,371.16L 230.38,371.16L 232.19,371.16L 233.99,371.16L 235.79,371.16L 237.59,371.16L 239.39,371.16L 241.19,371.16L 243.00,367.32L 244.80,367.32L 246.60,371.16L 248.40,371.16L 250.20,371.16L 252.00,367.32L 253.81,367.32L 255.61,371.16L 257.41,367.32L 259.21,367.32L 261.01,367.32L 262.81,367.32L 264.62,371.16L 266.42,371.16L 268.22,371.16L 270.02,375.00L 271.82,375.00L 273.62,371.16L 275.43,371.16L 277.23,367.32L 279.03,367.32L 280.83,367.32L 282.63,355.79L 284.43,355.79L 286.23,359.63L 288.04,351.95L 289.84,355.79L 291.64,355.79L 293.44,351.95L 295.24,351.95L 297.04,348.11L 298.85,348.11L 300.65,355.79L 302.45,355.79L 304.25,355.79L 306.05,355.79L 307.85,363.47L 309.66,363.47L 311.46,363.47L 313.26,363.47L 315.06,363.47L 316.86,363.47L 318.66,363.47L 320.47,367.32L 322.27,371.16L 324.07,371.16L 325.87,371.16L 327.67,371.16L 329.47,371.16L 331.28,371.16L 333.08,363.47L 334.88,363.47L 336.68,359.63L 338.48,355.79L 340.28,355.79L 342.09,355.79L 343.89,351.95L 345.69,359.63L 347.49,359.63L 349.29,363.47L 351.09,363.47L 352.89,359.63L 354.70,359.63L 356.50,367.32L 358.30,359.63L 360.10,355.79L 361.90,351.95L 363.70,348.11L 365.51,351.95L 367.31,344.26L 369.11,340.42L 370.91,348.11L 372.71,351.95L 374.51,355.79L 376.32,359.63L 378.12,348.11L 379.92,348.11L 381.72,351.95L 383.52,351.95L 385.32,348.11L 387.13,348.11L 388.93,344.26L 390.73,351.95L 392.53,359.63L 394.33,359.63L 396.13,355.79L 397.94,359.63L 399.74,355.79L 401.54,351.95L 403.34,348.11L 405.14,336.58L 406.94,325.05L 408.74,317.37L 410.55,298.16L 412.35,282.79L 414.15,271.26L 415.95,259.74L 417.75,248.21L 419.55,225.16L 421.36,198.26L 423.16,179.05L 424.96,148.32L 426.76,94.53L 428.56,71.47L 430.36,52.26L 432.17,56.11L 433.97,63.79L 435.77,75.32L 437.57,86.84L 439.37,140.63L 441.17,152.16L 442.98,171.37L 444.78,132.95L 446.58,109.89L 448.38,63.79L 450.18,59.95L 451.98,33.05L 453.79,29.21L 455.59,21.53L 457.39,13.84L 459.19,10.00L 460.99,33.05" id="New cases" class="line" stroke-width="1" stroke-linecap="round"><title>New cases</title></path>
	<circle cx="25.00" cy="361.55" data-y="0.54" data-x="1582675200" r="1" fill="white"><title>2020-02-26: 1</title></circle>
	<circle cx="26.80" cy="364.24" data-y="0.43" data-x="1582761600" r="1" fill="white"><title>2020-02-27: 0</title></circle>
	<circle cx="28.60" cy="366.04" data-y="0.36" data-x="1582848000" r="1" fill="white"><title>2020-02-28: 0</title></circle>
	<circle cx="30.40" cy="367.32" data-y="0.31" data-x="1582934400" r="1" fill="white"><title>2020-02-29: 0</title></circle>
	<circle cx="32.21" cy="371.16" data-y="0.16" data-x="1583020800" r="1" fill="white"><title>2020-03-01: 0</title></circle>
	<circle cx="34.01" cy="375.00" data-y="0.00" data-x="1583107200" r="1" fill="white"><title>2020-03-02: 0</title></circle>
	<circle cx="35.81" cy="375.00" data-y="0.00" data-x="1583193600" r="1" fill="white"><title>2020-03-03: 0</title></circle>
	<circle cx="37.61" cy="375.00" data-y="0.00" data-x="1583280000" r="1" fill="white"><title>2020-03-04: 0</title></circle>
	<circle cx="39.41" cy="375.00" data-y="0.00" data-x="1583366400" r="1" fill="white"><title>2020-03-05: 0</title></circle>
	<circle cx="41.21" cy="375.00" data-y="0.00" data-x="1583452800" r="1" fill="white"><title>2020-03-06: 0</title></circle>
	<circle cx="43.02" cy="375.00" data-y="0.00" data-x="1583539200" r="1" fill="white"><title>2020-03-07: 0</title></circle>
	<circle cx="44.82" cy="367.32" data-y="0.31" data-x="1583625600" r="1" fill="white"><title>2020-03-08: 0</title></circle>
	<circle cx="46.62" cy="367.32" data-y="0.31" data-x="1583712000" r="1" fill="white"><title>2020-03-09: 0</title></circle>
	<circle cx="48.42" cy="363.47" data-y="0.47" data-x="1583798400" r="1" fill="white"><title>2020-03-10: 0</title></circle>
	<circle cx="50.22" cy="363.47" data-y="0.47" data-x="1583884800" r="1" fill="white"><title>2020-03-11: 0</title></circle>
	<circle cx="52.02" cy="359.63" data-y="0.62" data-x="1583971200" r="1" fill="white"><title>2020-03-12: 1</title></circle>
	<circle cx="53.83" cy="355.79" data-y="0.78" data-x="1584057600" r="1" fill="white"><title>2020-03-13: 1</title></circle>
	<circle cx="55.63" cy="351.95" data-y="0.93" data-x="1584144000" r="1" fill="white"><title>2020-03-14: 1</title></circle>
	<circle cx="57.43" cy="351.95" data-y="0.93" data-x="1584230400" r="1" fill="white"><title>2020-03-15: 1</title></circle>
	<circle cx="59.23" cy="351.95" data-y="0.93" data-x="1584316800" r="1" fill="white"><title>2020-03-16: 1</title></circle>
	<circle cx="61.03" cy="351.95" data-y="0.93" data-x="1584403200" r="1" fill="white"><title>2020-03-17: 1</title></circle>
	<circle cx="62.83" cy="351.95" data-y="0.93" data-x="1584489600" r="1" fill="white"><title>2020-03-18: 1</title></circle>
	<circle cx="64.64" cy="351.95" data-y="0.93" data-x="1584576000" r="1" fill="white"><title>2020-03-19: 1</title></circle>
	<circle cx="66.44" cy="351.95" data-y="0.93" data-x="1584662400" r="1" fill="white"><title>2020-03-20: 1</title></circle>
	<circle cx="68.24" cy="355.79" data-y="0.78" data-x="1584748800" r="1" fill="white"><title>2020-03-21: 1</title></circle>
	<circle cx="70.04" cy="348.11" data-y="1.09" data-x="1584835200" r="1" fill="white"><title>2020-03-22: 1</title></circle>
	<circle cx="71.84" cy="336.58" data-y="1.55" data-x="1584921600" r="1" fill="white"><title>2020-03-23: 2</title></circle>
	<circle cx="73.64" cy="321.21" data-y="2.17" data-x="1585008000" r="1" fill="white"><title>2020-03-24: 2</title></circle>
	<circle cx="75.45" cy="309.68" data-y="2.64" data-x="1585094400" r="1" fill="white"><title>2020-03-25: 3</title></circle>
	<circle cx="77.25" cy="309.68" data-y="2.64" data-x="1585180800" r="1" fill="white"><title>2020-03-26: 3</title></circle>
	<circle cx="79.05" cy="298.16" data-y="3.11" data-x="1585267200" r="1" fill="white"><title>2020-03-27: 3</title></circle>
	<circle cx="80.85" cy="286.63" data-y="3.57" data-x="1585353600" r="1" fill="white"><title>2020-03-28: 4</title></circle>
	<circle cx="82.65" cy="290.47" data-y="3.42" data-x="1585440000" r="1" fill="white"><title>2020-03-29: 3</title></circle>
	<circle cx="84.45" cy="298.16" data-y="3.11" data-x="1585526400" r="1" fill="white"><title>2020-03-30: 3</title></circle>
	<circle cx="86.26" cy="290.47" data-y="3.42" data-x="1585612800" r="1" fill="white"><title>2020-03-31: 3</title></circle>
	<circle cx="88.06" cy="298.16" data-y="3.11" data-x="1585699200" r="1" fill="white"><title>2020-04-01: 3</title></circle>
	<circle cx="89.86" cy="294.32" data-y="3.26" data-x="1585785600" r="1" fill="white"><title>2020-04-02: 3</title></circle>
	<circle cx="91.66" cy="294.32" data-y="3.26" data-x="1585872000" r="1" fill="white"><title>2020-04-03: 3</title></circle>
	<circle cx="93.46" cy="286.63" data-y="3.57" data-x="1585958400" r="1" fill="white"><title>2020-04-04: 4</title></circle>
	<circle cx="95.26" cy="282.79" data-y="3.73" data-x="1586044800" r="1" fill="white"><title>2020-04-05: 4</title></circle>
	<circle cx="97.06" cy="255.89" data-y="4.81" data-x="1586131200" r="1" fill="white"><title>2020-04-06: 5</title></circle>
	<circle cx="98.87" cy="259.74" data-y="4.66" data-x="1586217600" r="1" fill="white"><title>2020-04-07: 5</title></circle>
	<circle cx="100.67" cy="248.21" data-y="5.13" data-x="1586304000" r="1" fill="white"><title>2020-04-08: 5</title></circle>
	<circle cx="102.47" cy="236.68" data-y="5.59" data-x="1586390400" r="1" fill="white"><title>2020-04-09: 6</title></circle>
	<circle cx="104.27" cy="236.68" data-y="5.59" data-x="1586476800" r="1" fill="white"><title>2020-04-10: 6</title></circle>
	<circle cx="106.07" cy="252.05" data-y="4.97" data-x="1586563200" r="1" fill="white"><title>2020-04-11: 5</title></circle>
	<circle cx="107.87" cy="259.74" data-y="4.66" data-x="1586649600" r="1" fill="white"><title>2020-04-12: 5</title></circle>
	<circle cx="109.68" cy="275.11" data-y="4.04" data-x="1586736000" r="1" fill="white"><title>2020-04-13: 4</title></circle>
	<circle cx="111.48" cy="294.32" data-y="3.26" data-x="1586822400" r="1" fill="white"><title>2020-04-14: 3</title></circle>
	<circle cx="113.28" cy="286.63" data-y="3.57" data-x="1586908800" r="1" fill="white"><title>2020-04-15: 4</title></circle>
	<circle cx="115.08" cy="294.32" data-y="3.26" data-x="1586995200" r="1" fill="white"><title>2020-04-16: 3</title></circle>
	<circle cx="116.88" cy="302.00" data-y="2.95" data-x="1587081600" r="1" fill="white"><title>2020-04-17: 3</title></circle>
	<circle cx="118.68" cy="298.16" data-y="3.11" data-x="1587168000" r="1" fill="white"><title>2020-04-18: 3</title></circle>
	<circle cx="120.49" cy="298.16" data-y="3.11" data-x="1587254400" r="1" fill="white"><title>2020-04-19: 3</title></circle>
	<circle cx="122.29" cy="286.63" data-y="3.57" data-x="1587340800" r="1" fill="white"><title>2020-04-20: 4</title></circle>
	<circle cx="124.09" cy="263.58" data-y="4.50" data-x="1587427200" r="1" fill="white"><title>2020-04-21: 5</title></circle>
	<circle cx="125.89" cy="282.79" data-y="3.73" data-x="1587513600" r="1" fill="white"><title>2020-04-22: 4</title></circle>
	<circle cx="127.69" cy="282.79" data-y="3.73" data-x="1587600000" r="1" fill="white"><title>2020-04-23: 4</title></circle>
	<circle cx="129.49" cy="255.89" data-y="4.81" data-x="1587686400" r="1" fill="white"><title>2020-04-24: 5</title></circle>
	<circle cx="131.30" cy="248.21" data-y="5.13" data-x="1587772800" r="1" fill="white"><title>2020-04-25: 5</title></circle>
	<circle cx="133.10" cy="244.37" data-y="5.28" data-x="1587859200" r="1" fill="white"><title>2020-04-26: 5</title></circle>
	<circle cx="134.90" cy="263.58" data-y="4.50" data-x="1587945600" r="1" fill="white"><title>2020-04-27: 5</title></circle>
	<circle cx="136.70" cy="282.79" data-y="3.73" data-x="1588032000" r="1" fill="white"><title>2020-04-28: 4</title></circle>
	<circle cx="138.50" cy="275.11" data-y="4.04" data-x="1588118400" r="1" fill="white"><title>2020-04-29: 4</title></circle>
	<circle cx="140.30" cy="282.79" data-y="3.73" data-x="1588204800" r="1" fill="white"><title>2020-04-30: 4</title></circle>
	<circle cx="142.11" cy="309.68" data-y="2.64" data-x="1588291200" r="1" fill="white"><title>2020-05-01: 3</title></circle>
	<circle cx="143.91" cy="298.16" data-y="3.11" data-x="1588377600" r="1" fill="white"><title>2020-05-02: 3</title></circle>
	<circle cx="145.71" cy="298.16" data-y="3.11" data-x="1588464000" r="1" fill="white"><title>2020-05-03: 3</title></circle>
	<circle cx="147.51" cy="294.32" data-y="3.26" data-x="1588550400" r="1" fill="white"><title>2020-05-04: 3</title></circle>
	<circle cx="149.31" cy="298.16" data-y="3.11" data-x="1588636800" r="1" fill="white"><title>2020-05-05: 3</title></circle>
	<circle cx="151.11" cy="309.68" data-y="2.64" data-x="1588723200" r="1" fill="white"><title>2020-05-06: 3</title></circle>
	<circle cx="152.91" cy="305.84" data-y="2.80" data-x="1588809600" r="1" fill="white"><title>2020-05-07: 3</title></circle>
	<circle cx="154.72" cy="278.95" data-y="3.88" data-x="1588896000" r="1" fill="white"><title>2020-05-08: 4</title></circle>
	<circle cx="156.52" cy="298.16" data-y="3.11" data-x="1588982400" r="1" fill="white"><title>2020-05-09: 3</title></circle>
	<circle cx="158.32" cy="305.84" data-y="2.80" data-x="1589068800" r="1" fill="white"><title>2020-05-10: 3</title></circle>
	<circle cx="160.12" cy="317.37" data-y="2.33" data-x="1589155200" r="1" fill="white"><title>2020-05-11: 2</title></circle>
	<circle cx="161.92" cy="309.68" data-y="2.64" data-x="1589241600" r="1" fill="white"><title>2020-05-12: 3</title></circle>
	<circle cx="163.72" cy="305.84" data-y="2.80" data-x="1589328000" r="1" fill="white"><title>2020-05-13: 3</title></circle>
	<circle cx="165.53" cy="313.53" data-y="2.48" data-x="1589414400" r="1" fill="white"><title>2020-05-14: 2</title></circle>
	<circle cx="167.33" cy="344.26" data-y="1.24" data-x="1589500800" r="1" fill="white"><title>2020-05-15: 1</title></circle>
	<circle cx="169.13" cy="351.95" data-y="0.93" data-x="1589587200" r="1" fill="white"><title>2020-05-16: 1</title></circle>
	<circle cx="170.93" cy="355.79" data-y="0.78" data-x="1589673600" r="1" fill="white"><title>2020-05-17: 1</title></circle>
	<circle cx="172.73" cy="340.42" data-y="1.40" data-x="1589760000" r="1" fill="white"><title>2020-05-18: 1</title></circle>
	<circle cx="174.53" cy="351.95" data-y="0.93" data-x="1589846400" r="1" fill="white"><title>2020-05-19: 1</title></circle>
	<circle cx="176.34" cy="351.95" data-y="0.93" data-x="1589932800" r="1" fill="white"><title>2020-05-20: 1</title></circle>
	<circle cx="178.14" cy="351.95" data-y="0.93" data-x="1590019200" r="1" fill="white"><title>2020-05-21: 1</title></circle>
	<circle cx="179.94" cy="355.79" data-y="0.78" data-x="1590105600" r="1" fill="white"><title>2020-05-22: 1</title></circle>
	<circle cx="181.74" cy="355.79" data-y="0.78" data-x="1590192000" r="1" fill="white"><title>2020-05-23: 1</title></circle>
	<circle cx="183.54" cy="355.79" data-y="0.78" data-x="1590278400" r="1" fill="white"><title>2020-05-24: 1</title></circle>
	<circle cx="185.34" cy="371.16" data-y="0.16" data-x="1590364800" r="1" fill="white"><title>2020-05-25: 0</title></circle>
	<circle cx="187.15" cy="371.16" data-y="0.16" data-x="1590451200" r="1" fill="white"><title>2020-05-26: 0</title></circle>
	<circle cx="188.95" cy="375.00" data-y="0.00" data-x="1590537600" r="1" fill="white"><title>2020-05-27: 0</title></circle>
	<circle cx="190.75" cy="371.16" data-y="0.16" data-x="1590624000" r="1" fill="white"><title>2020-05-28: 0</title></circle>
	<circle cx="192.55" cy="367.32" data-y="0.31" data-x="1590710400" r="1" fill="white"><title>2020-05-29: 0</title></circle>
	<circle cx="194.35" cy="367.32" data-y="0.31" data-x="1590796800" r="1" fill="white"><title>2020-05-30: 0</title></circle>
	<circle cx="196.15" cy="367.32" data-y="0.31" data-x="1590883200" r="1" fill="white"><title>2020-05-31: 0</title></circle>
	<circle cx="197.96" cy="367.32" data-y="0.31" data-x="1590969600" r="1" fill="white"><title>2020-06-01: 0</title></circle>
	<circle cx="199.76" cy="367.32" data-y="0.31" data-x="1591056000" r="1" fill="white"><title>2020-06-02: 0</title></circle>
	<circle cx="201.56" cy="367.32" data-y="0.31" data-x="1591142400" r="1" fill="white"><title>2020-06-03: 0</title></circle>
	<circle cx="203.36" cy="371.16" data-y="0.16" data-x="1591228800" r="1" fill="white"><title>2020-06-04: 0</title></circle>
	<circle cx="205.16" cy="375.00" data-y="0.00" data-x="1591315200" r="1" fill="white"><title>2020-06-05: 0</title></circle>
	<circle cx="206.96" cy="375.00" data-y="0.00" data-x="1591401600" r="1" fill="white"><title>2020-06-06: 0</title></circle>
	<circle cx="208.77" cy="375.00" data-y="0.00" data-x="1591488000" r="1" fill="white"><title>2020-06-07: 0</title></circle>
	<circle cx="210.57" cy="375.00" data-y="0.00" data-x="1591574400" r="1" fill="white"><title>2020-06-08: 0</title></circle>
	<circle cx="212.37" cy="375.00" data-y="0.00" data-x="1591660800" r="1" fill="white"><title>2020-06-09: 0</title></circle>
	<circle cx="214.17" cy="375.00" data-y="0.00" data-x="1591747200" r="1" fill="white"><title>2020-06-10: 0</title></circle>
	<circle cx="215.97" cy="375.00" data-y="0.00" data-x="1591833600" r="1" fill="white"><title>2020-06-11: 0</title></circle>
	<circle cx="217.77" cy="375.00" data-y="0.00" data-x="1591920000" r="1" fill="white"><title>2020-06-12: 0</title></circle>
	<circle cx="219.57" cy="375.00" data-y="0.00" data-x="1592006400" r="1" fill="white"><title>2020-06-13: 0</title></circle>
	<circle cx="221.38" cy="371.16" data-y="0.16" data-x="1592092800" r="1" fill="white"><title>2020-06-14: 0</title></circle>
	<circle cx="223.18" cy="371.16" data-y="0.16" data-x="1592179200" r="1" fill="white"><title>2020-06-15: 0</title></circle>
	<circle cx="224.98" cy="371.16" data-y="0.16" data-x="1592265600" r="1" fill="white"><title>2020-06-16: 0</title></circle>
	<circle cx="226.78" cy="371.16" data-y="0.16" data-x="1592352000" r="1" fill="white"><title>2020-06-17: 0</title></circle>
	<circle cx="228.58" cy="371.16" data-y="0.16" data-x="1592438400" r="1" fill="white"><title>2020-06-18: 0</title></circle>
	<circle cx="230.38" cy="371.16" data-y="0.16" data-x="1592524800" r="1" fill="white"><title>2020-06-19: 0</title></circle>
	<circle cx="232.19" cy="371.16" data-y="0.16" data-x="1592611200" r="1" fill="white"><title>2020-06-20: 0</title></circle>
	<circle cx="233.99" cy="371.16" data-y="0.16" data-x="1592697600" r="1" fill="white"><title>2020-06-21: 0</title></circle>
	<circle cx="235.79" cy="371.16" data-y="0.16" data-x="1592784000" r="1" fill="white"><title>2020-06-22: 0</title></circle>
	<circle cx="237.59" cy="371.16" data-y="0.16" data-x="1592870400" r="1" fill="white"><title>2020-06-23: 0</title></circle>
	<circle cx="239.39" cy="371.16" data-y="0.16" data-x="1592956800" r="1" fill="white"><title>2020-06-24: 0</title></circle>
	<circle cx="241.19" cy="371.16" data-y="0.16" data-x="1593043200" r="1" fill="white"><title>2020-06-25: 0</title></circle>
	<circle cx="243.00" cy="367.32" data-y="0.31" data-x="1593129600" r="1" fill="white"><title>2020-06-26: 0</title></circle>
	<circle cx="244.80" cy="367.32" data-y="0.31" data-x="1593216000" r="1" fill="white"><title>2020-06-27: 0</title></circle>
	<circle cx="246.60" cy="371.16" data-y="0.16" data-x="1593302400" r="1" fill="white"><title>2020-06-28: 0</title></circle>
	<circle cx="248.40" cy="371.16" data-y="0.16" data-x="1593388800" r="1" fill="white"><title>2020-06-29: 0</title></circle>
	<circle cx="250.20" cy="371.16" data-y="0.16" data-x="1593475200" r="1" fill="white"><title>2020-06-30: 0</title></circle>
	<circle cx="252.00" cy="367.32" data-y="0.31" data-x="1593561600" r="1" fill="white"><title>2020-07-01: 0</title></circle>
	<circle cx="253.81" cy="367.32" data-y="0.31" data-x="1593648000" r="1" fill="white"><title>2020-07-02: 0</title></circle>
	<circle cx="255.61" cy="371.16" data-y="0.16" data-x="1593734400" r="1" fill="white"><title>2020-07-03: 0</title></circle>
	<circle cx="257.41" cy="367.32" data-y="0.31" data-x="1593820800" r="1" fill="white"><title>2020-07-04: 0</title></circle>
	<circle cx="259.21" cy="367.32" data-y="0.31" data-x="1593907200" r="1" fill="white"><title>2020-07-05: 0</title></circle>
	<circle cx="261.01" cy="367.32" data-y="0.31" data-x="1593993600" r="1" fill="white"><title>2020-07-06: 0</title></circle>
	<circle cx="262.81" cy="367.32" data-y="0.31" data-x="1594080000" r="1" fill="white"><title>2020-07-07: 0</title></circle>
	<circle cx="264.62" cy="371.16" data-y="0.16" data-x="1594166400" r="1" fill="white"><title>2020-07-08: 0</title></circle>
	<circle cx="266.42" cy="371.16" data-y="0.16" data-x="1594252800" r="1" fill="white"><title>2020-07-09: 0</title></circle>
	<circle cx="268.22" cy="371.16" data-y="0.16" data-x="1594339200" r="1" fill="white"><title>2020-07-10: 0</title></circle>
	<circle cx="270.02" cy="375.00" data-y="0.00" data-x="1594425600" r="1" fill="white"><title>2020-07-11: 0</title></circle>
	<circle cx="271.82" cy="375.00" data-y="0.00" data-x="1594512000" r="1" fill="white"><title>2020-07-12: 0</title></circle>
	<circle cx="273.62" cy="371.16" data-y="0.16" data-x="1594598400" r="1" fill="white"><title>2020-07-13: 0</title></circle>
	<circle cx="275.43" cy="371.16" data-y="0.16" data-x="1594684800" r="1" fill="white"><title>2020-07-14: 0</title></circle>
	<circle cx="277.23" cy="367.32" data-y="0.31" data-x="1594771200" r="1" fill="white"><title>2020-07-15: 0</title></circle>
	<circle cx="279.03" cy="367.32" data-y="0.31" data-x="1594857600" r="1" fill="white"><title>2020-07-16: 0</title></circle>
	<circle cx="280.83" cy="367.32" data-y="0.31" data-x="1594944000" r="1" fill="white"><title>2020-07-17: 0</title></circle>
	<circle cx="282.63" cy="355.79" data-y="0.78" data-x="1595030400" r="1" fill="white"><title>2020-07-18: 1</title></circle>
	<circle cx="284.43" cy="355.79" data-y="0.78" data-x="1595116800" r="1" fill="white"><title>2020-07-19: 1</title></circle>
	<circle cx="286.23" cy="359.63" data-y="0.62" data-x="1595203200" r="1" fill="white"><title>2020-07-20: 1</title></circle>
	<circle cx="288.04" cy="351.95" data-y="0.93" data-x="1595289600" r="1" fill="white"><title>2020-07-21: 1</title></circle>
	<circle cx="289.84" cy="355.79" data-y="0.78" data-x="1595376000" r="1" fill="white"><title>2020-07-22: 1</title></circle>
	<circle cx="291.64" cy="355.79" data-y="0.78" data-x="1595462400" r="1" fill="white"><title>2020-07-23: 1</title></circle>
	<circle cx="293.44" cy="351.95" data-y="0.93" data-x="1595548800" r="1" fill="white"><title>2020-07-24: 1</title></circle>
	<circle cx="295.24" cy="351.95" data-y="0.93" data-x="1595635200" r="1" fill="white"><title>2020-07-25: 1</title></circle>
	<circle cx="297.04" cy="348.11" data-y="1.09" data-x="1595721600" r="1" fill="white"><title>2020-07-26: 1</title></circle>
	<circle cx="298.85" cy="348.11" data-y="1.09" data-x="1595808000" r="1" fill="white"><title>2020-07-27: 1</title></circle>
	<circle cx="300.65" cy="355.79" data-y="0.78" data-x="1595894400" r="1" fill="white"><title>2020-07-28: 1</title></circle>
	<circle cx="302.45" cy="355.79" data-y="0.78" data-x="1595980800" r="1" fill="white"><title>2020-07-29: 1</title></circle>
	<circle cx="304.25" cy="355.79" data-y="0.78" data-x="1596067200" r="1" fill="white"><title>2020-07-30: 1</title></circle>
	<circle cx="306.05" cy="355.79" data-y="0.78" data-x="1596153600" r="1" fill="white"><title>2020-07-31: 1</title></circle>
	<circle cx="307.85" cy="363.47" data-y="0.47" data-x="1596240000" r="1" fill="white"><title>2020-08-01: 0</title></circle>
	<circle cx="309.66" cy="363.47" data-y="0.47" data-x="1596326400" r="1" fill="white"><title>2020-08-02: 0</title></circle>
	<circle cx="311.46" cy="363.47" data-y="0.47" data-x="1596412800" r="1" fill="white"><title>2020-08-03: 0</title></circle>
	<circle cx="313.26" cy="363.47" data-y="0.47" data-x="1596499200" r="1" fill="white"><title>2020-08-04: 0</title></circle>
	<circle cx="315.06" cy="363.47" data-y="0.47" data-x="1596585600" r="1" fill="white"><title>2020-08-05: 0</title></circle>
	<circle cx="316.86" cy="363.47" data-y="0.47" data-x="1596672000" r="1" fill="white"><title>2020-08-06: 0</title></circle>
	<circle cx="318.66" cy="363.47" data-y="0.47" data-x="1596758400" r="1" fill="white"><title>2020-08-07: 0</title></circle>
	<circle cx="320.47" cy="367.32" data-y="0.31" data-x="1596844800" r="1" fill="white"><title>2020-08-08: 0</title></circle>
	<circle cx="322.27" cy="371.16" data-y="0.16" data-x="1596931200" r="1" fill="white"><title>2020-08-09: 0</title></circle>
	<circle cx="324.07" cy="371.16" data-y="0.16" data-x="1597017600" r="1" fill="white"><title>2020-08-10: 0</title></circle>
	<circle cx="325.87" cy="371.16" data-y="0.16" data-x="1597104000" r="1" fill="white"><title>2020-08-11: 0</title></circle>
	<circle cx="327.67" cy="371.16" data-y="0.16" data-x="1597190400" r="1" fill="white"><title>2020-08-12: 0</title></circle>
	<circle cx="329.47" cy="371.16" data-y="0.16" data-x="1597276800" r="1" fill="white"><title>2020-08-13: 0</title></circle>
	<circle cx="331.28" cy="371.16" data-y="0.16" data-x="1597363200" r="1" fill="white"><title>2020-08-14: 0</title></circle>
	<circle cx="333.08" cy="363.47" data-y="0.47" data-x="1597449600" r="1" fill="white"><title>2020-08-15: 0</title></circle>
	<circle cx="334.88" cy="363.47" data-y="0.47" data-x="1597536000" r="1" fill="white"><title>2020-08-16: 0</title></circle>
	<circle cx="336.68" cy="359.63" data-y="0.62" data-x="1597622400" r="1" fill="white"><title>2020-08-17: 1</title></circle>
	<circle cx="338.48" cy="355.79" data-y="0.78" data-x="1597708800" r="1" fill="white"><title>2020-08-18: 1</title></circle>
	<circle cx="340.28" cy="355.79" data-y="0.78" data-x="1597795200" r="1" fill="white"><title>2020-08-19: 1</title></circle>
	<circle cx="342.09" cy="355.79" data-y="0.78" data-x="1597881600" r="1" fill="white"><title>2020-08-20: 1</title></circle>
	<circle cx="343.89" cy="351.95" data-y="0.93" data-x="1597968000" r="1" fill="white"><title>2020-08-21: 1</title></circle>
	<circle cx="345.69" cy="359.63" data-y="0.62" data-x="1598054400" r="1" fill="white"><title>2020-08-22: 1</title></circle>
	<circle cx="347.49" cy="359.63" data-y="0.62" data-x="1598140800" r="1" fill="white"><title>2020-08-23: 1</title></circle>
	<circle cx="349.29" cy="363.47" data-y="0.47" data-x="1598227200" r="1" fill="white"><title>2020-08-24: 0</title></circle>
	<circle cx="351.09" cy="363.47" data-y="0.47" data-x="1598313600" r="1" fill="white"><title>2020-08-25: 0</title></circle>
	<circle cx="352.89" cy="359.63" data-y="0.62" data-x="1598400000" r="1" fill="white"><title>2020-08-26: 1</title></circle>
	<circle cx="354.70" cy="359.63" data-y="0.62" data-x="1598486400" r="1" fill="white"><title>2020-08-27: 1</title></circle>
	<circle cx="356.50" cy="367.32" data-y="0.31" data-x="1598572800" r="1" fill="white"><title>2020-08-28: 0</title></circle>
	<circle cx="358.30" cy="359.63" data-y="0.62" data-x="1598659200" r="1" fill="white"><title>2020-08-29: 1</title></circle>
	<circle cx="360.10" cy="355.79" data-y="0.78" data-x="1598745600" r="1" fill="white"><title>2020-08-30: 1</title></circle>
	<circle cx="361.90" cy="351.95" data-y="0.93" data-x="1598832000" r="1" fill="white"><title>2020-08-31: 1</title></circle>
	<circle cx="363.70" cy="348.11" data-y="1.09" data-x="1598918400" r="1" fill="white"><title>2020-09-01: 1</title></circle>
	<circle cx="365.51" cy="351.95" data-y="0.93" data-x="1599004800" r="1" fill="white"><title>2020-09-02: 1</title></circle>
	<circle cx="367.31" cy="344.26" data-y="1.24" data-x="1599091200" r="1" fill="white"><title>2020-09-03: 1</title></circle>
	<circle cx="369.11" cy="340.42" data-y="1.40" data-x="1599177600" r="1" fill="white"><title>2020-09-04: 1</title></circle>
	<circle cx="370.91" cy="348.11" data-y="1.09" data-x="1599264000" r="1" fill="white"><title>2020-09-05: 1</title></circle>
	<circle cx="372.71" cy="351.95" data-y="0.93" data-x="1599350400" r="1" fill="white"><title>2020-09-06: 1</title></circle>
	<circle cx="374.51" cy="355.79" data-y="0.78" data-x="1599436800" r="1" fill="white"><title>2020-09-07: 1</title></circle>
	<circle cx="376.32" cy="359.63" data-y="0.62" data-x="1599523200" r="1" fill="white"><title>2020-09-08: 1</title></circle>
	<circle cx="378.12" cy="348.11" data-y="1.09" data-x="1599609600" r="1" fill="white"><title>2020-09-09: 1</title></circle>
	<circle cx="379.92" cy="348.11" data-y="1.09" data-x="1599696000" r="1" fill="white"><title>2020-09-10: 1</title></circle>
	<circle cx="381.72" cy="351.95" data-y="0.93" data-x="1599782400" r="1" fill="white"><title>2020-09-11: 1</title></circle>
	<circle cx="383.52" cy="351.95" data-y="0.93" data-x="1599868800" r="1" fill="white"><title>2020-09-12: 1</title></circle>
	<circle cx="385.32" cy="348.11" data-y="1.09" data-x="1599955200" r="1" fill="white"><title>2020-09-13: 1</title></circle>
	<circle cx="387.13" cy="348.11" data-y="1.09" data-x="1600041600" r="1" fill="white"><title>2020-09-14: 1</title></circle>
	<circle cx="388.93" cy="344.26" data-y="1.24" data-x="1600128000" r="1" fill="white"><title>2020-09-15: 1</title></circle>
	<circle cx="390.73" cy="351.95" data-y="0.93" data-x="1600214400" r="1" fill="white"><title>2020-09-16: 1</title></circle>
	<circle cx="392.53" cy="359.63" data-y="0.62" data-x="1600300800" r="1" fill="white"><title>2020-09-17: 1</title></circle>
	<circle cx="394.33" cy="359.63" data-y="0.62" data-x="1600387200" r="1" fill="white"><title>2020-09-18: 1</title></circle>
	<circle cx="396.13" cy="355.79" data-y="0.78" data-x="1600473600" r="1" fill="white"><title>2020-09-19: 1</title></circle>
	<circle cx="397.94" cy="359.63" data-y="0.62" data-x="1600560000" r="1" fill="white"><title>2020-09-20: 1</title></circle>
	<circle cx="399.74" cy="355.79" data-y="0.78" data-x="1600646400" r="1" fill="white"><title>2020-09-21: 1</title></circle>
	<circle cx="401.54" cy="351.95" data-y="0.93" data-x="1600732800" r="1" fill="white"><title>2020-09-22: 1</title></circle>
	<circle cx="403.34" cy="348.11" data-y="1.09" data-x="1600819200" r="1" fill="white"><title>2020-09-23: 1</title></circle>
	<circle cx="405.14" cy="336.58" data-y="1.55" data-x="1600905600" r="1" fill="white"><title>2020-09-24: 2</title></circle>
	<circle cx="406.94" cy="325.05" data-y="2.02" data-x="1600992000" r="1" fill="white"><title>2020-09-25: 2</title></circle>
	<circle cx="408.74" cy="317.37" data-y="2.33" data-x="1601078400" r="1" fill="white"><title>2020-09-26: 2</title></circle>
	<circle cx="410.55" cy="298.16" data-y="3.11" data-x="1601164800" r="1" fill="white"><title>2020-09-27: 3</title></circle>
	<circle cx="412.35" cy="282.79" data-y="3.73" data-x="1601251200" r="1" fill="white"><title>2020-09-28: 4</title></circle>
	<circle cx="414.15" cy="271.26" data-y="4.19" data-x="1601337600" r="1" fill="white"><title>2020-09-29: 4</title></circle>
	<circle cx="415.95" cy="259.74" data-y="4.66" data-x="1601424000" r="1" fill="white"><title>2020-09-30: 5</title></circle>
	<circle cx="417.75" cy="248.21" data-y="5.13" data-x="1601510400" r="1" fill="white"><title>2020-10-01: 5</title></circle>
	<circle cx="419.55" cy="225.16" data-y="6.06" data-x="1601596800" r="1" fill="white"><title>2020-10-02: 6</title></circle>
	<circle cx="421.36" cy="198.26" data-y="7.14" data-x="1601683200" r="1" fill="white"><title>2020-10-03: 7</title></circle>
	<circle cx="423.16" cy="179.05" data-y="7.92" data-x="1601769600" r="1" fill="white"><title>2020-10-04: 8</title></circle>
	<circle cx="424.96" cy="148.32" data-y="9.16" data-x="1601856000" r="1" fill="white"><title>2020-10-05: 9</title></circle>
	<circle cx="426.76" cy="94.53" data-y="11.34" data-x="1601942400" r="1" fill="white"><title>2020-10-06: 11</title></circle>
	<circle cx="428.56" cy="71.47" data-y="12.27" data-x="1602028800" r="1" fill="white"><title>2020-10-07: 12</title></circle>
	<circle cx="430.36" cy="52.26" data-y="13.05" data-x="1602115200" r="1" fill="white"><title>2020-10-08: 13</title></circle>
	<circle cx="432.17" cy="56.11" data-y="12.89" data-x="1602201600" r="1" fill="white"><title>2020-10-09: 13</title></circle>
	<circle cx="433.97" cy="63.79" data-y="12.58" data-x="1602288000" r="1" fill="white"><title>2020-10-10: 13</title></circle>
	<circle cx="435.77" cy="75.32" data-y="12.11" data-x="1602374400" r="1" fill="white"><title>2020-10-11: 12</title></circle>
	<circle cx="437.57" cy="86.84" data-y="11.65" data-x="1602460800" r="1" fill="white"><title>2020-10-12: 12</title></circle>
	<circle cx="439.37" cy="140.63" data-y="9.47" data-x="1602547200" r="1" fill="white"><title>2020-10-13: 9</title></circle>
	<circle cx="441.17" cy="152.16" data-y="9.01" data-x="1602633600" r="1" fill="white"><title>2020-10-14: 9</title></circle>
	<circle cx="442.98" cy="171.37" data-y="8.23" data-x="1602720000" r="1" fill="white"><title>2020-10-15: 8</title></circle>
	<circle cx="444.78" cy="132.95" data-y="9.78" data-x="1602806400" r="1" fill="white"><title>2020-10-16: 10</title></circle>
	<circle cx="446.58" cy="109.89" data-y="10.72" data-x="1602892800" r="1" fill="white"><title>2020-10-17: 11</title></circle>
	<circle cx="448.38" cy="63.79" data-y="12.58" data-x="1602979200" r="1" fill="white"><title>2020-10-18: 13</title></circle>
	<circle cx="450.18" cy="59.95" data-y="12.74" data-x="1603065600" r="1" fill="white"><title>2020-10-19: 13</title></circle>
	<circle cx="451.98" cy="33.05" data-y="13.82" data-x="1603152000" r="1" fill="white"><title>2020-10-20: 14</title></circle>
	<circle cx="453.79" cy="29.21" data-y="13.98" data-x="1603238400" r="1" fill="white"><title>2020-10-21: 14</title></circle>
	<circle cx="455.59" cy="21.53" data-y="14.29" data-x="1603324800" r="1" fill="white"><title>2020-10-22: 14</title></circle>
	<circle cx="457.39" cy="13.84" data-y="14.60" data-x="1603411200" r="1" fill="white"><title>2020-10-23: 15</title></circle>
	<circle cx="459.19" cy="10.00" data-y="14.75" data-x="1603497600" r="1" fill="white"><title>2020-10-24: 15</title></circle>
	<circle cx="460.99" cy="33.05" data-y="13.82" data-x="1603584000" r="1" fill="white"><title>2020-10-25: 14</title></circle>
</g>
<g data-series="recent-cases" class="data-series">
	<path d="M 460.99,33.05L 462.79,29.21L 464.60,79.16L 466.40,70.19L 468.20,52.26L 470.00,106.05" id="Recent cases" class="line" stroke-width="1" stroke-linecap="round" stroke-dasharray="4,6" stroke-dashoffset="4"><title>Recent cases</title></path>
	<circle cx="460.99" cy="33.05" data-y="13.82" data-x="1603584000" r="2.5" fill="white"><title>2020-10-25: 14</title></circle>
	<circle cx="462.79" cy="29.21" data-y="13.98" data-x="1603670400" r="2.5" fill="white"><title>2020-10-26: 14</title></circle>
	<circle cx="464.60" cy="79.16" data-y="11.96" data-x="1603756800" r="2.5" fill="white"><title>2020-10-27: 12</title></circle>
	<circle cx="466.40" cy="70.19" data-y="12.32" data-x="1603843200" r="2.5" fill="white"><title>2020-10-28: 12</title></circle>
	<circle cx="468.20" cy="52.26" data-y="13.05" data-x="1603929600" r="2.5" fill="white"><title>2020-10-29: 13</title></circle>
	<circle cx="470.00" cy="106.05" data-y="10.87" data-x="1604016000" r="2.5" fill="white"><title>2020-10-30: 11</title></circle>
</g>
</svg>
