<svg width="480" height="400" viewBox="0 0 480 400" xmlns="http://www.w3.org/2000/svg" style="overflow:display" preserveAspectRatio="xMinYMin meet" overflow="visible">
<defs>
	<style>
	.data-series path.line { fill-opacity: 0; stroke: black; }
	.data-series path.line.dotted { stroke-dasharray: 12 20 }
	.data-series:hover path.line, .data-series.on path.line { stroke-width: 1; }
	.data-series:hover circle, .data-series.on circle { display: inline; }
	.graph-grid { font-family: "Helvetica Neue",Helvetica,Arial,"Lucida Grande",sans-serif; }
	.graph-grid line { stroke: black; stroke-width: 1; stroke-linecap: round; }
	.graph-grid.graph-grid-x text { text-anchor: middle; dominant-baseline: hanging; transform: translateY(10px); }
	.graph-grid.graph-grid-y text { text-anchor: end; dominant-baseline: middle; transform: translateX(-10px); }
	</style>
</defs>
<g class="graph-grid graph-grid-y">
	<line x1="25.00" y1="375.00" x2="470.00" y2="375.00" data-left="25"></line>
	<text x="35" y="375" text-anchor="end">0</text>
	<text x="35" y="213.729762666667" text-anchor="end">20</text>
	<text x="35" y="52.4595253333334" text-anchor="end">40</text>
	<text style="text-anchor:middle;dominant-baseline:hanging;font-weight:bold;transform: translateY(192.5px) rotate(-90deg);"></text>
</g>
<g class="graph-grid graph-grid-x">
	<line class="tick" x1="57.80" y1="375.00" x2="57.80" y2="380.00"></line>
	<text x="57.8044871794872" y="375" text-anchor="middle">A</text>
	<line class="tick" x1="100.59" y1="375.00" x2="100.59" y2="380.00"></line>
	<text x="100.592948717949" y="375" text-anchor="middle">M</text>
	<line class="tick" x1="144.81" y1="375.00" x2="144.81" y2="380.00"></line>
	<text x="144.807692307692" y="375" text-anchor="middle">J</text>
	<line class="tick" x1="187.60" y1="375.00" x2="187.60" y2="380.00"></line>
	<text x="187.596153846154" y="375" text-anchor="middle">J</text>
	<line class="tick" x1="231.81" y1="375.00" x2="231.81" y2="380.00"></line>
	<text x="231.810897435897" y="375" text-anchor="middle">A</text>
	<line class="tick" x1="276.03" y1="375.00" x2="276.03" y2="380.00"></line>
	<text x="276.025641025641" y="375" text-anchor="middle">S</text>
	<line class="tick" x1="318.81" y1="375.00" x2="318.81" y2="380.00"></line>
	<text x="318.814102564103" y="375" text-anchor="middle">O</text>
	<line class="tick" x1="363.03" y1="375.00" x2="363.03" y2="380.00"></line>
	<text x="363.028846153846" y="375" text-anchor="middle">N</text>
	<line class="tick" x1="405.82" y1="375.00" x2="405.82" y2="380.00"></line>
	<text x="405.817307692308" y="375" text-anchor="middle">D</text>
	<line class="tick" x1="450.03" y1="375.00" x2="450.03" y2="380.00"></line>
	<text x="450.032051282051" y="375" text-anchor="middle">J</text>
	<text style="text-anchor:middle;dominant-baseline:hanging;font-weight:bold;transform: translateY(192.5px) rotate(-90deg);"></text>
</g>
<g data-series="widespread" class="data-series">
	<path d="M 25.00,318.56L 470.00,318.56" id="E07000139-level-0" class="line" stroke-width="1" stroke-linecap="round" stroke-dasharray="3,3" fill-opacity="0.3" opacity="0.3"><title>Widespread</title></path>
</g>
<g data-series="substantial" class="data-series">
	<path d="M 25.00,342.75L 470.00,342.75" id="E07000139-level-1" class="line" stroke-width="1" stroke-linecap="round" stroke-dasharray="3,3" fill-opacity="0.3" opacity="0.3"><title>Substantial</title></path>
</g>
<g data-series="moderate" class="data-series">
	<path d="M 25.00,366.94L 470.00,366.94" id="E07000139-level-2" class="line" stroke-width="1" stroke-linecap="round" stroke-dasharray="3,3" fill-opacity="0.3" opacity="0.3"><title>Moderate</title></path>
</g>
<g data-series="new-cases" class="data-series">
	<path d="M 25.00,369.89L 26.43,370.91L 27.85,371.59L 29.28,372.08L 30.71,373.05L 32.13,373.05L 33.56,374.03L 34.98,374.03L 36.41,373.05L 37.84,372.08L 39.26,371.11L 40.69,367.21L 42.12,364.29L 43.54,363.32L 44.97,358.45L 46.39,351.64L 47.82,346.77L 49.25,341.91L 50.67,338.99L 52.10,338.99L 53.53,334.12L 54.95,337.04L 56.38,337.04L 57.80,338.01L 59.23,338.01L 60.66,338.01L 62.08,339.96L 63.51,344.83L 64.94,344.83L 66.36,350.67L 67.79,353.59L 69.21,358.45L 70.64,364.29L 72.07,362.35L 73.49,362.35L 74.92,361.37L 76.35,360.40L 77.77,361.37L 79.20,360.40L 80.62,358.45L 82.05,362.35L 83.48,359.43L 84.90,361.37L 86.33,361.37L 87.76,360.40L 89.18,357.48L 90.61,359.43L 92.04,359.43L 93.46,356.51L 94.89,351.64L 96.31,354.56L 97.74,356.51L 99.17,360.40L 100.59,359.43L 102.02,358.45L 103.45,365.27L 104.87,369.16L 106.30,368.19L 107.72,367.21L 109.15,364.29L 110.58,359.43L 112.00,350.67L 113.43,347.75L 114.86,348.72L 116.28,348.72L 117.71,347.75L 119.13,350.67L 120.56,355.53L 121.99,359.43L 123.41,362.35L 124.84,362.35L 126.27,363.32L 127.69,360.40L 129.12,360.40L 130.54,361.37L 131.97,365.27L 133.40,362.35L 134.82,363.32L 136.25,363.32L 137.68,368.19L 139.10,369.16L 140.53,369.16L 141.96,371.11L 143.38,374.03L 144.81,374.03L 146.23,373.05L 147.66,372.08L 149.09,372.08L 150.51,370.13L 151.94,370.13L 153.37,370.13L 154.79,370.13L 156.22,368.19L 157.64,369.16L 159.07,369.16L 160.50,372.08L 161.92,372.08L 163.35,372.08L 164.78,372.08L 166.20,375.00L 167.63,375.00L 169.05,375.00L 170.48,375.00L 171.91,375.00L 173.33,374.03L 174.76,374.03L 176.19,374.03L 177.61,373.05L 179.04,373.05L 180.46,373.05L 181.89,373.05L 183.32,374.03L 184.74,374.03L 186.17,374.03L 187.60,375.00L 189.02,374.03L 190.45,369.16L 191.88,369.16L 193.30,369.16L 194.73,369.16L 196.15,369.16L 197.58,369.16L 199.01,370.13L 200.43,375.00L 201.86,374.03L 203.29,374.03L 204.71,373.05L 206.14,373.05L 207.56,373.05L 208.99,373.05L 210.42,372.08L 211.84,373.05L 213.27,372.08L 214.70,373.05L 216.12,373.05L 217.55,373.05L 218.97,373.05L 220.40,374.03L 221.83,374.03L 223.25,375.00L 224.68,374.03L 226.11,374.03L 227.53,374.03L 228.96,373.05L 230.38,373.05L 231.81,373.05L 233.24,373.05L 234.66,374.03L 236.09,374.03L 237.52,374.03L 238.94,374.03L 240.37,373.05L 241.79,373.05L 243.22,370.13L 244.65,370.13L 246.07,369.16L 247.50,369.16L 248.93,370.13L 250.35,370.13L 251.78,370.13L 253.21,373.05L 254.63,373.05L 256.06,373.05L 257.48,373.05L 258.91,373.05L 260.34,373.05L 261.76,372.08L 263.19,372.08L 264.62,370.13L 266.04,370.13L 267.47,369.16L 268.89,369.16L 270.32,369.16L 271.75,369.16L 273.17,366.24L 274.60,358.45L 276.03,356.51L 277.45,354.56L 278.88,350.67L 280.30,348.72L 281.73,341.91L 283.16,340.93L 284.58,347.75L 286.01,347.75L 287.44,348.72L 288.86,350.67L 290.29,348.72L 291.71,354.56L 293.14,357.48L 294.57,357.48L 295.99,356.51L 297.42,350.67L 298.85,349.69L 300.27,349.69L 301.70,347.75L 303.12,339.96L 304.55,338.01L 305.98,338.01L 307.40,340.93L 308.83,340.93L 310.26,340.93L 311.68,338.01L 313.11,338.01L 314.54,333.15L 315.96,326.33L 317.39,313.68L 318.81,312.71L 320.24,310.76L 321.67,303.95L 323.09,306.87L 324.52,302.00L 325.95,299.08L 327.37,302.00L 328.80,297.13L 330.22,292.27L 331.65,287.40L 333.08,279.61L 334.50,283.51L 335.93,283.51L 337.36,282.53L 338.78,280.59L 340.21,260.15L 341.63,253.33L 343.06,244.57L 344.49,234.84L 345.91,232.89L 347.34,234.84L 348.77,229.97L 350.19,234.84L 351.62,233.87L 353.04,226.08L 354.47,203.69L 355.90,188.12L 357.32,165.73L 358.75,156.00L 360.18,105.39L 361.60,95.65L 363.03,73.27L 364.46,75.21L 365.88,63.53L 367.31,71.32L 368.73,60.61L 370.16,68.40L 371.59,41.15L 373.01,46.99L 374.44,42.12L 375.87,21.68L 377.29,22.65L 378.72,26.55L 380.14,33.36L 381.57,54.77L 383.00,70.35L 384.42,87.87L 385.85,126.80L 387.28,124.85L 388.70,128.75L 390.13,143.35L 391.55,157.95L 392.98,156.97L 394.41,154.05L 395.83,146.27L 397.26,146.27L 398.69,140.43L 400.11,122.91L 401.54,113.17L 402.96,90.79L 404.39,79.11L 405.82,61.59L 407.24,63.53L 408.67,72.29L 410.10,86.89L 411.52,85.92L 412.95,98.57L 414.38,109.28L 415.80,120.96L 417.23,124.85L 418.65,125.83L 420.08,134.59L 421.51,133.61L 422.93,152.11L 424.36,151.13L 425.79,144.32L 427.21,143.35L 428.64,105.39L 430.06,95.65L 431.49,90.79L 432.92,53.80L 434.34,59.64L 435.77,83.97L 437.20,57.69L 438.62,66.45L 440.05,83.00L 441.47,29.47L 442.90,43.09L 444.33,35.31L 445.75,31.41L 447.18,27.52L 448.61,43.09L 450.03,10.00L 451.46,50.88L 452.88,50.88L 454.31,45.04L 455.74,30.44L 457.16,54.77L 458.59,62.56L 460.02,90.79L 461.44,91.76L 462.87,89.81" id="New cases" class="line" stroke-width="1" stroke-linecap="round"><title>New cases</title></path>
	<circle cx="25.00" cy="369.89" data-y="0.63" data-x="1583712000" r="1" fill="white"><title>2020-03-09: 1</title></circle>
	<circle cx="26.43" cy="370.91" data-y="0.51" data-x="1583798400" r="1" fill="white"><title>2020-03-10: 1</title></circle>
	<circle cx="27.85" cy="371.59" data-y="0.42" data-x="1583884800" r="1" fill="white"><title>2020-03-11: 0</title></circle>
	<circle cx="29.28" cy="372.08" data-y="0.36" data-x="1583971200" r="1" fill="white"><title>2020-03-12: 0</title></circle>
	<circle cx="30.71" cy="373.05" data-y="0.24" data-x="1584057600" r="1" fill="white"><title>2020-03-13: 0</title></circle>
	<circle cx="32.13" cy="373.05" data-y="0.24" data-x="1584144000" r="1" fill="white"><title>2020-03-14: 0</title></circle>
	<circle cx="33.56" cy="374.03" data-y="0.12" data-x="1584230400" r="1" fill="white"><title>2020-03-15: 0</title></circle>
	<circle cx="34.98" cy="374.03" data-y="0.12" data-x="1584316800" r="1" fill="white"><title>2020-03-16: 0</title></circle>
	<circle cx="36.41" cy="373.05" data-y="0.24" data-x="1584403200" r="1" fill="white"><title>2020-03-17: 0</title></circle>
	<circle cx="37.84" cy="372.08" data-y="0.36" data-x="1584489600" r="1" fill="white"><title>2020-03-18: 0</title></circle>
	<circle cx="39.26" cy="371.11" data-y="0.48" data-x="1584576000" r="1" fill="white"><title>2020-03-19: 0</title></circle>
	<circle cx="40.69" cy="367.21" data-y="0.97" data-x="1584662400" r="1" fill="white"><title>2020-03-20: 1</title></circle>
	<circle cx="42.12" cy="364.29" data-y="1.33" data-x="1584748800" r="1" fill="white"><title>2020-03-21: 1</title></circle>
	<circle cx="43.54" cy="363.32" data-y="1.45" data-x="1584835200" r="1" fill="white"><title>2020-03-22: 1</title></circle>
	<circle cx="44.97" cy="358.45" data-y="2.05" data-x="1584921600" r="1" fill="white"><title>2020-03-23: 2</title></circle>
	<circle cx="46.39" cy="351.64" data-y="2.90" data-x="1585008000" r="1" fill="white"><title>2020-03-24: 3</title></circle>
	<circle cx="47.82" cy="346.77" data-y="3.50" data-x="1585094400" r="1" fill="white"><title>2020-03-25: 4</title></circle>
	<circle cx="49.25" cy="341.91" data-y="4.10" data-x="1585180800" r="1" fill="white"><title>2020-03-26: 4</title></circle>
	<circle cx="50.67" cy="338.99" data-y="4.47" data-x="1585267200" r="1" fill="white"><title>2020-03-27: 4</title></circle>
	<circle cx="52.10" cy="338.99" data-y="4.47" data-x="1585353600" r="1" fill="white"><title>2020-03-28: 4</title></circle>
	<circle cx="53.53" cy="334.12" data-y="5.07" data-x="1585440000" r="1" fill="white"><title>2020-03-29: 5</title></circle>
	<circle cx="54.95" cy="337.04" data-y="4.71" data-x="1585526400" r="1" fill="white"><title>2020-03-30: 5</title></circle>
	<circle cx="56.38" cy="337.04" data-y="4.71" data-x="1585612800" r="1" fill="white"><title>2020-03-31: 5</title></circle>
	<circle cx="57.80" cy="338.01" data-y="4.59" data-x="1585699200" r="1" fill="white"><title>2020-04-01: 5</title></circle>
	<circle cx="59.23" cy="338.01" data-y="4.59" data-x="1585785600" r="1" fill="white"><title>2020-04-02: 5</title></circle>
	<circle cx="60.66" cy="338.01" data-y="4.59" data-x="1585872000" r="1" fill="white"><title>2020-04-03: 5</title></circle>
	<circle cx="62.08" cy="339.96" data-y="4.35" data-x="1585958400" r="1" fill="white"><title>2020-04-04: 4</title></circle>
	<circle cx="63.51" cy="344.83" data-y="3.74" data-x="1586044800" r="1" fill="white"><title>2020-04-05: 4</title></circle>
	<circle cx="64.94" cy="344.83" data-y="3.74" data-x="1586131200" r="1" fill="white"><title>2020-04-06: 4</title></circle>
	<circle cx="66.36" cy="350.67" data-y="3.02" data-x="1586217600" r="1" fill="white"><title>2020-04-07: 3</title></circle>
	<circle cx="67.79" cy="353.59" data-y="2.66" data-x="1586304000" r="1" fill="white"><title>2020-04-08: 3</title></circle>
	<circle cx="69.21" cy="358.45" data-y="2.05" data-x="1586390400" r="1" fill="white"><title>2020-04-09: 2</title></circle>
	<circle cx="70.64" cy="364.29" data-y="1.33" data-x="1586476800" r="1" fill="white"><title>2020-04-10: 1</title></circle>
	<circle cx="72.07" cy="362.35" data-y="1.57" data-x="1586563200" r="1" fill="white"><title>2020-04-11: 2</title></circle>
	<circle cx="73.49" cy="362.35" data-y="1.57" data-x="1586649600" r="1" fill="white"><title>2020-04-12: 2</title></circle>
	<circle cx="74.92" cy="361.37" data-y="1.69" data-x="1586736000" r="1" fill="white"><title>2020-04-13: 2</title></circle>
	<circle cx="76.35" cy="360.40" data-y="1.81" data-x="1586822400" r="1" fill="white"><title>2020-04-14: 2</title></circle>
	<circle cx="77.77" cy="361.37" data-y="1.69" data-x="1586908800" r="1" fill="white"><title>2020-04-15: 2</title></circle>
	<circle cx="79.20" cy="360.40" data-y="1.81" data-x="1586995200" r="1" fill="white"><title>2020-04-16: 2</title></circle>
	<circle cx="80.62" cy="358.45" data-y="2.05" data-x="1587081600" r="1" fill="white"><title>2020-04-17: 2</title></circle>
	<circle cx="82.05" cy="362.35" data-y="1.57" data-x="1587168000" r="1" fill="white"><title>2020-04-18: 2</title></circle>
	<circle cx="83.48" cy="359.43" data-y="1.93" data-x="1587254400" r="1" fill="white"><title>2020-04-19: 2</title></circle>
	<circle cx="84.90" cy="361.37" data-y="1.69" data-x="1587340800" r="1" fill="white"><title>2020-04-20: 2</title></circle>
	<circle cx="86.33" cy="361.37" data-y="1.69" data-x="1587427200" r="1" fill="white"><title>2020-04-21: 2</title></circle>
	<circle cx="87.76" cy="360.40" data-y="1.81" data-x="1587513600" r="1" fill="white"><title>2020-04-22: 2</title></circle>
	<circle cx="89.18" cy="357.48" data-y="2.17" data-x="1587600000" r="1" fill="white"><title>2020-04-23: 2</title></circle>
	<circle cx="90.61" cy="359.43" data-y="1.93" data-x="1587686400" r="1" fill="white"><title>2020-04-24: 2</title></circle>
	<circle cx="92.04" cy="359.43" data-y="1.93" data-x="1587772800" r="1" fill="white"><title>2020-04-25: 2</title></circle>
	<circle cx="93.46" cy="356.51" data-y="2.29" data-x="1587859200" r="1" fill="white"><title>2020-04-26: 2</title></circle>
	<circle cx="94.89" cy="351.64" data-y="2.90" data-x="1587945600" r="1" fill="white"><title>2020-04-27: 3</title></circle>
	<circle cx="96.31" cy="354.56" data-y="2.53" data-x="1588032000" r="1" fill="white"><title>2020-04-28: 3</title></circle>
	<circle cx="97.74" cy="356.51" data-y="2.29" data-x="1588118400" r="1" fill="white"><title>2020-04-29: 2</title></circle>
	<circle cx="99.17" cy="360.40" data-y="1.81" data-x="1588204800" r="1" fill="white"><title>2020-04-30: 2</title></circle>
	<circle cx="100.59" cy="359.43" data-y="1.93" data-x="1588291200" r="1" fill="white"><title>2020-05-01: 2</title></circle>
	<circle cx="102.02" cy="358.45" data-y="2.05" data-x="1588377600" r="1" fill="white"><title>2020-05-02: 2</title></circle>
	<circle cx="103.45" cy="365.27" data-y="1.21" data-x="1588464000" r="1" fill="white"><title>2020-05-03: 1</title></circle>
	<circle cx="104.87" cy="369.16" data-y="0.72" data-x="1588550400" r="1" fill="white"><title>2020-05-04: 1</title></circle>
	<circle cx="106.30" cy="368.19" data-y="0.84" data-x="1588636800" r="1" fill="white"><title>2020-05-05: 1</title></circle>
	<circle cx="107.72" cy="367.21" data-y="0.97" data-x="1588723200" r="1" fill="white"><title>2020-05-06: 1</title></circle>
	<circle cx="109.15" cy="364.29" data-y="1.33" data-x="1588809600" r="1" fill="white"><title>2020-05-07: 1</title></circle>
	<circle cx="110.58" cy="359.43" data-y="1.93" data-x="1588896000" r="1" fill="white"><title>2020-05-08: 2</title></circle>
	<circle cx="112.00" cy="350.67" data-y="3.02" data-x="1588982400" r="1" fill="white"><title>2020-05-09: 3</title></circle>
	<circle cx="113.43" cy="347.75" data-y="3.38" data-x="1589068800" r="1" fill="white"><title>2020-05-10: 3</title></circle>
	<circle cx="114.86" cy="348.72" data-y="3.26" data-x="1589155200" r="1" fill="white"><title>2020-05-11: 3</title></circle>
	<circle cx="116.28" cy="348.72" data-y="3.26" data-x="1589241600" r="1" fill="white"><title>2020-05-12: 3</title></circle>
	<circle cx="117.71" cy="347.75" data-y="3.38" data-x="1589328000" r="1" fill="white"><title>2020-05-13: 3</title></circle>
	<circle cx="119.13" cy="350.67" data-y="3.02" data-x="1589414400" r="1" fill="white"><title>2020-05-14: 3</title></circle>
	<circle cx="120.56" cy="355.53" data-y="2.41" data-x="1589500800" r="1" fill="white"><title>2020-05-15: 2</title></circle>
	<circle cx="121.99" cy="359.43" data-y="1.93" data-x="1589587200" r="1" fill="white"><title>2020-05-16: 2</title></circle>
	<circle cx="123.41" cy="362.35" data-y="1.57" data-x="1589673600" r="1" fill="white"><title>2020-05-17: 2</title></circle>
	<circle cx="124.84" cy="362.35" data-y="1.57" data-x="1589760000" r="1" fill="white"><title>2020-05-18: 2</title></circle>
	<circle cx="126.27" cy="363.32" data-y="1.45" data-x="1589846400" r="1" fill="white"><title>2020-05-19: 1</title></circle>
	<circle cx="127.69" cy="360.40" data-y="1.81" data-x="1589932800" r="1" fill="white"><title>2020-05-20: 2</title></circle>
	<circle cx="129.12" cy="360.40" data-y="1.81" data-x="1590019200" r="1" fill="white"><title>2020-05-21: 2</title></circle>
	<circle cx="130.54" cy="361.37" data-y="1.69" data-x="1590105600" r="1" fill="white"><title>2020-05-22: 2</title></circle>
	<circle cx="131.97" cy="365.27" data-y="1.21" data-x="1590192000" r="1" fill="white"><title>2020-05-23: 1</title></circle>
	<circle cx="133.40" cy="362.35" data-y="1.57" data-x="1590278400" r="1" fill="white"><title>2020-05-24: 2</title></circle>
	<circle cx="134.82" cy="363.32" data-y="1.45" data-x="1590364800" r="1" fill="white"><title>2020-05-25: 1</title></circle>
	<circle cx="136.25" cy="363.32" data-y="1.45" data-x="1590451200" r="1" fill="white"><title>2020-05-26: 1</title></circle>
	<circle cx="137.68" cy="368.19" data-y="0.84" data-x="1590537600" r="1" fill="white"><title>2020-05-27: 1</title></circle>
	<circle cx="139.10" cy="369.16" data-y="0.72" data-x="1590624000" r="1" fill="white"><title>2020-05-28: 1</title></circle>
	<circle cx="140.53" cy="369.16" data-y="0.72" data-x="1590710400" r="1" fill="white"><title>2020-05-29: 1</title></circle>
	<circle cx="141.96" cy="371.11" data-y="0.48" data-x="1590796800" r="1" fill="white"><title>2020-05-30: 0</title></circle>
	<circle cx="143.38" cy="374.03" data-y="0.12" data-x="1590883200" r="1" fill="white"><title>2020-05-31: 0</title></circle>
	<circle cx="144.81" cy="374.03" data-y="0.12" data-x="1590969600" r="1" fill="white"><title>2020-06-01: 0</title></circle>
	<circle cx="146.23" cy="373.05" data-y="0.24" data-x="1591056000" r="1" fill="white"><title>2020-06-02: 0</title></circle>
	<circle cx="147.66" cy="372.08" data-y="0.36" data-x="1591142400" r="1" fill="white"><title>2020-06-03: 0</title></circle>
	<circle cx="149.09" cy="372.08" data-y="0.36" data-x="1591228800" r="1" fill="white"><title>2020-06-04: 0</title></circle>
	<circle cx="150.51" cy="370.13" data-y="0.60" data-x="1591315200" r="1" fill="white"><title>2020-06-05: 1</title></circle>
	<circle cx="151.94" cy="370.13" data-y="0.60" data-x="1591401600" r="1" fill="white"><title>2020-06-06: 1</title></circle>
	<circle cx="153.37" cy="370.13" data-y="0.60" data-x="1591488000" r="1" fill="white"><title>2020-06-07: 1</title></circle>
	<circle cx="154.79" cy="370.13" data-y="0.60" data-x="1591574400" r="1" fill="white"><title>2020-06-08: 1</title></circle>
	<circle cx="156.22" cy="368.19" data-y="0.84" data-x="1591660800" r="1" fill="white"><title>2020-06-09: 1</title></circle>
	<circle cx="157.64" cy="369.16" data-y="0.72" data-x="1591747200" r="1" fill="white"><title>2020-06-10: 1</title></circle>
	<circle cx="159.07" cy="369.16" data-y="0.72" data-x="1591833600" r="1" fill="white"><title>2020-06-11: 1</title></circle>
	<circle cx="160.50" cy="372.08" data-y="0.36" data-x="1591920000" r="1" fill="white"><title>2020-06-12: 0</title></circle>
	<circle cx="161.92" cy="372.08" data-y="0.36" data-x="1592006400" r="1" fill="white"><title>2020-06-13: 0</title></circle>
	<circle cx="163.35" cy="372.08" data-y="0.36" data-x="1592092800" r="1" fill="white"><title>2020-06-14: 0</title></circle>
	<circle cx="164.78" cy="372.08" data-y="0.36" data-x="1592179200" r="1" fill="white"><title>2020-06-15: 0</title></circle>
	<circle cx="166.20" cy="375.00" data-y="0.00" data-x="1592265600" r="1" fill="white"><title>2020-06-16: 0</title></circle>
	<circle cx="167.63" cy="375.00" data-y="0.00" data-x="1592352000" r="1" fill="white"><title>2020-06-17: 0</title></circle>
	<circle cx="169.05" cy="375.00" data-y="0.00" data-x="1592438400" r="1" fill="white"><title>2020-06-18: 0</title></circle>
	<circle cx="170.48" cy="375.00" data-y="0.00" data-x="1592524800" r="1" fill="white"><title>2020-06-19: 0</title></circle>
	<circle cx="171.91" cy="375.00" data-y="0.00" data-x="1592611200" r="1" fill="white"><title>2020-06-20: 0</title></circle>
	<circle cx="173.33" cy="374.03" data-y="0.12" data-x="1592697600" r="1" fill="white"><title>2020-06-21: 0</title></circle>
	<circle cx="174.76" cy="374.03" data-y="0.12" data-x="1592784000" r="1" fill="white"><title>2020-06-22: 0</title></circle>
	<circle cx="176.19" cy="374.03" data-y="0.12" data-x="1592870400" r="1" fill="white"><title>2020-06-23: 0</title></circle>
	<circle cx="177.61" cy="373.05" data-y="0.24" data-x="1592956800" r="1" fill="white"><title>2020-06-24: 0</title></circle>
	<circle cx="179.04" cy="373.05" data-y="0.24" data-x="1593043200" r="1" fill="white"><title>2020-06-25: 0</title></circle>
	<circle cx="180.46" cy="373.05" data-y="0.24" data-x="1593129600" r="1" fill="white"><title>2020-06-26: 0</title></circle>
	<circle cx="181.89" cy="373.05" data-y="0.24" data-x="1593216000" r="1" fill="white"><title>2020-06-27: 0</title></circle>
	<circle cx="183.32" cy="374.03" data-y="0.12" data-x="1593302400" r="1" fill="white"><title>2020-06-28: 0</title></circle>
	<circle cx="184.74" cy="374.03" data-y="0.12" data-x="1593388800" r="1" fill="white"><title>2020-06-29: 0</title></circle>
	<circle cx="186.17" cy="374.03" data-y="0.12" data-x="1593475200" r="1" fill="white"><title>2020-06-30: 0</title></circle>
	<circle cx="187.60" cy="375.00" data-y="0.00" data-x="1593561600" r="1" fill="white"><title>2020-07-01: 0</title></circle>
	<circle cx="189.02" cy="374.03" data-y="0.12" data-x="1593648000" r="1" fill="white"><title>2020-07-02: 0</title></circle>
	<circle cx="190.45" cy="369.16" data-y="0.72" data-x="1593734400" r="1" fill="white"><title>2020-07-03: 1</title></circle>
	<circle cx="191.88" cy="369.16" data-y="0.72" data-x="1593820800" r="1" fill="white"><title>2020-07-04: 1</title></circle>
	<circle cx="193.30" cy="369.16" data-y="0.72" data-x="1593907200" r="1" fill="white"><title>2020-07-05: 1</title></circle>
	<circle cx="194.73" cy="369.16" data-y="0.72" data-x="1593993600" r="1" fill="white"><title>2020-07-06: 1</title></circle>
	<circle cx="196.15" cy="369.16" data-y="0.72" data-x="1594080000" r="1" fill="white"><title>2020-07-07: 1</title></circle>
	<circle cx="197.58" cy="369.16" data-y="0.72" data-x="1594166400" r="1" fill="white"><title>2020-07-08: 1</title></circle>
	<circle cx="199.01" cy="370.13" data-y="0.60" data-x="1594252800" r="1" fill="white"><title>2020-07-09: 1</title></circle>
	<circle cx="200.43" cy="375.00" data-y="0.00" data-x="1594339200" r="1" fill="white"><title>2020-07-10: 0</title></circle>
	<circle cx="201.86" cy="374.03" data-y="0.12" data-x="1594425600" r="1" fill="white"><title>2020-07-11: 0</title></circle>
	<circle cx="203.29" cy="374.03" data-y="0.12" data-x="1594512000" r="1" fill="white"><title>2020-07-12: 0</title></circle>
	<circle cx="204.71" cy="373.05" data-y="0.24" data-x="1594598400" r="1" fill="white"><title>2020-07-13: 0</title></circle>
	<circle cx="206.14" cy="373.05" data-y="0.24" data-x="1594684800" r="1" fill="white"><title>2020-07-14: 0</title></circle>
	<circle cx="207.56" cy="373.05" data-y="0.24" data-x="1594771200" r="1" fill="white"><title>2020-07-15: 0</title></circle>
	<circle cx="208.99" cy="373.05" data-y="0.24" data-x="1594857600" r="1" fill="white"><title>2020-07-16: 0</title></circle>
	<circle cx="210.42" cy="372.08" data-y="0.36" data-x="1594944000" r="1" fill="white"><title>2020-07-17: 0</title></circle>
	<circle cx="211.84" cy="373.05" data-y="0.24" data-x="1595030400" r="1" fill="white"><title>2020-07-18: 0</title></circle>
	<circle cx="213.27" cy="372.08" data-y="0.36" data-x="1595116800" r="1" fill="white"><title>2020-07-19: 0</title></circle>
	<circle cx="214.70" cy="373.05" data-y="0.24" data-x="1595203200" r="1" fill="white"><title>2020-07-20: 0</title></circle>
	<circle cx="216.12" cy="373.05" data-y="0.24" data-x="1595289600" r="1" fill="white"><title>2020-07-21: 0</title></circle>
	<circle cx="217.55" cy="373.05" data-y="0.24" data-x="1595376000" r="1" fill="white"><title>2020-07-22: 0</title></circle>
	<circle cx="218.97" cy="373.05" data-y="0.24" data-x="1595462400" r="1" fill="white"><title>2020-07-23: 0</title></circle>
	<circle cx="220.40" cy="374.03" data-y="0.12" data-x="1595548800" r="1" fill="white"><title>2020-07-24: 0</title></circle>
	<circle cx="221.83" cy="374.03" data-y="0.12" data-x="1595635200" r="1" fill="white"><title>2020-07-25: 0</title></circle>
	<circle cx="223.25" cy="375.00" data-y="0.00" data-x="1595721600" r="1" fill="white"><title>2020-07-26: 0</title></circle>
	<circle cx="224.68" cy="374.03" data-y="0.12" data-x="1595808000" r="1" fill="white"><title>2020-07-27: 0</title></circle>
	<circle cx="226.11" cy="374.03" data-y="0.12" data-x="1595894400" r="1" fill="white"><title>2020-07-28: 0</title></circle>
	<circle cx="227.53" cy="374.03" data-y="0.12" data-x="1595980800" r="1" fill="white"><title>2020-07-29: 0</title></circle>
	<circle cx="228.96" cy="373.05" data-y="0.24" data-x="1596067200" r="1" fill="white"><title>2020-07-30: 0</title></circle>
	<circle cx="230.38" cy="373.05" data-y="0.24" data-x="1596153600" r="1" fill="white"><title>2020-07-31: 0</title></circle>
	<circle cx="231.81" cy="373.05" data-y="0.24" data-x="1596240000" r="1" fill="white"><title>2020-08-01: 0</title></circle>
	<circle cx="233.24" cy="373.05" data-y="0.24" data-x="1596326400" r="1" fill="white"><title>2020-08-02: 0</title></circle>
	<circle cx="234.66" cy="374.03" data-y="0.12" data-x="1596412800" r="1" fill="white"><title>2020-08-03: 0</title></circle>
	<circle cx="236.09" cy="374.03" data-y="0.12" data-x="1596499200" r="1" fill="white"><title>2020-08-04: 0</title></circle>
	<circle cx="237.52" cy="374.03" data-y="0.12" data-x="1596585600" r="1" fill="white"><title>2020-08-05: 0</title></circle>
	<circle cx="238.94" cy="374.03" data-y="0.12" data-x="1596672000" r="1" fill="white"><title>2020-08-06: 0</title></circle>
	<circle cx="240.37" cy="373.05" data-y="0.24" data-x="1596758400" r="1" fill="white"><title>2020-08-07: 0</title></circle>
	<circle cx="241.79" cy="373.05" data-y="0.24" data-x="1596844800" r="1" fill="white"><title>2020-08-08: 0</title></circle>
	<circle cx="243.22" cy="370.13" data-y="0.60" data-x="1596931200" r="1" fill="white"><title>2020-08-09: 1</title></circle>
	<circle cx="244.65" cy="370.13" data-y="0.60" data-x="1597017600" r="1" fill="white"><title>2020-08-10: 1</title></circle>
	<circle cx="246.07" cy="369.16" data-y="0.72" data-x="1597104000" r="1" fill="white"><title>2020-08-11: 1</title></circle>
	<circle cx="247.50" cy="369.16" data-y="0.72" data-x="1597190400" r="1" fill="white"><title>2020-08-12: 1</title></circle>
	<circle cx="248.93" cy="370.13" data-y="0.60" data-x="1597276800" r="1" fill="white"><title>2020-08-13: 1</title></circle>
	<circle cx="250.35" cy="370.13" data-y="0.60" data-x="1597363200" r="1" fill="white"><title>2020-08-14: 1</title></circle>
	<circle cx="251.78" cy="370.13" data-y="0.60" data-x="1597449600" r="1" fill="white"><title>2020-08-15: 1</title></circle>
	<circle cx="253.21" cy="373.05" data-y="0.24" data-x="1597536000" r="1" fill="white"><title>2020-08-16: 0</title></circle>
	<circle cx="254.63" cy="373.05" data-y="0.24" data-x="1597622400" r="1" fill="white"><title>2020-08-17: 0</title></circle>
	<circle cx="256.06" cy="373.05" data-y="0.24" data-x="1597708800" r="1" fill="white"><title>2020-08-18: 0</title></circle>
	<circle cx="257.48" cy="373.05" data-y="0.24" data-x="1597795200" r="1" fill="white"><title>2020-08-19: 0</title></circle>
	<circle cx="258.91" cy="373.05" data-y="0.24" data-x="1597881600" r="1" fill="white"><title>2020-08-20: 0</title></circle>
	<circle cx="260.34" cy="373.05" data-y="0.24" data-x="1597968000" r="1" fill="white"><title>2020-08-21: 0</title></circle>
	<circle cx="261.76" cy="372.08" data-y="0.36" data-x="1598054400" r="1" fill="white"><title>2020-08-22: 0</title></circle>
	<circle cx="263.19" cy="372.08" data-y="0.36" data-x="1598140800" r="1" fill="white"><title>2020-08-23: 0</title></circle>
	<circle cx="264.62" cy="370.13" data-y="0.60" data-x="1598227200" r="1" fill="white"><title>2020-08-24: 1</title></circle>
	<circle cx="266.04" cy="370.13" data-y="0.60" data-x="1598313600" r="1" fill="white"><title>2020-08-25: 1</title></circle>
	<circle cx="267.47" cy="369.16" data-y="0.72" data-x="1598400000" r="1" fill="white"><title>2020-08-26: 1</title></circle>
	<circle cx="268.89" cy="369.16" data-y="0.72" data-x="1598486400" r="1" fill="white"><title>2020-08-27: 1</title></circle>
	<circle cx="270.32" cy="369.16" data-y="0.72" data-x="1598572800" r="1" fill="white"><title>2020-08-28: 1</title></circle>
	<circle cx="271.75" cy="369.16" data-y="0.72" data-x="1598659200" r="1" fill="white"><title>2020-08-29: 1</title></circle>
	<circle cx="273.17" cy="366.24" data-y="1.09" data-x="1598745600" r="1" fill="white"><title>2020-08-30: 1</title></circle>
	<circle cx="274.60" cy="358.45" data-y="2.05" data-x="1598832000" r="1" fill="white"><title>2020-08-31: 2</title></circle>
	<circle cx="276.03" cy="356.51" data-y="2.29" data-x="1598918400" r="1" fill="white"><title>2020-09-01: 2</title></circle>
	<circle cx="277.45" cy="354.56" data-y="2.53" data-x="1599004800" r="1" fill="white"><title>2020-09-02: 3</title></circle>
	<circle cx="278.88" cy="350.67" data-y="3.02" data-x="1599091200" r="1" fill="white"><title>2020-09-03: 3</title></circle>
	<circle cx="280.30" cy="348.72" data-y="3.26" data-x="1599177600" r="1" fill="white"><title>2020-09-04: 3</title></circle>
	<circle cx="281.73" cy="341.91" data-y="4.10" data-x="1599264000" r="1" fill="white"><title>2020-09-05: 4</title></circle>
	<circle cx="283.16" cy="340.93" data-y="4.22" data-x="1599350400" r="1" fill="white"><title>2020-09-06: 4</title></circle>
	<circle cx="284.58" cy="347.75" data-y="3.38" data-x="1599436800" r="1" fill="white"><title>2020-09-07: 3</title></circle>
	<circle cx="286.01" cy="347.75" data-y="3.38" data-x="1599523200" r="1" fill="white"><title>2020-09-08: 3</title></circle>
	<circle cx="287.44" cy="348.72" data-y="3.26" data-x="1599609600" r="1" fill="white"><title>2020-09-09: 3</title></circle>
	<circle cx="288.86" cy="350.67" data-y="3.02" data-x="1599696000" r="1" fill="white"><title>2020-09-10: 3</title></circle>
	<circle cx="290.29" cy="348.72" data-y="3.26" data-x="1599782400" r="1" fill="white"><title>2020-09-11: 3</title></circle>
	<circle cx="291.71" cy="354.56" data-y="2.53" data-x="1599868800" r="1" fill="white"><title>2020-09-12: 3</title></circle>
	<circle cx="293.14" cy="357.48" data-y="2.17" data-x="1599955200" r="1" fill="white"><title>2020-09-13: 2</title></circle>
	<circle cx="294.57" cy="357.48" data-y="2.17" data-x="1600041600" r="1" fill="white"><title>2020-09-14: 2</title></circle>
	<circle cx="295.99" cy="356.51" data-y="2.29" data-x="1600128000" r="1" fill="white"><title>2020-09-15: 2</title></circle>
	<circle cx="297.42" cy="350.67" data-y="3.02" data-x="1600214400" r="1" fill="white"><title>2020-09-16: 3</title></circle>
	<circle cx="298.85" cy="349.69" data-y="3.14" data-x="1600300800" r="1" fill="white"><title>2020-09-17: 3</title></circle>
	<circle cx="300.27" cy="349.69" data-y="3.14" data-x="1600387200" r="1" fill="white"><title>2020-09-18: 3</title></circle>
	<circle cx="301.70" cy="347.75" data-y="3.38" data-x="1600473600" r="1" fill="white"><title>2020-09-19: 3</title></circle>
	<circle cx="303.12" cy="339.96" data-y="4.35" data-x="1600560000" r="1" fill="white"><title>2020-09-20: 4</title></circle>
	<circle cx="304.55" cy="338.01" data-y="4.59" data-x="1600646400" r="1" fill="white"><title>2020-09-21: 5</title></circle>
	<circle cx="305.98" cy="338.01" data-y="4.59" data-x="1600732800" r="1" fill="white"><title>2020-09-22: 5</title></circle>
	<circle cx="307.40" cy="340.93" data-y="4.22" data-x="1600819200" r="1" fill="white"><title>2020-09-23: 4</title></circle>
	<circle cx="308.83" cy="340.93" data-y="4.22" data-x="1600905600" r="1" fill="white"><title>2020-09-24: 4</title></circle>
	<circle cx="310.26" cy="340.93" data-y="4.22" data-x="1600992000" r="1" fill="white"><title>2020-09-25: 4</title></circle>
	<circle cx="311.68" cy="338.01" data-y="4.59" data-x="1601078400" r="1" fill="white"><title>2020-09-26: 5</title></circle>
	<circle cx="313.11" cy="338.01" data-y="4.59" data-x="1601164800" r="1" fill="white"><title>2020-09-27: 5</title></circle>
	<circle cx="314.54" cy="333.15" data-y="5.19" data-x="1601251200" r="1" fill="white"><title>2020-09-28: 5</title></circle>
	<circle cx="315.96" cy="326.33" data-y="6.04" data-x="1601337600" r="1" fill="white"><title>2020-09-29: 6</title></circle>
	<circle cx="317.39" cy="313.68" data-y="7.60" data-x="1601424000" r="1" fill="white"><title>2020-09-30: 8</title></circle>
	<circle cx="318.81" cy="312.71" data-y="7.73" data-x="1601510400" r="1" fill="white"><title>2020-10-01: 8</title></circle>
	<circle cx="320.24" cy="310.76" data-y="7.97" data-x="1601596800" r="1" fill="white"><title>2020-10-02: 8</title></circle>
	<circle cx="321.67" cy="303.95" data-y="8.81" data-x="1601683200" r="1" fill="white"><title>2020-10-03: 9</title></circle>
	<circle cx="323.09" cy="306.87" data-y="8.45" data-x="1601769600" r="1" fill="white"><title>2020-10-04: 8</title></circle>
	<circle cx="324.52" cy="302.00" data-y="9.05" data-x="1601856000" r="1" fill="white"><title>2020-10-05: 9</title></circle>
	<circle cx="325.95" cy="299.08" data-y="9.42" data-x="1601942400" r="1" fill="white"><title>2020-10-06: 9</title></circle>
	<circle cx="327.37" cy="302.00" data-y="9.05" data-x="1602028800" r="1" fill="white"><title>2020-10-07: 9</title></circle>
	<circle cx="328.80" cy="297.13" data-y="9.66" data-x="1602115200" r="1" fill="white"><title>2020-10-08: 10</title></circle>
	<circle cx="330.22" cy="292.27" data-y="10.26" data-x="1602201600" r="1" fill="white"><title>2020-10-09: 10</title></circle>
	<circle cx="331.65" cy="287.40" data-y="10.86" data-x="1602288000" r="1" fill="white"><title>2020-10-10: 11</title></circle>
	<circle cx="333.08" cy="279.61" data-y="11.83" data-x="1602374400" r="1" fill="white"><title>2020-10-11: 12</title></circle>
	<circle cx="334.50" cy="283.51" data-y="11.35" data-x="1602460800" r="1" fill="white"><title>2020-10-12: 11</title></circle>
	<circle cx="335.93" cy="283.51" data-y="11.35" data-x="1602547200" r="1" fill="white"><title>2020-10-13: 11</title></circle>
	<circle cx="337.36" cy="282.53" data-y="11.47" data-x="1602633600" r="1" fill="white"><title>2020-10-14: 11</title></circle>
	<circle cx="338.78" cy="280.59" data-y="11.71" data-x="1602720000" r="1" fill="white"><title>2020-10-15: 12</title></circle>
	<circle cx="340.21" cy="260.15" data-y="14.24" data-x="1602806400" r="1" fill="white"><title>2020-10-16: 14</title></circle>
	<circle cx="341.63" cy="253.33" data-y="15.09" data-x="1602892800" r="1" fill="white"><title>2020-10-17: 15</title></circle>
	<circle cx="343.06" cy="244.57" data-y="16.17" data-x="1602979200" r="1" fill="white"><title>2020-10-18: 16</title></circle>
	<circle cx="344.49" cy="234.84" data-y="17.38" data-x="1603065600" r="1" fill="white"><title>2020-10-19: 17</title></circle>
	<circle cx="345.91" cy="232.89" data-y="17.62" data-x="1603152000" r="1" fill="white"><title>2020-10-20: 18</title></circle>
	<circle cx="347.34" cy="234.84" data-y="17.38" data-x="1603238400" r="1" fill="white"><title>2020-10-21: 17</title></circle>
	<circle cx="348.77" cy="229.97" data-y="17.99" data-x="1603324800" r="1" fill="white"><title>2020-10-22: 18</title></circle>
	<circle cx="350.19" cy="234.84" data-y="17.38" data-x="1603411200" r="1" fill="white"><title>2020-10-23: 17</title></circle>
	<circle cx="351.62" cy="233.87" data-y="17.50" data-x="1603497600" r="1" fill="white"><title>2020-10-24: 18</title></circle>
	<circle cx="353.04" cy="226.08" data-y="18.47" data-x="1603584000" r="1" fill="white"><title>2020-10-25: 18</title></circle>
	<circle cx="354.47" cy="203.69" data-y="21.24" data-x="1603670400" r="1" fill="white"><title>2020-10-26: 21</title></circle>
	<circle cx="355.90" cy="188.12" data-y="23.18" data-x="1603756800" r="1" fill="white"><title>2020-10-27: 23</title></circle>
	<circle cx="357.32" cy="165.73" data-y="25.95" data-x="1603843200" r="1" fill="white"><title>2020-10-28: 26</title></circle>
	<circle cx="358.75" cy="156.00" data-y="27.16" data-x="1603929600" r="1" fill="white"><title>2020-10-29: 27</title></circle>
	<circle cx="360.18" cy="105.39" data-y="33.44" data-x="1604016000" r="1" fill="white"><title>2020-10-30: 33</title></circle>
	<circle cx="361.60" cy="95.65" data-y="34.64" data-x="1604102400" r="1" fill="white"><title>2020-10-31: 35</title></circle>
	<circle cx="363.03" cy="73.27" data-y="37.42" data-x="1604188800" r="1" fill="white"><title>2020-11-01: 37</title></circle>
	<circle cx="364.46" cy="75.21" data-y="37.18" data-x="1604275200" r="1" fill="white"><title>2020-11-02: 37</title></circle>
	<circle cx="365.88" cy="63.53" data-y="38.63" data-x="1604361600" r="1" fill="white"><title>2020-11-03: 39</title></circle>
	<circle cx="367.31" cy="71.32" data-y="37.66" data-x="1604448000" r="1" fill="white"><title>2020-11-04: 38</title></circle>
	<circle cx="368.73" cy="60.61" data-y="38.99" data-x="1604534400" r="1" fill="white"><title>2020-11-05: 39</title></circle>
	<circle cx="370.16" cy="68.40" data-y="38.02" data-x="1604620800" r="1" fill="white"><title>2020-11-06: 38</title></circle>
	<circle cx="371.59" cy="41.15" data-y="41.40" data-x="1604707200" r="1" fill="white"><title>2020-11-07: 41</title></circle>
	<circle cx="373.01" cy="46.99" data-y="40.68" data-x="1604793600" r="1" fill="white"><title>2020-11-08: 41</title></circle>
	<circle cx="374.44" cy="42.12" data-y="41.28" data-x="1604880000" r="1" fill="white"><title>2020-11-09: 41</title></circle>
	<circle cx="375.87" cy="21.68" data-y="43.82" data-x="1604966400" r="1" fill="white"><title>2020-11-10: 44</title></circle>
	<circle cx="377.29" cy="22.65" data-y="43.70" data-x="1605052800" r="1" fill="white"><title>2020-11-11: 44</title></circle>
	<circle cx="378.72" cy="26.55" data-y="43.21" data-x="1605139200" r="1" fill="white"><title>2020-11-12: 43</title></circle>
	<circle cx="380.14" cy="33.36" data-y="42.37" data-x="1605225600" r="1" fill="white"><title>2020-11-13: 42</title></circle>
	<circle cx="381.57" cy="54.77" data-y="39.71" data-x="1605312000" r="1" fill="white"><title>2020-11-14: 40</title></circle>
	<circle cx="383.00" cy="70.35" data-y="37.78" data-x="1605398400" r="1" fill="white"><title>2020-11-15: 38</title></circle>
	<circle cx="384.42" cy="87.87" data-y="35.61" data-x="1605484800" r="1" fill="white"><title>2020-11-16: 36</title></circle>
	<circle cx="385.85" cy="126.80" data-y="30.78" data-x="1605571200" r="1" fill="white"><title>2020-11-17: 31</title></circle>
	<circle cx="387.28" cy="124.85" data-y="31.02" data-x="1605657600" r="1" fill="white"><title>2020-11-18: 31</title></circle>
	<circle cx="388.70" cy="128.75" data-y="30.54" data-x="1605744000" r="1" fill="white"><title>2020-11-19: 31</title></circle>
	<circle cx="390.13" cy="143.35" data-y="28.73" data-x="1605830400" r="1" fill="white"><title>2020-11-20: 29</title></circle>
	<circle cx="391.55" cy="157.95" data-y="26.92" data-x="1605916800" r="1" fill="white"><title>2020-11-21: 27</title></circle>
	<circle cx="392.98" cy="156.97" data-y="27.04" data-x="1606003200" r="1" fill="white"><title>2020-11-22: 27</title></circle>
	<circle cx="394.41" cy="154.05" data-y="27.40" data-x="1606089600" r="1" fill="white"><title>2020-11-23: 27</title></circle>
	<circle cx="395.83" cy="146.27" data-y="28.37" data-x="1606176000" r="1" fill="white"><title>2020-11-24: 28</title></circle>
	<circle cx="397.26" cy="146.27" data-y="28.37" data-x="1606262400" r="1" fill="white"><title>2020-11-25: 28</title></circle>
	<circle cx="398.69" cy="140.43" data-y="29.09" data-x="1606348800" r="1" fill="white"><title>2020-11-26: 29</title></circle>
	<circle cx="400.11" cy="122.91" data-y="31.26" data-x="1606435200" r="1" fill="white"><title>2020-11-27: 31</title></circle>
	<circle cx="401.54" cy="113.17" data-y="32.47" data-x="1606521600" r="1" fill="white"><title>2020-11-28: 32</title></circle>
	<circle cx="402.96" cy="90.79" data-y="35.25" data-x="1606608000" r="1" fill="white"><title>2020-11-29: 35</title></circle>
	<circle cx="404.39" cy="79.11" data-y="36.70" data-x="1606694400" r="1" fill="white"><title>2020-11-30: 37</title></circle>
	<circle cx="405.82" cy="61.59" data-y="38.87" data-x="1606780800" r="1" fill="white"><title>2020-12-01: 39</title></circle>
	<circle cx="407.24" cy="63.53" data-y="38.63" data-x="1606867200" r="1" fill="white"><title>2020-12-02: 39</title></circle>
	<circle cx="408.67" cy="72.29" data-y="37.54" data-x="1606953600" r="1" fill="white"><title>2020-12-03: 38</title></circle>
	<circle cx="410.10" cy="86.89" data-y="35.73" data-x="1607040000" r="1" fill="white"><title>2020-12-04: 36</title></circle>
	<circle cx="411.52" cy="85.92" data-y="35.85" data-x="1607126400" r="1" fill="white"><title>2020-12-05: 36</title></circle>
	<circle cx="412.95" cy="98.57" data-y="34.28" data-x="1607212800" r="1" fill="white"><title>2020-12-06: 34</title></circle>
	<circle cx="414.38" cy="109.28" data-y="32.95" data-x="1607299200" r="1" fill="white"><title>2020-12-07: 33</title></circle>
	<circle cx="415.80" cy="120.96" data-y="31.50" data-x="1607385600" r="1" fill="white"><title>2020-12-08: 32</title></circle>
	<circle cx="417.23" cy="124.85" data-y="31.02" data-x="1607472000" r="1" fill="white"><title>2020-12-09: 31</title></circle>
	<circle cx="418.65" cy="125.83" data-y="30.90" data-x="1607558400" r="1" fill="white"><title>2020-12-10: 31</title></circle>
	<circle cx="420.08" cy="134.59" data-y="29.81" data-x="1607644800" r="1" fill="white"><title>2020-12-11: 30</title></circle>
	<circle cx="421.51" cy="133.61" data-y="29.94" data-x="1607731200" r="1" fill="white"><title>2020-12-12: 30</title></circle>
	<circle cx="422.93" cy="152.11" data-y="27.64" data-x="1607817600" r="1" fill="white"><title>2020-12-13: 28</title></circle>
	<circle cx="424.36" cy="151.13" data-y="27.76" data-x="1607904000" r="1" fill="white"><title>2020-12-14: 28</title></circle>
	<circle cx="425.79" cy="144.32" data-y="28.61" data-x="1607990400" r="1" fill="white"><title>2020-12-15: 29</title></circle>
	<circle cx="427.21" cy="143.35" data-y="28.73" data-x="1608076800" r="1" fill="white"><title>2020-12-16: 29</title></circle>
	<circle cx="428.64" cy="105.39" data-y="33.44" data-x="1608163200" r="1" fill="white"><title>2020-12-17: 33</title></circle>
	<circle cx="430.06" cy="95.65" data-y="34.64" data-x="1608249600" r="1" fill="white"><title>2020-12-18: 35</title></circle>
	<circle cx="431.49" cy="90.79" data-y="35.25" data-x="1608336000" r="1" fill="white"><title>2020-12-19: 35</title></circle>
	<circle cx="432.92" cy="53.80" data-y="39.83" data-x="1608422400" r="1" fill="white"><title>2020-12-20: 40</title></circle>
	<circle cx="434.34" cy="59.64" data-y="39.11" data-x="1608508800" r="1" fill="white"><title>2020-12-21: 39</title></circle>
	<circle cx="435.77" cy="83.97" data-y="36.09" data-x="1608595200" r="1" fill="white"><title>2020-12-22: 36</title></circle>
	<circle cx="437.20" cy="57.69" data-y="39.35" data-x="1608681600" r="1" fill="white"><title>2020-12-23: 39</title></circle>
	<circle cx="438.62" cy="66.45" data-y="38.26" data-x="1608768000" r="1" fill="white"><title>2020-12-24: 38</title></circle>
	<circle cx="440.05" cy="83.00" data-y="36.21" data-x="1608854400" r="1" fill="white"><title>2020-12-25: 36</title></circle>
	<circle cx="441.47" cy="29.47" data-y="42.85" data-x="1608940800" r="1" fill="white"><title>2020-12-26: 43</title></circle>
	<circle cx="442.90" cy="43.09" data-y="41.16" data-x="1609027200" r="1" fill="white"><title>2020-12-27: 41</title></circle>
	<circle cx="444.33" cy="35.31" data-y="42.13" data-x="1609113600" r="1" fill="white"><title>2020-12-28: 42</title></circle>
	<circle cx="445.75" cy="31.41" data-y="42.61" data-x="1609200000" r="1" fill="white"><title>2020-12-29: 43</title></circle>
	<circle cx="447.18" cy="27.52" data-y="43.09" data-x="1609286400" r="1" fill="white"><title>2020-12-30: 43</title></circle>
	<circle cx="448.61" cy="43.09" data-y="41.16" data-x="1609372800" r="1" fill="white"><title>2020-12-31: 41</title></circle>
	<circle cx="450.03" cy="10.00" data-y="45.27" data-x="1609459200" r="1" fill="white"><title>2021-01-01: 45</title></circle>
	<circle cx="451.46" cy="50.88" data-y="40.20" data-x="1609545600" r="1" fill="white"><title>2021-01-02: 40</title></circle>
	<circle cx="452.88" cy="50.88" data-y="40.20" data-x="1609632000" r="1" fill="white"><title>2021-01-03: 40</title></circle>
	<circle cx="454.31" cy="45.04" data-y="40.92" data-x="1609718400" r="1" fill="white"><title>2021-01-04: 41</title></circle>
	<circle cx="455.74" cy="30.44" data-y="42.73" data-x="1609804800" r="1" fill="white"><title>2021-01-05: 43</title></circle>
	<circle cx="457.16" cy="54.77" data-y="39.71" data-x="1609891200" r="1" fill="white"><title>2021-01-06: 40</title></circle>
	<circle cx="458.59" cy="62.56" data-y="38.75" data-x="1609977600" r="1" fill="white"><title>2021-01-07: 39</title></circle>
	<circle cx="460.02" cy="90.79" data-y="35.25" data-x="1610064000" r="1" fill="white"><title>2021-01-08: 35</title></circle>
	<circle cx="461.44" cy="91.76" data-y="35.13" data-x="1610150400" r="1" fill="white"><title>2021-01-09: 35</title></circle>
	<circle cx="462.87" cy="89.81" data-y="35.37" data-x="1610236800" r="1" fill="white"><title>2021-01-10: 35</title></circle>
</g>
<g data-series="recent-cases" class="data-series">
	<path d="M 462.87,89.81L 464.29,101.49L 465.72,132.64L 467.15,127.45L 468.57,120.18L 470.00,128.02" id="Recent cases" class="line" stroke-width="1" stroke-linecap="round" stroke-dasharray="4,6" stroke-dashoffset="4"><title>Recent cases</title></path>
	<circle cx="462.87" cy="89.81" data-y="35.37" data-x="1610236800" r="2.5" fill="white"><title>2021-01-10: 35</title></circle>
	<circle cx="464.29" cy="101.49" data-y="33.92" data-x="1610323200" r="2.5" fill="white"><title>2021-01-11: 34</title></circle>
	<circle cx="465.72" cy="132.64" data-y="30.06" data-x="1610409600" r="2.5" fill="white"><title>2021-01-12: 30</title></circle>
	<circle cx="467.15" cy="127.45" data-y="30.70" data-x="1610496000" r="2.5" fill="white"><title>2021-01-13: 31</title></circle>
	<circle cx="468.57" cy="120.18" data-y="31.60" data-x="1610582400" r="2.5" fill="white"><title>2021-01-14: 32</title></circle>
	<circle cx="470.00" cy="128.02" data-y="30.63" data-x="1610668800" r="2.5" fill="white"><title>2021-01-15: 31</title></circle>
</g>
</svg>
