<svg width="480" height="400" viewBox="0 0 480 400" xmlns="http://www.w3.org/2000/svg" style="overflow:display" preserveAspectRatio="xMinYMin meet" overflow="visible">
<defs>
	<style>
	.data-series path.line { fill-opacity: 0; stroke: black; }
	.data-series path.line.dotted { stroke-dasharray: 12 20 }
	.data-series:hover path.line, .data-series.on path.line { stroke-width: 1; }
	.data-series:hover circle, .data-series.on circle { display: inline; }
	.graph-grid { font-family: "Helvetica Neue",Helvetica,Arial,"Lucida Grande",sans-serif; }
	.graph-grid line { stroke: black; stroke-width: 1; stroke-linecap: round; }
	.graph-grid.graph-grid-x text { text-anchor: middle; dominant-baseline: hanging; transform: translateY(10px); }
	.graph-grid.graph-grid-y text { text-anchor: end; dominant-baseline: middle; transform: translateX(-10px); }
	</style>
</defs>
<g class="graph-grid graph-grid-y">
	<line x1="25.00" y1="375.00" x2="470.00" y2="375.00" data-left="25"></line>
	<text x="35" y="375" text-anchor="end">0</text>
	<text x="35" y="260.030161616162" text-anchor="end">20</text>
	<text x="35" y="145.060323232323" text-anchor="end">40</text>
	<text x="35" y="30.0904848484848" text-anchor="end">60</text>
	<text style="text-anchor:middle;dominant-baseline:hanging;font-weight:bold;transform: translateY(192.5px) rotate(-90deg);"></text>
</g>
<g class="graph-grid graph-grid-x">
	<line class="tick" x1="59.81" y1="375.00" x2="59.81" y2="380.00"></line>
	<text x="59.812925170068" y="375" text-anchor="middle">A</text>
	<line class="tick" x1="105.22" y1="375.00" x2="105.22" y2="380.00"></line>
	<text x="105.221088435374" y="375" text-anchor="middle">M</text>
	<line class="tick" x1="152.14" y1="375.00" x2="152.14" y2="380.00"></line>
	<text x="152.142857142857" y="375" text-anchor="middle">J</text>
	<line class="tick" x1="197.55" y1="375.00" x2="197.55" y2="380.00"></line>
	<text x="197.551020408163" y="375" text-anchor="middle">J</text>
	<line class="tick" x1="244.47" y1="375.00" x2="244.47" y2="380.00"></line>
	<text x="244.472789115646" y="375" text-anchor="middle">A</text>
	<line class="tick" x1="291.39" y1="375.00" x2="291.39" y2="380.00"></line>
	<text x="291.394557823129" y="375" text-anchor="middle">S</text>
	<line class="tick" x1="336.80" y1="375.00" x2="336.80" y2="380.00"></line>
	<text x="336.802721088435" y="375" text-anchor="middle">O</text>
	<line class="tick" x1="383.72" y1="375.00" x2="383.72" y2="380.00"></line>
	<text x="383.724489795918" y="375" text-anchor="middle">N</text>
	<line class="tick" x1="429.13" y1="375.00" x2="429.13" y2="380.00"></line>
	<text x="429.132653061225" y="375" text-anchor="middle">D</text>
	<text style="text-anchor:middle;dominant-baseline:hanging;font-weight:bold;transform: translateY(192.5px) rotate(-90deg);"></text>
</g>
<g data-series="widespread" class="data-series">
	<path d="M 25.00,334.76L 470.00,334.76" id="E07000212-level-0" class="line" stroke-width="1" stroke-linecap="round" stroke-dasharray="3,3" fill-opacity="0.3" opacity="0.3"><title>Widespread</title></path>
</g>
<g data-series="substantial" class="data-series">
	<path d="M 25.00,352.01L 470.00,352.01" id="E07000212-level-1" class="line" stroke-width="1" stroke-linecap="round" stroke-dasharray="3,3" fill-opacity="0.3" opacity="0.3"><title>Substantial</title></path>
</g>
<g data-series="moderate" class="data-series">
	<path d="M 25.00,369.25L 470.00,369.25" id="E07000212-level-2" class="line" stroke-width="1" stroke-linecap="round" stroke-dasharray="3,3" fill-opacity="0.3" opacity="0.3"><title>Moderate</title></path>
</g>
<g data-series="new-cases" class="data-series">
	<path d="M 25.00,370.16L 26.51,371.13L 28.03,370.70L 29.54,370.39L 31.05,370.39L 32.57,366.70L 34.08,363.94L 35.60,364.86L 37.11,363.94L 38.62,363.94L 40.14,363.02L 41.65,363.02L 43.16,366.70L 44.68,368.55L 46.19,363.94L 47.70,359.33L 49.22,356.57L 50.73,355.64L 52.24,349.19L 53.76,348.27L 55.27,341.82L 56.79,344.58L 58.30,347.35L 59.81,350.11L 61.33,351.96L 62.84,354.72L 64.35,350.11L 65.87,351.04L 67.38,351.04L 68.89,346.43L 70.41,341.82L 71.92,336.29L 73.44,338.13L 74.95,337.21L 76.46,337.21L 77.98,332.60L 79.49,331.68L 81.00,332.60L 82.52,335.37L 84.03,334.44L 85.54,334.44L 87.06,337.21L 88.57,334.44L 90.09,329.84L 91.60,330.76L 93.11,328.91L 94.63,329.84L 96.14,335.37L 97.65,337.21L 99.17,343.66L 100.68,352.88L 102.19,348.27L 103.71,352.88L 105.22,351.04L 106.73,351.96L 108.25,349.19L 109.76,350.11L 111.28,353.80L 112.79,360.25L 114.30,357.49L 115.82,360.25L 117.33,352.88L 118.84,354.72L 120.36,356.57L 121.87,353.80L 123.38,352.88L 124.90,355.64L 126.41,355.64L 127.93,360.25L 129.44,362.10L 130.95,362.10L 132.47,364.86L 133.98,364.86L 135.49,365.78L 137.01,367.63L 138.52,369.47L 140.03,363.94L 141.55,360.25L 143.06,355.64L 144.57,357.49L 146.09,357.49L 147.60,357.49L 149.12,356.57L 150.63,363.02L 152.14,364.86L 153.66,369.47L 155.17,369.47L 156.68,369.47L 158.20,369.47L 159.71,370.39L 161.22,369.47L 162.74,368.55L 164.25,368.55L 165.77,368.55L 167.28,367.63L 168.79,365.78L 170.31,365.78L 171.82,366.70L 173.33,370.39L 174.85,369.47L 176.36,370.39L 177.87,369.47L 179.39,370.39L 180.90,369.47L 182.41,369.47L 183.93,369.47L 185.44,368.55L 186.96,368.55L 188.47,370.39L 189.98,371.31L 191.50,372.23L 193.01,372.23L 194.52,372.23L 196.04,373.16L 197.55,373.16L 199.06,372.23L 200.58,371.31L 202.09,372.23L 203.61,369.47L 205.12,368.55L 206.63,369.47L 208.15,369.47L 209.66,370.39L 211.17,371.31L 212.69,371.31L 214.20,374.08L 215.71,375.00L 217.23,374.08L 218.74,374.08L 220.26,374.08L 221.77,372.23L 223.28,371.31L 224.80,371.31L 226.31,371.31L 227.82,371.31L 229.34,371.31L 230.85,371.31L 232.36,371.31L 233.88,372.23L 235.39,372.23L 236.90,371.31L 238.42,370.39L 239.93,369.47L 241.45,369.47L 242.96,370.39L 244.47,370.39L 245.99,369.47L 247.50,370.39L 249.01,371.31L 250.53,372.23L 252.04,372.23L 253.55,372.23L 255.07,372.23L 256.58,372.23L 258.10,369.47L 259.61,368.55L 261.12,368.55L 262.64,367.63L 264.15,368.55L 265.66,367.63L 267.18,368.55L 268.69,367.63L 270.20,369.47L 271.72,367.63L 273.23,368.55L 274.74,367.63L 276.26,368.55L 277.77,367.63L 279.29,369.47L 280.80,368.55L 282.31,369.47L 283.83,369.47L 285.34,369.47L 286.85,367.63L 288.37,366.70L 289.88,367.63L 291.39,363.02L 292.91,362.10L 294.42,361.17L 295.94,358.41L 297.45,358.41L 298.96,356.57L 300.48,355.64L 301.99,355.64L 303.50,357.49L 305.02,351.04L 306.53,351.96L 308.04,351.04L 309.56,349.19L 311.07,350.11L 312.59,351.04L 314.10,351.04L 315.61,353.80L 317.13,351.04L 318.64,349.19L 320.15,350.11L 321.67,350.11L 323.18,351.96L 324.69,350.11L 326.21,352.88L 327.72,351.96L 329.23,350.11L 330.75,347.35L 332.26,338.13L 333.78,332.60L 335.29,332.60L 336.80,323.38L 338.32,320.62L 339.83,309.56L 341.34,301.26L 342.86,301.26L 344.37,302.18L 345.88,295.73L 347.40,299.42L 348.91,292.05L 350.43,294.81L 351.94,294.81L 353.45,291.12L 354.97,288.36L 356.48,286.52L 357.99,281.91L 359.51,283.75L 361.02,278.22L 362.53,269.92L 364.05,258.86L 365.56,243.19L 367.07,240.43L 368.59,242.27L 370.10,218.31L 371.62,221.07L 373.13,228.45L 374.64,236.74L 376.16,251.49L 377.67,253.33L 379.18,245.96L 380.70,269.92L 382.21,253.33L 383.72,255.18L 385.24,243.19L 386.75,233.06L 388.27,227.53L 389.78,215.54L 391.29,199.87L 392.81,203.56L 394.32,179.60L 395.83,181.44L 397.35,175.91L 398.86,178.67L 400.37,178.67L 401.89,178.67L 403.40,164.85L 404.91,185.13L 406.43,187.89L 407.94,198.95L 409.46,195.27L 410.97,210.93L 412.48,221.99L 414.00,248.72L 415.51,255.18L 417.02,256.10L 418.54,245.96L 420.05,242.27L 421.56,221.07L 423.08,214.62L 424.59,199.87L 426.11,167.61L 427.62,145.49L 429.13,134.43L 430.65,136.28L 432.16,157.47L 433.67,152.87L 435.19,162.08L 436.70,178.67L 438.21,197.11L 439.73,205.40L 441.24,195.27L 442.76,173.14L 444.27,159.32L 445.78,113.23L 447.30,90.19L 448.81,67.15L 450.32,49.63L 451.84,46.87L 453.35,36.73L 454.86,10.00L 456.38,13.69L 457.89,13.69L 459.40,10.92L 460.92,34.89L 462.43,50.56" id="New cases" class="line" stroke-width="1" stroke-linecap="round"><title>New cases</title></path>
	<circle cx="25.00" cy="370.16" data-y="0.84" data-x="1583712000" r="1" fill="white"><title>2020-03-09: 1</title></circle>
	<circle cx="26.51" cy="371.13" data-y="0.67" data-x="1583798400" r="1" fill="white"><title>2020-03-10: 1</title></circle>
	<circle cx="28.03" cy="370.70" data-y="0.75" data-x="1583884800" r="1" fill="white"><title>2020-03-11: 1</title></circle>
	<circle cx="29.54" cy="370.39" data-y="0.80" data-x="1583971200" r="1" fill="white"><title>2020-03-12: 1</title></circle>
	<circle cx="31.05" cy="370.39" data-y="0.80" data-x="1584057600" r="1" fill="white"><title>2020-03-13: 1</title></circle>
	<circle cx="32.57" cy="366.70" data-y="1.44" data-x="1584144000" r="1" fill="white"><title>2020-03-14: 1</title></circle>
	<circle cx="34.08" cy="363.94" data-y="1.92" data-x="1584230400" r="1" fill="white"><title>2020-03-15: 2</title></circle>
	<circle cx="35.60" cy="364.86" data-y="1.76" data-x="1584316800" r="1" fill="white"><title>2020-03-16: 2</title></circle>
	<circle cx="37.11" cy="363.94" data-y="1.92" data-x="1584403200" r="1" fill="white"><title>2020-03-17: 2</title></circle>
	<circle cx="38.62" cy="363.94" data-y="1.92" data-x="1584489600" r="1" fill="white"><title>2020-03-18: 2</title></circle>
	<circle cx="40.14" cy="363.02" data-y="2.08" data-x="1584576000" r="1" fill="white"><title>2020-03-19: 2</title></circle>
	<circle cx="41.65" cy="363.02" data-y="2.08" data-x="1584662400" r="1" fill="white"><title>2020-03-20: 2</title></circle>
	<circle cx="43.16" cy="366.70" data-y="1.44" data-x="1584748800" r="1" fill="white"><title>2020-03-21: 1</title></circle>
	<circle cx="44.68" cy="368.55" data-y="1.12" data-x="1584835200" r="1" fill="white"><title>2020-03-22: 1</title></circle>
	<circle cx="46.19" cy="363.94" data-y="1.92" data-x="1584921600" r="1" fill="white"><title>2020-03-23: 2</title></circle>
	<circle cx="47.70" cy="359.33" data-y="2.73" data-x="1585008000" r="1" fill="white"><title>2020-03-24: 3</title></circle>
	<circle cx="49.22" cy="356.57" data-y="3.21" data-x="1585094400" r="1" fill="white"><title>2020-03-25: 3</title></circle>
	<circle cx="50.73" cy="355.64" data-y="3.37" data-x="1585180800" r="1" fill="white"><title>2020-03-26: 3</title></circle>
	<circle cx="52.24" cy="349.19" data-y="4.49" data-x="1585267200" r="1" fill="white"><title>2020-03-27: 4</title></circle>
	<circle cx="53.76" cy="348.27" data-y="4.65" data-x="1585353600" r="1" fill="white"><title>2020-03-28: 5</title></circle>
	<circle cx="55.27" cy="341.82" data-y="5.77" data-x="1585440000" r="1" fill="white"><title>2020-03-29: 6</title></circle>
	<circle cx="56.79" cy="344.58" data-y="5.29" data-x="1585526400" r="1" fill="white"><title>2020-03-30: 5</title></circle>
	<circle cx="58.30" cy="347.35" data-y="4.81" data-x="1585612800" r="1" fill="white"><title>2020-03-31: 5</title></circle>
	<circle cx="59.81" cy="350.11" data-y="4.33" data-x="1585699200" r="1" fill="white"><title>2020-04-01: 4</title></circle>
	<circle cx="61.33" cy="351.96" data-y="4.01" data-x="1585785600" r="1" fill="white"><title>2020-04-02: 4</title></circle>
	<circle cx="62.84" cy="354.72" data-y="3.53" data-x="1585872000" r="1" fill="white"><title>2020-04-03: 4</title></circle>
	<circle cx="64.35" cy="350.11" data-y="4.33" data-x="1585958400" r="1" fill="white"><title>2020-04-04: 4</title></circle>
	<circle cx="65.87" cy="351.04" data-y="4.17" data-x="1586044800" r="1" fill="white"><title>2020-04-05: 4</title></circle>
	<circle cx="67.38" cy="351.04" data-y="4.17" data-x="1586131200" r="1" fill="white"><title>2020-04-06: 4</title></circle>
	<circle cx="68.89" cy="346.43" data-y="4.97" data-x="1586217600" r="1" fill="white"><title>2020-04-07: 5</title></circle>
	<circle cx="70.41" cy="341.82" data-y="5.77" data-x="1586304000" r="1" fill="white"><title>2020-04-08: 6</title></circle>
	<circle cx="71.92" cy="336.29" data-y="6.73" data-x="1586390400" r="1" fill="white"><title>2020-04-09: 7</title></circle>
	<circle cx="73.44" cy="338.13" data-y="6.41" data-x="1586476800" r="1" fill="white"><title>2020-04-10: 6</title></circle>
	<circle cx="74.95" cy="337.21" data-y="6.57" data-x="1586563200" r="1" fill="white"><title>2020-04-11: 7</title></circle>
	<circle cx="76.46" cy="337.21" data-y="6.57" data-x="1586649600" r="1" fill="white"><title>2020-04-12: 7</title></circle>
	<circle cx="77.98" cy="332.60" data-y="7.38" data-x="1586736000" r="1" fill="white"><title>2020-04-13: 7</title></circle>
	<circle cx="79.49" cy="331.68" data-y="7.54" data-x="1586822400" r="1" fill="white"><title>2020-04-14: 8</title></circle>
	<circle cx="81.00" cy="332.60" data-y="7.38" data-x="1586908800" r="1" fill="white"><title>2020-04-15: 7</title></circle>
	<circle cx="82.52" cy="335.37" data-y="6.89" data-x="1586995200" r="1" fill="white"><title>2020-04-16: 7</title></circle>
	<circle cx="84.03" cy="334.44" data-y="7.05" data-x="1587081600" r="1" fill="white"><title>2020-04-17: 7</title></circle>
	<circle cx="85.54" cy="334.44" data-y="7.05" data-x="1587168000" r="1" fill="white"><title>2020-04-18: 7</title></circle>
	<circle cx="87.06" cy="337.21" data-y="6.57" data-x="1587254400" r="1" fill="white"><title>2020-04-19: 7</title></circle>
	<circle cx="88.57" cy="334.44" data-y="7.05" data-x="1587340800" r="1" fill="white"><title>2020-04-20: 7</title></circle>
	<circle cx="90.09" cy="329.84" data-y="7.86" data-x="1587427200" r="1" fill="white"><title>2020-04-21: 8</title></circle>
	<circle cx="91.60" cy="330.76" data-y="7.70" data-x="1587513600" r="1" fill="white"><title>2020-04-22: 8</title></circle>
	<circle cx="93.11" cy="328.91" data-y="8.02" data-x="1587600000" r="1" fill="white"><title>2020-04-23: 8</title></circle>
	<circle cx="94.63" cy="329.84" data-y="7.86" data-x="1587686400" r="1" fill="white"><title>2020-04-24: 8</title></circle>
	<circle cx="96.14" cy="335.37" data-y="6.89" data-x="1587772800" r="1" fill="white"><title>2020-04-25: 7</title></circle>
	<circle cx="97.65" cy="337.21" data-y="6.57" data-x="1587859200" r="1" fill="white"><title>2020-04-26: 7</title></circle>
	<circle cx="99.17" cy="343.66" data-y="5.45" data-x="1587945600" r="1" fill="white"><title>2020-04-27: 5</title></circle>
	<circle cx="100.68" cy="352.88" data-y="3.85" data-x="1588032000" r="1" fill="white"><title>2020-04-28: 4</title></circle>
	<circle cx="102.19" cy="348.27" data-y="4.65" data-x="1588118400" r="1" fill="white"><title>2020-04-29: 5</title></circle>
	<circle cx="103.71" cy="352.88" data-y="3.85" data-x="1588204800" r="1" fill="white"><title>2020-04-30: 4</title></circle>
	<circle cx="105.22" cy="351.04" data-y="4.17" data-x="1588291200" r="1" fill="white"><title>2020-05-01: 4</title></circle>
	<circle cx="106.73" cy="351.96" data-y="4.01" data-x="1588377600" r="1" fill="white"><title>2020-05-02: 4</title></circle>
	<circle cx="108.25" cy="349.19" data-y="4.49" data-x="1588464000" r="1" fill="white"><title>2020-05-03: 4</title></circle>
	<circle cx="109.76" cy="350.11" data-y="4.33" data-x="1588550400" r="1" fill="white"><title>2020-05-04: 4</title></circle>
	<circle cx="111.28" cy="353.80" data-y="3.69" data-x="1588636800" r="1" fill="white"><title>2020-05-05: 4</title></circle>
	<circle cx="112.79" cy="360.25" data-y="2.57" data-x="1588723200" r="1" fill="white"><title>2020-05-06: 3</title></circle>
	<circle cx="114.30" cy="357.49" data-y="3.05" data-x="1588809600" r="1" fill="white"><title>2020-05-07: 3</title></circle>
	<circle cx="115.82" cy="360.25" data-y="2.57" data-x="1588896000" r="1" fill="white"><title>2020-05-08: 3</title></circle>
	<circle cx="117.33" cy="352.88" data-y="3.85" data-x="1588982400" r="1" fill="white"><title>2020-05-09: 4</title></circle>
	<circle cx="118.84" cy="354.72" data-y="3.53" data-x="1589068800" r="1" fill="white"><title>2020-05-10: 4</title></circle>
	<circle cx="120.36" cy="356.57" data-y="3.21" data-x="1589155200" r="1" fill="white"><title>2020-05-11: 3</title></circle>
	<circle cx="121.87" cy="353.80" data-y="3.69" data-x="1589241600" r="1" fill="white"><title>2020-05-12: 4</title></circle>
	<circle cx="123.38" cy="352.88" data-y="3.85" data-x="1589328000" r="1" fill="white"><title>2020-05-13: 4</title></circle>
	<circle cx="124.90" cy="355.64" data-y="3.37" data-x="1589414400" r="1" fill="white"><title>2020-05-14: 3</title></circle>
	<circle cx="126.41" cy="355.64" data-y="3.37" data-x="1589500800" r="1" fill="white"><title>2020-05-15: 3</title></circle>
	<circle cx="127.93" cy="360.25" data-y="2.57" data-x="1589587200" r="1" fill="white"><title>2020-05-16: 3</title></circle>
	<circle cx="129.44" cy="362.10" data-y="2.24" data-x="1589673600" r="1" fill="white"><title>2020-05-17: 2</title></circle>
	<circle cx="130.95" cy="362.10" data-y="2.24" data-x="1589760000" r="1" fill="white"><title>2020-05-18: 2</title></circle>
	<circle cx="132.47" cy="364.86" data-y="1.76" data-x="1589846400" r="1" fill="white"><title>2020-05-19: 2</title></circle>
	<circle cx="133.98" cy="364.86" data-y="1.76" data-x="1589932800" r="1" fill="white"><title>2020-05-20: 2</title></circle>
	<circle cx="135.49" cy="365.78" data-y="1.60" data-x="1590019200" r="1" fill="white"><title>2020-05-21: 2</title></circle>
	<circle cx="137.01" cy="367.63" data-y="1.28" data-x="1590105600" r="1" fill="white"><title>2020-05-22: 1</title></circle>
	<circle cx="138.52" cy="369.47" data-y="0.96" data-x="1590192000" r="1" fill="white"><title>2020-05-23: 1</title></circle>
	<circle cx="140.03" cy="363.94" data-y="1.92" data-x="1590278400" r="1" fill="white"><title>2020-05-24: 2</title></circle>
	<circle cx="141.55" cy="360.25" data-y="2.57" data-x="1590364800" r="1" fill="white"><title>2020-05-25: 3</title></circle>
	<circle cx="143.06" cy="355.64" data-y="3.37" data-x="1590451200" r="1" fill="white"><title>2020-05-26: 3</title></circle>
	<circle cx="144.57" cy="357.49" data-y="3.05" data-x="1590537600" r="1" fill="white"><title>2020-05-27: 3</title></circle>
	<circle cx="146.09" cy="357.49" data-y="3.05" data-x="1590624000" r="1" fill="white"><title>2020-05-28: 3</title></circle>
	<circle cx="147.60" cy="357.49" data-y="3.05" data-x="1590710400" r="1" fill="white"><title>2020-05-29: 3</title></circle>
	<circle cx="149.12" cy="356.57" data-y="3.21" data-x="1590796800" r="1" fill="white"><title>2020-05-30: 3</title></circle>
	<circle cx="150.63" cy="363.02" data-y="2.08" data-x="1590883200" r="1" fill="white"><title>2020-05-31: 2</title></circle>
	<circle cx="152.14" cy="364.86" data-y="1.76" data-x="1590969600" r="1" fill="white"><title>2020-06-01: 2</title></circle>
	<circle cx="153.66" cy="369.47" data-y="0.96" data-x="1591056000" r="1" fill="white"><title>2020-06-02: 1</title></circle>
	<circle cx="155.17" cy="369.47" data-y="0.96" data-x="1591142400" r="1" fill="white"><title>2020-06-03: 1</title></circle>
	<circle cx="156.68" cy="369.47" data-y="0.96" data-x="1591228800" r="1" fill="white"><title>2020-06-04: 1</title></circle>
	<circle cx="158.20" cy="369.47" data-y="0.96" data-x="1591315200" r="1" fill="white"><title>2020-06-05: 1</title></circle>
	<circle cx="159.71" cy="370.39" data-y="0.80" data-x="1591401600" r="1" fill="white"><title>2020-06-06: 1</title></circle>
	<circle cx="161.22" cy="369.47" data-y="0.96" data-x="1591488000" r="1" fill="white"><title>2020-06-07: 1</title></circle>
	<circle cx="162.74" cy="368.55" data-y="1.12" data-x="1591574400" r="1" fill="white"><title>2020-06-08: 1</title></circle>
	<circle cx="164.25" cy="368.55" data-y="1.12" data-x="1591660800" r="1" fill="white"><title>2020-06-09: 1</title></circle>
	<circle cx="165.77" cy="368.55" data-y="1.12" data-x="1591747200" r="1" fill="white"><title>2020-06-10: 1</title></circle>
	<circle cx="167.28" cy="367.63" data-y="1.28" data-x="1591833600" r="1" fill="white"><title>2020-06-11: 1</title></circle>
	<circle cx="168.79" cy="365.78" data-y="1.60" data-x="1591920000" r="1" fill="white"><title>2020-06-12: 2</title></circle>
	<circle cx="170.31" cy="365.78" data-y="1.60" data-x="1592006400" r="1" fill="white"><title>2020-06-13: 2</title></circle>
	<circle cx="171.82" cy="366.70" data-y="1.44" data-x="1592092800" r="1" fill="white"><title>2020-06-14: 1</title></circle>
	<circle cx="173.33" cy="370.39" data-y="0.80" data-x="1592179200" r="1" fill="white"><title>2020-06-15: 1</title></circle>
	<circle cx="174.85" cy="369.47" data-y="0.96" data-x="1592265600" r="1" fill="white"><title>2020-06-16: 1</title></circle>
	<circle cx="176.36" cy="370.39" data-y="0.80" data-x="1592352000" r="1" fill="white"><title>2020-06-17: 1</title></circle>
	<circle cx="177.87" cy="369.47" data-y="0.96" data-x="1592438400" r="1" fill="white"><title>2020-06-18: 1</title></circle>
	<circle cx="179.39" cy="370.39" data-y="0.80" data-x="1592524800" r="1" fill="white"><title>2020-06-19: 1</title></circle>
	<circle cx="180.90" cy="369.47" data-y="0.96" data-x="1592611200" r="1" fill="white"><title>2020-06-20: 1</title></circle>
	<circle cx="182.41" cy="369.47" data-y="0.96" data-x="1592697600" r="1" fill="white"><title>2020-06-21: 1</title></circle>
	<circle cx="183.93" cy="369.47" data-y="0.96" data-x="1592784000" r="1" fill="white"><title>2020-06-22: 1</title></circle>
	<circle cx="185.44" cy="368.55" data-y="1.12" data-x="1592870400" r="1" fill="white"><title>2020-06-23: 1</title></circle>
	<circle cx="186.96" cy="368.55" data-y="1.12" data-x="1592956800" r="1" fill="white"><title>2020-06-24: 1</title></circle>
	<circle cx="188.47" cy="370.39" data-y="0.80" data-x="1593043200" r="1" fill="white"><title>2020-06-25: 1</title></circle>
	<circle cx="189.98" cy="371.31" data-y="0.64" data-x="1593129600" r="1" fill="white"><title>2020-06-26: 1</title></circle>
	<circle cx="191.50" cy="372.23" data-y="0.48" data-x="1593216000" r="1" fill="white"><title>2020-06-27: 0</title></circle>
	<circle cx="193.01" cy="372.23" data-y="0.48" data-x="1593302400" r="1" fill="white"><title>2020-06-28: 0</title></circle>
	<circle cx="194.52" cy="372.23" data-y="0.48" data-x="1593388800" r="1" fill="white"><title>2020-06-29: 0</title></circle>
	<circle cx="196.04" cy="373.16" data-y="0.32" data-x="1593475200" r="1" fill="white"><title>2020-06-30: 0</title></circle>
	<circle cx="197.55" cy="373.16" data-y="0.32" data-x="1593561600" r="1" fill="white"><title>2020-07-01: 0</title></circle>
	<circle cx="199.06" cy="372.23" data-y="0.48" data-x="1593648000" r="1" fill="white"><title>2020-07-02: 0</title></circle>
	<circle cx="200.58" cy="371.31" data-y="0.64" data-x="1593734400" r="1" fill="white"><title>2020-07-03: 1</title></circle>
	<circle cx="202.09" cy="372.23" data-y="0.48" data-x="1593820800" r="1" fill="white"><title>2020-07-04: 0</title></circle>
	<circle cx="203.61" cy="369.47" data-y="0.96" data-x="1593907200" r="1" fill="white"><title>2020-07-05: 1</title></circle>
	<circle cx="205.12" cy="368.55" data-y="1.12" data-x="1593993600" r="1" fill="white"><title>2020-07-06: 1</title></circle>
	<circle cx="206.63" cy="369.47" data-y="0.96" data-x="1594080000" r="1" fill="white"><title>2020-07-07: 1</title></circle>
	<circle cx="208.15" cy="369.47" data-y="0.96" data-x="1594166400" r="1" fill="white"><title>2020-07-08: 1</title></circle>
	<circle cx="209.66" cy="370.39" data-y="0.80" data-x="1594252800" r="1" fill="white"><title>2020-07-09: 1</title></circle>
	<circle cx="211.17" cy="371.31" data-y="0.64" data-x="1594339200" r="1" fill="white"><title>2020-07-10: 1</title></circle>
	<circle cx="212.69" cy="371.31" data-y="0.64" data-x="1594425600" r="1" fill="white"><title>2020-07-11: 1</title></circle>
	<circle cx="214.20" cy="374.08" data-y="0.16" data-x="1594512000" r="1" fill="white"><title>2020-07-12: 0</title></circle>
	<circle cx="215.71" cy="375.00" data-y="0.00" data-x="1594598400" r="1" fill="white"><title>2020-07-13: 0</title></circle>
	<circle cx="217.23" cy="374.08" data-y="0.16" data-x="1594684800" r="1" fill="white"><title>2020-07-14: 0</title></circle>
	<circle cx="218.74" cy="374.08" data-y="0.16" data-x="1594771200" r="1" fill="white"><title>2020-07-15: 0</title></circle>
	<circle cx="220.26" cy="374.08" data-y="0.16" data-x="1594857600" r="1" fill="white"><title>2020-07-16: 0</title></circle>
	<circle cx="221.77" cy="372.23" data-y="0.48" data-x="1594944000" r="1" fill="white"><title>2020-07-17: 0</title></circle>
	<circle cx="223.28" cy="371.31" data-y="0.64" data-x="1595030400" r="1" fill="white"><title>2020-07-18: 1</title></circle>
	<circle cx="224.80" cy="371.31" data-y="0.64" data-x="1595116800" r="1" fill="white"><title>2020-07-19: 1</title></circle>
	<circle cx="226.31" cy="371.31" data-y="0.64" data-x="1595203200" r="1" fill="white"><title>2020-07-20: 1</title></circle>
	<circle cx="227.82" cy="371.31" data-y="0.64" data-x="1595289600" r="1" fill="white"><title>2020-07-21: 1</title></circle>
	<circle cx="229.34" cy="371.31" data-y="0.64" data-x="1595376000" r="1" fill="white"><title>2020-07-22: 1</title></circle>
	<circle cx="230.85" cy="371.31" data-y="0.64" data-x="1595462400" r="1" fill="white"><title>2020-07-23: 1</title></circle>
	<circle cx="232.36" cy="371.31" data-y="0.64" data-x="1595548800" r="1" fill="white"><title>2020-07-24: 1</title></circle>
	<circle cx="233.88" cy="372.23" data-y="0.48" data-x="1595635200" r="1" fill="white"><title>2020-07-25: 0</title></circle>
	<circle cx="235.39" cy="372.23" data-y="0.48" data-x="1595721600" r="1" fill="white"><title>2020-07-26: 0</title></circle>
	<circle cx="236.90" cy="371.31" data-y="0.64" data-x="1595808000" r="1" fill="white"><title>2020-07-27: 1</title></circle>
	<circle cx="238.42" cy="370.39" data-y="0.80" data-x="1595894400" r="1" fill="white"><title>2020-07-28: 1</title></circle>
	<circle cx="239.93" cy="369.47" data-y="0.96" data-x="1595980800" r="1" fill="white"><title>2020-07-29: 1</title></circle>
	<circle cx="241.45" cy="369.47" data-y="0.96" data-x="1596067200" r="1" fill="white"><title>2020-07-30: 1</title></circle>
	<circle cx="242.96" cy="370.39" data-y="0.80" data-x="1596153600" r="1" fill="white"><title>2020-07-31: 1</title></circle>
	<circle cx="244.47" cy="370.39" data-y="0.80" data-x="1596240000" r="1" fill="white"><title>2020-08-01: 1</title></circle>
	<circle cx="245.99" cy="369.47" data-y="0.96" data-x="1596326400" r="1" fill="white"><title>2020-08-02: 1</title></circle>
	<circle cx="247.50" cy="370.39" data-y="0.80" data-x="1596412800" r="1" fill="white"><title>2020-08-03: 1</title></circle>
	<circle cx="249.01" cy="371.31" data-y="0.64" data-x="1596499200" r="1" fill="white"><title>2020-08-04: 1</title></circle>
	<circle cx="250.53" cy="372.23" data-y="0.48" data-x="1596585600" r="1" fill="white"><title>2020-08-05: 0</title></circle>
	<circle cx="252.04" cy="372.23" data-y="0.48" data-x="1596672000" r="1" fill="white"><title>2020-08-06: 0</title></circle>
	<circle cx="253.55" cy="372.23" data-y="0.48" data-x="1596758400" r="1" fill="white"><title>2020-08-07: 0</title></circle>
	<circle cx="255.07" cy="372.23" data-y="0.48" data-x="1596844800" r="1" fill="white"><title>2020-08-08: 0</title></circle>
	<circle cx="256.58" cy="372.23" data-y="0.48" data-x="1596931200" r="1" fill="white"><title>2020-08-09: 0</title></circle>
	<circle cx="258.10" cy="369.47" data-y="0.96" data-x="1597017600" r="1" fill="white"><title>2020-08-10: 1</title></circle>
	<circle cx="259.61" cy="368.55" data-y="1.12" data-x="1597104000" r="1" fill="white"><title>2020-08-11: 1</title></circle>
	<circle cx="261.12" cy="368.55" data-y="1.12" data-x="1597190400" r="1" fill="white"><title>2020-08-12: 1</title></circle>
	<circle cx="262.64" cy="367.63" data-y="1.28" data-x="1597276800" r="1" fill="white"><title>2020-08-13: 1</title></circle>
	<circle cx="264.15" cy="368.55" data-y="1.12" data-x="1597363200" r="1" fill="white"><title>2020-08-14: 1</title></circle>
	<circle cx="265.66" cy="367.63" data-y="1.28" data-x="1597449600" r="1" fill="white"><title>2020-08-15: 1</title></circle>
	<circle cx="267.18" cy="368.55" data-y="1.12" data-x="1597536000" r="1" fill="white"><title>2020-08-16: 1</title></circle>
	<circle cx="268.69" cy="367.63" data-y="1.28" data-x="1597622400" r="1" fill="white"><title>2020-08-17: 1</title></circle>
	<circle cx="270.20" cy="369.47" data-y="0.96" data-x="1597708800" r="1" fill="white"><title>2020-08-18: 1</title></circle>
	<circle cx="271.72" cy="367.63" data-y="1.28" data-x="1597795200" r="1" fill="white"><title>2020-08-19: 1</title></circle>
	<circle cx="273.23" cy="368.55" data-y="1.12" data-x="1597881600" r="1" fill="white"><title>2020-08-20: 1</title></circle>
	<circle cx="274.74" cy="367.63" data-y="1.28" data-x="1597968000" r="1" fill="white"><title>2020-08-21: 1</title></circle>
	<circle cx="276.26" cy="368.55" data-y="1.12" data-x="1598054400" r="1" fill="white"><title>2020-08-22: 1</title></circle>
	<circle cx="277.77" cy="367.63" data-y="1.28" data-x="1598140800" r="1" fill="white"><title>2020-08-23: 1</title></circle>
	<circle cx="279.29" cy="369.47" data-y="0.96" data-x="1598227200" r="1" fill="white"><title>2020-08-24: 1</title></circle>
	<circle cx="280.80" cy="368.55" data-y="1.12" data-x="1598313600" r="1" fill="white"><title>2020-08-25: 1</title></circle>
	<circle cx="282.31" cy="369.47" data-y="0.96" data-x="1598400000" r="1" fill="white"><title>2020-08-26: 1</title></circle>
	<circle cx="283.83" cy="369.47" data-y="0.96" data-x="1598486400" r="1" fill="white"><title>2020-08-27: 1</title></circle>
	<circle cx="285.34" cy="369.47" data-y="0.96" data-x="1598572800" r="1" fill="white"><title>2020-08-28: 1</title></circle>
	<circle cx="286.85" cy="367.63" data-y="1.28" data-x="1598659200" r="1" fill="white"><title>2020-08-29: 1</title></circle>
	<circle cx="288.37" cy="366.70" data-y="1.44" data-x="1598745600" r="1" fill="white"><title>2020-08-30: 1</title></circle>
	<circle cx="289.88" cy="367.63" data-y="1.28" data-x="1598832000" r="1" fill="white"><title>2020-08-31: 1</title></circle>
	<circle cx="291.39" cy="363.02" data-y="2.08" data-x="1598918400" r="1" fill="white"><title>2020-09-01: 2</title></circle>
	<circle cx="292.91" cy="362.10" data-y="2.24" data-x="1599004800" r="1" fill="white"><title>2020-09-02: 2</title></circle>
	<circle cx="294.42" cy="361.17" data-y="2.41" data-x="1599091200" r="1" fill="white"><title>2020-09-03: 2</title></circle>
	<circle cx="295.94" cy="358.41" data-y="2.89" data-x="1599177600" r="1" fill="white"><title>2020-09-04: 3</title></circle>
	<circle cx="297.45" cy="358.41" data-y="2.89" data-x="1599264000" r="1" fill="white"><title>2020-09-05: 3</title></circle>
	<circle cx="298.96" cy="356.57" data-y="3.21" data-x="1599350400" r="1" fill="white"><title>2020-09-06: 3</title></circle>
	<circle cx="300.48" cy="355.64" data-y="3.37" data-x="1599436800" r="1" fill="white"><title>2020-09-07: 3</title></circle>
	<circle cx="301.99" cy="355.64" data-y="3.37" data-x="1599523200" r="1" fill="white"><title>2020-09-08: 3</title></circle>
	<circle cx="303.50" cy="357.49" data-y="3.05" data-x="1599609600" r="1" fill="white"><title>2020-09-09: 3</title></circle>
	<circle cx="305.02" cy="351.04" data-y="4.17" data-x="1599696000" r="1" fill="white"><title>2020-09-10: 4</title></circle>
	<circle cx="306.53" cy="351.96" data-y="4.01" data-x="1599782400" r="1" fill="white"><title>2020-09-11: 4</title></circle>
	<circle cx="308.04" cy="351.04" data-y="4.17" data-x="1599868800" r="1" fill="white"><title>2020-09-12: 4</title></circle>
	<circle cx="309.56" cy="349.19" data-y="4.49" data-x="1599955200" r="1" fill="white"><title>2020-09-13: 4</title></circle>
	<circle cx="311.07" cy="350.11" data-y="4.33" data-x="1600041600" r="1" fill="white"><title>2020-09-14: 4</title></circle>
	<circle cx="312.59" cy="351.04" data-y="4.17" data-x="1600128000" r="1" fill="white"><title>2020-09-15: 4</title></circle>
	<circle cx="314.10" cy="351.04" data-y="4.17" data-x="1600214400" r="1" fill="white"><title>2020-09-16: 4</title></circle>
	<circle cx="315.61" cy="353.80" data-y="3.69" data-x="1600300800" r="1" fill="white"><title>2020-09-17: 4</title></circle>
	<circle cx="317.13" cy="351.04" data-y="4.17" data-x="1600387200" r="1" fill="white"><title>2020-09-18: 4</title></circle>
	<circle cx="318.64" cy="349.19" data-y="4.49" data-x="1600473600" r="1" fill="white"><title>2020-09-19: 4</title></circle>
	<circle cx="320.15" cy="350.11" data-y="4.33" data-x="1600560000" r="1" fill="white"><title>2020-09-20: 4</title></circle>
	<circle cx="321.67" cy="350.11" data-y="4.33" data-x="1600646400" r="1" fill="white"><title>2020-09-21: 4</title></circle>
	<circle cx="323.18" cy="351.96" data-y="4.01" data-x="1600732800" r="1" fill="white"><title>2020-09-22: 4</title></circle>
	<circle cx="324.69" cy="350.11" data-y="4.33" data-x="1600819200" r="1" fill="white"><title>2020-09-23: 4</title></circle>
	<circle cx="326.21" cy="352.88" data-y="3.85" data-x="1600905600" r="1" fill="white"><title>2020-09-24: 4</title></circle>
	<circle cx="327.72" cy="351.96" data-y="4.01" data-x="1600992000" r="1" fill="white"><title>2020-09-25: 4</title></circle>
	<circle cx="329.23" cy="350.11" data-y="4.33" data-x="1601078400" r="1" fill="white"><title>2020-09-26: 4</title></circle>
	<circle cx="330.75" cy="347.35" data-y="4.81" data-x="1601164800" r="1" fill="white"><title>2020-09-27: 5</title></circle>
	<circle cx="332.26" cy="338.13" data-y="6.41" data-x="1601251200" r="1" fill="white"><title>2020-09-28: 6</title></circle>
	<circle cx="333.78" cy="332.60" data-y="7.38" data-x="1601337600" r="1" fill="white"><title>2020-09-29: 7</title></circle>
	<circle cx="335.29" cy="332.60" data-y="7.38" data-x="1601424000" r="1" fill="white"><title>2020-09-30: 7</title></circle>
	<circle cx="336.80" cy="323.38" data-y="8.98" data-x="1601510400" r="1" fill="white"><title>2020-10-01: 9</title></circle>
	<circle cx="338.32" cy="320.62" data-y="9.46" data-x="1601596800" r="1" fill="white"><title>2020-10-02: 9</title></circle>
	<circle cx="339.83" cy="309.56" data-y="11.38" data-x="1601683200" r="1" fill="white"><title>2020-10-03: 11</title></circle>
	<circle cx="341.34" cy="301.26" data-y="12.83" data-x="1601769600" r="1" fill="white"><title>2020-10-04: 13</title></circle>
	<circle cx="342.86" cy="301.26" data-y="12.83" data-x="1601856000" r="1" fill="white"><title>2020-10-05: 13</title></circle>
	<circle cx="344.37" cy="302.18" data-y="12.67" data-x="1601942400" r="1" fill="white"><title>2020-10-06: 13</title></circle>
	<circle cx="345.88" cy="295.73" data-y="13.79" data-x="1602028800" r="1" fill="white"><title>2020-10-07: 14</title></circle>
	<circle cx="347.40" cy="299.42" data-y="13.15" data-x="1602115200" r="1" fill="white"><title>2020-10-08: 13</title></circle>
	<circle cx="348.91" cy="292.05" data-y="14.43" data-x="1602201600" r="1" fill="white"><title>2020-10-09: 14</title></circle>
	<circle cx="350.43" cy="294.81" data-y="13.95" data-x="1602288000" r="1" fill="white"><title>2020-10-10: 14</title></circle>
	<circle cx="351.94" cy="294.81" data-y="13.95" data-x="1602374400" r="1" fill="white"><title>2020-10-11: 14</title></circle>
	<circle cx="353.45" cy="291.12" data-y="14.59" data-x="1602460800" r="1" fill="white"><title>2020-10-12: 15</title></circle>
	<circle cx="354.97" cy="288.36" data-y="15.07" data-x="1602547200" r="1" fill="white"><title>2020-10-13: 15</title></circle>
	<circle cx="356.48" cy="286.52" data-y="15.39" data-x="1602633600" r="1" fill="white"><title>2020-10-14: 15</title></circle>
	<circle cx="357.99" cy="281.91" data-y="16.19" data-x="1602720000" r="1" fill="white"><title>2020-10-15: 16</title></circle>
	<circle cx="359.51" cy="283.75" data-y="15.87" data-x="1602806400" r="1" fill="white"><title>2020-10-16: 16</title></circle>
	<circle cx="361.02" cy="278.22" data-y="16.84" data-x="1602892800" r="1" fill="white"><title>2020-10-17: 17</title></circle>
	<circle cx="362.53" cy="269.92" data-y="18.28" data-x="1602979200" r="1" fill="white"><title>2020-10-18: 18</title></circle>
	<circle cx="364.05" cy="258.86" data-y="20.20" data-x="1603065600" r="1" fill="white"><title>2020-10-19: 20</title></circle>
	<circle cx="365.56" cy="243.19" data-y="22.93" data-x="1603152000" r="1" fill="white"><title>2020-10-20: 23</title></circle>
	<circle cx="367.07" cy="240.43" data-y="23.41" data-x="1603238400" r="1" fill="white"><title>2020-10-21: 23</title></circle>
	<circle cx="368.59" cy="242.27" data-y="23.09" data-x="1603324800" r="1" fill="white"><title>2020-10-22: 23</title></circle>
	<circle cx="370.10" cy="218.31" data-y="27.26" data-x="1603411200" r="1" fill="white"><title>2020-10-23: 27</title></circle>
	<circle cx="371.62" cy="221.07" data-y="26.78" data-x="1603497600" r="1" fill="white"><title>2020-10-24: 27</title></circle>
	<circle cx="373.13" cy="228.45" data-y="25.49" data-x="1603584000" r="1" fill="white"><title>2020-10-25: 25</title></circle>
	<circle cx="374.64" cy="236.74" data-y="24.05" data-x="1603670400" r="1" fill="white"><title>2020-10-26: 24</title></circle>
	<circle cx="376.16" cy="251.49" data-y="21.49" data-x="1603756800" r="1" fill="white"><title>2020-10-27: 21</title></circle>
	<circle cx="377.67" cy="253.33" data-y="21.16" data-x="1603843200" r="1" fill="white"><title>2020-10-28: 21</title></circle>
	<circle cx="379.18" cy="245.96" data-y="22.45" data-x="1603929600" r="1" fill="white"><title>2020-10-29: 22</title></circle>
	<circle cx="380.70" cy="269.92" data-y="18.28" data-x="1604016000" r="1" fill="white"><title>2020-10-30: 18</title></circle>
	<circle cx="382.21" cy="253.33" data-y="21.16" data-x="1604102400" r="1" fill="white"><title>2020-10-31: 21</title></circle>
	<circle cx="383.72" cy="255.18" data-y="20.84" data-x="1604188800" r="1" fill="white"><title>2020-11-01: 21</title></circle>
	<circle cx="385.24" cy="243.19" data-y="22.93" data-x="1604275200" r="1" fill="white"><title>2020-11-02: 23</title></circle>
	<circle cx="386.75" cy="233.06" data-y="24.69" data-x="1604361600" r="1" fill="white"><title>2020-11-03: 25</title></circle>
	<circle cx="388.27" cy="227.53" data-y="25.65" data-x="1604448000" r="1" fill="white"><title>2020-11-04: 26</title></circle>
	<circle cx="389.78" cy="215.54" data-y="27.74" data-x="1604534400" r="1" fill="white"><title>2020-11-05: 28</title></circle>
	<circle cx="391.29" cy="199.87" data-y="30.46" data-x="1604620800" r="1" fill="white"><title>2020-11-06: 30</title></circle>
	<circle cx="392.81" cy="203.56" data-y="29.82" data-x="1604707200" r="1" fill="white"><title>2020-11-07: 30</title></circle>
	<circle cx="394.32" cy="179.60" data-y="33.99" data-x="1604793600" r="1" fill="white"><title>2020-11-08: 34</title></circle>
	<circle cx="395.83" cy="181.44" data-y="33.67" data-x="1604880000" r="1" fill="white"><title>2020-11-09: 34</title></circle>
	<circle cx="397.35" cy="175.91" data-y="34.63" data-x="1604966400" r="1" fill="white"><title>2020-11-10: 35</title></circle>
	<circle cx="398.86" cy="178.67" data-y="34.15" data-x="1605052800" r="1" fill="white"><title>2020-11-11: 34</title></circle>
	<circle cx="400.37" cy="178.67" data-y="34.15" data-x="1605139200" r="1" fill="white"><title>2020-11-12: 34</title></circle>
	<circle cx="401.89" cy="178.67" data-y="34.15" data-x="1605225600" r="1" fill="white"><title>2020-11-13: 34</title></circle>
	<circle cx="403.40" cy="164.85" data-y="36.56" data-x="1605312000" r="1" fill="white"><title>2020-11-14: 37</title></circle>
	<circle cx="404.91" cy="185.13" data-y="33.03" data-x="1605398400" r="1" fill="white"><title>2020-11-15: 33</title></circle>
	<circle cx="406.43" cy="187.89" data-y="32.55" data-x="1605484800" r="1" fill="white"><title>2020-11-16: 33</title></circle>
	<circle cx="407.94" cy="198.95" data-y="30.63" data-x="1605571200" r="1" fill="white"><title>2020-11-17: 31</title></circle>
	<circle cx="409.46" cy="195.27" data-y="31.27" data-x="1605657600" r="1" fill="white"><title>2020-11-18: 31</title></circle>
	<circle cx="410.97" cy="210.93" data-y="28.54" data-x="1605744000" r="1" fill="white"><title>2020-11-19: 29</title></circle>
	<circle cx="412.48" cy="221.99" data-y="26.62" data-x="1605830400" r="1" fill="white"><title>2020-11-20: 27</title></circle>
	<circle cx="414.00" cy="248.72" data-y="21.97" data-x="1605916800" r="1" fill="white"><title>2020-11-21: 22</title></circle>
	<circle cx="415.51" cy="255.18" data-y="20.84" data-x="1606003200" r="1" fill="white"><title>2020-11-22: 21</title></circle>
	<circle cx="417.02" cy="256.10" data-y="20.68" data-x="1606089600" r="1" fill="white"><title>2020-11-23: 21</title></circle>
	<circle cx="418.54" cy="245.96" data-y="22.45" data-x="1606176000" r="1" fill="white"><title>2020-11-24: 22</title></circle>
	<circle cx="420.05" cy="242.27" data-y="23.09" data-x="1606262400" r="1" fill="white"><title>2020-11-25: 23</title></circle>
	<circle cx="421.56" cy="221.07" data-y="26.78" data-x="1606348800" r="1" fill="white"><title>2020-11-26: 27</title></circle>
	<circle cx="423.08" cy="214.62" data-y="27.90" data-x="1606435200" r="1" fill="white"><title>2020-11-27: 28</title></circle>
	<circle cx="424.59" cy="199.87" data-y="30.46" data-x="1606521600" r="1" fill="white"><title>2020-11-28: 30</title></circle>
	<circle cx="426.11" cy="167.61" data-y="36.08" data-x="1606608000" r="1" fill="white"><title>2020-11-29: 36</title></circle>
	<circle cx="427.62" cy="145.49" data-y="39.92" data-x="1606694400" r="1" fill="white"><title>2020-11-30: 40</title></circle>
	<circle cx="429.13" cy="134.43" data-y="41.85" data-x="1606780800" r="1" fill="white"><title>2020-12-01: 42</title></circle>
	<circle cx="430.65" cy="136.28" data-y="41.53" data-x="1606867200" r="1" fill="white"><title>2020-12-02: 42</title></circle>
	<circle cx="432.16" cy="157.47" data-y="37.84" data-x="1606953600" r="1" fill="white"><title>2020-12-03: 38</title></circle>
	<circle cx="433.67" cy="152.87" data-y="38.64" data-x="1607040000" r="1" fill="white"><title>2020-12-04: 39</title></circle>
	<circle cx="435.19" cy="162.08" data-y="37.04" data-x="1607126400" r="1" fill="white"><title>2020-12-05: 37</title></circle>
	<circle cx="436.70" cy="178.67" data-y="34.15" data-x="1607212800" r="1" fill="white"><title>2020-12-06: 34</title></circle>
	<circle cx="438.21" cy="197.11" data-y="30.95" data-x="1607299200" r="1" fill="white"><title>2020-12-07: 31</title></circle>
	<circle cx="439.73" cy="205.40" data-y="29.50" data-x="1607385600" r="1" fill="white"><title>2020-12-08: 30</title></circle>
	<circle cx="441.24" cy="195.27" data-y="31.27" data-x="1607472000" r="1" fill="white"><title>2020-12-09: 31</title></circle>
	<circle cx="442.76" cy="173.14" data-y="35.11" data-x="1607558400" r="1" fill="white"><title>2020-12-10: 35</title></circle>
	<circle cx="444.27" cy="159.32" data-y="37.52" data-x="1607644800" r="1" fill="white"><title>2020-12-11: 38</title></circle>
	<circle cx="445.78" cy="113.23" data-y="45.54" data-x="1607731200" r="1" fill="white"><title>2020-12-12: 46</title></circle>
	<circle cx="447.30" cy="90.19" data-y="49.55" data-x="1607817600" r="1" fill="white"><title>2020-12-13: 50</title></circle>
	<circle cx="448.81" cy="67.15" data-y="53.55" data-x="1607904000" r="1" fill="white"><title>2020-12-14: 54</title></circle>
	<circle cx="450.32" cy="49.63" data-y="56.60" data-x="1607990400" r="1" fill="white"><title>2020-12-15: 57</title></circle>
	<circle cx="451.84" cy="46.87" data-y="57.08" data-x="1608076800" r="1" fill="white"><title>2020-12-16: 57</title></circle>
	<circle cx="453.35" cy="36.73" data-y="58.85" data-x="1608163200" r="1" fill="white"><title>2020-12-17: 59</title></circle>
	<circle cx="454.86" cy="10.00" data-y="63.49" data-x="1608249600" r="1" fill="white"><title>2020-12-18: 63</title></circle>
	<circle cx="456.38" cy="13.69" data-y="62.85" data-x="1608336000" r="1" fill="white"><title>2020-12-19: 63</title></circle>
	<circle cx="457.89" cy="13.69" data-y="62.85" data-x="1608422400" r="1" fill="white"><title>2020-12-20: 63</title></circle>
	<circle cx="459.40" cy="10.92" data-y="63.33" data-x="1608508800" r="1" fill="white"><title>2020-12-21: 63</title></circle>
	<circle cx="460.92" cy="34.89" data-y="59.17" data-x="1608595200" r="1" fill="white"><title>2020-12-22: 59</title></circle>
	<circle cx="462.43" cy="50.56" data-y="56.44" data-x="1608681600" r="1" fill="white"><title>2020-12-23: 56</title></circle>
</g>
<g data-series="recent-cases" class="data-series">
	<path d="M 462.43,50.56L 463.95,76.36L 465.46,147.34L 466.97,185.74L 468.49,218.86L 470.00,271.77" id="Recent cases" class="line" stroke-width="1" stroke-linecap="round" stroke-dasharray="4,6" stroke-dashoffset="4"><title>Recent cases</title></path>
	<circle cx="462.43" cy="50.56" data-y="56.44" data-x="1608681600" r="2.5" fill="white"><title>2020-12-23: 56</title></circle>
	<circle cx="463.95" cy="76.36" data-y="51.95" data-x="1608768000" r="2.5" fill="white"><title>2020-12-24: 52</title></circle>
	<circle cx="465.46" cy="147.34" data-y="39.60" data-x="1608854400" r="2.5" fill="white"><title>2020-12-25: 40</title></circle>
	<circle cx="466.97" cy="185.74" data-y="32.92" data-x="1608940800" r="2.5" fill="white"><title>2020-12-26: 33</title></circle>
	<circle cx="468.49" cy="218.86" data-y="27.16" data-x="1609027200" r="2.5" fill="white"><title>2020-12-27: 27</title></circle>
	<circle cx="470.00" cy="271.77" data-y="17.96" data-x="1609113600" r="2.5" fill="white"><title>2020-12-28: 18</title></circle>
</g>
</svg>
