<svg width="480" height="400" viewBox="0 0 480 400" xmlns="http://www.w3.org/2000/svg" style="overflow:display" preserveAspectRatio="xMinYMin meet" overflow="visible">
<defs>
	<style>
	.data-series path.line { fill-opacity: 0; stroke: black; }
	.data-series path.line.dotted { stroke-dasharray: 12 20 }
	.data-series:hover path.line, .data-series.on path.line { stroke-width: 1; }
	.data-series:hover circle, .data-series.on circle { display: inline; }
	.graph-grid { font-family: "Helvetica Neue",Helvetica,Arial,"Lucida Grande",sans-serif; }
	.graph-grid line { stroke: black; stroke-width: 1; stroke-linecap: round; }
	.graph-grid.graph-grid-x text { text-anchor: middle; dominant-baseline: hanging; transform: translateY(10px); }
	.graph-grid.graph-grid-y text { text-anchor: end; dominant-baseline: middle; transform: translateX(-10px); }
	</style>
</defs>
<g class="graph-grid graph-grid-y">
	<line x1="25.00" y1="375.00" x2="470.00" y2="375.00" data-left="25"></line>
	<text x="35" y="375" text-anchor="end">0</text>
	<text x="35" y="214.79312295082" text-anchor="end">10</text>
	<text x="35" y="54.5862459016393" text-anchor="end">20</text>
	<text style="text-anchor:middle;dominant-baseline:hanging;font-weight:bold;transform: translateY(192.5px) rotate(-90deg);"></text>
</g>
<g class="graph-grid graph-grid-x">
	<line class="tick" x1="81.81" y1="375.00" x2="81.81" y2="380.00"></line>
	<text x="81.8085106382979" y="375" text-anchor="middle">A</text>
	<line class="tick" x1="138.62" y1="375.00" x2="138.62" y2="380.00"></line>
	<text x="138.617021276596" y="375" text-anchor="middle">M</text>
	<line class="tick" x1="197.32" y1="375.00" x2="197.32" y2="380.00"></line>
	<text x="197.31914893617" y="375" text-anchor="middle">J</text>
	<line class="tick" x1="254.13" y1="375.00" x2="254.13" y2="380.00"></line>
	<text x="254.127659574468" y="375" text-anchor="middle">J</text>
	<line class="tick" x1="312.83" y1="375.00" x2="312.83" y2="380.00"></line>
	<text x="312.829787234043" y="375" text-anchor="middle">A</text>
	<line class="tick" x1="371.53" y1="375.00" x2="371.53" y2="380.00"></line>
	<text x="371.531914893617" y="375" text-anchor="middle">S</text>
	<line class="tick" x1="428.34" y1="375.00" x2="428.34" y2="380.00"></line>
	<text x="428.340425531915" y="375" text-anchor="middle">O</text>
	<text style="text-anchor:middle;dominant-baseline:hanging;font-weight:bold;transform: translateY(192.5px) rotate(-90deg);"></text>
</g>
<g data-series="widespread" class="data-series">
	<path d="M 25.00,262.86L 470.00,262.86" id="E07000178-level-0" class="line" stroke-width="1" stroke-linecap="round" stroke-dasharray="3,3" fill-opacity="0.3" opacity="0.3"><title>Widespread</title></path>
</g>
<g data-series="substantial" class="data-series">
	<path d="M 25.00,310.92L 470.00,310.92" id="E07000178-level-1" class="line" stroke-width="1" stroke-linecap="round" stroke-dasharray="3,3" fill-opacity="0.3" opacity="0.3"><title>Substantial</title></path>
</g>
<g data-series="moderate" class="data-series">
	<path d="M 25.00,358.98L 470.00,358.98" id="E07000178-level-2" class="line" stroke-width="1" stroke-linecap="round" stroke-dasharray="3,3" fill-opacity="0.3" opacity="0.3"><title>Moderate</title></path>
</g>
<g data-series="new-cases" class="data-series">
	<path d="M 25.00,372.38L 26.89,370.81L 28.79,371.51L 30.68,370.51L 32.57,372.01L 34.47,363.03L 36.36,360.04L 38.26,358.55L 40.15,358.55L 42.04,358.55L 43.94,358.55L 45.83,355.55L 47.72,361.54L 49.62,358.55L 51.51,352.56L 53.40,352.56L 55.30,349.57L 57.19,346.58L 59.09,346.58L 60.98,345.08L 62.87,349.57L 64.77,351.07L 66.66,342.09L 68.55,337.60L 70.45,336.11L 72.34,319.65L 74.23,297.21L 76.13,279.26L 78.02,252.34L 79.91,222.42L 81.81,210.45L 83.70,196.99L 85.60,185.02L 87.49,165.57L 89.38,155.10L 91.28,159.59L 93.17,155.10L 95.06,162.58L 96.96,165.57L 98.85,180.53L 100.74,195.49L 102.64,207.46L 104.53,214.94L 106.43,243.36L 108.32,237.38L 110.21,243.36L 112.11,243.36L 114.00,262.81L 115.89,270.29L 117.79,267.30L 119.68,253.83L 121.57,262.81L 123.47,256.82L 125.36,267.30L 127.26,271.78L 129.15,270.29L 131.04,280.76L 132.94,304.69L 134.83,301.70L 136.72,315.16L 138.62,307.68L 140.51,282.25L 142.40,276.27L 144.30,277.77L 146.19,261.31L 148.09,246.35L 149.98,238.87L 151.87,232.89L 153.77,243.36L 155.66,240.37L 157.55,237.38L 159.45,246.35L 161.34,271.78L 163.23,274.77L 165.13,280.76L 167.02,289.73L 168.91,298.71L 170.81,301.70L 172.70,312.17L 174.60,312.17L 176.49,315.16L 178.38,325.64L 180.28,331.62L 182.17,328.63L 184.06,334.61L 185.96,331.62L 187.85,333.11L 189.74,336.11L 191.64,325.64L 193.53,327.13L 195.43,336.11L 197.32,334.61L 199.21,336.11L 201.11,336.11L 203.00,330.12L 204.89,340.59L 206.79,343.59L 208.68,348.07L 210.57,349.57L 212.47,348.07L 214.36,342.09L 216.26,349.57L 218.15,348.07L 220.04,349.57L 221.94,346.58L 223.83,346.58L 225.72,351.07L 227.62,357.05L 229.51,357.05L 231.40,358.55L 233.30,357.05L 235.19,358.55L 237.09,357.05L 238.98,354.06L 240.87,348.07L 242.77,348.07L 244.66,349.57L 246.55,352.56L 248.45,354.06L 250.34,358.55L 252.23,360.04L 254.13,364.53L 256.02,360.04L 257.91,358.55L 259.81,358.55L 261.70,354.06L 263.60,348.07L 265.49,351.07L 267.38,352.56L 269.28,354.06L 271.17,357.05L 273.06,354.06L 274.96,355.55L 276.85,364.53L 278.74,360.04L 280.64,358.55L 282.53,358.55L 284.43,346.58L 286.32,339.10L 288.21,334.61L 290.11,330.12L 292.00,328.63L 293.89,325.64L 295.79,327.13L 297.68,325.64L 299.57,331.62L 301.47,336.11L 303.36,334.61L 305.26,340.59L 307.15,343.59L 309.04,343.59L 310.94,357.05L 312.83,357.05L 314.72,358.55L 316.62,357.05L 318.51,351.07L 320.40,349.57L 322.30,346.58L 324.19,339.10L 326.09,333.11L 327.98,330.12L 329.87,337.60L 331.77,333.11L 333.66,327.13L 335.55,330.12L 337.45,333.11L 339.34,334.61L 341.23,331.62L 343.13,318.16L 345.02,312.17L 346.91,313.67L 348.81,304.69L 350.70,301.70L 352.60,309.18L 354.49,316.66L 356.38,327.13L 358.28,340.59L 360.17,346.58L 362.06,354.06L 363.96,358.55L 365.85,349.57L 367.74,342.09L 369.64,340.59L 371.53,331.62L 373.43,322.64L 375.32,318.16L 377.21,313.67L 379.11,310.68L 381.00,312.17L 382.89,310.68L 384.79,312.17L 386.68,312.17L 388.57,315.16L 390.47,318.16L 392.36,325.64L 394.26,324.14L 396.15,318.16L 398.04,325.64L 399.94,325.64L 401.83,304.69L 403.72,301.70L 405.62,301.70L 407.51,298.71L 409.40,288.24L 411.30,252.34L 413.19,234.39L 415.09,235.88L 416.98,211.95L 418.87,177.54L 420.77,144.63L 422.66,128.18L 424.55,141.64L 426.45,134.16L 428.34,114.71L 430.23,92.27L 432.13,92.27L 434.02,77.32L 435.91,39.92L 437.81,10.00L 439.70,23.46L 441.60,50.39L 443.49,54.88L 445.38,39.92L 447.28,54.88L 449.17,96.76L 451.06,99.75L 452.96,89.28L 454.85,81.80L 456.74,72.83L 458.64,80.31L 460.53,69.84" id="New cases" class="line" stroke-width="1" stroke-linecap="round"><title>New cases</title></path>
	<circle cx="25.00" cy="372.38" data-y="0.16" data-x="1583107200" r="1" fill="white"><title>2020-03-02: 0</title></circle>
	<circle cx="26.89" cy="370.81" data-y="0.26" data-x="1583193600" r="1" fill="white"><title>2020-03-03: 0</title></circle>
	<circle cx="28.79" cy="371.51" data-y="0.22" data-x="1583280000" r="1" fill="white"><title>2020-03-04: 0</title></circle>
	<circle cx="30.68" cy="370.51" data-y="0.28" data-x="1583366400" r="1" fill="white"><title>2020-03-05: 0</title></circle>
	<circle cx="32.57" cy="372.01" data-y="0.19" data-x="1583452800" r="1" fill="white"><title>2020-03-06: 0</title></circle>
	<circle cx="34.47" cy="363.03" data-y="0.75" data-x="1583539200" r="1" fill="white"><title>2020-03-07: 1</title></circle>
	<circle cx="36.36" cy="360.04" data-y="0.93" data-x="1583625600" r="1" fill="white"><title>2020-03-08: 1</title></circle>
	<circle cx="38.26" cy="358.55" data-y="1.03" data-x="1583712000" r="1" fill="white"><title>2020-03-09: 1</title></circle>
	<circle cx="40.15" cy="358.55" data-y="1.03" data-x="1583798400" r="1" fill="white"><title>2020-03-10: 1</title></circle>
	<circle cx="42.04" cy="358.55" data-y="1.03" data-x="1583884800" r="1" fill="white"><title>2020-03-11: 1</title></circle>
	<circle cx="43.94" cy="358.55" data-y="1.03" data-x="1583971200" r="1" fill="white"><title>2020-03-12: 1</title></circle>
	<circle cx="45.83" cy="355.55" data-y="1.21" data-x="1584057600" r="1" fill="white"><title>2020-03-13: 1</title></circle>
	<circle cx="47.72" cy="361.54" data-y="0.84" data-x="1584144000" r="1" fill="white"><title>2020-03-14: 1</title></circle>
	<circle cx="49.62" cy="358.55" data-y="1.03" data-x="1584230400" r="1" fill="white"><title>2020-03-15: 1</title></circle>
	<circle cx="51.51" cy="352.56" data-y="1.40" data-x="1584316800" r="1" fill="white"><title>2020-03-16: 1</title></circle>
	<circle cx="53.40" cy="352.56" data-y="1.40" data-x="1584403200" r="1" fill="white"><title>2020-03-17: 1</title></circle>
	<circle cx="55.30" cy="349.57" data-y="1.59" data-x="1584489600" r="1" fill="white"><title>2020-03-18: 2</title></circle>
	<circle cx="57.19" cy="346.58" data-y="1.77" data-x="1584576000" r="1" fill="white"><title>2020-03-19: 2</title></circle>
	<circle cx="59.09" cy="346.58" data-y="1.77" data-x="1584662400" r="1" fill="white"><title>2020-03-20: 2</title></circle>
	<circle cx="60.98" cy="345.08" data-y="1.87" data-x="1584748800" r="1" fill="white"><title>2020-03-21: 2</title></circle>
	<circle cx="62.87" cy="349.57" data-y="1.59" data-x="1584835200" r="1" fill="white"><title>2020-03-22: 2</title></circle>
	<circle cx="64.77" cy="351.07" data-y="1.49" data-x="1584921600" r="1" fill="white"><title>2020-03-23: 1</title></circle>
	<circle cx="66.66" cy="342.09" data-y="2.05" data-x="1585008000" r="1" fill="white"><title>2020-03-24: 2</title></circle>
	<circle cx="68.55" cy="337.60" data-y="2.33" data-x="1585094400" r="1" fill="white"><title>2020-03-25: 2</title></circle>
	<circle cx="70.45" cy="336.11" data-y="2.43" data-x="1585180800" r="1" fill="white"><title>2020-03-26: 2</title></circle>
	<circle cx="72.34" cy="319.65" data-y="3.45" data-x="1585267200" r="1" fill="white"><title>2020-03-27: 3</title></circle>
	<circle cx="74.23" cy="297.21" data-y="4.86" data-x="1585353600" r="1" fill="white"><title>2020-03-28: 5</title></circle>
	<circle cx="76.13" cy="279.26" data-y="5.98" data-x="1585440000" r="1" fill="white"><title>2020-03-29: 6</title></circle>
	<circle cx="78.02" cy="252.34" data-y="7.66" data-x="1585526400" r="1" fill="white"><title>2020-03-30: 8</title></circle>
	<circle cx="79.91" cy="222.42" data-y="9.52" data-x="1585612800" r="1" fill="white"><title>2020-03-31: 10</title></circle>
	<circle cx="81.81" cy="210.45" data-y="10.27" data-x="1585699200" r="1" fill="white"><title>2020-04-01: 10</title></circle>
	<circle cx="83.70" cy="196.99" data-y="11.11" data-x="1585785600" r="1" fill="white"><title>2020-04-02: 11</title></circle>
	<circle cx="85.60" cy="185.02" data-y="11.86" data-x="1585872000" r="1" fill="white"><title>2020-04-03: 12</title></circle>
	<circle cx="87.49" cy="165.57" data-y="13.07" data-x="1585958400" r="1" fill="white"><title>2020-04-04: 13</title></circle>
	<circle cx="89.38" cy="155.10" data-y="13.73" data-x="1586044800" r="1" fill="white"><title>2020-04-05: 14</title></circle>
	<circle cx="91.28" cy="159.59" data-y="13.45" data-x="1586131200" r="1" fill="white"><title>2020-04-06: 13</title></circle>
	<circle cx="93.17" cy="155.10" data-y="13.73" data-x="1586217600" r="1" fill="white"><title>2020-04-07: 14</title></circle>
	<circle cx="95.06" cy="162.58" data-y="13.26" data-x="1586304000" r="1" fill="white"><title>2020-04-08: 13</title></circle>
	<circle cx="96.96" cy="165.57" data-y="13.07" data-x="1586390400" r="1" fill="white"><title>2020-04-09: 13</title></circle>
	<circle cx="98.85" cy="180.53" data-y="12.14" data-x="1586476800" r="1" fill="white"><title>2020-04-10: 12</title></circle>
	<circle cx="100.74" cy="195.49" data-y="11.20" data-x="1586563200" r="1" fill="white"><title>2020-04-11: 11</title></circle>
	<circle cx="102.64" cy="207.46" data-y="10.46" data-x="1586649600" r="1" fill="white"><title>2020-04-12: 10</title></circle>
	<circle cx="104.53" cy="214.94" data-y="9.99" data-x="1586736000" r="1" fill="white"><title>2020-04-13: 10</title></circle>
	<circle cx="106.43" cy="243.36" data-y="8.22" data-x="1586822400" r="1" fill="white"><title>2020-04-14: 8</title></circle>
	<circle cx="108.32" cy="237.38" data-y="8.59" data-x="1586908800" r="1" fill="white"><title>2020-04-15: 9</title></circle>
	<circle cx="110.21" cy="243.36" data-y="8.22" data-x="1586995200" r="1" fill="white"><title>2020-04-16: 8</title></circle>
	<circle cx="112.11" cy="243.36" data-y="8.22" data-x="1587081600" r="1" fill="white"><title>2020-04-17: 8</title></circle>
	<circle cx="114.00" cy="262.81" data-y="7.00" data-x="1587168000" r="1" fill="white"><title>2020-04-18: 7</title></circle>
	<circle cx="115.89" cy="270.29" data-y="6.54" data-x="1587254400" r="1" fill="white"><title>2020-04-19: 7</title></circle>
	<circle cx="117.79" cy="267.30" data-y="6.72" data-x="1587340800" r="1" fill="white"><title>2020-04-20: 7</title></circle>
	<circle cx="119.68" cy="253.83" data-y="7.56" data-x="1587427200" r="1" fill="white"><title>2020-04-21: 8</title></circle>
	<circle cx="121.57" cy="262.81" data-y="7.00" data-x="1587513600" r="1" fill="white"><title>2020-04-22: 7</title></circle>
	<circle cx="123.47" cy="256.82" data-y="7.38" data-x="1587600000" r="1" fill="white"><title>2020-04-23: 7</title></circle>
	<circle cx="125.36" cy="267.30" data-y="6.72" data-x="1587686400" r="1" fill="white"><title>2020-04-24: 7</title></circle>
	<circle cx="127.26" cy="271.78" data-y="6.44" data-x="1587772800" r="1" fill="white"><title>2020-04-25: 6</title></circle>
	<circle cx="129.15" cy="270.29" data-y="6.54" data-x="1587859200" r="1" fill="white"><title>2020-04-26: 7</title></circle>
	<circle cx="131.04" cy="280.76" data-y="5.88" data-x="1587945600" r="1" fill="white"><title>2020-04-27: 6</title></circle>
	<circle cx="132.94" cy="304.69" data-y="4.39" data-x="1588032000" r="1" fill="white"><title>2020-04-28: 4</title></circle>
	<circle cx="134.83" cy="301.70" data-y="4.58" data-x="1588118400" r="1" fill="white"><title>2020-04-29: 5</title></circle>
	<circle cx="136.72" cy="315.16" data-y="3.73" data-x="1588204800" r="1" fill="white"><title>2020-04-30: 4</title></circle>
	<circle cx="138.62" cy="307.68" data-y="4.20" data-x="1588291200" r="1" fill="white"><title>2020-05-01: 4</title></circle>
	<circle cx="140.51" cy="282.25" data-y="5.79" data-x="1588377600" r="1" fill="white"><title>2020-05-02: 6</title></circle>
	<circle cx="142.40" cy="276.27" data-y="6.16" data-x="1588464000" r="1" fill="white"><title>2020-05-03: 6</title></circle>
	<circle cx="144.30" cy="277.77" data-y="6.07" data-x="1588550400" r="1" fill="white"><title>2020-05-04: 6</title></circle>
	<circle cx="146.19" cy="261.31" data-y="7.10" data-x="1588636800" r="1" fill="white"><title>2020-05-05: 7</title></circle>
	<circle cx="148.09" cy="246.35" data-y="8.03" data-x="1588723200" r="1" fill="white"><title>2020-05-06: 8</title></circle>
	<circle cx="149.98" cy="238.87" data-y="8.50" data-x="1588809600" r="1" fill="white"><title>2020-05-07: 8</title></circle>
	<circle cx="151.87" cy="232.89" data-y="8.87" data-x="1588896000" r="1" fill="white"><title>2020-05-08: 9</title></circle>
	<circle cx="153.77" cy="243.36" data-y="8.22" data-x="1588982400" r="1" fill="white"><title>2020-05-09: 8</title></circle>
	<circle cx="155.66" cy="240.37" data-y="8.40" data-x="1589068800" r="1" fill="white"><title>2020-05-10: 8</title></circle>
	<circle cx="157.55" cy="237.38" data-y="8.59" data-x="1589155200" r="1" fill="white"><title>2020-05-11: 9</title></circle>
	<circle cx="159.45" cy="246.35" data-y="8.03" data-x="1589241600" r="1" fill="white"><title>2020-05-12: 8</title></circle>
	<circle cx="161.34" cy="271.78" data-y="6.44" data-x="1589328000" r="1" fill="white"><title>2020-05-13: 6</title></circle>
	<circle cx="163.23" cy="274.77" data-y="6.26" data-x="1589414400" r="1" fill="white"><title>2020-05-14: 6</title></circle>
	<circle cx="165.13" cy="280.76" data-y="5.88" data-x="1589500800" r="1" fill="white"><title>2020-05-15: 6</title></circle>
	<circle cx="167.02" cy="289.73" data-y="5.32" data-x="1589587200" r="1" fill="white"><title>2020-05-16: 5</title></circle>
	<circle cx="168.91" cy="298.71" data-y="4.76" data-x="1589673600" r="1" fill="white"><title>2020-05-17: 5</title></circle>
	<circle cx="170.81" cy="301.70" data-y="4.58" data-x="1589760000" r="1" fill="white"><title>2020-05-18: 5</title></circle>
	<circle cx="172.70" cy="312.17" data-y="3.92" data-x="1589846400" r="1" fill="white"><title>2020-05-19: 4</title></circle>
	<circle cx="174.60" cy="312.17" data-y="3.92" data-x="1589932800" r="1" fill="white"><title>2020-05-20: 4</title></circle>
	<circle cx="176.49" cy="315.16" data-y="3.73" data-x="1590019200" r="1" fill="white"><title>2020-05-21: 4</title></circle>
	<circle cx="178.38" cy="325.64" data-y="3.08" data-x="1590105600" r="1" fill="white"><title>2020-05-22: 3</title></circle>
	<circle cx="180.28" cy="331.62" data-y="2.71" data-x="1590192000" r="1" fill="white"><title>2020-05-23: 3</title></circle>
	<circle cx="182.17" cy="328.63" data-y="2.89" data-x="1590278400" r="1" fill="white"><title>2020-05-24: 3</title></circle>
	<circle cx="184.06" cy="334.61" data-y="2.52" data-x="1590364800" r="1" fill="white"><title>2020-05-25: 3</title></circle>
	<circle cx="185.96" cy="331.62" data-y="2.71" data-x="1590451200" r="1" fill="white"><title>2020-05-26: 3</title></circle>
	<circle cx="187.85" cy="333.11" data-y="2.61" data-x="1590537600" r="1" fill="white"><title>2020-05-27: 3</title></circle>
	<circle cx="189.74" cy="336.11" data-y="2.43" data-x="1590624000" r="1" fill="white"><title>2020-05-28: 2</title></circle>
	<circle cx="191.64" cy="325.64" data-y="3.08" data-x="1590710400" r="1" fill="white"><title>2020-05-29: 3</title></circle>
	<circle cx="193.53" cy="327.13" data-y="2.99" data-x="1590796800" r="1" fill="white"><title>2020-05-30: 3</title></circle>
	<circle cx="195.43" cy="336.11" data-y="2.43" data-x="1590883200" r="1" fill="white"><title>2020-05-31: 2</title></circle>
	<circle cx="197.32" cy="334.61" data-y="2.52" data-x="1590969600" r="1" fill="white"><title>2020-06-01: 3</title></circle>
	<circle cx="199.21" cy="336.11" data-y="2.43" data-x="1591056000" r="1" fill="white"><title>2020-06-02: 2</title></circle>
	<circle cx="201.11" cy="336.11" data-y="2.43" data-x="1591142400" r="1" fill="white"><title>2020-06-03: 2</title></circle>
	<circle cx="203.00" cy="330.12" data-y="2.80" data-x="1591228800" r="1" fill="white"><title>2020-06-04: 3</title></circle>
	<circle cx="204.89" cy="340.59" data-y="2.15" data-x="1591315200" r="1" fill="white"><title>2020-06-05: 2</title></circle>
	<circle cx="206.79" cy="343.59" data-y="1.96" data-x="1591401600" r="1" fill="white"><title>2020-06-06: 2</title></circle>
	<circle cx="208.68" cy="348.07" data-y="1.68" data-x="1591488000" r="1" fill="white"><title>2020-06-07: 2</title></circle>
	<circle cx="210.57" cy="349.57" data-y="1.59" data-x="1591574400" r="1" fill="white"><title>2020-06-08: 2</title></circle>
	<circle cx="212.47" cy="348.07" data-y="1.68" data-x="1591660800" r="1" fill="white"><title>2020-06-09: 2</title></circle>
	<circle cx="214.36" cy="342.09" data-y="2.05" data-x="1591747200" r="1" fill="white"><title>2020-06-10: 2</title></circle>
	<circle cx="216.26" cy="349.57" data-y="1.59" data-x="1591833600" r="1" fill="white"><title>2020-06-11: 2</title></circle>
	<circle cx="218.15" cy="348.07" data-y="1.68" data-x="1591920000" r="1" fill="white"><title>2020-06-12: 2</title></circle>
	<circle cx="220.04" cy="349.57" data-y="1.59" data-x="1592006400" r="1" fill="white"><title>2020-06-13: 2</title></circle>
	<circle cx="221.94" cy="346.58" data-y="1.77" data-x="1592092800" r="1" fill="white"><title>2020-06-14: 2</title></circle>
	<circle cx="223.83" cy="346.58" data-y="1.77" data-x="1592179200" r="1" fill="white"><title>2020-06-15: 2</title></circle>
	<circle cx="225.72" cy="351.07" data-y="1.49" data-x="1592265600" r="1" fill="white"><title>2020-06-16: 1</title></circle>
	<circle cx="227.62" cy="357.05" data-y="1.12" data-x="1592352000" r="1" fill="white"><title>2020-06-17: 1</title></circle>
	<circle cx="229.51" cy="357.05" data-y="1.12" data-x="1592438400" r="1" fill="white"><title>2020-06-18: 1</title></circle>
	<circle cx="231.40" cy="358.55" data-y="1.03" data-x="1592524800" r="1" fill="white"><title>2020-06-19: 1</title></circle>
	<circle cx="233.30" cy="357.05" data-y="1.12" data-x="1592611200" r="1" fill="white"><title>2020-06-20: 1</title></circle>
	<circle cx="235.19" cy="358.55" data-y="1.03" data-x="1592697600" r="1" fill="white"><title>2020-06-21: 1</title></circle>
	<circle cx="237.09" cy="357.05" data-y="1.12" data-x="1592784000" r="1" fill="white"><title>2020-06-22: 1</title></circle>
	<circle cx="238.98" cy="354.06" data-y="1.31" data-x="1592870400" r="1" fill="white"><title>2020-06-23: 1</title></circle>
	<circle cx="240.87" cy="348.07" data-y="1.68" data-x="1592956800" r="1" fill="white"><title>2020-06-24: 2</title></circle>
	<circle cx="242.77" cy="348.07" data-y="1.68" data-x="1593043200" r="1" fill="white"><title>2020-06-25: 2</title></circle>
	<circle cx="244.66" cy="349.57" data-y="1.59" data-x="1593129600" r="1" fill="white"><title>2020-06-26: 2</title></circle>
	<circle cx="246.55" cy="352.56" data-y="1.40" data-x="1593216000" r="1" fill="white"><title>2020-06-27: 1</title></circle>
	<circle cx="248.45" cy="354.06" data-y="1.31" data-x="1593302400" r="1" fill="white"><title>2020-06-28: 1</title></circle>
	<circle cx="250.34" cy="358.55" data-y="1.03" data-x="1593388800" r="1" fill="white"><title>2020-06-29: 1</title></circle>
	<circle cx="252.23" cy="360.04" data-y="0.93" data-x="1593475200" r="1" fill="white"><title>2020-06-30: 1</title></circle>
	<circle cx="254.13" cy="364.53" data-y="0.65" data-x="1593561600" r="1" fill="white"><title>2020-07-01: 1</title></circle>
	<circle cx="256.02" cy="360.04" data-y="0.93" data-x="1593648000" r="1" fill="white"><title>2020-07-02: 1</title></circle>
	<circle cx="257.91" cy="358.55" data-y="1.03" data-x="1593734400" r="1" fill="white"><title>2020-07-03: 1</title></circle>
	<circle cx="259.81" cy="358.55" data-y="1.03" data-x="1593820800" r="1" fill="white"><title>2020-07-04: 1</title></circle>
	<circle cx="261.70" cy="354.06" data-y="1.31" data-x="1593907200" r="1" fill="white"><title>2020-07-05: 1</title></circle>
	<circle cx="263.60" cy="348.07" data-y="1.68" data-x="1593993600" r="1" fill="white"><title>2020-07-06: 2</title></circle>
	<circle cx="265.49" cy="351.07" data-y="1.49" data-x="1594080000" r="1" fill="white"><title>2020-07-07: 1</title></circle>
	<circle cx="267.38" cy="352.56" data-y="1.40" data-x="1594166400" r="1" fill="white"><title>2020-07-08: 1</title></circle>
	<circle cx="269.28" cy="354.06" data-y="1.31" data-x="1594252800" r="1" fill="white"><title>2020-07-09: 1</title></circle>
	<circle cx="271.17" cy="357.05" data-y="1.12" data-x="1594339200" r="1" fill="white"><title>2020-07-10: 1</title></circle>
	<circle cx="273.06" cy="354.06" data-y="1.31" data-x="1594425600" r="1" fill="white"><title>2020-07-11: 1</title></circle>
	<circle cx="274.96" cy="355.55" data-y="1.21" data-x="1594512000" r="1" fill="white"><title>2020-07-12: 1</title></circle>
	<circle cx="276.85" cy="364.53" data-y="0.65" data-x="1594598400" r="1" fill="white"><title>2020-07-13: 1</title></circle>
	<circle cx="278.74" cy="360.04" data-y="0.93" data-x="1594684800" r="1" fill="white"><title>2020-07-14: 1</title></circle>
	<circle cx="280.64" cy="358.55" data-y="1.03" data-x="1594771200" r="1" fill="white"><title>2020-07-15: 1</title></circle>
	<circle cx="282.53" cy="358.55" data-y="1.03" data-x="1594857600" r="1" fill="white"><title>2020-07-16: 1</title></circle>
	<circle cx="284.43" cy="346.58" data-y="1.77" data-x="1594944000" r="1" fill="white"><title>2020-07-17: 2</title></circle>
	<circle cx="286.32" cy="339.10" data-y="2.24" data-x="1595030400" r="1" fill="white"><title>2020-07-18: 2</title></circle>
	<circle cx="288.21" cy="334.61" data-y="2.52" data-x="1595116800" r="1" fill="white"><title>2020-07-19: 3</title></circle>
	<circle cx="290.11" cy="330.12" data-y="2.80" data-x="1595203200" r="1" fill="white"><title>2020-07-20: 3</title></circle>
	<circle cx="292.00" cy="328.63" data-y="2.89" data-x="1595289600" r="1" fill="white"><title>2020-07-21: 3</title></circle>
	<circle cx="293.89" cy="325.64" data-y="3.08" data-x="1595376000" r="1" fill="white"><title>2020-07-22: 3</title></circle>
	<circle cx="295.79" cy="327.13" data-y="2.99" data-x="1595462400" r="1" fill="white"><title>2020-07-23: 3</title></circle>
	<circle cx="297.68" cy="325.64" data-y="3.08" data-x="1595548800" r="1" fill="white"><title>2020-07-24: 3</title></circle>
	<circle cx="299.57" cy="331.62" data-y="2.71" data-x="1595635200" r="1" fill="white"><title>2020-07-25: 3</title></circle>
	<circle cx="301.47" cy="336.11" data-y="2.43" data-x="1595721600" r="1" fill="white"><title>2020-07-26: 2</title></circle>
	<circle cx="303.36" cy="334.61" data-y="2.52" data-x="1595808000" r="1" fill="white"><title>2020-07-27: 3</title></circle>
	<circle cx="305.26" cy="340.59" data-y="2.15" data-x="1595894400" r="1" fill="white"><title>2020-07-28: 2</title></circle>
	<circle cx="307.15" cy="343.59" data-y="1.96" data-x="1595980800" r="1" fill="white"><title>2020-07-29: 2</title></circle>
	<circle cx="309.04" cy="343.59" data-y="1.96" data-x="1596067200" r="1" fill="white"><title>2020-07-30: 2</title></circle>
	<circle cx="310.94" cy="357.05" data-y="1.12" data-x="1596153600" r="1" fill="white"><title>2020-07-31: 1</title></circle>
	<circle cx="312.83" cy="357.05" data-y="1.12" data-x="1596240000" r="1" fill="white"><title>2020-08-01: 1</title></circle>
	<circle cx="314.72" cy="358.55" data-y="1.03" data-x="1596326400" r="1" fill="white"><title>2020-08-02: 1</title></circle>
	<circle cx="316.62" cy="357.05" data-y="1.12" data-x="1596412800" r="1" fill="white"><title>2020-08-03: 1</title></circle>
	<circle cx="318.51" cy="351.07" data-y="1.49" data-x="1596499200" r="1" fill="white"><title>2020-08-04: 1</title></circle>
	<circle cx="320.40" cy="349.57" data-y="1.59" data-x="1596585600" r="1" fill="white"><title>2020-08-05: 2</title></circle>
	<circle cx="322.30" cy="346.58" data-y="1.77" data-x="1596672000" r="1" fill="white"><title>2020-08-06: 2</title></circle>
	<circle cx="324.19" cy="339.10" data-y="2.24" data-x="1596758400" r="1" fill="white"><title>2020-08-07: 2</title></circle>
	<circle cx="326.09" cy="333.11" data-y="2.61" data-x="1596844800" r="1" fill="white"><title>2020-08-08: 3</title></circle>
	<circle cx="327.98" cy="330.12" data-y="2.80" data-x="1596931200" r="1" fill="white"><title>2020-08-09: 3</title></circle>
	<circle cx="329.87" cy="337.60" data-y="2.33" data-x="1597017600" r="1" fill="white"><title>2020-08-10: 2</title></circle>
	<circle cx="331.77" cy="333.11" data-y="2.61" data-x="1597104000" r="1" fill="white"><title>2020-08-11: 3</title></circle>
	<circle cx="333.66" cy="327.13" data-y="2.99" data-x="1597190400" r="1" fill="white"><title>2020-08-12: 3</title></circle>
	<circle cx="335.55" cy="330.12" data-y="2.80" data-x="1597276800" r="1" fill="white"><title>2020-08-13: 3</title></circle>
	<circle cx="337.45" cy="333.11" data-y="2.61" data-x="1597363200" r="1" fill="white"><title>2020-08-14: 3</title></circle>
	<circle cx="339.34" cy="334.61" data-y="2.52" data-x="1597449600" r="1" fill="white"><title>2020-08-15: 3</title></circle>
	<circle cx="341.23" cy="331.62" data-y="2.71" data-x="1597536000" r="1" fill="white"><title>2020-08-16: 3</title></circle>
	<circle cx="343.13" cy="318.16" data-y="3.55" data-x="1597622400" r="1" fill="white"><title>2020-08-17: 4</title></circle>
	<circle cx="345.02" cy="312.17" data-y="3.92" data-x="1597708800" r="1" fill="white"><title>2020-08-18: 4</title></circle>
	<circle cx="346.91" cy="313.67" data-y="3.83" data-x="1597795200" r="1" fill="white"><title>2020-08-19: 4</title></circle>
	<circle cx="348.81" cy="304.69" data-y="4.39" data-x="1597881600" r="1" fill="white"><title>2020-08-20: 4</title></circle>
	<circle cx="350.70" cy="301.70" data-y="4.58" data-x="1597968000" r="1" fill="white"><title>2020-08-21: 5</title></circle>
	<circle cx="352.60" cy="309.18" data-y="4.11" data-x="1598054400" r="1" fill="white"><title>2020-08-22: 4</title></circle>
	<circle cx="354.49" cy="316.66" data-y="3.64" data-x="1598140800" r="1" fill="white"><title>2020-08-23: 4</title></circle>
	<circle cx="356.38" cy="327.13" data-y="2.99" data-x="1598227200" r="1" fill="white"><title>2020-08-24: 3</title></circle>
	<circle cx="358.28" cy="340.59" data-y="2.15" data-x="1598313600" r="1" fill="white"><title>2020-08-25: 2</title></circle>
	<circle cx="360.17" cy="346.58" data-y="1.77" data-x="1598400000" r="1" fill="white"><title>2020-08-26: 2</title></circle>
	<circle cx="362.06" cy="354.06" data-y="1.31" data-x="1598486400" r="1" fill="white"><title>2020-08-27: 1</title></circle>
	<circle cx="363.96" cy="358.55" data-y="1.03" data-x="1598572800" r="1" fill="white"><title>2020-08-28: 1</title></circle>
	<circle cx="365.85" cy="349.57" data-y="1.59" data-x="1598659200" r="1" fill="white"><title>2020-08-29: 2</title></circle>
	<circle cx="367.74" cy="342.09" data-y="2.05" data-x="1598745600" r="1" fill="white"><title>2020-08-30: 2</title></circle>
	<circle cx="369.64" cy="340.59" data-y="2.15" data-x="1598832000" r="1" fill="white"><title>2020-08-31: 2</title></circle>
	<circle cx="371.53" cy="331.62" data-y="2.71" data-x="1598918400" r="1" fill="white"><title>2020-09-01: 3</title></circle>
	<circle cx="373.43" cy="322.64" data-y="3.27" data-x="1599004800" r="1" fill="white"><title>2020-09-02: 3</title></circle>
	<circle cx="375.32" cy="318.16" data-y="3.55" data-x="1599091200" r="1" fill="white"><title>2020-09-03: 4</title></circle>
	<circle cx="377.21" cy="313.67" data-y="3.83" data-x="1599177600" r="1" fill="white"><title>2020-09-04: 4</title></circle>
	<circle cx="379.11" cy="310.68" data-y="4.02" data-x="1599264000" r="1" fill="white"><title>2020-09-05: 4</title></circle>
	<circle cx="381.00" cy="312.17" data-y="3.92" data-x="1599350400" r="1" fill="white"><title>2020-09-06: 4</title></circle>
	<circle cx="382.89" cy="310.68" data-y="4.02" data-x="1599436800" r="1" fill="white"><title>2020-09-07: 4</title></circle>
	<circle cx="384.79" cy="312.17" data-y="3.92" data-x="1599523200" r="1" fill="white"><title>2020-09-08: 4</title></circle>
	<circle cx="386.68" cy="312.17" data-y="3.92" data-x="1599609600" r="1" fill="white"><title>2020-09-09: 4</title></circle>
	<circle cx="388.57" cy="315.16" data-y="3.73" data-x="1599696000" r="1" fill="white"><title>2020-09-10: 4</title></circle>
	<circle cx="390.47" cy="318.16" data-y="3.55" data-x="1599782400" r="1" fill="white"><title>2020-09-11: 4</title></circle>
	<circle cx="392.36" cy="325.64" data-y="3.08" data-x="1599868800" r="1" fill="white"><title>2020-09-12: 3</title></circle>
	<circle cx="394.26" cy="324.14" data-y="3.17" data-x="1599955200" r="1" fill="white"><title>2020-09-13: 3</title></circle>
	<circle cx="396.15" cy="318.16" data-y="3.55" data-x="1600041600" r="1" fill="white"><title>2020-09-14: 4</title></circle>
	<circle cx="398.04" cy="325.64" data-y="3.08" data-x="1600128000" r="1" fill="white"><title>2020-09-15: 3</title></circle>
	<circle cx="399.94" cy="325.64" data-y="3.08" data-x="1600214400" r="1" fill="white"><title>2020-09-16: 3</title></circle>
	<circle cx="401.83" cy="304.69" data-y="4.39" data-x="1600300800" r="1" fill="white"><title>2020-09-17: 4</title></circle>
	<circle cx="403.72" cy="301.70" data-y="4.58" data-x="1600387200" r="1" fill="white"><title>2020-09-18: 5</title></circle>
	<circle cx="405.62" cy="301.70" data-y="4.58" data-x="1600473600" r="1" fill="white"><title>2020-09-19: 5</title></circle>
	<circle cx="407.51" cy="298.71" data-y="4.76" data-x="1600560000" r="1" fill="white"><title>2020-09-20: 5</title></circle>
	<circle cx="409.40" cy="288.24" data-y="5.42" data-x="1600646400" r="1" fill="white"><title>2020-09-21: 5</title></circle>
	<circle cx="411.30" cy="252.34" data-y="7.66" data-x="1600732800" r="1" fill="white"><title>2020-09-22: 8</title></circle>
	<circle cx="413.19" cy="234.39" data-y="8.78" data-x="1600819200" r="1" fill="white"><title>2020-09-23: 9</title></circle>
	<circle cx="415.09" cy="235.88" data-y="8.68" data-x="1600905600" r="1" fill="white"><title>2020-09-24: 9</title></circle>
	<circle cx="416.98" cy="211.95" data-y="10.18" data-x="1600992000" r="1" fill="white"><title>2020-09-25: 10</title></circle>
	<circle cx="418.87" cy="177.54" data-y="12.33" data-x="1601078400" r="1" fill="white"><title>2020-09-26: 12</title></circle>
	<circle cx="420.77" cy="144.63" data-y="14.38" data-x="1601164800" r="1" fill="white"><title>2020-09-27: 14</title></circle>
	<circle cx="422.66" cy="128.18" data-y="15.41" data-x="1601251200" r="1" fill="white"><title>2020-09-28: 15</title></circle>
	<circle cx="424.55" cy="141.64" data-y="14.57" data-x="1601337600" r="1" fill="white"><title>2020-09-29: 15</title></circle>
	<circle cx="426.45" cy="134.16" data-y="15.03" data-x="1601424000" r="1" fill="white"><title>2020-09-30: 15</title></circle>
	<circle cx="428.34" cy="114.71" data-y="16.25" data-x="1601510400" r="1" fill="white"><title>2020-10-01: 16</title></circle>
	<circle cx="430.23" cy="92.27" data-y="17.65" data-x="1601596800" r="1" fill="white"><title>2020-10-02: 18</title></circle>
	<circle cx="432.13" cy="92.27" data-y="17.65" data-x="1601683200" r="1" fill="white"><title>2020-10-03: 18</title></circle>
	<circle cx="434.02" cy="77.32" data-y="18.58" data-x="1601769600" r="1" fill="white"><title>2020-10-04: 19</title></circle>
	<circle cx="435.91" cy="39.92" data-y="20.92" data-x="1601856000" r="1" fill="white"><title>2020-10-05: 21</title></circle>
	<circle cx="437.81" cy="10.00" data-y="22.78" data-x="1601942400" r="1" fill="white"><title>2020-10-06: 23</title></circle>
	<circle cx="439.70" cy="23.46" data-y="21.94" data-x="1602028800" r="1" fill="white"><title>2020-10-07: 22</title></circle>
	<circle cx="441.60" cy="50.39" data-y="20.26" data-x="1602115200" r="1" fill="white"><title>2020-10-08: 20</title></circle>
	<circle cx="443.49" cy="54.88" data-y="19.98" data-x="1602201600" r="1" fill="white"><title>2020-10-09: 20</title></circle>
	<circle cx="445.38" cy="39.92" data-y="20.92" data-x="1602288000" r="1" fill="white"><title>2020-10-10: 21</title></circle>
	<circle cx="447.28" cy="54.88" data-y="19.98" data-x="1602374400" r="1" fill="white"><title>2020-10-11: 20</title></circle>
	<circle cx="449.17" cy="96.76" data-y="17.37" data-x="1602460800" r="1" fill="white"><title>2020-10-12: 17</title></circle>
	<circle cx="451.06" cy="99.75" data-y="17.18" data-x="1602547200" r="1" fill="white"><title>2020-10-13: 17</title></circle>
	<circle cx="452.96" cy="89.28" data-y="17.83" data-x="1602633600" r="1" fill="white"><title>2020-10-14: 18</title></circle>
	<circle cx="454.85" cy="81.80" data-y="18.30" data-x="1602720000" r="1" fill="white"><title>2020-10-15: 18</title></circle>
	<circle cx="456.74" cy="72.83" data-y="18.86" data-x="1602806400" r="1" fill="white"><title>2020-10-16: 19</title></circle>
	<circle cx="458.64" cy="80.31" data-y="18.39" data-x="1602892800" r="1" fill="white"><title>2020-10-17: 18</title></circle>
	<circle cx="460.53" cy="69.84" data-y="19.05" data-x="1602979200" r="1" fill="white"><title>2020-10-18: 19</title></circle>
</g>
<g data-series="recent-cases" class="data-series">
	<path d="M 460.53,69.84L 462.43,96.76L 464.32,149.12L 466.21,149.87L 468.11,138.35L 470.00,181.28" id="Recent cases" class="line" stroke-width="1" stroke-linecap="round" stroke-dasharray="4,6" stroke-dashoffset="4"><title>Recent cases</title></path>
	<circle cx="460.53" cy="69.84" data-y="19.05" data-x="1602979200" r="2.5" fill="white"><title>2020-10-18: 19</title></circle>
	<circle cx="462.43" cy="96.76" data-y="17.37" data-x="1603065600" r="2.5" fill="white"><title>2020-10-19: 17</title></circle>
	<circle cx="464.32" cy="149.12" data-y="14.10" data-x="1603152000" r="2.5" fill="white"><title>2020-10-20: 14</title></circle>
	<circle cx="466.21" cy="149.87" data-y="14.05" data-x="1603238400" r="2.5" fill="white"><title>2020-10-21: 14</title></circle>
	<circle cx="468.11" cy="138.35" data-y="14.77" data-x="1603324800" r="2.5" fill="white"><title>2020-10-22: 15</title></circle>
	<circle cx="470.00" cy="181.28" data-y="12.09" data-x="1603411200" r="2.5" fill="white"><title>2020-10-23: 12</title></circle>
</g>
</svg>
