<svg width="480" height="400" viewBox="0 0 480 400" xmlns="http://www.w3.org/2000/svg" style="overflow:display" preserveAspectRatio="xMinYMin meet" overflow="visible">
<defs>
	<style>
	.data-series path.line { fill-opacity: 0; stroke: black; }
	.data-series path.line.dotted { stroke-dasharray: 12 20 }
	.data-series:hover path.line, .data-series.on path.line { stroke-width: 1; }
	.data-series:hover circle, .data-series.on circle { display: inline; }
	.graph-grid { font-family: "Helvetica Neue",Helvetica,Arial,"Lucida Grande",sans-serif; }
	.graph-grid line { stroke: black; stroke-width: 1; stroke-linecap: round; }
	.graph-grid.graph-grid-x text { text-anchor: middle; dominant-baseline: hanging; transform: translateY(10px); }
	.graph-grid.graph-grid-y text { text-anchor: end; dominant-baseline: middle; transform: translateX(-10px); }
	</style>
</defs>
<g class="graph-grid graph-grid-y">
	<line x1="25.00" y1="375.00" x2="470.00" y2="375.00" data-left="25"></line>
	<text x="35" y="375" text-anchor="end">0</text>
	<text x="35" y="276.807856568365" text-anchor="end">20</text>
	<text x="35" y="178.615713136729" text-anchor="end">40</text>
	<text x="35" y="80.4235697050939" text-anchor="end">60</text>
	<text style="text-anchor:middle;dominant-baseline:hanging;font-weight:bold;transform: translateY(192.5px) rotate(-90deg);"></text>
</g>
<g class="graph-grid graph-grid-x">
	<line class="tick" x1="68.53" y1="375.00" x2="68.53" y2="380.00"></line>
	<text x="68.5326086956522" y="375" text-anchor="middle">A</text>
	<line class="tick" x1="116.90" y1="375.00" x2="116.90" y2="380.00"></line>
	<text x="116.902173913043" y="375" text-anchor="middle">M</text>
	<line class="tick" x1="166.88" y1="375.00" x2="166.88" y2="380.00"></line>
	<text x="166.884057971014" y="375" text-anchor="middle">J</text>
	<line class="tick" x1="215.25" y1="375.00" x2="215.25" y2="380.00"></line>
	<text x="215.253623188406" y="375" text-anchor="middle">J</text>
	<line class="tick" x1="265.24" y1="375.00" x2="265.24" y2="380.00"></line>
	<text x="265.235507246377" y="375" text-anchor="middle">A</text>
	<line class="tick" x1="315.22" y1="375.00" x2="315.22" y2="380.00"></line>
	<text x="315.217391304348" y="375" text-anchor="middle">S</text>
	<line class="tick" x1="363.59" y1="375.00" x2="363.59" y2="380.00"></line>
	<text x="363.586956521739" y="375" text-anchor="middle">O</text>
	<line class="tick" x1="413.57" y1="375.00" x2="413.57" y2="380.00"></line>
	<text x="413.56884057971" y="375" text-anchor="middle">N</text>
	<line class="tick" x1="461.94" y1="375.00" x2="461.94" y2="380.00"></line>
	<text x="461.938405797101" y="375" text-anchor="middle">D</text>
	<text style="text-anchor:middle;dominant-baseline:hanging;font-weight:bold;transform: translateY(192.5px) rotate(-90deg);"></text>
</g>
<g data-series="widespread" class="data-series">
	<path d="M 25.00,340.63L 470.00,340.63" id="E07000114-level-0" class="line" stroke-width="1" stroke-linecap="round" stroke-dasharray="3,3" fill-opacity="0.3" opacity="0.3"><title>Widespread</title></path>
</g>
<g data-series="substantial" class="data-series">
	<path d="M 25.00,355.36L 470.00,355.36" id="E07000114-level-1" class="line" stroke-width="1" stroke-linecap="round" stroke-dasharray="3,3" fill-opacity="0.3" opacity="0.3"><title>Substantial</title></path>
</g>
<g data-series="moderate" class="data-series">
	<path d="M 25.00,370.09L 470.00,370.09" id="E07000114-level-2" class="line" stroke-width="1" stroke-linecap="round" stroke-dasharray="3,3" fill-opacity="0.3" opacity="0.3"><title>Moderate</title></path>
</g>
<g data-series="new-cases" class="data-series">
	<path d="M 25.00,372.43L 26.61,372.95L 28.22,373.29L 29.84,373.53L 31.45,374.51L 33.06,373.04L 34.67,373.04L 36.29,373.53L 37.90,373.53L 39.51,373.53L 41.12,373.53L 42.74,373.04L 44.35,373.53L 45.96,373.04L 47.57,373.04L 49.18,370.60L 50.80,369.13L 52.41,367.66L 54.02,366.68L 55.63,364.24L 57.25,362.28L 58.86,358.36L 60.47,358.85L 62.08,358.36L 63.70,354.45L 65.31,352.49L 66.92,350.54L 68.53,350.54L 70.14,352.98L 71.76,348.09L 73.37,341.73L 74.98,342.71L 76.59,336.35L 78.21,331.94L 79.82,329.01L 81.43,318.24L 83.04,317.27L 84.66,325.58L 86.27,310.42L 87.88,308.46L 89.49,301.61L 91.11,298.67L 92.72,305.52L 94.33,303.57L 95.94,286.44L 97.55,299.16L 99.17,305.03L 100.78,314.33L 102.39,315.80L 104.00,316.78L 105.62,319.22L 107.23,328.03L 108.84,326.56L 110.45,328.03L 112.07,330.97L 113.68,333.90L 115.29,337.33L 116.90,338.79L 118.51,343.20L 120.13,346.13L 121.74,347.11L 123.35,347.11L 124.96,346.62L 126.58,347.11L 128.19,347.60L 129.80,350.05L 131.41,352.98L 133.03,352.00L 134.64,351.03L 136.25,352.49L 137.86,346.13L 139.47,349.56L 141.09,345.64L 142.70,340.75L 144.31,338.30L 145.92,341.73L 147.54,344.18L 149.15,347.11L 150.76,344.66L 152.37,349.07L 153.99,353.47L 155.60,360.32L 157.21,361.30L 158.82,361.30L 160.43,363.26L 162.05,366.68L 163.66,367.66L 165.27,368.64L 166.88,367.17L 168.50,366.68L 170.11,366.68L 171.72,368.64L 173.33,365.21L 174.95,363.26L 176.56,360.81L 178.17,362.28L 179.78,363.75L 181.39,364.24L 183.01,359.83L 184.62,361.79L 186.23,361.79L 187.84,365.70L 189.46,363.26L 191.07,362.28L 192.68,360.32L 194.29,364.24L 195.91,364.24L 197.52,364.73L 199.13,363.75L 200.74,366.19L 202.36,366.68L 203.97,367.17L 205.58,365.70L 207.19,367.17L 208.80,367.17L 210.42,367.66L 212.03,366.68L 213.64,365.21L 215.25,366.19L 216.87,366.19L 218.48,364.73L 220.09,365.70L 221.70,365.21L 223.32,363.75L 224.93,365.21L 226.54,364.73L 228.15,365.70L 229.76,366.68L 231.38,365.21L 232.99,365.70L 234.60,366.19L 236.21,365.70L 237.83,366.19L 239.44,365.70L 241.05,365.70L 242.66,366.19L 244.28,366.19L 245.89,367.66L 247.50,368.15L 249.11,368.15L 250.72,368.15L 252.34,368.64L 253.95,367.17L 255.56,367.17L 257.17,367.17L 258.79,367.66L 260.40,367.17L 262.01,368.64L 263.62,368.64L 265.24,371.58L 266.85,371.58L 268.46,372.06L 270.07,372.06L 271.68,373.04L 273.30,373.04L 274.91,372.55L 276.52,371.58L 278.13,372.06L 279.75,372.06L 281.36,371.09L 282.97,371.09L 284.58,371.09L 286.20,372.55L 287.81,373.53L 289.42,374.02L 291.03,373.53L 292.64,374.51L 294.26,374.51L 295.87,374.51L 297.48,372.55L 299.09,372.06L 300.71,370.60L 302.32,370.60L 303.93,370.60L 305.54,369.13L 307.16,368.64L 308.77,370.60L 310.38,370.60L 311.99,371.58L 313.61,372.06L 315.22,371.58L 316.83,372.55L 318.44,372.55L 320.05,372.06L 321.67,371.09L 323.28,370.60L 324.89,369.13L 326.50,368.64L 328.12,369.13L 329.73,368.64L 331.34,368.64L 332.95,369.62L 334.57,370.60L 336.18,372.06L 337.79,372.55L 339.40,372.55L 341.01,372.55L 342.63,372.55L 344.24,371.58L 345.85,369.62L 347.46,368.64L 349.08,369.13L 350.69,368.15L 352.30,367.66L 353.91,366.19L 355.53,366.19L 357.14,365.21L 358.75,362.77L 360.36,359.83L 361.97,359.83L 363.59,359.34L 365.20,357.88L 366.81,356.90L 368.42,357.88L 370.04,360.81L 371.65,359.34L 373.26,357.88L 374.87,359.83L 376.49,358.85L 378.10,358.36L 379.71,354.45L 381.32,351.51L 382.93,351.03L 384.55,349.07L 386.16,345.64L 387.77,338.30L 389.38,331.45L 391.00,326.07L 392.61,318.73L 394.22,309.44L 395.83,300.14L 397.45,297.21L 399.06,288.40L 400.67,278.12L 402.28,265.40L 403.89,259.53L 405.51,255.13L 407.12,254.64L 408.73,246.32L 410.34,226.26L 411.96,216.47L 413.57,211.09L 415.18,188.59L 416.79,171.95L 418.41,148.95L 420.02,127.43L 421.63,101.98L 423.24,78.99L 424.86,55.01L 426.47,38.38L 428.08,10.00L 429.69,15.87L 431.30,11.96L 432.92,12.45L 434.53,11.47L 436.14,18.32L 437.75,25.17L 439.37,39.36L 440.98,38.38L 442.59,49.63L 444.20,49.14L 445.82,59.42L 447.43,52.08L 449.04,66.76L 450.65,60.88L 452.26,54.52L 453.88,46.70L 455.49,65.78L 457.10,71.16L 458.71,81.43L 460.33,62.84L 461.94,75.56" id="New cases" class="line" stroke-width="1" stroke-linecap="round"><title>New cases</title></path>
	<circle cx="25.00" cy="372.43" data-y="0.52" data-x="1583366400" r="1" fill="white"><title>2020-03-05: 1</title></circle>
	<circle cx="26.61" cy="372.95" data-y="0.42" data-x="1583452800" r="1" fill="white"><title>2020-03-06: 0</title></circle>
	<circle cx="28.22" cy="373.29" data-y="0.35" data-x="1583539200" r="1" fill="white"><title>2020-03-07: 0</title></circle>
	<circle cx="29.84" cy="373.53" data-y="0.30" data-x="1583625600" r="1" fill="white"><title>2020-03-08: 0</title></circle>
	<circle cx="31.45" cy="374.51" data-y="0.10" data-x="1583712000" r="1" fill="white"><title>2020-03-09: 0</title></circle>
	<circle cx="33.06" cy="373.04" data-y="0.40" data-x="1583798400" r="1" fill="white"><title>2020-03-10: 0</title></circle>
	<circle cx="34.67" cy="373.04" data-y="0.40" data-x="1583884800" r="1" fill="white"><title>2020-03-11: 0</title></circle>
	<circle cx="36.29" cy="373.53" data-y="0.30" data-x="1583971200" r="1" fill="white"><title>2020-03-12: 0</title></circle>
	<circle cx="37.90" cy="373.53" data-y="0.30" data-x="1584057600" r="1" fill="white"><title>2020-03-13: 0</title></circle>
	<circle cx="39.51" cy="373.53" data-y="0.30" data-x="1584144000" r="1" fill="white"><title>2020-03-14: 0</title></circle>
	<circle cx="41.12" cy="373.53" data-y="0.30" data-x="1584230400" r="1" fill="white"><title>2020-03-15: 0</title></circle>
	<circle cx="42.74" cy="373.04" data-y="0.40" data-x="1584316800" r="1" fill="white"><title>2020-03-16: 0</title></circle>
	<circle cx="44.35" cy="373.53" data-y="0.30" data-x="1584403200" r="1" fill="white"><title>2020-03-17: 0</title></circle>
	<circle cx="45.96" cy="373.04" data-y="0.40" data-x="1584489600" r="1" fill="white"><title>2020-03-18: 0</title></circle>
	<circle cx="47.57" cy="373.04" data-y="0.40" data-x="1584576000" r="1" fill="white"><title>2020-03-19: 0</title></circle>
	<circle cx="49.18" cy="370.60" data-y="0.90" data-x="1584662400" r="1" fill="white"><title>2020-03-20: 1</title></circle>
	<circle cx="50.80" cy="369.13" data-y="1.20" data-x="1584748800" r="1" fill="white"><title>2020-03-21: 1</title></circle>
	<circle cx="52.41" cy="367.66" data-y="1.49" data-x="1584835200" r="1" fill="white"><title>2020-03-22: 1</title></circle>
	<circle cx="54.02" cy="366.68" data-y="1.69" data-x="1584921600" r="1" fill="white"><title>2020-03-23: 2</title></circle>
	<circle cx="55.63" cy="364.24" data-y="2.19" data-x="1585008000" r="1" fill="white"><title>2020-03-24: 2</title></circle>
	<circle cx="57.25" cy="362.28" data-y="2.59" data-x="1585094400" r="1" fill="white"><title>2020-03-25: 3</title></circle>
	<circle cx="58.86" cy="358.36" data-y="3.39" data-x="1585180800" r="1" fill="white"><title>2020-03-26: 3</title></circle>
	<circle cx="60.47" cy="358.85" data-y="3.29" data-x="1585267200" r="1" fill="white"><title>2020-03-27: 3</title></circle>
	<circle cx="62.08" cy="358.36" data-y="3.39" data-x="1585353600" r="1" fill="white"><title>2020-03-28: 3</title></circle>
	<circle cx="63.70" cy="354.45" data-y="4.19" data-x="1585440000" r="1" fill="white"><title>2020-03-29: 4</title></circle>
	<circle cx="65.31" cy="352.49" data-y="4.58" data-x="1585526400" r="1" fill="white"><title>2020-03-30: 5</title></circle>
	<circle cx="66.92" cy="350.54" data-y="4.98" data-x="1585612800" r="1" fill="white"><title>2020-03-31: 5</title></circle>
	<circle cx="68.53" cy="350.54" data-y="4.98" data-x="1585699200" r="1" fill="white"><title>2020-04-01: 5</title></circle>
	<circle cx="70.14" cy="352.98" data-y="4.48" data-x="1585785600" r="1" fill="white"><title>2020-04-02: 4</title></circle>
	<circle cx="71.76" cy="348.09" data-y="5.48" data-x="1585872000" r="1" fill="white"><title>2020-04-03: 5</title></circle>
	<circle cx="73.37" cy="341.73" data-y="6.78" data-x="1585958400" r="1" fill="white"><title>2020-04-04: 7</title></circle>
	<circle cx="74.98" cy="342.71" data-y="6.58" data-x="1586044800" r="1" fill="white"><title>2020-04-05: 7</title></circle>
	<circle cx="76.59" cy="336.35" data-y="7.87" data-x="1586131200" r="1" fill="white"><title>2020-04-06: 8</title></circle>
	<circle cx="78.21" cy="331.94" data-y="8.77" data-x="1586217600" r="1" fill="white"><title>2020-04-07: 9</title></circle>
	<circle cx="79.82" cy="329.01" data-y="9.37" data-x="1586304000" r="1" fill="white"><title>2020-04-08: 9</title></circle>
	<circle cx="81.43" cy="318.24" data-y="11.56" data-x="1586390400" r="1" fill="white"><title>2020-04-09: 12</title></circle>
	<circle cx="83.04" cy="317.27" data-y="11.76" data-x="1586476800" r="1" fill="white"><title>2020-04-10: 12</title></circle>
	<circle cx="84.66" cy="325.58" data-y="10.07" data-x="1586563200" r="1" fill="white"><title>2020-04-11: 10</title></circle>
	<circle cx="86.27" cy="310.42" data-y="13.15" data-x="1586649600" r="1" fill="white"><title>2020-04-12: 13</title></circle>
	<circle cx="87.88" cy="308.46" data-y="13.55" data-x="1586736000" r="1" fill="white"><title>2020-04-13: 14</title></circle>
	<circle cx="89.49" cy="301.61" data-y="14.95" data-x="1586822400" r="1" fill="white"><title>2020-04-14: 15</title></circle>
	<circle cx="91.11" cy="298.67" data-y="15.55" data-x="1586908800" r="1" fill="white"><title>2020-04-15: 16</title></circle>
	<circle cx="92.72" cy="305.52" data-y="14.15" data-x="1586995200" r="1" fill="white"><title>2020-04-16: 14</title></circle>
	<circle cx="94.33" cy="303.57" data-y="14.55" data-x="1587081600" r="1" fill="white"><title>2020-04-17: 15</title></circle>
	<circle cx="95.94" cy="286.44" data-y="18.04" data-x="1587168000" r="1" fill="white"><title>2020-04-18: 18</title></circle>
	<circle cx="97.55" cy="299.16" data-y="15.45" data-x="1587254400" r="1" fill="white"><title>2020-04-19: 15</title></circle>
	<circle cx="99.17" cy="305.03" data-y="14.25" data-x="1587340800" r="1" fill="white"><title>2020-04-20: 14</title></circle>
	<circle cx="100.78" cy="314.33" data-y="12.36" data-x="1587427200" r="1" fill="white"><title>2020-04-21: 12</title></circle>
	<circle cx="102.39" cy="315.80" data-y="12.06" data-x="1587513600" r="1" fill="white"><title>2020-04-22: 12</title></circle>
	<circle cx="104.00" cy="316.78" data-y="11.86" data-x="1587600000" r="1" fill="white"><title>2020-04-23: 12</title></circle>
	<circle cx="105.62" cy="319.22" data-y="11.36" data-x="1587686400" r="1" fill="white"><title>2020-04-24: 11</title></circle>
	<circle cx="107.23" cy="328.03" data-y="9.57" data-x="1587772800" r="1" fill="white"><title>2020-04-25: 10</title></circle>
	<circle cx="108.84" cy="326.56" data-y="9.87" data-x="1587859200" r="1" fill="white"><title>2020-04-26: 10</title></circle>
	<circle cx="110.45" cy="328.03" data-y="9.57" data-x="1587945600" r="1" fill="white"><title>2020-04-27: 10</title></circle>
	<circle cx="112.07" cy="330.97" data-y="8.97" data-x="1588032000" r="1" fill="white"><title>2020-04-28: 9</title></circle>
	<circle cx="113.68" cy="333.90" data-y="8.37" data-x="1588118400" r="1" fill="white"><title>2020-04-29: 8</title></circle>
	<circle cx="115.29" cy="337.33" data-y="7.67" data-x="1588204800" r="1" fill="white"><title>2020-04-30: 8</title></circle>
	<circle cx="116.90" cy="338.79" data-y="7.37" data-x="1588291200" r="1" fill="white"><title>2020-05-01: 7</title></circle>
	<circle cx="118.51" cy="343.20" data-y="6.48" data-x="1588377600" r="1" fill="white"><title>2020-05-02: 6</title></circle>
	<circle cx="120.13" cy="346.13" data-y="5.88" data-x="1588464000" r="1" fill="white"><title>2020-05-03: 6</title></circle>
	<circle cx="121.74" cy="347.11" data-y="5.68" data-x="1588550400" r="1" fill="white"><title>2020-05-04: 6</title></circle>
	<circle cx="123.35" cy="347.11" data-y="5.68" data-x="1588636800" r="1" fill="white"><title>2020-05-05: 6</title></circle>
	<circle cx="124.96" cy="346.62" data-y="5.78" data-x="1588723200" r="1" fill="white"><title>2020-05-06: 6</title></circle>
	<circle cx="126.58" cy="347.11" data-y="5.68" data-x="1588809600" r="1" fill="white"><title>2020-05-07: 6</title></circle>
	<circle cx="128.19" cy="347.60" data-y="5.58" data-x="1588896000" r="1" fill="white"><title>2020-05-08: 6</title></circle>
	<circle cx="129.80" cy="350.05" data-y="5.08" data-x="1588982400" r="1" fill="white"><title>2020-05-09: 5</title></circle>
	<circle cx="131.41" cy="352.98" data-y="4.48" data-x="1589068800" r="1" fill="white"><title>2020-05-10: 4</title></circle>
	<circle cx="133.03" cy="352.00" data-y="4.68" data-x="1589155200" r="1" fill="white"><title>2020-05-11: 5</title></circle>
	<circle cx="134.64" cy="351.03" data-y="4.88" data-x="1589241600" r="1" fill="white"><title>2020-05-12: 5</title></circle>
	<circle cx="136.25" cy="352.49" data-y="4.58" data-x="1589328000" r="1" fill="white"><title>2020-05-13: 5</title></circle>
	<circle cx="137.86" cy="346.13" data-y="5.88" data-x="1589414400" r="1" fill="white"><title>2020-05-14: 6</title></circle>
	<circle cx="139.47" cy="349.56" data-y="5.18" data-x="1589500800" r="1" fill="white"><title>2020-05-15: 5</title></circle>
	<circle cx="141.09" cy="345.64" data-y="5.98" data-x="1589587200" r="1" fill="white"><title>2020-05-16: 6</title></circle>
	<circle cx="142.70" cy="340.75" data-y="6.98" data-x="1589673600" r="1" fill="white"><title>2020-05-17: 7</title></circle>
	<circle cx="144.31" cy="338.30" data-y="7.47" data-x="1589760000" r="1" fill="white"><title>2020-05-18: 7</title></circle>
	<circle cx="145.92" cy="341.73" data-y="6.78" data-x="1589846400" r="1" fill="white"><title>2020-05-19: 7</title></circle>
	<circle cx="147.54" cy="344.18" data-y="6.28" data-x="1589932800" r="1" fill="white"><title>2020-05-20: 6</title></circle>
	<circle cx="149.15" cy="347.11" data-y="5.68" data-x="1590019200" r="1" fill="white"><title>2020-05-21: 6</title></circle>
	<circle cx="150.76" cy="344.66" data-y="6.18" data-x="1590105600" r="1" fill="white"><title>2020-05-22: 6</title></circle>
	<circle cx="152.37" cy="349.07" data-y="5.28" data-x="1590192000" r="1" fill="white"><title>2020-05-23: 5</title></circle>
	<circle cx="153.99" cy="353.47" data-y="4.38" data-x="1590278400" r="1" fill="white"><title>2020-05-24: 4</title></circle>
	<circle cx="155.60" cy="360.32" data-y="2.99" data-x="1590364800" r="1" fill="white"><title>2020-05-25: 3</title></circle>
	<circle cx="157.21" cy="361.30" data-y="2.79" data-x="1590451200" r="1" fill="white"><title>2020-05-26: 3</title></circle>
	<circle cx="158.82" cy="361.30" data-y="2.79" data-x="1590537600" r="1" fill="white"><title>2020-05-27: 3</title></circle>
	<circle cx="160.43" cy="363.26" data-y="2.39" data-x="1590624000" r="1" fill="white"><title>2020-05-28: 2</title></circle>
	<circle cx="162.05" cy="366.68" data-y="1.69" data-x="1590710400" r="1" fill="white"><title>2020-05-29: 2</title></circle>
	<circle cx="163.66" cy="367.66" data-y="1.49" data-x="1590796800" r="1" fill="white"><title>2020-05-30: 1</title></circle>
	<circle cx="165.27" cy="368.64" data-y="1.30" data-x="1590883200" r="1" fill="white"><title>2020-05-31: 1</title></circle>
	<circle cx="166.88" cy="367.17" data-y="1.59" data-x="1590969600" r="1" fill="white"><title>2020-06-01: 2</title></circle>
	<circle cx="168.50" cy="366.68" data-y="1.69" data-x="1591056000" r="1" fill="white"><title>2020-06-02: 2</title></circle>
	<circle cx="170.11" cy="366.68" data-y="1.69" data-x="1591142400" r="1" fill="white"><title>2020-06-03: 2</title></circle>
	<circle cx="171.72" cy="368.64" data-y="1.30" data-x="1591228800" r="1" fill="white"><title>2020-06-04: 1</title></circle>
	<circle cx="173.33" cy="365.21" data-y="1.99" data-x="1591315200" r="1" fill="white"><title>2020-06-05: 2</title></circle>
	<circle cx="174.95" cy="363.26" data-y="2.39" data-x="1591401600" r="1" fill="white"><title>2020-06-06: 2</title></circle>
	<circle cx="176.56" cy="360.81" data-y="2.89" data-x="1591488000" r="1" fill="white"><title>2020-06-07: 3</title></circle>
	<circle cx="178.17" cy="362.28" data-y="2.59" data-x="1591574400" r="1" fill="white"><title>2020-06-08: 3</title></circle>
	<circle cx="179.78" cy="363.75" data-y="2.29" data-x="1591660800" r="1" fill="white"><title>2020-06-09: 2</title></circle>
	<circle cx="181.39" cy="364.24" data-y="2.19" data-x="1591747200" r="1" fill="white"><title>2020-06-10: 2</title></circle>
	<circle cx="183.01" cy="359.83" data-y="3.09" data-x="1591833600" r="1" fill="white"><title>2020-06-11: 3</title></circle>
	<circle cx="184.62" cy="361.79" data-y="2.69" data-x="1591920000" r="1" fill="white"><title>2020-06-12: 3</title></circle>
	<circle cx="186.23" cy="361.79" data-y="2.69" data-x="1592006400" r="1" fill="white"><title>2020-06-13: 3</title></circle>
	<circle cx="187.84" cy="365.70" data-y="1.89" data-x="1592092800" r="1" fill="white"><title>2020-06-14: 2</title></circle>
	<circle cx="189.46" cy="363.26" data-y="2.39" data-x="1592179200" r="1" fill="white"><title>2020-06-15: 2</title></circle>
	<circle cx="191.07" cy="362.28" data-y="2.59" data-x="1592265600" r="1" fill="white"><title>2020-06-16: 3</title></circle>
	<circle cx="192.68" cy="360.32" data-y="2.99" data-x="1592352000" r="1" fill="white"><title>2020-06-17: 3</title></circle>
	<circle cx="194.29" cy="364.24" data-y="2.19" data-x="1592438400" r="1" fill="white"><title>2020-06-18: 2</title></circle>
	<circle cx="195.91" cy="364.24" data-y="2.19" data-x="1592524800" r="1" fill="white"><title>2020-06-19: 2</title></circle>
	<circle cx="197.52" cy="364.73" data-y="2.09" data-x="1592611200" r="1" fill="white"><title>2020-06-20: 2</title></circle>
	<circle cx="199.13" cy="363.75" data-y="2.29" data-x="1592697600" r="1" fill="white"><title>2020-06-21: 2</title></circle>
	<circle cx="200.74" cy="366.19" data-y="1.79" data-x="1592784000" r="1" fill="white"><title>2020-06-22: 2</title></circle>
	<circle cx="202.36" cy="366.68" data-y="1.69" data-x="1592870400" r="1" fill="white"><title>2020-06-23: 2</title></circle>
	<circle cx="203.97" cy="367.17" data-y="1.59" data-x="1592956800" r="1" fill="white"><title>2020-06-24: 2</title></circle>
	<circle cx="205.58" cy="365.70" data-y="1.89" data-x="1593043200" r="1" fill="white"><title>2020-06-25: 2</title></circle>
	<circle cx="207.19" cy="367.17" data-y="1.59" data-x="1593129600" r="1" fill="white"><title>2020-06-26: 2</title></circle>
	<circle cx="208.80" cy="367.17" data-y="1.59" data-x="1593216000" r="1" fill="white"><title>2020-06-27: 2</title></circle>
	<circle cx="210.42" cy="367.66" data-y="1.49" data-x="1593302400" r="1" fill="white"><title>2020-06-28: 1</title></circle>
	<circle cx="212.03" cy="366.68" data-y="1.69" data-x="1593388800" r="1" fill="white"><title>2020-06-29: 2</title></circle>
	<circle cx="213.64" cy="365.21" data-y="1.99" data-x="1593475200" r="1" fill="white"><title>2020-06-30: 2</title></circle>
	<circle cx="215.25" cy="366.19" data-y="1.79" data-x="1593561600" r="1" fill="white"><title>2020-07-01: 2</title></circle>
	<circle cx="216.87" cy="366.19" data-y="1.79" data-x="1593648000" r="1" fill="white"><title>2020-07-02: 2</title></circle>
	<circle cx="218.48" cy="364.73" data-y="2.09" data-x="1593734400" r="1" fill="white"><title>2020-07-03: 2</title></circle>
	<circle cx="220.09" cy="365.70" data-y="1.89" data-x="1593820800" r="1" fill="white"><title>2020-07-04: 2</title></circle>
	<circle cx="221.70" cy="365.21" data-y="1.99" data-x="1593907200" r="1" fill="white"><title>2020-07-05: 2</title></circle>
	<circle cx="223.32" cy="363.75" data-y="2.29" data-x="1593993600" r="1" fill="white"><title>2020-07-06: 2</title></circle>
	<circle cx="224.93" cy="365.21" data-y="1.99" data-x="1594080000" r="1" fill="white"><title>2020-07-07: 2</title></circle>
	<circle cx="226.54" cy="364.73" data-y="2.09" data-x="1594166400" r="1" fill="white"><title>2020-07-08: 2</title></circle>
	<circle cx="228.15" cy="365.70" data-y="1.89" data-x="1594252800" r="1" fill="white"><title>2020-07-09: 2</title></circle>
	<circle cx="229.76" cy="366.68" data-y="1.69" data-x="1594339200" r="1" fill="white"><title>2020-07-10: 2</title></circle>
	<circle cx="231.38" cy="365.21" data-y="1.99" data-x="1594425600" r="1" fill="white"><title>2020-07-11: 2</title></circle>
	<circle cx="232.99" cy="365.70" data-y="1.89" data-x="1594512000" r="1" fill="white"><title>2020-07-12: 2</title></circle>
	<circle cx="234.60" cy="366.19" data-y="1.79" data-x="1594598400" r="1" fill="white"><title>2020-07-13: 2</title></circle>
	<circle cx="236.21" cy="365.70" data-y="1.89" data-x="1594684800" r="1" fill="white"><title>2020-07-14: 2</title></circle>
	<circle cx="237.83" cy="366.19" data-y="1.79" data-x="1594771200" r="1" fill="white"><title>2020-07-15: 2</title></circle>
	<circle cx="239.44" cy="365.70" data-y="1.89" data-x="1594857600" r="1" fill="white"><title>2020-07-16: 2</title></circle>
	<circle cx="241.05" cy="365.70" data-y="1.89" data-x="1594944000" r="1" fill="white"><title>2020-07-17: 2</title></circle>
	<circle cx="242.66" cy="366.19" data-y="1.79" data-x="1595030400" r="1" fill="white"><title>2020-07-18: 2</title></circle>
	<circle cx="244.28" cy="366.19" data-y="1.79" data-x="1595116800" r="1" fill="white"><title>2020-07-19: 2</title></circle>
	<circle cx="245.89" cy="367.66" data-y="1.49" data-x="1595203200" r="1" fill="white"><title>2020-07-20: 1</title></circle>
	<circle cx="247.50" cy="368.15" data-y="1.40" data-x="1595289600" r="1" fill="white"><title>2020-07-21: 1</title></circle>
	<circle cx="249.11" cy="368.15" data-y="1.40" data-x="1595376000" r="1" fill="white"><title>2020-07-22: 1</title></circle>
	<circle cx="250.72" cy="368.15" data-y="1.40" data-x="1595462400" r="1" fill="white"><title>2020-07-23: 1</title></circle>
	<circle cx="252.34" cy="368.64" data-y="1.30" data-x="1595548800" r="1" fill="white"><title>2020-07-24: 1</title></circle>
	<circle cx="253.95" cy="367.17" data-y="1.59" data-x="1595635200" r="1" fill="white"><title>2020-07-25: 2</title></circle>
	<circle cx="255.56" cy="367.17" data-y="1.59" data-x="1595721600" r="1" fill="white"><title>2020-07-26: 2</title></circle>
	<circle cx="257.17" cy="367.17" data-y="1.59" data-x="1595808000" r="1" fill="white"><title>2020-07-27: 2</title></circle>
	<circle cx="258.79" cy="367.66" data-y="1.49" data-x="1595894400" r="1" fill="white"><title>2020-07-28: 1</title></circle>
	<circle cx="260.40" cy="367.17" data-y="1.59" data-x="1595980800" r="1" fill="white"><title>2020-07-29: 2</title></circle>
	<circle cx="262.01" cy="368.64" data-y="1.30" data-x="1596067200" r="1" fill="white"><title>2020-07-30: 1</title></circle>
	<circle cx="263.62" cy="368.64" data-y="1.30" data-x="1596153600" r="1" fill="white"><title>2020-07-31: 1</title></circle>
	<circle cx="265.24" cy="371.58" data-y="0.70" data-x="1596240000" r="1" fill="white"><title>2020-08-01: 1</title></circle>
	<circle cx="266.85" cy="371.58" data-y="0.70" data-x="1596326400" r="1" fill="white"><title>2020-08-02: 1</title></circle>
	<circle cx="268.46" cy="372.06" data-y="0.60" data-x="1596412800" r="1" fill="white"><title>2020-08-03: 1</title></circle>
	<circle cx="270.07" cy="372.06" data-y="0.60" data-x="1596499200" r="1" fill="white"><title>2020-08-04: 1</title></circle>
	<circle cx="271.68" cy="373.04" data-y="0.40" data-x="1596585600" r="1" fill="white"><title>2020-08-05: 0</title></circle>
	<circle cx="273.30" cy="373.04" data-y="0.40" data-x="1596672000" r="1" fill="white"><title>2020-08-06: 0</title></circle>
	<circle cx="274.91" cy="372.55" data-y="0.50" data-x="1596758400" r="1" fill="white"><title>2020-08-07: 0</title></circle>
	<circle cx="276.52" cy="371.58" data-y="0.70" data-x="1596844800" r="1" fill="white"><title>2020-08-08: 1</title></circle>
	<circle cx="278.13" cy="372.06" data-y="0.60" data-x="1596931200" r="1" fill="white"><title>2020-08-09: 1</title></circle>
	<circle cx="279.75" cy="372.06" data-y="0.60" data-x="1597017600" r="1" fill="white"><title>2020-08-10: 1</title></circle>
	<circle cx="281.36" cy="371.09" data-y="0.80" data-x="1597104000" r="1" fill="white"><title>2020-08-11: 1</title></circle>
	<circle cx="282.97" cy="371.09" data-y="0.80" data-x="1597190400" r="1" fill="white"><title>2020-08-12: 1</title></circle>
	<circle cx="284.58" cy="371.09" data-y="0.80" data-x="1597276800" r="1" fill="white"><title>2020-08-13: 1</title></circle>
	<circle cx="286.20" cy="372.55" data-y="0.50" data-x="1597363200" r="1" fill="white"><title>2020-08-14: 0</title></circle>
	<circle cx="287.81" cy="373.53" data-y="0.30" data-x="1597449600" r="1" fill="white"><title>2020-08-15: 0</title></circle>
	<circle cx="289.42" cy="374.02" data-y="0.20" data-x="1597536000" r="1" fill="white"><title>2020-08-16: 0</title></circle>
	<circle cx="291.03" cy="373.53" data-y="0.30" data-x="1597622400" r="1" fill="white"><title>2020-08-17: 0</title></circle>
	<circle cx="292.64" cy="374.51" data-y="0.10" data-x="1597708800" r="1" fill="white"><title>2020-08-18: 0</title></circle>
	<circle cx="294.26" cy="374.51" data-y="0.10" data-x="1597795200" r="1" fill="white"><title>2020-08-19: 0</title></circle>
	<circle cx="295.87" cy="374.51" data-y="0.10" data-x="1597881600" r="1" fill="white"><title>2020-08-20: 0</title></circle>
	<circle cx="297.48" cy="372.55" data-y="0.50" data-x="1597968000" r="1" fill="white"><title>2020-08-21: 0</title></circle>
	<circle cx="299.09" cy="372.06" data-y="0.60" data-x="1598054400" r="1" fill="white"><title>2020-08-22: 1</title></circle>
	<circle cx="300.71" cy="370.60" data-y="0.90" data-x="1598140800" r="1" fill="white"><title>2020-08-23: 1</title></circle>
	<circle cx="302.32" cy="370.60" data-y="0.90" data-x="1598227200" r="1" fill="white"><title>2020-08-24: 1</title></circle>
	<circle cx="303.93" cy="370.60" data-y="0.90" data-x="1598313600" r="1" fill="white"><title>2020-08-25: 1</title></circle>
	<circle cx="305.54" cy="369.13" data-y="1.20" data-x="1598400000" r="1" fill="white"><title>2020-08-26: 1</title></circle>
	<circle cx="307.16" cy="368.64" data-y="1.30" data-x="1598486400" r="1" fill="white"><title>2020-08-27: 1</title></circle>
	<circle cx="308.77" cy="370.60" data-y="0.90" data-x="1598572800" r="1" fill="white"><title>2020-08-28: 1</title></circle>
	<circle cx="310.38" cy="370.60" data-y="0.90" data-x="1598659200" r="1" fill="white"><title>2020-08-29: 1</title></circle>
	<circle cx="311.99" cy="371.58" data-y="0.70" data-x="1598745600" r="1" fill="white"><title>2020-08-30: 1</title></circle>
	<circle cx="313.61" cy="372.06" data-y="0.60" data-x="1598832000" r="1" fill="white"><title>2020-08-31: 1</title></circle>
	<circle cx="315.22" cy="371.58" data-y="0.70" data-x="1598918400" r="1" fill="white"><title>2020-09-01: 1</title></circle>
	<circle cx="316.83" cy="372.55" data-y="0.50" data-x="1599004800" r="1" fill="white"><title>2020-09-02: 0</title></circle>
	<circle cx="318.44" cy="372.55" data-y="0.50" data-x="1599091200" r="1" fill="white"><title>2020-09-03: 0</title></circle>
	<circle cx="320.05" cy="372.06" data-y="0.60" data-x="1599177600" r="1" fill="white"><title>2020-09-04: 1</title></circle>
	<circle cx="321.67" cy="371.09" data-y="0.80" data-x="1599264000" r="1" fill="white"><title>2020-09-05: 1</title></circle>
	<circle cx="323.28" cy="370.60" data-y="0.90" data-x="1599350400" r="1" fill="white"><title>2020-09-06: 1</title></circle>
	<circle cx="324.89" cy="369.13" data-y="1.20" data-x="1599436800" r="1" fill="white"><title>2020-09-07: 1</title></circle>
	<circle cx="326.50" cy="368.64" data-y="1.30" data-x="1599523200" r="1" fill="white"><title>2020-09-08: 1</title></circle>
	<circle cx="328.12" cy="369.13" data-y="1.20" data-x="1599609600" r="1" fill="white"><title>2020-09-09: 1</title></circle>
	<circle cx="329.73" cy="368.64" data-y="1.30" data-x="1599696000" r="1" fill="white"><title>2020-09-10: 1</title></circle>
	<circle cx="331.34" cy="368.64" data-y="1.30" data-x="1599782400" r="1" fill="white"><title>2020-09-11: 1</title></circle>
	<circle cx="332.95" cy="369.62" data-y="1.10" data-x="1599868800" r="1" fill="white"><title>2020-09-12: 1</title></circle>
	<circle cx="334.57" cy="370.60" data-y="0.90" data-x="1599955200" r="1" fill="white"><title>2020-09-13: 1</title></circle>
	<circle cx="336.18" cy="372.06" data-y="0.60" data-x="1600041600" r="1" fill="white"><title>2020-09-14: 1</title></circle>
	<circle cx="337.79" cy="372.55" data-y="0.50" data-x="1600128000" r="1" fill="white"><title>2020-09-15: 0</title></circle>
	<circle cx="339.40" cy="372.55" data-y="0.50" data-x="1600214400" r="1" fill="white"><title>2020-09-16: 0</title></circle>
	<circle cx="341.01" cy="372.55" data-y="0.50" data-x="1600300800" r="1" fill="white"><title>2020-09-17: 0</title></circle>
	<circle cx="342.63" cy="372.55" data-y="0.50" data-x="1600387200" r="1" fill="white"><title>2020-09-18: 0</title></circle>
	<circle cx="344.24" cy="371.58" data-y="0.70" data-x="1600473600" r="1" fill="white"><title>2020-09-19: 1</title></circle>
	<circle cx="345.85" cy="369.62" data-y="1.10" data-x="1600560000" r="1" fill="white"><title>2020-09-20: 1</title></circle>
	<circle cx="347.46" cy="368.64" data-y="1.30" data-x="1600646400" r="1" fill="white"><title>2020-09-21: 1</title></circle>
	<circle cx="349.08" cy="369.13" data-y="1.20" data-x="1600732800" r="1" fill="white"><title>2020-09-22: 1</title></circle>
	<circle cx="350.69" cy="368.15" data-y="1.40" data-x="1600819200" r="1" fill="white"><title>2020-09-23: 1</title></circle>
	<circle cx="352.30" cy="367.66" data-y="1.49" data-x="1600905600" r="1" fill="white"><title>2020-09-24: 1</title></circle>
	<circle cx="353.91" cy="366.19" data-y="1.79" data-x="1600992000" r="1" fill="white"><title>2020-09-25: 2</title></circle>
	<circle cx="355.53" cy="366.19" data-y="1.79" data-x="1601078400" r="1" fill="white"><title>2020-09-26: 2</title></circle>
	<circle cx="357.14" cy="365.21" data-y="1.99" data-x="1601164800" r="1" fill="white"><title>2020-09-27: 2</title></circle>
	<circle cx="358.75" cy="362.77" data-y="2.49" data-x="1601251200" r="1" fill="white"><title>2020-09-28: 2</title></circle>
	<circle cx="360.36" cy="359.83" data-y="3.09" data-x="1601337600" r="1" fill="white"><title>2020-09-29: 3</title></circle>
	<circle cx="361.97" cy="359.83" data-y="3.09" data-x="1601424000" r="1" fill="white"><title>2020-09-30: 3</title></circle>
	<circle cx="363.59" cy="359.34" data-y="3.19" data-x="1601510400" r="1" fill="white"><title>2020-10-01: 3</title></circle>
	<circle cx="365.20" cy="357.88" data-y="3.49" data-x="1601596800" r="1" fill="white"><title>2020-10-02: 3</title></circle>
	<circle cx="366.81" cy="356.90" data-y="3.69" data-x="1601683200" r="1" fill="white"><title>2020-10-03: 4</title></circle>
	<circle cx="368.42" cy="357.88" data-y="3.49" data-x="1601769600" r="1" fill="white"><title>2020-10-04: 3</title></circle>
	<circle cx="370.04" cy="360.81" data-y="2.89" data-x="1601856000" r="1" fill="white"><title>2020-10-05: 3</title></circle>
	<circle cx="371.65" cy="359.34" data-y="3.19" data-x="1601942400" r="1" fill="white"><title>2020-10-06: 3</title></circle>
	<circle cx="373.26" cy="357.88" data-y="3.49" data-x="1602028800" r="1" fill="white"><title>2020-10-07: 3</title></circle>
	<circle cx="374.87" cy="359.83" data-y="3.09" data-x="1602115200" r="1" fill="white"><title>2020-10-08: 3</title></circle>
	<circle cx="376.49" cy="358.85" data-y="3.29" data-x="1602201600" r="1" fill="white"><title>2020-10-09: 3</title></circle>
	<circle cx="378.10" cy="358.36" data-y="3.39" data-x="1602288000" r="1" fill="white"><title>2020-10-10: 3</title></circle>
	<circle cx="379.71" cy="354.45" data-y="4.19" data-x="1602374400" r="1" fill="white"><title>2020-10-11: 4</title></circle>
	<circle cx="381.32" cy="351.51" data-y="4.78" data-x="1602460800" r="1" fill="white"><title>2020-10-12: 5</title></circle>
	<circle cx="382.93" cy="351.03" data-y="4.88" data-x="1602547200" r="1" fill="white"><title>2020-10-13: 5</title></circle>
	<circle cx="384.55" cy="349.07" data-y="5.28" data-x="1602633600" r="1" fill="white"><title>2020-10-14: 5</title></circle>
	<circle cx="386.16" cy="345.64" data-y="5.98" data-x="1602720000" r="1" fill="white"><title>2020-10-15: 6</title></circle>
	<circle cx="387.77" cy="338.30" data-y="7.47" data-x="1602806400" r="1" fill="white"><title>2020-10-16: 7</title></circle>
	<circle cx="389.38" cy="331.45" data-y="8.87" data-x="1602892800" r="1" fill="white"><title>2020-10-17: 9</title></circle>
	<circle cx="391.00" cy="326.07" data-y="9.97" data-x="1602979200" r="1" fill="white"><title>2020-10-18: 10</title></circle>
	<circle cx="392.61" cy="318.73" data-y="11.46" data-x="1603065600" r="1" fill="white"><title>2020-10-19: 11</title></circle>
	<circle cx="394.22" cy="309.44" data-y="13.35" data-x="1603152000" r="1" fill="white"><title>2020-10-20: 13</title></circle>
	<circle cx="395.83" cy="300.14" data-y="15.25" data-x="1603238400" r="1" fill="white"><title>2020-10-21: 15</title></circle>
	<circle cx="397.45" cy="297.21" data-y="15.85" data-x="1603324800" r="1" fill="white"><title>2020-10-22: 16</title></circle>
	<circle cx="399.06" cy="288.40" data-y="17.64" data-x="1603411200" r="1" fill="white"><title>2020-10-23: 18</title></circle>
	<circle cx="400.67" cy="278.12" data-y="19.73" data-x="1603497600" r="1" fill="white"><title>2020-10-24: 20</title></circle>
	<circle cx="402.28" cy="265.40" data-y="22.32" data-x="1603584000" r="1" fill="white"><title>2020-10-25: 22</title></circle>
	<circle cx="403.89" cy="259.53" data-y="23.52" data-x="1603670400" r="1" fill="white"><title>2020-10-26: 24</title></circle>
	<circle cx="405.51" cy="255.13" data-y="24.42" data-x="1603756800" r="1" fill="white"><title>2020-10-27: 24</title></circle>
	<circle cx="407.12" cy="254.64" data-y="24.52" data-x="1603843200" r="1" fill="white"><title>2020-10-28: 25</title></circle>
	<circle cx="408.73" cy="246.32" data-y="26.21" data-x="1603929600" r="1" fill="white"><title>2020-10-29: 26</title></circle>
	<circle cx="410.34" cy="226.26" data-y="30.30" data-x="1604016000" r="1" fill="white"><title>2020-10-30: 30</title></circle>
	<circle cx="411.96" cy="216.47" data-y="32.29" data-x="1604102400" r="1" fill="white"><title>2020-10-31: 32</title></circle>
	<circle cx="413.57" cy="211.09" data-y="33.39" data-x="1604188800" r="1" fill="white"><title>2020-11-01: 33</title></circle>
	<circle cx="415.18" cy="188.59" data-y="37.97" data-x="1604275200" r="1" fill="white"><title>2020-11-02: 38</title></circle>
	<circle cx="416.79" cy="171.95" data-y="41.36" data-x="1604361600" r="1" fill="white"><title>2020-11-03: 41</title></circle>
	<circle cx="418.41" cy="148.95" data-y="46.04" data-x="1604448000" r="1" fill="white"><title>2020-11-04: 46</title></circle>
	<circle cx="420.02" cy="127.43" data-y="50.43" data-x="1604534400" r="1" fill="white"><title>2020-11-05: 50</title></circle>
	<circle cx="421.63" cy="101.98" data-y="55.61" data-x="1604620800" r="1" fill="white"><title>2020-11-06: 56</title></circle>
	<circle cx="423.24" cy="78.99" data-y="60.29" data-x="1604707200" r="1" fill="white"><title>2020-11-07: 60</title></circle>
	<circle cx="424.86" cy="55.01" data-y="65.18" data-x="1604793600" r="1" fill="white"><title>2020-11-08: 65</title></circle>
	<circle cx="426.47" cy="38.38" data-y="68.56" data-x="1604880000" r="1" fill="white"><title>2020-11-09: 69</title></circle>
	<circle cx="428.08" cy="10.00" data-y="74.34" data-x="1604966400" r="1" fill="white"><title>2020-11-10: 74</title></circle>
	<circle cx="429.69" cy="15.87" data-y="73.15" data-x="1605052800" r="1" fill="white"><title>2020-11-11: 73</title></circle>
	<circle cx="431.30" cy="11.96" data-y="73.95" data-x="1605139200" r="1" fill="white"><title>2020-11-12: 74</title></circle>
	<circle cx="432.92" cy="12.45" data-y="73.85" data-x="1605225600" r="1" fill="white"><title>2020-11-13: 74</title></circle>
	<circle cx="434.53" cy="11.47" data-y="74.05" data-x="1605312000" r="1" fill="white"><title>2020-11-14: 74</title></circle>
	<circle cx="436.14" cy="18.32" data-y="72.65" data-x="1605398400" r="1" fill="white"><title>2020-11-15: 73</title></circle>
	<circle cx="437.75" cy="25.17" data-y="71.25" data-x="1605484800" r="1" fill="white"><title>2020-11-16: 71</title></circle>
	<circle cx="439.37" cy="39.36" data-y="68.36" data-x="1605571200" r="1" fill="white"><title>2020-11-17: 68</title></circle>
	<circle cx="440.98" cy="38.38" data-y="68.56" data-x="1605657600" r="1" fill="white"><title>2020-11-18: 69</title></circle>
	<circle cx="442.59" cy="49.63" data-y="66.27" data-x="1605744000" r="1" fill="white"><title>2020-11-19: 66</title></circle>
	<circle cx="444.20" cy="49.14" data-y="66.37" data-x="1605830400" r="1" fill="white"><title>2020-11-20: 66</title></circle>
	<circle cx="445.82" cy="59.42" data-y="64.28" data-x="1605916800" r="1" fill="white"><title>2020-11-21: 64</title></circle>
	<circle cx="447.43" cy="52.08" data-y="65.77" data-x="1606003200" r="1" fill="white"><title>2020-11-22: 66</title></circle>
	<circle cx="449.04" cy="66.76" data-y="62.78" data-x="1606089600" r="1" fill="white"><title>2020-11-23: 63</title></circle>
	<circle cx="450.65" cy="60.88" data-y="63.98" data-x="1606176000" r="1" fill="white"><title>2020-11-24: 64</title></circle>
	<circle cx="452.26" cy="54.52" data-y="65.28" data-x="1606262400" r="1" fill="white"><title>2020-11-25: 65</title></circle>
	<circle cx="453.88" cy="46.70" data-y="66.87" data-x="1606348800" r="1" fill="white"><title>2020-11-26: 67</title></circle>
	<circle cx="455.49" cy="65.78" data-y="62.98" data-x="1606435200" r="1" fill="white"><title>2020-11-27: 63</title></circle>
	<circle cx="457.10" cy="71.16" data-y="61.89" data-x="1606521600" r="1" fill="white"><title>2020-11-28: 62</title></circle>
	<circle cx="458.71" cy="81.43" data-y="59.79" data-x="1606608000" r="1" fill="white"><title>2020-11-29: 60</title></circle>
	<circle cx="460.33" cy="62.84" data-y="63.58" data-x="1606694400" r="1" fill="white"><title>2020-11-30: 64</title></circle>
	<circle cx="461.94" cy="75.56" data-y="60.99" data-x="1606780800" r="1" fill="white"><title>2020-12-01: 61</title></circle>
</g>
<g data-series="recent-cases" class="data-series">
	<path d="M 461.94,75.56L 463.55,88.28L 465.16,122.53L 466.78,135.25L 468.39,140.73L 470.00,158.37" id="Recent cases" class="line" stroke-width="1" stroke-linecap="round" stroke-dasharray="4,6" stroke-dashoffset="4"><title>Recent cases</title></path>
	<circle cx="461.94" cy="75.56" data-y="60.99" data-x="1606780800" r="2.5" fill="white"><title>2020-12-01: 61</title></circle>
	<circle cx="463.55" cy="88.28" data-y="58.40" data-x="1606867200" r="2.5" fill="white"><title>2020-12-02: 58</title></circle>
	<circle cx="465.16" cy="122.53" data-y="51.42" data-x="1606953600" r="2.5" fill="white"><title>2020-12-03: 51</title></circle>
	<circle cx="466.78" cy="135.25" data-y="48.83" data-x="1607040000" r="2.5" fill="white"><title>2020-12-04: 49</title></circle>
	<circle cx="468.39" cy="140.73" data-y="47.72" data-x="1607126400" r="2.5" fill="white"><title>2020-12-05: 48</title></circle>
	<circle cx="470.00" cy="158.37" data-y="44.12" data-x="1607212800" r="2.5" fill="white"><title>2020-12-06: 44</title></circle>
</g>
</svg>
