<svg width="480" height="400" viewBox="0 0 480 400" xmlns="http://www.w3.org/2000/svg" style="overflow:display" preserveAspectRatio="xMinYMin meet" overflow="visible">
<defs>
	<style>
	.data-series path.line { fill-opacity: 0; stroke: black; }
	.data-series path.line.dotted { stroke-dasharray: 12 20 }
	.data-series:hover path.line, .data-series.on path.line { stroke-width: 1; }
	.data-series:hover circle, .data-series.on circle { display: inline; }
	.graph-grid { font-family: "Helvetica Neue",Helvetica,Arial,"Lucida Grande",sans-serif; }
	.graph-grid line { stroke: black; stroke-width: 1; stroke-linecap: round; }
	.graph-grid.graph-grid-x text { text-anchor: middle; dominant-baseline: hanging; transform: translateY(10px); }
	.graph-grid.graph-grid-y text { text-anchor: end; dominant-baseline: middle; transform: translateX(-10px); }
	</style>
</defs>
<g class="graph-grid graph-grid-y">
	<line x1="25.00" y1="375.00" x2="470.00" y2="375.00" data-left="25"></line>
	<text x="35" y="375" text-anchor="end">0</text>
	<text x="35" y="249.415287937743" text-anchor="end">10</text>
	<text x="35" y="123.830575875486" text-anchor="end">20</text>
	<text style="text-anchor:middle;dominant-baseline:hanging;font-weight:bold;transform: translateY(192.5px) rotate(-90deg);"></text>
</g>
<g class="graph-grid graph-grid-x">
	<line class="tick" x1="76.13" y1="375.00" x2="76.13" y2="380.00"></line>
	<text x="76.1276595744681" y="375" text-anchor="middle">A</text>
	<line class="tick" x1="132.94" y1="375.00" x2="132.94" y2="380.00"></line>
	<text x="132.936170212766" y="375" text-anchor="middle">M</text>
	<line class="tick" x1="191.64" y1="375.00" x2="191.64" y2="380.00"></line>
	<text x="191.63829787234" y="375" text-anchor="middle">J</text>
	<line class="tick" x1="248.45" y1="375.00" x2="248.45" y2="380.00"></line>
	<text x="248.446808510638" y="375" text-anchor="middle">J</text>
	<line class="tick" x1="307.15" y1="375.00" x2="307.15" y2="380.00"></line>
	<text x="307.148936170213" y="375" text-anchor="middle">A</text>
	<line class="tick" x1="365.85" y1="375.00" x2="365.85" y2="380.00"></line>
	<text x="365.851063829787" y="375" text-anchor="middle">S</text>
	<line class="tick" x1="422.66" y1="375.00" x2="422.66" y2="380.00"></line>
	<text x="422.659574468085" y="375" text-anchor="middle">O</text>
	<text style="text-anchor:middle;dominant-baseline:hanging;font-weight:bold;transform: translateY(192.5px) rotate(-90deg);"></text>
</g>
<g data-series="widespread" class="data-series">
	<path d="M 25.00,287.09L 470.00,287.09" id="E08000026-level-0" class="line" stroke-width="1" stroke-linecap="round" stroke-dasharray="3,3" fill-opacity="0.3" opacity="0.3"><title>Widespread</title></path>
</g>
<g data-series="substantial" class="data-series">
	<path d="M 25.00,324.77L 470.00,324.77" id="E08000026-level-1" class="line" stroke-width="1" stroke-linecap="round" stroke-dasharray="3,3" fill-opacity="0.3" opacity="0.3"><title>Substantial</title></path>
</g>
<g data-series="moderate" class="data-series">
	<path d="M 25.00,362.44L 470.00,362.44" id="E08000026-level-2" class="line" stroke-width="1" stroke-linecap="round" stroke-dasharray="3,3" fill-opacity="0.3" opacity="0.3"><title>Moderate</title></path>
</g>
<g data-series="new-cases" class="data-series">
	<path d="M 25.00,372.51L 26.89,373.01L 28.79,373.34L 30.68,372.63L 32.57,372.16L 34.47,372.63L 36.36,372.63L 38.26,373.11L 40.15,370.27L 42.04,368.37L 43.94,367.43L 45.83,366.01L 47.72,365.53L 49.62,361.27L 51.51,358.43L 53.40,356.06L 55.30,348.96L 57.19,343.28L 59.09,336.65L 60.98,330.97L 62.87,326.71L 64.77,321.50L 66.66,315.82L 68.55,311.09L 70.45,305.88L 72.34,305.41L 74.23,300.67L 76.13,300.67L 78.02,303.99L 79.91,302.57L 81.81,305.88L 83.70,313.93L 85.60,311.56L 87.49,315.35L 89.38,316.77L 91.28,311.09L 93.17,314.88L 95.06,319.14L 96.96,313.46L 98.85,313.93L 100.74,311.56L 102.64,311.56L 104.53,318.19L 106.43,312.51L 108.32,302.57L 110.21,301.62L 112.11,298.31L 114.00,298.78L 115.89,297.83L 117.79,295.47L 119.68,303.99L 121.57,313.46L 123.47,314.40L 125.36,314.40L 127.26,306.36L 129.15,305.88L 131.04,300.67L 132.94,302.57L 134.83,297.83L 136.72,300.20L 138.62,302.09L 140.51,306.83L 142.40,310.14L 144.30,313.46L 146.19,302.57L 148.09,305.41L 149.98,307.78L 151.87,315.82L 153.77,320.56L 155.66,321.50L 157.55,326.24L 159.45,336.65L 161.34,335.23L 163.23,335.23L 165.13,334.29L 167.02,338.55L 168.91,339.49L 170.81,338.07L 172.70,339.49L 174.60,348.02L 176.49,351.33L 178.38,355.12L 180.28,351.33L 182.17,350.38L 184.06,355.12L 185.96,356.54L 187.85,356.06L 189.74,357.48L 191.64,355.59L 193.53,361.27L 195.43,365.06L 197.32,363.64L 199.21,364.11L 201.11,366.01L 203.00,364.58L 204.89,365.06L 206.79,365.06L 208.68,364.11L 210.57,364.58L 212.47,364.11L 214.36,361.27L 216.26,362.22L 218.15,363.16L 220.04,364.11L 221.94,363.64L 223.83,364.11L 225.72,365.06L 227.62,367.43L 229.51,368.85L 231.40,371.21L 233.30,371.21L 235.19,372.63L 237.09,372.63L 238.98,371.69L 240.87,371.69L 242.77,371.21L 244.66,370.27L 246.55,370.27L 248.45,369.32L 250.34,367.90L 252.23,368.37L 254.13,367.43L 256.02,367.43L 257.91,367.90L 259.81,367.43L 261.70,368.37L 263.60,370.27L 265.49,370.74L 267.38,369.79L 269.28,368.37L 271.17,367.43L 273.06,366.01L 274.96,363.16L 276.85,363.16L 278.74,361.74L 280.64,363.16L 282.53,362.69L 284.43,360.32L 286.32,359.85L 288.21,359.85L 290.11,357.01L 292.00,354.17L 293.89,352.75L 295.79,352.28L 297.68,349.44L 299.57,349.44L 301.47,349.44L 303.36,349.44L 305.26,350.38L 307.15,350.38L 309.04,348.96L 310.94,350.86L 312.83,348.49L 314.72,346.60L 316.62,348.02L 318.51,346.12L 320.40,343.28L 322.30,343.75L 324.19,343.75L 326.09,336.18L 327.98,336.18L 329.87,334.76L 331.77,337.60L 333.66,339.49L 335.55,340.91L 337.45,342.33L 339.34,353.70L 341.23,355.59L 343.13,354.17L 345.02,352.75L 346.91,351.33L 348.81,348.96L 350.70,346.60L 352.60,341.86L 354.49,342.33L 356.38,344.23L 358.28,343.75L 360.17,342.81L 362.06,339.49L 363.96,334.76L 365.85,334.76L 367.74,332.39L 369.64,326.24L 371.53,315.82L 373.43,313.93L 375.32,312.51L 377.21,315.35L 379.11,310.62L 381.00,308.25L 382.89,311.56L 384.79,315.35L 386.68,314.40L 388.57,314.88L 390.47,308.25L 392.36,302.57L 394.26,292.63L 396.15,277.48L 398.04,267.06L 399.94,259.01L 401.83,246.23L 403.72,240.08L 405.62,238.18L 407.51,241.50L 409.40,243.87L 411.30,239.13L 413.19,234.87L 415.09,228.24L 416.98,216.88L 418.87,204.57L 420.77,192.74L 422.66,184.69L 424.55,175.22L 426.45,156.28L 428.34,133.09L 430.23,115.10L 432.13,102.32L 434.02,91.43L 435.91,82.43L 437.81,71.54L 439.70,62.55L 441.60,66.34L 443.49,57.81L 445.38,52.61L 447.28,52.13L 449.17,51.19L 451.06,36.98L 452.96,27.99L 454.85,10.47L 456.74,10.00L 458.64,15.21L 460.53,12.84" id="New cases" class="line" stroke-width="1" stroke-linecap="round"><title>New cases</title></path>
	<circle cx="25.00" cy="372.51" data-y="0.20" data-x="1583366400" r="1" fill="white"><title>2020-03-05: 0</title></circle>
	<circle cx="26.89" cy="373.01" data-y="0.16" data-x="1583452800" r="1" fill="white"><title>2020-03-06: 0</title></circle>
	<circle cx="28.79" cy="373.34" data-y="0.13" data-x="1583539200" r="1" fill="white"><title>2020-03-07: 0</title></circle>
	<circle cx="30.68" cy="372.63" data-y="0.19" data-x="1583625600" r="1" fill="white"><title>2020-03-08: 0</title></circle>
	<circle cx="32.57" cy="372.16" data-y="0.23" data-x="1583712000" r="1" fill="white"><title>2020-03-09: 0</title></circle>
	<circle cx="34.47" cy="372.63" data-y="0.19" data-x="1583798400" r="1" fill="white"><title>2020-03-10: 0</title></circle>
	<circle cx="36.36" cy="372.63" data-y="0.19" data-x="1583884800" r="1" fill="white"><title>2020-03-11: 0</title></circle>
	<circle cx="38.26" cy="373.11" data-y="0.15" data-x="1583971200" r="1" fill="white"><title>2020-03-12: 0</title></circle>
	<circle cx="40.15" cy="370.27" data-y="0.38" data-x="1584057600" r="1" fill="white"><title>2020-03-13: 0</title></circle>
	<circle cx="42.04" cy="368.37" data-y="0.53" data-x="1584144000" r="1" fill="white"><title>2020-03-14: 1</title></circle>
	<circle cx="43.94" cy="367.43" data-y="0.60" data-x="1584230400" r="1" fill="white"><title>2020-03-15: 1</title></circle>
	<circle cx="45.83" cy="366.01" data-y="0.72" data-x="1584316800" r="1" fill="white"><title>2020-03-16: 1</title></circle>
	<circle cx="47.72" cy="365.53" data-y="0.75" data-x="1584403200" r="1" fill="white"><title>2020-03-17: 1</title></circle>
	<circle cx="49.62" cy="361.27" data-y="1.09" data-x="1584489600" r="1" fill="white"><title>2020-03-18: 1</title></circle>
	<circle cx="51.51" cy="358.43" data-y="1.32" data-x="1584576000" r="1" fill="white"><title>2020-03-19: 1</title></circle>
	<circle cx="53.40" cy="356.06" data-y="1.51" data-x="1584662400" r="1" fill="white"><title>2020-03-20: 2</title></circle>
	<circle cx="55.30" cy="348.96" data-y="2.07" data-x="1584748800" r="1" fill="white"><title>2020-03-21: 2</title></circle>
	<circle cx="57.19" cy="343.28" data-y="2.53" data-x="1584835200" r="1" fill="white"><title>2020-03-22: 3</title></circle>
	<circle cx="59.09" cy="336.65" data-y="3.05" data-x="1584921600" r="1" fill="white"><title>2020-03-23: 3</title></circle>
	<circle cx="60.98" cy="330.97" data-y="3.51" data-x="1585008000" r="1" fill="white"><title>2020-03-24: 4</title></circle>
	<circle cx="62.87" cy="326.71" data-y="3.85" data-x="1585094400" r="1" fill="white"><title>2020-03-25: 4</title></circle>
	<circle cx="64.77" cy="321.50" data-y="4.26" data-x="1585180800" r="1" fill="white"><title>2020-03-26: 4</title></circle>
	<circle cx="66.66" cy="315.82" data-y="4.71" data-x="1585267200" r="1" fill="white"><title>2020-03-27: 5</title></circle>
	<circle cx="68.55" cy="311.09" data-y="5.09" data-x="1585353600" r="1" fill="white"><title>2020-03-28: 5</title></circle>
	<circle cx="70.45" cy="305.88" data-y="5.50" data-x="1585440000" r="1" fill="white"><title>2020-03-29: 6</title></circle>
	<circle cx="72.34" cy="305.41" data-y="5.54" data-x="1585526400" r="1" fill="white"><title>2020-03-30: 6</title></circle>
	<circle cx="74.23" cy="300.67" data-y="5.92" data-x="1585612800" r="1" fill="white"><title>2020-03-31: 6</title></circle>
	<circle cx="76.13" cy="300.67" data-y="5.92" data-x="1585699200" r="1" fill="white"><title>2020-04-01: 6</title></circle>
	<circle cx="78.02" cy="303.99" data-y="5.65" data-x="1585785600" r="1" fill="white"><title>2020-04-02: 6</title></circle>
	<circle cx="79.91" cy="302.57" data-y="5.77" data-x="1585872000" r="1" fill="white"><title>2020-04-03: 6</title></circle>
	<circle cx="81.81" cy="305.88" data-y="5.50" data-x="1585958400" r="1" fill="white"><title>2020-04-04: 6</title></circle>
	<circle cx="83.70" cy="313.93" data-y="4.86" data-x="1586044800" r="1" fill="white"><title>2020-04-05: 5</title></circle>
	<circle cx="85.60" cy="311.56" data-y="5.05" data-x="1586131200" r="1" fill="white"><title>2020-04-06: 5</title></circle>
	<circle cx="87.49" cy="315.35" data-y="4.75" data-x="1586217600" r="1" fill="white"><title>2020-04-07: 5</title></circle>
	<circle cx="89.38" cy="316.77" data-y="4.64" data-x="1586304000" r="1" fill="white"><title>2020-04-08: 5</title></circle>
	<circle cx="91.28" cy="311.09" data-y="5.09" data-x="1586390400" r="1" fill="white"><title>2020-04-09: 5</title></circle>
	<circle cx="93.17" cy="314.88" data-y="4.79" data-x="1586476800" r="1" fill="white"><title>2020-04-10: 5</title></circle>
	<circle cx="95.06" cy="319.14" data-y="4.45" data-x="1586563200" r="1" fill="white"><title>2020-04-11: 4</title></circle>
	<circle cx="96.96" cy="313.46" data-y="4.90" data-x="1586649600" r="1" fill="white"><title>2020-04-12: 5</title></circle>
	<circle cx="98.85" cy="313.93" data-y="4.86" data-x="1586736000" r="1" fill="white"><title>2020-04-13: 5</title></circle>
	<circle cx="100.74" cy="311.56" data-y="5.05" data-x="1586822400" r="1" fill="white"><title>2020-04-14: 5</title></circle>
	<circle cx="102.64" cy="311.56" data-y="5.05" data-x="1586908800" r="1" fill="white"><title>2020-04-15: 5</title></circle>
	<circle cx="104.53" cy="318.19" data-y="4.52" data-x="1586995200" r="1" fill="white"><title>2020-04-16: 5</title></circle>
	<circle cx="106.43" cy="312.51" data-y="4.98" data-x="1587081600" r="1" fill="white"><title>2020-04-17: 5</title></circle>
	<circle cx="108.32" cy="302.57" data-y="5.77" data-x="1587168000" r="1" fill="white"><title>2020-04-18: 6</title></circle>
	<circle cx="110.21" cy="301.62" data-y="5.84" data-x="1587254400" r="1" fill="white"><title>2020-04-19: 6</title></circle>
	<circle cx="112.11" cy="298.31" data-y="6.11" data-x="1587340800" r="1" fill="white"><title>2020-04-20: 6</title></circle>
	<circle cx="114.00" cy="298.78" data-y="6.07" data-x="1587427200" r="1" fill="white"><title>2020-04-21: 6</title></circle>
	<circle cx="115.89" cy="297.83" data-y="6.14" data-x="1587513600" r="1" fill="white"><title>2020-04-22: 6</title></circle>
	<circle cx="117.79" cy="295.47" data-y="6.33" data-x="1587600000" r="1" fill="white"><title>2020-04-23: 6</title></circle>
	<circle cx="119.68" cy="303.99" data-y="5.65" data-x="1587686400" r="1" fill="white"><title>2020-04-24: 6</title></circle>
	<circle cx="121.57" cy="313.46" data-y="4.90" data-x="1587772800" r="1" fill="white"><title>2020-04-25: 5</title></circle>
	<circle cx="123.47" cy="314.40" data-y="4.83" data-x="1587859200" r="1" fill="white"><title>2020-04-26: 5</title></circle>
	<circle cx="125.36" cy="314.40" data-y="4.83" data-x="1587945600" r="1" fill="white"><title>2020-04-27: 5</title></circle>
	<circle cx="127.26" cy="306.36" data-y="5.47" data-x="1588032000" r="1" fill="white"><title>2020-04-28: 5</title></circle>
	<circle cx="129.15" cy="305.88" data-y="5.50" data-x="1588118400" r="1" fill="white"><title>2020-04-29: 6</title></circle>
	<circle cx="131.04" cy="300.67" data-y="5.92" data-x="1588204800" r="1" fill="white"><title>2020-04-30: 6</title></circle>
	<circle cx="132.94" cy="302.57" data-y="5.77" data-x="1588291200" r="1" fill="white"><title>2020-05-01: 6</title></circle>
	<circle cx="134.83" cy="297.83" data-y="6.14" data-x="1588377600" r="1" fill="white"><title>2020-05-02: 6</title></circle>
	<circle cx="136.72" cy="300.20" data-y="5.96" data-x="1588464000" r="1" fill="white"><title>2020-05-03: 6</title></circle>
	<circle cx="138.62" cy="302.09" data-y="5.81" data-x="1588550400" r="1" fill="white"><title>2020-05-04: 6</title></circle>
	<circle cx="140.51" cy="306.83" data-y="5.43" data-x="1588636800" r="1" fill="white"><title>2020-05-05: 5</title></circle>
	<circle cx="142.40" cy="310.14" data-y="5.16" data-x="1588723200" r="1" fill="white"><title>2020-05-06: 5</title></circle>
	<circle cx="144.30" cy="313.46" data-y="4.90" data-x="1588809600" r="1" fill="white"><title>2020-05-07: 5</title></circle>
	<circle cx="146.19" cy="302.57" data-y="5.77" data-x="1588896000" r="1" fill="white"><title>2020-05-08: 6</title></circle>
	<circle cx="148.09" cy="305.41" data-y="5.54" data-x="1588982400" r="1" fill="white"><title>2020-05-09: 6</title></circle>
	<circle cx="149.98" cy="307.78" data-y="5.35" data-x="1589068800" r="1" fill="white"><title>2020-05-10: 5</title></circle>
	<circle cx="151.87" cy="315.82" data-y="4.71" data-x="1589155200" r="1" fill="white"><title>2020-05-11: 5</title></circle>
	<circle cx="153.77" cy="320.56" data-y="4.34" data-x="1589241600" r="1" fill="white"><title>2020-05-12: 4</title></circle>
	<circle cx="155.66" cy="321.50" data-y="4.26" data-x="1589328000" r="1" fill="white"><title>2020-05-13: 4</title></circle>
	<circle cx="157.55" cy="326.24" data-y="3.88" data-x="1589414400" r="1" fill="white"><title>2020-05-14: 4</title></circle>
	<circle cx="159.45" cy="336.65" data-y="3.05" data-x="1589500800" r="1" fill="white"><title>2020-05-15: 3</title></circle>
	<circle cx="161.34" cy="335.23" data-y="3.17" data-x="1589587200" r="1" fill="white"><title>2020-05-16: 3</title></circle>
	<circle cx="163.23" cy="335.23" data-y="3.17" data-x="1589673600" r="1" fill="white"><title>2020-05-17: 3</title></circle>
	<circle cx="165.13" cy="334.29" data-y="3.24" data-x="1589760000" r="1" fill="white"><title>2020-05-18: 3</title></circle>
	<circle cx="167.02" cy="338.55" data-y="2.90" data-x="1589846400" r="1" fill="white"><title>2020-05-19: 3</title></circle>
	<circle cx="168.91" cy="339.49" data-y="2.83" data-x="1589932800" r="1" fill="white"><title>2020-05-20: 3</title></circle>
	<circle cx="170.81" cy="338.07" data-y="2.94" data-x="1590019200" r="1" fill="white"><title>2020-05-21: 3</title></circle>
	<circle cx="172.70" cy="339.49" data-y="2.83" data-x="1590105600" r="1" fill="white"><title>2020-05-22: 3</title></circle>
	<circle cx="174.60" cy="348.02" data-y="2.15" data-x="1590192000" r="1" fill="white"><title>2020-05-23: 2</title></circle>
	<circle cx="176.49" cy="351.33" data-y="1.88" data-x="1590278400" r="1" fill="white"><title>2020-05-24: 2</title></circle>
	<circle cx="178.38" cy="355.12" data-y="1.58" data-x="1590364800" r="1" fill="white"><title>2020-05-25: 2</title></circle>
	<circle cx="180.28" cy="351.33" data-y="1.88" data-x="1590451200" r="1" fill="white"><title>2020-05-26: 2</title></circle>
	<circle cx="182.17" cy="350.38" data-y="1.96" data-x="1590537600" r="1" fill="white"><title>2020-05-27: 2</title></circle>
	<circle cx="184.06" cy="355.12" data-y="1.58" data-x="1590624000" r="1" fill="white"><title>2020-05-28: 2</title></circle>
	<circle cx="185.96" cy="356.54" data-y="1.47" data-x="1590710400" r="1" fill="white"><title>2020-05-29: 1</title></circle>
	<circle cx="187.85" cy="356.06" data-y="1.51" data-x="1590796800" r="1" fill="white"><title>2020-05-30: 2</title></circle>
	<circle cx="189.74" cy="357.48" data-y="1.39" data-x="1590883200" r="1" fill="white"><title>2020-05-31: 1</title></circle>
	<circle cx="191.64" cy="355.59" data-y="1.55" data-x="1590969600" r="1" fill="white"><title>2020-06-01: 2</title></circle>
	<circle cx="193.53" cy="361.27" data-y="1.09" data-x="1591056000" r="1" fill="white"><title>2020-06-02: 1</title></circle>
	<circle cx="195.43" cy="365.06" data-y="0.79" data-x="1591142400" r="1" fill="white"><title>2020-06-03: 1</title></circle>
	<circle cx="197.32" cy="363.64" data-y="0.90" data-x="1591228800" r="1" fill="white"><title>2020-06-04: 1</title></circle>
	<circle cx="199.21" cy="364.11" data-y="0.87" data-x="1591315200" r="1" fill="white"><title>2020-06-05: 1</title></circle>
	<circle cx="201.11" cy="366.01" data-y="0.72" data-x="1591401600" r="1" fill="white"><title>2020-06-06: 1</title></circle>
	<circle cx="203.00" cy="364.58" data-y="0.83" data-x="1591488000" r="1" fill="white"><title>2020-06-07: 1</title></circle>
	<circle cx="204.89" cy="365.06" data-y="0.79" data-x="1591574400" r="1" fill="white"><title>2020-06-08: 1</title></circle>
	<circle cx="206.79" cy="365.06" data-y="0.79" data-x="1591660800" r="1" fill="white"><title>2020-06-09: 1</title></circle>
	<circle cx="208.68" cy="364.11" data-y="0.87" data-x="1591747200" r="1" fill="white"><title>2020-06-10: 1</title></circle>
	<circle cx="210.57" cy="364.58" data-y="0.83" data-x="1591833600" r="1" fill="white"><title>2020-06-11: 1</title></circle>
	<circle cx="212.47" cy="364.11" data-y="0.87" data-x="1591920000" r="1" fill="white"><title>2020-06-12: 1</title></circle>
	<circle cx="214.36" cy="361.27" data-y="1.09" data-x="1592006400" r="1" fill="white"><title>2020-06-13: 1</title></circle>
	<circle cx="216.26" cy="362.22" data-y="1.02" data-x="1592092800" r="1" fill="white"><title>2020-06-14: 1</title></circle>
	<circle cx="218.15" cy="363.16" data-y="0.94" data-x="1592179200" r="1" fill="white"><title>2020-06-15: 1</title></circle>
	<circle cx="220.04" cy="364.11" data-y="0.87" data-x="1592265600" r="1" fill="white"><title>2020-06-16: 1</title></circle>
	<circle cx="221.94" cy="363.64" data-y="0.90" data-x="1592352000" r="1" fill="white"><title>2020-06-17: 1</title></circle>
	<circle cx="223.83" cy="364.11" data-y="0.87" data-x="1592438400" r="1" fill="white"><title>2020-06-18: 1</title></circle>
	<circle cx="225.72" cy="365.06" data-y="0.79" data-x="1592524800" r="1" fill="white"><title>2020-06-19: 1</title></circle>
	<circle cx="227.62" cy="367.43" data-y="0.60" data-x="1592611200" r="1" fill="white"><title>2020-06-20: 1</title></circle>
	<circle cx="229.51" cy="368.85" data-y="0.49" data-x="1592697600" r="1" fill="white"><title>2020-06-21: 0</title></circle>
	<circle cx="231.40" cy="371.21" data-y="0.30" data-x="1592784000" r="1" fill="white"><title>2020-06-22: 0</title></circle>
	<circle cx="233.30" cy="371.21" data-y="0.30" data-x="1592870400" r="1" fill="white"><title>2020-06-23: 0</title></circle>
	<circle cx="235.19" cy="372.63" data-y="0.19" data-x="1592956800" r="1" fill="white"><title>2020-06-24: 0</title></circle>
	<circle cx="237.09" cy="372.63" data-y="0.19" data-x="1593043200" r="1" fill="white"><title>2020-06-25: 0</title></circle>
	<circle cx="238.98" cy="371.69" data-y="0.26" data-x="1593129600" r="1" fill="white"><title>2020-06-26: 0</title></circle>
	<circle cx="240.87" cy="371.69" data-y="0.26" data-x="1593216000" r="1" fill="white"><title>2020-06-27: 0</title></circle>
	<circle cx="242.77" cy="371.21" data-y="0.30" data-x="1593302400" r="1" fill="white"><title>2020-06-28: 0</title></circle>
	<circle cx="244.66" cy="370.27" data-y="0.38" data-x="1593388800" r="1" fill="white"><title>2020-06-29: 0</title></circle>
	<circle cx="246.55" cy="370.27" data-y="0.38" data-x="1593475200" r="1" fill="white"><title>2020-06-30: 0</title></circle>
	<circle cx="248.45" cy="369.32" data-y="0.45" data-x="1593561600" r="1" fill="white"><title>2020-07-01: 0</title></circle>
	<circle cx="250.34" cy="367.90" data-y="0.57" data-x="1593648000" r="1" fill="white"><title>2020-07-02: 1</title></circle>
	<circle cx="252.23" cy="368.37" data-y="0.53" data-x="1593734400" r="1" fill="white"><title>2020-07-03: 1</title></circle>
	<circle cx="254.13" cy="367.43" data-y="0.60" data-x="1593820800" r="1" fill="white"><title>2020-07-04: 1</title></circle>
	<circle cx="256.02" cy="367.43" data-y="0.60" data-x="1593907200" r="1" fill="white"><title>2020-07-05: 1</title></circle>
	<circle cx="257.91" cy="367.90" data-y="0.57" data-x="1593993600" r="1" fill="white"><title>2020-07-06: 1</title></circle>
	<circle cx="259.81" cy="367.43" data-y="0.60" data-x="1594080000" r="1" fill="white"><title>2020-07-07: 1</title></circle>
	<circle cx="261.70" cy="368.37" data-y="0.53" data-x="1594166400" r="1" fill="white"><title>2020-07-08: 1</title></circle>
	<circle cx="263.60" cy="370.27" data-y="0.38" data-x="1594252800" r="1" fill="white"><title>2020-07-09: 0</title></circle>
	<circle cx="265.49" cy="370.74" data-y="0.34" data-x="1594339200" r="1" fill="white"><title>2020-07-10: 0</title></circle>
	<circle cx="267.38" cy="369.79" data-y="0.41" data-x="1594425600" r="1" fill="white"><title>2020-07-11: 0</title></circle>
	<circle cx="269.28" cy="368.37" data-y="0.53" data-x="1594512000" r="1" fill="white"><title>2020-07-12: 1</title></circle>
	<circle cx="271.17" cy="367.43" data-y="0.60" data-x="1594598400" r="1" fill="white"><title>2020-07-13: 1</title></circle>
	<circle cx="273.06" cy="366.01" data-y="0.72" data-x="1594684800" r="1" fill="white"><title>2020-07-14: 1</title></circle>
	<circle cx="274.96" cy="363.16" data-y="0.94" data-x="1594771200" r="1" fill="white"><title>2020-07-15: 1</title></circle>
	<circle cx="276.85" cy="363.16" data-y="0.94" data-x="1594857600" r="1" fill="white"><title>2020-07-16: 1</title></circle>
	<circle cx="278.74" cy="361.74" data-y="1.06" data-x="1594944000" r="1" fill="white"><title>2020-07-17: 1</title></circle>
	<circle cx="280.64" cy="363.16" data-y="0.94" data-x="1595030400" r="1" fill="white"><title>2020-07-18: 1</title></circle>
	<circle cx="282.53" cy="362.69" data-y="0.98" data-x="1595116800" r="1" fill="white"><title>2020-07-19: 1</title></circle>
	<circle cx="284.43" cy="360.32" data-y="1.17" data-x="1595203200" r="1" fill="white"><title>2020-07-20: 1</title></circle>
	<circle cx="286.32" cy="359.85" data-y="1.21" data-x="1595289600" r="1" fill="white"><title>2020-07-21: 1</title></circle>
	<circle cx="288.21" cy="359.85" data-y="1.21" data-x="1595376000" r="1" fill="white"><title>2020-07-22: 1</title></circle>
	<circle cx="290.11" cy="357.01" data-y="1.43" data-x="1595462400" r="1" fill="white"><title>2020-07-23: 1</title></circle>
	<circle cx="292.00" cy="354.17" data-y="1.66" data-x="1595548800" r="1" fill="white"><title>2020-07-24: 2</title></circle>
	<circle cx="293.89" cy="352.75" data-y="1.77" data-x="1595635200" r="1" fill="white"><title>2020-07-25: 2</title></circle>
	<circle cx="295.79" cy="352.28" data-y="1.81" data-x="1595721600" r="1" fill="white"><title>2020-07-26: 2</title></circle>
	<circle cx="297.68" cy="349.44" data-y="2.04" data-x="1595808000" r="1" fill="white"><title>2020-07-27: 2</title></circle>
	<circle cx="299.57" cy="349.44" data-y="2.04" data-x="1595894400" r="1" fill="white"><title>2020-07-28: 2</title></circle>
	<circle cx="301.47" cy="349.44" data-y="2.04" data-x="1595980800" r="1" fill="white"><title>2020-07-29: 2</title></circle>
	<circle cx="303.36" cy="349.44" data-y="2.04" data-x="1596067200" r="1" fill="white"><title>2020-07-30: 2</title></circle>
	<circle cx="305.26" cy="350.38" data-y="1.96" data-x="1596153600" r="1" fill="white"><title>2020-07-31: 2</title></circle>
	<circle cx="307.15" cy="350.38" data-y="1.96" data-x="1596240000" r="1" fill="white"><title>2020-08-01: 2</title></circle>
	<circle cx="309.04" cy="348.96" data-y="2.07" data-x="1596326400" r="1" fill="white"><title>2020-08-02: 2</title></circle>
	<circle cx="310.94" cy="350.86" data-y="1.92" data-x="1596412800" r="1" fill="white"><title>2020-08-03: 2</title></circle>
	<circle cx="312.83" cy="348.49" data-y="2.11" data-x="1596499200" r="1" fill="white"><title>2020-08-04: 2</title></circle>
	<circle cx="314.72" cy="346.60" data-y="2.26" data-x="1596585600" r="1" fill="white"><title>2020-08-05: 2</title></circle>
	<circle cx="316.62" cy="348.02" data-y="2.15" data-x="1596672000" r="1" fill="white"><title>2020-08-06: 2</title></circle>
	<circle cx="318.51" cy="346.12" data-y="2.30" data-x="1596758400" r="1" fill="white"><title>2020-08-07: 2</title></circle>
	<circle cx="320.40" cy="343.28" data-y="2.53" data-x="1596844800" r="1" fill="white"><title>2020-08-08: 3</title></circle>
	<circle cx="322.30" cy="343.75" data-y="2.49" data-x="1596931200" r="1" fill="white"><title>2020-08-09: 2</title></circle>
	<circle cx="324.19" cy="343.75" data-y="2.49" data-x="1597017600" r="1" fill="white"><title>2020-08-10: 2</title></circle>
	<circle cx="326.09" cy="336.18" data-y="3.09" data-x="1597104000" r="1" fill="white"><title>2020-08-11: 3</title></circle>
	<circle cx="327.98" cy="336.18" data-y="3.09" data-x="1597190400" r="1" fill="white"><title>2020-08-12: 3</title></circle>
	<circle cx="329.87" cy="334.76" data-y="3.20" data-x="1597276800" r="1" fill="white"><title>2020-08-13: 3</title></circle>
	<circle cx="331.77" cy="337.60" data-y="2.98" data-x="1597363200" r="1" fill="white"><title>2020-08-14: 3</title></circle>
	<circle cx="333.66" cy="339.49" data-y="2.83" data-x="1597449600" r="1" fill="white"><title>2020-08-15: 3</title></circle>
	<circle cx="335.55" cy="340.91" data-y="2.71" data-x="1597536000" r="1" fill="white"><title>2020-08-16: 3</title></circle>
	<circle cx="337.45" cy="342.33" data-y="2.60" data-x="1597622400" r="1" fill="white"><title>2020-08-17: 3</title></circle>
	<circle cx="339.34" cy="353.70" data-y="1.70" data-x="1597708800" r="1" fill="white"><title>2020-08-18: 2</title></circle>
	<circle cx="341.23" cy="355.59" data-y="1.55" data-x="1597795200" r="1" fill="white"><title>2020-08-19: 2</title></circle>
	<circle cx="343.13" cy="354.17" data-y="1.66" data-x="1597881600" r="1" fill="white"><title>2020-08-20: 2</title></circle>
	<circle cx="345.02" cy="352.75" data-y="1.77" data-x="1597968000" r="1" fill="white"><title>2020-08-21: 2</title></circle>
	<circle cx="346.91" cy="351.33" data-y="1.88" data-x="1598054400" r="1" fill="white"><title>2020-08-22: 2</title></circle>
	<circle cx="348.81" cy="348.96" data-y="2.07" data-x="1598140800" r="1" fill="white"><title>2020-08-23: 2</title></circle>
	<circle cx="350.70" cy="346.60" data-y="2.26" data-x="1598227200" r="1" fill="white"><title>2020-08-24: 2</title></circle>
	<circle cx="352.60" cy="341.86" data-y="2.64" data-x="1598313600" r="1" fill="white"><title>2020-08-25: 3</title></circle>
	<circle cx="354.49" cy="342.33" data-y="2.60" data-x="1598400000" r="1" fill="white"><title>2020-08-26: 3</title></circle>
	<circle cx="356.38" cy="344.23" data-y="2.45" data-x="1598486400" r="1" fill="white"><title>2020-08-27: 2</title></circle>
	<circle cx="358.28" cy="343.75" data-y="2.49" data-x="1598572800" r="1" fill="white"><title>2020-08-28: 2</title></circle>
	<circle cx="360.17" cy="342.81" data-y="2.56" data-x="1598659200" r="1" fill="white"><title>2020-08-29: 3</title></circle>
	<circle cx="362.06" cy="339.49" data-y="2.83" data-x="1598745600" r="1" fill="white"><title>2020-08-30: 3</title></circle>
	<circle cx="363.96" cy="334.76" data-y="3.20" data-x="1598832000" r="1" fill="white"><title>2020-08-31: 3</title></circle>
	<circle cx="365.85" cy="334.76" data-y="3.20" data-x="1598918400" r="1" fill="white"><title>2020-09-01: 3</title></circle>
	<circle cx="367.74" cy="332.39" data-y="3.39" data-x="1599004800" r="1" fill="white"><title>2020-09-02: 3</title></circle>
	<circle cx="369.64" cy="326.24" data-y="3.88" data-x="1599091200" r="1" fill="white"><title>2020-09-03: 4</title></circle>
	<circle cx="371.53" cy="315.82" data-y="4.71" data-x="1599177600" r="1" fill="white"><title>2020-09-04: 5</title></circle>
	<circle cx="373.43" cy="313.93" data-y="4.86" data-x="1599264000" r="1" fill="white"><title>2020-09-05: 5</title></circle>
	<circle cx="375.32" cy="312.51" data-y="4.98" data-x="1599350400" r="1" fill="white"><title>2020-09-06: 5</title></circle>
	<circle cx="377.21" cy="315.35" data-y="4.75" data-x="1599436800" r="1" fill="white"><title>2020-09-07: 5</title></circle>
	<circle cx="379.11" cy="310.62" data-y="5.13" data-x="1599523200" r="1" fill="white"><title>2020-09-08: 5</title></circle>
	<circle cx="381.00" cy="308.25" data-y="5.32" data-x="1599609600" r="1" fill="white"><title>2020-09-09: 5</title></circle>
	<circle cx="382.89" cy="311.56" data-y="5.05" data-x="1599696000" r="1" fill="white"><title>2020-09-10: 5</title></circle>
	<circle cx="384.79" cy="315.35" data-y="4.75" data-x="1599782400" r="1" fill="white"><title>2020-09-11: 5</title></circle>
	<circle cx="386.68" cy="314.40" data-y="4.83" data-x="1599868800" r="1" fill="white"><title>2020-09-12: 5</title></circle>
	<circle cx="388.57" cy="314.88" data-y="4.79" data-x="1599955200" r="1" fill="white"><title>2020-09-13: 5</title></circle>
	<circle cx="390.47" cy="308.25" data-y="5.32" data-x="1600041600" r="1" fill="white"><title>2020-09-14: 5</title></circle>
	<circle cx="392.36" cy="302.57" data-y="5.77" data-x="1600128000" r="1" fill="white"><title>2020-09-15: 6</title></circle>
	<circle cx="394.26" cy="292.63" data-y="6.56" data-x="1600214400" r="1" fill="white"><title>2020-09-16: 7</title></circle>
	<circle cx="396.15" cy="277.48" data-y="7.77" data-x="1600300800" r="1" fill="white"><title>2020-09-17: 8</title></circle>
	<circle cx="398.04" cy="267.06" data-y="8.59" data-x="1600387200" r="1" fill="white"><title>2020-09-18: 9</title></circle>
	<circle cx="399.94" cy="259.01" data-y="9.24" data-x="1600473600" r="1" fill="white"><title>2020-09-19: 9</title></circle>
	<circle cx="401.83" cy="246.23" data-y="10.25" data-x="1600560000" r="1" fill="white"><title>2020-09-20: 10</title></circle>
	<circle cx="403.72" cy="240.08" data-y="10.74" data-x="1600646400" r="1" fill="white"><title>2020-09-21: 11</title></circle>
	<circle cx="405.62" cy="238.18" data-y="10.89" data-x="1600732800" r="1" fill="white"><title>2020-09-22: 11</title></circle>
	<circle cx="407.51" cy="241.50" data-y="10.63" data-x="1600819200" r="1" fill="white"><title>2020-09-23: 11</title></circle>
	<circle cx="409.40" cy="243.87" data-y="10.44" data-x="1600905600" r="1" fill="white"><title>2020-09-24: 10</title></circle>
	<circle cx="411.30" cy="239.13" data-y="10.82" data-x="1600992000" r="1" fill="white"><title>2020-09-25: 11</title></circle>
	<circle cx="413.19" cy="234.87" data-y="11.16" data-x="1601078400" r="1" fill="white"><title>2020-09-26: 11</title></circle>
	<circle cx="415.09" cy="228.24" data-y="11.69" data-x="1601164800" r="1" fill="white"><title>2020-09-27: 12</title></circle>
	<circle cx="416.98" cy="216.88" data-y="12.59" data-x="1601251200" r="1" fill="white"><title>2020-09-28: 13</title></circle>
	<circle cx="418.87" cy="204.57" data-y="13.57" data-x="1601337600" r="1" fill="white"><title>2020-09-29: 14</title></circle>
	<circle cx="420.77" cy="192.74" data-y="14.51" data-x="1601424000" r="1" fill="white"><title>2020-09-30: 15</title></circle>
	<circle cx="422.66" cy="184.69" data-y="15.15" data-x="1601510400" r="1" fill="white"><title>2020-10-01: 15</title></circle>
	<circle cx="424.55" cy="175.22" data-y="15.91" data-x="1601596800" r="1" fill="white"><title>2020-10-02: 16</title></circle>
	<circle cx="426.45" cy="156.28" data-y="17.42" data-x="1601683200" r="1" fill="white"><title>2020-10-03: 17</title></circle>
	<circle cx="428.34" cy="133.09" data-y="19.26" data-x="1601769600" r="1" fill="white"><title>2020-10-04: 19</title></circle>
	<circle cx="430.23" cy="115.10" data-y="20.70" data-x="1601856000" r="1" fill="white"><title>2020-10-05: 21</title></circle>
	<circle cx="432.13" cy="102.32" data-y="21.71" data-x="1601942400" r="1" fill="white"><title>2020-10-06: 22</title></circle>
	<circle cx="434.02" cy="91.43" data-y="22.58" data-x="1602028800" r="1" fill="white"><title>2020-10-07: 23</title></circle>
	<circle cx="435.91" cy="82.43" data-y="23.30" data-x="1602115200" r="1" fill="white"><title>2020-10-08: 23</title></circle>
	<circle cx="437.81" cy="71.54" data-y="24.16" data-x="1602201600" r="1" fill="white"><title>2020-10-09: 24</title></circle>
	<circle cx="439.70" cy="62.55" data-y="24.88" data-x="1602288000" r="1" fill="white"><title>2020-10-10: 25</title></circle>
	<circle cx="441.60" cy="66.34" data-y="24.58" data-x="1602374400" r="1" fill="white"><title>2020-10-11: 25</title></circle>
	<circle cx="443.49" cy="57.81" data-y="25.26" data-x="1602460800" r="1" fill="white"><title>2020-10-12: 25</title></circle>
	<circle cx="445.38" cy="52.61" data-y="25.67" data-x="1602547200" r="1" fill="white"><title>2020-10-13: 26</title></circle>
	<circle cx="447.28" cy="52.13" data-y="25.71" data-x="1602633600" r="1" fill="white"><title>2020-10-14: 26</title></circle>
	<circle cx="449.17" cy="51.19" data-y="25.78" data-x="1602720000" r="1" fill="white"><title>2020-10-15: 26</title></circle>
	<circle cx="451.06" cy="36.98" data-y="26.92" data-x="1602806400" r="1" fill="white"><title>2020-10-16: 27</title></circle>
	<circle cx="452.96" cy="27.99" data-y="27.63" data-x="1602892800" r="1" fill="white"><title>2020-10-17: 28</title></circle>
	<circle cx="454.85" cy="10.47" data-y="29.03" data-x="1602979200" r="1" fill="white"><title>2020-10-18: 29</title></circle>
	<circle cx="456.74" cy="10.00" data-y="29.06" data-x="1603065600" r="1" fill="white"><title>2020-10-19: 29</title></circle>
	<circle cx="458.64" cy="15.21" data-y="28.65" data-x="1603152000" r="1" fill="white"><title>2020-10-20: 29</title></circle>
	<circle cx="460.53" cy="12.84" data-y="28.84" data-x="1603238400" r="1" fill="white"><title>2020-10-21: 29</title></circle>
</g>
<g data-series="recent-cases" class="data-series">
	<path d="M 460.53,12.84L 462.43,23.26L 464.32,84.33L 466.21,103.26L 468.11,140.38L 470.00,184.45" id="Recent cases" class="line" stroke-width="1" stroke-linecap="round" stroke-dasharray="4,6" stroke-dashoffset="4"><title>Recent cases</title></path>
	<circle cx="460.53" cy="12.84" data-y="28.84" data-x="1603238400" r="2.5" fill="white"><title>2020-10-21: 29</title></circle>
	<circle cx="462.43" cy="23.26" data-y="28.01" data-x="1603324800" r="2.5" fill="white"><title>2020-10-22: 28</title></circle>
	<circle cx="464.32" cy="84.33" data-y="23.15" data-x="1603411200" r="2.5" fill="white"><title>2020-10-23: 23</title></circle>
	<circle cx="466.21" cy="103.26" data-y="21.64" data-x="1603497600" r="2.5" fill="white"><title>2020-10-24: 22</title></circle>
	<circle cx="468.11" cy="140.38" data-y="18.68" data-x="1603584000" r="2.5" fill="white"><title>2020-10-25: 19</title></circle>
	<circle cx="470.00" cy="184.45" data-y="15.17" data-x="1603670400" r="2.5" fill="white"><title>2020-10-26: 15</title></circle>
</g>
</svg>
