<svg width="480" height="400" viewBox="0 0 480 400" xmlns="http://www.w3.org/2000/svg" style="overflow:display" preserveAspectRatio="xMinYMin meet" overflow="visible">
<defs>
	<style>
	.data-series path.line { fill-opacity: 0; stroke: black; }
	.data-series path.line.dotted { stroke-dasharray: 12 20 }
	.data-series:hover path.line, .data-series.on path.line { stroke-width: 1; }
	.data-series:hover circle, .data-series.on circle { display: inline; }
	.graph-grid { font-family: "Helvetica Neue",Helvetica,Arial,"Lucida Grande",sans-serif; }
	.graph-grid line { stroke: black; stroke-width: 1; stroke-linecap: round; }
	.graph-grid.graph-grid-x text { text-anchor: middle; dominant-baseline: hanging; transform: translateY(10px); }
	.graph-grid.graph-grid-y text { text-anchor: end; dominant-baseline: middle; transform: translateX(-10px); }
	</style>
</defs>
<g class="graph-grid graph-grid-y">
	<line x1="25.00" y1="375.00" x2="470.00" y2="375.00" data-left="25"></line>
	<text x="35" y="375" text-anchor="end">0</text>
	<text x="35" y="282.660011940299" text-anchor="end">20</text>
	<text x="35" y="190.320023880597" text-anchor="end">40</text>
	<text x="35" y="97.9800358208955" text-anchor="end">60</text>
	<text x="35" y="5.64004776119403" text-anchor="end">80</text>
	<text style="text-anchor:middle;dominant-baseline:hanging;font-weight:bold;transform: translateY(192.5px) rotate(-90deg);"></text>
</g>
<g class="graph-grid graph-grid-x">
	<line class="tick" x1="80.62" y1="375.00" x2="80.62" y2="380.00"></line>
	<text x="80.625" y="375" text-anchor="middle">A</text>
	<line class="tick" x1="136.25" y1="375.00" x2="136.25" y2="380.00"></line>
	<text x="136.25" y="375" text-anchor="middle">M</text>
	<line class="tick" x1="193.73" y1="375.00" x2="193.73" y2="380.00"></line>
	<text x="193.729166666667" y="375" text-anchor="middle">J</text>
	<line class="tick" x1="249.35" y1="375.00" x2="249.35" y2="380.00"></line>
	<text x="249.354166666667" y="375" text-anchor="middle">J</text>
	<line class="tick" x1="306.83" y1="375.00" x2="306.83" y2="380.00"></line>
	<text x="306.833333333333" y="375" text-anchor="middle">A</text>
	<line class="tick" x1="364.31" y1="375.00" x2="364.31" y2="380.00"></line>
	<text x="364.3125" y="375" text-anchor="middle">S</text>
	<line class="tick" x1="419.94" y1="375.00" x2="419.94" y2="380.00"></line>
	<text x="419.9375" y="375" text-anchor="middle">O</text>
	<text style="text-anchor:middle;dominant-baseline:hanging;font-weight:bold;transform: translateY(192.5px) rotate(-90deg);"></text>
</g>
<g data-series="widespread" class="data-series">
	<path d="M 25.00,342.68L 470.00,342.68" id="E08000021-level-0" class="line" stroke-width="1" stroke-linecap="round" stroke-dasharray="3,3" fill-opacity="0.3" opacity="0.3"><title>Widespread</title></path>
</g>
<g data-series="substantial" class="data-series">
	<path d="M 25.00,356.53L 470.00,356.53" id="E08000021-level-1" class="line" stroke-width="1" stroke-linecap="round" stroke-dasharray="3,3" fill-opacity="0.3" opacity="0.3"><title>Substantial</title></path>
</g>
<g data-series="moderate" class="data-series">
	<path d="M 25.00,370.38L 470.00,370.38" id="E08000021-level-2" class="line" stroke-width="1" stroke-linecap="round" stroke-dasharray="3,3" fill-opacity="0.3" opacity="0.3"><title>Moderate</title></path>
</g>
<g data-series="new-cases" class="data-series">
	<path d="M 25.00,373.86L 26.85,374.08L 28.71,373.98L 30.56,374.13L 32.42,374.35L 34.27,374.13L 36.12,374.35L 37.98,374.56L 39.83,374.13L 41.69,373.91L 43.54,373.04L 45.40,373.04L 47.25,371.95L 49.10,371.30L 50.96,370.21L 52.81,368.90L 54.67,367.37L 56.52,367.16L 58.38,363.45L 60.23,360.40L 62.08,356.91L 63.94,353.86L 65.79,351.25L 67.65,350.59L 69.50,345.15L 71.35,344.71L 73.21,341.66L 75.06,336.87L 76.92,334.25L 78.77,331.64L 80.62,329.24L 82.48,330.55L 84.33,326.19L 86.19,324.88L 88.04,327.28L 89.90,325.10L 91.75,325.75L 93.60,326.41L 95.46,327.93L 97.31,332.07L 99.17,334.03L 101.02,334.90L 102.88,336.87L 104.73,336.87L 106.58,333.38L 108.44,330.98L 110.29,329.24L 112.15,331.64L 114.00,329.67L 115.85,331.42L 117.71,330.76L 119.56,335.56L 121.42,338.39L 123.27,341.01L 125.12,338.17L 126.98,341.22L 128.83,337.52L 130.69,340.57L 132.54,339.04L 134.40,339.92L 136.25,340.13L 138.10,342.31L 139.96,342.53L 141.81,346.24L 143.67,347.98L 145.52,351.47L 147.38,351.68L 149.23,352.99L 151.08,353.86L 152.94,355.61L 154.79,358.66L 156.65,358.66L 158.50,357.57L 160.35,358.22L 162.21,358.87L 164.06,361.71L 165.92,362.14L 167.77,362.80L 169.62,363.45L 171.48,364.76L 173.33,365.41L 175.19,366.28L 177.04,361.93L 178.90,360.84L 180.75,360.84L 182.60,360.18L 184.46,359.75L 186.31,359.53L 188.17,359.09L 190.02,364.32L 191.88,366.50L 193.73,367.16L 195.58,367.37L 197.44,368.68L 199.29,369.77L 201.15,369.55L 203.00,368.90L 204.85,369.33L 206.71,369.99L 208.56,371.95L 210.42,371.51L 212.27,369.33L 214.12,369.55L 215.98,369.33L 217.83,369.33L 219.69,369.12L 221.54,368.90L 223.40,369.33L 225.25,371.51L 227.10,371.95L 228.96,372.39L 230.81,372.60L 232.67,372.60L 234.52,372.82L 236.38,372.60L 238.23,372.60L 240.08,372.82L 241.94,372.82L 243.79,373.04L 245.65,373.47L 247.50,373.26L 249.35,373.47L 251.21,373.26L 253.06,373.26L 254.92,373.47L 256.77,373.69L 258.62,372.82L 260.48,372.82L 262.33,372.82L 264.19,372.82L 266.04,372.60L 267.90,372.82L 269.75,371.95L 271.60,372.17L 273.46,372.17L 275.31,372.17L 277.17,372.39L 279.02,372.60L 280.88,372.82L 282.73,373.69L 284.58,374.35L 286.44,374.56L 288.29,374.56L 290.15,374.56L 292.00,374.78L 293.85,375.00L 295.71,374.13L 297.56,373.26L 299.42,373.04L 301.27,372.60L 303.12,372.39L 304.98,371.95L 306.83,371.73L 308.69,371.95L 310.54,371.30L 312.40,371.30L 314.25,371.73L 316.10,371.51L 317.96,370.86L 319.81,368.46L 321.67,366.94L 323.52,365.41L 325.38,365.19L 327.23,364.76L 329.08,364.76L 330.94,364.32L 332.79,364.54L 334.65,365.19L 336.50,365.63L 338.35,364.76L 340.21,364.98L 342.06,364.98L 343.92,366.07L 345.77,366.72L 347.62,366.72L 349.48,367.81L 351.33,366.28L 353.19,364.76L 355.04,363.67L 356.90,363.23L 358.75,361.93L 360.60,359.75L 362.46,356.04L 364.31,353.86L 366.17,346.45L 368.02,341.44L 369.88,337.52L 371.73,333.81L 373.58,332.51L 375.44,329.24L 377.29,327.50L 379.15,329.89L 381.00,330.55L 382.85,329.46L 384.71,326.19L 386.56,317.47L 388.42,315.95L 390.27,301.13L 392.12,289.14L 393.98,268.44L 395.83,245.78L 397.69,234.45L 399.54,220.94L 401.40,205.47L 403.25,197.84L 405.10,178.44L 406.96,177.57L 408.81,161.45L 410.67,139.87L 412.52,124.84L 414.38,96.73L 416.23,80.39L 418.08,72.54L 419.94,50.10L 421.79,39.85L 423.65,22.42L 425.50,10.00L 427.35,15.45L 429.21,23.95L 431.06,41.60L 432.92,66.87L 434.77,79.95L 436.62,105.88L 438.48,123.31L 440.33,142.71L 442.19,152.73L 444.04,165.37L 445.90,168.20L 447.75,177.57L 449.60,172.78L 451.46,174.96L 453.31,172.13L 455.17,176.48L 457.02,169.73L 458.88,166.02L 460.73,161.01" id="New cases" class="line" stroke-width="1" stroke-linecap="round"><title>New cases</title></path>
	<circle cx="25.00" cy="373.86" data-y="0.25" data-x="1583107200" r="1" fill="white"><title>2020-03-02: 0</title></circle>
	<circle cx="26.85" cy="374.08" data-y="0.20" data-x="1583193600" r="1" fill="white"><title>2020-03-03: 0</title></circle>
	<circle cx="28.71" cy="373.98" data-y="0.22" data-x="1583280000" r="1" fill="white"><title>2020-03-04: 0</title></circle>
	<circle cx="30.56" cy="374.13" data-y="0.19" data-x="1583366400" r="1" fill="white"><title>2020-03-05: 0</title></circle>
	<circle cx="32.42" cy="374.35" data-y="0.14" data-x="1583452800" r="1" fill="white"><title>2020-03-06: 0</title></circle>
	<circle cx="34.27" cy="374.13" data-y="0.19" data-x="1583539200" r="1" fill="white"><title>2020-03-07: 0</title></circle>
	<circle cx="36.12" cy="374.35" data-y="0.14" data-x="1583625600" r="1" fill="white"><title>2020-03-08: 0</title></circle>
	<circle cx="37.98" cy="374.56" data-y="0.09" data-x="1583712000" r="1" fill="white"><title>2020-03-09: 0</title></circle>
	<circle cx="39.83" cy="374.13" data-y="0.19" data-x="1583798400" r="1" fill="white"><title>2020-03-10: 0</title></circle>
	<circle cx="41.69" cy="373.91" data-y="0.24" data-x="1583884800" r="1" fill="white"><title>2020-03-11: 0</title></circle>
	<circle cx="43.54" cy="373.04" data-y="0.42" data-x="1583971200" r="1" fill="white"><title>2020-03-12: 0</title></circle>
	<circle cx="45.40" cy="373.04" data-y="0.42" data-x="1584057600" r="1" fill="white"><title>2020-03-13: 0</title></circle>
	<circle cx="47.25" cy="371.95" data-y="0.66" data-x="1584144000" r="1" fill="white"><title>2020-03-14: 1</title></circle>
	<circle cx="49.10" cy="371.30" data-y="0.80" data-x="1584230400" r="1" fill="white"><title>2020-03-15: 1</title></circle>
	<circle cx="50.96" cy="370.21" data-y="1.04" data-x="1584316800" r="1" fill="white"><title>2020-03-16: 1</title></circle>
	<circle cx="52.81" cy="368.90" data-y="1.32" data-x="1584403200" r="1" fill="white"><title>2020-03-17: 1</title></circle>
	<circle cx="54.67" cy="367.37" data-y="1.65" data-x="1584489600" r="1" fill="white"><title>2020-03-18: 2</title></circle>
	<circle cx="56.52" cy="367.16" data-y="1.70" data-x="1584576000" r="1" fill="white"><title>2020-03-19: 2</title></circle>
	<circle cx="58.38" cy="363.45" data-y="2.50" data-x="1584662400" r="1" fill="white"><title>2020-03-20: 3</title></circle>
	<circle cx="60.23" cy="360.40" data-y="3.16" data-x="1584748800" r="1" fill="white"><title>2020-03-21: 3</title></circle>
	<circle cx="62.08" cy="356.91" data-y="3.92" data-x="1584835200" r="1" fill="white"><title>2020-03-22: 4</title></circle>
	<circle cx="63.94" cy="353.86" data-y="4.58" data-x="1584921600" r="1" fill="white"><title>2020-03-23: 5</title></circle>
	<circle cx="65.79" cy="351.25" data-y="5.14" data-x="1585008000" r="1" fill="white"><title>2020-03-24: 5</title></circle>
	<circle cx="67.65" cy="350.59" data-y="5.29" data-x="1585094400" r="1" fill="white"><title>2020-03-25: 5</title></circle>
	<circle cx="69.50" cy="345.15" data-y="6.47" data-x="1585180800" r="1" fill="white"><title>2020-03-26: 6</title></circle>
	<circle cx="71.35" cy="344.71" data-y="6.56" data-x="1585267200" r="1" fill="white"><title>2020-03-27: 7</title></circle>
	<circle cx="73.21" cy="341.66" data-y="7.22" data-x="1585353600" r="1" fill="white"><title>2020-03-28: 7</title></circle>
	<circle cx="75.06" cy="336.87" data-y="8.26" data-x="1585440000" r="1" fill="white"><title>2020-03-29: 8</title></circle>
	<circle cx="76.92" cy="334.25" data-y="8.83" data-x="1585526400" r="1" fill="white"><title>2020-03-30: 9</title></circle>
	<circle cx="78.77" cy="331.64" data-y="9.39" data-x="1585612800" r="1" fill="white"><title>2020-03-31: 9</title></circle>
	<circle cx="80.62" cy="329.24" data-y="9.91" data-x="1585699200" r="1" fill="white"><title>2020-04-01: 10</title></circle>
	<circle cx="82.48" cy="330.55" data-y="9.63" data-x="1585785600" r="1" fill="white"><title>2020-04-02: 10</title></circle>
	<circle cx="84.33" cy="326.19" data-y="10.57" data-x="1585872000" r="1" fill="white"><title>2020-04-03: 11</title></circle>
	<circle cx="86.19" cy="324.88" data-y="10.86" data-x="1585958400" r="1" fill="white"><title>2020-04-04: 11</title></circle>
	<circle cx="88.04" cy="327.28" data-y="10.34" data-x="1586044800" r="1" fill="white"><title>2020-04-05: 10</title></circle>
	<circle cx="89.90" cy="325.10" data-y="10.81" data-x="1586131200" r="1" fill="white"><title>2020-04-06: 11</title></circle>
	<circle cx="91.75" cy="325.75" data-y="10.67" data-x="1586217600" r="1" fill="white"><title>2020-04-07: 11</title></circle>
	<circle cx="93.60" cy="326.41" data-y="10.53" data-x="1586304000" r="1" fill="white"><title>2020-04-08: 11</title></circle>
	<circle cx="95.46" cy="327.93" data-y="10.19" data-x="1586390400" r="1" fill="white"><title>2020-04-09: 10</title></circle>
	<circle cx="97.31" cy="332.07" data-y="9.30" data-x="1586476800" r="1" fill="white"><title>2020-04-10: 9</title></circle>
	<circle cx="99.17" cy="334.03" data-y="8.87" data-x="1586563200" r="1" fill="white"><title>2020-04-11: 9</title></circle>
	<circle cx="101.02" cy="334.90" data-y="8.68" data-x="1586649600" r="1" fill="white"><title>2020-04-12: 9</title></circle>
	<circle cx="102.88" cy="336.87" data-y="8.26" data-x="1586736000" r="1" fill="white"><title>2020-04-13: 8</title></circle>
	<circle cx="104.73" cy="336.87" data-y="8.26" data-x="1586822400" r="1" fill="white"><title>2020-04-14: 8</title></circle>
	<circle cx="106.58" cy="333.38" data-y="9.01" data-x="1586908800" r="1" fill="white"><title>2020-04-15: 9</title></circle>
	<circle cx="108.44" cy="330.98" data-y="9.53" data-x="1586995200" r="1" fill="white"><title>2020-04-16: 10</title></circle>
	<circle cx="110.29" cy="329.24" data-y="9.91" data-x="1587081600" r="1" fill="white"><title>2020-04-17: 10</title></circle>
	<circle cx="112.15" cy="331.64" data-y="9.39" data-x="1587168000" r="1" fill="white"><title>2020-04-18: 9</title></circle>
	<circle cx="114.00" cy="329.67" data-y="9.82" data-x="1587254400" r="1" fill="white"><title>2020-04-19: 10</title></circle>
	<circle cx="115.85" cy="331.42" data-y="9.44" data-x="1587340800" r="1" fill="white"><title>2020-04-20: 9</title></circle>
	<circle cx="117.71" cy="330.76" data-y="9.58" data-x="1587427200" r="1" fill="white"><title>2020-04-21: 10</title></circle>
	<circle cx="119.56" cy="335.56" data-y="8.54" data-x="1587513600" r="1" fill="white"><title>2020-04-22: 9</title></circle>
	<circle cx="121.42" cy="338.39" data-y="7.93" data-x="1587600000" r="1" fill="white"><title>2020-04-23: 8</title></circle>
	<circle cx="123.27" cy="341.01" data-y="7.36" data-x="1587686400" r="1" fill="white"><title>2020-04-24: 7</title></circle>
	<circle cx="125.12" cy="338.17" data-y="7.98" data-x="1587772800" r="1" fill="white"><title>2020-04-25: 8</title></circle>
	<circle cx="126.98" cy="341.22" data-y="7.32" data-x="1587859200" r="1" fill="white"><title>2020-04-26: 7</title></circle>
	<circle cx="128.83" cy="337.52" data-y="8.12" data-x="1587945600" r="1" fill="white"><title>2020-04-27: 8</title></circle>
	<circle cx="130.69" cy="340.57" data-y="7.46" data-x="1588032000" r="1" fill="white"><title>2020-04-28: 7</title></circle>
	<circle cx="132.54" cy="339.04" data-y="7.79" data-x="1588118400" r="1" fill="white"><title>2020-04-29: 8</title></circle>
	<circle cx="134.40" cy="339.92" data-y="7.60" data-x="1588204800" r="1" fill="white"><title>2020-04-30: 8</title></circle>
	<circle cx="136.25" cy="340.13" data-y="7.55" data-x="1588291200" r="1" fill="white"><title>2020-05-01: 8</title></circle>
	<circle cx="138.10" cy="342.31" data-y="7.08" data-x="1588377600" r="1" fill="white"><title>2020-05-02: 7</title></circle>
	<circle cx="139.96" cy="342.53" data-y="7.03" data-x="1588464000" r="1" fill="white"><title>2020-05-03: 7</title></circle>
	<circle cx="141.81" cy="346.24" data-y="6.23" data-x="1588550400" r="1" fill="white"><title>2020-05-04: 6</title></circle>
	<circle cx="143.67" cy="347.98" data-y="5.85" data-x="1588636800" r="1" fill="white"><title>2020-05-05: 6</title></circle>
	<circle cx="145.52" cy="351.47" data-y="5.10" data-x="1588723200" r="1" fill="white"><title>2020-05-06: 5</title></circle>
	<circle cx="147.38" cy="351.68" data-y="5.05" data-x="1588809600" r="1" fill="white"><title>2020-05-07: 5</title></circle>
	<circle cx="149.23" cy="352.99" data-y="4.77" data-x="1588896000" r="1" fill="white"><title>2020-05-08: 5</title></circle>
	<circle cx="151.08" cy="353.86" data-y="4.58" data-x="1588982400" r="1" fill="white"><title>2020-05-09: 5</title></circle>
	<circle cx="152.94" cy="355.61" data-y="4.20" data-x="1589068800" r="1" fill="white"><title>2020-05-10: 4</title></circle>
	<circle cx="154.79" cy="358.66" data-y="3.54" data-x="1589155200" r="1" fill="white"><title>2020-05-11: 4</title></circle>
	<circle cx="156.65" cy="358.66" data-y="3.54" data-x="1589241600" r="1" fill="white"><title>2020-05-12: 4</title></circle>
	<circle cx="158.50" cy="357.57" data-y="3.78" data-x="1589328000" r="1" fill="white"><title>2020-05-13: 4</title></circle>
	<circle cx="160.35" cy="358.22" data-y="3.63" data-x="1589414400" r="1" fill="white"><title>2020-05-14: 4</title></circle>
	<circle cx="162.21" cy="358.87" data-y="3.49" data-x="1589500800" r="1" fill="white"><title>2020-05-15: 3</title></circle>
	<circle cx="164.06" cy="361.71" data-y="2.88" data-x="1589587200" r="1" fill="white"><title>2020-05-16: 3</title></circle>
	<circle cx="165.92" cy="362.14" data-y="2.78" data-x="1589673600" r="1" fill="white"><title>2020-05-17: 3</title></circle>
	<circle cx="167.77" cy="362.80" data-y="2.64" data-x="1589760000" r="1" fill="white"><title>2020-05-18: 3</title></circle>
	<circle cx="169.62" cy="363.45" data-y="2.50" data-x="1589846400" r="1" fill="white"><title>2020-05-19: 3</title></circle>
	<circle cx="171.48" cy="364.76" data-y="2.22" data-x="1589932800" r="1" fill="white"><title>2020-05-20: 2</title></circle>
	<circle cx="173.33" cy="365.41" data-y="2.08" data-x="1590019200" r="1" fill="white"><title>2020-05-21: 2</title></circle>
	<circle cx="175.19" cy="366.28" data-y="1.89" data-x="1590105600" r="1" fill="white"><title>2020-05-22: 2</title></circle>
	<circle cx="177.04" cy="361.93" data-y="2.83" data-x="1590192000" r="1" fill="white"><title>2020-05-23: 3</title></circle>
	<circle cx="178.90" cy="360.84" data-y="3.07" data-x="1590278400" r="1" fill="white"><title>2020-05-24: 3</title></circle>
	<circle cx="180.75" cy="360.84" data-y="3.07" data-x="1590364800" r="1" fill="white"><title>2020-05-25: 3</title></circle>
	<circle cx="182.60" cy="360.18" data-y="3.21" data-x="1590451200" r="1" fill="white"><title>2020-05-26: 3</title></circle>
	<circle cx="184.46" cy="359.75" data-y="3.30" data-x="1590537600" r="1" fill="white"><title>2020-05-27: 3</title></circle>
	<circle cx="186.31" cy="359.53" data-y="3.35" data-x="1590624000" r="1" fill="white"><title>2020-05-28: 3</title></circle>
	<circle cx="188.17" cy="359.09" data-y="3.45" data-x="1590710400" r="1" fill="white"><title>2020-05-29: 3</title></circle>
	<circle cx="190.02" cy="364.32" data-y="2.31" data-x="1590796800" r="1" fill="white"><title>2020-05-30: 2</title></circle>
	<circle cx="191.88" cy="366.50" data-y="1.84" data-x="1590883200" r="1" fill="white"><title>2020-05-31: 2</title></circle>
	<circle cx="193.73" cy="367.16" data-y="1.70" data-x="1590969600" r="1" fill="white"><title>2020-06-01: 2</title></circle>
	<circle cx="195.58" cy="367.37" data-y="1.65" data-x="1591056000" r="1" fill="white"><title>2020-06-02: 2</title></circle>
	<circle cx="197.44" cy="368.68" data-y="1.37" data-x="1591142400" r="1" fill="white"><title>2020-06-03: 1</title></circle>
	<circle cx="199.29" cy="369.77" data-y="1.13" data-x="1591228800" r="1" fill="white"><title>2020-06-04: 1</title></circle>
	<circle cx="201.15" cy="369.55" data-y="1.18" data-x="1591315200" r="1" fill="white"><title>2020-06-05: 1</title></circle>
	<circle cx="203.00" cy="368.90" data-y="1.32" data-x="1591401600" r="1" fill="white"><title>2020-06-06: 1</title></circle>
	<circle cx="204.85" cy="369.33" data-y="1.23" data-x="1591488000" r="1" fill="white"><title>2020-06-07: 1</title></circle>
	<circle cx="206.71" cy="369.99" data-y="1.09" data-x="1591574400" r="1" fill="white"><title>2020-06-08: 1</title></circle>
	<circle cx="208.56" cy="371.95" data-y="0.66" data-x="1591660800" r="1" fill="white"><title>2020-06-09: 1</title></circle>
	<circle cx="210.42" cy="371.51" data-y="0.76" data-x="1591747200" r="1" fill="white"><title>2020-06-10: 1</title></circle>
	<circle cx="212.27" cy="369.33" data-y="1.23" data-x="1591833600" r="1" fill="white"><title>2020-06-11: 1</title></circle>
	<circle cx="214.12" cy="369.55" data-y="1.18" data-x="1591920000" r="1" fill="white"><title>2020-06-12: 1</title></circle>
	<circle cx="215.98" cy="369.33" data-y="1.23" data-x="1592006400" r="1" fill="white"><title>2020-06-13: 1</title></circle>
	<circle cx="217.83" cy="369.33" data-y="1.23" data-x="1592092800" r="1" fill="white"><title>2020-06-14: 1</title></circle>
	<circle cx="219.69" cy="369.12" data-y="1.27" data-x="1592179200" r="1" fill="white"><title>2020-06-15: 1</title></circle>
	<circle cx="221.54" cy="368.90" data-y="1.32" data-x="1592265600" r="1" fill="white"><title>2020-06-16: 1</title></circle>
	<circle cx="223.40" cy="369.33" data-y="1.23" data-x="1592352000" r="1" fill="white"><title>2020-06-17: 1</title></circle>
	<circle cx="225.25" cy="371.51" data-y="0.76" data-x="1592438400" r="1" fill="white"><title>2020-06-18: 1</title></circle>
	<circle cx="227.10" cy="371.95" data-y="0.66" data-x="1592524800" r="1" fill="white"><title>2020-06-19: 1</title></circle>
	<circle cx="228.96" cy="372.39" data-y="0.57" data-x="1592611200" r="1" fill="white"><title>2020-06-20: 1</title></circle>
	<circle cx="230.81" cy="372.60" data-y="0.52" data-x="1592697600" r="1" fill="white"><title>2020-06-21: 1</title></circle>
	<circle cx="232.67" cy="372.60" data-y="0.52" data-x="1592784000" r="1" fill="white"><title>2020-06-22: 1</title></circle>
	<circle cx="234.52" cy="372.82" data-y="0.47" data-x="1592870400" r="1" fill="white"><title>2020-06-23: 0</title></circle>
	<circle cx="236.38" cy="372.60" data-y="0.52" data-x="1592956800" r="1" fill="white"><title>2020-06-24: 1</title></circle>
	<circle cx="238.23" cy="372.60" data-y="0.52" data-x="1593043200" r="1" fill="white"><title>2020-06-25: 1</title></circle>
	<circle cx="240.08" cy="372.82" data-y="0.47" data-x="1593129600" r="1" fill="white"><title>2020-06-26: 0</title></circle>
	<circle cx="241.94" cy="372.82" data-y="0.47" data-x="1593216000" r="1" fill="white"><title>2020-06-27: 0</title></circle>
	<circle cx="243.79" cy="373.04" data-y="0.42" data-x="1593302400" r="1" fill="white"><title>2020-06-28: 0</title></circle>
	<circle cx="245.65" cy="373.47" data-y="0.33" data-x="1593388800" r="1" fill="white"><title>2020-06-29: 0</title></circle>
	<circle cx="247.50" cy="373.26" data-y="0.38" data-x="1593475200" r="1" fill="white"><title>2020-06-30: 0</title></circle>
	<circle cx="249.35" cy="373.47" data-y="0.33" data-x="1593561600" r="1" fill="white"><title>2020-07-01: 0</title></circle>
	<circle cx="251.21" cy="373.26" data-y="0.38" data-x="1593648000" r="1" fill="white"><title>2020-07-02: 0</title></circle>
	<circle cx="253.06" cy="373.26" data-y="0.38" data-x="1593734400" r="1" fill="white"><title>2020-07-03: 0</title></circle>
	<circle cx="254.92" cy="373.47" data-y="0.33" data-x="1593820800" r="1" fill="white"><title>2020-07-04: 0</title></circle>
	<circle cx="256.77" cy="373.69" data-y="0.28" data-x="1593907200" r="1" fill="white"><title>2020-07-05: 0</title></circle>
	<circle cx="258.62" cy="372.82" data-y="0.47" data-x="1593993600" r="1" fill="white"><title>2020-07-06: 0</title></circle>
	<circle cx="260.48" cy="372.82" data-y="0.47" data-x="1594080000" r="1" fill="white"><title>2020-07-07: 0</title></circle>
	<circle cx="262.33" cy="372.82" data-y="0.47" data-x="1594166400" r="1" fill="white"><title>2020-07-08: 0</title></circle>
	<circle cx="264.19" cy="372.82" data-y="0.47" data-x="1594252800" r="1" fill="white"><title>2020-07-09: 0</title></circle>
	<circle cx="266.04" cy="372.60" data-y="0.52" data-x="1594339200" r="1" fill="white"><title>2020-07-10: 1</title></circle>
	<circle cx="267.90" cy="372.82" data-y="0.47" data-x="1594425600" r="1" fill="white"><title>2020-07-11: 0</title></circle>
	<circle cx="269.75" cy="371.95" data-y="0.66" data-x="1594512000" r="1" fill="white"><title>2020-07-12: 1</title></circle>
	<circle cx="271.60" cy="372.17" data-y="0.61" data-x="1594598400" r="1" fill="white"><title>2020-07-13: 1</title></circle>
	<circle cx="273.46" cy="372.17" data-y="0.61" data-x="1594684800" r="1" fill="white"><title>2020-07-14: 1</title></circle>
	<circle cx="275.31" cy="372.17" data-y="0.61" data-x="1594771200" r="1" fill="white"><title>2020-07-15: 1</title></circle>
	<circle cx="277.17" cy="372.39" data-y="0.57" data-x="1594857600" r="1" fill="white"><title>2020-07-16: 1</title></circle>
	<circle cx="279.02" cy="372.60" data-y="0.52" data-x="1594944000" r="1" fill="white"><title>2020-07-17: 1</title></circle>
	<circle cx="280.88" cy="372.82" data-y="0.47" data-x="1595030400" r="1" fill="white"><title>2020-07-18: 0</title></circle>
	<circle cx="282.73" cy="373.69" data-y="0.28" data-x="1595116800" r="1" fill="white"><title>2020-07-19: 0</title></circle>
	<circle cx="284.58" cy="374.35" data-y="0.14" data-x="1595203200" r="1" fill="white"><title>2020-07-20: 0</title></circle>
	<circle cx="286.44" cy="374.56" data-y="0.09" data-x="1595289600" r="1" fill="white"><title>2020-07-21: 0</title></circle>
	<circle cx="288.29" cy="374.56" data-y="0.09" data-x="1595376000" r="1" fill="white"><title>2020-07-22: 0</title></circle>
	<circle cx="290.15" cy="374.56" data-y="0.09" data-x="1595462400" r="1" fill="white"><title>2020-07-23: 0</title></circle>
	<circle cx="292.00" cy="374.78" data-y="0.05" data-x="1595548800" r="1" fill="white"><title>2020-07-24: 0</title></circle>
	<circle cx="293.85" cy="375.00" data-y="0.00" data-x="1595635200" r="1" fill="white"><title>2020-07-25: 0</title></circle>
	<circle cx="295.71" cy="374.13" data-y="0.19" data-x="1595721600" r="1" fill="white"><title>2020-07-26: 0</title></circle>
	<circle cx="297.56" cy="373.26" data-y="0.38" data-x="1595808000" r="1" fill="white"><title>2020-07-27: 0</title></circle>
	<circle cx="299.42" cy="373.04" data-y="0.42" data-x="1595894400" r="1" fill="white"><title>2020-07-28: 0</title></circle>
	<circle cx="301.27" cy="372.60" data-y="0.52" data-x="1595980800" r="1" fill="white"><title>2020-07-29: 1</title></circle>
	<circle cx="303.12" cy="372.39" data-y="0.57" data-x="1596067200" r="1" fill="white"><title>2020-07-30: 1</title></circle>
	<circle cx="304.98" cy="371.95" data-y="0.66" data-x="1596153600" r="1" fill="white"><title>2020-07-31: 1</title></circle>
	<circle cx="306.83" cy="371.73" data-y="0.71" data-x="1596240000" r="1" fill="white"><title>2020-08-01: 1</title></circle>
	<circle cx="308.69" cy="371.95" data-y="0.66" data-x="1596326400" r="1" fill="white"><title>2020-08-02: 1</title></circle>
	<circle cx="310.54" cy="371.30" data-y="0.80" data-x="1596412800" r="1" fill="white"><title>2020-08-03: 1</title></circle>
	<circle cx="312.40" cy="371.30" data-y="0.80" data-x="1596499200" r="1" fill="white"><title>2020-08-04: 1</title></circle>
	<circle cx="314.25" cy="371.73" data-y="0.71" data-x="1596585600" r="1" fill="white"><title>2020-08-05: 1</title></circle>
	<circle cx="316.10" cy="371.51" data-y="0.76" data-x="1596672000" r="1" fill="white"><title>2020-08-06: 1</title></circle>
	<circle cx="317.96" cy="370.86" data-y="0.90" data-x="1596758400" r="1" fill="white"><title>2020-08-07: 1</title></circle>
	<circle cx="319.81" cy="368.46" data-y="1.42" data-x="1596844800" r="1" fill="white"><title>2020-08-08: 1</title></circle>
	<circle cx="321.67" cy="366.94" data-y="1.75" data-x="1596931200" r="1" fill="white"><title>2020-08-09: 2</title></circle>
	<circle cx="323.52" cy="365.41" data-y="2.08" data-x="1597017600" r="1" fill="white"><title>2020-08-10: 2</title></circle>
	<circle cx="325.38" cy="365.19" data-y="2.12" data-x="1597104000" r="1" fill="white"><title>2020-08-11: 2</title></circle>
	<circle cx="327.23" cy="364.76" data-y="2.22" data-x="1597190400" r="1" fill="white"><title>2020-08-12: 2</title></circle>
	<circle cx="329.08" cy="364.76" data-y="2.22" data-x="1597276800" r="1" fill="white"><title>2020-08-13: 2</title></circle>
	<circle cx="330.94" cy="364.32" data-y="2.31" data-x="1597363200" r="1" fill="white"><title>2020-08-14: 2</title></circle>
	<circle cx="332.79" cy="364.54" data-y="2.27" data-x="1597449600" r="1" fill="white"><title>2020-08-15: 2</title></circle>
	<circle cx="334.65" cy="365.19" data-y="2.12" data-x="1597536000" r="1" fill="white"><title>2020-08-16: 2</title></circle>
	<circle cx="336.50" cy="365.63" data-y="2.03" data-x="1597622400" r="1" fill="white"><title>2020-08-17: 2</title></circle>
	<circle cx="338.35" cy="364.76" data-y="2.22" data-x="1597708800" r="1" fill="white"><title>2020-08-18: 2</title></circle>
	<circle cx="340.21" cy="364.98" data-y="2.17" data-x="1597795200" r="1" fill="white"><title>2020-08-19: 2</title></circle>
	<circle cx="342.06" cy="364.98" data-y="2.17" data-x="1597881600" r="1" fill="white"><title>2020-08-20: 2</title></circle>
	<circle cx="343.92" cy="366.07" data-y="1.94" data-x="1597968000" r="1" fill="white"><title>2020-08-21: 2</title></circle>
	<circle cx="345.77" cy="366.72" data-y="1.79" data-x="1598054400" r="1" fill="white"><title>2020-08-22: 2</title></circle>
	<circle cx="347.62" cy="366.72" data-y="1.79" data-x="1598140800" r="1" fill="white"><title>2020-08-23: 2</title></circle>
	<circle cx="349.48" cy="367.81" data-y="1.56" data-x="1598227200" r="1" fill="white"><title>2020-08-24: 2</title></circle>
	<circle cx="351.33" cy="366.28" data-y="1.89" data-x="1598313600" r="1" fill="white"><title>2020-08-25: 2</title></circle>
	<circle cx="353.19" cy="364.76" data-y="2.22" data-x="1598400000" r="1" fill="white"><title>2020-08-26: 2</title></circle>
	<circle cx="355.04" cy="363.67" data-y="2.45" data-x="1598486400" r="1" fill="white"><title>2020-08-27: 2</title></circle>
	<circle cx="356.90" cy="363.23" data-y="2.55" data-x="1598572800" r="1" fill="white"><title>2020-08-28: 3</title></circle>
	<circle cx="358.75" cy="361.93" data-y="2.83" data-x="1598659200" r="1" fill="white"><title>2020-08-29: 3</title></circle>
	<circle cx="360.60" cy="359.75" data-y="3.30" data-x="1598745600" r="1" fill="white"><title>2020-08-30: 3</title></circle>
	<circle cx="362.46" cy="356.04" data-y="4.11" data-x="1598832000" r="1" fill="white"><title>2020-08-31: 4</title></circle>
	<circle cx="364.31" cy="353.86" data-y="4.58" data-x="1598918400" r="1" fill="white"><title>2020-09-01: 5</title></circle>
	<circle cx="366.17" cy="346.45" data-y="6.18" data-x="1599004800" r="1" fill="white"><title>2020-09-02: 6</title></circle>
	<circle cx="368.02" cy="341.44" data-y="7.27" data-x="1599091200" r="1" fill="white"><title>2020-09-03: 7</title></circle>
	<circle cx="369.88" cy="337.52" data-y="8.12" data-x="1599177600" r="1" fill="white"><title>2020-09-04: 8</title></circle>
	<circle cx="371.73" cy="333.81" data-y="8.92" data-x="1599264000" r="1" fill="white"><title>2020-09-05: 9</title></circle>
	<circle cx="373.58" cy="332.51" data-y="9.20" data-x="1599350400" r="1" fill="white"><title>2020-09-06: 9</title></circle>
	<circle cx="375.44" cy="329.24" data-y="9.91" data-x="1599436800" r="1" fill="white"><title>2020-09-07: 10</title></circle>
	<circle cx="377.29" cy="327.50" data-y="10.29" data-x="1599523200" r="1" fill="white"><title>2020-09-08: 10</title></circle>
	<circle cx="379.15" cy="329.89" data-y="9.77" data-x="1599609600" r="1" fill="white"><title>2020-09-09: 10</title></circle>
	<circle cx="381.00" cy="330.55" data-y="9.63" data-x="1599696000" r="1" fill="white"><title>2020-09-10: 10</title></circle>
	<circle cx="382.85" cy="329.46" data-y="9.86" data-x="1599782400" r="1" fill="white"><title>2020-09-11: 10</title></circle>
	<circle cx="384.71" cy="326.19" data-y="10.57" data-x="1599868800" r="1" fill="white"><title>2020-09-12: 11</title></circle>
	<circle cx="386.56" cy="317.47" data-y="12.46" data-x="1599955200" r="1" fill="white"><title>2020-09-13: 12</title></circle>
	<circle cx="388.42" cy="315.95" data-y="12.79" data-x="1600041600" r="1" fill="white"><title>2020-09-14: 13</title></circle>
	<circle cx="390.27" cy="301.13" data-y="16.00" data-x="1600128000" r="1" fill="white"><title>2020-09-15: 16</title></circle>
	<circle cx="392.12" cy="289.14" data-y="18.60" data-x="1600214400" r="1" fill="white"><title>2020-09-16: 19</title></circle>
	<circle cx="393.98" cy="268.44" data-y="23.08" data-x="1600300800" r="1" fill="white"><title>2020-09-17: 23</title></circle>
	<circle cx="395.83" cy="245.78" data-y="27.99" data-x="1600387200" r="1" fill="white"><title>2020-09-18: 28</title></circle>
	<circle cx="397.69" cy="234.45" data-y="30.44" data-x="1600473600" r="1" fill="white"><title>2020-09-19: 30</title></circle>
	<circle cx="399.54" cy="220.94" data-y="33.37" data-x="1600560000" r="1" fill="white"><title>2020-09-20: 33</title></circle>
	<circle cx="401.40" cy="205.47" data-y="36.72" data-x="1600646400" r="1" fill="white"><title>2020-09-21: 37</title></circle>
	<circle cx="403.25" cy="197.84" data-y="38.37" data-x="1600732800" r="1" fill="white"><title>2020-09-22: 38</title></circle>
	<circle cx="405.10" cy="178.44" data-y="42.57" data-x="1600819200" r="1" fill="white"><title>2020-09-23: 43</title></circle>
	<circle cx="406.96" cy="177.57" data-y="42.76" data-x="1600905600" r="1" fill="white"><title>2020-09-24: 43</title></circle>
	<circle cx="408.81" cy="161.45" data-y="46.25" data-x="1600992000" r="1" fill="white"><title>2020-09-25: 46</title></circle>
	<circle cx="410.67" cy="139.87" data-y="50.93" data-x="1601078400" r="1" fill="white"><title>2020-09-26: 51</title></circle>
	<circle cx="412.52" cy="124.84" data-y="54.18" data-x="1601164800" r="1" fill="white"><title>2020-09-27: 54</title></circle>
	<circle cx="414.38" cy="96.73" data-y="60.27" data-x="1601251200" r="1" fill="white"><title>2020-09-28: 60</title></circle>
	<circle cx="416.23" cy="80.39" data-y="63.81" data-x="1601337600" r="1" fill="white"><title>2020-09-29: 64</title></circle>
	<circle cx="418.08" cy="72.54" data-y="65.51" data-x="1601424000" r="1" fill="white"><title>2020-09-30: 66</title></circle>
	<circle cx="419.94" cy="50.10" data-y="70.37" data-x="1601510400" r="1" fill="white"><title>2020-10-01: 70</title></circle>
	<circle cx="421.79" cy="39.85" data-y="72.59" data-x="1601596800" r="1" fill="white"><title>2020-10-02: 73</title></circle>
	<circle cx="423.65" cy="22.42" data-y="76.37" data-x="1601683200" r="1" fill="white"><title>2020-10-03: 76</title></circle>
	<circle cx="425.50" cy="10.00" data-y="79.06" data-x="1601769600" r="1" fill="white"><title>2020-10-04: 79</title></circle>
	<circle cx="427.35" cy="15.45" data-y="77.88" data-x="1601856000" r="1" fill="white"><title>2020-10-05: 78</title></circle>
	<circle cx="429.21" cy="23.95" data-y="76.04" data-x="1601942400" r="1" fill="white"><title>2020-10-06: 76</title></circle>
	<circle cx="431.06" cy="41.60" data-y="72.21" data-x="1602028800" r="1" fill="white"><title>2020-10-07: 72</title></circle>
	<circle cx="432.92" cy="66.87" data-y="66.74" data-x="1602115200" r="1" fill="white"><title>2020-10-08: 67</title></circle>
	<circle cx="434.77" cy="79.95" data-y="63.91" data-x="1602201600" r="1" fill="white"><title>2020-10-09: 64</title></circle>
	<circle cx="436.62" cy="105.88" data-y="58.29" data-x="1602288000" r="1" fill="white"><title>2020-10-10: 58</title></circle>
	<circle cx="438.48" cy="123.31" data-y="54.51" data-x="1602374400" r="1" fill="white"><title>2020-10-11: 55</title></circle>
	<circle cx="440.33" cy="142.71" data-y="50.31" data-x="1602460800" r="1" fill="white"><title>2020-10-12: 50</title></circle>
	<circle cx="442.19" cy="152.73" data-y="48.14" data-x="1602547200" r="1" fill="white"><title>2020-10-13: 48</title></circle>
	<circle cx="444.04" cy="165.37" data-y="45.40" data-x="1602633600" r="1" fill="white"><title>2020-10-14: 45</title></circle>
	<circle cx="445.90" cy="168.20" data-y="44.79" data-x="1602720000" r="1" fill="white"><title>2020-10-15: 45</title></circle>
	<circle cx="447.75" cy="177.57" data-y="42.76" data-x="1602806400" r="1" fill="white"><title>2020-10-16: 43</title></circle>
	<circle cx="449.60" cy="172.78" data-y="43.80" data-x="1602892800" r="1" fill="white"><title>2020-10-17: 44</title></circle>
	<circle cx="451.46" cy="174.96" data-y="43.33" data-x="1602979200" r="1" fill="white"><title>2020-10-18: 43</title></circle>
	<circle cx="453.31" cy="172.13" data-y="43.94" data-x="1603065600" r="1" fill="white"><title>2020-10-19: 44</title></circle>
	<circle cx="455.17" cy="176.48" data-y="43.00" data-x="1603152000" r="1" fill="white"><title>2020-10-20: 43</title></circle>
	<circle cx="457.02" cy="169.73" data-y="44.46" data-x="1603238400" r="1" fill="white"><title>2020-10-21: 44</title></circle>
	<circle cx="458.88" cy="166.02" data-y="45.26" data-x="1603324800" r="1" fill="white"><title>2020-10-22: 45</title></circle>
	<circle cx="460.73" cy="161.01" data-y="46.35" data-x="1603411200" r="1" fill="white"><title>2020-10-23: 46</title></circle>
</g>
<g data-series="recent-cases" class="data-series">
	<path d="M 460.73,161.01L 462.58,176.48L 464.44,210.91L 466.29,220.43L 468.15,221.24L 470.00,222.08" id="Recent cases" class="line" stroke-width="1" stroke-linecap="round" stroke-dasharray="4,6" stroke-dashoffset="4"><title>Recent cases</title></path>
	<circle cx="460.73" cy="161.01" data-y="46.35" data-x="1603411200" r="2.5" fill="white"><title>2020-10-23: 46</title></circle>
	<circle cx="462.58" cy="176.48" data-y="43.00" data-x="1603497600" r="2.5" fill="white"><title>2020-10-24: 43</title></circle>
	<circle cx="464.44" cy="210.91" data-y="35.54" data-x="1603584000" r="2.5" fill="white"><title>2020-10-25: 36</title></circle>
	<circle cx="466.29" cy="220.43" data-y="33.48" data-x="1603670400" r="2.5" fill="white"><title>2020-10-26: 33</title></circle>
	<circle cx="468.15" cy="221.24" data-y="33.30" data-x="1603756800" r="2.5" fill="white"><title>2020-10-27: 33</title></circle>
	<circle cx="470.00" cy="222.08" data-y="33.12" data-x="1603843200" r="2.5" fill="white"><title>2020-10-28: 33</title></circle>
</g>
</svg>
