<svg width="480" height="400" viewBox="0 0 480 400" xmlns="http://www.w3.org/2000/svg" style="overflow:display" preserveAspectRatio="xMinYMin meet" overflow="visible">
<defs>
	<style>
	.data-series path.line { fill-opacity: 0; stroke: black; }
	.data-series path.line.dotted { stroke-dasharray: 12 20 }
	.data-series:hover path.line, .data-series.on path.line { stroke-width: 1; }
	.data-series:hover circle, .data-series.on circle { display: inline; }
	.graph-grid { font-family: "Helvetica Neue",Helvetica,Arial,"Lucida Grande",sans-serif; }
	.graph-grid line { stroke: black; stroke-width: 1; stroke-linecap: round; }
	.graph-grid.graph-grid-x text { text-anchor: middle; dominant-baseline: hanging; transform: translateY(10px); }
	.graph-grid.graph-grid-y text { text-anchor: end; dominant-baseline: middle; transform: translateX(-10px); }
	</style>
</defs>
<g class="graph-grid graph-grid-y">
	<line x1="25.00" y1="375.00" x2="470.00" y2="375.00" data-left="25"></line>
	<text x="35" y="375" text-anchor="end">0</text>
	<text x="35" y="255.184581491306" text-anchor="end">20</text>
	<text x="35" y="135.369162982611" text-anchor="end">40</text>
	<text x="35" y="15.5537444739169" text-anchor="end">60</text>
	<text style="text-anchor:middle;dominant-baseline:hanging;font-weight:bold;transform: translateY(192.5px) rotate(-90deg);"></text>
</g>
<g class="graph-grid graph-grid-x">
	<line class="tick" x1="28.72" y1="375.00" x2="28.72" y2="380.00"></line>
	<text x="28.7238493723849" y="375" text-anchor="middle">M</text>
	<line class="tick" x1="86.44" y1="375.00" x2="86.44" y2="380.00"></line>
	<text x="86.4435146443515" y="375" text-anchor="middle">A</text>
	<line class="tick" x1="142.30" y1="375.00" x2="142.30" y2="380.00"></line>
	<text x="142.301255230126" y="375" text-anchor="middle">M</text>
	<line class="tick" x1="200.02" y1="375.00" x2="200.02" y2="380.00"></line>
	<text x="200.020920502092" y="375" text-anchor="middle">J</text>
	<line class="tick" x1="255.88" y1="375.00" x2="255.88" y2="380.00"></line>
	<text x="255.878661087866" y="375" text-anchor="middle">J</text>
	<line class="tick" x1="313.60" y1="375.00" x2="313.60" y2="380.00"></line>
	<text x="313.598326359833" y="375" text-anchor="middle">A</text>
	<line class="tick" x1="371.32" y1="375.00" x2="371.32" y2="380.00"></line>
	<text x="371.317991631799" y="375" text-anchor="middle">S</text>
	<line class="tick" x1="427.18" y1="375.00" x2="427.18" y2="380.00"></line>
	<text x="427.175732217573" y="375" text-anchor="middle">O</text>
	<text style="text-anchor:middle;dominant-baseline:hanging;font-weight:bold;transform: translateY(192.5px) rotate(-90deg);"></text>
</g>
<g data-series="widespread" class="data-series">
	<path d="M 25.00,333.06L 470.00,333.06" id="E08000035-level-0" class="line" stroke-width="1" stroke-linecap="round" stroke-dasharray="3,3" fill-opacity="0.3" opacity="0.3"><title>Widespread</title></path>
</g>
<g data-series="substantial" class="data-series">
	<path d="M 25.00,351.04L 470.00,351.04" id="E08000035-level-1" class="line" stroke-width="1" stroke-linecap="round" stroke-dasharray="3,3" fill-opacity="0.3" opacity="0.3"><title>Substantial</title></path>
</g>
<g data-series="moderate" class="data-series">
	<path d="M 25.00,369.01L 470.00,369.01" id="E08000035-level-2" class="line" stroke-width="1" stroke-linecap="round" stroke-dasharray="3,3" fill-opacity="0.3" opacity="0.3"><title>Moderate</title></path>
</g>
<g data-series="new-cases" class="data-series">
	<path d="M 25.00,374.62L 26.86,374.70L 28.72,374.62L 30.59,374.68L 32.45,374.89L 34.31,374.68L 36.17,374.68L 38.03,374.35L 39.90,374.35L 41.76,374.14L 43.62,374.03L 45.48,374.03L 47.34,374.25L 49.21,374.03L 51.07,374.25L 52.93,373.92L 54.79,373.82L 56.65,373.28L 58.51,372.53L 60.38,371.88L 62.24,370.91L 64.10,369.19L 65.96,367.58L 67.82,366.82L 69.69,365.32L 71.55,363.81L 73.41,361.66L 75.27,360.59L 77.13,359.51L 79.00,358.86L 80.86,356.71L 82.72,355.64L 84.58,353.92L 86.44,354.88L 88.31,353.27L 90.17,350.90L 92.03,346.60L 93.89,345.20L 95.75,343.59L 97.62,342.51L 99.48,339.93L 101.34,339.50L 103.20,341.76L 105.06,344.56L 106.92,340.79L 108.79,335.41L 110.65,333.58L 112.51,332.29L 114.37,327.24L 116.23,323.47L 118.10,319.17L 119.96,315.94L 121.82,317.56L 123.68,313.79L 125.54,314.65L 127.41,318.95L 129.27,318.09L 131.13,318.85L 132.99,321.64L 134.85,324.66L 136.72,326.05L 138.58,325.62L 140.44,327.02L 142.30,329.50L 144.16,331.65L 146.03,334.98L 147.89,331.65L 149.75,335.74L 151.61,338.32L 153.47,337.03L 155.33,335.84L 157.20,337.56L 159.06,337.46L 160.92,342.19L 162.78,344.34L 164.64,342.94L 166.51,343.27L 168.37,345.42L 170.23,345.09L 172.09,346.39L 173.95,344.77L 175.82,344.66L 177.68,347.57L 179.54,351.12L 181.40,353.70L 183.26,356.39L 185.13,359.19L 186.99,363.06L 188.85,364.46L 190.71,365.00L 192.57,364.24L 194.44,364.24L 196.30,364.78L 198.16,364.46L 200.02,364.78L 201.88,365.00L 203.74,364.89L 205.61,365.10L 207.47,365.00L 209.33,363.60L 211.19,363.17L 213.05,363.70L 214.92,361.12L 216.78,361.02L 218.64,361.98L 220.50,361.55L 222.36,362.63L 224.23,361.88L 226.09,358.65L 227.95,359.08L 229.81,358.54L 231.67,358.22L 233.54,358.22L 235.40,358.11L 237.26,359.40L 239.12,362.52L 240.98,364.78L 242.85,364.57L 244.71,364.46L 246.57,365.75L 248.43,366.39L 250.29,367.15L 252.15,367.47L 254.02,368.12L 255.88,369.41L 257.74,369.84L 259.60,369.51L 261.46,369.62L 263.33,369.19L 265.19,368.98L 267.05,368.22L 268.91,367.68L 270.77,367.90L 272.64,367.04L 274.50,366.50L 276.36,367.58L 278.22,368.01L 280.08,368.98L 281.95,369.51L 283.81,369.19L 285.67,370.91L 287.53,371.13L 289.39,370.59L 291.26,370.70L 293.12,370.91L 294.98,370.70L 296.84,370.59L 298.70,369.41L 300.56,367.58L 302.43,365.32L 304.29,363.70L 306.15,362.63L 308.01,360.80L 309.87,361.12L 311.74,360.69L 313.60,361.66L 315.46,362.84L 317.32,363.70L 319.18,363.60L 321.05,364.46L 322.91,362.74L 324.77,362.31L 326.63,361.66L 328.49,361.02L 330.36,359.19L 332.22,358.22L 334.08,358.00L 335.94,359.72L 337.80,359.83L 339.67,359.94L 341.53,358.97L 343.39,358.65L 345.25,358.33L 347.11,358.76L 348.97,356.39L 350.84,354.56L 352.70,352.19L 354.56,352.62L 356.42,351.23L 358.28,349.50L 360.15,347.03L 362.01,347.03L 363.87,346.71L 365.73,344.56L 367.59,337.35L 369.46,333.69L 371.32,329.93L 373.18,324.01L 375.04,318.63L 376.90,311.75L 378.77,310.89L 380.63,312.18L 382.49,309.81L 384.35,305.40L 386.21,307.55L 388.08,309.49L 389.94,309.59L 391.80,305.08L 393.66,299.91L 395.52,297.55L 397.38,297.01L 399.25,289.37L 401.11,279.69L 402.97,275.82L 404.83,269.90L 406.69,268.07L 408.56,256.13L 410.42,250.97L 412.28,243.01L 414.14,229.56L 416.00,209.55L 417.87,185.88L 419.73,154.15L 421.59,119.08L 423.45,81.86L 425.31,61.21L 427.18,51.52L 429.04,33.13L 430.90,17.96L 432.76,10.00L 434.62,10.86L 436.49,25.06L 438.35,29.47L 440.21,38.40L 442.07,34.96L 443.93,43.03L 445.79,43.56L 447.66,54.32L 449.52,48.83L 451.38,47.65L 453.24,39.15L 455.10,32.59L 456.97,23.77L 458.83,24.20L 460.69,32.70" id="New cases" class="line" stroke-width="1" stroke-linecap="round"><title>New cases</title></path>
	<circle cx="25.00" cy="374.62" data-y="0.06" data-x="1582848000" r="1" fill="white"><title>2020-02-28: 0</title></circle>
	<circle cx="26.86" cy="374.70" data-y="0.05" data-x="1582934400" r="1" fill="white"><title>2020-02-29: 0</title></circle>
	<circle cx="28.72" cy="374.62" data-y="0.06" data-x="1583020800" r="1" fill="white"><title>2020-03-01: 0</title></circle>
	<circle cx="30.59" cy="374.68" data-y="0.05" data-x="1583107200" r="1" fill="white"><title>2020-03-02: 0</title></circle>
	<circle cx="32.45" cy="374.89" data-y="0.02" data-x="1583193600" r="1" fill="white"><title>2020-03-03: 0</title></circle>
	<circle cx="34.31" cy="374.68" data-y="0.05" data-x="1583280000" r="1" fill="white"><title>2020-03-04: 0</title></circle>
	<circle cx="36.17" cy="374.68" data-y="0.05" data-x="1583366400" r="1" fill="white"><title>2020-03-05: 0</title></circle>
	<circle cx="38.03" cy="374.35" data-y="0.11" data-x="1583452800" r="1" fill="white"><title>2020-03-06: 0</title></circle>
	<circle cx="39.90" cy="374.35" data-y="0.11" data-x="1583539200" r="1" fill="white"><title>2020-03-07: 0</title></circle>
	<circle cx="41.76" cy="374.14" data-y="0.14" data-x="1583625600" r="1" fill="white"><title>2020-03-08: 0</title></circle>
	<circle cx="43.62" cy="374.03" data-y="0.16" data-x="1583712000" r="1" fill="white"><title>2020-03-09: 0</title></circle>
	<circle cx="45.48" cy="374.03" data-y="0.16" data-x="1583798400" r="1" fill="white"><title>2020-03-10: 0</title></circle>
	<circle cx="47.34" cy="374.25" data-y="0.13" data-x="1583884800" r="1" fill="white"><title>2020-03-11: 0</title></circle>
	<circle cx="49.21" cy="374.03" data-y="0.16" data-x="1583971200" r="1" fill="white"><title>2020-03-12: 0</title></circle>
	<circle cx="51.07" cy="374.25" data-y="0.13" data-x="1584057600" r="1" fill="white"><title>2020-03-13: 0</title></circle>
	<circle cx="52.93" cy="373.92" data-y="0.18" data-x="1584144000" r="1" fill="white"><title>2020-03-14: 0</title></circle>
	<circle cx="54.79" cy="373.82" data-y="0.20" data-x="1584230400" r="1" fill="white"><title>2020-03-15: 0</title></circle>
	<circle cx="56.65" cy="373.28" data-y="0.29" data-x="1584316800" r="1" fill="white"><title>2020-03-16: 0</title></circle>
	<circle cx="58.51" cy="372.53" data-y="0.41" data-x="1584403200" r="1" fill="white"><title>2020-03-17: 0</title></circle>
	<circle cx="60.38" cy="371.88" data-y="0.52" data-x="1584489600" r="1" fill="white"><title>2020-03-18: 1</title></circle>
	<circle cx="62.24" cy="370.91" data-y="0.68" data-x="1584576000" r="1" fill="white"><title>2020-03-19: 1</title></circle>
	<circle cx="64.10" cy="369.19" data-y="0.97" data-x="1584662400" r="1" fill="white"><title>2020-03-20: 1</title></circle>
	<circle cx="65.96" cy="367.58" data-y="1.24" data-x="1584748800" r="1" fill="white"><title>2020-03-21: 1</title></circle>
	<circle cx="67.82" cy="366.82" data-y="1.36" data-x="1584835200" r="1" fill="white"><title>2020-03-22: 1</title></circle>
	<circle cx="69.69" cy="365.32" data-y="1.62" data-x="1584921600" r="1" fill="white"><title>2020-03-23: 2</title></circle>
	<circle cx="71.55" cy="363.81" data-y="1.87" data-x="1585008000" r="1" fill="white"><title>2020-03-24: 2</title></circle>
	<circle cx="73.41" cy="361.66" data-y="2.23" data-x="1585094400" r="1" fill="white"><title>2020-03-25: 2</title></circle>
	<circle cx="75.27" cy="360.59" data-y="2.41" data-x="1585180800" r="1" fill="white"><title>2020-03-26: 2</title></circle>
	<circle cx="77.13" cy="359.51" data-y="2.59" data-x="1585267200" r="1" fill="white"><title>2020-03-27: 3</title></circle>
	<circle cx="79.00" cy="358.86" data-y="2.69" data-x="1585353600" r="1" fill="white"><title>2020-03-28: 3</title></circle>
	<circle cx="80.86" cy="356.71" data-y="3.05" data-x="1585440000" r="1" fill="white"><title>2020-03-29: 3</title></circle>
	<circle cx="82.72" cy="355.64" data-y="3.23" data-x="1585526400" r="1" fill="white"><title>2020-03-30: 3</title></circle>
	<circle cx="84.58" cy="353.92" data-y="3.52" data-x="1585612800" r="1" fill="white"><title>2020-03-31: 4</title></circle>
	<circle cx="86.44" cy="354.88" data-y="3.36" data-x="1585699200" r="1" fill="white"><title>2020-04-01: 3</title></circle>
	<circle cx="88.31" cy="353.27" data-y="3.63" data-x="1585785600" r="1" fill="white"><title>2020-04-02: 4</title></circle>
	<circle cx="90.17" cy="350.90" data-y="4.02" data-x="1585872000" r="1" fill="white"><title>2020-04-03: 4</title></circle>
	<circle cx="92.03" cy="346.60" data-y="4.74" data-x="1585958400" r="1" fill="white"><title>2020-04-04: 5</title></circle>
	<circle cx="93.89" cy="345.20" data-y="4.97" data-x="1586044800" r="1" fill="white"><title>2020-04-05: 5</title></circle>
	<circle cx="95.75" cy="343.59" data-y="5.24" data-x="1586131200" r="1" fill="white"><title>2020-04-06: 5</title></circle>
	<circle cx="97.62" cy="342.51" data-y="5.42" data-x="1586217600" r="1" fill="white"><title>2020-04-07: 5</title></circle>
	<circle cx="99.48" cy="339.93" data-y="5.85" data-x="1586304000" r="1" fill="white"><title>2020-04-08: 6</title></circle>
	<circle cx="101.34" cy="339.50" data-y="5.93" data-x="1586390400" r="1" fill="white"><title>2020-04-09: 6</title></circle>
	<circle cx="103.20" cy="341.76" data-y="5.55" data-x="1586476800" r="1" fill="white"><title>2020-04-10: 6</title></circle>
	<circle cx="105.06" cy="344.56" data-y="5.08" data-x="1586563200" r="1" fill="white"><title>2020-04-11: 5</title></circle>
	<circle cx="106.92" cy="340.79" data-y="5.71" data-x="1586649600" r="1" fill="white"><title>2020-04-12: 6</title></circle>
	<circle cx="108.79" cy="335.41" data-y="6.61" data-x="1586736000" r="1" fill="white"><title>2020-04-13: 7</title></circle>
	<circle cx="110.65" cy="333.58" data-y="6.91" data-x="1586822400" r="1" fill="white"><title>2020-04-14: 7</title></circle>
	<circle cx="112.51" cy="332.29" data-y="7.13" data-x="1586908800" r="1" fill="white"><title>2020-04-15: 7</title></circle>
	<circle cx="114.37" cy="327.24" data-y="7.97" data-x="1586995200" r="1" fill="white"><title>2020-04-16: 8</title></circle>
	<circle cx="116.23" cy="323.47" data-y="8.60" data-x="1587081600" r="1" fill="white"><title>2020-04-17: 9</title></circle>
	<circle cx="118.10" cy="319.17" data-y="9.32" data-x="1587168000" r="1" fill="white"><title>2020-04-18: 9</title></circle>
	<circle cx="119.96" cy="315.94" data-y="9.86" data-x="1587254400" r="1" fill="white"><title>2020-04-19: 10</title></circle>
	<circle cx="121.82" cy="317.56" data-y="9.59" data-x="1587340800" r="1" fill="white"><title>2020-04-20: 10</title></circle>
	<circle cx="123.68" cy="313.79" data-y="10.22" data-x="1587427200" r="1" fill="white"><title>2020-04-21: 10</title></circle>
	<circle cx="125.54" cy="314.65" data-y="10.07" data-x="1587513600" r="1" fill="white"><title>2020-04-22: 10</title></circle>
	<circle cx="127.41" cy="318.95" data-y="9.36" data-x="1587600000" r="1" fill="white"><title>2020-04-23: 9</title></circle>
	<circle cx="129.27" cy="318.09" data-y="9.50" data-x="1587686400" r="1" fill="white"><title>2020-04-24: 9</title></circle>
	<circle cx="131.13" cy="318.85" data-y="9.37" data-x="1587772800" r="1" fill="white"><title>2020-04-25: 9</title></circle>
	<circle cx="132.99" cy="321.64" data-y="8.91" data-x="1587859200" r="1" fill="white"><title>2020-04-26: 9</title></circle>
	<circle cx="134.85" cy="324.66" data-y="8.40" data-x="1587945600" r="1" fill="white"><title>2020-04-27: 8</title></circle>
	<circle cx="136.72" cy="326.05" data-y="8.17" data-x="1588032000" r="1" fill="white"><title>2020-04-28: 8</title></circle>
	<circle cx="138.58" cy="325.62" data-y="8.24" data-x="1588118400" r="1" fill="white"><title>2020-04-29: 8</title></circle>
	<circle cx="140.44" cy="327.02" data-y="8.01" data-x="1588204800" r="1" fill="white"><title>2020-04-30: 8</title></circle>
	<circle cx="142.30" cy="329.50" data-y="7.60" data-x="1588291200" r="1" fill="white"><title>2020-05-01: 8</title></circle>
	<circle cx="144.16" cy="331.65" data-y="7.24" data-x="1588377600" r="1" fill="white"><title>2020-05-02: 7</title></circle>
	<circle cx="146.03" cy="334.98" data-y="6.68" data-x="1588464000" r="1" fill="white"><title>2020-05-03: 7</title></circle>
	<circle cx="147.89" cy="331.65" data-y="7.24" data-x="1588550400" r="1" fill="white"><title>2020-05-04: 7</title></circle>
	<circle cx="149.75" cy="335.74" data-y="6.55" data-x="1588636800" r="1" fill="white"><title>2020-05-05: 7</title></circle>
	<circle cx="151.61" cy="338.32" data-y="6.12" data-x="1588723200" r="1" fill="white"><title>2020-05-06: 6</title></circle>
	<circle cx="153.47" cy="337.03" data-y="6.34" data-x="1588809600" r="1" fill="white"><title>2020-05-07: 6</title></circle>
	<circle cx="155.33" cy="335.84" data-y="6.54" data-x="1588896000" r="1" fill="white"><title>2020-05-08: 7</title></circle>
	<circle cx="157.20" cy="337.56" data-y="6.25" data-x="1588982400" r="1" fill="white"><title>2020-05-09: 6</title></circle>
	<circle cx="159.06" cy="337.46" data-y="6.27" data-x="1589068800" r="1" fill="white"><title>2020-05-10: 6</title></circle>
	<circle cx="160.92" cy="342.19" data-y="5.48" data-x="1589155200" r="1" fill="white"><title>2020-05-11: 5</title></circle>
	<circle cx="162.78" cy="344.34" data-y="5.12" data-x="1589241600" r="1" fill="white"><title>2020-05-12: 5</title></circle>
	<circle cx="164.64" cy="342.94" data-y="5.35" data-x="1589328000" r="1" fill="white"><title>2020-05-13: 5</title></circle>
	<circle cx="166.51" cy="343.27" data-y="5.30" data-x="1589414400" r="1" fill="white"><title>2020-05-14: 5</title></circle>
	<circle cx="168.37" cy="345.42" data-y="4.94" data-x="1589500800" r="1" fill="white"><title>2020-05-15: 5</title></circle>
	<circle cx="170.23" cy="345.09" data-y="4.99" data-x="1589587200" r="1" fill="white"><title>2020-05-16: 5</title></circle>
	<circle cx="172.09" cy="346.39" data-y="4.78" data-x="1589673600" r="1" fill="white"><title>2020-05-17: 5</title></circle>
	<circle cx="173.95" cy="344.77" data-y="5.05" data-x="1589760000" r="1" fill="white"><title>2020-05-18: 5</title></circle>
	<circle cx="175.82" cy="344.66" data-y="5.06" data-x="1589846400" r="1" fill="white"><title>2020-05-19: 5</title></circle>
	<circle cx="177.68" cy="347.57" data-y="4.58" data-x="1589932800" r="1" fill="white"><title>2020-05-20: 5</title></circle>
	<circle cx="179.54" cy="351.12" data-y="3.99" data-x="1590019200" r="1" fill="white"><title>2020-05-21: 4</title></circle>
	<circle cx="181.40" cy="353.70" data-y="3.56" data-x="1590105600" r="1" fill="white"><title>2020-05-22: 4</title></circle>
	<circle cx="183.26" cy="356.39" data-y="3.11" data-x="1590192000" r="1" fill="white"><title>2020-05-23: 3</title></circle>
	<circle cx="185.13" cy="359.19" data-y="2.64" data-x="1590278400" r="1" fill="white"><title>2020-05-24: 3</title></circle>
	<circle cx="186.99" cy="363.06" data-y="1.99" data-x="1590364800" r="1" fill="white"><title>2020-05-25: 2</title></circle>
	<circle cx="188.85" cy="364.46" data-y="1.76" data-x="1590451200" r="1" fill="white"><title>2020-05-26: 2</title></circle>
	<circle cx="190.71" cy="365.00" data-y="1.67" data-x="1590537600" r="1" fill="white"><title>2020-05-27: 2</title></circle>
	<circle cx="192.57" cy="364.24" data-y="1.80" data-x="1590624000" r="1" fill="white"><title>2020-05-28: 2</title></circle>
	<circle cx="194.44" cy="364.24" data-y="1.80" data-x="1590710400" r="1" fill="white"><title>2020-05-29: 2</title></circle>
	<circle cx="196.30" cy="364.78" data-y="1.71" data-x="1590796800" r="1" fill="white"><title>2020-05-30: 2</title></circle>
	<circle cx="198.16" cy="364.46" data-y="1.76" data-x="1590883200" r="1" fill="white"><title>2020-05-31: 2</title></circle>
	<circle cx="200.02" cy="364.78" data-y="1.71" data-x="1590969600" r="1" fill="white"><title>2020-06-01: 2</title></circle>
	<circle cx="201.88" cy="365.00" data-y="1.67" data-x="1591056000" r="1" fill="white"><title>2020-06-02: 2</title></circle>
	<circle cx="203.74" cy="364.89" data-y="1.69" data-x="1591142400" r="1" fill="white"><title>2020-06-03: 2</title></circle>
	<circle cx="205.61" cy="365.10" data-y="1.65" data-x="1591228800" r="1" fill="white"><title>2020-06-04: 2</title></circle>
	<circle cx="207.47" cy="365.00" data-y="1.67" data-x="1591315200" r="1" fill="white"><title>2020-06-05: 2</title></circle>
	<circle cx="209.33" cy="363.60" data-y="1.90" data-x="1591401600" r="1" fill="white"><title>2020-06-06: 2</title></circle>
	<circle cx="211.19" cy="363.17" data-y="1.98" data-x="1591488000" r="1" fill="white"><title>2020-06-07: 2</title></circle>
	<circle cx="213.05" cy="363.70" data-y="1.89" data-x="1591574400" r="1" fill="white"><title>2020-06-08: 2</title></circle>
	<circle cx="214.92" cy="361.12" data-y="2.32" data-x="1591660800" r="1" fill="white"><title>2020-06-09: 2</title></circle>
	<circle cx="216.78" cy="361.02" data-y="2.33" data-x="1591747200" r="1" fill="white"><title>2020-06-10: 2</title></circle>
	<circle cx="218.64" cy="361.98" data-y="2.17" data-x="1591833600" r="1" fill="white"><title>2020-06-11: 2</title></circle>
	<circle cx="220.50" cy="361.55" data-y="2.24" data-x="1591920000" r="1" fill="white"><title>2020-06-12: 2</title></circle>
	<circle cx="222.36" cy="362.63" data-y="2.07" data-x="1592006400" r="1" fill="white"><title>2020-06-13: 2</title></circle>
	<circle cx="224.23" cy="361.88" data-y="2.19" data-x="1592092800" r="1" fill="white"><title>2020-06-14: 2</title></circle>
	<circle cx="226.09" cy="358.65" data-y="2.73" data-x="1592179200" r="1" fill="white"><title>2020-06-15: 3</title></circle>
	<circle cx="227.95" cy="359.08" data-y="2.66" data-x="1592265600" r="1" fill="white"><title>2020-06-16: 3</title></circle>
	<circle cx="229.81" cy="358.54" data-y="2.75" data-x="1592352000" r="1" fill="white"><title>2020-06-17: 3</title></circle>
	<circle cx="231.67" cy="358.22" data-y="2.80" data-x="1592438400" r="1" fill="white"><title>2020-06-18: 3</title></circle>
	<circle cx="233.54" cy="358.22" data-y="2.80" data-x="1592524800" r="1" fill="white"><title>2020-06-19: 3</title></circle>
	<circle cx="235.40" cy="358.11" data-y="2.82" data-x="1592611200" r="1" fill="white"><title>2020-06-20: 3</title></circle>
	<circle cx="237.26" cy="359.40" data-y="2.60" data-x="1592697600" r="1" fill="white"><title>2020-06-21: 3</title></circle>
	<circle cx="239.12" cy="362.52" data-y="2.08" data-x="1592784000" r="1" fill="white"><title>2020-06-22: 2</title></circle>
	<circle cx="240.98" cy="364.78" data-y="1.71" data-x="1592870400" r="1" fill="white"><title>2020-06-23: 2</title></circle>
	<circle cx="242.85" cy="364.57" data-y="1.74" data-x="1592956800" r="1" fill="white"><title>2020-06-24: 2</title></circle>
	<circle cx="244.71" cy="364.46" data-y="1.76" data-x="1593043200" r="1" fill="white"><title>2020-06-25: 2</title></circle>
	<circle cx="246.57" cy="365.75" data-y="1.54" data-x="1593129600" r="1" fill="white"><title>2020-06-26: 2</title></circle>
	<circle cx="248.43" cy="366.39" data-y="1.44" data-x="1593216000" r="1" fill="white"><title>2020-06-27: 1</title></circle>
	<circle cx="250.29" cy="367.15" data-y="1.31" data-x="1593302400" r="1" fill="white"><title>2020-06-28: 1</title></circle>
	<circle cx="252.15" cy="367.47" data-y="1.26" data-x="1593388800" r="1" fill="white"><title>2020-06-29: 1</title></circle>
	<circle cx="254.02" cy="368.12" data-y="1.15" data-x="1593475200" r="1" fill="white"><title>2020-06-30: 1</title></circle>
	<circle cx="255.88" cy="369.41" data-y="0.93" data-x="1593561600" r="1" fill="white"><title>2020-07-01: 1</title></circle>
	<circle cx="257.74" cy="369.84" data-y="0.86" data-x="1593648000" r="1" fill="white"><title>2020-07-02: 1</title></circle>
	<circle cx="259.60" cy="369.51" data-y="0.92" data-x="1593734400" r="1" fill="white"><title>2020-07-03: 1</title></circle>
	<circle cx="261.46" cy="369.62" data-y="0.90" data-x="1593820800" r="1" fill="white"><title>2020-07-04: 1</title></circle>
	<circle cx="263.33" cy="369.19" data-y="0.97" data-x="1593907200" r="1" fill="white"><title>2020-07-05: 1</title></circle>
	<circle cx="265.19" cy="368.98" data-y="1.01" data-x="1593993600" r="1" fill="white"><title>2020-07-06: 1</title></circle>
	<circle cx="267.05" cy="368.22" data-y="1.13" data-x="1594080000" r="1" fill="white"><title>2020-07-07: 1</title></circle>
	<circle cx="268.91" cy="367.68" data-y="1.22" data-x="1594166400" r="1" fill="white"><title>2020-07-08: 1</title></circle>
	<circle cx="270.77" cy="367.90" data-y="1.19" data-x="1594252800" r="1" fill="white"><title>2020-07-09: 1</title></circle>
	<circle cx="272.64" cy="367.04" data-y="1.33" data-x="1594339200" r="1" fill="white"><title>2020-07-10: 1</title></circle>
	<circle cx="274.50" cy="366.50" data-y="1.42" data-x="1594425600" r="1" fill="white"><title>2020-07-11: 1</title></circle>
	<circle cx="276.36" cy="367.58" data-y="1.24" data-x="1594512000" r="1" fill="white"><title>2020-07-12: 1</title></circle>
	<circle cx="278.22" cy="368.01" data-y="1.17" data-x="1594598400" r="1" fill="white"><title>2020-07-13: 1</title></circle>
	<circle cx="280.08" cy="368.98" data-y="1.01" data-x="1594684800" r="1" fill="white"><title>2020-07-14: 1</title></circle>
	<circle cx="281.95" cy="369.51" data-y="0.92" data-x="1594771200" r="1" fill="white"><title>2020-07-15: 1</title></circle>
	<circle cx="283.81" cy="369.19" data-y="0.97" data-x="1594857600" r="1" fill="white"><title>2020-07-16: 1</title></circle>
	<circle cx="285.67" cy="370.91" data-y="0.68" data-x="1594944000" r="1" fill="white"><title>2020-07-17: 1</title></circle>
	<circle cx="287.53" cy="371.13" data-y="0.65" data-x="1595030400" r="1" fill="white"><title>2020-07-18: 1</title></circle>
	<circle cx="289.39" cy="370.59" data-y="0.74" data-x="1595116800" r="1" fill="white"><title>2020-07-19: 1</title></circle>
	<circle cx="291.26" cy="370.70" data-y="0.72" data-x="1595203200" r="1" fill="white"><title>2020-07-20: 1</title></circle>
	<circle cx="293.12" cy="370.91" data-y="0.68" data-x="1595289600" r="1" fill="white"><title>2020-07-21: 1</title></circle>
	<circle cx="294.98" cy="370.70" data-y="0.72" data-x="1595376000" r="1" fill="white"><title>2020-07-22: 1</title></circle>
	<circle cx="296.84" cy="370.59" data-y="0.74" data-x="1595462400" r="1" fill="white"><title>2020-07-23: 1</title></circle>
	<circle cx="298.70" cy="369.41" data-y="0.93" data-x="1595548800" r="1" fill="white"><title>2020-07-24: 1</title></circle>
	<circle cx="300.56" cy="367.58" data-y="1.24" data-x="1595635200" r="1" fill="white"><title>2020-07-25: 1</title></circle>
	<circle cx="302.43" cy="365.32" data-y="1.62" data-x="1595721600" r="1" fill="white"><title>2020-07-26: 2</title></circle>
	<circle cx="304.29" cy="363.70" data-y="1.89" data-x="1595808000" r="1" fill="white"><title>2020-07-27: 2</title></circle>
	<circle cx="306.15" cy="362.63" data-y="2.07" data-x="1595894400" r="1" fill="white"><title>2020-07-28: 2</title></circle>
	<circle cx="308.01" cy="360.80" data-y="2.37" data-x="1595980800" r="1" fill="white"><title>2020-07-29: 2</title></circle>
	<circle cx="309.87" cy="361.12" data-y="2.32" data-x="1596067200" r="1" fill="white"><title>2020-07-30: 2</title></circle>
	<circle cx="311.74" cy="360.69" data-y="2.39" data-x="1596153600" r="1" fill="white"><title>2020-07-31: 2</title></circle>
	<circle cx="313.60" cy="361.66" data-y="2.23" data-x="1596240000" r="1" fill="white"><title>2020-08-01: 2</title></circle>
	<circle cx="315.46" cy="362.84" data-y="2.03" data-x="1596326400" r="1" fill="white"><title>2020-08-02: 2</title></circle>
	<circle cx="317.32" cy="363.70" data-y="1.89" data-x="1596412800" r="1" fill="white"><title>2020-08-03: 2</title></circle>
	<circle cx="319.18" cy="363.60" data-y="1.90" data-x="1596499200" r="1" fill="white"><title>2020-08-04: 2</title></circle>
	<circle cx="321.05" cy="364.46" data-y="1.76" data-x="1596585600" r="1" fill="white"><title>2020-08-05: 2</title></circle>
	<circle cx="322.91" cy="362.74" data-y="2.05" data-x="1596672000" r="1" fill="white"><title>2020-08-06: 2</title></circle>
	<circle cx="324.77" cy="362.31" data-y="2.12" data-x="1596758400" r="1" fill="white"><title>2020-08-07: 2</title></circle>
	<circle cx="326.63" cy="361.66" data-y="2.23" data-x="1596844800" r="1" fill="white"><title>2020-08-08: 2</title></circle>
	<circle cx="328.49" cy="361.02" data-y="2.33" data-x="1596931200" r="1" fill="white"><title>2020-08-09: 2</title></circle>
	<circle cx="330.36" cy="359.19" data-y="2.64" data-x="1597017600" r="1" fill="white"><title>2020-08-10: 3</title></circle>
	<circle cx="332.22" cy="358.22" data-y="2.80" data-x="1597104000" r="1" fill="white"><title>2020-08-11: 3</title></circle>
	<circle cx="334.08" cy="358.00" data-y="2.84" data-x="1597190400" r="1" fill="white"><title>2020-08-12: 3</title></circle>
	<circle cx="335.94" cy="359.72" data-y="2.55" data-x="1597276800" r="1" fill="white"><title>2020-08-13: 3</title></circle>
	<circle cx="337.80" cy="359.83" data-y="2.53" data-x="1597363200" r="1" fill="white"><title>2020-08-14: 3</title></circle>
	<circle cx="339.67" cy="359.94" data-y="2.51" data-x="1597449600" r="1" fill="white"><title>2020-08-15: 3</title></circle>
	<circle cx="341.53" cy="358.97" data-y="2.68" data-x="1597536000" r="1" fill="white"><title>2020-08-16: 3</title></circle>
	<circle cx="343.39" cy="358.65" data-y="2.73" data-x="1597622400" r="1" fill="white"><title>2020-08-17: 3</title></circle>
	<circle cx="345.25" cy="358.33" data-y="2.78" data-x="1597708800" r="1" fill="white"><title>2020-08-18: 3</title></circle>
	<circle cx="347.11" cy="358.76" data-y="2.71" data-x="1597795200" r="1" fill="white"><title>2020-08-19: 3</title></circle>
	<circle cx="348.97" cy="356.39" data-y="3.11" data-x="1597881600" r="1" fill="white"><title>2020-08-20: 3</title></circle>
	<circle cx="350.84" cy="354.56" data-y="3.41" data-x="1597968000" r="1" fill="white"><title>2020-08-21: 3</title></circle>
	<circle cx="352.70" cy="352.19" data-y="3.81" data-x="1598054400" r="1" fill="white"><title>2020-08-22: 4</title></circle>
	<circle cx="354.56" cy="352.62" data-y="3.73" data-x="1598140800" r="1" fill="white"><title>2020-08-23: 4</title></circle>
	<circle cx="356.42" cy="351.23" data-y="3.97" data-x="1598227200" r="1" fill="white"><title>2020-08-24: 4</title></circle>
	<circle cx="358.28" cy="349.50" data-y="4.26" data-x="1598313600" r="1" fill="white"><title>2020-08-25: 4</title></circle>
	<circle cx="360.15" cy="347.03" data-y="4.67" data-x="1598400000" r="1" fill="white"><title>2020-08-26: 5</title></circle>
	<circle cx="362.01" cy="347.03" data-y="4.67" data-x="1598486400" r="1" fill="white"><title>2020-08-27: 5</title></circle>
	<circle cx="363.87" cy="346.71" data-y="4.72" data-x="1598572800" r="1" fill="white"><title>2020-08-28: 5</title></circle>
	<circle cx="365.73" cy="344.56" data-y="5.08" data-x="1598659200" r="1" fill="white"><title>2020-08-29: 5</title></circle>
	<circle cx="367.59" cy="337.35" data-y="6.28" data-x="1598745600" r="1" fill="white"><title>2020-08-30: 6</title></circle>
	<circle cx="369.46" cy="333.69" data-y="6.90" data-x="1598832000" r="1" fill="white"><title>2020-08-31: 7</title></circle>
	<circle cx="371.32" cy="329.93" data-y="7.52" data-x="1598918400" r="1" fill="white"><title>2020-09-01: 8</title></circle>
	<circle cx="373.18" cy="324.01" data-y="8.51" data-x="1599004800" r="1" fill="white"><title>2020-09-02: 9</title></circle>
	<circle cx="375.04" cy="318.63" data-y="9.41" data-x="1599091200" r="1" fill="white"><title>2020-09-03: 9</title></circle>
	<circle cx="376.90" cy="311.75" data-y="10.56" data-x="1599177600" r="1" fill="white"><title>2020-09-04: 11</title></circle>
	<circle cx="378.77" cy="310.89" data-y="10.70" data-x="1599264000" r="1" fill="white"><title>2020-09-05: 11</title></circle>
	<circle cx="380.63" cy="312.18" data-y="10.49" data-x="1599350400" r="1" fill="white"><title>2020-09-06: 10</title></circle>
	<circle cx="382.49" cy="309.81" data-y="10.88" data-x="1599436800" r="1" fill="white"><title>2020-09-07: 11</title></circle>
	<circle cx="384.35" cy="305.40" data-y="11.62" data-x="1599523200" r="1" fill="white"><title>2020-09-08: 12</title></circle>
	<circle cx="386.21" cy="307.55" data-y="11.26" data-x="1599609600" r="1" fill="white"><title>2020-09-09: 11</title></circle>
	<circle cx="388.08" cy="309.49" data-y="10.94" data-x="1599696000" r="1" fill="white"><title>2020-09-10: 11</title></circle>
	<circle cx="389.94" cy="309.59" data-y="10.92" data-x="1599782400" r="1" fill="white"><title>2020-09-11: 11</title></circle>
	<circle cx="391.80" cy="305.08" data-y="11.67" data-x="1599868800" r="1" fill="white"><title>2020-09-12: 12</title></circle>
	<circle cx="393.66" cy="299.91" data-y="12.53" data-x="1599955200" r="1" fill="white"><title>2020-09-13: 13</title></circle>
	<circle cx="395.52" cy="297.55" data-y="12.93" data-x="1600041600" r="1" fill="white"><title>2020-09-14: 13</title></circle>
	<circle cx="397.38" cy="297.01" data-y="13.02" data-x="1600128000" r="1" fill="white"><title>2020-09-15: 13</title></circle>
	<circle cx="399.25" cy="289.37" data-y="14.29" data-x="1600214400" r="1" fill="white"><title>2020-09-16: 14</title></circle>
	<circle cx="401.11" cy="279.69" data-y="15.91" data-x="1600300800" r="1" fill="white"><title>2020-09-17: 16</title></circle>
	<circle cx="402.97" cy="275.82" data-y="16.56" data-x="1600387200" r="1" fill="white"><title>2020-09-18: 17</title></circle>
	<circle cx="404.83" cy="269.90" data-y="17.54" data-x="1600473600" r="1" fill="white"><title>2020-09-19: 18</title></circle>
	<circle cx="406.69" cy="268.07" data-y="17.85" data-x="1600560000" r="1" fill="white"><title>2020-09-20: 18</title></circle>
	<circle cx="408.56" cy="256.13" data-y="19.84" data-x="1600646400" r="1" fill="white"><title>2020-09-21: 20</title></circle>
	<circle cx="410.42" cy="250.97" data-y="20.70" data-x="1600732800" r="1" fill="white"><title>2020-09-22: 21</title></circle>
	<circle cx="412.28" cy="243.01" data-y="22.03" data-x="1600819200" r="1" fill="white"><title>2020-09-23: 22</title></circle>
	<circle cx="414.14" cy="229.56" data-y="24.28" data-x="1600905600" r="1" fill="white"><title>2020-09-24: 24</title></circle>
	<circle cx="416.00" cy="209.55" data-y="27.62" data-x="1600992000" r="1" fill="white"><title>2020-09-25: 28</title></circle>
	<circle cx="417.87" cy="185.88" data-y="31.57" data-x="1601078400" r="1" fill="white"><title>2020-09-26: 32</title></circle>
	<circle cx="419.73" cy="154.15" data-y="36.87" data-x="1601164800" r="1" fill="white"><title>2020-09-27: 37</title></circle>
	<circle cx="421.59" cy="119.08" data-y="42.72" data-x="1601251200" r="1" fill="white"><title>2020-09-28: 43</title></circle>
	<circle cx="423.45" cy="81.86" data-y="48.93" data-x="1601337600" r="1" fill="white"><title>2020-09-29: 49</title></circle>
	<circle cx="425.31" cy="61.21" data-y="52.38" data-x="1601424000" r="1" fill="white"><title>2020-09-30: 52</title></circle>
	<circle cx="427.18" cy="51.52" data-y="54.00" data-x="1601510400" r="1" fill="white"><title>2020-10-01: 54</title></circle>
	<circle cx="429.04" cy="33.13" data-y="57.07" data-x="1601596800" r="1" fill="white"><title>2020-10-02: 57</title></circle>
	<circle cx="430.90" cy="17.96" data-y="59.60" data-x="1601683200" r="1" fill="white"><title>2020-10-03: 60</title></circle>
	<circle cx="432.76" cy="10.00" data-y="60.93" data-x="1601769600" r="1" fill="white"><title>2020-10-04: 61</title></circle>
	<circle cx="434.62" cy="10.86" data-y="60.78" data-x="1601856000" r="1" fill="white"><title>2020-10-05: 61</title></circle>
	<circle cx="436.49" cy="25.06" data-y="58.41" data-x="1601942400" r="1" fill="white"><title>2020-10-06: 58</title></circle>
	<circle cx="438.35" cy="29.47" data-y="57.68" data-x="1602028800" r="1" fill="white"><title>2020-10-07: 58</title></circle>
	<circle cx="440.21" cy="38.40" data-y="56.19" data-x="1602115200" r="1" fill="white"><title>2020-10-08: 56</title></circle>
	<circle cx="442.07" cy="34.96" data-y="56.76" data-x="1602201600" r="1" fill="white"><title>2020-10-09: 57</title></circle>
	<circle cx="443.93" cy="43.03" data-y="55.41" data-x="1602288000" r="1" fill="white"><title>2020-10-10: 55</title></circle>
	<circle cx="445.79" cy="43.56" data-y="55.32" data-x="1602374400" r="1" fill="white"><title>2020-10-11: 55</title></circle>
	<circle cx="447.66" cy="54.32" data-y="53.53" data-x="1602460800" r="1" fill="white"><title>2020-10-12: 54</title></circle>
	<circle cx="449.52" cy="48.83" data-y="54.44" data-x="1602547200" r="1" fill="white"><title>2020-10-13: 54</title></circle>
	<circle cx="451.38" cy="47.65" data-y="54.64" data-x="1602633600" r="1" fill="white"><title>2020-10-14: 55</title></circle>
	<circle cx="453.24" cy="39.15" data-y="56.06" data-x="1602720000" r="1" fill="white"><title>2020-10-15: 56</title></circle>
	<circle cx="455.10" cy="32.59" data-y="57.16" data-x="1602806400" r="1" fill="white"><title>2020-10-16: 57</title></circle>
	<circle cx="456.97" cy="23.77" data-y="58.63" data-x="1602892800" r="1" fill="white"><title>2020-10-17: 59</title></circle>
	<circle cx="458.83" cy="24.20" data-y="58.56" data-x="1602979200" r="1" fill="white"><title>2020-10-18: 59</title></circle>
	<circle cx="460.69" cy="32.70" data-y="57.14" data-x="1603065600" r="1" fill="white"><title>2020-10-19: 57</title></circle>
</g>
<g data-series="recent-cases" class="data-series">
	<path d="M 460.69,32.70L 462.55,64.97L 464.41,105.31L 466.28,105.54L 468.14,140.51L 470.00,182.79" id="Recent cases" class="line" stroke-width="1" stroke-linecap="round" stroke-dasharray="4,6" stroke-dashoffset="4"><title>Recent cases</title></path>
	<circle cx="460.69" cy="32.70" data-y="57.14" data-x="1603065600" r="2.5" fill="white"><title>2020-10-19: 57</title></circle>
	<circle cx="462.55" cy="64.97" data-y="51.75" data-x="1603152000" r="2.5" fill="white"><title>2020-10-20: 52</title></circle>
	<circle cx="464.41" cy="105.31" data-y="45.02" data-x="1603238400" r="2.5" fill="white"><title>2020-10-21: 45</title></circle>
	<circle cx="466.28" cy="105.54" data-y="44.98" data-x="1603324800" r="2.5" fill="white"><title>2020-10-22: 45</title></circle>
	<circle cx="468.14" cy="140.51" data-y="39.14" data-x="1603411200" r="2.5" fill="white"><title>2020-10-23: 39</title></circle>
	<circle cx="470.00" cy="182.79" data-y="32.08" data-x="1603497600" r="2.5" fill="white"><title>2020-10-24: 32</title></circle>
</g>
</svg>
