<svg width="480" height="400" viewBox="0 0 480 400" xmlns="http://www.w3.org/2000/svg" style="overflow:display" preserveAspectRatio="xMinYMin meet" overflow="visible">
<defs>
	<style>
	.data-series path.line { fill-opacity: 0; stroke: black; }
	.data-series path.line.dotted { stroke-dasharray: 12 20 }
	.data-series circle { display: none; }
	.data-series:hover path.line, .data-series.on path.line { stroke-width: 1; }
	.data-series:hover circle, .data-series.on circle { display: inline; }
	.data-series circle:hover, .data-series circle.on { r: 1px!important; }
	.graph-grid { font-family: "Helvetica Neue",Helvetica,Arial,"Lucida Grande",sans-serif; }
	.graph-grid line { stroke: black; stroke-width: 1; stroke-linecap: round; }
	.graph-grid.graph-grid-x text { text-anchor: middle; dominant-baseline: hanging; transform: translateY(10px); }
	.graph-grid.graph-grid-y text { text-anchor: end; dominant-baseline: middle; transform: translateX(-10px); }
	</style>
</defs>
<g class="graph-grid graph-grid-y">
	<line x1="15.00" y1="375.00" x2="470.00" y2="375.00" data-left="15"></line>
	<text x="25" y="375" text-anchor="end">0</text>
	<text x="25" y="247.35579296875" text-anchor="end">20</text>
	<text x="25" y="119.7115859375" text-anchor="end">40</text>
	<text style="text-anchor:middle;dominant-baseline:hanging;font-weight:bold;transform: translateY(192.5px) rotate(-90deg);"></text>
</g>
<g class="graph-grid graph-grid-x">
	<line class="tick" x1="18.94" y1="375.00" x2="18.94" y2="380.00"></line>
	<text x="18.9393939393939" y="375" text-anchor="middle">M</text>
	<line class="tick" x1="80.00" y1="375.00" x2="80.00" y2="380.00"></line>
	<text x="80" y="375" text-anchor="middle">A</text>
	<line class="tick" x1="139.09" y1="375.00" x2="139.09" y2="380.00"></line>
	<text x="139.090909090909" y="375" text-anchor="middle">M</text>
	<line class="tick" x1="200.15" y1="375.00" x2="200.15" y2="380.00"></line>
	<text x="200.151515151515" y="375" text-anchor="middle">J</text>
	<line class="tick" x1="259.24" y1="375.00" x2="259.24" y2="380.00"></line>
	<text x="259.242424242424" y="375" text-anchor="middle">J</text>
	<line class="tick" x1="320.30" y1="375.00" x2="320.30" y2="380.00"></line>
	<text x="320.30303030303" y="375" text-anchor="middle">A</text>
	<line class="tick" x1="381.36" y1="375.00" x2="381.36" y2="380.00"></line>
	<text x="381.363636363636" y="375" text-anchor="middle">S</text>
	<line class="tick" x1="440.45" y1="375.00" x2="440.45" y2="380.00"></line>
	<text x="440.454545454545" y="375" text-anchor="middle">O</text>
	<text style="text-anchor:middle;dominant-baseline:hanging;font-weight:bold;transform: translateY(192.5px) rotate(-90deg);"></text>
</g>
<g data-series="widespread" class="data-series">
	<path d="M 15.00,330.32L 470.00,330.32" id="E08000002-level-0" class="line" stroke-width="1" stroke-linecap="round" stroke-dasharray="3,3" fill-opacity="0.3" opacity="0.3"><title>Widespread</title></path>
</g>
<g data-series="substantial" class="data-series">
	<path d="M 15.00,349.47L 470.00,349.47" id="E08000002-level-1" class="line" stroke-width="1" stroke-linecap="round" stroke-dasharray="3,3" fill-opacity="0.3" opacity="0.3"><title>Substantial</title></path>
</g>
<g data-series="moderate" class="data-series">
	<path d="M 15.00,368.62L 470.00,368.62" id="E08000002-level-2" class="line" stroke-width="1" stroke-linecap="round" stroke-dasharray="3,3" fill-opacity="0.3" opacity="0.3"><title>Moderate</title></path>
</g>
<g data-series="new-cases" class="data-series">
	<path d="M 15.00,372.50L 16.97,373.00L 18.94,373.34L 20.91,373.57L 22.88,374.05L 24.85,373.57L 26.82,374.52L 28.79,374.52L 30.76,374.52L 32.73,374.52L 34.70,374.52L 36.67,373.10L 38.64,373.57L 40.61,373.57L 42.58,373.10L 44.55,372.15L 46.52,371.20L 48.48,370.25L 50.45,371.20L 52.42,370.25L 54.39,366.92L 56.36,365.97L 58.33,363.12L 60.30,362.64L 62.27,356.94L 64.24,353.14L 66.21,349.34L 68.18,349.34L 70.15,343.16L 72.12,343.63L 74.09,337.45L 76.06,340.31L 78.03,336.03L 80.00,335.55L 81.97,330.80L 83.94,327.00L 85.91,317.02L 87.88,313.22L 89.85,306.09L 91.82,305.14L 93.79,298.01L 95.76,298.48L 97.73,299.91L 99.70,307.99L 101.67,304.66L 103.64,303.71L 105.61,298.48L 107.58,293.26L 109.55,293.73L 111.52,292.30L 113.48,292.30L 115.45,297.53L 117.42,297.53L 119.39,299.43L 121.36,312.27L 123.33,315.12L 125.30,316.54L 127.27,309.41L 129.24,309.41L 131.21,313.69L 133.18,320.82L 135.15,322.25L 137.12,320.82L 139.09,325.57L 141.06,335.55L 143.03,336.50L 145.00,340.31L 146.97,341.73L 148.94,341.26L 150.91,342.68L 152.88,344.11L 154.85,340.78L 156.82,342.68L 158.79,339.36L 160.76,336.98L 162.73,335.55L 164.70,336.03L 166.67,331.75L 168.64,325.10L 170.61,311.32L 172.58,305.14L 174.55,302.29L 176.52,306.09L 178.48,305.61L 180.45,310.36L 182.42,317.49L 184.39,331.75L 186.36,341.26L 188.33,347.91L 190.30,344.11L 192.27,344.11L 194.24,343.16L 196.21,340.31L 198.18,343.63L 200.15,342.21L 202.12,340.78L 204.09,342.68L 206.06,345.06L 208.03,345.06L 210.00,350.76L 211.97,350.29L 213.94,351.71L 215.91,352.19L 217.88,351.24L 219.85,350.76L 221.82,351.24L 223.79,350.29L 225.76,352.19L 227.73,355.51L 229.70,358.37L 231.67,361.22L 233.64,363.59L 235.61,365.97L 237.58,367.87L 239.55,368.35L 241.52,368.35L 243.48,367.87L 245.45,368.35L 247.42,368.35L 249.39,367.40L 251.36,368.82L 253.33,367.87L 255.30,366.92L 257.27,365.97L 259.24,365.97L 261.21,365.49L 263.18,366.92L 265.15,366.45L 267.12,367.40L 269.09,368.35L 271.06,370.72L 273.03,371.67L 275.00,371.67L 276.97,372.15L 278.94,369.30L 280.91,370.25L 282.88,366.92L 284.85,365.97L 286.82,365.97L 288.79,365.02L 290.76,363.59L 292.73,366.45L 294.70,365.02L 296.67,367.87L 298.64,366.92L 300.61,365.02L 302.58,361.69L 304.55,360.27L 306.52,360.74L 308.48,360.27L 310.45,359.32L 312.42,356.46L 314.39,356.46L 316.36,358.37L 318.33,352.66L 320.30,347.91L 322.27,347.43L 324.24,347.43L 326.21,350.76L 328.18,350.76L 330.15,352.19L 332.12,355.04L 334.09,352.66L 336.06,349.81L 338.03,348.39L 340.00,346.01L 341.97,345.06L 343.94,344.58L 345.91,344.11L 347.88,346.48L 349.85,345.06L 351.82,344.58L 353.79,341.26L 355.76,340.31L 357.73,341.26L 359.70,344.11L 361.67,346.96L 363.64,350.76L 365.61,347.91L 367.58,351.24L 369.55,351.24L 371.52,349.34L 373.48,349.81L 375.45,344.11L 377.42,335.08L 379.39,331.75L 381.36,322.72L 383.33,317.97L 385.30,311.32L 387.27,306.09L 389.24,298.48L 391.21,296.11L 393.18,289.45L 395.15,287.08L 397.12,283.27L 399.09,286.13L 401.06,273.29L 403.03,266.17L 405.00,254.76L 406.97,240.03L 408.94,232.42L 410.91,224.82L 412.88,202.96L 414.85,195.83L 416.82,183.95L 418.79,178.24L 420.76,183.47L 422.73,173.01L 424.70,171.11L 426.67,178.72L 428.64,165.41L 430.61,157.33L 432.58,146.40L 434.55,129.29L 436.52,126.44L 438.48,117.88L 440.45,111.23L 442.42,86.99L 444.39,77.96L 446.36,60.85L 448.33,51.82L 450.30,41.37L 452.27,34.71L 454.24,20.93L 456.21,10.00L 458.18,10.95L 460.15,38.52" id="New cases" class="line" stroke-width="1" stroke-linecap="round"><title>New cases</title></path>
</g>
<g data-series="recent-cases" class="data-series">
	<path d="M 460.15,38.52L 462.12,76.06L 464.09,122.64L 466.06,123.82L 468.03,131.48L 470.00,205.33" id="Recent cases" class="line" stroke-width="1" stroke-linecap="round" stroke-dasharray="5,5"><title>Recent cases</title></path>
</g>
</svg>
