<svg width="480" height="400" viewBox="0 0 480 400" xmlns="http://www.w3.org/2000/svg" style="overflow:display" preserveAspectRatio="xMinYMin meet" overflow="visible">
<defs>
	<style>
	.data-series path.line { fill-opacity: 0; stroke: black; }
	.data-series path.line.dotted { stroke-dasharray: 12 20 }
	.data-series:hover path.line, .data-series.on path.line { stroke-width: 1; }
	.data-series:hover circle, .data-series.on circle { display: inline; }
	.graph-grid { font-family: "Helvetica Neue",Helvetica,Arial,"Lucida Grande",sans-serif; }
	.graph-grid line { stroke: black; stroke-width: 1; stroke-linecap: round; }
	.graph-grid.graph-grid-x text { text-anchor: middle; dominant-baseline: hanging; transform: translateY(10px); }
	.graph-grid.graph-grid-y text { text-anchor: end; dominant-baseline: middle; transform: translateX(-10px); }
	</style>
</defs>
<g class="graph-grid graph-grid-y">
	<line x1="25.00" y1="375.00" x2="470.00" y2="375.00" data-left="25"></line>
	<text x="35" y="375" text-anchor="end">0</text>
	<text x="35" y="289.106743629584" text-anchor="end">20</text>
	<text x="35" y="203.213487259167" text-anchor="end">40</text>
	<text x="35" y="117.320230888751" text-anchor="end">60</text>
	<text x="35" y="31.4269745183343" text-anchor="end">80</text>
	<text style="text-anchor:middle;dominant-baseline:hanging;font-weight:bold;transform: translateY(192.5px) rotate(-90deg);"></text>
</g>
<g class="graph-grid graph-grid-x">
	<line class="tick" x1="29.35" y1="375.00" x2="29.35" y2="380.00"></line>
	<text x="29.3485342019544" y="375" text-anchor="middle">M</text>
	<line class="tick" x1="74.28" y1="375.00" x2="74.28" y2="380.00"></line>
	<text x="74.2833876221498" y="375" text-anchor="middle">A</text>
	<line class="tick" x1="117.77" y1="375.00" x2="117.77" y2="380.00"></line>
	<text x="117.768729641694" y="375" text-anchor="middle">M</text>
	<line class="tick" x1="162.70" y1="375.00" x2="162.70" y2="380.00"></line>
	<text x="162.703583061889" y="375" text-anchor="middle">J</text>
	<line class="tick" x1="206.19" y1="375.00" x2="206.19" y2="380.00"></line>
	<text x="206.188925081433" y="375" text-anchor="middle">J</text>
	<line class="tick" x1="251.12" y1="375.00" x2="251.12" y2="380.00"></line>
	<text x="251.123778501629" y="375" text-anchor="middle">A</text>
	<line class="tick" x1="296.06" y1="375.00" x2="296.06" y2="380.00"></line>
	<text x="296.058631921824" y="375" text-anchor="middle">S</text>
	<line class="tick" x1="339.54" y1="375.00" x2="339.54" y2="380.00"></line>
	<text x="339.543973941368" y="375" text-anchor="middle">O</text>
	<line class="tick" x1="384.48" y1="375.00" x2="384.48" y2="380.00"></line>
	<text x="384.478827361564" y="375" text-anchor="middle">N</text>
	<line class="tick" x1="427.96" y1="375.00" x2="427.96" y2="380.00"></line>
	<text x="427.964169381107" y="375" text-anchor="middle">D</text>
	<text style="text-anchor:middle;dominant-baseline:hanging;font-weight:bold;transform: translateY(192.5px) rotate(-90deg);"></text>
</g>
<g data-series="widespread" class="data-series">
	<path d="M 25.00,344.94L 470.00,344.94" id="E08000032-level-0" class="line" stroke-width="1" stroke-linecap="round" stroke-dasharray="3,3" fill-opacity="0.3" opacity="0.3"><title>Widespread</title></path>
</g>
<g data-series="substantial" class="data-series">
	<path d="M 25.00,357.82L 470.00,357.82" id="E08000032-level-1" class="line" stroke-width="1" stroke-linecap="round" stroke-dasharray="3,3" fill-opacity="0.3" opacity="0.3"><title>Substantial</title></path>
</g>
<g data-series="moderate" class="data-series">
	<path d="M 25.00,370.71L 470.00,370.71" id="E08000032-level-2" class="line" stroke-width="1" stroke-linecap="round" stroke-dasharray="3,3" fill-opacity="0.3" opacity="0.3"><title>Moderate</title></path>
</g>
<g data-series="new-cases" class="data-series">
	<path d="M 25.00,374.80L 26.45,374.84L 27.90,374.87L 29.35,374.89L 30.80,375.00L 32.25,375.00L 33.70,375.00L 35.15,375.00L 36.60,375.00L 38.05,374.77L 39.50,374.77L 40.94,374.55L 42.39,374.55L 43.84,374.32L 45.29,374.32L 46.74,374.32L 48.19,374.21L 49.64,373.98L 51.09,374.21L 52.54,373.98L 53.99,373.87L 55.44,373.53L 56.89,372.84L 58.34,372.16L 59.79,371.60L 61.24,370.46L 62.69,368.42L 64.14,367.17L 65.59,365.25L 67.04,363.32L 68.49,362.07L 69.93,360.48L 71.38,359.46L 72.83,359.01L 74.28,358.21L 75.73,357.42L 77.18,355.94L 78.63,354.58L 80.08,353.00L 81.53,351.75L 82.98,352.09L 84.43,352.32L 85.88,352.20L 87.33,354.13L 88.78,355.26L 90.23,353.45L 91.68,352.77L 93.13,350.84L 94.58,348.91L 96.03,348.12L 97.48,346.42L 98.93,344.94L 100.37,344.83L 101.82,343.47L 103.27,340.75L 104.72,339.38L 106.17,339.04L 107.62,338.36L 109.07,335.98L 110.52,332.13L 111.97,332.58L 113.42,330.20L 114.87,331.79L 116.32,331.56L 117.77,331.44L 119.22,333.26L 120.67,336.78L 122.12,335.30L 123.57,338.02L 125.02,337.34L 126.47,337.57L 127.92,334.51L 129.36,331.67L 130.81,328.61L 132.26,327.93L 133.71,329.63L 135.16,329.97L 136.61,331.67L 138.06,334.51L 139.51,329.29L 140.96,330.99L 142.41,330.76L 143.86,332.92L 145.31,332.81L 146.76,333.26L 148.21,334.73L 149.66,343.35L 151.11,345.62L 152.56,348.69L 154.01,346.98L 155.46,346.53L 156.91,344.26L 158.36,342.79L 159.80,342.56L 161.25,342.79L 162.70,342.22L 164.15,342.11L 165.60,343.24L 167.05,344.26L 168.50,342.67L 169.95,341.77L 171.40,338.93L 172.85,339.95L 174.30,335.76L 175.75,334.96L 177.20,332.24L 178.65,332.81L 180.10,332.13L 181.55,332.35L 183.00,326.68L 184.45,330.76L 185.90,330.42L 187.35,332.58L 188.79,335.30L 190.24,335.41L 191.69,338.59L 193.14,343.58L 194.59,343.58L 196.04,343.24L 197.49,345.06L 198.94,344.49L 200.39,348.00L 201.84,348.80L 203.29,350.50L 204.74,352.09L 206.19,354.81L 207.64,354.47L 209.09,352.88L 210.54,352.77L 211.99,352.66L 213.44,353.45L 214.89,354.13L 216.34,353.00L 217.79,351.63L 219.23,352.77L 220.68,350.95L 222.13,350.73L 223.58,350.61L 225.03,349.14L 226.48,349.03L 227.93,348.69L 229.38,347.66L 230.83,346.98L 232.28,348.57L 233.73,345.96L 235.18,345.51L 236.63,345.17L 238.08,345.28L 239.53,345.40L 240.98,346.19L 242.43,342.11L 243.88,341.43L 245.33,342.11L 246.78,342.56L 248.22,342.67L 249.67,343.35L 251.12,340.86L 252.57,341.65L 254.02,340.29L 255.47,340.18L 256.92,340.07L 258.37,341.43L 259.82,339.04L 261.27,338.93L 262.72,339.61L 264.17,341.31L 265.62,340.41L 267.07,340.18L 268.52,339.50L 269.97,342.56L 271.42,346.19L 272.87,348.35L 274.32,347.66L 275.77,347.89L 277.21,348.46L 278.66,349.03L 280.11,348.91L 281.56,348.12L 283.01,347.78L 284.46,347.32L 285.91,346.19L 287.36,344.38L 288.81,341.99L 290.26,338.59L 291.71,334.96L 293.16,329.97L 294.61,329.40L 296.06,328.38L 297.51,326.11L 298.96,323.39L 300.41,318.29L 301.86,319.88L 303.31,319.65L 304.76,315.45L 306.21,313.07L 307.65,312.96L 309.10,315.00L 310.55,317.49L 312.00,312.73L 313.45,308.19L 314.90,303.88L 316.35,298.78L 317.80,294.70L 319.25,285.62L 320.70,282.22L 322.15,277.57L 323.60,275.75L 325.05,270.76L 326.50,269.40L 327.95,268.38L 329.40,265.66L 330.85,251.93L 332.30,243.88L 333.75,234.24L 335.20,227.66L 336.64,217.68L 338.09,207.02L 339.54,204.75L 340.99,204.52L 342.44,195.11L 343.89,191.14L 345.34,182.97L 346.79,181.61L 348.24,177.53L 349.69,174.47L 351.14,165.62L 352.59,162.90L 354.04,155.98L 355.49,155.41L 356.94,148.49L 358.39,140.67L 359.84,134.54L 361.29,117.19L 362.74,100.40L 364.19,96.09L 365.64,79.98L 367.08,68.30L 368.53,73.63L 369.98,68.75L 371.43,72.84L 372.88,69.66L 374.33,60.47L 375.78,58.77L 377.23,55.60L 378.68,49.02L 380.13,39.60L 381.58,20.55L 383.03,16.81L 384.48,19.87L 385.93,21.12L 387.38,14.99L 388.83,10.00L 390.28,13.63L 391.73,28.83L 393.18,40.40L 394.63,36.54L 396.07,40.06L 397.52,48.34L 398.97,57.52L 400.42,68.53L 401.87,73.40L 403.32,76.35L 404.77,87.58L 406.22,104.94L 407.67,125.01L 409.12,141.69L 410.57,151.55L 412.02,171.40L 413.47,191.37L 414.92,206.79L 416.37,217.11L 417.82,225.05L 419.27,225.85L 420.72,227.09L 422.17,235.37L 423.62,243.09L 425.07,246.15L 426.51,250.12L 427.96,253.07L 429.41,257.04L 430.86,263.84L 432.31,266.57L 433.76,266.11L 435.21,270.99L 436.66,268.49L 438.11,267.25L 439.56,266.68L 441.01,265.09L 442.46,263.96L 443.91,269.17L 445.36,270.08L 446.81,274.73L 448.26,273.83L 449.71,274.51L 451.16,275.98L 452.61,273.49L 454.06,265.66L 455.50,257.83L 456.95,260.10L 458.40,271.33L 459.85,267.47L 461.30,261.01L 462.75,265.55" id="New cases" class="line" stroke-width="1" stroke-linecap="round"><title>New cases</title></path>
	<circle cx="25.00" cy="374.80" data-y="0.05" data-x="1582761600" r="1" fill="white"><title>2020-02-27: 0</title></circle>
	<circle cx="26.45" cy="374.84" data-y="0.04" data-x="1582848000" r="1" fill="white"><title>2020-02-28: 0</title></circle>
	<circle cx="27.90" cy="374.87" data-y="0.03" data-x="1582934400" r="1" fill="white"><title>2020-02-29: 0</title></circle>
	<circle cx="29.35" cy="374.89" data-y="0.03" data-x="1583020800" r="1" fill="white"><title>2020-03-01: 0</title></circle>
	<circle cx="30.80" cy="375.00" data-y="0.00" data-x="1583107200" r="1" fill="white"><title>2020-03-02: 0</title></circle>
	<circle cx="32.25" cy="375.00" data-y="0.00" data-x="1583193600" r="1" fill="white"><title>2020-03-03: 0</title></circle>
	<circle cx="33.70" cy="375.00" data-y="0.00" data-x="1583280000" r="1" fill="white"><title>2020-03-04: 0</title></circle>
	<circle cx="35.15" cy="375.00" data-y="0.00" data-x="1583366400" r="1" fill="white"><title>2020-03-05: 0</title></circle>
	<circle cx="36.60" cy="375.00" data-y="0.00" data-x="1583452800" r="1" fill="white"><title>2020-03-06: 0</title></circle>
	<circle cx="38.05" cy="374.77" data-y="0.05" data-x="1583539200" r="1" fill="white"><title>2020-03-07: 0</title></circle>
	<circle cx="39.50" cy="374.77" data-y="0.05" data-x="1583625600" r="1" fill="white"><title>2020-03-08: 0</title></circle>
	<circle cx="40.94" cy="374.55" data-y="0.11" data-x="1583712000" r="1" fill="white"><title>2020-03-09: 0</title></circle>
	<circle cx="42.39" cy="374.55" data-y="0.11" data-x="1583798400" r="1" fill="white"><title>2020-03-10: 0</title></circle>
	<circle cx="43.84" cy="374.32" data-y="0.16" data-x="1583884800" r="1" fill="white"><title>2020-03-11: 0</title></circle>
	<circle cx="45.29" cy="374.32" data-y="0.16" data-x="1583971200" r="1" fill="white"><title>2020-03-12: 0</title></circle>
	<circle cx="46.74" cy="374.32" data-y="0.16" data-x="1584057600" r="1" fill="white"><title>2020-03-13: 0</title></circle>
	<circle cx="48.19" cy="374.21" data-y="0.18" data-x="1584144000" r="1" fill="white"><title>2020-03-14: 0</title></circle>
	<circle cx="49.64" cy="373.98" data-y="0.24" data-x="1584230400" r="1" fill="white"><title>2020-03-15: 0</title></circle>
	<circle cx="51.09" cy="374.21" data-y="0.18" data-x="1584316800" r="1" fill="white"><title>2020-03-16: 0</title></circle>
	<circle cx="52.54" cy="373.98" data-y="0.24" data-x="1584403200" r="1" fill="white"><title>2020-03-17: 0</title></circle>
	<circle cx="53.99" cy="373.87" data-y="0.26" data-x="1584489600" r="1" fill="white"><title>2020-03-18: 0</title></circle>
	<circle cx="55.44" cy="373.53" data-y="0.34" data-x="1584576000" r="1" fill="white"><title>2020-03-19: 0</title></circle>
	<circle cx="56.89" cy="372.84" data-y="0.50" data-x="1584662400" r="1" fill="white"><title>2020-03-20: 1</title></circle>
	<circle cx="58.34" cy="372.16" data-y="0.66" data-x="1584748800" r="1" fill="white"><title>2020-03-21: 1</title></circle>
	<circle cx="59.79" cy="371.60" data-y="0.79" data-x="1584835200" r="1" fill="white"><title>2020-03-22: 1</title></circle>
	<circle cx="61.24" cy="370.46" data-y="1.06" data-x="1584921600" r="1" fill="white"><title>2020-03-23: 1</title></circle>
	<circle cx="62.69" cy="368.42" data-y="1.53" data-x="1585008000" r="1" fill="white"><title>2020-03-24: 2</title></circle>
	<circle cx="64.14" cy="367.17" data-y="1.82" data-x="1585094400" r="1" fill="white"><title>2020-03-25: 2</title></circle>
	<circle cx="65.59" cy="365.25" data-y="2.27" data-x="1585180800" r="1" fill="white"><title>2020-03-26: 2</title></circle>
	<circle cx="67.04" cy="363.32" data-y="2.72" data-x="1585267200" r="1" fill="white"><title>2020-03-27: 3</title></circle>
	<circle cx="68.49" cy="362.07" data-y="3.01" data-x="1585353600" r="1" fill="white"><title>2020-03-28: 3</title></circle>
	<circle cx="69.93" cy="360.48" data-y="3.38" data-x="1585440000" r="1" fill="white"><title>2020-03-29: 3</title></circle>
	<circle cx="71.38" cy="359.46" data-y="3.62" data-x="1585526400" r="1" fill="white"><title>2020-03-30: 4</title></circle>
	<circle cx="72.83" cy="359.01" data-y="3.72" data-x="1585612800" r="1" fill="white"><title>2020-03-31: 4</title></circle>
	<circle cx="74.28" cy="358.21" data-y="3.91" data-x="1585699200" r="1" fill="white"><title>2020-04-01: 4</title></circle>
	<circle cx="75.73" cy="357.42" data-y="4.09" data-x="1585785600" r="1" fill="white"><title>2020-04-02: 4</title></circle>
	<circle cx="77.18" cy="355.94" data-y="4.44" data-x="1585872000" r="1" fill="white"><title>2020-04-03: 4</title></circle>
	<circle cx="78.63" cy="354.58" data-y="4.75" data-x="1585958400" r="1" fill="white"><title>2020-04-04: 5</title></circle>
	<circle cx="80.08" cy="353.00" data-y="5.12" data-x="1586044800" r="1" fill="white"><title>2020-04-05: 5</title></circle>
	<circle cx="81.53" cy="351.75" data-y="5.41" data-x="1586131200" r="1" fill="white"><title>2020-04-06: 5</title></circle>
	<circle cx="82.98" cy="352.09" data-y="5.33" data-x="1586217600" r="1" fill="white"><title>2020-04-07: 5</title></circle>
	<circle cx="84.43" cy="352.32" data-y="5.28" data-x="1586304000" r="1" fill="white"><title>2020-04-08: 5</title></circle>
	<circle cx="85.88" cy="352.20" data-y="5.31" data-x="1586390400" r="1" fill="white"><title>2020-04-09: 5</title></circle>
	<circle cx="87.33" cy="354.13" data-y="4.86" data-x="1586476800" r="1" fill="white"><title>2020-04-10: 5</title></circle>
	<circle cx="88.78" cy="355.26" data-y="4.60" data-x="1586563200" r="1" fill="white"><title>2020-04-11: 5</title></circle>
	<circle cx="90.23" cy="353.45" data-y="5.02" data-x="1586649600" r="1" fill="white"><title>2020-04-12: 5</title></circle>
	<circle cx="91.68" cy="352.77" data-y="5.18" data-x="1586736000" r="1" fill="white"><title>2020-04-13: 5</title></circle>
	<circle cx="93.13" cy="350.84" data-y="5.63" data-x="1586822400" r="1" fill="white"><title>2020-04-14: 6</title></circle>
	<circle cx="94.58" cy="348.91" data-y="6.07" data-x="1586908800" r="1" fill="white"><title>2020-04-15: 6</title></circle>
	<circle cx="96.03" cy="348.12" data-y="6.26" data-x="1586995200" r="1" fill="white"><title>2020-04-16: 6</title></circle>
	<circle cx="97.48" cy="346.42" data-y="6.66" data-x="1587081600" r="1" fill="white"><title>2020-04-17: 7</title></circle>
	<circle cx="98.93" cy="344.94" data-y="7.00" data-x="1587168000" r="1" fill="white"><title>2020-04-18: 7</title></circle>
	<circle cx="100.37" cy="344.83" data-y="7.03" data-x="1587254400" r="1" fill="white"><title>2020-04-19: 7</title></circle>
	<circle cx="101.82" cy="343.47" data-y="7.34" data-x="1587340800" r="1" fill="white"><title>2020-04-20: 7</title></circle>
	<circle cx="103.27" cy="340.75" data-y="7.98" data-x="1587427200" r="1" fill="white"><title>2020-04-21: 8</title></circle>
	<circle cx="104.72" cy="339.38" data-y="8.29" data-x="1587513600" r="1" fill="white"><title>2020-04-22: 8</title></circle>
	<circle cx="106.17" cy="339.04" data-y="8.37" data-x="1587600000" r="1" fill="white"><title>2020-04-23: 8</title></circle>
	<circle cx="107.62" cy="338.36" data-y="8.53" data-x="1587686400" r="1" fill="white"><title>2020-04-24: 9</title></circle>
	<circle cx="109.07" cy="335.98" data-y="9.09" data-x="1587772800" r="1" fill="white"><title>2020-04-25: 9</title></circle>
	<circle cx="110.52" cy="332.13" data-y="9.98" data-x="1587859200" r="1" fill="white"><title>2020-04-26: 10</title></circle>
	<circle cx="111.97" cy="332.58" data-y="9.88" data-x="1587945600" r="1" fill="white"><title>2020-04-27: 10</title></circle>
	<circle cx="113.42" cy="330.20" data-y="10.43" data-x="1588032000" r="1" fill="white"><title>2020-04-28: 10</title></circle>
	<circle cx="114.87" cy="331.79" data-y="10.06" data-x="1588118400" r="1" fill="white"><title>2020-04-29: 10</title></circle>
	<circle cx="116.32" cy="331.56" data-y="10.12" data-x="1588204800" r="1" fill="white"><title>2020-04-30: 10</title></circle>
	<circle cx="117.77" cy="331.44" data-y="10.14" data-x="1588291200" r="1" fill="white"><title>2020-05-01: 10</title></circle>
	<circle cx="119.22" cy="333.26" data-y="9.72" data-x="1588377600" r="1" fill="white"><title>2020-05-02: 10</title></circle>
	<circle cx="120.67" cy="336.78" data-y="8.90" data-x="1588464000" r="1" fill="white"><title>2020-05-03: 9</title></circle>
	<circle cx="122.12" cy="335.30" data-y="9.24" data-x="1588550400" r="1" fill="white"><title>2020-05-04: 9</title></circle>
	<circle cx="123.57" cy="338.02" data-y="8.61" data-x="1588636800" r="1" fill="white"><title>2020-05-05: 9</title></circle>
	<circle cx="125.02" cy="337.34" data-y="8.77" data-x="1588723200" r="1" fill="white"><title>2020-05-06: 9</title></circle>
	<circle cx="126.47" cy="337.57" data-y="8.72" data-x="1588809600" r="1" fill="white"><title>2020-05-07: 9</title></circle>
	<circle cx="127.92" cy="334.51" data-y="9.43" data-x="1588896000" r="1" fill="white"><title>2020-05-08: 9</title></circle>
	<circle cx="129.36" cy="331.67" data-y="10.09" data-x="1588982400" r="1" fill="white"><title>2020-05-09: 10</title></circle>
	<circle cx="130.81" cy="328.61" data-y="10.80" data-x="1589068800" r="1" fill="white"><title>2020-05-10: 11</title></circle>
	<circle cx="132.26" cy="327.93" data-y="10.96" data-x="1589155200" r="1" fill="white"><title>2020-05-11: 11</title></circle>
	<circle cx="133.71" cy="329.63" data-y="10.56" data-x="1589241600" r="1" fill="white"><title>2020-05-12: 11</title></circle>
	<circle cx="135.16" cy="329.97" data-y="10.48" data-x="1589328000" r="1" fill="white"><title>2020-05-13: 10</title></circle>
	<circle cx="136.61" cy="331.67" data-y="10.09" data-x="1589414400" r="1" fill="white"><title>2020-05-14: 10</title></circle>
	<circle cx="138.06" cy="334.51" data-y="9.43" data-x="1589500800" r="1" fill="white"><title>2020-05-15: 9</title></circle>
	<circle cx="139.51" cy="329.29" data-y="10.64" data-x="1589587200" r="1" fill="white"><title>2020-05-16: 11</title></circle>
	<circle cx="140.96" cy="330.99" data-y="10.25" data-x="1589673600" r="1" fill="white"><title>2020-05-17: 10</title></circle>
	<circle cx="142.41" cy="330.76" data-y="10.30" data-x="1589760000" r="1" fill="white"><title>2020-05-18: 10</title></circle>
	<circle cx="143.86" cy="332.92" data-y="9.80" data-x="1589846400" r="1" fill="white"><title>2020-05-19: 10</title></circle>
	<circle cx="145.31" cy="332.81" data-y="9.82" data-x="1589932800" r="1" fill="white"><title>2020-05-20: 10</title></circle>
	<circle cx="146.76" cy="333.26" data-y="9.72" data-x="1590019200" r="1" fill="white"><title>2020-05-21: 10</title></circle>
	<circle cx="148.21" cy="334.73" data-y="9.38" data-x="1590105600" r="1" fill="white"><title>2020-05-22: 9</title></circle>
	<circle cx="149.66" cy="343.35" data-y="7.37" data-x="1590192000" r="1" fill="white"><title>2020-05-23: 7</title></circle>
	<circle cx="151.11" cy="345.62" data-y="6.84" data-x="1590278400" r="1" fill="white"><title>2020-05-24: 7</title></circle>
	<circle cx="152.56" cy="348.69" data-y="6.13" data-x="1590364800" r="1" fill="white"><title>2020-05-25: 6</title></circle>
	<circle cx="154.01" cy="346.98" data-y="6.52" data-x="1590451200" r="1" fill="white"><title>2020-05-26: 7</title></circle>
	<circle cx="155.46" cy="346.53" data-y="6.63" data-x="1590537600" r="1" fill="white"><title>2020-05-27: 7</title></circle>
	<circle cx="156.91" cy="344.26" data-y="7.16" data-x="1590624000" r="1" fill="white"><title>2020-05-28: 7</title></circle>
	<circle cx="158.36" cy="342.79" data-y="7.50" data-x="1590710400" r="1" fill="white"><title>2020-05-29: 8</title></circle>
	<circle cx="159.80" cy="342.56" data-y="7.55" data-x="1590796800" r="1" fill="white"><title>2020-05-30: 8</title></circle>
	<circle cx="161.25" cy="342.79" data-y="7.50" data-x="1590883200" r="1" fill="white"><title>2020-05-31: 8</title></circle>
	<circle cx="162.70" cy="342.22" data-y="7.63" data-x="1590969600" r="1" fill="white"><title>2020-06-01: 8</title></circle>
	<circle cx="164.15" cy="342.11" data-y="7.66" data-x="1591056000" r="1" fill="white"><title>2020-06-02: 8</title></circle>
	<circle cx="165.60" cy="343.24" data-y="7.39" data-x="1591142400" r="1" fill="white"><title>2020-06-03: 7</title></circle>
	<circle cx="167.05" cy="344.26" data-y="7.16" data-x="1591228800" r="1" fill="white"><title>2020-06-04: 7</title></circle>
	<circle cx="168.50" cy="342.67" data-y="7.53" data-x="1591315200" r="1" fill="white"><title>2020-06-05: 8</title></circle>
	<circle cx="169.95" cy="341.77" data-y="7.74" data-x="1591401600" r="1" fill="white"><title>2020-06-06: 8</title></circle>
	<circle cx="171.40" cy="338.93" data-y="8.40" data-x="1591488000" r="1" fill="white"><title>2020-06-07: 8</title></circle>
	<circle cx="172.85" cy="339.95" data-y="8.16" data-x="1591574400" r="1" fill="white"><title>2020-06-08: 8</title></circle>
	<circle cx="174.30" cy="335.76" data-y="9.14" data-x="1591660800" r="1" fill="white"><title>2020-06-09: 9</title></circle>
	<circle cx="175.75" cy="334.96" data-y="9.32" data-x="1591747200" r="1" fill="white"><title>2020-06-10: 9</title></circle>
	<circle cx="177.20" cy="332.24" data-y="9.96" data-x="1591833600" r="1" fill="white"><title>2020-06-11: 10</title></circle>
	<circle cx="178.65" cy="332.81" data-y="9.82" data-x="1591920000" r="1" fill="white"><title>2020-06-12: 10</title></circle>
	<circle cx="180.10" cy="332.13" data-y="9.98" data-x="1592006400" r="1" fill="white"><title>2020-06-13: 10</title></circle>
	<circle cx="181.55" cy="332.35" data-y="9.93" data-x="1592092800" r="1" fill="white"><title>2020-06-14: 10</title></circle>
	<circle cx="183.00" cy="326.68" data-y="11.25" data-x="1592179200" r="1" fill="white"><title>2020-06-15: 11</title></circle>
	<circle cx="184.45" cy="330.76" data-y="10.30" data-x="1592265600" r="1" fill="white"><title>2020-06-16: 10</title></circle>
	<circle cx="185.90" cy="330.42" data-y="10.38" data-x="1592352000" r="1" fill="white"><title>2020-06-17: 10</title></circle>
	<circle cx="187.35" cy="332.58" data-y="9.88" data-x="1592438400" r="1" fill="white"><title>2020-06-18: 10</title></circle>
	<circle cx="188.79" cy="335.30" data-y="9.24" data-x="1592524800" r="1" fill="white"><title>2020-06-19: 9</title></circle>
	<circle cx="190.24" cy="335.41" data-y="9.22" data-x="1592611200" r="1" fill="white"><title>2020-06-20: 9</title></circle>
	<circle cx="191.69" cy="338.59" data-y="8.48" data-x="1592697600" r="1" fill="white"><title>2020-06-21: 8</title></circle>
	<circle cx="193.14" cy="343.58" data-y="7.32" data-x="1592784000" r="1" fill="white"><title>2020-06-22: 7</title></circle>
	<circle cx="194.59" cy="343.58" data-y="7.32" data-x="1592870400" r="1" fill="white"><title>2020-06-23: 7</title></circle>
	<circle cx="196.04" cy="343.24" data-y="7.39" data-x="1592956800" r="1" fill="white"><title>2020-06-24: 7</title></circle>
	<circle cx="197.49" cy="345.06" data-y="6.97" data-x="1593043200" r="1" fill="white"><title>2020-06-25: 7</title></circle>
	<circle cx="198.94" cy="344.49" data-y="7.10" data-x="1593129600" r="1" fill="white"><title>2020-06-26: 7</title></circle>
	<circle cx="200.39" cy="348.00" data-y="6.29" data-x="1593216000" r="1" fill="white"><title>2020-06-27: 6</title></circle>
	<circle cx="201.84" cy="348.80" data-y="6.10" data-x="1593302400" r="1" fill="white"><title>2020-06-28: 6</title></circle>
	<circle cx="203.29" cy="350.50" data-y="5.70" data-x="1593388800" r="1" fill="white"><title>2020-06-29: 6</title></circle>
	<circle cx="204.74" cy="352.09" data-y="5.33" data-x="1593475200" r="1" fill="white"><title>2020-06-30: 5</title></circle>
	<circle cx="206.19" cy="354.81" data-y="4.70" data-x="1593561600" r="1" fill="white"><title>2020-07-01: 5</title></circle>
	<circle cx="207.64" cy="354.47" data-y="4.78" data-x="1593648000" r="1" fill="white"><title>2020-07-02: 5</title></circle>
	<circle cx="209.09" cy="352.88" data-y="5.15" data-x="1593734400" r="1" fill="white"><title>2020-07-03: 5</title></circle>
	<circle cx="210.54" cy="352.77" data-y="5.18" data-x="1593820800" r="1" fill="white"><title>2020-07-04: 5</title></circle>
	<circle cx="211.99" cy="352.66" data-y="5.20" data-x="1593907200" r="1" fill="white"><title>2020-07-05: 5</title></circle>
	<circle cx="213.44" cy="353.45" data-y="5.02" data-x="1593993600" r="1" fill="white"><title>2020-07-06: 5</title></circle>
	<circle cx="214.89" cy="354.13" data-y="4.86" data-x="1594080000" r="1" fill="white"><title>2020-07-07: 5</title></circle>
	<circle cx="216.34" cy="353.00" data-y="5.12" data-x="1594166400" r="1" fill="white"><title>2020-07-08: 5</title></circle>
	<circle cx="217.79" cy="351.63" data-y="5.44" data-x="1594252800" r="1" fill="white"><title>2020-07-09: 5</title></circle>
	<circle cx="219.23" cy="352.77" data-y="5.18" data-x="1594339200" r="1" fill="white"><title>2020-07-10: 5</title></circle>
	<circle cx="220.68" cy="350.95" data-y="5.60" data-x="1594425600" r="1" fill="white"><title>2020-07-11: 6</title></circle>
	<circle cx="222.13" cy="350.73" data-y="5.65" data-x="1594512000" r="1" fill="white"><title>2020-07-12: 6</title></circle>
	<circle cx="223.58" cy="350.61" data-y="5.68" data-x="1594598400" r="1" fill="white"><title>2020-07-13: 6</title></circle>
	<circle cx="225.03" cy="349.14" data-y="6.02" data-x="1594684800" r="1" fill="white"><title>2020-07-14: 6</title></circle>
	<circle cx="226.48" cy="349.03" data-y="6.05" data-x="1594771200" r="1" fill="white"><title>2020-07-15: 6</title></circle>
	<circle cx="227.93" cy="348.69" data-y="6.13" data-x="1594857600" r="1" fill="white"><title>2020-07-16: 6</title></circle>
	<circle cx="229.38" cy="347.66" data-y="6.36" data-x="1594944000" r="1" fill="white"><title>2020-07-17: 6</title></circle>
	<circle cx="230.83" cy="346.98" data-y="6.52" data-x="1595030400" r="1" fill="white"><title>2020-07-18: 7</title></circle>
	<circle cx="232.28" cy="348.57" data-y="6.15" data-x="1595116800" r="1" fill="white"><title>2020-07-19: 6</title></circle>
	<circle cx="233.73" cy="345.96" data-y="6.76" data-x="1595203200" r="1" fill="white"><title>2020-07-20: 7</title></circle>
	<circle cx="235.18" cy="345.51" data-y="6.87" data-x="1595289600" r="1" fill="white"><title>2020-07-21: 7</title></circle>
	<circle cx="236.63" cy="345.17" data-y="6.95" data-x="1595376000" r="1" fill="white"><title>2020-07-22: 7</title></circle>
	<circle cx="238.08" cy="345.28" data-y="6.92" data-x="1595462400" r="1" fill="white"><title>2020-07-23: 7</title></circle>
	<circle cx="239.53" cy="345.40" data-y="6.89" data-x="1595548800" r="1" fill="white"><title>2020-07-24: 7</title></circle>
	<circle cx="240.98" cy="346.19" data-y="6.71" data-x="1595635200" r="1" fill="white"><title>2020-07-25: 7</title></circle>
	<circle cx="242.43" cy="342.11" data-y="7.66" data-x="1595721600" r="1" fill="white"><title>2020-07-26: 8</title></circle>
	<circle cx="243.88" cy="341.43" data-y="7.82" data-x="1595808000" r="1" fill="white"><title>2020-07-27: 8</title></circle>
	<circle cx="245.33" cy="342.11" data-y="7.66" data-x="1595894400" r="1" fill="white"><title>2020-07-28: 8</title></circle>
	<circle cx="246.78" cy="342.56" data-y="7.55" data-x="1595980800" r="1" fill="white"><title>2020-07-29: 8</title></circle>
	<circle cx="248.22" cy="342.67" data-y="7.53" data-x="1596067200" r="1" fill="white"><title>2020-07-30: 8</title></circle>
	<circle cx="249.67" cy="343.35" data-y="7.37" data-x="1596153600" r="1" fill="white"><title>2020-07-31: 7</title></circle>
	<circle cx="251.12" cy="340.86" data-y="7.95" data-x="1596240000" r="1" fill="white"><title>2020-08-01: 8</title></circle>
	<circle cx="252.57" cy="341.65" data-y="7.76" data-x="1596326400" r="1" fill="white"><title>2020-08-02: 8</title></circle>
	<circle cx="254.02" cy="340.29" data-y="8.08" data-x="1596412800" r="1" fill="white"><title>2020-08-03: 8</title></circle>
	<circle cx="255.47" cy="340.18" data-y="8.11" data-x="1596499200" r="1" fill="white"><title>2020-08-04: 8</title></circle>
	<circle cx="256.92" cy="340.07" data-y="8.13" data-x="1596585600" r="1" fill="white"><title>2020-08-05: 8</title></circle>
	<circle cx="258.37" cy="341.43" data-y="7.82" data-x="1596672000" r="1" fill="white"><title>2020-08-06: 8</title></circle>
	<circle cx="259.82" cy="339.04" data-y="8.37" data-x="1596758400" r="1" fill="white"><title>2020-08-07: 8</title></circle>
	<circle cx="261.27" cy="338.93" data-y="8.40" data-x="1596844800" r="1" fill="white"><title>2020-08-08: 8</title></circle>
	<circle cx="262.72" cy="339.61" data-y="8.24" data-x="1596931200" r="1" fill="white"><title>2020-08-09: 8</title></circle>
	<circle cx="264.17" cy="341.31" data-y="7.84" data-x="1597017600" r="1" fill="white"><title>2020-08-10: 8</title></circle>
	<circle cx="265.62" cy="340.41" data-y="8.06" data-x="1597104000" r="1" fill="white"><title>2020-08-11: 8</title></circle>
	<circle cx="267.07" cy="340.18" data-y="8.11" data-x="1597190400" r="1" fill="white"><title>2020-08-12: 8</title></circle>
	<circle cx="268.52" cy="339.50" data-y="8.27" data-x="1597276800" r="1" fill="white"><title>2020-08-13: 8</title></circle>
	<circle cx="269.97" cy="342.56" data-y="7.55" data-x="1597363200" r="1" fill="white"><title>2020-08-14: 8</title></circle>
	<circle cx="271.42" cy="346.19" data-y="6.71" data-x="1597449600" r="1" fill="white"><title>2020-08-15: 7</title></circle>
	<circle cx="272.87" cy="348.35" data-y="6.21" data-x="1597536000" r="1" fill="white"><title>2020-08-16: 6</title></circle>
	<circle cx="274.32" cy="347.66" data-y="6.36" data-x="1597622400" r="1" fill="white"><title>2020-08-17: 6</title></circle>
	<circle cx="275.77" cy="347.89" data-y="6.31" data-x="1597708800" r="1" fill="white"><title>2020-08-18: 6</title></circle>
	<circle cx="277.21" cy="348.46" data-y="6.18" data-x="1597795200" r="1" fill="white"><title>2020-08-19: 6</title></circle>
	<circle cx="278.66" cy="349.03" data-y="6.05" data-x="1597881600" r="1" fill="white"><title>2020-08-20: 6</title></circle>
	<circle cx="280.11" cy="348.91" data-y="6.07" data-x="1597968000" r="1" fill="white"><title>2020-08-21: 6</title></circle>
	<circle cx="281.56" cy="348.12" data-y="6.26" data-x="1598054400" r="1" fill="white"><title>2020-08-22: 6</title></circle>
	<circle cx="283.01" cy="347.78" data-y="6.34" data-x="1598140800" r="1" fill="white"><title>2020-08-23: 6</title></circle>
	<circle cx="284.46" cy="347.32" data-y="6.44" data-x="1598227200" r="1" fill="white"><title>2020-08-24: 6</title></circle>
	<circle cx="285.91" cy="346.19" data-y="6.71" data-x="1598313600" r="1" fill="white"><title>2020-08-25: 7</title></circle>
	<circle cx="287.36" cy="344.38" data-y="7.13" data-x="1598400000" r="1" fill="white"><title>2020-08-26: 7</title></circle>
	<circle cx="288.81" cy="341.99" data-y="7.69" data-x="1598486400" r="1" fill="white"><title>2020-08-27: 8</title></circle>
	<circle cx="290.26" cy="338.59" data-y="8.48" data-x="1598572800" r="1" fill="white"><title>2020-08-28: 8</title></circle>
	<circle cx="291.71" cy="334.96" data-y="9.32" data-x="1598659200" r="1" fill="white"><title>2020-08-29: 9</title></circle>
	<circle cx="293.16" cy="329.97" data-y="10.48" data-x="1598745600" r="1" fill="white"><title>2020-08-30: 10</title></circle>
	<circle cx="294.61" cy="329.40" data-y="10.62" data-x="1598832000" r="1" fill="white"><title>2020-08-31: 11</title></circle>
	<circle cx="296.06" cy="328.38" data-y="10.85" data-x="1598918400" r="1" fill="white"><title>2020-09-01: 11</title></circle>
	<circle cx="297.51" cy="326.11" data-y="11.38" data-x="1599004800" r="1" fill="white"><title>2020-09-02: 11</title></circle>
	<circle cx="298.96" cy="323.39" data-y="12.02" data-x="1599091200" r="1" fill="white"><title>2020-09-03: 12</title></circle>
	<circle cx="300.41" cy="318.29" data-y="13.21" data-x="1599177600" r="1" fill="white"><title>2020-09-04: 13</title></circle>
	<circle cx="301.86" cy="319.88" data-y="12.84" data-x="1599264000" r="1" fill="white"><title>2020-09-05: 13</title></circle>
	<circle cx="303.31" cy="319.65" data-y="12.89" data-x="1599350400" r="1" fill="white"><title>2020-09-06: 13</title></circle>
	<circle cx="304.76" cy="315.45" data-y="13.87" data-x="1599436800" r="1" fill="white"><title>2020-09-07: 14</title></circle>
	<circle cx="306.21" cy="313.07" data-y="14.42" data-x="1599523200" r="1" fill="white"><title>2020-09-08: 14</title></circle>
	<circle cx="307.65" cy="312.96" data-y="14.45" data-x="1599609600" r="1" fill="white"><title>2020-09-09: 14</title></circle>
	<circle cx="309.10" cy="315.00" data-y="13.97" data-x="1599696000" r="1" fill="white"><title>2020-09-10: 14</title></circle>
	<circle cx="310.55" cy="317.49" data-y="13.39" data-x="1599782400" r="1" fill="white"><title>2020-09-11: 13</title></circle>
	<circle cx="312.00" cy="312.73" data-y="14.50" data-x="1599868800" r="1" fill="white"><title>2020-09-12: 14</title></circle>
	<circle cx="313.45" cy="308.19" data-y="15.56" data-x="1599955200" r="1" fill="white"><title>2020-09-13: 16</title></circle>
	<circle cx="314.90" cy="303.88" data-y="16.56" data-x="1600041600" r="1" fill="white"><title>2020-09-14: 17</title></circle>
	<circle cx="316.35" cy="298.78" data-y="17.75" data-x="1600128000" r="1" fill="white"><title>2020-09-15: 18</title></circle>
	<circle cx="317.80" cy="294.70" data-y="18.70" data-x="1600214400" r="1" fill="white"><title>2020-09-16: 19</title></circle>
	<circle cx="319.25" cy="285.62" data-y="20.81" data-x="1600300800" r="1" fill="white"><title>2020-09-17: 21</title></circle>
	<circle cx="320.70" cy="282.22" data-y="21.60" data-x="1600387200" r="1" fill="white"><title>2020-09-18: 22</title></circle>
	<circle cx="322.15" cy="277.57" data-y="22.69" data-x="1600473600" r="1" fill="white"><title>2020-09-19: 23</title></circle>
	<circle cx="323.60" cy="275.75" data-y="23.11" data-x="1600560000" r="1" fill="white"><title>2020-09-20: 23</title></circle>
	<circle cx="325.05" cy="270.76" data-y="24.27" data-x="1600646400" r="1" fill="white"><title>2020-09-21: 24</title></circle>
	<circle cx="326.50" cy="269.40" data-y="24.59" data-x="1600732800" r="1" fill="white"><title>2020-09-22: 25</title></circle>
	<circle cx="327.95" cy="268.38" data-y="24.83" data-x="1600819200" r="1" fill="white"><title>2020-09-23: 25</title></circle>
	<circle cx="329.40" cy="265.66" data-y="25.46" data-x="1600905600" r="1" fill="white"><title>2020-09-24: 25</title></circle>
	<circle cx="330.85" cy="251.93" data-y="28.66" data-x="1600992000" r="1" fill="white"><title>2020-09-25: 29</title></circle>
	<circle cx="332.30" cy="243.88" data-y="30.53" data-x="1601078400" r="1" fill="white"><title>2020-09-26: 31</title></circle>
	<circle cx="333.75" cy="234.24" data-y="32.78" data-x="1601164800" r="1" fill="white"><title>2020-09-27: 33</title></circle>
	<circle cx="335.20" cy="227.66" data-y="34.31" data-x="1601251200" r="1" fill="white"><title>2020-09-28: 34</title></circle>
	<circle cx="336.64" cy="217.68" data-y="36.63" data-x="1601337600" r="1" fill="white"><title>2020-09-29: 37</title></circle>
	<circle cx="338.09" cy="207.02" data-y="39.11" data-x="1601424000" r="1" fill="white"><title>2020-09-30: 39</title></circle>
	<circle cx="339.54" cy="204.75" data-y="39.64" data-x="1601510400" r="1" fill="white"><title>2020-10-01: 40</title></circle>
	<circle cx="340.99" cy="204.52" data-y="39.70" data-x="1601596800" r="1" fill="white"><title>2020-10-02: 40</title></circle>
	<circle cx="342.44" cy="195.11" data-y="41.89" data-x="1601683200" r="1" fill="white"><title>2020-10-03: 42</title></circle>
	<circle cx="343.89" cy="191.14" data-y="42.81" data-x="1601769600" r="1" fill="white"><title>2020-10-04: 43</title></circle>
	<circle cx="345.34" cy="182.97" data-y="44.71" data-x="1601856000" r="1" fill="white"><title>2020-10-05: 45</title></circle>
	<circle cx="346.79" cy="181.61" data-y="45.03" data-x="1601942400" r="1" fill="white"><title>2020-10-06: 45</title></circle>
	<circle cx="348.24" cy="177.53" data-y="45.98" data-x="1602028800" r="1" fill="white"><title>2020-10-07: 46</title></circle>
	<circle cx="349.69" cy="174.47" data-y="46.69" data-x="1602115200" r="1" fill="white"><title>2020-10-08: 47</title></circle>
	<circle cx="351.14" cy="165.62" data-y="48.75" data-x="1602201600" r="1" fill="white"><title>2020-10-09: 49</title></circle>
	<circle cx="352.59" cy="162.90" data-y="49.39" data-x="1602288000" r="1" fill="white"><title>2020-10-10: 49</title></circle>
	<circle cx="354.04" cy="155.98" data-y="51.00" data-x="1602374400" r="1" fill="white"><title>2020-10-11: 51</title></circle>
	<circle cx="355.49" cy="155.41" data-y="51.13" data-x="1602460800" r="1" fill="white"><title>2020-10-12: 51</title></circle>
	<circle cx="356.94" cy="148.49" data-y="52.74" data-x="1602547200" r="1" fill="white"><title>2020-10-13: 53</title></circle>
	<circle cx="358.39" cy="140.67" data-y="54.56" data-x="1602633600" r="1" fill="white"><title>2020-10-14: 55</title></circle>
	<circle cx="359.84" cy="134.54" data-y="55.99" data-x="1602720000" r="1" fill="white"><title>2020-10-15: 56</title></circle>
	<circle cx="361.29" cy="117.19" data-y="60.03" data-x="1602806400" r="1" fill="white"><title>2020-10-16: 60</title></circle>
	<circle cx="362.74" cy="100.40" data-y="63.94" data-x="1602892800" r="1" fill="white"><title>2020-10-17: 64</title></circle>
	<circle cx="364.19" cy="96.09" data-y="64.94" data-x="1602979200" r="1" fill="white"><title>2020-10-18: 65</title></circle>
	<circle cx="365.64" cy="79.98" data-y="68.69" data-x="1603065600" r="1" fill="white"><title>2020-10-19: 69</title></circle>
	<circle cx="367.08" cy="68.30" data-y="71.41" data-x="1603152000" r="1" fill="white"><title>2020-10-20: 71</title></circle>
	<circle cx="368.53" cy="73.63" data-y="70.17" data-x="1603238400" r="1" fill="white"><title>2020-10-21: 70</title></circle>
	<circle cx="369.98" cy="68.75" data-y="71.31" data-x="1603324800" r="1" fill="white"><title>2020-10-22: 71</title></circle>
	<circle cx="371.43" cy="72.84" data-y="70.36" data-x="1603411200" r="1" fill="white"><title>2020-10-23: 70</title></circle>
	<circle cx="372.88" cy="69.66" data-y="71.10" data-x="1603497600" r="1" fill="white"><title>2020-10-24: 71</title></circle>
	<circle cx="374.33" cy="60.47" data-y="73.24" data-x="1603584000" r="1" fill="white"><title>2020-10-25: 73</title></circle>
	<circle cx="375.78" cy="58.77" data-y="73.63" data-x="1603670400" r="1" fill="white"><title>2020-10-26: 74</title></circle>
	<circle cx="377.23" cy="55.60" data-y="74.37" data-x="1603756800" r="1" fill="white"><title>2020-10-27: 74</title></circle>
	<circle cx="378.68" cy="49.02" data-y="75.90" data-x="1603843200" r="1" fill="white"><title>2020-10-28: 76</title></circle>
	<circle cx="380.13" cy="39.60" data-y="78.10" data-x="1603929600" r="1" fill="white"><title>2020-10-29: 78</title></circle>
	<circle cx="381.58" cy="20.55" data-y="82.53" data-x="1604016000" r="1" fill="white"><title>2020-10-30: 83</title></circle>
	<circle cx="383.03" cy="16.81" data-y="83.40" data-x="1604102400" r="1" fill="white"><title>2020-10-31: 83</title></circle>
	<circle cx="384.48" cy="19.87" data-y="82.69" data-x="1604188800" r="1" fill="white"><title>2020-11-01: 83</title></circle>
	<circle cx="385.93" cy="21.12" data-y="82.40" data-x="1604275200" r="1" fill="white"><title>2020-11-02: 82</title></circle>
	<circle cx="387.38" cy="14.99" data-y="83.83" data-x="1604361600" r="1" fill="white"><title>2020-11-03: 84</title></circle>
	<circle cx="388.83" cy="10.00" data-y="84.99" data-x="1604448000" r="1" fill="white"><title>2020-11-04: 85</title></circle>
	<circle cx="390.28" cy="13.63" data-y="84.14" data-x="1604534400" r="1" fill="white"><title>2020-11-05: 84</title></circle>
	<circle cx="391.73" cy="28.83" data-y="80.61" data-x="1604620800" r="1" fill="white"><title>2020-11-06: 81</title></circle>
	<circle cx="393.18" cy="40.40" data-y="77.91" data-x="1604707200" r="1" fill="white"><title>2020-11-07: 78</title></circle>
	<circle cx="394.63" cy="36.54" data-y="78.81" data-x="1604793600" r="1" fill="white"><title>2020-11-08: 79</title></circle>
	<circle cx="396.07" cy="40.06" data-y="77.99" data-x="1604880000" r="1" fill="white"><title>2020-11-09: 78</title></circle>
	<circle cx="397.52" cy="48.34" data-y="76.06" data-x="1604966400" r="1" fill="white"><title>2020-11-10: 76</title></circle>
	<circle cx="398.97" cy="57.52" data-y="73.92" data-x="1605052800" r="1" fill="white"><title>2020-11-11: 74</title></circle>
	<circle cx="400.42" cy="68.53" data-y="71.36" data-x="1605139200" r="1" fill="white"><title>2020-11-12: 71</title></circle>
	<circle cx="401.87" cy="73.40" data-y="70.23" data-x="1605225600" r="1" fill="white"><title>2020-11-13: 70</title></circle>
	<circle cx="403.32" cy="76.35" data-y="69.54" data-x="1605312000" r="1" fill="white"><title>2020-11-14: 70</title></circle>
	<circle cx="404.77" cy="87.58" data-y="66.92" data-x="1605398400" r="1" fill="white"><title>2020-11-15: 67</title></circle>
	<circle cx="406.22" cy="104.94" data-y="62.88" data-x="1605484800" r="1" fill="white"><title>2020-11-16: 63</title></circle>
	<circle cx="407.67" cy="125.01" data-y="58.21" data-x="1605571200" r="1" fill="white"><title>2020-11-17: 58</title></circle>
	<circle cx="409.12" cy="141.69" data-y="54.33" data-x="1605657600" r="1" fill="white"><title>2020-11-18: 54</title></circle>
	<circle cx="410.57" cy="151.55" data-y="52.03" data-x="1605744000" r="1" fill="white"><title>2020-11-19: 52</title></circle>
	<circle cx="412.02" cy="171.40" data-y="47.41" data-x="1605830400" r="1" fill="white"><title>2020-11-20: 47</title></circle>
	<circle cx="413.47" cy="191.37" data-y="42.76" data-x="1605916800" r="1" fill="white"><title>2020-11-21: 43</title></circle>
	<circle cx="414.92" cy="206.79" data-y="39.17" data-x="1606003200" r="1" fill="white"><title>2020-11-22: 39</title></circle>
	<circle cx="416.37" cy="217.11" data-y="36.76" data-x="1606089600" r="1" fill="white"><title>2020-11-23: 37</title></circle>
	<circle cx="417.82" cy="225.05" data-y="34.91" data-x="1606176000" r="1" fill="white"><title>2020-11-24: 35</title></circle>
	<circle cx="419.27" cy="225.85" data-y="34.73" data-x="1606262400" r="1" fill="white"><title>2020-11-25: 35</title></circle>
	<circle cx="420.72" cy="227.09" data-y="34.44" data-x="1606348800" r="1" fill="white"><title>2020-11-26: 34</title></circle>
	<circle cx="422.17" cy="235.37" data-y="32.51" data-x="1606435200" r="1" fill="white"><title>2020-11-27: 33</title></circle>
	<circle cx="423.62" cy="243.09" data-y="30.72" data-x="1606521600" r="1" fill="white"><title>2020-11-28: 31</title></circle>
	<circle cx="425.07" cy="246.15" data-y="30.00" data-x="1606608000" r="1" fill="white"><title>2020-11-29: 30</title></circle>
	<circle cx="426.51" cy="250.12" data-y="29.08" data-x="1606694400" r="1" fill="white"><title>2020-11-30: 29</title></circle>
	<circle cx="427.96" cy="253.07" data-y="28.39" data-x="1606780800" r="1" fill="white"><title>2020-12-01: 28</title></circle>
	<circle cx="429.41" cy="257.04" data-y="27.47" data-x="1606867200" r="1" fill="white"><title>2020-12-02: 27</title></circle>
	<circle cx="430.86" cy="263.84" data-y="25.88" data-x="1606953600" r="1" fill="white"><title>2020-12-03: 26</title></circle>
	<circle cx="432.31" cy="266.57" data-y="25.25" data-x="1607040000" r="1" fill="white"><title>2020-12-04: 25</title></circle>
	<circle cx="433.76" cy="266.11" data-y="25.35" data-x="1607126400" r="1" fill="white"><title>2020-12-05: 25</title></circle>
	<circle cx="435.21" cy="270.99" data-y="24.22" data-x="1607212800" r="1" fill="white"><title>2020-12-06: 24</title></circle>
	<circle cx="436.66" cy="268.49" data-y="24.80" data-x="1607299200" r="1" fill="white"><title>2020-12-07: 25</title></circle>
	<circle cx="438.11" cy="267.25" data-y="25.09" data-x="1607385600" r="1" fill="white"><title>2020-12-08: 25</title></circle>
	<circle cx="439.56" cy="266.68" data-y="25.22" data-x="1607472000" r="1" fill="white"><title>2020-12-09: 25</title></circle>
	<circle cx="441.01" cy="265.09" data-y="25.59" data-x="1607558400" r="1" fill="white"><title>2020-12-10: 26</title></circle>
	<circle cx="442.46" cy="263.96" data-y="25.86" data-x="1607644800" r="1" fill="white"><title>2020-12-11: 26</title></circle>
	<circle cx="443.91" cy="269.17" data-y="24.64" data-x="1607731200" r="1" fill="white"><title>2020-12-12: 25</title></circle>
	<circle cx="445.36" cy="270.08" data-y="24.43" data-x="1607817600" r="1" fill="white"><title>2020-12-13: 24</title></circle>
	<circle cx="446.81" cy="274.73" data-y="23.35" data-x="1607904000" r="1" fill="white"><title>2020-12-14: 23</title></circle>
	<circle cx="448.26" cy="273.83" data-y="23.56" data-x="1607990400" r="1" fill="white"><title>2020-12-15: 24</title></circle>
	<circle cx="449.71" cy="274.51" data-y="23.40" data-x="1608076800" r="1" fill="white"><title>2020-12-16: 23</title></circle>
	<circle cx="451.16" cy="275.98" data-y="23.06" data-x="1608163200" r="1" fill="white"><title>2020-12-17: 23</title></circle>
	<circle cx="452.61" cy="273.49" data-y="23.64" data-x="1608249600" r="1" fill="white"><title>2020-12-18: 24</title></circle>
	<circle cx="454.06" cy="265.66" data-y="25.46" data-x="1608336000" r="1" fill="white"><title>2020-12-19: 25</title></circle>
	<circle cx="455.50" cy="257.83" data-y="27.28" data-x="1608422400" r="1" fill="white"><title>2020-12-20: 27</title></circle>
	<circle cx="456.95" cy="260.10" data-y="26.75" data-x="1608508800" r="1" fill="white"><title>2020-12-21: 27</title></circle>
	<circle cx="458.40" cy="271.33" data-y="24.14" data-x="1608595200" r="1" fill="white"><title>2020-12-22: 24</title></circle>
	<circle cx="459.85" cy="267.47" data-y="25.04" data-x="1608681600" r="1" fill="white"><title>2020-12-23: 25</title></circle>
	<circle cx="461.30" cy="261.01" data-y="26.54" data-x="1608768000" r="1" fill="white"><title>2020-12-24: 27</title></circle>
	<circle cx="462.75" cy="265.55" data-y="25.49" data-x="1608854400" r="1" fill="white"><title>2020-12-25: 25</title></circle>
</g>
<g data-series="recent-cases" class="data-series">
	<path d="M 462.75,265.55L 464.20,257.95L 465.65,277.91L 467.10,276.42L 468.55,265.75L 470.00,263.84" id="Recent cases" class="line" stroke-width="1" stroke-linecap="round" stroke-dasharray="4,6" stroke-dashoffset="4"><title>Recent cases</title></path>
	<circle cx="462.75" cy="265.55" data-y="25.49" data-x="1608854400" r="2.5" fill="white"><title>2020-12-25: 25</title></circle>
	<circle cx="464.20" cy="257.95" data-y="27.26" data-x="1608940800" r="2.5" fill="white"><title>2020-12-26: 27</title></circle>
	<circle cx="465.65" cy="277.91" data-y="22.61" data-x="1609027200" r="2.5" fill="white"><title>2020-12-27: 23</title></circle>
	<circle cx="467.10" cy="276.42" data-y="22.96" data-x="1609113600" r="2.5" fill="white"><title>2020-12-28: 23</title></circle>
	<circle cx="468.55" cy="265.75" data-y="25.44" data-x="1609200000" r="2.5" fill="white"><title>2020-12-29: 25</title></circle>
	<circle cx="470.00" cy="263.84" data-y="25.88" data-x="1609286400" r="2.5" fill="white"><title>2020-12-30: 26</title></circle>
</g>
</svg>
