<svg width="480" height="400" viewBox="0 0 480 400" xmlns="http://www.w3.org/2000/svg" style="overflow:display" preserveAspectRatio="xMinYMin meet" overflow="visible">
<defs>
	<style>
	.data-series path.line { fill-opacity: 0; stroke: black; }
	.data-series path.line.dotted { stroke-dasharray: 12 20 }
	.data-series:hover path.line, .data-series.on path.line { stroke-width: 1; }
	.data-series:hover circle, .data-series.on circle { display: inline; }
	.graph-grid { font-family: "Helvetica Neue",Helvetica,Arial,"Lucida Grande",sans-serif; }
	.graph-grid line { stroke: black; stroke-width: 1; stroke-linecap: round; }
	.graph-grid.graph-grid-x text { text-anchor: middle; dominant-baseline: hanging; transform: translateY(10px); }
	.graph-grid.graph-grid-y text { text-anchor: end; dominant-baseline: middle; transform: translateX(-10px); }
	</style>
</defs>
<g class="graph-grid graph-grid-y">
	<line x1="25.00" y1="375.00" x2="470.00" y2="375.00" data-left="25"></line>
	<text x="35" y="375" text-anchor="end">0</text>
	<text x="35" y="244.366993243243" text-anchor="end">50</text>
	<text x="35" y="113.733986486486" text-anchor="end">100</text>
	<text style="text-anchor:middle;dominant-baseline:hanging;font-weight:bold;transform: translateY(192.5px) rotate(-90deg);"></text>
</g>
<g class="graph-grid graph-grid-x">
	<line class="tick" x1="71.52" y1="375.00" x2="71.52" y2="380.00"></line>
	<text x="71.5156794425087" y="375" text-anchor="middle">A</text>
	<line class="tick" x1="118.03" y1="375.00" x2="118.03" y2="380.00"></line>
	<text x="118.031358885017" y="375" text-anchor="middle">M</text>
	<line class="tick" x1="166.10" y1="375.00" x2="166.10" y2="380.00"></line>
	<text x="166.09756097561" y="375" text-anchor="middle">J</text>
	<line class="tick" x1="212.61" y1="375.00" x2="212.61" y2="380.00"></line>
	<text x="212.613240418118" y="375" text-anchor="middle">J</text>
	<line class="tick" x1="260.68" y1="375.00" x2="260.68" y2="380.00"></line>
	<text x="260.679442508711" y="375" text-anchor="middle">A</text>
	<line class="tick" x1="308.75" y1="375.00" x2="308.75" y2="380.00"></line>
	<text x="308.745644599303" y="375" text-anchor="middle">S</text>
	<line class="tick" x1="355.26" y1="375.00" x2="355.26" y2="380.00"></line>
	<text x="355.261324041812" y="375" text-anchor="middle">O</text>
	<line class="tick" x1="403.33" y1="375.00" x2="403.33" y2="380.00"></line>
	<text x="403.327526132404" y="375" text-anchor="middle">N</text>
	<line class="tick" x1="449.84" y1="375.00" x2="449.84" y2="380.00"></line>
	<text x="449.843205574913" y="375" text-anchor="middle">D</text>
	<text style="text-anchor:middle;dominant-baseline:hanging;font-weight:bold;transform: translateY(192.5px) rotate(-90deg);"></text>
</g>
<g data-series="widespread" class="data-series">
	<path d="M 25.00,356.71L 470.00,356.71" id="E08000021-level-0" class="line" stroke-width="1" stroke-linecap="round" stroke-dasharray="3,3" fill-opacity="0.3" opacity="0.3"><title>Widespread</title></path>
</g>
<g data-series="substantial" class="data-series">
	<path d="M 25.00,364.55L 470.00,364.55" id="E08000021-level-1" class="line" stroke-width="1" stroke-linecap="round" stroke-dasharray="3,3" fill-opacity="0.3" opacity="0.3"><title>Substantial</title></path>
</g>
<g data-series="moderate" class="data-series">
	<path d="M 25.00,372.39L 470.00,372.39" id="E08000021-level-2" class="line" stroke-width="1" stroke-linecap="round" stroke-dasharray="3,3" fill-opacity="0.3" opacity="0.3"><title>Moderate</title></path>
</g>
<g data-series="new-cases" class="data-series">
	<path d="M 25.00,374.35L 26.55,374.48L 28.10,374.42L 29.65,374.51L 31.20,374.63L 32.75,374.51L 34.30,374.63L 35.85,374.75L 37.40,374.51L 38.95,374.38L 40.51,373.89L 42.06,373.89L 43.61,373.27L 45.16,372.90L 46.71,372.29L 48.26,371.55L 49.81,370.68L 51.36,370.56L 52.91,368.46L 54.46,366.74L 56.01,364.77L 57.56,363.04L 59.11,361.56L 60.66,361.19L 62.21,358.11L 63.76,357.86L 65.31,356.13L 66.86,353.42L 68.41,351.94L 69.97,350.46L 71.52,349.10L 73.07,349.84L 74.62,347.38L 76.17,346.64L 77.72,347.99L 79.27,346.76L 80.82,347.13L 82.37,347.50L 83.92,348.36L 85.47,350.71L 87.02,351.82L 88.57,352.31L 90.12,353.42L 91.67,353.42L 93.22,351.45L 94.77,350.09L 96.32,349.10L 97.87,350.46L 99.43,349.35L 100.98,350.34L 102.53,349.97L 104.08,352.68L 105.63,354.28L 107.18,355.76L 108.73,354.16L 110.28,355.89L 111.83,353.79L 113.38,355.52L 114.93,354.65L 116.48,355.15L 118.03,355.27L 119.58,356.50L 121.13,356.63L 122.68,358.72L 124.23,359.71L 125.78,361.68L 127.33,361.81L 128.89,362.55L 130.44,363.04L 131.99,364.03L 133.54,365.63L 135.09,365.63L 136.64,365.01L 138.19,365.38L 139.74,365.75L 141.29,367.35L 142.84,367.60L 144.39,368.09L 145.94,368.46L 147.49,369.20L 149.04,369.57L 150.59,370.07L 152.14,367.60L 153.69,366.86L 155.24,366.86L 156.79,366.49L 158.34,366.24L 159.90,366.12L 161.45,365.88L 163.00,368.83L 164.55,370.19L 166.10,370.56L 167.65,370.68L 169.20,371.42L 170.75,372.04L 172.30,371.92L 173.85,371.55L 175.40,371.79L 176.95,372.16L 178.50,373.27L 180.05,373.03L 181.60,371.79L 183.15,371.92L 184.70,371.79L 186.25,371.79L 187.80,371.67L 189.36,371.55L 190.91,371.79L 192.46,373.03L 194.01,373.27L 195.56,373.52L 197.11,373.64L 198.66,373.64L 200.21,373.77L 201.76,373.64L 203.31,373.64L 204.86,373.77L 206.41,373.77L 207.96,373.89L 209.51,374.14L 211.06,374.01L 212.61,374.14L 214.16,374.01L 215.71,374.01L 217.26,374.14L 218.82,374.26L 220.37,373.77L 221.92,373.77L 223.47,373.77L 225.02,373.77L 226.57,373.64L 228.12,373.77L 229.67,373.27L 231.22,373.40L 232.77,373.40L 234.32,373.40L 235.87,373.52L 237.42,373.64L 238.97,373.77L 240.52,374.26L 242.07,374.63L 243.62,374.75L 245.17,374.75L 246.72,374.75L 248.28,374.88L 249.83,375.00L 251.38,374.51L 252.93,374.01L 254.48,373.89L 256.03,373.64L 257.58,373.52L 259.13,373.27L 260.68,373.15L 262.23,373.27L 263.78,372.90L 265.33,372.90L 266.88,373.15L 268.43,373.03L 269.98,372.66L 271.53,371.30L 273.08,370.44L 274.63,369.57L 276.18,369.45L 277.74,369.20L 279.29,369.20L 280.84,368.96L 282.39,369.08L 283.94,369.45L 285.49,369.70L 287.04,369.20L 288.59,369.33L 290.14,369.33L 291.69,369.94L 293.24,370.31L 294.79,370.31L 296.34,370.93L 297.89,370.07L 299.44,369.20L 300.99,368.59L 302.54,368.34L 304.09,367.48L 305.64,366.37L 307.20,364.15L 308.75,362.30L 310.30,357.98L 311.85,355.02L 313.40,352.56L 314.95,350.83L 316.50,350.21L 318.05,348.49L 319.60,347.50L 321.15,348.49L 322.70,349.47L 324.25,349.23L 325.80,346.76L 327.35,341.58L 328.90,340.84L 330.45,332.95L 332.00,325.43L 333.55,311.12L 335.10,295.83L 336.66,288.68L 338.21,278.32L 339.76,266.49L 341.31,255.76L 342.86,231.59L 344.41,220.24L 345.96,198.54L 347.51,162.66L 349.06,140.83L 350.61,106.43L 352.16,81.27L 353.71,63.52L 355.26,34.42L 356.81,23.19L 358.36,14.56L 359.91,10.00L 361.46,23.93L 363.01,43.91L 364.56,76.83L 366.11,115.43L 367.67,137.63L 369.22,171.41L 370.77,191.76L 372.32,210.87L 373.87,221.60L 375.42,231.59L 376.97,235.78L 378.52,244.29L 380.07,242.81L 381.62,246.02L 383.17,246.14L 384.72,249.59L 386.27,247.37L 387.82,247.13L 389.37,246.02L 390.92,254.53L 392.47,261.55L 394.02,266.12L 395.57,264.64L 397.13,263.28L 398.68,264.14L 400.23,264.27L 401.78,258.22L 403.33,251.57L 404.88,244.17L 406.43,236.28L 407.98,231.71L 409.53,226.78L 411.08,217.04L 412.63,216.18L 414.18,206.80L 415.73,208.53L 417.28,205.94L 418.83,207.30L 420.38,211.00L 421.93,219.01L 423.48,219.26L 425.03,228.88L 426.59,232.21L 428.14,246.26L 429.69,255.27L 431.24,262.29L 432.79,271.79L 434.34,285.23L 435.89,293.74L 437.44,301.14L 438.99,304.84L 440.54,307.43L 442.09,310.88L 443.64,316.80L 445.19,318.89L 446.74,323.46L 448.29,326.54L 449.84,329.62L 451.39,332.33L 452.94,331.72L 454.49,333.44L 456.05,332.95L 457.60,331.59L 459.15,328.27L 460.70,325.06L 462.25,320.87" id="New cases" class="line" stroke-width="1" stroke-linecap="round"><title>New cases</title></path>
	<circle cx="25.00" cy="374.35" data-y="0.25" data-x="1583107200" r="1" fill="white"><title>2020-03-02: 0</title></circle>
	<circle cx="26.55" cy="374.48" data-y="0.20" data-x="1583193600" r="1" fill="white"><title>2020-03-03: 0</title></circle>
	<circle cx="28.10" cy="374.42" data-y="0.22" data-x="1583280000" r="1" fill="white"><title>2020-03-04: 0</title></circle>
	<circle cx="29.65" cy="374.51" data-y="0.19" data-x="1583366400" r="1" fill="white"><title>2020-03-05: 0</title></circle>
	<circle cx="31.20" cy="374.63" data-y="0.14" data-x="1583452800" r="1" fill="white"><title>2020-03-06: 0</title></circle>
	<circle cx="32.75" cy="374.51" data-y="0.19" data-x="1583539200" r="1" fill="white"><title>2020-03-07: 0</title></circle>
	<circle cx="34.30" cy="374.63" data-y="0.14" data-x="1583625600" r="1" fill="white"><title>2020-03-08: 0</title></circle>
	<circle cx="35.85" cy="374.75" data-y="0.09" data-x="1583712000" r="1" fill="white"><title>2020-03-09: 0</title></circle>
	<circle cx="37.40" cy="374.51" data-y="0.19" data-x="1583798400" r="1" fill="white"><title>2020-03-10: 0</title></circle>
	<circle cx="38.95" cy="374.38" data-y="0.24" data-x="1583884800" r="1" fill="white"><title>2020-03-11: 0</title></circle>
	<circle cx="40.51" cy="373.89" data-y="0.42" data-x="1583971200" r="1" fill="white"><title>2020-03-12: 0</title></circle>
	<circle cx="42.06" cy="373.89" data-y="0.42" data-x="1584057600" r="1" fill="white"><title>2020-03-13: 0</title></circle>
	<circle cx="43.61" cy="373.27" data-y="0.66" data-x="1584144000" r="1" fill="white"><title>2020-03-14: 1</title></circle>
	<circle cx="45.16" cy="372.90" data-y="0.80" data-x="1584230400" r="1" fill="white"><title>2020-03-15: 1</title></circle>
	<circle cx="46.71" cy="372.29" data-y="1.04" data-x="1584316800" r="1" fill="white"><title>2020-03-16: 1</title></circle>
	<circle cx="48.26" cy="371.55" data-y="1.32" data-x="1584403200" r="1" fill="white"><title>2020-03-17: 1</title></circle>
	<circle cx="49.81" cy="370.68" data-y="1.65" data-x="1584489600" r="1" fill="white"><title>2020-03-18: 2</title></circle>
	<circle cx="51.36" cy="370.56" data-y="1.70" data-x="1584576000" r="1" fill="white"><title>2020-03-19: 2</title></circle>
	<circle cx="52.91" cy="368.46" data-y="2.50" data-x="1584662400" r="1" fill="white"><title>2020-03-20: 3</title></circle>
	<circle cx="54.46" cy="366.74" data-y="3.16" data-x="1584748800" r="1" fill="white"><title>2020-03-21: 3</title></circle>
	<circle cx="56.01" cy="364.77" data-y="3.92" data-x="1584835200" r="1" fill="white"><title>2020-03-22: 4</title></circle>
	<circle cx="57.56" cy="363.04" data-y="4.58" data-x="1584921600" r="1" fill="white"><title>2020-03-23: 5</title></circle>
	<circle cx="59.11" cy="361.56" data-y="5.14" data-x="1585008000" r="1" fill="white"><title>2020-03-24: 5</title></circle>
	<circle cx="60.66" cy="361.19" data-y="5.29" data-x="1585094400" r="1" fill="white"><title>2020-03-25: 5</title></circle>
	<circle cx="62.21" cy="358.11" data-y="6.47" data-x="1585180800" r="1" fill="white"><title>2020-03-26: 6</title></circle>
	<circle cx="63.76" cy="357.86" data-y="6.56" data-x="1585267200" r="1" fill="white"><title>2020-03-27: 7</title></circle>
	<circle cx="65.31" cy="356.13" data-y="7.22" data-x="1585353600" r="1" fill="white"><title>2020-03-28: 7</title></circle>
	<circle cx="66.86" cy="353.42" data-y="8.26" data-x="1585440000" r="1" fill="white"><title>2020-03-29: 8</title></circle>
	<circle cx="68.41" cy="351.94" data-y="8.83" data-x="1585526400" r="1" fill="white"><title>2020-03-30: 9</title></circle>
	<circle cx="69.97" cy="350.46" data-y="9.39" data-x="1585612800" r="1" fill="white"><title>2020-03-31: 9</title></circle>
	<circle cx="71.52" cy="349.10" data-y="9.91" data-x="1585699200" r="1" fill="white"><title>2020-04-01: 10</title></circle>
	<circle cx="73.07" cy="349.84" data-y="9.63" data-x="1585785600" r="1" fill="white"><title>2020-04-02: 10</title></circle>
	<circle cx="74.62" cy="347.38" data-y="10.57" data-x="1585872000" r="1" fill="white"><title>2020-04-03: 11</title></circle>
	<circle cx="76.17" cy="346.64" data-y="10.86" data-x="1585958400" r="1" fill="white"><title>2020-04-04: 11</title></circle>
	<circle cx="77.72" cy="347.99" data-y="10.34" data-x="1586044800" r="1" fill="white"><title>2020-04-05: 10</title></circle>
	<circle cx="79.27" cy="346.76" data-y="10.81" data-x="1586131200" r="1" fill="white"><title>2020-04-06: 11</title></circle>
	<circle cx="80.82" cy="347.13" data-y="10.67" data-x="1586217600" r="1" fill="white"><title>2020-04-07: 11</title></circle>
	<circle cx="82.37" cy="347.50" data-y="10.53" data-x="1586304000" r="1" fill="white"><title>2020-04-08: 11</title></circle>
	<circle cx="83.92" cy="348.36" data-y="10.19" data-x="1586390400" r="1" fill="white"><title>2020-04-09: 10</title></circle>
	<circle cx="85.47" cy="350.71" data-y="9.30" data-x="1586476800" r="1" fill="white"><title>2020-04-10: 9</title></circle>
	<circle cx="87.02" cy="351.82" data-y="8.87" data-x="1586563200" r="1" fill="white"><title>2020-04-11: 9</title></circle>
	<circle cx="88.57" cy="352.31" data-y="8.68" data-x="1586649600" r="1" fill="white"><title>2020-04-12: 9</title></circle>
	<circle cx="90.12" cy="353.42" data-y="8.26" data-x="1586736000" r="1" fill="white"><title>2020-04-13: 8</title></circle>
	<circle cx="91.67" cy="353.42" data-y="8.26" data-x="1586822400" r="1" fill="white"><title>2020-04-14: 8</title></circle>
	<circle cx="93.22" cy="351.45" data-y="9.01" data-x="1586908800" r="1" fill="white"><title>2020-04-15: 9</title></circle>
	<circle cx="94.77" cy="350.09" data-y="9.53" data-x="1586995200" r="1" fill="white"><title>2020-04-16: 10</title></circle>
	<circle cx="96.32" cy="349.10" data-y="9.91" data-x="1587081600" r="1" fill="white"><title>2020-04-17: 10</title></circle>
	<circle cx="97.87" cy="350.46" data-y="9.39" data-x="1587168000" r="1" fill="white"><title>2020-04-18: 9</title></circle>
	<circle cx="99.43" cy="349.35" data-y="9.82" data-x="1587254400" r="1" fill="white"><title>2020-04-19: 10</title></circle>
	<circle cx="100.98" cy="350.34" data-y="9.44" data-x="1587340800" r="1" fill="white"><title>2020-04-20: 9</title></circle>
	<circle cx="102.53" cy="349.97" data-y="9.58" data-x="1587427200" r="1" fill="white"><title>2020-04-21: 10</title></circle>
	<circle cx="104.08" cy="352.68" data-y="8.54" data-x="1587513600" r="1" fill="white"><title>2020-04-22: 9</title></circle>
	<circle cx="105.63" cy="354.28" data-y="7.93" data-x="1587600000" r="1" fill="white"><title>2020-04-23: 8</title></circle>
	<circle cx="107.18" cy="355.76" data-y="7.36" data-x="1587686400" r="1" fill="white"><title>2020-04-24: 7</title></circle>
	<circle cx="108.73" cy="354.16" data-y="7.98" data-x="1587772800" r="1" fill="white"><title>2020-04-25: 8</title></circle>
	<circle cx="110.28" cy="355.89" data-y="7.32" data-x="1587859200" r="1" fill="white"><title>2020-04-26: 7</title></circle>
	<circle cx="111.83" cy="353.79" data-y="8.12" data-x="1587945600" r="1" fill="white"><title>2020-04-27: 8</title></circle>
	<circle cx="113.38" cy="355.52" data-y="7.46" data-x="1588032000" r="1" fill="white"><title>2020-04-28: 7</title></circle>
	<circle cx="114.93" cy="354.65" data-y="7.79" data-x="1588118400" r="1" fill="white"><title>2020-04-29: 8</title></circle>
	<circle cx="116.48" cy="355.15" data-y="7.60" data-x="1588204800" r="1" fill="white"><title>2020-04-30: 8</title></circle>
	<circle cx="118.03" cy="355.27" data-y="7.55" data-x="1588291200" r="1" fill="white"><title>2020-05-01: 8</title></circle>
	<circle cx="119.58" cy="356.50" data-y="7.08" data-x="1588377600" r="1" fill="white"><title>2020-05-02: 7</title></circle>
	<circle cx="121.13" cy="356.63" data-y="7.03" data-x="1588464000" r="1" fill="white"><title>2020-05-03: 7</title></circle>
	<circle cx="122.68" cy="358.72" data-y="6.23" data-x="1588550400" r="1" fill="white"><title>2020-05-04: 6</title></circle>
	<circle cx="124.23" cy="359.71" data-y="5.85" data-x="1588636800" r="1" fill="white"><title>2020-05-05: 6</title></circle>
	<circle cx="125.78" cy="361.68" data-y="5.10" data-x="1588723200" r="1" fill="white"><title>2020-05-06: 5</title></circle>
	<circle cx="127.33" cy="361.81" data-y="5.05" data-x="1588809600" r="1" fill="white"><title>2020-05-07: 5</title></circle>
	<circle cx="128.89" cy="362.55" data-y="4.77" data-x="1588896000" r="1" fill="white"><title>2020-05-08: 5</title></circle>
	<circle cx="130.44" cy="363.04" data-y="4.58" data-x="1588982400" r="1" fill="white"><title>2020-05-09: 5</title></circle>
	<circle cx="131.99" cy="364.03" data-y="4.20" data-x="1589068800" r="1" fill="white"><title>2020-05-10: 4</title></circle>
	<circle cx="133.54" cy="365.63" data-y="3.59" data-x="1589155200" r="1" fill="white"><title>2020-05-11: 4</title></circle>
	<circle cx="135.09" cy="365.63" data-y="3.59" data-x="1589241600" r="1" fill="white"><title>2020-05-12: 4</title></circle>
	<circle cx="136.64" cy="365.01" data-y="3.82" data-x="1589328000" r="1" fill="white"><title>2020-05-13: 4</title></circle>
	<circle cx="138.19" cy="365.38" data-y="3.68" data-x="1589414400" r="1" fill="white"><title>2020-05-14: 4</title></circle>
	<circle cx="139.74" cy="365.75" data-y="3.54" data-x="1589500800" r="1" fill="white"><title>2020-05-15: 4</title></circle>
	<circle cx="141.29" cy="367.35" data-y="2.93" data-x="1589587200" r="1" fill="white"><title>2020-05-16: 3</title></circle>
	<circle cx="142.84" cy="367.60" data-y="2.83" data-x="1589673600" r="1" fill="white"><title>2020-05-17: 3</title></circle>
	<circle cx="144.39" cy="368.09" data-y="2.64" data-x="1589760000" r="1" fill="white"><title>2020-05-18: 3</title></circle>
	<circle cx="145.94" cy="368.46" data-y="2.50" data-x="1589846400" r="1" fill="white"><title>2020-05-19: 3</title></circle>
	<circle cx="147.49" cy="369.20" data-y="2.22" data-x="1589932800" r="1" fill="white"><title>2020-05-20: 2</title></circle>
	<circle cx="149.04" cy="369.57" data-y="2.08" data-x="1590019200" r="1" fill="white"><title>2020-05-21: 2</title></circle>
	<circle cx="150.59" cy="370.07" data-y="1.89" data-x="1590105600" r="1" fill="white"><title>2020-05-22: 2</title></circle>
	<circle cx="152.14" cy="367.60" data-y="2.83" data-x="1590192000" r="1" fill="white"><title>2020-05-23: 3</title></circle>
	<circle cx="153.69" cy="366.86" data-y="3.12" data-x="1590278400" r="1" fill="white"><title>2020-05-24: 3</title></circle>
	<circle cx="155.24" cy="366.86" data-y="3.12" data-x="1590364800" r="1" fill="white"><title>2020-05-25: 3</title></circle>
	<circle cx="156.79" cy="366.49" data-y="3.26" data-x="1590451200" r="1" fill="white"><title>2020-05-26: 3</title></circle>
	<circle cx="158.34" cy="366.24" data-y="3.35" data-x="1590537600" r="1" fill="white"><title>2020-05-27: 3</title></circle>
	<circle cx="159.90" cy="366.12" data-y="3.40" data-x="1590624000" r="1" fill="white"><title>2020-05-28: 3</title></circle>
	<circle cx="161.45" cy="365.88" data-y="3.49" data-x="1590710400" r="1" fill="white"><title>2020-05-29: 3</title></circle>
	<circle cx="163.00" cy="368.83" data-y="2.36" data-x="1590796800" r="1" fill="white"><title>2020-05-30: 2</title></circle>
	<circle cx="164.55" cy="370.19" data-y="1.84" data-x="1590883200" r="1" fill="white"><title>2020-05-31: 2</title></circle>
	<circle cx="166.10" cy="370.56" data-y="1.70" data-x="1590969600" r="1" fill="white"><title>2020-06-01: 2</title></circle>
	<circle cx="167.65" cy="370.68" data-y="1.65" data-x="1591056000" r="1" fill="white"><title>2020-06-02: 2</title></circle>
	<circle cx="169.20" cy="371.42" data-y="1.37" data-x="1591142400" r="1" fill="white"><title>2020-06-03: 1</title></circle>
	<circle cx="170.75" cy="372.04" data-y="1.13" data-x="1591228800" r="1" fill="white"><title>2020-06-04: 1</title></circle>
	<circle cx="172.30" cy="371.92" data-y="1.18" data-x="1591315200" r="1" fill="white"><title>2020-06-05: 1</title></circle>
	<circle cx="173.85" cy="371.55" data-y="1.32" data-x="1591401600" r="1" fill="white"><title>2020-06-06: 1</title></circle>
	<circle cx="175.40" cy="371.79" data-y="1.23" data-x="1591488000" r="1" fill="white"><title>2020-06-07: 1</title></circle>
	<circle cx="176.95" cy="372.16" data-y="1.09" data-x="1591574400" r="1" fill="white"><title>2020-06-08: 1</title></circle>
	<circle cx="178.50" cy="373.27" data-y="0.66" data-x="1591660800" r="1" fill="white"><title>2020-06-09: 1</title></circle>
	<circle cx="180.05" cy="373.03" data-y="0.76" data-x="1591747200" r="1" fill="white"><title>2020-06-10: 1</title></circle>
	<circle cx="181.60" cy="371.79" data-y="1.23" data-x="1591833600" r="1" fill="white"><title>2020-06-11: 1</title></circle>
	<circle cx="183.15" cy="371.92" data-y="1.18" data-x="1591920000" r="1" fill="white"><title>2020-06-12: 1</title></circle>
	<circle cx="184.70" cy="371.79" data-y="1.23" data-x="1592006400" r="1" fill="white"><title>2020-06-13: 1</title></circle>
	<circle cx="186.25" cy="371.79" data-y="1.23" data-x="1592092800" r="1" fill="white"><title>2020-06-14: 1</title></circle>
	<circle cx="187.80" cy="371.67" data-y="1.27" data-x="1592179200" r="1" fill="white"><title>2020-06-15: 1</title></circle>
	<circle cx="189.36" cy="371.55" data-y="1.32" data-x="1592265600" r="1" fill="white"><title>2020-06-16: 1</title></circle>
	<circle cx="190.91" cy="371.79" data-y="1.23" data-x="1592352000" r="1" fill="white"><title>2020-06-17: 1</title></circle>
	<circle cx="192.46" cy="373.03" data-y="0.76" data-x="1592438400" r="1" fill="white"><title>2020-06-18: 1</title></circle>
	<circle cx="194.01" cy="373.27" data-y="0.66" data-x="1592524800" r="1" fill="white"><title>2020-06-19: 1</title></circle>
	<circle cx="195.56" cy="373.52" data-y="0.57" data-x="1592611200" r="1" fill="white"><title>2020-06-20: 1</title></circle>
	<circle cx="197.11" cy="373.64" data-y="0.52" data-x="1592697600" r="1" fill="white"><title>2020-06-21: 1</title></circle>
	<circle cx="198.66" cy="373.64" data-y="0.52" data-x="1592784000" r="1" fill="white"><title>2020-06-22: 1</title></circle>
	<circle cx="200.21" cy="373.77" data-y="0.47" data-x="1592870400" r="1" fill="white"><title>2020-06-23: 0</title></circle>
	<circle cx="201.76" cy="373.64" data-y="0.52" data-x="1592956800" r="1" fill="white"><title>2020-06-24: 1</title></circle>
	<circle cx="203.31" cy="373.64" data-y="0.52" data-x="1593043200" r="1" fill="white"><title>2020-06-25: 1</title></circle>
	<circle cx="204.86" cy="373.77" data-y="0.47" data-x="1593129600" r="1" fill="white"><title>2020-06-26: 0</title></circle>
	<circle cx="206.41" cy="373.77" data-y="0.47" data-x="1593216000" r="1" fill="white"><title>2020-06-27: 0</title></circle>
	<circle cx="207.96" cy="373.89" data-y="0.42" data-x="1593302400" r="1" fill="white"><title>2020-06-28: 0</title></circle>
	<circle cx="209.51" cy="374.14" data-y="0.33" data-x="1593388800" r="1" fill="white"><title>2020-06-29: 0</title></circle>
	<circle cx="211.06" cy="374.01" data-y="0.38" data-x="1593475200" r="1" fill="white"><title>2020-06-30: 0</title></circle>
	<circle cx="212.61" cy="374.14" data-y="0.33" data-x="1593561600" r="1" fill="white"><title>2020-07-01: 0</title></circle>
	<circle cx="214.16" cy="374.01" data-y="0.38" data-x="1593648000" r="1" fill="white"><title>2020-07-02: 0</title></circle>
	<circle cx="215.71" cy="374.01" data-y="0.38" data-x="1593734400" r="1" fill="white"><title>2020-07-03: 0</title></circle>
	<circle cx="217.26" cy="374.14" data-y="0.33" data-x="1593820800" r="1" fill="white"><title>2020-07-04: 0</title></circle>
	<circle cx="218.82" cy="374.26" data-y="0.28" data-x="1593907200" r="1" fill="white"><title>2020-07-05: 0</title></circle>
	<circle cx="220.37" cy="373.77" data-y="0.47" data-x="1593993600" r="1" fill="white"><title>2020-07-06: 0</title></circle>
	<circle cx="221.92" cy="373.77" data-y="0.47" data-x="1594080000" r="1" fill="white"><title>2020-07-07: 0</title></circle>
	<circle cx="223.47" cy="373.77" data-y="0.47" data-x="1594166400" r="1" fill="white"><title>2020-07-08: 0</title></circle>
	<circle cx="225.02" cy="373.77" data-y="0.47" data-x="1594252800" r="1" fill="white"><title>2020-07-09: 0</title></circle>
	<circle cx="226.57" cy="373.64" data-y="0.52" data-x="1594339200" r="1" fill="white"><title>2020-07-10: 1</title></circle>
	<circle cx="228.12" cy="373.77" data-y="0.47" data-x="1594425600" r="1" fill="white"><title>2020-07-11: 0</title></circle>
	<circle cx="229.67" cy="373.27" data-y="0.66" data-x="1594512000" r="1" fill="white"><title>2020-07-12: 1</title></circle>
	<circle cx="231.22" cy="373.40" data-y="0.61" data-x="1594598400" r="1" fill="white"><title>2020-07-13: 1</title></circle>
	<circle cx="232.77" cy="373.40" data-y="0.61" data-x="1594684800" r="1" fill="white"><title>2020-07-14: 1</title></circle>
	<circle cx="234.32" cy="373.40" data-y="0.61" data-x="1594771200" r="1" fill="white"><title>2020-07-15: 1</title></circle>
	<circle cx="235.87" cy="373.52" data-y="0.57" data-x="1594857600" r="1" fill="white"><title>2020-07-16: 1</title></circle>
	<circle cx="237.42" cy="373.64" data-y="0.52" data-x="1594944000" r="1" fill="white"><title>2020-07-17: 1</title></circle>
	<circle cx="238.97" cy="373.77" data-y="0.47" data-x="1595030400" r="1" fill="white"><title>2020-07-18: 0</title></circle>
	<circle cx="240.52" cy="374.26" data-y="0.28" data-x="1595116800" r="1" fill="white"><title>2020-07-19: 0</title></circle>
	<circle cx="242.07" cy="374.63" data-y="0.14" data-x="1595203200" r="1" fill="white"><title>2020-07-20: 0</title></circle>
	<circle cx="243.62" cy="374.75" data-y="0.09" data-x="1595289600" r="1" fill="white"><title>2020-07-21: 0</title></circle>
	<circle cx="245.17" cy="374.75" data-y="0.09" data-x="1595376000" r="1" fill="white"><title>2020-07-22: 0</title></circle>
	<circle cx="246.72" cy="374.75" data-y="0.09" data-x="1595462400" r="1" fill="white"><title>2020-07-23: 0</title></circle>
	<circle cx="248.28" cy="374.88" data-y="0.05" data-x="1595548800" r="1" fill="white"><title>2020-07-24: 0</title></circle>
	<circle cx="249.83" cy="375.00" data-y="0.00" data-x="1595635200" r="1" fill="white"><title>2020-07-25: 0</title></circle>
	<circle cx="251.38" cy="374.51" data-y="0.19" data-x="1595721600" r="1" fill="white"><title>2020-07-26: 0</title></circle>
	<circle cx="252.93" cy="374.01" data-y="0.38" data-x="1595808000" r="1" fill="white"><title>2020-07-27: 0</title></circle>
	<circle cx="254.48" cy="373.89" data-y="0.42" data-x="1595894400" r="1" fill="white"><title>2020-07-28: 0</title></circle>
	<circle cx="256.03" cy="373.64" data-y="0.52" data-x="1595980800" r="1" fill="white"><title>2020-07-29: 1</title></circle>
	<circle cx="257.58" cy="373.52" data-y="0.57" data-x="1596067200" r="1" fill="white"><title>2020-07-30: 1</title></circle>
	<circle cx="259.13" cy="373.27" data-y="0.66" data-x="1596153600" r="1" fill="white"><title>2020-07-31: 1</title></circle>
	<circle cx="260.68" cy="373.15" data-y="0.71" data-x="1596240000" r="1" fill="white"><title>2020-08-01: 1</title></circle>
	<circle cx="262.23" cy="373.27" data-y="0.66" data-x="1596326400" r="1" fill="white"><title>2020-08-02: 1</title></circle>
	<circle cx="263.78" cy="372.90" data-y="0.80" data-x="1596412800" r="1" fill="white"><title>2020-08-03: 1</title></circle>
	<circle cx="265.33" cy="372.90" data-y="0.80" data-x="1596499200" r="1" fill="white"><title>2020-08-04: 1</title></circle>
	<circle cx="266.88" cy="373.15" data-y="0.71" data-x="1596585600" r="1" fill="white"><title>2020-08-05: 1</title></circle>
	<circle cx="268.43" cy="373.03" data-y="0.76" data-x="1596672000" r="1" fill="white"><title>2020-08-06: 1</title></circle>
	<circle cx="269.98" cy="372.66" data-y="0.90" data-x="1596758400" r="1" fill="white"><title>2020-08-07: 1</title></circle>
	<circle cx="271.53" cy="371.30" data-y="1.42" data-x="1596844800" r="1" fill="white"><title>2020-08-08: 1</title></circle>
	<circle cx="273.08" cy="370.44" data-y="1.75" data-x="1596931200" r="1" fill="white"><title>2020-08-09: 2</title></circle>
	<circle cx="274.63" cy="369.57" data-y="2.08" data-x="1597017600" r="1" fill="white"><title>2020-08-10: 2</title></circle>
	<circle cx="276.18" cy="369.45" data-y="2.12" data-x="1597104000" r="1" fill="white"><title>2020-08-11: 2</title></circle>
	<circle cx="277.74" cy="369.20" data-y="2.22" data-x="1597190400" r="1" fill="white"><title>2020-08-12: 2</title></circle>
	<circle cx="279.29" cy="369.20" data-y="2.22" data-x="1597276800" r="1" fill="white"><title>2020-08-13: 2</title></circle>
	<circle cx="280.84" cy="368.96" data-y="2.31" data-x="1597363200" r="1" fill="white"><title>2020-08-14: 2</title></circle>
	<circle cx="282.39" cy="369.08" data-y="2.27" data-x="1597449600" r="1" fill="white"><title>2020-08-15: 2</title></circle>
	<circle cx="283.94" cy="369.45" data-y="2.12" data-x="1597536000" r="1" fill="white"><title>2020-08-16: 2</title></circle>
	<circle cx="285.49" cy="369.70" data-y="2.03" data-x="1597622400" r="1" fill="white"><title>2020-08-17: 2</title></circle>
	<circle cx="287.04" cy="369.20" data-y="2.22" data-x="1597708800" r="1" fill="white"><title>2020-08-18: 2</title></circle>
	<circle cx="288.59" cy="369.33" data-y="2.17" data-x="1597795200" r="1" fill="white"><title>2020-08-19: 2</title></circle>
	<circle cx="290.14" cy="369.33" data-y="2.17" data-x="1597881600" r="1" fill="white"><title>2020-08-20: 2</title></circle>
	<circle cx="291.69" cy="369.94" data-y="1.94" data-x="1597968000" r="1" fill="white"><title>2020-08-21: 2</title></circle>
	<circle cx="293.24" cy="370.31" data-y="1.79" data-x="1598054400" r="1" fill="white"><title>2020-08-22: 2</title></circle>
	<circle cx="294.79" cy="370.31" data-y="1.79" data-x="1598140800" r="1" fill="white"><title>2020-08-23: 2</title></circle>
	<circle cx="296.34" cy="370.93" data-y="1.56" data-x="1598227200" r="1" fill="white"><title>2020-08-24: 2</title></circle>
	<circle cx="297.89" cy="370.07" data-y="1.89" data-x="1598313600" r="1" fill="white"><title>2020-08-25: 2</title></circle>
	<circle cx="299.44" cy="369.20" data-y="2.22" data-x="1598400000" r="1" fill="white"><title>2020-08-26: 2</title></circle>
	<circle cx="300.99" cy="368.59" data-y="2.45" data-x="1598486400" r="1" fill="white"><title>2020-08-27: 2</title></circle>
	<circle cx="302.54" cy="368.34" data-y="2.55" data-x="1598572800" r="1" fill="white"><title>2020-08-28: 3</title></circle>
	<circle cx="304.09" cy="367.48" data-y="2.88" data-x="1598659200" r="1" fill="white"><title>2020-08-29: 3</title></circle>
	<circle cx="305.64" cy="366.37" data-y="3.30" data-x="1598745600" r="1" fill="white"><title>2020-08-30: 3</title></circle>
	<circle cx="307.20" cy="364.15" data-y="4.15" data-x="1598832000" r="1" fill="white"><title>2020-08-31: 4</title></circle>
	<circle cx="308.75" cy="362.30" data-y="4.86" data-x="1598918400" r="1" fill="white"><title>2020-09-01: 5</title></circle>
	<circle cx="310.30" cy="357.98" data-y="6.51" data-x="1599004800" r="1" fill="white"><title>2020-09-02: 7</title></circle>
	<circle cx="311.85" cy="355.02" data-y="7.65" data-x="1599091200" r="1" fill="white"><title>2020-09-03: 8</title></circle>
	<circle cx="313.40" cy="352.56" data-y="8.59" data-x="1599177600" r="1" fill="white"><title>2020-09-04: 9</title></circle>
	<circle cx="314.95" cy="350.83" data-y="9.25" data-x="1599264000" r="1" fill="white"><title>2020-09-05: 9</title></circle>
	<circle cx="316.50" cy="350.21" data-y="9.49" data-x="1599350400" r="1" fill="white"><title>2020-09-06: 9</title></circle>
	<circle cx="318.05" cy="348.49" data-y="10.15" data-x="1599436800" r="1" fill="white"><title>2020-09-07: 10</title></circle>
	<circle cx="319.60" cy="347.50" data-y="10.53" data-x="1599523200" r="1" fill="white"><title>2020-09-08: 11</title></circle>
	<circle cx="321.15" cy="348.49" data-y="10.15" data-x="1599609600" r="1" fill="white"><title>2020-09-09: 10</title></circle>
	<circle cx="322.70" cy="349.47" data-y="9.77" data-x="1599696000" r="1" fill="white"><title>2020-09-10: 10</title></circle>
	<circle cx="324.25" cy="349.23" data-y="9.86" data-x="1599782400" r="1" fill="white"><title>2020-09-11: 10</title></circle>
	<circle cx="325.80" cy="346.76" data-y="10.81" data-x="1599868800" r="1" fill="white"><title>2020-09-12: 11</title></circle>
	<circle cx="327.35" cy="341.58" data-y="12.79" data-x="1599955200" r="1" fill="white"><title>2020-09-13: 13</title></circle>
	<circle cx="328.90" cy="340.84" data-y="13.07" data-x="1600041600" r="1" fill="white"><title>2020-09-14: 13</title></circle>
	<circle cx="330.45" cy="332.95" data-y="16.09" data-x="1600128000" r="1" fill="white"><title>2020-09-15: 16</title></circle>
	<circle cx="332.00" cy="325.43" data-y="18.97" data-x="1600214400" r="1" fill="white"><title>2020-09-16: 19</title></circle>
	<circle cx="333.55" cy="311.12" data-y="24.45" data-x="1600300800" r="1" fill="white"><title>2020-09-17: 24</title></circle>
	<circle cx="335.10" cy="295.83" data-y="30.30" data-x="1600387200" r="1" fill="white"><title>2020-09-18: 30</title></circle>
	<circle cx="336.66" cy="288.68" data-y="33.04" data-x="1600473600" r="1" fill="white"><title>2020-09-19: 33</title></circle>
	<circle cx="338.21" cy="278.32" data-y="37.00" data-x="1600560000" r="1" fill="white"><title>2020-09-20: 37</title></circle>
	<circle cx="339.76" cy="266.49" data-y="41.53" data-x="1600646400" r="1" fill="white"><title>2020-09-21: 42</title></circle>
	<circle cx="341.31" cy="255.76" data-y="45.64" data-x="1600732800" r="1" fill="white"><title>2020-09-22: 46</title></circle>
	<circle cx="342.86" cy="231.59" data-y="54.89" data-x="1600819200" r="1" fill="white"><title>2020-09-23: 55</title></circle>
	<circle cx="344.41" cy="220.24" data-y="59.23" data-x="1600905600" r="1" fill="white"><title>2020-09-24: 59</title></circle>
	<circle cx="345.96" cy="198.54" data-y="67.54" data-x="1600992000" r="1" fill="white"><title>2020-09-25: 68</title></circle>
	<circle cx="347.51" cy="162.66" data-y="81.27" data-x="1601078400" r="1" fill="white"><title>2020-09-26: 81</title></circle>
	<circle cx="349.06" cy="140.83" data-y="89.63" data-x="1601164800" r="1" fill="white"><title>2020-09-27: 90</title></circle>
	<circle cx="350.61" cy="106.43" data-y="102.80" data-x="1601251200" r="1" fill="white"><title>2020-09-28: 103</title></circle>
	<circle cx="352.16" cy="81.27" data-y="112.42" data-x="1601337600" r="1" fill="white"><title>2020-09-29: 112</title></circle>
	<circle cx="353.71" cy="63.52" data-y="119.22" data-x="1601424000" r="1" fill="white"><title>2020-09-30: 119</title></circle>
	<circle cx="355.26" cy="34.42" data-y="130.36" data-x="1601510400" r="1" fill="white"><title>2020-10-01: 130</title></circle>
	<circle cx="356.81" cy="23.19" data-y="134.65" data-x="1601596800" r="1" fill="white"><title>2020-10-02: 135</title></circle>
	<circle cx="358.36" cy="14.56" data-y="137.96" data-x="1601683200" r="1" fill="white"><title>2020-10-03: 138</title></circle>
	<circle cx="359.91" cy="10.00" data-y="139.70" data-x="1601769600" r="1" fill="white"><title>2020-10-04: 140</title></circle>
	<circle cx="361.46" cy="23.93" data-y="134.37" data-x="1601856000" r="1" fill="white"><title>2020-10-05: 134</title></circle>
	<circle cx="363.01" cy="43.91" data-y="126.73" data-x="1601942400" r="1" fill="white"><title>2020-10-06: 127</title></circle>
	<circle cx="364.56" cy="76.83" data-y="114.12" data-x="1602028800" r="1" fill="white"><title>2020-10-07: 114</title></circle>
	<circle cx="366.11" cy="115.43" data-y="99.35" data-x="1602115200" r="1" fill="white"><title>2020-10-08: 99</title></circle>
	<circle cx="367.67" cy="137.63" data-y="90.86" data-x="1602201600" r="1" fill="white"><title>2020-10-09: 91</title></circle>
	<circle cx="369.22" cy="171.41" data-y="77.92" data-x="1602288000" r="1" fill="white"><title>2020-10-10: 78</title></circle>
	<circle cx="370.77" cy="191.76" data-y="70.14" data-x="1602374400" r="1" fill="white"><title>2020-10-11: 70</title></circle>
	<circle cx="372.32" cy="210.87" data-y="62.82" data-x="1602460800" r="1" fill="white"><title>2020-10-12: 63</title></circle>
	<circle cx="373.87" cy="221.60" data-y="58.71" data-x="1602547200" r="1" fill="white"><title>2020-10-13: 59</title></circle>
	<circle cx="375.42" cy="231.59" data-y="54.89" data-x="1602633600" r="1" fill="white"><title>2020-10-14: 55</title></circle>
	<circle cx="376.97" cy="235.78" data-y="53.29" data-x="1602720000" r="1" fill="white"><title>2020-10-15: 53</title></circle>
	<circle cx="378.52" cy="244.29" data-y="50.03" data-x="1602806400" r="1" fill="white"><title>2020-10-16: 50</title></circle>
	<circle cx="380.07" cy="242.81" data-y="50.60" data-x="1602892800" r="1" fill="white"><title>2020-10-17: 51</title></circle>
	<circle cx="381.62" cy="246.02" data-y="49.37" data-x="1602979200" r="1" fill="white"><title>2020-10-18: 49</title></circle>
	<circle cx="383.17" cy="246.14" data-y="49.32" data-x="1603065600" r="1" fill="white"><title>2020-10-19: 49</title></circle>
	<circle cx="384.72" cy="249.59" data-y="48.00" data-x="1603152000" r="1" fill="white"><title>2020-10-20: 48</title></circle>
	<circle cx="386.27" cy="247.37" data-y="48.85" data-x="1603238400" r="1" fill="white"><title>2020-10-21: 49</title></circle>
	<circle cx="387.82" cy="247.13" data-y="48.94" data-x="1603324800" r="1" fill="white"><title>2020-10-22: 49</title></circle>
	<circle cx="389.37" cy="246.02" data-y="49.37" data-x="1603411200" r="1" fill="white"><title>2020-10-23: 49</title></circle>
	<circle cx="390.92" cy="254.53" data-y="46.11" data-x="1603497600" r="1" fill="white"><title>2020-10-24: 46</title></circle>
	<circle cx="392.47" cy="261.55" data-y="43.42" data-x="1603584000" r="1" fill="white"><title>2020-10-25: 43</title></circle>
	<circle cx="394.02" cy="266.12" data-y="41.68" data-x="1603670400" r="1" fill="white"><title>2020-10-26: 42</title></circle>
	<circle cx="395.57" cy="264.64" data-y="42.24" data-x="1603756800" r="1" fill="white"><title>2020-10-27: 42</title></circle>
	<circle cx="397.13" cy="263.28" data-y="42.76" data-x="1603843200" r="1" fill="white"><title>2020-10-28: 43</title></circle>
	<circle cx="398.68" cy="264.14" data-y="42.43" data-x="1603929600" r="1" fill="white"><title>2020-10-29: 42</title></circle>
	<circle cx="400.23" cy="264.27" data-y="42.38" data-x="1604016000" r="1" fill="white"><title>2020-10-30: 42</title></circle>
	<circle cx="401.78" cy="258.22" data-y="44.70" data-x="1604102400" r="1" fill="white"><title>2020-10-31: 45</title></circle>
	<circle cx="403.33" cy="251.57" data-y="47.24" data-x="1604188800" r="1" fill="white"><title>2020-11-01: 47</title></circle>
	<circle cx="404.88" cy="244.17" data-y="50.08" data-x="1604275200" r="1" fill="white"><title>2020-11-02: 50</title></circle>
	<circle cx="406.43" cy="236.28" data-y="53.10" data-x="1604361600" r="1" fill="white"><title>2020-11-03: 53</title></circle>
	<circle cx="407.98" cy="231.71" data-y="54.84" data-x="1604448000" r="1" fill="white"><title>2020-11-04: 55</title></circle>
	<circle cx="409.53" cy="226.78" data-y="56.73" data-x="1604534400" r="1" fill="white"><title>2020-11-05: 57</title></circle>
	<circle cx="411.08" cy="217.04" data-y="60.46" data-x="1604620800" r="1" fill="white"><title>2020-11-06: 60</title></circle>
	<circle cx="412.63" cy="216.18" data-y="60.79" data-x="1604707200" r="1" fill="white"><title>2020-11-07: 61</title></circle>
	<circle cx="414.18" cy="206.80" data-y="64.38" data-x="1604793600" r="1" fill="white"><title>2020-11-08: 64</title></circle>
	<circle cx="415.73" cy="208.53" data-y="63.72" data-x="1604880000" r="1" fill="white"><title>2020-11-09: 64</title></circle>
	<circle cx="417.28" cy="205.94" data-y="64.71" data-x="1604966400" r="1" fill="white"><title>2020-11-10: 65</title></circle>
	<circle cx="418.83" cy="207.30" data-y="64.19" data-x="1605052800" r="1" fill="white"><title>2020-11-11: 64</title></circle>
	<circle cx="420.38" cy="211.00" data-y="62.77" data-x="1605139200" r="1" fill="white"><title>2020-11-12: 63</title></circle>
	<circle cx="421.93" cy="219.01" data-y="59.70" data-x="1605225600" r="1" fill="white"><title>2020-11-13: 60</title></circle>
	<circle cx="423.48" cy="219.26" data-y="59.61" data-x="1605312000" r="1" fill="white"><title>2020-11-14: 60</title></circle>
	<circle cx="425.03" cy="228.88" data-y="55.93" data-x="1605398400" r="1" fill="white"><title>2020-11-15: 56</title></circle>
	<circle cx="426.59" cy="232.21" data-y="54.65" data-x="1605484800" r="1" fill="white"><title>2020-11-16: 55</title></circle>
	<circle cx="428.14" cy="246.26" data-y="49.27" data-x="1605571200" r="1" fill="white"><title>2020-11-17: 49</title></circle>
	<circle cx="429.69" cy="255.27" data-y="45.83" data-x="1605657600" r="1" fill="white"><title>2020-11-18: 46</title></circle>
	<circle cx="431.24" cy="262.29" data-y="43.14" data-x="1605744000" r="1" fill="white"><title>2020-11-19: 43</title></circle>
	<circle cx="432.79" cy="271.79" data-y="39.50" data-x="1605830400" r="1" fill="white"><title>2020-11-20: 40</title></circle>
	<circle cx="434.34" cy="285.23" data-y="34.36" data-x="1605916800" r="1" fill="white"><title>2020-11-21: 34</title></circle>
	<circle cx="435.89" cy="293.74" data-y="31.10" data-x="1606003200" r="1" fill="white"><title>2020-11-22: 31</title></circle>
	<circle cx="437.44" cy="301.14" data-y="28.27" data-x="1606089600" r="1" fill="white"><title>2020-11-23: 28</title></circle>
	<circle cx="438.99" cy="304.84" data-y="26.86" data-x="1606176000" r="1" fill="white"><title>2020-11-24: 27</title></circle>
	<circle cx="440.54" cy="307.43" data-y="25.86" data-x="1606262400" r="1" fill="white"><title>2020-11-25: 26</title></circle>
	<circle cx="442.09" cy="310.88" data-y="24.54" data-x="1606348800" r="1" fill="white"><title>2020-11-26: 25</title></circle>
	<circle cx="443.64" cy="316.80" data-y="22.28" data-x="1606435200" r="1" fill="white"><title>2020-11-27: 22</title></circle>
	<circle cx="445.19" cy="318.89" data-y="21.47" data-x="1606521600" r="1" fill="white"><title>2020-11-28: 21</title></circle>
	<circle cx="446.74" cy="323.46" data-y="19.73" data-x="1606608000" r="1" fill="white"><title>2020-11-29: 20</title></circle>
	<circle cx="448.29" cy="326.54" data-y="18.55" data-x="1606694400" r="1" fill="white"><title>2020-11-30: 19</title></circle>
	<circle cx="449.84" cy="329.62" data-y="17.37" data-x="1606780800" r="1" fill="white"><title>2020-12-01: 17</title></circle>
	<circle cx="451.39" cy="332.33" data-y="16.33" data-x="1606867200" r="1" fill="white"><title>2020-12-02: 16</title></circle>
	<circle cx="452.94" cy="331.72" data-y="16.57" data-x="1606953600" r="1" fill="white"><title>2020-12-03: 17</title></circle>
	<circle cx="454.49" cy="333.44" data-y="15.91" data-x="1607040000" r="1" fill="white"><title>2020-12-04: 16</title></circle>
	<circle cx="456.05" cy="332.95" data-y="16.09" data-x="1607126400" r="1" fill="white"><title>2020-12-05: 16</title></circle>
	<circle cx="457.60" cy="331.59" data-y="16.61" data-x="1607212800" r="1" fill="white"><title>2020-12-06: 17</title></circle>
	<circle cx="459.15" cy="328.27" data-y="17.89" data-x="1607299200" r="1" fill="white"><title>2020-12-07: 18</title></circle>
	<circle cx="460.70" cy="325.06" data-y="19.11" data-x="1607385600" r="1" fill="white"><title>2020-12-08: 19</title></circle>
	<circle cx="462.25" cy="320.87" data-y="20.72" data-x="1607472000" r="1" fill="white"><title>2020-12-09: 21</title></circle>
</g>
<g data-series="recent-cases" class="data-series">
	<path d="M 462.25,320.87L 463.80,320.13L 465.35,326.17L 466.90,327.96L 468.45,330.63L 470.00,335.73" id="Recent cases" class="line" stroke-width="1" stroke-linecap="round" stroke-dasharray="4,6" stroke-dashoffset="4"><title>Recent cases</title></path>
	<circle cx="462.25" cy="320.87" data-y="20.72" data-x="1607472000" r="2.5" fill="white"><title>2020-12-09: 21</title></circle>
	<circle cx="463.80" cy="320.13" data-y="21.00" data-x="1607558400" r="2.5" fill="white"><title>2020-12-10: 21</title></circle>
	<circle cx="465.35" cy="326.17" data-y="18.69" data-x="1607644800" r="2.5" fill="white"><title>2020-12-11: 19</title></circle>
	<circle cx="466.90" cy="327.96" data-y="18.01" data-x="1607731200" r="2.5" fill="white"><title>2020-12-12: 18</title></circle>
	<circle cx="468.45" cy="330.63" data-y="16.98" data-x="1607817600" r="2.5" fill="white"><title>2020-12-13: 17</title></circle>
	<circle cx="470.00" cy="335.73" data-y="15.03" data-x="1607904000" r="2.5" fill="white"><title>2020-12-14: 15</title></circle>
</g>
</svg>
