<svg width="480" height="400" viewBox="0 0 480 400" xmlns="http://www.w3.org/2000/svg" style="overflow:display" preserveAspectRatio="xMinYMin meet" overflow="visible">
<defs>
	<style>
	.data-series path.line { fill-opacity: 0; stroke: black; }
	.data-series path.line.dotted { stroke-dasharray: 12 20 }
	.data-series:hover path.line, .data-series.on path.line { stroke-width: 1; }
	.data-series:hover circle, .data-series.on circle { display: inline; }
	.graph-grid { font-family: "Helvetica Neue",Helvetica,Arial,"Lucida Grande",sans-serif; }
	.graph-grid line { stroke: black; stroke-width: 1; stroke-linecap: round; }
	.graph-grid.graph-grid-x text { text-anchor: middle; dominant-baseline: hanging; transform: translateY(10px); }
	.graph-grid.graph-grid-y text { text-anchor: end; dominant-baseline: middle; transform: translateX(-10px); }
	</style>
</defs>
<g class="graph-grid graph-grid-y">
	<line x1="25.00" y1="375.00" x2="470.00" y2="375.00" data-left="25"></line>
	<text x="35" y="375" text-anchor="end">0</text>
	<text x="35" y="290.41781622088" text-anchor="end">20</text>
	<text x="35" y="205.83563244176" text-anchor="end">40</text>
	<text x="35" y="121.25344866264" text-anchor="end">60</text>
	<text x="35" y="36.6712648835203" text-anchor="end">80</text>
	<text style="text-anchor:middle;dominant-baseline:hanging;font-weight:bold;transform: translateY(192.5px) rotate(-90deg);"></text>
</g>
<g class="graph-grid graph-grid-x">
	<line class="tick" x1="27.84" y1="375.00" x2="27.84" y2="380.00"></line>
	<text x="27.8434504792332" y="375" text-anchor="middle">M</text>
	<line class="tick" x1="71.92" y1="375.00" x2="71.92" y2="380.00"></line>
	<text x="71.9169329073482" y="375" text-anchor="middle">A</text>
	<line class="tick" x1="114.57" y1="375.00" x2="114.57" y2="380.00"></line>
	<text x="114.568690095847" y="375" text-anchor="middle">M</text>
	<line class="tick" x1="158.64" y1="375.00" x2="158.64" y2="380.00"></line>
	<text x="158.642172523962" y="375" text-anchor="middle">J</text>
	<line class="tick" x1="201.29" y1="375.00" x2="201.29" y2="380.00"></line>
	<text x="201.29392971246" y="375" text-anchor="middle">J</text>
	<line class="tick" x1="245.37" y1="375.00" x2="245.37" y2="380.00"></line>
	<text x="245.367412140575" y="375" text-anchor="middle">A</text>
	<line class="tick" x1="289.44" y1="375.00" x2="289.44" y2="380.00"></line>
	<text x="289.44089456869" y="375" text-anchor="middle">S</text>
	<line class="tick" x1="332.09" y1="375.00" x2="332.09" y2="380.00"></line>
	<text x="332.092651757188" y="375" text-anchor="middle">O</text>
	<line class="tick" x1="376.17" y1="375.00" x2="376.17" y2="380.00"></line>
	<text x="376.166134185304" y="375" text-anchor="middle">N</text>
	<line class="tick" x1="418.82" y1="375.00" x2="418.82" y2="380.00"></line>
	<text x="418.817891373802" y="375" text-anchor="middle">D</text>
	<line class="tick" x1="462.89" y1="375.00" x2="462.89" y2="380.00"></line>
	<text x="462.891373801917" y="375" text-anchor="middle">J</text>
	<text style="text-anchor:middle;dominant-baseline:hanging;font-weight:bold;transform: translateY(192.5px) rotate(-90deg);"></text>
</g>
<g data-series="widespread" class="data-series">
	<path d="M 25.00,345.40L 470.00,345.40" id="E08000002-level-0" class="line" stroke-width="1" stroke-linecap="round" stroke-dasharray="3,3" fill-opacity="0.3" opacity="0.3"><title>Widespread</title></path>
</g>
<g data-series="substantial" class="data-series">
	<path d="M 25.00,358.08L 470.00,358.08" id="E08000002-level-1" class="line" stroke-width="1" stroke-linecap="round" stroke-dasharray="3,3" fill-opacity="0.3" opacity="0.3"><title>Substantial</title></path>
</g>
<g data-series="moderate" class="data-series">
	<path d="M 25.00,370.77L 470.00,370.77" id="E08000002-level-2" class="line" stroke-width="1" stroke-linecap="round" stroke-dasharray="3,3" fill-opacity="0.3" opacity="0.3"><title>Moderate</title></path>
</g>
<g data-series="new-cases" class="data-series">
	<path d="M 25.00,373.35L 26.42,373.68L 27.84,373.90L 29.27,374.06L 30.69,374.37L 32.11,374.06L 33.53,374.69L 34.95,374.69L 36.37,374.69L 37.80,374.69L 39.22,374.69L 40.64,373.74L 42.06,374.06L 43.48,374.06L 44.90,373.74L 46.33,373.11L 47.75,372.48L 49.17,371.85L 50.59,372.48L 52.01,371.85L 53.43,369.65L 54.86,369.02L 56.28,367.13L 57.70,366.81L 59.12,363.03L 60.54,360.51L 61.96,357.99L 63.39,357.99L 64.81,353.90L 66.23,354.21L 67.65,350.12L 69.07,352.01L 70.50,349.18L 71.92,348.86L 73.34,345.71L 74.76,343.19L 76.18,336.58L 77.60,334.06L 79.03,329.34L 80.45,328.71L 81.87,323.98L 83.29,324.30L 84.71,325.24L 86.13,330.60L 87.56,328.39L 88.98,327.76L 90.40,324.30L 91.82,320.83L 93.24,321.15L 94.66,320.20L 96.09,320.20L 97.51,323.67L 98.93,323.67L 100.35,324.93L 101.77,333.43L 103.19,335.32L 104.62,336.58L 106.04,331.86L 107.46,331.86L 108.88,334.69L 110.30,339.41L 111.73,340.36L 113.15,339.41L 114.57,342.25L 115.99,348.86L 117.41,349.49L 118.83,352.01L 120.26,352.96L 121.68,352.64L 123.10,353.58L 124.52,354.53L 125.94,352.33L 127.36,353.58L 128.79,351.38L 130.21,349.81L 131.63,348.86L 133.05,349.18L 134.47,346.34L 135.89,341.93L 137.32,332.80L 138.74,328.71L 140.16,326.82L 141.58,329.34L 143.00,329.02L 144.42,332.17L 145.85,336.89L 147.27,346.34L 148.69,352.64L 150.11,357.05L 151.53,354.53L 152.96,354.53L 154.38,353.90L 155.80,352.01L 157.22,354.21L 158.64,353.27L 160.06,352.33L 161.49,353.58L 162.91,355.16L 164.33,355.16L 165.75,358.94L 167.17,358.62L 168.59,359.88L 170.02,360.20L 171.44,359.57L 172.86,359.25L 174.28,359.57L 175.70,358.94L 177.12,360.20L 178.55,362.09L 179.97,363.98L 181.39,365.87L 182.81,367.44L 184.23,369.02L 185.65,370.28L 187.08,370.59L 188.50,370.59L 189.92,370.28L 191.34,370.59L 192.76,370.59L 194.19,369.96L 195.61,370.91L 197.03,370.28L 198.45,369.33L 199.87,368.70L 201.29,368.70L 202.72,368.39L 204.14,369.33L 205.56,369.02L 206.98,369.65L 208.40,370.59L 209.82,372.17L 211.25,372.80L 212.67,372.80L 214.09,373.11L 215.51,371.22L 216.93,371.85L 218.35,369.65L 219.78,369.02L 221.20,369.02L 222.62,368.39L 224.04,367.44L 225.46,369.33L 226.88,368.39L 228.31,370.28L 229.73,369.65L 231.15,368.39L 232.57,366.18L 233.99,365.24L 235.42,365.55L 236.84,365.24L 238.26,364.61L 239.68,362.72L 241.10,362.72L 242.52,363.98L 243.95,360.20L 245.37,357.05L 246.79,356.73L 248.21,356.73L 249.63,358.94L 251.05,358.94L 252.48,359.88L 253.90,361.77L 255.32,360.20L 256.74,358.31L 258.16,357.36L 259.58,355.79L 261.01,355.16L 262.43,354.84L 263.85,354.84L 265.27,356.42L 266.69,355.47L 268.12,355.16L 269.54,352.96L 270.96,352.33L 272.38,352.96L 273.80,354.53L 275.22,356.42L 276.65,358.94L 278.07,357.05L 279.49,359.25L 280.91,359.25L 282.33,357.99L 283.75,358.31L 285.18,355.16L 286.60,349.18L 288.02,346.97L 289.44,340.67L 290.86,338.15L 292.28,334.69L 293.71,330.91L 295.13,325.24L 296.55,323.67L 297.97,318.94L 299.39,317.68L 300.81,315.48L 302.24,315.79L 303.66,306.98L 305.08,302.25L 306.50,295.01L 307.92,287.14L 309.35,280.84L 310.77,274.54L 312.19,262.89L 313.61,258.16L 315.03,251.86L 316.45,248.40L 317.88,248.40L 319.30,243.68L 320.72,243.99L 322.14,248.08L 323.56,240.21L 324.98,234.86L 326.41,228.87L 327.83,223.21L 329.25,221.00L 330.67,216.91L 332.09,212.81L 333.51,197.70L 334.94,190.14L 336.36,178.17L 337.78,170.30L 339.20,163.68L 340.62,158.33L 342.04,147.62L 343.47,139.12L 344.89,137.23L 346.31,145.10L 347.73,139.43L 349.15,131.88L 350.58,125.58L 352.00,120.85L 353.42,113.93L 354.84,92.20L 356.26,72.67L 357.68,69.84L 359.11,62.59L 360.53,50.63L 361.95,52.52L 363.37,48.42L 364.79,54.40L 366.21,52.83L 367.64,40.55L 369.06,34.25L 370.48,32.99L 371.90,26.06L 373.32,15.98L 374.74,10.00L 376.17,10.94L 377.59,14.09L 379.01,21.34L 380.43,29.84L 381.85,31.42L 383.27,43.38L 384.70,56.92L 386.12,56.92L 387.54,76.45L 388.96,86.21L 390.38,94.72L 391.81,106.05L 393.23,128.41L 394.65,135.34L 396.07,157.70L 397.49,165.89L 398.91,175.65L 400.34,185.10L 401.76,193.60L 403.18,205.57L 404.60,217.54L 406.02,223.84L 407.44,233.28L 408.87,243.36L 410.29,245.25L 411.71,253.44L 413.13,243.68L 414.55,243.99L 415.97,242.10L 417.40,238.95L 418.82,238.32L 420.24,238.01L 421.66,234.86L 423.08,234.86L 424.50,241.47L 425.93,246.82L 427.35,249.03L 428.77,247.77L 430.19,252.49L 431.61,246.51L 433.04,257.53L 434.46,256.59L 435.88,260.05L 437.30,259.42L 438.72,257.22L 440.14,249.97L 441.57,249.34L 442.99,244.31L 444.41,238.64L 445.83,234.23L 447.25,223.21L 448.67,233.60L 450.10,232.65L 451.52,217.54L 452.94,211.55L 454.36,193.29L 455.78,176.28L 457.20,172.82L 458.63,162.11L 460.05,141.01L 461.47,131.25L 462.89,127.47" id="New cases" class="line" stroke-width="1" stroke-linecap="round"><title>New cases</title></path>
	<circle cx="25.00" cy="373.35" data-y="0.39" data-x="1582848000" r="1" fill="white"><title>2020-02-28: 0</title></circle>
	<circle cx="26.42" cy="373.68" data-y="0.31" data-x="1582934400" r="1" fill="white"><title>2020-02-29: 0</title></circle>
	<circle cx="27.84" cy="373.90" data-y="0.26" data-x="1583020800" r="1" fill="white"><title>2020-03-01: 0</title></circle>
	<circle cx="29.27" cy="374.06" data-y="0.22" data-x="1583107200" r="1" fill="white"><title>2020-03-02: 0</title></circle>
	<circle cx="30.69" cy="374.37" data-y="0.15" data-x="1583193600" r="1" fill="white"><title>2020-03-03: 0</title></circle>
	<circle cx="32.11" cy="374.06" data-y="0.22" data-x="1583280000" r="1" fill="white"><title>2020-03-04: 0</title></circle>
	<circle cx="33.53" cy="374.69" data-y="0.07" data-x="1583366400" r="1" fill="white"><title>2020-03-05: 0</title></circle>
	<circle cx="34.95" cy="374.69" data-y="0.07" data-x="1583452800" r="1" fill="white"><title>2020-03-06: 0</title></circle>
	<circle cx="36.37" cy="374.69" data-y="0.07" data-x="1583539200" r="1" fill="white"><title>2020-03-07: 0</title></circle>
	<circle cx="37.80" cy="374.69" data-y="0.07" data-x="1583625600" r="1" fill="white"><title>2020-03-08: 0</title></circle>
	<circle cx="39.22" cy="374.69" data-y="0.07" data-x="1583712000" r="1" fill="white"><title>2020-03-09: 0</title></circle>
	<circle cx="40.64" cy="373.74" data-y="0.30" data-x="1583798400" r="1" fill="white"><title>2020-03-10: 0</title></circle>
	<circle cx="42.06" cy="374.06" data-y="0.22" data-x="1583884800" r="1" fill="white"><title>2020-03-11: 0</title></circle>
	<circle cx="43.48" cy="374.06" data-y="0.22" data-x="1583971200" r="1" fill="white"><title>2020-03-12: 0</title></circle>
	<circle cx="44.90" cy="373.74" data-y="0.30" data-x="1584057600" r="1" fill="white"><title>2020-03-13: 0</title></circle>
	<circle cx="46.33" cy="373.11" data-y="0.45" data-x="1584144000" r="1" fill="white"><title>2020-03-14: 0</title></circle>
	<circle cx="47.75" cy="372.48" data-y="0.60" data-x="1584230400" r="1" fill="white"><title>2020-03-15: 1</title></circle>
	<circle cx="49.17" cy="371.85" data-y="0.74" data-x="1584316800" r="1" fill="white"><title>2020-03-16: 1</title></circle>
	<circle cx="50.59" cy="372.48" data-y="0.60" data-x="1584403200" r="1" fill="white"><title>2020-03-17: 1</title></circle>
	<circle cx="52.01" cy="371.85" data-y="0.74" data-x="1584489600" r="1" fill="white"><title>2020-03-18: 1</title></circle>
	<circle cx="53.43" cy="369.65" data-y="1.27" data-x="1584576000" r="1" fill="white"><title>2020-03-19: 1</title></circle>
	<circle cx="54.86" cy="369.02" data-y="1.41" data-x="1584662400" r="1" fill="white"><title>2020-03-20: 1</title></circle>
	<circle cx="56.28" cy="367.13" data-y="1.86" data-x="1584748800" r="1" fill="white"><title>2020-03-21: 2</title></circle>
	<circle cx="57.70" cy="366.81" data-y="1.94" data-x="1584835200" r="1" fill="white"><title>2020-03-22: 2</title></circle>
	<circle cx="59.12" cy="363.03" data-y="2.83" data-x="1584921600" r="1" fill="white"><title>2020-03-23: 3</title></circle>
	<circle cx="60.54" cy="360.51" data-y="3.43" data-x="1585008000" r="1" fill="white"><title>2020-03-24: 3</title></circle>
	<circle cx="61.96" cy="357.99" data-y="4.02" data-x="1585094400" r="1" fill="white"><title>2020-03-25: 4</title></circle>
	<circle cx="63.39" cy="357.99" data-y="4.02" data-x="1585180800" r="1" fill="white"><title>2020-03-26: 4</title></circle>
	<circle cx="64.81" cy="353.90" data-y="4.99" data-x="1585267200" r="1" fill="white"><title>2020-03-27: 5</title></circle>
	<circle cx="66.23" cy="354.21" data-y="4.91" data-x="1585353600" r="1" fill="white"><title>2020-03-28: 5</title></circle>
	<circle cx="67.65" cy="350.12" data-y="5.88" data-x="1585440000" r="1" fill="white"><title>2020-03-29: 6</title></circle>
	<circle cx="69.07" cy="352.01" data-y="5.44" data-x="1585526400" r="1" fill="white"><title>2020-03-30: 5</title></circle>
	<circle cx="70.50" cy="349.18" data-y="6.11" data-x="1585612800" r="1" fill="white"><title>2020-03-31: 6</title></circle>
	<circle cx="71.92" cy="348.86" data-y="6.18" data-x="1585699200" r="1" fill="white"><title>2020-04-01: 6</title></circle>
	<circle cx="73.34" cy="345.71" data-y="6.93" data-x="1585785600" r="1" fill="white"><title>2020-04-02: 7</title></circle>
	<circle cx="74.76" cy="343.19" data-y="7.52" data-x="1585872000" r="1" fill="white"><title>2020-04-03: 8</title></circle>
	<circle cx="76.18" cy="336.58" data-y="9.08" data-x="1585958400" r="1" fill="white"><title>2020-04-04: 9</title></circle>
	<circle cx="77.60" cy="334.06" data-y="9.68" data-x="1586044800" r="1" fill="white"><title>2020-04-05: 10</title></circle>
	<circle cx="79.03" cy="329.34" data-y="10.80" data-x="1586131200" r="1" fill="white"><title>2020-04-06: 11</title></circle>
	<circle cx="80.45" cy="328.71" data-y="10.95" data-x="1586217600" r="1" fill="white"><title>2020-04-07: 11</title></circle>
	<circle cx="81.87" cy="323.98" data-y="12.06" data-x="1586304000" r="1" fill="white"><title>2020-04-08: 12</title></circle>
	<circle cx="83.29" cy="324.30" data-y="11.99" data-x="1586390400" r="1" fill="white"><title>2020-04-09: 12</title></circle>
	<circle cx="84.71" cy="325.24" data-y="11.77" data-x="1586476800" r="1" fill="white"><title>2020-04-10: 12</title></circle>
	<circle cx="86.13" cy="330.60" data-y="10.50" data-x="1586563200" r="1" fill="white"><title>2020-04-11: 10</title></circle>
	<circle cx="87.56" cy="328.39" data-y="11.02" data-x="1586649600" r="1" fill="white"><title>2020-04-12: 11</title></circle>
	<circle cx="88.98" cy="327.76" data-y="11.17" data-x="1586736000" r="1" fill="white"><title>2020-04-13: 11</title></circle>
	<circle cx="90.40" cy="324.30" data-y="11.99" data-x="1586822400" r="1" fill="white"><title>2020-04-14: 12</title></circle>
	<circle cx="91.82" cy="320.83" data-y="12.81" data-x="1586908800" r="1" fill="white"><title>2020-04-15: 13</title></circle>
	<circle cx="93.24" cy="321.15" data-y="12.73" data-x="1586995200" r="1" fill="white"><title>2020-04-16: 13</title></circle>
	<circle cx="94.66" cy="320.20" data-y="12.96" data-x="1587081600" r="1" fill="white"><title>2020-04-17: 13</title></circle>
	<circle cx="96.09" cy="320.20" data-y="12.96" data-x="1587168000" r="1" fill="white"><title>2020-04-18: 13</title></circle>
	<circle cx="97.51" cy="323.67" data-y="12.14" data-x="1587254400" r="1" fill="white"><title>2020-04-19: 12</title></circle>
	<circle cx="98.93" cy="323.67" data-y="12.14" data-x="1587340800" r="1" fill="white"><title>2020-04-20: 12</title></circle>
	<circle cx="100.35" cy="324.93" data-y="11.84" data-x="1587427200" r="1" fill="white"><title>2020-04-21: 12</title></circle>
	<circle cx="101.77" cy="333.43" data-y="9.83" data-x="1587513600" r="1" fill="white"><title>2020-04-22: 10</title></circle>
	<circle cx="103.19" cy="335.32" data-y="9.38" data-x="1587600000" r="1" fill="white"><title>2020-04-23: 9</title></circle>
	<circle cx="104.62" cy="336.58" data-y="9.08" data-x="1587686400" r="1" fill="white"><title>2020-04-24: 9</title></circle>
	<circle cx="106.04" cy="331.86" data-y="10.20" data-x="1587772800" r="1" fill="white"><title>2020-04-25: 10</title></circle>
	<circle cx="107.46" cy="331.86" data-y="10.20" data-x="1587859200" r="1" fill="white"><title>2020-04-26: 10</title></circle>
	<circle cx="108.88" cy="334.69" data-y="9.53" data-x="1587945600" r="1" fill="white"><title>2020-04-27: 10</title></circle>
	<circle cx="110.30" cy="339.41" data-y="8.41" data-x="1588032000" r="1" fill="white"><title>2020-04-28: 8</title></circle>
	<circle cx="111.73" cy="340.36" data-y="8.19" data-x="1588118400" r="1" fill="white"><title>2020-04-29: 8</title></circle>
	<circle cx="113.15" cy="339.41" data-y="8.41" data-x="1588204800" r="1" fill="white"><title>2020-04-30: 8</title></circle>
	<circle cx="114.57" cy="342.25" data-y="7.74" data-x="1588291200" r="1" fill="white"><title>2020-05-01: 8</title></circle>
	<circle cx="115.99" cy="348.86" data-y="6.18" data-x="1588377600" r="1" fill="white"><title>2020-05-02: 6</title></circle>
	<circle cx="117.41" cy="349.49" data-y="6.03" data-x="1588464000" r="1" fill="white"><title>2020-05-03: 6</title></circle>
	<circle cx="118.83" cy="352.01" data-y="5.44" data-x="1588550400" r="1" fill="white"><title>2020-05-04: 5</title></circle>
	<circle cx="120.26" cy="352.96" data-y="5.21" data-x="1588636800" r="1" fill="white"><title>2020-05-05: 5</title></circle>
	<circle cx="121.68" cy="352.64" data-y="5.29" data-x="1588723200" r="1" fill="white"><title>2020-05-06: 5</title></circle>
	<circle cx="123.10" cy="353.58" data-y="5.06" data-x="1588809600" r="1" fill="white"><title>2020-05-07: 5</title></circle>
	<circle cx="124.52" cy="354.53" data-y="4.84" data-x="1588896000" r="1" fill="white"><title>2020-05-08: 5</title></circle>
	<circle cx="125.94" cy="352.33" data-y="5.36" data-x="1588982400" r="1" fill="white"><title>2020-05-09: 5</title></circle>
	<circle cx="127.36" cy="353.58" data-y="5.06" data-x="1589068800" r="1" fill="white"><title>2020-05-10: 5</title></circle>
	<circle cx="128.79" cy="351.38" data-y="5.58" data-x="1589155200" r="1" fill="white"><title>2020-05-11: 6</title></circle>
	<circle cx="130.21" cy="349.81" data-y="5.96" data-x="1589241600" r="1" fill="white"><title>2020-05-12: 6</title></circle>
	<circle cx="131.63" cy="348.86" data-y="6.18" data-x="1589328000" r="1" fill="white"><title>2020-05-13: 6</title></circle>
	<circle cx="133.05" cy="349.18" data-y="6.11" data-x="1589414400" r="1" fill="white"><title>2020-05-14: 6</title></circle>
	<circle cx="134.47" cy="346.34" data-y="6.78" data-x="1589500800" r="1" fill="white"><title>2020-05-15: 7</title></circle>
	<circle cx="135.89" cy="341.93" data-y="7.82" data-x="1589587200" r="1" fill="white"><title>2020-05-16: 8</title></circle>
	<circle cx="137.32" cy="332.80" data-y="9.98" data-x="1589673600" r="1" fill="white"><title>2020-05-17: 10</title></circle>
	<circle cx="138.74" cy="328.71" data-y="10.95" data-x="1589760000" r="1" fill="white"><title>2020-05-18: 11</title></circle>
	<circle cx="140.16" cy="326.82" data-y="11.39" data-x="1589846400" r="1" fill="white"><title>2020-05-19: 11</title></circle>
	<circle cx="141.58" cy="329.34" data-y="10.80" data-x="1589932800" r="1" fill="white"><title>2020-05-20: 11</title></circle>
	<circle cx="143.00" cy="329.02" data-y="10.87" data-x="1590019200" r="1" fill="white"><title>2020-05-21: 11</title></circle>
	<circle cx="144.42" cy="332.17" data-y="10.13" data-x="1590105600" r="1" fill="white"><title>2020-05-22: 10</title></circle>
	<circle cx="145.85" cy="336.89" data-y="9.01" data-x="1590192000" r="1" fill="white"><title>2020-05-23: 9</title></circle>
	<circle cx="147.27" cy="346.34" data-y="6.78" data-x="1590278400" r="1" fill="white"><title>2020-05-24: 7</title></circle>
	<circle cx="148.69" cy="352.64" data-y="5.29" data-x="1590364800" r="1" fill="white"><title>2020-05-25: 5</title></circle>
	<circle cx="150.11" cy="357.05" data-y="4.24" data-x="1590451200" r="1" fill="white"><title>2020-05-26: 4</title></circle>
	<circle cx="151.53" cy="354.53" data-y="4.84" data-x="1590537600" r="1" fill="white"><title>2020-05-27: 5</title></circle>
	<circle cx="152.96" cy="354.53" data-y="4.84" data-x="1590624000" r="1" fill="white"><title>2020-05-28: 5</title></circle>
	<circle cx="154.38" cy="353.90" data-y="4.99" data-x="1590710400" r="1" fill="white"><title>2020-05-29: 5</title></circle>
	<circle cx="155.80" cy="352.01" data-y="5.44" data-x="1590796800" r="1" fill="white"><title>2020-05-30: 5</title></circle>
	<circle cx="157.22" cy="354.21" data-y="4.91" data-x="1590883200" r="1" fill="white"><title>2020-05-31: 5</title></circle>
	<circle cx="158.64" cy="353.27" data-y="5.14" data-x="1590969600" r="1" fill="white"><title>2020-06-01: 5</title></circle>
	<circle cx="160.06" cy="352.33" data-y="5.36" data-x="1591056000" r="1" fill="white"><title>2020-06-02: 5</title></circle>
	<circle cx="161.49" cy="353.58" data-y="5.06" data-x="1591142400" r="1" fill="white"><title>2020-06-03: 5</title></circle>
	<circle cx="162.91" cy="355.16" data-y="4.69" data-x="1591228800" r="1" fill="white"><title>2020-06-04: 5</title></circle>
	<circle cx="164.33" cy="355.16" data-y="4.69" data-x="1591315200" r="1" fill="white"><title>2020-06-05: 5</title></circle>
	<circle cx="165.75" cy="358.94" data-y="3.80" data-x="1591401600" r="1" fill="white"><title>2020-06-06: 4</title></circle>
	<circle cx="167.17" cy="358.62" data-y="3.87" data-x="1591488000" r="1" fill="white"><title>2020-06-07: 4</title></circle>
	<circle cx="168.59" cy="359.88" data-y="3.57" data-x="1591574400" r="1" fill="white"><title>2020-06-08: 4</title></circle>
	<circle cx="170.02" cy="360.20" data-y="3.50" data-x="1591660800" r="1" fill="white"><title>2020-06-09: 3</title></circle>
	<circle cx="171.44" cy="359.57" data-y="3.65" data-x="1591747200" r="1" fill="white"><title>2020-06-10: 4</title></circle>
	<circle cx="172.86" cy="359.25" data-y="3.72" data-x="1591833600" r="1" fill="white"><title>2020-06-11: 4</title></circle>
	<circle cx="174.28" cy="359.57" data-y="3.65" data-x="1591920000" r="1" fill="white"><title>2020-06-12: 4</title></circle>
	<circle cx="175.70" cy="358.94" data-y="3.80" data-x="1592006400" r="1" fill="white"><title>2020-06-13: 4</title></circle>
	<circle cx="177.12" cy="360.20" data-y="3.50" data-x="1592092800" r="1" fill="white"><title>2020-06-14: 3</title></circle>
	<circle cx="178.55" cy="362.09" data-y="3.05" data-x="1592179200" r="1" fill="white"><title>2020-06-15: 3</title></circle>
	<circle cx="179.97" cy="363.98" data-y="2.61" data-x="1592265600" r="1" fill="white"><title>2020-06-16: 3</title></circle>
	<circle cx="181.39" cy="365.87" data-y="2.16" data-x="1592352000" r="1" fill="white"><title>2020-06-17: 2</title></circle>
	<circle cx="182.81" cy="367.44" data-y="1.79" data-x="1592438400" r="1" fill="white"><title>2020-06-18: 2</title></circle>
	<circle cx="184.23" cy="369.02" data-y="1.41" data-x="1592524800" r="1" fill="white"><title>2020-06-19: 1</title></circle>
	<circle cx="185.65" cy="370.28" data-y="1.12" data-x="1592611200" r="1" fill="white"><title>2020-06-20: 1</title></circle>
	<circle cx="187.08" cy="370.59" data-y="1.04" data-x="1592697600" r="1" fill="white"><title>2020-06-21: 1</title></circle>
	<circle cx="188.50" cy="370.59" data-y="1.04" data-x="1592784000" r="1" fill="white"><title>2020-06-22: 1</title></circle>
	<circle cx="189.92" cy="370.28" data-y="1.12" data-x="1592870400" r="1" fill="white"><title>2020-06-23: 1</title></circle>
	<circle cx="191.34" cy="370.59" data-y="1.04" data-x="1592956800" r="1" fill="white"><title>2020-06-24: 1</title></circle>
	<circle cx="192.76" cy="370.59" data-y="1.04" data-x="1593043200" r="1" fill="white"><title>2020-06-25: 1</title></circle>
	<circle cx="194.19" cy="369.96" data-y="1.19" data-x="1593129600" r="1" fill="white"><title>2020-06-26: 1</title></circle>
	<circle cx="195.61" cy="370.91" data-y="0.97" data-x="1593216000" r="1" fill="white"><title>2020-06-27: 1</title></circle>
	<circle cx="197.03" cy="370.28" data-y="1.12" data-x="1593302400" r="1" fill="white"><title>2020-06-28: 1</title></circle>
	<circle cx="198.45" cy="369.33" data-y="1.34" data-x="1593388800" r="1" fill="white"><title>2020-06-29: 1</title></circle>
	<circle cx="199.87" cy="368.70" data-y="1.49" data-x="1593475200" r="1" fill="white"><title>2020-06-30: 1</title></circle>
	<circle cx="201.29" cy="368.70" data-y="1.49" data-x="1593561600" r="1" fill="white"><title>2020-07-01: 1</title></circle>
	<circle cx="202.72" cy="368.39" data-y="1.56" data-x="1593648000" r="1" fill="white"><title>2020-07-02: 2</title></circle>
	<circle cx="204.14" cy="369.33" data-y="1.34" data-x="1593734400" r="1" fill="white"><title>2020-07-03: 1</title></circle>
	<circle cx="205.56" cy="369.02" data-y="1.41" data-x="1593820800" r="1" fill="white"><title>2020-07-04: 1</title></circle>
	<circle cx="206.98" cy="369.65" data-y="1.27" data-x="1593907200" r="1" fill="white"><title>2020-07-05: 1</title></circle>
	<circle cx="208.40" cy="370.59" data-y="1.04" data-x="1593993600" r="1" fill="white"><title>2020-07-06: 1</title></circle>
	<circle cx="209.82" cy="372.17" data-y="0.67" data-x="1594080000" r="1" fill="white"><title>2020-07-07: 1</title></circle>
	<circle cx="211.25" cy="372.80" data-y="0.52" data-x="1594166400" r="1" fill="white"><title>2020-07-08: 1</title></circle>
	<circle cx="212.67" cy="372.80" data-y="0.52" data-x="1594252800" r="1" fill="white"><title>2020-07-09: 1</title></circle>
	<circle cx="214.09" cy="373.11" data-y="0.45" data-x="1594339200" r="1" fill="white"><title>2020-07-10: 0</title></circle>
	<circle cx="215.51" cy="371.22" data-y="0.89" data-x="1594425600" r="1" fill="white"><title>2020-07-11: 1</title></circle>
	<circle cx="216.93" cy="371.85" data-y="0.74" data-x="1594512000" r="1" fill="white"><title>2020-07-12: 1</title></circle>
	<circle cx="218.35" cy="369.65" data-y="1.27" data-x="1594598400" r="1" fill="white"><title>2020-07-13: 1</title></circle>
	<circle cx="219.78" cy="369.02" data-y="1.41" data-x="1594684800" r="1" fill="white"><title>2020-07-14: 1</title></circle>
	<circle cx="221.20" cy="369.02" data-y="1.41" data-x="1594771200" r="1" fill="white"><title>2020-07-15: 1</title></circle>
	<circle cx="222.62" cy="368.39" data-y="1.56" data-x="1594857600" r="1" fill="white"><title>2020-07-16: 2</title></circle>
	<circle cx="224.04" cy="367.44" data-y="1.79" data-x="1594944000" r="1" fill="white"><title>2020-07-17: 2</title></circle>
	<circle cx="225.46" cy="369.33" data-y="1.34" data-x="1595030400" r="1" fill="white"><title>2020-07-18: 1</title></circle>
	<circle cx="226.88" cy="368.39" data-y="1.56" data-x="1595116800" r="1" fill="white"><title>2020-07-19: 2</title></circle>
	<circle cx="228.31" cy="370.28" data-y="1.12" data-x="1595203200" r="1" fill="white"><title>2020-07-20: 1</title></circle>
	<circle cx="229.73" cy="369.65" data-y="1.27" data-x="1595289600" r="1" fill="white"><title>2020-07-21: 1</title></circle>
	<circle cx="231.15" cy="368.39" data-y="1.56" data-x="1595376000" r="1" fill="white"><title>2020-07-22: 2</title></circle>
	<circle cx="232.57" cy="366.18" data-y="2.09" data-x="1595462400" r="1" fill="white"><title>2020-07-23: 2</title></circle>
	<circle cx="233.99" cy="365.24" data-y="2.31" data-x="1595548800" r="1" fill="white"><title>2020-07-24: 2</title></circle>
	<circle cx="235.42" cy="365.55" data-y="2.23" data-x="1595635200" r="1" fill="white"><title>2020-07-25: 2</title></circle>
	<circle cx="236.84" cy="365.24" data-y="2.31" data-x="1595721600" r="1" fill="white"><title>2020-07-26: 2</title></circle>
	<circle cx="238.26" cy="364.61" data-y="2.46" data-x="1595808000" r="1" fill="white"><title>2020-07-27: 2</title></circle>
	<circle cx="239.68" cy="362.72" data-y="2.90" data-x="1595894400" r="1" fill="white"><title>2020-07-28: 3</title></circle>
	<circle cx="241.10" cy="362.72" data-y="2.90" data-x="1595980800" r="1" fill="white"><title>2020-07-29: 3</title></circle>
	<circle cx="242.52" cy="363.98" data-y="2.61" data-x="1596067200" r="1" fill="white"><title>2020-07-30: 3</title></circle>
	<circle cx="243.95" cy="360.20" data-y="3.50" data-x="1596153600" r="1" fill="white"><title>2020-07-31: 3</title></circle>
	<circle cx="245.37" cy="357.05" data-y="4.24" data-x="1596240000" r="1" fill="white"><title>2020-08-01: 4</title></circle>
	<circle cx="246.79" cy="356.73" data-y="4.32" data-x="1596326400" r="1" fill="white"><title>2020-08-02: 4</title></circle>
	<circle cx="248.21" cy="356.73" data-y="4.32" data-x="1596412800" r="1" fill="white"><title>2020-08-03: 4</title></circle>
	<circle cx="249.63" cy="358.94" data-y="3.80" data-x="1596499200" r="1" fill="white"><title>2020-08-04: 4</title></circle>
	<circle cx="251.05" cy="358.94" data-y="3.80" data-x="1596585600" r="1" fill="white"><title>2020-08-05: 4</title></circle>
	<circle cx="252.48" cy="359.88" data-y="3.57" data-x="1596672000" r="1" fill="white"><title>2020-08-06: 4</title></circle>
	<circle cx="253.90" cy="361.77" data-y="3.13" data-x="1596758400" r="1" fill="white"><title>2020-08-07: 3</title></circle>
	<circle cx="255.32" cy="360.20" data-y="3.50" data-x="1596844800" r="1" fill="white"><title>2020-08-08: 3</title></circle>
	<circle cx="256.74" cy="358.31" data-y="3.95" data-x="1596931200" r="1" fill="white"><title>2020-08-09: 4</title></circle>
	<circle cx="258.16" cy="357.36" data-y="4.17" data-x="1597017600" r="1" fill="white"><title>2020-08-10: 4</title></circle>
	<circle cx="259.58" cy="355.79" data-y="4.54" data-x="1597104000" r="1" fill="white"><title>2020-08-11: 5</title></circle>
	<circle cx="261.01" cy="355.16" data-y="4.69" data-x="1597190400" r="1" fill="white"><title>2020-08-12: 5</title></circle>
	<circle cx="262.43" cy="354.84" data-y="4.77" data-x="1597276800" r="1" fill="white"><title>2020-08-13: 5</title></circle>
	<circle cx="263.85" cy="354.84" data-y="4.77" data-x="1597363200" r="1" fill="white"><title>2020-08-14: 5</title></circle>
	<circle cx="265.27" cy="356.42" data-y="4.39" data-x="1597449600" r="1" fill="white"><title>2020-08-15: 4</title></circle>
	<circle cx="266.69" cy="355.47" data-y="4.62" data-x="1597536000" r="1" fill="white"><title>2020-08-16: 5</title></circle>
	<circle cx="268.12" cy="355.16" data-y="4.69" data-x="1597622400" r="1" fill="white"><title>2020-08-17: 5</title></circle>
	<circle cx="269.54" cy="352.96" data-y="5.21" data-x="1597708800" r="1" fill="white"><title>2020-08-18: 5</title></circle>
	<circle cx="270.96" cy="352.33" data-y="5.36" data-x="1597795200" r="1" fill="white"><title>2020-08-19: 5</title></circle>
	<circle cx="272.38" cy="352.96" data-y="5.21" data-x="1597881600" r="1" fill="white"><title>2020-08-20: 5</title></circle>
	<circle cx="273.80" cy="354.53" data-y="4.84" data-x="1597968000" r="1" fill="white"><title>2020-08-21: 5</title></circle>
	<circle cx="275.22" cy="356.42" data-y="4.39" data-x="1598054400" r="1" fill="white"><title>2020-08-22: 4</title></circle>
	<circle cx="276.65" cy="358.94" data-y="3.80" data-x="1598140800" r="1" fill="white"><title>2020-08-23: 4</title></circle>
	<circle cx="278.07" cy="357.05" data-y="4.24" data-x="1598227200" r="1" fill="white"><title>2020-08-24: 4</title></circle>
	<circle cx="279.49" cy="359.25" data-y="3.72" data-x="1598313600" r="1" fill="white"><title>2020-08-25: 4</title></circle>
	<circle cx="280.91" cy="359.25" data-y="3.72" data-x="1598400000" r="1" fill="white"><title>2020-08-26: 4</title></circle>
	<circle cx="282.33" cy="357.99" data-y="4.02" data-x="1598486400" r="1" fill="white"><title>2020-08-27: 4</title></circle>
	<circle cx="283.75" cy="358.31" data-y="3.95" data-x="1598572800" r="1" fill="white"><title>2020-08-28: 4</title></circle>
	<circle cx="285.18" cy="355.16" data-y="4.69" data-x="1598659200" r="1" fill="white"><title>2020-08-29: 5</title></circle>
	<circle cx="286.60" cy="349.18" data-y="6.11" data-x="1598745600" r="1" fill="white"><title>2020-08-30: 6</title></circle>
	<circle cx="288.02" cy="346.97" data-y="6.63" data-x="1598832000" r="1" fill="white"><title>2020-08-31: 7</title></circle>
	<circle cx="289.44" cy="340.67" data-y="8.12" data-x="1598918400" r="1" fill="white"><title>2020-09-01: 8</title></circle>
	<circle cx="290.86" cy="338.15" data-y="8.71" data-x="1599004800" r="1" fill="white"><title>2020-09-02: 9</title></circle>
	<circle cx="292.28" cy="334.69" data-y="9.53" data-x="1599091200" r="1" fill="white"><title>2020-09-03: 10</title></circle>
	<circle cx="293.71" cy="330.91" data-y="10.43" data-x="1599177600" r="1" fill="white"><title>2020-09-04: 10</title></circle>
	<circle cx="295.13" cy="325.24" data-y="11.77" data-x="1599264000" r="1" fill="white"><title>2020-09-05: 12</title></circle>
	<circle cx="296.55" cy="323.67" data-y="12.14" data-x="1599350400" r="1" fill="white"><title>2020-09-06: 12</title></circle>
	<circle cx="297.97" cy="318.94" data-y="13.26" data-x="1599436800" r="1" fill="white"><title>2020-09-07: 13</title></circle>
	<circle cx="299.39" cy="317.68" data-y="13.55" data-x="1599523200" r="1" fill="white"><title>2020-09-08: 14</title></circle>
	<circle cx="300.81" cy="315.48" data-y="14.07" data-x="1599609600" r="1" fill="white"><title>2020-09-09: 14</title></circle>
	<circle cx="302.24" cy="315.79" data-y="14.00" data-x="1599696000" r="1" fill="white"><title>2020-09-10: 14</title></circle>
	<circle cx="303.66" cy="306.98" data-y="16.08" data-x="1599782400" r="1" fill="white"><title>2020-09-11: 16</title></circle>
	<circle cx="305.08" cy="302.25" data-y="17.20" data-x="1599868800" r="1" fill="white"><title>2020-09-12: 17</title></circle>
	<circle cx="306.50" cy="295.01" data-y="18.91" data-x="1599955200" r="1" fill="white"><title>2020-09-13: 19</title></circle>
	<circle cx="307.92" cy="287.14" data-y="20.78" data-x="1600041600" r="1" fill="white"><title>2020-09-14: 21</title></circle>
	<circle cx="309.35" cy="280.84" data-y="22.27" data-x="1600128000" r="1" fill="white"><title>2020-09-15: 22</title></circle>
	<circle cx="310.77" cy="274.54" data-y="23.75" data-x="1600214400" r="1" fill="white"><title>2020-09-16: 24</title></circle>
	<circle cx="312.19" cy="262.89" data-y="26.51" data-x="1600300800" r="1" fill="white"><title>2020-09-17: 27</title></circle>
	<circle cx="313.61" cy="258.16" data-y="27.63" data-x="1600387200" r="1" fill="white"><title>2020-09-18: 28</title></circle>
	<circle cx="315.03" cy="251.86" data-y="29.12" data-x="1600473600" r="1" fill="white"><title>2020-09-19: 29</title></circle>
	<circle cx="316.45" cy="248.40" data-y="29.94" data-x="1600560000" r="1" fill="white"><title>2020-09-20: 30</title></circle>
	<circle cx="317.88" cy="248.40" data-y="29.94" data-x="1600646400" r="1" fill="white"><title>2020-09-21: 30</title></circle>
	<circle cx="319.30" cy="243.68" data-y="31.05" data-x="1600732800" r="1" fill="white"><title>2020-09-22: 31</title></circle>
	<circle cx="320.72" cy="243.99" data-y="30.98" data-x="1600819200" r="1" fill="white"><title>2020-09-23: 31</title></circle>
	<circle cx="322.14" cy="248.08" data-y="30.01" data-x="1600905600" r="1" fill="white"><title>2020-09-24: 30</title></circle>
	<circle cx="323.56" cy="240.21" data-y="31.87" data-x="1600992000" r="1" fill="white"><title>2020-09-25: 32</title></circle>
	<circle cx="324.98" cy="234.86" data-y="33.14" data-x="1601078400" r="1" fill="white"><title>2020-09-26: 33</title></circle>
	<circle cx="326.41" cy="228.87" data-y="34.55" data-x="1601164800" r="1" fill="white"><title>2020-09-27: 35</title></circle>
	<circle cx="327.83" cy="223.21" data-y="35.89" data-x="1601251200" r="1" fill="white"><title>2020-09-28: 36</title></circle>
	<circle cx="329.25" cy="221.00" data-y="36.41" data-x="1601337600" r="1" fill="white"><title>2020-09-29: 36</title></circle>
	<circle cx="330.67" cy="216.91" data-y="37.38" data-x="1601424000" r="1" fill="white"><title>2020-09-30: 37</title></circle>
	<circle cx="332.09" cy="212.81" data-y="38.35" data-x="1601510400" r="1" fill="white"><title>2020-10-01: 38</title></circle>
	<circle cx="333.51" cy="197.70" data-y="41.92" data-x="1601596800" r="1" fill="white"><title>2020-10-02: 42</title></circle>
	<circle cx="334.94" cy="190.14" data-y="43.71" data-x="1601683200" r="1" fill="white"><title>2020-10-03: 44</title></circle>
	<circle cx="336.36" cy="178.17" data-y="46.54" data-x="1601769600" r="1" fill="white"><title>2020-10-04: 47</title></circle>
	<circle cx="337.78" cy="170.30" data-y="48.40" data-x="1601856000" r="1" fill="white"><title>2020-10-05: 48</title></circle>
	<circle cx="339.20" cy="163.68" data-y="49.97" data-x="1601942400" r="1" fill="white"><title>2020-10-06: 50</title></circle>
	<circle cx="340.62" cy="158.33" data-y="51.23" data-x="1602028800" r="1" fill="white"><title>2020-10-07: 51</title></circle>
	<circle cx="342.04" cy="147.62" data-y="53.76" data-x="1602115200" r="1" fill="white"><title>2020-10-08: 54</title></circle>
	<circle cx="343.47" cy="139.12" data-y="55.78" data-x="1602201600" r="1" fill="white"><title>2020-10-09: 56</title></circle>
	<circle cx="344.89" cy="137.23" data-y="56.22" data-x="1602288000" r="1" fill="white"><title>2020-10-10: 56</title></circle>
	<circle cx="346.31" cy="145.10" data-y="54.36" data-x="1602374400" r="1" fill="white"><title>2020-10-11: 54</title></circle>
	<circle cx="347.73" cy="139.43" data-y="55.70" data-x="1602460800" r="1" fill="white"><title>2020-10-12: 56</title></circle>
	<circle cx="349.15" cy="131.88" data-y="57.49" data-x="1602547200" r="1" fill="white"><title>2020-10-13: 57</title></circle>
	<circle cx="350.58" cy="125.58" data-y="58.98" data-x="1602633600" r="1" fill="white"><title>2020-10-14: 59</title></circle>
	<circle cx="352.00" cy="120.85" data-y="60.09" data-x="1602720000" r="1" fill="white"><title>2020-10-15: 60</title></circle>
	<circle cx="353.42" cy="113.93" data-y="61.73" data-x="1602806400" r="1" fill="white"><title>2020-10-16: 62</title></circle>
	<circle cx="354.84" cy="92.20" data-y="66.87" data-x="1602892800" r="1" fill="white"><title>2020-10-17: 67</title></circle>
	<circle cx="356.26" cy="72.67" data-y="71.49" data-x="1602979200" r="1" fill="white"><title>2020-10-18: 71</title></circle>
	<circle cx="357.68" cy="69.84" data-y="72.16" data-x="1603065600" r="1" fill="white"><title>2020-10-19: 72</title></circle>
	<circle cx="359.11" cy="62.59" data-y="73.87" data-x="1603152000" r="1" fill="white"><title>2020-10-20: 74</title></circle>
	<circle cx="360.53" cy="50.63" data-y="76.70" data-x="1603238400" r="1" fill="white"><title>2020-10-21: 77</title></circle>
	<circle cx="361.95" cy="52.52" data-y="76.25" data-x="1603324800" r="1" fill="white"><title>2020-10-22: 76</title></circle>
	<circle cx="363.37" cy="48.42" data-y="77.22" data-x="1603411200" r="1" fill="white"><title>2020-10-23: 77</title></circle>
	<circle cx="364.79" cy="54.40" data-y="75.81" data-x="1603497600" r="1" fill="white"><title>2020-10-24: 76</title></circle>
	<circle cx="366.21" cy="52.83" data-y="76.18" data-x="1603584000" r="1" fill="white"><title>2020-10-25: 76</title></circle>
	<circle cx="367.64" cy="40.55" data-y="79.08" data-x="1603670400" r="1" fill="white"><title>2020-10-26: 79</title></circle>
	<circle cx="369.06" cy="34.25" data-y="80.57" data-x="1603756800" r="1" fill="white"><title>2020-10-27: 81</title></circle>
	<circle cx="370.48" cy="32.99" data-y="80.87" data-x="1603843200" r="1" fill="white"><title>2020-10-28: 81</title></circle>
	<circle cx="371.90" cy="26.06" data-y="82.51" data-x="1603929600" r="1" fill="white"><title>2020-10-29: 83</title></circle>
	<circle cx="373.32" cy="15.98" data-y="84.89" data-x="1604016000" r="1" fill="white"><title>2020-10-30: 85</title></circle>
	<circle cx="374.74" cy="10.00" data-y="86.31" data-x="1604102400" r="1" fill="white"><title>2020-10-31: 86</title></circle>
	<circle cx="376.17" cy="10.94" data-y="86.08" data-x="1604188800" r="1" fill="white"><title>2020-11-01: 86</title></circle>
	<circle cx="377.59" cy="14.09" data-y="85.34" data-x="1604275200" r="1" fill="white"><title>2020-11-02: 85</title></circle>
	<circle cx="379.01" cy="21.34" data-y="83.63" data-x="1604361600" r="1" fill="white"><title>2020-11-03: 84</title></circle>
	<circle cx="380.43" cy="29.84" data-y="81.62" data-x="1604448000" r="1" fill="white"><title>2020-11-04: 82</title></circle>
	<circle cx="381.85" cy="31.42" data-y="81.24" data-x="1604534400" r="1" fill="white"><title>2020-11-05: 81</title></circle>
	<circle cx="383.27" cy="43.38" data-y="78.41" data-x="1604620800" r="1" fill="white"><title>2020-11-06: 78</title></circle>
	<circle cx="384.70" cy="56.92" data-y="75.21" data-x="1604707200" r="1" fill="white"><title>2020-11-07: 75</title></circle>
	<circle cx="386.12" cy="56.92" data-y="75.21" data-x="1604793600" r="1" fill="white"><title>2020-11-08: 75</title></circle>
	<circle cx="387.54" cy="76.45" data-y="70.59" data-x="1604880000" r="1" fill="white"><title>2020-11-09: 71</title></circle>
	<circle cx="388.96" cy="86.21" data-y="68.29" data-x="1604966400" r="1" fill="white"><title>2020-11-10: 68</title></circle>
	<circle cx="390.38" cy="94.72" data-y="66.28" data-x="1605052800" r="1" fill="white"><title>2020-11-11: 66</title></circle>
	<circle cx="391.81" cy="106.05" data-y="63.59" data-x="1605139200" r="1" fill="white"><title>2020-11-12: 64</title></circle>
	<circle cx="393.23" cy="128.41" data-y="58.31" data-x="1605225600" r="1" fill="white"><title>2020-11-13: 58</title></circle>
	<circle cx="394.65" cy="135.34" data-y="56.67" data-x="1605312000" r="1" fill="white"><title>2020-11-14: 57</title></circle>
	<circle cx="396.07" cy="157.70" data-y="51.38" data-x="1605398400" r="1" fill="white"><title>2020-11-15: 51</title></circle>
	<circle cx="397.49" cy="165.89" data-y="49.45" data-x="1605484800" r="1" fill="white"><title>2020-11-16: 49</title></circle>
	<circle cx="398.91" cy="175.65" data-y="47.14" data-x="1605571200" r="1" fill="white"><title>2020-11-17: 47</title></circle>
	<circle cx="400.34" cy="185.10" data-y="44.90" data-x="1605657600" r="1" fill="white"><title>2020-11-18: 45</title></circle>
	<circle cx="401.76" cy="193.60" data-y="42.89" data-x="1605744000" r="1" fill="white"><title>2020-11-19: 43</title></circle>
	<circle cx="403.18" cy="205.57" data-y="40.06" data-x="1605830400" r="1" fill="white"><title>2020-11-20: 40</title></circle>
	<circle cx="404.60" cy="217.54" data-y="37.23" data-x="1605916800" r="1" fill="white"><title>2020-11-21: 37</title></circle>
	<circle cx="406.02" cy="223.84" data-y="35.74" data-x="1606003200" r="1" fill="white"><title>2020-11-22: 36</title></circle>
	<circle cx="407.44" cy="233.28" data-y="33.51" data-x="1606089600" r="1" fill="white"><title>2020-11-23: 34</title></circle>
	<circle cx="408.87" cy="243.36" data-y="31.13" data-x="1606176000" r="1" fill="white"><title>2020-11-24: 31</title></circle>
	<circle cx="410.29" cy="245.25" data-y="30.68" data-x="1606262400" r="1" fill="white"><title>2020-11-25: 31</title></circle>
	<circle cx="411.71" cy="253.44" data-y="28.74" data-x="1606348800" r="1" fill="white"><title>2020-11-26: 29</title></circle>
	<circle cx="413.13" cy="243.68" data-y="31.05" data-x="1606435200" r="1" fill="white"><title>2020-11-27: 31</title></circle>
	<circle cx="414.55" cy="243.99" data-y="30.98" data-x="1606521600" r="1" fill="white"><title>2020-11-28: 31</title></circle>
	<circle cx="415.97" cy="242.10" data-y="31.42" data-x="1606608000" r="1" fill="white"><title>2020-11-29: 31</title></circle>
	<circle cx="417.40" cy="238.95" data-y="32.17" data-x="1606694400" r="1" fill="white"><title>2020-11-30: 32</title></circle>
	<circle cx="418.82" cy="238.32" data-y="32.32" data-x="1606780800" r="1" fill="white"><title>2020-12-01: 32</title></circle>
	<circle cx="420.24" cy="238.01" data-y="32.39" data-x="1606867200" r="1" fill="white"><title>2020-12-02: 32</title></circle>
	<circle cx="421.66" cy="234.86" data-y="33.14" data-x="1606953600" r="1" fill="white"><title>2020-12-03: 33</title></circle>
	<circle cx="423.08" cy="234.86" data-y="33.14" data-x="1607040000" r="1" fill="white"><title>2020-12-04: 33</title></circle>
	<circle cx="424.50" cy="241.47" data-y="31.57" data-x="1607126400" r="1" fill="white"><title>2020-12-05: 32</title></circle>
	<circle cx="425.93" cy="246.82" data-y="30.31" data-x="1607212800" r="1" fill="white"><title>2020-12-06: 30</title></circle>
	<circle cx="427.35" cy="249.03" data-y="29.79" data-x="1607299200" r="1" fill="white"><title>2020-12-07: 30</title></circle>
	<circle cx="428.77" cy="247.77" data-y="30.08" data-x="1607385600" r="1" fill="white"><title>2020-12-08: 30</title></circle>
	<circle cx="430.19" cy="252.49" data-y="28.97" data-x="1607472000" r="1" fill="white"><title>2020-12-09: 29</title></circle>
	<circle cx="431.61" cy="246.51" data-y="30.38" data-x="1607558400" r="1" fill="white"><title>2020-12-10: 30</title></circle>
	<circle cx="433.04" cy="257.53" data-y="27.78" data-x="1607644800" r="1" fill="white"><title>2020-12-11: 28</title></circle>
	<circle cx="434.46" cy="256.59" data-y="28.00" data-x="1607731200" r="1" fill="white"><title>2020-12-12: 28</title></circle>
	<circle cx="435.88" cy="260.05" data-y="27.18" data-x="1607817600" r="1" fill="white"><title>2020-12-13: 27</title></circle>
	<circle cx="437.30" cy="259.42" data-y="27.33" data-x="1607904000" r="1" fill="white"><title>2020-12-14: 27</title></circle>
	<circle cx="438.72" cy="257.22" data-y="27.85" data-x="1607990400" r="1" fill="white"><title>2020-12-15: 28</title></circle>
	<circle cx="440.14" cy="249.97" data-y="29.56" data-x="1608076800" r="1" fill="white"><title>2020-12-16: 30</title></circle>
	<circle cx="441.57" cy="249.34" data-y="29.71" data-x="1608163200" r="1" fill="white"><title>2020-12-17: 30</title></circle>
	<circle cx="442.99" cy="244.31" data-y="30.90" data-x="1608249600" r="1" fill="white"><title>2020-12-18: 31</title></circle>
	<circle cx="444.41" cy="238.64" data-y="32.24" data-x="1608336000" r="1" fill="white"><title>2020-12-19: 32</title></circle>
	<circle cx="445.83" cy="234.23" data-y="33.29" data-x="1608422400" r="1" fill="white"><title>2020-12-20: 33</title></circle>
	<circle cx="447.25" cy="223.21" data-y="35.89" data-x="1608508800" r="1" fill="white"><title>2020-12-21: 36</title></circle>
	<circle cx="448.67" cy="233.60" data-y="33.44" data-x="1608595200" r="1" fill="white"><title>2020-12-22: 33</title></circle>
	<circle cx="450.10" cy="232.65" data-y="33.66" data-x="1608681600" r="1" fill="white"><title>2020-12-23: 34</title></circle>
	<circle cx="451.52" cy="217.54" data-y="37.23" data-x="1608768000" r="1" fill="white"><title>2020-12-24: 37</title></circle>
	<circle cx="452.94" cy="211.55" data-y="38.65" data-x="1608854400" r="1" fill="white"><title>2020-12-25: 39</title></circle>
	<circle cx="454.36" cy="193.29" data-y="42.97" data-x="1608940800" r="1" fill="white"><title>2020-12-26: 43</title></circle>
	<circle cx="455.78" cy="176.28" data-y="46.99" data-x="1609027200" r="1" fill="white"><title>2020-12-27: 47</title></circle>
	<circle cx="457.20" cy="172.82" data-y="47.81" data-x="1609113600" r="1" fill="white"><title>2020-12-28: 48</title></circle>
	<circle cx="458.63" cy="162.11" data-y="50.34" data-x="1609200000" r="1" fill="white"><title>2020-12-29: 50</title></circle>
	<circle cx="460.05" cy="141.01" data-y="55.33" data-x="1609286400" r="1" fill="white"><title>2020-12-30: 55</title></circle>
	<circle cx="461.47" cy="131.25" data-y="57.64" data-x="1609372800" r="1" fill="white"><title>2020-12-31: 58</title></circle>
	<circle cx="462.89" cy="127.47" data-y="58.53" data-x="1609459200" r="1" fill="white"><title>2021-01-01: 59</title></circle>
</g>
<g data-series="recent-cases" class="data-series">
	<path d="M 462.89,127.47L 464.31,160.53L 465.73,196.44L 467.16,200.85L 468.58,192.03L 470.00,214.07" id="Recent cases" class="line" stroke-width="1" stroke-linecap="round" stroke-dasharray="4,6" stroke-dashoffset="4"><title>Recent cases</title></path>
	<circle cx="462.89" cy="127.47" data-y="58.53" data-x="1609459200" r="2.5" fill="white"><title>2021-01-01: 59</title></circle>
	<circle cx="464.31" cy="160.53" data-y="50.71" data-x="1609545600" r="2.5" fill="white"><title>2021-01-02: 51</title></circle>
	<circle cx="465.73" cy="196.44" data-y="42.22" data-x="1609632000" r="2.5" fill="white"><title>2021-01-03: 42</title></circle>
	<circle cx="467.16" cy="200.85" data-y="41.18" data-x="1609718400" r="2.5" fill="white"><title>2021-01-04: 41</title></circle>
	<circle cx="468.58" cy="192.03" data-y="43.26" data-x="1609804800" r="2.5" fill="white"><title>2021-01-05: 43</title></circle>
	<circle cx="470.00" cy="214.07" data-y="38.05" data-x="1609891200" r="2.5" fill="white"><title>2021-01-06: 38</title></circle>
</g>
</svg>
