<svg width="480" height="400" viewBox="0 0 480 400" xmlns="http://www.w3.org/2000/svg" style="overflow:display" preserveAspectRatio="xMinYMin meet" overflow="visible">
<defs>
	<style>
	.data-series path.line { fill-opacity: 0; stroke: black; }
	.data-series path.line.dotted { stroke-dasharray: 12 20 }
	.data-series:hover path.line, .data-series.on path.line { stroke-width: 1; }
	.data-series:hover circle, .data-series.on circle { display: inline; }
	.graph-grid { font-family: "Helvetica Neue",Helvetica,Arial,"Lucida Grande",sans-serif; }
	.graph-grid line { stroke: black; stroke-width: 1; stroke-linecap: round; }
	.graph-grid.graph-grid-x text { text-anchor: middle; dominant-baseline: hanging; transform: translateY(10px); }
	.graph-grid.graph-grid-y text { text-anchor: end; dominant-baseline: middle; transform: translateX(-10px); }
	</style>
</defs>
<g class="graph-grid graph-grid-y">
	<line x1="25.00" y1="375.00" x2="470.00" y2="375.00" data-left="25"></line>
	<text x="35" y="375" text-anchor="end">0</text>
	<text x="35" y="296.835282111437" text-anchor="end">20</text>
	<text x="35" y="218.670564222874" text-anchor="end">40</text>
	<text x="35" y="140.505846334311" text-anchor="end">60</text>
	<text x="35" y="62.3411284457478" text-anchor="end">80</text>
	<text style="text-anchor:middle;dominant-baseline:hanging;font-weight:bold;transform: translateY(192.5px) rotate(-90deg);"></text>
</g>
<g class="graph-grid graph-grid-x">
	<line class="tick" x1="56.99" y1="375.00" x2="56.99" y2="380.00"></line>
	<text x="56.9934640522876" y="375" text-anchor="middle">A</text>
	<line class="tick" x1="100.62" y1="375.00" x2="100.62" y2="380.00"></line>
	<text x="100.62091503268" y="375" text-anchor="middle">M</text>
	<line class="tick" x1="145.70" y1="375.00" x2="145.70" y2="380.00"></line>
	<text x="145.702614379085" y="375" text-anchor="middle">J</text>
	<line class="tick" x1="189.33" y1="375.00" x2="189.33" y2="380.00"></line>
	<text x="189.330065359477" y="375" text-anchor="middle">J</text>
	<line class="tick" x1="234.41" y1="375.00" x2="234.41" y2="380.00"></line>
	<text x="234.411764705882" y="375" text-anchor="middle">A</text>
	<line class="tick" x1="279.49" y1="375.00" x2="279.49" y2="380.00"></line>
	<text x="279.493464052288" y="375" text-anchor="middle">S</text>
	<line class="tick" x1="323.12" y1="375.00" x2="323.12" y2="380.00"></line>
	<text x="323.12091503268" y="375" text-anchor="middle">O</text>
	<line class="tick" x1="368.20" y1="375.00" x2="368.20" y2="380.00"></line>
	<text x="368.202614379085" y="375" text-anchor="middle">N</text>
	<line class="tick" x1="411.83" y1="375.00" x2="411.83" y2="380.00"></line>
	<text x="411.830065359477" y="375" text-anchor="middle">D</text>
	<line class="tick" x1="456.91" y1="375.00" x2="456.91" y2="380.00"></line>
	<text x="456.911764705882" y="375" text-anchor="middle">J</text>
	<text style="text-anchor:middle;dominant-baseline:hanging;font-weight:bold;transform: translateY(192.5px) rotate(-90deg);"></text>
</g>
<g data-series="widespread" class="data-series">
	<path d="M 25.00,347.64L 470.00,347.64" id="E08000006-level-0" class="line" stroke-width="1" stroke-linecap="round" stroke-dasharray="3,3" fill-opacity="0.3" opacity="0.3"><title>Widespread</title></path>
</g>
<g data-series="substantial" class="data-series">
	<path d="M 25.00,359.37L 470.00,359.37" id="E08000006-level-1" class="line" stroke-width="1" stroke-linecap="round" stroke-dasharray="3,3" fill-opacity="0.3" opacity="0.3"><title>Substantial</title></path>
</g>
<g data-series="moderate" class="data-series">
	<path d="M 25.00,371.09L 470.00,371.09" id="E08000006-level-2" class="line" stroke-width="1" stroke-linecap="round" stroke-dasharray="3,3" fill-opacity="0.3" opacity="0.3"><title>Moderate</title></path>
</g>
<g data-series="new-cases" class="data-series">
	<path d="M 25.00,373.50L 26.45,373.80L 27.91,374.00L 29.36,373.07L 30.82,372.86L 32.27,372.22L 33.73,370.93L 35.18,369.43L 36.63,367.72L 38.09,366.22L 39.54,364.94L 41.00,361.94L 42.45,361.30L 43.91,358.94L 45.36,358.09L 46.81,355.95L 48.27,354.45L 49.72,352.31L 51.18,349.52L 52.63,347.17L 54.08,346.53L 55.54,346.74L 56.99,347.17L 58.45,346.10L 59.90,343.53L 61.36,346.31L 62.81,343.10L 64.26,342.25L 65.72,338.61L 67.17,336.68L 68.63,336.25L 70.08,339.46L 71.54,336.89L 72.99,338.18L 74.44,336.04L 75.90,337.54L 77.35,335.18L 78.81,335.18L 80.26,335.40L 81.72,335.61L 83.17,335.18L 84.62,336.89L 86.08,336.47L 87.53,340.32L 88.99,340.32L 90.44,340.53L 91.90,341.82L 93.35,342.46L 94.80,344.17L 96.26,342.89L 97.71,344.17L 99.17,345.67L 100.62,346.96L 102.08,348.24L 103.53,350.38L 104.98,351.24L 106.44,355.52L 107.89,356.16L 109.35,358.30L 110.80,358.94L 112.25,360.44L 113.71,362.16L 115.16,364.94L 116.62,364.30L 118.07,364.72L 119.53,363.87L 120.98,363.87L 122.43,363.65L 123.89,361.94L 125.34,361.30L 126.80,363.87L 128.25,364.30L 129.71,363.87L 131.16,364.30L 132.61,365.58L 134.07,368.15L 135.52,366.22L 136.98,365.79L 138.43,365.37L 139.89,366.44L 141.34,366.22L 142.79,365.79L 144.25,364.51L 145.70,365.58L 147.16,364.72L 148.61,365.37L 150.07,366.22L 151.52,366.87L 152.97,366.87L 154.43,366.44L 155.88,367.51L 157.34,368.15L 158.79,368.15L 160.25,367.51L 161.70,367.51L 163.15,367.08L 164.61,369.22L 166.06,368.79L 167.52,367.94L 168.97,368.58L 170.42,369.43L 171.88,368.79L 173.33,369.86L 174.79,369.43L 176.24,369.86L 177.70,371.15L 179.15,370.93L 180.60,370.50L 182.06,370.72L 183.51,370.29L 184.97,370.29L 186.42,371.15L 187.88,370.50L 189.33,370.50L 190.78,370.29L 192.24,369.86L 193.69,369.86L 195.15,367.51L 196.60,366.65L 198.06,366.65L 199.51,366.87L 200.96,366.87L 202.42,368.36L 203.87,368.58L 205.33,370.72L 206.78,370.29L 208.24,369.86L 209.69,368.79L 211.14,368.79L 212.60,367.51L 214.05,367.29L 215.51,366.01L 216.96,364.94L 218.42,364.08L 219.87,364.72L 221.32,363.01L 222.78,362.80L 224.23,361.51L 225.69,361.30L 227.14,361.51L 228.59,361.30L 230.05,360.01L 231.50,359.59L 232.96,358.73L 234.41,358.73L 235.87,359.16L 237.32,356.80L 238.77,358.73L 240.23,359.59L 241.68,361.51L 243.14,358.09L 244.59,357.23L 246.05,356.16L 247.50,357.66L 248.95,354.88L 250.41,354.23L 251.86,354.02L 253.32,355.73L 254.77,356.59L 256.23,356.38L 257.68,357.45L 259.13,359.37L 260.59,359.80L 262.04,360.01L 263.50,360.87L 264.95,360.23L 266.41,360.44L 267.86,359.59L 269.31,354.23L 270.77,354.02L 272.22,352.74L 273.68,353.38L 275.13,349.10L 276.58,343.96L 278.04,340.11L 279.49,338.82L 280.95,337.75L 282.40,334.11L 283.86,328.33L 285.31,327.05L 286.76,324.69L 288.22,325.33L 289.67,325.55L 291.13,321.70L 292.58,321.27L 294.04,319.77L 295.49,318.27L 296.94,313.56L 298.40,309.49L 299.85,304.35L 301.31,297.93L 302.76,290.44L 304.22,287.87L 305.67,281.88L 307.12,278.88L 308.58,270.10L 310.03,261.75L 311.49,257.90L 312.94,251.48L 314.40,240.13L 315.85,228.79L 317.30,218.51L 318.76,197.74L 320.21,186.61L 321.67,173.34L 323.12,170.56L 324.58,155.57L 326.03,141.44L 327.48,136.30L 328.94,138.87L 330.39,140.59L 331.85,149.36L 333.30,150.43L 334.75,140.16L 336.21,143.16L 337.66,135.45L 339.12,131.60L 340.57,127.96L 342.03,111.04L 343.48,92.63L 344.93,79.79L 346.39,56.45L 347.84,45.32L 349.30,38.26L 350.75,18.13L 352.21,23.06L 353.66,26.48L 355.11,26.91L 356.57,30.98L 358.02,24.99L 359.48,16.85L 360.93,21.99L 362.39,20.06L 363.84,20.28L 365.29,10.00L 366.75,23.70L 368.20,35.05L 369.66,46.39L 371.11,57.74L 372.57,69.73L 374.02,71.87L 375.47,97.77L 376.93,102.48L 378.38,108.90L 379.84,116.40L 381.29,121.11L 382.75,124.32L 384.20,138.02L 385.65,150.86L 387.11,162.64L 388.56,181.48L 390.02,200.96L 391.47,220.01L 392.92,229.00L 394.38,237.99L 395.83,256.40L 397.29,269.03L 398.74,276.31L 400.20,280.59L 401.65,287.01L 403.10,288.51L 404.56,291.72L 406.01,293.65L 407.47,295.79L 408.92,297.72L 410.38,300.93L 411.83,299.43L 413.28,302.21L 414.74,300.50L 416.19,300.07L 417.65,299.43L 419.10,300.07L 420.56,298.15L 422.01,294.08L 423.46,289.80L 424.92,289.58L 426.37,287.87L 427.83,283.16L 429.28,282.09L 430.74,281.02L 432.19,274.60L 433.64,273.10L 435.10,270.53L 436.55,260.04L 438.01,257.26L 439.46,249.34L 440.92,250.19L 442.37,264.96L 443.82,265.18L 445.28,260.26L 446.73,266.89L 448.19,248.05L 449.64,235.21L 451.09,220.01L 452.55,209.30L 454.00,190.04L 455.46,173.34L 456.91,151.08L 458.37,147.01L 459.82,138.66L 461.27,134.59L 462.73,120.89" id="New cases" class="line" stroke-width="1" stroke-linecap="round"><title>New cases</title></path>
	<circle cx="25.00" cy="373.50" data-y="0.38" data-x="1583798400" r="1" fill="white"><title>2020-03-10: 0</title></circle>
	<circle cx="26.45" cy="373.80" data-y="0.31" data-x="1583884800" r="1" fill="white"><title>2020-03-11: 0</title></circle>
	<circle cx="27.91" cy="374.00" data-y="0.26" data-x="1583971200" r="1" fill="white"><title>2020-03-12: 0</title></circle>
	<circle cx="29.36" cy="373.07" data-y="0.49" data-x="1584057600" r="1" fill="white"><title>2020-03-13: 0</title></circle>
	<circle cx="30.82" cy="372.86" data-y="0.55" data-x="1584144000" r="1" fill="white"><title>2020-03-14: 1</title></circle>
	<circle cx="32.27" cy="372.22" data-y="0.71" data-x="1584230400" r="1" fill="white"><title>2020-03-15: 1</title></circle>
	<circle cx="33.73" cy="370.93" data-y="1.04" data-x="1584316800" r="1" fill="white"><title>2020-03-16: 1</title></circle>
	<circle cx="35.18" cy="369.43" data-y="1.42" data-x="1584403200" r="1" fill="white"><title>2020-03-17: 1</title></circle>
	<circle cx="36.63" cy="367.72" data-y="1.86" data-x="1584489600" r="1" fill="white"><title>2020-03-18: 2</title></circle>
	<circle cx="38.09" cy="366.22" data-y="2.25" data-x="1584576000" r="1" fill="white"><title>2020-03-19: 2</title></circle>
	<circle cx="39.54" cy="364.94" data-y="2.57" data-x="1584662400" r="1" fill="white"><title>2020-03-20: 3</title></circle>
	<circle cx="41.00" cy="361.94" data-y="3.34" data-x="1584748800" r="1" fill="white"><title>2020-03-21: 3</title></circle>
	<circle cx="42.45" cy="361.30" data-y="3.51" data-x="1584835200" r="1" fill="white"><title>2020-03-22: 4</title></circle>
	<circle cx="43.91" cy="358.94" data-y="4.11" data-x="1584921600" r="1" fill="white"><title>2020-03-23: 4</title></circle>
	<circle cx="45.36" cy="358.09" data-y="4.33" data-x="1585008000" r="1" fill="white"><title>2020-03-24: 4</title></circle>
	<circle cx="46.81" cy="355.95" data-y="4.88" data-x="1585094400" r="1" fill="white"><title>2020-03-25: 5</title></circle>
	<circle cx="48.27" cy="354.45" data-y="5.26" data-x="1585180800" r="1" fill="white"><title>2020-03-26: 5</title></circle>
	<circle cx="49.72" cy="352.31" data-y="5.81" data-x="1585267200" r="1" fill="white"><title>2020-03-27: 6</title></circle>
	<circle cx="51.18" cy="349.52" data-y="6.52" data-x="1585353600" r="1" fill="white"><title>2020-03-28: 7</title></circle>
	<circle cx="52.63" cy="347.17" data-y="7.12" data-x="1585440000" r="1" fill="white"><title>2020-03-29: 7</title></circle>
	<circle cx="54.08" cy="346.53" data-y="7.29" data-x="1585526400" r="1" fill="white"><title>2020-03-30: 7</title></circle>
	<circle cx="55.54" cy="346.74" data-y="7.23" data-x="1585612800" r="1" fill="white"><title>2020-03-31: 7</title></circle>
	<circle cx="56.99" cy="347.17" data-y="7.12" data-x="1585699200" r="1" fill="white"><title>2020-04-01: 7</title></circle>
	<circle cx="58.45" cy="346.10" data-y="7.39" data-x="1585785600" r="1" fill="white"><title>2020-04-02: 7</title></circle>
	<circle cx="59.90" cy="343.53" data-y="8.05" data-x="1585872000" r="1" fill="white"><title>2020-04-03: 8</title></circle>
	<circle cx="61.36" cy="346.31" data-y="7.34" data-x="1585958400" r="1" fill="white"><title>2020-04-04: 7</title></circle>
	<circle cx="62.81" cy="343.10" data-y="8.16" data-x="1586044800" r="1" fill="white"><title>2020-04-05: 8</title></circle>
	<circle cx="64.26" cy="342.25" data-y="8.38" data-x="1586131200" r="1" fill="white"><title>2020-04-06: 8</title></circle>
	<circle cx="65.72" cy="338.61" data-y="9.31" data-x="1586217600" r="1" fill="white"><title>2020-04-07: 9</title></circle>
	<circle cx="67.17" cy="336.68" data-y="9.80" data-x="1586304000" r="1" fill="white"><title>2020-04-08: 10</title></circle>
	<circle cx="68.63" cy="336.25" data-y="9.91" data-x="1586390400" r="1" fill="white"><title>2020-04-09: 10</title></circle>
	<circle cx="70.08" cy="339.46" data-y="9.09" data-x="1586476800" r="1" fill="white"><title>2020-04-10: 9</title></circle>
	<circle cx="71.54" cy="336.89" data-y="9.75" data-x="1586563200" r="1" fill="white"><title>2020-04-11: 10</title></circle>
	<circle cx="72.99" cy="338.18" data-y="9.42" data-x="1586649600" r="1" fill="white"><title>2020-04-12: 9</title></circle>
	<circle cx="74.44" cy="336.04" data-y="9.97" data-x="1586736000" r="1" fill="white"><title>2020-04-13: 10</title></circle>
	<circle cx="75.90" cy="337.54" data-y="9.59" data-x="1586822400" r="1" fill="white"><title>2020-04-14: 10</title></circle>
	<circle cx="77.35" cy="335.18" data-y="10.19" data-x="1586908800" r="1" fill="white"><title>2020-04-15: 10</title></circle>
	<circle cx="78.81" cy="335.18" data-y="10.19" data-x="1586995200" r="1" fill="white"><title>2020-04-16: 10</title></circle>
	<circle cx="80.26" cy="335.40" data-y="10.13" data-x="1587081600" r="1" fill="white"><title>2020-04-17: 10</title></circle>
	<circle cx="81.72" cy="335.61" data-y="10.08" data-x="1587168000" r="1" fill="white"><title>2020-04-18: 10</title></circle>
	<circle cx="83.17" cy="335.18" data-y="10.19" data-x="1587254400" r="1" fill="white"><title>2020-04-19: 10</title></circle>
	<circle cx="84.62" cy="336.89" data-y="9.75" data-x="1587340800" r="1" fill="white"><title>2020-04-20: 10</title></circle>
	<circle cx="86.08" cy="336.47" data-y="9.86" data-x="1587427200" r="1" fill="white"><title>2020-04-21: 10</title></circle>
	<circle cx="87.53" cy="340.32" data-y="8.87" data-x="1587513600" r="1" fill="white"><title>2020-04-22: 9</title></circle>
	<circle cx="88.99" cy="340.32" data-y="8.87" data-x="1587600000" r="1" fill="white"><title>2020-04-23: 9</title></circle>
	<circle cx="90.44" cy="340.53" data-y="8.82" data-x="1587686400" r="1" fill="white"><title>2020-04-24: 9</title></circle>
	<circle cx="91.90" cy="341.82" data-y="8.49" data-x="1587772800" r="1" fill="white"><title>2020-04-25: 8</title></circle>
	<circle cx="93.35" cy="342.46" data-y="8.33" data-x="1587859200" r="1" fill="white"><title>2020-04-26: 8</title></circle>
	<circle cx="94.80" cy="344.17" data-y="7.89" data-x="1587945600" r="1" fill="white"><title>2020-04-27: 8</title></circle>
	<circle cx="96.26" cy="342.89" data-y="8.22" data-x="1588032000" r="1" fill="white"><title>2020-04-28: 8</title></circle>
	<circle cx="97.71" cy="344.17" data-y="7.89" data-x="1588118400" r="1" fill="white"><title>2020-04-29: 8</title></circle>
	<circle cx="99.17" cy="345.67" data-y="7.50" data-x="1588204800" r="1" fill="white"><title>2020-04-30: 8</title></circle>
	<circle cx="100.62" cy="346.96" data-y="7.18" data-x="1588291200" r="1" fill="white"><title>2020-05-01: 7</title></circle>
	<circle cx="102.08" cy="348.24" data-y="6.85" data-x="1588377600" r="1" fill="white"><title>2020-05-02: 7</title></circle>
	<circle cx="103.53" cy="350.38" data-y="6.30" data-x="1588464000" r="1" fill="white"><title>2020-05-03: 6</title></circle>
	<circle cx="104.98" cy="351.24" data-y="6.08" data-x="1588550400" r="1" fill="white"><title>2020-05-04: 6</title></circle>
	<circle cx="106.44" cy="355.52" data-y="4.98" data-x="1588636800" r="1" fill="white"><title>2020-05-05: 5</title></circle>
	<circle cx="107.89" cy="356.16" data-y="4.82" data-x="1588723200" r="1" fill="white"><title>2020-05-06: 5</title></circle>
	<circle cx="109.35" cy="358.30" data-y="4.27" data-x="1588809600" r="1" fill="white"><title>2020-05-07: 4</title></circle>
	<circle cx="110.80" cy="358.94" data-y="4.11" data-x="1588896000" r="1" fill="white"><title>2020-05-08: 4</title></circle>
	<circle cx="112.25" cy="360.44" data-y="3.72" data-x="1588982400" r="1" fill="white"><title>2020-05-09: 4</title></circle>
	<circle cx="113.71" cy="362.16" data-y="3.29" data-x="1589068800" r="1" fill="white"><title>2020-05-10: 3</title></circle>
	<circle cx="115.16" cy="364.94" data-y="2.57" data-x="1589155200" r="1" fill="white"><title>2020-05-11: 3</title></circle>
	<circle cx="116.62" cy="364.30" data-y="2.74" data-x="1589241600" r="1" fill="white"><title>2020-05-12: 3</title></circle>
	<circle cx="118.07" cy="364.72" data-y="2.63" data-x="1589328000" r="1" fill="white"><title>2020-05-13: 3</title></circle>
	<circle cx="119.53" cy="363.87" data-y="2.85" data-x="1589414400" r="1" fill="white"><title>2020-05-14: 3</title></circle>
	<circle cx="120.98" cy="363.87" data-y="2.85" data-x="1589500800" r="1" fill="white"><title>2020-05-15: 3</title></circle>
	<circle cx="122.43" cy="363.65" data-y="2.90" data-x="1589587200" r="1" fill="white"><title>2020-05-16: 3</title></circle>
	<circle cx="123.89" cy="361.94" data-y="3.34" data-x="1589673600" r="1" fill="white"><title>2020-05-17: 3</title></circle>
	<circle cx="125.34" cy="361.30" data-y="3.51" data-x="1589760000" r="1" fill="white"><title>2020-05-18: 4</title></circle>
	<circle cx="126.80" cy="363.87" data-y="2.85" data-x="1589846400" r="1" fill="white"><title>2020-05-19: 3</title></circle>
	<circle cx="128.25" cy="364.30" data-y="2.74" data-x="1589932800" r="1" fill="white"><title>2020-05-20: 3</title></circle>
	<circle cx="129.71" cy="363.87" data-y="2.85" data-x="1590019200" r="1" fill="white"><title>2020-05-21: 3</title></circle>
	<circle cx="131.16" cy="364.30" data-y="2.74" data-x="1590105600" r="1" fill="white"><title>2020-05-22: 3</title></circle>
	<circle cx="132.61" cy="365.58" data-y="2.41" data-x="1590192000" r="1" fill="white"><title>2020-05-23: 2</title></circle>
	<circle cx="134.07" cy="368.15" data-y="1.75" data-x="1590278400" r="1" fill="white"><title>2020-05-24: 2</title></circle>
	<circle cx="135.52" cy="366.22" data-y="2.25" data-x="1590364800" r="1" fill="white"><title>2020-05-25: 2</title></circle>
	<circle cx="136.98" cy="365.79" data-y="2.36" data-x="1590451200" r="1" fill="white"><title>2020-05-26: 2</title></circle>
	<circle cx="138.43" cy="365.37" data-y="2.46" data-x="1590537600" r="1" fill="white"><title>2020-05-27: 2</title></circle>
	<circle cx="139.89" cy="366.44" data-y="2.19" data-x="1590624000" r="1" fill="white"><title>2020-05-28: 2</title></circle>
	<circle cx="141.34" cy="366.22" data-y="2.25" data-x="1590710400" r="1" fill="white"><title>2020-05-29: 2</title></circle>
	<circle cx="142.79" cy="365.79" data-y="2.36" data-x="1590796800" r="1" fill="white"><title>2020-05-30: 2</title></circle>
	<circle cx="144.25" cy="364.51" data-y="2.68" data-x="1590883200" r="1" fill="white"><title>2020-05-31: 3</title></circle>
	<circle cx="145.70" cy="365.58" data-y="2.41" data-x="1590969600" r="1" fill="white"><title>2020-06-01: 2</title></circle>
	<circle cx="147.16" cy="364.72" data-y="2.63" data-x="1591056000" r="1" fill="white"><title>2020-06-02: 3</title></circle>
	<circle cx="148.61" cy="365.37" data-y="2.46" data-x="1591142400" r="1" fill="white"><title>2020-06-03: 2</title></circle>
	<circle cx="150.07" cy="366.22" data-y="2.25" data-x="1591228800" r="1" fill="white"><title>2020-06-04: 2</title></circle>
	<circle cx="151.52" cy="366.87" data-y="2.08" data-x="1591315200" r="1" fill="white"><title>2020-06-05: 2</title></circle>
	<circle cx="152.97" cy="366.87" data-y="2.08" data-x="1591401600" r="1" fill="white"><title>2020-06-06: 2</title></circle>
	<circle cx="154.43" cy="366.44" data-y="2.19" data-x="1591488000" r="1" fill="white"><title>2020-06-07: 2</title></circle>
	<circle cx="155.88" cy="367.51" data-y="1.92" data-x="1591574400" r="1" fill="white"><title>2020-06-08: 2</title></circle>
	<circle cx="157.34" cy="368.15" data-y="1.75" data-x="1591660800" r="1" fill="white"><title>2020-06-09: 2</title></circle>
	<circle cx="158.79" cy="368.15" data-y="1.75" data-x="1591747200" r="1" fill="white"><title>2020-06-10: 2</title></circle>
	<circle cx="160.25" cy="367.51" data-y="1.92" data-x="1591833600" r="1" fill="white"><title>2020-06-11: 2</title></circle>
	<circle cx="161.70" cy="367.51" data-y="1.92" data-x="1591920000" r="1" fill="white"><title>2020-06-12: 2</title></circle>
	<circle cx="163.15" cy="367.08" data-y="2.03" data-x="1592006400" r="1" fill="white"><title>2020-06-13: 2</title></circle>
	<circle cx="164.61" cy="369.22" data-y="1.48" data-x="1592092800" r="1" fill="white"><title>2020-06-14: 1</title></circle>
	<circle cx="166.06" cy="368.79" data-y="1.59" data-x="1592179200" r="1" fill="white"><title>2020-06-15: 2</title></circle>
	<circle cx="167.52" cy="367.94" data-y="1.81" data-x="1592265600" r="1" fill="white"><title>2020-06-16: 2</title></circle>
	<circle cx="168.97" cy="368.58" data-y="1.64" data-x="1592352000" r="1" fill="white"><title>2020-06-17: 2</title></circle>
	<circle cx="170.42" cy="369.43" data-y="1.42" data-x="1592438400" r="1" fill="white"><title>2020-06-18: 1</title></circle>
	<circle cx="171.88" cy="368.79" data-y="1.59" data-x="1592524800" r="1" fill="white"><title>2020-06-19: 2</title></circle>
	<circle cx="173.33" cy="369.86" data-y="1.31" data-x="1592611200" r="1" fill="white"><title>2020-06-20: 1</title></circle>
	<circle cx="174.79" cy="369.43" data-y="1.42" data-x="1592697600" r="1" fill="white"><title>2020-06-21: 1</title></circle>
	<circle cx="176.24" cy="369.86" data-y="1.31" data-x="1592784000" r="1" fill="white"><title>2020-06-22: 1</title></circle>
	<circle cx="177.70" cy="371.15" data-y="0.99" data-x="1592870400" r="1" fill="white"><title>2020-06-23: 1</title></circle>
	<circle cx="179.15" cy="370.93" data-y="1.04" data-x="1592956800" r="1" fill="white"><title>2020-06-24: 1</title></circle>
	<circle cx="180.60" cy="370.50" data-y="1.15" data-x="1593043200" r="1" fill="white"><title>2020-06-25: 1</title></circle>
	<circle cx="182.06" cy="370.72" data-y="1.10" data-x="1593129600" r="1" fill="white"><title>2020-06-26: 1</title></circle>
	<circle cx="183.51" cy="370.29" data-y="1.21" data-x="1593216000" r="1" fill="white"><title>2020-06-27: 1</title></circle>
	<circle cx="184.97" cy="370.29" data-y="1.21" data-x="1593302400" r="1" fill="white"><title>2020-06-28: 1</title></circle>
	<circle cx="186.42" cy="371.15" data-y="0.99" data-x="1593388800" r="1" fill="white"><title>2020-06-29: 1</title></circle>
	<circle cx="187.88" cy="370.50" data-y="1.15" data-x="1593475200" r="1" fill="white"><title>2020-06-30: 1</title></circle>
	<circle cx="189.33" cy="370.50" data-y="1.15" data-x="1593561600" r="1" fill="white"><title>2020-07-01: 1</title></circle>
	<circle cx="190.78" cy="370.29" data-y="1.21" data-x="1593648000" r="1" fill="white"><title>2020-07-02: 1</title></circle>
	<circle cx="192.24" cy="369.86" data-y="1.31" data-x="1593734400" r="1" fill="white"><title>2020-07-03: 1</title></circle>
	<circle cx="193.69" cy="369.86" data-y="1.31" data-x="1593820800" r="1" fill="white"><title>2020-07-04: 1</title></circle>
	<circle cx="195.15" cy="367.51" data-y="1.92" data-x="1593907200" r="1" fill="white"><title>2020-07-05: 2</title></circle>
	<circle cx="196.60" cy="366.65" data-y="2.14" data-x="1593993600" r="1" fill="white"><title>2020-07-06: 2</title></circle>
	<circle cx="198.06" cy="366.65" data-y="2.14" data-x="1594080000" r="1" fill="white"><title>2020-07-07: 2</title></circle>
	<circle cx="199.51" cy="366.87" data-y="2.08" data-x="1594166400" r="1" fill="white"><title>2020-07-08: 2</title></circle>
	<circle cx="200.96" cy="366.87" data-y="2.08" data-x="1594252800" r="1" fill="white"><title>2020-07-09: 2</title></circle>
	<circle cx="202.42" cy="368.36" data-y="1.70" data-x="1594339200" r="1" fill="white"><title>2020-07-10: 2</title></circle>
	<circle cx="203.87" cy="368.58" data-y="1.64" data-x="1594425600" r="1" fill="white"><title>2020-07-11: 2</title></circle>
	<circle cx="205.33" cy="370.72" data-y="1.10" data-x="1594512000" r="1" fill="white"><title>2020-07-12: 1</title></circle>
	<circle cx="206.78" cy="370.29" data-y="1.21" data-x="1594598400" r="1" fill="white"><title>2020-07-13: 1</title></circle>
	<circle cx="208.24" cy="369.86" data-y="1.31" data-x="1594684800" r="1" fill="white"><title>2020-07-14: 1</title></circle>
	<circle cx="209.69" cy="368.79" data-y="1.59" data-x="1594771200" r="1" fill="white"><title>2020-07-15: 2</title></circle>
	<circle cx="211.14" cy="368.79" data-y="1.59" data-x="1594857600" r="1" fill="white"><title>2020-07-16: 2</title></circle>
	<circle cx="212.60" cy="367.51" data-y="1.92" data-x="1594944000" r="1" fill="white"><title>2020-07-17: 2</title></circle>
	<circle cx="214.05" cy="367.29" data-y="1.97" data-x="1595030400" r="1" fill="white"><title>2020-07-18: 2</title></circle>
	<circle cx="215.51" cy="366.01" data-y="2.30" data-x="1595116800" r="1" fill="white"><title>2020-07-19: 2</title></circle>
	<circle cx="216.96" cy="364.94" data-y="2.57" data-x="1595203200" r="1" fill="white"><title>2020-07-20: 3</title></circle>
	<circle cx="218.42" cy="364.08" data-y="2.79" data-x="1595289600" r="1" fill="white"><title>2020-07-21: 3</title></circle>
	<circle cx="219.87" cy="364.72" data-y="2.63" data-x="1595376000" r="1" fill="white"><title>2020-07-22: 3</title></circle>
	<circle cx="221.32" cy="363.01" data-y="3.07" data-x="1595462400" r="1" fill="white"><title>2020-07-23: 3</title></circle>
	<circle cx="222.78" cy="362.80" data-y="3.12" data-x="1595548800" r="1" fill="white"><title>2020-07-24: 3</title></circle>
	<circle cx="224.23" cy="361.51" data-y="3.45" data-x="1595635200" r="1" fill="white"><title>2020-07-25: 3</title></circle>
	<circle cx="225.69" cy="361.30" data-y="3.51" data-x="1595721600" r="1" fill="white"><title>2020-07-26: 4</title></circle>
	<circle cx="227.14" cy="361.51" data-y="3.45" data-x="1595808000" r="1" fill="white"><title>2020-07-27: 3</title></circle>
	<circle cx="228.59" cy="361.30" data-y="3.51" data-x="1595894400" r="1" fill="white"><title>2020-07-28: 4</title></circle>
	<circle cx="230.05" cy="360.01" data-y="3.83" data-x="1595980800" r="1" fill="white"><title>2020-07-29: 4</title></circle>
	<circle cx="231.50" cy="359.59" data-y="3.94" data-x="1596067200" r="1" fill="white"><title>2020-07-30: 4</title></circle>
	<circle cx="232.96" cy="358.73" data-y="4.16" data-x="1596153600" r="1" fill="white"><title>2020-07-31: 4</title></circle>
	<circle cx="234.41" cy="358.73" data-y="4.16" data-x="1596240000" r="1" fill="white"><title>2020-08-01: 4</title></circle>
	<circle cx="235.87" cy="359.16" data-y="4.05" data-x="1596326400" r="1" fill="white"><title>2020-08-02: 4</title></circle>
	<circle cx="237.32" cy="356.80" data-y="4.66" data-x="1596412800" r="1" fill="white"><title>2020-08-03: 5</title></circle>
	<circle cx="238.77" cy="358.73" data-y="4.16" data-x="1596499200" r="1" fill="white"><title>2020-08-04: 4</title></circle>
	<circle cx="240.23" cy="359.59" data-y="3.94" data-x="1596585600" r="1" fill="white"><title>2020-08-05: 4</title></circle>
	<circle cx="241.68" cy="361.51" data-y="3.45" data-x="1596672000" r="1" fill="white"><title>2020-08-06: 3</title></circle>
	<circle cx="243.14" cy="358.09" data-y="4.33" data-x="1596758400" r="1" fill="white"><title>2020-08-07: 4</title></circle>
	<circle cx="244.59" cy="357.23" data-y="4.55" data-x="1596844800" r="1" fill="white"><title>2020-08-08: 5</title></circle>
	<circle cx="246.05" cy="356.16" data-y="4.82" data-x="1596931200" r="1" fill="white"><title>2020-08-09: 5</title></circle>
	<circle cx="247.50" cy="357.66" data-y="4.44" data-x="1597017600" r="1" fill="white"><title>2020-08-10: 4</title></circle>
	<circle cx="248.95" cy="354.88" data-y="5.15" data-x="1597104000" r="1" fill="white"><title>2020-08-11: 5</title></circle>
	<circle cx="250.41" cy="354.23" data-y="5.31" data-x="1597190400" r="1" fill="white"><title>2020-08-12: 5</title></circle>
	<circle cx="251.86" cy="354.02" data-y="5.37" data-x="1597276800" r="1" fill="white"><title>2020-08-13: 5</title></circle>
	<circle cx="253.32" cy="355.73" data-y="4.93" data-x="1597363200" r="1" fill="white"><title>2020-08-14: 5</title></circle>
	<circle cx="254.77" cy="356.59" data-y="4.71" data-x="1597449600" r="1" fill="white"><title>2020-08-15: 5</title></circle>
	<circle cx="256.23" cy="356.38" data-y="4.77" data-x="1597536000" r="1" fill="white"><title>2020-08-16: 5</title></circle>
	<circle cx="257.68" cy="357.45" data-y="4.49" data-x="1597622400" r="1" fill="white"><title>2020-08-17: 4</title></circle>
	<circle cx="259.13" cy="359.37" data-y="4.00" data-x="1597708800" r="1" fill="white"><title>2020-08-18: 4</title></circle>
	<circle cx="260.59" cy="359.80" data-y="3.89" data-x="1597795200" r="1" fill="white"><title>2020-08-19: 4</title></circle>
	<circle cx="262.04" cy="360.01" data-y="3.83" data-x="1597881600" r="1" fill="white"><title>2020-08-20: 4</title></circle>
	<circle cx="263.50" cy="360.87" data-y="3.62" data-x="1597968000" r="1" fill="white"><title>2020-08-21: 4</title></circle>
	<circle cx="264.95" cy="360.23" data-y="3.78" data-x="1598054400" r="1" fill="white"><title>2020-08-22: 4</title></circle>
	<circle cx="266.41" cy="360.44" data-y="3.72" data-x="1598140800" r="1" fill="white"><title>2020-08-23: 4</title></circle>
	<circle cx="267.86" cy="359.59" data-y="3.94" data-x="1598227200" r="1" fill="white"><title>2020-08-24: 4</title></circle>
	<circle cx="269.31" cy="354.23" data-y="5.31" data-x="1598313600" r="1" fill="white"><title>2020-08-25: 5</title></circle>
	<circle cx="270.77" cy="354.02" data-y="5.37" data-x="1598400000" r="1" fill="white"><title>2020-08-26: 5</title></circle>
	<circle cx="272.22" cy="352.74" data-y="5.70" data-x="1598486400" r="1" fill="white"><title>2020-08-27: 6</title></circle>
	<circle cx="273.68" cy="353.38" data-y="5.53" data-x="1598572800" r="1" fill="white"><title>2020-08-28: 6</title></circle>
	<circle cx="275.13" cy="349.10" data-y="6.63" data-x="1598659200" r="1" fill="white"><title>2020-08-29: 7</title></circle>
	<circle cx="276.58" cy="343.96" data-y="7.94" data-x="1598745600" r="1" fill="white"><title>2020-08-30: 8</title></circle>
	<circle cx="278.04" cy="340.11" data-y="8.93" data-x="1598832000" r="1" fill="white"><title>2020-08-31: 9</title></circle>
	<circle cx="279.49" cy="338.82" data-y="9.26" data-x="1598918400" r="1" fill="white"><title>2020-09-01: 9</title></circle>
	<circle cx="280.95" cy="337.75" data-y="9.53" data-x="1599004800" r="1" fill="white"><title>2020-09-02: 10</title></circle>
	<circle cx="282.40" cy="334.11" data-y="10.46" data-x="1599091200" r="1" fill="white"><title>2020-09-03: 10</title></circle>
	<circle cx="283.86" cy="328.33" data-y="11.94" data-x="1599177600" r="1" fill="white"><title>2020-09-04: 12</title></circle>
	<circle cx="285.31" cy="327.05" data-y="12.27" data-x="1599264000" r="1" fill="white"><title>2020-09-05: 12</title></circle>
	<circle cx="286.76" cy="324.69" data-y="12.87" data-x="1599350400" r="1" fill="white"><title>2020-09-06: 13</title></circle>
	<circle cx="288.22" cy="325.33" data-y="12.71" data-x="1599436800" r="1" fill="white"><title>2020-09-07: 13</title></circle>
	<circle cx="289.67" cy="325.55" data-y="12.65" data-x="1599523200" r="1" fill="white"><title>2020-09-08: 13</title></circle>
	<circle cx="291.13" cy="321.70" data-y="13.64" data-x="1599609600" r="1" fill="white"><title>2020-09-09: 14</title></circle>
	<circle cx="292.58" cy="321.27" data-y="13.75" data-x="1599696000" r="1" fill="white"><title>2020-09-10: 14</title></circle>
	<circle cx="294.04" cy="319.77" data-y="14.13" data-x="1599782400" r="1" fill="white"><title>2020-09-11: 14</title></circle>
	<circle cx="295.49" cy="318.27" data-y="14.52" data-x="1599868800" r="1" fill="white"><title>2020-09-12: 15</title></circle>
	<circle cx="296.94" cy="313.56" data-y="15.72" data-x="1599955200" r="1" fill="white"><title>2020-09-13: 16</title></circle>
	<circle cx="298.40" cy="309.49" data-y="16.76" data-x="1600041600" r="1" fill="white"><title>2020-09-14: 17</title></circle>
	<circle cx="299.85" cy="304.35" data-y="18.08" data-x="1600128000" r="1" fill="white"><title>2020-09-15: 18</title></circle>
	<circle cx="301.31" cy="297.93" data-y="19.72" data-x="1600214400" r="1" fill="white"><title>2020-09-16: 20</title></circle>
	<circle cx="302.76" cy="290.44" data-y="21.64" data-x="1600300800" r="1" fill="white"><title>2020-09-17: 22</title></circle>
	<circle cx="304.22" cy="287.87" data-y="22.29" data-x="1600387200" r="1" fill="white"><title>2020-09-18: 22</title></circle>
	<circle cx="305.67" cy="281.88" data-y="23.83" data-x="1600473600" r="1" fill="white"><title>2020-09-19: 24</title></circle>
	<circle cx="307.12" cy="278.88" data-y="24.59" data-x="1600560000" r="1" fill="white"><title>2020-09-20: 25</title></circle>
	<circle cx="308.58" cy="270.10" data-y="26.84" data-x="1600646400" r="1" fill="white"><title>2020-09-21: 27</title></circle>
	<circle cx="310.03" cy="261.75" data-y="28.98" data-x="1600732800" r="1" fill="white"><title>2020-09-22: 29</title></circle>
	<circle cx="311.49" cy="257.90" data-y="29.96" data-x="1600819200" r="1" fill="white"><title>2020-09-23: 30</title></circle>
	<circle cx="312.94" cy="251.48" data-y="31.61" data-x="1600905600" r="1" fill="white"><title>2020-09-24: 32</title></circle>
	<circle cx="314.40" cy="240.13" data-y="34.51" data-x="1600992000" r="1" fill="white"><title>2020-09-25: 35</title></circle>
	<circle cx="315.85" cy="228.79" data-y="37.41" data-x="1601078400" r="1" fill="white"><title>2020-09-26: 37</title></circle>
	<circle cx="317.30" cy="218.51" data-y="40.04" data-x="1601164800" r="1" fill="white"><title>2020-09-27: 40</title></circle>
	<circle cx="318.76" cy="197.74" data-y="45.35" data-x="1601251200" r="1" fill="white"><title>2020-09-28: 45</title></circle>
	<circle cx="320.21" cy="186.61" data-y="48.20" data-x="1601337600" r="1" fill="white"><title>2020-09-29: 48</title></circle>
	<circle cx="321.67" cy="173.34" data-y="51.60" data-x="1601424000" r="1" fill="white"><title>2020-09-30: 52</title></circle>
	<circle cx="323.12" cy="170.56" data-y="52.31" data-x="1601510400" r="1" fill="white"><title>2020-10-01: 52</title></circle>
	<circle cx="324.58" cy="155.57" data-y="56.15" data-x="1601596800" r="1" fill="white"><title>2020-10-02: 56</title></circle>
	<circle cx="326.03" cy="141.44" data-y="59.76" data-x="1601683200" r="1" fill="white"><title>2020-10-03: 60</title></circle>
	<circle cx="327.48" cy="136.30" data-y="61.07" data-x="1601769600" r="1" fill="white"><title>2020-10-04: 61</title></circle>
	<circle cx="328.94" cy="138.87" data-y="60.42" data-x="1601856000" r="1" fill="white"><title>2020-10-05: 60</title></circle>
	<circle cx="330.39" cy="140.59" data-y="59.98" data-x="1601942400" r="1" fill="white"><title>2020-10-06: 60</title></circle>
	<circle cx="331.85" cy="149.36" data-y="57.73" data-x="1602028800" r="1" fill="white"><title>2020-10-07: 58</title></circle>
	<circle cx="333.30" cy="150.43" data-y="57.46" data-x="1602115200" r="1" fill="white"><title>2020-10-08: 57</title></circle>
	<circle cx="334.75" cy="140.16" data-y="60.09" data-x="1602201600" r="1" fill="white"><title>2020-10-09: 60</title></circle>
	<circle cx="336.21" cy="143.16" data-y="59.32" data-x="1602288000" r="1" fill="white"><title>2020-10-10: 59</title></circle>
	<circle cx="337.66" cy="135.45" data-y="61.29" data-x="1602374400" r="1" fill="white"><title>2020-10-11: 61</title></circle>
	<circle cx="339.12" cy="131.60" data-y="62.28" data-x="1602460800" r="1" fill="white"><title>2020-10-12: 62</title></circle>
	<circle cx="340.57" cy="127.96" data-y="63.21" data-x="1602547200" r="1" fill="white"><title>2020-10-13: 63</title></circle>
	<circle cx="342.03" cy="111.04" data-y="67.54" data-x="1602633600" r="1" fill="white"><title>2020-10-14: 68</title></circle>
	<circle cx="343.48" cy="92.63" data-y="72.25" data-x="1602720000" r="1" fill="white"><title>2020-10-15: 72</title></circle>
	<circle cx="344.93" cy="79.79" data-y="75.54" data-x="1602806400" r="1" fill="white"><title>2020-10-16: 76</title></circle>
	<circle cx="346.39" cy="56.45" data-y="81.51" data-x="1602892800" r="1" fill="white"><title>2020-10-17: 82</title></circle>
	<circle cx="347.84" cy="45.32" data-y="84.35" data-x="1602979200" r="1" fill="white"><title>2020-10-18: 84</title></circle>
	<circle cx="349.30" cy="38.26" data-y="86.16" data-x="1603065600" r="1" fill="white"><title>2020-10-19: 86</title></circle>
	<circle cx="350.75" cy="18.13" data-y="91.31" data-x="1603152000" r="1" fill="white"><title>2020-10-20: 91</title></circle>
	<circle cx="352.21" cy="23.06" data-y="90.05" data-x="1603238400" r="1" fill="white"><title>2020-10-21: 90</title></circle>
	<circle cx="353.66" cy="26.48" data-y="89.17" data-x="1603324800" r="1" fill="white"><title>2020-10-22: 89</title></circle>
	<circle cx="355.11" cy="26.91" data-y="89.07" data-x="1603411200" r="1" fill="white"><title>2020-10-23: 89</title></circle>
	<circle cx="356.57" cy="30.98" data-y="88.02" data-x="1603497600" r="1" fill="white"><title>2020-10-24: 88</title></circle>
	<circle cx="358.02" cy="24.99" data-y="89.56" data-x="1603584000" r="1" fill="white"><title>2020-10-25: 90</title></circle>
	<circle cx="359.48" cy="16.85" data-y="91.64" data-x="1603670400" r="1" fill="white"><title>2020-10-26: 92</title></circle>
	<circle cx="360.93" cy="21.99" data-y="90.33" data-x="1603756800" r="1" fill="white"><title>2020-10-27: 90</title></circle>
	<circle cx="362.39" cy="20.06" data-y="90.82" data-x="1603843200" r="1" fill="white"><title>2020-10-28: 91</title></circle>
	<circle cx="363.84" cy="20.28" data-y="90.76" data-x="1603929600" r="1" fill="white"><title>2020-10-29: 91</title></circle>
	<circle cx="365.29" cy="10.00" data-y="93.39" data-x="1604016000" r="1" fill="white"><title>2020-10-30: 93</title></circle>
	<circle cx="366.75" cy="23.70" data-y="89.89" data-x="1604102400" r="1" fill="white"><title>2020-10-31: 90</title></circle>
	<circle cx="368.20" cy="35.05" data-y="86.98" data-x="1604188800" r="1" fill="white"><title>2020-11-01: 87</title></circle>
	<circle cx="369.66" cy="46.39" data-y="84.08" data-x="1604275200" r="1" fill="white"><title>2020-11-02: 84</title></circle>
	<circle cx="371.11" cy="57.74" data-y="81.18" data-x="1604361600" r="1" fill="white"><title>2020-11-03: 81</title></circle>
	<circle cx="372.57" cy="69.73" data-y="78.11" data-x="1604448000" r="1" fill="white"><title>2020-11-04: 78</title></circle>
	<circle cx="374.02" cy="71.87" data-y="77.56" data-x="1604534400" r="1" fill="white"><title>2020-11-05: 78</title></circle>
	<circle cx="375.47" cy="97.77" data-y="70.93" data-x="1604620800" r="1" fill="white"><title>2020-11-06: 71</title></circle>
	<circle cx="376.93" cy="102.48" data-y="69.73" data-x="1604707200" r="1" fill="white"><title>2020-11-07: 70</title></circle>
	<circle cx="378.38" cy="108.90" data-y="68.09" data-x="1604793600" r="1" fill="white"><title>2020-11-08: 68</title></circle>
	<circle cx="379.84" cy="116.40" data-y="66.17" data-x="1604880000" r="1" fill="white"><title>2020-11-09: 66</title></circle>
	<circle cx="381.29" cy="121.11" data-y="64.96" data-x="1604966400" r="1" fill="white"><title>2020-11-10: 65</title></circle>
	<circle cx="382.75" cy="124.32" data-y="64.14" data-x="1605052800" r="1" fill="white"><title>2020-11-11: 64</title></circle>
	<circle cx="384.20" cy="138.02" data-y="60.64" data-x="1605139200" r="1" fill="white"><title>2020-11-12: 61</title></circle>
	<circle cx="385.65" cy="150.86" data-y="57.35" data-x="1605225600" r="1" fill="white"><title>2020-11-13: 57</title></circle>
	<circle cx="387.11" cy="162.64" data-y="54.34" data-x="1605312000" r="1" fill="white"><title>2020-11-14: 54</title></circle>
	<circle cx="388.56" cy="181.48" data-y="49.52" data-x="1605398400" r="1" fill="white"><title>2020-11-15: 50</title></circle>
	<circle cx="390.02" cy="200.96" data-y="44.53" data-x="1605484800" r="1" fill="white"><title>2020-11-16: 45</title></circle>
	<circle cx="391.47" cy="220.01" data-y="39.66" data-x="1605571200" r="1" fill="white"><title>2020-11-17: 40</title></circle>
	<circle cx="392.92" cy="229.00" data-y="37.36" data-x="1605657600" r="1" fill="white"><title>2020-11-18: 37</title></circle>
	<circle cx="394.38" cy="237.99" data-y="35.06" data-x="1605744000" r="1" fill="white"><title>2020-11-19: 35</title></circle>
	<circle cx="395.83" cy="256.40" data-y="30.35" data-x="1605830400" r="1" fill="white"><title>2020-11-20: 30</title></circle>
	<circle cx="397.29" cy="269.03" data-y="27.11" data-x="1605916800" r="1" fill="white"><title>2020-11-21: 27</title></circle>
	<circle cx="398.74" cy="276.31" data-y="25.25" data-x="1606003200" r="1" fill="white"><title>2020-11-22: 25</title></circle>
	<circle cx="400.20" cy="280.59" data-y="24.16" data-x="1606089600" r="1" fill="white"><title>2020-11-23: 24</title></circle>
	<circle cx="401.65" cy="287.01" data-y="22.51" data-x="1606176000" r="1" fill="white"><title>2020-11-24: 23</title></circle>
	<circle cx="403.10" cy="288.51" data-y="22.13" data-x="1606262400" r="1" fill="white"><title>2020-11-25: 22</title></circle>
	<circle cx="404.56" cy="291.72" data-y="21.31" data-x="1606348800" r="1" fill="white"><title>2020-11-26: 21</title></circle>
	<circle cx="406.01" cy="293.65" data-y="20.81" data-x="1606435200" r="1" fill="white"><title>2020-11-27: 21</title></circle>
	<circle cx="407.47" cy="295.79" data-y="20.27" data-x="1606521600" r="1" fill="white"><title>2020-11-28: 20</title></circle>
	<circle cx="408.92" cy="297.72" data-y="19.77" data-x="1606608000" r="1" fill="white"><title>2020-11-29: 20</title></circle>
	<circle cx="410.38" cy="300.93" data-y="18.95" data-x="1606694400" r="1" fill="white"><title>2020-11-30: 19</title></circle>
	<circle cx="411.83" cy="299.43" data-y="19.34" data-x="1606780800" r="1" fill="white"><title>2020-12-01: 19</title></circle>
	<circle cx="413.28" cy="302.21" data-y="18.62" data-x="1606867200" r="1" fill="white"><title>2020-12-02: 19</title></circle>
	<circle cx="414.74" cy="300.50" data-y="19.06" data-x="1606953600" r="1" fill="white"><title>2020-12-03: 19</title></circle>
	<circle cx="416.19" cy="300.07" data-y="19.17" data-x="1607040000" r="1" fill="white"><title>2020-12-04: 19</title></circle>
	<circle cx="417.65" cy="299.43" data-y="19.34" data-x="1607126400" r="1" fill="white"><title>2020-12-05: 19</title></circle>
	<circle cx="419.10" cy="300.07" data-y="19.17" data-x="1607212800" r="1" fill="white"><title>2020-12-06: 19</title></circle>
	<circle cx="420.56" cy="298.15" data-y="19.66" data-x="1607299200" r="1" fill="white"><title>2020-12-07: 20</title></circle>
	<circle cx="422.01" cy="294.08" data-y="20.71" data-x="1607385600" r="1" fill="white"><title>2020-12-08: 21</title></circle>
	<circle cx="423.46" cy="289.80" data-y="21.80" data-x="1607472000" r="1" fill="white"><title>2020-12-09: 22</title></circle>
	<circle cx="424.92" cy="289.58" data-y="21.86" data-x="1607558400" r="1" fill="white"><title>2020-12-10: 22</title></circle>
	<circle cx="426.37" cy="287.87" data-y="22.29" data-x="1607644800" r="1" fill="white"><title>2020-12-11: 22</title></circle>
	<circle cx="427.83" cy="283.16" data-y="23.50" data-x="1607731200" r="1" fill="white"><title>2020-12-12: 23</title></circle>
	<circle cx="429.28" cy="282.09" data-y="23.77" data-x="1607817600" r="1" fill="white"><title>2020-12-13: 24</title></circle>
	<circle cx="430.74" cy="281.02" data-y="24.05" data-x="1607904000" r="1" fill="white"><title>2020-12-14: 24</title></circle>
	<circle cx="432.19" cy="274.60" data-y="25.69" data-x="1607990400" r="1" fill="white"><title>2020-12-15: 26</title></circle>
	<circle cx="433.64" cy="273.10" data-y="26.07" data-x="1608076800" r="1" fill="white"><title>2020-12-16: 26</title></circle>
	<circle cx="435.10" cy="270.53" data-y="26.73" data-x="1608163200" r="1" fill="white"><title>2020-12-17: 27</title></circle>
	<circle cx="436.55" cy="260.04" data-y="29.41" data-x="1608249600" r="1" fill="white"><title>2020-12-18: 29</title></circle>
	<circle cx="438.01" cy="257.26" data-y="30.13" data-x="1608336000" r="1" fill="white"><title>2020-12-19: 30</title></circle>
	<circle cx="439.46" cy="249.34" data-y="32.15" data-x="1608422400" r="1" fill="white"><title>2020-12-20: 32</title></circle>
	<circle cx="440.92" cy="250.19" data-y="31.93" data-x="1608508800" r="1" fill="white"><title>2020-12-21: 32</title></circle>
	<circle cx="442.37" cy="264.96" data-y="28.15" data-x="1608595200" r="1" fill="white"><title>2020-12-22: 28</title></circle>
	<circle cx="443.82" cy="265.18" data-y="28.10" data-x="1608681600" r="1" fill="white"><title>2020-12-23: 28</title></circle>
	<circle cx="445.28" cy="260.26" data-y="29.36" data-x="1608768000" r="1" fill="white"><title>2020-12-24: 29</title></circle>
	<circle cx="446.73" cy="266.89" data-y="27.66" data-x="1608854400" r="1" fill="white"><title>2020-12-25: 28</title></circle>
	<circle cx="448.19" cy="248.05" data-y="32.48" data-x="1608940800" r="1" fill="white"><title>2020-12-26: 32</title></circle>
	<circle cx="449.64" cy="235.21" data-y="35.77" data-x="1609027200" r="1" fill="white"><title>2020-12-27: 36</title></circle>
	<circle cx="451.09" cy="220.01" data-y="39.66" data-x="1609113600" r="1" fill="white"><title>2020-12-28: 40</title></circle>
	<circle cx="452.55" cy="209.30" data-y="42.40" data-x="1609200000" r="1" fill="white"><title>2020-12-29: 42</title></circle>
	<circle cx="454.00" cy="190.04" data-y="47.33" data-x="1609286400" r="1" fill="white"><title>2020-12-30: 47</title></circle>
	<circle cx="455.46" cy="173.34" data-y="51.60" data-x="1609372800" r="1" fill="white"><title>2020-12-31: 52</title></circle>
	<circle cx="456.91" cy="151.08" data-y="57.30" data-x="1609459200" r="1" fill="white"><title>2021-01-01: 57</title></circle>
	<circle cx="458.37" cy="147.01" data-y="58.34" data-x="1609545600" r="1" fill="white"><title>2021-01-02: 58</title></circle>
	<circle cx="459.82" cy="138.66" data-y="60.47" data-x="1609632000" r="1" fill="white"><title>2021-01-03: 60</title></circle>
	<circle cx="461.27" cy="134.59" data-y="61.51" data-x="1609718400" r="1" fill="white"><title>2021-01-04: 62</title></circle>
	<circle cx="462.73" cy="120.89" data-y="65.02" data-x="1609804800" r="1" fill="white"><title>2021-01-05: 65</title></circle>
</g>
<g data-series="recent-cases" class="data-series">
	<path d="M 462.73,120.89L 464.18,127.53L 465.64,161.78L 467.09,173.95L 468.55,194.88L 470.00,223.65" id="Recent cases" class="line" stroke-width="1" stroke-linecap="round" stroke-dasharray="4,6" stroke-dashoffset="4"><title>Recent cases</title></path>
	<circle cx="462.73" cy="120.89" data-y="65.02" data-x="1609804800" r="2.5" fill="white"><title>2021-01-05: 65</title></circle>
	<circle cx="464.18" cy="127.53" data-y="63.32" data-x="1609891200" r="2.5" fill="white"><title>2021-01-06: 63</title></circle>
	<circle cx="465.64" cy="161.78" data-y="54.56" data-x="1609977600" r="2.5" fill="white"><title>2021-01-07: 55</title></circle>
	<circle cx="467.09" cy="173.95" data-y="51.44" data-x="1610064000" r="2.5" fill="white"><title>2021-01-08: 51</title></circle>
	<circle cx="468.55" cy="194.88" data-y="46.09" data-x="1610150400" r="2.5" fill="white"><title>2021-01-09: 46</title></circle>
	<circle cx="470.00" cy="223.65" data-y="38.73" data-x="1610236800" r="2.5" fill="white"><title>2021-01-10: 39</title></circle>
</g>
</svg>
