<svg width="480" height="400" viewBox="0 0 480 400" xmlns="http://www.w3.org/2000/svg" style="overflow:display" preserveAspectRatio="xMinYMin meet" overflow="visible">
<defs>
	<style>
	.data-series path.line { fill-opacity: 0; stroke: black; }
	.data-series path.line.dotted { stroke-dasharray: 12 20 }
	.data-series:hover path.line, .data-series.on path.line { stroke-width: 1; }
	.data-series:hover circle, .data-series.on circle { display: inline; }
	.graph-grid { font-family: "Helvetica Neue",Helvetica,Arial,"Lucida Grande",sans-serif; }
	.graph-grid line { stroke: black; stroke-width: 1; stroke-linecap: round; }
	.graph-grid.graph-grid-x text { text-anchor: middle; dominant-baseline: hanging; transform: translateY(10px); }
	.graph-grid.graph-grid-y text { text-anchor: end; dominant-baseline: middle; transform: translateX(-10px); }
	</style>
</defs>
<g class="graph-grid graph-grid-y">
	<line x1="25.00" y1="375.00" x2="470.00" y2="375.00" data-left="25"></line>
	<text x="35" y="375" text-anchor="end">0</text>
	<text x="35" y="284.351442938659" text-anchor="end">20</text>
	<text x="35" y="193.702885877318" text-anchor="end">40</text>
	<text x="35" y="103.054328815977" text-anchor="end">60</text>
	<text x="35" y="12.4057717546362" text-anchor="end">80</text>
	<text style="text-anchor:middle;dominant-baseline:hanging;font-weight:bold;transform: translateY(192.5px) rotate(-90deg);"></text>
</g>
<g class="graph-grid graph-grid-x">
	<line class="tick" x1="79.94" y1="375.00" x2="79.94" y2="380.00"></line>
	<text x="79.9382716049383" y="375" text-anchor="middle">A</text>
	<line class="tick" x1="134.88" y1="375.00" x2="134.88" y2="380.00"></line>
	<text x="134.876543209877" y="375" text-anchor="middle">M</text>
	<line class="tick" x1="191.65" y1="375.00" x2="191.65" y2="380.00"></line>
	<text x="191.646090534979" y="375" text-anchor="middle">J</text>
	<line class="tick" x1="246.58" y1="375.00" x2="246.58" y2="380.00"></line>
	<text x="246.584362139918" y="375" text-anchor="middle">J</text>
	<line class="tick" x1="303.35" y1="375.00" x2="303.35" y2="380.00"></line>
	<text x="303.353909465021" y="375" text-anchor="middle">A</text>
	<line class="tick" x1="360.12" y1="375.00" x2="360.12" y2="380.00"></line>
	<text x="360.123456790123" y="375" text-anchor="middle">S</text>
	<line class="tick" x1="415.06" y1="375.00" x2="415.06" y2="380.00"></line>
	<text x="415.061728395062" y="375" text-anchor="middle">O</text>
	<text style="text-anchor:middle;dominant-baseline:hanging;font-weight:bold;transform: translateY(192.5px) rotate(-90deg);"></text>
</g>
<g data-series="widespread" class="data-series">
	<path d="M 25.00,343.27L 470.00,343.27" id="E08000016-level-0" class="line" stroke-width="1" stroke-linecap="round" stroke-dasharray="3,3" fill-opacity="0.3" opacity="0.3"><title>Widespread</title></path>
</g>
<g data-series="substantial" class="data-series">
	<path d="M 25.00,356.87L 470.00,356.87" id="E08000016-level-1" class="line" stroke-width="1" stroke-linecap="round" stroke-dasharray="3,3" fill-opacity="0.3" opacity="0.3"><title>Substantial</title></path>
</g>
<g data-series="moderate" class="data-series">
	<path d="M 25.00,370.47L 470.00,370.47" id="E08000016-level-2" class="line" stroke-width="1" stroke-linecap="round" stroke-dasharray="3,3" fill-opacity="0.3" opacity="0.3"><title>Moderate</title></path>
</g>
<g data-series="new-cases" class="data-series">
	<path d="M 25.00,373.63L 26.83,373.91L 28.66,374.09L 30.49,374.22L 32.33,374.48L 34.16,375.00L 35.99,374.74L 37.82,374.74L 39.65,374.74L 41.48,374.22L 43.31,373.96L 45.14,373.96L 46.98,373.44L 48.81,372.92L 50.64,371.62L 52.47,371.36L 54.30,370.83L 56.13,369.27L 57.96,365.89L 59.79,362.24L 61.63,360.42L 63.46,356.26L 65.29,352.61L 67.12,350.01L 68.95,348.45L 70.78,347.92L 72.61,343.50L 74.44,339.33L 76.28,341.16L 78.11,342.72L 79.94,343.24L 81.77,346.10L 83.60,346.62L 85.43,349.49L 87.26,352.09L 89.09,350.79L 90.93,346.62L 92.76,343.24L 94.59,338.29L 96.42,333.08L 98.25,331.78L 100.08,332.56L 101.91,334.39L 103.74,335.95L 105.58,338.29L 107.41,336.21L 109.24,338.81L 111.07,342.20L 112.90,336.73L 114.73,334.13L 116.56,334.91L 118.40,332.56L 120.23,334.91L 122.06,333.35L 123.89,328.66L 125.72,328.14L 127.55,326.32L 129.38,321.11L 131.21,320.85L 133.05,317.20L 134.88,315.64L 136.71,320.59L 138.54,321.89L 140.37,325.27L 142.20,331.00L 144.03,334.39L 145.86,336.73L 147.70,341.94L 149.53,342.98L 151.36,344.54L 153.19,339.59L 155.02,332.56L 156.85,333.35L 158.68,336.99L 160.51,337.77L 162.35,335.69L 164.18,338.03L 166.01,343.50L 167.84,350.01L 169.67,348.45L 171.50,348.18L 173.33,343.50L 175.16,344.80L 177.00,346.36L 178.83,345.84L 180.66,346.36L 182.49,348.18L 184.32,350.01L 186.15,354.95L 187.98,353.91L 189.81,352.35L 191.65,354.43L 193.48,353.13L 195.31,350.27L 197.14,347.14L 198.97,346.62L 200.80,345.84L 202.63,346.10L 204.47,343.24L 206.30,345.58L 208.13,345.58L 209.96,346.62L 211.79,344.28L 213.62,347.14L 215.45,345.84L 217.28,344.80L 219.12,339.33L 220.95,340.63L 222.78,339.85L 224.61,340.63L 226.44,338.81L 228.27,339.85L 230.10,342.72L 231.93,347.66L 233.77,348.18L 235.60,349.49L 237.43,352.61L 239.26,354.17L 241.09,356.78L 242.92,357.56L 244.75,359.12L 246.58,360.94L 248.42,362.76L 250.25,363.54L 252.08,363.81L 253.91,364.59L 255.74,366.67L 257.57,367.45L 259.40,367.97L 261.23,368.23L 263.07,368.75L 264.90,370.31L 266.73,369.53L 268.56,368.75L 270.39,368.49L 272.22,366.67L 274.05,365.89L 275.88,364.59L 277.72,365.11L 279.55,366.67L 281.38,366.93L 283.21,367.45L 285.04,370.05L 286.87,371.36L 288.70,371.88L 290.53,370.57L 292.37,368.75L 294.20,367.97L 296.03,367.97L 297.86,367.71L 299.69,366.67L 301.52,366.93L 303.35,366.93L 305.19,367.97L 307.02,367.71L 308.85,366.41L 310.68,365.89L 312.51,366.41L 314.34,363.81L 316.17,361.98L 318.00,360.42L 319.84,360.42L 321.67,359.90L 323.50,360.68L 325.33,360.16L 327.16,363.28L 328.99,365.11L 330.82,366.15L 332.65,366.15L 334.49,368.49L 336.32,368.49L 338.15,369.53L 339.98,369.53L 341.81,370.05L 343.64,370.31L 345.47,371.36L 347.30,370.57L 349.14,369.79L 350.97,369.27L 352.80,368.75L 354.63,365.89L 356.46,360.68L 358.29,357.82L 360.12,357.04L 361.95,356.00L 363.79,353.91L 365.62,352.35L 367.45,354.43L 369.28,356.78L 371.11,356.52L 372.94,356.52L 374.77,356.26L 376.60,358.08L 378.44,358.08L 380.27,359.12L 382.10,359.90L 383.93,360.68L 385.76,356.52L 387.59,356.00L 389.42,353.13L 391.26,351.31L 393.09,348.97L 394.92,342.72L 396.75,338.55L 398.58,336.47L 400.41,331.00L 402.24,325.80L 404.07,321.11L 405.91,310.96L 407.74,306.79L 409.57,298.20L 411.40,288.83L 413.23,282.58L 415.06,279.45L 416.89,269.04L 418.72,250.82L 420.56,230.51L 422.39,215.41L 424.22,212.03L 426.05,205.00L 427.88,195.10L 429.71,165.16L 431.54,159.96L 433.37,145.90L 435.21,137.57L 437.04,120.91L 438.87,99.56L 440.70,81.07L 442.53,58.16L 444.36,39.42L 446.19,25.88L 448.02,12.34L 449.86,10.00L 451.69,21.72L 453.52,35.77L 455.35,50.61L 457.18,51.92L 459.01,56.60L 460.84,64.15" id="New cases" class="line" stroke-width="1" stroke-linecap="round"><title>New cases</title></path>
	<circle cx="25.00" cy="373.63" data-y="0.30" data-x="1583107200" r="1" fill="white"><title>2020-03-02: 0</title></circle>
	<circle cx="26.83" cy="373.91" data-y="0.24" data-x="1583193600" r="1" fill="white"><title>2020-03-03: 0</title></circle>
	<circle cx="28.66" cy="374.09" data-y="0.20" data-x="1583280000" r="1" fill="white"><title>2020-03-04: 0</title></circle>
	<circle cx="30.49" cy="374.22" data-y="0.17" data-x="1583366400" r="1" fill="white"><title>2020-03-05: 0</title></circle>
	<circle cx="32.33" cy="374.48" data-y="0.11" data-x="1583452800" r="1" fill="white"><title>2020-03-06: 0</title></circle>
	<circle cx="34.16" cy="375.00" data-y="0.00" data-x="1583539200" r="1" fill="white"><title>2020-03-07: 0</title></circle>
	<circle cx="35.99" cy="374.74" data-y="0.06" data-x="1583625600" r="1" fill="white"><title>2020-03-08: 0</title></circle>
	<circle cx="37.82" cy="374.74" data-y="0.06" data-x="1583712000" r="1" fill="white"><title>2020-03-09: 0</title></circle>
	<circle cx="39.65" cy="374.74" data-y="0.06" data-x="1583798400" r="1" fill="white"><title>2020-03-10: 0</title></circle>
	<circle cx="41.48" cy="374.22" data-y="0.17" data-x="1583884800" r="1" fill="white"><title>2020-03-11: 0</title></circle>
	<circle cx="43.31" cy="373.96" data-y="0.23" data-x="1583971200" r="1" fill="white"><title>2020-03-12: 0</title></circle>
	<circle cx="45.14" cy="373.96" data-y="0.23" data-x="1584057600" r="1" fill="white"><title>2020-03-13: 0</title></circle>
	<circle cx="46.98" cy="373.44" data-y="0.34" data-x="1584144000" r="1" fill="white"><title>2020-03-14: 0</title></circle>
	<circle cx="48.81" cy="372.92" data-y="0.46" data-x="1584230400" r="1" fill="white"><title>2020-03-15: 0</title></circle>
	<circle cx="50.64" cy="371.62" data-y="0.75" data-x="1584316800" r="1" fill="white"><title>2020-03-16: 1</title></circle>
	<circle cx="52.47" cy="371.36" data-y="0.80" data-x="1584403200" r="1" fill="white"><title>2020-03-17: 1</title></circle>
	<circle cx="54.30" cy="370.83" data-y="0.92" data-x="1584489600" r="1" fill="white"><title>2020-03-18: 1</title></circle>
	<circle cx="56.13" cy="369.27" data-y="1.26" data-x="1584576000" r="1" fill="white"><title>2020-03-19: 1</title></circle>
	<circle cx="57.96" cy="365.89" data-y="2.01" data-x="1584662400" r="1" fill="white"><title>2020-03-20: 2</title></circle>
	<circle cx="59.79" cy="362.24" data-y="2.81" data-x="1584748800" r="1" fill="white"><title>2020-03-21: 3</title></circle>
	<circle cx="61.63" cy="360.42" data-y="3.22" data-x="1584835200" r="1" fill="white"><title>2020-03-22: 3</title></circle>
	<circle cx="63.46" cy="356.26" data-y="4.14" data-x="1584921600" r="1" fill="white"><title>2020-03-23: 4</title></circle>
	<circle cx="65.29" cy="352.61" data-y="4.94" data-x="1585008000" r="1" fill="white"><title>2020-03-24: 5</title></circle>
	<circle cx="67.12" cy="350.01" data-y="5.51" data-x="1585094400" r="1" fill="white"><title>2020-03-25: 6</title></circle>
	<circle cx="68.95" cy="348.45" data-y="5.86" data-x="1585180800" r="1" fill="white"><title>2020-03-26: 6</title></circle>
	<circle cx="70.78" cy="347.92" data-y="5.97" data-x="1585267200" r="1" fill="white"><title>2020-03-27: 6</title></circle>
	<circle cx="72.61" cy="343.50" data-y="6.95" data-x="1585353600" r="1" fill="white"><title>2020-03-28: 7</title></circle>
	<circle cx="74.44" cy="339.33" data-y="7.87" data-x="1585440000" r="1" fill="white"><title>2020-03-29: 8</title></circle>
	<circle cx="76.28" cy="341.16" data-y="7.47" data-x="1585526400" r="1" fill="white"><title>2020-03-30: 7</title></circle>
	<circle cx="78.11" cy="342.72" data-y="7.12" data-x="1585612800" r="1" fill="white"><title>2020-03-31: 7</title></circle>
	<circle cx="79.94" cy="343.24" data-y="7.01" data-x="1585699200" r="1" fill="white"><title>2020-04-01: 7</title></circle>
	<circle cx="81.77" cy="346.10" data-y="6.38" data-x="1585785600" r="1" fill="white"><title>2020-04-02: 6</title></circle>
	<circle cx="83.60" cy="346.62" data-y="6.26" data-x="1585872000" r="1" fill="white"><title>2020-04-03: 6</title></circle>
	<circle cx="85.43" cy="349.49" data-y="5.63" data-x="1585958400" r="1" fill="white"><title>2020-04-04: 6</title></circle>
	<circle cx="87.26" cy="352.09" data-y="5.05" data-x="1586044800" r="1" fill="white"><title>2020-04-05: 5</title></circle>
	<circle cx="89.09" cy="350.79" data-y="5.34" data-x="1586131200" r="1" fill="white"><title>2020-04-06: 5</title></circle>
	<circle cx="90.93" cy="346.62" data-y="6.26" data-x="1586217600" r="1" fill="white"><title>2020-04-07: 6</title></circle>
	<circle cx="92.76" cy="343.24" data-y="7.01" data-x="1586304000" r="1" fill="white"><title>2020-04-08: 7</title></circle>
	<circle cx="94.59" cy="338.29" data-y="8.10" data-x="1586390400" r="1" fill="white"><title>2020-04-09: 8</title></circle>
	<circle cx="96.42" cy="333.08" data-y="9.25" data-x="1586476800" r="1" fill="white"><title>2020-04-10: 9</title></circle>
	<circle cx="98.25" cy="331.78" data-y="9.54" data-x="1586563200" r="1" fill="white"><title>2020-04-11: 10</title></circle>
	<circle cx="100.08" cy="332.56" data-y="9.36" data-x="1586649600" r="1" fill="white"><title>2020-04-12: 9</title></circle>
	<circle cx="101.91" cy="334.39" data-y="8.96" data-x="1586736000" r="1" fill="white"><title>2020-04-13: 9</title></circle>
	<circle cx="103.74" cy="335.95" data-y="8.62" data-x="1586822400" r="1" fill="white"><title>2020-04-14: 9</title></circle>
	<circle cx="105.58" cy="338.29" data-y="8.10" data-x="1586908800" r="1" fill="white"><title>2020-04-15: 8</title></circle>
	<circle cx="107.41" cy="336.21" data-y="8.56" data-x="1586995200" r="1" fill="white"><title>2020-04-16: 9</title></circle>
	<circle cx="109.24" cy="338.81" data-y="7.98" data-x="1587081600" r="1" fill="white"><title>2020-04-17: 8</title></circle>
	<circle cx="111.07" cy="342.20" data-y="7.24" data-x="1587168000" r="1" fill="white"><title>2020-04-18: 7</title></circle>
	<circle cx="112.90" cy="336.73" data-y="8.44" data-x="1587254400" r="1" fill="white"><title>2020-04-19: 8</title></circle>
	<circle cx="114.73" cy="334.13" data-y="9.02" data-x="1587340800" r="1" fill="white"><title>2020-04-20: 9</title></circle>
	<circle cx="116.56" cy="334.91" data-y="8.85" data-x="1587427200" r="1" fill="white"><title>2020-04-21: 9</title></circle>
	<circle cx="118.40" cy="332.56" data-y="9.36" data-x="1587513600" r="1" fill="white"><title>2020-04-22: 9</title></circle>
	<circle cx="120.23" cy="334.91" data-y="8.85" data-x="1587600000" r="1" fill="white"><title>2020-04-23: 9</title></circle>
	<circle cx="122.06" cy="333.35" data-y="9.19" data-x="1587686400" r="1" fill="white"><title>2020-04-24: 9</title></circle>
	<circle cx="123.89" cy="328.66" data-y="10.22" data-x="1587772800" r="1" fill="white"><title>2020-04-25: 10</title></circle>
	<circle cx="125.72" cy="328.14" data-y="10.34" data-x="1587859200" r="1" fill="white"><title>2020-04-26: 10</title></circle>
	<circle cx="127.55" cy="326.32" data-y="10.74" data-x="1587945600" r="1" fill="white"><title>2020-04-27: 11</title></circle>
	<circle cx="129.38" cy="321.11" data-y="11.89" data-x="1588032000" r="1" fill="white"><title>2020-04-28: 12</title></circle>
	<circle cx="131.21" cy="320.85" data-y="11.95" data-x="1588118400" r="1" fill="white"><title>2020-04-29: 12</title></circle>
	<circle cx="133.05" cy="317.20" data-y="12.75" data-x="1588204800" r="1" fill="white"><title>2020-04-30: 13</title></circle>
	<circle cx="134.88" cy="315.64" data-y="13.10" data-x="1588291200" r="1" fill="white"><title>2020-05-01: 13</title></circle>
	<circle cx="136.71" cy="320.59" data-y="12.00" data-x="1588377600" r="1" fill="white"><title>2020-05-02: 12</title></circle>
	<circle cx="138.54" cy="321.89" data-y="11.72" data-x="1588464000" r="1" fill="white"><title>2020-05-03: 12</title></circle>
	<circle cx="140.37" cy="325.27" data-y="10.97" data-x="1588550400" r="1" fill="white"><title>2020-05-04: 11</title></circle>
	<circle cx="142.20" cy="331.00" data-y="9.71" data-x="1588636800" r="1" fill="white"><title>2020-05-05: 10</title></circle>
	<circle cx="144.03" cy="334.39" data-y="8.96" data-x="1588723200" r="1" fill="white"><title>2020-05-06: 9</title></circle>
	<circle cx="145.86" cy="336.73" data-y="8.44" data-x="1588809600" r="1" fill="white"><title>2020-05-07: 8</title></circle>
	<circle cx="147.70" cy="341.94" data-y="7.29" data-x="1588896000" r="1" fill="white"><title>2020-05-08: 7</title></circle>
	<circle cx="149.53" cy="342.98" data-y="7.07" data-x="1588982400" r="1" fill="white"><title>2020-05-09: 7</title></circle>
	<circle cx="151.36" cy="344.54" data-y="6.72" data-x="1589068800" r="1" fill="white"><title>2020-05-10: 7</title></circle>
	<circle cx="153.19" cy="339.59" data-y="7.81" data-x="1589155200" r="1" fill="white"><title>2020-05-11: 8</title></circle>
	<circle cx="155.02" cy="332.56" data-y="9.36" data-x="1589241600" r="1" fill="white"><title>2020-05-12: 9</title></circle>
	<circle cx="156.85" cy="333.35" data-y="9.19" data-x="1589328000" r="1" fill="white"><title>2020-05-13: 9</title></circle>
	<circle cx="158.68" cy="336.99" data-y="8.39" data-x="1589414400" r="1" fill="white"><title>2020-05-14: 8</title></circle>
	<circle cx="160.51" cy="337.77" data-y="8.21" data-x="1589500800" r="1" fill="white"><title>2020-05-15: 8</title></circle>
	<circle cx="162.35" cy="335.69" data-y="8.67" data-x="1589587200" r="1" fill="white"><title>2020-05-16: 9</title></circle>
	<circle cx="164.18" cy="338.03" data-y="8.16" data-x="1589673600" r="1" fill="white"><title>2020-05-17: 8</title></circle>
	<circle cx="166.01" cy="343.50" data-y="6.95" data-x="1589760000" r="1" fill="white"><title>2020-05-18: 7</title></circle>
	<circle cx="167.84" cy="350.01" data-y="5.51" data-x="1589846400" r="1" fill="white"><title>2020-05-19: 6</title></circle>
	<circle cx="169.67" cy="348.45" data-y="5.86" data-x="1589932800" r="1" fill="white"><title>2020-05-20: 6</title></circle>
	<circle cx="171.50" cy="348.18" data-y="5.92" data-x="1590019200" r="1" fill="white"><title>2020-05-21: 6</title></circle>
	<circle cx="173.33" cy="343.50" data-y="6.95" data-x="1590105600" r="1" fill="white"><title>2020-05-22: 7</title></circle>
	<circle cx="175.16" cy="344.80" data-y="6.66" data-x="1590192000" r="1" fill="white"><title>2020-05-23: 7</title></circle>
	<circle cx="177.00" cy="346.36" data-y="6.32" data-x="1590278400" r="1" fill="white"><title>2020-05-24: 6</title></circle>
	<circle cx="178.83" cy="345.84" data-y="6.43" data-x="1590364800" r="1" fill="white"><title>2020-05-25: 6</title></circle>
	<circle cx="180.66" cy="346.36" data-y="6.32" data-x="1590451200" r="1" fill="white"><title>2020-05-26: 6</title></circle>
	<circle cx="182.49" cy="348.18" data-y="5.92" data-x="1590537600" r="1" fill="white"><title>2020-05-27: 6</title></circle>
	<circle cx="184.32" cy="350.01" data-y="5.51" data-x="1590624000" r="1" fill="white"><title>2020-05-28: 6</title></circle>
	<circle cx="186.15" cy="354.95" data-y="4.42" data-x="1590710400" r="1" fill="white"><title>2020-05-29: 4</title></circle>
	<circle cx="187.98" cy="353.91" data-y="4.65" data-x="1590796800" r="1" fill="white"><title>2020-05-30: 5</title></circle>
	<circle cx="189.81" cy="352.35" data-y="5.00" data-x="1590883200" r="1" fill="white"><title>2020-05-31: 5</title></circle>
	<circle cx="191.65" cy="354.43" data-y="4.54" data-x="1590969600" r="1" fill="white"><title>2020-06-01: 5</title></circle>
	<circle cx="193.48" cy="353.13" data-y="4.82" data-x="1591056000" r="1" fill="white"><title>2020-06-02: 5</title></circle>
	<circle cx="195.31" cy="350.27" data-y="5.46" data-x="1591142400" r="1" fill="white"><title>2020-06-03: 5</title></circle>
	<circle cx="197.14" cy="347.14" data-y="6.15" data-x="1591228800" r="1" fill="white"><title>2020-06-04: 6</title></circle>
	<circle cx="198.97" cy="346.62" data-y="6.26" data-x="1591315200" r="1" fill="white"><title>2020-06-05: 6</title></circle>
	<circle cx="200.80" cy="345.84" data-y="6.43" data-x="1591401600" r="1" fill="white"><title>2020-06-06: 6</title></circle>
	<circle cx="202.63" cy="346.10" data-y="6.38" data-x="1591488000" r="1" fill="white"><title>2020-06-07: 6</title></circle>
	<circle cx="204.47" cy="343.24" data-y="7.01" data-x="1591574400" r="1" fill="white"><title>2020-06-08: 7</title></circle>
	<circle cx="206.30" cy="345.58" data-y="6.49" data-x="1591660800" r="1" fill="white"><title>2020-06-09: 6</title></circle>
	<circle cx="208.13" cy="345.58" data-y="6.49" data-x="1591747200" r="1" fill="white"><title>2020-06-10: 6</title></circle>
	<circle cx="209.96" cy="346.62" data-y="6.26" data-x="1591833600" r="1" fill="white"><title>2020-06-11: 6</title></circle>
	<circle cx="211.79" cy="344.28" data-y="6.78" data-x="1591920000" r="1" fill="white"><title>2020-06-12: 7</title></circle>
	<circle cx="213.62" cy="347.14" data-y="6.15" data-x="1592006400" r="1" fill="white"><title>2020-06-13: 6</title></circle>
	<circle cx="215.45" cy="345.84" data-y="6.43" data-x="1592092800" r="1" fill="white"><title>2020-06-14: 6</title></circle>
	<circle cx="217.28" cy="344.80" data-y="6.66" data-x="1592179200" r="1" fill="white"><title>2020-06-15: 7</title></circle>
	<circle cx="219.12" cy="339.33" data-y="7.87" data-x="1592265600" r="1" fill="white"><title>2020-06-16: 8</title></circle>
	<circle cx="220.95" cy="340.63" data-y="7.58" data-x="1592352000" r="1" fill="white"><title>2020-06-17: 8</title></circle>
	<circle cx="222.78" cy="339.85" data-y="7.75" data-x="1592438400" r="1" fill="white"><title>2020-06-18: 8</title></circle>
	<circle cx="224.61" cy="340.63" data-y="7.58" data-x="1592524800" r="1" fill="white"><title>2020-06-19: 8</title></circle>
	<circle cx="226.44" cy="338.81" data-y="7.98" data-x="1592611200" r="1" fill="white"><title>2020-06-20: 8</title></circle>
	<circle cx="228.27" cy="339.85" data-y="7.75" data-x="1592697600" r="1" fill="white"><title>2020-06-21: 8</title></circle>
	<circle cx="230.10" cy="342.72" data-y="7.12" data-x="1592784000" r="1" fill="white"><title>2020-06-22: 7</title></circle>
	<circle cx="231.93" cy="347.66" data-y="6.03" data-x="1592870400" r="1" fill="white"><title>2020-06-23: 6</title></circle>
	<circle cx="233.77" cy="348.18" data-y="5.92" data-x="1592956800" r="1" fill="white"><title>2020-06-24: 6</title></circle>
	<circle cx="235.60" cy="349.49" data-y="5.63" data-x="1593043200" r="1" fill="white"><title>2020-06-25: 6</title></circle>
	<circle cx="237.43" cy="352.61" data-y="4.94" data-x="1593129600" r="1" fill="white"><title>2020-06-26: 5</title></circle>
	<circle cx="239.26" cy="354.17" data-y="4.60" data-x="1593216000" r="1" fill="white"><title>2020-06-27: 5</title></circle>
	<circle cx="241.09" cy="356.78" data-y="4.02" data-x="1593302400" r="1" fill="white"><title>2020-06-28: 4</title></circle>
	<circle cx="242.92" cy="357.56" data-y="3.85" data-x="1593388800" r="1" fill="white"><title>2020-06-29: 4</title></circle>
	<circle cx="244.75" cy="359.12" data-y="3.50" data-x="1593475200" r="1" fill="white"><title>2020-06-30: 4</title></circle>
	<circle cx="246.58" cy="360.94" data-y="3.10" data-x="1593561600" r="1" fill="white"><title>2020-07-01: 3</title></circle>
	<circle cx="248.42" cy="362.76" data-y="2.70" data-x="1593648000" r="1" fill="white"><title>2020-07-02: 3</title></circle>
	<circle cx="250.25" cy="363.54" data-y="2.53" data-x="1593734400" r="1" fill="white"><title>2020-07-03: 3</title></circle>
	<circle cx="252.08" cy="363.81" data-y="2.47" data-x="1593820800" r="1" fill="white"><title>2020-07-04: 2</title></circle>
	<circle cx="253.91" cy="364.59" data-y="2.30" data-x="1593907200" r="1" fill="white"><title>2020-07-05: 2</title></circle>
	<circle cx="255.74" cy="366.67" data-y="1.84" data-x="1593993600" r="1" fill="white"><title>2020-07-06: 2</title></circle>
	<circle cx="257.57" cy="367.45" data-y="1.67" data-x="1594080000" r="1" fill="white"><title>2020-07-07: 2</title></circle>
	<circle cx="259.40" cy="367.97" data-y="1.55" data-x="1594166400" r="1" fill="white"><title>2020-07-08: 2</title></circle>
	<circle cx="261.23" cy="368.23" data-y="1.49" data-x="1594252800" r="1" fill="white"><title>2020-07-09: 1</title></circle>
	<circle cx="263.07" cy="368.75" data-y="1.38" data-x="1594339200" r="1" fill="white"><title>2020-07-10: 1</title></circle>
	<circle cx="264.90" cy="370.31" data-y="1.03" data-x="1594425600" r="1" fill="white"><title>2020-07-11: 1</title></circle>
	<circle cx="266.73" cy="369.53" data-y="1.21" data-x="1594512000" r="1" fill="white"><title>2020-07-12: 1</title></circle>
	<circle cx="268.56" cy="368.75" data-y="1.38" data-x="1594598400" r="1" fill="white"><title>2020-07-13: 1</title></circle>
	<circle cx="270.39" cy="368.49" data-y="1.44" data-x="1594684800" r="1" fill="white"><title>2020-07-14: 1</title></circle>
	<circle cx="272.22" cy="366.67" data-y="1.84" data-x="1594771200" r="1" fill="white"><title>2020-07-15: 2</title></circle>
	<circle cx="274.05" cy="365.89" data-y="2.01" data-x="1594857600" r="1" fill="white"><title>2020-07-16: 2</title></circle>
	<circle cx="275.88" cy="364.59" data-y="2.30" data-x="1594944000" r="1" fill="white"><title>2020-07-17: 2</title></circle>
	<circle cx="277.72" cy="365.11" data-y="2.18" data-x="1595030400" r="1" fill="white"><title>2020-07-18: 2</title></circle>
	<circle cx="279.55" cy="366.67" data-y="1.84" data-x="1595116800" r="1" fill="white"><title>2020-07-19: 2</title></circle>
	<circle cx="281.38" cy="366.93" data-y="1.78" data-x="1595203200" r="1" fill="white"><title>2020-07-20: 2</title></circle>
	<circle cx="283.21" cy="367.45" data-y="1.67" data-x="1595289600" r="1" fill="white"><title>2020-07-21: 2</title></circle>
	<circle cx="285.04" cy="370.05" data-y="1.09" data-x="1595376000" r="1" fill="white"><title>2020-07-22: 1</title></circle>
	<circle cx="286.87" cy="371.36" data-y="0.80" data-x="1595462400" r="1" fill="white"><title>2020-07-23: 1</title></circle>
	<circle cx="288.70" cy="371.88" data-y="0.69" data-x="1595548800" r="1" fill="white"><title>2020-07-24: 1</title></circle>
	<circle cx="290.53" cy="370.57" data-y="0.98" data-x="1595635200" r="1" fill="white"><title>2020-07-25: 1</title></circle>
	<circle cx="292.37" cy="368.75" data-y="1.38" data-x="1595721600" r="1" fill="white"><title>2020-07-26: 1</title></circle>
	<circle cx="294.20" cy="367.97" data-y="1.55" data-x="1595808000" r="1" fill="white"><title>2020-07-27: 2</title></circle>
	<circle cx="296.03" cy="367.97" data-y="1.55" data-x="1595894400" r="1" fill="white"><title>2020-07-28: 2</title></circle>
	<circle cx="297.86" cy="367.71" data-y="1.61" data-x="1595980800" r="1" fill="white"><title>2020-07-29: 2</title></circle>
	<circle cx="299.69" cy="366.67" data-y="1.84" data-x="1596067200" r="1" fill="white"><title>2020-07-30: 2</title></circle>
	<circle cx="301.52" cy="366.93" data-y="1.78" data-x="1596153600" r="1" fill="white"><title>2020-07-31: 2</title></circle>
	<circle cx="303.35" cy="366.93" data-y="1.78" data-x="1596240000" r="1" fill="white"><title>2020-08-01: 2</title></circle>
	<circle cx="305.19" cy="367.97" data-y="1.55" data-x="1596326400" r="1" fill="white"><title>2020-08-02: 2</title></circle>
	<circle cx="307.02" cy="367.71" data-y="1.61" data-x="1596412800" r="1" fill="white"><title>2020-08-03: 2</title></circle>
	<circle cx="308.85" cy="366.41" data-y="1.90" data-x="1596499200" r="1" fill="white"><title>2020-08-04: 2</title></circle>
	<circle cx="310.68" cy="365.89" data-y="2.01" data-x="1596585600" r="1" fill="white"><title>2020-08-05: 2</title></circle>
	<circle cx="312.51" cy="366.41" data-y="1.90" data-x="1596672000" r="1" fill="white"><title>2020-08-06: 2</title></circle>
	<circle cx="314.34" cy="363.81" data-y="2.47" data-x="1596758400" r="1" fill="white"><title>2020-08-07: 2</title></circle>
	<circle cx="316.17" cy="361.98" data-y="2.87" data-x="1596844800" r="1" fill="white"><title>2020-08-08: 3</title></circle>
	<circle cx="318.00" cy="360.42" data-y="3.22" data-x="1596931200" r="1" fill="white"><title>2020-08-09: 3</title></circle>
	<circle cx="319.84" cy="360.42" data-y="3.22" data-x="1597017600" r="1" fill="white"><title>2020-08-10: 3</title></circle>
	<circle cx="321.67" cy="359.90" data-y="3.33" data-x="1597104000" r="1" fill="white"><title>2020-08-11: 3</title></circle>
	<circle cx="323.50" cy="360.68" data-y="3.16" data-x="1597190400" r="1" fill="white"><title>2020-08-12: 3</title></circle>
	<circle cx="325.33" cy="360.16" data-y="3.27" data-x="1597276800" r="1" fill="white"><title>2020-08-13: 3</title></circle>
	<circle cx="327.16" cy="363.28" data-y="2.58" data-x="1597363200" r="1" fill="white"><title>2020-08-14: 3</title></circle>
	<circle cx="328.99" cy="365.11" data-y="2.18" data-x="1597449600" r="1" fill="white"><title>2020-08-15: 2</title></circle>
	<circle cx="330.82" cy="366.15" data-y="1.95" data-x="1597536000" r="1" fill="white"><title>2020-08-16: 2</title></circle>
	<circle cx="332.65" cy="366.15" data-y="1.95" data-x="1597622400" r="1" fill="white"><title>2020-08-17: 2</title></circle>
	<circle cx="334.49" cy="368.49" data-y="1.44" data-x="1597708800" r="1" fill="white"><title>2020-08-18: 1</title></circle>
	<circle cx="336.32" cy="368.49" data-y="1.44" data-x="1597795200" r="1" fill="white"><title>2020-08-19: 1</title></circle>
	<circle cx="338.15" cy="369.53" data-y="1.21" data-x="1597881600" r="1" fill="white"><title>2020-08-20: 1</title></circle>
	<circle cx="339.98" cy="369.53" data-y="1.21" data-x="1597968000" r="1" fill="white"><title>2020-08-21: 1</title></circle>
	<circle cx="341.81" cy="370.05" data-y="1.09" data-x="1598054400" r="1" fill="white"><title>2020-08-22: 1</title></circle>
	<circle cx="343.64" cy="370.31" data-y="1.03" data-x="1598140800" r="1" fill="white"><title>2020-08-23: 1</title></circle>
	<circle cx="345.47" cy="371.36" data-y="0.80" data-x="1598227200" r="1" fill="white"><title>2020-08-24: 1</title></circle>
	<circle cx="347.30" cy="370.57" data-y="0.98" data-x="1598313600" r="1" fill="white"><title>2020-08-25: 1</title></circle>
	<circle cx="349.14" cy="369.79" data-y="1.15" data-x="1598400000" r="1" fill="white"><title>2020-08-26: 1</title></circle>
	<circle cx="350.97" cy="369.27" data-y="1.26" data-x="1598486400" r="1" fill="white"><title>2020-08-27: 1</title></circle>
	<circle cx="352.80" cy="368.75" data-y="1.38" data-x="1598572800" r="1" fill="white"><title>2020-08-28: 1</title></circle>
	<circle cx="354.63" cy="365.89" data-y="2.01" data-x="1598659200" r="1" fill="white"><title>2020-08-29: 2</title></circle>
	<circle cx="356.46" cy="360.68" data-y="3.16" data-x="1598745600" r="1" fill="white"><title>2020-08-30: 3</title></circle>
	<circle cx="358.29" cy="357.82" data-y="3.79" data-x="1598832000" r="1" fill="white"><title>2020-08-31: 4</title></circle>
	<circle cx="360.12" cy="357.04" data-y="3.96" data-x="1598918400" r="1" fill="white"><title>2020-09-01: 4</title></circle>
	<circle cx="361.95" cy="356.00" data-y="4.19" data-x="1599004800" r="1" fill="white"><title>2020-09-02: 4</title></circle>
	<circle cx="363.79" cy="353.91" data-y="4.65" data-x="1599091200" r="1" fill="white"><title>2020-09-03: 5</title></circle>
	<circle cx="365.62" cy="352.35" data-y="5.00" data-x="1599177600" r="1" fill="white"><title>2020-09-04: 5</title></circle>
	<circle cx="367.45" cy="354.43" data-y="4.54" data-x="1599264000" r="1" fill="white"><title>2020-09-05: 5</title></circle>
	<circle cx="369.28" cy="356.78" data-y="4.02" data-x="1599350400" r="1" fill="white"><title>2020-09-06: 4</title></circle>
	<circle cx="371.11" cy="356.52" data-y="4.08" data-x="1599436800" r="1" fill="white"><title>2020-09-07: 4</title></circle>
	<circle cx="372.94" cy="356.52" data-y="4.08" data-x="1599523200" r="1" fill="white"><title>2020-09-08: 4</title></circle>
	<circle cx="374.77" cy="356.26" data-y="4.14" data-x="1599609600" r="1" fill="white"><title>2020-09-09: 4</title></circle>
	<circle cx="376.60" cy="358.08" data-y="3.73" data-x="1599696000" r="1" fill="white"><title>2020-09-10: 4</title></circle>
	<circle cx="378.44" cy="358.08" data-y="3.73" data-x="1599782400" r="1" fill="white"><title>2020-09-11: 4</title></circle>
	<circle cx="380.27" cy="359.12" data-y="3.50" data-x="1599868800" r="1" fill="white"><title>2020-09-12: 4</title></circle>
	<circle cx="382.10" cy="359.90" data-y="3.33" data-x="1599955200" r="1" fill="white"><title>2020-09-13: 3</title></circle>
	<circle cx="383.93" cy="360.68" data-y="3.16" data-x="1600041600" r="1" fill="white"><title>2020-09-14: 3</title></circle>
	<circle cx="385.76" cy="356.52" data-y="4.08" data-x="1600128000" r="1" fill="white"><title>2020-09-15: 4</title></circle>
	<circle cx="387.59" cy="356.00" data-y="4.19" data-x="1600214400" r="1" fill="white"><title>2020-09-16: 4</title></circle>
	<circle cx="389.42" cy="353.13" data-y="4.82" data-x="1600300800" r="1" fill="white"><title>2020-09-17: 5</title></circle>
	<circle cx="391.26" cy="351.31" data-y="5.23" data-x="1600387200" r="1" fill="white"><title>2020-09-18: 5</title></circle>
	<circle cx="393.09" cy="348.97" data-y="5.74" data-x="1600473600" r="1" fill="white"><title>2020-09-19: 6</title></circle>
	<circle cx="394.92" cy="342.72" data-y="7.12" data-x="1600560000" r="1" fill="white"><title>2020-09-20: 7</title></circle>
	<circle cx="396.75" cy="338.55" data-y="8.04" data-x="1600646400" r="1" fill="white"><title>2020-09-21: 8</title></circle>
	<circle cx="398.58" cy="336.47" data-y="8.50" data-x="1600732800" r="1" fill="white"><title>2020-09-22: 9</title></circle>
	<circle cx="400.41" cy="331.00" data-y="9.71" data-x="1600819200" r="1" fill="white"><title>2020-09-23: 10</title></circle>
	<circle cx="402.24" cy="325.80" data-y="10.86" data-x="1600905600" r="1" fill="white"><title>2020-09-24: 11</title></circle>
	<circle cx="404.07" cy="321.11" data-y="11.89" data-x="1600992000" r="1" fill="white"><title>2020-09-25: 12</title></circle>
	<circle cx="405.91" cy="310.96" data-y="14.13" data-x="1601078400" r="1" fill="white"><title>2020-09-26: 14</title></circle>
	<circle cx="407.74" cy="306.79" data-y="15.05" data-x="1601164800" r="1" fill="white"><title>2020-09-27: 15</title></circle>
	<circle cx="409.57" cy="298.20" data-y="16.94" data-x="1601251200" r="1" fill="white"><title>2020-09-28: 17</title></circle>
	<circle cx="411.40" cy="288.83" data-y="19.01" data-x="1601337600" r="1" fill="white"><title>2020-09-29: 19</title></circle>
	<circle cx="413.23" cy="282.58" data-y="20.39" data-x="1601424000" r="1" fill="white"><title>2020-09-30: 20</title></circle>
	<circle cx="415.06" cy="279.45" data-y="21.08" data-x="1601510400" r="1" fill="white"><title>2020-10-01: 21</title></circle>
	<circle cx="416.89" cy="269.04" data-y="23.38" data-x="1601596800" r="1" fill="white"><title>2020-10-02: 23</title></circle>
	<circle cx="418.72" cy="250.82" data-y="27.40" data-x="1601683200" r="1" fill="white"><title>2020-10-03: 27</title></circle>
	<circle cx="420.56" cy="230.51" data-y="31.88" data-x="1601769600" r="1" fill="white"><title>2020-10-04: 32</title></circle>
	<circle cx="422.39" cy="215.41" data-y="35.21" data-x="1601856000" r="1" fill="white"><title>2020-10-05: 35</title></circle>
	<circle cx="424.22" cy="212.03" data-y="35.96" data-x="1601942400" r="1" fill="white"><title>2020-10-06: 36</title></circle>
	<circle cx="426.05" cy="205.00" data-y="37.51" data-x="1602028800" r="1" fill="white"><title>2020-10-07: 38</title></circle>
	<circle cx="427.88" cy="195.10" data-y="39.69" data-x="1602115200" r="1" fill="white"><title>2020-10-08: 40</title></circle>
	<circle cx="429.71" cy="165.16" data-y="46.30" data-x="1602201600" r="1" fill="white"><title>2020-10-09: 46</title></circle>
	<circle cx="431.54" cy="159.96" data-y="47.45" data-x="1602288000" r="1" fill="white"><title>2020-10-10: 47</title></circle>
	<circle cx="433.37" cy="145.90" data-y="50.55" data-x="1602374400" r="1" fill="white"><title>2020-10-11: 51</title></circle>
	<circle cx="435.21" cy="137.57" data-y="52.39" data-x="1602460800" r="1" fill="white"><title>2020-10-12: 52</title></circle>
	<circle cx="437.04" cy="120.91" data-y="56.06" data-x="1602547200" r="1" fill="white"><title>2020-10-13: 56</title></circle>
	<circle cx="438.87" cy="99.56" data-y="60.77" data-x="1602633600" r="1" fill="white"><title>2020-10-14: 61</title></circle>
	<circle cx="440.70" cy="81.07" data-y="64.85" data-x="1602720000" r="1" fill="white"><title>2020-10-15: 65</title></circle>
	<circle cx="442.53" cy="58.16" data-y="69.90" data-x="1602806400" r="1" fill="white"><title>2020-10-16: 70</title></circle>
	<circle cx="444.36" cy="39.42" data-y="74.04" data-x="1602892800" r="1" fill="white"><title>2020-10-17: 74</title></circle>
	<circle cx="446.19" cy="25.88" data-y="77.03" data-x="1602979200" r="1" fill="white"><title>2020-10-18: 77</title></circle>
	<circle cx="448.02" cy="12.34" data-y="80.01" data-x="1603065600" r="1" fill="white"><title>2020-10-19: 80</title></circle>
	<circle cx="449.86" cy="10.00" data-y="80.53" data-x="1603152000" r="1" fill="white"><title>2020-10-20: 81</title></circle>
	<circle cx="451.69" cy="21.72" data-y="77.95" data-x="1603238400" r="1" fill="white"><title>2020-10-21: 78</title></circle>
	<circle cx="453.52" cy="35.77" data-y="74.84" data-x="1603324800" r="1" fill="white"><title>2020-10-22: 75</title></circle>
	<circle cx="455.35" cy="50.61" data-y="71.57" data-x="1603411200" r="1" fill="white"><title>2020-10-23: 72</title></circle>
	<circle cx="457.18" cy="51.92" data-y="71.28" data-x="1603497600" r="1" fill="white"><title>2020-10-24: 71</title></circle>
	<circle cx="459.01" cy="56.60" data-y="70.25" data-x="1603584000" r="1" fill="white"><title>2020-10-25: 70</title></circle>
	<circle cx="460.84" cy="64.15" data-y="68.58" data-x="1603670400" r="1" fill="white"><title>2020-10-26: 69</title></circle>
</g>
<g data-series="recent-cases" class="data-series">
	<path d="M 460.84,64.15L 462.67,65.45L 464.51,96.17L 466.34,80.68L 468.17,102.37L 470.00,128.52" id="Recent cases" class="line" stroke-width="1" stroke-linecap="round" stroke-dasharray="4,6" stroke-dashoffset="4"><title>Recent cases</title></path>
	<circle cx="460.84" cy="64.15" data-y="68.58" data-x="1603670400" r="2.5" fill="white"><title>2020-10-26: 69</title></circle>
	<circle cx="462.67" cy="65.45" data-y="68.30" data-x="1603756800" r="2.5" fill="white"><title>2020-10-27: 68</title></circle>
	<circle cx="464.51" cy="96.17" data-y="61.52" data-x="1603843200" r="2.5" fill="white"><title>2020-10-28: 62</title></circle>
	<circle cx="466.34" cy="80.68" data-y="64.94" data-x="1603929600" r="2.5" fill="white"><title>2020-10-29: 65</title></circle>
	<circle cx="468.17" cy="102.37" data-y="60.15" data-x="1604016000" r="2.5" fill="white"><title>2020-10-30: 60</title></circle>
	<circle cx="470.00" cy="128.52" data-y="54.38" data-x="1604102400" r="2.5" fill="white"><title>2020-10-31: 54</title></circle>
</g>
</svg>
