<svg width="480" height="400" viewBox="0 0 480 400" xmlns="http://www.w3.org/2000/svg" style="overflow:display" preserveAspectRatio="xMinYMin meet" overflow="visible">
<defs>
	<style>
	.data-series path.line { fill-opacity: 0; stroke: black; }
	.data-series path.line.dotted { stroke-dasharray: 12 20 }
	.data-series:hover path.line, .data-series.on path.line { stroke-width: 1; }
	.data-series:hover circle, .data-series.on circle { display: inline; }
	.graph-grid { font-family: "Helvetica Neue",Helvetica,Arial,"Lucida Grande",sans-serif; }
	.graph-grid line { stroke: black; stroke-width: 1; stroke-linecap: round; }
	.graph-grid.graph-grid-x text { text-anchor: middle; dominant-baseline: hanging; transform: translateY(10px); }
	.graph-grid.graph-grid-y text { text-anchor: end; dominant-baseline: middle; transform: translateX(-10px); }
	</style>
</defs>
<g class="graph-grid graph-grid-y">
	<line x1="25.00" y1="375.00" x2="470.00" y2="375.00" data-left="25"></line>
	<text x="35" y="375" text-anchor="end">0</text>
	<text x="35" y="282.93260807601" text-anchor="end">20</text>
	<text x="35" y="190.865216152019" text-anchor="end">40</text>
	<text x="35" y="98.7978242280285" text-anchor="end">60</text>
	<text x="35" y="6.730432304038" text-anchor="end">80</text>
	<text style="text-anchor:middle;dominant-baseline:hanging;font-weight:bold;transform: translateY(192.5px) rotate(-90deg);"></text>
</g>
<g class="graph-grid graph-grid-x">
	<line class="tick" x1="64.35" y1="375.00" x2="64.35" y2="380.00"></line>
	<text x="64.3537414965986" y="375" text-anchor="middle">A</text>
	<line class="tick" x1="109.76" y1="375.00" x2="109.76" y2="380.00"></line>
	<text x="109.761904761905" y="375" text-anchor="middle">M</text>
	<line class="tick" x1="156.68" y1="375.00" x2="156.68" y2="380.00"></line>
	<text x="156.683673469388" y="375" text-anchor="middle">J</text>
	<line class="tick" x1="202.09" y1="375.00" x2="202.09" y2="380.00"></line>
	<text x="202.091836734694" y="375" text-anchor="middle">J</text>
	<line class="tick" x1="249.01" y1="375.00" x2="249.01" y2="380.00"></line>
	<text x="249.013605442177" y="375" text-anchor="middle">A</text>
	<line class="tick" x1="295.94" y1="375.00" x2="295.94" y2="380.00"></line>
	<text x="295.93537414966" y="375" text-anchor="middle">S</text>
	<line class="tick" x1="341.34" y1="375.00" x2="341.34" y2="380.00"></line>
	<text x="341.343537414966" y="375" text-anchor="middle">O</text>
	<line class="tick" x1="388.27" y1="375.00" x2="388.27" y2="380.00"></line>
	<text x="388.265306122449" y="375" text-anchor="middle">N</text>
	<line class="tick" x1="433.67" y1="375.00" x2="433.67" y2="380.00"></line>
	<text x="433.673469387755" y="375" text-anchor="middle">D</text>
	<text style="text-anchor:middle;dominant-baseline:hanging;font-weight:bold;transform: translateY(192.5px) rotate(-90deg);"></text>
</g>
<g data-series="widespread" class="data-series">
	<path d="M 25.00,342.78L 470.00,342.78" id="E08000008-level-0" class="line" stroke-width="1" stroke-linecap="round" stroke-dasharray="3,3" fill-opacity="0.3" opacity="0.3"><title>Widespread</title></path>
</g>
<g data-series="substantial" class="data-series">
	<path d="M 25.00,356.59L 470.00,356.59" id="E08000008-level-1" class="line" stroke-width="1" stroke-linecap="round" stroke-dasharray="3,3" fill-opacity="0.3" opacity="0.3"><title>Substantial</title></path>
</g>
<g data-series="moderate" class="data-series">
	<path d="M 25.00,370.40L 470.00,370.40" id="E08000008-level-2" class="line" stroke-width="1" stroke-linecap="round" stroke-dasharray="3,3" fill-opacity="0.3" opacity="0.3"><title>Moderate</title></path>
</g>
<g data-series="new-cases" class="data-series">
	<path d="M 25.00,374.49L 26.51,374.19L 28.03,373.99L 29.54,372.98L 31.05,372.69L 32.57,372.11L 34.08,371.24L 35.60,370.67L 37.11,370.09L 38.62,369.51L 40.14,369.51L 41.65,369.51L 43.16,367.78L 44.68,367.49L 46.19,367.20L 47.70,366.62L 49.22,366.33L 50.73,365.17L 52.24,363.44L 53.76,363.73L 55.27,361.13L 56.79,359.11L 58.30,355.35L 59.81,352.17L 61.33,348.99L 62.84,347.55L 64.35,345.23L 65.87,344.94L 67.38,339.74L 68.89,342.05L 70.41,338.59L 71.92,340.03L 73.44,340.90L 74.95,342.92L 76.46,341.77L 77.98,344.08L 79.49,342.63L 81.00,345.52L 82.52,343.50L 84.03,342.92L 85.54,337.14L 87.06,338.59L 88.57,340.32L 90.09,340.61L 91.60,340.32L 93.11,342.34L 94.63,340.32L 96.14,345.23L 97.65,344.37L 99.17,343.50L 100.68,345.23L 102.19,343.21L 103.71,341.48L 105.22,338.88L 106.73,339.16L 108.25,335.12L 109.76,337.43L 111.28,334.54L 112.79,337.72L 114.30,339.16L 115.82,342.63L 117.33,341.77L 118.84,345.81L 120.36,338.59L 121.87,338.01L 123.38,334.83L 124.90,325.29L 126.41,325.00L 127.93,324.71L 129.44,325.29L 130.95,329.34L 132.47,320.09L 133.98,319.22L 135.49,325.29L 137.01,323.85L 138.52,322.98L 140.03,323.56L 141.55,325.58L 143.06,336.56L 144.57,339.74L 146.09,345.23L 147.60,349.57L 149.12,351.01L 150.63,350.44L 152.14,349.57L 153.66,348.70L 155.17,349.57L 156.68,348.70L 158.20,347.26L 159.71,348.99L 161.22,351.30L 162.74,353.33L 164.25,354.77L 165.77,354.77L 167.28,355.64L 168.79,355.35L 170.31,355.06L 171.82,353.90L 173.33,353.04L 174.85,351.59L 176.36,351.59L 177.87,351.01L 179.39,351.59L 180.90,350.72L 182.41,353.04L 183.93,353.04L 185.44,356.79L 186.96,357.95L 188.47,359.11L 189.98,362.00L 191.50,363.44L 193.01,363.44L 194.52,364.89L 196.04,365.17L 197.55,365.75L 199.06,366.62L 200.58,365.75L 202.09,367.20L 203.61,366.33L 205.12,368.06L 206.63,367.20L 208.15,367.78L 209.66,368.06L 211.17,368.93L 212.69,367.49L 214.20,368.93L 215.71,369.22L 217.23,370.38L 218.74,370.95L 220.26,371.24L 221.77,370.95L 223.28,371.53L 224.80,370.95L 226.31,368.93L 227.82,368.35L 229.34,367.78L 230.85,366.33L 232.36,363.73L 233.88,364.02L 235.39,364.31L 236.90,364.02L 238.42,362.57L 239.93,358.53L 241.45,355.64L 242.96,358.24L 244.47,357.66L 245.99,356.79L 247.50,354.48L 249.01,351.88L 250.53,353.90L 252.04,353.04L 253.55,351.01L 255.07,350.72L 256.58,350.15L 258.10,351.30L 259.61,352.75L 261.12,352.75L 262.64,355.64L 264.15,355.64L 265.66,355.64L 267.18,357.08L 268.69,356.50L 270.20,356.79L 271.72,357.66L 273.23,357.66L 274.74,356.79L 276.26,355.06L 277.77,353.61L 279.29,354.48L 280.80,356.22L 282.31,353.61L 283.83,351.59L 285.34,351.01L 286.85,350.15L 288.37,349.86L 289.88,349.86L 291.39,344.66L 292.91,338.59L 294.42,336.85L 295.94,334.25L 297.45,330.78L 298.96,324.14L 300.48,312.58L 301.99,305.35L 303.50,311.13L 305.02,307.66L 306.53,301.88L 308.04,299.57L 309.56,304.49L 311.07,306.22L 312.59,308.82L 314.10,301.60L 315.61,298.42L 317.13,295.24L 318.64,289.46L 320.15,280.21L 321.67,281.37L 323.18,273.56L 324.69,266.34L 326.21,260.27L 327.72,262.87L 329.23,261.71L 330.75,257.96L 332.26,245.82L 333.78,236.57L 335.29,240.91L 336.80,240.04L 338.32,229.06L 339.83,223.28L 341.34,219.23L 342.86,207.38L 344.37,203.92L 345.88,187.44L 347.40,173.28L 348.91,169.81L 350.43,172.13L 351.94,165.77L 353.45,158.25L 354.97,154.50L 356.48,142.36L 357.99,144.67L 359.51,141.78L 361.02,132.24L 362.53,132.24L 364.05,120.40L 365.56,95.54L 367.07,81.67L 368.59,61.73L 370.10,42.95L 371.62,34.85L 373.13,21.56L 374.64,15.20L 376.16,10.00L 377.67,13.18L 379.18,13.18L 380.70,13.18L 382.21,15.49L 383.72,19.54L 385.24,10.58L 386.75,24.74L 388.27,48.15L 389.78,53.35L 391.29,62.89L 392.81,64.91L 394.32,73.00L 395.83,96.12L 397.35,104.79L 398.86,91.79L 400.37,96.41L 401.89,106.81L 403.40,115.48L 404.91,123.57L 406.43,128.78L 407.94,144.67L 409.46,166.63L 410.97,186.00L 412.48,196.11L 414.00,206.23L 415.51,217.21L 417.02,239.46L 418.54,249.29L 420.05,258.25L 421.56,264.03L 423.08,274.14L 424.59,279.05L 426.11,278.19L 427.62,279.92L 429.13,281.08L 430.65,285.12L 432.16,296.10L 433.67,295.24L 435.19,296.68L 436.70,301.88L 438.21,305.93L 439.73,315.47L 441.24,314.89L 442.76,311.13L 444.27,313.44L 445.78,315.47L 447.30,312.29L 448.81,312.87L 450.32,305.64L 451.84,303.62L 453.35,296.97L 454.86,292.64L 456.38,287.72L 457.89,283.68L 459.40,277.32L 460.92,271.25L 462.43,266.92" id="New cases" class="line" stroke-width="1" stroke-linecap="round"><title>New cases</title></path>
	<circle cx="25.00" cy="374.49" data-y="0.11" data-x="1583452800" r="1" fill="white"><title>2020-03-06: 0</title></circle>
	<circle cx="26.51" cy="374.19" data-y="0.18" data-x="1583539200" r="1" fill="white"><title>2020-03-07: 0</title></circle>
	<circle cx="28.03" cy="373.99" data-y="0.22" data-x="1583625600" r="1" fill="white"><title>2020-03-08: 0</title></circle>
	<circle cx="29.54" cy="372.98" data-y="0.44" data-x="1583712000" r="1" fill="white"><title>2020-03-09: 0</title></circle>
	<circle cx="31.05" cy="372.69" data-y="0.50" data-x="1583798400" r="1" fill="white"><title>2020-03-10: 1</title></circle>
	<circle cx="32.57" cy="372.11" data-y="0.63" data-x="1583884800" r="1" fill="white"><title>2020-03-11: 1</title></circle>
	<circle cx="34.08" cy="371.24" data-y="0.82" data-x="1583971200" r="1" fill="white"><title>2020-03-12: 1</title></circle>
	<circle cx="35.60" cy="370.67" data-y="0.94" data-x="1584057600" r="1" fill="white"><title>2020-03-13: 1</title></circle>
	<circle cx="37.11" cy="370.09" data-y="1.07" data-x="1584144000" r="1" fill="white"><title>2020-03-14: 1</title></circle>
	<circle cx="38.62" cy="369.51" data-y="1.19" data-x="1584230400" r="1" fill="white"><title>2020-03-15: 1</title></circle>
	<circle cx="40.14" cy="369.51" data-y="1.19" data-x="1584316800" r="1" fill="white"><title>2020-03-16: 1</title></circle>
	<circle cx="41.65" cy="369.51" data-y="1.19" data-x="1584403200" r="1" fill="white"><title>2020-03-17: 1</title></circle>
	<circle cx="43.16" cy="367.78" data-y="1.57" data-x="1584489600" r="1" fill="white"><title>2020-03-18: 2</title></circle>
	<circle cx="44.68" cy="367.49" data-y="1.63" data-x="1584576000" r="1" fill="white"><title>2020-03-19: 2</title></circle>
	<circle cx="46.19" cy="367.20" data-y="1.70" data-x="1584662400" r="1" fill="white"><title>2020-03-20: 2</title></circle>
	<circle cx="47.70" cy="366.62" data-y="1.82" data-x="1584748800" r="1" fill="white"><title>2020-03-21: 2</title></circle>
	<circle cx="49.22" cy="366.33" data-y="1.88" data-x="1584835200" r="1" fill="white"><title>2020-03-22: 2</title></circle>
	<circle cx="50.73" cy="365.17" data-y="2.13" data-x="1584921600" r="1" fill="white"><title>2020-03-23: 2</title></circle>
	<circle cx="52.24" cy="363.44" data-y="2.51" data-x="1585008000" r="1" fill="white"><title>2020-03-24: 3</title></circle>
	<circle cx="53.76" cy="363.73" data-y="2.45" data-x="1585094400" r="1" fill="white"><title>2020-03-25: 2</title></circle>
	<circle cx="55.27" cy="361.13" data-y="3.01" data-x="1585180800" r="1" fill="white"><title>2020-03-26: 3</title></circle>
	<circle cx="56.79" cy="359.11" data-y="3.45" data-x="1585267200" r="1" fill="white"><title>2020-03-27: 3</title></circle>
	<circle cx="58.30" cy="355.35" data-y="4.27" data-x="1585353600" r="1" fill="white"><title>2020-03-28: 4</title></circle>
	<circle cx="59.81" cy="352.17" data-y="4.96" data-x="1585440000" r="1" fill="white"><title>2020-03-29: 5</title></circle>
	<circle cx="61.33" cy="348.99" data-y="5.65" data-x="1585526400" r="1" fill="white"><title>2020-03-30: 6</title></circle>
	<circle cx="62.84" cy="347.55" data-y="5.96" data-x="1585612800" r="1" fill="white"><title>2020-03-31: 6</title></circle>
	<circle cx="64.35" cy="345.23" data-y="6.47" data-x="1585699200" r="1" fill="white"><title>2020-04-01: 6</title></circle>
	<circle cx="65.87" cy="344.94" data-y="6.53" data-x="1585785600" r="1" fill="white"><title>2020-04-02: 7</title></circle>
	<circle cx="67.38" cy="339.74" data-y="7.66" data-x="1585872000" r="1" fill="white"><title>2020-04-03: 8</title></circle>
	<circle cx="68.89" cy="342.05" data-y="7.16" data-x="1585958400" r="1" fill="white"><title>2020-04-04: 7</title></circle>
	<circle cx="70.41" cy="338.59" data-y="7.91" data-x="1586044800" r="1" fill="white"><title>2020-04-05: 8</title></circle>
	<circle cx="71.92" cy="340.03" data-y="7.60" data-x="1586131200" r="1" fill="white"><title>2020-04-06: 8</title></circle>
	<circle cx="73.44" cy="340.90" data-y="7.41" data-x="1586217600" r="1" fill="white"><title>2020-04-07: 7</title></circle>
	<circle cx="74.95" cy="342.92" data-y="6.97" data-x="1586304000" r="1" fill="white"><title>2020-04-08: 7</title></circle>
	<circle cx="76.46" cy="341.77" data-y="7.22" data-x="1586390400" r="1" fill="white"><title>2020-04-09: 7</title></circle>
	<circle cx="77.98" cy="344.08" data-y="6.72" data-x="1586476800" r="1" fill="white"><title>2020-04-10: 7</title></circle>
	<circle cx="79.49" cy="342.63" data-y="7.03" data-x="1586563200" r="1" fill="white"><title>2020-04-11: 7</title></circle>
	<circle cx="81.00" cy="345.52" data-y="6.40" data-x="1586649600" r="1" fill="white"><title>2020-04-12: 6</title></circle>
	<circle cx="82.52" cy="343.50" data-y="6.84" data-x="1586736000" r="1" fill="white"><title>2020-04-13: 7</title></circle>
	<circle cx="84.03" cy="342.92" data-y="6.97" data-x="1586822400" r="1" fill="white"><title>2020-04-14: 7</title></circle>
	<circle cx="85.54" cy="337.14" data-y="8.22" data-x="1586908800" r="1" fill="white"><title>2020-04-15: 8</title></circle>
	<circle cx="87.06" cy="338.59" data-y="7.91" data-x="1586995200" r="1" fill="white"><title>2020-04-16: 8</title></circle>
	<circle cx="88.57" cy="340.32" data-y="7.53" data-x="1587081600" r="1" fill="white"><title>2020-04-17: 8</title></circle>
	<circle cx="90.09" cy="340.61" data-y="7.47" data-x="1587168000" r="1" fill="white"><title>2020-04-18: 7</title></circle>
	<circle cx="91.60" cy="340.32" data-y="7.53" data-x="1587254400" r="1" fill="white"><title>2020-04-19: 8</title></circle>
	<circle cx="93.11" cy="342.34" data-y="7.09" data-x="1587340800" r="1" fill="white"><title>2020-04-20: 7</title></circle>
	<circle cx="94.63" cy="340.32" data-y="7.53" data-x="1587427200" r="1" fill="white"><title>2020-04-21: 8</title></circle>
	<circle cx="96.14" cy="345.23" data-y="6.47" data-x="1587513600" r="1" fill="white"><title>2020-04-22: 6</title></circle>
	<circle cx="97.65" cy="344.37" data-y="6.65" data-x="1587600000" r="1" fill="white"><title>2020-04-23: 7</title></circle>
	<circle cx="99.17" cy="343.50" data-y="6.84" data-x="1587686400" r="1" fill="white"><title>2020-04-24: 7</title></circle>
	<circle cx="100.68" cy="345.23" data-y="6.47" data-x="1587772800" r="1" fill="white"><title>2020-04-25: 6</title></circle>
	<circle cx="102.19" cy="343.21" data-y="6.91" data-x="1587859200" r="1" fill="white"><title>2020-04-26: 7</title></circle>
	<circle cx="103.71" cy="341.48" data-y="7.28" data-x="1587945600" r="1" fill="white"><title>2020-04-27: 7</title></circle>
	<circle cx="105.22" cy="338.88" data-y="7.85" data-x="1588032000" r="1" fill="white"><title>2020-04-28: 8</title></circle>
	<circle cx="106.73" cy="339.16" data-y="7.78" data-x="1588118400" r="1" fill="white"><title>2020-04-29: 8</title></circle>
	<circle cx="108.25" cy="335.12" data-y="8.66" data-x="1588204800" r="1" fill="white"><title>2020-04-30: 9</title></circle>
	<circle cx="109.76" cy="337.43" data-y="8.16" data-x="1588291200" r="1" fill="white"><title>2020-05-01: 8</title></circle>
	<circle cx="111.28" cy="334.54" data-y="8.79" data-x="1588377600" r="1" fill="white"><title>2020-05-02: 9</title></circle>
	<circle cx="112.79" cy="337.72" data-y="8.10" data-x="1588464000" r="1" fill="white"><title>2020-05-03: 8</title></circle>
	<circle cx="114.30" cy="339.16" data-y="7.78" data-x="1588550400" r="1" fill="white"><title>2020-05-04: 8</title></circle>
	<circle cx="115.82" cy="342.63" data-y="7.03" data-x="1588636800" r="1" fill="white"><title>2020-05-05: 7</title></circle>
	<circle cx="117.33" cy="341.77" data-y="7.22" data-x="1588723200" r="1" fill="white"><title>2020-05-06: 7</title></circle>
	<circle cx="118.84" cy="345.81" data-y="6.34" data-x="1588809600" r="1" fill="white"><title>2020-05-07: 6</title></circle>
	<circle cx="120.36" cy="338.59" data-y="7.91" data-x="1588896000" r="1" fill="white"><title>2020-05-08: 8</title></circle>
	<circle cx="121.87" cy="338.01" data-y="8.04" data-x="1588982400" r="1" fill="white"><title>2020-05-09: 8</title></circle>
	<circle cx="123.38" cy="334.83" data-y="8.73" data-x="1589068800" r="1" fill="white"><title>2020-05-10: 9</title></circle>
	<circle cx="124.90" cy="325.29" data-y="10.80" data-x="1589155200" r="1" fill="white"><title>2020-05-11: 11</title></circle>
	<circle cx="126.41" cy="325.00" data-y="10.86" data-x="1589241600" r="1" fill="white"><title>2020-05-12: 11</title></circle>
	<circle cx="127.93" cy="324.71" data-y="10.92" data-x="1589328000" r="1" fill="white"><title>2020-05-13: 11</title></circle>
	<circle cx="129.44" cy="325.29" data-y="10.80" data-x="1589414400" r="1" fill="white"><title>2020-05-14: 11</title></circle>
	<circle cx="130.95" cy="329.34" data-y="9.92" data-x="1589500800" r="1" fill="white"><title>2020-05-15: 10</title></circle>
	<circle cx="132.47" cy="320.09" data-y="11.93" data-x="1589587200" r="1" fill="white"><title>2020-05-16: 12</title></circle>
	<circle cx="133.98" cy="319.22" data-y="12.12" data-x="1589673600" r="1" fill="white"><title>2020-05-17: 12</title></circle>
	<circle cx="135.49" cy="325.29" data-y="10.80" data-x="1589760000" r="1" fill="white"><title>2020-05-18: 11</title></circle>
	<circle cx="137.01" cy="323.85" data-y="11.11" data-x="1589846400" r="1" fill="white"><title>2020-05-19: 11</title></circle>
	<circle cx="138.52" cy="322.98" data-y="11.30" data-x="1589932800" r="1" fill="white"><title>2020-05-20: 11</title></circle>
	<circle cx="140.03" cy="323.56" data-y="11.17" data-x="1590019200" r="1" fill="white"><title>2020-05-21: 11</title></circle>
	<circle cx="141.55" cy="325.58" data-y="10.74" data-x="1590105600" r="1" fill="white"><title>2020-05-22: 11</title></circle>
	<circle cx="143.06" cy="336.56" data-y="8.35" data-x="1590192000" r="1" fill="white"><title>2020-05-23: 8</title></circle>
	<circle cx="144.57" cy="339.74" data-y="7.66" data-x="1590278400" r="1" fill="white"><title>2020-05-24: 8</title></circle>
	<circle cx="146.09" cy="345.23" data-y="6.47" data-x="1590364800" r="1" fill="white"><title>2020-05-25: 6</title></circle>
	<circle cx="147.60" cy="349.57" data-y="5.52" data-x="1590451200" r="1" fill="white"><title>2020-05-26: 6</title></circle>
	<circle cx="149.12" cy="351.01" data-y="5.21" data-x="1590537600" r="1" fill="white"><title>2020-05-27: 5</title></circle>
	<circle cx="150.63" cy="350.44" data-y="5.34" data-x="1590624000" r="1" fill="white"><title>2020-05-28: 5</title></circle>
	<circle cx="152.14" cy="349.57" data-y="5.52" data-x="1590710400" r="1" fill="white"><title>2020-05-29: 6</title></circle>
	<circle cx="153.66" cy="348.70" data-y="5.71" data-x="1590796800" r="1" fill="white"><title>2020-05-30: 6</title></circle>
	<circle cx="155.17" cy="349.57" data-y="5.52" data-x="1590883200" r="1" fill="white"><title>2020-05-31: 6</title></circle>
	<circle cx="156.68" cy="348.70" data-y="5.71" data-x="1590969600" r="1" fill="white"><title>2020-06-01: 6</title></circle>
	<circle cx="158.20" cy="347.26" data-y="6.03" data-x="1591056000" r="1" fill="white"><title>2020-06-02: 6</title></circle>
	<circle cx="159.71" cy="348.99" data-y="5.65" data-x="1591142400" r="1" fill="white"><title>2020-06-03: 6</title></circle>
	<circle cx="161.22" cy="351.30" data-y="5.15" data-x="1591228800" r="1" fill="white"><title>2020-06-04: 5</title></circle>
	<circle cx="162.74" cy="353.33" data-y="4.71" data-x="1591315200" r="1" fill="white"><title>2020-06-05: 5</title></circle>
	<circle cx="164.25" cy="354.77" data-y="4.39" data-x="1591401600" r="1" fill="white"><title>2020-06-06: 4</title></circle>
	<circle cx="165.77" cy="354.77" data-y="4.39" data-x="1591488000" r="1" fill="white"><title>2020-06-07: 4</title></circle>
	<circle cx="167.28" cy="355.64" data-y="4.21" data-x="1591574400" r="1" fill="white"><title>2020-06-08: 4</title></circle>
	<circle cx="168.79" cy="355.35" data-y="4.27" data-x="1591660800" r="1" fill="white"><title>2020-06-09: 4</title></circle>
	<circle cx="170.31" cy="355.06" data-y="4.33" data-x="1591747200" r="1" fill="white"><title>2020-06-10: 4</title></circle>
	<circle cx="171.82" cy="353.90" data-y="4.58" data-x="1591833600" r="1" fill="white"><title>2020-06-11: 5</title></circle>
	<circle cx="173.33" cy="353.04" data-y="4.77" data-x="1591920000" r="1" fill="white"><title>2020-06-12: 5</title></circle>
	<circle cx="174.85" cy="351.59" data-y="5.09" data-x="1592006400" r="1" fill="white"><title>2020-06-13: 5</title></circle>
	<circle cx="176.36" cy="351.59" data-y="5.09" data-x="1592092800" r="1" fill="white"><title>2020-06-14: 5</title></circle>
	<circle cx="177.87" cy="351.01" data-y="5.21" data-x="1592179200" r="1" fill="white"><title>2020-06-15: 5</title></circle>
	<circle cx="179.39" cy="351.59" data-y="5.09" data-x="1592265600" r="1" fill="white"><title>2020-06-16: 5</title></circle>
	<circle cx="180.90" cy="350.72" data-y="5.27" data-x="1592352000" r="1" fill="white"><title>2020-06-17: 5</title></circle>
	<circle cx="182.41" cy="353.04" data-y="4.77" data-x="1592438400" r="1" fill="white"><title>2020-06-18: 5</title></circle>
	<circle cx="183.93" cy="353.04" data-y="4.77" data-x="1592524800" r="1" fill="white"><title>2020-06-19: 5</title></circle>
	<circle cx="185.44" cy="356.79" data-y="3.96" data-x="1592611200" r="1" fill="white"><title>2020-06-20: 4</title></circle>
	<circle cx="186.96" cy="357.95" data-y="3.70" data-x="1592697600" r="1" fill="white"><title>2020-06-21: 4</title></circle>
	<circle cx="188.47" cy="359.11" data-y="3.45" data-x="1592784000" r="1" fill="white"><title>2020-06-22: 3</title></circle>
	<circle cx="189.98" cy="362.00" data-y="2.83" data-x="1592870400" r="1" fill="white"><title>2020-06-23: 3</title></circle>
	<circle cx="191.50" cy="363.44" data-y="2.51" data-x="1592956800" r="1" fill="white"><title>2020-06-24: 3</title></circle>
	<circle cx="193.01" cy="363.44" data-y="2.51" data-x="1593043200" r="1" fill="white"><title>2020-06-25: 3</title></circle>
	<circle cx="194.52" cy="364.89" data-y="2.20" data-x="1593129600" r="1" fill="white"><title>2020-06-26: 2</title></circle>
	<circle cx="196.04" cy="365.17" data-y="2.13" data-x="1593216000" r="1" fill="white"><title>2020-06-27: 2</title></circle>
	<circle cx="197.55" cy="365.75" data-y="2.01" data-x="1593302400" r="1" fill="white"><title>2020-06-28: 2</title></circle>
	<circle cx="199.06" cy="366.62" data-y="1.82" data-x="1593388800" r="1" fill="white"><title>2020-06-29: 2</title></circle>
	<circle cx="200.58" cy="365.75" data-y="2.01" data-x="1593475200" r="1" fill="white"><title>2020-06-30: 2</title></circle>
	<circle cx="202.09" cy="367.20" data-y="1.70" data-x="1593561600" r="1" fill="white"><title>2020-07-01: 2</title></circle>
	<circle cx="203.61" cy="366.33" data-y="1.88" data-x="1593648000" r="1" fill="white"><title>2020-07-02: 2</title></circle>
	<circle cx="205.12" cy="368.06" data-y="1.51" data-x="1593734400" r="1" fill="white"><title>2020-07-03: 2</title></circle>
	<circle cx="206.63" cy="367.20" data-y="1.70" data-x="1593820800" r="1" fill="white"><title>2020-07-04: 2</title></circle>
	<circle cx="208.15" cy="367.78" data-y="1.57" data-x="1593907200" r="1" fill="white"><title>2020-07-05: 2</title></circle>
	<circle cx="209.66" cy="368.06" data-y="1.51" data-x="1593993600" r="1" fill="white"><title>2020-07-06: 2</title></circle>
	<circle cx="211.17" cy="368.93" data-y="1.32" data-x="1594080000" r="1" fill="white"><title>2020-07-07: 1</title></circle>
	<circle cx="212.69" cy="367.49" data-y="1.63" data-x="1594166400" r="1" fill="white"><title>2020-07-08: 2</title></circle>
	<circle cx="214.20" cy="368.93" data-y="1.32" data-x="1594252800" r="1" fill="white"><title>2020-07-09: 1</title></circle>
	<circle cx="215.71" cy="369.22" data-y="1.26" data-x="1594339200" r="1" fill="white"><title>2020-07-10: 1</title></circle>
	<circle cx="217.23" cy="370.38" data-y="1.00" data-x="1594425600" r="1" fill="white"><title>2020-07-11: 1</title></circle>
	<circle cx="218.74" cy="370.95" data-y="0.88" data-x="1594512000" r="1" fill="white"><title>2020-07-12: 1</title></circle>
	<circle cx="220.26" cy="371.24" data-y="0.82" data-x="1594598400" r="1" fill="white"><title>2020-07-13: 1</title></circle>
	<circle cx="221.77" cy="370.95" data-y="0.88" data-x="1594684800" r="1" fill="white"><title>2020-07-14: 1</title></circle>
	<circle cx="223.28" cy="371.53" data-y="0.75" data-x="1594771200" r="1" fill="white"><title>2020-07-15: 1</title></circle>
	<circle cx="224.80" cy="370.95" data-y="0.88" data-x="1594857600" r="1" fill="white"><title>2020-07-16: 1</title></circle>
	<circle cx="226.31" cy="368.93" data-y="1.32" data-x="1594944000" r="1" fill="white"><title>2020-07-17: 1</title></circle>
	<circle cx="227.82" cy="368.35" data-y="1.44" data-x="1595030400" r="1" fill="white"><title>2020-07-18: 1</title></circle>
	<circle cx="229.34" cy="367.78" data-y="1.57" data-x="1595116800" r="1" fill="white"><title>2020-07-19: 2</title></circle>
	<circle cx="230.85" cy="366.33" data-y="1.88" data-x="1595203200" r="1" fill="white"><title>2020-07-20: 2</title></circle>
	<circle cx="232.36" cy="363.73" data-y="2.45" data-x="1595289600" r="1" fill="white"><title>2020-07-21: 2</title></circle>
	<circle cx="233.88" cy="364.02" data-y="2.39" data-x="1595376000" r="1" fill="white"><title>2020-07-22: 2</title></circle>
	<circle cx="235.39" cy="364.31" data-y="2.32" data-x="1595462400" r="1" fill="white"><title>2020-07-23: 2</title></circle>
	<circle cx="236.90" cy="364.02" data-y="2.39" data-x="1595548800" r="1" fill="white"><title>2020-07-24: 2</title></circle>
	<circle cx="238.42" cy="362.57" data-y="2.70" data-x="1595635200" r="1" fill="white"><title>2020-07-25: 3</title></circle>
	<circle cx="239.93" cy="358.53" data-y="3.58" data-x="1595721600" r="1" fill="white"><title>2020-07-26: 4</title></circle>
	<circle cx="241.45" cy="355.64" data-y="4.21" data-x="1595808000" r="1" fill="white"><title>2020-07-27: 4</title></circle>
	<circle cx="242.96" cy="358.24" data-y="3.64" data-x="1595894400" r="1" fill="white"><title>2020-07-28: 4</title></circle>
	<circle cx="244.47" cy="357.66" data-y="3.77" data-x="1595980800" r="1" fill="white"><title>2020-07-29: 4</title></circle>
	<circle cx="245.99" cy="356.79" data-y="3.96" data-x="1596067200" r="1" fill="white"><title>2020-07-30: 4</title></circle>
	<circle cx="247.50" cy="354.48" data-y="4.46" data-x="1596153600" r="1" fill="white"><title>2020-07-31: 4</title></circle>
	<circle cx="249.01" cy="351.88" data-y="5.02" data-x="1596240000" r="1" fill="white"><title>2020-08-01: 5</title></circle>
	<circle cx="250.53" cy="353.90" data-y="4.58" data-x="1596326400" r="1" fill="white"><title>2020-08-02: 5</title></circle>
	<circle cx="252.04" cy="353.04" data-y="4.77" data-x="1596412800" r="1" fill="white"><title>2020-08-03: 5</title></circle>
	<circle cx="253.55" cy="351.01" data-y="5.21" data-x="1596499200" r="1" fill="white"><title>2020-08-04: 5</title></circle>
	<circle cx="255.07" cy="350.72" data-y="5.27" data-x="1596585600" r="1" fill="white"><title>2020-08-05: 5</title></circle>
	<circle cx="256.58" cy="350.15" data-y="5.40" data-x="1596672000" r="1" fill="white"><title>2020-08-06: 5</title></circle>
	<circle cx="258.10" cy="351.30" data-y="5.15" data-x="1596758400" r="1" fill="white"><title>2020-08-07: 5</title></circle>
	<circle cx="259.61" cy="352.75" data-y="4.83" data-x="1596844800" r="1" fill="white"><title>2020-08-08: 5</title></circle>
	<circle cx="261.12" cy="352.75" data-y="4.83" data-x="1596931200" r="1" fill="white"><title>2020-08-09: 5</title></circle>
	<circle cx="262.64" cy="355.64" data-y="4.21" data-x="1597017600" r="1" fill="white"><title>2020-08-10: 4</title></circle>
	<circle cx="264.15" cy="355.64" data-y="4.21" data-x="1597104000" r="1" fill="white"><title>2020-08-11: 4</title></circle>
	<circle cx="265.66" cy="355.64" data-y="4.21" data-x="1597190400" r="1" fill="white"><title>2020-08-12: 4</title></circle>
	<circle cx="267.18" cy="357.08" data-y="3.89" data-x="1597276800" r="1" fill="white"><title>2020-08-13: 4</title></circle>
	<circle cx="268.69" cy="356.50" data-y="4.02" data-x="1597363200" r="1" fill="white"><title>2020-08-14: 4</title></circle>
	<circle cx="270.20" cy="356.79" data-y="3.96" data-x="1597449600" r="1" fill="white"><title>2020-08-15: 4</title></circle>
	<circle cx="271.72" cy="357.66" data-y="3.77" data-x="1597536000" r="1" fill="white"><title>2020-08-16: 4</title></circle>
	<circle cx="273.23" cy="357.66" data-y="3.77" data-x="1597622400" r="1" fill="white"><title>2020-08-17: 4</title></circle>
	<circle cx="274.74" cy="356.79" data-y="3.96" data-x="1597708800" r="1" fill="white"><title>2020-08-18: 4</title></circle>
	<circle cx="276.26" cy="355.06" data-y="4.33" data-x="1597795200" r="1" fill="white"><title>2020-08-19: 4</title></circle>
	<circle cx="277.77" cy="353.61" data-y="4.65" data-x="1597881600" r="1" fill="white"><title>2020-08-20: 5</title></circle>
	<circle cx="279.29" cy="354.48" data-y="4.46" data-x="1597968000" r="1" fill="white"><title>2020-08-21: 4</title></circle>
	<circle cx="280.80" cy="356.22" data-y="4.08" data-x="1598054400" r="1" fill="white"><title>2020-08-22: 4</title></circle>
	<circle cx="282.31" cy="353.61" data-y="4.65" data-x="1598140800" r="1" fill="white"><title>2020-08-23: 5</title></circle>
	<circle cx="283.83" cy="351.59" data-y="5.09" data-x="1598227200" r="1" fill="white"><title>2020-08-24: 5</title></circle>
	<circle cx="285.34" cy="351.01" data-y="5.21" data-x="1598313600" r="1" fill="white"><title>2020-08-25: 5</title></circle>
	<circle cx="286.85" cy="350.15" data-y="5.40" data-x="1598400000" r="1" fill="white"><title>2020-08-26: 5</title></circle>
	<circle cx="288.37" cy="349.86" data-y="5.46" data-x="1598486400" r="1" fill="white"><title>2020-08-27: 5</title></circle>
	<circle cx="289.88" cy="349.86" data-y="5.46" data-x="1598572800" r="1" fill="white"><title>2020-08-28: 5</title></circle>
	<circle cx="291.39" cy="344.66" data-y="6.59" data-x="1598659200" r="1" fill="white"><title>2020-08-29: 7</title></circle>
	<circle cx="292.91" cy="338.59" data-y="7.91" data-x="1598745600" r="1" fill="white"><title>2020-08-30: 8</title></circle>
	<circle cx="294.42" cy="336.85" data-y="8.29" data-x="1598832000" r="1" fill="white"><title>2020-08-31: 8</title></circle>
	<circle cx="295.94" cy="334.25" data-y="8.85" data-x="1598918400" r="1" fill="white"><title>2020-09-01: 9</title></circle>
	<circle cx="297.45" cy="330.78" data-y="9.61" data-x="1599004800" r="1" fill="white"><title>2020-09-02: 10</title></circle>
	<circle cx="298.96" cy="324.14" data-y="11.05" data-x="1599091200" r="1" fill="white"><title>2020-09-03: 11</title></circle>
	<circle cx="300.48" cy="312.58" data-y="13.56" data-x="1599177600" r="1" fill="white"><title>2020-09-04: 14</title></circle>
	<circle cx="301.99" cy="305.35" data-y="15.13" data-x="1599264000" r="1" fill="white"><title>2020-09-05: 15</title></circle>
	<circle cx="303.50" cy="311.13" data-y="13.87" data-x="1599350400" r="1" fill="white"><title>2020-09-06: 14</title></circle>
	<circle cx="305.02" cy="307.66" data-y="14.63" data-x="1599436800" r="1" fill="white"><title>2020-09-07: 15</title></circle>
	<circle cx="306.53" cy="301.88" data-y="15.88" data-x="1599523200" r="1" fill="white"><title>2020-09-08: 16</title></circle>
	<circle cx="308.04" cy="299.57" data-y="16.39" data-x="1599609600" r="1" fill="white"><title>2020-09-09: 16</title></circle>
	<circle cx="309.56" cy="304.49" data-y="15.32" data-x="1599696000" r="1" fill="white"><title>2020-09-10: 15</title></circle>
	<circle cx="311.07" cy="306.22" data-y="14.94" data-x="1599782400" r="1" fill="white"><title>2020-09-11: 15</title></circle>
	<circle cx="312.59" cy="308.82" data-y="14.38" data-x="1599868800" r="1" fill="white"><title>2020-09-12: 14</title></circle>
	<circle cx="314.10" cy="301.60" data-y="15.95" data-x="1599955200" r="1" fill="white"><title>2020-09-13: 16</title></circle>
	<circle cx="315.61" cy="298.42" data-y="16.64" data-x="1600041600" r="1" fill="white"><title>2020-09-14: 17</title></circle>
	<circle cx="317.13" cy="295.24" data-y="17.33" data-x="1600128000" r="1" fill="white"><title>2020-09-15: 17</title></circle>
	<circle cx="318.64" cy="289.46" data-y="18.58" data-x="1600214400" r="1" fill="white"><title>2020-09-16: 19</title></circle>
	<circle cx="320.15" cy="280.21" data-y="20.59" data-x="1600300800" r="1" fill="white"><title>2020-09-17: 21</title></circle>
	<circle cx="321.67" cy="281.37" data-y="20.34" data-x="1600387200" r="1" fill="white"><title>2020-09-18: 20</title></circle>
	<circle cx="323.18" cy="273.56" data-y="22.04" data-x="1600473600" r="1" fill="white"><title>2020-09-19: 22</title></circle>
	<circle cx="324.69" cy="266.34" data-y="23.60" data-x="1600560000" r="1" fill="white"><title>2020-09-20: 24</title></circle>
	<circle cx="326.21" cy="260.27" data-y="24.92" data-x="1600646400" r="1" fill="white"><title>2020-09-21: 25</title></circle>
	<circle cx="327.72" cy="262.87" data-y="24.36" data-x="1600732800" r="1" fill="white"><title>2020-09-22: 24</title></circle>
	<circle cx="329.23" cy="261.71" data-y="24.61" data-x="1600819200" r="1" fill="white"><title>2020-09-23: 25</title></circle>
	<circle cx="330.75" cy="257.96" data-y="25.43" data-x="1600905600" r="1" fill="white"><title>2020-09-24: 25</title></circle>
	<circle cx="332.26" cy="245.82" data-y="28.06" data-x="1600992000" r="1" fill="white"><title>2020-09-25: 28</title></circle>
	<circle cx="333.78" cy="236.57" data-y="30.07" data-x="1601078400" r="1" fill="white"><title>2020-09-26: 30</title></circle>
	<circle cx="335.29" cy="240.91" data-y="29.13" data-x="1601164800" r="1" fill="white"><title>2020-09-27: 29</title></circle>
	<circle cx="336.80" cy="240.04" data-y="29.32" data-x="1601251200" r="1" fill="white"><title>2020-09-28: 29</title></circle>
	<circle cx="338.32" cy="229.06" data-y="31.70" data-x="1601337600" r="1" fill="white"><title>2020-09-29: 32</title></circle>
	<circle cx="339.83" cy="223.28" data-y="32.96" data-x="1601424000" r="1" fill="white"><title>2020-09-30: 33</title></circle>
	<circle cx="341.34" cy="219.23" data-y="33.84" data-x="1601510400" r="1" fill="white"><title>2020-10-01: 34</title></circle>
	<circle cx="342.86" cy="207.38" data-y="36.41" data-x="1601596800" r="1" fill="white"><title>2020-10-02: 36</title></circle>
	<circle cx="344.37" cy="203.92" data-y="37.17" data-x="1601683200" r="1" fill="white"><title>2020-10-03: 37</title></circle>
	<circle cx="345.88" cy="187.44" data-y="40.74" data-x="1601769600" r="1" fill="white"><title>2020-10-04: 41</title></circle>
	<circle cx="347.40" cy="173.28" data-y="43.82" data-x="1601856000" r="1" fill="white"><title>2020-10-05: 44</title></circle>
	<circle cx="348.91" cy="169.81" data-y="44.57" data-x="1601942400" r="1" fill="white"><title>2020-10-06: 45</title></circle>
	<circle cx="350.43" cy="172.13" data-y="44.07" data-x="1602028800" r="1" fill="white"><title>2020-10-07: 44</title></circle>
	<circle cx="351.94" cy="165.77" data-y="45.45" data-x="1602115200" r="1" fill="white"><title>2020-10-08: 45</title></circle>
	<circle cx="353.45" cy="158.25" data-y="47.08" data-x="1602201600" r="1" fill="white"><title>2020-10-09: 47</title></circle>
	<circle cx="354.97" cy="154.50" data-y="47.90" data-x="1602288000" r="1" fill="white"><title>2020-10-10: 48</title></circle>
	<circle cx="356.48" cy="142.36" data-y="50.54" data-x="1602374400" r="1" fill="white"><title>2020-10-11: 51</title></circle>
	<circle cx="357.99" cy="144.67" data-y="50.03" data-x="1602460800" r="1" fill="white"><title>2020-10-12: 50</title></circle>
	<circle cx="359.51" cy="141.78" data-y="50.66" data-x="1602547200" r="1" fill="white"><title>2020-10-13: 51</title></circle>
	<circle cx="361.02" cy="132.24" data-y="52.73" data-x="1602633600" r="1" fill="white"><title>2020-10-14: 53</title></circle>
	<circle cx="362.53" cy="132.24" data-y="52.73" data-x="1602720000" r="1" fill="white"><title>2020-10-15: 53</title></circle>
	<circle cx="364.05" cy="120.40" data-y="55.31" data-x="1602806400" r="1" fill="white"><title>2020-10-16: 55</title></circle>
	<circle cx="365.56" cy="95.54" data-y="60.71" data-x="1602892800" r="1" fill="white"><title>2020-10-17: 61</title></circle>
	<circle cx="367.07" cy="81.67" data-y="63.72" data-x="1602979200" r="1" fill="white"><title>2020-10-18: 64</title></circle>
	<circle cx="368.59" cy="61.73" data-y="68.05" data-x="1603065600" r="1" fill="white"><title>2020-10-19: 68</title></circle>
	<circle cx="370.10" cy="42.95" data-y="72.13" data-x="1603152000" r="1" fill="white"><title>2020-10-20: 72</title></circle>
	<circle cx="371.62" cy="34.85" data-y="73.89" data-x="1603238400" r="1" fill="white"><title>2020-10-21: 74</title></circle>
	<circle cx="373.13" cy="21.56" data-y="76.78" data-x="1603324800" r="1" fill="white"><title>2020-10-22: 77</title></circle>
	<circle cx="374.64" cy="15.20" data-y="78.16" data-x="1603411200" r="1" fill="white"><title>2020-10-23: 78</title></circle>
	<circle cx="376.16" cy="10.00" data-y="79.29" data-x="1603497600" r="1" fill="white"><title>2020-10-24: 79</title></circle>
	<circle cx="377.67" cy="13.18" data-y="78.60" data-x="1603584000" r="1" fill="white"><title>2020-10-25: 79</title></circle>
	<circle cx="379.18" cy="13.18" data-y="78.60" data-x="1603670400" r="1" fill="white"><title>2020-10-26: 79</title></circle>
	<circle cx="380.70" cy="13.18" data-y="78.60" data-x="1603756800" r="1" fill="white"><title>2020-10-27: 79</title></circle>
	<circle cx="382.21" cy="15.49" data-y="78.10" data-x="1603843200" r="1" fill="white"><title>2020-10-28: 78</title></circle>
	<circle cx="383.72" cy="19.54" data-y="77.22" data-x="1603929600" r="1" fill="white"><title>2020-10-29: 77</title></circle>
	<circle cx="385.24" cy="10.58" data-y="79.16" data-x="1604016000" r="1" fill="white"><title>2020-10-30: 79</title></circle>
	<circle cx="386.75" cy="24.74" data-y="76.09" data-x="1604102400" r="1" fill="white"><title>2020-10-31: 76</title></circle>
	<circle cx="388.27" cy="48.15" data-y="71.00" data-x="1604188800" r="1" fill="white"><title>2020-11-01: 71</title></circle>
	<circle cx="389.78" cy="53.35" data-y="69.87" data-x="1604275200" r="1" fill="white"><title>2020-11-02: 70</title></circle>
	<circle cx="391.29" cy="62.89" data-y="67.80" data-x="1604361600" r="1" fill="white"><title>2020-11-03: 68</title></circle>
	<circle cx="392.81" cy="64.91" data-y="67.36" data-x="1604448000" r="1" fill="white"><title>2020-11-04: 67</title></circle>
	<circle cx="394.32" cy="73.00" data-y="65.60" data-x="1604534400" r="1" fill="white"><title>2020-11-05: 66</title></circle>
	<circle cx="395.83" cy="96.12" data-y="60.58" data-x="1604620800" r="1" fill="white"><title>2020-11-06: 61</title></circle>
	<circle cx="397.35" cy="104.79" data-y="58.70" data-x="1604707200" r="1" fill="white"><title>2020-11-07: 59</title></circle>
	<circle cx="398.86" cy="91.79" data-y="61.52" data-x="1604793600" r="1" fill="white"><title>2020-11-08: 62</title></circle>
	<circle cx="400.37" cy="96.41" data-y="60.52" data-x="1604880000" r="1" fill="white"><title>2020-11-09: 61</title></circle>
	<circle cx="401.89" cy="106.81" data-y="58.26" data-x="1604966400" r="1" fill="white"><title>2020-11-10: 58</title></circle>
	<circle cx="403.40" cy="115.48" data-y="56.38" data-x="1605052800" r="1" fill="white"><title>2020-11-11: 56</title></circle>
	<circle cx="404.91" cy="123.57" data-y="54.62" data-x="1605139200" r="1" fill="white"><title>2020-11-12: 55</title></circle>
	<circle cx="406.43" cy="128.78" data-y="53.49" data-x="1605225600" r="1" fill="white"><title>2020-11-13: 53</title></circle>
	<circle cx="407.94" cy="144.67" data-y="50.03" data-x="1605312000" r="1" fill="white"><title>2020-11-14: 50</title></circle>
	<circle cx="409.46" cy="166.63" data-y="45.26" data-x="1605398400" r="1" fill="white"><title>2020-11-15: 45</title></circle>
	<circle cx="410.97" cy="186.00" data-y="41.06" data-x="1605484800" r="1" fill="white"><title>2020-11-16: 41</title></circle>
	<circle cx="412.48" cy="196.11" data-y="38.86" data-x="1605571200" r="1" fill="white"><title>2020-11-17: 39</title></circle>
	<circle cx="414.00" cy="206.23" data-y="36.66" data-x="1605657600" r="1" fill="white"><title>2020-11-18: 37</title></circle>
	<circle cx="415.51" cy="217.21" data-y="34.28" data-x="1605744000" r="1" fill="white"><title>2020-11-19: 34</title></circle>
	<circle cx="417.02" cy="239.46" data-y="29.44" data-x="1605830400" r="1" fill="white"><title>2020-11-20: 29</title></circle>
	<circle cx="418.54" cy="249.29" data-y="27.31" data-x="1605916800" r="1" fill="white"><title>2020-11-21: 27</title></circle>
	<circle cx="420.05" cy="258.25" data-y="25.36" data-x="1606003200" r="1" fill="white"><title>2020-11-22: 25</title></circle>
	<circle cx="421.56" cy="264.03" data-y="24.11" data-x="1606089600" r="1" fill="white"><title>2020-11-23: 24</title></circle>
	<circle cx="423.08" cy="274.14" data-y="21.91" data-x="1606176000" r="1" fill="white"><title>2020-11-24: 22</title></circle>
	<circle cx="424.59" cy="279.05" data-y="20.84" data-x="1606262400" r="1" fill="white"><title>2020-11-25: 21</title></circle>
	<circle cx="426.11" cy="278.19" data-y="21.03" data-x="1606348800" r="1" fill="white"><title>2020-11-26: 21</title></circle>
	<circle cx="427.62" cy="279.92" data-y="20.65" data-x="1606435200" r="1" fill="white"><title>2020-11-27: 21</title></circle>
	<circle cx="429.13" cy="281.08" data-y="20.40" data-x="1606521600" r="1" fill="white"><title>2020-11-28: 20</title></circle>
	<circle cx="430.65" cy="285.12" data-y="19.52" data-x="1606608000" r="1" fill="white"><title>2020-11-29: 20</title></circle>
	<circle cx="432.16" cy="296.10" data-y="17.14" data-x="1606694400" r="1" fill="white"><title>2020-11-30: 17</title></circle>
	<circle cx="433.67" cy="295.24" data-y="17.33" data-x="1606780800" r="1" fill="white"><title>2020-12-01: 17</title></circle>
	<circle cx="435.19" cy="296.68" data-y="17.01" data-x="1606867200" r="1" fill="white"><title>2020-12-02: 17</title></circle>
	<circle cx="436.70" cy="301.88" data-y="15.88" data-x="1606953600" r="1" fill="white"><title>2020-12-03: 16</title></circle>
	<circle cx="438.21" cy="305.93" data-y="15.00" data-x="1607040000" r="1" fill="white"><title>2020-12-04: 15</title></circle>
	<circle cx="439.73" cy="315.47" data-y="12.93" data-x="1607126400" r="1" fill="white"><title>2020-12-05: 13</title></circle>
	<circle cx="441.24" cy="314.89" data-y="13.06" data-x="1607212800" r="1" fill="white"><title>2020-12-06: 13</title></circle>
	<circle cx="442.76" cy="311.13" data-y="13.87" data-x="1607299200" r="1" fill="white"><title>2020-12-07: 14</title></circle>
	<circle cx="444.27" cy="313.44" data-y="13.37" data-x="1607385600" r="1" fill="white"><title>2020-12-08: 13</title></circle>
	<circle cx="445.78" cy="315.47" data-y="12.93" data-x="1607472000" r="1" fill="white"><title>2020-12-09: 13</title></circle>
	<circle cx="447.30" cy="312.29" data-y="13.62" data-x="1607558400" r="1" fill="white"><title>2020-12-10: 14</title></circle>
	<circle cx="448.81" cy="312.87" data-y="13.50" data-x="1607644800" r="1" fill="white"><title>2020-12-11: 13</title></circle>
	<circle cx="450.32" cy="305.64" data-y="15.07" data-x="1607731200" r="1" fill="white"><title>2020-12-12: 15</title></circle>
	<circle cx="451.84" cy="303.62" data-y="15.51" data-x="1607817600" r="1" fill="white"><title>2020-12-13: 16</title></circle>
	<circle cx="453.35" cy="296.97" data-y="16.95" data-x="1607904000" r="1" fill="white"><title>2020-12-14: 17</title></circle>
	<circle cx="454.86" cy="292.64" data-y="17.89" data-x="1607990400" r="1" fill="white"><title>2020-12-15: 18</title></circle>
	<circle cx="456.38" cy="287.72" data-y="18.96" data-x="1608076800" r="1" fill="white"><title>2020-12-16: 19</title></circle>
	<circle cx="457.89" cy="283.68" data-y="19.84" data-x="1608163200" r="1" fill="white"><title>2020-12-17: 20</title></circle>
	<circle cx="459.40" cy="277.32" data-y="21.22" data-x="1608249600" r="1" fill="white"><title>2020-12-18: 21</title></circle>
	<circle cx="460.92" cy="271.25" data-y="22.54" data-x="1608336000" r="1" fill="white"><title>2020-12-19: 23</title></circle>
	<circle cx="462.43" cy="266.92" data-y="23.48" data-x="1608422400" r="1" fill="white"><title>2020-12-20: 23</title></circle>
</g>
<g data-series="recent-cases" class="data-series">
	<path d="M 462.43,266.92L 463.95,276.74L 465.46,288.59L 466.97,287.34L 468.49,286.80L 470.00,299.64" id="Recent cases" class="line" stroke-width="1" stroke-linecap="round" stroke-dasharray="4,6" stroke-dashoffset="4"><title>Recent cases</title></path>
	<circle cx="462.43" cy="266.92" data-y="23.48" data-x="1608422400" r="2.5" fill="white"><title>2020-12-20: 23</title></circle>
	<circle cx="463.95" cy="276.74" data-y="21.34" data-x="1608508800" r="2.5" fill="white"><title>2020-12-21: 21</title></circle>
	<circle cx="465.46" cy="288.59" data-y="18.77" data-x="1608595200" r="2.5" fill="white"><title>2020-12-22: 19</title></circle>
	<circle cx="466.97" cy="287.34" data-y="19.04" data-x="1608681600" r="2.5" fill="white"><title>2020-12-23: 19</title></circle>
	<circle cx="468.49" cy="286.80" data-y="19.16" data-x="1608768000" r="2.5" fill="white"><title>2020-12-24: 19</title></circle>
	<circle cx="470.00" cy="299.64" data-y="16.37" data-x="1608854400" r="2.5" fill="white"><title>2020-12-25: 16</title></circle>
</g>
</svg>
