<svg width="480" height="400" viewBox="0 0 480 400" xmlns="http://www.w3.org/2000/svg" style="overflow:display" preserveAspectRatio="xMinYMin meet" overflow="visible">
<defs>
	<style>
	.data-series path.line { fill-opacity: 0; stroke: black; }
	.data-series path.line.dotted { stroke-dasharray: 12 20 }
	.data-series:hover path.line, .data-series.on path.line { stroke-width: 1; }
	.data-series:hover circle, .data-series.on circle { display: inline; }
	.graph-grid { font-family: "Helvetica Neue",Helvetica,Arial,"Lucida Grande",sans-serif; }
	.graph-grid line { stroke: black; stroke-width: 1; stroke-linecap: round; }
	.graph-grid.graph-grid-x text { text-anchor: middle; dominant-baseline: hanging; transform: translateY(10px); }
	.graph-grid.graph-grid-y text { text-anchor: end; dominant-baseline: middle; transform: translateX(-10px); }
	</style>
</defs>
<g class="graph-grid graph-grid-y">
	<line x1="25.00" y1="375.00" x2="470.00" y2="375.00" data-left="25"></line>
	<text x="35" y="375" text-anchor="end">0</text>
	<text x="35" y="250.246163333333" text-anchor="end">5</text>
	<text x="35" y="125.492326666667" text-anchor="end">10</text>
	<text x="35" y="0.738489999999917" text-anchor="end">15</text>
	<text style="text-anchor:middle;dominant-baseline:hanging;font-weight:bold;transform: translateY(192.5px) rotate(-90deg);"></text>
</g>
<g class="graph-grid graph-grid-x">
	<line class="tick" x1="72.95" y1="375.00" x2="72.95" y2="380.00"></line>
	<text x="72.9525862068965" y="375" text-anchor="middle">A</text>
	<line class="tick" x1="130.50" y1="375.00" x2="130.50" y2="380.00"></line>
	<text x="130.495689655172" y="375" text-anchor="middle">M</text>
	<line class="tick" x1="189.96" y1="375.00" x2="189.96" y2="380.00"></line>
	<text x="189.956896551724" y="375" text-anchor="middle">J</text>
	<line class="tick" x1="247.50" y1="375.00" x2="247.50" y2="380.00"></line>
	<text x="247.5" y="375" text-anchor="middle">J</text>
	<line class="tick" x1="306.96" y1="375.00" x2="306.96" y2="380.00"></line>
	<text x="306.961206896552" y="375" text-anchor="middle">A</text>
	<line class="tick" x1="366.42" y1="375.00" x2="366.42" y2="380.00"></line>
	<text x="366.422413793103" y="375" text-anchor="middle">S</text>
	<line class="tick" x1="423.97" y1="375.00" x2="423.97" y2="380.00"></line>
	<text x="423.965517241379" y="375" text-anchor="middle">O</text>
	<text style="text-anchor:middle;dominant-baseline:hanging;font-weight:bold;transform: translateY(192.5px) rotate(-90deg);"></text>
</g>
<g data-series="widespread" class="data-series">
	<path d="M 25.00,200.34L 470.00,200.34" id="E09000011-level-0" class="line" stroke-width="1" stroke-linecap="round" stroke-dasharray="3,3" fill-opacity="0.3" opacity="0.3"><title>Widespread</title></path>
</g>
<g data-series="substantial" class="data-series">
	<path d="M 25.00,275.20L 470.00,275.20" id="E09000011-level-1" class="line" stroke-width="1" stroke-linecap="round" stroke-dasharray="3,3" fill-opacity="0.3" opacity="0.3"><title>Substantial</title></path>
</g>
<g data-series="moderate" class="data-series">
	<path d="M 25.00,350.05L 470.00,350.05" id="E09000011-level-2" class="line" stroke-width="1" stroke-linecap="round" stroke-dasharray="3,3" fill-opacity="0.3" opacity="0.3"><title>Moderate</title></path>
</g>
<g data-series="new-cases" class="data-series">
	<path d="M 25.00,366.48L 26.92,361.37L 28.84,355.13L 30.75,351.88L 32.67,350.67L 34.59,343.37L 36.51,337.28L 38.43,323.90L 40.34,314.17L 42.26,314.17L 44.18,303.22L 46.10,283.75L 48.02,283.75L 49.94,274.02L 51.85,270.37L 53.77,261.85L 55.69,256.98L 57.61,252.12L 59.53,254.55L 61.44,248.47L 63.36,244.82L 65.28,227.78L 67.20,211.97L 69.12,191.28L 71.03,181.55L 72.95,182.77L 74.87,165.73L 76.79,140.18L 78.71,153.57L 80.62,160.87L 82.54,168.17L 84.46,176.68L 86.38,175.47L 88.30,187.63L 90.22,218.05L 92.13,204.67L 94.05,216.83L 95.97,226.57L 97.89,235.08L 99.81,242.38L 101.72,252.12L 103.64,254.55L 105.56,280.10L 107.48,282.53L 109.40,283.75L 111.31,281.32L 113.23,281.32L 115.15,276.45L 117.07,276.45L 118.99,275.23L 120.91,265.50L 122.82,267.93L 124.74,271.58L 126.66,280.10L 128.58,292.27L 130.50,297.13L 132.41,303.22L 134.33,325.12L 136.25,326.33L 138.17,327.55L 140.09,328.77L 142.00,322.68L 143.92,325.12L 145.84,323.90L 147.76,316.60L 149.68,325.12L 151.59,328.77L 153.51,327.55L 155.43,332.42L 157.35,331.20L 159.27,333.63L 161.19,344.58L 163.10,339.72L 165.02,347.02L 166.94,347.02L 168.86,349.45L 170.78,353.10L 172.69,353.10L 174.61,350.67L 176.53,356.75L 178.45,351.88L 180.37,355.53L 182.28,354.32L 184.20,355.53L 186.12,357.97L 188.04,357.97L 189.96,355.53L 191.88,357.97L 193.79,356.75L 195.71,356.75L 197.63,355.53L 199.55,353.10L 201.47,355.53L 203.38,357.97L 205.30,357.97L 207.22,359.18L 209.14,360.40L 211.06,361.62L 212.97,366.48L 214.89,364.05L 216.81,361.62L 218.73,364.05L 220.65,364.05L 222.56,364.05L 224.48,360.40L 226.40,359.18L 228.32,362.83L 230.24,365.27L 232.16,366.48L 234.07,366.48L 235.99,365.27L 237.91,368.92L 239.83,370.13L 241.75,370.13L 243.66,370.13L 245.58,368.92L 247.50,367.70L 249.42,366.48L 251.34,366.48L 253.25,365.27L 255.17,364.05L 257.09,365.27L 259.01,365.27L 260.93,365.27L 262.84,366.48L 264.76,365.27L 266.68,367.70L 268.60,365.27L 270.52,364.05L 272.44,364.05L 274.35,365.27L 276.27,366.48L 278.19,368.92L 280.11,364.05L 282.03,362.83L 283.94,360.40L 285.86,359.18L 287.78,355.53L 289.70,350.67L 291.62,347.02L 293.53,351.88L 295.45,356.75L 297.37,353.10L 299.29,354.32L 301.21,356.75L 303.12,359.18L 305.04,361.62L 306.96,359.18L 308.88,353.10L 310.80,356.75L 312.72,357.97L 314.63,359.18L 316.55,360.40L 318.47,359.18L 320.39,357.97L 322.31,356.75L 324.22,359.18L 326.14,359.18L 328.06,356.75L 329.98,357.97L 331.90,357.97L 333.81,359.18L 335.73,365.27L 337.65,362.83L 339.57,357.97L 341.49,360.40L 343.41,356.75L 345.32,354.32L 347.24,348.23L 349.16,349.45L 351.08,348.23L 353.00,340.93L 354.91,332.42L 356.83,327.55L 358.75,329.98L 360.67,328.77L 362.59,312.95L 364.50,312.95L 366.42,321.47L 368.34,326.33L 370.26,331.20L 372.18,320.25L 374.09,320.25L 376.01,322.68L 377.93,322.68L 379.85,314.17L 381.77,300.78L 383.69,303.22L 385.60,310.52L 387.52,314.17L 389.44,320.25L 391.36,315.38L 393.28,317.82L 395.19,327.55L 397.11,319.03L 399.03,312.95L 400.95,297.13L 402.87,282.53L 404.78,272.80L 406.70,261.85L 408.62,250.90L 410.54,247.25L 412.46,237.52L 414.38,236.30L 416.29,233.87L 418.21,224.13L 420.13,204.67L 422.05,202.23L 423.97,197.37L 425.88,179.12L 427.80,160.87L 429.72,124.37L 431.64,114.63L 433.56,120.72L 435.47,113.42L 437.39,110.98L 439.31,104.90L 441.23,109.77L 443.15,115.85L 445.06,110.98L 446.98,90.30L 448.90,91.52L 450.82,75.70L 452.74,53.80L 454.66,36.77L 456.57,28.25L 458.49,10.00L 460.41,35.55" id="New cases" class="line" stroke-width="1" stroke-linecap="round"><title>New cases</title></path>
	<circle cx="25.00" cy="366.48" data-y="0.34" data-x="1583539200" r="1" fill="white"><title>2020-03-07: 0</title></circle>
	<circle cx="26.92" cy="361.37" data-y="0.55" data-x="1583625600" r="1" fill="white"><title>2020-03-08: 1</title></circle>
	<circle cx="28.84" cy="355.13" data-y="0.80" data-x="1583712000" r="1" fill="white"><title>2020-03-09: 1</title></circle>
	<circle cx="30.75" cy="351.88" data-y="0.93" data-x="1583798400" r="1" fill="white"><title>2020-03-10: 1</title></circle>
	<circle cx="32.67" cy="350.67" data-y="0.98" data-x="1583884800" r="1" fill="white"><title>2020-03-11: 1</title></circle>
	<circle cx="34.59" cy="343.37" data-y="1.27" data-x="1583971200" r="1" fill="white"><title>2020-03-12: 1</title></circle>
	<circle cx="36.51" cy="337.28" data-y="1.51" data-x="1584057600" r="1" fill="white"><title>2020-03-13: 2</title></circle>
	<circle cx="38.43" cy="323.90" data-y="2.05" data-x="1584144000" r="1" fill="white"><title>2020-03-14: 2</title></circle>
	<circle cx="40.34" cy="314.17" data-y="2.44" data-x="1584230400" r="1" fill="white"><title>2020-03-15: 2</title></circle>
	<circle cx="42.26" cy="314.17" data-y="2.44" data-x="1584316800" r="1" fill="white"><title>2020-03-16: 2</title></circle>
	<circle cx="44.18" cy="303.22" data-y="2.88" data-x="1584403200" r="1" fill="white"><title>2020-03-17: 3</title></circle>
	<circle cx="46.10" cy="283.75" data-y="3.66" data-x="1584489600" r="1" fill="white"><title>2020-03-18: 4</title></circle>
	<circle cx="48.02" cy="283.75" data-y="3.66" data-x="1584576000" r="1" fill="white"><title>2020-03-19: 4</title></circle>
	<circle cx="49.94" cy="274.02" data-y="4.05" data-x="1584662400" r="1" fill="white"><title>2020-03-20: 4</title></circle>
	<circle cx="51.85" cy="270.37" data-y="4.19" data-x="1584748800" r="1" fill="white"><title>2020-03-21: 4</title></circle>
	<circle cx="53.77" cy="261.85" data-y="4.53" data-x="1584835200" r="1" fill="white"><title>2020-03-22: 5</title></circle>
	<circle cx="55.69" cy="256.98" data-y="4.73" data-x="1584921600" r="1" fill="white"><title>2020-03-23: 5</title></circle>
	<circle cx="57.61" cy="252.12" data-y="4.93" data-x="1585008000" r="1" fill="white"><title>2020-03-24: 5</title></circle>
	<circle cx="59.53" cy="254.55" data-y="4.83" data-x="1585094400" r="1" fill="white"><title>2020-03-25: 5</title></circle>
	<circle cx="61.44" cy="248.47" data-y="5.07" data-x="1585180800" r="1" fill="white"><title>2020-03-26: 5</title></circle>
	<circle cx="63.36" cy="244.82" data-y="5.22" data-x="1585267200" r="1" fill="white"><title>2020-03-27: 5</title></circle>
	<circle cx="65.28" cy="227.78" data-y="5.90" data-x="1585353600" r="1" fill="white"><title>2020-03-28: 6</title></circle>
	<circle cx="67.20" cy="211.97" data-y="6.53" data-x="1585440000" r="1" fill="white"><title>2020-03-29: 7</title></circle>
	<circle cx="69.12" cy="191.28" data-y="7.36" data-x="1585526400" r="1" fill="white"><title>2020-03-30: 7</title></circle>
	<circle cx="71.03" cy="181.55" data-y="7.75" data-x="1585612800" r="1" fill="white"><title>2020-03-31: 8</title></circle>
	<circle cx="72.95" cy="182.77" data-y="7.70" data-x="1585699200" r="1" fill="white"><title>2020-04-01: 8</title></circle>
	<circle cx="74.87" cy="165.73" data-y="8.39" data-x="1585785600" r="1" fill="white"><title>2020-04-02: 8</title></circle>
	<circle cx="76.79" cy="140.18" data-y="9.41" data-x="1585872000" r="1" fill="white"><title>2020-04-03: 9</title></circle>
	<circle cx="78.71" cy="153.57" data-y="8.87" data-x="1585958400" r="1" fill="white"><title>2020-04-04: 9</title></circle>
	<circle cx="80.62" cy="160.87" data-y="8.58" data-x="1586044800" r="1" fill="white"><title>2020-04-05: 9</title></circle>
	<circle cx="82.54" cy="168.17" data-y="8.29" data-x="1586131200" r="1" fill="white"><title>2020-04-06: 8</title></circle>
	<circle cx="84.46" cy="176.68" data-y="7.95" data-x="1586217600" r="1" fill="white"><title>2020-04-07: 8</title></circle>
	<circle cx="86.38" cy="175.47" data-y="8.00" data-x="1586304000" r="1" fill="white"><title>2020-04-08: 8</title></circle>
	<circle cx="88.30" cy="187.63" data-y="7.51" data-x="1586390400" r="1" fill="white"><title>2020-04-09: 8</title></circle>
	<circle cx="90.22" cy="218.05" data-y="6.29" data-x="1586476800" r="1" fill="white"><title>2020-04-10: 6</title></circle>
	<circle cx="92.13" cy="204.67" data-y="6.83" data-x="1586563200" r="1" fill="white"><title>2020-04-11: 7</title></circle>
	<circle cx="94.05" cy="216.83" data-y="6.34" data-x="1586649600" r="1" fill="white"><title>2020-04-12: 6</title></circle>
	<circle cx="95.97" cy="226.57" data-y="5.95" data-x="1586736000" r="1" fill="white"><title>2020-04-13: 6</title></circle>
	<circle cx="97.89" cy="235.08" data-y="5.61" data-x="1586822400" r="1" fill="white"><title>2020-04-14: 6</title></circle>
	<circle cx="99.81" cy="242.38" data-y="5.32" data-x="1586908800" r="1" fill="white"><title>2020-04-15: 5</title></circle>
	<circle cx="101.72" cy="252.12" data-y="4.93" data-x="1586995200" r="1" fill="white"><title>2020-04-16: 5</title></circle>
	<circle cx="103.64" cy="254.55" data-y="4.83" data-x="1587081600" r="1" fill="white"><title>2020-04-17: 5</title></circle>
	<circle cx="105.56" cy="280.10" data-y="3.80" data-x="1587168000" r="1" fill="white"><title>2020-04-18: 4</title></circle>
	<circle cx="107.48" cy="282.53" data-y="3.71" data-x="1587254400" r="1" fill="white"><title>2020-04-19: 4</title></circle>
	<circle cx="109.40" cy="283.75" data-y="3.66" data-x="1587340800" r="1" fill="white"><title>2020-04-20: 4</title></circle>
	<circle cx="111.31" cy="281.32" data-y="3.75" data-x="1587427200" r="1" fill="white"><title>2020-04-21: 4</title></circle>
	<circle cx="113.23" cy="281.32" data-y="3.75" data-x="1587513600" r="1" fill="white"><title>2020-04-22: 4</title></circle>
	<circle cx="115.15" cy="276.45" data-y="3.95" data-x="1587600000" r="1" fill="white"><title>2020-04-23: 4</title></circle>
	<circle cx="117.07" cy="276.45" data-y="3.95" data-x="1587686400" r="1" fill="white"><title>2020-04-24: 4</title></circle>
	<circle cx="118.99" cy="275.23" data-y="4.00" data-x="1587772800" r="1" fill="white"><title>2020-04-25: 4</title></circle>
	<circle cx="120.91" cy="265.50" data-y="4.39" data-x="1587859200" r="1" fill="white"><title>2020-04-26: 4</title></circle>
	<circle cx="122.82" cy="267.93" data-y="4.29" data-x="1587945600" r="1" fill="white"><title>2020-04-27: 4</title></circle>
	<circle cx="124.74" cy="271.58" data-y="4.14" data-x="1588032000" r="1" fill="white"><title>2020-04-28: 4</title></circle>
	<circle cx="126.66" cy="280.10" data-y="3.80" data-x="1588118400" r="1" fill="white"><title>2020-04-29: 4</title></circle>
	<circle cx="128.58" cy="292.27" data-y="3.32" data-x="1588204800" r="1" fill="white"><title>2020-04-30: 3</title></circle>
	<circle cx="130.50" cy="297.13" data-y="3.12" data-x="1588291200" r="1" fill="white"><title>2020-05-01: 3</title></circle>
	<circle cx="132.41" cy="303.22" data-y="2.88" data-x="1588377600" r="1" fill="white"><title>2020-05-02: 3</title></circle>
	<circle cx="134.33" cy="325.12" data-y="2.00" data-x="1588464000" r="1" fill="white"><title>2020-05-03: 2</title></circle>
	<circle cx="136.25" cy="326.33" data-y="1.95" data-x="1588550400" r="1" fill="white"><title>2020-05-04: 2</title></circle>
	<circle cx="138.17" cy="327.55" data-y="1.90" data-x="1588636800" r="1" fill="white"><title>2020-05-05: 2</title></circle>
	<circle cx="140.09" cy="328.77" data-y="1.85" data-x="1588723200" r="1" fill="white"><title>2020-05-06: 2</title></circle>
	<circle cx="142.00" cy="322.68" data-y="2.10" data-x="1588809600" r="1" fill="white"><title>2020-05-07: 2</title></circle>
	<circle cx="143.92" cy="325.12" data-y="2.00" data-x="1588896000" r="1" fill="white"><title>2020-05-08: 2</title></circle>
	<circle cx="145.84" cy="323.90" data-y="2.05" data-x="1588982400" r="1" fill="white"><title>2020-05-09: 2</title></circle>
	<circle cx="147.76" cy="316.60" data-y="2.34" data-x="1589068800" r="1" fill="white"><title>2020-05-10: 2</title></circle>
	<circle cx="149.68" cy="325.12" data-y="2.00" data-x="1589155200" r="1" fill="white"><title>2020-05-11: 2</title></circle>
	<circle cx="151.59" cy="328.77" data-y="1.85" data-x="1589241600" r="1" fill="white"><title>2020-05-12: 2</title></circle>
	<circle cx="153.51" cy="327.55" data-y="1.90" data-x="1589328000" r="1" fill="white"><title>2020-05-13: 2</title></circle>
	<circle cx="155.43" cy="332.42" data-y="1.71" data-x="1589414400" r="1" fill="white"><title>2020-05-14: 2</title></circle>
	<circle cx="157.35" cy="331.20" data-y="1.76" data-x="1589500800" r="1" fill="white"><title>2020-05-15: 2</title></circle>
	<circle cx="159.27" cy="333.63" data-y="1.66" data-x="1589587200" r="1" fill="white"><title>2020-05-16: 2</title></circle>
	<circle cx="161.19" cy="344.58" data-y="1.22" data-x="1589673600" r="1" fill="white"><title>2020-05-17: 1</title></circle>
	<circle cx="163.10" cy="339.72" data-y="1.41" data-x="1589760000" r="1" fill="white"><title>2020-05-18: 1</title></circle>
	<circle cx="165.02" cy="347.02" data-y="1.12" data-x="1589846400" r="1" fill="white"><title>2020-05-19: 1</title></circle>
	<circle cx="166.94" cy="347.02" data-y="1.12" data-x="1589932800" r="1" fill="white"><title>2020-05-20: 1</title></circle>
	<circle cx="168.86" cy="349.45" data-y="1.02" data-x="1590019200" r="1" fill="white"><title>2020-05-21: 1</title></circle>
	<circle cx="170.78" cy="353.10" data-y="0.88" data-x="1590105600" r="1" fill="white"><title>2020-05-22: 1</title></circle>
	<circle cx="172.69" cy="353.10" data-y="0.88" data-x="1590192000" r="1" fill="white"><title>2020-05-23: 1</title></circle>
	<circle cx="174.61" cy="350.67" data-y="0.98" data-x="1590278400" r="1" fill="white"><title>2020-05-24: 1</title></circle>
	<circle cx="176.53" cy="356.75" data-y="0.73" data-x="1590364800" r="1" fill="white"><title>2020-05-25: 1</title></circle>
	<circle cx="178.45" cy="351.88" data-y="0.93" data-x="1590451200" r="1" fill="white"><title>2020-05-26: 1</title></circle>
	<circle cx="180.37" cy="355.53" data-y="0.78" data-x="1590537600" r="1" fill="white"><title>2020-05-27: 1</title></circle>
	<circle cx="182.28" cy="354.32" data-y="0.83" data-x="1590624000" r="1" fill="white"><title>2020-05-28: 1</title></circle>
	<circle cx="184.20" cy="355.53" data-y="0.78" data-x="1590710400" r="1" fill="white"><title>2020-05-29: 1</title></circle>
	<circle cx="186.12" cy="357.97" data-y="0.68" data-x="1590796800" r="1" fill="white"><title>2020-05-30: 1</title></circle>
	<circle cx="188.04" cy="357.97" data-y="0.68" data-x="1590883200" r="1" fill="white"><title>2020-05-31: 1</title></circle>
	<circle cx="189.96" cy="355.53" data-y="0.78" data-x="1590969600" r="1" fill="white"><title>2020-06-01: 1</title></circle>
	<circle cx="191.88" cy="357.97" data-y="0.68" data-x="1591056000" r="1" fill="white"><title>2020-06-02: 1</title></circle>
	<circle cx="193.79" cy="356.75" data-y="0.73" data-x="1591142400" r="1" fill="white"><title>2020-06-03: 1</title></circle>
	<circle cx="195.71" cy="356.75" data-y="0.73" data-x="1591228800" r="1" fill="white"><title>2020-06-04: 1</title></circle>
	<circle cx="197.63" cy="355.53" data-y="0.78" data-x="1591315200" r="1" fill="white"><title>2020-06-05: 1</title></circle>
	<circle cx="199.55" cy="353.10" data-y="0.88" data-x="1591401600" r="1" fill="white"><title>2020-06-06: 1</title></circle>
	<circle cx="201.47" cy="355.53" data-y="0.78" data-x="1591488000" r="1" fill="white"><title>2020-06-07: 1</title></circle>
	<circle cx="203.38" cy="357.97" data-y="0.68" data-x="1591574400" r="1" fill="white"><title>2020-06-08: 1</title></circle>
	<circle cx="205.30" cy="357.97" data-y="0.68" data-x="1591660800" r="1" fill="white"><title>2020-06-09: 1</title></circle>
	<circle cx="207.22" cy="359.18" data-y="0.63" data-x="1591747200" r="1" fill="white"><title>2020-06-10: 1</title></circle>
	<circle cx="209.14" cy="360.40" data-y="0.59" data-x="1591833600" r="1" fill="white"><title>2020-06-11: 1</title></circle>
	<circle cx="211.06" cy="361.62" data-y="0.54" data-x="1591920000" r="1" fill="white"><title>2020-06-12: 1</title></circle>
	<circle cx="212.97" cy="366.48" data-y="0.34" data-x="1592006400" r="1" fill="white"><title>2020-06-13: 0</title></circle>
	<circle cx="214.89" cy="364.05" data-y="0.44" data-x="1592092800" r="1" fill="white"><title>2020-06-14: 0</title></circle>
	<circle cx="216.81" cy="361.62" data-y="0.54" data-x="1592179200" r="1" fill="white"><title>2020-06-15: 1</title></circle>
	<circle cx="218.73" cy="364.05" data-y="0.44" data-x="1592265600" r="1" fill="white"><title>2020-06-16: 0</title></circle>
	<circle cx="220.65" cy="364.05" data-y="0.44" data-x="1592352000" r="1" fill="white"><title>2020-06-17: 0</title></circle>
	<circle cx="222.56" cy="364.05" data-y="0.44" data-x="1592438400" r="1" fill="white"><title>2020-06-18: 0</title></circle>
	<circle cx="224.48" cy="360.40" data-y="0.59" data-x="1592524800" r="1" fill="white"><title>2020-06-19: 1</title></circle>
	<circle cx="226.40" cy="359.18" data-y="0.63" data-x="1592611200" r="1" fill="white"><title>2020-06-20: 1</title></circle>
	<circle cx="228.32" cy="362.83" data-y="0.49" data-x="1592697600" r="1" fill="white"><title>2020-06-21: 0</title></circle>
	<circle cx="230.24" cy="365.27" data-y="0.39" data-x="1592784000" r="1" fill="white"><title>2020-06-22: 0</title></circle>
	<circle cx="232.16" cy="366.48" data-y="0.34" data-x="1592870400" r="1" fill="white"><title>2020-06-23: 0</title></circle>
	<circle cx="234.07" cy="366.48" data-y="0.34" data-x="1592956800" r="1" fill="white"><title>2020-06-24: 0</title></circle>
	<circle cx="235.99" cy="365.27" data-y="0.39" data-x="1593043200" r="1" fill="white"><title>2020-06-25: 0</title></circle>
	<circle cx="237.91" cy="368.92" data-y="0.24" data-x="1593129600" r="1" fill="white"><title>2020-06-26: 0</title></circle>
	<circle cx="239.83" cy="370.13" data-y="0.20" data-x="1593216000" r="1" fill="white"><title>2020-06-27: 0</title></circle>
	<circle cx="241.75" cy="370.13" data-y="0.20" data-x="1593302400" r="1" fill="white"><title>2020-06-28: 0</title></circle>
	<circle cx="243.66" cy="370.13" data-y="0.20" data-x="1593388800" r="1" fill="white"><title>2020-06-29: 0</title></circle>
	<circle cx="245.58" cy="368.92" data-y="0.24" data-x="1593475200" r="1" fill="white"><title>2020-06-30: 0</title></circle>
	<circle cx="247.50" cy="367.70" data-y="0.29" data-x="1593561600" r="1" fill="white"><title>2020-07-01: 0</title></circle>
	<circle cx="249.42" cy="366.48" data-y="0.34" data-x="1593648000" r="1" fill="white"><title>2020-07-02: 0</title></circle>
	<circle cx="251.34" cy="366.48" data-y="0.34" data-x="1593734400" r="1" fill="white"><title>2020-07-03: 0</title></circle>
	<circle cx="253.25" cy="365.27" data-y="0.39" data-x="1593820800" r="1" fill="white"><title>2020-07-04: 0</title></circle>
	<circle cx="255.17" cy="364.05" data-y="0.44" data-x="1593907200" r="1" fill="white"><title>2020-07-05: 0</title></circle>
	<circle cx="257.09" cy="365.27" data-y="0.39" data-x="1593993600" r="1" fill="white"><title>2020-07-06: 0</title></circle>
	<circle cx="259.01" cy="365.27" data-y="0.39" data-x="1594080000" r="1" fill="white"><title>2020-07-07: 0</title></circle>
	<circle cx="260.93" cy="365.27" data-y="0.39" data-x="1594166400" r="1" fill="white"><title>2020-07-08: 0</title></circle>
	<circle cx="262.84" cy="366.48" data-y="0.34" data-x="1594252800" r="1" fill="white"><title>2020-07-09: 0</title></circle>
	<circle cx="264.76" cy="365.27" data-y="0.39" data-x="1594339200" r="1" fill="white"><title>2020-07-10: 0</title></circle>
	<circle cx="266.68" cy="367.70" data-y="0.29" data-x="1594425600" r="1" fill="white"><title>2020-07-11: 0</title></circle>
	<circle cx="268.60" cy="365.27" data-y="0.39" data-x="1594512000" r="1" fill="white"><title>2020-07-12: 0</title></circle>
	<circle cx="270.52" cy="364.05" data-y="0.44" data-x="1594598400" r="1" fill="white"><title>2020-07-13: 0</title></circle>
	<circle cx="272.44" cy="364.05" data-y="0.44" data-x="1594684800" r="1" fill="white"><title>2020-07-14: 0</title></circle>
	<circle cx="274.35" cy="365.27" data-y="0.39" data-x="1594771200" r="1" fill="white"><title>2020-07-15: 0</title></circle>
	<circle cx="276.27" cy="366.48" data-y="0.34" data-x="1594857600" r="1" fill="white"><title>2020-07-16: 0</title></circle>
	<circle cx="278.19" cy="368.92" data-y="0.24" data-x="1594944000" r="1" fill="white"><title>2020-07-17: 0</title></circle>
	<circle cx="280.11" cy="364.05" data-y="0.44" data-x="1595030400" r="1" fill="white"><title>2020-07-18: 0</title></circle>
	<circle cx="282.03" cy="362.83" data-y="0.49" data-x="1595116800" r="1" fill="white"><title>2020-07-19: 0</title></circle>
	<circle cx="283.94" cy="360.40" data-y="0.59" data-x="1595203200" r="1" fill="white"><title>2020-07-20: 1</title></circle>
	<circle cx="285.86" cy="359.18" data-y="0.63" data-x="1595289600" r="1" fill="white"><title>2020-07-21: 1</title></circle>
	<circle cx="287.78" cy="355.53" data-y="0.78" data-x="1595376000" r="1" fill="white"><title>2020-07-22: 1</title></circle>
	<circle cx="289.70" cy="350.67" data-y="0.98" data-x="1595462400" r="1" fill="white"><title>2020-07-23: 1</title></circle>
	<circle cx="291.62" cy="347.02" data-y="1.12" data-x="1595548800" r="1" fill="white"><title>2020-07-24: 1</title></circle>
	<circle cx="293.53" cy="351.88" data-y="0.93" data-x="1595635200" r="1" fill="white"><title>2020-07-25: 1</title></circle>
	<circle cx="295.45" cy="356.75" data-y="0.73" data-x="1595721600" r="1" fill="white"><title>2020-07-26: 1</title></circle>
	<circle cx="297.37" cy="353.10" data-y="0.88" data-x="1595808000" r="1" fill="white"><title>2020-07-27: 1</title></circle>
	<circle cx="299.29" cy="354.32" data-y="0.83" data-x="1595894400" r="1" fill="white"><title>2020-07-28: 1</title></circle>
	<circle cx="301.21" cy="356.75" data-y="0.73" data-x="1595980800" r="1" fill="white"><title>2020-07-29: 1</title></circle>
	<circle cx="303.12" cy="359.18" data-y="0.63" data-x="1596067200" r="1" fill="white"><title>2020-07-30: 1</title></circle>
	<circle cx="305.04" cy="361.62" data-y="0.54" data-x="1596153600" r="1" fill="white"><title>2020-07-31: 1</title></circle>
	<circle cx="306.96" cy="359.18" data-y="0.63" data-x="1596240000" r="1" fill="white"><title>2020-08-01: 1</title></circle>
	<circle cx="308.88" cy="353.10" data-y="0.88" data-x="1596326400" r="1" fill="white"><title>2020-08-02: 1</title></circle>
	<circle cx="310.80" cy="356.75" data-y="0.73" data-x="1596412800" r="1" fill="white"><title>2020-08-03: 1</title></circle>
	<circle cx="312.72" cy="357.97" data-y="0.68" data-x="1596499200" r="1" fill="white"><title>2020-08-04: 1</title></circle>
	<circle cx="314.63" cy="359.18" data-y="0.63" data-x="1596585600" r="1" fill="white"><title>2020-08-05: 1</title></circle>
	<circle cx="316.55" cy="360.40" data-y="0.59" data-x="1596672000" r="1" fill="white"><title>2020-08-06: 1</title></circle>
	<circle cx="318.47" cy="359.18" data-y="0.63" data-x="1596758400" r="1" fill="white"><title>2020-08-07: 1</title></circle>
	<circle cx="320.39" cy="357.97" data-y="0.68" data-x="1596844800" r="1" fill="white"><title>2020-08-08: 1</title></circle>
	<circle cx="322.31" cy="356.75" data-y="0.73" data-x="1596931200" r="1" fill="white"><title>2020-08-09: 1</title></circle>
	<circle cx="324.22" cy="359.18" data-y="0.63" data-x="1597017600" r="1" fill="white"><title>2020-08-10: 1</title></circle>
	<circle cx="326.14" cy="359.18" data-y="0.63" data-x="1597104000" r="1" fill="white"><title>2020-08-11: 1</title></circle>
	<circle cx="328.06" cy="356.75" data-y="0.73" data-x="1597190400" r="1" fill="white"><title>2020-08-12: 1</title></circle>
	<circle cx="329.98" cy="357.97" data-y="0.68" data-x="1597276800" r="1" fill="white"><title>2020-08-13: 1</title></circle>
	<circle cx="331.90" cy="357.97" data-y="0.68" data-x="1597363200" r="1" fill="white"><title>2020-08-14: 1</title></circle>
	<circle cx="333.81" cy="359.18" data-y="0.63" data-x="1597449600" r="1" fill="white"><title>2020-08-15: 1</title></circle>
	<circle cx="335.73" cy="365.27" data-y="0.39" data-x="1597536000" r="1" fill="white"><title>2020-08-16: 0</title></circle>
	<circle cx="337.65" cy="362.83" data-y="0.49" data-x="1597622400" r="1" fill="white"><title>2020-08-17: 0</title></circle>
	<circle cx="339.57" cy="357.97" data-y="0.68" data-x="1597708800" r="1" fill="white"><title>2020-08-18: 1</title></circle>
	<circle cx="341.49" cy="360.40" data-y="0.59" data-x="1597795200" r="1" fill="white"><title>2020-08-19: 1</title></circle>
	<circle cx="343.41" cy="356.75" data-y="0.73" data-x="1597881600" r="1" fill="white"><title>2020-08-20: 1</title></circle>
	<circle cx="345.32" cy="354.32" data-y="0.83" data-x="1597968000" r="1" fill="white"><title>2020-08-21: 1</title></circle>
	<circle cx="347.24" cy="348.23" data-y="1.07" data-x="1598054400" r="1" fill="white"><title>2020-08-22: 1</title></circle>
	<circle cx="349.16" cy="349.45" data-y="1.02" data-x="1598140800" r="1" fill="white"><title>2020-08-23: 1</title></circle>
	<circle cx="351.08" cy="348.23" data-y="1.07" data-x="1598227200" r="1" fill="white"><title>2020-08-24: 1</title></circle>
	<circle cx="353.00" cy="340.93" data-y="1.37" data-x="1598313600" r="1" fill="white"><title>2020-08-25: 1</title></circle>
	<circle cx="354.91" cy="332.42" data-y="1.71" data-x="1598400000" r="1" fill="white"><title>2020-08-26: 2</title></circle>
	<circle cx="356.83" cy="327.55" data-y="1.90" data-x="1598486400" r="1" fill="white"><title>2020-08-27: 2</title></circle>
	<circle cx="358.75" cy="329.98" data-y="1.80" data-x="1598572800" r="1" fill="white"><title>2020-08-28: 2</title></circle>
	<circle cx="360.67" cy="328.77" data-y="1.85" data-x="1598659200" r="1" fill="white"><title>2020-08-29: 2</title></circle>
	<circle cx="362.59" cy="312.95" data-y="2.49" data-x="1598745600" r="1" fill="white"><title>2020-08-30: 2</title></circle>
	<circle cx="364.50" cy="312.95" data-y="2.49" data-x="1598832000" r="1" fill="white"><title>2020-08-31: 2</title></circle>
	<circle cx="366.42" cy="321.47" data-y="2.15" data-x="1598918400" r="1" fill="white"><title>2020-09-01: 2</title></circle>
	<circle cx="368.34" cy="326.33" data-y="1.95" data-x="1599004800" r="1" fill="white"><title>2020-09-02: 2</title></circle>
	<circle cx="370.26" cy="331.20" data-y="1.76" data-x="1599091200" r="1" fill="white"><title>2020-09-03: 2</title></circle>
	<circle cx="372.18" cy="320.25" data-y="2.19" data-x="1599177600" r="1" fill="white"><title>2020-09-04: 2</title></circle>
	<circle cx="374.09" cy="320.25" data-y="2.19" data-x="1599264000" r="1" fill="white"><title>2020-09-05: 2</title></circle>
	<circle cx="376.01" cy="322.68" data-y="2.10" data-x="1599350400" r="1" fill="white"><title>2020-09-06: 2</title></circle>
	<circle cx="377.93" cy="322.68" data-y="2.10" data-x="1599436800" r="1" fill="white"><title>2020-09-07: 2</title></circle>
	<circle cx="379.85" cy="314.17" data-y="2.44" data-x="1599523200" r="1" fill="white"><title>2020-09-08: 2</title></circle>
	<circle cx="381.77" cy="300.78" data-y="2.97" data-x="1599609600" r="1" fill="white"><title>2020-09-09: 3</title></circle>
	<circle cx="383.69" cy="303.22" data-y="2.88" data-x="1599696000" r="1" fill="white"><title>2020-09-10: 3</title></circle>
	<circle cx="385.60" cy="310.52" data-y="2.58" data-x="1599782400" r="1" fill="white"><title>2020-09-11: 3</title></circle>
	<circle cx="387.52" cy="314.17" data-y="2.44" data-x="1599868800" r="1" fill="white"><title>2020-09-12: 2</title></circle>
	<circle cx="389.44" cy="320.25" data-y="2.19" data-x="1599955200" r="1" fill="white"><title>2020-09-13: 2</title></circle>
	<circle cx="391.36" cy="315.38" data-y="2.39" data-x="1600041600" r="1" fill="white"><title>2020-09-14: 2</title></circle>
	<circle cx="393.28" cy="317.82" data-y="2.29" data-x="1600128000" r="1" fill="white"><title>2020-09-15: 2</title></circle>
	<circle cx="395.19" cy="327.55" data-y="1.90" data-x="1600214400" r="1" fill="white"><title>2020-09-16: 2</title></circle>
	<circle cx="397.11" cy="319.03" data-y="2.24" data-x="1600300800" r="1" fill="white"><title>2020-09-17: 2</title></circle>
	<circle cx="399.03" cy="312.95" data-y="2.49" data-x="1600387200" r="1" fill="white"><title>2020-09-18: 2</title></circle>
	<circle cx="400.95" cy="297.13" data-y="3.12" data-x="1600473600" r="1" fill="white"><title>2020-09-19: 3</title></circle>
	<circle cx="402.87" cy="282.53" data-y="3.71" data-x="1600560000" r="1" fill="white"><title>2020-09-20: 4</title></circle>
	<circle cx="404.78" cy="272.80" data-y="4.10" data-x="1600646400" r="1" fill="white"><title>2020-09-21: 4</title></circle>
	<circle cx="406.70" cy="261.85" data-y="4.53" data-x="1600732800" r="1" fill="white"><title>2020-09-22: 5</title></circle>
	<circle cx="408.62" cy="250.90" data-y="4.97" data-x="1600819200" r="1" fill="white"><title>2020-09-23: 5</title></circle>
	<circle cx="410.54" cy="247.25" data-y="5.12" data-x="1600905600" r="1" fill="white"><title>2020-09-24: 5</title></circle>
	<circle cx="412.46" cy="237.52" data-y="5.51" data-x="1600992000" r="1" fill="white"><title>2020-09-25: 6</title></circle>
	<circle cx="414.38" cy="236.30" data-y="5.56" data-x="1601078400" r="1" fill="white"><title>2020-09-26: 6</title></circle>
	<circle cx="416.29" cy="233.87" data-y="5.66" data-x="1601164800" r="1" fill="white"><title>2020-09-27: 6</title></circle>
	<circle cx="418.21" cy="224.13" data-y="6.05" data-x="1601251200" r="1" fill="white"><title>2020-09-28: 6</title></circle>
	<circle cx="420.13" cy="204.67" data-y="6.83" data-x="1601337600" r="1" fill="white"><title>2020-09-29: 7</title></circle>
	<circle cx="422.05" cy="202.23" data-y="6.92" data-x="1601424000" r="1" fill="white"><title>2020-09-30: 7</title></circle>
	<circle cx="423.97" cy="197.37" data-y="7.12" data-x="1601510400" r="1" fill="white"><title>2020-10-01: 7</title></circle>
	<circle cx="425.88" cy="179.12" data-y="7.85" data-x="1601596800" r="1" fill="white"><title>2020-10-02: 8</title></circle>
	<circle cx="427.80" cy="160.87" data-y="8.58" data-x="1601683200" r="1" fill="white"><title>2020-10-03: 9</title></circle>
	<circle cx="429.72" cy="124.37" data-y="10.05" data-x="1601769600" r="1" fill="white"><title>2020-10-04: 10</title></circle>
	<circle cx="431.64" cy="114.63" data-y="10.44" data-x="1601856000" r="1" fill="white"><title>2020-10-05: 10</title></circle>
	<circle cx="433.56" cy="120.72" data-y="10.19" data-x="1601942400" r="1" fill="white"><title>2020-10-06: 10</title></circle>
	<circle cx="435.47" cy="113.42" data-y="10.48" data-x="1602028800" r="1" fill="white"><title>2020-10-07: 10</title></circle>
	<circle cx="437.39" cy="110.98" data-y="10.58" data-x="1602115200" r="1" fill="white"><title>2020-10-08: 11</title></circle>
	<circle cx="439.31" cy="104.90" data-y="10.83" data-x="1602201600" r="1" fill="white"><title>2020-10-09: 11</title></circle>
	<circle cx="441.23" cy="109.77" data-y="10.63" data-x="1602288000" r="1" fill="white"><title>2020-10-10: 11</title></circle>
	<circle cx="443.15" cy="115.85" data-y="10.39" data-x="1602374400" r="1" fill="white"><title>2020-10-11: 10</title></circle>
	<circle cx="445.06" cy="110.98" data-y="10.58" data-x="1602460800" r="1" fill="white"><title>2020-10-12: 11</title></circle>
	<circle cx="446.98" cy="90.30" data-y="11.41" data-x="1602547200" r="1" fill="white"><title>2020-10-13: 11</title></circle>
	<circle cx="448.90" cy="91.52" data-y="11.36" data-x="1602633600" r="1" fill="white"><title>2020-10-14: 11</title></circle>
	<circle cx="450.82" cy="75.70" data-y="12.00" data-x="1602720000" r="1" fill="white"><title>2020-10-15: 12</title></circle>
	<circle cx="452.74" cy="53.80" data-y="12.87" data-x="1602806400" r="1" fill="white"><title>2020-10-16: 13</title></circle>
	<circle cx="454.66" cy="36.77" data-y="13.56" data-x="1602892800" r="1" fill="white"><title>2020-10-17: 14</title></circle>
	<circle cx="456.57" cy="28.25" data-y="13.90" data-x="1602979200" r="1" fill="white"><title>2020-10-18: 14</title></circle>
	<circle cx="458.49" cy="10.00" data-y="14.63" data-x="1603065600" r="1" fill="white"><title>2020-10-19: 15</title></circle>
	<circle cx="460.41" cy="35.55" data-y="13.60" data-x="1603152000" r="1" fill="white"><title>2020-10-20: 14</title></circle>
</g>
<g data-series="recent-cases" class="data-series">
	<path d="M 460.41,35.55L 462.33,61.10L 464.25,96.38L 466.16,129.44L 468.08,155.27L 470.00,211.05" id="Recent cases" class="line" stroke-width="1" stroke-linecap="round" stroke-dasharray="4,6" stroke-dashoffset="4"><title>Recent cases</title></path>
	<circle cx="460.41" cy="35.55" data-y="13.60" data-x="1603152000" r="2.5" fill="white"><title>2020-10-20: 14</title></circle>
	<circle cx="462.33" cy="61.10" data-y="12.58" data-x="1603238400" r="2.5" fill="white"><title>2020-10-21: 13</title></circle>
	<circle cx="464.25" cy="96.38" data-y="11.17" data-x="1603324800" r="2.5" fill="white"><title>2020-10-22: 11</title></circle>
	<circle cx="466.16" cy="129.44" data-y="9.84" data-x="1603411200" r="2.5" fill="white"><title>2020-10-23: 10</title></circle>
	<circle cx="468.08" cy="155.27" data-y="8.81" data-x="1603497600" r="2.5" fill="white"><title>2020-10-24: 9</title></circle>
	<circle cx="470.00" cy="211.05" data-y="6.57" data-x="1603584000" r="2.5" fill="white"><title>2020-10-25: 7</title></circle>
</g>
</svg>
