<svg width="480" height="400" viewBox="0 0 480 400" xmlns="http://www.w3.org/2000/svg" style="overflow:display" preserveAspectRatio="xMinYMin meet" overflow="visible">
<defs>
	<style>
	.data-series path.line { fill-opacity: 0; stroke: black; }
	.data-series path.line.dotted { stroke-dasharray: 12 20 }
	.data-series:hover path.line, .data-series.on path.line { stroke-width: 1; }
	.data-series:hover circle, .data-series.on circle { display: inline; }
	.graph-grid { font-family: "Helvetica Neue",Helvetica,Arial,"Lucida Grande",sans-serif; }
	.graph-grid line { stroke: black; stroke-width: 1; stroke-linecap: round; }
	.graph-grid.graph-grid-x text { text-anchor: middle; dominant-baseline: hanging; transform: translateY(10px); }
	.graph-grid.graph-grid-y text { text-anchor: end; dominant-baseline: middle; transform: translateX(-10px); }
	</style>
</defs>
<g class="graph-grid graph-grid-y">
	<line x1="25.00" y1="375.00" x2="470.00" y2="375.00" data-left="25"></line>
	<text x="35" y="375" text-anchor="end">0</text>
	<text x="35" y="280.972580627468" text-anchor="end">50</text>
	<text x="35" y="186.945161254936" text-anchor="end">100</text>
	<text x="35" y="92.9177418824045" text-anchor="end">150</text>
	<text style="text-anchor:middle;dominant-baseline:hanging;font-weight:bold;transform: translateY(192.5px) rotate(-90deg);"></text>
</g>
<g class="graph-grid graph-grid-x">
	<line class="tick" x1="61.73" y1="375.00" x2="61.73" y2="380.00"></line>
	<text x="61.7301587301587" y="375" text-anchor="middle">A</text>
	<line class="tick" x1="104.11" y1="375.00" x2="104.11" y2="380.00"></line>
	<text x="104.111111111111" y="375" text-anchor="middle">M</text>
	<line class="tick" x1="147.90" y1="375.00" x2="147.90" y2="380.00"></line>
	<text x="147.904761904762" y="375" text-anchor="middle">J</text>
	<line class="tick" x1="190.29" y1="375.00" x2="190.29" y2="380.00"></line>
	<text x="190.285714285714" y="375" text-anchor="middle">J</text>
	<line class="tick" x1="234.08" y1="375.00" x2="234.08" y2="380.00"></line>
	<text x="234.079365079365" y="375" text-anchor="middle">A</text>
	<line class="tick" x1="277.87" y1="375.00" x2="277.87" y2="380.00"></line>
	<text x="277.873015873016" y="375" text-anchor="middle">S</text>
	<line class="tick" x1="320.25" y1="375.00" x2="320.25" y2="380.00"></line>
	<text x="320.253968253968" y="375" text-anchor="middle">O</text>
	<line class="tick" x1="364.05" y1="375.00" x2="364.05" y2="380.00"></line>
	<text x="364.047619047619" y="375" text-anchor="middle">N</text>
	<line class="tick" x1="406.43" y1="375.00" x2="406.43" y2="380.00"></line>
	<text x="406.428571428571" y="375" text-anchor="middle">D</text>
	<line class="tick" x1="450.22" y1="375.00" x2="450.22" y2="380.00"></line>
	<text x="450.222222222222" y="375" text-anchor="middle">J</text>
	<text style="text-anchor:middle;dominant-baseline:hanging;font-weight:bold;transform: translateY(192.5px) rotate(-90deg);"></text>
</g>
<g data-series="widespread" class="data-series">
	<path d="M 25.00,361.84L 470.00,361.84" id="E09000010-level-0" class="line" stroke-width="1" stroke-linecap="round" stroke-dasharray="3,3" fill-opacity="0.3" opacity="0.3"><title>Widespread</title></path>
</g>
<g data-series="substantial" class="data-series">
	<path d="M 25.00,367.48L 470.00,367.48" id="E09000010-level-1" class="line" stroke-width="1" stroke-linecap="round" stroke-dasharray="3,3" fill-opacity="0.3" opacity="0.3"><title>Substantial</title></path>
</g>
<g data-series="moderate" class="data-series">
	<path d="M 25.00,373.12L 470.00,373.12" id="E09000010-level-2" class="line" stroke-width="1" stroke-linecap="round" stroke-dasharray="3,3" fill-opacity="0.3" opacity="0.3"><title>Moderate</title></path>
</g>
<g data-series="new-cases" class="data-series">
	<path d="M 25.00,374.58L 26.41,374.10L 27.83,374.07L 29.24,373.72L 30.65,373.48L 32.06,372.92L 33.48,372.84L 34.89,372.76L 36.30,372.20L 37.71,371.80L 39.13,371.08L 40.54,369.79L 41.95,369.71L 43.37,368.43L 44.78,366.83L 46.19,365.87L 47.60,364.75L 49.02,364.67L 50.43,364.99L 51.84,364.03L 53.25,364.75L 54.67,364.51L 56.08,364.35L 57.49,363.87L 58.90,362.83L 60.32,362.03L 61.73,362.11L 63.14,361.71L 64.56,360.99L 65.97,360.51L 67.38,360.19L 68.79,360.11L 70.21,360.27L 71.62,360.03L 73.03,359.38L 74.44,360.99L 75.86,360.59L 77.27,361.87L 78.68,362.51L 80.10,361.55L 81.51,361.95L 82.92,362.67L 84.33,361.31L 85.75,362.35L 87.16,361.47L 88.57,361.15L 89.98,361.95L 91.40,361.15L 92.81,360.83L 94.22,362.27L 95.63,363.15L 97.05,364.03L 98.46,365.23L 99.87,366.35L 101.29,367.71L 102.70,368.75L 104.11,368.99L 105.52,369.31L 106.94,370.12L 108.35,370.84L 109.76,371.24L 111.17,371.96L 112.59,372.12L 114.00,372.44L 115.41,372.52L 116.83,372.36L 118.24,372.20L 119.65,372.44L 121.06,371.96L 122.48,371.32L 123.89,371.32L 125.30,371.32L 126.71,371.64L 128.13,371.80L 129.54,371.96L 130.95,372.44L 132.37,373.00L 133.78,373.32L 135.19,373.72L 136.60,373.72L 138.02,373.80L 139.43,373.72L 140.84,373.80L 142.25,373.96L 143.67,374.12L 145.08,374.12L 146.49,374.28L 147.90,374.20L 149.32,374.44L 150.73,374.28L 152.14,374.36L 153.56,374.36L 154.97,374.36L 156.38,374.44L 157.79,374.44L 159.21,374.12L 160.62,374.12L 162.03,374.04L 163.44,373.80L 164.86,373.80L 166.27,373.64L 167.68,373.80L 169.10,374.12L 170.51,374.20L 171.92,374.28L 173.33,374.44L 174.75,374.44L 176.16,374.52L 177.57,374.20L 178.98,374.12L 180.40,373.96L 181.81,373.96L 183.22,373.72L 184.63,373.80L 186.05,373.80L 187.46,373.96L 188.87,373.96L 190.29,373.96L 191.70,373.88L 193.11,374.04L 194.52,374.12L 195.94,374.12L 197.35,374.28L 198.76,374.36L 200.17,374.60L 201.59,374.68L 203.00,374.44L 204.41,374.28L 205.83,374.28L 207.24,374.12L 208.65,374.12L 210.06,373.80L 211.48,373.56L 212.89,373.96L 214.30,374.12L 215.71,374.12L 217.13,374.20L 218.54,374.12L 219.95,374.44L 221.37,374.52L 222.78,374.44L 224.19,374.20L 225.60,374.04L 227.02,373.56L 228.43,373.48L 229.84,373.32L 231.25,373.24L 232.67,373.08L 234.08,373.24L 235.49,373.32L 236.90,373.56L 238.32,373.56L 239.73,373.64L 241.14,373.40L 242.56,373.48L 243.97,373.16L 245.38,373.16L 246.79,373.40L 248.21,373.24L 249.62,373.16L 251.03,373.48L 252.44,373.16L 253.86,373.08L 255.27,372.52L 256.68,371.88L 258.10,371.72L 259.51,371.64L 260.92,371.16L 262.33,371.08L 263.75,371.00L 265.16,370.92L 266.57,371.24L 267.98,371.40L 269.40,371.40L 270.81,371.88L 272.22,371.80L 273.63,371.72L 275.05,371.64L 276.46,371.40L 277.87,370.36L 279.29,369.23L 280.70,368.59L 282.11,367.31L 283.52,366.67L 284.94,366.75L 286.35,365.71L 287.76,366.35L 289.17,367.07L 290.59,367.55L 292.00,368.27L 293.41,369.07L 294.83,368.83L 296.24,369.07L 297.65,368.19L 299.06,368.03L 300.48,366.59L 301.89,366.59L 303.30,365.79L 304.71,365.31L 306.13,365.07L 307.54,364.75L 308.95,364.19L 310.37,364.03L 311.78,362.51L 313.19,361.07L 314.60,360.11L 316.02,359.06L 317.43,357.94L 318.84,357.38L 320.25,357.22L 321.67,356.50L 323.08,356.66L 324.49,355.78L 325.90,353.46L 327.32,353.54L 328.73,352.50L 330.14,351.06L 331.56,350.34L 332.97,349.29L 334.38,348.01L 335.79,344.17L 337.21,340.25L 338.62,339.12L 340.03,338.00L 341.44,335.36L 342.86,331.04L 344.27,329.44L 345.68,332.48L 347.10,333.60L 348.51,332.32L 349.92,333.20L 351.33,333.04L 352.75,334.24L 354.16,335.36L 355.57,334.72L 356.98,335.84L 358.40,337.76L 359.81,337.44L 361.22,335.60L 362.63,335.76L 364.05,334.96L 365.46,335.60L 366.87,333.84L 368.29,332.56L 369.70,332.40L 371.11,333.20L 372.52,331.20L 373.94,327.91L 375.35,323.19L 376.76,319.75L 378.17,318.30L 379.59,315.42L 381.00,313.50L 382.41,313.10L 383.83,313.26L 385.24,315.90L 386.65,318.62L 388.06,317.66L 389.48,319.75L 390.89,321.83L 392.30,324.15L 393.71,328.15L 395.13,329.84L 396.54,331.36L 397.95,333.60L 399.37,330.96L 400.78,328.95L 402.19,328.23L 403.60,321.75L 405.02,320.47L 406.43,314.94L 407.84,311.10L 409.25,307.33L 410.67,301.57L 412.08,293.08L 413.49,284.35L 414.90,270.90L 416.32,259.45L 417.73,249.52L 419.14,235.50L 420.56,219.33L 421.97,199.63L 423.38,185.77L 424.79,170.88L 426.21,156.14L 427.62,154.22L 429.03,148.38L 430.44,124.35L 431.86,115.30L 433.27,97.45L 434.68,96.81L 436.10,114.74L 437.51,89.76L 438.92,76.79L 440.33,92.24L 441.75,64.61L 443.16,55.65L 444.57,50.68L 445.98,45.23L 447.40,41.39L 448.81,38.67L 450.22,10.00L 451.63,30.66L 453.05,45.56L 454.46,52.92L 455.87,45.96L 457.29,65.82L 458.70,87.44L 460.11,119.95L 461.52,143.17L 462.94,161.11" id="New cases" class="line" stroke-width="1" stroke-linecap="round"><title>New cases</title></path>
	<circle cx="25.00" cy="374.58" data-y="0.22" data-x="1583452800" r="1" fill="white"><title>2020-03-06: 0</title></circle>
	<circle cx="26.41" cy="374.10" data-y="0.48" data-x="1583539200" r="1" fill="white"><title>2020-03-07: 0</title></circle>
	<circle cx="27.83" cy="374.07" data-y="0.50" data-x="1583625600" r="1" fill="white"><title>2020-03-08: 0</title></circle>
	<circle cx="29.24" cy="373.72" data-y="0.68" data-x="1583712000" r="1" fill="white"><title>2020-03-09: 1</title></circle>
	<circle cx="30.65" cy="373.48" data-y="0.81" data-x="1583798400" r="1" fill="white"><title>2020-03-10: 1</title></circle>
	<circle cx="32.06" cy="372.92" data-y="1.11" data-x="1583884800" r="1" fill="white"><title>2020-03-11: 1</title></circle>
	<circle cx="33.48" cy="372.84" data-y="1.15" data-x="1583971200" r="1" fill="white"><title>2020-03-12: 1</title></circle>
	<circle cx="34.89" cy="372.76" data-y="1.19" data-x="1584057600" r="1" fill="white"><title>2020-03-13: 1</title></circle>
	<circle cx="36.30" cy="372.20" data-y="1.49" data-x="1584144000" r="1" fill="white"><title>2020-03-14: 1</title></circle>
	<circle cx="37.71" cy="371.80" data-y="1.70" data-x="1584230400" r="1" fill="white"><title>2020-03-15: 2</title></circle>
	<circle cx="39.13" cy="371.08" data-y="2.09" data-x="1584316800" r="1" fill="white"><title>2020-03-16: 2</title></circle>
	<circle cx="40.54" cy="369.79" data-y="2.77" data-x="1584403200" r="1" fill="white"><title>2020-03-17: 3</title></circle>
	<circle cx="41.95" cy="369.71" data-y="2.81" data-x="1584489600" r="1" fill="white"><title>2020-03-18: 3</title></circle>
	<circle cx="43.37" cy="368.43" data-y="3.49" data-x="1584576000" r="1" fill="white"><title>2020-03-19: 3</title></circle>
	<circle cx="44.78" cy="366.83" data-y="4.34" data-x="1584662400" r="1" fill="white"><title>2020-03-20: 4</title></circle>
	<circle cx="46.19" cy="365.87" data-y="4.85" data-x="1584748800" r="1" fill="white"><title>2020-03-21: 5</title></circle>
	<circle cx="47.60" cy="364.75" data-y="5.45" data-x="1584835200" r="1" fill="white"><title>2020-03-22: 5</title></circle>
	<circle cx="49.02" cy="364.67" data-y="5.49" data-x="1584921600" r="1" fill="white"><title>2020-03-23: 5</title></circle>
	<circle cx="50.43" cy="364.99" data-y="5.32" data-x="1585008000" r="1" fill="white"><title>2020-03-24: 5</title></circle>
	<circle cx="51.84" cy="364.03" data-y="5.83" data-x="1585094400" r="1" fill="white"><title>2020-03-25: 6</title></circle>
	<circle cx="53.25" cy="364.75" data-y="5.45" data-x="1585180800" r="1" fill="white"><title>2020-03-26: 5</title></circle>
	<circle cx="54.67" cy="364.51" data-y="5.58" data-x="1585267200" r="1" fill="white"><title>2020-03-27: 6</title></circle>
	<circle cx="56.08" cy="364.35" data-y="5.66" data-x="1585353600" r="1" fill="white"><title>2020-03-28: 6</title></circle>
	<circle cx="57.49" cy="363.87" data-y="5.92" data-x="1585440000" r="1" fill="white"><title>2020-03-29: 6</title></circle>
	<circle cx="58.90" cy="362.83" data-y="6.47" data-x="1585526400" r="1" fill="white"><title>2020-03-30: 6</title></circle>
	<circle cx="60.32" cy="362.03" data-y="6.90" data-x="1585612800" r="1" fill="white"><title>2020-03-31: 7</title></circle>
	<circle cx="61.73" cy="362.11" data-y="6.86" data-x="1585699200" r="1" fill="white"><title>2020-04-01: 7</title></circle>
	<circle cx="63.14" cy="361.71" data-y="7.07" data-x="1585785600" r="1" fill="white"><title>2020-04-02: 7</title></circle>
	<circle cx="64.56" cy="360.99" data-y="7.45" data-x="1585872000" r="1" fill="white"><title>2020-04-03: 7</title></circle>
	<circle cx="65.97" cy="360.51" data-y="7.71" data-x="1585958400" r="1" fill="white"><title>2020-04-04: 8</title></circle>
	<circle cx="67.38" cy="360.19" data-y="7.88" data-x="1586044800" r="1" fill="white"><title>2020-04-05: 8</title></circle>
	<circle cx="68.79" cy="360.11" data-y="7.92" data-x="1586131200" r="1" fill="white"><title>2020-04-06: 8</title></circle>
	<circle cx="70.21" cy="360.27" data-y="7.84" data-x="1586217600" r="1" fill="white"><title>2020-04-07: 8</title></circle>
	<circle cx="71.62" cy="360.03" data-y="7.96" data-x="1586304000" r="1" fill="white"><title>2020-04-08: 8</title></circle>
	<circle cx="73.03" cy="359.38" data-y="8.30" data-x="1586390400" r="1" fill="white"><title>2020-04-09: 8</title></circle>
	<circle cx="74.44" cy="360.99" data-y="7.45" data-x="1586476800" r="1" fill="white"><title>2020-04-10: 7</title></circle>
	<circle cx="75.86" cy="360.59" data-y="7.66" data-x="1586563200" r="1" fill="white"><title>2020-04-11: 8</title></circle>
	<circle cx="77.27" cy="361.87" data-y="6.98" data-x="1586649600" r="1" fill="white"><title>2020-04-12: 7</title></circle>
	<circle cx="78.68" cy="362.51" data-y="6.64" data-x="1586736000" r="1" fill="white"><title>2020-04-13: 7</title></circle>
	<circle cx="80.10" cy="361.55" data-y="7.15" data-x="1586822400" r="1" fill="white"><title>2020-04-14: 7</title></circle>
	<circle cx="81.51" cy="361.95" data-y="6.94" data-x="1586908800" r="1" fill="white"><title>2020-04-15: 7</title></circle>
	<circle cx="82.92" cy="362.67" data-y="6.56" data-x="1586995200" r="1" fill="white"><title>2020-04-16: 7</title></circle>
	<circle cx="84.33" cy="361.31" data-y="7.28" data-x="1587081600" r="1" fill="white"><title>2020-04-17: 7</title></circle>
	<circle cx="85.75" cy="362.35" data-y="6.73" data-x="1587168000" r="1" fill="white"><title>2020-04-18: 7</title></circle>
	<circle cx="87.16" cy="361.47" data-y="7.20" data-x="1587254400" r="1" fill="white"><title>2020-04-19: 7</title></circle>
	<circle cx="88.57" cy="361.15" data-y="7.37" data-x="1587340800" r="1" fill="white"><title>2020-04-20: 7</title></circle>
	<circle cx="89.98" cy="361.95" data-y="6.94" data-x="1587427200" r="1" fill="white"><title>2020-04-21: 7</title></circle>
	<circle cx="91.40" cy="361.15" data-y="7.37" data-x="1587513600" r="1" fill="white"><title>2020-04-22: 7</title></circle>
	<circle cx="92.81" cy="360.83" data-y="7.54" data-x="1587600000" r="1" fill="white"><title>2020-04-23: 8</title></circle>
	<circle cx="94.22" cy="362.27" data-y="6.77" data-x="1587686400" r="1" fill="white"><title>2020-04-24: 7</title></circle>
	<circle cx="95.63" cy="363.15" data-y="6.30" data-x="1587772800" r="1" fill="white"><title>2020-04-25: 6</title></circle>
	<circle cx="97.05" cy="364.03" data-y="5.83" data-x="1587859200" r="1" fill="white"><title>2020-04-26: 6</title></circle>
	<circle cx="98.46" cy="365.23" data-y="5.20" data-x="1587945600" r="1" fill="white"><title>2020-04-27: 5</title></circle>
	<circle cx="99.87" cy="366.35" data-y="4.60" data-x="1588032000" r="1" fill="white"><title>2020-04-28: 5</title></circle>
	<circle cx="101.29" cy="367.71" data-y="3.88" data-x="1588118400" r="1" fill="white"><title>2020-04-29: 4</title></circle>
	<circle cx="102.70" cy="368.75" data-y="3.32" data-x="1588204800" r="1" fill="white"><title>2020-04-30: 3</title></circle>
	<circle cx="104.11" cy="368.99" data-y="3.19" data-x="1588291200" r="1" fill="white"><title>2020-05-01: 3</title></circle>
	<circle cx="105.52" cy="369.31" data-y="3.02" data-x="1588377600" r="1" fill="white"><title>2020-05-02: 3</title></circle>
	<circle cx="106.94" cy="370.12" data-y="2.60" data-x="1588464000" r="1" fill="white"><title>2020-05-03: 3</title></circle>
	<circle cx="108.35" cy="370.84" data-y="2.21" data-x="1588550400" r="1" fill="white"><title>2020-05-04: 2</title></circle>
	<circle cx="109.76" cy="371.24" data-y="2.00" data-x="1588636800" r="1" fill="white"><title>2020-05-05: 2</title></circle>
	<circle cx="111.17" cy="371.96" data-y="1.62" data-x="1588723200" r="1" fill="white"><title>2020-05-06: 2</title></circle>
	<circle cx="112.59" cy="372.12" data-y="1.53" data-x="1588809600" r="1" fill="white"><title>2020-05-07: 2</title></circle>
	<circle cx="114.00" cy="372.44" data-y="1.36" data-x="1588896000" r="1" fill="white"><title>2020-05-08: 1</title></circle>
	<circle cx="115.41" cy="372.52" data-y="1.32" data-x="1588982400" r="1" fill="white"><title>2020-05-09: 1</title></circle>
	<circle cx="116.83" cy="372.36" data-y="1.41" data-x="1589068800" r="1" fill="white"><title>2020-05-10: 1</title></circle>
	<circle cx="118.24" cy="372.20" data-y="1.49" data-x="1589155200" r="1" fill="white"><title>2020-05-11: 1</title></circle>
	<circle cx="119.65" cy="372.44" data-y="1.36" data-x="1589241600" r="1" fill="white"><title>2020-05-12: 1</title></circle>
	<circle cx="121.06" cy="371.96" data-y="1.62" data-x="1589328000" r="1" fill="white"><title>2020-05-13: 2</title></circle>
	<circle cx="122.48" cy="371.32" data-y="1.96" data-x="1589414400" r="1" fill="white"><title>2020-05-14: 2</title></circle>
	<circle cx="123.89" cy="371.32" data-y="1.96" data-x="1589500800" r="1" fill="white"><title>2020-05-15: 2</title></circle>
	<circle cx="125.30" cy="371.32" data-y="1.96" data-x="1589587200" r="1" fill="white"><title>2020-05-16: 2</title></circle>
	<circle cx="126.71" cy="371.64" data-y="1.79" data-x="1589673600" r="1" fill="white"><title>2020-05-17: 2</title></circle>
	<circle cx="128.13" cy="371.80" data-y="1.70" data-x="1589760000" r="1" fill="white"><title>2020-05-18: 2</title></circle>
	<circle cx="129.54" cy="371.96" data-y="1.62" data-x="1589846400" r="1" fill="white"><title>2020-05-19: 2</title></circle>
	<circle cx="130.95" cy="372.44" data-y="1.36" data-x="1589932800" r="1" fill="white"><title>2020-05-20: 1</title></circle>
	<circle cx="132.37" cy="373.00" data-y="1.06" data-x="1590019200" r="1" fill="white"><title>2020-05-21: 1</title></circle>
	<circle cx="133.78" cy="373.32" data-y="0.89" data-x="1590105600" r="1" fill="white"><title>2020-05-22: 1</title></circle>
	<circle cx="135.19" cy="373.72" data-y="0.68" data-x="1590192000" r="1" fill="white"><title>2020-05-23: 1</title></circle>
	<circle cx="136.60" cy="373.72" data-y="0.68" data-x="1590278400" r="1" fill="white"><title>2020-05-24: 1</title></circle>
	<circle cx="138.02" cy="373.80" data-y="0.64" data-x="1590364800" r="1" fill="white"><title>2020-05-25: 1</title></circle>
	<circle cx="139.43" cy="373.72" data-y="0.68" data-x="1590451200" r="1" fill="white"><title>2020-05-26: 1</title></circle>
	<circle cx="140.84" cy="373.80" data-y="0.64" data-x="1590537600" r="1" fill="white"><title>2020-05-27: 1</title></circle>
	<circle cx="142.25" cy="373.96" data-y="0.55" data-x="1590624000" r="1" fill="white"><title>2020-05-28: 1</title></circle>
	<circle cx="143.67" cy="374.12" data-y="0.47" data-x="1590710400" r="1" fill="white"><title>2020-05-29: 0</title></circle>
	<circle cx="145.08" cy="374.12" data-y="0.47" data-x="1590796800" r="1" fill="white"><title>2020-05-30: 0</title></circle>
	<circle cx="146.49" cy="374.28" data-y="0.38" data-x="1590883200" r="1" fill="white"><title>2020-05-31: 0</title></circle>
	<circle cx="147.90" cy="374.20" data-y="0.43" data-x="1590969600" r="1" fill="white"><title>2020-06-01: 0</title></circle>
	<circle cx="149.32" cy="374.44" data-y="0.30" data-x="1591056000" r="1" fill="white"><title>2020-06-02: 0</title></circle>
	<circle cx="150.73" cy="374.28" data-y="0.38" data-x="1591142400" r="1" fill="white"><title>2020-06-03: 0</title></circle>
	<circle cx="152.14" cy="374.36" data-y="0.34" data-x="1591228800" r="1" fill="white"><title>2020-06-04: 0</title></circle>
	<circle cx="153.56" cy="374.36" data-y="0.34" data-x="1591315200" r="1" fill="white"><title>2020-06-05: 0</title></circle>
	<circle cx="154.97" cy="374.36" data-y="0.34" data-x="1591401600" r="1" fill="white"><title>2020-06-06: 0</title></circle>
	<circle cx="156.38" cy="374.44" data-y="0.30" data-x="1591488000" r="1" fill="white"><title>2020-06-07: 0</title></circle>
	<circle cx="157.79" cy="374.44" data-y="0.30" data-x="1591574400" r="1" fill="white"><title>2020-06-08: 0</title></circle>
	<circle cx="159.21" cy="374.12" data-y="0.47" data-x="1591660800" r="1" fill="white"><title>2020-06-09: 0</title></circle>
	<circle cx="160.62" cy="374.12" data-y="0.47" data-x="1591747200" r="1" fill="white"><title>2020-06-10: 0</title></circle>
	<circle cx="162.03" cy="374.04" data-y="0.51" data-x="1591833600" r="1" fill="white"><title>2020-06-11: 1</title></circle>
	<circle cx="163.44" cy="373.80" data-y="0.64" data-x="1591920000" r="1" fill="white"><title>2020-06-12: 1</title></circle>
	<circle cx="164.86" cy="373.80" data-y="0.64" data-x="1592006400" r="1" fill="white"><title>2020-06-13: 1</title></circle>
	<circle cx="166.27" cy="373.64" data-y="0.72" data-x="1592092800" r="1" fill="white"><title>2020-06-14: 1</title></circle>
	<circle cx="167.68" cy="373.80" data-y="0.64" data-x="1592179200" r="1" fill="white"><title>2020-06-15: 1</title></circle>
	<circle cx="169.10" cy="374.12" data-y="0.47" data-x="1592265600" r="1" fill="white"><title>2020-06-16: 0</title></circle>
	<circle cx="170.51" cy="374.20" data-y="0.43" data-x="1592352000" r="1" fill="white"><title>2020-06-17: 0</title></circle>
	<circle cx="171.92" cy="374.28" data-y="0.38" data-x="1592438400" r="1" fill="white"><title>2020-06-18: 0</title></circle>
	<circle cx="173.33" cy="374.44" data-y="0.30" data-x="1592524800" r="1" fill="white"><title>2020-06-19: 0</title></circle>
	<circle cx="174.75" cy="374.44" data-y="0.30" data-x="1592611200" r="1" fill="white"><title>2020-06-20: 0</title></circle>
	<circle cx="176.16" cy="374.52" data-y="0.26" data-x="1592697600" r="1" fill="white"><title>2020-06-21: 0</title></circle>
	<circle cx="177.57" cy="374.20" data-y="0.43" data-x="1592784000" r="1" fill="white"><title>2020-06-22: 0</title></circle>
	<circle cx="178.98" cy="374.12" data-y="0.47" data-x="1592870400" r="1" fill="white"><title>2020-06-23: 0</title></circle>
	<circle cx="180.40" cy="373.96" data-y="0.55" data-x="1592956800" r="1" fill="white"><title>2020-06-24: 1</title></circle>
	<circle cx="181.81" cy="373.96" data-y="0.55" data-x="1593043200" r="1" fill="white"><title>2020-06-25: 1</title></circle>
	<circle cx="183.22" cy="373.72" data-y="0.68" data-x="1593129600" r="1" fill="white"><title>2020-06-26: 1</title></circle>
	<circle cx="184.63" cy="373.80" data-y="0.64" data-x="1593216000" r="1" fill="white"><title>2020-06-27: 1</title></circle>
	<circle cx="186.05" cy="373.80" data-y="0.64" data-x="1593302400" r="1" fill="white"><title>2020-06-28: 1</title></circle>
	<circle cx="187.46" cy="373.96" data-y="0.55" data-x="1593388800" r="1" fill="white"><title>2020-06-29: 1</title></circle>
	<circle cx="188.87" cy="373.96" data-y="0.55" data-x="1593475200" r="1" fill="white"><title>2020-06-30: 1</title></circle>
	<circle cx="190.29" cy="373.96" data-y="0.55" data-x="1593561600" r="1" fill="white"><title>2020-07-01: 1</title></circle>
	<circle cx="191.70" cy="373.88" data-y="0.60" data-x="1593648000" r="1" fill="white"><title>2020-07-02: 1</title></circle>
	<circle cx="193.11" cy="374.04" data-y="0.51" data-x="1593734400" r="1" fill="white"><title>2020-07-03: 1</title></circle>
	<circle cx="194.52" cy="374.12" data-y="0.47" data-x="1593820800" r="1" fill="white"><title>2020-07-04: 0</title></circle>
	<circle cx="195.94" cy="374.12" data-y="0.47" data-x="1593907200" r="1" fill="white"><title>2020-07-05: 0</title></circle>
	<circle cx="197.35" cy="374.28" data-y="0.38" data-x="1593993600" r="1" fill="white"><title>2020-07-06: 0</title></circle>
	<circle cx="198.76" cy="374.36" data-y="0.34" data-x="1594080000" r="1" fill="white"><title>2020-07-07: 0</title></circle>
	<circle cx="200.17" cy="374.60" data-y="0.21" data-x="1594166400" r="1" fill="white"><title>2020-07-08: 0</title></circle>
	<circle cx="201.59" cy="374.68" data-y="0.17" data-x="1594252800" r="1" fill="white"><title>2020-07-09: 0</title></circle>
	<circle cx="203.00" cy="374.44" data-y="0.30" data-x="1594339200" r="1" fill="white"><title>2020-07-10: 0</title></circle>
	<circle cx="204.41" cy="374.28" data-y="0.38" data-x="1594425600" r="1" fill="white"><title>2020-07-11: 0</title></circle>
	<circle cx="205.83" cy="374.28" data-y="0.38" data-x="1594512000" r="1" fill="white"><title>2020-07-12: 0</title></circle>
	<circle cx="207.24" cy="374.12" data-y="0.47" data-x="1594598400" r="1" fill="white"><title>2020-07-13: 0</title></circle>
	<circle cx="208.65" cy="374.12" data-y="0.47" data-x="1594684800" r="1" fill="white"><title>2020-07-14: 0</title></circle>
	<circle cx="210.06" cy="373.80" data-y="0.64" data-x="1594771200" r="1" fill="white"><title>2020-07-15: 1</title></circle>
	<circle cx="211.48" cy="373.56" data-y="0.77" data-x="1594857600" r="1" fill="white"><title>2020-07-16: 1</title></circle>
	<circle cx="212.89" cy="373.96" data-y="0.55" data-x="1594944000" r="1" fill="white"><title>2020-07-17: 1</title></circle>
	<circle cx="214.30" cy="374.12" data-y="0.47" data-x="1595030400" r="1" fill="white"><title>2020-07-18: 0</title></circle>
	<circle cx="215.71" cy="374.12" data-y="0.47" data-x="1595116800" r="1" fill="white"><title>2020-07-19: 0</title></circle>
	<circle cx="217.13" cy="374.20" data-y="0.43" data-x="1595203200" r="1" fill="white"><title>2020-07-20: 0</title></circle>
	<circle cx="218.54" cy="374.12" data-y="0.47" data-x="1595289600" r="1" fill="white"><title>2020-07-21: 0</title></circle>
	<circle cx="219.95" cy="374.44" data-y="0.30" data-x="1595376000" r="1" fill="white"><title>2020-07-22: 0</title></circle>
	<circle cx="221.37" cy="374.52" data-y="0.26" data-x="1595462400" r="1" fill="white"><title>2020-07-23: 0</title></circle>
	<circle cx="222.78" cy="374.44" data-y="0.30" data-x="1595548800" r="1" fill="white"><title>2020-07-24: 0</title></circle>
	<circle cx="224.19" cy="374.20" data-y="0.43" data-x="1595635200" r="1" fill="white"><title>2020-07-25: 0</title></circle>
	<circle cx="225.60" cy="374.04" data-y="0.51" data-x="1595721600" r="1" fill="white"><title>2020-07-26: 1</title></circle>
	<circle cx="227.02" cy="373.56" data-y="0.77" data-x="1595808000" r="1" fill="white"><title>2020-07-27: 1</title></circle>
	<circle cx="228.43" cy="373.48" data-y="0.81" data-x="1595894400" r="1" fill="white"><title>2020-07-28: 1</title></circle>
	<circle cx="229.84" cy="373.32" data-y="0.89" data-x="1595980800" r="1" fill="white"><title>2020-07-29: 1</title></circle>
	<circle cx="231.25" cy="373.24" data-y="0.94" data-x="1596067200" r="1" fill="white"><title>2020-07-30: 1</title></circle>
	<circle cx="232.67" cy="373.08" data-y="1.02" data-x="1596153600" r="1" fill="white"><title>2020-07-31: 1</title></circle>
	<circle cx="234.08" cy="373.24" data-y="0.94" data-x="1596240000" r="1" fill="white"><title>2020-08-01: 1</title></circle>
	<circle cx="235.49" cy="373.32" data-y="0.89" data-x="1596326400" r="1" fill="white"><title>2020-08-02: 1</title></circle>
	<circle cx="236.90" cy="373.56" data-y="0.77" data-x="1596412800" r="1" fill="white"><title>2020-08-03: 1</title></circle>
	<circle cx="238.32" cy="373.56" data-y="0.77" data-x="1596499200" r="1" fill="white"><title>2020-08-04: 1</title></circle>
	<circle cx="239.73" cy="373.64" data-y="0.72" data-x="1596585600" r="1" fill="white"><title>2020-08-05: 1</title></circle>
	<circle cx="241.14" cy="373.40" data-y="0.85" data-x="1596672000" r="1" fill="white"><title>2020-08-06: 1</title></circle>
	<circle cx="242.56" cy="373.48" data-y="0.81" data-x="1596758400" r="1" fill="white"><title>2020-08-07: 1</title></circle>
	<circle cx="243.97" cy="373.16" data-y="0.98" data-x="1596844800" r="1" fill="white"><title>2020-08-08: 1</title></circle>
	<circle cx="245.38" cy="373.16" data-y="0.98" data-x="1596931200" r="1" fill="white"><title>2020-08-09: 1</title></circle>
	<circle cx="246.79" cy="373.40" data-y="0.85" data-x="1597017600" r="1" fill="white"><title>2020-08-10: 1</title></circle>
	<circle cx="248.21" cy="373.24" data-y="0.94" data-x="1597104000" r="1" fill="white"><title>2020-08-11: 1</title></circle>
	<circle cx="249.62" cy="373.16" data-y="0.98" data-x="1597190400" r="1" fill="white"><title>2020-08-12: 1</title></circle>
	<circle cx="251.03" cy="373.48" data-y="0.81" data-x="1597276800" r="1" fill="white"><title>2020-08-13: 1</title></circle>
	<circle cx="252.44" cy="373.16" data-y="0.98" data-x="1597363200" r="1" fill="white"><title>2020-08-14: 1</title></circle>
	<circle cx="253.86" cy="373.08" data-y="1.02" data-x="1597449600" r="1" fill="white"><title>2020-08-15: 1</title></circle>
	<circle cx="255.27" cy="372.52" data-y="1.32" data-x="1597536000" r="1" fill="white"><title>2020-08-16: 1</title></circle>
	<circle cx="256.68" cy="371.88" data-y="1.66" data-x="1597622400" r="1" fill="white"><title>2020-08-17: 2</title></circle>
	<circle cx="258.10" cy="371.72" data-y="1.75" data-x="1597708800" r="1" fill="white"><title>2020-08-18: 2</title></circle>
	<circle cx="259.51" cy="371.64" data-y="1.79" data-x="1597795200" r="1" fill="white"><title>2020-08-19: 2</title></circle>
	<circle cx="260.92" cy="371.16" data-y="2.04" data-x="1597881600" r="1" fill="white"><title>2020-08-20: 2</title></circle>
	<circle cx="262.33" cy="371.08" data-y="2.09" data-x="1597968000" r="1" fill="white"><title>2020-08-21: 2</title></circle>
	<circle cx="263.75" cy="371.00" data-y="2.13" data-x="1598054400" r="1" fill="white"><title>2020-08-22: 2</title></circle>
	<circle cx="265.16" cy="370.92" data-y="2.17" data-x="1598140800" r="1" fill="white"><title>2020-08-23: 2</title></circle>
	<circle cx="266.57" cy="371.24" data-y="2.00" data-x="1598227200" r="1" fill="white"><title>2020-08-24: 2</title></circle>
	<circle cx="267.98" cy="371.40" data-y="1.92" data-x="1598313600" r="1" fill="white"><title>2020-08-25: 2</title></circle>
	<circle cx="269.40" cy="371.40" data-y="1.92" data-x="1598400000" r="1" fill="white"><title>2020-08-26: 2</title></circle>
	<circle cx="270.81" cy="371.88" data-y="1.66" data-x="1598486400" r="1" fill="white"><title>2020-08-27: 2</title></circle>
	<circle cx="272.22" cy="371.80" data-y="1.70" data-x="1598572800" r="1" fill="white"><title>2020-08-28: 2</title></circle>
	<circle cx="273.63" cy="371.72" data-y="1.75" data-x="1598659200" r="1" fill="white"><title>2020-08-29: 2</title></circle>
	<circle cx="275.05" cy="371.64" data-y="1.79" data-x="1598745600" r="1" fill="white"><title>2020-08-30: 2</title></circle>
	<circle cx="276.46" cy="371.40" data-y="1.92" data-x="1598832000" r="1" fill="white"><title>2020-08-31: 2</title></circle>
	<circle cx="277.87" cy="370.36" data-y="2.47" data-x="1598918400" r="1" fill="white"><title>2020-09-01: 2</title></circle>
	<circle cx="279.29" cy="369.23" data-y="3.07" data-x="1599004800" r="1" fill="white"><title>2020-09-02: 3</title></circle>
	<circle cx="280.70" cy="368.59" data-y="3.41" data-x="1599091200" r="1" fill="white"><title>2020-09-03: 3</title></circle>
	<circle cx="282.11" cy="367.31" data-y="4.09" data-x="1599177600" r="1" fill="white"><title>2020-09-04: 4</title></circle>
	<circle cx="283.52" cy="366.67" data-y="4.43" data-x="1599264000" r="1" fill="white"><title>2020-09-05: 4</title></circle>
	<circle cx="284.94" cy="366.75" data-y="4.39" data-x="1599350400" r="1" fill="white"><title>2020-09-06: 4</title></circle>
	<circle cx="286.35" cy="365.71" data-y="4.94" data-x="1599436800" r="1" fill="white"><title>2020-09-07: 5</title></circle>
	<circle cx="287.76" cy="366.35" data-y="4.60" data-x="1599523200" r="1" fill="white"><title>2020-09-08: 5</title></circle>
	<circle cx="289.17" cy="367.07" data-y="4.22" data-x="1599609600" r="1" fill="white"><title>2020-09-09: 4</title></circle>
	<circle cx="290.59" cy="367.55" data-y="3.96" data-x="1599696000" r="1" fill="white"><title>2020-09-10: 4</title></circle>
	<circle cx="292.00" cy="368.27" data-y="3.58" data-x="1599782400" r="1" fill="white"><title>2020-09-11: 4</title></circle>
	<circle cx="293.41" cy="369.07" data-y="3.15" data-x="1599868800" r="1" fill="white"><title>2020-09-12: 3</title></circle>
	<circle cx="294.83" cy="368.83" data-y="3.28" data-x="1599955200" r="1" fill="white"><title>2020-09-13: 3</title></circle>
	<circle cx="296.24" cy="369.07" data-y="3.15" data-x="1600041600" r="1" fill="white"><title>2020-09-14: 3</title></circle>
	<circle cx="297.65" cy="368.19" data-y="3.62" data-x="1600128000" r="1" fill="white"><title>2020-09-15: 4</title></circle>
	<circle cx="299.06" cy="368.03" data-y="3.70" data-x="1600214400" r="1" fill="white"><title>2020-09-16: 4</title></circle>
	<circle cx="300.48" cy="366.59" data-y="4.47" data-x="1600300800" r="1" fill="white"><title>2020-09-17: 4</title></circle>
	<circle cx="301.89" cy="366.59" data-y="4.47" data-x="1600387200" r="1" fill="white"><title>2020-09-18: 4</title></circle>
	<circle cx="303.30" cy="365.79" data-y="4.90" data-x="1600473600" r="1" fill="white"><title>2020-09-19: 5</title></circle>
	<circle cx="304.71" cy="365.31" data-y="5.15" data-x="1600560000" r="1" fill="white"><title>2020-09-20: 5</title></circle>
	<circle cx="306.13" cy="365.07" data-y="5.28" data-x="1600646400" r="1" fill="white"><title>2020-09-21: 5</title></circle>
	<circle cx="307.54" cy="364.75" data-y="5.45" data-x="1600732800" r="1" fill="white"><title>2020-09-22: 5</title></circle>
	<circle cx="308.95" cy="364.19" data-y="5.75" data-x="1600819200" r="1" fill="white"><title>2020-09-23: 6</title></circle>
	<circle cx="310.37" cy="364.03" data-y="5.83" data-x="1600905600" r="1" fill="white"><title>2020-09-24: 6</title></circle>
	<circle cx="311.78" cy="362.51" data-y="6.64" data-x="1600992000" r="1" fill="white"><title>2020-09-25: 7</title></circle>
	<circle cx="313.19" cy="361.07" data-y="7.41" data-x="1601078400" r="1" fill="white"><title>2020-09-26: 7</title></circle>
	<circle cx="314.60" cy="360.11" data-y="7.92" data-x="1601164800" r="1" fill="white"><title>2020-09-27: 8</title></circle>
	<circle cx="316.02" cy="359.06" data-y="8.47" data-x="1601251200" r="1" fill="white"><title>2020-09-28: 8</title></circle>
	<circle cx="317.43" cy="357.94" data-y="9.07" data-x="1601337600" r="1" fill="white"><title>2020-09-29: 9</title></circle>
	<circle cx="318.84" cy="357.38" data-y="9.37" data-x="1601424000" r="1" fill="white"><title>2020-09-30: 9</title></circle>
	<circle cx="320.25" cy="357.22" data-y="9.45" data-x="1601510400" r="1" fill="white"><title>2020-10-01: 9</title></circle>
	<circle cx="321.67" cy="356.50" data-y="9.84" data-x="1601596800" r="1" fill="white"><title>2020-10-02: 10</title></circle>
	<circle cx="323.08" cy="356.66" data-y="9.75" data-x="1601683200" r="1" fill="white"><title>2020-10-03: 10</title></circle>
	<circle cx="324.49" cy="355.78" data-y="10.22" data-x="1601769600" r="1" fill="white"><title>2020-10-04: 10</title></circle>
	<circle cx="325.90" cy="353.46" data-y="11.45" data-x="1601856000" r="1" fill="white"><title>2020-10-05: 11</title></circle>
	<circle cx="327.32" cy="353.54" data-y="11.41" data-x="1601942400" r="1" fill="white"><title>2020-10-06: 11</title></circle>
	<circle cx="328.73" cy="352.50" data-y="11.97" data-x="1602028800" r="1" fill="white"><title>2020-10-07: 12</title></circle>
	<circle cx="330.14" cy="351.06" data-y="12.73" data-x="1602115200" r="1" fill="white"><title>2020-10-08: 13</title></circle>
	<circle cx="331.56" cy="350.34" data-y="13.12" data-x="1602201600" r="1" fill="white"><title>2020-10-09: 13</title></circle>
	<circle cx="332.97" cy="349.29" data-y="13.67" data-x="1602288000" r="1" fill="white"><title>2020-10-10: 14</title></circle>
	<circle cx="334.38" cy="348.01" data-y="14.35" data-x="1602374400" r="1" fill="white"><title>2020-10-11: 14</title></circle>
	<circle cx="335.79" cy="344.17" data-y="16.39" data-x="1602460800" r="1" fill="white"><title>2020-10-12: 16</title></circle>
	<circle cx="337.21" cy="340.25" data-y="18.48" data-x="1602547200" r="1" fill="white"><title>2020-10-13: 18</title></circle>
	<circle cx="338.62" cy="339.12" data-y="19.08" data-x="1602633600" r="1" fill="white"><title>2020-10-14: 19</title></circle>
	<circle cx="340.03" cy="338.00" data-y="19.67" data-x="1602720000" r="1" fill="white"><title>2020-10-15: 20</title></circle>
	<circle cx="341.44" cy="335.36" data-y="21.08" data-x="1602806400" r="1" fill="white"><title>2020-10-16: 21</title></circle>
	<circle cx="342.86" cy="331.04" data-y="23.38" data-x="1602892800" r="1" fill="white"><title>2020-10-17: 23</title></circle>
	<circle cx="344.27" cy="329.44" data-y="24.23" data-x="1602979200" r="1" fill="white"><title>2020-10-18: 24</title></circle>
	<circle cx="345.68" cy="332.48" data-y="22.61" data-x="1603065600" r="1" fill="white"><title>2020-10-19: 23</title></circle>
	<circle cx="347.10" cy="333.60" data-y="22.02" data-x="1603152000" r="1" fill="white"><title>2020-10-20: 22</title></circle>
	<circle cx="348.51" cy="332.32" data-y="22.70" data-x="1603238400" r="1" fill="white"><title>2020-10-21: 23</title></circle>
	<circle cx="349.92" cy="333.20" data-y="22.23" data-x="1603324800" r="1" fill="white"><title>2020-10-22: 22</title></circle>
	<circle cx="351.33" cy="333.04" data-y="22.31" data-x="1603411200" r="1" fill="white"><title>2020-10-23: 22</title></circle>
	<circle cx="352.75" cy="334.24" data-y="21.67" data-x="1603497600" r="1" fill="white"><title>2020-10-24: 22</title></circle>
	<circle cx="354.16" cy="335.36" data-y="21.08" data-x="1603584000" r="1" fill="white"><title>2020-10-25: 21</title></circle>
	<circle cx="355.57" cy="334.72" data-y="21.42" data-x="1603670400" r="1" fill="white"><title>2020-10-26: 21</title></circle>
	<circle cx="356.98" cy="335.84" data-y="20.82" data-x="1603756800" r="1" fill="white"><title>2020-10-27: 21</title></circle>
	<circle cx="358.40" cy="337.76" data-y="19.80" data-x="1603843200" r="1" fill="white"><title>2020-10-28: 20</title></circle>
	<circle cx="359.81" cy="337.44" data-y="19.97" data-x="1603929600" r="1" fill="white"><title>2020-10-29: 20</title></circle>
	<circle cx="361.22" cy="335.60" data-y="20.95" data-x="1604016000" r="1" fill="white"><title>2020-10-30: 21</title></circle>
	<circle cx="362.63" cy="335.76" data-y="20.87" data-x="1604102400" r="1" fill="white"><title>2020-10-31: 21</title></circle>
	<circle cx="364.05" cy="334.96" data-y="21.29" data-x="1604188800" r="1" fill="white"><title>2020-11-01: 21</title></circle>
	<circle cx="365.46" cy="335.60" data-y="20.95" data-x="1604275200" r="1" fill="white"><title>2020-11-02: 21</title></circle>
	<circle cx="366.87" cy="333.84" data-y="21.89" data-x="1604361600" r="1" fill="white"><title>2020-11-03: 22</title></circle>
	<circle cx="368.29" cy="332.56" data-y="22.57" data-x="1604448000" r="1" fill="white"><title>2020-11-04: 23</title></circle>
	<circle cx="369.70" cy="332.40" data-y="22.65" data-x="1604534400" r="1" fill="white"><title>2020-11-05: 23</title></circle>
	<circle cx="371.11" cy="333.20" data-y="22.23" data-x="1604620800" r="1" fill="white"><title>2020-11-06: 22</title></circle>
	<circle cx="372.52" cy="331.20" data-y="23.29" data-x="1604707200" r="1" fill="white"><title>2020-11-07: 23</title></circle>
	<circle cx="373.94" cy="327.91" data-y="25.04" data-x="1604793600" r="1" fill="white"><title>2020-11-08: 25</title></circle>
	<circle cx="375.35" cy="323.19" data-y="27.55" data-x="1604880000" r="1" fill="white"><title>2020-11-09: 28</title></circle>
	<circle cx="376.76" cy="319.75" data-y="29.38" data-x="1604966400" r="1" fill="white"><title>2020-11-10: 29</title></circle>
	<circle cx="378.17" cy="318.30" data-y="30.15" data-x="1605052800" r="1" fill="white"><title>2020-11-11: 30</title></circle>
	<circle cx="379.59" cy="315.42" data-y="31.68" data-x="1605139200" r="1" fill="white"><title>2020-11-12: 32</title></circle>
	<circle cx="381.00" cy="313.50" data-y="32.70" data-x="1605225600" r="1" fill="white"><title>2020-11-13: 33</title></circle>
	<circle cx="382.41" cy="313.10" data-y="32.92" data-x="1605312000" r="1" fill="white"><title>2020-11-14: 33</title></circle>
	<circle cx="383.83" cy="313.26" data-y="32.83" data-x="1605398400" r="1" fill="white"><title>2020-11-15: 33</title></circle>
	<circle cx="385.24" cy="315.90" data-y="31.43" data-x="1605484800" r="1" fill="white"><title>2020-11-16: 31</title></circle>
	<circle cx="386.65" cy="318.62" data-y="29.98" data-x="1605571200" r="1" fill="white"><title>2020-11-17: 30</title></circle>
	<circle cx="388.06" cy="317.66" data-y="30.49" data-x="1605657600" r="1" fill="white"><title>2020-11-18: 30</title></circle>
	<circle cx="389.48" cy="319.75" data-y="29.38" data-x="1605744000" r="1" fill="white"><title>2020-11-19: 29</title></circle>
	<circle cx="390.89" cy="321.83" data-y="28.27" data-x="1605830400" r="1" fill="white"><title>2020-11-20: 28</title></circle>
	<circle cx="392.30" cy="324.15" data-y="27.04" data-x="1605916800" r="1" fill="white"><title>2020-11-21: 27</title></circle>
	<circle cx="393.71" cy="328.15" data-y="24.91" data-x="1606003200" r="1" fill="white"><title>2020-11-22: 25</title></circle>
	<circle cx="395.13" cy="329.84" data-y="24.02" data-x="1606089600" r="1" fill="white"><title>2020-11-23: 24</title></circle>
	<circle cx="396.54" cy="331.36" data-y="23.21" data-x="1606176000" r="1" fill="white"><title>2020-11-24: 23</title></circle>
	<circle cx="397.95" cy="333.60" data-y="22.02" data-x="1606262400" r="1" fill="white"><title>2020-11-25: 22</title></circle>
	<circle cx="399.37" cy="330.96" data-y="23.42" data-x="1606348800" r="1" fill="white"><title>2020-11-26: 23</title></circle>
	<circle cx="400.78" cy="328.95" data-y="24.49" data-x="1606435200" r="1" fill="white"><title>2020-11-27: 24</title></circle>
	<circle cx="402.19" cy="328.23" data-y="24.87" data-x="1606521600" r="1" fill="white"><title>2020-11-28: 25</title></circle>
	<circle cx="403.60" cy="321.75" data-y="28.32" data-x="1606608000" r="1" fill="white"><title>2020-11-29: 28</title></circle>
	<circle cx="405.02" cy="320.47" data-y="29.00" data-x="1606694400" r="1" fill="white"><title>2020-11-30: 29</title></circle>
	<circle cx="406.43" cy="314.94" data-y="31.94" data-x="1606780800" r="1" fill="white"><title>2020-12-01: 32</title></circle>
	<circle cx="407.84" cy="311.10" data-y="33.98" data-x="1606867200" r="1" fill="white"><title>2020-12-02: 34</title></circle>
	<circle cx="409.25" cy="307.33" data-y="35.98" data-x="1606953600" r="1" fill="white"><title>2020-12-03: 36</title></circle>
	<circle cx="410.67" cy="301.57" data-y="39.05" data-x="1607040000" r="1" fill="white"><title>2020-12-04: 39</title></circle>
	<circle cx="412.08" cy="293.08" data-y="43.56" data-x="1607126400" r="1" fill="white"><title>2020-12-05: 44</title></circle>
	<circle cx="413.49" cy="284.35" data-y="48.20" data-x="1607212800" r="1" fill="white"><title>2020-12-06: 48</title></circle>
	<circle cx="414.90" cy="270.90" data-y="55.36" data-x="1607299200" r="1" fill="white"><title>2020-12-07: 55</title></circle>
	<circle cx="416.32" cy="259.45" data-y="61.45" data-x="1607385600" r="1" fill="white"><title>2020-12-08: 61</title></circle>
	<circle cx="417.73" cy="249.52" data-y="66.73" data-x="1607472000" r="1" fill="white"><title>2020-12-09: 67</title></circle>
	<circle cx="419.14" cy="235.50" data-y="74.18" data-x="1607558400" r="1" fill="white"><title>2020-12-10: 74</title></circle>
	<circle cx="420.56" cy="219.33" data-y="82.78" data-x="1607644800" r="1" fill="white"><title>2020-12-11: 83</title></circle>
	<circle cx="421.97" cy="199.63" data-y="93.26" data-x="1607731200" r="1" fill="white"><title>2020-12-12: 93</title></circle>
	<circle cx="423.38" cy="185.77" data-y="100.62" data-x="1607817600" r="1" fill="white"><title>2020-12-13: 101</title></circle>
	<circle cx="424.79" cy="170.88" data-y="108.54" data-x="1607904000" r="1" fill="white"><title>2020-12-14: 109</title></circle>
	<circle cx="426.21" cy="156.14" data-y="116.38" data-x="1607990400" r="1" fill="white"><title>2020-12-15: 116</title></circle>
	<circle cx="427.62" cy="154.22" data-y="117.40" data-x="1608076800" r="1" fill="white"><title>2020-12-16: 117</title></circle>
	<circle cx="429.03" cy="148.38" data-y="120.51" data-x="1608163200" r="1" fill="white"><title>2020-12-17: 121</title></circle>
	<circle cx="430.44" cy="124.35" data-y="133.28" data-x="1608249600" r="1" fill="white"><title>2020-12-18: 133</title></circle>
	<circle cx="431.86" cy="115.30" data-y="138.10" data-x="1608336000" r="1" fill="white"><title>2020-12-19: 138</title></circle>
	<circle cx="433.27" cy="97.45" data-y="147.59" data-x="1608422400" r="1" fill="white"><title>2020-12-20: 148</title></circle>
	<circle cx="434.68" cy="96.81" data-y="147.93" data-x="1608508800" r="1" fill="white"><title>2020-12-21: 148</title></circle>
	<circle cx="436.10" cy="114.74" data-y="138.39" data-x="1608595200" r="1" fill="white"><title>2020-12-22: 138</title></circle>
	<circle cx="437.51" cy="89.76" data-y="151.68" data-x="1608681600" r="1" fill="white"><title>2020-12-23: 152</title></circle>
	<circle cx="438.92" cy="76.79" data-y="158.58" data-x="1608768000" r="1" fill="white"><title>2020-12-24: 159</title></circle>
	<circle cx="440.33" cy="92.24" data-y="150.36" data-x="1608854400" r="1" fill="white"><title>2020-12-25: 150</title></circle>
	<circle cx="441.75" cy="64.61" data-y="165.05" data-x="1608940800" r="1" fill="white"><title>2020-12-26: 165</title></circle>
	<circle cx="443.16" cy="55.65" data-y="169.82" data-x="1609027200" r="1" fill="white"><title>2020-12-27: 170</title></circle>
	<circle cx="444.57" cy="50.68" data-y="172.46" data-x="1609113600" r="1" fill="white"><title>2020-12-28: 172</title></circle>
	<circle cx="445.98" cy="45.23" data-y="175.36" data-x="1609200000" r="1" fill="white"><title>2020-12-29: 175</title></circle>
	<circle cx="447.40" cy="41.39" data-y="177.40" data-x="1609286400" r="1" fill="white"><title>2020-12-30: 177</title></circle>
	<circle cx="448.81" cy="38.67" data-y="178.85" data-x="1609372800" r="1" fill="white"><title>2020-12-31: 179</title></circle>
	<circle cx="450.22" cy="10.00" data-y="194.09" data-x="1609459200" r="1" fill="white"><title>2021-01-01: 194</title></circle>
	<circle cx="451.63" cy="30.66" data-y="183.11" data-x="1609545600" r="1" fill="white"><title>2021-01-02: 183</title></circle>
	<circle cx="453.05" cy="45.56" data-y="175.19" data-x="1609632000" r="1" fill="white"><title>2021-01-03: 175</title></circle>
	<circle cx="454.46" cy="52.92" data-y="171.27" data-x="1609718400" r="1" fill="white"><title>2021-01-04: 171</title></circle>
	<circle cx="455.87" cy="45.96" data-y="174.97" data-x="1609804800" r="1" fill="white"><title>2021-01-05: 175</title></circle>
	<circle cx="457.29" cy="65.82" data-y="164.41" data-x="1609891200" r="1" fill="white"><title>2021-01-06: 164</title></circle>
	<circle cx="458.70" cy="87.44" data-y="152.91" data-x="1609977600" r="1" fill="white"><title>2021-01-07: 153</title></circle>
	<circle cx="460.11" cy="119.95" data-y="135.63" data-x="1610064000" r="1" fill="white"><title>2021-01-08: 136</title></circle>
	<circle cx="461.52" cy="143.17" data-y="123.28" data-x="1610150400" r="1" fill="white"><title>2021-01-09: 123</title></circle>
	<circle cx="462.94" cy="161.11" data-y="113.74" data-x="1610236800" r="1" fill="white"><title>2021-01-10: 114</title></circle>
</g>
<g data-series="recent-cases" class="data-series">
	<path d="M 462.94,161.11L 464.35,170.00L 465.76,197.63L 467.17,202.54L 468.59,203.58L 470.00,224.63" id="Recent cases" class="line" stroke-width="1" stroke-linecap="round" stroke-dasharray="4,6" stroke-dashoffset="4"><title>Recent cases</title></path>
	<circle cx="462.94" cy="161.11" data-y="113.74" data-x="1610236800" r="2.5" fill="white"><title>2021-01-10: 114</title></circle>
	<circle cx="464.35" cy="170.00" data-y="109.01" data-x="1610323200" r="2.5" fill="white"><title>2021-01-11: 109</title></circle>
	<circle cx="465.76" cy="197.63" data-y="94.32" data-x="1610409600" r="2.5" fill="white"><title>2021-01-12: 94</title></circle>
	<circle cx="467.17" cy="202.54" data-y="91.71" data-x="1610496000" r="2.5" fill="white"><title>2021-01-13: 92</title></circle>
	<circle cx="468.59" cy="203.58" data-y="91.15" data-x="1610582400" r="2.5" fill="white"><title>2021-01-14: 91</title></circle>
	<circle cx="470.00" cy="224.63" data-y="79.96" data-x="1610668800" r="2.5" fill="white"><title>2021-01-15: 80</title></circle>
</g>
</svg>
