<svg width="480" height="400" viewBox="0 0 480 400" xmlns="http://www.w3.org/2000/svg" style="overflow:display" preserveAspectRatio="xMinYMin meet" overflow="visible">
<defs>
	<style>
	.data-series path.line { fill-opacity: 0; stroke: black; }
	.data-series path.line.dotted { stroke-dasharray: 12 20 }
	.data-series circle { display: none; }
	.data-series:hover path.line, .data-series.on path.line { stroke-width: 1; }
	.data-series:hover circle, .data-series.on circle { display: inline; }
	.data-series circle:hover, .data-series circle.on { r: 1px!important; }
	.graph-grid { font-family: "Helvetica Neue",Helvetica,Arial,"Lucida Grande",sans-serif; }
	.graph-grid line { stroke: black; stroke-width: 1; stroke-linecap: round; }
	.graph-grid.graph-grid-x text { text-anchor: middle; dominant-baseline: hanging; transform: translateY(10px); }
	.graph-grid.graph-grid-y text { text-anchor: end; dominant-baseline: middle; transform: translateX(-10px); }
	</style>
</defs>
<g class="graph-grid graph-grid-y">
	<line x1="15.00" y1="375.00" x2="470.00" y2="375.00" data-left="15"></line>
	<text x="25" y="375" text-anchor="end">0</text>
	<text x="25" y="251.086862195122" text-anchor="end">5</text>
	<text x="25" y="127.173724390244" text-anchor="end">10</text>
	<text x="25" y="3.26058658536577" text-anchor="end">15</text>
	<text style="text-anchor:middle;dominant-baseline:hanging;font-weight:bold;transform: translateY(192.5px) rotate(-90deg);"></text>
</g>
<g class="graph-grid graph-grid-x">
	<line class="tick" x1="70.02" y1="375.00" x2="70.02" y2="380.00"></line>
	<text x="70.0232558139535" y="375" text-anchor="middle">A</text>
	<line class="tick" x1="133.51" y1="375.00" x2="133.51" y2="380.00"></line>
	<text x="133.511627906977" y="375" text-anchor="middle">M</text>
	<line class="tick" x1="199.12" y1="375.00" x2="199.12" y2="380.00"></line>
	<text x="199.116279069767" y="375" text-anchor="middle">J</text>
	<line class="tick" x1="262.60" y1="375.00" x2="262.60" y2="380.00"></line>
	<text x="262.604651162791" y="375" text-anchor="middle">J</text>
	<line class="tick" x1="328.21" y1="375.00" x2="328.21" y2="380.00"></line>
	<text x="328.209302325581" y="375" text-anchor="middle">A</text>
	<line class="tick" x1="393.81" y1="375.00" x2="393.81" y2="380.00"></line>
	<text x="393.813953488372" y="375" text-anchor="middle">S</text>
	<line class="tick" x1="457.30" y1="375.00" x2="457.30" y2="380.00"></line>
	<text x="457.302325581395" y="375" text-anchor="middle">O</text>
	<text style="text-anchor:middle;dominant-baseline:hanging;font-weight:bold;transform: translateY(192.5px) rotate(-90deg);"></text>
</g>
<g data-series="widespread" class="data-series">
	<path d="M 15.00,201.52L 470.00,201.52" id="E09000027-level-0" class="line" stroke-width="1" stroke-linecap="round" stroke-dasharray="3,3" fill-opacity="0.3" opacity="0.3"><title>Widespread</title></path>
</g>
<g data-series="substantial" class="data-series">
	<path d="M 15.00,275.87L 470.00,275.87" id="E09000027-level-1" class="line" stroke-width="1" stroke-linecap="round" stroke-dasharray="3,3" fill-opacity="0.3" opacity="0.3"><title>Substantial</title></path>
</g>
<g data-series="moderate" class="data-series">
	<path d="M 15.00,350.22L 470.00,350.22" id="E09000027-level-2" class="line" stroke-width="1" stroke-linecap="round" stroke-dasharray="3,3" fill-opacity="0.3" opacity="0.3"><title>Moderate</title></path>
</g>
<g data-series="new-cases" class="data-series">
	<path d="M 15.00,368.77L 17.12,370.01L 19.23,368.77L 21.35,367.88L 23.47,366.10L 25.58,366.10L 27.70,362.54L 29.81,355.41L 31.93,346.51L 34.05,339.39L 36.16,334.05L 38.28,323.37L 40.40,319.80L 42.51,307.34L 44.63,285.98L 46.74,269.95L 48.86,252.15L 50.98,237.90L 53.09,220.10L 55.21,204.07L 57.33,193.39L 59.44,200.51L 61.56,196.95L 63.67,196.95L 65.79,205.85L 67.91,212.98L 70.02,218.32L 72.14,232.56L 74.26,234.34L 76.37,237.90L 78.49,248.59L 80.60,245.02L 82.72,253.93L 84.84,257.49L 86.95,250.37L 89.07,255.71L 91.19,264.61L 93.30,264.61L 95.42,261.05L 97.53,266.39L 99.65,266.39L 101.77,266.39L 103.88,269.95L 106.00,268.17L 108.12,278.85L 110.23,291.32L 112.35,294.88L 114.47,298.44L 116.58,316.24L 118.70,310.90L 120.81,316.24L 122.93,294.88L 125.05,284.20L 127.16,280.63L 129.28,282.41L 131.40,277.07L 133.51,285.98L 135.63,293.10L 137.74,314.46L 139.86,321.59L 141.98,328.71L 144.09,330.49L 146.21,337.61L 148.33,337.61L 150.44,341.17L 152.56,339.39L 154.67,348.29L 156.79,346.51L 158.91,348.29L 161.02,346.51L 163.14,351.85L 165.26,353.63L 167.37,358.98L 169.49,355.41L 171.60,362.54L 173.72,364.32L 175.84,360.76L 177.95,353.63L 180.07,348.29L 182.19,344.73L 184.30,350.07L 186.42,350.07L 188.53,350.07L 190.65,353.63L 192.77,360.76L 194.88,366.10L 197.00,367.88L 199.12,362.54L 201.23,360.76L 203.35,360.76L 205.47,362.54L 207.58,358.98L 209.70,353.63L 211.81,355.41L 213.93,360.76L 216.05,358.98L 218.16,358.98L 220.28,358.98L 222.40,364.32L 224.51,367.88L 226.63,367.88L 228.74,367.88L 230.86,371.44L 232.98,371.44L 235.09,371.44L 237.21,364.32L 239.33,366.10L 241.44,367.88L 243.56,366.10L 245.67,366.10L 247.79,364.32L 249.91,364.32L 252.02,371.44L 254.14,369.66L 256.26,367.88L 258.37,367.88L 260.49,367.88L 262.60,367.88L 264.72,366.10L 266.84,366.10L 268.95,366.10L 271.07,367.88L 273.19,369.66L 275.30,369.66L 277.42,371.44L 279.53,373.22L 281.65,371.44L 283.77,373.22L 285.88,371.44L 288.00,369.66L 290.12,369.66L 292.23,367.88L 294.35,367.88L 296.47,367.88L 298.58,366.10L 300.70,366.10L 302.81,364.32L 304.93,362.54L 307.05,362.54L 309.16,362.54L 311.28,360.76L 313.40,360.76L 315.51,358.98L 317.63,358.98L 319.74,358.98L 321.86,358.98L 323.98,358.98L 326.09,360.76L 328.21,358.98L 330.33,358.98L 332.44,358.98L 334.56,358.98L 336.67,355.41L 338.79,353.63L 340.91,350.07L 343.02,344.73L 345.14,328.71L 347.26,321.59L 349.37,310.90L 351.49,307.34L 353.60,307.34L 355.72,309.12L 357.84,312.68L 359.95,325.15L 362.07,332.27L 364.19,337.61L 366.30,339.39L 368.42,339.39L 370.53,334.05L 372.65,330.49L 374.77,332.27L 376.88,318.02L 379.00,319.80L 381.12,323.37L 383.23,321.59L 385.35,321.59L 387.47,318.02L 389.58,316.24L 391.70,325.15L 393.81,318.02L 395.93,312.68L 398.05,303.78L 400.16,291.32L 402.28,296.66L 404.40,291.32L 406.51,291.32L 408.63,298.44L 410.74,296.66L 412.86,305.56L 414.98,321.59L 417.09,316.24L 419.21,323.37L 421.33,325.15L 423.44,319.80L 425.56,319.80L 427.67,319.80L 429.79,316.24L 431.91,310.90L 434.02,303.78L 436.14,282.41L 438.26,278.85L 440.37,255.71L 442.49,236.12L 444.60,216.54L 446.72,182.71L 448.84,141.76L 450.95,102.59L 453.07,43.83L 455.19,36.71L 457.30,10.00L 459.42,27.80" id="New cases" class="line" stroke-width="1" stroke-linecap="round"><title>New cases</title></path>
</g>
<g data-series="recent-cases" class="data-series">
	<path d="M 459.42,27.80L 461.53,79.44L 463.65,132.85L 465.77,171.43L 467.88,232.92L 470.00,269.06" id="Recent cases" class="line" stroke-width="1" stroke-linecap="round" stroke-dasharray="5,5"><title>Recent cases</title></path>
</g>
</svg>
