<svg width="480" height="400" viewBox="0 0 480 400" xmlns="http://www.w3.org/2000/svg" style="overflow:display" preserveAspectRatio="xMinYMin meet" overflow="visible">
<defs>
	<style>
	.data-series path.line { fill-opacity: 0; stroke: black; }
	.data-series path.line.dotted { stroke-dasharray: 12 20 }
	.data-series:hover path.line, .data-series.on path.line { stroke-width: 1; }
	.data-series:hover circle, .data-series.on circle { display: inline; }
	.graph-grid { font-family: "Helvetica Neue",Helvetica,Arial,"Lucida Grande",sans-serif; }
	.graph-grid line { stroke: black; stroke-width: 1; stroke-linecap: round; }
	.graph-grid.graph-grid-x text { text-anchor: middle; dominant-baseline: hanging; transform: translateY(10px); }
	.graph-grid.graph-grid-y text { text-anchor: end; dominant-baseline: middle; transform: translateX(-10px); }
	</style>
</defs>
<g class="graph-grid graph-grid-y">
	<line x1="25.00" y1="375.00" x2="470.00" y2="375.00" data-left="25"></line>
	<text x="35" y="375" text-anchor="end">0</text>
	<text x="35" y="257.585647368421" text-anchor="end">20</text>
	<text x="35" y="140.171294736842" text-anchor="end">40</text>
	<text x="35" y="22.7569421052631" text-anchor="end">60</text>
	<text style="text-anchor:middle;dominant-baseline:hanging;font-weight:bold;transform: translateY(192.5px) rotate(-90deg);"></text>
</g>
<g class="graph-grid graph-grid-x">
	<line class="tick" x1="71.84" y1="375.00" x2="71.84" y2="380.00"></line>
	<text x="71.8421052631579" y="375" text-anchor="middle">A</text>
	<line class="tick" x1="118.68" y1="375.00" x2="118.68" y2="380.00"></line>
	<text x="118.684210526316" y="375" text-anchor="middle">M</text>
	<line class="tick" x1="167.09" y1="375.00" x2="167.09" y2="380.00"></line>
	<text x="167.087719298246" y="375" text-anchor="middle">J</text>
	<line class="tick" x1="213.93" y1="375.00" x2="213.93" y2="380.00"></line>
	<text x="213.929824561404" y="375" text-anchor="middle">J</text>
	<line class="tick" x1="262.33" y1="375.00" x2="262.33" y2="380.00"></line>
	<text x="262.333333333333" y="375" text-anchor="middle">A</text>
	<line class="tick" x1="310.74" y1="375.00" x2="310.74" y2="380.00"></line>
	<text x="310.736842105263" y="375" text-anchor="middle">S</text>
	<line class="tick" x1="357.58" y1="375.00" x2="357.58" y2="380.00"></line>
	<text x="357.578947368421" y="375" text-anchor="middle">O</text>
	<line class="tick" x1="405.98" y1="375.00" x2="405.98" y2="380.00"></line>
	<text x="405.982456140351" y="375" text-anchor="middle">N</text>
	<line class="tick" x1="452.82" y1="375.00" x2="452.82" y2="380.00"></line>
	<text x="452.824561403509" y="375" text-anchor="middle">D</text>
	<text style="text-anchor:middle;dominant-baseline:hanging;font-weight:bold;transform: translateY(192.5px) rotate(-90deg);"></text>
</g>
<g data-series="widespread" class="data-series">
	<path d="M 25.00,333.90L 470.00,333.90" id="E09000026-level-0" class="line" stroke-width="1" stroke-linecap="round" stroke-dasharray="3,3" fill-opacity="0.3" opacity="0.3"><title>Widespread</title></path>
</g>
<g data-series="substantial" class="data-series">
	<path d="M 25.00,351.52L 470.00,351.52" id="E09000026-level-1" class="line" stroke-width="1" stroke-linecap="round" stroke-dasharray="3,3" fill-opacity="0.3" opacity="0.3"><title>Substantial</title></path>
</g>
<g data-series="moderate" class="data-series">
	<path d="M 25.00,369.13L 470.00,369.13" id="E09000026-level-2" class="line" stroke-width="1" stroke-linecap="round" stroke-dasharray="3,3" fill-opacity="0.3" opacity="0.3"><title>Moderate</title></path>
</g>
<g data-series="new-cases" class="data-series">
	<path d="M 25.00,374.52L 26.56,374.62L 28.12,374.36L 29.68,374.45L 31.25,374.73L 32.81,374.73L 34.37,374.73L 35.93,374.73L 37.49,373.90L 39.05,373.35L 40.61,371.98L 42.18,370.33L 43.74,368.14L 45.30,364.85L 46.86,361.55L 48.42,361.00L 49.98,359.08L 51.54,357.16L 53.11,353.87L 54.67,353.05L 56.23,352.22L 57.79,351.40L 59.35,347.01L 60.91,345.64L 62.47,343.44L 64.04,341.52L 65.60,336.85L 67.16,334.93L 68.72,330.82L 70.28,330.82L 71.84,327.52L 73.40,326.70L 74.96,326.42L 76.53,319.29L 78.09,316.00L 79.65,315.17L 81.21,317.92L 82.77,321.48L 84.33,320.11L 85.89,321.48L 87.46,332.46L 89.02,338.50L 90.58,343.17L 92.14,340.70L 93.70,342.62L 95.26,348.11L 96.82,349.20L 98.39,348.93L 99.95,347.56L 101.51,348.11L 103.07,352.22L 104.63,351.40L 106.19,349.75L 107.75,347.28L 109.32,348.38L 110.88,349.75L 112.44,346.73L 114.00,345.64L 115.56,345.64L 117.12,347.01L 118.68,350.30L 120.25,346.46L 121.81,345.36L 123.37,346.46L 124.93,347.01L 126.49,348.65L 128.05,349.48L 129.61,352.50L 131.18,357.71L 132.74,360.73L 134.30,366.22L 135.86,367.32L 137.42,366.49L 138.98,367.04L 140.54,366.77L 142.11,366.22L 143.67,365.39L 145.23,365.67L 146.79,365.12L 148.35,366.49L 149.91,367.59L 151.47,368.14L 153.04,370.06L 154.60,371.43L 156.16,371.16L 157.72,372.53L 159.28,373.08L 160.84,372.26L 162.40,371.98L 163.96,371.71L 165.53,371.16L 167.09,369.79L 168.65,369.24L 170.21,367.86L 171.77,368.69L 173.33,368.69L 174.89,368.69L 176.46,368.41L 178.02,368.96L 179.58,367.59L 181.14,368.41L 182.70,367.04L 184.26,367.32L 185.82,367.59L 187.39,368.69L 188.95,369.24L 190.51,370.88L 192.07,371.16L 193.63,371.98L 195.19,372.26L 196.75,372.26L 198.32,372.80L 199.88,373.35L 201.44,373.35L 203.00,373.08L 204.56,373.35L 206.12,371.98L 207.68,370.88L 209.25,370.33L 210.81,370.06L 212.37,369.51L 213.93,369.79L 215.49,369.51L 217.05,370.88L 218.61,371.43L 220.18,371.71L 221.74,370.88L 223.30,371.16L 224.86,371.43L 226.42,371.98L 227.98,370.61L 229.54,371.16L 231.11,370.61L 232.67,370.88L 234.23,371.16L 235.79,370.06L 237.35,369.24L 238.91,370.61L 240.47,370.33L 242.04,370.88L 243.60,371.16L 245.16,370.88L 246.72,371.43L 248.28,371.16L 249.84,371.16L 251.40,370.61L 252.96,370.06L 254.53,369.24L 256.09,368.96L 257.65,369.24L 259.21,368.69L 260.77,368.69L 262.33,368.41L 263.89,368.41L 265.46,369.51L 267.02,366.22L 268.58,364.57L 270.14,364.57L 271.70,363.75L 273.26,364.02L 274.82,363.20L 276.39,363.20L 277.95,366.77L 279.51,366.77L 281.07,368.41L 282.63,368.41L 284.19,368.69L 285.75,369.79L 287.32,369.51L 288.88,368.41L 290.44,369.51L 292.00,368.69L 293.56,368.41L 295.12,368.41L 296.68,367.32L 298.25,365.39L 299.81,365.39L 301.37,365.39L 302.93,364.85L 304.49,362.65L 306.05,359.63L 307.61,356.34L 309.18,352.50L 310.74,348.93L 312.30,347.28L 313.86,345.09L 315.42,342.34L 316.98,342.89L 318.54,343.71L 320.11,345.36L 321.67,341.79L 323.23,342.34L 324.79,343.17L 326.35,343.17L 327.91,338.77L 329.47,339.05L 331.04,338.50L 332.60,337.95L 334.16,328.35L 335.72,324.50L 337.28,325.60L 338.84,326.15L 340.40,320.66L 341.96,310.51L 343.53,311.61L 345.09,315.17L 346.65,312.98L 348.21,308.31L 349.77,304.20L 351.33,298.71L 352.89,298.98L 354.46,293.49L 356.02,286.63L 357.58,284.16L 359.14,280.05L 360.70,275.65L 362.26,274.56L 363.82,269.34L 365.39,269.62L 366.95,277.30L 368.51,278.40L 370.07,266.32L 371.63,270.71L 373.19,270.99L 374.75,270.71L 376.32,270.71L 377.88,265.23L 379.44,261.93L 381.00,261.38L 382.56,244.37L 384.12,229.27L 385.68,229.00L 387.25,217.20L 388.81,216.10L 390.37,216.65L 391.93,214.73L 393.49,219.94L 395.05,230.10L 396.61,220.77L 398.18,217.75L 399.74,213.08L 401.30,206.77L 402.86,191.95L 404.42,186.46L 405.98,180.15L 407.54,185.36L 409.11,184.27L 410.67,179.88L 412.23,175.76L 413.79,184.27L 415.35,175.48L 416.91,167.25L 418.47,155.18L 420.04,144.20L 421.60,141.45L 423.16,138.71L 424.72,132.12L 426.28,130.75L 427.84,123.89L 429.40,123.62L 430.96,126.64L 432.53,126.09L 434.09,122.79L 435.65,123.34L 437.21,126.91L 438.77,126.64L 440.33,126.91L 441.89,121.15L 443.46,118.40L 445.02,116.76L 446.58,117.85L 448.14,121.97L 449.70,126.64L 451.26,128.28L 452.82,129.11L 454.39,122.24L 455.95,112.64L 457.51,93.98L 459.07,70.65L 460.63,41.56L 462.19,10.00" id="New cases" class="line" stroke-width="1" stroke-linecap="round"><title>New cases</title></path>
	<circle cx="25.00" cy="374.52" data-y="0.08" data-x="1583107200" r="1" fill="white"><title>2020-03-02: 0</title></circle>
	<circle cx="26.56" cy="374.62" data-y="0.07" data-x="1583193600" r="1" fill="white"><title>2020-03-03: 0</title></circle>
	<circle cx="28.12" cy="374.36" data-y="0.11" data-x="1583280000" r="1" fill="white"><title>2020-03-04: 0</title></circle>
	<circle cx="29.68" cy="374.45" data-y="0.09" data-x="1583366400" r="1" fill="white"><title>2020-03-05: 0</title></circle>
	<circle cx="31.25" cy="374.73" data-y="0.05" data-x="1583452800" r="1" fill="white"><title>2020-03-06: 0</title></circle>
	<circle cx="32.81" cy="374.73" data-y="0.05" data-x="1583539200" r="1" fill="white"><title>2020-03-07: 0</title></circle>
	<circle cx="34.37" cy="374.73" data-y="0.05" data-x="1583625600" r="1" fill="white"><title>2020-03-08: 0</title></circle>
	<circle cx="35.93" cy="374.73" data-y="0.05" data-x="1583712000" r="1" fill="white"><title>2020-03-09: 0</title></circle>
	<circle cx="37.49" cy="373.90" data-y="0.19" data-x="1583798400" r="1" fill="white"><title>2020-03-10: 0</title></circle>
	<circle cx="39.05" cy="373.35" data-y="0.28" data-x="1583884800" r="1" fill="white"><title>2020-03-11: 0</title></circle>
	<circle cx="40.61" cy="371.98" data-y="0.51" data-x="1583971200" r="1" fill="white"><title>2020-03-12: 1</title></circle>
	<circle cx="42.18" cy="370.33" data-y="0.79" data-x="1584057600" r="1" fill="white"><title>2020-03-13: 1</title></circle>
	<circle cx="43.74" cy="368.14" data-y="1.17" data-x="1584144000" r="1" fill="white"><title>2020-03-14: 1</title></circle>
	<circle cx="45.30" cy="364.85" data-y="1.73" data-x="1584230400" r="1" fill="white"><title>2020-03-15: 2</title></circle>
	<circle cx="46.86" cy="361.55" data-y="2.29" data-x="1584316800" r="1" fill="white"><title>2020-03-16: 2</title></circle>
	<circle cx="48.42" cy="361.00" data-y="2.38" data-x="1584403200" r="1" fill="white"><title>2020-03-17: 2</title></circle>
	<circle cx="49.98" cy="359.08" data-y="2.71" data-x="1584489600" r="1" fill="white"><title>2020-03-18: 3</title></circle>
	<circle cx="51.54" cy="357.16" data-y="3.04" data-x="1584576000" r="1" fill="white"><title>2020-03-19: 3</title></circle>
	<circle cx="53.11" cy="353.87" data-y="3.60" data-x="1584662400" r="1" fill="white"><title>2020-03-20: 4</title></circle>
	<circle cx="54.67" cy="353.05" data-y="3.74" data-x="1584748800" r="1" fill="white"><title>2020-03-21: 4</title></circle>
	<circle cx="56.23" cy="352.22" data-y="3.88" data-x="1584835200" r="1" fill="white"><title>2020-03-22: 4</title></circle>
	<circle cx="57.79" cy="351.40" data-y="4.02" data-x="1584921600" r="1" fill="white"><title>2020-03-23: 4</title></circle>
	<circle cx="59.35" cy="347.01" data-y="4.77" data-x="1585008000" r="1" fill="white"><title>2020-03-24: 5</title></circle>
	<circle cx="60.91" cy="345.64" data-y="5.00" data-x="1585094400" r="1" fill="white"><title>2020-03-25: 5</title></circle>
	<circle cx="62.47" cy="343.44" data-y="5.38" data-x="1585180800" r="1" fill="white"><title>2020-03-26: 5</title></circle>
	<circle cx="64.04" cy="341.52" data-y="5.70" data-x="1585267200" r="1" fill="white"><title>2020-03-27: 6</title></circle>
	<circle cx="65.60" cy="336.85" data-y="6.50" data-x="1585353600" r="1" fill="white"><title>2020-03-28: 6</title></circle>
	<circle cx="67.16" cy="334.93" data-y="6.83" data-x="1585440000" r="1" fill="white"><title>2020-03-29: 7</title></circle>
	<circle cx="68.72" cy="330.82" data-y="7.53" data-x="1585526400" r="1" fill="white"><title>2020-03-30: 8</title></circle>
	<circle cx="70.28" cy="330.82" data-y="7.53" data-x="1585612800" r="1" fill="white"><title>2020-03-31: 8</title></circle>
	<circle cx="71.84" cy="327.52" data-y="8.09" data-x="1585699200" r="1" fill="white"><title>2020-04-01: 8</title></circle>
	<circle cx="73.40" cy="326.70" data-y="8.23" data-x="1585785600" r="1" fill="white"><title>2020-04-02: 8</title></circle>
	<circle cx="74.96" cy="326.42" data-y="8.27" data-x="1585872000" r="1" fill="white"><title>2020-04-03: 8</title></circle>
	<circle cx="76.53" cy="319.29" data-y="9.49" data-x="1585958400" r="1" fill="white"><title>2020-04-04: 9</title></circle>
	<circle cx="78.09" cy="316.00" data-y="10.05" data-x="1586044800" r="1" fill="white"><title>2020-04-05: 10</title></circle>
	<circle cx="79.65" cy="315.17" data-y="10.19" data-x="1586131200" r="1" fill="white"><title>2020-04-06: 10</title></circle>
	<circle cx="81.21" cy="317.92" data-y="9.72" data-x="1586217600" r="1" fill="white"><title>2020-04-07: 10</title></circle>
	<circle cx="82.77" cy="321.48" data-y="9.12" data-x="1586304000" r="1" fill="white"><title>2020-04-08: 9</title></circle>
	<circle cx="84.33" cy="320.11" data-y="9.35" data-x="1586390400" r="1" fill="white"><title>2020-04-09: 9</title></circle>
	<circle cx="85.89" cy="321.48" data-y="9.12" data-x="1586476800" r="1" fill="white"><title>2020-04-10: 9</title></circle>
	<circle cx="87.46" cy="332.46" data-y="7.25" data-x="1586563200" r="1" fill="white"><title>2020-04-11: 7</title></circle>
	<circle cx="89.02" cy="338.50" data-y="6.22" data-x="1586649600" r="1" fill="white"><title>2020-04-12: 6</title></circle>
	<circle cx="90.58" cy="343.17" data-y="5.42" data-x="1586736000" r="1" fill="white"><title>2020-04-13: 5</title></circle>
	<circle cx="92.14" cy="340.70" data-y="5.84" data-x="1586822400" r="1" fill="white"><title>2020-04-14: 6</title></circle>
	<circle cx="93.70" cy="342.62" data-y="5.52" data-x="1586908800" r="1" fill="white"><title>2020-04-15: 6</title></circle>
	<circle cx="95.26" cy="348.11" data-y="4.58" data-x="1586995200" r="1" fill="white"><title>2020-04-16: 5</title></circle>
	<circle cx="96.82" cy="349.20" data-y="4.39" data-x="1587081600" r="1" fill="white"><title>2020-04-17: 4</title></circle>
	<circle cx="98.39" cy="348.93" data-y="4.44" data-x="1587168000" r="1" fill="white"><title>2020-04-18: 4</title></circle>
	<circle cx="99.95" cy="347.56" data-y="4.67" data-x="1587254400" r="1" fill="white"><title>2020-04-19: 5</title></circle>
	<circle cx="101.51" cy="348.11" data-y="4.58" data-x="1587340800" r="1" fill="white"><title>2020-04-20: 5</title></circle>
	<circle cx="103.07" cy="352.22" data-y="3.88" data-x="1587427200" r="1" fill="white"><title>2020-04-21: 4</title></circle>
	<circle cx="104.63" cy="351.40" data-y="4.02" data-x="1587513600" r="1" fill="white"><title>2020-04-22: 4</title></circle>
	<circle cx="106.19" cy="349.75" data-y="4.30" data-x="1587600000" r="1" fill="white"><title>2020-04-23: 4</title></circle>
	<circle cx="107.75" cy="347.28" data-y="4.72" data-x="1587686400" r="1" fill="white"><title>2020-04-24: 5</title></circle>
	<circle cx="109.32" cy="348.38" data-y="4.53" data-x="1587772800" r="1" fill="white"><title>2020-04-25: 5</title></circle>
	<circle cx="110.88" cy="349.75" data-y="4.30" data-x="1587859200" r="1" fill="white"><title>2020-04-26: 4</title></circle>
	<circle cx="112.44" cy="346.73" data-y="4.81" data-x="1587945600" r="1" fill="white"><title>2020-04-27: 5</title></circle>
	<circle cx="114.00" cy="345.64" data-y="5.00" data-x="1588032000" r="1" fill="white"><title>2020-04-28: 5</title></circle>
	<circle cx="115.56" cy="345.64" data-y="5.00" data-x="1588118400" r="1" fill="white"><title>2020-04-29: 5</title></circle>
	<circle cx="117.12" cy="347.01" data-y="4.77" data-x="1588204800" r="1" fill="white"><title>2020-04-30: 5</title></circle>
	<circle cx="118.68" cy="350.30" data-y="4.21" data-x="1588291200" r="1" fill="white"><title>2020-05-01: 4</title></circle>
	<circle cx="120.25" cy="346.46" data-y="4.86" data-x="1588377600" r="1" fill="white"><title>2020-05-02: 5</title></circle>
	<circle cx="121.81" cy="345.36" data-y="5.05" data-x="1588464000" r="1" fill="white"><title>2020-05-03: 5</title></circle>
	<circle cx="123.37" cy="346.46" data-y="4.86" data-x="1588550400" r="1" fill="white"><title>2020-05-04: 5</title></circle>
	<circle cx="124.93" cy="347.01" data-y="4.77" data-x="1588636800" r="1" fill="white"><title>2020-05-05: 5</title></circle>
	<circle cx="126.49" cy="348.65" data-y="4.49" data-x="1588723200" r="1" fill="white"><title>2020-05-06: 4</title></circle>
	<circle cx="128.05" cy="349.48" data-y="4.35" data-x="1588809600" r="1" fill="white"><title>2020-05-07: 4</title></circle>
	<circle cx="129.61" cy="352.50" data-y="3.83" data-x="1588896000" r="1" fill="white"><title>2020-05-08: 4</title></circle>
	<circle cx="131.18" cy="357.71" data-y="2.95" data-x="1588982400" r="1" fill="white"><title>2020-05-09: 3</title></circle>
	<circle cx="132.74" cy="360.73" data-y="2.43" data-x="1589068800" r="1" fill="white"><title>2020-05-10: 2</title></circle>
	<circle cx="134.30" cy="366.22" data-y="1.50" data-x="1589155200" r="1" fill="white"><title>2020-05-11: 1</title></circle>
	<circle cx="135.86" cy="367.32" data-y="1.31" data-x="1589241600" r="1" fill="white"><title>2020-05-12: 1</title></circle>
	<circle cx="137.42" cy="366.49" data-y="1.45" data-x="1589328000" r="1" fill="white"><title>2020-05-13: 1</title></circle>
	<circle cx="138.98" cy="367.04" data-y="1.36" data-x="1589414400" r="1" fill="white"><title>2020-05-14: 1</title></circle>
	<circle cx="140.54" cy="366.77" data-y="1.40" data-x="1589500800" r="1" fill="white"><title>2020-05-15: 1</title></circle>
	<circle cx="142.11" cy="366.22" data-y="1.50" data-x="1589587200" r="1" fill="white"><title>2020-05-16: 1</title></circle>
	<circle cx="143.67" cy="365.39" data-y="1.64" data-x="1589673600" r="1" fill="white"><title>2020-05-17: 2</title></circle>
	<circle cx="145.23" cy="365.67" data-y="1.59" data-x="1589760000" r="1" fill="white"><title>2020-05-18: 2</title></circle>
	<circle cx="146.79" cy="365.12" data-y="1.68" data-x="1589846400" r="1" fill="white"><title>2020-05-19: 2</title></circle>
	<circle cx="148.35" cy="366.49" data-y="1.45" data-x="1589932800" r="1" fill="white"><title>2020-05-20: 1</title></circle>
	<circle cx="149.91" cy="367.59" data-y="1.26" data-x="1590019200" r="1" fill="white"><title>2020-05-21: 1</title></circle>
	<circle cx="151.47" cy="368.14" data-y="1.17" data-x="1590105600" r="1" fill="white"><title>2020-05-22: 1</title></circle>
	<circle cx="153.04" cy="370.06" data-y="0.84" data-x="1590192000" r="1" fill="white"><title>2020-05-23: 1</title></circle>
	<circle cx="154.60" cy="371.43" data-y="0.61" data-x="1590278400" r="1" fill="white"><title>2020-05-24: 1</title></circle>
	<circle cx="156.16" cy="371.16" data-y="0.65" data-x="1590364800" r="1" fill="white"><title>2020-05-25: 1</title></circle>
	<circle cx="157.72" cy="372.53" data-y="0.42" data-x="1590451200" r="1" fill="white"><title>2020-05-26: 0</title></circle>
	<circle cx="159.28" cy="373.08" data-y="0.33" data-x="1590537600" r="1" fill="white"><title>2020-05-27: 0</title></circle>
	<circle cx="160.84" cy="372.26" data-y="0.47" data-x="1590624000" r="1" fill="white"><title>2020-05-28: 0</title></circle>
	<circle cx="162.40" cy="371.98" data-y="0.51" data-x="1590710400" r="1" fill="white"><title>2020-05-29: 1</title></circle>
	<circle cx="163.96" cy="371.71" data-y="0.56" data-x="1590796800" r="1" fill="white"><title>2020-05-30: 1</title></circle>
	<circle cx="165.53" cy="371.16" data-y="0.65" data-x="1590883200" r="1" fill="white"><title>2020-05-31: 1</title></circle>
	<circle cx="167.09" cy="369.79" data-y="0.89" data-x="1590969600" r="1" fill="white"><title>2020-06-01: 1</title></circle>
	<circle cx="168.65" cy="369.24" data-y="0.98" data-x="1591056000" r="1" fill="white"><title>2020-06-02: 1</title></circle>
	<circle cx="170.21" cy="367.86" data-y="1.22" data-x="1591142400" r="1" fill="white"><title>2020-06-03: 1</title></circle>
	<circle cx="171.77" cy="368.69" data-y="1.08" data-x="1591228800" r="1" fill="white"><title>2020-06-04: 1</title></circle>
	<circle cx="173.33" cy="368.69" data-y="1.08" data-x="1591315200" r="1" fill="white"><title>2020-06-05: 1</title></circle>
	<circle cx="174.89" cy="368.69" data-y="1.08" data-x="1591401600" r="1" fill="white"><title>2020-06-06: 1</title></circle>
	<circle cx="176.46" cy="368.41" data-y="1.12" data-x="1591488000" r="1" fill="white"><title>2020-06-07: 1</title></circle>
	<circle cx="178.02" cy="368.96" data-y="1.03" data-x="1591574400" r="1" fill="white"><title>2020-06-08: 1</title></circle>
	<circle cx="179.58" cy="367.59" data-y="1.26" data-x="1591660800" r="1" fill="white"><title>2020-06-09: 1</title></circle>
	<circle cx="181.14" cy="368.41" data-y="1.12" data-x="1591747200" r="1" fill="white"><title>2020-06-10: 1</title></circle>
	<circle cx="182.70" cy="367.04" data-y="1.36" data-x="1591833600" r="1" fill="white"><title>2020-06-11: 1</title></circle>
	<circle cx="184.26" cy="367.32" data-y="1.31" data-x="1591920000" r="1" fill="white"><title>2020-06-12: 1</title></circle>
	<circle cx="185.82" cy="367.59" data-y="1.26" data-x="1592006400" r="1" fill="white"><title>2020-06-13: 1</title></circle>
	<circle cx="187.39" cy="368.69" data-y="1.08" data-x="1592092800" r="1" fill="white"><title>2020-06-14: 1</title></circle>
	<circle cx="188.95" cy="369.24" data-y="0.98" data-x="1592179200" r="1" fill="white"><title>2020-06-15: 1</title></circle>
	<circle cx="190.51" cy="370.88" data-y="0.70" data-x="1592265600" r="1" fill="white"><title>2020-06-16: 1</title></circle>
	<circle cx="192.07" cy="371.16" data-y="0.65" data-x="1592352000" r="1" fill="white"><title>2020-06-17: 1</title></circle>
	<circle cx="193.63" cy="371.98" data-y="0.51" data-x="1592438400" r="1" fill="white"><title>2020-06-18: 1</title></circle>
	<circle cx="195.19" cy="372.26" data-y="0.47" data-x="1592524800" r="1" fill="white"><title>2020-06-19: 0</title></circle>
	<circle cx="196.75" cy="372.26" data-y="0.47" data-x="1592611200" r="1" fill="white"><title>2020-06-20: 0</title></circle>
	<circle cx="198.32" cy="372.80" data-y="0.37" data-x="1592697600" r="1" fill="white"><title>2020-06-21: 0</title></circle>
	<circle cx="199.88" cy="373.35" data-y="0.28" data-x="1592784000" r="1" fill="white"><title>2020-06-22: 0</title></circle>
	<circle cx="201.44" cy="373.35" data-y="0.28" data-x="1592870400" r="1" fill="white"><title>2020-06-23: 0</title></circle>
	<circle cx="203.00" cy="373.08" data-y="0.33" data-x="1592956800" r="1" fill="white"><title>2020-06-24: 0</title></circle>
	<circle cx="204.56" cy="373.35" data-y="0.28" data-x="1593043200" r="1" fill="white"><title>2020-06-25: 0</title></circle>
	<circle cx="206.12" cy="371.98" data-y="0.51" data-x="1593129600" r="1" fill="white"><title>2020-06-26: 1</title></circle>
	<circle cx="207.68" cy="370.88" data-y="0.70" data-x="1593216000" r="1" fill="white"><title>2020-06-27: 1</title></circle>
	<circle cx="209.25" cy="370.33" data-y="0.79" data-x="1593302400" r="1" fill="white"><title>2020-06-28: 1</title></circle>
	<circle cx="210.81" cy="370.06" data-y="0.84" data-x="1593388800" r="1" fill="white"><title>2020-06-29: 1</title></circle>
	<circle cx="212.37" cy="369.51" data-y="0.93" data-x="1593475200" r="1" fill="white"><title>2020-06-30: 1</title></circle>
	<circle cx="213.93" cy="369.79" data-y="0.89" data-x="1593561600" r="1" fill="white"><title>2020-07-01: 1</title></circle>
	<circle cx="215.49" cy="369.51" data-y="0.93" data-x="1593648000" r="1" fill="white"><title>2020-07-02: 1</title></circle>
	<circle cx="217.05" cy="370.88" data-y="0.70" data-x="1593734400" r="1" fill="white"><title>2020-07-03: 1</title></circle>
	<circle cx="218.61" cy="371.43" data-y="0.61" data-x="1593820800" r="1" fill="white"><title>2020-07-04: 1</title></circle>
	<circle cx="220.18" cy="371.71" data-y="0.56" data-x="1593907200" r="1" fill="white"><title>2020-07-05: 1</title></circle>
	<circle cx="221.74" cy="370.88" data-y="0.70" data-x="1593993600" r="1" fill="white"><title>2020-07-06: 1</title></circle>
	<circle cx="223.30" cy="371.16" data-y="0.65" data-x="1594080000" r="1" fill="white"><title>2020-07-07: 1</title></circle>
	<circle cx="224.86" cy="371.43" data-y="0.61" data-x="1594166400" r="1" fill="white"><title>2020-07-08: 1</title></circle>
	<circle cx="226.42" cy="371.98" data-y="0.51" data-x="1594252800" r="1" fill="white"><title>2020-07-09: 1</title></circle>
	<circle cx="227.98" cy="370.61" data-y="0.75" data-x="1594339200" r="1" fill="white"><title>2020-07-10: 1</title></circle>
	<circle cx="229.54" cy="371.16" data-y="0.65" data-x="1594425600" r="1" fill="white"><title>2020-07-11: 1</title></circle>
	<circle cx="231.11" cy="370.61" data-y="0.75" data-x="1594512000" r="1" fill="white"><title>2020-07-12: 1</title></circle>
	<circle cx="232.67" cy="370.88" data-y="0.70" data-x="1594598400" r="1" fill="white"><title>2020-07-13: 1</title></circle>
	<circle cx="234.23" cy="371.16" data-y="0.65" data-x="1594684800" r="1" fill="white"><title>2020-07-14: 1</title></circle>
	<circle cx="235.79" cy="370.06" data-y="0.84" data-x="1594771200" r="1" fill="white"><title>2020-07-15: 1</title></circle>
	<circle cx="237.35" cy="369.24" data-y="0.98" data-x="1594857600" r="1" fill="white"><title>2020-07-16: 1</title></circle>
	<circle cx="238.91" cy="370.61" data-y="0.75" data-x="1594944000" r="1" fill="white"><title>2020-07-17: 1</title></circle>
	<circle cx="240.47" cy="370.33" data-y="0.79" data-x="1595030400" r="1" fill="white"><title>2020-07-18: 1</title></circle>
	<circle cx="242.04" cy="370.88" data-y="0.70" data-x="1595116800" r="1" fill="white"><title>2020-07-19: 1</title></circle>
	<circle cx="243.60" cy="371.16" data-y="0.65" data-x="1595203200" r="1" fill="white"><title>2020-07-20: 1</title></circle>
	<circle cx="245.16" cy="370.88" data-y="0.70" data-x="1595289600" r="1" fill="white"><title>2020-07-21: 1</title></circle>
	<circle cx="246.72" cy="371.43" data-y="0.61" data-x="1595376000" r="1" fill="white"><title>2020-07-22: 1</title></circle>
	<circle cx="248.28" cy="371.16" data-y="0.65" data-x="1595462400" r="1" fill="white"><title>2020-07-23: 1</title></circle>
	<circle cx="249.84" cy="371.16" data-y="0.65" data-x="1595548800" r="1" fill="white"><title>2020-07-24: 1</title></circle>
	<circle cx="251.40" cy="370.61" data-y="0.75" data-x="1595635200" r="1" fill="white"><title>2020-07-25: 1</title></circle>
	<circle cx="252.96" cy="370.06" data-y="0.84" data-x="1595721600" r="1" fill="white"><title>2020-07-26: 1</title></circle>
	<circle cx="254.53" cy="369.24" data-y="0.98" data-x="1595808000" r="1" fill="white"><title>2020-07-27: 1</title></circle>
	<circle cx="256.09" cy="368.96" data-y="1.03" data-x="1595894400" r="1" fill="white"><title>2020-07-28: 1</title></circle>
	<circle cx="257.65" cy="369.24" data-y="0.98" data-x="1595980800" r="1" fill="white"><title>2020-07-29: 1</title></circle>
	<circle cx="259.21" cy="368.69" data-y="1.08" data-x="1596067200" r="1" fill="white"><title>2020-07-30: 1</title></circle>
	<circle cx="260.77" cy="368.69" data-y="1.08" data-x="1596153600" r="1" fill="white"><title>2020-07-31: 1</title></circle>
	<circle cx="262.33" cy="368.41" data-y="1.12" data-x="1596240000" r="1" fill="white"><title>2020-08-01: 1</title></circle>
	<circle cx="263.89" cy="368.41" data-y="1.12" data-x="1596326400" r="1" fill="white"><title>2020-08-02: 1</title></circle>
	<circle cx="265.46" cy="369.51" data-y="0.93" data-x="1596412800" r="1" fill="white"><title>2020-08-03: 1</title></circle>
	<circle cx="267.02" cy="366.22" data-y="1.50" data-x="1596499200" r="1" fill="white"><title>2020-08-04: 1</title></circle>
	<circle cx="268.58" cy="364.57" data-y="1.78" data-x="1596585600" r="1" fill="white"><title>2020-08-05: 2</title></circle>
	<circle cx="270.14" cy="364.57" data-y="1.78" data-x="1596672000" r="1" fill="white"><title>2020-08-06: 2</title></circle>
	<circle cx="271.70" cy="363.75" data-y="1.92" data-x="1596758400" r="1" fill="white"><title>2020-08-07: 2</title></circle>
	<circle cx="273.26" cy="364.02" data-y="1.87" data-x="1596844800" r="1" fill="white"><title>2020-08-08: 2</title></circle>
	<circle cx="274.82" cy="363.20" data-y="2.01" data-x="1596931200" r="1" fill="white"><title>2020-08-09: 2</title></circle>
	<circle cx="276.39" cy="363.20" data-y="2.01" data-x="1597017600" r="1" fill="white"><title>2020-08-10: 2</title></circle>
	<circle cx="277.95" cy="366.77" data-y="1.40" data-x="1597104000" r="1" fill="white"><title>2020-08-11: 1</title></circle>
	<circle cx="279.51" cy="366.77" data-y="1.40" data-x="1597190400" r="1" fill="white"><title>2020-08-12: 1</title></circle>
	<circle cx="281.07" cy="368.41" data-y="1.12" data-x="1597276800" r="1" fill="white"><title>2020-08-13: 1</title></circle>
	<circle cx="282.63" cy="368.41" data-y="1.12" data-x="1597363200" r="1" fill="white"><title>2020-08-14: 1</title></circle>
	<circle cx="284.19" cy="368.69" data-y="1.08" data-x="1597449600" r="1" fill="white"><title>2020-08-15: 1</title></circle>
	<circle cx="285.75" cy="369.79" data-y="0.89" data-x="1597536000" r="1" fill="white"><title>2020-08-16: 1</title></circle>
	<circle cx="287.32" cy="369.51" data-y="0.93" data-x="1597622400" r="1" fill="white"><title>2020-08-17: 1</title></circle>
	<circle cx="288.88" cy="368.41" data-y="1.12" data-x="1597708800" r="1" fill="white"><title>2020-08-18: 1</title></circle>
	<circle cx="290.44" cy="369.51" data-y="0.93" data-x="1597795200" r="1" fill="white"><title>2020-08-19: 1</title></circle>
	<circle cx="292.00" cy="368.69" data-y="1.08" data-x="1597881600" r="1" fill="white"><title>2020-08-20: 1</title></circle>
	<circle cx="293.56" cy="368.41" data-y="1.12" data-x="1597968000" r="1" fill="white"><title>2020-08-21: 1</title></circle>
	<circle cx="295.12" cy="368.41" data-y="1.12" data-x="1598054400" r="1" fill="white"><title>2020-08-22: 1</title></circle>
	<circle cx="296.68" cy="367.32" data-y="1.31" data-x="1598140800" r="1" fill="white"><title>2020-08-23: 1</title></circle>
	<circle cx="298.25" cy="365.39" data-y="1.64" data-x="1598227200" r="1" fill="white"><title>2020-08-24: 2</title></circle>
	<circle cx="299.81" cy="365.39" data-y="1.64" data-x="1598313600" r="1" fill="white"><title>2020-08-25: 2</title></circle>
	<circle cx="301.37" cy="365.39" data-y="1.64" data-x="1598400000" r="1" fill="white"><title>2020-08-26: 2</title></circle>
	<circle cx="302.93" cy="364.85" data-y="1.73" data-x="1598486400" r="1" fill="white"><title>2020-08-27: 2</title></circle>
	<circle cx="304.49" cy="362.65" data-y="2.10" data-x="1598572800" r="1" fill="white"><title>2020-08-28: 2</title></circle>
	<circle cx="306.05" cy="359.63" data-y="2.62" data-x="1598659200" r="1" fill="white"><title>2020-08-29: 3</title></circle>
	<circle cx="307.61" cy="356.34" data-y="3.18" data-x="1598745600" r="1" fill="white"><title>2020-08-30: 3</title></circle>
	<circle cx="309.18" cy="352.50" data-y="3.83" data-x="1598832000" r="1" fill="white"><title>2020-08-31: 4</title></circle>
	<circle cx="310.74" cy="348.93" data-y="4.44" data-x="1598918400" r="1" fill="white"><title>2020-09-01: 4</title></circle>
	<circle cx="312.30" cy="347.28" data-y="4.72" data-x="1599004800" r="1" fill="white"><title>2020-09-02: 5</title></circle>
	<circle cx="313.86" cy="345.09" data-y="5.10" data-x="1599091200" r="1" fill="white"><title>2020-09-03: 5</title></circle>
	<circle cx="315.42" cy="342.34" data-y="5.56" data-x="1599177600" r="1" fill="white"><title>2020-09-04: 6</title></circle>
	<circle cx="316.98" cy="342.89" data-y="5.47" data-x="1599264000" r="1" fill="white"><title>2020-09-05: 5</title></circle>
	<circle cx="318.54" cy="343.71" data-y="5.33" data-x="1599350400" r="1" fill="white"><title>2020-09-06: 5</title></circle>
	<circle cx="320.11" cy="345.36" data-y="5.05" data-x="1599436800" r="1" fill="white"><title>2020-09-07: 5</title></circle>
	<circle cx="321.67" cy="341.79" data-y="5.66" data-x="1599523200" r="1" fill="white"><title>2020-09-08: 6</title></circle>
	<circle cx="323.23" cy="342.34" data-y="5.56" data-x="1599609600" r="1" fill="white"><title>2020-09-09: 6</title></circle>
	<circle cx="324.79" cy="343.17" data-y="5.42" data-x="1599696000" r="1" fill="white"><title>2020-09-10: 5</title></circle>
	<circle cx="326.35" cy="343.17" data-y="5.42" data-x="1599782400" r="1" fill="white"><title>2020-09-11: 5</title></circle>
	<circle cx="327.91" cy="338.77" data-y="6.17" data-x="1599868800" r="1" fill="white"><title>2020-09-12: 6</title></circle>
	<circle cx="329.47" cy="339.05" data-y="6.12" data-x="1599955200" r="1" fill="white"><title>2020-09-13: 6</title></circle>
	<circle cx="331.04" cy="338.50" data-y="6.22" data-x="1600041600" r="1" fill="white"><title>2020-09-14: 6</title></circle>
	<circle cx="332.60" cy="337.95" data-y="6.31" data-x="1600128000" r="1" fill="white"><title>2020-09-15: 6</title></circle>
	<circle cx="334.16" cy="328.35" data-y="7.95" data-x="1600214400" r="1" fill="white"><title>2020-09-16: 8</title></circle>
	<circle cx="335.72" cy="324.50" data-y="8.60" data-x="1600300800" r="1" fill="white"><title>2020-09-17: 9</title></circle>
	<circle cx="337.28" cy="325.60" data-y="8.41" data-x="1600387200" r="1" fill="white"><title>2020-09-18: 8</title></circle>
	<circle cx="338.84" cy="326.15" data-y="8.32" data-x="1600473600" r="1" fill="white"><title>2020-09-19: 8</title></circle>
	<circle cx="340.40" cy="320.66" data-y="9.26" data-x="1600560000" r="1" fill="white"><title>2020-09-20: 9</title></circle>
	<circle cx="341.96" cy="310.51" data-y="10.99" data-x="1600646400" r="1" fill="white"><title>2020-09-21: 11</title></circle>
	<circle cx="343.53" cy="311.61" data-y="10.80" data-x="1600732800" r="1" fill="white"><title>2020-09-22: 11</title></circle>
	<circle cx="345.09" cy="315.17" data-y="10.19" data-x="1600819200" r="1" fill="white"><title>2020-09-23: 10</title></circle>
	<circle cx="346.65" cy="312.98" data-y="10.56" data-x="1600905600" r="1" fill="white"><title>2020-09-24: 11</title></circle>
	<circle cx="348.21" cy="308.31" data-y="11.36" data-x="1600992000" r="1" fill="white"><title>2020-09-25: 11</title></circle>
	<circle cx="349.77" cy="304.20" data-y="12.06" data-x="1601078400" r="1" fill="white"><title>2020-09-26: 12</title></circle>
	<circle cx="351.33" cy="298.71" data-y="13.00" data-x="1601164800" r="1" fill="white"><title>2020-09-27: 13</title></circle>
	<circle cx="352.89" cy="298.98" data-y="12.95" data-x="1601251200" r="1" fill="white"><title>2020-09-28: 13</title></circle>
	<circle cx="354.46" cy="293.49" data-y="13.88" data-x="1601337600" r="1" fill="white"><title>2020-09-29: 14</title></circle>
	<circle cx="356.02" cy="286.63" data-y="15.05" data-x="1601424000" r="1" fill="white"><title>2020-09-30: 15</title></circle>
	<circle cx="357.58" cy="284.16" data-y="15.47" data-x="1601510400" r="1" fill="white"><title>2020-10-01: 15</title></circle>
	<circle cx="359.14" cy="280.05" data-y="16.17" data-x="1601596800" r="1" fill="white"><title>2020-10-02: 16</title></circle>
	<circle cx="360.70" cy="275.65" data-y="16.92" data-x="1601683200" r="1" fill="white"><title>2020-10-03: 17</title></circle>
	<circle cx="362.26" cy="274.56" data-y="17.11" data-x="1601769600" r="1" fill="white"><title>2020-10-04: 17</title></circle>
	<circle cx="363.82" cy="269.34" data-y="18.00" data-x="1601856000" r="1" fill="white"><title>2020-10-05: 18</title></circle>
	<circle cx="365.39" cy="269.62" data-y="17.95" data-x="1601942400" r="1" fill="white"><title>2020-10-06: 18</title></circle>
	<circle cx="366.95" cy="277.30" data-y="16.64" data-x="1602028800" r="1" fill="white"><title>2020-10-07: 17</title></circle>
	<circle cx="368.51" cy="278.40" data-y="16.45" data-x="1602115200" r="1" fill="white"><title>2020-10-08: 16</title></circle>
	<circle cx="370.07" cy="266.32" data-y="18.51" data-x="1602201600" r="1" fill="white"><title>2020-10-09: 19</title></circle>
	<circle cx="371.63" cy="270.71" data-y="17.76" data-x="1602288000" r="1" fill="white"><title>2020-10-10: 18</title></circle>
	<circle cx="373.19" cy="270.99" data-y="17.72" data-x="1602374400" r="1" fill="white"><title>2020-10-11: 18</title></circle>
	<circle cx="374.75" cy="270.71" data-y="17.76" data-x="1602460800" r="1" fill="white"><title>2020-10-12: 18</title></circle>
	<circle cx="376.32" cy="270.71" data-y="17.76" data-x="1602547200" r="1" fill="white"><title>2020-10-13: 18</title></circle>
	<circle cx="377.88" cy="265.23" data-y="18.70" data-x="1602633600" r="1" fill="white"><title>2020-10-14: 19</title></circle>
	<circle cx="379.44" cy="261.93" data-y="19.26" data-x="1602720000" r="1" fill="white"><title>2020-10-15: 19</title></circle>
	<circle cx="381.00" cy="261.38" data-y="19.35" data-x="1602806400" r="1" fill="white"><title>2020-10-16: 19</title></circle>
	<circle cx="382.56" cy="244.37" data-y="22.25" data-x="1602892800" r="1" fill="white"><title>2020-10-17: 22</title></circle>
	<circle cx="384.12" cy="229.27" data-y="24.82" data-x="1602979200" r="1" fill="white"><title>2020-10-18: 25</title></circle>
	<circle cx="385.68" cy="229.00" data-y="24.87" data-x="1603065600" r="1" fill="white"><title>2020-10-19: 25</title></circle>
	<circle cx="387.25" cy="217.20" data-y="26.88" data-x="1603152000" r="1" fill="white"><title>2020-10-20: 27</title></circle>
	<circle cx="388.81" cy="216.10" data-y="27.07" data-x="1603238400" r="1" fill="white"><title>2020-10-21: 27</title></circle>
	<circle cx="390.37" cy="216.65" data-y="26.97" data-x="1603324800" r="1" fill="white"><title>2020-10-22: 27</title></circle>
	<circle cx="391.93" cy="214.73" data-y="27.30" data-x="1603411200" r="1" fill="white"><title>2020-10-23: 27</title></circle>
	<circle cx="393.49" cy="219.94" data-y="26.41" data-x="1603497600" r="1" fill="white"><title>2020-10-24: 26</title></circle>
	<circle cx="395.05" cy="230.10" data-y="24.68" data-x="1603584000" r="1" fill="white"><title>2020-10-25: 25</title></circle>
	<circle cx="396.61" cy="220.77" data-y="26.27" data-x="1603670400" r="1" fill="white"><title>2020-10-26: 26</title></circle>
	<circle cx="398.18" cy="217.75" data-y="26.79" data-x="1603756800" r="1" fill="white"><title>2020-10-27: 27</title></circle>
	<circle cx="399.74" cy="213.08" data-y="27.58" data-x="1603843200" r="1" fill="white"><title>2020-10-28: 28</title></circle>
	<circle cx="401.30" cy="206.77" data-y="28.66" data-x="1603929600" r="1" fill="white"><title>2020-10-29: 29</title></circle>
	<circle cx="402.86" cy="191.95" data-y="31.18" data-x="1604016000" r="1" fill="white"><title>2020-10-30: 31</title></circle>
	<circle cx="404.42" cy="186.46" data-y="32.11" data-x="1604102400" r="1" fill="white"><title>2020-10-31: 32</title></circle>
	<circle cx="405.98" cy="180.15" data-y="33.19" data-x="1604188800" r="1" fill="white"><title>2020-11-01: 33</title></circle>
	<circle cx="407.54" cy="185.36" data-y="32.30" data-x="1604275200" r="1" fill="white"><title>2020-11-02: 32</title></circle>
	<circle cx="409.11" cy="184.27" data-y="32.49" data-x="1604361600" r="1" fill="white"><title>2020-11-03: 32</title></circle>
	<circle cx="410.67" cy="179.88" data-y="33.24" data-x="1604448000" r="1" fill="white"><title>2020-11-04: 33</title></circle>
	<circle cx="412.23" cy="175.76" data-y="33.94" data-x="1604534400" r="1" fill="white"><title>2020-11-05: 34</title></circle>
	<circle cx="413.79" cy="184.27" data-y="32.49" data-x="1604620800" r="1" fill="white"><title>2020-11-06: 32</title></circle>
	<circle cx="415.35" cy="175.48" data-y="33.98" data-x="1604707200" r="1" fill="white"><title>2020-11-07: 34</title></circle>
	<circle cx="416.91" cy="167.25" data-y="35.39" data-x="1604793600" r="1" fill="white"><title>2020-11-08: 35</title></circle>
	<circle cx="418.47" cy="155.18" data-y="37.44" data-x="1604880000" r="1" fill="white"><title>2020-11-09: 37</title></circle>
	<circle cx="420.04" cy="144.20" data-y="39.31" data-x="1604966400" r="1" fill="white"><title>2020-11-10: 39</title></circle>
	<circle cx="421.60" cy="141.45" data-y="39.78" data-x="1605052800" r="1" fill="white"><title>2020-11-11: 40</title></circle>
	<circle cx="423.16" cy="138.71" data-y="40.25" data-x="1605139200" r="1" fill="white"><title>2020-11-12: 40</title></circle>
	<circle cx="424.72" cy="132.12" data-y="41.37" data-x="1605225600" r="1" fill="white"><title>2020-11-13: 41</title></circle>
	<circle cx="426.28" cy="130.75" data-y="41.60" data-x="1605312000" r="1" fill="white"><title>2020-11-14: 42</title></circle>
	<circle cx="427.84" cy="123.89" data-y="42.77" data-x="1605398400" r="1" fill="white"><title>2020-11-15: 43</title></circle>
	<circle cx="429.40" cy="123.62" data-y="42.82" data-x="1605484800" r="1" fill="white"><title>2020-11-16: 43</title></circle>
	<circle cx="430.96" cy="126.64" data-y="42.31" data-x="1605571200" r="1" fill="white"><title>2020-11-17: 42</title></circle>
	<circle cx="432.53" cy="126.09" data-y="42.40" data-x="1605657600" r="1" fill="white"><title>2020-11-18: 42</title></circle>
	<circle cx="434.09" cy="122.79" data-y="42.96" data-x="1605744000" r="1" fill="white"><title>2020-11-19: 43</title></circle>
	<circle cx="435.65" cy="123.34" data-y="42.87" data-x="1605830400" r="1" fill="white"><title>2020-11-20: 43</title></circle>
	<circle cx="437.21" cy="126.91" data-y="42.26" data-x="1605916800" r="1" fill="white"><title>2020-11-21: 42</title></circle>
	<circle cx="438.77" cy="126.64" data-y="42.31" data-x="1606003200" r="1" fill="white"><title>2020-11-22: 42</title></circle>
	<circle cx="440.33" cy="126.91" data-y="42.26" data-x="1606089600" r="1" fill="white"><title>2020-11-23: 42</title></circle>
	<circle cx="441.89" cy="121.15" data-y="43.24" data-x="1606176000" r="1" fill="white"><title>2020-11-24: 43</title></circle>
	<circle cx="443.46" cy="118.40" data-y="43.71" data-x="1606262400" r="1" fill="white"><title>2020-11-25: 44</title></circle>
	<circle cx="445.02" cy="116.76" data-y="43.99" data-x="1606348800" r="1" fill="white"><title>2020-11-26: 44</title></circle>
	<circle cx="446.58" cy="117.85" data-y="43.80" data-x="1606435200" r="1" fill="white"><title>2020-11-27: 44</title></circle>
	<circle cx="448.14" cy="121.97" data-y="43.10" data-x="1606521600" r="1" fill="white"><title>2020-11-28: 43</title></circle>
	<circle cx="449.70" cy="126.64" data-y="42.31" data-x="1606608000" r="1" fill="white"><title>2020-11-29: 42</title></circle>
	<circle cx="451.26" cy="128.28" data-y="42.03" data-x="1606694400" r="1" fill="white"><title>2020-11-30: 42</title></circle>
	<circle cx="452.82" cy="129.11" data-y="41.88" data-x="1606780800" r="1" fill="white"><title>2020-12-01: 42</title></circle>
	<circle cx="454.39" cy="122.24" data-y="43.05" data-x="1606867200" r="1" fill="white"><title>2020-12-02: 43</title></circle>
	<circle cx="455.95" cy="112.64" data-y="44.69" data-x="1606953600" r="1" fill="white"><title>2020-12-03: 45</title></circle>
	<circle cx="457.51" cy="93.98" data-y="47.87" data-x="1607040000" r="1" fill="white"><title>2020-12-04: 48</title></circle>
	<circle cx="459.07" cy="70.65" data-y="51.84" data-x="1607126400" r="1" fill="white"><title>2020-12-05: 52</title></circle>
	<circle cx="460.63" cy="41.56" data-y="56.80" data-x="1607212800" r="1" fill="white"><title>2020-12-06: 57</title></circle>
	<circle cx="462.19" cy="10.00" data-y="62.17" data-x="1607299200" r="1" fill="white"><title>2020-12-07: 62</title></circle>
</g>
<g data-series="recent-cases" class="data-series">
	<path d="M 462.19,10.00L 463.75,14.12L 465.32,48.97L 466.88,42.02L 468.44,57.26L 470.00,72.91" id="Recent cases" class="line" stroke-width="1" stroke-linecap="round" stroke-dasharray="4,6" stroke-dashoffset="4"><title>Recent cases</title></path>
	<circle cx="462.19" cy="10.00" data-y="62.17" data-x="1607299200" r="2.5" fill="white"><title>2020-12-07: 62</title></circle>
	<circle cx="463.75" cy="14.12" data-y="61.47" data-x="1607385600" r="2.5" fill="white"><title>2020-12-08: 61</title></circle>
	<circle cx="465.32" cy="48.97" data-y="55.53" data-x="1607472000" r="2.5" fill="white"><title>2020-12-09: 56</title></circle>
	<circle cx="466.88" cy="42.02" data-y="56.72" data-x="1607558400" r="2.5" fill="white"><title>2020-12-10: 57</title></circle>
	<circle cx="468.44" cy="57.26" data-y="54.12" data-x="1607644800" r="2.5" fill="white"><title>2020-12-11: 54</title></circle>
	<circle cx="470.00" cy="72.91" data-y="51.46" data-x="1607731200" r="2.5" fill="white"><title>2020-12-12: 51</title></circle>
</g>
</svg>
