<svg width="480" height="400" viewBox="0 0 480 400" xmlns="http://www.w3.org/2000/svg" style="overflow:display" preserveAspectRatio="xMinYMin meet" overflow="visible">
<defs>
	<style>
	.data-series path.line { fill-opacity: 0; stroke: black; }
	.data-series path.line.dotted { stroke-dasharray: 12 20 }
	.data-series:hover path.line, .data-series.on path.line { stroke-width: 1; }
	.data-series:hover circle, .data-series.on circle { display: inline; }
	.graph-grid { font-family: "Helvetica Neue",Helvetica,Arial,"Lucida Grande",sans-serif; }
	.graph-grid line { stroke: black; stroke-width: 1; stroke-linecap: round; }
	.graph-grid.graph-grid-x text { text-anchor: middle; dominant-baseline: hanging; transform: translateY(10px); }
	.graph-grid.graph-grid-y text { text-anchor: end; dominant-baseline: middle; transform: translateX(-10px); }
	</style>
</defs>
<g class="graph-grid graph-grid-y">
	<line x1="25.00" y1="375.00" x2="470.00" y2="375.00" data-left="25"></line>
	<text x="35" y="375" text-anchor="end">0</text>
	<text x="35" y="230.575111587015" text-anchor="end">50</text>
	<text x="35" y="86.1502231740306" text-anchor="end">100</text>
	<text style="text-anchor:middle;dominant-baseline:hanging;font-weight:bold;transform: translateY(192.5px) rotate(-90deg);"></text>
</g>
<g class="graph-grid graph-grid-x">
	<line class="tick" x1="67.45" y1="375.00" x2="67.45" y2="380.00"></line>
	<text x="67.4506578947368" y="375" text-anchor="middle">A</text>
	<line class="tick" x1="111.37" y1="375.00" x2="111.37" y2="380.00"></line>
	<text x="111.365131578947" y="375" text-anchor="middle">M</text>
	<line class="tick" x1="156.74" y1="375.00" x2="156.74" y2="380.00"></line>
	<text x="156.743421052632" y="375" text-anchor="middle">J</text>
	<line class="tick" x1="200.66" y1="375.00" x2="200.66" y2="380.00"></line>
	<text x="200.657894736842" y="375" text-anchor="middle">J</text>
	<line class="tick" x1="246.04" y1="375.00" x2="246.04" y2="380.00"></line>
	<text x="246.036184210526" y="375" text-anchor="middle">A</text>
	<line class="tick" x1="291.41" y1="375.00" x2="291.41" y2="380.00"></line>
	<text x="291.414473684211" y="375" text-anchor="middle">S</text>
	<line class="tick" x1="335.33" y1="375.00" x2="335.33" y2="380.00"></line>
	<text x="335.328947368421" y="375" text-anchor="middle">O</text>
	<line class="tick" x1="380.71" y1="375.00" x2="380.71" y2="380.00"></line>
	<text x="380.707236842105" y="375" text-anchor="middle">N</text>
	<line class="tick" x1="424.62" y1="375.00" x2="424.62" y2="380.00"></line>
	<text x="424.621710526316" y="375" text-anchor="middle">D</text>
	<line class="tick" x1="470.00" y1="375.00" x2="470.00" y2="380.00"></line>
	<text x="470" y="375" text-anchor="middle">J</text>
	<text style="text-anchor:middle;dominant-baseline:hanging;font-weight:bold;transform: translateY(192.5px) rotate(-90deg);"></text>
</g>
<g data-series="widespread" class="data-series">
	<path d="M 25.00,354.78L 470.00,354.78" id="E09000015-level-0" class="line" stroke-width="1" stroke-linecap="round" stroke-dasharray="3,3" fill-opacity="0.3" opacity="0.3"><title>Widespread</title></path>
</g>
<g data-series="substantial" class="data-series">
	<path d="M 25.00,363.45L 470.00,363.45" id="E09000015-level-1" class="line" stroke-width="1" stroke-linecap="round" stroke-dasharray="3,3" fill-opacity="0.3" opacity="0.3"><title>Substantial</title></path>
</g>
<g data-series="moderate" class="data-series">
	<path d="M 25.00,372.11L 470.00,372.11" id="E09000015-level-2" class="line" stroke-width="1" stroke-linecap="round" stroke-dasharray="3,3" fill-opacity="0.3" opacity="0.3"><title>Moderate</title></path>
</g>
<g data-series="new-cases" class="data-series">
	<path d="M 25.00,374.71L 26.46,374.77L 27.93,374.81L 29.39,374.01L 30.86,374.01L 32.32,373.19L 33.78,372.04L 35.25,371.38L 36.71,369.90L 38.17,368.91L 39.64,367.76L 41.10,365.62L 42.57,362.66L 44.03,362.00L 45.49,360.35L 46.96,358.87L 48.42,357.39L 49.88,356.24L 51.35,354.43L 52.81,353.44L 54.28,350.48L 55.74,346.20L 57.20,344.72L 58.67,343.57L 60.13,342.25L 61.60,341.92L 63.06,342.91L 64.52,342.58L 65.99,345.38L 67.45,345.54L 68.91,344.89L 70.38,345.05L 71.84,344.72L 73.31,344.23L 74.77,344.39L 76.23,343.73L 77.70,345.54L 79.16,347.35L 80.62,347.85L 82.09,349.82L 83.55,351.30L 85.02,352.45L 86.48,352.45L 87.94,352.45L 89.41,350.64L 90.87,351.63L 92.34,349.82L 93.80,349.33L 95.26,350.15L 96.73,352.13L 98.19,351.47L 99.65,353.44L 101.12,352.45L 102.58,354.76L 104.05,353.11L 105.51,353.44L 106.97,354.27L 108.44,356.24L 109.90,357.39L 111.37,357.89L 112.83,358.21L 114.29,361.01L 115.76,360.85L 117.22,361.01L 118.68,361.01L 120.15,362.16L 121.61,364.96L 123.08,365.78L 124.54,367.43L 126.00,368.75L 127.47,369.40L 128.93,370.56L 130.39,369.90L 131.86,369.57L 133.32,370.06L 134.79,369.73L 136.25,370.56L 137.71,371.05L 139.18,370.89L 140.64,371.54L 142.11,372.37L 143.57,372.70L 145.03,372.86L 146.50,372.86L 147.96,373.03L 149.42,372.53L 150.89,372.53L 152.35,372.37L 153.82,371.87L 155.28,372.20L 156.74,372.53L 158.21,372.53L 159.67,372.70L 161.13,372.37L 162.60,371.54L 164.06,371.71L 165.53,371.71L 166.99,371.71L 168.45,371.71L 169.92,372.20L 171.38,372.53L 172.85,373.52L 174.31,374.01L 175.77,374.34L 177.24,374.51L 178.70,374.51L 180.16,374.34L 181.63,374.34L 183.09,374.01L 184.56,374.18L 186.02,374.01L 187.48,374.01L 188.95,374.18L 190.41,373.85L 191.88,373.68L 193.34,373.85L 194.80,373.68L 196.27,373.85L 197.73,373.68L 199.19,373.68L 200.66,373.68L 202.12,373.68L 203.59,373.52L 205.05,373.35L 206.51,372.86L 207.98,372.86L 209.44,372.53L 210.90,372.86L 212.37,372.86L 213.83,373.03L 215.30,372.86L 216.76,373.03L 218.22,373.35L 219.69,373.68L 221.15,373.85L 222.62,374.01L 224.08,373.52L 225.54,373.35L 227.01,373.68L 228.47,373.52L 229.93,373.35L 231.40,373.19L 232.86,372.86L 234.33,372.70L 235.79,372.53L 237.25,372.20L 238.72,372.04L 240.18,371.71L 241.64,371.71L 243.11,371.71L 244.57,372.53L 246.04,372.70L 247.50,372.70L 248.96,372.70L 250.43,372.04L 251.89,372.20L 253.36,372.53L 254.82,371.71L 256.28,372.04L 257.75,371.71L 259.21,371.22L 260.67,371.87L 262.14,371.22L 263.60,371.05L 265.07,370.56L 266.53,369.90L 267.99,370.39L 269.46,369.73L 270.92,369.08L 272.38,369.24L 273.85,368.75L 275.31,368.58L 276.78,367.10L 278.24,366.44L 279.70,367.27L 281.17,367.59L 282.63,366.77L 284.10,365.95L 285.56,366.77L 287.02,368.09L 288.49,365.78L 289.95,364.30L 291.41,363.97L 292.88,363.65L 294.34,364.30L 295.81,361.83L 297.27,361.18L 298.73,362.16L 300.20,363.32L 301.66,363.48L 303.12,364.47L 304.59,364.80L 306.05,365.62L 307.52,366.61L 308.98,367.43L 310.44,366.28L 311.91,365.78L 313.37,364.63L 314.84,363.32L 316.30,364.30L 317.76,361.83L 319.23,360.35L 320.69,359.04L 322.15,358.54L 323.62,358.05L 325.08,357.39L 326.55,354.10L 328.01,353.61L 329.47,351.96L 330.94,349.99L 332.40,346.04L 333.87,343.57L 335.33,341.59L 336.79,338.14L 338.26,337.48L 339.72,333.53L 341.18,332.38L 342.65,331.06L 344.11,332.38L 345.58,333.53L 347.04,334.35L 348.50,327.28L 349.97,329.91L 351.43,330.40L 352.89,329.75L 354.36,327.77L 355.82,325.80L 357.29,323.49L 358.75,324.97L 360.21,321.02L 361.68,319.54L 363.14,318.06L 364.61,316.42L 366.07,315.10L 367.53,316.09L 369.00,317.07L 370.46,316.09L 371.92,315.76L 373.39,316.91L 374.85,316.74L 376.32,318.39L 377.78,311.15L 379.24,312.14L 380.71,313.62L 382.17,311.48L 383.63,311.31L 385.10,310.99L 386.56,306.87L 388.03,309.67L 389.49,302.10L 390.95,298.97L 392.42,297.16L 393.88,292.55L 395.35,291.40L 396.81,293.05L 398.27,293.21L 399.74,293.38L 401.20,295.35L 402.66,297.82L 404.13,300.45L 405.59,303.09L 407.06,304.24L 408.52,305.55L 409.98,313.45L 411.45,317.57L 412.91,318.72L 414.38,320.20L 415.84,318.39L 417.30,314.28L 418.77,313.29L 420.23,308.68L 421.69,300.95L 423.16,293.71L 424.62,286.47L 426.09,284.49L 427.55,283.34L 429.01,279.39L 430.48,273.30L 431.94,269.68L 433.40,262.93L 434.87,249.27L 436.33,237.59L 437.80,219.82L 439.26,200.23L 440.72,182.46L 442.19,164.85L 443.65,142.47L 445.12,135.56L 446.58,126.84L 448.04,118.94L 449.51,102.81L 450.97,82.41L 452.43,67.60L 453.90,59.70L 455.36,73.36L 456.83,44.72L 458.29,19.54L 459.75,25.47L 461.22,10.82L 462.68,10.00" id="New cases" class="line" stroke-width="1" stroke-linecap="round"><title>New cases</title></path>
	<circle cx="25.00" cy="374.71" data-y="0.10" data-x="1583193600" r="1" fill="white"><title>2020-03-03: 0</title></circle>
	<circle cx="26.46" cy="374.77" data-y="0.08" data-x="1583280000" r="1" fill="white"><title>2020-03-04: 0</title></circle>
	<circle cx="27.93" cy="374.81" data-y="0.07" data-x="1583366400" r="1" fill="white"><title>2020-03-05: 0</title></circle>
	<circle cx="29.39" cy="374.01" data-y="0.34" data-x="1583452800" r="1" fill="white"><title>2020-03-06: 0</title></circle>
	<circle cx="30.86" cy="374.01" data-y="0.34" data-x="1583539200" r="1" fill="white"><title>2020-03-07: 0</title></circle>
	<circle cx="32.32" cy="373.19" data-y="0.63" data-x="1583625600" r="1" fill="white"><title>2020-03-08: 1</title></circle>
	<circle cx="33.78" cy="372.04" data-y="1.03" data-x="1583712000" r="1" fill="white"><title>2020-03-09: 1</title></circle>
	<circle cx="35.25" cy="371.38" data-y="1.25" data-x="1583798400" r="1" fill="white"><title>2020-03-10: 1</title></circle>
	<circle cx="36.71" cy="369.90" data-y="1.77" data-x="1583884800" r="1" fill="white"><title>2020-03-11: 2</title></circle>
	<circle cx="38.17" cy="368.91" data-y="2.11" data-x="1583971200" r="1" fill="white"><title>2020-03-12: 2</title></circle>
	<circle cx="39.64" cy="367.76" data-y="2.51" data-x="1584057600" r="1" fill="white"><title>2020-03-13: 3</title></circle>
	<circle cx="41.10" cy="365.62" data-y="3.25" data-x="1584144000" r="1" fill="white"><title>2020-03-14: 3</title></circle>
	<circle cx="42.57" cy="362.66" data-y="4.27" data-x="1584230400" r="1" fill="white"><title>2020-03-15: 4</title></circle>
	<circle cx="44.03" cy="362.00" data-y="4.50" data-x="1584316800" r="1" fill="white"><title>2020-03-16: 5</title></circle>
	<circle cx="45.49" cy="360.35" data-y="5.07" data-x="1584403200" r="1" fill="white"><title>2020-03-17: 5</title></circle>
	<circle cx="46.96" cy="358.87" data-y="5.58" data-x="1584489600" r="1" fill="white"><title>2020-03-18: 6</title></circle>
	<circle cx="48.42" cy="357.39" data-y="6.10" data-x="1584576000" r="1" fill="white"><title>2020-03-19: 6</title></circle>
	<circle cx="49.88" cy="356.24" data-y="6.49" data-x="1584662400" r="1" fill="white"><title>2020-03-20: 6</title></circle>
	<circle cx="51.35" cy="354.43" data-y="7.12" data-x="1584748800" r="1" fill="white"><title>2020-03-21: 7</title></circle>
	<circle cx="52.81" cy="353.44" data-y="7.46" data-x="1584835200" r="1" fill="white"><title>2020-03-22: 7</title></circle>
	<circle cx="54.28" cy="350.48" data-y="8.49" data-x="1584921600" r="1" fill="white"><title>2020-03-23: 8</title></circle>
	<circle cx="55.74" cy="346.20" data-y="9.97" data-x="1585008000" r="1" fill="white"><title>2020-03-24: 10</title></circle>
	<circle cx="57.20" cy="344.72" data-y="10.48" data-x="1585094400" r="1" fill="white"><title>2020-03-25: 10</title></circle>
	<circle cx="58.67" cy="343.57" data-y="10.88" data-x="1585180800" r="1" fill="white"><title>2020-03-26: 11</title></circle>
	<circle cx="60.13" cy="342.25" data-y="11.34" data-x="1585267200" r="1" fill="white"><title>2020-03-27: 11</title></circle>
	<circle cx="61.60" cy="341.92" data-y="11.45" data-x="1585353600" r="1" fill="white"><title>2020-03-28: 11</title></circle>
	<circle cx="63.06" cy="342.91" data-y="11.11" data-x="1585440000" r="1" fill="white"><title>2020-03-29: 11</title></circle>
	<circle cx="64.52" cy="342.58" data-y="11.22" data-x="1585526400" r="1" fill="white"><title>2020-03-30: 11</title></circle>
	<circle cx="65.99" cy="345.38" data-y="10.25" data-x="1585612800" r="1" fill="white"><title>2020-03-31: 10</title></circle>
	<circle cx="67.45" cy="345.54" data-y="10.20" data-x="1585699200" r="1" fill="white"><title>2020-04-01: 10</title></circle>
	<circle cx="68.91" cy="344.89" data-y="10.43" data-x="1585785600" r="1" fill="white"><title>2020-04-02: 10</title></circle>
	<circle cx="70.38" cy="345.05" data-y="10.37" data-x="1585872000" r="1" fill="white"><title>2020-04-03: 10</title></circle>
	<circle cx="71.84" cy="344.72" data-y="10.48" data-x="1585958400" r="1" fill="white"><title>2020-04-04: 10</title></circle>
	<circle cx="73.31" cy="344.23" data-y="10.65" data-x="1586044800" r="1" fill="white"><title>2020-04-05: 11</title></circle>
	<circle cx="74.77" cy="344.39" data-y="10.60" data-x="1586131200" r="1" fill="white"><title>2020-04-06: 11</title></circle>
	<circle cx="76.23" cy="343.73" data-y="10.82" data-x="1586217600" r="1" fill="white"><title>2020-04-07: 11</title></circle>
	<circle cx="77.70" cy="345.54" data-y="10.20" data-x="1586304000" r="1" fill="white"><title>2020-04-08: 10</title></circle>
	<circle cx="79.16" cy="347.35" data-y="9.57" data-x="1586390400" r="1" fill="white"><title>2020-04-09: 10</title></circle>
	<circle cx="80.62" cy="347.85" data-y="9.40" data-x="1586476800" r="1" fill="white"><title>2020-04-10: 9</title></circle>
	<circle cx="82.09" cy="349.82" data-y="8.72" data-x="1586563200" r="1" fill="white"><title>2020-04-11: 9</title></circle>
	<circle cx="83.55" cy="351.30" data-y="8.20" data-x="1586649600" r="1" fill="white"><title>2020-04-12: 8</title></circle>
	<circle cx="85.02" cy="352.45" data-y="7.81" data-x="1586736000" r="1" fill="white"><title>2020-04-13: 8</title></circle>
	<circle cx="86.48" cy="352.45" data-y="7.81" data-x="1586822400" r="1" fill="white"><title>2020-04-14: 8</title></circle>
	<circle cx="87.94" cy="352.45" data-y="7.81" data-x="1586908800" r="1" fill="white"><title>2020-04-15: 8</title></circle>
	<circle cx="89.41" cy="350.64" data-y="8.43" data-x="1586995200" r="1" fill="white"><title>2020-04-16: 8</title></circle>
	<circle cx="90.87" cy="351.63" data-y="8.09" data-x="1587081600" r="1" fill="white"><title>2020-04-17: 8</title></circle>
	<circle cx="92.34" cy="349.82" data-y="8.72" data-x="1587168000" r="1" fill="white"><title>2020-04-18: 9</title></circle>
	<circle cx="93.80" cy="349.33" data-y="8.89" data-x="1587254400" r="1" fill="white"><title>2020-04-19: 9</title></circle>
	<circle cx="95.26" cy="350.15" data-y="8.60" data-x="1587340800" r="1" fill="white"><title>2020-04-20: 9</title></circle>
	<circle cx="96.73" cy="352.13" data-y="7.92" data-x="1587427200" r="1" fill="white"><title>2020-04-21: 8</title></circle>
	<circle cx="98.19" cy="351.47" data-y="8.15" data-x="1587513600" r="1" fill="white"><title>2020-04-22: 8</title></circle>
	<circle cx="99.65" cy="353.44" data-y="7.46" data-x="1587600000" r="1" fill="white"><title>2020-04-23: 7</title></circle>
	<circle cx="101.12" cy="352.45" data-y="7.81" data-x="1587686400" r="1" fill="white"><title>2020-04-24: 8</title></circle>
	<circle cx="102.58" cy="354.76" data-y="7.01" data-x="1587772800" r="1" fill="white"><title>2020-04-25: 7</title></circle>
	<circle cx="104.05" cy="353.11" data-y="7.58" data-x="1587859200" r="1" fill="white"><title>2020-04-26: 8</title></circle>
	<circle cx="105.51" cy="353.44" data-y="7.46" data-x="1587945600" r="1" fill="white"><title>2020-04-27: 7</title></circle>
	<circle cx="106.97" cy="354.27" data-y="7.18" data-x="1588032000" r="1" fill="white"><title>2020-04-28: 7</title></circle>
	<circle cx="108.44" cy="356.24" data-y="6.49" data-x="1588118400" r="1" fill="white"><title>2020-04-29: 6</title></circle>
	<circle cx="109.90" cy="357.39" data-y="6.10" data-x="1588204800" r="1" fill="white"><title>2020-04-30: 6</title></circle>
	<circle cx="111.37" cy="357.89" data-y="5.93" data-x="1588291200" r="1" fill="white"><title>2020-05-01: 6</title></circle>
	<circle cx="112.83" cy="358.21" data-y="5.81" data-x="1588377600" r="1" fill="white"><title>2020-05-02: 6</title></circle>
	<circle cx="114.29" cy="361.01" data-y="4.84" data-x="1588464000" r="1" fill="white"><title>2020-05-03: 5</title></circle>
	<circle cx="115.76" cy="360.85" data-y="4.90" data-x="1588550400" r="1" fill="white"><title>2020-05-04: 5</title></circle>
	<circle cx="117.22" cy="361.01" data-y="4.84" data-x="1588636800" r="1" fill="white"><title>2020-05-05: 5</title></circle>
	<circle cx="118.68" cy="361.01" data-y="4.84" data-x="1588723200" r="1" fill="white"><title>2020-05-06: 5</title></circle>
	<circle cx="120.15" cy="362.16" data-y="4.44" data-x="1588809600" r="1" fill="white"><title>2020-05-07: 4</title></circle>
	<circle cx="121.61" cy="364.96" data-y="3.48" data-x="1588896000" r="1" fill="white"><title>2020-05-08: 3</title></circle>
	<circle cx="123.08" cy="365.78" data-y="3.19" data-x="1588982400" r="1" fill="white"><title>2020-05-09: 3</title></circle>
	<circle cx="124.54" cy="367.43" data-y="2.62" data-x="1589068800" r="1" fill="white"><title>2020-05-10: 3</title></circle>
	<circle cx="126.00" cy="368.75" data-y="2.16" data-x="1589155200" r="1" fill="white"><title>2020-05-11: 2</title></circle>
	<circle cx="127.47" cy="369.40" data-y="1.94" data-x="1589241600" r="1" fill="white"><title>2020-05-12: 2</title></circle>
	<circle cx="128.93" cy="370.56" data-y="1.54" data-x="1589328000" r="1" fill="white"><title>2020-05-13: 2</title></circle>
	<circle cx="130.39" cy="369.90" data-y="1.77" data-x="1589414400" r="1" fill="white"><title>2020-05-14: 2</title></circle>
	<circle cx="131.86" cy="369.57" data-y="1.88" data-x="1589500800" r="1" fill="white"><title>2020-05-15: 2</title></circle>
	<circle cx="133.32" cy="370.06" data-y="1.71" data-x="1589587200" r="1" fill="white"><title>2020-05-16: 2</title></circle>
	<circle cx="134.79" cy="369.73" data-y="1.82" data-x="1589673600" r="1" fill="white"><title>2020-05-17: 2</title></circle>
	<circle cx="136.25" cy="370.56" data-y="1.54" data-x="1589760000" r="1" fill="white"><title>2020-05-18: 2</title></circle>
	<circle cx="137.71" cy="371.05" data-y="1.37" data-x="1589846400" r="1" fill="white"><title>2020-05-19: 1</title></circle>
	<circle cx="139.18" cy="370.89" data-y="1.42" data-x="1589932800" r="1" fill="white"><title>2020-05-20: 1</title></circle>
	<circle cx="140.64" cy="371.54" data-y="1.20" data-x="1590019200" r="1" fill="white"><title>2020-05-21: 1</title></circle>
	<circle cx="142.11" cy="372.37" data-y="0.91" data-x="1590105600" r="1" fill="white"><title>2020-05-22: 1</title></circle>
	<circle cx="143.57" cy="372.70" data-y="0.80" data-x="1590192000" r="1" fill="white"><title>2020-05-23: 1</title></circle>
	<circle cx="145.03" cy="372.86" data-y="0.74" data-x="1590278400" r="1" fill="white"><title>2020-05-24: 1</title></circle>
	<circle cx="146.50" cy="372.86" data-y="0.74" data-x="1590364800" r="1" fill="white"><title>2020-05-25: 1</title></circle>
	<circle cx="147.96" cy="373.03" data-y="0.68" data-x="1590451200" r="1" fill="white"><title>2020-05-26: 1</title></circle>
	<circle cx="149.42" cy="372.53" data-y="0.85" data-x="1590537600" r="1" fill="white"><title>2020-05-27: 1</title></circle>
	<circle cx="150.89" cy="372.53" data-y="0.85" data-x="1590624000" r="1" fill="white"><title>2020-05-28: 1</title></circle>
	<circle cx="152.35" cy="372.37" data-y="0.91" data-x="1590710400" r="1" fill="white"><title>2020-05-29: 1</title></circle>
	<circle cx="153.82" cy="371.87" data-y="1.08" data-x="1590796800" r="1" fill="white"><title>2020-05-30: 1</title></circle>
	<circle cx="155.28" cy="372.20" data-y="0.97" data-x="1590883200" r="1" fill="white"><title>2020-05-31: 1</title></circle>
	<circle cx="156.74" cy="372.53" data-y="0.85" data-x="1590969600" r="1" fill="white"><title>2020-06-01: 1</title></circle>
	<circle cx="158.21" cy="372.53" data-y="0.85" data-x="1591056000" r="1" fill="white"><title>2020-06-02: 1</title></circle>
	<circle cx="159.67" cy="372.70" data-y="0.80" data-x="1591142400" r="1" fill="white"><title>2020-06-03: 1</title></circle>
	<circle cx="161.13" cy="372.37" data-y="0.91" data-x="1591228800" r="1" fill="white"><title>2020-06-04: 1</title></circle>
	<circle cx="162.60" cy="371.54" data-y="1.20" data-x="1591315200" r="1" fill="white"><title>2020-06-05: 1</title></circle>
	<circle cx="164.06" cy="371.71" data-y="1.14" data-x="1591401600" r="1" fill="white"><title>2020-06-06: 1</title></circle>
	<circle cx="165.53" cy="371.71" data-y="1.14" data-x="1591488000" r="1" fill="white"><title>2020-06-07: 1</title></circle>
	<circle cx="166.99" cy="371.71" data-y="1.14" data-x="1591574400" r="1" fill="white"><title>2020-06-08: 1</title></circle>
	<circle cx="168.45" cy="371.71" data-y="1.14" data-x="1591660800" r="1" fill="white"><title>2020-06-09: 1</title></circle>
	<circle cx="169.92" cy="372.20" data-y="0.97" data-x="1591747200" r="1" fill="white"><title>2020-06-10: 1</title></circle>
	<circle cx="171.38" cy="372.53" data-y="0.85" data-x="1591833600" r="1" fill="white"><title>2020-06-11: 1</title></circle>
	<circle cx="172.85" cy="373.52" data-y="0.51" data-x="1591920000" r="1" fill="white"><title>2020-06-12: 1</title></circle>
	<circle cx="174.31" cy="374.01" data-y="0.34" data-x="1592006400" r="1" fill="white"><title>2020-06-13: 0</title></circle>
	<circle cx="175.77" cy="374.34" data-y="0.23" data-x="1592092800" r="1" fill="white"><title>2020-06-14: 0</title></circle>
	<circle cx="177.24" cy="374.51" data-y="0.17" data-x="1592179200" r="1" fill="white"><title>2020-06-15: 0</title></circle>
	<circle cx="178.70" cy="374.51" data-y="0.17" data-x="1592265600" r="1" fill="white"><title>2020-06-16: 0</title></circle>
	<circle cx="180.16" cy="374.34" data-y="0.23" data-x="1592352000" r="1" fill="white"><title>2020-06-17: 0</title></circle>
	<circle cx="181.63" cy="374.34" data-y="0.23" data-x="1592438400" r="1" fill="white"><title>2020-06-18: 0</title></circle>
	<circle cx="183.09" cy="374.01" data-y="0.34" data-x="1592524800" r="1" fill="white"><title>2020-06-19: 0</title></circle>
	<circle cx="184.56" cy="374.18" data-y="0.28" data-x="1592611200" r="1" fill="white"><title>2020-06-20: 0</title></circle>
	<circle cx="186.02" cy="374.01" data-y="0.34" data-x="1592697600" r="1" fill="white"><title>2020-06-21: 0</title></circle>
	<circle cx="187.48" cy="374.01" data-y="0.34" data-x="1592784000" r="1" fill="white"><title>2020-06-22: 0</title></circle>
	<circle cx="188.95" cy="374.18" data-y="0.28" data-x="1592870400" r="1" fill="white"><title>2020-06-23: 0</title></circle>
	<circle cx="190.41" cy="373.85" data-y="0.40" data-x="1592956800" r="1" fill="white"><title>2020-06-24: 0</title></circle>
	<circle cx="191.88" cy="373.68" data-y="0.46" data-x="1593043200" r="1" fill="white"><title>2020-06-25: 0</title></circle>
	<circle cx="193.34" cy="373.85" data-y="0.40" data-x="1593129600" r="1" fill="white"><title>2020-06-26: 0</title></circle>
	<circle cx="194.80" cy="373.68" data-y="0.46" data-x="1593216000" r="1" fill="white"><title>2020-06-27: 0</title></circle>
	<circle cx="196.27" cy="373.85" data-y="0.40" data-x="1593302400" r="1" fill="white"><title>2020-06-28: 0</title></circle>
	<circle cx="197.73" cy="373.68" data-y="0.46" data-x="1593388800" r="1" fill="white"><title>2020-06-29: 0</title></circle>
	<circle cx="199.19" cy="373.68" data-y="0.46" data-x="1593475200" r="1" fill="white"><title>2020-06-30: 0</title></circle>
	<circle cx="200.66" cy="373.68" data-y="0.46" data-x="1593561600" r="1" fill="white"><title>2020-07-01: 0</title></circle>
	<circle cx="202.12" cy="373.68" data-y="0.46" data-x="1593648000" r="1" fill="white"><title>2020-07-02: 0</title></circle>
	<circle cx="203.59" cy="373.52" data-y="0.51" data-x="1593734400" r="1" fill="white"><title>2020-07-03: 1</title></circle>
	<circle cx="205.05" cy="373.35" data-y="0.57" data-x="1593820800" r="1" fill="white"><title>2020-07-04: 1</title></circle>
	<circle cx="206.51" cy="372.86" data-y="0.74" data-x="1593907200" r="1" fill="white"><title>2020-07-05: 1</title></circle>
	<circle cx="207.98" cy="372.86" data-y="0.74" data-x="1593993600" r="1" fill="white"><title>2020-07-06: 1</title></circle>
	<circle cx="209.44" cy="372.53" data-y="0.85" data-x="1594080000" r="1" fill="white"><title>2020-07-07: 1</title></circle>
	<circle cx="210.90" cy="372.86" data-y="0.74" data-x="1594166400" r="1" fill="white"><title>2020-07-08: 1</title></circle>
	<circle cx="212.37" cy="372.86" data-y="0.74" data-x="1594252800" r="1" fill="white"><title>2020-07-09: 1</title></circle>
	<circle cx="213.83" cy="373.03" data-y="0.68" data-x="1594339200" r="1" fill="white"><title>2020-07-10: 1</title></circle>
	<circle cx="215.30" cy="372.86" data-y="0.74" data-x="1594425600" r="1" fill="white"><title>2020-07-11: 1</title></circle>
	<circle cx="216.76" cy="373.03" data-y="0.68" data-x="1594512000" r="1" fill="white"><title>2020-07-12: 1</title></circle>
	<circle cx="218.22" cy="373.35" data-y="0.57" data-x="1594598400" r="1" fill="white"><title>2020-07-13: 1</title></circle>
	<circle cx="219.69" cy="373.68" data-y="0.46" data-x="1594684800" r="1" fill="white"><title>2020-07-14: 0</title></circle>
	<circle cx="221.15" cy="373.85" data-y="0.40" data-x="1594771200" r="1" fill="white"><title>2020-07-15: 0</title></circle>
	<circle cx="222.62" cy="374.01" data-y="0.34" data-x="1594857600" r="1" fill="white"><title>2020-07-16: 0</title></circle>
	<circle cx="224.08" cy="373.52" data-y="0.51" data-x="1594944000" r="1" fill="white"><title>2020-07-17: 1</title></circle>
	<circle cx="225.54" cy="373.35" data-y="0.57" data-x="1595030400" r="1" fill="white"><title>2020-07-18: 1</title></circle>
	<circle cx="227.01" cy="373.68" data-y="0.46" data-x="1595116800" r="1" fill="white"><title>2020-07-19: 0</title></circle>
	<circle cx="228.47" cy="373.52" data-y="0.51" data-x="1595203200" r="1" fill="white"><title>2020-07-20: 1</title></circle>
	<circle cx="229.93" cy="373.35" data-y="0.57" data-x="1595289600" r="1" fill="white"><title>2020-07-21: 1</title></circle>
	<circle cx="231.40" cy="373.19" data-y="0.63" data-x="1595376000" r="1" fill="white"><title>2020-07-22: 1</title></circle>
	<circle cx="232.86" cy="372.86" data-y="0.74" data-x="1595462400" r="1" fill="white"><title>2020-07-23: 1</title></circle>
	<circle cx="234.33" cy="372.70" data-y="0.80" data-x="1595548800" r="1" fill="white"><title>2020-07-24: 1</title></circle>
	<circle cx="235.79" cy="372.53" data-y="0.85" data-x="1595635200" r="1" fill="white"><title>2020-07-25: 1</title></circle>
	<circle cx="237.25" cy="372.20" data-y="0.97" data-x="1595721600" r="1" fill="white"><title>2020-07-26: 1</title></circle>
	<circle cx="238.72" cy="372.04" data-y="1.03" data-x="1595808000" r="1" fill="white"><title>2020-07-27: 1</title></circle>
	<circle cx="240.18" cy="371.71" data-y="1.14" data-x="1595894400" r="1" fill="white"><title>2020-07-28: 1</title></circle>
	<circle cx="241.64" cy="371.71" data-y="1.14" data-x="1595980800" r="1" fill="white"><title>2020-07-29: 1</title></circle>
	<circle cx="243.11" cy="371.71" data-y="1.14" data-x="1596067200" r="1" fill="white"><title>2020-07-30: 1</title></circle>
	<circle cx="244.57" cy="372.53" data-y="0.85" data-x="1596153600" r="1" fill="white"><title>2020-07-31: 1</title></circle>
	<circle cx="246.04" cy="372.70" data-y="0.80" data-x="1596240000" r="1" fill="white"><title>2020-08-01: 1</title></circle>
	<circle cx="247.50" cy="372.70" data-y="0.80" data-x="1596326400" r="1" fill="white"><title>2020-08-02: 1</title></circle>
	<circle cx="248.96" cy="372.70" data-y="0.80" data-x="1596412800" r="1" fill="white"><title>2020-08-03: 1</title></circle>
	<circle cx="250.43" cy="372.04" data-y="1.03" data-x="1596499200" r="1" fill="white"><title>2020-08-04: 1</title></circle>
	<circle cx="251.89" cy="372.20" data-y="0.97" data-x="1596585600" r="1" fill="white"><title>2020-08-05: 1</title></circle>
	<circle cx="253.36" cy="372.53" data-y="0.85" data-x="1596672000" r="1" fill="white"><title>2020-08-06: 1</title></circle>
	<circle cx="254.82" cy="371.71" data-y="1.14" data-x="1596758400" r="1" fill="white"><title>2020-08-07: 1</title></circle>
	<circle cx="256.28" cy="372.04" data-y="1.03" data-x="1596844800" r="1" fill="white"><title>2020-08-08: 1</title></circle>
	<circle cx="257.75" cy="371.71" data-y="1.14" data-x="1596931200" r="1" fill="white"><title>2020-08-09: 1</title></circle>
	<circle cx="259.21" cy="371.22" data-y="1.31" data-x="1597017600" r="1" fill="white"><title>2020-08-10: 1</title></circle>
	<circle cx="260.67" cy="371.87" data-y="1.08" data-x="1597104000" r="1" fill="white"><title>2020-08-11: 1</title></circle>
	<circle cx="262.14" cy="371.22" data-y="1.31" data-x="1597190400" r="1" fill="white"><title>2020-08-12: 1</title></circle>
	<circle cx="263.60" cy="371.05" data-y="1.37" data-x="1597276800" r="1" fill="white"><title>2020-08-13: 1</title></circle>
	<circle cx="265.07" cy="370.56" data-y="1.54" data-x="1597363200" r="1" fill="white"><title>2020-08-14: 2</title></circle>
	<circle cx="266.53" cy="369.90" data-y="1.77" data-x="1597449600" r="1" fill="white"><title>2020-08-15: 2</title></circle>
	<circle cx="267.99" cy="370.39" data-y="1.60" data-x="1597536000" r="1" fill="white"><title>2020-08-16: 2</title></circle>
	<circle cx="269.46" cy="369.73" data-y="1.82" data-x="1597622400" r="1" fill="white"><title>2020-08-17: 2</title></circle>
	<circle cx="270.92" cy="369.08" data-y="2.05" data-x="1597708800" r="1" fill="white"><title>2020-08-18: 2</title></circle>
	<circle cx="272.38" cy="369.24" data-y="1.99" data-x="1597795200" r="1" fill="white"><title>2020-08-19: 2</title></circle>
	<circle cx="273.85" cy="368.75" data-y="2.16" data-x="1597881600" r="1" fill="white"><title>2020-08-20: 2</title></circle>
	<circle cx="275.31" cy="368.58" data-y="2.22" data-x="1597968000" r="1" fill="white"><title>2020-08-21: 2</title></circle>
	<circle cx="276.78" cy="367.10" data-y="2.73" data-x="1598054400" r="1" fill="white"><title>2020-08-22: 3</title></circle>
	<circle cx="278.24" cy="366.44" data-y="2.96" data-x="1598140800" r="1" fill="white"><title>2020-08-23: 3</title></circle>
	<circle cx="279.70" cy="367.27" data-y="2.68" data-x="1598227200" r="1" fill="white"><title>2020-08-24: 3</title></circle>
	<circle cx="281.17" cy="367.59" data-y="2.56" data-x="1598313600" r="1" fill="white"><title>2020-08-25: 3</title></circle>
	<circle cx="282.63" cy="366.77" data-y="2.85" data-x="1598400000" r="1" fill="white"><title>2020-08-26: 3</title></circle>
	<circle cx="284.10" cy="365.95" data-y="3.13" data-x="1598486400" r="1" fill="white"><title>2020-08-27: 3</title></circle>
	<circle cx="285.56" cy="366.77" data-y="2.85" data-x="1598572800" r="1" fill="white"><title>2020-08-28: 3</title></circle>
	<circle cx="287.02" cy="368.09" data-y="2.39" data-x="1598659200" r="1" fill="white"><title>2020-08-29: 2</title></circle>
	<circle cx="288.49" cy="365.78" data-y="3.19" data-x="1598745600" r="1" fill="white"><title>2020-08-30: 3</title></circle>
	<circle cx="289.95" cy="364.30" data-y="3.70" data-x="1598832000" r="1" fill="white"><title>2020-08-31: 4</title></circle>
	<circle cx="291.41" cy="363.97" data-y="3.82" data-x="1598918400" r="1" fill="white"><title>2020-09-01: 4</title></circle>
	<circle cx="292.88" cy="363.65" data-y="3.93" data-x="1599004800" r="1" fill="white"><title>2020-09-02: 4</title></circle>
	<circle cx="294.34" cy="364.30" data-y="3.70" data-x="1599091200" r="1" fill="white"><title>2020-09-03: 4</title></circle>
	<circle cx="295.81" cy="361.83" data-y="4.56" data-x="1599177600" r="1" fill="white"><title>2020-09-04: 5</title></circle>
	<circle cx="297.27" cy="361.18" data-y="4.79" data-x="1599264000" r="1" fill="white"><title>2020-09-05: 5</title></circle>
	<circle cx="298.73" cy="362.16" data-y="4.44" data-x="1599350400" r="1" fill="white"><title>2020-09-06: 4</title></circle>
	<circle cx="300.20" cy="363.32" data-y="4.04" data-x="1599436800" r="1" fill="white"><title>2020-09-07: 4</title></circle>
	<circle cx="301.66" cy="363.48" data-y="3.99" data-x="1599523200" r="1" fill="white"><title>2020-09-08: 4</title></circle>
	<circle cx="303.12" cy="364.47" data-y="3.65" data-x="1599609600" r="1" fill="white"><title>2020-09-09: 4</title></circle>
	<circle cx="304.59" cy="364.80" data-y="3.53" data-x="1599696000" r="1" fill="white"><title>2020-09-10: 4</title></circle>
	<circle cx="306.05" cy="365.62" data-y="3.25" data-x="1599782400" r="1" fill="white"><title>2020-09-11: 3</title></circle>
	<circle cx="307.52" cy="366.61" data-y="2.91" data-x="1599868800" r="1" fill="white"><title>2020-09-12: 3</title></circle>
	<circle cx="308.98" cy="367.43" data-y="2.62" data-x="1599955200" r="1" fill="white"><title>2020-09-13: 3</title></circle>
	<circle cx="310.44" cy="366.28" data-y="3.02" data-x="1600041600" r="1" fill="white"><title>2020-09-14: 3</title></circle>
	<circle cx="311.91" cy="365.78" data-y="3.19" data-x="1600128000" r="1" fill="white"><title>2020-09-15: 3</title></circle>
	<circle cx="313.37" cy="364.63" data-y="3.59" data-x="1600214400" r="1" fill="white"><title>2020-09-16: 4</title></circle>
	<circle cx="314.84" cy="363.32" data-y="4.04" data-x="1600300800" r="1" fill="white"><title>2020-09-17: 4</title></circle>
	<circle cx="316.30" cy="364.30" data-y="3.70" data-x="1600387200" r="1" fill="white"><title>2020-09-18: 4</title></circle>
	<circle cx="317.76" cy="361.83" data-y="4.56" data-x="1600473600" r="1" fill="white"><title>2020-09-19: 5</title></circle>
	<circle cx="319.23" cy="360.35" data-y="5.07" data-x="1600560000" r="1" fill="white"><title>2020-09-20: 5</title></circle>
	<circle cx="320.69" cy="359.04" data-y="5.53" data-x="1600646400" r="1" fill="white"><title>2020-09-21: 6</title></circle>
	<circle cx="322.15" cy="358.54" data-y="5.70" data-x="1600732800" r="1" fill="white"><title>2020-09-22: 6</title></circle>
	<circle cx="323.62" cy="358.05" data-y="5.87" data-x="1600819200" r="1" fill="white"><title>2020-09-23: 6</title></circle>
	<circle cx="325.08" cy="357.39" data-y="6.10" data-x="1600905600" r="1" fill="white"><title>2020-09-24: 6</title></circle>
	<circle cx="326.55" cy="354.10" data-y="7.24" data-x="1600992000" r="1" fill="white"><title>2020-09-25: 7</title></circle>
	<circle cx="328.01" cy="353.61" data-y="7.41" data-x="1601078400" r="1" fill="white"><title>2020-09-26: 7</title></circle>
	<circle cx="329.47" cy="351.96" data-y="7.98" data-x="1601164800" r="1" fill="white"><title>2020-09-27: 8</title></circle>
	<circle cx="330.94" cy="349.99" data-y="8.66" data-x="1601251200" r="1" fill="white"><title>2020-09-28: 9</title></circle>
	<circle cx="332.40" cy="346.04" data-y="10.03" data-x="1601337600" r="1" fill="white"><title>2020-09-29: 10</title></circle>
	<circle cx="333.87" cy="343.57" data-y="10.88" data-x="1601424000" r="1" fill="white"><title>2020-09-30: 11</title></circle>
	<circle cx="335.33" cy="341.59" data-y="11.57" data-x="1601510400" r="1" fill="white"><title>2020-10-01: 12</title></circle>
	<circle cx="336.79" cy="338.14" data-y="12.76" data-x="1601596800" r="1" fill="white"><title>2020-10-02: 13</title></circle>
	<circle cx="338.26" cy="337.48" data-y="12.99" data-x="1601683200" r="1" fill="white"><title>2020-10-03: 13</title></circle>
	<circle cx="339.72" cy="333.53" data-y="14.36" data-x="1601769600" r="1" fill="white"><title>2020-10-04: 14</title></circle>
	<circle cx="341.18" cy="332.38" data-y="14.76" data-x="1601856000" r="1" fill="white"><title>2020-10-05: 15</title></circle>
	<circle cx="342.65" cy="331.06" data-y="15.21" data-x="1601942400" r="1" fill="white"><title>2020-10-06: 15</title></circle>
	<circle cx="344.11" cy="332.38" data-y="14.76" data-x="1602028800" r="1" fill="white"><title>2020-10-07: 15</title></circle>
	<circle cx="345.58" cy="333.53" data-y="14.36" data-x="1602115200" r="1" fill="white"><title>2020-10-08: 14</title></circle>
	<circle cx="347.04" cy="334.35" data-y="14.07" data-x="1602201600" r="1" fill="white"><title>2020-10-09: 14</title></circle>
	<circle cx="348.50" cy="327.28" data-y="16.52" data-x="1602288000" r="1" fill="white"><title>2020-10-10: 17</title></circle>
	<circle cx="349.97" cy="329.91" data-y="15.61" data-x="1602374400" r="1" fill="white"><title>2020-10-11: 16</title></circle>
	<circle cx="351.43" cy="330.40" data-y="15.44" data-x="1602460800" r="1" fill="white"><title>2020-10-12: 15</title></circle>
	<circle cx="352.89" cy="329.75" data-y="15.67" data-x="1602547200" r="1" fill="white"><title>2020-10-13: 16</title></circle>
	<circle cx="354.36" cy="327.77" data-y="16.35" data-x="1602633600" r="1" fill="white"><title>2020-10-14: 16</title></circle>
	<circle cx="355.82" cy="325.80" data-y="17.03" data-x="1602720000" r="1" fill="white"><title>2020-10-15: 17</title></circle>
	<circle cx="357.29" cy="323.49" data-y="17.83" data-x="1602806400" r="1" fill="white"><title>2020-10-16: 18</title></circle>
	<circle cx="358.75" cy="324.97" data-y="17.32" data-x="1602892800" r="1" fill="white"><title>2020-10-17: 17</title></circle>
	<circle cx="360.21" cy="321.02" data-y="18.69" data-x="1602979200" r="1" fill="white"><title>2020-10-18: 19</title></circle>
	<circle cx="361.68" cy="319.54" data-y="19.20" data-x="1603065600" r="1" fill="white"><title>2020-10-19: 19</title></circle>
	<circle cx="363.14" cy="318.06" data-y="19.71" data-x="1603152000" r="1" fill="white"><title>2020-10-20: 20</title></circle>
	<circle cx="364.61" cy="316.42" data-y="20.28" data-x="1603238400" r="1" fill="white"><title>2020-10-21: 20</title></circle>
	<circle cx="366.07" cy="315.10" data-y="20.74" data-x="1603324800" r="1" fill="white"><title>2020-10-22: 21</title></circle>
	<circle cx="367.53" cy="316.09" data-y="20.40" data-x="1603411200" r="1" fill="white"><title>2020-10-23: 20</title></circle>
	<circle cx="369.00" cy="317.07" data-y="20.05" data-x="1603497600" r="1" fill="white"><title>2020-10-24: 20</title></circle>
	<circle cx="370.46" cy="316.09" data-y="20.40" data-x="1603584000" r="1" fill="white"><title>2020-10-25: 20</title></circle>
	<circle cx="371.92" cy="315.76" data-y="20.51" data-x="1603670400" r="1" fill="white"><title>2020-10-26: 21</title></circle>
	<circle cx="373.39" cy="316.91" data-y="20.11" data-x="1603756800" r="1" fill="white"><title>2020-10-27: 20</title></circle>
	<circle cx="374.85" cy="316.74" data-y="20.17" data-x="1603843200" r="1" fill="white"><title>2020-10-28: 20</title></circle>
	<circle cx="376.32" cy="318.39" data-y="19.60" data-x="1603929600" r="1" fill="white"><title>2020-10-29: 20</title></circle>
	<circle cx="377.78" cy="311.15" data-y="22.11" data-x="1604016000" r="1" fill="white"><title>2020-10-30: 22</title></circle>
	<circle cx="379.24" cy="312.14" data-y="21.76" data-x="1604102400" r="1" fill="white"><title>2020-10-31: 22</title></circle>
	<circle cx="380.71" cy="313.62" data-y="21.25" data-x="1604188800" r="1" fill="white"><title>2020-11-01: 21</title></circle>
	<circle cx="382.17" cy="311.48" data-y="21.99" data-x="1604275200" r="1" fill="white"><title>2020-11-02: 22</title></circle>
	<circle cx="383.63" cy="311.31" data-y="22.05" data-x="1604361600" r="1" fill="white"><title>2020-11-03: 22</title></circle>
	<circle cx="385.10" cy="310.99" data-y="22.16" data-x="1604448000" r="1" fill="white"><title>2020-11-04: 22</title></circle>
	<circle cx="386.56" cy="306.87" data-y="23.59" data-x="1604534400" r="1" fill="white"><title>2020-11-05: 24</title></circle>
	<circle cx="388.03" cy="309.67" data-y="22.62" data-x="1604620800" r="1" fill="white"><title>2020-11-06: 23</title></circle>
	<circle cx="389.49" cy="302.10" data-y="25.24" data-x="1604707200" r="1" fill="white"><title>2020-11-07: 25</title></circle>
	<circle cx="390.95" cy="298.97" data-y="26.32" data-x="1604793600" r="1" fill="white"><title>2020-11-08: 26</title></circle>
	<circle cx="392.42" cy="297.16" data-y="26.95" data-x="1604880000" r="1" fill="white"><title>2020-11-09: 27</title></circle>
	<circle cx="393.88" cy="292.55" data-y="28.54" data-x="1604966400" r="1" fill="white"><title>2020-11-10: 29</title></circle>
	<circle cx="395.35" cy="291.40" data-y="28.94" data-x="1605052800" r="1" fill="white"><title>2020-11-11: 29</title></circle>
	<circle cx="396.81" cy="293.05" data-y="28.37" data-x="1605139200" r="1" fill="white"><title>2020-11-12: 28</title></circle>
	<circle cx="398.27" cy="293.21" data-y="28.31" data-x="1605225600" r="1" fill="white"><title>2020-11-13: 28</title></circle>
	<circle cx="399.74" cy="293.38" data-y="28.26" data-x="1605312000" r="1" fill="white"><title>2020-11-14: 28</title></circle>
	<circle cx="401.20" cy="295.35" data-y="27.57" data-x="1605398400" r="1" fill="white"><title>2020-11-15: 28</title></circle>
	<circle cx="402.66" cy="297.82" data-y="26.72" data-x="1605484800" r="1" fill="white"><title>2020-11-16: 27</title></circle>
	<circle cx="404.13" cy="300.45" data-y="25.81" data-x="1605571200" r="1" fill="white"><title>2020-11-17: 26</title></circle>
	<circle cx="405.59" cy="303.09" data-y="24.90" data-x="1605657600" r="1" fill="white"><title>2020-11-18: 25</title></circle>
	<circle cx="407.06" cy="304.24" data-y="24.50" data-x="1605744000" r="1" fill="white"><title>2020-11-19: 24</title></circle>
	<circle cx="408.52" cy="305.55" data-y="24.04" data-x="1605830400" r="1" fill="white"><title>2020-11-20: 24</title></circle>
	<circle cx="409.98" cy="313.45" data-y="21.31" data-x="1605916800" r="1" fill="white"><title>2020-11-21: 21</title></circle>
	<circle cx="411.45" cy="317.57" data-y="19.88" data-x="1606003200" r="1" fill="white"><title>2020-11-22: 20</title></circle>
	<circle cx="412.91" cy="318.72" data-y="19.48" data-x="1606089600" r="1" fill="white"><title>2020-11-23: 19</title></circle>
	<circle cx="414.38" cy="320.20" data-y="18.97" data-x="1606176000" r="1" fill="white"><title>2020-11-24: 19</title></circle>
	<circle cx="415.84" cy="318.39" data-y="19.60" data-x="1606262400" r="1" fill="white"><title>2020-11-25: 20</title></circle>
	<circle cx="417.30" cy="314.28" data-y="21.02" data-x="1606348800" r="1" fill="white"><title>2020-11-26: 21</title></circle>
	<circle cx="418.77" cy="313.29" data-y="21.36" data-x="1606435200" r="1" fill="white"><title>2020-11-27: 21</title></circle>
	<circle cx="420.23" cy="308.68" data-y="22.96" data-x="1606521600" r="1" fill="white"><title>2020-11-28: 23</title></circle>
	<circle cx="421.69" cy="300.95" data-y="25.64" data-x="1606608000" r="1" fill="white"><title>2020-11-29: 26</title></circle>
	<circle cx="423.16" cy="293.71" data-y="28.14" data-x="1606694400" r="1" fill="white"><title>2020-11-30: 28</title></circle>
	<circle cx="424.62" cy="286.47" data-y="30.65" data-x="1606780800" r="1" fill="white"><title>2020-12-01: 31</title></circle>
	<circle cx="426.09" cy="284.49" data-y="31.33" data-x="1606867200" r="1" fill="white"><title>2020-12-02: 31</title></circle>
	<circle cx="427.55" cy="283.34" data-y="31.73" data-x="1606953600" r="1" fill="white"><title>2020-12-03: 32</title></circle>
	<circle cx="429.01" cy="279.39" data-y="33.10" data-x="1607040000" r="1" fill="white"><title>2020-12-04: 33</title></circle>
	<circle cx="430.48" cy="273.30" data-y="35.21" data-x="1607126400" r="1" fill="white"><title>2020-12-05: 35</title></circle>
	<circle cx="431.94" cy="269.68" data-y="36.46" data-x="1607212800" r="1" fill="white"><title>2020-12-06: 36</title></circle>
	<circle cx="433.40" cy="262.93" data-y="38.80" data-x="1607299200" r="1" fill="white"><title>2020-12-07: 39</title></circle>
	<circle cx="434.87" cy="249.27" data-y="43.53" data-x="1607385600" r="1" fill="white"><title>2020-12-08: 44</title></circle>
	<circle cx="436.33" cy="237.59" data-y="47.57" data-x="1607472000" r="1" fill="white"><title>2020-12-09: 48</title></circle>
	<circle cx="437.80" cy="219.82" data-y="53.72" data-x="1607558400" r="1" fill="white"><title>2020-12-10: 54</title></circle>
	<circle cx="439.26" cy="200.23" data-y="60.50" data-x="1607644800" r="1" fill="white"><title>2020-12-11: 61</title></circle>
	<circle cx="440.72" cy="182.46" data-y="66.66" data-x="1607731200" r="1" fill="white"><title>2020-12-12: 67</title></circle>
	<circle cx="442.19" cy="164.85" data-y="72.75" data-x="1607817600" r="1" fill="white"><title>2020-12-13: 73</title></circle>
	<circle cx="443.65" cy="142.47" data-y="80.50" data-x="1607904000" r="1" fill="white"><title>2020-12-14: 81</title></circle>
	<circle cx="445.12" cy="135.56" data-y="82.89" data-x="1607990400" r="1" fill="white"><title>2020-12-15: 83</title></circle>
	<circle cx="446.58" cy="126.84" data-y="85.91" data-x="1608076800" r="1" fill="white"><title>2020-12-16: 86</title></circle>
	<circle cx="448.04" cy="118.94" data-y="88.65" data-x="1608163200" r="1" fill="white"><title>2020-12-17: 89</title></circle>
	<circle cx="449.51" cy="102.81" data-y="94.23" data-x="1608249600" r="1" fill="white"><title>2020-12-18: 94</title></circle>
	<circle cx="450.97" cy="82.41" data-y="101.30" data-x="1608336000" r="1" fill="white"><title>2020-12-19: 101</title></circle>
	<circle cx="452.43" cy="67.60" data-y="106.42" data-x="1608422400" r="1" fill="white"><title>2020-12-20: 106</title></circle>
	<circle cx="453.90" cy="59.70" data-y="109.16" data-x="1608508800" r="1" fill="white"><title>2020-12-21: 109</title></circle>
	<circle cx="455.36" cy="73.36" data-y="104.43" data-x="1608595200" r="1" fill="white"><title>2020-12-22: 104</title></circle>
	<circle cx="456.83" cy="44.72" data-y="114.34" data-x="1608681600" r="1" fill="white"><title>2020-12-23: 114</title></circle>
	<circle cx="458.29" cy="19.54" data-y="123.06" data-x="1608768000" r="1" fill="white"><title>2020-12-24: 123</title></circle>
	<circle cx="459.75" cy="25.47" data-y="121.01" data-x="1608854400" r="1" fill="white"><title>2020-12-25: 121</title></circle>
	<circle cx="461.22" cy="10.82" data-y="126.08" data-x="1608940800" r="1" fill="white"><title>2020-12-26: 126</title></circle>
	<circle cx="462.68" cy="10.00" data-y="126.36" data-x="1609027200" r="1" fill="white"><title>2020-12-27: 126</title></circle>
</g>
<g data-series="recent-cases" class="data-series">
	<path d="M 462.68,10.00L 464.14,48.18L 465.61,71.05L 467.07,89.13L 468.54,119.27L 470.00,136.26" id="Recent cases" class="line" stroke-width="1" stroke-linecap="round" stroke-dasharray="4,6" stroke-dashoffset="4"><title>Recent cases</title></path>
	<circle cx="462.68" cy="10.00" data-y="126.36" data-x="1609027200" r="2.5" fill="white"><title>2020-12-27: 126</title></circle>
	<circle cx="464.14" cy="48.18" data-y="113.15" data-x="1609113600" r="2.5" fill="white"><title>2020-12-28: 113</title></circle>
	<circle cx="465.61" cy="71.05" data-y="105.23" data-x="1609200000" r="2.5" fill="white"><title>2020-12-29: 105</title></circle>
	<circle cx="467.07" cy="89.13" data-y="98.97" data-x="1609286400" r="2.5" fill="white"><title>2020-12-30: 99</title></circle>
	<circle cx="468.54" cy="119.27" data-y="88.53" data-x="1609372800" r="2.5" fill="white"><title>2020-12-31: 89</title></circle>
	<circle cx="470.00" cy="136.26" data-y="82.65" data-x="1609459200" r="2.5" fill="white"><title>2021-01-01: 83</title></circle>
</g>
</svg>
