<svg width="480" height="400" viewBox="0 0 480 400" xmlns="http://www.w3.org/2000/svg" style="overflow:display" preserveAspectRatio="xMinYMin meet" overflow="visible">
<defs>
	<style>
	.data-series path.line { fill-opacity: 0; stroke: black; }
	.data-series path.line.dotted { stroke-dasharray: 12 20 }
	.data-series:hover path.line, .data-series.on path.line { stroke-width: 1; }
	.data-series:hover circle, .data-series.on circle { display: inline; }
	.graph-grid { font-family: "Helvetica Neue",Helvetica,Arial,"Lucida Grande",sans-serif; }
	.graph-grid line { stroke: black; stroke-width: 1; stroke-linecap: round; }
	.graph-grid.graph-grid-x text { text-anchor: middle; dominant-baseline: hanging; transform: translateY(10px); }
	.graph-grid.graph-grid-y text { text-anchor: end; dominant-baseline: middle; transform: translateX(-10px); }
	</style>
</defs>
<g class="graph-grid graph-grid-y">
	<line x1="25.00" y1="375.00" x2="470.00" y2="375.00" data-left="25"></line>
	<text x="35" y="375" text-anchor="end">0</text>
	<text x="35" y="290.450320909665" text-anchor="end">20</text>
	<text x="35" y="205.90064181933" text-anchor="end">40</text>
	<text x="35" y="121.350962728996" text-anchor="end">60</text>
	<text x="35" y="36.8012836386607" text-anchor="end">80</text>
	<text style="text-anchor:middle;dominant-baseline:hanging;font-weight:bold;transform: translateY(192.5px) rotate(-90deg);"></text>
</g>
<g class="graph-grid graph-grid-x">
	<line class="tick" x1="66.03" y1="375.00" x2="66.03" y2="380.00"></line>
	<text x="66.0283687943262" y="375" text-anchor="middle">A</text>
	<line class="tick" x1="113.37" y1="375.00" x2="113.37" y2="380.00"></line>
	<text x="113.368794326241" y="375" text-anchor="middle">M</text>
	<line class="tick" x1="162.29" y1="375.00" x2="162.29" y2="380.00"></line>
	<text x="162.287234042553" y="375" text-anchor="middle">J</text>
	<line class="tick" x1="209.63" y1="375.00" x2="209.63" y2="380.00"></line>
	<text x="209.627659574468" y="375" text-anchor="middle">J</text>
	<line class="tick" x1="258.55" y1="375.00" x2="258.55" y2="380.00"></line>
	<text x="258.54609929078" y="375" text-anchor="middle">A</text>
	<line class="tick" x1="307.46" y1="375.00" x2="307.46" y2="380.00"></line>
	<text x="307.464539007092" y="375" text-anchor="middle">S</text>
	<line class="tick" x1="354.80" y1="375.00" x2="354.80" y2="380.00"></line>
	<text x="354.804964539007" y="375" text-anchor="middle">O</text>
	<line class="tick" x1="403.72" y1="375.00" x2="403.72" y2="380.00"></line>
	<text x="403.723404255319" y="375" text-anchor="middle">N</text>
	<line class="tick" x1="451.06" y1="375.00" x2="451.06" y2="380.00"></line>
	<text x="451.063829787234" y="375" text-anchor="middle">D</text>
	<text style="text-anchor:middle;dominant-baseline:hanging;font-weight:bold;transform: translateY(192.5px) rotate(-90deg);"></text>
</g>
<g data-series="widespread" class="data-series">
	<path d="M 25.00,345.41L 470.00,345.41" id="E09000016-level-0" class="line" stroke-width="1" stroke-linecap="round" stroke-dasharray="3,3" fill-opacity="0.3" opacity="0.3"><title>Widespread</title></path>
</g>
<g data-series="substantial" class="data-series">
	<path d="M 25.00,358.09L 470.00,358.09" id="E09000016-level-1" class="line" stroke-width="1" stroke-linecap="round" stroke-dasharray="3,3" fill-opacity="0.3" opacity="0.3"><title>Substantial</title></path>
</g>
<g data-series="moderate" class="data-series">
	<path d="M 25.00,370.77L 470.00,370.77" id="E09000016-level-2" class="line" stroke-width="1" stroke-linecap="round" stroke-dasharray="3,3" fill-opacity="0.3" opacity="0.3"><title>Moderate</title></path>
</g>
<g data-series="new-cases" class="data-series">
	<path d="M 25.00,373.79L 26.58,374.03L 28.16,373.65L 29.73,373.62L 31.31,373.85L 32.89,373.39L 34.47,372.23L 36.05,372.00L 37.62,371.31L 39.20,369.24L 40.78,367.85L 42.36,367.16L 43.94,366.24L 45.51,364.39L 47.09,362.55L 48.67,359.55L 50.25,359.09L 51.83,358.17L 53.40,356.78L 54.98,356.78L 56.56,357.71L 58.14,356.09L 59.72,353.56L 61.29,349.64L 62.87,344.79L 64.45,338.57L 66.03,335.11L 67.61,331.88L 69.18,329.12L 70.76,326.81L 72.34,325.66L 73.92,327.04L 75.50,329.58L 77.07,330.27L 78.65,330.04L 80.23,332.80L 81.81,337.88L 83.39,341.11L 84.96,342.03L 86.54,345.72L 88.12,347.33L 89.70,349.41L 91.28,350.10L 92.85,351.25L 94.43,353.33L 96.01,355.17L 97.59,354.94L 99.17,354.94L 100.74,356.55L 102.32,356.78L 103.90,357.48L 105.48,358.17L 107.06,358.86L 108.63,356.78L 110.21,357.02L 111.79,357.02L 113.37,356.32L 114.95,356.32L 116.52,356.55L 118.10,358.86L 119.68,362.78L 121.26,365.09L 122.84,366.01L 124.41,368.77L 125.99,369.93L 127.57,370.85L 129.15,369.70L 130.73,368.77L 132.30,367.85L 133.88,368.08L 135.46,368.54L 137.04,368.31L 138.62,367.62L 140.20,366.70L 141.77,367.85L 143.35,368.77L 144.93,369.24L 146.51,369.24L 148.09,369.24L 149.66,370.39L 151.24,372.46L 152.82,372.92L 154.40,372.92L 155.98,372.69L 157.55,372.92L 159.13,373.39L 160.71,373.16L 162.29,372.92L 163.87,372.69L 165.44,372.69L 167.02,372.69L 168.60,372.46L 170.18,372.00L 171.76,372.23L 173.33,372.69L 174.91,372.46L 176.49,372.23L 178.07,372.46L 179.65,372.23L 181.22,372.69L 182.80,373.16L 184.38,373.16L 185.96,373.39L 187.54,373.62L 189.11,373.85L 190.69,374.31L 192.27,373.16L 193.85,372.46L 195.43,372.23L 197.00,372.23L 198.58,371.77L 200.16,371.77L 201.74,371.54L 203.32,372.69L 204.89,373.16L 206.47,373.16L 208.05,372.69L 209.63,372.69L 211.21,372.69L 212.78,372.92L 214.36,372.46L 215.94,372.00L 217.52,372.00L 219.10,372.23L 220.67,372.69L 222.25,372.46L 223.83,372.46L 225.41,371.54L 226.99,371.77L 228.56,371.31L 230.14,371.54L 231.72,371.08L 233.30,371.08L 234.88,369.93L 236.45,370.16L 238.03,370.39L 239.61,369.93L 241.19,370.16L 242.77,370.39L 244.34,370.62L 245.92,371.31L 247.50,371.77L 249.08,371.31L 250.66,371.31L 252.23,370.85L 253.81,370.39L 255.39,370.16L 256.97,369.93L 258.55,369.47L 260.12,369.93L 261.70,370.85L 263.28,370.85L 264.86,371.31L 266.44,371.31L 268.01,371.77L 269.59,372.23L 271.17,372.00L 272.75,372.00L 274.33,371.54L 275.90,370.85L 277.48,370.62L 279.06,370.62L 280.64,370.39L 282.22,370.16L 283.79,369.47L 285.37,369.01L 286.95,369.24L 288.53,367.85L 290.11,368.08L 291.68,368.08L 293.26,368.31L 294.84,365.32L 296.42,364.85L 298.00,364.39L 299.57,365.55L 301.15,364.39L 302.73,362.09L 304.31,360.01L 305.89,359.78L 307.46,358.86L 309.04,356.55L 310.62,353.56L 312.20,352.17L 313.78,352.40L 315.35,352.63L 316.93,354.02L 318.51,352.17L 320.09,354.48L 321.67,356.09L 323.24,357.71L 324.82,358.17L 326.40,358.40L 327.98,356.32L 329.56,356.32L 331.13,354.48L 332.71,352.40L 334.29,350.33L 335.87,348.95L 337.45,342.03L 339.02,342.49L 340.60,342.72L 342.18,339.49L 343.76,337.88L 345.34,335.11L 346.91,335.11L 348.49,338.80L 350.07,338.57L 351.65,336.26L 353.23,335.57L 354.80,337.65L 356.38,332.34L 357.96,329.81L 359.54,327.04L 361.12,319.20L 362.70,315.74L 364.27,317.59L 365.85,314.82L 367.43,312.74L 369.01,309.29L 370.59,305.37L 372.16,306.29L 373.74,306.52L 375.32,304.44L 376.90,301.22L 378.48,299.83L 380.05,287.84L 381.63,286.69L 383.21,280.00L 384.79,277.01L 386.37,274.01L 387.94,271.24L 389.52,263.17L 391.10,267.55L 392.68,264.09L 394.26,264.09L 395.83,258.56L 397.41,249.34L 398.99,250.03L 400.57,238.04L 402.15,229.74L 403.72,222.59L 405.30,213.60L 406.88,210.60L 408.46,212.68L 410.04,207.60L 411.61,204.37L 413.19,202.99L 414.77,189.85L 416.35,182.93L 417.93,165.64L 419.50,151.80L 421.08,144.43L 422.66,143.27L 424.24,136.36L 425.82,142.81L 427.39,143.27L 428.97,159.41L 430.55,173.25L 432.13,176.48L 433.71,189.62L 435.28,202.76L 436.86,204.14L 438.44,214.52L 440.02,209.91L 441.60,202.07L 443.17,201.38L 444.75,194.00L 446.33,185.24L 447.91,182.70L 449.49,166.56L 451.06,156.88L 452.64,147.19L 454.22,134.51L 455.80,115.37L 457.38,92.55L 458.95,70.41L 460.53,51.27L 462.11,26.14" id="New cases" class="line" stroke-width="1" stroke-linecap="round"><title>New cases</title></path>
	<circle cx="25.00" cy="373.79" data-y="0.29" data-x="1583452800" r="1" fill="white"><title>2020-03-06: 0</title></circle>
	<circle cx="26.58" cy="374.03" data-y="0.23" data-x="1583539200" r="1" fill="white"><title>2020-03-07: 0</title></circle>
	<circle cx="28.16" cy="373.65" data-y="0.32" data-x="1583625600" r="1" fill="white"><title>2020-03-08: 0</title></circle>
	<circle cx="29.73" cy="373.62" data-y="0.33" data-x="1583712000" r="1" fill="white"><title>2020-03-09: 0</title></circle>
	<circle cx="31.31" cy="373.85" data-y="0.27" data-x="1583798400" r="1" fill="white"><title>2020-03-10: 0</title></circle>
	<circle cx="32.89" cy="373.39" data-y="0.38" data-x="1583884800" r="1" fill="white"><title>2020-03-11: 0</title></circle>
	<circle cx="34.47" cy="372.23" data-y="0.65" data-x="1583971200" r="1" fill="white"><title>2020-03-12: 1</title></circle>
	<circle cx="36.05" cy="372.00" data-y="0.71" data-x="1584057600" r="1" fill="white"><title>2020-03-13: 1</title></circle>
	<circle cx="37.62" cy="371.31" data-y="0.87" data-x="1584144000" r="1" fill="white"><title>2020-03-14: 1</title></circle>
	<circle cx="39.20" cy="369.24" data-y="1.36" data-x="1584230400" r="1" fill="white"><title>2020-03-15: 1</title></circle>
	<circle cx="40.78" cy="367.85" data-y="1.69" data-x="1584316800" r="1" fill="white"><title>2020-03-16: 2</title></circle>
	<circle cx="42.36" cy="367.16" data-y="1.85" data-x="1584403200" r="1" fill="white"><title>2020-03-17: 2</title></circle>
	<circle cx="43.94" cy="366.24" data-y="2.07" data-x="1584489600" r="1" fill="white"><title>2020-03-18: 2</title></circle>
	<circle cx="45.51" cy="364.39" data-y="2.51" data-x="1584576000" r="1" fill="white"><title>2020-03-19: 3</title></circle>
	<circle cx="47.09" cy="362.55" data-y="2.95" data-x="1584662400" r="1" fill="white"><title>2020-03-20: 3</title></circle>
	<circle cx="48.67" cy="359.55" data-y="3.65" data-x="1584748800" r="1" fill="white"><title>2020-03-21: 4</title></circle>
	<circle cx="50.25" cy="359.09" data-y="3.76" data-x="1584835200" r="1" fill="white"><title>2020-03-22: 4</title></circle>
	<circle cx="51.83" cy="358.17" data-y="3.98" data-x="1584921600" r="1" fill="white"><title>2020-03-23: 4</title></circle>
	<circle cx="53.40" cy="356.78" data-y="4.31" data-x="1585008000" r="1" fill="white"><title>2020-03-24: 4</title></circle>
	<circle cx="54.98" cy="356.78" data-y="4.31" data-x="1585094400" r="1" fill="white"><title>2020-03-25: 4</title></circle>
	<circle cx="56.56" cy="357.71" data-y="4.09" data-x="1585180800" r="1" fill="white"><title>2020-03-26: 4</title></circle>
	<circle cx="58.14" cy="356.09" data-y="4.47" data-x="1585267200" r="1" fill="white"><title>2020-03-27: 4</title></circle>
	<circle cx="59.72" cy="353.56" data-y="5.07" data-x="1585353600" r="1" fill="white"><title>2020-03-28: 5</title></circle>
	<circle cx="61.29" cy="349.64" data-y="6.00" data-x="1585440000" r="1" fill="white"><title>2020-03-29: 6</title></circle>
	<circle cx="62.87" cy="344.79" data-y="7.14" data-x="1585526400" r="1" fill="white"><title>2020-03-30: 7</title></circle>
	<circle cx="64.45" cy="338.57" data-y="8.62" data-x="1585612800" r="1" fill="white"><title>2020-03-31: 9</title></circle>
	<circle cx="66.03" cy="335.11" data-y="9.44" data-x="1585699200" r="1" fill="white"><title>2020-04-01: 9</title></circle>
	<circle cx="67.61" cy="331.88" data-y="10.20" data-x="1585785600" r="1" fill="white"><title>2020-04-02: 10</title></circle>
	<circle cx="69.18" cy="329.12" data-y="10.85" data-x="1585872000" r="1" fill="white"><title>2020-04-03: 11</title></circle>
	<circle cx="70.76" cy="326.81" data-y="11.40" data-x="1585958400" r="1" fill="white"><title>2020-04-04: 11</title></circle>
	<circle cx="72.34" cy="325.66" data-y="11.67" data-x="1586044800" r="1" fill="white"><title>2020-04-05: 12</title></circle>
	<circle cx="73.92" cy="327.04" data-y="11.34" data-x="1586131200" r="1" fill="white"><title>2020-04-06: 11</title></circle>
	<circle cx="75.50" cy="329.58" data-y="10.74" data-x="1586217600" r="1" fill="white"><title>2020-04-07: 11</title></circle>
	<circle cx="77.07" cy="330.27" data-y="10.58" data-x="1586304000" r="1" fill="white"><title>2020-04-08: 11</title></circle>
	<circle cx="78.65" cy="330.04" data-y="10.64" data-x="1586390400" r="1" fill="white"><title>2020-04-09: 11</title></circle>
	<circle cx="80.23" cy="332.80" data-y="9.98" data-x="1586476800" r="1" fill="white"><title>2020-04-10: 10</title></circle>
	<circle cx="81.81" cy="337.88" data-y="8.78" data-x="1586563200" r="1" fill="white"><title>2020-04-11: 9</title></circle>
	<circle cx="83.39" cy="341.11" data-y="8.02" data-x="1586649600" r="1" fill="white"><title>2020-04-12: 8</title></circle>
	<circle cx="84.96" cy="342.03" data-y="7.80" data-x="1586736000" r="1" fill="white"><title>2020-04-13: 8</title></circle>
	<circle cx="86.54" cy="345.72" data-y="6.93" data-x="1586822400" r="1" fill="white"><title>2020-04-14: 7</title></circle>
	<circle cx="88.12" cy="347.33" data-y="6.55" data-x="1586908800" r="1" fill="white"><title>2020-04-15: 7</title></circle>
	<circle cx="89.70" cy="349.41" data-y="6.05" data-x="1586995200" r="1" fill="white"><title>2020-04-16: 6</title></circle>
	<circle cx="91.28" cy="350.10" data-y="5.89" data-x="1587081600" r="1" fill="white"><title>2020-04-17: 6</title></circle>
	<circle cx="92.85" cy="351.25" data-y="5.62" data-x="1587168000" r="1" fill="white"><title>2020-04-18: 6</title></circle>
	<circle cx="94.43" cy="353.33" data-y="5.13" data-x="1587254400" r="1" fill="white"><title>2020-04-19: 5</title></circle>
	<circle cx="96.01" cy="355.17" data-y="4.69" data-x="1587340800" r="1" fill="white"><title>2020-04-20: 5</title></circle>
	<circle cx="97.59" cy="354.94" data-y="4.75" data-x="1587427200" r="1" fill="white"><title>2020-04-21: 5</title></circle>
	<circle cx="99.17" cy="354.94" data-y="4.75" data-x="1587513600" r="1" fill="white"><title>2020-04-22: 5</title></circle>
	<circle cx="100.74" cy="356.55" data-y="4.36" data-x="1587600000" r="1" fill="white"><title>2020-04-23: 4</title></circle>
	<circle cx="102.32" cy="356.78" data-y="4.31" data-x="1587686400" r="1" fill="white"><title>2020-04-24: 4</title></circle>
	<circle cx="103.90" cy="357.48" data-y="4.15" data-x="1587772800" r="1" fill="white"><title>2020-04-25: 4</title></circle>
	<circle cx="105.48" cy="358.17" data-y="3.98" data-x="1587859200" r="1" fill="white"><title>2020-04-26: 4</title></circle>
	<circle cx="107.06" cy="358.86" data-y="3.82" data-x="1587945600" r="1" fill="white"><title>2020-04-27: 4</title></circle>
	<circle cx="108.63" cy="356.78" data-y="4.31" data-x="1588032000" r="1" fill="white"><title>2020-04-28: 4</title></circle>
	<circle cx="110.21" cy="357.02" data-y="4.25" data-x="1588118400" r="1" fill="white"><title>2020-04-29: 4</title></circle>
	<circle cx="111.79" cy="357.02" data-y="4.25" data-x="1588204800" r="1" fill="white"><title>2020-04-30: 4</title></circle>
	<circle cx="113.37" cy="356.32" data-y="4.42" data-x="1588291200" r="1" fill="white"><title>2020-05-01: 4</title></circle>
	<circle cx="114.95" cy="356.32" data-y="4.42" data-x="1588377600" r="1" fill="white"><title>2020-05-02: 4</title></circle>
	<circle cx="116.52" cy="356.55" data-y="4.36" data-x="1588464000" r="1" fill="white"><title>2020-05-03: 4</title></circle>
	<circle cx="118.10" cy="358.86" data-y="3.82" data-x="1588550400" r="1" fill="white"><title>2020-05-04: 4</title></circle>
	<circle cx="119.68" cy="362.78" data-y="2.89" data-x="1588636800" r="1" fill="white"><title>2020-05-05: 3</title></circle>
	<circle cx="121.26" cy="365.09" data-y="2.35" data-x="1588723200" r="1" fill="white"><title>2020-05-06: 2</title></circle>
	<circle cx="122.84" cy="366.01" data-y="2.13" data-x="1588809600" r="1" fill="white"><title>2020-05-07: 2</title></circle>
	<circle cx="124.41" cy="368.77" data-y="1.47" data-x="1588896000" r="1" fill="white"><title>2020-05-08: 1</title></circle>
	<circle cx="125.99" cy="369.93" data-y="1.20" data-x="1588982400" r="1" fill="white"><title>2020-05-09: 1</title></circle>
	<circle cx="127.57" cy="370.85" data-y="0.98" data-x="1589068800" r="1" fill="white"><title>2020-05-10: 1</title></circle>
	<circle cx="129.15" cy="369.70" data-y="1.25" data-x="1589155200" r="1" fill="white"><title>2020-05-11: 1</title></circle>
	<circle cx="130.73" cy="368.77" data-y="1.47" data-x="1589241600" r="1" fill="white"><title>2020-05-12: 1</title></circle>
	<circle cx="132.30" cy="367.85" data-y="1.69" data-x="1589328000" r="1" fill="white"><title>2020-05-13: 2</title></circle>
	<circle cx="133.88" cy="368.08" data-y="1.64" data-x="1589414400" r="1" fill="white"><title>2020-05-14: 2</title></circle>
	<circle cx="135.46" cy="368.54" data-y="1.53" data-x="1589500800" r="1" fill="white"><title>2020-05-15: 2</title></circle>
	<circle cx="137.04" cy="368.31" data-y="1.58" data-x="1589587200" r="1" fill="white"><title>2020-05-16: 2</title></circle>
	<circle cx="138.62" cy="367.62" data-y="1.75" data-x="1589673600" r="1" fill="white"><title>2020-05-17: 2</title></circle>
	<circle cx="140.20" cy="366.70" data-y="1.96" data-x="1589760000" r="1" fill="white"><title>2020-05-18: 2</title></circle>
	<circle cx="141.77" cy="367.85" data-y="1.69" data-x="1589846400" r="1" fill="white"><title>2020-05-19: 2</title></circle>
	<circle cx="143.35" cy="368.77" data-y="1.47" data-x="1589932800" r="1" fill="white"><title>2020-05-20: 1</title></circle>
	<circle cx="144.93" cy="369.24" data-y="1.36" data-x="1590019200" r="1" fill="white"><title>2020-05-21: 1</title></circle>
	<circle cx="146.51" cy="369.24" data-y="1.36" data-x="1590105600" r="1" fill="white"><title>2020-05-22: 1</title></circle>
	<circle cx="148.09" cy="369.24" data-y="1.36" data-x="1590192000" r="1" fill="white"><title>2020-05-23: 1</title></circle>
	<circle cx="149.66" cy="370.39" data-y="1.09" data-x="1590278400" r="1" fill="white"><title>2020-05-24: 1</title></circle>
	<circle cx="151.24" cy="372.46" data-y="0.60" data-x="1590364800" r="1" fill="white"><title>2020-05-25: 1</title></circle>
	<circle cx="152.82" cy="372.92" data-y="0.49" data-x="1590451200" r="1" fill="white"><title>2020-05-26: 0</title></circle>
	<circle cx="154.40" cy="372.92" data-y="0.49" data-x="1590537600" r="1" fill="white"><title>2020-05-27: 0</title></circle>
	<circle cx="155.98" cy="372.69" data-y="0.55" data-x="1590624000" r="1" fill="white"><title>2020-05-28: 1</title></circle>
	<circle cx="157.55" cy="372.92" data-y="0.49" data-x="1590710400" r="1" fill="white"><title>2020-05-29: 0</title></circle>
	<circle cx="159.13" cy="373.39" data-y="0.38" data-x="1590796800" r="1" fill="white"><title>2020-05-30: 0</title></circle>
	<circle cx="160.71" cy="373.16" data-y="0.44" data-x="1590883200" r="1" fill="white"><title>2020-05-31: 0</title></circle>
	<circle cx="162.29" cy="372.92" data-y="0.49" data-x="1590969600" r="1" fill="white"><title>2020-06-01: 0</title></circle>
	<circle cx="163.87" cy="372.69" data-y="0.55" data-x="1591056000" r="1" fill="white"><title>2020-06-02: 1</title></circle>
	<circle cx="165.44" cy="372.69" data-y="0.55" data-x="1591142400" r="1" fill="white"><title>2020-06-03: 1</title></circle>
	<circle cx="167.02" cy="372.69" data-y="0.55" data-x="1591228800" r="1" fill="white"><title>2020-06-04: 1</title></circle>
	<circle cx="168.60" cy="372.46" data-y="0.60" data-x="1591315200" r="1" fill="white"><title>2020-06-05: 1</title></circle>
	<circle cx="170.18" cy="372.00" data-y="0.71" data-x="1591401600" r="1" fill="white"><title>2020-06-06: 1</title></circle>
	<circle cx="171.76" cy="372.23" data-y="0.65" data-x="1591488000" r="1" fill="white"><title>2020-06-07: 1</title></circle>
	<circle cx="173.33" cy="372.69" data-y="0.55" data-x="1591574400" r="1" fill="white"><title>2020-06-08: 1</title></circle>
	<circle cx="174.91" cy="372.46" data-y="0.60" data-x="1591660800" r="1" fill="white"><title>2020-06-09: 1</title></circle>
	<circle cx="176.49" cy="372.23" data-y="0.65" data-x="1591747200" r="1" fill="white"><title>2020-06-10: 1</title></circle>
	<circle cx="178.07" cy="372.46" data-y="0.60" data-x="1591833600" r="1" fill="white"><title>2020-06-11: 1</title></circle>
	<circle cx="179.65" cy="372.23" data-y="0.65" data-x="1591920000" r="1" fill="white"><title>2020-06-12: 1</title></circle>
	<circle cx="181.22" cy="372.69" data-y="0.55" data-x="1592006400" r="1" fill="white"><title>2020-06-13: 1</title></circle>
	<circle cx="182.80" cy="373.16" data-y="0.44" data-x="1592092800" r="1" fill="white"><title>2020-06-14: 0</title></circle>
	<circle cx="184.38" cy="373.16" data-y="0.44" data-x="1592179200" r="1" fill="white"><title>2020-06-15: 0</title></circle>
	<circle cx="185.96" cy="373.39" data-y="0.38" data-x="1592265600" r="1" fill="white"><title>2020-06-16: 0</title></circle>
	<circle cx="187.54" cy="373.62" data-y="0.33" data-x="1592352000" r="1" fill="white"><title>2020-06-17: 0</title></circle>
	<circle cx="189.11" cy="373.85" data-y="0.27" data-x="1592438400" r="1" fill="white"><title>2020-06-18: 0</title></circle>
	<circle cx="190.69" cy="374.31" data-y="0.16" data-x="1592524800" r="1" fill="white"><title>2020-06-19: 0</title></circle>
	<circle cx="192.27" cy="373.16" data-y="0.44" data-x="1592611200" r="1" fill="white"><title>2020-06-20: 0</title></circle>
	<circle cx="193.85" cy="372.46" data-y="0.60" data-x="1592697600" r="1" fill="white"><title>2020-06-21: 1</title></circle>
	<circle cx="195.43" cy="372.23" data-y="0.65" data-x="1592784000" r="1" fill="white"><title>2020-06-22: 1</title></circle>
	<circle cx="197.00" cy="372.23" data-y="0.65" data-x="1592870400" r="1" fill="white"><title>2020-06-23: 1</title></circle>
	<circle cx="198.58" cy="371.77" data-y="0.76" data-x="1592956800" r="1" fill="white"><title>2020-06-24: 1</title></circle>
	<circle cx="200.16" cy="371.77" data-y="0.76" data-x="1593043200" r="1" fill="white"><title>2020-06-25: 1</title></circle>
	<circle cx="201.74" cy="371.54" data-y="0.82" data-x="1593129600" r="1" fill="white"><title>2020-06-26: 1</title></circle>
	<circle cx="203.32" cy="372.69" data-y="0.55" data-x="1593216000" r="1" fill="white"><title>2020-06-27: 1</title></circle>
	<circle cx="204.89" cy="373.16" data-y="0.44" data-x="1593302400" r="1" fill="white"><title>2020-06-28: 0</title></circle>
	<circle cx="206.47" cy="373.16" data-y="0.44" data-x="1593388800" r="1" fill="white"><title>2020-06-29: 0</title></circle>
	<circle cx="208.05" cy="372.69" data-y="0.55" data-x="1593475200" r="1" fill="white"><title>2020-06-30: 1</title></circle>
	<circle cx="209.63" cy="372.69" data-y="0.55" data-x="1593561600" r="1" fill="white"><title>2020-07-01: 1</title></circle>
	<circle cx="211.21" cy="372.69" data-y="0.55" data-x="1593648000" r="1" fill="white"><title>2020-07-02: 1</title></circle>
	<circle cx="212.78" cy="372.92" data-y="0.49" data-x="1593734400" r="1" fill="white"><title>2020-07-03: 0</title></circle>
	<circle cx="214.36" cy="372.46" data-y="0.60" data-x="1593820800" r="1" fill="white"><title>2020-07-04: 1</title></circle>
	<circle cx="215.94" cy="372.00" data-y="0.71" data-x="1593907200" r="1" fill="white"><title>2020-07-05: 1</title></circle>
	<circle cx="217.52" cy="372.00" data-y="0.71" data-x="1593993600" r="1" fill="white"><title>2020-07-06: 1</title></circle>
	<circle cx="219.10" cy="372.23" data-y="0.65" data-x="1594080000" r="1" fill="white"><title>2020-07-07: 1</title></circle>
	<circle cx="220.67" cy="372.69" data-y="0.55" data-x="1594166400" r="1" fill="white"><title>2020-07-08: 1</title></circle>
	<circle cx="222.25" cy="372.46" data-y="0.60" data-x="1594252800" r="1" fill="white"><title>2020-07-09: 1</title></circle>
	<circle cx="223.83" cy="372.46" data-y="0.60" data-x="1594339200" r="1" fill="white"><title>2020-07-10: 1</title></circle>
	<circle cx="225.41" cy="371.54" data-y="0.82" data-x="1594425600" r="1" fill="white"><title>2020-07-11: 1</title></circle>
	<circle cx="226.99" cy="371.77" data-y="0.76" data-x="1594512000" r="1" fill="white"><title>2020-07-12: 1</title></circle>
	<circle cx="228.56" cy="371.31" data-y="0.87" data-x="1594598400" r="1" fill="white"><title>2020-07-13: 1</title></circle>
	<circle cx="230.14" cy="371.54" data-y="0.82" data-x="1594684800" r="1" fill="white"><title>2020-07-14: 1</title></circle>
	<circle cx="231.72" cy="371.08" data-y="0.93" data-x="1594771200" r="1" fill="white"><title>2020-07-15: 1</title></circle>
	<circle cx="233.30" cy="371.08" data-y="0.93" data-x="1594857600" r="1" fill="white"><title>2020-07-16: 1</title></circle>
	<circle cx="234.88" cy="369.93" data-y="1.20" data-x="1594944000" r="1" fill="white"><title>2020-07-17: 1</title></circle>
	<circle cx="236.45" cy="370.16" data-y="1.15" data-x="1595030400" r="1" fill="white"><title>2020-07-18: 1</title></circle>
	<circle cx="238.03" cy="370.39" data-y="1.09" data-x="1595116800" r="1" fill="white"><title>2020-07-19: 1</title></circle>
	<circle cx="239.61" cy="369.93" data-y="1.20" data-x="1595203200" r="1" fill="white"><title>2020-07-20: 1</title></circle>
	<circle cx="241.19" cy="370.16" data-y="1.15" data-x="1595289600" r="1" fill="white"><title>2020-07-21: 1</title></circle>
	<circle cx="242.77" cy="370.39" data-y="1.09" data-x="1595376000" r="1" fill="white"><title>2020-07-22: 1</title></circle>
	<circle cx="244.34" cy="370.62" data-y="1.04" data-x="1595462400" r="1" fill="white"><title>2020-07-23: 1</title></circle>
	<circle cx="245.92" cy="371.31" data-y="0.87" data-x="1595548800" r="1" fill="white"><title>2020-07-24: 1</title></circle>
	<circle cx="247.50" cy="371.77" data-y="0.76" data-x="1595635200" r="1" fill="white"><title>2020-07-25: 1</title></circle>
	<circle cx="249.08" cy="371.31" data-y="0.87" data-x="1595721600" r="1" fill="white"><title>2020-07-26: 1</title></circle>
	<circle cx="250.66" cy="371.31" data-y="0.87" data-x="1595808000" r="1" fill="white"><title>2020-07-27: 1</title></circle>
	<circle cx="252.23" cy="370.85" data-y="0.98" data-x="1595894400" r="1" fill="white"><title>2020-07-28: 1</title></circle>
	<circle cx="253.81" cy="370.39" data-y="1.09" data-x="1595980800" r="1" fill="white"><title>2020-07-29: 1</title></circle>
	<circle cx="255.39" cy="370.16" data-y="1.15" data-x="1596067200" r="1" fill="white"><title>2020-07-30: 1</title></circle>
	<circle cx="256.97" cy="369.93" data-y="1.20" data-x="1596153600" r="1" fill="white"><title>2020-07-31: 1</title></circle>
	<circle cx="258.55" cy="369.47" data-y="1.31" data-x="1596240000" r="1" fill="white"><title>2020-08-01: 1</title></circle>
	<circle cx="260.12" cy="369.93" data-y="1.20" data-x="1596326400" r="1" fill="white"><title>2020-08-02: 1</title></circle>
	<circle cx="261.70" cy="370.85" data-y="0.98" data-x="1596412800" r="1" fill="white"><title>2020-08-03: 1</title></circle>
	<circle cx="263.28" cy="370.85" data-y="0.98" data-x="1596499200" r="1" fill="white"><title>2020-08-04: 1</title></circle>
	<circle cx="264.86" cy="371.31" data-y="0.87" data-x="1596585600" r="1" fill="white"><title>2020-08-05: 1</title></circle>
	<circle cx="266.44" cy="371.31" data-y="0.87" data-x="1596672000" r="1" fill="white"><title>2020-08-06: 1</title></circle>
	<circle cx="268.01" cy="371.77" data-y="0.76" data-x="1596758400" r="1" fill="white"><title>2020-08-07: 1</title></circle>
	<circle cx="269.59" cy="372.23" data-y="0.65" data-x="1596844800" r="1" fill="white"><title>2020-08-08: 1</title></circle>
	<circle cx="271.17" cy="372.00" data-y="0.71" data-x="1596931200" r="1" fill="white"><title>2020-08-09: 1</title></circle>
	<circle cx="272.75" cy="372.00" data-y="0.71" data-x="1597017600" r="1" fill="white"><title>2020-08-10: 1</title></circle>
	<circle cx="274.33" cy="371.54" data-y="0.82" data-x="1597104000" r="1" fill="white"><title>2020-08-11: 1</title></circle>
	<circle cx="275.90" cy="370.85" data-y="0.98" data-x="1597190400" r="1" fill="white"><title>2020-08-12: 1</title></circle>
	<circle cx="277.48" cy="370.62" data-y="1.04" data-x="1597276800" r="1" fill="white"><title>2020-08-13: 1</title></circle>
	<circle cx="279.06" cy="370.62" data-y="1.04" data-x="1597363200" r="1" fill="white"><title>2020-08-14: 1</title></circle>
	<circle cx="280.64" cy="370.39" data-y="1.09" data-x="1597449600" r="1" fill="white"><title>2020-08-15: 1</title></circle>
	<circle cx="282.22" cy="370.16" data-y="1.15" data-x="1597536000" r="1" fill="white"><title>2020-08-16: 1</title></circle>
	<circle cx="283.79" cy="369.47" data-y="1.31" data-x="1597622400" r="1" fill="white"><title>2020-08-17: 1</title></circle>
	<circle cx="285.37" cy="369.01" data-y="1.42" data-x="1597708800" r="1" fill="white"><title>2020-08-18: 1</title></circle>
	<circle cx="286.95" cy="369.24" data-y="1.36" data-x="1597795200" r="1" fill="white"><title>2020-08-19: 1</title></circle>
	<circle cx="288.53" cy="367.85" data-y="1.69" data-x="1597881600" r="1" fill="white"><title>2020-08-20: 2</title></circle>
	<circle cx="290.11" cy="368.08" data-y="1.64" data-x="1597968000" r="1" fill="white"><title>2020-08-21: 2</title></circle>
	<circle cx="291.68" cy="368.08" data-y="1.64" data-x="1598054400" r="1" fill="white"><title>2020-08-22: 2</title></circle>
	<circle cx="293.26" cy="368.31" data-y="1.58" data-x="1598140800" r="1" fill="white"><title>2020-08-23: 2</title></circle>
	<circle cx="294.84" cy="365.32" data-y="2.29" data-x="1598227200" r="1" fill="white"><title>2020-08-24: 2</title></circle>
	<circle cx="296.42" cy="364.85" data-y="2.40" data-x="1598313600" r="1" fill="white"><title>2020-08-25: 2</title></circle>
	<circle cx="298.00" cy="364.39" data-y="2.51" data-x="1598400000" r="1" fill="white"><title>2020-08-26: 3</title></circle>
	<circle cx="299.57" cy="365.55" data-y="2.24" data-x="1598486400" r="1" fill="white"><title>2020-08-27: 2</title></circle>
	<circle cx="301.15" cy="364.39" data-y="2.51" data-x="1598572800" r="1" fill="white"><title>2020-08-28: 3</title></circle>
	<circle cx="302.73" cy="362.09" data-y="3.05" data-x="1598659200" r="1" fill="white"><title>2020-08-29: 3</title></circle>
	<circle cx="304.31" cy="360.01" data-y="3.55" data-x="1598745600" r="1" fill="white"><title>2020-08-30: 4</title></circle>
	<circle cx="305.89" cy="359.78" data-y="3.60" data-x="1598832000" r="1" fill="white"><title>2020-08-31: 4</title></circle>
	<circle cx="307.46" cy="358.86" data-y="3.82" data-x="1598918400" r="1" fill="white"><title>2020-09-01: 4</title></circle>
	<circle cx="309.04" cy="356.55" data-y="4.36" data-x="1599004800" r="1" fill="white"><title>2020-09-02: 4</title></circle>
	<circle cx="310.62" cy="353.56" data-y="5.07" data-x="1599091200" r="1" fill="white"><title>2020-09-03: 5</title></circle>
	<circle cx="312.20" cy="352.17" data-y="5.40" data-x="1599177600" r="1" fill="white"><title>2020-09-04: 5</title></circle>
	<circle cx="313.78" cy="352.40" data-y="5.35" data-x="1599264000" r="1" fill="white"><title>2020-09-05: 5</title></circle>
	<circle cx="315.35" cy="352.63" data-y="5.29" data-x="1599350400" r="1" fill="white"><title>2020-09-06: 5</title></circle>
	<circle cx="316.93" cy="354.02" data-y="4.96" data-x="1599436800" r="1" fill="white"><title>2020-09-07: 5</title></circle>
	<circle cx="318.51" cy="352.17" data-y="5.40" data-x="1599523200" r="1" fill="white"><title>2020-09-08: 5</title></circle>
	<circle cx="320.09" cy="354.48" data-y="4.85" data-x="1599609600" r="1" fill="white"><title>2020-09-09: 5</title></circle>
	<circle cx="321.67" cy="356.09" data-y="4.47" data-x="1599696000" r="1" fill="white"><title>2020-09-10: 4</title></circle>
	<circle cx="323.24" cy="357.71" data-y="4.09" data-x="1599782400" r="1" fill="white"><title>2020-09-11: 4</title></circle>
	<circle cx="324.82" cy="358.17" data-y="3.98" data-x="1599868800" r="1" fill="white"><title>2020-09-12: 4</title></circle>
	<circle cx="326.40" cy="358.40" data-y="3.93" data-x="1599955200" r="1" fill="white"><title>2020-09-13: 4</title></circle>
	<circle cx="327.98" cy="356.32" data-y="4.42" data-x="1600041600" r="1" fill="white"><title>2020-09-14: 4</title></circle>
	<circle cx="329.56" cy="356.32" data-y="4.42" data-x="1600128000" r="1" fill="white"><title>2020-09-15: 4</title></circle>
	<circle cx="331.13" cy="354.48" data-y="4.85" data-x="1600214400" r="1" fill="white"><title>2020-09-16: 5</title></circle>
	<circle cx="332.71" cy="352.40" data-y="5.35" data-x="1600300800" r="1" fill="white"><title>2020-09-17: 5</title></circle>
	<circle cx="334.29" cy="350.33" data-y="5.84" data-x="1600387200" r="1" fill="white"><title>2020-09-18: 6</title></circle>
	<circle cx="335.87" cy="348.95" data-y="6.16" data-x="1600473600" r="1" fill="white"><title>2020-09-19: 6</title></circle>
	<circle cx="337.45" cy="342.03" data-y="7.80" data-x="1600560000" r="1" fill="white"><title>2020-09-20: 8</title></circle>
	<circle cx="339.02" cy="342.49" data-y="7.69" data-x="1600646400" r="1" fill="white"><title>2020-09-21: 8</title></circle>
	<circle cx="340.60" cy="342.72" data-y="7.64" data-x="1600732800" r="1" fill="white"><title>2020-09-22: 8</title></circle>
	<circle cx="342.18" cy="339.49" data-y="8.40" data-x="1600819200" r="1" fill="white"><title>2020-09-23: 8</title></circle>
	<circle cx="343.76" cy="337.88" data-y="8.78" data-x="1600905600" r="1" fill="white"><title>2020-09-24: 9</title></circle>
	<circle cx="345.34" cy="335.11" data-y="9.44" data-x="1600992000" r="1" fill="white"><title>2020-09-25: 9</title></circle>
	<circle cx="346.91" cy="335.11" data-y="9.44" data-x="1601078400" r="1" fill="white"><title>2020-09-26: 9</title></circle>
	<circle cx="348.49" cy="338.80" data-y="8.56" data-x="1601164800" r="1" fill="white"><title>2020-09-27: 9</title></circle>
	<circle cx="350.07" cy="338.57" data-y="8.62" data-x="1601251200" r="1" fill="white"><title>2020-09-28: 9</title></circle>
	<circle cx="351.65" cy="336.26" data-y="9.16" data-x="1601337600" r="1" fill="white"><title>2020-09-29: 9</title></circle>
	<circle cx="353.23" cy="335.57" data-y="9.33" data-x="1601424000" r="1" fill="white"><title>2020-09-30: 9</title></circle>
	<circle cx="354.80" cy="337.65" data-y="8.84" data-x="1601510400" r="1" fill="white"><title>2020-10-01: 9</title></circle>
	<circle cx="356.38" cy="332.34" data-y="10.09" data-x="1601596800" r="1" fill="white"><title>2020-10-02: 10</title></circle>
	<circle cx="357.96" cy="329.81" data-y="10.69" data-x="1601683200" r="1" fill="white"><title>2020-10-03: 11</title></circle>
	<circle cx="359.54" cy="327.04" data-y="11.34" data-x="1601769600" r="1" fill="white"><title>2020-10-04: 11</title></circle>
	<circle cx="361.12" cy="319.20" data-y="13.20" data-x="1601856000" r="1" fill="white"><title>2020-10-05: 13</title></circle>
	<circle cx="362.70" cy="315.74" data-y="14.02" data-x="1601942400" r="1" fill="white"><title>2020-10-06: 14</title></circle>
	<circle cx="364.27" cy="317.59" data-y="13.58" data-x="1602028800" r="1" fill="white"><title>2020-10-07: 14</title></circle>
	<circle cx="365.85" cy="314.82" data-y="14.24" data-x="1602115200" r="1" fill="white"><title>2020-10-08: 14</title></circle>
	<circle cx="367.43" cy="312.74" data-y="14.73" data-x="1602201600" r="1" fill="white"><title>2020-10-09: 15</title></circle>
	<circle cx="369.01" cy="309.29" data-y="15.54" data-x="1602288000" r="1" fill="white"><title>2020-10-10: 16</title></circle>
	<circle cx="370.59" cy="305.37" data-y="16.47" data-x="1602374400" r="1" fill="white"><title>2020-10-11: 16</title></circle>
	<circle cx="372.16" cy="306.29" data-y="16.25" data-x="1602460800" r="1" fill="white"><title>2020-10-12: 16</title></circle>
	<circle cx="373.74" cy="306.52" data-y="16.20" data-x="1602547200" r="1" fill="white"><title>2020-10-13: 16</title></circle>
	<circle cx="375.32" cy="304.44" data-y="16.69" data-x="1602633600" r="1" fill="white"><title>2020-10-14: 17</title></circle>
	<circle cx="376.90" cy="301.22" data-y="17.45" data-x="1602720000" r="1" fill="white"><title>2020-10-15: 17</title></circle>
	<circle cx="378.48" cy="299.83" data-y="17.78" data-x="1602806400" r="1" fill="white"><title>2020-10-16: 18</title></circle>
	<circle cx="380.05" cy="287.84" data-y="20.62" data-x="1602892800" r="1" fill="white"><title>2020-10-17: 21</title></circle>
	<circle cx="381.63" cy="286.69" data-y="20.89" data-x="1602979200" r="1" fill="white"><title>2020-10-18: 21</title></circle>
	<circle cx="383.21" cy="280.00" data-y="22.47" data-x="1603065600" r="1" fill="white"><title>2020-10-19: 22</title></circle>
	<circle cx="384.79" cy="277.01" data-y="23.18" data-x="1603152000" r="1" fill="white"><title>2020-10-20: 23</title></circle>
	<circle cx="386.37" cy="274.01" data-y="23.89" data-x="1603238400" r="1" fill="white"><title>2020-10-21: 24</title></circle>
	<circle cx="387.94" cy="271.24" data-y="24.54" data-x="1603324800" r="1" fill="white"><title>2020-10-22: 25</title></circle>
	<circle cx="389.52" cy="263.17" data-y="26.45" data-x="1603411200" r="1" fill="white"><title>2020-10-23: 26</title></circle>
	<circle cx="391.10" cy="267.55" data-y="25.42" data-x="1603497600" r="1" fill="white"><title>2020-10-24: 25</title></circle>
	<circle cx="392.68" cy="264.09" data-y="26.23" data-x="1603584000" r="1" fill="white"><title>2020-10-25: 26</title></circle>
	<circle cx="394.26" cy="264.09" data-y="26.23" data-x="1603670400" r="1" fill="white"><title>2020-10-26: 26</title></circle>
	<circle cx="395.83" cy="258.56" data-y="27.54" data-x="1603756800" r="1" fill="white"><title>2020-10-27: 28</title></circle>
	<circle cx="397.41" cy="249.34" data-y="29.73" data-x="1603843200" r="1" fill="white"><title>2020-10-28: 30</title></circle>
	<circle cx="398.99" cy="250.03" data-y="29.56" data-x="1603929600" r="1" fill="white"><title>2020-10-29: 30</title></circle>
	<circle cx="400.57" cy="238.04" data-y="32.40" data-x="1604016000" r="1" fill="white"><title>2020-10-30: 32</title></circle>
	<circle cx="402.15" cy="229.74" data-y="34.36" data-x="1604102400" r="1" fill="white"><title>2020-10-31: 34</title></circle>
	<circle cx="403.72" cy="222.59" data-y="36.05" data-x="1604188800" r="1" fill="white"><title>2020-11-01: 36</title></circle>
	<circle cx="405.30" cy="213.60" data-y="38.18" data-x="1604275200" r="1" fill="white"><title>2020-11-02: 38</title></circle>
	<circle cx="406.88" cy="210.60" data-y="38.89" data-x="1604361600" r="1" fill="white"><title>2020-11-03: 39</title></circle>
	<circle cx="408.46" cy="212.68" data-y="38.40" data-x="1604448000" r="1" fill="white"><title>2020-11-04: 38</title></circle>
	<circle cx="410.04" cy="207.60" data-y="39.60" data-x="1604534400" r="1" fill="white"><title>2020-11-05: 40</title></circle>
	<circle cx="411.61" cy="204.37" data-y="40.36" data-x="1604620800" r="1" fill="white"><title>2020-11-06: 40</title></circle>
	<circle cx="413.19" cy="202.99" data-y="40.69" data-x="1604707200" r="1" fill="white"><title>2020-11-07: 41</title></circle>
	<circle cx="414.77" cy="189.85" data-y="43.80" data-x="1604793600" r="1" fill="white"><title>2020-11-08: 44</title></circle>
	<circle cx="416.35" cy="182.93" data-y="45.43" data-x="1604880000" r="1" fill="white"><title>2020-11-09: 45</title></circle>
	<circle cx="417.93" cy="165.64" data-y="49.52" data-x="1604966400" r="1" fill="white"><title>2020-11-10: 50</title></circle>
	<circle cx="419.50" cy="151.80" data-y="52.80" data-x="1605052800" r="1" fill="white"><title>2020-11-11: 53</title></circle>
	<circle cx="421.08" cy="144.43" data-y="54.54" data-x="1605139200" r="1" fill="white"><title>2020-11-12: 55</title></circle>
	<circle cx="422.66" cy="143.27" data-y="54.81" data-x="1605225600" r="1" fill="white"><title>2020-11-13: 55</title></circle>
	<circle cx="424.24" cy="136.36" data-y="56.45" data-x="1605312000" r="1" fill="white"><title>2020-11-14: 56</title></circle>
	<circle cx="425.82" cy="142.81" data-y="54.92" data-x="1605398400" r="1" fill="white"><title>2020-11-15: 55</title></circle>
	<circle cx="427.39" cy="143.27" data-y="54.81" data-x="1605484800" r="1" fill="white"><title>2020-11-16: 55</title></circle>
	<circle cx="428.97" cy="159.41" data-y="51.00" data-x="1605571200" r="1" fill="white"><title>2020-11-17: 51</title></circle>
	<circle cx="430.55" cy="173.25" data-y="47.72" data-x="1605657600" r="1" fill="white"><title>2020-11-18: 48</title></circle>
	<circle cx="432.13" cy="176.48" data-y="46.96" data-x="1605744000" r="1" fill="white"><title>2020-11-19: 47</title></circle>
	<circle cx="433.71" cy="189.62" data-y="43.85" data-x="1605830400" r="1" fill="white"><title>2020-11-20: 44</title></circle>
	<circle cx="435.28" cy="202.76" data-y="40.74" data-x="1605916800" r="1" fill="white"><title>2020-11-21: 41</title></circle>
	<circle cx="436.86" cy="204.14" data-y="40.42" data-x="1606003200" r="1" fill="white"><title>2020-11-22: 40</title></circle>
	<circle cx="438.44" cy="214.52" data-y="37.96" data-x="1606089600" r="1" fill="white"><title>2020-11-23: 38</title></circle>
	<circle cx="440.02" cy="209.91" data-y="39.05" data-x="1606176000" r="1" fill="white"><title>2020-11-24: 39</title></circle>
	<circle cx="441.60" cy="202.07" data-y="40.91" data-x="1606262400" r="1" fill="white"><title>2020-11-25: 41</title></circle>
	<circle cx="443.17" cy="201.38" data-y="41.07" data-x="1606348800" r="1" fill="white"><title>2020-11-26: 41</title></circle>
	<circle cx="444.75" cy="194.00" data-y="42.82" data-x="1606435200" r="1" fill="white"><title>2020-11-27: 43</title></circle>
	<circle cx="446.33" cy="185.24" data-y="44.89" data-x="1606521600" r="1" fill="white"><title>2020-11-28: 45</title></circle>
	<circle cx="447.91" cy="182.70" data-y="45.49" data-x="1606608000" r="1" fill="white"><title>2020-11-29: 45</title></circle>
	<circle cx="449.49" cy="166.56" data-y="49.31" data-x="1606694400" r="1" fill="white"><title>2020-11-30: 49</title></circle>
	<circle cx="451.06" cy="156.88" data-y="51.60" data-x="1606780800" r="1" fill="white"><title>2020-12-01: 52</title></circle>
	<circle cx="452.64" cy="147.19" data-y="53.89" data-x="1606867200" r="1" fill="white"><title>2020-12-02: 54</title></circle>
	<circle cx="454.22" cy="134.51" data-y="56.89" data-x="1606953600" r="1" fill="white"><title>2020-12-03: 57</title></circle>
	<circle cx="455.80" cy="115.37" data-y="61.41" data-x="1607040000" r="1" fill="white"><title>2020-12-04: 61</title></circle>
	<circle cx="457.38" cy="92.55" data-y="66.81" data-x="1607126400" r="1" fill="white"><title>2020-12-05: 67</title></circle>
	<circle cx="458.95" cy="70.41" data-y="72.05" data-x="1607212800" r="1" fill="white"><title>2020-12-06: 72</title></circle>
	<circle cx="460.53" cy="51.27" data-y="76.58" data-x="1607299200" r="1" fill="white"><title>2020-12-07: 77</title></circle>
	<circle cx="462.11" cy="26.14" data-y="82.52" data-x="1607385600" r="1" fill="white"><title>2020-12-08: 83</title></circle>
</g>
<g data-series="recent-cases" class="data-series">
	<path d="M 462.11,26.14L 463.69,10.00L 465.27,44.36L 466.84,50.58L 468.42,59.62L 470.00,74.79" id="Recent cases" class="line" stroke-width="1" stroke-linecap="round" stroke-dasharray="4,6" stroke-dashoffset="4"><title>Recent cases</title></path>
	<circle cx="462.11" cy="26.14" data-y="82.52" data-x="1607385600" r="2.5" fill="white"><title>2020-12-08: 83</title></circle>
	<circle cx="463.69" cy="10.00" data-y="86.34" data-x="1607472000" r="2.5" fill="white"><title>2020-12-09: 86</title></circle>
	<circle cx="465.27" cy="44.36" data-y="78.21" data-x="1607558400" r="2.5" fill="white"><title>2020-12-10: 78</title></circle>
	<circle cx="466.84" cy="50.58" data-y="76.74" data-x="1607644800" r="2.5" fill="white"><title>2020-12-11: 77</title></circle>
	<circle cx="468.42" cy="59.62" data-y="74.60" data-x="1607731200" r="2.5" fill="white"><title>2020-12-12: 75</title></circle>
	<circle cx="470.00" cy="74.79" data-y="71.01" data-x="1607817600" r="2.5" fill="white"><title>2020-12-13: 71</title></circle>
</g>
</svg>
