<svg width="480" height="400" viewBox="0 0 480 400" xmlns="http://www.w3.org/2000/svg" style="overflow:display" preserveAspectRatio="xMinYMin meet" overflow="visible">
<defs>
	<style>
	.data-series path.line { fill-opacity: 0; stroke: black; }
	.data-series path.line.dotted { stroke-dasharray: 12 20 }
	.data-series:hover path.line, .data-series.on path.line { stroke-width: 1; }
	.data-series:hover circle, .data-series.on circle { display: inline; }
	.graph-grid { font-family: "Helvetica Neue",Helvetica,Arial,"Lucida Grande",sans-serif; }
	.graph-grid line { stroke: black; stroke-width: 1; stroke-linecap: round; }
	.graph-grid.graph-grid-x text { text-anchor: middle; dominant-baseline: hanging; transform: translateY(10px); }
	.graph-grid.graph-grid-y text { text-anchor: end; dominant-baseline: middle; transform: translateX(-10px); }
	</style>
</defs>
<g class="graph-grid graph-grid-y">
	<line x1="25.00" y1="375.00" x2="470.00" y2="375.00" data-left="25"></line>
	<text x="35" y="375" text-anchor="end">0</text>
	<text x="35" y="260.453053317536" text-anchor="end">10</text>
	<text x="35" y="145.906106635071" text-anchor="end">20</text>
	<text x="35" y="31.3591599526066" text-anchor="end">30</text>
	<text style="text-anchor:middle;dominant-baseline:hanging;font-weight:bold;transform: translateY(192.5px) rotate(-90deg);"></text>
</g>
<g class="graph-grid graph-grid-x">
	<line class="tick" x1="71.84" y1="375.00" x2="71.84" y2="380.00"></line>
	<text x="71.8421052631579" y="375" text-anchor="middle">A</text>
	<line class="tick" x1="122.03" y1="375.00" x2="122.03" y2="380.00"></line>
	<text x="122.03007518797" y="375" text-anchor="middle">M</text>
	<line class="tick" x1="173.89" y1="375.00" x2="173.89" y2="380.00"></line>
	<text x="173.890977443609" y="375" text-anchor="middle">J</text>
	<line class="tick" x1="224.08" y1="375.00" x2="224.08" y2="380.00"></line>
	<text x="224.078947368421" y="375" text-anchor="middle">J</text>
	<line class="tick" x1="275.94" y1="375.00" x2="275.94" y2="380.00"></line>
	<text x="275.93984962406" y="375" text-anchor="middle">A</text>
	<line class="tick" x1="327.80" y1="375.00" x2="327.80" y2="380.00"></line>
	<text x="327.800751879699" y="375" text-anchor="middle">S</text>
	<line class="tick" x1="377.99" y1="375.00" x2="377.99" y2="380.00"></line>
	<text x="377.988721804511" y="375" text-anchor="middle">O</text>
	<line class="tick" x1="429.85" y1="375.00" x2="429.85" y2="380.00"></line>
	<text x="429.84962406015" y="375" text-anchor="middle">N</text>
	<text style="text-anchor:middle;dominant-baseline:hanging;font-weight:bold;transform: translateY(192.5px) rotate(-90deg);"></text>
</g>
<g data-series="widespread" class="data-series">
	<path d="M 25.00,294.82L 470.00,294.82" id="E09000013-level-0" class="line" stroke-width="1" stroke-linecap="round" stroke-dasharray="3,3" fill-opacity="0.3" opacity="0.3"><title>Widespread</title></path>
</g>
<g data-series="substantial" class="data-series">
	<path d="M 25.00,329.18L 470.00,329.18" id="E09000013-level-1" class="line" stroke-width="1" stroke-linecap="round" stroke-dasharray="3,3" fill-opacity="0.3" opacity="0.3"><title>Substantial</title></path>
</g>
<g data-series="moderate" class="data-series">
	<path d="M 25.00,363.55L 470.00,363.55" id="E09000013-level-2" class="line" stroke-width="1" stroke-linecap="round" stroke-dasharray="3,3" fill-opacity="0.3" opacity="0.3"><title>Moderate</title></path>
</g>
<g data-series="new-cases" class="data-series">
	<path d="M 25.00,370.46L 26.67,371.37L 28.35,368.95L 30.02,367.22L 31.69,358.57L 33.36,357.70L 35.04,356.84L 36.71,355.11L 38.38,352.51L 40.06,352.51L 41.73,348.19L 43.40,349.92L 45.08,348.19L 46.75,343.86L 48.42,336.08L 50.09,326.56L 51.77,317.91L 53.44,312.73L 55.11,304.08L 56.79,285.91L 58.46,285.91L 60.13,285.05L 61.80,291.10L 63.48,291.97L 65.15,287.64L 66.82,280.72L 68.50,282.45L 70.17,272.07L 71.84,268.61L 73.52,266.02L 75.19,262.56L 76.86,259.96L 78.53,266.88L 80.21,277.26L 81.88,279.86L 83.55,290.24L 85.23,292.83L 86.90,298.89L 88.57,310.13L 90.24,300.62L 91.92,287.64L 93.59,287.64L 95.26,287.64L 96.94,288.51L 98.61,287.64L 100.28,278.99L 101.95,285.05L 103.63,262.56L 105.30,268.61L 106.97,269.48L 108.65,270.34L 110.32,275.53L 111.99,288.51L 113.67,300.62L 115.34,340.40L 117.01,341.27L 118.68,343.00L 120.36,345.59L 122.03,344.73L 123.70,347.32L 125.38,353.38L 127.05,354.24L 128.72,359.43L 130.39,359.43L 132.07,360.30L 133.74,362.89L 135.41,362.03L 137.09,361.16L 138.76,363.76L 140.43,364.62L 142.11,365.49L 143.78,365.49L 145.45,364.62L 147.12,365.49L 148.80,363.76L 150.47,362.89L 152.14,361.16L 153.82,361.16L 155.49,362.03L 157.16,363.76L 158.83,363.76L 160.51,368.08L 162.18,369.81L 163.85,371.54L 165.53,371.54L 167.20,371.54L 168.87,371.54L 170.55,370.68L 172.22,368.08L 173.89,367.22L 175.56,368.95L 177.24,367.22L 178.91,366.35L 180.58,366.35L 182.26,367.22L 183.93,368.95L 185.60,369.81L 187.27,368.95L 188.95,370.68L 190.62,370.68L 192.29,371.54L 193.97,372.41L 195.64,370.68L 197.31,368.95L 198.98,368.08L 200.66,367.22L 202.33,368.08L 204.00,365.49L 205.68,362.89L 207.35,362.03L 209.02,360.30L 210.70,362.03L 212.37,358.57L 214.04,358.57L 215.71,361.16L 217.39,361.16L 219.06,363.76L 220.73,366.35L 222.41,364.62L 224.08,368.95L 225.75,366.35L 227.42,366.35L 229.10,368.95L 230.77,368.95L 232.44,368.08L 234.12,369.81L 235.79,369.81L 237.46,372.41L 239.14,371.54L 240.81,371.54L 242.48,372.41L 244.15,373.27L 245.83,371.54L 247.50,371.54L 249.17,371.54L 250.85,369.81L 252.52,368.95L 254.19,365.49L 255.86,365.49L 257.54,362.89L 259.21,362.03L 260.88,360.30L 262.56,360.30L 264.23,361.16L 265.90,363.76L 267.58,362.03L 269.25,362.89L 270.92,360.30L 272.59,362.03L 274.27,363.76L 275.94,360.30L 277.61,357.70L 279.29,358.57L 280.96,355.97L 282.63,356.84L 284.30,356.84L 285.98,354.24L 287.65,354.24L 289.32,352.51L 291.00,349.92L 292.67,350.78L 294.34,349.92L 296.02,349.92L 297.69,347.32L 299.36,349.05L 301.03,353.38L 302.71,348.19L 304.38,350.78L 306.05,348.19L 307.73,344.73L 309.40,344.73L 311.07,342.13L 312.74,338.67L 314.42,343.00L 316.09,338.67L 317.76,340.40L 319.44,338.67L 321.11,340.40L 322.78,333.48L 324.45,330.89L 326.13,328.29L 327.80,326.56L 329.47,323.10L 331.15,326.56L 332.82,323.10L 334.49,327.43L 336.17,329.16L 337.84,330.02L 339.51,334.35L 341.18,333.48L 342.86,330.89L 344.53,333.48L 346.20,336.08L 347.88,333.48L 349.55,336.94L 351.22,333.48L 352.89,336.08L 354.57,339.54L 356.24,340.40L 357.91,334.35L 359.59,329.16L 361.26,317.05L 362.93,315.32L 364.61,304.94L 366.28,299.75L 367.95,290.24L 369.62,289.37L 371.30,278.99L 372.97,268.61L 374.64,262.56L 376.32,262.56L 377.99,254.77L 379.66,246.99L 381.33,231.42L 383.01,229.69L 384.68,222.77L 386.35,211.53L 388.03,197.69L 389.70,201.15L 391.37,189.91L 393.05,178.66L 394.72,163.96L 396.39,150.12L 398.06,131.09L 399.74,127.63L 401.41,109.47L 403.08,85.25L 404.76,60.17L 406.43,44.60L 408.10,32.49L 409.77,25.57L 411.45,22.97L 413.12,16.92L 414.79,10.00L 416.47,23.84L 418.14,13.46L 419.81,30.76L 421.48,48.92L 423.16,56.71L 424.83,67.09L 426.50,75.73L 428.18,85.25L 429.85,113.79L 431.52,118.12L 433.20,118.98L 434.87,115.52L 436.54,111.20L 438.21,106.87L 439.89,89.57L 441.56,61.90L 443.23,60.17L 444.91,28.16L 446.58,31.62L 448.25,31.62L 449.92,45.46L 451.60,67.09L 453.27,86.98L 454.94,82.65L 456.62,112.93L 458.29,119.85L 459.96,126.77L 461.64,146.66" id="New cases" class="line" stroke-width="1" stroke-linecap="round"><title>New cases</title></path>
	<circle cx="25.00" cy="370.46" data-y="0.40" data-x="1583280000" r="1" fill="white"><title>2020-03-04: 0</title></circle>
	<circle cx="26.67" cy="371.37" data-y="0.32" data-x="1583366400" r="1" fill="white"><title>2020-03-05: 0</title></circle>
	<circle cx="28.35" cy="368.95" data-y="0.53" data-x="1583452800" r="1" fill="white"><title>2020-03-06: 1</title></circle>
	<circle cx="30.02" cy="367.22" data-y="0.68" data-x="1583539200" r="1" fill="white"><title>2020-03-07: 1</title></circle>
	<circle cx="31.69" cy="358.57" data-y="1.43" data-x="1583625600" r="1" fill="white"><title>2020-03-08: 1</title></circle>
	<circle cx="33.36" cy="357.70" data-y="1.51" data-x="1583712000" r="1" fill="white"><title>2020-03-09: 2</title></circle>
	<circle cx="35.04" cy="356.84" data-y="1.59" data-x="1583798400" r="1" fill="white"><title>2020-03-10: 2</title></circle>
	<circle cx="36.71" cy="355.11" data-y="1.74" data-x="1583884800" r="1" fill="white"><title>2020-03-11: 2</title></circle>
	<circle cx="38.38" cy="352.51" data-y="1.96" data-x="1583971200" r="1" fill="white"><title>2020-03-12: 2</title></circle>
	<circle cx="40.06" cy="352.51" data-y="1.96" data-x="1584057600" r="1" fill="white"><title>2020-03-13: 2</title></circle>
	<circle cx="41.73" cy="348.19" data-y="2.34" data-x="1584144000" r="1" fill="white"><title>2020-03-14: 2</title></circle>
	<circle cx="43.40" cy="349.92" data-y="2.19" data-x="1584230400" r="1" fill="white"><title>2020-03-15: 2</title></circle>
	<circle cx="45.08" cy="348.19" data-y="2.34" data-x="1584316800" r="1" fill="white"><title>2020-03-16: 2</title></circle>
	<circle cx="46.75" cy="343.86" data-y="2.72" data-x="1584403200" r="1" fill="white"><title>2020-03-17: 3</title></circle>
	<circle cx="48.42" cy="336.08" data-y="3.40" data-x="1584489600" r="1" fill="white"><title>2020-03-18: 3</title></circle>
	<circle cx="50.09" cy="326.56" data-y="4.23" data-x="1584576000" r="1" fill="white"><title>2020-03-19: 4</title></circle>
	<circle cx="51.77" cy="317.91" data-y="4.98" data-x="1584662400" r="1" fill="white"><title>2020-03-20: 5</title></circle>
	<circle cx="53.44" cy="312.73" data-y="5.44" data-x="1584748800" r="1" fill="white"><title>2020-03-21: 5</title></circle>
	<circle cx="55.11" cy="304.08" data-y="6.19" data-x="1584835200" r="1" fill="white"><title>2020-03-22: 6</title></circle>
	<circle cx="56.79" cy="285.91" data-y="7.78" data-x="1584921600" r="1" fill="white"><title>2020-03-23: 8</title></circle>
	<circle cx="58.46" cy="285.91" data-y="7.78" data-x="1585008000" r="1" fill="white"><title>2020-03-24: 8</title></circle>
	<circle cx="60.13" cy="285.05" data-y="7.85" data-x="1585094400" r="1" fill="white"><title>2020-03-25: 8</title></circle>
	<circle cx="61.80" cy="291.10" data-y="7.32" data-x="1585180800" r="1" fill="white"><title>2020-03-26: 7</title></circle>
	<circle cx="63.48" cy="291.97" data-y="7.25" data-x="1585267200" r="1" fill="white"><title>2020-03-27: 7</title></circle>
	<circle cx="65.15" cy="287.64" data-y="7.63" data-x="1585353600" r="1" fill="white"><title>2020-03-28: 8</title></circle>
	<circle cx="66.82" cy="280.72" data-y="8.23" data-x="1585440000" r="1" fill="white"><title>2020-03-29: 8</title></circle>
	<circle cx="68.50" cy="282.45" data-y="8.08" data-x="1585526400" r="1" fill="white"><title>2020-03-30: 8</title></circle>
	<circle cx="70.17" cy="272.07" data-y="8.99" data-x="1585612800" r="1" fill="white"><title>2020-03-31: 9</title></circle>
	<circle cx="71.84" cy="268.61" data-y="9.29" data-x="1585699200" r="1" fill="white"><title>2020-04-01: 9</title></circle>
	<circle cx="73.52" cy="266.02" data-y="9.51" data-x="1585785600" r="1" fill="white"><title>2020-04-02: 10</title></circle>
	<circle cx="75.19" cy="262.56" data-y="9.82" data-x="1585872000" r="1" fill="white"><title>2020-04-03: 10</title></circle>
	<circle cx="76.86" cy="259.96" data-y="10.04" data-x="1585958400" r="1" fill="white"><title>2020-04-04: 10</title></circle>
	<circle cx="78.53" cy="266.88" data-y="9.44" data-x="1586044800" r="1" fill="white"><title>2020-04-05: 9</title></circle>
	<circle cx="80.21" cy="277.26" data-y="8.53" data-x="1586131200" r="1" fill="white"><title>2020-04-06: 9</title></circle>
	<circle cx="81.88" cy="279.86" data-y="8.31" data-x="1586217600" r="1" fill="white"><title>2020-04-07: 8</title></circle>
	<circle cx="83.55" cy="290.24" data-y="7.40" data-x="1586304000" r="1" fill="white"><title>2020-04-08: 7</title></circle>
	<circle cx="85.23" cy="292.83" data-y="7.17" data-x="1586390400" r="1" fill="white"><title>2020-04-09: 7</title></circle>
	<circle cx="86.90" cy="298.89" data-y="6.64" data-x="1586476800" r="1" fill="white"><title>2020-04-10: 7</title></circle>
	<circle cx="88.57" cy="310.13" data-y="5.66" data-x="1586563200" r="1" fill="white"><title>2020-04-11: 6</title></circle>
	<circle cx="90.24" cy="300.62" data-y="6.49" data-x="1586649600" r="1" fill="white"><title>2020-04-12: 6</title></circle>
	<circle cx="91.92" cy="287.64" data-y="7.63" data-x="1586736000" r="1" fill="white"><title>2020-04-13: 8</title></circle>
	<circle cx="93.59" cy="287.64" data-y="7.63" data-x="1586822400" r="1" fill="white"><title>2020-04-14: 8</title></circle>
	<circle cx="95.26" cy="287.64" data-y="7.63" data-x="1586908800" r="1" fill="white"><title>2020-04-15: 8</title></circle>
	<circle cx="96.94" cy="288.51" data-y="7.55" data-x="1586995200" r="1" fill="white"><title>2020-04-16: 8</title></circle>
	<circle cx="98.61" cy="287.64" data-y="7.63" data-x="1587081600" r="1" fill="white"><title>2020-04-17: 8</title></circle>
	<circle cx="100.28" cy="278.99" data-y="8.38" data-x="1587168000" r="1" fill="white"><title>2020-04-18: 8</title></circle>
	<circle cx="101.95" cy="285.05" data-y="7.85" data-x="1587254400" r="1" fill="white"><title>2020-04-19: 8</title></circle>
	<circle cx="103.63" cy="262.56" data-y="9.82" data-x="1587340800" r="1" fill="white"><title>2020-04-20: 10</title></circle>
	<circle cx="105.30" cy="268.61" data-y="9.29" data-x="1587427200" r="1" fill="white"><title>2020-04-21: 9</title></circle>
	<circle cx="106.97" cy="269.48" data-y="9.21" data-x="1587513600" r="1" fill="white"><title>2020-04-22: 9</title></circle>
	<circle cx="108.65" cy="270.34" data-y="9.14" data-x="1587600000" r="1" fill="white"><title>2020-04-23: 9</title></circle>
	<circle cx="110.32" cy="275.53" data-y="8.68" data-x="1587686400" r="1" fill="white"><title>2020-04-24: 9</title></circle>
	<circle cx="111.99" cy="288.51" data-y="7.55" data-x="1587772800" r="1" fill="white"><title>2020-04-25: 8</title></circle>
	<circle cx="113.67" cy="300.62" data-y="6.49" data-x="1587859200" r="1" fill="white"><title>2020-04-26: 6</title></circle>
	<circle cx="115.34" cy="340.40" data-y="3.02" data-x="1587945600" r="1" fill="white"><title>2020-04-27: 3</title></circle>
	<circle cx="117.01" cy="341.27" data-y="2.94" data-x="1588032000" r="1" fill="white"><title>2020-04-28: 3</title></circle>
	<circle cx="118.68" cy="343.00" data-y="2.79" data-x="1588118400" r="1" fill="white"><title>2020-04-29: 3</title></circle>
	<circle cx="120.36" cy="345.59" data-y="2.57" data-x="1588204800" r="1" fill="white"><title>2020-04-30: 3</title></circle>
	<circle cx="122.03" cy="344.73" data-y="2.64" data-x="1588291200" r="1" fill="white"><title>2020-05-01: 3</title></circle>
	<circle cx="123.70" cy="347.32" data-y="2.42" data-x="1588377600" r="1" fill="white"><title>2020-05-02: 2</title></circle>
	<circle cx="125.38" cy="353.38" data-y="1.89" data-x="1588464000" r="1" fill="white"><title>2020-05-03: 2</title></circle>
	<circle cx="127.05" cy="354.24" data-y="1.81" data-x="1588550400" r="1" fill="white"><title>2020-05-04: 2</title></circle>
	<circle cx="128.72" cy="359.43" data-y="1.36" data-x="1588636800" r="1" fill="white"><title>2020-05-05: 1</title></circle>
	<circle cx="130.39" cy="359.43" data-y="1.36" data-x="1588723200" r="1" fill="white"><title>2020-05-06: 1</title></circle>
	<circle cx="132.07" cy="360.30" data-y="1.28" data-x="1588809600" r="1" fill="white"><title>2020-05-07: 1</title></circle>
	<circle cx="133.74" cy="362.89" data-y="1.06" data-x="1588896000" r="1" fill="white"><title>2020-05-08: 1</title></circle>
	<circle cx="135.41" cy="362.03" data-y="1.13" data-x="1588982400" r="1" fill="white"><title>2020-05-09: 1</title></circle>
	<circle cx="137.09" cy="361.16" data-y="1.21" data-x="1589068800" r="1" fill="white"><title>2020-05-10: 1</title></circle>
	<circle cx="138.76" cy="363.76" data-y="0.98" data-x="1589155200" r="1" fill="white"><title>2020-05-11: 1</title></circle>
	<circle cx="140.43" cy="364.62" data-y="0.91" data-x="1589241600" r="1" fill="white"><title>2020-05-12: 1</title></circle>
	<circle cx="142.11" cy="365.49" data-y="0.83" data-x="1589328000" r="1" fill="white"><title>2020-05-13: 1</title></circle>
	<circle cx="143.78" cy="365.49" data-y="0.83" data-x="1589414400" r="1" fill="white"><title>2020-05-14: 1</title></circle>
	<circle cx="145.45" cy="364.62" data-y="0.91" data-x="1589500800" r="1" fill="white"><title>2020-05-15: 1</title></circle>
	<circle cx="147.12" cy="365.49" data-y="0.83" data-x="1589587200" r="1" fill="white"><title>2020-05-16: 1</title></circle>
	<circle cx="148.80" cy="363.76" data-y="0.98" data-x="1589673600" r="1" fill="white"><title>2020-05-17: 1</title></circle>
	<circle cx="150.47" cy="362.89" data-y="1.06" data-x="1589760000" r="1" fill="white"><title>2020-05-18: 1</title></circle>
	<circle cx="152.14" cy="361.16" data-y="1.21" data-x="1589846400" r="1" fill="white"><title>2020-05-19: 1</title></circle>
	<circle cx="153.82" cy="361.16" data-y="1.21" data-x="1589932800" r="1" fill="white"><title>2020-05-20: 1</title></circle>
	<circle cx="155.49" cy="362.03" data-y="1.13" data-x="1590019200" r="1" fill="white"><title>2020-05-21: 1</title></circle>
	<circle cx="157.16" cy="363.76" data-y="0.98" data-x="1590105600" r="1" fill="white"><title>2020-05-22: 1</title></circle>
	<circle cx="158.83" cy="363.76" data-y="0.98" data-x="1590192000" r="1" fill="white"><title>2020-05-23: 1</title></circle>
	<circle cx="160.51" cy="368.08" data-y="0.60" data-x="1590278400" r="1" fill="white"><title>2020-05-24: 1</title></circle>
	<circle cx="162.18" cy="369.81" data-y="0.45" data-x="1590364800" r="1" fill="white"><title>2020-05-25: 0</title></circle>
	<circle cx="163.85" cy="371.54" data-y="0.30" data-x="1590451200" r="1" fill="white"><title>2020-05-26: 0</title></circle>
	<circle cx="165.53" cy="371.54" data-y="0.30" data-x="1590537600" r="1" fill="white"><title>2020-05-27: 0</title></circle>
	<circle cx="167.20" cy="371.54" data-y="0.30" data-x="1590624000" r="1" fill="white"><title>2020-05-28: 0</title></circle>
	<circle cx="168.87" cy="371.54" data-y="0.30" data-x="1590710400" r="1" fill="white"><title>2020-05-29: 0</title></circle>
	<circle cx="170.55" cy="370.68" data-y="0.38" data-x="1590796800" r="1" fill="white"><title>2020-05-30: 0</title></circle>
	<circle cx="172.22" cy="368.08" data-y="0.60" data-x="1590883200" r="1" fill="white"><title>2020-05-31: 1</title></circle>
	<circle cx="173.89" cy="367.22" data-y="0.68" data-x="1590969600" r="1" fill="white"><title>2020-06-01: 1</title></circle>
	<circle cx="175.56" cy="368.95" data-y="0.53" data-x="1591056000" r="1" fill="white"><title>2020-06-02: 1</title></circle>
	<circle cx="177.24" cy="367.22" data-y="0.68" data-x="1591142400" r="1" fill="white"><title>2020-06-03: 1</title></circle>
	<circle cx="178.91" cy="366.35" data-y="0.76" data-x="1591228800" r="1" fill="white"><title>2020-06-04: 1</title></circle>
	<circle cx="180.58" cy="366.35" data-y="0.76" data-x="1591315200" r="1" fill="white"><title>2020-06-05: 1</title></circle>
	<circle cx="182.26" cy="367.22" data-y="0.68" data-x="1591401600" r="1" fill="white"><title>2020-06-06: 1</title></circle>
	<circle cx="183.93" cy="368.95" data-y="0.53" data-x="1591488000" r="1" fill="white"><title>2020-06-07: 1</title></circle>
	<circle cx="185.60" cy="369.81" data-y="0.45" data-x="1591574400" r="1" fill="white"><title>2020-06-08: 0</title></circle>
	<circle cx="187.27" cy="368.95" data-y="0.53" data-x="1591660800" r="1" fill="white"><title>2020-06-09: 1</title></circle>
	<circle cx="188.95" cy="370.68" data-y="0.38" data-x="1591747200" r="1" fill="white"><title>2020-06-10: 0</title></circle>
	<circle cx="190.62" cy="370.68" data-y="0.38" data-x="1591833600" r="1" fill="white"><title>2020-06-11: 0</title></circle>
	<circle cx="192.29" cy="371.54" data-y="0.30" data-x="1591920000" r="1" fill="white"><title>2020-06-12: 0</title></circle>
	<circle cx="193.97" cy="372.41" data-y="0.23" data-x="1592006400" r="1" fill="white"><title>2020-06-13: 0</title></circle>
	<circle cx="195.64" cy="370.68" data-y="0.38" data-x="1592092800" r="1" fill="white"><title>2020-06-14: 0</title></circle>
	<circle cx="197.31" cy="368.95" data-y="0.53" data-x="1592179200" r="1" fill="white"><title>2020-06-15: 1</title></circle>
	<circle cx="198.98" cy="368.08" data-y="0.60" data-x="1592265600" r="1" fill="white"><title>2020-06-16: 1</title></circle>
	<circle cx="200.66" cy="367.22" data-y="0.68" data-x="1592352000" r="1" fill="white"><title>2020-06-17: 1</title></circle>
	<circle cx="202.33" cy="368.08" data-y="0.60" data-x="1592438400" r="1" fill="white"><title>2020-06-18: 1</title></circle>
	<circle cx="204.00" cy="365.49" data-y="0.83" data-x="1592524800" r="1" fill="white"><title>2020-06-19: 1</title></circle>
	<circle cx="205.68" cy="362.89" data-y="1.06" data-x="1592611200" r="1" fill="white"><title>2020-06-20: 1</title></circle>
	<circle cx="207.35" cy="362.03" data-y="1.13" data-x="1592697600" r="1" fill="white"><title>2020-06-21: 1</title></circle>
	<circle cx="209.02" cy="360.30" data-y="1.28" data-x="1592784000" r="1" fill="white"><title>2020-06-22: 1</title></circle>
	<circle cx="210.70" cy="362.03" data-y="1.13" data-x="1592870400" r="1" fill="white"><title>2020-06-23: 1</title></circle>
	<circle cx="212.37" cy="358.57" data-y="1.43" data-x="1592956800" r="1" fill="white"><title>2020-06-24: 1</title></circle>
	<circle cx="214.04" cy="358.57" data-y="1.43" data-x="1593043200" r="1" fill="white"><title>2020-06-25: 1</title></circle>
	<circle cx="215.71" cy="361.16" data-y="1.21" data-x="1593129600" r="1" fill="white"><title>2020-06-26: 1</title></circle>
	<circle cx="217.39" cy="361.16" data-y="1.21" data-x="1593216000" r="1" fill="white"><title>2020-06-27: 1</title></circle>
	<circle cx="219.06" cy="363.76" data-y="0.98" data-x="1593302400" r="1" fill="white"><title>2020-06-28: 1</title></circle>
	<circle cx="220.73" cy="366.35" data-y="0.76" data-x="1593388800" r="1" fill="white"><title>2020-06-29: 1</title></circle>
	<circle cx="222.41" cy="364.62" data-y="0.91" data-x="1593475200" r="1" fill="white"><title>2020-06-30: 1</title></circle>
	<circle cx="224.08" cy="368.95" data-y="0.53" data-x="1593561600" r="1" fill="white"><title>2020-07-01: 1</title></circle>
	<circle cx="225.75" cy="366.35" data-y="0.76" data-x="1593648000" r="1" fill="white"><title>2020-07-02: 1</title></circle>
	<circle cx="227.42" cy="366.35" data-y="0.76" data-x="1593734400" r="1" fill="white"><title>2020-07-03: 1</title></circle>
	<circle cx="229.10" cy="368.95" data-y="0.53" data-x="1593820800" r="1" fill="white"><title>2020-07-04: 1</title></circle>
	<circle cx="230.77" cy="368.95" data-y="0.53" data-x="1593907200" r="1" fill="white"><title>2020-07-05: 1</title></circle>
	<circle cx="232.44" cy="368.08" data-y="0.60" data-x="1593993600" r="1" fill="white"><title>2020-07-06: 1</title></circle>
	<circle cx="234.12" cy="369.81" data-y="0.45" data-x="1594080000" r="1" fill="white"><title>2020-07-07: 0</title></circle>
	<circle cx="235.79" cy="369.81" data-y="0.45" data-x="1594166400" r="1" fill="white"><title>2020-07-08: 0</title></circle>
	<circle cx="237.46" cy="372.41" data-y="0.23" data-x="1594252800" r="1" fill="white"><title>2020-07-09: 0</title></circle>
	<circle cx="239.14" cy="371.54" data-y="0.30" data-x="1594339200" r="1" fill="white"><title>2020-07-10: 0</title></circle>
	<circle cx="240.81" cy="371.54" data-y="0.30" data-x="1594425600" r="1" fill="white"><title>2020-07-11: 0</title></circle>
	<circle cx="242.48" cy="372.41" data-y="0.23" data-x="1594512000" r="1" fill="white"><title>2020-07-12: 0</title></circle>
	<circle cx="244.15" cy="373.27" data-y="0.15" data-x="1594598400" r="1" fill="white"><title>2020-07-13: 0</title></circle>
	<circle cx="245.83" cy="371.54" data-y="0.30" data-x="1594684800" r="1" fill="white"><title>2020-07-14: 0</title></circle>
	<circle cx="247.50" cy="371.54" data-y="0.30" data-x="1594771200" r="1" fill="white"><title>2020-07-15: 0</title></circle>
	<circle cx="249.17" cy="371.54" data-y="0.30" data-x="1594857600" r="1" fill="white"><title>2020-07-16: 0</title></circle>
	<circle cx="250.85" cy="369.81" data-y="0.45" data-x="1594944000" r="1" fill="white"><title>2020-07-17: 0</title></circle>
	<circle cx="252.52" cy="368.95" data-y="0.53" data-x="1595030400" r="1" fill="white"><title>2020-07-18: 1</title></circle>
	<circle cx="254.19" cy="365.49" data-y="0.83" data-x="1595116800" r="1" fill="white"><title>2020-07-19: 1</title></circle>
	<circle cx="255.86" cy="365.49" data-y="0.83" data-x="1595203200" r="1" fill="white"><title>2020-07-20: 1</title></circle>
	<circle cx="257.54" cy="362.89" data-y="1.06" data-x="1595289600" r="1" fill="white"><title>2020-07-21: 1</title></circle>
	<circle cx="259.21" cy="362.03" data-y="1.13" data-x="1595376000" r="1" fill="white"><title>2020-07-22: 1</title></circle>
	<circle cx="260.88" cy="360.30" data-y="1.28" data-x="1595462400" r="1" fill="white"><title>2020-07-23: 1</title></circle>
	<circle cx="262.56" cy="360.30" data-y="1.28" data-x="1595548800" r="1" fill="white"><title>2020-07-24: 1</title></circle>
	<circle cx="264.23" cy="361.16" data-y="1.21" data-x="1595635200" r="1" fill="white"><title>2020-07-25: 1</title></circle>
	<circle cx="265.90" cy="363.76" data-y="0.98" data-x="1595721600" r="1" fill="white"><title>2020-07-26: 1</title></circle>
	<circle cx="267.58" cy="362.03" data-y="1.13" data-x="1595808000" r="1" fill="white"><title>2020-07-27: 1</title></circle>
	<circle cx="269.25" cy="362.89" data-y="1.06" data-x="1595894400" r="1" fill="white"><title>2020-07-28: 1</title></circle>
	<circle cx="270.92" cy="360.30" data-y="1.28" data-x="1595980800" r="1" fill="white"><title>2020-07-29: 1</title></circle>
	<circle cx="272.59" cy="362.03" data-y="1.13" data-x="1596067200" r="1" fill="white"><title>2020-07-30: 1</title></circle>
	<circle cx="274.27" cy="363.76" data-y="0.98" data-x="1596153600" r="1" fill="white"><title>2020-07-31: 1</title></circle>
	<circle cx="275.94" cy="360.30" data-y="1.28" data-x="1596240000" r="1" fill="white"><title>2020-08-01: 1</title></circle>
	<circle cx="277.61" cy="357.70" data-y="1.51" data-x="1596326400" r="1" fill="white"><title>2020-08-02: 2</title></circle>
	<circle cx="279.29" cy="358.57" data-y="1.43" data-x="1596412800" r="1" fill="white"><title>2020-08-03: 1</title></circle>
	<circle cx="280.96" cy="355.97" data-y="1.66" data-x="1596499200" r="1" fill="white"><title>2020-08-04: 2</title></circle>
	<circle cx="282.63" cy="356.84" data-y="1.59" data-x="1596585600" r="1" fill="white"><title>2020-08-05: 2</title></circle>
	<circle cx="284.30" cy="356.84" data-y="1.59" data-x="1596672000" r="1" fill="white"><title>2020-08-06: 2</title></circle>
	<circle cx="285.98" cy="354.24" data-y="1.81" data-x="1596758400" r="1" fill="white"><title>2020-08-07: 2</title></circle>
	<circle cx="287.65" cy="354.24" data-y="1.81" data-x="1596844800" r="1" fill="white"><title>2020-08-08: 2</title></circle>
	<circle cx="289.32" cy="352.51" data-y="1.96" data-x="1596931200" r="1" fill="white"><title>2020-08-09: 2</title></circle>
	<circle cx="291.00" cy="349.92" data-y="2.19" data-x="1597017600" r="1" fill="white"><title>2020-08-10: 2</title></circle>
	<circle cx="292.67" cy="350.78" data-y="2.11" data-x="1597104000" r="1" fill="white"><title>2020-08-11: 2</title></circle>
	<circle cx="294.34" cy="349.92" data-y="2.19" data-x="1597190400" r="1" fill="white"><title>2020-08-12: 2</title></circle>
	<circle cx="296.02" cy="349.92" data-y="2.19" data-x="1597276800" r="1" fill="white"><title>2020-08-13: 2</title></circle>
	<circle cx="297.69" cy="347.32" data-y="2.42" data-x="1597363200" r="1" fill="white"><title>2020-08-14: 2</title></circle>
	<circle cx="299.36" cy="349.05" data-y="2.27" data-x="1597449600" r="1" fill="white"><title>2020-08-15: 2</title></circle>
	<circle cx="301.03" cy="353.38" data-y="1.89" data-x="1597536000" r="1" fill="white"><title>2020-08-16: 2</title></circle>
	<circle cx="302.71" cy="348.19" data-y="2.34" data-x="1597622400" r="1" fill="white"><title>2020-08-17: 2</title></circle>
	<circle cx="304.38" cy="350.78" data-y="2.11" data-x="1597708800" r="1" fill="white"><title>2020-08-18: 2</title></circle>
	<circle cx="306.05" cy="348.19" data-y="2.34" data-x="1597795200" r="1" fill="white"><title>2020-08-19: 2</title></circle>
	<circle cx="307.73" cy="344.73" data-y="2.64" data-x="1597881600" r="1" fill="white"><title>2020-08-20: 3</title></circle>
	<circle cx="309.40" cy="344.73" data-y="2.64" data-x="1597968000" r="1" fill="white"><title>2020-08-21: 3</title></circle>
	<circle cx="311.07" cy="342.13" data-y="2.87" data-x="1598054400" r="1" fill="white"><title>2020-08-22: 3</title></circle>
	<circle cx="312.74" cy="338.67" data-y="3.17" data-x="1598140800" r="1" fill="white"><title>2020-08-23: 3</title></circle>
	<circle cx="314.42" cy="343.00" data-y="2.79" data-x="1598227200" r="1" fill="white"><title>2020-08-24: 3</title></circle>
	<circle cx="316.09" cy="338.67" data-y="3.17" data-x="1598313600" r="1" fill="white"><title>2020-08-25: 3</title></circle>
	<circle cx="317.76" cy="340.40" data-y="3.02" data-x="1598400000" r="1" fill="white"><title>2020-08-26: 3</title></circle>
	<circle cx="319.44" cy="338.67" data-y="3.17" data-x="1598486400" r="1" fill="white"><title>2020-08-27: 3</title></circle>
	<circle cx="321.11" cy="340.40" data-y="3.02" data-x="1598572800" r="1" fill="white"><title>2020-08-28: 3</title></circle>
	<circle cx="322.78" cy="333.48" data-y="3.62" data-x="1598659200" r="1" fill="white"><title>2020-08-29: 4</title></circle>
	<circle cx="324.45" cy="330.89" data-y="3.85" data-x="1598745600" r="1" fill="white"><title>2020-08-30: 4</title></circle>
	<circle cx="326.13" cy="328.29" data-y="4.08" data-x="1598832000" r="1" fill="white"><title>2020-08-31: 4</title></circle>
	<circle cx="327.80" cy="326.56" data-y="4.23" data-x="1598918400" r="1" fill="white"><title>2020-09-01: 4</title></circle>
	<circle cx="329.47" cy="323.10" data-y="4.53" data-x="1599004800" r="1" fill="white"><title>2020-09-02: 5</title></circle>
	<circle cx="331.15" cy="326.56" data-y="4.23" data-x="1599091200" r="1" fill="white"><title>2020-09-03: 4</title></circle>
	<circle cx="332.82" cy="323.10" data-y="4.53" data-x="1599177600" r="1" fill="white"><title>2020-09-04: 5</title></circle>
	<circle cx="334.49" cy="327.43" data-y="4.15" data-x="1599264000" r="1" fill="white"><title>2020-09-05: 4</title></circle>
	<circle cx="336.17" cy="329.16" data-y="4.00" data-x="1599350400" r="1" fill="white"><title>2020-09-06: 4</title></circle>
	<circle cx="337.84" cy="330.02" data-y="3.93" data-x="1599436800" r="1" fill="white"><title>2020-09-07: 4</title></circle>
	<circle cx="339.51" cy="334.35" data-y="3.55" data-x="1599523200" r="1" fill="white"><title>2020-09-08: 4</title></circle>
	<circle cx="341.18" cy="333.48" data-y="3.62" data-x="1599609600" r="1" fill="white"><title>2020-09-09: 4</title></circle>
	<circle cx="342.86" cy="330.89" data-y="3.85" data-x="1599696000" r="1" fill="white"><title>2020-09-10: 4</title></circle>
	<circle cx="344.53" cy="333.48" data-y="3.62" data-x="1599782400" r="1" fill="white"><title>2020-09-11: 4</title></circle>
	<circle cx="346.20" cy="336.08" data-y="3.40" data-x="1599868800" r="1" fill="white"><title>2020-09-12: 3</title></circle>
	<circle cx="347.88" cy="333.48" data-y="3.62" data-x="1599955200" r="1" fill="white"><title>2020-09-13: 4</title></circle>
	<circle cx="349.55" cy="336.94" data-y="3.32" data-x="1600041600" r="1" fill="white"><title>2020-09-14: 3</title></circle>
	<circle cx="351.22" cy="333.48" data-y="3.62" data-x="1600128000" r="1" fill="white"><title>2020-09-15: 4</title></circle>
	<circle cx="352.89" cy="336.08" data-y="3.40" data-x="1600214400" r="1" fill="white"><title>2020-09-16: 3</title></circle>
	<circle cx="354.57" cy="339.54" data-y="3.10" data-x="1600300800" r="1" fill="white"><title>2020-09-17: 3</title></circle>
	<circle cx="356.24" cy="340.40" data-y="3.02" data-x="1600387200" r="1" fill="white"><title>2020-09-18: 3</title></circle>
	<circle cx="357.91" cy="334.35" data-y="3.55" data-x="1600473600" r="1" fill="white"><title>2020-09-19: 4</title></circle>
	<circle cx="359.59" cy="329.16" data-y="4.00" data-x="1600560000" r="1" fill="white"><title>2020-09-20: 4</title></circle>
	<circle cx="361.26" cy="317.05" data-y="5.06" data-x="1600646400" r="1" fill="white"><title>2020-09-21: 5</title></circle>
	<circle cx="362.93" cy="315.32" data-y="5.21" data-x="1600732800" r="1" fill="white"><title>2020-09-22: 5</title></circle>
	<circle cx="364.61" cy="304.94" data-y="6.12" data-x="1600819200" r="1" fill="white"><title>2020-09-23: 6</title></circle>
	<circle cx="366.28" cy="299.75" data-y="6.57" data-x="1600905600" r="1" fill="white"><title>2020-09-24: 7</title></circle>
	<circle cx="367.95" cy="290.24" data-y="7.40" data-x="1600992000" r="1" fill="white"><title>2020-09-25: 7</title></circle>
	<circle cx="369.62" cy="289.37" data-y="7.48" data-x="1601078400" r="1" fill="white"><title>2020-09-26: 7</title></circle>
	<circle cx="371.30" cy="278.99" data-y="8.38" data-x="1601164800" r="1" fill="white"><title>2020-09-27: 8</title></circle>
	<circle cx="372.97" cy="268.61" data-y="9.29" data-x="1601251200" r="1" fill="white"><title>2020-09-28: 9</title></circle>
	<circle cx="374.64" cy="262.56" data-y="9.82" data-x="1601337600" r="1" fill="white"><title>2020-09-29: 10</title></circle>
	<circle cx="376.32" cy="262.56" data-y="9.82" data-x="1601424000" r="1" fill="white"><title>2020-09-30: 10</title></circle>
	<circle cx="377.99" cy="254.77" data-y="10.50" data-x="1601510400" r="1" fill="white"><title>2020-10-01: 10</title></circle>
	<circle cx="379.66" cy="246.99" data-y="11.18" data-x="1601596800" r="1" fill="white"><title>2020-10-02: 11</title></circle>
	<circle cx="381.33" cy="231.42" data-y="12.53" data-x="1601683200" r="1" fill="white"><title>2020-10-03: 13</title></circle>
	<circle cx="383.01" cy="229.69" data-y="12.69" data-x="1601769600" r="1" fill="white"><title>2020-10-04: 13</title></circle>
	<circle cx="384.68" cy="222.77" data-y="13.29" data-x="1601856000" r="1" fill="white"><title>2020-10-05: 13</title></circle>
	<circle cx="386.35" cy="211.53" data-y="14.27" data-x="1601942400" r="1" fill="white"><title>2020-10-06: 14</title></circle>
	<circle cx="388.03" cy="197.69" data-y="15.48" data-x="1602028800" r="1" fill="white"><title>2020-10-07: 15</title></circle>
	<circle cx="389.70" cy="201.15" data-y="15.18" data-x="1602115200" r="1" fill="white"><title>2020-10-08: 15</title></circle>
	<circle cx="391.37" cy="189.91" data-y="16.16" data-x="1602201600" r="1" fill="white"><title>2020-10-09: 16</title></circle>
	<circle cx="393.05" cy="178.66" data-y="17.14" data-x="1602288000" r="1" fill="white"><title>2020-10-10: 17</title></circle>
	<circle cx="394.72" cy="163.96" data-y="18.42" data-x="1602374400" r="1" fill="white"><title>2020-10-11: 18</title></circle>
	<circle cx="396.39" cy="150.12" data-y="19.63" data-x="1602460800" r="1" fill="white"><title>2020-10-12: 20</title></circle>
	<circle cx="398.06" cy="131.09" data-y="21.29" data-x="1602547200" r="1" fill="white"><title>2020-10-13: 21</title></circle>
	<circle cx="399.74" cy="127.63" data-y="21.60" data-x="1602633600" r="1" fill="white"><title>2020-10-14: 22</title></circle>
	<circle cx="401.41" cy="109.47" data-y="23.18" data-x="1602720000" r="1" fill="white"><title>2020-10-15: 23</title></circle>
	<circle cx="403.08" cy="85.25" data-y="25.30" data-x="1602806400" r="1" fill="white"><title>2020-10-16: 25</title></circle>
	<circle cx="404.76" cy="60.17" data-y="27.49" data-x="1602892800" r="1" fill="white"><title>2020-10-17: 27</title></circle>
	<circle cx="406.43" cy="44.60" data-y="28.84" data-x="1602979200" r="1" fill="white"><title>2020-10-18: 29</title></circle>
	<circle cx="408.10" cy="32.49" data-y="29.90" data-x="1603065600" r="1" fill="white"><title>2020-10-19: 30</title></circle>
	<circle cx="409.77" cy="25.57" data-y="30.51" data-x="1603152000" r="1" fill="white"><title>2020-10-20: 31</title></circle>
	<circle cx="411.45" cy="22.97" data-y="30.73" data-x="1603238400" r="1" fill="white"><title>2020-10-21: 31</title></circle>
	<circle cx="413.12" cy="16.92" data-y="31.26" data-x="1603324800" r="1" fill="white"><title>2020-10-22: 31</title></circle>
	<circle cx="414.79" cy="10.00" data-y="31.86" data-x="1603411200" r="1" fill="white"><title>2020-10-23: 32</title></circle>
	<circle cx="416.47" cy="23.84" data-y="30.66" data-x="1603497600" r="1" fill="white"><title>2020-10-24: 31</title></circle>
	<circle cx="418.14" cy="13.46" data-y="31.56" data-x="1603584000" r="1" fill="white"><title>2020-10-25: 32</title></circle>
	<circle cx="419.81" cy="30.76" data-y="30.05" data-x="1603670400" r="1" fill="white"><title>2020-10-26: 30</title></circle>
	<circle cx="421.48" cy="48.92" data-y="28.47" data-x="1603756800" r="1" fill="white"><title>2020-10-27: 28</title></circle>
	<circle cx="423.16" cy="56.71" data-y="27.79" data-x="1603843200" r="1" fill="white"><title>2020-10-28: 28</title></circle>
	<circle cx="424.83" cy="67.09" data-y="26.88" data-x="1603929600" r="1" fill="white"><title>2020-10-29: 27</title></circle>
	<circle cx="426.50" cy="75.73" data-y="26.13" data-x="1604016000" r="1" fill="white"><title>2020-10-30: 26</title></circle>
	<circle cx="428.18" cy="85.25" data-y="25.30" data-x="1604102400" r="1" fill="white"><title>2020-10-31: 25</title></circle>
	<circle cx="429.85" cy="113.79" data-y="22.80" data-x="1604188800" r="1" fill="white"><title>2020-11-01: 23</title></circle>
	<circle cx="431.52" cy="118.12" data-y="22.43" data-x="1604275200" r="1" fill="white"><title>2020-11-02: 22</title></circle>
	<circle cx="433.20" cy="118.98" data-y="22.35" data-x="1604361600" r="1" fill="white"><title>2020-11-03: 22</title></circle>
	<circle cx="434.87" cy="115.52" data-y="22.65" data-x="1604448000" r="1" fill="white"><title>2020-11-04: 23</title></circle>
	<circle cx="436.54" cy="111.20" data-y="23.03" data-x="1604534400" r="1" fill="white"><title>2020-11-05: 23</title></circle>
	<circle cx="438.21" cy="106.87" data-y="23.41" data-x="1604620800" r="1" fill="white"><title>2020-11-06: 23</title></circle>
	<circle cx="439.89" cy="89.57" data-y="24.92" data-x="1604707200" r="1" fill="white"><title>2020-11-07: 25</title></circle>
	<circle cx="441.56" cy="61.90" data-y="27.33" data-x="1604793600" r="1" fill="white"><title>2020-11-08: 27</title></circle>
	<circle cx="443.23" cy="60.17" data-y="27.49" data-x="1604880000" r="1" fill="white"><title>2020-11-09: 27</title></circle>
	<circle cx="444.91" cy="28.16" data-y="30.28" data-x="1604966400" r="1" fill="white"><title>2020-11-10: 30</title></circle>
	<circle cx="446.58" cy="31.62" data-y="29.98" data-x="1605052800" r="1" fill="white"><title>2020-11-11: 30</title></circle>
	<circle cx="448.25" cy="31.62" data-y="29.98" data-x="1605139200" r="1" fill="white"><title>2020-11-12: 30</title></circle>
	<circle cx="449.92" cy="45.46" data-y="28.77" data-x="1605225600" r="1" fill="white"><title>2020-11-13: 29</title></circle>
	<circle cx="451.60" cy="67.09" data-y="26.88" data-x="1605312000" r="1" fill="white"><title>2020-11-14: 27</title></circle>
	<circle cx="453.27" cy="86.98" data-y="25.14" data-x="1605398400" r="1" fill="white"><title>2020-11-15: 25</title></circle>
	<circle cx="454.94" cy="82.65" data-y="25.52" data-x="1605484800" r="1" fill="white"><title>2020-11-16: 26</title></circle>
	<circle cx="456.62" cy="112.93" data-y="22.88" data-x="1605571200" r="1" fill="white"><title>2020-11-17: 23</title></circle>
	<circle cx="458.29" cy="119.85" data-y="22.28" data-x="1605657600" r="1" fill="white"><title>2020-11-18: 22</title></circle>
	<circle cx="459.96" cy="126.77" data-y="21.67" data-x="1605744000" r="1" fill="white"><title>2020-11-19: 22</title></circle>
	<circle cx="461.64" cy="146.66" data-y="19.93" data-x="1605830400" r="1" fill="white"><title>2020-11-20: 20</title></circle>
</g>
<g data-series="recent-cases" class="data-series">
	<path d="M 461.64,146.66L 463.31,161.36L 464.98,206.34L 466.65,228.68L 468.33,249.07L 470.00,255.42" id="Recent cases" class="line" stroke-width="1" stroke-linecap="round" stroke-dasharray="4,6" stroke-dashoffset="4"><title>Recent cases</title></path>
	<circle cx="461.64" cy="146.66" data-y="19.93" data-x="1605830400" r="2.5" fill="white"><title>2020-11-20: 20</title></circle>
	<circle cx="463.31" cy="161.36" data-y="18.65" data-x="1605916800" r="2.5" fill="white"><title>2020-11-21: 19</title></circle>
	<circle cx="464.98" cy="206.34" data-y="14.72" data-x="1606003200" r="2.5" fill="white"><title>2020-11-22: 15</title></circle>
	<circle cx="466.65" cy="228.68" data-y="12.77" data-x="1606089600" r="2.5" fill="white"><title>2020-11-23: 13</title></circle>
	<circle cx="468.33" cy="249.07" data-y="10.99" data-x="1606176000" r="2.5" fill="white"><title>2020-11-24: 11</title></circle>
	<circle cx="470.00" cy="255.42" data-y="10.44" data-x="1606262400" r="2.5" fill="white"><title>2020-11-25: 10</title></circle>
</g>
</svg>
