<svg width="480" height="400" viewBox="0 0 480 400" xmlns="http://www.w3.org/2000/svg" style="overflow:display" preserveAspectRatio="xMinYMin meet" overflow="visible">
<defs>
	<style>
	.data-series path.line { fill-opacity: 0; stroke: black; }
	.data-series path.line.dotted { stroke-dasharray: 12 20 }
	.data-series circle { display: none; }
	.data-series:hover path.line, .data-series.on path.line { stroke-width: 1; }
	.data-series:hover circle, .data-series.on circle { display: inline; }
	.data-series circle:hover, .data-series circle.on { r: 1px!important; }
	.graph-grid { font-family: "Helvetica Neue",Helvetica,Arial,"Lucida Grande",sans-serif; }
	.graph-grid line { stroke: black; stroke-width: 1; stroke-linecap: round; }
	.graph-grid.graph-grid-x text { text-anchor: middle; dominant-baseline: hanging; transform: translateY(10px); }
	.graph-grid.graph-grid-y text { text-anchor: end; dominant-baseline: middle; transform: translateX(-10px); }
	</style>
</defs>
<g class="graph-grid graph-grid-y">
	<line x1="15.00" y1="375.00" x2="470.00" y2="375.00" data-left="15"></line>
	<text x="25" y="375" text-anchor="end">0</text>
	<text x="25" y="271.331908576052" text-anchor="end">5</text>
	<text x="25" y="167.663817152104" text-anchor="end">10</text>
	<text x="25" y="63.9957257281553" text-anchor="end">15</text>
	<text style="text-anchor:middle;dominant-baseline:hanging;font-weight:bold;transform: translateY(192.5px) rotate(-90deg);"></text>
</g>
<g class="graph-grid graph-grid-x">
	<line class="tick" x1="74.17" y1="375.00" x2="74.17" y2="380.00"></line>
	<text x="74.1704035874439" y="375" text-anchor="middle">A</text>
	<line class="tick" x1="135.38" y1="375.00" x2="135.38" y2="380.00"></line>
	<text x="135.381165919283" y="375" text-anchor="middle">M</text>
	<line class="tick" x1="198.63" y1="375.00" x2="198.63" y2="380.00"></line>
	<text x="198.632286995516" y="375" text-anchor="middle">J</text>
	<line class="tick" x1="259.84" y1="375.00" x2="259.84" y2="380.00"></line>
	<text x="259.843049327354" y="375" text-anchor="middle">J</text>
	<line class="tick" x1="323.09" y1="375.00" x2="323.09" y2="380.00"></line>
	<text x="323.094170403587" y="375" text-anchor="middle">A</text>
	<line class="tick" x1="386.35" y1="375.00" x2="386.35" y2="380.00"></line>
	<text x="386.345291479821" y="375" text-anchor="middle">S</text>
	<line class="tick" x1="447.56" y1="375.00" x2="447.56" y2="380.00"></line>
	<text x="447.556053811659" y="375" text-anchor="middle">O</text>
	<text style="text-anchor:middle;dominant-baseline:hanging;font-weight:bold;transform: translateY(192.5px) rotate(-90deg);"></text>
</g>
<g data-series="widespread" class="data-series">
	<path d="M 15.00,229.86L 470.00,229.86" id="E09000015-level-0" class="line" stroke-width="1" stroke-linecap="round" stroke-dasharray="3,3" fill-opacity="0.3" opacity="0.3"><title>Widespread</title></path>
</g>
<g data-series="substantial" class="data-series">
	<path d="M 15.00,292.07L 470.00,292.07" id="E09000015-level-1" class="line" stroke-width="1" stroke-linecap="round" stroke-dasharray="3,3" fill-opacity="0.3" opacity="0.3"><title>Substantial</title></path>
</g>
<g data-series="moderate" class="data-series">
	<path d="M 15.00,354.27L 470.00,354.27" id="E09000015-level-2" class="line" stroke-width="1" stroke-linecap="round" stroke-dasharray="3,3" fill-opacity="0.3" opacity="0.3"><title>Moderate</title></path>
</g>
<g data-series="new-cases" class="data-series">
	<path d="M 15.00,372.93L 17.04,373.35L 19.08,373.62L 21.12,367.91L 23.16,367.91L 25.20,362.01L 27.24,352.56L 29.28,347.83L 31.32,337.20L 33.36,330.11L 35.40,321.84L 37.44,306.49L 39.48,285.23L 41.52,281.68L 43.57,269.87L 45.61,259.24L 47.65,248.61L 49.69,240.34L 51.73,226.17L 53.77,219.08L 55.81,197.82L 57.85,165.92L 59.89,155.29L 61.93,145.84L 63.97,135.21L 66.01,134.03L 68.05,141.12L 70.09,138.75L 72.13,160.02L 74.17,161.20L 76.21,157.65L 78.25,161.20L 80.29,158.83L 82.33,155.29L 84.37,156.47L 86.41,150.57L 88.45,163.56L 90.49,176.55L 92.53,178.92L 94.57,193.09L 96.61,203.72L 98.65,211.99L 100.70,213.17L 102.74,213.17L 104.78,199.00L 106.82,206.08L 108.86,191.91L 110.90,188.37L 112.94,194.27L 114.98,208.45L 117.02,203.72L 119.06,219.08L 121.10,211.99L 123.14,229.71L 125.18,215.53L 127.22,217.90L 129.26,223.80L 131.30,237.98L 133.34,246.25L 135.38,249.79L 137.42,252.15L 139.46,274.60L 141.50,273.41L 143.54,274.60L 145.58,274.60L 147.62,282.86L 149.66,302.94L 151.70,308.85L 153.74,320.66L 155.78,330.11L 157.83,334.84L 159.87,343.11L 161.91,338.38L 163.95,336.02L 165.99,339.56L 168.03,337.20L 170.07,343.11L 172.11,346.65L 174.15,345.47L 176.19,350.19L 178.23,356.10L 180.27,358.46L 182.31,359.64L 184.35,359.64L 186.39,360.83L 188.43,357.28L 190.47,357.28L 192.51,356.10L 194.55,352.56L 196.59,354.92L 198.63,357.28L 200.67,357.28L 202.71,358.46L 204.75,356.10L 206.79,350.19L 208.83,351.38L 210.87,351.38L 212.91,351.38L 214.96,351.38L 217.00,354.92L 219.04,357.28L 221.08,364.37L 223.12,367.91L 225.16,370.28L 227.20,371.46L 229.24,371.46L 231.28,370.28L 233.32,370.28L 235.36,367.91L 237.40,369.09L 239.44,367.91L 241.48,367.91L 243.52,369.09L 245.56,366.73L 247.60,365.55L 249.64,366.73L 251.68,365.55L 253.72,366.73L 255.76,365.55L 257.80,365.55L 259.84,365.55L 261.88,365.55L 263.92,364.37L 265.96,363.19L 268.00,359.64L 270.04,359.64L 272.09,357.28L 274.13,359.64L 276.17,359.64L 278.21,360.83L 280.25,359.64L 282.29,360.83L 284.33,363.19L 286.37,365.55L 288.41,366.73L 290.45,367.91L 292.49,364.37L 294.53,363.19L 296.57,365.55L 298.61,364.37L 300.65,363.19L 302.69,362.01L 304.73,359.64L 306.77,358.46L 308.81,357.28L 310.85,354.92L 312.89,353.74L 314.93,351.38L 316.97,351.38L 319.01,351.38L 321.05,357.28L 323.09,358.46L 325.13,358.46L 327.17,358.46L 329.22,353.74L 331.26,354.92L 333.30,357.28L 335.34,351.38L 337.38,353.74L 339.42,351.38L 341.46,347.83L 343.50,352.56L 345.54,347.83L 347.58,346.65L 349.62,343.11L 351.66,338.38L 353.70,341.93L 355.74,337.20L 357.78,332.48L 359.82,333.66L 361.86,330.11L 363.90,328.93L 365.94,318.30L 367.98,313.58L 370.02,319.48L 372.06,321.84L 374.10,315.94L 376.14,310.03L 378.18,315.94L 380.22,326.57L 382.26,308.85L 384.30,299.40L 386.35,295.86L 388.39,293.50L 390.43,297.04L 392.47,279.32L 394.51,276.96L 396.55,285.23L 398.59,287.59L 400.63,287.59L 402.67,293.50L 404.71,297.04L 406.75,306.49L 408.79,310.03L 410.83,314.76L 412.87,311.21L 414.91,311.21L 416.95,302.94L 418.99,292.31L 421.03,299.40L 423.07,280.50L 425.11,269.87L 427.15,263.96L 429.19,256.88L 431.23,253.33L 433.27,250.97L 435.31,219.08L 437.35,211.99L 439.39,201.36L 441.43,168.28L 443.48,129.30L 445.52,110.40L 447.56,90.32L 449.60,64.34L 451.64,53.71L 453.68,15.91L 455.72,10.00L 457.76,34.81L 459.80,61.97" id="New cases" class="line" stroke-width="1" stroke-linecap="round"><title>New cases</title></path>
</g>
<g data-series="recent-cases" class="data-series">
	<path d="M 459.80,61.97L 461.84,96.23L 463.88,160.02L 465.92,173.80L 467.96,231.13L 470.00,300.58" id="Recent cases" class="line" stroke-width="1" stroke-linecap="round" stroke-dasharray="5,5"><title>Recent cases</title></path>
</g>
</svg>
