<svg width="480" height="400" viewBox="0 0 480 400" xmlns="http://www.w3.org/2000/svg" style="overflow:display" preserveAspectRatio="xMinYMin meet" overflow="visible">
<defs>
	<style>
	.data-series path.line { fill-opacity: 0; stroke: black; }
	.data-series path.line.dotted { stroke-dasharray: 12 20 }
	.data-series:hover path.line, .data-series.on path.line { stroke-width: 1; }
	.data-series:hover circle, .data-series.on circle { display: inline; }
	.graph-grid { font-family: "Helvetica Neue",Helvetica,Arial,"Lucida Grande",sans-serif; }
	.graph-grid line { stroke: black; stroke-width: 1; stroke-linecap: round; }
	.graph-grid.graph-grid-x text { text-anchor: middle; dominant-baseline: hanging; transform: translateY(10px); }
	.graph-grid.graph-grid-y text { text-anchor: end; dominant-baseline: middle; transform: translateX(-10px); }
	</style>
</defs>
<g class="graph-grid graph-grid-y">
	<line x1="25.00" y1="375.00" x2="470.00" y2="375.00" data-left="25"></line>
	<text x="35" y="375" text-anchor="end">0</text>
	<text x="35" y="264.432120922832" text-anchor="end">20</text>
	<text x="35" y="153.864241845664" text-anchor="end">40</text>
	<text x="35" y="43.2963627684964" text-anchor="end">60</text>
	<text style="text-anchor:middle;dominant-baseline:hanging;font-weight:bold;transform: translateY(192.5px) rotate(-90deg);"></text>
</g>
<g class="graph-grid graph-grid-x">
	<line class="tick" x1="62.47" y1="375.00" x2="62.47" y2="380.00"></line>
	<text x="62.4736842105263" y="375" text-anchor="middle">A</text>
	<line class="tick" x1="109.32" y1="375.00" x2="109.32" y2="380.00"></line>
	<text x="109.315789473684" y="375" text-anchor="middle">M</text>
	<line class="tick" x1="157.72" y1="375.00" x2="157.72" y2="380.00"></line>
	<text x="157.719298245614" y="375" text-anchor="middle">J</text>
	<line class="tick" x1="204.56" y1="375.00" x2="204.56" y2="380.00"></line>
	<text x="204.561403508772" y="375" text-anchor="middle">J</text>
	<line class="tick" x1="252.96" y1="375.00" x2="252.96" y2="380.00"></line>
	<text x="252.964912280702" y="375" text-anchor="middle">A</text>
	<line class="tick" x1="301.37" y1="375.00" x2="301.37" y2="380.00"></line>
	<text x="301.368421052632" y="375" text-anchor="middle">S</text>
	<line class="tick" x1="348.21" y1="375.00" x2="348.21" y2="380.00"></line>
	<text x="348.210526315789" y="375" text-anchor="middle">O</text>
	<line class="tick" x1="396.61" y1="375.00" x2="396.61" y2="380.00"></line>
	<text x="396.614035087719" y="375" text-anchor="middle">N</text>
	<line class="tick" x1="443.46" y1="375.00" x2="443.46" y2="380.00"></line>
	<text x="443.456140350877" y="375" text-anchor="middle">D</text>
	<text style="text-anchor:middle;dominant-baseline:hanging;font-weight:bold;transform: translateY(192.5px) rotate(-90deg);"></text>
</g>
<g data-series="widespread" class="data-series">
	<path d="M 25.00,336.30L 470.00,336.30" id="E09000014-level-0" class="line" stroke-width="1" stroke-linecap="round" stroke-dasharray="3,3" fill-opacity="0.3" opacity="0.3"><title>Widespread</title></path>
</g>
<g data-series="substantial" class="data-series">
	<path d="M 25.00,352.89L 470.00,352.89" id="E09000014-level-1" class="line" stroke-width="1" stroke-linecap="round" stroke-dasharray="3,3" fill-opacity="0.3" opacity="0.3"><title>Substantial</title></path>
</g>
<g data-series="moderate" class="data-series">
	<path d="M 25.00,369.47L 470.00,369.47" id="E09000014-level-2" class="line" stroke-width="1" stroke-linecap="round" stroke-dasharray="3,3" fill-opacity="0.3" opacity="0.3"><title>Moderate</title></path>
</g>
<g data-series="new-cases" class="data-series">
	<path d="M 25.00,368.90L 26.56,367.28L 28.12,365.85L 29.68,366.87L 31.25,366.00L 32.81,366.00L 34.37,365.71L 35.93,363.68L 37.49,362.80L 39.05,361.93L 40.61,359.03L 42.18,357.00L 43.74,353.22L 45.30,348.87L 46.86,349.16L 48.42,349.16L 49.98,346.83L 51.54,345.38L 53.11,343.93L 54.67,342.48L 56.23,342.77L 57.79,339.57L 59.35,334.35L 60.91,332.02L 62.47,331.73L 64.04,333.77L 65.60,335.51L 67.16,332.02L 68.72,334.35L 70.28,336.67L 71.84,341.32L 73.40,343.35L 74.96,342.48L 76.53,341.61L 78.09,347.41L 79.65,347.70L 81.21,352.06L 82.77,353.22L 84.33,354.96L 85.89,353.51L 87.46,357.00L 89.02,356.71L 90.58,358.74L 92.14,356.42L 93.70,355.84L 95.26,354.38L 96.82,357.29L 98.39,356.13L 99.95,358.16L 101.51,357.29L 103.07,360.19L 104.63,360.19L 106.19,361.93L 107.75,363.68L 109.32,365.42L 110.88,365.13L 112.44,366.29L 114.00,363.39L 115.56,364.26L 117.12,364.55L 118.68,363.68L 120.25,363.39L 121.81,364.55L 123.37,365.13L 124.93,367.45L 126.49,367.16L 128.05,366.29L 129.61,367.16L 131.18,368.32L 132.74,368.32L 134.30,368.90L 135.86,369.19L 137.42,370.93L 138.98,371.81L 140.54,371.23L 142.11,370.93L 143.67,371.23L 145.23,370.35L 146.79,371.23L 148.35,371.52L 149.91,371.81L 151.47,372.68L 153.04,372.68L 154.60,372.68L 156.16,373.84L 157.72,373.84L 159.28,373.84L 160.84,373.84L 162.40,373.55L 163.96,373.84L 165.53,373.55L 167.09,373.84L 168.65,374.13L 170.21,373.84L 171.77,373.55L 173.33,373.55L 174.89,372.97L 176.46,372.97L 178.02,372.39L 179.58,372.39L 181.14,372.68L 182.70,372.97L 184.26,372.97L 185.82,372.97L 187.39,372.97L 188.95,372.68L 190.51,372.39L 192.07,372.39L 193.63,372.39L 195.19,372.39L 196.75,372.97L 198.32,373.26L 199.88,373.84L 201.44,374.13L 203.00,374.13L 204.56,373.55L 206.12,373.26L 207.68,372.39L 209.25,371.52L 210.81,371.52L 212.37,371.23L 213.93,370.35L 215.49,371.23L 217.05,371.23L 218.61,370.64L 220.18,371.23L 221.74,371.23L 223.30,371.23L 224.86,371.52L 226.42,370.64L 227.98,370.64L 229.54,371.23L 231.11,370.93L 232.67,370.06L 234.23,370.06L 235.79,369.77L 237.35,370.64L 238.91,370.35L 240.47,370.93L 242.04,370.93L 243.60,370.93L 245.16,370.35L 246.72,370.93L 248.28,369.77L 249.84,370.06L 251.40,369.77L 252.96,370.35L 254.53,370.93L 256.09,370.93L 257.65,370.06L 259.21,370.93L 260.77,370.93L 262.33,370.64L 263.89,369.19L 265.46,368.32L 267.02,367.74L 268.58,368.03L 270.14,367.16L 271.70,367.45L 273.26,367.16L 274.82,366.87L 276.39,366.00L 277.95,364.84L 279.51,364.84L 281.07,364.84L 282.63,362.51L 284.19,362.51L 285.75,363.39L 287.32,363.97L 288.88,365.71L 290.44,363.97L 292.00,363.97L 293.56,365.42L 295.12,365.71L 296.68,364.26L 298.25,364.26L 299.81,360.19L 301.37,358.45L 302.93,356.13L 304.49,355.25L 306.05,351.19L 307.61,350.32L 309.18,350.03L 310.74,351.77L 312.30,349.45L 313.86,351.19L 315.42,352.35L 316.98,354.67L 318.54,355.54L 320.11,354.38L 321.67,354.38L 323.23,359.61L 324.79,358.16L 326.35,353.22L 327.91,353.80L 329.47,352.64L 331.04,352.06L 332.60,351.77L 334.16,348.00L 335.72,345.96L 337.28,344.22L 338.84,336.67L 340.40,332.61L 341.96,326.22L 343.53,320.70L 345.09,318.67L 346.65,317.51L 348.21,317.51L 349.77,316.93L 351.33,315.18L 352.89,309.38L 354.46,302.41L 356.02,296.60L 357.58,293.70L 359.14,294.86L 360.70,289.63L 362.26,284.40L 363.82,286.73L 365.39,289.05L 366.95,290.79L 368.51,290.79L 370.07,284.98L 371.63,276.85L 373.19,270.76L 374.75,261.17L 376.32,257.69L 377.88,249.85L 379.44,243.46L 381.00,244.33L 382.56,244.91L 384.12,249.56L 385.68,260.88L 387.25,260.88L 388.81,260.01L 390.37,262.92L 391.93,261.46L 393.49,262.04L 395.05,262.63L 396.61,260.59L 398.18,264.37L 399.74,270.18L 401.30,271.34L 402.86,269.59L 404.42,274.24L 405.98,272.21L 407.54,269.59L 409.11,260.30L 410.67,258.27L 412.23,255.95L 413.79,258.27L 415.35,256.24L 416.91,260.01L 418.47,256.53L 420.04,266.40L 421.60,266.98L 423.16,270.76L 424.72,273.08L 426.28,276.85L 427.84,278.31L 429.40,282.95L 430.96,280.63L 432.53,274.82L 434.09,269.88L 435.65,263.21L 437.21,255.66L 438.77,246.36L 440.33,238.52L 441.89,232.72L 443.46,221.97L 445.02,213.84L 446.58,210.36L 448.14,204.55L 449.70,197.00L 451.26,183.06L 452.82,164.48L 454.39,150.83L 455.95,134.86L 457.51,101.18L 459.07,59.36L 460.63,10.00L 462.19,13.48" id="New cases" class="line" stroke-width="1" stroke-linecap="round"><title>New cases</title></path>
	<circle cx="25.00" cy="368.90" data-y="1.10" data-x="1583625600" r="1" fill="white"><title>2020-03-08: 1</title></circle>
	<circle cx="26.56" cy="367.28" data-y="1.40" data-x="1583712000" r="1" fill="white"><title>2020-03-09: 1</title></circle>
	<circle cx="28.12" cy="365.85" data-y="1.65" data-x="1583798400" r="1" fill="white"><title>2020-03-10: 2</title></circle>
	<circle cx="29.68" cy="366.87" data-y="1.47" data-x="1583884800" r="1" fill="white"><title>2020-03-11: 1</title></circle>
	<circle cx="31.25" cy="366.00" data-y="1.63" data-x="1583971200" r="1" fill="white"><title>2020-03-12: 2</title></circle>
	<circle cx="32.81" cy="366.00" data-y="1.63" data-x="1584057600" r="1" fill="white"><title>2020-03-13: 2</title></circle>
	<circle cx="34.37" cy="365.71" data-y="1.68" data-x="1584144000" r="1" fill="white"><title>2020-03-14: 2</title></circle>
	<circle cx="35.93" cy="363.68" data-y="2.05" data-x="1584230400" r="1" fill="white"><title>2020-03-15: 2</title></circle>
	<circle cx="37.49" cy="362.80" data-y="2.21" data-x="1584316800" r="1" fill="white"><title>2020-03-16: 2</title></circle>
	<circle cx="39.05" cy="361.93" data-y="2.36" data-x="1584403200" r="1" fill="white"><title>2020-03-17: 2</title></circle>
	<circle cx="40.61" cy="359.03" data-y="2.89" data-x="1584489600" r="1" fill="white"><title>2020-03-18: 3</title></circle>
	<circle cx="42.18" cy="357.00" data-y="3.26" data-x="1584576000" r="1" fill="white"><title>2020-03-19: 3</title></circle>
	<circle cx="43.74" cy="353.22" data-y="3.94" data-x="1584662400" r="1" fill="white"><title>2020-03-20: 4</title></circle>
	<circle cx="45.30" cy="348.87" data-y="4.73" data-x="1584748800" r="1" fill="white"><title>2020-03-21: 5</title></circle>
	<circle cx="46.86" cy="349.16" data-y="4.67" data-x="1584835200" r="1" fill="white"><title>2020-03-22: 5</title></circle>
	<circle cx="48.42" cy="349.16" data-y="4.67" data-x="1584921600" r="1" fill="white"><title>2020-03-23: 5</title></circle>
	<circle cx="49.98" cy="346.83" data-y="5.09" data-x="1585008000" r="1" fill="white"><title>2020-03-24: 5</title></circle>
	<circle cx="51.54" cy="345.38" data-y="5.36" data-x="1585094400" r="1" fill="white"><title>2020-03-25: 5</title></circle>
	<circle cx="53.11" cy="343.93" data-y="5.62" data-x="1585180800" r="1" fill="white"><title>2020-03-26: 6</title></circle>
	<circle cx="54.67" cy="342.48" data-y="5.88" data-x="1585267200" r="1" fill="white"><title>2020-03-27: 6</title></circle>
	<circle cx="56.23" cy="342.77" data-y="5.83" data-x="1585353600" r="1" fill="white"><title>2020-03-28: 6</title></circle>
	<circle cx="57.79" cy="339.57" data-y="6.41" data-x="1585440000" r="1" fill="white"><title>2020-03-29: 6</title></circle>
	<circle cx="59.35" cy="334.35" data-y="7.35" data-x="1585526400" r="1" fill="white"><title>2020-03-30: 7</title></circle>
	<circle cx="60.91" cy="332.02" data-y="7.77" data-x="1585612800" r="1" fill="white"><title>2020-03-31: 8</title></circle>
	<circle cx="62.47" cy="331.73" data-y="7.83" data-x="1585699200" r="1" fill="white"><title>2020-04-01: 8</title></circle>
	<circle cx="64.04" cy="333.77" data-y="7.46" data-x="1585785600" r="1" fill="white"><title>2020-04-02: 7</title></circle>
	<circle cx="65.60" cy="335.51" data-y="7.14" data-x="1585872000" r="1" fill="white"><title>2020-04-03: 7</title></circle>
	<circle cx="67.16" cy="332.02" data-y="7.77" data-x="1585958400" r="1" fill="white"><title>2020-04-04: 8</title></circle>
	<circle cx="68.72" cy="334.35" data-y="7.35" data-x="1586044800" r="1" fill="white"><title>2020-04-05: 7</title></circle>
	<circle cx="70.28" cy="336.67" data-y="6.93" data-x="1586131200" r="1" fill="white"><title>2020-04-06: 7</title></circle>
	<circle cx="71.84" cy="341.32" data-y="6.09" data-x="1586217600" r="1" fill="white"><title>2020-04-07: 6</title></circle>
	<circle cx="73.40" cy="343.35" data-y="5.73" data-x="1586304000" r="1" fill="white"><title>2020-04-08: 6</title></circle>
	<circle cx="74.96" cy="342.48" data-y="5.88" data-x="1586390400" r="1" fill="white"><title>2020-04-09: 6</title></circle>
	<circle cx="76.53" cy="341.61" data-y="6.04" data-x="1586476800" r="1" fill="white"><title>2020-04-10: 6</title></circle>
	<circle cx="78.09" cy="347.41" data-y="4.99" data-x="1586563200" r="1" fill="white"><title>2020-04-11: 5</title></circle>
	<circle cx="79.65" cy="347.70" data-y="4.94" data-x="1586649600" r="1" fill="white"><title>2020-04-12: 5</title></circle>
	<circle cx="81.21" cy="352.06" data-y="4.15" data-x="1586736000" r="1" fill="white"><title>2020-04-13: 4</title></circle>
	<circle cx="82.77" cy="353.22" data-y="3.94" data-x="1586822400" r="1" fill="white"><title>2020-04-14: 4</title></circle>
	<circle cx="84.33" cy="354.96" data-y="3.62" data-x="1586908800" r="1" fill="white"><title>2020-04-15: 4</title></circle>
	<circle cx="85.89" cy="353.51" data-y="3.89" data-x="1586995200" r="1" fill="white"><title>2020-04-16: 4</title></circle>
	<circle cx="87.46" cy="357.00" data-y="3.26" data-x="1587081600" r="1" fill="white"><title>2020-04-17: 3</title></circle>
	<circle cx="89.02" cy="356.71" data-y="3.31" data-x="1587168000" r="1" fill="white"><title>2020-04-18: 3</title></circle>
	<circle cx="90.58" cy="358.74" data-y="2.94" data-x="1587254400" r="1" fill="white"><title>2020-04-19: 3</title></circle>
	<circle cx="92.14" cy="356.42" data-y="3.36" data-x="1587340800" r="1" fill="white"><title>2020-04-20: 3</title></circle>
	<circle cx="93.70" cy="355.84" data-y="3.47" data-x="1587427200" r="1" fill="white"><title>2020-04-21: 3</title></circle>
	<circle cx="95.26" cy="354.38" data-y="3.73" data-x="1587513600" r="1" fill="white"><title>2020-04-22: 4</title></circle>
	<circle cx="96.82" cy="357.29" data-y="3.20" data-x="1587600000" r="1" fill="white"><title>2020-04-23: 3</title></circle>
	<circle cx="98.39" cy="356.13" data-y="3.41" data-x="1587686400" r="1" fill="white"><title>2020-04-24: 3</title></circle>
	<circle cx="99.95" cy="358.16" data-y="3.05" data-x="1587772800" r="1" fill="white"><title>2020-04-25: 3</title></circle>
	<circle cx="101.51" cy="357.29" data-y="3.20" data-x="1587859200" r="1" fill="white"><title>2020-04-26: 3</title></circle>
	<circle cx="103.07" cy="360.19" data-y="2.68" data-x="1587945600" r="1" fill="white"><title>2020-04-27: 3</title></circle>
	<circle cx="104.63" cy="360.19" data-y="2.68" data-x="1588032000" r="1" fill="white"><title>2020-04-28: 3</title></circle>
	<circle cx="106.19" cy="361.93" data-y="2.36" data-x="1588118400" r="1" fill="white"><title>2020-04-29: 2</title></circle>
	<circle cx="107.75" cy="363.68" data-y="2.05" data-x="1588204800" r="1" fill="white"><title>2020-04-30: 2</title></circle>
	<circle cx="109.32" cy="365.42" data-y="1.73" data-x="1588291200" r="1" fill="white"><title>2020-05-01: 2</title></circle>
	<circle cx="110.88" cy="365.13" data-y="1.79" data-x="1588377600" r="1" fill="white"><title>2020-05-02: 2</title></circle>
	<circle cx="112.44" cy="366.29" data-y="1.58" data-x="1588464000" r="1" fill="white"><title>2020-05-03: 2</title></circle>
	<circle cx="114.00" cy="363.39" data-y="2.10" data-x="1588550400" r="1" fill="white"><title>2020-05-04: 2</title></circle>
	<circle cx="115.56" cy="364.26" data-y="1.94" data-x="1588636800" r="1" fill="white"><title>2020-05-05: 2</title></circle>
	<circle cx="117.12" cy="364.55" data-y="1.89" data-x="1588723200" r="1" fill="white"><title>2020-05-06: 2</title></circle>
	<circle cx="118.68" cy="363.68" data-y="2.05" data-x="1588809600" r="1" fill="white"><title>2020-05-07: 2</title></circle>
	<circle cx="120.25" cy="363.39" data-y="2.10" data-x="1588896000" r="1" fill="white"><title>2020-05-08: 2</title></circle>
	<circle cx="121.81" cy="364.55" data-y="1.89" data-x="1588982400" r="1" fill="white"><title>2020-05-09: 2</title></circle>
	<circle cx="123.37" cy="365.13" data-y="1.79" data-x="1589068800" r="1" fill="white"><title>2020-05-10: 2</title></circle>
	<circle cx="124.93" cy="367.45" data-y="1.37" data-x="1589155200" r="1" fill="white"><title>2020-05-11: 1</title></circle>
	<circle cx="126.49" cy="367.16" data-y="1.42" data-x="1589241600" r="1" fill="white"><title>2020-05-12: 1</title></circle>
	<circle cx="128.05" cy="366.29" data-y="1.58" data-x="1589328000" r="1" fill="white"><title>2020-05-13: 2</title></circle>
	<circle cx="129.61" cy="367.16" data-y="1.42" data-x="1589414400" r="1" fill="white"><title>2020-05-14: 1</title></circle>
	<circle cx="131.18" cy="368.32" data-y="1.21" data-x="1589500800" r="1" fill="white"><title>2020-05-15: 1</title></circle>
	<circle cx="132.74" cy="368.32" data-y="1.21" data-x="1589587200" r="1" fill="white"><title>2020-05-16: 1</title></circle>
	<circle cx="134.30" cy="368.90" data-y="1.10" data-x="1589673600" r="1" fill="white"><title>2020-05-17: 1</title></circle>
	<circle cx="135.86" cy="369.19" data-y="1.05" data-x="1589760000" r="1" fill="white"><title>2020-05-18: 1</title></circle>
	<circle cx="137.42" cy="370.93" data-y="0.74" data-x="1589846400" r="1" fill="white"><title>2020-05-19: 1</title></circle>
	<circle cx="138.98" cy="371.81" data-y="0.58" data-x="1589932800" r="1" fill="white"><title>2020-05-20: 1</title></circle>
	<circle cx="140.54" cy="371.23" data-y="0.68" data-x="1590019200" r="1" fill="white"><title>2020-05-21: 1</title></circle>
	<circle cx="142.11" cy="370.93" data-y="0.74" data-x="1590105600" r="1" fill="white"><title>2020-05-22: 1</title></circle>
	<circle cx="143.67" cy="371.23" data-y="0.68" data-x="1590192000" r="1" fill="white"><title>2020-05-23: 1</title></circle>
	<circle cx="145.23" cy="370.35" data-y="0.84" data-x="1590278400" r="1" fill="white"><title>2020-05-24: 1</title></circle>
	<circle cx="146.79" cy="371.23" data-y="0.68" data-x="1590364800" r="1" fill="white"><title>2020-05-25: 1</title></circle>
	<circle cx="148.35" cy="371.52" data-y="0.63" data-x="1590451200" r="1" fill="white"><title>2020-05-26: 1</title></circle>
	<circle cx="149.91" cy="371.81" data-y="0.58" data-x="1590537600" r="1" fill="white"><title>2020-05-27: 1</title></circle>
	<circle cx="151.47" cy="372.68" data-y="0.42" data-x="1590624000" r="1" fill="white"><title>2020-05-28: 0</title></circle>
	<circle cx="153.04" cy="372.68" data-y="0.42" data-x="1590710400" r="1" fill="white"><title>2020-05-29: 0</title></circle>
	<circle cx="154.60" cy="372.68" data-y="0.42" data-x="1590796800" r="1" fill="white"><title>2020-05-30: 0</title></circle>
	<circle cx="156.16" cy="373.84" data-y="0.21" data-x="1590883200" r="1" fill="white"><title>2020-05-31: 0</title></circle>
	<circle cx="157.72" cy="373.84" data-y="0.21" data-x="1590969600" r="1" fill="white"><title>2020-06-01: 0</title></circle>
	<circle cx="159.28" cy="373.84" data-y="0.21" data-x="1591056000" r="1" fill="white"><title>2020-06-02: 0</title></circle>
	<circle cx="160.84" cy="373.84" data-y="0.21" data-x="1591142400" r="1" fill="white"><title>2020-06-03: 0</title></circle>
	<circle cx="162.40" cy="373.55" data-y="0.26" data-x="1591228800" r="1" fill="white"><title>2020-06-04: 0</title></circle>
	<circle cx="163.96" cy="373.84" data-y="0.21" data-x="1591315200" r="1" fill="white"><title>2020-06-05: 0</title></circle>
	<circle cx="165.53" cy="373.55" data-y="0.26" data-x="1591401600" r="1" fill="white"><title>2020-06-06: 0</title></circle>
	<circle cx="167.09" cy="373.84" data-y="0.21" data-x="1591488000" r="1" fill="white"><title>2020-06-07: 0</title></circle>
	<circle cx="168.65" cy="374.13" data-y="0.16" data-x="1591574400" r="1" fill="white"><title>2020-06-08: 0</title></circle>
	<circle cx="170.21" cy="373.84" data-y="0.21" data-x="1591660800" r="1" fill="white"><title>2020-06-09: 0</title></circle>
	<circle cx="171.77" cy="373.55" data-y="0.26" data-x="1591747200" r="1" fill="white"><title>2020-06-10: 0</title></circle>
	<circle cx="173.33" cy="373.55" data-y="0.26" data-x="1591833600" r="1" fill="white"><title>2020-06-11: 0</title></circle>
	<circle cx="174.89" cy="372.97" data-y="0.37" data-x="1591920000" r="1" fill="white"><title>2020-06-12: 0</title></circle>
	<circle cx="176.46" cy="372.97" data-y="0.37" data-x="1592006400" r="1" fill="white"><title>2020-06-13: 0</title></circle>
	<circle cx="178.02" cy="372.39" data-y="0.47" data-x="1592092800" r="1" fill="white"><title>2020-06-14: 0</title></circle>
	<circle cx="179.58" cy="372.39" data-y="0.47" data-x="1592179200" r="1" fill="white"><title>2020-06-15: 0</title></circle>
	<circle cx="181.14" cy="372.68" data-y="0.42" data-x="1592265600" r="1" fill="white"><title>2020-06-16: 0</title></circle>
	<circle cx="182.70" cy="372.97" data-y="0.37" data-x="1592352000" r="1" fill="white"><title>2020-06-17: 0</title></circle>
	<circle cx="184.26" cy="372.97" data-y="0.37" data-x="1592438400" r="1" fill="white"><title>2020-06-18: 0</title></circle>
	<circle cx="185.82" cy="372.97" data-y="0.37" data-x="1592524800" r="1" fill="white"><title>2020-06-19: 0</title></circle>
	<circle cx="187.39" cy="372.97" data-y="0.37" data-x="1592611200" r="1" fill="white"><title>2020-06-20: 0</title></circle>
	<circle cx="188.95" cy="372.68" data-y="0.42" data-x="1592697600" r="1" fill="white"><title>2020-06-21: 0</title></circle>
	<circle cx="190.51" cy="372.39" data-y="0.47" data-x="1592784000" r="1" fill="white"><title>2020-06-22: 0</title></circle>
	<circle cx="192.07" cy="372.39" data-y="0.47" data-x="1592870400" r="1" fill="white"><title>2020-06-23: 0</title></circle>
	<circle cx="193.63" cy="372.39" data-y="0.47" data-x="1592956800" r="1" fill="white"><title>2020-06-24: 0</title></circle>
	<circle cx="195.19" cy="372.39" data-y="0.47" data-x="1593043200" r="1" fill="white"><title>2020-06-25: 0</title></circle>
	<circle cx="196.75" cy="372.97" data-y="0.37" data-x="1593129600" r="1" fill="white"><title>2020-06-26: 0</title></circle>
	<circle cx="198.32" cy="373.26" data-y="0.32" data-x="1593216000" r="1" fill="white"><title>2020-06-27: 0</title></circle>
	<circle cx="199.88" cy="373.84" data-y="0.21" data-x="1593302400" r="1" fill="white"><title>2020-06-28: 0</title></circle>
	<circle cx="201.44" cy="374.13" data-y="0.16" data-x="1593388800" r="1" fill="white"><title>2020-06-29: 0</title></circle>
	<circle cx="203.00" cy="374.13" data-y="0.16" data-x="1593475200" r="1" fill="white"><title>2020-06-30: 0</title></circle>
	<circle cx="204.56" cy="373.55" data-y="0.26" data-x="1593561600" r="1" fill="white"><title>2020-07-01: 0</title></circle>
	<circle cx="206.12" cy="373.26" data-y="0.32" data-x="1593648000" r="1" fill="white"><title>2020-07-02: 0</title></circle>
	<circle cx="207.68" cy="372.39" data-y="0.47" data-x="1593734400" r="1" fill="white"><title>2020-07-03: 0</title></circle>
	<circle cx="209.25" cy="371.52" data-y="0.63" data-x="1593820800" r="1" fill="white"><title>2020-07-04: 1</title></circle>
	<circle cx="210.81" cy="371.52" data-y="0.63" data-x="1593907200" r="1" fill="white"><title>2020-07-05: 1</title></circle>
	<circle cx="212.37" cy="371.23" data-y="0.68" data-x="1593993600" r="1" fill="white"><title>2020-07-06: 1</title></circle>
	<circle cx="213.93" cy="370.35" data-y="0.84" data-x="1594080000" r="1" fill="white"><title>2020-07-07: 1</title></circle>
	<circle cx="215.49" cy="371.23" data-y="0.68" data-x="1594166400" r="1" fill="white"><title>2020-07-08: 1</title></circle>
	<circle cx="217.05" cy="371.23" data-y="0.68" data-x="1594252800" r="1" fill="white"><title>2020-07-09: 1</title></circle>
	<circle cx="218.61" cy="370.64" data-y="0.79" data-x="1594339200" r="1" fill="white"><title>2020-07-10: 1</title></circle>
	<circle cx="220.18" cy="371.23" data-y="0.68" data-x="1594425600" r="1" fill="white"><title>2020-07-11: 1</title></circle>
	<circle cx="221.74" cy="371.23" data-y="0.68" data-x="1594512000" r="1" fill="white"><title>2020-07-12: 1</title></circle>
	<circle cx="223.30" cy="371.23" data-y="0.68" data-x="1594598400" r="1" fill="white"><title>2020-07-13: 1</title></circle>
	<circle cx="224.86" cy="371.52" data-y="0.63" data-x="1594684800" r="1" fill="white"><title>2020-07-14: 1</title></circle>
	<circle cx="226.42" cy="370.64" data-y="0.79" data-x="1594771200" r="1" fill="white"><title>2020-07-15: 1</title></circle>
	<circle cx="227.98" cy="370.64" data-y="0.79" data-x="1594857600" r="1" fill="white"><title>2020-07-16: 1</title></circle>
	<circle cx="229.54" cy="371.23" data-y="0.68" data-x="1594944000" r="1" fill="white"><title>2020-07-17: 1</title></circle>
	<circle cx="231.11" cy="370.93" data-y="0.74" data-x="1595030400" r="1" fill="white"><title>2020-07-18: 1</title></circle>
	<circle cx="232.67" cy="370.06" data-y="0.89" data-x="1595116800" r="1" fill="white"><title>2020-07-19: 1</title></circle>
	<circle cx="234.23" cy="370.06" data-y="0.89" data-x="1595203200" r="1" fill="white"><title>2020-07-20: 1</title></circle>
	<circle cx="235.79" cy="369.77" data-y="0.95" data-x="1595289600" r="1" fill="white"><title>2020-07-21: 1</title></circle>
	<circle cx="237.35" cy="370.64" data-y="0.79" data-x="1595376000" r="1" fill="white"><title>2020-07-22: 1</title></circle>
	<circle cx="238.91" cy="370.35" data-y="0.84" data-x="1595462400" r="1" fill="white"><title>2020-07-23: 1</title></circle>
	<circle cx="240.47" cy="370.93" data-y="0.74" data-x="1595548800" r="1" fill="white"><title>2020-07-24: 1</title></circle>
	<circle cx="242.04" cy="370.93" data-y="0.74" data-x="1595635200" r="1" fill="white"><title>2020-07-25: 1</title></circle>
	<circle cx="243.60" cy="370.93" data-y="0.74" data-x="1595721600" r="1" fill="white"><title>2020-07-26: 1</title></circle>
	<circle cx="245.16" cy="370.35" data-y="0.84" data-x="1595808000" r="1" fill="white"><title>2020-07-27: 1</title></circle>
	<circle cx="246.72" cy="370.93" data-y="0.74" data-x="1595894400" r="1" fill="white"><title>2020-07-28: 1</title></circle>
	<circle cx="248.28" cy="369.77" data-y="0.95" data-x="1595980800" r="1" fill="white"><title>2020-07-29: 1</title></circle>
	<circle cx="249.84" cy="370.06" data-y="0.89" data-x="1596067200" r="1" fill="white"><title>2020-07-30: 1</title></circle>
	<circle cx="251.40" cy="369.77" data-y="0.95" data-x="1596153600" r="1" fill="white"><title>2020-07-31: 1</title></circle>
	<circle cx="252.96" cy="370.35" data-y="0.84" data-x="1596240000" r="1" fill="white"><title>2020-08-01: 1</title></circle>
	<circle cx="254.53" cy="370.93" data-y="0.74" data-x="1596326400" r="1" fill="white"><title>2020-08-02: 1</title></circle>
	<circle cx="256.09" cy="370.93" data-y="0.74" data-x="1596412800" r="1" fill="white"><title>2020-08-03: 1</title></circle>
	<circle cx="257.65" cy="370.06" data-y="0.89" data-x="1596499200" r="1" fill="white"><title>2020-08-04: 1</title></circle>
	<circle cx="259.21" cy="370.93" data-y="0.74" data-x="1596585600" r="1" fill="white"><title>2020-08-05: 1</title></circle>
	<circle cx="260.77" cy="370.93" data-y="0.74" data-x="1596672000" r="1" fill="white"><title>2020-08-06: 1</title></circle>
	<circle cx="262.33" cy="370.64" data-y="0.79" data-x="1596758400" r="1" fill="white"><title>2020-08-07: 1</title></circle>
	<circle cx="263.89" cy="369.19" data-y="1.05" data-x="1596844800" r="1" fill="white"><title>2020-08-08: 1</title></circle>
	<circle cx="265.46" cy="368.32" data-y="1.21" data-x="1596931200" r="1" fill="white"><title>2020-08-09: 1</title></circle>
	<circle cx="267.02" cy="367.74" data-y="1.31" data-x="1597017600" r="1" fill="white"><title>2020-08-10: 1</title></circle>
	<circle cx="268.58" cy="368.03" data-y="1.26" data-x="1597104000" r="1" fill="white"><title>2020-08-11: 1</title></circle>
	<circle cx="270.14" cy="367.16" data-y="1.42" data-x="1597190400" r="1" fill="white"><title>2020-08-12: 1</title></circle>
	<circle cx="271.70" cy="367.45" data-y="1.37" data-x="1597276800" r="1" fill="white"><title>2020-08-13: 1</title></circle>
	<circle cx="273.26" cy="367.16" data-y="1.42" data-x="1597363200" r="1" fill="white"><title>2020-08-14: 1</title></circle>
	<circle cx="274.82" cy="366.87" data-y="1.47" data-x="1597449600" r="1" fill="white"><title>2020-08-15: 1</title></circle>
	<circle cx="276.39" cy="366.00" data-y="1.63" data-x="1597536000" r="1" fill="white"><title>2020-08-16: 2</title></circle>
	<circle cx="277.95" cy="364.84" data-y="1.84" data-x="1597622400" r="1" fill="white"><title>2020-08-17: 2</title></circle>
	<circle cx="279.51" cy="364.84" data-y="1.84" data-x="1597708800" r="1" fill="white"><title>2020-08-18: 2</title></circle>
	<circle cx="281.07" cy="364.84" data-y="1.84" data-x="1597795200" r="1" fill="white"><title>2020-08-19: 2</title></circle>
	<circle cx="282.63" cy="362.51" data-y="2.26" data-x="1597881600" r="1" fill="white"><title>2020-08-20: 2</title></circle>
	<circle cx="284.19" cy="362.51" data-y="2.26" data-x="1597968000" r="1" fill="white"><title>2020-08-21: 2</title></circle>
	<circle cx="285.75" cy="363.39" data-y="2.10" data-x="1598054400" r="1" fill="white"><title>2020-08-22: 2</title></circle>
	<circle cx="287.32" cy="363.97" data-y="2.00" data-x="1598140800" r="1" fill="white"><title>2020-08-23: 2</title></circle>
	<circle cx="288.88" cy="365.71" data-y="1.68" data-x="1598227200" r="1" fill="white"><title>2020-08-24: 2</title></circle>
	<circle cx="290.44" cy="363.97" data-y="2.00" data-x="1598313600" r="1" fill="white"><title>2020-08-25: 2</title></circle>
	<circle cx="292.00" cy="363.97" data-y="2.00" data-x="1598400000" r="1" fill="white"><title>2020-08-26: 2</title></circle>
	<circle cx="293.56" cy="365.42" data-y="1.73" data-x="1598486400" r="1" fill="white"><title>2020-08-27: 2</title></circle>
	<circle cx="295.12" cy="365.71" data-y="1.68" data-x="1598572800" r="1" fill="white"><title>2020-08-28: 2</title></circle>
	<circle cx="296.68" cy="364.26" data-y="1.94" data-x="1598659200" r="1" fill="white"><title>2020-08-29: 2</title></circle>
	<circle cx="298.25" cy="364.26" data-y="1.94" data-x="1598745600" r="1" fill="white"><title>2020-08-30: 2</title></circle>
	<circle cx="299.81" cy="360.19" data-y="2.68" data-x="1598832000" r="1" fill="white"><title>2020-08-31: 3</title></circle>
	<circle cx="301.37" cy="358.45" data-y="2.99" data-x="1598918400" r="1" fill="white"><title>2020-09-01: 3</title></circle>
	<circle cx="302.93" cy="356.13" data-y="3.41" data-x="1599004800" r="1" fill="white"><title>2020-09-02: 3</title></circle>
	<circle cx="304.49" cy="355.25" data-y="3.57" data-x="1599091200" r="1" fill="white"><title>2020-09-03: 4</title></circle>
	<circle cx="306.05" cy="351.19" data-y="4.31" data-x="1599177600" r="1" fill="white"><title>2020-09-04: 4</title></circle>
	<circle cx="307.61" cy="350.32" data-y="4.46" data-x="1599264000" r="1" fill="white"><title>2020-09-05: 4</title></circle>
	<circle cx="309.18" cy="350.03" data-y="4.52" data-x="1599350400" r="1" fill="white"><title>2020-09-06: 5</title></circle>
	<circle cx="310.74" cy="351.77" data-y="4.20" data-x="1599436800" r="1" fill="white"><title>2020-09-07: 4</title></circle>
	<circle cx="312.30" cy="349.45" data-y="4.62" data-x="1599523200" r="1" fill="white"><title>2020-09-08: 5</title></circle>
	<circle cx="313.86" cy="351.19" data-y="4.31" data-x="1599609600" r="1" fill="white"><title>2020-09-09: 4</title></circle>
	<circle cx="315.42" cy="352.35" data-y="4.10" data-x="1599696000" r="1" fill="white"><title>2020-09-10: 4</title></circle>
	<circle cx="316.98" cy="354.67" data-y="3.68" data-x="1599782400" r="1" fill="white"><title>2020-09-11: 4</title></circle>
	<circle cx="318.54" cy="355.54" data-y="3.52" data-x="1599868800" r="1" fill="white"><title>2020-09-12: 4</title></circle>
	<circle cx="320.11" cy="354.38" data-y="3.73" data-x="1599955200" r="1" fill="white"><title>2020-09-13: 4</title></circle>
	<circle cx="321.67" cy="354.38" data-y="3.73" data-x="1600041600" r="1" fill="white"><title>2020-09-14: 4</title></circle>
	<circle cx="323.23" cy="359.61" data-y="2.78" data-x="1600128000" r="1" fill="white"><title>2020-09-15: 3</title></circle>
	<circle cx="324.79" cy="358.16" data-y="3.05" data-x="1600214400" r="1" fill="white"><title>2020-09-16: 3</title></circle>
	<circle cx="326.35" cy="353.22" data-y="3.94" data-x="1600300800" r="1" fill="white"><title>2020-09-17: 4</title></circle>
	<circle cx="327.91" cy="353.80" data-y="3.83" data-x="1600387200" r="1" fill="white"><title>2020-09-18: 4</title></circle>
	<circle cx="329.47" cy="352.64" data-y="4.04" data-x="1600473600" r="1" fill="white"><title>2020-09-19: 4</title></circle>
	<circle cx="331.04" cy="352.06" data-y="4.15" data-x="1600560000" r="1" fill="white"><title>2020-09-20: 4</title></circle>
	<circle cx="332.60" cy="351.77" data-y="4.20" data-x="1600646400" r="1" fill="white"><title>2020-09-21: 4</title></circle>
	<circle cx="334.16" cy="348.00" data-y="4.88" data-x="1600732800" r="1" fill="white"><title>2020-09-22: 5</title></circle>
	<circle cx="335.72" cy="345.96" data-y="5.25" data-x="1600819200" r="1" fill="white"><title>2020-09-23: 5</title></circle>
	<circle cx="337.28" cy="344.22" data-y="5.57" data-x="1600905600" r="1" fill="white"><title>2020-09-24: 6</title></circle>
	<circle cx="338.84" cy="336.67" data-y="6.93" data-x="1600992000" r="1" fill="white"><title>2020-09-25: 7</title></circle>
	<circle cx="340.40" cy="332.61" data-y="7.67" data-x="1601078400" r="1" fill="white"><title>2020-09-26: 8</title></circle>
	<circle cx="341.96" cy="326.22" data-y="8.82" data-x="1601164800" r="1" fill="white"><title>2020-09-27: 9</title></circle>
	<circle cx="343.53" cy="320.70" data-y="9.82" data-x="1601251200" r="1" fill="white"><title>2020-09-28: 10</title></circle>
	<circle cx="345.09" cy="318.67" data-y="10.19" data-x="1601337600" r="1" fill="white"><title>2020-09-29: 10</title></circle>
	<circle cx="346.65" cy="317.51" data-y="10.40" data-x="1601424000" r="1" fill="white"><title>2020-09-30: 10</title></circle>
	<circle cx="348.21" cy="317.51" data-y="10.40" data-x="1601510400" r="1" fill="white"><title>2020-10-01: 10</title></circle>
	<circle cx="349.77" cy="316.93" data-y="10.50" data-x="1601596800" r="1" fill="white"><title>2020-10-02: 11</title></circle>
	<circle cx="351.33" cy="315.18" data-y="10.82" data-x="1601683200" r="1" fill="white"><title>2020-10-03: 11</title></circle>
	<circle cx="352.89" cy="309.38" data-y="11.87" data-x="1601769600" r="1" fill="white"><title>2020-10-04: 12</title></circle>
	<circle cx="354.46" cy="302.41" data-y="13.13" data-x="1601856000" r="1" fill="white"><title>2020-10-05: 13</title></circle>
	<circle cx="356.02" cy="296.60" data-y="14.18" data-x="1601942400" r="1" fill="white"><title>2020-10-06: 14</title></circle>
	<circle cx="357.58" cy="293.70" data-y="14.71" data-x="1602028800" r="1" fill="white"><title>2020-10-07: 15</title></circle>
	<circle cx="359.14" cy="294.86" data-y="14.50" data-x="1602115200" r="1" fill="white"><title>2020-10-08: 14</title></circle>
	<circle cx="360.70" cy="289.63" data-y="15.44" data-x="1602201600" r="1" fill="white"><title>2020-10-09: 15</title></circle>
	<circle cx="362.26" cy="284.40" data-y="16.39" data-x="1602288000" r="1" fill="white"><title>2020-10-10: 16</title></circle>
	<circle cx="363.82" cy="286.73" data-y="15.97" data-x="1602374400" r="1" fill="white"><title>2020-10-11: 16</title></circle>
	<circle cx="365.39" cy="289.05" data-y="15.55" data-x="1602460800" r="1" fill="white"><title>2020-10-12: 16</title></circle>
	<circle cx="366.95" cy="290.79" data-y="15.23" data-x="1602547200" r="1" fill="white"><title>2020-10-13: 15</title></circle>
	<circle cx="368.51" cy="290.79" data-y="15.23" data-x="1602633600" r="1" fill="white"><title>2020-10-14: 15</title></circle>
	<circle cx="370.07" cy="284.98" data-y="16.28" data-x="1602720000" r="1" fill="white"><title>2020-10-15: 16</title></circle>
	<circle cx="371.63" cy="276.85" data-y="17.75" data-x="1602806400" r="1" fill="white"><title>2020-10-16: 18</title></circle>
	<circle cx="373.19" cy="270.76" data-y="18.86" data-x="1602892800" r="1" fill="white"><title>2020-10-17: 19</title></circle>
	<circle cx="374.75" cy="261.17" data-y="20.59" data-x="1602979200" r="1" fill="white"><title>2020-10-18: 21</title></circle>
	<circle cx="376.32" cy="257.69" data-y="21.22" data-x="1603065600" r="1" fill="white"><title>2020-10-19: 21</title></circle>
	<circle cx="377.88" cy="249.85" data-y="22.64" data-x="1603152000" r="1" fill="white"><title>2020-10-20: 23</title></circle>
	<circle cx="379.44" cy="243.46" data-y="23.79" data-x="1603238400" r="1" fill="white"><title>2020-10-21: 24</title></circle>
	<circle cx="381.00" cy="244.33" data-y="23.64" data-x="1603324800" r="1" fill="white"><title>2020-10-22: 24</title></circle>
	<circle cx="382.56" cy="244.91" data-y="23.53" data-x="1603411200" r="1" fill="white"><title>2020-10-23: 24</title></circle>
	<circle cx="384.12" cy="249.56" data-y="22.69" data-x="1603497600" r="1" fill="white"><title>2020-10-24: 23</title></circle>
	<circle cx="385.68" cy="260.88" data-y="20.64" data-x="1603584000" r="1" fill="white"><title>2020-10-25: 21</title></circle>
	<circle cx="387.25" cy="260.88" data-y="20.64" data-x="1603670400" r="1" fill="white"><title>2020-10-26: 21</title></circle>
	<circle cx="388.81" cy="260.01" data-y="20.80" data-x="1603756800" r="1" fill="white"><title>2020-10-27: 21</title></circle>
	<circle cx="390.37" cy="262.92" data-y="20.27" data-x="1603843200" r="1" fill="white"><title>2020-10-28: 20</title></circle>
	<circle cx="391.93" cy="261.46" data-y="20.54" data-x="1603929600" r="1" fill="white"><title>2020-10-29: 21</title></circle>
	<circle cx="393.49" cy="262.04" data-y="20.43" data-x="1604016000" r="1" fill="white"><title>2020-10-30: 20</title></circle>
	<circle cx="395.05" cy="262.63" data-y="20.33" data-x="1604102400" r="1" fill="white"><title>2020-10-31: 20</title></circle>
	<circle cx="396.61" cy="260.59" data-y="20.69" data-x="1604188800" r="1" fill="white"><title>2020-11-01: 21</title></circle>
	<circle cx="398.18" cy="264.37" data-y="20.01" data-x="1604275200" r="1" fill="white"><title>2020-11-02: 20</title></circle>
	<circle cx="399.74" cy="270.18" data-y="18.96" data-x="1604361600" r="1" fill="white"><title>2020-11-03: 19</title></circle>
	<circle cx="401.30" cy="271.34" data-y="18.75" data-x="1604448000" r="1" fill="white"><title>2020-11-04: 19</title></circle>
	<circle cx="402.86" cy="269.59" data-y="19.07" data-x="1604534400" r="1" fill="white"><title>2020-11-05: 19</title></circle>
	<circle cx="404.42" cy="274.24" data-y="18.23" data-x="1604620800" r="1" fill="white"><title>2020-11-06: 18</title></circle>
	<circle cx="405.98" cy="272.21" data-y="18.59" data-x="1604707200" r="1" fill="white"><title>2020-11-07: 19</title></circle>
	<circle cx="407.54" cy="269.59" data-y="19.07" data-x="1604793600" r="1" fill="white"><title>2020-11-08: 19</title></circle>
	<circle cx="409.11" cy="260.30" data-y="20.75" data-x="1604880000" r="1" fill="white"><title>2020-11-09: 21</title></circle>
	<circle cx="410.67" cy="258.27" data-y="21.11" data-x="1604966400" r="1" fill="white"><title>2020-11-10: 21</title></circle>
	<circle cx="412.23" cy="255.95" data-y="21.53" data-x="1605052800" r="1" fill="white"><title>2020-11-11: 22</title></circle>
	<circle cx="413.79" cy="258.27" data-y="21.11" data-x="1605139200" r="1" fill="white"><title>2020-11-12: 21</title></circle>
	<circle cx="415.35" cy="256.24" data-y="21.48" data-x="1605225600" r="1" fill="white"><title>2020-11-13: 21</title></circle>
	<circle cx="416.91" cy="260.01" data-y="20.80" data-x="1605312000" r="1" fill="white"><title>2020-11-14: 21</title></circle>
	<circle cx="418.47" cy="256.53" data-y="21.43" data-x="1605398400" r="1" fill="white"><title>2020-11-15: 21</title></circle>
	<circle cx="420.04" cy="266.40" data-y="19.64" data-x="1605484800" r="1" fill="white"><title>2020-11-16: 20</title></circle>
	<circle cx="421.60" cy="266.98" data-y="19.54" data-x="1605571200" r="1" fill="white"><title>2020-11-17: 20</title></circle>
	<circle cx="423.16" cy="270.76" data-y="18.86" data-x="1605657600" r="1" fill="white"><title>2020-11-18: 19</title></circle>
	<circle cx="424.72" cy="273.08" data-y="18.44" data-x="1605744000" r="1" fill="white"><title>2020-11-19: 18</title></circle>
	<circle cx="426.28" cy="276.85" data-y="17.75" data-x="1605830400" r="1" fill="white"><title>2020-11-20: 18</title></circle>
	<circle cx="427.84" cy="278.31" data-y="17.49" data-x="1605916800" r="1" fill="white"><title>2020-11-21: 17</title></circle>
	<circle cx="429.40" cy="282.95" data-y="16.65" data-x="1606003200" r="1" fill="white"><title>2020-11-22: 17</title></circle>
	<circle cx="430.96" cy="280.63" data-y="17.07" data-x="1606089600" r="1" fill="white"><title>2020-11-23: 17</title></circle>
	<circle cx="432.53" cy="274.82" data-y="18.12" data-x="1606176000" r="1" fill="white"><title>2020-11-24: 18</title></circle>
	<circle cx="434.09" cy="269.88" data-y="19.01" data-x="1606262400" r="1" fill="white"><title>2020-11-25: 19</title></circle>
	<circle cx="435.65" cy="263.21" data-y="20.22" data-x="1606348800" r="1" fill="white"><title>2020-11-26: 20</title></circle>
	<circle cx="437.21" cy="255.66" data-y="21.59" data-x="1606435200" r="1" fill="white"><title>2020-11-27: 22</title></circle>
	<circle cx="438.77" cy="246.36" data-y="23.27" data-x="1606521600" r="1" fill="white"><title>2020-11-28: 23</title></circle>
	<circle cx="440.33" cy="238.52" data-y="24.69" data-x="1606608000" r="1" fill="white"><title>2020-11-29: 25</title></circle>
	<circle cx="441.89" cy="232.72" data-y="25.74" data-x="1606694400" r="1" fill="white"><title>2020-11-30: 26</title></circle>
	<circle cx="443.46" cy="221.97" data-y="27.68" data-x="1606780800" r="1" fill="white"><title>2020-12-01: 28</title></circle>
	<circle cx="445.02" cy="213.84" data-y="29.15" data-x="1606867200" r="1" fill="white"><title>2020-12-02: 29</title></circle>
	<circle cx="446.58" cy="210.36" data-y="29.78" data-x="1606953600" r="1" fill="white"><title>2020-12-03: 30</title></circle>
	<circle cx="448.14" cy="204.55" data-y="30.83" data-x="1607040000" r="1" fill="white"><title>2020-12-04: 31</title></circle>
	<circle cx="449.70" cy="197.00" data-y="32.20" data-x="1607126400" r="1" fill="white"><title>2020-12-05: 32</title></circle>
	<circle cx="451.26" cy="183.06" data-y="34.72" data-x="1607212800" r="1" fill="white"><title>2020-12-06: 35</title></circle>
	<circle cx="452.82" cy="164.48" data-y="38.08" data-x="1607299200" r="1" fill="white"><title>2020-12-07: 38</title></circle>
	<circle cx="454.39" cy="150.83" data-y="40.55" data-x="1607385600" r="1" fill="white"><title>2020-12-08: 41</title></circle>
	<circle cx="455.95" cy="134.86" data-y="43.44" data-x="1607472000" r="1" fill="white"><title>2020-12-09: 43</title></circle>
	<circle cx="457.51" cy="101.18" data-y="49.53" data-x="1607558400" r="1" fill="white"><title>2020-12-10: 50</title></circle>
	<circle cx="459.07" cy="59.36" data-y="57.09" data-x="1607644800" r="1" fill="white"><title>2020-12-11: 57</title></circle>
	<circle cx="460.63" cy="10.00" data-y="66.02" data-x="1607731200" r="1" fill="white"><title>2020-12-12: 66</title></circle>
	<circle cx="462.19" cy="13.48" data-y="65.39" data-x="1607817600" r="1" fill="white"><title>2020-12-13: 65</title></circle>
</g>
<g data-series="recent-cases" class="data-series">
	<path d="M 462.19,13.48L 463.75,43.10L 465.32,87.24L 466.88,85.01L 468.44,102.22L 470.00,158.53" id="Recent cases" class="line" stroke-width="1" stroke-linecap="round" stroke-dasharray="4,6" stroke-dashoffset="4"><title>Recent cases</title></path>
	<circle cx="462.19" cy="13.48" data-y="65.39" data-x="1607817600" r="2.5" fill="white"><title>2020-12-13: 65</title></circle>
	<circle cx="463.75" cy="43.10" data-y="60.04" data-x="1607904000" r="2.5" fill="white"><title>2020-12-14: 60</title></circle>
	<circle cx="465.32" cy="87.24" data-y="52.05" data-x="1607990400" r="2.5" fill="white"><title>2020-12-15: 52</title></circle>
	<circle cx="466.88" cy="85.01" data-y="52.45" data-x="1608076800" r="2.5" fill="white"><title>2020-12-16: 52</title></circle>
	<circle cx="468.44" cy="102.22" data-y="49.34" data-x="1608163200" r="2.5" fill="white"><title>2020-12-17: 49</title></circle>
	<circle cx="470.00" cy="158.53" data-y="39.16" data-x="1608249600" r="2.5" fill="white"><title>2020-12-18: 39</title></circle>
</g>
</svg>
