<svg width="480" height="400" viewBox="0 0 480 400" xmlns="http://www.w3.org/2000/svg" style="overflow:display" preserveAspectRatio="xMinYMin meet" overflow="visible">
<defs>
	<style>
	.data-series path.line { fill-opacity: 0; stroke: black; }
	.data-series path.line.dotted { stroke-dasharray: 12 20 }
	.data-series:hover path.line, .data-series.on path.line { stroke-width: 1; }
	.data-series:hover circle, .data-series.on circle { display: inline; }
	.graph-grid { font-family: "Helvetica Neue",Helvetica,Arial,"Lucida Grande",sans-serif; }
	.graph-grid line { stroke: black; stroke-width: 1; stroke-linecap: round; }
	.graph-grid.graph-grid-x text { text-anchor: middle; dominant-baseline: hanging; transform: translateY(10px); }
	.graph-grid.graph-grid-y text { text-anchor: end; dominant-baseline: middle; transform: translateX(-10px); }
	</style>
</defs>
<g class="graph-grid graph-grid-y">
	<line x1="25.00" y1="375.00" x2="470.00" y2="375.00" data-left="25"></line>
	<text x="35" y="375" text-anchor="end">0</text>
	<text x="35" y="230.900994140625" text-anchor="end">20</text>
	<text x="35" y="86.80198828125" text-anchor="end">40</text>
	<text style="text-anchor:middle;dominant-baseline:hanging;font-weight:bold;transform: translateY(192.5px) rotate(-90deg);"></text>
</g>
<g class="graph-grid graph-grid-x">
	<line class="tick" x1="57.60" y1="375.00" x2="57.60" y2="380.00"></line>
	<text x="57.5955414012739" y="375" text-anchor="middle">M</text>
	<line class="tick" x1="101.53" y1="375.00" x2="101.53" y2="380.00"></line>
	<text x="101.528662420382" y="375" text-anchor="middle">A</text>
	<line class="tick" x1="144.04" y1="375.00" x2="144.04" y2="380.00"></line>
	<text x="144.044585987261" y="375" text-anchor="middle">M</text>
	<line class="tick" x1="187.98" y1="375.00" x2="187.98" y2="380.00"></line>
	<text x="187.977707006369" y="375" text-anchor="middle">J</text>
	<line class="tick" x1="230.49" y1="375.00" x2="230.49" y2="380.00"></line>
	<text x="230.493630573248" y="375" text-anchor="middle">J</text>
	<line class="tick" x1="274.43" y1="375.00" x2="274.43" y2="380.00"></line>
	<text x="274.426751592357" y="375" text-anchor="middle">A</text>
	<line class="tick" x1="318.36" y1="375.00" x2="318.36" y2="380.00"></line>
	<text x="318.359872611465" y="375" text-anchor="middle">S</text>
	<line class="tick" x1="360.88" y1="375.00" x2="360.88" y2="380.00"></line>
	<text x="360.875796178344" y="375" text-anchor="middle">O</text>
	<line class="tick" x1="404.81" y1="375.00" x2="404.81" y2="380.00"></line>
	<text x="404.808917197452" y="375" text-anchor="middle">N</text>
	<line class="tick" x1="447.32" y1="375.00" x2="447.32" y2="380.00"></line>
	<text x="447.324840764331" y="375" text-anchor="middle">D</text>
	<text style="text-anchor:middle;dominant-baseline:hanging;font-weight:bold;transform: translateY(192.5px) rotate(-90deg);"></text>
</g>
<g data-series="widespread" class="data-series">
	<path d="M 25.00,324.57L 470.00,324.57" id="N09000007-level-0" class="line" stroke-width="1" stroke-linecap="round" stroke-dasharray="3,3" fill-opacity="0.3" opacity="0.3"><title>Widespread</title></path>
</g>
<g data-series="substantial" class="data-series">
	<path d="M 25.00,346.18L 470.00,346.18" id="N09000007-level-1" class="line" stroke-width="1" stroke-linecap="round" stroke-dasharray="3,3" fill-opacity="0.3" opacity="0.3"><title>Substantial</title></path>
</g>
<g data-series="moderate" class="data-series">
	<path d="M 25.00,367.80L 470.00,367.80" id="N09000007-level-2" class="line" stroke-width="1" stroke-linecap="round" stroke-dasharray="3,3" fill-opacity="0.3" opacity="0.3"><title>Moderate</title></path>
</g>
<g data-series="new-cases" class="data-series">
	<path d="M 25.00,375.00L 26.42,375.00L 27.83,375.00L 29.25,375.00L 30.67,375.00L 32.09,375.00L 33.50,375.00L 34.92,375.00L 36.34,375.00L 37.75,375.00L 39.17,375.00L 40.59,375.00L 42.01,375.00L 43.42,375.00L 44.84,375.00L 46.26,375.00L 47.68,375.00L 49.09,375.00L 50.51,375.00L 51.93,375.00L 53.34,375.00L 54.76,375.00L 56.18,375.00L 57.60,375.00L 59.01,375.00L 60.43,375.00L 61.85,375.00L 63.26,375.00L 64.68,374.29L 66.10,374.29L 67.52,372.15L 68.93,370.72L 70.35,370.01L 71.77,369.30L 73.18,369.30L 74.60,369.30L 76.02,368.58L 77.44,370.01L 78.85,370.01L 80.27,369.30L 81.69,366.45L 83.11,365.02L 84.52,361.46L 85.94,360.03L 87.36,354.33L 88.77,347.91L 90.19,347.20L 91.61,345.06L 93.03,342.21L 94.44,341.49L 95.86,328.66L 97.28,327.24L 98.69,332.23L 100.11,325.81L 101.53,327.24L 102.95,322.96L 104.36,322.96L 105.78,330.80L 107.20,330.09L 108.61,330.09L 110.03,335.08L 111.45,334.37L 112.87,340.07L 114.28,337.22L 115.70,339.36L 117.12,342.92L 118.54,335.79L 119.95,328.66L 121.37,323.67L 122.79,323.67L 124.20,322.96L 125.62,310.13L 127.04,310.84L 128.46,319.39L 129.87,328.66L 131.29,336.50L 132.71,338.64L 134.12,340.07L 135.54,352.90L 136.96,355.04L 138.38,347.20L 139.79,346.48L 141.21,345.06L 142.63,344.35L 144.04,350.05L 145.46,350.76L 146.88,351.47L 148.30,360.03L 149.71,358.60L 151.13,358.60L 152.55,356.46L 153.96,355.75L 155.38,355.04L 156.80,355.04L 158.22,352.90L 159.63,350.76L 161.05,351.47L 162.47,352.19L 163.89,351.47L 165.30,353.61L 166.72,350.76L 168.14,350.76L 169.55,352.90L 170.97,352.19L 172.39,353.61L 173.81,351.47L 175.22,352.90L 176.64,353.61L 178.06,353.61L 179.47,355.75L 180.89,358.60L 182.31,356.46L 183.73,360.03L 185.14,360.74L 186.56,364.31L 187.98,366.45L 189.39,367.16L 190.81,365.73L 192.23,368.58L 193.65,369.30L 195.06,367.87L 196.48,367.87L 197.90,366.45L 199.32,365.73L 200.73,366.45L 202.15,365.02L 203.57,364.31L 204.98,365.73L 206.40,365.73L 207.82,367.87L 209.24,368.58L 210.65,370.01L 212.07,372.15L 213.49,373.57L 214.90,373.57L 216.32,373.57L 217.74,372.86L 219.16,372.15L 220.57,371.44L 221.99,371.44L 223.41,369.30L 224.82,370.01L 226.24,370.01L 227.66,370.01L 229.08,370.01L 230.49,370.72L 231.91,370.72L 233.33,370.72L 234.75,370.01L 236.16,369.30L 237.58,370.01L 239.00,371.44L 240.41,371.44L 241.83,371.44L 243.25,373.57L 244.67,374.29L 246.08,374.29L 247.50,374.29L 248.92,374.29L 250.33,374.29L 251.75,374.29L 253.17,373.57L 254.59,373.57L 256.00,371.44L 257.42,370.72L 258.84,370.72L 260.25,370.72L 261.67,370.72L 263.09,371.44L 264.51,371.44L 265.92,374.29L 267.34,375.00L 268.76,375.00L 270.18,375.00L 271.59,375.00L 273.01,374.29L 274.43,372.86L 275.84,370.72L 277.26,370.72L 278.68,367.87L 280.10,366.45L 281.51,364.31L 282.93,361.46L 284.35,357.89L 285.76,359.32L 287.18,357.18L 288.60,359.32L 290.02,360.03L 291.43,361.46L 292.85,362.17L 294.27,362.17L 295.68,360.03L 297.10,358.60L 298.52,355.04L 299.94,353.61L 301.35,350.05L 302.77,350.05L 304.19,351.47L 305.61,351.47L 307.02,351.47L 308.44,352.19L 309.86,351.47L 311.27,354.33L 312.69,355.04L 314.11,353.61L 315.53,347.91L 316.94,342.92L 318.36,337.93L 319.78,334.37L 321.19,321.53L 322.61,317.97L 324.03,314.40L 325.45,317.97L 326.86,321.53L 328.28,325.10L 329.70,325.10L 331.11,333.65L 332.53,330.09L 333.95,334.37L 335.37,326.52L 336.78,322.96L 338.20,324.38L 339.62,322.96L 341.04,322.25L 342.45,328.66L 343.87,323.67L 345.29,333.65L 346.70,332.94L 348.12,332.94L 349.54,331.51L 350.96,325.10L 352.37,321.53L 353.79,315.12L 355.21,295.16L 356.62,287.31L 358.04,272.34L 359.46,260.22L 360.88,245.97L 362.29,226.72L 363.71,211.04L 365.13,194.64L 366.54,186.08L 367.96,172.54L 369.38,152.58L 370.80,130.48L 372.21,101.96L 373.63,89.13L 375.05,79.15L 376.46,47.07L 377.88,31.39L 379.30,31.39L 380.72,49.92L 382.13,61.33L 383.55,44.93L 384.97,38.52L 386.39,37.09L 387.80,29.96L 389.22,24.97L 390.64,14.99L 392.05,10.00L 393.47,27.82L 394.89,38.52L 396.31,59.90L 397.72,79.86L 399.14,95.55L 400.56,95.55L 401.97,100.54L 403.39,101.25L 404.81,120.50L 406.23,125.49L 407.64,136.18L 409.06,139.03L 410.48,165.41L 411.89,182.52L 413.31,198.92L 414.73,201.77L 416.15,217.45L 417.56,208.90L 418.98,225.29L 420.40,227.43L 421.82,221.73L 423.23,231.00L 424.65,240.98L 426.07,245.97L 427.48,268.78L 428.90,260.22L 430.32,259.51L 431.74,275.20L 433.15,279.47L 434.57,273.77L 435.99,275.20L 437.40,272.34L 438.82,280.19L 440.24,273.77L 441.66,275.20L 443.07,262.36L 444.49,263.08L 445.91,255.23L 447.32,247.39L 448.74,237.41L 450.16,233.85L 451.58,231.00L 452.99,239.55L 454.41,236.70L 455.83,231.00L 457.25,232.42L 458.66,234.56L 460.08,243.12L 461.50,231.71L 462.91,231.00" id="New cases" class="line" stroke-width="1" stroke-linecap="round"><title>New cases</title></path>
	<circle cx="25.00" cy="375.00" data-y="0.00" data-x="1581033600" r="1" fill="white"><title>2020-02-07: 0</title></circle>
	<circle cx="26.42" cy="375.00" data-y="0.00" data-x="1581120000" r="1" fill="white"><title>2020-02-08: 0</title></circle>
	<circle cx="27.83" cy="375.00" data-y="0.00" data-x="1581206400" r="1" fill="white"><title>2020-02-09: 0</title></circle>
	<circle cx="29.25" cy="375.00" data-y="0.00" data-x="1581292800" r="1" fill="white"><title>2020-02-10: 0</title></circle>
	<circle cx="30.67" cy="375.00" data-y="0.00" data-x="1581379200" r="1" fill="white"><title>2020-02-11: 0</title></circle>
	<circle cx="32.09" cy="375.00" data-y="0.00" data-x="1581465600" r="1" fill="white"><title>2020-02-12: 0</title></circle>
	<circle cx="33.50" cy="375.00" data-y="0.00" data-x="1581552000" r="1" fill="white"><title>2020-02-13: 0</title></circle>
	<circle cx="34.92" cy="375.00" data-y="0.00" data-x="1581638400" r="1" fill="white"><title>2020-02-14: 0</title></circle>
	<circle cx="36.34" cy="375.00" data-y="0.00" data-x="1581724800" r="1" fill="white"><title>2020-02-15: 0</title></circle>
	<circle cx="37.75" cy="375.00" data-y="0.00" data-x="1581811200" r="1" fill="white"><title>2020-02-16: 0</title></circle>
	<circle cx="39.17" cy="375.00" data-y="0.00" data-x="1581897600" r="1" fill="white"><title>2020-02-17: 0</title></circle>
	<circle cx="40.59" cy="375.00" data-y="0.00" data-x="1581984000" r="1" fill="white"><title>2020-02-18: 0</title></circle>
	<circle cx="42.01" cy="375.00" data-y="0.00" data-x="1582070400" r="1" fill="white"><title>2020-02-19: 0</title></circle>
	<circle cx="43.42" cy="375.00" data-y="0.00" data-x="1582156800" r="1" fill="white"><title>2020-02-20: 0</title></circle>
	<circle cx="44.84" cy="375.00" data-y="0.00" data-x="1582243200" r="1" fill="white"><title>2020-02-21: 0</title></circle>
	<circle cx="46.26" cy="375.00" data-y="0.00" data-x="1582329600" r="1" fill="white"><title>2020-02-22: 0</title></circle>
	<circle cx="47.68" cy="375.00" data-y="0.00" data-x="1582416000" r="1" fill="white"><title>2020-02-23: 0</title></circle>
	<circle cx="49.09" cy="375.00" data-y="0.00" data-x="1582502400" r="1" fill="white"><title>2020-02-24: 0</title></circle>
	<circle cx="50.51" cy="375.00" data-y="0.00" data-x="1582588800" r="1" fill="white"><title>2020-02-25: 0</title></circle>
	<circle cx="51.93" cy="375.00" data-y="0.00" data-x="1582675200" r="1" fill="white"><title>2020-02-26: 0</title></circle>
	<circle cx="53.34" cy="375.00" data-y="0.00" data-x="1582761600" r="1" fill="white"><title>2020-02-27: 0</title></circle>
	<circle cx="54.76" cy="375.00" data-y="0.00" data-x="1582848000" r="1" fill="white"><title>2020-02-28: 0</title></circle>
	<circle cx="56.18" cy="375.00" data-y="0.00" data-x="1582934400" r="1" fill="white"><title>2020-02-29: 0</title></circle>
	<circle cx="57.60" cy="375.00" data-y="0.00" data-x="1583020800" r="1" fill="white"><title>2020-03-01: 0</title></circle>
	<circle cx="59.01" cy="375.00" data-y="0.00" data-x="1583107200" r="1" fill="white"><title>2020-03-02: 0</title></circle>
	<circle cx="60.43" cy="375.00" data-y="0.00" data-x="1583193600" r="1" fill="white"><title>2020-03-03: 0</title></circle>
	<circle cx="61.85" cy="375.00" data-y="0.00" data-x="1583280000" r="1" fill="white"><title>2020-03-04: 0</title></circle>
	<circle cx="63.26" cy="375.00" data-y="0.00" data-x="1583366400" r="1" fill="white"><title>2020-03-05: 0</title></circle>
	<circle cx="64.68" cy="374.29" data-y="0.10" data-x="1583452800" r="1" fill="white"><title>2020-03-06: 0</title></circle>
	<circle cx="66.10" cy="374.29" data-y="0.10" data-x="1583539200" r="1" fill="white"><title>2020-03-07: 0</title></circle>
	<circle cx="67.52" cy="372.15" data-y="0.40" data-x="1583625600" r="1" fill="white"><title>2020-03-08: 0</title></circle>
	<circle cx="68.93" cy="370.72" data-y="0.59" data-x="1583712000" r="1" fill="white"><title>2020-03-09: 1</title></circle>
	<circle cx="70.35" cy="370.01" data-y="0.69" data-x="1583798400" r="1" fill="white"><title>2020-03-10: 1</title></circle>
	<circle cx="71.77" cy="369.30" data-y="0.79" data-x="1583884800" r="1" fill="white"><title>2020-03-11: 1</title></circle>
	<circle cx="73.18" cy="369.30" data-y="0.79" data-x="1583971200" r="1" fill="white"><title>2020-03-12: 1</title></circle>
	<circle cx="74.60" cy="369.30" data-y="0.79" data-x="1584057600" r="1" fill="white"><title>2020-03-13: 1</title></circle>
	<circle cx="76.02" cy="368.58" data-y="0.89" data-x="1584144000" r="1" fill="white"><title>2020-03-14: 1</title></circle>
	<circle cx="77.44" cy="370.01" data-y="0.69" data-x="1584230400" r="1" fill="white"><title>2020-03-15: 1</title></circle>
	<circle cx="78.85" cy="370.01" data-y="0.69" data-x="1584316800" r="1" fill="white"><title>2020-03-16: 1</title></circle>
	<circle cx="80.27" cy="369.30" data-y="0.79" data-x="1584403200" r="1" fill="white"><title>2020-03-17: 1</title></circle>
	<circle cx="81.69" cy="366.45" data-y="1.19" data-x="1584489600" r="1" fill="white"><title>2020-03-18: 1</title></circle>
	<circle cx="83.11" cy="365.02" data-y="1.39" data-x="1584576000" r="1" fill="white"><title>2020-03-19: 1</title></circle>
	<circle cx="84.52" cy="361.46" data-y="1.88" data-x="1584662400" r="1" fill="white"><title>2020-03-20: 2</title></circle>
	<circle cx="85.94" cy="360.03" data-y="2.08" data-x="1584748800" r="1" fill="white"><title>2020-03-21: 2</title></circle>
	<circle cx="87.36" cy="354.33" data-y="2.87" data-x="1584835200" r="1" fill="white"><title>2020-03-22: 3</title></circle>
	<circle cx="88.77" cy="347.91" data-y="3.76" data-x="1584921600" r="1" fill="white"><title>2020-03-23: 4</title></circle>
	<circle cx="90.19" cy="347.20" data-y="3.86" data-x="1585008000" r="1" fill="white"><title>2020-03-24: 4</title></circle>
	<circle cx="91.61" cy="345.06" data-y="4.16" data-x="1585094400" r="1" fill="white"><title>2020-03-25: 4</title></circle>
	<circle cx="93.03" cy="342.21" data-y="4.55" data-x="1585180800" r="1" fill="white"><title>2020-03-26: 5</title></circle>
	<circle cx="94.44" cy="341.49" data-y="4.65" data-x="1585267200" r="1" fill="white"><title>2020-03-27: 5</title></circle>
	<circle cx="95.86" cy="328.66" data-y="6.43" data-x="1585353600" r="1" fill="white"><title>2020-03-28: 6</title></circle>
	<circle cx="97.28" cy="327.24" data-y="6.63" data-x="1585440000" r="1" fill="white"><title>2020-03-29: 7</title></circle>
	<circle cx="98.69" cy="332.23" data-y="5.94" data-x="1585526400" r="1" fill="white"><title>2020-03-30: 6</title></circle>
	<circle cx="100.11" cy="325.81" data-y="6.83" data-x="1585612800" r="1" fill="white"><title>2020-03-31: 7</title></circle>
	<circle cx="101.53" cy="327.24" data-y="6.63" data-x="1585699200" r="1" fill="white"><title>2020-04-01: 7</title></circle>
	<circle cx="102.95" cy="322.96" data-y="7.22" data-x="1585785600" r="1" fill="white"><title>2020-04-02: 7</title></circle>
	<circle cx="104.36" cy="322.96" data-y="7.22" data-x="1585872000" r="1" fill="white"><title>2020-04-03: 7</title></circle>
	<circle cx="105.78" cy="330.80" data-y="6.13" data-x="1585958400" r="1" fill="white"><title>2020-04-04: 6</title></circle>
	<circle cx="107.20" cy="330.09" data-y="6.23" data-x="1586044800" r="1" fill="white"><title>2020-04-05: 6</title></circle>
	<circle cx="108.61" cy="330.09" data-y="6.23" data-x="1586131200" r="1" fill="white"><title>2020-04-06: 6</title></circle>
	<circle cx="110.03" cy="335.08" data-y="5.54" data-x="1586217600" r="1" fill="white"><title>2020-04-07: 6</title></circle>
	<circle cx="111.45" cy="334.37" data-y="5.64" data-x="1586304000" r="1" fill="white"><title>2020-04-08: 6</title></circle>
	<circle cx="112.87" cy="340.07" data-y="4.85" data-x="1586390400" r="1" fill="white"><title>2020-04-09: 5</title></circle>
	<circle cx="114.28" cy="337.22" data-y="5.24" data-x="1586476800" r="1" fill="white"><title>2020-04-10: 5</title></circle>
	<circle cx="115.70" cy="339.36" data-y="4.95" data-x="1586563200" r="1" fill="white"><title>2020-04-11: 5</title></circle>
	<circle cx="117.12" cy="342.92" data-y="4.45" data-x="1586649600" r="1" fill="white"><title>2020-04-12: 4</title></circle>
	<circle cx="118.54" cy="335.79" data-y="5.44" data-x="1586736000" r="1" fill="white"><title>2020-04-13: 5</title></circle>
	<circle cx="119.95" cy="328.66" data-y="6.43" data-x="1586822400" r="1" fill="white"><title>2020-04-14: 6</title></circle>
	<circle cx="121.37" cy="323.67" data-y="7.12" data-x="1586908800" r="1" fill="white"><title>2020-04-15: 7</title></circle>
	<circle cx="122.79" cy="323.67" data-y="7.12" data-x="1586995200" r="1" fill="white"><title>2020-04-16: 7</title></circle>
	<circle cx="124.20" cy="322.96" data-y="7.22" data-x="1587081600" r="1" fill="white"><title>2020-04-17: 7</title></circle>
	<circle cx="125.62" cy="310.13" data-y="9.00" data-x="1587168000" r="1" fill="white"><title>2020-04-18: 9</title></circle>
	<circle cx="127.04" cy="310.84" data-y="8.91" data-x="1587254400" r="1" fill="white"><title>2020-04-19: 9</title></circle>
	<circle cx="128.46" cy="319.39" data-y="7.72" data-x="1587340800" r="1" fill="white"><title>2020-04-20: 8</title></circle>
	<circle cx="129.87" cy="328.66" data-y="6.43" data-x="1587427200" r="1" fill="white"><title>2020-04-21: 6</title></circle>
	<circle cx="131.29" cy="336.50" data-y="5.34" data-x="1587513600" r="1" fill="white"><title>2020-04-22: 5</title></circle>
	<circle cx="132.71" cy="338.64" data-y="5.05" data-x="1587600000" r="1" fill="white"><title>2020-04-23: 5</title></circle>
	<circle cx="134.12" cy="340.07" data-y="4.85" data-x="1587686400" r="1" fill="white"><title>2020-04-24: 5</title></circle>
	<circle cx="135.54" cy="352.90" data-y="3.07" data-x="1587772800" r="1" fill="white"><title>2020-04-25: 3</title></circle>
	<circle cx="136.96" cy="355.04" data-y="2.77" data-x="1587859200" r="1" fill="white"><title>2020-04-26: 3</title></circle>
	<circle cx="138.38" cy="347.20" data-y="3.86" data-x="1587945600" r="1" fill="white"><title>2020-04-27: 4</title></circle>
	<circle cx="139.79" cy="346.48" data-y="3.96" data-x="1588032000" r="1" fill="white"><title>2020-04-28: 4</title></circle>
	<circle cx="141.21" cy="345.06" data-y="4.16" data-x="1588118400" r="1" fill="white"><title>2020-04-29: 4</title></circle>
	<circle cx="142.63" cy="344.35" data-y="4.25" data-x="1588204800" r="1" fill="white"><title>2020-04-30: 4</title></circle>
	<circle cx="144.04" cy="350.05" data-y="3.46" data-x="1588291200" r="1" fill="white"><title>2020-05-01: 3</title></circle>
	<circle cx="145.46" cy="350.76" data-y="3.36" data-x="1588377600" r="1" fill="white"><title>2020-05-02: 3</title></circle>
	<circle cx="146.88" cy="351.47" data-y="3.27" data-x="1588464000" r="1" fill="white"><title>2020-05-03: 3</title></circle>
	<circle cx="148.30" cy="360.03" data-y="2.08" data-x="1588550400" r="1" fill="white"><title>2020-05-04: 2</title></circle>
	<circle cx="149.71" cy="358.60" data-y="2.28" data-x="1588636800" r="1" fill="white"><title>2020-05-05: 2</title></circle>
	<circle cx="151.13" cy="358.60" data-y="2.28" data-x="1588723200" r="1" fill="white"><title>2020-05-06: 2</title></circle>
	<circle cx="152.55" cy="356.46" data-y="2.57" data-x="1588809600" r="1" fill="white"><title>2020-05-07: 3</title></circle>
	<circle cx="153.96" cy="355.75" data-y="2.67" data-x="1588896000" r="1" fill="white"><title>2020-05-08: 3</title></circle>
	<circle cx="155.38" cy="355.04" data-y="2.77" data-x="1588982400" r="1" fill="white"><title>2020-05-09: 3</title></circle>
	<circle cx="156.80" cy="355.04" data-y="2.77" data-x="1589068800" r="1" fill="white"><title>2020-05-10: 3</title></circle>
	<circle cx="158.22" cy="352.90" data-y="3.07" data-x="1589155200" r="1" fill="white"><title>2020-05-11: 3</title></circle>
	<circle cx="159.63" cy="350.76" data-y="3.36" data-x="1589241600" r="1" fill="white"><title>2020-05-12: 3</title></circle>
	<circle cx="161.05" cy="351.47" data-y="3.27" data-x="1589328000" r="1" fill="white"><title>2020-05-13: 3</title></circle>
	<circle cx="162.47" cy="352.19" data-y="3.17" data-x="1589414400" r="1" fill="white"><title>2020-05-14: 3</title></circle>
	<circle cx="163.89" cy="351.47" data-y="3.27" data-x="1589500800" r="1" fill="white"><title>2020-05-15: 3</title></circle>
	<circle cx="165.30" cy="353.61" data-y="2.97" data-x="1589587200" r="1" fill="white"><title>2020-05-16: 3</title></circle>
	<circle cx="166.72" cy="350.76" data-y="3.36" data-x="1589673600" r="1" fill="white"><title>2020-05-17: 3</title></circle>
	<circle cx="168.14" cy="350.76" data-y="3.36" data-x="1589760000" r="1" fill="white"><title>2020-05-18: 3</title></circle>
	<circle cx="169.55" cy="352.90" data-y="3.07" data-x="1589846400" r="1" fill="white"><title>2020-05-19: 3</title></circle>
	<circle cx="170.97" cy="352.19" data-y="3.17" data-x="1589932800" r="1" fill="white"><title>2020-05-20: 3</title></circle>
	<circle cx="172.39" cy="353.61" data-y="2.97" data-x="1590019200" r="1" fill="white"><title>2020-05-21: 3</title></circle>
	<circle cx="173.81" cy="351.47" data-y="3.27" data-x="1590105600" r="1" fill="white"><title>2020-05-22: 3</title></circle>
	<circle cx="175.22" cy="352.90" data-y="3.07" data-x="1590192000" r="1" fill="white"><title>2020-05-23: 3</title></circle>
	<circle cx="176.64" cy="353.61" data-y="2.97" data-x="1590278400" r="1" fill="white"><title>2020-05-24: 3</title></circle>
	<circle cx="178.06" cy="353.61" data-y="2.97" data-x="1590364800" r="1" fill="white"><title>2020-05-25: 3</title></circle>
	<circle cx="179.47" cy="355.75" data-y="2.67" data-x="1590451200" r="1" fill="white"><title>2020-05-26: 3</title></circle>
	<circle cx="180.89" cy="358.60" data-y="2.28" data-x="1590537600" r="1" fill="white"><title>2020-05-27: 2</title></circle>
	<circle cx="182.31" cy="356.46" data-y="2.57" data-x="1590624000" r="1" fill="white"><title>2020-05-28: 3</title></circle>
	<circle cx="183.73" cy="360.03" data-y="2.08" data-x="1590710400" r="1" fill="white"><title>2020-05-29: 2</title></circle>
	<circle cx="185.14" cy="360.74" data-y="1.98" data-x="1590796800" r="1" fill="white"><title>2020-05-30: 2</title></circle>
	<circle cx="186.56" cy="364.31" data-y="1.48" data-x="1590883200" r="1" fill="white"><title>2020-05-31: 1</title></circle>
	<circle cx="187.98" cy="366.45" data-y="1.19" data-x="1590969600" r="1" fill="white"><title>2020-06-01: 1</title></circle>
	<circle cx="189.39" cy="367.16" data-y="1.09" data-x="1591056000" r="1" fill="white"><title>2020-06-02: 1</title></circle>
	<circle cx="190.81" cy="365.73" data-y="1.29" data-x="1591142400" r="1" fill="white"><title>2020-06-03: 1</title></circle>
	<circle cx="192.23" cy="368.58" data-y="0.89" data-x="1591228800" r="1" fill="white"><title>2020-06-04: 1</title></circle>
	<circle cx="193.65" cy="369.30" data-y="0.79" data-x="1591315200" r="1" fill="white"><title>2020-06-05: 1</title></circle>
	<circle cx="195.06" cy="367.87" data-y="0.99" data-x="1591401600" r="1" fill="white"><title>2020-06-06: 1</title></circle>
	<circle cx="196.48" cy="367.87" data-y="0.99" data-x="1591488000" r="1" fill="white"><title>2020-06-07: 1</title></circle>
	<circle cx="197.90" cy="366.45" data-y="1.19" data-x="1591574400" r="1" fill="white"><title>2020-06-08: 1</title></circle>
	<circle cx="199.32" cy="365.73" data-y="1.29" data-x="1591660800" r="1" fill="white"><title>2020-06-09: 1</title></circle>
	<circle cx="200.73" cy="366.45" data-y="1.19" data-x="1591747200" r="1" fill="white"><title>2020-06-10: 1</title></circle>
	<circle cx="202.15" cy="365.02" data-y="1.39" data-x="1591833600" r="1" fill="white"><title>2020-06-11: 1</title></circle>
	<circle cx="203.57" cy="364.31" data-y="1.48" data-x="1591920000" r="1" fill="white"><title>2020-06-12: 1</title></circle>
	<circle cx="204.98" cy="365.73" data-y="1.29" data-x="1592006400" r="1" fill="white"><title>2020-06-13: 1</title></circle>
	<circle cx="206.40" cy="365.73" data-y="1.29" data-x="1592092800" r="1" fill="white"><title>2020-06-14: 1</title></circle>
	<circle cx="207.82" cy="367.87" data-y="0.99" data-x="1592179200" r="1" fill="white"><title>2020-06-15: 1</title></circle>
	<circle cx="209.24" cy="368.58" data-y="0.89" data-x="1592265600" r="1" fill="white"><title>2020-06-16: 1</title></circle>
	<circle cx="210.65" cy="370.01" data-y="0.69" data-x="1592352000" r="1" fill="white"><title>2020-06-17: 1</title></circle>
	<circle cx="212.07" cy="372.15" data-y="0.40" data-x="1592438400" r="1" fill="white"><title>2020-06-18: 0</title></circle>
	<circle cx="213.49" cy="373.57" data-y="0.20" data-x="1592524800" r="1" fill="white"><title>2020-06-19: 0</title></circle>
	<circle cx="214.90" cy="373.57" data-y="0.20" data-x="1592611200" r="1" fill="white"><title>2020-06-20: 0</title></circle>
	<circle cx="216.32" cy="373.57" data-y="0.20" data-x="1592697600" r="1" fill="white"><title>2020-06-21: 0</title></circle>
	<circle cx="217.74" cy="372.86" data-y="0.30" data-x="1592784000" r="1" fill="white"><title>2020-06-22: 0</title></circle>
	<circle cx="219.16" cy="372.15" data-y="0.40" data-x="1592870400" r="1" fill="white"><title>2020-06-23: 0</title></circle>
	<circle cx="220.57" cy="371.44" data-y="0.49" data-x="1592956800" r="1" fill="white"><title>2020-06-24: 0</title></circle>
	<circle cx="221.99" cy="371.44" data-y="0.49" data-x="1593043200" r="1" fill="white"><title>2020-06-25: 0</title></circle>
	<circle cx="223.41" cy="369.30" data-y="0.79" data-x="1593129600" r="1" fill="white"><title>2020-06-26: 1</title></circle>
	<circle cx="224.82" cy="370.01" data-y="0.69" data-x="1593216000" r="1" fill="white"><title>2020-06-27: 1</title></circle>
	<circle cx="226.24" cy="370.01" data-y="0.69" data-x="1593302400" r="1" fill="white"><title>2020-06-28: 1</title></circle>
	<circle cx="227.66" cy="370.01" data-y="0.69" data-x="1593388800" r="1" fill="white"><title>2020-06-29: 1</title></circle>
	<circle cx="229.08" cy="370.01" data-y="0.69" data-x="1593475200" r="1" fill="white"><title>2020-06-30: 1</title></circle>
	<circle cx="230.49" cy="370.72" data-y="0.59" data-x="1593561600" r="1" fill="white"><title>2020-07-01: 1</title></circle>
	<circle cx="231.91" cy="370.72" data-y="0.59" data-x="1593648000" r="1" fill="white"><title>2020-07-02: 1</title></circle>
	<circle cx="233.33" cy="370.72" data-y="0.59" data-x="1593734400" r="1" fill="white"><title>2020-07-03: 1</title></circle>
	<circle cx="234.75" cy="370.01" data-y="0.69" data-x="1593820800" r="1" fill="white"><title>2020-07-04: 1</title></circle>
	<circle cx="236.16" cy="369.30" data-y="0.79" data-x="1593907200" r="1" fill="white"><title>2020-07-05: 1</title></circle>
	<circle cx="237.58" cy="370.01" data-y="0.69" data-x="1593993600" r="1" fill="white"><title>2020-07-06: 1</title></circle>
	<circle cx="239.00" cy="371.44" data-y="0.49" data-x="1594080000" r="1" fill="white"><title>2020-07-07: 0</title></circle>
	<circle cx="240.41" cy="371.44" data-y="0.49" data-x="1594166400" r="1" fill="white"><title>2020-07-08: 0</title></circle>
	<circle cx="241.83" cy="371.44" data-y="0.49" data-x="1594252800" r="1" fill="white"><title>2020-07-09: 0</title></circle>
	<circle cx="243.25" cy="373.57" data-y="0.20" data-x="1594339200" r="1" fill="white"><title>2020-07-10: 0</title></circle>
	<circle cx="244.67" cy="374.29" data-y="0.10" data-x="1594425600" r="1" fill="white"><title>2020-07-11: 0</title></circle>
	<circle cx="246.08" cy="374.29" data-y="0.10" data-x="1594512000" r="1" fill="white"><title>2020-07-12: 0</title></circle>
	<circle cx="247.50" cy="374.29" data-y="0.10" data-x="1594598400" r="1" fill="white"><title>2020-07-13: 0</title></circle>
	<circle cx="248.92" cy="374.29" data-y="0.10" data-x="1594684800" r="1" fill="white"><title>2020-07-14: 0</title></circle>
	<circle cx="250.33" cy="374.29" data-y="0.10" data-x="1594771200" r="1" fill="white"><title>2020-07-15: 0</title></circle>
	<circle cx="251.75" cy="374.29" data-y="0.10" data-x="1594857600" r="1" fill="white"><title>2020-07-16: 0</title></circle>
	<circle cx="253.17" cy="373.57" data-y="0.20" data-x="1594944000" r="1" fill="white"><title>2020-07-17: 0</title></circle>
	<circle cx="254.59" cy="373.57" data-y="0.20" data-x="1595030400" r="1" fill="white"><title>2020-07-18: 0</title></circle>
	<circle cx="256.00" cy="371.44" data-y="0.49" data-x="1595116800" r="1" fill="white"><title>2020-07-19: 0</title></circle>
	<circle cx="257.42" cy="370.72" data-y="0.59" data-x="1595203200" r="1" fill="white"><title>2020-07-20: 1</title></circle>
	<circle cx="258.84" cy="370.72" data-y="0.59" data-x="1595289600" r="1" fill="white"><title>2020-07-21: 1</title></circle>
	<circle cx="260.25" cy="370.72" data-y="0.59" data-x="1595376000" r="1" fill="white"><title>2020-07-22: 1</title></circle>
	<circle cx="261.67" cy="370.72" data-y="0.59" data-x="1595462400" r="1" fill="white"><title>2020-07-23: 1</title></circle>
	<circle cx="263.09" cy="371.44" data-y="0.49" data-x="1595548800" r="1" fill="white"><title>2020-07-24: 0</title></circle>
	<circle cx="264.51" cy="371.44" data-y="0.49" data-x="1595635200" r="1" fill="white"><title>2020-07-25: 0</title></circle>
	<circle cx="265.92" cy="374.29" data-y="0.10" data-x="1595721600" r="1" fill="white"><title>2020-07-26: 0</title></circle>
	<circle cx="267.34" cy="375.00" data-y="0.00" data-x="1595808000" r="1" fill="white"><title>2020-07-27: 0</title></circle>
	<circle cx="268.76" cy="375.00" data-y="0.00" data-x="1595894400" r="1" fill="white"><title>2020-07-28: 0</title></circle>
	<circle cx="270.18" cy="375.00" data-y="0.00" data-x="1595980800" r="1" fill="white"><title>2020-07-29: 0</title></circle>
	<circle cx="271.59" cy="375.00" data-y="0.00" data-x="1596067200" r="1" fill="white"><title>2020-07-30: 0</title></circle>
	<circle cx="273.01" cy="374.29" data-y="0.10" data-x="1596153600" r="1" fill="white"><title>2020-07-31: 0</title></circle>
	<circle cx="274.43" cy="372.86" data-y="0.30" data-x="1596240000" r="1" fill="white"><title>2020-08-01: 0</title></circle>
	<circle cx="275.84" cy="370.72" data-y="0.59" data-x="1596326400" r="1" fill="white"><title>2020-08-02: 1</title></circle>
	<circle cx="277.26" cy="370.72" data-y="0.59" data-x="1596412800" r="1" fill="white"><title>2020-08-03: 1</title></circle>
	<circle cx="278.68" cy="367.87" data-y="0.99" data-x="1596499200" r="1" fill="white"><title>2020-08-04: 1</title></circle>
	<circle cx="280.10" cy="366.45" data-y="1.19" data-x="1596585600" r="1" fill="white"><title>2020-08-05: 1</title></circle>
	<circle cx="281.51" cy="364.31" data-y="1.48" data-x="1596672000" r="1" fill="white"><title>2020-08-06: 1</title></circle>
	<circle cx="282.93" cy="361.46" data-y="1.88" data-x="1596758400" r="1" fill="white"><title>2020-08-07: 2</title></circle>
	<circle cx="284.35" cy="357.89" data-y="2.37" data-x="1596844800" r="1" fill="white"><title>2020-08-08: 2</title></circle>
	<circle cx="285.76" cy="359.32" data-y="2.18" data-x="1596931200" r="1" fill="white"><title>2020-08-09: 2</title></circle>
	<circle cx="287.18" cy="357.18" data-y="2.47" data-x="1597017600" r="1" fill="white"><title>2020-08-10: 2</title></circle>
	<circle cx="288.60" cy="359.32" data-y="2.18" data-x="1597104000" r="1" fill="white"><title>2020-08-11: 2</title></circle>
	<circle cx="290.02" cy="360.03" data-y="2.08" data-x="1597190400" r="1" fill="white"><title>2020-08-12: 2</title></circle>
	<circle cx="291.43" cy="361.46" data-y="1.88" data-x="1597276800" r="1" fill="white"><title>2020-08-13: 2</title></circle>
	<circle cx="292.85" cy="362.17" data-y="1.78" data-x="1597363200" r="1" fill="white"><title>2020-08-14: 2</title></circle>
	<circle cx="294.27" cy="362.17" data-y="1.78" data-x="1597449600" r="1" fill="white"><title>2020-08-15: 2</title></circle>
	<circle cx="295.68" cy="360.03" data-y="2.08" data-x="1597536000" r="1" fill="white"><title>2020-08-16: 2</title></circle>
	<circle cx="297.10" cy="358.60" data-y="2.28" data-x="1597622400" r="1" fill="white"><title>2020-08-17: 2</title></circle>
	<circle cx="298.52" cy="355.04" data-y="2.77" data-x="1597708800" r="1" fill="white"><title>2020-08-18: 3</title></circle>
	<circle cx="299.94" cy="353.61" data-y="2.97" data-x="1597795200" r="1" fill="white"><title>2020-08-19: 3</title></circle>
	<circle cx="301.35" cy="350.05" data-y="3.46" data-x="1597881600" r="1" fill="white"><title>2020-08-20: 3</title></circle>
	<circle cx="302.77" cy="350.05" data-y="3.46" data-x="1597968000" r="1" fill="white"><title>2020-08-21: 3</title></circle>
	<circle cx="304.19" cy="351.47" data-y="3.27" data-x="1598054400" r="1" fill="white"><title>2020-08-22: 3</title></circle>
	<circle cx="305.61" cy="351.47" data-y="3.27" data-x="1598140800" r="1" fill="white"><title>2020-08-23: 3</title></circle>
	<circle cx="307.02" cy="351.47" data-y="3.27" data-x="1598227200" r="1" fill="white"><title>2020-08-24: 3</title></circle>
	<circle cx="308.44" cy="352.19" data-y="3.17" data-x="1598313600" r="1" fill="white"><title>2020-08-25: 3</title></circle>
	<circle cx="309.86" cy="351.47" data-y="3.27" data-x="1598400000" r="1" fill="white"><title>2020-08-26: 3</title></circle>
	<circle cx="311.27" cy="354.33" data-y="2.87" data-x="1598486400" r="1" fill="white"><title>2020-08-27: 3</title></circle>
	<circle cx="312.69" cy="355.04" data-y="2.77" data-x="1598572800" r="1" fill="white"><title>2020-08-28: 3</title></circle>
	<circle cx="314.11" cy="353.61" data-y="2.97" data-x="1598659200" r="1" fill="white"><title>2020-08-29: 3</title></circle>
	<circle cx="315.53" cy="347.91" data-y="3.76" data-x="1598745600" r="1" fill="white"><title>2020-08-30: 4</title></circle>
	<circle cx="316.94" cy="342.92" data-y="4.45" data-x="1598832000" r="1" fill="white"><title>2020-08-31: 4</title></circle>
	<circle cx="318.36" cy="337.93" data-y="5.15" data-x="1598918400" r="1" fill="white"><title>2020-09-01: 5</title></circle>
	<circle cx="319.78" cy="334.37" data-y="5.64" data-x="1599004800" r="1" fill="white"><title>2020-09-02: 6</title></circle>
	<circle cx="321.19" cy="321.53" data-y="7.42" data-x="1599091200" r="1" fill="white"><title>2020-09-03: 7</title></circle>
	<circle cx="322.61" cy="317.97" data-y="7.92" data-x="1599177600" r="1" fill="white"><title>2020-09-04: 8</title></circle>
	<circle cx="324.03" cy="314.40" data-y="8.41" data-x="1599264000" r="1" fill="white"><title>2020-09-05: 8</title></circle>
	<circle cx="325.45" cy="317.97" data-y="7.92" data-x="1599350400" r="1" fill="white"><title>2020-09-06: 8</title></circle>
	<circle cx="326.86" cy="321.53" data-y="7.42" data-x="1599436800" r="1" fill="white"><title>2020-09-07: 7</title></circle>
	<circle cx="328.28" cy="325.10" data-y="6.93" data-x="1599523200" r="1" fill="white"><title>2020-09-08: 7</title></circle>
	<circle cx="329.70" cy="325.10" data-y="6.93" data-x="1599609600" r="1" fill="white"><title>2020-09-09: 7</title></circle>
	<circle cx="331.11" cy="333.65" data-y="5.74" data-x="1599696000" r="1" fill="white"><title>2020-09-10: 6</title></circle>
	<circle cx="332.53" cy="330.09" data-y="6.23" data-x="1599782400" r="1" fill="white"><title>2020-09-11: 6</title></circle>
	<circle cx="333.95" cy="334.37" data-y="5.64" data-x="1599868800" r="1" fill="white"><title>2020-09-12: 6</title></circle>
	<circle cx="335.37" cy="326.52" data-y="6.73" data-x="1599955200" r="1" fill="white"><title>2020-09-13: 7</title></circle>
	<circle cx="336.78" cy="322.96" data-y="7.22" data-x="1600041600" r="1" fill="white"><title>2020-09-14: 7</title></circle>
	<circle cx="338.20" cy="324.38" data-y="7.03" data-x="1600128000" r="1" fill="white"><title>2020-09-15: 7</title></circle>
	<circle cx="339.62" cy="322.96" data-y="7.22" data-x="1600214400" r="1" fill="white"><title>2020-09-16: 7</title></circle>
	<circle cx="341.04" cy="322.25" data-y="7.32" data-x="1600300800" r="1" fill="white"><title>2020-09-17: 7</title></circle>
	<circle cx="342.45" cy="328.66" data-y="6.43" data-x="1600387200" r="1" fill="white"><title>2020-09-18: 6</title></circle>
	<circle cx="343.87" cy="323.67" data-y="7.12" data-x="1600473600" r="1" fill="white"><title>2020-09-19: 7</title></circle>
	<circle cx="345.29" cy="333.65" data-y="5.74" data-x="1600560000" r="1" fill="white"><title>2020-09-20: 6</title></circle>
	<circle cx="346.70" cy="332.94" data-y="5.84" data-x="1600646400" r="1" fill="white"><title>2020-09-21: 6</title></circle>
	<circle cx="348.12" cy="332.94" data-y="5.84" data-x="1600732800" r="1" fill="white"><title>2020-09-22: 6</title></circle>
	<circle cx="349.54" cy="331.51" data-y="6.04" data-x="1600819200" r="1" fill="white"><title>2020-09-23: 6</title></circle>
	<circle cx="350.96" cy="325.10" data-y="6.93" data-x="1600905600" r="1" fill="white"><title>2020-09-24: 7</title></circle>
	<circle cx="352.37" cy="321.53" data-y="7.42" data-x="1600992000" r="1" fill="white"><title>2020-09-25: 7</title></circle>
	<circle cx="353.79" cy="315.12" data-y="8.31" data-x="1601078400" r="1" fill="white"><title>2020-09-26: 8</title></circle>
	<circle cx="355.21" cy="295.16" data-y="11.08" data-x="1601164800" r="1" fill="white"><title>2020-09-27: 11</title></circle>
	<circle cx="356.62" cy="287.31" data-y="12.17" data-x="1601251200" r="1" fill="white"><title>2020-09-28: 12</title></circle>
	<circle cx="358.04" cy="272.34" data-y="14.25" data-x="1601337600" r="1" fill="white"><title>2020-09-29: 14</title></circle>
	<circle cx="359.46" cy="260.22" data-y="15.93" data-x="1601424000" r="1" fill="white"><title>2020-09-30: 16</title></circle>
	<circle cx="360.88" cy="245.97" data-y="17.91" data-x="1601510400" r="1" fill="white"><title>2020-10-01: 18</title></circle>
	<circle cx="362.29" cy="226.72" data-y="20.58" data-x="1601596800" r="1" fill="white"><title>2020-10-02: 21</title></circle>
	<circle cx="363.71" cy="211.04" data-y="22.76" data-x="1601683200" r="1" fill="white"><title>2020-10-03: 23</title></circle>
	<circle cx="365.13" cy="194.64" data-y="25.03" data-x="1601769600" r="1" fill="white"><title>2020-10-04: 25</title></circle>
	<circle cx="366.54" cy="186.08" data-y="26.22" data-x="1601856000" r="1" fill="white"><title>2020-10-05: 26</title></circle>
	<circle cx="367.96" cy="172.54" data-y="28.10" data-x="1601942400" r="1" fill="white"><title>2020-10-06: 28</title></circle>
	<circle cx="369.38" cy="152.58" data-y="30.87" data-x="1602028800" r="1" fill="white"><title>2020-10-07: 31</title></circle>
	<circle cx="370.80" cy="130.48" data-y="33.94" data-x="1602115200" r="1" fill="white"><title>2020-10-08: 34</title></circle>
	<circle cx="372.21" cy="101.96" data-y="37.90" data-x="1602201600" r="1" fill="white"><title>2020-10-09: 38</title></circle>
	<circle cx="373.63" cy="89.13" data-y="39.68" data-x="1602288000" r="1" fill="white"><title>2020-10-10: 40</title></circle>
	<circle cx="375.05" cy="79.15" data-y="41.06" data-x="1602374400" r="1" fill="white"><title>2020-10-11: 41</title></circle>
	<circle cx="376.46" cy="47.07" data-y="45.51" data-x="1602460800" r="1" fill="white"><title>2020-10-12: 46</title></circle>
	<circle cx="377.88" cy="31.39" data-y="47.69" data-x="1602547200" r="1" fill="white"><title>2020-10-13: 48</title></circle>
	<circle cx="379.30" cy="31.39" data-y="47.69" data-x="1602633600" r="1" fill="white"><title>2020-10-14: 48</title></circle>
	<circle cx="380.72" cy="49.92" data-y="45.12" data-x="1602720000" r="1" fill="white"><title>2020-10-15: 45</title></circle>
	<circle cx="382.13" cy="61.33" data-y="43.54" data-x="1602806400" r="1" fill="white"><title>2020-10-16: 44</title></circle>
	<circle cx="383.55" cy="44.93" data-y="45.81" data-x="1602892800" r="1" fill="white"><title>2020-10-17: 46</title></circle>
	<circle cx="384.97" cy="38.52" data-y="46.70" data-x="1602979200" r="1" fill="white"><title>2020-10-18: 47</title></circle>
	<circle cx="386.39" cy="37.09" data-y="46.90" data-x="1603065600" r="1" fill="white"><title>2020-10-19: 47</title></circle>
	<circle cx="387.80" cy="29.96" data-y="47.89" data-x="1603152000" r="1" fill="white"><title>2020-10-20: 48</title></circle>
	<circle cx="389.22" cy="24.97" data-y="48.58" data-x="1603238400" r="1" fill="white"><title>2020-10-21: 49</title></circle>
	<circle cx="390.64" cy="14.99" data-y="49.97" data-x="1603324800" r="1" fill="white"><title>2020-10-22: 50</title></circle>
	<circle cx="392.05" cy="10.00" data-y="50.66" data-x="1603411200" r="1" fill="white"><title>2020-10-23: 51</title></circle>
	<circle cx="393.47" cy="27.82" data-y="48.19" data-x="1603497600" r="1" fill="white"><title>2020-10-24: 48</title></circle>
	<circle cx="394.89" cy="38.52" data-y="46.70" data-x="1603584000" r="1" fill="white"><title>2020-10-25: 47</title></circle>
	<circle cx="396.31" cy="59.90" data-y="43.73" data-x="1603670400" r="1" fill="white"><title>2020-10-26: 44</title></circle>
	<circle cx="397.72" cy="79.86" data-y="40.96" data-x="1603756800" r="1" fill="white"><title>2020-10-27: 41</title></circle>
	<circle cx="399.14" cy="95.55" data-y="38.79" data-x="1603843200" r="1" fill="white"><title>2020-10-28: 39</title></circle>
	<circle cx="400.56" cy="95.55" data-y="38.79" data-x="1603929600" r="1" fill="white"><title>2020-10-29: 39</title></circle>
	<circle cx="401.97" cy="100.54" data-y="38.09" data-x="1604016000" r="1" fill="white"><title>2020-10-30: 38</title></circle>
	<circle cx="403.39" cy="101.25" data-y="37.99" data-x="1604102400" r="1" fill="white"><title>2020-10-31: 38</title></circle>
	<circle cx="404.81" cy="120.50" data-y="35.32" data-x="1604188800" r="1" fill="white"><title>2020-11-01: 35</title></circle>
	<circle cx="406.23" cy="125.49" data-y="34.63" data-x="1604275200" r="1" fill="white"><title>2020-11-02: 35</title></circle>
	<circle cx="407.64" cy="136.18" data-y="33.15" data-x="1604361600" r="1" fill="white"><title>2020-11-03: 33</title></circle>
	<circle cx="409.06" cy="139.03" data-y="32.75" data-x="1604448000" r="1" fill="white"><title>2020-11-04: 33</title></circle>
	<circle cx="410.48" cy="165.41" data-y="29.09" data-x="1604534400" r="1" fill="white"><title>2020-11-05: 29</title></circle>
	<circle cx="411.89" cy="182.52" data-y="26.72" data-x="1604620800" r="1" fill="white"><title>2020-11-06: 27</title></circle>
	<circle cx="413.31" cy="198.92" data-y="24.44" data-x="1604707200" r="1" fill="white"><title>2020-11-07: 24</title></circle>
	<circle cx="414.73" cy="201.77" data-y="24.04" data-x="1604793600" r="1" fill="white"><title>2020-11-08: 24</title></circle>
	<circle cx="416.15" cy="217.45" data-y="21.87" data-x="1604880000" r="1" fill="white"><title>2020-11-09: 22</title></circle>
	<circle cx="417.56" cy="208.90" data-y="23.05" data-x="1604966400" r="1" fill="white"><title>2020-11-10: 23</title></circle>
	<circle cx="418.98" cy="225.29" data-y="20.78" data-x="1605052800" r="1" fill="white"><title>2020-11-11: 21</title></circle>
	<circle cx="420.40" cy="227.43" data-y="20.48" data-x="1605139200" r="1" fill="white"><title>2020-11-12: 20</title></circle>
	<circle cx="421.82" cy="221.73" data-y="21.27" data-x="1605225600" r="1" fill="white"><title>2020-11-13: 21</title></circle>
	<circle cx="423.23" cy="231.00" data-y="19.99" data-x="1605312000" r="1" fill="white"><title>2020-11-14: 20</title></circle>
	<circle cx="424.65" cy="240.98" data-y="18.60" data-x="1605398400" r="1" fill="white"><title>2020-11-15: 19</title></circle>
	<circle cx="426.07" cy="245.97" data-y="17.91" data-x="1605484800" r="1" fill="white"><title>2020-11-16: 18</title></circle>
	<circle cx="427.48" cy="268.78" data-y="14.74" data-x="1605571200" r="1" fill="white"><title>2020-11-17: 15</title></circle>
	<circle cx="428.90" cy="260.22" data-y="15.93" data-x="1605657600" r="1" fill="white"><title>2020-11-18: 16</title></circle>
	<circle cx="430.32" cy="259.51" data-y="16.03" data-x="1605744000" r="1" fill="white"><title>2020-11-19: 16</title></circle>
	<circle cx="431.74" cy="275.20" data-y="13.85" data-x="1605830400" r="1" fill="white"><title>2020-11-20: 14</title></circle>
	<circle cx="433.15" cy="279.47" data-y="13.26" data-x="1605916800" r="1" fill="white"><title>2020-11-21: 13</title></circle>
	<circle cx="434.57" cy="273.77" data-y="14.05" data-x="1606003200" r="1" fill="white"><title>2020-11-22: 14</title></circle>
	<circle cx="435.99" cy="275.20" data-y="13.85" data-x="1606089600" r="1" fill="white"><title>2020-11-23: 14</title></circle>
	<circle cx="437.40" cy="272.34" data-y="14.25" data-x="1606176000" r="1" fill="white"><title>2020-11-24: 14</title></circle>
	<circle cx="438.82" cy="280.19" data-y="13.16" data-x="1606262400" r="1" fill="white"><title>2020-11-25: 13</title></circle>
	<circle cx="440.24" cy="273.77" data-y="14.05" data-x="1606348800" r="1" fill="white"><title>2020-11-26: 14</title></circle>
	<circle cx="441.66" cy="275.20" data-y="13.85" data-x="1606435200" r="1" fill="white"><title>2020-11-27: 14</title></circle>
	<circle cx="443.07" cy="262.36" data-y="15.63" data-x="1606521600" r="1" fill="white"><title>2020-11-28: 16</title></circle>
	<circle cx="444.49" cy="263.08" data-y="15.53" data-x="1606608000" r="1" fill="white"><title>2020-11-29: 16</title></circle>
	<circle cx="445.91" cy="255.23" data-y="16.62" data-x="1606694400" r="1" fill="white"><title>2020-11-30: 17</title></circle>
	<circle cx="447.32" cy="247.39" data-y="17.71" data-x="1606780800" r="1" fill="white"><title>2020-12-01: 18</title></circle>
	<circle cx="448.74" cy="237.41" data-y="19.10" data-x="1606867200" r="1" fill="white"><title>2020-12-02: 19</title></circle>
	<circle cx="450.16" cy="233.85" data-y="19.59" data-x="1606953600" r="1" fill="white"><title>2020-12-03: 20</title></circle>
	<circle cx="451.58" cy="231.00" data-y="19.99" data-x="1607040000" r="1" fill="white"><title>2020-12-04: 20</title></circle>
	<circle cx="452.99" cy="239.55" data-y="18.80" data-x="1607126400" r="1" fill="white"><title>2020-12-05: 19</title></circle>
	<circle cx="454.41" cy="236.70" data-y="19.20" data-x="1607212800" r="1" fill="white"><title>2020-12-06: 19</title></circle>
	<circle cx="455.83" cy="231.00" data-y="19.99" data-x="1607299200" r="1" fill="white"><title>2020-12-07: 20</title></circle>
	<circle cx="457.25" cy="232.42" data-y="19.79" data-x="1607385600" r="1" fill="white"><title>2020-12-08: 20</title></circle>
	<circle cx="458.66" cy="234.56" data-y="19.49" data-x="1607472000" r="1" fill="white"><title>2020-12-09: 19</title></circle>
	<circle cx="460.08" cy="243.12" data-y="18.30" data-x="1607558400" r="1" fill="white"><title>2020-12-10: 18</title></circle>
	<circle cx="461.50" cy="231.71" data-y="19.89" data-x="1607644800" r="1" fill="white"><title>2020-12-11: 20</title></circle>
	<circle cx="462.91" cy="231.00" data-y="19.99" data-x="1607731200" r="1" fill="white"><title>2020-12-12: 20</title></circle>
</g>
<g data-series="recent-cases" class="data-series">
	<path d="M 462.91,231.00L 464.33,226.72L 465.75,231.71L 467.17,230.28L 468.58,229.29L 470.00,217.81" id="Recent cases" class="line" stroke-width="1" stroke-linecap="round" stroke-dasharray="4,6" stroke-dashoffset="4"><title>Recent cases</title></path>
	<circle cx="462.91" cy="231.00" data-y="19.99" data-x="1607731200" r="2.5" fill="white"><title>2020-12-12: 20</title></circle>
	<circle cx="464.33" cy="226.72" data-y="20.58" data-x="1607817600" r="2.5" fill="white"><title>2020-12-13: 21</title></circle>
	<circle cx="465.75" cy="231.71" data-y="19.89" data-x="1607904000" r="2.5" fill="white"><title>2020-12-14: 20</title></circle>
	<circle cx="467.17" cy="230.28" data-y="20.09" data-x="1607990400" r="2.5" fill="white"><title>2020-12-15: 20</title></circle>
	<circle cx="468.58" cy="229.29" data-y="20.22" data-x="1608076800" r="2.5" fill="white"><title>2020-12-16: 20</title></circle>
	<circle cx="470.00" cy="217.81" data-y="21.82" data-x="1608163200" r="2.5" fill="white"><title>2020-12-17: 22</title></circle>
</g>
</svg>
