<svg width="480" height="400" viewBox="0 0 480 400" xmlns="http://www.w3.org/2000/svg" style="overflow:display" preserveAspectRatio="xMinYMin meet" overflow="visible">
<defs>
	<style>
	.data-series path.line { fill-opacity: 0; stroke: black; }
	.data-series path.line.dotted { stroke-dasharray: 12 20 }
	.data-series:hover path.line, .data-series.on path.line { stroke-width: 1; }
	.data-series:hover circle, .data-series.on circle { display: inline; }
	.graph-grid { font-family: "Helvetica Neue",Helvetica,Arial,"Lucida Grande",sans-serif; }
	.graph-grid line { stroke: black; stroke-width: 1; stroke-linecap: round; }
	.graph-grid.graph-grid-x text { text-anchor: middle; dominant-baseline: hanging; transform: translateY(10px); }
	.graph-grid.graph-grid-y text { text-anchor: end; dominant-baseline: middle; transform: translateX(-10px); }
	</style>
</defs>
<g class="graph-grid graph-grid-y">
	<line x1="25.00" y1="375.00" x2="470.00" y2="375.00" data-left="25"></line>
	<text x="35" y="375" text-anchor="end">0</text>
	<text x="35" y="277.944918333333" text-anchor="end">20</text>
	<text x="35" y="180.889836666667" text-anchor="end">40</text>
	<text x="35" y="83.834755" text-anchor="end">60</text>
	<text style="text-anchor:middle;dominant-baseline:hanging;font-weight:bold;transform: translateY(192.5px) rotate(-90deg);"></text>
</g>
<g class="graph-grid graph-grid-x">
	<line class="tick" x1="56.68" y1="375.00" x2="56.68" y2="380.00"></line>
	<text x="56.6779661016949" y="375" text-anchor="middle">M</text>
	<line class="tick" x1="103.44" y1="375.00" x2="103.44" y2="380.00"></line>
	<text x="103.440677966102" y="375" text-anchor="middle">A</text>
	<line class="tick" x1="148.69" y1="375.00" x2="148.69" y2="380.00"></line>
	<text x="148.694915254237" y="375" text-anchor="middle">M</text>
	<line class="tick" x1="195.46" y1="375.00" x2="195.46" y2="380.00"></line>
	<text x="195.457627118644" y="375" text-anchor="middle">J</text>
	<line class="tick" x1="240.71" y1="375.00" x2="240.71" y2="380.00"></line>
	<text x="240.71186440678" y="375" text-anchor="middle">J</text>
	<line class="tick" x1="287.47" y1="375.00" x2="287.47" y2="380.00"></line>
	<text x="287.474576271186" y="375" text-anchor="middle">A</text>
	<line class="tick" x1="334.24" y1="375.00" x2="334.24" y2="380.00"></line>
	<text x="334.237288135593" y="375" text-anchor="middle">S</text>
	<line class="tick" x1="379.49" y1="375.00" x2="379.49" y2="380.00"></line>
	<text x="379.491525423729" y="375" text-anchor="middle">O</text>
	<line class="tick" x1="426.25" y1="375.00" x2="426.25" y2="380.00"></line>
	<text x="426.254237288136" y="375" text-anchor="middle">N</text>
	<text style="text-anchor:middle;dominant-baseline:hanging;font-weight:bold;transform: translateY(192.5px) rotate(-90deg);"></text>
</g>
<g data-series="widespread" class="data-series">
	<path d="M 25.00,341.03L 470.00,341.03" id="N09000003-level-0" class="line" stroke-width="1" stroke-linecap="round" stroke-dasharray="3,3" fill-opacity="0.3" opacity="0.3"><title>Widespread</title></path>
</g>
<g data-series="substantial" class="data-series">
	<path d="M 25.00,355.59L 470.00,355.59" id="N09000003-level-1" class="line" stroke-width="1" stroke-linecap="round" stroke-dasharray="3,3" fill-opacity="0.3" opacity="0.3"><title>Substantial</title></path>
</g>
<g data-series="moderate" class="data-series">
	<path d="M 25.00,370.15L 470.00,370.15" id="N09000003-level-2" class="line" stroke-width="1" stroke-linecap="round" stroke-dasharray="3,3" fill-opacity="0.3" opacity="0.3"><title>Moderate</title></path>
</g>
<g data-series="new-cases" class="data-series">
	<path d="M 25.00,375.00L 26.51,375.00L 28.02,375.00L 29.53,375.00L 31.03,375.00L 32.54,375.00L 34.05,375.00L 35.56,375.00L 37.07,375.00L 38.58,375.00L 40.08,375.00L 41.59,375.00L 43.10,375.00L 44.61,375.00L 46.12,375.00L 47.63,375.00L 49.14,375.00L 50.64,375.00L 52.15,375.00L 53.66,375.00L 55.17,375.00L 56.68,375.00L 58.19,375.00L 59.69,375.00L 61.20,374.59L 62.71,374.59L 64.22,374.59L 65.73,374.39L 67.24,373.58L 68.75,373.58L 70.25,372.97L 71.76,372.16L 73.27,372.16L 74.78,371.15L 76.29,370.74L 77.80,370.94L 79.31,370.54L 80.81,369.93L 82.32,369.93L 83.83,368.92L 85.34,367.70L 86.85,366.08L 88.36,363.44L 89.86,358.57L 91.37,356.34L 92.88,352.49L 94.39,349.65L 95.90,346.21L 97.41,341.95L 98.92,336.47L 100.42,334.24L 101.93,331.00L 103.44,329.78L 104.95,329.98L 106.46,327.14L 107.97,325.52L 109.47,328.97L 110.98,331.81L 112.49,332.62L 114.00,334.85L 115.51,334.44L 117.02,334.85L 118.53,337.89L 120.03,336.88L 121.54,332.62L 123.05,329.58L 124.56,327.75L 126.07,328.16L 127.58,327.14L 129.08,324.91L 130.59,325.73L 132.10,331.20L 133.61,334.04L 135.12,335.86L 136.63,337.69L 138.14,343.37L 139.64,344.99L 141.15,347.22L 142.66,343.77L 144.17,347.02L 145.68,349.86L 147.19,349.45L 148.69,348.23L 150.20,350.26L 151.71,351.68L 153.22,355.33L 154.73,356.55L 156.24,356.34L 157.75,357.56L 159.25,361.21L 160.76,363.04L 162.27,363.24L 163.78,363.64L 165.29,364.05L 166.80,364.05L 168.31,364.25L 169.81,364.05L 171.32,364.86L 172.83,364.25L 174.34,365.67L 175.85,365.67L 177.36,365.88L 178.86,365.27L 180.37,364.86L 181.88,364.25L 183.39,366.28L 184.90,366.89L 186.41,367.90L 187.92,368.51L 189.42,368.92L 190.93,369.52L 192.44,370.94L 193.95,370.94L 195.46,371.35L 196.97,370.74L 198.47,371.35L 199.98,372.16L 201.49,372.77L 203.00,372.16L 204.51,371.96L 206.02,372.36L 207.53,372.97L 209.03,372.16L 210.54,372.16L 212.05,371.76L 213.56,372.16L 215.07,372.36L 216.58,372.16L 218.08,371.96L 219.59,372.57L 221.10,372.77L 222.61,373.58L 224.12,373.78L 225.63,373.78L 227.14,373.78L 228.64,373.99L 230.15,373.99L 231.66,373.78L 233.17,373.78L 234.68,373.99L 236.19,374.19L 237.69,374.39L 239.20,374.59L 240.71,374.80L 242.22,374.80L 243.73,374.59L 245.24,374.39L 246.75,374.19L 248.25,373.99L 249.76,373.78L 251.27,372.97L 252.78,373.18L 254.29,373.38L 255.80,373.58L 257.31,373.78L 258.81,372.77L 260.32,372.57L 261.83,373.38L 263.34,372.97L 264.85,372.97L 266.36,372.57L 267.86,372.36L 269.37,373.58L 270.88,373.99L 272.39,373.99L 273.90,374.39L 275.41,374.39L 276.92,374.59L 278.42,374.19L 279.93,373.99L 281.44,373.78L 282.95,373.78L 284.46,373.38L 285.97,373.18L 287.47,372.57L 288.98,371.35L 290.49,370.54L 292.00,370.34L 293.51,368.92L 295.02,368.51L 296.53,366.28L 298.03,365.88L 299.54,366.28L 301.05,365.06L 302.56,363.85L 304.07,363.04L 305.58,362.43L 307.08,361.62L 308.59,361.21L 310.10,360.60L 311.61,360.60L 313.12,360.20L 314.63,360.20L 316.14,358.37L 317.64,358.98L 319.15,355.53L 320.66,352.90L 322.17,350.67L 323.68,347.22L 325.19,347.42L 326.69,348.44L 328.20,347.42L 329.71,347.83L 331.22,344.79L 332.73,343.77L 334.24,340.12L 335.75,337.08L 337.25,332.42L 338.76,332.01L 340.27,333.84L 341.78,334.65L 343.29,335.46L 344.80,340.93L 346.31,341.14L 347.81,342.76L 349.32,340.73L 350.83,337.69L 352.34,336.47L 353.85,334.65L 355.36,327.55L 356.86,323.09L 358.37,323.29L 359.88,321.26L 361.39,317.82L 362.90,310.31L 364.41,303.42L 365.92,302.81L 367.42,303.22L 368.93,294.29L 370.44,289.23L 371.95,281.72L 373.46,274.63L 374.97,262.05L 376.47,239.95L 377.98,215.41L 379.49,196.76L 381.00,169.59L 382.51,145.86L 384.02,119.70L 385.53,90.71L 387.03,82.80L 388.54,70.23L 390.05,61.30L 391.56,46.30L 393.07,30.89L 394.58,24.60L 396.08,21.36L 397.59,10.00L 399.10,12.64L 400.61,11.83L 402.12,11.62L 403.63,16.29L 405.14,10.81L 406.64,13.45L 408.15,18.31L 409.66,25.21L 411.17,37.38L 412.68,48.73L 414.19,55.83L 415.69,80.57L 417.20,105.91L 418.71,128.02L 420.22,146.67L 421.73,160.87L 423.24,177.09L 424.75,192.91L 426.25,205.28L 427.76,211.36L 429.27,219.67L 430.78,222.71L 432.29,223.12L 433.80,221.90L 435.31,228.80L 436.81,230.42L 438.32,230.22L 439.83,228.19L 441.34,229.61L 442.85,234.68L 444.36,243.40L 445.86,239.54L 447.37,248.47L 448.88,263.47L 450.39,263.88L 451.90,265.91L 453.41,269.15L 454.92,276.65L 456.42,289.02L 457.93,288.21L 459.44,289.02L 460.95,298.55L 462.46,298.76" id="New cases" class="line" stroke-width="1" stroke-linecap="round"><title>New cases</title></path>
	<circle cx="25.00" cy="375.00" data-y="0.00" data-x="1581206400" r="1" fill="white"><title>2020-02-09: 0</title></circle>
	<circle cx="26.51" cy="375.00" data-y="0.00" data-x="1581292800" r="1" fill="white"><title>2020-02-10: 0</title></circle>
	<circle cx="28.02" cy="375.00" data-y="0.00" data-x="1581379200" r="1" fill="white"><title>2020-02-11: 0</title></circle>
	<circle cx="29.53" cy="375.00" data-y="0.00" data-x="1581465600" r="1" fill="white"><title>2020-02-12: 0</title></circle>
	<circle cx="31.03" cy="375.00" data-y="0.00" data-x="1581552000" r="1" fill="white"><title>2020-02-13: 0</title></circle>
	<circle cx="32.54" cy="375.00" data-y="0.00" data-x="1581638400" r="1" fill="white"><title>2020-02-14: 0</title></circle>
	<circle cx="34.05" cy="375.00" data-y="0.00" data-x="1581724800" r="1" fill="white"><title>2020-02-15: 0</title></circle>
	<circle cx="35.56" cy="375.00" data-y="0.00" data-x="1581811200" r="1" fill="white"><title>2020-02-16: 0</title></circle>
	<circle cx="37.07" cy="375.00" data-y="0.00" data-x="1581897600" r="1" fill="white"><title>2020-02-17: 0</title></circle>
	<circle cx="38.58" cy="375.00" data-y="0.00" data-x="1581984000" r="1" fill="white"><title>2020-02-18: 0</title></circle>
	<circle cx="40.08" cy="375.00" data-y="0.00" data-x="1582070400" r="1" fill="white"><title>2020-02-19: 0</title></circle>
	<circle cx="41.59" cy="375.00" data-y="0.00" data-x="1582156800" r="1" fill="white"><title>2020-02-20: 0</title></circle>
	<circle cx="43.10" cy="375.00" data-y="0.00" data-x="1582243200" r="1" fill="white"><title>2020-02-21: 0</title></circle>
	<circle cx="44.61" cy="375.00" data-y="0.00" data-x="1582329600" r="1" fill="white"><title>2020-02-22: 0</title></circle>
	<circle cx="46.12" cy="375.00" data-y="0.00" data-x="1582416000" r="1" fill="white"><title>2020-02-23: 0</title></circle>
	<circle cx="47.63" cy="375.00" data-y="0.00" data-x="1582502400" r="1" fill="white"><title>2020-02-24: 0</title></circle>
	<circle cx="49.14" cy="375.00" data-y="0.00" data-x="1582588800" r="1" fill="white"><title>2020-02-25: 0</title></circle>
	<circle cx="50.64" cy="375.00" data-y="0.00" data-x="1582675200" r="1" fill="white"><title>2020-02-26: 0</title></circle>
	<circle cx="52.15" cy="375.00" data-y="0.00" data-x="1582761600" r="1" fill="white"><title>2020-02-27: 0</title></circle>
	<circle cx="53.66" cy="375.00" data-y="0.00" data-x="1582848000" r="1" fill="white"><title>2020-02-28: 0</title></circle>
	<circle cx="55.17" cy="375.00" data-y="0.00" data-x="1582934400" r="1" fill="white"><title>2020-02-29: 0</title></circle>
	<circle cx="56.68" cy="375.00" data-y="0.00" data-x="1583020800" r="1" fill="white"><title>2020-03-01: 0</title></circle>
	<circle cx="58.19" cy="375.00" data-y="0.00" data-x="1583107200" r="1" fill="white"><title>2020-03-02: 0</title></circle>
	<circle cx="59.69" cy="375.00" data-y="0.00" data-x="1583193600" r="1" fill="white"><title>2020-03-03: 0</title></circle>
	<circle cx="61.20" cy="374.59" data-y="0.08" data-x="1583280000" r="1" fill="white"><title>2020-03-04: 0</title></circle>
	<circle cx="62.71" cy="374.59" data-y="0.08" data-x="1583366400" r="1" fill="white"><title>2020-03-05: 0</title></circle>
	<circle cx="64.22" cy="374.59" data-y="0.08" data-x="1583452800" r="1" fill="white"><title>2020-03-06: 0</title></circle>
	<circle cx="65.73" cy="374.39" data-y="0.13" data-x="1583539200" r="1" fill="white"><title>2020-03-07: 0</title></circle>
	<circle cx="67.24" cy="373.58" data-y="0.29" data-x="1583625600" r="1" fill="white"><title>2020-03-08: 0</title></circle>
	<circle cx="68.75" cy="373.58" data-y="0.29" data-x="1583712000" r="1" fill="white"><title>2020-03-09: 0</title></circle>
	<circle cx="70.25" cy="372.97" data-y="0.42" data-x="1583798400" r="1" fill="white"><title>2020-03-10: 0</title></circle>
	<circle cx="71.76" cy="372.16" data-y="0.59" data-x="1583884800" r="1" fill="white"><title>2020-03-11: 1</title></circle>
	<circle cx="73.27" cy="372.16" data-y="0.59" data-x="1583971200" r="1" fill="white"><title>2020-03-12: 1</title></circle>
	<circle cx="74.78" cy="371.15" data-y="0.79" data-x="1584057600" r="1" fill="white"><title>2020-03-13: 1</title></circle>
	<circle cx="76.29" cy="370.74" data-y="0.88" data-x="1584144000" r="1" fill="white"><title>2020-03-14: 1</title></circle>
	<circle cx="77.80" cy="370.94" data-y="0.84" data-x="1584230400" r="1" fill="white"><title>2020-03-15: 1</title></circle>
	<circle cx="79.31" cy="370.54" data-y="0.92" data-x="1584316800" r="1" fill="white"><title>2020-03-16: 1</title></circle>
	<circle cx="80.81" cy="369.93" data-y="1.04" data-x="1584403200" r="1" fill="white"><title>2020-03-17: 1</title></circle>
	<circle cx="82.32" cy="369.93" data-y="1.04" data-x="1584489600" r="1" fill="white"><title>2020-03-18: 1</title></circle>
	<circle cx="83.83" cy="368.92" data-y="1.25" data-x="1584576000" r="1" fill="white"><title>2020-03-19: 1</title></circle>
	<circle cx="85.34" cy="367.70" data-y="1.50" data-x="1584662400" r="1" fill="white"><title>2020-03-20: 2</title></circle>
	<circle cx="86.85" cy="366.08" data-y="1.84" data-x="1584748800" r="1" fill="white"><title>2020-03-21: 2</title></circle>
	<circle cx="88.36" cy="363.44" data-y="2.38" data-x="1584835200" r="1" fill="white"><title>2020-03-22: 2</title></circle>
	<circle cx="89.86" cy="358.57" data-y="3.38" data-x="1584921600" r="1" fill="white"><title>2020-03-23: 3</title></circle>
	<circle cx="91.37" cy="356.34" data-y="3.84" data-x="1585008000" r="1" fill="white"><title>2020-03-24: 4</title></circle>
	<circle cx="92.88" cy="352.49" data-y="4.64" data-x="1585094400" r="1" fill="white"><title>2020-03-25: 5</title></circle>
	<circle cx="94.39" cy="349.65" data-y="5.22" data-x="1585180800" r="1" fill="white"><title>2020-03-26: 5</title></circle>
	<circle cx="95.90" cy="346.21" data-y="5.93" data-x="1585267200" r="1" fill="white"><title>2020-03-27: 6</title></circle>
	<circle cx="97.41" cy="341.95" data-y="6.81" data-x="1585353600" r="1" fill="white"><title>2020-03-28: 7</title></circle>
	<circle cx="98.92" cy="336.47" data-y="7.94" data-x="1585440000" r="1" fill="white"><title>2020-03-29: 8</title></circle>
	<circle cx="100.42" cy="334.24" data-y="8.40" data-x="1585526400" r="1" fill="white"><title>2020-03-30: 8</title></circle>
	<circle cx="101.93" cy="331.00" data-y="9.07" data-x="1585612800" r="1" fill="white"><title>2020-03-31: 9</title></circle>
	<circle cx="103.44" cy="329.78" data-y="9.32" data-x="1585699200" r="1" fill="white"><title>2020-04-01: 9</title></circle>
	<circle cx="104.95" cy="329.98" data-y="9.28" data-x="1585785600" r="1" fill="white"><title>2020-04-02: 9</title></circle>
	<circle cx="106.46" cy="327.14" data-y="9.86" data-x="1585872000" r="1" fill="white"><title>2020-04-03: 10</title></circle>
	<circle cx="107.97" cy="325.52" data-y="10.20" data-x="1585958400" r="1" fill="white"><title>2020-04-04: 10</title></circle>
	<circle cx="109.47" cy="328.97" data-y="9.49" data-x="1586044800" r="1" fill="white"><title>2020-04-05: 9</title></circle>
	<circle cx="110.98" cy="331.81" data-y="8.90" data-x="1586131200" r="1" fill="white"><title>2020-04-06: 9</title></circle>
	<circle cx="112.49" cy="332.62" data-y="8.73" data-x="1586217600" r="1" fill="white"><title>2020-04-07: 9</title></circle>
	<circle cx="114.00" cy="334.85" data-y="8.27" data-x="1586304000" r="1" fill="white"><title>2020-04-08: 8</title></circle>
	<circle cx="115.51" cy="334.44" data-y="8.36" data-x="1586390400" r="1" fill="white"><title>2020-04-09: 8</title></circle>
	<circle cx="117.02" cy="334.85" data-y="8.27" data-x="1586476800" r="1" fill="white"><title>2020-04-10: 8</title></circle>
	<circle cx="118.53" cy="337.89" data-y="7.65" data-x="1586563200" r="1" fill="white"><title>2020-04-11: 8</title></circle>
	<circle cx="120.03" cy="336.88" data-y="7.86" data-x="1586649600" r="1" fill="white"><title>2020-04-12: 8</title></circle>
	<circle cx="121.54" cy="332.62" data-y="8.73" data-x="1586736000" r="1" fill="white"><title>2020-04-13: 9</title></circle>
	<circle cx="123.05" cy="329.58" data-y="9.36" data-x="1586822400" r="1" fill="white"><title>2020-04-14: 9</title></circle>
	<circle cx="124.56" cy="327.75" data-y="9.74" data-x="1586908800" r="1" fill="white"><title>2020-04-15: 10</title></circle>
	<circle cx="126.07" cy="328.16" data-y="9.65" data-x="1586995200" r="1" fill="white"><title>2020-04-16: 10</title></circle>
	<circle cx="127.58" cy="327.14" data-y="9.86" data-x="1587081600" r="1" fill="white"><title>2020-04-17: 10</title></circle>
	<circle cx="129.08" cy="324.91" data-y="10.32" data-x="1587168000" r="1" fill="white"><title>2020-04-18: 10</title></circle>
	<circle cx="130.59" cy="325.73" data-y="10.15" data-x="1587254400" r="1" fill="white"><title>2020-04-19: 10</title></circle>
	<circle cx="132.10" cy="331.20" data-y="9.03" data-x="1587340800" r="1" fill="white"><title>2020-04-20: 9</title></circle>
	<circle cx="133.61" cy="334.04" data-y="8.44" data-x="1587427200" r="1" fill="white"><title>2020-04-21: 8</title></circle>
	<circle cx="135.12" cy="335.86" data-y="8.06" data-x="1587513600" r="1" fill="white"><title>2020-04-22: 8</title></circle>
	<circle cx="136.63" cy="337.69" data-y="7.69" data-x="1587600000" r="1" fill="white"><title>2020-04-23: 8</title></circle>
	<circle cx="138.14" cy="343.37" data-y="6.52" data-x="1587686400" r="1" fill="white"><title>2020-04-24: 7</title></circle>
	<circle cx="139.64" cy="344.99" data-y="6.18" data-x="1587772800" r="1" fill="white"><title>2020-04-25: 6</title></circle>
	<circle cx="141.15" cy="347.22" data-y="5.72" data-x="1587859200" r="1" fill="white"><title>2020-04-26: 6</title></circle>
	<circle cx="142.66" cy="343.77" data-y="6.44" data-x="1587945600" r="1" fill="white"><title>2020-04-27: 6</title></circle>
	<circle cx="144.17" cy="347.02" data-y="5.77" data-x="1588032000" r="1" fill="white"><title>2020-04-28: 6</title></circle>
	<circle cx="145.68" cy="349.86" data-y="5.18" data-x="1588118400" r="1" fill="white"><title>2020-04-29: 5</title></circle>
	<circle cx="147.19" cy="349.45" data-y="5.27" data-x="1588204800" r="1" fill="white"><title>2020-04-30: 5</title></circle>
	<circle cx="148.69" cy="348.23" data-y="5.52" data-x="1588291200" r="1" fill="white"><title>2020-05-01: 6</title></circle>
	<circle cx="150.20" cy="350.26" data-y="5.10" data-x="1588377600" r="1" fill="white"><title>2020-05-02: 5</title></circle>
	<circle cx="151.71" cy="351.68" data-y="4.81" data-x="1588464000" r="1" fill="white"><title>2020-05-03: 5</title></circle>
	<circle cx="153.22" cy="355.33" data-y="4.05" data-x="1588550400" r="1" fill="white"><title>2020-05-04: 4</title></circle>
	<circle cx="154.73" cy="356.55" data-y="3.80" data-x="1588636800" r="1" fill="white"><title>2020-05-05: 4</title></circle>
	<circle cx="156.24" cy="356.34" data-y="3.84" data-x="1588723200" r="1" fill="white"><title>2020-05-06: 4</title></circle>
	<circle cx="157.75" cy="357.56" data-y="3.59" data-x="1588809600" r="1" fill="white"><title>2020-05-07: 4</title></circle>
	<circle cx="159.25" cy="361.21" data-y="2.84" data-x="1588896000" r="1" fill="white"><title>2020-05-08: 3</title></circle>
	<circle cx="160.76" cy="363.04" data-y="2.47" data-x="1588982400" r="1" fill="white"><title>2020-05-09: 2</title></circle>
	<circle cx="162.27" cy="363.24" data-y="2.42" data-x="1589068800" r="1" fill="white"><title>2020-05-10: 2</title></circle>
	<circle cx="163.78" cy="363.64" data-y="2.34" data-x="1589155200" r="1" fill="white"><title>2020-05-11: 2</title></circle>
	<circle cx="165.29" cy="364.05" data-y="2.26" data-x="1589241600" r="1" fill="white"><title>2020-05-12: 2</title></circle>
	<circle cx="166.80" cy="364.05" data-y="2.26" data-x="1589328000" r="1" fill="white"><title>2020-05-13: 2</title></circle>
	<circle cx="168.31" cy="364.25" data-y="2.21" data-x="1589414400" r="1" fill="white"><title>2020-05-14: 2</title></circle>
	<circle cx="169.81" cy="364.05" data-y="2.26" data-x="1589500800" r="1" fill="white"><title>2020-05-15: 2</title></circle>
	<circle cx="171.32" cy="364.86" data-y="2.09" data-x="1589587200" r="1" fill="white"><title>2020-05-16: 2</title></circle>
	<circle cx="172.83" cy="364.25" data-y="2.21" data-x="1589673600" r="1" fill="white"><title>2020-05-17: 2</title></circle>
	<circle cx="174.34" cy="365.67" data-y="1.92" data-x="1589760000" r="1" fill="white"><title>2020-05-18: 2</title></circle>
	<circle cx="175.85" cy="365.67" data-y="1.92" data-x="1589846400" r="1" fill="white"><title>2020-05-19: 2</title></circle>
	<circle cx="177.36" cy="365.88" data-y="1.88" data-x="1589932800" r="1" fill="white"><title>2020-05-20: 2</title></circle>
	<circle cx="178.86" cy="365.27" data-y="2.01" data-x="1590019200" r="1" fill="white"><title>2020-05-21: 2</title></circle>
	<circle cx="180.37" cy="364.86" data-y="2.09" data-x="1590105600" r="1" fill="white"><title>2020-05-22: 2</title></circle>
	<circle cx="181.88" cy="364.25" data-y="2.21" data-x="1590192000" r="1" fill="white"><title>2020-05-23: 2</title></circle>
	<circle cx="183.39" cy="366.28" data-y="1.80" data-x="1590278400" r="1" fill="white"><title>2020-05-24: 2</title></circle>
	<circle cx="184.90" cy="366.89" data-y="1.67" data-x="1590364800" r="1" fill="white"><title>2020-05-25: 2</title></circle>
	<circle cx="186.41" cy="367.90" data-y="1.46" data-x="1590451200" r="1" fill="white"><title>2020-05-26: 1</title></circle>
	<circle cx="187.92" cy="368.51" data-y="1.34" data-x="1590537600" r="1" fill="white"><title>2020-05-27: 1</title></circle>
	<circle cx="189.42" cy="368.92" data-y="1.25" data-x="1590624000" r="1" fill="white"><title>2020-05-28: 1</title></circle>
	<circle cx="190.93" cy="369.52" data-y="1.13" data-x="1590710400" r="1" fill="white"><title>2020-05-29: 1</title></circle>
	<circle cx="192.44" cy="370.94" data-y="0.84" data-x="1590796800" r="1" fill="white"><title>2020-05-30: 1</title></circle>
	<circle cx="193.95" cy="370.94" data-y="0.84" data-x="1590883200" r="1" fill="white"><title>2020-05-31: 1</title></circle>
	<circle cx="195.46" cy="371.35" data-y="0.75" data-x="1590969600" r="1" fill="white"><title>2020-06-01: 1</title></circle>
	<circle cx="196.97" cy="370.74" data-y="0.88" data-x="1591056000" r="1" fill="white"><title>2020-06-02: 1</title></circle>
	<circle cx="198.47" cy="371.35" data-y="0.75" data-x="1591142400" r="1" fill="white"><title>2020-06-03: 1</title></circle>
	<circle cx="199.98" cy="372.16" data-y="0.59" data-x="1591228800" r="1" fill="white"><title>2020-06-04: 1</title></circle>
	<circle cx="201.49" cy="372.77" data-y="0.46" data-x="1591315200" r="1" fill="white"><title>2020-06-05: 0</title></circle>
	<circle cx="203.00" cy="372.16" data-y="0.59" data-x="1591401600" r="1" fill="white"><title>2020-06-06: 1</title></circle>
	<circle cx="204.51" cy="371.96" data-y="0.63" data-x="1591488000" r="1" fill="white"><title>2020-06-07: 1</title></circle>
	<circle cx="206.02" cy="372.36" data-y="0.54" data-x="1591574400" r="1" fill="white"><title>2020-06-08: 1</title></circle>
	<circle cx="207.53" cy="372.97" data-y="0.42" data-x="1591660800" r="1" fill="white"><title>2020-06-09: 0</title></circle>
	<circle cx="209.03" cy="372.16" data-y="0.59" data-x="1591747200" r="1" fill="white"><title>2020-06-10: 1</title></circle>
	<circle cx="210.54" cy="372.16" data-y="0.59" data-x="1591833600" r="1" fill="white"><title>2020-06-11: 1</title></circle>
	<circle cx="212.05" cy="371.76" data-y="0.67" data-x="1591920000" r="1" fill="white"><title>2020-06-12: 1</title></circle>
	<circle cx="213.56" cy="372.16" data-y="0.59" data-x="1592006400" r="1" fill="white"><title>2020-06-13: 1</title></circle>
	<circle cx="215.07" cy="372.36" data-y="0.54" data-x="1592092800" r="1" fill="white"><title>2020-06-14: 1</title></circle>
	<circle cx="216.58" cy="372.16" data-y="0.59" data-x="1592179200" r="1" fill="white"><title>2020-06-15: 1</title></circle>
	<circle cx="218.08" cy="371.96" data-y="0.63" data-x="1592265600" r="1" fill="white"><title>2020-06-16: 1</title></circle>
	<circle cx="219.59" cy="372.57" data-y="0.50" data-x="1592352000" r="1" fill="white"><title>2020-06-17: 1</title></circle>
	<circle cx="221.10" cy="372.77" data-y="0.46" data-x="1592438400" r="1" fill="white"><title>2020-06-18: 0</title></circle>
	<circle cx="222.61" cy="373.58" data-y="0.29" data-x="1592524800" r="1" fill="white"><title>2020-06-19: 0</title></circle>
	<circle cx="224.12" cy="373.78" data-y="0.25" data-x="1592611200" r="1" fill="white"><title>2020-06-20: 0</title></circle>
	<circle cx="225.63" cy="373.78" data-y="0.25" data-x="1592697600" r="1" fill="white"><title>2020-06-21: 0</title></circle>
	<circle cx="227.14" cy="373.78" data-y="0.25" data-x="1592784000" r="1" fill="white"><title>2020-06-22: 0</title></circle>
	<circle cx="228.64" cy="373.99" data-y="0.21" data-x="1592870400" r="1" fill="white"><title>2020-06-23: 0</title></circle>
	<circle cx="230.15" cy="373.99" data-y="0.21" data-x="1592956800" r="1" fill="white"><title>2020-06-24: 0</title></circle>
	<circle cx="231.66" cy="373.78" data-y="0.25" data-x="1593043200" r="1" fill="white"><title>2020-06-25: 0</title></circle>
	<circle cx="233.17" cy="373.78" data-y="0.25" data-x="1593129600" r="1" fill="white"><title>2020-06-26: 0</title></circle>
	<circle cx="234.68" cy="373.99" data-y="0.21" data-x="1593216000" r="1" fill="white"><title>2020-06-27: 0</title></circle>
	<circle cx="236.19" cy="374.19" data-y="0.17" data-x="1593302400" r="1" fill="white"><title>2020-06-28: 0</title></circle>
	<circle cx="237.69" cy="374.39" data-y="0.13" data-x="1593388800" r="1" fill="white"><title>2020-06-29: 0</title></circle>
	<circle cx="239.20" cy="374.59" data-y="0.08" data-x="1593475200" r="1" fill="white"><title>2020-06-30: 0</title></circle>
	<circle cx="240.71" cy="374.80" data-y="0.04" data-x="1593561600" r="1" fill="white"><title>2020-07-01: 0</title></circle>
	<circle cx="242.22" cy="374.80" data-y="0.04" data-x="1593648000" r="1" fill="white"><title>2020-07-02: 0</title></circle>
	<circle cx="243.73" cy="374.59" data-y="0.08" data-x="1593734400" r="1" fill="white"><title>2020-07-03: 0</title></circle>
	<circle cx="245.24" cy="374.39" data-y="0.13" data-x="1593820800" r="1" fill="white"><title>2020-07-04: 0</title></circle>
	<circle cx="246.75" cy="374.19" data-y="0.17" data-x="1593907200" r="1" fill="white"><title>2020-07-05: 0</title></circle>
	<circle cx="248.25" cy="373.99" data-y="0.21" data-x="1593993600" r="1" fill="white"><title>2020-07-06: 0</title></circle>
	<circle cx="249.76" cy="373.78" data-y="0.25" data-x="1594080000" r="1" fill="white"><title>2020-07-07: 0</title></circle>
	<circle cx="251.27" cy="372.97" data-y="0.42" data-x="1594166400" r="1" fill="white"><title>2020-07-08: 0</title></circle>
	<circle cx="252.78" cy="373.18" data-y="0.38" data-x="1594252800" r="1" fill="white"><title>2020-07-09: 0</title></circle>
	<circle cx="254.29" cy="373.38" data-y="0.33" data-x="1594339200" r="1" fill="white"><title>2020-07-10: 0</title></circle>
	<circle cx="255.80" cy="373.58" data-y="0.29" data-x="1594425600" r="1" fill="white"><title>2020-07-11: 0</title></circle>
	<circle cx="257.31" cy="373.78" data-y="0.25" data-x="1594512000" r="1" fill="white"><title>2020-07-12: 0</title></circle>
	<circle cx="258.81" cy="372.77" data-y="0.46" data-x="1594598400" r="1" fill="white"><title>2020-07-13: 0</title></circle>
	<circle cx="260.32" cy="372.57" data-y="0.50" data-x="1594684800" r="1" fill="white"><title>2020-07-14: 1</title></circle>
	<circle cx="261.83" cy="373.38" data-y="0.33" data-x="1594771200" r="1" fill="white"><title>2020-07-15: 0</title></circle>
	<circle cx="263.34" cy="372.97" data-y="0.42" data-x="1594857600" r="1" fill="white"><title>2020-07-16: 0</title></circle>
	<circle cx="264.85" cy="372.97" data-y="0.42" data-x="1594944000" r="1" fill="white"><title>2020-07-17: 0</title></circle>
	<circle cx="266.36" cy="372.57" data-y="0.50" data-x="1595030400" r="1" fill="white"><title>2020-07-18: 1</title></circle>
	<circle cx="267.86" cy="372.36" data-y="0.54" data-x="1595116800" r="1" fill="white"><title>2020-07-19: 1</title></circle>
	<circle cx="269.37" cy="373.58" data-y="0.29" data-x="1595203200" r="1" fill="white"><title>2020-07-20: 0</title></circle>
	<circle cx="270.88" cy="373.99" data-y="0.21" data-x="1595289600" r="1" fill="white"><title>2020-07-21: 0</title></circle>
	<circle cx="272.39" cy="373.99" data-y="0.21" data-x="1595376000" r="1" fill="white"><title>2020-07-22: 0</title></circle>
	<circle cx="273.90" cy="374.39" data-y="0.13" data-x="1595462400" r="1" fill="white"><title>2020-07-23: 0</title></circle>
	<circle cx="275.41" cy="374.39" data-y="0.13" data-x="1595548800" r="1" fill="white"><title>2020-07-24: 0</title></circle>
	<circle cx="276.92" cy="374.59" data-y="0.08" data-x="1595635200" r="1" fill="white"><title>2020-07-25: 0</title></circle>
	<circle cx="278.42" cy="374.19" data-y="0.17" data-x="1595721600" r="1" fill="white"><title>2020-07-26: 0</title></circle>
	<circle cx="279.93" cy="373.99" data-y="0.21" data-x="1595808000" r="1" fill="white"><title>2020-07-27: 0</title></circle>
	<circle cx="281.44" cy="373.78" data-y="0.25" data-x="1595894400" r="1" fill="white"><title>2020-07-28: 0</title></circle>
	<circle cx="282.95" cy="373.78" data-y="0.25" data-x="1595980800" r="1" fill="white"><title>2020-07-29: 0</title></circle>
	<circle cx="284.46" cy="373.38" data-y="0.33" data-x="1596067200" r="1" fill="white"><title>2020-07-30: 0</title></circle>
	<circle cx="285.97" cy="373.18" data-y="0.38" data-x="1596153600" r="1" fill="white"><title>2020-07-31: 0</title></circle>
	<circle cx="287.47" cy="372.57" data-y="0.50" data-x="1596240000" r="1" fill="white"><title>2020-08-01: 1</title></circle>
	<circle cx="288.98" cy="371.35" data-y="0.75" data-x="1596326400" r="1" fill="white"><title>2020-08-02: 1</title></circle>
	<circle cx="290.49" cy="370.54" data-y="0.92" data-x="1596412800" r="1" fill="white"><title>2020-08-03: 1</title></circle>
	<circle cx="292.00" cy="370.34" data-y="0.96" data-x="1596499200" r="1" fill="white"><title>2020-08-04: 1</title></circle>
	<circle cx="293.51" cy="368.92" data-y="1.25" data-x="1596585600" r="1" fill="white"><title>2020-08-05: 1</title></circle>
	<circle cx="295.02" cy="368.51" data-y="1.34" data-x="1596672000" r="1" fill="white"><title>2020-08-06: 1</title></circle>
	<circle cx="296.53" cy="366.28" data-y="1.80" data-x="1596758400" r="1" fill="white"><title>2020-08-07: 2</title></circle>
	<circle cx="298.03" cy="365.88" data-y="1.88" data-x="1596844800" r="1" fill="white"><title>2020-08-08: 2</title></circle>
	<circle cx="299.54" cy="366.28" data-y="1.80" data-x="1596931200" r="1" fill="white"><title>2020-08-09: 2</title></circle>
	<circle cx="301.05" cy="365.06" data-y="2.05" data-x="1597017600" r="1" fill="white"><title>2020-08-10: 2</title></circle>
	<circle cx="302.56" cy="363.85" data-y="2.30" data-x="1597104000" r="1" fill="white"><title>2020-08-11: 2</title></circle>
	<circle cx="304.07" cy="363.04" data-y="2.47" data-x="1597190400" r="1" fill="white"><title>2020-08-12: 2</title></circle>
	<circle cx="305.58" cy="362.43" data-y="2.59" data-x="1597276800" r="1" fill="white"><title>2020-08-13: 3</title></circle>
	<circle cx="307.08" cy="361.62" data-y="2.76" data-x="1597363200" r="1" fill="white"><title>2020-08-14: 3</title></circle>
	<circle cx="308.59" cy="361.21" data-y="2.84" data-x="1597449600" r="1" fill="white"><title>2020-08-15: 3</title></circle>
	<circle cx="310.10" cy="360.60" data-y="2.97" data-x="1597536000" r="1" fill="white"><title>2020-08-16: 3</title></circle>
	<circle cx="311.61" cy="360.60" data-y="2.97" data-x="1597622400" r="1" fill="white"><title>2020-08-17: 3</title></circle>
	<circle cx="313.12" cy="360.20" data-y="3.05" data-x="1597708800" r="1" fill="white"><title>2020-08-18: 3</title></circle>
	<circle cx="314.63" cy="360.20" data-y="3.05" data-x="1597795200" r="1" fill="white"><title>2020-08-19: 3</title></circle>
	<circle cx="316.14" cy="358.37" data-y="3.43" data-x="1597881600" r="1" fill="white"><title>2020-08-20: 3</title></circle>
	<circle cx="317.64" cy="358.98" data-y="3.30" data-x="1597968000" r="1" fill="white"><title>2020-08-21: 3</title></circle>
	<circle cx="319.15" cy="355.53" data-y="4.01" data-x="1598054400" r="1" fill="white"><title>2020-08-22: 4</title></circle>
	<circle cx="320.66" cy="352.90" data-y="4.55" data-x="1598140800" r="1" fill="white"><title>2020-08-23: 5</title></circle>
	<circle cx="322.17" cy="350.67" data-y="5.01" data-x="1598227200" r="1" fill="white"><title>2020-08-24: 5</title></circle>
	<circle cx="323.68" cy="347.22" data-y="5.72" data-x="1598313600" r="1" fill="white"><title>2020-08-25: 6</title></circle>
	<circle cx="325.19" cy="347.42" data-y="5.68" data-x="1598400000" r="1" fill="white"><title>2020-08-26: 6</title></circle>
	<circle cx="326.69" cy="348.44" data-y="5.47" data-x="1598486400" r="1" fill="white"><title>2020-08-27: 5</title></circle>
	<circle cx="328.20" cy="347.42" data-y="5.68" data-x="1598572800" r="1" fill="white"><title>2020-08-28: 6</title></circle>
	<circle cx="329.71" cy="347.83" data-y="5.60" data-x="1598659200" r="1" fill="white"><title>2020-08-29: 6</title></circle>
	<circle cx="331.22" cy="344.79" data-y="6.23" data-x="1598745600" r="1" fill="white"><title>2020-08-30: 6</title></circle>
	<circle cx="332.73" cy="343.77" data-y="6.44" data-x="1598832000" r="1" fill="white"><title>2020-08-31: 6</title></circle>
	<circle cx="334.24" cy="340.12" data-y="7.19" data-x="1598918400" r="1" fill="white"><title>2020-09-01: 7</title></circle>
	<circle cx="335.75" cy="337.08" data-y="7.81" data-x="1599004800" r="1" fill="white"><title>2020-09-02: 8</title></circle>
	<circle cx="337.25" cy="332.42" data-y="8.78" data-x="1599091200" r="1" fill="white"><title>2020-09-03: 9</title></circle>
	<circle cx="338.76" cy="332.01" data-y="8.86" data-x="1599177600" r="1" fill="white"><title>2020-09-04: 9</title></circle>
	<circle cx="340.27" cy="333.84" data-y="8.48" data-x="1599264000" r="1" fill="white"><title>2020-09-05: 8</title></circle>
	<circle cx="341.78" cy="334.65" data-y="8.32" data-x="1599350400" r="1" fill="white"><title>2020-09-06: 8</title></circle>
	<circle cx="343.29" cy="335.46" data-y="8.15" data-x="1599436800" r="1" fill="white"><title>2020-09-07: 8</title></circle>
	<circle cx="344.80" cy="340.93" data-y="7.02" data-x="1599523200" r="1" fill="white"><title>2020-09-08: 7</title></circle>
	<circle cx="346.31" cy="341.14" data-y="6.98" data-x="1599609600" r="1" fill="white"><title>2020-09-09: 7</title></circle>
	<circle cx="347.81" cy="342.76" data-y="6.64" data-x="1599696000" r="1" fill="white"><title>2020-09-10: 7</title></circle>
	<circle cx="349.32" cy="340.73" data-y="7.06" data-x="1599782400" r="1" fill="white"><title>2020-09-11: 7</title></circle>
	<circle cx="350.83" cy="337.69" data-y="7.69" data-x="1599868800" r="1" fill="white"><title>2020-09-12: 8</title></circle>
	<circle cx="352.34" cy="336.47" data-y="7.94" data-x="1599955200" r="1" fill="white"><title>2020-09-13: 8</title></circle>
	<circle cx="353.85" cy="334.65" data-y="8.32" data-x="1600041600" r="1" fill="white"><title>2020-09-14: 8</title></circle>
	<circle cx="355.36" cy="327.55" data-y="9.78" data-x="1600128000" r="1" fill="white"><title>2020-09-15: 10</title></circle>
	<circle cx="356.86" cy="323.09" data-y="10.70" data-x="1600214400" r="1" fill="white"><title>2020-09-16: 11</title></circle>
	<circle cx="358.37" cy="323.29" data-y="10.66" data-x="1600300800" r="1" fill="white"><title>2020-09-17: 11</title></circle>
	<circle cx="359.88" cy="321.26" data-y="11.07" data-x="1600387200" r="1" fill="white"><title>2020-09-18: 11</title></circle>
	<circle cx="361.39" cy="317.82" data-y="11.78" data-x="1600473600" r="1" fill="white"><title>2020-09-19: 12</title></circle>
	<circle cx="362.90" cy="310.31" data-y="13.33" data-x="1600560000" r="1" fill="white"><title>2020-09-20: 13</title></circle>
	<circle cx="364.41" cy="303.42" data-y="14.75" data-x="1600646400" r="1" fill="white"><title>2020-09-21: 15</title></circle>
	<circle cx="365.92" cy="302.81" data-y="14.88" data-x="1600732800" r="1" fill="white"><title>2020-09-22: 15</title></circle>
	<circle cx="367.42" cy="303.22" data-y="14.79" data-x="1600819200" r="1" fill="white"><title>2020-09-23: 15</title></circle>
	<circle cx="368.93" cy="294.29" data-y="16.63" data-x="1600905600" r="1" fill="white"><title>2020-09-24: 17</title></circle>
	<circle cx="370.44" cy="289.23" data-y="17.68" data-x="1600992000" r="1" fill="white"><title>2020-09-25: 18</title></circle>
	<circle cx="371.95" cy="281.72" data-y="19.22" data-x="1601078400" r="1" fill="white"><title>2020-09-26: 19</title></circle>
	<circle cx="373.46" cy="274.63" data-y="20.68" data-x="1601164800" r="1" fill="white"><title>2020-09-27: 21</title></circle>
	<circle cx="374.97" cy="262.05" data-y="23.27" data-x="1601251200" r="1" fill="white"><title>2020-09-28: 23</title></circle>
	<circle cx="376.47" cy="239.95" data-y="27.83" data-x="1601337600" r="1" fill="white"><title>2020-09-29: 28</title></circle>
	<circle cx="377.98" cy="215.41" data-y="32.89" data-x="1601424000" r="1" fill="white"><title>2020-09-30: 33</title></circle>
	<circle cx="379.49" cy="196.76" data-y="36.73" data-x="1601510400" r="1" fill="white"><title>2020-10-01: 37</title></circle>
	<circle cx="381.00" cy="169.59" data-y="42.33" data-x="1601596800" r="1" fill="white"><title>2020-10-02: 42</title></circle>
	<circle cx="382.51" cy="145.86" data-y="47.22" data-x="1601683200" r="1" fill="white"><title>2020-10-03: 47</title></circle>
	<circle cx="384.02" cy="119.70" data-y="52.61" data-x="1601769600" r="1" fill="white"><title>2020-10-04: 53</title></circle>
	<circle cx="385.53" cy="90.71" data-y="58.58" data-x="1601856000" r="1" fill="white"><title>2020-10-05: 59</title></circle>
	<circle cx="387.03" cy="82.80" data-y="60.21" data-x="1601942400" r="1" fill="white"><title>2020-10-06: 60</title></circle>
	<circle cx="388.54" cy="70.23" data-y="62.80" data-x="1602028800" r="1" fill="white"><title>2020-10-07: 63</title></circle>
	<circle cx="390.05" cy="61.30" data-y="64.64" data-x="1602115200" r="1" fill="white"><title>2020-10-08: 65</title></circle>
	<circle cx="391.56" cy="46.30" data-y="67.74" data-x="1602201600" r="1" fill="white"><title>2020-10-09: 68</title></circle>
	<circle cx="393.07" cy="30.89" data-y="70.91" data-x="1602288000" r="1" fill="white"><title>2020-10-10: 71</title></circle>
	<circle cx="394.58" cy="24.60" data-y="72.21" data-x="1602374400" r="1" fill="white"><title>2020-10-11: 72</title></circle>
	<circle cx="396.08" cy="21.36" data-y="72.87" data-x="1602460800" r="1" fill="white"><title>2020-10-12: 73</title></circle>
	<circle cx="397.59" cy="10.00" data-y="75.22" data-x="1602547200" r="1" fill="white"><title>2020-10-13: 75</title></circle>
	<circle cx="399.10" cy="12.64" data-y="74.67" data-x="1602633600" r="1" fill="white"><title>2020-10-14: 75</title></circle>
	<circle cx="400.61" cy="11.83" data-y="74.84" data-x="1602720000" r="1" fill="white"><title>2020-10-15: 75</title></circle>
	<circle cx="402.12" cy="11.62" data-y="74.88" data-x="1602806400" r="1" fill="white"><title>2020-10-16: 75</title></circle>
	<circle cx="403.63" cy="16.29" data-y="73.92" data-x="1602892800" r="1" fill="white"><title>2020-10-17: 74</title></circle>
	<circle cx="405.14" cy="10.81" data-y="75.05" data-x="1602979200" r="1" fill="white"><title>2020-10-18: 75</title></circle>
	<circle cx="406.64" cy="13.45" data-y="74.50" data-x="1603065600" r="1" fill="white"><title>2020-10-19: 75</title></circle>
	<circle cx="408.15" cy="18.31" data-y="73.50" data-x="1603152000" r="1" fill="white"><title>2020-10-20: 74</title></circle>
	<circle cx="409.66" cy="25.21" data-y="72.08" data-x="1603238400" r="1" fill="white"><title>2020-10-21: 72</title></circle>
	<circle cx="411.17" cy="37.38" data-y="69.57" data-x="1603324800" r="1" fill="white"><title>2020-10-22: 70</title></circle>
	<circle cx="412.68" cy="48.73" data-y="67.23" data-x="1603411200" r="1" fill="white"><title>2020-10-23: 67</title></circle>
	<circle cx="414.19" cy="55.83" data-y="65.77" data-x="1603497600" r="1" fill="white"><title>2020-10-24: 66</title></circle>
	<circle cx="415.69" cy="80.57" data-y="60.67" data-x="1603584000" r="1" fill="white"><title>2020-10-25: 61</title></circle>
	<circle cx="417.20" cy="105.91" data-y="55.45" data-x="1603670400" r="1" fill="white"><title>2020-10-26: 55</title></circle>
	<circle cx="418.71" cy="128.02" data-y="50.90" data-x="1603756800" r="1" fill="white"><title>2020-10-27: 51</title></circle>
	<circle cx="420.22" cy="146.67" data-y="47.05" data-x="1603843200" r="1" fill="white"><title>2020-10-28: 47</title></circle>
	<circle cx="421.73" cy="160.87" data-y="44.13" data-x="1603929600" r="1" fill="white"><title>2020-10-29: 44</title></circle>
	<circle cx="423.24" cy="177.09" data-y="40.78" data-x="1604016000" r="1" fill="white"><title>2020-10-30: 41</title></circle>
	<circle cx="424.75" cy="192.91" data-y="37.52" data-x="1604102400" r="1" fill="white"><title>2020-10-31: 38</title></circle>
	<circle cx="426.25" cy="205.28" data-y="34.97" data-x="1604188800" r="1" fill="white"><title>2020-11-01: 35</title></circle>
	<circle cx="427.76" cy="211.36" data-y="33.72" data-x="1604275200" r="1" fill="white"><title>2020-11-02: 34</title></circle>
	<circle cx="429.27" cy="219.67" data-y="32.01" data-x="1604361600" r="1" fill="white"><title>2020-11-03: 32</title></circle>
	<circle cx="430.78" cy="222.71" data-y="31.38" data-x="1604448000" r="1" fill="white"><title>2020-11-04: 31</title></circle>
	<circle cx="432.29" cy="223.12" data-y="31.30" data-x="1604534400" r="1" fill="white"><title>2020-11-05: 31</title></circle>
	<circle cx="433.80" cy="221.90" data-y="31.55" data-x="1604620800" r="1" fill="white"><title>2020-11-06: 32</title></circle>
	<circle cx="435.31" cy="228.80" data-y="30.13" data-x="1604707200" r="1" fill="white"><title>2020-11-07: 30</title></circle>
	<circle cx="436.81" cy="230.42" data-y="29.79" data-x="1604793600" r="1" fill="white"><title>2020-11-08: 30</title></circle>
	<circle cx="438.32" cy="230.22" data-y="29.84" data-x="1604880000" r="1" fill="white"><title>2020-11-09: 30</title></circle>
	<circle cx="439.83" cy="228.19" data-y="30.25" data-x="1604966400" r="1" fill="white"><title>2020-11-10: 30</title></circle>
	<circle cx="441.34" cy="229.61" data-y="29.96" data-x="1605052800" r="1" fill="white"><title>2020-11-11: 30</title></circle>
	<circle cx="442.85" cy="234.68" data-y="28.92" data-x="1605139200" r="1" fill="white"><title>2020-11-12: 29</title></circle>
	<circle cx="444.36" cy="243.40" data-y="27.12" data-x="1605225600" r="1" fill="white"><title>2020-11-13: 27</title></circle>
	<circle cx="445.86" cy="239.54" data-y="27.91" data-x="1605312000" r="1" fill="white"><title>2020-11-14: 28</title></circle>
	<circle cx="447.37" cy="248.47" data-y="26.07" data-x="1605398400" r="1" fill="white"><title>2020-11-15: 26</title></circle>
	<circle cx="448.88" cy="263.47" data-y="22.98" data-x="1605484800" r="1" fill="white"><title>2020-11-16: 23</title></circle>
	<circle cx="450.39" cy="263.88" data-y="22.90" data-x="1605571200" r="1" fill="white"><title>2020-11-17: 23</title></circle>
	<circle cx="451.90" cy="265.91" data-y="22.48" data-x="1605657600" r="1" fill="white"><title>2020-11-18: 22</title></circle>
	<circle cx="453.41" cy="269.15" data-y="21.81" data-x="1605744000" r="1" fill="white"><title>2020-11-19: 22</title></circle>
	<circle cx="454.92" cy="276.65" data-y="20.27" data-x="1605830400" r="1" fill="white"><title>2020-11-20: 20</title></circle>
	<circle cx="456.42" cy="289.02" data-y="17.72" data-x="1605916800" r="1" fill="white"><title>2020-11-21: 18</title></circle>
	<circle cx="457.93" cy="288.21" data-y="17.88" data-x="1606003200" r="1" fill="white"><title>2020-11-22: 18</title></circle>
	<circle cx="459.44" cy="289.02" data-y="17.72" data-x="1606089600" r="1" fill="white"><title>2020-11-23: 18</title></circle>
	<circle cx="460.95" cy="298.55" data-y="15.75" data-x="1606176000" r="1" fill="white"><title>2020-11-24: 16</title></circle>
	<circle cx="462.46" cy="298.76" data-y="15.71" data-x="1606262400" r="1" fill="white"><title>2020-11-25: 16</title></circle>
</g>
<g data-series="recent-cases" class="data-series">
	<path d="M 462.46,298.76L 463.97,297.74L 465.47,302.61L 466.98,305.68L 468.49,311.12L 470.00,310.06" id="Recent cases" class="line" stroke-width="1" stroke-linecap="round" stroke-dasharray="4,6" stroke-dashoffset="4"><title>Recent cases</title></path>
	<circle cx="462.46" cy="298.76" data-y="15.71" data-x="1606262400" r="2.5" fill="white"><title>2020-11-25: 16</title></circle>
	<circle cx="463.97" cy="297.74" data-y="15.92" data-x="1606348800" r="2.5" fill="white"><title>2020-11-26: 16</title></circle>
	<circle cx="465.47" cy="302.61" data-y="14.92" data-x="1606435200" r="2.5" fill="white"><title>2020-11-27: 15</title></circle>
	<circle cx="466.98" cy="305.68" data-y="14.28" data-x="1606521600" r="2.5" fill="white"><title>2020-11-28: 14</title></circle>
	<circle cx="468.49" cy="311.12" data-y="13.16" data-x="1606608000" r="2.5" fill="white"><title>2020-11-29: 13</title></circle>
	<circle cx="470.00" cy="310.06" data-y="13.38" data-x="1606694400" r="2.5" fill="white"><title>2020-11-30: 13</title></circle>
</g>
</svg>
