<svg width="480" height="400" viewBox="0 0 480 400" xmlns="http://www.w3.org/2000/svg" style="overflow:display" preserveAspectRatio="xMinYMin meet" overflow="visible">
<defs>
	<style>
	.data-series path.line { fill-opacity: 0; stroke: black; }
	.data-series path.line.dotted { stroke-dasharray: 12 20 }
	.data-series:hover path.line, .data-series.on path.line { stroke-width: 1; }
	.data-series:hover circle, .data-series.on circle { display: inline; }
	.graph-grid { font-family: "Helvetica Neue",Helvetica,Arial,"Lucida Grande",sans-serif; }
	.graph-grid line { stroke: black; stroke-width: 1; stroke-linecap: round; }
	.graph-grid.graph-grid-x text { text-anchor: middle; dominant-baseline: hanging; transform: translateY(10px); }
	.graph-grid.graph-grid-y text { text-anchor: end; dominant-baseline: middle; transform: translateX(-10px); }
	</style>
</defs>
<g class="graph-grid graph-grid-y">
	<line x1="25.00" y1="375.00" x2="470.00" y2="375.00" data-left="25"></line>
	<text x="35" y="375" text-anchor="end">0</text>
	<text x="35" y="219.551847133758" text-anchor="end">10</text>
	<text x="35" y="64.1036942675159" text-anchor="end">20</text>
	<text style="text-anchor:middle;dominant-baseline:hanging;font-weight:bold;transform: translateY(192.5px) rotate(-90deg);"></text>
</g>
<g class="graph-grid graph-grid-x">
	<line class="tick" x1="27.74" y1="375.00" x2="27.74" y2="380.00"></line>
	<text x="27.7384615384615" y="375" text-anchor="middle">M</text>
	<line class="tick" x1="70.18" y1="375.00" x2="70.18" y2="380.00"></line>
	<text x="70.1846153846154" y="375" text-anchor="middle">A</text>
	<line class="tick" x1="111.26" y1="375.00" x2="111.26" y2="380.00"></line>
	<text x="111.261538461538" y="375" text-anchor="middle">M</text>
	<line class="tick" x1="153.71" y1="375.00" x2="153.71" y2="380.00"></line>
	<text x="153.707692307692" y="375" text-anchor="middle">J</text>
	<line class="tick" x1="194.78" y1="375.00" x2="194.78" y2="380.00"></line>
	<text x="194.784615384615" y="375" text-anchor="middle">J</text>
	<line class="tick" x1="237.23" y1="375.00" x2="237.23" y2="380.00"></line>
	<text x="237.230769230769" y="375" text-anchor="middle">A</text>
	<line class="tick" x1="279.68" y1="375.00" x2="279.68" y2="380.00"></line>
	<text x="279.676923076923" y="375" text-anchor="middle">S</text>
	<line class="tick" x1="320.75" y1="375.00" x2="320.75" y2="380.00"></line>
	<text x="320.753846153846" y="375" text-anchor="middle">O</text>
	<line class="tick" x1="363.20" y1="375.00" x2="363.20" y2="380.00"></line>
	<text x="363.2" y="375" text-anchor="middle">N</text>
	<line class="tick" x1="404.28" y1="375.00" x2="404.28" y2="380.00"></line>
	<text x="404.276923076923" y="375" text-anchor="middle">D</text>
	<line class="tick" x1="446.72" y1="375.00" x2="446.72" y2="380.00"></line>
	<text x="446.723076923077" y="375" text-anchor="middle">J</text>
	<text style="text-anchor:middle;dominant-baseline:hanging;font-weight:bold;transform: translateY(192.5px) rotate(-90deg);"></text>
</g>
<g data-series="widespread" class="data-series">
	<path d="M 25.00,266.19L 470.00,266.19" id="S12000020-level-0" class="line" stroke-width="1" stroke-linecap="round" stroke-dasharray="3,3" fill-opacity="0.3" opacity="0.3"><title>Widespread</title></path>
</g>
<g data-series="substantial" class="data-series">
	<path d="M 25.00,312.82L 470.00,312.82" id="S12000020-level-1" class="line" stroke-width="1" stroke-linecap="round" stroke-dasharray="3,3" fill-opacity="0.3" opacity="0.3"><title>Substantial</title></path>
</g>
<g data-series="moderate" class="data-series">
	<path d="M 25.00,359.46L 470.00,359.46" id="S12000020-level-2" class="line" stroke-width="1" stroke-linecap="round" stroke-dasharray="3,3" fill-opacity="0.3" opacity="0.3"><title>Moderate</title></path>
</g>
<g data-series="new-cases" class="data-series">
	<path d="M 25.00,370.93L 26.37,371.75L 27.74,369.58L 29.11,370.35L 30.48,370.35L 31.85,370.35L 33.22,372.68L 34.58,372.68L 35.95,372.68L 37.32,375.00L 38.69,375.00L 40.06,375.00L 41.43,375.00L 42.80,375.00L 44.17,375.00L 45.54,375.00L 46.91,375.00L 48.28,375.00L 49.65,375.00L 51.02,375.00L 52.38,375.00L 53.75,375.00L 55.12,375.00L 56.49,375.00L 57.86,370.35L 59.23,370.35L 60.60,368.03L 61.97,365.70L 63.34,365.70L 64.71,363.38L 66.08,358.73L 67.45,358.73L 68.82,358.73L 70.18,361.05L 71.55,363.38L 72.92,358.73L 74.29,361.05L 75.66,363.38L 77.03,361.05L 78.40,354.08L 79.77,349.43L 81.14,349.43L 82.51,351.75L 83.88,349.43L 85.25,351.75L 86.62,354.08L 87.98,356.40L 89.35,356.40L 90.72,356.40L 92.09,358.73L 93.46,356.40L 94.83,356.40L 96.20,358.73L 97.57,361.05L 98.94,363.38L 100.31,361.05L 101.68,358.73L 103.05,358.73L 104.42,358.73L 105.78,356.40L 107.15,356.40L 108.52,358.73L 109.89,361.05L 111.26,356.40L 112.63,354.08L 114.00,344.78L 115.37,349.43L 116.74,349.43L 118.11,340.13L 119.48,333.15L 120.85,328.50L 122.22,323.85L 123.58,321.53L 124.95,316.88L 126.32,314.55L 127.69,323.85L 129.06,330.83L 130.43,337.80L 131.80,344.78L 133.17,356.40L 134.54,361.05L 135.91,361.05L 137.28,361.05L 138.65,361.05L 140.02,365.70L 141.38,368.03L 142.75,368.03L 144.12,368.03L 145.49,372.68L 146.86,372.68L 148.23,372.68L 149.60,372.68L 150.97,375.00L 152.34,375.00L 153.71,375.00L 155.08,375.00L 156.45,375.00L 157.82,375.00L 159.18,375.00L 160.55,375.00L 161.92,375.00L 163.29,375.00L 164.66,375.00L 166.03,375.00L 167.40,375.00L 168.77,375.00L 170.14,375.00L 171.51,375.00L 172.88,375.00L 174.25,375.00L 175.62,375.00L 176.98,375.00L 178.35,375.00L 179.72,375.00L 181.09,375.00L 182.46,375.00L 183.83,375.00L 185.20,375.00L 186.57,375.00L 187.94,375.00L 189.31,375.00L 190.68,375.00L 192.05,375.00L 193.42,372.68L 194.78,372.68L 196.15,372.68L 197.52,372.68L 198.89,372.68L 200.26,372.68L 201.63,372.68L 203.00,375.00L 204.37,375.00L 205.74,375.00L 207.11,375.00L 208.48,375.00L 209.85,375.00L 211.22,370.35L 212.58,368.03L 213.95,368.03L 215.32,368.03L 216.69,368.03L 218.06,368.03L 219.43,368.03L 220.80,372.68L 222.17,375.00L 223.54,375.00L 224.91,375.00L 226.28,375.00L 227.65,375.00L 229.02,370.35L 230.38,370.35L 231.75,370.35L 233.12,368.03L 234.49,368.03L 235.86,368.03L 237.23,368.03L 238.60,372.68L 239.97,372.68L 241.34,372.68L 242.71,375.00L 244.08,372.68L 245.45,368.03L 246.82,368.03L 248.18,365.70L 249.55,361.05L 250.92,361.05L 252.29,361.05L 253.66,361.05L 255.03,363.38L 256.40,361.05L 257.77,361.05L 259.14,365.70L 260.51,365.70L 261.88,363.38L 263.25,365.70L 264.62,365.70L 265.98,365.70L 267.35,368.03L 268.72,368.03L 270.09,368.03L 271.46,370.35L 272.83,370.35L 274.20,368.03L 275.57,361.05L 276.94,361.05L 278.31,358.73L 279.68,358.73L 281.05,358.73L 282.42,356.40L 283.78,361.05L 285.15,365.70L 286.52,365.70L 287.89,365.70L 289.26,356.40L 290.63,349.43L 292.00,351.75L 293.37,351.75L 294.74,356.40L 296.11,351.75L 297.48,351.75L 298.85,361.05L 300.22,365.70L 301.58,363.38L 302.95,361.05L 304.32,358.73L 305.69,361.05L 307.06,361.05L 308.43,361.05L 309.80,363.38L 311.17,363.38L 312.54,361.05L 313.91,358.73L 315.28,361.05L 316.65,363.38L 318.02,361.05L 319.38,361.05L 320.75,358.73L 322.12,358.73L 323.49,358.73L 324.86,351.75L 326.23,337.80L 327.60,335.48L 328.97,330.83L 330.34,333.15L 331.71,333.15L 333.08,333.15L 334.45,328.50L 335.82,340.13L 337.18,337.80L 338.55,337.80L 339.92,340.13L 341.29,337.80L 342.66,330.83L 344.03,335.48L 345.40,335.48L 346.77,333.15L 348.14,333.15L 349.51,333.15L 350.88,337.80L 352.25,344.78L 353.62,344.78L 354.98,342.45L 356.35,349.43L 357.72,354.08L 359.09,354.08L 360.46,351.75L 361.83,337.80L 363.20,342.45L 364.57,342.45L 365.94,333.15L 367.31,323.85L 368.68,314.55L 370.05,316.88L 371.42,314.55L 372.78,314.55L 374.15,295.96L 375.52,300.61L 376.89,305.25L 378.26,314.55L 379.63,305.25L 381.00,314.55L 382.37,312.23L 383.74,330.83L 385.11,337.80L 386.48,340.13L 387.85,340.13L 389.22,347.10L 390.58,356.40L 391.95,358.73L 393.32,361.05L 394.69,361.05L 396.06,363.38L 397.43,363.38L 398.80,361.05L 400.17,354.08L 401.54,356.40L 402.91,358.73L 404.28,354.08L 405.65,347.10L 407.02,342.45L 408.38,342.45L 409.75,344.78L 411.12,335.48L 412.49,328.50L 413.86,328.50L 415.23,326.18L 416.60,328.50L 417.97,326.18L 419.34,326.18L 420.71,326.18L 422.08,328.50L 423.45,321.53L 424.82,314.55L 426.18,300.61L 427.55,272.71L 428.92,265.73L 430.29,251.78L 431.66,244.81L 433.03,254.11L 434.40,251.78L 435.77,242.48L 437.14,263.41L 438.51,200.64L 439.88,163.44L 441.25,123.92L 442.62,107.64L 443.98,100.67L 445.35,96.02L 446.72,51.85L 448.09,54.17L 449.46,63.47L 450.83,54.17L 452.20,10.00L 453.57,12.32L 454.94,30.92L 456.31,65.80L 457.68,96.02L 459.05,126.24L 460.42,130.89L 461.78,165.76L 463.15,172.74" id="New cases" class="line" stroke-width="1" stroke-linecap="round"><title>New cases</title></path>
	<circle cx="25.00" cy="370.93" data-y="0.26" data-x="1582848000" r="1" fill="white"><title>2020-02-28: 0</title></circle>
	<circle cx="26.37" cy="371.75" data-y="0.21" data-x="1582934400" r="1" fill="white"><title>2020-02-29: 0</title></circle>
	<circle cx="27.74" cy="369.58" data-y="0.35" data-x="1583020800" r="1" fill="white"><title>2020-03-01: 0</title></circle>
	<circle cx="29.11" cy="370.35" data-y="0.30" data-x="1583107200" r="1" fill="white"><title>2020-03-02: 0</title></circle>
	<circle cx="30.48" cy="370.35" data-y="0.30" data-x="1583193600" r="1" fill="white"><title>2020-03-03: 0</title></circle>
	<circle cx="31.85" cy="370.35" data-y="0.30" data-x="1583280000" r="1" fill="white"><title>2020-03-04: 0</title></circle>
	<circle cx="33.22" cy="372.68" data-y="0.15" data-x="1583366400" r="1" fill="white"><title>2020-03-05: 0</title></circle>
	<circle cx="34.58" cy="372.68" data-y="0.15" data-x="1583452800" r="1" fill="white"><title>2020-03-06: 0</title></circle>
	<circle cx="35.95" cy="372.68" data-y="0.15" data-x="1583539200" r="1" fill="white"><title>2020-03-07: 0</title></circle>
	<circle cx="37.32" cy="375.00" data-y="0.00" data-x="1583625600" r="1" fill="white"><title>2020-03-08: 0</title></circle>
	<circle cx="38.69" cy="375.00" data-y="0.00" data-x="1583712000" r="1" fill="white"><title>2020-03-09: 0</title></circle>
	<circle cx="40.06" cy="375.00" data-y="0.00" data-x="1583798400" r="1" fill="white"><title>2020-03-10: 0</title></circle>
	<circle cx="41.43" cy="375.00" data-y="0.00" data-x="1583884800" r="1" fill="white"><title>2020-03-11: 0</title></circle>
	<circle cx="42.80" cy="375.00" data-y="0.00" data-x="1583971200" r="1" fill="white"><title>2020-03-12: 0</title></circle>
	<circle cx="44.17" cy="375.00" data-y="0.00" data-x="1584057600" r="1" fill="white"><title>2020-03-13: 0</title></circle>
	<circle cx="45.54" cy="375.00" data-y="0.00" data-x="1584144000" r="1" fill="white"><title>2020-03-14: 0</title></circle>
	<circle cx="46.91" cy="375.00" data-y="0.00" data-x="1584230400" r="1" fill="white"><title>2020-03-15: 0</title></circle>
	<circle cx="48.28" cy="375.00" data-y="0.00" data-x="1584316800" r="1" fill="white"><title>2020-03-16: 0</title></circle>
	<circle cx="49.65" cy="375.00" data-y="0.00" data-x="1584403200" r="1" fill="white"><title>2020-03-17: 0</title></circle>
	<circle cx="51.02" cy="375.00" data-y="0.00" data-x="1584489600" r="1" fill="white"><title>2020-03-18: 0</title></circle>
	<circle cx="52.38" cy="375.00" data-y="0.00" data-x="1584576000" r="1" fill="white"><title>2020-03-19: 0</title></circle>
	<circle cx="53.75" cy="375.00" data-y="0.00" data-x="1584662400" r="1" fill="white"><title>2020-03-20: 0</title></circle>
	<circle cx="55.12" cy="375.00" data-y="0.00" data-x="1584748800" r="1" fill="white"><title>2020-03-21: 0</title></circle>
	<circle cx="56.49" cy="375.00" data-y="0.00" data-x="1584835200" r="1" fill="white"><title>2020-03-22: 0</title></circle>
	<circle cx="57.86" cy="370.35" data-y="0.30" data-x="1584921600" r="1" fill="white"><title>2020-03-23: 0</title></circle>
	<circle cx="59.23" cy="370.35" data-y="0.30" data-x="1585008000" r="1" fill="white"><title>2020-03-24: 0</title></circle>
	<circle cx="60.60" cy="368.03" data-y="0.45" data-x="1585094400" r="1" fill="white"><title>2020-03-25: 0</title></circle>
	<circle cx="61.97" cy="365.70" data-y="0.60" data-x="1585180800" r="1" fill="white"><title>2020-03-26: 1</title></circle>
	<circle cx="63.34" cy="365.70" data-y="0.60" data-x="1585267200" r="1" fill="white"><title>2020-03-27: 1</title></circle>
	<circle cx="64.71" cy="363.38" data-y="0.75" data-x="1585353600" r="1" fill="white"><title>2020-03-28: 1</title></circle>
	<circle cx="66.08" cy="358.73" data-y="1.05" data-x="1585440000" r="1" fill="white"><title>2020-03-29: 1</title></circle>
	<circle cx="67.45" cy="358.73" data-y="1.05" data-x="1585526400" r="1" fill="white"><title>2020-03-30: 1</title></circle>
	<circle cx="68.82" cy="358.73" data-y="1.05" data-x="1585612800" r="1" fill="white"><title>2020-03-31: 1</title></circle>
	<circle cx="70.18" cy="361.05" data-y="0.90" data-x="1585699200" r="1" fill="white"><title>2020-04-01: 1</title></circle>
	<circle cx="71.55" cy="363.38" data-y="0.75" data-x="1585785600" r="1" fill="white"><title>2020-04-02: 1</title></circle>
	<circle cx="72.92" cy="358.73" data-y="1.05" data-x="1585872000" r="1" fill="white"><title>2020-04-03: 1</title></circle>
	<circle cx="74.29" cy="361.05" data-y="0.90" data-x="1585958400" r="1" fill="white"><title>2020-04-04: 1</title></circle>
	<circle cx="75.66" cy="363.38" data-y="0.75" data-x="1586044800" r="1" fill="white"><title>2020-04-05: 1</title></circle>
	<circle cx="77.03" cy="361.05" data-y="0.90" data-x="1586131200" r="1" fill="white"><title>2020-04-06: 1</title></circle>
	<circle cx="78.40" cy="354.08" data-y="1.35" data-x="1586217600" r="1" fill="white"><title>2020-04-07: 1</title></circle>
	<circle cx="79.77" cy="349.43" data-y="1.65" data-x="1586304000" r="1" fill="white"><title>2020-04-08: 2</title></circle>
	<circle cx="81.14" cy="349.43" data-y="1.65" data-x="1586390400" r="1" fill="white"><title>2020-04-09: 2</title></circle>
	<circle cx="82.51" cy="351.75" data-y="1.50" data-x="1586476800" r="1" fill="white"><title>2020-04-10: 1</title></circle>
	<circle cx="83.88" cy="349.43" data-y="1.65" data-x="1586563200" r="1" fill="white"><title>2020-04-11: 2</title></circle>
	<circle cx="85.25" cy="351.75" data-y="1.50" data-x="1586649600" r="1" fill="white"><title>2020-04-12: 1</title></circle>
	<circle cx="86.62" cy="354.08" data-y="1.35" data-x="1586736000" r="1" fill="white"><title>2020-04-13: 1</title></circle>
	<circle cx="87.98" cy="356.40" data-y="1.20" data-x="1586822400" r="1" fill="white"><title>2020-04-14: 1</title></circle>
	<circle cx="89.35" cy="356.40" data-y="1.20" data-x="1586908800" r="1" fill="white"><title>2020-04-15: 1</title></circle>
	<circle cx="90.72" cy="356.40" data-y="1.20" data-x="1586995200" r="1" fill="white"><title>2020-04-16: 1</title></circle>
	<circle cx="92.09" cy="358.73" data-y="1.05" data-x="1587081600" r="1" fill="white"><title>2020-04-17: 1</title></circle>
	<circle cx="93.46" cy="356.40" data-y="1.20" data-x="1587168000" r="1" fill="white"><title>2020-04-18: 1</title></circle>
	<circle cx="94.83" cy="356.40" data-y="1.20" data-x="1587254400" r="1" fill="white"><title>2020-04-19: 1</title></circle>
	<circle cx="96.20" cy="358.73" data-y="1.05" data-x="1587340800" r="1" fill="white"><title>2020-04-20: 1</title></circle>
	<circle cx="97.57" cy="361.05" data-y="0.90" data-x="1587427200" r="1" fill="white"><title>2020-04-21: 1</title></circle>
	<circle cx="98.94" cy="363.38" data-y="0.75" data-x="1587513600" r="1" fill="white"><title>2020-04-22: 1</title></circle>
	<circle cx="100.31" cy="361.05" data-y="0.90" data-x="1587600000" r="1" fill="white"><title>2020-04-23: 1</title></circle>
	<circle cx="101.68" cy="358.73" data-y="1.05" data-x="1587686400" r="1" fill="white"><title>2020-04-24: 1</title></circle>
	<circle cx="103.05" cy="358.73" data-y="1.05" data-x="1587772800" r="1" fill="white"><title>2020-04-25: 1</title></circle>
	<circle cx="104.42" cy="358.73" data-y="1.05" data-x="1587859200" r="1" fill="white"><title>2020-04-26: 1</title></circle>
	<circle cx="105.78" cy="356.40" data-y="1.20" data-x="1587945600" r="1" fill="white"><title>2020-04-27: 1</title></circle>
	<circle cx="107.15" cy="356.40" data-y="1.20" data-x="1588032000" r="1" fill="white"><title>2020-04-28: 1</title></circle>
	<circle cx="108.52" cy="358.73" data-y="1.05" data-x="1588118400" r="1" fill="white"><title>2020-04-29: 1</title></circle>
	<circle cx="109.89" cy="361.05" data-y="0.90" data-x="1588204800" r="1" fill="white"><title>2020-04-30: 1</title></circle>
	<circle cx="111.26" cy="356.40" data-y="1.20" data-x="1588291200" r="1" fill="white"><title>2020-05-01: 1</title></circle>
	<circle cx="112.63" cy="354.08" data-y="1.35" data-x="1588377600" r="1" fill="white"><title>2020-05-02: 1</title></circle>
	<circle cx="114.00" cy="344.78" data-y="1.94" data-x="1588464000" r="1" fill="white"><title>2020-05-03: 2</title></circle>
	<circle cx="115.37" cy="349.43" data-y="1.65" data-x="1588550400" r="1" fill="white"><title>2020-05-04: 2</title></circle>
	<circle cx="116.74" cy="349.43" data-y="1.65" data-x="1588636800" r="1" fill="white"><title>2020-05-05: 2</title></circle>
	<circle cx="118.11" cy="340.13" data-y="2.24" data-x="1588723200" r="1" fill="white"><title>2020-05-06: 2</title></circle>
	<circle cx="119.48" cy="333.15" data-y="2.69" data-x="1588809600" r="1" fill="white"><title>2020-05-07: 3</title></circle>
	<circle cx="120.85" cy="328.50" data-y="2.99" data-x="1588896000" r="1" fill="white"><title>2020-05-08: 3</title></circle>
	<circle cx="122.22" cy="323.85" data-y="3.29" data-x="1588982400" r="1" fill="white"><title>2020-05-09: 3</title></circle>
	<circle cx="123.58" cy="321.53" data-y="3.44" data-x="1589068800" r="1" fill="white"><title>2020-05-10: 3</title></circle>
	<circle cx="124.95" cy="316.88" data-y="3.74" data-x="1589155200" r="1" fill="white"><title>2020-05-11: 4</title></circle>
	<circle cx="126.32" cy="314.55" data-y="3.89" data-x="1589241600" r="1" fill="white"><title>2020-05-12: 4</title></circle>
	<circle cx="127.69" cy="323.85" data-y="3.29" data-x="1589328000" r="1" fill="white"><title>2020-05-13: 3</title></circle>
	<circle cx="129.06" cy="330.83" data-y="2.84" data-x="1589414400" r="1" fill="white"><title>2020-05-14: 3</title></circle>
	<circle cx="130.43" cy="337.80" data-y="2.39" data-x="1589500800" r="1" fill="white"><title>2020-05-15: 2</title></circle>
	<circle cx="131.80" cy="344.78" data-y="1.94" data-x="1589587200" r="1" fill="white"><title>2020-05-16: 2</title></circle>
	<circle cx="133.17" cy="356.40" data-y="1.20" data-x="1589673600" r="1" fill="white"><title>2020-05-17: 1</title></circle>
	<circle cx="134.54" cy="361.05" data-y="0.90" data-x="1589760000" r="1" fill="white"><title>2020-05-18: 1</title></circle>
	<circle cx="135.91" cy="361.05" data-y="0.90" data-x="1589846400" r="1" fill="white"><title>2020-05-19: 1</title></circle>
	<circle cx="137.28" cy="361.05" data-y="0.90" data-x="1589932800" r="1" fill="white"><title>2020-05-20: 1</title></circle>
	<circle cx="138.65" cy="361.05" data-y="0.90" data-x="1590019200" r="1" fill="white"><title>2020-05-21: 1</title></circle>
	<circle cx="140.02" cy="365.70" data-y="0.60" data-x="1590105600" r="1" fill="white"><title>2020-05-22: 1</title></circle>
	<circle cx="141.38" cy="368.03" data-y="0.45" data-x="1590192000" r="1" fill="white"><title>2020-05-23: 0</title></circle>
	<circle cx="142.75" cy="368.03" data-y="0.45" data-x="1590278400" r="1" fill="white"><title>2020-05-24: 0</title></circle>
	<circle cx="144.12" cy="368.03" data-y="0.45" data-x="1590364800" r="1" fill="white"><title>2020-05-25: 0</title></circle>
	<circle cx="145.49" cy="372.68" data-y="0.15" data-x="1590451200" r="1" fill="white"><title>2020-05-26: 0</title></circle>
	<circle cx="146.86" cy="372.68" data-y="0.15" data-x="1590537600" r="1" fill="white"><title>2020-05-27: 0</title></circle>
	<circle cx="148.23" cy="372.68" data-y="0.15" data-x="1590624000" r="1" fill="white"><title>2020-05-28: 0</title></circle>
	<circle cx="149.60" cy="372.68" data-y="0.15" data-x="1590710400" r="1" fill="white"><title>2020-05-29: 0</title></circle>
	<circle cx="150.97" cy="375.00" data-y="0.00" data-x="1590796800" r="1" fill="white"><title>2020-05-30: 0</title></circle>
	<circle cx="152.34" cy="375.00" data-y="0.00" data-x="1590883200" r="1" fill="white"><title>2020-05-31: 0</title></circle>
	<circle cx="153.71" cy="375.00" data-y="0.00" data-x="1590969600" r="1" fill="white"><title>2020-06-01: 0</title></circle>
	<circle cx="155.08" cy="375.00" data-y="0.00" data-x="1591056000" r="1" fill="white"><title>2020-06-02: 0</title></circle>
	<circle cx="156.45" cy="375.00" data-y="0.00" data-x="1591142400" r="1" fill="white"><title>2020-06-03: 0</title></circle>
	<circle cx="157.82" cy="375.00" data-y="0.00" data-x="1591228800" r="1" fill="white"><title>2020-06-04: 0</title></circle>
	<circle cx="159.18" cy="375.00" data-y="0.00" data-x="1591315200" r="1" fill="white"><title>2020-06-05: 0</title></circle>
	<circle cx="160.55" cy="375.00" data-y="0.00" data-x="1591401600" r="1" fill="white"><title>2020-06-06: 0</title></circle>
	<circle cx="161.92" cy="375.00" data-y="0.00" data-x="1591488000" r="1" fill="white"><title>2020-06-07: 0</title></circle>
	<circle cx="163.29" cy="375.00" data-y="0.00" data-x="1591574400" r="1" fill="white"><title>2020-06-08: 0</title></circle>
	<circle cx="164.66" cy="375.00" data-y="0.00" data-x="1591660800" r="1" fill="white"><title>2020-06-09: 0</title></circle>
	<circle cx="166.03" cy="375.00" data-y="0.00" data-x="1591747200" r="1" fill="white"><title>2020-06-10: 0</title></circle>
	<circle cx="167.40" cy="375.00" data-y="0.00" data-x="1591833600" r="1" fill="white"><title>2020-06-11: 0</title></circle>
	<circle cx="168.77" cy="375.00" data-y="0.00" data-x="1591920000" r="1" fill="white"><title>2020-06-12: 0</title></circle>
	<circle cx="170.14" cy="375.00" data-y="0.00" data-x="1592006400" r="1" fill="white"><title>2020-06-13: 0</title></circle>
	<circle cx="171.51" cy="375.00" data-y="0.00" data-x="1592092800" r="1" fill="white"><title>2020-06-14: 0</title></circle>
	<circle cx="172.88" cy="375.00" data-y="0.00" data-x="1592179200" r="1" fill="white"><title>2020-06-15: 0</title></circle>
	<circle cx="174.25" cy="375.00" data-y="0.00" data-x="1592265600" r="1" fill="white"><title>2020-06-16: 0</title></circle>
	<circle cx="175.62" cy="375.00" data-y="0.00" data-x="1592352000" r="1" fill="white"><title>2020-06-17: 0</title></circle>
	<circle cx="176.98" cy="375.00" data-y="0.00" data-x="1592438400" r="1" fill="white"><title>2020-06-18: 0</title></circle>
	<circle cx="178.35" cy="375.00" data-y="0.00" data-x="1592524800" r="1" fill="white"><title>2020-06-19: 0</title></circle>
	<circle cx="179.72" cy="375.00" data-y="0.00" data-x="1592611200" r="1" fill="white"><title>2020-06-20: 0</title></circle>
	<circle cx="181.09" cy="375.00" data-y="0.00" data-x="1592697600" r="1" fill="white"><title>2020-06-21: 0</title></circle>
	<circle cx="182.46" cy="375.00" data-y="0.00" data-x="1592784000" r="1" fill="white"><title>2020-06-22: 0</title></circle>
	<circle cx="183.83" cy="375.00" data-y="0.00" data-x="1592870400" r="1" fill="white"><title>2020-06-23: 0</title></circle>
	<circle cx="185.20" cy="375.00" data-y="0.00" data-x="1592956800" r="1" fill="white"><title>2020-06-24: 0</title></circle>
	<circle cx="186.57" cy="375.00" data-y="0.00" data-x="1593043200" r="1" fill="white"><title>2020-06-25: 0</title></circle>
	<circle cx="187.94" cy="375.00" data-y="0.00" data-x="1593129600" r="1" fill="white"><title>2020-06-26: 0</title></circle>
	<circle cx="189.31" cy="375.00" data-y="0.00" data-x="1593216000" r="1" fill="white"><title>2020-06-27: 0</title></circle>
	<circle cx="190.68" cy="375.00" data-y="0.00" data-x="1593302400" r="1" fill="white"><title>2020-06-28: 0</title></circle>
	<circle cx="192.05" cy="375.00" data-y="0.00" data-x="1593388800" r="1" fill="white"><title>2020-06-29: 0</title></circle>
	<circle cx="193.42" cy="372.68" data-y="0.15" data-x="1593475200" r="1" fill="white"><title>2020-06-30: 0</title></circle>
	<circle cx="194.78" cy="372.68" data-y="0.15" data-x="1593561600" r="1" fill="white"><title>2020-07-01: 0</title></circle>
	<circle cx="196.15" cy="372.68" data-y="0.15" data-x="1593648000" r="1" fill="white"><title>2020-07-02: 0</title></circle>
	<circle cx="197.52" cy="372.68" data-y="0.15" data-x="1593734400" r="1" fill="white"><title>2020-07-03: 0</title></circle>
	<circle cx="198.89" cy="372.68" data-y="0.15" data-x="1593820800" r="1" fill="white"><title>2020-07-04: 0</title></circle>
	<circle cx="200.26" cy="372.68" data-y="0.15" data-x="1593907200" r="1" fill="white"><title>2020-07-05: 0</title></circle>
	<circle cx="201.63" cy="372.68" data-y="0.15" data-x="1593993600" r="1" fill="white"><title>2020-07-06: 0</title></circle>
	<circle cx="203.00" cy="375.00" data-y="0.00" data-x="1594080000" r="1" fill="white"><title>2020-07-07: 0</title></circle>
	<circle cx="204.37" cy="375.00" data-y="0.00" data-x="1594166400" r="1" fill="white"><title>2020-07-08: 0</title></circle>
	<circle cx="205.74" cy="375.00" data-y="0.00" data-x="1594252800" r="1" fill="white"><title>2020-07-09: 0</title></circle>
	<circle cx="207.11" cy="375.00" data-y="0.00" data-x="1594339200" r="1" fill="white"><title>2020-07-10: 0</title></circle>
	<circle cx="208.48" cy="375.00" data-y="0.00" data-x="1594425600" r="1" fill="white"><title>2020-07-11: 0</title></circle>
	<circle cx="209.85" cy="375.00" data-y="0.00" data-x="1594512000" r="1" fill="white"><title>2020-07-12: 0</title></circle>
	<circle cx="211.22" cy="370.35" data-y="0.30" data-x="1594598400" r="1" fill="white"><title>2020-07-13: 0</title></circle>
	<circle cx="212.58" cy="368.03" data-y="0.45" data-x="1594684800" r="1" fill="white"><title>2020-07-14: 0</title></circle>
	<circle cx="213.95" cy="368.03" data-y="0.45" data-x="1594771200" r="1" fill="white"><title>2020-07-15: 0</title></circle>
	<circle cx="215.32" cy="368.03" data-y="0.45" data-x="1594857600" r="1" fill="white"><title>2020-07-16: 0</title></circle>
	<circle cx="216.69" cy="368.03" data-y="0.45" data-x="1594944000" r="1" fill="white"><title>2020-07-17: 0</title></circle>
	<circle cx="218.06" cy="368.03" data-y="0.45" data-x="1595030400" r="1" fill="white"><title>2020-07-18: 0</title></circle>
	<circle cx="219.43" cy="368.03" data-y="0.45" data-x="1595116800" r="1" fill="white"><title>2020-07-19: 0</title></circle>
	<circle cx="220.80" cy="372.68" data-y="0.15" data-x="1595203200" r="1" fill="white"><title>2020-07-20: 0</title></circle>
	<circle cx="222.17" cy="375.00" data-y="0.00" data-x="1595289600" r="1" fill="white"><title>2020-07-21: 0</title></circle>
	<circle cx="223.54" cy="375.00" data-y="0.00" data-x="1595376000" r="1" fill="white"><title>2020-07-22: 0</title></circle>
	<circle cx="224.91" cy="375.00" data-y="0.00" data-x="1595462400" r="1" fill="white"><title>2020-07-23: 0</title></circle>
	<circle cx="226.28" cy="375.00" data-y="0.00" data-x="1595548800" r="1" fill="white"><title>2020-07-24: 0</title></circle>
	<circle cx="227.65" cy="375.00" data-y="0.00" data-x="1595635200" r="1" fill="white"><title>2020-07-25: 0</title></circle>
	<circle cx="229.02" cy="370.35" data-y="0.30" data-x="1595721600" r="1" fill="white"><title>2020-07-26: 0</title></circle>
	<circle cx="230.38" cy="370.35" data-y="0.30" data-x="1595808000" r="1" fill="white"><title>2020-07-27: 0</title></circle>
	<circle cx="231.75" cy="370.35" data-y="0.30" data-x="1595894400" r="1" fill="white"><title>2020-07-28: 0</title></circle>
	<circle cx="233.12" cy="368.03" data-y="0.45" data-x="1595980800" r="1" fill="white"><title>2020-07-29: 0</title></circle>
	<circle cx="234.49" cy="368.03" data-y="0.45" data-x="1596067200" r="1" fill="white"><title>2020-07-30: 0</title></circle>
	<circle cx="235.86" cy="368.03" data-y="0.45" data-x="1596153600" r="1" fill="white"><title>2020-07-31: 0</title></circle>
	<circle cx="237.23" cy="368.03" data-y="0.45" data-x="1596240000" r="1" fill="white"><title>2020-08-01: 0</title></circle>
	<circle cx="238.60" cy="372.68" data-y="0.15" data-x="1596326400" r="1" fill="white"><title>2020-08-02: 0</title></circle>
	<circle cx="239.97" cy="372.68" data-y="0.15" data-x="1596412800" r="1" fill="white"><title>2020-08-03: 0</title></circle>
	<circle cx="241.34" cy="372.68" data-y="0.15" data-x="1596499200" r="1" fill="white"><title>2020-08-04: 0</title></circle>
	<circle cx="242.71" cy="375.00" data-y="0.00" data-x="1596585600" r="1" fill="white"><title>2020-08-05: 0</title></circle>
	<circle cx="244.08" cy="372.68" data-y="0.15" data-x="1596672000" r="1" fill="white"><title>2020-08-06: 0</title></circle>
	<circle cx="245.45" cy="368.03" data-y="0.45" data-x="1596758400" r="1" fill="white"><title>2020-08-07: 0</title></circle>
	<circle cx="246.82" cy="368.03" data-y="0.45" data-x="1596844800" r="1" fill="white"><title>2020-08-08: 0</title></circle>
	<circle cx="248.18" cy="365.70" data-y="0.60" data-x="1596931200" r="1" fill="white"><title>2020-08-09: 1</title></circle>
	<circle cx="249.55" cy="361.05" data-y="0.90" data-x="1597017600" r="1" fill="white"><title>2020-08-10: 1</title></circle>
	<circle cx="250.92" cy="361.05" data-y="0.90" data-x="1597104000" r="1" fill="white"><title>2020-08-11: 1</title></circle>
	<circle cx="252.29" cy="361.05" data-y="0.90" data-x="1597190400" r="1" fill="white"><title>2020-08-12: 1</title></circle>
	<circle cx="253.66" cy="361.05" data-y="0.90" data-x="1597276800" r="1" fill="white"><title>2020-08-13: 1</title></circle>
	<circle cx="255.03" cy="363.38" data-y="0.75" data-x="1597363200" r="1" fill="white"><title>2020-08-14: 1</title></circle>
	<circle cx="256.40" cy="361.05" data-y="0.90" data-x="1597449600" r="1" fill="white"><title>2020-08-15: 1</title></circle>
	<circle cx="257.77" cy="361.05" data-y="0.90" data-x="1597536000" r="1" fill="white"><title>2020-08-16: 1</title></circle>
	<circle cx="259.14" cy="365.70" data-y="0.60" data-x="1597622400" r="1" fill="white"><title>2020-08-17: 1</title></circle>
	<circle cx="260.51" cy="365.70" data-y="0.60" data-x="1597708800" r="1" fill="white"><title>2020-08-18: 1</title></circle>
	<circle cx="261.88" cy="363.38" data-y="0.75" data-x="1597795200" r="1" fill="white"><title>2020-08-19: 1</title></circle>
	<circle cx="263.25" cy="365.70" data-y="0.60" data-x="1597881600" r="1" fill="white"><title>2020-08-20: 1</title></circle>
	<circle cx="264.62" cy="365.70" data-y="0.60" data-x="1597968000" r="1" fill="white"><title>2020-08-21: 1</title></circle>
	<circle cx="265.98" cy="365.70" data-y="0.60" data-x="1598054400" r="1" fill="white"><title>2020-08-22: 1</title></circle>
	<circle cx="267.35" cy="368.03" data-y="0.45" data-x="1598140800" r="1" fill="white"><title>2020-08-23: 0</title></circle>
	<circle cx="268.72" cy="368.03" data-y="0.45" data-x="1598227200" r="1" fill="white"><title>2020-08-24: 0</title></circle>
	<circle cx="270.09" cy="368.03" data-y="0.45" data-x="1598313600" r="1" fill="white"><title>2020-08-25: 0</title></circle>
	<circle cx="271.46" cy="370.35" data-y="0.30" data-x="1598400000" r="1" fill="white"><title>2020-08-26: 0</title></circle>
	<circle cx="272.83" cy="370.35" data-y="0.30" data-x="1598486400" r="1" fill="white"><title>2020-08-27: 0</title></circle>
	<circle cx="274.20" cy="368.03" data-y="0.45" data-x="1598572800" r="1" fill="white"><title>2020-08-28: 0</title></circle>
	<circle cx="275.57" cy="361.05" data-y="0.90" data-x="1598659200" r="1" fill="white"><title>2020-08-29: 1</title></circle>
	<circle cx="276.94" cy="361.05" data-y="0.90" data-x="1598745600" r="1" fill="white"><title>2020-08-30: 1</title></circle>
	<circle cx="278.31" cy="358.73" data-y="1.05" data-x="1598832000" r="1" fill="white"><title>2020-08-31: 1</title></circle>
	<circle cx="279.68" cy="358.73" data-y="1.05" data-x="1598918400" r="1" fill="white"><title>2020-09-01: 1</title></circle>
	<circle cx="281.05" cy="358.73" data-y="1.05" data-x="1599004800" r="1" fill="white"><title>2020-09-02: 1</title></circle>
	<circle cx="282.42" cy="356.40" data-y="1.20" data-x="1599091200" r="1" fill="white"><title>2020-09-03: 1</title></circle>
	<circle cx="283.78" cy="361.05" data-y="0.90" data-x="1599177600" r="1" fill="white"><title>2020-09-04: 1</title></circle>
	<circle cx="285.15" cy="365.70" data-y="0.60" data-x="1599264000" r="1" fill="white"><title>2020-09-05: 1</title></circle>
	<circle cx="286.52" cy="365.70" data-y="0.60" data-x="1599350400" r="1" fill="white"><title>2020-09-06: 1</title></circle>
	<circle cx="287.89" cy="365.70" data-y="0.60" data-x="1599436800" r="1" fill="white"><title>2020-09-07: 1</title></circle>
	<circle cx="289.26" cy="356.40" data-y="1.20" data-x="1599523200" r="1" fill="white"><title>2020-09-08: 1</title></circle>
	<circle cx="290.63" cy="349.43" data-y="1.65" data-x="1599609600" r="1" fill="white"><title>2020-09-09: 2</title></circle>
	<circle cx="292.00" cy="351.75" data-y="1.50" data-x="1599696000" r="1" fill="white"><title>2020-09-10: 1</title></circle>
	<circle cx="293.37" cy="351.75" data-y="1.50" data-x="1599782400" r="1" fill="white"><title>2020-09-11: 1</title></circle>
	<circle cx="294.74" cy="356.40" data-y="1.20" data-x="1599868800" r="1" fill="white"><title>2020-09-12: 1</title></circle>
	<circle cx="296.11" cy="351.75" data-y="1.50" data-x="1599955200" r="1" fill="white"><title>2020-09-13: 1</title></circle>
	<circle cx="297.48" cy="351.75" data-y="1.50" data-x="1600041600" r="1" fill="white"><title>2020-09-14: 1</title></circle>
	<circle cx="298.85" cy="361.05" data-y="0.90" data-x="1600128000" r="1" fill="white"><title>2020-09-15: 1</title></circle>
	<circle cx="300.22" cy="365.70" data-y="0.60" data-x="1600214400" r="1" fill="white"><title>2020-09-16: 1</title></circle>
	<circle cx="301.58" cy="363.38" data-y="0.75" data-x="1600300800" r="1" fill="white"><title>2020-09-17: 1</title></circle>
	<circle cx="302.95" cy="361.05" data-y="0.90" data-x="1600387200" r="1" fill="white"><title>2020-09-18: 1</title></circle>
	<circle cx="304.32" cy="358.73" data-y="1.05" data-x="1600473600" r="1" fill="white"><title>2020-09-19: 1</title></circle>
	<circle cx="305.69" cy="361.05" data-y="0.90" data-x="1600560000" r="1" fill="white"><title>2020-09-20: 1</title></circle>
	<circle cx="307.06" cy="361.05" data-y="0.90" data-x="1600646400" r="1" fill="white"><title>2020-09-21: 1</title></circle>
	<circle cx="308.43" cy="361.05" data-y="0.90" data-x="1600732800" r="1" fill="white"><title>2020-09-22: 1</title></circle>
	<circle cx="309.80" cy="363.38" data-y="0.75" data-x="1600819200" r="1" fill="white"><title>2020-09-23: 1</title></circle>
	<circle cx="311.17" cy="363.38" data-y="0.75" data-x="1600905600" r="1" fill="white"><title>2020-09-24: 1</title></circle>
	<circle cx="312.54" cy="361.05" data-y="0.90" data-x="1600992000" r="1" fill="white"><title>2020-09-25: 1</title></circle>
	<circle cx="313.91" cy="358.73" data-y="1.05" data-x="1601078400" r="1" fill="white"><title>2020-09-26: 1</title></circle>
	<circle cx="315.28" cy="361.05" data-y="0.90" data-x="1601164800" r="1" fill="white"><title>2020-09-27: 1</title></circle>
	<circle cx="316.65" cy="363.38" data-y="0.75" data-x="1601251200" r="1" fill="white"><title>2020-09-28: 1</title></circle>
	<circle cx="318.02" cy="361.05" data-y="0.90" data-x="1601337600" r="1" fill="white"><title>2020-09-29: 1</title></circle>
	<circle cx="319.38" cy="361.05" data-y="0.90" data-x="1601424000" r="1" fill="white"><title>2020-09-30: 1</title></circle>
	<circle cx="320.75" cy="358.73" data-y="1.05" data-x="1601510400" r="1" fill="white"><title>2020-10-01: 1</title></circle>
	<circle cx="322.12" cy="358.73" data-y="1.05" data-x="1601596800" r="1" fill="white"><title>2020-10-02: 1</title></circle>
	<circle cx="323.49" cy="358.73" data-y="1.05" data-x="1601683200" r="1" fill="white"><title>2020-10-03: 1</title></circle>
	<circle cx="324.86" cy="351.75" data-y="1.50" data-x="1601769600" r="1" fill="white"><title>2020-10-04: 1</title></circle>
	<circle cx="326.23" cy="337.80" data-y="2.39" data-x="1601856000" r="1" fill="white"><title>2020-10-05: 2</title></circle>
	<circle cx="327.60" cy="335.48" data-y="2.54" data-x="1601942400" r="1" fill="white"><title>2020-10-06: 3</title></circle>
	<circle cx="328.97" cy="330.83" data-y="2.84" data-x="1602028800" r="1" fill="white"><title>2020-10-07: 3</title></circle>
	<circle cx="330.34" cy="333.15" data-y="2.69" data-x="1602115200" r="1" fill="white"><title>2020-10-08: 3</title></circle>
	<circle cx="331.71" cy="333.15" data-y="2.69" data-x="1602201600" r="1" fill="white"><title>2020-10-09: 3</title></circle>
	<circle cx="333.08" cy="333.15" data-y="2.69" data-x="1602288000" r="1" fill="white"><title>2020-10-10: 3</title></circle>
	<circle cx="334.45" cy="328.50" data-y="2.99" data-x="1602374400" r="1" fill="white"><title>2020-10-11: 3</title></circle>
	<circle cx="335.82" cy="340.13" data-y="2.24" data-x="1602460800" r="1" fill="white"><title>2020-10-12: 2</title></circle>
	<circle cx="337.18" cy="337.80" data-y="2.39" data-x="1602547200" r="1" fill="white"><title>2020-10-13: 2</title></circle>
	<circle cx="338.55" cy="337.80" data-y="2.39" data-x="1602633600" r="1" fill="white"><title>2020-10-14: 2</title></circle>
	<circle cx="339.92" cy="340.13" data-y="2.24" data-x="1602720000" r="1" fill="white"><title>2020-10-15: 2</title></circle>
	<circle cx="341.29" cy="337.80" data-y="2.39" data-x="1602806400" r="1" fill="white"><title>2020-10-16: 2</title></circle>
	<circle cx="342.66" cy="330.83" data-y="2.84" data-x="1602892800" r="1" fill="white"><title>2020-10-17: 3</title></circle>
	<circle cx="344.03" cy="335.48" data-y="2.54" data-x="1602979200" r="1" fill="white"><title>2020-10-18: 3</title></circle>
	<circle cx="345.40" cy="335.48" data-y="2.54" data-x="1603065600" r="1" fill="white"><title>2020-10-19: 3</title></circle>
	<circle cx="346.77" cy="333.15" data-y="2.69" data-x="1603152000" r="1" fill="white"><title>2020-10-20: 3</title></circle>
	<circle cx="348.14" cy="333.15" data-y="2.69" data-x="1603238400" r="1" fill="white"><title>2020-10-21: 3</title></circle>
	<circle cx="349.51" cy="333.15" data-y="2.69" data-x="1603324800" r="1" fill="white"><title>2020-10-22: 3</title></circle>
	<circle cx="350.88" cy="337.80" data-y="2.39" data-x="1603411200" r="1" fill="white"><title>2020-10-23: 2</title></circle>
	<circle cx="352.25" cy="344.78" data-y="1.94" data-x="1603497600" r="1" fill="white"><title>2020-10-24: 2</title></circle>
	<circle cx="353.62" cy="344.78" data-y="1.94" data-x="1603584000" r="1" fill="white"><title>2020-10-25: 2</title></circle>
	<circle cx="354.98" cy="342.45" data-y="2.09" data-x="1603670400" r="1" fill="white"><title>2020-10-26: 2</title></circle>
	<circle cx="356.35" cy="349.43" data-y="1.65" data-x="1603756800" r="1" fill="white"><title>2020-10-27: 2</title></circle>
	<circle cx="357.72" cy="354.08" data-y="1.35" data-x="1603843200" r="1" fill="white"><title>2020-10-28: 1</title></circle>
	<circle cx="359.09" cy="354.08" data-y="1.35" data-x="1603929600" r="1" fill="white"><title>2020-10-29: 1</title></circle>
	<circle cx="360.46" cy="351.75" data-y="1.50" data-x="1604016000" r="1" fill="white"><title>2020-10-30: 1</title></circle>
	<circle cx="361.83" cy="337.80" data-y="2.39" data-x="1604102400" r="1" fill="white"><title>2020-10-31: 2</title></circle>
	<circle cx="363.20" cy="342.45" data-y="2.09" data-x="1604188800" r="1" fill="white"><title>2020-11-01: 2</title></circle>
	<circle cx="364.57" cy="342.45" data-y="2.09" data-x="1604275200" r="1" fill="white"><title>2020-11-02: 2</title></circle>
	<circle cx="365.94" cy="333.15" data-y="2.69" data-x="1604361600" r="1" fill="white"><title>2020-11-03: 3</title></circle>
	<circle cx="367.31" cy="323.85" data-y="3.29" data-x="1604448000" r="1" fill="white"><title>2020-11-04: 3</title></circle>
	<circle cx="368.68" cy="314.55" data-y="3.89" data-x="1604534400" r="1" fill="white"><title>2020-11-05: 4</title></circle>
	<circle cx="370.05" cy="316.88" data-y="3.74" data-x="1604620800" r="1" fill="white"><title>2020-11-06: 4</title></circle>
	<circle cx="371.42" cy="314.55" data-y="3.89" data-x="1604707200" r="1" fill="white"><title>2020-11-07: 4</title></circle>
	<circle cx="372.78" cy="314.55" data-y="3.89" data-x="1604793600" r="1" fill="white"><title>2020-11-08: 4</title></circle>
	<circle cx="374.15" cy="295.96" data-y="5.08" data-x="1604880000" r="1" fill="white"><title>2020-11-09: 5</title></circle>
	<circle cx="375.52" cy="300.61" data-y="4.79" data-x="1604966400" r="1" fill="white"><title>2020-11-10: 5</title></circle>
	<circle cx="376.89" cy="305.25" data-y="4.49" data-x="1605052800" r="1" fill="white"><title>2020-11-11: 4</title></circle>
	<circle cx="378.26" cy="314.55" data-y="3.89" data-x="1605139200" r="1" fill="white"><title>2020-11-12: 4</title></circle>
	<circle cx="379.63" cy="305.25" data-y="4.49" data-x="1605225600" r="1" fill="white"><title>2020-11-13: 4</title></circle>
	<circle cx="381.00" cy="314.55" data-y="3.89" data-x="1605312000" r="1" fill="white"><title>2020-11-14: 4</title></circle>
	<circle cx="382.37" cy="312.23" data-y="4.04" data-x="1605398400" r="1" fill="white"><title>2020-11-15: 4</title></circle>
	<circle cx="383.74" cy="330.83" data-y="2.84" data-x="1605484800" r="1" fill="white"><title>2020-11-16: 3</title></circle>
	<circle cx="385.11" cy="337.80" data-y="2.39" data-x="1605571200" r="1" fill="white"><title>2020-11-17: 2</title></circle>
	<circle cx="386.48" cy="340.13" data-y="2.24" data-x="1605657600" r="1" fill="white"><title>2020-11-18: 2</title></circle>
	<circle cx="387.85" cy="340.13" data-y="2.24" data-x="1605744000" r="1" fill="white"><title>2020-11-19: 2</title></circle>
	<circle cx="389.22" cy="347.10" data-y="1.79" data-x="1605830400" r="1" fill="white"><title>2020-11-20: 2</title></circle>
	<circle cx="390.58" cy="356.40" data-y="1.20" data-x="1605916800" r="1" fill="white"><title>2020-11-21: 1</title></circle>
	<circle cx="391.95" cy="358.73" data-y="1.05" data-x="1606003200" r="1" fill="white"><title>2020-11-22: 1</title></circle>
	<circle cx="393.32" cy="361.05" data-y="0.90" data-x="1606089600" r="1" fill="white"><title>2020-11-23: 1</title></circle>
	<circle cx="394.69" cy="361.05" data-y="0.90" data-x="1606176000" r="1" fill="white"><title>2020-11-24: 1</title></circle>
	<circle cx="396.06" cy="363.38" data-y="0.75" data-x="1606262400" r="1" fill="white"><title>2020-11-25: 1</title></circle>
	<circle cx="397.43" cy="363.38" data-y="0.75" data-x="1606348800" r="1" fill="white"><title>2020-11-26: 1</title></circle>
	<circle cx="398.80" cy="361.05" data-y="0.90" data-x="1606435200" r="1" fill="white"><title>2020-11-27: 1</title></circle>
	<circle cx="400.17" cy="354.08" data-y="1.35" data-x="1606521600" r="1" fill="white"><title>2020-11-28: 1</title></circle>
	<circle cx="401.54" cy="356.40" data-y="1.20" data-x="1606608000" r="1" fill="white"><title>2020-11-29: 1</title></circle>
	<circle cx="402.91" cy="358.73" data-y="1.05" data-x="1606694400" r="1" fill="white"><title>2020-11-30: 1</title></circle>
	<circle cx="404.28" cy="354.08" data-y="1.35" data-x="1606780800" r="1" fill="white"><title>2020-12-01: 1</title></circle>
	<circle cx="405.65" cy="347.10" data-y="1.79" data-x="1606867200" r="1" fill="white"><title>2020-12-02: 2</title></circle>
	<circle cx="407.02" cy="342.45" data-y="2.09" data-x="1606953600" r="1" fill="white"><title>2020-12-03: 2</title></circle>
	<circle cx="408.38" cy="342.45" data-y="2.09" data-x="1607040000" r="1" fill="white"><title>2020-12-04: 2</title></circle>
	<circle cx="409.75" cy="344.78" data-y="1.94" data-x="1607126400" r="1" fill="white"><title>2020-12-05: 2</title></circle>
	<circle cx="411.12" cy="335.48" data-y="2.54" data-x="1607212800" r="1" fill="white"><title>2020-12-06: 3</title></circle>
	<circle cx="412.49" cy="328.50" data-y="2.99" data-x="1607299200" r="1" fill="white"><title>2020-12-07: 3</title></circle>
	<circle cx="413.86" cy="328.50" data-y="2.99" data-x="1607385600" r="1" fill="white"><title>2020-12-08: 3</title></circle>
	<circle cx="415.23" cy="326.18" data-y="3.14" data-x="1607472000" r="1" fill="white"><title>2020-12-09: 3</title></circle>
	<circle cx="416.60" cy="328.50" data-y="2.99" data-x="1607558400" r="1" fill="white"><title>2020-12-10: 3</title></circle>
	<circle cx="417.97" cy="326.18" data-y="3.14" data-x="1607644800" r="1" fill="white"><title>2020-12-11: 3</title></circle>
	<circle cx="419.34" cy="326.18" data-y="3.14" data-x="1607731200" r="1" fill="white"><title>2020-12-12: 3</title></circle>
	<circle cx="420.71" cy="326.18" data-y="3.14" data-x="1607817600" r="1" fill="white"><title>2020-12-13: 3</title></circle>
	<circle cx="422.08" cy="328.50" data-y="2.99" data-x="1607904000" r="1" fill="white"><title>2020-12-14: 3</title></circle>
	<circle cx="423.45" cy="321.53" data-y="3.44" data-x="1607990400" r="1" fill="white"><title>2020-12-15: 3</title></circle>
	<circle cx="424.82" cy="314.55" data-y="3.89" data-x="1608076800" r="1" fill="white"><title>2020-12-16: 4</title></circle>
	<circle cx="426.18" cy="300.61" data-y="4.79" data-x="1608163200" r="1" fill="white"><title>2020-12-17: 5</title></circle>
	<circle cx="427.55" cy="272.71" data-y="6.58" data-x="1608249600" r="1" fill="white"><title>2020-12-18: 7</title></circle>
	<circle cx="428.92" cy="265.73" data-y="7.03" data-x="1608336000" r="1" fill="white"><title>2020-12-19: 7</title></circle>
	<circle cx="430.29" cy="251.78" data-y="7.93" data-x="1608422400" r="1" fill="white"><title>2020-12-20: 8</title></circle>
	<circle cx="431.66" cy="244.81" data-y="8.38" data-x="1608508800" r="1" fill="white"><title>2020-12-21: 8</title></circle>
	<circle cx="433.03" cy="254.11" data-y="7.78" data-x="1608595200" r="1" fill="white"><title>2020-12-22: 8</title></circle>
	<circle cx="434.40" cy="251.78" data-y="7.93" data-x="1608681600" r="1" fill="white"><title>2020-12-23: 8</title></circle>
	<circle cx="435.77" cy="242.48" data-y="8.52" data-x="1608768000" r="1" fill="white"><title>2020-12-24: 9</title></circle>
	<circle cx="437.14" cy="263.41" data-y="7.18" data-x="1608854400" r="1" fill="white"><title>2020-12-25: 7</title></circle>
	<circle cx="438.51" cy="200.64" data-y="11.22" data-x="1608940800" r="1" fill="white"><title>2020-12-26: 11</title></circle>
	<circle cx="439.88" cy="163.44" data-y="13.61" data-x="1609027200" r="1" fill="white"><title>2020-12-27: 14</title></circle>
	<circle cx="441.25" cy="123.92" data-y="16.15" data-x="1609113600" r="1" fill="white"><title>2020-12-28: 16</title></circle>
	<circle cx="442.62" cy="107.64" data-y="17.20" data-x="1609200000" r="1" fill="white"><title>2020-12-29: 17</title></circle>
	<circle cx="443.98" cy="100.67" data-y="17.65" data-x="1609286400" r="1" fill="white"><title>2020-12-30: 18</title></circle>
	<circle cx="445.35" cy="96.02" data-y="17.95" data-x="1609372800" r="1" fill="white"><title>2020-12-31: 18</title></circle>
	<circle cx="446.72" cy="51.85" data-y="20.79" data-x="1609459200" r="1" fill="white"><title>2021-01-01: 21</title></circle>
	<circle cx="448.09" cy="54.17" data-y="20.64" data-x="1609545600" r="1" fill="white"><title>2021-01-02: 21</title></circle>
	<circle cx="449.46" cy="63.47" data-y="20.04" data-x="1609632000" r="1" fill="white"><title>2021-01-03: 20</title></circle>
	<circle cx="450.83" cy="54.17" data-y="20.64" data-x="1609718400" r="1" fill="white"><title>2021-01-04: 21</title></circle>
	<circle cx="452.20" cy="10.00" data-y="23.48" data-x="1609804800" r="1" fill="white"><title>2021-01-05: 23</title></circle>
	<circle cx="453.57" cy="12.32" data-y="23.33" data-x="1609891200" r="1" fill="white"><title>2021-01-06: 23</title></circle>
	<circle cx="454.94" cy="30.92" data-y="22.13" data-x="1609977600" r="1" fill="white"><title>2021-01-07: 22</title></circle>
	<circle cx="456.31" cy="65.80" data-y="19.89" data-x="1610064000" r="1" fill="white"><title>2021-01-08: 20</title></circle>
	<circle cx="457.68" cy="96.02" data-y="17.95" data-x="1610150400" r="1" fill="white"><title>2021-01-09: 18</title></circle>
	<circle cx="459.05" cy="126.24" data-y="16.00" data-x="1610236800" r="1" fill="white"><title>2021-01-10: 16</title></circle>
	<circle cx="460.42" cy="130.89" data-y="15.70" data-x="1610323200" r="1" fill="white"><title>2021-01-11: 16</title></circle>
	<circle cx="461.78" cy="165.76" data-y="13.46" data-x="1610409600" r="1" fill="white"><title>2021-01-12: 13</title></circle>
	<circle cx="463.15" cy="172.74" data-y="13.01" data-x="1610496000" r="1" fill="white"><title>2021-01-13: 13</title></circle>
</g>
<g data-series="recent-cases" class="data-series">
	<path d="M 463.15,172.74L 464.52,112.29L 465.89,128.57L 467.26,139.03L 468.63,121.13L 470.00,155.30" id="Recent cases" class="line" stroke-width="1" stroke-linecap="round" stroke-dasharray="4,6" stroke-dashoffset="4"><title>Recent cases</title></path>
	<circle cx="463.15" cy="172.74" data-y="13.01" data-x="1610496000" r="2.5" fill="white"><title>2021-01-13: 13</title></circle>
	<circle cx="464.52" cy="112.29" data-y="16.90" data-x="1610582400" r="2.5" fill="white"><title>2021-01-14: 17</title></circle>
	<circle cx="465.89" cy="128.57" data-y="15.85" data-x="1610668800" r="2.5" fill="white"><title>2021-01-15: 16</title></circle>
	<circle cx="467.26" cy="139.03" data-y="15.18" data-x="1610755200" r="2.5" fill="white"><title>2021-01-16: 15</title></circle>
	<circle cx="468.63" cy="121.13" data-y="16.33" data-x="1610841600" r="2.5" fill="white"><title>2021-01-17: 16</title></circle>
	<circle cx="470.00" cy="155.30" data-y="14.13" data-x="1610928000" r="2.5" fill="white"><title>2021-01-18: 14</title></circle>
</g>
</svg>
