<svg width="480" height="400" viewBox="0 0 480 400" xmlns="http://www.w3.org/2000/svg" style="overflow:display" preserveAspectRatio="xMinYMin meet" overflow="visible">
<defs>
	<style>
	.data-series path.line { fill-opacity: 0; stroke: black; }
	.data-series path.line.dotted { stroke-dasharray: 12 20 }
	.data-series:hover path.line, .data-series.on path.line { stroke-width: 1; }
	.data-series:hover circle, .data-series.on circle { display: inline; }
	.graph-grid { font-family: "Helvetica Neue",Helvetica,Arial,"Lucida Grande",sans-serif; }
	.graph-grid line { stroke: black; stroke-width: 1; stroke-linecap: round; }
	.graph-grid.graph-grid-x text { text-anchor: middle; dominant-baseline: hanging; transform: translateY(10px); }
	.graph-grid.graph-grid-y text { text-anchor: end; dominant-baseline: middle; transform: translateX(-10px); }
	</style>
</defs>
<g class="graph-grid graph-grid-y">
	<line x1="25.00" y1="375.00" x2="470.00" y2="375.00" data-left="25"></line>
	<text x="35" y="375" text-anchor="end">0</text>
	<text x="35" y="288.475533333333" text-anchor="end">10</text>
	<text x="35" y="201.951066666667" text-anchor="end">20</text>
	<text x="35" y="115.4266" text-anchor="end">30</text>
	<text x="35" y="28.9021333333334" text-anchor="end">40</text>
	<text style="text-anchor:middle;dominant-baseline:hanging;font-weight:bold;transform: translateY(192.5px) rotate(-90deg);"></text>
</g>
<g class="graph-grid graph-grid-x">
	<line class="tick" x1="28.03" y1="375.00" x2="28.03" y2="380.00"></line>
	<text x="28.0272108843537" y="375" text-anchor="middle">M</text>
	<line class="tick" x1="74.95" y1="375.00" x2="74.95" y2="380.00"></line>
	<text x="74.9489795918367" y="375" text-anchor="middle">A</text>
	<line class="tick" x1="120.36" y1="375.00" x2="120.36" y2="380.00"></line>
	<text x="120.357142857143" y="375" text-anchor="middle">M</text>
	<line class="tick" x1="167.28" y1="375.00" x2="167.28" y2="380.00"></line>
	<text x="167.278911564626" y="375" text-anchor="middle">J</text>
	<line class="tick" x1="212.69" y1="375.00" x2="212.69" y2="380.00"></line>
	<text x="212.687074829932" y="375" text-anchor="middle">J</text>
	<line class="tick" x1="259.61" y1="375.00" x2="259.61" y2="380.00"></line>
	<text x="259.608843537415" y="375" text-anchor="middle">A</text>
	<line class="tick" x1="306.53" y1="375.00" x2="306.53" y2="380.00"></line>
	<text x="306.530612244898" y="375" text-anchor="middle">S</text>
	<line class="tick" x1="351.94" y1="375.00" x2="351.94" y2="380.00"></line>
	<text x="351.938775510204" y="375" text-anchor="middle">O</text>
	<line class="tick" x1="398.86" y1="375.00" x2="398.86" y2="380.00"></line>
	<text x="398.860544217687" y="375" text-anchor="middle">N</text>
	<line class="tick" x1="444.27" y1="375.00" x2="444.27" y2="380.00"></line>
	<text x="444.268707482993" y="375" text-anchor="middle">D</text>
	<text style="text-anchor:middle;dominant-baseline:hanging;font-weight:bold;transform: translateY(192.5px) rotate(-90deg);"></text>
</g>
<g data-series="widespread" class="data-series">
	<path d="M 25.00,314.43L 470.00,314.43" id="S12000038-level-0" class="line" stroke-width="1" stroke-linecap="round" stroke-dasharray="3,3" fill-opacity="0.3" opacity="0.3"><title>Widespread</title></path>
</g>
<g data-series="substantial" class="data-series">
	<path d="M 25.00,340.39L 470.00,340.39" id="S12000038-level-1" class="line" stroke-width="1" stroke-linecap="round" stroke-dasharray="3,3" fill-opacity="0.3" opacity="0.3"><title>Substantial</title></path>
</g>
<g data-series="moderate" class="data-series">
	<path d="M 25.00,366.35L 470.00,366.35" id="S12000038-level-2" class="line" stroke-width="1" stroke-linecap="round" stroke-dasharray="3,3" fill-opacity="0.3" opacity="0.3"><title>Moderate</title></path>
</g>
<g data-series="new-cases" class="data-series">
	<path d="M 25.00,375.00L 26.51,375.00L 28.03,375.00L 29.54,375.00L 31.05,375.00L 32.57,375.00L 34.08,375.00L 35.60,375.00L 37.11,374.30L 38.62,374.30L 40.14,374.30L 41.65,373.61L 43.16,372.91L 44.68,372.91L 46.19,372.22L 47.70,372.22L 49.22,371.52L 50.73,370.13L 52.24,369.44L 53.76,366.66L 55.27,365.27L 56.79,361.79L 58.30,361.79L 59.81,361.79L 61.33,359.70L 62.84,354.84L 64.35,351.36L 65.87,349.28L 67.38,344.41L 68.89,340.93L 70.41,336.76L 71.92,329.11L 73.44,326.33L 74.95,327.72L 76.46,325.64L 77.98,324.25L 79.49,317.99L 81.00,317.30L 82.52,324.94L 84.03,328.42L 85.54,329.81L 87.06,330.50L 88.57,333.29L 90.09,336.07L 91.60,335.37L 93.11,329.81L 94.63,328.42L 96.14,324.25L 97.65,324.94L 99.17,316.60L 100.68,318.69L 102.19,320.08L 103.71,317.99L 105.22,317.30L 106.73,320.77L 108.25,320.77L 109.76,324.25L 111.28,320.77L 112.79,313.12L 114.30,314.51L 115.82,313.82L 117.33,314.51L 118.84,309.65L 120.36,311.04L 121.87,305.48L 123.38,313.12L 124.90,306.17L 126.41,307.56L 127.93,300.61L 129.44,299.91L 130.95,297.83L 132.47,302.70L 133.98,300.61L 135.49,314.51L 137.01,313.82L 138.52,316.60L 140.03,322.86L 141.55,329.11L 143.06,334.68L 144.57,338.85L 146.09,333.98L 147.60,338.85L 149.12,346.50L 150.63,349.97L 152.14,354.14L 153.66,358.31L 155.17,357.62L 156.68,364.57L 158.20,366.66L 159.71,366.66L 161.22,366.66L 162.74,368.74L 164.25,368.05L 165.77,371.52L 167.28,371.52L 168.79,372.22L 170.31,372.22L 171.82,372.22L 173.33,372.22L 174.85,372.91L 176.36,372.91L 177.87,373.61L 179.39,372.91L 180.90,373.61L 182.41,373.61L 183.93,374.30L 185.44,374.30L 186.96,373.61L 188.47,372.91L 189.98,372.91L 191.50,372.22L 193.01,372.22L 194.52,372.22L 196.04,372.22L 197.55,372.91L 199.06,373.61L 200.58,374.30L 202.09,375.00L 203.61,375.00L 205.12,375.00L 206.63,375.00L 208.15,375.00L 209.66,375.00L 211.17,375.00L 212.69,375.00L 214.20,375.00L 215.71,374.30L 217.23,373.61L 218.74,372.91L 220.26,372.91L 221.77,372.91L 223.28,372.91L 224.80,372.91L 226.31,372.22L 227.82,372.91L 229.34,373.61L 230.85,372.22L 232.36,370.83L 233.88,370.83L 235.39,370.83L 236.90,371.52L 238.42,371.52L 239.93,370.83L 241.45,372.22L 242.96,373.61L 244.47,373.61L 245.99,373.61L 247.50,372.91L 249.01,372.22L 250.53,372.91L 252.04,372.91L 253.55,372.91L 255.07,371.52L 256.58,370.83L 258.10,367.35L 259.61,368.05L 261.12,368.05L 262.64,368.05L 264.15,367.35L 265.66,368.74L 267.18,369.44L 268.69,374.30L 270.20,373.61L 271.72,373.61L 273.23,373.61L 274.74,374.30L 276.26,373.61L 277.77,372.91L 279.29,372.22L 280.80,368.05L 282.31,366.66L 283.83,365.27L 285.34,365.27L 286.85,365.96L 288.37,365.96L 289.88,364.57L 291.39,368.74L 292.91,369.44L 294.42,370.13L 295.94,363.18L 297.45,358.31L 298.96,354.84L 300.48,351.36L 301.99,343.71L 303.50,336.76L 305.02,330.50L 306.53,329.81L 308.04,329.11L 309.56,329.11L 311.07,327.03L 312.59,329.11L 314.10,327.03L 315.61,325.64L 317.13,326.33L 318.64,324.94L 320.15,322.86L 321.67,325.64L 323.18,326.33L 324.69,327.72L 326.21,331.90L 327.72,331.20L 329.23,333.29L 330.75,328.42L 332.26,323.55L 333.78,315.21L 335.29,310.34L 336.80,302.00L 338.32,303.39L 339.83,297.13L 341.34,302.70L 342.86,299.91L 344.37,300.61L 345.88,298.52L 347.40,292.96L 348.91,275.58L 350.43,270.71L 351.94,249.16L 353.45,218.57L 354.97,183.81L 356.48,150.44L 357.99,122.63L 359.51,105.25L 361.02,89.95L 362.53,96.90L 364.05,96.21L 365.56,91.34L 367.07,87.17L 368.59,76.05L 370.10,64.92L 371.62,69.79L 373.13,57.97L 374.64,55.19L 376.16,62.14L 377.67,69.79L 379.18,85.09L 380.70,93.43L 382.21,96.90L 383.72,94.82L 385.24,94.12L 386.75,95.51L 388.27,89.26L 389.78,89.95L 391.29,103.16L 392.81,101.77L 394.32,88.56L 395.83,87.87L 397.35,78.13L 398.86,76.05L 400.37,53.10L 401.89,17.65L 403.40,10.00L 404.91,31.55L 406.43,21.82L 407.94,14.17L 409.46,19.04L 410.97,47.54L 412.48,69.10L 414.00,67.01L 415.51,56.58L 417.02,65.62L 418.54,34.33L 420.05,37.11L 421.56,40.59L 423.08,50.32L 424.59,46.85L 426.11,53.80L 427.62,46.85L 429.13,96.21L 430.65,103.86L 432.16,98.99L 433.67,101.08L 435.19,117.07L 436.70,120.54L 438.21,136.53L 439.73,149.05L 441.24,160.17L 442.76,167.12L 444.27,171.30L 445.78,172.69L 447.30,185.20L 448.81,198.41L 450.32,206.06L 451.84,199.80L 453.35,213.70L 454.86,210.92L 456.38,215.10L 457.89,213.01L 459.40,213.01L 460.92,215.79L 462.43,224.13" id="New cases" class="line" stroke-width="1" stroke-linecap="round"><title>New cases</title></path>
	<circle cx="25.00" cy="375.00" data-y="0.00" data-x="1582848000" r="1" fill="white"><title>2020-02-28: 0</title></circle>
	<circle cx="26.51" cy="375.00" data-y="0.00" data-x="1582934400" r="1" fill="white"><title>2020-02-29: 0</title></circle>
	<circle cx="28.03" cy="375.00" data-y="0.00" data-x="1583020800" r="1" fill="white"><title>2020-03-01: 0</title></circle>
	<circle cx="29.54" cy="375.00" data-y="0.00" data-x="1583107200" r="1" fill="white"><title>2020-03-02: 0</title></circle>
	<circle cx="31.05" cy="375.00" data-y="0.00" data-x="1583193600" r="1" fill="white"><title>2020-03-03: 0</title></circle>
	<circle cx="32.57" cy="375.00" data-y="0.00" data-x="1583280000" r="1" fill="white"><title>2020-03-04: 0</title></circle>
	<circle cx="34.08" cy="375.00" data-y="0.00" data-x="1583366400" r="1" fill="white"><title>2020-03-05: 0</title></circle>
	<circle cx="35.60" cy="375.00" data-y="0.00" data-x="1583452800" r="1" fill="white"><title>2020-03-06: 0</title></circle>
	<circle cx="37.11" cy="374.30" data-y="0.08" data-x="1583539200" r="1" fill="white"><title>2020-03-07: 0</title></circle>
	<circle cx="38.62" cy="374.30" data-y="0.08" data-x="1583625600" r="1" fill="white"><title>2020-03-08: 0</title></circle>
	<circle cx="40.14" cy="374.30" data-y="0.08" data-x="1583712000" r="1" fill="white"><title>2020-03-09: 0</title></circle>
	<circle cx="41.65" cy="373.61" data-y="0.16" data-x="1583798400" r="1" fill="white"><title>2020-03-10: 0</title></circle>
	<circle cx="43.16" cy="372.91" data-y="0.24" data-x="1583884800" r="1" fill="white"><title>2020-03-11: 0</title></circle>
	<circle cx="44.68" cy="372.91" data-y="0.24" data-x="1583971200" r="1" fill="white"><title>2020-03-12: 0</title></circle>
	<circle cx="46.19" cy="372.22" data-y="0.32" data-x="1584057600" r="1" fill="white"><title>2020-03-13: 0</title></circle>
	<circle cx="47.70" cy="372.22" data-y="0.32" data-x="1584144000" r="1" fill="white"><title>2020-03-14: 0</title></circle>
	<circle cx="49.22" cy="371.52" data-y="0.40" data-x="1584230400" r="1" fill="white"><title>2020-03-15: 0</title></circle>
	<circle cx="50.73" cy="370.13" data-y="0.56" data-x="1584316800" r="1" fill="white"><title>2020-03-16: 1</title></circle>
	<circle cx="52.24" cy="369.44" data-y="0.64" data-x="1584403200" r="1" fill="white"><title>2020-03-17: 1</title></circle>
	<circle cx="53.76" cy="366.66" data-y="0.96" data-x="1584489600" r="1" fill="white"><title>2020-03-18: 1</title></circle>
	<circle cx="55.27" cy="365.27" data-y="1.12" data-x="1584576000" r="1" fill="white"><title>2020-03-19: 1</title></circle>
	<circle cx="56.79" cy="361.79" data-y="1.53" data-x="1584662400" r="1" fill="white"><title>2020-03-20: 2</title></circle>
	<circle cx="58.30" cy="361.79" data-y="1.53" data-x="1584748800" r="1" fill="white"><title>2020-03-21: 2</title></circle>
	<circle cx="59.81" cy="361.79" data-y="1.53" data-x="1584835200" r="1" fill="white"><title>2020-03-22: 2</title></circle>
	<circle cx="61.33" cy="359.70" data-y="1.77" data-x="1584921600" r="1" fill="white"><title>2020-03-23: 2</title></circle>
	<circle cx="62.84" cy="354.84" data-y="2.33" data-x="1585008000" r="1" fill="white"><title>2020-03-24: 2</title></circle>
	<circle cx="64.35" cy="351.36" data-y="2.73" data-x="1585094400" r="1" fill="white"><title>2020-03-25: 3</title></circle>
	<circle cx="65.87" cy="349.28" data-y="2.97" data-x="1585180800" r="1" fill="white"><title>2020-03-26: 3</title></circle>
	<circle cx="67.38" cy="344.41" data-y="3.54" data-x="1585267200" r="1" fill="white"><title>2020-03-27: 4</title></circle>
	<circle cx="68.89" cy="340.93" data-y="3.94" data-x="1585353600" r="1" fill="white"><title>2020-03-28: 4</title></circle>
	<circle cx="70.41" cy="336.76" data-y="4.42" data-x="1585440000" r="1" fill="white"><title>2020-03-29: 4</title></circle>
	<circle cx="71.92" cy="329.11" data-y="5.30" data-x="1585526400" r="1" fill="white"><title>2020-03-30: 5</title></circle>
	<circle cx="73.44" cy="326.33" data-y="5.62" data-x="1585612800" r="1" fill="white"><title>2020-03-31: 6</title></circle>
	<circle cx="74.95" cy="327.72" data-y="5.46" data-x="1585699200" r="1" fill="white"><title>2020-04-01: 5</title></circle>
	<circle cx="76.46" cy="325.64" data-y="5.70" data-x="1585785600" r="1" fill="white"><title>2020-04-02: 6</title></circle>
	<circle cx="77.98" cy="324.25" data-y="5.87" data-x="1585872000" r="1" fill="white"><title>2020-04-03: 6</title></circle>
	<circle cx="79.49" cy="317.99" data-y="6.59" data-x="1585958400" r="1" fill="white"><title>2020-04-04: 7</title></circle>
	<circle cx="81.00" cy="317.30" data-y="6.67" data-x="1586044800" r="1" fill="white"><title>2020-04-05: 7</title></circle>
	<circle cx="82.52" cy="324.94" data-y="5.79" data-x="1586131200" r="1" fill="white"><title>2020-04-06: 6</title></circle>
	<circle cx="84.03" cy="328.42" data-y="5.38" data-x="1586217600" r="1" fill="white"><title>2020-04-07: 5</title></circle>
	<circle cx="85.54" cy="329.81" data-y="5.22" data-x="1586304000" r="1" fill="white"><title>2020-04-08: 5</title></circle>
	<circle cx="87.06" cy="330.50" data-y="5.14" data-x="1586390400" r="1" fill="white"><title>2020-04-09: 5</title></circle>
	<circle cx="88.57" cy="333.29" data-y="4.82" data-x="1586476800" r="1" fill="white"><title>2020-04-10: 5</title></circle>
	<circle cx="90.09" cy="336.07" data-y="4.50" data-x="1586563200" r="1" fill="white"><title>2020-04-11: 4</title></circle>
	<circle cx="91.60" cy="335.37" data-y="4.58" data-x="1586649600" r="1" fill="white"><title>2020-04-12: 5</title></circle>
	<circle cx="93.11" cy="329.81" data-y="5.22" data-x="1586736000" r="1" fill="white"><title>2020-04-13: 5</title></circle>
	<circle cx="94.63" cy="328.42" data-y="5.38" data-x="1586822400" r="1" fill="white"><title>2020-04-14: 5</title></circle>
	<circle cx="96.14" cy="324.25" data-y="5.87" data-x="1586908800" r="1" fill="white"><title>2020-04-15: 6</title></circle>
	<circle cx="97.65" cy="324.94" data-y="5.79" data-x="1586995200" r="1" fill="white"><title>2020-04-16: 6</title></circle>
	<circle cx="99.17" cy="316.60" data-y="6.75" data-x="1587081600" r="1" fill="white"><title>2020-04-17: 7</title></circle>
	<circle cx="100.68" cy="318.69" data-y="6.51" data-x="1587168000" r="1" fill="white"><title>2020-04-18: 7</title></circle>
	<circle cx="102.19" cy="320.08" data-y="6.35" data-x="1587254400" r="1" fill="white"><title>2020-04-19: 6</title></circle>
	<circle cx="103.71" cy="317.99" data-y="6.59" data-x="1587340800" r="1" fill="white"><title>2020-04-20: 7</title></circle>
	<circle cx="105.22" cy="317.30" data-y="6.67" data-x="1587427200" r="1" fill="white"><title>2020-04-21: 7</title></circle>
	<circle cx="106.73" cy="320.77" data-y="6.27" data-x="1587513600" r="1" fill="white"><title>2020-04-22: 6</title></circle>
	<circle cx="108.25" cy="320.77" data-y="6.27" data-x="1587600000" r="1" fill="white"><title>2020-04-23: 6</title></circle>
	<circle cx="109.76" cy="324.25" data-y="5.87" data-x="1587686400" r="1" fill="white"><title>2020-04-24: 6</title></circle>
	<circle cx="111.28" cy="320.77" data-y="6.27" data-x="1587772800" r="1" fill="white"><title>2020-04-25: 6</title></circle>
	<circle cx="112.79" cy="313.12" data-y="7.15" data-x="1587859200" r="1" fill="white"><title>2020-04-26: 7</title></circle>
	<circle cx="114.30" cy="314.51" data-y="6.99" data-x="1587945600" r="1" fill="white"><title>2020-04-27: 7</title></circle>
	<circle cx="115.82" cy="313.82" data-y="7.07" data-x="1588032000" r="1" fill="white"><title>2020-04-28: 7</title></circle>
	<circle cx="117.33" cy="314.51" data-y="6.99" data-x="1588118400" r="1" fill="white"><title>2020-04-29: 7</title></circle>
	<circle cx="118.84" cy="309.65" data-y="7.55" data-x="1588204800" r="1" fill="white"><title>2020-04-30: 8</title></circle>
	<circle cx="120.36" cy="311.04" data-y="7.39" data-x="1588291200" r="1" fill="white"><title>2020-05-01: 7</title></circle>
	<circle cx="121.87" cy="305.48" data-y="8.04" data-x="1588377600" r="1" fill="white"><title>2020-05-02: 8</title></circle>
	<circle cx="123.38" cy="313.12" data-y="7.15" data-x="1588464000" r="1" fill="white"><title>2020-05-03: 7</title></circle>
	<circle cx="124.90" cy="306.17" data-y="7.95" data-x="1588550400" r="1" fill="white"><title>2020-05-04: 8</title></circle>
	<circle cx="126.41" cy="307.56" data-y="7.79" data-x="1588636800" r="1" fill="white"><title>2020-05-05: 8</title></circle>
	<circle cx="127.93" cy="300.61" data-y="8.60" data-x="1588723200" r="1" fill="white"><title>2020-05-06: 9</title></circle>
	<circle cx="129.44" cy="299.91" data-y="8.68" data-x="1588809600" r="1" fill="white"><title>2020-05-07: 9</title></circle>
	<circle cx="130.95" cy="297.83" data-y="8.92" data-x="1588896000" r="1" fill="white"><title>2020-05-08: 9</title></circle>
	<circle cx="132.47" cy="302.70" data-y="8.36" data-x="1588982400" r="1" fill="white"><title>2020-05-09: 8</title></circle>
	<circle cx="133.98" cy="300.61" data-y="8.60" data-x="1589068800" r="1" fill="white"><title>2020-05-10: 9</title></circle>
	<circle cx="135.49" cy="314.51" data-y="6.99" data-x="1589155200" r="1" fill="white"><title>2020-05-11: 7</title></circle>
	<circle cx="137.01" cy="313.82" data-y="7.07" data-x="1589241600" r="1" fill="white"><title>2020-05-12: 7</title></circle>
	<circle cx="138.52" cy="316.60" data-y="6.75" data-x="1589328000" r="1" fill="white"><title>2020-05-13: 7</title></circle>
	<circle cx="140.03" cy="322.86" data-y="6.03" data-x="1589414400" r="1" fill="white"><title>2020-05-14: 6</title></circle>
	<circle cx="141.55" cy="329.11" data-y="5.30" data-x="1589500800" r="1" fill="white"><title>2020-05-15: 5</title></circle>
	<circle cx="143.06" cy="334.68" data-y="4.66" data-x="1589587200" r="1" fill="white"><title>2020-05-16: 5</title></circle>
	<circle cx="144.57" cy="338.85" data-y="4.18" data-x="1589673600" r="1" fill="white"><title>2020-05-17: 4</title></circle>
	<circle cx="146.09" cy="333.98" data-y="4.74" data-x="1589760000" r="1" fill="white"><title>2020-05-18: 5</title></circle>
	<circle cx="147.60" cy="338.85" data-y="4.18" data-x="1589846400" r="1" fill="white"><title>2020-05-19: 4</title></circle>
	<circle cx="149.12" cy="346.50" data-y="3.29" data-x="1589932800" r="1" fill="white"><title>2020-05-20: 3</title></circle>
	<circle cx="150.63" cy="349.97" data-y="2.89" data-x="1590019200" r="1" fill="white"><title>2020-05-21: 3</title></circle>
	<circle cx="152.14" cy="354.14" data-y="2.41" data-x="1590105600" r="1" fill="white"><title>2020-05-22: 2</title></circle>
	<circle cx="153.66" cy="358.31" data-y="1.93" data-x="1590192000" r="1" fill="white"><title>2020-05-23: 2</title></circle>
	<circle cx="155.17" cy="357.62" data-y="2.01" data-x="1590278400" r="1" fill="white"><title>2020-05-24: 2</title></circle>
	<circle cx="156.68" cy="364.57" data-y="1.21" data-x="1590364800" r="1" fill="white"><title>2020-05-25: 1</title></circle>
	<circle cx="158.20" cy="366.66" data-y="0.96" data-x="1590451200" r="1" fill="white"><title>2020-05-26: 1</title></circle>
	<circle cx="159.71" cy="366.66" data-y="0.96" data-x="1590537600" r="1" fill="white"><title>2020-05-27: 1</title></circle>
	<circle cx="161.22" cy="366.66" data-y="0.96" data-x="1590624000" r="1" fill="white"><title>2020-05-28: 1</title></circle>
	<circle cx="162.74" cy="368.74" data-y="0.72" data-x="1590710400" r="1" fill="white"><title>2020-05-29: 1</title></circle>
	<circle cx="164.25" cy="368.05" data-y="0.80" data-x="1590796800" r="1" fill="white"><title>2020-05-30: 1</title></circle>
	<circle cx="165.77" cy="371.52" data-y="0.40" data-x="1590883200" r="1" fill="white"><title>2020-05-31: 0</title></circle>
	<circle cx="167.28" cy="371.52" data-y="0.40" data-x="1590969600" r="1" fill="white"><title>2020-06-01: 0</title></circle>
	<circle cx="168.79" cy="372.22" data-y="0.32" data-x="1591056000" r="1" fill="white"><title>2020-06-02: 0</title></circle>
	<circle cx="170.31" cy="372.22" data-y="0.32" data-x="1591142400" r="1" fill="white"><title>2020-06-03: 0</title></circle>
	<circle cx="171.82" cy="372.22" data-y="0.32" data-x="1591228800" r="1" fill="white"><title>2020-06-04: 0</title></circle>
	<circle cx="173.33" cy="372.22" data-y="0.32" data-x="1591315200" r="1" fill="white"><title>2020-06-05: 0</title></circle>
	<circle cx="174.85" cy="372.91" data-y="0.24" data-x="1591401600" r="1" fill="white"><title>2020-06-06: 0</title></circle>
	<circle cx="176.36" cy="372.91" data-y="0.24" data-x="1591488000" r="1" fill="white"><title>2020-06-07: 0</title></circle>
	<circle cx="177.87" cy="373.61" data-y="0.16" data-x="1591574400" r="1" fill="white"><title>2020-06-08: 0</title></circle>
	<circle cx="179.39" cy="372.91" data-y="0.24" data-x="1591660800" r="1" fill="white"><title>2020-06-09: 0</title></circle>
	<circle cx="180.90" cy="373.61" data-y="0.16" data-x="1591747200" r="1" fill="white"><title>2020-06-10: 0</title></circle>
	<circle cx="182.41" cy="373.61" data-y="0.16" data-x="1591833600" r="1" fill="white"><title>2020-06-11: 0</title></circle>
	<circle cx="183.93" cy="374.30" data-y="0.08" data-x="1591920000" r="1" fill="white"><title>2020-06-12: 0</title></circle>
	<circle cx="185.44" cy="374.30" data-y="0.08" data-x="1592006400" r="1" fill="white"><title>2020-06-13: 0</title></circle>
	<circle cx="186.96" cy="373.61" data-y="0.16" data-x="1592092800" r="1" fill="white"><title>2020-06-14: 0</title></circle>
	<circle cx="188.47" cy="372.91" data-y="0.24" data-x="1592179200" r="1" fill="white"><title>2020-06-15: 0</title></circle>
	<circle cx="189.98" cy="372.91" data-y="0.24" data-x="1592265600" r="1" fill="white"><title>2020-06-16: 0</title></circle>
	<circle cx="191.50" cy="372.22" data-y="0.32" data-x="1592352000" r="1" fill="white"><title>2020-06-17: 0</title></circle>
	<circle cx="193.01" cy="372.22" data-y="0.32" data-x="1592438400" r="1" fill="white"><title>2020-06-18: 0</title></circle>
	<circle cx="194.52" cy="372.22" data-y="0.32" data-x="1592524800" r="1" fill="white"><title>2020-06-19: 0</title></circle>
	<circle cx="196.04" cy="372.22" data-y="0.32" data-x="1592611200" r="1" fill="white"><title>2020-06-20: 0</title></circle>
	<circle cx="197.55" cy="372.91" data-y="0.24" data-x="1592697600" r="1" fill="white"><title>2020-06-21: 0</title></circle>
	<circle cx="199.06" cy="373.61" data-y="0.16" data-x="1592784000" r="1" fill="white"><title>2020-06-22: 0</title></circle>
	<circle cx="200.58" cy="374.30" data-y="0.08" data-x="1592870400" r="1" fill="white"><title>2020-06-23: 0</title></circle>
	<circle cx="202.09" cy="375.00" data-y="0.00" data-x="1592956800" r="1" fill="white"><title>2020-06-24: 0</title></circle>
	<circle cx="203.61" cy="375.00" data-y="0.00" data-x="1593043200" r="1" fill="white"><title>2020-06-25: 0</title></circle>
	<circle cx="205.12" cy="375.00" data-y="0.00" data-x="1593129600" r="1" fill="white"><title>2020-06-26: 0</title></circle>
	<circle cx="206.63" cy="375.00" data-y="0.00" data-x="1593216000" r="1" fill="white"><title>2020-06-27: 0</title></circle>
	<circle cx="208.15" cy="375.00" data-y="0.00" data-x="1593302400" r="1" fill="white"><title>2020-06-28: 0</title></circle>
	<circle cx="209.66" cy="375.00" data-y="0.00" data-x="1593388800" r="1" fill="white"><title>2020-06-29: 0</title></circle>
	<circle cx="211.17" cy="375.00" data-y="0.00" data-x="1593475200" r="1" fill="white"><title>2020-06-30: 0</title></circle>
	<circle cx="212.69" cy="375.00" data-y="0.00" data-x="1593561600" r="1" fill="white"><title>2020-07-01: 0</title></circle>
	<circle cx="214.20" cy="375.00" data-y="0.00" data-x="1593648000" r="1" fill="white"><title>2020-07-02: 0</title></circle>
	<circle cx="215.71" cy="374.30" data-y="0.08" data-x="1593734400" r="1" fill="white"><title>2020-07-03: 0</title></circle>
	<circle cx="217.23" cy="373.61" data-y="0.16" data-x="1593820800" r="1" fill="white"><title>2020-07-04: 0</title></circle>
	<circle cx="218.74" cy="372.91" data-y="0.24" data-x="1593907200" r="1" fill="white"><title>2020-07-05: 0</title></circle>
	<circle cx="220.26" cy="372.91" data-y="0.24" data-x="1593993600" r="1" fill="white"><title>2020-07-06: 0</title></circle>
	<circle cx="221.77" cy="372.91" data-y="0.24" data-x="1594080000" r="1" fill="white"><title>2020-07-07: 0</title></circle>
	<circle cx="223.28" cy="372.91" data-y="0.24" data-x="1594166400" r="1" fill="white"><title>2020-07-08: 0</title></circle>
	<circle cx="224.80" cy="372.91" data-y="0.24" data-x="1594252800" r="1" fill="white"><title>2020-07-09: 0</title></circle>
	<circle cx="226.31" cy="372.22" data-y="0.32" data-x="1594339200" r="1" fill="white"><title>2020-07-10: 0</title></circle>
	<circle cx="227.82" cy="372.91" data-y="0.24" data-x="1594425600" r="1" fill="white"><title>2020-07-11: 0</title></circle>
	<circle cx="229.34" cy="373.61" data-y="0.16" data-x="1594512000" r="1" fill="white"><title>2020-07-12: 0</title></circle>
	<circle cx="230.85" cy="372.22" data-y="0.32" data-x="1594598400" r="1" fill="white"><title>2020-07-13: 0</title></circle>
	<circle cx="232.36" cy="370.83" data-y="0.48" data-x="1594684800" r="1" fill="white"><title>2020-07-14: 0</title></circle>
	<circle cx="233.88" cy="370.83" data-y="0.48" data-x="1594771200" r="1" fill="white"><title>2020-07-15: 0</title></circle>
	<circle cx="235.39" cy="370.83" data-y="0.48" data-x="1594857600" r="1" fill="white"><title>2020-07-16: 0</title></circle>
	<circle cx="236.90" cy="371.52" data-y="0.40" data-x="1594944000" r="1" fill="white"><title>2020-07-17: 0</title></circle>
	<circle cx="238.42" cy="371.52" data-y="0.40" data-x="1595030400" r="1" fill="white"><title>2020-07-18: 0</title></circle>
	<circle cx="239.93" cy="370.83" data-y="0.48" data-x="1595116800" r="1" fill="white"><title>2020-07-19: 0</title></circle>
	<circle cx="241.45" cy="372.22" data-y="0.32" data-x="1595203200" r="1" fill="white"><title>2020-07-20: 0</title></circle>
	<circle cx="242.96" cy="373.61" data-y="0.16" data-x="1595289600" r="1" fill="white"><title>2020-07-21: 0</title></circle>
	<circle cx="244.47" cy="373.61" data-y="0.16" data-x="1595376000" r="1" fill="white"><title>2020-07-22: 0</title></circle>
	<circle cx="245.99" cy="373.61" data-y="0.16" data-x="1595462400" r="1" fill="white"><title>2020-07-23: 0</title></circle>
	<circle cx="247.50" cy="372.91" data-y="0.24" data-x="1595548800" r="1" fill="white"><title>2020-07-24: 0</title></circle>
	<circle cx="249.01" cy="372.22" data-y="0.32" data-x="1595635200" r="1" fill="white"><title>2020-07-25: 0</title></circle>
	<circle cx="250.53" cy="372.91" data-y="0.24" data-x="1595721600" r="1" fill="white"><title>2020-07-26: 0</title></circle>
	<circle cx="252.04" cy="372.91" data-y="0.24" data-x="1595808000" r="1" fill="white"><title>2020-07-27: 0</title></circle>
	<circle cx="253.55" cy="372.91" data-y="0.24" data-x="1595894400" r="1" fill="white"><title>2020-07-28: 0</title></circle>
	<circle cx="255.07" cy="371.52" data-y="0.40" data-x="1595980800" r="1" fill="white"><title>2020-07-29: 0</title></circle>
	<circle cx="256.58" cy="370.83" data-y="0.48" data-x="1596067200" r="1" fill="white"><title>2020-07-30: 0</title></circle>
	<circle cx="258.10" cy="367.35" data-y="0.88" data-x="1596153600" r="1" fill="white"><title>2020-07-31: 1</title></circle>
	<circle cx="259.61" cy="368.05" data-y="0.80" data-x="1596240000" r="1" fill="white"><title>2020-08-01: 1</title></circle>
	<circle cx="261.12" cy="368.05" data-y="0.80" data-x="1596326400" r="1" fill="white"><title>2020-08-02: 1</title></circle>
	<circle cx="262.64" cy="368.05" data-y="0.80" data-x="1596412800" r="1" fill="white"><title>2020-08-03: 1</title></circle>
	<circle cx="264.15" cy="367.35" data-y="0.88" data-x="1596499200" r="1" fill="white"><title>2020-08-04: 1</title></circle>
	<circle cx="265.66" cy="368.74" data-y="0.72" data-x="1596585600" r="1" fill="white"><title>2020-08-05: 1</title></circle>
	<circle cx="267.18" cy="369.44" data-y="0.64" data-x="1596672000" r="1" fill="white"><title>2020-08-06: 1</title></circle>
	<circle cx="268.69" cy="374.30" data-y="0.08" data-x="1596758400" r="1" fill="white"><title>2020-08-07: 0</title></circle>
	<circle cx="270.20" cy="373.61" data-y="0.16" data-x="1596844800" r="1" fill="white"><title>2020-08-08: 0</title></circle>
	<circle cx="271.72" cy="373.61" data-y="0.16" data-x="1596931200" r="1" fill="white"><title>2020-08-09: 0</title></circle>
	<circle cx="273.23" cy="373.61" data-y="0.16" data-x="1597017600" r="1" fill="white"><title>2020-08-10: 0</title></circle>
	<circle cx="274.74" cy="374.30" data-y="0.08" data-x="1597104000" r="1" fill="white"><title>2020-08-11: 0</title></circle>
	<circle cx="276.26" cy="373.61" data-y="0.16" data-x="1597190400" r="1" fill="white"><title>2020-08-12: 0</title></circle>
	<circle cx="277.77" cy="372.91" data-y="0.24" data-x="1597276800" r="1" fill="white"><title>2020-08-13: 0</title></circle>
	<circle cx="279.29" cy="372.22" data-y="0.32" data-x="1597363200" r="1" fill="white"><title>2020-08-14: 0</title></circle>
	<circle cx="280.80" cy="368.05" data-y="0.80" data-x="1597449600" r="1" fill="white"><title>2020-08-15: 1</title></circle>
	<circle cx="282.31" cy="366.66" data-y="0.96" data-x="1597536000" r="1" fill="white"><title>2020-08-16: 1</title></circle>
	<circle cx="283.83" cy="365.27" data-y="1.12" data-x="1597622400" r="1" fill="white"><title>2020-08-17: 1</title></circle>
	<circle cx="285.34" cy="365.27" data-y="1.12" data-x="1597708800" r="1" fill="white"><title>2020-08-18: 1</title></circle>
	<circle cx="286.85" cy="365.96" data-y="1.04" data-x="1597795200" r="1" fill="white"><title>2020-08-19: 1</title></circle>
	<circle cx="288.37" cy="365.96" data-y="1.04" data-x="1597881600" r="1" fill="white"><title>2020-08-20: 1</title></circle>
	<circle cx="289.88" cy="364.57" data-y="1.21" data-x="1597968000" r="1" fill="white"><title>2020-08-21: 1</title></circle>
	<circle cx="291.39" cy="368.74" data-y="0.72" data-x="1598054400" r="1" fill="white"><title>2020-08-22: 1</title></circle>
	<circle cx="292.91" cy="369.44" data-y="0.64" data-x="1598140800" r="1" fill="white"><title>2020-08-23: 1</title></circle>
	<circle cx="294.42" cy="370.13" data-y="0.56" data-x="1598227200" r="1" fill="white"><title>2020-08-24: 1</title></circle>
	<circle cx="295.94" cy="363.18" data-y="1.37" data-x="1598313600" r="1" fill="white"><title>2020-08-25: 1</title></circle>
	<circle cx="297.45" cy="358.31" data-y="1.93" data-x="1598400000" r="1" fill="white"><title>2020-08-26: 2</title></circle>
	<circle cx="298.96" cy="354.84" data-y="2.33" data-x="1598486400" r="1" fill="white"><title>2020-08-27: 2</title></circle>
	<circle cx="300.48" cy="351.36" data-y="2.73" data-x="1598572800" r="1" fill="white"><title>2020-08-28: 3</title></circle>
	<circle cx="301.99" cy="343.71" data-y="3.62" data-x="1598659200" r="1" fill="white"><title>2020-08-29: 4</title></circle>
	<circle cx="303.50" cy="336.76" data-y="4.42" data-x="1598745600" r="1" fill="white"><title>2020-08-30: 4</title></circle>
	<circle cx="305.02" cy="330.50" data-y="5.14" data-x="1598832000" r="1" fill="white"><title>2020-08-31: 5</title></circle>
	<circle cx="306.53" cy="329.81" data-y="5.22" data-x="1598918400" r="1" fill="white"><title>2020-09-01: 5</title></circle>
	<circle cx="308.04" cy="329.11" data-y="5.30" data-x="1599004800" r="1" fill="white"><title>2020-09-02: 5</title></circle>
	<circle cx="309.56" cy="329.11" data-y="5.30" data-x="1599091200" r="1" fill="white"><title>2020-09-03: 5</title></circle>
	<circle cx="311.07" cy="327.03" data-y="5.54" data-x="1599177600" r="1" fill="white"><title>2020-09-04: 6</title></circle>
	<circle cx="312.59" cy="329.11" data-y="5.30" data-x="1599264000" r="1" fill="white"><title>2020-09-05: 5</title></circle>
	<circle cx="314.10" cy="327.03" data-y="5.54" data-x="1599350400" r="1" fill="white"><title>2020-09-06: 6</title></circle>
	<circle cx="315.61" cy="325.64" data-y="5.70" data-x="1599436800" r="1" fill="white"><title>2020-09-07: 6</title></circle>
	<circle cx="317.13" cy="326.33" data-y="5.62" data-x="1599523200" r="1" fill="white"><title>2020-09-08: 6</title></circle>
	<circle cx="318.64" cy="324.94" data-y="5.79" data-x="1599609600" r="1" fill="white"><title>2020-09-09: 6</title></circle>
	<circle cx="320.15" cy="322.86" data-y="6.03" data-x="1599696000" r="1" fill="white"><title>2020-09-10: 6</title></circle>
	<circle cx="321.67" cy="325.64" data-y="5.70" data-x="1599782400" r="1" fill="white"><title>2020-09-11: 6</title></circle>
	<circle cx="323.18" cy="326.33" data-y="5.62" data-x="1599868800" r="1" fill="white"><title>2020-09-12: 6</title></circle>
	<circle cx="324.69" cy="327.72" data-y="5.46" data-x="1599955200" r="1" fill="white"><title>2020-09-13: 5</title></circle>
	<circle cx="326.21" cy="331.90" data-y="4.98" data-x="1600041600" r="1" fill="white"><title>2020-09-14: 5</title></circle>
	<circle cx="327.72" cy="331.20" data-y="5.06" data-x="1600128000" r="1" fill="white"><title>2020-09-15: 5</title></circle>
	<circle cx="329.23" cy="333.29" data-y="4.82" data-x="1600214400" r="1" fill="white"><title>2020-09-16: 5</title></circle>
	<circle cx="330.75" cy="328.42" data-y="5.38" data-x="1600300800" r="1" fill="white"><title>2020-09-17: 5</title></circle>
	<circle cx="332.26" cy="323.55" data-y="5.95" data-x="1600387200" r="1" fill="white"><title>2020-09-18: 6</title></circle>
	<circle cx="333.78" cy="315.21" data-y="6.91" data-x="1600473600" r="1" fill="white"><title>2020-09-19: 7</title></circle>
	<circle cx="335.29" cy="310.34" data-y="7.47" data-x="1600560000" r="1" fill="white"><title>2020-09-20: 7</title></circle>
	<circle cx="336.80" cy="302.00" data-y="8.44" data-x="1600646400" r="1" fill="white"><title>2020-09-21: 8</title></circle>
	<circle cx="338.32" cy="303.39" data-y="8.28" data-x="1600732800" r="1" fill="white"><title>2020-09-22: 8</title></circle>
	<circle cx="339.83" cy="297.13" data-y="9.00" data-x="1600819200" r="1" fill="white"><title>2020-09-23: 9</title></circle>
	<circle cx="341.34" cy="302.70" data-y="8.36" data-x="1600905600" r="1" fill="white"><title>2020-09-24: 8</title></circle>
	<circle cx="342.86" cy="299.91" data-y="8.68" data-x="1600992000" r="1" fill="white"><title>2020-09-25: 9</title></circle>
	<circle cx="344.37" cy="300.61" data-y="8.60" data-x="1601078400" r="1" fill="white"><title>2020-09-26: 9</title></circle>
	<circle cx="345.88" cy="298.52" data-y="8.84" data-x="1601164800" r="1" fill="white"><title>2020-09-27: 9</title></circle>
	<circle cx="347.40" cy="292.96" data-y="9.48" data-x="1601251200" r="1" fill="white"><title>2020-09-28: 9</title></circle>
	<circle cx="348.91" cy="275.58" data-y="11.49" data-x="1601337600" r="1" fill="white"><title>2020-09-29: 11</title></circle>
	<circle cx="350.43" cy="270.71" data-y="12.05" data-x="1601424000" r="1" fill="white"><title>2020-09-30: 12</title></circle>
	<circle cx="351.94" cy="249.16" data-y="14.54" data-x="1601510400" r="1" fill="white"><title>2020-10-01: 15</title></circle>
	<circle cx="353.45" cy="218.57" data-y="18.08" data-x="1601596800" r="1" fill="white"><title>2020-10-02: 18</title></circle>
	<circle cx="354.97" cy="183.81" data-y="22.10" data-x="1601683200" r="1" fill="white"><title>2020-10-03: 22</title></circle>
	<circle cx="356.48" cy="150.44" data-y="25.95" data-x="1601769600" r="1" fill="white"><title>2020-10-04: 26</title></circle>
	<circle cx="357.99" cy="122.63" data-y="29.17" data-x="1601856000" r="1" fill="white"><title>2020-10-05: 29</title></circle>
	<circle cx="359.51" cy="105.25" data-y="31.18" data-x="1601942400" r="1" fill="white"><title>2020-10-06: 31</title></circle>
	<circle cx="361.02" cy="89.95" data-y="32.94" data-x="1602028800" r="1" fill="white"><title>2020-10-07: 33</title></circle>
	<circle cx="362.53" cy="96.90" data-y="32.14" data-x="1602115200" r="1" fill="white"><title>2020-10-08: 32</title></circle>
	<circle cx="364.05" cy="96.21" data-y="32.22" data-x="1602201600" r="1" fill="white"><title>2020-10-09: 32</title></circle>
	<circle cx="365.56" cy="91.34" data-y="32.78" data-x="1602288000" r="1" fill="white"><title>2020-10-10: 33</title></circle>
	<circle cx="367.07" cy="87.17" data-y="33.27" data-x="1602374400" r="1" fill="white"><title>2020-10-11: 33</title></circle>
	<circle cx="368.59" cy="76.05" data-y="34.55" data-x="1602460800" r="1" fill="white"><title>2020-10-12: 35</title></circle>
	<circle cx="370.10" cy="64.92" data-y="35.84" data-x="1602547200" r="1" fill="white"><title>2020-10-13: 36</title></circle>
	<circle cx="371.62" cy="69.79" data-y="35.27" data-x="1602633600" r="1" fill="white"><title>2020-10-14: 35</title></circle>
	<circle cx="373.13" cy="57.97" data-y="36.64" data-x="1602720000" r="1" fill="white"><title>2020-10-15: 37</title></circle>
	<circle cx="374.64" cy="55.19" data-y="36.96" data-x="1602806400" r="1" fill="white"><title>2020-10-16: 37</title></circle>
	<circle cx="376.16" cy="62.14" data-y="36.16" data-x="1602892800" r="1" fill="white"><title>2020-10-17: 36</title></circle>
	<circle cx="377.67" cy="69.79" data-y="35.27" data-x="1602979200" r="1" fill="white"><title>2020-10-18: 35</title></circle>
	<circle cx="379.18" cy="85.09" data-y="33.51" data-x="1603065600" r="1" fill="white"><title>2020-10-19: 34</title></circle>
	<circle cx="380.70" cy="93.43" data-y="32.54" data-x="1603152000" r="1" fill="white"><title>2020-10-20: 33</title></circle>
	<circle cx="382.21" cy="96.90" data-y="32.14" data-x="1603238400" r="1" fill="white"><title>2020-10-21: 32</title></circle>
	<circle cx="383.72" cy="94.82" data-y="32.38" data-x="1603324800" r="1" fill="white"><title>2020-10-22: 32</title></circle>
	<circle cx="385.24" cy="94.12" data-y="32.46" data-x="1603411200" r="1" fill="white"><title>2020-10-23: 32</title></circle>
	<circle cx="386.75" cy="95.51" data-y="32.30" data-x="1603497600" r="1" fill="white"><title>2020-10-24: 32</title></circle>
	<circle cx="388.27" cy="89.26" data-y="33.02" data-x="1603584000" r="1" fill="white"><title>2020-10-25: 33</title></circle>
	<circle cx="389.78" cy="89.95" data-y="32.94" data-x="1603670400" r="1" fill="white"><title>2020-10-26: 33</title></circle>
	<circle cx="391.29" cy="103.16" data-y="31.42" data-x="1603756800" r="1" fill="white"><title>2020-10-27: 31</title></circle>
	<circle cx="392.81" cy="101.77" data-y="31.58" data-x="1603843200" r="1" fill="white"><title>2020-10-28: 32</title></circle>
	<circle cx="394.32" cy="88.56" data-y="33.10" data-x="1603929600" r="1" fill="white"><title>2020-10-29: 33</title></circle>
	<circle cx="395.83" cy="87.87" data-y="33.19" data-x="1604016000" r="1" fill="white"><title>2020-10-30: 33</title></circle>
	<circle cx="397.35" cy="78.13" data-y="34.31" data-x="1604102400" r="1" fill="white"><title>2020-10-31: 34</title></circle>
	<circle cx="398.86" cy="76.05" data-y="34.55" data-x="1604188800" r="1" fill="white"><title>2020-11-01: 35</title></circle>
	<circle cx="400.37" cy="53.10" data-y="37.20" data-x="1604275200" r="1" fill="white"><title>2020-11-02: 37</title></circle>
	<circle cx="401.89" cy="17.65" data-y="41.30" data-x="1604361600" r="1" fill="white"><title>2020-11-03: 41</title></circle>
	<circle cx="403.40" cy="10.00" data-y="42.18" data-x="1604448000" r="1" fill="white"><title>2020-11-04: 42</title></circle>
	<circle cx="404.91" cy="31.55" data-y="39.69" data-x="1604534400" r="1" fill="white"><title>2020-11-05: 40</title></circle>
	<circle cx="406.43" cy="21.82" data-y="40.82" data-x="1604620800" r="1" fill="white"><title>2020-11-06: 41</title></circle>
	<circle cx="407.94" cy="14.17" data-y="41.70" data-x="1604707200" r="1" fill="white"><title>2020-11-07: 42</title></circle>
	<circle cx="409.46" cy="19.04" data-y="41.14" data-x="1604793600" r="1" fill="white"><title>2020-11-08: 41</title></circle>
	<circle cx="410.97" cy="47.54" data-y="37.85" data-x="1604880000" r="1" fill="white"><title>2020-11-09: 38</title></circle>
	<circle cx="412.48" cy="69.10" data-y="35.35" data-x="1604966400" r="1" fill="white"><title>2020-11-10: 35</title></circle>
	<circle cx="414.00" cy="67.01" data-y="35.60" data-x="1605052800" r="1" fill="white"><title>2020-11-11: 36</title></circle>
	<circle cx="415.51" cy="56.58" data-y="36.80" data-x="1605139200" r="1" fill="white"><title>2020-11-12: 37</title></circle>
	<circle cx="417.02" cy="65.62" data-y="35.76" data-x="1605225600" r="1" fill="white"><title>2020-11-13: 36</title></circle>
	<circle cx="418.54" cy="34.33" data-y="39.37" data-x="1605312000" r="1" fill="white"><title>2020-11-14: 39</title></circle>
	<circle cx="420.05" cy="37.11" data-y="39.05" data-x="1605398400" r="1" fill="white"><title>2020-11-15: 39</title></circle>
	<circle cx="421.56" cy="40.59" data-y="38.65" data-x="1605484800" r="1" fill="white"><title>2020-11-16: 39</title></circle>
	<circle cx="423.08" cy="50.32" data-y="37.52" data-x="1605571200" r="1" fill="white"><title>2020-11-17: 38</title></circle>
	<circle cx="424.59" cy="46.85" data-y="37.93" data-x="1605657600" r="1" fill="white"><title>2020-11-18: 38</title></circle>
	<circle cx="426.11" cy="53.80" data-y="37.12" data-x="1605744000" r="1" fill="white"><title>2020-11-19: 37</title></circle>
	<circle cx="427.62" cy="46.85" data-y="37.93" data-x="1605830400" r="1" fill="white"><title>2020-11-20: 38</title></circle>
	<circle cx="429.13" cy="96.21" data-y="32.22" data-x="1605916800" r="1" fill="white"><title>2020-11-21: 32</title></circle>
	<circle cx="430.65" cy="103.86" data-y="31.34" data-x="1606003200" r="1" fill="white"><title>2020-11-22: 31</title></circle>
	<circle cx="432.16" cy="98.99" data-y="31.90" data-x="1606089600" r="1" fill="white"><title>2020-11-23: 32</title></circle>
	<circle cx="433.67" cy="101.08" data-y="31.66" data-x="1606176000" r="1" fill="white"><title>2020-11-24: 32</title></circle>
	<circle cx="435.19" cy="117.07" data-y="29.81" data-x="1606262400" r="1" fill="white"><title>2020-11-25: 30</title></circle>
	<circle cx="436.70" cy="120.54" data-y="29.41" data-x="1606348800" r="1" fill="white"><title>2020-11-26: 29</title></circle>
	<circle cx="438.21" cy="136.53" data-y="27.56" data-x="1606435200" r="1" fill="white"><title>2020-11-27: 28</title></circle>
	<circle cx="439.73" cy="149.05" data-y="26.11" data-x="1606521600" r="1" fill="white"><title>2020-11-28: 26</title></circle>
	<circle cx="441.24" cy="160.17" data-y="24.83" data-x="1606608000" r="1" fill="white"><title>2020-11-29: 25</title></circle>
	<circle cx="442.76" cy="167.12" data-y="24.03" data-x="1606694400" r="1" fill="white"><title>2020-11-30: 24</title></circle>
	<circle cx="444.27" cy="171.30" data-y="23.54" data-x="1606780800" r="1" fill="white"><title>2020-12-01: 24</title></circle>
	<circle cx="445.78" cy="172.69" data-y="23.38" data-x="1606867200" r="1" fill="white"><title>2020-12-02: 23</title></circle>
	<circle cx="447.30" cy="185.20" data-y="21.94" data-x="1606953600" r="1" fill="white"><title>2020-12-03: 22</title></circle>
	<circle cx="448.81" cy="198.41" data-y="20.41" data-x="1607040000" r="1" fill="white"><title>2020-12-04: 20</title></circle>
	<circle cx="450.32" cy="206.06" data-y="19.53" data-x="1607126400" r="1" fill="white"><title>2020-12-05: 20</title></circle>
	<circle cx="451.84" cy="199.80" data-y="20.25" data-x="1607212800" r="1" fill="white"><title>2020-12-06: 20</title></circle>
	<circle cx="453.35" cy="213.70" data-y="18.64" data-x="1607299200" r="1" fill="white"><title>2020-12-07: 19</title></circle>
	<circle cx="454.86" cy="210.92" data-y="18.96" data-x="1607385600" r="1" fill="white"><title>2020-12-08: 19</title></circle>
	<circle cx="456.38" cy="215.10" data-y="18.48" data-x="1607472000" r="1" fill="white"><title>2020-12-09: 18</title></circle>
	<circle cx="457.89" cy="213.01" data-y="18.72" data-x="1607558400" r="1" fill="white"><title>2020-12-10: 19</title></circle>
	<circle cx="459.40" cy="213.01" data-y="18.72" data-x="1607644800" r="1" fill="white"><title>2020-12-11: 19</title></circle>
	<circle cx="460.92" cy="215.79" data-y="18.40" data-x="1607731200" r="1" fill="white"><title>2020-12-12: 18</title></circle>
	<circle cx="462.43" cy="224.13" data-y="17.44" data-x="1607817600" r="1" fill="white"><title>2020-12-13: 17</title></circle>
</g>
<g data-series="recent-cases" class="data-series">
	<path d="M 462.43,224.13L 463.95,238.73L 465.46,270.02L 466.97,271.18L 468.49,271.83L 470.00,292.27" id="Recent cases" class="line" stroke-width="1" stroke-linecap="round" stroke-dasharray="4,6" stroke-dashoffset="4"><title>Recent cases</title></path>
	<circle cx="462.43" cy="224.13" data-y="17.44" data-x="1607817600" r="2.5" fill="white"><title>2020-12-13: 17</title></circle>
	<circle cx="463.95" cy="238.73" data-y="15.75" data-x="1607904000" r="2.5" fill="white"><title>2020-12-14: 16</title></circle>
	<circle cx="465.46" cy="270.02" data-y="12.13" data-x="1607990400" r="2.5" fill="white"><title>2020-12-15: 12</title></circle>
	<circle cx="466.97" cy="271.18" data-y="12.00" data-x="1608076800" r="2.5" fill="white"><title>2020-12-16: 12</title></circle>
	<circle cx="468.49" cy="271.83" data-y="11.92" data-x="1608163200" r="2.5" fill="white"><title>2020-12-17: 12</title></circle>
	<circle cx="470.00" cy="292.27" data-y="9.56" data-x="1608249600" r="2.5" fill="white"><title>2020-12-18: 10</title></circle>
</g>
</svg>
