<svg width="480" height="400" viewBox="0 0 480 400" xmlns="http://www.w3.org/2000/svg" style="overflow:display" preserveAspectRatio="xMinYMin meet" overflow="visible">
<defs>
	<style>
	.data-series path.line { fill-opacity: 0; stroke: black; }
	.data-series path.line.dotted { stroke-dasharray: 12 20 }
	.data-series:hover path.line, .data-series.on path.line { stroke-width: 1; }
	.data-series:hover circle, .data-series.on circle { display: inline; }
	.graph-grid { font-family: "Helvetica Neue",Helvetica,Arial,"Lucida Grande",sans-serif; }
	.graph-grid line { stroke: black; stroke-width: 1; stroke-linecap: round; }
	.graph-grid.graph-grid-x text { text-anchor: middle; dominant-baseline: hanging; transform: translateY(10px); }
	.graph-grid.graph-grid-y text { text-anchor: end; dominant-baseline: middle; transform: translateX(-10px); }
	</style>
</defs>
<g class="graph-grid graph-grid-y">
	<line x1="25.00" y1="375.00" x2="470.00" y2="375.00" data-left="25"></line>
	<text x="35" y="375" text-anchor="end">0</text>
	<text x="35" y="275.223974358974" text-anchor="end">10</text>
	<text x="35" y="175.447948717949" text-anchor="end">20</text>
	<text x="35" y="75.6719230769231" text-anchor="end">30</text>
	<text style="text-anchor:middle;dominant-baseline:hanging;font-weight:bold;transform: translateY(192.5px) rotate(-90deg);"></text>
</g>
<g class="graph-grid graph-grid-x">
	<line class="tick" x1="28.12" y1="375.00" x2="28.12" y2="380.00"></line>
	<text x="28.1228070175439" y="375" text-anchor="middle">M</text>
	<line class="tick" x1="76.53" y1="375.00" x2="76.53" y2="380.00"></line>
	<text x="76.5263157894737" y="375" text-anchor="middle">A</text>
	<line class="tick" x1="123.37" y1="375.00" x2="123.37" y2="380.00"></line>
	<text x="123.368421052632" y="375" text-anchor="middle">M</text>
	<line class="tick" x1="171.77" y1="375.00" x2="171.77" y2="380.00"></line>
	<text x="171.771929824561" y="375" text-anchor="middle">J</text>
	<line class="tick" x1="218.61" y1="375.00" x2="218.61" y2="380.00"></line>
	<text x="218.614035087719" y="375" text-anchor="middle">J</text>
	<line class="tick" x1="267.02" y1="375.00" x2="267.02" y2="380.00"></line>
	<text x="267.017543859649" y="375" text-anchor="middle">A</text>
	<line class="tick" x1="315.42" y1="375.00" x2="315.42" y2="380.00"></line>
	<text x="315.421052631579" y="375" text-anchor="middle">S</text>
	<line class="tick" x1="362.26" y1="375.00" x2="362.26" y2="380.00"></line>
	<text x="362.263157894737" y="375" text-anchor="middle">O</text>
	<line class="tick" x1="410.67" y1="375.00" x2="410.67" y2="380.00"></line>
	<text x="410.666666666667" y="375" text-anchor="middle">N</text>
	<line class="tick" x1="457.51" y1="375.00" x2="457.51" y2="380.00"></line>
	<text x="457.508771929825" y="375" text-anchor="middle">D</text>
	<text style="text-anchor:middle;dominant-baseline:hanging;font-weight:bold;transform: translateY(192.5px) rotate(-90deg);"></text>
</g>
<g data-series="widespread" class="data-series">
	<path d="M 25.00,305.16L 470.00,305.16" id="S12000008-level-0" class="line" stroke-width="1" stroke-linecap="round" stroke-dasharray="3,3" fill-opacity="0.3" opacity="0.3"><title>Widespread</title></path>
</g>
<g data-series="substantial" class="data-series">
	<path d="M 25.00,335.09L 470.00,335.09" id="S12000008-level-1" class="line" stroke-width="1" stroke-linecap="round" stroke-dasharray="3,3" fill-opacity="0.3" opacity="0.3"><title>Substantial</title></path>
</g>
<g data-series="moderate" class="data-series">
	<path d="M 25.00,365.02L 470.00,365.02" id="S12000008-level-2" class="line" stroke-width="1" stroke-linecap="round" stroke-dasharray="3,3" fill-opacity="0.3" opacity="0.3"><title>Moderate</title></path>
</g>
<g data-series="new-cases" class="data-series">
	<path d="M 25.00,375.00L 26.56,375.00L 28.12,375.00L 29.68,375.00L 31.25,375.00L 32.81,373.83L 34.37,373.83L 35.93,373.83L 37.49,373.83L 39.05,373.83L 40.61,372.66L 42.18,372.66L 43.74,373.83L 45.30,373.83L 46.86,372.66L 48.42,371.49L 49.98,369.15L 51.54,369.15L 53.11,369.15L 54.67,367.98L 56.23,366.81L 57.79,365.64L 59.35,362.13L 60.91,358.62L 62.47,350.43L 64.04,338.73L 65.60,335.22L 67.16,329.38L 68.72,323.53L 70.28,318.85L 71.84,315.34L 73.40,322.36L 74.96,330.54L 76.53,325.87L 78.09,317.68L 79.65,311.83L 81.21,313.00L 82.77,316.51L 84.33,311.83L 85.89,308.32L 87.46,317.68L 89.02,320.02L 90.58,316.51L 92.14,315.34L 93.70,305.98L 95.26,297.79L 96.82,298.96L 98.39,290.77L 99.95,295.45L 101.51,301.30L 103.07,300.13L 104.63,305.98L 106.19,314.17L 107.75,317.68L 109.32,320.02L 110.88,320.02L 112.44,323.53L 114.00,320.02L 115.56,316.51L 117.12,316.51L 118.68,309.49L 120.25,310.66L 121.81,313.00L 123.37,302.47L 124.93,305.98L 126.49,303.64L 128.05,305.98L 129.61,308.32L 131.18,310.66L 132.74,316.51L 134.30,332.88L 135.86,339.90L 137.42,349.26L 138.98,350.43L 140.54,353.94L 142.11,355.11L 143.67,348.09L 145.23,345.75L 146.79,346.92L 148.35,342.24L 149.91,345.75L 151.47,346.92L 153.04,346.92L 154.60,352.77L 156.16,356.28L 157.72,356.28L 159.28,364.47L 160.84,355.11L 162.40,356.28L 163.96,357.45L 165.53,355.11L 167.09,352.77L 168.65,355.11L 170.21,357.45L 171.77,365.64L 173.33,365.64L 174.89,364.47L 176.46,367.98L 178.02,371.49L 179.58,371.49L 181.14,370.32L 182.70,370.32L 184.26,370.32L 185.82,371.49L 187.39,371.49L 188.95,370.32L 190.51,370.32L 192.07,369.15L 193.63,370.32L 195.19,371.49L 196.75,371.49L 198.32,371.49L 199.88,372.66L 201.44,371.49L 203.00,372.66L 204.56,372.66L 206.12,371.49L 207.68,370.32L 209.25,370.32L 210.81,370.32L 212.37,371.49L 213.93,372.66L 215.49,372.66L 217.05,373.83L 218.61,375.00L 220.18,375.00L 221.74,375.00L 223.30,373.83L 224.86,373.83L 226.42,373.83L 227.98,373.83L 229.54,373.83L 231.11,373.83L 232.67,372.66L 234.23,373.83L 235.79,373.83L 237.35,372.66L 238.91,372.66L 240.47,372.66L 242.04,372.66L 243.60,373.83L 245.16,372.66L 246.72,372.66L 248.28,372.66L 249.84,372.66L 251.40,372.66L 252.96,372.66L 254.53,372.66L 256.09,372.66L 257.65,372.66L 259.21,372.66L 260.77,372.66L 262.33,372.66L 263.89,372.66L 265.46,372.66L 267.02,373.83L 268.58,373.83L 270.14,372.66L 271.70,372.66L 273.26,371.49L 274.82,371.49L 276.39,369.15L 277.95,369.15L 279.51,369.15L 281.07,371.49L 282.63,371.49L 284.19,372.66L 285.75,372.66L 287.32,375.00L 288.88,375.00L 290.44,373.83L 292.00,371.49L 293.56,371.49L 295.12,371.49L 296.68,371.49L 298.25,371.49L 299.81,370.32L 301.37,365.64L 302.93,363.30L 304.49,359.79L 306.05,359.79L 307.61,358.62L 309.18,356.28L 310.74,353.94L 312.30,352.77L 313.86,356.28L 315.42,355.11L 316.98,350.43L 318.54,349.26L 320.11,349.26L 321.67,350.43L 323.23,350.43L 324.79,350.43L 326.35,352.77L 327.91,353.94L 329.47,355.11L 331.04,356.28L 332.60,356.28L 334.16,360.96L 335.72,355.11L 337.28,355.11L 338.84,353.94L 340.40,352.77L 341.96,349.26L 343.53,345.75L 345.09,338.73L 346.65,334.05L 348.21,322.36L 349.77,318.85L 351.33,316.51L 352.89,313.00L 354.46,304.81L 356.02,296.62L 357.58,291.94L 359.14,287.26L 360.70,282.58L 362.26,270.88L 363.82,240.46L 365.39,213.56L 366.95,186.65L 368.51,136.35L 370.07,122.31L 371.63,84.87L 373.19,57.96L 374.75,46.27L 376.32,35.74L 377.88,24.04L 379.44,43.93L 381.00,39.25L 382.56,57.96L 384.12,79.02L 385.68,87.21L 387.25,76.68L 388.81,73.17L 390.37,61.47L 391.93,45.10L 393.49,45.10L 395.05,28.72L 396.61,32.23L 398.18,10.00L 399.74,27.55L 401.30,61.47L 402.86,88.38L 404.42,98.91L 405.98,105.93L 407.54,111.78L 409.11,157.40L 410.67,164.42L 412.23,143.37L 413.79,129.33L 415.35,121.14L 416.91,117.63L 418.47,115.29L 420.04,122.31L 421.60,119.97L 423.16,115.29L 424.72,130.50L 426.28,141.03L 427.84,157.40L 429.40,163.25L 430.96,159.74L 432.53,158.57L 434.09,165.59L 435.65,170.27L 437.21,163.25L 438.77,162.08L 440.33,163.25L 441.89,156.23L 443.46,173.78L 445.02,194.84L 446.58,191.33L 448.14,199.52L 449.70,205.37L 451.26,204.20L 452.82,213.56L 454.39,207.71L 455.95,194.84L 457.51,193.67L 459.07,185.48L 460.63,169.10L 462.19,163.25" id="New cases" class="line" stroke-width="1" stroke-linecap="round"><title>New cases</title></path>
	<circle cx="25.00" cy="375.00" data-y="0.00" data-x="1582848000" r="1" fill="white"><title>2020-02-28: 0</title></circle>
	<circle cx="26.56" cy="375.00" data-y="0.00" data-x="1582934400" r="1" fill="white"><title>2020-02-29: 0</title></circle>
	<circle cx="28.12" cy="375.00" data-y="0.00" data-x="1583020800" r="1" fill="white"><title>2020-03-01: 0</title></circle>
	<circle cx="29.68" cy="375.00" data-y="0.00" data-x="1583107200" r="1" fill="white"><title>2020-03-02: 0</title></circle>
	<circle cx="31.25" cy="375.00" data-y="0.00" data-x="1583193600" r="1" fill="white"><title>2020-03-03: 0</title></circle>
	<circle cx="32.81" cy="373.83" data-y="0.12" data-x="1583280000" r="1" fill="white"><title>2020-03-04: 0</title></circle>
	<circle cx="34.37" cy="373.83" data-y="0.12" data-x="1583366400" r="1" fill="white"><title>2020-03-05: 0</title></circle>
	<circle cx="35.93" cy="373.83" data-y="0.12" data-x="1583452800" r="1" fill="white"><title>2020-03-06: 0</title></circle>
	<circle cx="37.49" cy="373.83" data-y="0.12" data-x="1583539200" r="1" fill="white"><title>2020-03-07: 0</title></circle>
	<circle cx="39.05" cy="373.83" data-y="0.12" data-x="1583625600" r="1" fill="white"><title>2020-03-08: 0</title></circle>
	<circle cx="40.61" cy="372.66" data-y="0.23" data-x="1583712000" r="1" fill="white"><title>2020-03-09: 0</title></circle>
	<circle cx="42.18" cy="372.66" data-y="0.23" data-x="1583798400" r="1" fill="white"><title>2020-03-10: 0</title></circle>
	<circle cx="43.74" cy="373.83" data-y="0.12" data-x="1583884800" r="1" fill="white"><title>2020-03-11: 0</title></circle>
	<circle cx="45.30" cy="373.83" data-y="0.12" data-x="1583971200" r="1" fill="white"><title>2020-03-12: 0</title></circle>
	<circle cx="46.86" cy="372.66" data-y="0.23" data-x="1584057600" r="1" fill="white"><title>2020-03-13: 0</title></circle>
	<circle cx="48.42" cy="371.49" data-y="0.35" data-x="1584144000" r="1" fill="white"><title>2020-03-14: 0</title></circle>
	<circle cx="49.98" cy="369.15" data-y="0.59" data-x="1584230400" r="1" fill="white"><title>2020-03-15: 1</title></circle>
	<circle cx="51.54" cy="369.15" data-y="0.59" data-x="1584316800" r="1" fill="white"><title>2020-03-16: 1</title></circle>
	<circle cx="53.11" cy="369.15" data-y="0.59" data-x="1584403200" r="1" fill="white"><title>2020-03-17: 1</title></circle>
	<circle cx="54.67" cy="367.98" data-y="0.70" data-x="1584489600" r="1" fill="white"><title>2020-03-18: 1</title></circle>
	<circle cx="56.23" cy="366.81" data-y="0.82" data-x="1584576000" r="1" fill="white"><title>2020-03-19: 1</title></circle>
	<circle cx="57.79" cy="365.64" data-y="0.94" data-x="1584662400" r="1" fill="white"><title>2020-03-20: 1</title></circle>
	<circle cx="59.35" cy="362.13" data-y="1.29" data-x="1584748800" r="1" fill="white"><title>2020-03-21: 1</title></circle>
	<circle cx="60.91" cy="358.62" data-y="1.64" data-x="1584835200" r="1" fill="white"><title>2020-03-22: 2</title></circle>
	<circle cx="62.47" cy="350.43" data-y="2.46" data-x="1584921600" r="1" fill="white"><title>2020-03-23: 2</title></circle>
	<circle cx="64.04" cy="338.73" data-y="3.63" data-x="1585008000" r="1" fill="white"><title>2020-03-24: 4</title></circle>
	<circle cx="65.60" cy="335.22" data-y="3.99" data-x="1585094400" r="1" fill="white"><title>2020-03-25: 4</title></circle>
	<circle cx="67.16" cy="329.38" data-y="4.57" data-x="1585180800" r="1" fill="white"><title>2020-03-26: 5</title></circle>
	<circle cx="68.72" cy="323.53" data-y="5.16" data-x="1585267200" r="1" fill="white"><title>2020-03-27: 5</title></circle>
	<circle cx="70.28" cy="318.85" data-y="5.63" data-x="1585353600" r="1" fill="white"><title>2020-03-28: 6</title></circle>
	<circle cx="71.84" cy="315.34" data-y="5.98" data-x="1585440000" r="1" fill="white"><title>2020-03-29: 6</title></circle>
	<circle cx="73.40" cy="322.36" data-y="5.28" data-x="1585526400" r="1" fill="white"><title>2020-03-30: 5</title></circle>
	<circle cx="74.96" cy="330.54" data-y="4.46" data-x="1585612800" r="1" fill="white"><title>2020-03-31: 4</title></circle>
	<circle cx="76.53" cy="325.87" data-y="4.92" data-x="1585699200" r="1" fill="white"><title>2020-04-01: 5</title></circle>
	<circle cx="78.09" cy="317.68" data-y="5.75" data-x="1585785600" r="1" fill="white"><title>2020-04-02: 6</title></circle>
	<circle cx="79.65" cy="311.83" data-y="6.33" data-x="1585872000" r="1" fill="white"><title>2020-04-03: 6</title></circle>
	<circle cx="81.21" cy="313.00" data-y="6.21" data-x="1585958400" r="1" fill="white"><title>2020-04-04: 6</title></circle>
	<circle cx="82.77" cy="316.51" data-y="5.86" data-x="1586044800" r="1" fill="white"><title>2020-04-05: 6</title></circle>
	<circle cx="84.33" cy="311.83" data-y="6.33" data-x="1586131200" r="1" fill="white"><title>2020-04-06: 6</title></circle>
	<circle cx="85.89" cy="308.32" data-y="6.68" data-x="1586217600" r="1" fill="white"><title>2020-04-07: 7</title></circle>
	<circle cx="87.46" cy="317.68" data-y="5.75" data-x="1586304000" r="1" fill="white"><title>2020-04-08: 6</title></circle>
	<circle cx="89.02" cy="320.02" data-y="5.51" data-x="1586390400" r="1" fill="white"><title>2020-04-09: 6</title></circle>
	<circle cx="90.58" cy="316.51" data-y="5.86" data-x="1586476800" r="1" fill="white"><title>2020-04-10: 6</title></circle>
	<circle cx="92.14" cy="315.34" data-y="5.98" data-x="1586563200" r="1" fill="white"><title>2020-04-11: 6</title></circle>
	<circle cx="93.70" cy="305.98" data-y="6.92" data-x="1586649600" r="1" fill="white"><title>2020-04-12: 7</title></circle>
	<circle cx="95.26" cy="297.79" data-y="7.74" data-x="1586736000" r="1" fill="white"><title>2020-04-13: 8</title></circle>
	<circle cx="96.82" cy="298.96" data-y="7.62" data-x="1586822400" r="1" fill="white"><title>2020-04-14: 8</title></circle>
	<circle cx="98.39" cy="290.77" data-y="8.44" data-x="1586908800" r="1" fill="white"><title>2020-04-15: 8</title></circle>
	<circle cx="99.95" cy="295.45" data-y="7.97" data-x="1586995200" r="1" fill="white"><title>2020-04-16: 8</title></circle>
	<circle cx="101.51" cy="301.30" data-y="7.39" data-x="1587081600" r="1" fill="white"><title>2020-04-17: 7</title></circle>
	<circle cx="103.07" cy="300.13" data-y="7.50" data-x="1587168000" r="1" fill="white"><title>2020-04-18: 8</title></circle>
	<circle cx="104.63" cy="305.98" data-y="6.92" data-x="1587254400" r="1" fill="white"><title>2020-04-19: 7</title></circle>
	<circle cx="106.19" cy="314.17" data-y="6.10" data-x="1587340800" r="1" fill="white"><title>2020-04-20: 6</title></circle>
	<circle cx="107.75" cy="317.68" data-y="5.75" data-x="1587427200" r="1" fill="white"><title>2020-04-21: 6</title></circle>
	<circle cx="109.32" cy="320.02" data-y="5.51" data-x="1587513600" r="1" fill="white"><title>2020-04-22: 6</title></circle>
	<circle cx="110.88" cy="320.02" data-y="5.51" data-x="1587600000" r="1" fill="white"><title>2020-04-23: 6</title></circle>
	<circle cx="112.44" cy="323.53" data-y="5.16" data-x="1587686400" r="1" fill="white"><title>2020-04-24: 5</title></circle>
	<circle cx="114.00" cy="320.02" data-y="5.51" data-x="1587772800" r="1" fill="white"><title>2020-04-25: 6</title></circle>
	<circle cx="115.56" cy="316.51" data-y="5.86" data-x="1587859200" r="1" fill="white"><title>2020-04-26: 6</title></circle>
	<circle cx="117.12" cy="316.51" data-y="5.86" data-x="1587945600" r="1" fill="white"><title>2020-04-27: 6</title></circle>
	<circle cx="118.68" cy="309.49" data-y="6.57" data-x="1588032000" r="1" fill="white"><title>2020-04-28: 7</title></circle>
	<circle cx="120.25" cy="310.66" data-y="6.45" data-x="1588118400" r="1" fill="white"><title>2020-04-29: 6</title></circle>
	<circle cx="121.81" cy="313.00" data-y="6.21" data-x="1588204800" r="1" fill="white"><title>2020-04-30: 6</title></circle>
	<circle cx="123.37" cy="302.47" data-y="7.27" data-x="1588291200" r="1" fill="white"><title>2020-05-01: 7</title></circle>
	<circle cx="124.93" cy="305.98" data-y="6.92" data-x="1588377600" r="1" fill="white"><title>2020-05-02: 7</title></circle>
	<circle cx="126.49" cy="303.64" data-y="7.15" data-x="1588464000" r="1" fill="white"><title>2020-05-03: 7</title></circle>
	<circle cx="128.05" cy="305.98" data-y="6.92" data-x="1588550400" r="1" fill="white"><title>2020-05-04: 7</title></circle>
	<circle cx="129.61" cy="308.32" data-y="6.68" data-x="1588636800" r="1" fill="white"><title>2020-05-05: 7</title></circle>
	<circle cx="131.18" cy="310.66" data-y="6.45" data-x="1588723200" r="1" fill="white"><title>2020-05-06: 6</title></circle>
	<circle cx="132.74" cy="316.51" data-y="5.86" data-x="1588809600" r="1" fill="white"><title>2020-05-07: 6</title></circle>
	<circle cx="134.30" cy="332.88" data-y="4.22" data-x="1588896000" r="1" fill="white"><title>2020-05-08: 4</title></circle>
	<circle cx="135.86" cy="339.90" data-y="3.52" data-x="1588982400" r="1" fill="white"><title>2020-05-09: 4</title></circle>
	<circle cx="137.42" cy="349.26" data-y="2.58" data-x="1589068800" r="1" fill="white"><title>2020-05-10: 3</title></circle>
	<circle cx="138.98" cy="350.43" data-y="2.46" data-x="1589155200" r="1" fill="white"><title>2020-05-11: 2</title></circle>
	<circle cx="140.54" cy="353.94" data-y="2.11" data-x="1589241600" r="1" fill="white"><title>2020-05-12: 2</title></circle>
	<circle cx="142.11" cy="355.11" data-y="1.99" data-x="1589328000" r="1" fill="white"><title>2020-05-13: 2</title></circle>
	<circle cx="143.67" cy="348.09" data-y="2.70" data-x="1589414400" r="1" fill="white"><title>2020-05-14: 3</title></circle>
	<circle cx="145.23" cy="345.75" data-y="2.93" data-x="1589500800" r="1" fill="white"><title>2020-05-15: 3</title></circle>
	<circle cx="146.79" cy="346.92" data-y="2.81" data-x="1589587200" r="1" fill="white"><title>2020-05-16: 3</title></circle>
	<circle cx="148.35" cy="342.24" data-y="3.28" data-x="1589673600" r="1" fill="white"><title>2020-05-17: 3</title></circle>
	<circle cx="149.91" cy="345.75" data-y="2.93" data-x="1589760000" r="1" fill="white"><title>2020-05-18: 3</title></circle>
	<circle cx="151.47" cy="346.92" data-y="2.81" data-x="1589846400" r="1" fill="white"><title>2020-05-19: 3</title></circle>
	<circle cx="153.04" cy="346.92" data-y="2.81" data-x="1589932800" r="1" fill="white"><title>2020-05-20: 3</title></circle>
	<circle cx="154.60" cy="352.77" data-y="2.23" data-x="1590019200" r="1" fill="white"><title>2020-05-21: 2</title></circle>
	<circle cx="156.16" cy="356.28" data-y="1.88" data-x="1590105600" r="1" fill="white"><title>2020-05-22: 2</title></circle>
	<circle cx="157.72" cy="356.28" data-y="1.88" data-x="1590192000" r="1" fill="white"><title>2020-05-23: 2</title></circle>
	<circle cx="159.28" cy="364.47" data-y="1.06" data-x="1590278400" r="1" fill="white"><title>2020-05-24: 1</title></circle>
	<circle cx="160.84" cy="355.11" data-y="1.99" data-x="1590364800" r="1" fill="white"><title>2020-05-25: 2</title></circle>
	<circle cx="162.40" cy="356.28" data-y="1.88" data-x="1590451200" r="1" fill="white"><title>2020-05-26: 2</title></circle>
	<circle cx="163.96" cy="357.45" data-y="1.76" data-x="1590537600" r="1" fill="white"><title>2020-05-27: 2</title></circle>
	<circle cx="165.53" cy="355.11" data-y="1.99" data-x="1590624000" r="1" fill="white"><title>2020-05-28: 2</title></circle>
	<circle cx="167.09" cy="352.77" data-y="2.23" data-x="1590710400" r="1" fill="white"><title>2020-05-29: 2</title></circle>
	<circle cx="168.65" cy="355.11" data-y="1.99" data-x="1590796800" r="1" fill="white"><title>2020-05-30: 2</title></circle>
	<circle cx="170.21" cy="357.45" data-y="1.76" data-x="1590883200" r="1" fill="white"><title>2020-05-31: 2</title></circle>
	<circle cx="171.77" cy="365.64" data-y="0.94" data-x="1590969600" r="1" fill="white"><title>2020-06-01: 1</title></circle>
	<circle cx="173.33" cy="365.64" data-y="0.94" data-x="1591056000" r="1" fill="white"><title>2020-06-02: 1</title></circle>
	<circle cx="174.89" cy="364.47" data-y="1.06" data-x="1591142400" r="1" fill="white"><title>2020-06-03: 1</title></circle>
	<circle cx="176.46" cy="367.98" data-y="0.70" data-x="1591228800" r="1" fill="white"><title>2020-06-04: 1</title></circle>
	<circle cx="178.02" cy="371.49" data-y="0.35" data-x="1591315200" r="1" fill="white"><title>2020-06-05: 0</title></circle>
	<circle cx="179.58" cy="371.49" data-y="0.35" data-x="1591401600" r="1" fill="white"><title>2020-06-06: 0</title></circle>
	<circle cx="181.14" cy="370.32" data-y="0.47" data-x="1591488000" r="1" fill="white"><title>2020-06-07: 0</title></circle>
	<circle cx="182.70" cy="370.32" data-y="0.47" data-x="1591574400" r="1" fill="white"><title>2020-06-08: 0</title></circle>
	<circle cx="184.26" cy="370.32" data-y="0.47" data-x="1591660800" r="1" fill="white"><title>2020-06-09: 0</title></circle>
	<circle cx="185.82" cy="371.49" data-y="0.35" data-x="1591747200" r="1" fill="white"><title>2020-06-10: 0</title></circle>
	<circle cx="187.39" cy="371.49" data-y="0.35" data-x="1591833600" r="1" fill="white"><title>2020-06-11: 0</title></circle>
	<circle cx="188.95" cy="370.32" data-y="0.47" data-x="1591920000" r="1" fill="white"><title>2020-06-12: 0</title></circle>
	<circle cx="190.51" cy="370.32" data-y="0.47" data-x="1592006400" r="1" fill="white"><title>2020-06-13: 0</title></circle>
	<circle cx="192.07" cy="369.15" data-y="0.59" data-x="1592092800" r="1" fill="white"><title>2020-06-14: 1</title></circle>
	<circle cx="193.63" cy="370.32" data-y="0.47" data-x="1592179200" r="1" fill="white"><title>2020-06-15: 0</title></circle>
	<circle cx="195.19" cy="371.49" data-y="0.35" data-x="1592265600" r="1" fill="white"><title>2020-06-16: 0</title></circle>
	<circle cx="196.75" cy="371.49" data-y="0.35" data-x="1592352000" r="1" fill="white"><title>2020-06-17: 0</title></circle>
	<circle cx="198.32" cy="371.49" data-y="0.35" data-x="1592438400" r="1" fill="white"><title>2020-06-18: 0</title></circle>
	<circle cx="199.88" cy="372.66" data-y="0.23" data-x="1592524800" r="1" fill="white"><title>2020-06-19: 0</title></circle>
	<circle cx="201.44" cy="371.49" data-y="0.35" data-x="1592611200" r="1" fill="white"><title>2020-06-20: 0</title></circle>
	<circle cx="203.00" cy="372.66" data-y="0.23" data-x="1592697600" r="1" fill="white"><title>2020-06-21: 0</title></circle>
	<circle cx="204.56" cy="372.66" data-y="0.23" data-x="1592784000" r="1" fill="white"><title>2020-06-22: 0</title></circle>
	<circle cx="206.12" cy="371.49" data-y="0.35" data-x="1592870400" r="1" fill="white"><title>2020-06-23: 0</title></circle>
	<circle cx="207.68" cy="370.32" data-y="0.47" data-x="1592956800" r="1" fill="white"><title>2020-06-24: 0</title></circle>
	<circle cx="209.25" cy="370.32" data-y="0.47" data-x="1593043200" r="1" fill="white"><title>2020-06-25: 0</title></circle>
	<circle cx="210.81" cy="370.32" data-y="0.47" data-x="1593129600" r="1" fill="white"><title>2020-06-26: 0</title></circle>
	<circle cx="212.37" cy="371.49" data-y="0.35" data-x="1593216000" r="1" fill="white"><title>2020-06-27: 0</title></circle>
	<circle cx="213.93" cy="372.66" data-y="0.23" data-x="1593302400" r="1" fill="white"><title>2020-06-28: 0</title></circle>
	<circle cx="215.49" cy="372.66" data-y="0.23" data-x="1593388800" r="1" fill="white"><title>2020-06-29: 0</title></circle>
	<circle cx="217.05" cy="373.83" data-y="0.12" data-x="1593475200" r="1" fill="white"><title>2020-06-30: 0</title></circle>
	<circle cx="218.61" cy="375.00" data-y="0.00" data-x="1593561600" r="1" fill="white"><title>2020-07-01: 0</title></circle>
	<circle cx="220.18" cy="375.00" data-y="0.00" data-x="1593648000" r="1" fill="white"><title>2020-07-02: 0</title></circle>
	<circle cx="221.74" cy="375.00" data-y="0.00" data-x="1593734400" r="1" fill="white"><title>2020-07-03: 0</title></circle>
	<circle cx="223.30" cy="373.83" data-y="0.12" data-x="1593820800" r="1" fill="white"><title>2020-07-04: 0</title></circle>
	<circle cx="224.86" cy="373.83" data-y="0.12" data-x="1593907200" r="1" fill="white"><title>2020-07-05: 0</title></circle>
	<circle cx="226.42" cy="373.83" data-y="0.12" data-x="1593993600" r="1" fill="white"><title>2020-07-06: 0</title></circle>
	<circle cx="227.98" cy="373.83" data-y="0.12" data-x="1594080000" r="1" fill="white"><title>2020-07-07: 0</title></circle>
	<circle cx="229.54" cy="373.83" data-y="0.12" data-x="1594166400" r="1" fill="white"><title>2020-07-08: 0</title></circle>
	<circle cx="231.11" cy="373.83" data-y="0.12" data-x="1594252800" r="1" fill="white"><title>2020-07-09: 0</title></circle>
	<circle cx="232.67" cy="372.66" data-y="0.23" data-x="1594339200" r="1" fill="white"><title>2020-07-10: 0</title></circle>
	<circle cx="234.23" cy="373.83" data-y="0.12" data-x="1594425600" r="1" fill="white"><title>2020-07-11: 0</title></circle>
	<circle cx="235.79" cy="373.83" data-y="0.12" data-x="1594512000" r="1" fill="white"><title>2020-07-12: 0</title></circle>
	<circle cx="237.35" cy="372.66" data-y="0.23" data-x="1594598400" r="1" fill="white"><title>2020-07-13: 0</title></circle>
	<circle cx="238.91" cy="372.66" data-y="0.23" data-x="1594684800" r="1" fill="white"><title>2020-07-14: 0</title></circle>
	<circle cx="240.47" cy="372.66" data-y="0.23" data-x="1594771200" r="1" fill="white"><title>2020-07-15: 0</title></circle>
	<circle cx="242.04" cy="372.66" data-y="0.23" data-x="1594857600" r="1" fill="white"><title>2020-07-16: 0</title></circle>
	<circle cx="243.60" cy="373.83" data-y="0.12" data-x="1594944000" r="1" fill="white"><title>2020-07-17: 0</title></circle>
	<circle cx="245.16" cy="372.66" data-y="0.23" data-x="1595030400" r="1" fill="white"><title>2020-07-18: 0</title></circle>
	<circle cx="246.72" cy="372.66" data-y="0.23" data-x="1595116800" r="1" fill="white"><title>2020-07-19: 0</title></circle>
	<circle cx="248.28" cy="372.66" data-y="0.23" data-x="1595203200" r="1" fill="white"><title>2020-07-20: 0</title></circle>
	<circle cx="249.84" cy="372.66" data-y="0.23" data-x="1595289600" r="1" fill="white"><title>2020-07-21: 0</title></circle>
	<circle cx="251.40" cy="372.66" data-y="0.23" data-x="1595376000" r="1" fill="white"><title>2020-07-22: 0</title></circle>
	<circle cx="252.96" cy="372.66" data-y="0.23" data-x="1595462400" r="1" fill="white"><title>2020-07-23: 0</title></circle>
	<circle cx="254.53" cy="372.66" data-y="0.23" data-x="1595548800" r="1" fill="white"><title>2020-07-24: 0</title></circle>
	<circle cx="256.09" cy="372.66" data-y="0.23" data-x="1595635200" r="1" fill="white"><title>2020-07-25: 0</title></circle>
	<circle cx="257.65" cy="372.66" data-y="0.23" data-x="1595721600" r="1" fill="white"><title>2020-07-26: 0</title></circle>
	<circle cx="259.21" cy="372.66" data-y="0.23" data-x="1595808000" r="1" fill="white"><title>2020-07-27: 0</title></circle>
	<circle cx="260.77" cy="372.66" data-y="0.23" data-x="1595894400" r="1" fill="white"><title>2020-07-28: 0</title></circle>
	<circle cx="262.33" cy="372.66" data-y="0.23" data-x="1595980800" r="1" fill="white"><title>2020-07-29: 0</title></circle>
	<circle cx="263.89" cy="372.66" data-y="0.23" data-x="1596067200" r="1" fill="white"><title>2020-07-30: 0</title></circle>
	<circle cx="265.46" cy="372.66" data-y="0.23" data-x="1596153600" r="1" fill="white"><title>2020-07-31: 0</title></circle>
	<circle cx="267.02" cy="373.83" data-y="0.12" data-x="1596240000" r="1" fill="white"><title>2020-08-01: 0</title></circle>
	<circle cx="268.58" cy="373.83" data-y="0.12" data-x="1596326400" r="1" fill="white"><title>2020-08-02: 0</title></circle>
	<circle cx="270.14" cy="372.66" data-y="0.23" data-x="1596412800" r="1" fill="white"><title>2020-08-03: 0</title></circle>
	<circle cx="271.70" cy="372.66" data-y="0.23" data-x="1596499200" r="1" fill="white"><title>2020-08-04: 0</title></circle>
	<circle cx="273.26" cy="371.49" data-y="0.35" data-x="1596585600" r="1" fill="white"><title>2020-08-05: 0</title></circle>
	<circle cx="274.82" cy="371.49" data-y="0.35" data-x="1596672000" r="1" fill="white"><title>2020-08-06: 0</title></circle>
	<circle cx="276.39" cy="369.15" data-y="0.59" data-x="1596758400" r="1" fill="white"><title>2020-08-07: 1</title></circle>
	<circle cx="277.95" cy="369.15" data-y="0.59" data-x="1596844800" r="1" fill="white"><title>2020-08-08: 1</title></circle>
	<circle cx="279.51" cy="369.15" data-y="0.59" data-x="1596931200" r="1" fill="white"><title>2020-08-09: 1</title></circle>
	<circle cx="281.07" cy="371.49" data-y="0.35" data-x="1597017600" r="1" fill="white"><title>2020-08-10: 0</title></circle>
	<circle cx="282.63" cy="371.49" data-y="0.35" data-x="1597104000" r="1" fill="white"><title>2020-08-11: 0</title></circle>
	<circle cx="284.19" cy="372.66" data-y="0.23" data-x="1597190400" r="1" fill="white"><title>2020-08-12: 0</title></circle>
	<circle cx="285.75" cy="372.66" data-y="0.23" data-x="1597276800" r="1" fill="white"><title>2020-08-13: 0</title></circle>
	<circle cx="287.32" cy="375.00" data-y="0.00" data-x="1597363200" r="1" fill="white"><title>2020-08-14: 0</title></circle>
	<circle cx="288.88" cy="375.00" data-y="0.00" data-x="1597449600" r="1" fill="white"><title>2020-08-15: 0</title></circle>
	<circle cx="290.44" cy="373.83" data-y="0.12" data-x="1597536000" r="1" fill="white"><title>2020-08-16: 0</title></circle>
	<circle cx="292.00" cy="371.49" data-y="0.35" data-x="1597622400" r="1" fill="white"><title>2020-08-17: 0</title></circle>
	<circle cx="293.56" cy="371.49" data-y="0.35" data-x="1597708800" r="1" fill="white"><title>2020-08-18: 0</title></circle>
	<circle cx="295.12" cy="371.49" data-y="0.35" data-x="1597795200" r="1" fill="white"><title>2020-08-19: 0</title></circle>
	<circle cx="296.68" cy="371.49" data-y="0.35" data-x="1597881600" r="1" fill="white"><title>2020-08-20: 0</title></circle>
	<circle cx="298.25" cy="371.49" data-y="0.35" data-x="1597968000" r="1" fill="white"><title>2020-08-21: 0</title></circle>
	<circle cx="299.81" cy="370.32" data-y="0.47" data-x="1598054400" r="1" fill="white"><title>2020-08-22: 0</title></circle>
	<circle cx="301.37" cy="365.64" data-y="0.94" data-x="1598140800" r="1" fill="white"><title>2020-08-23: 1</title></circle>
	<circle cx="302.93" cy="363.30" data-y="1.17" data-x="1598227200" r="1" fill="white"><title>2020-08-24: 1</title></circle>
	<circle cx="304.49" cy="359.79" data-y="1.52" data-x="1598313600" r="1" fill="white"><title>2020-08-25: 2</title></circle>
	<circle cx="306.05" cy="359.79" data-y="1.52" data-x="1598400000" r="1" fill="white"><title>2020-08-26: 2</title></circle>
	<circle cx="307.61" cy="358.62" data-y="1.64" data-x="1598486400" r="1" fill="white"><title>2020-08-27: 2</title></circle>
	<circle cx="309.18" cy="356.28" data-y="1.88" data-x="1598572800" r="1" fill="white"><title>2020-08-28: 2</title></circle>
	<circle cx="310.74" cy="353.94" data-y="2.11" data-x="1598659200" r="1" fill="white"><title>2020-08-29: 2</title></circle>
	<circle cx="312.30" cy="352.77" data-y="2.23" data-x="1598745600" r="1" fill="white"><title>2020-08-30: 2</title></circle>
	<circle cx="313.86" cy="356.28" data-y="1.88" data-x="1598832000" r="1" fill="white"><title>2020-08-31: 2</title></circle>
	<circle cx="315.42" cy="355.11" data-y="1.99" data-x="1598918400" r="1" fill="white"><title>2020-09-01: 2</title></circle>
	<circle cx="316.98" cy="350.43" data-y="2.46" data-x="1599004800" r="1" fill="white"><title>2020-09-02: 2</title></circle>
	<circle cx="318.54" cy="349.26" data-y="2.58" data-x="1599091200" r="1" fill="white"><title>2020-09-03: 3</title></circle>
	<circle cx="320.11" cy="349.26" data-y="2.58" data-x="1599177600" r="1" fill="white"><title>2020-09-04: 3</title></circle>
	<circle cx="321.67" cy="350.43" data-y="2.46" data-x="1599264000" r="1" fill="white"><title>2020-09-05: 2</title></circle>
	<circle cx="323.23" cy="350.43" data-y="2.46" data-x="1599350400" r="1" fill="white"><title>2020-09-06: 2</title></circle>
	<circle cx="324.79" cy="350.43" data-y="2.46" data-x="1599436800" r="1" fill="white"><title>2020-09-07: 2</title></circle>
	<circle cx="326.35" cy="352.77" data-y="2.23" data-x="1599523200" r="1" fill="white"><title>2020-09-08: 2</title></circle>
	<circle cx="327.91" cy="353.94" data-y="2.11" data-x="1599609600" r="1" fill="white"><title>2020-09-09: 2</title></circle>
	<circle cx="329.47" cy="355.11" data-y="1.99" data-x="1599696000" r="1" fill="white"><title>2020-09-10: 2</title></circle>
	<circle cx="331.04" cy="356.28" data-y="1.88" data-x="1599782400" r="1" fill="white"><title>2020-09-11: 2</title></circle>
	<circle cx="332.60" cy="356.28" data-y="1.88" data-x="1599868800" r="1" fill="white"><title>2020-09-12: 2</title></circle>
	<circle cx="334.16" cy="360.96" data-y="1.41" data-x="1599955200" r="1" fill="white"><title>2020-09-13: 1</title></circle>
	<circle cx="335.72" cy="355.11" data-y="1.99" data-x="1600041600" r="1" fill="white"><title>2020-09-14: 2</title></circle>
	<circle cx="337.28" cy="355.11" data-y="1.99" data-x="1600128000" r="1" fill="white"><title>2020-09-15: 2</title></circle>
	<circle cx="338.84" cy="353.94" data-y="2.11" data-x="1600214400" r="1" fill="white"><title>2020-09-16: 2</title></circle>
	<circle cx="340.40" cy="352.77" data-y="2.23" data-x="1600300800" r="1" fill="white"><title>2020-09-17: 2</title></circle>
	<circle cx="341.96" cy="349.26" data-y="2.58" data-x="1600387200" r="1" fill="white"><title>2020-09-18: 3</title></circle>
	<circle cx="343.53" cy="345.75" data-y="2.93" data-x="1600473600" r="1" fill="white"><title>2020-09-19: 3</title></circle>
	<circle cx="345.09" cy="338.73" data-y="3.63" data-x="1600560000" r="1" fill="white"><title>2020-09-20: 4</title></circle>
	<circle cx="346.65" cy="334.05" data-y="4.10" data-x="1600646400" r="1" fill="white"><title>2020-09-21: 4</title></circle>
	<circle cx="348.21" cy="322.36" data-y="5.28" data-x="1600732800" r="1" fill="white"><title>2020-09-22: 5</title></circle>
	<circle cx="349.77" cy="318.85" data-y="5.63" data-x="1600819200" r="1" fill="white"><title>2020-09-23: 6</title></circle>
	<circle cx="351.33" cy="316.51" data-y="5.86" data-x="1600905600" r="1" fill="white"><title>2020-09-24: 6</title></circle>
	<circle cx="352.89" cy="313.00" data-y="6.21" data-x="1600992000" r="1" fill="white"><title>2020-09-25: 6</title></circle>
	<circle cx="354.46" cy="304.81" data-y="7.03" data-x="1601078400" r="1" fill="white"><title>2020-09-26: 7</title></circle>
	<circle cx="356.02" cy="296.62" data-y="7.86" data-x="1601164800" r="1" fill="white"><title>2020-09-27: 8</title></circle>
	<circle cx="357.58" cy="291.94" data-y="8.32" data-x="1601251200" r="1" fill="white"><title>2020-09-28: 8</title></circle>
	<circle cx="359.14" cy="287.26" data-y="8.79" data-x="1601337600" r="1" fill="white"><title>2020-09-29: 9</title></circle>
	<circle cx="360.70" cy="282.58" data-y="9.26" data-x="1601424000" r="1" fill="white"><title>2020-09-30: 9</title></circle>
	<circle cx="362.26" cy="270.88" data-y="10.44" data-x="1601510400" r="1" fill="white"><title>2020-10-01: 10</title></circle>
	<circle cx="363.82" cy="240.46" data-y="13.48" data-x="1601596800" r="1" fill="white"><title>2020-10-02: 13</title></circle>
	<circle cx="365.39" cy="213.56" data-y="16.18" data-x="1601683200" r="1" fill="white"><title>2020-10-03: 16</title></circle>
	<circle cx="366.95" cy="186.65" data-y="18.88" data-x="1601769600" r="1" fill="white"><title>2020-10-04: 19</title></circle>
	<circle cx="368.51" cy="136.35" data-y="23.92" data-x="1601856000" r="1" fill="white"><title>2020-10-05: 24</title></circle>
	<circle cx="370.07" cy="122.31" data-y="25.33" data-x="1601942400" r="1" fill="white"><title>2020-10-06: 25</title></circle>
	<circle cx="371.63" cy="84.87" data-y="29.08" data-x="1602028800" r="1" fill="white"><title>2020-10-07: 29</title></circle>
	<circle cx="373.19" cy="57.96" data-y="31.77" data-x="1602115200" r="1" fill="white"><title>2020-10-08: 32</title></circle>
	<circle cx="374.75" cy="46.27" data-y="32.95" data-x="1602201600" r="1" fill="white"><title>2020-10-09: 33</title></circle>
	<circle cx="376.32" cy="35.74" data-y="34.00" data-x="1602288000" r="1" fill="white"><title>2020-10-10: 34</title></circle>
	<circle cx="377.88" cy="24.04" data-y="35.17" data-x="1602374400" r="1" fill="white"><title>2020-10-11: 35</title></circle>
	<circle cx="379.44" cy="43.93" data-y="33.18" data-x="1602460800" r="1" fill="white"><title>2020-10-12: 33</title></circle>
	<circle cx="381.00" cy="39.25" data-y="33.65" data-x="1602547200" r="1" fill="white"><title>2020-10-13: 34</title></circle>
	<circle cx="382.56" cy="57.96" data-y="31.77" data-x="1602633600" r="1" fill="white"><title>2020-10-14: 32</title></circle>
	<circle cx="384.12" cy="79.02" data-y="29.66" data-x="1602720000" r="1" fill="white"><title>2020-10-15: 30</title></circle>
	<circle cx="385.68" cy="87.21" data-y="28.84" data-x="1602806400" r="1" fill="white"><title>2020-10-16: 29</title></circle>
	<circle cx="387.25" cy="76.68" data-y="29.90" data-x="1602892800" r="1" fill="white"><title>2020-10-17: 30</title></circle>
	<circle cx="388.81" cy="73.17" data-y="30.25" data-x="1602979200" r="1" fill="white"><title>2020-10-18: 30</title></circle>
	<circle cx="390.37" cy="61.47" data-y="31.42" data-x="1603065600" r="1" fill="white"><title>2020-10-19: 31</title></circle>
	<circle cx="391.93" cy="45.10" data-y="33.06" data-x="1603152000" r="1" fill="white"><title>2020-10-20: 33</title></circle>
	<circle cx="393.49" cy="45.10" data-y="33.06" data-x="1603238400" r="1" fill="white"><title>2020-10-21: 33</title></circle>
	<circle cx="395.05" cy="28.72" data-y="34.71" data-x="1603324800" r="1" fill="white"><title>2020-10-22: 35</title></circle>
	<circle cx="396.61" cy="32.23" data-y="34.35" data-x="1603411200" r="1" fill="white"><title>2020-10-23: 34</title></circle>
	<circle cx="398.18" cy="10.00" data-y="36.58" data-x="1603497600" r="1" fill="white"><title>2020-10-24: 37</title></circle>
	<circle cx="399.74" cy="27.55" data-y="34.82" data-x="1603584000" r="1" fill="white"><title>2020-10-25: 35</title></circle>
	<circle cx="401.30" cy="61.47" data-y="31.42" data-x="1603670400" r="1" fill="white"><title>2020-10-26: 31</title></circle>
	<circle cx="402.86" cy="88.38" data-y="28.73" data-x="1603756800" r="1" fill="white"><title>2020-10-27: 29</title></circle>
	<circle cx="404.42" cy="98.91" data-y="27.67" data-x="1603843200" r="1" fill="white"><title>2020-10-28: 28</title></circle>
	<circle cx="405.98" cy="105.93" data-y="26.97" data-x="1603929600" r="1" fill="white"><title>2020-10-29: 27</title></circle>
	<circle cx="407.54" cy="111.78" data-y="26.38" data-x="1604016000" r="1" fill="white"><title>2020-10-30: 26</title></circle>
	<circle cx="409.11" cy="157.40" data-y="21.81" data-x="1604102400" r="1" fill="white"><title>2020-10-31: 22</title></circle>
	<circle cx="410.67" cy="164.42" data-y="21.10" data-x="1604188800" r="1" fill="white"><title>2020-11-01: 21</title></circle>
	<circle cx="412.23" cy="143.37" data-y="23.22" data-x="1604275200" r="1" fill="white"><title>2020-11-02: 23</title></circle>
	<circle cx="413.79" cy="129.33" data-y="24.62" data-x="1604361600" r="1" fill="white"><title>2020-11-03: 25</title></circle>
	<circle cx="415.35" cy="121.14" data-y="25.44" data-x="1604448000" r="1" fill="white"><title>2020-11-04: 25</title></circle>
	<circle cx="416.91" cy="117.63" data-y="25.79" data-x="1604534400" r="1" fill="white"><title>2020-11-05: 26</title></circle>
	<circle cx="418.47" cy="115.29" data-y="26.03" data-x="1604620800" r="1" fill="white"><title>2020-11-06: 26</title></circle>
	<circle cx="420.04" cy="122.31" data-y="25.33" data-x="1604707200" r="1" fill="white"><title>2020-11-07: 25</title></circle>
	<circle cx="421.60" cy="119.97" data-y="25.56" data-x="1604793600" r="1" fill="white"><title>2020-11-08: 26</title></circle>
	<circle cx="423.16" cy="115.29" data-y="26.03" data-x="1604880000" r="1" fill="white"><title>2020-11-09: 26</title></circle>
	<circle cx="424.72" cy="130.50" data-y="24.51" data-x="1604966400" r="1" fill="white"><title>2020-11-10: 25</title></circle>
	<circle cx="426.28" cy="141.03" data-y="23.45" data-x="1605052800" r="1" fill="white"><title>2020-11-11: 23</title></circle>
	<circle cx="427.84" cy="157.40" data-y="21.81" data-x="1605139200" r="1" fill="white"><title>2020-11-12: 22</title></circle>
	<circle cx="429.40" cy="163.25" data-y="21.22" data-x="1605225600" r="1" fill="white"><title>2020-11-13: 21</title></circle>
	<circle cx="430.96" cy="159.74" data-y="21.57" data-x="1605312000" r="1" fill="white"><title>2020-11-14: 22</title></circle>
	<circle cx="432.53" cy="158.57" data-y="21.69" data-x="1605398400" r="1" fill="white"><title>2020-11-15: 22</title></circle>
	<circle cx="434.09" cy="165.59" data-y="20.99" data-x="1605484800" r="1" fill="white"><title>2020-11-16: 21</title></circle>
	<circle cx="435.65" cy="170.27" data-y="20.52" data-x="1605571200" r="1" fill="white"><title>2020-11-17: 21</title></circle>
	<circle cx="437.21" cy="163.25" data-y="21.22" data-x="1605657600" r="1" fill="white"><title>2020-11-18: 21</title></circle>
	<circle cx="438.77" cy="162.08" data-y="21.34" data-x="1605744000" r="1" fill="white"><title>2020-11-19: 21</title></circle>
	<circle cx="440.33" cy="163.25" data-y="21.22" data-x="1605830400" r="1" fill="white"><title>2020-11-20: 21</title></circle>
	<circle cx="441.89" cy="156.23" data-y="21.93" data-x="1605916800" r="1" fill="white"><title>2020-11-21: 22</title></circle>
	<circle cx="443.46" cy="173.78" data-y="20.17" data-x="1606003200" r="1" fill="white"><title>2020-11-22: 20</title></circle>
	<circle cx="445.02" cy="194.84" data-y="18.06" data-x="1606089600" r="1" fill="white"><title>2020-11-23: 18</title></circle>
	<circle cx="446.58" cy="191.33" data-y="18.41" data-x="1606176000" r="1" fill="white"><title>2020-11-24: 18</title></circle>
	<circle cx="448.14" cy="199.52" data-y="17.59" data-x="1606262400" r="1" fill="white"><title>2020-11-25: 18</title></circle>
	<circle cx="449.70" cy="205.37" data-y="17.00" data-x="1606348800" r="1" fill="white"><title>2020-11-26: 17</title></circle>
	<circle cx="451.26" cy="204.20" data-y="17.12" data-x="1606435200" r="1" fill="white"><title>2020-11-27: 17</title></circle>
	<circle cx="452.82" cy="213.56" data-y="16.18" data-x="1606521600" r="1" fill="white"><title>2020-11-28: 16</title></circle>
	<circle cx="454.39" cy="207.71" data-y="16.77" data-x="1606608000" r="1" fill="white"><title>2020-11-29: 17</title></circle>
	<circle cx="455.95" cy="194.84" data-y="18.06" data-x="1606694400" r="1" fill="white"><title>2020-11-30: 18</title></circle>
	<circle cx="457.51" cy="193.67" data-y="18.17" data-x="1606780800" r="1" fill="white"><title>2020-12-01: 18</title></circle>
	<circle cx="459.07" cy="185.48" data-y="18.99" data-x="1606867200" r="1" fill="white"><title>2020-12-02: 19</title></circle>
	<circle cx="460.63" cy="169.10" data-y="20.64" data-x="1606953600" r="1" fill="white"><title>2020-12-03: 21</title></circle>
	<circle cx="462.19" cy="163.25" data-y="21.22" data-x="1607040000" r="1" fill="white"><title>2020-12-04: 21</title></circle>
</g>
<g data-series="recent-cases" class="data-series">
	<path d="M 462.19,163.25L 463.75,153.89L 465.32,177.29L 466.88,185.29L 468.44,183.38L 470.00,180.51" id="Recent cases" class="line" stroke-width="1" stroke-linecap="round" stroke-dasharray="4,6" stroke-dashoffset="4"><title>Recent cases</title></path>
	<circle cx="462.19" cy="163.25" data-y="21.22" data-x="1607040000" r="2.5" fill="white"><title>2020-12-04: 21</title></circle>
	<circle cx="463.75" cy="153.89" data-y="22.16" data-x="1607126400" r="2.5" fill="white"><title>2020-12-05: 22</title></circle>
	<circle cx="465.32" cy="177.29" data-y="19.82" data-x="1607212800" r="2.5" fill="white"><title>2020-12-06: 20</title></circle>
	<circle cx="466.88" cy="185.29" data-y="19.01" data-x="1607299200" r="2.5" fill="white"><title>2020-12-07: 19</title></circle>
	<circle cx="468.44" cy="183.38" data-y="19.21" data-x="1607385600" r="2.5" fill="white"><title>2020-12-08: 19</title></circle>
	<circle cx="470.00" cy="180.51" data-y="19.49" data-x="1607472000" r="2.5" fill="white"><title>2020-12-09: 19</title></circle>
</g>
</svg>
