<svg width="480" height="400" viewBox="0 0 480 400" xmlns="http://www.w3.org/2000/svg" style="overflow:display" preserveAspectRatio="xMinYMin meet" overflow="visible">
<defs>
	<style>
	.data-series path.line { fill-opacity: 0; stroke: black; }
	.data-series path.line.dotted { stroke-dasharray: 12 20 }
	.data-series:hover path.line, .data-series.on path.line { stroke-width: 1; }
	.data-series:hover circle, .data-series.on circle { display: inline; }
	.graph-grid { font-family: "Helvetica Neue",Helvetica,Arial,"Lucida Grande",sans-serif; }
	.graph-grid line { stroke: black; stroke-width: 1; stroke-linecap: round; }
	.graph-grid.graph-grid-x text { text-anchor: middle; dominant-baseline: hanging; transform: translateY(10px); }
	.graph-grid.graph-grid-y text { text-anchor: end; dominant-baseline: middle; transform: translateX(-10px); }
	</style>
</defs>
<g class="graph-grid graph-grid-y">
	<line x1="25.00" y1="375.00" x2="470.00" y2="375.00" data-left="25"></line>
	<text x="35" y="375" text-anchor="end">0</text>
	<text x="35" y="248.474270833333" text-anchor="end">5</text>
	<text x="35" y="121.948541666667" text-anchor="end">10</text>
	<text style="text-anchor:middle;dominant-baseline:hanging;font-weight:bold;transform: translateY(192.5px) rotate(-90deg);"></text>
</g>
<g class="graph-grid graph-grid-x">
	<line class="tick" x1="28.14" y1="375.00" x2="28.14" y2="380.00"></line>
	<text x="28.1448763250883" y="375" text-anchor="middle">M</text>
	<line class="tick" x1="76.89" y1="375.00" x2="76.89" y2="380.00"></line>
	<text x="76.8904593639576" y="375" text-anchor="middle">A</text>
	<line class="tick" x1="124.06" y1="375.00" x2="124.06" y2="380.00"></line>
	<text x="124.063604240283" y="375" text-anchor="middle">M</text>
	<line class="tick" x1="172.81" y1="375.00" x2="172.81" y2="380.00"></line>
	<text x="172.809187279152" y="375" text-anchor="middle">J</text>
	<line class="tick" x1="219.98" y1="375.00" x2="219.98" y2="380.00"></line>
	<text x="219.982332155477" y="375" text-anchor="middle">J</text>
	<line class="tick" x1="268.73" y1="375.00" x2="268.73" y2="380.00"></line>
	<text x="268.727915194346" y="375" text-anchor="middle">A</text>
	<line class="tick" x1="317.47" y1="375.00" x2="317.47" y2="380.00"></line>
	<text x="317.473498233216" y="375" text-anchor="middle">S</text>
	<line class="tick" x1="364.65" y1="375.00" x2="364.65" y2="380.00"></line>
	<text x="364.646643109541" y="375" text-anchor="middle">O</text>
	<line class="tick" x1="413.39" y1="375.00" x2="413.39" y2="380.00"></line>
	<text x="413.39222614841" y="375" text-anchor="middle">N</text>
	<line class="tick" x1="460.57" y1="375.00" x2="460.57" y2="380.00"></line>
	<text x="460.565371024735" y="375" text-anchor="middle">D</text>
	<text style="text-anchor:middle;dominant-baseline:hanging;font-weight:bold;transform: translateY(192.5px) rotate(-90deg);"></text>
</g>
<g data-series="widespread" class="data-series">
	<path d="M 25.00,197.86L 470.00,197.86" id="S12000034-level-0" class="line" stroke-width="1" stroke-linecap="round" stroke-dasharray="3,3" fill-opacity="0.3" opacity="0.3"><title>Widespread</title></path>
</g>
<g data-series="substantial" class="data-series">
	<path d="M 25.00,273.78L 470.00,273.78" id="S12000034-level-1" class="line" stroke-width="1" stroke-linecap="round" stroke-dasharray="3,3" fill-opacity="0.3" opacity="0.3"><title>Substantial</title></path>
</g>
<g data-series="moderate" class="data-series">
	<path d="M 25.00,349.69L 470.00,349.69" id="S12000034-level-2" class="line" stroke-width="1" stroke-linecap="round" stroke-dasharray="3,3" fill-opacity="0.3" opacity="0.3"><title>Moderate</title></path>
</g>
<g data-series="new-cases" class="data-series">
	<path d="M 25.00,375.00L 26.57,373.06L 28.14,373.39L 29.72,373.62L 31.29,373.62L 32.86,370.85L 34.43,369.47L 36.01,369.47L 37.58,369.47L 39.15,369.47L 40.72,366.70L 42.30,366.70L 43.87,369.47L 45.44,369.47L 47.01,369.47L 48.59,370.85L 50.16,370.85L 51.73,373.62L 53.30,370.85L 54.88,370.85L 56.45,372.23L 58.02,369.47L 59.59,366.70L 61.17,358.41L 62.74,354.26L 64.31,354.26L 65.88,348.73L 67.46,341.82L 69.03,332.14L 70.60,322.46L 72.17,312.78L 73.75,314.17L 75.32,307.25L 76.89,304.49L 78.46,305.87L 80.04,312.78L 81.61,318.31L 83.18,327.99L 84.75,319.70L 86.33,310.02L 87.90,300.34L 89.47,294.81L 91.04,285.13L 92.61,271.31L 94.19,271.31L 95.76,261.63L 97.33,251.95L 98.90,258.86L 100.48,263.01L 102.05,251.95L 103.62,245.04L 105.19,228.45L 106.77,227.06L 108.34,224.30L 109.91,229.83L 111.48,233.98L 113.06,253.33L 114.63,267.16L 116.20,282.37L 117.77,294.81L 119.35,308.64L 120.92,301.72L 122.49,300.34L 124.06,300.34L 125.64,304.49L 127.21,304.49L 128.78,304.49L 130.35,318.31L 131.93,316.93L 133.50,315.55L 135.07,301.72L 136.64,296.19L 138.22,300.34L 139.79,303.11L 141.36,304.49L 142.93,315.55L 144.51,321.08L 146.08,340.44L 147.65,355.64L 149.22,359.79L 150.80,362.56L 152.37,363.94L 153.94,365.32L 155.51,363.94L 157.08,365.32L 158.66,361.17L 160.23,361.17L 161.80,362.56L 163.37,363.94L 164.95,365.32L 166.52,366.70L 168.09,365.32L 169.66,365.32L 171.24,366.70L 172.81,369.47L 174.38,369.47L 175.95,369.47L 177.53,368.09L 179.10,368.09L 180.67,370.85L 182.24,370.85L 183.82,370.85L 185.39,368.09L 186.96,366.70L 188.53,368.09L 190.11,368.09L 191.68,368.09L 193.25,368.09L 194.82,368.09L 196.40,368.09L 197.97,369.47L 199.54,368.09L 201.11,369.47L 202.69,370.85L 204.26,370.85L 205.83,366.70L 207.40,368.09L 208.98,368.09L 210.55,369.47L 212.12,369.47L 213.69,368.09L 215.27,368.09L 216.84,369.47L 218.41,370.85L 219.98,370.85L 221.55,370.85L 223.13,369.47L 224.70,369.47L 226.27,369.47L 227.84,372.23L 229.42,372.23L 230.99,372.23L 232.56,370.85L 234.13,372.23L 235.71,373.62L 237.28,373.62L 238.85,372.23L 240.42,372.23L 242.00,372.23L 243.57,373.62L 245.14,373.62L 246.71,372.23L 248.29,370.85L 249.86,369.47L 251.43,369.47L 253.00,369.47L 254.58,369.47L 256.15,369.47L 257.72,369.47L 259.29,370.85L 260.87,370.85L 262.44,363.94L 264.01,359.79L 265.58,355.64L 267.16,351.50L 268.73,340.44L 270.30,322.46L 271.87,314.17L 273.45,315.55L 275.02,311.40L 276.59,305.87L 278.16,300.34L 279.73,297.58L 281.31,301.72L 282.88,304.49L 284.45,303.11L 286.02,307.25L 287.60,314.17L 289.17,321.08L 290.74,330.76L 292.31,340.44L 293.89,347.35L 295.46,354.26L 297.03,355.64L 298.60,358.41L 300.18,359.79L 301.75,361.17L 303.32,363.94L 304.89,363.94L 306.47,362.56L 308.04,363.94L 309.61,363.94L 311.18,365.32L 312.76,363.94L 314.33,361.17L 315.90,355.64L 317.47,354.26L 319.05,355.64L 320.62,352.88L 322.19,351.50L 323.76,357.03L 325.34,358.41L 326.91,363.94L 328.48,363.94L 330.05,363.94L 331.63,365.32L 333.20,366.70L 334.77,366.70L 336.34,365.32L 337.92,366.70L 339.49,359.79L 341.06,354.26L 342.63,348.73L 344.20,345.97L 345.78,341.82L 347.35,339.05L 348.92,333.52L 350.49,332.14L 352.07,332.14L 353.64,334.91L 355.21,329.38L 356.78,330.76L 358.36,329.38L 359.93,326.61L 361.50,330.76L 363.07,325.23L 364.65,321.08L 366.22,312.78L 367.79,308.64L 369.36,308.64L 370.94,305.87L 372.51,304.49L 374.08,310.02L 375.65,308.64L 377.23,307.25L 378.80,307.25L 380.37,303.11L 381.94,298.96L 383.52,296.19L 385.09,297.58L 386.66,296.19L 388.23,298.96L 389.81,293.43L 391.38,290.66L 392.95,289.28L 394.52,282.37L 396.10,264.39L 397.67,267.16L 399.24,263.01L 400.81,269.92L 402.39,271.31L 403.96,268.54L 405.53,276.84L 407.10,297.58L 408.67,297.58L 410.25,294.81L 411.82,287.90L 413.39,276.84L 414.96,280.98L 416.54,269.92L 418.11,261.63L 419.68,256.10L 421.25,238.12L 422.83,225.68L 424.40,209.09L 425.97,186.97L 427.54,175.91L 429.12,162.08L 430.69,153.79L 432.26,159.32L 433.83,138.58L 435.41,134.43L 436.98,137.20L 438.55,142.73L 440.12,146.88L 441.70,131.67L 443.27,91.57L 444.84,88.81L 446.41,80.51L 447.99,58.39L 449.56,33.50L 451.13,29.36L 452.70,21.06L 454.28,10.00L 455.85,29.36L 457.42,44.56L 458.99,62.54L 460.57,83.28L 462.14,72.22" id="New cases" class="line" stroke-width="1" stroke-linecap="round"><title>New cases</title></path>
	<circle cx="25.00" cy="375.00" data-y="0.00" data-x="1582848000" r="1" fill="white"><title>2020-02-28: 0</title></circle>
	<circle cx="26.57" cy="373.06" data-y="0.08" data-x="1582934400" r="1" fill="white"><title>2020-02-29: 0</title></circle>
	<circle cx="28.14" cy="373.39" data-y="0.06" data-x="1583020800" r="1" fill="white"><title>2020-03-01: 0</title></circle>
	<circle cx="29.72" cy="373.62" data-y="0.05" data-x="1583107200" r="1" fill="white"><title>2020-03-02: 0</title></circle>
	<circle cx="31.29" cy="373.62" data-y="0.05" data-x="1583193600" r="1" fill="white"><title>2020-03-03: 0</title></circle>
	<circle cx="32.86" cy="370.85" data-y="0.16" data-x="1583280000" r="1" fill="white"><title>2020-03-04: 0</title></circle>
	<circle cx="34.43" cy="369.47" data-y="0.22" data-x="1583366400" r="1" fill="white"><title>2020-03-05: 0</title></circle>
	<circle cx="36.01" cy="369.47" data-y="0.22" data-x="1583452800" r="1" fill="white"><title>2020-03-06: 0</title></circle>
	<circle cx="37.58" cy="369.47" data-y="0.22" data-x="1583539200" r="1" fill="white"><title>2020-03-07: 0</title></circle>
	<circle cx="39.15" cy="369.47" data-y="0.22" data-x="1583625600" r="1" fill="white"><title>2020-03-08: 0</title></circle>
	<circle cx="40.72" cy="366.70" data-y="0.33" data-x="1583712000" r="1" fill="white"><title>2020-03-09: 0</title></circle>
	<circle cx="42.30" cy="366.70" data-y="0.33" data-x="1583798400" r="1" fill="white"><title>2020-03-10: 0</title></circle>
	<circle cx="43.87" cy="369.47" data-y="0.22" data-x="1583884800" r="1" fill="white"><title>2020-03-11: 0</title></circle>
	<circle cx="45.44" cy="369.47" data-y="0.22" data-x="1583971200" r="1" fill="white"><title>2020-03-12: 0</title></circle>
	<circle cx="47.01" cy="369.47" data-y="0.22" data-x="1584057600" r="1" fill="white"><title>2020-03-13: 0</title></circle>
	<circle cx="48.59" cy="370.85" data-y="0.16" data-x="1584144000" r="1" fill="white"><title>2020-03-14: 0</title></circle>
	<circle cx="50.16" cy="370.85" data-y="0.16" data-x="1584230400" r="1" fill="white"><title>2020-03-15: 0</title></circle>
	<circle cx="51.73" cy="373.62" data-y="0.05" data-x="1584316800" r="1" fill="white"><title>2020-03-16: 0</title></circle>
	<circle cx="53.30" cy="370.85" data-y="0.16" data-x="1584403200" r="1" fill="white"><title>2020-03-17: 0</title></circle>
	<circle cx="54.88" cy="370.85" data-y="0.16" data-x="1584489600" r="1" fill="white"><title>2020-03-18: 0</title></circle>
	<circle cx="56.45" cy="372.23" data-y="0.11" data-x="1584576000" r="1" fill="white"><title>2020-03-19: 0</title></circle>
	<circle cx="58.02" cy="369.47" data-y="0.22" data-x="1584662400" r="1" fill="white"><title>2020-03-20: 0</title></circle>
	<circle cx="59.59" cy="366.70" data-y="0.33" data-x="1584748800" r="1" fill="white"><title>2020-03-21: 0</title></circle>
	<circle cx="61.17" cy="358.41" data-y="0.66" data-x="1584835200" r="1" fill="white"><title>2020-03-22: 1</title></circle>
	<circle cx="62.74" cy="354.26" data-y="0.82" data-x="1584921600" r="1" fill="white"><title>2020-03-23: 1</title></circle>
	<circle cx="64.31" cy="354.26" data-y="0.82" data-x="1585008000" r="1" fill="white"><title>2020-03-24: 1</title></circle>
	<circle cx="65.88" cy="348.73" data-y="1.04" data-x="1585094400" r="1" fill="white"><title>2020-03-25: 1</title></circle>
	<circle cx="67.46" cy="341.82" data-y="1.31" data-x="1585180800" r="1" fill="white"><title>2020-03-26: 1</title></circle>
	<circle cx="69.03" cy="332.14" data-y="1.69" data-x="1585267200" r="1" fill="white"><title>2020-03-27: 2</title></circle>
	<circle cx="70.60" cy="322.46" data-y="2.08" data-x="1585353600" r="1" fill="white"><title>2020-03-28: 2</title></circle>
	<circle cx="72.17" cy="312.78" data-y="2.46" data-x="1585440000" r="1" fill="white"><title>2020-03-29: 2</title></circle>
	<circle cx="73.75" cy="314.17" data-y="2.40" data-x="1585526400" r="1" fill="white"><title>2020-03-30: 2</title></circle>
	<circle cx="75.32" cy="307.25" data-y="2.68" data-x="1585612800" r="1" fill="white"><title>2020-03-31: 3</title></circle>
	<circle cx="76.89" cy="304.49" data-y="2.79" data-x="1585699200" r="1" fill="white"><title>2020-04-01: 3</title></circle>
	<circle cx="78.46" cy="305.87" data-y="2.73" data-x="1585785600" r="1" fill="white"><title>2020-04-02: 3</title></circle>
	<circle cx="80.04" cy="312.78" data-y="2.46" data-x="1585872000" r="1" fill="white"><title>2020-04-03: 2</title></circle>
	<circle cx="81.61" cy="318.31" data-y="2.24" data-x="1585958400" r="1" fill="white"><title>2020-04-04: 2</title></circle>
	<circle cx="83.18" cy="327.99" data-y="1.86" data-x="1586044800" r="1" fill="white"><title>2020-04-05: 2</title></circle>
	<circle cx="84.75" cy="319.70" data-y="2.19" data-x="1586131200" r="1" fill="white"><title>2020-04-06: 2</title></circle>
	<circle cx="86.33" cy="310.02" data-y="2.57" data-x="1586217600" r="1" fill="white"><title>2020-04-07: 3</title></circle>
	<circle cx="87.90" cy="300.34" data-y="2.95" data-x="1586304000" r="1" fill="white"><title>2020-04-08: 3</title></circle>
	<circle cx="89.47" cy="294.81" data-y="3.17" data-x="1586390400" r="1" fill="white"><title>2020-04-09: 3</title></circle>
	<circle cx="91.04" cy="285.13" data-y="3.55" data-x="1586476800" r="1" fill="white"><title>2020-04-10: 4</title></circle>
	<circle cx="92.61" cy="271.31" data-y="4.10" data-x="1586563200" r="1" fill="white"><title>2020-04-11: 4</title></circle>
	<circle cx="94.19" cy="271.31" data-y="4.10" data-x="1586649600" r="1" fill="white"><title>2020-04-12: 4</title></circle>
	<circle cx="95.76" cy="261.63" data-y="4.48" data-x="1586736000" r="1" fill="white"><title>2020-04-13: 4</title></circle>
	<circle cx="97.33" cy="251.95" data-y="4.86" data-x="1586822400" r="1" fill="white"><title>2020-04-14: 5</title></circle>
	<circle cx="98.90" cy="258.86" data-y="4.59" data-x="1586908800" r="1" fill="white"><title>2020-04-15: 5</title></circle>
	<circle cx="100.48" cy="263.01" data-y="4.43" data-x="1586995200" r="1" fill="white"><title>2020-04-16: 4</title></circle>
	<circle cx="102.05" cy="251.95" data-y="4.86" data-x="1587081600" r="1" fill="white"><title>2020-04-17: 5</title></circle>
	<circle cx="103.62" cy="245.04" data-y="5.14" data-x="1587168000" r="1" fill="white"><title>2020-04-18: 5</title></circle>
	<circle cx="105.19" cy="228.45" data-y="5.79" data-x="1587254400" r="1" fill="white"><title>2020-04-19: 6</title></circle>
	<circle cx="106.77" cy="227.06" data-y="5.85" data-x="1587340800" r="1" fill="white"><title>2020-04-20: 6</title></circle>
	<circle cx="108.34" cy="224.30" data-y="5.96" data-x="1587427200" r="1" fill="white"><title>2020-04-21: 6</title></circle>
	<circle cx="109.91" cy="229.83" data-y="5.74" data-x="1587513600" r="1" fill="white"><title>2020-04-22: 6</title></circle>
	<circle cx="111.48" cy="233.98" data-y="5.57" data-x="1587600000" r="1" fill="white"><title>2020-04-23: 6</title></circle>
	<circle cx="113.06" cy="253.33" data-y="4.81" data-x="1587686400" r="1" fill="white"><title>2020-04-24: 5</title></circle>
	<circle cx="114.63" cy="267.16" data-y="4.26" data-x="1587772800" r="1" fill="white"><title>2020-04-25: 4</title></circle>
	<circle cx="116.20" cy="282.37" data-y="3.66" data-x="1587859200" r="1" fill="white"><title>2020-04-26: 4</title></circle>
	<circle cx="117.77" cy="294.81" data-y="3.17" data-x="1587945600" r="1" fill="white"><title>2020-04-27: 3</title></circle>
	<circle cx="119.35" cy="308.64" data-y="2.62" data-x="1588032000" r="1" fill="white"><title>2020-04-28: 3</title></circle>
	<circle cx="120.92" cy="301.72" data-y="2.90" data-x="1588118400" r="1" fill="white"><title>2020-04-29: 3</title></circle>
	<circle cx="122.49" cy="300.34" data-y="2.95" data-x="1588204800" r="1" fill="white"><title>2020-04-30: 3</title></circle>
	<circle cx="124.06" cy="300.34" data-y="2.95" data-x="1588291200" r="1" fill="white"><title>2020-05-01: 3</title></circle>
	<circle cx="125.64" cy="304.49" data-y="2.79" data-x="1588377600" r="1" fill="white"><title>2020-05-02: 3</title></circle>
	<circle cx="127.21" cy="304.49" data-y="2.79" data-x="1588464000" r="1" fill="white"><title>2020-05-03: 3</title></circle>
	<circle cx="128.78" cy="304.49" data-y="2.79" data-x="1588550400" r="1" fill="white"><title>2020-05-04: 3</title></circle>
	<circle cx="130.35" cy="318.31" data-y="2.24" data-x="1588636800" r="1" fill="white"><title>2020-05-05: 2</title></circle>
	<circle cx="131.93" cy="316.93" data-y="2.29" data-x="1588723200" r="1" fill="white"><title>2020-05-06: 2</title></circle>
	<circle cx="133.50" cy="315.55" data-y="2.35" data-x="1588809600" r="1" fill="white"><title>2020-05-07: 2</title></circle>
	<circle cx="135.07" cy="301.72" data-y="2.90" data-x="1588896000" r="1" fill="white"><title>2020-05-08: 3</title></circle>
	<circle cx="136.64" cy="296.19" data-y="3.11" data-x="1588982400" r="1" fill="white"><title>2020-05-09: 3</title></circle>
	<circle cx="138.22" cy="300.34" data-y="2.95" data-x="1589068800" r="1" fill="white"><title>2020-05-10: 3</title></circle>
	<circle cx="139.79" cy="303.11" data-y="2.84" data-x="1589155200" r="1" fill="white"><title>2020-05-11: 3</title></circle>
	<circle cx="141.36" cy="304.49" data-y="2.79" data-x="1589241600" r="1" fill="white"><title>2020-05-12: 3</title></circle>
	<circle cx="142.93" cy="315.55" data-y="2.35" data-x="1589328000" r="1" fill="white"><title>2020-05-13: 2</title></circle>
	<circle cx="144.51" cy="321.08" data-y="2.13" data-x="1589414400" r="1" fill="white"><title>2020-05-14: 2</title></circle>
	<circle cx="146.08" cy="340.44" data-y="1.37" data-x="1589500800" r="1" fill="white"><title>2020-05-15: 1</title></circle>
	<circle cx="147.65" cy="355.64" data-y="0.76" data-x="1589587200" r="1" fill="white"><title>2020-05-16: 1</title></circle>
	<circle cx="149.22" cy="359.79" data-y="0.60" data-x="1589673600" r="1" fill="white"><title>2020-05-17: 1</title></circle>
	<circle cx="150.80" cy="362.56" data-y="0.49" data-x="1589760000" r="1" fill="white"><title>2020-05-18: 0</title></circle>
	<circle cx="152.37" cy="363.94" data-y="0.44" data-x="1589846400" r="1" fill="white"><title>2020-05-19: 0</title></circle>
	<circle cx="153.94" cy="365.32" data-y="0.38" data-x="1589932800" r="1" fill="white"><title>2020-05-20: 0</title></circle>
	<circle cx="155.51" cy="363.94" data-y="0.44" data-x="1590019200" r="1" fill="white"><title>2020-05-21: 0</title></circle>
	<circle cx="157.08" cy="365.32" data-y="0.38" data-x="1590105600" r="1" fill="white"><title>2020-05-22: 0</title></circle>
	<circle cx="158.66" cy="361.17" data-y="0.55" data-x="1590192000" r="1" fill="white"><title>2020-05-23: 1</title></circle>
	<circle cx="160.23" cy="361.17" data-y="0.55" data-x="1590278400" r="1" fill="white"><title>2020-05-24: 1</title></circle>
	<circle cx="161.80" cy="362.56" data-y="0.49" data-x="1590364800" r="1" fill="white"><title>2020-05-25: 0</title></circle>
	<circle cx="163.37" cy="363.94" data-y="0.44" data-x="1590451200" r="1" fill="white"><title>2020-05-26: 0</title></circle>
	<circle cx="164.95" cy="365.32" data-y="0.38" data-x="1590537600" r="1" fill="white"><title>2020-05-27: 0</title></circle>
	<circle cx="166.52" cy="366.70" data-y="0.33" data-x="1590624000" r="1" fill="white"><title>2020-05-28: 0</title></circle>
	<circle cx="168.09" cy="365.32" data-y="0.38" data-x="1590710400" r="1" fill="white"><title>2020-05-29: 0</title></circle>
	<circle cx="169.66" cy="365.32" data-y="0.38" data-x="1590796800" r="1" fill="white"><title>2020-05-30: 0</title></circle>
	<circle cx="171.24" cy="366.70" data-y="0.33" data-x="1590883200" r="1" fill="white"><title>2020-05-31: 0</title></circle>
	<circle cx="172.81" cy="369.47" data-y="0.22" data-x="1590969600" r="1" fill="white"><title>2020-06-01: 0</title></circle>
	<circle cx="174.38" cy="369.47" data-y="0.22" data-x="1591056000" r="1" fill="white"><title>2020-06-02: 0</title></circle>
	<circle cx="175.95" cy="369.47" data-y="0.22" data-x="1591142400" r="1" fill="white"><title>2020-06-03: 0</title></circle>
	<circle cx="177.53" cy="368.09" data-y="0.27" data-x="1591228800" r="1" fill="white"><title>2020-06-04: 0</title></circle>
	<circle cx="179.10" cy="368.09" data-y="0.27" data-x="1591315200" r="1" fill="white"><title>2020-06-05: 0</title></circle>
	<circle cx="180.67" cy="370.85" data-y="0.16" data-x="1591401600" r="1" fill="white"><title>2020-06-06: 0</title></circle>
	<circle cx="182.24" cy="370.85" data-y="0.16" data-x="1591488000" r="1" fill="white"><title>2020-06-07: 0</title></circle>
	<circle cx="183.82" cy="370.85" data-y="0.16" data-x="1591574400" r="1" fill="white"><title>2020-06-08: 0</title></circle>
	<circle cx="185.39" cy="368.09" data-y="0.27" data-x="1591660800" r="1" fill="white"><title>2020-06-09: 0</title></circle>
	<circle cx="186.96" cy="366.70" data-y="0.33" data-x="1591747200" r="1" fill="white"><title>2020-06-10: 0</title></circle>
	<circle cx="188.53" cy="368.09" data-y="0.27" data-x="1591833600" r="1" fill="white"><title>2020-06-11: 0</title></circle>
	<circle cx="190.11" cy="368.09" data-y="0.27" data-x="1591920000" r="1" fill="white"><title>2020-06-12: 0</title></circle>
	<circle cx="191.68" cy="368.09" data-y="0.27" data-x="1592006400" r="1" fill="white"><title>2020-06-13: 0</title></circle>
	<circle cx="193.25" cy="368.09" data-y="0.27" data-x="1592092800" r="1" fill="white"><title>2020-06-14: 0</title></circle>
	<circle cx="194.82" cy="368.09" data-y="0.27" data-x="1592179200" r="1" fill="white"><title>2020-06-15: 0</title></circle>
	<circle cx="196.40" cy="368.09" data-y="0.27" data-x="1592265600" r="1" fill="white"><title>2020-06-16: 0</title></circle>
	<circle cx="197.97" cy="369.47" data-y="0.22" data-x="1592352000" r="1" fill="white"><title>2020-06-17: 0</title></circle>
	<circle cx="199.54" cy="368.09" data-y="0.27" data-x="1592438400" r="1" fill="white"><title>2020-06-18: 0</title></circle>
	<circle cx="201.11" cy="369.47" data-y="0.22" data-x="1592524800" r="1" fill="white"><title>2020-06-19: 0</title></circle>
	<circle cx="202.69" cy="370.85" data-y="0.16" data-x="1592611200" r="1" fill="white"><title>2020-06-20: 0</title></circle>
	<circle cx="204.26" cy="370.85" data-y="0.16" data-x="1592697600" r="1" fill="white"><title>2020-06-21: 0</title></circle>
	<circle cx="205.83" cy="366.70" data-y="0.33" data-x="1592784000" r="1" fill="white"><title>2020-06-22: 0</title></circle>
	<circle cx="207.40" cy="368.09" data-y="0.27" data-x="1592870400" r="1" fill="white"><title>2020-06-23: 0</title></circle>
	<circle cx="208.98" cy="368.09" data-y="0.27" data-x="1592956800" r="1" fill="white"><title>2020-06-24: 0</title></circle>
	<circle cx="210.55" cy="369.47" data-y="0.22" data-x="1593043200" r="1" fill="white"><title>2020-06-25: 0</title></circle>
	<circle cx="212.12" cy="369.47" data-y="0.22" data-x="1593129600" r="1" fill="white"><title>2020-06-26: 0</title></circle>
	<circle cx="213.69" cy="368.09" data-y="0.27" data-x="1593216000" r="1" fill="white"><title>2020-06-27: 0</title></circle>
	<circle cx="215.27" cy="368.09" data-y="0.27" data-x="1593302400" r="1" fill="white"><title>2020-06-28: 0</title></circle>
	<circle cx="216.84" cy="369.47" data-y="0.22" data-x="1593388800" r="1" fill="white"><title>2020-06-29: 0</title></circle>
	<circle cx="218.41" cy="370.85" data-y="0.16" data-x="1593475200" r="1" fill="white"><title>2020-06-30: 0</title></circle>
	<circle cx="219.98" cy="370.85" data-y="0.16" data-x="1593561600" r="1" fill="white"><title>2020-07-01: 0</title></circle>
	<circle cx="221.55" cy="370.85" data-y="0.16" data-x="1593648000" r="1" fill="white"><title>2020-07-02: 0</title></circle>
	<circle cx="223.13" cy="369.47" data-y="0.22" data-x="1593734400" r="1" fill="white"><title>2020-07-03: 0</title></circle>
	<circle cx="224.70" cy="369.47" data-y="0.22" data-x="1593820800" r="1" fill="white"><title>2020-07-04: 0</title></circle>
	<circle cx="226.27" cy="369.47" data-y="0.22" data-x="1593907200" r="1" fill="white"><title>2020-07-05: 0</title></circle>
	<circle cx="227.84" cy="372.23" data-y="0.11" data-x="1593993600" r="1" fill="white"><title>2020-07-06: 0</title></circle>
	<circle cx="229.42" cy="372.23" data-y="0.11" data-x="1594080000" r="1" fill="white"><title>2020-07-07: 0</title></circle>
	<circle cx="230.99" cy="372.23" data-y="0.11" data-x="1594166400" r="1" fill="white"><title>2020-07-08: 0</title></circle>
	<circle cx="232.56" cy="370.85" data-y="0.16" data-x="1594252800" r="1" fill="white"><title>2020-07-09: 0</title></circle>
	<circle cx="234.13" cy="372.23" data-y="0.11" data-x="1594339200" r="1" fill="white"><title>2020-07-10: 0</title></circle>
	<circle cx="235.71" cy="373.62" data-y="0.05" data-x="1594425600" r="1" fill="white"><title>2020-07-11: 0</title></circle>
	<circle cx="237.28" cy="373.62" data-y="0.05" data-x="1594512000" r="1" fill="white"><title>2020-07-12: 0</title></circle>
	<circle cx="238.85" cy="372.23" data-y="0.11" data-x="1594598400" r="1" fill="white"><title>2020-07-13: 0</title></circle>
	<circle cx="240.42" cy="372.23" data-y="0.11" data-x="1594684800" r="1" fill="white"><title>2020-07-14: 0</title></circle>
	<circle cx="242.00" cy="372.23" data-y="0.11" data-x="1594771200" r="1" fill="white"><title>2020-07-15: 0</title></circle>
	<circle cx="243.57" cy="373.62" data-y="0.05" data-x="1594857600" r="1" fill="white"><title>2020-07-16: 0</title></circle>
	<circle cx="245.14" cy="373.62" data-y="0.05" data-x="1594944000" r="1" fill="white"><title>2020-07-17: 0</title></circle>
	<circle cx="246.71" cy="372.23" data-y="0.11" data-x="1595030400" r="1" fill="white"><title>2020-07-18: 0</title></circle>
	<circle cx="248.29" cy="370.85" data-y="0.16" data-x="1595116800" r="1" fill="white"><title>2020-07-19: 0</title></circle>
	<circle cx="249.86" cy="369.47" data-y="0.22" data-x="1595203200" r="1" fill="white"><title>2020-07-20: 0</title></circle>
	<circle cx="251.43" cy="369.47" data-y="0.22" data-x="1595289600" r="1" fill="white"><title>2020-07-21: 0</title></circle>
	<circle cx="253.00" cy="369.47" data-y="0.22" data-x="1595376000" r="1" fill="white"><title>2020-07-22: 0</title></circle>
	<circle cx="254.58" cy="369.47" data-y="0.22" data-x="1595462400" r="1" fill="white"><title>2020-07-23: 0</title></circle>
	<circle cx="256.15" cy="369.47" data-y="0.22" data-x="1595548800" r="1" fill="white"><title>2020-07-24: 0</title></circle>
	<circle cx="257.72" cy="369.47" data-y="0.22" data-x="1595635200" r="1" fill="white"><title>2020-07-25: 0</title></circle>
	<circle cx="259.29" cy="370.85" data-y="0.16" data-x="1595721600" r="1" fill="white"><title>2020-07-26: 0</title></circle>
	<circle cx="260.87" cy="370.85" data-y="0.16" data-x="1595808000" r="1" fill="white"><title>2020-07-27: 0</title></circle>
	<circle cx="262.44" cy="363.94" data-y="0.44" data-x="1595894400" r="1" fill="white"><title>2020-07-28: 0</title></circle>
	<circle cx="264.01" cy="359.79" data-y="0.60" data-x="1595980800" r="1" fill="white"><title>2020-07-29: 1</title></circle>
	<circle cx="265.58" cy="355.64" data-y="0.76" data-x="1596067200" r="1" fill="white"><title>2020-07-30: 1</title></circle>
	<circle cx="267.16" cy="351.50" data-y="0.93" data-x="1596153600" r="1" fill="white"><title>2020-07-31: 1</title></circle>
	<circle cx="268.73" cy="340.44" data-y="1.37" data-x="1596240000" r="1" fill="white"><title>2020-08-01: 1</title></circle>
	<circle cx="270.30" cy="322.46" data-y="2.08" data-x="1596326400" r="1" fill="white"><title>2020-08-02: 2</title></circle>
	<circle cx="271.87" cy="314.17" data-y="2.40" data-x="1596412800" r="1" fill="white"><title>2020-08-03: 2</title></circle>
	<circle cx="273.45" cy="315.55" data-y="2.35" data-x="1596499200" r="1" fill="white"><title>2020-08-04: 2</title></circle>
	<circle cx="275.02" cy="311.40" data-y="2.51" data-x="1596585600" r="1" fill="white"><title>2020-08-05: 3</title></circle>
	<circle cx="276.59" cy="305.87" data-y="2.73" data-x="1596672000" r="1" fill="white"><title>2020-08-06: 3</title></circle>
	<circle cx="278.16" cy="300.34" data-y="2.95" data-x="1596758400" r="1" fill="white"><title>2020-08-07: 3</title></circle>
	<circle cx="279.73" cy="297.58" data-y="3.06" data-x="1596844800" r="1" fill="white"><title>2020-08-08: 3</title></circle>
	<circle cx="281.31" cy="301.72" data-y="2.90" data-x="1596931200" r="1" fill="white"><title>2020-08-09: 3</title></circle>
	<circle cx="282.88" cy="304.49" data-y="2.79" data-x="1597017600" r="1" fill="white"><title>2020-08-10: 3</title></circle>
	<circle cx="284.45" cy="303.11" data-y="2.84" data-x="1597104000" r="1" fill="white"><title>2020-08-11: 3</title></circle>
	<circle cx="286.02" cy="307.25" data-y="2.68" data-x="1597190400" r="1" fill="white"><title>2020-08-12: 3</title></circle>
	<circle cx="287.60" cy="314.17" data-y="2.40" data-x="1597276800" r="1" fill="white"><title>2020-08-13: 2</title></circle>
	<circle cx="289.17" cy="321.08" data-y="2.13" data-x="1597363200" r="1" fill="white"><title>2020-08-14: 2</title></circle>
	<circle cx="290.74" cy="330.76" data-y="1.75" data-x="1597449600" r="1" fill="white"><title>2020-08-15: 2</title></circle>
	<circle cx="292.31" cy="340.44" data-y="1.37" data-x="1597536000" r="1" fill="white"><title>2020-08-16: 1</title></circle>
	<circle cx="293.89" cy="347.35" data-y="1.09" data-x="1597622400" r="1" fill="white"><title>2020-08-17: 1</title></circle>
	<circle cx="295.46" cy="354.26" data-y="0.82" data-x="1597708800" r="1" fill="white"><title>2020-08-18: 1</title></circle>
	<circle cx="297.03" cy="355.64" data-y="0.76" data-x="1597795200" r="1" fill="white"><title>2020-08-19: 1</title></circle>
	<circle cx="298.60" cy="358.41" data-y="0.66" data-x="1597881600" r="1" fill="white"><title>2020-08-20: 1</title></circle>
	<circle cx="300.18" cy="359.79" data-y="0.60" data-x="1597968000" r="1" fill="white"><title>2020-08-21: 1</title></circle>
	<circle cx="301.75" cy="361.17" data-y="0.55" data-x="1598054400" r="1" fill="white"><title>2020-08-22: 1</title></circle>
	<circle cx="303.32" cy="363.94" data-y="0.44" data-x="1598140800" r="1" fill="white"><title>2020-08-23: 0</title></circle>
	<circle cx="304.89" cy="363.94" data-y="0.44" data-x="1598227200" r="1" fill="white"><title>2020-08-24: 0</title></circle>
	<circle cx="306.47" cy="362.56" data-y="0.49" data-x="1598313600" r="1" fill="white"><title>2020-08-25: 0</title></circle>
	<circle cx="308.04" cy="363.94" data-y="0.44" data-x="1598400000" r="1" fill="white"><title>2020-08-26: 0</title></circle>
	<circle cx="309.61" cy="363.94" data-y="0.44" data-x="1598486400" r="1" fill="white"><title>2020-08-27: 0</title></circle>
	<circle cx="311.18" cy="365.32" data-y="0.38" data-x="1598572800" r="1" fill="white"><title>2020-08-28: 0</title></circle>
	<circle cx="312.76" cy="363.94" data-y="0.44" data-x="1598659200" r="1" fill="white"><title>2020-08-29: 0</title></circle>
	<circle cx="314.33" cy="361.17" data-y="0.55" data-x="1598745600" r="1" fill="white"><title>2020-08-30: 1</title></circle>
	<circle cx="315.90" cy="355.64" data-y="0.76" data-x="1598832000" r="1" fill="white"><title>2020-08-31: 1</title></circle>
	<circle cx="317.47" cy="354.26" data-y="0.82" data-x="1598918400" r="1" fill="white"><title>2020-09-01: 1</title></circle>
	<circle cx="319.05" cy="355.64" data-y="0.76" data-x="1599004800" r="1" fill="white"><title>2020-09-02: 1</title></circle>
	<circle cx="320.62" cy="352.88" data-y="0.87" data-x="1599091200" r="1" fill="white"><title>2020-09-03: 1</title></circle>
	<circle cx="322.19" cy="351.50" data-y="0.93" data-x="1599177600" r="1" fill="white"><title>2020-09-04: 1</title></circle>
	<circle cx="323.76" cy="357.03" data-y="0.71" data-x="1599264000" r="1" fill="white"><title>2020-09-05: 1</title></circle>
	<circle cx="325.34" cy="358.41" data-y="0.66" data-x="1599350400" r="1" fill="white"><title>2020-09-06: 1</title></circle>
	<circle cx="326.91" cy="363.94" data-y="0.44" data-x="1599436800" r="1" fill="white"><title>2020-09-07: 0</title></circle>
	<circle cx="328.48" cy="363.94" data-y="0.44" data-x="1599523200" r="1" fill="white"><title>2020-09-08: 0</title></circle>
	<circle cx="330.05" cy="363.94" data-y="0.44" data-x="1599609600" r="1" fill="white"><title>2020-09-09: 0</title></circle>
	<circle cx="331.63" cy="365.32" data-y="0.38" data-x="1599696000" r="1" fill="white"><title>2020-09-10: 0</title></circle>
	<circle cx="333.20" cy="366.70" data-y="0.33" data-x="1599782400" r="1" fill="white"><title>2020-09-11: 0</title></circle>
	<circle cx="334.77" cy="366.70" data-y="0.33" data-x="1599868800" r="1" fill="white"><title>2020-09-12: 0</title></circle>
	<circle cx="336.34" cy="365.32" data-y="0.38" data-x="1599955200" r="1" fill="white"><title>2020-09-13: 0</title></circle>
	<circle cx="337.92" cy="366.70" data-y="0.33" data-x="1600041600" r="1" fill="white"><title>2020-09-14: 0</title></circle>
	<circle cx="339.49" cy="359.79" data-y="0.60" data-x="1600128000" r="1" fill="white"><title>2020-09-15: 1</title></circle>
	<circle cx="341.06" cy="354.26" data-y="0.82" data-x="1600214400" r="1" fill="white"><title>2020-09-16: 1</title></circle>
	<circle cx="342.63" cy="348.73" data-y="1.04" data-x="1600300800" r="1" fill="white"><title>2020-09-17: 1</title></circle>
	<circle cx="344.20" cy="345.97" data-y="1.15" data-x="1600387200" r="1" fill="white"><title>2020-09-18: 1</title></circle>
	<circle cx="345.78" cy="341.82" data-y="1.31" data-x="1600473600" r="1" fill="white"><title>2020-09-19: 1</title></circle>
	<circle cx="347.35" cy="339.05" data-y="1.42" data-x="1600560000" r="1" fill="white"><title>2020-09-20: 1</title></circle>
	<circle cx="348.92" cy="333.52" data-y="1.64" data-x="1600646400" r="1" fill="white"><title>2020-09-21: 2</title></circle>
	<circle cx="350.49" cy="332.14" data-y="1.69" data-x="1600732800" r="1" fill="white"><title>2020-09-22: 2</title></circle>
	<circle cx="352.07" cy="332.14" data-y="1.69" data-x="1600819200" r="1" fill="white"><title>2020-09-23: 2</title></circle>
	<circle cx="353.64" cy="334.91" data-y="1.58" data-x="1600905600" r="1" fill="white"><title>2020-09-24: 2</title></circle>
	<circle cx="355.21" cy="329.38" data-y="1.80" data-x="1600992000" r="1" fill="white"><title>2020-09-25: 2</title></circle>
	<circle cx="356.78" cy="330.76" data-y="1.75" data-x="1601078400" r="1" fill="white"><title>2020-09-26: 2</title></circle>
	<circle cx="358.36" cy="329.38" data-y="1.80" data-x="1601164800" r="1" fill="white"><title>2020-09-27: 2</title></circle>
	<circle cx="359.93" cy="326.61" data-y="1.91" data-x="1601251200" r="1" fill="white"><title>2020-09-28: 2</title></circle>
	<circle cx="361.50" cy="330.76" data-y="1.75" data-x="1601337600" r="1" fill="white"><title>2020-09-29: 2</title></circle>
	<circle cx="363.07" cy="325.23" data-y="1.97" data-x="1601424000" r="1" fill="white"><title>2020-09-30: 2</title></circle>
	<circle cx="364.65" cy="321.08" data-y="2.13" data-x="1601510400" r="1" fill="white"><title>2020-10-01: 2</title></circle>
	<circle cx="366.22" cy="312.78" data-y="2.46" data-x="1601596800" r="1" fill="white"><title>2020-10-02: 2</title></circle>
	<circle cx="367.79" cy="308.64" data-y="2.62" data-x="1601683200" r="1" fill="white"><title>2020-10-03: 3</title></circle>
	<circle cx="369.36" cy="308.64" data-y="2.62" data-x="1601769600" r="1" fill="white"><title>2020-10-04: 3</title></circle>
	<circle cx="370.94" cy="305.87" data-y="2.73" data-x="1601856000" r="1" fill="white"><title>2020-10-05: 3</title></circle>
	<circle cx="372.51" cy="304.49" data-y="2.79" data-x="1601942400" r="1" fill="white"><title>2020-10-06: 3</title></circle>
	<circle cx="374.08" cy="310.02" data-y="2.57" data-x="1602028800" r="1" fill="white"><title>2020-10-07: 3</title></circle>
	<circle cx="375.65" cy="308.64" data-y="2.62" data-x="1602115200" r="1" fill="white"><title>2020-10-08: 3</title></circle>
	<circle cx="377.23" cy="307.25" data-y="2.68" data-x="1602201600" r="1" fill="white"><title>2020-10-09: 3</title></circle>
	<circle cx="378.80" cy="307.25" data-y="2.68" data-x="1602288000" r="1" fill="white"><title>2020-10-10: 3</title></circle>
	<circle cx="380.37" cy="303.11" data-y="2.84" data-x="1602374400" r="1" fill="white"><title>2020-10-11: 3</title></circle>
	<circle cx="381.94" cy="298.96" data-y="3.00" data-x="1602460800" r="1" fill="white"><title>2020-10-12: 3</title></circle>
	<circle cx="383.52" cy="296.19" data-y="3.11" data-x="1602547200" r="1" fill="white"><title>2020-10-13: 3</title></circle>
	<circle cx="385.09" cy="297.58" data-y="3.06" data-x="1602633600" r="1" fill="white"><title>2020-10-14: 3</title></circle>
	<circle cx="386.66" cy="296.19" data-y="3.11" data-x="1602720000" r="1" fill="white"><title>2020-10-15: 3</title></circle>
	<circle cx="388.23" cy="298.96" data-y="3.00" data-x="1602806400" r="1" fill="white"><title>2020-10-16: 3</title></circle>
	<circle cx="389.81" cy="293.43" data-y="3.22" data-x="1602892800" r="1" fill="white"><title>2020-10-17: 3</title></circle>
	<circle cx="391.38" cy="290.66" data-y="3.33" data-x="1602979200" r="1" fill="white"><title>2020-10-18: 3</title></circle>
	<circle cx="392.95" cy="289.28" data-y="3.39" data-x="1603065600" r="1" fill="white"><title>2020-10-19: 3</title></circle>
	<circle cx="394.52" cy="282.37" data-y="3.66" data-x="1603152000" r="1" fill="white"><title>2020-10-20: 4</title></circle>
	<circle cx="396.10" cy="264.39" data-y="4.37" data-x="1603238400" r="1" fill="white"><title>2020-10-21: 4</title></circle>
	<circle cx="397.67" cy="267.16" data-y="4.26" data-x="1603324800" r="1" fill="white"><title>2020-10-22: 4</title></circle>
	<circle cx="399.24" cy="263.01" data-y="4.43" data-x="1603411200" r="1" fill="white"><title>2020-10-23: 4</title></circle>
	<circle cx="400.81" cy="269.92" data-y="4.15" data-x="1603497600" r="1" fill="white"><title>2020-10-24: 4</title></circle>
	<circle cx="402.39" cy="271.31" data-y="4.10" data-x="1603584000" r="1" fill="white"><title>2020-10-25: 4</title></circle>
	<circle cx="403.96" cy="268.54" data-y="4.21" data-x="1603670400" r="1" fill="white"><title>2020-10-26: 4</title></circle>
	<circle cx="405.53" cy="276.84" data-y="3.88" data-x="1603756800" r="1" fill="white"><title>2020-10-27: 4</title></circle>
	<circle cx="407.10" cy="297.58" data-y="3.06" data-x="1603843200" r="1" fill="white"><title>2020-10-28: 3</title></circle>
	<circle cx="408.67" cy="297.58" data-y="3.06" data-x="1603929600" r="1" fill="white"><title>2020-10-29: 3</title></circle>
	<circle cx="410.25" cy="294.81" data-y="3.17" data-x="1604016000" r="1" fill="white"><title>2020-10-30: 3</title></circle>
	<circle cx="411.82" cy="287.90" data-y="3.44" data-x="1604102400" r="1" fill="white"><title>2020-10-31: 3</title></circle>
	<circle cx="413.39" cy="276.84" data-y="3.88" data-x="1604188800" r="1" fill="white"><title>2020-11-01: 4</title></circle>
	<circle cx="414.96" cy="280.98" data-y="3.72" data-x="1604275200" r="1" fill="white"><title>2020-11-02: 4</title></circle>
	<circle cx="416.54" cy="269.92" data-y="4.15" data-x="1604361600" r="1" fill="white"><title>2020-11-03: 4</title></circle>
	<circle cx="418.11" cy="261.63" data-y="4.48" data-x="1604448000" r="1" fill="white"><title>2020-11-04: 4</title></circle>
	<circle cx="419.68" cy="256.10" data-y="4.70" data-x="1604534400" r="1" fill="white"><title>2020-11-05: 5</title></circle>
	<circle cx="421.25" cy="238.12" data-y="5.41" data-x="1604620800" r="1" fill="white"><title>2020-11-06: 5</title></circle>
	<circle cx="422.83" cy="225.68" data-y="5.90" data-x="1604707200" r="1" fill="white"><title>2020-11-07: 6</title></circle>
	<circle cx="424.40" cy="209.09" data-y="6.56" data-x="1604793600" r="1" fill="white"><title>2020-11-08: 7</title></circle>
	<circle cx="425.97" cy="186.97" data-y="7.43" data-x="1604880000" r="1" fill="white"><title>2020-11-09: 7</title></circle>
	<circle cx="427.54" cy="175.91" data-y="7.87" data-x="1604966400" r="1" fill="white"><title>2020-11-10: 8</title></circle>
	<circle cx="429.12" cy="162.08" data-y="8.41" data-x="1605052800" r="1" fill="white"><title>2020-11-11: 8</title></circle>
	<circle cx="430.69" cy="153.79" data-y="8.74" data-x="1605139200" r="1" fill="white"><title>2020-11-12: 9</title></circle>
	<circle cx="432.26" cy="159.32" data-y="8.52" data-x="1605225600" r="1" fill="white"><title>2020-11-13: 9</title></circle>
	<circle cx="433.83" cy="138.58" data-y="9.34" data-x="1605312000" r="1" fill="white"><title>2020-11-14: 9</title></circle>
	<circle cx="435.41" cy="134.43" data-y="9.51" data-x="1605398400" r="1" fill="white"><title>2020-11-15: 10</title></circle>
	<circle cx="436.98" cy="137.20" data-y="9.40" data-x="1605484800" r="1" fill="white"><title>2020-11-16: 9</title></circle>
	<circle cx="438.55" cy="142.73" data-y="9.18" data-x="1605571200" r="1" fill="white"><title>2020-11-17: 9</title></circle>
	<circle cx="440.12" cy="146.88" data-y="9.01" data-x="1605657600" r="1" fill="white"><title>2020-11-18: 9</title></circle>
	<circle cx="441.70" cy="131.67" data-y="9.62" data-x="1605744000" r="1" fill="white"><title>2020-11-19: 10</title></circle>
	<circle cx="443.27" cy="91.57" data-y="11.20" data-x="1605830400" r="1" fill="white"><title>2020-11-20: 11</title></circle>
	<circle cx="444.84" cy="88.81" data-y="11.31" data-x="1605916800" r="1" fill="white"><title>2020-11-21: 11</title></circle>
	<circle cx="446.41" cy="80.51" data-y="11.64" data-x="1606003200" r="1" fill="white"><title>2020-11-22: 12</title></circle>
	<circle cx="447.99" cy="58.39" data-y="12.51" data-x="1606089600" r="1" fill="white"><title>2020-11-23: 13</title></circle>
	<circle cx="449.56" cy="33.50" data-y="13.50" data-x="1606176000" r="1" fill="white"><title>2020-11-24: 13</title></circle>
	<circle cx="451.13" cy="29.36" data-y="13.66" data-x="1606262400" r="1" fill="white"><title>2020-11-25: 14</title></circle>
	<circle cx="452.70" cy="21.06" data-y="13.99" data-x="1606348800" r="1" fill="white"><title>2020-11-26: 14</title></circle>
	<circle cx="454.28" cy="10.00" data-y="14.42" data-x="1606435200" r="1" fill="white"><title>2020-11-27: 14</title></circle>
	<circle cx="455.85" cy="29.36" data-y="13.66" data-x="1606521600" r="1" fill="white"><title>2020-11-28: 14</title></circle>
	<circle cx="457.42" cy="44.56" data-y="13.06" data-x="1606608000" r="1" fill="white"><title>2020-11-29: 13</title></circle>
	<circle cx="458.99" cy="62.54" data-y="12.35" data-x="1606694400" r="1" fill="white"><title>2020-11-30: 12</title></circle>
	<circle cx="460.57" cy="83.28" data-y="11.53" data-x="1606780800" r="1" fill="white"><title>2020-12-01: 12</title></circle>
	<circle cx="462.14" cy="72.22" data-y="11.97" data-x="1606867200" r="1" fill="white"><title>2020-12-02: 12</title></circle>
</g>
<g data-series="recent-cases" class="data-series">
	<path d="M 462.14,72.22L 463.71,91.57L 465.28,164.85L 466.86,163.70L 468.43,175.63L 470.00,193.54" id="Recent cases" class="line" stroke-width="1" stroke-linecap="round" stroke-dasharray="4,6" stroke-dashoffset="4"><title>Recent cases</title></path>
	<circle cx="462.14" cy="72.22" data-y="11.97" data-x="1606867200" r="2.5" fill="white"><title>2020-12-02: 12</title></circle>
	<circle cx="463.71" cy="91.57" data-y="11.20" data-x="1606953600" r="2.5" fill="white"><title>2020-12-03: 11</title></circle>
	<circle cx="465.28" cy="164.85" data-y="8.30" data-x="1607040000" r="2.5" fill="white"><title>2020-12-04: 8</title></circle>
	<circle cx="466.86" cy="163.70" data-y="8.35" data-x="1607126400" r="2.5" fill="white"><title>2020-12-05: 8</title></circle>
	<circle cx="468.43" cy="175.63" data-y="7.88" data-x="1607212800" r="2.5" fill="white"><title>2020-12-06: 8</title></circle>
	<circle cx="470.00" cy="193.54" data-y="7.17" data-x="1607299200" r="2.5" fill="white"><title>2020-12-07: 7</title></circle>
</g>
</svg>
