<svg width="480" height="400" viewBox="0 0 480 400" xmlns="http://www.w3.org/2000/svg" style="overflow:display" preserveAspectRatio="xMinYMin meet" overflow="visible">
<defs>
	<style>
	.data-series path.line { fill-opacity: 0; stroke: black; }
	.data-series path.line.dotted { stroke-dasharray: 12 20 }
	.data-series:hover path.line, .data-series.on path.line { stroke-width: 1; }
	.data-series:hover circle, .data-series.on circle { display: inline; }
	.graph-grid { font-family: "Helvetica Neue",Helvetica,Arial,"Lucida Grande",sans-serif; }
	.graph-grid line { stroke: black; stroke-width: 1; stroke-linecap: round; }
	.graph-grid.graph-grid-x text { text-anchor: middle; dominant-baseline: hanging; transform: translateY(10px); }
	.graph-grid.graph-grid-y text { text-anchor: end; dominant-baseline: middle; transform: translateX(-10px); }
	</style>
</defs>
<g class="graph-grid graph-grid-y">
	<line x1="25.00" y1="375.00" x2="470.00" y2="375.00" data-left="25"></line>
	<text x="35" y="375" text-anchor="end">0</text>
	<text x="35" y="277.760958333333" text-anchor="end">5</text>
	<text x="35" y="180.521916666667" text-anchor="end">10</text>
	<text x="35" y="83.282875" text-anchor="end">15</text>
	<text style="text-anchor:middle;dominant-baseline:hanging;font-weight:bold;transform: translateY(192.5px) rotate(-90deg);"></text>
</g>
<g class="graph-grid graph-grid-x">
	<line class="tick" x1="28.30" y1="375.00" x2="28.30" y2="380.00"></line>
	<text x="28.2962962962963" y="375" text-anchor="middle">M</text>
	<line class="tick" x1="79.39" y1="375.00" x2="79.39" y2="380.00"></line>
	<text x="79.3888888888889" y="375" text-anchor="middle">A</text>
	<line class="tick" x1="128.83" y1="375.00" x2="128.83" y2="380.00"></line>
	<text x="128.833333333333" y="375" text-anchor="middle">M</text>
	<line class="tick" x1="179.93" y1="375.00" x2="179.93" y2="380.00"></line>
	<text x="179.925925925926" y="375" text-anchor="middle">J</text>
	<line class="tick" x1="229.37" y1="375.00" x2="229.37" y2="380.00"></line>
	<text x="229.37037037037" y="375" text-anchor="middle">J</text>
	<line class="tick" x1="280.46" y1="375.00" x2="280.46" y2="380.00"></line>
	<text x="280.462962962963" y="375" text-anchor="middle">A</text>
	<line class="tick" x1="331.56" y1="375.00" x2="331.56" y2="380.00"></line>
	<text x="331.555555555556" y="375" text-anchor="middle">S</text>
	<line class="tick" x1="381.00" y1="375.00" x2="381.00" y2="380.00"></line>
	<text x="381" y="375" text-anchor="middle">O</text>
	<line class="tick" x1="432.09" y1="375.00" x2="432.09" y2="380.00"></line>
	<text x="432.092592592593" y="375" text-anchor="middle">N</text>
	<text style="text-anchor:middle;dominant-baseline:hanging;font-weight:bold;transform: translateY(192.5px) rotate(-90deg);"></text>
</g>
<g data-series="widespread" class="data-series">
	<path d="M 25.00,238.87L 470.00,238.87" id="S12000019-level-0" class="line" stroke-width="1" stroke-linecap="round" stroke-dasharray="3,3" fill-opacity="0.3" opacity="0.3"><title>Widespread</title></path>
</g>
<g data-series="substantial" class="data-series">
	<path d="M 25.00,297.21L 470.00,297.21" id="S12000019-level-1" class="line" stroke-width="1" stroke-linecap="round" stroke-dasharray="3,3" fill-opacity="0.3" opacity="0.3"><title>Substantial</title></path>
</g>
<g data-series="moderate" class="data-series">
	<path d="M 25.00,355.55L 470.00,355.55" id="S12000019-level-2" class="line" stroke-width="1" stroke-linecap="round" stroke-dasharray="3,3" fill-opacity="0.3" opacity="0.3"><title>Moderate</title></path>
</g>
<g data-series="new-cases" class="data-series">
	<path d="M 25.00,375.00L 26.65,375.00L 28.30,375.00L 29.94,375.00L 31.59,371.96L 33.24,371.96L 34.89,371.96L 36.54,371.96L 38.19,371.96L 39.83,365.88L 41.48,365.88L 43.13,368.92L 44.78,368.92L 46.43,368.92L 48.07,368.92L 49.72,368.92L 51.37,375.00L 53.02,371.96L 54.67,365.88L 56.31,356.75L 57.96,353.71L 59.61,350.67L 61.26,344.58L 62.91,341.54L 64.56,335.46L 66.20,323.29L 67.85,329.38L 69.50,323.29L 71.15,311.12L 72.80,311.12L 74.44,295.92L 76.09,280.71L 77.74,289.83L 79.39,277.67L 81.04,277.67L 82.69,244.21L 84.33,213.79L 85.98,198.58L 87.63,189.46L 89.28,171.21L 90.93,186.42L 92.57,174.25L 94.22,207.71L 95.87,192.50L 97.52,177.29L 99.17,171.21L 100.81,116.46L 102.46,83.00L 104.11,89.08L 105.76,10.00L 107.41,22.17L 109.06,22.17L 110.70,37.37L 112.35,98.21L 114.00,125.58L 115.65,119.50L 117.30,140.79L 118.94,140.79L 120.59,146.88L 122.24,143.83L 123.89,152.96L 125.54,137.75L 127.19,134.71L 128.83,174.25L 130.48,174.25L 132.13,189.46L 133.78,189.46L 135.43,168.17L 137.07,183.38L 138.72,195.54L 140.37,195.54L 142.02,216.83L 143.67,216.83L 145.31,222.92L 146.96,235.08L 148.61,229.00L 150.26,232.04L 151.91,259.42L 153.56,265.50L 155.20,277.67L 156.85,295.92L 158.50,308.08L 160.15,311.12L 161.80,311.12L 163.44,311.12L 165.09,320.25L 166.74,329.38L 168.39,320.25L 170.04,329.38L 171.69,338.50L 173.33,347.62L 174.98,353.71L 176.63,356.75L 178.28,359.79L 179.93,368.92L 181.57,368.92L 183.22,368.92L 184.87,368.92L 186.52,368.92L 188.17,368.92L 189.81,368.92L 191.46,371.96L 193.11,365.88L 194.76,365.88L 196.41,359.79L 198.06,353.71L 199.70,353.71L 201.35,356.75L 203.00,356.75L 204.65,362.83L 206.30,362.83L 207.94,368.92L 209.59,375.00L 211.24,375.00L 212.89,375.00L 214.54,375.00L 216.19,371.96L 217.83,371.96L 219.48,371.96L 221.13,371.96L 222.78,371.96L 224.43,371.96L 226.07,371.96L 227.72,375.00L 229.37,375.00L 231.02,375.00L 232.67,375.00L 234.31,375.00L 235.96,375.00L 237.61,375.00L 239.26,375.00L 240.91,375.00L 242.56,375.00L 244.20,375.00L 245.85,371.96L 247.50,368.92L 249.15,368.92L 250.80,368.92L 252.44,368.92L 254.09,368.92L 255.74,368.92L 257.39,368.92L 259.04,371.96L 260.69,368.92L 262.33,368.92L 263.98,368.92L 265.63,368.92L 267.28,368.92L 268.93,368.92L 270.57,368.92L 272.22,371.96L 273.87,371.96L 275.52,371.96L 277.17,371.96L 278.81,371.96L 280.46,375.00L 282.11,371.96L 283.76,371.96L 285.41,371.96L 287.06,371.96L 288.70,368.92L 290.35,368.92L 292.00,368.92L 293.65,371.96L 295.30,371.96L 296.94,368.92L 298.59,368.92L 300.24,371.96L 301.89,368.92L 303.54,365.88L 305.19,365.88L 306.83,362.83L 308.48,365.88L 310.13,365.88L 311.78,362.83L 313.43,362.83L 315.07,365.88L 316.72,362.83L 318.37,347.62L 320.02,347.62L 321.67,347.62L 323.31,350.67L 324.96,353.71L 326.61,344.58L 328.26,341.54L 329.91,344.58L 331.56,341.54L 333.20,341.54L 334.85,329.38L 336.50,323.29L 338.15,329.38L 339.80,323.29L 341.44,335.46L 343.09,326.33L 344.74,323.29L 346.39,332.42L 348.04,329.38L 349.69,323.29L 351.33,326.33L 352.98,323.29L 354.63,332.42L 356.28,326.33L 357.93,317.21L 359.57,320.25L 361.22,311.12L 362.87,311.12L 364.52,289.83L 366.17,265.50L 367.81,271.58L 369.46,274.63L 371.11,244.21L 372.76,238.12L 374.41,229.00L 376.06,210.75L 377.70,207.71L 379.35,189.46L 381.00,165.13L 382.65,165.13L 384.30,159.04L 385.94,137.75L 387.59,131.67L 389.24,140.79L 390.89,140.79L 392.54,146.88L 394.19,134.71L 395.83,143.83L 397.48,143.83L 399.13,168.17L 400.78,137.75L 402.43,137.75L 404.07,122.54L 405.72,107.33L 407.37,110.38L 409.02,79.96L 410.67,64.75L 412.31,98.21L 413.96,73.88L 415.61,70.83L 417.26,101.25L 418.91,86.04L 420.56,98.21L 422.20,98.21L 423.85,76.92L 425.50,101.25L 427.15,122.54L 428.80,101.25L 430.44,79.96L 432.09,107.33L 433.74,110.38L 435.39,134.71L 437.04,125.58L 438.69,137.75L 440.33,146.88L 441.98,186.42L 443.63,201.62L 445.28,210.75L 446.93,204.67L 448.57,195.54L 450.22,171.21L 451.87,165.13L 453.52,159.04L 455.17,95.17L 456.81,86.04L 458.46,92.12L 460.11,92.12L 461.76,116.46" id="New cases" class="line" stroke-width="1" stroke-linecap="round"><title>New cases</title></path>
	<circle cx="25.00" cy="375.00" data-y="0.00" data-x="1582848000" r="1" fill="white"><title>2020-02-28: 0</title></circle>
	<circle cx="26.65" cy="375.00" data-y="0.00" data-x="1582934400" r="1" fill="white"><title>2020-02-29: 0</title></circle>
	<circle cx="28.30" cy="375.00" data-y="0.00" data-x="1583020800" r="1" fill="white"><title>2020-03-01: 0</title></circle>
	<circle cx="29.94" cy="375.00" data-y="0.00" data-x="1583107200" r="1" fill="white"><title>2020-03-02: 0</title></circle>
	<circle cx="31.59" cy="371.96" data-y="0.16" data-x="1583193600" r="1" fill="white"><title>2020-03-03: 0</title></circle>
	<circle cx="33.24" cy="371.96" data-y="0.16" data-x="1583280000" r="1" fill="white"><title>2020-03-04: 0</title></circle>
	<circle cx="34.89" cy="371.96" data-y="0.16" data-x="1583366400" r="1" fill="white"><title>2020-03-05: 0</title></circle>
	<circle cx="36.54" cy="371.96" data-y="0.16" data-x="1583452800" r="1" fill="white"><title>2020-03-06: 0</title></circle>
	<circle cx="38.19" cy="371.96" data-y="0.16" data-x="1583539200" r="1" fill="white"><title>2020-03-07: 0</title></circle>
	<circle cx="39.83" cy="365.88" data-y="0.47" data-x="1583625600" r="1" fill="white"><title>2020-03-08: 0</title></circle>
	<circle cx="41.48" cy="365.88" data-y="0.47" data-x="1583712000" r="1" fill="white"><title>2020-03-09: 0</title></circle>
	<circle cx="43.13" cy="368.92" data-y="0.31" data-x="1583798400" r="1" fill="white"><title>2020-03-10: 0</title></circle>
	<circle cx="44.78" cy="368.92" data-y="0.31" data-x="1583884800" r="1" fill="white"><title>2020-03-11: 0</title></circle>
	<circle cx="46.43" cy="368.92" data-y="0.31" data-x="1583971200" r="1" fill="white"><title>2020-03-12: 0</title></circle>
	<circle cx="48.07" cy="368.92" data-y="0.31" data-x="1584057600" r="1" fill="white"><title>2020-03-13: 0</title></circle>
	<circle cx="49.72" cy="368.92" data-y="0.31" data-x="1584144000" r="1" fill="white"><title>2020-03-14: 0</title></circle>
	<circle cx="51.37" cy="375.00" data-y="0.00" data-x="1584230400" r="1" fill="white"><title>2020-03-15: 0</title></circle>
	<circle cx="53.02" cy="371.96" data-y="0.16" data-x="1584316800" r="1" fill="white"><title>2020-03-16: 0</title></circle>
	<circle cx="54.67" cy="365.88" data-y="0.47" data-x="1584403200" r="1" fill="white"><title>2020-03-17: 0</title></circle>
	<circle cx="56.31" cy="356.75" data-y="0.94" data-x="1584489600" r="1" fill="white"><title>2020-03-18: 1</title></circle>
	<circle cx="57.96" cy="353.71" data-y="1.09" data-x="1584576000" r="1" fill="white"><title>2020-03-19: 1</title></circle>
	<circle cx="59.61" cy="350.67" data-y="1.25" data-x="1584662400" r="1" fill="white"><title>2020-03-20: 1</title></circle>
	<circle cx="61.26" cy="344.58" data-y="1.56" data-x="1584748800" r="1" fill="white"><title>2020-03-21: 2</title></circle>
	<circle cx="62.91" cy="341.54" data-y="1.72" data-x="1584835200" r="1" fill="white"><title>2020-03-22: 2</title></circle>
	<circle cx="64.56" cy="335.46" data-y="2.03" data-x="1584921600" r="1" fill="white"><title>2020-03-23: 2</title></circle>
	<circle cx="66.20" cy="323.29" data-y="2.66" data-x="1585008000" r="1" fill="white"><title>2020-03-24: 3</title></circle>
	<circle cx="67.85" cy="329.38" data-y="2.35" data-x="1585094400" r="1" fill="white"><title>2020-03-25: 2</title></circle>
	<circle cx="69.50" cy="323.29" data-y="2.66" data-x="1585180800" r="1" fill="white"><title>2020-03-26: 3</title></circle>
	<circle cx="71.15" cy="311.12" data-y="3.28" data-x="1585267200" r="1" fill="white"><title>2020-03-27: 3</title></circle>
	<circle cx="72.80" cy="311.12" data-y="3.28" data-x="1585353600" r="1" fill="white"><title>2020-03-28: 3</title></circle>
	<circle cx="74.44" cy="295.92" data-y="4.07" data-x="1585440000" r="1" fill="white"><title>2020-03-29: 4</title></circle>
	<circle cx="76.09" cy="280.71" data-y="4.85" data-x="1585526400" r="1" fill="white"><title>2020-03-30: 5</title></circle>
	<circle cx="77.74" cy="289.83" data-y="4.38" data-x="1585612800" r="1" fill="white"><title>2020-03-31: 4</title></circle>
	<circle cx="79.39" cy="277.67" data-y="5.00" data-x="1585699200" r="1" fill="white"><title>2020-04-01: 5</title></circle>
	<circle cx="81.04" cy="277.67" data-y="5.00" data-x="1585785600" r="1" fill="white"><title>2020-04-02: 5</title></circle>
	<circle cx="82.69" cy="244.21" data-y="6.73" data-x="1585872000" r="1" fill="white"><title>2020-04-03: 7</title></circle>
	<circle cx="84.33" cy="213.79" data-y="8.29" data-x="1585958400" r="1" fill="white"><title>2020-04-04: 8</title></circle>
	<circle cx="85.98" cy="198.58" data-y="9.07" data-x="1586044800" r="1" fill="white"><title>2020-04-05: 9</title></circle>
	<circle cx="87.63" cy="189.46" data-y="9.54" data-x="1586131200" r="1" fill="white"><title>2020-04-06: 10</title></circle>
	<circle cx="89.28" cy="171.21" data-y="10.48" data-x="1586217600" r="1" fill="white"><title>2020-04-07: 10</title></circle>
	<circle cx="90.93" cy="186.42" data-y="9.70" data-x="1586304000" r="1" fill="white"><title>2020-04-08: 10</title></circle>
	<circle cx="92.57" cy="174.25" data-y="10.32" data-x="1586390400" r="1" fill="white"><title>2020-04-09: 10</title></circle>
	<circle cx="94.22" cy="207.71" data-y="8.60" data-x="1586476800" r="1" fill="white"><title>2020-04-10: 9</title></circle>
	<circle cx="95.87" cy="192.50" data-y="9.38" data-x="1586563200" r="1" fill="white"><title>2020-04-11: 9</title></circle>
	<circle cx="97.52" cy="177.29" data-y="10.17" data-x="1586649600" r="1" fill="white"><title>2020-04-12: 10</title></circle>
	<circle cx="99.17" cy="171.21" data-y="10.48" data-x="1586736000" r="1" fill="white"><title>2020-04-13: 10</title></circle>
	<circle cx="100.81" cy="116.46" data-y="13.29" data-x="1586822400" r="1" fill="white"><title>2020-04-14: 13</title></circle>
	<circle cx="102.46" cy="83.00" data-y="15.01" data-x="1586908800" r="1" fill="white"><title>2020-04-15: 15</title></circle>
	<circle cx="104.11" cy="89.08" data-y="14.70" data-x="1586995200" r="1" fill="white"><title>2020-04-16: 15</title></circle>
	<circle cx="105.76" cy="10.00" data-y="18.77" data-x="1587081600" r="1" fill="white"><title>2020-04-17: 19</title></circle>
	<circle cx="107.41" cy="22.17" data-y="18.14" data-x="1587168000" r="1" fill="white"><title>2020-04-18: 18</title></circle>
	<circle cx="109.06" cy="22.17" data-y="18.14" data-x="1587254400" r="1" fill="white"><title>2020-04-19: 18</title></circle>
	<circle cx="110.70" cy="37.37" data-y="17.36" data-x="1587340800" r="1" fill="white"><title>2020-04-20: 17</title></circle>
	<circle cx="112.35" cy="98.21" data-y="14.23" data-x="1587427200" r="1" fill="white"><title>2020-04-21: 14</title></circle>
	<circle cx="114.00" cy="125.58" data-y="12.82" data-x="1587513600" r="1" fill="white"><title>2020-04-22: 13</title></circle>
	<circle cx="115.65" cy="119.50" data-y="13.14" data-x="1587600000" r="1" fill="white"><title>2020-04-23: 13</title></circle>
	<circle cx="117.30" cy="140.79" data-y="12.04" data-x="1587686400" r="1" fill="white"><title>2020-04-24: 12</title></circle>
	<circle cx="118.94" cy="140.79" data-y="12.04" data-x="1587772800" r="1" fill="white"><title>2020-04-25: 12</title></circle>
	<circle cx="120.59" cy="146.88" data-y="11.73" data-x="1587859200" r="1" fill="white"><title>2020-04-26: 12</title></circle>
	<circle cx="122.24" cy="143.83" data-y="11.89" data-x="1587945600" r="1" fill="white"><title>2020-04-27: 12</title></circle>
	<circle cx="123.89" cy="152.96" data-y="11.42" data-x="1588032000" r="1" fill="white"><title>2020-04-28: 11</title></circle>
	<circle cx="125.54" cy="137.75" data-y="12.20" data-x="1588118400" r="1" fill="white"><title>2020-04-29: 12</title></circle>
	<circle cx="127.19" cy="134.71" data-y="12.36" data-x="1588204800" r="1" fill="white"><title>2020-04-30: 12</title></circle>
	<circle cx="128.83" cy="174.25" data-y="10.32" data-x="1588291200" r="1" fill="white"><title>2020-05-01: 10</title></circle>
	<circle cx="130.48" cy="174.25" data-y="10.32" data-x="1588377600" r="1" fill="white"><title>2020-05-02: 10</title></circle>
	<circle cx="132.13" cy="189.46" data-y="9.54" data-x="1588464000" r="1" fill="white"><title>2020-05-03: 10</title></circle>
	<circle cx="133.78" cy="189.46" data-y="9.54" data-x="1588550400" r="1" fill="white"><title>2020-05-04: 10</title></circle>
	<circle cx="135.43" cy="168.17" data-y="10.64" data-x="1588636800" r="1" fill="white"><title>2020-05-05: 11</title></circle>
	<circle cx="137.07" cy="183.38" data-y="9.85" data-x="1588723200" r="1" fill="white"><title>2020-05-06: 10</title></circle>
	<circle cx="138.72" cy="195.54" data-y="9.23" data-x="1588809600" r="1" fill="white"><title>2020-05-07: 9</title></circle>
	<circle cx="140.37" cy="195.54" data-y="9.23" data-x="1588896000" r="1" fill="white"><title>2020-05-08: 9</title></circle>
	<circle cx="142.02" cy="216.83" data-y="8.13" data-x="1588982400" r="1" fill="white"><title>2020-05-09: 8</title></circle>
	<circle cx="143.67" cy="216.83" data-y="8.13" data-x="1589068800" r="1" fill="white"><title>2020-05-10: 8</title></circle>
	<circle cx="145.31" cy="222.92" data-y="7.82" data-x="1589155200" r="1" fill="white"><title>2020-05-11: 8</title></circle>
	<circle cx="146.96" cy="235.08" data-y="7.19" data-x="1589241600" r="1" fill="white"><title>2020-05-12: 7</title></circle>
	<circle cx="148.61" cy="229.00" data-y="7.51" data-x="1589328000" r="1" fill="white"><title>2020-05-13: 8</title></circle>
	<circle cx="150.26" cy="232.04" data-y="7.35" data-x="1589414400" r="1" fill="white"><title>2020-05-14: 7</title></circle>
	<circle cx="151.91" cy="259.42" data-y="5.94" data-x="1589500800" r="1" fill="white"><title>2020-05-15: 6</title></circle>
	<circle cx="153.56" cy="265.50" data-y="5.63" data-x="1589587200" r="1" fill="white"><title>2020-05-16: 6</title></circle>
	<circle cx="155.20" cy="277.67" data-y="5.00" data-x="1589673600" r="1" fill="white"><title>2020-05-17: 5</title></circle>
	<circle cx="156.85" cy="295.92" data-y="4.07" data-x="1589760000" r="1" fill="white"><title>2020-05-18: 4</title></circle>
	<circle cx="158.50" cy="308.08" data-y="3.44" data-x="1589846400" r="1" fill="white"><title>2020-05-19: 3</title></circle>
	<circle cx="160.15" cy="311.12" data-y="3.28" data-x="1589932800" r="1" fill="white"><title>2020-05-20: 3</title></circle>
	<circle cx="161.80" cy="311.12" data-y="3.28" data-x="1590019200" r="1" fill="white"><title>2020-05-21: 3</title></circle>
	<circle cx="163.44" cy="311.12" data-y="3.28" data-x="1590105600" r="1" fill="white"><title>2020-05-22: 3</title></circle>
	<circle cx="165.09" cy="320.25" data-y="2.82" data-x="1590192000" r="1" fill="white"><title>2020-05-23: 3</title></circle>
	<circle cx="166.74" cy="329.38" data-y="2.35" data-x="1590278400" r="1" fill="white"><title>2020-05-24: 2</title></circle>
	<circle cx="168.39" cy="320.25" data-y="2.82" data-x="1590364800" r="1" fill="white"><title>2020-05-25: 3</title></circle>
	<circle cx="170.04" cy="329.38" data-y="2.35" data-x="1590451200" r="1" fill="white"><title>2020-05-26: 2</title></circle>
	<circle cx="171.69" cy="338.50" data-y="1.88" data-x="1590537600" r="1" fill="white"><title>2020-05-27: 2</title></circle>
	<circle cx="173.33" cy="347.62" data-y="1.41" data-x="1590624000" r="1" fill="white"><title>2020-05-28: 1</title></circle>
	<circle cx="174.98" cy="353.71" data-y="1.09" data-x="1590710400" r="1" fill="white"><title>2020-05-29: 1</title></circle>
	<circle cx="176.63" cy="356.75" data-y="0.94" data-x="1590796800" r="1" fill="white"><title>2020-05-30: 1</title></circle>
	<circle cx="178.28" cy="359.79" data-y="0.78" data-x="1590883200" r="1" fill="white"><title>2020-05-31: 1</title></circle>
	<circle cx="179.93" cy="368.92" data-y="0.31" data-x="1590969600" r="1" fill="white"><title>2020-06-01: 0</title></circle>
	<circle cx="181.57" cy="368.92" data-y="0.31" data-x="1591056000" r="1" fill="white"><title>2020-06-02: 0</title></circle>
	<circle cx="183.22" cy="368.92" data-y="0.31" data-x="1591142400" r="1" fill="white"><title>2020-06-03: 0</title></circle>
	<circle cx="184.87" cy="368.92" data-y="0.31" data-x="1591228800" r="1" fill="white"><title>2020-06-04: 0</title></circle>
	<circle cx="186.52" cy="368.92" data-y="0.31" data-x="1591315200" r="1" fill="white"><title>2020-06-05: 0</title></circle>
	<circle cx="188.17" cy="368.92" data-y="0.31" data-x="1591401600" r="1" fill="white"><title>2020-06-06: 0</title></circle>
	<circle cx="189.81" cy="368.92" data-y="0.31" data-x="1591488000" r="1" fill="white"><title>2020-06-07: 0</title></circle>
	<circle cx="191.46" cy="371.96" data-y="0.16" data-x="1591574400" r="1" fill="white"><title>2020-06-08: 0</title></circle>
	<circle cx="193.11" cy="365.88" data-y="0.47" data-x="1591660800" r="1" fill="white"><title>2020-06-09: 0</title></circle>
	<circle cx="194.76" cy="365.88" data-y="0.47" data-x="1591747200" r="1" fill="white"><title>2020-06-10: 0</title></circle>
	<circle cx="196.41" cy="359.79" data-y="0.78" data-x="1591833600" r="1" fill="white"><title>2020-06-11: 1</title></circle>
	<circle cx="198.06" cy="353.71" data-y="1.09" data-x="1591920000" r="1" fill="white"><title>2020-06-12: 1</title></circle>
	<circle cx="199.70" cy="353.71" data-y="1.09" data-x="1592006400" r="1" fill="white"><title>2020-06-13: 1</title></circle>
	<circle cx="201.35" cy="356.75" data-y="0.94" data-x="1592092800" r="1" fill="white"><title>2020-06-14: 1</title></circle>
	<circle cx="203.00" cy="356.75" data-y="0.94" data-x="1592179200" r="1" fill="white"><title>2020-06-15: 1</title></circle>
	<circle cx="204.65" cy="362.83" data-y="0.63" data-x="1592265600" r="1" fill="white"><title>2020-06-16: 1</title></circle>
	<circle cx="206.30" cy="362.83" data-y="0.63" data-x="1592352000" r="1" fill="white"><title>2020-06-17: 1</title></circle>
	<circle cx="207.94" cy="368.92" data-y="0.31" data-x="1592438400" r="1" fill="white"><title>2020-06-18: 0</title></circle>
	<circle cx="209.59" cy="375.00" data-y="0.00" data-x="1592524800" r="1" fill="white"><title>2020-06-19: 0</title></circle>
	<circle cx="211.24" cy="375.00" data-y="0.00" data-x="1592611200" r="1" fill="white"><title>2020-06-20: 0</title></circle>
	<circle cx="212.89" cy="375.00" data-y="0.00" data-x="1592697600" r="1" fill="white"><title>2020-06-21: 0</title></circle>
	<circle cx="214.54" cy="375.00" data-y="0.00" data-x="1592784000" r="1" fill="white"><title>2020-06-22: 0</title></circle>
	<circle cx="216.19" cy="371.96" data-y="0.16" data-x="1592870400" r="1" fill="white"><title>2020-06-23: 0</title></circle>
	<circle cx="217.83" cy="371.96" data-y="0.16" data-x="1592956800" r="1" fill="white"><title>2020-06-24: 0</title></circle>
	<circle cx="219.48" cy="371.96" data-y="0.16" data-x="1593043200" r="1" fill="white"><title>2020-06-25: 0</title></circle>
	<circle cx="221.13" cy="371.96" data-y="0.16" data-x="1593129600" r="1" fill="white"><title>2020-06-26: 0</title></circle>
	<circle cx="222.78" cy="371.96" data-y="0.16" data-x="1593216000" r="1" fill="white"><title>2020-06-27: 0</title></circle>
	<circle cx="224.43" cy="371.96" data-y="0.16" data-x="1593302400" r="1" fill="white"><title>2020-06-28: 0</title></circle>
	<circle cx="226.07" cy="371.96" data-y="0.16" data-x="1593388800" r="1" fill="white"><title>2020-06-29: 0</title></circle>
	<circle cx="227.72" cy="375.00" data-y="0.00" data-x="1593475200" r="1" fill="white"><title>2020-06-30: 0</title></circle>
	<circle cx="229.37" cy="375.00" data-y="0.00" data-x="1593561600" r="1" fill="white"><title>2020-07-01: 0</title></circle>
	<circle cx="231.02" cy="375.00" data-y="0.00" data-x="1593648000" r="1" fill="white"><title>2020-07-02: 0</title></circle>
	<circle cx="232.67" cy="375.00" data-y="0.00" data-x="1593734400" r="1" fill="white"><title>2020-07-03: 0</title></circle>
	<circle cx="234.31" cy="375.00" data-y="0.00" data-x="1593820800" r="1" fill="white"><title>2020-07-04: 0</title></circle>
	<circle cx="235.96" cy="375.00" data-y="0.00" data-x="1593907200" r="1" fill="white"><title>2020-07-05: 0</title></circle>
	<circle cx="237.61" cy="375.00" data-y="0.00" data-x="1593993600" r="1" fill="white"><title>2020-07-06: 0</title></circle>
	<circle cx="239.26" cy="375.00" data-y="0.00" data-x="1594080000" r="1" fill="white"><title>2020-07-07: 0</title></circle>
	<circle cx="240.91" cy="375.00" data-y="0.00" data-x="1594166400" r="1" fill="white"><title>2020-07-08: 0</title></circle>
	<circle cx="242.56" cy="375.00" data-y="0.00" data-x="1594252800" r="1" fill="white"><title>2020-07-09: 0</title></circle>
	<circle cx="244.20" cy="375.00" data-y="0.00" data-x="1594339200" r="1" fill="white"><title>2020-07-10: 0</title></circle>
	<circle cx="245.85" cy="371.96" data-y="0.16" data-x="1594425600" r="1" fill="white"><title>2020-07-11: 0</title></circle>
	<circle cx="247.50" cy="368.92" data-y="0.31" data-x="1594512000" r="1" fill="white"><title>2020-07-12: 0</title></circle>
	<circle cx="249.15" cy="368.92" data-y="0.31" data-x="1594598400" r="1" fill="white"><title>2020-07-13: 0</title></circle>
	<circle cx="250.80" cy="368.92" data-y="0.31" data-x="1594684800" r="1" fill="white"><title>2020-07-14: 0</title></circle>
	<circle cx="252.44" cy="368.92" data-y="0.31" data-x="1594771200" r="1" fill="white"><title>2020-07-15: 0</title></circle>
	<circle cx="254.09" cy="368.92" data-y="0.31" data-x="1594857600" r="1" fill="white"><title>2020-07-16: 0</title></circle>
	<circle cx="255.74" cy="368.92" data-y="0.31" data-x="1594944000" r="1" fill="white"><title>2020-07-17: 0</title></circle>
	<circle cx="257.39" cy="368.92" data-y="0.31" data-x="1595030400" r="1" fill="white"><title>2020-07-18: 0</title></circle>
	<circle cx="259.04" cy="371.96" data-y="0.16" data-x="1595116800" r="1" fill="white"><title>2020-07-19: 0</title></circle>
	<circle cx="260.69" cy="368.92" data-y="0.31" data-x="1595203200" r="1" fill="white"><title>2020-07-20: 0</title></circle>
	<circle cx="262.33" cy="368.92" data-y="0.31" data-x="1595289600" r="1" fill="white"><title>2020-07-21: 0</title></circle>
	<circle cx="263.98" cy="368.92" data-y="0.31" data-x="1595376000" r="1" fill="white"><title>2020-07-22: 0</title></circle>
	<circle cx="265.63" cy="368.92" data-y="0.31" data-x="1595462400" r="1" fill="white"><title>2020-07-23: 0</title></circle>
	<circle cx="267.28" cy="368.92" data-y="0.31" data-x="1595548800" r="1" fill="white"><title>2020-07-24: 0</title></circle>
	<circle cx="268.93" cy="368.92" data-y="0.31" data-x="1595635200" r="1" fill="white"><title>2020-07-25: 0</title></circle>
	<circle cx="270.57" cy="368.92" data-y="0.31" data-x="1595721600" r="1" fill="white"><title>2020-07-26: 0</title></circle>
	<circle cx="272.22" cy="371.96" data-y="0.16" data-x="1595808000" r="1" fill="white"><title>2020-07-27: 0</title></circle>
	<circle cx="273.87" cy="371.96" data-y="0.16" data-x="1595894400" r="1" fill="white"><title>2020-07-28: 0</title></circle>
	<circle cx="275.52" cy="371.96" data-y="0.16" data-x="1595980800" r="1" fill="white"><title>2020-07-29: 0</title></circle>
	<circle cx="277.17" cy="371.96" data-y="0.16" data-x="1596067200" r="1" fill="white"><title>2020-07-30: 0</title></circle>
	<circle cx="278.81" cy="371.96" data-y="0.16" data-x="1596153600" r="1" fill="white"><title>2020-07-31: 0</title></circle>
	<circle cx="280.46" cy="375.00" data-y="0.00" data-x="1596240000" r="1" fill="white"><title>2020-08-01: 0</title></circle>
	<circle cx="282.11" cy="371.96" data-y="0.16" data-x="1596326400" r="1" fill="white"><title>2020-08-02: 0</title></circle>
	<circle cx="283.76" cy="371.96" data-y="0.16" data-x="1596412800" r="1" fill="white"><title>2020-08-03: 0</title></circle>
	<circle cx="285.41" cy="371.96" data-y="0.16" data-x="1596499200" r="1" fill="white"><title>2020-08-04: 0</title></circle>
	<circle cx="287.06" cy="371.96" data-y="0.16" data-x="1596585600" r="1" fill="white"><title>2020-08-05: 0</title></circle>
	<circle cx="288.70" cy="368.92" data-y="0.31" data-x="1596672000" r="1" fill="white"><title>2020-08-06: 0</title></circle>
	<circle cx="290.35" cy="368.92" data-y="0.31" data-x="1596758400" r="1" fill="white"><title>2020-08-07: 0</title></circle>
	<circle cx="292.00" cy="368.92" data-y="0.31" data-x="1596844800" r="1" fill="white"><title>2020-08-08: 0</title></circle>
	<circle cx="293.65" cy="371.96" data-y="0.16" data-x="1596931200" r="1" fill="white"><title>2020-08-09: 0</title></circle>
	<circle cx="295.30" cy="371.96" data-y="0.16" data-x="1597017600" r="1" fill="white"><title>2020-08-10: 0</title></circle>
	<circle cx="296.94" cy="368.92" data-y="0.31" data-x="1597104000" r="1" fill="white"><title>2020-08-11: 0</title></circle>
	<circle cx="298.59" cy="368.92" data-y="0.31" data-x="1597190400" r="1" fill="white"><title>2020-08-12: 0</title></circle>
	<circle cx="300.24" cy="371.96" data-y="0.16" data-x="1597276800" r="1" fill="white"><title>2020-08-13: 0</title></circle>
	<circle cx="301.89" cy="368.92" data-y="0.31" data-x="1597363200" r="1" fill="white"><title>2020-08-14: 0</title></circle>
	<circle cx="303.54" cy="365.88" data-y="0.47" data-x="1597449600" r="1" fill="white"><title>2020-08-15: 0</title></circle>
	<circle cx="305.19" cy="365.88" data-y="0.47" data-x="1597536000" r="1" fill="white"><title>2020-08-16: 0</title></circle>
	<circle cx="306.83" cy="362.83" data-y="0.63" data-x="1597622400" r="1" fill="white"><title>2020-08-17: 1</title></circle>
	<circle cx="308.48" cy="365.88" data-y="0.47" data-x="1597708800" r="1" fill="white"><title>2020-08-18: 0</title></circle>
	<circle cx="310.13" cy="365.88" data-y="0.47" data-x="1597795200" r="1" fill="white"><title>2020-08-19: 0</title></circle>
	<circle cx="311.78" cy="362.83" data-y="0.63" data-x="1597881600" r="1" fill="white"><title>2020-08-20: 1</title></circle>
	<circle cx="313.43" cy="362.83" data-y="0.63" data-x="1597968000" r="1" fill="white"><title>2020-08-21: 1</title></circle>
	<circle cx="315.07" cy="365.88" data-y="0.47" data-x="1598054400" r="1" fill="white"><title>2020-08-22: 0</title></circle>
	<circle cx="316.72" cy="362.83" data-y="0.63" data-x="1598140800" r="1" fill="white"><title>2020-08-23: 1</title></circle>
	<circle cx="318.37" cy="347.62" data-y="1.41" data-x="1598227200" r="1" fill="white"><title>2020-08-24: 1</title></circle>
	<circle cx="320.02" cy="347.62" data-y="1.41" data-x="1598313600" r="1" fill="white"><title>2020-08-25: 1</title></circle>
	<circle cx="321.67" cy="347.62" data-y="1.41" data-x="1598400000" r="1" fill="white"><title>2020-08-26: 1</title></circle>
	<circle cx="323.31" cy="350.67" data-y="1.25" data-x="1598486400" r="1" fill="white"><title>2020-08-27: 1</title></circle>
	<circle cx="324.96" cy="353.71" data-y="1.09" data-x="1598572800" r="1" fill="white"><title>2020-08-28: 1</title></circle>
	<circle cx="326.61" cy="344.58" data-y="1.56" data-x="1598659200" r="1" fill="white"><title>2020-08-29: 2</title></circle>
	<circle cx="328.26" cy="341.54" data-y="1.72" data-x="1598745600" r="1" fill="white"><title>2020-08-30: 2</title></circle>
	<circle cx="329.91" cy="344.58" data-y="1.56" data-x="1598832000" r="1" fill="white"><title>2020-08-31: 2</title></circle>
	<circle cx="331.56" cy="341.54" data-y="1.72" data-x="1598918400" r="1" fill="white"><title>2020-09-01: 2</title></circle>
	<circle cx="333.20" cy="341.54" data-y="1.72" data-x="1599004800" r="1" fill="white"><title>2020-09-02: 2</title></circle>
	<circle cx="334.85" cy="329.38" data-y="2.35" data-x="1599091200" r="1" fill="white"><title>2020-09-03: 2</title></circle>
	<circle cx="336.50" cy="323.29" data-y="2.66" data-x="1599177600" r="1" fill="white"><title>2020-09-04: 3</title></circle>
	<circle cx="338.15" cy="329.38" data-y="2.35" data-x="1599264000" r="1" fill="white"><title>2020-09-05: 2</title></circle>
	<circle cx="339.80" cy="323.29" data-y="2.66" data-x="1599350400" r="1" fill="white"><title>2020-09-06: 3</title></circle>
	<circle cx="341.44" cy="335.46" data-y="2.03" data-x="1599436800" r="1" fill="white"><title>2020-09-07: 2</title></circle>
	<circle cx="343.09" cy="326.33" data-y="2.50" data-x="1599523200" r="1" fill="white"><title>2020-09-08: 3</title></circle>
	<circle cx="344.74" cy="323.29" data-y="2.66" data-x="1599609600" r="1" fill="white"><title>2020-09-09: 3</title></circle>
	<circle cx="346.39" cy="332.42" data-y="2.19" data-x="1599696000" r="1" fill="white"><title>2020-09-10: 2</title></circle>
	<circle cx="348.04" cy="329.38" data-y="2.35" data-x="1599782400" r="1" fill="white"><title>2020-09-11: 2</title></circle>
	<circle cx="349.69" cy="323.29" data-y="2.66" data-x="1599868800" r="1" fill="white"><title>2020-09-12: 3</title></circle>
	<circle cx="351.33" cy="326.33" data-y="2.50" data-x="1599955200" r="1" fill="white"><title>2020-09-13: 3</title></circle>
	<circle cx="352.98" cy="323.29" data-y="2.66" data-x="1600041600" r="1" fill="white"><title>2020-09-14: 3</title></circle>
	<circle cx="354.63" cy="332.42" data-y="2.19" data-x="1600128000" r="1" fill="white"><title>2020-09-15: 2</title></circle>
	<circle cx="356.28" cy="326.33" data-y="2.50" data-x="1600214400" r="1" fill="white"><title>2020-09-16: 3</title></circle>
	<circle cx="357.93" cy="317.21" data-y="2.97" data-x="1600300800" r="1" fill="white"><title>2020-09-17: 3</title></circle>
	<circle cx="359.57" cy="320.25" data-y="2.82" data-x="1600387200" r="1" fill="white"><title>2020-09-18: 3</title></circle>
	<circle cx="361.22" cy="311.12" data-y="3.28" data-x="1600473600" r="1" fill="white"><title>2020-09-19: 3</title></circle>
	<circle cx="362.87" cy="311.12" data-y="3.28" data-x="1600560000" r="1" fill="white"><title>2020-09-20: 3</title></circle>
	<circle cx="364.52" cy="289.83" data-y="4.38" data-x="1600646400" r="1" fill="white"><title>2020-09-21: 4</title></circle>
	<circle cx="366.17" cy="265.50" data-y="5.63" data-x="1600732800" r="1" fill="white"><title>2020-09-22: 6</title></circle>
	<circle cx="367.81" cy="271.58" data-y="5.32" data-x="1600819200" r="1" fill="white"><title>2020-09-23: 5</title></circle>
	<circle cx="369.46" cy="274.63" data-y="5.16" data-x="1600905600" r="1" fill="white"><title>2020-09-24: 5</title></circle>
	<circle cx="371.11" cy="244.21" data-y="6.73" data-x="1600992000" r="1" fill="white"><title>2020-09-25: 7</title></circle>
	<circle cx="372.76" cy="238.12" data-y="7.04" data-x="1601078400" r="1" fill="white"><title>2020-09-26: 7</title></circle>
	<circle cx="374.41" cy="229.00" data-y="7.51" data-x="1601164800" r="1" fill="white"><title>2020-09-27: 8</title></circle>
	<circle cx="376.06" cy="210.75" data-y="8.45" data-x="1601251200" r="1" fill="white"><title>2020-09-28: 8</title></circle>
	<circle cx="377.70" cy="207.71" data-y="8.60" data-x="1601337600" r="1" fill="white"><title>2020-09-29: 9</title></circle>
	<circle cx="379.35" cy="189.46" data-y="9.54" data-x="1601424000" r="1" fill="white"><title>2020-09-30: 10</title></circle>
	<circle cx="381.00" cy="165.13" data-y="10.79" data-x="1601510400" r="1" fill="white"><title>2020-10-01: 11</title></circle>
	<circle cx="382.65" cy="165.13" data-y="10.79" data-x="1601596800" r="1" fill="white"><title>2020-10-02: 11</title></circle>
	<circle cx="384.30" cy="159.04" data-y="11.10" data-x="1601683200" r="1" fill="white"><title>2020-10-03: 11</title></circle>
	<circle cx="385.94" cy="137.75" data-y="12.20" data-x="1601769600" r="1" fill="white"><title>2020-10-04: 12</title></circle>
	<circle cx="387.59" cy="131.67" data-y="12.51" data-x="1601856000" r="1" fill="white"><title>2020-10-05: 13</title></circle>
	<circle cx="389.24" cy="140.79" data-y="12.04" data-x="1601942400" r="1" fill="white"><title>2020-10-06: 12</title></circle>
	<circle cx="390.89" cy="140.79" data-y="12.04" data-x="1602028800" r="1" fill="white"><title>2020-10-07: 12</title></circle>
	<circle cx="392.54" cy="146.88" data-y="11.73" data-x="1602115200" r="1" fill="white"><title>2020-10-08: 12</title></circle>
	<circle cx="394.19" cy="134.71" data-y="12.36" data-x="1602201600" r="1" fill="white"><title>2020-10-09: 12</title></circle>
	<circle cx="395.83" cy="143.83" data-y="11.89" data-x="1602288000" r="1" fill="white"><title>2020-10-10: 12</title></circle>
	<circle cx="397.48" cy="143.83" data-y="11.89" data-x="1602374400" r="1" fill="white"><title>2020-10-11: 12</title></circle>
	<circle cx="399.13" cy="168.17" data-y="10.64" data-x="1602460800" r="1" fill="white"><title>2020-10-12: 11</title></circle>
	<circle cx="400.78" cy="137.75" data-y="12.20" data-x="1602547200" r="1" fill="white"><title>2020-10-13: 12</title></circle>
	<circle cx="402.43" cy="137.75" data-y="12.20" data-x="1602633600" r="1" fill="white"><title>2020-10-14: 12</title></circle>
	<circle cx="404.07" cy="122.54" data-y="12.98" data-x="1602720000" r="1" fill="white"><title>2020-10-15: 13</title></circle>
	<circle cx="405.72" cy="107.33" data-y="13.76" data-x="1602806400" r="1" fill="white"><title>2020-10-16: 14</title></circle>
	<circle cx="407.37" cy="110.38" data-y="13.61" data-x="1602892800" r="1" fill="white"><title>2020-10-17: 14</title></circle>
	<circle cx="409.02" cy="79.96" data-y="15.17" data-x="1602979200" r="1" fill="white"><title>2020-10-18: 15</title></circle>
	<circle cx="410.67" cy="64.75" data-y="15.95" data-x="1603065600" r="1" fill="white"><title>2020-10-19: 16</title></circle>
	<circle cx="412.31" cy="98.21" data-y="14.23" data-x="1603152000" r="1" fill="white"><title>2020-10-20: 14</title></circle>
	<circle cx="413.96" cy="73.88" data-y="15.48" data-x="1603238400" r="1" fill="white"><title>2020-10-21: 15</title></circle>
	<circle cx="415.61" cy="70.83" data-y="15.64" data-x="1603324800" r="1" fill="white"><title>2020-10-22: 16</title></circle>
	<circle cx="417.26" cy="101.25" data-y="14.08" data-x="1603411200" r="1" fill="white"><title>2020-10-23: 14</title></circle>
	<circle cx="418.91" cy="86.04" data-y="14.86" data-x="1603497600" r="1" fill="white"><title>2020-10-24: 15</title></circle>
	<circle cx="420.56" cy="98.21" data-y="14.23" data-x="1603584000" r="1" fill="white"><title>2020-10-25: 14</title></circle>
	<circle cx="422.20" cy="98.21" data-y="14.23" data-x="1603670400" r="1" fill="white"><title>2020-10-26: 14</title></circle>
	<circle cx="423.85" cy="76.92" data-y="15.33" data-x="1603756800" r="1" fill="white"><title>2020-10-27: 15</title></circle>
	<circle cx="425.50" cy="101.25" data-y="14.08" data-x="1603843200" r="1" fill="white"><title>2020-10-28: 14</title></circle>
	<circle cx="427.15" cy="122.54" data-y="12.98" data-x="1603929600" r="1" fill="white"><title>2020-10-29: 13</title></circle>
	<circle cx="428.80" cy="101.25" data-y="14.08" data-x="1604016000" r="1" fill="white"><title>2020-10-30: 14</title></circle>
	<circle cx="430.44" cy="79.96" data-y="15.17" data-x="1604102400" r="1" fill="white"><title>2020-10-31: 15</title></circle>
	<circle cx="432.09" cy="107.33" data-y="13.76" data-x="1604188800" r="1" fill="white"><title>2020-11-01: 14</title></circle>
	<circle cx="433.74" cy="110.38" data-y="13.61" data-x="1604275200" r="1" fill="white"><title>2020-11-02: 14</title></circle>
	<circle cx="435.39" cy="134.71" data-y="12.36" data-x="1604361600" r="1" fill="white"><title>2020-11-03: 12</title></circle>
	<circle cx="437.04" cy="125.58" data-y="12.82" data-x="1604448000" r="1" fill="white"><title>2020-11-04: 13</title></circle>
	<circle cx="438.69" cy="137.75" data-y="12.20" data-x="1604534400" r="1" fill="white"><title>2020-11-05: 12</title></circle>
	<circle cx="440.33" cy="146.88" data-y="11.73" data-x="1604620800" r="1" fill="white"><title>2020-11-06: 12</title></circle>
	<circle cx="441.98" cy="186.42" data-y="9.70" data-x="1604707200" r="1" fill="white"><title>2020-11-07: 10</title></circle>
	<circle cx="443.63" cy="201.62" data-y="8.91" data-x="1604793600" r="1" fill="white"><title>2020-11-08: 9</title></circle>
	<circle cx="445.28" cy="210.75" data-y="8.45" data-x="1604880000" r="1" fill="white"><title>2020-11-09: 8</title></circle>
	<circle cx="446.93" cy="204.67" data-y="8.76" data-x="1604966400" r="1" fill="white"><title>2020-11-10: 9</title></circle>
	<circle cx="448.57" cy="195.54" data-y="9.23" data-x="1605052800" r="1" fill="white"><title>2020-11-11: 9</title></circle>
	<circle cx="450.22" cy="171.21" data-y="10.48" data-x="1605139200" r="1" fill="white"><title>2020-11-12: 10</title></circle>
	<circle cx="451.87" cy="165.13" data-y="10.79" data-x="1605225600" r="1" fill="white"><title>2020-11-13: 11</title></circle>
	<circle cx="453.52" cy="159.04" data-y="11.10" data-x="1605312000" r="1" fill="white"><title>2020-11-14: 11</title></circle>
	<circle cx="455.17" cy="95.17" data-y="14.39" data-x="1605398400" r="1" fill="white"><title>2020-11-15: 14</title></circle>
	<circle cx="456.81" cy="86.04" data-y="14.86" data-x="1605484800" r="1" fill="white"><title>2020-11-16: 15</title></circle>
	<circle cx="458.46" cy="92.12" data-y="14.55" data-x="1605571200" r="1" fill="white"><title>2020-11-17: 15</title></circle>
	<circle cx="460.11" cy="92.12" data-y="14.55" data-x="1605657600" r="1" fill="white"><title>2020-11-18: 15</title></circle>
	<circle cx="461.76" cy="116.46" data-y="13.29" data-x="1605744000" r="1" fill="white"><title>2020-11-19: 13</title></circle>
</g>
<g data-series="recent-cases" class="data-series">
	<path d="M 461.76,116.46L 463.41,146.88L 465.06,165.13L 466.70,222.41L 468.35,247.25L 470.00,241.93" id="Recent cases" class="line" stroke-width="1" stroke-linecap="round" stroke-dasharray="4,6" stroke-dashoffset="4"><title>Recent cases</title></path>
	<circle cx="461.76" cy="116.46" data-y="13.29" data-x="1605744000" r="2.5" fill="white"><title>2020-11-19: 13</title></circle>
	<circle cx="463.41" cy="146.88" data-y="11.73" data-x="1605830400" r="2.5" fill="white"><title>2020-11-20: 12</title></circle>
	<circle cx="465.06" cy="165.13" data-y="10.79" data-x="1605916800" r="2.5" fill="white"><title>2020-11-21: 11</title></circle>
	<circle cx="466.70" cy="222.41" data-y="7.85" data-x="1606003200" r="2.5" fill="white"><title>2020-11-22: 8</title></circle>
	<circle cx="468.35" cy="247.25" data-y="6.57" data-x="1606089600" r="2.5" fill="white"><title>2020-11-23: 7</title></circle>
	<circle cx="470.00" cy="241.93" data-y="6.84" data-x="1606176000" r="2.5" fill="white"><title>2020-11-24: 7</title></circle>
</g>
</svg>
