<svg width="480" height="400" viewBox="0 0 480 400" xmlns="http://www.w3.org/2000/svg" style="overflow:display" preserveAspectRatio="xMinYMin meet" overflow="visible">
<defs>
	<style>
	.data-series path.line { fill-opacity: 0; stroke: black; }
	.data-series path.line.dotted { stroke-dasharray: 12 20 }
	.data-series:hover path.line, .data-series.on path.line { stroke-width: 1; }
	.data-series:hover circle, .data-series.on circle { display: inline; }
	.graph-grid { font-family: "Helvetica Neue",Helvetica,Arial,"Lucida Grande",sans-serif; }
	.graph-grid line { stroke: black; stroke-width: 1; stroke-linecap: round; }
	.graph-grid.graph-grid-x text { text-anchor: middle; dominant-baseline: hanging; transform: translateY(10px); }
	.graph-grid.graph-grid-y text { text-anchor: end; dominant-baseline: middle; transform: translateX(-10px); }
	</style>
</defs>
<g class="graph-grid graph-grid-y">
	<line x1="25.00" y1="375.00" x2="470.00" y2="375.00" data-left="25"></line>
	<text x="35" y="375" text-anchor="end">0</text>
	<text x="35" y="248.314583333333" text-anchor="end">10</text>
	<text x="35" y="121.629166666667" text-anchor="end">20</text>
	<text style="text-anchor:middle;dominant-baseline:hanging;font-weight:bold;transform: translateY(192.5px) rotate(-90deg);"></text>
</g>
<g class="graph-grid graph-grid-x">
	<line class="tick" x1="28.63" y1="375.00" x2="28.63" y2="380.00"></line>
	<text x="28.6326530612245" y="375" text-anchor="middle">M</text>
	<line class="tick" x1="84.94" y1="375.00" x2="84.94" y2="380.00"></line>
	<text x="84.9387755102041" y="375" text-anchor="middle">A</text>
	<line class="tick" x1="139.43" y1="375.00" x2="139.43" y2="380.00"></line>
	<text x="139.428571428571" y="375" text-anchor="middle">M</text>
	<line class="tick" x1="195.73" y1="375.00" x2="195.73" y2="380.00"></line>
	<text x="195.734693877551" y="375" text-anchor="middle">J</text>
	<line class="tick" x1="250.22" y1="375.00" x2="250.22" y2="380.00"></line>
	<text x="250.224489795918" y="375" text-anchor="middle">J</text>
	<line class="tick" x1="306.53" y1="375.00" x2="306.53" y2="380.00"></line>
	<text x="306.530612244898" y="375" text-anchor="middle">A</text>
	<line class="tick" x1="362.84" y1="375.00" x2="362.84" y2="380.00"></line>
	<text x="362.836734693878" y="375" text-anchor="middle">S</text>
	<line class="tick" x1="417.33" y1="375.00" x2="417.33" y2="380.00"></line>
	<text x="417.326530612245" y="375" text-anchor="middle">O</text>
	<text style="text-anchor:middle;dominant-baseline:hanging;font-weight:bold;transform: translateY(192.5px) rotate(-90deg);"></text>
</g>
<g data-series="widespread" class="data-series">
	<path d="M 25.00,286.32L 470.00,286.32" id="S12000042-level-0" class="line" stroke-width="1" stroke-linecap="round" stroke-dasharray="3,3" fill-opacity="0.3" opacity="0.3"><title>Widespread</title></path>
</g>
<g data-series="substantial" class="data-series">
	<path d="M 25.00,324.33L 470.00,324.33" id="S12000042-level-1" class="line" stroke-width="1" stroke-linecap="round" stroke-dasharray="3,3" fill-opacity="0.3" opacity="0.3"><title>Substantial</title></path>
</g>
<g data-series="moderate" class="data-series">
	<path d="M 25.00,362.33L 470.00,362.33" id="S12000042-level-2" class="line" stroke-width="1" stroke-linecap="round" stroke-dasharray="3,3" fill-opacity="0.3" opacity="0.3"><title>Moderate</title></path>
</g>
<g data-series="new-cases" class="data-series">
	<path d="M 25.00,375.00L 26.82,375.00L 28.63,375.00L 30.45,375.00L 32.27,375.00L 34.08,375.00L 35.90,375.00L 37.71,371.35L 39.53,371.35L 41.35,371.35L 43.16,364.05L 44.98,364.05L 46.80,362.83L 48.61,361.62L 50.43,364.05L 52.24,362.83L 54.06,360.40L 55.88,366.48L 57.69,359.18L 59.51,355.53L 61.33,353.10L 63.14,343.37L 64.96,332.42L 66.78,320.25L 68.59,305.65L 70.41,280.10L 72.22,277.67L 74.04,272.80L 75.86,258.20L 77.67,224.13L 79.49,204.67L 81.31,180.33L 83.12,159.65L 84.94,142.62L 86.76,140.18L 88.57,113.42L 90.39,130.45L 92.20,129.23L 94.02,135.32L 95.84,156.00L 97.65,171.82L 99.47,177.90L 101.29,191.28L 103.10,204.67L 104.92,213.18L 106.73,224.13L 108.55,236.30L 110.37,227.78L 112.18,230.22L 114.00,246.03L 115.82,224.13L 117.63,225.35L 119.45,233.87L 121.27,232.65L 123.08,248.47L 124.90,249.68L 126.71,243.60L 128.53,252.12L 130.35,256.98L 132.16,255.77L 133.98,269.15L 135.80,260.63L 137.61,258.20L 139.43,275.23L 141.24,287.40L 143.06,298.35L 144.88,305.65L 146.69,300.78L 148.51,304.43L 150.33,303.22L 152.14,305.65L 153.96,303.22L 155.78,302.00L 157.59,281.32L 159.41,293.48L 161.22,294.70L 163.04,298.35L 164.86,298.35L 166.67,311.73L 168.49,314.17L 170.31,338.50L 172.12,338.50L 173.94,342.15L 175.76,343.37L 177.57,347.02L 179.39,347.02L 181.20,354.32L 183.02,356.75L 184.84,356.75L 186.65,357.97L 188.47,357.97L 190.29,364.05L 192.10,370.13L 193.92,371.35L 195.73,371.35L 197.55,371.35L 199.37,366.48L 201.18,364.05L 203.00,361.62L 204.82,360.40L 206.63,359.18L 208.45,361.62L 210.27,362.83L 212.08,367.70L 213.90,370.13L 215.71,372.57L 217.53,373.78L 219.35,375.00L 221.16,375.00L 222.98,375.00L 224.80,373.78L 226.61,373.78L 228.43,372.57L 230.24,367.70L 232.06,367.70L 233.88,367.70L 235.69,367.70L 237.51,368.92L 239.33,368.92L 241.14,370.13L 242.96,375.00L 244.78,375.00L 246.59,375.00L 248.41,375.00L 250.22,375.00L 252.04,375.00L 253.86,375.00L 255.67,375.00L 257.49,375.00L 259.31,373.78L 261.12,373.78L 262.94,373.78L 264.76,373.78L 266.57,372.57L 268.39,372.57L 270.20,371.35L 272.02,371.35L 273.84,371.35L 275.65,371.35L 277.47,371.35L 279.29,372.57L 281.10,371.35L 282.92,372.57L 284.73,372.57L 286.55,372.57L 288.37,372.57L 290.18,372.57L 292.00,372.57L 293.82,372.57L 295.63,370.13L 297.45,368.92L 299.27,368.92L 301.08,367.70L 302.90,367.70L 304.71,366.48L 306.53,366.48L 308.35,368.92L 310.16,370.13L 311.98,368.92L 313.80,370.13L 315.61,370.13L 317.43,370.13L 319.24,368.92L 321.06,365.27L 322.88,364.05L 324.69,364.05L 326.51,364.05L 328.33,359.18L 330.14,348.23L 331.96,329.98L 333.78,310.52L 335.59,283.75L 337.41,275.23L 339.22,269.15L 341.04,266.72L 342.86,276.45L 344.67,293.48L 346.49,316.60L 348.31,342.15L 350.12,350.67L 351.94,355.53L 353.76,357.97L 355.57,360.40L 357.39,361.62L 359.20,359.18L 361.02,357.97L 362.84,357.97L 364.65,354.32L 366.47,355.53L 368.29,351.88L 370.10,351.88L 371.92,351.88L 373.73,356.75L 375.55,353.10L 377.37,354.32L 379.18,348.23L 381.00,348.23L 382.82,347.02L 384.63,337.28L 386.45,334.85L 388.27,334.85L 390.08,337.28L 391.90,344.58L 393.71,339.72L 395.53,332.42L 397.35,321.47L 399.16,252.12L 400.98,210.75L 402.80,196.15L 404.61,190.07L 406.43,176.68L 408.24,173.03L 410.06,175.47L 411.88,225.35L 413.69,246.03L 415.51,239.95L 417.33,225.35L 419.14,207.10L 420.96,191.28L 422.78,168.17L 424.59,131.67L 426.41,118.28L 428.22,102.47L 430.04,95.17L 431.86,81.78L 433.67,40.42L 435.49,36.77L 437.31,55.02L 439.12,41.63L 440.94,48.93L 442.76,50.15L 444.57,65.97L 446.39,69.62L 448.20,57.45L 450.02,34.33L 451.84,41.63L 453.65,37.98L 455.47,37.98L 457.29,10.00L 459.10,41.63L 460.92,34.33" id="New cases" class="line" stroke-width="1" stroke-linecap="round"><title>New cases</title></path>
	<circle cx="25.00" cy="375.00" data-y="0.00" data-x="1582848000" r="1" fill="white"><title>2020-02-28: 0</title></circle>
	<circle cx="26.82" cy="375.00" data-y="0.00" data-x="1582934400" r="1" fill="white"><title>2020-02-29: 0</title></circle>
	<circle cx="28.63" cy="375.00" data-y="0.00" data-x="1583020800" r="1" fill="white"><title>2020-03-01: 0</title></circle>
	<circle cx="30.45" cy="375.00" data-y="0.00" data-x="1583107200" r="1" fill="white"><title>2020-03-02: 0</title></circle>
	<circle cx="32.27" cy="375.00" data-y="0.00" data-x="1583193600" r="1" fill="white"><title>2020-03-03: 0</title></circle>
	<circle cx="34.08" cy="375.00" data-y="0.00" data-x="1583280000" r="1" fill="white"><title>2020-03-04: 0</title></circle>
	<circle cx="35.90" cy="375.00" data-y="0.00" data-x="1583366400" r="1" fill="white"><title>2020-03-05: 0</title></circle>
	<circle cx="37.71" cy="371.35" data-y="0.29" data-x="1583452800" r="1" fill="white"><title>2020-03-06: 0</title></circle>
	<circle cx="39.53" cy="371.35" data-y="0.29" data-x="1583539200" r="1" fill="white"><title>2020-03-07: 0</title></circle>
	<circle cx="41.35" cy="371.35" data-y="0.29" data-x="1583625600" r="1" fill="white"><title>2020-03-08: 0</title></circle>
	<circle cx="43.16" cy="364.05" data-y="0.86" data-x="1583712000" r="1" fill="white"><title>2020-03-09: 1</title></circle>
	<circle cx="44.98" cy="364.05" data-y="0.86" data-x="1583798400" r="1" fill="white"><title>2020-03-10: 1</title></circle>
	<circle cx="46.80" cy="362.83" data-y="0.96" data-x="1583884800" r="1" fill="white"><title>2020-03-11: 1</title></circle>
	<circle cx="48.61" cy="361.62" data-y="1.06" data-x="1583971200" r="1" fill="white"><title>2020-03-12: 1</title></circle>
	<circle cx="50.43" cy="364.05" data-y="0.86" data-x="1584057600" r="1" fill="white"><title>2020-03-13: 1</title></circle>
	<circle cx="52.24" cy="362.83" data-y="0.96" data-x="1584144000" r="1" fill="white"><title>2020-03-14: 1</title></circle>
	<circle cx="54.06" cy="360.40" data-y="1.15" data-x="1584230400" r="1" fill="white"><title>2020-03-15: 1</title></circle>
	<circle cx="55.88" cy="366.48" data-y="0.67" data-x="1584316800" r="1" fill="white"><title>2020-03-16: 1</title></circle>
	<circle cx="57.69" cy="359.18" data-y="1.25" data-x="1584403200" r="1" fill="white"><title>2020-03-17: 1</title></circle>
	<circle cx="59.51" cy="355.53" data-y="1.54" data-x="1584489600" r="1" fill="white"><title>2020-03-18: 2</title></circle>
	<circle cx="61.33" cy="353.10" data-y="1.73" data-x="1584576000" r="1" fill="white"><title>2020-03-19: 2</title></circle>
	<circle cx="63.14" cy="343.37" data-y="2.50" data-x="1584662400" r="1" fill="white"><title>2020-03-20: 2</title></circle>
	<circle cx="64.96" cy="332.42" data-y="3.36" data-x="1584748800" r="1" fill="white"><title>2020-03-21: 3</title></circle>
	<circle cx="66.78" cy="320.25" data-y="4.32" data-x="1584835200" r="1" fill="white"><title>2020-03-22: 4</title></circle>
	<circle cx="68.59" cy="305.65" data-y="5.47" data-x="1584921600" r="1" fill="white"><title>2020-03-23: 5</title></circle>
	<circle cx="70.41" cy="280.10" data-y="7.49" data-x="1585008000" r="1" fill="white"><title>2020-03-24: 7</title></circle>
	<circle cx="72.22" cy="277.67" data-y="7.68" data-x="1585094400" r="1" fill="white"><title>2020-03-25: 8</title></circle>
	<circle cx="74.04" cy="272.80" data-y="8.07" data-x="1585180800" r="1" fill="white"><title>2020-03-26: 8</title></circle>
	<circle cx="75.86" cy="258.20" data-y="9.22" data-x="1585267200" r="1" fill="white"><title>2020-03-27: 9</title></circle>
	<circle cx="77.67" cy="224.13" data-y="11.91" data-x="1585353600" r="1" fill="white"><title>2020-03-28: 12</title></circle>
	<circle cx="79.49" cy="204.67" data-y="13.45" data-x="1585440000" r="1" fill="white"><title>2020-03-29: 13</title></circle>
	<circle cx="81.31" cy="180.33" data-y="15.37" data-x="1585526400" r="1" fill="white"><title>2020-03-30: 15</title></circle>
	<circle cx="83.12" cy="159.65" data-y="17.00" data-x="1585612800" r="1" fill="white"><title>2020-03-31: 17</title></circle>
	<circle cx="84.94" cy="142.62" data-y="18.34" data-x="1585699200" r="1" fill="white"><title>2020-04-01: 18</title></circle>
	<circle cx="86.76" cy="140.18" data-y="18.54" data-x="1585785600" r="1" fill="white"><title>2020-04-02: 19</title></circle>
	<circle cx="88.57" cy="113.42" data-y="20.65" data-x="1585872000" r="1" fill="white"><title>2020-04-03: 21</title></circle>
	<circle cx="90.39" cy="130.45" data-y="19.30" data-x="1585958400" r="1" fill="white"><title>2020-04-04: 19</title></circle>
	<circle cx="92.20" cy="129.23" data-y="19.40" data-x="1586044800" r="1" fill="white"><title>2020-04-05: 19</title></circle>
	<circle cx="94.02" cy="135.32" data-y="18.92" data-x="1586131200" r="1" fill="white"><title>2020-04-06: 19</title></circle>
	<circle cx="95.84" cy="156.00" data-y="17.29" data-x="1586217600" r="1" fill="white"><title>2020-04-07: 17</title></circle>
	<circle cx="97.65" cy="171.82" data-y="16.04" data-x="1586304000" r="1" fill="white"><title>2020-04-08: 16</title></circle>
	<circle cx="99.47" cy="177.90" data-y="15.56" data-x="1586390400" r="1" fill="white"><title>2020-04-09: 16</title></circle>
	<circle cx="101.29" cy="191.28" data-y="14.50" data-x="1586476800" r="1" fill="white"><title>2020-04-10: 15</title></circle>
	<circle cx="103.10" cy="204.67" data-y="13.45" data-x="1586563200" r="1" fill="white"><title>2020-04-11: 13</title></circle>
	<circle cx="104.92" cy="213.18" data-y="12.77" data-x="1586649600" r="1" fill="white"><title>2020-04-12: 13</title></circle>
	<circle cx="106.73" cy="224.13" data-y="11.91" data-x="1586736000" r="1" fill="white"><title>2020-04-13: 12</title></circle>
	<circle cx="108.55" cy="236.30" data-y="10.95" data-x="1586822400" r="1" fill="white"><title>2020-04-14: 11</title></circle>
	<circle cx="110.37" cy="227.78" data-y="11.62" data-x="1586908800" r="1" fill="white"><title>2020-04-15: 12</title></circle>
	<circle cx="112.18" cy="230.22" data-y="11.43" data-x="1586995200" r="1" fill="white"><title>2020-04-16: 11</title></circle>
	<circle cx="114.00" cy="246.03" data-y="10.18" data-x="1587081600" r="1" fill="white"><title>2020-04-17: 10</title></circle>
	<circle cx="115.82" cy="224.13" data-y="11.91" data-x="1587168000" r="1" fill="white"><title>2020-04-18: 12</title></circle>
	<circle cx="117.63" cy="225.35" data-y="11.81" data-x="1587254400" r="1" fill="white"><title>2020-04-19: 12</title></circle>
	<circle cx="119.45" cy="233.87" data-y="11.14" data-x="1587340800" r="1" fill="white"><title>2020-04-20: 11</title></circle>
	<circle cx="121.27" cy="232.65" data-y="11.24" data-x="1587427200" r="1" fill="white"><title>2020-04-21: 11</title></circle>
	<circle cx="123.08" cy="248.47" data-y="9.99" data-x="1587513600" r="1" fill="white"><title>2020-04-22: 10</title></circle>
	<circle cx="124.90" cy="249.68" data-y="9.89" data-x="1587600000" r="1" fill="white"><title>2020-04-23: 10</title></circle>
	<circle cx="126.71" cy="243.60" data-y="10.37" data-x="1587686400" r="1" fill="white"><title>2020-04-24: 10</title></circle>
	<circle cx="128.53" cy="252.12" data-y="9.70" data-x="1587772800" r="1" fill="white"><title>2020-04-25: 10</title></circle>
	<circle cx="130.35" cy="256.98" data-y="9.32" data-x="1587859200" r="1" fill="white"><title>2020-04-26: 9</title></circle>
	<circle cx="132.16" cy="255.77" data-y="9.41" data-x="1587945600" r="1" fill="white"><title>2020-04-27: 9</title></circle>
	<circle cx="133.98" cy="269.15" data-y="8.36" data-x="1588032000" r="1" fill="white"><title>2020-04-28: 8</title></circle>
	<circle cx="135.80" cy="260.63" data-y="9.03" data-x="1588118400" r="1" fill="white"><title>2020-04-29: 9</title></circle>
	<circle cx="137.61" cy="258.20" data-y="9.22" data-x="1588204800" r="1" fill="white"><title>2020-04-30: 9</title></circle>
	<circle cx="139.43" cy="275.23" data-y="7.88" data-x="1588291200" r="1" fill="white"><title>2020-05-01: 8</title></circle>
	<circle cx="141.24" cy="287.40" data-y="6.91" data-x="1588377600" r="1" fill="white"><title>2020-05-02: 7</title></circle>
	<circle cx="143.06" cy="298.35" data-y="6.05" data-x="1588464000" r="1" fill="white"><title>2020-05-03: 6</title></circle>
	<circle cx="144.88" cy="305.65" data-y="5.47" data-x="1588550400" r="1" fill="white"><title>2020-05-04: 5</title></circle>
	<circle cx="146.69" cy="300.78" data-y="5.86" data-x="1588636800" r="1" fill="white"><title>2020-05-05: 6</title></circle>
	<circle cx="148.51" cy="304.43" data-y="5.57" data-x="1588723200" r="1" fill="white"><title>2020-05-06: 6</title></circle>
	<circle cx="150.33" cy="303.22" data-y="5.67" data-x="1588809600" r="1" fill="white"><title>2020-05-07: 6</title></circle>
	<circle cx="152.14" cy="305.65" data-y="5.47" data-x="1588896000" r="1" fill="white"><title>2020-05-08: 5</title></circle>
	<circle cx="153.96" cy="303.22" data-y="5.67" data-x="1588982400" r="1" fill="white"><title>2020-05-09: 6</title></circle>
	<circle cx="155.78" cy="302.00" data-y="5.76" data-x="1589068800" r="1" fill="white"><title>2020-05-10: 6</title></circle>
	<circle cx="157.59" cy="281.32" data-y="7.39" data-x="1589155200" r="1" fill="white"><title>2020-05-11: 7</title></circle>
	<circle cx="159.41" cy="293.48" data-y="6.43" data-x="1589241600" r="1" fill="white"><title>2020-05-12: 6</title></circle>
	<circle cx="161.22" cy="294.70" data-y="6.34" data-x="1589328000" r="1" fill="white"><title>2020-05-13: 6</title></circle>
	<circle cx="163.04" cy="298.35" data-y="6.05" data-x="1589414400" r="1" fill="white"><title>2020-05-14: 6</title></circle>
	<circle cx="164.86" cy="298.35" data-y="6.05" data-x="1589500800" r="1" fill="white"><title>2020-05-15: 6</title></circle>
	<circle cx="166.67" cy="311.73" data-y="4.99" data-x="1589587200" r="1" fill="white"><title>2020-05-16: 5</title></circle>
	<circle cx="168.49" cy="314.17" data-y="4.80" data-x="1589673600" r="1" fill="white"><title>2020-05-17: 5</title></circle>
	<circle cx="170.31" cy="338.50" data-y="2.88" data-x="1589760000" r="1" fill="white"><title>2020-05-18: 3</title></circle>
	<circle cx="172.12" cy="338.50" data-y="2.88" data-x="1589846400" r="1" fill="white"><title>2020-05-19: 3</title></circle>
	<circle cx="173.94" cy="342.15" data-y="2.59" data-x="1589932800" r="1" fill="white"><title>2020-05-20: 3</title></circle>
	<circle cx="175.76" cy="343.37" data-y="2.50" data-x="1590019200" r="1" fill="white"><title>2020-05-21: 2</title></circle>
	<circle cx="177.57" cy="347.02" data-y="2.21" data-x="1590105600" r="1" fill="white"><title>2020-05-22: 2</title></circle>
	<circle cx="179.39" cy="347.02" data-y="2.21" data-x="1590192000" r="1" fill="white"><title>2020-05-23: 2</title></circle>
	<circle cx="181.20" cy="354.32" data-y="1.63" data-x="1590278400" r="1" fill="white"><title>2020-05-24: 2</title></circle>
	<circle cx="183.02" cy="356.75" data-y="1.44" data-x="1590364800" r="1" fill="white"><title>2020-05-25: 1</title></circle>
	<circle cx="184.84" cy="356.75" data-y="1.44" data-x="1590451200" r="1" fill="white"><title>2020-05-26: 1</title></circle>
	<circle cx="186.65" cy="357.97" data-y="1.34" data-x="1590537600" r="1" fill="white"><title>2020-05-27: 1</title></circle>
	<circle cx="188.47" cy="357.97" data-y="1.34" data-x="1590624000" r="1" fill="white"><title>2020-05-28: 1</title></circle>
	<circle cx="190.29" cy="364.05" data-y="0.86" data-x="1590710400" r="1" fill="white"><title>2020-05-29: 1</title></circle>
	<circle cx="192.10" cy="370.13" data-y="0.38" data-x="1590796800" r="1" fill="white"><title>2020-05-30: 0</title></circle>
	<circle cx="193.92" cy="371.35" data-y="0.29" data-x="1590883200" r="1" fill="white"><title>2020-05-31: 0</title></circle>
	<circle cx="195.73" cy="371.35" data-y="0.29" data-x="1590969600" r="1" fill="white"><title>2020-06-01: 0</title></circle>
	<circle cx="197.55" cy="371.35" data-y="0.29" data-x="1591056000" r="1" fill="white"><title>2020-06-02: 0</title></circle>
	<circle cx="199.37" cy="366.48" data-y="0.67" data-x="1591142400" r="1" fill="white"><title>2020-06-03: 1</title></circle>
	<circle cx="201.18" cy="364.05" data-y="0.86" data-x="1591228800" r="1" fill="white"><title>2020-06-04: 1</title></circle>
	<circle cx="203.00" cy="361.62" data-y="1.06" data-x="1591315200" r="1" fill="white"><title>2020-06-05: 1</title></circle>
	<circle cx="204.82" cy="360.40" data-y="1.15" data-x="1591401600" r="1" fill="white"><title>2020-06-06: 1</title></circle>
	<circle cx="206.63" cy="359.18" data-y="1.25" data-x="1591488000" r="1" fill="white"><title>2020-06-07: 1</title></circle>
	<circle cx="208.45" cy="361.62" data-y="1.06" data-x="1591574400" r="1" fill="white"><title>2020-06-08: 1</title></circle>
	<circle cx="210.27" cy="362.83" data-y="0.96" data-x="1591660800" r="1" fill="white"><title>2020-06-09: 1</title></circle>
	<circle cx="212.08" cy="367.70" data-y="0.58" data-x="1591747200" r="1" fill="white"><title>2020-06-10: 1</title></circle>
	<circle cx="213.90" cy="370.13" data-y="0.38" data-x="1591833600" r="1" fill="white"><title>2020-06-11: 0</title></circle>
	<circle cx="215.71" cy="372.57" data-y="0.19" data-x="1591920000" r="1" fill="white"><title>2020-06-12: 0</title></circle>
	<circle cx="217.53" cy="373.78" data-y="0.10" data-x="1592006400" r="1" fill="white"><title>2020-06-13: 0</title></circle>
	<circle cx="219.35" cy="375.00" data-y="0.00" data-x="1592092800" r="1" fill="white"><title>2020-06-14: 0</title></circle>
	<circle cx="221.16" cy="375.00" data-y="0.00" data-x="1592179200" r="1" fill="white"><title>2020-06-15: 0</title></circle>
	<circle cx="222.98" cy="375.00" data-y="0.00" data-x="1592265600" r="1" fill="white"><title>2020-06-16: 0</title></circle>
	<circle cx="224.80" cy="373.78" data-y="0.10" data-x="1592352000" r="1" fill="white"><title>2020-06-17: 0</title></circle>
	<circle cx="226.61" cy="373.78" data-y="0.10" data-x="1592438400" r="1" fill="white"><title>2020-06-18: 0</title></circle>
	<circle cx="228.43" cy="372.57" data-y="0.19" data-x="1592524800" r="1" fill="white"><title>2020-06-19: 0</title></circle>
	<circle cx="230.24" cy="367.70" data-y="0.58" data-x="1592611200" r="1" fill="white"><title>2020-06-20: 1</title></circle>
	<circle cx="232.06" cy="367.70" data-y="0.58" data-x="1592697600" r="1" fill="white"><title>2020-06-21: 1</title></circle>
	<circle cx="233.88" cy="367.70" data-y="0.58" data-x="1592784000" r="1" fill="white"><title>2020-06-22: 1</title></circle>
	<circle cx="235.69" cy="367.70" data-y="0.58" data-x="1592870400" r="1" fill="white"><title>2020-06-23: 1</title></circle>
	<circle cx="237.51" cy="368.92" data-y="0.48" data-x="1592956800" r="1" fill="white"><title>2020-06-24: 0</title></circle>
	<circle cx="239.33" cy="368.92" data-y="0.48" data-x="1593043200" r="1" fill="white"><title>2020-06-25: 0</title></circle>
	<circle cx="241.14" cy="370.13" data-y="0.38" data-x="1593129600" r="1" fill="white"><title>2020-06-26: 0</title></circle>
	<circle cx="242.96" cy="375.00" data-y="0.00" data-x="1593216000" r="1" fill="white"><title>2020-06-27: 0</title></circle>
	<circle cx="244.78" cy="375.00" data-y="0.00" data-x="1593302400" r="1" fill="white"><title>2020-06-28: 0</title></circle>
	<circle cx="246.59" cy="375.00" data-y="0.00" data-x="1593388800" r="1" fill="white"><title>2020-06-29: 0</title></circle>
	<circle cx="248.41" cy="375.00" data-y="0.00" data-x="1593475200" r="1" fill="white"><title>2020-06-30: 0</title></circle>
	<circle cx="250.22" cy="375.00" data-y="0.00" data-x="1593561600" r="1" fill="white"><title>2020-07-01: 0</title></circle>
	<circle cx="252.04" cy="375.00" data-y="0.00" data-x="1593648000" r="1" fill="white"><title>2020-07-02: 0</title></circle>
	<circle cx="253.86" cy="375.00" data-y="0.00" data-x="1593734400" r="1" fill="white"><title>2020-07-03: 0</title></circle>
	<circle cx="255.67" cy="375.00" data-y="0.00" data-x="1593820800" r="1" fill="white"><title>2020-07-04: 0</title></circle>
	<circle cx="257.49" cy="375.00" data-y="0.00" data-x="1593907200" r="1" fill="white"><title>2020-07-05: 0</title></circle>
	<circle cx="259.31" cy="373.78" data-y="0.10" data-x="1593993600" r="1" fill="white"><title>2020-07-06: 0</title></circle>
	<circle cx="261.12" cy="373.78" data-y="0.10" data-x="1594080000" r="1" fill="white"><title>2020-07-07: 0</title></circle>
	<circle cx="262.94" cy="373.78" data-y="0.10" data-x="1594166400" r="1" fill="white"><title>2020-07-08: 0</title></circle>
	<circle cx="264.76" cy="373.78" data-y="0.10" data-x="1594252800" r="1" fill="white"><title>2020-07-09: 0</title></circle>
	<circle cx="266.57" cy="372.57" data-y="0.19" data-x="1594339200" r="1" fill="white"><title>2020-07-10: 0</title></circle>
	<circle cx="268.39" cy="372.57" data-y="0.19" data-x="1594425600" r="1" fill="white"><title>2020-07-11: 0</title></circle>
	<circle cx="270.20" cy="371.35" data-y="0.29" data-x="1594512000" r="1" fill="white"><title>2020-07-12: 0</title></circle>
	<circle cx="272.02" cy="371.35" data-y="0.29" data-x="1594598400" r="1" fill="white"><title>2020-07-13: 0</title></circle>
	<circle cx="273.84" cy="371.35" data-y="0.29" data-x="1594684800" r="1" fill="white"><title>2020-07-14: 0</title></circle>
	<circle cx="275.65" cy="371.35" data-y="0.29" data-x="1594771200" r="1" fill="white"><title>2020-07-15: 0</title></circle>
	<circle cx="277.47" cy="371.35" data-y="0.29" data-x="1594857600" r="1" fill="white"><title>2020-07-16: 0</title></circle>
	<circle cx="279.29" cy="372.57" data-y="0.19" data-x="1594944000" r="1" fill="white"><title>2020-07-17: 0</title></circle>
	<circle cx="281.10" cy="371.35" data-y="0.29" data-x="1595030400" r="1" fill="white"><title>2020-07-18: 0</title></circle>
	<circle cx="282.92" cy="372.57" data-y="0.19" data-x="1595116800" r="1" fill="white"><title>2020-07-19: 0</title></circle>
	<circle cx="284.73" cy="372.57" data-y="0.19" data-x="1595203200" r="1" fill="white"><title>2020-07-20: 0</title></circle>
	<circle cx="286.55" cy="372.57" data-y="0.19" data-x="1595289600" r="1" fill="white"><title>2020-07-21: 0</title></circle>
	<circle cx="288.37" cy="372.57" data-y="0.19" data-x="1595376000" r="1" fill="white"><title>2020-07-22: 0</title></circle>
	<circle cx="290.18" cy="372.57" data-y="0.19" data-x="1595462400" r="1" fill="white"><title>2020-07-23: 0</title></circle>
	<circle cx="292.00" cy="372.57" data-y="0.19" data-x="1595548800" r="1" fill="white"><title>2020-07-24: 0</title></circle>
	<circle cx="293.82" cy="372.57" data-y="0.19" data-x="1595635200" r="1" fill="white"><title>2020-07-25: 0</title></circle>
	<circle cx="295.63" cy="370.13" data-y="0.38" data-x="1595721600" r="1" fill="white"><title>2020-07-26: 0</title></circle>
	<circle cx="297.45" cy="368.92" data-y="0.48" data-x="1595808000" r="1" fill="white"><title>2020-07-27: 0</title></circle>
	<circle cx="299.27" cy="368.92" data-y="0.48" data-x="1595894400" r="1" fill="white"><title>2020-07-28: 0</title></circle>
	<circle cx="301.08" cy="367.70" data-y="0.58" data-x="1595980800" r="1" fill="white"><title>2020-07-29: 1</title></circle>
	<circle cx="302.90" cy="367.70" data-y="0.58" data-x="1596067200" r="1" fill="white"><title>2020-07-30: 1</title></circle>
	<circle cx="304.71" cy="366.48" data-y="0.67" data-x="1596153600" r="1" fill="white"><title>2020-07-31: 1</title></circle>
	<circle cx="306.53" cy="366.48" data-y="0.67" data-x="1596240000" r="1" fill="white"><title>2020-08-01: 1</title></circle>
	<circle cx="308.35" cy="368.92" data-y="0.48" data-x="1596326400" r="1" fill="white"><title>2020-08-02: 0</title></circle>
	<circle cx="310.16" cy="370.13" data-y="0.38" data-x="1596412800" r="1" fill="white"><title>2020-08-03: 0</title></circle>
	<circle cx="311.98" cy="368.92" data-y="0.48" data-x="1596499200" r="1" fill="white"><title>2020-08-04: 0</title></circle>
	<circle cx="313.80" cy="370.13" data-y="0.38" data-x="1596585600" r="1" fill="white"><title>2020-08-05: 0</title></circle>
	<circle cx="315.61" cy="370.13" data-y="0.38" data-x="1596672000" r="1" fill="white"><title>2020-08-06: 0</title></circle>
	<circle cx="317.43" cy="370.13" data-y="0.38" data-x="1596758400" r="1" fill="white"><title>2020-08-07: 0</title></circle>
	<circle cx="319.24" cy="368.92" data-y="0.48" data-x="1596844800" r="1" fill="white"><title>2020-08-08: 0</title></circle>
	<circle cx="321.06" cy="365.27" data-y="0.77" data-x="1596931200" r="1" fill="white"><title>2020-08-09: 1</title></circle>
	<circle cx="322.88" cy="364.05" data-y="0.86" data-x="1597017600" r="1" fill="white"><title>2020-08-10: 1</title></circle>
	<circle cx="324.69" cy="364.05" data-y="0.86" data-x="1597104000" r="1" fill="white"><title>2020-08-11: 1</title></circle>
	<circle cx="326.51" cy="364.05" data-y="0.86" data-x="1597190400" r="1" fill="white"><title>2020-08-12: 1</title></circle>
	<circle cx="328.33" cy="359.18" data-y="1.25" data-x="1597276800" r="1" fill="white"><title>2020-08-13: 1</title></circle>
	<circle cx="330.14" cy="348.23" data-y="2.11" data-x="1597363200" r="1" fill="white"><title>2020-08-14: 2</title></circle>
	<circle cx="331.96" cy="329.98" data-y="3.55" data-x="1597449600" r="1" fill="white"><title>2020-08-15: 4</title></circle>
	<circle cx="333.78" cy="310.52" data-y="5.09" data-x="1597536000" r="1" fill="white"><title>2020-08-16: 5</title></circle>
	<circle cx="335.59" cy="283.75" data-y="7.20" data-x="1597622400" r="1" fill="white"><title>2020-08-17: 7</title></circle>
	<circle cx="337.41" cy="275.23" data-y="7.88" data-x="1597708800" r="1" fill="white"><title>2020-08-18: 8</title></circle>
	<circle cx="339.22" cy="269.15" data-y="8.36" data-x="1597795200" r="1" fill="white"><title>2020-08-19: 8</title></circle>
	<circle cx="341.04" cy="266.72" data-y="8.55" data-x="1597881600" r="1" fill="white"><title>2020-08-20: 9</title></circle>
	<circle cx="342.86" cy="276.45" data-y="7.78" data-x="1597968000" r="1" fill="white"><title>2020-08-21: 8</title></circle>
	<circle cx="344.67" cy="293.48" data-y="6.43" data-x="1598054400" r="1" fill="white"><title>2020-08-22: 6</title></circle>
	<circle cx="346.49" cy="316.60" data-y="4.61" data-x="1598140800" r="1" fill="white"><title>2020-08-23: 5</title></circle>
	<circle cx="348.31" cy="342.15" data-y="2.59" data-x="1598227200" r="1" fill="white"><title>2020-08-24: 3</title></circle>
	<circle cx="350.12" cy="350.67" data-y="1.92" data-x="1598313600" r="1" fill="white"><title>2020-08-25: 2</title></circle>
	<circle cx="351.94" cy="355.53" data-y="1.54" data-x="1598400000" r="1" fill="white"><title>2020-08-26: 2</title></circle>
	<circle cx="353.76" cy="357.97" data-y="1.34" data-x="1598486400" r="1" fill="white"><title>2020-08-27: 1</title></circle>
	<circle cx="355.57" cy="360.40" data-y="1.15" data-x="1598572800" r="1" fill="white"><title>2020-08-28: 1</title></circle>
	<circle cx="357.39" cy="361.62" data-y="1.06" data-x="1598659200" r="1" fill="white"><title>2020-08-29: 1</title></circle>
	<circle cx="359.20" cy="359.18" data-y="1.25" data-x="1598745600" r="1" fill="white"><title>2020-08-30: 1</title></circle>
	<circle cx="361.02" cy="357.97" data-y="1.34" data-x="1598832000" r="1" fill="white"><title>2020-08-31: 1</title></circle>
	<circle cx="362.84" cy="357.97" data-y="1.34" data-x="1598918400" r="1" fill="white"><title>2020-09-01: 1</title></circle>
	<circle cx="364.65" cy="354.32" data-y="1.63" data-x="1599004800" r="1" fill="white"><title>2020-09-02: 2</title></circle>
	<circle cx="366.47" cy="355.53" data-y="1.54" data-x="1599091200" r="1" fill="white"><title>2020-09-03: 2</title></circle>
	<circle cx="368.29" cy="351.88" data-y="1.82" data-x="1599177600" r="1" fill="white"><title>2020-09-04: 2</title></circle>
	<circle cx="370.10" cy="351.88" data-y="1.82" data-x="1599264000" r="1" fill="white"><title>2020-09-05: 2</title></circle>
	<circle cx="371.92" cy="351.88" data-y="1.82" data-x="1599350400" r="1" fill="white"><title>2020-09-06: 2</title></circle>
	<circle cx="373.73" cy="356.75" data-y="1.44" data-x="1599436800" r="1" fill="white"><title>2020-09-07: 1</title></circle>
	<circle cx="375.55" cy="353.10" data-y="1.73" data-x="1599523200" r="1" fill="white"><title>2020-09-08: 2</title></circle>
	<circle cx="377.37" cy="354.32" data-y="1.63" data-x="1599609600" r="1" fill="white"><title>2020-09-09: 2</title></circle>
	<circle cx="379.18" cy="348.23" data-y="2.11" data-x="1599696000" r="1" fill="white"><title>2020-09-10: 2</title></circle>
	<circle cx="381.00" cy="348.23" data-y="2.11" data-x="1599782400" r="1" fill="white"><title>2020-09-11: 2</title></circle>
	<circle cx="382.82" cy="347.02" data-y="2.21" data-x="1599868800" r="1" fill="white"><title>2020-09-12: 2</title></circle>
	<circle cx="384.63" cy="337.28" data-y="2.98" data-x="1599955200" r="1" fill="white"><title>2020-09-13: 3</title></circle>
	<circle cx="386.45" cy="334.85" data-y="3.17" data-x="1600041600" r="1" fill="white"><title>2020-09-14: 3</title></circle>
	<circle cx="388.27" cy="334.85" data-y="3.17" data-x="1600128000" r="1" fill="white"><title>2020-09-15: 3</title></circle>
	<circle cx="390.08" cy="337.28" data-y="2.98" data-x="1600214400" r="1" fill="white"><title>2020-09-16: 3</title></circle>
	<circle cx="391.90" cy="344.58" data-y="2.40" data-x="1600300800" r="1" fill="white"><title>2020-09-17: 2</title></circle>
	<circle cx="393.71" cy="339.72" data-y="2.79" data-x="1600387200" r="1" fill="white"><title>2020-09-18: 3</title></circle>
	<circle cx="395.53" cy="332.42" data-y="3.36" data-x="1600473600" r="1" fill="white"><title>2020-09-19: 3</title></circle>
	<circle cx="397.35" cy="321.47" data-y="4.23" data-x="1600560000" r="1" fill="white"><title>2020-09-20: 4</title></circle>
	<circle cx="399.16" cy="252.12" data-y="9.70" data-x="1600646400" r="1" fill="white"><title>2020-09-21: 10</title></circle>
	<circle cx="400.98" cy="210.75" data-y="12.97" data-x="1600732800" r="1" fill="white"><title>2020-09-22: 13</title></circle>
	<circle cx="402.80" cy="196.15" data-y="14.12" data-x="1600819200" r="1" fill="white"><title>2020-09-23: 14</title></circle>
	<circle cx="404.61" cy="190.07" data-y="14.60" data-x="1600905600" r="1" fill="white"><title>2020-09-24: 15</title></circle>
	<circle cx="406.43" cy="176.68" data-y="15.65" data-x="1600992000" r="1" fill="white"><title>2020-09-25: 16</title></circle>
	<circle cx="408.24" cy="173.03" data-y="15.94" data-x="1601078400" r="1" fill="white"><title>2020-09-26: 16</title></circle>
	<circle cx="410.06" cy="175.47" data-y="15.75" data-x="1601164800" r="1" fill="white"><title>2020-09-27: 16</title></circle>
	<circle cx="411.88" cy="225.35" data-y="11.81" data-x="1601251200" r="1" fill="white"><title>2020-09-28: 12</title></circle>
	<circle cx="413.69" cy="246.03" data-y="10.18" data-x="1601337600" r="1" fill="white"><title>2020-09-29: 10</title></circle>
	<circle cx="415.51" cy="239.95" data-y="10.66" data-x="1601424000" r="1" fill="white"><title>2020-09-30: 11</title></circle>
	<circle cx="417.33" cy="225.35" data-y="11.81" data-x="1601510400" r="1" fill="white"><title>2020-10-01: 12</title></circle>
	<circle cx="419.14" cy="207.10" data-y="13.25" data-x="1601596800" r="1" fill="white"><title>2020-10-02: 13</title></circle>
	<circle cx="420.96" cy="191.28" data-y="14.50" data-x="1601683200" r="1" fill="white"><title>2020-10-03: 15</title></circle>
	<circle cx="422.78" cy="168.17" data-y="16.33" data-x="1601769600" r="1" fill="white"><title>2020-10-04: 16</title></circle>
	<circle cx="424.59" cy="131.67" data-y="19.21" data-x="1601856000" r="1" fill="white"><title>2020-10-05: 19</title></circle>
	<circle cx="426.41" cy="118.28" data-y="20.26" data-x="1601942400" r="1" fill="white"><title>2020-10-06: 20</title></circle>
	<circle cx="428.22" cy="102.47" data-y="21.51" data-x="1602028800" r="1" fill="white"><title>2020-10-07: 22</title></circle>
	<circle cx="430.04" cy="95.17" data-y="22.09" data-x="1602115200" r="1" fill="white"><title>2020-10-08: 22</title></circle>
	<circle cx="431.86" cy="81.78" data-y="23.15" data-x="1602201600" r="1" fill="white"><title>2020-10-09: 23</title></circle>
	<circle cx="433.67" cy="40.42" data-y="26.41" data-x="1602288000" r="1" fill="white"><title>2020-10-10: 26</title></circle>
	<circle cx="435.49" cy="36.77" data-y="26.70" data-x="1602374400" r="1" fill="white"><title>2020-10-11: 27</title></circle>
	<circle cx="437.31" cy="55.02" data-y="25.26" data-x="1602460800" r="1" fill="white"><title>2020-10-12: 25</title></circle>
	<circle cx="439.12" cy="41.63" data-y="26.31" data-x="1602547200" r="1" fill="white"><title>2020-10-13: 26</title></circle>
	<circle cx="440.94" cy="48.93" data-y="25.74" data-x="1602633600" r="1" fill="white"><title>2020-10-14: 26</title></circle>
	<circle cx="442.76" cy="50.15" data-y="25.64" data-x="1602720000" r="1" fill="white"><title>2020-10-15: 26</title></circle>
	<circle cx="444.57" cy="65.97" data-y="24.39" data-x="1602806400" r="1" fill="white"><title>2020-10-16: 24</title></circle>
	<circle cx="446.39" cy="69.62" data-y="24.11" data-x="1602892800" r="1" fill="white"><title>2020-10-17: 24</title></circle>
	<circle cx="448.20" cy="57.45" data-y="25.07" data-x="1602979200" r="1" fill="white"><title>2020-10-18: 25</title></circle>
	<circle cx="450.02" cy="34.33" data-y="26.89" data-x="1603065600" r="1" fill="white"><title>2020-10-19: 27</title></circle>
	<circle cx="451.84" cy="41.63" data-y="26.31" data-x="1603152000" r="1" fill="white"><title>2020-10-20: 26</title></circle>
	<circle cx="453.65" cy="37.98" data-y="26.60" data-x="1603238400" r="1" fill="white"><title>2020-10-21: 27</title></circle>
	<circle cx="455.47" cy="37.98" data-y="26.60" data-x="1603324800" r="1" fill="white"><title>2020-10-22: 27</title></circle>
	<circle cx="457.29" cy="10.00" data-y="28.81" data-x="1603411200" r="1" fill="white"><title>2020-10-23: 29</title></circle>
	<circle cx="459.10" cy="41.63" data-y="26.31" data-x="1603497600" r="1" fill="white"><title>2020-10-24: 26</title></circle>
	<circle cx="460.92" cy="34.33" data-y="26.89" data-x="1603584000" r="1" fill="white"><title>2020-10-25: 27</title></circle>
</g>
<g data-series="recent-cases" class="data-series">
	<path d="M 460.92,34.33L 462.73,56.23L 464.55,100.03L 466.37,93.95L 468.18,78.62L 470.00,119.50" id="Recent cases" class="line" stroke-width="1" stroke-linecap="round" stroke-dasharray="4,6" stroke-dashoffset="4"><title>Recent cases</title></path>
	<circle cx="460.92" cy="34.33" data-y="26.89" data-x="1603584000" r="2.5" fill="white"><title>2020-10-25: 27</title></circle>
	<circle cx="462.73" cy="56.23" data-y="25.16" data-x="1603670400" r="2.5" fill="white"><title>2020-10-26: 25</title></circle>
	<circle cx="464.55" cy="100.03" data-y="21.70" data-x="1603756800" r="2.5" fill="white"><title>2020-10-27: 22</title></circle>
	<circle cx="466.37" cy="93.95" data-y="22.18" data-x="1603843200" r="2.5" fill="white"><title>2020-10-28: 22</title></circle>
	<circle cx="468.18" cy="78.62" data-y="23.39" data-x="1603929600" r="2.5" fill="white"><title>2020-10-29: 23</title></circle>
	<circle cx="470.00" cy="119.50" data-y="20.17" data-x="1604016000" r="2.5" fill="white"><title>2020-10-30: 20</title></circle>
</g>
</svg>
