<svg width="480" height="400" viewBox="0 0 480 400" xmlns="http://www.w3.org/2000/svg" style="overflow:display" preserveAspectRatio="xMinYMin meet" overflow="visible">
<defs>
	<style>
	.data-series path.line { fill-opacity: 0; stroke: black; }
	.data-series path.line.dotted { stroke-dasharray: 12 20 }
	.data-series:hover path.line, .data-series.on path.line { stroke-width: 1; }
	.data-series:hover circle, .data-series.on circle { display: inline; }
	.graph-grid { font-family: "Helvetica Neue",Helvetica,Arial,"Lucida Grande",sans-serif; }
	.graph-grid line { stroke: black; stroke-width: 1; stroke-linecap: round; }
	.graph-grid.graph-grid-x text { text-anchor: middle; dominant-baseline: hanging; transform: translateY(10px); }
	.graph-grid.graph-grid-y text { text-anchor: end; dominant-baseline: middle; transform: translateX(-10px); }
	</style>
</defs>
<g class="graph-grid graph-grid-y">
	<line x1="25.00" y1="375.00" x2="470.00" y2="375.00" data-left="25"></line>
	<text x="35" y="375" text-anchor="end">0</text>
	<text x="35" y="217.66419239905" text-anchor="end">10</text>
	<text x="35" y="60.3283847980998" text-anchor="end">20</text>
	<text style="text-anchor:middle;dominant-baseline:hanging;font-weight:bold;transform: translateY(192.5px) rotate(-90deg);"></text>
</g>
<g class="graph-grid graph-grid-x">
	<line class="tick" x1="28.14" y1="375.00" x2="28.14" y2="380.00"></line>
	<text x="28.1448763250883" y="375" text-anchor="middle">M</text>
	<line class="tick" x1="76.89" y1="375.00" x2="76.89" y2="380.00"></line>
	<text x="76.8904593639576" y="375" text-anchor="middle">A</text>
	<line class="tick" x1="124.06" y1="375.00" x2="124.06" y2="380.00"></line>
	<text x="124.063604240283" y="375" text-anchor="middle">M</text>
	<line class="tick" x1="172.81" y1="375.00" x2="172.81" y2="380.00"></line>
	<text x="172.809187279152" y="375" text-anchor="middle">J</text>
	<line class="tick" x1="219.98" y1="375.00" x2="219.98" y2="380.00"></line>
	<text x="219.982332155477" y="375" text-anchor="middle">J</text>
	<line class="tick" x1="268.73" y1="375.00" x2="268.73" y2="380.00"></line>
	<text x="268.727915194346" y="375" text-anchor="middle">A</text>
	<line class="tick" x1="317.47" y1="375.00" x2="317.47" y2="380.00"></line>
	<text x="317.473498233216" y="375" text-anchor="middle">S</text>
	<line class="tick" x1="364.65" y1="375.00" x2="364.65" y2="380.00"></line>
	<text x="364.646643109541" y="375" text-anchor="middle">O</text>
	<line class="tick" x1="413.39" y1="375.00" x2="413.39" y2="380.00"></line>
	<text x="413.39222614841" y="375" text-anchor="middle">N</text>
	<line class="tick" x1="460.57" y1="375.00" x2="460.57" y2="380.00"></line>
	<text x="460.565371024735" y="375" text-anchor="middle">D</text>
	<text style="text-anchor:middle;dominant-baseline:hanging;font-weight:bold;transform: translateY(192.5px) rotate(-90deg);"></text>
</g>
<g data-series="widespread" class="data-series">
	<path d="M 25.00,264.86L 470.00,264.86" id="S12000036-level-0" class="line" stroke-width="1" stroke-linecap="round" stroke-dasharray="3,3" fill-opacity="0.3" opacity="0.3"><title>Widespread</title></path>
</g>
<g data-series="substantial" class="data-series">
	<path d="M 25.00,312.07L 470.00,312.07" id="S12000036-level-1" class="line" stroke-width="1" stroke-linecap="round" stroke-dasharray="3,3" fill-opacity="0.3" opacity="0.3"><title>Substantial</title></path>
</g>
<g data-series="moderate" class="data-series">
	<path d="M 25.00,359.27L 470.00,359.27" id="S12000036-level-2" class="line" stroke-width="1" stroke-linecap="round" stroke-dasharray="3,3" fill-opacity="0.3" opacity="0.3"><title>Moderate</title></path>
</g>
<g data-series="new-cases" class="data-series">
	<path d="M 25.00,375.00L 26.57,375.00L 28.14,374.49L 29.72,374.13L 31.29,373.70L 32.86,372.83L 34.43,371.97L 36.01,371.53L 37.58,371.10L 39.15,369.80L 40.72,368.06L 42.30,367.63L 43.87,367.20L 45.44,367.63L 47.01,367.63L 48.59,366.76L 50.16,367.20L 51.73,368.06L 53.30,366.76L 54.88,364.16L 56.45,362.00L 58.02,356.79L 59.59,349.86L 61.17,346.82L 62.74,343.36L 64.31,337.29L 65.88,334.25L 67.46,331.65L 69.03,326.45L 70.60,321.25L 72.17,309.98L 73.75,301.31L 75.32,294.37L 76.89,289.60L 78.46,285.27L 80.04,273.13L 81.61,276.16L 83.18,279.20L 84.75,277.90L 86.33,280.93L 87.90,286.57L 89.47,281.37L 91.04,287.00L 92.61,281.80L 94.19,278.33L 95.76,275.73L 97.33,258.39L 98.90,252.32L 100.48,261.86L 102.05,247.12L 103.62,246.25L 105.19,239.32L 106.77,241.05L 108.34,254.92L 109.91,261.43L 111.48,260.56L 113.06,265.76L 114.63,264.03L 116.20,274.43L 117.77,274.43L 119.35,279.20L 120.92,275.73L 122.49,269.66L 124.06,285.27L 125.64,291.34L 127.21,291.77L 128.78,293.50L 130.35,294.37L 131.93,299.57L 133.50,307.38L 135.07,307.81L 136.64,314.74L 138.22,316.48L 139.79,320.38L 141.36,324.28L 142.93,325.58L 144.51,326.88L 146.08,335.55L 147.65,332.52L 149.22,335.99L 150.80,341.19L 152.37,342.49L 153.94,343.36L 155.51,345.52L 157.08,342.05L 158.66,346.82L 160.23,353.76L 161.80,356.36L 163.37,358.53L 164.95,358.53L 166.52,358.96L 168.09,362.86L 169.66,365.46L 171.24,363.30L 172.81,363.73L 174.38,365.03L 175.95,365.90L 177.53,365.03L 179.10,366.33L 180.67,365.90L 182.24,366.33L 183.82,366.33L 185.39,365.90L 186.96,365.46L 188.53,365.90L 190.11,364.16L 191.68,364.60L 193.25,364.60L 194.82,365.03L 196.40,365.90L 197.97,367.20L 199.54,368.06L 201.11,368.93L 202.69,368.93L 204.26,370.23L 205.83,370.67L 207.40,371.53L 208.98,371.53L 210.55,371.53L 212.12,372.83L 213.69,373.70L 215.27,372.83L 216.84,372.83L 218.41,372.83L 219.98,372.83L 221.55,372.83L 223.13,372.83L 224.70,372.83L 226.27,372.83L 227.84,372.83L 229.42,372.83L 230.99,372.83L 232.56,372.83L 234.13,372.83L 235.71,372.40L 237.28,372.40L 238.85,371.97L 240.42,371.97L 242.00,370.67L 243.57,370.67L 245.14,370.67L 246.71,370.23L 248.29,371.53L 249.86,371.97L 251.43,371.97L 253.00,373.27L 254.58,373.27L 256.15,372.83L 257.72,372.83L 259.29,371.10L 260.87,370.67L 262.44,370.67L 264.01,369.80L 265.58,368.50L 267.16,368.50L 268.73,368.93L 270.30,370.67L 271.87,370.23L 273.45,368.50L 275.02,369.36L 276.59,370.67L 278.16,370.23L 279.73,369.36L 281.31,368.06L 282.88,368.50L 284.45,370.23L 286.02,369.36L 287.60,368.93L 289.17,367.63L 290.74,368.50L 292.31,369.36L 293.89,368.06L 295.46,366.33L 297.03,363.30L 298.60,358.96L 300.18,359.83L 301.75,358.53L 303.32,357.23L 304.89,358.09L 306.47,357.23L 308.04,356.36L 309.61,358.53L 311.18,355.06L 312.76,351.59L 314.33,348.56L 315.90,342.92L 317.47,343.36L 319.05,344.22L 320.62,342.05L 322.19,339.89L 323.76,342.92L 325.34,338.59L 326.91,340.75L 328.48,338.15L 330.05,336.85L 331.63,335.55L 333.20,334.25L 334.77,325.58L 336.34,321.68L 337.92,306.07L 339.49,294.80L 341.06,287.87L 342.63,284.40L 344.20,278.76L 345.78,267.06L 347.35,248.85L 348.92,238.45L 350.49,225.01L 352.07,204.64L 353.64,181.66L 355.21,143.95L 356.78,124.44L 358.36,96.26L 359.93,81.09L 361.50,52.92L 363.07,41.21L 364.65,27.77L 366.22,21.70L 367.79,10.00L 369.36,13.47L 370.94,14.77L 372.51,26.91L 374.08,33.84L 375.65,39.91L 377.23,45.55L 378.80,55.95L 380.37,75.02L 381.94,87.16L 383.52,98.43L 385.09,110.14L 386.66,130.51L 388.23,148.28L 389.81,153.49L 391.38,161.29L 392.95,154.35L 394.52,158.69L 396.10,169.09L 397.67,162.59L 399.24,161.29L 400.81,169.52L 402.39,160.42L 403.96,179.06L 405.53,187.30L 407.10,182.10L 408.67,183.40L 410.25,190.77L 411.82,191.63L 413.39,198.14L 414.96,191.63L 416.54,184.70L 418.11,182.10L 419.68,181.23L 421.25,179.06L 422.83,174.29L 424.40,167.79L 425.97,167.36L 427.54,175.59L 429.12,176.46L 430.69,183.83L 432.26,171.69L 433.83,175.59L 435.41,180.80L 436.98,172.99L 438.55,165.19L 440.12,178.19L 441.70,167.36L 443.27,179.93L 444.84,177.76L 446.41,185.13L 447.99,203.34L 449.56,209.84L 451.13,203.34L 452.70,218.51L 454.28,230.21L 455.85,231.95L 457.42,228.91L 458.99,212.87L 460.57,218.94L 462.14,212.87" id="New cases" class="line" stroke-width="1" stroke-linecap="round"><title>New cases</title></path>
	<circle cx="25.00" cy="375.00" data-y="0.00" data-x="1582848000" r="1" fill="white"><title>2020-02-28: 0</title></circle>
	<circle cx="26.57" cy="375.00" data-y="0.00" data-x="1582934400" r="1" fill="white"><title>2020-02-29: 0</title></circle>
	<circle cx="28.14" cy="374.49" data-y="0.03" data-x="1583020800" r="1" fill="white"><title>2020-03-01: 0</title></circle>
	<circle cx="29.72" cy="374.13" data-y="0.06" data-x="1583107200" r="1" fill="white"><title>2020-03-02: 0</title></circle>
	<circle cx="31.29" cy="373.70" data-y="0.08" data-x="1583193600" r="1" fill="white"><title>2020-03-03: 0</title></circle>
	<circle cx="32.86" cy="372.83" data-y="0.14" data-x="1583280000" r="1" fill="white"><title>2020-03-04: 0</title></circle>
	<circle cx="34.43" cy="371.97" data-y="0.19" data-x="1583366400" r="1" fill="white"><title>2020-03-05: 0</title></circle>
	<circle cx="36.01" cy="371.53" data-y="0.22" data-x="1583452800" r="1" fill="white"><title>2020-03-06: 0</title></circle>
	<circle cx="37.58" cy="371.10" data-y="0.25" data-x="1583539200" r="1" fill="white"><title>2020-03-07: 0</title></circle>
	<circle cx="39.15" cy="369.80" data-y="0.33" data-x="1583625600" r="1" fill="white"><title>2020-03-08: 0</title></circle>
	<circle cx="40.72" cy="368.06" data-y="0.44" data-x="1583712000" r="1" fill="white"><title>2020-03-09: 0</title></circle>
	<circle cx="42.30" cy="367.63" data-y="0.47" data-x="1583798400" r="1" fill="white"><title>2020-03-10: 0</title></circle>
	<circle cx="43.87" cy="367.20" data-y="0.50" data-x="1583884800" r="1" fill="white"><title>2020-03-11: 0</title></circle>
	<circle cx="45.44" cy="367.63" data-y="0.47" data-x="1583971200" r="1" fill="white"><title>2020-03-12: 0</title></circle>
	<circle cx="47.01" cy="367.63" data-y="0.47" data-x="1584057600" r="1" fill="white"><title>2020-03-13: 0</title></circle>
	<circle cx="48.59" cy="366.76" data-y="0.52" data-x="1584144000" r="1" fill="white"><title>2020-03-14: 1</title></circle>
	<circle cx="50.16" cy="367.20" data-y="0.50" data-x="1584230400" r="1" fill="white"><title>2020-03-15: 0</title></circle>
	<circle cx="51.73" cy="368.06" data-y="0.44" data-x="1584316800" r="1" fill="white"><title>2020-03-16: 0</title></circle>
	<circle cx="53.30" cy="366.76" data-y="0.52" data-x="1584403200" r="1" fill="white"><title>2020-03-17: 1</title></circle>
	<circle cx="54.88" cy="364.16" data-y="0.69" data-x="1584489600" r="1" fill="white"><title>2020-03-18: 1</title></circle>
	<circle cx="56.45" cy="362.00" data-y="0.83" data-x="1584576000" r="1" fill="white"><title>2020-03-19: 1</title></circle>
	<circle cx="58.02" cy="356.79" data-y="1.16" data-x="1584662400" r="1" fill="white"><title>2020-03-20: 1</title></circle>
	<circle cx="59.59" cy="349.86" data-y="1.60" data-x="1584748800" r="1" fill="white"><title>2020-03-21: 2</title></circle>
	<circle cx="61.17" cy="346.82" data-y="1.79" data-x="1584835200" r="1" fill="white"><title>2020-03-22: 2</title></circle>
	<circle cx="62.74" cy="343.36" data-y="2.01" data-x="1584921600" r="1" fill="white"><title>2020-03-23: 2</title></circle>
	<circle cx="64.31" cy="337.29" data-y="2.40" data-x="1585008000" r="1" fill="white"><title>2020-03-24: 2</title></circle>
	<circle cx="65.88" cy="334.25" data-y="2.59" data-x="1585094400" r="1" fill="white"><title>2020-03-25: 3</title></circle>
	<circle cx="67.46" cy="331.65" data-y="2.76" data-x="1585180800" r="1" fill="white"><title>2020-03-26: 3</title></circle>
	<circle cx="69.03" cy="326.45" data-y="3.09" data-x="1585267200" r="1" fill="white"><title>2020-03-27: 3</title></circle>
	<circle cx="70.60" cy="321.25" data-y="3.42" data-x="1585353600" r="1" fill="white"><title>2020-03-28: 3</title></circle>
	<circle cx="72.17" cy="309.98" data-y="4.13" data-x="1585440000" r="1" fill="white"><title>2020-03-29: 4</title></circle>
	<circle cx="73.75" cy="301.31" data-y="4.68" data-x="1585526400" r="1" fill="white"><title>2020-03-30: 5</title></circle>
	<circle cx="75.32" cy="294.37" data-y="5.12" data-x="1585612800" r="1" fill="white"><title>2020-03-31: 5</title></circle>
	<circle cx="76.89" cy="289.60" data-y="5.43" data-x="1585699200" r="1" fill="white"><title>2020-04-01: 5</title></circle>
	<circle cx="78.46" cy="285.27" data-y="5.70" data-x="1585785600" r="1" fill="white"><title>2020-04-02: 6</title></circle>
	<circle cx="80.04" cy="273.13" data-y="6.47" data-x="1585872000" r="1" fill="white"><title>2020-04-03: 6</title></circle>
	<circle cx="81.61" cy="276.16" data-y="6.28" data-x="1585958400" r="1" fill="white"><title>2020-04-04: 6</title></circle>
	<circle cx="83.18" cy="279.20" data-y="6.09" data-x="1586044800" r="1" fill="white"><title>2020-04-05: 6</title></circle>
	<circle cx="84.75" cy="277.90" data-y="6.17" data-x="1586131200" r="1" fill="white"><title>2020-04-06: 6</title></circle>
	<circle cx="86.33" cy="280.93" data-y="5.98" data-x="1586217600" r="1" fill="white"><title>2020-04-07: 6</title></circle>
	<circle cx="87.90" cy="286.57" data-y="5.62" data-x="1586304000" r="1" fill="white"><title>2020-04-08: 6</title></circle>
	<circle cx="89.47" cy="281.37" data-y="5.95" data-x="1586390400" r="1" fill="white"><title>2020-04-09: 6</title></circle>
	<circle cx="91.04" cy="287.00" data-y="5.59" data-x="1586476800" r="1" fill="white"><title>2020-04-10: 6</title></circle>
	<circle cx="92.61" cy="281.80" data-y="5.92" data-x="1586563200" r="1" fill="white"><title>2020-04-11: 6</title></circle>
	<circle cx="94.19" cy="278.33" data-y="6.14" data-x="1586649600" r="1" fill="white"><title>2020-04-12: 6</title></circle>
	<circle cx="95.76" cy="275.73" data-y="6.31" data-x="1586736000" r="1" fill="white"><title>2020-04-13: 6</title></circle>
	<circle cx="97.33" cy="258.39" data-y="7.41" data-x="1586822400" r="1" fill="white"><title>2020-04-14: 7</title></circle>
	<circle cx="98.90" cy="252.32" data-y="7.80" data-x="1586908800" r="1" fill="white"><title>2020-04-15: 8</title></circle>
	<circle cx="100.48" cy="261.86" data-y="7.19" data-x="1586995200" r="1" fill="white"><title>2020-04-16: 7</title></circle>
	<circle cx="102.05" cy="247.12" data-y="8.13" data-x="1587081600" r="1" fill="white"><title>2020-04-17: 8</title></circle>
	<circle cx="103.62" cy="246.25" data-y="8.18" data-x="1587168000" r="1" fill="white"><title>2020-04-18: 8</title></circle>
	<circle cx="105.19" cy="239.32" data-y="8.62" data-x="1587254400" r="1" fill="white"><title>2020-04-19: 9</title></circle>
	<circle cx="106.77" cy="241.05" data-y="8.51" data-x="1587340800" r="1" fill="white"><title>2020-04-20: 9</title></circle>
	<circle cx="108.34" cy="254.92" data-y="7.63" data-x="1587427200" r="1" fill="white"><title>2020-04-21: 8</title></circle>
	<circle cx="109.91" cy="261.43" data-y="7.22" data-x="1587513600" r="1" fill="white"><title>2020-04-22: 7</title></circle>
	<circle cx="111.48" cy="260.56" data-y="7.27" data-x="1587600000" r="1" fill="white"><title>2020-04-23: 7</title></circle>
	<circle cx="113.06" cy="265.76" data-y="6.94" data-x="1587686400" r="1" fill="white"><title>2020-04-24: 7</title></circle>
	<circle cx="114.63" cy="264.03" data-y="7.05" data-x="1587772800" r="1" fill="white"><title>2020-04-25: 7</title></circle>
	<circle cx="116.20" cy="274.43" data-y="6.39" data-x="1587859200" r="1" fill="white"><title>2020-04-26: 6</title></circle>
	<circle cx="117.77" cy="274.43" data-y="6.39" data-x="1587945600" r="1" fill="white"><title>2020-04-27: 6</title></circle>
	<circle cx="119.35" cy="279.20" data-y="6.09" data-x="1588032000" r="1" fill="white"><title>2020-04-28: 6</title></circle>
	<circle cx="120.92" cy="275.73" data-y="6.31" data-x="1588118400" r="1" fill="white"><title>2020-04-29: 6</title></circle>
	<circle cx="122.49" cy="269.66" data-y="6.70" data-x="1588204800" r="1" fill="white"><title>2020-04-30: 7</title></circle>
	<circle cx="124.06" cy="285.27" data-y="5.70" data-x="1588291200" r="1" fill="white"><title>2020-05-01: 6</title></circle>
	<circle cx="125.64" cy="291.34" data-y="5.32" data-x="1588377600" r="1" fill="white"><title>2020-05-02: 5</title></circle>
	<circle cx="127.21" cy="291.77" data-y="5.29" data-x="1588464000" r="1" fill="white"><title>2020-05-03: 5</title></circle>
	<circle cx="128.78" cy="293.50" data-y="5.18" data-x="1588550400" r="1" fill="white"><title>2020-05-04: 5</title></circle>
	<circle cx="130.35" cy="294.37" data-y="5.12" data-x="1588636800" r="1" fill="white"><title>2020-05-05: 5</title></circle>
	<circle cx="131.93" cy="299.57" data-y="4.79" data-x="1588723200" r="1" fill="white"><title>2020-05-06: 5</title></circle>
	<circle cx="133.50" cy="307.38" data-y="4.30" data-x="1588809600" r="1" fill="white"><title>2020-05-07: 4</title></circle>
	<circle cx="135.07" cy="307.81" data-y="4.27" data-x="1588896000" r="1" fill="white"><title>2020-05-08: 4</title></circle>
	<circle cx="136.64" cy="314.74" data-y="3.83" data-x="1588982400" r="1" fill="white"><title>2020-05-09: 4</title></circle>
	<circle cx="138.22" cy="316.48" data-y="3.72" data-x="1589068800" r="1" fill="white"><title>2020-05-10: 4</title></circle>
	<circle cx="139.79" cy="320.38" data-y="3.47" data-x="1589155200" r="1" fill="white"><title>2020-05-11: 3</title></circle>
	<circle cx="141.36" cy="324.28" data-y="3.22" data-x="1589241600" r="1" fill="white"><title>2020-05-12: 3</title></circle>
	<circle cx="142.93" cy="325.58" data-y="3.14" data-x="1589328000" r="1" fill="white"><title>2020-05-13: 3</title></circle>
	<circle cx="144.51" cy="326.88" data-y="3.06" data-x="1589414400" r="1" fill="white"><title>2020-05-14: 3</title></circle>
	<circle cx="146.08" cy="335.55" data-y="2.51" data-x="1589500800" r="1" fill="white"><title>2020-05-15: 3</title></circle>
	<circle cx="147.65" cy="332.52" data-y="2.70" data-x="1589587200" r="1" fill="white"><title>2020-05-16: 3</title></circle>
	<circle cx="149.22" cy="335.99" data-y="2.48" data-x="1589673600" r="1" fill="white"><title>2020-05-17: 2</title></circle>
	<circle cx="150.80" cy="341.19" data-y="2.15" data-x="1589760000" r="1" fill="white"><title>2020-05-18: 2</title></circle>
	<circle cx="152.37" cy="342.49" data-y="2.07" data-x="1589846400" r="1" fill="white"><title>2020-05-19: 2</title></circle>
	<circle cx="153.94" cy="343.36" data-y="2.01" data-x="1589932800" r="1" fill="white"><title>2020-05-20: 2</title></circle>
	<circle cx="155.51" cy="345.52" data-y="1.87" data-x="1590019200" r="1" fill="white"><title>2020-05-21: 2</title></circle>
	<circle cx="157.08" cy="342.05" data-y="2.09" data-x="1590105600" r="1" fill="white"><title>2020-05-22: 2</title></circle>
	<circle cx="158.66" cy="346.82" data-y="1.79" data-x="1590192000" r="1" fill="white"><title>2020-05-23: 2</title></circle>
	<circle cx="160.23" cy="353.76" data-y="1.35" data-x="1590278400" r="1" fill="white"><title>2020-05-24: 1</title></circle>
	<circle cx="161.80" cy="356.36" data-y="1.18" data-x="1590364800" r="1" fill="white"><title>2020-05-25: 1</title></circle>
	<circle cx="163.37" cy="358.53" data-y="1.05" data-x="1590451200" r="1" fill="white"><title>2020-05-26: 1</title></circle>
	<circle cx="164.95" cy="358.53" data-y="1.05" data-x="1590537600" r="1" fill="white"><title>2020-05-27: 1</title></circle>
	<circle cx="166.52" cy="358.96" data-y="1.02" data-x="1590624000" r="1" fill="white"><title>2020-05-28: 1</title></circle>
	<circle cx="168.09" cy="362.86" data-y="0.77" data-x="1590710400" r="1" fill="white"><title>2020-05-29: 1</title></circle>
	<circle cx="169.66" cy="365.46" data-y="0.61" data-x="1590796800" r="1" fill="white"><title>2020-05-30: 1</title></circle>
	<circle cx="171.24" cy="363.30" data-y="0.74" data-x="1590883200" r="1" fill="white"><title>2020-05-31: 1</title></circle>
	<circle cx="172.81" cy="363.73" data-y="0.72" data-x="1590969600" r="1" fill="white"><title>2020-06-01: 1</title></circle>
	<circle cx="174.38" cy="365.03" data-y="0.63" data-x="1591056000" r="1" fill="white"><title>2020-06-02: 1</title></circle>
	<circle cx="175.95" cy="365.90" data-y="0.58" data-x="1591142400" r="1" fill="white"><title>2020-06-03: 1</title></circle>
	<circle cx="177.53" cy="365.03" data-y="0.63" data-x="1591228800" r="1" fill="white"><title>2020-06-04: 1</title></circle>
	<circle cx="179.10" cy="366.33" data-y="0.55" data-x="1591315200" r="1" fill="white"><title>2020-06-05: 1</title></circle>
	<circle cx="180.67" cy="365.90" data-y="0.58" data-x="1591401600" r="1" fill="white"><title>2020-06-06: 1</title></circle>
	<circle cx="182.24" cy="366.33" data-y="0.55" data-x="1591488000" r="1" fill="white"><title>2020-06-07: 1</title></circle>
	<circle cx="183.82" cy="366.33" data-y="0.55" data-x="1591574400" r="1" fill="white"><title>2020-06-08: 1</title></circle>
	<circle cx="185.39" cy="365.90" data-y="0.58" data-x="1591660800" r="1" fill="white"><title>2020-06-09: 1</title></circle>
	<circle cx="186.96" cy="365.46" data-y="0.61" data-x="1591747200" r="1" fill="white"><title>2020-06-10: 1</title></circle>
	<circle cx="188.53" cy="365.90" data-y="0.58" data-x="1591833600" r="1" fill="white"><title>2020-06-11: 1</title></circle>
	<circle cx="190.11" cy="364.16" data-y="0.69" data-x="1591920000" r="1" fill="white"><title>2020-06-12: 1</title></circle>
	<circle cx="191.68" cy="364.60" data-y="0.66" data-x="1592006400" r="1" fill="white"><title>2020-06-13: 1</title></circle>
	<circle cx="193.25" cy="364.60" data-y="0.66" data-x="1592092800" r="1" fill="white"><title>2020-06-14: 1</title></circle>
	<circle cx="194.82" cy="365.03" data-y="0.63" data-x="1592179200" r="1" fill="white"><title>2020-06-15: 1</title></circle>
	<circle cx="196.40" cy="365.90" data-y="0.58" data-x="1592265600" r="1" fill="white"><title>2020-06-16: 1</title></circle>
	<circle cx="197.97" cy="367.20" data-y="0.50" data-x="1592352000" r="1" fill="white"><title>2020-06-17: 0</title></circle>
	<circle cx="199.54" cy="368.06" data-y="0.44" data-x="1592438400" r="1" fill="white"><title>2020-06-18: 0</title></circle>
	<circle cx="201.11" cy="368.93" data-y="0.39" data-x="1592524800" r="1" fill="white"><title>2020-06-19: 0</title></circle>
	<circle cx="202.69" cy="368.93" data-y="0.39" data-x="1592611200" r="1" fill="white"><title>2020-06-20: 0</title></circle>
	<circle cx="204.26" cy="370.23" data-y="0.30" data-x="1592697600" r="1" fill="white"><title>2020-06-21: 0</title></circle>
	<circle cx="205.83" cy="370.67" data-y="0.28" data-x="1592784000" r="1" fill="white"><title>2020-06-22: 0</title></circle>
	<circle cx="207.40" cy="371.53" data-y="0.22" data-x="1592870400" r="1" fill="white"><title>2020-06-23: 0</title></circle>
	<circle cx="208.98" cy="371.53" data-y="0.22" data-x="1592956800" r="1" fill="white"><title>2020-06-24: 0</title></circle>
	<circle cx="210.55" cy="371.53" data-y="0.22" data-x="1593043200" r="1" fill="white"><title>2020-06-25: 0</title></circle>
	<circle cx="212.12" cy="372.83" data-y="0.14" data-x="1593129600" r="1" fill="white"><title>2020-06-26: 0</title></circle>
	<circle cx="213.69" cy="373.70" data-y="0.08" data-x="1593216000" r="1" fill="white"><title>2020-06-27: 0</title></circle>
	<circle cx="215.27" cy="372.83" data-y="0.14" data-x="1593302400" r="1" fill="white"><title>2020-06-28: 0</title></circle>
	<circle cx="216.84" cy="372.83" data-y="0.14" data-x="1593388800" r="1" fill="white"><title>2020-06-29: 0</title></circle>
	<circle cx="218.41" cy="372.83" data-y="0.14" data-x="1593475200" r="1" fill="white"><title>2020-06-30: 0</title></circle>
	<circle cx="219.98" cy="372.83" data-y="0.14" data-x="1593561600" r="1" fill="white"><title>2020-07-01: 0</title></circle>
	<circle cx="221.55" cy="372.83" data-y="0.14" data-x="1593648000" r="1" fill="white"><title>2020-07-02: 0</title></circle>
	<circle cx="223.13" cy="372.83" data-y="0.14" data-x="1593734400" r="1" fill="white"><title>2020-07-03: 0</title></circle>
	<circle cx="224.70" cy="372.83" data-y="0.14" data-x="1593820800" r="1" fill="white"><title>2020-07-04: 0</title></circle>
	<circle cx="226.27" cy="372.83" data-y="0.14" data-x="1593907200" r="1" fill="white"><title>2020-07-05: 0</title></circle>
	<circle cx="227.84" cy="372.83" data-y="0.14" data-x="1593993600" r="1" fill="white"><title>2020-07-06: 0</title></circle>
	<circle cx="229.42" cy="372.83" data-y="0.14" data-x="1594080000" r="1" fill="white"><title>2020-07-07: 0</title></circle>
	<circle cx="230.99" cy="372.83" data-y="0.14" data-x="1594166400" r="1" fill="white"><title>2020-07-08: 0</title></circle>
	<circle cx="232.56" cy="372.83" data-y="0.14" data-x="1594252800" r="1" fill="white"><title>2020-07-09: 0</title></circle>
	<circle cx="234.13" cy="372.83" data-y="0.14" data-x="1594339200" r="1" fill="white"><title>2020-07-10: 0</title></circle>
	<circle cx="235.71" cy="372.40" data-y="0.17" data-x="1594425600" r="1" fill="white"><title>2020-07-11: 0</title></circle>
	<circle cx="237.28" cy="372.40" data-y="0.17" data-x="1594512000" r="1" fill="white"><title>2020-07-12: 0</title></circle>
	<circle cx="238.85" cy="371.97" data-y="0.19" data-x="1594598400" r="1" fill="white"><title>2020-07-13: 0</title></circle>
	<circle cx="240.42" cy="371.97" data-y="0.19" data-x="1594684800" r="1" fill="white"><title>2020-07-14: 0</title></circle>
	<circle cx="242.00" cy="370.67" data-y="0.28" data-x="1594771200" r="1" fill="white"><title>2020-07-15: 0</title></circle>
	<circle cx="243.57" cy="370.67" data-y="0.28" data-x="1594857600" r="1" fill="white"><title>2020-07-16: 0</title></circle>
	<circle cx="245.14" cy="370.67" data-y="0.28" data-x="1594944000" r="1" fill="white"><title>2020-07-17: 0</title></circle>
	<circle cx="246.71" cy="370.23" data-y="0.30" data-x="1595030400" r="1" fill="white"><title>2020-07-18: 0</title></circle>
	<circle cx="248.29" cy="371.53" data-y="0.22" data-x="1595116800" r="1" fill="white"><title>2020-07-19: 0</title></circle>
	<circle cx="249.86" cy="371.97" data-y="0.19" data-x="1595203200" r="1" fill="white"><title>2020-07-20: 0</title></circle>
	<circle cx="251.43" cy="371.97" data-y="0.19" data-x="1595289600" r="1" fill="white"><title>2020-07-21: 0</title></circle>
	<circle cx="253.00" cy="373.27" data-y="0.11" data-x="1595376000" r="1" fill="white"><title>2020-07-22: 0</title></circle>
	<circle cx="254.58" cy="373.27" data-y="0.11" data-x="1595462400" r="1" fill="white"><title>2020-07-23: 0</title></circle>
	<circle cx="256.15" cy="372.83" data-y="0.14" data-x="1595548800" r="1" fill="white"><title>2020-07-24: 0</title></circle>
	<circle cx="257.72" cy="372.83" data-y="0.14" data-x="1595635200" r="1" fill="white"><title>2020-07-25: 0</title></circle>
	<circle cx="259.29" cy="371.10" data-y="0.25" data-x="1595721600" r="1" fill="white"><title>2020-07-26: 0</title></circle>
	<circle cx="260.87" cy="370.67" data-y="0.28" data-x="1595808000" r="1" fill="white"><title>2020-07-27: 0</title></circle>
	<circle cx="262.44" cy="370.67" data-y="0.28" data-x="1595894400" r="1" fill="white"><title>2020-07-28: 0</title></circle>
	<circle cx="264.01" cy="369.80" data-y="0.33" data-x="1595980800" r="1" fill="white"><title>2020-07-29: 0</title></circle>
	<circle cx="265.58" cy="368.50" data-y="0.41" data-x="1596067200" r="1" fill="white"><title>2020-07-30: 0</title></circle>
	<circle cx="267.16" cy="368.50" data-y="0.41" data-x="1596153600" r="1" fill="white"><title>2020-07-31: 0</title></circle>
	<circle cx="268.73" cy="368.93" data-y="0.39" data-x="1596240000" r="1" fill="white"><title>2020-08-01: 0</title></circle>
	<circle cx="270.30" cy="370.67" data-y="0.28" data-x="1596326400" r="1" fill="white"><title>2020-08-02: 0</title></circle>
	<circle cx="271.87" cy="370.23" data-y="0.30" data-x="1596412800" r="1" fill="white"><title>2020-08-03: 0</title></circle>
	<circle cx="273.45" cy="368.50" data-y="0.41" data-x="1596499200" r="1" fill="white"><title>2020-08-04: 0</title></circle>
	<circle cx="275.02" cy="369.36" data-y="0.36" data-x="1596585600" r="1" fill="white"><title>2020-08-05: 0</title></circle>
	<circle cx="276.59" cy="370.67" data-y="0.28" data-x="1596672000" r="1" fill="white"><title>2020-08-06: 0</title></circle>
	<circle cx="278.16" cy="370.23" data-y="0.30" data-x="1596758400" r="1" fill="white"><title>2020-08-07: 0</title></circle>
	<circle cx="279.73" cy="369.36" data-y="0.36" data-x="1596844800" r="1" fill="white"><title>2020-08-08: 0</title></circle>
	<circle cx="281.31" cy="368.06" data-y="0.44" data-x="1596931200" r="1" fill="white"><title>2020-08-09: 0</title></circle>
	<circle cx="282.88" cy="368.50" data-y="0.41" data-x="1597017600" r="1" fill="white"><title>2020-08-10: 0</title></circle>
	<circle cx="284.45" cy="370.23" data-y="0.30" data-x="1597104000" r="1" fill="white"><title>2020-08-11: 0</title></circle>
	<circle cx="286.02" cy="369.36" data-y="0.36" data-x="1597190400" r="1" fill="white"><title>2020-08-12: 0</title></circle>
	<circle cx="287.60" cy="368.93" data-y="0.39" data-x="1597276800" r="1" fill="white"><title>2020-08-13: 0</title></circle>
	<circle cx="289.17" cy="367.63" data-y="0.47" data-x="1597363200" r="1" fill="white"><title>2020-08-14: 0</title></circle>
	<circle cx="290.74" cy="368.50" data-y="0.41" data-x="1597449600" r="1" fill="white"><title>2020-08-15: 0</title></circle>
	<circle cx="292.31" cy="369.36" data-y="0.36" data-x="1597536000" r="1" fill="white"><title>2020-08-16: 0</title></circle>
	<circle cx="293.89" cy="368.06" data-y="0.44" data-x="1597622400" r="1" fill="white"><title>2020-08-17: 0</title></circle>
	<circle cx="295.46" cy="366.33" data-y="0.55" data-x="1597708800" r="1" fill="white"><title>2020-08-18: 1</title></circle>
	<circle cx="297.03" cy="363.30" data-y="0.74" data-x="1597795200" r="1" fill="white"><title>2020-08-19: 1</title></circle>
	<circle cx="298.60" cy="358.96" data-y="1.02" data-x="1597881600" r="1" fill="white"><title>2020-08-20: 1</title></circle>
	<circle cx="300.18" cy="359.83" data-y="0.96" data-x="1597968000" r="1" fill="white"><title>2020-08-21: 1</title></circle>
	<circle cx="301.75" cy="358.53" data-y="1.05" data-x="1598054400" r="1" fill="white"><title>2020-08-22: 1</title></circle>
	<circle cx="303.32" cy="357.23" data-y="1.13" data-x="1598140800" r="1" fill="white"><title>2020-08-23: 1</title></circle>
	<circle cx="304.89" cy="358.09" data-y="1.07" data-x="1598227200" r="1" fill="white"><title>2020-08-24: 1</title></circle>
	<circle cx="306.47" cy="357.23" data-y="1.13" data-x="1598313600" r="1" fill="white"><title>2020-08-25: 1</title></circle>
	<circle cx="308.04" cy="356.36" data-y="1.18" data-x="1598400000" r="1" fill="white"><title>2020-08-26: 1</title></circle>
	<circle cx="309.61" cy="358.53" data-y="1.05" data-x="1598486400" r="1" fill="white"><title>2020-08-27: 1</title></circle>
	<circle cx="311.18" cy="355.06" data-y="1.27" data-x="1598572800" r="1" fill="white"><title>2020-08-28: 1</title></circle>
	<circle cx="312.76" cy="351.59" data-y="1.49" data-x="1598659200" r="1" fill="white"><title>2020-08-29: 1</title></circle>
	<circle cx="314.33" cy="348.56" data-y="1.68" data-x="1598745600" r="1" fill="white"><title>2020-08-30: 2</title></circle>
	<circle cx="315.90" cy="342.92" data-y="2.04" data-x="1598832000" r="1" fill="white"><title>2020-08-31: 2</title></circle>
	<circle cx="317.47" cy="343.36" data-y="2.01" data-x="1598918400" r="1" fill="white"><title>2020-09-01: 2</title></circle>
	<circle cx="319.05" cy="344.22" data-y="1.96" data-x="1599004800" r="1" fill="white"><title>2020-09-02: 2</title></circle>
	<circle cx="320.62" cy="342.05" data-y="2.09" data-x="1599091200" r="1" fill="white"><title>2020-09-03: 2</title></circle>
	<circle cx="322.19" cy="339.89" data-y="2.23" data-x="1599177600" r="1" fill="white"><title>2020-09-04: 2</title></circle>
	<circle cx="323.76" cy="342.92" data-y="2.04" data-x="1599264000" r="1" fill="white"><title>2020-09-05: 2</title></circle>
	<circle cx="325.34" cy="338.59" data-y="2.31" data-x="1599350400" r="1" fill="white"><title>2020-09-06: 2</title></circle>
	<circle cx="326.91" cy="340.75" data-y="2.18" data-x="1599436800" r="1" fill="white"><title>2020-09-07: 2</title></circle>
	<circle cx="328.48" cy="338.15" data-y="2.34" data-x="1599523200" r="1" fill="white"><title>2020-09-08: 2</title></circle>
	<circle cx="330.05" cy="336.85" data-y="2.42" data-x="1599609600" r="1" fill="white"><title>2020-09-09: 2</title></circle>
	<circle cx="331.63" cy="335.55" data-y="2.51" data-x="1599696000" r="1" fill="white"><title>2020-09-10: 3</title></circle>
	<circle cx="333.20" cy="334.25" data-y="2.59" data-x="1599782400" r="1" fill="white"><title>2020-09-11: 3</title></circle>
	<circle cx="334.77" cy="325.58" data-y="3.14" data-x="1599868800" r="1" fill="white"><title>2020-09-12: 3</title></circle>
	<circle cx="336.34" cy="321.68" data-y="3.39" data-x="1599955200" r="1" fill="white"><title>2020-09-13: 3</title></circle>
	<circle cx="337.92" cy="306.07" data-y="4.38" data-x="1600041600" r="1" fill="white"><title>2020-09-14: 4</title></circle>
	<circle cx="339.49" cy="294.80" data-y="5.10" data-x="1600128000" r="1" fill="white"><title>2020-09-15: 5</title></circle>
	<circle cx="341.06" cy="287.87" data-y="5.54" data-x="1600214400" r="1" fill="white"><title>2020-09-16: 6</title></circle>
	<circle cx="342.63" cy="284.40" data-y="5.76" data-x="1600300800" r="1" fill="white"><title>2020-09-17: 6</title></circle>
	<circle cx="344.20" cy="278.76" data-y="6.12" data-x="1600387200" r="1" fill="white"><title>2020-09-18: 6</title></circle>
	<circle cx="345.78" cy="267.06" data-y="6.86" data-x="1600473600" r="1" fill="white"><title>2020-09-19: 7</title></circle>
	<circle cx="347.35" cy="248.85" data-y="8.02" data-x="1600560000" r="1" fill="white"><title>2020-09-20: 8</title></circle>
	<circle cx="348.92" cy="238.45" data-y="8.68" data-x="1600646400" r="1" fill="white"><title>2020-09-21: 9</title></circle>
	<circle cx="350.49" cy="225.01" data-y="9.53" data-x="1600732800" r="1" fill="white"><title>2020-09-22: 10</title></circle>
	<circle cx="352.07" cy="204.64" data-y="10.83" data-x="1600819200" r="1" fill="white"><title>2020-09-23: 11</title></circle>
	<circle cx="353.64" cy="181.66" data-y="12.29" data-x="1600905600" r="1" fill="white"><title>2020-09-24: 12</title></circle>
	<circle cx="355.21" cy="143.95" data-y="14.69" data-x="1600992000" r="1" fill="white"><title>2020-09-25: 15</title></circle>
	<circle cx="356.78" cy="124.44" data-y="15.93" data-x="1601078400" r="1" fill="white"><title>2020-09-26: 16</title></circle>
	<circle cx="358.36" cy="96.26" data-y="17.72" data-x="1601164800" r="1" fill="white"><title>2020-09-27: 18</title></circle>
	<circle cx="359.93" cy="81.09" data-y="18.68" data-x="1601251200" r="1" fill="white"><title>2020-09-28: 19</title></circle>
	<circle cx="361.50" cy="52.92" data-y="20.47" data-x="1601337600" r="1" fill="white"><title>2020-09-29: 20</title></circle>
	<circle cx="363.07" cy="41.21" data-y="21.22" data-x="1601424000" r="1" fill="white"><title>2020-09-30: 21</title></circle>
	<circle cx="364.65" cy="27.77" data-y="22.07" data-x="1601510400" r="1" fill="white"><title>2020-10-01: 22</title></circle>
	<circle cx="366.22" cy="21.70" data-y="22.45" data-x="1601596800" r="1" fill="white"><title>2020-10-02: 22</title></circle>
	<circle cx="367.79" cy="10.00" data-y="23.20" data-x="1601683200" r="1" fill="white"><title>2020-10-03: 23</title></circle>
	<circle cx="369.36" cy="13.47" data-y="22.98" data-x="1601769600" r="1" fill="white"><title>2020-10-04: 23</title></circle>
	<circle cx="370.94" cy="14.77" data-y="22.90" data-x="1601856000" r="1" fill="white"><title>2020-10-05: 23</title></circle>
	<circle cx="372.51" cy="26.91" data-y="22.12" data-x="1601942400" r="1" fill="white"><title>2020-10-06: 22</title></circle>
	<circle cx="374.08" cy="33.84" data-y="21.68" data-x="1602028800" r="1" fill="white"><title>2020-10-07: 22</title></circle>
	<circle cx="375.65" cy="39.91" data-y="21.30" data-x="1602115200" r="1" fill="white"><title>2020-10-08: 21</title></circle>
	<circle cx="377.23" cy="45.55" data-y="20.94" data-x="1602201600" r="1" fill="white"><title>2020-10-09: 21</title></circle>
	<circle cx="378.80" cy="55.95" data-y="20.28" data-x="1602288000" r="1" fill="white"><title>2020-10-10: 20</title></circle>
	<circle cx="380.37" cy="75.02" data-y="19.07" data-x="1602374400" r="1" fill="white"><title>2020-10-11: 19</title></circle>
	<circle cx="381.94" cy="87.16" data-y="18.29" data-x="1602460800" r="1" fill="white"><title>2020-10-12: 18</title></circle>
	<circle cx="383.52" cy="98.43" data-y="17.58" data-x="1602547200" r="1" fill="white"><title>2020-10-13: 18</title></circle>
	<circle cx="385.09" cy="110.14" data-y="16.83" data-x="1602633600" r="1" fill="white"><title>2020-10-14: 17</title></circle>
	<circle cx="386.66" cy="130.51" data-y="15.54" data-x="1602720000" r="1" fill="white"><title>2020-10-15: 16</title></circle>
	<circle cx="388.23" cy="148.28" data-y="14.41" data-x="1602806400" r="1" fill="white"><title>2020-10-16: 14</title></circle>
	<circle cx="389.81" cy="153.49" data-y="14.08" data-x="1602892800" r="1" fill="white"><title>2020-10-17: 14</title></circle>
	<circle cx="391.38" cy="161.29" data-y="13.58" data-x="1602979200" r="1" fill="white"><title>2020-10-18: 14</title></circle>
	<circle cx="392.95" cy="154.35" data-y="14.02" data-x="1603065600" r="1" fill="white"><title>2020-10-19: 14</title></circle>
	<circle cx="394.52" cy="158.69" data-y="13.75" data-x="1603152000" r="1" fill="white"><title>2020-10-20: 14</title></circle>
	<circle cx="396.10" cy="169.09" data-y="13.09" data-x="1603238400" r="1" fill="white"><title>2020-10-21: 13</title></circle>
	<circle cx="397.67" cy="162.59" data-y="13.50" data-x="1603324800" r="1" fill="white"><title>2020-10-22: 14</title></circle>
	<circle cx="399.24" cy="161.29" data-y="13.58" data-x="1603411200" r="1" fill="white"><title>2020-10-23: 14</title></circle>
	<circle cx="400.81" cy="169.52" data-y="13.06" data-x="1603497600" r="1" fill="white"><title>2020-10-24: 13</title></circle>
	<circle cx="402.39" cy="160.42" data-y="13.64" data-x="1603584000" r="1" fill="white"><title>2020-10-25: 14</title></circle>
	<circle cx="403.96" cy="179.06" data-y="12.45" data-x="1603670400" r="1" fill="white"><title>2020-10-26: 12</title></circle>
	<circle cx="405.53" cy="187.30" data-y="11.93" data-x="1603756800" r="1" fill="white"><title>2020-10-27: 12</title></circle>
	<circle cx="407.10" cy="182.10" data-y="12.26" data-x="1603843200" r="1" fill="white"><title>2020-10-28: 12</title></circle>
	<circle cx="408.67" cy="183.40" data-y="12.18" data-x="1603929600" r="1" fill="white"><title>2020-10-29: 12</title></circle>
	<circle cx="410.25" cy="190.77" data-y="11.71" data-x="1604016000" r="1" fill="white"><title>2020-10-30: 12</title></circle>
	<circle cx="411.82" cy="191.63" data-y="11.65" data-x="1604102400" r="1" fill="white"><title>2020-10-31: 12</title></circle>
	<circle cx="413.39" cy="198.14" data-y="11.24" data-x="1604188800" r="1" fill="white"><title>2020-11-01: 11</title></circle>
	<circle cx="414.96" cy="191.63" data-y="11.65" data-x="1604275200" r="1" fill="white"><title>2020-11-02: 12</title></circle>
	<circle cx="416.54" cy="184.70" data-y="12.10" data-x="1604361600" r="1" fill="white"><title>2020-11-03: 12</title></circle>
	<circle cx="418.11" cy="182.10" data-y="12.26" data-x="1604448000" r="1" fill="white"><title>2020-11-04: 12</title></circle>
	<circle cx="419.68" cy="181.23" data-y="12.32" data-x="1604534400" r="1" fill="white"><title>2020-11-05: 12</title></circle>
	<circle cx="421.25" cy="179.06" data-y="12.45" data-x="1604620800" r="1" fill="white"><title>2020-11-06: 12</title></circle>
	<circle cx="422.83" cy="174.29" data-y="12.76" data-x="1604707200" r="1" fill="white"><title>2020-11-07: 13</title></circle>
	<circle cx="424.40" cy="167.79" data-y="13.17" data-x="1604793600" r="1" fill="white"><title>2020-11-08: 13</title></circle>
	<circle cx="425.97" cy="167.36" data-y="13.20" data-x="1604880000" r="1" fill="white"><title>2020-11-09: 13</title></circle>
	<circle cx="427.54" cy="175.59" data-y="12.67" data-x="1604966400" r="1" fill="white"><title>2020-11-10: 13</title></circle>
	<circle cx="429.12" cy="176.46" data-y="12.62" data-x="1605052800" r="1" fill="white"><title>2020-11-11: 13</title></circle>
	<circle cx="430.69" cy="183.83" data-y="12.15" data-x="1605139200" r="1" fill="white"><title>2020-11-12: 12</title></circle>
	<circle cx="432.26" cy="171.69" data-y="12.92" data-x="1605225600" r="1" fill="white"><title>2020-11-13: 13</title></circle>
	<circle cx="433.83" cy="175.59" data-y="12.67" data-x="1605312000" r="1" fill="white"><title>2020-11-14: 13</title></circle>
	<circle cx="435.41" cy="180.80" data-y="12.34" data-x="1605398400" r="1" fill="white"><title>2020-11-15: 12</title></circle>
	<circle cx="436.98" cy="172.99" data-y="12.84" data-x="1605484800" r="1" fill="white"><title>2020-11-16: 13</title></circle>
	<circle cx="438.55" cy="165.19" data-y="13.34" data-x="1605571200" r="1" fill="white"><title>2020-11-17: 13</title></circle>
	<circle cx="440.12" cy="178.19" data-y="12.51" data-x="1605657600" r="1" fill="white"><title>2020-11-18: 13</title></circle>
	<circle cx="441.70" cy="167.36" data-y="13.20" data-x="1605744000" r="1" fill="white"><title>2020-11-19: 13</title></circle>
	<circle cx="443.27" cy="179.93" data-y="12.40" data-x="1605830400" r="1" fill="white"><title>2020-11-20: 12</title></circle>
	<circle cx="444.84" cy="177.76" data-y="12.54" data-x="1605916800" r="1" fill="white"><title>2020-11-21: 13</title></circle>
	<circle cx="446.41" cy="185.13" data-y="12.07" data-x="1606003200" r="1" fill="white"><title>2020-11-22: 12</title></circle>
	<circle cx="447.99" cy="203.34" data-y="10.91" data-x="1606089600" r="1" fill="white"><title>2020-11-23: 11</title></circle>
	<circle cx="449.56" cy="209.84" data-y="10.50" data-x="1606176000" r="1" fill="white"><title>2020-11-24: 10</title></circle>
	<circle cx="451.13" cy="203.34" data-y="10.91" data-x="1606262400" r="1" fill="white"><title>2020-11-25: 11</title></circle>
	<circle cx="452.70" cy="218.51" data-y="9.95" data-x="1606348800" r="1" fill="white"><title>2020-11-26: 10</title></circle>
	<circle cx="454.28" cy="230.21" data-y="9.20" data-x="1606435200" r="1" fill="white"><title>2020-11-27: 9</title></circle>
	<circle cx="455.85" cy="231.95" data-y="9.09" data-x="1606521600" r="1" fill="white"><title>2020-11-28: 9</title></circle>
	<circle cx="457.42" cy="228.91" data-y="9.29" data-x="1606608000" r="1" fill="white"><title>2020-11-29: 9</title></circle>
	<circle cx="458.99" cy="212.87" data-y="10.30" data-x="1606694400" r="1" fill="white"><title>2020-11-30: 10</title></circle>
	<circle cx="460.57" cy="218.94" data-y="9.92" data-x="1606780800" r="1" fill="white"><title>2020-12-01: 10</title></circle>
	<circle cx="462.14" cy="212.87" data-y="10.30" data-x="1606867200" r="1" fill="white"><title>2020-12-02: 10</title></circle>
</g>
<g data-series="recent-cases" class="data-series">
	<path d="M 462.14,212.87L 463.71,197.70L 465.28,205.50L 466.86,212.66L 468.43,220.24L 470.00,240.73" id="Recent cases" class="line" stroke-width="1" stroke-linecap="round" stroke-dasharray="4,6" stroke-dashoffset="4"><title>Recent cases</title></path>
	<circle cx="462.14" cy="212.87" data-y="10.30" data-x="1606867200" r="2.5" fill="white"><title>2020-12-02: 10</title></circle>
	<circle cx="463.71" cy="197.70" data-y="11.27" data-x="1606953600" r="2.5" fill="white"><title>2020-12-03: 11</title></circle>
	<circle cx="465.28" cy="205.50" data-y="10.77" data-x="1607040000" r="2.5" fill="white"><title>2020-12-04: 11</title></circle>
	<circle cx="466.86" cy="212.66" data-y="10.32" data-x="1607126400" r="2.5" fill="white"><title>2020-12-05: 10</title></circle>
	<circle cx="468.43" cy="220.24" data-y="9.84" data-x="1607212800" r="2.5" fill="white"><title>2020-12-06: 10</title></circle>
	<circle cx="470.00" cy="240.73" data-y="8.53" data-x="1607299200" r="2.5" fill="white"><title>2020-12-07: 9</title></circle>
</g>
</svg>
