<svg width="480" height="400" viewBox="0 0 480 400" xmlns="http://www.w3.org/2000/svg" style="overflow:display" preserveAspectRatio="xMinYMin meet" overflow="visible">
<defs>
	<style>
	.data-series path.line { fill-opacity: 0; stroke: black; }
	.data-series path.line.dotted { stroke-dasharray: 12 20 }
	.data-series:hover path.line, .data-series.on path.line { stroke-width: 1; }
	.data-series:hover circle, .data-series.on circle { display: inline; }
	.graph-grid { font-family: "Helvetica Neue",Helvetica,Arial,"Lucida Grande",sans-serif; }
	.graph-grid line { stroke: black; stroke-width: 1; stroke-linecap: round; }
	.graph-grid.graph-grid-x text { text-anchor: middle; dominant-baseline: hanging; transform: translateY(10px); }
	.graph-grid.graph-grid-y text { text-anchor: end; dominant-baseline: middle; transform: translateX(-10px); }
	</style>
</defs>
<g class="graph-grid graph-grid-y">
	<line x1="25.00" y1="375.00" x2="470.00" y2="375.00" data-left="25"></line>
	<text x="35" y="375" text-anchor="end">0</text>
	<text x="35" y="277.678756329114" text-anchor="end">20</text>
	<text x="35" y="180.357512658228" text-anchor="end">40</text>
	<text x="35" y="83.0362689873418" text-anchor="end">60</text>
	<text style="text-anchor:middle;dominant-baseline:hanging;font-weight:bold;transform: translateY(192.5px) rotate(-90deg);"></text>
</g>
<g class="graph-grid graph-grid-x">
	<line class="tick" x1="30.47" y1="375.00" x2="30.47" y2="380.00"></line>
	<text x="30.4713114754098" y="375" text-anchor="middle">M</text>
	<line class="tick" x1="87.01" y1="375.00" x2="87.01" y2="380.00"></line>
	<text x="87.0081967213115" y="375" text-anchor="middle">A</text>
	<line class="tick" x1="141.72" y1="375.00" x2="141.72" y2="380.00"></line>
	<text x="141.72131147541" y="375" text-anchor="middle">M</text>
	<line class="tick" x1="198.26" y1="375.00" x2="198.26" y2="380.00"></line>
	<text x="198.258196721311" y="375" text-anchor="middle">J</text>
	<line class="tick" x1="252.97" y1="375.00" x2="252.97" y2="380.00"></line>
	<text x="252.97131147541" y="375" text-anchor="middle">J</text>
	<line class="tick" x1="309.51" y1="375.00" x2="309.51" y2="380.00"></line>
	<text x="309.508196721311" y="375" text-anchor="middle">A</text>
	<line class="tick" x1="366.05" y1="375.00" x2="366.05" y2="380.00"></line>
	<text x="366.045081967213" y="375" text-anchor="middle">S</text>
	<line class="tick" x1="420.76" y1="375.00" x2="420.76" y2="380.00"></line>
	<text x="420.758196721311" y="375" text-anchor="middle">O</text>
	<text style="text-anchor:middle;dominant-baseline:hanging;font-weight:bold;transform: translateY(192.5px) rotate(-90deg);"></text>
</g>
<g data-series="widespread" class="data-series">
	<path d="M 25.00,340.94L 470.00,340.94" id="W06000024-level-0" class="line" stroke-width="1" stroke-linecap="round" stroke-dasharray="3,3" fill-opacity="0.3" opacity="0.3"><title>Widespread</title></path>
</g>
<g data-series="substantial" class="data-series">
	<path d="M 25.00,355.54L 470.00,355.54" id="W06000024-level-1" class="line" stroke-width="1" stroke-linecap="round" stroke-dasharray="3,3" fill-opacity="0.3" opacity="0.3"><title>Substantial</title></path>
</g>
<g data-series="moderate" class="data-series">
	<path d="M 25.00,370.13L 470.00,370.13" id="W06000024-level-2" class="line" stroke-width="1" stroke-linecap="round" stroke-dasharray="3,3" fill-opacity="0.3" opacity="0.3"><title>Moderate</title></path>
</g>
<g data-series="new-cases" class="data-series">
	<path d="M 25.00,375.00L 26.82,375.00L 28.65,375.00L 30.47,375.00L 32.30,375.00L 34.12,375.00L 35.94,375.00L 37.77,375.00L 39.59,375.00L 41.41,375.00L 43.24,375.00L 45.06,375.00L 46.89,375.00L 48.71,375.00L 50.53,375.00L 52.36,372.69L 54.18,372.69L 56.00,372.69L 57.83,371.53L 59.65,371.53L 61.48,370.38L 63.30,370.38L 65.12,371.53L 66.95,369.22L 68.77,362.29L 70.59,357.67L 72.42,351.90L 74.24,350.74L 76.07,344.97L 77.89,335.73L 79.71,334.57L 81.54,329.95L 83.36,328.80L 85.18,326.49L 87.01,325.33L 88.83,321.87L 90.66,318.40L 92.48,305.70L 94.30,305.70L 96.13,302.23L 97.95,305.70L 99.77,304.54L 101.60,305.70L 103.42,317.25L 105.25,326.49L 107.07,317.25L 108.89,310.32L 110.72,298.77L 112.54,297.61L 114.36,302.23L 116.19,296.46L 118.01,290.68L 119.84,303.39L 121.66,311.47L 123.48,324.18L 125.31,326.49L 127.13,325.33L 128.95,324.18L 130.78,326.49L 132.60,324.18L 134.43,331.11L 136.25,321.87L 138.07,319.56L 139.90,318.40L 141.72,321.87L 143.55,324.18L 145.37,327.64L 147.19,325.33L 149.02,332.26L 150.84,336.88L 152.66,342.66L 154.49,346.12L 156.31,347.28L 158.14,350.74L 159.96,354.21L 161.78,350.74L 163.61,344.97L 165.43,340.35L 167.25,334.57L 169.08,325.33L 170.90,319.56L 172.73,317.25L 174.55,319.56L 176.37,320.71L 178.20,323.02L 180.02,319.56L 181.84,332.26L 183.67,339.19L 185.49,338.04L 187.32,342.66L 189.14,347.28L 190.96,349.59L 192.79,361.14L 194.61,362.29L 196.43,361.14L 198.26,363.45L 200.08,359.98L 201.91,361.14L 203.73,358.83L 205.55,355.36L 207.38,357.67L 209.20,359.98L 211.02,358.83L 212.85,364.60L 214.67,362.29L 216.50,363.45L 218.32,366.91L 220.14,365.76L 221.97,366.91L 223.79,370.38L 225.61,368.07L 227.44,369.22L 229.26,368.07L 231.09,366.91L 232.91,368.07L 234.73,368.07L 236.56,366.91L 238.38,366.91L 240.20,244.48L 242.03,244.48L 243.85,239.86L 245.68,238.70L 247.50,237.55L 249.32,237.55L 251.15,239.86L 252.97,363.45L 254.80,365.76L 256.62,371.53L 258.44,372.69L 260.27,372.69L 262.09,371.53L 263.91,370.38L 265.74,370.38L 267.56,370.38L 269.39,369.22L 271.21,369.22L 273.03,370.38L 274.86,370.38L 276.68,370.38L 278.50,370.38L 280.33,370.38L 282.15,370.38L 283.98,370.38L 285.80,370.38L 287.62,372.69L 289.45,373.84L 291.27,373.84L 293.09,372.69L 294.92,372.69L 296.74,372.69L 298.57,372.69L 300.39,371.53L 302.21,371.53L 304.04,371.53L 305.86,372.69L 307.68,373.84L 309.51,373.84L 311.33,372.69L 313.16,373.84L 314.98,373.84L 316.80,373.84L 318.63,373.84L 320.45,373.84L 322.27,373.84L 324.10,375.00L 325.92,375.00L 327.75,375.00L 329.57,375.00L 331.39,375.00L 333.22,375.00L 335.04,372.69L 336.86,369.22L 338.69,366.91L 340.51,365.76L 342.34,364.60L 344.16,362.29L 345.98,361.14L 347.81,362.29L 349.63,363.45L 351.45,364.60L 353.28,363.45L 355.10,363.45L 356.93,365.76L 358.75,366.91L 360.57,365.76L 362.40,366.91L 364.22,363.45L 366.05,359.98L 367.87,356.52L 369.69,338.04L 371.52,328.80L 373.34,328.80L 375.16,321.87L 376.99,320.71L 378.81,323.02L 380.64,323.02L 382.46,333.42L 384.28,326.49L 386.11,318.40L 387.93,301.08L 389.75,298.77L 391.58,282.59L 393.40,265.27L 395.23,260.65L 397.05,253.72L 398.87,222.53L 400.70,232.93L 402.52,215.60L 404.34,214.45L 406.17,220.22L 407.99,221.38L 409.82,222.53L 411.64,239.86L 413.46,231.77L 415.29,235.24L 417.11,235.24L 418.93,231.77L 420.76,221.38L 422.58,207.52L 424.41,197.12L 426.23,197.12L 428.05,194.81L 429.88,190.19L 431.70,192.50L 433.52,204.05L 435.35,226.00L 437.17,224.84L 439.00,198.28L 440.82,200.59L 442.64,193.66L 444.47,180.95L 446.29,171.71L 448.11,133.59L 449.94,111.65L 451.76,105.87L 453.59,82.77L 455.41,61.98L 457.23,37.72L 459.06,15.78L 460.88,10.00" id="New cases" class="line" stroke-width="1" stroke-linecap="round"><title>New cases</title></path>
	<circle cx="25.00" cy="375.00" data-y="0.00" data-x="1582761600" r="1" fill="white"><title>2020-02-27: 0</title></circle>
	<circle cx="26.82" cy="375.00" data-y="0.00" data-x="1582848000" r="1" fill="white"><title>2020-02-28: 0</title></circle>
	<circle cx="28.65" cy="375.00" data-y="0.00" data-x="1582934400" r="1" fill="white"><title>2020-02-29: 0</title></circle>
	<circle cx="30.47" cy="375.00" data-y="0.00" data-x="1583020800" r="1" fill="white"><title>2020-03-01: 0</title></circle>
	<circle cx="32.30" cy="375.00" data-y="0.00" data-x="1583107200" r="1" fill="white"><title>2020-03-02: 0</title></circle>
	<circle cx="34.12" cy="375.00" data-y="0.00" data-x="1583193600" r="1" fill="white"><title>2020-03-03: 0</title></circle>
	<circle cx="35.94" cy="375.00" data-y="0.00" data-x="1583280000" r="1" fill="white"><title>2020-03-04: 0</title></circle>
	<circle cx="37.77" cy="375.00" data-y="0.00" data-x="1583366400" r="1" fill="white"><title>2020-03-05: 0</title></circle>
	<circle cx="39.59" cy="375.00" data-y="0.00" data-x="1583452800" r="1" fill="white"><title>2020-03-06: 0</title></circle>
	<circle cx="41.41" cy="375.00" data-y="0.00" data-x="1583539200" r="1" fill="white"><title>2020-03-07: 0</title></circle>
	<circle cx="43.24" cy="375.00" data-y="0.00" data-x="1583625600" r="1" fill="white"><title>2020-03-08: 0</title></circle>
	<circle cx="45.06" cy="375.00" data-y="0.00" data-x="1583712000" r="1" fill="white"><title>2020-03-09: 0</title></circle>
	<circle cx="46.89" cy="375.00" data-y="0.00" data-x="1583798400" r="1" fill="white"><title>2020-03-10: 0</title></circle>
	<circle cx="48.71" cy="375.00" data-y="0.00" data-x="1583884800" r="1" fill="white"><title>2020-03-11: 0</title></circle>
	<circle cx="50.53" cy="375.00" data-y="0.00" data-x="1583971200" r="1" fill="white"><title>2020-03-12: 0</title></circle>
	<circle cx="52.36" cy="372.69" data-y="0.47" data-x="1584057600" r="1" fill="white"><title>2020-03-13: 0</title></circle>
	<circle cx="54.18" cy="372.69" data-y="0.47" data-x="1584144000" r="1" fill="white"><title>2020-03-14: 0</title></circle>
	<circle cx="56.00" cy="372.69" data-y="0.47" data-x="1584230400" r="1" fill="white"><title>2020-03-15: 0</title></circle>
	<circle cx="57.83" cy="371.53" data-y="0.71" data-x="1584316800" r="1" fill="white"><title>2020-03-16: 1</title></circle>
	<circle cx="59.65" cy="371.53" data-y="0.71" data-x="1584403200" r="1" fill="white"><title>2020-03-17: 1</title></circle>
	<circle cx="61.48" cy="370.38" data-y="0.95" data-x="1584489600" r="1" fill="white"><title>2020-03-18: 1</title></circle>
	<circle cx="63.30" cy="370.38" data-y="0.95" data-x="1584576000" r="1" fill="white"><title>2020-03-19: 1</title></circle>
	<circle cx="65.12" cy="371.53" data-y="0.71" data-x="1584662400" r="1" fill="white"><title>2020-03-20: 1</title></circle>
	<circle cx="66.95" cy="369.22" data-y="1.19" data-x="1584748800" r="1" fill="white"><title>2020-03-21: 1</title></circle>
	<circle cx="68.77" cy="362.29" data-y="2.61" data-x="1584835200" r="1" fill="white"><title>2020-03-22: 3</title></circle>
	<circle cx="70.59" cy="357.67" data-y="3.56" data-x="1584921600" r="1" fill="white"><title>2020-03-23: 4</title></circle>
	<circle cx="72.42" cy="351.90" data-y="4.75" data-x="1585008000" r="1" fill="white"><title>2020-03-24: 5</title></circle>
	<circle cx="74.24" cy="350.74" data-y="4.98" data-x="1585094400" r="1" fill="white"><title>2020-03-25: 5</title></circle>
	<circle cx="76.07" cy="344.97" data-y="6.17" data-x="1585180800" r="1" fill="white"><title>2020-03-26: 6</title></circle>
	<circle cx="77.89" cy="335.73" data-y="8.07" data-x="1585267200" r="1" fill="white"><title>2020-03-27: 8</title></circle>
	<circle cx="79.71" cy="334.57" data-y="8.31" data-x="1585353600" r="1" fill="white"><title>2020-03-28: 8</title></circle>
	<circle cx="81.54" cy="329.95" data-y="9.26" data-x="1585440000" r="1" fill="white"><title>2020-03-29: 9</title></circle>
	<circle cx="83.36" cy="328.80" data-y="9.49" data-x="1585526400" r="1" fill="white"><title>2020-03-30: 9</title></circle>
	<circle cx="85.18" cy="326.49" data-y="9.97" data-x="1585612800" r="1" fill="white"><title>2020-03-31: 10</title></circle>
	<circle cx="87.01" cy="325.33" data-y="10.21" data-x="1585699200" r="1" fill="white"><title>2020-04-01: 10</title></circle>
	<circle cx="88.83" cy="321.87" data-y="10.92" data-x="1585785600" r="1" fill="white"><title>2020-04-02: 11</title></circle>
	<circle cx="90.66" cy="318.40" data-y="11.63" data-x="1585872000" r="1" fill="white"><title>2020-04-03: 12</title></circle>
	<circle cx="92.48" cy="305.70" data-y="14.24" data-x="1585958400" r="1" fill="white"><title>2020-04-04: 14</title></circle>
	<circle cx="94.30" cy="305.70" data-y="14.24" data-x="1586044800" r="1" fill="white"><title>2020-04-05: 14</title></circle>
	<circle cx="96.13" cy="302.23" data-y="14.95" data-x="1586131200" r="1" fill="white"><title>2020-04-06: 15</title></circle>
	<circle cx="97.95" cy="305.70" data-y="14.24" data-x="1586217600" r="1" fill="white"><title>2020-04-07: 14</title></circle>
	<circle cx="99.77" cy="304.54" data-y="14.48" data-x="1586304000" r="1" fill="white"><title>2020-04-08: 14</title></circle>
	<circle cx="101.60" cy="305.70" data-y="14.24" data-x="1586390400" r="1" fill="white"><title>2020-04-09: 14</title></circle>
	<circle cx="103.42" cy="317.25" data-y="11.87" data-x="1586476800" r="1" fill="white"><title>2020-04-10: 12</title></circle>
	<circle cx="105.25" cy="326.49" data-y="9.97" data-x="1586563200" r="1" fill="white"><title>2020-04-11: 10</title></circle>
	<circle cx="107.07" cy="317.25" data-y="11.87" data-x="1586649600" r="1" fill="white"><title>2020-04-12: 12</title></circle>
	<circle cx="108.89" cy="310.32" data-y="13.29" data-x="1586736000" r="1" fill="white"><title>2020-04-13: 13</title></circle>
	<circle cx="110.72" cy="298.77" data-y="15.67" data-x="1586822400" r="1" fill="white"><title>2020-04-14: 16</title></circle>
	<circle cx="112.54" cy="297.61" data-y="15.90" data-x="1586908800" r="1" fill="white"><title>2020-04-15: 16</title></circle>
	<circle cx="114.36" cy="302.23" data-y="14.95" data-x="1586995200" r="1" fill="white"><title>2020-04-16: 15</title></circle>
	<circle cx="116.19" cy="296.46" data-y="16.14" data-x="1587081600" r="1" fill="white"><title>2020-04-17: 16</title></circle>
	<circle cx="118.01" cy="290.68" data-y="17.33" data-x="1587168000" r="1" fill="white"><title>2020-04-18: 17</title></circle>
	<circle cx="119.84" cy="303.39" data-y="14.72" data-x="1587254400" r="1" fill="white"><title>2020-04-19: 15</title></circle>
	<circle cx="121.66" cy="311.47" data-y="13.06" data-x="1587340800" r="1" fill="white"><title>2020-04-20: 13</title></circle>
	<circle cx="123.48" cy="324.18" data-y="10.44" data-x="1587427200" r="1" fill="white"><title>2020-04-21: 10</title></circle>
	<circle cx="125.31" cy="326.49" data-y="9.97" data-x="1587513600" r="1" fill="white"><title>2020-04-22: 10</title></circle>
	<circle cx="127.13" cy="325.33" data-y="10.21" data-x="1587600000" r="1" fill="white"><title>2020-04-23: 10</title></circle>
	<circle cx="128.95" cy="324.18" data-y="10.44" data-x="1587686400" r="1" fill="white"><title>2020-04-24: 10</title></circle>
	<circle cx="130.78" cy="326.49" data-y="9.97" data-x="1587772800" r="1" fill="white"><title>2020-04-25: 10</title></circle>
	<circle cx="132.60" cy="324.18" data-y="10.44" data-x="1587859200" r="1" fill="white"><title>2020-04-26: 10</title></circle>
	<circle cx="134.43" cy="331.11" data-y="9.02" data-x="1587945600" r="1" fill="white"><title>2020-04-27: 9</title></circle>
	<circle cx="136.25" cy="321.87" data-y="10.92" data-x="1588032000" r="1" fill="white"><title>2020-04-28: 11</title></circle>
	<circle cx="138.07" cy="319.56" data-y="11.39" data-x="1588118400" r="1" fill="white"><title>2020-04-29: 11</title></circle>
	<circle cx="139.90" cy="318.40" data-y="11.63" data-x="1588204800" r="1" fill="white"><title>2020-04-30: 12</title></circle>
	<circle cx="141.72" cy="321.87" data-y="10.92" data-x="1588291200" r="1" fill="white"><title>2020-05-01: 11</title></circle>
	<circle cx="143.55" cy="324.18" data-y="10.44" data-x="1588377600" r="1" fill="white"><title>2020-05-02: 10</title></circle>
	<circle cx="145.37" cy="327.64" data-y="9.73" data-x="1588464000" r="1" fill="white"><title>2020-05-03: 10</title></circle>
	<circle cx="147.19" cy="325.33" data-y="10.21" data-x="1588550400" r="1" fill="white"><title>2020-05-04: 10</title></circle>
	<circle cx="149.02" cy="332.26" data-y="8.78" data-x="1588636800" r="1" fill="white"><title>2020-05-05: 9</title></circle>
	<circle cx="150.84" cy="336.88" data-y="7.83" data-x="1588723200" r="1" fill="white"><title>2020-05-06: 8</title></circle>
	<circle cx="152.66" cy="342.66" data-y="6.65" data-x="1588809600" r="1" fill="white"><title>2020-05-07: 7</title></circle>
	<circle cx="154.49" cy="346.12" data-y="5.93" data-x="1588896000" r="1" fill="white"><title>2020-05-08: 6</title></circle>
	<circle cx="156.31" cy="347.28" data-y="5.70" data-x="1588982400" r="1" fill="white"><title>2020-05-09: 6</title></circle>
	<circle cx="158.14" cy="350.74" data-y="4.98" data-x="1589068800" r="1" fill="white"><title>2020-05-10: 5</title></circle>
	<circle cx="159.96" cy="354.21" data-y="4.27" data-x="1589155200" r="1" fill="white"><title>2020-05-11: 4</title></circle>
	<circle cx="161.78" cy="350.74" data-y="4.98" data-x="1589241600" r="1" fill="white"><title>2020-05-12: 5</title></circle>
	<circle cx="163.61" cy="344.97" data-y="6.17" data-x="1589328000" r="1" fill="white"><title>2020-05-13: 6</title></circle>
	<circle cx="165.43" cy="340.35" data-y="7.12" data-x="1589414400" r="1" fill="white"><title>2020-05-14: 7</title></circle>
	<circle cx="167.25" cy="334.57" data-y="8.31" data-x="1589500800" r="1" fill="white"><title>2020-05-15: 8</title></circle>
	<circle cx="169.08" cy="325.33" data-y="10.21" data-x="1589587200" r="1" fill="white"><title>2020-05-16: 10</title></circle>
	<circle cx="170.90" cy="319.56" data-y="11.39" data-x="1589673600" r="1" fill="white"><title>2020-05-17: 11</title></circle>
	<circle cx="172.73" cy="317.25" data-y="11.87" data-x="1589760000" r="1" fill="white"><title>2020-05-18: 12</title></circle>
	<circle cx="174.55" cy="319.56" data-y="11.39" data-x="1589846400" r="1" fill="white"><title>2020-05-19: 11</title></circle>
	<circle cx="176.37" cy="320.71" data-y="11.16" data-x="1589932800" r="1" fill="white"><title>2020-05-20: 11</title></circle>
	<circle cx="178.20" cy="323.02" data-y="10.68" data-x="1590019200" r="1" fill="white"><title>2020-05-21: 11</title></circle>
	<circle cx="180.02" cy="319.56" data-y="11.39" data-x="1590105600" r="1" fill="white"><title>2020-05-22: 11</title></circle>
	<circle cx="181.84" cy="332.26" data-y="8.78" data-x="1590192000" r="1" fill="white"><title>2020-05-23: 9</title></circle>
	<circle cx="183.67" cy="339.19" data-y="7.36" data-x="1590278400" r="1" fill="white"><title>2020-05-24: 7</title></circle>
	<circle cx="185.49" cy="338.04" data-y="7.60" data-x="1590364800" r="1" fill="white"><title>2020-05-25: 8</title></circle>
	<circle cx="187.32" cy="342.66" data-y="6.65" data-x="1590451200" r="1" fill="white"><title>2020-05-26: 7</title></circle>
	<circle cx="189.14" cy="347.28" data-y="5.70" data-x="1590537600" r="1" fill="white"><title>2020-05-27: 6</title></circle>
	<circle cx="190.96" cy="349.59" data-y="5.22" data-x="1590624000" r="1" fill="white"><title>2020-05-28: 5</title></circle>
	<circle cx="192.79" cy="361.14" data-y="2.85" data-x="1590710400" r="1" fill="white"><title>2020-05-29: 3</title></circle>
	<circle cx="194.61" cy="362.29" data-y="2.61" data-x="1590796800" r="1" fill="white"><title>2020-05-30: 3</title></circle>
	<circle cx="196.43" cy="361.14" data-y="2.85" data-x="1590883200" r="1" fill="white"><title>2020-05-31: 3</title></circle>
	<circle cx="198.26" cy="363.45" data-y="2.37" data-x="1590969600" r="1" fill="white"><title>2020-06-01: 2</title></circle>
	<circle cx="200.08" cy="359.98" data-y="3.09" data-x="1591056000" r="1" fill="white"><title>2020-06-02: 3</title></circle>
	<circle cx="201.91" cy="361.14" data-y="2.85" data-x="1591142400" r="1" fill="white"><title>2020-06-03: 3</title></circle>
	<circle cx="203.73" cy="358.83" data-y="3.32" data-x="1591228800" r="1" fill="white"><title>2020-06-04: 3</title></circle>
	<circle cx="205.55" cy="355.36" data-y="4.04" data-x="1591315200" r="1" fill="white"><title>2020-06-05: 4</title></circle>
	<circle cx="207.38" cy="357.67" data-y="3.56" data-x="1591401600" r="1" fill="white"><title>2020-06-06: 4</title></circle>
	<circle cx="209.20" cy="359.98" data-y="3.09" data-x="1591488000" r="1" fill="white"><title>2020-06-07: 3</title></circle>
	<circle cx="211.02" cy="358.83" data-y="3.32" data-x="1591574400" r="1" fill="white"><title>2020-06-08: 3</title></circle>
	<circle cx="212.85" cy="364.60" data-y="2.14" data-x="1591660800" r="1" fill="white"><title>2020-06-09: 2</title></circle>
	<circle cx="214.67" cy="362.29" data-y="2.61" data-x="1591747200" r="1" fill="white"><title>2020-06-10: 3</title></circle>
	<circle cx="216.50" cy="363.45" data-y="2.37" data-x="1591833600" r="1" fill="white"><title>2020-06-11: 2</title></circle>
	<circle cx="218.32" cy="366.91" data-y="1.66" data-x="1591920000" r="1" fill="white"><title>2020-06-12: 2</title></circle>
	<circle cx="220.14" cy="365.76" data-y="1.90" data-x="1592006400" r="1" fill="white"><title>2020-06-13: 2</title></circle>
	<circle cx="221.97" cy="366.91" data-y="1.66" data-x="1592092800" r="1" fill="white"><title>2020-06-14: 2</title></circle>
	<circle cx="223.79" cy="370.38" data-y="0.95" data-x="1592179200" r="1" fill="white"><title>2020-06-15: 1</title></circle>
	<circle cx="225.61" cy="368.07" data-y="1.42" data-x="1592265600" r="1" fill="white"><title>2020-06-16: 1</title></circle>
	<circle cx="227.44" cy="369.22" data-y="1.19" data-x="1592352000" r="1" fill="white"><title>2020-06-17: 1</title></circle>
	<circle cx="229.26" cy="368.07" data-y="1.42" data-x="1592438400" r="1" fill="white"><title>2020-06-18: 1</title></circle>
	<circle cx="231.09" cy="366.91" data-y="1.66" data-x="1592524800" r="1" fill="white"><title>2020-06-19: 2</title></circle>
	<circle cx="232.91" cy="368.07" data-y="1.42" data-x="1592611200" r="1" fill="white"><title>2020-06-20: 1</title></circle>
	<circle cx="234.73" cy="368.07" data-y="1.42" data-x="1592697600" r="1" fill="white"><title>2020-06-21: 1</title></circle>
	<circle cx="236.56" cy="366.91" data-y="1.66" data-x="1592784000" r="1" fill="white"><title>2020-06-22: 2</title></circle>
	<circle cx="238.38" cy="366.91" data-y="1.66" data-x="1592870400" r="1" fill="white"><title>2020-06-23: 2</title></circle>
	<circle cx="240.20" cy="244.48" data-y="26.82" data-x="1592956800" r="1" fill="white"><title>2020-06-24: 27</title></circle>
	<circle cx="242.03" cy="244.48" data-y="26.82" data-x="1593043200" r="1" fill="white"><title>2020-06-25: 27</title></circle>
	<circle cx="243.85" cy="239.86" data-y="27.77" data-x="1593129600" r="1" fill="white"><title>2020-06-26: 28</title></circle>
	<circle cx="245.68" cy="238.70" data-y="28.01" data-x="1593216000" r="1" fill="white"><title>2020-06-27: 28</title></circle>
	<circle cx="247.50" cy="237.55" data-y="28.25" data-x="1593302400" r="1" fill="white"><title>2020-06-28: 28</title></circle>
	<circle cx="249.32" cy="237.55" data-y="28.25" data-x="1593388800" r="1" fill="white"><title>2020-06-29: 28</title></circle>
	<circle cx="251.15" cy="239.86" data-y="27.77" data-x="1593475200" r="1" fill="white"><title>2020-06-30: 28</title></circle>
	<circle cx="252.97" cy="363.45" data-y="2.37" data-x="1593561600" r="1" fill="white"><title>2020-07-01: 2</title></circle>
	<circle cx="254.80" cy="365.76" data-y="1.90" data-x="1593648000" r="1" fill="white"><title>2020-07-02: 2</title></circle>
	<circle cx="256.62" cy="371.53" data-y="0.71" data-x="1593734400" r="1" fill="white"><title>2020-07-03: 1</title></circle>
	<circle cx="258.44" cy="372.69" data-y="0.47" data-x="1593820800" r="1" fill="white"><title>2020-07-04: 0</title></circle>
	<circle cx="260.27" cy="372.69" data-y="0.47" data-x="1593907200" r="1" fill="white"><title>2020-07-05: 0</title></circle>
	<circle cx="262.09" cy="371.53" data-y="0.71" data-x="1593993600" r="1" fill="white"><title>2020-07-06: 1</title></circle>
	<circle cx="263.91" cy="370.38" data-y="0.95" data-x="1594080000" r="1" fill="white"><title>2020-07-07: 1</title></circle>
	<circle cx="265.74" cy="370.38" data-y="0.95" data-x="1594166400" r="1" fill="white"><title>2020-07-08: 1</title></circle>
	<circle cx="267.56" cy="370.38" data-y="0.95" data-x="1594252800" r="1" fill="white"><title>2020-07-09: 1</title></circle>
	<circle cx="269.39" cy="369.22" data-y="1.19" data-x="1594339200" r="1" fill="white"><title>2020-07-10: 1</title></circle>
	<circle cx="271.21" cy="369.22" data-y="1.19" data-x="1594425600" r="1" fill="white"><title>2020-07-11: 1</title></circle>
	<circle cx="273.03" cy="370.38" data-y="0.95" data-x="1594512000" r="1" fill="white"><title>2020-07-12: 1</title></circle>
	<circle cx="274.86" cy="370.38" data-y="0.95" data-x="1594598400" r="1" fill="white"><title>2020-07-13: 1</title></circle>
	<circle cx="276.68" cy="370.38" data-y="0.95" data-x="1594684800" r="1" fill="white"><title>2020-07-14: 1</title></circle>
	<circle cx="278.50" cy="370.38" data-y="0.95" data-x="1594771200" r="1" fill="white"><title>2020-07-15: 1</title></circle>
	<circle cx="280.33" cy="370.38" data-y="0.95" data-x="1594857600" r="1" fill="white"><title>2020-07-16: 1</title></circle>
	<circle cx="282.15" cy="370.38" data-y="0.95" data-x="1594944000" r="1" fill="white"><title>2020-07-17: 1</title></circle>
	<circle cx="283.98" cy="370.38" data-y="0.95" data-x="1595030400" r="1" fill="white"><title>2020-07-18: 1</title></circle>
	<circle cx="285.80" cy="370.38" data-y="0.95" data-x="1595116800" r="1" fill="white"><title>2020-07-19: 1</title></circle>
	<circle cx="287.62" cy="372.69" data-y="0.47" data-x="1595203200" r="1" fill="white"><title>2020-07-20: 0</title></circle>
	<circle cx="289.45" cy="373.84" data-y="0.24" data-x="1595289600" r="1" fill="white"><title>2020-07-21: 0</title></circle>
	<circle cx="291.27" cy="373.84" data-y="0.24" data-x="1595376000" r="1" fill="white"><title>2020-07-22: 0</title></circle>
	<circle cx="293.09" cy="372.69" data-y="0.47" data-x="1595462400" r="1" fill="white"><title>2020-07-23: 0</title></circle>
	<circle cx="294.92" cy="372.69" data-y="0.47" data-x="1595548800" r="1" fill="white"><title>2020-07-24: 0</title></circle>
	<circle cx="296.74" cy="372.69" data-y="0.47" data-x="1595635200" r="1" fill="white"><title>2020-07-25: 0</title></circle>
	<circle cx="298.57" cy="372.69" data-y="0.47" data-x="1595721600" r="1" fill="white"><title>2020-07-26: 0</title></circle>
	<circle cx="300.39" cy="371.53" data-y="0.71" data-x="1595808000" r="1" fill="white"><title>2020-07-27: 1</title></circle>
	<circle cx="302.21" cy="371.53" data-y="0.71" data-x="1595894400" r="1" fill="white"><title>2020-07-28: 1</title></circle>
	<circle cx="304.04" cy="371.53" data-y="0.71" data-x="1595980800" r="1" fill="white"><title>2020-07-29: 1</title></circle>
	<circle cx="305.86" cy="372.69" data-y="0.47" data-x="1596067200" r="1" fill="white"><title>2020-07-30: 0</title></circle>
	<circle cx="307.68" cy="373.84" data-y="0.24" data-x="1596153600" r="1" fill="white"><title>2020-07-31: 0</title></circle>
	<circle cx="309.51" cy="373.84" data-y="0.24" data-x="1596240000" r="1" fill="white"><title>2020-08-01: 0</title></circle>
	<circle cx="311.33" cy="372.69" data-y="0.47" data-x="1596326400" r="1" fill="white"><title>2020-08-02: 0</title></circle>
	<circle cx="313.16" cy="373.84" data-y="0.24" data-x="1596412800" r="1" fill="white"><title>2020-08-03: 0</title></circle>
	<circle cx="314.98" cy="373.84" data-y="0.24" data-x="1596499200" r="1" fill="white"><title>2020-08-04: 0</title></circle>
	<circle cx="316.80" cy="373.84" data-y="0.24" data-x="1596585600" r="1" fill="white"><title>2020-08-05: 0</title></circle>
	<circle cx="318.63" cy="373.84" data-y="0.24" data-x="1596672000" r="1" fill="white"><title>2020-08-06: 0</title></circle>
	<circle cx="320.45" cy="373.84" data-y="0.24" data-x="1596758400" r="1" fill="white"><title>2020-08-07: 0</title></circle>
	<circle cx="322.27" cy="373.84" data-y="0.24" data-x="1596844800" r="1" fill="white"><title>2020-08-08: 0</title></circle>
	<circle cx="324.10" cy="375.00" data-y="0.00" data-x="1596931200" r="1" fill="white"><title>2020-08-09: 0</title></circle>
	<circle cx="325.92" cy="375.00" data-y="0.00" data-x="1597017600" r="1" fill="white"><title>2020-08-10: 0</title></circle>
	<circle cx="327.75" cy="375.00" data-y="0.00" data-x="1597104000" r="1" fill="white"><title>2020-08-11: 0</title></circle>
	<circle cx="329.57" cy="375.00" data-y="0.00" data-x="1597190400" r="1" fill="white"><title>2020-08-12: 0</title></circle>
	<circle cx="331.39" cy="375.00" data-y="0.00" data-x="1597276800" r="1" fill="white"><title>2020-08-13: 0</title></circle>
	<circle cx="333.22" cy="375.00" data-y="0.00" data-x="1597363200" r="1" fill="white"><title>2020-08-14: 0</title></circle>
	<circle cx="335.04" cy="372.69" data-y="0.47" data-x="1597449600" r="1" fill="white"><title>2020-08-15: 0</title></circle>
	<circle cx="336.86" cy="369.22" data-y="1.19" data-x="1597536000" r="1" fill="white"><title>2020-08-16: 1</title></circle>
	<circle cx="338.69" cy="366.91" data-y="1.66" data-x="1597622400" r="1" fill="white"><title>2020-08-17: 2</title></circle>
	<circle cx="340.51" cy="365.76" data-y="1.90" data-x="1597708800" r="1" fill="white"><title>2020-08-18: 2</title></circle>
	<circle cx="342.34" cy="364.60" data-y="2.14" data-x="1597795200" r="1" fill="white"><title>2020-08-19: 2</title></circle>
	<circle cx="344.16" cy="362.29" data-y="2.61" data-x="1597881600" r="1" fill="white"><title>2020-08-20: 3</title></circle>
	<circle cx="345.98" cy="361.14" data-y="2.85" data-x="1597968000" r="1" fill="white"><title>2020-08-21: 3</title></circle>
	<circle cx="347.81" cy="362.29" data-y="2.61" data-x="1598054400" r="1" fill="white"><title>2020-08-22: 3</title></circle>
	<circle cx="349.63" cy="363.45" data-y="2.37" data-x="1598140800" r="1" fill="white"><title>2020-08-23: 2</title></circle>
	<circle cx="351.45" cy="364.60" data-y="2.14" data-x="1598227200" r="1" fill="white"><title>2020-08-24: 2</title></circle>
	<circle cx="353.28" cy="363.45" data-y="2.37" data-x="1598313600" r="1" fill="white"><title>2020-08-25: 2</title></circle>
	<circle cx="355.10" cy="363.45" data-y="2.37" data-x="1598400000" r="1" fill="white"><title>2020-08-26: 2</title></circle>
	<circle cx="356.93" cy="365.76" data-y="1.90" data-x="1598486400" r="1" fill="white"><title>2020-08-27: 2</title></circle>
	<circle cx="358.75" cy="366.91" data-y="1.66" data-x="1598572800" r="1" fill="white"><title>2020-08-28: 2</title></circle>
	<circle cx="360.57" cy="365.76" data-y="1.90" data-x="1598659200" r="1" fill="white"><title>2020-08-29: 2</title></circle>
	<circle cx="362.40" cy="366.91" data-y="1.66" data-x="1598745600" r="1" fill="white"><title>2020-08-30: 2</title></circle>
	<circle cx="364.22" cy="363.45" data-y="2.37" data-x="1598832000" r="1" fill="white"><title>2020-08-31: 2</title></circle>
	<circle cx="366.05" cy="359.98" data-y="3.09" data-x="1598918400" r="1" fill="white"><title>2020-09-01: 3</title></circle>
	<circle cx="367.87" cy="356.52" data-y="3.80" data-x="1599004800" r="1" fill="white"><title>2020-09-02: 4</title></circle>
	<circle cx="369.69" cy="338.04" data-y="7.60" data-x="1599091200" r="1" fill="white"><title>2020-09-03: 8</title></circle>
	<circle cx="371.52" cy="328.80" data-y="9.49" data-x="1599177600" r="1" fill="white"><title>2020-09-04: 9</title></circle>
	<circle cx="373.34" cy="328.80" data-y="9.49" data-x="1599264000" r="1" fill="white"><title>2020-09-05: 9</title></circle>
	<circle cx="375.16" cy="321.87" data-y="10.92" data-x="1599350400" r="1" fill="white"><title>2020-09-06: 11</title></circle>
	<circle cx="376.99" cy="320.71" data-y="11.16" data-x="1599436800" r="1" fill="white"><title>2020-09-07: 11</title></circle>
	<circle cx="378.81" cy="323.02" data-y="10.68" data-x="1599523200" r="1" fill="white"><title>2020-09-08: 11</title></circle>
	<circle cx="380.64" cy="323.02" data-y="10.68" data-x="1599609600" r="1" fill="white"><title>2020-09-09: 11</title></circle>
	<circle cx="382.46" cy="333.42" data-y="8.55" data-x="1599696000" r="1" fill="white"><title>2020-09-10: 9</title></circle>
	<circle cx="384.28" cy="326.49" data-y="9.97" data-x="1599782400" r="1" fill="white"><title>2020-09-11: 10</title></circle>
	<circle cx="386.11" cy="318.40" data-y="11.63" data-x="1599868800" r="1" fill="white"><title>2020-09-12: 12</title></circle>
	<circle cx="387.93" cy="301.08" data-y="15.19" data-x="1599955200" r="1" fill="white"><title>2020-09-13: 15</title></circle>
	<circle cx="389.75" cy="298.77" data-y="15.67" data-x="1600041600" r="1" fill="white"><title>2020-09-14: 16</title></circle>
	<circle cx="391.58" cy="282.59" data-y="18.99" data-x="1600128000" r="1" fill="white"><title>2020-09-15: 19</title></circle>
	<circle cx="393.40" cy="265.27" data-y="22.55" data-x="1600214400" r="1" fill="white"><title>2020-09-16: 23</title></circle>
	<circle cx="395.23" cy="260.65" data-y="23.50" data-x="1600300800" r="1" fill="white"><title>2020-09-17: 23</title></circle>
	<circle cx="397.05" cy="253.72" data-y="24.92" data-x="1600387200" r="1" fill="white"><title>2020-09-18: 25</title></circle>
	<circle cx="398.87" cy="222.53" data-y="31.33" data-x="1600473600" r="1" fill="white"><title>2020-09-19: 31</title></circle>
	<circle cx="400.70" cy="232.93" data-y="29.20" data-x="1600560000" r="1" fill="white"><title>2020-09-20: 29</title></circle>
	<circle cx="402.52" cy="215.60" data-y="32.76" data-x="1600646400" r="1" fill="white"><title>2020-09-21: 33</title></circle>
	<circle cx="404.34" cy="214.45" data-y="32.99" data-x="1600732800" r="1" fill="white"><title>2020-09-22: 33</title></circle>
	<circle cx="406.17" cy="220.22" data-y="31.81" data-x="1600819200" r="1" fill="white"><title>2020-09-23: 32</title></circle>
	<circle cx="407.99" cy="221.38" data-y="31.57" data-x="1600905600" r="1" fill="white"><title>2020-09-24: 32</title></circle>
	<circle cx="409.82" cy="222.53" data-y="31.33" data-x="1600992000" r="1" fill="white"><title>2020-09-25: 31</title></circle>
	<circle cx="411.64" cy="239.86" data-y="27.77" data-x="1601078400" r="1" fill="white"><title>2020-09-26: 28</title></circle>
	<circle cx="413.46" cy="231.77" data-y="29.43" data-x="1601164800" r="1" fill="white"><title>2020-09-27: 29</title></circle>
	<circle cx="415.29" cy="235.24" data-y="28.72" data-x="1601251200" r="1" fill="white"><title>2020-09-28: 29</title></circle>
	<circle cx="417.11" cy="235.24" data-y="28.72" data-x="1601337600" r="1" fill="white"><title>2020-09-29: 29</title></circle>
	<circle cx="418.93" cy="231.77" data-y="29.43" data-x="1601424000" r="1" fill="white"><title>2020-09-30: 29</title></circle>
	<circle cx="420.76" cy="221.38" data-y="31.57" data-x="1601510400" r="1" fill="white"><title>2020-10-01: 32</title></circle>
	<circle cx="422.58" cy="207.52" data-y="34.42" data-x="1601596800" r="1" fill="white"><title>2020-10-02: 34</title></circle>
	<circle cx="424.41" cy="197.12" data-y="36.56" data-x="1601683200" r="1" fill="white"><title>2020-10-03: 37</title></circle>
	<circle cx="426.23" cy="197.12" data-y="36.56" data-x="1601769600" r="1" fill="white"><title>2020-10-04: 37</title></circle>
	<circle cx="428.05" cy="194.81" data-y="37.03" data-x="1601856000" r="1" fill="white"><title>2020-10-05: 37</title></circle>
	<circle cx="429.88" cy="190.19" data-y="37.98" data-x="1601942400" r="1" fill="white"><title>2020-10-06: 38</title></circle>
	<circle cx="431.70" cy="192.50" data-y="37.50" data-x="1602028800" r="1" fill="white"><title>2020-10-07: 38</title></circle>
	<circle cx="433.52" cy="204.05" data-y="35.13" data-x="1602115200" r="1" fill="white"><title>2020-10-08: 35</title></circle>
	<circle cx="435.35" cy="226.00" data-y="30.62" data-x="1602201600" r="1" fill="white"><title>2020-10-09: 31</title></circle>
	<circle cx="437.17" cy="224.84" data-y="30.86" data-x="1602288000" r="1" fill="white"><title>2020-10-10: 31</title></circle>
	<circle cx="439.00" cy="198.28" data-y="36.32" data-x="1602374400" r="1" fill="white"><title>2020-10-11: 36</title></circle>
	<circle cx="440.82" cy="200.59" data-y="35.84" data-x="1602460800" r="1" fill="white"><title>2020-10-12: 36</title></circle>
	<circle cx="442.64" cy="193.66" data-y="37.27" data-x="1602547200" r="1" fill="white"><title>2020-10-13: 37</title></circle>
	<circle cx="444.47" cy="180.95" data-y="39.88" data-x="1602633600" r="1" fill="white"><title>2020-10-14: 40</title></circle>
	<circle cx="446.29" cy="171.71" data-y="41.78" data-x="1602720000" r="1" fill="white"><title>2020-10-15: 42</title></circle>
	<circle cx="448.11" cy="133.59" data-y="49.61" data-x="1602806400" r="1" fill="white"><title>2020-10-16: 50</title></circle>
	<circle cx="449.94" cy="111.65" data-y="54.12" data-x="1602892800" r="1" fill="white"><title>2020-10-17: 54</title></circle>
	<circle cx="451.76" cy="105.87" data-y="55.31" data-x="1602979200" r="1" fill="white"><title>2020-10-18: 55</title></circle>
	<circle cx="453.59" cy="82.77" data-y="60.05" data-x="1603065600" r="1" fill="white"><title>2020-10-19: 60</title></circle>
	<circle cx="455.41" cy="61.98" data-y="64.33" data-x="1603152000" r="1" fill="white"><title>2020-10-20: 64</title></circle>
	<circle cx="457.23" cy="37.72" data-y="69.31" data-x="1603238400" r="1" fill="white"><title>2020-10-21: 69</title></circle>
	<circle cx="459.06" cy="15.78" data-y="73.82" data-x="1603324800" r="1" fill="white"><title>2020-10-22: 74</title></circle>
	<circle cx="460.88" cy="10.00" data-y="75.01" data-x="1603411200" r="1" fill="white"><title>2020-10-23: 75</title></circle>
</g>
<g data-series="recent-cases" class="data-series">
	<path d="M 460.88,10.00L 462.70,65.44L 464.53,120.89L 466.35,131.09L 468.18,156.69L 470.00,197.12" id="Recent cases" class="line" stroke-width="1" stroke-linecap="round" stroke-dasharray="4,6" stroke-dashoffset="4"><title>Recent cases</title></path>
	<circle cx="460.88" cy="10.00" data-y="75.01" data-x="1603411200" r="2.5" fill="white"><title>2020-10-23: 75</title></circle>
	<circle cx="462.70" cy="65.44" data-y="63.62" data-x="1603497600" r="2.5" fill="white"><title>2020-10-24: 64</title></circle>
	<circle cx="464.53" cy="120.89" data-y="52.22" data-x="1603584000" r="2.5" fill="white"><title>2020-10-25: 52</title></circle>
	<circle cx="466.35" cy="131.09" data-y="50.12" data-x="1603670400" r="2.5" fill="white"><title>2020-10-26: 50</title></circle>
	<circle cx="468.18" cy="156.69" data-y="44.86" data-x="1603756800" r="2.5" fill="white"><title>2020-10-27: 45</title></circle>
	<circle cx="470.00" cy="197.12" data-y="36.56" data-x="1603843200" r="2.5" fill="white"><title>2020-10-28: 37</title></circle>
</g>
</svg>
