<svg width="480" height="400" viewBox="0 0 480 400" xmlns="http://www.w3.org/2000/svg" style="overflow:display" preserveAspectRatio="xMinYMin meet" overflow="visible">
<defs>
	<style>
	.data-series path.line { fill-opacity: 0; stroke: black; }
	.data-series path.line.dotted { stroke-dasharray: 12 20 }
	.data-series:hover path.line, .data-series.on path.line { stroke-width: 1; }
	.data-series:hover circle, .data-series.on circle { display: inline; }
	.graph-grid { font-family: "Helvetica Neue",Helvetica,Arial,"Lucida Grande",sans-serif; }
	.graph-grid line { stroke: black; stroke-width: 1; stroke-linecap: round; }
	.graph-grid.graph-grid-x text { text-anchor: middle; dominant-baseline: hanging; transform: translateY(10px); }
	.graph-grid.graph-grid-y text { text-anchor: end; dominant-baseline: middle; transform: translateX(-10px); }
	</style>
</defs>
<g class="graph-grid graph-grid-y">
	<line x1="25.00" y1="375.00" x2="470.00" y2="375.00" data-left="25"></line>
	<text x="35" y="375" text-anchor="end">0</text>
	<text x="35" y="229.268433070866" text-anchor="end">20</text>
	<text x="35" y="83.5368661417323" text-anchor="end">40</text>
	<text style="text-anchor:middle;dominant-baseline:hanging;font-weight:bold;transform: translateY(192.5px) rotate(-90deg);"></text>
</g>
<g class="graph-grid graph-grid-x">
	<line class="tick" x1="29.96" y1="375.00" x2="29.96" y2="380.00"></line>
	<text x="29.9628252788104" y="375" text-anchor="middle">M</text>
	<line class="tick" x1="81.25" y1="375.00" x2="81.25" y2="380.00"></line>
	<text x="81.2453531598513" y="375" text-anchor="middle">A</text>
	<line class="tick" x1="130.87" y1="375.00" x2="130.87" y2="380.00"></line>
	<text x="130.873605947955" y="375" text-anchor="middle">M</text>
	<line class="tick" x1="182.16" y1="375.00" x2="182.16" y2="380.00"></line>
	<text x="182.156133828996" y="375" text-anchor="middle">J</text>
	<line class="tick" x1="231.78" y1="375.00" x2="231.78" y2="380.00"></line>
	<text x="231.7843866171" y="375" text-anchor="middle">J</text>
	<line class="tick" x1="283.07" y1="375.00" x2="283.07" y2="380.00"></line>
	<text x="283.066914498141" y="375" text-anchor="middle">A</text>
	<line class="tick" x1="334.35" y1="375.00" x2="334.35" y2="380.00"></line>
	<text x="334.349442379182" y="375" text-anchor="middle">S</text>
	<line class="tick" x1="383.98" y1="375.00" x2="383.98" y2="380.00"></line>
	<text x="383.977695167286" y="375" text-anchor="middle">O</text>
	<line class="tick" x1="435.26" y1="375.00" x2="435.26" y2="380.00"></line>
	<text x="435.260223048327" y="375" text-anchor="middle">N</text>
	<text style="text-anchor:middle;dominant-baseline:hanging;font-weight:bold;transform: translateY(192.5px) rotate(-90deg);"></text>
</g>
<g data-series="widespread" class="data-series">
	<path d="M 25.00,323.99L 470.00,323.99" id="W06000013-level-0" class="line" stroke-width="1" stroke-linecap="round" stroke-dasharray="3,3" fill-opacity="0.3" opacity="0.3"><title>Widespread</title></path>
</g>
<g data-series="substantial" class="data-series">
	<path d="M 25.00,345.85L 470.00,345.85" id="W06000013-level-1" class="line" stroke-width="1" stroke-linecap="round" stroke-dasharray="3,3" fill-opacity="0.3" opacity="0.3"><title>Substantial</title></path>
</g>
<g data-series="moderate" class="data-series">
	<path d="M 25.00,367.71L 470.00,367.71" id="W06000013-level-2" class="line" stroke-width="1" stroke-linecap="round" stroke-dasharray="3,3" fill-opacity="0.3" opacity="0.3"><title>Moderate</title></path>
</g>
<g data-series="new-cases" class="data-series">
	<path d="M 25.00,375.00L 26.65,375.00L 28.31,375.00L 29.96,375.00L 31.62,375.00L 33.27,375.00L 34.93,375.00L 36.58,375.00L 38.23,375.00L 39.89,375.00L 41.54,375.00L 43.20,375.00L 44.85,374.28L 46.51,374.28L 48.16,374.28L 49.81,372.84L 51.47,372.84L 53.12,372.84L 54.78,372.84L 56.43,370.69L 58.09,367.81L 59.74,366.38L 61.39,364.22L 63.05,358.47L 64.70,354.16L 66.36,352.01L 68.01,351.29L 69.67,351.29L 71.32,349.13L 72.97,349.13L 74.63,347.70L 76.28,340.51L 77.94,329.02L 79.59,320.39L 81.25,315.36L 82.90,310.33L 84.55,306.74L 86.21,298.12L 87.86,298.84L 89.52,300.99L 91.17,308.18L 92.83,306.74L 94.48,303.15L 96.13,303.87L 97.79,304.59L 99.44,301.71L 101.10,304.59L 102.75,298.84L 104.41,305.31L 106.06,316.08L 107.71,316.80L 109.37,319.68L 111.02,317.52L 112.68,323.27L 114.33,333.33L 115.99,329.02L 117.64,323.99L 119.29,323.27L 120.95,334.76L 122.60,345.54L 124.26,343.39L 125.91,339.79L 127.57,341.95L 129.22,347.70L 130.87,352.01L 132.53,349.13L 134.18,352.01L 135.84,352.73L 137.49,354.88L 139.14,354.88L 140.80,352.01L 142.45,347.70L 144.11,348.42L 145.76,349.13L 147.42,349.85L 149.07,350.57L 150.72,353.44L 152.38,350.57L 154.03,354.88L 155.69,351.29L 157.34,352.01L 159.00,354.16L 160.65,352.73L 162.30,354.16L 163.96,360.63L 165.61,362.07L 167.27,366.38L 168.92,365.66L 170.58,365.66L 172.23,367.81L 173.88,368.53L 175.54,367.81L 177.19,367.10L 178.85,368.53L 180.50,367.81L 182.16,367.10L 183.81,364.94L 185.46,364.94L 187.12,364.22L 188.77,365.66L 190.43,364.94L 192.08,366.38L 193.74,367.10L 195.39,369.25L 197.04,369.25L 198.70,369.97L 200.35,369.97L 202.01,368.53L 203.66,368.53L 205.32,369.25L 206.97,369.97L 208.62,369.97L 210.28,370.69L 211.93,369.97L 213.59,372.84L 215.24,372.84L 216.90,373.56L 218.55,372.84L 220.20,372.84L 221.86,372.84L 223.51,373.56L 225.17,373.56L 226.82,373.56L 228.48,373.56L 230.13,374.28L 231.78,374.28L 233.44,373.56L 235.09,372.13L 236.75,372.13L 238.40,372.13L 240.06,372.13L 241.71,370.69L 243.36,370.69L 245.02,371.41L 246.67,372.84L 248.33,372.13L 249.98,372.84L 251.64,372.13L 253.29,372.84L 254.94,372.84L 256.60,372.84L 258.25,372.13L 259.91,371.41L 261.56,371.41L 263.22,372.13L 264.87,372.13L 266.52,372.13L 268.18,372.13L 269.83,372.84L 271.49,373.56L 273.14,373.56L 274.80,373.56L 276.45,374.28L 278.10,374.28L 279.76,374.28L 281.41,373.56L 283.07,373.56L 284.72,372.13L 286.38,372.13L 288.03,371.41L 289.68,371.41L 291.34,371.41L 292.99,372.13L 294.65,372.84L 296.30,374.28L 297.96,374.28L 299.61,375.00L 301.26,375.00L 302.92,375.00L 304.57,374.28L 306.23,374.28L 307.88,374.28L 309.54,374.28L 311.19,374.28L 312.84,374.28L 314.50,374.28L 316.15,374.28L 317.81,371.41L 319.46,369.97L 321.12,369.25L 322.77,368.53L 324.42,367.81L 326.08,362.07L 327.73,359.91L 329.39,360.63L 331.04,361.35L 332.70,355.60L 334.35,353.44L 336.00,350.57L 337.66,354.16L 339.31,354.88L 340.97,353.44L 342.62,346.98L 344.28,352.01L 345.93,346.98L 347.58,344.10L 349.24,343.39L 350.89,334.05L 352.55,323.99L 354.20,321.83L 355.86,304.59L 357.51,297.40L 359.16,285.91L 360.82,275.13L 362.47,271.54L 364.13,262.91L 365.78,250.70L 367.43,257.17L 369.09,257.88L 370.74,255.73L 372.40,258.60L 374.05,253.57L 375.71,257.17L 377.36,253.57L 379.01,244.23L 380.67,234.89L 382.32,239.92L 383.98,229.86L 385.63,224.11L 387.29,217.65L 388.94,214.06L 390.59,193.94L 392.25,188.19L 393.90,177.41L 395.56,175.26L 397.21,161.60L 398.87,147.23L 400.52,144.36L 402.17,162.32L 403.83,155.14L 405.48,155.14L 407.14,147.23L 408.79,156.57L 410.45,157.29L 412.10,145.80L 413.75,128.55L 415.41,119.93L 417.06,108.44L 418.72,104.84L 420.37,81.13L 422.03,76.82L 423.68,73.95L 425.33,62.45L 426.99,54.55L 428.64,44.49L 430.30,40.90L 431.95,33.71L 433.61,12.87L 435.26,10.00L 436.91,16.47L 438.57,29.40L 440.22,47.36L 441.88,55.98L 443.53,77.54L 445.19,113.46L 446.84,127.12L 448.49,146.52L 450.15,163.04L 451.80,158.73L 453.46,158.73L 455.11,163.76L 456.77,155.14L 458.42,129.99L 460.07,119.21L 461.73,122.09" id="New cases" class="line" stroke-width="1" stroke-linecap="round"><title>New cases</title></path>
	<circle cx="25.00" cy="375.00" data-y="0.00" data-x="1582761600" r="1" fill="white"><title>2020-02-27: 0</title></circle>
	<circle cx="26.65" cy="375.00" data-y="0.00" data-x="1582848000" r="1" fill="white"><title>2020-02-28: 0</title></circle>
	<circle cx="28.31" cy="375.00" data-y="0.00" data-x="1582934400" r="1" fill="white"><title>2020-02-29: 0</title></circle>
	<circle cx="29.96" cy="375.00" data-y="0.00" data-x="1583020800" r="1" fill="white"><title>2020-03-01: 0</title></circle>
	<circle cx="31.62" cy="375.00" data-y="0.00" data-x="1583107200" r="1" fill="white"><title>2020-03-02: 0</title></circle>
	<circle cx="33.27" cy="375.00" data-y="0.00" data-x="1583193600" r="1" fill="white"><title>2020-03-03: 0</title></circle>
	<circle cx="34.93" cy="375.00" data-y="0.00" data-x="1583280000" r="1" fill="white"><title>2020-03-04: 0</title></circle>
	<circle cx="36.58" cy="375.00" data-y="0.00" data-x="1583366400" r="1" fill="white"><title>2020-03-05: 0</title></circle>
	<circle cx="38.23" cy="375.00" data-y="0.00" data-x="1583452800" r="1" fill="white"><title>2020-03-06: 0</title></circle>
	<circle cx="39.89" cy="375.00" data-y="0.00" data-x="1583539200" r="1" fill="white"><title>2020-03-07: 0</title></circle>
	<circle cx="41.54" cy="375.00" data-y="0.00" data-x="1583625600" r="1" fill="white"><title>2020-03-08: 0</title></circle>
	<circle cx="43.20" cy="375.00" data-y="0.00" data-x="1583712000" r="1" fill="white"><title>2020-03-09: 0</title></circle>
	<circle cx="44.85" cy="374.28" data-y="0.10" data-x="1583798400" r="1" fill="white"><title>2020-03-10: 0</title></circle>
	<circle cx="46.51" cy="374.28" data-y="0.10" data-x="1583884800" r="1" fill="white"><title>2020-03-11: 0</title></circle>
	<circle cx="48.16" cy="374.28" data-y="0.10" data-x="1583971200" r="1" fill="white"><title>2020-03-12: 0</title></circle>
	<circle cx="49.81" cy="372.84" data-y="0.30" data-x="1584057600" r="1" fill="white"><title>2020-03-13: 0</title></circle>
	<circle cx="51.47" cy="372.84" data-y="0.30" data-x="1584144000" r="1" fill="white"><title>2020-03-14: 0</title></circle>
	<circle cx="53.12" cy="372.84" data-y="0.30" data-x="1584230400" r="1" fill="white"><title>2020-03-15: 0</title></circle>
	<circle cx="54.78" cy="372.84" data-y="0.30" data-x="1584316800" r="1" fill="white"><title>2020-03-16: 0</title></circle>
	<circle cx="56.43" cy="370.69" data-y="0.59" data-x="1584403200" r="1" fill="white"><title>2020-03-17: 1</title></circle>
	<circle cx="58.09" cy="367.81" data-y="0.99" data-x="1584489600" r="1" fill="white"><title>2020-03-18: 1</title></circle>
	<circle cx="59.74" cy="366.38" data-y="1.18" data-x="1584576000" r="1" fill="white"><title>2020-03-19: 1</title></circle>
	<circle cx="61.39" cy="364.22" data-y="1.48" data-x="1584662400" r="1" fill="white"><title>2020-03-20: 1</title></circle>
	<circle cx="63.05" cy="358.47" data-y="2.27" data-x="1584748800" r="1" fill="white"><title>2020-03-21: 2</title></circle>
	<circle cx="64.70" cy="354.16" data-y="2.86" data-x="1584835200" r="1" fill="white"><title>2020-03-22: 3</title></circle>
	<circle cx="66.36" cy="352.01" data-y="3.16" data-x="1584921600" r="1" fill="white"><title>2020-03-23: 3</title></circle>
	<circle cx="68.01" cy="351.29" data-y="3.25" data-x="1585008000" r="1" fill="white"><title>2020-03-24: 3</title></circle>
	<circle cx="69.67" cy="351.29" data-y="3.25" data-x="1585094400" r="1" fill="white"><title>2020-03-25: 3</title></circle>
	<circle cx="71.32" cy="349.13" data-y="3.55" data-x="1585180800" r="1" fill="white"><title>2020-03-26: 4</title></circle>
	<circle cx="72.97" cy="349.13" data-y="3.55" data-x="1585267200" r="1" fill="white"><title>2020-03-27: 4</title></circle>
	<circle cx="74.63" cy="347.70" data-y="3.75" data-x="1585353600" r="1" fill="white"><title>2020-03-28: 4</title></circle>
	<circle cx="76.28" cy="340.51" data-y="4.73" data-x="1585440000" r="1" fill="white"><title>2020-03-29: 5</title></circle>
	<circle cx="77.94" cy="329.02" data-y="6.31" data-x="1585526400" r="1" fill="white"><title>2020-03-30: 6</title></circle>
	<circle cx="79.59" cy="320.39" data-y="7.49" data-x="1585612800" r="1" fill="white"><title>2020-03-31: 7</title></circle>
	<circle cx="81.25" cy="315.36" data-y="8.18" data-x="1585699200" r="1" fill="white"><title>2020-04-01: 8</title></circle>
	<circle cx="82.90" cy="310.33" data-y="8.87" data-x="1585785600" r="1" fill="white"><title>2020-04-02: 9</title></circle>
	<circle cx="84.55" cy="306.74" data-y="9.37" data-x="1585872000" r="1" fill="white"><title>2020-04-03: 9</title></circle>
	<circle cx="86.21" cy="298.12" data-y="10.55" data-x="1585958400" r="1" fill="white"><title>2020-04-04: 11</title></circle>
	<circle cx="87.86" cy="298.84" data-y="10.45" data-x="1586044800" r="1" fill="white"><title>2020-04-05: 10</title></circle>
	<circle cx="89.52" cy="300.99" data-y="10.16" data-x="1586131200" r="1" fill="white"><title>2020-04-06: 10</title></circle>
	<circle cx="91.17" cy="308.18" data-y="9.17" data-x="1586217600" r="1" fill="white"><title>2020-04-07: 9</title></circle>
	<circle cx="92.83" cy="306.74" data-y="9.37" data-x="1586304000" r="1" fill="white"><title>2020-04-08: 9</title></circle>
	<circle cx="94.48" cy="303.15" data-y="9.86" data-x="1586390400" r="1" fill="white"><title>2020-04-09: 10</title></circle>
	<circle cx="96.13" cy="303.87" data-y="9.76" data-x="1586476800" r="1" fill="white"><title>2020-04-10: 10</title></circle>
	<circle cx="97.79" cy="304.59" data-y="9.66" data-x="1586563200" r="1" fill="white"><title>2020-04-11: 10</title></circle>
	<circle cx="99.44" cy="301.71" data-y="10.06" data-x="1586649600" r="1" fill="white"><title>2020-04-12: 10</title></circle>
	<circle cx="101.10" cy="304.59" data-y="9.66" data-x="1586736000" r="1" fill="white"><title>2020-04-13: 10</title></circle>
	<circle cx="102.75" cy="298.84" data-y="10.45" data-x="1586822400" r="1" fill="white"><title>2020-04-14: 10</title></circle>
	<circle cx="104.41" cy="305.31" data-y="9.56" data-x="1586908800" r="1" fill="white"><title>2020-04-15: 10</title></circle>
	<circle cx="106.06" cy="316.08" data-y="8.09" data-x="1586995200" r="1" fill="white"><title>2020-04-16: 8</title></circle>
	<circle cx="107.71" cy="316.80" data-y="7.99" data-x="1587081600" r="1" fill="white"><title>2020-04-17: 8</title></circle>
	<circle cx="109.37" cy="319.68" data-y="7.59" data-x="1587168000" r="1" fill="white"><title>2020-04-18: 8</title></circle>
	<circle cx="111.02" cy="317.52" data-y="7.89" data-x="1587254400" r="1" fill="white"><title>2020-04-19: 8</title></circle>
	<circle cx="112.68" cy="323.27" data-y="7.10" data-x="1587340800" r="1" fill="white"><title>2020-04-20: 7</title></circle>
	<circle cx="114.33" cy="333.33" data-y="5.72" data-x="1587427200" r="1" fill="white"><title>2020-04-21: 6</title></circle>
	<circle cx="115.99" cy="329.02" data-y="6.31" data-x="1587513600" r="1" fill="white"><title>2020-04-22: 6</title></circle>
	<circle cx="117.64" cy="323.99" data-y="7.00" data-x="1587600000" r="1" fill="white"><title>2020-04-23: 7</title></circle>
	<circle cx="119.29" cy="323.27" data-y="7.10" data-x="1587686400" r="1" fill="white"><title>2020-04-24: 7</title></circle>
	<circle cx="120.95" cy="334.76" data-y="5.52" data-x="1587772800" r="1" fill="white"><title>2020-04-25: 6</title></circle>
	<circle cx="122.60" cy="345.54" data-y="4.04" data-x="1587859200" r="1" fill="white"><title>2020-04-26: 4</title></circle>
	<circle cx="124.26" cy="343.39" data-y="4.34" data-x="1587945600" r="1" fill="white"><title>2020-04-27: 4</title></circle>
	<circle cx="125.91" cy="339.79" data-y="4.83" data-x="1588032000" r="1" fill="white"><title>2020-04-28: 5</title></circle>
	<circle cx="127.57" cy="341.95" data-y="4.54" data-x="1588118400" r="1" fill="white"><title>2020-04-29: 5</title></circle>
	<circle cx="129.22" cy="347.70" data-y="3.75" data-x="1588204800" r="1" fill="white"><title>2020-04-30: 4</title></circle>
	<circle cx="130.87" cy="352.01" data-y="3.16" data-x="1588291200" r="1" fill="white"><title>2020-05-01: 3</title></circle>
	<circle cx="132.53" cy="349.13" data-y="3.55" data-x="1588377600" r="1" fill="white"><title>2020-05-02: 4</title></circle>
	<circle cx="134.18" cy="352.01" data-y="3.16" data-x="1588464000" r="1" fill="white"><title>2020-05-03: 3</title></circle>
	<circle cx="135.84" cy="352.73" data-y="3.06" data-x="1588550400" r="1" fill="white"><title>2020-05-04: 3</title></circle>
	<circle cx="137.49" cy="354.88" data-y="2.76" data-x="1588636800" r="1" fill="white"><title>2020-05-05: 3</title></circle>
	<circle cx="139.14" cy="354.88" data-y="2.76" data-x="1588723200" r="1" fill="white"><title>2020-05-06: 3</title></circle>
	<circle cx="140.80" cy="352.01" data-y="3.16" data-x="1588809600" r="1" fill="white"><title>2020-05-07: 3</title></circle>
	<circle cx="142.45" cy="347.70" data-y="3.75" data-x="1588896000" r="1" fill="white"><title>2020-05-08: 4</title></circle>
	<circle cx="144.11" cy="348.42" data-y="3.65" data-x="1588982400" r="1" fill="white"><title>2020-05-09: 4</title></circle>
	<circle cx="145.76" cy="349.13" data-y="3.55" data-x="1589068800" r="1" fill="white"><title>2020-05-10: 4</title></circle>
	<circle cx="147.42" cy="349.85" data-y="3.45" data-x="1589155200" r="1" fill="white"><title>2020-05-11: 3</title></circle>
	<circle cx="149.07" cy="350.57" data-y="3.35" data-x="1589241600" r="1" fill="white"><title>2020-05-12: 3</title></circle>
	<circle cx="150.72" cy="353.44" data-y="2.96" data-x="1589328000" r="1" fill="white"><title>2020-05-13: 3</title></circle>
	<circle cx="152.38" cy="350.57" data-y="3.35" data-x="1589414400" r="1" fill="white"><title>2020-05-14: 3</title></circle>
	<circle cx="154.03" cy="354.88" data-y="2.76" data-x="1589500800" r="1" fill="white"><title>2020-05-15: 3</title></circle>
	<circle cx="155.69" cy="351.29" data-y="3.25" data-x="1589587200" r="1" fill="white"><title>2020-05-16: 3</title></circle>
	<circle cx="157.34" cy="352.01" data-y="3.16" data-x="1589673600" r="1" fill="white"><title>2020-05-17: 3</title></circle>
	<circle cx="159.00" cy="354.16" data-y="2.86" data-x="1589760000" r="1" fill="white"><title>2020-05-18: 3</title></circle>
	<circle cx="160.65" cy="352.73" data-y="3.06" data-x="1589846400" r="1" fill="white"><title>2020-05-19: 3</title></circle>
	<circle cx="162.30" cy="354.16" data-y="2.86" data-x="1589932800" r="1" fill="white"><title>2020-05-20: 3</title></circle>
	<circle cx="163.96" cy="360.63" data-y="1.97" data-x="1590019200" r="1" fill="white"><title>2020-05-21: 2</title></circle>
	<circle cx="165.61" cy="362.07" data-y="1.77" data-x="1590105600" r="1" fill="white"><title>2020-05-22: 2</title></circle>
	<circle cx="167.27" cy="366.38" data-y="1.18" data-x="1590192000" r="1" fill="white"><title>2020-05-23: 1</title></circle>
	<circle cx="168.92" cy="365.66" data-y="1.28" data-x="1590278400" r="1" fill="white"><title>2020-05-24: 1</title></circle>
	<circle cx="170.58" cy="365.66" data-y="1.28" data-x="1590364800" r="1" fill="white"><title>2020-05-25: 1</title></circle>
	<circle cx="172.23" cy="367.81" data-y="0.99" data-x="1590451200" r="1" fill="white"><title>2020-05-26: 1</title></circle>
	<circle cx="173.88" cy="368.53" data-y="0.89" data-x="1590537600" r="1" fill="white"><title>2020-05-27: 1</title></circle>
	<circle cx="175.54" cy="367.81" data-y="0.99" data-x="1590624000" r="1" fill="white"><title>2020-05-28: 1</title></circle>
	<circle cx="177.19" cy="367.10" data-y="1.08" data-x="1590710400" r="1" fill="white"><title>2020-05-29: 1</title></circle>
	<circle cx="178.85" cy="368.53" data-y="0.89" data-x="1590796800" r="1" fill="white"><title>2020-05-30: 1</title></circle>
	<circle cx="180.50" cy="367.81" data-y="0.99" data-x="1590883200" r="1" fill="white"><title>2020-05-31: 1</title></circle>
	<circle cx="182.16" cy="367.10" data-y="1.08" data-x="1590969600" r="1" fill="white"><title>2020-06-01: 1</title></circle>
	<circle cx="183.81" cy="364.94" data-y="1.38" data-x="1591056000" r="1" fill="white"><title>2020-06-02: 1</title></circle>
	<circle cx="185.46" cy="364.94" data-y="1.38" data-x="1591142400" r="1" fill="white"><title>2020-06-03: 1</title></circle>
	<circle cx="187.12" cy="364.22" data-y="1.48" data-x="1591228800" r="1" fill="white"><title>2020-06-04: 1</title></circle>
	<circle cx="188.77" cy="365.66" data-y="1.28" data-x="1591315200" r="1" fill="white"><title>2020-06-05: 1</title></circle>
	<circle cx="190.43" cy="364.94" data-y="1.38" data-x="1591401600" r="1" fill="white"><title>2020-06-06: 1</title></circle>
	<circle cx="192.08" cy="366.38" data-y="1.18" data-x="1591488000" r="1" fill="white"><title>2020-06-07: 1</title></circle>
	<circle cx="193.74" cy="367.10" data-y="1.08" data-x="1591574400" r="1" fill="white"><title>2020-06-08: 1</title></circle>
	<circle cx="195.39" cy="369.25" data-y="0.79" data-x="1591660800" r="1" fill="white"><title>2020-06-09: 1</title></circle>
	<circle cx="197.04" cy="369.25" data-y="0.79" data-x="1591747200" r="1" fill="white"><title>2020-06-10: 1</title></circle>
	<circle cx="198.70" cy="369.97" data-y="0.69" data-x="1591833600" r="1" fill="white"><title>2020-06-11: 1</title></circle>
	<circle cx="200.35" cy="369.97" data-y="0.69" data-x="1591920000" r="1" fill="white"><title>2020-06-12: 1</title></circle>
	<circle cx="202.01" cy="368.53" data-y="0.89" data-x="1592006400" r="1" fill="white"><title>2020-06-13: 1</title></circle>
	<circle cx="203.66" cy="368.53" data-y="0.89" data-x="1592092800" r="1" fill="white"><title>2020-06-14: 1</title></circle>
	<circle cx="205.32" cy="369.25" data-y="0.79" data-x="1592179200" r="1" fill="white"><title>2020-06-15: 1</title></circle>
	<circle cx="206.97" cy="369.97" data-y="0.69" data-x="1592265600" r="1" fill="white"><title>2020-06-16: 1</title></circle>
	<circle cx="208.62" cy="369.97" data-y="0.69" data-x="1592352000" r="1" fill="white"><title>2020-06-17: 1</title></circle>
	<circle cx="210.28" cy="370.69" data-y="0.59" data-x="1592438400" r="1" fill="white"><title>2020-06-18: 1</title></circle>
	<circle cx="211.93" cy="369.97" data-y="0.69" data-x="1592524800" r="1" fill="white"><title>2020-06-19: 1</title></circle>
	<circle cx="213.59" cy="372.84" data-y="0.30" data-x="1592611200" r="1" fill="white"><title>2020-06-20: 0</title></circle>
	<circle cx="215.24" cy="372.84" data-y="0.30" data-x="1592697600" r="1" fill="white"><title>2020-06-21: 0</title></circle>
	<circle cx="216.90" cy="373.56" data-y="0.20" data-x="1592784000" r="1" fill="white"><title>2020-06-22: 0</title></circle>
	<circle cx="218.55" cy="372.84" data-y="0.30" data-x="1592870400" r="1" fill="white"><title>2020-06-23: 0</title></circle>
	<circle cx="220.20" cy="372.84" data-y="0.30" data-x="1592956800" r="1" fill="white"><title>2020-06-24: 0</title></circle>
	<circle cx="221.86" cy="372.84" data-y="0.30" data-x="1593043200" r="1" fill="white"><title>2020-06-25: 0</title></circle>
	<circle cx="223.51" cy="373.56" data-y="0.20" data-x="1593129600" r="1" fill="white"><title>2020-06-26: 0</title></circle>
	<circle cx="225.17" cy="373.56" data-y="0.20" data-x="1593216000" r="1" fill="white"><title>2020-06-27: 0</title></circle>
	<circle cx="226.82" cy="373.56" data-y="0.20" data-x="1593302400" r="1" fill="white"><title>2020-06-28: 0</title></circle>
	<circle cx="228.48" cy="373.56" data-y="0.20" data-x="1593388800" r="1" fill="white"><title>2020-06-29: 0</title></circle>
	<circle cx="230.13" cy="374.28" data-y="0.10" data-x="1593475200" r="1" fill="white"><title>2020-06-30: 0</title></circle>
	<circle cx="231.78" cy="374.28" data-y="0.10" data-x="1593561600" r="1" fill="white"><title>2020-07-01: 0</title></circle>
	<circle cx="233.44" cy="373.56" data-y="0.20" data-x="1593648000" r="1" fill="white"><title>2020-07-02: 0</title></circle>
	<circle cx="235.09" cy="372.13" data-y="0.39" data-x="1593734400" r="1" fill="white"><title>2020-07-03: 0</title></circle>
	<circle cx="236.75" cy="372.13" data-y="0.39" data-x="1593820800" r="1" fill="white"><title>2020-07-04: 0</title></circle>
	<circle cx="238.40" cy="372.13" data-y="0.39" data-x="1593907200" r="1" fill="white"><title>2020-07-05: 0</title></circle>
	<circle cx="240.06" cy="372.13" data-y="0.39" data-x="1593993600" r="1" fill="white"><title>2020-07-06: 0</title></circle>
	<circle cx="241.71" cy="370.69" data-y="0.59" data-x="1594080000" r="1" fill="white"><title>2020-07-07: 1</title></circle>
	<circle cx="243.36" cy="370.69" data-y="0.59" data-x="1594166400" r="1" fill="white"><title>2020-07-08: 1</title></circle>
	<circle cx="245.02" cy="371.41" data-y="0.49" data-x="1594252800" r="1" fill="white"><title>2020-07-09: 0</title></circle>
	<circle cx="246.67" cy="372.84" data-y="0.30" data-x="1594339200" r="1" fill="white"><title>2020-07-10: 0</title></circle>
	<circle cx="248.33" cy="372.13" data-y="0.39" data-x="1594425600" r="1" fill="white"><title>2020-07-11: 0</title></circle>
	<circle cx="249.98" cy="372.84" data-y="0.30" data-x="1594512000" r="1" fill="white"><title>2020-07-12: 0</title></circle>
	<circle cx="251.64" cy="372.13" data-y="0.39" data-x="1594598400" r="1" fill="white"><title>2020-07-13: 0</title></circle>
	<circle cx="253.29" cy="372.84" data-y="0.30" data-x="1594684800" r="1" fill="white"><title>2020-07-14: 0</title></circle>
	<circle cx="254.94" cy="372.84" data-y="0.30" data-x="1594771200" r="1" fill="white"><title>2020-07-15: 0</title></circle>
	<circle cx="256.60" cy="372.84" data-y="0.30" data-x="1594857600" r="1" fill="white"><title>2020-07-16: 0</title></circle>
	<circle cx="258.25" cy="372.13" data-y="0.39" data-x="1594944000" r="1" fill="white"><title>2020-07-17: 0</title></circle>
	<circle cx="259.91" cy="371.41" data-y="0.49" data-x="1595030400" r="1" fill="white"><title>2020-07-18: 0</title></circle>
	<circle cx="261.56" cy="371.41" data-y="0.49" data-x="1595116800" r="1" fill="white"><title>2020-07-19: 0</title></circle>
	<circle cx="263.22" cy="372.13" data-y="0.39" data-x="1595203200" r="1" fill="white"><title>2020-07-20: 0</title></circle>
	<circle cx="264.87" cy="372.13" data-y="0.39" data-x="1595289600" r="1" fill="white"><title>2020-07-21: 0</title></circle>
	<circle cx="266.52" cy="372.13" data-y="0.39" data-x="1595376000" r="1" fill="white"><title>2020-07-22: 0</title></circle>
	<circle cx="268.18" cy="372.13" data-y="0.39" data-x="1595462400" r="1" fill="white"><title>2020-07-23: 0</title></circle>
	<circle cx="269.83" cy="372.84" data-y="0.30" data-x="1595548800" r="1" fill="white"><title>2020-07-24: 0</title></circle>
	<circle cx="271.49" cy="373.56" data-y="0.20" data-x="1595635200" r="1" fill="white"><title>2020-07-25: 0</title></circle>
	<circle cx="273.14" cy="373.56" data-y="0.20" data-x="1595721600" r="1" fill="white"><title>2020-07-26: 0</title></circle>
	<circle cx="274.80" cy="373.56" data-y="0.20" data-x="1595808000" r="1" fill="white"><title>2020-07-27: 0</title></circle>
	<circle cx="276.45" cy="374.28" data-y="0.10" data-x="1595894400" r="1" fill="white"><title>2020-07-28: 0</title></circle>
	<circle cx="278.10" cy="374.28" data-y="0.10" data-x="1595980800" r="1" fill="white"><title>2020-07-29: 0</title></circle>
	<circle cx="279.76" cy="374.28" data-y="0.10" data-x="1596067200" r="1" fill="white"><title>2020-07-30: 0</title></circle>
	<circle cx="281.41" cy="373.56" data-y="0.20" data-x="1596153600" r="1" fill="white"><title>2020-07-31: 0</title></circle>
	<circle cx="283.07" cy="373.56" data-y="0.20" data-x="1596240000" r="1" fill="white"><title>2020-08-01: 0</title></circle>
	<circle cx="284.72" cy="372.13" data-y="0.39" data-x="1596326400" r="1" fill="white"><title>2020-08-02: 0</title></circle>
	<circle cx="286.38" cy="372.13" data-y="0.39" data-x="1596412800" r="1" fill="white"><title>2020-08-03: 0</title></circle>
	<circle cx="288.03" cy="371.41" data-y="0.49" data-x="1596499200" r="1" fill="white"><title>2020-08-04: 0</title></circle>
	<circle cx="289.68" cy="371.41" data-y="0.49" data-x="1596585600" r="1" fill="white"><title>2020-08-05: 0</title></circle>
	<circle cx="291.34" cy="371.41" data-y="0.49" data-x="1596672000" r="1" fill="white"><title>2020-08-06: 0</title></circle>
	<circle cx="292.99" cy="372.13" data-y="0.39" data-x="1596758400" r="1" fill="white"><title>2020-08-07: 0</title></circle>
	<circle cx="294.65" cy="372.84" data-y="0.30" data-x="1596844800" r="1" fill="white"><title>2020-08-08: 0</title></circle>
	<circle cx="296.30" cy="374.28" data-y="0.10" data-x="1596931200" r="1" fill="white"><title>2020-08-09: 0</title></circle>
	<circle cx="297.96" cy="374.28" data-y="0.10" data-x="1597017600" r="1" fill="white"><title>2020-08-10: 0</title></circle>
	<circle cx="299.61" cy="375.00" data-y="0.00" data-x="1597104000" r="1" fill="white"><title>2020-08-11: 0</title></circle>
	<circle cx="301.26" cy="375.00" data-y="0.00" data-x="1597190400" r="1" fill="white"><title>2020-08-12: 0</title></circle>
	<circle cx="302.92" cy="375.00" data-y="0.00" data-x="1597276800" r="1" fill="white"><title>2020-08-13: 0</title></circle>
	<circle cx="304.57" cy="374.28" data-y="0.10" data-x="1597363200" r="1" fill="white"><title>2020-08-14: 0</title></circle>
	<circle cx="306.23" cy="374.28" data-y="0.10" data-x="1597449600" r="1" fill="white"><title>2020-08-15: 0</title></circle>
	<circle cx="307.88" cy="374.28" data-y="0.10" data-x="1597536000" r="1" fill="white"><title>2020-08-16: 0</title></circle>
	<circle cx="309.54" cy="374.28" data-y="0.10" data-x="1597622400" r="1" fill="white"><title>2020-08-17: 0</title></circle>
	<circle cx="311.19" cy="374.28" data-y="0.10" data-x="1597708800" r="1" fill="white"><title>2020-08-18: 0</title></circle>
	<circle cx="312.84" cy="374.28" data-y="0.10" data-x="1597795200" r="1" fill="white"><title>2020-08-19: 0</title></circle>
	<circle cx="314.50" cy="374.28" data-y="0.10" data-x="1597881600" r="1" fill="white"><title>2020-08-20: 0</title></circle>
	<circle cx="316.15" cy="374.28" data-y="0.10" data-x="1597968000" r="1" fill="white"><title>2020-08-21: 0</title></circle>
	<circle cx="317.81" cy="371.41" data-y="0.49" data-x="1598054400" r="1" fill="white"><title>2020-08-22: 0</title></circle>
	<circle cx="319.46" cy="369.97" data-y="0.69" data-x="1598140800" r="1" fill="white"><title>2020-08-23: 1</title></circle>
	<circle cx="321.12" cy="369.25" data-y="0.79" data-x="1598227200" r="1" fill="white"><title>2020-08-24: 1</title></circle>
	<circle cx="322.77" cy="368.53" data-y="0.89" data-x="1598313600" r="1" fill="white"><title>2020-08-25: 1</title></circle>
	<circle cx="324.42" cy="367.81" data-y="0.99" data-x="1598400000" r="1" fill="white"><title>2020-08-26: 1</title></circle>
	<circle cx="326.08" cy="362.07" data-y="1.77" data-x="1598486400" r="1" fill="white"><title>2020-08-27: 2</title></circle>
	<circle cx="327.73" cy="359.91" data-y="2.07" data-x="1598572800" r="1" fill="white"><title>2020-08-28: 2</title></circle>
	<circle cx="329.39" cy="360.63" data-y="1.97" data-x="1598659200" r="1" fill="white"><title>2020-08-29: 2</title></circle>
	<circle cx="331.04" cy="361.35" data-y="1.87" data-x="1598745600" r="1" fill="white"><title>2020-08-30: 2</title></circle>
	<circle cx="332.70" cy="355.60" data-y="2.66" data-x="1598832000" r="1" fill="white"><title>2020-08-31: 3</title></circle>
	<circle cx="334.35" cy="353.44" data-y="2.96" data-x="1598918400" r="1" fill="white"><title>2020-09-01: 3</title></circle>
	<circle cx="336.00" cy="350.57" data-y="3.35" data-x="1599004800" r="1" fill="white"><title>2020-09-02: 3</title></circle>
	<circle cx="337.66" cy="354.16" data-y="2.86" data-x="1599091200" r="1" fill="white"><title>2020-09-03: 3</title></circle>
	<circle cx="339.31" cy="354.88" data-y="2.76" data-x="1599177600" r="1" fill="white"><title>2020-09-04: 3</title></circle>
	<circle cx="340.97" cy="353.44" data-y="2.96" data-x="1599264000" r="1" fill="white"><title>2020-09-05: 3</title></circle>
	<circle cx="342.62" cy="346.98" data-y="3.85" data-x="1599350400" r="1" fill="white"><title>2020-09-06: 4</title></circle>
	<circle cx="344.28" cy="352.01" data-y="3.16" data-x="1599436800" r="1" fill="white"><title>2020-09-07: 3</title></circle>
	<circle cx="345.93" cy="346.98" data-y="3.85" data-x="1599523200" r="1" fill="white"><title>2020-09-08: 4</title></circle>
	<circle cx="347.58" cy="344.10" data-y="4.24" data-x="1599609600" r="1" fill="white"><title>2020-09-09: 4</title></circle>
	<circle cx="349.24" cy="343.39" data-y="4.34" data-x="1599696000" r="1" fill="white"><title>2020-09-10: 4</title></circle>
	<circle cx="350.89" cy="334.05" data-y="5.62" data-x="1599782400" r="1" fill="white"><title>2020-09-11: 6</title></circle>
	<circle cx="352.55" cy="323.99" data-y="7.00" data-x="1599868800" r="1" fill="white"><title>2020-09-12: 7</title></circle>
	<circle cx="354.20" cy="321.83" data-y="7.30" data-x="1599955200" r="1" fill="white"><title>2020-09-13: 7</title></circle>
	<circle cx="355.86" cy="304.59" data-y="9.66" data-x="1600041600" r="1" fill="white"><title>2020-09-14: 10</title></circle>
	<circle cx="357.51" cy="297.40" data-y="10.65" data-x="1600128000" r="1" fill="white"><title>2020-09-15: 11</title></circle>
	<circle cx="359.16" cy="285.91" data-y="12.23" data-x="1600214400" r="1" fill="white"><title>2020-09-16: 12</title></circle>
	<circle cx="360.82" cy="275.13" data-y="13.71" data-x="1600300800" r="1" fill="white"><title>2020-09-17: 14</title></circle>
	<circle cx="362.47" cy="271.54" data-y="14.20" data-x="1600387200" r="1" fill="white"><title>2020-09-18: 14</title></circle>
	<circle cx="364.13" cy="262.91" data-y="15.38" data-x="1600473600" r="1" fill="white"><title>2020-09-19: 15</title></circle>
	<circle cx="365.78" cy="250.70" data-y="17.06" data-x="1600560000" r="1" fill="white"><title>2020-09-20: 17</title></circle>
	<circle cx="367.43" cy="257.17" data-y="16.17" data-x="1600646400" r="1" fill="white"><title>2020-09-21: 16</title></circle>
	<circle cx="369.09" cy="257.88" data-y="16.07" data-x="1600732800" r="1" fill="white"><title>2020-09-22: 16</title></circle>
	<circle cx="370.74" cy="255.73" data-y="16.37" data-x="1600819200" r="1" fill="white"><title>2020-09-23: 16</title></circle>
	<circle cx="372.40" cy="258.60" data-y="15.97" data-x="1600905600" r="1" fill="white"><title>2020-09-24: 16</title></circle>
	<circle cx="374.05" cy="253.57" data-y="16.66" data-x="1600992000" r="1" fill="white"><title>2020-09-25: 17</title></circle>
	<circle cx="375.71" cy="257.17" data-y="16.17" data-x="1601078400" r="1" fill="white"><title>2020-09-26: 16</title></circle>
	<circle cx="377.36" cy="253.57" data-y="16.66" data-x="1601164800" r="1" fill="white"><title>2020-09-27: 17</title></circle>
	<circle cx="379.01" cy="244.23" data-y="17.95" data-x="1601251200" r="1" fill="white"><title>2020-09-28: 18</title></circle>
	<circle cx="380.67" cy="234.89" data-y="19.23" data-x="1601337600" r="1" fill="white"><title>2020-09-29: 19</title></circle>
	<circle cx="382.32" cy="239.92" data-y="18.54" data-x="1601424000" r="1" fill="white"><title>2020-09-30: 19</title></circle>
	<circle cx="383.98" cy="229.86" data-y="19.92" data-x="1601510400" r="1" fill="white"><title>2020-10-01: 20</title></circle>
	<circle cx="385.63" cy="224.11" data-y="20.71" data-x="1601596800" r="1" fill="white"><title>2020-10-02: 21</title></circle>
	<circle cx="387.29" cy="217.65" data-y="21.59" data-x="1601683200" r="1" fill="white"><title>2020-10-03: 22</title></circle>
	<circle cx="388.94" cy="214.06" data-y="22.09" data-x="1601769600" r="1" fill="white"><title>2020-10-04: 22</title></circle>
	<circle cx="390.59" cy="193.94" data-y="24.85" data-x="1601856000" r="1" fill="white"><title>2020-10-05: 25</title></circle>
	<circle cx="392.25" cy="188.19" data-y="25.64" data-x="1601942400" r="1" fill="white"><title>2020-10-06: 26</title></circle>
	<circle cx="393.90" cy="177.41" data-y="27.12" data-x="1602028800" r="1" fill="white"><title>2020-10-07: 27</title></circle>
	<circle cx="395.56" cy="175.26" data-y="27.41" data-x="1602115200" r="1" fill="white"><title>2020-10-08: 27</title></circle>
	<circle cx="397.21" cy="161.60" data-y="29.29" data-x="1602201600" r="1" fill="white"><title>2020-10-09: 29</title></circle>
	<circle cx="398.87" cy="147.23" data-y="31.26" data-x="1602288000" r="1" fill="white"><title>2020-10-10: 31</title></circle>
	<circle cx="400.52" cy="144.36" data-y="31.65" data-x="1602374400" r="1" fill="white"><title>2020-10-11: 32</title></circle>
	<circle cx="402.17" cy="162.32" data-y="29.19" data-x="1602460800" r="1" fill="white"><title>2020-10-12: 29</title></circle>
	<circle cx="403.83" cy="155.14" data-y="30.17" data-x="1602547200" r="1" fill="white"><title>2020-10-13: 30</title></circle>
	<circle cx="405.48" cy="155.14" data-y="30.17" data-x="1602633600" r="1" fill="white"><title>2020-10-14: 30</title></circle>
	<circle cx="407.14" cy="147.23" data-y="31.26" data-x="1602720000" r="1" fill="white"><title>2020-10-15: 31</title></circle>
	<circle cx="408.79" cy="156.57" data-y="29.98" data-x="1602806400" r="1" fill="white"><title>2020-10-16: 30</title></circle>
	<circle cx="410.45" cy="157.29" data-y="29.88" data-x="1602892800" r="1" fill="white"><title>2020-10-17: 30</title></circle>
	<circle cx="412.10" cy="145.80" data-y="31.46" data-x="1602979200" r="1" fill="white"><title>2020-10-18: 31</title></circle>
	<circle cx="413.75" cy="128.55" data-y="33.82" data-x="1603065600" r="1" fill="white"><title>2020-10-19: 34</title></circle>
	<circle cx="415.41" cy="119.93" data-y="35.01" data-x="1603152000" r="1" fill="white"><title>2020-10-20: 35</title></circle>
	<circle cx="417.06" cy="108.44" data-y="36.58" data-x="1603238400" r="1" fill="white"><title>2020-10-21: 37</title></circle>
	<circle cx="418.72" cy="104.84" data-y="37.08" data-x="1603324800" r="1" fill="white"><title>2020-10-22: 37</title></circle>
	<circle cx="420.37" cy="81.13" data-y="40.33" data-x="1603411200" r="1" fill="white"><title>2020-10-23: 40</title></circle>
	<circle cx="422.03" cy="76.82" data-y="40.92" data-x="1603497600" r="1" fill="white"><title>2020-10-24: 41</title></circle>
	<circle cx="423.68" cy="73.95" data-y="41.32" data-x="1603584000" r="1" fill="white"><title>2020-10-25: 41</title></circle>
	<circle cx="425.33" cy="62.45" data-y="42.89" data-x="1603670400" r="1" fill="white"><title>2020-10-26: 43</title></circle>
	<circle cx="426.99" cy="54.55" data-y="43.98" data-x="1603756800" r="1" fill="white"><title>2020-10-27: 44</title></circle>
	<circle cx="428.64" cy="44.49" data-y="45.36" data-x="1603843200" r="1" fill="white"><title>2020-10-28: 45</title></circle>
	<circle cx="430.30" cy="40.90" data-y="45.85" data-x="1603929600" r="1" fill="white"><title>2020-10-29: 46</title></circle>
	<circle cx="431.95" cy="33.71" data-y="46.84" data-x="1604016000" r="1" fill="white"><title>2020-10-30: 47</title></circle>
	<circle cx="433.61" cy="12.87" data-y="49.70" data-x="1604102400" r="1" fill="white"><title>2020-10-31: 50</title></circle>
	<circle cx="435.26" cy="10.00" data-y="50.09" data-x="1604188800" r="1" fill="white"><title>2020-11-01: 50</title></circle>
	<circle cx="436.91" cy="16.47" data-y="49.20" data-x="1604275200" r="1" fill="white"><title>2020-11-02: 49</title></circle>
	<circle cx="438.57" cy="29.40" data-y="47.43" data-x="1604361600" r="1" fill="white"><title>2020-11-03: 47</title></circle>
	<circle cx="440.22" cy="47.36" data-y="44.96" data-x="1604448000" r="1" fill="white"><title>2020-11-04: 45</title></circle>
	<circle cx="441.88" cy="55.98" data-y="43.78" data-x="1604534400" r="1" fill="white"><title>2020-11-05: 44</title></circle>
	<circle cx="443.53" cy="77.54" data-y="40.82" data-x="1604620800" r="1" fill="white"><title>2020-11-06: 41</title></circle>
	<circle cx="445.19" cy="113.46" data-y="35.89" data-x="1604707200" r="1" fill="white"><title>2020-11-07: 36</title></circle>
	<circle cx="446.84" cy="127.12" data-y="34.02" data-x="1604793600" r="1" fill="white"><title>2020-11-08: 34</title></circle>
	<circle cx="448.49" cy="146.52" data-y="31.36" data-x="1604880000" r="1" fill="white"><title>2020-11-09: 31</title></circle>
	<circle cx="450.15" cy="163.04" data-y="29.09" data-x="1604966400" r="1" fill="white"><title>2020-11-10: 29</title></circle>
	<circle cx="451.80" cy="158.73" data-y="29.68" data-x="1605052800" r="1" fill="white"><title>2020-11-11: 30</title></circle>
	<circle cx="453.46" cy="158.73" data-y="29.68" data-x="1605139200" r="1" fill="white"><title>2020-11-12: 30</title></circle>
	<circle cx="455.11" cy="163.76" data-y="28.99" data-x="1605225600" r="1" fill="white"><title>2020-11-13: 29</title></circle>
	<circle cx="456.77" cy="155.14" data-y="30.17" data-x="1605312000" r="1" fill="white"><title>2020-11-14: 30</title></circle>
	<circle cx="458.42" cy="129.99" data-y="33.62" data-x="1605398400" r="1" fill="white"><title>2020-11-15: 34</title></circle>
	<circle cx="460.07" cy="119.21" data-y="35.10" data-x="1605484800" r="1" fill="white"><title>2020-11-16: 35</title></circle>
	<circle cx="461.73" cy="122.09" data-y="34.71" data-x="1605571200" r="1" fill="white"><title>2020-11-17: 35</title></circle>
</g>
<g data-series="recent-cases" class="data-series">
	<path d="M 461.73,122.09L 463.38,152.26L 465.04,181.72L 466.69,189.75L 468.35,204.00L 470.00,266.87" id="Recent cases" class="line" stroke-width="1" stroke-linecap="round" stroke-dasharray="4,6" stroke-dashoffset="4"><title>Recent cases</title></path>
	<circle cx="461.73" cy="122.09" data-y="34.71" data-x="1605571200" r="2.5" fill="white"><title>2020-11-17: 35</title></circle>
	<circle cx="463.38" cy="152.26" data-y="30.57" data-x="1605657600" r="2.5" fill="white"><title>2020-11-18: 31</title></circle>
	<circle cx="465.04" cy="181.72" data-y="26.53" data-x="1605744000" r="2.5" fill="white"><title>2020-11-19: 27</title></circle>
	<circle cx="466.69" cy="189.75" data-y="25.42" data-x="1605830400" r="2.5" fill="white"><title>2020-11-20: 25</title></circle>
	<circle cx="468.35" cy="204.00" data-y="23.47" data-x="1605916800" r="2.5" fill="white"><title>2020-11-21: 23</title></circle>
	<circle cx="470.00" cy="266.87" data-y="14.84" data-x="1606003200" r="2.5" fill="white"><title>2020-11-22: 15</title></circle>
</g>
</svg>
