<svg width="480" height="400" viewBox="0 0 480 400" xmlns="http://www.w3.org/2000/svg" style="overflow:display" preserveAspectRatio="xMinYMin meet" overflow="visible">
<defs>
	<style>
	.data-series path.line { fill-opacity: 0; stroke: black; }
	.data-series path.line.dotted { stroke-dasharray: 12 20 }
	.data-series circle { display: none; }
	.data-series:hover path.line, .data-series.on path.line { stroke-width: 1; }
	.data-series:hover circle, .data-series.on circle { display: inline; }
	.data-series circle:hover, .data-series circle.on { r: 1px!important; }
	.graph-grid { font-family: "Helvetica Neue",Helvetica,Arial,"Lucida Grande",sans-serif; }
	.graph-grid line { stroke: black; stroke-width: 1; stroke-linecap: round; }
	.graph-grid.graph-grid-x text { text-anchor: middle; dominant-baseline: hanging; transform: translateY(10px); }
	.graph-grid.graph-grid-y text { text-anchor: end; dominant-baseline: middle; transform: translateX(-10px); }
	</style>
</defs>
<g class="graph-grid graph-grid-y">
	<line x1="15.00" y1="375.00" x2="470.00" y2="375.00" data-left="15"></line>
	<text x="25" y="375" text-anchor="end">0</text>
	<text x="25" y="213.808402714932" text-anchor="end">20</text>
	<text x="25" y="52.6168054298642" text-anchor="end">40</text>
	<text style="text-anchor:middle;dominant-baseline:hanging;font-weight:bold;transform: translateY(192.5px) rotate(-90deg);"></text>
</g>
<g class="graph-grid graph-grid-x">
	<line class="tick" x1="21.04" y1="375.00" x2="21.04" y2="380.00"></line>
	<text x="21.0398230088496" y="375" text-anchor="middle">M</text>
	<line class="tick" x1="83.45" y1="375.00" x2="83.45" y2="380.00"></line>
	<text x="83.4513274336283" y="375" text-anchor="middle">A</text>
	<line class="tick" x1="143.85" y1="375.00" x2="143.85" y2="380.00"></line>
	<text x="143.849557522124" y="375" text-anchor="middle">M</text>
	<line class="tick" x1="206.26" y1="375.00" x2="206.26" y2="380.00"></line>
	<text x="206.261061946903" y="375" text-anchor="middle">J</text>
	<line class="tick" x1="266.66" y1="375.00" x2="266.66" y2="380.00"></line>
	<text x="266.659292035398" y="375" text-anchor="middle">J</text>
	<line class="tick" x1="329.07" y1="375.00" x2="329.07" y2="380.00"></line>
	<text x="329.070796460177" y="375" text-anchor="middle">A</text>
	<line class="tick" x1="391.48" y1="375.00" x2="391.48" y2="380.00"></line>
	<text x="391.482300884956" y="375" text-anchor="middle">S</text>
	<line class="tick" x1="451.88" y1="375.00" x2="451.88" y2="380.00"></line>
	<text x="451.880530973451" y="375" text-anchor="middle">O</text>
	<text style="text-anchor:middle;dominant-baseline:hanging;font-weight:bold;transform: translateY(192.5px) rotate(-90deg);"></text>
</g>
<g data-series="widespread" class="data-series">
	<path d="M 15.00,318.58L 470.00,318.58" id="W06000019-level-0" class="line" stroke-width="1" stroke-linecap="round" stroke-dasharray="3,3" fill-opacity="0.3" opacity="0.3"><title>Widespread</title></path>
</g>
<g data-series="substantial" class="data-series">
	<path d="M 15.00,342.76L 470.00,342.76" id="W06000019-level-1" class="line" stroke-width="1" stroke-linecap="round" stroke-dasharray="3,3" fill-opacity="0.3" opacity="0.3"><title>Substantial</title></path>
</g>
<g data-series="moderate" class="data-series">
	<path d="M 15.00,366.94L 470.00,366.94" id="W06000019-level-2" class="line" stroke-width="1" stroke-linecap="round" stroke-dasharray="3,3" fill-opacity="0.3" opacity="0.3"><title>Moderate</title></path>
</g>
<g data-series="new-cases" class="data-series">
	<path d="M 15.00,375.00L 17.01,375.00L 19.03,375.00L 21.04,375.00L 23.05,375.00L 25.07,375.00L 27.08,375.00L 29.09,375.00L 31.11,375.00L 33.12,375.00L 35.13,373.35L 37.15,371.70L 39.16,366.74L 41.17,365.09L 43.19,360.14L 45.20,358.48L 47.21,355.18L 49.23,355.18L 51.24,353.53L 53.25,345.27L 55.27,343.62L 57.28,343.62L 59.29,340.32L 61.31,337.01L 63.32,330.41L 65.33,323.80L 67.35,328.76L 69.36,327.10L 71.37,323.80L 73.38,313.89L 75.40,295.72L 77.41,294.07L 79.42,290.77L 81.44,284.16L 83.45,269.30L 85.46,270.95L 87.48,259.39L 89.49,275.90L 91.50,261.04L 93.52,262.69L 95.53,269.30L 97.54,272.60L 99.56,275.90L 101.57,289.12L 103.58,282.51L 105.60,290.77L 107.61,285.81L 109.62,277.56L 111.64,279.21L 113.65,279.21L 115.66,280.86L 117.68,295.72L 119.69,299.03L 121.70,310.59L 123.72,318.85L 125.73,323.80L 127.74,323.80L 129.76,333.71L 131.77,330.41L 133.78,340.32L 135.80,341.97L 137.81,346.92L 139.82,341.97L 141.84,341.97L 143.85,341.97L 145.86,333.71L 147.88,330.41L 149.89,322.15L 151.90,325.45L 153.92,335.36L 155.93,338.67L 157.94,338.67L 159.96,350.23L 161.97,356.83L 163.98,368.39L 166.00,361.79L 168.01,360.14L 170.02,355.18L 172.04,355.18L 174.05,353.53L 176.06,350.23L 178.08,350.23L 180.09,355.18L 182.10,360.14L 184.12,365.09L 186.13,363.44L 188.14,365.09L 190.15,360.14L 192.17,358.48L 194.18,360.14L 196.19,358.48L 198.21,355.18L 200.22,358.48L 202.23,358.48L 204.25,366.74L 206.26,368.39L 208.27,368.39L 210.29,370.05L 212.30,371.70L 214.31,370.05L 216.33,370.05L 218.34,370.05L 220.35,370.05L 222.37,368.39L 224.38,370.05L 226.39,370.05L 228.41,368.39L 230.42,368.39L 232.43,366.74L 234.45,365.09L 236.46,366.74L 238.47,366.74L 240.49,366.74L 242.50,370.05L 244.51,366.74L 246.53,368.39L 248.54,370.05L 250.55,366.74L 252.57,366.74L 254.58,368.39L 256.59,365.09L 258.61,368.39L 260.62,365.09L 262.63,363.44L 264.65,365.09L 266.66,365.09L 268.67,365.09L 270.69,366.74L 272.70,366.74L 274.71,368.39L 276.73,368.39L 278.74,370.05L 280.75,370.05L 282.77,370.05L 284.78,371.70L 286.79,371.70L 288.81,373.35L 290.82,375.00L 292.83,375.00L 294.85,371.70L 296.86,371.70L 298.87,371.70L 300.88,368.39L 302.90,365.09L 304.91,365.09L 306.92,365.09L 308.94,368.39L 310.95,366.74L 312.96,363.44L 314.98,366.74L 316.99,370.05L 319.00,370.05L 321.02,370.05L 323.03,370.05L 325.04,371.70L 327.06,375.00L 329.07,375.00L 331.08,375.00L 333.10,375.00L 335.11,375.00L 337.12,375.00L 339.14,375.00L 341.15,375.00L 343.16,375.00L 345.18,375.00L 347.19,373.35L 349.20,373.35L 351.22,373.35L 353.23,373.35L 355.24,373.35L 357.26,373.35L 359.27,373.35L 361.28,375.00L 363.30,375.00L 365.31,375.00L 367.32,375.00L 369.34,373.35L 371.35,370.05L 373.36,370.05L 375.38,370.05L 377.39,368.39L 379.40,368.39L 381.42,368.39L 383.43,370.05L 385.44,373.35L 387.46,370.05L 389.47,368.39L 391.48,370.05L 393.50,366.74L 395.51,361.79L 397.52,353.53L 399.54,348.57L 401.55,350.23L 403.56,346.92L 405.58,341.97L 407.59,338.67L 409.60,330.41L 411.62,322.15L 413.63,327.10L 415.64,315.54L 417.65,302.33L 419.67,289.12L 421.68,257.74L 423.69,209.84L 425.71,170.20L 427.72,127.26L 429.73,54.59L 431.75,34.77L 433.76,10.00L 435.77,14.95L 437.79,51.29L 439.80,72.76L 441.81,102.49L 443.83,173.51L 445.84,201.58L 447.85,223.05L 449.87,232.96L 451.88,239.57L 453.89,266.00L 455.91,261.04L 457.92,246.18L 459.93,247.83" id="New cases" class="line" stroke-width="1" stroke-linecap="round"><title>New cases</title></path>
</g>
<g data-series="recent-cases" class="data-series">
	<path d="M 459.93,247.83L 461.95,269.30L 463.96,289.12L 465.97,296.00L 467.99,291.76L 470.00,302.74" id="Recent cases" class="line" stroke-width="1" stroke-linecap="round" stroke-dasharray="5,5"><title>Recent cases</title></path>
</g>
</svg>
