<svg width="480" height="400" viewBox="0 0 480 400" xmlns="http://www.w3.org/2000/svg" style="overflow:display" preserveAspectRatio="xMinYMin meet" overflow="visible">
<defs>
	<style>
	.data-series path.line { fill-opacity: 0; stroke: black; }
	.data-series path.line.dotted { stroke-dasharray: 12 20 }
	.data-series:hover path.line, .data-series.on path.line { stroke-width: 1; }
	.data-series:hover circle, .data-series.on circle { display: inline; }
	.graph-grid { font-family: "Helvetica Neue",Helvetica,Arial,"Lucida Grande",sans-serif; }
	.graph-grid line { stroke: black; stroke-width: 1; stroke-linecap: round; }
	.graph-grid.graph-grid-x text { text-anchor: middle; dominant-baseline: hanging; transform: translateY(10px); }
	.graph-grid.graph-grid-y text { text-anchor: end; dominant-baseline: middle; transform: translateX(-10px); }
	</style>
</defs>
<g class="graph-grid graph-grid-y">
	<line x1="25.00" y1="375.00" x2="470.00" y2="375.00" data-left="25"></line>
	<text x="35" y="375" text-anchor="end">0</text>
	<text x="35" y="212.621233333333" text-anchor="end">10</text>
	<text x="35" y="50.2424666666666" text-anchor="end">20</text>
	<text style="text-anchor:middle;dominant-baseline:hanging;font-weight:bold;transform: translateY(192.5px) rotate(-90deg);"></text>
</g>
<g class="graph-grid graph-grid-x">
	<line class="tick" x1="30.15" y1="375.00" x2="30.15" y2="380.00"></line>
	<text x="30.1544401544402" y="375" text-anchor="middle">M</text>
	<line class="tick" x1="83.42" y1="375.00" x2="83.42" y2="380.00"></line>
	<text x="83.4169884169884" y="375" text-anchor="middle">A</text>
	<line class="tick" x1="134.96" y1="375.00" x2="134.96" y2="380.00"></line>
	<text x="134.96138996139" y="375" text-anchor="middle">M</text>
	<line class="tick" x1="188.22" y1="375.00" x2="188.22" y2="380.00"></line>
	<text x="188.223938223938" y="375" text-anchor="middle">J</text>
	<line class="tick" x1="239.77" y1="375.00" x2="239.77" y2="380.00"></line>
	<text x="239.76833976834" y="375" text-anchor="middle">J</text>
	<line class="tick" x1="293.03" y1="375.00" x2="293.03" y2="380.00"></line>
	<text x="293.030888030888" y="375" text-anchor="middle">A</text>
	<line class="tick" x1="346.29" y1="375.00" x2="346.29" y2="380.00"></line>
	<text x="346.293436293436" y="375" text-anchor="middle">S</text>
	<line class="tick" x1="397.84" y1="375.00" x2="397.84" y2="380.00"></line>
	<text x="397.837837837838" y="375" text-anchor="middle">O</text>
	<line class="tick" x1="451.10" y1="375.00" x2="451.10" y2="380.00"></line>
	<text x="451.100386100386" y="375" text-anchor="middle">N</text>
	<text style="text-anchor:middle;dominant-baseline:hanging;font-weight:bold;transform: translateY(192.5px) rotate(-90deg);"></text>
</g>
<g data-series="widespread" class="data-series">
	<path d="M 25.00,261.33L 470.00,261.33" id="W06000004-level-0" class="line" stroke-width="1" stroke-linecap="round" stroke-dasharray="3,3" fill-opacity="0.3" opacity="0.3"><title>Widespread</title></path>
</g>
<g data-series="substantial" class="data-series">
	<path d="M 25.00,310.05L 470.00,310.05" id="W06000004-level-1" class="line" stroke-width="1" stroke-linecap="round" stroke-dasharray="3,3" fill-opacity="0.3" opacity="0.3"><title>Substantial</title></path>
</g>
<g data-series="moderate" class="data-series">
	<path d="M 25.00,358.76L 470.00,358.76" id="W06000004-level-2" class="line" stroke-width="1" stroke-linecap="round" stroke-dasharray="3,3" fill-opacity="0.3" opacity="0.3"><title>Moderate</title></path>
</g>
<g data-series="new-cases" class="data-series">
	<path d="M 25.00,375.00L 26.72,375.00L 28.44,375.00L 30.15,375.00L 31.87,375.00L 33.59,375.00L 35.31,375.00L 37.03,375.00L 38.75,375.00L 40.46,375.00L 42.18,375.00L 43.90,375.00L 45.62,375.00L 47.34,375.00L 49.05,375.00L 50.77,375.00L 52.49,375.00L 54.21,375.00L 55.93,375.00L 57.64,375.00L 59.36,372.57L 61.08,370.13L 62.80,367.70L 64.52,367.70L 66.24,357.97L 67.95,353.10L 69.67,345.80L 71.39,343.37L 73.11,343.37L 74.83,328.77L 76.54,328.77L 78.26,323.90L 79.98,311.73L 81.70,294.70L 83.42,299.57L 85.14,292.27L 86.85,280.10L 88.57,243.60L 90.29,236.30L 92.01,226.57L 93.73,216.83L 95.44,207.10L 97.16,187.63L 98.88,199.80L 100.60,199.80L 102.32,202.23L 104.03,207.10L 105.75,207.10L 107.47,185.20L 109.19,199.80L 110.91,180.33L 112.63,207.10L 114.34,214.40L 116.06,216.83L 117.78,233.87L 119.50,258.20L 121.22,260.63L 122.93,277.67L 124.65,272.80L 126.37,260.63L 128.09,246.03L 129.81,253.33L 131.53,248.47L 133.24,248.47L 134.96,248.47L 136.68,236.30L 138.40,221.70L 140.12,224.13L 141.83,209.53L 143.55,209.53L 145.27,214.40L 146.99,204.67L 148.71,199.80L 150.42,214.40L 152.14,211.97L 153.86,194.93L 155.58,156.00L 157.30,146.27L 159.02,138.97L 160.73,129.23L 162.45,78.13L 164.17,63.53L 165.89,63.53L 167.61,109.77L 169.32,112.20L 171.04,117.07L 172.76,131.67L 174.48,160.87L 176.20,190.07L 177.92,199.80L 179.63,180.33L 181.35,177.90L 183.07,175.47L 184.79,185.20L 186.51,204.67L 188.22,204.67L 189.94,224.13L 191.66,236.30L 193.38,250.90L 195.10,270.37L 196.81,282.53L 198.53,292.27L 200.25,304.43L 201.97,311.73L 203.69,302.00L 205.41,304.43L 207.12,309.30L 208.84,306.87L 210.56,316.60L 212.28,314.17L 214.00,309.30L 215.71,326.33L 217.43,319.03L 219.15,328.77L 220.87,331.20L 222.59,336.07L 224.31,343.37L 226.02,350.67L 227.74,355.53L 229.46,360.40L 231.18,360.40L 232.90,355.53L 234.61,353.10L 236.33,355.53L 238.05,353.10L 239.77,353.10L 241.49,355.53L 243.20,355.53L 244.92,362.83L 246.64,365.27L 248.36,360.40L 250.08,362.83L 251.80,362.83L 253.51,362.83L 255.23,360.40L 256.95,360.40L 258.67,362.83L 260.39,362.83L 262.10,362.83L 263.82,362.83L 265.54,360.40L 267.26,360.40L 268.98,355.53L 270.69,353.10L 272.41,357.97L 274.13,357.97L 275.85,353.10L 277.57,350.67L 279.29,350.67L 281.00,333.63L 282.72,331.20L 284.44,326.33L 286.16,326.33L 287.88,328.77L 289.59,328.77L 291.31,323.90L 293.03,345.80L 294.75,348.23L 296.47,353.10L 298.19,350.67L 299.90,353.10L 301.62,357.97L 303.34,365.27L 305.06,365.27L 306.78,362.83L 308.49,362.83L 310.21,367.70L 311.93,362.83L 313.65,362.83L 315.37,355.53L 317.08,357.97L 318.80,360.40L 320.52,360.40L 322.24,360.40L 323.96,360.40L 325.68,360.40L 327.39,365.27L 329.11,362.83L 330.83,360.40L 332.55,360.40L 334.27,360.40L 335.98,365.27L 337.70,365.27L 339.42,367.70L 341.14,370.13L 342.86,372.57L 344.58,370.13L 346.29,362.83L 348.01,357.97L 349.73,353.10L 351.45,345.80L 353.17,328.77L 354.88,328.77L 356.60,321.47L 358.32,323.90L 360.04,326.33L 361.76,328.77L 363.47,323.90L 365.19,336.07L 366.91,323.90L 368.63,316.60L 370.35,309.30L 372.07,302.00L 373.78,282.53L 375.50,289.83L 377.22,282.53L 378.94,282.53L 380.66,280.10L 382.37,275.23L 384.09,272.80L 385.81,287.40L 387.53,267.93L 389.25,255.77L 390.97,253.33L 392.68,241.17L 394.40,190.07L 396.12,177.90L 397.84,160.87L 399.56,119.50L 401.27,95.17L 402.99,70.83L 404.71,61.10L 406.43,63.53L 408.15,70.83L 409.86,56.23L 411.58,58.67L 413.30,65.97L 415.02,36.77L 416.74,10.00L 418.46,31.90L 420.17,22.17L 421.89,39.20L 423.61,46.50L 425.33,48.93L 427.05,87.87L 428.76,126.80L 430.48,143.83L 432.20,151.13L 433.92,141.40L 435.64,165.73L 437.36,185.20L 439.07,173.03L 440.79,90.30L 442.51,80.57L 444.23,53.80L 445.95,61.10L 447.66,68.40L 449.38,75.70L 451.10,90.30L 452.82,175.47L 454.54,197.37L 456.25,199.80L 457.97,207.10L 459.69,211.97L 461.41,197.37" id="New cases" class="line" stroke-width="1" stroke-linecap="round"><title>New cases</title></path>
	<circle cx="25.00" cy="375.00" data-y="0.00" data-x="1582761600" r="1" fill="white"><title>2020-02-27: 0</title></circle>
	<circle cx="26.72" cy="375.00" data-y="0.00" data-x="1582848000" r="1" fill="white"><title>2020-02-28: 0</title></circle>
	<circle cx="28.44" cy="375.00" data-y="0.00" data-x="1582934400" r="1" fill="white"><title>2020-02-29: 0</title></circle>
	<circle cx="30.15" cy="375.00" data-y="0.00" data-x="1583020800" r="1" fill="white"><title>2020-03-01: 0</title></circle>
	<circle cx="31.87" cy="375.00" data-y="0.00" data-x="1583107200" r="1" fill="white"><title>2020-03-02: 0</title></circle>
	<circle cx="33.59" cy="375.00" data-y="0.00" data-x="1583193600" r="1" fill="white"><title>2020-03-03: 0</title></circle>
	<circle cx="35.31" cy="375.00" data-y="0.00" data-x="1583280000" r="1" fill="white"><title>2020-03-04: 0</title></circle>
	<circle cx="37.03" cy="375.00" data-y="0.00" data-x="1583366400" r="1" fill="white"><title>2020-03-05: 0</title></circle>
	<circle cx="38.75" cy="375.00" data-y="0.00" data-x="1583452800" r="1" fill="white"><title>2020-03-06: 0</title></circle>
	<circle cx="40.46" cy="375.00" data-y="0.00" data-x="1583539200" r="1" fill="white"><title>2020-03-07: 0</title></circle>
	<circle cx="42.18" cy="375.00" data-y="0.00" data-x="1583625600" r="1" fill="white"><title>2020-03-08: 0</title></circle>
	<circle cx="43.90" cy="375.00" data-y="0.00" data-x="1583712000" r="1" fill="white"><title>2020-03-09: 0</title></circle>
	<circle cx="45.62" cy="375.00" data-y="0.00" data-x="1583798400" r="1" fill="white"><title>2020-03-10: 0</title></circle>
	<circle cx="47.34" cy="375.00" data-y="0.00" data-x="1583884800" r="1" fill="white"><title>2020-03-11: 0</title></circle>
	<circle cx="49.05" cy="375.00" data-y="0.00" data-x="1583971200" r="1" fill="white"><title>2020-03-12: 0</title></circle>
	<circle cx="50.77" cy="375.00" data-y="0.00" data-x="1584057600" r="1" fill="white"><title>2020-03-13: 0</title></circle>
	<circle cx="52.49" cy="375.00" data-y="0.00" data-x="1584144000" r="1" fill="white"><title>2020-03-14: 0</title></circle>
	<circle cx="54.21" cy="375.00" data-y="0.00" data-x="1584230400" r="1" fill="white"><title>2020-03-15: 0</title></circle>
	<circle cx="55.93" cy="375.00" data-y="0.00" data-x="1584316800" r="1" fill="white"><title>2020-03-16: 0</title></circle>
	<circle cx="57.64" cy="375.00" data-y="0.00" data-x="1584403200" r="1" fill="white"><title>2020-03-17: 0</title></circle>
	<circle cx="59.36" cy="372.57" data-y="0.15" data-x="1584489600" r="1" fill="white"><title>2020-03-18: 0</title></circle>
	<circle cx="61.08" cy="370.13" data-y="0.30" data-x="1584576000" r="1" fill="white"><title>2020-03-19: 0</title></circle>
	<circle cx="62.80" cy="367.70" data-y="0.45" data-x="1584662400" r="1" fill="white"><title>2020-03-20: 0</title></circle>
	<circle cx="64.52" cy="367.70" data-y="0.45" data-x="1584748800" r="1" fill="white"><title>2020-03-21: 0</title></circle>
	<circle cx="66.24" cy="357.97" data-y="1.05" data-x="1584835200" r="1" fill="white"><title>2020-03-22: 1</title></circle>
	<circle cx="67.95" cy="353.10" data-y="1.35" data-x="1584921600" r="1" fill="white"><title>2020-03-23: 1</title></circle>
	<circle cx="69.67" cy="345.80" data-y="1.80" data-x="1585008000" r="1" fill="white"><title>2020-03-24: 2</title></circle>
	<circle cx="71.39" cy="343.37" data-y="1.95" data-x="1585094400" r="1" fill="white"><title>2020-03-25: 2</title></circle>
	<circle cx="73.11" cy="343.37" data-y="1.95" data-x="1585180800" r="1" fill="white"><title>2020-03-26: 2</title></circle>
	<circle cx="74.83" cy="328.77" data-y="2.85" data-x="1585267200" r="1" fill="white"><title>2020-03-27: 3</title></circle>
	<circle cx="76.54" cy="328.77" data-y="2.85" data-x="1585353600" r="1" fill="white"><title>2020-03-28: 3</title></circle>
	<circle cx="78.26" cy="323.90" data-y="3.15" data-x="1585440000" r="1" fill="white"><title>2020-03-29: 3</title></circle>
	<circle cx="79.98" cy="311.73" data-y="3.90" data-x="1585526400" r="1" fill="white"><title>2020-03-30: 4</title></circle>
	<circle cx="81.70" cy="294.70" data-y="4.95" data-x="1585612800" r="1" fill="white"><title>2020-03-31: 5</title></circle>
	<circle cx="83.42" cy="299.57" data-y="4.65" data-x="1585699200" r="1" fill="white"><title>2020-04-01: 5</title></circle>
	<circle cx="85.14" cy="292.27" data-y="5.10" data-x="1585785600" r="1" fill="white"><title>2020-04-02: 5</title></circle>
	<circle cx="86.85" cy="280.10" data-y="5.84" data-x="1585872000" r="1" fill="white"><title>2020-04-03: 6</title></circle>
	<circle cx="88.57" cy="243.60" data-y="8.09" data-x="1585958400" r="1" fill="white"><title>2020-04-04: 8</title></circle>
	<circle cx="90.29" cy="236.30" data-y="8.54" data-x="1586044800" r="1" fill="white"><title>2020-04-05: 9</title></circle>
	<circle cx="92.01" cy="226.57" data-y="9.14" data-x="1586131200" r="1" fill="white"><title>2020-04-06: 9</title></circle>
	<circle cx="93.73" cy="216.83" data-y="9.74" data-x="1586217600" r="1" fill="white"><title>2020-04-07: 10</title></circle>
	<circle cx="95.44" cy="207.10" data-y="10.34" data-x="1586304000" r="1" fill="white"><title>2020-04-08: 10</title></circle>
	<circle cx="97.16" cy="187.63" data-y="11.54" data-x="1586390400" r="1" fill="white"><title>2020-04-09: 12</title></circle>
	<circle cx="98.88" cy="199.80" data-y="10.79" data-x="1586476800" r="1" fill="white"><title>2020-04-10: 11</title></circle>
	<circle cx="100.60" cy="199.80" data-y="10.79" data-x="1586563200" r="1" fill="white"><title>2020-04-11: 11</title></circle>
	<circle cx="102.32" cy="202.23" data-y="10.64" data-x="1586649600" r="1" fill="white"><title>2020-04-12: 11</title></circle>
	<circle cx="104.03" cy="207.10" data-y="10.34" data-x="1586736000" r="1" fill="white"><title>2020-04-13: 10</title></circle>
	<circle cx="105.75" cy="207.10" data-y="10.34" data-x="1586822400" r="1" fill="white"><title>2020-04-14: 10</title></circle>
	<circle cx="107.47" cy="185.20" data-y="11.69" data-x="1586908800" r="1" fill="white"><title>2020-04-15: 12</title></circle>
	<circle cx="109.19" cy="199.80" data-y="10.79" data-x="1586995200" r="1" fill="white"><title>2020-04-16: 11</title></circle>
	<circle cx="110.91" cy="180.33" data-y="11.99" data-x="1587081600" r="1" fill="white"><title>2020-04-17: 12</title></circle>
	<circle cx="112.63" cy="207.10" data-y="10.34" data-x="1587168000" r="1" fill="white"><title>2020-04-18: 10</title></circle>
	<circle cx="114.34" cy="214.40" data-y="9.89" data-x="1587254400" r="1" fill="white"><title>2020-04-19: 10</title></circle>
	<circle cx="116.06" cy="216.83" data-y="9.74" data-x="1587340800" r="1" fill="white"><title>2020-04-20: 10</title></circle>
	<circle cx="117.78" cy="233.87" data-y="8.69" data-x="1587427200" r="1" fill="white"><title>2020-04-21: 9</title></circle>
	<circle cx="119.50" cy="258.20" data-y="7.19" data-x="1587513600" r="1" fill="white"><title>2020-04-22: 7</title></circle>
	<circle cx="121.22" cy="260.63" data-y="7.04" data-x="1587600000" r="1" fill="white"><title>2020-04-23: 7</title></circle>
	<circle cx="122.93" cy="277.67" data-y="5.99" data-x="1587686400" r="1" fill="white"><title>2020-04-24: 6</title></circle>
	<circle cx="124.65" cy="272.80" data-y="6.29" data-x="1587772800" r="1" fill="white"><title>2020-04-25: 6</title></circle>
	<circle cx="126.37" cy="260.63" data-y="7.04" data-x="1587859200" r="1" fill="white"><title>2020-04-26: 7</title></circle>
	<circle cx="128.09" cy="246.03" data-y="7.94" data-x="1587945600" r="1" fill="white"><title>2020-04-27: 8</title></circle>
	<circle cx="129.81" cy="253.33" data-y="7.49" data-x="1588032000" r="1" fill="white"><title>2020-04-28: 7</title></circle>
	<circle cx="131.53" cy="248.47" data-y="7.79" data-x="1588118400" r="1" fill="white"><title>2020-04-29: 8</title></circle>
	<circle cx="133.24" cy="248.47" data-y="7.79" data-x="1588204800" r="1" fill="white"><title>2020-04-30: 8</title></circle>
	<circle cx="134.96" cy="248.47" data-y="7.79" data-x="1588291200" r="1" fill="white"><title>2020-05-01: 8</title></circle>
	<circle cx="136.68" cy="236.30" data-y="8.54" data-x="1588377600" r="1" fill="white"><title>2020-05-02: 9</title></circle>
	<circle cx="138.40" cy="221.70" data-y="9.44" data-x="1588464000" r="1" fill="white"><title>2020-05-03: 9</title></circle>
	<circle cx="140.12" cy="224.13" data-y="9.29" data-x="1588550400" r="1" fill="white"><title>2020-05-04: 9</title></circle>
	<circle cx="141.83" cy="209.53" data-y="10.19" data-x="1588636800" r="1" fill="white"><title>2020-05-05: 10</title></circle>
	<circle cx="143.55" cy="209.53" data-y="10.19" data-x="1588723200" r="1" fill="white"><title>2020-05-06: 10</title></circle>
	<circle cx="145.27" cy="214.40" data-y="9.89" data-x="1588809600" r="1" fill="white"><title>2020-05-07: 10</title></circle>
	<circle cx="146.99" cy="204.67" data-y="10.49" data-x="1588896000" r="1" fill="white"><title>2020-05-08: 10</title></circle>
	<circle cx="148.71" cy="199.80" data-y="10.79" data-x="1588982400" r="1" fill="white"><title>2020-05-09: 11</title></circle>
	<circle cx="150.42" cy="214.40" data-y="9.89" data-x="1589068800" r="1" fill="white"><title>2020-05-10: 10</title></circle>
	<circle cx="152.14" cy="211.97" data-y="10.04" data-x="1589155200" r="1" fill="white"><title>2020-05-11: 10</title></circle>
	<circle cx="153.86" cy="194.93" data-y="11.09" data-x="1589241600" r="1" fill="white"><title>2020-05-12: 11</title></circle>
	<circle cx="155.58" cy="156.00" data-y="13.49" data-x="1589328000" r="1" fill="white"><title>2020-05-13: 13</title></circle>
	<circle cx="157.30" cy="146.27" data-y="14.09" data-x="1589414400" r="1" fill="white"><title>2020-05-14: 14</title></circle>
	<circle cx="159.02" cy="138.97" data-y="14.54" data-x="1589500800" r="1" fill="white"><title>2020-05-15: 15</title></circle>
	<circle cx="160.73" cy="129.23" data-y="15.14" data-x="1589587200" r="1" fill="white"><title>2020-05-16: 15</title></circle>
	<circle cx="162.45" cy="78.13" data-y="18.28" data-x="1589673600" r="1" fill="white"><title>2020-05-17: 18</title></circle>
	<circle cx="164.17" cy="63.53" data-y="19.18" data-x="1589760000" r="1" fill="white"><title>2020-05-18: 19</title></circle>
	<circle cx="165.89" cy="63.53" data-y="19.18" data-x="1589846400" r="1" fill="white"><title>2020-05-19: 19</title></circle>
	<circle cx="167.61" cy="109.77" data-y="16.33" data-x="1589932800" r="1" fill="white"><title>2020-05-20: 16</title></circle>
	<circle cx="169.32" cy="112.20" data-y="16.18" data-x="1590019200" r="1" fill="white"><title>2020-05-21: 16</title></circle>
	<circle cx="171.04" cy="117.07" data-y="15.88" data-x="1590105600" r="1" fill="white"><title>2020-05-22: 16</title></circle>
	<circle cx="172.76" cy="131.67" data-y="14.99" data-x="1590192000" r="1" fill="white"><title>2020-05-23: 15</title></circle>
	<circle cx="174.48" cy="160.87" data-y="13.19" data-x="1590278400" r="1" fill="white"><title>2020-05-24: 13</title></circle>
	<circle cx="176.20" cy="190.07" data-y="11.39" data-x="1590364800" r="1" fill="white"><title>2020-05-25: 11</title></circle>
	<circle cx="177.92" cy="199.80" data-y="10.79" data-x="1590451200" r="1" fill="white"><title>2020-05-26: 11</title></circle>
	<circle cx="179.63" cy="180.33" data-y="11.99" data-x="1590537600" r="1" fill="white"><title>2020-05-27: 12</title></circle>
	<circle cx="181.35" cy="177.90" data-y="12.14" data-x="1590624000" r="1" fill="white"><title>2020-05-28: 12</title></circle>
	<circle cx="183.07" cy="175.47" data-y="12.29" data-x="1590710400" r="1" fill="white"><title>2020-05-29: 12</title></circle>
	<circle cx="184.79" cy="185.20" data-y="11.69" data-x="1590796800" r="1" fill="white"><title>2020-05-30: 12</title></circle>
	<circle cx="186.51" cy="204.67" data-y="10.49" data-x="1590883200" r="1" fill="white"><title>2020-05-31: 10</title></circle>
	<circle cx="188.22" cy="204.67" data-y="10.49" data-x="1590969600" r="1" fill="white"><title>2020-06-01: 10</title></circle>
	<circle cx="189.94" cy="224.13" data-y="9.29" data-x="1591056000" r="1" fill="white"><title>2020-06-02: 9</title></circle>
	<circle cx="191.66" cy="236.30" data-y="8.54" data-x="1591142400" r="1" fill="white"><title>2020-06-03: 9</title></circle>
	<circle cx="193.38" cy="250.90" data-y="7.64" data-x="1591228800" r="1" fill="white"><title>2020-06-04: 8</title></circle>
	<circle cx="195.10" cy="270.37" data-y="6.44" data-x="1591315200" r="1" fill="white"><title>2020-06-05: 6</title></circle>
	<circle cx="196.81" cy="282.53" data-y="5.69" data-x="1591401600" r="1" fill="white"><title>2020-06-06: 6</title></circle>
	<circle cx="198.53" cy="292.27" data-y="5.10" data-x="1591488000" r="1" fill="white"><title>2020-06-07: 5</title></circle>
	<circle cx="200.25" cy="304.43" data-y="4.35" data-x="1591574400" r="1" fill="white"><title>2020-06-08: 4</title></circle>
	<circle cx="201.97" cy="311.73" data-y="3.90" data-x="1591660800" r="1" fill="white"><title>2020-06-09: 4</title></circle>
	<circle cx="203.69" cy="302.00" data-y="4.50" data-x="1591747200" r="1" fill="white"><title>2020-06-10: 4</title></circle>
	<circle cx="205.41" cy="304.43" data-y="4.35" data-x="1591833600" r="1" fill="white"><title>2020-06-11: 4</title></circle>
	<circle cx="207.12" cy="309.30" data-y="4.05" data-x="1591920000" r="1" fill="white"><title>2020-06-12: 4</title></circle>
	<circle cx="208.84" cy="306.87" data-y="4.20" data-x="1592006400" r="1" fill="white"><title>2020-06-13: 4</title></circle>
	<circle cx="210.56" cy="316.60" data-y="3.60" data-x="1592092800" r="1" fill="white"><title>2020-06-14: 4</title></circle>
	<circle cx="212.28" cy="314.17" data-y="3.75" data-x="1592179200" r="1" fill="white"><title>2020-06-15: 4</title></circle>
	<circle cx="214.00" cy="309.30" data-y="4.05" data-x="1592265600" r="1" fill="white"><title>2020-06-16: 4</title></circle>
	<circle cx="215.71" cy="326.33" data-y="3.00" data-x="1592352000" r="1" fill="white"><title>2020-06-17: 3</title></circle>
	<circle cx="217.43" cy="319.03" data-y="3.45" data-x="1592438400" r="1" fill="white"><title>2020-06-18: 3</title></circle>
	<circle cx="219.15" cy="328.77" data-y="2.85" data-x="1592524800" r="1" fill="white"><title>2020-06-19: 3</title></circle>
	<circle cx="220.87" cy="331.20" data-y="2.70" data-x="1592611200" r="1" fill="white"><title>2020-06-20: 3</title></circle>
	<circle cx="222.59" cy="336.07" data-y="2.40" data-x="1592697600" r="1" fill="white"><title>2020-06-21: 2</title></circle>
	<circle cx="224.31" cy="343.37" data-y="1.95" data-x="1592784000" r="1" fill="white"><title>2020-06-22: 2</title></circle>
	<circle cx="226.02" cy="350.67" data-y="1.50" data-x="1592870400" r="1" fill="white"><title>2020-06-23: 1</title></circle>
	<circle cx="227.74" cy="355.53" data-y="1.20" data-x="1592956800" r="1" fill="white"><title>2020-06-24: 1</title></circle>
	<circle cx="229.46" cy="360.40" data-y="0.90" data-x="1593043200" r="1" fill="white"><title>2020-06-25: 1</title></circle>
	<circle cx="231.18" cy="360.40" data-y="0.90" data-x="1593129600" r="1" fill="white"><title>2020-06-26: 1</title></circle>
	<circle cx="232.90" cy="355.53" data-y="1.20" data-x="1593216000" r="1" fill="white"><title>2020-06-27: 1</title></circle>
	<circle cx="234.61" cy="353.10" data-y="1.35" data-x="1593302400" r="1" fill="white"><title>2020-06-28: 1</title></circle>
	<circle cx="236.33" cy="355.53" data-y="1.20" data-x="1593388800" r="1" fill="white"><title>2020-06-29: 1</title></circle>
	<circle cx="238.05" cy="353.10" data-y="1.35" data-x="1593475200" r="1" fill="white"><title>2020-06-30: 1</title></circle>
	<circle cx="239.77" cy="353.10" data-y="1.35" data-x="1593561600" r="1" fill="white"><title>2020-07-01: 1</title></circle>
	<circle cx="241.49" cy="355.53" data-y="1.20" data-x="1593648000" r="1" fill="white"><title>2020-07-02: 1</title></circle>
	<circle cx="243.20" cy="355.53" data-y="1.20" data-x="1593734400" r="1" fill="white"><title>2020-07-03: 1</title></circle>
	<circle cx="244.92" cy="362.83" data-y="0.75" data-x="1593820800" r="1" fill="white"><title>2020-07-04: 1</title></circle>
	<circle cx="246.64" cy="365.27" data-y="0.60" data-x="1593907200" r="1" fill="white"><title>2020-07-05: 1</title></circle>
	<circle cx="248.36" cy="360.40" data-y="0.90" data-x="1593993600" r="1" fill="white"><title>2020-07-06: 1</title></circle>
	<circle cx="250.08" cy="362.83" data-y="0.75" data-x="1594080000" r="1" fill="white"><title>2020-07-07: 1</title></circle>
	<circle cx="251.80" cy="362.83" data-y="0.75" data-x="1594166400" r="1" fill="white"><title>2020-07-08: 1</title></circle>
	<circle cx="253.51" cy="362.83" data-y="0.75" data-x="1594252800" r="1" fill="white"><title>2020-07-09: 1</title></circle>
	<circle cx="255.23" cy="360.40" data-y="0.90" data-x="1594339200" r="1" fill="white"><title>2020-07-10: 1</title></circle>
	<circle cx="256.95" cy="360.40" data-y="0.90" data-x="1594425600" r="1" fill="white"><title>2020-07-11: 1</title></circle>
	<circle cx="258.67" cy="362.83" data-y="0.75" data-x="1594512000" r="1" fill="white"><title>2020-07-12: 1</title></circle>
	<circle cx="260.39" cy="362.83" data-y="0.75" data-x="1594598400" r="1" fill="white"><title>2020-07-13: 1</title></circle>
	<circle cx="262.10" cy="362.83" data-y="0.75" data-x="1594684800" r="1" fill="white"><title>2020-07-14: 1</title></circle>
	<circle cx="263.82" cy="362.83" data-y="0.75" data-x="1594771200" r="1" fill="white"><title>2020-07-15: 1</title></circle>
	<circle cx="265.54" cy="360.40" data-y="0.90" data-x="1594857600" r="1" fill="white"><title>2020-07-16: 1</title></circle>
	<circle cx="267.26" cy="360.40" data-y="0.90" data-x="1594944000" r="1" fill="white"><title>2020-07-17: 1</title></circle>
	<circle cx="268.98" cy="355.53" data-y="1.20" data-x="1595030400" r="1" fill="white"><title>2020-07-18: 1</title></circle>
	<circle cx="270.69" cy="353.10" data-y="1.35" data-x="1595116800" r="1" fill="white"><title>2020-07-19: 1</title></circle>
	<circle cx="272.41" cy="357.97" data-y="1.05" data-x="1595203200" r="1" fill="white"><title>2020-07-20: 1</title></circle>
	<circle cx="274.13" cy="357.97" data-y="1.05" data-x="1595289600" r="1" fill="white"><title>2020-07-21: 1</title></circle>
	<circle cx="275.85" cy="353.10" data-y="1.35" data-x="1595376000" r="1" fill="white"><title>2020-07-22: 1</title></circle>
	<circle cx="277.57" cy="350.67" data-y="1.50" data-x="1595462400" r="1" fill="white"><title>2020-07-23: 1</title></circle>
	<circle cx="279.29" cy="350.67" data-y="1.50" data-x="1595548800" r="1" fill="white"><title>2020-07-24: 1</title></circle>
	<circle cx="281.00" cy="333.63" data-y="2.55" data-x="1595635200" r="1" fill="white"><title>2020-07-25: 3</title></circle>
	<circle cx="282.72" cy="331.20" data-y="2.70" data-x="1595721600" r="1" fill="white"><title>2020-07-26: 3</title></circle>
	<circle cx="284.44" cy="326.33" data-y="3.00" data-x="1595808000" r="1" fill="white"><title>2020-07-27: 3</title></circle>
	<circle cx="286.16" cy="326.33" data-y="3.00" data-x="1595894400" r="1" fill="white"><title>2020-07-28: 3</title></circle>
	<circle cx="287.88" cy="328.77" data-y="2.85" data-x="1595980800" r="1" fill="white"><title>2020-07-29: 3</title></circle>
	<circle cx="289.59" cy="328.77" data-y="2.85" data-x="1596067200" r="1" fill="white"><title>2020-07-30: 3</title></circle>
	<circle cx="291.31" cy="323.90" data-y="3.15" data-x="1596153600" r="1" fill="white"><title>2020-07-31: 3</title></circle>
	<circle cx="293.03" cy="345.80" data-y="1.80" data-x="1596240000" r="1" fill="white"><title>2020-08-01: 2</title></circle>
	<circle cx="294.75" cy="348.23" data-y="1.65" data-x="1596326400" r="1" fill="white"><title>2020-08-02: 2</title></circle>
	<circle cx="296.47" cy="353.10" data-y="1.35" data-x="1596412800" r="1" fill="white"><title>2020-08-03: 1</title></circle>
	<circle cx="298.19" cy="350.67" data-y="1.50" data-x="1596499200" r="1" fill="white"><title>2020-08-04: 1</title></circle>
	<circle cx="299.90" cy="353.10" data-y="1.35" data-x="1596585600" r="1" fill="white"><title>2020-08-05: 1</title></circle>
	<circle cx="301.62" cy="357.97" data-y="1.05" data-x="1596672000" r="1" fill="white"><title>2020-08-06: 1</title></circle>
	<circle cx="303.34" cy="365.27" data-y="0.60" data-x="1596758400" r="1" fill="white"><title>2020-08-07: 1</title></circle>
	<circle cx="305.06" cy="365.27" data-y="0.60" data-x="1596844800" r="1" fill="white"><title>2020-08-08: 1</title></circle>
	<circle cx="306.78" cy="362.83" data-y="0.75" data-x="1596931200" r="1" fill="white"><title>2020-08-09: 1</title></circle>
	<circle cx="308.49" cy="362.83" data-y="0.75" data-x="1597017600" r="1" fill="white"><title>2020-08-10: 1</title></circle>
	<circle cx="310.21" cy="367.70" data-y="0.45" data-x="1597104000" r="1" fill="white"><title>2020-08-11: 0</title></circle>
	<circle cx="311.93" cy="362.83" data-y="0.75" data-x="1597190400" r="1" fill="white"><title>2020-08-12: 1</title></circle>
	<circle cx="313.65" cy="362.83" data-y="0.75" data-x="1597276800" r="1" fill="white"><title>2020-08-13: 1</title></circle>
	<circle cx="315.37" cy="355.53" data-y="1.20" data-x="1597363200" r="1" fill="white"><title>2020-08-14: 1</title></circle>
	<circle cx="317.08" cy="357.97" data-y="1.05" data-x="1597449600" r="1" fill="white"><title>2020-08-15: 1</title></circle>
	<circle cx="318.80" cy="360.40" data-y="0.90" data-x="1597536000" r="1" fill="white"><title>2020-08-16: 1</title></circle>
	<circle cx="320.52" cy="360.40" data-y="0.90" data-x="1597622400" r="1" fill="white"><title>2020-08-17: 1</title></circle>
	<circle cx="322.24" cy="360.40" data-y="0.90" data-x="1597708800" r="1" fill="white"><title>2020-08-18: 1</title></circle>
	<circle cx="323.96" cy="360.40" data-y="0.90" data-x="1597795200" r="1" fill="white"><title>2020-08-19: 1</title></circle>
	<circle cx="325.68" cy="360.40" data-y="0.90" data-x="1597881600" r="1" fill="white"><title>2020-08-20: 1</title></circle>
	<circle cx="327.39" cy="365.27" data-y="0.60" data-x="1597968000" r="1" fill="white"><title>2020-08-21: 1</title></circle>
	<circle cx="329.11" cy="362.83" data-y="0.75" data-x="1598054400" r="1" fill="white"><title>2020-08-22: 1</title></circle>
	<circle cx="330.83" cy="360.40" data-y="0.90" data-x="1598140800" r="1" fill="white"><title>2020-08-23: 1</title></circle>
	<circle cx="332.55" cy="360.40" data-y="0.90" data-x="1598227200" r="1" fill="white"><title>2020-08-24: 1</title></circle>
	<circle cx="334.27" cy="360.40" data-y="0.90" data-x="1598313600" r="1" fill="white"><title>2020-08-25: 1</title></circle>
	<circle cx="335.98" cy="365.27" data-y="0.60" data-x="1598400000" r="1" fill="white"><title>2020-08-26: 1</title></circle>
	<circle cx="337.70" cy="365.27" data-y="0.60" data-x="1598486400" r="1" fill="white"><title>2020-08-27: 1</title></circle>
	<circle cx="339.42" cy="367.70" data-y="0.45" data-x="1598572800" r="1" fill="white"><title>2020-08-28: 0</title></circle>
	<circle cx="341.14" cy="370.13" data-y="0.30" data-x="1598659200" r="1" fill="white"><title>2020-08-29: 0</title></circle>
	<circle cx="342.86" cy="372.57" data-y="0.15" data-x="1598745600" r="1" fill="white"><title>2020-08-30: 0</title></circle>
	<circle cx="344.58" cy="370.13" data-y="0.30" data-x="1598832000" r="1" fill="white"><title>2020-08-31: 0</title></circle>
	<circle cx="346.29" cy="362.83" data-y="0.75" data-x="1598918400" r="1" fill="white"><title>2020-09-01: 1</title></circle>
	<circle cx="348.01" cy="357.97" data-y="1.05" data-x="1599004800" r="1" fill="white"><title>2020-09-02: 1</title></circle>
	<circle cx="349.73" cy="353.10" data-y="1.35" data-x="1599091200" r="1" fill="white"><title>2020-09-03: 1</title></circle>
	<circle cx="351.45" cy="345.80" data-y="1.80" data-x="1599177600" r="1" fill="white"><title>2020-09-04: 2</title></circle>
	<circle cx="353.17" cy="328.77" data-y="2.85" data-x="1599264000" r="1" fill="white"><title>2020-09-05: 3</title></circle>
	<circle cx="354.88" cy="328.77" data-y="2.85" data-x="1599350400" r="1" fill="white"><title>2020-09-06: 3</title></circle>
	<circle cx="356.60" cy="321.47" data-y="3.30" data-x="1599436800" r="1" fill="white"><title>2020-09-07: 3</title></circle>
	<circle cx="358.32" cy="323.90" data-y="3.15" data-x="1599523200" r="1" fill="white"><title>2020-09-08: 3</title></circle>
	<circle cx="360.04" cy="326.33" data-y="3.00" data-x="1599609600" r="1" fill="white"><title>2020-09-09: 3</title></circle>
	<circle cx="361.76" cy="328.77" data-y="2.85" data-x="1599696000" r="1" fill="white"><title>2020-09-10: 3</title></circle>
	<circle cx="363.47" cy="323.90" data-y="3.15" data-x="1599782400" r="1" fill="white"><title>2020-09-11: 3</title></circle>
	<circle cx="365.19" cy="336.07" data-y="2.40" data-x="1599868800" r="1" fill="white"><title>2020-09-12: 2</title></circle>
	<circle cx="366.91" cy="323.90" data-y="3.15" data-x="1599955200" r="1" fill="white"><title>2020-09-13: 3</title></circle>
	<circle cx="368.63" cy="316.60" data-y="3.60" data-x="1600041600" r="1" fill="white"><title>2020-09-14: 4</title></circle>
	<circle cx="370.35" cy="309.30" data-y="4.05" data-x="1600128000" r="1" fill="white"><title>2020-09-15: 4</title></circle>
	<circle cx="372.07" cy="302.00" data-y="4.50" data-x="1600214400" r="1" fill="white"><title>2020-09-16: 4</title></circle>
	<circle cx="373.78" cy="282.53" data-y="5.69" data-x="1600300800" r="1" fill="white"><title>2020-09-17: 6</title></circle>
	<circle cx="375.50" cy="289.83" data-y="5.24" data-x="1600387200" r="1" fill="white"><title>2020-09-18: 5</title></circle>
	<circle cx="377.22" cy="282.53" data-y="5.69" data-x="1600473600" r="1" fill="white"><title>2020-09-19: 6</title></circle>
	<circle cx="378.94" cy="282.53" data-y="5.69" data-x="1600560000" r="1" fill="white"><title>2020-09-20: 6</title></circle>
	<circle cx="380.66" cy="280.10" data-y="5.84" data-x="1600646400" r="1" fill="white"><title>2020-09-21: 6</title></circle>
	<circle cx="382.37" cy="275.23" data-y="6.14" data-x="1600732800" r="1" fill="white"><title>2020-09-22: 6</title></circle>
	<circle cx="384.09" cy="272.80" data-y="6.29" data-x="1600819200" r="1" fill="white"><title>2020-09-23: 6</title></circle>
	<circle cx="385.81" cy="287.40" data-y="5.39" data-x="1600905600" r="1" fill="white"><title>2020-09-24: 5</title></circle>
	<circle cx="387.53" cy="267.93" data-y="6.59" data-x="1600992000" r="1" fill="white"><title>2020-09-25: 7</title></circle>
	<circle cx="389.25" cy="255.77" data-y="7.34" data-x="1601078400" r="1" fill="white"><title>2020-09-26: 7</title></circle>
	<circle cx="390.97" cy="253.33" data-y="7.49" data-x="1601164800" r="1" fill="white"><title>2020-09-27: 7</title></circle>
	<circle cx="392.68" cy="241.17" data-y="8.24" data-x="1601251200" r="1" fill="white"><title>2020-09-28: 8</title></circle>
	<circle cx="394.40" cy="190.07" data-y="11.39" data-x="1601337600" r="1" fill="white"><title>2020-09-29: 11</title></circle>
	<circle cx="396.12" cy="177.90" data-y="12.14" data-x="1601424000" r="1" fill="white"><title>2020-09-30: 12</title></circle>
	<circle cx="397.84" cy="160.87" data-y="13.19" data-x="1601510400" r="1" fill="white"><title>2020-10-01: 13</title></circle>
	<circle cx="399.56" cy="119.50" data-y="15.73" data-x="1601596800" r="1" fill="white"><title>2020-10-02: 16</title></circle>
	<circle cx="401.27" cy="95.17" data-y="17.23" data-x="1601683200" r="1" fill="white"><title>2020-10-03: 17</title></circle>
	<circle cx="402.99" cy="70.83" data-y="18.73" data-x="1601769600" r="1" fill="white"><title>2020-10-04: 19</title></circle>
	<circle cx="404.71" cy="61.10" data-y="19.33" data-x="1601856000" r="1" fill="white"><title>2020-10-05: 19</title></circle>
	<circle cx="406.43" cy="63.53" data-y="19.18" data-x="1601942400" r="1" fill="white"><title>2020-10-06: 19</title></circle>
	<circle cx="408.15" cy="70.83" data-y="18.73" data-x="1602028800" r="1" fill="white"><title>2020-10-07: 19</title></circle>
	<circle cx="409.86" cy="56.23" data-y="19.63" data-x="1602115200" r="1" fill="white"><title>2020-10-08: 20</title></circle>
	<circle cx="411.58" cy="58.67" data-y="19.48" data-x="1602201600" r="1" fill="white"><title>2020-10-09: 19</title></circle>
	<circle cx="413.30" cy="65.97" data-y="19.03" data-x="1602288000" r="1" fill="white"><title>2020-10-10: 19</title></circle>
	<circle cx="415.02" cy="36.77" data-y="20.83" data-x="1602374400" r="1" fill="white"><title>2020-10-11: 21</title></circle>
	<circle cx="416.74" cy="10.00" data-y="22.48" data-x="1602460800" r="1" fill="white"><title>2020-10-12: 22</title></circle>
	<circle cx="418.46" cy="31.90" data-y="21.13" data-x="1602547200" r="1" fill="white"><title>2020-10-13: 21</title></circle>
	<circle cx="420.17" cy="22.17" data-y="21.73" data-x="1602633600" r="1" fill="white"><title>2020-10-14: 22</title></circle>
	<circle cx="421.89" cy="39.20" data-y="20.68" data-x="1602720000" r="1" fill="white"><title>2020-10-15: 21</title></circle>
	<circle cx="423.61" cy="46.50" data-y="20.23" data-x="1602806400" r="1" fill="white"><title>2020-10-16: 20</title></circle>
	<circle cx="425.33" cy="48.93" data-y="20.08" data-x="1602892800" r="1" fill="white"><title>2020-10-17: 20</title></circle>
	<circle cx="427.05" cy="87.87" data-y="17.68" data-x="1602979200" r="1" fill="white"><title>2020-10-18: 18</title></circle>
	<circle cx="428.76" cy="126.80" data-y="15.29" data-x="1603065600" r="1" fill="white"><title>2020-10-19: 15</title></circle>
	<circle cx="430.48" cy="143.83" data-y="14.24" data-x="1603152000" r="1" fill="white"><title>2020-10-20: 14</title></circle>
	<circle cx="432.20" cy="151.13" data-y="13.79" data-x="1603238400" r="1" fill="white"><title>2020-10-21: 14</title></circle>
	<circle cx="433.92" cy="141.40" data-y="14.39" data-x="1603324800" r="1" fill="white"><title>2020-10-22: 14</title></circle>
	<circle cx="435.64" cy="165.73" data-y="12.89" data-x="1603411200" r="1" fill="white"><title>2020-10-23: 13</title></circle>
	<circle cx="437.36" cy="185.20" data-y="11.69" data-x="1603497600" r="1" fill="white"><title>2020-10-24: 12</title></circle>
	<circle cx="439.07" cy="173.03" data-y="12.44" data-x="1603584000" r="1" fill="white"><title>2020-10-25: 12</title></circle>
	<circle cx="440.79" cy="90.30" data-y="17.53" data-x="1603670400" r="1" fill="white"><title>2020-10-26: 18</title></circle>
	<circle cx="442.51" cy="80.57" data-y="18.13" data-x="1603756800" r="1" fill="white"><title>2020-10-27: 18</title></circle>
	<circle cx="444.23" cy="53.80" data-y="19.78" data-x="1603843200" r="1" fill="white"><title>2020-10-28: 20</title></circle>
	<circle cx="445.95" cy="61.10" data-y="19.33" data-x="1603929600" r="1" fill="white"><title>2020-10-29: 19</title></circle>
	<circle cx="447.66" cy="68.40" data-y="18.88" data-x="1604016000" r="1" fill="white"><title>2020-10-30: 19</title></circle>
	<circle cx="449.38" cy="75.70" data-y="18.43" data-x="1604102400" r="1" fill="white"><title>2020-10-31: 18</title></circle>
	<circle cx="451.10" cy="90.30" data-y="17.53" data-x="1604188800" r="1" fill="white"><title>2020-11-01: 18</title></circle>
	<circle cx="452.82" cy="175.47" data-y="12.29" data-x="1604275200" r="1" fill="white"><title>2020-11-02: 12</title></circle>
	<circle cx="454.54" cy="197.37" data-y="10.94" data-x="1604361600" r="1" fill="white"><title>2020-11-03: 11</title></circle>
	<circle cx="456.25" cy="199.80" data-y="10.79" data-x="1604448000" r="1" fill="white"><title>2020-11-04: 11</title></circle>
	<circle cx="457.97" cy="207.10" data-y="10.34" data-x="1604534400" r="1" fill="white"><title>2020-11-05: 10</title></circle>
	<circle cx="459.69" cy="211.97" data-y="10.04" data-x="1604620800" r="1" fill="white"><title>2020-11-06: 10</title></circle>
	<circle cx="461.41" cy="197.37" data-y="10.94" data-x="1604707200" r="1" fill="white"><title>2020-11-07: 11</title></circle>
</g>
<g data-series="recent-cases" class="data-series">
	<path d="M 461.41,197.37L 463.13,224.13L 464.85,250.90L 466.56,247.25L 468.28,283.02L 470.00,289.83" id="Recent cases" class="line" stroke-width="1" stroke-linecap="round" stroke-dasharray="4,6" stroke-dashoffset="4"><title>Recent cases</title></path>
	<circle cx="461.41" cy="197.37" data-y="10.94" data-x="1604707200" r="2.5" fill="white"><title>2020-11-07: 11</title></circle>
	<circle cx="463.13" cy="224.13" data-y="9.29" data-x="1604793600" r="2.5" fill="white"><title>2020-11-08: 9</title></circle>
	<circle cx="464.85" cy="250.90" data-y="7.64" data-x="1604880000" r="2.5" fill="white"><title>2020-11-09: 8</title></circle>
	<circle cx="466.56" cy="247.25" data-y="7.87" data-x="1604966400" r="2.5" fill="white"><title>2020-11-10: 8</title></circle>
	<circle cx="468.28" cy="283.02" data-y="5.66" data-x="1605052800" r="2.5" fill="white"><title>2020-11-11: 6</title></circle>
	<circle cx="470.00" cy="289.83" data-y="5.24" data-x="1605139200" r="2.5" fill="white"><title>2020-11-12: 5</title></circle>
</g>
</svg>
